<svg width="63" height="88" viewBox="0 0 63 88" fill="none" xmlns="http://www.w3.org/2000/svg">
<rect width="63" height="88" rx="4" fill="url(#paint0_linear_26835_29165)"/>
<g clip-path="url(#clip0_26835_29165)">
<g clip-path="url(#clip1_26835_29165)">
<path d="M56.54 0.560059H6.45999C3.11315 0.560059 0.399994 3.27321 0.399994 6.62006V81.3801C0.399994 84.7269 3.11315 87.4401 6.45999 87.4401H56.54C59.8868 87.4401 62.6 84.7269 62.6 81.3801V6.62006C62.6 3.27321 59.8868 0.560059 56.54 0.560059Z" fill="#FF7F00"/>
<g opacity="0.2">
<mask id="mask0_26835_29165" style="mask-type:luminance" maskUnits="userSpaceOnUse" x="0" y="0" width="63" height="88">
<path d="M56.54 0.560059H6.45999C3.11315 0.560059 0.399994 3.27321 0.399994 6.62006V81.3801C0.399994 84.7269 3.11315 87.4401 6.45999 87.4401H56.54C59.8868 87.4401 62.6 84.7269 62.6 81.3801V6.62006C62.6 3.27321 59.8868 0.560059 56.54 0.560059Z" fill="white"/>
</mask>
<g mask="url(#mask0_26835_29165)">
<path d="M68.37 47.3101V26.6401L4.45999 90.5501H25.13L68.37 47.3101Z" fill="url(#paint1_linear_26835_29165)"/>
<path d="M64.66 -2.29004H55.22L-2.92001 55.84V66.18L65.46 -2.20004C65.2 -2.26004 64.93 -2.29004 64.66 -2.29004Z" fill="url(#paint2_linear_26835_29165)"/>
<path d="M68.37 69.2298V61.5498L39.37 90.5498H47.05L68.37 69.2298Z" fill="url(#paint3_linear_26835_29165)"/>
</g>
</g>
<path d="M59 0H4C1.79 0 0 1.79 0 4V84C0 86.21 1.79 88 4 88H59C61.21 88 63 86.21 63 84V4C63 1.79 61.21 0 59 0ZM61 82.81C61 84.57 59.57 86 57.81 86H5.19C3.43 86 2 84.57 2 82.81V18.19C2 16.43 3.43 15 5.19 15H33.59C34.8 15 35.94 14.45 36.7 13.51L44.8 3.48C45.56 2.54 46.7 1.99 47.91 1.99H57.81C59.57 1.99 61 3.42 61 5.18V82.8V82.81Z" fill="url(#paint4_linear_26835_29165)"/>
<mask id="mask1_26835_29165" style="mask-type:luminance" maskUnits="userSpaceOnUse" x="0" y="0" width="63" height="88">
<path d="M59 0H4C1.79 0 0 1.79 0 4V84C0 86.21 1.79 88 4 88H59C61.21 88 63 86.21 63 84V4C63 1.79 61.21 0 59 0ZM61 82.81C61 84.57 59.57 86 57.81 86H5.19C3.43 86 2 84.57 2 82.81V18.19C2 16.43 3.43 15 5.19 15H33.59C34.8 15 35.94 14.45 36.7 13.51L44.8 3.48C45.56 2.54 46.7 1.99 47.91 1.99H57.81C59.57 1.99 61 3.42 61 5.18V82.8V82.81Z" fill="white"/>
</mask>
<g mask="url(#mask1_26835_29165)">
<path d="M68.37 47.3101V26.6401L4.45999 90.5501H25.13L68.37 47.3101Z" fill="white"/>
<path d="M64.66 -2.29004H55.22L-2.92001 55.84V66.18L65.46 -2.20004C65.2 -2.26004 64.93 -2.29004 64.66 -2.29004Z" fill="white"/>
<path d="M68.37 69.2298V61.5498L39.37 90.5498H47.05L68.37 69.2298Z" fill="white"/>
</g>
<path d="M18.47 62H44.52C48.42 62 51.58 65.36 51.58 69.49C51.58 73.63 48.42 76.98 44.52 76.98H18.47C14.57 76.98 11.41 73.62 11.41 69.49C11.41 65.35 14.57 62 18.47 62Z" fill="#FF5500"/>
<path d="M30.21 76.9901H34.87L37.02 74.8701H32.36L30.21 76.9901Z" fill="#FFC200"/>
<path d="M19.5 62H43.5C47.09 62 50 64.91 50 68.5C50 72.09 47.09 75 43.5 75H19.5C15.91 75 13 72.09 13 68.5C13 64.91 15.91 62 19.5 62Z" fill="#FFC200"/>
<path d="M43.5 62.5C46.81 62.5 49.5 65.19 49.5 68.5C49.5 71.81 46.81 74.5 43.5 74.5H19.5C16.19 74.5 13.5 71.81 13.5 68.5C13.5 65.19 16.19 62.5 19.5 62.5H43.5ZM43.5 62H19.5C15.91 62 13 64.91 13 68.5C13 72.09 15.91 75 19.5 75H43.5C47.09 75 50 72.09 50 68.5C50 64.91 47.09 62 43.5 62Z" fill="url(#paint5_linear_26835_29165)"/>
<path d="M20.96 62C20.96 62 27.16 66.13 37.02 64.55C43.95 63.44 45 62 45 62H20.96Z" fill="#FF5500"/>
<path d="M49.6064 68.2235C50.1926 67.8484 50.0042 66.5073 49.1857 65.2279C48.3672 63.9486 47.2285 63.2155 46.6423 63.5905C46.0562 63.9655 46.2445 65.3067 47.063 66.586C47.8815 67.8654 49.0202 68.5985 49.6064 68.2235Z" fill="white"/>
<path d="M56.31 55.29C55.67 56.29 55.15 56.81 54.15 57.45C55.15 58.09 55.67 58.61 56.31 59.61C56.95 58.61 57.47 58.09 58.47 57.45C57.47 56.81 56.95 56.29 56.31 55.29Z" fill="white"/>
<path d="M49.17 19.29C48.57 20.22 48.09 20.7 47.16 21.3C48.09 21.9 48.57 22.38 49.17 23.31C49.77 22.38 50.25 21.9 51.18 21.3C50.25 20.7 49.77 20.22 49.17 19.29Z" fill="white"/>
<path d="M19.07 27.4202C17.99 28.0802 17.07 28.4102 16.37 28.1802C12.99 27.0802 12.49 19.9902 12.49 19.9902L11.43 20.3002L10.27 29.1502L11.38 41.2502L23.09 40.9302L19.07 27.4202Z" fill="url(#paint6_linear_26835_29165)"/>
<path d="M56.91 28.5898C56.91 28.5898 51.82 36.7798 47.55 33.7698C43.28 30.7498 41.29 17.5098 34.75 17.5098C29.57 17.5098 23.18 24.8998 19.07 27.4198C17.4 30.7198 17.03 35.5198 23.09 40.9298L37.71 40.5298L48.14 49.0998L54.82 40.2198L57.42 30.3298L56.92 28.5798L56.91 28.5898Z" fill="white"/>
<path d="M19.75 27.8499C19.75 27.8499 22.85 25.4399 24.71 23.5999C26.57 21.7599 32.16 17.4499 35.02 17.8999C37.88 18.3499 39.59 20.9299 41.37 24.3399C43.15 27.7399 44.03 29.8999 45.01 31.4599C45.01 31.4599 38.47 39.8999 33.4 32.2699C28.33 24.6399 20.57 42.5399 19.75 27.8499Z" fill="url(#paint7_linear_26835_29165)"/>
<path d="M56.93 29.8901C56.93 29.8901 53.1 42.0101 47.06 45.9601C47.06 45.9601 44.37 47.6101 42.81 42.9701C42.81 42.9701 49.71 36.8901 47.84 34.4801C47.84 34.4801 51.47 37.5601 56.49 29.8901H56.94H56.93Z" fill="url(#paint8_linear_26835_29165)"/>
<path d="M35.12 19.22C37.2629 19.22 39 17.4828 39 15.34C39 13.1971 37.2629 11.46 35.12 11.46C32.9771 11.46 31.24 13.1971 31.24 15.34C31.24 17.4828 32.9771 19.22 35.12 19.22Z" fill="#FFC200"/>
<path d="M11.44 20.2998C11.44 20.2998 7.27999 34.6598 6.08999 45.9498C5.68999 49.7798 7.47999 53.5098 10.71 55.6098C14.17 57.8598 19.47 60.4998 26.7 61.9098C32.54 63.0398 37.52 63.2398 41.35 63.0898C46.41 62.8798 50.64 60.0398 52.14 54.5598C53.89 48.1598 56.93 36.3598 57.61 29.4898C57.61 29.4898 52.38 45.1098 47.49 45.3898C42.6 45.6698 39.73 31.6898 32.7 32.0398C30.83 32.1298 28.76 32.9698 26.89 33.9598C21.74 36.6698 15.83 43.4798 13.25 40.4698C10.68 37.4598 11.43 22.7898 11.43 22.7898C11.41 21.2898 11.43 20.3098 11.43 20.3098L11.44 20.2998Z" fill="#FFC200"/>
<path d="M32.7 32.4902C32.7 32.4902 33.74 35.1602 37.92 34.6502C37.92 34.6502 36.78 33.4202 36.23 33.1402L32.7 32.4902Z" fill="#1A2C38"/>
<path d="M57.85 31.03C59.9929 31.03 61.73 29.2929 61.73 27.15C61.73 25.0072 59.9929 23.27 57.85 23.27C55.7071 23.27 53.97 25.0072 53.97 27.15C53.97 29.2929 55.7071 31.03 57.85 31.03Z" fill="#FFC200"/>
<path d="M56.49 26.8698C56.49 26.8698 55.7 28.6598 54.84 27.8998C53.98 27.1398 54.81 25.4598 55.67 24.8498C56.53 24.2398 57.49 24.2698 58.39 24.6098C59.09 24.8698 61.44 27.5698 56.5 26.8598L56.49 26.8698Z" fill="white"/>
<path d="M12.5 21.7698C14.6429 21.7698 16.38 20.0326 16.38 17.8898C16.38 15.7469 14.6429 14.0098 12.5 14.0098C10.3571 14.0098 8.62 15.7469 8.62 17.8898C8.62 20.0326 10.3571 21.7698 12.5 21.7698Z" fill="#FFC200"/>
<path d="M13.28 15.2801C13.86 15.9001 12.53 16.3201 11.6 17.1901C10.67 18.0601 10.49 19.0501 9.91001 18.4301C9.33001 17.8101 9.62001 16.6001 10.55 15.7301C11.48 14.8601 12.71 14.6601 13.29 15.2801H13.28Z" fill="white"/>
<path d="M35.12 33.7698C37.2629 33.7698 39 32.0326 39 29.8898C39 27.7469 37.2629 26.0098 35.12 26.0098C32.9771 26.0098 31.24 27.7469 31.24 29.8898C31.24 32.0326 32.9771 33.7698 35.12 33.7698Z" fill="#FFC200"/>
<path d="M41.52 56.9499C39.82 60.0999 30.35 60.0599 22.08 57.7999C13.8 55.5399 7.78001 52.2099 8.72001 48.7599C9.66001 45.3099 21.59 41.5599 29.86 43.8299C38.13 46.0999 43.61 53.0799 41.52 56.9499Z" fill="#FF5500"/>
<path d="M40.89 56.0199C40.45 58.5599 35.47 58.6599 29.89 57.6899C24.31 56.7199 20.23 55.0299 20.67 52.4899C21.11 49.9499 26 48.6799 31.58 49.6499C37.16 50.6199 41.33 53.4799 40.88 56.0199H40.89Z" fill="#557086"/>
<path d="M40.24 56.5699C39.98 58.0599 37.06 58.1199 33.79 57.5499C30.52 56.9799 28.12 55.9899 28.38 54.4999C28.64 53.0099 31.51 52.2599 34.78 52.8399C38.05 53.4199 40.5 55.0799 40.24 56.5799V56.5699Z" fill="#1A2C38"/>
<path d="M49.57 52.4499C51.13 54.6499 48.11 58.2899 43.32 59.9399C38.53 61.5899 33.38 60.9899 33.06 58.3099C32.69 55.1699 36.34 56.5999 41.13 54.9599C45.92 53.3099 47.85 50.0499 49.57 52.4599V52.4499Z" fill="white"/>
<path d="M14.52 38C11.95 34.99 11.49 26.9 11.43 22.79C9.96999 29.52 6.79999 46.92 8.64999 49.73C12.5 55.59 19.25 39.84 26.88 33.96C21.79 36.68 17.06 40.99 14.52 38Z" fill="#FFEBB8"/>
<path d="M33.97 14.5902C33.97 14.5902 33.25 16.7002 32.15 15.7702C31.05 14.8502 32.59 13.0802 33.71 12.5102C35.73 11.4702 37.7 13.4502 37.03 14.4202C36.39 15.3402 33.97 14.5902 33.97 14.5902Z" fill="white"/>
<path d="M32.99 27.5599C33.82 26.7399 36.02 26.3999 36.28 27.5599C36.54 28.7199 34.85 27.6999 34.47 28.4799C34.09 29.2599 35.24 31.8299 32.99 30.6199C30.74 29.4099 32.45 28.0999 32.99 27.5599Z" fill="white"/>
<path d="M7.04 28.4702C6.4 29.4702 5.88 29.9902 4.88 30.6302C5.88 31.2702 6.4 31.7902 7.04 32.7902C7.68 31.7902 8.2 31.2702 9.2 30.6302C8.2 29.9902 7.68 29.4702 7.04 28.4702Z" fill="white"/>
</g>
<path d="M49.21 8.3298L49.08 10.7798L48.13 10.8698L47.62 9.5598L47.54 10.8998H46.73L46.8 8.3398L47.7 8.2998L48.33 9.5998L48.36 8.3698L49.21 8.3398V8.3298Z" fill="#FF5500"/>
<path d="M51.56 9.54012C51.56 9.65012 51.55 9.76012 51.52 9.86012C51.49 9.96012 51.46 10.0601 51.41 10.1501C51.36 10.2401 51.3 10.3201 51.24 10.3901C51.17 10.4601 51.1 10.5301 51.01 10.5801C50.92 10.6301 50.83 10.6701 50.73 10.7001C50.63 10.7301 50.52 10.7401 50.41 10.7401C50.3 10.7401 50.2 10.7301 50.1 10.7001C50 10.6701 49.91 10.6301 49.82 10.5801C49.73 10.5301 49.66 10.4701 49.59 10.4001C49.52 10.3301 49.46 10.2501 49.41 10.1701C49.36 10.0801 49.32 9.99012 49.3 9.89012C49.27 9.79012 49.26 9.69012 49.26 9.58012C49.26 9.47012 49.27 9.37012 49.3 9.27012C49.33 9.17012 49.36 9.07012 49.41 8.99012C49.46 8.91012 49.52 8.82012 49.58 8.74012C49.64 8.66012 49.72 8.60012 49.81 8.55012C49.89 8.50012 49.98 8.45012 50.08 8.42012C50.18 8.39012 50.28 8.37012 50.39 8.37012C50.56 8.37012 50.72 8.40012 50.87 8.45012C51.01 8.50012 51.14 8.58012 51.24 8.68012C51.34 8.78012 51.42 8.90012 51.48 9.04012C51.54 9.18012 51.56 9.34012 51.56 9.52012V9.54012ZM50.76 9.59012C50.76 9.54012 50.76 9.49012 50.74 9.44012C50.73 9.39012 50.7 9.35012 50.67 9.31012C50.64 9.27012 50.61 9.24012 50.56 9.22012C50.51 9.20012 50.47 9.18012 50.41 9.18012C50.35 9.18012 50.3 9.18012 50.26 9.21012C50.22 9.23012 50.18 9.26012 50.15 9.29012C50.12 9.32012 50.09 9.37012 50.08 9.41012C50.06 9.46012 50.05 9.51012 50.05 9.56012C50.05 9.61012 50.05 9.66012 50.07 9.71012C50.08 9.76012 50.11 9.81012 50.13 9.85012C50.16 9.89012 50.19 9.92012 50.24 9.95012C50.28 9.98012 50.33 9.99012 50.39 9.99012C50.45 9.99012 50.5 9.98012 50.54 9.96012C50.58 9.94012 50.62 9.91012 50.65 9.87012C50.68 9.83012 50.71 9.79012 50.72 9.74012C50.74 9.69012 50.75 9.64012 50.75 9.59012H50.76Z" fill="#FF5500"/>
<path d="M52.31 10.5499C52.31 10.5999 52.3 10.6499 52.28 10.6999C52.26 10.7499 52.23 10.7899 52.2 10.8199C52.17 10.8499 52.13 10.8799 52.08 10.8999C52.03 10.9199 51.99 10.9299 51.93 10.9299C51.87 10.9299 51.83 10.9299 51.78 10.8999C51.73 10.8799 51.69 10.8499 51.66 10.8199C51.63 10.7899 51.6 10.7499 51.58 10.6999C51.56 10.6499 51.55 10.5999 51.55 10.5499C51.55 10.4999 51.55 10.4499 51.58 10.3999C51.6 10.3499 51.63 10.3099 51.66 10.2799C51.69 10.2499 51.73 10.2199 51.78 10.1999C51.83 10.1799 51.88 10.1699 51.93 10.1699C51.98 10.1699 52.03 10.1699 52.08 10.1999C52.13 10.2199 52.17 10.2499 52.2 10.2799C52.23 10.3099 52.26 10.3599 52.28 10.3999C52.3 10.4499 52.31 10.4999 52.31 10.5499Z" fill="#FF5500"/>
<path d="M49.1 7.86984L48.97 10.3198L48.02 10.4098L47.51 9.09984L47.43 10.4398H46.62L46.69 7.87984L47.59 7.83984L48.22 9.13984L48.25 7.90984L49.1 7.87984V7.86984Z" fill="white"/>
<path d="M51.46 9.08016C51.46 9.19016 51.45 9.30016 51.42 9.40016C51.39 9.50016 51.36 9.60016 51.31 9.69016C51.26 9.78016 51.2 9.86016 51.14 9.93016C51.07 10.0002 51 10.0702 50.91 10.1202C50.82 10.1702 50.73 10.2102 50.63 10.2402C50.53 10.2702 50.42 10.2802 50.31 10.2802C50.2 10.2802 50.1 10.2702 50 10.2402C49.9 10.2102 49.81 10.1702 49.72 10.1202C49.63 10.0702 49.56 10.0102 49.49 9.94016C49.42 9.87016 49.36 9.79016 49.31 9.71016C49.26 9.62016 49.22 9.53016 49.2 9.43016C49.17 9.33016 49.16 9.23016 49.16 9.12016C49.16 9.01016 49.17 8.91016 49.2 8.81016C49.23 8.71016 49.26 8.61016 49.31 8.53016C49.36 8.45016 49.42 8.36016 49.48 8.28016C49.54 8.20016 49.62 8.14016 49.71 8.09016C49.79 8.04016 49.88 7.99016 49.98 7.96016C50.08 7.93016 50.18 7.91016 50.29 7.91016C50.46 7.91016 50.62 7.94016 50.77 7.99016C50.91 8.04016 51.04 8.12016 51.14 8.22016C51.24 8.32016 51.32 8.44016 51.38 8.58016C51.44 8.72016 51.46 8.88016 51.46 9.06016V9.08016ZM50.66 9.12016C50.66 9.07016 50.66 9.02016 50.64 8.97016C50.63 8.92016 50.6 8.88016 50.57 8.84016C50.54 8.80016 50.51 8.77016 50.46 8.75016C50.41 8.73016 50.37 8.71016 50.31 8.71016C50.25 8.71016 50.2 8.71016 50.16 8.74016C50.12 8.76016 50.08 8.79016 50.05 8.82016C50.02 8.85016 49.99 8.90016 49.98 8.94016C49.96 8.99016 49.95 9.04016 49.95 9.09016C49.95 9.14016 49.95 9.19016 49.97 9.24016C49.98 9.29016 50.01 9.34016 50.03 9.38016C50.06 9.42016 50.09 9.45016 50.14 9.48016C50.18 9.51016 50.23 9.52016 50.29 9.52016C50.35 9.52016 50.4 9.51016 50.44 9.49016C50.48 9.47016 50.52 9.44016 50.55 9.40016C50.58 9.36016 50.61 9.32016 50.62 9.27016C50.64 9.22016 50.65 9.17016 50.65 9.12016H50.66Z" fill="white"/>
<path d="M52.21 10.09C52.21 10.14 52.2 10.19 52.18 10.24C52.16 10.29 52.13 10.33 52.1 10.36C52.07 10.39 52.03 10.42 51.98 10.44C51.93 10.46 51.89 10.47 51.83 10.47C51.77 10.47 51.73 10.47 51.68 10.44C51.63 10.42 51.59 10.39 51.56 10.36C51.53 10.33 51.5 10.29 51.48 10.24C51.46 10.19 51.45 10.14 51.45 10.09C51.45 10.04 51.45 9.98996 51.48 9.93996C51.5 9.88996 51.53 9.84996 51.56 9.81996C51.59 9.78996 51.63 9.75996 51.68 9.73996C51.73 9.71996 51.78 9.70996 51.83 9.70996C51.88 9.70996 51.93 9.70996 51.98 9.73996C52.03 9.75996 52.07 9.78996 52.1 9.81996C52.13 9.84996 52.16 9.89996 52.18 9.93996C52.2 9.98996 52.21 10.04 52.21 10.09Z" fill="white"/>
<path d="M57.06 8.3199C57.06 8.5299 57.02 8.7299 56.95 8.9199C56.88 9.1099 56.78 9.2899 56.65 9.4499C56.53 9.6199 56.39 9.7699 56.23 9.9099C56.07 10.0499 55.91 10.1699 55.75 10.2899H56.98L56.89 11.9099L53.24 11.7899V10.3699C53.38 10.3199 53.52 10.2699 53.68 10.1999C53.83 10.1299 53.98 10.0599 54.13 9.9699C54.28 9.8799 54.42 9.7899 54.55 9.6799C54.68 9.5699 54.8 9.4599 54.9 9.3299C55 9.1999 55.08 9.0699 55.14 8.9199C55.2 8.7699 55.23 8.6099 55.23 8.4399C55.23 8.3399 55.21 8.2499 55.18 8.1799C55.15 8.1099 55.1 8.0399 55.03 7.9899C54.96 7.9399 54.9 7.8999 54.81 7.8799C54.73 7.8599 54.64 7.8399 54.55 7.8399C54.47 7.8399 54.39 7.8399 54.31 7.8699C54.23 7.8899 54.15 7.9099 54.07 7.9399C53.99 7.9699 53.92 8.0099 53.85 8.0499C53.78 8.0999 53.72 8.1499 53.67 8.1999L53.33 6.6699C53.43 6.5699 53.54 6.4899 53.66 6.4299C53.79 6.3699 53.92 6.3099 54.05 6.2699C54.19 6.2299 54.33 6.1999 54.47 6.1799C54.61 6.1599 54.75 6.1499 54.89 6.1499C55.2 6.1499 55.48 6.2099 55.75 6.3199C56.02 6.4299 56.25 6.5799 56.44 6.7799C56.64 6.9699 56.79 7.1999 56.9 7.4699C57.01 7.7399 57.07 8.0199 57.07 8.3299L57.06 8.3199Z" fill="#FF5500"/>
<path d="M56.88 7.87996C56.88 8.08996 56.84 8.28996 56.77 8.47996C56.7 8.66996 56.6 8.84996 56.47 9.00996C56.35 9.17996 56.21 9.32996 56.05 9.46996C55.89 9.60996 55.73 9.72996 55.57 9.84996H56.8L56.71 11.47L53.06 11.35V9.92996C53.2 9.87996 53.34 9.82996 53.5 9.75996C53.65 9.68996 53.8 9.61996 53.95 9.52996C54.1 9.43996 54.24 9.34996 54.37 9.23996C54.5 9.12996 54.62 9.01996 54.72 8.88996C54.82 8.75996 54.9 8.62996 54.96 8.47996C55.02 8.32996 55.05 8.16996 55.05 7.99996C55.05 7.89996 55.03 7.80996 55 7.73996C54.97 7.66996 54.92 7.59996 54.85 7.54996C54.78 7.49996 54.72 7.45996 54.63 7.43996C54.55 7.41996 54.46 7.39996 54.37 7.39996C54.29 7.39996 54.21 7.39996 54.13 7.42996C54.05 7.44996 53.97 7.46996 53.89 7.49996C53.81 7.52996 53.74 7.56996 53.67 7.60996C53.6 7.65996 53.54 7.70996 53.49 7.75996L53.15 6.22996C53.25 6.12996 53.36 6.04996 53.48 5.98996C53.61 5.92996 53.74 5.86996 53.87 5.82996C54.01 5.78996 54.15 5.75996 54.29 5.73996C54.43 5.71996 54.57 5.70996 54.71 5.70996C55.02 5.70996 55.3 5.76996 55.57 5.87996C55.84 5.98996 56.07 6.13996 56.26 6.33996C56.46 6.52996 56.61 6.75996 56.72 7.02996C56.83 7.29996 56.89 7.57996 56.89 7.88996L56.88 7.87996Z" fill="#FFEBB8"/>
<path d="M53.05 11.3398V9.91982L54.39 9.81982L56.78 10.1398L56.7 11.4598L53.05 11.3398Z" fill="#FFC200"/>
<path d="M53.05 9.92006C53.05 9.92006 53.79 9.67006 54.25 9.31006L56.1 9.42006C56.1 9.42006 55.79 9.71006 55.57 9.84006H56.8L56.78 10.1401L53.05 9.92006Z" fill="white"/>
<path d="M56.82 7.4002C56.79 7.2702 56.75 7.1402 56.7 7.0202C56.59 6.7502 56.43 6.5202 56.24 6.3302C56.04 6.1402 55.81 5.9802 55.55 5.8702C55.28 5.7602 55 5.7002 54.69 5.7002C54.55 5.7002 54.41 5.7002 54.27 5.7302C54.13 5.7602 53.99 5.7802 53.85 5.8202C53.71 5.8602 53.58 5.9102 53.46 5.9802C53.34 6.0402 53.22 6.1302 53.13 6.2202L53.31 7.0102L56.84 7.4002H56.82Z" fill="white"/>
</g>
<path fill-rule="evenodd" clip-rule="evenodd" d="M6.49771 79C6.98969 79 7.48602 79.213 7.49037 79.6913C7.49037 80.1043 7.24656 80.2696 6.99839 80.2696C6.75023 80.2696 6.73281 80.1435 6.73281 80.1435C6.73281 80.1435 7.02452 79.9261 7.02452 79.7174C7.02452 79.6087 6.94179 79.313 6.489 79.3174C5.8577 79.3174 5.5181 79.6174 5.5181 80.1522C5.5181 80.7652 7.35105 80.9739 7.3554 81.7652C7.3554 82.613 6.47594 82.9957 5.69225 83C5.283 83 5.01306 82.7609 5.00871 82.3783C5.00871 81.9261 5.22204 81.4652 5.75756 81.4652C5.88382 81.4565 5.98831 81.5522 5.99702 81.6783C5.99702 81.6783 5.99702 81.6826 5.99702 81.687C5.99702 81.687 5.45715 81.8391 5.4615 82.3783C5.4615 82.4783 5.56599 82.6609 5.81851 82.6565C6.07103 82.6522 6.82424 82.4739 6.81989 81.8087C6.81989 81.1913 5.00435 81.1087 5 80.1478C5 79.0652 6.08845 79.0087 6.49771 79.0087V79ZM10.747 79.6C10.8123 79.5696 11.2129 79.4913 11.1955 79.813C11.1824 80.1348 10.9386 80.6913 10.9037 80.9348C11.2303 80.7696 11.6918 80.2087 11.6918 80.2087C11.6918 80.2087 12.0183 80.2522 11.9182 80.4522C11.818 80.6522 11.1519 81.1435 11.1519 81.1435C11.1519 81.1435 11.3043 82.5696 12.1707 82.5696C12.6453 82.5696 12.8499 82.3609 12.937 82.287C12.9587 82.2696 12.9762 82.2652 12.9849 82.2783C13.0197 82.387 12.9936 82.5043 12.9152 82.5913C12.8194 82.6957 12.5974 82.8217 12.1533 82.8261C11.3653 82.8261 10.9255 82.1957 10.8123 81.2609C10.7252 81.5348 10.7339 81.9826 10.7209 82.2C10.6948 82.2435 10.2507 82.4174 10.2158 82.1174C10.2158 82.0913 10.2158 82.0696 10.2158 82.0435C10.1331 82.1609 10.0199 82.2826 9.91108 82.2826C9.71951 82.2826 9.63679 82.1217 9.60196 82.0391C9.57584 82.0696 9.3625 82.287 9.08821 82.287C8.92277 82.2913 8.77474 82.1957 8.70943 82.0435C8.57011 82.1435 8.32195 82.2913 8.03895 82.2913C7.73418 82.2913 7.66017 82.1087 7.66017 81.9565C7.66017 81.713 7.84303 80.987 7.84303 80.987C7.84303 80.987 7.48602 81.1304 7.36411 81.1348C7.19431 81.1348 7.11159 80.8217 7.11159 80.813C7.11159 80.8087 7.11159 80.8 7.1203 80.8C7.22044 80.7609 7.94317 80.513 7.94317 80.513C7.94317 80.513 8.07813 79.9826 8.09555 79.913C8.11296 79.8435 8.2131 79.7 8.33065 79.6565C8.41773 79.6217 8.50916 79.6 8.60059 79.5913C8.63107 79.5913 8.65284 79.6 8.65284 79.6174C8.65284 79.6348 8.47433 80.4087 8.47433 80.4087C8.47433 80.4087 8.84876 80.3217 8.98808 80.3217C9.09692 80.3217 9.15352 80.387 9.09257 80.4696C9.03162 80.5522 8.96196 80.6478 8.92712 80.6913C8.88794 80.7348 8.86182 80.7435 8.77039 80.7609C8.64413 80.787 8.36113 80.8565 8.36113 80.8565C8.36113 80.8565 8.13473 81.6783 8.13909 81.8174C8.13909 81.8957 8.16521 81.987 8.26099 81.987C8.35678 81.987 8.53964 81.8739 8.67025 81.7913C8.69202 81.1522 9.18835 80.7261 9.57584 80.7261C9.7021 80.7261 9.65421 80.8478 9.79788 80.8478H9.88931C9.94591 80.8478 10.0069 80.8522 10.0069 80.9957C10.0069 81.1957 9.89367 81.5261 9.89367 81.7348C9.89367 81.8826 9.91544 81.987 9.97204 81.987C10.0678 81.987 10.1767 81.8478 10.255 81.7261C10.3813 81.0304 10.734 79.7609 10.734 79.6174L10.747 79.6ZM12.5016 80.7C12.7672 80.6783 12.9326 80.8217 12.9631 80.9C12.9936 80.9783 12.9892 81.1609 12.9152 81.2913C12.6845 81.7044 12.1097 81.6304 12.1097 81.6304C12.1097 81.6304 12.0444 81.9565 12.3405 81.9565C12.593 81.9565 12.7062 81.8304 12.8151 81.7261C12.8586 81.7261 12.9936 81.8652 12.9326 81.9609C12.8847 82.0348 12.6191 82.2565 12.2795 82.2609C11.7397 82.2609 11.6047 81.8 11.6744 81.4696C11.7658 81.0609 12.1751 80.7217 12.5016 80.6957V80.7ZM9.6455 80.987C9.32332 80.987 8.82699 81.9696 9.20577 81.9652C9.61938 81.9652 9.6455 81.1826 9.6455 81.0043V80.987ZM12.6409 80.8913C12.4232 80.9 12.1751 81.3174 12.1533 81.5C12.4798 81.513 12.654 81.1957 12.6757 81.0696C12.6888 80.9739 12.6932 80.887 12.6409 80.887V80.8913Z" fill="white"/>
<path fill-rule="evenodd" clip-rule="evenodd" d="M55.9957 79.5947C56.0385 79.5947 56.077 79.6161 56.0984 79.6504L56.9027 80.8012L57.5615 80.1423C57.6 80.1038 57.6514 80.0953 57.6984 80.1167C57.7455 80.1381 57.7754 80.1808 57.7754 80.2365V81.8963C57.7754 82.0332 57.7198 82.1616 57.6257 82.2557C57.5316 82.3498 57.3989 82.4054 57.2663 82.4054H54.7209C54.584 82.4054 54.4556 82.3498 54.3615 82.2557C54.2674 82.1616 54.2118 82.029 54.2118 81.8963V80.2322C54.2118 80.1808 54.2417 80.1338 54.2888 80.1124C54.3358 80.091 54.3915 80.1038 54.4257 80.1381L55.0845 80.7969L55.8888 79.6461C55.9145 79.6119 55.953 79.5905 55.9915 79.5905L55.9957 79.5947Z" fill="#FFC200"/>
<path d="M55.9957 79.5947C56.0385 79.5947 56.077 79.6161 56.0984 79.6504L56.9027 80.8012L57.5615 80.1423C57.5872 80.1167 57.6171 80.1039 57.6513 80.1039C57.6685 80.1039 57.6856 80.1039 57.6984 80.1124C57.7455 80.1338 57.7754 80.1766 57.7754 80.2322V81.8921C57.7754 82.029 57.7198 82.1573 57.6257 82.2514C57.5316 82.3456 57.3989 82.4012 57.2663 82.4012H54.7209C54.584 82.4012 54.4556 82.3456 54.3615 82.2514C54.2674 82.1573 54.2118 82.0247 54.2118 81.8921L54.2118 80.2322C54.2118 80.1808 54.2417 80.1338 54.2888 80.1124C54.3059 80.1038 54.323 80.1039 54.3358 80.1039C54.3701 80.1039 54.4 80.1167 54.4257 80.1424L55.0845 80.8012L55.8888 79.6504C55.9144 79.6162 55.9529 79.5948 55.9914 79.5948M55.9957 79.3809C55.8845 79.3809 55.7818 79.4365 55.7176 79.5263L55.0588 80.4675L54.5797 79.9883C54.5155 79.9242 54.4299 79.89 54.3401 79.89C54.2973 79.89 54.2503 79.8985 54.2075 79.9156C54.0791 79.967 53.9979 80.091 53.9979 80.2322V81.8921C53.9979 82.0846 54.0749 82.2686 54.2118 82.4055C54.3487 82.5424 54.5283 82.6194 54.7251 82.6194H57.2749C57.4674 82.6194 57.6513 82.5424 57.7882 82.4055C57.9251 82.2686 58.0021 82.0889 58.0021 81.8921V80.2322C58.0021 80.0953 57.9209 79.9712 57.7925 79.9156C57.7497 79.8985 57.707 79.89 57.6642 79.89C57.5743 79.89 57.4888 79.9242 57.4246 79.9883L56.9455 80.4675L56.2781 79.5263C56.2139 79.4365 56.107 79.3809 56 79.3809H55.9957Z" fill="#213743"/>
<path fill-rule="evenodd" clip-rule="evenodd" d="M55.3925 81.0664C55.3284 80.9809 55.3241 80.8611 55.3882 80.7755L56 79.9242V81.8621L55.3968 81.0707L55.3925 81.0664Z" fill="#FF7F00"/>
<path fill-rule="evenodd" clip-rule="evenodd" d="M56.6032 80.7113C56.6674 80.7969 56.6717 80.9167 56.6075 81.0022L55.9957 81.8536V79.9199L56.599 80.7113H56.6032Z" fill="#FFEBB8"/>
<path d="M24.57 70.5H23.538V67.818L22.866 68.496L22.278 67.878L23.676 66.498H24.57V70.5ZM26.3356 70.134C26.3356 70.626 26.0716 71.058 25.6516 71.352L25.2676 71.04C25.4596 70.944 25.7116 70.686 25.7776 70.47C25.7476 70.476 25.6936 70.488 25.6396 70.488C25.3816 70.488 25.1716 70.29 25.1716 69.996C25.1716 69.69 25.4236 69.444 25.7236 69.444C26.0476 69.444 26.3356 69.696 26.3356 70.134ZM28.3212 70.572C27.1512 70.572 26.6052 69.558 26.6052 68.502C26.6052 67.446 27.1512 66.438 28.3212 66.438C29.4912 66.438 30.0372 67.446 30.0372 68.502C30.0372 69.558 29.4912 70.572 28.3212 70.572ZM28.3212 69.66C28.8012 69.66 28.9932 69.21 28.9932 68.502C28.9932 67.794 28.8012 67.35 28.3212 67.35C27.8412 67.35 27.6492 67.794 27.6492 68.502C27.6492 69.21 27.8412 69.66 28.3212 69.66ZM32.0654 70.572C30.8954 70.572 30.3494 69.558 30.3494 68.502C30.3494 67.446 30.8954 66.438 32.0654 66.438C33.2354 66.438 33.7814 67.446 33.7814 68.502C33.7814 69.558 33.2354 70.572 32.0654 70.572ZM32.0654 69.66C32.5454 69.66 32.7374 69.21 32.7374 68.502C32.7374 67.794 32.5454 67.35 32.0654 67.35C31.5854 67.35 31.3934 67.794 31.3934 68.502C31.3934 69.21 31.5854 69.66 32.0654 69.66ZM35.8095 70.572C34.6395 70.572 34.0935 69.558 34.0935 68.502C34.0935 67.446 34.6395 66.438 35.8095 66.438C36.9795 66.438 37.5255 67.446 37.5255 68.502C37.5255 69.558 36.9795 70.572 35.8095 70.572ZM35.8095 69.66C36.2895 69.66 36.4815 69.21 36.4815 68.502C36.4815 67.794 36.2895 67.35 35.8095 67.35C35.3295 67.35 35.1375 67.794 35.1375 68.502C35.1375 69.21 35.3295 69.66 35.8095 69.66ZM40.7896 70.5H39.7756L39.2176 69.624L38.6536 70.5H37.6456L38.6356 69.012L37.7056 67.602H38.7196L39.2176 68.388L39.7096 67.602H40.7236L39.7996 69.012L40.7896 70.5Z" fill="#FFEBB8"/>
<path d="M24.57 70H23.538V67.318L22.866 67.996L22.278 67.378L23.676 65.998H24.57V70ZM26.3356 69.634C26.3356 70.126 26.0716 70.558 25.6516 70.852L25.2676 70.54C25.4596 70.444 25.7116 70.186 25.7776 69.97C25.7476 69.976 25.6936 69.988 25.6396 69.988C25.3816 69.988 25.1716 69.79 25.1716 69.496C25.1716 69.19 25.4236 68.944 25.7236 68.944C26.0476 68.944 26.3356 69.196 26.3356 69.634ZM28.3212 70.072C27.1512 70.072 26.6052 69.058 26.6052 68.002C26.6052 66.946 27.1512 65.938 28.3212 65.938C29.4912 65.938 30.0372 66.946 30.0372 68.002C30.0372 69.058 29.4912 70.072 28.3212 70.072ZM28.3212 69.16C28.8012 69.16 28.9932 68.71 28.9932 68.002C28.9932 67.294 28.8012 66.85 28.3212 66.85C27.8412 66.85 27.6492 67.294 27.6492 68.002C27.6492 68.71 27.8412 69.16 28.3212 69.16ZM32.0654 70.072C30.8954 70.072 30.3494 69.058 30.3494 68.002C30.3494 66.946 30.8954 65.938 32.0654 65.938C33.2354 65.938 33.7814 66.946 33.7814 68.002C33.7814 69.058 33.2354 70.072 32.0654 70.072ZM32.0654 69.16C32.5454 69.16 32.7374 68.71 32.7374 68.002C32.7374 67.294 32.5454 66.85 32.0654 66.85C31.5854 66.85 31.3934 67.294 31.3934 68.002C31.3934 68.71 31.5854 69.16 32.0654 69.16ZM35.8095 70.072C34.6395 70.072 34.0935 69.058 34.0935 68.002C34.0935 66.946 34.6395 65.938 35.8095 65.938C36.9795 65.938 37.5255 66.946 37.5255 68.002C37.5255 69.058 36.9795 70.072 35.8095 70.072ZM35.8095 69.16C36.2895 69.16 36.4815 68.71 36.4815 68.002C36.4815 67.294 36.2895 66.85 35.8095 66.85C35.3295 66.85 35.1375 67.294 35.1375 68.002C35.1375 68.71 35.3295 69.16 35.8095 69.16ZM40.7896 70H39.7756L39.2176 69.124L38.6536 70H37.6456L38.6356 68.512L37.7056 67.102H38.7196L39.2176 67.888L39.7096 67.102H40.7236L39.7996 68.512L40.7896 70Z" fill="#FF5500"/>
<path d="M7.45 11.3999H5.33V8.0649H6.04V10.7749H7.45V11.3999ZM9.01348 11.4599C8.27848 11.4599 7.72348 10.9649 7.72348 10.1899C7.72348 9.4899 8.23848 8.9249 8.97348 8.9249C9.69348 8.9249 10.1835 9.4649 10.1835 10.2549V10.3949H8.38848C8.42848 10.6999 8.67348 10.9549 9.08348 10.9549C9.28848 10.9549 9.57348 10.8649 9.72848 10.7149L10.0085 11.1249C9.76848 11.3449 9.38848 11.4599 9.01348 11.4599ZM9.56848 9.9649C9.55348 9.7349 9.39348 9.4299 8.97348 9.4299C8.57848 9.4299 8.40848 9.7249 8.37848 9.9649H9.56848ZM11.6321 12.3799C11.2171 12.3799 10.8971 12.2849 10.5921 12.0199L10.8771 11.5599C11.0721 11.7749 11.3271 11.8599 11.6321 11.8599C11.9371 11.8599 12.2971 11.7249 12.2971 11.2499V11.0049C12.1071 11.2449 11.8471 11.3849 11.5521 11.3849C10.9471 11.3849 10.4871 10.9599 10.4871 10.1549C10.4871 9.3649 10.9421 8.9249 11.5521 8.9249C11.8421 8.9249 12.1021 9.0499 12.2971 9.2949V8.9849H12.9371V11.2349C12.9371 12.1549 12.2271 12.3799 11.6321 12.3799ZM11.7521 10.8199C11.9621 10.8199 12.1921 10.6999 12.2971 10.5449V9.7649C12.1921 9.6049 11.9621 9.4899 11.7521 9.4899C11.3921 9.4899 11.1421 9.7399 11.1421 10.1549C11.1421 10.5699 11.3921 10.8199 11.7521 10.8199ZM14.702 11.4599C13.967 11.4599 13.412 10.9649 13.412 10.1899C13.412 9.4899 13.927 8.9249 14.662 8.9249C15.382 8.9249 15.872 9.4649 15.872 10.2549V10.3949H14.077C14.117 10.6999 14.362 10.9549 14.772 10.9549C14.977 10.9549 15.262 10.8649 15.417 10.7149L15.697 11.1249C15.457 11.3449 15.077 11.4599 14.702 11.4599ZM15.257 9.9649C15.242 9.7349 15.082 9.4299 14.662 9.4299C14.267 9.4299 14.097 9.7249 14.067 9.9649H15.257ZM18.5956 11.3999H17.9606V9.9399C17.9606 9.6049 17.7856 9.4899 17.5156 9.4899C17.2656 9.4899 17.0706 9.6299 16.9656 9.7749V11.3999H16.3306V8.9849H16.9656V9.2999C17.1206 9.1149 17.4156 8.9249 17.8106 8.9249C18.3406 8.9249 18.5956 9.2249 18.5956 9.6949V11.3999ZM21.5261 11.3999H20.8861V11.0899C20.6961 11.3299 20.4311 11.4599 20.1411 11.4599C19.5311 11.4599 19.0711 10.9999 19.0711 10.1949C19.0711 9.4049 19.5261 8.9249 20.1411 8.9249C20.4261 8.9249 20.6961 9.0499 20.8861 9.2949V8.0649H21.5261V11.3999ZM20.3361 10.8949C20.5511 10.8949 20.7811 10.7799 20.8861 10.6199V9.7649C20.7811 9.6049 20.5511 9.4899 20.3361 9.4899C19.9761 9.4899 19.7261 9.7749 19.7261 10.1949C19.7261 10.6099 19.9761 10.8949 20.3361 10.8949ZM24.2408 11.3999H23.6058V11.1499C23.4408 11.3449 23.1558 11.4599 22.8408 11.4599C22.4558 11.4599 22.0008 11.1999 22.0008 10.6599C22.0008 10.0949 22.4558 9.8799 22.8408 9.8799C23.1608 9.8799 23.4458 9.9849 23.6058 10.1749V9.8499C23.6058 9.6049 23.3958 9.4449 23.0758 9.4449C22.8158 9.4449 22.5758 9.5399 22.3708 9.7299L22.1308 9.3049C22.4258 9.0449 22.8058 8.9249 23.1858 8.9249C23.7358 8.9249 24.2408 9.1449 24.2408 9.8399V11.3999ZM23.0958 11.0299C23.3008 11.0299 23.5008 10.9599 23.6058 10.8199V10.5199C23.5008 10.3799 23.3008 10.3099 23.0958 10.3099C22.8458 10.3099 22.6408 10.4399 22.6408 10.6749C22.6408 10.8999 22.8458 11.0299 23.0958 11.0299ZM25.5057 11.3999H24.8707V8.9849H25.5057V9.3149C25.6757 9.0999 25.9757 8.9249 26.2757 8.9249V9.5449C26.2307 9.5349 26.1707 9.5299 26.1007 9.5299C25.8907 9.5299 25.6107 9.6499 25.5057 9.8049V11.3999ZM26.5874 12.3449L26.6824 11.7749C26.7374 11.7999 26.8224 11.8149 26.8824 11.8149C27.0474 11.8149 27.1574 11.7699 27.2174 11.6399L27.3074 11.4349L26.3274 8.9849H27.0074L27.6374 10.6649L28.2674 8.9849H28.9524L27.8174 11.7949C27.6374 12.2499 27.3174 12.3699 26.9024 12.3799C26.8274 12.3799 26.6674 12.3649 26.5874 12.3449Z" fill="#FF5500"/>
<path d="M7.45 11H5.33V7.665H6.04V10.375H7.45V11ZM9.01348 11.06C8.27848 11.06 7.72348 10.565 7.72348 9.79C7.72348 9.09 8.23848 8.525 8.97348 8.525C9.69348 8.525 10.1835 9.065 10.1835 9.855V9.995H8.38848C8.42848 10.3 8.67348 10.555 9.08348 10.555C9.28848 10.555 9.57348 10.465 9.72848 10.315L10.0085 10.725C9.76848 10.945 9.38848 11.06 9.01348 11.06ZM9.56848 9.565C9.55348 9.335 9.39348 9.03 8.97348 9.03C8.57848 9.03 8.40848 9.325 8.37848 9.565H9.56848ZM11.6321 11.98C11.2171 11.98 10.8971 11.885 10.5921 11.62L10.8771 11.16C11.0721 11.375 11.3271 11.46 11.6321 11.46C11.9371 11.46 12.2971 11.325 12.2971 10.85V10.605C12.1071 10.845 11.8471 10.985 11.5521 10.985C10.9471 10.985 10.4871 10.56 10.4871 9.755C10.4871 8.965 10.9421 8.525 11.5521 8.525C11.8421 8.525 12.1021 8.65 12.2971 8.895V8.585H12.9371V10.835C12.9371 11.755 12.2271 11.98 11.6321 11.98ZM11.7521 10.42C11.9621 10.42 12.1921 10.3 12.2971 10.145V9.365C12.1921 9.205 11.9621 9.09 11.7521 9.09C11.3921 9.09 11.1421 9.34 11.1421 9.755C11.1421 10.17 11.3921 10.42 11.7521 10.42ZM14.702 11.06C13.967 11.06 13.412 10.565 13.412 9.79C13.412 9.09 13.927 8.525 14.662 8.525C15.382 8.525 15.872 9.065 15.872 9.855V9.995H14.077C14.117 10.3 14.362 10.555 14.772 10.555C14.977 10.555 15.262 10.465 15.417 10.315L15.697 10.725C15.457 10.945 15.077 11.06 14.702 11.06ZM15.257 9.565C15.242 9.335 15.082 9.03 14.662 9.03C14.267 9.03 14.097 9.325 14.067 9.565H15.257ZM18.5956 11H17.9606V9.54C17.9606 9.205 17.7856 9.09 17.5156 9.09C17.2656 9.09 17.0706 9.23 16.9656 9.375V11H16.3306V8.585H16.9656V8.9C17.1206 8.715 17.4156 8.525 17.8106 8.525C18.3406 8.525 18.5956 8.825 18.5956 9.295V11ZM21.5261 11H20.8861V10.69C20.6961 10.93 20.4311 11.06 20.1411 11.06C19.5311 11.06 19.0711 10.6 19.0711 9.795C19.0711 9.005 19.5261 8.525 20.1411 8.525C20.4261 8.525 20.6961 8.65 20.8861 8.895V7.665H21.5261V11ZM20.3361 10.495C20.5511 10.495 20.7811 10.38 20.8861 10.22V9.365C20.7811 9.205 20.5511 9.09 20.3361 9.09C19.9761 9.09 19.7261 9.375 19.7261 9.795C19.7261 10.21 19.9761 10.495 20.3361 10.495ZM24.2408 11H23.6058V10.75C23.4408 10.945 23.1558 11.06 22.8408 11.06C22.4558 11.06 22.0008 10.8 22.0008 10.26C22.0008 9.695 22.4558 9.48 22.8408 9.48C23.1608 9.48 23.4458 9.585 23.6058 9.775V9.45C23.6058 9.205 23.3958 9.045 23.0758 9.045C22.8158 9.045 22.5758 9.14 22.3708 9.33L22.1308 8.905C22.4258 8.645 22.8058 8.525 23.1858 8.525C23.7358 8.525 24.2408 8.745 24.2408 9.44V11ZM23.0958 10.63C23.3008 10.63 23.5008 10.56 23.6058 10.42V10.12C23.5008 9.98 23.3008 9.91 23.0958 9.91C22.8458 9.91 22.6408 10.04 22.6408 10.275C22.6408 10.5 22.8458 10.63 23.0958 10.63ZM25.5057 11H24.8707V8.585H25.5057V8.915C25.6757 8.7 25.9757 8.525 26.2757 8.525V9.145C26.2307 9.135 26.1707 9.13 26.1007 9.13C25.8907 9.13 25.6107 9.25 25.5057 9.405V11ZM26.5874 11.945L26.6824 11.375C26.7374 11.4 26.8224 11.415 26.8824 11.415C27.0474 11.415 27.1574 11.37 27.2174 11.24L27.3074 11.035L26.3274 8.585H27.0074L27.6374 10.265L28.2674 8.585H28.9524L27.8174 11.395C27.6374 11.85 27.3174 11.97 26.9024 11.98C26.8274 11.98 26.6674 11.965 26.5874 11.945Z" fill="white"/>
<g clip-path="url(#clip2_26835_29165)">
<path d="M34.9933 4C34.4047 4.92308 33.9231 5.40468 33 5.99331C33.9231 6.58194 34.4047 7.06355 34.9933 7.98662C35.5819 7.06355 36.0635 6.58194 36.9866 5.99331C36.0635 5.40468 35.5819 4.92308 34.9933 4Z" fill="white"/>
</g>
<defs>
<linearGradient id="paint0_linear_26835_29165" x1="31.5" y1="0" x2="31.5" y2="88" gradientUnits="userSpaceOnUse">
<stop stop-color="#FFC200"/>
<stop offset="1" stop-color="#FF7F00"/>
</linearGradient>
<linearGradient id="paint1_linear_26835_29165" x1="71.86" y1="33.4901" x2="11.77" y2="93.5901" gradientUnits="userSpaceOnUse">
<stop stop-color="white" stop-opacity="0"/>
<stop offset="1" stop-color="white"/>
</linearGradient>
<linearGradient id="paint2_linear_26835_29165" x1="48.23" y1="9.85996" x2="-11.87" y2="69.96" gradientUnits="userSpaceOnUse">
<stop stop-color="white" stop-opacity="0"/>
<stop offset="1" stop-color="white"/>
</linearGradient>
<linearGradient id="paint3_linear_26835_29165" x1="86.07" y1="47.6998" x2="25.97" y2="107.79" gradientUnits="userSpaceOnUse">
<stop stop-color="white" stop-opacity="0"/>
<stop offset="1" stop-color="white"/>
</linearGradient>
<linearGradient id="paint4_linear_26835_29165" x1="31.5" y1="84.47" x2="31.5" y2="3.96" gradientUnits="userSpaceOnUse">
<stop stop-color="#FF8913"/>
<stop offset="1" stop-color="#FFC200"/>
</linearGradient>
<linearGradient id="paint5_linear_26835_29165" x1="31.5" y1="75" x2="31.5" y2="62" gradientUnits="userSpaceOnUse">
<stop stop-color="#FFFEFC"/>
<stop offset="1" stop-color="#FFC200"/>
</linearGradient>
<linearGradient id="paint6_linear_26835_29165" x1="16.68" y1="26.0702" x2="16.68" y2="43.4102" gradientUnits="userSpaceOnUse">
<stop stop-color="#FF5500"/>
<stop offset="1" stop-color="#FFC200"/>
</linearGradient>
<linearGradient id="paint7_linear_26835_29165" x1="31.02" y1="39.4199" x2="34.05" y2="17.5999" gradientUnits="userSpaceOnUse">
<stop stop-color="#FFEBB8"/>
<stop offset="1" stop-color="#FFC200"/>
</linearGradient>
<linearGradient id="paint8_linear_26835_29165" x1="63.01" y1="9.37014" x2="37.14" y2="63.5701" gradientUnits="userSpaceOnUse">
<stop stop-color="#FF5500"/>
<stop offset="1" stop-color="#FFC200"/>
</linearGradient>
<clipPath id="clip0_26835_29165">
<rect width="63" height="88" fill="white"/>
</clipPath>
<clipPath id="clip1_26835_29165">
<rect width="63" height="88" fill="white"/>
</clipPath>
<clipPath id="clip2_26835_29165">
<rect width="4" height="4" fill="white" transform="translate(33 4)"/>
</clipPath>
</defs>
</svg>
