<svg width="63" height="88" viewBox="0 0 63 88" fill="none" xmlns="http://www.w3.org/2000/svg">
<rect width="63" height="88" rx="4" fill="url(#paint0_linear_26835_29166)"/>
<g clip-path="url(#clip0_26835_29166)">
<g clip-path="url(#clip1_26835_29166)">
<path d="M56.54 0.560059H6.45999C3.11315 0.560059 0.399994 3.27321 0.399994 6.62006V81.3801C0.399994 84.7269 3.11315 87.4401 6.45999 87.4401H56.54C59.8868 87.4401 62.6 84.7269 62.6 81.3801V6.62006C62.6 3.27321 59.8868 0.560059 56.54 0.560059Z" fill="#FF7F00"/>
<g opacity="0.2">
<mask id="mask0_26835_29166" style="mask-type:luminance" maskUnits="userSpaceOnUse" x="0" y="0" width="63" height="88">
<path d="M56.54 0.560059H6.45999C3.11315 0.560059 0.399994 3.27321 0.399994 6.62006V81.3801C0.399994 84.7269 3.11315 87.4401 6.45999 87.4401H56.54C59.8868 87.4401 62.6 84.7269 62.6 81.3801V6.62006C62.6 3.27321 59.8868 0.560059 56.54 0.560059Z" fill="white"/>
</mask>
<g mask="url(#mask0_26835_29166)">
<path d="M68.37 47.3101V26.6401L4.45999 90.5501H25.13L68.37 47.3101Z" fill="url(#paint1_linear_26835_29166)"/>
<path d="M64.66 -2.29004H55.22L-2.92001 55.84V66.18L65.46 -2.20004C65.2 -2.26004 64.93 -2.29004 64.66 -2.29004Z" fill="url(#paint2_linear_26835_29166)"/>
<path d="M68.37 69.2298V61.5498L39.37 90.5498H47.05L68.37 69.2298Z" fill="url(#paint3_linear_26835_29166)"/>
</g>
</g>
<path d="M35.51 51.5299L34.99 49.9999L35.44 49.3599C35.44 49.3599 40.61 54.3099 42.3 56.1099C42.64 56.4699 43.09 56.7099 43.57 56.7899L44.04 56.8699L37.53 48.5399L37.89 48.0399C37.89 48.0399 42.51 51.9399 44.11 53.5799C45.71 55.2199 46.53 56.6899 47.51 56.5199L40.52 47.1199L40.84 46.6299C40.84 46.6299 48.31 51.5099 52.01 56.2399C55.7 60.9699 56.27 63.9499 55.6 66.5099C54.93 69.0699 52.75 69.5599 53.34 72.9699C53.93 76.3799 58.11 86.2399 58.11 86.2399L57.66 86.8399L55.44 84.1599L49.31 68.1699L35.48 51.5299H35.51Z" fill="white"/>
<path d="M33.42 50.5701L35 49.9901C35 49.9901 40.16 54.7101 42.11 56.7801C42.55 57.2501 43.16 57.5101 43.8 57.5101C43.98 57.5101 44.09 57.3101 43.98 57.1601C43.17 56.0201 40.39 52.2401 36.84 48.7301L37.55 48.5101C37.55 48.5101 43.54 53.6801 46.06 56.9201C46.31 57.2401 46.7 57.4001 47.1 57.3401C47.43 57.2901 47.59 56.9101 47.39 56.6401C45.96 54.8201 41.62 49.3101 39.68 47.2901L40.54 47.1001C40.54 47.1001 50.43 54.0101 53.56 59.5901C56.69 65.1701 54.97 67.2201 53.9 68.7301C52.83 70.2501 50.66 70.8701 57.69 86.8201L54.47 86.8501C54.47 86.8501 51.84 77.9201 51.11 75.2401C50.38 72.5601 50.22 71.2701 46.36 68.2501C42.5 65.2201 42.17 61.7901 39.97 58.8601C37.76 55.9301 33.43 50.5501 33.43 50.5501L33.42 50.5701Z" fill="url(#paint4_linear_26835_29166)"/>
<mask id="mask1_26835_29166" style="mask-type:luminance" maskUnits="userSpaceOnUse" x="33" y="47" width="25" height="41">
<path d="M33.42 50.5701L35 49.9901C35 49.9901 40.16 54.7101 42.11 56.7801C42.55 57.2501 43.16 57.5101 43.8 57.5101C43.98 57.5101 44.09 57.3101 43.98 57.1601C43.17 56.0201 40.39 52.2401 36.84 48.7301L37.55 48.5101C37.55 48.5101 43.54 53.6801 46.06 56.9201C46.31 57.2401 46.7 57.4001 47.1 57.3401C47.43 57.2901 47.59 56.9101 47.39 56.6401C45.96 54.8201 41.62 49.3101 39.68 47.2901L40.54 47.1001C40.54 47.1001 50.43 54.0101 53.56 59.5901C56.69 65.1701 54.97 67.2201 53.9 68.7301C52.83 70.2501 50.8 73.0301 57.69 86.8201L55.43 87.2901C55.43 87.2901 51.84 77.9201 51.11 75.2301C50.38 72.5401 50.22 71.2601 46.36 68.2401C42.5 65.2101 42.17 61.7801 39.97 58.8501C37.76 55.9201 33.43 50.5401 33.43 50.5401L33.42 50.5701Z" fill="white"/>
</mask>
<g mask="url(#mask1_26835_29166)">
<path d="M37.06 55.15L37.66 59.18C37.66 59.18 40.63 54.04 47.54 50.6L44.28 48.77L37.05 55.15H37.06Z" fill="#557086"/>
</g>
<path d="M45.45 66.2998C45.45 66.2998 49.09 64.1198 52.07 63.7598C55.05 63.3998 54.85 67.1098 50.97 68.5198C47.96 69.6098 45.46 66.2998 45.46 66.2998H45.45Z" fill="#557086"/>
<path d="M18.47 62H44.52C48.42 62 51.58 65.36 51.58 69.49C51.58 73.63 48.42 76.98 44.52 76.98H18.47C14.57 76.98 11.41 73.62 11.41 69.49C11.41 65.35 14.57 62 18.47 62Z" fill="#FF5500"/>
<path d="M30.21 76.9901H34.87L37.02 74.8701H32.36L30.21 76.9901Z" fill="#FFC200"/>
<path d="M19.5 62H43.5C47.09 62 50 64.91 50 68.5C50 72.09 47.09 75 43.5 75H19.5C15.91 75 13 72.09 13 68.5C13 64.91 15.91 62 19.5 62Z" fill="#FFC200"/>
<path d="M43.5 62.5C46.81 62.5 49.5 65.19 49.5 68.5C49.5 71.81 46.81 74.5 43.5 74.5H19.5C16.19 74.5 13.5 71.81 13.5 68.5C13.5 65.19 16.19 62.5 19.5 62.5H43.5ZM43.5 62H19.5C15.91 62 13 64.91 13 68.5C13 72.09 15.91 75 19.5 75H43.5C47.09 75 50 72.09 50 68.5C50 64.91 47.09 62 43.5 62Z" fill="url(#paint5_linear_26835_29166)"/>
<path d="M49.6064 68.2235C50.1926 67.8484 50.0042 66.5073 49.1857 65.2279C48.3672 63.9486 47.2285 63.2155 46.6423 63.5905C46.0562 63.9655 46.2445 65.3067 47.063 66.586C47.8815 67.8654 49.0202 68.5985 49.6064 68.2235Z" fill="white"/>
<path d="M15.27 63.1598L12.73 66.2098C12.73 66.2098 19.98 67.2198 24.16 63.0498L15.28 63.1598H15.27Z" fill="#FF5500"/>
<path d="M59 0H4C1.79 0 0 1.79 0 4V84C0 86.21 1.79 88 4 88H59C61.21 88 63 86.21 63 84V4C63 1.79 61.21 0 59 0ZM61 82.81C61 84.57 59.57 86 57.81 86H5.19C3.43 86 2 84.57 2 82.81V18.19C2 16.43 3.43 15 5.19 15H33.59C34.8 15 35.94 14.45 36.7 13.51L44.8 3.48C45.56 2.54 46.7 1.99 47.91 1.99H57.81C59.57 1.99 61 3.42 61 5.18V82.8V82.81Z" fill="url(#paint6_linear_26835_29166)"/>
<mask id="mask2_26835_29166" style="mask-type:luminance" maskUnits="userSpaceOnUse" x="0" y="0" width="63" height="88">
<path d="M59 0H4C1.79 0 0 1.79 0 4V84C0 86.21 1.79 88 4 88H59C61.21 88 63 86.21 63 84V4C63 1.79 61.21 0 59 0ZM61 82.81C61 84.57 59.57 86 57.81 86H5.19C3.43 86 2 84.57 2 82.81V18.19C2 16.43 3.43 15 5.19 15H33.59C34.8 15 35.94 14.45 36.7 13.51L44.8 3.48C45.56 2.54 46.7 1.99 47.91 1.99H57.81C59.57 1.99 61 3.42 61 5.18V82.8V82.81Z" fill="white"/>
</mask>
<g mask="url(#mask2_26835_29166)">
<path d="M68.37 47.3101V26.6401L4.45999 90.5501H25.13L68.37 47.3101Z" fill="white"/>
<path d="M64.66 -2.29004H55.22L-2.92001 55.84V66.18L65.46 -2.20004C65.2 -2.26004 64.93 -2.29004 64.66 -2.29004Z" fill="white"/>
<path d="M68.37 69.2298V61.5498L39.37 90.5498H47.05L68.37 69.2298Z" fill="white"/>
</g>
<path d="M51.56 18.9199L46.06 13.8699C38.34 8.53992 26.56 11.9299 19.74 21.4399C16.2 26.3699 14.7 31.9799 15.15 36.9799C13.34 37.6999 11.59 38.7899 10.03 40.2199C4.42999 45.3599 3.33999 53.0699 7.59999 57.4399L11.48 61.1799C14.73 64.5099 20.16 64.9299 25.03 62.6599C33.68 59.0799 41.64 53.4499 45.37 50.6099C46.13 50.0799 46.88 49.4899 47.59 48.8599C49.03 47.5899 50.37 46.1199 51.56 44.4599C57.87 35.6599 57.71 24.7099 51.55 18.8999L51.56 18.9199Z" fill="#FF5500"/>
<path d="M30.87 42.3201L25.37 37.2701C17.65 31.9401 26.56 11.9401 19.74 21.4401C16.2 26.3701 14.7 31.9801 15.15 36.9801C13.34 37.7001 11.59 38.7901 10.03 40.2201C4.42999 45.3601 3.33999 53.0701 7.59999 57.4401L11.48 61.1801C14.73 64.5101 20.16 64.9301 25.03 62.6601C33.68 59.0801 41.64 53.4501 45.37 50.6101C46.13 50.0801 46.88 49.4901 47.59 48.8601C49.03 47.5901 50.37 46.1201 51.56 44.4601C57.87 35.6601 37.03 48.1101 30.86 42.3001L30.87 42.3201Z" fill="#FFC200"/>
<path d="M24.23 49.84C16.43 50.1 14.03 43.15 13.3 40.28C13.01 39.15 12.12 39.03 11.15 39.29C10.77 39.59 10.39 39.9 10.03 40.24C4.42999 45.38 3.33999 53.09 7.59999 57.46L11.48 61.2C14.73 64.53 20.16 64.95 25.03 62.68C31.23 60.12 37.07 56.5 41.26 53.61C40.13 48.91 30.68 49.64 24.23 49.85V49.84Z" fill="#FFEBB8"/>
<path d="M31.43 56.87C31.85 57.84 31 59.14 25.74 61.41C20.48 63.67 18.94 63.27 18.52 62.3C18.1 61.33 18.97 60.15 24.23 57.89C29.49 55.63 31.02 55.9 31.44 56.88L31.43 56.87Z" fill="white"/>
<path d="M50.72 25.7899C50.44 21.2099 48.46 17.4299 45.15 15.1399C44.38 14.6099 43.54 14.1599 42.67 13.8199C35.67 11.0699 26.59 14.6699 21.07 22.3599C17.9 26.7899 16.33 32.0799 16.76 36.8999L16.86 38.0199L15.8 38.4399C14.11 39.1199 12.54 40.1099 11.15 41.3899C8.69999 43.6399 7.11999 46.4899 6.70999 49.3999C6.31999 52.1699 7.04999 54.6599 8.74999 56.4099C9.49999 57.1799 10.4 57.7699 11.44 58.1799C14.07 59.2099 17.34 58.9699 20.43 57.5299L22.17 56.7799C29.92 53.3099 36.89 48.3899 40.49 45.6499L40.54 45.6099C41.26 45.1099 41.96 44.5599 42.63 43.9699C44.01 42.7499 45.27 41.3599 46.37 39.8299C49.47 35.5099 51.01 30.5299 50.73 25.7999L50.72 25.7899Z" fill="white"/>
<path d="M49.12 25.8399C48.87 21.7499 47.14 18.3999 44.25 16.3999C43.58 15.9399 42.86 15.5599 42.11 15.2599C35.79 12.7799 27.5 16.1499 22.4 23.2699C19.43 27.4099 17.96 32.3399 18.36 36.7999L18.56 39.0399L16.45 39.8799C14.93 40.4899 13.53 41.3799 12.28 42.5299C10.08 44.5499 8.68 47.0699 8.31 49.6399C7.99 51.9199 8.55999 53.9499 9.90999 55.3399C10.49 55.9399 11.2 56.3999 12.02 56.7199C14.22 57.5799 17.03 57.3599 19.71 56.1099L23.16 54.5599C30.13 51.1999 36.3 46.8199 39.51 44.3799L39.59 44.3199C40.26 43.8499 40.92 43.3399 41.54 42.7899C42.84 41.6499 44.02 40.3399 45.05 38.8999C47.95 34.8599 49.4 30.2199 49.13 25.8299L49.12 25.8399Z" fill="url(#paint7_linear_26835_29166)"/>
<path d="M18.55 39.0399C18.55 39.0399 22.88 38.3399 26.07 37.0199L25.36 35.5099C25.36 35.5099 17.47 39.6299 18.37 33.6899L17.36 36.2599L18.56 39.0299L18.55 39.0399Z" fill="white"/>
<path d="M29.4237 35.4995C31.2906 33.1667 31.6995 30.3916 30.3369 29.3011C28.9743 28.2106 26.3562 29.2177 24.4893 31.5505C22.6224 33.8833 22.2136 36.6584 23.5762 37.7489C24.9388 38.8394 27.5568 37.8323 29.4237 35.4995Z" fill="#1A2C38"/>
<path d="M55.3376 33.1299C55.7145 30.0601 55.0824 27.4565 53.9258 27.3145C52.7692 27.1724 51.526 29.5458 51.1491 32.6156C50.7721 35.6853 51.4042 38.289 52.5609 38.431C53.7175 38.573 54.9607 36.1996 55.3376 33.1299Z" fill="white"/>
<path d="M30.6087 33.0944C32.0646 30.4916 31.9007 27.6297 30.2425 26.7023C28.5844 25.7749 26.0601 27.133 24.6042 29.7359C23.1483 32.3387 23.3123 35.2006 24.9704 36.128C26.6285 37.0555 29.1529 35.6973 30.6087 33.0944Z" fill="white"/>
<path d="M31.4914 33.8982C32.9473 31.2953 32.7833 28.4335 31.1252 27.506C29.4671 26.5786 26.9427 27.9367 25.4869 30.5396C24.031 33.1424 24.1949 36.0043 25.853 36.9317C27.5111 37.8592 30.0355 36.501 31.4914 33.8982Z" fill="white"/>
<path d="M27.9801 31.7124C28.8067 30.2194 28.9519 28.7184 28.3044 28.36C27.657 28.0015 26.462 28.9213 25.6354 30.4143C24.8089 31.9073 24.6637 33.4083 25.3111 33.7667C25.9586 34.1252 27.1535 33.2054 27.9801 31.7124Z" fill="#1A2C38"/>
<path d="M31.12 32.7899C31.12 32.7899 32.82 40.1099 41.64 43.5699L45.34 40.0999C45.34 40.0999 33.79 40.2099 31.93 29.3999L31.12 32.7899Z" fill="white"/>
<path d="M37.97 13.9902L34.77 14.2102C34.77 14.2102 36.52 19.6902 31.1 27.4802L31.46 29.7702C31.46 29.7702 35.88 24.1502 37.98 13.9902H37.97Z" fill="white"/>
<path d="M10.4 21.8901C9.64998 23.0601 9.02999 23.6701 7.85999 24.4301C9.02999 25.1801 9.63998 25.8001 10.4 26.9701C11.15 25.8001 11.77 25.1901 12.94 24.4301C11.77 23.6801 11.16 23.0601 10.4 21.8901Z" fill="white"/>
<path d="M54.79 47.5C54.19 48.43 53.71 48.91 52.78 49.51C53.71 50.11 54.19 50.59 54.79 51.52C55.39 50.59 55.87 50.11 56.8 49.51C55.87 48.91 55.39 48.43 54.79 47.5Z" fill="white"/>
</g>
<path d="M57.06 9.88982C57.06 10.2198 57.01 10.4998 56.9 10.7398C56.79 10.9798 56.65 11.1798 56.46 11.3398C56.27 11.4998 56.05 11.6198 55.79 11.6998C55.53 11.7798 55.24 11.8198 54.93 11.8198C54.79 11.8198 54.64 11.8098 54.5 11.7798C54.36 11.7498 54.2 11.7198 54.06 11.6698C53.92 11.6198 53.77 11.5698 53.64 11.4998C53.51 11.4298 53.37 11.3698 53.26 11.2898L53.4 9.79982C53.49 9.85982 53.6 9.92982 53.72 9.97982C53.84 10.0298 53.96 10.0898 54.08 10.1398C54.2 10.1898 54.33 10.2198 54.46 10.2498C54.59 10.2798 54.71 10.2898 54.83 10.2898C54.9 10.2898 54.97 10.2898 55.04 10.2698C55.11 10.2498 55.18 10.2398 55.24 10.2098C55.3 10.1798 55.35 10.1398 55.39 10.0798C55.43 10.0198 55.45 9.95982 55.45 9.86982C55.45 9.81982 55.43 9.75982 55.38 9.71982C55.33 9.67982 55.27 9.62982 55.2 9.59982C55.13 9.56982 55.06 9.53982 54.99 9.51982C54.92 9.49982 54.85 9.48982 54.8 9.48982C54.77 9.48982 54.72 9.48982 54.68 9.48982C54.64 9.48982 54.58 9.48982 54.53 9.50982C54.48 9.52982 54.43 9.52982 54.39 9.53982C54.35 9.54982 54.31 9.56982 54.28 9.58982L54.3 8.52982C54.3 8.52982 54.38 8.52982 54.42 8.53982C54.46 8.54982 54.5 8.53982 54.54 8.53982C54.63 8.53982 54.72 8.53982 54.82 8.51982C54.92 8.49982 55.02 8.47982 55.1 8.42982C55.18 8.37982 55.26 8.32982 55.32 8.25982C55.38 8.18982 55.41 8.09982 55.41 7.97982C55.41 7.89982 55.39 7.82982 55.34 7.77982C55.29 7.72982 55.24 7.68982 55.18 7.65982C55.12 7.62982 55.04 7.60982 54.97 7.59982C54.9 7.58982 54.82 7.58982 54.76 7.58982C54.56 7.58982 54.36 7.61982 54.17 7.68982C53.98 7.75982 53.8 7.85982 53.66 7.98982L53.35 6.63982C53.58 6.44982 53.84 6.30982 54.13 6.21982C54.42 6.12982 54.71 6.06982 55.01 6.06982C55.28 6.06982 55.54 6.10982 55.78 6.18982C56.02 6.26982 56.24 6.37982 56.43 6.52982C56.62 6.67982 56.77 6.86982 56.88 7.08982C56.99 7.30982 57.05 7.56982 57.05 7.85982C57.05 7.93982 57.04 8.02982 57.01 8.11982C56.98 8.20982 56.95 8.28982 56.91 8.36982C56.87 8.44982 56.82 8.52982 56.76 8.59982C56.7 8.66982 56.64 8.72982 56.58 8.77982C56.68 8.82982 56.77 8.88982 56.84 8.96982C56.91 9.04982 56.96 9.13982 57 9.22982C57.04 9.31982 57.07 9.42982 57.08 9.53982C57.09 9.64982 57.1 9.74982 57.1 9.85982L57.06 9.88982Z" fill="#FF5500"/>
<path d="M56.91 9.48016C56.91 9.81016 56.86 10.0902 56.75 10.3302C56.64 10.5702 56.5 10.7702 56.31 10.9302C56.12 11.0902 55.9 11.2102 55.64 11.2902C55.38 11.3702 55.09 11.4102 54.78 11.4102C54.64 11.4102 54.49 11.4002 54.35 11.3702C54.21 11.3402 54.05 11.3102 53.91 11.2602C53.77 11.2102 53.62 11.1602 53.49 11.0902C53.36 11.0202 53.22 10.9602 53.11 10.8802L53.25 9.39016C53.34 9.45016 53.45 9.52016 53.57 9.57016C53.69 9.62016 53.81 9.68016 53.93 9.73016C54.05 9.78016 54.18 9.81016 54.31 9.84016C54.44 9.87016 54.56 9.88016 54.68 9.88016C54.75 9.88016 54.82 9.88016 54.89 9.86016C54.96 9.84016 55.03 9.83016 55.09 9.80016C55.15 9.77016 55.2 9.73016 55.24 9.67016C55.28 9.61016 55.3 9.55016 55.3 9.46016C55.3 9.41016 55.28 9.35016 55.23 9.31016C55.18 9.27016 55.12 9.22016 55.05 9.19016C54.98 9.16016 54.91 9.13016 54.84 9.11016C54.77 9.09016 54.7 9.08016 54.65 9.08016C54.62 9.08016 54.57 9.08016 54.53 9.08016C54.49 9.08016 54.43 9.08016 54.38 9.10016C54.33 9.12016 54.28 9.12016 54.24 9.13016C54.2 9.14016 54.16 9.16016 54.13 9.18016L54.15 8.12016C54.15 8.12016 54.23 8.12016 54.27 8.13016C54.31 8.14016 54.35 8.13016 54.39 8.13016C54.48 8.13016 54.57 8.13016 54.67 8.11016C54.77 8.09016 54.87 8.07016 54.95 8.02016C55.03 7.97016 55.11 7.92016 55.17 7.85016C55.23 7.78016 55.26 7.69016 55.26 7.57016C55.26 7.49016 55.24 7.42016 55.19 7.37016C55.14 7.32016 55.09 7.28016 55.03 7.25016C54.97 7.22016 54.89 7.20016 54.82 7.19016C54.75 7.18016 54.67 7.18016 54.61 7.18016C54.41 7.18016 54.21 7.21016 54.02 7.28016C53.83 7.35016 53.65 7.45016 53.51 7.58016L53.2 6.23016C53.43 6.04016 53.69 5.90016 53.98 5.81016C54.27 5.72016 54.56 5.66016 54.86 5.66016C55.13 5.66016 55.39 5.70016 55.63 5.78016C55.87 5.86016 56.09 5.97016 56.28 6.12016C56.47 6.27016 56.62 6.46016 56.73 6.68016C56.84 6.90016 56.9 7.16016 56.9 7.45016C56.9 7.53016 56.89 7.62016 56.86 7.71016C56.83 7.80016 56.8 7.88016 56.76 7.96016C56.72 8.04016 56.67 8.12016 56.61 8.19016C56.55 8.26016 56.49 8.32016 56.43 8.37016C56.53 8.42016 56.62 8.48016 56.69 8.56016C56.76 8.64016 56.81 8.73016 56.85 8.82016C56.89 8.91016 56.92 9.02016 56.93 9.13016C56.94 9.24016 56.95 9.34016 56.95 9.45016L56.91 9.48016Z" fill="#FFEBB8"/>
<path d="M56.86 9.96014L55.25 9.55014C55.25 9.55014 55.24 9.64014 55.22 9.67014C55.18 9.72014 55.13 9.77014 55.07 9.80014C55.01 9.83014 54.94 9.85014 54.87 9.86014C54.8 9.87014 54.73 9.88014 54.66 9.88014C54.54 9.88014 54.42 9.87014 54.29 9.84014C54.16 9.81014 54.04 9.78014 53.91 9.73014C53.78 9.68014 53.66 9.63014 53.55 9.57014C53.44 9.51014 53.33 9.45014 53.23 9.39014L53.09 10.8801C53.21 10.9501 53.34 11.0201 53.47 11.0901C53.6 11.1601 53.75 11.2101 53.89 11.2601C54.03 11.3101 54.18 11.3401 54.33 11.3701C54.48 11.4001 54.62 11.4101 54.76 11.4101C55.07 11.4101 55.36 11.3701 55.62 11.2901C55.88 11.2101 56.1 11.0901 56.29 10.9301C56.48 10.7701 56.62 10.5701 56.73 10.3301C56.78 10.2201 56.82 10.0901 56.84 9.96014H56.86Z" fill="#FFC200"/>
<path d="M54.11 9.18976C54.11 9.18976 54.17 9.14977 54.22 9.13977C54.27 9.12977 54.31 9.11977 54.36 9.10977C54.41 9.09977 54.46 9.09977 54.51 9.08977C54.56 9.07977 54.6 9.08977 54.63 9.08977C54.68 9.08977 54.74 9.08977 54.82 9.11977C54.9 9.14977 54.97 9.15977 55.03 9.19977C55.09 9.23977 55.16 9.26977 55.21 9.31977C55.26 9.36977 55.28 9.41977 55.28 9.46977C55.28 9.55977 55.26 9.62977 55.22 9.67977C55.18 9.72977 55.13 9.77977 55.07 9.80977C55.03 9.82977 54.99 9.84977 54.94 9.85977L56.69 10.4398C56.69 10.4398 56.73 10.3798 56.75 10.3398C56.86 10.0998 56.91 9.80977 56.91 9.48977C56.91 9.38977 56.91 9.27977 56.89 9.16977C56.88 9.07977 56.85 8.99977 56.82 8.91977L54.12 8.50977V9.19977L54.11 9.18976Z" fill="white"/>
<path d="M56.24 6.14994C56.05 5.99994 55.84 5.87994 55.59 5.80994C55.34 5.73994 55.09 5.68994 54.82 5.68994C54.53 5.68994 54.23 5.73994 53.94 5.83994C53.65 5.93994 53.39 6.07994 53.16 6.25994L53.26 6.70994C54.25 6.80994 55.83 6.96994 56.81 7.07994C56.78 6.94994 56.74 6.82994 56.68 6.71994C56.57 6.49994 56.42 6.30994 56.23 6.15994L56.24 6.14994Z" fill="white"/>
<path d="M49.21 8.3298L49.08 10.7798L48.13 10.8698L47.62 9.5598L47.54 10.8998H46.73L46.8 8.3398L47.7 8.2998L48.33 9.5998L48.36 8.3698L49.21 8.3398V8.3298Z" fill="#FF5500"/>
<path d="M51.56 9.54012C51.56 9.65012 51.55 9.76012 51.52 9.86012C51.49 9.96012 51.46 10.0601 51.41 10.1501C51.36 10.2401 51.3 10.3201 51.24 10.3901C51.17 10.4601 51.1 10.5301 51.01 10.5801C50.92 10.6301 50.83 10.6701 50.73 10.7001C50.63 10.7301 50.52 10.7401 50.41 10.7401C50.3 10.7401 50.2 10.7301 50.1 10.7001C50 10.6701 49.91 10.6301 49.82 10.5801C49.73 10.5301 49.66 10.4701 49.59 10.4001C49.52 10.3301 49.46 10.2501 49.41 10.1701C49.36 10.0801 49.32 9.99012 49.3 9.89012C49.27 9.79012 49.26 9.69012 49.26 9.58012C49.26 9.47012 49.27 9.37012 49.3 9.27012C49.33 9.17012 49.36 9.07012 49.41 8.99012C49.46 8.91012 49.52 8.82012 49.58 8.74012C49.64 8.66012 49.72 8.60012 49.81 8.55012C49.89 8.50012 49.98 8.45012 50.08 8.42012C50.18 8.39012 50.28 8.37012 50.39 8.37012C50.56 8.37012 50.72 8.40012 50.87 8.45012C51.01 8.50012 51.14 8.58012 51.24 8.68012C51.34 8.78012 51.42 8.90012 51.48 9.04012C51.54 9.18012 51.56 9.34012 51.56 9.52012V9.54012ZM50.76 9.59012C50.76 9.54012 50.76 9.49012 50.74 9.44012C50.73 9.39012 50.7 9.35012 50.67 9.31012C50.64 9.27012 50.61 9.24012 50.56 9.22012C50.51 9.20012 50.47 9.18012 50.41 9.18012C50.35 9.18012 50.3 9.18012 50.26 9.21012C50.22 9.23012 50.18 9.26012 50.15 9.29012C50.12 9.32012 50.09 9.37012 50.08 9.41012C50.06 9.46012 50.05 9.51012 50.05 9.56012C50.05 9.61012 50.05 9.66012 50.07 9.71012C50.08 9.76012 50.11 9.81012 50.13 9.85012C50.16 9.89012 50.19 9.92012 50.24 9.95012C50.28 9.98012 50.33 9.99012 50.39 9.99012C50.45 9.99012 50.5 9.98012 50.54 9.96012C50.58 9.94012 50.62 9.91012 50.65 9.87012C50.68 9.83012 50.71 9.79012 50.72 9.74012C50.74 9.69012 50.75 9.64012 50.75 9.59012H50.76Z" fill="#FF5500"/>
<path d="M52.31 10.5499C52.31 10.5999 52.3 10.6499 52.28 10.6999C52.26 10.7499 52.23 10.7899 52.2 10.8199C52.17 10.8499 52.13 10.8799 52.08 10.8999C52.03 10.9199 51.99 10.9299 51.93 10.9299C51.87 10.9299 51.83 10.9299 51.78 10.8999C51.73 10.8799 51.69 10.8499 51.66 10.8199C51.63 10.7899 51.6 10.7499 51.58 10.6999C51.56 10.6499 51.55 10.5999 51.55 10.5499C51.55 10.4999 51.55 10.4499 51.58 10.3999C51.6 10.3499 51.63 10.3099 51.66 10.2799C51.69 10.2499 51.73 10.2199 51.78 10.1999C51.83 10.1799 51.88 10.1699 51.93 10.1699C51.98 10.1699 52.03 10.1699 52.08 10.1999C52.13 10.2199 52.17 10.2499 52.2 10.2799C52.23 10.3099 52.26 10.3599 52.28 10.3999C52.3 10.4499 52.31 10.4999 52.31 10.5499Z" fill="#FF5500"/>
<path d="M49.1 7.86984L48.97 10.3198L48.02 10.4098L47.51 9.09984L47.43 10.4398H46.62L46.69 7.87984L47.59 7.83984L48.22 9.13984L48.25 7.90984L49.1 7.87984V7.86984Z" fill="white"/>
<path d="M51.46 9.08016C51.46 9.19016 51.45 9.30016 51.42 9.40016C51.39 9.50016 51.36 9.60016 51.31 9.69016C51.26 9.78016 51.2 9.86016 51.14 9.93016C51.07 10.0002 51 10.0702 50.91 10.1202C50.82 10.1702 50.73 10.2102 50.63 10.2402C50.53 10.2702 50.42 10.2802 50.31 10.2802C50.2 10.2802 50.1 10.2702 50 10.2402C49.9 10.2102 49.81 10.1702 49.72 10.1202C49.63 10.0702 49.56 10.0102 49.49 9.94016C49.42 9.87016 49.36 9.79016 49.31 9.71016C49.26 9.62016 49.22 9.53016 49.2 9.43016C49.17 9.33016 49.16 9.23016 49.16 9.12016C49.16 9.01016 49.17 8.91016 49.2 8.81016C49.23 8.71016 49.26 8.61016 49.31 8.53016C49.36 8.45016 49.42 8.36016 49.48 8.28016C49.54 8.20016 49.62 8.14016 49.71 8.09016C49.79 8.04016 49.88 7.99016 49.98 7.96016C50.08 7.93016 50.18 7.91016 50.29 7.91016C50.46 7.91016 50.62 7.94016 50.77 7.99016C50.91 8.04016 51.04 8.12016 51.14 8.22016C51.24 8.32016 51.32 8.44016 51.38 8.58016C51.44 8.72016 51.46 8.88016 51.46 9.06016V9.08016ZM50.66 9.12016C50.66 9.07016 50.66 9.02016 50.64 8.97016C50.63 8.92016 50.6 8.88016 50.57 8.84016C50.54 8.80016 50.51 8.77016 50.46 8.75016C50.41 8.73016 50.37 8.71016 50.31 8.71016C50.25 8.71016 50.2 8.71016 50.16 8.74016C50.12 8.76016 50.08 8.79016 50.05 8.82016C50.02 8.85016 49.99 8.90016 49.98 8.94016C49.96 8.99016 49.95 9.04016 49.95 9.09016C49.95 9.14016 49.95 9.19016 49.97 9.24016C49.98 9.29016 50.01 9.34016 50.03 9.38016C50.06 9.42016 50.09 9.45016 50.14 9.48016C50.18 9.51016 50.23 9.52016 50.29 9.52016C50.35 9.52016 50.4 9.51016 50.44 9.49016C50.48 9.47016 50.52 9.44016 50.55 9.40016C50.58 9.36016 50.61 9.32016 50.62 9.27016C50.64 9.22016 50.65 9.17016 50.65 9.12016H50.66Z" fill="white"/>
<path d="M52.21 10.09C52.21 10.14 52.2 10.19 52.18 10.24C52.16 10.29 52.13 10.33 52.1 10.36C52.07 10.39 52.03 10.42 51.98 10.44C51.93 10.46 51.89 10.47 51.83 10.47C51.77 10.47 51.73 10.47 51.68 10.44C51.63 10.42 51.59 10.39 51.56 10.36C51.53 10.33 51.5 10.29 51.48 10.24C51.46 10.19 51.45 10.14 51.45 10.09C51.45 10.04 51.45 9.98996 51.48 9.93996C51.5 9.88996 51.53 9.84996 51.56 9.81996C51.59 9.78996 51.63 9.75996 51.68 9.73996C51.73 9.71996 51.78 9.70996 51.83 9.70996C51.88 9.70996 51.93 9.70996 51.98 9.73996C52.03 9.75996 52.07 9.78996 52.1 9.81996C52.13 9.84996 52.16 9.89996 52.18 9.93996C52.2 9.98996 52.21 10.04 52.21 10.09Z" fill="white"/>
</g>
<path fill-rule="evenodd" clip-rule="evenodd" d="M6.49771 79C6.98969 79 7.48602 79.213 7.49037 79.6913C7.49037 80.1043 7.24656 80.2696 6.99839 80.2696C6.75023 80.2696 6.73281 80.1435 6.73281 80.1435C6.73281 80.1435 7.02452 79.9261 7.02452 79.7174C7.02452 79.6087 6.94179 79.313 6.489 79.3174C5.8577 79.3174 5.5181 79.6174 5.5181 80.1522C5.5181 80.7652 7.35105 80.9739 7.3554 81.7652C7.3554 82.613 6.47594 82.9957 5.69225 83C5.283 83 5.01306 82.7609 5.00871 82.3783C5.00871 81.9261 5.22204 81.4652 5.75756 81.4652C5.88382 81.4565 5.98831 81.5522 5.99702 81.6783C5.99702 81.6783 5.99702 81.6826 5.99702 81.687C5.99702 81.687 5.45715 81.8391 5.4615 82.3783C5.4615 82.4783 5.56599 82.6609 5.81851 82.6565C6.07103 82.6522 6.82424 82.4739 6.81989 81.8087C6.81989 81.1913 5.00435 81.1087 5 80.1478C5 79.0652 6.08845 79.0087 6.49771 79.0087V79ZM10.747 79.6C10.8123 79.5696 11.2129 79.4913 11.1955 79.813C11.1824 80.1348 10.9386 80.6913 10.9037 80.9348C11.2303 80.7696 11.6918 80.2087 11.6918 80.2087C11.6918 80.2087 12.0183 80.2522 11.9182 80.4522C11.818 80.6522 11.1519 81.1435 11.1519 81.1435C11.1519 81.1435 11.3043 82.5696 12.1707 82.5696C12.6453 82.5696 12.8499 82.3609 12.937 82.287C12.9587 82.2696 12.9762 82.2652 12.9849 82.2783C13.0197 82.387 12.9936 82.5043 12.9152 82.5913C12.8194 82.6957 12.5974 82.8217 12.1533 82.8261C11.3653 82.8261 10.9255 82.1957 10.8123 81.2609C10.7252 81.5348 10.7339 81.9826 10.7209 82.2C10.6948 82.2435 10.2507 82.4174 10.2158 82.1174C10.2158 82.0913 10.2158 82.0696 10.2158 82.0435C10.1331 82.1609 10.0199 82.2826 9.91108 82.2826C9.71951 82.2826 9.63679 82.1217 9.60196 82.0391C9.57584 82.0696 9.3625 82.287 9.08821 82.287C8.92277 82.2913 8.77474 82.1957 8.70943 82.0435C8.57011 82.1435 8.32195 82.2913 8.03895 82.2913C7.73418 82.2913 7.66017 82.1087 7.66017 81.9565C7.66017 81.713 7.84303 80.987 7.84303 80.987C7.84303 80.987 7.48602 81.1304 7.36411 81.1348C7.19431 81.1348 7.11159 80.8217 7.11159 80.813C7.11159 80.8087 7.11159 80.8 7.1203 80.8C7.22044 80.7609 7.94317 80.513 7.94317 80.513C7.94317 80.513 8.07813 79.9826 8.09555 79.913C8.11296 79.8435 8.2131 79.7 8.33065 79.6565C8.41773 79.6217 8.50916 79.6 8.60059 79.5913C8.63107 79.5913 8.65284 79.6 8.65284 79.6174C8.65284 79.6348 8.47433 80.4087 8.47433 80.4087C8.47433 80.4087 8.84876 80.3217 8.98808 80.3217C9.09692 80.3217 9.15352 80.387 9.09257 80.4696C9.03162 80.5522 8.96196 80.6478 8.92712 80.6913C8.88794 80.7348 8.86182 80.7435 8.77039 80.7609C8.64413 80.787 8.36113 80.8565 8.36113 80.8565C8.36113 80.8565 8.13473 81.6783 8.13909 81.8174C8.13909 81.8957 8.16521 81.987 8.26099 81.987C8.35678 81.987 8.53964 81.8739 8.67025 81.7913C8.69202 81.1522 9.18835 80.7261 9.57584 80.7261C9.7021 80.7261 9.65421 80.8478 9.79788 80.8478H9.88931C9.94591 80.8478 10.0069 80.8522 10.0069 80.9957C10.0069 81.1957 9.89367 81.5261 9.89367 81.7348C9.89367 81.8826 9.91544 81.987 9.97204 81.987C10.0678 81.987 10.1767 81.8478 10.255 81.7261C10.3813 81.0304 10.734 79.7609 10.734 79.6174L10.747 79.6ZM12.5016 80.7C12.7672 80.6783 12.9326 80.8217 12.9631 80.9C12.9936 80.9783 12.9892 81.1609 12.9152 81.2913C12.6845 81.7044 12.1097 81.6304 12.1097 81.6304C12.1097 81.6304 12.0444 81.9565 12.3405 81.9565C12.593 81.9565 12.7062 81.8304 12.8151 81.7261C12.8586 81.7261 12.9936 81.8652 12.9326 81.9609C12.8847 82.0348 12.6191 82.2565 12.2795 82.2609C11.7397 82.2609 11.6047 81.8 11.6744 81.4696C11.7658 81.0609 12.1751 80.7217 12.5016 80.6957V80.7ZM9.6455 80.987C9.32332 80.987 8.82699 81.9696 9.20577 81.9652C9.61938 81.9652 9.6455 81.1826 9.6455 81.0043V80.987ZM12.6409 80.8913C12.4232 80.9 12.1751 81.3174 12.1533 81.5C12.4798 81.513 12.654 81.1957 12.6757 81.0696C12.6888 80.9739 12.6932 80.887 12.6409 80.887V80.8913Z" fill="white"/>
<path fill-rule="evenodd" clip-rule="evenodd" d="M55.9957 79.5947C56.0385 79.5947 56.077 79.6161 56.0984 79.6504L56.9027 80.8012L57.5615 80.1423C57.6 80.1038 57.6514 80.0953 57.6984 80.1167C57.7455 80.1381 57.7754 80.1808 57.7754 80.2365V81.8963C57.7754 82.0332 57.7198 82.1616 57.6257 82.2557C57.5316 82.3498 57.3989 82.4054 57.2663 82.4054H54.7209C54.584 82.4054 54.4556 82.3498 54.3615 82.2557C54.2674 82.1616 54.2118 82.029 54.2118 81.8963V80.2322C54.2118 80.1808 54.2417 80.1338 54.2888 80.1124C54.3358 80.091 54.3915 80.1038 54.4257 80.1381L55.0845 80.7969L55.8888 79.6461C55.9145 79.6119 55.953 79.5905 55.9915 79.5905L55.9957 79.5947Z" fill="#FFC200"/>
<path d="M55.9957 79.5947C56.0385 79.5947 56.077 79.6161 56.0984 79.6504L56.9027 80.8012L57.5615 80.1423C57.5872 80.1167 57.6171 80.1039 57.6513 80.1039C57.6685 80.1039 57.6856 80.1039 57.6984 80.1124C57.7455 80.1338 57.7754 80.1766 57.7754 80.2322V81.8921C57.7754 82.029 57.7198 82.1573 57.6257 82.2514C57.5316 82.3456 57.3989 82.4012 57.2663 82.4012H54.7209C54.584 82.4012 54.4556 82.3456 54.3615 82.2514C54.2674 82.1573 54.2118 82.0247 54.2118 81.8921L54.2118 80.2322C54.2118 80.1808 54.2417 80.1338 54.2888 80.1124C54.3059 80.1038 54.323 80.1039 54.3358 80.1039C54.3701 80.1039 54.4 80.1167 54.4257 80.1424L55.0845 80.8012L55.8888 79.6504C55.9144 79.6162 55.9529 79.5948 55.9914 79.5948M55.9957 79.3809C55.8845 79.3809 55.7818 79.4365 55.7176 79.5263L55.0588 80.4675L54.5797 79.9883C54.5155 79.9242 54.4299 79.89 54.3401 79.89C54.2973 79.89 54.2503 79.8985 54.2075 79.9156C54.0791 79.967 53.9979 80.091 53.9979 80.2322V81.8921C53.9979 82.0846 54.0749 82.2686 54.2118 82.4055C54.3487 82.5424 54.5283 82.6194 54.7251 82.6194H57.2749C57.4674 82.6194 57.6513 82.5424 57.7882 82.4055C57.9251 82.2686 58.0021 82.0889 58.0021 81.8921V80.2322C58.0021 80.0953 57.9209 79.9712 57.7925 79.9156C57.7497 79.8985 57.707 79.89 57.6642 79.89C57.5743 79.89 57.4888 79.9242 57.4246 79.9883L56.9455 80.4675L56.2781 79.5263C56.2139 79.4365 56.107 79.3809 56 79.3809H55.9957Z" fill="#213743"/>
<path fill-rule="evenodd" clip-rule="evenodd" d="M55.3925 81.0664C55.3284 80.9809 55.3241 80.8611 55.3882 80.7755L56 79.9242V81.8621L55.3968 81.0707L55.3925 81.0664Z" fill="#FF7F00"/>
<path fill-rule="evenodd" clip-rule="evenodd" d="M56.6032 80.7113C56.6674 80.7969 56.6717 80.9167 56.6075 81.0022L55.9957 81.8536V79.9199L56.599 80.7113H56.6032Z" fill="#FFEBB8"/>
<path d="M24.57 70.5H23.538V67.818L22.866 68.496L22.278 67.878L23.676 66.498H24.57V70.5ZM26.3356 70.134C26.3356 70.626 26.0716 71.058 25.6516 71.352L25.2676 71.04C25.4596 70.944 25.7116 70.686 25.7776 70.47C25.7476 70.476 25.6936 70.488 25.6396 70.488C25.3816 70.488 25.1716 70.29 25.1716 69.996C25.1716 69.69 25.4236 69.444 25.7236 69.444C26.0476 69.444 26.3356 69.696 26.3356 70.134ZM28.3212 70.572C27.1512 70.572 26.6052 69.558 26.6052 68.502C26.6052 67.446 27.1512 66.438 28.3212 66.438C29.4912 66.438 30.0372 67.446 30.0372 68.502C30.0372 69.558 29.4912 70.572 28.3212 70.572ZM28.3212 69.66C28.8012 69.66 28.9932 69.21 28.9932 68.502C28.9932 67.794 28.8012 67.35 28.3212 67.35C27.8412 67.35 27.6492 67.794 27.6492 68.502C27.6492 69.21 27.8412 69.66 28.3212 69.66ZM32.0654 70.572C30.8954 70.572 30.3494 69.558 30.3494 68.502C30.3494 67.446 30.8954 66.438 32.0654 66.438C33.2354 66.438 33.7814 67.446 33.7814 68.502C33.7814 69.558 33.2354 70.572 32.0654 70.572ZM32.0654 69.66C32.5454 69.66 32.7374 69.21 32.7374 68.502C32.7374 67.794 32.5454 67.35 32.0654 67.35C31.5854 67.35 31.3934 67.794 31.3934 68.502C31.3934 69.21 31.5854 69.66 32.0654 69.66ZM35.8095 70.572C34.6395 70.572 34.0935 69.558 34.0935 68.502C34.0935 67.446 34.6395 66.438 35.8095 66.438C36.9795 66.438 37.5255 67.446 37.5255 68.502C37.5255 69.558 36.9795 70.572 35.8095 70.572ZM35.8095 69.66C36.2895 69.66 36.4815 69.21 36.4815 68.502C36.4815 67.794 36.2895 67.35 35.8095 67.35C35.3295 67.35 35.1375 67.794 35.1375 68.502C35.1375 69.21 35.3295 69.66 35.8095 69.66ZM40.7896 70.5H39.7756L39.2176 69.624L38.6536 70.5H37.6456L38.6356 69.012L37.7056 67.602H38.7196L39.2176 68.388L39.7096 67.602H40.7236L39.7996 69.012L40.7896 70.5Z" fill="#FFEBB8"/>
<path d="M24.57 70H23.538V67.318L22.866 67.996L22.278 67.378L23.676 65.998H24.57V70ZM26.3356 69.634C26.3356 70.126 26.0716 70.558 25.6516 70.852L25.2676 70.54C25.4596 70.444 25.7116 70.186 25.7776 69.97C25.7476 69.976 25.6936 69.988 25.6396 69.988C25.3816 69.988 25.1716 69.79 25.1716 69.496C25.1716 69.19 25.4236 68.944 25.7236 68.944C26.0476 68.944 26.3356 69.196 26.3356 69.634ZM28.3212 70.072C27.1512 70.072 26.6052 69.058 26.6052 68.002C26.6052 66.946 27.1512 65.938 28.3212 65.938C29.4912 65.938 30.0372 66.946 30.0372 68.002C30.0372 69.058 29.4912 70.072 28.3212 70.072ZM28.3212 69.16C28.8012 69.16 28.9932 68.71 28.9932 68.002C28.9932 67.294 28.8012 66.85 28.3212 66.85C27.8412 66.85 27.6492 67.294 27.6492 68.002C27.6492 68.71 27.8412 69.16 28.3212 69.16ZM32.0654 70.072C30.8954 70.072 30.3494 69.058 30.3494 68.002C30.3494 66.946 30.8954 65.938 32.0654 65.938C33.2354 65.938 33.7814 66.946 33.7814 68.002C33.7814 69.058 33.2354 70.072 32.0654 70.072ZM32.0654 69.16C32.5454 69.16 32.7374 68.71 32.7374 68.002C32.7374 67.294 32.5454 66.85 32.0654 66.85C31.5854 66.85 31.3934 67.294 31.3934 68.002C31.3934 68.71 31.5854 69.16 32.0654 69.16ZM35.8095 70.072C34.6395 70.072 34.0935 69.058 34.0935 68.002C34.0935 66.946 34.6395 65.938 35.8095 65.938C36.9795 65.938 37.5255 66.946 37.5255 68.002C37.5255 69.058 36.9795 70.072 35.8095 70.072ZM35.8095 69.16C36.2895 69.16 36.4815 68.71 36.4815 68.002C36.4815 67.294 36.2895 66.85 35.8095 66.85C35.3295 66.85 35.1375 67.294 35.1375 68.002C35.1375 68.71 35.3295 69.16 35.8095 69.16ZM40.7896 70H39.7756L39.2176 69.124L38.6536 70H37.6456L38.6356 68.512L37.7056 67.102H38.7196L39.2176 67.888L39.7096 67.102H40.7236L39.7996 68.512L40.7896 70Z" fill="#FF5500"/>
<path d="M7.45 11.3999H5.33V8.0649H6.04V10.7749H7.45V11.3999ZM9.01348 11.4599C8.27848 11.4599 7.72348 10.9649 7.72348 10.1899C7.72348 9.4899 8.23848 8.9249 8.97348 8.9249C9.69348 8.9249 10.1835 9.4649 10.1835 10.2549V10.3949H8.38848C8.42848 10.6999 8.67348 10.9549 9.08348 10.9549C9.28848 10.9549 9.57348 10.8649 9.72848 10.7149L10.0085 11.1249C9.76848 11.3449 9.38848 11.4599 9.01348 11.4599ZM9.56848 9.9649C9.55348 9.7349 9.39348 9.4299 8.97348 9.4299C8.57848 9.4299 8.40848 9.7249 8.37848 9.9649H9.56848ZM11.6321 12.3799C11.2171 12.3799 10.8971 12.2849 10.5921 12.0199L10.8771 11.5599C11.0721 11.7749 11.3271 11.8599 11.6321 11.8599C11.9371 11.8599 12.2971 11.7249 12.2971 11.2499V11.0049C12.1071 11.2449 11.8471 11.3849 11.5521 11.3849C10.9471 11.3849 10.4871 10.9599 10.4871 10.1549C10.4871 9.3649 10.9421 8.9249 11.5521 8.9249C11.8421 8.9249 12.1021 9.0499 12.2971 9.2949V8.9849H12.9371V11.2349C12.9371 12.1549 12.2271 12.3799 11.6321 12.3799ZM11.7521 10.8199C11.9621 10.8199 12.1921 10.6999 12.2971 10.5449V9.7649C12.1921 9.6049 11.9621 9.4899 11.7521 9.4899C11.3921 9.4899 11.1421 9.7399 11.1421 10.1549C11.1421 10.5699 11.3921 10.8199 11.7521 10.8199ZM14.702 11.4599C13.967 11.4599 13.412 10.9649 13.412 10.1899C13.412 9.4899 13.927 8.9249 14.662 8.9249C15.382 8.9249 15.872 9.4649 15.872 10.2549V10.3949H14.077C14.117 10.6999 14.362 10.9549 14.772 10.9549C14.977 10.9549 15.262 10.8649 15.417 10.7149L15.697 11.1249C15.457 11.3449 15.077 11.4599 14.702 11.4599ZM15.257 9.9649C15.242 9.7349 15.082 9.4299 14.662 9.4299C14.267 9.4299 14.097 9.7249 14.067 9.9649H15.257ZM18.5956 11.3999H17.9606V9.9399C17.9606 9.6049 17.7856 9.4899 17.5156 9.4899C17.2656 9.4899 17.0706 9.6299 16.9656 9.7749V11.3999H16.3306V8.9849H16.9656V9.2999C17.1206 9.1149 17.4156 8.9249 17.8106 8.9249C18.3406 8.9249 18.5956 9.2249 18.5956 9.6949V11.3999ZM21.5261 11.3999H20.8861V11.0899C20.6961 11.3299 20.4311 11.4599 20.1411 11.4599C19.5311 11.4599 19.0711 10.9999 19.0711 10.1949C19.0711 9.4049 19.5261 8.9249 20.1411 8.9249C20.4261 8.9249 20.6961 9.0499 20.8861 9.2949V8.0649H21.5261V11.3999ZM20.3361 10.8949C20.5511 10.8949 20.7811 10.7799 20.8861 10.6199V9.7649C20.7811 9.6049 20.5511 9.4899 20.3361 9.4899C19.9761 9.4899 19.7261 9.7749 19.7261 10.1949C19.7261 10.6099 19.9761 10.8949 20.3361 10.8949ZM24.2408 11.3999H23.6058V11.1499C23.4408 11.3449 23.1558 11.4599 22.8408 11.4599C22.4558 11.4599 22.0008 11.1999 22.0008 10.6599C22.0008 10.0949 22.4558 9.8799 22.8408 9.8799C23.1608 9.8799 23.4458 9.9849 23.6058 10.1749V9.8499C23.6058 9.6049 23.3958 9.4449 23.0758 9.4449C22.8158 9.4449 22.5758 9.5399 22.3708 9.7299L22.1308 9.3049C22.4258 9.0449 22.8058 8.9249 23.1858 8.9249C23.7358 8.9249 24.2408 9.1449 24.2408 9.8399V11.3999ZM23.0958 11.0299C23.3008 11.0299 23.5008 10.9599 23.6058 10.8199V10.5199C23.5008 10.3799 23.3008 10.3099 23.0958 10.3099C22.8458 10.3099 22.6408 10.4399 22.6408 10.6749C22.6408 10.8999 22.8458 11.0299 23.0958 11.0299ZM25.5057 11.3999H24.8707V8.9849H25.5057V9.3149C25.6757 9.0999 25.9757 8.9249 26.2757 8.9249V9.5449C26.2307 9.5349 26.1707 9.5299 26.1007 9.5299C25.8907 9.5299 25.6107 9.6499 25.5057 9.8049V11.3999ZM26.5874 12.3449L26.6824 11.7749C26.7374 11.7999 26.8224 11.8149 26.8824 11.8149C27.0474 11.8149 27.1574 11.7699 27.2174 11.6399L27.3074 11.4349L26.3274 8.9849H27.0074L27.6374 10.6649L28.2674 8.9849H28.9524L27.8174 11.7949C27.6374 12.2499 27.3174 12.3699 26.9024 12.3799C26.8274 12.3799 26.6674 12.3649 26.5874 12.3449Z" fill="#FF5500"/>
<path d="M7.45 11H5.33V7.665H6.04V10.375H7.45V11ZM9.01348 11.06C8.27848 11.06 7.72348 10.565 7.72348 9.79C7.72348 9.09 8.23848 8.525 8.97348 8.525C9.69348 8.525 10.1835 9.065 10.1835 9.855V9.995H8.38848C8.42848 10.3 8.67348 10.555 9.08348 10.555C9.28848 10.555 9.57348 10.465 9.72848 10.315L10.0085 10.725C9.76848 10.945 9.38848 11.06 9.01348 11.06ZM9.56848 9.565C9.55348 9.335 9.39348 9.03 8.97348 9.03C8.57848 9.03 8.40848 9.325 8.37848 9.565H9.56848ZM11.6321 11.98C11.2171 11.98 10.8971 11.885 10.5921 11.62L10.8771 11.16C11.0721 11.375 11.3271 11.46 11.6321 11.46C11.9371 11.46 12.2971 11.325 12.2971 10.85V10.605C12.1071 10.845 11.8471 10.985 11.5521 10.985C10.9471 10.985 10.4871 10.56 10.4871 9.755C10.4871 8.965 10.9421 8.525 11.5521 8.525C11.8421 8.525 12.1021 8.65 12.2971 8.895V8.585H12.9371V10.835C12.9371 11.755 12.2271 11.98 11.6321 11.98ZM11.7521 10.42C11.9621 10.42 12.1921 10.3 12.2971 10.145V9.365C12.1921 9.205 11.9621 9.09 11.7521 9.09C11.3921 9.09 11.1421 9.34 11.1421 9.755C11.1421 10.17 11.3921 10.42 11.7521 10.42ZM14.702 11.06C13.967 11.06 13.412 10.565 13.412 9.79C13.412 9.09 13.927 8.525 14.662 8.525C15.382 8.525 15.872 9.065 15.872 9.855V9.995H14.077C14.117 10.3 14.362 10.555 14.772 10.555C14.977 10.555 15.262 10.465 15.417 10.315L15.697 10.725C15.457 10.945 15.077 11.06 14.702 11.06ZM15.257 9.565C15.242 9.335 15.082 9.03 14.662 9.03C14.267 9.03 14.097 9.325 14.067 9.565H15.257ZM18.5956 11H17.9606V9.54C17.9606 9.205 17.7856 9.09 17.5156 9.09C17.2656 9.09 17.0706 9.23 16.9656 9.375V11H16.3306V8.585H16.9656V8.9C17.1206 8.715 17.4156 8.525 17.8106 8.525C18.3406 8.525 18.5956 8.825 18.5956 9.295V11ZM21.5261 11H20.8861V10.69C20.6961 10.93 20.4311 11.06 20.1411 11.06C19.5311 11.06 19.0711 10.6 19.0711 9.795C19.0711 9.005 19.5261 8.525 20.1411 8.525C20.4261 8.525 20.6961 8.65 20.8861 8.895V7.665H21.5261V11ZM20.3361 10.495C20.5511 10.495 20.7811 10.38 20.8861 10.22V9.365C20.7811 9.205 20.5511 9.09 20.3361 9.09C19.9761 9.09 19.7261 9.375 19.7261 9.795C19.7261 10.21 19.9761 10.495 20.3361 10.495ZM24.2408 11H23.6058V10.75C23.4408 10.945 23.1558 11.06 22.8408 11.06C22.4558 11.06 22.0008 10.8 22.0008 10.26C22.0008 9.695 22.4558 9.48 22.8408 9.48C23.1608 9.48 23.4458 9.585 23.6058 9.775V9.45C23.6058 9.205 23.3958 9.045 23.0758 9.045C22.8158 9.045 22.5758 9.14 22.3708 9.33L22.1308 8.905C22.4258 8.645 22.8058 8.525 23.1858 8.525C23.7358 8.525 24.2408 8.745 24.2408 9.44V11ZM23.0958 10.63C23.3008 10.63 23.5008 10.56 23.6058 10.42V10.12C23.5008 9.98 23.3008 9.91 23.0958 9.91C22.8458 9.91 22.6408 10.04 22.6408 10.275C22.6408 10.5 22.8458 10.63 23.0958 10.63ZM25.5057 11H24.8707V8.585H25.5057V8.915C25.6757 8.7 25.9757 8.525 26.2757 8.525V9.145C26.2307 9.135 26.1707 9.13 26.1007 9.13C25.8907 9.13 25.6107 9.25 25.5057 9.405V11ZM26.5874 11.945L26.6824 11.375C26.7374 11.4 26.8224 11.415 26.8824 11.415C27.0474 11.415 27.1574 11.37 27.2174 11.24L27.3074 11.035L26.3274 8.585H27.0074L27.6374 10.265L28.2674 8.585H28.9524L27.8174 11.395C27.6374 11.85 27.3174 11.97 26.9024 11.98C26.8274 11.98 26.6674 11.965 26.5874 11.945Z" fill="white"/>
<g clip-path="url(#clip2_26835_29166)">
<path d="M34.9933 4C34.4047 4.92308 33.9231 5.40468 33 5.99331C33.9231 6.58194 34.4047 7.06355 34.9933 7.98662C35.5819 7.06355 36.0635 6.58194 36.9866 5.99331C36.0635 5.40468 35.5819 4.92308 34.9933 4Z" fill="white"/>
</g>
<defs>
<linearGradient id="paint0_linear_26835_29166" x1="31.5" y1="0" x2="31.5" y2="88" gradientUnits="userSpaceOnUse">
<stop stop-color="#FFC200"/>
<stop offset="1" stop-color="#FF7F00"/>
</linearGradient>
<linearGradient id="paint1_linear_26835_29166" x1="71.86" y1="33.4901" x2="11.77" y2="93.5901" gradientUnits="userSpaceOnUse">
<stop stop-color="white" stop-opacity="0"/>
<stop offset="1" stop-color="white"/>
</linearGradient>
<linearGradient id="paint2_linear_26835_29166" x1="48.23" y1="9.85996" x2="-11.87" y2="69.96" gradientUnits="userSpaceOnUse">
<stop stop-color="white" stop-opacity="0"/>
<stop offset="1" stop-color="white"/>
</linearGradient>
<linearGradient id="paint3_linear_26835_29166" x1="86.07" y1="47.6998" x2="25.97" y2="107.79" gradientUnits="userSpaceOnUse">
<stop stop-color="white" stop-opacity="0"/>
<stop offset="1" stop-color="white"/>
</linearGradient>
<linearGradient id="paint4_linear_26835_29166" x1="49.05" y1="71.7801" x2="52.48" y2="82.4701" gradientUnits="userSpaceOnUse">
<stop stop-color="#8EA3B2"/>
<stop offset="1" stop-color="#557086"/>
</linearGradient>
<linearGradient id="paint5_linear_26835_29166" x1="31.5" y1="75" x2="31.5" y2="62" gradientUnits="userSpaceOnUse">
<stop stop-color="#FFFEFC"/>
<stop offset="1" stop-color="#FFC200"/>
</linearGradient>
<linearGradient id="paint6_linear_26835_29166" x1="31.5" y1="84.47" x2="31.5" y2="3.96" gradientUnits="userSpaceOnUse">
<stop stop-color="#FF8913"/>
<stop offset="1" stop-color="#FFC200"/>
</linearGradient>
<linearGradient id="paint7_linear_26835_29166" x1="15.7431" y1="57.8637" x2="43.0962" y2="17.3551" gradientUnits="userSpaceOnUse">
<stop stop-color="#FF8913"/>
<stop offset="1" stop-color="#FFC200"/>
</linearGradient>
<clipPath id="clip0_26835_29166">
<rect width="63" height="88" fill="white"/>
</clipPath>
<clipPath id="clip1_26835_29166">
<rect width="63" height="88" fill="white"/>
</clipPath>
<clipPath id="clip2_26835_29166">
<rect width="4" height="4" fill="white" transform="translate(33 4)"/>
</clipPath>
</defs>
</svg>
