<svg width="63" height="88" viewBox="0 0 63 88" fill="none" xmlns="http://www.w3.org/2000/svg">
<rect width="63" height="88" rx="4" fill="url(#paint0_linear_26835_29167)"/>
<g clip-path="url(#clip0_26835_29167)">
<path d="M56.5399 0.560059H6.4599C3.11306 0.560059 0.399902 3.27321 0.399902 6.62006V81.3801C0.399902 84.7269 3.11306 87.4401 6.4599 87.4401H56.5399C59.8867 87.4401 62.5999 84.7269 62.5999 81.3801V6.62006C62.5999 3.27321 59.8867 0.560059 56.5399 0.560059Z" fill="#FF7F00"/>
<mask id="mask0_26835_29167" style="mask-type:luminance" maskUnits="userSpaceOnUse" x="0" y="16" width="13" height="16">
<path d="M12.98 16.0303H0.839966V31.4203H12.98V16.0303Z" fill="white"/>
</mask>
<g mask="url(#mask0_26835_29167)">
<path d="M3.63996 17.8101C0.65996 17.8101 -1.76004 19.8301 -1.76004 22.3101V23.7901C-1.76004 26.2801 0.65996 28.2901 3.63996 28.2901C6.61996 28.2901 9.03996 26.2701 9.03996 23.7901V22.3101C9.03996 19.8201 6.61996 17.8101 3.63996 17.8101Z" fill="#FFC200"/>
<path d="M3.63996 28.29C6.6223 28.29 9.03996 26.2753 9.03996 23.79C9.03996 21.3048 6.6223 19.29 3.63996 19.29C0.657622 19.29 -1.76004 21.3048 -1.76004 23.79C-1.76004 26.2753 0.657622 28.29 3.63996 28.29Z" fill="#FF5500"/>
<path d="M5.47997 18.0801C5.47997 18.0801 6.22997 18.7201 6.27997 19.8701C6.27997 19.8701 7.17997 20.3401 7.47997 20.6301C7.47997 20.6301 7.61997 19.9401 7.47997 19.1501C7.47997 19.1501 6.62997 18.3901 5.47997 18.0801Z" fill="white"/>
</g>
<g opacity="0.2">
<mask id="mask1_26835_29167" style="mask-type:luminance" maskUnits="userSpaceOnUse" x="0" y="0" width="63" height="88">
<path d="M56.5399 0.560059H6.4599C3.11306 0.560059 0.399902 3.27321 0.399902 6.62006V81.3801C0.399902 84.7269 3.11306 87.4401 6.4599 87.4401H56.5399C59.8867 87.4401 62.5999 84.7269 62.5999 81.3801V6.62006C62.5999 3.27321 59.8867 0.560059 56.5399 0.560059Z" fill="white"/>
</mask>
<g mask="url(#mask1_26835_29167)">
<path d="M68.3699 47.3201V26.6401L4.4599 90.5501H25.1299L68.3699 47.3201Z" fill="url(#paint1_linear_26835_29167)"/>
<path d="M64.6599 -2.29004H55.2199L-2.9201 55.84V66.18L65.4599 -2.20004C65.1999 -2.26004 64.9299 -2.29004 64.6599 -2.29004Z" fill="url(#paint2_linear_26835_29167)"/>
<path d="M68.3699 69.2298V61.5498L39.3699 90.5498H47.0499L68.3699 69.2298Z" fill="url(#paint3_linear_26835_29167)"/>
</g>
</g>
<path d="M18.4699 62H44.5199C48.4199 62 51.5799 65.36 51.5799 69.49C51.5799 73.63 48.4199 76.98 44.5199 76.98H18.4699C14.5699 76.98 11.4099 73.62 11.4099 69.49C11.4099 65.35 14.5699 62 18.4699 62Z" fill="#FF5500"/>
<path d="M30.2099 76.9901H34.8699L37.0199 74.8701H32.3599L30.2099 76.9901Z" fill="#FFC200"/>
<path d="M19.4999 62H43.4999C47.0899 62 49.9999 64.91 49.9999 68.5C49.9999 72.09 47.0899 75 43.4999 75H19.4999C15.9099 75 12.9999 72.09 12.9999 68.5C12.9999 64.91 15.9099 62 19.4999 62Z" fill="#FFC200"/>
<path d="M43.4999 62.5C46.8099 62.5 49.4999 65.19 49.4999 68.5C49.4999 71.81 46.8099 74.5 43.4999 74.5H19.4999C16.1899 74.5 13.4999 71.81 13.4999 68.5C13.4999 65.19 16.1899 62.5 19.4999 62.5H43.4999ZM43.4999 62H19.4999C15.9099 62 12.9999 64.91 12.9999 68.5C12.9999 72.09 15.9099 75 19.4999 75H43.4999C47.0899 75 49.9999 72.09 49.9999 68.5C49.9999 64.91 47.0899 62 43.4999 62Z" fill="url(#paint4_linear_26835_29167)"/>
<path d="M49.6001 68.2191C50.1863 67.844 49.9979 66.5029 49.1794 65.2235C48.3609 63.9442 47.2222 63.2111 46.636 63.5861C46.0499 63.9611 46.2382 65.3023 47.0567 66.5816C47.8752 67.861 49.0139 68.5941 49.6001 68.2191Z" fill="white"/>
<path d="M59 0H4C1.79 0 0 1.79 0 4V84C0 86.21 1.79 88 4 88H59C61.21 88 63 86.21 63 84V4C63 1.79 61.21 0 59 0ZM61 82.81C61 84.57 59.57 86 57.81 86H5.19C3.43 86 2 84.57 2 82.81V18.19C2 16.43 3.43 15 5.19 15H33.59C34.8 15 35.94 14.45 36.7 13.51L44.8 3.48C45.56 2.54 46.7 1.99 47.91 1.99H57.81C59.57 1.99 61 3.42 61 5.18V82.8V82.81Z" fill="url(#paint5_linear_26835_29167)"/>
<mask id="mask2_26835_29167" style="mask-type:luminance" maskUnits="userSpaceOnUse" x="0" y="0" width="63" height="88">
<path d="M59 0H4C1.79 0 0 1.79 0 4V84C0 86.21 1.79 88 4 88H59C61.21 88 63 86.21 63 84V4C63 1.79 61.21 0 59 0ZM61 82.81C61 84.57 59.57 86 57.81 86H5.19C3.43 86 2 84.57 2 82.81V18.19C2 16.43 3.43 15 5.19 15H33.59C34.8 15 35.94 14.45 36.7 13.51L44.8 3.48C45.56 2.54 46.7 1.99 47.91 1.99H57.81C59.57 1.99 61 3.42 61 5.18V82.8V82.81Z" fill="white"/>
</mask>
<g mask="url(#mask2_26835_29167)">
<path d="M68.37 47.3201V26.6401L4.46001 90.5501H25.13L68.37 47.3201Z" fill="white"/>
<path d="M64.66 -2.29004H55.22L-2.92 55.84V66.18L65.46 -2.20004C65.2 -2.26004 64.93 -2.29004 64.66 -2.29004Z" fill="white"/>
<path d="M68.37 69.2298V61.5498L39.37 90.5498H47.05L68.37 69.2298Z" fill="white"/>
</g>
<path d="M53.89 45.1499C53.14 46.3199 52.52 46.9299 51.35 47.6899C52.52 48.4399 53.13 49.0599 53.89 50.2299C54.64 49.0599 55.26 48.4499 56.43 47.6899C55.26 46.9399 54.65 46.3199 53.89 45.1499Z" fill="white"/>
<path d="M8.47997 52.8701C7.87997 53.8001 7.39997 54.2801 6.46997 54.8801C7.39997 55.4801 7.87997 55.9601 8.47997 56.8901C9.07997 55.9601 9.55997 55.4801 10.49 54.8801C9.55997 54.2801 9.07997 53.8001 8.47997 52.8701Z" fill="white"/>
<path d="M20.1399 62.22C20.1399 62.22 14.8499 69.44 33.3099 62.5L20.9499 61.73L20.1399 62.22Z" fill="#FF5500"/>
<path d="M33.43 65.17C35.7496 65.17 37.63 63.2896 37.63 60.97C37.63 58.6504 35.7496 56.77 33.43 56.77C31.1104 56.77 29.23 58.6504 29.23 60.97C29.23 63.2896 31.1104 65.17 33.43 65.17Z" fill="#FF5500"/>
<path d="M46.74 50.0603C46.23 48.3703 39.56 48.8903 31.85 51.2203C24.14 53.5503 18.31 56.8203 18.82 58.5103L20.26 63.2703C20.77 64.9603 27.44 64.4403 35.15 62.1103C42.86 59.7803 48.69 56.5103 48.18 54.8203L46.74 50.0603Z" fill="url(#paint6_linear_26835_29167)"/>
<path d="M46.94 55.1002C46.85 56.3602 45.99 56.8902 45.54 56.8602C45.09 56.8302 44.81 55.7802 44.9 54.5202C44.99 53.2602 45.43 52.2602 45.87 52.2902C46.31 52.3202 47.03 53.8302 46.94 55.1002Z" fill="white"/>
<path d="M32.1 56.7102C29.88 57.3802 28.62 59.7302 29.29 61.9502C29.46 62.5102 29.73 63.0102 30.09 63.4302C31.68 63.0902 33.39 62.6502 35.15 62.1202C35.94 61.8802 36.72 61.6302 37.47 61.3702C37.56 60.7702 37.53 60.1402 37.34 59.5202C36.67 57.3002 34.32 56.0402 32.1 56.7102Z" fill="#1A2C38"/>
<path d="M33.46 56.5398C25.48 58.9598 20.29 58.9498 19.64 58.2698C19.8 57.3498 24.12 54.4598 32.1 52.0398C40.08 49.6198 45.27 49.6298 45.92 50.3098C45.76 51.2298 41.44 54.1198 33.46 56.5398Z" fill="#557086"/>
<path d="M34.31 63.5401C36.6296 63.5401 38.51 61.6597 38.51 59.3401C38.51 57.0205 36.6296 55.1401 34.31 55.1401C31.9904 55.1401 30.11 57.0205 30.11 59.3401C30.11 61.6597 31.9904 63.5401 34.31 63.5401Z" fill="#FFC200"/>
<path d="M36.5198 57.6232C36.725 57.0867 36.2515 56.4071 35.4622 56.1053C34.673 55.8034 33.8669 55.9936 33.6617 56.5301C33.4565 57.0666 33.93 57.7462 34.7192 58.048C35.5084 58.3499 36.3146 58.1597 36.5198 57.6232Z" fill="white"/>
<path d="M35.4 62.5001C35.24 62.9201 34.07 63.1201 32.98 62.7001C31.89 62.2801 31.3 61.4001 31.46 60.9901C31.62 60.5801 32.63 60.5801 33.72 60.9901C34.81 61.4001 35.56 62.0801 35.4 62.4901V62.5001Z" fill="#FF7F00"/>
<path d="M35.6954 60.2489C35.5242 59.6832 34.9291 59.3629 34.3661 59.5333C33.8032 59.7037 33.4856 60.3003 33.6568 60.8659L33.9146 61.7177C34.0858 62.2833 34.681 62.6037 35.2439 62.4333C35.8069 62.2629 36.1245 61.6663 35.9533 61.1007L35.6954 60.2489Z" fill="#1A2C38"/>
<path d="M31.9247 22.8598C30.6847 26.7798 27.5147 25.7498 23.5847 24.5098C19.6647 23.2698 16.4747 22.2798 17.7147 18.3598C18.9547 14.4398 24.6347 7.55978 28.5547 8.80978C32.4747 10.0498 33.1647 18.9398 31.9147 22.8598H31.9247Z" fill="#FF5500"/>
<path d="M38.5848 25.0796C35.0548 27.1896 36.7848 30.0396 38.8848 33.5696C40.9948 37.0996 42.6848 39.9796 46.2148 37.8696C49.7448 35.7596 55.1348 28.6596 53.0248 25.1296C50.9148 21.5996 42.1048 22.9696 38.5748 25.0796H38.5848Z" fill="#FFC200"/>
<path d="M26.4248 54.88C37.1501 54.88 45.8448 46.1854 45.8448 35.46C45.8448 24.7347 37.1501 16.04 26.4248 16.04C15.6994 16.04 7.00476 24.7347 7.00476 35.46C7.00476 46.1854 15.6994 54.88 26.4248 54.88Z" fill="url(#paint7_linear_26835_29167)"/>
<path d="M26.3127 25.4336C26.5875 24.2161 25.6704 22.9718 24.2643 22.6544C22.8582 22.337 21.4956 23.0667 21.2208 24.2842C20.9459 25.5018 21.863 26.7461 23.2691 27.0635C24.6752 27.3808 26.0378 26.6511 26.3127 25.4336Z" fill="#FFEBB8"/>
<path d="M33.6768 32.0762C34.602 31.2384 34.5677 29.693 33.6002 28.6245C32.6327 27.556 31.0983 27.3689 30.1731 28.2067C29.2478 29.0445 29.2821 30.5898 30.2496 31.6584C31.2172 32.7269 32.7515 32.9139 33.6768 32.0762Z" fill="#FFEBB8"/>
<path d="M11.8847 22.5795C4.77472 30.6095 5.51472 42.8795 13.5347 49.9895C21.5647 57.0995 33.8347 56.3595 40.9447 48.3395C48.0547 40.3095 32.8147 41.1395 24.7947 34.0295C19.1347 29.0195 17.7947 15.9095 11.8847 22.5895V22.5795Z" fill="#FFEBB8"/>
<path d="M20.5447 29.88C19.4847 31.08 19.5247 33.52 21.2547 35.06C22.9847 36.59 25.7547 36.63 26.8147 35.44C27.8747 34.24 26.5747 32.88 24.8447 31.35C23.1147 29.82 21.6047 28.69 20.5447 29.89V29.88Z" fill="#1A2C38"/>
<path d="M31.0549 35.4058L30.0052 34.7272C29.1738 34.1897 28.9278 33.0781 29.4707 32.2383C30.0082 31.4069 31.1197 31.161 31.9595 31.7038L33.0093 32.3824L31.0604 35.3974L31.0549 35.4058Z" fill="white"/>
<path d="M32.0247 35.6996C33.0188 35.6996 33.8247 34.8937 33.8247 33.8996C33.8247 32.9055 33.0188 32.0996 32.0247 32.0996C31.0306 32.0996 30.2247 32.9055 30.2247 33.8996C30.2247 34.8937 31.0306 35.6996 32.0247 35.6996Z" fill="#1A2C38"/>
<path d="M20.698 28.7168L19.6482 28.0382C18.8168 27.5007 18.5709 26.3892 19.1138 25.5494C19.6512 24.7179 20.7628 24.472 21.6026 25.0149L22.6524 25.6935L20.7034 28.7084L20.698 28.7168Z" fill="white"/>
<path d="M21.6748 28.9999C22.6689 28.9999 23.4748 28.194 23.4748 27.1999C23.4748 26.2058 22.6689 25.3999 21.6748 25.3999C20.6806 25.3999 19.8748 26.2058 19.8748 27.1999C19.8748 28.194 20.6806 28.9999 21.6748 28.9999Z" fill="#1A2C38"/>
<path d="M22.8248 51.15C21.2348 52.73 17.1548 51.19 13.7048 47.72C10.2548 44.25 8.76475 40.16 10.3548 38.58C11.9448 37 14.1248 39.88 17.5648 43.35C21.0048 46.82 24.4148 49.57 22.8248 51.15Z" fill="#FF7F00"/>
<path d="M17.0048 19.6298C22.0948 16.6098 28.3648 16.2198 33.7848 18.5798C43.0948 22.6398 47.3648 33.5198 43.3048 42.8298C41.7548 46.3898 39.1748 49.3198 35.8448 51.2998C30.7548 54.3198 24.4848 54.7098 19.0648 52.3498C9.75478 48.2898 5.48478 37.4098 9.54478 28.0998C11.0948 24.5398 13.6748 21.6098 17.0048 19.6298ZM16.4948 18.7698C13.1148 20.7798 10.3148 23.8198 8.62478 27.6998C4.33478 37.5298 8.83478 48.9698 18.6548 53.2598C24.6048 55.8598 31.1548 55.2298 36.3448 52.1498C39.7248 50.1398 42.5248 47.0998 44.2148 43.2198C48.5048 33.3898 44.0048 21.9498 34.1848 17.6598C28.2348 15.0598 21.6848 15.6898 16.4948 18.7698Z" fill="url(#paint8_linear_26835_29167)"/>
<path d="M46.1148 34.0397C44.0648 34.5197 43.6648 32.7197 43.1448 30.5097C42.6248 28.2997 42.1848 26.5197 44.2348 26.0397C46.2848 25.5597 49.4948 26.6997 50.0148 28.9097C50.5348 31.1197 48.1648 33.5697 46.1148 34.0497V34.0397Z" fill="#FF5500"/>
<path d="M51.0548 30.7896C50.1048 32.3496 48.7948 33.2896 48.1248 32.8896C47.4548 32.4896 48.1448 31.1796 49.0948 29.6196C50.0448 28.0596 50.8948 26.8196 51.5648 27.2296C52.2348 27.6396 52.0048 29.2296 51.0548 30.7996V30.7896Z" fill="white"/>
<path d="M18.7248 38.1497C18.4148 38.0097 18.1848 37.7298 18.1448 37.3698C18.0748 36.8298 18.4548 36.3298 18.9948 36.2598H19.0248C20.5348 36.0598 21.7048 36.0698 24.2048 37.8398C26.6148 39.5498 28.2048 39.3998 29.3148 39.0698C29.8348 38.9198 30.3848 39.2197 30.5448 39.7397C30.6948 40.2597 30.3948 40.8097 29.8748 40.9697C28.4548 41.3797 26.2048 41.6798 23.0648 39.4498C21.0048 37.9898 20.3548 38.0698 19.2848 38.2098H19.2548C19.0648 38.2398 18.8848 38.2098 18.7248 38.1398V38.1497Z" fill="#1A2C38"/>
<path d="M21.5248 37.85C21.1548 35.93 21.9948 34.04 22.0248 33.96L23.0548 34.42C23.0548 34.42 22.3348 36.08 22.6348 37.64L21.5248 37.85Z" fill="#1A2C38"/>
<path d="M42.0813 41.6566C43.072 39.2753 42.7095 36.8599 41.2715 36.2616C39.8336 35.6633 37.8647 37.1088 36.874 39.4901C35.8832 41.8713 36.2458 44.2867 37.6837 44.885C39.1217 45.4833 41.0905 44.0379 42.0813 41.6566Z" fill="white"/>
<path d="M25.9317 34.2789C26.1699 34.0407 25.8945 33.379 25.3165 32.801C24.7386 32.2231 24.0769 31.9476 23.8387 32.1859C23.6005 32.4241 23.8759 33.0857 24.4539 33.6637C25.0318 34.2417 25.6935 34.5171 25.9317 34.2789Z" fill="#557086"/>
<path d="M58.55 73.8201L57.94 72.2201C57.87 72.1001 57.79 72.0001 57.71 71.8901L42.59 79.3901L44.02 81.8601C44.15 82.0901 44.35 82.2901 44.59 82.4101C46.45 83.3601 49.69 83.1101 52.88 81.5901C57.11 79.5801 59.65 76.0901 58.56 73.8101L58.55 73.8201Z" fill="#FF5500"/>
<path d="M57.4699 71.4299C55.9999 69.6599 52.0599 69.6299 48.1899 71.4699C43.9599 73.4799 41.4199 76.9699 42.5099 79.2499C42.7199 79.6899 43.0499 80.0499 43.4699 80.3299C43.5899 80.4099 43.7099 80.4799 43.8499 80.5499C45.7099 81.4999 48.9499 81.2499 52.1399 79.7299C56.3699 77.7199 58.9099 74.2299 57.8199 71.9499C57.7899 71.8799 57.7499 71.8099 57.7099 71.7399C57.6399 71.6199 57.5599 71.5199 57.4799 71.4099L57.4699 71.4299Z" fill="#FFC200"/>
<path d="M47.4299 71.8602C47.4299 71.8602 55.8299 70.0002 57.9999 73.7902C58.7799 70.0202 53.2999 68.6102 47.4299 71.8602Z" fill="white"/>
<path d="M46.34 74.9302C46.52 74.7302 46.7 74.5402 46.88 74.3402C46.9 74.3402 46.93 74.3402 46.95 74.3402C47.27 74.3502 47.59 74.3602 47.92 74.3802C48.03 74.3802 48.03 74.3802 48.13 74.2902C48.4 74.0302 48.69 73.7702 49.05 73.5402C49.38 73.3202 49.73 73.1502 50.1 73.0602C50.37 73.0002 50.59 72.9902 50.8 73.0102C51.15 73.0502 51.3 73.2002 51.24 73.4802C51.24 73.5002 51.24 73.5202 51.23 73.5402C51.25 73.5202 51.27 73.5202 51.28 73.5102C51.42 73.4102 51.55 73.3102 51.69 73.2102C52.05 72.9802 52.41 72.8202 52.79 72.7602C53.16 72.7002 53.46 72.7302 53.71 72.8102C53.93 72.8802 54.06 72.9902 54.08 73.1802C54.1 73.3902 53.99 73.6402 53.81 73.9002C53.67 74.1102 53.5 74.3102 53.34 74.5202C53.31 74.5602 53.31 74.5802 53.36 74.5802C53.46 74.5802 53.55 74.5802 53.64 74.5802C53.91 74.5802 54.19 74.6002 54.46 74.6102L53.92 75.2002C53.54 75.1902 53.16 75.1702 52.77 75.1602C52.63 75.3102 52.5 75.4602 52.37 75.6002C52.34 75.6402 52.37 75.6302 52.4 75.6302C52.76 75.6402 53.13 75.6602 53.49 75.6702L52.95 76.2602L51.78 76.2202C51.42 76.6202 51.06 77.0102 50.71 77.3902C50.7 77.3902 50.69 77.3902 50.69 77.3902C50.47 77.3402 50.24 77.3002 50.01 77.2502C49.98 77.2502 50 77.2202 50.01 77.2002C50.12 77.0802 50.23 76.9602 50.34 76.8402C50.49 76.6702 50.47 76.5902 50.27 76.5802C49.27 76.5402 48.26 76.5102 47.26 76.4702C47.04 76.4702 46.8 76.5702 46.62 76.7502C46.52 76.8502 46.43 76.9502 46.34 77.0502C46.29 77.1102 46.24 77.1602 46.19 77.2202L45.45 77.1902C45.81 76.8002 46.16 76.4102 46.52 76.0102L45.38 75.9702L45.92 75.3802C46.28 75.3902 46.63 75.4102 46.99 75.4202C47.03 75.4202 47.06 75.4202 47.09 75.3802C47.18 75.2802 47.27 75.1802 47.36 75.0702C47.39 75.0302 47.43 74.9902 47.47 74.9502L46.35 74.9102L46.34 74.9302ZM51.5 75.5902C51.67 75.4102 51.83 75.2302 51.99 75.0502C52.19 74.8202 52.37 74.5902 52.47 74.3702C52.54 74.2302 52.58 74.0902 52.49 74.0102C52.33 73.8402 51.86 73.9102 51.44 74.1602C51.13 74.3502 50.88 74.5602 50.67 74.7702C50.45 75.0002 50.24 75.2302 50.02 75.4702C49.96 75.5302 49.96 75.5302 50.04 75.5402C50.5 75.5602 50.96 75.5702 51.42 75.5902C51.44 75.5902 51.46 75.5902 51.49 75.5902H51.5ZM48.56 75.4902C48.78 75.4902 48.99 75.5102 49.21 75.5102C49.24 75.5102 49.26 75.5102 49.3 75.4802C49.58 75.1802 49.86 74.8802 50.03 74.5802C50.12 74.4302 50.14 74.3002 50.08 74.2102C49.98 74.0602 49.56 74.1002 49.21 74.2702C48.93 74.4102 48.7 74.5902 48.52 74.7802C48.31 74.9902 48.12 75.2002 47.92 75.4102C47.88 75.4602 47.89 75.4702 47.94 75.4702C48.15 75.4702 48.36 75.4802 48.57 75.4902H48.56Z" fill="white"/>
<path d="M49.21 8.3298L49.08 10.7798L48.13 10.8698L47.62 9.5598L47.54 10.8998H46.73L46.8 8.3398L47.7 8.2998L48.33 9.5998L48.36 8.3698L49.21 8.3398V8.3298Z" fill="#FF5500"/>
<path d="M51.56 9.54012C51.56 9.65012 51.55 9.76012 51.52 9.86012C51.49 9.96012 51.46 10.0601 51.41 10.1501C51.36 10.2401 51.3 10.3201 51.24 10.3901C51.17 10.4601 51.1 10.5301 51.01 10.5801C50.92 10.6301 50.83 10.6701 50.73 10.7001C50.63 10.7301 50.52 10.7401 50.41 10.7401C50.3 10.7401 50.2 10.7301 50.1 10.7001C50 10.6701 49.91 10.6301 49.82 10.5801C49.73 10.5301 49.66 10.4701 49.59 10.4001C49.52 10.3301 49.46 10.2501 49.41 10.1701C49.36 10.0801 49.32 9.99012 49.3 9.89012C49.27 9.79012 49.26 9.69012 49.26 9.58012C49.26 9.47012 49.27 9.37012 49.3 9.27012C49.33 9.17012 49.36 9.07012 49.41 8.99012C49.46 8.91012 49.52 8.82012 49.58 8.74012C49.64 8.66012 49.72 8.60012 49.81 8.55012C49.89 8.50012 49.98 8.45012 50.08 8.42012C50.18 8.39012 50.28 8.37012 50.39 8.37012C50.56 8.37012 50.72 8.40012 50.87 8.45012C51.01 8.50012 51.14 8.58012 51.24 8.68012C51.34 8.78012 51.42 8.90012 51.48 9.04012C51.54 9.18012 51.56 9.34012 51.56 9.52012V9.54012ZM50.76 9.59012C50.76 9.54012 50.76 9.49012 50.74 9.44012C50.73 9.39012 50.7 9.35012 50.67 9.31012C50.64 9.27012 50.61 9.24012 50.56 9.22012C50.51 9.20012 50.47 9.18012 50.41 9.18012C50.35 9.18012 50.3 9.18012 50.26 9.21012C50.22 9.23012 50.18 9.26012 50.15 9.29012C50.12 9.32012 50.09 9.37012 50.08 9.41012C50.06 9.46012 50.05 9.51012 50.05 9.56012C50.05 9.61012 50.05 9.66012 50.07 9.71012C50.08 9.76012 50.11 9.81012 50.13 9.85012C50.16 9.89012 50.19 9.92012 50.24 9.95012C50.28 9.98012 50.33 9.99012 50.39 9.99012C50.45 9.99012 50.5 9.98012 50.54 9.96012C50.58 9.94012 50.62 9.91012 50.65 9.87012C50.68 9.83012 50.71 9.79012 50.72 9.74012C50.74 9.69012 50.75 9.64012 50.75 9.59012H50.76Z" fill="#FF5500"/>
<path d="M52.31 10.5499C52.31 10.5999 52.3 10.6499 52.28 10.6999C52.26 10.7499 52.23 10.7899 52.2 10.8199C52.17 10.8499 52.13 10.8799 52.08 10.8999C52.03 10.9199 51.99 10.9299 51.93 10.9299C51.87 10.9299 51.83 10.9299 51.78 10.8999C51.73 10.8799 51.69 10.8499 51.66 10.8199C51.63 10.7899 51.6 10.7499 51.58 10.6999C51.56 10.6499 51.55 10.5999 51.55 10.5499C51.55 10.4999 51.55 10.4499 51.58 10.3999C51.6 10.3499 51.63 10.3099 51.66 10.2799C51.69 10.2499 51.73 10.2199 51.78 10.1999C51.83 10.1799 51.88 10.1699 51.93 10.1699C51.98 10.1699 52.03 10.1699 52.08 10.1999C52.13 10.2199 52.17 10.2499 52.2 10.2799C52.23 10.3099 52.26 10.3599 52.28 10.3999C52.3 10.4499 52.31 10.4999 52.31 10.5499Z" fill="#FF5500"/>
<path d="M49.1 7.86984L48.97 10.3198L48.02 10.4098L47.51 9.09984L47.43 10.4398H46.62L46.69 7.87984L47.59 7.83984L48.22 9.13984L48.25 7.90984L49.1 7.87984V7.86984Z" fill="white"/>
<path d="M51.46 9.08016C51.46 9.19016 51.45 9.30016 51.42 9.40016C51.39 9.50016 51.36 9.60016 51.31 9.69016C51.26 9.78016 51.2 9.86016 51.14 9.93016C51.07 10.0002 51 10.0702 50.91 10.1202C50.82 10.1702 50.73 10.2102 50.63 10.2402C50.53 10.2702 50.42 10.2802 50.31 10.2802C50.2 10.2802 50.1 10.2702 50 10.2402C49.9 10.2102 49.81 10.1702 49.72 10.1202C49.63 10.0702 49.56 10.0102 49.49 9.94016C49.42 9.87016 49.36 9.79016 49.31 9.71016C49.26 9.62016 49.22 9.53016 49.2 9.43016C49.17 9.33016 49.16 9.23016 49.16 9.12016C49.16 9.01016 49.17 8.91016 49.2 8.81016C49.23 8.71016 49.26 8.61016 49.31 8.53016C49.36 8.45016 49.42 8.36016 49.48 8.28016C49.54 8.20016 49.62 8.14016 49.71 8.09016C49.79 8.04016 49.88 7.99016 49.98 7.96016C50.08 7.93016 50.18 7.91016 50.29 7.91016C50.46 7.91016 50.62 7.94016 50.77 7.99016C50.91 8.04016 51.04 8.12016 51.14 8.22016C51.24 8.32016 51.32 8.44016 51.38 8.58016C51.44 8.72016 51.46 8.88016 51.46 9.06016V9.08016ZM50.66 9.12016C50.66 9.07016 50.66 9.02016 50.64 8.97016C50.63 8.92016 50.6 8.88016 50.57 8.84016C50.54 8.80016 50.51 8.77016 50.46 8.75016C50.41 8.73016 50.37 8.71016 50.31 8.71016C50.25 8.71016 50.2 8.71016 50.16 8.74016C50.12 8.76016 50.08 8.79016 50.05 8.82016C50.02 8.85016 49.99 8.90016 49.98 8.94016C49.96 8.99016 49.95 9.04016 49.95 9.09016C49.95 9.14016 49.95 9.19016 49.97 9.24016C49.98 9.29016 50.01 9.34016 50.03 9.38016C50.06 9.42016 50.09 9.45016 50.14 9.48016C50.18 9.51016 50.23 9.52016 50.29 9.52016C50.35 9.52016 50.4 9.51016 50.44 9.49016C50.48 9.47016 50.52 9.44016 50.55 9.40016C50.58 9.36016 50.61 9.32016 50.62 9.27016C50.64 9.22016 50.65 9.17016 50.65 9.12016H50.66Z" fill="white"/>
<path d="M52.21 10.09C52.21 10.14 52.2 10.19 52.18 10.24C52.16 10.29 52.13 10.33 52.1 10.36C52.07 10.39 52.03 10.42 51.98 10.44C51.93 10.46 51.89 10.47 51.83 10.47C51.77 10.47 51.73 10.47 51.68 10.44C51.63 10.42 51.59 10.39 51.56 10.36C51.53 10.33 51.5 10.29 51.48 10.24C51.46 10.19 51.45 10.14 51.45 10.09C51.45 10.04 51.45 9.98996 51.48 9.93996C51.5 9.88996 51.53 9.84996 51.56 9.81996C51.59 9.78996 51.63 9.75996 51.68 9.73996C51.73 9.71996 51.78 9.70996 51.83 9.70996C51.88 9.70996 51.93 9.70996 51.98 9.73996C52.03 9.75996 52.07 9.78996 52.1 9.81996C52.13 9.84996 52.16 9.89996 52.18 9.93996C52.2 9.98996 52.21 10.04 52.21 10.09Z" fill="white"/>
<path d="M56.78 8.96006L56.89 6.31006H55.33L55.2 9.02006L54.73 9.04006L55.12 6.85006H53.77L53.24 9.99006L55.15 9.95006L55.06 11.6001L56.68 11.4501L56.74 9.91006L57.06 9.90006V8.95006L56.78 8.96006Z" fill="#FF5500"/>
<path d="M56.76 5.91016H55.21L55.07 8.62016L54.6 8.64016L54.99 6.45016H53.64L53.11 9.59016L55.02 9.55016L56.65 8.57016L56.76 5.91016Z" fill="#FFEBB8"/>
<path d="M55.02 9.5498L54.94 11.1998L56.55 11.0598L56.62 9.5098L56.93 9.4998V8.5498L56.65 8.5698L55.02 9.5498Z" fill="#FFC200"/>
<path d="M54.56 9.56004L56.67 8.04004L56.65 8.57004L56.93 8.55004V8.99004L54.99 10.19L55.02 9.55004L54.56 9.56004Z" fill="white"/>
<path d="M54.99 6.4502H53.64L53.44 7.6502L54.86 7.1802L54.99 6.4502Z" fill="white"/>
<path d="M55.21 5.91016L55.15 7.09016L56.73 6.58016L56.76 5.91016H55.21Z" fill="white"/>
</g>
<path fill-rule="evenodd" clip-rule="evenodd" d="M6.49771 79C6.98969 79 7.48602 79.213 7.49037 79.6913C7.49037 80.1043 7.24656 80.2696 6.99839 80.2696C6.75023 80.2696 6.73281 80.1435 6.73281 80.1435C6.73281 80.1435 7.02452 79.9261 7.02452 79.7174C7.02452 79.6087 6.94179 79.313 6.489 79.3174C5.8577 79.3174 5.5181 79.6174 5.5181 80.1522C5.5181 80.7652 7.35105 80.9739 7.3554 81.7652C7.3554 82.613 6.47594 82.9957 5.69225 83C5.283 83 5.01306 82.7609 5.00871 82.3783C5.00871 81.9261 5.22204 81.4652 5.75756 81.4652C5.88382 81.4565 5.98831 81.5522 5.99702 81.6783C5.99702 81.6783 5.99702 81.6826 5.99702 81.687C5.99702 81.687 5.45715 81.8391 5.4615 82.3783C5.4615 82.4783 5.56599 82.6609 5.81851 82.6565C6.07103 82.6522 6.82424 82.4739 6.81989 81.8087C6.81989 81.1913 5.00435 81.1087 5 80.1478C5 79.0652 6.08845 79.0087 6.49771 79.0087V79ZM10.747 79.6C10.8123 79.5696 11.2129 79.4913 11.1955 79.813C11.1824 80.1348 10.9386 80.6913 10.9037 80.9348C11.2303 80.7696 11.6918 80.2087 11.6918 80.2087C11.6918 80.2087 12.0183 80.2522 11.9182 80.4522C11.818 80.6522 11.1519 81.1435 11.1519 81.1435C11.1519 81.1435 11.3043 82.5696 12.1707 82.5696C12.6453 82.5696 12.8499 82.3609 12.937 82.287C12.9587 82.2696 12.9762 82.2652 12.9849 82.2783C13.0197 82.387 12.9936 82.5043 12.9152 82.5913C12.8194 82.6957 12.5974 82.8217 12.1533 82.8261C11.3653 82.8261 10.9255 82.1957 10.8123 81.2609C10.7252 81.5348 10.7339 81.9826 10.7209 82.2C10.6948 82.2435 10.2507 82.4174 10.2158 82.1174C10.2158 82.0913 10.2158 82.0696 10.2158 82.0435C10.1331 82.1609 10.0199 82.2826 9.91108 82.2826C9.71951 82.2826 9.63679 82.1217 9.60196 82.0391C9.57584 82.0696 9.3625 82.287 9.08821 82.287C8.92277 82.2913 8.77474 82.1957 8.70943 82.0435C8.57011 82.1435 8.32195 82.2913 8.03895 82.2913C7.73418 82.2913 7.66017 82.1087 7.66017 81.9565C7.66017 81.713 7.84303 80.987 7.84303 80.987C7.84303 80.987 7.48602 81.1304 7.36411 81.1348C7.19431 81.1348 7.11159 80.8217 7.11159 80.813C7.11159 80.8087 7.11159 80.8 7.1203 80.8C7.22044 80.7609 7.94317 80.513 7.94317 80.513C7.94317 80.513 8.07813 79.9826 8.09555 79.913C8.11296 79.8435 8.2131 79.7 8.33065 79.6565C8.41773 79.6217 8.50916 79.6 8.60059 79.5913C8.63107 79.5913 8.65284 79.6 8.65284 79.6174C8.65284 79.6348 8.47433 80.4087 8.47433 80.4087C8.47433 80.4087 8.84876 80.3217 8.98808 80.3217C9.09692 80.3217 9.15352 80.387 9.09257 80.4696C9.03162 80.5522 8.96196 80.6478 8.92712 80.6913C8.88794 80.7348 8.86182 80.7435 8.77039 80.7609C8.64413 80.787 8.36113 80.8565 8.36113 80.8565C8.36113 80.8565 8.13473 81.6783 8.13909 81.8174C8.13909 81.8957 8.16521 81.987 8.26099 81.987C8.35678 81.987 8.53964 81.8739 8.67025 81.7913C8.69202 81.1522 9.18835 80.7261 9.57584 80.7261C9.7021 80.7261 9.65421 80.8478 9.79788 80.8478H9.88931C9.94591 80.8478 10.0069 80.8522 10.0069 80.9957C10.0069 81.1957 9.89367 81.5261 9.89367 81.7348C9.89367 81.8826 9.91544 81.987 9.97204 81.987C10.0678 81.987 10.1767 81.8478 10.255 81.7261C10.3813 81.0304 10.734 79.7609 10.734 79.6174L10.747 79.6ZM12.5016 80.7C12.7672 80.6783 12.9326 80.8217 12.9631 80.9C12.9936 80.9783 12.9892 81.1609 12.9152 81.2913C12.6845 81.7044 12.1097 81.6304 12.1097 81.6304C12.1097 81.6304 12.0444 81.9565 12.3405 81.9565C12.593 81.9565 12.7062 81.8304 12.8151 81.7261C12.8586 81.7261 12.9936 81.8652 12.9326 81.9609C12.8847 82.0348 12.6191 82.2565 12.2795 82.2609C11.7397 82.2609 11.6047 81.8 11.6744 81.4696C11.7658 81.0609 12.1751 80.7217 12.5016 80.6957V80.7ZM9.6455 80.987C9.32332 80.987 8.82699 81.9696 9.20577 81.9652C9.61938 81.9652 9.6455 81.1826 9.6455 81.0043V80.987ZM12.6409 80.8913C12.4232 80.9 12.1751 81.3174 12.1533 81.5C12.4798 81.513 12.654 81.1957 12.6757 81.0696C12.6888 80.9739 12.6932 80.887 12.6409 80.887V80.8913Z" fill="white"/>
<path fill-rule="evenodd" clip-rule="evenodd" d="M55.9957 79.5947C56.0385 79.5947 56.077 79.6161 56.0984 79.6504L56.9027 80.8012L57.5615 80.1423C57.6 80.1038 57.6514 80.0953 57.6984 80.1167C57.7455 80.1381 57.7754 80.1808 57.7754 80.2365V81.8963C57.7754 82.0332 57.7198 82.1616 57.6257 82.2557C57.5316 82.3498 57.3989 82.4054 57.2663 82.4054H54.7209C54.584 82.4054 54.4556 82.3498 54.3615 82.2557C54.2674 82.1616 54.2118 82.029 54.2118 81.8963V80.2322C54.2118 80.1808 54.2417 80.1338 54.2888 80.1124C54.3358 80.091 54.3915 80.1038 54.4257 80.1381L55.0845 80.7969L55.8888 79.6461C55.9145 79.6119 55.953 79.5905 55.9915 79.5905L55.9957 79.5947Z" fill="#FFC200"/>
<path d="M55.9957 79.5947C56.0385 79.5947 56.077 79.6161 56.0984 79.6504L56.9027 80.8012L57.5615 80.1423C57.5872 80.1167 57.6171 80.1039 57.6513 80.1039C57.6685 80.1039 57.6856 80.1039 57.6984 80.1124C57.7455 80.1338 57.7754 80.1766 57.7754 80.2322V81.8921C57.7754 82.029 57.7198 82.1573 57.6257 82.2514C57.5316 82.3456 57.3989 82.4012 57.2663 82.4012H54.7209C54.584 82.4012 54.4556 82.3456 54.3615 82.2514C54.2674 82.1573 54.2118 82.0247 54.2118 81.8921L54.2118 80.2322C54.2118 80.1808 54.2417 80.1338 54.2888 80.1124C54.3059 80.1038 54.323 80.1039 54.3358 80.1039C54.3701 80.1039 54.4 80.1167 54.4257 80.1424L55.0845 80.8012L55.8888 79.6504C55.9144 79.6162 55.9529 79.5948 55.9914 79.5948M55.9957 79.3809C55.8845 79.3809 55.7818 79.4365 55.7176 79.5263L55.0588 80.4675L54.5797 79.9883C54.5155 79.9242 54.4299 79.89 54.3401 79.89C54.2973 79.89 54.2503 79.8985 54.2075 79.9156C54.0791 79.967 53.9979 80.091 53.9979 80.2322V81.8921C53.9979 82.0846 54.0749 82.2686 54.2118 82.4055C54.3487 82.5424 54.5283 82.6194 54.7251 82.6194H57.2749C57.4674 82.6194 57.6513 82.5424 57.7882 82.4055C57.9251 82.2686 58.0021 82.0889 58.0021 81.8921V80.2322C58.0021 80.0953 57.9209 79.9712 57.7925 79.9156C57.7497 79.8985 57.707 79.89 57.6642 79.89C57.5743 79.89 57.4888 79.9242 57.4246 79.9883L56.9455 80.4675L56.2781 79.5263C56.2139 79.4365 56.107 79.3809 56 79.3809H55.9957Z" fill="#213743"/>
<path fill-rule="evenodd" clip-rule="evenodd" d="M55.3925 81.0664C55.3284 80.9809 55.3241 80.8611 55.3882 80.7755L56 79.9242V81.8621L55.3968 81.0707L55.3925 81.0664Z" fill="#FF7F00"/>
<path fill-rule="evenodd" clip-rule="evenodd" d="M56.6032 80.7113C56.6674 80.7969 56.6717 80.9167 56.6075 81.0022L55.9957 81.8536V79.9199L56.599 80.7113H56.6032Z" fill="#FFEBB8"/>
<path d="M26.6312 70.572C25.3652 70.572 24.8132 69.654 24.8132 68.508C24.8132 67.23 25.5812 66.438 26.7932 66.438C27.2672 66.438 27.7112 66.588 28.0112 66.822L27.5612 67.614C27.3392 67.434 27.1232 67.35 26.7932 67.35C26.3072 67.35 25.8572 67.704 25.8572 68.262C25.8572 68.286 25.8572 68.298 25.8572 68.31C26.0552 68.046 26.4332 67.854 26.8412 67.854C27.5612 67.854 28.2272 68.316 28.2272 69.168C28.2272 69.99 27.5612 70.572 26.6312 70.572ZM26.5652 69.66C26.9492 69.66 27.1832 69.426 27.1832 69.204C27.1832 68.868 26.8412 68.73 26.5292 68.73C26.2772 68.73 26.0312 68.82 25.8572 69C25.8872 69.324 26.0792 69.66 26.5652 69.66ZM30.2144 70.572C29.5064 70.572 28.9724 70.356 28.6004 69.99L29.1644 69.27C29.4404 69.522 29.8184 69.66 30.2024 69.66C30.6404 69.66 30.8564 69.444 30.8564 69.198C30.8564 68.928 30.6464 68.736 30.2324 68.736C29.9144 68.736 29.6624 68.826 29.4404 69.036L28.7264 68.862V66.498H31.6304V67.398H29.7584V68.172C29.9504 67.986 30.2624 67.854 30.6164 67.854C31.2944 67.854 31.9064 68.352 31.9064 69.156C31.9064 70.02 31.2524 70.572 30.2144 70.572ZM33.9355 70.572C32.7655 70.572 32.2195 69.558 32.2195 68.502C32.2195 67.446 32.7655 66.438 33.9355 66.438C35.1055 66.438 35.6515 67.446 35.6515 68.502C35.6515 69.558 35.1055 70.572 33.9355 70.572ZM33.9355 69.66C34.4155 69.66 34.6075 69.21 34.6075 68.502C34.6075 67.794 34.4155 67.35 33.9355 67.35C33.4555 67.35 33.2635 67.794 33.2635 68.502C33.2635 69.21 33.4555 69.66 33.9355 69.66ZM38.9156 70.5H37.9016L37.3436 69.624L36.7796 70.5H35.7716L36.7616 69.012L35.8316 67.602H36.8456L37.3436 68.388L37.8356 67.602H38.8496L37.9256 69.012L38.9156 70.5Z" fill="#FFEBB8"/>
<path d="M26.6312 70.072C25.3652 70.072 24.8132 69.154 24.8132 68.008C24.8132 66.73 25.5812 65.938 26.7932 65.938C27.2672 65.938 27.7112 66.088 28.0112 66.322L27.5612 67.114C27.3392 66.934 27.1232 66.85 26.7932 66.85C26.3072 66.85 25.8572 67.204 25.8572 67.762C25.8572 67.786 25.8572 67.798 25.8572 67.81C26.0552 67.546 26.4332 67.354 26.8412 67.354C27.5612 67.354 28.2272 67.816 28.2272 68.668C28.2272 69.49 27.5612 70.072 26.6312 70.072ZM26.5652 69.16C26.9492 69.16 27.1832 68.926 27.1832 68.704C27.1832 68.368 26.8412 68.23 26.5292 68.23C26.2772 68.23 26.0312 68.32 25.8572 68.5C25.8872 68.824 26.0792 69.16 26.5652 69.16ZM30.2144 70.072C29.5064 70.072 28.9724 69.856 28.6004 69.49L29.1644 68.77C29.4404 69.022 29.8184 69.16 30.2024 69.16C30.6404 69.16 30.8564 68.944 30.8564 68.698C30.8564 68.428 30.6464 68.236 30.2324 68.236C29.9144 68.236 29.6624 68.326 29.4404 68.536L28.7264 68.362V65.998H31.6304V66.898H29.7584V67.672C29.9504 67.486 30.2624 67.354 30.6164 67.354C31.2944 67.354 31.9064 67.852 31.9064 68.656C31.9064 69.52 31.2524 70.072 30.2144 70.072ZM33.9355 70.072C32.7655 70.072 32.2195 69.058 32.2195 68.002C32.2195 66.946 32.7655 65.938 33.9355 65.938C35.1055 65.938 35.6515 66.946 35.6515 68.002C35.6515 69.058 35.1055 70.072 33.9355 70.072ZM33.9355 69.16C34.4155 69.16 34.6075 68.71 34.6075 68.002C34.6075 67.294 34.4155 66.85 33.9355 66.85C33.4555 66.85 33.2635 67.294 33.2635 68.002C33.2635 68.71 33.4555 69.16 33.9355 69.16ZM38.9156 70H37.9016L37.3436 69.124L36.7796 70H35.7716L36.7616 68.512L35.8316 67.102H36.8456L37.3436 67.888L37.8356 67.102H38.8496L37.9256 68.512L38.9156 70Z" fill="#FF5500"/>
<path d="M7.45 11.3999H5.33V8.0649H6.04V10.7749H7.45V11.3999ZM9.01348 11.4599C8.27848 11.4599 7.72348 10.9649 7.72348 10.1899C7.72348 9.4899 8.23848 8.9249 8.97348 8.9249C9.69348 8.9249 10.1835 9.4649 10.1835 10.2549V10.3949H8.38848C8.42848 10.6999 8.67348 10.9549 9.08348 10.9549C9.28848 10.9549 9.57348 10.8649 9.72848 10.7149L10.0085 11.1249C9.76848 11.3449 9.38848 11.4599 9.01348 11.4599ZM9.56848 9.9649C9.55348 9.7349 9.39348 9.4299 8.97348 9.4299C8.57848 9.4299 8.40848 9.7249 8.37848 9.9649H9.56848ZM11.6321 12.3799C11.2171 12.3799 10.8971 12.2849 10.5921 12.0199L10.8771 11.5599C11.0721 11.7749 11.3271 11.8599 11.6321 11.8599C11.9371 11.8599 12.2971 11.7249 12.2971 11.2499V11.0049C12.1071 11.2449 11.8471 11.3849 11.5521 11.3849C10.9471 11.3849 10.4871 10.9599 10.4871 10.1549C10.4871 9.3649 10.9421 8.9249 11.5521 8.9249C11.8421 8.9249 12.1021 9.0499 12.2971 9.2949V8.9849H12.9371V11.2349C12.9371 12.1549 12.2271 12.3799 11.6321 12.3799ZM11.7521 10.8199C11.9621 10.8199 12.1921 10.6999 12.2971 10.5449V9.7649C12.1921 9.6049 11.9621 9.4899 11.7521 9.4899C11.3921 9.4899 11.1421 9.7399 11.1421 10.1549C11.1421 10.5699 11.3921 10.8199 11.7521 10.8199ZM14.702 11.4599C13.967 11.4599 13.412 10.9649 13.412 10.1899C13.412 9.4899 13.927 8.9249 14.662 8.9249C15.382 8.9249 15.872 9.4649 15.872 10.2549V10.3949H14.077C14.117 10.6999 14.362 10.9549 14.772 10.9549C14.977 10.9549 15.262 10.8649 15.417 10.7149L15.697 11.1249C15.457 11.3449 15.077 11.4599 14.702 11.4599ZM15.257 9.9649C15.242 9.7349 15.082 9.4299 14.662 9.4299C14.267 9.4299 14.097 9.7249 14.067 9.9649H15.257ZM18.5956 11.3999H17.9606V9.9399C17.9606 9.6049 17.7856 9.4899 17.5156 9.4899C17.2656 9.4899 17.0706 9.6299 16.9656 9.7749V11.3999H16.3306V8.9849H16.9656V9.2999C17.1206 9.1149 17.4156 8.9249 17.8106 8.9249C18.3406 8.9249 18.5956 9.2249 18.5956 9.6949V11.3999ZM21.5261 11.3999H20.8861V11.0899C20.6961 11.3299 20.4311 11.4599 20.1411 11.4599C19.5311 11.4599 19.0711 10.9999 19.0711 10.1949C19.0711 9.4049 19.5261 8.9249 20.1411 8.9249C20.4261 8.9249 20.6961 9.0499 20.8861 9.2949V8.0649H21.5261V11.3999ZM20.3361 10.8949C20.5511 10.8949 20.7811 10.7799 20.8861 10.6199V9.7649C20.7811 9.6049 20.5511 9.4899 20.3361 9.4899C19.9761 9.4899 19.7261 9.7749 19.7261 10.1949C19.7261 10.6099 19.9761 10.8949 20.3361 10.8949ZM24.2408 11.3999H23.6058V11.1499C23.4408 11.3449 23.1558 11.4599 22.8408 11.4599C22.4558 11.4599 22.0008 11.1999 22.0008 10.6599C22.0008 10.0949 22.4558 9.8799 22.8408 9.8799C23.1608 9.8799 23.4458 9.9849 23.6058 10.1749V9.8499C23.6058 9.6049 23.3958 9.4449 23.0758 9.4449C22.8158 9.4449 22.5758 9.5399 22.3708 9.7299L22.1308 9.3049C22.4258 9.0449 22.8058 8.9249 23.1858 8.9249C23.7358 8.9249 24.2408 9.1449 24.2408 9.8399V11.3999ZM23.0958 11.0299C23.3008 11.0299 23.5008 10.9599 23.6058 10.8199V10.5199C23.5008 10.3799 23.3008 10.3099 23.0958 10.3099C22.8458 10.3099 22.6408 10.4399 22.6408 10.6749C22.6408 10.8999 22.8458 11.0299 23.0958 11.0299ZM25.5057 11.3999H24.8707V8.9849H25.5057V9.3149C25.6757 9.0999 25.9757 8.9249 26.2757 8.9249V9.5449C26.2307 9.5349 26.1707 9.5299 26.1007 9.5299C25.8907 9.5299 25.6107 9.6499 25.5057 9.8049V11.3999ZM26.5874 12.3449L26.6824 11.7749C26.7374 11.7999 26.8224 11.8149 26.8824 11.8149C27.0474 11.8149 27.1574 11.7699 27.2174 11.6399L27.3074 11.4349L26.3274 8.9849H27.0074L27.6374 10.6649L28.2674 8.9849H28.9524L27.8174 11.7949C27.6374 12.2499 27.3174 12.3699 26.9024 12.3799C26.8274 12.3799 26.6674 12.3649 26.5874 12.3449Z" fill="#FF5500"/>
<path d="M7.45 11H5.33V7.665H6.04V10.375H7.45V11ZM9.01348 11.06C8.27848 11.06 7.72348 10.565 7.72348 9.79C7.72348 9.09 8.23848 8.525 8.97348 8.525C9.69348 8.525 10.1835 9.065 10.1835 9.855V9.995H8.38848C8.42848 10.3 8.67348 10.555 9.08348 10.555C9.28848 10.555 9.57348 10.465 9.72848 10.315L10.0085 10.725C9.76848 10.945 9.38848 11.06 9.01348 11.06ZM9.56848 9.565C9.55348 9.335 9.39348 9.03 8.97348 9.03C8.57848 9.03 8.40848 9.325 8.37848 9.565H9.56848ZM11.6321 11.98C11.2171 11.98 10.8971 11.885 10.5921 11.62L10.8771 11.16C11.0721 11.375 11.3271 11.46 11.6321 11.46C11.9371 11.46 12.2971 11.325 12.2971 10.85V10.605C12.1071 10.845 11.8471 10.985 11.5521 10.985C10.9471 10.985 10.4871 10.56 10.4871 9.755C10.4871 8.965 10.9421 8.525 11.5521 8.525C11.8421 8.525 12.1021 8.65 12.2971 8.895V8.585H12.9371V10.835C12.9371 11.755 12.2271 11.98 11.6321 11.98ZM11.7521 10.42C11.9621 10.42 12.1921 10.3 12.2971 10.145V9.365C12.1921 9.205 11.9621 9.09 11.7521 9.09C11.3921 9.09 11.1421 9.34 11.1421 9.755C11.1421 10.17 11.3921 10.42 11.7521 10.42ZM14.702 11.06C13.967 11.06 13.412 10.565 13.412 9.79C13.412 9.09 13.927 8.525 14.662 8.525C15.382 8.525 15.872 9.065 15.872 9.855V9.995H14.077C14.117 10.3 14.362 10.555 14.772 10.555C14.977 10.555 15.262 10.465 15.417 10.315L15.697 10.725C15.457 10.945 15.077 11.06 14.702 11.06ZM15.257 9.565C15.242 9.335 15.082 9.03 14.662 9.03C14.267 9.03 14.097 9.325 14.067 9.565H15.257ZM18.5956 11H17.9606V9.54C17.9606 9.205 17.7856 9.09 17.5156 9.09C17.2656 9.09 17.0706 9.23 16.9656 9.375V11H16.3306V8.585H16.9656V8.9C17.1206 8.715 17.4156 8.525 17.8106 8.525C18.3406 8.525 18.5956 8.825 18.5956 9.295V11ZM21.5261 11H20.8861V10.69C20.6961 10.93 20.4311 11.06 20.1411 11.06C19.5311 11.06 19.0711 10.6 19.0711 9.795C19.0711 9.005 19.5261 8.525 20.1411 8.525C20.4261 8.525 20.6961 8.65 20.8861 8.895V7.665H21.5261V11ZM20.3361 10.495C20.5511 10.495 20.7811 10.38 20.8861 10.22V9.365C20.7811 9.205 20.5511 9.09 20.3361 9.09C19.9761 9.09 19.7261 9.375 19.7261 9.795C19.7261 10.21 19.9761 10.495 20.3361 10.495ZM24.2408 11H23.6058V10.75C23.4408 10.945 23.1558 11.06 22.8408 11.06C22.4558 11.06 22.0008 10.8 22.0008 10.26C22.0008 9.695 22.4558 9.48 22.8408 9.48C23.1608 9.48 23.4458 9.585 23.6058 9.775V9.45C23.6058 9.205 23.3958 9.045 23.0758 9.045C22.8158 9.045 22.5758 9.14 22.3708 9.33L22.1308 8.905C22.4258 8.645 22.8058 8.525 23.1858 8.525C23.7358 8.525 24.2408 8.745 24.2408 9.44V11ZM23.0958 10.63C23.3008 10.63 23.5008 10.56 23.6058 10.42V10.12C23.5008 9.98 23.3008 9.91 23.0958 9.91C22.8458 9.91 22.6408 10.04 22.6408 10.275C22.6408 10.5 22.8458 10.63 23.0958 10.63ZM25.5057 11H24.8707V8.585H25.5057V8.915C25.6757 8.7 25.9757 8.525 26.2757 8.525V9.145C26.2307 9.135 26.1707 9.13 26.1007 9.13C25.8907 9.13 25.6107 9.25 25.5057 9.405V11ZM26.5874 11.945L26.6824 11.375C26.7374 11.4 26.8224 11.415 26.8824 11.415C27.0474 11.415 27.1574 11.37 27.2174 11.24L27.3074 11.035L26.3274 8.585H27.0074L27.6374 10.265L28.2674 8.585H28.9524L27.8174 11.395C27.6374 11.85 27.3174 11.97 26.9024 11.98C26.8274 11.98 26.6674 11.965 26.5874 11.945Z" fill="white"/>
<g clip-path="url(#clip1_26835_29167)">
<path d="M34.9933 4C34.4047 4.92308 33.9231 5.40468 33 5.99331C33.9231 6.58194 34.4047 7.06355 34.9933 7.98662C35.5819 7.06355 36.0635 6.58194 36.9866 5.99331C36.0635 5.40468 35.5819 4.92308 34.9933 4Z" fill="white"/>
</g>
<defs>
<linearGradient id="paint0_linear_26835_29167" x1="31.5" y1="0" x2="31.5" y2="88" gradientUnits="userSpaceOnUse">
<stop stop-color="#FFC200"/>
<stop offset="1" stop-color="#FF7F00"/>
</linearGradient>
<linearGradient id="paint1_linear_26835_29167" x1="71.8599" y1="33.4901" x2="11.7599" y2="93.5901" gradientUnits="userSpaceOnUse">
<stop stop-color="white" stop-opacity="0"/>
<stop offset="1" stop-color="white"/>
</linearGradient>
<linearGradient id="paint2_linear_26835_29167" x1="48.2299" y1="9.85996" x2="-11.8701" y2="69.96" gradientUnits="userSpaceOnUse">
<stop stop-color="white" stop-opacity="0"/>
<stop offset="1" stop-color="white"/>
</linearGradient>
<linearGradient id="paint3_linear_26835_29167" x1="86.0699" y1="47.6998" x2="25.9699" y2="107.79" gradientUnits="userSpaceOnUse">
<stop stop-color="white" stop-opacity="0"/>
<stop offset="1" stop-color="white"/>
</linearGradient>
<linearGradient id="paint4_linear_26835_29167" x1="31.4999" y1="75" x2="31.4999" y2="62" gradientUnits="userSpaceOnUse">
<stop stop-color="#FFFEFC"/>
<stop offset="1" stop-color="#FFC200"/>
</linearGradient>
<linearGradient id="paint5_linear_26835_29167" x1="31.5" y1="84.47" x2="31.5" y2="3.96" gradientUnits="userSpaceOnUse">
<stop stop-color="#FF8913"/>
<stop offset="1" stop-color="#FFC200"/>
</linearGradient>
<linearGradient id="paint6_linear_26835_29167" x1="38.2009" y1="52.839" x2="5.87355" y2="79.1678" gradientUnits="userSpaceOnUse">
<stop stop-color="#8EA3B2"/>
<stop offset="1" stop-color="#557086"/>
</linearGradient>
<linearGradient id="paint7_linear_26835_29167" x1="13.1648" y1="43.4" x2="40.1748" y2="27.21" gradientUnits="userSpaceOnUse">
<stop stop-color="#FF8913"/>
<stop offset="1" stop-color="#FFC200"/>
</linearGradient>
<linearGradient id="paint8_linear_26835_29167" x1="20.4252" y1="16.9801" x2="32.4179" y2="53.925" gradientUnits="userSpaceOnUse">
<stop stop-color="white" stop-opacity="0"/>
<stop offset="0.13" stop-color="white" stop-opacity="0.02"/>
<stop offset="0.25" stop-color="white" stop-opacity="0.06"/>
<stop offset="0.38" stop-color="white" stop-opacity="0.14"/>
<stop offset="0.5" stop-color="white" stop-opacity="0.25"/>
<stop offset="0.63" stop-color="white" stop-opacity="0.39"/>
<stop offset="0.75" stop-color="white" stop-opacity="0.57"/>
<stop offset="0.88" stop-color="white" stop-opacity="0.77"/>
<stop offset="1" stop-color="white"/>
</linearGradient>
<clipPath id="clip0_26835_29167">
<rect width="63" height="88" fill="white"/>
</clipPath>
<clipPath id="clip1_26835_29167">
<rect width="4" height="4" fill="white" transform="translate(33 4)"/>
</clipPath>
</defs>
</svg>
