<svg width="63" height="88" viewBox="0 0 63 88" fill="none" xmlns="http://www.w3.org/2000/svg">
<rect width="63" height="88" rx="4" fill="url(#paint0_linear_26835_29169)"/>
<g clip-path="url(#clip0_26835_29169)">
<g clip-path="url(#clip1_26835_29169)">
<path d="M56.54 0.560059H6.46C3.11316 0.560059 0.400002 3.27321 0.400002 6.62006V81.3801C0.400002 84.7269 3.11316 87.4401 6.46 87.4401H56.54C59.8868 87.4401 62.6 84.7269 62.6 81.3801V6.62006C62.6 3.27321 59.8868 0.560059 56.54 0.560059Z" fill="#FF7F00"/>
<g opacity="0.2">
<mask id="mask0_26835_29169" style="mask-type:luminance" maskUnits="userSpaceOnUse" x="0" y="0" width="63" height="88">
<path d="M56.54 0.560059H6.46C3.11316 0.560059 0.400002 3.27321 0.400002 6.62006V81.3801C0.400002 84.7269 3.11316 87.4401 6.46 87.4401H56.54C59.8868 87.4401 62.6 84.7269 62.6 81.3801V6.62006C62.6 3.27321 59.8868 0.560059 56.54 0.560059Z" fill="white"/>
</mask>
<g mask="url(#mask0_26835_29169)">
<path d="M68.37 47.3101V26.6401L4.46 90.5501H25.13L68.37 47.3101Z" fill="url(#paint1_linear_26835_29169)"/>
<path d="M64.66 -2.29004H55.22L-2.92 55.84V66.18L65.46 -2.20004C65.2 -2.26004 64.93 -2.29004 64.66 -2.29004Z" fill="url(#paint2_linear_26835_29169)"/>
<path d="M68.37 69.2298V61.5498L39.37 90.5498H47.05L68.37 69.2298Z" fill="url(#paint3_linear_26835_29169)"/>
</g>
</g>
<path d="M1.31 41.8501V46.4001C1.31 46.4001 3.56 47.5701 4.63 47.8101C5.7 48.0501 7.13 48.3501 7.66 49.2501C8.19 50.1501 9.02 53.1101 9.12 53.4501C9.22 53.7901 9.31 55.3301 11.1 55.6501C12.89 55.9701 15.33 56.2801 17.2 56.0601L14.5 45.5101C14.5 45.5101 12.24 45.0301 10.34 45.0301C8.44 45.0301 8.23 47.0101 6.84 45.6101C5.45 44.2101 1.31 41.8501 1.31 41.8501Z" fill="url(#paint4_linear_26835_29169)"/>
<path d="M13.1 47.3301C13.1 47.3301 11.48 52.2001 13.34 54.7901C15.2 57.3801 21.01 55.4001 21.01 55.4001L13.1 47.3301Z" fill="#557086"/>
<path d="M1.76 46.7998C1.76 46.7998 3.5 47.7198 4.76 47.9798C6.02 48.2398 7.61 48.7498 8.18 50.4798C8.18 50.4798 8.06 48.8598 6.72 48.2798C5.38 47.6998 3.61 47.4998 1.76 46.3398V46.8098V46.7998Z" fill="white"/>
<path d="M9.78 46.83C10.03 46.44 10.26 46.59 10.32 46.9C10.5 47.96 10.68 49.63 10.78 51.47C10.91 53.89 10.08 53.39 9.1 49.92C8.69 48.45 9.32 47.56 9.79 46.83H9.78Z" fill="#557086"/>
<path d="M16.13 56.1299V55.8699C13.9 55.7899 11.81 55.6099 11.45 55.2499C11.35 55.1499 11.36 54.9599 11.34 54.7699C11.28 53.9899 10.5 46.4499 11.18 45.0499C11.18 45.0499 9.88 44.8899 9.48 45.1799C9.48 45.1799 9.94 45.5399 10.12 47.3299C10.3 49.1199 11.38 55.6299 9.48 54.5399C9.48 54.5399 9.83 55.2499 10.47 55.4799C11.11 55.7099 11.93 55.7899 11.93 55.7899C13.89 56.1499 16.14 56.1399 16.14 56.1399L16.13 56.1299Z" fill="white"/>
<path d="M2.44 43.7401C2.04 43.5101 1.66 43.3001 1.28 43.1001L1.02 45.0101C1.17 45.1001 1.3 45.1901 1.45 45.2701C4.01 46.7601 6.31 47.6301 6.58 47.2101C6.85 46.7901 4.99 45.2301 2.43 43.7401H2.44Z" fill="#557086"/>
<path d="M59 0H4C1.79 0 0 1.79 0 4V84C0 86.21 1.79 88 4 88H59C61.21 88 63 86.21 63 84V4C63 1.79 61.21 0 59 0ZM61 82.81C61 84.57 59.57 86 57.81 86H5.19C3.43 86 2 84.57 2 82.81V18.19C2 16.43 3.43 15 5.19 15H33.59C34.8 15 35.94 14.45 36.7 13.51L44.8 3.48C45.56 2.54 46.7 1.99 47.91 1.99H57.81C59.57 1.99 61 3.42 61 5.18V82.8V82.81Z" fill="url(#paint5_linear_26835_29169)"/>
<mask id="mask1_26835_29169" style="mask-type:luminance" maskUnits="userSpaceOnUse" x="0" y="0" width="63" height="88">
<path d="M59 0H4C1.79 0 0 1.79 0 4V84C0 86.21 1.79 88 4 88H59C61.21 88 63 86.21 63 84V4C63 1.79 61.21 0 59 0ZM61 82.81C61 84.57 59.57 86 57.81 86H5.19C3.43 86 2 84.57 2 82.81V18.19C2 16.43 3.43 15 5.19 15H33.59C34.8 15 35.94 14.45 36.7 13.51L44.8 3.48C45.56 2.54 46.7 1.99 47.91 1.99H57.81C59.57 1.99 61 3.42 61 5.18V82.8V82.81Z" fill="white"/>
</mask>
<g mask="url(#mask1_26835_29169)">
<path d="M68.37 47.3101V26.6401L4.46 90.5501H25.13L68.37 47.3101Z" fill="white"/>
<path d="M64.66 -2.29004H55.22L-2.92 55.84V66.18L65.46 -2.20004C65.2 -2.26004 64.93 -2.29004 64.66 -2.29004Z" fill="white"/>
<path d="M68.37 69.2298V61.5498L39.37 90.5498H47.05L68.37 69.2298Z" fill="white"/>
</g>
<path d="M18.47 62H44.52C48.42 62 51.58 65.36 51.58 69.49C51.58 73.63 48.42 76.98 44.52 76.98H18.47C14.57 76.98 11.41 73.62 11.41 69.49C11.41 65.35 14.57 62 18.47 62Z" fill="#FF5500"/>
<path d="M30.21 76.9901H34.87L37.02 74.8701H32.36L30.21 76.9901Z" fill="#FFC200"/>
<path d="M19.5 62H43.5C47.09 62 50 64.91 50 68.5C50 72.09 47.09 75 43.5 75H19.5C15.91 75 13 72.09 13 68.5C13 64.91 15.91 62 19.5 62Z" fill="#FFC200"/>
<path d="M43.5 62.5C46.81 62.5 49.5 65.19 49.5 68.5C49.5 71.81 46.81 74.5 43.5 74.5H19.5C16.19 74.5 13.5 71.81 13.5 68.5C13.5 65.19 16.19 62.5 19.5 62.5H43.5ZM43.5 62H19.5C15.91 62 13 64.91 13 68.5C13 72.09 15.91 75 19.5 75H43.5C47.09 75 50 72.09 50 68.5C50 64.91 47.09 62 43.5 62Z" fill="url(#paint6_linear_26835_29169)"/>
<path d="M24.09 62C24.09 62 25.35 63.5 29.94 64.06C34.53 64.62 41.66 62 41.66 62H24.1H24.09Z" fill="#FF5500"/>
<path d="M49.6064 68.2235C50.1926 67.8484 50.0042 66.5073 49.1857 65.2279C48.3672 63.9486 47.2285 63.2155 46.6423 63.5905C46.0562 63.9655 46.2445 65.3067 47.063 66.586C47.8815 67.8654 49.0202 68.5985 49.6064 68.2235Z" fill="white"/>
<path d="M34.59 50.1398C24.35 51.7898 15.45 51.1298 12.23 44.8198L13.71 50.1698C16.72 56.6798 25.94 60.4698 36 58.8398C46.06 57.2098 53.62 50.7198 54.43 43.5898L54.15 38.0498C53.08 45.0598 44.84 48.4798 34.6 50.1398H34.59Z" fill="#FFC200"/>
<path d="M35.06 53.0702C45.3 51.4202 53.06 45.0602 54.14 38.0502L53.38 23.2202L8.28 30.5002L12.23 44.8102C15.45 51.1202 24.82 54.7202 35.06 53.0602V53.0702Z" fill="#FFEBB8"/>
<path d="M50.23 35.6798C50.23 35.6798 50.67 35.7398 50.76 36.9698C50.85 38.1998 50.73 42.0798 52.2 40.6998L52.1 37.9198L51.07 35.0598L50.59 35.0098L50.24 35.6698L50.23 35.6798Z" fill="#FF5500"/>
<path d="M19.77 44.6602C19.77 44.6602 23.88 44.6002 24.62 46.6002C25.7 49.5002 28.94 51.7202 32.01 48.4302L27.06 43.4702L21.04 43.7102L19.76 44.6502L19.77 44.6602Z" fill="#FF5500"/>
<path d="M36 58.8401C25.94 60.4701 16.72 56.6801 13.71 50.1701L13.99 51.1901C15.29 59.2201 25.4 64.2601 36.58 62.4601C47.76 60.6501 55.77 52.6801 54.48 44.6601L54.43 43.6001C53.63 50.7301 46.07 57.2201 36 58.8501V58.8401Z" fill="#FFEBB8"/>
<path d="M8.28 30.5101C8.28 30.5101 9.73 40.0701 14.48 44.0901C19.23 48.1101 22.91 41.4001 27.1 47.3801C31.35 53.4501 35.58 42.5101 38.6 43.8701C49.94 48.9901 50.08 33.3701 50.9 35.8501C51.72 38.3301 51.28 41.3501 52.6 40.8501C53.92 40.3501 53.27 37.7001 52.09 35.5801C50.91 33.4601 52.3 32.9401 52.74 34.1101C53.18 35.2801 54.29 35.3501 54.66 33.6901C55.03 32.0301 53.89 25.0701 53.22 22.3901L8.28 30.5101Z" fill="#FFC200"/>
<path d="M33.1724 41.3956C45.6253 39.3853 54.6702 31.2495 53.3746 23.2238C52.079 15.1981 40.9336 10.3215 28.4807 12.3318C16.0277 14.342 6.98284 22.4778 8.27841 30.5036C9.57398 38.5293 20.7194 43.4058 33.1724 41.3956Z" fill="#FFC200"/>
<path d="M16.42 41.25C17.68 43.02 17.59 43.53 17.05 43.92C16.51 44.31 15.04 43.19 13.78 41.43C12.52 39.67 11.94 37.91 12.48 37.52C13.02 37.13 15.16 39.48 16.42 41.25Z" fill="white"/>
<path d="M48.66 18.5598C50.25 20.4698 50.44 21.9898 49.71 22.5998C48.98 23.2098 47.6 22.6698 46.01 20.7598C44.42 18.8498 43.73 16.8098 44.45 16.1998C45.17 15.5898 47.06 16.6498 48.65 18.5598H48.66Z" fill="white"/>
<path d="M39.26 17.5701C38.2 14.5301 33.69 12.7701 28.68 13.5701C23.67 14.3701 19.95 17.4701 19.9 20.6901C17.74 22.6601 16.6 25.0701 16.99 27.4601C17.77 32.3001 24.48 35.2301 31.99 34.0201C39.49 32.8101 44.94 27.9101 44.16 23.0701C43.77 20.6801 41.93 18.7501 39.27 17.5601L39.26 17.5701Z" fill="#FF5500"/>
<path d="M23.39 20.4298L20.42 21.1998C20.42 21.1998 22.42 24.0398 26.11 24.3198C28.78 24.5298 32.79 23.3198 35.38 19.0298L23.39 20.4298Z" fill="#1A2C38"/>
<path d="M20.57 19.1398C23 23.1198 28.2 24.3798 32.18 21.9498C36.16 19.5198 37.42 14.3198 34.99 10.3398L20.56 19.1398H20.57Z" fill="#FFEBB8"/>
<path d="M29.17 14.77C29.23 15.38 33.83 15.92 34.41 15.86C35.51 15.73 35.22 11.24 33.66 11.93C32.1 12.62 29.13 14.26 29.18 14.78L29.17 14.77Z" fill="#FF7F00"/>
<path d="M32.86 19.1601C33.51 19.3801 35.18 17.1101 33.73 16.5401C32.15 15.9201 29.08 15.1501 28.9 15.6001C28.74 16.0201 31.53 18.7101 32.86 19.1601Z" fill="#FF7F00"/>
<path d="M28.3 16.2999C27.89 16.4699 29.22 21.2399 29.41 21.5599C29.8 22.1999 33.15 20.4599 32.22 19.5199C31.08 18.3799 28.8 16.0999 28.3 16.2999Z" fill="#FF7F00"/>
<path d="M27.53 16.3399C27.17 16.3199 24.79 20.9199 25.4 21.3899C26.01 21.8599 28.77 22.5399 28.61 21.1799C28.46 19.8199 27.98 16.3699 27.53 16.3399Z" fill="#FF7F00"/>
<path d="M26.97 16.11C27.4 16.36 24.73 20.5 24.46 20.75C24.19 21 23.53 20.52 23.39 20.43C23.24 20.34 21.62 19.01 22.55 18.45C23.48 17.89 26.55 15.87 26.97 16.12V16.11Z" fill="#FF7F00"/>
<path d="M34.98 10.3498C37.21 14.2898 35.92 19.3298 32.03 21.6998C28.14 24.0698 23.07 22.9098 20.59 19.1298L20.13 19.4098C22.76 23.4498 28.17 24.6898 32.31 22.1598C36.45 19.6298 37.82 14.2598 35.44 10.0698L34.98 10.3498Z" fill="#FFC200"/>
<path d="M20.05 23.46C20.05 23.46 22.62 29.64 32.95 27.02C32.95 27.02 27.28 30.76 22.44 28.34C18.85 26.54 20.05 23.46 20.05 23.46Z" fill="#FFEBB8"/>
<path d="M23.07 36.9898L19.08 33.3198C18.63 32.8998 18.85 32.1498 19.45 32.0398L27.49 30.6398L36.99 28.0098L35.3 35.0998L30.4 34.2898L23.06 36.9898H23.07Z" fill="#1A2C38"/>
<path d="M35.3 35.0999L32.67 24.5399C32.55 24.0699 32.79 23.5899 33.22 23.3799L40.55 19.9999C40.94 19.8199 41.4 20.0399 41.5 20.4499L44.12 30.6899L35.29 35.0999H35.3Z" fill="white"/>
<path d="M35.72 26.4L35.64 25.11L36.31 26.14L35.72 26.4ZM35.87 23.79L34.72 24.29L34.77 28.37L35.8 27.92L35.77 27.45L36.85 26.98L37.09 27.35L38.12 26.9L35.85 23.79" fill="#1A2C38"/>
<path d="M38.48 28.29L38.46 28.35L37.68 30.42L37.57 30.71C37.35 31.3 37.57 32 38.08 32.27C38.33 32.41 38.6 32.41 38.84 32.31C39.08 32.21 39.28 32 39.39 31.7L39.5 31.41L39.7 31.52C39.95 31.66 40.22 31.66 40.46 31.56C40.7 31.46 40.9 31.25 41.01 30.95C41.23 30.36 41.01 29.66 40.5 29.39L38.49 28.29" fill="#1A2C38"/>
<path d="M39.59 31.73L39.16 32.88L40.57 32.27L39.59 31.73Z" fill="#1A2C38"/>
<path d="M23.07 36.9901L33.76 37.1701L33.85 25.5301C33.85 25.0301 33.44 24.6201 32.94 24.6301L23.92 24.8001C23.48 24.8001 23.12 25.1701 23.12 25.6101L23.07 36.9801V36.9901Z" fill="#FFEBB8"/>
<path d="M27.82 26.3701L26.43 26.4201L25.46 27.8801L25.44 26.4501L24.29 26.4901L24.34 30.2901L25.49 30.2501L25.47 29.2001L25.68 28.9101L26.54 30.2201L27.94 30.1701L26.42 28.1901L27.82 26.3701Z" fill="#FF5500"/>
<path d="M30.39 33.6598C30.15 33.4098 29.83 33.2798 29.5 33.2798C29.17 33.2798 28.84 33.4098 28.58 33.6698L28.32 33.9298L28.12 33.7198C27.88 33.4698 27.56 33.3398 27.23 33.3398C26.9 33.3398 26.57 33.4698 26.31 33.7298C25.79 34.2498 25.76 35.0798 26.24 35.5898L27.63 37.0598L28.75 37.0798L30.06 35.7698L30.32 35.5098C30.84 34.9898 30.87 34.1598 30.39 33.6498V33.6598Z" fill="#FF5500"/>
<path d="M53.18 27.3101C53.18 27.3101 53.15 29.5801 51.31 32.5201C49.47 35.4601 45.68 38.1101 41.64 38.9001C41.64 38.9001 49.72 36.5101 53.18 27.3101Z" fill="white"/>
<path d="M53.98 34.8799L53.78 50.6199C53.78 50.6199 54.94 47.8499 54.64 44.9399C54.34 42.0299 53.98 34.8799 53.98 34.8799Z" fill="white"/>
<path d="M56.31 55.29C55.67 56.29 55.15 56.81 54.15 57.45C55.15 58.09 55.67 58.61 56.31 59.61C56.95 58.61 57.47 58.09 58.47 57.45C57.47 56.81 56.95 56.29 56.31 55.29Z" fill="white"/>
<path d="M5.33 29.7202C4.73 30.6502 4.25 31.1302 3.32 31.7302C4.25 32.3302 4.73 32.8102 5.33 33.7402C5.93 32.8102 6.41 32.3302 7.34 31.7302C6.41 31.1302 5.93 30.6502 5.33 29.7202Z" fill="white"/>
</g>
<path d="M49.21 8.3298L49.08 10.7798L48.13 10.8698L47.62 9.5598L47.54 10.8998H46.73L46.8 8.3398L47.7 8.2998L48.33 9.5998L48.36 8.3698L49.21 8.3398V8.3298Z" fill="#FF5500"/>
<path d="M51.56 9.54012C51.56 9.65012 51.55 9.76012 51.52 9.86012C51.49 9.96012 51.46 10.0601 51.41 10.1501C51.36 10.2401 51.3 10.3201 51.24 10.3901C51.17 10.4601 51.1 10.5301 51.01 10.5801C50.92 10.6301 50.83 10.6701 50.73 10.7001C50.63 10.7301 50.52 10.7401 50.41 10.7401C50.3 10.7401 50.2 10.7301 50.1 10.7001C50 10.6701 49.91 10.6301 49.82 10.5801C49.73 10.5301 49.66 10.4701 49.59 10.4001C49.52 10.3301 49.46 10.2501 49.41 10.1701C49.36 10.0801 49.32 9.99012 49.3 9.89012C49.27 9.79012 49.26 9.69012 49.26 9.58012C49.26 9.47012 49.27 9.37012 49.3 9.27012C49.33 9.17012 49.36 9.07012 49.41 8.99012C49.46 8.91012 49.52 8.82012 49.58 8.74012C49.64 8.66012 49.72 8.60012 49.81 8.55012C49.89 8.50012 49.98 8.45012 50.08 8.42012C50.18 8.39012 50.28 8.37012 50.39 8.37012C50.56 8.37012 50.72 8.40012 50.87 8.45012C51.01 8.50012 51.14 8.58012 51.24 8.68012C51.34 8.78012 51.42 8.90012 51.48 9.04012C51.54 9.18012 51.56 9.34012 51.56 9.52012V9.54012ZM50.76 9.59012C50.76 9.54012 50.76 9.49012 50.74 9.44012C50.73 9.39012 50.7 9.35012 50.67 9.31012C50.64 9.27012 50.61 9.24012 50.56 9.22012C50.51 9.20012 50.47 9.18012 50.41 9.18012C50.35 9.18012 50.3 9.18012 50.26 9.21012C50.22 9.23012 50.18 9.26012 50.15 9.29012C50.12 9.32012 50.09 9.37012 50.08 9.41012C50.06 9.46012 50.05 9.51012 50.05 9.56012C50.05 9.61012 50.05 9.66012 50.07 9.71012C50.08 9.76012 50.11 9.81012 50.13 9.85012C50.16 9.89012 50.19 9.92012 50.24 9.95012C50.28 9.98012 50.33 9.99012 50.39 9.99012C50.45 9.99012 50.5 9.98012 50.54 9.96012C50.58 9.94012 50.62 9.91012 50.65 9.87012C50.68 9.83012 50.71 9.79012 50.72 9.74012C50.74 9.69012 50.75 9.64012 50.75 9.59012H50.76Z" fill="#FF5500"/>
<path d="M52.31 10.5499C52.31 10.5999 52.3 10.6499 52.28 10.6999C52.26 10.7499 52.23 10.7899 52.2 10.8199C52.17 10.8499 52.13 10.8799 52.08 10.8999C52.03 10.9199 51.99 10.9299 51.93 10.9299C51.87 10.9299 51.83 10.9299 51.78 10.8999C51.73 10.8799 51.69 10.8499 51.66 10.8199C51.63 10.7899 51.6 10.7499 51.58 10.6999C51.56 10.6499 51.55 10.5999 51.55 10.5499C51.55 10.4999 51.55 10.4499 51.58 10.3999C51.6 10.3499 51.63 10.3099 51.66 10.2799C51.69 10.2499 51.73 10.2199 51.78 10.1999C51.83 10.1799 51.88 10.1699 51.93 10.1699C51.98 10.1699 52.03 10.1699 52.08 10.1999C52.13 10.2199 52.17 10.2499 52.2 10.2799C52.23 10.3099 52.26 10.3599 52.28 10.3999C52.3 10.4499 52.31 10.4999 52.31 10.5499Z" fill="#FF5500"/>
<path d="M49.1 7.86984L48.97 10.3198L48.02 10.4098L47.51 9.09984L47.43 10.4398H46.62L46.69 7.87984L47.59 7.83984L48.22 9.13984L48.25 7.90984L49.1 7.87984V7.86984Z" fill="white"/>
<path d="M51.46 9.08016C51.46 9.19016 51.45 9.30016 51.42 9.40016C51.39 9.50016 51.36 9.60016 51.31 9.69016C51.26 9.78016 51.2 9.86016 51.14 9.93016C51.07 10.0002 51 10.0702 50.91 10.1202C50.82 10.1702 50.73 10.2102 50.63 10.2402C50.53 10.2702 50.42 10.2802 50.31 10.2802C50.2 10.2802 50.1 10.2702 50 10.2402C49.9 10.2102 49.81 10.1702 49.72 10.1202C49.63 10.0702 49.56 10.0102 49.49 9.94016C49.42 9.87016 49.36 9.79016 49.31 9.71016C49.26 9.62016 49.22 9.53016 49.2 9.43016C49.17 9.33016 49.16 9.23016 49.16 9.12016C49.16 9.01016 49.17 8.91016 49.2 8.81016C49.23 8.71016 49.26 8.61016 49.31 8.53016C49.36 8.45016 49.42 8.36016 49.48 8.28016C49.54 8.20016 49.62 8.14016 49.71 8.09016C49.79 8.04016 49.88 7.99016 49.98 7.96016C50.08 7.93016 50.18 7.91016 50.29 7.91016C50.46 7.91016 50.62 7.94016 50.77 7.99016C50.91 8.04016 51.04 8.12016 51.14 8.22016C51.24 8.32016 51.32 8.44016 51.38 8.58016C51.44 8.72016 51.46 8.88016 51.46 9.06016V9.08016ZM50.66 9.12016C50.66 9.07016 50.66 9.02016 50.64 8.97016C50.63 8.92016 50.6 8.88016 50.57 8.84016C50.54 8.80016 50.51 8.77016 50.46 8.75016C50.41 8.73016 50.37 8.71016 50.31 8.71016C50.25 8.71016 50.2 8.71016 50.16 8.74016C50.12 8.76016 50.08 8.79016 50.05 8.82016C50.02 8.85016 49.99 8.90016 49.98 8.94016C49.96 8.99016 49.95 9.04016 49.95 9.09016C49.95 9.14016 49.95 9.19016 49.97 9.24016C49.98 9.29016 50.01 9.34016 50.03 9.38016C50.06 9.42016 50.09 9.45016 50.14 9.48016C50.18 9.51016 50.23 9.52016 50.29 9.52016C50.35 9.52016 50.4 9.51016 50.44 9.49016C50.48 9.47016 50.52 9.44016 50.55 9.40016C50.58 9.36016 50.61 9.32016 50.62 9.27016C50.64 9.22016 50.65 9.17016 50.65 9.12016H50.66Z" fill="white"/>
<path d="M52.21 10.09C52.21 10.14 52.2 10.19 52.18 10.24C52.16 10.29 52.13 10.33 52.1 10.36C52.07 10.39 52.03 10.42 51.98 10.44C51.93 10.46 51.89 10.47 51.83 10.47C51.77 10.47 51.73 10.47 51.68 10.44C51.63 10.42 51.59 10.39 51.56 10.36C51.53 10.33 51.5 10.29 51.48 10.24C51.46 10.19 51.45 10.14 51.45 10.09C51.45 10.04 51.45 9.98996 51.48 9.93996C51.5 9.88996 51.53 9.84996 51.56 9.81996C51.59 9.78996 51.63 9.75996 51.68 9.73996C51.73 9.71996 51.78 9.70996 51.83 9.70996C51.88 9.70996 51.93 9.70996 51.98 9.73996C52.03 9.75996 52.07 9.78996 52.1 9.81996C52.13 9.84996 52.16 9.89996 52.18 9.93996C52.2 9.98996 52.21 10.04 52.21 10.09Z" fill="white"/>
<path d="M57.06 9.9401C57.06 10.2401 57.01 10.5201 56.9 10.7701C56.79 11.0201 56.65 11.2301 56.46 11.4001C56.27 11.5801 56.05 11.7101 55.79 11.8101C55.53 11.9101 55.25 11.9601 54.95 11.9601C54.7 11.9601 54.48 11.9301 54.28 11.8601C54.08 11.7901 53.91 11.7001 53.75 11.5801C53.6 11.4601 53.46 11.3201 53.35 11.1601C53.24 11.0001 53.15 10.8201 53.07 10.6301C53 10.4401 52.94 10.2401 52.91 10.0201C52.88 9.8101 52.86 9.5901 52.86 9.3701C52.86 9.1001 52.88 8.8401 52.92 8.5901C52.96 8.3401 53.02 8.1001 53.1 7.8701C53.18 7.6501 53.29 7.4401 53.42 7.2501C53.55 7.0601 53.71 6.9001 53.89 6.7701C54.07 6.6401 54.28 6.5301 54.51 6.4601C54.74 6.3801 55.01 6.3501 55.3 6.3501C55.41 6.3501 55.52 6.3501 55.63 6.3601C55.74 6.3601 55.85 6.3801 55.97 6.4101C56.08 6.4301 56.19 6.4601 56.3 6.5001C56.41 6.5401 56.5 6.5801 56.6 6.6401L56.49 8.1101C56.31 8.0201 56.12 7.9601 55.92 7.9101C55.71 7.8601 55.52 7.8401 55.32 7.8401C55.17 7.8401 55.03 7.8601 54.92 7.9101C54.81 7.9601 54.71 8.0201 54.64 8.1101C54.56 8.1901 54.5 8.3001 54.46 8.4101C54.42 8.5201 54.39 8.6601 54.38 8.8001C54.54 8.7101 54.72 8.6301 54.91 8.5801C55.1 8.5301 55.29 8.5001 55.48 8.5001C55.7 8.5001 55.91 8.5301 56.1 8.6001C56.29 8.6701 56.46 8.7601 56.6 8.8901C56.74 9.0201 56.86 9.1701 56.94 9.3501C57.02 9.5301 57.06 9.7401 57.06 9.9601V9.9401ZM55.64 10.0501C55.64 9.9701 55.62 9.9001 55.59 9.8401C55.56 9.7801 55.51 9.7301 55.46 9.6801C55.41 9.6401 55.35 9.6001 55.28 9.5801C55.21 9.5601 55.14 9.5401 55.07 9.5401C55 9.5401 54.93 9.5501 54.87 9.5801C54.8 9.6001 54.74 9.6401 54.69 9.6801C54.64 9.7201 54.59 9.7801 54.56 9.8401C54.53 9.9001 54.51 9.9701 54.51 10.0501C54.51 10.1301 54.53 10.1901 54.56 10.2501C54.59 10.3101 54.64 10.3601 54.69 10.4001C54.74 10.4401 54.8 10.4801 54.87 10.5001C54.94 10.5201 55 10.5401 55.07 10.5401C55.14 10.5401 55.21 10.5301 55.28 10.5001C55.35 10.4801 55.41 10.4401 55.46 10.4001C55.51 10.3601 55.56 10.3101 55.59 10.2501C55.62 10.1901 55.64 10.1201 55.64 10.0501Z" fill="#FF5500"/>
<path d="M57.06 9.46012C57.06 9.76012 57.01 10.0401 56.9 10.2901C56.79 10.5401 56.65 10.7501 56.46 10.9201C56.27 11.1001 56.05 11.2301 55.79 11.3301C55.53 11.4301 55.25 11.4801 54.95 11.4801C54.7 11.4801 54.48 11.4501 54.28 11.3801C54.08 11.3101 53.91 11.2201 53.75 11.1001C53.6 10.9801 53.46 10.8401 53.35 10.6801C53.24 10.5201 53.15 10.3401 53.07 10.1501C53 9.96012 52.94 9.76012 52.91 9.54012C52.88 9.33012 52.86 9.11012 52.86 8.89012C52.86 8.62012 52.88 8.36012 52.92 8.11012C52.96 7.86012 53.02 7.62012 53.1 7.39012C53.18 7.17012 53.29 6.96012 53.42 6.77012C53.55 6.58012 53.71 6.42012 53.89 6.29012C54.07 6.16012 54.28 6.05012 54.51 5.98012C54.74 5.90012 55.01 5.87012 55.3 5.87012C55.41 5.87012 55.52 5.87012 55.63 5.88012C55.74 5.88012 55.85 5.90012 55.97 5.93012C56.08 5.95012 56.19 5.98012 56.3 6.02012C56.41 6.06012 56.5 6.10012 56.6 6.16012L56.49 7.63012C56.31 7.54012 56.12 7.48012 55.92 7.43012C55.71 7.38012 55.52 7.36012 55.32 7.36012C55.17 7.36012 55.03 7.38012 54.92 7.43012C54.81 7.48012 54.71 7.54012 54.64 7.63012C54.56 7.71012 54.5 7.82012 54.46 7.93012C54.42 8.04012 54.39 8.18012 54.38 8.32012C54.54 8.23012 54.72 8.15012 54.91 8.10012C55.1 8.05012 55.29 8.02012 55.48 8.02012C55.7 8.02012 55.91 8.05012 56.1 8.12012C56.29 8.19012 56.46 8.28012 56.6 8.41012C56.74 8.54012 56.86 8.69012 56.94 8.87012C57.02 9.05012 57.06 9.26012 57.06 9.48012V9.46012ZM55.64 9.57012C55.64 9.49012 55.62 9.42012 55.59 9.36012C55.56 9.30012 55.51 9.25012 55.46 9.20012C55.41 9.16012 55.35 9.12012 55.28 9.10012C55.21 9.08012 55.14 9.06012 55.07 9.06012C55 9.06012 54.93 9.07012 54.87 9.10012C54.8 9.12012 54.74 9.16012 54.69 9.20012C54.64 9.24012 54.59 9.30012 54.56 9.36012C54.53 9.42012 54.51 9.49012 54.51 9.57012C54.51 9.65012 54.53 9.71012 54.56 9.77012C54.59 9.83012 54.64 9.88012 54.69 9.92012C54.74 9.96012 54.8 10.0001 54.87 10.0201C54.94 10.0401 55 10.0601 55.07 10.0601C55.14 10.0601 55.21 10.0501 55.28 10.0201C55.35 10.0001 55.41 9.96012 55.46 9.92012C55.51 9.88012 55.56 9.83012 55.59 9.77012C55.62 9.71012 55.64 9.64012 55.64 9.57012Z" fill="#FFEBB8"/>
<path d="M55.4 9.97004C55.4 9.97004 55.32 10.01 55.27 10.03C55.2 10.05 55.13 10.07 55.06 10.07C54.99 10.07 54.92 10.06 54.86 10.03C54.79 10.01 54.73 9.97004 54.68 9.93004C54.63 9.89004 54.58 9.84004 54.55 9.78004C54.55 9.77004 54.54 9.75004 54.53 9.74004L52.89 9.29004C52.89 9.37004 52.89 9.45004 52.91 9.53004C52.94 9.74004 53 9.95004 53.07 10.14C53.14 10.33 53.24 10.51 53.35 10.67C53.46 10.83 53.6 10.97 53.75 11.09C53.91 11.21 54.08 11.3 54.28 11.37C54.48 11.44 54.7 11.47 54.95 11.47C55.25 11.47 55.53 11.42 55.79 11.32C56.05 11.22 56.27 11.09 56.46 10.91C56.63 10.76 56.75 10.57 56.86 10.36L55.41 9.96004L55.4 9.97004Z" fill="#FFC200"/>
<path d="M55.64 9.49014C55.64 9.49014 55.64 9.54014 55.64 9.57014C55.64 9.64014 55.62 9.71014 55.59 9.77014C55.56 9.83014 55.51 9.88014 55.46 9.92014C55.41 9.96014 55.35 10.0001 55.28 10.0201C55.21 10.0401 55.14 10.0601 55.07 10.0601C55 10.0601 54.93 10.0501 54.87 10.0201C54.8 10.0001 54.74 9.96014 54.69 9.92014C54.64 9.88014 54.59 9.83014 54.56 9.77014C54.53 9.71014 54.51 9.64014 54.51 9.57014C54.51 9.50014 54.53 9.42014 54.56 9.36014C54.58 9.32014 54.6 9.30014 54.63 9.27014L52.88 8.89014C52.88 9.10014 52.9 9.31014 52.93 9.52014C52.94 9.58014 52.96 9.64014 52.98 9.70014L56.69 10.6601C56.78 10.5401 56.85 10.4201 56.91 10.2801C56.98 10.1301 57.01 9.96014 57.04 9.79014L55.65 9.49014H55.64Z" fill="white"/>
<path d="M56.31 5.98984C56.2 5.94984 56.1 5.91984 55.98 5.89984C55.87 5.87984 55.76 5.85984 55.64 5.84984C55.53 5.84984 55.42 5.83984 55.31 5.83984C55.02 5.83984 54.75 5.87984 54.52 5.94984C54.29 6.02984 54.08 6.12984 53.9 6.25984C53.78 6.34984 53.65 6.46984 53.55 6.58984L56.53 7.07984L56.6 6.12984C56.5 6.06984 56.41 6.02984 56.3 5.98984H56.31Z" fill="white"/>
</g>
<path fill-rule="evenodd" clip-rule="evenodd" d="M6.49771 79C6.98969 79 7.48602 79.213 7.49037 79.6913C7.49037 80.1043 7.24656 80.2696 6.99839 80.2696C6.75023 80.2696 6.73281 80.1435 6.73281 80.1435C6.73281 80.1435 7.02452 79.9261 7.02452 79.7174C7.02452 79.6087 6.94179 79.313 6.489 79.3174C5.8577 79.3174 5.5181 79.6174 5.5181 80.1522C5.5181 80.7652 7.35105 80.9739 7.3554 81.7652C7.3554 82.613 6.47594 82.9957 5.69225 83C5.283 83 5.01306 82.7609 5.00871 82.3783C5.00871 81.9261 5.22204 81.4652 5.75756 81.4652C5.88382 81.4565 5.98831 81.5522 5.99702 81.6783C5.99702 81.6783 5.99702 81.6826 5.99702 81.687C5.99702 81.687 5.45715 81.8391 5.4615 82.3783C5.4615 82.4783 5.56599 82.6609 5.81851 82.6565C6.07103 82.6522 6.82424 82.4739 6.81989 81.8087C6.81989 81.1913 5.00435 81.1087 5 80.1478C5 79.0652 6.08845 79.0087 6.49771 79.0087V79ZM10.747 79.6C10.8123 79.5696 11.2129 79.4913 11.1955 79.813C11.1824 80.1348 10.9386 80.6913 10.9037 80.9348C11.2303 80.7696 11.6918 80.2087 11.6918 80.2087C11.6918 80.2087 12.0183 80.2522 11.9182 80.4522C11.818 80.6522 11.1519 81.1435 11.1519 81.1435C11.1519 81.1435 11.3043 82.5696 12.1707 82.5696C12.6453 82.5696 12.8499 82.3609 12.937 82.287C12.9587 82.2696 12.9762 82.2652 12.9849 82.2783C13.0197 82.387 12.9936 82.5043 12.9152 82.5913C12.8194 82.6957 12.5974 82.8217 12.1533 82.8261C11.3653 82.8261 10.9255 82.1957 10.8123 81.2609C10.7252 81.5348 10.7339 81.9826 10.7209 82.2C10.6948 82.2435 10.2507 82.4174 10.2158 82.1174C10.2158 82.0913 10.2158 82.0696 10.2158 82.0435C10.1331 82.1609 10.0199 82.2826 9.91108 82.2826C9.71951 82.2826 9.63679 82.1217 9.60196 82.0391C9.57584 82.0696 9.3625 82.287 9.08821 82.287C8.92277 82.2913 8.77474 82.1957 8.70943 82.0435C8.57011 82.1435 8.32195 82.2913 8.03895 82.2913C7.73418 82.2913 7.66017 82.1087 7.66017 81.9565C7.66017 81.713 7.84303 80.987 7.84303 80.987C7.84303 80.987 7.48602 81.1304 7.36411 81.1348C7.19431 81.1348 7.11159 80.8217 7.11159 80.813C7.11159 80.8087 7.11159 80.8 7.1203 80.8C7.22044 80.7609 7.94317 80.513 7.94317 80.513C7.94317 80.513 8.07813 79.9826 8.09555 79.913C8.11296 79.8435 8.2131 79.7 8.33065 79.6565C8.41773 79.6217 8.50916 79.6 8.60059 79.5913C8.63107 79.5913 8.65284 79.6 8.65284 79.6174C8.65284 79.6348 8.47433 80.4087 8.47433 80.4087C8.47433 80.4087 8.84876 80.3217 8.98808 80.3217C9.09692 80.3217 9.15352 80.387 9.09257 80.4696C9.03162 80.5522 8.96196 80.6478 8.92712 80.6913C8.88794 80.7348 8.86182 80.7435 8.77039 80.7609C8.64413 80.787 8.36113 80.8565 8.36113 80.8565C8.36113 80.8565 8.13473 81.6783 8.13909 81.8174C8.13909 81.8957 8.16521 81.987 8.26099 81.987C8.35678 81.987 8.53964 81.8739 8.67025 81.7913C8.69202 81.1522 9.18835 80.7261 9.57584 80.7261C9.7021 80.7261 9.65421 80.8478 9.79788 80.8478H9.88931C9.94591 80.8478 10.0069 80.8522 10.0069 80.9957C10.0069 81.1957 9.89367 81.5261 9.89367 81.7348C9.89367 81.8826 9.91544 81.987 9.97204 81.987C10.0678 81.987 10.1767 81.8478 10.255 81.7261C10.3813 81.0304 10.734 79.7609 10.734 79.6174L10.747 79.6ZM12.5016 80.7C12.7672 80.6783 12.9326 80.8217 12.9631 80.9C12.9936 80.9783 12.9892 81.1609 12.9152 81.2913C12.6845 81.7044 12.1097 81.6304 12.1097 81.6304C12.1097 81.6304 12.0444 81.9565 12.3405 81.9565C12.593 81.9565 12.7062 81.8304 12.8151 81.7261C12.8586 81.7261 12.9936 81.8652 12.9326 81.9609C12.8847 82.0348 12.6191 82.2565 12.2795 82.2609C11.7397 82.2609 11.6047 81.8 11.6744 81.4696C11.7658 81.0609 12.1751 80.7217 12.5016 80.6957V80.7ZM9.6455 80.987C9.32332 80.987 8.82699 81.9696 9.20577 81.9652C9.61938 81.9652 9.6455 81.1826 9.6455 81.0043V80.987ZM12.6409 80.8913C12.4232 80.9 12.1751 81.3174 12.1533 81.5C12.4798 81.513 12.654 81.1957 12.6757 81.0696C12.6888 80.9739 12.6932 80.887 12.6409 80.887V80.8913Z" fill="white"/>
<path fill-rule="evenodd" clip-rule="evenodd" d="M55.9957 79.5947C56.0385 79.5947 56.077 79.6161 56.0984 79.6504L56.9027 80.8012L57.5615 80.1423C57.6 80.1038 57.6514 80.0953 57.6984 80.1167C57.7455 80.1381 57.7754 80.1808 57.7754 80.2365V81.8963C57.7754 82.0332 57.7198 82.1616 57.6257 82.2557C57.5316 82.3498 57.3989 82.4054 57.2663 82.4054H54.7209C54.584 82.4054 54.4556 82.3498 54.3615 82.2557C54.2674 82.1616 54.2118 82.029 54.2118 81.8963V80.2322C54.2118 80.1808 54.2417 80.1338 54.2888 80.1124C54.3358 80.091 54.3915 80.1038 54.4257 80.1381L55.0845 80.7969L55.8888 79.6461C55.9145 79.6119 55.953 79.5905 55.9915 79.5905L55.9957 79.5947Z" fill="#FFC200"/>
<path d="M55.9957 79.5947C56.0385 79.5947 56.077 79.6161 56.0984 79.6504L56.9027 80.8012L57.5615 80.1423C57.5872 80.1167 57.6171 80.1039 57.6513 80.1039C57.6685 80.1039 57.6856 80.1039 57.6984 80.1124C57.7455 80.1338 57.7754 80.1766 57.7754 80.2322V81.8921C57.7754 82.029 57.7198 82.1573 57.6257 82.2514C57.5316 82.3456 57.3989 82.4012 57.2663 82.4012H54.7209C54.584 82.4012 54.4556 82.3456 54.3615 82.2514C54.2674 82.1573 54.2118 82.0247 54.2118 81.8921L54.2118 80.2322C54.2118 80.1808 54.2417 80.1338 54.2888 80.1124C54.3059 80.1038 54.323 80.1039 54.3358 80.1039C54.3701 80.1039 54.4 80.1167 54.4257 80.1424L55.0845 80.8012L55.8888 79.6504C55.9144 79.6162 55.9529 79.5948 55.9914 79.5948M55.9957 79.3809C55.8845 79.3809 55.7818 79.4365 55.7176 79.5263L55.0588 80.4675L54.5797 79.9883C54.5155 79.9242 54.4299 79.89 54.3401 79.89C54.2973 79.89 54.2503 79.8985 54.2075 79.9156C54.0791 79.967 53.9979 80.091 53.9979 80.2322V81.8921C53.9979 82.0846 54.0749 82.2686 54.2118 82.4055C54.3487 82.5424 54.5283 82.6194 54.7251 82.6194H57.2749C57.4674 82.6194 57.6513 82.5424 57.7882 82.4055C57.9251 82.2686 58.0021 82.0889 58.0021 81.8921V80.2322C58.0021 80.0953 57.9209 79.9712 57.7925 79.9156C57.7497 79.8985 57.707 79.89 57.6642 79.89C57.5743 79.89 57.4888 79.9242 57.4246 79.9883L56.9455 80.4675L56.2781 79.5263C56.2139 79.4365 56.107 79.3809 56 79.3809H55.9957Z" fill="#213743"/>
<path fill-rule="evenodd" clip-rule="evenodd" d="M55.3925 81.0664C55.3284 80.9809 55.3241 80.8611 55.3882 80.7755L56 79.9242V81.8621L55.3968 81.0707L55.3925 81.0664Z" fill="#FF7F00"/>
<path fill-rule="evenodd" clip-rule="evenodd" d="M56.6032 80.7113C56.6674 80.7969 56.6717 80.9167 56.6075 81.0022L55.9957 81.8536V79.9199L56.599 80.7113H56.6032Z" fill="#FFEBB8"/>
<path d="M26.2231 70.572C25.5151 70.572 24.9811 70.356 24.6091 69.99L25.1731 69.27C25.4491 69.522 25.8271 69.66 26.2111 69.66C26.6491 69.66 26.8651 69.444 26.8651 69.198C26.8651 68.928 26.6551 68.736 26.2411 68.736C25.9231 68.736 25.6711 68.826 25.4491 69.036L24.7351 68.862V66.498H27.6391V67.398H25.7671V68.172C25.9591 67.986 26.2711 67.854 26.6251 67.854C27.3031 67.854 27.9151 68.352 27.9151 69.156C27.9151 70.02 27.2611 70.572 26.2231 70.572ZM29.9443 70.572C28.7743 70.572 28.2283 69.558 28.2283 68.502C28.2283 67.446 28.7743 66.438 29.9443 66.438C31.1143 66.438 31.6603 67.446 31.6603 68.502C31.6603 69.558 31.1143 70.572 29.9443 70.572ZM29.9443 69.66C30.4243 69.66 30.6163 69.21 30.6163 68.502C30.6163 67.794 30.4243 67.35 29.9443 67.35C29.4643 67.35 29.2723 67.794 29.2723 68.502C29.2723 69.21 29.4643 69.66 29.9443 69.66ZM33.6884 70.572C32.5184 70.572 31.9724 69.558 31.9724 68.502C31.9724 67.446 32.5184 66.438 33.6884 66.438C34.8584 66.438 35.4044 67.446 35.4044 68.502C35.4044 69.558 34.8584 70.572 33.6884 70.572ZM33.6884 69.66C34.1684 69.66 34.3604 69.21 34.3604 68.502C34.3604 67.794 34.1684 67.35 33.6884 67.35C33.2084 67.35 33.0164 67.794 33.0164 68.502C33.0164 69.21 33.2084 69.66 33.6884 69.66ZM38.6685 70.5H37.6545L37.0965 69.624L36.5325 70.5H35.5245L36.5145 69.012L35.5845 67.602H36.5985L37.0965 68.388L37.5885 67.602H38.6025L37.6785 69.012L38.6685 70.5Z" fill="#FFEBB8"/>
<path d="M26.2231 70.072C25.5151 70.072 24.9811 69.856 24.6091 69.49L25.1731 68.77C25.4491 69.022 25.8271 69.16 26.2111 69.16C26.6491 69.16 26.8651 68.944 26.8651 68.698C26.8651 68.428 26.6551 68.236 26.2411 68.236C25.9231 68.236 25.6711 68.326 25.4491 68.536L24.7351 68.362V65.998H27.6391V66.898H25.7671V67.672C25.9591 67.486 26.2711 67.354 26.6251 67.354C27.3031 67.354 27.9151 67.852 27.9151 68.656C27.9151 69.52 27.2611 70.072 26.2231 70.072ZM29.9443 70.072C28.7743 70.072 28.2283 69.058 28.2283 68.002C28.2283 66.946 28.7743 65.938 29.9443 65.938C31.1143 65.938 31.6603 66.946 31.6603 68.002C31.6603 69.058 31.1143 70.072 29.9443 70.072ZM29.9443 69.16C30.4243 69.16 30.6163 68.71 30.6163 68.002C30.6163 67.294 30.4243 66.85 29.9443 66.85C29.4643 66.85 29.2723 67.294 29.2723 68.002C29.2723 68.71 29.4643 69.16 29.9443 69.16ZM33.6884 70.072C32.5184 70.072 31.9724 69.058 31.9724 68.002C31.9724 66.946 32.5184 65.938 33.6884 65.938C34.8584 65.938 35.4044 66.946 35.4044 68.002C35.4044 69.058 34.8584 70.072 33.6884 70.072ZM33.6884 69.16C34.1684 69.16 34.3604 68.71 34.3604 68.002C34.3604 67.294 34.1684 66.85 33.6884 66.85C33.2084 66.85 33.0164 67.294 33.0164 68.002C33.0164 68.71 33.2084 69.16 33.6884 69.16ZM38.6685 70H37.6545L37.0965 69.124L36.5325 70H35.5245L36.5145 68.512L35.5845 67.102H36.5985L37.0965 67.888L37.5885 67.102H38.6025L37.6785 68.512L38.6685 70Z" fill="#FF5500"/>
<path d="M7.45 11.3999H5.33V8.0649H6.04V10.7749H7.45V11.3999ZM9.01348 11.4599C8.27848 11.4599 7.72348 10.9649 7.72348 10.1899C7.72348 9.4899 8.23848 8.9249 8.97348 8.9249C9.69348 8.9249 10.1835 9.4649 10.1835 10.2549V10.3949H8.38848C8.42848 10.6999 8.67348 10.9549 9.08348 10.9549C9.28848 10.9549 9.57348 10.8649 9.72848 10.7149L10.0085 11.1249C9.76848 11.3449 9.38848 11.4599 9.01348 11.4599ZM9.56848 9.9649C9.55348 9.7349 9.39348 9.4299 8.97348 9.4299C8.57848 9.4299 8.40848 9.7249 8.37848 9.9649H9.56848ZM11.6321 12.3799C11.2171 12.3799 10.8971 12.2849 10.5921 12.0199L10.8771 11.5599C11.0721 11.7749 11.3271 11.8599 11.6321 11.8599C11.9371 11.8599 12.2971 11.7249 12.2971 11.2499V11.0049C12.1071 11.2449 11.8471 11.3849 11.5521 11.3849C10.9471 11.3849 10.4871 10.9599 10.4871 10.1549C10.4871 9.3649 10.9421 8.9249 11.5521 8.9249C11.8421 8.9249 12.1021 9.0499 12.2971 9.2949V8.9849H12.9371V11.2349C12.9371 12.1549 12.2271 12.3799 11.6321 12.3799ZM11.7521 10.8199C11.9621 10.8199 12.1921 10.6999 12.2971 10.5449V9.7649C12.1921 9.6049 11.9621 9.4899 11.7521 9.4899C11.3921 9.4899 11.1421 9.7399 11.1421 10.1549C11.1421 10.5699 11.3921 10.8199 11.7521 10.8199ZM14.702 11.4599C13.967 11.4599 13.412 10.9649 13.412 10.1899C13.412 9.4899 13.927 8.9249 14.662 8.9249C15.382 8.9249 15.872 9.4649 15.872 10.2549V10.3949H14.077C14.117 10.6999 14.362 10.9549 14.772 10.9549C14.977 10.9549 15.262 10.8649 15.417 10.7149L15.697 11.1249C15.457 11.3449 15.077 11.4599 14.702 11.4599ZM15.257 9.9649C15.242 9.7349 15.082 9.4299 14.662 9.4299C14.267 9.4299 14.097 9.7249 14.067 9.9649H15.257ZM18.5956 11.3999H17.9606V9.9399C17.9606 9.6049 17.7856 9.4899 17.5156 9.4899C17.2656 9.4899 17.0706 9.6299 16.9656 9.7749V11.3999H16.3306V8.9849H16.9656V9.2999C17.1206 9.1149 17.4156 8.9249 17.8106 8.9249C18.3406 8.9249 18.5956 9.2249 18.5956 9.6949V11.3999ZM21.5261 11.3999H20.8861V11.0899C20.6961 11.3299 20.4311 11.4599 20.1411 11.4599C19.5311 11.4599 19.0711 10.9999 19.0711 10.1949C19.0711 9.4049 19.5261 8.9249 20.1411 8.9249C20.4261 8.9249 20.6961 9.0499 20.8861 9.2949V8.0649H21.5261V11.3999ZM20.3361 10.8949C20.5511 10.8949 20.7811 10.7799 20.8861 10.6199V9.7649C20.7811 9.6049 20.5511 9.4899 20.3361 9.4899C19.9761 9.4899 19.7261 9.7749 19.7261 10.1949C19.7261 10.6099 19.9761 10.8949 20.3361 10.8949ZM24.2408 11.3999H23.6058V11.1499C23.4408 11.3449 23.1558 11.4599 22.8408 11.4599C22.4558 11.4599 22.0008 11.1999 22.0008 10.6599C22.0008 10.0949 22.4558 9.8799 22.8408 9.8799C23.1608 9.8799 23.4458 9.9849 23.6058 10.1749V9.8499C23.6058 9.6049 23.3958 9.4449 23.0758 9.4449C22.8158 9.4449 22.5758 9.5399 22.3708 9.7299L22.1308 9.3049C22.4258 9.0449 22.8058 8.9249 23.1858 8.9249C23.7358 8.9249 24.2408 9.1449 24.2408 9.8399V11.3999ZM23.0958 11.0299C23.3008 11.0299 23.5008 10.9599 23.6058 10.8199V10.5199C23.5008 10.3799 23.3008 10.3099 23.0958 10.3099C22.8458 10.3099 22.6408 10.4399 22.6408 10.6749C22.6408 10.8999 22.8458 11.0299 23.0958 11.0299ZM25.5057 11.3999H24.8707V8.9849H25.5057V9.3149C25.6757 9.0999 25.9757 8.9249 26.2757 8.9249V9.5449C26.2307 9.5349 26.1707 9.5299 26.1007 9.5299C25.8907 9.5299 25.6107 9.6499 25.5057 9.8049V11.3999ZM26.5874 12.3449L26.6824 11.7749C26.7374 11.7999 26.8224 11.8149 26.8824 11.8149C27.0474 11.8149 27.1574 11.7699 27.2174 11.6399L27.3074 11.4349L26.3274 8.9849H27.0074L27.6374 10.6649L28.2674 8.9849H28.9524L27.8174 11.7949C27.6374 12.2499 27.3174 12.3699 26.9024 12.3799C26.8274 12.3799 26.6674 12.3649 26.5874 12.3449Z" fill="#FF5500"/>
<path d="M7.45 11H5.33V7.665H6.04V10.375H7.45V11ZM9.01348 11.06C8.27848 11.06 7.72348 10.565 7.72348 9.79C7.72348 9.09 8.23848 8.525 8.97348 8.525C9.69348 8.525 10.1835 9.065 10.1835 9.855V9.995H8.38848C8.42848 10.3 8.67348 10.555 9.08348 10.555C9.28848 10.555 9.57348 10.465 9.72848 10.315L10.0085 10.725C9.76848 10.945 9.38848 11.06 9.01348 11.06ZM9.56848 9.565C9.55348 9.335 9.39348 9.03 8.97348 9.03C8.57848 9.03 8.40848 9.325 8.37848 9.565H9.56848ZM11.6321 11.98C11.2171 11.98 10.8971 11.885 10.5921 11.62L10.8771 11.16C11.0721 11.375 11.3271 11.46 11.6321 11.46C11.9371 11.46 12.2971 11.325 12.2971 10.85V10.605C12.1071 10.845 11.8471 10.985 11.5521 10.985C10.9471 10.985 10.4871 10.56 10.4871 9.755C10.4871 8.965 10.9421 8.525 11.5521 8.525C11.8421 8.525 12.1021 8.65 12.2971 8.895V8.585H12.9371V10.835C12.9371 11.755 12.2271 11.98 11.6321 11.98ZM11.7521 10.42C11.9621 10.42 12.1921 10.3 12.2971 10.145V9.365C12.1921 9.205 11.9621 9.09 11.7521 9.09C11.3921 9.09 11.1421 9.34 11.1421 9.755C11.1421 10.17 11.3921 10.42 11.7521 10.42ZM14.702 11.06C13.967 11.06 13.412 10.565 13.412 9.79C13.412 9.09 13.927 8.525 14.662 8.525C15.382 8.525 15.872 9.065 15.872 9.855V9.995H14.077C14.117 10.3 14.362 10.555 14.772 10.555C14.977 10.555 15.262 10.465 15.417 10.315L15.697 10.725C15.457 10.945 15.077 11.06 14.702 11.06ZM15.257 9.565C15.242 9.335 15.082 9.03 14.662 9.03C14.267 9.03 14.097 9.325 14.067 9.565H15.257ZM18.5956 11H17.9606V9.54C17.9606 9.205 17.7856 9.09 17.5156 9.09C17.2656 9.09 17.0706 9.23 16.9656 9.375V11H16.3306V8.585H16.9656V8.9C17.1206 8.715 17.4156 8.525 17.8106 8.525C18.3406 8.525 18.5956 8.825 18.5956 9.295V11ZM21.5261 11H20.8861V10.69C20.6961 10.93 20.4311 11.06 20.1411 11.06C19.5311 11.06 19.0711 10.6 19.0711 9.795C19.0711 9.005 19.5261 8.525 20.1411 8.525C20.4261 8.525 20.6961 8.65 20.8861 8.895V7.665H21.5261V11ZM20.3361 10.495C20.5511 10.495 20.7811 10.38 20.8861 10.22V9.365C20.7811 9.205 20.5511 9.09 20.3361 9.09C19.9761 9.09 19.7261 9.375 19.7261 9.795C19.7261 10.21 19.9761 10.495 20.3361 10.495ZM24.2408 11H23.6058V10.75C23.4408 10.945 23.1558 11.06 22.8408 11.06C22.4558 11.06 22.0008 10.8 22.0008 10.26C22.0008 9.695 22.4558 9.48 22.8408 9.48C23.1608 9.48 23.4458 9.585 23.6058 9.775V9.45C23.6058 9.205 23.3958 9.045 23.0758 9.045C22.8158 9.045 22.5758 9.14 22.3708 9.33L22.1308 8.905C22.4258 8.645 22.8058 8.525 23.1858 8.525C23.7358 8.525 24.2408 8.745 24.2408 9.44V11ZM23.0958 10.63C23.3008 10.63 23.5008 10.56 23.6058 10.42V10.12C23.5008 9.98 23.3008 9.91 23.0958 9.91C22.8458 9.91 22.6408 10.04 22.6408 10.275C22.6408 10.5 22.8458 10.63 23.0958 10.63ZM25.5057 11H24.8707V8.585H25.5057V8.915C25.6757 8.7 25.9757 8.525 26.2757 8.525V9.145C26.2307 9.135 26.1707 9.13 26.1007 9.13C25.8907 9.13 25.6107 9.25 25.5057 9.405V11ZM26.5874 11.945L26.6824 11.375C26.7374 11.4 26.8224 11.415 26.8824 11.415C27.0474 11.415 27.1574 11.37 27.2174 11.24L27.3074 11.035L26.3274 8.585H27.0074L27.6374 10.265L28.2674 8.585H28.9524L27.8174 11.395C27.6374 11.85 27.3174 11.97 26.9024 11.98C26.8274 11.98 26.6674 11.965 26.5874 11.945Z" fill="white"/>
<g clip-path="url(#clip2_26835_29169)">
<path d="M34.9933 4C34.4047 4.92308 33.9231 5.40468 33 5.99331C33.9231 6.58194 34.4047 7.06355 34.9933 7.98662C35.5819 7.06355 36.0635 6.58194 36.9866 5.99331C36.0635 5.40468 35.5819 4.92308 34.9933 4Z" fill="white"/>
</g>
<defs>
<linearGradient id="paint0_linear_26835_29169" x1="31.5" y1="0" x2="31.5" y2="88" gradientUnits="userSpaceOnUse">
<stop stop-color="#FFC200"/>
<stop offset="1" stop-color="#FF7F00"/>
</linearGradient>
<linearGradient id="paint1_linear_26835_29169" x1="71.86" y1="33.4901" x2="11.77" y2="93.5901" gradientUnits="userSpaceOnUse">
<stop stop-color="white" stop-opacity="0"/>
<stop offset="1" stop-color="white"/>
</linearGradient>
<linearGradient id="paint2_linear_26835_29169" x1="48.23" y1="9.85996" x2="-11.87" y2="69.96" gradientUnits="userSpaceOnUse">
<stop stop-color="white" stop-opacity="0"/>
<stop offset="1" stop-color="white"/>
</linearGradient>
<linearGradient id="paint3_linear_26835_29169" x1="86.07" y1="47.6998" x2="25.97" y2="107.79" gradientUnits="userSpaceOnUse">
<stop stop-color="white" stop-opacity="0"/>
<stop offset="1" stop-color="white"/>
</linearGradient>
<linearGradient id="paint4_linear_26835_29169" x1="14.38" y1="51.2401" x2="-16.46" y2="38.9601" gradientUnits="userSpaceOnUse">
<stop stop-color="#8EA3B2"/>
<stop offset="1" stop-color="#557086"/>
</linearGradient>
<linearGradient id="paint5_linear_26835_29169" x1="31.5" y1="84.47" x2="31.5" y2="3.96" gradientUnits="userSpaceOnUse">
<stop stop-color="#FF8913"/>
<stop offset="1" stop-color="#FFC200"/>
</linearGradient>
<linearGradient id="paint6_linear_26835_29169" x1="31.5" y1="75" x2="31.5" y2="62" gradientUnits="userSpaceOnUse">
<stop stop-color="#FFFEFC"/>
<stop offset="1" stop-color="#FFC200"/>
</linearGradient>
<clipPath id="clip0_26835_29169">
<rect width="63" height="88" fill="white"/>
</clipPath>
<clipPath id="clip1_26835_29169">
<rect width="63" height="88" fill="white"/>
</clipPath>
<clipPath id="clip2_26835_29169">
<rect width="4" height="4" fill="white" transform="translate(33 4)"/>
</clipPath>
</defs>
</svg>
