<svg width="63" height="88" viewBox="0 0 63 88" fill="none" xmlns="http://www.w3.org/2000/svg">
<rect width="63" height="88" rx="4" fill="url(#paint0_linear_26835_29170)"/>
<g clip-path="url(#clip0_26835_29170)">
<g clip-path="url(#clip1_26835_29170)">
<path d="M56.54 0.560059H6.46C3.11316 0.560059 0.400002 3.27321 0.400002 6.62006V81.3801C0.400002 84.7269 3.11316 87.4401 6.46 87.4401H56.54C59.8868 87.4401 62.6 84.7269 62.6 81.3801V6.62006C62.6 3.27321 59.8868 0.560059 56.54 0.560059Z" fill="#FF7F00"/>
<g opacity="0.2">
<mask id="mask0_26835_29170" style="mask-type:luminance" maskUnits="userSpaceOnUse" x="0" y="0" width="63" height="88">
<path d="M56.54 0.560059H6.46C3.11316 0.560059 0.400002 3.27321 0.400002 6.62006V81.3801C0.400002 84.7269 3.11316 87.4401 6.46 87.4401H56.54C59.8868 87.4401 62.6 84.7269 62.6 81.3801V6.62006C62.6 3.27321 59.8868 0.560059 56.54 0.560059Z" fill="white"/>
</mask>
<g mask="url(#mask0_26835_29170)">
<path d="M68.37 47.3101V26.6401L4.46 90.5501H25.13L68.37 47.3101Z" fill="url(#paint1_linear_26835_29170)"/>
<path d="M64.66 -2.29004H55.22L-2.92 55.84V66.18L65.46 -2.20004C65.2 -2.26004 64.93 -2.29004 64.66 -2.29004Z" fill="url(#paint2_linear_26835_29170)"/>
<path d="M68.37 69.2298V61.5498L39.37 90.5498H47.05L68.37 69.2298Z" fill="url(#paint3_linear_26835_29170)"/>
</g>
</g>
<path d="M18.47 62H44.52C48.42 62 51.58 65.36 51.58 69.49C51.58 73.63 48.42 76.98 44.52 76.98H18.47C14.57 76.98 11.41 73.62 11.41 69.49C11.41 65.35 14.57 62 18.47 62Z" fill="#FF5500"/>
<path d="M30.21 76.9901H34.87L37.02 74.8701H32.36L30.21 76.9901Z" fill="#FFC200"/>
<path d="M19.5 62H43.5C47.09 62 50 64.91 50 68.5C50 72.09 47.09 75 43.5 75H19.5C15.91 75 13 72.09 13 68.5C13 64.91 15.91 62 19.5 62Z" fill="#FFC200"/>
<path d="M43.5 62.5C46.81 62.5 49.5 65.19 49.5 68.5C49.5 71.81 46.81 74.5 43.5 74.5H19.5C16.19 74.5 13.5 71.81 13.5 68.5C13.5 65.19 16.19 62.5 19.5 62.5H43.5ZM43.5 62H19.5C15.91 62 13 64.91 13 68.5C13 72.09 15.91 75 19.5 75H43.5C47.09 75 50 72.09 50 68.5C50 64.91 47.09 62 43.5 62Z" fill="url(#paint4_linear_26835_29170)"/>
<path d="M49.6064 68.2235C50.1926 67.8484 50.0042 66.5073 49.1857 65.2279C48.3672 63.9486 47.2285 63.2155 46.6423 63.5905C46.0562 63.9655 46.2445 65.3067 47.063 66.586C47.8815 67.8654 49.0202 68.5985 49.6064 68.2235Z" fill="white"/>
<path d="M59 0H4C1.79 0 0 1.79 0 4V84C0 86.21 1.79 88 4 88H59C61.21 88 63 86.21 63 84V4C63 1.79 61.21 0 59 0ZM61 82.81C61 84.57 59.57 86 57.81 86H5.19C3.43 86 2 84.57 2 82.81V18.19C2 16.43 3.43 15 5.19 15H33.59C34.8 15 35.94 14.45 36.7 13.51L44.8 3.48C45.56 2.54 46.7 1.99 47.91 1.99H57.81C59.57 1.99 61 3.42 61 5.18V82.8V82.81Z" fill="url(#paint5_linear_26835_29170)"/>
<mask id="mask1_26835_29170" style="mask-type:luminance" maskUnits="userSpaceOnUse" x="0" y="0" width="63" height="88">
<path d="M59 0H4C1.79 0 0 1.79 0 4V84C0 86.21 1.79 88 4 88H59C61.21 88 63 86.21 63 84V4C63 1.79 61.21 0 59 0ZM61 82.81C61 84.57 59.57 86 57.81 86H5.19C3.43 86 2 84.57 2 82.81V18.19C2 16.43 3.43 15 5.19 15H33.59C34.8 15 35.94 14.45 36.7 13.51L44.8 3.48C45.56 2.54 46.7 1.99 47.91 1.99H57.81C59.57 1.99 61 3.42 61 5.18V82.8V82.81Z" fill="white"/>
</mask>
<g mask="url(#mask1_26835_29170)">
<path d="M68.37 47.3101V26.6401L4.46 90.5501H25.13L68.37 47.3101Z" fill="white"/>
<path d="M64.66 -2.29004H55.22L-2.92 55.84V66.18L65.46 -2.20004C65.2 -2.26004 64.93 -2.29004 64.66 -2.29004Z" fill="white"/>
<path d="M68.37 69.2298V61.5498L39.37 90.5498H47.05L68.37 69.2298Z" fill="white"/>
</g>
<path d="M6.39 29.7998C5.64 30.9698 5.02 31.5798 3.85 32.3398C5.02 33.0898 5.63 33.7098 6.39 34.8798C7.14 33.7098 7.76 33.0998 8.93 32.3398C7.76 31.5898 7.15 30.9698 6.39 29.7998Z" fill="white"/>
<path d="M56.56 46.4102C55.96 47.3402 55.48 47.8202 54.55 48.4202C55.48 49.0202 55.96 49.5002 56.56 50.4302C57.16 49.5002 57.64 49.0202 58.57 48.4202C57.64 47.8202 57.16 47.3402 56.56 46.4102Z" fill="white"/>
<path d="M41.52 12.0698L41.49 12.1398L41.52 12.1098V12.0698Z" fill="#0397EF"/>
<path d="M24.02 38.8498V38.7798C24.02 38.7798 24.01 38.8298 24.02 38.8498Z" fill="url(#paint6_linear_26835_29170)"/>
<path d="M21.84 62H41.19C41.19 62 38.64 64.22 31.5 64.22C24.36 64.22 21.84 62 21.84 62Z" fill="#FF5500"/>
<path d="M31.86 13.9101C52.54 14.1501 65.26 63.0101 31.24 62.6101C-2.78 62.2101 11.18 13.6701 31.86 13.9101Z" fill="#FFEBB8"/>
<path d="M39.11 59.6402C36.82 60.3702 34.18 60.7202 31.27 60.6902C20.94 60.5702 14.45 55.5402 12.99 46.5202C11.03 34.3802 18.56 19.4502 28.19 16.3802C29.4 16.0002 30.63 15.8102 31.84 15.8202C39.01 15.9002 47.74 24.0602 49.92 37.5502C52.58 54.0002 42.32 58.6102 39.11 59.6302V59.6402Z" fill="#FFC200"/>
<path d="M43.07 29.0001C43.07 29.0001 43.86 29.1801 43.98 28.9801C44.1 28.7701 44.23 27.9301 42.39 25.9501C40.55 23.9701 37.01 23.1501 37.01 23.1501C37.01 23.1501 38.49 22.7801 38.61 22.6101C38.73 22.4401 38.61 21.8501 35.16 21.6601C33.05 21.5601 30.95 21.9301 29.02 22.7401C30.03 21.8001 29.23 21.6001 29.23 21.6001C19.73 23.6301 21.52 33.2101 23.65 34.8601C23.65 34.8601 23.87 36.2701 23.79 36.6901C23.71 37.1101 22.64 36.8501 22.75 37.4801C22.86 38.1101 27.71 38.7301 28.39 38.1101C29.08 37.4901 29.11 34.3301 31.38 32.2501C33.65 30.1701 32.13 29.2801 32.13 29.2801C36.87 29.1901 37.48 33.1701 36.98 37.0301C36.01 35.7501 34.34 33.7301 33.63 33.8901C32.59 34.1301 29.75 35.3301 29.52 37.9301C29.29 40.5301 30.7 42.1301 32.7 41.6301C34.7 41.1301 33.76 39.9601 33.76 39.9601C33.76 39.9601 32.55 40.3301 32.08 39.4501C32.08 39.4501 33.29 39.7901 33.77 39.1201C33.77 39.1201 32.44 38.4401 33.62 37.2201C33.62 37.2201 33.82 40.7401 35.77 42.1501C35.4 43.3001 35.09 44.0401 35.09 44.0401C35.09 44.0401 34.52 42.3801 31.4 42.7201C28.66 43.0301 27.47 45.1201 27.23 45.6101C28.83 42.2501 27.68 38.8601 24.93 39.0001C22.18 39.1501 22.52 41.0701 22.52 41.0701C23.08 40.5101 23.99 41.0501 23.99 41.0501C23.6 41.1601 23.38 41.5601 23.5 41.9401C23.52 42.0001 23.55 42.0601 23.58 42.1101C23.58 42.0501 23.73 41.9901 24.57 42.1401C25.84 42.3701 24.39 43.8601 24.39 43.8601C24.39 43.8601 24.37 42.2801 22.54 42.1201C20.71 41.9601 20.98 42.8401 20.98 42.8401C21.35 42.9101 21.7 43.0301 22.03 43.2001C20.69 43.1701 20.55 44.1801 20.55 44.1801C21.27 44.1801 21.7 44.2301 22.57 45.2201C23.14 45.8801 21.9 47.7301 21.19 49.3701C15.29 45.7401 18.29 33.4901 20.71 30.8401C19.69 30.1001 14.48 32.6501 14.36 42.6401C14.25 51.2501 18.59 55.2101 23.69 57.4901C26.02 58.5301 29.81 58.9101 31.84 58.9301C38.32 59.0101 45.58 54.9601 47.66 48.6301C51.41 37.2001 43.07 29.0001 43.07 29.0001Z" fill="url(#paint7_linear_26835_29170)"/>
<path d="M46.7 51.41C46.7 55.14 39.9 59.87 31.51 59.87C23.12 59.87 16.32 55.14 16.32 51.41C16.32 47.68 22.64 46.25 31.03 46.25C39.42 46.25 46.69 47.68 46.69 51.41H46.7Z" fill="#FF5500"/>
<path d="M43.05 52.9002C43.05 55.7502 37.88 59.3802 31.5 59.3802C25.12 59.3802 19.95 55.7602 19.95 52.9002C19.95 50.0402 24.76 48.9502 31.14 48.9502C37.52 48.9502 43.05 50.0502 43.05 52.9002Z" fill="#557086"/>
<path d="M39.8 54.5498C39.8 56.3598 36.08 58.6498 31.5 58.6498C26.92 58.6498 23.2 56.3498 23.2 54.5498C23.2 52.7498 26.66 52.0498 31.24 52.0498C35.82 52.0498 39.8 52.7398 39.8 54.5498Z" fill="#1A2C38"/>
<path d="M22.66 57.5901C21.65 58.4401 18.7 57.6601 16.41 55.1401C14.12 52.6201 13.35 49.3101 14.36 48.4701C15.37 47.6301 18.04 48.9801 20.33 51.5001C22.62 54.0201 23.67 56.7501 22.66 57.5901Z" fill="white"/>
<path d="M40.26 23.2802C38.73 21.6702 38.19 19.7602 39.04 19.0102C39.89 18.2602 41.51 19.2802 43.03 20.8902C44.55 22.5002 45.43 24.0902 44.57 24.8402C43.71 25.5902 41.78 24.8902 40.25 23.2802H40.26Z" fill="white"/>
<path d="M36.66 55.3301C36.66 56.4001 34.35 57.2701 31.49 57.2701C28.63 57.2701 26.32 56.4001 26.32 55.3301C26.32 54.2601 28.63 53.8501 31.49 53.8501C34.35 53.8501 36.66 54.2601 36.66 55.3301Z" fill="#FFC200"/>
</g>
<path d="M49.21 8.3298L49.08 10.7798L48.13 10.8698L47.62 9.5598L47.54 10.8998H46.73L46.8 8.3398L47.7 8.2998L48.33 9.5998L48.36 8.3698L49.21 8.3398V8.3298Z" fill="#FF5500"/>
<path d="M51.56 9.54012C51.56 9.65012 51.55 9.76012 51.52 9.86012C51.49 9.96012 51.46 10.0601 51.41 10.1501C51.36 10.2401 51.3 10.3201 51.24 10.3901C51.17 10.4601 51.1 10.5301 51.01 10.5801C50.92 10.6301 50.83 10.6701 50.73 10.7001C50.63 10.7301 50.52 10.7401 50.41 10.7401C50.3 10.7401 50.2 10.7301 50.1 10.7001C50 10.6701 49.91 10.6301 49.82 10.5801C49.73 10.5301 49.66 10.4701 49.59 10.4001C49.52 10.3301 49.46 10.2501 49.41 10.1701C49.36 10.0801 49.32 9.99012 49.3 9.89012C49.27 9.79012 49.26 9.69012 49.26 9.58012C49.26 9.47012 49.27 9.37012 49.3 9.27012C49.33 9.17012 49.36 9.07012 49.41 8.99012C49.46 8.91012 49.52 8.82012 49.58 8.74012C49.64 8.66012 49.72 8.60012 49.81 8.55012C49.89 8.50012 49.98 8.45012 50.08 8.42012C50.18 8.39012 50.28 8.37012 50.39 8.37012C50.56 8.37012 50.72 8.40012 50.87 8.45012C51.01 8.50012 51.14 8.58012 51.24 8.68012C51.34 8.78012 51.42 8.90012 51.48 9.04012C51.54 9.18012 51.56 9.34012 51.56 9.52012V9.54012ZM50.76 9.59012C50.76 9.54012 50.76 9.49012 50.74 9.44012C50.73 9.39012 50.7 9.35012 50.67 9.31012C50.64 9.27012 50.61 9.24012 50.56 9.22012C50.51 9.20012 50.47 9.18012 50.41 9.18012C50.35 9.18012 50.3 9.18012 50.26 9.21012C50.22 9.23012 50.18 9.26012 50.15 9.29012C50.12 9.32012 50.09 9.37012 50.08 9.41012C50.06 9.46012 50.05 9.51012 50.05 9.56012C50.05 9.61012 50.05 9.66012 50.07 9.71012C50.08 9.76012 50.11 9.81012 50.13 9.85012C50.16 9.89012 50.19 9.92012 50.24 9.95012C50.28 9.98012 50.33 9.99012 50.39 9.99012C50.45 9.99012 50.5 9.98012 50.54 9.96012C50.58 9.94012 50.62 9.91012 50.65 9.87012C50.68 9.83012 50.71 9.79012 50.72 9.74012C50.74 9.69012 50.75 9.64012 50.75 9.59012H50.76Z" fill="#FF5500"/>
<path d="M52.31 10.5499C52.31 10.5999 52.3 10.6499 52.28 10.6999C52.26 10.7499 52.23 10.7899 52.2 10.8199C52.17 10.8499 52.13 10.8799 52.08 10.8999C52.03 10.9199 51.99 10.9299 51.93 10.9299C51.87 10.9299 51.83 10.9299 51.78 10.8999C51.73 10.8799 51.69 10.8499 51.66 10.8199C51.63 10.7899 51.6 10.7499 51.58 10.6999C51.56 10.6499 51.55 10.5999 51.55 10.5499C51.55 10.4999 51.55 10.4499 51.58 10.3999C51.6 10.3499 51.63 10.3099 51.66 10.2799C51.69 10.2499 51.73 10.2199 51.78 10.1999C51.83 10.1799 51.88 10.1699 51.93 10.1699C51.98 10.1699 52.03 10.1699 52.08 10.1999C52.13 10.2199 52.17 10.2499 52.2 10.2799C52.23 10.3099 52.26 10.3599 52.28 10.3999C52.3 10.4499 52.31 10.4999 52.31 10.5499Z" fill="#FF5500"/>
<path d="M49.1 7.86984L48.97 10.3198L48.02 10.4098L47.51 9.09984L47.43 10.4398H46.62L46.69 7.87984L47.59 7.83984L48.22 9.13984L48.25 7.90984L49.1 7.87984V7.86984Z" fill="white"/>
<path d="M51.46 9.08016C51.46 9.19016 51.45 9.30016 51.42 9.40016C51.39 9.50016 51.36 9.60016 51.31 9.69016C51.26 9.78016 51.2 9.86016 51.14 9.93016C51.07 10.0002 51 10.0702 50.91 10.1202C50.82 10.1702 50.73 10.2102 50.63 10.2402C50.53 10.2702 50.42 10.2802 50.31 10.2802C50.2 10.2802 50.1 10.2702 50 10.2402C49.9 10.2102 49.81 10.1702 49.72 10.1202C49.63 10.0702 49.56 10.0102 49.49 9.94016C49.42 9.87016 49.36 9.79016 49.31 9.71016C49.26 9.62016 49.22 9.53016 49.2 9.43016C49.17 9.33016 49.16 9.23016 49.16 9.12016C49.16 9.01016 49.17 8.91016 49.2 8.81016C49.23 8.71016 49.26 8.61016 49.31 8.53016C49.36 8.45016 49.42 8.36016 49.48 8.28016C49.54 8.20016 49.62 8.14016 49.71 8.09016C49.79 8.04016 49.88 7.99016 49.98 7.96016C50.08 7.93016 50.18 7.91016 50.29 7.91016C50.46 7.91016 50.62 7.94016 50.77 7.99016C50.91 8.04016 51.04 8.12016 51.14 8.22016C51.24 8.32016 51.32 8.44016 51.38 8.58016C51.44 8.72016 51.46 8.88016 51.46 9.06016V9.08016ZM50.66 9.12016C50.66 9.07016 50.66 9.02016 50.64 8.97016C50.63 8.92016 50.6 8.88016 50.57 8.84016C50.54 8.80016 50.51 8.77016 50.46 8.75016C50.41 8.73016 50.37 8.71016 50.31 8.71016C50.25 8.71016 50.2 8.71016 50.16 8.74016C50.12 8.76016 50.08 8.79016 50.05 8.82016C50.02 8.85016 49.99 8.90016 49.98 8.94016C49.96 8.99016 49.95 9.04016 49.95 9.09016C49.95 9.14016 49.95 9.19016 49.97 9.24016C49.98 9.29016 50.01 9.34016 50.03 9.38016C50.06 9.42016 50.09 9.45016 50.14 9.48016C50.18 9.51016 50.23 9.52016 50.29 9.52016C50.35 9.52016 50.4 9.51016 50.44 9.49016C50.48 9.47016 50.52 9.44016 50.55 9.40016C50.58 9.36016 50.61 9.32016 50.62 9.27016C50.64 9.22016 50.65 9.17016 50.65 9.12016H50.66Z" fill="white"/>
<path d="M52.21 10.09C52.21 10.14 52.2 10.19 52.18 10.24C52.16 10.29 52.13 10.33 52.1 10.36C52.07 10.39 52.03 10.42 51.98 10.44C51.93 10.46 51.89 10.47 51.83 10.47C51.77 10.47 51.73 10.47 51.68 10.44C51.63 10.42 51.59 10.39 51.56 10.36C51.53 10.33 51.5 10.29 51.48 10.24C51.46 10.19 51.45 10.14 51.45 10.09C51.45 10.04 51.45 9.98996 51.48 9.93996C51.5 9.88996 51.53 9.84996 51.56 9.81996C51.59 9.78996 51.63 9.75996 51.68 9.73996C51.73 9.71996 51.78 9.70996 51.83 9.70996C51.88 9.70996 51.93 9.70996 51.98 9.73996C52.03 9.75996 52.07 9.78996 52.1 9.81996C52.13 9.84996 52.16 9.89996 52.18 9.93996C52.2 9.98996 52.21 10.04 52.21 10.09Z" fill="white"/>
<path d="M57.06 7.82023C56.81 8.51023 56.59 9.14023 56.39 9.70023C56.3 9.94023 56.22 10.1802 56.14 10.4102C56.06 10.6402 55.98 10.8602 55.91 11.0502C55.84 11.2402 55.78 11.4002 55.74 11.5402C55.7 11.6802 55.66 11.7502 55.65 11.7902L53.73 11.6802L55.42 8.03023L53.42 8.14023V6.56023L57.06 6.49023V7.83023V7.82023Z" fill="#FF5500"/>
<path d="M56.96 7.35002C56.71 8.04002 56.49 8.67002 56.29 9.23002C56.2 9.47002 56.12 9.71002 56.04 9.94002C55.96 10.17 55.88 10.39 55.81 10.58C55.74 10.77 55.68 10.93 55.64 11.07C55.6 11.21 55.56 11.28 55.55 11.32L53.63 11.21L55.32 7.56002L53.32 7.67002V6.09002L56.96 6.02002V7.36002V7.35002Z" fill="#FFC200"/>
<path d="M55.24 6.33984L53.32 6.54984V7.66984L55.31 7.55984L55.02 8.18984L55.46 8.74984L56.57 8.42984L56.96 7.34984V6.86984L55.24 6.33984Z" fill="#FFEBB8"/>
<path d="M53.32 6.08002V6.55002L56.96 6.87002V6.02002L53.32 6.08002Z" fill="white"/>
<path d="M55.02 8.18994L56.57 8.42994L56.03 9.93994L54.58 9.12994L55.02 8.18994Z" fill="white"/>
</g>
<path fill-rule="evenodd" clip-rule="evenodd" d="M6.49771 79C6.98969 79 7.48602 79.213 7.49037 79.6913C7.49037 80.1043 7.24656 80.2696 6.99839 80.2696C6.75023 80.2696 6.73281 80.1435 6.73281 80.1435C6.73281 80.1435 7.02452 79.9261 7.02452 79.7174C7.02452 79.6087 6.94179 79.313 6.489 79.3174C5.8577 79.3174 5.5181 79.6174 5.5181 80.1522C5.5181 80.7652 7.35105 80.9739 7.3554 81.7652C7.3554 82.613 6.47594 82.9957 5.69225 83C5.283 83 5.01306 82.7609 5.00871 82.3783C5.00871 81.9261 5.22204 81.4652 5.75756 81.4652C5.88382 81.4565 5.98831 81.5522 5.99702 81.6783C5.99702 81.6783 5.99702 81.6826 5.99702 81.687C5.99702 81.687 5.45715 81.8391 5.4615 82.3783C5.4615 82.4783 5.56599 82.6609 5.81851 82.6565C6.07103 82.6522 6.82424 82.4739 6.81989 81.8087C6.81989 81.1913 5.00435 81.1087 5 80.1478C5 79.0652 6.08845 79.0087 6.49771 79.0087V79ZM10.747 79.6C10.8123 79.5696 11.2129 79.4913 11.1955 79.813C11.1824 80.1348 10.9386 80.6913 10.9037 80.9348C11.2303 80.7696 11.6918 80.2087 11.6918 80.2087C11.6918 80.2087 12.0183 80.2522 11.9182 80.4522C11.818 80.6522 11.1519 81.1435 11.1519 81.1435C11.1519 81.1435 11.3043 82.5696 12.1707 82.5696C12.6453 82.5696 12.8499 82.3609 12.937 82.287C12.9587 82.2696 12.9762 82.2652 12.9849 82.2783C13.0197 82.387 12.9936 82.5043 12.9152 82.5913C12.8194 82.6957 12.5974 82.8217 12.1533 82.8261C11.3653 82.8261 10.9255 82.1957 10.8123 81.2609C10.7252 81.5348 10.7339 81.9826 10.7209 82.2C10.6948 82.2435 10.2507 82.4174 10.2158 82.1174C10.2158 82.0913 10.2158 82.0696 10.2158 82.0435C10.1331 82.1609 10.0199 82.2826 9.91108 82.2826C9.71951 82.2826 9.63679 82.1217 9.60196 82.0391C9.57584 82.0696 9.3625 82.287 9.08821 82.287C8.92277 82.2913 8.77474 82.1957 8.70943 82.0435C8.57011 82.1435 8.32195 82.2913 8.03895 82.2913C7.73418 82.2913 7.66017 82.1087 7.66017 81.9565C7.66017 81.713 7.84303 80.987 7.84303 80.987C7.84303 80.987 7.48602 81.1304 7.36411 81.1348C7.19431 81.1348 7.11159 80.8217 7.11159 80.813C7.11159 80.8087 7.11159 80.8 7.1203 80.8C7.22044 80.7609 7.94317 80.513 7.94317 80.513C7.94317 80.513 8.07813 79.9826 8.09555 79.913C8.11296 79.8435 8.2131 79.7 8.33065 79.6565C8.41773 79.6217 8.50916 79.6 8.60059 79.5913C8.63107 79.5913 8.65284 79.6 8.65284 79.6174C8.65284 79.6348 8.47433 80.4087 8.47433 80.4087C8.47433 80.4087 8.84876 80.3217 8.98808 80.3217C9.09692 80.3217 9.15352 80.387 9.09257 80.4696C9.03162 80.5522 8.96196 80.6478 8.92712 80.6913C8.88794 80.7348 8.86182 80.7435 8.77039 80.7609C8.64413 80.787 8.36113 80.8565 8.36113 80.8565C8.36113 80.8565 8.13473 81.6783 8.13909 81.8174C8.13909 81.8957 8.16521 81.987 8.26099 81.987C8.35678 81.987 8.53964 81.8739 8.67025 81.7913C8.69202 81.1522 9.18835 80.7261 9.57584 80.7261C9.7021 80.7261 9.65421 80.8478 9.79788 80.8478H9.88931C9.94591 80.8478 10.0069 80.8522 10.0069 80.9957C10.0069 81.1957 9.89367 81.5261 9.89367 81.7348C9.89367 81.8826 9.91544 81.987 9.97204 81.987C10.0678 81.987 10.1767 81.8478 10.255 81.7261C10.3813 81.0304 10.734 79.7609 10.734 79.6174L10.747 79.6ZM12.5016 80.7C12.7672 80.6783 12.9326 80.8217 12.9631 80.9C12.9936 80.9783 12.9892 81.1609 12.9152 81.2913C12.6845 81.7044 12.1097 81.6304 12.1097 81.6304C12.1097 81.6304 12.0444 81.9565 12.3405 81.9565C12.593 81.9565 12.7062 81.8304 12.8151 81.7261C12.8586 81.7261 12.9936 81.8652 12.9326 81.9609C12.8847 82.0348 12.6191 82.2565 12.2795 82.2609C11.7397 82.2609 11.6047 81.8 11.6744 81.4696C11.7658 81.0609 12.1751 80.7217 12.5016 80.6957V80.7ZM9.6455 80.987C9.32332 80.987 8.82699 81.9696 9.20577 81.9652C9.61938 81.9652 9.6455 81.1826 9.6455 81.0043V80.987ZM12.6409 80.8913C12.4232 80.9 12.1751 81.3174 12.1533 81.5C12.4798 81.513 12.654 81.1957 12.6757 81.0696C12.6888 80.9739 12.6932 80.887 12.6409 80.887V80.8913Z" fill="white"/>
<path fill-rule="evenodd" clip-rule="evenodd" d="M55.9957 79.5947C56.0385 79.5947 56.077 79.6161 56.0984 79.6504L56.9027 80.8012L57.5615 80.1423C57.6 80.1038 57.6513 80.0953 57.6984 80.1167C57.7455 80.1381 57.7754 80.1808 57.7754 80.2365V81.8963C57.7754 82.0332 57.7198 82.1616 57.6257 82.2557C57.5316 82.3498 57.3989 82.4054 57.2663 82.4054H54.7209C54.584 82.4054 54.4556 82.3498 54.3615 82.2557C54.2674 82.1616 54.2118 82.029 54.2118 81.8963V80.2322C54.2118 80.1808 54.2417 80.1338 54.2888 80.1124C54.3358 80.091 54.3915 80.1038 54.4257 80.1381L55.0845 80.7969L55.8888 79.6461C55.9145 79.6119 55.953 79.5905 55.9915 79.5905L55.9957 79.5947Z" fill="#FFC200"/>
<path d="M55.9957 79.5947C56.0385 79.5947 56.077 79.6161 56.0984 79.6504L56.9027 80.8012L57.5615 80.1423C57.5872 80.1167 57.6171 80.1039 57.6513 80.1039C57.6684 80.1039 57.6856 80.1039 57.6984 80.1124C57.7455 80.1338 57.7754 80.1766 57.7754 80.2322V81.8921C57.7754 82.029 57.7198 82.1573 57.6257 82.2514C57.5316 82.3456 57.3989 82.4012 57.2663 82.4012H54.7209C54.584 82.4012 54.4556 82.3456 54.3615 82.2514C54.2674 82.1573 54.2118 82.0247 54.2118 81.8921L54.2118 80.2322C54.2118 80.1808 54.2417 80.1338 54.2888 80.1124C54.3059 80.1038 54.323 80.1039 54.3358 80.1039C54.3701 80.1039 54.4 80.1167 54.4257 80.1424L55.0845 80.8012L55.8888 79.6504C55.9144 79.6162 55.9529 79.5948 55.9914 79.5948M55.9957 79.3809C55.8845 79.3809 55.7818 79.4365 55.7176 79.5263L55.0588 80.4675L54.5797 79.9883C54.5155 79.9242 54.4299 79.89 54.3401 79.89C54.2973 79.89 54.2503 79.8985 54.2075 79.9156C54.0791 79.967 53.9979 80.091 53.9979 80.2322V81.8921C53.9979 82.0846 54.0749 82.2686 54.2118 82.4055C54.3487 82.5424 54.5283 82.6194 54.7251 82.6194H57.2749C57.4674 82.6194 57.6513 82.5424 57.7882 82.4055C57.9251 82.2686 58.0021 82.0889 58.0021 81.8921V80.2322C58.0021 80.0953 57.9209 79.9712 57.7925 79.9156C57.7497 79.8985 57.707 79.89 57.6642 79.89C57.5743 79.89 57.4888 79.9242 57.4246 79.9883L56.9455 80.4675L56.2781 79.5263C56.2139 79.4365 56.107 79.3809 56 79.3809H55.9957Z" fill="#213743"/>
<path fill-rule="evenodd" clip-rule="evenodd" d="M55.3925 81.0664C55.3284 80.9809 55.3241 80.8611 55.3882 80.7755L56 79.9242V81.8621L55.3968 81.0707L55.3925 81.0664Z" fill="#FF7F00"/>
<path fill-rule="evenodd" clip-rule="evenodd" d="M56.6032 80.7113C56.6674 80.7969 56.6717 80.9167 56.6075 81.0022L55.9957 81.8536V79.9199L56.5989 80.7113H56.6032Z" fill="#FFEBB8"/>
<path d="M26.2231 70.572C25.5151 70.572 24.9811 70.356 24.6091 69.99L25.1731 69.27C25.4491 69.522 25.8271 69.66 26.2111 69.66C26.6491 69.66 26.8651 69.444 26.8651 69.198C26.8651 68.928 26.6551 68.736 26.2411 68.736C25.9231 68.736 25.6711 68.826 25.4491 69.036L24.7351 68.862V66.498H27.6391V67.398H25.7671V68.172C25.9591 67.986 26.2711 67.854 26.6251 67.854C27.3031 67.854 27.9151 68.352 27.9151 69.156C27.9151 70.02 27.2611 70.572 26.2231 70.572ZM29.9443 70.572C28.7743 70.572 28.2283 69.558 28.2283 68.502C28.2283 67.446 28.7743 66.438 29.9443 66.438C31.1143 66.438 31.6603 67.446 31.6603 68.502C31.6603 69.558 31.1143 70.572 29.9443 70.572ZM29.9443 69.66C30.4243 69.66 30.6163 69.21 30.6163 68.502C30.6163 67.794 30.4243 67.35 29.9443 67.35C29.4643 67.35 29.2723 67.794 29.2723 68.502C29.2723 69.21 29.4643 69.66 29.9443 69.66ZM33.6884 70.572C32.5184 70.572 31.9724 69.558 31.9724 68.502C31.9724 67.446 32.5184 66.438 33.6884 66.438C34.8584 66.438 35.4044 67.446 35.4044 68.502C35.4044 69.558 34.8584 70.572 33.6884 70.572ZM33.6884 69.66C34.1684 69.66 34.3604 69.21 34.3604 68.502C34.3604 67.794 34.1684 67.35 33.6884 67.35C33.2084 67.35 33.0164 67.794 33.0164 68.502C33.0164 69.21 33.2084 69.66 33.6884 69.66ZM38.6685 70.5H37.6545L37.0965 69.624L36.5325 70.5H35.5245L36.5145 69.012L35.5845 67.602H36.5985L37.0965 68.388L37.5885 67.602H38.6025L37.6785 69.012L38.6685 70.5Z" fill="#FFEBB8"/>
<path d="M26.2231 70.072C25.5151 70.072 24.9811 69.856 24.6091 69.49L25.1731 68.77C25.4491 69.022 25.8271 69.16 26.2111 69.16C26.6491 69.16 26.8651 68.944 26.8651 68.698C26.8651 68.428 26.6551 68.236 26.2411 68.236C25.9231 68.236 25.6711 68.326 25.4491 68.536L24.7351 68.362V65.998H27.6391V66.898H25.7671V67.672C25.9591 67.486 26.2711 67.354 26.6251 67.354C27.3031 67.354 27.9151 67.852 27.9151 68.656C27.9151 69.52 27.2611 70.072 26.2231 70.072ZM29.9443 70.072C28.7743 70.072 28.2283 69.058 28.2283 68.002C28.2283 66.946 28.7743 65.938 29.9443 65.938C31.1143 65.938 31.6603 66.946 31.6603 68.002C31.6603 69.058 31.1143 70.072 29.9443 70.072ZM29.9443 69.16C30.4243 69.16 30.6163 68.71 30.6163 68.002C30.6163 67.294 30.4243 66.85 29.9443 66.85C29.4643 66.85 29.2723 67.294 29.2723 68.002C29.2723 68.71 29.4643 69.16 29.9443 69.16ZM33.6884 70.072C32.5184 70.072 31.9724 69.058 31.9724 68.002C31.9724 66.946 32.5184 65.938 33.6884 65.938C34.8584 65.938 35.4044 66.946 35.4044 68.002C35.4044 69.058 34.8584 70.072 33.6884 70.072ZM33.6884 69.16C34.1684 69.16 34.3604 68.71 34.3604 68.002C34.3604 67.294 34.1684 66.85 33.6884 66.85C33.2084 66.85 33.0164 67.294 33.0164 68.002C33.0164 68.71 33.2084 69.16 33.6884 69.16ZM38.6685 70H37.6545L37.0965 69.124L36.5325 70H35.5245L36.5145 68.512L35.5845 67.102H36.5985L37.0965 67.888L37.5885 67.102H38.6025L37.6785 68.512L38.6685 70Z" fill="#FF5500"/>
<path d="M7.45 11.3999H5.33V8.0649H6.04V10.7749H7.45V11.3999ZM9.01348 11.4599C8.27848 11.4599 7.72348 10.9649 7.72348 10.1899C7.72348 9.4899 8.23848 8.9249 8.97348 8.9249C9.69348 8.9249 10.1835 9.4649 10.1835 10.2549V10.3949H8.38848C8.42848 10.6999 8.67348 10.9549 9.08348 10.9549C9.28848 10.9549 9.57348 10.8649 9.72848 10.7149L10.0085 11.1249C9.76848 11.3449 9.38848 11.4599 9.01348 11.4599ZM9.56848 9.9649C9.55348 9.7349 9.39348 9.4299 8.97348 9.4299C8.57848 9.4299 8.40848 9.7249 8.37848 9.9649H9.56848ZM11.6321 12.3799C11.2171 12.3799 10.8971 12.2849 10.5921 12.0199L10.8771 11.5599C11.0721 11.7749 11.3271 11.8599 11.6321 11.8599C11.9371 11.8599 12.2971 11.7249 12.2971 11.2499V11.0049C12.1071 11.2449 11.8471 11.3849 11.5521 11.3849C10.9471 11.3849 10.4871 10.9599 10.4871 10.1549C10.4871 9.3649 10.9421 8.9249 11.5521 8.9249C11.8421 8.9249 12.1021 9.0499 12.2971 9.2949V8.9849H12.9371V11.2349C12.9371 12.1549 12.2271 12.3799 11.6321 12.3799ZM11.7521 10.8199C11.9621 10.8199 12.1921 10.6999 12.2971 10.5449V9.7649C12.1921 9.6049 11.9621 9.4899 11.7521 9.4899C11.3921 9.4899 11.1421 9.7399 11.1421 10.1549C11.1421 10.5699 11.3921 10.8199 11.7521 10.8199ZM14.702 11.4599C13.967 11.4599 13.412 10.9649 13.412 10.1899C13.412 9.4899 13.927 8.9249 14.662 8.9249C15.382 8.9249 15.872 9.4649 15.872 10.2549V10.3949H14.077C14.117 10.6999 14.362 10.9549 14.772 10.9549C14.977 10.9549 15.262 10.8649 15.417 10.7149L15.697 11.1249C15.457 11.3449 15.077 11.4599 14.702 11.4599ZM15.257 9.9649C15.242 9.7349 15.082 9.4299 14.662 9.4299C14.267 9.4299 14.097 9.7249 14.067 9.9649H15.257ZM18.5956 11.3999H17.9606V9.9399C17.9606 9.6049 17.7856 9.4899 17.5156 9.4899C17.2656 9.4899 17.0706 9.6299 16.9656 9.7749V11.3999H16.3306V8.9849H16.9656V9.2999C17.1206 9.1149 17.4156 8.9249 17.8106 8.9249C18.3406 8.9249 18.5956 9.2249 18.5956 9.6949V11.3999ZM21.5261 11.3999H20.8861V11.0899C20.6961 11.3299 20.4311 11.4599 20.1411 11.4599C19.5311 11.4599 19.0711 10.9999 19.0711 10.1949C19.0711 9.4049 19.5261 8.9249 20.1411 8.9249C20.4261 8.9249 20.6961 9.0499 20.8861 9.2949V8.0649H21.5261V11.3999ZM20.3361 10.8949C20.5511 10.8949 20.7811 10.7799 20.8861 10.6199V9.7649C20.7811 9.6049 20.5511 9.4899 20.3361 9.4899C19.9761 9.4899 19.7261 9.7749 19.7261 10.1949C19.7261 10.6099 19.9761 10.8949 20.3361 10.8949ZM24.2408 11.3999H23.6058V11.1499C23.4408 11.3449 23.1558 11.4599 22.8408 11.4599C22.4558 11.4599 22.0008 11.1999 22.0008 10.6599C22.0008 10.0949 22.4558 9.8799 22.8408 9.8799C23.1608 9.8799 23.4458 9.9849 23.6058 10.1749V9.8499C23.6058 9.6049 23.3958 9.4449 23.0758 9.4449C22.8158 9.4449 22.5758 9.5399 22.3708 9.7299L22.1308 9.3049C22.4258 9.0449 22.8058 8.9249 23.1858 8.9249C23.7358 8.9249 24.2408 9.1449 24.2408 9.8399V11.3999ZM23.0958 11.0299C23.3008 11.0299 23.5008 10.9599 23.6058 10.8199V10.5199C23.5008 10.3799 23.3008 10.3099 23.0958 10.3099C22.8458 10.3099 22.6408 10.4399 22.6408 10.6749C22.6408 10.8999 22.8458 11.0299 23.0958 11.0299ZM25.5057 11.3999H24.8707V8.9849H25.5057V9.3149C25.6757 9.0999 25.9757 8.9249 26.2757 8.9249V9.5449C26.2307 9.5349 26.1707 9.5299 26.1007 9.5299C25.8907 9.5299 25.6107 9.6499 25.5057 9.8049V11.3999ZM26.5874 12.3449L26.6824 11.7749C26.7374 11.7999 26.8224 11.8149 26.8824 11.8149C27.0474 11.8149 27.1574 11.7699 27.2174 11.6399L27.3074 11.4349L26.3274 8.9849H27.0074L27.6374 10.6649L28.2674 8.9849H28.9524L27.8174 11.7949C27.6374 12.2499 27.3174 12.3699 26.9024 12.3799C26.8274 12.3799 26.6674 12.3649 26.5874 12.3449Z" fill="#FF5500"/>
<path d="M7.45 11H5.33V7.665H6.04V10.375H7.45V11ZM9.01348 11.06C8.27848 11.06 7.72348 10.565 7.72348 9.79C7.72348 9.09 8.23848 8.525 8.97348 8.525C9.69348 8.525 10.1835 9.065 10.1835 9.855V9.995H8.38848C8.42848 10.3 8.67348 10.555 9.08348 10.555C9.28848 10.555 9.57348 10.465 9.72848 10.315L10.0085 10.725C9.76848 10.945 9.38848 11.06 9.01348 11.06ZM9.56848 9.565C9.55348 9.335 9.39348 9.03 8.97348 9.03C8.57848 9.03 8.40848 9.325 8.37848 9.565H9.56848ZM11.6321 11.98C11.2171 11.98 10.8971 11.885 10.5921 11.62L10.8771 11.16C11.0721 11.375 11.3271 11.46 11.6321 11.46C11.9371 11.46 12.2971 11.325 12.2971 10.85V10.605C12.1071 10.845 11.8471 10.985 11.5521 10.985C10.9471 10.985 10.4871 10.56 10.4871 9.755C10.4871 8.965 10.9421 8.525 11.5521 8.525C11.8421 8.525 12.1021 8.65 12.2971 8.895V8.585H12.9371V10.835C12.9371 11.755 12.2271 11.98 11.6321 11.98ZM11.7521 10.42C11.9621 10.42 12.1921 10.3 12.2971 10.145V9.365C12.1921 9.205 11.9621 9.09 11.7521 9.09C11.3921 9.09 11.1421 9.34 11.1421 9.755C11.1421 10.17 11.3921 10.42 11.7521 10.42ZM14.702 11.06C13.967 11.06 13.412 10.565 13.412 9.79C13.412 9.09 13.927 8.525 14.662 8.525C15.382 8.525 15.872 9.065 15.872 9.855V9.995H14.077C14.117 10.3 14.362 10.555 14.772 10.555C14.977 10.555 15.262 10.465 15.417 10.315L15.697 10.725C15.457 10.945 15.077 11.06 14.702 11.06ZM15.257 9.565C15.242 9.335 15.082 9.03 14.662 9.03C14.267 9.03 14.097 9.325 14.067 9.565H15.257ZM18.5956 11H17.9606V9.54C17.9606 9.205 17.7856 9.09 17.5156 9.09C17.2656 9.09 17.0706 9.23 16.9656 9.375V11H16.3306V8.585H16.9656V8.9C17.1206 8.715 17.4156 8.525 17.8106 8.525C18.3406 8.525 18.5956 8.825 18.5956 9.295V11ZM21.5261 11H20.8861V10.69C20.6961 10.93 20.4311 11.06 20.1411 11.06C19.5311 11.06 19.0711 10.6 19.0711 9.795C19.0711 9.005 19.5261 8.525 20.1411 8.525C20.4261 8.525 20.6961 8.65 20.8861 8.895V7.665H21.5261V11ZM20.3361 10.495C20.5511 10.495 20.7811 10.38 20.8861 10.22V9.365C20.7811 9.205 20.5511 9.09 20.3361 9.09C19.9761 9.09 19.7261 9.375 19.7261 9.795C19.7261 10.21 19.9761 10.495 20.3361 10.495ZM24.2408 11H23.6058V10.75C23.4408 10.945 23.1558 11.06 22.8408 11.06C22.4558 11.06 22.0008 10.8 22.0008 10.26C22.0008 9.695 22.4558 9.48 22.8408 9.48C23.1608 9.48 23.4458 9.585 23.6058 9.775V9.45C23.6058 9.205 23.3958 9.045 23.0758 9.045C22.8158 9.045 22.5758 9.14 22.3708 9.33L22.1308 8.905C22.4258 8.645 22.8058 8.525 23.1858 8.525C23.7358 8.525 24.2408 8.745 24.2408 9.44V11ZM23.0958 10.63C23.3008 10.63 23.5008 10.56 23.6058 10.42V10.12C23.5008 9.98 23.3008 9.91 23.0958 9.91C22.8458 9.91 22.6408 10.04 22.6408 10.275C22.6408 10.5 22.8458 10.63 23.0958 10.63ZM25.5057 11H24.8707V8.585H25.5057V8.915C25.6757 8.7 25.9757 8.525 26.2757 8.525V9.145C26.2307 9.135 26.1707 9.13 26.1007 9.13C25.8907 9.13 25.6107 9.25 25.5057 9.405V11ZM26.5874 11.945L26.6824 11.375C26.7374 11.4 26.8224 11.415 26.8824 11.415C27.0474 11.415 27.1574 11.37 27.2174 11.24L27.3074 11.035L26.3274 8.585H27.0074L27.6374 10.265L28.2674 8.585H28.9524L27.8174 11.395C27.6374 11.85 27.3174 11.97 26.9024 11.98C26.8274 11.98 26.6674 11.965 26.5874 11.945Z" fill="white"/>
<g clip-path="url(#clip2_26835_29170)">
<path d="M34.9933 4C34.4047 4.92308 33.9231 5.40468 33 5.99331C33.9231 6.58194 34.4047 7.06355 34.9933 7.98662C35.5819 7.06355 36.0635 6.58194 36.9866 5.99331C36.0635 5.40468 35.5819 4.92308 34.9933 4Z" fill="white"/>
</g>
<defs>
<linearGradient id="paint0_linear_26835_29170" x1="31.5" y1="0" x2="31.5" y2="88" gradientUnits="userSpaceOnUse">
<stop stop-color="#FFC200"/>
<stop offset="1" stop-color="#FF7F00"/>
</linearGradient>
<linearGradient id="paint1_linear_26835_29170" x1="71.86" y1="33.4901" x2="11.77" y2="93.5901" gradientUnits="userSpaceOnUse">
<stop stop-color="white" stop-opacity="0"/>
<stop offset="1" stop-color="white"/>
</linearGradient>
<linearGradient id="paint2_linear_26835_29170" x1="48.23" y1="9.85996" x2="-11.87" y2="69.96" gradientUnits="userSpaceOnUse">
<stop stop-color="white" stop-opacity="0"/>
<stop offset="1" stop-color="white"/>
</linearGradient>
<linearGradient id="paint3_linear_26835_29170" x1="86.07" y1="47.6998" x2="25.97" y2="107.79" gradientUnits="userSpaceOnUse">
<stop stop-color="white" stop-opacity="0"/>
<stop offset="1" stop-color="white"/>
</linearGradient>
<linearGradient id="paint4_linear_26835_29170" x1="31.5" y1="75" x2="31.5" y2="62" gradientUnits="userSpaceOnUse">
<stop stop-color="#FFFEFC"/>
<stop offset="1" stop-color="#FFC200"/>
</linearGradient>
<linearGradient id="paint5_linear_26835_29170" x1="31.5" y1="84.47" x2="31.5" y2="3.96" gradientUnits="userSpaceOnUse">
<stop stop-color="#FF8913"/>
<stop offset="1" stop-color="#FFC200"/>
</linearGradient>
<linearGradient id="paint6_linear_26835_29170" x1="24.0002" y1="38.7727" x2="23.9901" y2="38.8327" gradientUnits="userSpaceOnUse">
<stop stop-color="#EFEDE2" stop-opacity="0.4"/>
<stop offset="1" stop-color="#DDD6BB"/>
</linearGradient>
<linearGradient id="paint7_linear_26835_29170" x1="31.5" y1="28.6401" x2="31.5" y2="65.8701" gradientUnits="userSpaceOnUse">
<stop stop-color="#FF5500"/>
<stop offset="1" stop-color="#FFC200"/>
</linearGradient>
<clipPath id="clip0_26835_29170">
<rect width="63" height="88" fill="white"/>
</clipPath>
<clipPath id="clip1_26835_29170">
<rect width="63" height="88" fill="white"/>
</clipPath>
<clipPath id="clip2_26835_29170">
<rect width="4" height="4" fill="white" transform="translate(33 4)"/>
</clipPath>
</defs>
</svg>
