<svg width="63" height="88" viewBox="0 0 63 88" fill="none" xmlns="http://www.w3.org/2000/svg">
<rect width="63" height="88" rx="4" fill="url(#paint0_linear_26835_29172)"/>
<g clip-path="url(#clip0_26835_29172)">
<g clip-path="url(#clip1_26835_29172)">
<path d="M56.54 0.560059H6.45999C3.11315 0.560059 0.399994 3.27321 0.399994 6.62006V81.3801C0.399994 84.7269 3.11315 87.4401 6.45999 87.4401H56.54C59.8868 87.4401 62.6 84.7269 62.6 81.3801V6.62006C62.6 3.27321 59.8868 0.560059 56.54 0.560059Z" fill="#FF7F00"/>
<g opacity="0.2">
<mask id="mask0_26835_29172" style="mask-type:luminance" maskUnits="userSpaceOnUse" x="0" y="0" width="63" height="88">
<path d="M56.54 0.560059H6.45999C3.11315 0.560059 0.399994 3.27321 0.399994 6.62006V81.3801C0.399994 84.7269 3.11315 87.4401 6.45999 87.4401H56.54C59.8868 87.4401 62.6 84.7269 62.6 81.3801V6.62006C62.6 3.27321 59.8868 0.560059 56.54 0.560059Z" fill="white"/>
</mask>
<g mask="url(#mask0_26835_29172)">
<path d="M68.37 47.3101V26.6401L4.45999 90.5501H25.13L68.37 47.3101Z" fill="url(#paint1_linear_26835_29172)"/>
<path d="M64.66 -2.29004H55.22L-2.92001 55.84V66.18L65.46 -2.20004C65.2 -2.26004 64.93 -2.29004 64.66 -2.29004Z" fill="url(#paint2_linear_26835_29172)"/>
<path d="M68.37 69.2298V61.5498L39.37 90.5498H47.05L68.37 69.2298Z" fill="url(#paint3_linear_26835_29172)"/>
</g>
</g>
<path d="M18.47 62H44.52C48.42 62 51.58 65.36 51.58 69.49C51.58 73.63 48.42 76.98 44.52 76.98H18.47C14.57 76.98 11.41 73.62 11.41 69.49C11.41 65.35 14.57 62 18.47 62Z" fill="#FF5500"/>
<path d="M30.21 76.9901H34.87L37.02 74.8701H32.36L30.21 76.9901Z" fill="#FFC200"/>
<path d="M19.5 62H43.5C47.09 62 50 64.91 50 68.5C50 72.09 47.09 75 43.5 75H19.5C15.91 75 13 72.09 13 68.5C13 64.91 15.91 62 19.5 62Z" fill="#FFC200"/>
<path d="M28.02 63.04C28.02 63.04 30.11 65.5 32.06 64.7C36.49 62.88 35.71 65.37 35.71 65.37C35.71 65.37 41.32 67.52 42.87 64.28C42.87 64.28 45.46 64.56 46.62 62.9L44.52 62L28.01 62.11V63.04H28.02Z" fill="#FF5500"/>
<path d="M43.5 62.5C46.81 62.5 49.5 65.19 49.5 68.5C49.5 71.81 46.81 74.5 43.5 74.5H19.5C16.19 74.5 13.5 71.81 13.5 68.5C13.5 65.19 16.19 62.5 19.5 62.5H43.5ZM43.5 62H19.5C15.91 62 13 64.91 13 68.5C13 72.09 15.91 75 19.5 75H43.5C47.09 75 50 72.09 50 68.5C50 64.91 47.09 62 43.5 62Z" fill="url(#paint4_linear_26835_29172)"/>
<path d="M49.6064 68.2235C50.1926 67.8484 50.0042 66.5073 49.1857 65.2279C48.3672 63.9486 47.2285 63.2155 46.6423 63.5905C46.0562 63.9655 46.2445 65.3067 47.063 66.586C47.8815 67.8654 49.0202 68.5985 49.6064 68.2235Z" fill="white"/>
<path d="M59 0H4C1.79 0 0 1.79 0 4V84C0 86.21 1.79 88 4 88H59C61.21 88 63 86.21 63 84V4C63 1.79 61.21 0 59 0ZM61 82.81C61 84.57 59.57 86 57.81 86H5.19C3.43 86 2 84.57 2 82.81V18.19C2 16.43 3.43 15 5.19 15H33.59C34.8 15 35.94 14.45 36.7 13.51L44.8 3.48C45.56 2.54 46.7 1.99 47.91 1.99H57.81C59.57 1.99 61 3.42 61 5.18V82.8V82.81Z" fill="url(#paint5_linear_26835_29172)"/>
<mask id="mask1_26835_29172" style="mask-type:luminance" maskUnits="userSpaceOnUse" x="0" y="0" width="63" height="88">
<path d="M59 0H4C1.79 0 0 1.79 0 4V84C0 86.21 1.79 88 4 88H59C61.21 88 63 86.21 63 84V4C63 1.79 61.21 0 59 0ZM61 82.81C61 84.57 59.57 86 57.81 86H5.19C3.43 86 2 84.57 2 82.81V18.19C2 16.43 3.43 15 5.19 15H33.59C34.8 15 35.94 14.45 36.7 13.51L44.8 3.48C45.56 2.54 46.7 1.99 47.91 1.99H57.81C59.57 1.99 61 3.42 61 5.18V82.8V82.81Z" fill="white"/>
</mask>
<g mask="url(#mask1_26835_29172)">
<path d="M68.37 47.3101V26.6401L4.46001 90.5501H25.13L68.37 47.3101Z" fill="white"/>
<path d="M64.66 -2.29004H55.22L-2.92 55.84V66.18L65.46 -2.20004C65.2 -2.26004 64.93 -2.29004 64.66 -2.29004Z" fill="white"/>
<path d="M68.37 69.2298V61.5498L39.37 90.5498H47.05L68.37 69.2298Z" fill="white"/>
</g>
<path d="M7.45 54.23C6.7 55.4 6.08 56.01 4.91 56.77C6.08 57.52 6.69 58.14 7.45 59.31C8.2 58.14 8.82 57.53 9.99 56.77C8.82 56.02 8.21 55.4 7.45 54.23Z" fill="white"/>
<path d="M56.65 17.77C56.05 18.7 55.57 19.18 54.64 19.78C55.57 20.38 56.05 20.86 56.65 21.79C57.25 20.86 57.73 20.38 58.66 19.78C57.73 19.18 57.25 18.7 56.65 17.77Z" fill="white"/>
<path d="M21.14 37.4602C21.14 37.4602 17.81 24.3902 19.02 22.1602C20.23 19.9302 26.81 25.8602 26.81 25.8602C26.81 25.8602 25.61 35.5702 21.14 37.4602Z" fill="#FFEBB8"/>
<path d="M23.85 54.3102C23.27 52.8802 22.2 51.6502 21.73 50.7102C21.19 49.6302 20.03 48.9502 18.95 49.1202C18.22 49.2402 17.63 49.4502 17.16 49.6802C16.28 50.1202 15.86 51.1502 16.13 52.2102C16.68 54.3802 17.55 55.9102 18.29 56.9102C19.04 57.9102 20.32 58.3302 21.32 57.8802C21.8 57.6602 22.71 57.3702 23.09 57.1302C23.99 56.5802 24.3 55.4102 23.85 54.3002V54.3102Z" fill="#FF5500"/>
<path d="M21.22 57.5101L23.29 59.1701L24.57 57.7401L22.58 56.3701L21.22 57.5101Z" fill="#FF5500"/>
<path d="M21.17 54.7302C21.17 54.7302 16.48 27.4802 28.01 19.7102C39.54 11.9402 49.74 18.3302 56.36 36.3202C56.36 36.3202 60.84 56.2802 44.67 60.9502C28.5 65.6202 21.17 54.7302 21.17 54.7302Z" fill="white"/>
<path d="M37.06 49.5898C37.06 49.5898 36.24 54.9598 32.75 58.2398C32.75 58.2398 35.75 58.5698 37.39 60.2098L31.51 62.4598L26.64 60.0798L27.69 55.7998L37.07 49.5998L37.06 49.5898Z" fill="#2F2D2A"/>
<path d="M55.11 47.5698C55.11 47.5698 54.22 48.6598 54.22 50.0398L56.33 50.9198L56.65 48.1698L55.11 47.5698Z" fill="#FF5500"/>
<path d="M51.5 54.6699C51.5 54.6699 50.32 55.4499 49.91 56.7599L51.66 58.2399L52.8 55.7099L51.51 54.6699H51.5Z" fill="#FF5500"/>
<path d="M43.4 59.3902C43.4 59.3902 41.99 59.3402 40.89 60.1702L41.46 62.3902L43.85 60.9802L43.39 59.3902H43.4Z" fill="#FF5500"/>
<path d="M34.12 60.4201C34.12 60.4201 32.96 59.6201 31.59 59.7201L30.87 61.8901L33.64 62.0001L34.12 60.4101V60.4201Z" fill="#FF5500"/>
<path d="M27.91 25.55C29.65 25.96 33.15 23.61 36.8 23.07C34.88 22.13 30.34 22.57 27.91 25.55Z" fill="#DFEAF0"/>
<path d="M49.54 29.37C49.54 29.37 52.1 16.88 50.96 14.49C49.82 12.11 42.44 18.4 42.44 18.4C42.44 18.4 46.06 29.39 49.55 29.36L49.54 29.37Z" fill="white"/>
<path d="M31.37 20.2498C31.37 20.2498 30.59 16.9998 30.71 15.9698C30.83 14.9398 32.76 14.1198 32.76 14.1198L32.32 11.8198L33.26 11.3198L34.1 14.4098C34.2 14.7898 33.98 15.1998 33.59 15.3198C33.06 15.4898 32.4 15.7698 32.22 16.1098C31.89 16.7098 32.93 18.8598 32.93 18.8598L31.37 20.2298V20.2498Z" fill="white"/>
<path d="M33.1795 12.0011C34.0982 11.5294 34.4749 10.43 34.0208 9.54568C33.5667 8.66134 32.4538 8.32688 31.535 8.79864C30.6163 9.2704 30.2397 10.3697 30.6938 11.2541C31.1479 12.1384 32.2607 12.4729 33.1795 12.0011Z" fill="white"/>
<path d="M34 45.28C37.01 45.15 42.42 47.28 39.74 48.01C37.06 48.74 34.31 48.67 33.72 48.28C33.13 47.89 31.19 45.39 33.99 45.27L34 45.28Z" fill="#2F2D2A"/>
<path d="M25.35 35.5501C27.11 40.4201 32.66 42.9101 37.74 41.1101C42.82 39.3101 45.52 33.9001 43.76 29.0301C42 24.1601 35.58 25.8601 30.5 27.6601C25.42 29.4601 23.59 30.6801 25.35 35.5501Z" fill="#DFEAF0"/>
<path d="M24.13 33.8701C25.74 38.7901 30.78 41.7901 35.99 40.3901C41.2 38.9901 44.34 33.8001 42.99 28.8001C41.65 23.8001 38.71 25.2601 33.5 26.6601C28.29 28.0601 22.85 29.9601 24.12 33.8701H24.13Z" fill="#FF5500"/>
<path d="M24.43 33.1801C25.9 37.6301 30.61 40.2201 35.3 38.8501C39.99 37.4901 42.54 34.1101 41.58 28.8001C40.86 24.8401 38.71 25.1001 34.02 26.4601C29.33 27.8201 23.12 29.2101 24.43 33.1801Z" fill="#FFC200"/>
<path d="M25.73 31.7102C26.2 30.9602 31.11 29.7502 33.67 31.3702C36.23 32.9902 35.46 36.8002 34.99 37.5502C34.52 38.3002 31.36 38.7702 28.8 37.1602C26.24 35.5502 25.26 32.4702 25.73 31.7102Z" fill="#2F2D2A"/>
<path d="M28.8 34.9998C28.67 34.1198 30.98 33.0398 33.97 32.5798C36.96 32.1198 39.49 32.4698 39.62 33.3498C39.75 34.2298 37.67 36.6498 34.69 37.1098C31.71 37.5698 28.94 35.8798 28.81 34.9998H28.8Z" fill="#FF5500"/>
<path d="M40.65 27.2001L41.52 32.0901C41.52 32.0901 44.1 31.5101 44.34 30.5701C44.58 29.6301 44.47 26.3201 42.92 26.6801C41.37 27.0401 40.66 27.2101 40.66 27.2101L40.65 27.2001Z" fill="#FFC200"/>
<path d="M34.3862 28.9589C36.2822 28.482 37.7428 27.7914 37.6485 27.4165C37.5541 27.0416 35.9407 27.1243 34.0446 27.6012C32.1486 28.0782 30.6881 28.7688 30.7824 29.1437C30.8767 29.5186 32.4902 29.4359 34.3862 28.9589Z" fill="white"/>
<path d="M40.79 26.6001C40.19 27.5301 39.71 28.0101 38.78 28.6101C39.71 29.2101 40.19 29.6901 40.79 30.6201C41.39 29.6901 41.87 29.2101 42.8 28.6101C41.87 28.0101 41.39 27.5301 40.79 26.6001Z" fill="white"/>
<path d="M24.79 32.9302C24.79 32.9302 22.87 33.5602 23.22 34.5302C23.57 35.5002 24.46 37.0602 25.19 37.3002C25.92 37.5402 27.46 36.8802 27.46 36.8802L24.79 32.9302Z" fill="#FFC200"/>
<path d="M20.79 35.2598L20.09 35.3798C19.76 35.4398 19.51 35.6998 19.48 36.0098L19.34 37.1598C19.3 37.5098 19.61 37.8098 19.98 37.7498C20.38 37.6898 20.93 37.5398 21.6 37.1998L20.79 35.2598Z" fill="#557086"/>
<path d="M47.28 26.1498C47.28 26.1498 49.33 25.3598 51.55 25.2098C51.93 25.1798 52.28 25.3998 52.42 25.7298L52.84 26.7298C52.97 27.0398 52.76 27.3898 52.41 27.4398C51.42 27.5598 49.53 27.8698 47.86 28.6098L47.28 26.1398V26.1498Z" fill="url(#paint6_linear_26835_29172)"/>
<path d="M47.34 26.0999L48.07 25.8799C48.07 25.8799 48.7 26.5899 49.14 28.1299L48.14 28.4899L47.34 26.0899V26.0999Z" fill="#2F2D2A"/>
<path d="M47.9 29.6798L47.27 29.8998C46.82 30.0598 46.32 29.8398 46.16 29.3998L45.26 26.9298C45.1 26.4998 45.34 26.0098 45.8 25.8498L46.43 25.6298C46.88 25.4698 47.38 25.6898 47.54 26.1298L48.44 28.5998C48.6 29.0298 48.36 29.5198 47.9 29.6798Z" fill="#FFC200"/>
<path d="M22.45 38.1201L21.96 38.2301C21.52 38.3301 21.08 38.0701 20.98 37.6501L20.36 35.0001C20.26 34.5801 20.54 34.1401 20.98 34.0401L21.47 33.9301C21.91 33.8301 22.35 34.0901 22.45 34.5101L23.07 37.1601C23.17 37.5801 22.89 38.0201 22.45 38.1201Z" fill="#2F2D2A"/>
<path d="M54.88 38.26C54.88 38.26 54.15 41.73 55.44 42.17L55.23 43.92C55.23 43.92 54.59 43.86 54.34 45.63C54.14 47.05 54.1 48.16 54.92 48.53C55.74 48.9 58.12 48.64 58.47 48.41C58.87 48.15 59.54 47.52 59.6 45.64C59.66 43.76 59 43.11 58.3 43.19L58.46 41.67C58.46 41.67 59.4 41.39 59.54 39.62C59.68 37.85 59.01 36.58 57.93 36.39C57.93 36.39 58.24 33.29 56.88 32.22C55.52 31.15 54.63 32.07 54.63 32.07C54.63 32.07 55.56 33.94 55.8 36.62C55.8 36.62 55.1 36.44 54.9 38.27L54.88 38.26Z" fill="url(#paint7_linear_26835_29172)"/>
<path d="M43.44 27.4401C44 27.2501 45.14 26.8701 45.87 26.7001C46.01 26.6701 46.14 26.7501 46.18 26.8901L46.77 28.7501C46.81 28.8701 46.75 29.0001 46.63 29.0401L44.05 30.1201C43.87 30.2001 43.66 30.0901 43.62 29.9001L43.17 27.9201C43.12 27.7201 43.23 27.5201 43.43 27.4501L43.44 27.4401Z" fill="#FF5500"/>
<path d="M58.44 39.96C58.7493 39.96 59 39.4003 59 38.71C59 38.0196 58.7493 37.46 58.44 37.46C58.1307 37.46 57.88 38.0196 57.88 38.71C57.88 39.4003 58.1307 39.96 58.44 39.96Z" fill="white"/>
<path d="M48.05 29.0402C47.98 29.2802 47.76 29.4002 47.62 29.3602C47.48 29.3202 47.43 29.0902 47.51 28.8502C47.59 28.6102 47.75 28.4402 47.89 28.4902C48.03 28.5402 48.12 28.8102 48.05 29.0502V29.0402Z" fill="white"/>
<path d="M55.06 49.4201C55.73 49.7201 56.51 50.1301 57.17 50.6501C57.93 51.2501 58.18 52.3501 57.78 53.2901C57.36 54.2801 56.69 55.6101 55.75 56.6901C55.08 57.4501 53.99 57.5701 53.19 57.0001C52.69 56.6501 52.13 56.1801 51.63 55.6201C51.13 55.0601 50.95 54.1601 51.22 53.3801C51.51 52.5501 51.96 51.3901 52.54 50.3501C53.07 49.4101 54.14 49.0101 55.07 49.4301L55.06 49.4201Z" fill="#FFC200"/>
<path d="M44.45 58.0199C45.29 57.5199 46.44 56.8799 47.74 56.2399C48.74 55.7499 49.95 55.9799 50.65 56.7999C50.95 57.1499 51.28 57.5599 51.57 57.9999C52.19 58.9199 52.01 60.1699 51.16 60.9299C50.31 61.6899 48.96 62.5999 46.93 63.2499C45.94 63.5599 44.85 63.2299 44.26 62.4099C43.95 61.9799 43.63 61.4299 43.39 60.7399C43.03 59.7199 43.48 58.5799 44.45 58.0099V58.0199Z" fill="#FFC200"/>
<path d="M39.67 59.5998C38.1 59.4498 36.66 59.3898 35.59 59.3598C34.36 59.3298 33.22 60.0598 32.89 61.1098C32.67 61.8198 32.6 62.4598 32.6 62.9898C32.6 63.9898 33.35 64.8498 34.44 65.1198C36.67 65.6498 38.46 65.5998 39.71 65.3998C40.96 65.1998 41.92 64.2398 41.96 63.1298C41.98 62.5998 41.96 62.0798 41.91 61.6198C41.81 60.5498 40.88 59.7198 39.67 59.5998Z" fill="#FFC200"/>
<path d="M30.84 58.63C29.57 57.76 28 57.31 27.09 56.78C26.05 56.17 24.71 56.24 23.89 56.98C23.35 57.48 22.97 57.98 22.7 58.43C22.2 59.28 22.42 60.37 23.22 61.11C24.87 62.62 26.44 63.43 27.61 63.86C28.79 64.29 30.09 63.93 30.68 63.01C30.96 62.57 31.56 61.83 31.75 61.41C32.19 60.46 31.81 59.31 30.83 58.63H30.84Z" fill="#FFC200"/>
<path d="M32.48 55.8999C28.55 59.3399 25.17 59.6299 23.67 58.0299C22.17 56.4299 23.12 53.5299 27.05 50.0899C30.98 46.6499 35.38 45.1599 36.88 46.7599C38.38 48.3599 36.41 52.4599 32.48 55.8999Z" fill="#FF5500"/>
<path d="M27.68 49.5502C27.68 49.5502 30.15 49.0402 31.25 51.2102C33.01 54.6702 31.33 56.8202 31.33 56.8202C31.33 56.8202 32.93 55.7502 33.6 54.8402C33.6 54.8402 34.33 52.7902 32.66 50.2102C31.23 48.0002 29.07 48.5002 29.07 48.5002C29.07 48.5002 28.08 49.1402 27.67 49.5502H27.68Z" fill="#FFC200"/>
<path d="M26.6761 58.0754C27.3488 57.4688 27.3695 56.3953 26.7222 55.6775C26.075 54.9597 25.005 54.8695 24.3324 55.476C23.6597 56.0825 23.6391 57.1561 24.2863 57.8739C24.9335 58.5917 26.0035 58.6819 26.6761 58.0754Z" fill="#2F2D2A"/>
<path d="M56.19 46.0999C56.19 46.0999 55.81 50.3599 54.63 51.7399C54.63 51.7399 55.8 52.8799 56.71 51.8099C57.62 50.7399 59.39 44.3099 56.19 46.0999Z" fill="#FFEBB8"/>
<path d="M35.3 61.5998C35.3 61.5998 30.64 61.1598 29.21 60.0098C29.21 60.0098 27.88 61.1198 28.99 62.0198C30.1 62.9198 37.05 64.7198 35.3 61.6098V61.5998Z" fill="#FFEBB8"/>
<path d="M53.4 53.8302C53.4 53.8302 50.79 57.8402 49.04 58.6402C49.04 58.6402 49.44 60.3102 50.8 59.6902C52.16 59.0702 57.13 53.5702 53.4 53.8302Z" fill="#FFEBB8"/>
<path d="M46.01 60.0698C46.01 60.0698 41.12 62.0298 39.08 61.6698C39.08 61.6698 38.33 63.4098 39.92 63.6898C41.51 63.9698 49.41 62.1298 46.01 60.0698Z" fill="#FFEBB8"/>
<path d="M49.2 58.0102C49.2 58.0102 48.9 57.6902 47.4 58.4502C45.9 59.2102 45.44 59.6602 45.6 59.8202C45.6 59.8202 46.82 59.5602 47.38 60.4002C47.94 61.2402 46.58 61.9902 46.58 61.9902C46.58 61.9902 47.25 61.9702 48.75 61.0502C50.25 60.1302 49.9 60.0602 49.9 60.0602C49.9 60.0602 49.08 60.2202 48.87 59.5202C48.66 58.8202 48.55 58.2802 49.19 58.0002L49.2 58.0102Z" fill="#FF5500"/>
<path d="M38.4 62.7698C38.29 61.8898 38.53 61.3598 39.34 61.4398C39.34 61.4398 39.47 61.1098 37.52 61.0298C35.57 60.9498 34.84 60.9898 34.92 61.2398C34.92 61.2398 36.31 61.6598 36.39 62.8198C36.47 63.9798 34.68 63.7198 34.68 63.7198C34.68 63.7198 35.37 64.3098 37.41 64.2298C39.45 64.1598 39.45 64.0398 39.45 64.0398C39.45 64.0398 38.51 63.6098 38.41 62.7698H38.4Z" fill="#FF5500"/>
<path d="M26.03 59.9102C26.03 59.9102 27.64 60.0302 28.55 59.5102C28.55 59.5102 29.28 58.9802 29.6 59.7002C29.6 59.7002 28.33 59.5602 27.81 60.5002C27.29 61.4402 28.54 62.2402 28.54 62.2402C28.54 62.2402 24.77 61.0402 25.92 59.8902" fill="#FF5500"/>
<path d="M52.79 53.8202C52.79 53.8202 53.62 50.7402 54.63 50.9202C54.63 50.9202 53.91 52.2102 54.85 52.5402C55.79 52.8702 56.44 52.6802 56.75 52.3702C56.75 52.3702 56.33 54.2602 55.08 55.1502C55.08 55.1502 55.4 53.6302 54.63 53.3102C53.86 52.9902 53.24 53.3702 52.79 53.8202Z" fill="#FF5500"/>
<path d="M35.6422 62.9761C35.9307 62.7915 35.9522 62.31 35.6903 61.9007C35.4283 61.4913 34.9822 61.309 34.6937 61.4935C34.4053 61.678 34.3838 62.1595 34.6457 62.5689C34.9076 62.9783 35.3538 63.1606 35.6422 62.9761Z" fill="white"/>
<path d="M40.81 60.53C40.78 60.78 40.06 60.89 39.22 60.77C38.38 60.65 38.34 60.36 38.37 60.11C38.4 59.86 38.5 59.75 39.34 59.87C40.18 59.99 40.84 60.28 40.81 60.53Z" fill="white"/>
<path d="M42.5954 62.0308C43.4 61.8868 44.0317 61.6554 44.0064 61.5141C43.9811 61.3727 43.3083 61.3749 42.5037 61.519C41.6991 61.663 41.0674 61.8944 41.0927 62.0357C41.118 62.1771 41.7908 62.1749 42.5954 62.0308Z" fill="white"/>
<path d="M55.94 45.5999C55.94 45.5999 55.85 44.6099 57.28 44.6099C58.71 44.6099 58.55 45.7899 58.55 45.7899C58.55 45.7899 57.64 44.7299 55.94 45.5999Z" fill="#FF5500"/>
<mask id="mask2_26835_29172" style="mask-type:luminance" maskUnits="userSpaceOnUse" x="0" y="18" width="30" height="42">
<path d="M2 18.9702V28.9202H0V48.1902H12.15V59.3902H29.28V18.2402L2 18.9702Z" fill="white"/>
</mask>
<g mask="url(#mask2_26835_29172)">
<path d="M14.42 53.1802C13.71 51.7802 14.24 49.8902 15.3 48.5102C16.36 47.1302 17.86 46.1302 19.29 45.1102C20.72 44.0902 22.15 42.9602 22.85 41.5602C23.36 40.5502 23.32 39.2502 22.21 38.7402C21.55 38.4402 20.71 38.5202 19.93 38.5202C17.77 38.5202 15.66 37.7502 14.34 36.3702C13.94 36.9902 13.12 37.3502 12.33 37.5102C11.55 37.6802 10.75 37.7002 9.98 37.8902C8.13 38.3502 6.67 39.7502 5.23 40.9802C3.78 42.2002 2.05 43.3702 0.609996 42.9702C-0.630004 42.6302 -1.35 41.0902 -1.37 39.4402C-1.38 37.8002 -0.750004 36.1202 0.159996 34.7002C0.839996 33.6302 1.67 32.6602 2.34 31.6202C3.01 30.5702 3.51 29.3902 3.33 28.3302C3.15 27.2702 2.08 26.3602 0.859996 26.5702C0.129996 26.7002 -0.500004 27.1802 -1.14 27.5602C-1.78 27.9402 -2.57 28.2402 -3.1 27.9002C-3.56 27.6102 -3.66 26.9102 -3.48 26.3002C-3.31 25.6902 -2.91 25.1402 -2.51 24.6302C-1.19 22.9702 0.269996 21.4602 1.83 20.1802C2.39 19.7202 3 19.2702 3.76 19.0702C4.53 18.8702 5.51 18.9902 6 19.4502C6.58 20.0002 6.25 20.7602 5.75 21.3502C5.25 21.9402 4.58 22.5402 4.44 23.2702C6.08 22.7302 7.78 22.3202 9.49 22.0402C10.08 21.9402 10.71 21.8702 11.29 22.0402C11.87 22.2102 12.3 22.7202 11.95 23.0202C12.72 22.8802 13.51 22.7702 14.34 22.8702C15.17 22.9802 16.04 23.3402 16.38 23.8202C16.78 24.4002 16.28 24.9702 15.55 25.3302C14.82 25.6802 13.88 25.8602 13.04 26.1802C10.73 27.0502 9.27 29.1302 9.2 31.2802C9.89 30.1802 11.47 29.5802 12.89 29.8202C14.3 30.0602 15.41 31.0402 15.51 32.1202C16.9 31.4002 18.36 30.7802 19.99 30.6402C21.63 30.5002 23.49 30.9102 24.54 31.7802C25.69 32.7302 25.64 33.9802 25.32 35.1902C25 36.3802 24.47 37.7002 24.79 39.0102C24.96 39.7202 25.38 40.3902 25.44 41.1302C25.55 42.4502 24.53 43.7902 23.32 44.8202C22.1 45.8502 20.66 46.6702 19.45 47.7502C18.85 48.2802 18.3 48.9302 18.16 49.6702C18.02 50.4102 18.46 51.2402 19.23 51.3002C20.2 51.3802 21.45 50.3802 22.03 51.0902C22.44 51.5902 21.88 52.4102 22.08 53.0302C22.6 54.7402 24.17 52.9902 25.48 53.5302C26.51 53.9502 27.23 55.0002 26.53 56.0602C25 58.4002 23.31 57.5802 20.82 56.6902C18.71 55.9402 15.46 55.2302 14.42 53.1702V53.1802Z" fill="#FFC200"/>
<mask id="mask3_26835_29172" style="mask-type:luminance" maskUnits="userSpaceOnUse" x="-4" y="18" width="31" height="40">
<path d="M14.42 53.1802C13.71 51.7802 14.24 49.8902 15.3 48.5102C16.36 47.1302 17.86 46.1302 19.29 45.1102C20.72 44.0902 22.15 42.9602 22.85 41.5602C23.36 40.5502 23.32 39.2502 22.21 38.7402C21.55 38.4402 20.71 38.5202 19.93 38.5202C17.77 38.5202 15.66 37.7502 14.34 36.3702C13.94 36.9902 13.12 37.3502 12.33 37.5102C11.55 37.6802 10.75 37.7002 9.98 37.8902C8.13 38.3502 6.67 39.7502 5.23 40.9802C3.78 42.2002 2.05 43.3702 0.609996 42.9702C-0.630004 42.6302 -1.35 41.0902 -1.37 39.4402C-1.38 37.8002 -0.750004 36.1202 0.159996 34.7002C0.839996 33.6302 1.67 32.6602 2.34 31.6202C3.01 30.5702 3.51 29.3902 3.33 28.3302C3.15 27.2702 2.08 26.3602 0.859996 26.5702C0.129996 26.7002 -0.500004 27.1802 -1.14 27.5602C-1.78 27.9402 -2.57 28.2402 -3.1 27.9002C-3.56 27.6102 -3.66 26.9102 -3.48 26.3002C-3.31 25.6902 -2.91 25.1402 -2.51 24.6302C-1.19 22.9702 0.269996 21.4602 1.83 20.1802C2.39 19.7202 3 19.2702 3.76 19.0702C4.53 18.8702 5.51 18.9902 6 19.4502C6.58 20.0002 6.25 20.7602 5.75 21.3502C5.25 21.9402 4.58 22.5402 4.44 23.2702C6.08 22.7302 7.78 22.3202 9.49 22.0402C10.08 21.9402 10.71 21.8702 11.29 22.0402C11.87 22.2102 12.3 22.7202 11.95 23.0202C12.72 22.8802 13.51 22.7702 14.34 22.8702C15.17 22.9802 16.04 23.3402 16.38 23.8202C16.78 24.4002 16.28 24.9702 15.55 25.3302C14.82 25.6802 13.88 25.8602 13.04 26.1802C10.73 27.0502 9.27 29.1302 9.2 31.2802C9.89 30.1802 11.47 29.5802 12.89 29.8202C14.3 30.0602 15.41 31.0402 15.51 32.1202C16.9 31.4002 18.36 30.7802 19.99 30.6402C21.63 30.5002 23.49 30.9102 24.54 31.7802C25.69 32.7302 25.64 33.9802 25.32 35.1902C25 36.3802 24.47 37.7002 24.79 39.0102C24.96 39.7202 25.38 40.3902 25.44 41.1302C25.55 42.4502 24.53 43.7902 23.32 44.8202C22.1 45.8502 20.66 46.6702 19.45 47.7502C18.85 48.2802 18.3 48.9302 18.16 49.6702C18.02 50.4102 18.46 51.2402 19.23 51.3002C20.2 51.3802 21.45 50.3802 22.03 51.0902C22.44 51.5902 21.88 52.4102 22.08 53.0302C22.6 54.7402 23.56 53.0902 24.87 53.6302C25.9 54.0502 26.62 55.1002 25.92 56.1602C24.39 58.5002 22.77 57.4702 20.81 56.6902C18.72 55.8502 15.45 55.2302 14.41 53.1702L14.42 53.1802Z" fill="white"/>
</mask>
<g mask="url(#mask3_26835_29172)">
<path d="M5.14999 29.0001C5.55999 29.9701 4.92999 31.1701 4.11999 32.0901C3.30999 33.0101 2.29999 33.7901 1.56999 34.7901C0.839994 35.8001 0.409994 37.1901 0.859994 38.1801C1.23999 39.0101 2.15999 39.3301 3.06999 39.2101C3.97999 39.0901 4.88999 38.5901 5.74999 38.0501C8.31999 36.4101 10.66 34.1901 12.16 31.9001C13.12 32.7401 11.29 34.1601 12.4 34.6301C13.51 35.1001 15.17 34.4301 15.54 33.4401C15.67 35.3801 18.1 36.7801 20.5 36.7301C22.91 36.6801 25.15 35.5301 26.53 34.2901C27.11 34.8401 27 35.5901 26.6 36.2201C26.2 36.8501 25.56 37.4101 25.09 38.0701C23.83 39.8201 23.76 42.1501 22.22 43.9901C21.05 45.4001 19.18 46.3101 17.32 46.8001C15.46 47.2901 13.57 47.4201 11.74 47.6701C9.07999 48.0301 6.50999 48.6901 4.13999 49.1001C1.75999 49.5101 -0.420006 49.6701 -2.19001 48.9401C-3.45001 48.4201 -4.56001 47.3401 -5.03001 45.4501C-5.43001 43.8301 -5.25001 41.8801 -4.93001 40.0601C-4.31001 36.4301 -3.31001 32.7701 -1.19001 29.8401C0.0999942 27.9101 4.12999 26.5501 5.14999 29.0001Z" fill="#FF5500"/>
</g>
</g>
<path d="M12.48 43.7699C10.33 45.3899 10.82 45.8499 9.95 47.4099C9.16 48.8199 7.29 47.6499 6.84 47.0899C6.39 46.5299 7.06 45.2599 8.33 44.2499C9.6 43.2399 13.05 43.3299 12.48 43.7699Z" fill="#FF5500"/>
<path d="M13.97 42.5901C14.47 43.5301 12.61 43.6901 10.64 44.7401C8.67 45.7901 7.82 48.6901 6.75 46.9201C6.2 46.0101 7.31 43.2101 9.28 42.1601C11.25 41.1101 13.47 41.6501 13.97 42.5901Z" fill="#FFC200"/>
</g>
<path d="M49.21 8.3298L49.08 10.7798L48.13 10.8698L47.62 9.5598L47.54 10.8998H46.73L46.8 8.3398L47.7 8.2998L48.33 9.5998L48.36 8.3698L49.21 8.3398V8.3298Z" fill="#FF5500"/>
<path d="M51.56 9.54012C51.56 9.65012 51.55 9.76012 51.52 9.86012C51.49 9.96012 51.46 10.0601 51.41 10.1501C51.36 10.2401 51.3 10.3201 51.24 10.3901C51.17 10.4601 51.1 10.5301 51.01 10.5801C50.92 10.6301 50.83 10.6701 50.73 10.7001C50.63 10.7301 50.52 10.7401 50.41 10.7401C50.3 10.7401 50.2 10.7301 50.1 10.7001C50 10.6701 49.91 10.6301 49.82 10.5801C49.73 10.5301 49.66 10.4701 49.59 10.4001C49.52 10.3301 49.46 10.2501 49.41 10.1701C49.36 10.0801 49.32 9.99012 49.3 9.89012C49.27 9.79012 49.26 9.69012 49.26 9.58012C49.26 9.47012 49.27 9.37012 49.3 9.27012C49.33 9.17012 49.36 9.07012 49.41 8.99012C49.46 8.91012 49.52 8.82012 49.58 8.74012C49.64 8.66012 49.72 8.60012 49.81 8.55012C49.89 8.50012 49.98 8.45012 50.08 8.42012C50.18 8.39012 50.28 8.37012 50.39 8.37012C50.56 8.37012 50.72 8.40012 50.87 8.45012C51.01 8.50012 51.14 8.58012 51.24 8.68012C51.34 8.78012 51.42 8.90012 51.48 9.04012C51.54 9.18012 51.56 9.34012 51.56 9.52012V9.54012ZM50.76 9.59012C50.76 9.54012 50.76 9.49012 50.74 9.44012C50.73 9.39012 50.7 9.35012 50.67 9.31012C50.64 9.27012 50.61 9.24012 50.56 9.22012C50.51 9.20012 50.47 9.18012 50.41 9.18012C50.35 9.18012 50.3 9.18012 50.26 9.21012C50.22 9.23012 50.18 9.26012 50.15 9.29012C50.12 9.32012 50.09 9.37012 50.08 9.41012C50.06 9.46012 50.05 9.51012 50.05 9.56012C50.05 9.61012 50.05 9.66012 50.07 9.71012C50.08 9.76012 50.11 9.81012 50.13 9.85012C50.16 9.89012 50.19 9.92012 50.24 9.95012C50.28 9.98012 50.33 9.99012 50.39 9.99012C50.45 9.99012 50.5 9.98012 50.54 9.96012C50.58 9.94012 50.62 9.91012 50.65 9.87012C50.68 9.83012 50.71 9.79012 50.72 9.74012C50.74 9.69012 50.75 9.64012 50.75 9.59012H50.76Z" fill="#FF5500"/>
<path d="M52.31 10.5499C52.31 10.5999 52.3 10.6499 52.28 10.6999C52.26 10.7499 52.23 10.7899 52.2 10.8199C52.17 10.8499 52.13 10.8799 52.08 10.8999C52.03 10.9199 51.99 10.9299 51.93 10.9299C51.87 10.9299 51.83 10.9299 51.78 10.8999C51.73 10.8799 51.69 10.8499 51.66 10.8199C51.63 10.7899 51.6 10.7499 51.58 10.6999C51.56 10.6499 51.55 10.5999 51.55 10.5499C51.55 10.4999 51.55 10.4499 51.58 10.3999C51.6 10.3499 51.63 10.3099 51.66 10.2799C51.69 10.2499 51.73 10.2199 51.78 10.1999C51.83 10.1799 51.88 10.1699 51.93 10.1699C51.98 10.1699 52.03 10.1699 52.08 10.1999C52.13 10.2199 52.17 10.2499 52.2 10.2799C52.23 10.3099 52.26 10.3599 52.28 10.3999C52.3 10.4499 52.31 10.4999 52.31 10.5499Z" fill="#FF5500"/>
<path d="M49.1 7.86984L48.97 10.3198L48.02 10.4098L47.51 9.09984L47.43 10.4398H46.62L46.69 7.87984L47.59 7.83984L48.22 9.13984L48.25 7.90984L49.1 7.87984V7.86984Z" fill="white"/>
<path d="M51.46 9.08016C51.46 9.19016 51.45 9.30016 51.42 9.40016C51.39 9.50016 51.36 9.60016 51.31 9.69016C51.26 9.78016 51.2 9.86016 51.14 9.93016C51.07 10.0002 51 10.0702 50.91 10.1202C50.82 10.1702 50.73 10.2102 50.63 10.2402C50.53 10.2702 50.42 10.2802 50.31 10.2802C50.2 10.2802 50.1 10.2702 50 10.2402C49.9 10.2102 49.81 10.1702 49.72 10.1202C49.63 10.0702 49.56 10.0102 49.49 9.94016C49.42 9.87016 49.36 9.79016 49.31 9.71016C49.26 9.62016 49.22 9.53016 49.2 9.43016C49.17 9.33016 49.16 9.23016 49.16 9.12016C49.16 9.01016 49.17 8.91016 49.2 8.81016C49.23 8.71016 49.26 8.61016 49.31 8.53016C49.36 8.45016 49.42 8.36016 49.48 8.28016C49.54 8.20016 49.62 8.14016 49.71 8.09016C49.79 8.04016 49.88 7.99016 49.98 7.96016C50.08 7.93016 50.18 7.91016 50.29 7.91016C50.46 7.91016 50.62 7.94016 50.77 7.99016C50.91 8.04016 51.04 8.12016 51.14 8.22016C51.24 8.32016 51.32 8.44016 51.38 8.58016C51.44 8.72016 51.46 8.88016 51.46 9.06016V9.08016ZM50.66 9.12016C50.66 9.07016 50.66 9.02016 50.64 8.97016C50.63 8.92016 50.6 8.88016 50.57 8.84016C50.54 8.80016 50.51 8.77016 50.46 8.75016C50.41 8.73016 50.37 8.71016 50.31 8.71016C50.25 8.71016 50.2 8.71016 50.16 8.74016C50.12 8.76016 50.08 8.79016 50.05 8.82016C50.02 8.85016 49.99 8.90016 49.98 8.94016C49.96 8.99016 49.95 9.04016 49.95 9.09016C49.95 9.14016 49.95 9.19016 49.97 9.24016C49.98 9.29016 50.01 9.34016 50.03 9.38016C50.06 9.42016 50.09 9.45016 50.14 9.48016C50.18 9.51016 50.23 9.52016 50.29 9.52016C50.35 9.52016 50.4 9.51016 50.44 9.49016C50.48 9.47016 50.52 9.44016 50.55 9.40016C50.58 9.36016 50.61 9.32016 50.62 9.27016C50.64 9.22016 50.65 9.17016 50.65 9.12016H50.66Z" fill="white"/>
<path d="M52.21 10.09C52.21 10.14 52.2 10.19 52.18 10.24C52.16 10.29 52.13 10.33 52.1 10.36C52.07 10.39 52.03 10.42 51.98 10.44C51.93 10.46 51.89 10.47 51.83 10.47C51.77 10.47 51.73 10.47 51.68 10.44C51.63 10.42 51.59 10.39 51.56 10.36C51.53 10.33 51.5 10.29 51.48 10.24C51.46 10.19 51.45 10.14 51.45 10.09C51.45 10.04 51.45 9.98996 51.48 9.93996C51.5 9.88996 51.53 9.84996 51.56 9.81996C51.59 9.78996 51.63 9.75996 51.68 9.73996C51.73 9.71996 51.78 9.70996 51.83 9.70996C51.88 9.70996 51.93 9.70996 51.98 9.73996C52.03 9.75996 52.07 9.78996 52.1 9.81996C52.13 9.84996 52.16 9.89996 52.18 9.93996C52.2 9.98996 52.21 10.04 52.21 10.09Z" fill="white"/>
<path d="M57.34 8.34992C57.34 8.58992 57.32 8.82992 57.28 9.07992C57.24 9.32992 57.18 9.55992 57.1 9.78992C57.02 10.0199 56.92 10.2299 56.79 10.4299C56.67 10.6299 56.52 10.8099 56.35 10.9499C56.18 11.0999 55.98 11.2199 55.75 11.2999C55.53 11.3899 55.27 11.4299 55 11.4299C54.88 11.4299 54.75 11.4299 54.62 11.4099C54.49 11.3999 54.36 11.3799 54.22 11.3499C54.09 11.3199 53.96 11.2899 53.84 11.2399C53.72 11.1899 53.6 11.1299 53.5 11.0599L53.7 9.61992C53.78 9.66992 53.87 9.70992 53.97 9.74992C54.07 9.78992 54.17 9.81992 54.27 9.84992C54.37 9.87992 54.48 9.89992 54.58 9.91992C54.68 9.93992 54.78 9.93992 54.88 9.93992C55.03 9.93992 55.15 9.91992 55.26 9.87992C55.37 9.83992 55.46 9.77992 55.53 9.69992C55.6 9.61992 55.66 9.52992 55.71 9.41992C55.76 9.30992 55.79 9.18992 55.81 9.04992C55.66 9.12992 55.5 9.18992 55.33 9.23992C55.16 9.27992 54.99 9.29992 54.82 9.29992C54.61 9.29992 54.4 9.26992 54.21 9.19992C54.02 9.12992 53.85 9.03992 53.7 8.91992C53.55 8.79992 53.44 8.64992 53.35 8.46992C53.26 8.28992 53.22 8.08992 53.22 7.86992C53.22 7.57992 53.27 7.31992 53.38 7.07992C53.49 6.83992 53.63 6.62992 53.81 6.45992C53.99 6.28992 54.21 6.14992 54.46 6.05992C54.71 5.96992 54.98 5.91992 55.27 5.91992C55.62 5.91992 55.93 5.98992 56.19 6.11992C56.45 6.24992 56.66 6.42992 56.83 6.64992C57 6.86992 57.12 7.12992 57.21 7.41992C57.29 7.70992 57.33 8.02992 57.33 8.35992L57.34 8.34992ZM55.77 7.79992C55.77 7.71992 55.75 7.65992 55.72 7.58992C55.69 7.51992 55.64 7.47992 55.59 7.42992C55.54 7.38992 55.48 7.34992 55.41 7.32992C55.34 7.30992 55.27 7.29992 55.2 7.29992C55.13 7.29992 55.06 7.30992 55 7.32992C54.93 7.34992 54.88 7.37992 54.82 7.42992C54.77 7.46992 54.72 7.51992 54.69 7.57992C54.66 7.63992 54.64 7.70992 54.64 7.77992C54.64 7.84992 54.66 7.91992 54.69 7.97992C54.72 8.03992 54.77 8.08992 54.82 8.13992C54.87 8.17992 54.93 8.21992 55 8.23992C55.07 8.25992 55.14 8.27992 55.21 8.27992C55.28 8.27992 55.35 8.26992 55.41 8.24992C55.48 8.22992 55.53 8.18992 55.59 8.14992C55.64 8.10992 55.69 8.05992 55.72 7.99992C55.75 7.93992 55.77 7.87992 55.77 7.79992Z" fill="#FF5500"/>
<path d="M57.22 8.06012C57.22 7.73012 57.18 7.42012 57.1 7.12012C57.02 6.83012 56.89 6.57012 56.72 6.35012C56.55 6.13012 56.34 5.95012 56.08 5.82012C55.82 5.69012 55.52 5.62012 55.16 5.62012C54.87 5.62012 54.6 5.67012 54.35 5.76012C54.1 5.85012 53.88 5.99012 53.7 6.16012C53.52 6.33012 53.37 6.54012 53.27 6.78012C53.16 7.02012 53.11 7.29012 53.11 7.57012C53.11 7.80012 53.15 8.00012 53.24 8.17012C53.33 8.35012 53.44 8.50012 53.59 8.62012C53.74 8.74012 53.9 8.84012 54.1 8.90012C54.29 8.97012 54.5 9.00012 54.71 9.00012C54.88 9.00012 55.05 8.98012 55.22 8.94012C55.39 8.90012 55.55 8.83012 55.7 8.75012C55.68 8.89012 55.65 9.01012 55.6 9.12012C55.58 9.18012 55.54 9.22012 55.5 9.27012L57.16 8.70012C57.19 8.48012 57.21 8.25012 57.21 8.03012L57.22 8.06012ZM55.6 7.70012C55.57 7.76012 55.53 7.81012 55.47 7.85012C55.42 7.89012 55.36 7.92012 55.29 7.95012C55.22 7.97012 55.16 7.98012 55.09 7.98012C55.02 7.98012 54.95 7.97012 54.88 7.94012C54.81 7.92012 54.75 7.88012 54.7 7.84012C54.65 7.80012 54.6 7.74012 54.57 7.68012C54.54 7.62012 54.52 7.55012 54.52 7.48012C54.52 7.41012 54.54 7.34012 54.57 7.28012C54.6 7.22012 54.64 7.17012 54.7 7.13012C54.75 7.09012 54.81 7.06012 54.88 7.03012C54.95 7.01012 55.01 7.00012 55.08 7.00012C55.15 7.00012 55.22 7.01012 55.29 7.03012C55.36 7.05012 55.42 7.09012 55.47 7.13012C55.52 7.17012 55.57 7.23012 55.6 7.29012C55.63 7.35012 55.65 7.42012 55.65 7.50012C55.65 7.58012 55.63 7.64012 55.6 7.70012Z" fill="#FFEBB8"/>
<path d="M55.5 9.3C55.5 9.3 55.45 9.4 55.42 9.43C55.34 9.51 55.25 9.57 55.15 9.61C55.04 9.65 54.91 9.67 54.77 9.67C54.68 9.67 54.58 9.67 54.47 9.65C54.37 9.63 54.26 9.61 54.16 9.58C54.06 9.55 53.95 9.51 53.86 9.48C53.76 9.44 53.67 9.4 53.59 9.35L53.39 10.79C53.49 10.86 53.6 10.92 53.73 10.97C53.85 11.02 53.98 11.05 54.11 11.08C54.24 11.11 54.37 11.13 54.51 11.14C54.64 11.15 54.77 11.16 54.89 11.16C55.17 11.16 55.42 11.12 55.64 11.03C55.86 10.94 56.06 10.83 56.24 10.68C56.41 10.53 56.56 10.36 56.68 10.16C56.8 9.96 56.91 9.74 56.99 9.52C57.07 9.3 57.13 9.05 57.17 8.81C57.17 8.79 57.17 8.77 57.17 8.75L55.51 9.32L55.5 9.3Z" fill="#FFC200"/>
<path d="M56.52 6.14012C56.39 6.02012 56.25 5.91012 56.08 5.82012C55.82 5.69012 55.52 5.62012 55.16 5.62012C54.87 5.62012 54.6 5.67012 54.35 5.76012C54.1 5.85012 53.88 5.99012 53.7 6.16012C53.52 6.33012 53.37 6.54012 53.27 6.78012C53.25 6.82012 53.25 6.86012 53.23 6.90012L56.51 6.13012L56.52 6.14012Z" fill="white"/>
<path d="M55.6 9.14996C55.58 9.20996 55.54 9.24996 55.5 9.29996C55.47 9.33996 55.45 9.39996 55.42 9.42996L57.06 9.21996C57.1 9.06996 57.15 8.92996 57.17 8.77996C57.17 8.75996 57.17 8.73996 57.17 8.71996C57.2 8.49996 57.22 8.26996 57.22 8.04996C57.22 8.01996 57.22 7.98996 57.22 7.95996L55.7 8.75996C55.68 8.89996 55.65 9.01996 55.6 9.12996V9.14996Z" fill="white"/>
</g>
<path fill-rule="evenodd" clip-rule="evenodd" d="M6.49771 79C6.98969 79 7.48602 79.213 7.49037 79.6913C7.49037 80.1043 7.24656 80.2696 6.99839 80.2696C6.75023 80.2696 6.73281 80.1435 6.73281 80.1435C6.73281 80.1435 7.02452 79.9261 7.02452 79.7174C7.02452 79.6087 6.94179 79.313 6.489 79.3174C5.8577 79.3174 5.5181 79.6174 5.5181 80.1522C5.5181 80.7652 7.35105 80.9739 7.3554 81.7652C7.3554 82.613 6.47594 82.9957 5.69225 83C5.283 83 5.01306 82.7609 5.00871 82.3783C5.00871 81.9261 5.22204 81.4652 5.75756 81.4652C5.88382 81.4565 5.98831 81.5522 5.99702 81.6783C5.99702 81.6783 5.99702 81.6826 5.99702 81.687C5.99702 81.687 5.45715 81.8391 5.4615 82.3783C5.4615 82.4783 5.56599 82.6609 5.81851 82.6565C6.07103 82.6522 6.82424 82.4739 6.81989 81.8087C6.81989 81.1913 5.00435 81.1087 5 80.1478C5 79.0652 6.08845 79.0087 6.49771 79.0087V79ZM10.747 79.6C10.8123 79.5696 11.2129 79.4913 11.1955 79.813C11.1824 80.1348 10.9386 80.6913 10.9037 80.9348C11.2303 80.7696 11.6918 80.2087 11.6918 80.2087C11.6918 80.2087 12.0183 80.2522 11.9182 80.4522C11.818 80.6522 11.1519 81.1435 11.1519 81.1435C11.1519 81.1435 11.3043 82.5696 12.1707 82.5696C12.6453 82.5696 12.8499 82.3609 12.937 82.287C12.9587 82.2696 12.9762 82.2652 12.9849 82.2783C13.0197 82.387 12.9936 82.5043 12.9152 82.5913C12.8194 82.6957 12.5974 82.8217 12.1533 82.8261C11.3653 82.8261 10.9255 82.1957 10.8123 81.2609C10.7252 81.5348 10.7339 81.9826 10.7209 82.2C10.6948 82.2435 10.2507 82.4174 10.2158 82.1174C10.2158 82.0913 10.2158 82.0696 10.2158 82.0435C10.1331 82.1609 10.0199 82.2826 9.91108 82.2826C9.71951 82.2826 9.63679 82.1217 9.60196 82.0391C9.57584 82.0696 9.3625 82.287 9.08821 82.287C8.92277 82.2913 8.77474 82.1957 8.70943 82.0435C8.57011 82.1435 8.32195 82.2913 8.03895 82.2913C7.73418 82.2913 7.66017 82.1087 7.66017 81.9565C7.66017 81.713 7.84303 80.987 7.84303 80.987C7.84303 80.987 7.48602 81.1304 7.36411 81.1348C7.19431 81.1348 7.11159 80.8217 7.11159 80.813C7.11159 80.8087 7.11159 80.8 7.1203 80.8C7.22044 80.7609 7.94317 80.513 7.94317 80.513C7.94317 80.513 8.07813 79.9826 8.09555 79.913C8.11296 79.8435 8.2131 79.7 8.33065 79.6565C8.41773 79.6217 8.50916 79.6 8.60059 79.5913C8.63107 79.5913 8.65284 79.6 8.65284 79.6174C8.65284 79.6348 8.47433 80.4087 8.47433 80.4087C8.47433 80.4087 8.84876 80.3217 8.98808 80.3217C9.09692 80.3217 9.15352 80.387 9.09257 80.4696C9.03162 80.5522 8.96196 80.6478 8.92712 80.6913C8.88794 80.7348 8.86182 80.7435 8.77039 80.7609C8.64413 80.787 8.36113 80.8565 8.36113 80.8565C8.36113 80.8565 8.13473 81.6783 8.13909 81.8174C8.13909 81.8957 8.16521 81.987 8.26099 81.987C8.35678 81.987 8.53964 81.8739 8.67025 81.7913C8.69202 81.1522 9.18835 80.7261 9.57584 80.7261C9.7021 80.7261 9.65421 80.8478 9.79788 80.8478H9.88931C9.94591 80.8478 10.0069 80.8522 10.0069 80.9957C10.0069 81.1957 9.89367 81.5261 9.89367 81.7348C9.89367 81.8826 9.91544 81.987 9.97204 81.987C10.0678 81.987 10.1767 81.8478 10.255 81.7261C10.3813 81.0304 10.734 79.7609 10.734 79.6174L10.747 79.6ZM12.5016 80.7C12.7672 80.6783 12.9326 80.8217 12.9631 80.9C12.9936 80.9783 12.9892 81.1609 12.9152 81.2913C12.6845 81.7044 12.1097 81.6304 12.1097 81.6304C12.1097 81.6304 12.0444 81.9565 12.3405 81.9565C12.593 81.9565 12.7062 81.8304 12.8151 81.7261C12.8586 81.7261 12.9936 81.8652 12.9326 81.9609C12.8847 82.0348 12.6191 82.2565 12.2795 82.2609C11.7397 82.2609 11.6047 81.8 11.6744 81.4696C11.7658 81.0609 12.1751 80.7217 12.5016 80.6957V80.7ZM9.6455 80.987C9.32332 80.987 8.82699 81.9696 9.20577 81.9652C9.61938 81.9652 9.6455 81.1826 9.6455 81.0043V80.987ZM12.6409 80.8913C12.4232 80.9 12.1751 81.3174 12.1533 81.5C12.4798 81.513 12.654 81.1957 12.6757 81.0696C12.6888 80.9739 12.6932 80.887 12.6409 80.887V80.8913Z" fill="white"/>
<path fill-rule="evenodd" clip-rule="evenodd" d="M55.9957 79.5947C56.0385 79.5947 56.077 79.6161 56.0984 79.6504L56.9027 80.8012L57.5615 80.1423C57.6 80.1038 57.6514 80.0953 57.6984 80.1167C57.7455 80.1381 57.7754 80.1808 57.7754 80.2365V81.8963C57.7754 82.0332 57.7198 82.1616 57.6257 82.2557C57.5316 82.3498 57.3989 82.4054 57.2663 82.4054H54.7209C54.584 82.4054 54.4556 82.3498 54.3615 82.2557C54.2674 82.1616 54.2118 82.029 54.2118 81.8963V80.2322C54.2118 80.1808 54.2417 80.1338 54.2888 80.1124C54.3358 80.091 54.3915 80.1038 54.4257 80.1381L55.0845 80.7969L55.8888 79.6461C55.9145 79.6119 55.953 79.5905 55.9915 79.5905L55.9957 79.5947Z" fill="#FFC200"/>
<path d="M55.9957 79.5947C56.0385 79.5947 56.077 79.6161 56.0984 79.6504L56.9027 80.8012L57.5615 80.1423C57.5872 80.1167 57.6171 80.1039 57.6513 80.1039C57.6685 80.1039 57.6856 80.1039 57.6984 80.1124C57.7455 80.1338 57.7754 80.1766 57.7754 80.2322V81.8921C57.7754 82.029 57.7198 82.1573 57.6257 82.2514C57.5316 82.3456 57.3989 82.4012 57.2663 82.4012H54.7209C54.584 82.4012 54.4556 82.3456 54.3615 82.2514C54.2674 82.1573 54.2118 82.0247 54.2118 81.8921L54.2118 80.2322C54.2118 80.1808 54.2417 80.1338 54.2888 80.1124C54.3059 80.1038 54.323 80.1039 54.3358 80.1039C54.3701 80.1039 54.4 80.1167 54.4257 80.1424L55.0845 80.8012L55.8888 79.6504C55.9144 79.6162 55.9529 79.5948 55.9914 79.5948M55.9957 79.3809C55.8845 79.3809 55.7818 79.4365 55.7176 79.5263L55.0588 80.4675L54.5797 79.9883C54.5155 79.9242 54.4299 79.89 54.3401 79.89C54.2973 79.89 54.2503 79.8985 54.2075 79.9156C54.0791 79.967 53.9979 80.091 53.9979 80.2322V81.8921C53.9979 82.0846 54.0749 82.2686 54.2118 82.4055C54.3487 82.5424 54.5283 82.6194 54.7251 82.6194H57.2749C57.4674 82.6194 57.6513 82.5424 57.7882 82.4055C57.9251 82.2686 58.0021 82.0889 58.0021 81.8921V80.2322C58.0021 80.0953 57.9209 79.9712 57.7925 79.9156C57.7497 79.8985 57.707 79.89 57.6642 79.89C57.5743 79.89 57.4888 79.9242 57.4246 79.9883L56.9455 80.4675L56.2781 79.5263C56.2139 79.4365 56.107 79.3809 56 79.3809H55.9957Z" fill="#213743"/>
<path fill-rule="evenodd" clip-rule="evenodd" d="M55.3925 81.0664C55.3284 80.9809 55.3241 80.8611 55.3882 80.7755L56 79.9242V81.8621L55.3968 81.0707L55.3925 81.0664Z" fill="#FF7F00"/>
<path fill-rule="evenodd" clip-rule="evenodd" d="M56.6032 80.7113C56.6674 80.7969 56.6717 80.9167 56.6075 81.0022L55.9957 81.8536V79.9199L56.599 80.7113H56.6032Z" fill="#FFEBB8"/>
<path d="M26.2231 70.572C25.5151 70.572 24.9811 70.356 24.6091 69.99L25.1731 69.27C25.4491 69.522 25.8271 69.66 26.2111 69.66C26.6491 69.66 26.8651 69.444 26.8651 69.198C26.8651 68.928 26.6551 68.736 26.2411 68.736C25.9231 68.736 25.6711 68.826 25.4491 69.036L24.7351 68.862V66.498H27.6391V67.398H25.7671V68.172C25.9591 67.986 26.2711 67.854 26.6251 67.854C27.3031 67.854 27.9151 68.352 27.9151 69.156C27.9151 70.02 27.2611 70.572 26.2231 70.572ZM29.9443 70.572C28.7743 70.572 28.2283 69.558 28.2283 68.502C28.2283 67.446 28.7743 66.438 29.9443 66.438C31.1143 66.438 31.6603 67.446 31.6603 68.502C31.6603 69.558 31.1143 70.572 29.9443 70.572ZM29.9443 69.66C30.4243 69.66 30.6163 69.21 30.6163 68.502C30.6163 67.794 30.4243 67.35 29.9443 67.35C29.4643 67.35 29.2723 67.794 29.2723 68.502C29.2723 69.21 29.4643 69.66 29.9443 69.66ZM33.6884 70.572C32.5184 70.572 31.9724 69.558 31.9724 68.502C31.9724 67.446 32.5184 66.438 33.6884 66.438C34.8584 66.438 35.4044 67.446 35.4044 68.502C35.4044 69.558 34.8584 70.572 33.6884 70.572ZM33.6884 69.66C34.1684 69.66 34.3604 69.21 34.3604 68.502C34.3604 67.794 34.1684 67.35 33.6884 67.35C33.2084 67.35 33.0164 67.794 33.0164 68.502C33.0164 69.21 33.2084 69.66 33.6884 69.66ZM38.6685 70.5H37.6545L37.0965 69.624L36.5325 70.5H35.5245L36.5145 69.012L35.5845 67.602H36.5985L37.0965 68.388L37.5885 67.602H38.6025L37.6785 69.012L38.6685 70.5Z" fill="#FFEBB8"/>
<path d="M26.2231 70.072C25.5151 70.072 24.9811 69.856 24.6091 69.49L25.1731 68.77C25.4491 69.022 25.8271 69.16 26.2111 69.16C26.6491 69.16 26.8651 68.944 26.8651 68.698C26.8651 68.428 26.6551 68.236 26.2411 68.236C25.9231 68.236 25.6711 68.326 25.4491 68.536L24.7351 68.362V65.998H27.6391V66.898H25.7671V67.672C25.9591 67.486 26.2711 67.354 26.6251 67.354C27.3031 67.354 27.9151 67.852 27.9151 68.656C27.9151 69.52 27.2611 70.072 26.2231 70.072ZM29.9443 70.072C28.7743 70.072 28.2283 69.058 28.2283 68.002C28.2283 66.946 28.7743 65.938 29.9443 65.938C31.1143 65.938 31.6603 66.946 31.6603 68.002C31.6603 69.058 31.1143 70.072 29.9443 70.072ZM29.9443 69.16C30.4243 69.16 30.6163 68.71 30.6163 68.002C30.6163 67.294 30.4243 66.85 29.9443 66.85C29.4643 66.85 29.2723 67.294 29.2723 68.002C29.2723 68.71 29.4643 69.16 29.9443 69.16ZM33.6884 70.072C32.5184 70.072 31.9724 69.058 31.9724 68.002C31.9724 66.946 32.5184 65.938 33.6884 65.938C34.8584 65.938 35.4044 66.946 35.4044 68.002C35.4044 69.058 34.8584 70.072 33.6884 70.072ZM33.6884 69.16C34.1684 69.16 34.3604 68.71 34.3604 68.002C34.3604 67.294 34.1684 66.85 33.6884 66.85C33.2084 66.85 33.0164 67.294 33.0164 68.002C33.0164 68.71 33.2084 69.16 33.6884 69.16ZM38.6685 70H37.6545L37.0965 69.124L36.5325 70H35.5245L36.5145 68.512L35.5845 67.102H36.5985L37.0965 67.888L37.5885 67.102H38.6025L37.6785 68.512L38.6685 70Z" fill="#FF5500"/>
<path d="M7.45 11.3999H5.33V8.0649H6.04V10.7749H7.45V11.3999ZM9.01348 11.4599C8.27848 11.4599 7.72348 10.9649 7.72348 10.1899C7.72348 9.4899 8.23848 8.9249 8.97348 8.9249C9.69348 8.9249 10.1835 9.4649 10.1835 10.2549V10.3949H8.38848C8.42848 10.6999 8.67348 10.9549 9.08348 10.9549C9.28848 10.9549 9.57348 10.8649 9.72848 10.7149L10.0085 11.1249C9.76848 11.3449 9.38848 11.4599 9.01348 11.4599ZM9.56848 9.9649C9.55348 9.7349 9.39348 9.4299 8.97348 9.4299C8.57848 9.4299 8.40848 9.7249 8.37848 9.9649H9.56848ZM11.6321 12.3799C11.2171 12.3799 10.8971 12.2849 10.5921 12.0199L10.8771 11.5599C11.0721 11.7749 11.3271 11.8599 11.6321 11.8599C11.9371 11.8599 12.2971 11.7249 12.2971 11.2499V11.0049C12.1071 11.2449 11.8471 11.3849 11.5521 11.3849C10.9471 11.3849 10.4871 10.9599 10.4871 10.1549C10.4871 9.3649 10.9421 8.9249 11.5521 8.9249C11.8421 8.9249 12.1021 9.0499 12.2971 9.2949V8.9849H12.9371V11.2349C12.9371 12.1549 12.2271 12.3799 11.6321 12.3799ZM11.7521 10.8199C11.9621 10.8199 12.1921 10.6999 12.2971 10.5449V9.7649C12.1921 9.6049 11.9621 9.4899 11.7521 9.4899C11.3921 9.4899 11.1421 9.7399 11.1421 10.1549C11.1421 10.5699 11.3921 10.8199 11.7521 10.8199ZM14.702 11.4599C13.967 11.4599 13.412 10.9649 13.412 10.1899C13.412 9.4899 13.927 8.9249 14.662 8.9249C15.382 8.9249 15.872 9.4649 15.872 10.2549V10.3949H14.077C14.117 10.6999 14.362 10.9549 14.772 10.9549C14.977 10.9549 15.262 10.8649 15.417 10.7149L15.697 11.1249C15.457 11.3449 15.077 11.4599 14.702 11.4599ZM15.257 9.9649C15.242 9.7349 15.082 9.4299 14.662 9.4299C14.267 9.4299 14.097 9.7249 14.067 9.9649H15.257ZM18.5956 11.3999H17.9606V9.9399C17.9606 9.6049 17.7856 9.4899 17.5156 9.4899C17.2656 9.4899 17.0706 9.6299 16.9656 9.7749V11.3999H16.3306V8.9849H16.9656V9.2999C17.1206 9.1149 17.4156 8.9249 17.8106 8.9249C18.3406 8.9249 18.5956 9.2249 18.5956 9.6949V11.3999ZM21.5261 11.3999H20.8861V11.0899C20.6961 11.3299 20.4311 11.4599 20.1411 11.4599C19.5311 11.4599 19.0711 10.9999 19.0711 10.1949C19.0711 9.4049 19.5261 8.9249 20.1411 8.9249C20.4261 8.9249 20.6961 9.0499 20.8861 9.2949V8.0649H21.5261V11.3999ZM20.3361 10.8949C20.5511 10.8949 20.7811 10.7799 20.8861 10.6199V9.7649C20.7811 9.6049 20.5511 9.4899 20.3361 9.4899C19.9761 9.4899 19.7261 9.7749 19.7261 10.1949C19.7261 10.6099 19.9761 10.8949 20.3361 10.8949ZM24.2408 11.3999H23.6058V11.1499C23.4408 11.3449 23.1558 11.4599 22.8408 11.4599C22.4558 11.4599 22.0008 11.1999 22.0008 10.6599C22.0008 10.0949 22.4558 9.8799 22.8408 9.8799C23.1608 9.8799 23.4458 9.9849 23.6058 10.1749V9.8499C23.6058 9.6049 23.3958 9.4449 23.0758 9.4449C22.8158 9.4449 22.5758 9.5399 22.3708 9.7299L22.1308 9.3049C22.4258 9.0449 22.8058 8.9249 23.1858 8.9249C23.7358 8.9249 24.2408 9.1449 24.2408 9.8399V11.3999ZM23.0958 11.0299C23.3008 11.0299 23.5008 10.9599 23.6058 10.8199V10.5199C23.5008 10.3799 23.3008 10.3099 23.0958 10.3099C22.8458 10.3099 22.6408 10.4399 22.6408 10.6749C22.6408 10.8999 22.8458 11.0299 23.0958 11.0299ZM25.5057 11.3999H24.8707V8.9849H25.5057V9.3149C25.6757 9.0999 25.9757 8.9249 26.2757 8.9249V9.5449C26.2307 9.5349 26.1707 9.5299 26.1007 9.5299C25.8907 9.5299 25.6107 9.6499 25.5057 9.8049V11.3999ZM26.5874 12.3449L26.6824 11.7749C26.7374 11.7999 26.8224 11.8149 26.8824 11.8149C27.0474 11.8149 27.1574 11.7699 27.2174 11.6399L27.3074 11.4349L26.3274 8.9849H27.0074L27.6374 10.6649L28.2674 8.9849H28.9524L27.8174 11.7949C27.6374 12.2499 27.3174 12.3699 26.9024 12.3799C26.8274 12.3799 26.6674 12.3649 26.5874 12.3449Z" fill="#FF5500"/>
<path d="M7.45 11H5.33V7.665H6.04V10.375H7.45V11ZM9.01348 11.06C8.27848 11.06 7.72348 10.565 7.72348 9.79C7.72348 9.09 8.23848 8.525 8.97348 8.525C9.69348 8.525 10.1835 9.065 10.1835 9.855V9.995H8.38848C8.42848 10.3 8.67348 10.555 9.08348 10.555C9.28848 10.555 9.57348 10.465 9.72848 10.315L10.0085 10.725C9.76848 10.945 9.38848 11.06 9.01348 11.06ZM9.56848 9.565C9.55348 9.335 9.39348 9.03 8.97348 9.03C8.57848 9.03 8.40848 9.325 8.37848 9.565H9.56848ZM11.6321 11.98C11.2171 11.98 10.8971 11.885 10.5921 11.62L10.8771 11.16C11.0721 11.375 11.3271 11.46 11.6321 11.46C11.9371 11.46 12.2971 11.325 12.2971 10.85V10.605C12.1071 10.845 11.8471 10.985 11.5521 10.985C10.9471 10.985 10.4871 10.56 10.4871 9.755C10.4871 8.965 10.9421 8.525 11.5521 8.525C11.8421 8.525 12.1021 8.65 12.2971 8.895V8.585H12.9371V10.835C12.9371 11.755 12.2271 11.98 11.6321 11.98ZM11.7521 10.42C11.9621 10.42 12.1921 10.3 12.2971 10.145V9.365C12.1921 9.205 11.9621 9.09 11.7521 9.09C11.3921 9.09 11.1421 9.34 11.1421 9.755C11.1421 10.17 11.3921 10.42 11.7521 10.42ZM14.702 11.06C13.967 11.06 13.412 10.565 13.412 9.79C13.412 9.09 13.927 8.525 14.662 8.525C15.382 8.525 15.872 9.065 15.872 9.855V9.995H14.077C14.117 10.3 14.362 10.555 14.772 10.555C14.977 10.555 15.262 10.465 15.417 10.315L15.697 10.725C15.457 10.945 15.077 11.06 14.702 11.06ZM15.257 9.565C15.242 9.335 15.082 9.03 14.662 9.03C14.267 9.03 14.097 9.325 14.067 9.565H15.257ZM18.5956 11H17.9606V9.54C17.9606 9.205 17.7856 9.09 17.5156 9.09C17.2656 9.09 17.0706 9.23 16.9656 9.375V11H16.3306V8.585H16.9656V8.9C17.1206 8.715 17.4156 8.525 17.8106 8.525C18.3406 8.525 18.5956 8.825 18.5956 9.295V11ZM21.5261 11H20.8861V10.69C20.6961 10.93 20.4311 11.06 20.1411 11.06C19.5311 11.06 19.0711 10.6 19.0711 9.795C19.0711 9.005 19.5261 8.525 20.1411 8.525C20.4261 8.525 20.6961 8.65 20.8861 8.895V7.665H21.5261V11ZM20.3361 10.495C20.5511 10.495 20.7811 10.38 20.8861 10.22V9.365C20.7811 9.205 20.5511 9.09 20.3361 9.09C19.9761 9.09 19.7261 9.375 19.7261 9.795C19.7261 10.21 19.9761 10.495 20.3361 10.495ZM24.2408 11H23.6058V10.75C23.4408 10.945 23.1558 11.06 22.8408 11.06C22.4558 11.06 22.0008 10.8 22.0008 10.26C22.0008 9.695 22.4558 9.48 22.8408 9.48C23.1608 9.48 23.4458 9.585 23.6058 9.775V9.45C23.6058 9.205 23.3958 9.045 23.0758 9.045C22.8158 9.045 22.5758 9.14 22.3708 9.33L22.1308 8.905C22.4258 8.645 22.8058 8.525 23.1858 8.525C23.7358 8.525 24.2408 8.745 24.2408 9.44V11ZM23.0958 10.63C23.3008 10.63 23.5008 10.56 23.6058 10.42V10.12C23.5008 9.98 23.3008 9.91 23.0958 9.91C22.8458 9.91 22.6408 10.04 22.6408 10.275C22.6408 10.5 22.8458 10.63 23.0958 10.63ZM25.5057 11H24.8707V8.585H25.5057V8.915C25.6757 8.7 25.9757 8.525 26.2757 8.525V9.145C26.2307 9.135 26.1707 9.13 26.1007 9.13C25.8907 9.13 25.6107 9.25 25.5057 9.405V11ZM26.5874 11.945L26.6824 11.375C26.7374 11.4 26.8224 11.415 26.8824 11.415C27.0474 11.415 27.1574 11.37 27.2174 11.24L27.3074 11.035L26.3274 8.585H27.0074L27.6374 10.265L28.2674 8.585H28.9524L27.8174 11.395C27.6374 11.85 27.3174 11.97 26.9024 11.98C26.8274 11.98 26.6674 11.965 26.5874 11.945Z" fill="white"/>
<g clip-path="url(#clip2_26835_29172)">
<path d="M34.9933 4C34.4047 4.92308 33.9231 5.40468 33 5.99331C33.9231 6.58194 34.4047 7.06355 34.9933 7.98662C35.5819 7.06355 36.0635 6.58194 36.9866 5.99331C36.0635 5.40468 35.5819 4.92308 34.9933 4Z" fill="white"/>
</g>
<defs>
<linearGradient id="paint0_linear_26835_29172" x1="31.5" y1="0" x2="31.5" y2="88" gradientUnits="userSpaceOnUse">
<stop stop-color="#FFC200"/>
<stop offset="1" stop-color="#FF7F00"/>
</linearGradient>
<linearGradient id="paint1_linear_26835_29172" x1="71.86" y1="33.4901" x2="11.77" y2="93.5901" gradientUnits="userSpaceOnUse">
<stop stop-color="white" stop-opacity="0"/>
<stop offset="1" stop-color="white"/>
</linearGradient>
<linearGradient id="paint2_linear_26835_29172" x1="48.23" y1="9.85996" x2="-11.87" y2="69.96" gradientUnits="userSpaceOnUse">
<stop stop-color="white" stop-opacity="0"/>
<stop offset="1" stop-color="white"/>
</linearGradient>
<linearGradient id="paint3_linear_26835_29172" x1="86.07" y1="47.6998" x2="25.97" y2="107.79" gradientUnits="userSpaceOnUse">
<stop stop-color="white" stop-opacity="0"/>
<stop offset="1" stop-color="white"/>
</linearGradient>
<linearGradient id="paint4_linear_26835_29172" x1="31.5" y1="75" x2="31.5" y2="62" gradientUnits="userSpaceOnUse">
<stop stop-color="#FFFEFC"/>
<stop offset="1" stop-color="#FFC200"/>
</linearGradient>
<linearGradient id="paint5_linear_26835_29172" x1="31.5" y1="84.47" x2="31.5" y2="3.96" gradientUnits="userSpaceOnUse">
<stop stop-color="#FF8913"/>
<stop offset="1" stop-color="#FFC200"/>
</linearGradient>
<linearGradient id="paint6_linear_26835_29172" x1="49.27" y1="26.8198" x2="60.98" y2="28.8698" gradientUnits="userSpaceOnUse">
<stop stop-color="#8EA3B2"/>
<stop offset="1" stop-color="#557086"/>
</linearGradient>
<linearGradient id="paint7_linear_26835_29172" x1="56.91" y1="63.04" x2="56.91" y2="35.63" gradientUnits="userSpaceOnUse">
<stop stop-color="#FF8913"/>
<stop offset="1" stop-color="#FFC200"/>
</linearGradient>
<clipPath id="clip0_26835_29172">
<rect width="63" height="88" fill="white"/>
</clipPath>
<clipPath id="clip1_26835_29172">
<rect width="63" height="88" fill="white"/>
</clipPath>
<clipPath id="clip2_26835_29172">
<rect width="4" height="4" fill="white" transform="translate(33 4)"/>
</clipPath>
</defs>
</svg>
