<svg width="63" height="88" viewBox="0 0 63 88" fill="none" xmlns="http://www.w3.org/2000/svg">
<rect width="63" height="88" rx="4" fill="url(#paint0_linear_26835_29173)"/>
<g clip-path="url(#clip0_26835_29173)">
<g clip-path="url(#clip1_26835_29173)">
<path d="M56.54 0.560059H6.45999C3.11315 0.560059 0.399994 3.27321 0.399994 6.62006V81.3801C0.399994 84.7269 3.11315 87.4401 6.45999 87.4401H56.54C59.8868 87.4401 62.6 84.7269 62.6 81.3801V6.62006C62.6 3.27321 59.8868 0.560059 56.54 0.560059Z" fill="#FF7F00"/>
<g opacity="0.2">
<mask id="mask0_26835_29173" style="mask-type:luminance" maskUnits="userSpaceOnUse" x="0" y="0" width="63" height="88">
<path d="M56.54 0.560059H6.45999C3.11315 0.560059 0.399994 3.27321 0.399994 6.62006V81.3801C0.399994 84.7269 3.11315 87.4401 6.45999 87.4401H56.54C59.8868 87.4401 62.6 84.7269 62.6 81.3801V6.62006C62.6 3.27321 59.8868 0.560059 56.54 0.560059Z" fill="white"/>
</mask>
<g mask="url(#mask0_26835_29173)">
<path d="M68.37 47.3101V26.6401L4.45999 90.5501H25.13L68.37 47.3101Z" fill="url(#paint1_linear_26835_29173)"/>
<path d="M64.66 -2.29004H55.22L-2.92001 55.84V66.18L65.46 -2.20004C65.2 -2.26004 64.93 -2.29004 64.66 -2.29004Z" fill="url(#paint2_linear_26835_29173)"/>
<path d="M68.37 69.2298V61.5498L39.37 90.5498H47.05L68.37 69.2298Z" fill="url(#paint3_linear_26835_29173)"/>
</g>
</g>
<path d="M6.62999 55.02C6.62999 55.02 8.69999 56.4 13.62 56.33C18.54 56.26 26.83 53.31 30.97 51.93C35.11 50.55 48.17 48.91 56.26 55.26C64.35 61.61 65.49 66.99 48.87 62.74C48.87 62.74 55.19 62.28 51.39 58.98C47.58 55.68 39.03 55.57 30.06 59.86C21.09 64.15 5.37999 66.46 1.07999 61.96C1.07999 61.96 -0.470006 57.74 6.63999 55.02H6.62999Z" fill="url(#paint4_linear_26835_29173)"/>
<path d="M18.47 62H44.52C48.42 62 51.58 65.36 51.58 69.49C51.58 73.63 48.42 76.98 44.52 76.98H18.47C14.57 76.98 11.41 73.62 11.41 69.49C11.41 65.35 14.57 62 18.47 62Z" fill="#FF5500"/>
<path d="M30.21 76.9901H34.87L37.02 74.8701H32.36L30.21 76.9901Z" fill="#FFC200"/>
<path d="M19.5 62H43.5C47.09 62 50 64.91 50 68.5C50 72.09 47.09 75 43.5 75H19.5C15.91 75 13 72.09 13 68.5C13 64.91 15.91 62 19.5 62Z" fill="#FFC200"/>
<path d="M43.5 62.5C46.81 62.5 49.5 65.19 49.5 68.5C49.5 71.81 46.81 74.5 43.5 74.5H19.5C16.19 74.5 13.5 71.81 13.5 68.5C13.5 65.19 16.19 62.5 19.5 62.5H43.5ZM43.5 62H19.5C15.91 62 13 64.91 13 68.5C13 72.09 15.91 75 19.5 75H43.5C47.09 75 50 72.09 50 68.5C50 64.91 47.09 62 43.5 62Z" fill="url(#paint5_linear_26835_29173)"/>
<path d="M49.6064 68.2235C50.1926 67.8484 50.0042 66.5073 49.1857 65.2279C48.3672 63.9486 47.2285 63.2155 46.6423 63.5905C46.0562 63.9655 46.2445 65.3067 47.063 66.586C47.8815 67.8654 49.0202 68.5985 49.6064 68.2235Z" fill="white"/>
<path d="M59 0H4C1.79 0 0 1.79 0 4V84C0 86.21 1.79 88 4 88H59C61.21 88 63 86.21 63 84V4C63 1.79 61.21 0 59 0ZM61 82.81C61 84.57 59.57 86 57.81 86H5.19C3.43 86 2 84.57 2 82.81V18.19C2 16.43 3.43 15 5.19 15H33.59C34.8 15 35.94 14.45 36.7 13.51L44.8 3.48C45.56 2.54 46.7 1.99 47.91 1.99H57.81C59.57 1.99 61 3.42 61 5.18V82.8V82.81Z" fill="url(#paint6_linear_26835_29173)"/>
<mask id="mask1_26835_29173" style="mask-type:luminance" maskUnits="userSpaceOnUse" x="0" y="0" width="63" height="88">
<path d="M59 0H4C1.79 0 0 1.79 0 4V84C0 86.21 1.79 88 4 88H59C61.21 88 63 86.21 63 84V4C63 1.79 61.21 0 59 0ZM61 82.81C61 84.57 59.57 86 57.81 86H5.19C3.43 86 2 84.57 2 82.81V18.19C2 16.43 3.43 15 5.19 15H33.59C34.8 15 35.94 14.45 36.7 13.51L44.8 3.48C45.56 2.54 46.7 1.99 47.91 1.99H57.81C59.57 1.99 61 3.42 61 5.18V82.8V82.81Z" fill="white"/>
</mask>
<g mask="url(#mask1_26835_29173)">
<path d="M68.37 47.3101V26.6401L4.45999 90.5501H25.13L68.37 47.3101Z" fill="white"/>
<path d="M64.66 -2.29004H55.22L-2.92001 55.84V66.18L65.46 -2.20004C65.2 -2.26004 64.93 -2.29004 64.66 -2.29004Z" fill="white"/>
<path d="M68.37 69.2298V61.5498L39.37 90.5498H47.05L68.37 69.2298Z" fill="white"/>
</g>
<path d="M56.26 55.2602C48.95 49.5302 37.62 50.3102 32.44 51.5302V52.1402C32.44 52.1402 49.93 47.5302 58.18 59.3602L59.07 57.6902C58.27 56.9102 57.33 56.0902 56.27 55.2602H56.26Z" fill="url(#paint7_linear_26835_29173)"/>
<path d="M7.9 55.58C7.03 55.29 6.62 55.02 6.62 55.02C-0.489995 57.73 1.06 61.96 1.06 61.96C1.98 62.92 3.42 63.57 5.19 63.95C4.21 60.41 6.09 57.47 7.89 55.59L7.9 55.58Z" fill="#1A2C38"/>
<path d="M32.43 57.5298C32.43 57.5298 36.08 60.6398 41.37 62.4798C46.65 64.3198 55.94 64.8098 55.94 64.8098C55.94 64.8098 44.19 62.8698 32.43 57.5298Z" fill="#FF5500"/>
<path d="M5.63001 53.3299C5.63001 53.3299 0.660009 58.5299 0.420009 59.3299C0.420009 59.3299 -1.54999 62.6599 4.39001 63.7499C4.39001 63.7499 0.260009 62.4999 1.60001 59.6599C2.93001 56.8199 8.15001 53.8599 13.9 53.6199C19.65 53.3799 29.39 56.5099 39.82 60.9099C50.26 65.3099 71.8 69.0299 58.25 56.9399C58.25 56.9399 57.34 63.5299 48.85 62.7499C46.66 62.4899 41.03 60.4099 37.58 58.9299C36.62 58.5199 33.82 57.5399 33.82 57.5399L17.56 50.6699L5.61001 53.3399L5.63001 53.3299Z" fill="white"/>
<path d="M0.419993 59.3299C0.149993 59.7299 2.01999 56.3799 2.95999 54.5799C3.45999 53.6299 3.93999 52.8499 4.28999 52.3199C4.60999 51.8299 5.01999 51.4099 5.51999 51.1099C13.27 46.2899 22.64 51.0599 27.29 53.9499C32.08 56.9399 37.73 58.9799 37.73 58.9799C37.73 58.9799 33.19 57.4899 27.22 55.2599C21.25 53.0299 6.67999 50.1799 0.419993 59.3299Z" fill="url(#paint8_linear_26835_29173)"/>
<path d="M37.73 58.9799C37.73 58.9799 37.21 58.8099 27.29 53.9499C24.32 52.4899 19.94 49.7799 15.07 49.1899C14.78 50.6699 16 52.3199 18.45 53.2299C21.95 53.6199 25.12 54.4799 27.22 55.2599C33.19 57.4899 37.73 58.9799 37.73 58.9799Z" fill="#557086"/>
<path d="M9.31001 52.1C9.31001 52.1 10.18 50.71 9.31001 49.98C9.31001 49.98 4.74001 50.84 4.65001 53.94L4.42001 55.15C4.42001 55.15 6.22001 53.38 10.19 52.94L9.32001 52.1H9.31001Z" fill="white"/>
<path d="M43.08 41.5198C38.53 48.5898 31.26 53.0898 24.32 52.2098C22.09 51.9298 19.56 50.3298 17.6 49.0598C9.54001 43.8798 7.88001 32.0998 13.88 22.7498C19.89 13.3998 31.3 10.0298 39.36 15.2098C41.27 16.4398 44.79 17.9298 45.97 19.7798C49.75 25.7298 47.66 34.3898 43.08 41.5198Z" fill="#FF5500"/>
<path d="M22.28 33.45C16.09 31.08 13.33 27.38 13.3 23.75C10.03 29.43 9.48001 35.86 11.38 41.12C14.65 43.17 19.08 45.27 24.93 46.82L22.28 33.45Z" fill="#FFC200"/>
<path d="M11.38 41.1201C12.55 44.3601 14.64 47.1601 17.6 49.0601C19.56 50.3201 22.09 51.9201 24.32 52.2101C24.88 52.2801 25.45 52.3101 26.01 52.3101L24.92 46.8201C19.08 45.2801 14.64 43.1701 11.37 41.1201H11.38Z" fill="#FFEBB8"/>
<path d="M33.14 13.9599C33.18 14.2799 31.39 14.7599 29.15 15.0199C26.91 15.2799 25.06 15.2299 25.03 14.9099C25 14.5899 26.74 13.7599 28.98 13.4999C31.22 13.2399 33.11 13.6299 33.14 13.9599Z" fill="white"/>
<path d="M47.5044 44.0521C53.5141 34.7055 51.852 22.9274 43.7922 17.7451C35.7323 12.5629 24.3267 15.9387 18.3171 25.2854C12.3074 34.632 13.9694 46.4101 22.0293 51.5923C30.0891 56.7746 41.4947 53.3988 47.5044 44.0521Z" fill="#FFC200"/>
<path d="M42.303 41.2579C46.413 34.8657 45.4253 26.9066 40.097 23.4806C34.7686 20.0546 27.1174 22.4592 23.0074 28.8513C18.8974 35.2434 19.885 43.2026 25.2134 46.6286C30.5417 50.0546 38.193 47.65 42.303 41.2579Z" fill="#FFC200"/>
<path d="M41.62 25.5598C41.62 25.5598 32.77 18.5298 22.28 30.1798C22.28 30.1798 28.58 17.5998 40.1 23.4698L41.62 25.5598Z" fill="#1A2C38"/>
<path d="M40.1 23.4799C39.11 22.8499 38.04 22.4099 36.93 22.1699C37.36 22.3599 37.78 22.5899 38.19 22.8499C43.52 26.2799 44.51 34.2399 40.4 40.6299C37.05 45.8399 31.35 48.3999 26.47 47.3199C31.69 49.6699 38.51 47.1699 42.3 41.2699C46.41 34.8799 45.42 26.9199 40.09 23.4899L40.1 23.4799Z" fill="#FF5500"/>
<path d="M15.83 39.4402C14.29 26.8002 27.02 17.4602 27.43 17.1602C23.91 18.8302 20.69 21.5902 18.32 25.2802C12.31 34.6302 13.97 46.4102 22.04 51.5902C25.89 54.0602 30.5 54.5802 34.92 53.4402C29.21 53.8202 17.41 52.2702 15.84 39.4402H15.83Z" fill="#FFEBB8"/>
<path d="M20 23.5098C20 23.5098 21.57 27.1398 24.64 26.7098C24.64 26.7098 20.63 30.7498 20.47 37.2598C20.47 37.2598 17.24 36.0798 14.96 37.7798C14.96 37.7798 16.14 27.7098 20 23.5098Z" fill="#FFEBB8"/>
<path d="M47.83 21.54C47.83 21.54 53.4 30.27 48.33 42.67C48.33 42.67 55.21 31.37 47.83 21.54Z" fill="#FFEBB8"/>
<path d="M55.35 20.9702C54.6 22.1402 53.98 22.7502 52.81 23.5102C53.98 24.2602 54.59 24.8802 55.35 26.0502C56.1 24.8802 56.72 24.2702 57.89 23.5102C56.72 22.7602 56.11 22.1402 55.35 20.9702Z" fill="white"/>
<path d="M6.36001 34.5898C5.76001 35.5198 5.28001 35.9998 4.35001 36.5998C5.28001 37.1998 5.76001 37.6798 6.36001 38.6098C6.96001 37.6798 7.44001 37.1998 8.37001 36.5998C7.44001 35.9998 6.96001 35.5198 6.36001 34.5898Z" fill="white"/>
</g>
<path d="M47.68 8.3298L47.55 10.7798L46.6 10.8698L46.09 9.5598L46.01 10.8998H45.2L45.27 8.3398L46.17 8.2998L46.8 9.5998L46.83 8.3698L47.68 8.3398V8.3298Z" fill="#FF5500"/>
<path d="M50.04 9.54012C50.04 9.65012 50.03 9.76012 50 9.86012C49.97 9.96012 49.94 10.0601 49.89 10.1501C49.84 10.2401 49.78 10.3201 49.72 10.3901C49.65 10.4601 49.58 10.5301 49.49 10.5801C49.4 10.6301 49.31 10.6701 49.21 10.7001C49.11 10.7301 49 10.7401 48.89 10.7401C48.78 10.7401 48.68 10.7301 48.58 10.7001C48.48 10.6701 48.39 10.6301 48.3 10.5801C48.21 10.5301 48.14 10.4701 48.07 10.4001C48 10.3301 47.94 10.2501 47.89 10.1701C47.84 10.0801 47.8 9.99012 47.78 9.89012C47.75 9.79012 47.74 9.69012 47.74 9.58012C47.74 9.47012 47.75 9.37012 47.78 9.27012C47.81 9.17012 47.84 9.07012 47.89 8.99012C47.94 8.91012 48 8.82012 48.06 8.74012C48.12 8.66012 48.2 8.60012 48.29 8.55012C48.37 8.50012 48.46 8.45012 48.56 8.42012C48.66 8.39012 48.76 8.37012 48.87 8.37012C49.04 8.37012 49.2 8.40012 49.35 8.45012C49.49 8.50012 49.62 8.58012 49.72 8.68012C49.82 8.78012 49.9 8.90012 49.96 9.04012C50.02 9.18012 50.04 9.34012 50.04 9.52012V9.54012ZM49.24 9.59012C49.24 9.54012 49.24 9.49012 49.22 9.44012C49.21 9.39012 49.18 9.35012 49.15 9.31012C49.12 9.27012 49.09 9.24012 49.04 9.22012C48.99 9.20012 48.95 9.18012 48.89 9.18012C48.83 9.18012 48.78 9.18012 48.74 9.21012C48.7 9.23012 48.66 9.26012 48.63 9.29012C48.6 9.32012 48.57 9.37012 48.56 9.41012C48.54 9.46012 48.53 9.51012 48.53 9.56012C48.53 9.61012 48.53 9.66012 48.55 9.71012C48.56 9.76012 48.59 9.81012 48.61 9.85012C48.64 9.89012 48.67 9.92012 48.72 9.95012C48.76 9.98012 48.81 9.99012 48.87 9.99012C48.93 9.99012 48.98 9.98012 49.02 9.96012C49.06 9.94012 49.1 9.91012 49.13 9.87012C49.16 9.83012 49.19 9.79012 49.2 9.74012C49.22 9.69012 49.23 9.64012 49.23 9.59012H49.24Z" fill="#FF5500"/>
<path d="M50.78 10.5499C50.78 10.5999 50.77 10.6499 50.75 10.6999C50.73 10.7499 50.7 10.7899 50.67 10.8199C50.64 10.8499 50.6 10.8799 50.55 10.8999C50.5 10.9199 50.46 10.9299 50.4 10.9299C50.34 10.9299 50.3 10.9299 50.25 10.8999C50.2 10.8799 50.16 10.8499 50.13 10.8199C50.1 10.7899 50.07 10.7499 50.05 10.6999C50.03 10.6499 50.02 10.5999 50.02 10.5499C50.02 10.4999 50.02 10.4499 50.05 10.3999C50.07 10.3499 50.1 10.3099 50.13 10.2799C50.16 10.2499 50.2 10.2199 50.25 10.1999C50.3 10.1799 50.35 10.1699 50.4 10.1699C50.45 10.1699 50.5 10.1699 50.55 10.1999C50.6 10.2199 50.64 10.2499 50.67 10.2799C50.7 10.3099 50.73 10.3599 50.75 10.3999C50.77 10.4499 50.78 10.4999 50.78 10.5499Z" fill="#FF5500"/>
<path d="M47.58 7.86984L47.45 10.3198L46.5 10.4098L45.99 9.09984L45.91 10.4398H45.1L45.17 7.87984L46.07 7.83984L46.7 9.13984L46.73 7.90984L47.58 7.87984V7.86984Z" fill="white"/>
<path d="M49.94 9.08016C49.94 9.19016 49.93 9.30016 49.9 9.40016C49.87 9.50016 49.84 9.60016 49.79 9.69016C49.74 9.78016 49.68 9.86016 49.62 9.93016C49.55 10.0002 49.48 10.0702 49.39 10.1202C49.3 10.1702 49.21 10.2102 49.11 10.2402C49.01 10.2702 48.9 10.2802 48.79 10.2802C48.68 10.2802 48.58 10.2702 48.48 10.2402C48.38 10.2102 48.29 10.1702 48.2 10.1202C48.11 10.0702 48.04 10.0102 47.97 9.94016C47.9 9.87016 47.84 9.79016 47.79 9.71016C47.74 9.62016 47.7 9.53016 47.68 9.43016C47.65 9.33016 47.64 9.23016 47.64 9.12016C47.64 9.01016 47.65 8.91016 47.68 8.81016C47.71 8.71016 47.74 8.61016 47.79 8.53016C47.84 8.45016 47.9 8.36016 47.96 8.28016C48.02 8.20016 48.1 8.14016 48.19 8.09016C48.27 8.04016 48.36 7.99016 48.46 7.96016C48.56 7.93016 48.66 7.91016 48.77 7.91016C48.94 7.91016 49.1 7.94016 49.25 7.99016C49.39 8.04016 49.52 8.12016 49.62 8.22016C49.72 8.32016 49.8 8.44016 49.86 8.58016C49.92 8.72016 49.94 8.88016 49.94 9.06016V9.08016ZM49.14 9.12016C49.14 9.07016 49.14 9.02016 49.12 8.97016C49.11 8.92016 49.08 8.88016 49.05 8.84016C49.02 8.80016 48.99 8.77016 48.94 8.75016C48.89 8.73016 48.85 8.71016 48.79 8.71016C48.73 8.71016 48.68 8.71016 48.64 8.74016C48.6 8.76016 48.56 8.79016 48.53 8.82016C48.5 8.85016 48.47 8.90016 48.46 8.94016C48.44 8.99016 48.43 9.04016 48.43 9.09016C48.43 9.14016 48.43 9.19016 48.45 9.24016C48.46 9.29016 48.49 9.34016 48.51 9.38016C48.54 9.42016 48.57 9.45016 48.62 9.48016C48.66 9.51016 48.71 9.52016 48.77 9.52016C48.83 9.52016 48.88 9.51016 48.92 9.49016C48.96 9.47016 49 9.44016 49.03 9.40016C49.06 9.36016 49.09 9.32016 49.1 9.27016C49.12 9.22016 49.13 9.17016 49.13 9.12016H49.14Z" fill="white"/>
<path d="M50.68 10.09C50.68 10.14 50.67 10.19 50.65 10.24C50.63 10.29 50.6 10.33 50.57 10.36C50.54 10.39 50.5 10.42 50.45 10.44C50.4 10.46 50.36 10.47 50.3 10.47C50.24 10.47 50.2 10.47 50.15 10.44C50.1 10.42 50.06 10.39 50.03 10.36C50 10.33 49.97 10.29 49.95 10.24C49.93 10.19 49.92 10.14 49.92 10.09C49.92 10.04 49.92 9.98996 49.95 9.93996C49.97 9.88996 50 9.84996 50.03 9.81996C50.06 9.78996 50.1 9.75996 50.15 9.73996C50.2 9.71996 50.25 9.70996 50.3 9.70996C50.35 9.70996 50.4 9.70996 50.45 9.73996C50.5 9.75996 50.54 9.78996 50.57 9.81996C50.6 9.84996 50.63 9.89996 50.65 9.93996C50.67 9.98996 50.68 10.04 50.68 10.09Z" fill="white"/>
<path d="M54.3 6.41008L54.09 11.6301L52.52 11.5601L52.61 8.09008L52.03 8.49008L51.49 7.23008L52.66 6.33008L54.29 6.40008L54.3 6.41008Z" fill="#FF5500"/>
<path d="M59.01 9.0599C59.01 9.2799 58.99 9.4899 58.94 9.6999C58.89 9.9099 58.83 10.1199 58.74 10.3099C58.65 10.4999 58.54 10.6899 58.41 10.8599C58.28 11.0299 58.14 11.1799 57.97 11.2999C57.8 11.4199 57.62 11.5199 57.43 11.5899C57.24 11.6599 57.02 11.6999 56.79 11.6999C56.56 11.6999 56.35 11.6599 56.15 11.5899C55.95 11.5199 55.77 11.4199 55.61 11.2999C55.45 11.1799 55.3 11.0299 55.17 10.8599C55.04 10.6899 54.93 10.5099 54.84 10.3099C54.75 10.1099 54.68 9.9099 54.64 9.6899C54.6 9.4699 54.57 9.2599 54.57 9.0499C54.57 8.8399 54.59 8.6199 54.64 8.4099C54.69 8.1999 54.75 7.9899 54.84 7.7899C54.93 7.5899 55.04 7.4099 55.17 7.2399C55.3 7.0699 55.45 6.9199 55.61 6.7999C55.77 6.6799 55.96 6.5799 56.16 6.5099C56.36 6.4399 56.57 6.3999 56.8 6.3999C57.03 6.3999 57.24 6.4399 57.44 6.5099C57.64 6.5799 57.82 6.6799 57.98 6.7999C58.14 6.9199 58.29 7.0699 58.42 7.2399C58.55 7.4099 58.66 7.5899 58.75 7.7899C58.84 7.9899 58.91 8.1899 58.95 8.4099C58.99 8.6299 59.02 8.8399 59.02 9.0499L59.01 9.0599ZM57.5 9.1699C57.5 9.0599 57.49 8.9399 57.46 8.8099C57.43 8.6799 57.39 8.5499 57.33 8.4399C57.27 8.3299 57.19 8.2299 57.1 8.1499C57.01 8.0699 56.9 8.0299 56.77 8.0299C56.64 8.0299 56.53 8.0699 56.43 8.1499C56.33 8.2299 56.26 8.3299 56.2 8.4399C56.14 8.5499 56.09 8.6799 56.07 8.8099C56.05 8.9399 56.03 9.0599 56.03 9.1699C56.03 9.2799 56.04 9.3999 56.07 9.5299C56.1 9.6599 56.14 9.7899 56.2 9.8999C56.26 10.0099 56.34 10.1099 56.43 10.1899C56.52 10.2699 56.64 10.3099 56.77 10.3099C56.9 10.3099 57.01 10.2699 57.1 10.1899C57.19 10.1099 57.27 10.0099 57.33 9.8999C57.39 9.7899 57.43 9.6599 57.46 9.5299C57.49 9.3999 57.5 9.2799 57.5 9.1699Z" fill="#FF5500"/>
<path d="M54.13 6.0302L53.92 11.2502L52.35 11.1802L52.44 7.7102L51.86 8.1102L51.32 6.8502L52.49 5.9502L54.12 6.0202L54.13 6.0302Z" fill="#FFEBB8"/>
<path d="M58.84 8.68002C58.84 8.90002 58.82 9.11002 58.77 9.32002C58.72 9.53002 58.66 9.74002 58.57 9.93002C58.48 10.12 58.37 10.31 58.24 10.48C58.11 10.65 57.97 10.8 57.8 10.92C57.63 11.04 57.45 11.14 57.26 11.21C57.07 11.28 56.85 11.32 56.62 11.32C56.39 11.32 56.18 11.28 55.98 11.21C55.78 11.14 55.6 11.04 55.44 10.92C55.28 10.8 55.13 10.65 55 10.48C54.87 10.31 54.76 10.13 54.67 9.93002C54.58 9.73002 54.51 9.53002 54.47 9.31002C54.43 9.09002 54.4 8.88002 54.4 8.67002C54.4 8.46002 54.42 8.24002 54.47 8.03002C54.52 7.82002 54.58 7.61002 54.67 7.41002C54.76 7.21002 54.87 7.03002 55 6.86002C55.13 6.69002 55.28 6.54002 55.44 6.42002C55.6 6.30002 55.79 6.20002 55.99 6.13002C56.19 6.06002 56.4 6.02002 56.63 6.02002C56.86 6.02002 57.07 6.06002 57.27 6.13002C57.47 6.20002 57.65 6.30002 57.81 6.42002C57.97 6.54002 58.12 6.69002 58.25 6.86002C58.38 7.03002 58.49 7.21002 58.58 7.41002C58.67 7.61002 58.74 7.81002 58.78 8.03002C58.82 8.25002 58.85 8.46002 58.85 8.67002L58.84 8.68002ZM57.32 8.79002C57.32 8.68002 57.31 8.56002 57.28 8.43002C57.25 8.30002 57.21 8.17002 57.15 8.06002C57.09 7.95002 57.01 7.85002 56.92 7.77002C56.83 7.69002 56.72 7.65002 56.59 7.65002C56.46 7.65002 56.35 7.69002 56.25 7.77002C56.15 7.85002 56.08 7.95002 56.02 8.06002C55.96 8.17002 55.91 8.30002 55.89 8.43002C55.87 8.56002 55.85 8.68002 55.85 8.79002C55.85 8.90002 55.86 9.02002 55.89 9.15002C55.92 9.28002 55.96 9.41002 56.02 9.52002C56.08 9.63002 56.16 9.73002 56.25 9.81002C56.34 9.89002 56.46 9.93002 56.59 9.93002C56.72 9.93002 56.83 9.89002 56.92 9.81002C57.01 9.73002 57.09 9.63002 57.15 9.52002C57.21 9.41002 57.25 9.28002 57.28 9.15002C57.31 9.02002 57.32 8.90002 57.32 8.79002Z" fill="#FFEBB8"/>
<path d="M52.49 5.95996L52.08 6.26996L54.1 6.74996L54.13 6.02996L52.49 5.95996Z" fill="white"/>
<path d="M58.24 6.86978C58.11 6.69978 57.97 6.54978 57.8 6.42978C57.63 6.30978 57.45 6.20978 57.26 6.13978C57.07 6.06978 56.85 6.02979 56.62 6.02979C56.39 6.02979 56.18 6.06978 55.98 6.13978C55.78 6.20978 55.6 6.30978 55.43 6.42978C55.26 6.54978 55.12 6.69978 54.99 6.86978L58.57 7.41979C58.48 7.21979 58.37 7.03978 58.24 6.86978Z" fill="white"/>
<path d="M52.4 9.06982L52.35 11.1798L53.92 11.2498L54 9.28982L52.4 9.06982Z" fill="#FFC200"/>
<path d="M54.02 8.57002L52.42 8.27002L52.4 9.40002L53.98 9.78002L54.02 8.57002Z" fill="white"/>
<path d="M56.99 9.77986C56.99 9.77986 56.93 9.79986 56.92 9.80986C56.83 9.88986 56.72 9.92986 56.59 9.92986C56.46 9.92986 56.35 9.88986 56.25 9.80986C56.19 9.75986 56.09 9.74986 56.04 9.67986L54.48 9.35986C54.53 9.55986 54.59 9.74986 54.67 9.92986C54.76 10.1299 54.87 10.3099 55 10.4799C55.13 10.6499 55.28 10.7999 55.44 10.9199C55.6 11.0399 55.79 11.1399 55.98 11.2099C56.17 11.2799 56.39 11.3199 56.62 11.3199C56.85 11.3199 57.06 11.2799 57.26 11.2099C57.46 11.1399 57.64 11.0399 57.8 10.9199C57.96 10.7999 58.11 10.6499 58.24 10.4799C58.35 10.3399 58.44 10.1799 58.52 10.0099L56.99 9.77986Z" fill="#FFC200"/>
<path d="M57.27 9.18014C57.24 9.30014 57.2 9.41014 57.15 9.52014C57.09 9.64014 57.01 9.73014 56.92 9.81014C56.83 9.89014 56.72 9.93014 56.59 9.93014C56.46 9.93014 56.35 9.89014 56.25 9.81014C56.15 9.73014 56.08 9.63014 56.02 9.52014C55.96 9.41014 55.91 9.28014 55.89 9.15014C55.87 9.06014 55.87 8.99014 55.86 8.92014L54.4 8.64014C54.4 8.64014 54.4 8.67014 54.4 8.68014C54.4 8.89014 54.42 9.11014 54.47 9.32014C54.52 9.53014 54.58 9.74014 54.67 9.94014L58.02 10.7401C58.1 10.6601 58.17 10.5801 58.25 10.4801C58.38 10.3101 58.49 10.1301 58.58 9.93014C58.65 9.78014 58.69 9.62014 58.74 9.45014L57.28 9.17014L57.27 9.18014Z" fill="white"/>
</g>
<path fill-rule="evenodd" clip-rule="evenodd" d="M6.49771 79C6.98969 79 7.48602 79.213 7.49037 79.6913C7.49037 80.1043 7.24656 80.2696 6.99839 80.2696C6.75023 80.2696 6.73281 80.1435 6.73281 80.1435C6.73281 80.1435 7.02452 79.9261 7.02452 79.7174C7.02452 79.6087 6.94179 79.313 6.489 79.3174C5.8577 79.3174 5.5181 79.6174 5.5181 80.1522C5.5181 80.7652 7.35105 80.9739 7.3554 81.7652C7.3554 82.613 6.47594 82.9957 5.69225 83C5.283 83 5.01306 82.7609 5.00871 82.3783C5.00871 81.9261 5.22204 81.4652 5.75756 81.4652C5.88382 81.4565 5.98831 81.5522 5.99702 81.6783C5.99702 81.6783 5.99702 81.6826 5.99702 81.687C5.99702 81.687 5.45715 81.8391 5.4615 82.3783C5.4615 82.4783 5.56599 82.6609 5.81851 82.6565C6.07103 82.6522 6.82424 82.4739 6.81989 81.8087C6.81989 81.1913 5.00435 81.1087 5 80.1478C5 79.0652 6.08845 79.0087 6.49771 79.0087V79ZM10.747 79.6C10.8123 79.5696 11.2129 79.4913 11.1955 79.813C11.1824 80.1348 10.9386 80.6913 10.9037 80.9348C11.2303 80.7696 11.6918 80.2087 11.6918 80.2087C11.6918 80.2087 12.0183 80.2522 11.9182 80.4522C11.818 80.6522 11.1519 81.1435 11.1519 81.1435C11.1519 81.1435 11.3043 82.5696 12.1707 82.5696C12.6453 82.5696 12.8499 82.3609 12.937 82.287C12.9587 82.2696 12.9762 82.2652 12.9849 82.2783C13.0197 82.387 12.9936 82.5043 12.9152 82.5913C12.8194 82.6957 12.5974 82.8217 12.1533 82.8261C11.3653 82.8261 10.9255 82.1957 10.8123 81.2609C10.7252 81.5348 10.7339 81.9826 10.7209 82.2C10.6948 82.2435 10.2507 82.4174 10.2158 82.1174C10.2158 82.0913 10.2158 82.0696 10.2158 82.0435C10.1331 82.1609 10.0199 82.2826 9.91108 82.2826C9.71951 82.2826 9.63679 82.1217 9.60196 82.0391C9.57584 82.0696 9.3625 82.287 9.08821 82.287C8.92277 82.2913 8.77474 82.1957 8.70943 82.0435C8.57011 82.1435 8.32195 82.2913 8.03895 82.2913C7.73418 82.2913 7.66017 82.1087 7.66017 81.9565C7.66017 81.713 7.84303 80.987 7.84303 80.987C7.84303 80.987 7.48602 81.1304 7.36411 81.1348C7.19431 81.1348 7.11159 80.8217 7.11159 80.813C7.11159 80.8087 7.11159 80.8 7.1203 80.8C7.22044 80.7609 7.94317 80.513 7.94317 80.513C7.94317 80.513 8.07813 79.9826 8.09555 79.913C8.11296 79.8435 8.2131 79.7 8.33065 79.6565C8.41773 79.6217 8.50916 79.6 8.60059 79.5913C8.63107 79.5913 8.65284 79.6 8.65284 79.6174C8.65284 79.6348 8.47433 80.4087 8.47433 80.4087C8.47433 80.4087 8.84876 80.3217 8.98808 80.3217C9.09692 80.3217 9.15352 80.387 9.09257 80.4696C9.03162 80.5522 8.96196 80.6478 8.92712 80.6913C8.88794 80.7348 8.86182 80.7435 8.77039 80.7609C8.64413 80.787 8.36113 80.8565 8.36113 80.8565C8.36113 80.8565 8.13473 81.6783 8.13909 81.8174C8.13909 81.8957 8.16521 81.987 8.26099 81.987C8.35678 81.987 8.53964 81.8739 8.67025 81.7913C8.69202 81.1522 9.18835 80.7261 9.57584 80.7261C9.7021 80.7261 9.65421 80.8478 9.79788 80.8478H9.88931C9.94591 80.8478 10.0069 80.8522 10.0069 80.9957C10.0069 81.1957 9.89367 81.5261 9.89367 81.7348C9.89367 81.8826 9.91544 81.987 9.97204 81.987C10.0678 81.987 10.1767 81.8478 10.255 81.7261C10.3813 81.0304 10.734 79.7609 10.734 79.6174L10.747 79.6ZM12.5016 80.7C12.7672 80.6783 12.9326 80.8217 12.9631 80.9C12.9936 80.9783 12.9892 81.1609 12.9152 81.2913C12.6845 81.7044 12.1097 81.6304 12.1097 81.6304C12.1097 81.6304 12.0444 81.9565 12.3405 81.9565C12.593 81.9565 12.7062 81.8304 12.8151 81.7261C12.8586 81.7261 12.9936 81.8652 12.9326 81.9609C12.8847 82.0348 12.6191 82.2565 12.2795 82.2609C11.7397 82.2609 11.6047 81.8 11.6744 81.4696C11.7658 81.0609 12.1751 80.7217 12.5016 80.6957V80.7ZM9.6455 80.987C9.32332 80.987 8.82699 81.9696 9.20577 81.9652C9.61938 81.9652 9.6455 81.1826 9.6455 81.0043V80.987ZM12.6409 80.8913C12.4232 80.9 12.1751 81.3174 12.1533 81.5C12.4798 81.513 12.654 81.1957 12.6757 81.0696C12.6888 80.9739 12.6932 80.887 12.6409 80.887V80.8913Z" fill="white"/>
<path fill-rule="evenodd" clip-rule="evenodd" d="M55.9957 79.5947C56.0385 79.5947 56.077 79.6161 56.0984 79.6504L56.9027 80.8012L57.5615 80.1423C57.6 80.1038 57.6514 80.0953 57.6984 80.1167C57.7455 80.1381 57.7754 80.1808 57.7754 80.2365V81.8963C57.7754 82.0332 57.7198 82.1616 57.6257 82.2557C57.5316 82.3498 57.3989 82.4054 57.2663 82.4054H54.7209C54.584 82.4054 54.4556 82.3498 54.3615 82.2557C54.2674 82.1616 54.2118 82.029 54.2118 81.8963V80.2322C54.2118 80.1808 54.2417 80.1338 54.2888 80.1124C54.3358 80.091 54.3915 80.1038 54.4257 80.1381L55.0845 80.7969L55.8888 79.6461C55.9145 79.6119 55.953 79.5905 55.9915 79.5905L55.9957 79.5947Z" fill="#FFC200"/>
<path d="M55.9957 79.5947C56.0385 79.5947 56.077 79.6161 56.0984 79.6504L56.9027 80.8012L57.5615 80.1423C57.5872 80.1167 57.6171 80.1039 57.6513 80.1039C57.6685 80.1039 57.6856 80.1039 57.6984 80.1124C57.7455 80.1338 57.7754 80.1766 57.7754 80.2322V81.8921C57.7754 82.029 57.7198 82.1573 57.6257 82.2514C57.5316 82.3456 57.3989 82.4012 57.2663 82.4012H54.7209C54.584 82.4012 54.4556 82.3456 54.3615 82.2514C54.2674 82.1573 54.2118 82.0247 54.2118 81.8921L54.2118 80.2322C54.2118 80.1808 54.2417 80.1338 54.2888 80.1124C54.3059 80.1038 54.323 80.1039 54.3358 80.1039C54.3701 80.1039 54.4 80.1167 54.4257 80.1424L55.0845 80.8012L55.8888 79.6504C55.9144 79.6162 55.9529 79.5948 55.9914 79.5948M55.9957 79.3809C55.8845 79.3809 55.7818 79.4365 55.7176 79.5263L55.0588 80.4675L54.5797 79.9883C54.5155 79.9242 54.4299 79.89 54.3401 79.89C54.2973 79.89 54.2503 79.8985 54.2075 79.9156C54.0791 79.967 53.9979 80.091 53.9979 80.2322V81.8921C53.9979 82.0846 54.0749 82.2686 54.2118 82.4055C54.3487 82.5424 54.5283 82.6194 54.7251 82.6194H57.2749C57.4674 82.6194 57.6513 82.5424 57.7882 82.4055C57.9251 82.2686 58.0021 82.0889 58.0021 81.8921V80.2322C58.0021 80.0953 57.9209 79.9712 57.7925 79.9156C57.7497 79.8985 57.707 79.89 57.6642 79.89C57.5743 79.89 57.4888 79.9242 57.4246 79.9883L56.9455 80.4675L56.2781 79.5263C56.2139 79.4365 56.107 79.3809 56 79.3809H55.9957Z" fill="#213743"/>
<path fill-rule="evenodd" clip-rule="evenodd" d="M55.3925 81.0664C55.3284 80.9809 55.3241 80.8611 55.3882 80.7755L56 79.9242V81.8621L55.3968 81.0707L55.3925 81.0664Z" fill="#FF7F00"/>
<path fill-rule="evenodd" clip-rule="evenodd" d="M56.6032 80.7113C56.6674 80.7969 56.6717 80.9167 56.6075 81.0022L55.9957 81.8536V79.9199L56.599 80.7113H56.6032Z" fill="#FFEBB8"/>
<path d="M26.2231 70.572C25.5151 70.572 24.9811 70.356 24.6091 69.99L25.1731 69.27C25.4491 69.522 25.8271 69.66 26.2111 69.66C26.6491 69.66 26.8651 69.444 26.8651 69.198C26.8651 68.928 26.6551 68.736 26.2411 68.736C25.9231 68.736 25.6711 68.826 25.4491 69.036L24.7351 68.862V66.498H27.6391V67.398H25.7671V68.172C25.9591 67.986 26.2711 67.854 26.6251 67.854C27.3031 67.854 27.9151 68.352 27.9151 69.156C27.9151 70.02 27.2611 70.572 26.2231 70.572ZM29.9443 70.572C28.7743 70.572 28.2283 69.558 28.2283 68.502C28.2283 67.446 28.7743 66.438 29.9443 66.438C31.1143 66.438 31.6603 67.446 31.6603 68.502C31.6603 69.558 31.1143 70.572 29.9443 70.572ZM29.9443 69.66C30.4243 69.66 30.6163 69.21 30.6163 68.502C30.6163 67.794 30.4243 67.35 29.9443 67.35C29.4643 67.35 29.2723 67.794 29.2723 68.502C29.2723 69.21 29.4643 69.66 29.9443 69.66ZM33.6884 70.572C32.5184 70.572 31.9724 69.558 31.9724 68.502C31.9724 67.446 32.5184 66.438 33.6884 66.438C34.8584 66.438 35.4044 67.446 35.4044 68.502C35.4044 69.558 34.8584 70.572 33.6884 70.572ZM33.6884 69.66C34.1684 69.66 34.3604 69.21 34.3604 68.502C34.3604 67.794 34.1684 67.35 33.6884 67.35C33.2084 67.35 33.0164 67.794 33.0164 68.502C33.0164 69.21 33.2084 69.66 33.6884 69.66ZM38.6685 70.5H37.6545L37.0965 69.624L36.5325 70.5H35.5245L36.5145 69.012L35.5845 67.602H36.5985L37.0965 68.388L37.5885 67.602H38.6025L37.6785 69.012L38.6685 70.5Z" fill="#FFEBB8"/>
<path d="M26.2231 70.072C25.5151 70.072 24.9811 69.856 24.6091 69.49L25.1731 68.77C25.4491 69.022 25.8271 69.16 26.2111 69.16C26.6491 69.16 26.8651 68.944 26.8651 68.698C26.8651 68.428 26.6551 68.236 26.2411 68.236C25.9231 68.236 25.6711 68.326 25.4491 68.536L24.7351 68.362V65.998H27.6391V66.898H25.7671V67.672C25.9591 67.486 26.2711 67.354 26.6251 67.354C27.3031 67.354 27.9151 67.852 27.9151 68.656C27.9151 69.52 27.2611 70.072 26.2231 70.072ZM29.9443 70.072C28.7743 70.072 28.2283 69.058 28.2283 68.002C28.2283 66.946 28.7743 65.938 29.9443 65.938C31.1143 65.938 31.6603 66.946 31.6603 68.002C31.6603 69.058 31.1143 70.072 29.9443 70.072ZM29.9443 69.16C30.4243 69.16 30.6163 68.71 30.6163 68.002C30.6163 67.294 30.4243 66.85 29.9443 66.85C29.4643 66.85 29.2723 67.294 29.2723 68.002C29.2723 68.71 29.4643 69.16 29.9443 69.16ZM33.6884 70.072C32.5184 70.072 31.9724 69.058 31.9724 68.002C31.9724 66.946 32.5184 65.938 33.6884 65.938C34.8584 65.938 35.4044 66.946 35.4044 68.002C35.4044 69.058 34.8584 70.072 33.6884 70.072ZM33.6884 69.16C34.1684 69.16 34.3604 68.71 34.3604 68.002C34.3604 67.294 34.1684 66.85 33.6884 66.85C33.2084 66.85 33.0164 67.294 33.0164 68.002C33.0164 68.71 33.2084 69.16 33.6884 69.16ZM38.6685 70H37.6545L37.0965 69.124L36.5325 70H35.5245L36.5145 68.512L35.5845 67.102H36.5985L37.0965 67.888L37.5885 67.102H38.6025L37.6785 68.512L38.6685 70Z" fill="#FF5500"/>
<path d="M7.45 11.3999H5.33V8.0649H6.04V10.7749H7.45V11.3999ZM9.01348 11.4599C8.27848 11.4599 7.72348 10.9649 7.72348 10.1899C7.72348 9.4899 8.23848 8.9249 8.97348 8.9249C9.69348 8.9249 10.1835 9.4649 10.1835 10.2549V10.3949H8.38848C8.42848 10.6999 8.67348 10.9549 9.08348 10.9549C9.28848 10.9549 9.57348 10.8649 9.72848 10.7149L10.0085 11.1249C9.76848 11.3449 9.38848 11.4599 9.01348 11.4599ZM9.56848 9.9649C9.55348 9.7349 9.39348 9.4299 8.97348 9.4299C8.57848 9.4299 8.40848 9.7249 8.37848 9.9649H9.56848ZM11.6321 12.3799C11.2171 12.3799 10.8971 12.2849 10.5921 12.0199L10.8771 11.5599C11.0721 11.7749 11.3271 11.8599 11.6321 11.8599C11.9371 11.8599 12.2971 11.7249 12.2971 11.2499V11.0049C12.1071 11.2449 11.8471 11.3849 11.5521 11.3849C10.9471 11.3849 10.4871 10.9599 10.4871 10.1549C10.4871 9.3649 10.9421 8.9249 11.5521 8.9249C11.8421 8.9249 12.1021 9.0499 12.2971 9.2949V8.9849H12.9371V11.2349C12.9371 12.1549 12.2271 12.3799 11.6321 12.3799ZM11.7521 10.8199C11.9621 10.8199 12.1921 10.6999 12.2971 10.5449V9.7649C12.1921 9.6049 11.9621 9.4899 11.7521 9.4899C11.3921 9.4899 11.1421 9.7399 11.1421 10.1549C11.1421 10.5699 11.3921 10.8199 11.7521 10.8199ZM14.702 11.4599C13.967 11.4599 13.412 10.9649 13.412 10.1899C13.412 9.4899 13.927 8.9249 14.662 8.9249C15.382 8.9249 15.872 9.4649 15.872 10.2549V10.3949H14.077C14.117 10.6999 14.362 10.9549 14.772 10.9549C14.977 10.9549 15.262 10.8649 15.417 10.7149L15.697 11.1249C15.457 11.3449 15.077 11.4599 14.702 11.4599ZM15.257 9.9649C15.242 9.7349 15.082 9.4299 14.662 9.4299C14.267 9.4299 14.097 9.7249 14.067 9.9649H15.257ZM18.5956 11.3999H17.9606V9.9399C17.9606 9.6049 17.7856 9.4899 17.5156 9.4899C17.2656 9.4899 17.0706 9.6299 16.9656 9.7749V11.3999H16.3306V8.9849H16.9656V9.2999C17.1206 9.1149 17.4156 8.9249 17.8106 8.9249C18.3406 8.9249 18.5956 9.2249 18.5956 9.6949V11.3999ZM21.5261 11.3999H20.8861V11.0899C20.6961 11.3299 20.4311 11.4599 20.1411 11.4599C19.5311 11.4599 19.0711 10.9999 19.0711 10.1949C19.0711 9.4049 19.5261 8.9249 20.1411 8.9249C20.4261 8.9249 20.6961 9.0499 20.8861 9.2949V8.0649H21.5261V11.3999ZM20.3361 10.8949C20.5511 10.8949 20.7811 10.7799 20.8861 10.6199V9.7649C20.7811 9.6049 20.5511 9.4899 20.3361 9.4899C19.9761 9.4899 19.7261 9.7749 19.7261 10.1949C19.7261 10.6099 19.9761 10.8949 20.3361 10.8949ZM24.2408 11.3999H23.6058V11.1499C23.4408 11.3449 23.1558 11.4599 22.8408 11.4599C22.4558 11.4599 22.0008 11.1999 22.0008 10.6599C22.0008 10.0949 22.4558 9.8799 22.8408 9.8799C23.1608 9.8799 23.4458 9.9849 23.6058 10.1749V9.8499C23.6058 9.6049 23.3958 9.4449 23.0758 9.4449C22.8158 9.4449 22.5758 9.5399 22.3708 9.7299L22.1308 9.3049C22.4258 9.0449 22.8058 8.9249 23.1858 8.9249C23.7358 8.9249 24.2408 9.1449 24.2408 9.8399V11.3999ZM23.0958 11.0299C23.3008 11.0299 23.5008 10.9599 23.6058 10.8199V10.5199C23.5008 10.3799 23.3008 10.3099 23.0958 10.3099C22.8458 10.3099 22.6408 10.4399 22.6408 10.6749C22.6408 10.8999 22.8458 11.0299 23.0958 11.0299ZM25.5057 11.3999H24.8707V8.9849H25.5057V9.3149C25.6757 9.0999 25.9757 8.9249 26.2757 8.9249V9.5449C26.2307 9.5349 26.1707 9.5299 26.1007 9.5299C25.8907 9.5299 25.6107 9.6499 25.5057 9.8049V11.3999ZM26.5874 12.3449L26.6824 11.7749C26.7374 11.7999 26.8224 11.8149 26.8824 11.8149C27.0474 11.8149 27.1574 11.7699 27.2174 11.6399L27.3074 11.4349L26.3274 8.9849H27.0074L27.6374 10.6649L28.2674 8.9849H28.9524L27.8174 11.7949C27.6374 12.2499 27.3174 12.3699 26.9024 12.3799C26.8274 12.3799 26.6674 12.3649 26.5874 12.3449Z" fill="#FF5500"/>
<path d="M7.45 11H5.33V7.665H6.04V10.375H7.45V11ZM9.01348 11.06C8.27848 11.06 7.72348 10.565 7.72348 9.79C7.72348 9.09 8.23848 8.525 8.97348 8.525C9.69348 8.525 10.1835 9.065 10.1835 9.855V9.995H8.38848C8.42848 10.3 8.67348 10.555 9.08348 10.555C9.28848 10.555 9.57348 10.465 9.72848 10.315L10.0085 10.725C9.76848 10.945 9.38848 11.06 9.01348 11.06ZM9.56848 9.565C9.55348 9.335 9.39348 9.03 8.97348 9.03C8.57848 9.03 8.40848 9.325 8.37848 9.565H9.56848ZM11.6321 11.98C11.2171 11.98 10.8971 11.885 10.5921 11.62L10.8771 11.16C11.0721 11.375 11.3271 11.46 11.6321 11.46C11.9371 11.46 12.2971 11.325 12.2971 10.85V10.605C12.1071 10.845 11.8471 10.985 11.5521 10.985C10.9471 10.985 10.4871 10.56 10.4871 9.755C10.4871 8.965 10.9421 8.525 11.5521 8.525C11.8421 8.525 12.1021 8.65 12.2971 8.895V8.585H12.9371V10.835C12.9371 11.755 12.2271 11.98 11.6321 11.98ZM11.7521 10.42C11.9621 10.42 12.1921 10.3 12.2971 10.145V9.365C12.1921 9.205 11.9621 9.09 11.7521 9.09C11.3921 9.09 11.1421 9.34 11.1421 9.755C11.1421 10.17 11.3921 10.42 11.7521 10.42ZM14.702 11.06C13.967 11.06 13.412 10.565 13.412 9.79C13.412 9.09 13.927 8.525 14.662 8.525C15.382 8.525 15.872 9.065 15.872 9.855V9.995H14.077C14.117 10.3 14.362 10.555 14.772 10.555C14.977 10.555 15.262 10.465 15.417 10.315L15.697 10.725C15.457 10.945 15.077 11.06 14.702 11.06ZM15.257 9.565C15.242 9.335 15.082 9.03 14.662 9.03C14.267 9.03 14.097 9.325 14.067 9.565H15.257ZM18.5956 11H17.9606V9.54C17.9606 9.205 17.7856 9.09 17.5156 9.09C17.2656 9.09 17.0706 9.23 16.9656 9.375V11H16.3306V8.585H16.9656V8.9C17.1206 8.715 17.4156 8.525 17.8106 8.525C18.3406 8.525 18.5956 8.825 18.5956 9.295V11ZM21.5261 11H20.8861V10.69C20.6961 10.93 20.4311 11.06 20.1411 11.06C19.5311 11.06 19.0711 10.6 19.0711 9.795C19.0711 9.005 19.5261 8.525 20.1411 8.525C20.4261 8.525 20.6961 8.65 20.8861 8.895V7.665H21.5261V11ZM20.3361 10.495C20.5511 10.495 20.7811 10.38 20.8861 10.22V9.365C20.7811 9.205 20.5511 9.09 20.3361 9.09C19.9761 9.09 19.7261 9.375 19.7261 9.795C19.7261 10.21 19.9761 10.495 20.3361 10.495ZM24.2408 11H23.6058V10.75C23.4408 10.945 23.1558 11.06 22.8408 11.06C22.4558 11.06 22.0008 10.8 22.0008 10.26C22.0008 9.695 22.4558 9.48 22.8408 9.48C23.1608 9.48 23.4458 9.585 23.6058 9.775V9.45C23.6058 9.205 23.3958 9.045 23.0758 9.045C22.8158 9.045 22.5758 9.14 22.3708 9.33L22.1308 8.905C22.4258 8.645 22.8058 8.525 23.1858 8.525C23.7358 8.525 24.2408 8.745 24.2408 9.44V11ZM23.0958 10.63C23.3008 10.63 23.5008 10.56 23.6058 10.42V10.12C23.5008 9.98 23.3008 9.91 23.0958 9.91C22.8458 9.91 22.6408 10.04 22.6408 10.275C22.6408 10.5 22.8458 10.63 23.0958 10.63ZM25.5057 11H24.8707V8.585H25.5057V8.915C25.6757 8.7 25.9757 8.525 26.2757 8.525V9.145C26.2307 9.135 26.1707 9.13 26.1007 9.13C25.8907 9.13 25.6107 9.25 25.5057 9.405V11ZM26.5874 11.945L26.6824 11.375C26.7374 11.4 26.8224 11.415 26.8824 11.415C27.0474 11.415 27.1574 11.37 27.2174 11.24L27.3074 11.035L26.3274 8.585H27.0074L27.6374 10.265L28.2674 8.585H28.9524L27.8174 11.395C27.6374 11.85 27.3174 11.97 26.9024 11.98C26.8274 11.98 26.6674 11.965 26.5874 11.945Z" fill="white"/>
<g clip-path="url(#clip2_26835_29173)">
<path d="M34.9933 4C34.4047 4.92308 33.9231 5.40468 33 5.99331C33.9231 6.58194 34.4047 7.06355 34.9933 7.98662C35.5819 7.06355 36.0635 6.58194 36.9866 5.99331C36.0635 5.40468 35.5819 4.92308 34.9933 4Z" fill="white"/>
</g>
<defs>
<linearGradient id="paint0_linear_26835_29173" x1="31.5" y1="0" x2="31.5" y2="88" gradientUnits="userSpaceOnUse">
<stop stop-color="#FFC200"/>
<stop offset="1" stop-color="#FF7F00"/>
</linearGradient>
<linearGradient id="paint1_linear_26835_29173" x1="71.86" y1="33.4901" x2="11.77" y2="93.5901" gradientUnits="userSpaceOnUse">
<stop stop-color="white" stop-opacity="0"/>
<stop offset="1" stop-color="white"/>
</linearGradient>
<linearGradient id="paint2_linear_26835_29173" x1="48.23" y1="9.85996" x2="-11.87" y2="69.96" gradientUnits="userSpaceOnUse">
<stop stop-color="white" stop-opacity="0"/>
<stop offset="1" stop-color="white"/>
</linearGradient>
<linearGradient id="paint3_linear_26835_29173" x1="86.07" y1="47.6998" x2="25.97" y2="107.79" gradientUnits="userSpaceOnUse">
<stop stop-color="white" stop-opacity="0"/>
<stop offset="1" stop-color="white"/>
</linearGradient>
<linearGradient id="paint4_linear_26835_29173" x1="48.42" y1="57.48" x2="11.44" y2="60.96" gradientUnits="userSpaceOnUse">
<stop stop-color="#8EA3B2"/>
<stop offset="1" stop-color="#557086"/>
</linearGradient>
<linearGradient id="paint5_linear_26835_29173" x1="31.5" y1="75" x2="31.5" y2="62" gradientUnits="userSpaceOnUse">
<stop stop-color="#FFFEFC"/>
<stop offset="1" stop-color="#FFC200"/>
</linearGradient>
<linearGradient id="paint6_linear_26835_29173" x1="31.5" y1="84.47" x2="31.5" y2="3.96" gradientUnits="userSpaceOnUse">
<stop stop-color="#FF8913"/>
<stop offset="1" stop-color="#FFC200"/>
</linearGradient>
<linearGradient id="paint7_linear_26835_29173" x1="-46.19" y1="61.9302" x2="41.52" y2="55.5302" gradientUnits="userSpaceOnUse">
<stop stop-color="#FF8913"/>
<stop offset="1" stop-color="#FFC200"/>
</linearGradient>
<linearGradient id="paint8_linear_26835_29173" x1="-46.39" y1="59.2199" x2="41.33" y2="52.8199" gradientUnits="userSpaceOnUse">
<stop stop-color="#FF8913"/>
<stop offset="1" stop-color="#FFC200"/>
</linearGradient>
<clipPath id="clip0_26835_29173">
<rect width="63" height="88" fill="white"/>
</clipPath>
<clipPath id="clip1_26835_29173">
<rect width="63" height="88" fill="white"/>
</clipPath>
<clipPath id="clip2_26835_29173">
<rect width="4" height="4" fill="white" transform="translate(33 4)"/>
</clipPath>
</defs>
</svg>
