<svg width="63" height="88" viewBox="0 0 63 88" fill="none" xmlns="http://www.w3.org/2000/svg">
<rect width="63" height="88" rx="4" fill="url(#paint0_linear_26835_29174)"/>
<g clip-path="url(#clip0_26835_29174)">
<g clip-path="url(#clip1_26835_29174)">
<path d="M56.585 0.740234H6.70505C3.37477 0.740234 0.675049 3.43996 0.675049 6.77023V81.2302C0.675049 84.5605 3.37477 87.2602 6.70505 87.2602H56.585C59.9153 87.2602 62.6151 84.5605 62.6151 81.2302V6.77023C62.6151 3.43996 59.9153 0.740234 56.585 0.740234Z" fill="url(#paint1_linear_26835_29174)"/>
<mask id="mask0_26835_29174" style="mask-type:luminance" maskUnits="userSpaceOnUse" x="0" y="0" width="63" height="88">
<path d="M56.585 0.740234H6.70505C3.37477 0.740234 0.675049 3.43996 0.675049 6.77023V81.2302C0.675049 84.5605 3.37477 87.2602 6.70505 87.2602H56.585C59.9153 87.2602 62.6151 84.5605 62.6151 81.2302V6.77023C62.6151 3.43996 59.9153 0.740234 56.585 0.740234Z" fill="white"/>
</mask>
<g mask="url(#mask0_26835_29174)">
<path d="M51.805 53.7802C50.065 50.3102 46.985 47.6402 43.775 45.5602C40.125 43.2002 36.125 41.3902 32.035 39.9602C27.885 38.5102 23.605 37.4702 19.285 36.6902C14.685 35.8602 10.035 35.3102 5.37503 34.9802C3.82503 34.8702 2.27503 34.7802 0.715027 34.7202L1.42503 35.4902C6.14503 35.7002 10.865 36.1402 15.535 36.8302C19.835 37.4702 24.115 38.3202 28.295 39.5402C32.435 40.7502 36.475 42.3102 40.265 44.3602C43.685 46.2102 47.055 48.4402 49.485 51.5302C50.625 52.9802 51.535 54.6102 52.025 56.4002C52.515 58.1902 52.525 60.0802 52.115 61.8902C51.265 65.6302 48.815 68.8302 46.085 71.4302C43.095 74.2802 39.585 76.6402 35.955 78.5902C32.205 80.5902 28.215 82.1302 24.095 83.1502C23.095 83.4002 22.095 83.6202 21.075 83.8002C20.875 83.8402 20.785 84.1002 20.835 84.2702L33.595 80.5902C37.505 78.7802 41.205 76.4902 44.545 73.7702C47.555 71.3202 50.355 68.3402 51.945 64.7402C52.715 63.0002 53.175 61.1302 53.165 59.2302C53.165 57.3202 52.665 55.4602 51.815 53.7502L51.805 53.7802Z" fill="url(#paint2_linear_26835_29174)"/>
<path d="M68.805 51.4702C68.655 50.7102 68.415 49.9802 68.165 49.2502C67.885 48.5302 67.585 47.8302 67.215 47.1502C66.495 45.8002 65.625 44.5402 64.645 43.3802C62.695 41.0502 60.375 39.0902 57.925 37.3702C55.475 35.6502 52.865 34.1702 50.195 32.8402C44.845 30.2002 39.215 28.2002 33.505 26.5802C30.645 25.7702 27.765 25.0702 24.855 24.4602C21.955 23.8402 19.035 23.3102 16.105 22.8602C11.145 22.0902 6.15503 21.5302 1.15503 21.1802L1.20503 22.6002C6.12503 22.9702 11.025 23.5202 15.885 24.2902C18.785 24.7402 21.685 25.2802 24.555 25.9002C27.425 26.5102 30.285 27.2202 33.105 28.0202C38.755 29.6102 44.305 31.5802 49.555 34.1602C52.175 35.4602 54.715 36.9002 57.105 38.5602C59.485 40.2302 61.705 42.1202 63.565 44.3002C64.495 45.3902 65.315 46.5702 65.985 47.8202C66.335 48.4402 66.615 49.0902 66.875 49.7502C67.115 50.4102 67.335 51.0902 67.475 51.7802C67.785 53.1502 67.855 54.5702 67.715 55.9702C67.705 56.1502 67.675 56.3202 67.645 56.4902L67.565 57.0102L67.455 57.5302L67.395 57.7902L67.325 58.0402L67.185 58.5502C67.135 58.7202 67.075 58.8802 67.015 59.0502C66.905 59.3902 66.765 59.7102 66.635 60.0402C65.515 62.6502 63.715 64.9602 61.645 66.9802C59.565 69.0002 57.205 70.7402 54.735 72.2802C49.765 75.3702 44.335 77.7002 38.785 79.6202C33.225 81.5402 27.515 83.0102 21.745 84.1802C17.365 85.0702 12.955 85.7702 8.52503 86.3102C9.89503 86.1102 11.265 85.8902 12.625 85.6402C16.915 84.8402 21.165 83.7902 25.325 82.4202C29.475 81.0402 33.545 79.3402 37.315 77.0602C39.195 75.9102 40.995 74.6202 42.605 73.0902C44.205 71.5602 45.625 69.7702 46.535 67.6902C46.975 66.6502 47.305 65.5502 47.415 64.4102C47.535 63.2802 47.485 62.1202 47.245 61.0102C47.135 60.4502 46.955 59.9102 46.775 59.3702C46.565 58.8402 46.345 58.3202 46.075 57.8202C45.545 56.8202 44.905 55.8902 44.185 55.0302C42.745 53.3102 41.035 51.8702 39.235 50.5902C37.425 49.3202 35.505 48.2302 33.535 47.2502C29.585 45.3002 25.435 43.8302 21.225 42.6302C19.115 42.0302 16.985 41.5202 14.845 41.0602C12.705 40.6002 10.555 40.2102 8.38503 39.8802C6.00503 39.5102 3.60503 39.2102 1.21503 38.9702L1.16503 40.0302C3.52503 40.2702 5.88503 40.5702 8.22503 40.9402C10.365 41.2702 12.505 41.6702 14.615 42.1202C16.735 42.5702 18.835 43.0902 20.925 43.6802C25.095 44.8602 29.185 46.3002 33.065 48.2102C34.995 49.1702 36.875 50.2302 38.635 51.4602C40.385 52.6902 42.035 54.0802 43.405 55.7002C44.095 56.5102 44.695 57.3802 45.195 58.3002C45.455 58.7602 45.655 59.2402 45.855 59.7202C46.025 60.2102 46.195 60.7102 46.295 61.2102C46.525 62.2202 46.575 63.2702 46.475 64.3002C46.375 65.3302 46.085 66.3402 45.685 67.3102C44.855 69.2402 43.525 70.9402 42.005 72.4302C40.475 73.9202 38.735 75.2002 36.905 76.3502C33.245 78.6302 29.235 80.3602 25.135 81.7702C21.035 83.1802 16.815 84.2602 12.555 85.1202C9.44503 85.7502 6.31503 86.2602 3.17503 86.6502L4.32503 87.1802C10.215 86.7102 16.095 85.9602 21.915 84.9002C27.735 83.8202 33.495 82.4102 39.135 80.5502C40.545 80.0902 41.945 79.5902 43.325 79.0602C44.715 78.5302 46.085 77.9702 47.445 77.3702C50.165 76.1702 52.825 74.8302 55.375 73.2702C57.915 71.7202 60.365 69.9602 62.545 67.8802C63.635 66.8402 64.655 65.7202 65.555 64.5002C66.455 63.2802 67.265 61.9702 67.865 60.5602C68.005 60.2002 68.165 59.8502 68.285 59.4902C68.345 59.3102 68.415 59.1302 68.475 58.9402L68.635 58.3802L68.715 58.1002L68.775 57.8202L68.905 57.2502L68.995 56.6802C69.025 56.4902 69.055 56.3002 69.075 56.1102C69.245 54.5702 69.175 53.0102 68.845 51.5002L68.805 51.4702Z" fill="url(#paint3_linear_26835_29174)"/>
<path d="M52.0051 37.7504C40.0951 29.6104 20.3351 25.6804 1.07507 24.3604L1.20507 30.2504C18.9351 31.3004 37.4251 34.5604 49.3151 42.5904C78.4851 62.2904 37.8251 78.7803 37.8251 78.7803C63.4351 70.1103 76.6051 54.5704 51.9951 37.7504H52.0051Z" fill="url(#paint4_linear_26835_29174)"/>
<path d="M1.21507 32.1501C2.21507 32.2401 3.21507 32.3301 4.20507 32.4401C9.82507 33.0401 15.4351 33.9101 20.9551 35.1401C26.1451 36.2901 31.2751 37.8001 36.1851 39.8501C38.6251 40.8701 41.0051 42.0401 43.2951 43.3501C45.4251 44.5701 47.4851 45.9201 49.3551 47.5101C52.7551 50.4001 55.7551 54.3201 55.7451 58.9801C55.7351 63.6401 52.7751 67.7301 49.4651 70.7901C47.9151 72.2201 46.2251 73.5201 44.4251 74.6401C42.8051 75.6401 41.1151 76.5201 39.3951 77.3401C35.3951 79.2301 31.2351 80.7801 27.0251 82.1301C23.0351 83.4001 18.9751 84.5101 14.8551 85.2701C14.0551 85.4201 13.2451 85.5501 12.4451 85.6601C12.2351 85.6901 12.0451 85.8201 12.0451 86.0601C12.0451 86.2501 12.2351 86.4901 12.4451 86.4601C16.4151 85.9301 20.3251 84.9601 24.1651 83.8401C28.5351 82.5701 32.8451 81.0701 37.0351 79.2701C40.6951 77.7101 44.2951 75.9301 47.4651 73.5001C51.1851 70.6601 54.7551 66.9701 56.0551 62.3601C56.6851 60.1501 56.6951 57.8001 56.0551 55.6001C55.4151 53.4001 54.1751 51.4001 52.6751 49.6701C51.1751 47.9401 49.2651 46.3101 47.3051 44.9401C45.1651 43.4501 42.8851 42.1501 40.5551 40.9801C35.7251 38.5701 30.6051 36.7701 25.3851 35.3901C20.1651 34.0101 14.4451 32.9601 8.90507 32.2101C6.34507 31.8601 3.77507 31.5801 1.19507 31.3501" fill="url(#paint5_linear_26835_29174)"/>
<path d="M56.585 0.740234H6.70505C3.37477 0.740234 0.675049 3.43996 0.675049 6.77023V81.2302C0.675049 84.5605 3.37477 87.2602 6.70505 87.2602H56.585C59.9153 87.2602 62.6151 84.5605 62.6151 81.2302V6.77023C62.6151 3.43996 59.9153 0.740234 56.585 0.740234Z" fill="url(#paint6_linear_26835_29174)"/>
</g>
<path d="M23.265 87.3398C23.265 87.3398 -22.715 56.4698 61.675 49.0898V62.1398C61.675 62.1398 -7.04499 57.7698 25.385 86.5898L23.265 87.3398Z" fill="url(#paint7_linear_26835_29174)"/>
<path d="M32.075 86.5598C32.075 86.5598 -4.05499 62.3298 62.615 67.8698V72.9598C62.615 72.9598 5.50501 63.1398 34.195 86.9698L32.075 86.5598Z" fill="url(#paint8_linear_26835_29174)"/>
<path d="M5.06505 56.34L4.23505 57.85C4.23505 57.85 5.54505 59.12 8.45505 58.07C11.365 57.02 16.875 54.72 16.875 54.72L15.025 52.21C15.025 52.21 8.73505 54.95 8.14505 54.61L5.06505 56.33V56.34Z" fill="#8EA3B2"/>
<path d="M6.85504 56.2098C6.85504 56.2098 11.925 54.6298 14.705 53.0698L15.535 54.1198C15.535 54.1198 8.38504 57.8898 7.87504 56.3298L6.91504 56.6198L6.86504 56.2098H6.85504Z" fill="#7221FF"/>
<path d="M49.425 39.1199L48.515 38.8999C48.435 39.1899 48.345 39.4699 48.245 39.7499L48.505 40.2299C46.885 45.2899 42.825 49.7399 38.625 53.1599C38.585 53.8599 38.715 54.3599 39.445 54.1899C44.165 50.0199 48.145 44.8599 49.425 39.1199Z" fill="#8EA3B2"/>
<path d="M48.705 40.03L48.245 39.75C46.535 44.74 42.635 49.1 38.165 52.58C38.095 53.02 38.345 53.25 38.775 53.34C43.445 49.55 47.835 44.77 48.715 40.03H48.705Z" fill="#557086"/>
<path d="M40.1151 7.06982L39.6951 7.37982C41.9451 11.6198 44.0351 15.9498 45.2151 19.3798L45.7051 19.2098C44.5151 15.7398 42.3951 11.3498 40.1151 7.06982Z" fill="#8EA3B2"/>
<path d="M36.675 7.9502C40.005 14.2102 42.015 18.4602 42.565 20.3802L43.055 20.2402C42.425 18.0102 40.055 13.2102 37.265 7.9502H36.675Z" fill="#8EA3B2"/>
<path d="M39.405 13.2199C41.5534 13.2199 43.295 11.4783 43.295 9.32994C43.295 7.18155 41.5534 5.43994 39.405 5.43994C37.2566 5.43994 35.515 7.18155 35.515 9.32994C35.515 11.4783 37.2566 13.2199 39.405 13.2199Z" fill="#FFC200"/>
<path d="M45.735 27.9402C48.2865 27.9402 50.355 25.8717 50.355 23.3202C50.355 20.7686 48.2865 18.7002 45.735 18.7002C43.1834 18.7002 41.115 20.7686 41.115 23.3202C41.115 25.8717 43.1834 27.9402 45.735 27.9402Z" fill="url(#paint9_linear_26835_29174)"/>
<path d="M48.9251 22.86C49.8651 23.71 49.5851 25.28 48.2951 26.39C47.0051 27.5 45.1851 27.7 44.2451 26.86C43.3051 26.02 43.5851 24.44 44.8751 23.33C46.1651 22.22 47.9851 22.02 48.9251 22.86Z" fill="#FFC200"/>
<path d="M41.955 9.83007C42.325 11.0901 41.375 12.3001 39.825 12.5401C38.275 12.7801 36.735 11.9501 36.365 10.7001C35.995 9.45007 36.945 8.23007 38.495 7.99007C40.045 7.75007 41.585 8.58007 41.955 9.83007Z" fill="#FFEBB8"/>
<path d="M44.875 18.7798C44.565 18.8398 44.265 18.9298 43.965 19.0498C41.605 20.0298 40.485 22.7298 41.465 25.0898C41.495 25.1698 41.545 25.2398 41.585 25.3098L42.405 24.8298C40.845 20.8198 44.855 18.7898 44.875 18.7798Z" fill="white"/>
<path d="M45.1951 34.71C48.2326 34.71 50.6951 32.2475 50.6951 29.21C50.6951 26.1724 48.2326 23.71 45.1951 23.71C42.1575 23.71 39.6951 26.1724 39.6951 29.21C39.6951 32.2475 42.1575 34.71 45.1951 34.71Z" fill="url(#paint10_linear_26835_29174)"/>
<path d="M39.8251 28.0699L40.5851 28.1099C40.3551 26.0499 43.1051 24.1299 43.1051 24.1299C41.3251 24.8299 40.1951 26.3599 39.8351 28.0699H39.8251Z" fill="white"/>
<path d="M45.452 32.1613C47.3448 31.5898 48.4367 29.6607 47.8907 27.8525C47.3448 26.0443 45.3678 25.0417 43.4751 25.6132C41.5823 26.1847 40.4904 28.1138 41.0363 29.922C41.5823 31.7302 43.5592 32.7328 45.452 32.1613Z" fill="#FFC200"/>
<path d="M43.005 42.6801C47.3018 42.6801 50.785 39.1969 50.785 34.9001C50.785 30.6033 47.3018 27.1201 43.005 27.1201C38.7082 27.1201 35.225 30.6033 35.225 34.9001C35.225 39.1969 38.7082 42.6801 43.005 42.6801Z" fill="url(#paint11_linear_26835_29174)"/>
<path d="M46.0294 40.1194C48.0396 38.3658 48.3124 35.389 46.6387 33.4704C44.965 31.5518 41.9786 31.418 39.9684 33.1716C37.9583 34.9251 37.6855 37.902 39.3592 39.8206C41.0329 41.7392 44.0193 41.873 46.0294 40.1194Z" fill="#F0963E"/>
<path d="M35.855 51.3402C41.5491 51.3402 46.165 46.7243 46.165 41.0302C46.165 35.3362 41.5491 30.7202 35.855 30.7202C30.161 30.7202 25.545 35.3362 25.545 41.0302C25.545 46.7243 30.161 51.3402 35.855 51.3402Z" fill="url(#paint12_linear_26835_29174)"/>
<path d="M36.895 31.8099C36.975 32.1699 35.225 32.3299 33.695 32.6399C32.165 32.9499 30.955 33.4099 30.875 33.0499C30.795 32.6899 32.585 31.7299 34.115 31.4099C35.645 31.0899 36.815 31.4399 36.895 31.7999V31.8099Z" fill="white"/>
<path d="M45.385 37.08C45.175 36.56 44.915 36.07 44.635 35.61C44.625 35.61 44.615 35.61 44.605 35.61C42.795 35.47 41.055 38.62 40.735 42.65C40.505 45.49 41.045 48.01 42.015 49.3C45.725 46.55 47.235 41.54 45.385 37.08Z" fill="url(#paint13_linear_26835_29174)"/>
<path d="M38.0951 42.21L36.6951 51.31C37.9551 51.29 39.4351 50.71 39.4351 50.71C40.4751 46.88 38.0951 42.21 38.0951 42.21Z" fill="#1A2C38"/>
<path d="M24.195 59.05C32.0099 59.05 38.345 52.7148 38.345 44.9C38.345 37.0852 32.0099 30.75 24.195 30.75C16.3802 30.75 10.045 37.0852 10.045 44.9C10.045 52.7148 16.3802 59.05 24.195 59.05Z" fill="url(#paint14_radial_26835_29174)"/>
<path d="M24.195 59.2102C22.345 59.2102 20.485 58.8402 18.725 58.1102C15.195 56.6502 12.445 53.9002 10.985 50.3702C9.52501 46.8402 9.52501 42.9502 10.985 39.4302C12.445 35.9002 15.195 33.1502 18.725 31.6902C22.255 30.2302 26.145 30.2302 29.665 31.6902C33.195 33.1502 35.945 35.9002 37.405 39.4302C38.865 42.9602 38.865 46.8502 37.405 50.3702C35.945 53.9002 33.195 56.6502 29.665 58.1102C27.905 58.8402 26.045 59.2102 24.195 59.2102ZM24.195 30.8802C22.375 30.8802 20.565 31.2402 18.835 31.9502C15.375 33.3802 12.685 36.0702 11.255 39.5302C9.82501 42.9902 9.82501 46.7902 11.255 50.2502C13.485 55.6402 18.715 58.8902 24.215 58.8902C25.995 58.8902 27.815 58.5502 29.555 57.8202C33.015 56.3902 35.705 53.7002 37.135 50.2402C38.565 46.7802 38.565 42.9802 37.135 39.5202C35.705 36.0602 33.015 33.3702 29.555 31.9402C27.825 31.2202 26.015 30.8702 24.195 30.8702V30.8802Z" fill="url(#paint15_linear_26835_29174)"/>
<path d="M29.2552 54.2436C34.3626 52.7016 37.2322 47.2426 35.6646 42.0507C34.0971 36.8587 28.686 33.8998 23.5786 35.4418C18.4713 36.9838 15.6017 42.4428 17.1692 47.6348C18.7368 52.8267 24.1479 55.7856 29.2552 54.2436Z" fill="white"/>
<path d="M31.085 43.7502C30.255 45.1302 29.515 46.3902 28.845 47.5102C28.555 47.9902 28.275 48.4602 27.995 48.9302C27.715 49.4002 27.465 49.8202 27.235 50.2002C27.005 50.5802 26.805 50.9102 26.655 51.1702C26.495 51.4302 26.405 51.6002 26.365 51.6602L22.285 50.6002L27.485 43.4902L23.145 42.8802L23.825 39.4702L31.675 40.8802L31.105 43.7502H31.085Z" fill="#FF5500"/>
<path d="M26.675 60.2499C24.655 60.4599 23.525 58.7199 23.525 58.7199C20.545 56.4199 17.335 50.7999 15.845 47.8999L12.225 49.8399L12.335 50.0299C12.855 50.9099 13.405 51.7799 13.975 52.6299C16.275 56.0099 21.675 63.8999 26.395 62.4699C27.865 61.9699 29.285 61.2399 30.615 60.4999C33.545 58.8099 36.625 56.6699 39.445 54.1799L38.625 53.1499C33.325 57.4599 27.805 60.1199 26.675 60.2399V60.2499Z" fill="#8EA3B2"/>
<path d="M29.355 58.0901C28.125 58.6801 26.915 59.2101 25.635 59.5801C25.295 59.6601 24.965 59.5601 24.625 59.4101C24.265 59.2401 23.895 59.0001 23.525 58.7201C23.525 58.7201 24.475 61.1001 26.495 60.8901C27.585 60.7801 33.355 57.7201 38.765 53.3401L38.155 52.5801C35.315 54.8001 32.235 56.6601 29.345 58.0901H29.355Z" fill="#557086"/>
<path d="M17.1351 52.3802C17.1351 52.3802 16.8351 50.6702 17.3951 51.1702C17.9551 51.6702 21.0751 56.6602 22.7351 58.0402C24.3951 59.4202 25.0951 60.9102 20.4251 56.7102L17.1251 52.3802H17.1351Z" fill="white"/>
<path d="M50.595 22.5598C49.505 19.4098 48.045 16.4198 46.525 13.4698C45.105 10.7798 43.625 8.12977 42.095 5.50977L41.705 5.73977C42.115 6.45977 42.525 7.17977 42.925 7.89977C45.045 11.7398 47.075 15.6598 48.715 19.7298C49.595 21.9898 50.445 24.3298 50.675 26.7498C51.085 31.2998 47.385 33.1298 43.455 34.0598C40.345 34.7898 37.255 35.2898 34.065 35.2698C33.685 35.2698 33.245 35.2598 32.865 35.2398C32.705 35.2398 32.505 35.2198 32.335 35.2398C31.575 35.2898 30.985 35.4498 30.305 35.6798C29.925 35.8098 29.495 35.9898 29.125 36.1998C29.025 36.2598 28.675 36.4598 28.575 36.5198C27.625 37.0598 26.615 37.6798 25.695 38.2698C21.035 41.2498 16.355 44.3798 11.935 47.6998C10.065 49.1398 8.18502 50.6698 6.43502 52.2798C5.33502 53.2998 4.26502 54.4398 3.78502 55.9398C3.61502 56.5498 3.64502 57.2098 4.22502 57.8598L6.96502 57.2798C7.18502 56.7498 7.82502 55.9398 8.25502 55.4698C8.86502 54.8298 9.70502 54.2598 10.395 53.7098C14.655 50.3198 18.885 46.8098 23.355 43.6998C25.135 42.4698 26.955 41.2298 28.775 40.0498C29.255 39.7298 29.995 39.2798 30.485 38.9798C30.765 38.7998 31.025 38.6698 31.355 38.5398C31.745 38.3898 32.235 38.2498 32.615 38.2098C40.935 37.2598 50.185 36.5798 51.685 29.3998C52.135 27.0898 51.305 24.7098 50.595 22.5698V22.5598Z" fill="#8EA3B2"/>
<path d="M28.235 37.3799L30.795 36.7999C30.795 36.7999 33.995 35.9099 37.715 35.9099C41.435 35.9099 45.715 34.1099 45.715 34.1099C45.715 34.1099 39.815 35.8399 37.915 35.5899C36.015 35.3399 34.345 35.8399 34.345 35.8399C34.345 35.8399 31.315 33.7999 28.225 37.3699L28.235 37.3799Z" fill="white"/>
<path d="M7.83503 51.44C7.83503 51.44 5.51503 54.08 6.14503 54.73C6.77503 55.38 21.285 41.44 30.805 36.81C30.805 36.81 29.665 33.57 7.83503 51.44Z" fill="#1A2C38"/>
<path d="M13.655 48.1499L14.575 49.8499L14.685 52.0599C14.685 52.0599 18.455 59.3699 20.755 58.8499C23.055 58.3299 15.235 49.6499 14.605 47.6099L13.665 48.1499H13.655Z" fill="#1A2C38"/>
<path d="M6.66501 53.9799C6.66501 53.9799 4.77501 56.3999 4.23501 57.8599C4.23501 57.8599 2.67501 56.6399 4.71501 54.4299C6.75501 52.2199 8.47501 52.4699 8.47501 52.4699L6.65501 53.9899L6.66501 53.9799Z" fill="white"/>
<path d="M19.015 33.5102C19.405 33.9802 18.975 35.4902 17.405 36.8102C15.835 38.1302 13.705 38.7402 13.325 38.2702C12.945 37.8002 13.895 36.3602 15.465 35.0502C17.035 33.7402 18.625 33.0502 19.015 33.5102Z" fill="white"/>
<mask id="mask1_26835_29174" style="mask-type:luminance" maskUnits="userSpaceOnUse" x="40" y="35" width="7" height="15">
<path d="M45.385 37.08C45.175 36.56 44.915 36.07 44.635 35.61C44.625 35.61 44.615 35.61 44.605 35.61C42.795 35.47 41.055 38.62 40.735 42.65C40.505 45.49 41.045 48.01 42.015 49.3C45.725 46.55 47.235 41.54 45.385 37.08Z" fill="white"/>
</mask>
<g mask="url(#mask1_26835_29174)">
<path d="M47.185 38.54C47.435 38.58 47.655 38.66 47.845 38.8C48.035 38.93 48.185 39.1 48.315 39.31C48.445 39.52 48.545 39.75 48.615 40.02C48.685 40.29 48.735 40.57 48.765 40.88C48.795 41.19 48.795 41.51 48.785 41.84C48.765 42.17 48.735 42.51 48.685 42.84C48.615 43.32 48.505 43.79 48.345 44.24C48.195 44.69 47.995 45.1 47.775 45.44C47.545 45.79 47.285 46.06 46.985 46.25C46.695 46.44 46.365 46.51 46.005 46.46C45.865 46.44 45.715 46.39 45.585 46.32C45.445 46.25 45.315 46.15 45.205 46.03C45.085 45.91 44.985 45.77 44.905 45.6C44.825 45.43 44.755 45.24 44.715 45.03C44.485 45.32 44.235 45.52 43.975 45.64C43.715 45.76 43.445 45.8 43.165 45.76C42.845 45.71 42.575 45.56 42.365 45.31C42.155 45.06 41.995 44.75 41.875 44.37C41.765 44 41.695 43.59 41.675 43.14C41.655 42.69 41.675 42.25 41.745 41.81C41.785 41.52 41.845 41.23 41.935 40.95C42.015 40.66 42.115 40.39 42.225 40.13C42.335 39.87 42.465 39.63 42.615 39.41C42.755 39.19 42.915 39.01 43.085 38.85C43.255 38.7 43.445 38.59 43.635 38.51C43.835 38.44 44.035 38.42 44.245 38.45C44.525 38.49 44.765 38.61 44.985 38.8C45.205 38.99 45.385 39.26 45.515 39.6C45.735 39.17 45.995 38.87 46.265 38.71C46.545 38.55 46.845 38.49 47.185 38.54ZM44.325 40.98C44.225 40.96 44.125 40.98 44.025 41.04C43.935 41.1 43.845 41.18 43.765 41.28C43.685 41.39 43.625 41.51 43.575 41.64C43.525 41.78 43.485 41.91 43.465 42.06C43.445 42.21 43.435 42.35 43.445 42.5C43.455 42.65 43.485 42.78 43.525 42.9C43.565 43.02 43.625 43.12 43.695 43.21C43.765 43.29 43.855 43.34 43.965 43.35C44.075 43.36 44.165 43.35 44.265 43.29C44.355 43.23 44.445 43.15 44.515 43.05C44.585 42.94 44.655 42.82 44.705 42.69C44.755 42.55 44.795 42.41 44.815 42.26C44.835 42.11 44.845 41.97 44.835 41.83C44.825 41.69 44.795 41.55 44.755 41.43C44.715 41.31 44.655 41.21 44.585 41.13C44.515 41.05 44.425 41 44.315 40.99L44.325 40.98ZM46.545 41.33C46.445 41.31 46.345 41.33 46.245 41.39C46.155 41.45 46.065 41.53 45.995 41.63C45.925 41.73 45.855 41.85 45.805 41.98C45.755 42.12 45.715 42.25 45.695 42.4C45.675 42.55 45.665 42.69 45.675 42.83C45.685 42.97 45.715 43.11 45.755 43.23C45.795 43.35 45.855 43.45 45.925 43.53C45.995 43.61 46.085 43.66 46.195 43.67C46.305 43.68 46.395 43.67 46.485 43.61C46.575 43.55 46.655 43.47 46.735 43.37C46.805 43.26 46.875 43.14 46.925 43.01C46.975 42.87 47.015 42.74 47.035 42.59C47.055 42.44 47.065 42.3 47.055 42.16C47.045 42.02 47.015 41.88 46.975 41.77C46.935 41.65 46.875 41.55 46.805 41.47C46.735 41.39 46.645 41.34 46.545 41.33Z" fill="#7221FF"/>
</g>
<path d="M4.07501 1.3501C3.00501 1.3501 1.57501 3.4401 1.57501 4.5001L2.14501 18.1901C2.14501 16.4301 3.57501 15.0001 5.33501 15.0001H33.735C34.945 15.0001 36.085 14.4501 36.845 13.5101L44.945 3.4801C45.705 2.5401 46.845 1.9901 48.055 1.9901L4.07501 1.3501Z" fill="url(#paint16_linear_26835_29174)"/>
<path d="M59.145 0H4.14502C1.93502 0 0.14502 1.79 0.14502 4V84C0.14502 86.21 1.93502 88 4.14502 88H59.145C61.355 88 63.145 86.21 63.145 84V4C63.145 1.79 61.355 0 59.145 0ZM61.145 82.81C61.145 84.57 59.715 86 57.955 86H5.33502C3.57502 86 2.14502 84.57 2.14502 82.81V16.9C2.14502 8.67 8.81502 2 17.045 2H57.955C59.715 2 61.145 3.43 61.145 5.19V82.81Z" fill="url(#paint17_linear_26835_29174)"/>
<mask id="mask2_26835_29174" style="mask-type:luminance" maskUnits="userSpaceOnUse" x="0" y="0" width="64" height="88">
<path d="M59.145 0H4.14502C1.93502 0 0.14502 1.79 0.14502 4V84C0.14502 86.21 1.93502 88 4.14502 88H59.145C61.355 88 63.145 86.21 63.145 84V4C63.145 1.79 61.355 0 59.145 0ZM61.145 82.81C61.145 84.57 59.715 86 57.955 86H5.33502C3.57502 86 2.14502 84.57 2.14502 82.81V18.19C2.14502 16.43 3.57502 15 5.33502 15H33.735C34.945 15 36.085 14.45 36.845 13.51L44.945 3.48C45.705 2.54 46.845 1.99 48.055 1.99H57.955C59.715 1.99 61.145 3.42 61.145 5.18V82.8V82.81Z" fill="white"/>
</mask>
<g mask="url(#mask2_26835_29174)">
<path d="M68.515 47.3101V26.6401L4.60504 90.5501H25.275L68.515 47.3101Z" fill="white"/>
<path d="M64.805 -2.29004H55.365L-2.77496 55.84V66.18L65.605 -2.20004C65.345 -2.26004 65.075 -2.29004 64.805 -2.29004Z" fill="white"/>
<path d="M68.515 69.2298V61.5498L39.515 90.5498H47.195L68.515 69.2298Z" fill="white"/>
</g>
<path d="M41.6005 29.2969C42.5945 28.9968 43.3213 28.4921 43.2239 28.1696C43.1266 27.8471 42.2419 27.8289 41.2479 28.129C40.2539 28.4291 39.5271 28.9338 39.6244 29.2563C39.7218 29.5788 40.6065 29.597 41.6005 29.2969Z" fill="white"/>
<path d="M43.3325 26.3599C43.9193 26.1028 44.2926 25.6606 44.1662 25.3723C44.0399 25.084 43.4618 25.0586 42.875 25.3157C42.2882 25.5728 41.9149 26.015 42.0412 26.3033C42.1676 26.5917 42.7457 26.617 43.3325 26.3599Z" fill="white"/>
<path fill-rule="evenodd" clip-rule="evenodd" d="M24.445 32.41L33.895 34.4L24.725 30.95C24.675 30.81 24.595 30.69 24.505 30.57L28.175 16.25L23.425 30.03C23.075 30.03 22.725 30.15 22.455 30.38L9.44501 28.42L21.965 31.52C21.985 31.95 22.185 32.36 22.565 32.63C22.565 32.63 22.565 32.63 22.575 32.63L21.225 37.99L23.655 32.86C23.955 32.8 24.235 32.65 24.455 32.4L24.445 32.41Z" fill="white"/>
<path fill-rule="evenodd" clip-rule="evenodd" d="M49.825 23.8599L48.935 29.9099L50.755 23.9799C50.835 23.9399 50.915 23.8899 50.985 23.8199L60.185 25.5699L51.285 23.1099C51.285 22.8899 51.185 22.6699 51.025 22.5099L52.275 14.1699L50.285 22.2399C50.015 22.2699 49.765 22.4099 49.605 22.6599L46.165 22.0199L49.505 23.3499C49.555 23.5399 49.665 23.7099 49.825 23.8399V23.8599Z" fill="white"/>
</g>
</g>
<path fill-rule="evenodd" clip-rule="evenodd" d="M6.49771 79C6.98969 79 7.48602 79.213 7.49037 79.6913C7.49037 80.1043 7.24656 80.2696 6.99839 80.2696C6.75023 80.2696 6.73281 80.1435 6.73281 80.1435C6.73281 80.1435 7.02452 79.9261 7.02452 79.7174C7.02452 79.6087 6.94179 79.313 6.489 79.3174C5.8577 79.3174 5.5181 79.6174 5.5181 80.1522C5.5181 80.7652 7.35105 80.9739 7.3554 81.7652C7.3554 82.613 6.47594 82.9957 5.69225 83C5.283 83 5.01306 82.7609 5.00871 82.3783C5.00871 81.9261 5.22204 81.4652 5.75756 81.4652C5.88382 81.4565 5.98831 81.5522 5.99702 81.6783C5.99702 81.6783 5.99702 81.6826 5.99702 81.687C5.99702 81.687 5.45715 81.8391 5.4615 82.3783C5.4615 82.4783 5.56599 82.6609 5.81851 82.6565C6.07103 82.6522 6.82424 82.4739 6.81989 81.8087C6.81989 81.1913 5.00435 81.1087 5 80.1478C5 79.0652 6.08845 79.0087 6.49771 79.0087V79ZM10.747 79.6C10.8123 79.5696 11.2129 79.4913 11.1955 79.813C11.1824 80.1348 10.9386 80.6913 10.9037 80.9348C11.2303 80.7696 11.6918 80.2087 11.6918 80.2087C11.6918 80.2087 12.0183 80.2522 11.9182 80.4522C11.818 80.6522 11.1519 81.1435 11.1519 81.1435C11.1519 81.1435 11.3043 82.5696 12.1707 82.5696C12.6453 82.5696 12.8499 82.3609 12.937 82.287C12.9587 82.2696 12.9762 82.2652 12.9849 82.2783C13.0197 82.387 12.9936 82.5043 12.9152 82.5913C12.8194 82.6957 12.5974 82.8217 12.1533 82.8261C11.3653 82.8261 10.9255 82.1957 10.8123 81.2609C10.7252 81.5348 10.7339 81.9826 10.7209 82.2C10.6948 82.2435 10.2507 82.4174 10.2158 82.1174C10.2158 82.0913 10.2158 82.0696 10.2158 82.0435C10.1331 82.1609 10.0199 82.2826 9.91108 82.2826C9.71951 82.2826 9.63679 82.1217 9.60196 82.0391C9.57584 82.0696 9.3625 82.287 9.08821 82.287C8.92277 82.2913 8.77474 82.1957 8.70943 82.0435C8.57011 82.1435 8.32195 82.2913 8.03895 82.2913C7.73418 82.2913 7.66017 82.1087 7.66017 81.9565C7.66017 81.713 7.84303 80.987 7.84303 80.987C7.84303 80.987 7.48602 81.1304 7.36411 81.1348C7.19431 81.1348 7.11159 80.8217 7.11159 80.813C7.11159 80.8087 7.11159 80.8 7.1203 80.8C7.22044 80.7609 7.94317 80.513 7.94317 80.513C7.94317 80.513 8.07813 79.9826 8.09555 79.913C8.11296 79.8435 8.2131 79.7 8.33065 79.6565C8.41773 79.6217 8.50916 79.6 8.60059 79.5913C8.63107 79.5913 8.65284 79.6 8.65284 79.6174C8.65284 79.6348 8.47433 80.4087 8.47433 80.4087C8.47433 80.4087 8.84876 80.3217 8.98808 80.3217C9.09692 80.3217 9.15352 80.387 9.09257 80.4696C9.03162 80.5522 8.96196 80.6478 8.92712 80.6913C8.88794 80.7348 8.86182 80.7435 8.77039 80.7609C8.64413 80.787 8.36113 80.8565 8.36113 80.8565C8.36113 80.8565 8.13473 81.6783 8.13909 81.8174C8.13909 81.8957 8.16521 81.987 8.26099 81.987C8.35678 81.987 8.53964 81.8739 8.67025 81.7913C8.69202 81.1522 9.18835 80.7261 9.57584 80.7261C9.7021 80.7261 9.65421 80.8478 9.79788 80.8478H9.88931C9.94591 80.8478 10.0069 80.8522 10.0069 80.9957C10.0069 81.1957 9.89367 81.5261 9.89367 81.7348C9.89367 81.8826 9.91544 81.987 9.97204 81.987C10.0678 81.987 10.1767 81.8478 10.255 81.7261C10.3813 81.0304 10.734 79.7609 10.734 79.6174L10.747 79.6ZM12.5016 80.7C12.7672 80.6783 12.9326 80.8217 12.9631 80.9C12.9936 80.9783 12.9892 81.1609 12.9152 81.2913C12.6845 81.7044 12.1097 81.6304 12.1097 81.6304C12.1097 81.6304 12.0444 81.9565 12.3405 81.9565C12.593 81.9565 12.7062 81.8304 12.8151 81.7261C12.8586 81.7261 12.9936 81.8652 12.9326 81.9609C12.8847 82.0348 12.6191 82.2565 12.2795 82.2609C11.7397 82.2609 11.6047 81.8 11.6744 81.4696C11.7658 81.0609 12.1751 80.7217 12.5016 80.6957V80.7ZM9.6455 80.987C9.32332 80.987 8.82699 81.9696 9.20577 81.9652C9.61938 81.9652 9.6455 81.1826 9.6455 81.0043V80.987ZM12.6409 80.8913C12.4232 80.9 12.1751 81.3174 12.1533 81.5C12.4798 81.513 12.654 81.1957 12.6757 81.0696C12.6888 80.9739 12.6932 80.887 12.6409 80.887V80.8913Z" fill="white"/>
<path d="M46.1444 79.3778L46.6412 80.278L47.6518 80.4733C47.7792 80.4988 47.8302 80.6559 47.741 80.7494L47.0361 81.5009L47.1635 82.5243C47.1805 82.6559 47.0446 82.7494 46.93 82.6942L46 82.2568L45.0701 82.6942C44.9512 82.7494 44.8196 82.6517 44.8366 82.5243L44.9639 81.5009L44.2591 80.7494C44.1699 80.6559 44.2208 80.4988 44.3482 80.4733L45.3588 80.278L45.8557 79.3778C45.9194 79.2632 46.085 79.2632 46.1444 79.3778Z" fill="#FFC200"/>
<path d="M46 79.2929C46.0552 79.2929 46.1147 79.3226 46.1444 79.3778L46.6412 80.278L47.6518 80.4733C47.7792 80.4988 47.8302 80.6559 47.741 80.7494L47.0361 81.5009L47.1635 82.5243C47.1763 82.6262 47.0955 82.7111 46.9979 82.7111C46.9766 82.7111 46.9512 82.7069 46.9257 82.6942L45.9957 82.2568L45.0658 82.6942C45.0403 82.7069 45.0191 82.7111 44.9936 82.7111C44.9002 82.7111 44.8153 82.6262 44.828 82.5243L44.9554 81.5009L44.2505 80.7494C44.1613 80.6559 44.2123 80.4988 44.3397 80.4733L45.3503 80.278L45.8471 79.3778C45.8768 79.3226 45.9363 79.2929 45.9915 79.2929M46 79.0806C45.8641 79.0806 45.7367 79.157 45.6688 79.2759L45.2187 80.0912L44.3057 80.2653C44.1698 80.2908 44.0594 80.3884 44.017 80.5201C43.9745 80.6517 44.0085 80.7961 44.1019 80.8937L44.7388 81.5731L44.6242 82.4946C44.6115 82.6007 44.6454 82.7111 44.7134 82.7918C44.7856 82.8725 44.8875 82.9192 44.9979 82.9192C45.0531 82.9192 45.1083 82.9065 45.1592 82.881L46 82.4861L46.8408 82.881C46.8917 82.9065 46.9469 82.9192 47.0021 82.9192C47.1125 82.9192 47.2144 82.8725 47.2866 82.7918C47.3588 82.7111 47.3928 82.6007 47.3758 82.4946L47.2611 81.5731L47.8981 80.8937C47.9915 80.7918 48.0255 80.6474 47.983 80.5201C47.9405 80.3884 47.8301 80.2908 47.6943 80.2653L46.7813 80.0912L46.3312 79.2759C46.2633 79.157 46.1359 79.0806 46 79.0806Z" fill="#213743"/>
<path d="M46 79.8152V80.9744C46 81.0678 46.0892 81.1315 46.1784 81.106L47.2187 80.7706C47.2739 80.7536 47.2697 80.6729 47.2102 80.6602L46.5563 80.5413C46.4969 80.5286 46.4417 80.4903 46.4119 80.4351L46.085 79.7939C46.0637 79.7515 45.9958 79.7642 45.9958 79.8152H46Z" fill="#FFEBB8"/>
<path d="M46 81.4924V82.0699C46 82.1039 46.017 82.1294 46.0467 82.1464L46.7983 82.5073C46.8365 82.5243 46.8705 82.4818 46.845 82.4479L46.0934 81.4627C46.0637 81.4245 46 81.4457 46 81.4924Z" fill="#FF7F00"/>
<path d="M51.1444 79.3778L51.6412 80.278L52.6518 80.4733C52.7792 80.4988 52.8302 80.6559 52.741 80.7494L52.0361 81.5009L52.1635 82.5243C52.1805 82.6559 52.0446 82.7494 51.93 82.6942L51 82.2568L50.0701 82.6942C49.9512 82.7494 49.8196 82.6517 49.8366 82.5243L49.9639 81.5009L49.2591 80.7494C49.1699 80.6559 49.2208 80.4988 49.3482 80.4733L50.3588 80.278L50.8557 79.3778C50.9194 79.2632 51.085 79.2632 51.1444 79.3778Z" fill="#FFC200"/>
<path d="M51 79.2929C51.0552 79.2929 51.1147 79.3226 51.1444 79.3778L51.6412 80.278L52.6518 80.4733C52.7792 80.4988 52.8302 80.6559 52.741 80.7494L52.0361 81.5009L52.1635 82.5243C52.1763 82.6262 52.0955 82.7111 51.9979 82.7111C51.9766 82.7111 51.9512 82.7069 51.9257 82.6942L50.9957 82.2568L50.0658 82.6942C50.0403 82.7069 50.0191 82.7111 49.9936 82.7111C49.9002 82.7111 49.8153 82.6262 49.828 82.5243L49.9554 81.5009L49.2505 80.7494C49.1613 80.6559 49.2123 80.4988 49.3397 80.4733L50.3503 80.278L50.8471 79.3778C50.8768 79.3226 50.9363 79.2929 50.9915 79.2929M51 79.0806C50.8641 79.0806 50.7367 79.157 50.6688 79.2759L50.2187 80.0912L49.3057 80.2653C49.1698 80.2908 49.0594 80.3884 49.017 80.5201C48.9745 80.6517 49.0085 80.7961 49.1019 80.8937L49.7388 81.5731L49.6242 82.4946C49.6115 82.6007 49.6454 82.7111 49.7134 82.7918C49.7856 82.8725 49.8875 82.9192 49.9979 82.9192C50.0531 82.9192 50.1083 82.9065 50.1592 82.881L51 82.4861L51.8408 82.881C51.8917 82.9065 51.9469 82.9192 52.0021 82.9192C52.1125 82.9192 52.2144 82.8725 52.2866 82.7918C52.3588 82.7111 52.3928 82.6007 52.3758 82.4946L52.2611 81.5731L52.8981 80.8937C52.9915 80.7918 53.0255 80.6474 52.983 80.5201C52.9405 80.3884 52.8301 80.2908 52.6943 80.2653L51.7813 80.0912L51.3312 79.2759C51.2633 79.157 51.1359 79.0806 51 79.0806Z" fill="#213743"/>
<path d="M51 79.8152V80.9744C51 81.0678 51.0892 81.1315 51.1784 81.106L52.2187 80.7706C52.2739 80.7536 52.2697 80.6729 52.2102 80.6602L51.5563 80.5413C51.4969 80.5286 51.4417 80.4903 51.4119 80.4351L51.085 79.7939C51.0637 79.7515 50.9958 79.7642 50.9958 79.8152H51Z" fill="#FFEBB8"/>
<path d="M51 81.4924V82.0699C51 82.1039 51.017 82.1294 51.0467 82.1464L51.7983 82.5073C51.8365 82.5243 51.8705 82.4818 51.845 82.4479L51.0934 81.4627C51.0637 81.4245 51 81.4457 51 81.4924Z" fill="#FF7F00"/>
<path d="M56.1444 79.3778L56.6412 80.278L57.6518 80.4733C57.7792 80.4988 57.8302 80.6559 57.741 80.7494L57.0361 81.5009L57.1635 82.5243C57.1805 82.6559 57.0446 82.7494 56.93 82.6942L56 82.2568L55.0701 82.6942C54.9512 82.7494 54.8196 82.6517 54.8366 82.5243L54.9639 81.5009L54.2591 80.7494C54.1699 80.6559 54.2208 80.4988 54.3482 80.4733L55.3588 80.278L55.8557 79.3778C55.9194 79.2632 56.085 79.2632 56.1444 79.3778Z" fill="#FFC200"/>
<path d="M56 79.2929C56.0552 79.2929 56.1147 79.3226 56.1444 79.3778L56.6412 80.278L57.6518 80.4733C57.7792 80.4988 57.8302 80.6559 57.741 80.7494L57.0361 81.5009L57.1635 82.5243C57.1763 82.6262 57.0955 82.7111 56.9979 82.7111C56.9766 82.7111 56.9512 82.7069 56.9257 82.6942L55.9957 82.2568L55.0658 82.6942C55.0403 82.7069 55.0191 82.7111 54.9936 82.7111C54.9002 82.7111 54.8153 82.6262 54.828 82.5243L54.9554 81.5009L54.2505 80.7494C54.1613 80.6559 54.2123 80.4988 54.3397 80.4733L55.3503 80.278L55.8471 79.3778C55.8768 79.3226 55.9363 79.2929 55.9915 79.2929M56 79.0806C55.8641 79.0806 55.7367 79.157 55.6688 79.2759L55.2187 80.0912L54.3057 80.2653C54.1698 80.2908 54.0594 80.3884 54.017 80.5201C53.9745 80.6517 54.0085 80.7961 54.1019 80.8937L54.7388 81.5731L54.6242 82.4946C54.6115 82.6007 54.6454 82.7111 54.7134 82.7918C54.7856 82.8725 54.8875 82.9192 54.9979 82.9192C55.0531 82.9192 55.1083 82.9065 55.1592 82.881L56 82.4861L56.8408 82.881C56.8917 82.9065 56.9469 82.9192 57.0021 82.9192C57.1125 82.9192 57.2144 82.8725 57.2866 82.7918C57.3588 82.7111 57.3928 82.6007 57.3758 82.4946L57.2611 81.5731L57.8981 80.8937C57.9915 80.7918 58.0255 80.6474 57.983 80.5201C57.9405 80.3884 57.8301 80.2908 57.6943 80.2653L56.7813 80.0912L56.3312 79.2759C56.2633 79.157 56.1359 79.0806 56 79.0806Z" fill="#213743"/>
<path d="M56 79.8152V80.9744C56 81.0678 56.0892 81.1315 56.1784 81.106L57.2187 80.7706C57.2739 80.7536 57.2697 80.6729 57.2102 80.6602L56.5563 80.5413C56.4969 80.5286 56.4417 80.4903 56.4119 80.4351L56.085 79.7939C56.0637 79.7515 55.9958 79.7642 55.9958 79.8152H56Z" fill="#FFEBB8"/>
<path d="M56 81.4924V82.0699C56 82.1039 56.017 82.1294 56.0467 82.1464L56.7983 82.5073C56.8365 82.5243 56.8705 82.4818 56.845 82.4479L56.0934 81.4627C56.0637 81.4245 56 81.4457 56 81.4924Z" fill="#FF7F00"/>
<rect x="13" y="62" width="37" height="13" rx="6.5" fill="#2F4553"/>
<path d="M27.7214 70H26.6894V67.318L26.0174 67.996L25.4294 67.378L26.8274 65.998H27.7214V70ZM29.937 70.072C29.229 70.072 28.695 69.856 28.323 69.49L28.887 68.77C29.163 69.022 29.541 69.16 29.925 69.16C30.363 69.16 30.579 68.944 30.579 68.698C30.579 68.428 30.369 68.236 29.955 68.236C29.637 68.236 29.385 68.326 29.163 68.536L28.449 68.362V65.998H31.353V66.898H29.481V67.672C29.673 67.486 29.985 67.354 30.339 67.354C31.017 67.354 31.629 67.852 31.629 68.656C31.629 69.52 30.975 70.072 29.937 70.072ZM33.6581 70.072C32.4881 70.072 31.9421 69.058 31.9421 68.002C31.9421 66.946 32.4881 65.938 33.6581 65.938C34.8281 65.938 35.3741 66.946 35.3741 68.002C35.3741 69.058 34.8281 70.072 33.6581 70.072ZM33.6581 69.16C34.1381 69.16 34.3301 68.71 34.3301 68.002C34.3301 67.294 34.1381 66.85 33.6581 66.85C33.1781 66.85 32.9861 67.294 32.9861 68.002C32.9861 68.71 33.1781 69.16 33.6581 69.16ZM38.6383 70H37.6243L37.0663 69.124L36.5023 70H35.4943L36.4843 68.512L35.5543 67.102H36.5683L37.0663 67.888L37.5583 67.102H38.5723L37.6483 68.512L38.6383 70Z" fill="white"/>
<path d="M7.69 11H5.33V7.665H7.69V8.29H6.04V8.995H7.655V9.62H6.04V10.375H7.69V11ZM9.61004 11.06C9.32504 11.06 9.06004 10.94 8.86504 10.69V11.92H8.23004V8.585H8.86504V8.89C9.05004 8.655 9.31504 8.525 9.61004 8.525C10.23 8.525 10.68 8.985 10.68 9.79C10.68 10.595 10.23 11.06 9.61004 11.06ZM9.41004 10.495C9.77504 10.495 10.02 10.21 10.02 9.79C10.02 9.375 9.77504 9.09 9.41004 9.09C9.20504 9.09 8.97004 9.21 8.86504 9.365V10.22C8.97004 10.37 9.20504 10.495 9.41004 10.495ZM11.4601 8.325C11.2551 8.325 11.0801 8.155 11.0801 7.945C11.0801 7.735 11.2551 7.57 11.4601 7.57C11.6701 7.57 11.8401 7.735 11.8401 7.945C11.8401 8.155 11.6701 8.325 11.4601 8.325ZM11.7801 11H11.1451V8.585H11.7801V11ZM13.5347 11.06C12.7897 11.06 12.2547 10.535 12.2547 9.79C12.2547 9.05 12.7897 8.525 13.5347 8.525C14.0297 8.525 14.3297 8.74 14.4897 8.96L14.0747 9.35C13.9597 9.18 13.7847 9.09 13.5647 9.09C13.1797 9.09 12.9097 9.37 12.9097 9.79C12.9097 10.21 13.1797 10.495 13.5647 10.495C13.7847 10.495 13.9597 10.395 14.0747 10.235L14.4897 10.62C14.3297 10.845 14.0297 11.06 13.5347 11.06Z" fill="#05080A"/>
<path d="M50.3968 11H49.9448L48.5528 9.096V11H48.0848V8.332H48.5648L49.9288 10.184V8.332H50.3968V11ZM51.8237 11.048C51.2117 11.048 50.8317 10.588 50.8317 10.032C50.8317 9.48 51.2117 9.02 51.8237 9.02C52.4437 9.02 52.8197 9.48 52.8197 10.032C52.8197 10.588 52.4437 11.048 51.8237 11.048ZM51.8237 10.676C52.1837 10.676 52.3837 10.376 52.3837 10.032C52.3837 9.692 52.1837 9.392 51.8237 9.392C51.4677 9.392 51.2677 9.692 51.2677 10.032C51.2677 10.376 51.4677 10.676 51.8237 10.676ZM53.4411 11.044C53.2891 11.044 53.1611 10.916 53.1611 10.764C53.1611 10.612 53.2891 10.484 53.4411 10.484C53.5931 10.484 53.7211 10.612 53.7211 10.764C53.7211 10.916 53.5931 11.044 53.4411 11.044ZM56.1969 11H55.7289V8.94L55.2929 9.392L55.0209 9.108L55.7889 8.332H56.1969V11ZM57.7165 11H57.2485V8.94L56.8125 9.392L56.5405 9.108L57.3085 8.332H57.7165V11Z" fill="white"/>
<defs>
<linearGradient id="paint0_linear_26835_29174" x1="37.8344" y1="86.256" x2="23.263" y2="1.76" gradientUnits="userSpaceOnUse">
<stop stop-color="#55EEFF"/>
<stop offset="0.09" stop-color="#6CABFF"/>
<stop offset="0.23" stop-color="#8C4FFF"/>
<stop offset="0.32" stop-color="#A016FF"/>
<stop offset="0.37" stop-color="#A800FF"/>
<stop offset="0.44" stop-color="#C043D4"/>
<stop offset="0.51" stop-color="#D680AF"/>
<stop offset="0.58" stop-color="#E8B091"/>
<stop offset="0.64" stop-color="#F4D27B"/>
<stop offset="0.69" stop-color="#FCE76E"/>
<stop offset="0.72" stop-color="#FFEF6A"/>
<stop offset="0.81" stop-color="#BCF589"/>
<stop offset="0.9" stop-color="#84FAA3"/>
<stop offset="0.97" stop-color="#62FDB3"/>
<stop offset="1" stop-color="#55FFBA"/>
</linearGradient>
<linearGradient id="paint1_linear_26835_29174" x1="31.6451" y1="83.9802" x2="31.6451" y2="6.42023" gradientUnits="userSpaceOnUse">
<stop stop-color="#047BFF"/>
<stop offset="1" stop-color="#5F1B8B"/>
</linearGradient>
<linearGradient id="paint2_linear_26835_29174" x1="0.945027" y1="59.5102" x2="52.995" y2="59.5102" gradientUnits="userSpaceOnUse">
<stop stop-color="#7221FF"/>
<stop offset="1" stop-color="#FF911C"/>
</linearGradient>
<linearGradient id="paint3_linear_26835_29174" x1="35.145" y1="26.8002" x2="35.145" y2="79.4402" gradientUnits="userSpaceOnUse">
<stop stop-color="#E9627D"/>
<stop offset="1" stop-color="#7221FF"/>
</linearGradient>
<linearGradient id="paint4_linear_26835_29174" x1="57.2451" y1="65.6204" x2="3.60507" y2="33.4304" gradientUnits="userSpaceOnUse">
<stop stop-color="#FFC200"/>
<stop offset="0.177885" stop-color="#FFBB00" stop-opacity="0.94"/>
<stop offset="0.379808" stop-color="#FFAA00" stop-opacity="0.78"/>
<stop offset="0.596154" stop-color="#FF8D00" stop-opacity="0.52"/>
<stop offset="0.85" stop-color="#FF6700" stop-opacity="0.17"/>
<stop offset="1" stop-color="#FF5500" stop-opacity="0"/>
</linearGradient>
<linearGradient id="paint5_linear_26835_29174" x1="12.6851" y1="50.0501" x2="49.0151" y2="82.8101" gradientUnits="userSpaceOnUse">
<stop stop-color="#009FE8"/>
<stop offset="1" stop-color="#047BFF"/>
</linearGradient>
<linearGradient id="paint6_linear_26835_29174" x1="31.6451" y1="82.9402" x2="31.6451" y2="57.6702" gradientUnits="userSpaceOnUse">
<stop stop-color="#047BFF"/>
<stop offset="1" stop-color="#3579F6" stop-opacity="0"/>
</linearGradient>
<linearGradient id="paint7_linear_26835_29174" x1="36.215" y1="87.3398" x2="36.215" y2="49.0898" gradientUnits="userSpaceOnUse">
<stop stop-color="#047BFF"/>
<stop offset="1" stop-color="white"/>
</linearGradient>
<linearGradient id="paint8_linear_26835_29174" x1="42.455" y1="86.9598" x2="42.455" y2="67.0398" gradientUnits="userSpaceOnUse">
<stop stop-color="#047BFF"/>
<stop offset="1" stop-color="white"/>
</linearGradient>
<linearGradient id="paint9_linear_26835_29174" x1="54.995" y1="28.7702" x2="43.795" y2="22.1802" gradientUnits="userSpaceOnUse">
<stop stop-color="#7625F3"/>
<stop offset="1" stop-color="#F0963E"/>
</linearGradient>
<linearGradient id="paint10_linear_26835_29174" x1="55.8051" y1="38.75" x2="42.5351" y2="26.82" gradientUnits="userSpaceOnUse">
<stop stop-color="#7625F3"/>
<stop offset="1" stop-color="#F0963E"/>
</linearGradient>
<linearGradient id="paint11_linear_26835_29174" x1="39.225" y1="30.8501" x2="48.455" y2="40.7301" gradientUnits="userSpaceOnUse">
<stop stop-color="#FF911C"/>
<stop offset="1" stop-color="#7221FF"/>
</linearGradient>
<linearGradient id="paint12_linear_26835_29174" x1="32.835" y1="34.6002" x2="41.965" y2="54.0802" gradientUnits="userSpaceOnUse">
<stop stop-color="#FF911C"/>
<stop offset="1" stop-color="#7221FF"/>
</linearGradient>
<linearGradient id="paint13_linear_26835_29174" x1="43.935" y1="38.07" x2="42.195" y2="52.44" gradientUnits="userSpaceOnUse">
<stop stop-color="#F8C909"/>
<stop offset="0.74" stop-color="#EE7521"/>
</linearGradient>
<radialGradient id="paint14_radial_26835_29174" cx="0" cy="0" r="1" gradientUnits="userSpaceOnUse" gradientTransform="translate(15.8321 39.7609) rotate(-22.51) scale(41.72 41.72)">
<stop stop-color="#F8C909"/>
<stop offset="0.74" stop-color="#EE7521"/>
</radialGradient>
<linearGradient id="paint15_linear_26835_29174" x1="9.89883" y1="44.2767" x2="38.4911" y2="45.5146" gradientUnits="userSpaceOnUse">
<stop stop-color="#F8E872"/>
<stop offset="0.81" stop-color="#F1881B"/>
</linearGradient>
<linearGradient id="paint16_linear_26835_29174" x1="57.915" y1="86.3601" x2="26.675" y2="13.7601" gradientUnits="userSpaceOnUse">
<stop stop-color="#55EEFF"/>
<stop offset="0.09" stop-color="#6CABFF"/>
<stop offset="0.23" stop-color="#8C4FFF"/>
<stop offset="0.32" stop-color="#A016FF"/>
<stop offset="0.37" stop-color="#A800FF"/>
<stop offset="0.44" stop-color="#C043D4"/>
<stop offset="0.51" stop-color="#D680AF"/>
<stop offset="0.58" stop-color="#E8B091"/>
<stop offset="0.64" stop-color="#F4D27B"/>
<stop offset="0.69" stop-color="#FCE76E"/>
<stop offset="0.72" stop-color="#FFEF6A"/>
<stop offset="0.81" stop-color="#BCF589"/>
<stop offset="0.9" stop-color="#84FAA3"/>
<stop offset="0.97" stop-color="#62FDB3"/>
<stop offset="1" stop-color="#55FFBA"/>
</linearGradient>
<linearGradient id="paint17_linear_26835_29174" x1="51.225" y1="89.51" x2="19.885" y2="16.67" gradientUnits="userSpaceOnUse">
<stop stop-color="#55EEFF"/>
<stop offset="0.09" stop-color="#6CABFF"/>
<stop offset="0.23" stop-color="#8C4FFF"/>
<stop offset="0.32" stop-color="#A016FF"/>
<stop offset="0.37" stop-color="#A800FF"/>
<stop offset="0.44" stop-color="#C043D4"/>
<stop offset="0.51" stop-color="#D680AF"/>
<stop offset="0.58" stop-color="#E8B091"/>
<stop offset="0.64" stop-color="#F4D27B"/>
<stop offset="0.69" stop-color="#FCE76E"/>
<stop offset="0.72" stop-color="#FFEF6A"/>
<stop offset="0.81" stop-color="#BCF589"/>
<stop offset="0.9" stop-color="#84FAA3"/>
<stop offset="0.97" stop-color="#62FDB3"/>
<stop offset="1" stop-color="#55FFBA"/>
</linearGradient>
<clipPath id="clip0_26835_29174">
<rect width="63" height="88" fill="white"/>
</clipPath>
<clipPath id="clip1_26835_29174">
<rect width="63" height="88" fill="white" transform="translate(0.14502)"/>
</clipPath>
</defs>
</svg>
