<svg width="63" height="88" viewBox="0 0 63 88" fill="none" xmlns="http://www.w3.org/2000/svg">
<rect width="63" height="88" rx="4" fill="url(#paint0_linear_26835_29175)"/>
<g clip-path="url(#clip0_26835_29175)">
<g clip-path="url(#clip1_26835_29175)">
<path d="M56.44 0.740234H6.56003C3.22975 0.740234 0.530029 3.43996 0.530029 6.77023V81.2302C0.530029 84.5605 3.22975 87.2602 6.56003 87.2602H56.44C59.7703 87.2602 62.47 84.5605 62.47 81.2302V6.77023C62.47 3.43996 59.7703 0.740234 56.44 0.740234Z" fill="url(#paint1_linear_26835_29175)"/>
<path d="M1.04004 63.6401H62.01V83.2401C62.01 85.1101 60.49 86.6301 58.62 86.6301H4.43004C2.56004 86.6301 1.04004 85.1101 1.04004 83.2401V63.6401Z" fill="#3D5B6E"/>
<path d="M21.01 71.9604H12.16C11.9115 71.9604 11.71 72.1619 11.71 72.4105V75.9705C11.71 76.219 11.9115 76.4204 12.16 76.4204H21.01C21.2586 76.4204 21.46 76.219 21.46 75.9705V72.4105C21.46 72.1619 21.2586 71.9604 21.01 71.9604Z" fill="#4E7284"/>
<path d="M25.88 77.1504H17.03C16.7815 77.1504 16.58 77.3519 16.58 77.6004V81.1604C16.58 81.4089 16.7815 81.6104 17.03 81.6104H25.88C26.1285 81.6104 26.33 81.4089 26.33 81.1604V77.6004C26.33 77.3519 26.1285 77.1504 25.88 77.1504Z" fill="#4E7284"/>
<path d="M52.47 73.1704H43.62C43.3715 73.1704 43.17 73.3719 43.17 73.6204V77.1804C43.17 77.4289 43.3715 77.6304 43.62 77.6304H52.47C52.7186 77.6304 52.92 77.4289 52.92 77.1804V73.6204C52.92 73.3719 52.7186 73.1704 52.47 73.1704Z" fill="#4E7284"/>
<path d="M36.4 77.1504H27.55C27.3015 77.1504 27.1 77.3519 27.1 77.6004V81.1604C27.1 81.4089 27.3015 81.6104 27.55 81.6104H36.4C36.6486 81.6104 36.85 81.4089 36.85 81.1604V77.6004C36.85 77.3519 36.6486 77.1504 36.4 77.1504Z" fill="#4E7284"/>
<path d="M61.89 63.9702H1.04004V69.1702H61.89V63.9702Z" fill="#1A2C38"/>
<path d="M3.92999 1.3501C2.85999 1.3501 1.42999 3.4401 1.42999 4.5001L1.99999 18.1901C1.99999 16.4301 3.42999 15.0001 5.18999 15.0001H33.59C34.8 15.0001 35.94 14.4501 36.7 13.5101L44.8 3.4801C45.56 2.5401 46.7 1.9901 47.91 1.9901L3.92999 1.3501Z" fill="url(#paint2_linear_26835_29175)"/>
<path d="M25.68 13.3702L24.63 13.9102C24.63 13.9102 25.8 14.7602 27.63 13.9102L33.82 13.7002C33.82 13.7002 34.85 14.1102 36.02 14.1702C36.02 14.1702 36.38 13.9102 36.57 13.6602L33.19 12.1602L27.32 12.7502L25.68 13.3702Z" fill="#1A2C38"/>
<path d="M54.31 56.6402C54.31 58.1802 44.16 59.4302 31.63 59.4302C19.1 59.4302 8.95001 58.1802 8.95001 56.6402C8.95001 55.1002 19.1 50.2202 31.63 50.2202C44.16 50.2202 54.31 55.1002 54.31 56.6402Z" fill="#1A2C38"/>
<path d="M17.75 45.2798C17.75 45.2798 12.68 53.8298 7.32001 56.2698C7.32001 56.2698 9.71001 58.2398 13.73 54.6998C13.73 54.6998 13.55 56.4498 12.71 57.3098C12.71 57.3098 13.37 57.7198 15.27 56.9598C15.27 56.9598 16.35 58.2498 18.57 57.8698L19.2 55.0498C19.2 55.0498 19.69 57.1498 20.34 57.7898C20.34 57.7898 23.04 58.3598 25.64 58.1598C25.64 58.1598 26.32 54.6198 26.22 53.2198C26.22 53.2198 27.04 54.7198 27.48 58.1198C27.48 58.1198 28.82 58.1798 29.22 56.0598C29.62 53.9398 29.88 54.9598 30.74 57.5598C30.74 57.5598 34.18 58.6098 37.96 58.6398C37.96 58.6398 37.84 57.0798 38.14 57.0198C38.44 56.9598 39.44 58.5598 39.44 58.5598C39.44 58.5598 43.79 58.4798 45.47 57.4998C45.47 57.4998 43.79 55.9798 43.95 53.8998C43.95 53.8998 44.77 56.3398 45.83 57.2998L47.87 56.6198C47.87 56.6198 46.37 53.9998 46.79 53.8198C47.21 53.6398 49.35 56.2198 51.63 56.5798L51.35 54.8198C51.35 54.8198 52.91 56.2998 55.67 56.6998C55.67 56.6998 46.99 48.4198 45.19 44.3398L17.73 45.2598L17.75 45.2798Z" fill="#008C00"/>
<path d="M18.23 55.8398H12.99V57.4898H18.23V55.8398Z" fill="#1A2C38"/>
<path d="M20.57 37.5999C20.57 37.5999 18.87 41.5499 14.87 45.4699C13.35 46.9599 13.84 47.1199 14.17 47.0199C14.94 46.7799 16.18 46.0099 16.95 45.1999C16.95 45.1999 16.31 46.7099 15.58 47.2399C15.52 47.2799 15.55 47.3799 15.62 47.3799C16.12 47.3999 17.1 47.5199 17.69 48.2399C17.69 48.2399 18.97 46.8799 19.11 45.8599C19.11 45.8599 19.49 48.4799 19.01 49.7399C19.01 49.7399 21.05 52.9599 27.07 52.1999C27.07 52.1999 27.17 47.8399 28.01 48.0799C28.85 48.3199 29.41 51.7999 29.41 51.7999C29.41 51.7999 34.17 51.2999 36.33 48.2599C38.49 45.2199 39.65 48.2399 43.15 48.6799C43.15 48.6799 41.95 47.5199 41.97 46.1999C41.97 46.1999 42.85 48.0799 44.85 48.6799C44.85 48.6799 46.11 48.8199 47.19 48.4199C47.19 48.4199 46.17 46.2299 46.79 46.1499C47.14 46.1099 47.78 46.8799 48.1 47.7199C48.17 47.9199 48.42 47.9799 48.59 47.8499L49.45 47.1799C49.45 47.1799 48.83 45.0599 45.35 41.6799C43.51 39.8899 42.98 37.2099 42.98 37.2099L33.56 30.9399L24.26 33.0099L20.57 37.5999Z" fill="#1CE61C"/>
<path d="M32.77 36.92C32.77 36.92 34.02 38.52 35.47 38.48C35.47 38.48 34.14 36.07 36.09 37.93C38.04 39.79 36.64 40.09 40.96 39.31L37.72 34.23L31.63 34.48L32.77 36.92Z" fill="#0C1C26"/>
<path d="M18.33 41.4002C18.33 41.4002 19.18 41.6302 19.92 41.7102C19.92 41.7102 21.52 39.1902 22.08 39.5102C22.64 39.8302 21.66 42.0502 21.66 42.0502C21.66 42.0502 24.06 42.3902 25.28 42.0502C25.28 42.0502 27.28 40.1502 27.62 38.1902C27.62 38.1902 28.24 40.6702 27.62 41.7502C27.62 41.7502 30.03 41.2302 33.2 39.0602L28.82 35.4102L20.48 36.6102C20.48 36.6102 20.18 38.8102 18.33 41.4002Z" fill="#1A2C38"/>
<path d="M24.29 25.8001C24.29 25.8001 22.89 29.4801 21.55 30.6401C20.21 31.8001 18.29 34.7601 19.61 34.0801C20.93 33.4001 18.97 36.4201 17.75 37.6201C16.53 38.8201 18.75 39.3201 20.27 39.8001C20.27 39.8001 21.69 37.3401 21.97 37.4601C22.25 37.5801 21.71 40.3001 21.71 40.3001C21.71 40.3001 23.48 41.1701 25.07 41.2301C25.07 41.2301 26.51 39.0701 26.87 36.9701C26.87 36.9701 27.77 39.4901 27.32 40.9601C27.32 40.9601 28.61 40.9301 30.44 39.7001C31.62 38.9101 33.02 39.2001 33.87 39.5101C34.12 39.6001 34.34 39.3301 34.22 39.1001C33.71 38.1601 32.93 36.5901 32.93 35.7801C32.93 35.7801 34.19 38.0601 35.87 38.9401C35.87 38.9401 35.47 38.0601 35.61 37.3001C35.73 36.6701 37.32 38.2901 37.85 38.8401C37.96 38.9601 38.11 39.0401 38.27 39.0801C39.24 39.3001 42.74 39.9901 44.52 38.6501C44.52 38.6501 43.05 37.2101 42.75 34.9601C42.75 34.9601 45.3 36.6701 45.54 38.1401C45.54 38.1401 47.01 37.3301 44.82 34.0001C44.82 34.0001 45.36 34.2701 46.17 34.1801C46.17 34.1801 42 31.0601 40.68 27.7901L36.27 22.3301L25.62 24.2501L24.3 25.8001H24.29Z" fill="#008C00"/>
<path d="M23.46 36.7401C24.051 36.7401 24.53 36.261 24.53 35.6701C24.53 35.0792 24.051 34.6001 23.46 34.6001C22.8691 34.6001 22.39 35.0792 22.39 35.6701C22.39 36.261 22.8691 36.7401 23.46 36.7401Z" fill="#0C1C26"/>
<path d="M19.62 45.8002C20.2109 45.8002 20.69 45.3211 20.69 44.7302C20.69 44.1392 20.2109 43.6602 19.62 43.6602C19.029 43.6602 18.55 44.1392 18.55 44.7302C18.55 45.3211 19.029 45.8002 19.62 45.8002Z" fill="#0C1C26"/>
<path d="M42.32 49.0399C42.9109 49.0399 43.39 48.5608 43.39 47.9699C43.39 47.379 42.9109 46.8999 42.32 46.8999C41.7291 46.8999 41.25 47.379 41.25 47.9699C41.25 48.5608 41.7291 49.0399 42.32 49.0399Z" fill="#0C1C26"/>
<path d="M28.27 28.4899C28.27 28.4899 30.87 27.8699 31.63 28.8499C32.39 29.8299 34.94 28.9199 36.74 30.3299C36.81 30.3899 36.92 30.3299 36.91 30.2299C36.85 29.7599 36.76 28.8599 36.95 28.7499C37.13 28.6399 37.75 29.7499 38.14 30.4699C38.34 30.8499 38.72 31.0899 39.15 31.1299C40.11 31.1999 41.85 31.2999 42.89 31.1499C42.89 31.1499 40.96 29.0099 40.66 27.5999L36.89 24.6499L29.42 25.5899L28.27 28.4899Z" fill="#1A2C38"/>
<path d="M19.24 35.7598C19.24 35.7598 26.39 35.6098 40.16 27.0298L40.35 27.2898C40.35 27.2898 28.85 35.1198 18.89 36.2598C18.89 36.2598 18.89 35.9498 19.24 35.7698V35.7598Z" fill="#E8840C"/>
<path d="M24.97 20.3199C24.97 20.3199 23.65 25.5199 20.85 27.4799C20.85 27.4799 21.97 28.9799 23.15 27.6999C24.33 26.4199 24.99 27.6799 25.75 28.4999C26.51 29.3199 29.29 29.5599 30.87 27.9399C32.45 26.3199 31.39 28.3799 32.69 27.9799C33.99 27.5799 35.49 28.5199 36.35 28.7399L36.09 25.8599L37.75 28.9199C37.75 28.9199 40.31 29.1999 41.71 28.5599L40.53 25.6799C40.53 25.6799 41.27 26.8599 42.81 27.2799C42.81 27.2799 39.87 24.7799 38.71 22.5599C38.71 22.5599 39.33 23.0199 40.25 22.8799C40.25 22.8799 36.57 20.6599 36.11 18.7399C36.11 18.7399 29.29 12.3599 24.97 20.3199Z" fill="#1CE61C"/>
<path d="M28.54 12.0302C28.54 12.0302 27.25 18.0902 21.95 19.3002C21.95 19.3002 23.25 20.1802 25.15 19.3002C25.15 19.3002 24.13 20.9702 23.25 21.1602C23.25 21.1602 24.97 22.0002 26.5 20.1802C28.03 18.3702 27.8 22.3202 28.82 22.6902C29.84 23.0602 29.47 20.3202 30.68 19.4902C30.68 19.4902 32.31 22.0402 34.54 22.1302C36.77 22.2202 37.03 21.7702 37.03 21.7702C37.03 21.7702 36.13 20.9002 36.6 19.1602C36.6 19.1602 38.56 21.3802 40.35 18.9702C40.35 18.9702 36.14 20.3602 33.63 11.6802L28.54 12.0302Z" fill="#008C00"/>
<path d="M30.63 6.0301C30.63 6.0301 30.03 12.6301 24.63 12.9901C24.63 12.9901 25.15 14.2901 26.77 13.3301C28.39 12.3701 26.85 14.3501 27.27 14.6101C27.69 14.8701 29.22 12.2801 29.94 13.5601C30.66 14.8401 31.56 15.6901 33.38 15.7101C33.38 15.7101 32.08 14.7201 32.8 13.3601C33.52 12.0001 35.45 14.2701 37.8 13.7001C39.13 13.3801 31.71 12.6301 31.41 6.4501C31.41 6.4501 31.3 3.3801 30.63 6.0301Z" fill="#1CE61C"/>
<path d="M17.74 42.2002C17.74 42.2002 21.96 45.3302 27.67 47.0502C34.07 48.9702 42.2 49.1402 45.34 41.6802C45.34 41.6802 45.72 41.6802 45.72 42.0502C45.72 42.0502 43.57 49.2102 33.71 48.5302C23.85 47.8502 17.54 42.4602 17.54 42.4602C17.54 42.4602 17.36 42.2902 17.74 42.2002Z" fill="#E8840C"/>
<path d="M27.24 15.21C27.24 15.21 30.28 17 36.86 17.81C36.86 17.81 37.4 17.89 37.28 18.17C37.28 18.17 31.09 17.71 27.05 15.51C27.05 15.51 26.91 15.21 27.23 15.21H27.24Z" fill="#E8840C"/>
<path d="M42.32 48.5799C42.9109 48.5799 43.39 48.1009 43.39 47.5099C43.39 46.919 42.9109 46.4399 42.32 46.4399C41.7291 46.4399 41.25 46.919 41.25 47.5099C41.25 48.1009 41.7291 48.5799 42.32 48.5799Z" fill="#F7BB2E"/>
<path d="M33.61 19.7098C34.2009 19.7098 34.68 19.2308 34.68 18.6398C34.68 18.0489 34.2009 17.5698 33.61 17.5698C33.019 17.5698 32.54 18.0489 32.54 18.6398C32.54 19.2308 33.019 19.7098 33.61 19.7098Z" fill="#1A2C38"/>
<path d="M33.61 19.2401C34.2009 19.2401 34.68 18.761 34.68 18.1701C34.68 17.5792 34.2009 17.1001 33.61 17.1001C33.019 17.1001 32.54 17.5792 32.54 18.1701C32.54 18.761 33.019 19.2401 33.61 19.2401Z" fill="#FFC200"/>
<path d="M23.54 36.2201C24.1309 36.2201 24.61 35.741 24.61 35.1501C24.61 34.5591 24.1309 34.0801 23.54 34.0801C22.949 34.0801 22.47 34.5591 22.47 35.1501C22.47 35.741 22.949 36.2201 23.54 36.2201Z" fill="#FFC200"/>
<path d="M19.62 45.2499C20.2109 45.2499 20.69 44.7708 20.69 44.1799C20.69 43.5889 20.2109 43.1099 19.62 43.1099C19.029 43.1099 18.55 43.5889 18.55 44.1799C18.55 44.7708 19.029 45.2499 19.62 45.2499Z" fill="#FFC200"/>
<path d="M59 0H4C1.79 0 0 1.79 0 4V84C0 86.21 1.79 88 4 88H59C61.21 88 63 86.21 63 84V4C63 1.79 61.21 0 59 0ZM61 82.81C61 84.57 59.57 86 57.81 86H5.19C3.43 86 2 84.57 2 82.81V16.9C2 8.67 8.67 2 16.9 2H57.81C59.57 2 61 3.43 61 5.19V82.81Z" fill="url(#paint3_linear_26835_29175)"/>
<mask id="mask0_26835_29175" style="mask-type:luminance" maskUnits="userSpaceOnUse" x="0" y="0" width="63" height="88">
<path d="M59 0H4C1.79 0 0 1.79 0 4V84C0 86.21 1.79 88 4 88H59C61.21 88 63 86.21 63 84V4C63 1.79 61.21 0 59 0ZM61 82.81C61 84.57 59.57 86 57.81 86H5.19C3.43 86 2 84.57 2 82.81V18.19C2 16.43 3.43 15 5.19 15H33.59C34.8 15 35.94 14.45 36.7 13.51L44.8 3.48C45.56 2.54 46.7 1.99 47.91 1.99H57.81C59.57 1.99 61 3.42 61 5.18V82.8V82.81Z" fill="white"/>
</mask>
<g mask="url(#mask0_26835_29175)">
<path d="M68.37 47.3101V26.6401L4.46002 90.5501H25.13L68.37 47.3101Z" fill="white"/>
<path d="M64.66 -2.29004H55.22L-2.91998 55.84V66.18L65.46 -2.20004C65.2 -2.26004 64.93 -2.29004 64.66 -2.29004Z" fill="white"/>
<path d="M68.37 69.2298V61.5498L39.37 90.5498H47.05L68.37 69.2298Z" fill="white"/>
</g>
<path d="M23.24 37.0198C23.24 37.0198 20.62 40.0998 20.04 45.3998H45.19C45.19 45.3998 45.44 39.8998 41.33 36.5898L23.24 37.0198Z" fill="#FF0A4C"/>
<path d="M39.79 41.51C39.79 41.51 39.41 42.17 38.4 42.57C38.4 42.57 37.07 43.85 37.16 44.71L36.02 44.62L36.86 42.16L39.79 41.5V41.51Z" fill="#1A2C38"/>
<path d="M23.16 39.7798C23.16 39.7798 23.16 39.7998 23.19 39.8398C23.4 40.2098 24.67 42.3298 27.25 43.1798C27.25 43.1798 28.32 43.8998 28.42 45.0898H29.14L28.62 41.9498" fill="#1A2C38"/>
<path d="M27.05 42.2602C27.05 42.2602 28.57 42.9902 28.74 44.7902H36.55C36.55 44.7902 36.36 43.2702 39.38 41.6802L27.06 42.2602H27.05Z" fill="#B9D8EB"/>
<path d="M32.46 43.3299C37.8392 43.3299 42.2 41.06 42.2 38.2599C42.2 35.4599 37.8392 33.1899 32.46 33.1899C27.0807 33.1899 22.72 35.4599 22.72 38.2599C22.72 41.06 27.0807 43.3299 32.46 43.3299Z" fill="#B9D8EB"/>
<path d="M37.7 35.0499C37.7 35.0499 41.64 36.4099 41.76 39.7799C41.76 39.7799 44.25 35.9899 37.55 33.8799L37.69 35.0499H37.7Z" fill="white"/>
<path d="M27.71 34.4201C27.71 34.4201 23.76 35.6101 22.72 38.2601C22.72 38.2601 22.3 35.4501 27.45 33.8901L27.71 34.4201Z" fill="white"/>
<path d="M26.75 36.1099C26.75 36.1099 26.86 37.8599 28.87 38.7899C28.87 38.7899 29.57 40.1099 31.68 40.1899C31.68 40.1899 32.69 41.3799 32.51 44.7899H33.09C33.09 44.7899 32.89 41.4199 33.58 40.2199C33.58 40.2199 34.77 39.9899 35.47 39.1299C35.47 39.1299 36.51 38.7899 37.3 37.6499L26.73 36.1099H26.75Z" fill="#1A2C38"/>
<path d="M31.39 28.27C31.39 28.27 29.86 28.8 28.73 29.8L28.9 31.03C28.9 31.03 29.94 30.15 31.49 29.92L31.39 28.27Z" fill="#FF0A4C"/>
<path d="M28.64 31.9998C29.3856 31.9998 29.99 31.3954 29.99 30.6498C29.99 29.9042 29.3856 29.2998 28.64 29.2998C27.8944 29.2998 27.29 29.9042 27.29 30.6498C27.29 31.3954 27.8944 31.9998 28.64 31.9998Z" fill="white"/>
<path d="M28.83 31.9002C29.4486 31.9002 29.95 31.3987 29.95 30.7802C29.95 30.1616 29.4486 29.6602 28.83 29.6602C28.2115 29.6602 27.71 30.1616 27.71 30.7802C27.71 31.3987 28.2115 31.9002 28.83 31.9002Z" fill="#B9D8EB"/>
<path d="M32.52 35.0601C34.4475 35.0601 36.01 33.4976 36.01 31.5701C36.01 29.6426 34.4475 28.0801 32.52 28.0801C30.5926 28.0801 29.03 29.6426 29.03 31.5701C29.03 33.4976 30.5926 35.0601 32.52 35.0601Z" fill="#FF0A4C"/>
<path d="M32.52 35.1399C34.2542 35.1399 35.66 33.734 35.66 31.9999C35.66 30.2657 34.2542 28.8599 32.52 28.8599C30.7858 28.8599 29.38 30.2657 29.38 31.9999C29.38 33.734 30.7858 35.1399 32.52 35.1399Z" fill="#97062D"/>
<path d="M29.29 33.25C29.29 33.25 28.4 32.7 28.6 31.98C28.8 31.26 30.57 30.69 32.52 30.64C34.47 30.59 36.64 31.6 36.23 32.13C36.23 32.13 36.72 32.73 35.74 33.24H29.28L29.29 33.25Z" fill="white"/>
<path d="M29.83 33.2999C29.83 33.2999 29.02 32.2499 29.6 31.8199C30.18 31.3899 31.98 31.1699 32.83 31.2399C33.68 31.3099 35.51 31.7799 35.41 32.2599C35.41 32.2599 35.91 32.6699 35.36 33.2199L29.83 33.2999Z" fill="#B9D8EB"/>
<path d="M32.52 33.0499C33.1772 33.0499 33.71 32.6336 33.71 32.1199C33.71 31.6063 33.1772 31.1899 32.52 31.1899C31.8628 31.1899 31.33 31.6063 31.33 32.1199C31.33 32.6336 31.8628 33.0499 32.52 33.0499Z" fill="#FF9D85"/>
<path d="M32.52 38.9398C35.8613 38.9398 38.57 37.4444 38.57 35.5998C38.57 33.7551 35.8613 32.2598 32.52 32.2598C29.1786 32.2598 26.47 33.7551 26.47 35.5998C26.47 37.4444 29.1786 38.9398 32.52 38.9398Z" fill="white"/>
<path d="M32.52 38.7098C35.3477 38.7098 37.64 37.4428 37.64 35.8798C37.64 34.3168 35.3477 33.0498 32.52 33.0498C29.6923 33.0498 27.4 34.3168 27.4 35.8798C27.4 37.4428 29.6923 38.7098 32.52 38.7098Z" fill="#B9D8EB"/>
<path d="M29.29 33.7098C29.29 33.7098 29.93 35.2298 32.52 33.8098C32.52 33.8098 34.91 35.0498 35.81 33.9398L32.52 33.0498L29.29 33.7098Z" fill="#1A2C38"/>
<path d="M36.1745 33.7133C36.2913 33.2586 35.4319 32.6451 34.255 32.3429C33.0782 32.0407 32.0295 32.1644 31.9127 32.6191C31.796 33.0738 32.6554 33.6873 33.8322 33.9895C35.0091 34.2917 36.0578 34.168 36.1745 33.7133Z" fill="white"/>
<path d="M31.2043 33.9847C32.3812 33.6826 33.2406 33.069 33.1238 32.6143C33.0071 32.1596 31.9584 32.036 30.7816 32.3381C29.6047 32.6403 28.7453 33.2539 28.8621 33.7085C28.9788 34.1632 30.0275 34.2869 31.2043 33.9847Z" fill="white"/>
<path d="M32.52 39.7802C34.3039 39.7802 35.75 38.9833 35.75 38.0002C35.75 37.0171 34.3039 36.2202 32.52 36.2202C30.7361 36.2202 29.29 37.0171 29.29 38.0002C29.29 38.9833 30.7361 39.7802 32.52 39.7802Z" fill="#B9D8EB"/>
<path d="M31.7831 41.5754L29.2588 42.3819C29.1063 42.4307 29.0221 42.5939 29.0709 42.7465L30.4527 47.0711C30.5014 47.2236 30.6646 47.3078 30.8172 47.259L33.3415 46.4525C33.494 46.4037 33.5782 46.2405 33.5294 46.088L32.1476 41.7634C32.0989 41.6108 31.9357 41.5266 31.7831 41.5754Z" fill="white"/>
<path d="M31.7749 41.9773L29.5079 42.7016C29.4395 42.7235 29.4017 42.7966 29.4236 42.865L30.6685 46.761C30.6903 46.8294 30.7635 46.8671 30.8319 46.8453L33.0989 46.1209C33.1673 46.099 33.2051 46.0259 33.1832 45.9575L31.9383 42.0615C31.9165 41.9931 31.8433 41.9554 31.7749 41.9773Z" fill="#FF0A4C"/>
<path d="M29.8 43.1301C29.8773 43.1301 29.94 43.0674 29.94 42.9901C29.94 42.9128 29.8773 42.8501 29.8 42.8501C29.7227 42.8501 29.66 42.9128 29.66 42.9901C29.66 43.0674 29.7227 43.1301 29.8 43.1301Z" fill="white"/>
<path d="M31.69 42.53C31.7673 42.53 31.83 42.4673 31.83 42.39C31.83 42.3127 31.7673 42.25 31.69 42.25C31.6127 42.25 31.55 42.3127 31.55 42.39C31.55 42.4673 31.6127 42.53 31.69 42.53Z" fill="white"/>
<path d="M30.91 46.5901C30.9873 46.5901 31.05 46.5274 31.05 46.4501C31.05 46.3727 30.9873 46.3101 30.91 46.3101C30.8327 46.3101 30.77 46.3727 30.77 46.4501C30.77 46.5274 30.8327 46.5901 30.91 46.5901Z" fill="white"/>
<path d="M32.79 45.9802C32.8673 45.9802 32.93 45.9175 32.93 45.8402C32.93 45.7629 32.8673 45.7002 32.79 45.7002C32.7127 45.7002 32.65 45.7629 32.65 45.8402C32.65 45.9175 32.7127 45.9802 32.79 45.9802Z" fill="white"/>
<mask id="mask1_26835_29175" style="mask-type:luminance" maskUnits="userSpaceOnUse" x="29" y="41" width="5" height="7">
<path d="M31.7831 41.5754L29.2588 42.3819C29.1063 42.4307 29.0221 42.5939 29.0709 42.7465L30.4527 47.0711C30.5014 47.2236 30.6646 47.3078 30.8172 47.259L33.3415 46.4525C33.494 46.4037 33.5782 46.2405 33.5294 46.088L32.1476 41.7634C32.0989 41.6108 31.9357 41.5266 31.7831 41.5754Z" fill="white"/>
</mask>
<g mask="url(#mask1_26835_29175)">
<path d="M33.9015 42.0721L31.2544 42.1946C31.0944 42.202 30.9707 42.3377 30.9781 42.4977L31.188 47.0328C31.1954 47.1928 31.3311 47.3165 31.4911 47.3091L34.1382 47.1866C34.2982 47.1792 34.4219 47.0435 34.4145 46.8835L34.2046 42.3484C34.1972 42.1884 34.0615 42.0647 33.9015 42.0721Z" fill="#1A2C38"/>
</g>
<path d="M34.2 41.5601H31.55C31.3898 41.5601 31.26 41.6899 31.26 41.8501V46.3901C31.26 46.5502 31.3898 46.6801 31.55 46.6801H34.2C34.3602 46.6801 34.49 46.5502 34.49 46.3901V41.8501C34.49 41.6899 34.3602 41.5601 34.2 41.5601Z" fill="white"/>
<path d="M34.07 41.9502H31.69C31.6182 41.9502 31.56 42.0084 31.56 42.0802V46.1702C31.56 46.242 31.6182 46.3002 31.69 46.3002H34.07C34.1418 46.3002 34.2 46.242 34.2 46.1702V42.0802C34.2 42.0084 34.1418 41.9502 34.07 41.9502Z" fill="#FF0A4C"/>
<path d="M31.89 42.4499C31.9673 42.4499 32.03 42.3872 32.03 42.3099C32.03 42.2326 31.9673 42.1699 31.89 42.1699C31.8127 42.1699 31.75 42.2326 31.75 42.3099C31.75 42.3872 31.8127 42.4499 31.89 42.4499Z" fill="white"/>
<path d="M33.87 42.4499C33.9473 42.4499 34.01 42.3872 34.01 42.3099C34.01 42.2326 33.9473 42.1699 33.87 42.1699C33.7927 42.1699 33.73 42.2326 33.73 42.3099C33.73 42.3872 33.7927 42.4499 33.87 42.4499Z" fill="white"/>
<path d="M31.89 46.0798C31.9673 46.0798 32.03 46.0171 32.03 45.9398C32.03 45.8625 31.9673 45.7998 31.89 45.7998C31.8127 45.7998 31.75 45.8625 31.75 45.9398C31.75 46.0171 31.8127 46.0798 31.89 46.0798Z" fill="white"/>
<path d="M33.87 46.0798C33.9473 46.0798 34.01 46.0171 34.01 45.9398C34.01 45.8625 33.9473 45.7998 33.87 45.7998C33.7927 45.7998 33.73 45.8625 33.73 45.9398C33.73 46.0171 33.7927 46.0798 33.87 46.0798Z" fill="white"/>
<path d="M36.5375 42.4108L33.9855 41.6968C33.8312 41.6536 33.6712 41.7437 33.628 41.8979L32.4049 46.27C32.3617 46.4243 32.4518 46.5843 32.606 46.6275L35.158 47.3414C35.3123 47.3846 35.4723 47.2945 35.5154 47.1403L36.7386 42.7682C36.7818 42.6139 36.6917 42.4539 36.5375 42.4108Z" fill="white"/>
<path d="M36.3099 42.7417L34.0179 42.1005C33.9488 42.0811 33.877 42.1215 33.8577 42.1906L32.7557 46.1294C32.7364 46.1985 32.7768 46.2703 32.8459 46.2896L35.1379 46.9308C35.207 46.9502 35.2788 46.9098 35.2981 46.8407L36.4001 42.9019C36.4194 42.8328 36.379 42.761 36.3099 42.7417Z" fill="#FF0A4C"/>
<path d="M34.11 42.6399C34.1873 42.6399 34.25 42.5772 34.25 42.4999C34.25 42.4225 34.1873 42.3599 34.11 42.3599C34.0327 42.3599 33.97 42.4225 33.97 42.4999C33.97 42.5772 34.0327 42.6399 34.11 42.6399Z" fill="white"/>
<path d="M36.02 43.1701C36.0973 43.1701 36.16 43.1075 36.16 43.0301C36.16 42.9528 36.0973 42.8901 36.02 42.8901C35.9427 42.8901 35.88 42.9528 35.88 43.0301C35.88 43.1075 35.9427 43.1701 36.02 43.1701Z" fill="white"/>
<path d="M33.13 46.1301C33.2073 46.1301 33.27 46.0674 33.27 45.9901C33.27 45.9128 33.2073 45.8501 33.13 45.8501C33.0527 45.8501 32.99 45.9128 32.99 45.9901C32.99 46.0674 33.0527 46.1301 33.13 46.1301Z" fill="white"/>
<path d="M35.04 46.6701C35.1173 46.6701 35.18 46.6075 35.18 46.5301C35.18 46.4528 35.1173 46.3901 35.04 46.3901C34.9627 46.3901 34.9 46.4528 34.9 46.5301C34.9 46.6075 34.9627 46.6701 35.04 46.6701Z" fill="white"/>
<path d="M11.33 40.4502C11.33 40.4502 15.08 40.5002 16.34 43.0902C17.6 45.6802 21.13 48.9802 20.42 49.7702C19.71 50.5602 18.14 49.3802 17.44 49.1102C16.74 48.8402 12.65 48.0302 12.65 48.0302L9.46002 44.8402L11.33 40.4602V40.4502Z" fill="#97062D"/>
<path d="M15.15 44.3999C15.15 44.3999 16.42 46.3599 16.67 48.8799L15.72 48.7199L15.16 44.3999H15.15Z" fill="#223745"/>
<path d="M3.14001 52.41C3.14001 52.41 2.65001 51.27 1.72001 50.86V51.55L0.760007 50.71C0.760007 50.71 7.33137e-06 52.52 0.830007 53.26L0.320007 53.51C0.320007 53.51 2.20001 55.58 3.27001 54.12C3.27001 54.12 3.74001 53.67 3.14001 52.41Z" fill="#B24505"/>
<path d="M4.70999 38.4001C4.70999 38.4001 3.57999 42.4301 3.39999 43.9301C3.39999 43.9301 1.77999 54.2301 3.66999 55.4901C5.55999 56.7501 15.92 55.8801 16.49 55.0001C17.06 54.1201 15.4 42.4101 13.85 39.6701L4.69999 38.3901L4.70999 38.4001Z" fill="#B24505"/>
<path d="M8.71001 54.65C8.71001 54.65 8.92001 48.6 11.75 48.31C14.58 48.02 15.14 49.42 15.53 52.92V55.64H8.51001L8.71001 54.65Z" fill="#FF981C"/>
<path d="M3.40997 49.18C3.40997 49.18 5.14997 50.74 5.22997 51.76L8.03997 51L3.40997 47.96V49.19V49.18Z" fill="#97062D"/>
<path d="M12.34 54.7402L13.55 53.2102C13.55 53.2102 14.71 49.4802 16.85 49.8102C18.99 50.1402 21.07 54.0502 21.09 55.1502C21.11 56.2502 18.84 56.1402 16.71 55.8802C14.58 55.6202 12.33 56.7502 12.33 54.7402H12.34Z" fill="#B24505"/>
<path d="M12.37 53.8501L17.73 53.9901C17.73 53.9901 19.15 53.6901 20.64 54.3301L19.88 55.0201H12.42L12.36 53.8501H12.37Z" fill="#97062D"/>
<path d="M9.46002 43.73C12.2214 43.73 14.46 41.4914 14.46 38.73C14.46 35.9686 12.2214 33.73 9.46002 33.73C6.6986 33.73 4.46002 35.9686 4.46002 38.73C4.46002 41.4914 6.6986 43.73 9.46002 43.73Z" fill="#B24505"/>
<path d="M3.91998 41.4598C3.91998 41.4598 7.73998 40.9398 10.38 44.1698L12.77 44.3198C12.77 44.3198 14.04 43.3498 14.69 41.8998L14.39 40.7298L5.33998 37.7998L3.91998 41.4698V41.4598Z" fill="#FF981C"/>
<path d="M6.84003 39.8499C6.84003 39.8499 7.88003 42.4499 11.85 42.3699C15.82 42.2899 14.46 39.6899 14.46 39.6899L6.85003 39.8499H6.84003Z" fill="#1A2C38"/>
<path d="M8.25003 31.4798C8.25003 31.4798 6.72003 29.7798 7.62003 28.9698C8.52003 28.1598 9.06003 26.6398 8.98003 25.6698C8.90003 24.6998 8.16003 24.4398 7.93003 24.7498C7.93003 24.7498 8.24003 26.1898 6.96003 25.8698C5.68003 25.5498 5.65003 20.6098 4.73003 20.5698C3.81003 20.5298 3.78003 20.9898 3.91003 21.6498C4.04003 22.3098 5.25003 24.3698 4.12003 24.6898C2.99003 25.0098 2.21003 23.9298 1.79003 24.2398C1.37003 24.5498 2.23003 27.0098 4.31003 27.9598C6.39003 28.9098 6.96003 31.8198 6.96003 31.8198L8.25003 31.4798Z" fill="#FF981C"/>
<path d="M13.28 32.9598C13.28 32.9598 14.5 31.1498 12.57 29.9398C10.64 28.7298 11.44 30.0198 12.01 32.0698L13.28 32.9598Z" fill="#294659"/>
<path d="M12.18 31.1898C12.18 31.1898 12.24 29.7798 12.03 29.0298C11.82 28.2798 10.95 28.0498 10.9 27.1598C10.9 27.1598 11.97 27.3598 11.35 26.3398C10.73 25.3198 8.96999 23.8098 9.76999 22.8598C9.76999 22.8598 10.75 24.2998 12.25 23.7898C13.75 23.2798 12.9 20.4698 13.65 20.3898C14.4 20.3098 14.73 22.0698 14.5 24.2598C14.27 26.4498 15.3 26.6398 15.04 27.4798C14.78 28.3198 13.29 28.5498 13.2 29.8098C13.11 31.0698 13.16 31.9798 13.16 31.9798L12.08 31.8298L12.17 31.1898H12.18Z" fill="#B24505"/>
<path d="M5.33002 32.4499C5.58002 31.4799 8.29002 30.6499 10.04 30.6999C11.79 30.7499 13.78 31.3499 13.82 32.8599C13.86 34.3699 14.16 38.8299 14.16 38.8299L4.46002 38.7299C4.46002 38.7299 5.04002 33.5699 5.33002 32.4499Z" fill="#FF981C"/>
<path d="M8.25 34.16C8.25 34.16 8.52 35.35 9.8 35.24C11.08 35.13 10.64 34.1 10.64 34.1L10.32 33.21L8.52 33.41L8.25 34.16Z" fill="#97062D"/>
<path d="M12.54 33.21L12.19 34.02C12.19 34.02 12.12 34.93 12.77 35.08C13.42 35.23 13.68 34.68 13.72 34.16L13.58 33.41L12.54 33.21Z" fill="#97062D"/>
<path d="M9.79998 34.85C10.1148 34.85 10.37 34.5948 10.37 34.28C10.37 33.9652 10.1148 33.71 9.79998 33.71C9.48518 33.71 9.22998 33.9652 9.22998 34.28C9.22998 34.5948 9.48518 34.85 9.79998 34.85Z" fill="white"/>
<path d="M12.91 34.7298C13.2248 34.7298 13.48 34.4746 13.48 34.1598C13.48 33.845 13.2248 33.5898 12.91 33.5898C12.5952 33.5898 12.34 33.845 12.34 34.1598C12.34 34.4746 12.5952 34.7298 12.91 34.7298Z" fill="white"/>
<path d="M10.03 34.6899C10.1902 34.6899 10.32 34.56 10.32 34.3999C10.32 34.2397 10.1902 34.1099 10.03 34.1099C9.86983 34.1099 9.73999 34.2397 9.73999 34.3999C9.73999 34.56 9.86983 34.6899 10.03 34.6899Z" fill="#1A2C38"/>
<path d="M12.75 34.6401C12.9102 34.6401 13.04 34.5102 13.04 34.3501C13.04 34.1899 12.9102 34.0601 12.75 34.0601C12.5899 34.0601 12.46 34.1899 12.46 34.3501C12.46 34.5102 12.5899 34.6401 12.75 34.6401Z" fill="#1A2C38"/>
<path d="M9.23999 40.9C9.23999 40.9 11.25 42.21 12.42 41.57C12.42 41.57 13.67 41.96 14.46 40.9C14.46 40.9 12.86 38.54 9.24999 40.9H9.23999Z" fill="#B9D8EB"/>
<path d="M8.61002 40.5501C8.61002 40.5501 8.48002 41.4501 9.17002 41.4401C9.86002 41.4301 12.38 40.9401 12.38 40.9401C12.38 40.9401 14.49 42.0201 14.89 41.0601L14.76 39.4801L12.7 38.3301L8.61002 40.5501Z" fill="#1A2C38"/>
<path d="M15.45 36.9498C15.12 35.3198 13.02 35.6398 13.02 35.6398C11.52 35.3098 9.91003 35.2998 8.70003 35.4398C8.34003 35.5398 7.66003 35.6398 7.48003 35.9698C7.21003 36.4798 6.66003 38.3398 7.60003 40.6498C7.84003 40.7998 8.11003 40.9498 8.37003 41.0498C9.29003 41.4098 12.19 40.6898 12.19 40.6898L12.44 39.0898C12.5 38.6798 12.77 38.8998 12.76 39.0898C12.74 39.2898 12.54 40.7098 12.54 40.7098C13.24 41.3398 14.88 41.0498 14.88 41.0498C14.88 41.0498 15.77 38.5598 15.44 36.9398L15.45 36.9498Z" fill="#B9D8EB"/>
<path d="M10.35 36.6498C10.35 36.6498 11.3 38.0298 12.83 38.1298C14.36 38.2298 14.88 37.0498 14.88 37.0498L14.68 36.1998L11.12 36.0498L10.35 36.6498Z" fill="#1A2C38"/>
<path d="M15.0798 36.3829C15.0996 36.185 13.65 35.8781 11.842 35.6973C10.034 35.5166 8.55224 35.5304 8.53246 35.7282C8.51268 35.926 9.96232 36.233 11.7703 36.4138C13.5783 36.5945 15.06 36.5807 15.0798 36.3829Z" fill="white"/>
<path d="M14.85 40.0601C14.76 40.0601 14.75 39.4001 14.83 38.6201C14.91 37.8401 15.05 37.2001 15.14 37.2101C15.23 37.2201 15.37 37.5901 15.29 38.3701C15.21 39.1501 14.94 40.0701 14.85 40.0601Z" fill="white"/>
<path d="M7.78001 36.0999C7.85001 35.7299 8.34001 35.5399 8.70001 35.4399C7.75001 35.5499 7.03001 35.7599 6.79001 35.9899C6.23001 36.5199 6.52001 39.8199 6.52001 39.8199C6.52001 39.8199 7.00001 40.2599 7.60001 40.6399C7.30001 39.1099 7.67001 36.6399 7.77001 36.0899L7.78001 36.0999Z" fill="#1A2C38"/>
<path d="M11.89 37.6401L13.72 37.7201C13.72 37.7201 13.87 36.3901 14.88 37.0601C14.88 37.0601 15.41 35.8701 14.88 35.4601C14.55 35.2001 11.4 34.1501 10.72 35.0601C10.04 35.9701 10.35 36.6601 10.35 36.6601C10.35 36.6601 12.15 36.6101 11.89 37.6501V37.6401Z" fill="#97062D"/>
<path d="M4.28998 37.4101L4.23998 37.7901C4.21998 37.9101 4.28998 38.0301 4.39998 38.0901C4.84998 38.3201 6.01998 38.8901 6.92998 39.1201L7.04998 37.5301C7.04998 37.5301 5.54998 37.3801 4.63998 37.1601C4.46998 37.1201 4.30998 37.2301 4.28998 37.4001V37.4101Z" fill="#1A2C38"/>
<path d="M8.24999 34.1601C8.24999 34.1601 7.90999 34.1701 7.92999 33.4701C7.94999 32.7701 8.59999 32.7401 9.29999 32.7201C9.99999 32.7001 10.79 32.4801 10.9 33.2301C11.01 33.9801 10.63 34.1001 10.63 34.1001C10.63 34.1001 9.83999 33.8701 8.23999 34.1601H8.24999Z" fill="#B24505"/>
<path d="M12.19 34.0299C12.19 34.0299 11.92 33.7999 12.02 33.2799C12.12 32.7599 12.46 32.4199 13.36 32.7099C14.26 32.9999 14.48 33.8199 13.72 34.1599C13.72 34.1599 12.64 33.7799 12.18 34.0299H12.19Z" fill="#B24505"/>
<path d="M4.40002 37.79C4.40002 37.79 3.51002 40.9 3.40002 43.94C3.40002 43.94 4.53002 40.52 6.02002 38.34L4.40002 37.79Z" fill="#1A2C38"/>
<path d="M15.9329 42.9672L14.0615 43.1461C13.935 43.1582 13.8423 43.2705 13.8544 43.3969L14.2474 47.5082C14.2595 47.6346 14.3718 47.7273 14.4982 47.7153L16.3697 47.5364C16.4961 47.5243 16.5888 47.412 16.5768 47.2855L16.1838 43.1743C16.1717 43.0478 16.0594 42.9551 15.9329 42.9672Z" fill="white"/>
<path d="M15.8667 43.3248L14.1843 43.4856C14.1239 43.4914 14.0795 43.5451 14.0853 43.6056L14.4355 47.2689C14.4412 47.3294 14.4949 47.3737 14.5554 47.3679L16.2377 47.2071C16.2982 47.2013 16.3426 47.1476 16.3368 47.0872L15.9866 43.4239C15.9808 43.3634 15.9271 43.319 15.8667 43.3248Z" fill="#FF0A4C"/>
<path d="M14.3649 43.9251C14.4199 43.9198 14.4589 43.8576 14.4521 43.7862C14.4452 43.7147 14.3951 43.661 14.3401 43.6663C14.2852 43.6715 14.2461 43.7337 14.253 43.8052C14.2598 43.8767 14.3099 43.9303 14.3649 43.9251Z" fill="white"/>
<path d="M15.7951 43.7898C15.85 43.7846 15.8891 43.7224 15.8822 43.6509C15.8754 43.5794 15.8253 43.5258 15.7703 43.531C15.7153 43.5363 15.6763 43.5985 15.6831 43.6699C15.69 43.7414 15.7401 43.7951 15.7951 43.7898Z" fill="white"/>
<path d="M14.6718 47.1712C14.7267 47.1659 14.7658 47.1037 14.7589 47.0323C14.7521 46.9608 14.702 46.9071 14.647 46.9124C14.5921 46.9176 14.553 46.9798 14.5599 47.0513C14.5667 47.1228 14.6168 47.1764 14.6718 47.1712Z" fill="white"/>
<path d="M16.1019 47.0257C16.1569 47.0204 16.196 46.9582 16.1891 46.8867C16.1823 46.8153 16.1322 46.7616 16.0772 46.7669C16.0222 46.7721 15.9832 46.8343 15.99 46.9058C15.9969 46.9772 16.047 47.0309 16.1019 47.0257Z" fill="white"/>
<path d="M17.38 42.77H15.5C15.373 42.77 15.27 42.873 15.27 43V47.13C15.27 47.257 15.373 47.36 15.5 47.36H17.38C17.507 47.36 17.61 47.257 17.61 47.13V43C17.61 42.873 17.507 42.77 17.38 42.77Z" fill="white"/>
<path d="M17.28 43.1099H15.59C15.5292 43.1099 15.48 43.1591 15.48 43.2199V46.8999C15.48 46.9606 15.5292 47.0099 15.59 47.0099H17.28C17.3407 47.0099 17.39 46.9606 17.39 46.8999V43.2199C17.39 43.1591 17.3407 43.1099 17.28 43.1099Z" fill="#FF0A4C"/>
<path d="M15.72 43.5598C15.7752 43.5598 15.82 43.5016 15.82 43.4298C15.82 43.358 15.7752 43.2998 15.72 43.2998C15.6648 43.2998 15.62 43.358 15.62 43.4298C15.62 43.5016 15.6648 43.5598 15.72 43.5598Z" fill="white"/>
<path d="M17.16 43.5598C17.2152 43.5598 17.26 43.5016 17.26 43.4298C17.26 43.358 17.2152 43.2998 17.16 43.2998C17.1048 43.2998 17.06 43.358 17.06 43.4298C17.06 43.5016 17.1048 43.5598 17.16 43.5598Z" fill="white"/>
<path d="M15.72 46.8201C15.7752 46.8201 15.82 46.7619 15.82 46.6901C15.82 46.6183 15.7752 46.5601 15.72 46.5601C15.6648 46.5601 15.62 46.6183 15.62 46.6901C15.62 46.7619 15.6648 46.8201 15.72 46.8201Z" fill="white"/>
<path d="M17.16 46.8201C17.2152 46.8201 17.26 46.7619 17.26 46.6901C17.26 46.6183 17.2152 46.5601 17.16 46.5601C17.1048 46.5601 17.06 46.6183 17.06 46.6901C17.06 46.7619 17.1048 46.8201 17.16 46.8201Z" fill="white"/>
<path d="M18.8068 43.1208L16.9308 42.9975C16.804 42.9892 16.6945 43.0852 16.6862 43.2119L16.4154 47.333C16.407 47.4598 16.503 47.5693 16.6298 47.5776L18.5058 47.7009C18.6325 47.7092 18.742 47.6132 18.7503 47.4865L19.0212 43.3654C19.0295 43.2386 18.9335 43.1291 18.8068 43.1208Z" fill="white"/>
<path d="M18.694 43.4642L17.0076 43.3534C16.947 43.3494 16.8946 43.3953 16.8906 43.456L16.6493 47.128C16.6453 47.1887 16.6912 47.241 16.7518 47.245L18.4382 47.3558C18.4988 47.3598 18.5512 47.3139 18.5552 47.2533L18.7965 43.5812C18.8005 43.5206 18.7546 43.4682 18.694 43.4642Z" fill="#FF0A4C"/>
<path d="M17.2178 43.6876C17.2225 43.616 17.1816 43.5549 17.1265 43.5513C17.0714 43.5477 17.0229 43.6028 17.0182 43.6745C17.0135 43.7461 17.0544 43.8071 17.1095 43.8108C17.1646 43.8144 17.2131 43.7592 17.2178 43.6876Z" fill="white"/>
<path d="M18.6414 43.7867C18.6461 43.7151 18.6052 43.6541 18.5501 43.6504C18.495 43.6468 18.4465 43.702 18.4418 43.7736C18.4371 43.8452 18.478 43.9063 18.5331 43.9099C18.5882 43.9135 18.6367 43.8584 18.6414 43.7867Z" fill="white"/>
<path d="M17.007 46.9303C17.0117 46.8586 16.9709 46.7976 16.9158 46.794C16.8607 46.7904 16.8122 46.8455 16.8075 46.9172C16.8028 46.9888 16.8436 47.0498 16.8987 47.0534C16.9538 47.0571 17.0023 47.0019 17.007 46.9303Z" fill="white"/>
<path d="M18.4306 47.0294C18.4353 46.9577 18.3945 46.8967 18.3394 46.8931C18.2843 46.8895 18.2358 46.9446 18.2311 47.0163C18.2264 47.0879 18.2672 47.1489 18.3223 47.1526C18.3774 47.1562 18.4259 47.101 18.4306 47.0294Z" fill="white"/>
<path d="M17.92 47.8L18.21 46.79H19.14C19.14 46.79 20.11 47.68 20.74 48.44C20.74 48.44 20.75 49.91 20.38 50.09C20.01 50.27 18.06 50.64 18.49 48.65C18.49 48.65 17.92 48.49 17.92 47.79V47.8Z" fill="#B24505"/>
<path d="M16.5 46.8601L17.92 47.8101C17.92 47.8101 19.11 47.3101 19.14 46.8001L18.05 45.3901L17.1 45.8801L17.71 46.7301L16.81 46.4301L16.49 46.8701L16.5 46.8601Z" fill="#1A2C38"/>
<path d="M13.23 54.3501C13.23 54.3501 12.31 51.2501 7.11999 51.0001C1.92999 50.7501 1.22999 56.8701 4.45999 57.1601C7.38999 57.4201 9.37999 56.8701 10.64 57.0701C10.91 57.1201 11.19 57.1001 11.46 57.0301C12.4 56.7901 14.57 56.2801 15.92 56.4201C17.68 56.6001 17.82 56.0001 17.82 56.0001L18.51 55.1601L18.04 54.3801L13.24 54.3401L13.23 54.3501Z" fill="#B24505"/>
<path d="M8.51001 52.1199C8.51001 52.1199 8.59001 53.1699 9.31001 53.1699C10.03 53.1699 10.55 53.0099 10.58 52.4099C10.58 52.4099 11.59 51.2299 12.02 50.0299C12.45 48.8299 13.49 48.1299 13.49 48.1299C13.49 48.1299 13.4 47.9599 12.61 47.8999C12.61 47.8999 8.90001 50.1199 8.52001 52.1299L8.51001 52.1199Z" fill="#97062D"/>
<path d="M9.48003 52.4401C11.21 51.7501 8.33003 43.8401 5.64003 42.9301C2.95003 42.0201 1.94003 47.4601 2.98003 48.8801C4.02003 50.3001 7.22003 51.2101 7.72003 51.8601C8.22003 52.5101 9.07003 52.6001 9.48003 52.4401Z" fill="#B24505"/>
<path d="M14.42 47.2802L14.83 46.7202L14.46 46.2402C14.46 46.2402 13.8 46.5602 13.2 47.1102L12.76 48.0402L13.58 48.4902L15.02 47.8402L15 47.2002L14.43 47.3002L14.42 47.2802Z" fill="#1A2C38"/>
<path d="M7.96001 51.5101C7.96001 51.5101 7.85001 52.5601 8.56001 52.6901C9.27001 52.8201 9.80001 52.7601 9.94001 52.1801C9.94001 52.1801 11.15 51.2101 11.79 50.1001C12.43 48.9901 13.59 48.5001 13.59 48.5001C13.59 48.5001 13.98 47.3401 13.21 47.1201C13.21 47.1201 8.71001 49.6101 7.97001 51.5201L7.96001 51.5101Z" fill="#B24505"/>
<path d="M19.98 55.4402L20.51 55.3802C20.51 55.3802 20.85 54.9902 20.64 54.3302C20.64 54.3302 19.31 54.1002 18.04 54.3902C18.04 54.3902 17.2 55.6402 17.82 56.2502C18.44 56.8602 20.25 56.3302 20.25 56.3302L20.38 55.8602L19.98 55.4402Z" fill="#1A2C38"/>
<path d="M2.66998 30.7001L2.75998 30.1401C2.75998 30.1401 4.52998 30.8801 5.32998 30.9201C6.12998 30.9601 6.89998 31.4401 6.95998 31.8301C7.01998 32.2201 5.63998 34.1101 5.63998 34.1101C5.63998 34.1101 4.51998 34.0501 4.07998 32.8801C3.63998 31.7101 3.08998 31.0301 2.66998 30.7101V30.7001Z" fill="#FF981C"/>
<path d="M4.58002 31.77C4.58002 31.77 4.97002 32.87 5.64002 33.29L6.34002 32.27C6.34002 32.27 5.32002 32.12 4.58002 31.77Z" fill="#97062D"/>
<path d="M9.21998 31.1602C9.21998 31.1602 10.77 31.1302 11.35 30.2502H10.31C10.31 30.2502 10.72 29.7602 10.81 28.9702L10.27 29.4902C10.27 29.4902 7.94998 30.4402 9.20998 31.1602H9.21998Z" fill="#FF981C"/>
<path d="M11.75 42.8299C11.75 42.8299 11.06 42.0599 10.29 42.5399C9.52 43.0199 8.84 45.0299 9.84 46.4999L10.54 45.5899C10.54 45.5899 10.66 46.9299 11.37 47.4099C11.37 47.4099 12.49 46.7199 12.73 45.9799L13.24 46.4699C13.24 46.4699 14.05 43.7299 13.32 42.8299C12.59 41.9299 11.74 42.8299 11.74 42.8299H11.75Z" fill="#FF981C"/>
<path d="M14.4838 35.5777C14.5098 35.4309 13.8475 35.191 13.0045 35.0419C12.1616 34.8928 11.4572 34.891 11.4312 35.0378C11.4052 35.1847 12.0675 35.4246 12.9105 35.5737C13.7534 35.7228 14.4578 35.7246 14.4838 35.5777Z" fill="#FF0A4C"/>
<path d="M11.6992 43.4546C11.7944 43.2013 11.5573 42.8778 11.1696 42.732C10.7819 42.5862 10.3904 42.6733 10.2952 42.9266C10.1999 43.1799 10.437 43.5035 10.8247 43.6493C11.2124 43.7951 11.6039 43.7079 11.6992 43.4546Z" fill="#F7BB2E"/>
<path d="M13.2647 43.8323C13.4034 43.7522 13.3905 43.4701 13.2358 43.2023C13.0812 42.9345 12.8434 42.7822 12.7047 42.8623C12.566 42.9424 12.5789 43.2245 12.7336 43.4923C12.8882 43.7601 13.126 43.9124 13.2647 43.8323Z" fill="#F7BB2E"/>
<path d="M33.1411 31.5807C33.1571 31.4769 32.9443 31.3581 32.6659 31.3153C32.3875 31.2724 32.1489 31.3218 32.133 31.4255C32.117 31.5292 32.3297 31.648 32.6081 31.6909C32.8865 31.7337 33.1251 31.6844 33.1411 31.5807Z" fill="white"/>
<path d="M31.41 33.7358C32.1803 33.538 32.7546 33.1825 32.6928 32.9418C32.631 32.7011 31.9564 32.6663 31.1861 32.8641C30.4158 33.0618 29.8415 33.4173 29.9033 33.658C29.9651 33.8988 30.6397 33.9336 31.41 33.7358Z" fill="#B9D8EB"/>
<path d="M35.0994 33.6583C35.1612 33.4176 34.5869 33.0621 33.8166 32.8643C33.0463 32.6665 32.3717 32.7013 32.3099 32.9421C32.2481 33.1828 32.8225 33.5383 33.5928 33.736C34.3631 33.9338 35.0376 33.899 35.0994 33.6583Z" fill="#B9D8EB"/>
<path d="M43.67 48.8799H21.55V58.1799H43.67V48.8799Z" fill="#3D5B6E"/>
<path d="M19.62 47.08V49.64C19.62 49.64 19.59 50.49 20.9 50.49H22.59V45.52H19.62V47.08Z" fill="#223745"/>
<path d="M43.68 51.69H21.55V49.54H43.69L43.68 51.69Z" fill="#1A2C38"/>
<path d="M44.47 44.7798H20.76C20.3845 44.7798 20.08 45.0842 20.08 45.4598V49.2698C20.08 49.6453 20.3845 49.9498 20.76 49.9498H44.47C44.8456 49.9498 45.15 49.6453 45.15 49.2698V45.4598C45.15 45.0842 44.8456 44.7798 44.47 44.7798Z" fill="#3D5B6E"/>
<path d="M20.9 47.88C20.9 47.88 21.55 49.32 23.47 48.69C23.47 48.69 24.42 50.62 41.91 48.32L36.86 46.96L20.91 47.88H20.9Z" fill="#1A2C38"/>
<path d="M41.67 44.65H38.46C38.39 44.65 38.33 44.59 38.33 44.52V43.74C38.33 43.67 41.37 43.52 41.44 43.52L41.68 43.59C41.76 43.62 41.8 43.66 41.8 43.74V44.52C41.8 44.59 41.74 44.65 41.67 44.65Z" fill="#3D5B6E"/>
<path d="M41.4 43.5H38.19C38.1182 43.5 38.06 43.5582 38.06 43.63V44.42C38.06 44.4918 38.1182 44.55 38.19 44.55H41.4C41.4718 44.55 41.53 44.4918 41.53 44.42V43.63C41.53 43.5582 41.4718 43.5 41.4 43.5Z" fill="#B9D8EB"/>
<path d="M20.08 47.0901C20.08 47.0901 19.43 46.3701 19.59 45.3501C19.75 44.3301 23.42 44.2301 25.82 44.6901C25.82 44.6901 33.05 43.7701 39.6 44.5401C39.6 44.5401 43.94 43.7701 45.15 44.7701C46.07 45.5301 45.59 47.0601 45.31 47.7601C45.22 47.9901 45 48.1001 44.79 48.2101C43.87 48.7101 42.17 48.9001 41.05 48.3201C39.67 47.6001 25.31 49.8501 23.47 48.2201C23.47 48.2201 20.83 49.1901 20.08 47.1001V47.0901Z" fill="white"/>
<path d="M38.64 46.7498C38.64 47.2798 31.6 48.3098 28.2 48.3098C24.8 48.3098 24.34 47.4198 24.34 46.8898C24.34 46.3598 28.41 45.5898 31.82 45.5898C35.23 45.5898 38.64 46.2198 38.64 46.7498Z" fill="#B9D8EB"/>
<path d="M41.71 47.7998C41.3 47.2498 43.83 45.2898 44.69 45.7898C45.55 46.2898 44.92 47.5298 44.5 47.7998C44.08 48.0698 42 48.1798 41.71 47.7998Z" fill="#B9D8EB"/>
<path d="M54.62 54.3298C54.62 54.3298 55.05 55.3598 54.56 55.9798C54.07 56.5998 52.51 55.6698 51.77 55.9798C50.94 56.3298 48.57 56.7498 48.45 55.0498C48.42 54.6898 48.73 54.3898 49.09 54.4098C49.55 54.4298 50.3 54.3498 51.43 53.9198L52.65 53.5698L54.62 54.3398V54.3298Z" fill="#97062D"/>
<path d="M50.97 54.9299C50.97 54.9299 52.53 55.5299 52.81 55.7099C53.09 55.8899 53.66 56.1499 54.3 56.1599C54.3 56.1599 54.51 56.1299 54.64 55.8699C54.64 55.8699 51.73 54.8099 50.97 54.9299Z" fill="#1A2C38"/>
<path d="M55.94 53.1102C55.94 53.1102 54.42 52.4202 52.58 52.3002C50.74 52.1802 49.36 52.5202 49.35 53.1702C49.34 53.8202 50.39 54.4002 50.39 54.4002L55.94 53.9002V53.1202V53.1102Z" fill="#97062D"/>
<path d="M57.46 53.3198C57.46 53.3198 54.92 52.9198 51.95 53.2398C49.82 53.4698 49.42 53.5598 49.55 54.3498C49.62 54.7798 51.19 54.9298 53.51 55.6698C55.65 56.3498 58.12 55.7098 58.12 55.7098L57.46 53.3198Z" fill="#FF7F00"/>
<path d="M54.91 53.3398C54.91 53.3398 55.87 55.0698 55.88 56.0898L57.89 56.2298L55.94 53.5298L54.9 53.3398H54.91Z" fill="#1A2C38"/>
<path d="M54.64 51.77C54.64 51.77 54.47 52.47 54.74 52.95C55.01 53.43 56.2 54.63 56.73 55.75C57.53 57.44 64.59 56.29 59.23 53.37C59.23 53.37 55.86 51.1 54.64 51.76V51.77Z" fill="#64C46A"/>
<path d="M50.92 47.7901C50.92 47.7901 55.56 47.9801 56.6 46.3701L56.74 47.7401C56.74 47.7401 55.26 49.5401 50.86 48.5101L50.91 47.7901H50.92Z" fill="#198749"/>
<path d="M57.91 44.54C59.03 44.6 61.02 46.55 59.24 53.37C59.24 53.37 58.53 53.45 54.65 51.76C54.65 51.76 55.25 49.18 55.25 48.13C55.25 47.08 55.67 44.4 57.91 44.53V44.54Z" fill="#64C46A"/>
<path d="M55.61 45.9699C55.61 45.9699 55.23 46.7199 55.26 47.7599L56.25 47.1599L56.78 48.0099L57.91 46.7799L58.83 47.6599L58.78 45.8999L59.48 45.9899C59.48 45.9899 59.36 45.5499 59.06 45.3599L55.59 45.9699H55.61Z" fill="#1A2C38"/>
<path d="M54.92 50.4801C54.92 50.4801 56.87 50.3001 57.71 48.8501L55.04 49.7901L54.92 50.4801Z" fill="#1A2C38"/>
<path d="M55.61 46.3702L54.55 47.2802L56.13 46.9202L56.4 47.8902L57.85 46.6102L58.89 47.1302V45.5802L60.18 45.7202L58.97 44.9202L59.29 44.7702L58.44 44.5702V44.2202L57.53 44.5702L55.49 44.8902L55.74 45.4002L54.55 45.8602L55.61 46.3702Z" fill="#FF0A4C"/>
<path d="M57.4126 46.0421C58.0791 45.7751 58.5295 45.3343 58.4186 45.0574C58.3077 44.7806 57.6775 44.7726 57.011 45.0395C56.3445 45.3065 55.8941 45.7474 56.005 46.0242C56.1159 46.3011 56.7461 46.3091 57.4126 46.0421Z" fill="#1A2C38"/>
<path d="M55.76 44.9299C55.76 44.9299 56.47 45.1699 56.58 45.9899C57.12 45.9899 57.64 45.7999 58.04 45.1999L57.88 43.3599L55.76 44.9299Z" fill="#FF9D85"/>
<path d="M56.44 45.55C56.44 45.55 57.32 44.96 57.52 44.29L55.94 45.01C55.94 45.01 56.3 45.3 56.44 45.54V45.55Z" fill="#1A2C38"/>
<path d="M55.36 40.0102L51.71 40.4202C51.71 40.4202 52.52 43.8702 50.23 43.4302C50.23 43.4302 51.03 44.9602 52.42 44.3402C52.42 44.3402 55.6 46.6502 57.87 43.9102C59.94 41.4202 58.44 38.9102 58.44 38.9102L55.35 40.0002L55.36 40.0102Z" fill="#FF9D85"/>
<path d="M50.77 39.66C50.77 39.66 50.02 39.31 50.12 39.95C50.22 40.59 50.83 41.57 51.63 40.64L50.77 39.66Z" fill="#FF0A4C"/>
<path d="M58.56 39.1299C58.56 39.1299 58.96 39.3599 59.02 39.8799L58.02 41.2399L57.19 39.2799L58.56 39.1299Z" fill="#FF7F00"/>
<path d="M59.41 41.0499C58.87 41.3699 58.27 41.3699 58.07 41.0499C57.87 40.7299 58.16 40.1999 58.7 39.8799C59.24 39.5599 61.8 39.4299 61.99 39.7599C62.18 40.0899 59.94 40.7399 59.4 41.0599L59.41 41.0499Z" fill="#FF9D85"/>
<path d="M56.42 39.7402C56.42 39.7402 57.56 41.2802 56.95 42.7602C56.95 42.7602 57.47 42.1402 57.55 41.5602C57.55 41.5602 57.97 42.4002 57.82 42.9302C57.82 42.9302 58.75 41.1902 58.21 39.9802L57.78 39.2002L56.42 39.7302V39.7402Z" fill="#FF7F00"/>
<path d="M51.61 40.5698C51.61 40.5698 50.34 41.9198 49.51 41.8598C49.51 41.8598 51.03 43.3798 53.63 40.2798L51.61 40.5698Z" fill="#FF7F00"/>
<path d="M49.51 41.8602C49.51 41.8602 50.76 42.3502 51.98 41.1202L51.59 40.4102C51.59 40.4102 50.6 41.7002 49.52 41.8602H49.51Z" fill="#FFC200"/>
<path d="M60.52 29.5498H60.13C60.13 29.5498 60.35 30.1898 60.13 31.0298C60.4 31.1998 60.68 30.9798 60.81 30.6998C60.77 29.9398 60.52 29.5498 60.52 29.5498Z" fill="#1A2C38"/>
<path d="M60.13 31.0302C59.86 32.0702 58.9 33.3902 56 34.1102C50.76 35.4102 51.38 40.3402 51.59 40.3302C56.04 40.1002 58.42 38.6802 58.42 38.6802C58.42 38.6802 57.8 37.5802 59.73 34.3102C60.67 32.7202 60.85 31.5002 60.81 30.7002C60.57 30.8602 60.33 30.9602 60.13 31.0302Z" fill="#64C46A"/>
<path d="M52.38 39.75C52.38 39.75 52.31 36.03 55.3 35.1C58.29 34.17 60.32 32.4 60.39 31.48C60.39 31.48 60.45 32.99 58.48 35.05C56.51 37.11 57.57 38.72 57.57 38.72C57.57 38.72 53.98 40.19 52.39 39.75H52.38Z" fill="#198749"/>
<path d="M60.2 30.3898C61.1334 30.3898 61.89 29.6331 61.89 28.6998C61.89 27.7664 61.1334 27.0098 60.2 27.0098C59.2667 27.0098 58.51 27.7664 58.51 28.6998C58.51 29.6331 59.2667 30.3898 60.2 30.3898Z" fill="#FF7F00"/>
<path d="M60.4986 29.1978C61.0776 28.8533 61.3135 28.1815 61.0255 27.6974C60.7375 27.2133 60.0346 27.1001 59.4555 27.4446C58.8765 27.7891 58.6405 28.4608 58.9286 28.945C59.2166 29.4291 59.9195 29.5423 60.4986 29.1978Z" fill="#FFC200"/>
<path d="M51.7 37.8702C51.7 37.8702 54.68 35.9902 58.38 37.5602L58.45 37.2202C58.45 37.2202 55.74 35.3002 52.19 36.7502C52.19 36.7502 51.82 37.4002 51.7 37.8802V37.8702Z" fill="#FF0A4C"/>
<path d="M54.86 34.4802C54.86 34.4802 57.51 34.2002 59 35.6902L59.21 35.2602C59.21 35.2602 57.8 33.8802 56.15 34.0702C56.15 34.0702 55.38 34.2402 54.86 34.4802Z" fill="#FF0A4C"/>
<path d="M58.98 32.7399C58.98 32.7399 59.76 32.7399 60.06 33.6999C60.06 33.6999 60.25 33.3399 60.28 33.2199C60.28 33.2199 60.06 32.2099 59.52 32.1899C59.52 32.1899 59.18 32.5699 58.97 32.7399H58.98Z" fill="#FF0A4C"/>
<mask id="mask2_26835_29175" style="mask-type:luminance" maskUnits="userSpaceOnUse" x="52" y="31" width="9" height="9">
<path d="M52.38 39.75C52.38 39.75 52.31 36.03 55.3 35.1C58.29 34.17 60.32 32.4 60.39 31.48C60.39 31.48 60.45 32.99 58.48 35.05C56.51 37.11 57.57 38.72 57.57 38.72C57.57 38.72 53.98 40.19 52.39 39.75H52.38Z" fill="white"/>
</mask>
<g mask="url(#mask2_26835_29175)">
<path d="M51.7 37.8697C51.7 37.8697 54.68 35.9897 58.38 37.5597L58.45 37.2197C58.45 37.2197 55.74 35.2997 52.19 36.7497C52.19 36.7497 51.82 37.3997 51.7 37.8797V37.8697Z" fill="#97062D"/>
<path d="M54.86 34.4797C54.86 34.4797 57.51 34.1997 59 35.6897L59.21 35.2597C59.21 35.2597 57.8 33.8797 56.15 34.0697C56.15 34.0697 55.38 34.2397 54.86 34.4797Z" fill="#97062D"/>
<path d="M58.98 32.7399C58.98 32.7399 59.76 32.7399 60.06 33.6999C60.06 33.6999 60.25 33.3399 60.28 33.2199C60.28 33.2199 60.06 32.2099 59.52 32.1899C59.52 32.1899 59.18 32.5699 58.97 32.7399H58.98Z" fill="#97062D"/>
</g>
<path d="M52.13 40.1999C52.13 40.1999 50.81 38.7999 50.47 39.1999C50.13 39.5999 50.69 40.6399 51.62 40.6499C51.62 40.6499 56.25 40.1999 58.77 39.1899C58.77 39.1899 59.29 38.9399 59.29 37.8899C59.29 36.8399 58.28 37.8999 58.28 37.8999C58.28 37.8999 57.61 36.7599 56.7 38.6199C56.7 38.6199 56.3 37.6999 55.61 38.0299C54.92 38.3599 55.06 39.1499 55.06 39.1499C55.06 39.1499 54.82 38.4599 54.3 38.2899C53.78 38.1199 53.46 39.1099 53.5 39.5499C53.5 39.5499 52.86 38.7999 52.36 38.7699C51.86 38.7399 51.58 39.5999 52.13 40.2199V40.1999Z" fill="#97062D"/>
<path d="M54.93 40.8999L53.33 41.0599C52.9 41.4599 52.85 41.7799 53.3 42.0599C53.75 42.3399 54.47 42.2399 54.9 41.8399C55.33 41.4399 55.38 41.1799 54.93 40.9099V40.8999Z" fill="white"/>
<mask id="mask3_26835_29175" style="mask-type:luminance" maskUnits="userSpaceOnUse" x="52" y="40" width="4" height="3">
<path d="M54.93 40.8999L53.33 41.0599C52.9 41.4599 52.85 41.7799 53.3 42.0599C53.75 42.3399 54.47 42.2399 54.9 41.8399C55.33 41.4399 55.38 41.1799 54.93 40.9099V40.8999Z" fill="white"/>
</mask>
<g mask="url(#mask3_26835_29175)">
<path d="M53.38 42.2501L53.75 42.2701C53.75 42.2701 53.69 41.7801 53.48 41.7501C53.27 41.7301 53.37 42.2501 53.37 42.2501H53.38Z" fill="#1A2C38"/>
</g>
<path d="M53.61 44.5598L53.52 44.3898C53.52 44.3898 53.77 44.1598 54.3 44.0898L54.32 44.2898C53.87 44.3798 53.61 44.5598 53.61 44.5598Z" fill="#1A2C38"/>
<path d="M54.87 40.6399C54.4 40.3099 53.69 40.4099 53.26 40.8399C53.02 41.0899 52.93 41.3899 52.98 41.6699C53.68 41.7199 54.88 41.5299 55.24 41.3299C55.24 40.9799 55 40.7399 54.86 40.6499L54.87 40.6399Z" fill="#FF0A4C"/>
<path d="M50.23 43.4298C50.23 43.4298 52.24 44.4298 51.8 42.2598C51.8 42.2598 51.51 43.6298 50.23 43.4298Z" fill="white"/>
<path d="M61.89 39.7798C61.89 39.8898 61.49 39.8098 60.79 39.8398C60.09 39.8698 59.97 39.9498 59.95 39.9098C59.9 39.8098 59.91 39.6698 60.61 39.6398C61.31 39.6098 61.89 39.6798 61.89 39.7898V39.7798Z" fill="white"/>
<path d="M50.31 47.5109L51.0233 47.221C51.1205 47.1814 51.1673 47.0706 51.1278 46.9734L49.4748 42.9065C49.4352 42.8093 49.3244 42.7625 49.2272 42.802L48.5139 43.092C48.4167 43.1315 48.3699 43.2423 48.4094 43.3395L50.0624 47.4064C50.102 47.5036 50.2128 47.5504 50.31 47.5109Z" fill="white"/>
<path d="M50.1652 47.1813L50.8878 46.8875C50.9287 46.8709 50.9484 46.8242 50.9318 46.7833L49.4633 43.1704C49.4466 43.1294 49.3999 43.1097 49.359 43.1264L48.6364 43.4201C48.5955 43.4367 48.5758 43.4834 48.5924 43.5243L50.061 47.1373C50.0776 47.1782 50.1243 47.1979 50.1652 47.1813Z" fill="#FF0A4C"/>
<path d="M49.5096 43.5682C49.5352 43.5578 49.534 43.4955 49.5069 43.429C49.4799 43.3625 49.4373 43.317 49.4117 43.3274C49.3861 43.3378 49.3873 43.4001 49.4143 43.4666C49.4413 43.5331 49.484 43.5786 49.5096 43.5682Z" fill="white"/>
<path d="M48.8498 43.8368C48.8754 43.8264 48.8742 43.764 48.8472 43.6975C48.8201 43.631 48.7775 43.5855 48.7519 43.5959C48.7263 43.6063 48.7275 43.6687 48.7545 43.7352C48.7816 43.8017 48.8242 43.8472 48.8498 43.8368Z" fill="white"/>
<path d="M50.7747 46.6996C50.8002 46.6892 50.7991 46.6268 50.772 46.5603C50.745 46.4938 50.7023 46.4483 50.6768 46.4587C50.6512 46.4691 50.6523 46.5315 50.6794 46.598C50.7064 46.6645 50.7491 46.71 50.7747 46.6996Z" fill="white"/>
<path d="M50.1342 46.9647C50.1598 46.9543 50.1586 46.892 50.1316 46.8254C50.1045 46.7589 50.0619 46.7134 50.0363 46.7238C50.0107 46.7342 50.0119 46.7966 50.0389 46.8631C50.066 46.9296 50.1086 46.9751 50.1342 46.9647Z" fill="white"/>
<path d="M49.9744 47.3038L50.5933 46.9358C50.6787 46.8849 50.7068 46.7745 50.656 46.689L48.4018 42.8987C48.351 42.8132 48.2406 42.7851 48.1551 42.836L47.5363 43.204C47.4508 43.2548 47.4228 43.3653 47.4736 43.4507L49.7277 47.2411C49.7785 47.3265 49.889 47.3546 49.9744 47.3038Z" fill="white"/>
<path d="M49.7904 46.9944L50.4093 46.6263C50.4472 46.6038 50.4597 46.5547 50.4371 46.5167L48.4437 43.1647C48.4211 43.1267 48.372 43.1142 48.334 43.1368L47.7152 43.5048C47.6772 43.5274 47.6647 43.5765 47.6873 43.6145L49.6808 46.9665C49.7034 47.0045 49.7525 47.0169 49.7904 46.9944Z" fill="#FF0A4C"/>
<path d="M48.5526 43.5617C48.5763 43.5476 48.5658 43.4861 48.5291 43.4244C48.4924 43.3627 48.4434 43.3241 48.4197 43.3382C48.396 43.3523 48.4065 43.4138 48.4432 43.4755C48.4799 43.5372 48.5289 43.5758 48.5526 43.5617Z" fill="white"/>
<path d="M47.9864 43.9049C48.0102 43.8908 47.9996 43.8294 47.9629 43.7677C47.9262 43.7059 47.8773 43.6674 47.8535 43.6815C47.8298 43.6956 47.8403 43.7571 47.877 43.8188C47.9137 43.8805 47.9627 43.9191 47.9864 43.9049Z" fill="white"/>
<path d="M50.2869 46.4684C50.3106 46.4543 50.3001 46.3928 50.2634 46.3311C50.2267 46.2694 50.1777 46.2308 50.154 46.2449C50.1303 46.2591 50.1408 46.3205 50.1775 46.3822C50.2142 46.444 50.2632 46.4825 50.2869 46.4684Z" fill="white"/>
<path d="M49.7208 46.8122C49.7445 46.7981 49.734 46.7366 49.6973 46.6749C49.6606 46.6132 49.6116 46.5746 49.5879 46.5887C49.5642 46.6028 49.5747 46.6643 49.6114 46.726C49.6481 46.7877 49.6971 46.8263 49.7208 46.8122Z" fill="white"/>
<path d="M50.3937 47.472L50.7658 47.1532C50.8288 47.0994 50.8361 47.0047 50.7822 46.9417L47.8744 43.5468C47.8205 43.4839 47.7258 43.4765 47.6629 43.5304L47.2908 43.8492C47.2278 43.9031 47.2205 43.9978 47.2744 44.0607L50.1822 47.4556C50.2361 47.5186 50.3308 47.5259 50.3937 47.472Z" fill="white"/>
<path d="M50.1443 47.2118L50.5316 46.88C50.561 46.8549 50.5644 46.8107 50.5392 46.7813L47.9892 43.8041C47.9641 43.7747 47.9199 43.7713 47.8905 43.7964L47.5032 44.1282C47.4738 44.1534 47.4704 44.1975 47.4956 44.2269L50.0456 47.2041C50.0707 47.2335 50.1149 47.2369 50.1443 47.2118Z" fill="#FF0A4C"/>
<path d="M48.1879 44.1628C48.2005 44.152 48.1728 44.0991 48.1261 44.0446C48.0794 43.99 48.0313 43.9546 48.0188 43.9653C48.0062 43.9761 48.0338 44.0291 48.0805 44.0836C48.1272 44.1381 48.1753 44.1736 48.1879 44.1628Z" fill="white"/>
<path d="M47.8085 44.4787C47.8211 44.468 47.7934 44.415 47.7467 44.3605C47.7 44.306 47.6519 44.2705 47.6394 44.2813C47.6268 44.292 47.6544 44.345 47.7011 44.3995C47.7478 44.454 47.7959 44.4895 47.8085 44.4787Z" fill="white"/>
<path d="M50.3906 46.7336C50.4032 46.7228 50.3755 46.6699 50.3288 46.6154C50.2821 46.5608 50.234 46.5254 50.2215 46.5361C50.2089 46.5469 50.2365 46.5999 50.2832 46.6544C50.3299 46.7089 50.378 46.7444 50.3906 46.7336Z" fill="white"/>
<path d="M50.0113 47.0495C50.0238 47.0388 49.9962 46.9858 49.9495 46.9313C49.9028 46.8768 49.8547 46.8413 49.8421 46.8521C49.8295 46.8628 49.8572 46.9158 49.9039 46.9703C49.9506 47.0248 49.9987 47.0603 50.0113 47.0495Z" fill="white"/>
<path d="M48.08 46.31C48.04 46.17 48.11 46.02 48.24 45.96C48.48 45.86 48.85 45.75 49.05 45.92C49.36 46.18 49.6 47.21 49.38 47.48C49.16 47.75 48.55 47.81 48.08 46.31Z" fill="#FF0A4C"/>
<path d="M48.69 46.3901C48.69 46.3901 48.45 46.5501 48.58 46.8301C48.71 47.1101 48.88 47.2701 48.93 47.4901C48.98 47.7101 49.19 47.6001 49.46 47.6601L48.69 46.3901Z" fill="#1A2C38"/>
<path d="M54.83 50.2099C53.49 50.4099 52.2 50.0599 51.04 49.1699L51.86 48.1099C53.06 49.0299 54.39 49.1699 55.81 48.5299C56.95 48.0199 57.73 47.1799 57.74 47.1699L58.73 48.0799C58.73 48.0799 57.78 49.0999 56.41 49.7299C55.88 49.9699 55.35 50.1299 54.83 50.2099Z" fill="#64C46A"/>
<path d="M50.66 48.8399C50.66 48.8399 51.16 48.9399 51.49 48.6899L52 47.8999L51.8 47.6399C51.8 47.6399 52.17 46.3799 51.35 45.9999C51.19 45.9299 50.63 45.4699 50.56 45.5799L50.91 46.4499C50.91 46.4499 48.91 46.0199 48.59 46.2199C48.16 46.4799 49.06 46.7499 49.05 47.5299C49.05 47.9999 50.66 48.8499 50.66 48.8499V48.8399Z" fill="#97062D"/>
<path d="M51.58 47.9402C51.58 47.9402 50.76 48.5902 50.42 48.7102C50.42 48.7102 50.55 48.8102 50.66 48.8402C50.66 48.8402 51.46 48.1902 51.58 47.9302V47.9402Z" fill="#1A2C38"/>
<path d="M51.8 47.6401C51.8 47.6401 51.15 48.5601 50.66 48.8401C50.66 48.8401 50.91 49.9601 51.34 49.8001C51.77 49.6401 51.37 48.9601 51.37 48.9601C51.37 48.9601 51.79 49.4701 51.98 49.2601C52.17 49.0501 51.76 48.5901 51.76 48.5901C51.76 48.5901 52.54 48.7401 52.6 48.2501C52.66 47.7601 51.79 47.6401 51.79 47.6401H51.8Z" fill="#97062D"/>
<path d="M52.4446 48.2102C52.5003 48.0838 52.3978 47.9165 52.2159 47.8364C52.0339 47.7562 51.8413 47.7937 51.7857 47.9201C51.73 48.0465 51.8325 48.2139 52.0144 48.294C52.1964 48.3741 52.389 48.3366 52.4446 48.2102Z" fill="#FF0A4C"/>
<path d="M50.61 46.9302C50.59 47.0402 50.57 47.1102 49.91 46.9602C49.25 46.8102 48.87 46.6202 48.9 46.5102C48.93 46.4002 49.34 46.4202 50 46.5702C50.66 46.7202 50.64 46.8302 50.61 46.9402V46.9302Z" fill="#FF0A4C"/>
<path d="M59.94 48.8398C59.94 48.8398 58.87 54.4198 54.78 51.1098C54.78 51.1098 54.25 52.3198 54.8 53.0598C55.35 53.7998 58.66 54.3298 59.22 53.3698C59.22 53.3698 59.97 50.7898 59.93 48.8398H59.94Z" fill="#198749"/>
<path d="M54.3 52.4399C54.3 52.4399 54.19 52.8599 55.61 54.1199C55.61 54.1199 61.48 55.8699 59.22 53.3799L54.29 52.4399H54.3Z" fill="#198749"/>
<path d="M55.17 52.21C55.17 52.21 56.72 53 59.37 52.84C59.37 52.84 59.5 53.2 59.23 53.37C59.23 53.37 57.47 53.89 55 52.82L55.17 52.21Z" fill="#97062D"/>
<path d="M54.6 51.66H54.55C54.47 51.62 54.38 51.66 54.35 51.75C54.29 51.89 54.21 52.13 54.2 52.36C54.2 52.44 54.23 52.52 54.29 52.57C54.39 52.67 54.61 52.81 55.03 52.96H55.24C55.24 52.96 55.28 52.54 55.41 52.17C55.43 52.1 55.4 52.03 55.33 52.01C55.15 51.95 54.83 51.83 54.69 51.71C54.67 51.69 54.64 51.68 54.61 51.67L54.6 51.66Z" fill="#FF7F00"/>
<path d="M54.41 51.8101C54.41 51.8101 54.29 52.2101 54.3 52.4401C54.3 52.4401 54.55 52.6401 54.96 52.7701L55.13 52.1201L54.41 51.8101Z" fill="#FFC200"/>
<path d="M49.83 54.0298C49.72 53.5398 53.13 53.4198 53.51 53.4998C53.89 53.5798 54.75 54.2998 54.54 54.6098C54.33 54.9198 49.98 54.7198 49.83 54.0298Z" fill="#FFC200"/>
<path d="M13.25 32.2198C13.2 32.3298 12.7 32.2198 12.15 31.9498C11.6 31.6798 11.19 31.3798 11.24 31.2698C11.29 31.1598 11.84 31.1998 12.39 31.4598C12.94 31.7198 13.3 32.1098 13.25 32.2198Z" fill="#F7BB2E"/>
<path d="M3.97997 44.8999C3.97997 44.8999 3.02997 45.4399 2.57997 47.2599C2.57997 47.2599 2.36997 44.3299 4.15997 43.0999C5.94997 41.8699 8.03997 45.3299 8.03997 45.3299C8.03997 45.3299 7.15997 44.7799 6.40997 44.6299C6.40997 44.6299 6.07997 45.3299 6.10997 46.2299L5.07997 45.0399L4.71997 45.9899C4.71997 45.9899 3.76997 45.5599 3.98997 44.8899L3.97997 44.8999Z" fill="#FF981C"/>
<path d="M38.06 43.7598L38.6 43.8198L38.06 43.8398V43.7598Z" fill="#3D5B6E"/>
<path d="M41.53 44.0098L40.86 44.0498L41.53 44.1198V44.0098Z" fill="#3D5B6E"/>
<mask id="mask4_26835_29175" style="mask-type:luminance" maskUnits="userSpaceOnUse" x="0" y="54" width="63" height="15">
<path d="M63 54.7202H0V68.5002H63V54.7202Z" fill="white"/>
</mask>
<g mask="url(#mask4_26835_29175)">
<path d="M73.25 56.7598H-7.51001V64.6698H73.25V56.7598Z" fill="#3D5B6E"/>
<path d="M-7.89001 58.5598V59.9298C-7.89001 59.9298 -4.43002 61.8398 1.99998 59.4498C8.42998 57.0598 2.10999 59.4298 2.10999 59.4298L-7.77001 58.5798" fill="#1A2C38"/>
<path d="M56.66 59.0901L58.55 58.9001C58.55 58.9001 61.17 60.3201 63.92 59.5801L58.44 57.6001L56.65 59.0901H56.66Z" fill="#1A2C38"/>
<path d="M73.25 56.7598H-7.51001V57.7198H73.25V56.7598Z" fill="#B9D8EB"/>
<path d="M73.25 60.71H-7.51001V62.74H73.25V60.71Z" fill="#1A2C38"/>
<path d="M37.15 57.5801C37.15 57.5801 42.88 59.8601 46.05 59.0401C46.05 59.0401 50.47 60.2601 52.82 59.6501L46.66 57.5801H37.15Z" fill="#1A2C38"/>
<path d="M74.36 56.38C74.36 56.38 69.14 55.05 55.4 55.96C55.4 55.96 48.7 55.28 39.12 56.01C29.54 56.74 41.02 59.63 46.1 58.22C46.1 58.22 50.19 60.26 53.92 59.7C57.65 59.14 58.57 58.15 58.57 58.15C58.57 58.15 62.59 60.48 66.89 59.35C71.19 58.22 74.36 59.14 74.36 59.14V56.38Z" fill="white"/>
<path d="M16.1 57.47C16.1 57.47 16.38 59.37 20.21 59.84C24.04 60.31 29.52 58.52 29.52 58.52L16.1 57.46V57.47Z" fill="#1A2C38"/>
<path d="M31.58 57.2699C31.58 58.3899 28.02 59.2999 23.63 59.2999C19.24 59.2999 15.68 58.3899 15.68 57.2699C15.68 56.1499 19.24 55.8799 23.63 55.8799C28.02 55.8799 31.58 56.1499 31.58 57.2699Z" fill="white"/>
<path d="M-7.89001 56.3199C-7.89001 56.3199 3.19998 56.0199 7.23998 56.3199C11.28 56.6199 14.52 55.5099 14.48 57.4399C14.44 59.3699 11.38 60.0999 8.60999 59.1499C5.83999 58.1999 -0.180014 60.1699 -3.09001 60.1699C-6.00001 60.1699 -7.88001 58.5599 -7.88001 58.5599V56.3199H-7.89001Z" fill="white"/>
<path d="M3.63 58.4101C3.63 58.8201 -0.820005 59.7901 -2.71 59.7901C-4.6 59.7901 -6.38 59.2001 -6.38 58.8001C-6.38 58.4001 -4.72 57.8301 -2.82 57.8301C-0.920005 57.8301 3.63 58.0201 3.63 58.4201V58.4101Z" fill="#B9D8EB"/>
<path d="M12.3327 58.7038C12.3698 58.419 11.5519 58.0777 10.5059 57.9414C9.45982 57.8052 8.58178 57.9256 8.54469 58.2104C8.5076 58.4952 9.32551 58.8365 10.3715 58.9727C11.4176 59.109 12.2956 58.9885 12.3327 58.7038Z" fill="#B9D8EB"/>
<path d="M29.63 58.01C29.65 58.46 26.96 58.9 24.9 58.99C22.84 59.08 20.23 58.63 20.21 58.18C20.19 57.73 22.76 57.97 24.81 57.87C26.86 57.77 29.6 57.56 29.62 58.01H29.63Z" fill="#B9D8EB"/>
<path d="M44.4153 57.8155C44.4242 57.5285 42.9637 57.2499 41.1531 57.1933C39.3425 57.1367 37.8674 57.3236 37.8585 57.6106C37.8495 57.8977 39.31 58.1762 41.1206 58.2328C42.9312 58.2894 44.4063 58.1026 44.4153 57.8155Z" fill="#B9D8EB"/>
<path d="M48.91 58.54C48.93 57.94 52.06 58.65 53.41 58.45C54.76 58.25 58.09 57.86 57.84 58.09C56.32 59.55 48.87 59.83 48.91 58.54Z" fill="#B9D8EB"/>
</g>
<path d="M43.69 16.02C43.49 16.33 43.33 16.49 43.02 16.69C43.33 16.89 43.49 17.05 43.69 17.36C43.89 17.05 44.05 16.89 44.36 16.69C44.05 16.49 43.89 16.33 43.69 16.02Z" fill="white"/>
<path d="M55.3501 19.29C55.1501 19.6 54.9901 19.76 54.6801 19.96C54.9901 20.16 55.1501 20.32 55.3501 20.63C55.5501 20.32 55.7101 20.16 56.0201 19.96C55.7101 19.76 55.5501 19.6 55.3501 19.29Z" fill="white"/>
<path d="M47.5 26.3398C47.3 26.6498 47.14 26.8098 46.83 27.0098C47.14 27.2098 47.3 27.3698 47.5 27.6798C47.7 27.3698 47.86 27.2098 48.17 27.0098C47.86 26.8098 47.7 26.6498 47.5 26.3398Z" fill="white"/>
<path d="M18.89 21.54C18.69 21.85 18.53 22.01 18.22 22.21C18.53 22.41 18.69 22.57 18.89 22.88C19.09 22.57 19.25 22.41 19.56 22.21C19.25 22.01 19.09 21.85 18.89 21.54Z" fill="white"/>
<path d="M10.01 17.9702C9.81003 18.2802 9.65003 18.4402 9.34003 18.6402C9.65003 18.8402 9.81003 19.0002 10.01 19.3102C10.21 19.0002 10.37 18.8402 10.68 18.6402C10.37 18.4402 10.21 18.2802 10.01 17.9702Z" fill="white"/>
</g>
</g>
<path fill-rule="evenodd" clip-rule="evenodd" d="M6.49771 79C6.98969 79 7.48602 79.213 7.49037 79.6913C7.49037 80.1043 7.24656 80.2696 6.99839 80.2696C6.75023 80.2696 6.73281 80.1435 6.73281 80.1435C6.73281 80.1435 7.02452 79.9261 7.02452 79.7174C7.02452 79.6087 6.94179 79.313 6.489 79.3174C5.8577 79.3174 5.5181 79.6174 5.5181 80.1522C5.5181 80.7652 7.35105 80.9739 7.3554 81.7652C7.3554 82.613 6.47594 82.9957 5.69225 83C5.283 83 5.01306 82.7609 5.00871 82.3783C5.00871 81.9261 5.22204 81.4652 5.75756 81.4652C5.88382 81.4565 5.98831 81.5522 5.99702 81.6783C5.99702 81.6783 5.99702 81.6826 5.99702 81.687C5.99702 81.687 5.45715 81.8391 5.4615 82.3783C5.4615 82.4783 5.56599 82.6609 5.81851 82.6565C6.07103 82.6522 6.82424 82.4739 6.81989 81.8087C6.81989 81.1913 5.00435 81.1087 5 80.1478C5 79.0652 6.08845 79.0087 6.49771 79.0087V79ZM10.747 79.6C10.8123 79.5696 11.2129 79.4913 11.1955 79.813C11.1824 80.1348 10.9386 80.6913 10.9037 80.9348C11.2303 80.7696 11.6918 80.2087 11.6918 80.2087C11.6918 80.2087 12.0183 80.2522 11.9182 80.4522C11.818 80.6522 11.1519 81.1435 11.1519 81.1435C11.1519 81.1435 11.3043 82.5696 12.1707 82.5696C12.6453 82.5696 12.8499 82.3609 12.937 82.287C12.9587 82.2696 12.9762 82.2652 12.9849 82.2783C13.0197 82.387 12.9936 82.5043 12.9152 82.5913C12.8194 82.6957 12.5974 82.8217 12.1533 82.8261C11.3653 82.8261 10.9255 82.1957 10.8123 81.2609C10.7252 81.5348 10.7339 81.9826 10.7209 82.2C10.6948 82.2435 10.2507 82.4174 10.2158 82.1174C10.2158 82.0913 10.2158 82.0696 10.2158 82.0435C10.1331 82.1609 10.0199 82.2826 9.91108 82.2826C9.71951 82.2826 9.63679 82.1217 9.60196 82.0391C9.57584 82.0696 9.3625 82.287 9.08821 82.287C8.92277 82.2913 8.77474 82.1957 8.70943 82.0435C8.57011 82.1435 8.32195 82.2913 8.03895 82.2913C7.73418 82.2913 7.66017 82.1087 7.66017 81.9565C7.66017 81.713 7.84303 80.987 7.84303 80.987C7.84303 80.987 7.48602 81.1304 7.36411 81.1348C7.19431 81.1348 7.11159 80.8217 7.11159 80.813C7.11159 80.8087 7.11159 80.8 7.1203 80.8C7.22044 80.7609 7.94317 80.513 7.94317 80.513C7.94317 80.513 8.07813 79.9826 8.09555 79.913C8.11296 79.8435 8.2131 79.7 8.33065 79.6565C8.41773 79.6217 8.50916 79.6 8.60059 79.5913C8.63107 79.5913 8.65284 79.6 8.65284 79.6174C8.65284 79.6348 8.47433 80.4087 8.47433 80.4087C8.47433 80.4087 8.84876 80.3217 8.98808 80.3217C9.09692 80.3217 9.15352 80.387 9.09257 80.4696C9.03162 80.5522 8.96196 80.6478 8.92712 80.6913C8.88794 80.7348 8.86182 80.7435 8.77039 80.7609C8.64413 80.787 8.36113 80.8565 8.36113 80.8565C8.36113 80.8565 8.13473 81.6783 8.13909 81.8174C8.13909 81.8957 8.16521 81.987 8.26099 81.987C8.35678 81.987 8.53964 81.8739 8.67025 81.7913C8.69202 81.1522 9.18835 80.7261 9.57584 80.7261C9.7021 80.7261 9.65421 80.8478 9.79788 80.8478H9.88931C9.94591 80.8478 10.0069 80.8522 10.0069 80.9957C10.0069 81.1957 9.89367 81.5261 9.89367 81.7348C9.89367 81.8826 9.91544 81.987 9.97204 81.987C10.0678 81.987 10.1767 81.8478 10.255 81.7261C10.3813 81.0304 10.734 79.7609 10.734 79.6174L10.747 79.6ZM12.5016 80.7C12.7672 80.6783 12.9326 80.8217 12.9631 80.9C12.9936 80.9783 12.9892 81.1609 12.9152 81.2913C12.6845 81.7044 12.1097 81.6304 12.1097 81.6304C12.1097 81.6304 12.0444 81.9565 12.3405 81.9565C12.593 81.9565 12.7062 81.8304 12.8151 81.7261C12.8586 81.7261 12.9936 81.8652 12.9326 81.9609C12.8847 82.0348 12.6191 82.2565 12.2795 82.2609C11.7397 82.2609 11.6047 81.8 11.6744 81.4696C11.7658 81.0609 12.1751 80.7217 12.5016 80.6957V80.7ZM9.6455 80.987C9.32332 80.987 8.82699 81.9696 9.20577 81.9652C9.61938 81.9652 9.6455 81.1826 9.6455 81.0043V80.987ZM12.6409 80.8913C12.4232 80.9 12.1751 81.3174 12.1533 81.5C12.4798 81.513 12.654 81.1957 12.6757 81.0696C12.6888 80.9739 12.6932 80.887 12.6409 80.887V80.8913Z" fill="white"/>
<path d="M46.1444 79.3778L46.6412 80.278L47.6518 80.4733C47.7792 80.4988 47.8302 80.6559 47.741 80.7494L47.0361 81.5009L47.1635 82.5243C47.1805 82.6559 47.0446 82.7494 46.93 82.6942L46 82.2568L45.0701 82.6942C44.9512 82.7494 44.8196 82.6517 44.8366 82.5243L44.9639 81.5009L44.2591 80.7494C44.1699 80.6559 44.2208 80.4988 44.3482 80.4733L45.3588 80.278L45.8557 79.3778C45.9194 79.2632 46.085 79.2632 46.1444 79.3778Z" fill="#FFC200"/>
<path d="M46 79.2929C46.0552 79.2929 46.1147 79.3226 46.1444 79.3778L46.6412 80.278L47.6518 80.4733C47.7792 80.4988 47.8302 80.6559 47.741 80.7494L47.0361 81.5009L47.1635 82.5243C47.1763 82.6262 47.0955 82.7111 46.9979 82.7111C46.9766 82.7111 46.9512 82.7069 46.9257 82.6942L45.9957 82.2568L45.0658 82.6942C45.0403 82.7069 45.0191 82.7111 44.9936 82.7111C44.9002 82.7111 44.8153 82.6262 44.828 82.5243L44.9554 81.5009L44.2505 80.7494C44.1613 80.6559 44.2123 80.4988 44.3397 80.4733L45.3503 80.278L45.8471 79.3778C45.8768 79.3226 45.9363 79.2929 45.9915 79.2929M46 79.0806C45.8641 79.0806 45.7367 79.157 45.6688 79.2759L45.2187 80.0912L44.3057 80.2653C44.1698 80.2908 44.0594 80.3884 44.017 80.5201C43.9745 80.6517 44.0085 80.7961 44.1019 80.8937L44.7388 81.5731L44.6242 82.4946C44.6115 82.6007 44.6454 82.7111 44.7134 82.7918C44.7856 82.8725 44.8875 82.9192 44.9979 82.9192C45.0531 82.9192 45.1083 82.9065 45.1592 82.881L46 82.4861L46.8408 82.881C46.8917 82.9065 46.9469 82.9192 47.0021 82.9192C47.1125 82.9192 47.2144 82.8725 47.2866 82.7918C47.3588 82.7111 47.3928 82.6007 47.3758 82.4946L47.2611 81.5731L47.8981 80.8937C47.9915 80.7918 48.0255 80.6474 47.983 80.5201C47.9405 80.3884 47.8301 80.2908 47.6943 80.2653L46.7813 80.0912L46.3312 79.2759C46.2633 79.157 46.1359 79.0806 46 79.0806Z" fill="#213743"/>
<path d="M46 79.8152V80.9744C46 81.0678 46.0892 81.1315 46.1784 81.106L47.2187 80.7706C47.2739 80.7536 47.2697 80.6729 47.2102 80.6602L46.5563 80.5413C46.4969 80.5286 46.4417 80.4903 46.4119 80.4351L46.085 79.7939C46.0637 79.7515 45.9958 79.7642 45.9958 79.8152H46Z" fill="#FFEBB8"/>
<path d="M46 81.4924V82.0699C46 82.1039 46.017 82.1294 46.0467 82.1464L46.7983 82.5073C46.8365 82.5243 46.8705 82.4818 46.845 82.4479L46.0934 81.4627C46.0637 81.4245 46 81.4457 46 81.4924Z" fill="#FF7F00"/>
<path d="M51.1444 79.3778L51.6412 80.278L52.6518 80.4733C52.7792 80.4988 52.8302 80.6559 52.741 80.7494L52.0361 81.5009L52.1635 82.5243C52.1805 82.6559 52.0446 82.7494 51.93 82.6942L51 82.2568L50.0701 82.6942C49.9512 82.7494 49.8196 82.6517 49.8366 82.5243L49.9639 81.5009L49.2591 80.7494C49.1699 80.6559 49.2208 80.4988 49.3482 80.4733L50.3588 80.278L50.8557 79.3778C50.9194 79.2632 51.085 79.2632 51.1444 79.3778Z" fill="#FFC200"/>
<path d="M51 79.2929C51.0552 79.2929 51.1147 79.3226 51.1444 79.3778L51.6412 80.278L52.6518 80.4733C52.7792 80.4988 52.8302 80.6559 52.741 80.7494L52.0361 81.5009L52.1635 82.5243C52.1763 82.6262 52.0955 82.7111 51.9979 82.7111C51.9766 82.7111 51.9512 82.7069 51.9257 82.6942L50.9957 82.2568L50.0658 82.6942C50.0403 82.7069 50.0191 82.7111 49.9936 82.7111C49.9002 82.7111 49.8153 82.6262 49.828 82.5243L49.9554 81.5009L49.2505 80.7494C49.1613 80.6559 49.2123 80.4988 49.3397 80.4733L50.3503 80.278L50.8471 79.3778C50.8768 79.3226 50.9363 79.2929 50.9915 79.2929M51 79.0806C50.8641 79.0806 50.7367 79.157 50.6688 79.2759L50.2187 80.0912L49.3057 80.2653C49.1698 80.2908 49.0594 80.3884 49.017 80.5201C48.9745 80.6517 49.0085 80.7961 49.1019 80.8937L49.7388 81.5731L49.6242 82.4946C49.6115 82.6007 49.6454 82.7111 49.7134 82.7918C49.7856 82.8725 49.8875 82.9192 49.9979 82.9192C50.0531 82.9192 50.1083 82.9065 50.1592 82.881L51 82.4861L51.8408 82.881C51.8917 82.9065 51.9469 82.9192 52.0021 82.9192C52.1125 82.9192 52.2144 82.8725 52.2866 82.7918C52.3588 82.7111 52.3928 82.6007 52.3758 82.4946L52.2611 81.5731L52.8981 80.8937C52.9915 80.7918 53.0255 80.6474 52.983 80.5201C52.9405 80.3884 52.8301 80.2908 52.6943 80.2653L51.7813 80.0912L51.3312 79.2759C51.2633 79.157 51.1359 79.0806 51 79.0806Z" fill="#213743"/>
<path d="M51 79.8152V80.9744C51 81.0678 51.0892 81.1315 51.1784 81.106L52.2187 80.7706C52.2739 80.7536 52.2697 80.6729 52.2102 80.6602L51.5563 80.5413C51.4969 80.5286 51.4417 80.4903 51.4119 80.4351L51.085 79.7939C51.0637 79.7515 50.9958 79.7642 50.9958 79.8152H51Z" fill="#FFEBB8"/>
<path d="M51 81.4924V82.0699C51 82.1039 51.017 82.1294 51.0467 82.1464L51.7983 82.5073C51.8365 82.5243 51.8705 82.4818 51.845 82.4479L51.0934 81.4627C51.0637 81.4245 51 81.4457 51 81.4924Z" fill="#FF7F00"/>
<path d="M56.1444 79.3778L56.6412 80.278L57.6518 80.4733C57.7792 80.4988 57.8302 80.6559 57.741 80.7494L57.0361 81.5009L57.1635 82.5243C57.1805 82.6559 57.0446 82.7494 56.93 82.6942L56 82.2568L55.0701 82.6942C54.9512 82.7494 54.8196 82.6517 54.8366 82.5243L54.9639 81.5009L54.2591 80.7494C54.1699 80.6559 54.2208 80.4988 54.3482 80.4733L55.3588 80.278L55.8557 79.3778C55.9194 79.2632 56.085 79.2632 56.1444 79.3778Z" fill="#FFC200"/>
<path d="M56 79.2929C56.0552 79.2929 56.1147 79.3226 56.1444 79.3778L56.6412 80.278L57.6518 80.4733C57.7792 80.4988 57.8302 80.6559 57.741 80.7494L57.0361 81.5009L57.1635 82.5243C57.1763 82.6262 57.0955 82.7111 56.9979 82.7111C56.9766 82.7111 56.9512 82.7069 56.9257 82.6942L55.9957 82.2568L55.0658 82.6942C55.0403 82.7069 55.0191 82.7111 54.9936 82.7111C54.9002 82.7111 54.8153 82.6262 54.828 82.5243L54.9554 81.5009L54.2505 80.7494C54.1613 80.6559 54.2123 80.4988 54.3397 80.4733L55.3503 80.278L55.8471 79.3778C55.8768 79.3226 55.9363 79.2929 55.9915 79.2929M56 79.0806C55.8641 79.0806 55.7367 79.157 55.6688 79.2759L55.2187 80.0912L54.3057 80.2653C54.1698 80.2908 54.0594 80.3884 54.017 80.5201C53.9745 80.6517 54.0085 80.7961 54.1019 80.8937L54.7388 81.5731L54.6242 82.4946C54.6115 82.6007 54.6454 82.7111 54.7134 82.7918C54.7856 82.8725 54.8875 82.9192 54.9979 82.9192C55.0531 82.9192 55.1083 82.9065 55.1592 82.881L56 82.4861L56.8408 82.881C56.8917 82.9065 56.9469 82.9192 57.0021 82.9192C57.1125 82.9192 57.2144 82.8725 57.2866 82.7918C57.3588 82.7111 57.3928 82.6007 57.3758 82.4946L57.2611 81.5731L57.8981 80.8937C57.9915 80.7918 58.0255 80.6474 57.983 80.5201C57.9405 80.3884 57.8301 80.2908 57.6943 80.2653L56.7813 80.0912L56.3312 79.2759C56.2633 79.157 56.1359 79.0806 56 79.0806Z" fill="#213743"/>
<path d="M56 79.8152V80.9744C56 81.0678 56.0892 81.1315 56.1784 81.106L57.2187 80.7706C57.2739 80.7536 57.2697 80.6729 57.2102 80.6602L56.5563 80.5413C56.4969 80.5286 56.4417 80.4903 56.4119 80.4351L56.085 79.7939C56.0637 79.7515 55.9958 79.7642 55.9958 79.8152H56Z" fill="#FFEBB8"/>
<path d="M56 81.4924V82.0699C56 82.1039 56.017 82.1294 56.0467 82.1464L56.7983 82.5073C56.8365 82.5243 56.8705 82.4818 56.845 82.4479L56.0934 81.4627C56.0637 81.4245 56 81.4457 56 81.4924Z" fill="#FF7F00"/>
<rect x="13" y="62" width="37" height="13" rx="6.5" fill="#2F4553"/>
<path d="M27.7214 70H26.6894V67.318L26.0174 67.996L25.4294 67.378L26.8274 65.998H27.7214V70ZM29.937 70.072C29.229 70.072 28.695 69.856 28.323 69.49L28.887 68.77C29.163 69.022 29.541 69.16 29.925 69.16C30.363 69.16 30.579 68.944 30.579 68.698C30.579 68.428 30.369 68.236 29.955 68.236C29.637 68.236 29.385 68.326 29.163 68.536L28.449 68.362V65.998H31.353V66.898H29.481V67.672C29.673 67.486 29.985 67.354 30.339 67.354C31.017 67.354 31.629 67.852 31.629 68.656C31.629 69.52 30.975 70.072 29.937 70.072ZM33.6581 70.072C32.4881 70.072 31.9421 69.058 31.9421 68.002C31.9421 66.946 32.4881 65.938 33.6581 65.938C34.8281 65.938 35.3741 66.946 35.3741 68.002C35.3741 69.058 34.8281 70.072 33.6581 70.072ZM33.6581 69.16C34.1381 69.16 34.3301 68.71 34.3301 68.002C34.3301 67.294 34.1381 66.85 33.6581 66.85C33.1781 66.85 32.9861 67.294 32.9861 68.002C32.9861 68.71 33.1781 69.16 33.6581 69.16ZM38.6383 70H37.6243L37.0663 69.124L36.5023 70H35.4943L36.4843 68.512L35.5543 67.102H36.5683L37.0663 67.888L37.5583 67.102H38.5723L37.6483 68.512L38.6383 70Z" fill="white"/>
<path d="M7.69 11H5.33V7.665H7.69V8.29H6.04V8.995H7.655V9.62H6.04V10.375H7.69V11ZM9.61004 11.06C9.32504 11.06 9.06004 10.94 8.86504 10.69V11.92H8.23004V8.585H8.86504V8.89C9.05004 8.655 9.31504 8.525 9.61004 8.525C10.23 8.525 10.68 8.985 10.68 9.79C10.68 10.595 10.23 11.06 9.61004 11.06ZM9.41004 10.495C9.77504 10.495 10.02 10.21 10.02 9.79C10.02 9.375 9.77504 9.09 9.41004 9.09C9.20504 9.09 8.97004 9.21 8.86504 9.365V10.22C8.97004 10.37 9.20504 10.495 9.41004 10.495ZM11.4601 8.325C11.2551 8.325 11.0801 8.155 11.0801 7.945C11.0801 7.735 11.2551 7.57 11.4601 7.57C11.6701 7.57 11.8401 7.735 11.8401 7.945C11.8401 8.155 11.6701 8.325 11.4601 8.325ZM11.7801 11H11.1451V8.585H11.7801V11ZM13.5347 11.06C12.7897 11.06 12.2547 10.535 12.2547 9.79C12.2547 9.05 12.7897 8.525 13.5347 8.525C14.0297 8.525 14.3297 8.74 14.4897 8.96L14.0747 9.35C13.9597 9.18 13.7847 9.09 13.5647 9.09C13.1797 9.09 12.9097 9.37 12.9097 9.79C12.9097 10.21 13.1797 10.495 13.5647 10.495C13.7847 10.495 13.9597 10.395 14.0747 10.235L14.4897 10.62C14.3297 10.845 14.0297 11.06 13.5347 11.06Z" fill="#05080A"/>
<path d="M49.5374 11H49.0854L47.6934 9.096V11H47.2254V8.332H47.7054L49.0694 10.184V8.332H49.5374V11ZM50.9643 11.048C50.3523 11.048 49.9723 10.588 49.9723 10.032C49.9723 9.48 50.3523 9.02 50.9643 9.02C51.5843 9.02 51.9603 9.48 51.9603 10.032C51.9603 10.588 51.5843 11.048 50.9643 11.048ZM50.9643 10.676C51.3243 10.676 51.5243 10.376 51.5243 10.032C51.5243 9.692 51.3243 9.392 50.9643 9.392C50.6083 9.392 50.4083 9.692 50.4083 10.032C50.4083 10.376 50.6083 10.676 50.9643 10.676ZM52.5818 11.044C52.4298 11.044 52.3018 10.916 52.3018 10.764C52.3018 10.612 52.4298 10.484 52.5818 10.484C52.7338 10.484 52.8618 10.612 52.8618 10.764C52.8618 10.916 52.7338 11.044 52.5818 11.044ZM55.3376 11H54.8696V8.94L54.4336 9.392L54.1616 9.108L54.9296 8.332H55.3376V11ZM57.7531 11H55.8211V10.632C56.8571 9.848 57.2611 9.5 57.2611 9.116C57.2611 8.836 57.0211 8.708 56.7771 8.708C56.4651 8.708 56.2251 8.836 56.0571 9.028L55.7851 8.72C56.0211 8.436 56.3971 8.292 56.7691 8.292C57.2851 8.292 57.7371 8.584 57.7371 9.116C57.7371 9.608 57.2851 10.048 56.5691 10.588H57.7531V11Z" fill="white"/>
<defs>
<linearGradient id="paint0_linear_26835_29175" x1="37.8344" y1="86.256" x2="23.263" y2="1.76" gradientUnits="userSpaceOnUse">
<stop stop-color="#55EEFF"/>
<stop offset="0.09" stop-color="#6CABFF"/>
<stop offset="0.23" stop-color="#8C4FFF"/>
<stop offset="0.32" stop-color="#A016FF"/>
<stop offset="0.37" stop-color="#A800FF"/>
<stop offset="0.44" stop-color="#C043D4"/>
<stop offset="0.51" stop-color="#D680AF"/>
<stop offset="0.58" stop-color="#E8B091"/>
<stop offset="0.64" stop-color="#F4D27B"/>
<stop offset="0.69" stop-color="#FCE76E"/>
<stop offset="0.72" stop-color="#FFEF6A"/>
<stop offset="0.81" stop-color="#BCF589"/>
<stop offset="0.9" stop-color="#84FAA3"/>
<stop offset="0.97" stop-color="#62FDB3"/>
<stop offset="1" stop-color="#55FFBA"/>
</linearGradient>
<linearGradient id="paint1_linear_26835_29175" x1="31.5" y1="96.8902" x2="31.5" y2="-25.1898" gradientUnits="userSpaceOnUse">
<stop stop-color="#3579F6"/>
<stop offset="1"/>
</linearGradient>
<linearGradient id="paint2_linear_26835_29175" x1="57.77" y1="86.3601" x2="26.53" y2="13.7601" gradientUnits="userSpaceOnUse">
<stop stop-color="#55EEFF"/>
<stop offset="0.09" stop-color="#6CABFF"/>
<stop offset="0.23" stop-color="#8C4FFF"/>
<stop offset="0.32" stop-color="#A016FF"/>
<stop offset="0.37" stop-color="#A800FF"/>
<stop offset="0.44" stop-color="#C043D4"/>
<stop offset="0.51" stop-color="#D680AF"/>
<stop offset="0.58" stop-color="#E8B091"/>
<stop offset="0.64" stop-color="#F4D27B"/>
<stop offset="0.69" stop-color="#FCE76E"/>
<stop offset="0.72" stop-color="#FFEF6A"/>
<stop offset="0.81" stop-color="#BCF589"/>
<stop offset="0.9" stop-color="#84FAA3"/>
<stop offset="0.97" stop-color="#62FDB3"/>
<stop offset="1" stop-color="#55FFBA"/>
</linearGradient>
<linearGradient id="paint3_linear_26835_29175" x1="51.08" y1="89.51" x2="19.74" y2="16.67" gradientUnits="userSpaceOnUse">
<stop stop-color="#55EEFF"/>
<stop offset="0.09" stop-color="#6CABFF"/>
<stop offset="0.23" stop-color="#8C4FFF"/>
<stop offset="0.32" stop-color="#A016FF"/>
<stop offset="0.37" stop-color="#A800FF"/>
<stop offset="0.44" stop-color="#C043D4"/>
<stop offset="0.51" stop-color="#D680AF"/>
<stop offset="0.58" stop-color="#E8B091"/>
<stop offset="0.64" stop-color="#F4D27B"/>
<stop offset="0.69" stop-color="#FCE76E"/>
<stop offset="0.72" stop-color="#FFEF6A"/>
<stop offset="0.81" stop-color="#BCF589"/>
<stop offset="0.9" stop-color="#84FAA3"/>
<stop offset="0.97" stop-color="#62FDB3"/>
<stop offset="1" stop-color="#55FFBA"/>
</linearGradient>
<clipPath id="clip0_26835_29175">
<rect width="63" height="88" fill="white"/>
</clipPath>
<clipPath id="clip1_26835_29175">
<rect width="63" height="88" fill="white"/>
</clipPath>
</defs>
</svg>
