<svg width="63" height="88" viewBox="0 0 63 88" fill="none" xmlns="http://www.w3.org/2000/svg">
<rect width="63" height="88" rx="4" fill="url(#paint0_linear_26835_29176)"/>
<g clip-path="url(#clip0_26835_29176)">
<g clip-path="url(#clip1_26835_29176)">
<path d="M56.44 0.740234H6.56003C3.22975 0.740234 0.530029 3.43996 0.530029 6.77023V81.2302C0.530029 84.5605 3.22975 87.2602 6.56003 87.2602H56.44C59.7703 87.2602 62.47 84.5605 62.47 81.2302V6.77023C62.47 3.43996 59.7703 0.740234 56.44 0.740234Z" fill="url(#paint1_linear_26835_29176)"/>
<mask id="mask0_26835_29176" style="mask-type:luminance" maskUnits="userSpaceOnUse" x="0" y="0" width="63" height="88">
<path d="M56.44 0.740234H6.56003C3.22975 0.740234 0.530029 3.43996 0.530029 6.77023V81.2302C0.530029 84.5605 3.22975 87.2602 6.56003 87.2602H56.44C59.7703 87.2602 62.47 84.5605 62.47 81.2302V6.77023C62.47 3.43996 59.7703 0.740234 56.44 0.740234Z" fill="white"/>
</mask>
<g mask="url(#mask0_26835_29176)">
<g opacity="0.5">
<path d="M30.6501 62.36C15.0801 61.89 2.79005 48.85 3.26005 33.28C3.73005 17.71 16.7701 5.42 32.3401 5.89C47.9101 6.36 60.2001 19.4 59.7301 34.97C59.2601 50.54 46.2201 62.83 30.6501 62.36ZM32.3201 6.65C17.1801 6.2 4.49005 18.15 4.03005 33.29C3.58005 48.43 15.5301 61.12 30.6701 61.58C45.8101 62.03 58.5001 50.08 58.9601 34.94C59.4101 19.8 47.4601 7.11 32.3201 6.65Z" fill="#55DFFF"/>
<path d="M54.5001 38.0801L53.8801 40.7801L55.1901 41.6101L55.0301 42.1701L55.5801 42.5001L56.5001 39.2301L54.4901 38.0801H54.5001ZM55.3901 40.9301L54.5401 40.4101L54.6401 39.9501L55.2501 40.3001L55.3601 39.8101L54.7501 39.4501L54.8701 38.9401L55.8001 39.5001L55.3901 40.9301ZM56.1401 38.4201L56.2801 37.8901L56.8101 38.2401L56.6701 38.7301L56.1401 38.4301V38.4201Z" fill="#55DFFF"/>
<path d="M14.53 50.3902L13.91 53.0902L15.22 53.9202L15.06 54.4802L15.61 54.8102L16.53 51.5402L14.52 50.3902H14.53ZM15.42 53.2402L14.57 52.7202L14.67 52.2602L15.28 52.6102L15.39 52.1202L14.78 51.7602L14.9 51.2502L15.83 51.8102L15.42 53.2402ZM16.17 50.7302L16.31 50.2002L16.84 50.5502L16.7 51.0402L16.17 50.7402V50.7302Z" fill="#55DFFF"/>
<path d="M22.54 9.33014L21.92 12.0301L23.23 12.8601L23.07 13.4201L23.62 13.7501L24.54 10.4801L22.53 9.33014H22.54ZM23.43 12.1801L22.58 11.6601L22.68 11.2001L23.29 11.5501L23.4 11.0601L22.79 10.7001L22.91 10.1901L23.84 10.7501L23.43 12.1801ZM24.18 9.67014L24.32 9.14014L24.85 9.49014L24.71 9.98014L24.18 9.68014V9.67014Z" fill="#55DFFF"/>
<path d="M56.1 31.7101L56.8601 32.2501L56.5 32.7201L54.3 31.1601L54.71 30.6901L55.57 31.3201L55.93 30.8801L55.07 30.2701L56.12 29.0601L56.64 29.4401L55.9501 30.2101L56.7901 30.8201L56.1 31.6901V31.7101ZM57.66 29.9001L57.2001 29.5701L56.8 30.0401L57.25 30.3801L57.6501 29.9001H57.66Z" fill="#55DFFF"/>
<path d="M22.5101 57.4498L23.2701 57.9898L22.9101 58.4598L20.7101 56.8998L21.1201 56.4298L21.9801 57.0598L22.3401 56.6198L21.4801 56.0098L22.5301 54.7998L23.0501 55.1798L22.3601 55.9498L23.2001 56.5598L22.5101 57.4298V57.4498ZM24.0701 55.6498L23.6101 55.3198L23.2101 55.7898L23.6601 56.1298L24.0601 55.6498H24.0701Z" fill="#55DFFF"/>
<path d="M15.1701 16.44L15.9301 16.98L15.5701 17.45L13.3701 15.89L13.7801 15.42L14.6401 16.05L15.0001 15.61L14.1401 15L15.1901 13.79L15.7101 14.17L15.0201 14.94L15.8601 15.55L15.1701 16.42V16.44ZM16.7301 14.63L16.2701 14.3L15.8701 14.77L16.3201 15.11L16.7201 14.63H16.7301Z" fill="#55DFFF"/>
<path d="M53.8701 22.1602L53.3301 22.8202L53.7701 23.0802L55.0101 21.5802L55.4401 21.8502L53.4501 24.3802L52.9901 24.0602L53.4801 23.4502L52.6201 22.9402L53.0801 22.3802L52.6501 22.1202L51.1601 23.7902L50.6801 23.5202L52.5301 21.4102L53.8801 22.1602H53.8701ZM52.3501 23.2502L52.0001 23.6602L52.4501 23.9302L52.7901 23.5102L52.3501 23.2402V23.2502Z" fill="#55DFFF"/>
<path d="M32.13 57.6901L31.54 58.4001L32.01 58.6801L33.35 57.0601L33.82 57.3501L31.67 60.0801L31.17 59.7301L31.7 59.0701L30.77 58.5201L31.27 57.9201L30.8 57.6401L29.19 59.4401L28.67 59.1401L30.66 56.8701L32.11 57.6801L32.13 57.6901ZM30.49 58.8701L30.12 59.3101L30.6 59.6001L30.97 59.1501L30.5 58.8601L30.49 58.8701Z" fill="#55DFFF"/>
<path d="M11.1501 21.5998L10.5601 22.3098L11.0301 22.5898L12.3701 20.9698L12.8401 21.2598L10.6901 23.9898L10.1901 23.6398L10.7201 22.9798L9.79006 22.4298L10.2901 21.8298L9.82006 21.5498L8.21006 23.3498L7.69006 23.0498L9.68006 20.7798L11.1301 21.5898L11.1501 21.5998ZM9.51006 22.7698L9.14006 23.2098L9.62006 23.4998L9.99006 23.0498L9.52006 22.7598L9.51006 22.7698Z" fill="#55DFFF"/>
<path d="M49.02 16.2799L49.3 15.8399L48.72 15.4499L49.24 14.6299L47.83 13.6899L46.99 14.9199L47.97 15.5799L46.92 17.2099L48.62 18.3299L48.89 17.8899L47.67 17.0899L47.91 16.7099L48.49 17.0999L48.76 16.6599L48.18 16.2699L48.42 15.8899L49 16.2799H49.02ZM47.74 14.7999L47.99 14.4199L48.51 14.7699L48.27 15.1499L47.74 14.7999Z" fill="#55DFFF"/>
<path d="M40.6801 57.0402L40.9601 56.6002L40.3801 56.2102L40.9001 55.3902L39.4901 54.4502L38.6501 55.6802L39.6301 56.3402L38.5801 57.9702L40.2801 59.0902L40.5501 58.6502L39.3301 57.8502L39.5701 57.4702L40.1501 57.8602L40.4201 57.4202L39.8401 57.0302L40.0801 56.6502L40.6601 57.0402H40.6801ZM39.3901 55.5502L39.6401 55.1702L40.1601 55.5202L39.9201 55.9002L39.3901 55.5502Z" fill="#55DFFF"/>
<path d="M7.98007 30.6398L8.26007 30.1998L7.68007 29.8098L8.20007 28.9898L6.79007 28.0498L5.95007 29.2798L6.93007 29.9398L5.88007 31.5698L7.58007 32.6898L7.85007 32.2498L6.63007 31.4498L6.87007 31.0698L7.45007 31.4598L7.72007 31.0198L7.14007 30.6298L7.38007 30.2498L7.96007 30.6398H7.98007ZM6.69007 29.1498L6.94007 28.7698L7.46007 29.1198L7.22007 29.4998L6.69007 29.1498Z" fill="#55DFFF"/>
<path d="M32.4901 10.7698L33.9401 9.03977L32.4301 7.25977L30.9101 9.04977L31.5601 9.74977L30.8101 10.6398L31.4801 11.3298L30.8101 12.1198L31.1501 12.4998L32.1001 11.2998L31.4801 10.6298L31.9201 10.1398L32.4901 10.7698ZM32.4201 8.10977L33.2201 9.05977L32.4801 9.92977L31.6401 9.00977L32.4101 8.09977L32.4201 8.10977Z" fill="#55DFFF"/>
<path d="M32.4601 8.68994L32.1901 9.00994L32.4701 9.30994L32.7301 9.00994L32.4601 8.68994Z" fill="#55DFFF"/>
<path d="M52.1401 49.0701L53.5901 47.3401L52.0801 45.5601L50.5601 47.3501L51.2101 48.0501L50.4601 48.9401L51.1301 49.6301L50.4601 50.4201L50.8001 50.8001L51.7501 49.6001L51.1301 48.9301L51.5701 48.4401L52.1401 49.0701ZM52.0701 46.4101L52.8701 47.3601L52.1301 48.2301L51.2901 47.3101L52.0601 46.4001L52.0701 46.4101Z" fill="#55DFFF"/>
<path d="M52.11 46.9902L51.84 47.3002L52.12 47.6102L52.38 47.3102L52.11 46.9902Z" fill="#55DFFF"/>
<path d="M10.7401 47.24L12.1901 45.51L10.6801 43.73L9.16006 45.52L9.81006 46.22L9.06006 47.11L9.73006 47.8L9.06006 48.59L9.40006 48.97L10.3501 47.77L9.73006 47.1L10.1701 46.61L10.7401 47.24ZM10.6701 44.58L11.4701 45.53L10.7301 46.4L9.89006 45.48L10.6601 44.57L10.6701 44.58Z" fill="#55DFFF"/>
<path d="M10.7101 45.1602L10.4501 45.4702L10.7301 45.7802L10.9801 45.4702L10.7101 45.1602Z" fill="#55DFFF"/>
<path d="M40.7 11.0799L40.01 12.9999H39.41L40.14 11.0599L40.7 11.0799ZM40.72 12.3199L41.7 12.3499L41.83 12.0499L42.04 13.0899H42.65L42.17 11.1499H41.66L41.36 11.8399H40.89L40.71 12.3199H40.72ZM41.19 9.91992L40.76 10.3799L41.19 10.8399L41.6 10.3799L41.19 9.91992Z" fill="#55DFFF"/>
<path d="M45.46 53.12L44.77 55.04H44.17L44.9 53.1L45.46 53.12ZM45.48 54.37L46.46 54.4L46.59 54.1L46.8 55.14H47.41L46.93 53.2H46.42L46.12 53.89H45.65L45.47 54.37H45.48ZM45.95 51.96L45.52 52.42L45.95 52.88L46.36 52.42L45.95 51.96Z" fill="#55DFFF"/>
<path d="M6.80007 38.0902L6.11007 40.0102H5.51007L6.24007 38.0702L6.80007 38.0902ZM6.82007 39.3302L7.80007 39.3602L7.93007 39.0602L8.14007 40.1002H8.75007L8.27007 38.1602H7.76007L7.46007 38.8502H6.99007L6.81007 39.3302H6.82007ZM7.29007 36.9302L6.86007 37.3902L7.29007 37.8502L7.70007 37.3902L7.29007 36.9302Z" fill="#55DFFF"/>
</g>
</g>
<path d="M3.92999 1.3501C2.85999 1.3501 1.42999 3.4401 1.42999 4.5001L1.99999 18.1901C1.99999 16.4301 3.42999 15.0001 5.18999 15.0001H33.59C34.8 15.0001 35.94 14.4501 36.7 13.5101L44.8 3.4801C45.56 2.5401 46.7 1.9901 47.91 1.9901L3.92999 1.3501Z" fill="url(#paint2_linear_26835_29176)"/>
<path d="M59 0H4C1.79 0 0 1.79 0 4V84C0 86.21 1.79 88 4 88H59C61.21 88 63 86.21 63 84V4C63 1.79 61.21 0 59 0ZM61 82.81C61 84.57 59.57 86 57.81 86H5.19C3.43 86 2 84.57 2 82.81V16.9C2 8.67 8.67 2 16.9 2H57.81C59.57 2 61 3.43 61 5.19V82.81Z" fill="url(#paint3_linear_26835_29176)"/>
<mask id="mask1_26835_29176" style="mask-type:luminance" maskUnits="userSpaceOnUse" x="0" y="0" width="63" height="88">
<path d="M59 0H4C1.79 0 0 1.79 0 4V84C0 86.21 1.79 88 4 88H59C61.21 88 63 86.21 63 84V4C63 1.79 61.21 0 59 0ZM61 82.81C61 84.57 59.57 86 57.81 86H5.19C3.43 86 2 84.57 2 82.81V18.19C2 16.43 3.43 15 5.19 15H33.59C34.8 15 35.94 14.45 36.7 13.51L44.8 3.48C45.56 2.54 46.7 1.99 47.91 1.99H57.81C59.57 1.99 61 3.42 61 5.18V82.8V82.81Z" fill="white"/>
</mask>
<g mask="url(#mask1_26835_29176)">
<path d="M68.37 47.3101V26.6401L4.46002 90.5501H25.13L68.37 47.3101Z" fill="white"/>
<path d="M64.66 -2.29004H55.22L-2.91998 55.84V66.18L65.46 -2.20004C65.2 -2.26004 64.93 -2.29004 64.66 -2.29004Z" fill="white"/>
<path d="M68.37 69.2298V61.5498L39.37 90.5498H47.05L68.37 69.2298Z" fill="white"/>
</g>
<path d="M48.46 25.9098C47.94 17.2098 40.72 10.3198 31.89 10.3198C23.06 10.3198 15.85 17.2098 15.32 25.9098H15.29V71.2898H48.49V25.9098H48.46Z" fill="#885CC2"/>
<path d="M48.46 25.9098C47.94 17.2098 40.72 10.3198 31.89 10.3198C23.06 10.3198 15.85 17.2098 15.32 25.9098H15.29V71.2898H48.49V25.9098H48.46Z" fill="url(#paint4_linear_26835_29176)"/>
<path d="M21.17 23.27L16.11 29.26L17.39 39.05L23.44 49.15L24.36 37.28L21.17 23.27Z" fill="#1D103E"/>
<path d="M42.45 23.27L47.51 29.26L46.23 39.05L40.19 49.15L39.27 37.28L42.45 23.27Z" fill="#1D103E"/>
<path d="M44.28 63.2501C41.86 61.2701 40.45 58.3001 40.45 55.1701V36.1201H23.33V54.9101C23.33 58.0401 21.93 61.0001 19.5 62.9901L9.33002 71.3101C23.85 82.3101 38.77 82.3701 54.11 71.3101L44.27 63.2601L44.28 63.2501Z" fill="#FC9D61"/>
<path d="M39.55 38.4498C39.55 42.3398 36.05 48.0898 31.73 48.0898C27.41 48.0898 23.91 42.3398 23.91 38.4498C23.91 34.5598 27.41 36.1498 31.73 36.1498C36.05 36.1498 39.55 34.5598 39.55 38.4498Z" fill="#1D103E"/>
<path d="M41.24 36.22L42.44 25.26C42.44 19.18 37.68 14.25 31.81 14.25C25.94 14.25 21.18 19.18 21.18 25.26L22.34 36.21C22.46 37.46 23.28 38.53 24.45 38.98L29.51 41.91C30.99 42.47 32.63 42.47 34.11 41.91L39.14 38.98C40.31 38.53 41.12 37.47 41.25 36.22H41.24Z" fill="#FC9D61"/>
<path d="M28.48 28.8298C28.5684 28.8298 28.64 28.7581 28.64 28.6698C28.64 28.5814 28.5684 28.5098 28.48 28.5098C28.3916 28.5098 28.32 28.5814 28.32 28.6698C28.32 28.7581 28.3916 28.8298 28.48 28.8298Z" fill="white"/>
<path d="M23.22 28.3998C23.3968 28.3998 23.54 28.2565 23.54 28.0798C23.54 27.903 23.3968 27.7598 23.22 27.7598C23.0433 27.7598 22.9 27.903 22.9 28.0798C22.9 28.2565 23.0433 28.3998 23.22 28.3998Z" fill="white"/>
<path d="M35.85 28.7098C36.0268 28.7098 36.17 28.5666 36.17 28.3898C36.17 28.2131 36.0268 28.0698 35.85 28.0698C35.6733 28.0698 35.53 28.2131 35.53 28.3898C35.53 28.5666 35.6733 28.7098 35.85 28.7098Z" fill="white"/>
<path d="M25.31 28.3902C25.4315 28.3902 25.53 28.2917 25.53 28.1702C25.53 28.0487 25.4315 27.9502 25.31 27.9502C25.1885 27.9502 25.09 28.0487 25.09 28.1702C25.09 28.2917 25.1885 28.3902 25.31 28.3902Z" fill="white"/>
<path d="M24.95 29.5701C25.0052 29.5701 25.05 29.5253 25.05 29.4701C25.05 29.4149 25.0052 29.3701 24.95 29.3701C24.8947 29.3701 24.85 29.4149 24.85 29.4701C24.85 29.5253 24.8947 29.5701 24.95 29.5701Z" fill="white"/>
<path d="M27.08 28.3499C27.1297 28.3499 27.17 28.3096 27.17 28.2599C27.17 28.2102 27.1297 28.1699 27.08 28.1699C27.0303 28.1699 26.99 28.2102 26.99 28.2599C26.99 28.3096 27.0303 28.3499 27.08 28.3499Z" fill="white"/>
<path d="M26.87 29.4898C26.9804 29.4898 27.07 29.4003 27.07 29.2898C27.07 29.1794 26.9804 29.0898 26.87 29.0898C26.7595 29.0898 26.67 29.1794 26.67 29.2898C26.67 29.4003 26.7595 29.4898 26.87 29.4898Z" fill="white"/>
<path d="M37.15 29.2601C37.1997 29.2601 37.24 29.2198 37.24 29.1701C37.24 29.1204 37.1997 29.0801 37.15 29.0801C37.1003 29.0801 37.06 29.1204 37.06 29.1701C37.06 29.2198 37.1003 29.2601 37.15 29.2601Z" fill="white"/>
<path d="M39.71 28.7601C39.7597 28.7601 39.8 28.7198 39.8 28.6701C39.8 28.6204 39.7597 28.5801 39.71 28.5801C39.6603 28.5801 39.62 28.6204 39.62 28.6701C39.62 28.7198 39.6603 28.7601 39.71 28.7601Z" fill="white"/>
<path d="M38.2 28.4398C38.2497 28.4398 38.29 28.3995 38.29 28.3498C38.29 28.3001 38.2497 28.2598 38.2 28.2598C38.1503 28.2598 38.11 28.3001 38.11 28.3498C38.11 28.3995 38.1503 28.4398 38.2 28.4398Z" fill="white"/>
<path d="M38.87 29.8702C38.9915 29.8702 39.09 29.7717 39.09 29.6502C39.09 29.5287 38.9915 29.4302 38.87 29.4302C38.7485 29.4302 38.65 29.5287 38.65 29.6502C38.65 29.7717 38.7485 29.8702 38.87 29.8702Z" fill="white"/>
<path d="M40.04 27.8498C40.1118 27.8498 40.17 27.7916 40.17 27.7198C40.17 27.648 40.1118 27.5898 40.04 27.5898C39.9682 27.5898 39.91 27.648 39.91 27.7198C39.91 27.7916 39.9682 27.8498 40.04 27.8498Z" fill="white"/>
<path d="M31.88 13.1499C31.88 13.1499 31.99 19.6699 28.36 19.6699C24.73 19.6699 20.37 23.2599 20.37 25.1699V18.4199L27.9 13.1599H31.88V13.1499Z" fill="#885CC2"/>
<path d="M31.82 13.1499C31.82 13.1499 31.71 19.6699 35.34 19.6699C38.97 19.6699 43.33 23.2599 43.33 25.1699V18.4199L35.8 13.1599H31.82V13.1499Z" fill="#885CC2"/>
<path d="M33.53 17.26L32.14 15.87C31.98 15.71 31.73 15.71 31.57 15.87L30.18 17.26C30.02 17.42 30.02 17.67 30.18 17.83L31.57 20.78C31.73 20.94 31.98 20.94 32.14 20.78L33.53 17.83C33.69 17.67 33.69 17.42 33.53 17.26Z" fill="#E9113C"/>
<path d="M29.24 26.5801C29.7868 26.5801 30.23 26.1369 30.23 25.5901C30.23 25.0433 29.7868 24.6001 29.24 24.6001C28.6932 24.6001 28.25 25.0433 28.25 25.5901C28.25 26.1369 28.6932 26.5801 29.24 26.5801Z" fill="white"/>
<path d="M34.55 26.5801C35.0968 26.5801 35.54 26.1369 35.54 25.5901C35.54 25.0433 35.0968 24.6001 34.55 24.6001C34.0032 24.6001 33.56 25.0433 33.56 25.5901C33.56 26.1369 34.0032 26.5801 34.55 26.5801Z" fill="white"/>
<path d="M31.88 13.1499C31.88 13.1499 31.99 19.6699 28.36 19.6699C24.73 19.6699 20.37 23.2599 20.37 25.1699V18.4199L27.9 13.1599C29.33 12.5699 30.67 12.4599 31.88 13.1599V13.1499Z" fill="url(#paint5_linear_26835_29176)"/>
<path d="M31.82 13.1502C31.82 13.1502 31.71 19.6702 35.34 19.6702C38.97 19.6702 43.33 23.2602 43.33 25.1702V18.4202L35.8 13.1602C34.34 12.1502 33.01 12.1402 31.82 13.1602V13.1502Z" fill="url(#paint6_linear_26835_29176)"/>
<path d="M32.26 16.0098C32.26 16.0098 33.76 15.6098 34.44 14.4998C34.44 14.4998 34.8 15.1898 34.44 15.6698C34.44 15.6698 36.75 14.3598 36.45 12.3198C36.45 12.3198 37.48 12.9598 37.58 13.6398C37.68 14.3198 37.15 15.3898 37.15 15.3898C37.15 15.3898 33.87 16.5098 32.26 16.0098Z" fill="#885CC2"/>
<path d="M31.4 16.0098C31.4 16.0098 29.9 15.6098 29.22 14.4998C29.22 14.4998 28.86 15.1898 29.22 15.6698C29.22 15.6698 26.91 14.3598 27.21 12.3198C27.21 12.3198 26.18 12.9598 26.08 13.6398C25.98 14.3198 26.51 15.3898 26.51 15.3898C26.51 15.3898 29.79 16.5098 31.4 16.0098Z" fill="#885CC2"/>
<path d="M43 14.4199C41.19 14.1799 40.16 15.7799 40.16 15.7799H40.15C38.74 17.4099 35.33 17.9199 32.26 16.0099C32.26 16.0099 41.45 15.9099 35.8 7.68994C35.93 7.74994 39.31 9.28994 40.44 12.2599C41.06 11.5099 41.25 10.4099 41.25 10.4099C42.14 12.3699 40.8 14.1699 40.8 14.1699C41.89 13.5399 42.99 14.4099 42.99 14.4099L43 14.4199Z" fill="#A08DE4"/>
<path d="M39.38 13.4599C38.95 9.8399 35.9 7.7099 35.8 7.6499C35.93 7.7099 39.31 9.2499 40.44 12.2199C40.44 12.2199 40 13.0499 39.37 13.4599H39.38Z" fill="white"/>
<path d="M43 14.4201C41.19 14.1801 40.16 15.7801 40.16 15.7801H40.15C38.74 17.4101 35.33 17.9201 32.26 16.0101C32.26 16.0101 37.42 16.9701 40.81 14.1801C41.9 13.5501 43 14.4201 43 14.4201Z" fill="white"/>
<path d="M31.37 16.01C28.3 17.92 24.89 17.41 23.48 15.79H23.47C23.47 15.79 22.45 14.18 20.63 14.42C20.63 14.42 21.72 13.55 22.82 14.18C22.76 14.1 21.51 12.33 22.38 10.42C22.38 10.42 22.46 11.39 23.19 12.27C24.29 9.37996 27.51 7.84996 27.81 7.70996C27.81 7.70996 27.82 7.70996 27.83 7.70996C22.18 15.93 31.37 16.03 31.37 16.03V16.01Z" fill="#A08DE4"/>
<path d="M20.6 14.4098C22.41 14.1698 23.52 15.8598 23.52 15.8598H23.53C24.94 17.4898 28.33 17.9098 31.4 15.9998C31.4 15.9998 26.22 16.9498 22.83 14.1598C21.74 13.5298 20.6 14.4098 20.6 14.4098Z" fill="white"/>
<path d="M24.76 13.5002C24.76 13.5002 23.6 12.8402 23.18 12.2602C24.28 9.3702 27.5 7.8402 27.8 7.7002C27.8 7.7002 27.81 7.7002 27.82 7.7002C27.71 7.7602 23.78 10.0302 24.76 13.5102V13.5002Z" fill="white"/>
<path d="M35.22 25.6499C35.22 25.6499 35.75 23.3999 37.38 23.3999C39.01 23.3999 41.01 26.0599 41.01 26.0599L37.38 25.9099L35.22 25.6499Z" fill="#E9113C"/>
<path d="M40.12 25.9099C39.75 25.9099 39.39 25.7999 39.08 25.5899C38.64 25.2899 37.88 24.8999 37.03 24.8999C35.66 24.8999 34.55 25.9099 34.55 25.9099H35.24C35.61 25.9099 35.97 26.0199 36.28 26.2299C36.72 26.5299 37.48 26.9199 38.33 26.9199C40.59 26.9199 41.82 25.9099 41.82 25.9099H40.12Z" fill="#281657"/>
<path d="M28.6 25.6499C28.6 25.6499 28.07 23.3999 26.44 23.3999C24.81 23.3999 22.81 26.0599 22.81 26.0599L26.44 25.9099L28.6 25.6499Z" fill="#E9113C"/>
<path d="M27.63 25.9099C27.26 25.9099 26.9 26.0199 26.59 26.2299C26.15 26.5299 25.39 26.9199 24.54 26.9199C23.17 26.9199 22.06 25.9099 22.06 25.9099H22.75C23.12 25.9099 23.48 25.7999 23.79 25.5899C24.23 25.2899 24.99 24.8999 25.84 24.8999C28.1 24.8999 29.33 25.9099 29.33 25.9099H27.63Z" fill="#281657"/>
<path d="M31.86 31.9198C29.49 31.8498 28.29 34.5498 28.29 34.5498H35.43C35.43 34.5498 34.35 31.9898 31.86 31.9198Z" fill="#281657"/>
<path d="M31.86 33.09C30.87 33.06 30.36 34.11 30.36 34.11H33.35C33.35 34.11 32.9 33.11 31.85 33.09H31.86Z" fill="white"/>
<path d="M27.88 34.5499C27.88 35.0299 29.68 35.4199 31.89 35.4199C34.1 35.4199 35.9 35.0299 35.9 34.5499C33.22 33.6199 30.54 33.6099 27.88 34.5499Z" fill="#E9113C"/>
<path d="M33.5 29.5499C33.5 30.0599 32.79 29.7499 31.89 29.7499C30.99 29.7499 30.23 30.0599 30.23 29.5499C30.23 29.0399 30.87 27.8599 31.78 27.8599C32.69 27.8599 33.51 29.0399 33.51 29.5499H33.5Z" fill="#E9113C"/>
<path d="M32.88 29.1302H30.7L30.86 22.1602H32.74L32.88 29.1302Z" fill="url(#paint7_linear_26835_29176)"/>
<path d="M22.82 74.4401H26.29V69.4701C26.29 61.4701 24.75 53.8901 22.08 48.3501L22.26 49.5101C22.26 49.5101 26.72 59.4901 22.82 74.4401Z" fill="#885CC2"/>
<path d="M26.48 74.4399C26.53 66.7399 25.88 54.2599 21.66 46.4199C15.99 35.8999 16.54 30.6899 19.47 26.9199C22.11 23.5099 23.47 20.1999 23.95 16.1699C23.89 16.5999 22.89 23.3799 18.14 25.3799C13.63 27.2699 13.62 35.4899 17.18 40.8899C23.36 50.2499 25.4 53.3799 26.07 74.4399H26.48Z" fill="white"/>
<path d="M40.88 74.4401C36.98 59.4901 41.44 49.5101 41.44 49.5101L41.62 48.3501C38.95 53.8801 37.41 61.4701 37.41 69.4701V74.4401H40.88Z" fill="#885CC2"/>
<path d="M34.47 20.2601C37.23 18.8401 39.07 19.5201 39.66 20.1001C40.25 20.6801 40.67 21.5201 40.67 21.5201C40.67 21.5201 36.28 19.1701 34.64 21.6901L34.47 20.2601Z" fill="#1A2245"/>
<path d="M28.79 20.0201L29.23 21.5301C29.23 21.5301 25.91 19.4601 22.74 21.7901C22.74 21.7901 23.26 20.0701 23.79 19.7301C24.32 19.3901 28.44 19.6401 28.79 20.0101V20.0201Z" fill="#1A2245"/>
<path d="M33.79 15.7001L32.18 14.0901C32 13.9101 31.7 13.9101 31.52 14.0901L29.91 15.7001C29.73 15.8801 29.73 16.1801 29.91 16.3601L31.52 19.7601C31.7 19.9401 32 19.9401 32.18 19.7601L33.79 16.3601C33.97 16.1801 33.97 15.8801 33.79 15.7001Z" fill="#008C00"/>
<path d="M32.84 15.67L32.08 14.1C31.99 13.91 31.72 13.91 31.63 14.1L30.87 15.67C30.79 15.84 30.91 16.03 31.1 16.03H32.61C32.8 16.03 32.92 15.84 32.84 15.67Z" fill="white"/>
<path d="M30.87 16.3898L31.63 19.7598C31.72 19.9498 31.99 19.9498 32.08 19.7598L32.84 16.3898C32.92 16.2198 32.8 16.0298 32.61 16.0298H31.1C30.91 16.0298 30.79 16.2198 30.87 16.3898Z" fill="#1CE61C"/>
<path d="M45.63 25.3801C40.72 23.3201 39.19 16.3901 39.19 16.3901C39.67 20.4301 41.65 23.5001 44.29 26.9201C47.22 30.7001 47.77 35.9001 42.1 46.4201C37.88 54.2601 37.16 66.7401 37.16 74.4401H37.53C38.22 53.3801 40.4 50.2601 46.58 40.8901C50.14 35.4901 50.13 27.2701 45.62 25.3801H45.63Z" fill="white"/>
<mask id="mask2_26835_29176" style="mask-type:luminance" maskUnits="userSpaceOnUse" x="0" y="0" width="63" height="88">
<path d="M59 0H4C1.79 0 0 1.79 0 4V84C0 86.21 1.79 88 4 88H59C61.21 88 63 86.21 63 84V4C63 1.79 61.21 0 59 0Z" fill="white"/>
</mask>
<g mask="url(#mask2_26835_29176)">
<path d="M57.61 36.73H5.37V65.46L31.37 81.95L57.61 65.46V36.73Z" fill="url(#paint8_linear_26835_29176)"/>
<path d="M1.45001 68.2397L12.42 85.9997H28.29L32.19 85.2497L35.32 85.9997H50.44L62.36 68.2397L30.89 80.5798L1.45001 68.2397Z" fill="url(#paint9_linear_26835_29176)"/>
<path d="M35.32 80.6001H28.29V85.9901H35.32V80.6001Z" fill="#1D103E"/>
<path d="M63.99 68.0099L63.34 67.1599C63.21 66.9799 62.96 66.9299 62.77 67.0399L36.62 81.4099C36.55 81.4499 36.48 81.4699 36.4 81.4699H27.21C27.13 81.4699 27.06 81.4499 26.99 81.4099L0.850005 67.0399C0.660005 66.9299 0.410005 66.9799 0.280005 67.1599L-0.369995 68.0099L26.94 83.0199C27.15 83.1399 27.29 83.3499 27.31 83.5799L27.37 84.1499C27.4 84.4799 27.62 84.7699 27.92 84.8999C30.78 86.1199 32.85 86.1199 35.71 84.8999C36.02 84.7699 36.23 84.4799 36.26 84.1499L36.32 83.5799C36.34 83.3399 36.48 83.1299 36.69 83.0199L64 68.0099H63.99Z" fill="#071D2A"/>
<path d="M61.88 67.5198L50.76 73.6398L34.09 82.8098L31.81 84.0598L29.79 82.9498L5.38998 69.5398L1.72998 67.5298L2.84998 66.0598L3.05998 65.7798L4.90998 66.7398L5.01998 66.7998L3.72998 64.8998L4.95998 63.2798C15.26 67.9598 24.54 72.8898 31.8 78.2898C39.82 71.8298 48.73 66.7798 58.64 63.2798L59.5 64.3998L60.06 65.1398L60.73 66.0098L59.78 66.8598L61.2 66.6298L61.88 67.5298V67.5198Z" fill="url(#paint10_linear_26835_29176)"/>
<path d="M59.5 64.3901L44.45 74.1801L60.06 65.1301L59.5 64.3901Z" fill="white"/>
<path d="M30.89 80.5798L29.65 83.2198L31.8 84.3998L34.23 83.0698L32.84 80.5198C32.41 79.7298 31.27 79.7698 30.89 80.5798Z" fill="#071D2A"/>
<path d="M11.37 70.71L2.84998 66.05L3.05998 65.77L4.90998 66.73L9.98998 69.58L11.37 70.71Z" fill="white"/>
</g>
<path d="M12.25 36.8599C11.91 37.3899 11.63 37.6699 11.1 38.0099C11.63 38.3499 11.91 38.6299 12.25 39.1599C12.59 38.6299 12.87 38.3499 13.4 38.0099C12.87 37.6699 12.59 37.3899 12.25 36.8599Z" fill="white"/>
<path d="M44.3 30.4102C43.96 30.9402 43.68 31.2202 43.15 31.5602C43.68 31.9002 43.96 32.1802 44.3 32.7102C44.64 32.1802 44.92 31.9002 45.45 31.5602C44.92 31.2202 44.64 30.9402 44.3 30.4102Z" fill="white"/>
<path d="M52.67 62.0398C53.0235 62.0398 53.31 61.7532 53.31 61.3998C53.31 61.0463 53.0235 60.7598 52.67 60.7598C52.3166 60.7598 52.03 61.0463 52.03 61.3998C52.03 61.7532 52.3166 62.0398 52.67 62.0398Z" fill="#FFC200"/>
<path d="M46.61 53.5398C46.9634 53.5398 47.25 53.2532 47.25 52.8998C47.25 52.5463 46.9634 52.2598 46.61 52.2598C46.2565 52.2598 45.97 52.5463 45.97 52.8998C45.97 53.2532 46.2565 53.5398 46.61 53.5398Z" fill="#FFEBB8"/>
<path d="M54.77 55.6101C55.1235 55.6101 55.41 55.3235 55.41 54.9701C55.41 54.6166 55.1235 54.3301 54.77 54.3301C54.4165 54.3301 54.13 54.6166 54.13 54.9701C54.13 55.3235 54.4165 55.6101 54.77 55.6101Z" fill="#FFEBB8"/>
<path d="M19.6 58.0798C19.9535 58.0798 20.24 57.7933 20.24 57.4398C20.24 57.0863 19.9535 56.7998 19.6 56.7998C19.2466 56.7998 18.96 57.0863 18.96 57.4398C18.96 57.7933 19.2466 58.0798 19.6 58.0798Z" fill="#FFEBB8"/>
<path d="M10.8 62.3098C11.1534 62.3098 11.44 62.0232 11.44 61.6698C11.44 61.3163 11.1534 61.0298 10.8 61.0298C10.4465 61.0298 10.16 61.3163 10.16 61.6698C10.16 62.0232 10.4465 62.3098 10.8 62.3098Z" fill="#FFC200"/>
<path d="M8.92003 56.3698C9.27349 56.3698 9.56003 56.0833 9.56003 55.7298C9.56003 55.3764 9.27349 55.0898 8.92003 55.0898C8.56657 55.0898 8.28003 55.3764 8.28003 55.7298C8.28003 56.0833 8.56657 56.3698 8.92003 56.3698Z" fill="#FFEBB8"/>
</g>
</g>
<path fill-rule="evenodd" clip-rule="evenodd" d="M6.49771 79C6.98969 79 7.48602 79.213 7.49037 79.6913C7.49037 80.1043 7.24656 80.2696 6.99839 80.2696C6.75023 80.2696 6.73281 80.1435 6.73281 80.1435C6.73281 80.1435 7.02452 79.9261 7.02452 79.7174C7.02452 79.6087 6.94179 79.313 6.489 79.3174C5.8577 79.3174 5.5181 79.6174 5.5181 80.1522C5.5181 80.7652 7.35105 80.9739 7.3554 81.7652C7.3554 82.613 6.47594 82.9957 5.69225 83C5.283 83 5.01306 82.7609 5.00871 82.3783C5.00871 81.9261 5.22204 81.4652 5.75756 81.4652C5.88382 81.4565 5.98831 81.5522 5.99702 81.6783C5.99702 81.6783 5.99702 81.6826 5.99702 81.687C5.99702 81.687 5.45715 81.8391 5.4615 82.3783C5.4615 82.4783 5.56599 82.6609 5.81851 82.6565C6.07103 82.6522 6.82424 82.4739 6.81989 81.8087C6.81989 81.1913 5.00435 81.1087 5 80.1478C5 79.0652 6.08845 79.0087 6.49771 79.0087V79ZM10.747 79.6C10.8123 79.5696 11.2129 79.4913 11.1955 79.813C11.1824 80.1348 10.9386 80.6913 10.9037 80.9348C11.2303 80.7696 11.6918 80.2087 11.6918 80.2087C11.6918 80.2087 12.0183 80.2522 11.9182 80.4522C11.818 80.6522 11.1519 81.1435 11.1519 81.1435C11.1519 81.1435 11.3043 82.5696 12.1707 82.5696C12.6453 82.5696 12.8499 82.3609 12.937 82.287C12.9587 82.2696 12.9762 82.2652 12.9849 82.2783C13.0197 82.387 12.9936 82.5043 12.9152 82.5913C12.8194 82.6957 12.5974 82.8217 12.1533 82.8261C11.3653 82.8261 10.9255 82.1957 10.8123 81.2609C10.7252 81.5348 10.7339 81.9826 10.7209 82.2C10.6948 82.2435 10.2507 82.4174 10.2158 82.1174C10.2158 82.0913 10.2158 82.0696 10.2158 82.0435C10.1331 82.1609 10.0199 82.2826 9.91108 82.2826C9.71951 82.2826 9.63679 82.1217 9.60196 82.0391C9.57584 82.0696 9.3625 82.287 9.08821 82.287C8.92277 82.2913 8.77474 82.1957 8.70943 82.0435C8.57011 82.1435 8.32195 82.2913 8.03895 82.2913C7.73418 82.2913 7.66017 82.1087 7.66017 81.9565C7.66017 81.713 7.84303 80.987 7.84303 80.987C7.84303 80.987 7.48602 81.1304 7.36411 81.1348C7.19431 81.1348 7.11159 80.8217 7.11159 80.813C7.11159 80.8087 7.11159 80.8 7.1203 80.8C7.22044 80.7609 7.94317 80.513 7.94317 80.513C7.94317 80.513 8.07813 79.9826 8.09555 79.913C8.11296 79.8435 8.2131 79.7 8.33065 79.6565C8.41773 79.6217 8.50916 79.6 8.60059 79.5913C8.63107 79.5913 8.65284 79.6 8.65284 79.6174C8.65284 79.6348 8.47433 80.4087 8.47433 80.4087C8.47433 80.4087 8.84876 80.3217 8.98808 80.3217C9.09692 80.3217 9.15352 80.387 9.09257 80.4696C9.03162 80.5522 8.96196 80.6478 8.92712 80.6913C8.88794 80.7348 8.86182 80.7435 8.77039 80.7609C8.64413 80.787 8.36113 80.8565 8.36113 80.8565C8.36113 80.8565 8.13473 81.6783 8.13909 81.8174C8.13909 81.8957 8.16521 81.987 8.26099 81.987C8.35678 81.987 8.53964 81.8739 8.67025 81.7913C8.69202 81.1522 9.18835 80.7261 9.57584 80.7261C9.7021 80.7261 9.65421 80.8478 9.79788 80.8478H9.88931C9.94591 80.8478 10.0069 80.8522 10.0069 80.9957C10.0069 81.1957 9.89367 81.5261 9.89367 81.7348C9.89367 81.8826 9.91544 81.987 9.97204 81.987C10.0678 81.987 10.1767 81.8478 10.255 81.7261C10.3813 81.0304 10.734 79.7609 10.734 79.6174L10.747 79.6ZM12.5016 80.7C12.7672 80.6783 12.9326 80.8217 12.9631 80.9C12.9936 80.9783 12.9892 81.1609 12.9152 81.2913C12.6845 81.7044 12.1097 81.6304 12.1097 81.6304C12.1097 81.6304 12.0444 81.9565 12.3405 81.9565C12.593 81.9565 12.7062 81.8304 12.8151 81.7261C12.8586 81.7261 12.9936 81.8652 12.9326 81.9609C12.8847 82.0348 12.6191 82.2565 12.2795 82.2609C11.7397 82.2609 11.6047 81.8 11.6744 81.4696C11.7658 81.0609 12.1751 80.7217 12.5016 80.6957V80.7ZM9.6455 80.987C9.32332 80.987 8.82699 81.9696 9.20577 81.9652C9.61938 81.9652 9.6455 81.1826 9.6455 81.0043V80.987ZM12.6409 80.8913C12.4232 80.9 12.1751 81.3174 12.1533 81.5C12.4798 81.513 12.654 81.1957 12.6757 81.0696C12.6888 80.9739 12.6932 80.887 12.6409 80.887V80.8913Z" fill="white"/>
<path d="M46.1444 79.3778L46.6412 80.278L47.6518 80.4733C47.7792 80.4988 47.8302 80.6559 47.741 80.7494L47.0361 81.5009L47.1635 82.5243C47.1805 82.6559 47.0446 82.7494 46.93 82.6942L46 82.2568L45.0701 82.6942C44.9512 82.7494 44.8196 82.6517 44.8366 82.5243L44.9639 81.5009L44.2591 80.7494C44.1699 80.6559 44.2208 80.4988 44.3482 80.4733L45.3588 80.278L45.8557 79.3778C45.9194 79.2632 46.085 79.2632 46.1444 79.3778Z" fill="#FFC200"/>
<path d="M46 79.2929C46.0552 79.2929 46.1147 79.3226 46.1444 79.3778L46.6412 80.278L47.6518 80.4733C47.7792 80.4988 47.8302 80.6559 47.741 80.7494L47.0361 81.5009L47.1635 82.5243C47.1763 82.6262 47.0955 82.7111 46.9979 82.7111C46.9766 82.7111 46.9512 82.7069 46.9257 82.6942L45.9957 82.2568L45.0658 82.6942C45.0403 82.7069 45.0191 82.7111 44.9936 82.7111C44.9002 82.7111 44.8153 82.6262 44.828 82.5243L44.9554 81.5009L44.2505 80.7494C44.1613 80.6559 44.2123 80.4988 44.3397 80.4733L45.3503 80.278L45.8471 79.3778C45.8768 79.3226 45.9363 79.2929 45.9915 79.2929M46 79.0806C45.8641 79.0806 45.7367 79.157 45.6688 79.2759L45.2187 80.0912L44.3057 80.2653C44.1698 80.2908 44.0594 80.3884 44.017 80.5201C43.9745 80.6517 44.0085 80.7961 44.1019 80.8937L44.7388 81.5731L44.6242 82.4946C44.6115 82.6007 44.6454 82.7111 44.7134 82.7918C44.7856 82.8725 44.8875 82.9192 44.9979 82.9192C45.0531 82.9192 45.1083 82.9065 45.1592 82.881L46 82.4861L46.8408 82.881C46.8917 82.9065 46.9469 82.9192 47.0021 82.9192C47.1125 82.9192 47.2144 82.8725 47.2866 82.7918C47.3588 82.7111 47.3928 82.6007 47.3758 82.4946L47.2611 81.5731L47.8981 80.8937C47.9915 80.7918 48.0255 80.6474 47.983 80.5201C47.9405 80.3884 47.8301 80.2908 47.6943 80.2653L46.7813 80.0912L46.3312 79.2759C46.2633 79.157 46.1359 79.0806 46 79.0806Z" fill="#213743"/>
<path d="M46 79.8152V80.9744C46 81.0678 46.0892 81.1315 46.1784 81.106L47.2187 80.7706C47.2739 80.7536 47.2697 80.6729 47.2102 80.6602L46.5563 80.5413C46.4969 80.5286 46.4417 80.4903 46.4119 80.4351L46.085 79.7939C46.0637 79.7515 45.9958 79.7642 45.9958 79.8152H46Z" fill="#FFEBB8"/>
<path d="M46 81.4924V82.0699C46 82.1039 46.017 82.1294 46.0467 82.1464L46.7983 82.5073C46.8365 82.5243 46.8705 82.4818 46.845 82.4479L46.0934 81.4627C46.0637 81.4245 46 81.4457 46 81.4924Z" fill="#FF7F00"/>
<path d="M51.1444 79.3778L51.6412 80.278L52.6518 80.4733C52.7792 80.4988 52.8302 80.6559 52.741 80.7494L52.0361 81.5009L52.1635 82.5243C52.1805 82.6559 52.0446 82.7494 51.93 82.6942L51 82.2568L50.0701 82.6942C49.9512 82.7494 49.8196 82.6517 49.8366 82.5243L49.9639 81.5009L49.2591 80.7494C49.1699 80.6559 49.2208 80.4988 49.3482 80.4733L50.3588 80.278L50.8557 79.3778C50.9194 79.2632 51.085 79.2632 51.1444 79.3778Z" fill="#FFC200"/>
<path d="M51 79.2929C51.0552 79.2929 51.1147 79.3226 51.1444 79.3778L51.6412 80.278L52.6518 80.4733C52.7792 80.4988 52.8302 80.6559 52.741 80.7494L52.0361 81.5009L52.1635 82.5243C52.1763 82.6262 52.0955 82.7111 51.9979 82.7111C51.9766 82.7111 51.9512 82.7069 51.9257 82.6942L50.9957 82.2568L50.0658 82.6942C50.0403 82.7069 50.0191 82.7111 49.9936 82.7111C49.9002 82.7111 49.8153 82.6262 49.828 82.5243L49.9554 81.5009L49.2505 80.7494C49.1613 80.6559 49.2123 80.4988 49.3397 80.4733L50.3503 80.278L50.8471 79.3778C50.8768 79.3226 50.9363 79.2929 50.9915 79.2929M51 79.0806C50.8641 79.0806 50.7367 79.157 50.6688 79.2759L50.2187 80.0912L49.3057 80.2653C49.1698 80.2908 49.0594 80.3884 49.017 80.5201C48.9745 80.6517 49.0085 80.7961 49.1019 80.8937L49.7388 81.5731L49.6242 82.4946C49.6115 82.6007 49.6454 82.7111 49.7134 82.7918C49.7856 82.8725 49.8875 82.9192 49.9979 82.9192C50.0531 82.9192 50.1083 82.9065 50.1592 82.881L51 82.4861L51.8408 82.881C51.8917 82.9065 51.9469 82.9192 52.0021 82.9192C52.1125 82.9192 52.2144 82.8725 52.2866 82.7918C52.3588 82.7111 52.3928 82.6007 52.3758 82.4946L52.2611 81.5731L52.8981 80.8937C52.9915 80.7918 53.0255 80.6474 52.983 80.5201C52.9405 80.3884 52.8301 80.2908 52.6943 80.2653L51.7813 80.0912L51.3312 79.2759C51.2633 79.157 51.1359 79.0806 51 79.0806Z" fill="#213743"/>
<path d="M51 79.8152V80.9744C51 81.0678 51.0892 81.1315 51.1784 81.106L52.2187 80.7706C52.2739 80.7536 52.2697 80.6729 52.2102 80.6602L51.5563 80.5413C51.4969 80.5286 51.4417 80.4903 51.4119 80.4351L51.085 79.7939C51.0637 79.7515 50.9958 79.7642 50.9958 79.8152H51Z" fill="#FFEBB8"/>
<path d="M51 81.4924V82.0699C51 82.1039 51.017 82.1294 51.0467 82.1464L51.7983 82.5073C51.8365 82.5243 51.8705 82.4818 51.845 82.4479L51.0934 81.4627C51.0637 81.4245 51 81.4457 51 81.4924Z" fill="#FF7F00"/>
<path d="M56.1444 79.3778L56.6412 80.278L57.6518 80.4733C57.7792 80.4988 57.8302 80.6559 57.741 80.7494L57.0361 81.5009L57.1635 82.5243C57.1805 82.6559 57.0446 82.7494 56.93 82.6942L56 82.2568L55.0701 82.6942C54.9512 82.7494 54.8196 82.6517 54.8366 82.5243L54.9639 81.5009L54.2591 80.7494C54.1699 80.6559 54.2208 80.4988 54.3482 80.4733L55.3588 80.278L55.8557 79.3778C55.9194 79.2632 56.085 79.2632 56.1444 79.3778Z" fill="#FFC200"/>
<path d="M56 79.2929C56.0552 79.2929 56.1147 79.3226 56.1444 79.3778L56.6412 80.278L57.6518 80.4733C57.7792 80.4988 57.8302 80.6559 57.741 80.7494L57.0361 81.5009L57.1635 82.5243C57.1763 82.6262 57.0955 82.7111 56.9979 82.7111C56.9766 82.7111 56.9512 82.7069 56.9257 82.6942L55.9957 82.2568L55.0658 82.6942C55.0403 82.7069 55.0191 82.7111 54.9936 82.7111C54.9002 82.7111 54.8153 82.6262 54.828 82.5243L54.9554 81.5009L54.2505 80.7494C54.1613 80.6559 54.2123 80.4988 54.3397 80.4733L55.3503 80.278L55.8471 79.3778C55.8768 79.3226 55.9363 79.2929 55.9915 79.2929M56 79.0806C55.8641 79.0806 55.7367 79.157 55.6688 79.2759L55.2187 80.0912L54.3057 80.2653C54.1698 80.2908 54.0594 80.3884 54.017 80.5201C53.9745 80.6517 54.0085 80.7961 54.1019 80.8937L54.7388 81.5731L54.6242 82.4946C54.6115 82.6007 54.6454 82.7111 54.7134 82.7918C54.7856 82.8725 54.8875 82.9192 54.9979 82.9192C55.0531 82.9192 55.1083 82.9065 55.1592 82.881L56 82.4861L56.8408 82.881C56.8917 82.9065 56.9469 82.9192 57.0021 82.9192C57.1125 82.9192 57.2144 82.8725 57.2866 82.7918C57.3588 82.7111 57.3928 82.6007 57.3758 82.4946L57.2611 81.5731L57.8981 80.8937C57.9915 80.7918 58.0255 80.6474 57.983 80.5201C57.9405 80.3884 57.8301 80.2908 57.6943 80.2653L56.7813 80.0912L56.3312 79.2759C56.2633 79.157 56.1359 79.0806 56 79.0806Z" fill="#213743"/>
<path d="M56 79.8152V80.9744C56 81.0678 56.0892 81.1315 56.1784 81.106L57.2187 80.7706C57.2739 80.7536 57.2697 80.6729 57.2102 80.6602L56.5563 80.5413C56.4969 80.5286 56.4417 80.4903 56.4119 80.4351L56.085 79.7939C56.0637 79.7515 55.9958 79.7642 55.9958 79.8152H56Z" fill="#FFEBB8"/>
<path d="M56 81.4924V82.0699C56 82.1039 56.017 82.1294 56.0467 82.1464L56.7983 82.5073C56.8365 82.5243 56.8705 82.4818 56.845 82.4479L56.0934 81.4627C56.0637 81.4245 56 81.4457 56 81.4924Z" fill="#FF7F00"/>
<rect x="13" y="62" width="37" height="13" rx="6.5" fill="#2F4553"/>
<path d="M27.7214 70H26.6894V67.318L26.0174 67.996L25.4294 67.378L26.8274 65.998H27.7214V70ZM29.937 70.072C29.229 70.072 28.695 69.856 28.323 69.49L28.887 68.77C29.163 69.022 29.541 69.16 29.925 69.16C30.363 69.16 30.579 68.944 30.579 68.698C30.579 68.428 30.369 68.236 29.955 68.236C29.637 68.236 29.385 68.326 29.163 68.536L28.449 68.362V65.998H31.353V66.898H29.481V67.672C29.673 67.486 29.985 67.354 30.339 67.354C31.017 67.354 31.629 67.852 31.629 68.656C31.629 69.52 30.975 70.072 29.937 70.072ZM33.6581 70.072C32.4881 70.072 31.9421 69.058 31.9421 68.002C31.9421 66.946 32.4881 65.938 33.6581 65.938C34.8281 65.938 35.3741 66.946 35.3741 68.002C35.3741 69.058 34.8281 70.072 33.6581 70.072ZM33.6581 69.16C34.1381 69.16 34.3301 68.71 34.3301 68.002C34.3301 67.294 34.1381 66.85 33.6581 66.85C33.1781 66.85 32.9861 67.294 32.9861 68.002C32.9861 68.71 33.1781 69.16 33.6581 69.16ZM38.6383 70H37.6243L37.0663 69.124L36.5023 70H35.4943L36.4843 68.512L35.5543 67.102H36.5683L37.0663 67.888L37.5583 67.102H38.5723L37.6483 68.512L38.6383 70Z" fill="white"/>
<path d="M7.69 11H5.33V7.665H7.69V8.29H6.04V8.995H7.655V9.62H6.04V10.375H7.69V11ZM9.61004 11.06C9.32504 11.06 9.06004 10.94 8.86504 10.69V11.92H8.23004V8.585H8.86504V8.89C9.05004 8.655 9.31504 8.525 9.61004 8.525C10.23 8.525 10.68 8.985 10.68 9.79C10.68 10.595 10.23 11.06 9.61004 11.06ZM9.41004 10.495C9.77504 10.495 10.02 10.21 10.02 9.79C10.02 9.375 9.77504 9.09 9.41004 9.09C9.20504 9.09 8.97004 9.21 8.86504 9.365V10.22C8.97004 10.37 9.20504 10.495 9.41004 10.495ZM11.4601 8.325C11.2551 8.325 11.0801 8.155 11.0801 7.945C11.0801 7.735 11.2551 7.57 11.4601 7.57C11.6701 7.57 11.8401 7.735 11.8401 7.945C11.8401 8.155 11.6701 8.325 11.4601 8.325ZM11.7801 11H11.1451V8.585H11.7801V11ZM13.5347 11.06C12.7897 11.06 12.2547 10.535 12.2547 9.79C12.2547 9.05 12.7897 8.525 13.5347 8.525C14.0297 8.525 14.3297 8.74 14.4897 8.96L14.0747 9.35C13.9597 9.18 13.7847 9.09 13.5647 9.09C13.1797 9.09 12.9097 9.37 12.9097 9.79C12.9097 10.21 13.1797 10.495 13.5647 10.495C13.7847 10.495 13.9597 10.395 14.0747 10.235L14.4897 10.62C14.3297 10.845 14.0297 11.06 13.5347 11.06Z" fill="#05080A"/>
<path d="M49.6194 11H49.1674L47.7754 9.096V11H47.3074V8.332H47.7874L49.1514 10.184V8.332H49.6194V11ZM51.0463 11.048C50.4343 11.048 50.0543 10.588 50.0543 10.032C50.0543 9.48 50.4343 9.02 51.0463 9.02C51.6663 9.02 52.0423 9.48 52.0423 10.032C52.0423 10.588 51.6663 11.048 51.0463 11.048ZM51.0463 10.676C51.4063 10.676 51.6063 10.376 51.6063 10.032C51.6063 9.692 51.4063 9.392 51.0463 9.392C50.6903 9.392 50.4903 9.692 50.4903 10.032C50.4903 10.376 50.6903 10.676 51.0463 10.676ZM52.6638 11.044C52.5118 11.044 52.3838 10.916 52.3838 10.764C52.3838 10.612 52.5118 10.484 52.6638 10.484C52.8158 10.484 52.9438 10.612 52.9438 10.764C52.9438 10.916 52.8158 11.044 52.6638 11.044ZM55.4196 11H54.9516V8.94L54.5156 9.392L54.2436 9.108L55.0116 8.332H55.4196V11ZM56.8071 11.048C56.3311 11.048 55.9791 10.856 55.7991 10.616L56.0511 10.308C56.2231 10.508 56.5071 10.632 56.7911 10.632C57.1431 10.632 57.3471 10.472 57.3471 10.224C57.3471 9.96 57.1351 9.848 56.7551 9.848C56.6431 9.848 56.4871 9.848 56.4471 9.852V9.432C56.4951 9.436 56.6511 9.436 56.7551 9.436C57.0671 9.436 57.3031 9.328 57.3031 9.084C57.3031 8.836 57.0631 8.708 56.7631 8.708C56.4911 8.708 56.2671 8.812 56.0751 9.004L55.8351 8.712C56.0391 8.472 56.3631 8.292 56.8071 8.292C57.3831 8.292 57.7711 8.564 57.7711 9.012C57.7711 9.368 57.4671 9.576 57.1911 9.624C57.4511 9.648 57.8111 9.86 57.8111 10.272C57.8111 10.724 57.4231 11.048 56.8071 11.048Z" fill="white"/>
<defs>
<linearGradient id="paint0_linear_26835_29176" x1="37.8344" y1="86.256" x2="23.263" y2="1.76" gradientUnits="userSpaceOnUse">
<stop stop-color="#55EEFF"/>
<stop offset="0.09" stop-color="#6CABFF"/>
<stop offset="0.23" stop-color="#8C4FFF"/>
<stop offset="0.32" stop-color="#A016FF"/>
<stop offset="0.37" stop-color="#A800FF"/>
<stop offset="0.44" stop-color="#C043D4"/>
<stop offset="0.51" stop-color="#D680AF"/>
<stop offset="0.58" stop-color="#E8B091"/>
<stop offset="0.64" stop-color="#F4D27B"/>
<stop offset="0.69" stop-color="#FCE76E"/>
<stop offset="0.72" stop-color="#FFEF6A"/>
<stop offset="0.81" stop-color="#BCF589"/>
<stop offset="0.9" stop-color="#84FAA3"/>
<stop offset="0.97" stop-color="#62FDB3"/>
<stop offset="1" stop-color="#55FFBA"/>
</linearGradient>
<linearGradient id="paint1_linear_26835_29176" x1="31.5" y1="87.2602" x2="31.5" y2="0.740234" gradientUnits="userSpaceOnUse">
<stop stop-color="#5F1B8B"/>
<stop offset="1" stop-color="#3E105C"/>
</linearGradient>
<linearGradient id="paint2_linear_26835_29176" x1="57.77" y1="86.3601" x2="26.53" y2="13.7601" gradientUnits="userSpaceOnUse">
<stop stop-color="#55EEFF"/>
<stop offset="0.09" stop-color="#6CABFF"/>
<stop offset="0.23" stop-color="#8C4FFF"/>
<stop offset="0.32" stop-color="#A016FF"/>
<stop offset="0.37" stop-color="#A800FF"/>
<stop offset="0.44" stop-color="#C043D4"/>
<stop offset="0.51" stop-color="#D680AF"/>
<stop offset="0.58" stop-color="#E8B091"/>
<stop offset="0.64" stop-color="#F4D27B"/>
<stop offset="0.69" stop-color="#FCE76E"/>
<stop offset="0.72" stop-color="#FFEF6A"/>
<stop offset="0.81" stop-color="#BCF589"/>
<stop offset="0.9" stop-color="#84FAA3"/>
<stop offset="0.97" stop-color="#62FDB3"/>
<stop offset="1" stop-color="#55FFBA"/>
</linearGradient>
<linearGradient id="paint3_linear_26835_29176" x1="51.08" y1="89.51" x2="19.74" y2="16.67" gradientUnits="userSpaceOnUse">
<stop stop-color="#55EEFF"/>
<stop offset="0.09" stop-color="#6CABFF"/>
<stop offset="0.23" stop-color="#8C4FFF"/>
<stop offset="0.32" stop-color="#A016FF"/>
<stop offset="0.37" stop-color="#A800FF"/>
<stop offset="0.44" stop-color="#C043D4"/>
<stop offset="0.51" stop-color="#D680AF"/>
<stop offset="0.58" stop-color="#E8B091"/>
<stop offset="0.64" stop-color="#F4D27B"/>
<stop offset="0.69" stop-color="#FCE76E"/>
<stop offset="0.72" stop-color="#FFEF6A"/>
<stop offset="0.81" stop-color="#BCF589"/>
<stop offset="0.9" stop-color="#84FAA3"/>
<stop offset="0.97" stop-color="#62FDB3"/>
<stop offset="1" stop-color="#55FFBA"/>
</linearGradient>
<linearGradient id="paint4_linear_26835_29176" x1="31.89" y1="12.9298" x2="31.89" y2="35.5498" gradientUnits="userSpaceOnUse">
<stop stop-color="#3B126B"/>
<stop offset="1" stop-color="#2C0066" stop-opacity="0"/>
</linearGradient>
<linearGradient id="paint5_linear_26835_29176" x1="26.12" y1="12.8999" x2="26.12" y2="34.2599" gradientUnits="userSpaceOnUse">
<stop stop-color="#3B126B"/>
<stop offset="1" stop-color="#2C0066" stop-opacity="0"/>
</linearGradient>
<linearGradient id="paint6_linear_26835_29176" x1="37.57" y1="12.9002" x2="37.57" y2="34.2602" gradientUnits="userSpaceOnUse">
<stop stop-color="#3B126B"/>
<stop offset="1" stop-color="#2C0066" stop-opacity="0"/>
</linearGradient>
<linearGradient id="paint7_linear_26835_29176" x1="31.79" y1="28.1202" x2="31.79" y2="22.9602" gradientUnits="userSpaceOnUse">
<stop stop-color="#FFA670" stop-opacity="0"/>
<stop offset="0.52" stop-color="#DE0053"/>
<stop offset="1" stop-color="#C10046" stop-opacity="0"/>
</linearGradient>
<linearGradient id="paint8_linear_26835_29176" x1="31.49" y1="82.44" x2="31.49" y2="40.21" gradientUnits="userSpaceOnUse">
<stop stop-color="#FFC631"/>
<stop offset="1" stop-color="#FFC932" stop-opacity="0"/>
</linearGradient>
<linearGradient id="paint9_linear_26835_29176" x1="31.91" y1="89.7698" x2="31.91" y2="59.9897" gradientUnits="userSpaceOnUse">
<stop stop-color="#5F1B8B"/>
<stop offset="1"/>
</linearGradient>
<linearGradient id="paint10_linear_26835_29176" x1="1.72998" y1="73.6598" x2="61.88" y2="73.6598" gradientUnits="userSpaceOnUse">
<stop stop-color="#FFEBB8"/>
<stop offset="1" stop-color="#FFC200"/>
</linearGradient>
<clipPath id="clip0_26835_29176">
<rect width="63" height="88" fill="white"/>
</clipPath>
<clipPath id="clip1_26835_29176">
<rect width="63" height="88" fill="white"/>
</clipPath>
</defs>
</svg>
