<svg width="63" height="88" viewBox="0 0 63 88" fill="none" xmlns="http://www.w3.org/2000/svg">
<rect width="63" height="88" rx="4" fill="url(#paint0_linear_26835_29177)"/>
<g clip-path="url(#clip0_26835_29177)">
<g clip-path="url(#clip1_26835_29177)">
<path d="M56.44 0.740234H6.56003C3.22975 0.740234 0.530029 3.43996 0.530029 6.77023V81.2302C0.530029 84.5605 3.22975 87.2602 6.56003 87.2602H56.44C59.7703 87.2602 62.47 84.5605 62.47 81.2302V6.77023C62.47 3.43996 59.7703 0.740234 56.44 0.740234Z" fill="url(#paint1_linear_26835_29177)"/>
<path d="M7.70003 13.0601L8.82003 25.7401L13.27 26.2701L12.43 28.5801H7.70003L8.08003 31.5701H9.46003L16.09 86.2801H3.94003L2.03003 84.1201V13.0601H7.70003Z" fill="url(#paint2_linear_26835_29177)"/>
<path d="M55.73 1.3501L54.61 26.0201L50.16 26.5501L51 28.8501H55.73L55.35 31.8401H53.98L47.34 86.5501H59.49L61.4 84.4001V1.3501H55.73Z" fill="url(#paint3_linear_26835_29177)"/>
<path d="M61.4 28.8604H58.58V31.6804H61.4V28.8604Z" fill="#871787"/>
<path d="M4.62005 28.5801H1.80005V31.4001H4.62005V28.5801Z" fill="#871787"/>
<path d="M7.8 59H4.2C4.08954 59 4 59.0895 4 59.2V60.8C4 60.9105 4.08954 61 4.2 61H7.8C7.91046 61 8 60.9105 8 60.8V59.2C8 59.0895 7.91046 59 7.8 59Z" fill="#A70E6D"/>
<path d="M9.8 62H6.2C6.08954 62 6 62.0895 6 62.2V63.8C6 63.9105 6.08954 64 6.2 64H9.8C9.91046 64 10 63.9105 10 63.8V62.2C10 62.0895 9.91046 62 9.8 62Z" fill="#A70E6D"/>
<path d="M58.8 70H55.2C55.0895 70 55 70.0895 55 70.2V71.8C55 71.9105 55.0895 72 55.2 72H58.8C58.9105 72 59 71.9105 59 71.8V70.2C59 70.0895 58.9105 70 58.8 70Z" fill="#A70E6D"/>
<path d="M3.92999 1.3501C2.85999 1.3501 1.42999 3.4401 1.42999 4.5001L1.99999 18.1901C1.99999 16.4301 3.42999 15.0001 5.18999 15.0001H33.59C34.8 15.0001 35.94 14.4501 36.7 13.5101L44.8 3.4801C45.56 2.5401 46.7 1.9901 47.91 1.9901L3.92999 1.3501Z" fill="url(#paint4_linear_26835_29177)"/>
<path d="M22.56 8.06006C22.56 8.06006 17.63 10.9101 17.63 15.0001H20.62L22.56 8.06006Z" fill="#008978"/>
<path d="M19.73 15.0198H34.62C34.62 15.0198 31.76 8.84984 26.9 8.88984C22.04 8.92984 19.73 14.3498 19.73 15.0198Z" fill="#008978"/>
<path d="M59 0H4C1.79 0 0 1.79 0 4V84C0 86.21 1.79 88 4 88H59C61.21 88 63 86.21 63 84V4C63 1.79 61.21 0 59 0ZM61 82.81C61 84.57 59.57 86 57.81 86H5.19C3.43 86 2 84.57 2 82.81V16.9C2 8.67 8.67 2 16.9 2H57.81C59.57 2 61 3.43 61 5.19V82.81Z" fill="url(#paint5_linear_26835_29177)"/>
<mask id="mask0_26835_29177" style="mask-type:luminance" maskUnits="userSpaceOnUse" x="0" y="0" width="63" height="88">
<path d="M59 0H4C1.79 0 0 1.79 0 4V84C0 86.21 1.79 88 4 88H59C61.21 88 63 86.21 63 84V4C63 1.79 61.21 0 59 0ZM61 82.81C61 84.57 59.57 86 57.81 86H5.19C3.43 86 2 84.57 2 82.81V18.19C2 16.43 3.43 15 5.19 15H33.59C34.8 15 35.94 14.45 36.7 13.51L44.8 3.48C45.56 2.54 46.7 1.99 47.91 1.99H57.81C59.57 1.99 61 3.42 61 5.18V82.8V82.81Z" fill="white"/>
</mask>
<g mask="url(#mask0_26835_29177)">
<path d="M68.37 47.3101V26.6401L4.46002 90.5501H25.13L68.37 47.3101Z" fill="white"/>
<path d="M64.66 -2.29004H55.22L-2.91998 55.84V66.18L65.46 -2.20004C65.2 -2.26004 64.93 -2.29004 64.66 -2.29004Z" fill="white"/>
<path d="M68.37 69.2298V61.5498L39.37 90.5498H47.05L68.37 69.2298Z" fill="white"/>
</g>
<path d="M17.06 48.2398C17.06 48.2398 21.68 50.3198 30.07 48.5798L26.02 44.5498L17.07 48.2498L17.06 48.2398Z" fill="#979EDB"/>
<path d="M51.22 62.8602L41.55 66.5102C43.14 72.0002 33.35 83.1702 29.64 70.6702C25.93 58.1702 35.28 44.0102 35.28 44.0102L34.09 40.9502L27.73 44.9902C11.33 60.9002 19.9 88.5502 36.89 86.4402C53.89 84.3302 51.22 62.8602 51.22 62.8602Z" fill="white"/>
<path d="M45.76 68.4702L40.81 71.4002C40.81 71.4002 40.11 72.6302 39.51 73.4802C39.51 73.4802 45.89 69.2302 50.6 73.2302C50.6 73.2302 51.47 70.0602 51.36 67.4502L45.77 68.4802L45.76 68.4702Z" fill="#979EDB"/>
<path d="M24.07 20.1002C24.07 20.1002 25.43 19.3202 25.57 18.1602C25.57 18.1602 25.37 20.3302 24.53 20.2602L24.36 20.8102L24.07 20.1102V20.1002Z" fill="white"/>
<path d="M25.76 17.3999C25.6 18.5399 25.25 19.6799 24.54 20.2499C24.54 20.2499 24.22 21.5299 24.89 21.6199C25.55 21.6999 26.84 21.6999 27.14 20.7599C27.21 20.5499 27.37 20.0299 27.57 19.3699C27.03 18.5099 26.34 17.8499 25.76 17.3999Z" fill="#A7528B"/>
<path d="M28.79 11.3901L28.14 11.5001L23.91 14.3601H25.85C25.85 14.3601 25.97 15.8701 25.75 17.4101C26.33 17.8601 27.01 18.5101 27.56 19.3801C28.24 17.1501 29.42 13.2001 29.42 13.2001L28.79 11.4001V11.3901Z" fill="#213743"/>
<path d="M46.5 21.5702C46.5 21.5702 45.39 11.9302 37.72 7.48019C30.05 3.03019 23.57 5.81019 21.77 8.05019C19.98 10.2902 17.45 16.5702 19.36 17.3502C19.36 17.3502 19.73 16.0902 20.13 16.0902C20.13 16.0902 21.41 17.5002 22.21 16.7002C23.01 15.9002 24.17 14.4602 25.68 13.9702C27.19 13.4802 28.21 13.0702 28.78 11.4002C29.35 9.73019 30.65 9.72019 30.65 9.72019L46.49 21.5702H46.5Z" fill="white"/>
<path d="M33.29 9.14014C32.46 9.57014 31.6 9.85014 30.66 9.72014L31.61 12.8101C31.61 12.8101 45.89 20.4201 33.57 38.2501C21.25 56.0801 29.65 70.6701 29.65 70.6701C29.65 70.6701 26.85 58.7801 39.28 44.9101C50.46 32.4301 50.19 12.1401 33.29 9.14014Z" fill="#C4C5F1"/>
<path d="M38.82 27.1001L38.64 27.7401L43.5 27.5601L38.82 27.1001Z" fill="#E7E8F7"/>
<path d="M34.54 39.3301C34.54 39.3301 35.61 37.5801 36.02 37.5801C36.43 37.5801 40.64 39.7401 40.64 40.0701C40.64 40.4001 39.59 42.2701 39.59 42.2701L34.53 39.3301H34.54Z" fill="#AFB3E8"/>
<path d="M23.1 9.80006L22.99 9.61006C22.99 9.61006 24.07 8.99006 24.72 9.63006L24.57 9.78006C24.04 9.25006 23.12 9.78006 23.11 9.78006L23.1 9.80006Z" fill="#C4C5F1"/>
<path d="M24.2 12.0102L23.57 12.5602C23.57 12.5602 25.56 12.7502 26.75 11.6302C27.64 10.7902 27.5 9.96019 27.5 9.96019L28.14 9.50019C28.14 9.50019 27.65 9.29019 27.16 9.39019C27.16 9.39019 26.35 8.65019 25.1 9.13019C23.85 9.61019 24.2 12.0102 24.2 12.0102Z" fill="#213743"/>
<path d="M25.19 11.9501C25.06 11.9901 24.93 11.9201 24.89 11.7901C24.75 11.2801 24.5 10.0101 25.29 9.55009C26.17 9.04009 26.7 9.96009 26.82 10.2001C26.84 10.2401 26.85 10.2801 26.85 10.3201C26.84 10.5801 26.69 11.5201 25.19 11.9501Z" fill="#FFC200"/>
<path d="M25.45 9.89014C25.45 9.89014 25.08 10.9001 26.05 11.3401C26.05 11.3401 26.4 10.3201 25.45 9.89014Z" fill="#213743"/>
<path d="M19.36 15.5898C19.36 15.5898 19.01 16.7598 19.37 17.3498C19.37 17.3498 19.91 18.1798 21.34 18.7698C21.34 18.7698 20.14 17.6098 19.89 16.9998C19.89 16.9998 19.85 16.3798 20.14 16.0898L19.35 15.5998L19.36 15.5898Z" fill="#C4C5F1"/>
<path d="M21.58 16.4099L21.46 16.7199C21.46 16.7199 22.26 18.3299 23.42 18.7799C23.42 18.7799 22.36 16.8399 22.2 16.1499L21.59 16.4199L21.58 16.4099Z" fill="white"/>
<path d="M16.03 40.9501C16.03 40.9501 13.97 39.9701 13.56 36.7001C11.57 36.5701 10.79 38.1001 10.53 39.8601C10.73 41.5001 11.44 43.1401 12.96 44.6601L16.03 40.9501Z" fill="#C4C5F1"/>
<path d="M13.56 36.69C13.38 35.26 13.51 33.39 14.28 30.96C14.41 30.55 13.84 30.28 13.59 30.63C12.15 32.64 10.09 36.22 10.54 39.85C11.22 38.7 12.21 37.47 13.57 36.69H13.56Z" fill="white"/>
<path d="M38.3 29.6602C38.3 29.6602 40.13 29.9102 41.36 30.5002C41.53 30.5802 41.6 30.7902 41.53 30.9702C41 32.2102 38.98 37.0102 37.75 41.3102L35.98 40.5002L38.3 29.6702V29.6602Z" fill="#979EDB"/>
<path d="M37.2 25.7501L24.59 23.1001C24.32 23.0401 24.05 23.1901 23.94 23.4401L19.19 34.6601C19.16 34.7401 19.13 34.8101 19.11 34.8901L18.3 37.5701C18.19 37.9301 18.41 38.3001 18.77 38.3901L34.75 42.3201C35.04 42.3901 35.33 42.2301 35.43 41.9501L40.14 28.4201C40.23 28.1701 40.15 27.8801 39.95 27.7101L38.21 26.2301C37.92 25.9901 37.58 25.8201 37.22 25.7401L37.2 25.7501Z" fill="#FFC200"/>
<path d="M18.29 37.5699L19.02 35.1699L19.29 37.4199L18.29 37.5699Z" fill="white"/>
<path d="M34.33 36.16L35.6 33.04C35.6 33.04 36.37 35.16 37.59 35.05L36.54 38.14L34.33 36.16Z" fill="#2F4553"/>
<path d="M19.12 37.43C19.12 37.43 21.6 34.52 24.55 34.52L32.4 34.83C32.4 34.83 35.4 35.32 36.76 38.07L35.96 40.49L19.11 37.42L19.12 37.43Z" fill="#FF5500"/>
<path d="M20.58 33.7L24.54 24.35C24.62 24.16 24.82 24.06 25.02 24.1L36.04 26.42C36.29 26.47 36.44 26.74 36.35 26.98L32.68 36.7C32.6 36.9 32.39 37.01 32.19 36.96L20.89 34.27C20.64 34.21 20.5 33.93 20.6 33.69L20.58 33.7Z" fill="#FFEBB8"/>
<path d="M21.81 33.2298L25.17 25.2998C25.22 25.1898 25.33 25.1298 25.45 25.1498L34.97 27.1498C35.12 27.1798 35.21 27.3398 35.15 27.4798L32.04 35.7298C32 35.8498 31.87 35.9098 31.75 35.8798L21.99 33.5598C21.84 33.5198 21.76 33.3598 21.82 33.2198L21.81 33.2298Z" fill="#FFC200"/>
<path d="M41.17 63.7501C41.17 63.7501 39.76 52.7101 31.01 48.3601C22.26 44.0201 15.16 47.9201 20.82 55.4101C20.82 55.4101 18.63 60.3601 18.99 67.4101C18.99 67.4101 9.83002 60.9701 8.89002 53.9201C7.95002 46.8601 9.54002 40.4601 18.03 37.2401C26.51 34.0201 42.63 37.6901 50.09 56.4901C50.09 56.4901 45.96 63.7101 41.17 63.7501Z" fill="white"/>
<path d="M57.04 46.5702C54.9 46.2502 52.99 48.7302 51.71 49.9402C52.04 54.2202 46.05 63.5602 30.16 61.2202C30.16 61.2202 28.34 66.7802 29.92 71.5902C29.92 71.5902 43.98 74.2402 54.75 64.9402C58.84 61.4002 61.39 56.6402 61.81 52.0602C61.23 49.9402 59.59 46.9502 57.03 46.5702H57.04Z" fill="white"/>
<path d="M44.31 37.25C44.31 37.25 43.08 40.06 40.91 42.89C41.21 42.81 44.35 46.02 44.39 46.57C44.39 46.57 49.05 45.54 51.25 48.54C51.51 48.89 51.66 49.37 51.71 49.94C52.99 48.73 54.9 47.44 57.04 47.76C59.6 48.14 61.24 49.94 61.82 52.06C62.5 44.6 57.52 37.62 44.31 37.25Z" fill="#C4C5F1"/>
<path d="M30.66 9.70996C30.66 9.70996 28.92 9.80996 28.64 10.93C28.64 10.93 29.56 11.66 29.35 12.99C29.14 14.32 27.29 19.84 27.29 19.84C27.29 19.84 26.7 22.1 25.23 21.61L24.29 21.31C24.29 21.31 24.72 22.57 25.94 22.34C27.16 22.11 28.04 20.59 28.31 18.89C28.58 17.19 30.76 13.04 31.61 12.79L31.58 10.61L30.66 9.70996Z" fill="#C4C5F1"/>
<path d="M28.63 10.9302C28.63 10.9302 29.11 12.5702 28.47 13.9702C27.26 16.5902 27.8 20.6902 25.96 21.3302C24.42 21.8702 24.53 20.2502 24.53 20.2502L24.18 20.4702C24.18 20.4702 23.92 21.9602 25.43 21.9602C26.94 21.9602 27.67 21.0002 28.24 18.0202C28.81 15.0402 30.79 13.5102 30.91 11.8402C31.03 10.1702 29.56 9.8002 28.63 10.9202V10.9302Z" fill="white"/>
<path d="M20.21 15.3602C20.21 15.3602 20.98 16.1202 21.29 16.0802C21.6 16.0402 20.17 15.0602 20.21 15.3602Z" fill="#C4C5F1"/>
<path d="M19.87 13.1702L19.76 12.9802C19.81 12.9502 20.96 12.2902 21.63 12.8202C21.8 12.6602 22.24 12.3202 22.82 12.3202H22.83L22.21 11.3302L22.39 11.2202L23.25 12.6002L23.02 12.5602C22.28 12.4402 21.72 13.0402 21.71 13.0502L21.63 13.1302L21.55 13.0502C21.01 12.5102 19.87 13.1702 19.86 13.1702H19.87Z" fill="#C4C5F1"/>
<path d="M21.49 11.6899L21.43 11.4799C21.78 11.3699 22.7 10.9999 22.79 10.5699C22.82 10.4199 22.75 10.2799 22.57 10.1199L22.47 10.0399L25.12 7.85986L25.26 8.02986L22.8 10.0499C22.97 10.2299 23.04 10.4199 23 10.6199C22.87 11.2499 21.63 11.6499 21.49 11.6899Z" fill="#C4C5F1"/>
<path d="M32.76 6.7998L32.44 7.4898L33.71 8.0098L33.97 7.1098L32.76 6.7998Z" fill="#E7E8F7"/>
<path d="M34.97 8.5498L34.54 9.1698L35.4 9.8798L36.03 9.2998L34.97 8.5498Z" fill="#C4C5F1"/>
<path d="M37.44 8.60986L37.05 9.20986L37.9 10.1899L38.33 9.57986L37.44 8.60986Z" fill="#C4C5F1"/>
<path d="M39.14 9.08984L38.78 9.59984L39.91 10.6698L40.31 10.1798L39.14 9.08984Z" fill="#C4C5F1"/>
<path d="M35.74 7.5L35.22 8.18L36.31 8.98L36.83 8.24L35.74 7.5Z" fill="#E7E8F7"/>
<path d="M40.76 10.29L40.47 11.05L41.39 12.03L41.67 11.27L40.76 10.29Z" fill="#E7E8F7"/>
<path d="M35.04 6.41992V6.91992L36.34 7.33992L36.18 6.87992L35.04 6.41992Z" fill="#E7E8F7"/>
<path d="M22.68 46.6699C22.68 46.6699 17.16 46.9199 16.8 51.2699C16.44 55.6199 19.73 59.0199 19.73 59.0199C19.73 59.0199 20.15 57.2699 20.84 55.4099C20.84 55.4099 18.66 52.3499 18.82 50.2599C18.98 48.1699 20.9 47.0399 22.68 46.6699Z" fill="#C4C5F1"/>
<path d="M51.42 52.2002C49.98 56.8102 43.63 63.1902 30.18 61.2102C29.84 61.1702 29.01 62.9602 29.37 65.4702C29.4 65.4702 47.67 65.7802 51.42 52.2002Z" fill="#C4C5F1"/>
<path d="M24.41 18.3202C24.25 19.0702 23.93 19.7102 22.84 19.7302C20.95 19.7602 21.89 21.8602 21.89 21.8602C21.89 21.8602 21.92 20.1602 23.49 20.2802C23.49 20.2802 22.82 21.7502 23.82 22.4702C23.82 22.4702 23.74 20.9202 24.61 20.1902C25.19 19.7002 25.43 19.1102 25.58 18.5702C25.23 17.6802 24.7 17.9102 24.42 18.3302L24.41 18.3202Z" fill="#E9627D"/>
<path d="M26.89 15.2998C26.89 15.2998 25.21 15.6398 24.76 16.6998C24.57 17.1498 24.53 17.7698 24.41 18.3198C24.69 18.2498 25.21 18.1998 25.57 18.5598C25.83 17.5998 25.79 16.7898 26.76 16.9298C26.76 16.9298 27.83 15.7398 26.89 15.2998Z" fill="#B21F49"/>
<path d="M35.69 15.0899L36.03 15.5299L37.21 14.6299L35.69 15.0899Z" fill="#E7E8F7"/>
<path d="M37.65 18.1201L37.7 18.2801L41.48 17.8101L41.55 17.3901L37.65 18.1201Z" fill="#E7E8F7"/>
<path d="M39.76 22.21L44.14 22.28L44.06 22.51L39.76 22.31V22.21Z" fill="#E7E8F7"/>
<path d="M46.13 37.35C45.54 37.3 44.94 37.27 44.31 37.25C44.31 37.25 43.08 40.08 40.91 42.91C40.91 42.91 42.86 44.65 44.39 46.57C44.39 46.57 44.66 46.51 45.14 46.46C44.07 42.65 45.09 39.39 46.13 37.35Z" fill="#AFB3E8"/>
<path d="M52.43 41.3901C52.17 41.2401 52.02 40.9701 52.02 40.6801C52.02 40.0301 52.45 39.7901 53.06 39.9301C53.82 40.1001 57.38 41.8601 58.03 43.6401C58.68 45.4201 56.91 44.1801 55.91 43.4901C55.09 42.9201 53.23 41.8501 52.43 41.3901Z" fill="white"/>
<path d="M27.93 38.9302L30.27 39.0502L30.82 40.3802H28.97L27.93 38.9302Z" fill="#C4C5F1"/>
<path d="M34.57 46.1499L36.81 46.8199L37.03 48.2399L34.86 47.4299L34.57 46.1499Z" fill="#AFB3E8"/>
<path d="M13.14 54.5999L12.06 52.5199L12.93 51.3799L13.86 53.4999L13.14 54.5999Z" fill="#E7E8F7"/>
<path d="M33.07 42.3398L33.73 43.4398L35.46 43.7898L34.49 42.3398H33.07Z" fill="#E7E8F7"/>
<path d="M20.01 40.4598L21 41.2398L22.85 40.3498L21.86 39.5898L20.01 40.4598Z" fill="#FFEBB8"/>
<path d="M46.07 52.4399L46.36 51.2199L44.76 49.9199L44.5 51.1399L46.07 52.4399Z" fill="#FFEBB8"/>
<path d="M14.46 42.0302L14.92 40.7202L16.52 40.4502L16.1 41.5002L14.46 42.0302Z" fill="#E7E8F7"/>
<path d="M10.12 51.1801L9.32001 50.0401L10.05 48.5801L10.65 49.5501L10.12 51.1801Z" fill="#E7E8F7"/>
<path d="M11.49 56.2002L12.83 56.5702L13.21 58.1502L12.13 57.8002L11.49 56.2002Z" fill="#C4C5F1"/>
<path d="M26.05 10.5301C26.2433 10.5301 26.4 10.3869 26.4 10.2101C26.4 10.0334 26.2433 9.89014 26.05 9.89014C25.8567 9.89014 25.7 10.0334 25.7 10.2101C25.7 10.3869 25.8567 10.5301 26.05 10.5301Z" fill="white"/>
<path d="M36.99 82.2202L38.27 82.2602L39.5 80.9902L37.75 81.0302L36.99 82.2202Z" fill="#E7E8F7"/>
<path d="M30.48 82.04L30.94 83.21L32.99 83.38L32.51 82.23L30.48 82.04Z" fill="#FFEBB8"/>
<path d="M27.32 77.2002L29.56 77.8702L29.78 79.2902L27.61 78.4802L27.32 77.2002Z" fill="#AFB3E8"/>
<path d="M57.14 50.4102L55.95 48.3902L56.76 47.2002L57.78 48.7402L57.14 50.4102Z" fill="#C4C5F1"/>
<path d="M57.14 52.8799L55.95 50.8599L56.76 49.6699L57.78 51.2099L57.14 52.8799Z" fill="#C4C5F1"/>
<path d="M57.22 58.7701L56.86 57.4201L58.05 56.3101L58.28 57.4201L57.22 58.7701Z" fill="#E7E8F7"/>
<path d="M50.47 61.5601L51.72 61.7001L52.83 59.9701L51.59 59.8501L50.47 61.5601Z" fill="#FFEBB8"/>
<path d="M29.04 29.1001C25.65 29.6601 23.6 28.9801 23.6 28.9801L22.39 31.8401C27.13 30.1801 33.62 31.5101 33.62 31.5101L34.9 28.1201C34.9 28.1201 32.43 28.5301 29.04 29.0901V29.1001Z" fill="white"/>
<path d="M36.85 28.96L36.08 31.18C36.04 31.29 36.15 31.39 36.25 31.34C36.74 31.12 37.82 30.8 39.06 31.49L39.91 29.04C39.91 29.04 38.23 29.77 37.11 28.9C37.02 28.83 36.89 28.86 36.85 28.97V28.96Z" fill="white"/>
<path d="M38.64 30.9199L35.28 39.5899L36.28 39.5599L39.06 31.4899L38.64 30.9199Z" fill="white"/>
<path d="M22.56 29.04C22.91 28.79 23.26 28.79 23.61 28.99L25.15 25.33C25.2 25.22 25.32 25.15 25.44 25.18L29.97 26.11C29.97 26.11 30.85 26.08 30.85 25.33L24.96 24.07C24.79 24.03 24.63 24.12 24.56 24.28L22.56 29.04Z" fill="#FF7F00"/>
<path d="M30.53 25.2598C30.53 25.2598 30.54 25.8898 29.97 26.1098L32.88 26.7198C32.88 26.7198 33.4 26.5498 33.58 25.8998L30.53 25.2598Z" fill="white"/>
<path d="M24.96 24.07C24.79 24.03 24.63 24.12 24.56 24.28L23.56 26.65C23.82 26.54 24.18 26.48 24.61 26.59L25.14 25.32C25.19 25.21 25.31 25.14 25.43 25.17L27.44 25.58C27.66 25.42 28 25.11 28.06 24.73L24.96 24.07Z" fill="#557086"/>
<path d="M18.44 28.7197C18.06 29.3097 17.76 29.6097 17.17 29.9897C17.76 30.3697 18.06 30.6697 18.44 31.2597C18.82 30.6697 19.12 30.3697 19.71 29.9897C19.12 29.6097 18.82 29.3097 18.44 28.7197Z" fill="white"/>
<path d="M35.16 21.6699C34.78 22.2599 34.48 22.5599 33.89 22.9399C34.48 23.3199 34.78 23.6199 35.16 24.2099C35.54 23.6199 35.84 23.3199 36.43 22.9399C35.84 22.5599 35.54 22.2599 35.16 21.6699Z" fill="white"/>
</g>
</g>
<path fill-rule="evenodd" clip-rule="evenodd" d="M6.49771 79C6.98969 79 7.48602 79.213 7.49037 79.6913C7.49037 80.1043 7.24656 80.2696 6.99839 80.2696C6.75023 80.2696 6.73281 80.1435 6.73281 80.1435C6.73281 80.1435 7.02452 79.9261 7.02452 79.7174C7.02452 79.6087 6.94179 79.313 6.489 79.3174C5.8577 79.3174 5.5181 79.6174 5.5181 80.1522C5.5181 80.7652 7.35105 80.9739 7.3554 81.7652C7.3554 82.613 6.47594 82.9957 5.69225 83C5.283 83 5.01306 82.7609 5.00871 82.3783C5.00871 81.9261 5.22204 81.4652 5.75756 81.4652C5.88382 81.4565 5.98831 81.5522 5.99702 81.6783C5.99702 81.6783 5.99702 81.6826 5.99702 81.687C5.99702 81.687 5.45715 81.8391 5.4615 82.3783C5.4615 82.4783 5.56599 82.6609 5.81851 82.6565C6.07103 82.6522 6.82424 82.4739 6.81989 81.8087C6.81989 81.1913 5.00435 81.1087 5 80.1478C5 79.0652 6.08845 79.0087 6.49771 79.0087V79ZM10.747 79.6C10.8123 79.5696 11.2129 79.4913 11.1955 79.813C11.1824 80.1348 10.9386 80.6913 10.9037 80.9348C11.2303 80.7696 11.6918 80.2087 11.6918 80.2087C11.6918 80.2087 12.0183 80.2522 11.9182 80.4522C11.818 80.6522 11.1519 81.1435 11.1519 81.1435C11.1519 81.1435 11.3043 82.5696 12.1707 82.5696C12.6453 82.5696 12.8499 82.3609 12.937 82.287C12.9587 82.2696 12.9762 82.2652 12.9849 82.2783C13.0197 82.387 12.9936 82.5043 12.9152 82.5913C12.8194 82.6957 12.5974 82.8217 12.1533 82.8261C11.3653 82.8261 10.9255 82.1957 10.8123 81.2609C10.7252 81.5348 10.7339 81.9826 10.7209 82.2C10.6948 82.2435 10.2507 82.4174 10.2158 82.1174C10.2158 82.0913 10.2158 82.0696 10.2158 82.0435C10.1331 82.1609 10.0199 82.2826 9.91108 82.2826C9.71951 82.2826 9.63679 82.1217 9.60196 82.0391C9.57584 82.0696 9.3625 82.287 9.08821 82.287C8.92277 82.2913 8.77474 82.1957 8.70943 82.0435C8.57011 82.1435 8.32195 82.2913 8.03895 82.2913C7.73418 82.2913 7.66017 82.1087 7.66017 81.9565C7.66017 81.713 7.84303 80.987 7.84303 80.987C7.84303 80.987 7.48602 81.1304 7.36411 81.1348C7.19431 81.1348 7.11159 80.8217 7.11159 80.813C7.11159 80.8087 7.11159 80.8 7.1203 80.8C7.22044 80.7609 7.94317 80.513 7.94317 80.513C7.94317 80.513 8.07813 79.9826 8.09555 79.913C8.11296 79.8435 8.2131 79.7 8.33065 79.6565C8.41773 79.6217 8.50916 79.6 8.60059 79.5913C8.63107 79.5913 8.65284 79.6 8.65284 79.6174C8.65284 79.6348 8.47433 80.4087 8.47433 80.4087C8.47433 80.4087 8.84876 80.3217 8.98808 80.3217C9.09692 80.3217 9.15352 80.387 9.09257 80.4696C9.03162 80.5522 8.96196 80.6478 8.92712 80.6913C8.88794 80.7348 8.86182 80.7435 8.77039 80.7609C8.64413 80.787 8.36113 80.8565 8.36113 80.8565C8.36113 80.8565 8.13473 81.6783 8.13909 81.8174C8.13909 81.8957 8.16521 81.987 8.26099 81.987C8.35678 81.987 8.53964 81.8739 8.67025 81.7913C8.69202 81.1522 9.18835 80.7261 9.57584 80.7261C9.7021 80.7261 9.65421 80.8478 9.79788 80.8478H9.88931C9.94591 80.8478 10.0069 80.8522 10.0069 80.9957C10.0069 81.1957 9.89367 81.5261 9.89367 81.7348C9.89367 81.8826 9.91544 81.987 9.97204 81.987C10.0678 81.987 10.1767 81.8478 10.255 81.7261C10.3813 81.0304 10.734 79.7609 10.734 79.6174L10.747 79.6ZM12.5016 80.7C12.7672 80.6783 12.9326 80.8217 12.9631 80.9C12.9936 80.9783 12.9892 81.1609 12.9152 81.2913C12.6845 81.7044 12.1097 81.6304 12.1097 81.6304C12.1097 81.6304 12.0444 81.9565 12.3405 81.9565C12.593 81.9565 12.7062 81.8304 12.8151 81.7261C12.8586 81.7261 12.9936 81.8652 12.9326 81.9609C12.8847 82.0348 12.6191 82.2565 12.2795 82.2609C11.7397 82.2609 11.6047 81.8 11.6744 81.4696C11.7658 81.0609 12.1751 80.7217 12.5016 80.6957V80.7ZM9.6455 80.987C9.32332 80.987 8.82699 81.9696 9.20577 81.9652C9.61938 81.9652 9.6455 81.1826 9.6455 81.0043V80.987ZM12.6409 80.8913C12.4232 80.9 12.1751 81.3174 12.1533 81.5C12.4798 81.513 12.654 81.1957 12.6757 81.0696C12.6888 80.9739 12.6932 80.887 12.6409 80.887V80.8913Z" fill="white"/>
<path d="M46.1444 79.3778L46.6412 80.278L47.6518 80.4733C47.7792 80.4988 47.8302 80.6559 47.741 80.7494L47.0361 81.5009L47.1635 82.5243C47.1805 82.6559 47.0446 82.7494 46.93 82.6942L46 82.2568L45.0701 82.6942C44.9512 82.7494 44.8196 82.6517 44.8366 82.5243L44.9639 81.5009L44.2591 80.7494C44.1699 80.6559 44.2208 80.4988 44.3482 80.4733L45.3588 80.278L45.8557 79.3778C45.9194 79.2632 46.085 79.2632 46.1444 79.3778Z" fill="#FFC200"/>
<path d="M46 79.2929C46.0552 79.2929 46.1147 79.3226 46.1444 79.3778L46.6412 80.278L47.6518 80.4733C47.7792 80.4988 47.8302 80.6559 47.741 80.7494L47.0361 81.5009L47.1635 82.5243C47.1763 82.6262 47.0955 82.7111 46.9979 82.7111C46.9766 82.7111 46.9512 82.7069 46.9257 82.6942L45.9957 82.2568L45.0658 82.6942C45.0403 82.7069 45.0191 82.7111 44.9936 82.7111C44.9002 82.7111 44.8153 82.6262 44.828 82.5243L44.9554 81.5009L44.2505 80.7494C44.1613 80.6559 44.2123 80.4988 44.3397 80.4733L45.3503 80.278L45.8471 79.3778C45.8768 79.3226 45.9363 79.2929 45.9915 79.2929M46 79.0806C45.8641 79.0806 45.7367 79.157 45.6688 79.2759L45.2187 80.0912L44.3057 80.2653C44.1698 80.2908 44.0594 80.3884 44.017 80.5201C43.9745 80.6517 44.0085 80.7961 44.1019 80.8937L44.7388 81.5731L44.6242 82.4946C44.6115 82.6007 44.6454 82.7111 44.7134 82.7918C44.7856 82.8725 44.8875 82.9192 44.9979 82.9192C45.0531 82.9192 45.1083 82.9065 45.1592 82.881L46 82.4861L46.8408 82.881C46.8917 82.9065 46.9469 82.9192 47.0021 82.9192C47.1125 82.9192 47.2144 82.8725 47.2866 82.7918C47.3588 82.7111 47.3928 82.6007 47.3758 82.4946L47.2611 81.5731L47.8981 80.8937C47.9915 80.7918 48.0255 80.6474 47.983 80.5201C47.9405 80.3884 47.8301 80.2908 47.6943 80.2653L46.7813 80.0912L46.3312 79.2759C46.2633 79.157 46.1359 79.0806 46 79.0806Z" fill="#213743"/>
<path d="M46 79.8152V80.9744C46 81.0678 46.0892 81.1315 46.1784 81.106L47.2187 80.7706C47.2739 80.7536 47.2697 80.6729 47.2102 80.6602L46.5563 80.5413C46.4969 80.5286 46.4417 80.4903 46.4119 80.4351L46.085 79.7939C46.0637 79.7515 45.9958 79.7642 45.9958 79.8152H46Z" fill="#FFEBB8"/>
<path d="M46 81.4924V82.0699C46 82.1039 46.017 82.1294 46.0467 82.1464L46.7983 82.5073C46.8365 82.5243 46.8705 82.4818 46.845 82.4479L46.0934 81.4627C46.0637 81.4245 46 81.4457 46 81.4924Z" fill="#FF7F00"/>
<path d="M51.1444 79.3778L51.6412 80.278L52.6518 80.4733C52.7792 80.4988 52.8302 80.6559 52.741 80.7494L52.0361 81.5009L52.1635 82.5243C52.1805 82.6559 52.0446 82.7494 51.93 82.6942L51 82.2568L50.0701 82.6942C49.9512 82.7494 49.8196 82.6517 49.8366 82.5243L49.9639 81.5009L49.2591 80.7494C49.1699 80.6559 49.2208 80.4988 49.3482 80.4733L50.3588 80.278L50.8557 79.3778C50.9194 79.2632 51.085 79.2632 51.1444 79.3778Z" fill="#FFC200"/>
<path d="M51 79.2929C51.0552 79.2929 51.1147 79.3226 51.1444 79.3778L51.6412 80.278L52.6518 80.4733C52.7792 80.4988 52.8302 80.6559 52.741 80.7494L52.0361 81.5009L52.1635 82.5243C52.1763 82.6262 52.0955 82.7111 51.9979 82.7111C51.9766 82.7111 51.9512 82.7069 51.9257 82.6942L50.9957 82.2568L50.0658 82.6942C50.0403 82.7069 50.0191 82.7111 49.9936 82.7111C49.9002 82.7111 49.8153 82.6262 49.828 82.5243L49.9554 81.5009L49.2505 80.7494C49.1613 80.6559 49.2123 80.4988 49.3397 80.4733L50.3503 80.278L50.8471 79.3778C50.8768 79.3226 50.9363 79.2929 50.9915 79.2929M51 79.0806C50.8641 79.0806 50.7367 79.157 50.6688 79.2759L50.2187 80.0912L49.3057 80.2653C49.1698 80.2908 49.0594 80.3884 49.017 80.5201C48.9745 80.6517 49.0085 80.7961 49.1019 80.8937L49.7388 81.5731L49.6242 82.4946C49.6115 82.6007 49.6454 82.7111 49.7134 82.7918C49.7856 82.8725 49.8875 82.9192 49.9979 82.9192C50.0531 82.9192 50.1083 82.9065 50.1592 82.881L51 82.4861L51.8408 82.881C51.8917 82.9065 51.9469 82.9192 52.0021 82.9192C52.1125 82.9192 52.2144 82.8725 52.2866 82.7918C52.3588 82.7111 52.3928 82.6007 52.3758 82.4946L52.2611 81.5731L52.8981 80.8937C52.9915 80.7918 53.0255 80.6474 52.983 80.5201C52.9405 80.3884 52.8301 80.2908 52.6943 80.2653L51.7813 80.0912L51.3312 79.2759C51.2633 79.157 51.1359 79.0806 51 79.0806Z" fill="#213743"/>
<path d="M51 79.8152V80.9744C51 81.0678 51.0892 81.1315 51.1784 81.106L52.2187 80.7706C52.2739 80.7536 52.2697 80.6729 52.2102 80.6602L51.5563 80.5413C51.4969 80.5286 51.4417 80.4903 51.4119 80.4351L51.085 79.7939C51.0637 79.7515 50.9958 79.7642 50.9958 79.8152H51Z" fill="#FFEBB8"/>
<path d="M51 81.4924V82.0699C51 82.1039 51.017 82.1294 51.0467 82.1464L51.7983 82.5073C51.8365 82.5243 51.8705 82.4818 51.845 82.4479L51.0934 81.4627C51.0637 81.4245 51 81.4457 51 81.4924Z" fill="#FF7F00"/>
<path d="M56.1444 79.3778L56.6412 80.278L57.6518 80.4733C57.7792 80.4988 57.8302 80.6559 57.741 80.7494L57.0361 81.5009L57.1635 82.5243C57.1805 82.6559 57.0446 82.7494 56.93 82.6942L56 82.2568L55.0701 82.6942C54.9512 82.7494 54.8196 82.6517 54.8366 82.5243L54.9639 81.5009L54.2591 80.7494C54.1699 80.6559 54.2208 80.4988 54.3482 80.4733L55.3588 80.278L55.8557 79.3778C55.9194 79.2632 56.085 79.2632 56.1444 79.3778Z" fill="#FFC200"/>
<path d="M56 79.2929C56.0552 79.2929 56.1147 79.3226 56.1444 79.3778L56.6412 80.278L57.6518 80.4733C57.7792 80.4988 57.8302 80.6559 57.741 80.7494L57.0361 81.5009L57.1635 82.5243C57.1763 82.6262 57.0955 82.7111 56.9979 82.7111C56.9766 82.7111 56.9512 82.7069 56.9257 82.6942L55.9957 82.2568L55.0658 82.6942C55.0403 82.7069 55.0191 82.7111 54.9936 82.7111C54.9002 82.7111 54.8153 82.6262 54.828 82.5243L54.9554 81.5009L54.2505 80.7494C54.1613 80.6559 54.2123 80.4988 54.3397 80.4733L55.3503 80.278L55.8471 79.3778C55.8768 79.3226 55.9363 79.2929 55.9915 79.2929M56 79.0806C55.8641 79.0806 55.7367 79.157 55.6688 79.2759L55.2187 80.0912L54.3057 80.2653C54.1698 80.2908 54.0594 80.3884 54.017 80.5201C53.9745 80.6517 54.0085 80.7961 54.1019 80.8937L54.7388 81.5731L54.6242 82.4946C54.6115 82.6007 54.6454 82.7111 54.7134 82.7918C54.7856 82.8725 54.8875 82.9192 54.9979 82.9192C55.0531 82.9192 55.1083 82.9065 55.1592 82.881L56 82.4861L56.8408 82.881C56.8917 82.9065 56.9469 82.9192 57.0021 82.9192C57.1125 82.9192 57.2144 82.8725 57.2866 82.7918C57.3588 82.7111 57.3928 82.6007 57.3758 82.4946L57.2611 81.5731L57.8981 80.8937C57.9915 80.7918 58.0255 80.6474 57.983 80.5201C57.9405 80.3884 57.8301 80.2908 57.6943 80.2653L56.7813 80.0912L56.3312 79.2759C56.2633 79.157 56.1359 79.0806 56 79.0806Z" fill="#213743"/>
<path d="M56 79.8152V80.9744C56 81.0678 56.0892 81.1315 56.1784 81.106L57.2187 80.7706C57.2739 80.7536 57.2697 80.6729 57.2102 80.6602L56.5563 80.5413C56.4969 80.5286 56.4417 80.4903 56.4119 80.4351L56.085 79.7939C56.0637 79.7515 55.9958 79.7642 55.9958 79.8152H56Z" fill="#FFEBB8"/>
<path d="M56 81.4924V82.0699C56 82.1039 56.017 82.1294 56.0467 82.1464L56.7983 82.5073C56.8365 82.5243 56.8705 82.4818 56.845 82.4479L56.0934 81.4627C56.0637 81.4245 56 81.4457 56 81.4924Z" fill="#FF7F00"/>
<rect x="13" y="62" width="37" height="13" rx="6.5" fill="#2F4553"/>
<path d="M27.7214 70H26.6894V67.318L26.0174 67.996L25.4294 67.378L26.8274 65.998H27.7214V70ZM29.937 70.072C29.229 70.072 28.695 69.856 28.323 69.49L28.887 68.77C29.163 69.022 29.541 69.16 29.925 69.16C30.363 69.16 30.579 68.944 30.579 68.698C30.579 68.428 30.369 68.236 29.955 68.236C29.637 68.236 29.385 68.326 29.163 68.536L28.449 68.362V65.998H31.353V66.898H29.481V67.672C29.673 67.486 29.985 67.354 30.339 67.354C31.017 67.354 31.629 67.852 31.629 68.656C31.629 69.52 30.975 70.072 29.937 70.072ZM33.6581 70.072C32.4881 70.072 31.9421 69.058 31.9421 68.002C31.9421 66.946 32.4881 65.938 33.6581 65.938C34.8281 65.938 35.3741 66.946 35.3741 68.002C35.3741 69.058 34.8281 70.072 33.6581 70.072ZM33.6581 69.16C34.1381 69.16 34.3301 68.71 34.3301 68.002C34.3301 67.294 34.1381 66.85 33.6581 66.85C33.1781 66.85 32.9861 67.294 32.9861 68.002C32.9861 68.71 33.1781 69.16 33.6581 69.16ZM38.6383 70H37.6243L37.0663 69.124L36.5023 70H35.4943L36.4843 68.512L35.5543 67.102H36.5683L37.0663 67.888L37.5583 67.102H38.5723L37.6483 68.512L38.6383 70Z" fill="white"/>
<path d="M7.69 11H5.33V7.665H7.69V8.29H6.04V8.995H7.655V9.62H6.04V10.375H7.69V11ZM9.61004 11.06C9.32504 11.06 9.06004 10.94 8.86504 10.69V11.92H8.23004V8.585H8.86504V8.89C9.05004 8.655 9.31504 8.525 9.61004 8.525C10.23 8.525 10.68 8.985 10.68 9.79C10.68 10.595 10.23 11.06 9.61004 11.06ZM9.41004 10.495C9.77504 10.495 10.02 10.21 10.02 9.79C10.02 9.375 9.77504 9.09 9.41004 9.09C9.20504 9.09 8.97004 9.21 8.86504 9.365V10.22C8.97004 10.37 9.20504 10.495 9.41004 10.495ZM11.4601 8.325C11.2551 8.325 11.0801 8.155 11.0801 7.945C11.0801 7.735 11.2551 7.57 11.4601 7.57C11.6701 7.57 11.8401 7.735 11.8401 7.945C11.8401 8.155 11.6701 8.325 11.4601 8.325ZM11.7801 11H11.1451V8.585H11.7801V11ZM13.5347 11.06C12.7897 11.06 12.2547 10.535 12.2547 9.79C12.2547 9.05 12.7897 8.525 13.5347 8.525C14.0297 8.525 14.3297 8.74 14.4897 8.96L14.0747 9.35C13.9597 9.18 13.7847 9.09 13.5647 9.09C13.1797 9.09 12.9097 9.37 12.9097 9.79C12.9097 10.21 13.1797 10.495 13.5647 10.495C13.7847 10.495 13.9597 10.395 14.0747 10.235L14.4897 10.62C14.3297 10.845 14.0297 11.06 13.5347 11.06Z" fill="#05080A"/>
<path d="M49.596 11H49.144L47.752 9.096V11H47.284V8.332H47.764L49.128 10.184V8.332H49.596V11ZM51.0229 11.048C50.4109 11.048 50.0309 10.588 50.0309 10.032C50.0309 9.48 50.4109 9.02 51.0229 9.02C51.6429 9.02 52.0189 9.48 52.0189 10.032C52.0189 10.588 51.6429 11.048 51.0229 11.048ZM51.0229 10.676C51.3829 10.676 51.5829 10.376 51.5829 10.032C51.5829 9.692 51.3829 9.392 51.0229 9.392C50.6669 9.392 50.4669 9.692 50.4669 10.032C50.4669 10.376 50.6669 10.676 51.0229 10.676ZM52.6403 11.044C52.4883 11.044 52.3603 10.916 52.3603 10.764C52.3603 10.612 52.4883 10.484 52.6403 10.484C52.7923 10.484 52.9203 10.612 52.9203 10.764C52.9203 10.916 52.7923 11.044 52.6403 11.044ZM55.3962 11H54.9282V8.94L54.4922 9.392L54.2202 9.108L54.9882 8.332H55.3962V11ZM57.5317 11H57.0637V10.396H55.7917V10.02L56.8877 8.332H57.5317V9.984H57.8877V10.396H57.5317V11ZM57.0637 9.984V8.752L56.2517 9.984H57.0637Z" fill="white"/>
<defs>
<linearGradient id="paint0_linear_26835_29177" x1="37.8344" y1="86.256" x2="23.263" y2="1.76" gradientUnits="userSpaceOnUse">
<stop stop-color="#55EEFF"/>
<stop offset="0.09" stop-color="#6CABFF"/>
<stop offset="0.23" stop-color="#8C4FFF"/>
<stop offset="0.32" stop-color="#A016FF"/>
<stop offset="0.37" stop-color="#A800FF"/>
<stop offset="0.44" stop-color="#C043D4"/>
<stop offset="0.51" stop-color="#D680AF"/>
<stop offset="0.58" stop-color="#E8B091"/>
<stop offset="0.64" stop-color="#F4D27B"/>
<stop offset="0.69" stop-color="#FCE76E"/>
<stop offset="0.72" stop-color="#FFEF6A"/>
<stop offset="0.81" stop-color="#BCF589"/>
<stop offset="0.9" stop-color="#84FAA3"/>
<stop offset="0.97" stop-color="#62FDB3"/>
<stop offset="1" stop-color="#55FFBA"/>
</linearGradient>
<linearGradient id="paint1_linear_26835_29177" x1="31.5" y1="99.3802" x2="31.5" y2="12.6302" gradientUnits="userSpaceOnUse">
<stop stop-color="#FF1A51"/>
<stop offset="1" stop-color="#640482"/>
</linearGradient>
<linearGradient id="paint2_linear_26835_29177" x1="9.06003" y1="80.7301" x2="9.06003" y2="21.5201" gradientUnits="userSpaceOnUse">
<stop stop-color="#9D0081"/>
<stop offset="1" stop-color="#640482"/>
</linearGradient>
<linearGradient id="paint3_linear_26835_29177" x1="54.37" y1="82.6101" x2="54.37" y2="11.5901" gradientUnits="userSpaceOnUse">
<stop stop-color="#9D0081"/>
<stop offset="1" stop-color="#5A0475"/>
</linearGradient>
<linearGradient id="paint4_linear_26835_29177" x1="57.77" y1="86.3601" x2="26.53" y2="13.7601" gradientUnits="userSpaceOnUse">
<stop stop-color="#55EEFF"/>
<stop offset="0.09" stop-color="#6CABFF"/>
<stop offset="0.23" stop-color="#8C4FFF"/>
<stop offset="0.32" stop-color="#A016FF"/>
<stop offset="0.37" stop-color="#A800FF"/>
<stop offset="0.44" stop-color="#C043D4"/>
<stop offset="0.51" stop-color="#D680AF"/>
<stop offset="0.58" stop-color="#E8B091"/>
<stop offset="0.64" stop-color="#F4D27B"/>
<stop offset="0.69" stop-color="#FCE76E"/>
<stop offset="0.72" stop-color="#FFEF6A"/>
<stop offset="0.81" stop-color="#BCF589"/>
<stop offset="0.9" stop-color="#84FAA3"/>
<stop offset="0.97" stop-color="#62FDB3"/>
<stop offset="1" stop-color="#55FFBA"/>
</linearGradient>
<linearGradient id="paint5_linear_26835_29177" x1="51.08" y1="89.51" x2="19.74" y2="16.67" gradientUnits="userSpaceOnUse">
<stop stop-color="#55EEFF"/>
<stop offset="0.09" stop-color="#6CABFF"/>
<stop offset="0.23" stop-color="#8C4FFF"/>
<stop offset="0.32" stop-color="#A016FF"/>
<stop offset="0.37" stop-color="#A800FF"/>
<stop offset="0.44" stop-color="#C043D4"/>
<stop offset="0.51" stop-color="#D680AF"/>
<stop offset="0.58" stop-color="#E8B091"/>
<stop offset="0.64" stop-color="#F4D27B"/>
<stop offset="0.69" stop-color="#FCE76E"/>
<stop offset="0.72" stop-color="#FFEF6A"/>
<stop offset="0.81" stop-color="#BCF589"/>
<stop offset="0.9" stop-color="#84FAA3"/>
<stop offset="0.97" stop-color="#62FDB3"/>
<stop offset="1" stop-color="#55FFBA"/>
</linearGradient>
<clipPath id="clip0_26835_29177">
<rect width="63" height="88" fill="white"/>
</clipPath>
<clipPath id="clip1_26835_29177">
<rect width="63" height="88" fill="white"/>
</clipPath>
</defs>
</svg>
