<svg width="63" height="88" viewBox="0 0 63 88" fill="none" xmlns="http://www.w3.org/2000/svg">
<rect width="63" height="88" rx="4" fill="url(#paint0_linear_26835_29178)"/>
<g clip-path="url(#clip0_26835_29178)">
<g clip-path="url(#clip1_26835_29178)">
<path d="M56.44 0.740234H6.56003C3.22975 0.740234 0.530029 3.43996 0.530029 6.77023V81.2302C0.530029 84.5605 3.22975 87.2602 6.56003 87.2602H56.44C59.7703 87.2602 62.47 84.5605 62.47 81.2302V6.77023C62.47 3.43996 59.7703 0.740234 56.44 0.740234Z" fill="url(#paint1_linear_26835_29178)"/>
<mask id="mask0_26835_29178" style="mask-type:luminance" maskUnits="userSpaceOnUse" x="0" y="0" width="63" height="88">
<path d="M56.44 0.740234H6.56003C3.22975 0.740234 0.530029 3.43996 0.530029 6.77023V81.2302C0.530029 84.5605 3.22975 87.2602 6.56003 87.2602H56.44C59.7703 87.2602 62.47 84.5605 62.47 81.2302V6.77023C62.47 3.43996 59.7703 0.740234 56.44 0.740234Z" fill="white"/>
</mask>
<g mask="url(#mask0_26835_29178)">
<path d="M10.05 32.44C6.84001 31.71 4.04001 27.92 5.83001 25.15C1.28001 26.14 -3.61999 27.11 -7.91999 25.32C-12.22 23.53 -15.13 17.75 -12.31 14.04C-10.13 11.17 -5.81999 10.98 -2.34999 11.98C3.60001 13.69 8.46001 17.89 13.81 21C27.05 28.69 44.29 30.26 54.24 41.91C46.33 44.86 38.11 36.15 31.48 33.25C24 29.98 17.36 34.09 10.05 32.44Z" fill="#8054FF"/>
</g>
<path d="M3.92999 1.3501C2.85999 1.3501 1.42999 3.4401 1.42999 4.5001L1.99999 18.1901C1.99999 16.4301 3.42999 15.0001 5.18999 15.0001H33.59C34.8 15.0001 35.94 14.4501 36.7 13.5101L44.8 3.4801C45.56 2.5401 46.7 1.9901 47.91 1.9901L3.92999 1.3501Z" fill="url(#paint2_linear_26835_29178)"/>
<mask id="mask1_26835_29178" style="mask-type:luminance" maskUnits="userSpaceOnUse" x="0" y="0" width="63" height="88">
<path d="M56.44 0.740234H6.56003C3.22975 0.740234 0.530029 3.43996 0.530029 6.77023V81.2302C0.530029 84.5605 3.22975 87.2602 6.56003 87.2602H56.44C59.7703 87.2602 62.47 84.5605 62.47 81.2302V6.77023C62.47 3.43996 59.7703 0.740234 56.44 0.740234Z" fill="white"/>
</mask>
<g mask="url(#mask1_26835_29178)">
<path d="M39.81 54.98C38.18 56.66 37.45 59.15 37.88 61.44C38.39 62.09 39.1 62.6 39.8 63.07C41.34 64.1 43.07 65.1 44.93 64.97C44.66 66.3 44.93 67.68 45.54 68.88C59.09 73.16 73.04 75.99 86.96 78.81C91.79 79.79 96.66 80.78 101.59 80.92C102.38 80.94 103.23 80.92 103.88 80.48C105.31 79.5 104.78 77.12 103.45 76C102.12 74.88 100.32 74.52 98.79 73.7C99.87 69.58 96.12 65.74 92.27 63.94C90.93 63.31 89.41 62.79 87.98 63.18C87.77 63.24 87.57 63.32 87.38 63.43C88.04 61.94 88.25 60.28 87.68 58.77C86.75 56.3 83.18 54.96 81.27 56.79C82.89 54.4 83.53 51.15 82.17 48.6C80.82 46.05 77.12 44.81 74.84 46.58C76.52 42.52 74.35 37.66 70.84 35.02C69.4 33.94 67.73 33.16 65.98 32.75C64.17 33.05 62.43 33.84 61.07 35.08C57.85 38.02 56.99 43.23 59.1 47.05C56.64 45.71 53.23 46.47 51.57 48.74C51.6 48.22 51.44 47.71 51.2 47.25C49.97 44.84 46.72 43.96 44.18 44.87C41.64 45.78 39.8 48.09 38.8 50.6C41.49 49.54 44.85 50.55 46.52 52.91C44.12 52.43 41.51 53.24 39.82 54.99L39.81 54.98Z" fill="#8054FF"/>
<path d="M-10.59 57.8704C-9.34999 58.3804 -8.02999 58.7604 -6.72999 59.1104C-6.18999 59.2604 -5.61999 59.4104 -5.20999 59.7904C-4.77999 60.1804 -4.56999 60.7604 -4.28999 61.2804C-2.52999 64.5904 1.78001 65.3904 5.52001 65.6904C8.97001 65.9704 12.43 66.1104 15.9 66.2304C17.56 66.2804 19.3 66.6904 21 66.7604C26.52 68.7604 32.14 70.3804 37.94 71.0604C37.69 71.0204 37.46 70.9704 37.23 70.9104C30.11 69.0004 23.09 66.2204 16.19 63.6404C15.16 63.2504 14.07 62.8304 13.36 61.9804C12.72 61.2104 12.47 60.2104 12.09 59.2804C11.01 56.6604 8.62001 54.5604 5.83001 54.0704C3.04001 53.5804 -0.0399854 54.8404 -1.48999 57.2704C-3.32999 55.5104 -6.28999 54.9404 -8.56999 56.0704C-9.38999 56.4804 -10.09 57.1104 -10.61 57.8704H-10.59Z" fill="#8054FF"/>
<path d="M63.61 68.7502C66.9 68.7902 70.43 71.9102 69.26 74.9902C73.5 73.0702 78.09 71.1002 82.67 71.9502C87.25 72.8002 91.3 77.8502 89.32 82.0602C87.79 85.3302 83.61 86.4002 80.01 86.1602C73.83 85.7302 68.21 82.6402 62.32 80.7102C47.76 75.9502 30.57 78.0202 18.42 68.7002C25.54 64.1702 35.4 70.9702 42.48 72.4202C50.48 74.0502 56.12 68.6502 63.6 68.7402L63.61 68.7502Z" fill="#45A7FF"/>
<path d="M19.17 59.0501C18.82 57.8701 18.08 56.8001 17.09 56.0601C18.02 57.7001 18.69 59.5001 19.05 61.3501C19.98 60.7001 20.51 59.5901 21.43 58.9301C22.23 58.3501 23.22 58.1801 24.18 58.1501C24.82 58.1301 25.63 58.3601 26.23 58.1701C25.67 57.5901 24.29 57.4401 23.52 57.3601C22.77 57.2801 22.07 57.3601 21.37 57.6501C21.13 57.7501 19.09 58.8001 19.17 59.0401V59.0501Z" fill="#8054FF"/>
<path d="M48.37 66.8904C49.97 66.5804 51.23 67.6204 52.32 68.6104C53.19 67.8304 53.74 66.8104 54.77 66.1304C55.69 65.5304 56.76 65.1504 57.87 65.1904C60.13 65.2704 62.22 67.6204 61.56 69.8804C61.64 69.6204 63.7 70.2304 63.92 70.3104C65.35 70.8604 66.56 71.9204 67.29 73.2604C67.9 74.3704 68.42 76.2304 66.79 76.7204C66.35 76.8504 65.88 76.7304 65.45 76.6104C58.67 74.7504 59.42 70.7304 45.32 70.2904C45.49 68.6504 46.8 67.1904 48.36 66.8904H48.37Z" fill="#CCF8FF"/>
<path d="M-16.14 49.1304C-15.44 47.2604 -13.64 46.0104 -11.78 45.2804C-8.14001 43.8504 -3.90001 43.9904 -0.36001 45.6604C1.63999 46.6104 3.40999 48.0404 4.77999 49.7804C5.07999 49.7504 5.38999 49.7404 5.68999 49.7404C9.78999 49.7804 13.87 51.3304 16.95 54.0404C20.15 52.0404 24.32 51.6904 27.8 53.1304C26.29 50.5004 26.83 46.8704 29.03 44.7904C31.23 42.7104 34.89 42.3804 37.42 44.0304C38.1 40.7704 39.22 36.9704 42.38 35.9204C44.34 35.2704 46.54 35.9604 48.18 37.2104C49.82 38.4504 51.02 40.1904 52.18 41.9004C52.47 37.8604 55.51 34.2604 59.35 32.9604C61.48 32.2404 63.79 32.2104 65.97 32.7404C64.16 33.0504 62.42 33.8304 61.06 35.0704C57.84 38.0104 56.98 43.2204 59.09 47.0404C56.63 45.7004 53.22 46.4604 51.56 48.7304C51.59 48.2104 51.43 47.7004 51.19 47.2404C49.96 44.8304 46.71 43.9504 44.17 44.8604C41.63 45.7704 39.79 48.0804 38.79 50.5904C41.48 49.5304 44.84 50.5404 46.51 52.9004C44.11 52.4204 41.5 53.2304 39.81 54.9804C38.46 56.3704 37.73 58.3304 37.76 60.2604C37.81 62.0604 39.8 63.0704 39.8 63.0704C37.03 62.4604 36.1 60.5204 36.1 60.5204C35.36 59.5904 35.03 58.3004 35.4 57.1604C32.25 57.8904 39.82 62.2804 32.84 67.5604C30.87 65.7204 23.23 61.1804 20.96 62.6304C23.81 63.5404 26.64 64.5504 29.43 65.6304C28.87 65.6804 35.78 68.8504 39.35 71.1904C38.88 71.1504 38.41 71.1004 37.94 71.0404C37.69 71.0004 37.46 70.9504 37.23 70.8904C30.11 68.9804 23.09 66.2004 16.19 63.6204C15.16 63.2304 14.07 62.8104 13.36 61.9604C12.72 61.1904 12.47 60.1904 12.09 59.2604C11.01 56.6404 8.61999 54.5404 5.82999 54.0504C3.03999 53.5604 -0.0400112 54.8204 -1.49001 57.2504C-3.33001 55.4904 -6.29001 54.9204 -8.57001 56.0504C-9.39001 56.4604 -10.09 57.0904 -10.61 57.8504C-11.76 57.3804 -12.85 56.8004 -13.81 56.0004C-15.8 54.3404 -17.06 51.5304 -16.16 49.1004L-16.14 49.1304Z" fill="#B59FFF"/>
<path d="M9.94 58.7105C9.94 58.7105 14.89 55.7805 18.49 56.6405L18.71 59.9105L12.03 60.2405L9.94 58.7105Z" fill="#8054FF"/>
<path d="M50.84 21.0105L57.85 20.2305L58.3 20.6205L56.17 26.4405L50.84 21.0105Z" fill="#FF7F00"/>
<path d="M12.64 45.9803C12.69 34.4303 8.98001 27.7603 8.95001 27.6903L9.16001 27.5703C9.20001 27.6403 12.94 34.3603 12.89 45.9803H12.64Z" fill="#FFC200"/>
<path d="M29.92 51.0102C30.3 44.3902 35.38 36.7602 35.43 36.6802L35.63 36.8202C35.58 36.9002 30.54 44.4702 30.16 51.0302H29.91L29.92 51.0102Z" fill="#FFC200"/>
<path d="M36.38 51.1301L35.89 51.1001C35.49 51.0801 35.19 50.7301 35.22 50.3401L35.34 48.3901C35.37 47.8601 35.83 47.4501 36.36 47.4801C36.89 47.5101 37.3 47.9701 37.27 48.5001L37.15 50.4501C37.13 50.8501 36.78 51.1501 36.39 51.1201L36.38 51.1301Z" fill="#FFC200"/>
<path d="M36.9147 50.9956C36.9231 50.8578 36.5858 50.7251 36.1614 50.6992C35.7369 50.6733 35.386 50.764 35.3776 50.9018C35.3692 51.0396 35.7065 51.1724 36.1309 51.1982C36.5554 51.2241 36.9063 51.1334 36.9147 50.9956Z" fill="#7221FF"/>
<path d="M36.2115 50.955L36.0917 50.9477C36.0035 50.9423 35.9276 51.0095 35.9223 51.0977L35.7792 53.4433C35.7738 53.5315 35.841 53.6074 35.9292 53.6128L36.049 53.6201C36.1372 53.6255 36.213 53.5583 36.2184 53.4701L36.3615 51.1245C36.3668 51.0363 36.2997 50.9604 36.2115 50.955Z" fill="#FF7F00"/>
<path d="M38.7 50.99H38.21C37.81 50.97 37.5 50.64 37.51 50.24L37.56 48.28C37.57 47.75 38.02 47.32 38.55 47.34C39.08 47.35 39.51 47.8 39.49 48.33L39.44 50.29C39.44 50.69 39.1 51 38.7 50.99Z" fill="#FFC200"/>
<path d="M39.2348 50.8347C39.2381 50.6967 38.8961 50.5766 38.471 50.5664C38.0459 50.5562 37.6985 50.6599 37.6952 50.7979C37.6919 50.936 38.0339 51.0561 38.4591 51.0663C38.8842 51.0764 39.2315 50.9728 39.2348 50.8347Z" fill="#7221FF"/>
<path d="M38.5239 50.826L38.404 50.8232C38.3156 50.821 38.2423 50.8909 38.2402 50.9793L38.184 53.3286C38.1819 53.417 38.2518 53.4903 38.3401 53.4924L38.4601 53.4953C38.5484 53.4974 38.6218 53.4275 38.6239 53.3391L38.6801 50.9898C38.6822 50.9015 38.6123 50.8281 38.5239 50.826Z" fill="#FF7F00"/>
<path d="M39.07 53.7503L38.97 53.3903L39.83 53.1503C40.05 53.0903 40.21 52.8803 40.21 52.6503L40.23 50.2803C40.23 50.1403 40.29 50.0003 40.4 49.9003L40.8 49.5303L41.05 49.8003L40.65 50.1703C40.65 50.1703 40.6 50.2403 40.6 50.2803L40.58 52.6503C40.58 53.0403 40.31 53.3903 39.93 53.5003L39.07 53.7403V53.7503Z" fill="white"/>
<path d="M41.4256 50.6023C41.8761 50.5554 42.1935 50.0587 42.1346 49.4929C42.0758 48.9271 41.6629 48.5065 41.2124 48.5533C40.762 48.6002 40.4446 49.0969 40.5034 49.6627C40.5623 50.2285 40.9752 50.6491 41.4256 50.6023Z" fill="white"/>
<path d="M41.5879 50.1633C41.8296 50.1381 41.9964 49.8372 41.9604 49.4911C41.9244 49.145 41.6992 48.8849 41.4575 48.91C41.2158 48.9352 41.0491 49.2361 41.0851 49.5822C41.1211 49.9283 41.3462 50.1884 41.5879 50.1633Z" fill="#2F4553"/>
<path d="M59.4004 34.1121C61.3649 26.9655 51.0942 17.911 36.4603 13.8884C21.8263 9.8658 8.37058 12.3983 6.40611 19.5448C4.44164 26.6914 14.7123 35.7458 29.3463 39.7685C43.9803 43.7911 57.436 41.2586 59.4004 34.1121Z" fill="white"/>
<mask id="mask2_26835_29178" style="mask-type:luminance" maskUnits="userSpaceOnUse" x="6" y="11" width="54" height="31">
<path d="M59.4004 34.1121C61.3649 26.9655 51.0942 17.911 36.4603 13.8884C21.8263 9.8658 8.37058 12.3983 6.40611 19.5448C4.44164 26.6914 14.7123 35.7458 29.3463 39.7685C43.9803 43.7911 57.436 41.2586 59.4004 34.1121Z" fill="white"/>
</mask>
<g mask="url(#mask2_26835_29178)">
<path fill-rule="evenodd" clip-rule="evenodd" d="M23.26 27.42C25.51 26.91 27.65 27.45 27.75 29.7C27.83 31.65 26.76 32.63 25.55 32.83C24.34 33.03 24.23 32.45 24.23 32.45C24.23 32.45 25.58 31.19 25.56 30.23C25.54 29.73 25.2 28.42 23.09 28.87C20.17 29.5 18.29 31.14 18.37 33.48C18.55 36.15 27.59 35.85 28.25 39.65C28.97 43.72 25.6 46.05 22.38 46.25C20.69 46.36 19 45.32 18.24 43.62C17.35 41.62 17.78 39.51 20.35 39.19C20.94 39.09 21.54 39.46 21.72 40.03C21.72 40.04 21.72 40.05 21.73 40.06C21.74 40.06 19.31 41.03 20.24 43.46C20.41 43.91 21.2 44.71 22.3 44.61C23.39 44.54 26.41 43.34 25.74 40.16C25.23 37.27 16.19 37.95 15.83 33.86C15.91 29.29 21.52 27.84 23.25 27.42H23.26ZM42.41 26.95C42.65 26.76 44.24 26.21 44.65 27.74C45.08 29.26 44.62 32.04 44.66 33.22C46.11 32.22 47.47 29.36 47.42 29.37C47.42 29.37 48.96 29.44 48.79 30.4C48.67 31.34 46.09 34.03 46.05 34.04C46.18 34.06 47.84 40.66 51.87 39.89C54.19 39.5 55.12 38.44 55.51 38.06C55.62 37.96 55.7 37.93 55.74 37.99C55.96 38.43 55.86 38.96 55.51 39.38C55.07 39.9 53.97 40.64 51.84 41.03C48.04 41.75 45.92 39.17 44.54 34.78C44.37 36.14 44.71 38.25 44.73 39.29C44.63 39.5 42.57 40.69 42.25 39.28C42.23 39.16 42.21 39.05 42.21 38.93C41.88 39.55 41.4 40.22 40.88 40.3C39.96 40.44 39.47 39.73 39.24 39.35C39.13 39.51 38.25 40.71 36.94 40.92C36.16 41.07 35.38 40.71 34.97 40.02C34.38 40.61 33.32 41.48 31.99 41.67C30.57 41.87 30.05 41.04 29.91 40.3C29.67 39.14 30.02 35.53 30.04 35.52C30.04 35.52 28.42 36.47 27.83 36.56C27.01 36.68 26.4 35.24 26.4 35.22C26.4 35.19 26.41 35.16 26.44 35.14C26.9 34.9 30.25 33.17 30.25 33.16C30.25 33.16 30.64 30.51 30.71 30.16C30.77 29.82 31.18 29.04 31.71 28.74C32.09 28.51 32.5 28.34 32.91 28.22C33.04 28.2 33.14 28.22 33.15 28.3C33.15 28.38 32.71 32.26 32.72 32.26C32.72 32.26 34.45 31.56 35.11 31.45C35.61 31.37 35.93 31.65 35.71 32.09C35.49 32.53 35.22 33.04 35.07 33.28C34.92 33.52 34.8 33.58 34.36 33.73C33.78 33.94 32.45 34.5 32.45 34.5C32.44 34.5 31.93 38.62 32.07 39.29C32.13 39.67 32.32 40.09 32.79 40.03C33.26 39.96 34.03 39.3 34.6 38.79C34.24 35.68 36.36 33.26 38.19 32.99C38.79 32.9 38.67 33.52 39.34 33.42C39.48 33.4 39.63 33.37 39.77 33.35C40.03 33.31 40.34 33.31 40.46 33.98C40.63 34.95 40.33 36.62 40.48 37.62C40.58 38.33 40.74 38.82 41.01 38.78C41.48 38.71 41.92 37.96 42.2 37.34C42.44 33.91 42.65 27.62 42.38 26.95H42.41ZM51.82 31.33C52.99 31.12 53.98 31.71 54.24 32.05C54.5 32.39 54.75 33.18 54.56 33.79C53.95 35.71 51.06 35.75 51.08 35.75C51.09 35.75 51.01 37.28 52.44 37.08C53.67 36.91 54.13 36.28 54.55 35.77C54.76 35.73 55.53 36.28 55.3 36.73C55.13 37.08 53.96 38.23 52.29 38.5C49.68 38.91 48.8 36.88 48.84 35.32C48.93 33.36 50.38 31.58 51.82 31.34V31.33ZM38.69 34.32C37.15 34.54 35.46 39.64 37.27 39.37C39.27 39.07 38.85 35.27 38.7 34.41C38.7 34.38 38.7 34.35 38.69 34.32ZM52.75 32.13C51.77 32.25 51.14 34.27 51.18 35.13C52.78 34.98 53.26 33.48 53.16 32.91C53.1 32.48 52.99 32.09 52.75 32.12V32.13Z" fill="#FFC200"/>
<path d="M43.45 26.6999C43.93 26.7199 44.44 26.9699 44.65 27.7399C45.08 29.2599 44.62 32.0399 44.66 33.2199C46.11 32.2199 47.47 29.3599 47.42 29.3699C47.51 29.3699 48.95 29.4699 48.79 30.3999C48.67 31.3399 46.09 34.0299 46.05 34.0399C46.15 34.0499 47.72 40.0999 51.33 39.9399C51.5 39.9399 51.68 39.9199 51.87 39.8899C54.19 39.4999 55.12 38.4399 55.51 38.0599C55.58 37.9999 55.64 37.9599 55.68 37.9599C55.7 37.9599 55.72 37.9599 55.74 37.9899C55.96 38.4299 55.86 38.9599 55.51 39.3799C55.07 39.8999 53.97 40.6399 51.84 41.0299C51.5 41.0899 51.18 41.1299 50.87 41.1399C47.68 41.2799 45.79 38.7799 44.54 34.7799C44.37 36.1399 44.71 38.2499 44.73 39.2899C44.67 39.4299 43.81 39.9499 43.12 39.9599C42.72 39.9599 42.37 39.7999 42.25 39.2799C42.23 39.1599 42.21 39.0499 42.21 38.9299C41.88 39.5499 41.4 40.2199 40.88 40.2999C40.8 40.3099 40.73 40.3199 40.66 40.3199C39.89 40.3199 39.45 39.6999 39.25 39.3599C39.14 39.5199 38.26 40.7199 36.95 40.9299C36.83 40.9499 36.72 40.9599 36.6 40.9599C35.94 40.9599 35.33 40.6099 34.98 40.0199C34.39 40.6099 33.33 41.4799 32 41.6699C31.84 41.6899 31.7 41.6999 31.56 41.6999C30.47 41.6899 30.05 40.9599 29.92 40.2999C29.68 39.1399 30.03 35.5299 30.05 35.5199C30.05 35.5199 28.43 36.4699 27.84 36.5599C27.81 36.5599 27.78 36.5599 27.74 36.5599C26.96 36.5599 26.41 35.2399 26.41 35.2099C26.41 35.1799 26.42 35.1499 26.45 35.1299C26.91 34.8899 30.26 33.1599 30.26 33.1499C30.26 33.1499 30.65 30.4999 30.72 30.1499C30.78 29.8099 31.19 29.0299 31.72 28.7299C32.1 28.4999 32.51 28.3299 32.92 28.2099C32.95 28.2099 32.98 28.2099 33.01 28.2099C33.1 28.2099 33.16 28.2399 33.17 28.2999C33.17 28.3799 32.73 32.2599 32.74 32.2599C32.74 32.2599 34.47 31.5599 35.13 31.4499C35.19 31.4499 35.24 31.4399 35.29 31.4399C35.69 31.4399 35.92 31.6999 35.73 32.0899C35.51 32.5299 35.24 33.0399 35.09 33.2799C34.94 33.5199 34.82 33.5799 34.38 33.7299C33.8 33.9399 32.47 34.4999 32.47 34.4999C32.46 34.4999 31.95 38.6199 32.09 39.2899C32.15 39.6399 32.31 40.0299 32.71 40.0299C32.74 40.0299 32.78 40.0299 32.81 40.0299C33.28 39.9599 34.05 39.2999 34.62 38.7899C34.26 35.6699 36.38 33.2599 38.21 32.9899C38.25 32.9899 38.29 32.9899 38.32 32.9899C38.76 32.9899 38.74 33.4299 39.22 33.4399C39.26 33.4399 39.31 33.4399 39.36 33.4299C39.5 33.4099 39.65 33.3799 39.79 33.3599C39.84 33.3599 39.9 33.3499 39.95 33.3499C40.17 33.3499 40.39 33.4599 40.48 33.9999C40.65 34.9699 40.35 36.6399 40.5 37.6399C40.6 38.3199 40.75 38.7999 41 38.7999C41.01 38.7999 41.02 38.7999 41.03 38.7999C41.5 38.7299 41.94 37.9799 42.22 37.3599C42.46 33.9299 42.67 27.6399 42.4 26.9699C42.52 26.8799 42.97 26.6999 43.44 26.7199M37.14 39.3699C37.14 39.3699 37.23 39.3699 37.28 39.3599C39.28 39.0599 38.86 35.2599 38.71 34.3999C38.71 34.3699 38.71 34.3399 38.7 34.3099C37.2 34.5199 35.55 39.3699 37.15 39.3699M24.33 27.2599C26.14 27.1199 27.67 27.8199 27.75 29.6999C27.83 31.6499 26.76 32.6299 25.55 32.8299C25.39 32.8599 25.26 32.8699 25.13 32.8699C24.31 32.8899 24.23 32.4499 24.23 32.4499C24.23 32.4499 25.58 31.1899 25.56 30.2299C25.55 29.7799 25.26 28.6899 23.7 28.7799C23.52 28.7899 23.31 28.8199 23.09 28.8699C20.17 29.4999 18.29 31.1399 18.37 33.4799C18.55 36.1499 27.59 35.8499 28.25 39.6499C28.97 43.7199 25.6 46.0499 22.38 46.2499C22.18 46.2599 21.98 46.2599 21.78 46.2499C20.32 46.1099 18.91 45.1299 18.24 43.6299C17.35 41.6299 17.78 39.5199 20.35 39.1999C20.42 39.1899 20.5 39.1799 20.57 39.1799C21.08 39.1899 21.56 39.5399 21.71 40.0299C21.71 40.0399 21.71 40.0499 21.72 40.0599C21.73 40.0599 19.3 41.0299 20.23 43.4599C20.38 43.8699 21.04 44.5499 21.96 44.6199C22.06 44.6199 22.17 44.6199 22.28 44.6199C23.37 44.5499 26.39 43.3499 25.72 40.1699C25.21 37.2799 16.17 37.9599 15.81 33.8699C15.89 29.2999 21.5 27.8499 23.23 27.4299C23.59 27.3499 23.95 27.2899 24.3 27.2699M52.47 31.2899C53.34 31.3399 54.03 31.7699 54.24 32.0499C54.5 32.3899 54.75 33.1799 54.56 33.7899C53.95 35.7099 51.06 35.7499 51.08 35.7499C51.08 35.7499 51.02 37.0999 52.2 37.0999C52.28 37.0999 52.36 37.0999 52.45 37.0799C53.68 36.9099 54.14 36.2799 54.56 35.7699C54.56 35.7699 54.57 35.7699 54.58 35.7699C54.82 35.7699 55.53 36.2999 55.3 36.7299C55.13 37.0799 53.96 38.2299 52.29 38.4999C52.08 38.5299 51.88 38.5499 51.7 38.5499C49.55 38.5999 48.8 36.7599 48.84 35.3099C48.93 33.3499 50.38 31.5699 51.82 31.3299C52.05 31.2899 52.26 31.2799 52.47 31.2899ZM51.17 35.1399C52.77 34.9899 53.25 33.4899 53.15 32.9199C53.09 32.5099 52.99 32.1399 52.77 32.1199C52.76 32.1199 52.75 32.1199 52.73 32.1199C51.75 32.2399 51.12 34.2599 51.16 35.1199M43.13 24.8799C42.35 24.8299 41.63 25.1099 41.27 25.3899C41.01 25.5899 40.75 25.7999 40.48 26.0099C40.57 26.3699 40.65 26.7299 40.74 27.0899C40.78 27.5199 40.78 29.1399 40.73 30.4599C40.72 30.8399 40.7 31.2399 40.68 31.6399C40.41 31.5399 40.14 31.4899 39.9 31.4899C39.76 31.4899 39.63 31.4899 39.54 31.5099C39.24 31.3099 38.83 31.1399 38.29 31.1299C38.17 31.1299 38.04 31.1299 37.92 31.1599C37.79 31.1799 37.66 31.2099 37.52 31.2399C37.46 31.0399 37.38 30.8499 37.27 30.6799C36.85 29.9999 36.12 29.5899 35.29 29.5899C35.15 29.5899 35.01 29.5999 34.87 29.6199C34.85 29.6199 34.82 29.6199 34.79 29.6299C34.91 28.2499 34.9 28.1899 34.87 27.9799C34.73 27.0199 34 26.3499 33.09 26.3699C32.98 26.3699 32.87 26.3799 32.76 26.3999C32.73 26.3999 32.7 26.4099 32.67 26.4199C32.64 26.4199 32.61 26.4399 32.58 26.4499C32.04 26.6099 31.5 26.8499 30.99 27.1599C30.33 27.5499 29.8 28.1799 29.45 28.7799C29.05 26.5199 27.4 25.2299 24.77 25.4699C24.36 25.5099 23.93 25.5799 23.49 25.6899C20.56 26.4199 18.04 27.7499 16.21 29.4599C14.75 30.8499 13.9 32.3899 13.97 34.1599C14.07 36.2099 15.84 37.3799 17.75 38.2199C16.01 39.2999 15.37 41.2399 16.56 43.7099C17.69 45.9799 20.13 47.7099 22.34 47.9799C22.61 48.0099 22.88 48.0199 23.14 47.9999C26.07 47.8399 28.76 46.0299 29.81 43.0499C30.34 43.3699 30.95 43.5599 31.62 43.5699C31.84 43.5699 32.07 43.5599 32.31 43.5299C33.34 43.3799 34.22 42.9499 34.95 42.4499C35.45 42.6999 36 42.8399 36.56 42.8399C36.77 42.8399 36.99 42.8199 37.2 42.7799C37.99 42.6499 38.67 42.2899 39.22 41.8999C39.73 42.1499 40.22 42.1999 40.56 42.1899C40.72 42.1899 40.88 42.1699 41.04 42.1499C41.42 42.0899 41.79 41.9399 42.13 41.7099C42.39 41.7899 42.68 41.8299 42.99 41.8199C43.72 41.7999 44.82 41.4499 45.6 40.8599C46.94 42.3199 48.56 43.0299 50.56 42.9099C50.95 42.8899 51.37 42.8299 51.79 42.7499C54.8 42.1399 56.32 40.9099 56.9 40.2599C57.72 39.3499 57.95 38.2399 57.44 37.2899C57.43 37.2699 57.42 37.2399 57.4 37.2199C57.38 37.1999 57.37 37.1799 57.35 37.1499C57.29 37.0599 57.23 36.9899 57.15 36.9099C57.26 36.3899 57.11 35.8399 56.72 35.3399C56.58 35.1699 56.41 34.9799 56.19 34.8099C56.24 34.6899 56.29 34.5699 56.33 34.4499C56.66 33.4899 56.33 32.2099 55.62 31.3499C54.85 30.4199 53.39 29.6999 52.06 29.5999C51.71 29.5699 51.37 29.5899 51.04 29.6399C50.82 29.6799 50.61 29.7299 50.41 29.7999C50.28 29.4899 50.09 29.1999 49.84 28.9299C48.87 27.8599 47.56 27.6499 47.05 27.6099C46.79 27.5899 46.53 27.5699 46.26 27.5599C45.76 26.0699 44.47 24.9799 43.11 24.8899L43.13 24.8799ZM20.22 33.0799C20.2 32.1199 20.62 31.7199 20.76 31.5899C21.21 31.1399 22.01 30.7999 23.04 30.5999C23.17 30.5699 23.29 30.5599 23.39 30.5599C23.49 30.5599 23.6 30.5599 23.67 30.5799C23.53 30.7799 23.29 31.0599 23.09 31.2499C22.82 31.4999 22.54 31.7499 22.27 31.9999C22.32 32.3199 22.37 32.6499 22.43 32.9699C22.53 33.5099 22.92 34.0499 23.59 34.3699C23.51 34.3399 23.42 34.3199 23.34 34.2899C22.28 33.9699 20.56 33.4699 20.23 33.0699L20.22 33.0799ZM24.64 34.7099C24.55 34.6799 24.46 34.6499 24.38 34.6199C24.47 34.6299 24.57 34.6499 24.66 34.6499C24.66 34.6699 24.65 34.6799 24.64 34.6999V34.7099ZM21.87 42.8299C21.87 42.0999 22.54 41.7499 22.69 41.6799C23.1 41.5099 23.51 41.3399 23.92 41.1599C23.83 40.8699 23.75 40.5699 23.66 40.2799C23.79 40.3499 23.9 40.4199 23.97 40.4799C24.06 40.9399 24 41.2999 23.78 41.6499C23.34 42.3299 22.41 42.7199 21.87 42.8299Z" fill="white"/>
<path fill-rule="evenodd" clip-rule="evenodd" d="M24.48 21.4C26.65 20.9 28.71 21.45 28.82 23.7C28.9 25.65 27.87 26.62 26.7 26.82C25.53 27.02 25.42 26.44 25.43 26.44C25.43 26.44 26.73 25.19 26.71 24.23C26.69 23.73 26.35 22.42 24.33 22.86C21.51 23.48 19.7 25.11 19.78 27.45C19.96 30.12 28.7 29.86 29.36 33.66C30.08 37.73 26.83 40.04 23.71 40.23C22.07 40.33 20.43 39.28 19.69 37.59C18.82 35.59 19.23 33.48 21.72 33.16C22.29 33.06 22.87 33.43 23.05 34C23.05 34.01 23.05 34.02 23.05 34.03C23.06 34.03 20.71 34.99 21.62 37.43C21.79 37.88 22.55 38.68 23.61 38.59C24.66 38.52 27.59 37.33 26.92 34.16C26.42 31.27 17.67 31.91 17.32 27.82C17.4 23.25 22.81 21.82 24.48 21.41V21.4ZM42.98 21.03C43.21 20.85 44.75 20.3 45.15 21.83C45.57 23.36 45.14 26.13 45.18 27.31C46.58 26.32 47.88 23.47 47.84 23.48C47.84 23.48 49.33 23.55 49.17 24.52C49.06 25.46 46.57 28.13 46.53 28.15C46.66 28.17 48.28 34.77 52.18 34.02C54.42 33.64 55.32 32.58 55.7 32.2C55.8 32.1 55.88 32.07 55.92 32.13C56.13 32.57 56.04 33.1 55.69 33.52C55.27 34.04 54.2 34.78 52.15 35.16C48.49 35.86 46.43 33.28 45.07 28.88C44.91 30.24 45.24 32.35 45.27 33.39C45.17 33.6 43.19 34.78 42.87 33.37C42.85 33.25 42.83 33.14 42.83 33.02C42.51 33.64 42.05 34.3 41.55 34.38C40.66 34.52 40.18 33.81 39.96 33.43C39.86 33.59 39 34.79 37.75 34.99C37 35.14 36.24 34.77 35.84 34.08C35.27 34.67 34.25 35.53 32.97 35.72C31.59 35.91 31.09 35.08 30.95 34.34C30.71 33.18 31.03 29.57 31.05 29.57C31.05 29.57 29.49 30.51 28.92 30.59C28.12 30.7 27.53 29.27 27.53 29.24C27.53 29.21 27.54 29.18 27.57 29.16C28.01 28.92 31.25 27.2 31.25 27.2C31.25 27.2 31.61 24.55 31.68 24.21C31.74 23.87 32.13 23.09 32.64 22.8C33.01 22.57 33.4 22.4 33.8 22.28C33.93 22.26 34.02 22.28 34.03 22.36C34.03 22.44 33.62 26.31 33.63 26.31C33.63 26.31 35.3 25.62 35.94 25.52C36.43 25.45 36.73 25.72 36.52 26.16C36.31 26.6 36.05 27.11 35.91 27.35C35.77 27.59 35.65 27.65 35.23 27.8C34.67 28 33.39 28.56 33.39 28.56C33.38 28.56 32.9 32.68 33.04 33.34C33.1 33.72 33.29 34.15 33.74 34.08C34.19 34.01 34.94 33.36 35.49 32.85C35.13 29.74 37.16 27.33 38.94 27.07C39.52 26.99 39.4 27.6 40.06 27.5C40.2 27.48 40.34 27.45 40.47 27.43C40.72 27.39 41.02 27.39 41.14 28.07C41.31 29.04 41.02 30.71 41.17 31.7C41.27 32.41 41.43 32.9 41.69 32.86C42.14 32.79 42.56 32.05 42.84 31.42C43.06 27.99 43.23 21.71 42.96 21.04L42.98 21.03ZM52.11 25.44C53.25 25.24 54.2 25.83 54.46 26.16C54.72 26.5 54.96 27.29 54.77 27.9C54.18 29.82 51.38 29.85 51.4 29.85C51.41 29.85 51.34 31.38 52.72 31.18C53.91 31.01 54.35 30.39 54.76 29.87C54.96 29.84 55.71 30.38 55.48 30.83C55.31 31.18 54.18 32.32 52.58 32.59C50.06 32.99 49.2 30.96 49.24 29.39C49.32 27.43 50.72 25.66 52.11 25.43V25.44ZM39.42 28.37C37.93 28.58 36.32 33.67 38.07 33.41C40 33.12 39.58 29.32 39.43 28.46C39.43 28.43 39.43 28.4 39.42 28.37ZM53.01 26.24C52.06 26.36 51.46 28.38 51.5 29.24C53.05 29.1 53.5 27.59 53.41 27.03C53.35 26.6 53.25 26.21 53.01 26.24Z" fill="#FFC200"/>
<path d="M43.98 20.7799C44.45 20.7999 44.95 21.0499 45.15 21.8299C45.57 23.3599 45.14 26.1299 45.18 27.3099C46.58 26.3199 47.88 23.4699 47.84 23.4799C47.89 23.4799 49.33 23.5699 49.17 24.5199C49.06 25.4599 46.57 28.1299 46.53 28.1499C46.63 28.1599 48.18 34.2299 51.67 34.0699C51.83 34.0699 52 34.0499 52.18 34.0199C54.42 33.6399 55.32 32.5799 55.7 32.1999C55.77 32.1399 55.82 32.0999 55.86 32.0999C55.88 32.0999 55.9 32.0999 55.91 32.1299C56.12 32.5699 56.03 33.0999 55.68 33.5199C55.26 34.0399 54.19 34.7799 52.14 35.1599C51.83 35.2199 51.52 35.2499 51.23 35.2599C48.13 35.4099 46.3 32.8899 45.06 28.8799C44.9 30.2399 45.23 32.3499 45.26 33.3899C45.2 33.5299 44.38 34.0399 43.71 34.0499C43.32 34.0499 42.98 33.8899 42.86 33.3599C42.84 33.2399 42.82 33.1299 42.82 33.0099C42.5 33.6299 42.04 34.2899 41.54 34.3699C41.47 34.3799 41.4 34.3899 41.33 34.3899C40.58 34.3899 40.15 33.7699 39.95 33.4199C39.85 33.5799 38.99 34.7799 37.74 34.9799C37.63 34.9999 37.52 35.0099 37.42 35.0099C36.78 35.0099 36.18 34.6599 35.84 34.0699C35.27 34.6599 34.25 35.5199 32.97 35.7099C32.82 35.7299 32.69 35.7399 32.56 35.7399C31.49 35.7299 31.08 34.9899 30.96 34.3299C30.72 33.1699 31.04 29.5599 31.06 29.5599C31.06 29.5599 29.5 30.4999 28.93 30.5799C28.9 30.5799 28.87 30.5799 28.84 30.5799C28.09 30.5799 27.54 29.2499 27.54 29.2199C27.54 29.1899 27.55 29.1599 27.58 29.1399C28.02 28.8999 31.26 27.1799 31.26 27.1799C31.26 27.1799 31.62 24.5299 31.69 24.1899C31.75 23.8499 32.14 23.0699 32.65 22.7799C33.02 22.5499 33.41 22.3799 33.81 22.2599C33.84 22.2599 33.87 22.2599 33.89 22.2599C33.98 22.2599 34.04 22.2899 34.04 22.3499C34.04 22.4299 33.63 26.2999 33.64 26.2999C33.64 26.2999 35.31 25.6099 35.95 25.5099C36 25.5099 36.05 25.4999 36.1 25.4999C36.49 25.4999 36.72 25.7599 36.53 26.1599C36.32 26.5999 36.06 27.1099 35.92 27.3499C35.78 27.5899 35.66 27.6499 35.24 27.7999C34.68 27.9999 33.4 28.5599 33.4 28.5599C33.39 28.5599 32.91 32.6799 33.05 33.3399C33.11 33.6899 33.27 34.0799 33.66 34.0899C33.69 34.0899 33.72 34.0899 33.76 34.0899C34.21 34.0199 34.96 33.3699 35.51 32.8599C35.15 29.7499 37.18 27.3399 38.96 27.0799C39 27.0799 39.03 27.0799 39.07 27.0799C39.5 27.0799 39.48 27.5299 39.95 27.5299C39.99 27.5299 40.04 27.5299 40.08 27.5299C40.22 27.5099 40.36 27.4799 40.49 27.4599C40.54 27.4599 40.59 27.4499 40.64 27.4499C40.85 27.4499 41.06 27.5599 41.16 28.0999C41.33 29.0699 41.04 30.7399 41.19 31.7299C41.29 32.4099 41.44 32.8999 41.68 32.8899C41.68 32.8899 41.7 32.8899 41.71 32.8899C42.16 32.8199 42.58 32.0799 42.86 31.4499C43.08 28.0199 43.25 21.7399 42.98 21.0699C43.09 20.9799 43.53 20.7999 43.98 20.8199M37.95 33.4099C37.95 33.4099 38.03 33.4099 38.08 33.3999C40.01 33.1099 39.59 29.3099 39.44 28.4499C39.44 28.4199 39.44 28.3899 39.43 28.3599C37.98 28.5699 36.41 33.4099 37.95 33.4099ZM25.49 21.2399C27.25 21.0999 28.74 21.7999 28.82 23.6899C28.9 25.6399 27.87 26.6099 26.7 26.8099C26.55 26.8299 26.42 26.8499 26.31 26.8499C25.51 26.8699 25.43 26.4299 25.43 26.4299C25.43 26.4299 26.73 25.1799 26.71 24.2199C26.7 23.7699 26.41 22.6699 24.9 22.7599C24.73 22.7699 24.54 22.7999 24.33 22.8399C21.51 23.4599 19.7 25.0899 19.78 27.4299C19.96 30.0999 28.7 29.8399 29.36 33.6399C30.08 37.7099 26.83 40.0199 23.71 40.2099C23.52 40.2199 23.33 40.2099 23.14 40.2099C21.71 40.0699 20.34 39.0799 19.69 37.5699C18.82 35.5699 19.23 33.4599 21.72 33.1399C21.79 33.1299 21.86 33.1199 21.93 33.1199C22.42 33.1299 22.89 33.4799 23.04 33.9799C23.04 33.9899 23.04 33.9999 23.04 34.0099C23.05 34.0099 20.7 34.9699 21.61 37.4099C21.76 37.8199 22.4 38.5099 23.3 38.5699C23.4 38.5699 23.5 38.5699 23.6 38.5699C24.65 38.4999 27.58 37.3099 26.91 34.1399C26.41 31.2499 17.66 31.8899 17.31 27.7999C17.39 23.2299 22.8 21.7999 24.47 21.3899C24.81 21.3099 25.15 21.2599 25.47 21.2399M52.73 25.3999C53.58 25.4499 54.26 25.8899 54.46 26.1599C54.72 26.4999 54.96 27.2899 54.77 27.8999C54.18 29.8199 51.38 29.8499 51.4 29.8499C51.4 29.8499 51.35 31.2099 52.49 31.1999C52.56 31.1999 52.64 31.1999 52.72 31.1799C53.91 31.0099 54.35 30.3899 54.76 29.8699C54.76 29.8699 54.77 29.8699 54.78 29.8699C55.01 29.8699 55.7 30.3999 55.48 30.8299C55.31 31.1799 54.18 32.3199 52.58 32.5899C52.38 32.6199 52.2 32.6399 52.02 32.6399C49.93 32.6899 49.2 30.8399 49.23 29.3899C49.31 27.4299 50.71 25.6599 52.1 25.4299C52.31 25.3899 52.52 25.3799 52.72 25.3899M51.5 29.2399C53.05 29.0999 53.5 27.5899 53.41 27.0299C53.36 26.6199 53.26 26.2399 53.04 26.2299C53.03 26.2299 53.02 26.2299 53.01 26.2299C52.06 26.3499 51.46 28.3699 51.5 29.2299M43.67 18.9599C42.9 18.9099 42.19 19.1899 41.83 19.4799C41.58 19.6899 41.32 19.8899 41.06 20.0999C41.14 20.4599 41.23 20.8099 41.31 21.1699C41.35 21.5899 41.36 23.2299 41.31 24.5499C41.3 24.9099 41.29 25.2899 41.27 25.6699C41.03 25.5899 40.79 25.5499 40.57 25.5499C40.45 25.5499 40.34 25.5499 40.25 25.5699C39.95 25.3699 39.54 25.1899 39.01 25.1899C38.89 25.1899 38.77 25.1899 38.64 25.2199C38.53 25.2399 38.42 25.2599 38.32 25.2799C38.26 25.0799 38.17 24.8899 38.06 24.7099C37.64 24.0399 36.91 23.6399 36.1 23.6399C35.97 23.6399 35.83 23.6499 35.69 23.6699C35.69 23.6699 35.69 23.6699 35.68 23.6699C35.79 22.2899 35.78 22.2199 35.75 22.0199C35.61 21.0599 34.88 20.3899 33.97 20.4099C33.86 20.4099 33.76 20.4199 33.65 20.4399C33.62 20.4399 33.59 20.4499 33.56 20.4599C33.53 20.4599 33.5 20.4799 33.47 20.4899C32.94 20.6499 32.41 20.8899 31.91 21.2099C31.32 21.5699 30.84 22.1299 30.5 22.6799C30.05 20.5099 28.41 19.2399 25.93 19.4799C25.54 19.5199 25.13 19.5899 24.72 19.6899C21.92 20.3999 19.5 21.6999 17.72 23.3799C16.26 24.7799 15.4 26.3399 15.47 28.1299C15.57 30.1799 17.3 31.3599 19.16 32.1999C17.47 33.2699 16.84 35.2099 18.01 37.6799C19.12 39.9599 21.52 41.6899 23.69 41.9699C23.95 41.9999 24.21 42.0099 24.46 41.9999C27.3 41.8499 29.89 40.0699 30.92 37.1299C31.43 37.4299 32.01 37.5999 32.64 37.6099C32.85 37.6099 33.08 37.5999 33.3 37.5699C34.29 37.4299 35.14 37.0099 35.84 36.5199C36.33 36.7699 36.86 36.8999 37.41 36.8999C37.62 36.8999 37.82 36.8799 38.03 36.8399C38.79 36.7099 39.44 36.3699 39.97 35.9899C40.47 36.2299 40.93 36.2799 41.26 36.2699C41.41 36.2699 41.57 36.2499 41.73 36.2299C42.12 36.1599 42.47 36.0099 42.78 35.8099C43.04 35.8899 43.31 35.9199 43.61 35.9099C44.31 35.8899 45.34 35.5499 46.11 34.9899C47.42 36.4399 48.99 37.1399 50.94 37.0299C51.31 37.0099 51.71 36.9499 52.1 36.8699C55.05 36.2599 56.53 35.0299 57.1 34.3599C57.89 33.4699 58.11 32.3599 57.62 31.4299C57.61 31.4099 57.6 31.3799 57.58 31.3599C57.57 31.3399 57.55 31.3199 57.54 31.2899C57.48 31.1999 57.41 31.1199 57.34 31.0399C57.46 30.5099 57.31 29.9499 56.9 29.4299C56.77 29.2699 56.6 29.0899 56.4 28.9299C56.46 28.8099 56.51 28.6799 56.55 28.5399C56.86 27.5899 56.55 26.3199 55.86 25.4799C55.1 24.5399 53.66 23.8099 52.33 23.6999C51.99 23.6699 51.66 23.6899 51.34 23.7399C51.15 23.7699 50.97 23.8199 50.79 23.8799C50.66 23.5699 50.47 23.2699 50.22 22.9999C49.26 21.9399 47.99 21.7299 47.48 21.6999C47.24 21.6799 47.01 21.6699 46.77 21.6499C46.28 20.1499 45 19.0499 43.65 18.9599H43.67ZM21.61 27.0499C21.59 26.0599 22 25.6599 22.13 25.5299C22.55 25.0999 23.29 24.7699 24.26 24.5799C24.38 24.5599 24.48 24.5399 24.58 24.5399C24.65 24.5399 24.76 24.5399 24.84 24.5599C24.71 24.7599 24.47 25.0499 24.26 25.2499C24 25.4999 23.73 25.7499 23.47 25.9999C23.51 26.3199 23.56 26.6299 23.62 26.9499C23.71 27.4499 24.05 27.9499 24.62 28.2799C23.6 27.9499 21.92 27.4399 21.63 27.0499H21.61ZM25.79 28.6599C25.79 28.6599 25.72 28.6399 25.68 28.6199C25.72 28.6199 25.76 28.6199 25.8 28.6299V28.6499L25.79 28.6599ZM25.2 34.8799C25.14 34.7099 25.09 34.5299 25.03 34.3599C25.08 34.3899 25.12 34.4199 25.15 34.4599C25.18 34.5899 25.2 34.7399 25.2 34.8899V34.8799ZM23.24 36.7899C23.23 36.0799 23.81 35.7499 24.01 35.6499C24.39 35.4999 24.78 35.3499 25.16 35.1999C25.1 35.4999 24.93 35.8099 24.58 36.1099C24.14 36.4899 23.59 36.7099 23.24 36.7899Z" fill="white"/>
<path fill-rule="evenodd" clip-rule="evenodd" d="M19.45 19.1302L16.66 23.4902L23.45 37.4402L25.43 36.8802L23.45 18.9702L19.45 19.1302Z" fill="white"/>
<path fill-rule="evenodd" clip-rule="evenodd" d="M21.78 16.3502C24.03 15.8402 26.17 16.3802 26.27 18.6302C26.35 20.5802 25.28 21.5602 24.07 21.7602C22.86 21.9602 22.75 21.3802 22.75 21.3802C22.75 21.3802 24.1 20.1202 24.08 19.1602C24.06 18.6602 23.72 17.3502 21.61 17.8002C18.69 18.4302 16.81 20.0702 16.89 22.4102C17.07 25.0802 26.11 24.7802 26.77 28.5802C27.49 32.6502 24.12 34.9802 20.9 35.1802C19.21 35.2902 17.52 34.2502 16.76 32.5502C15.87 30.5502 16.3 28.4402 18.87 28.1202C19.46 28.0202 20.06 28.3902 20.24 28.9602C20.24 28.9702 20.24 28.9802 20.25 28.9902C20.26 28.9902 17.83 29.9602 18.76 32.3902C18.93 32.8402 19.72 33.6402 20.82 33.5402C21.91 33.4702 24.93 32.2702 24.26 29.0902C23.75 26.2002 14.71 26.8802 14.35 22.7902C14.43 18.2202 20.04 16.7702 21.77 16.3502H21.78ZM40.93 15.8802C41.17 15.6902 42.76 15.1402 43.17 16.6702C43.6 18.1902 43.14 20.9702 43.18 22.1502C44.63 21.1502 45.99 18.2902 45.94 18.3002C45.94 18.3002 47.48 18.3702 47.31 19.3302C47.19 20.2702 44.61 22.9602 44.57 22.9702C44.7 22.9902 46.36 29.5902 50.39 28.8202C52.71 28.4302 53.64 27.3702 54.03 26.9902C54.13 26.8902 54.22 26.8602 54.26 26.9202C54.48 27.3602 54.38 27.8902 54.03 28.3102C53.59 28.8302 52.49 29.5702 50.36 29.9602C46.56 30.6802 44.44 28.1002 43.06 23.7102C42.89 25.0702 43.23 27.1802 43.25 28.2202C43.15 28.4302 41.09 29.6202 40.77 28.2102C40.75 28.0902 40.73 27.9802 40.73 27.8602C40.4 28.4802 39.92 29.1502 39.4 29.2302C38.48 29.3702 37.99 28.6602 37.76 28.2802C37.65 28.4402 36.77 29.6402 35.46 29.8502C34.68 30.0002 33.9 29.6402 33.49 28.9502C32.9 29.5402 31.84 30.4102 30.51 30.6002C29.09 30.8002 28.57 29.9702 28.43 29.2302C28.19 28.0702 28.54 24.4602 28.56 24.4502C28.56 24.4502 26.94 25.4002 26.35 25.4902C25.53 25.6102 24.92 24.1702 24.92 24.1502C24.92 24.1202 24.93 24.0902 24.96 24.0702C25.42 23.8302 28.77 22.1002 28.77 22.0902C28.77 22.0902 29.16 19.4402 29.23 19.0902C29.29 18.7502 29.7 17.9702 30.23 17.6702C30.61 17.4402 31.02 17.2702 31.43 17.1502C31.56 17.1302 31.66 17.1502 31.67 17.2302C31.67 17.3102 31.23 21.1902 31.24 21.1902C31.24 21.1902 32.97 20.4902 33.63 20.3802C34.13 20.3002 34.45 20.5802 34.23 21.0202C34.01 21.4602 33.74 21.9702 33.59 22.2102C33.44 22.4502 33.32 22.5102 32.88 22.6602C32.3 22.8702 30.97 23.4302 30.97 23.4302C30.96 23.4302 30.45 27.5502 30.59 28.2202C30.65 28.6002 30.84 29.0202 31.31 28.9602C31.78 28.8902 32.55 28.2302 33.12 27.7202C32.76 24.6102 34.88 22.1902 36.71 21.9202C37.31 21.8302 37.19 22.4502 37.86 22.3502C38 22.3302 38.15 22.3002 38.29 22.2802C38.55 22.2402 38.86 22.2402 38.98 22.9102C39.15 23.8802 38.85 25.5502 39 26.5502C39.1 27.2602 39.26 27.7502 39.53 27.7102C40 27.6402 40.44 26.8902 40.72 26.2702C40.96 22.8402 41.17 16.5502 40.9 15.8802H40.93ZM50.34 20.2602C51.51 20.0502 52.5 20.6402 52.76 20.9802C53.02 21.3202 53.27 22.1102 53.08 22.7202C52.47 24.6402 49.58 24.6802 49.6 24.6802C49.61 24.6802 49.53 26.2102 50.96 26.0102C52.19 25.8402 52.65 25.2102 53.07 24.7002C53.28 24.6602 54.05 25.2102 53.82 25.6602C53.65 26.0102 52.48 27.1602 50.81 27.4302C48.2 27.8402 47.32 25.8102 47.36 24.2502C47.45 22.2902 48.9 20.5102 50.34 20.2702V20.2602ZM37.22 23.2502C35.68 23.4702 33.99 28.5702 35.8 28.3002C37.8 28.0002 37.38 24.2002 37.23 23.3402C37.23 23.3102 37.23 23.2802 37.22 23.2502ZM51.27 21.0602C50.29 21.1802 49.66 23.2002 49.7 24.0602C51.3 23.9102 51.78 22.4102 51.68 21.8402C51.62 21.4102 51.51 21.0202 51.27 21.0502V21.0602Z" fill="#FFC200"/>
<path d="M41.97 15.63C42.45 15.65 42.96 15.9 43.17 16.67C43.6 18.19 43.14 20.97 43.18 22.15C44.63 21.15 45.99 18.29 45.94 18.3C46.03 18.3 47.47 18.4 47.31 19.33C47.19 20.27 44.61 22.96 44.57 22.97C44.67 22.98 46.24 29.03 49.85 28.87C50.02 28.87 50.2 28.85 50.39 28.82C52.71 28.43 53.64 27.37 54.03 26.99C54.1 26.93 54.16 26.89 54.2 26.89C54.22 26.89 54.24 26.89 54.26 26.92C54.48 27.36 54.38 27.89 54.03 28.31C53.59 28.83 52.49 29.57 50.36 29.96C50.02 30.02 49.7 30.06 49.39 30.07C46.2 30.21 44.31 27.71 43.06 23.71C42.89 25.07 43.23 27.18 43.25 28.22C43.19 28.36 42.33 28.88 41.64 28.89C41.24 28.89 40.89 28.73 40.77 28.21C40.75 28.09 40.73 27.98 40.73 27.86C40.4 28.48 39.92 29.15 39.4 29.23C39.32 29.24 39.25 29.25 39.18 29.25C38.41 29.25 37.97 28.63 37.77 28.29C37.66 28.45 36.78 29.65 35.47 29.86C35.35 29.88 35.24 29.89 35.12 29.89C34.46 29.89 33.85 29.54 33.5 28.95C32.91 29.54 31.85 30.41 30.52 30.6C30.36 30.62 30.22 30.63 30.08 30.63C28.99 30.62 28.57 29.89 28.44 29.23C28.2 28.07 28.55 24.46 28.57 24.45C28.57 24.45 26.95 25.4 26.36 25.49C26.33 25.49 26.3 25.49 26.26 25.49C25.48 25.49 24.93 24.17 24.93 24.14C24.93 24.11 24.94 24.08 24.97 24.06C25.43 23.82 28.78 22.09 28.78 22.08C28.78 22.08 29.17 19.43 29.24 19.08C29.3 18.74 29.71 17.96 30.24 17.66C30.62 17.43 31.03 17.26 31.44 17.14C31.47 17.14 31.5 17.14 31.53 17.14C31.62 17.14 31.68 17.17 31.69 17.23C31.69 17.31 31.25 21.19 31.26 21.19C31.26 21.19 32.99 20.49 33.65 20.38C33.71 20.38 33.76 20.37 33.81 20.37C34.21 20.37 34.44 20.63 34.25 21.02C34.03 21.46 33.76 21.97 33.61 22.21C33.46 22.45 33.34 22.51 32.9 22.66C32.32 22.87 30.99 23.43 30.99 23.43C30.98 23.43 30.47 27.55 30.61 28.22C30.67 28.57 30.83 28.96 31.23 28.96C31.26 28.96 31.3 28.96 31.33 28.96C31.8 28.89 32.57 28.23 33.14 27.72C32.78 24.61 34.9 22.19 36.73 21.92C36.77 21.92 36.81 21.92 36.84 21.92C37.28 21.92 37.26 22.36 37.74 22.37C37.78 22.37 37.83 22.37 37.88 22.36C38.02 22.34 38.17 22.31 38.31 22.29C38.36 22.29 38.42 22.28 38.47 22.28C38.69 22.28 38.91 22.39 39 22.93C39.17 23.9 38.87 25.57 39.02 26.57C39.12 27.25 39.27 27.73 39.52 27.73C39.53 27.73 39.54 27.73 39.55 27.73C40.02 27.66 40.46 26.91 40.74 26.29C40.98 22.86 41.19 16.57 40.92 15.9C41.04 15.81 41.49 15.63 41.96 15.65M35.67 28.3C35.67 28.3 35.76 28.3 35.81 28.29C37.81 27.99 37.39 24.19 37.24 23.33C37.24 23.3 37.24 23.27 37.23 23.24C35.73 23.45 34.08 28.3 35.68 28.3M22.86 16.19C24.67 16.05 26.2 16.75 26.28 18.63C26.36 20.58 25.29 21.56 24.08 21.76C23.92 21.79 23.79 21.8 23.66 21.8C22.84 21.82 22.76 21.38 22.76 21.38C22.76 21.38 24.11 20.12 24.09 19.16C24.08 18.71 23.79 17.62 22.23 17.71C22.05 17.72 21.84 17.75 21.62 17.8C18.7 18.43 16.82 20.07 16.9 22.41C17.08 25.08 26.12 24.78 26.78 28.58C27.5 32.65 24.13 34.98 20.91 35.18C20.71 35.19 20.51 35.19 20.31 35.18C18.85 35.04 17.44 34.06 16.77 32.56C15.88 30.56 16.31 28.45 18.88 28.13C18.95 28.12 19.03 28.11 19.1 28.11C19.61 28.12 20.09 28.47 20.24 28.96C20.24 28.97 20.24 28.98 20.25 28.99C20.26 28.99 17.83 29.96 18.76 32.39C18.91 32.8 19.57 33.48 20.49 33.55C20.59 33.55 20.7 33.55 20.81 33.55C21.9 33.48 24.92 32.28 24.25 29.1C23.74 26.21 14.7 26.89 14.34 22.8C14.42 18.23 20.03 16.78 21.76 16.36C22.12 16.28 22.48 16.22 22.83 16.2M51 20.22C51.87 20.27 52.56 20.7 52.77 20.98C53.03 21.32 53.28 22.11 53.09 22.72C52.48 24.64 49.59 24.68 49.61 24.68C49.61 24.68 49.55 26.03 50.73 26.03C50.81 26.03 50.89 26.03 50.98 26.01C52.21 25.84 52.67 25.21 53.09 24.7C53.09 24.7 53.1 24.7 53.11 24.7C53.35 24.7 54.06 25.23 53.83 25.66C53.66 26.01 52.49 27.16 50.82 27.43C50.61 27.46 50.41 27.48 50.23 27.48C48.08 27.53 47.33 25.69 47.37 24.24C47.46 22.28 48.91 20.5 50.35 20.26C50.58 20.22 50.79 20.21 51 20.22ZM49.7 24.06C51.3 23.91 51.78 22.41 51.68 21.84C51.62 21.43 51.52 21.06 51.3 21.04C51.29 21.04 51.28 21.04 51.26 21.04C50.28 21.16 49.65 23.18 49.69 24.04M41.66 13.81C40.88 13.76 40.16 14.04 39.8 14.32C39.54 14.52 39.28 14.73 39.01 14.94C39.1 15.3 39.18 15.66 39.27 16.02C39.31 16.45 39.31 18.07 39.26 19.39C39.25 19.77 39.23 20.17 39.21 20.57C38.94 20.47 38.67 20.42 38.43 20.42C38.29 20.42 38.16 20.42 38.07 20.44C37.77 20.24 37.36 20.07 36.82 20.06C36.7 20.06 36.57 20.06 36.45 20.09C36.32 20.11 36.19 20.14 36.05 20.17C35.99 19.97 35.91 19.78 35.8 19.61C35.38 18.93 34.65 18.52 33.82 18.52C33.68 18.52 33.54 18.53 33.4 18.55C33.38 18.55 33.35 18.55 33.32 18.56C33.44 17.18 33.43 17.12 33.4 16.91C33.26 15.95 32.53 15.28 31.62 15.3C31.51 15.3 31.4 15.31 31.29 15.33C31.26 15.33 31.23 15.34 31.2 15.35C31.17 15.35 31.14 15.37 31.11 15.38C30.57 15.54 30.03 15.78 29.52 16.09C28.86 16.48 28.33 17.11 27.98 17.71C27.58 15.45 25.93 14.16 23.3 14.4C22.89 14.44 22.46 14.51 22.02 14.62C19.09 15.35 16.57 16.68 14.74 18.39C13.28 19.78 12.43 21.32 12.5 23.09C12.6 25.14 14.37 26.31 16.28 27.15C14.54 28.23 13.9 30.17 15.09 32.64C16.22 34.91 18.66 36.64 20.87 36.91C21.14 36.94 21.41 36.95 21.67 36.93C24.6 36.77 27.29 34.96 28.34 31.98C28.87 32.3 29.48 32.49 30.15 32.5C30.37 32.5 30.6 32.49 30.84 32.46C31.87 32.31 32.75 31.88 33.48 31.38C33.98 31.63 34.53 31.77 35.09 31.77C35.3 31.77 35.52 31.75 35.73 31.71C36.52 31.58 37.2 31.22 37.75 30.83C38.26 31.08 38.75 31.13 39.09 31.12C39.25 31.12 39.41 31.1 39.57 31.08C39.95 31.02 40.32 30.87 40.66 30.64C40.92 30.72 41.21 30.76 41.52 30.75C42.25 30.73 43.35 30.38 44.13 29.79C45.47 31.25 47.09 31.96 49.09 31.84C49.48 31.82 49.9 31.76 50.32 31.68C53.33 31.07 54.85 29.84 55.43 29.19C56.25 28.28 56.48 27.17 55.97 26.22C55.96 26.2 55.95 26.17 55.93 26.15C55.91 26.13 55.9 26.11 55.88 26.08C55.82 26 55.76 25.92 55.68 25.84C55.79 25.32 55.64 24.77 55.25 24.27C55.11 24.1 54.94 23.91 54.72 23.74C54.77 23.62 54.82 23.5 54.86 23.38C55.19 22.42 54.86 21.14 54.15 20.28C53.38 19.35 51.92 18.63 50.59 18.53C50.24 18.5 49.9 18.52 49.57 18.57C49.35 18.61 49.14 18.66 48.94 18.73C48.81 18.42 48.62 18.13 48.37 17.86C47.4 16.79 46.09 16.58 45.58 16.54C45.32 16.52 45.06 16.5 44.79 16.49C44.29 15 43 13.91 41.64 13.82L41.66 13.81ZM18.74 22.01C18.72 21.05 19.14 20.65 19.28 20.52C19.73 20.07 20.53 19.73 21.56 19.53C21.69 19.51 21.81 19.49 21.91 19.49C22.01 19.49 22.12 19.49 22.19 19.51C22.05 19.71 21.81 19.99 21.61 20.18C21.34 20.43 21.06 20.68 20.79 20.93C20.84 21.25 20.89 21.58 20.95 21.9C21.05 22.44 21.44 22.98 22.11 23.3C22.03 23.27 21.94 23.25 21.86 23.22C20.8 22.9 19.08 22.4 18.75 22L18.74 22.01ZM23.17 23.64C23.08 23.61 22.99 23.58 22.91 23.55C23 23.57 23.1 23.58 23.19 23.58C23.19 23.6 23.18 23.61 23.17 23.63V23.64ZM20.39 31.76C20.39 31.03 21.06 30.68 21.21 30.61C21.62 30.44 22.03 30.27 22.44 30.09C22.35 29.8 22.27 29.5 22.18 29.21C22.31 29.28 22.42 29.35 22.49 29.41C22.58 29.87 22.52 30.23 22.3 30.58C21.86 31.26 20.93 31.65 20.39 31.76Z" fill="white"/>
</g>
<path d="M50.42 33.6504C50.42 33.6504 53.21 34.7904 56.01 38.5304C57.3 37.8704 58.79 35.7704 58.79 35.7704L50.42 33.6504Z" fill="#0A0053"/>
<path d="M34.26 54.5205L34.03 54.4305C37.33 46.4205 50.52 33.5804 50.65 33.4604L50.82 33.6404C50.69 33.7704 37.54 46.5704 34.25 54.5304L34.26 54.5205Z" fill="#FFC200"/>
<path d="M19.79 48.7604C19.15 34.5604 12.24 24.4505 12.17 24.3505L12.37 24.2104C12.37 24.2104 14.15 26.7904 15.96 31.0704C17.63 35.0204 19.7 41.2905 20.04 48.7505H19.79V48.7604Z" fill="#FFC200"/>
<path d="M13.62 21.6501C12.73 25.3501 10.68 28.0201 9.04999 27.6301C7.41999 27.2401 2.93999 22.7101 3.82999 19.0101C4.71999 15.3101 10.65 13.8501 12.29 14.2501C13.93 14.6501 14.52 17.9601 13.63 21.6501H13.62Z" fill="#FFC200"/>
<path d="M10.71 15.6504C10.86 16.1204 10.58 17.0104 9.50002 17.3604C8.42002 17.7104 6.94002 17.3804 6.79002 16.9104C6.64002 16.4404 7.44002 15.9204 8.52002 15.5704C9.60002 15.2204 10.56 15.1804 10.71 15.6504Z" fill="white"/>
<path d="M4.9824 19.2959C5.11033 18.6738 5.03862 18.1334 4.82223 18.0889C4.60584 18.0444 4.32672 18.5127 4.1988 19.1348C4.07087 19.7569 4.14258 20.2973 4.35896 20.3418C4.57535 20.3863 4.85447 19.918 4.9824 19.2959Z" fill="#FF0A4C"/>
<path d="M50.42 33.6503L57.74 36.3803L62.58 37.3803C62.72 37.4103 62.87 37.4203 63.01 37.4003L66.84 36.9603L64.34 35.5703L60.98 34.8503C57.61 34.0303 54.22 33.4503 50.74 33.5303L50.42 33.6403V33.6503Z" fill="#FF0A4C"/>
<path d="M50.99 33.1803L50.77 32.8203L50.47 32.9103L50.42 33.6503L50.74 33.5403L50.99 33.1803Z" fill="#FFC200"/>
<path d="M50.77 32.8203L50.74 33.5403L60.98 34.8603L61.22 34.5503L60.99 34.1803L50.77 32.8203Z" fill="#FFC200"/>
<path d="M60.99 34.1802V34.8602L66.84 36.9702L66.87 36.5402C66.89 36.2702 66.72 36.0202 66.46 35.9302L60.99 34.1802Z" fill="white"/>
<path d="M26.82 47.9105L27.46 45.8005L31.05 45.7305L33.62 47.3905L33.22 50.0805L26.82 47.9105Z" fill="#FF0A4C"/>
<path d="M20.22 51.4802C20.22 51.4802 21.54 47.2402 23.74 47.2202C25.94 47.2002 28.53 47.8802 30.66 48.5202C32.8 49.1602 34.24 49.6502 34.08 51.3002C33.93 52.9502 33.69 54.9002 33.69 54.9002L20.21 51.4902L20.22 51.4802Z" fill="white"/>
<path d="M40.71 57.3101L40.43 58.2201L40.84 58.4501L41.03 57.6001L40.71 57.3101Z" fill="white"/>
<path d="M40.31 58.5703L40.18 59.5103L40.59 59.5903L40.76 58.8003L40.31 58.5703Z" fill="white"/>
<path d="M41.82 53.6905L43.15 53.3905C43.29 53.3605 43.44 53.4205 43.51 53.5405C43.62 53.7205 43.71 54.0405 43.57 54.5605C43.38 55.2605 42.9 56.7805 42.69 57.4205C42.63 57.6105 42.49 57.7705 42.31 57.8505L41.98 58.0105C41.84 58.0805 41.69 58.1005 41.54 58.0605C41.06 57.9605 40.06 57.6305 40.12 56.6905L41.52 53.9105C41.58 53.7905 41.69 53.7105 41.81 53.6805L41.82 53.6905Z" fill="white"/>
<path d="M39.76 59.1602L40.97 59.5502C41.05 59.5802 41.1 59.6502 41.1 59.7302L41.08 61.8802C41.08 61.9902 41.01 62.0902 40.9 62.1202L40.31 62.3002C40.2 62.3302 40.09 62.3002 40.02 62.2002C39.82 61.9102 39.46 61.1502 39.49 59.3402C39.49 59.2002 39.62 59.1102 39.75 59.1502L39.76 59.1602Z" fill="white"/>
<path d="M41.3734 58.4793L40.2764 58.0725C40.09 58.0033 39.8836 58.0963 39.8154 58.2801C39.7473 58.4639 39.8431 58.669 40.0295 58.7381L41.1265 59.145C41.3129 59.2142 41.5193 59.1212 41.5875 58.9374C41.6557 58.7535 41.5598 58.5485 41.3734 58.4793Z" fill="#F0B42E"/>
<path d="M40.1425 57.7674L39.5143 57.5344C39.1984 57.4172 38.8482 57.5762 38.732 57.8895C38.6158 58.2028 38.7777 58.5517 39.0935 58.6689L39.7217 58.9019C40.0376 59.019 40.3878 58.86 40.504 58.5468C40.6202 58.2335 40.4584 57.8845 40.1425 57.7674Z" fill="#FF0A4C"/>
<path d="M27.44 58.6504C27.44 58.6504 31.27 58.9404 32.82 58.4404C32.82 58.4404 34.03 60.8404 36.29 59.2404C36.29 59.2404 36.36 59.9404 37.11 60.1104C37.86 60.2804 38.55 60.3504 39 58.8804L35.12 56.6904L30.33 56.8404L27.43 58.6504H27.44Z" fill="white"/>
<path d="M15.98 43.0304C15.98 43.0304 16.01 43.0304 16.02 43.0104L16.25 42.7604C16.25 42.7604 16.27 42.7204 16.26 42.7004C16.26 42.6804 16.23 42.6604 16.21 42.6604L15.98 42.6304L16.15 42.4204C16.15 42.4204 16.17 42.3504 16.15 42.3304C16.12 42.3104 16.08 42.3104 16.06 42.3304L15.82 42.6304C15.82 42.6304 15.8 42.6704 15.82 42.6904C15.82 42.7104 15.85 42.7304 15.87 42.7304L16.1 42.7604L15.95 42.9204C15.95 42.9204 15.93 42.9804 15.95 43.0104C15.96 43.0204 15.98 43.0304 16 43.0304H15.98Z" fill="white"/>
<path d="M16.13 42.4705C16.1963 42.4705 16.25 42.4167 16.25 42.3505C16.25 42.2842 16.1963 42.2305 16.13 42.2305C16.0637 42.2305 16.01 42.2842 16.01 42.3505C16.01 42.4167 16.0637 42.4705 16.13 42.4705Z" fill="white"/>
<path d="M14.27 44.2501C14.27 44.2501 14.27 42.8401 14.44 42.6501C14.61 42.4601 15.11 43.2201 15.11 43.2201C15.11 43.2201 14.76 44.1701 14.28 44.2501H14.27Z" fill="white"/>
<path d="M17.78 44.5404C17.78 44.5404 17.89 42.9404 17.73 42.6504C17.57 42.3604 16.82 43.2504 16.82 43.2504C16.82 43.2504 17.39 44.5804 17.78 44.5304V44.5404Z" fill="white"/>
<path d="M14.1138 44.7287L14.0943 45.8785C14.0769 46.9056 14.8932 47.7523 15.9175 47.7697C16.9419 47.787 17.7864 46.9685 17.8038 45.9414L17.8232 44.7915C17.8406 43.7644 17.0243 42.9177 16 42.9004C14.9756 42.883 14.1312 43.7016 14.1138 44.7287Z" fill="white"/>
<path d="M15.04 45.9601C15.04 45.9601 15.46 45.6201 15.95 45.6201C15.95 45.6201 15.46 45.8101 15.36 46.0201L15.05 45.9601H15.04Z" fill="#DFEAF0"/>
<path d="M13.12 45.77C13.12 45.77 13.15 45.5 13.42 45.5C13.69 45.5 13.92 45.64 14.1 45.96L13.12 45.77Z" fill="white"/>
<path d="M15.65 45.1104C15.65 45.1104 15.26 45.1704 15.13 45.0604C14.96 44.9104 14.99 45.4304 15.46 45.4004C16 45.3604 16.03 45.1704 16 45.0204C15.98 44.9004 15.91 45.0904 15.64 45.1104H15.65Z" fill="#2F2D2A"/>
<path d="M15.1 44.9704V45.0904C15.1 45.0904 15.14 45.1604 15.18 45.1604C15.18 45.1604 15.19 45.1604 15.2 45.1604C15.2 45.1304 15.22 45.1104 15.25 45.1104C15.28 45.1104 15.31 45.1304 15.31 45.1604C15.31 45.1604 15.31 45.1604 15.31 45.1704C15.51 45.1804 15.7 45.1604 15.89 45.0904C15.93 45.0804 15.95 45.0404 15.95 45.0004V44.8804C15.67 44.9904 15.39 45.0204 15.11 44.9604L15.1 44.9704Z" fill="white"/>
<path d="M16.08 43.4903C16.17 43.5703 16.24 43.6703 16.28 43.7703C16.29 43.5903 16.22 43.4103 16.07 43.2703C15.82 43.0503 15.46 43.0603 15.25 43.2903C15.21 43.3303 15.19 43.3703 15.17 43.4203C15.43 43.2303 15.81 43.2503 16.08 43.4903Z" fill="#DFEAF0"/>
<path d="M15.49 44.8004C15.86 44.8004 16.16 44.5005 16.16 44.1305C16.16 43.7604 15.86 43.4604 15.49 43.4604C15.12 43.4604 14.82 43.7604 14.82 44.1305C14.82 44.5005 15.12 44.8004 15.49 44.8004Z" fill="#DDDFE5"/>
<path d="M15.54 44.7204C15.91 44.7204 16.21 44.4204 16.21 44.0504C16.21 43.6803 15.91 43.3804 15.54 43.3804C15.17 43.3804 14.87 43.6803 14.87 44.0504C14.87 44.4204 15.17 44.7204 15.54 44.7204Z" fill="#504C47"/>
<path d="M15.58 44.6101C15.9169 44.6101 16.19 44.337 16.19 44.0001C16.19 43.6632 15.9169 43.3901 15.58 43.3901C15.2431 43.3901 14.97 43.6632 14.97 44.0001C14.97 44.337 15.2431 44.6101 15.58 44.6101Z" fill="#2F2D2A"/>
<path d="M15.45 44.1305C15.566 44.1305 15.66 44.0364 15.66 43.9204C15.66 43.8045 15.566 43.7104 15.45 43.7104C15.334 43.7104 15.24 43.8045 15.24 43.9204C15.24 44.0364 15.334 44.1305 15.45 44.1305Z" fill="white"/>
<path d="M15.89 44.3402C15.9287 44.3402 15.96 44.3089 15.96 44.2702C15.96 44.2315 15.9287 44.2002 15.89 44.2002C15.8513 44.2002 15.82 44.2315 15.82 44.2702C15.82 44.3089 15.8513 44.3402 15.89 44.3402Z" fill="white"/>
<path d="M17.8 48.1904C18.03 47.9304 17.93 47.1504 17.9 46.6504C17.85 46.2804 17.81 45.9904 17.81 45.9904C17.04 45.8604 16.07 47.3704 16.07 47.3704C16.07 47.3704 16.31 48.0804 16.47 48.3904C16.73 48.4504 17.43 48.6204 17.8 48.1804V48.1904Z" fill="white"/>
<path d="M17.7 48.1004C17.33 48.5304 16.73 48.4504 16.47 48.3904C16.51 48.4604 16.54 48.5104 16.57 48.5304C16.9 48.7204 17.76 48.4704 17.92 48.2904C18.06 48.1404 17.98 47.2704 17.9 46.6504C17.93 47.1504 17.92 47.8404 17.7 48.1004Z" fill="#DFEAF0"/>
<path d="M15.7 47.8402C15.7 47.8402 15.37 47.7502 15.29 48.0402C15.24 48.2102 15.16 48.3502 14.85 48.3902C14.29 48.4702 13.73 48.1702 13.69 47.7902C13.65 47.4102 13.65 46.8202 14.12 46.3802C14.71 45.8202 15.9 46.5302 15.71 47.8302L15.7 47.8402Z" fill="white"/>
<path d="M13.74 47.9602C13.74 47.9602 13.93 48.2602 14.56 48.2502C15.31 48.2302 15.09 47.4502 15.44 47.5702C15.7 47.6602 16.12 47.5602 16.12 47.5602L16.21 47.8102C16.21 47.8102 15.76 47.8802 15.62 47.8202C15.62 47.8202 15.33 47.7702 15.27 48.0502C15.21 48.3302 14.96 48.3902 14.68 48.4002C14.68 48.4002 13.98 48.4202 13.73 47.9602H13.74Z" fill="#DFEAF0"/>
<path d="M33.68 56.9405C33.68 56.9405 28.85 60.0805 19.97 59.0905C11.09 58.1005 10.38 48.7705 11.07 46.6605L12.76 45.9805L19.48 47.2105L22.22 51.3305L30.35 53.5105L33.69 56.9505L33.68 56.9405Z" fill="#FF0A4C"/>
<path d="M24.17 55.0903C24.17 55.0903 24.14 56.1703 24.86 56.5803C25.58 56.9903 30.01 58.4303 30.01 58.4303C30.01 58.4303 31.22 58.1103 32.3 57.6303L24.17 55.0903Z" fill="#0A0053"/>
<path d="M22.22 51.3202L21.98 51.4902L21.67 51.4002L19.16 47.6402C19.16 47.6402 15.09 46.2302 11.07 46.6602C11.07 46.6602 10.78 46.6202 10.72 46.3702L11.3 45.9702L14.93 46.1402L19.48 47.2102L22.22 51.3302V51.3202Z" fill="#8054FF"/>
<path d="M19.63 46.9104C19.63 46.9104 17.03 46.1004 14.75 45.8504C12.47 45.6004 11.59 45.6304 11.01 45.8204L10.73 46.3704C10.73 46.3704 13.72 45.7804 19.29 47.4604L21.98 51.5004C21.98 51.5004 23.17 52.1204 25.8 52.5504L26.11 51.9804C26.11 51.9804 23.95 51.6004 22.39 51.0004L19.63 46.9104Z" fill="#F0B42E"/>
<path d="M27.3 45.0203L27.13 45.7103C27.13 45.7103 27.18 45.9003 27.4 45.9903L27.45 45.8103C27.45 45.8103 31.45 45.8603 33.62 47.3903L33.6 47.5503C33.6 47.5503 33.78 47.5903 33.85 47.3103C33.92 47.0303 34.01 46.5103 34.01 46.5103C34.01 46.5103 34.03 46.2903 33.83 46.1703C33.63 46.0503 29.37 44.5303 27.59 44.7703C27.45 44.7903 27.34 44.8903 27.31 45.0203H27.3Z" fill="#F0B42E"/>
<path d="M-2.64998 17.02C-2.77998 17.07 -2.82998 17.21 -2.76998 17.34L4.36002 19.5C4.41002 19.52 4.47002 19.5 4.49002 19.44C4.53002 19.35 4.58002 19.19 4.58002 18.97C4.58002 18.92 4.55002 18.88 4.50002 18.87L-2.63998 17.02H-2.64998Z" fill="white"/>
<path d="M35.06 58.2002L34.87 58.3502L35.11 58.7202L35.44 58.7002L35.39 58.4602L35.06 58.2002Z" fill="#FF7F00"/>
<path d="M35.33 57.2305L34.88 57.5205L35.03 57.9905L34.87 58.3505H35.12L35.62 58.0605L35.33 57.2305Z" fill="#2F4553"/>
<path d="M35.48 58.46L35.7 58.77L35.65 59.24L36.05 59.47L36.23 59.43L36.42 58.83L36.58 59.62L36.8 59.68L37.31 59.08C37.31 59.08 37.5 59.75 37.91 59.57L37.87 58.83L38.17 58.78C38.17 58.78 38.38 59.19 38.77 59.11L38.49 58.43L35.63 58.25L35.47 58.46H35.48Z" fill="#FF7F00"/>
<path d="M39.6 56.3501C39.6 56.3501 40.03 56.5701 40.13 56.7001C40.13 56.7001 40.09 57.0301 39.98 57.1401H39.56L39.46 57.4101C39.46 57.4101 39.72 57.7701 39.76 57.9201C39.76 57.9201 39.65 58.2101 39.53 58.2601C39.53 58.2601 39.14 58.1301 39.03 58.0201L38.91 58.2501C38.91 58.2501 39.1 58.6101 39.02 58.8801C38.94 59.1501 38.74 59.1401 38.68 59.0801C38.62 59.0201 38.4 58.6201 38.4 58.6201L38.18 58.8301V59.4901C38.18 59.4901 37.9 59.6701 37.77 59.4901C37.64 59.3101 37.56 59.0201 37.56 59.0201L37.38 59.0601C37.38 59.0601 37.3 59.5101 37.18 59.6801H36.81C36.81 59.6801 36.69 59.2201 36.67 58.9701L36.56 58.9301C36.56 58.9301 36.32 59.3601 36.24 59.4301L35.9 59.2001L35.98 58.5601L35.78 58.3301L35.44 58.7001L35.12 58.3501L35.45 57.7701L39.6 56.3601V56.3501Z" fill="#FFC200"/>
<path d="M35.33 53.6002C35.33 53.6002 35.51 53.3402 35.6 53.2702L35.54 52.8102L35.8 52.5702H36.01L36.19 52.8502L36.4 52.6802V52.2602C36.4 52.2602 36.63 52.1102 36.95 52.1702L36.98 52.5002L37.15 52.4802L37.3 52.4202C37.3 52.4202 37.34 52.2002 37.4 52.1002C37.4 52.1002 37.74 52.0402 37.92 52.1202L38 52.5902L38.25 52.4202C38.25 52.4202 38.45 52.3602 38.59 52.4002L38.5 52.9002L35.49 53.7902L35.32 53.5902L35.33 53.6002Z" fill="#2F4553"/>
<path d="M35.26 53.5702L35.21 53.4702L35.01 53.4502L34.82 53.7702L34.99 53.9202L35.26 53.5702Z" fill="#FFEBB8"/>
<path d="M35.06 54.7303L34.77 54.5303C34.77 54.5303 34.94 54.2103 34.92 54.0303L34.82 53.7603L35.03 53.7803L35.36 53.9303L35.07 54.7203L35.06 54.7303Z" fill="#2F4553"/>
<path d="M35.2 55.19L34.96 54.76C34.96 54.76 35.15 54.25 35.21 54.15L35.03 53.79C35.03 53.79 35.11 53.57 35.22 53.47C35.22 53.47 35.44 53.51 35.56 53.59L35.86 53.2L35.73 52.83L36.03 52.6L36.33 52.86L36.61 52.69V52.26C36.61 52.26 36.82 52.19 36.97 52.19L37.17 52.5L37.5 52.47C37.5 52.47 37.56 52.2 37.62 52.13C37.62 52.13 37.79 52.1 37.94 52.13C37.94 52.13 38.1 52.63 38.13 52.81L35.2 55.19Z" fill="#FFC200"/>
<path d="M39.9299 56.2849C40.2038 54.4718 39.3191 52.8349 37.9538 52.6287C36.5886 52.4225 35.2599 53.725 34.986 55.538C34.7121 57.3511 35.5968 58.988 36.9621 59.1942C38.3273 59.4004 39.656 58.0979 39.9299 56.2849Z" fill="#FFC200"/>
<path d="M39.3888 56.2029C39.6017 54.794 38.9463 53.5268 37.9252 53.3725C36.904 53.2182 35.9036 54.2353 35.6908 55.6443C35.4779 57.0532 36.1333 58.3204 37.1544 58.4746C38.1756 58.6289 39.176 57.6118 39.3888 56.2029Z" fill="#FF0A4C"/>
<path d="M38.9 53.1703C38.9 53.1703 39.18 53.0803 39.34 53.1403L39.19 53.4903L38.9 53.1703Z" fill="#7221FF"/>
<path d="M38.22 52.8204C38.22 52.8204 38.47 52.4604 38.6 52.4004C38.6 52.4004 38.76 52.4804 38.85 52.5904C38.85 52.5904 38.85 53.0304 38.85 53.1704L38.22 52.8204Z" fill="#FFC200"/>
<path d="M39.03 53.3601L39.34 53.1401C39.34 53.1401 39.54 53.2701 39.63 53.4901L39.42 53.8501L39.03 53.3601Z" fill="#FFC200"/>
<path d="M39.55 54.1804C39.55 54.1804 39.87 54.1304 39.98 54.1804C39.98 54.1804 40.05 54.3604 40.02 54.5804L39.7 54.7404L39.54 54.1704L39.55 54.1804Z" fill="#FFC200"/>
<path d="M39.78 55.29C39.78 55.29 40.07 55.34 40.21 55.47C40.21 55.47 40.23 55.73 40.18 55.82L39.77 55.93V55.29H39.78Z" fill="#FFC200"/>
<path d="M38.7955 56.1251C38.9398 55.1694 38.4946 54.3098 37.8011 54.205C37.1076 54.1003 36.4283 54.79 36.284 55.7457C36.1396 56.7014 36.5848 57.561 37.2783 57.6658C37.9719 57.7705 38.6511 57.0807 38.7955 56.1251Z" fill="#F0B42E"/>
<path d="M39.0179 56.1534C39.1622 55.1978 38.7171 54.3381 38.0235 54.2333C37.33 54.1286 36.6507 54.8184 36.5064 55.774C36.362 56.7297 36.8072 57.5893 37.5007 57.6941C38.1943 57.7988 38.8735 57.1091 39.0179 56.1534Z" fill="#F0B42E"/>
<path d="M38.6192 56.0622C38.7125 55.4451 38.425 54.89 37.9772 54.8224C37.5294 54.7548 37.0909 55.2002 36.9976 55.8172C36.9044 56.4343 37.1919 56.9894 37.6397 57.057C38.0875 57.1247 38.526 56.6793 38.6192 56.0622Z" fill="#FF0A4C"/>
<path d="M37.8301 53.0801L37.55 54.4001L38.1301 54.5101L38.3601 53.3101L37.8301 53.0801Z" fill="#F0B42E"/>
<path d="M38.19 57.1502L38.78 57.9102L39.19 57.3402L38.52 56.6802L38.19 57.1502Z" fill="#F0B42E"/>
<path d="M35.45 57.1304L36.69 56.5504L36.61 55.9204L35.46 56.3904L35.45 57.1304Z" fill="#F0B42E"/>
<path d="M30.4465 52.6981C30.9649 52.671 31.3524 52.023 31.3119 51.2509C31.2714 50.4787 30.8184 49.8748 30.2999 49.902C29.7815 49.9291 29.394 50.5771 29.4345 51.3493C29.4749 52.1214 29.928 52.7253 30.4465 52.6981Z" fill="#F0B42E"/>
<path d="M30.4571 52.3272C30.8431 52.307 31.132 51.83 31.1022 51.262C31.0724 50.6939 30.7353 50.2498 30.3492 50.27C29.9632 50.2902 29.6743 50.7672 29.7041 51.3352C29.7339 51.9033 30.071 52.3474 30.4571 52.3272Z" fill="#0A0053"/>
<path d="M29.75 51.5603L30.88 50.5703C30.88 50.5703 30.95 50.6503 30.99 50.7603C30.99 50.7603 30.36 51.5403 30.19 52.2703C30.19 52.2703 29.85 52.1403 29.75 51.5703V51.5603Z" fill="#8EA3B2"/>
<path d="M35.5548 57.207C35.8996 56.6217 35.9322 56.0018 35.6276 55.8224C35.3231 55.643 34.7967 55.9721 34.4519 56.5574C34.1071 57.1427 34.0745 57.7626 34.3791 57.942C34.6836 58.1214 35.21 57.7923 35.5548 57.207Z" fill="white"/>
<path d="M35.292 57.0073C35.648 56.4029 35.6974 55.7721 35.4024 55.5983C35.1074 55.4245 34.5796 55.7736 34.2236 56.3779C33.8676 56.9822 33.8182 57.6131 34.1132 57.7868C34.4083 57.9606 34.936 57.6116 35.292 57.0073Z" fill="#8054FF"/>
<path d="M34.46 53.9704L27.01 52.1904L25.86 56.2204L33.31 58.0004C34.05 58.2104 34.91 57.4804 35.23 56.3704C35.55 55.2604 35.2 54.1804 34.46 53.9704Z" fill="#FFC200"/>
<path d="M33.2274 56.5409C33.2771 56.2918 32.4657 55.9198 31.415 55.71C30.3643 55.5003 29.4722 55.5322 29.4225 55.7813C29.3727 56.0305 30.1842 56.4025 31.2349 56.6122C32.2856 56.822 33.1776 56.7901 33.2274 56.5409Z" fill="white"/>
<path d="M27.7657 54.5814C28.0836 53.466 27.7429 52.3912 27.0046 52.1808C26.2664 51.9703 25.4101 52.7039 25.0922 53.8193C24.7743 54.9347 25.115 56.0095 25.8533 56.2199C26.5916 56.4303 27.4478 55.6968 27.7657 54.5814Z" fill="#0A0053"/>
<path d="M26.6788 54.2747C26.9967 53.1594 26.656 52.0846 25.9177 51.8741C25.1794 51.6637 24.3232 52.3973 24.0053 53.5127C23.6874 54.628 24.0281 55.7028 24.7664 55.9133C25.5046 56.1237 26.3609 55.3901 26.6788 54.2747Z" fill="white"/>
<path d="M26.6 52.0701L25.91 51.8701L24.76 55.9001L25.45 56.1001C26.19 56.3101 27.05 55.5801 27.37 54.4701C27.69 53.3601 27.34 52.2801 26.6 52.0701Z" fill="#FFC200"/>
<path d="M26.1788 54.1322C26.3771 53.4364 26.1633 52.7656 25.7012 52.6339C25.2391 52.5022 24.7037 52.9594 24.5054 53.6552C24.3071 54.351 24.5209 55.0218 24.983 55.1535C25.4451 55.2852 25.9804 54.828 26.1788 54.1322Z" fill="#FF7F00"/>
<path d="M48.1 16.6104C50.09 17.0004 52.06 17.5204 53.99 18.1704C54.94 18.4804 55.88 18.8304 56.86 19.0104C57.17 19.0704 62.8 20.6504 63.1 20.5304C63.56 20.3504 58.51 18.2804 58.49 17.7904C58.46 17.3004 58.21 16.8504 57.9 16.4604C57.13 15.5104 55.78 14.8704 54.67 15.3904C54.74 14.2804 53.92 13.2604 52.89 12.8604C52.58 12.9604 52.27 13.0504 52.11 13.1504C51.39 13.6404 50.98 14.4804 51.27 15.3504C51.03 14.7404 50.21 14.7604 49.7 15.0004C49 15.3304 48.44 15.9104 48.11 16.6004L48.1 16.6104Z" fill="#CCF8FF"/>
<path d="M46.85 16.3701C47.27 16.4401 47.68 16.5201 48.1 16.6001C48.43 15.9001 48.99 15.3201 49.69 15.0001C50.2 14.7601 51.02 14.7401 51.26 15.3501C50.97 14.4801 51.38 13.6401 52.1 13.1501C52.26 13.0401 52.57 12.9501 52.88 12.8601C52.67 12.7801 52.46 12.7201 52.24 12.7001C50.8 12.5301 49.93 13.5801 48.68 13.9201C47.42 14.2601 46.49 14.2101 46.22 15.4401C46.13 15.8801 46.41 16.3001 46.85 16.3801V16.3701Z" fill="white"/>
<path d="M50.4 57.6102L49.26 57.1202C49.26 57.1202 49.68 56.1602 50.37 55.5102C50.81 55.0902 50.94 54.4102 50.94 54.4102L52.16 54.6202C52.14 54.7302 51.95 55.7202 51.22 56.4102C50.72 56.8802 50.4 57.6102 50.39 57.6202L50.4 57.6102Z" fill="#1CE61C"/>
<path d="M56.34 55.0701L56.05 54.0602C56.05 54.0602 56.9 53.3102 57.41 53.9002C57.92 54.4902 58.4701 54.4002 58.4701 54.4002L58.9701 55.3802C58.9001 55.4002 57.86 55.4202 57.32 54.8402C56.94 54.4202 56.34 55.0802 56.34 55.0802V55.0701Z" fill="white"/>
<path d="M56.76 57.2102C56.76 57.2102 57 57.4302 56.79 57.7302L56.43 58.0502L55.77 58.3602L56.75 57.2002L56.76 57.2102Z" fill="white"/>
<path d="M56.8 57.7402C56.8 57.7402 55.88 58.6902 54.45 57.8902L53.57 59.1902C53.57 59.1902 54.7 59.3702 55.75 58.8302C55.81 58.8002 55.86 58.7602 55.9 58.7102L56.8 57.7402Z" fill="#1CE61C"/>
<path d="M48.81 61.1004L49.53 60.3404C49.53 60.3404 50.22 60.9904 51.87 59.9404L51.39 61.4104C51.39 61.4104 49.82 61.8604 48.82 61.1004H48.81Z" fill="white"/>
<path d="M46.11 56.5503C46.11 56.5503 46.3 56.8803 46.09 57.6403L45.99 58.5103C45.99 58.5103 46.61 57.6503 46.1 56.5503H46.11Z" fill="white"/>
<path d="M44.04 58.2704L43.85 59.6104C44.06 59.3704 44.52 58.9504 45.33 58.8404C46.5 58.6704 46.1 57.6504 46.1 57.6504C45.34 58.0604 44.73 57.5704 44.05 58.2804L44.04 58.2704Z" fill="#1CE61C"/>
<path d="M57.91 59.8001C57.91 59.8001 58.93 58.8301 59.61 58.8101L59.32 59.2401C59.32 59.2401 58.71 59.2901 57.91 59.8101V59.8001Z" fill="#1CE61C"/>
<path d="M60.9 57.9302L61.5 58.2102L61.83 57.4702L60.9 57.9302Z" fill="white"/>
<path d="M36.43 61.8403C33.2 62.1303 29.93 62.3403 28.21 62.9803C20.41 65.9003 15.59 72.3803 17.92 80.3803C15.89 74.6903 7.4 73.4503 1.94 74.5803C-5.51 76.1303 -11.71 80.1403 -15.62 85.5203L13.96 86.8903L53.02 86.7103C54.53 77.3203 46.84 67.1103 36.43 61.8403Z" fill="#CCF8FF"/>
<path d="M-35.61 79.0201C-24.25 77.9001 -22.25 83.2301 -15.62 85.5201C-11.71 80.1401 -5.51999 76.1201 1.94001 74.5801C7.40001 73.4501 15.88 74.6901 17.92 80.3801C15.59 72.3801 20.42 65.9001 28.21 62.9801C29.93 62.3401 33.21 62.1301 36.43 61.8401C34.37 60.7801 32.19 59.9201 29.94 59.3101C15.15 55.2401 5.46002 62.7601 -7.74998 63.4601C-23.43 64.2701 -34.06 61.1801 -35.61 79.0201Z" fill="white"/>
<path d="M28.09 8.34012C28.62 7.88012 29.35 7.66012 30.05 7.75012C30.75 7.84012 31.4 8.23012 31.8 8.81012C31.21 8.32012 30.37 8.23012 29.62 8.40012C28.87 8.57012 28.2 8.97012 27.55 9.37012C27.59 8.70012 27.34 8.02012 26.88 7.53012C26.67 7.31012 26.41 7.13012 26.13 7.00012C25.94 6.91012 25.08 6.77012 25.08 6.77012C25.37 6.55012 26.3 6.59012 26.73 6.76012C27.41 7.02012 27.8 7.70012 28.09 8.33012V8.34012Z" fill="white"/>
</g>
<path d="M56.03 64.4901C54.81 63.4401 53.14 62.9401 51.55 63.1401C49.96 63.3401 48.46 64.2401 47.54 65.5601C48.89 64.4401 50.82 64.2301 52.53 64.6201C54.24 65.0101 55.78 65.9201 57.27 66.8501C57.17 65.3201 57.74 63.7601 58.81 62.6501C59.3 62.1401 59.89 61.7301 60.53 61.4401C60.97 61.2401 62.94 60.9201 62.94 60.9201C62.28 60.4101 60.15 60.5101 59.16 60.8901C57.6 61.4901 56.72 63.0501 56.04 64.4901H56.03Z" fill="white"/>
<path d="M59 0H4C1.79 0 0 1.79 0 4V84C0 86.21 1.79 88 4 88H59C61.21 88 63 86.21 63 84V4C63 1.79 61.21 0 59 0ZM61 82.81C61 84.57 59.57 86 57.81 86H5.19C3.43 86 2 84.57 2 82.81V16.9C2 8.67 8.67 2 16.9 2H57.81C59.57 2 61 3.43 61 5.19V82.81Z" fill="url(#paint3_linear_26835_29178)"/>
<mask id="mask3_26835_29178" style="mask-type:luminance" maskUnits="userSpaceOnUse" x="0" y="0" width="63" height="88">
<path d="M59 0H4C1.79 0 0 1.79 0 4V84C0 86.21 1.79 88 4 88H59C61.21 88 63 86.21 63 84V4C63 1.79 61.21 0 59 0ZM61 82.81C61 84.57 59.57 86 57.81 86H5.19C3.43 86 2 84.57 2 82.81V18.19C2 16.43 3.43 15 5.19 15H33.59C34.8 15 35.94 14.45 36.7 13.51L44.8 3.48C45.56 2.54 46.7 1.99 47.91 1.99H57.81C59.57 1.99 61 3.42 61 5.18V82.8V82.81Z" fill="white"/>
</mask>
<g mask="url(#mask3_26835_29178)">
<path d="M68.37 47.3101V26.6401L4.46002 90.5501H25.13L68.37 47.3101Z" fill="white"/>
<path d="M64.66 -2.29004H55.22L-2.91998 55.84V66.18L65.46 -2.20004C65.2 -2.26004 64.93 -2.29004 64.66 -2.29004Z" fill="white"/>
<path d="M68.37 69.2298V61.5498L39.37 90.5498H47.05L68.37 69.2298Z" fill="white"/>
</g>
</g>
</g>
<path fill-rule="evenodd" clip-rule="evenodd" d="M6.49771 79C6.98969 79 7.48602 79.213 7.49037 79.6913C7.49037 80.1043 7.24656 80.2696 6.99839 80.2696C6.75023 80.2696 6.73281 80.1435 6.73281 80.1435C6.73281 80.1435 7.02452 79.9261 7.02452 79.7174C7.02452 79.6087 6.94179 79.313 6.489 79.3174C5.8577 79.3174 5.5181 79.6174 5.5181 80.1522C5.5181 80.7652 7.35105 80.9739 7.3554 81.7652C7.3554 82.613 6.47594 82.9957 5.69225 83C5.283 83 5.01306 82.7609 5.00871 82.3783C5.00871 81.9261 5.22204 81.4652 5.75756 81.4652C5.88382 81.4565 5.98831 81.5522 5.99702 81.6783C5.99702 81.6783 5.99702 81.6826 5.99702 81.687C5.99702 81.687 5.45715 81.8391 5.4615 82.3783C5.4615 82.4783 5.56599 82.6609 5.81851 82.6565C6.07103 82.6522 6.82424 82.4739 6.81989 81.8087C6.81989 81.1913 5.00435 81.1087 5 80.1478C5 79.0652 6.08845 79.0087 6.49771 79.0087V79ZM10.747 79.6C10.8123 79.5696 11.2129 79.4913 11.1955 79.813C11.1824 80.1348 10.9386 80.6913 10.9037 80.9348C11.2303 80.7696 11.6918 80.2087 11.6918 80.2087C11.6918 80.2087 12.0183 80.2522 11.9182 80.4522C11.818 80.6522 11.1519 81.1435 11.1519 81.1435C11.1519 81.1435 11.3043 82.5696 12.1707 82.5696C12.6453 82.5696 12.8499 82.3609 12.937 82.287C12.9587 82.2696 12.9762 82.2652 12.9849 82.2783C13.0197 82.387 12.9936 82.5043 12.9152 82.5913C12.8194 82.6957 12.5974 82.8217 12.1533 82.8261C11.3653 82.8261 10.9255 82.1957 10.8123 81.2609C10.7252 81.5348 10.7339 81.9826 10.7209 82.2C10.6948 82.2435 10.2507 82.4174 10.2158 82.1174C10.2158 82.0913 10.2158 82.0696 10.2158 82.0435C10.1331 82.1609 10.0199 82.2826 9.91108 82.2826C9.71951 82.2826 9.63679 82.1217 9.60196 82.0391C9.57584 82.0696 9.3625 82.287 9.08821 82.287C8.92277 82.2913 8.77474 82.1957 8.70943 82.0435C8.57011 82.1435 8.32195 82.2913 8.03895 82.2913C7.73418 82.2913 7.66017 82.1087 7.66017 81.9565C7.66017 81.713 7.84303 80.987 7.84303 80.987C7.84303 80.987 7.48602 81.1304 7.36411 81.1348C7.19431 81.1348 7.11159 80.8217 7.11159 80.813C7.11159 80.8087 7.11159 80.8 7.1203 80.8C7.22044 80.7609 7.94317 80.513 7.94317 80.513C7.94317 80.513 8.07813 79.9826 8.09555 79.913C8.11296 79.8435 8.2131 79.7 8.33065 79.6565C8.41773 79.6217 8.50916 79.6 8.60059 79.5913C8.63107 79.5913 8.65284 79.6 8.65284 79.6174C8.65284 79.6348 8.47433 80.4087 8.47433 80.4087C8.47433 80.4087 8.84876 80.3217 8.98808 80.3217C9.09692 80.3217 9.15352 80.387 9.09257 80.4696C9.03162 80.5522 8.96196 80.6478 8.92712 80.6913C8.88794 80.7348 8.86182 80.7435 8.77039 80.7609C8.64413 80.787 8.36113 80.8565 8.36113 80.8565C8.36113 80.8565 8.13473 81.6783 8.13909 81.8174C8.13909 81.8957 8.16521 81.987 8.26099 81.987C8.35678 81.987 8.53964 81.8739 8.67025 81.7913C8.69202 81.1522 9.18835 80.7261 9.57584 80.7261C9.7021 80.7261 9.65421 80.8478 9.79788 80.8478H9.88931C9.94591 80.8478 10.0069 80.8522 10.0069 80.9957C10.0069 81.1957 9.89367 81.5261 9.89367 81.7348C9.89367 81.8826 9.91544 81.987 9.97204 81.987C10.0678 81.987 10.1767 81.8478 10.255 81.7261C10.3813 81.0304 10.734 79.7609 10.734 79.6174L10.747 79.6ZM12.5016 80.7C12.7672 80.6783 12.9326 80.8217 12.9631 80.9C12.9936 80.9783 12.9892 81.1609 12.9152 81.2913C12.6845 81.7044 12.1097 81.6304 12.1097 81.6304C12.1097 81.6304 12.0444 81.9565 12.3405 81.9565C12.593 81.9565 12.7062 81.8304 12.8151 81.7261C12.8586 81.7261 12.9936 81.8652 12.9326 81.9609C12.8847 82.0348 12.6191 82.2565 12.2795 82.2609C11.7397 82.2609 11.6047 81.8 11.6744 81.4696C11.7658 81.0609 12.1751 80.7217 12.5016 80.6957V80.7ZM9.6455 80.987C9.32332 80.987 8.82699 81.9696 9.20577 81.9652C9.61938 81.9652 9.6455 81.1826 9.6455 81.0043V80.987ZM12.6409 80.8913C12.4232 80.9 12.1751 81.3174 12.1533 81.5C12.4798 81.513 12.654 81.1957 12.6757 81.0696C12.6888 80.9739 12.6932 80.887 12.6409 80.887V80.8913Z" fill="#213743"/>
<path d="M46.1444 79.3778L46.6412 80.278L47.6518 80.4733C47.7792 80.4988 47.8302 80.6559 47.741 80.7494L47.0361 81.5009L47.1635 82.5243C47.1805 82.6559 47.0446 82.7494 46.93 82.6942L46 82.2568L45.0701 82.6942C44.9512 82.7494 44.8196 82.6517 44.8366 82.5243L44.9639 81.5009L44.2591 80.7494C44.1699 80.6559 44.2208 80.4988 44.3482 80.4733L45.3588 80.278L45.8557 79.3778C45.9194 79.2632 46.085 79.2632 46.1444 79.3778Z" fill="#FFC200"/>
<path d="M46 79.2929C46.0552 79.2929 46.1147 79.3226 46.1444 79.3778L46.6412 80.278L47.6518 80.4733C47.7792 80.4988 47.8302 80.6559 47.741 80.7494L47.0361 81.5009L47.1635 82.5243C47.1763 82.6262 47.0955 82.7111 46.9979 82.7111C46.9766 82.7111 46.9512 82.7069 46.9257 82.6942L45.9957 82.2568L45.0658 82.6942C45.0403 82.7069 45.0191 82.7111 44.9936 82.7111C44.9002 82.7111 44.8153 82.6262 44.828 82.5243L44.9554 81.5009L44.2505 80.7494C44.1613 80.6559 44.2123 80.4988 44.3397 80.4733L45.3503 80.278L45.8471 79.3778C45.8768 79.3226 45.9363 79.2929 45.9915 79.2929M46 79.0806C45.8641 79.0806 45.7367 79.157 45.6688 79.2759L45.2187 80.0912L44.3057 80.2653C44.1698 80.2908 44.0594 80.3884 44.017 80.5201C43.9745 80.6517 44.0085 80.7961 44.1019 80.8937L44.7388 81.5731L44.6242 82.4946C44.6115 82.6007 44.6454 82.7111 44.7134 82.7918C44.7856 82.8725 44.8875 82.9192 44.9979 82.9192C45.0531 82.9192 45.1083 82.9065 45.1592 82.881L46 82.4861L46.8408 82.881C46.8917 82.9065 46.9469 82.9192 47.0021 82.9192C47.1125 82.9192 47.2144 82.8725 47.2866 82.7918C47.3588 82.7111 47.3928 82.6007 47.3758 82.4946L47.2611 81.5731L47.8981 80.8937C47.9915 80.7918 48.0255 80.6474 47.983 80.5201C47.9405 80.3884 47.8301 80.2908 47.6943 80.2653L46.7813 80.0912L46.3312 79.2759C46.2633 79.157 46.1359 79.0806 46 79.0806Z" fill="#213743"/>
<path d="M46 79.8152V80.9744C46 81.0678 46.0892 81.1315 46.1784 81.106L47.2187 80.7706C47.2739 80.7536 47.2697 80.6729 47.2102 80.6602L46.5563 80.5413C46.4969 80.5286 46.4417 80.4903 46.4119 80.4351L46.085 79.7939C46.0637 79.7515 45.9958 79.7642 45.9958 79.8152H46Z" fill="#FFEBB8"/>
<path d="M46 81.4924V82.0699C46 82.1039 46.017 82.1294 46.0467 82.1464L46.7983 82.5073C46.8365 82.5243 46.8705 82.4818 46.845 82.4479L46.0934 81.4627C46.0637 81.4245 46 81.4457 46 81.4924Z" fill="#FF7F00"/>
<path d="M51.1444 79.3778L51.6412 80.278L52.6518 80.4733C52.7792 80.4988 52.8302 80.6559 52.741 80.7494L52.0361 81.5009L52.1635 82.5243C52.1805 82.6559 52.0446 82.7494 51.93 82.6942L51 82.2568L50.0701 82.6942C49.9512 82.7494 49.8196 82.6517 49.8366 82.5243L49.9639 81.5009L49.2591 80.7494C49.1699 80.6559 49.2208 80.4988 49.3482 80.4733L50.3588 80.278L50.8557 79.3778C50.9194 79.2632 51.085 79.2632 51.1444 79.3778Z" fill="#FFC200"/>
<path d="M51 79.2929C51.0552 79.2929 51.1147 79.3226 51.1444 79.3778L51.6412 80.278L52.6518 80.4733C52.7792 80.4988 52.8302 80.6559 52.741 80.7494L52.0361 81.5009L52.1635 82.5243C52.1763 82.6262 52.0955 82.7111 51.9979 82.7111C51.9766 82.7111 51.9512 82.7069 51.9257 82.6942L50.9957 82.2568L50.0658 82.6942C50.0403 82.7069 50.0191 82.7111 49.9936 82.7111C49.9002 82.7111 49.8153 82.6262 49.828 82.5243L49.9554 81.5009L49.2505 80.7494C49.1613 80.6559 49.2123 80.4988 49.3397 80.4733L50.3503 80.278L50.8471 79.3778C50.8768 79.3226 50.9363 79.2929 50.9915 79.2929M51 79.0806C50.8641 79.0806 50.7367 79.157 50.6688 79.2759L50.2187 80.0912L49.3057 80.2653C49.1698 80.2908 49.0594 80.3884 49.017 80.5201C48.9745 80.6517 49.0085 80.7961 49.1019 80.8937L49.7388 81.5731L49.6242 82.4946C49.6115 82.6007 49.6454 82.7111 49.7134 82.7918C49.7856 82.8725 49.8875 82.9192 49.9979 82.9192C50.0531 82.9192 50.1083 82.9065 50.1592 82.881L51 82.4861L51.8408 82.881C51.8917 82.9065 51.9469 82.9192 52.0021 82.9192C52.1125 82.9192 52.2144 82.8725 52.2866 82.7918C52.3588 82.7111 52.3928 82.6007 52.3758 82.4946L52.2611 81.5731L52.8981 80.8937C52.9915 80.7918 53.0255 80.6474 52.983 80.5201C52.9405 80.3884 52.8301 80.2908 52.6943 80.2653L51.7813 80.0912L51.3312 79.2759C51.2633 79.157 51.1359 79.0806 51 79.0806Z" fill="#213743"/>
<path d="M51 79.8152V80.9744C51 81.0678 51.0892 81.1315 51.1784 81.106L52.2187 80.7706C52.2739 80.7536 52.2697 80.6729 52.2102 80.6602L51.5563 80.5413C51.4969 80.5286 51.4417 80.4903 51.4119 80.4351L51.085 79.7939C51.0637 79.7515 50.9958 79.7642 50.9958 79.8152H51Z" fill="#FFEBB8"/>
<path d="M51 81.4924V82.0699C51 82.1039 51.017 82.1294 51.0467 82.1464L51.7983 82.5073C51.8365 82.5243 51.8705 82.4818 51.845 82.4479L51.0934 81.4627C51.0637 81.4245 51 81.4457 51 81.4924Z" fill="#FF7F00"/>
<path d="M56.1444 79.3778L56.6412 80.278L57.6518 80.4733C57.7792 80.4988 57.8302 80.6559 57.741 80.7494L57.0361 81.5009L57.1635 82.5243C57.1805 82.6559 57.0446 82.7494 56.93 82.6942L56 82.2568L55.0701 82.6942C54.9512 82.7494 54.8196 82.6517 54.8366 82.5243L54.9639 81.5009L54.2591 80.7494C54.1699 80.6559 54.2208 80.4988 54.3482 80.4733L55.3588 80.278L55.8557 79.3778C55.9194 79.2632 56.085 79.2632 56.1444 79.3778Z" fill="#FFC200"/>
<path d="M56 79.2929C56.0552 79.2929 56.1147 79.3226 56.1444 79.3778L56.6412 80.278L57.6518 80.4733C57.7792 80.4988 57.8302 80.6559 57.741 80.7494L57.0361 81.5009L57.1635 82.5243C57.1763 82.6262 57.0955 82.7111 56.9979 82.7111C56.9766 82.7111 56.9512 82.7069 56.9257 82.6942L55.9957 82.2568L55.0658 82.6942C55.0403 82.7069 55.0191 82.7111 54.9936 82.7111C54.9002 82.7111 54.8153 82.6262 54.828 82.5243L54.9554 81.5009L54.2505 80.7494C54.1613 80.6559 54.2123 80.4988 54.3397 80.4733L55.3503 80.278L55.8471 79.3778C55.8768 79.3226 55.9363 79.2929 55.9915 79.2929M56 79.0806C55.8641 79.0806 55.7367 79.157 55.6688 79.2759L55.2187 80.0912L54.3057 80.2653C54.1698 80.2908 54.0594 80.3884 54.017 80.5201C53.9745 80.6517 54.0085 80.7961 54.1019 80.8937L54.7388 81.5731L54.6242 82.4946C54.6115 82.6007 54.6454 82.7111 54.7134 82.7918C54.7856 82.8725 54.8875 82.9192 54.9979 82.9192C55.0531 82.9192 55.1083 82.9065 55.1592 82.881L56 82.4861L56.8408 82.881C56.8917 82.9065 56.9469 82.9192 57.0021 82.9192C57.1125 82.9192 57.2144 82.8725 57.2866 82.7918C57.3588 82.7111 57.3928 82.6007 57.3758 82.4946L57.2611 81.5731L57.8981 80.8937C57.9915 80.7918 58.0255 80.6474 57.983 80.5201C57.9405 80.3884 57.8301 80.2908 57.6943 80.2653L56.7813 80.0912L56.3312 79.2759C56.2633 79.157 56.1359 79.0806 56 79.0806Z" fill="#213743"/>
<path d="M56 79.8152V80.9744C56 81.0678 56.0892 81.1315 56.1784 81.106L57.2187 80.7706C57.2739 80.7536 57.2697 80.6729 57.2102 80.6602L56.5563 80.5413C56.4969 80.5286 56.4417 80.4903 56.4119 80.4351L56.085 79.7939C56.0637 79.7515 55.9958 79.7642 55.9958 79.8152H56Z" fill="#FFEBB8"/>
<path d="M56 81.4924V82.0699C56 82.1039 56.017 82.1294 56.0467 82.1464L56.7983 82.5073C56.8365 82.5243 56.8705 82.4818 56.845 82.4479L56.0934 81.4627C56.0637 81.4245 56 81.4457 56 81.4924Z" fill="#FF7F00"/>
<rect x="13" y="62" width="37" height="13" rx="6.5" fill="#2F4553"/>
<path d="M27.7214 70H26.6894V67.318L26.0174 67.996L25.4294 67.378L26.8274 65.998H27.7214V70ZM29.937 70.072C29.229 70.072 28.695 69.856 28.323 69.49L28.887 68.77C29.163 69.022 29.541 69.16 29.925 69.16C30.363 69.16 30.579 68.944 30.579 68.698C30.579 68.428 30.369 68.236 29.955 68.236C29.637 68.236 29.385 68.326 29.163 68.536L28.449 68.362V65.998H31.353V66.898H29.481V67.672C29.673 67.486 29.985 67.354 30.339 67.354C31.017 67.354 31.629 67.852 31.629 68.656C31.629 69.52 30.975 70.072 29.937 70.072ZM33.6581 70.072C32.4881 70.072 31.9421 69.058 31.9421 68.002C31.9421 66.946 32.4881 65.938 33.6581 65.938C34.8281 65.938 35.3741 66.946 35.3741 68.002C35.3741 69.058 34.8281 70.072 33.6581 70.072ZM33.6581 69.16C34.1381 69.16 34.3301 68.71 34.3301 68.002C34.3301 67.294 34.1381 66.85 33.6581 66.85C33.1781 66.85 32.9861 67.294 32.9861 68.002C32.9861 68.71 33.1781 69.16 33.6581 69.16ZM38.6383 70H37.6243L37.0663 69.124L36.5023 70H35.4943L36.4843 68.512L35.5543 67.102H36.5683L37.0663 67.888L37.5583 67.102H38.5723L37.6483 68.512L38.6383 70Z" fill="white"/>
<path d="M7.69 11H5.33V7.665H7.69V8.29H6.04V8.995H7.655V9.62H6.04V10.375H7.69V11ZM9.61004 11.06C9.32504 11.06 9.06004 10.94 8.86504 10.69V11.92H8.23004V8.585H8.86504V8.89C9.05004 8.655 9.31504 8.525 9.61004 8.525C10.23 8.525 10.68 8.985 10.68 9.79C10.68 10.595 10.23 11.06 9.61004 11.06ZM9.41004 10.495C9.77504 10.495 10.02 10.21 10.02 9.79C10.02 9.375 9.77504 9.09 9.41004 9.09C9.20504 9.09 8.97004 9.21 8.86504 9.365V10.22C8.97004 10.37 9.20504 10.495 9.41004 10.495ZM11.4601 8.325C11.2551 8.325 11.0801 8.155 11.0801 7.945C11.0801 7.735 11.2551 7.57 11.4601 7.57C11.6701 7.57 11.8401 7.735 11.8401 7.945C11.8401 8.155 11.6701 8.325 11.4601 8.325ZM11.7801 11H11.1451V8.585H11.7801V11ZM13.5347 11.06C12.7897 11.06 12.2547 10.535 12.2547 9.79C12.2547 9.05 12.7897 8.525 13.5347 8.525C14.0297 8.525 14.3297 8.74 14.4897 8.96L14.0747 9.35C13.9597 9.18 13.7847 9.09 13.5647 9.09C13.1797 9.09 12.9097 9.37 12.9097 9.79C12.9097 10.21 13.1797 10.495 13.5647 10.495C13.7847 10.495 13.9597 10.395 14.0747 10.235L14.4897 10.62C14.3297 10.845 14.0297 11.06 13.5347 11.06Z" fill="#05080A"/>
<path d="M49.5179 11H49.0659L47.6739 9.096V11H47.2059V8.332H47.6859L49.0499 10.184V8.332H49.5179V11ZM50.9448 11.048C50.3328 11.048 49.9528 10.588 49.9528 10.032C49.9528 9.48 50.3328 9.02 50.9448 9.02C51.5648 9.02 51.9408 9.48 51.9408 10.032C51.9408 10.588 51.5648 11.048 50.9448 11.048ZM50.9448 10.676C51.3048 10.676 51.5048 10.376 51.5048 10.032C51.5048 9.692 51.3048 9.392 50.9448 9.392C50.5888 9.392 50.3888 9.692 50.3888 10.032C50.3888 10.376 50.5888 10.676 50.9448 10.676ZM52.5622 11.044C52.4102 11.044 52.2822 10.916 52.2822 10.764C52.2822 10.612 52.4102 10.484 52.5622 10.484C52.7142 10.484 52.8422 10.612 52.8422 10.764C52.8422 10.916 52.7142 11.044 52.5622 11.044ZM55.318 11H54.85V8.94L54.414 9.392L54.142 9.108L54.91 8.332H55.318V11ZM56.8176 11.048C56.3576 11.048 56.0416 10.892 55.8256 10.636L56.0936 10.316C56.2736 10.52 56.5136 10.632 56.8136 10.632C57.1496 10.632 57.3616 10.424 57.3616 10.164C57.3616 9.876 57.1536 9.688 56.8256 9.688C56.5976 9.688 56.4096 9.76 56.2416 9.92L55.9096 9.824V8.332H57.6576V8.744H56.3776V9.516C56.5056 9.388 56.7256 9.284 56.9816 9.284C57.4296 9.284 57.8336 9.6 57.8336 10.144C57.8336 10.7 57.4136 11.048 56.8176 11.048Z" fill="white"/>
<defs>
<linearGradient id="paint0_linear_26835_29178" x1="37.8344" y1="86.256" x2="23.263" y2="1.76" gradientUnits="userSpaceOnUse">
<stop stop-color="#55EEFF"/>
<stop offset="0.09" stop-color="#6CABFF"/>
<stop offset="0.23" stop-color="#8C4FFF"/>
<stop offset="0.32" stop-color="#A016FF"/>
<stop offset="0.37" stop-color="#A800FF"/>
<stop offset="0.44" stop-color="#C043D4"/>
<stop offset="0.51" stop-color="#D680AF"/>
<stop offset="0.58" stop-color="#E8B091"/>
<stop offset="0.64" stop-color="#F4D27B"/>
<stop offset="0.69" stop-color="#FCE76E"/>
<stop offset="0.72" stop-color="#FFEF6A"/>
<stop offset="0.81" stop-color="#BCF589"/>
<stop offset="0.9" stop-color="#84FAA3"/>
<stop offset="0.97" stop-color="#62FDB3"/>
<stop offset="1" stop-color="#55FFBA"/>
</linearGradient>
<linearGradient id="paint1_linear_26835_29178" x1="31.5" y1="81.2002" x2="31.5" y2="10.3702" gradientUnits="userSpaceOnUse">
<stop stop-color="#047BFF"/>
<stop offset="1" stop-color="#009FE8"/>
</linearGradient>
<linearGradient id="paint2_linear_26835_29178" x1="57.77" y1="86.3601" x2="26.53" y2="13.7601" gradientUnits="userSpaceOnUse">
<stop stop-color="#55EEFF"/>
<stop offset="0.09" stop-color="#6CABFF"/>
<stop offset="0.23" stop-color="#8C4FFF"/>
<stop offset="0.32" stop-color="#A016FF"/>
<stop offset="0.37" stop-color="#A800FF"/>
<stop offset="0.44" stop-color="#C043D4"/>
<stop offset="0.51" stop-color="#D680AF"/>
<stop offset="0.58" stop-color="#E8B091"/>
<stop offset="0.64" stop-color="#F4D27B"/>
<stop offset="0.69" stop-color="#FCE76E"/>
<stop offset="0.72" stop-color="#FFEF6A"/>
<stop offset="0.81" stop-color="#BCF589"/>
<stop offset="0.9" stop-color="#84FAA3"/>
<stop offset="0.97" stop-color="#62FDB3"/>
<stop offset="1" stop-color="#55FFBA"/>
</linearGradient>
<linearGradient id="paint3_linear_26835_29178" x1="51.08" y1="89.51" x2="19.74" y2="16.67" gradientUnits="userSpaceOnUse">
<stop stop-color="#55EEFF"/>
<stop offset="0.09" stop-color="#6CABFF"/>
<stop offset="0.23" stop-color="#8C4FFF"/>
<stop offset="0.32" stop-color="#A016FF"/>
<stop offset="0.37" stop-color="#A800FF"/>
<stop offset="0.44" stop-color="#C043D4"/>
<stop offset="0.51" stop-color="#D680AF"/>
<stop offset="0.58" stop-color="#E8B091"/>
<stop offset="0.64" stop-color="#F4D27B"/>
<stop offset="0.69" stop-color="#FCE76E"/>
<stop offset="0.72" stop-color="#FFEF6A"/>
<stop offset="0.81" stop-color="#BCF589"/>
<stop offset="0.9" stop-color="#84FAA3"/>
<stop offset="0.97" stop-color="#62FDB3"/>
<stop offset="1" stop-color="#55FFBA"/>
</linearGradient>
<clipPath id="clip0_26835_29178">
<rect width="63" height="88" fill="white"/>
</clipPath>
<clipPath id="clip1_26835_29178">
<rect width="63" height="88" fill="white"/>
</clipPath>
</defs>
</svg>
