<svg width="63" height="88" viewBox="0 0 63 88" fill="none" xmlns="http://www.w3.org/2000/svg">
<rect width="63" height="88" rx="4" fill="url(#paint0_linear_26835_29179)"/>
<g clip-path="url(#clip0_26835_29179)">
<path d="M56.92 18.29H5.91998C5.3677 18.29 4.91998 18.7378 4.91998 19.29V57.29C4.91998 57.8423 5.3677 58.29 5.91998 58.29H56.92C57.4723 58.29 57.92 57.8423 57.92 57.29V19.29C57.92 18.7378 57.4723 18.29 56.92 18.29Z" fill="#2F4553"/>
<path d="M62.39 7.07004V81.52C62.39 84.85 59.68 87.55 56.35 87.55H6.48001C3.15001 87.55 0.450012 84.85 0.450012 81.52V7.07004C0.450012 3.74004 3.15001 1.04004 6.48001 1.04004H56.35C59.68 1.04004 62.39 3.74004 62.39 7.07004Z" fill="url(#paint1_linear_26835_29179)"/>
<path d="M56.56 42.8602C56.56 42.8602 55.71 41.9002 54.39 41.6302C54.39 41.6302 54.78 40.2002 52.93 40.3302C52.93 40.3302 52.45 40.0402 49.85 40.3302C47.25 40.6202 47.97 38.2102 46.61 37.8702C45.25 37.5302 45.05 38.0802 44.29 37.8702C43.53 37.6602 42.71 37.7502 42.71 37.7502C42.71 37.7502 42.87 35.8102 41.66 35.7402C40.45 35.6702 40.04 36.8302 39.21 36.5602C38.38 36.2902 36.67 34.4402 35.17 34.6402C33.67 34.8402 32.84 34.0202 32.84 34.0202C32.84 34.0202 33.18 31.9602 31.33 32.2402C31.33 32.2402 29.7 30.7502 28.36 32.2102C27.02 33.6702 26.54 32.1002 25.92 32.3002C25.92 32.3002 25.51 30.8602 23.93 31.0702C22.35 31.2802 21.94 32.3702 21.94 32.3702C21.94 32.3702 20.29 33.1202 19.75 33.1202C19.21 33.1202 13.92 31.9102 14.06 31.0402C14.2 30.1702 16.46 31.7502 17.97 31.3302C19.48 30.9102 19.41 28.8602 17.63 28.3802C17.63 28.3802 17.08 25.8402 14.82 26.0502C14.82 26.0502 14.55 23.4502 9.68003 24.2702C9.68003 24.2702 6.66003 24.3402 6.80003 26.7402C6.94004 29.1402 12.15 29.9602 12.35 30.4402C12.55 30.9202 10.43 30.7802 9.27003 30.2302C8.11003 29.6802 7.55003 28.5802 6.80003 29.0002C6.80003 29.0002 6.39003 28.2502 5.71003 28.7302C5.03003 29.2102 4.89003 28.2502 4.96003 27.0802C5.03003 25.9102 4.27003 26.3902 4.27003 26.3902C4.27003 26.3902 4.13003 23.3702 3.17003 23.4402C3.17003 23.4402 2.55003 21.3202 1.42003 22.4102C0.290035 23.5002 0.770035 31.5702 0.770035 31.5702L54.1 46.0502L56.57 42.8402L56.56 42.8602Z" fill="#1F2C2F"/>
<path d="M53.69 46.0302C53.69 46.0302 28.12 35.8502 1.41003 31.6602V52.1402C1.41003 52.1402 33.94 55.1802 53.69 46.0302Z" fill="url(#paint2_linear_26835_29179)"/>
<path opacity="0.2" d="M1.51001 37.1799C2.33001 37.7999 10.59 39.0599 12.25 41.5599C13.38 43.2599 21.04 45.6199 21.04 45.6199L14.73 47.1099C14.73 47.1099 8.14001 40.2699 0.890007 37.8799C0.670007 37.8099 1.51001 37.1699 1.51001 37.1699V37.1799Z" fill="white"/>
<path opacity="0.2" d="M40.02 46.5903C40.02 46.5903 30.57 39.5903 27.56 40.2203C24.55 40.8503 16.61 38.2403 15.48 38.2703C14.35 38.3003 38.14 46.8203 39.58 47.7403C41.02 48.6603 40.02 46.5903 40.02 46.5903Z" fill="white"/>
<path d="M0.460022 48.8703C0.460022 48.8703 1.50002 48.1203 2.85002 48.1403C2.85002 48.1403 2.78002 46.6603 4.56002 47.1903C4.56002 47.1903 5.09002 47.0103 7.57002 47.8503C10.05 48.6903 9.87002 46.1903 11.27 46.1503C12.67 46.1103 12.75 46.6903 13.53 46.6503C14.31 46.6103 15.09 46.8803 15.09 46.8803C15.09 46.8803 15.36 44.9603 16.55 45.1503C17.74 45.3403 17.89 46.5703 18.76 46.4803C19.63 46.3903 21.7 44.9603 23.13 45.4903C24.56 46.0203 25.54 45.4003 25.54 45.4003C25.54 45.4003 25.65 43.3203 27.4 43.9903C27.4 43.9903 29.32 42.8903 30.31 44.6103C31.3 46.3303 32.11 44.9003 32.67 45.2303C32.67 45.2303 33.39 43.9103 34.88 44.4603C36.37 45.0103 36.54 46.1603 36.54 46.1603C36.54 46.1603 37.98 47.2503 38.52 47.3703C39.06 47.4903 44.47 47.4603 44.53 46.5803C44.59 45.7003 42.03 46.7503 40.65 46.0203C39.27 45.2903 39.78 43.3003 41.63 43.2203C41.63 43.2203 42.72 40.8603 44.88 41.5603C44.88 41.5603 45.72 39.0803 50.29 40.9403C50.29 40.9403 53.22 41.6603 52.56 43.9803C51.9 46.3003 46.64 45.9603 46.33 46.3803C46.02 46.8003 48.13 47.1303 49.39 46.8503C50.65 46.5703 51.43 45.6203 52.07 46.1803C52.07 46.1803 52.63 45.5303 53.2 46.1503C53.77 46.7703 54.11 45.8603 54.29 44.7103C54.47 43.5603 55.11 44.1903 55.11 44.1903C55.11 44.1903 55.9 41.2803 56.82 41.5503C56.82 41.5503 57.89 39.6103 58.75 40.9303C59.61 42.2503 57.6 49.0303 57.6 49.0303L2.18002 52.5103L0.470022 48.8403L0.460022 48.8703Z" fill="#1F2C2F"/>
<path d="M61.51 43.1201C61.51 43.1201 61.94 86.2901 61.31 86.2901L1.33001 86.7501C0.720014 86.7501 0.990014 52.1401 0.990014 52.1401C0.990014 52.1401 33.42 45.5201 61.51 43.1201Z" fill="#4D6646"/>
<path d="M9.75001 53.49C15.18 51.78 21.5 50.6 24.97 50.02C14.64 51.67 -20.79 57.8 23.8 57.4L32.91 54.54C32.91 54.54 3.34001 55.51 9.75001 53.49Z" fill="url(#paint3_linear_26835_29179)"/>
<path d="M24.97 50.0199C26.57 49.7599 27.58 49.6099 27.58 49.6099C27.58 49.6099 26.58 49.7499 24.97 50.0199Z" fill="url(#paint4_linear_26835_29179)"/>
<path d="M1.27002 53.6399V54.5399C7.46002 52.2199 18.1 50.5199 22.55 49.8799C18.44 50.4599 8.92002 51.8899 1.27002 53.6399Z" fill="url(#paint5_linear_26835_29179)"/>
<path d="M1.27002 57.5998V61.5098C2.38002 61.6498 3.57002 61.7798 4.88002 61.9098L16.03 62.9698C16.03 62.9698 20.92 58.7198 17.12 58.6298C11.77 58.5098 5.12002 58.2298 1.27002 57.5898V57.5998Z" fill="url(#paint6_linear_26835_29179)"/>
<path d="M1.16 62.9902C14.75 66.0802 62.92 66.2902 62.92 66.2902L61.31 86.2902C61.31 86.2902 2.74 89.2102 1.33 86.7502C-0.0799996 84.2902 1.16 62.9902 1.16 62.9902Z" fill="#93B45C"/>
<path d="M51.08 67.1401L48.46 72.6601L47.68 73.4201L48.97 73.7601L48.12 74.1601L45.81 77.6701L47.13 78.0101L45.13 81.0501L45.81 81.7901L43.16 87.9501H57.69L56.52 80.1001L55.58 79.2901L56.36 78.3501L55.13 74.8301L54.47 74.1601L54.8 73.5201L54.1 73.1801L53.95 72.2801L51.08 67.1401Z" fill="#1F2C2F"/>
<path d="M24.43 71.0801L27.06 76.6001L27.83 77.3601L26.54 77.7001L27.39 78.1001L29.71 81.6101L28.38 81.9501L30.39 85.0001L29.71 85.7301L30.36 87.2501L18.46 87.6201L19 84.0401L19.94 83.2301L19.15 82.2901L20.38 78.7701L21.05 78.1001L20.72 77.4601L21.42 77.1201L21.57 76.2201L24.43 71.0801Z" fill="#1F2C2F"/>
<path d="M58.94 60.9702L58.29 63.7202L57.7 64.3802L57.91 65.3402L55.82 71.3202L55.91 71.9502L54.56 75.7602L54.99 77.7702L54.17 81.0402L53.91 81.7902L52.91 83.0002L53.69 83.3302L52.7 86.2902L58.26 87.1002L61.65 85.0502L61.5 69.9602L60.41 66.0502L59.76 65.6302V64.5502L58.94 60.9702Z" fill="#1F2C2F"/>
<path d="M3.84998 1.64014C2.77998 1.64014 1.34998 3.73014 1.34998 4.79014L1.91998 18.4801C1.91998 16.7201 3.34998 15.2901 5.10998 15.2901H33.51C34.72 15.2901 35.86 14.7401 36.62 13.8001L44.72 3.77014C45.48 2.83014 46.62 2.28014 47.83 2.28014L3.84998 1.64014Z" fill="url(#paint7_linear_26835_29179)"/>
<path opacity="0.8" d="M23.01 25C23.01 25 27.76 26.28 30.3 26.33L31.03 27V26C31.03 26 32.72 27.69 36.82 27.98C38.85 28.12 47.89 29.38 52.48 28.88C52.48 28.88 56.98 28.91 59.51 26.99C59.51 26.99 58.05 28.42 55.83 29.56L57.82 29.25C55.82 30.9 52.22 30.97 50.47 30.94C45.56 30.86 37.53 28.79 36.63 28.88C35.73 28.97 33.58 29.65 31.75 29.26C29.92 28.87 26.73 27.8 26.73 27.8C26.73 27.8 28.1 27.63 29.09 27.69C29.09 27.69 25.38 26.54 23 25.01L23.01 25Z" fill="#FFB87A"/>
<path opacity="0.8" d="M1.67999 18.1899L4.29999 17.1499L5.32999 17.4499L7.36999 16.6499L8.96999 17.7999C8.96999 17.7999 13.56 19.6599 15.08 20.3799L13.51 19.1699C15.96 20.3799 20.25 21.4299 20.25 21.4299C20.25 21.4299 14.6 21.2399 12.32 20.6099C10.04 19.9799 8.96999 20.0899 8.96999 20.0899C8.96999 20.0899 11.64 21.3999 12.86 21.6899C12.86 21.6899 8.96999 21.1599 7.52999 20.9599L8.89999 21.5999C8.89999 21.5999 4.01999 20.5699 1.69999 20.4799V18.2099L1.67999 18.1899Z" fill="#FFB87A"/>
<path opacity="0.8" d="M63 10C63 10 52.1169 14.3902 47.5967 15.3537C43.0766 16.3171 38.4569 18.6585 38.4569 18.6585L39.8515 17.0366C39.8515 17.0366 34.1236 19.2317 31.3218 20.378C28.5201 21.5244 24 22 24 22C24 22 37.9339 21.3415 43.5 19.0854C49.0661 16.8293 49.8506 17.0366 49.8506 17.0366C49.8506 17.0366 46.887 19.4024 43.5 20.378C43.5 20.378 55.4291 18.9024 61.8669 14.1951L63 10Z" fill="#FFB87A"/>
<path fill-rule="evenodd" clip-rule="evenodd" d="M9.75997 68.3699L9.29997 63.8599L9.52997 63.4099L8.75997 61.9999L9.25997 61.3299L7.79997 55.8599L5.39997 60.6599L5.73997 61.1499L5.04997 62.5199L5.32997 62.9999L4.77997 63.4499L3.77997 60.0499L2.57997 55.1399L1.40997 53.3999V85.3499L5.42997 87.2499H10.96L9.75997 68.3699Z" fill="#1F2C2F"/>
<path d="M12.06 60.3701L12.85 63.7201L13.57 64.5101L13.31 65.6901L15.86 72.9801L15.75 73.7401L17.4 78.3901L16.87 80.8301L17.87 84.8201L18.19 85.7401L19.41 87.2201L18.46 87.6201L8.76001 87.5301L8.93001 71.3101L10.26 66.5601L11.06 66.0401V64.7201L12.06 60.3701Z" fill="#1F2C2F"/>
<path d="M58.92 0.290039H3.91998C1.70998 0.290039 -0.0800171 2.08004 -0.0800171 4.29004V84.29C-0.0800171 86.5 1.70998 88.29 3.91998 88.29H58.92C61.13 88.29 62.92 86.5 62.92 84.29V4.29004C62.92 2.08004 61.13 0.290039 58.92 0.290039ZM60.92 83.1C60.92 84.86 59.49 86.29 57.73 86.29H5.10998C3.34998 86.29 1.91998 84.86 1.91998 83.1V17.19C1.91998 8.96004 8.58998 2.29004 16.82 2.29004H57.73C59.49 2.29004 60.92 3.72004 60.92 5.48004V83.1Z" fill="url(#paint8_linear_26835_29179)"/>
<mask id="mask0_26835_29179" style="mask-type:luminance" maskUnits="userSpaceOnUse" x="-1" y="0" width="64" height="89">
<path d="M58.92 0.290039H3.91998C1.70998 0.290039 -0.0800171 2.08004 -0.0800171 4.29004V84.29C-0.0800171 86.5 1.70998 88.29 3.91998 88.29H58.92C61.13 88.29 62.92 86.5 62.92 84.29V4.29004C62.92 2.08004 61.13 0.290039 58.92 0.290039ZM60.92 83.1C60.92 84.86 59.49 86.29 57.73 86.29H5.10998C3.34998 86.29 1.91998 84.86 1.91998 83.1V18.48C1.91998 16.72 3.34998 15.29 5.10998 15.29H33.51C34.72 15.29 35.86 14.74 36.62 13.8L44.72 3.77004C45.48 2.83004 46.62 2.28004 47.83 2.28004H57.73C59.49 2.28004 60.92 3.71004 60.92 5.47004V83.09V83.1Z" fill="white"/>
</mask>
<g mask="url(#mask0_26835_29179)">
<path d="M68.29 47.6102V26.9302L4.38 90.8402H25.05L68.29 47.6102Z" fill="white"/>
<path d="M64.58 -2H55.14L-3 56.13V66.47L65.38 -1.91C65.12 -1.97 64.85 -2 64.58 -2Z" fill="white"/>
<path d="M68.29 69.5198V61.8398L39.29 90.8398H46.97L68.29 69.5198Z" fill="white"/>
</g>
<path d="M44.02 46.8399C43.94 46.5599 43.7 46.6199 43.5 46.6699C43.3 46.7199 42.38 47.1099 42.38 47.1099V47.6899L40.28 49.5699L40.73 49.6699L42.39 48.0699V48.3299C42.39 48.3299 43.68 47.7499 43.83 47.6899C43.98 47.6299 44.11 47.1599 44.01 46.8399H44.02Z" fill="#141F21"/>
<path d="M32.01 64.2797C31.83 64.3397 31.92 64.6497 32.96 64.7797C34.62 64.9797 49.1 62.0397 52.84 60.1197C56.58 58.1997 56.56 57.7497 56 57.4397C55.44 57.1297 53.84 57.2197 53.84 57.2197L32.01 64.2697V64.2797Z" fill="#141F21"/>
<path d="M28.5 45.5898C28.2 45.6598 27.98 45.9098 27.93 46.2098L27.11 51.1298L29.39 51.8598L32.15 49.7198L29.3 45.8698C29.11 45.6198 28.8 45.5098 28.5 45.5798V45.5898Z" fill="#141F21"/>
<path d="M19.47 60.5398L23.99 59.7798L27.08 60.8298L26.82 61.0298L22.2 61.6698L19.47 60.5398Z" fill="url(#paint9_linear_26835_29179)"/>
<path d="M21.43 55.6296C21.43 55.6296 23.95 60.4596 24.31 60.8496C24.67 61.2396 25.03 61.4496 26.4 61.1596L26.27 53.8496C24.19 53.4996 22.57 54.0796 21.43 55.6196V55.6296Z" fill="#141F21"/>
<path d="M28.95 53.3798C28.75 53.4998 28.57 53.9898 29.32 53.8998C30.02 53.8198 33.2 51.8298 34.36 51.3198C32.32 51.7298 29.89 52.8398 28.95 53.3798Z" fill="#130F18"/>
<path d="M30.59 48.0502C30.59 48.0502 30.55 48.0502 30.53 48.0402L30.11 47.7802C30.11 47.7802 30.06 47.7302 30.07 47.7002C30.07 47.6702 30.09 47.6402 30.13 47.6202L30.45 47.4902L30.13 47.2602C30.13 47.2602 30.08 47.1702 30.11 47.1302C30.14 47.0902 30.2 47.0802 30.24 47.1102L30.7 47.4302C30.7 47.4302 30.74 47.4802 30.74 47.5102C30.74 47.5402 30.72 47.5702 30.68 47.5802L30.37 47.7102L30.64 47.8802C30.64 47.8802 30.7 47.9602 30.67 48.0102C30.65 48.0302 30.63 48.0502 30.6 48.0502H30.59Z" fill="white"/>
<path d="M30.12 47.32C30.2139 47.32 30.29 47.2439 30.29 47.15C30.29 47.0561 30.2139 46.98 30.12 46.98C30.0261 46.98 29.95 47.0561 29.95 47.15C29.95 47.2439 30.0261 47.32 30.12 47.32Z" fill="white"/>
<path d="M33.49 49.0998C33.49 49.0998 32.94 47.1198 32.63 46.9198C32.32 46.7198 31.92 47.9898 31.92 47.9898C31.92 47.9898 32.79 49.1898 33.49 49.1098V49.0998Z" fill="white"/>
<path d="M28.66 50.8797C28.66 50.8797 27.87 48.6697 27.99 48.2097C28.11 47.7497 29.51 48.6997 29.51 48.6997C29.51 48.6997 29.23 50.7897 28.66 50.8797Z" fill="white"/>
<path d="M33.8915 49.7114C33.4647 48.2769 31.9558 47.46 30.5212 47.8868C29.0867 48.3136 28.2698 49.8226 28.6966 51.2571L29.1757 52.8674C29.6026 54.3019 31.1115 55.1188 32.546 54.692C33.9806 54.2651 34.7975 52.7562 34.3707 51.3216L33.8915 49.7114Z" fill="white"/>
<path d="M31.92 50.72C31.92 50.72 32.42 50.67 32.55 50.49C32.68 50.31 32.75 50.84 32.2 50.99C31.44 51.19 31.32 50.93 31.3 50.75C31.29 50.61 31.6 50.75 31.91 50.72H31.92Z" fill="#2F2D2A"/>
<path d="M30.92 48.26C30.76 48.34 30.63 48.44 30.52 48.57C30.58 48.32 30.76 48.09 31.02 47.96C31.46 47.75 31.97 47.91 32.16 48.32C32.19 48.39 32.21 48.46 32.22 48.54C31.94 48.17 31.39 48.05 30.92 48.27V48.26Z" fill="#E8F1F7"/>
<path d="M31.73 50.3897C32.2712 50.3897 32.71 49.9509 32.71 49.4097C32.71 48.8684 32.2712 48.4297 31.73 48.4297C31.1888 48.4297 30.75 48.8684 30.75 49.4097C30.75 49.9509 31.1888 50.3897 31.73 50.3897Z" fill="#E4E6EC"/>
<path d="M31.62 50.2896C32.1613 50.2896 32.6 49.8508 32.6 49.3096C32.6 48.7684 32.1613 48.3296 31.62 48.3296C31.0788 48.3296 30.64 48.7684 30.64 49.3096C30.64 49.8508 31.0788 50.2896 31.62 50.2896Z" fill="#4F4C47"/>
<path d="M31.55 50.1394C32.0416 50.1394 32.44 49.7409 32.44 49.2494C32.44 48.7578 32.0416 48.3594 31.55 48.3594C31.0585 48.3594 30.66 48.7578 30.66 49.2494C30.66 49.7409 31.0585 50.1394 31.55 50.1394Z" fill="#2F2D2A"/>
<path d="M32 49.6195C32.1712 49.6195 32.31 49.4807 32.31 49.3095C32.31 49.1383 32.1712 48.9995 32 48.9995C31.8288 48.9995 31.69 49.1383 31.69 49.3095C31.69 49.4807 31.8288 49.6195 32 49.6195Z" fill="white"/>
<path d="M31.43 49.3997C31.4908 49.3997 31.54 49.3504 31.54 49.2897C31.54 49.2289 31.4908 49.1797 31.43 49.1797C31.3693 49.1797 31.32 49.2289 31.32 49.2897C31.32 49.3504 31.3693 49.3997 31.43 49.3997Z" fill="white"/>
<path d="M57.89 54.28C58.03 52.96 57.53 50.6 56.97 49.26C56.41 47.92 55.29 46.97 54.05 46.58C52.81 46.19 51.43 46.56 51.43 46.56L45.6 50.85L26.01 54.48L25.08 56.42L25.56 59.2L25.92 59.99C25.98 60.4 26.06 60.82 26.17 61.25C26.89 64.07 28.41 66.11 29.58 65.82L52.17 59.73C52.17 59.73 56.21 57.25 56.68 56.93C57.16 56.61 57.38 56.15 57.38 56.15C57.76 55.82 57.74 55.62 57.88 54.3L57.89 54.28Z" fill="#141F21"/>
<path d="M41.7 60.4696L62.9199 62.8596V59.0596L44.6199 57.1196L41.7 60.4696Z" fill="url(#paint10_linear_26835_29179)"/>
<path d="M45.91 60.1897C45.42 60.5297 42.94 60.6997 40.77 60.3597H40.76C39.11 60.0897 37.64 59.5397 37.41 58.5197C37.27 57.9797 38.92 57.5397 40.75 57.2897H40.76C42.7 57.0197 44.85 56.9897 45.25 57.2997C46.04 57.9097 46.76 59.5797 45.9 60.1897H45.91Z" fill="white"/>
<path d="M38.41 58.5598C38.3 57.8198 41.12 57.8198 41.12 57.8198C41.12 57.8198 41.97 58.3998 41.3 59.7498C41.3 59.7498 38.57 59.6898 38.41 58.5598Z" fill="url(#paint11_linear_26835_29179)"/>
<path d="M34.05 51.0798C34.05 51.0798 34.43 50.3798 34.67 50.2898C34.91 50.1998 36.77 49.7898 36.93 49.7498C37.09 49.7098 37.55 50.0598 37.55 50.0598L34.04 51.0798H34.05Z" fill="#141F21"/>
<path d="M54.26 50.2699C53.98 49.7999 52.85 48.1399 52.89 47.8799C52.93 47.6199 53.4 47.4099 53.36 47.2999C53.32 47.1899 52.65 46.6299 51.73 46.5599C50.81 46.4799 49.31 46.8299 48.78 47.1399C48.25 47.4499 45.9 49.6599 45.34 49.8899C44.78 50.1199 43.07 50.1299 42.19 49.8999C41.31 49.6699 39.85 49.2699 39.85 49.2699L39.76 49.1299C39.76 49.1299 38.25 48.8799 38.01 48.8399C37.77 48.7999 37.49 48.7999 37.37 48.9999C37.37 48.9999 38.51 49.3299 38.76 49.4199C38.9 49.4499 38.93 49.6799 38.93 49.6799C38.93 49.6799 34.5 51.0399 34.18 51.0299C33.86 51.0199 33.61 51.0199 33.61 51.0199L33.58 50.9299C33.58 50.9299 32.03 50.8399 31.19 50.9699C30.59 51.0599 29.8 51.4699 29.37 51.6599C28.94 51.8499 27.82 51.3599 27.82 51.3599L27.85 46.6599C27.18 46.7399 26.6 47.1299 26.27 47.7199L24.71 50.4799C24.62 50.6999 22.09 51.1299 21.97 51.2299C21.85 51.3299 22.13 51.9799 22.32 52.0599C22.51 52.1399 22.92 52.0299 22.84 52.1699C22.76 52.3099 21.32 54.0799 21.25 54.4699C21.18 54.8599 21.26 55.4299 21.47 55.4699C21.68 55.5199 25.62 53.9499 25.84 53.9599C26.06 53.9599 26.07 54.1899 26.07 54.1899C26.07 54.1899 27.87 53.2299 28.55 53.2899C29.23 53.3599 29.81 53.5699 30.02 53.7199C30.23 53.8699 31 53.8099 31.28 53.7699C31.56 53.7299 32.99 53.7099 33.23 53.8299C33.47 53.9399 37.23 55.9799 37.97 56.1799C38.71 56.3799 47.21 56.1099 50.05 55.1099C52.89 54.1099 54.51 52.0499 54.63 51.5099C54.75 50.9699 54.55 50.7399 54.27 50.2699H54.26Z" fill="url(#paint12_linear_26835_29179)"/>
<path opacity="0.8" d="M45.46 54.0397L43.92 53.6797C43.92 53.6797 44.65 55.1297 38.15 56.2097L39.58 56.2397C40.76 56.2297 42.42 56.1597 44.11 56.0297C44.59 55.6597 45.3 54.9797 45.45 54.0397H45.46Z" fill="#FFCA9C"/>
<path opacity="0.8" d="M28.56 51.7396C28.56 51.7396 28.24 52.4196 27.03 52.8996C25.82 53.3796 24.92 53.7596 24.92 53.7596C24.92 53.7596 26.01 53.0596 26.39 52.6696C26.77 52.2796 26.92 51.9196 26.92 51.9196L27 51.5796L28.56 51.7396Z" fill="#FFCA9C"/>
<path opacity="0.8" d="M26.4 51.7098C26.4 51.7098 26.18 52.3698 25.66 52.7698C25.14 53.1698 23.68 54.1698 22.95 54.5098C22.95 54.5098 23.81 53.6098 24.37 52.9398C24.93 52.2698 25.27 51.5298 25.27 51.5298L26.09 51.6598L26.41 51.7098H26.4Z" fill="#FFCA9C"/>
<path d="M12.35 54.9097C12.35 54.9097 12.04 55.3197 12.05 55.7897C12.06 56.2597 12.08 56.7597 12.2 56.7997C12.32 56.8397 12.57 56.8397 12.67 56.8997C12.77 56.9597 14.55 57.1597 14.55 57.1597L13.72 54.4697L12.36 54.9097H12.35Z" fill="#141F21"/>
<path d="M18.43 58.5396L18.01 57.3196L17.4 56.9296L14.72 55.9396C14.54 55.8296 14.37 55.7896 14.21 55.8296C13.5 56.0096 13.33 57.7596 13.83 59.7296C14.33 61.7096 15.31 63.1596 16.03 62.9796C16.03 62.9796 16.05 62.9796 16.06 62.9796C16.1 62.9796 16.14 62.9796 16.16 62.9796C16.39 62.9296 18.3 62.4396 18.3 62.4396C18.3 62.4396 18.76 61.9996 18.89 61.2496C19.02 60.4996 18.44 58.5496 18.44 58.5496L18.43 58.5396Z" fill="#141F21"/>
<path d="M15.8232 62.4927C16.3478 62.3596 16.4327 60.9107 16.013 59.2566C15.5932 57.6025 14.8276 56.3695 14.303 56.5026C13.7784 56.6357 13.6934 58.0846 14.1132 59.7387C14.533 61.3928 15.2985 62.6258 15.8232 62.4927Z" fill="url(#paint13_linear_26835_29179)"/>
<path d="M15.5344 61.8111C15.877 61.7242 15.8948 60.6295 15.5742 59.3662C15.2536 58.1028 14.7159 57.1492 14.3733 57.2361C14.0307 57.3231 14.0129 58.4177 14.3335 59.681C14.6541 60.9444 15.1918 61.898 15.5344 61.8111Z" fill="#141F21"/>
<path d="M24.87 50.1299C24.87 50.1299 18.68 51.7199 17.06 52.3699C15.44 53.0199 14.89 53.3399 14.89 53.3399L15.02 53.3699C15.02 53.3699 15.72 53.5699 16.15 54.1999C16.58 54.8299 17.17 56.0099 17.23 56.1599C17.29 56.3099 17.23 56.5699 17.23 56.5699C17.23 56.5699 16.55 54.8199 16.05 54.3099C15.55 53.7999 14.84 53.5299 14.84 53.5299C14.84 53.5299 12.95 54.1099 12.6 54.4699C12.25 54.8299 12.34 54.9199 12.34 54.9199C12.34 54.9199 12.74 54.6999 13.03 54.9799C13.32 55.2599 14.04 56.2399 14.22 56.6699C14.4 57.0999 14.65 57.4399 15.23 57.4599C15.81 57.4799 16.96 57.4999 17.24 57.5199C17.52 57.5399 17.71 57.5899 17.85 57.9399C17.99 58.2899 18.66 60.0299 18.84 60.1999C19.02 60.3699 19.34 60.5099 19.34 60.5099C19.34 60.5099 18.89 60.1999 18.72 59.8099C18.55 59.4199 17.4 56.6399 17.4 56.6399C17.4 56.6399 17.47 56.2699 17.41 56.1399C17.35 56.0099 17.59 55.8699 17.44 55.3299C17.29 54.7899 16.88 53.9899 16.54 53.7399C16.2 53.4899 16.04 53.3999 16.04 53.3999C16.04 53.3999 21.24 51.9299 21.61 51.9399C21.98 51.9499 22.08 52.1299 22.08 52.1299L22.29 52.0699L25.1 50.5799L24.85 50.1399L24.87 50.1299Z" fill="url(#paint14_linear_26835_29179)"/>
<path d="M26.29 60.9798C26.29 60.9798 23.12 61.4198 22.58 61.4598C22.04 61.4998 21.42 60.9798 21.16 60.7598C20.9 60.5398 19.62 60.4898 19.44 60.3898C19.26 60.2898 18.87 59.3298 18.59 58.2598C18.31 57.1798 16.93 53.6098 16.92 53.5098L20.44 52.4998C20.77 52.4098 20.92 52.4098 20.93 52.4698C20.94 52.5298 20.73 52.7198 20.98 52.9898C21.23 53.2498 21.82 53.1298 21.93 53.1298C22.04 53.1298 22.05 53.2198 22.05 53.2198L23.47 52.0498L22.55 51.5498L15.6 53.0698L18.54 60.1498C18.54 60.1498 18.84 60.9298 18.92 61.0098C19 61.0898 19.11 61.0098 19.11 61.0098C19.35 61.4598 19.72 61.5898 20.2 61.6198C20.68 61.6398 21.43 61.8298 22.12 61.8198C22.81 61.8098 26.39 61.2498 26.39 61.2498L26.29 60.9798Z" fill="#141F21"/>
<path d="M18.86 59.7697L23.23 57.9697L23.46 58.6897L19.13 60.3797L18.86 59.7697Z" fill="#141F21"/>
<path d="M38.15 62.4698C38.02 62.4698 37.9 62.4098 37.83 62.2998C37.36 61.5198 35.47 58.3798 34.66 57.3198C34.33 56.8098 33.95 56.3198 33.51 55.8698C29.61 52.7498 28.17 53.0598 28.17 53.0598C28.17 53.0598 26.72 53.3798 25.98 53.7798C25.09 54.2598 24.73 55.8498 25 57.5698C25.27 59.2898 26.19 61.1198 26.19 61.1198C26.19 61.1198 26.03 60.2198 25.61 58.3798C25.21 56.6198 25.65 55.2998 26.16 54.8998C26.67 54.4998 27.19 54.6598 28.25 55.5798C29.31 56.4998 30.31 58.6698 30.47 58.7598C30.63 58.8498 32.31 58.4098 33.03 58.3398C33.33 58.3098 33.67 58.2898 34 58.2998L35.01 58.9698L37.2 62.5998C37.38 62.8998 37.73 63.0698 38.08 63.0298C40.27 62.7598 48.09 61.6698 52.16 59.7098C52.16 59.7098 44.79 62.2998 38.14 62.4598L38.15 62.4698Z" fill="url(#paint15_linear_26835_29179)"/>
<path d="M36.98 61.3499L36.35 60.3999C36.57 60.7999 36.77 61.1199 36.98 61.3499Z" fill="#79A868"/>
<path opacity="0.8" d="M41.85 49.79C41.85 49.79 44.5 51.73 44.59 53.86L45.47 53.94C45.47 53.94 49.45 53.32 47.3 51.57L43.06 50.03L41.85 49.79Z" fill="#FFCA9C"/>
<path d="M43.07 50.0298C43.07 50.0298 48.11 51.8498 48.8 52.1298C49.73 52.5198 50.22 52.8398 50.02 52.9798C49.82 53.1198 46.09 53.9598 45.35 53.8398C44.61 53.7198 34.21 50.9098 34.21 50.9098L33.35 50.9498C33.35 50.9498 44.83 54.1698 45.2 54.1898C45.81 54.2598 50.18 53.2698 50.37 53.1098C50.56 52.9498 50.49 52.7598 49.47 52.3098C48.23 51.7598 44.08 50.3098 43.21 50.0298H43.07Z" fill="#141F21"/>
<path d="M18.12 57.0097L21.94 56.1597L22.45 57.1497L18.26 57.5897L18.12 57.0097Z" fill="#141F21"/>
<path d="M20.28 57.0197L18.51 58.8697L18.78 59.6997L21.41 56.6997L20.28 57.0197Z" fill="#141F21"/>
<path d="M53.62 57.6098L62.92 58.3798V52.5398L56.2 52.0898L53.62 57.6098Z" fill="url(#paint16_linear_26835_29179)"/>
<path d="M53.24 54.31C53.53 53.96 55.33 51.95 56.2 52.09C58.19 52.4 55.22 58.16 53.62 57.62C52.97 57.4 52.91 54.71 53.24 54.31Z" fill="white"/>
<path d="M55.22 52.9797C55.33 52.8197 56.01 52.4697 56.32 52.6897C56.63 52.9097 56.14 54.3697 55.92 54.8297C55.92 54.8297 54.38 54.1797 55.23 52.9797H55.22Z" fill="url(#paint17_linear_26835_29179)"/>
<path d="M28.2 52.52C28.16 52.44 28.12 52.36 28.1 52.32H28.11L27.44 51L25.48 51.54C25.16 51.63 24.97 51.96 25.05 52.29L25.07 52.36C25.15 52.68 25.47 52.87 25.79 52.8L27.71 52.39C27.77 52.49 27.82 52.6 27.84 52.65C27.89 52.78 28.02 52.79 28.1 52.73C28.18 52.68 28.24 52.61 28.19 52.5L28.2 52.52Z" fill="#141F21"/>
<path d="M29.4829 65.108C30.2887 64.8726 30.3621 62.6963 29.6468 60.2471C28.9315 57.7978 27.6984 56.0031 26.8926 56.2384C26.0868 56.4738 26.0134 58.6501 26.7287 61.0993C27.4439 63.5485 28.677 65.3433 29.4829 65.108Z" fill="url(#paint18_linear_26835_29179)"/>
<path d="M28.7472 63.7419C29.2561 63.5932 29.2796 62.1405 28.7997 60.497C28.3197 58.8536 27.5181 57.6418 27.0092 57.7905C26.5002 57.9391 26.4767 59.3918 26.9567 61.0353C27.4366 62.6787 28.2383 63.8905 28.7472 63.7419Z" fill="#141F21"/>
<path d="M28.5158 61.7965C28.7225 61.7361 28.7433 61.1844 28.5621 60.5641C28.381 59.9438 28.0665 59.49 27.8598 59.5503C27.653 59.6107 27.6323 60.1625 27.8134 60.7828C27.9945 61.403 28.309 61.8569 28.5158 61.7965Z" fill="white"/>
<path d="M15.3979 60.0072C15.5103 59.9786 15.5332 59.6865 15.4489 59.3546C15.3647 59.0227 15.2053 58.7767 15.0929 58.8053C14.9805 58.8338 14.9576 59.126 15.0419 59.4579C15.1261 59.7898 15.2855 60.0357 15.3979 60.0072Z" fill="white"/>
<path d="M0.919983 37.5502C0.919983 37.5502 0.979983 29.4602 9.55998 33.4602C9.55998 33.4602 11.91 27.4002 19.36 30.4902C26.81 33.5802 22.01 44.0502 22.01 44.0502C22.01 44.0502 36.58 53.7902 32.65 60.4902C28.72 67.1902 12.91 68.7902 12.91 68.7902L1.34998 57.7802L0.919983 37.5402V37.5502Z" fill="#33CC8E"/>
<path d="M41.75 54.6298C41.75 54.6298 52.08 49.2098 55.27 62.8598C55.27 62.8598 61.67 60.8798 61.67 71.1998C61.67 81.5198 62.28 84.2898 60.6 86.2898C58.92 88.2898 5.57001 87.7898 3.63001 86.9398C1.69001 86.0898 0.450012 82.2698 0.450012 82.2698L0.640012 62.2898L19.66 63.8098C19.66 63.8098 21.28 56.3498 29.22 58.8298L41.74 54.6398L41.75 54.6298Z" fill="#873B14"/>
<path opacity="0.5" d="M60.59 86.2898C58.91 88.2898 5.56001 87.7898 3.63001 86.9398C1.69001 86.0898 0.450012 82.2698 0.450012 82.2698L0.570012 70.0598L15 65.8398L61.69 74.9498C61.79 82.2498 62.05 84.5598 60.59 86.2898Z" fill="#2BA9C2"/>
<path d="M60.59 86.2898C58.91 88.2898 5.56001 87.7898 3.63001 86.9398C1.69001 86.0898 0.450012 82.2698 0.450012 82.2698L0.570012 70.0598L15 65.8398L61.69 74.9498C61.79 82.2498 62.05 84.5598 60.59 86.2898Z" fill="#2BA9C2"/>
<path d="M0.450012 28.73C9.55001 33.46 25.37 38.89 25.37 38.89H19.35C19.35 38.89 2.87001 33.18 0.450012 28.73Z" fill="#00E688"/>
<path d="M0.450012 28.73C9.55001 33.46 25.37 38.89 25.37 38.89H19.35C19.35 38.89 2.87001 33.18 0.450012 28.73Z" fill="#00E688"/>
<path d="M56.92 18.29H5.91998C5.3677 18.29 4.91998 18.7378 4.91998 19.29V57.29C4.91998 57.8423 5.3677 58.29 5.91998 58.29H56.92C57.4723 58.29 57.92 57.8423 57.92 57.29V19.29C57.92 18.7378 57.4723 18.29 56.92 18.29Z" fill="#2F4553"/>
<path d="M62.39 7.07004V81.52C62.39 84.85 59.68 87.55 56.35 87.55H6.48001C3.15001 87.55 0.450012 84.85 0.450012 81.52V7.07004C0.450012 3.74004 3.15001 1.04004 6.48001 1.04004H56.35C59.68 1.04004 62.39 3.74004 62.39 7.07004Z" fill="url(#paint19_linear_26835_29179)"/>
<path d="M32.42 23.56C33.51 23.66 34.4 24.27 34.39 25.04C34.39 25.13 39.85 25.84 39.52 26.37C39.73 26.99 23.31 26.04 17.3 26.5C16.93 26.53 16.55 26.5 16.22 26.38C15.05 25.93 15.82 25.06 16.51 24.58C17.35 24.01 18.51 23.63 19.74 23.53C20.6 23.46 21.67 23.61 21.67 23.61C21.61 22.4 23.71 21.49 25.49 21.73C26.36 21.85 27.13 22.17 27.73 22.59C28.41 23.06 28.63 23.64 29.16 24.14C30.21 23.78 31.55 23.48 32.42 23.56Z" fill="#FFCFA6"/>
<path d="M22.33 23.6601C22.02 22.9801 23 22.2901 23.7 22.9001C24.52 23.6101 24.29 24.7001 24.29 24.7001C23.33 24.0001 22.33 23.6501 22.33 23.6501V23.6601Z" fill="#FFB87A"/>
<path d="M18.62 24.1901C20.09 23.9601 21.36 24.4401 21.42 24.7701C21.48 25.1001 20.32 25.5501 18.85 25.7801C17.38 26.0101 16.52 25.8301 16.47 25.5001C16.42 25.1701 17.16 24.4201 18.63 24.1901H18.62Z" fill="#FFB87A"/>
<g opacity="0.8">
<path d="M55.19 20.9301C53.49 20.8201 51.79 20.8201 50.09 20.9301C49.26 20.9801 48.42 21.0601 47.59 20.9901C47.32 20.9701 42.42 21.0401 42.21 20.8901C41.88 20.6401 46.41 20.0501 46.54 19.6601C46.67 19.2701 46.97 18.9601 47.3 18.7101C48.13 18.1001 49.36 17.8801 50.14 18.5401C50.32 17.6301 51.2 16.9701 52.13 16.8701C52.36 17.0101 52.59 17.1501 52.7 17.2701C53.18 17.8201 53.33 18.5901 52.91 19.2401C53.24 18.7901 53.9 18.9901 54.26 19.2901C54.76 19.7001 55.08 20.3001 55.2 20.9301H55.19Z" fill="#FFB87A"/>
</g>
<path d="M56.25 21.01C55.9 20.98 55.54 20.95 55.19 20.93C55.07 20.3 54.74 19.7 54.25 19.29C53.89 18.99 53.23 18.79 52.9 19.24C53.32 18.59 53.17 17.83 52.69 17.27C52.58 17.15 52.35 17.01 52.12 16.87C52.3 16.85 52.49 16.85 52.67 16.87C53.88 17.04 54.35 18.08 55.3 18.63C56.25 19.18 57.02 19.34 56.97 20.39C56.95 20.76 56.63 21.05 56.25 21.01Z" fill="#FFE0C4"/>
<path d="M27.55 37.4501C27.55 37.4501 31.07 36.5301 31.53 36.4301C31.99 36.3301 33.33 36.9401 33.33 36.9401L36.67 34.1201C36.67 34.1201 37.8 33.7401 38.15 33.8101C38.5 33.8801 39.76 34.6401 39.76 34.6401C39.76 34.6401 42.34 32.2001 42.65 31.9201C42.93 31.6701 43.33 31.9301 44.13 32.0101C44.93 32.0901 45.76 32.8401 45.91 32.8401C46.06 32.8401 48.2 29.8101 48.36 29.6101C48.41 29.5401 49.26 29.3401 49.43 29.5101C50.1 30.2001 51.24 32.3901 51.62 32.4601C52.1 32.5501 52.91 33.0801 53.3 33.5201C53.69 33.9601 58.94 35.1001 58.94 35.1001L62.38 34.1101L61.51 44.2801L45.45 46.3801L27.54 37.4401L27.55 37.4501Z" fill="#FFB87A"/>
<path d="M54.12 34.5203C54.6 34.6603 56.87 35.3803 56.87 35.3803L57.41 36.6303C57.41 36.6303 59.76 35.4703 59.85 35.3803C59.94 35.2903 61.1 34.9303 61.1 34.9303L61.66 38.2603C61.66 38.2603 59.22 37.6403 58.96 37.7503C58.7 37.8603 60.39 40.2603 60.39 40.2603C60.39 40.2603 57.64 39.0103 57.41 38.8803C57.18 38.7503 56.75 37.3803 56.75 37.3803L54.12 34.5103V34.5203Z" fill="#FFCFA6"/>
<path d="M37.89 34.5203C38.06 34.4903 38.99 35.7503 38.99 35.7503C38.99 35.7503 38.07 38.9403 37.95 38.8803C37.83 38.8203 36.83 37.1603 36.68 37.1603C36.53 37.1603 37 40.4903 37 40.4903L33.59 39.5003C33.59 39.5003 37.23 34.6303 37.9 34.5103L37.89 34.5203Z" fill="#FFCFA6"/>
<path d="M49.45 30.1199C49.75 29.8999 51.3 33.0499 51.62 33.2499C51.94 33.4499 53.54 36.1799 53.69 36.4399C53.84 36.6999 49.27 37.9599 48.91 37.9199C48.55 37.8799 48.22 36.1199 47.93 36.3099C47.64 36.4999 45.33 40.4799 44.89 40.5499C44.45 40.6199 45.27 39.1199 44.89 39.1199C44.51 39.1199 40.93 42.1499 40.93 42.1499L40.29 41.7899L42.17 38.8999L40.35 40.2799L39.69 39.9699C39.69 39.9699 42.85 36.3899 43.16 36.4499C43.47 36.5099 44.12 37.1799 44.12 37.1799L48.57 33.8199C48.57 33.8199 50.34 34.8899 50.45 34.7499C50.56 34.6099 48.86 32.7299 48.9 32.3999C48.94 32.0699 49.44 30.1199 49.44 30.1199H49.45Z" fill="#FFCFA6"/>
<path d="M7.64001 26.2603H9.35001C9.35001 26.2603 11.48 29.4903 11.91 29.6103C12.34 29.7303 13.28 29.9603 13.28 29.9603C13.28 29.9603 16.26 32.6603 17.37 32.8503C18.48 33.0403 20.28 32.8503 20.28 32.8503L23.27 37.7603L11.36 34.9303L7.63 26.2703L7.64001 26.2603Z" fill="#FFCFA6"/>
<path d="M12.6 30.8401C13.11 30.8401 17.38 35.3801 17.38 35.3801L14.09 34.5201L12.6 30.8301V30.8401Z" fill="#FFE0C4"/>
<path d="M1.34998 21.61L3.53998 20.5C3.53998 20.5 3.99998 21.65 4.90998 22.37C5.81998 23.09 12.58 34.11 12.58 34.11L0.669983 32.42L1.35998 21.61H1.34998Z" fill="#FFCFA6"/>
<path d="M3.58002 21.6899C3.58002 21.6899 4.66002 27.1699 4.92002 27.3199C5.18002 27.4699 6.82002 29.0399 7.02002 29.4499C7.22002 29.8599 8.75002 32.9699 8.75002 32.9699L11.75 34.1199C11.75 34.1199 9.35002 31.9599 9.27002 31.6699C9.19002 31.3799 9.12002 29.0399 8.71002 28.7399C8.30002 28.4399 6.52002 26.5899 6.16002 26.2699C5.80002 25.9499 3.58002 21.6899 3.58002 21.6899Z" fill="#FFE0C4"/>
<path d="M9.94001 30.1099L10.78 31.5799L11.03 31.7799L10.62 31.8699L10.89 31.9799L11.64 32.9099L11.21 32.9999L11.86 33.8099L11.64 34.0099L11.85 34.4099L8.01001 34.5099L8.19001 33.5599L8.49001 33.3399L8.24001 33.0899L8.63001 32.1599L8.85001 31.9799L8.74001 31.8099L8.97001 31.7199L9.01001 31.4799L9.94001 30.1099Z" fill="#1F2C2F"/>
<path fill-rule="evenodd" clip-rule="evenodd" d="M5.51998 32.11L5.31998 30.5L5.41998 30.34L5.08998 29.84L5.30998 29.6L4.67998 27.65L3.63998 29.36L3.78998 29.53L3.48998 30.02L3.60998 30.2L3.36998 30.36L2.93998 29.14L2.41998 27.39L1.91998 26.77V38.17L3.64998 38.85H6.03998L5.51998 32.11Z" fill="#1F2C2F"/>
<path d="M6.52003 29.2603L6.86003 30.4503L7.17003 30.7403L7.06003 31.1503L8.16003 33.7603L8.11003 34.0303L8.83003 35.6903L8.60003 36.5603L9.03003 37.9803L9.17003 38.3103L9.69003 38.8403L9.28003 38.9803L5.09003 38.9503L5.17003 33.1603L5.74003 31.4603L6.09003 31.2803V30.8103L6.52003 29.2603Z" fill="#1F2C2F"/>
<path d="M53.69 46.0302C53.69 46.0302 28.12 35.8502 1.41003 31.6602V52.1402C1.41003 52.1402 33.94 55.1802 53.69 46.0302Z" fill="url(#paint20_linear_26835_29179)"/>
<path opacity="0.2" d="M1.51 37.1799C2.33 37.7999 10.59 39.0599 12.25 41.5599C13.38 43.2599 25.04 48.0499 25.04 48.0499L16.93 49.4799C16.93 49.4799 8.13 40.2699 0.879997 37.8799C0.659997 37.8099 1.5 37.1699 1.5 37.1699L1.51 37.1799Z" fill="white"/>
<path opacity="0.2" d="M40.02 46.5903C40.02 46.5903 30.57 39.5903 27.56 40.2203C24.55 40.8503 16.61 38.2403 15.48 38.2703C14.35 38.3003 38.14 46.8203 39.58 47.7403C41.02 48.6603 40.02 46.5903 40.02 46.5903Z" fill="white"/>
<path d="M54.57 44.9099L55.74 43.0999H55.31L56.5 41.2899L56.22 40.8799L57.67 37.7899L57.33 37.3499L57.72 36.6099L58.93 32.8799L59.66 34.9299L59.46 35.4899H59.89L60.84 37.9699L60.69 38.5499L61.03 38.8899L61.69 40.8799L61.97 44.5699L54.57 44.9099Z" fill="#1F2C2F"/>
<path d="M50.97 47.1201L50.31 45.8801H50.55L49.87 44.6401L50.03 44.3601L49.21 42.2501L49.4 41.9501L49.18 41.4501L48.49 38.8901L48.07 40.3001L48.19 40.6801H47.95L47.41 42.3701L47.49 42.7701L47.3 43.0001L46.92 44.3601L46.76 46.8801L50.97 47.1201Z" fill="#1F2C2F"/>
<path d="M54.94 36.7202L54.7 37.7402L54.48 37.9802L54.56 38.3402L53.79 40.5502L53.82 40.7802L53.32 42.2002L53.48 42.9402L53.18 44.1502L53.08 44.4302L52.71 44.8702L53 45.0002L52.63 46.0902L54.69 46.3902L55.95 45.6302L55.89 40.0502L55.49 38.6002L55.25 38.4402V38.0402L54.94 36.7202Z" fill="#1F2C2F"/>
<path d="M8.12998 45.3799L8.14998 46.0499C7.51998 46.0499 6.42998 45.9499 5.73998 45.3599L5.64998 43.0199H4.97998L4.92998 44.6199C4.58998 44.7399 3.69998 44.9699 2.85998 44.5399C2.06998 44.1399 1.53998 43.2499 1.27998 41.9199L1.02998 41.9699C1.30998 43.3899 1.88998 44.3299 2.74998 44.7599C3.60998 45.1999 4.49998 45.0199 4.91998 44.8799L4.86998 46.5399L5.78998 46.6699L5.74998 45.6899C6.49998 46.2199 7.53998 46.2999 8.14998 46.2999V46.6699C7.70998 47.2899 6.79998 48.1799 5.40998 48.1199L5.33998 46.9699L4.33998 47.0299L4.39998 48.4799C3.93998 48.9499 3.09998 49.6999 2.27998 49.6999C2.25998 49.6999 2.24998 49.6999 2.22998 49.6999C1.80998 49.6799 1.43998 49.4499 1.12998 49.0099L0.919983 49.1499C1.26998 49.6599 1.70998 49.9299 2.20998 49.9499C2.22998 49.9499 2.24998 49.9499 2.26998 49.9499C3.08998 49.9499 3.89998 49.3099 4.39998 48.8199L4.54998 52.7199L5.67998 52.6499L5.41998 48.3799C6.71998 48.4099 7.63998 47.6699 8.16998 47.0399L8.26998 49.8499L9.06998 49.7999L9.11998 45.3099L8.11998 45.3699L8.12998 45.3799Z" fill="#1F2C2F"/>
<path d="M61.51 43.1201C61.51 43.1201 61.94 86.2901 61.31 86.2901L1.33001 86.7501C0.720014 86.7501 0.990014 52.1401 0.990014 52.1401C0.990014 52.1401 33.42 45.5201 61.51 43.1201Z" fill="url(#paint21_linear_26835_29179)"/>
<path opacity="0.2" d="M10.48 51.8802C15.91 50.1702 22.23 48.9902 25.7 48.4102C15.37 50.0602 -20.06 56.1902 24.53 55.7902L33.64 52.9302C33.64 52.9302 4.06999 53.9002 10.48 51.8802Z" fill="white"/>
<path d="M25.7 48.41C27.3 48.15 28.31 48 28.31 48C28.31 48 27.31 48.14 25.7 48.41Z" fill="url(#paint22_linear_26835_29179)"/>
<path opacity="0.2" d="M2 52.03V52.93C8.19 50.61 18.83 48.91 23.28 48.27C19.17 48.85 9.65 50.28 2 52.03Z" fill="white"/>
<path opacity="0.2" d="M2 55.99V59.9C3.11 60.04 4.3 60.17 5.61 60.3L16.76 61.36C16.76 61.36 21.65 57.11 17.85 57.02C12.5 56.9 5.85 56.62 2 55.98V55.99Z" fill="white"/>
<path d="M1.16 62.9902C14.75 66.0802 62.92 66.2902 62.92 66.2902L61.31 86.2902C61.31 86.2902 2.74 89.2102 1.33 86.7502C-0.0799996 84.2902 1.16 62.9902 1.16 62.9902Z" fill="url(#paint23_linear_26835_29179)"/>
<path d="M51.08 67.1401L48.46 72.6601L47.68 73.4201L48.97 73.7601L48.12 74.1601L45.81 77.6701L47.13 78.0101L45.13 81.0501L45.81 81.7901L43.16 87.9501H57.69L56.52 80.1001L55.58 79.2901L56.36 78.3501L55.13 74.8301L54.47 74.1601L54.8 73.5201L54.1 73.1801L53.95 72.2801L51.08 67.1401Z" fill="#1F2C2F"/>
<path d="M24.43 71.0801L27.06 76.6001L27.83 77.3601L26.54 77.7001L27.39 78.1001L29.71 81.6101L28.38 81.9501L30.39 85.0001L29.71 85.7301L30.36 87.2501L18.46 87.6201L19 84.0401L19.94 83.2301L19.15 82.2901L20.38 78.7701L21.05 78.1001L20.72 77.4601L21.42 77.1201L21.57 76.2201L24.43 71.0801Z" fill="#1F2C2F"/>
<path d="M58.94 60.9702L58.29 63.7202L57.7 64.3802L57.91 65.3402L55.82 71.3202L55.91 71.9502L54.56 75.7602L54.99 77.7702L54.17 81.0402L53.91 81.7902L52.91 83.0002L53.69 83.3302L52.7 86.2902L58.26 87.1002L61.65 85.0502L61.5 69.9602L60.41 66.0502L59.76 65.6302V64.5502L58.94 60.9702Z" fill="#1F2C2F"/>
<path fill-rule="evenodd" clip-rule="evenodd" d="M9.75997 68.3699L9.29997 63.8599L9.52997 63.4099L8.75997 61.9999L9.25997 61.3299L7.79997 55.8599L5.39997 60.6599L5.73997 61.1499L5.04997 62.5199L5.32997 62.9999L4.77997 63.4499L3.77997 60.0499L2.57997 55.1399L1.40997 53.3999V85.3499L5.42997 87.2499H10.96L9.75997 68.3699Z" fill="#1F2C2F"/>
<path d="M12.06 60.3701L12.85 63.7201L13.57 64.5101L13.31 65.6901L15.86 72.9801L15.75 73.7401L17.4 78.3901L16.87 80.8301L17.87 84.8201L18.19 85.7401L19.41 87.2201L18.46 87.6201L8.76001 87.5301L8.93001 71.3101L10.26 66.5601L11.06 66.0401V64.7201L12.06 60.3701Z" fill="#1F2C2F"/>
<path d="M43.7024 45.0551C43.6125 44.7781 43.3748 44.8466 43.1767 44.9036C42.9786 44.9606 42.073 45.3829 42.073 45.3829L42.0935 45.9626L40.0613 47.9157L40.5146 47.9997L42.1169 46.342L42.1261 46.6018C42.1261 46.6018 43.3948 45.9766 43.5426 45.9113C43.6904 45.846 43.8037 45.3717 43.6924 45.0555L43.7024 45.0551Z" fill="#141F21"/>
<path d="M32.3168 62.9093C32.139 62.9757 32.2399 63.2823 33.2839 63.3754C34.9499 63.5166 49.3169 60.0662 52.9866 58.0151C56.6564 55.9641 56.6205 55.515 56.0498 55.225C55.4792 54.935 53.8834 55.0816 53.8834 55.0816L32.3164 62.8994L32.3168 62.9093Z" fill="#141F21"/>
<path d="M28.1479 44.3551C27.8506 44.4356 27.6396 44.6933 27.6002 44.9948L26.9547 49.9408L29.2591 50.5897L31.9417 48.3534L28.9573 44.6066C28.7586 44.3635 28.4449 44.2645 28.1476 44.3451L28.1479 44.3551Z" fill="#141F21"/>
<path d="M19.6524 59.615L24.1427 58.6956L27.2679 59.6356L27.0151 59.8447L22.4206 60.6477L19.6524 59.615Z" fill="url(#paint24_linear_26835_29179)"/>
<path d="M21.4374 54.6386C21.4374 54.6386 24.1267 59.3765 24.5003 59.7535C24.8738 60.1305 25.241 60.3277 26.5999 59.9894L26.2114 52.6886C24.1204 52.4124 22.5219 53.0493 21.4371 54.6287L21.4374 54.6386Z" fill="#141F21"/>
<path d="M28.8731 52.1243C28.6775 52.2513 28.5149 52.7474 29.2613 52.6309C29.958 52.5262 33.0656 50.4249 34.2069 49.8742C32.1826 50.3561 29.7934 51.5514 28.8731 52.1243Z" fill="#130F18"/>
<path d="M30.3235 46.7397C30.3235 46.7397 30.2836 46.7411 30.2632 46.7318L29.8343 46.4868C29.8343 46.4868 29.7826 46.4386 29.7915 46.4083C29.7904 46.3783 29.8094 46.3476 29.8486 46.3262L30.1638 46.185L29.8359 45.9664C29.8359 45.9664 29.7827 45.8783 29.8113 45.8372C29.8399 45.7962 29.8995 45.7841 29.9405 45.8126L30.4115 46.1162C30.4115 46.1162 30.4533 46.1647 30.4543 46.1947C30.4554 46.2247 30.4365 46.2554 30.3969 46.2668L30.0917 46.4077L30.3675 46.568C30.3675 46.568 30.4303 46.6458 30.4021 46.6969C30.3828 46.7176 30.3635 46.7383 30.3335 46.7393L30.3235 46.7397Z" fill="white"/>
<path d="M29.828 46.0266C29.9219 46.0233 29.9952 45.9446 29.9919 45.8507C29.9886 45.7569 29.9098 45.6835 29.816 45.6869C29.7222 45.6902 29.6488 45.7689 29.6521 45.8628C29.6555 45.9566 29.7342 46.03 29.828 46.0266Z" fill="white"/>
<path d="M33.2589 47.6864C33.2589 47.6864 32.6392 45.7271 32.3223 45.5382C32.0054 45.3493 31.6506 46.6327 31.6506 46.6327C31.6506 46.6327 32.5625 47.8012 33.2592 47.6964L33.2589 47.6864Z" fill="white"/>
<path d="M28.4949 49.6361C28.4949 49.6361 27.6272 47.4554 27.7309 46.9914C27.8346 46.5275 29.2673 47.4274 29.2673 47.4274C29.2673 47.4274 29.0614 49.526 28.4949 49.6361Z" fill="white"/>
<path d="M33.6818 48.2834C33.2045 46.8648 31.6676 46.1018 30.2491 46.5791C28.8306 47.0564 28.0675 48.5933 28.5449 50.0119L29.0806 51.6041C29.5579 53.0227 31.0948 53.7857 32.5134 53.3084C33.9319 52.8311 34.6949 51.2942 34.2176 49.8756L33.6818 48.2834Z" fill="white"/>
<path d="M31.7472 49.361C31.7472 49.361 32.2451 49.2933 32.3687 49.1088C32.4922 48.9243 32.5809 49.4515 32.0366 49.6209C31.2841 49.8476 31.155 49.592 31.1287 49.4129C31.1137 49.2733 31.4285 49.4023 31.7372 49.3613L31.7472 49.361Z" fill="#2F2D2A"/>
<path d="M30.6608 46.9375C30.5037 47.0231 30.3774 47.1277 30.272 47.2615C30.3232 47.0095 30.4949 46.7733 30.7501 46.6342C31.1824 46.4087 31.6978 46.5506 31.9022 46.9536C31.9346 47.0225 31.9571 47.0918 31.9699 47.1714C31.677 46.8115 31.1231 46.711 30.6612 46.9475L30.6608 46.9375Z" fill="#E8F1F7"/>
<path d="M31.5457 49.0379C32.0866 49.0187 32.5095 48.5647 32.4904 48.0238C32.4712 47.4829 32.0172 47.06 31.4763 47.0791C30.9354 47.0982 30.5125 47.5523 30.5316 48.0932C30.5508 48.6341 31.0048 49.057 31.5457 49.0379Z" fill="#E4E6EC"/>
<path d="M31.4322 48.9417C31.9731 48.9225 32.3961 48.4685 32.3769 47.9276C32.3578 47.3867 31.9038 46.9638 31.3629 46.9829C30.822 47.0021 30.399 47.4561 30.4181 47.997C30.4373 48.5379 30.8913 48.9608 31.4322 48.9417Z" fill="#4F4C47"/>
<path d="M31.3569 48.7943C31.8482 48.7769 32.2323 48.3646 32.2149 47.8734C32.1975 47.3821 31.7852 46.998 31.294 47.0154C30.8028 47.0328 30.4186 47.4451 30.436 47.9363C30.4534 48.4275 30.8657 48.8117 31.3569 48.7943Z" fill="#2F2D2A"/>
<path d="M31.7883 48.2585C31.9594 48.2525 32.0932 48.1089 32.0871 47.9378C32.0811 47.7667 31.9375 47.6329 31.7664 47.6389C31.5952 47.645 31.4615 47.7886 31.4675 47.9597C31.4736 48.1308 31.6172 48.2646 31.7883 48.2585Z" fill="white"/>
<path d="M31.2109 48.0587C31.2716 48.0566 31.319 48.0056 31.3169 47.9449C31.3147 47.8842 31.2638 47.8367 31.2031 47.8389C31.1424 47.841 31.0949 47.892 31.097 47.9527C31.0992 48.0134 31.1501 48.0609 31.2109 48.0587Z" fill="white"/>
<path d="M57.8269 51.9998C57.9201 50.6757 57.3369 48.3348 56.7299 47.0155C56.1228 45.6961 54.9699 44.7863 53.7169 44.4404C52.4639 44.0946 51.0979 44.5131 51.0979 44.5131L45.4232 49.0067L25.9739 53.3273L25.1131 55.299L25.6911 58.0603L26.0789 58.8371C26.1533 59.2447 26.2481 59.6616 26.3733 60.0874C27.1926 62.8802 28.7838 64.8652 29.9428 64.534L52.3032 57.6487C52.3032 57.6487 56.253 55.0274 56.7114 54.6909C57.1798 54.3542 57.3834 53.8867 57.3834 53.8867C57.7514 53.5434 57.7244 53.3443 57.8176 52.0201L57.8269 51.9998Z" fill="#141F21"/>
<path d="M41.8659 58.759L63.1572 60.3969L63.0228 56.5993L44.6656 55.3078L41.8659 58.759Z" fill="url(#paint25_linear_26835_29179)"/>
<path d="M53.6773 55.4789L62.9987 55.9195L62.7922 50.0832L56.0604 49.8711L53.6773 55.4789Z" fill="url(#paint26_linear_26835_29179)"/>
<path d="M46.0634 58.3302C45.5857 58.6873 43.1133 58.9449 40.9326 58.6819L40.9226 58.6822C39.2641 58.4708 37.7756 57.9731 37.5097 56.9619C37.3506 56.4272 38.984 55.9291 40.8041 55.6145L40.814 55.6141C42.7433 55.2757 44.8909 55.1697 45.3016 55.4653C46.1127 56.047 46.8913 57.6905 46.0534 58.3305L46.0634 58.3302Z" fill="white"/>
<path d="M38.5105 56.9665C38.3743 56.2308 41.1926 56.1311 41.1926 56.1311C41.1926 56.1311 42.0626 56.6807 41.4407 58.0535C41.4407 58.0535 38.7103 58.0901 38.5105 56.9665Z" fill="url(#paint27_linear_26835_29179)"/>
<path d="M33.8886 49.6455C33.8886 49.6455 34.2436 48.9325 34.4802 48.834C34.7169 48.7356 36.5612 48.2601 36.7197 48.2144C36.8782 48.1688 37.3503 48.5023 37.3503 48.5023L33.8786 49.6458L33.8886 49.6455Z" fill="#141F21"/>
<path d="M54.0573 48.121C53.7608 47.6612 52.5728 46.0422 52.6036 45.781C52.6344 45.5197 53.0967 45.2933 53.0528 45.1847C53.0089 45.0762 52.3195 44.5403 51.3976 44.5029C50.4754 44.4554 48.9887 44.8583 48.47 45.1868C47.9513 45.5154 45.6809 47.8071 45.1294 48.0568C44.5779 48.3065 42.8693 48.3769 41.9818 48.1782C41.0942 47.9795 39.6209 47.6314 39.6209 47.6314L39.526 47.4947C39.526 47.4947 38.0081 47.2982 37.7669 47.2667C37.5256 47.2352 37.2458 47.2452 37.1329 47.4493C37.1329 47.4493 38.2839 47.7387 38.5369 47.8198C38.6779 47.8449 38.716 48.0737 38.716 48.0737C38.716 48.0737 34.3369 49.5895 34.0167 49.5908C33.6966 49.5922 33.4467 49.601 33.4467 49.601L33.4136 49.5121C33.4136 49.5121 31.8614 49.477 31.0265 49.6366C30.43 49.7478 29.655 50.1855 29.232 50.3906C28.809 50.5957 27.6724 50.1456 27.6724 50.1456L27.5361 45.4475C26.8694 45.5511 26.3035 45.9614 25.9946 46.5627L24.5332 49.3762C24.451 49.5992 21.9378 50.1184 21.8215 50.2226C21.7051 50.3268 22.0079 50.9665 22.2006 51.0397C22.3933 51.1129 22.7992 50.9885 22.7242 51.1312C22.6492 51.274 21.2727 53.0938 21.2165 53.4861C21.1603 53.8783 21.2605 54.4451 21.4717 54.4776C21.6834 54.5202 25.5654 52.8118 25.7856 52.814C26.0055 52.8062 26.0236 53.0357 26.0236 53.0357C26.0236 53.0357 27.7885 52.0127 28.4702 52.0486C29.1523 52.0945 29.7393 52.2838 29.9545 52.4263C30.1697 52.5688 30.9371 52.4816 31.2155 52.4317C31.4939 52.3818 32.9223 52.3113 33.1664 52.4227C33.4101 52.5241 37.2399 54.4299 37.9865 54.6036C38.7331 54.7773 47.2183 54.2068 50.0211 53.1069C52.8243 52.0171 54.3701 49.8911 54.4709 49.3472C54.5717 48.8033 54.3637 48.5805 54.0673 48.1207L54.0573 48.121Z" fill="url(#paint28_linear_26835_29179)"/>
<path d="M45.3962 52.1998L43.8444 51.8945C43.8444 51.8945 44.6252 53.3178 38.1675 54.627L39.5977 54.6064C40.7766 54.5547 42.4331 54.426 44.1174 54.2363C44.584 53.8496 45.2695 53.1449 45.3862 52.2002L45.3962 52.1998Z" fill="#FFEBB8"/>
<path opacity="0.8" d="M28.4254 50.4989C28.4254 50.4989 28.1296 51.1898 26.9374 51.7123C25.7551 52.2345 24.8591 52.6464 24.8591 52.6464C24.8591 52.6464 25.9237 51.9083 26.2896 51.5051C26.6556 51.1019 26.7928 50.7368 26.7928 50.7368L26.8607 50.3942L28.4254 50.4989Z" fill="#FFCA9C"/>
<path opacity="0.8" d="M26.2657 50.5456C26.2657 50.5456 26.0692 51.213 25.5636 51.6312C25.0581 52.0493 23.6344 53.1003 22.9169 53.4659C22.9169 53.4659 23.7445 52.5361 24.2804 51.8467C24.8164 51.1573 25.13 50.4057 25.13 50.4057L25.9541 50.5066L26.2757 50.5453L26.2657 50.5456Z" fill="#FFCA9C"/>
<path d="M12.3376 54.2406C12.3376 54.2406 12.0423 54.6613 12.069 55.1307C12.0956 55.6 12.1333 56.099 12.2546 56.1347C12.3759 56.1705 12.6258 56.1616 12.7278 56.2181C12.8299 56.2745 14.6159 56.4114 14.6159 56.4114L13.6912 53.7524L12.3476 54.2403L12.3376 54.2406Z" fill="#141F21"/>
<path d="M18.5422 57.6531L18.0793 56.4487L17.4559 56.0806L14.7426 55.186C14.5588 55.0824 14.3875 55.0485 14.229 55.0941C13.5258 55.2991 13.4178 57.054 13.9872 59.0051C14.5569 60.9662 15.5876 62.3806 16.3008 62.1752C16.3008 62.1752 16.3208 62.1745 16.3308 62.1742C16.3707 62.1728 16.4107 62.1714 16.4307 62.1706C16.6588 62.1125 18.5503 61.5553 18.5503 61.5553C18.5503 61.5553 18.9944 61.0993 19.0978 60.3452C19.2012 59.591 18.5526 57.6628 18.5526 57.6628L18.5422 57.6531Z" fill="#141F21"/>
<path d="M16.0769 61.6957C16.5965 61.5441 16.6302 60.0931 16.1521 58.4549C15.6741 56.8166 14.8654 55.6115 14.3458 55.7631C13.8262 55.9147 13.7926 57.3657 14.2706 59.0039C14.7486 60.6421 15.5573 61.8473 16.0769 61.6957Z" fill="url(#paint29_linear_26835_29179)"/>
<path d="M15.7642 61.0251C16.1035 60.9261 16.0826 59.8315 15.7175 58.5803C15.3524 57.3291 14.7813 56.3951 14.442 56.4941C14.1027 56.5931 14.1236 57.6876 14.4887 58.9389C14.8538 60.1901 15.4249 61.1241 15.7642 61.0251Z" fill="#141F21"/>
<path d="M18.8863 58.8917C18.7026 58.5079 17.455 55.7703 17.455 55.7703C17.455 55.7703 17.5118 55.3981 17.4473 55.2703C17.3927 55.1421 17.6176 54.9941 17.4486 54.4597C17.27 53.9357 16.8416 53.1404 16.4929 52.9026C16.1443 52.6648 15.9812 52.5805 15.9812 52.5805C15.9812 52.5805 21.126 50.9275 21.4961 50.9244C21.8762 50.9209 21.9725 51.0976 21.9725 51.0976L22.1803 51.0302C21.9875 50.957 21.6847 50.3173 21.8011 50.2131C21.9175 50.1089 24.4311 49.5997 24.5129 49.3667L24.6811 49.0305L24.66 49.0012C24.66 49.0012 18.5302 50.8092 16.9342 51.5161C15.3378 52.213 14.7998 52.5622 14.7998 52.5622L14.9308 52.5876C14.9308 52.5876 15.6374 52.7627 16.0895 53.3771C16.5415 53.9915 17.1728 55.1499 17.2381 55.2977C17.3034 55.4455 17.2526 55.7075 17.2526 55.7075C17.2526 55.7075 16.5111 53.9826 15.9934 53.4906C15.4757 52.9986 14.7566 52.7539 14.7566 52.7539C14.7566 52.7539 12.8883 53.4004 12.5512 53.7725C12.2142 54.1447 12.3073 54.2315 12.3073 54.2315C12.3073 54.2315 12.6993 53.9974 12.999 54.267C13.2987 54.5366 14.0529 55.4905 14.248 55.9139C14.4431 56.3372 14.705 56.6682 15.2853 56.6676C15.8657 56.6671 17.0157 56.6464 17.2962 56.6565C17.5767 56.6666 17.7684 56.7098 17.9207 57.0547C18.0726 57.3895 18.8041 59.1147 18.99 59.2782C19.1759 59.4418 19.5007 59.5704 19.5007 59.5704C19.5007 59.5704 19.04 59.2765 18.8563 58.8927L18.8863 58.8917Z" fill="url(#paint30_linear_26835_29179)"/>
<path d="M26.4837 59.8135C26.4837 59.8135 23.3312 60.3654 22.793 60.4245C22.2547 60.4836 21.6167 59.9858 21.3491 59.7751C21.0815 59.5645 19.8005 59.5598 19.6171 59.4662C19.4337 59.3726 19.0099 58.427 18.6923 57.3676C18.3742 56.2982 16.8688 52.7792 16.8553 52.6797L20.3374 51.5458C20.664 51.4442 20.8139 51.4389 20.826 51.4985C20.8381 51.5581 20.635 51.7554 20.8944 52.0164C21.1534 52.2674 21.7388 52.1266 21.8487 52.1227C21.9587 52.1188 21.9718 52.2084 21.9718 52.2084L23.3496 50.9889L22.4124 50.5217L15.5206 52.2866L18.7092 59.2582C18.7092 59.2582 19.0366 60.0271 19.1193 60.1042C19.2021 60.1813 19.3092 60.0975 19.3092 60.0975C19.565 60.5387 19.9394 60.6556 20.4201 60.6686C20.9005 60.6716 21.6568 60.8349 22.346 60.8005C23.0352 60.7661 26.5932 60.0798 26.5932 60.0798L26.4837 59.8135Z" fill="#141F21"/>
<path d="M19.0155 58.8672L23.3191 56.9138L23.5744 57.6252L19.3069 59.4673L19.0155 58.8672Z" fill="#141F21"/>
<path d="M38.3889 60.8833C38.259 60.8879 38.1369 60.8322 38.0631 60.7248C37.5658 59.9619 35.5659 56.8907 34.7189 55.86C34.3711 55.362 33.974 54.8857 33.5183 54.4516C29.5104 51.4715 28.0823 51.8322 28.0823 51.8322C28.0823 51.8322 26.6445 52.2033 25.9191 52.6293C25.0467 53.1404 24.7431 54.7422 25.0738 56.4515C25.4045 58.1609 26.3886 59.9572 26.3886 59.9572C26.3886 59.9572 26.1969 59.0635 25.7121 57.2395C25.2501 55.4947 25.6431 54.16 26.1386 53.7422C26.6342 53.3244 27.1595 53.4659 28.2514 54.3478C29.3433 55.2298 30.4194 57.363 30.5825 57.4473C30.7456 57.5316 32.4089 57.0325 33.126 56.937C33.4248 56.8964 33.7638 56.8644 34.094 56.8627L35.1271 57.4966L37.4441 61.0469C37.6346 61.3403 37.9904 61.4978 38.3388 61.4455C40.5178 61.0982 48.2944 59.7322 52.2925 57.6295C52.2925 57.6295 45.0187 60.4786 38.3786 60.8737L38.3889 60.8833Z" fill="url(#paint31_linear_26835_29179)"/>
<path d="M37.18 59.8055L36.5168 58.8784C36.7508 59.2704 36.962 59.5831 37.18 59.8055Z" fill="#79A868"/>
<path d="M41.6381 48.0801C41.6381 48.0801 44.355 49.9251 44.5203 52.0506L45.4026 52.0994C45.4026 52.0994 49.3582 51.339 47.1476 49.6662L42.8558 48.2771L41.6381 48.0801Z" fill="#FFEBB8"/>
<path d="M42.8658 48.2768C42.8658 48.2768 47.9671 49.9174 48.6665 50.1728C49.6097 50.5297 50.1108 50.8321 49.9158 50.9791C49.7209 51.1261 46.023 52.0975 45.2792 52.0038C44.5354 51.91 34.0425 49.4696 34.0425 49.4696L33.1845 49.54C33.1845 49.54 44.7712 52.3519 45.1417 52.3588C45.7537 52.4072 50.086 51.2633 50.2702 51.0966C50.4544 50.93 50.3778 50.7426 49.3425 50.329C48.0838 49.8232 43.8851 48.5209 43.0057 48.2718L42.8658 48.2768Z" fill="#141F21"/>
<path d="M18.1783 56.1351L21.9659 55.1505L22.5106 56.1219L18.3387 56.7098L18.1783 56.1351Z" fill="#141F21"/>
<path d="M20.3373 56.0687L18.6339 57.9802L18.9331 58.8001L21.4553 55.7089L20.3373 56.0687Z" fill="#141F21"/>
<path d="M53.1808 52.1947C53.4583 51.8347 55.1861 49.7623 56.0605 49.8714C58.0602 50.1108 55.2958 55.9723 53.6777 55.4892C53.0203 55.2923 52.8652 52.6061 53.1808 52.1947Z" fill="white"/>
<path d="M55.1126 50.7955C55.2168 50.6317 55.884 50.2579 56.2016 50.4668C56.5192 50.6757 56.0811 52.1521 55.8775 52.6196C55.8775 52.6196 54.3155 52.0245 55.1225 50.7952L55.1126 50.7955Z" fill="url(#paint32_linear_26835_29179)"/>
<path d="M28.0932 51.2913C28.0504 51.2127 28.0076 51.1342 27.9862 51.0949L27.9962 51.0946L27.2799 49.7991L25.3403 50.4081C25.0236 50.5093 24.8454 50.8459 24.937 51.1728L24.9595 51.2421C25.0508 51.559 25.3773 51.7376 25.6946 51.6563L27.5989 51.1787C27.6624 51.2765 27.7163 51.3847 27.738 51.4339C27.7926 51.5621 27.9229 51.5675 28.0007 51.5047C28.0789 51.4519 28.1364 51.3798 28.0825 51.2716L28.0932 51.2913Z" fill="#141F21"/>
<path d="M29.8205 63.8266C30.6175 63.5629 30.6139 61.3854 29.8124 58.963C29.011 56.5406 27.7151 54.7906 26.9182 55.0543C26.1212 55.318 26.1248 57.4955 26.9263 59.9179C27.7278 62.3403 29.0236 64.0903 29.8205 63.8266Z" fill="url(#paint33_linear_26835_29179)"/>
<path d="M29.0371 62.487C29.5404 62.3205 29.5125 60.8678 28.9747 59.2424C28.4369 57.6169 27.5929 56.4343 27.0896 56.6008C26.5862 56.7673 26.6141 58.22 27.1519 59.8454C27.6897 61.4709 28.5337 62.6535 29.0371 62.487Z" fill="#141F21"/>
<path d="M28.7369 60.5512C28.9414 60.4836 28.9426 59.9314 28.7396 59.3179C28.5367 58.7045 28.2063 58.262 28.0019 58.3296C27.7974 58.3973 27.7961 58.9495 27.9991 59.5629C28.2021 60.1764 28.5324 60.6189 28.7369 60.5512Z" fill="white"/>
<path d="M15.564 59.2267C15.6753 59.1943 15.6878 58.9015 15.5919 58.5727C15.496 58.244 15.328 58.0039 15.2167 58.0364C15.1053 58.0689 15.0928 58.3617 15.1887 58.6904C15.2847 59.0191 15.4527 59.2592 15.564 59.2267Z" fill="white"/>
<path d="M50.1125 57.5735C50.1215 57.5023 49.9468 57.4213 49.7222 57.3926C49.4976 57.364 49.3081 57.3985 49.2991 57.4697C49.29 57.5409 49.4647 57.6219 49.6893 57.6505C49.9139 57.6792 50.1034 57.6447 50.1125 57.5735Z" fill="#F0F4BE"/>
<path d="M54.2413 59.036C54.2455 59.0031 54.1645 58.9657 54.0604 58.9524C53.9563 58.9391 53.8685 58.955 53.8643 58.9878C53.8602 59.0207 53.9411 59.0581 54.0452 59.0714C54.1493 59.0847 54.2371 59.0688 54.2413 59.036Z" fill="#F0F4BE"/>
<path d="M56.4632 58.4177C56.4674 58.3848 56.3909 58.348 56.2923 58.3354C56.1936 58.3228 56.1103 58.3393 56.1061 58.3721C56.1019 58.405 56.1785 58.4418 56.2771 58.4544C56.3757 58.467 56.459 58.4506 56.4632 58.4177Z" fill="#F0F4BE"/>
<path d="M59.3524 51.9411C59.3566 51.9083 59.2801 51.8714 59.1815 51.8588C59.0829 51.8462 58.9995 51.8627 58.9953 51.8956C58.9911 51.9284 59.0677 51.9653 59.1663 51.9779C59.2649 51.9905 59.3482 51.974 59.3524 51.9411Z" fill="#F0F4BE"/>
<path d="M59 0H4C1.79 0 0 1.79 0 4V84C0 86.21 1.79 88 4 88H59C61.21 88 63 86.21 63 84V4C63 1.79 61.21 0 59 0ZM61 82.81C61 84.57 59.57 86 57.81 86H5.19C3.43 86 2 84.57 2 82.81V16.9C2 8.67 8.67 2 16.9 2H57.81C59.57 2 61 3.43 61 5.19V82.81Z" fill="url(#paint34_linear_26835_29179)"/>
<path d="M3.84998 1.3501C2.77998 1.3501 1.34998 3.4401 1.34998 4.5001L1.91998 18.1901C1.91998 16.4301 3.34998 15.0001 5.10998 15.0001H33.51C34.72 15.0001 35.86 14.4501 36.62 13.5101L44.72 3.4801C45.48 2.5401 46.62 1.9901 47.83 1.9901L3.84998 1.3501Z" fill="url(#paint35_linear_26835_29179)"/>
<mask id="mask1_26835_29179" style="mask-type:luminance" maskUnits="userSpaceOnUse" x="0" y="0" width="63" height="88">
<path d="M59 0H4C1.79 0 0 1.79 0 4V84C0 86.21 1.79 88 4 88H59C61.21 88 63 86.21 63 84V4C63 1.79 61.21 0 59 0ZM61 82.81C61 84.57 59.57 86 57.81 86H5.19C3.43 86 2 84.57 2 82.81V18.19C2 16.43 3.43 15 5.19 15H33.59C34.8 15 35.94 14.45 36.7 13.51L44.8 3.48C45.56 2.54 46.7 1.99 47.91 1.99H57.81C59.57 1.99 61 3.42 61 5.18V82.8V82.81Z" fill="white"/>
</mask>
<g mask="url(#mask1_26835_29179)">
<path d="M68.37 47.3201V26.6401L4.46002 90.5501H25.13L68.37 47.3201Z" fill="white"/>
<path d="M64.66 -2.29004H55.22L-2.91998 55.84V66.18L65.46 -2.20004C65.2 -2.26004 64.93 -2.29004 64.66 -2.29004Z" fill="white"/>
<path d="M68.37 69.2298V61.5498L39.37 90.5498H47.05L68.37 69.2298Z" fill="white"/>
</g>
</g>
<path fill-rule="evenodd" clip-rule="evenodd" d="M6.49771 79C6.98969 79 7.48602 79.213 7.49037 79.6913C7.49037 80.1043 7.24656 80.2696 6.99839 80.2696C6.75023 80.2696 6.73281 80.1435 6.73281 80.1435C6.73281 80.1435 7.02452 79.9261 7.02452 79.7174C7.02452 79.6087 6.94179 79.313 6.489 79.3174C5.8577 79.3174 5.5181 79.6174 5.5181 80.1522C5.5181 80.7652 7.35105 80.9739 7.3554 81.7652C7.3554 82.613 6.47594 82.9957 5.69225 83C5.283 83 5.01306 82.7609 5.00871 82.3783C5.00871 81.9261 5.22204 81.4652 5.75756 81.4652C5.88382 81.4565 5.98831 81.5522 5.99702 81.6783C5.99702 81.6783 5.99702 81.6826 5.99702 81.687C5.99702 81.687 5.45715 81.8391 5.4615 82.3783C5.4615 82.4783 5.56599 82.6609 5.81851 82.6565C6.07103 82.6522 6.82424 82.4739 6.81989 81.8087C6.81989 81.1913 5.00435 81.1087 5 80.1478C5 79.0652 6.08845 79.0087 6.49771 79.0087V79ZM10.747 79.6C10.8123 79.5696 11.2129 79.4913 11.1955 79.813C11.1824 80.1348 10.9386 80.6913 10.9037 80.9348C11.2303 80.7696 11.6918 80.2087 11.6918 80.2087C11.6918 80.2087 12.0183 80.2522 11.9182 80.4522C11.818 80.6522 11.1519 81.1435 11.1519 81.1435C11.1519 81.1435 11.3043 82.5696 12.1707 82.5696C12.6453 82.5696 12.8499 82.3609 12.937 82.287C12.9587 82.2696 12.9762 82.2652 12.9849 82.2783C13.0197 82.387 12.9936 82.5043 12.9152 82.5913C12.8194 82.6957 12.5974 82.8217 12.1533 82.8261C11.3653 82.8261 10.9255 82.1957 10.8123 81.2609C10.7252 81.5348 10.7339 81.9826 10.7209 82.2C10.6948 82.2435 10.2507 82.4174 10.2158 82.1174C10.2158 82.0913 10.2158 82.0696 10.2158 82.0435C10.1331 82.1609 10.0199 82.2826 9.91108 82.2826C9.71951 82.2826 9.63679 82.1217 9.60196 82.0391C9.57584 82.0696 9.3625 82.287 9.08821 82.287C8.92277 82.2913 8.77474 82.1957 8.70943 82.0435C8.57011 82.1435 8.32195 82.2913 8.03895 82.2913C7.73418 82.2913 7.66017 82.1087 7.66017 81.9565C7.66017 81.713 7.84303 80.987 7.84303 80.987C7.84303 80.987 7.48602 81.1304 7.36411 81.1348C7.19431 81.1348 7.11159 80.8217 7.11159 80.813C7.11159 80.8087 7.11159 80.8 7.1203 80.8C7.22044 80.7609 7.94317 80.513 7.94317 80.513C7.94317 80.513 8.07813 79.9826 8.09555 79.913C8.11296 79.8435 8.2131 79.7 8.33065 79.6565C8.41773 79.6217 8.50916 79.6 8.60059 79.5913C8.63107 79.5913 8.65284 79.6 8.65284 79.6174C8.65284 79.6348 8.47433 80.4087 8.47433 80.4087C8.47433 80.4087 8.84876 80.3217 8.98808 80.3217C9.09692 80.3217 9.15352 80.387 9.09257 80.4696C9.03162 80.5522 8.96196 80.6478 8.92712 80.6913C8.88794 80.7348 8.86182 80.7435 8.77039 80.7609C8.64413 80.787 8.36113 80.8565 8.36113 80.8565C8.36113 80.8565 8.13473 81.6783 8.13909 81.8174C8.13909 81.8957 8.16521 81.987 8.26099 81.987C8.35678 81.987 8.53964 81.8739 8.67025 81.7913C8.69202 81.1522 9.18835 80.7261 9.57584 80.7261C9.7021 80.7261 9.65421 80.8478 9.79788 80.8478H9.88931C9.94591 80.8478 10.0069 80.8522 10.0069 80.9957C10.0069 81.1957 9.89367 81.5261 9.89367 81.7348C9.89367 81.8826 9.91544 81.987 9.97204 81.987C10.0678 81.987 10.1767 81.8478 10.255 81.7261C10.3813 81.0304 10.734 79.7609 10.734 79.6174L10.747 79.6ZM12.5016 80.7C12.7672 80.6783 12.9326 80.8217 12.9631 80.9C12.9936 80.9783 12.9892 81.1609 12.9152 81.2913C12.6845 81.7044 12.1097 81.6304 12.1097 81.6304C12.1097 81.6304 12.0444 81.9565 12.3405 81.9565C12.593 81.9565 12.7062 81.8304 12.8151 81.7261C12.8586 81.7261 12.9936 81.8652 12.9326 81.9609C12.8847 82.0348 12.6191 82.2565 12.2795 82.2609C11.7397 82.2609 11.6047 81.8 11.6744 81.4696C11.7658 81.0609 12.1751 80.7217 12.5016 80.6957V80.7ZM9.6455 80.987C9.32332 80.987 8.82699 81.9696 9.20577 81.9652C9.61938 81.9652 9.6455 81.1826 9.6455 81.0043V80.987ZM12.6409 80.8913C12.4232 80.9 12.1751 81.3174 12.1533 81.5C12.4798 81.513 12.654 81.1957 12.6757 81.0696C12.6888 80.9739 12.6932 80.887 12.6409 80.887V80.8913Z" fill="white"/>
<path d="M46.1444 79.3778L46.6412 80.278L47.6518 80.4733C47.7792 80.4988 47.8302 80.6559 47.741 80.7494L47.0361 81.5009L47.1635 82.5243C47.1805 82.6559 47.0446 82.7494 46.93 82.6942L46 82.2568L45.0701 82.6942C44.9512 82.7494 44.8196 82.6517 44.8366 82.5243L44.9639 81.5009L44.2591 80.7494C44.1699 80.6559 44.2208 80.4988 44.3482 80.4733L45.3588 80.278L45.8557 79.3778C45.9194 79.2632 46.085 79.2632 46.1444 79.3778Z" fill="#FFC200"/>
<path d="M46 79.2929C46.0552 79.2929 46.1147 79.3226 46.1444 79.3778L46.6412 80.278L47.6518 80.4733C47.7792 80.4988 47.8302 80.6559 47.741 80.7494L47.0361 81.5009L47.1635 82.5243C47.1763 82.6262 47.0955 82.7111 46.9979 82.7111C46.9766 82.7111 46.9512 82.7069 46.9257 82.6942L45.9957 82.2568L45.0658 82.6942C45.0403 82.7069 45.0191 82.7111 44.9936 82.7111C44.9002 82.7111 44.8153 82.6262 44.828 82.5243L44.9554 81.5009L44.2505 80.7494C44.1613 80.6559 44.2123 80.4988 44.3397 80.4733L45.3503 80.278L45.8471 79.3778C45.8768 79.3226 45.9363 79.2929 45.9915 79.2929M46 79.0806C45.8641 79.0806 45.7367 79.157 45.6688 79.2759L45.2187 80.0912L44.3057 80.2653C44.1698 80.2908 44.0594 80.3884 44.017 80.5201C43.9745 80.6517 44.0085 80.7961 44.1019 80.8937L44.7388 81.5731L44.6242 82.4946C44.6115 82.6007 44.6454 82.7111 44.7134 82.7918C44.7856 82.8725 44.8875 82.9192 44.9979 82.9192C45.0531 82.9192 45.1083 82.9065 45.1592 82.881L46 82.4861L46.8408 82.881C46.8917 82.9065 46.9469 82.9192 47.0021 82.9192C47.1125 82.9192 47.2144 82.8725 47.2866 82.7918C47.3588 82.7111 47.3928 82.6007 47.3758 82.4946L47.2611 81.5731L47.8981 80.8937C47.9915 80.7918 48.0255 80.6474 47.983 80.5201C47.9405 80.3884 47.8301 80.2908 47.6943 80.2653L46.7813 80.0912L46.3312 79.2759C46.2633 79.157 46.1359 79.0806 46 79.0806Z" fill="#213743"/>
<path d="M46 79.8152V80.9744C46 81.0678 46.0892 81.1315 46.1784 81.106L47.2187 80.7706C47.2739 80.7536 47.2697 80.6729 47.2102 80.6602L46.5563 80.5413C46.4969 80.5286 46.4417 80.4903 46.4119 80.4351L46.085 79.7939C46.0637 79.7515 45.9958 79.7642 45.9958 79.8152H46Z" fill="#FFEBB8"/>
<path d="M46 81.4924V82.0699C46 82.1039 46.017 82.1294 46.0467 82.1464L46.7983 82.5073C46.8365 82.5243 46.8705 82.4818 46.845 82.4479L46.0934 81.4627C46.0637 81.4245 46 81.4457 46 81.4924Z" fill="#FF7F00"/>
<path d="M51.1444 79.3778L51.6412 80.278L52.6518 80.4733C52.7792 80.4988 52.8302 80.6559 52.741 80.7494L52.0361 81.5009L52.1635 82.5243C52.1805 82.6559 52.0446 82.7494 51.93 82.6942L51 82.2568L50.0701 82.6942C49.9512 82.7494 49.8196 82.6517 49.8366 82.5243L49.9639 81.5009L49.2591 80.7494C49.1699 80.6559 49.2208 80.4988 49.3482 80.4733L50.3588 80.278L50.8557 79.3778C50.9194 79.2632 51.085 79.2632 51.1444 79.3778Z" fill="#FFC200"/>
<path d="M51 79.2929C51.0552 79.2929 51.1147 79.3226 51.1444 79.3778L51.6412 80.278L52.6518 80.4733C52.7792 80.4988 52.8302 80.6559 52.741 80.7494L52.0361 81.5009L52.1635 82.5243C52.1763 82.6262 52.0955 82.7111 51.9979 82.7111C51.9766 82.7111 51.9512 82.7069 51.9257 82.6942L50.9957 82.2568L50.0658 82.6942C50.0403 82.7069 50.0191 82.7111 49.9936 82.7111C49.9002 82.7111 49.8153 82.6262 49.828 82.5243L49.9554 81.5009L49.2505 80.7494C49.1613 80.6559 49.2123 80.4988 49.3397 80.4733L50.3503 80.278L50.8471 79.3778C50.8768 79.3226 50.9363 79.2929 50.9915 79.2929M51 79.0806C50.8641 79.0806 50.7367 79.157 50.6688 79.2759L50.2187 80.0912L49.3057 80.2653C49.1698 80.2908 49.0594 80.3884 49.017 80.5201C48.9745 80.6517 49.0085 80.7961 49.1019 80.8937L49.7388 81.5731L49.6242 82.4946C49.6115 82.6007 49.6454 82.7111 49.7134 82.7918C49.7856 82.8725 49.8875 82.9192 49.9979 82.9192C50.0531 82.9192 50.1083 82.9065 50.1592 82.881L51 82.4861L51.8408 82.881C51.8917 82.9065 51.9469 82.9192 52.0021 82.9192C52.1125 82.9192 52.2144 82.8725 52.2866 82.7918C52.3588 82.7111 52.3928 82.6007 52.3758 82.4946L52.2611 81.5731L52.8981 80.8937C52.9915 80.7918 53.0255 80.6474 52.983 80.5201C52.9405 80.3884 52.8301 80.2908 52.6943 80.2653L51.7813 80.0912L51.3312 79.2759C51.2633 79.157 51.1359 79.0806 51 79.0806Z" fill="#213743"/>
<path d="M51 79.8152V80.9744C51 81.0678 51.0892 81.1315 51.1784 81.106L52.2187 80.7706C52.2739 80.7536 52.2697 80.6729 52.2102 80.6602L51.5563 80.5413C51.4969 80.5286 51.4417 80.4903 51.4119 80.4351L51.085 79.7939C51.0637 79.7515 50.9958 79.7642 50.9958 79.8152H51Z" fill="#FFEBB8"/>
<path d="M51 81.4924V82.0699C51 82.1039 51.017 82.1294 51.0467 82.1464L51.7983 82.5073C51.8365 82.5243 51.8705 82.4818 51.845 82.4479L51.0934 81.4627C51.0637 81.4245 51 81.4457 51 81.4924Z" fill="#FF7F00"/>
<path d="M56.1444 79.3778L56.6412 80.278L57.6518 80.4733C57.7792 80.4988 57.8302 80.6559 57.741 80.7494L57.0361 81.5009L57.1635 82.5243C57.1805 82.6559 57.0446 82.7494 56.93 82.6942L56 82.2568L55.0701 82.6942C54.9512 82.7494 54.8196 82.6517 54.8366 82.5243L54.9639 81.5009L54.2591 80.7494C54.1699 80.6559 54.2208 80.4988 54.3482 80.4733L55.3588 80.278L55.8557 79.3778C55.9194 79.2632 56.085 79.2632 56.1444 79.3778Z" fill="#FFC200"/>
<path d="M56 79.2929C56.0552 79.2929 56.1147 79.3226 56.1444 79.3778L56.6412 80.278L57.6518 80.4733C57.7792 80.4988 57.8302 80.6559 57.741 80.7494L57.0361 81.5009L57.1635 82.5243C57.1763 82.6262 57.0955 82.7111 56.9979 82.7111C56.9766 82.7111 56.9512 82.7069 56.9257 82.6942L55.9957 82.2568L55.0658 82.6942C55.0403 82.7069 55.0191 82.7111 54.9936 82.7111C54.9002 82.7111 54.8153 82.6262 54.828 82.5243L54.9554 81.5009L54.2505 80.7494C54.1613 80.6559 54.2123 80.4988 54.3397 80.4733L55.3503 80.278L55.8471 79.3778C55.8768 79.3226 55.9363 79.2929 55.9915 79.2929M56 79.0806C55.8641 79.0806 55.7367 79.157 55.6688 79.2759L55.2187 80.0912L54.3057 80.2653C54.1698 80.2908 54.0594 80.3884 54.017 80.5201C53.9745 80.6517 54.0085 80.7961 54.1019 80.8937L54.7388 81.5731L54.6242 82.4946C54.6115 82.6007 54.6454 82.7111 54.7134 82.7918C54.7856 82.8725 54.8875 82.9192 54.9979 82.9192C55.0531 82.9192 55.1083 82.9065 55.1592 82.881L56 82.4861L56.8408 82.881C56.8917 82.9065 56.9469 82.9192 57.0021 82.9192C57.1125 82.9192 57.2144 82.8725 57.2866 82.7918C57.3588 82.7111 57.3928 82.6007 57.3758 82.4946L57.2611 81.5731L57.8981 80.8937C57.9915 80.7918 58.0255 80.6474 57.983 80.5201C57.9405 80.3884 57.8301 80.2908 57.6943 80.2653L56.7813 80.0912L56.3312 79.2759C56.2633 79.157 56.1359 79.0806 56 79.0806Z" fill="#213743"/>
<path d="M56 79.8152V80.9744C56 81.0678 56.0892 81.1315 56.1784 81.106L57.2187 80.7706C57.2739 80.7536 57.2697 80.6729 57.2102 80.6602L56.5563 80.5413C56.4969 80.5286 56.4417 80.4903 56.4119 80.4351L56.085 79.7939C56.0637 79.7515 55.9958 79.7642 55.9958 79.8152H56Z" fill="#FFEBB8"/>
<path d="M56 81.4924V82.0699C56 82.1039 56.017 82.1294 56.0467 82.1464L56.7983 82.5073C56.8365 82.5243 56.8705 82.4818 56.845 82.4479L56.0934 81.4627C56.0637 81.4245 56 81.4457 56 81.4924Z" fill="#FF7F00"/>
<rect x="13" y="62" width="37" height="13" rx="6.5" fill="#2F4553"/>
<path d="M29.1086 70H27.9746L29.3306 66.898H27.3806V65.998H30.5186V66.712L29.1086 70ZM32.586 70.072C31.878 70.072 31.344 69.856 30.972 69.49L31.536 68.77C31.812 69.022 32.19 69.16 32.574 69.16C33.012 69.16 33.228 68.944 33.228 68.698C33.228 68.428 33.018 68.236 32.604 68.236C32.286 68.236 32.034 68.326 31.812 68.536L31.098 68.362V65.998H34.002V66.898H32.13V67.672C32.322 67.486 32.634 67.354 32.988 67.354C33.666 67.354 34.278 67.852 34.278 68.656C34.278 69.52 33.624 70.072 32.586 70.072ZM37.6631 70H36.6491L36.0911 69.124L35.5271 70H34.5191L35.5091 68.512L34.5791 67.102H35.5931L36.0911 67.888L36.5831 67.102H37.5971L36.6731 68.512L37.6631 70Z" fill="white"/>
<path d="M7.69 11H5.33V7.665H7.69V8.29H6.04V8.995H7.655V9.62H6.04V10.375H7.69V11ZM9.61004 11.06C9.32504 11.06 9.06004 10.94 8.86504 10.69V11.92H8.23004V8.585H8.86504V8.89C9.05004 8.655 9.31504 8.525 9.61004 8.525C10.23 8.525 10.68 8.985 10.68 9.79C10.68 10.595 10.23 11.06 9.61004 11.06ZM9.41004 10.495C9.77504 10.495 10.02 10.21 10.02 9.79C10.02 9.375 9.77504 9.09 9.41004 9.09C9.20504 9.09 8.97004 9.21 8.86504 9.365V10.22C8.97004 10.37 9.20504 10.495 9.41004 10.495ZM11.4601 8.325C11.2551 8.325 11.0801 8.155 11.0801 7.945C11.0801 7.735 11.2551 7.57 11.4601 7.57C11.6701 7.57 11.8401 7.735 11.8401 7.945C11.8401 8.155 11.6701 8.325 11.4601 8.325ZM11.7801 11H11.1451V8.585H11.7801V11ZM13.5347 11.06C12.7897 11.06 12.2547 10.535 12.2547 9.79C12.2547 9.05 12.7897 8.525 13.5347 8.525C14.0297 8.525 14.3297 8.74 14.4897 8.96L14.0747 9.35C13.9597 9.18 13.7847 9.09 13.5647 9.09C13.1797 9.09 12.9097 9.37 12.9097 9.79C12.9097 10.21 13.1797 10.495 13.5647 10.495C13.7847 10.495 13.9597 10.395 14.0747 10.235L14.4897 10.62C14.3297 10.845 14.0297 11.06 13.5347 11.06Z" fill="#05080A"/>
<path d="M49.514 11H49.062L47.67 9.096V11H47.202V8.332H47.682L49.046 10.184V8.332H49.514V11ZM50.9409 11.048C50.3289 11.048 49.9489 10.588 49.9489 10.032C49.9489 9.48 50.3289 9.02 50.9409 9.02C51.5609 9.02 51.9369 9.48 51.9369 10.032C51.9369 10.588 51.5609 11.048 50.9409 11.048ZM50.9409 10.676C51.3009 10.676 51.5009 10.376 51.5009 10.032C51.5009 9.692 51.3009 9.392 50.9409 9.392C50.5849 9.392 50.3849 9.692 50.3849 10.032C50.3849 10.376 50.5849 10.676 50.9409 10.676ZM52.5583 11.044C52.4063 11.044 52.2783 10.916 52.2783 10.764C52.2783 10.612 52.4063 10.484 52.5583 10.484C52.7103 10.484 52.8383 10.612 52.8383 10.764C52.8383 10.916 52.7103 11.044 52.5583 11.044ZM55.3141 11H54.8461V8.94L54.4101 9.392L54.1381 9.108L54.9061 8.332H55.3141V11ZM56.8617 11.048C56.0777 11.048 55.7617 10.412 55.7617 9.672C55.7617 8.9 56.1657 8.292 56.9377 8.292C57.2697 8.292 57.5257 8.412 57.7057 8.588L57.4857 8.944C57.3457 8.796 57.1937 8.708 56.9377 8.708C56.4937 8.708 56.2337 9.12 56.2337 9.588C56.2337 9.616 56.2337 9.64 56.2377 9.664C56.3577 9.484 56.6377 9.292 56.9537 9.292C57.4337 9.292 57.8457 9.584 57.8457 10.152C57.8457 10.648 57.4577 11.048 56.8617 11.048ZM56.8377 10.632C57.1897 10.632 57.3737 10.384 57.3737 10.168C57.3737 9.84 57.1177 9.692 56.8257 9.692C56.5977 9.692 56.3777 9.816 56.2417 10.008C56.2697 10.296 56.4257 10.632 56.8377 10.632Z" fill="white"/>
<defs>
<linearGradient id="paint0_linear_26835_29179" x1="37.8344" y1="86.256" x2="23.263" y2="1.76" gradientUnits="userSpaceOnUse">
<stop stop-color="#55EEFF"/>
<stop offset="0.09" stop-color="#6CABFF"/>
<stop offset="0.23" stop-color="#8C4FFF"/>
<stop offset="0.32" stop-color="#A016FF"/>
<stop offset="0.37" stop-color="#A800FF"/>
<stop offset="0.44" stop-color="#C043D4"/>
<stop offset="0.51" stop-color="#D680AF"/>
<stop offset="0.58" stop-color="#E8B091"/>
<stop offset="0.64" stop-color="#F4D27B"/>
<stop offset="0.69" stop-color="#FCE76E"/>
<stop offset="0.72" stop-color="#FFEF6A"/>
<stop offset="0.81" stop-color="#BCF589"/>
<stop offset="0.9" stop-color="#84FAA3"/>
<stop offset="0.97" stop-color="#62FDB3"/>
<stop offset="1" stop-color="#55FFBA"/>
</linearGradient>
<linearGradient id="paint1_linear_26835_29179" x1="31.42" y1="2.35004" x2="31.42" y2="53.44" gradientUnits="userSpaceOnUse">
<stop stop-color="#FF5454"/>
<stop offset="1" stop-color="#FF9C45"/>
</linearGradient>
<linearGradient id="paint2_linear_26835_29179" x1="12.71" y1="29.5502" x2="28.81" y2="50.7502" gradientUnits="userSpaceOnUse">
<stop stop-color="#9A7B4D"/>
<stop offset="1" stop-color="#93B45C"/>
</linearGradient>
<linearGradient id="paint3_linear_26835_29179" x1="27.03" y1="56.16" x2="-1.39999" y2="49.83" gradientUnits="userSpaceOnUse">
<stop stop-color="#A0B47E"/>
<stop offset="1" stop-color="#34513C" stop-opacity="0"/>
</linearGradient>
<linearGradient id="paint4_linear_26835_29179" x1="28.34" y1="50.2799" x2="-0.0899726" y2="43.9499" gradientUnits="userSpaceOnUse">
<stop stop-color="#A0B47E"/>
<stop offset="1" stop-color="#34513C" stop-opacity="0"/>
</linearGradient>
<linearGradient id="paint5_linear_26835_29179" x1="27.15" y1="55.5999" x2="-1.26998" y2="49.2799" gradientUnits="userSpaceOnUse">
<stop stop-color="#A0B47E"/>
<stop offset="1" stop-color="#34513C" stop-opacity="0"/>
</linearGradient>
<linearGradient id="paint6_linear_26835_29179" x1="16.85" y1="61.7498" x2="-1.58998" y2="57.6398" gradientUnits="userSpaceOnUse">
<stop stop-color="#A0B47E"/>
<stop offset="1" stop-color="#34513C" stop-opacity="0"/>
</linearGradient>
<linearGradient id="paint7_linear_26835_29179" x1="57.69" y1="86.6501" x2="26.45" y2="14.0501" gradientUnits="userSpaceOnUse">
<stop stop-color="#55EEFF"/>
<stop offset="0.09" stop-color="#6CABFF"/>
<stop offset="0.23" stop-color="#8C4FFF"/>
<stop offset="0.32" stop-color="#A016FF"/>
<stop offset="0.37" stop-color="#A800FF"/>
<stop offset="0.44" stop-color="#C043D4"/>
<stop offset="0.51" stop-color="#D680AF"/>
<stop offset="0.58" stop-color="#E8B091"/>
<stop offset="0.64" stop-color="#F4D27B"/>
<stop offset="0.69" stop-color="#FCE76E"/>
<stop offset="0.72" stop-color="#FFEF6A"/>
<stop offset="0.81" stop-color="#BCF589"/>
<stop offset="0.9" stop-color="#84FAA3"/>
<stop offset="0.97" stop-color="#62FDB3"/>
<stop offset="1" stop-color="#55FFBA"/>
</linearGradient>
<linearGradient id="paint8_linear_26835_29179" x1="51" y1="89.8" x2="19.66" y2="16.96" gradientUnits="userSpaceOnUse">
<stop stop-color="#55EEFF"/>
<stop offset="0.09" stop-color="#6CABFF"/>
<stop offset="0.23" stop-color="#8C4FFF"/>
<stop offset="0.32" stop-color="#A016FF"/>
<stop offset="0.37" stop-color="#A800FF"/>
<stop offset="0.44" stop-color="#C043D4"/>
<stop offset="0.51" stop-color="#D680AF"/>
<stop offset="0.58" stop-color="#E8B091"/>
<stop offset="0.64" stop-color="#F4D27B"/>
<stop offset="0.69" stop-color="#FCE76E"/>
<stop offset="0.72" stop-color="#FFEF6A"/>
<stop offset="0.81" stop-color="#BCF589"/>
<stop offset="0.9" stop-color="#84FAA3"/>
<stop offset="0.97" stop-color="#62FDB3"/>
<stop offset="1" stop-color="#55FFBA"/>
</linearGradient>
<linearGradient id="paint9_linear_26835_29179" x1="60.15" y1="71.7198" x2="11.82" y2="57.3798" gradientUnits="userSpaceOnUse">
<stop stop-color="#FF2151"/>
<stop offset="0.5" stop-color="#FF9C45"/>
<stop offset="1" stop-color="#FF5454"/>
</linearGradient>
<linearGradient id="paint10_linear_26835_29179" x1="56.2099" y1="60.1596" x2="42.74" y2="59.2096" gradientUnits="userSpaceOnUse">
<stop stop-color="white" stop-opacity="0"/>
<stop offset="1" stop-color="white" stop-opacity="0.6"/>
</linearGradient>
<linearGradient id="paint11_linear_26835_29179" x1="62.11" y1="65.1098" x2="13.78" y2="50.7698" gradientUnits="userSpaceOnUse">
<stop stop-color="#FF2151"/>
<stop offset="0.5" stop-color="#FF9C45"/>
<stop offset="1" stop-color="#FF5454"/>
</linearGradient>
<linearGradient id="paint12_linear_26835_29179" x1="63.9" y1="59.0799" x2="15.56" y2="44.7499" gradientUnits="userSpaceOnUse">
<stop stop-color="#FF2151"/>
<stop offset="0.5" stop-color="#FF9C45"/>
<stop offset="1" stop-color="#FF5454"/>
</linearGradient>
<linearGradient id="paint13_linear_26835_29179" x1="59.8409" y1="72.7811" x2="11.5009" y2="58.441" gradientUnits="userSpaceOnUse">
<stop stop-color="#FF2151"/>
<stop offset="0.5" stop-color="#FF9C45"/>
<stop offset="1" stop-color="#FF5454"/>
</linearGradient>
<linearGradient id="paint14_linear_26835_29179" x1="61.55" y1="67.0099" x2="13.21" y2="52.6699" gradientUnits="userSpaceOnUse">
<stop stop-color="#FF2151"/>
<stop offset="0.5" stop-color="#FF9C45"/>
<stop offset="1" stop-color="#FF5454"/>
</linearGradient>
<linearGradient id="paint15_linear_26835_29179" x1="61.54" y1="67.0498" x2="13.2" y2="52.7098" gradientUnits="userSpaceOnUse">
<stop stop-color="#FF2151"/>
<stop offset="0.5" stop-color="#FF9C45"/>
<stop offset="1" stop-color="#FF5454"/>
</linearGradient>
<linearGradient id="paint16_linear_26835_29179" x1="62.97" y1="56.0498" x2="54.04" y2="54.1898" gradientUnits="userSpaceOnUse">
<stop stop-color="white" stop-opacity="0"/>
<stop offset="1" stop-color="white" stop-opacity="0.6"/>
</linearGradient>
<linearGradient id="paint17_linear_26835_29179" x1="64.72" y1="56.2997" x2="16.39" y2="41.9698" gradientUnits="userSpaceOnUse">
<stop stop-color="#FF2151"/>
<stop offset="0.5" stop-color="#FF9C45"/>
<stop offset="1" stop-color="#FF5454"/>
</linearGradient>
<linearGradient id="paint18_linear_26835_29179" x1="60.5789" y1="70.2836" x2="12.2389" y2="55.9436" gradientUnits="userSpaceOnUse">
<stop stop-color="#FF2151"/>
<stop offset="0.5" stop-color="#FF9C45"/>
<stop offset="1" stop-color="#FF5454"/>
</linearGradient>
<linearGradient id="paint19_linear_26835_29179" x1="31.42" y1="2.35004" x2="31.42" y2="53.44" gradientUnits="userSpaceOnUse">
<stop stop-color="#FF5454"/>
<stop offset="1" stop-color="#FF9C45"/>
</linearGradient>
<linearGradient id="paint20_linear_26835_29179" x1="1.41003" y1="42.1402" x2="53.69" y2="42.1402" gradientUnits="userSpaceOnUse">
<stop stop-color="#FF7B50"/>
<stop offset="1" stop-color="#93B45C"/>
</linearGradient>
<linearGradient id="paint21_linear_26835_29179" x1="31.79" y1="3.55011" x2="31.28" y2="68.0901" gradientUnits="userSpaceOnUse">
<stop stop-color="#FF5055"/>
<stop offset="1" stop-color="#39494D"/>
</linearGradient>
<linearGradient id="paint22_linear_26835_29179" x1="29.07" y1="48.67" x2="0.640008" y2="42.34" gradientUnits="userSpaceOnUse">
<stop stop-color="#A0B47E"/>
<stop offset="1" stop-color="#34513C" stop-opacity="0"/>
</linearGradient>
<linearGradient id="paint23_linear_26835_29179" x1="31.62" y1="113.22" x2="31.81" y2="67.8202" gradientUnits="userSpaceOnUse">
<stop stop-color="#FF7B50"/>
<stop offset="1" stop-color="#93B45C"/>
</linearGradient>
<linearGradient id="paint24_linear_26835_29179" x1="11.9529" y1="61.1783" x2="60.1663" y2="54.7689" gradientUnits="userSpaceOnUse">
<stop stop-color="#FF2151"/>
<stop offset="0.5" stop-color="#FF9C45"/>
<stop offset="1" stop-color="#FF5454"/>
</linearGradient>
<linearGradient id="paint25_linear_26835_29179" x1="56.3559" y1="57.936" x2="42.8607" y2="57.463" gradientUnits="userSpaceOnUse">
<stop stop-color="white" stop-opacity="0"/>
<stop offset="1" stop-color="white" stop-opacity="0.6"/>
</linearGradient>
<linearGradient id="paint26_linear_26835_29179" x1="62.9663" y1="53.5892" x2="53.9761" y2="52.0462" gradientUnits="userSpaceOnUse">
<stop stop-color="white" stop-opacity="0"/>
<stop offset="1" stop-color="white" stop-opacity="0.6"/>
</linearGradient>
<linearGradient id="paint27_linear_26835_29179" x1="11.9254" y1="60.9694" x2="60.1392" y2="54.5699" gradientUnits="userSpaceOnUse">
<stop stop-color="#FF2151"/>
<stop offset="0.5" stop-color="#FF9C45"/>
<stop offset="1" stop-color="#FF5454"/>
</linearGradient>
<linearGradient id="paint28_linear_26835_29179" x1="10.8889" y1="53.1712" x2="59.1024" y2="46.7617" gradientUnits="userSpaceOnUse">
<stop stop-color="#FF2151"/>
<stop offset="0.5" stop-color="#FF9C45"/>
<stop offset="1" stop-color="#FF5454"/>
</linearGradient>
<linearGradient id="paint29_linear_26835_29179" x1="11.6936" y1="59.1976" x2="59.897" y2="52.7885" gradientUnits="userSpaceOnUse">
<stop stop-color="#FF2151"/>
<stop offset="0.5" stop-color="#FF9C45"/>
<stop offset="1" stop-color="#FF5454"/>
</linearGradient>
<linearGradient id="paint30_linear_26835_29179" x1="11.23" y1="55.7405" x2="59.4435" y2="49.3311" gradientUnits="userSpaceOnUse">
<stop stop-color="#FF2151"/>
<stop offset="0.5" stop-color="#FF9C45"/>
<stop offset="1" stop-color="#FF5454"/>
</linearGradient>
<linearGradient id="paint31_linear_26835_29179" x1="11.7331" y1="59.4953" x2="59.9366" y2="53.0863" gradientUnits="userSpaceOnUse">
<stop stop-color="#FF2151"/>
<stop offset="0.5" stop-color="#FF9C45"/>
<stop offset="1" stop-color="#FF5454"/>
</linearGradient>
<linearGradient id="paint32_linear_26835_29179" x1="11.4593" y1="57.4138" x2="59.6628" y2="51.0047" gradientUnits="userSpaceOnUse">
<stop stop-color="#FF2151"/>
<stop offset="0.5" stop-color="#FF9C45"/>
<stop offset="1" stop-color="#FF5454"/>
</linearGradient>
<linearGradient id="paint33_linear_26835_29179" x1="12.007" y1="61.611" x2="60.2205" y2="55.2015" gradientUnits="userSpaceOnUse">
<stop stop-color="#FF2151"/>
<stop offset="0.5" stop-color="#FF9C45"/>
<stop offset="1" stop-color="#FF5454"/>
</linearGradient>
<linearGradient id="paint34_linear_26835_29179" x1="51.08" y1="89.51" x2="19.74" y2="16.67" gradientUnits="userSpaceOnUse">
<stop stop-color="#55EEFF"/>
<stop offset="0.09" stop-color="#6CABFF"/>
<stop offset="0.23" stop-color="#8C4FFF"/>
<stop offset="0.32" stop-color="#A016FF"/>
<stop offset="0.37" stop-color="#A800FF"/>
<stop offset="0.44" stop-color="#C043D4"/>
<stop offset="0.51" stop-color="#D680AF"/>
<stop offset="0.58" stop-color="#E8B091"/>
<stop offset="0.64" stop-color="#F4D27B"/>
<stop offset="0.69" stop-color="#FCE76E"/>
<stop offset="0.72" stop-color="#FFEF6A"/>
<stop offset="0.81" stop-color="#BCF589"/>
<stop offset="0.9" stop-color="#84FAA3"/>
<stop offset="0.97" stop-color="#62FDB3"/>
<stop offset="1" stop-color="#55FFBA"/>
</linearGradient>
<linearGradient id="paint35_linear_26835_29179" x1="57.69" y1="86.3601" x2="26.45" y2="13.7601" gradientUnits="userSpaceOnUse">
<stop stop-color="#55EEFF"/>
<stop offset="0.09" stop-color="#6CABFF"/>
<stop offset="0.23" stop-color="#8C4FFF"/>
<stop offset="0.32" stop-color="#A016FF"/>
<stop offset="0.37" stop-color="#A800FF"/>
<stop offset="0.44" stop-color="#C043D4"/>
<stop offset="0.51" stop-color="#D680AF"/>
<stop offset="0.58" stop-color="#E8B091"/>
<stop offset="0.64" stop-color="#F4D27B"/>
<stop offset="0.69" stop-color="#FCE76E"/>
<stop offset="0.72" stop-color="#FFEF6A"/>
<stop offset="0.81" stop-color="#BCF589"/>
<stop offset="0.9" stop-color="#84FAA3"/>
<stop offset="0.97" stop-color="#62FDB3"/>
<stop offset="1" stop-color="#55FFBA"/>
</linearGradient>
<clipPath id="clip0_26835_29179">
<rect width="63" height="88" fill="white"/>
</clipPath>
</defs>
</svg>
