<svg width="63" height="88" viewBox="0 0 63 88" fill="none" xmlns="http://www.w3.org/2000/svg">
<rect width="63" height="88" rx="4" fill="url(#paint0_linear_26835_29180)"/>
<g clip-path="url(#clip0_26835_29180)">
<g clip-path="url(#clip1_26835_29180)">
<path d="M56.44 0.740234H6.56C3.22972 0.740234 0.529999 3.43996 0.529999 6.77023V81.2302C0.529999 84.5605 3.22972 87.2602 6.56 87.2602H56.44C59.7703 87.2602 62.47 84.5605 62.47 81.2302V6.77023C62.47 3.43996 59.7703 0.740234 56.44 0.740234Z" fill="#004FFF"/>
<path d="M57.5 33.5401C58.18 34.2001 58.32 35.1601 57.81 35.6901C57.3 36.2201 56.34 36.1001 55.65 35.4401C54.96 34.7801 53.38 32.4101 53.89 31.8801C54.4 31.3501 56.81 32.8801 57.49 33.5401H57.5Z" fill="#FFC200"/>
<path d="M57.52 34.4205C57.43 34.5605 56.83 34.6505 56.29 34.2805C55.75 33.9105 55.48 33.2105 55.58 33.0805C55.68 32.9505 56.25 33.0805 56.79 33.4405C57.33 33.8005 57.62 34.2905 57.52 34.4205Z" fill="white"/>
<path d="M62.47 27.4903C62.47 27.4903 58.03 20.5103 51.98 18.2603C45.93 16.0103 42.55 19.0303 44.9 19.4103C47.25 19.7903 51.25 18.7703 53.12 20.6403C54.99 22.5103 52.43 25.5803 49.74 24.8403C47.05 24.1003 45.46 25.9203 51.41 26.5503C57.36 27.1803 57.18 25.5203 61.6 29.9303L62.46 27.4703L62.47 27.4903Z" fill="#FFC200"/>
<path d="M0.529999 43.3303C0.529999 43.3303 10 50.3103 19.76 66.8503C29.52 83.3903 42.13 87.2603 42.13 87.2603H27.17C27.17 87.2603 26.2 77.8903 16.99 72.3803C16.99 72.3803 11.68 74.5003 9.18 69.4603C6.68 64.4203 8.48 57.0403 8.48 57.0403C8.48 57.0403 4.46 50.6303 1.44 53.6403L0.539999 43.3203L0.529999 43.3303Z" fill="#FFC200"/>
<path d="M28.35 86.6405C28.35 86.6405 26.37 81.9805 27.32 81.9805C28.27 81.9805 32.65 86.6405 32.65 86.6405H28.36H28.35Z" fill="#FF7F00"/>
<path d="M3.92999 1.3501C2.85999 1.3501 1.42999 3.4401 1.42999 4.5001L1.99999 18.1901C1.99999 16.4301 3.42999 15.0001 5.18999 15.0001H33.59C34.8 15.0001 35.94 14.4501 36.7 13.5101L44.8 3.4801C45.56 2.5401 46.7 1.9901 47.91 1.9901L3.92999 1.3501Z" fill="url(#paint1_linear_26835_29180)"/>
<path d="M57.8658 48.7877C61.2458 52.5777 59.5958 60.8277 53.1058 66.6177C46.6158 72.4077 37.7258 73.5377 34.3558 69.7477C30.9858 65.9577 37 64.7899 43.5 58.9999C49.99 53.2099 54.4958 44.9977 57.8758 48.7877H57.8658Z" fill="#1A2C38"/>
<path d="M59 0H4C1.79 0 0 1.79 0 4V84C0 86.21 1.79 88 4 88H59C61.21 88 63 86.21 63 84V4C63 1.79 61.21 0 59 0ZM61 82.81C61 84.57 59.57 86 57.81 86H5.19C3.43 86 2 84.57 2 82.81V16.9C2 8.67 8.67 2 16.9 2H57.81C59.57 2 61 3.43 61 5.19V82.81Z" fill="url(#paint2_linear_26835_29180)"/>
<mask id="mask0_26835_29180" style="mask-type:luminance" maskUnits="userSpaceOnUse" x="0" y="0" width="63" height="88">
<path d="M59 0H4C1.79 0 0 1.79 0 4V84C0 86.21 1.79 88 4 88H59C61.21 88 63 86.21 63 84V4C63 1.79 61.21 0 59 0ZM61 82.81C61 84.57 59.57 86 57.81 86H5.19C3.43 86 2 84.57 2 82.81V18.19C2 16.43 3.43 15 5.19 15H33.59C34.8 15 35.94 14.45 36.7 13.51L44.8 3.48C45.56 2.54 46.7 1.99 47.91 1.99H57.81C59.57 1.99 61 3.42 61 5.18V82.8V82.81Z" fill="white"/>
</mask>
<g mask="url(#mask0_26835_29180)">
<path d="M68.37 47.3101V26.6401L4.45999 90.5501H25.13L68.37 47.3101Z" fill="white"/>
<path d="M64.66 -2.29004H55.22L-2.92001 55.84V66.18L65.46 -2.20004C65.2 -2.26004 64.93 -2.29004 64.66 -2.29004Z" fill="white"/>
<path d="M68.37 69.2298V61.5498L39.37 90.5498H47.05L68.37 69.2298Z" fill="white"/>
</g>
<path d="M59.84 44.0202C63.22 47.8102 61.57 56.0602 55.08 61.8502C48.59 67.6402 39.7 68.7702 36.33 64.9802C32.96 61.1902 36.17 54.3802 42.67 48.5902C49.16 42.8002 56.47 40.2302 59.85 44.0202H59.84Z" fill="#007FFF"/>
<path d="M53.7675 61.3982C58.5015 57.5207 60.8441 52.5521 58.9998 50.3004C57.1556 48.0488 51.8228 49.3668 47.0888 53.2443C42.3548 57.1218 40.0122 62.0905 41.8564 64.3421C43.7007 66.5938 49.0335 65.2757 53.7675 61.3982Z" fill="#1A2C38"/>
<path d="M53.0535 56.4156C55.9631 54.7065 57.6937 52.2517 56.9189 50.9326C56.1441 49.6135 53.1572 49.9297 50.2476 51.6388C47.338 53.3479 45.6074 55.8027 46.3822 57.1218C47.157 58.4409 50.1439 58.1247 53.0535 56.4156Z" fill="#557086"/>
<path d="M52.3856 59.9098C55.7011 57.1942 57.2966 53.6592 55.9493 52.0143C54.602 50.3693 50.822 51.2373 47.5065 53.953C44.1909 56.6686 42.5954 60.2036 43.9427 61.8485C45.2901 63.4935 49.07 62.6255 52.3856 59.9098Z" fill="#007FFF"/>
<path d="M53.3267 60.8024C56.6423 58.0868 58.2378 54.5518 56.8905 52.9069C55.5431 51.2619 51.7631 52.1299 48.4476 54.8456C45.1321 57.5612 43.5366 61.0962 44.8839 62.7411C46.2312 64.3861 50.0112 63.5181 53.3267 60.8024Z" fill="#55DFFF"/>
<path d="M11.4841 13.3488L11.4768 13.3556C11.2581 13.5583 11.2451 13.9 11.4479 14.1187L15.6492 18.6509C15.852 18.8696 16.1936 18.8826 16.4123 18.6798L16.4197 18.673C16.6384 18.4703 16.6513 18.1286 16.4486 17.9099L12.2473 13.3777C12.0445 13.159 11.7029 13.146 11.4841 13.3488Z" fill="#8EA3B2"/>
<path d="M9.99909 15.1984L9.99176 15.2052C9.77304 15.4079 9.76009 15.7496 9.96284 15.9683L14.1642 20.5005C14.3669 20.7193 14.7086 20.7322 14.9273 20.5295L14.9346 20.5227C15.1533 20.3199 15.1663 19.9782 14.9635 19.7595L10.7622 15.2273C10.5595 15.0086 10.2178 14.9956 9.99909 15.1984Z" fill="#8EA3B2"/>
<path d="M9.09177 17.2257L9.08444 17.2325C8.86572 17.4353 8.85277 17.7769 9.05552 17.9956L13.2568 22.5279C13.4596 22.7466 13.8013 22.7595 14.02 22.5568L14.0273 22.55C14.246 22.3473 14.259 22.0056 14.0562 21.7869L9.8549 17.2546C9.65215 17.0359 9.31049 17.023 9.09177 17.2257Z" fill="#8EA3B2"/>
<path d="M9.0524 19.7584L9.04507 19.7652C8.82635 19.968 8.81341 20.3096 9.01615 20.5283L13.2175 25.0606C13.4202 25.2793 13.7619 25.2923 13.9806 25.0895L13.9879 25.0827C14.2067 24.88 14.2196 24.5383 14.0169 24.3196L9.81553 19.7873C9.61278 19.5686 9.27112 19.5557 9.0524 19.7584Z" fill="#8EA3B2"/>
<path d="M13.134 12.0685L13.1267 12.0753C12.908 12.278 12.895 12.6197 13.0978 12.8384L17.2991 17.3707C17.5019 17.5894 17.8435 17.6023 18.0622 17.3996L18.0696 17.3928C18.2883 17.19 18.3012 16.8484 18.0985 16.6296L13.8972 12.0974C13.6944 11.8787 13.3528 11.8657 13.134 12.0685Z" fill="#8EA3B2"/>
<path d="M15.2075 10.9571L15.2002 10.9639C14.9814 11.1667 14.9685 11.5084 15.1712 11.7271L19.3726 16.2593C19.5753 16.478 19.917 16.491 20.1357 16.2882L20.143 16.2814C20.3617 16.0787 20.3747 15.737 20.1719 15.5183L15.9706 10.9861C15.7679 10.7673 15.4262 10.7544 15.2075 10.9571Z" fill="#8EA3B2"/>
<path d="M18.9539 10.9791L18.9466 10.9859C18.7279 11.1887 18.7149 11.5303 18.9177 11.749L23.119 16.2813C23.3217 16.5 23.6634 16.513 23.8821 16.3102L23.8895 16.3034C24.1082 16.1007 24.1211 15.759 23.9184 15.5403L19.717 11.008C19.5143 10.7893 19.1726 10.7764 18.9539 10.9791Z" fill="#557086"/>
<path d="M17.499 10.6036L17.4917 10.6104C17.2729 10.8132 17.26 11.1548 17.4627 11.3736L21.6641 15.9058C21.8668 16.1245 22.2085 16.1375 22.4272 15.9347L22.4345 15.9279C22.6532 15.7252 22.6662 15.3835 22.4634 15.1648L18.2621 10.6326C18.0594 10.4138 17.7177 10.4009 17.499 10.6036Z" fill="#8EA3B2"/>
<path d="M10.55 21.85C10.55 21.85 12.88 14.5 19.79 13.02L20.12 13.83L11.59 21.97L10.55 21.85Z" fill="#557086"/>
<path d="M13.28 35.7101L10.28 32.1701C10.14 32.0001 10.06 31.7901 10.06 31.5801C10.06 31.3001 10.16 30.9301 10.56 30.5601C10.56 30.5601 10.33 26.3501 10.44 25.2701L9.39999 24.1801C9.30999 24.0801 9.26999 23.9501 9.28999 23.8201C9.39999 23.1801 9.88999 21.2901 11.87 21.0001C11.87 21.0001 13.04 17.6901 17.86 14.8801C17.86 14.8801 18.45 12.3201 21.33 12.7201C21.33 12.7201 24.72 12.7901 27.66 13.4201C27.66 13.4201 28.58 12.3001 29.92 12.5401C30.17 12.5901 30.4 12.7301 30.58 12.9101L34.06 16.6501L13.28 35.7101Z" fill="#8EA3B2"/>
<path d="M10.92 31.9602C10.92 31.9602 10.62 32.3002 10.81 32.7902L13.28 35.7102L12.89 33.8302L10.91 31.9502L10.92 31.9602Z" fill="white"/>
<path d="M13.45 21.2999C13.45 21.2999 16.44 17.2099 20.45 18.5399L15.96 23.0299L13.45 21.2899V21.2999Z" fill="white"/>
<path d="M24.81 16.47L22.6 14.04L23.96 14.59C24.1 14.65 24.22 14.73 24.33 14.84L25.62 16.23L24.81 16.46V16.47Z" fill="#1A2C38"/>
<path d="M17.61 15.78L19.93 16.73L21.24 18.14L21.79 17.73L19.65 15.47C19.65 15.47 20.22 14.3 21.89 13.99L21.76 13.85C21.76 13.85 20.72 13.75 19.42 15.26L18.99 14.86C18.99 14.86 18.58 15.4 18.54 15.86L17.83 15.59L17.6 15.78H17.61Z" fill="#1A2C38"/>
<path d="M13.09 22.6702C13.09 22.6702 10.84 23.2202 10.77 25.1202C10.77 25.1202 10.3 23.4202 12.89 22.4102L13.09 22.6702Z" fill="#1A2C38"/>
<path d="M12.48 21.0798L12.91 23.3198C12.96 23.5698 13.07 23.7998 13.24 23.9898L14.39 25.3098L16.3 22.6298C16.3 22.6298 14.93 20.3798 12.49 21.0798H12.48Z" fill="#557086"/>
<path d="M13.87 26.1601L10.27 22.3501L9.85999 23.2201L13.51 27.2501L13.87 26.1601Z" fill="#1A2C38"/>
<path d="M13.17 28.2201L11.24 26.5001L10.81 25.5601L11.09 27.5201L12.77 29.4301L13.17 28.2201Z" fill="#1A2C38"/>
<path d="M31.2481 34.3881C37.0239 29.0341 38.7567 21.5122 35.1185 17.5874C31.4804 13.6627 23.8489 14.8213 18.0731 20.1753C12.2974 25.5293 10.5645 33.0513 14.2027 36.976C17.8409 40.9008 25.4724 39.7421 31.2481 34.3881Z" fill="#557086"/>
<path d="M30.7519 33.8532C36.2805 28.7282 38.0353 21.6316 34.6712 18.0025C31.3071 14.3734 24.0981 15.5861 18.5694 20.7111C13.0407 25.8361 11.286 32.9327 14.6501 36.5618C18.0142 40.1908 25.2232 38.9782 30.7519 33.8532Z" fill="#1A2C38"/>
<path d="M33.3639 38.9979C40.0077 33.5561 42.8546 26.0447 39.7225 22.2208C36.5904 18.3968 28.6654 19.7083 22.0215 25.1501C15.3777 30.592 12.5308 38.1033 15.6629 41.9273C18.795 45.7513 26.72 44.4397 33.3639 38.9979Z" fill="#8EA3B2"/>
<path d="M22.05 55.02C22.05 55.02 23.24 53.97 23.61 53.29L25.96 55.7L23.22 56.39L22.05 55.02Z" fill="#45A7FF"/>
<path d="M24.36 50.7402L23.1 53.1902C23.04 53.3102 23.03 53.4502 23.07 53.5802C23.23 54.0102 23.71 54.9602 25.01 55.4302C26.73 56.0402 26.97 55.5902 26.97 55.5902L28.34 53.0002L24.35 50.7402H24.36Z" fill="#1A2C38"/>
<path d="M15.66 41.9302C15.66 41.9302 23.41 51.1202 26.38 52.7702L48.57 31.6002C48.57 31.6002 42.2 23.9302 39.73 22.2202L15.66 41.9302Z" fill="#8EA3B2"/>
<path d="M41.23 29.4201C41.53 30.4701 39.89 31.8601 37.57 32.5201C35.25 33.1801 33.13 32.8701 32.83 31.8201C32.53 30.7701 32.94 28.9301 35.26 28.2701C37.58 27.6101 40.93 28.3701 41.23 29.4201Z" fill="white"/>
<path d="M41.5077 47.8173C48.1515 42.3755 50.9984 34.8641 47.8663 31.0401C44.7342 27.2161 36.8092 28.5277 30.1653 33.9695C23.5215 39.4113 20.6746 46.9227 23.8067 50.7466C26.9388 54.5706 34.8638 53.2591 41.5077 47.8173Z" fill="#1A2C38"/>
<path d="M42.1963 48.3729C48.8402 42.9311 51.687 35.4197 48.5549 31.5958C45.4228 27.7718 37.4978 29.0833 30.854 34.5251C24.2101 39.967 21.3633 47.4784 24.4954 51.3023C27.6275 55.1263 35.5525 53.8147 42.1963 48.3729Z" fill="#8EA3B2"/>
<path d="M28.7035 42.5962C29.6764 40.8433 29.7761 39.0399 28.9262 38.5682C28.0762 38.0965 26.5986 39.1351 25.6257 40.8881C24.6529 42.641 24.5532 44.4444 25.4031 44.9161C26.253 45.3878 27.7307 44.3491 28.7035 42.5962Z" fill="#1A2C38"/>
<path d="M42.35 47.73C36.55 52.88 28.65 54.85 26.08 51.95C23.51 49.05 26.12 42.53 31.92 37.38C37.72 32.23 45.9 30.72 48.47 33.62C51.04 36.52 48.15 42.58 42.35 47.73Z" fill="#1A2C38"/>
<path d="M25.91 44.4902C25.91 44.4902 23.82 45.4402 23.99 48.5402L25.92 50.4502V44.4902H25.91Z" fill="#FFEBB8"/>
<path d="M41.4614 47.4844C47.5028 42.5361 50.3294 35.9962 47.7747 32.8772C45.22 29.7582 38.2515 31.2412 32.2101 36.1896C26.1687 41.138 23.3421 47.6779 25.8968 50.7968C28.4514 53.9158 35.42 52.4328 41.4614 47.4844Z" fill="#557086"/>
<path d="M33.94 38.84C33.94 38.84 35.73 34.55 41.1 33.52L41.49 34.89C41.49 34.89 35.6 37.07 33.94 38.84Z" fill="white"/>
<path d="M43.39 34.9298C43.33 34.8798 42.33 32.5498 42.33 32.5498C42.33 32.5498 43.65 31.3098 44.87 31.6098C46.09 31.9098 46.51 32.9398 46.51 32.9398L46.6 35.5298L43.39 34.9198V34.9298Z" fill="#8EA3B2"/>
<path d="M52.9719 60.3693C56.0054 57.8846 57.5312 54.7309 56.3799 53.3252C55.2285 51.9195 51.836 52.7942 48.8024 55.2789C45.7689 57.7636 44.2431 60.9174 45.3945 62.323C46.5458 63.7287 49.9383 62.854 52.9719 60.3693Z" fill="#1A2C38"/>
<path d="M50.5762 57.4932C51.7085 56.5658 52.2547 55.3603 51.7962 54.8006C51.3378 54.2409 50.0483 54.5389 48.9161 55.4663C47.7838 56.3937 47.2376 57.5992 47.6961 58.1589C48.1545 58.7187 49.444 58.4206 50.5762 57.4932Z" fill="#FFEBB8"/>
<path d="M47.72 60.56C47.72 60.56 49.15 61.51 51.23 60.6C51.23 60.6 49.68 60.02 49.66 58.91L48.7 58.77L47.72 60.56Z" fill="#55DFFF"/>
<path d="M49.06 58.6799C49.06 58.6799 47.93 60.2799 47.76 61.4599C47.59 62.6399 46.31 62.8299 45.7 60.8499C45.09 58.8699 48.57 58.1299 48.57 58.1299L49.06 58.6799Z" fill="#55DFFF"/>
<path d="M49.66 58.9098C49.66 58.9098 50.01 59.4098 50.24 59.5298C50.24 59.5298 53.06 59.5698 55.14 57.0898C55.14 57.0898 52.46 58.4198 51.24 58.0398L49.66 58.9098Z" fill="#55DFFF"/>
<path d="M52.02 55.8299C52.02 55.8299 53.42 55.4899 54.72 53.1499C54.72 53.1499 55.23 53.2199 55.67 53.4699C55.67 53.4699 56.34 56.8199 52.14 57.0999L52.02 55.8299Z" fill="#55DFFF"/>
<path d="M51.2582 58.3345C52.3905 57.4071 52.9367 56.2016 52.4782 55.6419C52.0198 55.0822 50.7303 55.3803 49.5981 56.3076C48.4658 57.235 47.9196 58.4406 48.3781 59.0003C48.8365 59.56 50.126 59.2619 51.2582 58.3345Z" fill="#007FFF"/>
<path d="M41.6081 47.9411C46.7223 43.7521 49.1349 38.24 46.9967 35.6295C44.8584 33.0189 38.9791 34.2985 33.8648 38.4875C28.7506 42.6764 26.338 48.1885 28.4762 50.7991C30.6145 53.4096 36.4938 52.1301 41.6081 47.9411Z" fill="#1A2C38"/>
<path d="M41.1959 47.4376C45.7505 43.7071 47.9448 38.8541 46.097 36.5982C44.2492 34.3423 39.0591 35.5377 34.5046 39.2682C29.95 42.9988 27.7557 47.8517 29.6035 50.1077C31.4512 52.3636 36.6413 51.1682 41.1959 47.4376Z" fill="#8EA3B2"/>
<path d="M42.0487 48.1891C46.6033 44.4586 48.7976 39.6056 46.9498 37.3497C45.1021 35.0938 39.9119 36.2892 35.3574 40.0197C30.8028 43.7502 28.6085 48.6032 30.4563 50.8591C32.304 53.115 37.4942 51.9196 42.0487 48.1891Z" fill="#557086"/>
<path d="M41.4784 47.4928C45.2554 44.3992 47.0746 40.3743 45.5418 38.5029C44.009 36.6315 39.7046 37.6223 35.9277 40.7159C32.1507 43.8095 30.3315 47.8344 31.8643 49.7058C33.3971 51.5772 37.7015 50.5864 41.4784 47.4928Z" fill="#1A2C38"/>
<path d="M40.8048 46.6611C43.4623 44.4844 44.7429 41.653 43.6651 40.337C42.5872 39.0211 39.5591 39.7189 36.9015 41.8956C34.244 44.0723 32.9634 46.9037 34.0412 48.2197C35.1191 49.5356 38.1473 48.8378 40.8048 46.6611Z" fill="#FFEBB8"/>
<path d="M59.4229 45.9757C59.6765 45.6071 59.2587 44.8795 58.4898 44.3504C57.7208 43.8213 56.8919 43.6912 56.6384 44.0598C56.3848 44.4283 56.8026 45.1559 57.5715 45.685C58.3404 46.2141 59.1693 46.3442 59.4229 45.9757Z" fill="white"/>
<path d="M37.13 58.8599C37.13 58.8599 36.29 66.0499 44.06 66.5999C44.06 66.5999 39.35 67.5099 37.58 64.9599C35.81 62.4099 36.52 59.3799 36.52 59.3799L37.13 58.8599Z" fill="#00559B"/>
<path d="M38.52 60.2798C38.49 61.6998 38.07 62.8398 37.58 62.8298C37.09 62.8198 36.32 61.6098 36.34 60.1998C36.36 58.7898 37.18 57.6898 37.67 57.6998C38.16 57.7098 38.53 58.8698 38.51 60.2798H38.52Z" fill="#55DFFF"/>
<path d="M36.96 61.6599C37 62.4599 36.37 63.1399 36.06 63.1599C35.75 63.1799 35.47 62.5399 35.42 61.7499C35.37 60.9599 35.59 60.2899 35.9 60.2799C36.21 60.2699 36.91 60.8699 36.95 61.6699L36.96 61.6599Z" fill="white"/>
<path d="M50.7469 57.6953C51.4647 57.1073 51.8111 56.3432 51.5206 55.9886C51.2302 55.634 50.4128 55.8231 49.695 56.4111C48.9772 56.999 48.6308 57.7631 48.9213 58.1177C49.2117 58.4723 50.0291 58.2832 50.7469 57.6953Z" fill="#45A7FF"/>
<path d="M32.47 40.1201L31.07 38.6701C30.99 38.5901 30.99 38.4501 31.07 38.3701L31.76 37.7001C31.84 37.6201 31.96 37.6201 32.05 37.7001L33.76 39.1801L32.46 40.1301L32.47 40.1201Z" fill="#1A2C38"/>
<path d="M42.7 34.5601L42.13 32.5801C42.1 32.4901 42.16 32.3901 42.25 32.3701L42.99 32.1601C43.08 32.1301 43.18 32.1901 43.2 32.2801L43.86 34.5701H42.7V34.5601Z" fill="#1A2C38"/>
<path d="M26.29 47.9898L26.39 48.6598L27.08 48.5598L27.27 48.1498L26.44 47.8698C26.36 47.8398 26.28 47.9098 26.29 47.9998V47.9898Z" fill="#1A2C38"/>
<path d="M28.05 48.4401L27.27 48.1401L26.39 48.6601L28.09 49.3301L28.05 48.4401Z" fill="#1A2C38"/>
<path d="M25.39 53.1602C25.39 53.1602 26.28 53.9702 27.33 53.9102L27.63 53.3702C27.63 53.3702 26.18 53.2402 25.75 52.6802L25.38 53.1602H25.39Z" fill="#557086"/>
<path d="M23.48 53.0698L23.26 53.5098C23.26 53.5098 23.52 54.1398 23.84 54.3198V53.6498L23.48 53.0698Z" fill="#8EA3B2"/>
<path d="M23.65 52.7502C23.65 52.7502 23.93 53.4102 24.36 53.6502L24.32 52.6902L23.94 52.1802" fill="#8EA3B2"/>
<path d="M17.7901 40.7875C18.4194 40.5467 18.5663 39.4023 18.1183 38.2314C17.6702 37.0606 16.7968 36.3066 16.1676 36.5474C15.5383 36.7882 15.3914 37.9326 15.8394 39.1035C16.2875 40.2744 17.1608 41.0283 17.7901 40.7875Z" fill="#557086"/>
<path d="M14.16 36.9301L16.17 36.5601L17.79 40.7901L15.85 41.3501L14.16 36.9301Z" fill="#557086"/>
<path d="M16.93 36.9102C17.37 37.2302 17.62 37.9102 17.42 38.1902C17.22 38.4702 16.7 38.4302 16.26 38.1202C15.82 37.8102 15.63 37.3202 15.83 37.0502C16.03 36.7802 16.49 36.6002 16.93 36.9202V36.9102Z" fill="#8EA3B2"/>
<path d="M15.8446 41.3576C16.4739 41.1168 16.6048 39.9306 16.137 38.7081C15.6692 37.4857 14.7799 36.6899 14.1506 36.9307C13.5213 37.1715 13.3904 38.3577 13.8582 39.5802C14.3259 40.8026 15.2153 41.5984 15.8446 41.3576Z" fill="#1A2C38"/>
<path d="M15.4252 41.4699C16.0545 41.2291 16.1854 40.0429 15.7176 38.8204C15.2498 37.598 14.3605 36.8022 13.7312 37.043C13.1019 37.2838 12.971 38.47 13.4388 39.6925C13.9066 40.9149 14.7959 41.7107 15.4252 41.4699Z" fill="#557086"/>
<path d="M14.5606 41.8088C15.1899 41.568 15.3208 40.3818 14.853 39.1593C14.3852 37.9368 13.4959 37.1411 12.8666 37.3819C12.2373 37.6227 12.1064 38.8089 12.5742 40.0313C13.042 41.2538 13.9313 42.0496 14.5606 41.8088Z" fill="#557086"/>
<path d="M14.1944 41.4462C14.6329 41.2784 14.6811 40.3396 14.3021 39.3492C13.9231 38.3589 13.2605 37.692 12.8221 37.8598C12.3836 38.0276 12.3354 38.9664 12.7144 39.9568C13.0934 40.9471 13.756 41.614 14.1944 41.4462Z" fill="#45A7FF"/>
<path d="M20.23 51.9301C19.58 49.6701 18.97 42.8401 13.89 41.5901L14.2 41.4401L12.83 37.8501C12.83 37.8501 8.39001 39.2601 9.31001 41.7901C10.22 44.3201 14.49 44.9401 15.24 47.5501C15.99 50.1601 16.41 56.2101 20.25 58.1201C22.07 59.0301 24.98 57.8101 25.98 55.7001L22.07 55.0201C22.07 55.0201 20.9 54.1801 20.25 51.9201L20.23 51.9301Z" fill="#45A7FF"/>
<path d="M14.71 43.21C16.65 44.57 16.84 45.49 16.5 45.97C16.16 46.45 15.42 46.33 13.48 44.96C11.54 43.59 11.23 42.95 11.57 42.46C11.91 41.97 12.77 41.84 14.71 43.2V43.21Z" fill="#1A2C38"/>
<path d="M20.74 55.1698C21.77 56.2798 21.99 57.1798 21.54 57.5998C21.09 58.0198 20.15 57.7798 19.12 56.6698C18.09 55.5598 17.63 54.3298 18.07 53.9098C18.51 53.4898 19.71 54.0598 20.73 55.1698H20.74Z" fill="#55DFFF"/>
<path d="M18.45 50.1202C19.22 52.6702 20.35 54.7902 19.78 54.9602C19.21 55.1302 17.44 52.7802 16.67 50.2302C15.9 47.6802 16.04 46.9102 16.61 46.7302C17.18 46.5502 17.68 47.5602 18.45 50.1102V50.1202Z" fill="#1A2C38"/>
<path d="M17.2 46.1299C17.2 46.1299 16.11 46.4399 17.83 50.6199C17.83 50.6199 17.92 47.8499 17.2 46.1299Z" fill="#1CE61C"/>
<path d="M11.23 41.4102C11.45 42.2002 11.73 43.0002 11.17 43.1602C10.61 43.3202 9.98 42.8102 9.75 42.0302C9.52 41.2502 9.8 40.4802 10.36 40.3202C10.92 40.1602 11.01 40.6302 11.24 41.4202L11.23 41.4102Z" fill="#FFEBB8"/>
<path d="M26.35 22.2598C26.35 22.2598 29.08 17.3998 30.91 16.8698C32.74 16.3398 34.81 17.7798 36.09 19.4698C36.09 19.4698 39.42 19.2998 40.54 19.9198C41.66 20.5398 44.66 22.9598 42.93 26.0698C42.93 26.0698 36.21 24.3898 31.94 25.3598L26.36 22.2498L26.35 22.2598Z" fill="#8EA3B2"/>
<path d="M24.81 35.24C24.81 35.24 33.44 24.91 42.92 26.07C42.92 26.07 43.68 23.85 42.83 23.61C41.98 23.37 37.85 23.04 37.85 23.04C37.85 23.04 31.26 29.09 28.78 29.8L24.81 35.24Z" fill="#1A2C38"/>
<path d="M42.2983 23.5718C42.3353 23.1482 41.152 22.699 39.6555 22.5686C38.1589 22.4382 36.9158 22.676 36.8789 23.0996C36.842 23.5233 38.0252 23.9724 39.5218 24.1028C41.0183 24.2332 42.2614 23.9955 42.2983 23.5718Z" fill="#55DFFF"/>
<path d="M27.01 29.6898C27.01 29.6898 31.98 21.0998 35.65 22.1898L24.81 35.2498L27.01 29.6998V29.6898Z" fill="#55DFFF"/>
<path d="M31.59 23.76L24.81 35.25C24.81 35.25 21.93 34.53 21.55 31.82C21.54 31.74 21.55 31.66 21.6 31.59L27.91 21.14C28.01 20.97 28.24 20.92 28.4 21.04L31.49 23.31C31.63 23.41 31.67 23.61 31.58 23.76H31.59Z" fill="#557086"/>
<path d="M36.0665 25.3417C37.2394 24.4479 37.7668 23.1678 37.2446 22.4826C36.7224 21.7973 35.3483 21.9664 34.1754 22.8602C33.0026 23.754 32.4751 25.034 32.9973 25.7193C33.5196 26.4045 34.8937 26.2355 36.0665 25.3417Z" fill="#557086"/>
<path d="M35.9146 25.1329C36.8897 24.3897 37.3519 23.3564 36.9469 22.8249C36.5418 22.2934 35.4229 22.465 34.4477 23.2081C33.4725 23.9513 33.0104 24.9846 33.4154 25.5161C33.8205 26.0476 34.9394 25.8761 35.9146 25.1329Z" fill="#1A2C38"/>
<path d="M35.8247 24.9196C36.6022 24.3271 36.972 23.5049 36.6506 23.0832C36.3292 22.6615 35.4384 22.8 34.6609 23.3925C33.8834 23.985 33.5136 24.8072 33.835 25.2289C34.1564 25.6506 35.0472 25.5121 35.8247 24.9196Z" fill="#8EA3B2"/>
<path d="M32.05 22.6398C32.05 22.6398 33.75 21.1398 34.99 21.3898C34.99 21.3898 36.15 19.6098 33.66 17.9598C31.17 16.3098 28.77 19.9898 28.77 19.9898L32.05 22.6398Z" fill="white"/>
<path d="M41.11 21.23C41 21.78 39.62 22.12 38.5 21.91C37.38 21.7 36.95 21 37.05 20.45C37.15 19.9 38.2 19.75 39.32 19.96C40.44 20.17 41.22 20.68 41.11 21.23Z" fill="white"/>
<path d="M39.6637 45.4869C41.659 43.8526 42.7006 41.8247 41.9902 40.9573C41.2798 40.09 39.0864 40.7117 37.0911 42.346C35.0958 43.9803 34.0542 46.0083 34.7646 46.8756C35.475 47.743 37.6684 47.1212 39.6637 45.4869Z" fill="#FF7F00"/>
<path d="M11.9917 69.5831C13.3089 69.4349 14.1333 67.1525 13.8332 64.4852C13.5331 61.8179 12.222 59.7758 10.9048 59.924C9.58768 60.0722 8.7632 62.3546 9.06332 65.0219C9.36345 67.6892 10.6745 69.7313 11.9917 69.5831Z" fill="#FF7F00"/>
<path d="M59.9761 26.2156C60.3198 25.8719 59.4713 24.4663 58.0811 23.076C56.6908 21.6858 55.2852 20.8373 54.9415 21.181C54.5978 21.5246 55.4463 22.9303 56.8365 24.3205C58.2268 25.7108 59.6324 26.5592 59.9761 26.2156Z" fill="white"/>
<path d="M58.57 25.3799C58.57 26.0299 56.99 25.9799 56.13 25.9799C55.27 25.9799 54.58 25.7199 54.58 25.0599C54.58 24.3999 55.28 23.6699 56.13 23.6699C56.98 23.6699 58.57 24.7299 58.57 25.3799Z" fill="#FF7F00"/>
<path d="M31.42 82.3701C31.04 82.8101 29.6 82.1901 28.2 80.9801C26.8 79.7701 25.98 78.4401 26.36 78.0001C26.74 77.5601 27.89 78.5301 29.28 79.7301C30.67 80.9301 31.79 81.9301 31.41 82.3701H31.42Z" fill="white"/>
</g>
</g>
<path fill-rule="evenodd" clip-rule="evenodd" d="M6.49771 79C6.98969 79 7.48602 79.213 7.49037 79.6913C7.49037 80.1043 7.24656 80.2696 6.99839 80.2696C6.75023 80.2696 6.73281 80.1435 6.73281 80.1435C6.73281 80.1435 7.02452 79.9261 7.02452 79.7174C7.02452 79.6087 6.94179 79.313 6.489 79.3174C5.8577 79.3174 5.5181 79.6174 5.5181 80.1522C5.5181 80.7652 7.35105 80.9739 7.3554 81.7652C7.3554 82.613 6.47594 82.9957 5.69225 83C5.283 83 5.01306 82.7609 5.00871 82.3783C5.00871 81.9261 5.22204 81.4652 5.75756 81.4652C5.88382 81.4565 5.98831 81.5522 5.99702 81.6783C5.99702 81.6783 5.99702 81.6826 5.99702 81.687C5.99702 81.687 5.45715 81.8391 5.4615 82.3783C5.4615 82.4783 5.56599 82.6609 5.81851 82.6565C6.07103 82.6522 6.82424 82.4739 6.81989 81.8087C6.81989 81.1913 5.00435 81.1087 5 80.1478C5 79.0652 6.08845 79.0087 6.49771 79.0087V79ZM10.747 79.6C10.8123 79.5696 11.2129 79.4913 11.1955 79.813C11.1824 80.1348 10.9386 80.6913 10.9037 80.9348C11.2303 80.7696 11.6918 80.2087 11.6918 80.2087C11.6918 80.2087 12.0183 80.2522 11.9182 80.4522C11.818 80.6522 11.1519 81.1435 11.1519 81.1435C11.1519 81.1435 11.3043 82.5696 12.1707 82.5696C12.6453 82.5696 12.8499 82.3609 12.937 82.287C12.9587 82.2696 12.9762 82.2652 12.9849 82.2783C13.0197 82.387 12.9936 82.5043 12.9152 82.5913C12.8194 82.6957 12.5974 82.8217 12.1533 82.8261C11.3653 82.8261 10.9255 82.1957 10.8123 81.2609C10.7252 81.5348 10.7339 81.9826 10.7209 82.2C10.6948 82.2435 10.2507 82.4174 10.2158 82.1174C10.2158 82.0913 10.2158 82.0696 10.2158 82.0435C10.1331 82.1609 10.0199 82.2826 9.91108 82.2826C9.71951 82.2826 9.63679 82.1217 9.60196 82.0391C9.57584 82.0696 9.3625 82.287 9.08821 82.287C8.92277 82.2913 8.77474 82.1957 8.70943 82.0435C8.57011 82.1435 8.32195 82.2913 8.03895 82.2913C7.73418 82.2913 7.66017 82.1087 7.66017 81.9565C7.66017 81.713 7.84303 80.987 7.84303 80.987C7.84303 80.987 7.48602 81.1304 7.36411 81.1348C7.19431 81.1348 7.11159 80.8217 7.11159 80.813C7.11159 80.8087 7.11159 80.8 7.1203 80.8C7.22044 80.7609 7.94317 80.513 7.94317 80.513C7.94317 80.513 8.07813 79.9826 8.09555 79.913C8.11296 79.8435 8.2131 79.7 8.33065 79.6565C8.41773 79.6217 8.50916 79.6 8.60059 79.5913C8.63107 79.5913 8.65284 79.6 8.65284 79.6174C8.65284 79.6348 8.47433 80.4087 8.47433 80.4087C8.47433 80.4087 8.84876 80.3217 8.98808 80.3217C9.09692 80.3217 9.15352 80.387 9.09257 80.4696C9.03162 80.5522 8.96196 80.6478 8.92712 80.6913C8.88794 80.7348 8.86182 80.7435 8.77039 80.7609C8.64413 80.787 8.36113 80.8565 8.36113 80.8565C8.36113 80.8565 8.13473 81.6783 8.13909 81.8174C8.13909 81.8957 8.16521 81.987 8.26099 81.987C8.35678 81.987 8.53964 81.8739 8.67025 81.7913C8.69202 81.1522 9.18835 80.7261 9.57584 80.7261C9.7021 80.7261 9.65421 80.8478 9.79788 80.8478H9.88931C9.94591 80.8478 10.0069 80.8522 10.0069 80.9957C10.0069 81.1957 9.89367 81.5261 9.89367 81.7348C9.89367 81.8826 9.91544 81.987 9.97204 81.987C10.0678 81.987 10.1767 81.8478 10.255 81.7261C10.3813 81.0304 10.734 79.7609 10.734 79.6174L10.747 79.6ZM12.5016 80.7C12.7672 80.6783 12.9326 80.8217 12.9631 80.9C12.9936 80.9783 12.9892 81.1609 12.9152 81.2913C12.6845 81.7044 12.1097 81.6304 12.1097 81.6304C12.1097 81.6304 12.0444 81.9565 12.3405 81.9565C12.593 81.9565 12.7062 81.8304 12.8151 81.7261C12.8586 81.7261 12.9936 81.8652 12.9326 81.9609C12.8847 82.0348 12.6191 82.2565 12.2795 82.2609C11.7397 82.2609 11.6047 81.8 11.6744 81.4696C11.7658 81.0609 12.1751 80.7217 12.5016 80.6957V80.7ZM9.6455 80.987C9.32332 80.987 8.82699 81.9696 9.20577 81.9652C9.61938 81.9652 9.6455 81.1826 9.6455 81.0043V80.987ZM12.6409 80.8913C12.4232 80.9 12.1751 81.3174 12.1533 81.5C12.4798 81.513 12.654 81.1957 12.6757 81.0696C12.6888 80.9739 12.6932 80.887 12.6409 80.887V80.8913Z" fill="white"/>
<path d="M46.1444 79.3778L46.6412 80.278L47.6518 80.4733C47.7792 80.4988 47.8302 80.6559 47.741 80.7494L47.0361 81.5009L47.1635 82.5243C47.1805 82.6559 47.0446 82.7494 46.93 82.6942L46 82.2568L45.0701 82.6942C44.9512 82.7494 44.8196 82.6517 44.8366 82.5243L44.9639 81.5009L44.2591 80.7494C44.1699 80.6559 44.2208 80.4988 44.3482 80.4733L45.3588 80.278L45.8557 79.3778C45.9194 79.2632 46.085 79.2632 46.1444 79.3778Z" fill="#FFC200"/>
<path d="M46 79.2929C46.0552 79.2929 46.1147 79.3226 46.1444 79.3778L46.6412 80.278L47.6518 80.4733C47.7792 80.4988 47.8302 80.6559 47.741 80.7494L47.0361 81.5009L47.1635 82.5243C47.1763 82.6262 47.0955 82.7111 46.9979 82.7111C46.9766 82.7111 46.9512 82.7069 46.9257 82.6942L45.9957 82.2568L45.0658 82.6942C45.0403 82.7069 45.0191 82.7111 44.9936 82.7111C44.9002 82.7111 44.8153 82.6262 44.828 82.5243L44.9554 81.5009L44.2505 80.7494C44.1613 80.6559 44.2123 80.4988 44.3397 80.4733L45.3503 80.278L45.8471 79.3778C45.8768 79.3226 45.9363 79.2929 45.9915 79.2929M46 79.0806C45.8641 79.0806 45.7367 79.157 45.6688 79.2759L45.2187 80.0912L44.3057 80.2653C44.1698 80.2908 44.0594 80.3884 44.017 80.5201C43.9745 80.6517 44.0085 80.7961 44.1019 80.8937L44.7388 81.5731L44.6242 82.4946C44.6115 82.6007 44.6454 82.7111 44.7134 82.7918C44.7856 82.8725 44.8875 82.9192 44.9979 82.9192C45.0531 82.9192 45.1083 82.9065 45.1592 82.881L46 82.4861L46.8408 82.881C46.8917 82.9065 46.9469 82.9192 47.0021 82.9192C47.1125 82.9192 47.2144 82.8725 47.2866 82.7918C47.3588 82.7111 47.3928 82.6007 47.3758 82.4946L47.2611 81.5731L47.8981 80.8937C47.9915 80.7918 48.0255 80.6474 47.983 80.5201C47.9405 80.3884 47.8301 80.2908 47.6943 80.2653L46.7813 80.0912L46.3312 79.2759C46.2633 79.157 46.1359 79.0806 46 79.0806Z" fill="#213743"/>
<path d="M46 79.8152V80.9744C46 81.0678 46.0892 81.1315 46.1784 81.106L47.2187 80.7706C47.2739 80.7536 47.2697 80.6729 47.2102 80.6602L46.5563 80.5413C46.4969 80.5286 46.4417 80.4903 46.4119 80.4351L46.085 79.7939C46.0637 79.7515 45.9958 79.7642 45.9958 79.8152H46Z" fill="#FFEBB8"/>
<path d="M46 81.4924V82.0699C46 82.1039 46.017 82.1294 46.0467 82.1464L46.7983 82.5073C46.8365 82.5243 46.8705 82.4818 46.845 82.4479L46.0934 81.4627C46.0637 81.4245 46 81.4457 46 81.4924Z" fill="#FF7F00"/>
<path d="M51.1444 79.3778L51.6412 80.278L52.6518 80.4733C52.7792 80.4988 52.8302 80.6559 52.741 80.7494L52.0361 81.5009L52.1635 82.5243C52.1805 82.6559 52.0446 82.7494 51.93 82.6942L51 82.2568L50.0701 82.6942C49.9512 82.7494 49.8196 82.6517 49.8366 82.5243L49.9639 81.5009L49.2591 80.7494C49.1699 80.6559 49.2208 80.4988 49.3482 80.4733L50.3588 80.278L50.8557 79.3778C50.9194 79.2632 51.085 79.2632 51.1444 79.3778Z" fill="#FFC200"/>
<path d="M51 79.2929C51.0552 79.2929 51.1147 79.3226 51.1444 79.3778L51.6412 80.278L52.6518 80.4733C52.7792 80.4988 52.8302 80.6559 52.741 80.7494L52.0361 81.5009L52.1635 82.5243C52.1763 82.6262 52.0955 82.7111 51.9979 82.7111C51.9766 82.7111 51.9512 82.7069 51.9257 82.6942L50.9957 82.2568L50.0658 82.6942C50.0403 82.7069 50.0191 82.7111 49.9936 82.7111C49.9002 82.7111 49.8153 82.6262 49.828 82.5243L49.9554 81.5009L49.2505 80.7494C49.1613 80.6559 49.2123 80.4988 49.3397 80.4733L50.3503 80.278L50.8471 79.3778C50.8768 79.3226 50.9363 79.2929 50.9915 79.2929M51 79.0806C50.8641 79.0806 50.7367 79.157 50.6688 79.2759L50.2187 80.0912L49.3057 80.2653C49.1698 80.2908 49.0594 80.3884 49.017 80.5201C48.9745 80.6517 49.0085 80.7961 49.1019 80.8937L49.7388 81.5731L49.6242 82.4946C49.6115 82.6007 49.6454 82.7111 49.7134 82.7918C49.7856 82.8725 49.8875 82.9192 49.9979 82.9192C50.0531 82.9192 50.1083 82.9065 50.1592 82.881L51 82.4861L51.8408 82.881C51.8917 82.9065 51.9469 82.9192 52.0021 82.9192C52.1125 82.9192 52.2144 82.8725 52.2866 82.7918C52.3588 82.7111 52.3928 82.6007 52.3758 82.4946L52.2611 81.5731L52.8981 80.8937C52.9915 80.7918 53.0255 80.6474 52.983 80.5201C52.9405 80.3884 52.8301 80.2908 52.6943 80.2653L51.7813 80.0912L51.3312 79.2759C51.2633 79.157 51.1359 79.0806 51 79.0806Z" fill="#213743"/>
<path d="M51 79.8152V80.9744C51 81.0678 51.0892 81.1315 51.1784 81.106L52.2187 80.7706C52.2739 80.7536 52.2697 80.6729 52.2102 80.6602L51.5563 80.5413C51.4969 80.5286 51.4417 80.4903 51.4119 80.4351L51.085 79.7939C51.0637 79.7515 50.9958 79.7642 50.9958 79.8152H51Z" fill="#FFEBB8"/>
<path d="M51 81.4924V82.0699C51 82.1039 51.017 82.1294 51.0467 82.1464L51.7983 82.5073C51.8365 82.5243 51.8705 82.4818 51.845 82.4479L51.0934 81.4627C51.0637 81.4245 51 81.4457 51 81.4924Z" fill="#FF7F00"/>
<path d="M56.1444 79.3778L56.6412 80.278L57.6518 80.4733C57.7792 80.4988 57.8302 80.6559 57.741 80.7494L57.0361 81.5009L57.1635 82.5243C57.1805 82.6559 57.0446 82.7494 56.93 82.6942L56 82.2568L55.0701 82.6942C54.9512 82.7494 54.8196 82.6517 54.8366 82.5243L54.9639 81.5009L54.2591 80.7494C54.1699 80.6559 54.2208 80.4988 54.3482 80.4733L55.3588 80.278L55.8557 79.3778C55.9194 79.2632 56.085 79.2632 56.1444 79.3778Z" fill="#FFC200"/>
<path d="M56 79.2929C56.0552 79.2929 56.1147 79.3226 56.1444 79.3778L56.6412 80.278L57.6518 80.4733C57.7792 80.4988 57.8302 80.6559 57.741 80.7494L57.0361 81.5009L57.1635 82.5243C57.1763 82.6262 57.0955 82.7111 56.9979 82.7111C56.9766 82.7111 56.9512 82.7069 56.9257 82.6942L55.9957 82.2568L55.0658 82.6942C55.0403 82.7069 55.0191 82.7111 54.9936 82.7111C54.9002 82.7111 54.8153 82.6262 54.828 82.5243L54.9554 81.5009L54.2505 80.7494C54.1613 80.6559 54.2123 80.4988 54.3397 80.4733L55.3503 80.278L55.8471 79.3778C55.8768 79.3226 55.9363 79.2929 55.9915 79.2929M56 79.0806C55.8641 79.0806 55.7367 79.157 55.6688 79.2759L55.2187 80.0912L54.3057 80.2653C54.1698 80.2908 54.0594 80.3884 54.017 80.5201C53.9745 80.6517 54.0085 80.7961 54.1019 80.8937L54.7388 81.5731L54.6242 82.4946C54.6115 82.6007 54.6454 82.7111 54.7134 82.7918C54.7856 82.8725 54.8875 82.9192 54.9979 82.9192C55.0531 82.9192 55.1083 82.9065 55.1592 82.881L56 82.4861L56.8408 82.881C56.8917 82.9065 56.9469 82.9192 57.0021 82.9192C57.1125 82.9192 57.2144 82.8725 57.2866 82.7918C57.3588 82.7111 57.3928 82.6007 57.3758 82.4946L57.2611 81.5731L57.8981 80.8937C57.9915 80.7918 58.0255 80.6474 57.983 80.5201C57.9405 80.3884 57.8301 80.2908 57.6943 80.2653L56.7813 80.0912L56.3312 79.2759C56.2633 79.157 56.1359 79.0806 56 79.0806Z" fill="#213743"/>
<path d="M56 79.8152V80.9744C56 81.0678 56.0892 81.1315 56.1784 81.106L57.2187 80.7706C57.2739 80.7536 57.2697 80.6729 57.2102 80.6602L56.5563 80.5413C56.4969 80.5286 56.4417 80.4903 56.4119 80.4351L56.085 79.7939C56.0637 79.7515 55.9958 79.7642 55.9958 79.8152H56Z" fill="#FFEBB8"/>
<path d="M56 81.4924V82.0699C56 82.1039 56.017 82.1294 56.0467 82.1464L56.7983 82.5073C56.8365 82.5243 56.8705 82.4818 56.845 82.4479L56.0934 81.4627C56.0637 81.4245 56 81.4457 56 81.4924Z" fill="#FF7F00"/>
<rect x="13" y="62" width="37" height="13" rx="6.5" fill="#2F4553"/>
<path d="M29.1086 70H27.9746L29.3306 66.898H27.3806V65.998H30.5186V66.712L29.1086 70ZM32.586 70.072C31.878 70.072 31.344 69.856 30.972 69.49L31.536 68.77C31.812 69.022 32.19 69.16 32.574 69.16C33.012 69.16 33.228 68.944 33.228 68.698C33.228 68.428 33.018 68.236 32.604 68.236C32.286 68.236 32.034 68.326 31.812 68.536L31.098 68.362V65.998H34.002V66.898H32.13V67.672C32.322 67.486 32.634 67.354 32.988 67.354C33.666 67.354 34.278 67.852 34.278 68.656C34.278 69.52 33.624 70.072 32.586 70.072ZM37.6631 70H36.6491L36.0911 69.124L35.5271 70H34.5191L35.5091 68.512L34.5791 67.102H35.5931L36.0911 67.888L36.5831 67.102H37.5971L36.6731 68.512L37.6631 70Z" fill="white"/>
<path d="M7.69 11H5.33V7.665H7.69V8.29H6.04V8.995H7.655V9.62H6.04V10.375H7.69V11ZM9.61004 11.06C9.32504 11.06 9.06004 10.94 8.86504 10.69V11.92H8.23004V8.585H8.86504V8.89C9.05004 8.655 9.31504 8.525 9.61004 8.525C10.23 8.525 10.68 8.985 10.68 9.79C10.68 10.595 10.23 11.06 9.61004 11.06ZM9.41004 10.495C9.77504 10.495 10.02 10.21 10.02 9.79C10.02 9.375 9.77504 9.09 9.41004 9.09C9.20504 9.09 8.97004 9.21 8.86504 9.365V10.22C8.97004 10.37 9.20504 10.495 9.41004 10.495ZM11.4601 8.325C11.2551 8.325 11.0801 8.155 11.0801 7.945C11.0801 7.735 11.2551 7.57 11.4601 7.57C11.6701 7.57 11.8401 7.735 11.8401 7.945C11.8401 8.155 11.6701 8.325 11.4601 8.325ZM11.7801 11H11.1451V8.585H11.7801V11ZM13.5347 11.06C12.7897 11.06 12.2547 10.535 12.2547 9.79C12.2547 9.05 12.7897 8.525 13.5347 8.525C14.0297 8.525 14.3297 8.74 14.4897 8.96L14.0747 9.35C13.9597 9.18 13.7847 9.09 13.5647 9.09C13.1797 9.09 12.9097 9.37 12.9097 9.79C12.9097 10.21 13.1797 10.495 13.5647 10.495C13.7847 10.495 13.9597 10.395 14.0747 10.235L14.4897 10.62C14.3297 10.845 14.0297 11.06 13.5347 11.06Z" fill="#05080A"/>
<path d="M49.7874 11H49.3354L47.9434 9.096V11H47.4754V8.332H47.9554L49.3194 10.184V8.332H49.7874V11ZM51.2143 11.048C50.6023 11.048 50.2223 10.588 50.2223 10.032C50.2223 9.48 50.6023 9.02 51.2143 9.02C51.8343 9.02 52.2103 9.48 52.2103 10.032C52.2103 10.588 51.8343 11.048 51.2143 11.048ZM51.2143 10.676C51.5743 10.676 51.7743 10.376 51.7743 10.032C51.7743 9.692 51.5743 9.392 51.2143 9.392C50.8583 9.392 50.6583 9.692 50.6583 10.032C50.6583 10.376 50.8583 10.676 51.2143 10.676ZM52.8318 11.044C52.6798 11.044 52.5518 10.916 52.5518 10.764C52.5518 10.612 52.6798 10.484 52.8318 10.484C52.9838 10.484 53.1118 10.612 53.1118 10.764C53.1118 10.916 52.9838 11.044 52.8318 11.044ZM55.5876 11H55.1196V8.94L54.6836 9.392L54.4116 9.108L55.1796 8.332H55.5876V11ZM56.8671 11H56.3551L57.3631 8.744H55.9791V8.332H57.9031V8.656L56.8671 11Z" fill="white"/>
<defs>
<linearGradient id="paint0_linear_26835_29180" x1="37.8344" y1="86.256" x2="23.263" y2="1.76" gradientUnits="userSpaceOnUse">
<stop stop-color="#55EEFF"/>
<stop offset="0.09" stop-color="#6CABFF"/>
<stop offset="0.23" stop-color="#8C4FFF"/>
<stop offset="0.32" stop-color="#A016FF"/>
<stop offset="0.37" stop-color="#A800FF"/>
<stop offset="0.44" stop-color="#C043D4"/>
<stop offset="0.51" stop-color="#D680AF"/>
<stop offset="0.58" stop-color="#E8B091"/>
<stop offset="0.64" stop-color="#F4D27B"/>
<stop offset="0.69" stop-color="#FCE76E"/>
<stop offset="0.72" stop-color="#FFEF6A"/>
<stop offset="0.81" stop-color="#BCF589"/>
<stop offset="0.9" stop-color="#84FAA3"/>
<stop offset="0.97" stop-color="#62FDB3"/>
<stop offset="1" stop-color="#55FFBA"/>
</linearGradient>
<linearGradient id="paint1_linear_26835_29180" x1="57.77" y1="86.3601" x2="26.53" y2="13.7601" gradientUnits="userSpaceOnUse">
<stop stop-color="#55EEFF"/>
<stop offset="0.09" stop-color="#6CABFF"/>
<stop offset="0.23" stop-color="#8C4FFF"/>
<stop offset="0.32" stop-color="#A016FF"/>
<stop offset="0.37" stop-color="#A800FF"/>
<stop offset="0.44" stop-color="#C043D4"/>
<stop offset="0.51" stop-color="#D680AF"/>
<stop offset="0.58" stop-color="#E8B091"/>
<stop offset="0.64" stop-color="#F4D27B"/>
<stop offset="0.69" stop-color="#FCE76E"/>
<stop offset="0.72" stop-color="#FFEF6A"/>
<stop offset="0.81" stop-color="#BCF589"/>
<stop offset="0.9" stop-color="#84FAA3"/>
<stop offset="0.97" stop-color="#62FDB3"/>
<stop offset="1" stop-color="#55FFBA"/>
</linearGradient>
<linearGradient id="paint2_linear_26835_29180" x1="51.08" y1="89.51" x2="19.74" y2="16.67" gradientUnits="userSpaceOnUse">
<stop stop-color="#55EEFF"/>
<stop offset="0.09" stop-color="#6CABFF"/>
<stop offset="0.23" stop-color="#8C4FFF"/>
<stop offset="0.32" stop-color="#A016FF"/>
<stop offset="0.37" stop-color="#A800FF"/>
<stop offset="0.44" stop-color="#C043D4"/>
<stop offset="0.51" stop-color="#D680AF"/>
<stop offset="0.58" stop-color="#E8B091"/>
<stop offset="0.64" stop-color="#F4D27B"/>
<stop offset="0.69" stop-color="#FCE76E"/>
<stop offset="0.72" stop-color="#FFEF6A"/>
<stop offset="0.81" stop-color="#BCF589"/>
<stop offset="0.9" stop-color="#84FAA3"/>
<stop offset="0.97" stop-color="#62FDB3"/>
<stop offset="1" stop-color="#55FFBA"/>
</linearGradient>
<clipPath id="clip0_26835_29180">
<rect width="63" height="88" fill="white"/>
</clipPath>
<clipPath id="clip1_26835_29180">
<rect width="63" height="88" fill="white"/>
</clipPath>
</defs>
</svg>
