<svg width="63" height="88" viewBox="0 0 63 88" fill="none" xmlns="http://www.w3.org/2000/svg">
<rect width="63" height="88" rx="4" fill="url(#paint0_linear_26835_29181)"/>
<g clip-path="url(#clip0_26835_29181)">
<g clip-path="url(#clip1_26835_29181)">
<path d="M56.44 0.740234H6.56C3.22972 0.740234 0.529999 3.43996 0.529999 6.77023V81.2302C0.529999 84.5605 3.22972 87.2602 6.56 87.2602H56.44C59.7703 87.2602 62.47 84.5605 62.47 81.2302V6.77023C62.47 3.43996 59.7703 0.740234 56.44 0.740234Z" fill="url(#paint1_linear_26835_29181)"/>
<path d="M8.07001 37.0401L19.88 35.3901L16.17 40.5001L9.14001 40.0601L8.07001 37.0401Z" fill="#FF5500"/>
<path d="M1.43 30.9404C1.43 30.9404 25.74 54.5204 61.8 48.6204V83.9804L58.57 86.8804H3.99L0.410004 83.2504L1.43 30.9404Z" fill="url(#paint2_linear_26835_29181)"/>
<path d="M8.46001 52.4602L16.88 53.9502L17.26 52.2502L14.39 47.6602L8.23001 50.3802L8.07001 51.9602L8.46001 52.4602Z" fill="#1A2C38"/>
<path d="M8.05 68.6503C7.34 68.8303 6.89 68.5003 6.89 68.5003C7.63 68.5003 8.25 67.3103 8.25 67.3103C6.79 67.7703 5.59 67.1003 5.59 67.1003C6.3 67.1003 6.93 65.9403 6.93 65.9403L5.87 65.5303C4.1 65.6703 2.25 65.8703 0.529999 66.3703L0.719999 70.8303C2.46 70.0803 4.79 69.8803 7.09 69.7203C7.76 69.2203 8.05 68.6403 8.05 68.6403V68.6503Z" fill="#8EA3B2"/>
<path d="M19.7 58.6901C19.48 56.0301 17.88 53.9601 15.18 52.8701C12.14 51.6401 8.93 51.7901 5.91 53.3201C5.1 53.7301 4.4 54.1901 3.84 54.6101C2.96 55.2701 2.9 56.5801 3.72 57.3301C4.3 57.8601 5.15 57.9401 5.83 57.5501C9.98 55.0901 13.57 56.8401 13.57 56.8401C15.11 57.4701 15.38 58.3501 15.43 59.0501C15.6 61.1201 13.86 63.7401 12.61 64.5101C11.58 65.1401 9.33 65.2901 7.16 65.4401C6.74 65.4701 6.3 65.5001 5.87 65.5401L6.93 65.9501C6.93 65.9501 6.29 67.1101 5.59 67.1101C5.59 67.1101 6.79 67.7801 8.25 67.3201C8.25 67.3201 7.63 68.5101 6.89 68.5101C6.89 68.5101 7.35 68.8401 8.05 68.6601C8.05 68.6601 7.77 69.2301 7.09 69.7401C7.21 69.7401 7.33 69.7201 7.45 69.7101C10.26 69.5101 12.91 69.3301 14.83 68.1601C17.42 66.5801 19.99 62.4001 19.69 58.7001L19.7 58.6901Z" fill="white"/>
<path d="M8.48001 52.0504L8.29001 52.2204C8.29001 52.2204 8.87001 53.2204 9.77001 53.4204C10.67 53.6204 11.99 52.2704 12.36 52.6504C12.73 53.0304 12.79 54.1004 12.79 54.1004C12.79 54.1004 13.75 54.1604 14.17 52.9904L14.26 51.9404L8.47001 52.0504H8.48001Z" fill="#1A2C38"/>
<path d="M19.2 48.8603C19.2 48.8603 19.31 46.3203 15.51 45.0603C11.71 43.8003 9.25 46.8103 8.84 47.4603C8.43 48.1103 7.05 51.2703 8.45 52.4603C8.45 52.4603 7.91 51.6303 8.35 51.1403C8.79 50.6503 9.58 50.2203 10.42 50.5603C11.26 50.9003 12.29 50.8803 12.75 50.3003C13.21 49.7203 13.53 49.2503 13.98 48.8403L19.2 48.8703V48.8603Z" fill="#FFBD00"/>
<path d="M8.42999 49.67C8.42999 48.77 9.56999 48.07 10.72 47.98C11.87 47.89 12.52 48.51 12.56 48.93C12.6 49.35 12.26 50.47 11.21 50C9.92999 49.43 8.42999 50.08 8.42999 49.66V49.67Z" fill="#FF5500"/>
<path d="M16.4535 46.2381C16.4976 46.0104 15.8522 45.6938 15.0118 45.5309C14.1714 45.368 13.4543 45.4205 13.4102 45.6482C13.366 45.8759 14.0115 46.1926 14.8519 46.3555C15.6923 46.5184 16.4094 46.4659 16.4535 46.2381Z" fill="white"/>
<path d="M14.4 51.0203C14.4 51.0203 13.43 52.7903 14.12 53.1903C14.81 53.5903 15.63 52.7603 15.42 53.7003C15.21 54.6403 15.89 54.5503 16.08 54.5003C16.27 54.4503 16.68 53.7903 16.3 53.1003C15.92 52.4103 15.22 52.8103 14.91 52.7303C14.6 52.6503 14.37 52.6803 14.57 51.9703C14.77 51.2603 14.98 50.8003 14.98 50.8003L14.4 51.0403V51.0203Z" fill="#FFBD00"/>
<path d="M19.56 49.6501C19.56 49.6501 19.24 47.7801 16.65 47.6001C14.06 47.4201 13.45 49.7701 13.57 50.2101C13.69 50.6501 14.17 51.3401 15.21 50.8901L19.55 49.6601L19.56 49.6501Z" fill="#FF7F00"/>
<path d="M17.04 47.7501C17.04 47.7501 17.36 47.3901 17.74 47.3901L17.49 47.9701L17.03 47.7501H17.04Z" fill="#FF7F00"/>
<path d="M16.87 52.5204C16.87 52.5204 16.32 53.3504 16.32 53.8604C16.32 54.3704 17.15 54.4604 17.28 53.8804C17.41 53.3004 17.42 52.4204 17.42 52.4204L16.87 52.5204Z" fill="#FFBD00"/>
<path d="M17.23 48.8304C17.23 48.8304 15.55 48.9504 15.26 50.3104C14.97 51.6704 15.92 52.3704 16.95 52.8104C17.98 53.2504 19.29 53.3104 19.86 52.2004C20.43 51.0904 20.07 50.1104 19.66 49.7504C19.25 49.3904 18.02 48.9704 17.83 48.9304C17.83 48.9304 18.6 47.6404 17.96 47.4104C17.32 47.1804 17.22 48.8504 17.22 48.8504L17.23 48.8304Z" fill="#FFBD00"/>
<path d="M19.81 49.8902C19.81 49.8902 20.09 48.4602 20.69 48.7302C21.29 49.0002 20.38 50.1802 19.96 50.4202L19.81 49.8902Z" fill="#FFBD00"/>
<path d="M16.6387 51.964C17.1236 51.8837 17.4348 51.3239 17.3338 50.7137C17.2328 50.1034 16.7578 49.6738 16.2728 49.7541C15.7879 49.8343 15.4767 50.3941 15.5777 51.0044C15.6787 51.6146 16.1537 52.0443 16.6387 51.964Z" fill="#1A2C38"/>
<path d="M16.7064 51.4827C16.9189 51.4476 17.0553 51.2026 17.0111 50.9356C16.9669 50.6686 16.7588 50.4807 16.5463 50.5159C16.3338 50.5511 16.1974 50.796 16.2416 51.063C16.2858 51.33 16.4939 51.5179 16.7064 51.4827Z" fill="white"/>
<path d="M11.54 51.65C11.54 51.65 11.69 51.08 10.6 50.95C9.51 50.82 9.62 51.78 9.31 52.12C9 52.46 8.07 52.42 8.27 53.03C8.47 53.64 9.23 53.74 9.67 53.2C10.11 52.66 10.07 52.1 10.32 51.87C10.57 51.64 11.52 52.09 11.54 51.66V51.65Z" fill="#FFBD00"/>
<path d="M13.59 51.4101C13.59 51.4101 13.53 50.9701 12.66 51.0201C11.79 51.0701 11.62 52.1101 11.93 52.6201C12.24 53.1301 12.67 53.5301 12.24 53.6801C11.81 53.8301 11.78 54.1301 12.11 54.3401C12.44 54.5501 13.23 54.3701 13.28 53.7401C13.33 53.1101 12.51 52.5101 12.58 52.1001C12.65 51.6901 13.88 51.9401 13.6 51.4001L13.59 51.4101Z" fill="#FFBD00"/>
<path d="M3.92999 1.3501C2.85999 1.3501 1.42999 3.4401 1.42999 4.5001L1.99999 18.1901C1.99999 16.4301 3.42999 15.0001 5.18999 15.0001H33.59C34.8 15.0001 35.94 14.4501 36.7 13.5101L44.8 3.4801C45.56 2.5401 46.7 1.9901 47.91 1.9901L3.92999 1.3501Z" fill="url(#paint3_linear_26835_29181)"/>
<path d="M59 0H4C1.79 0 0 1.79 0 4V84C0 86.21 1.79 88 4 88H59C61.21 88 63 86.21 63 84V4C63 1.79 61.21 0 59 0ZM61 82.81C61 84.57 59.57 86 57.81 86H5.19C3.43 86 2 84.57 2 82.81V16.9C2 8.67 8.67 2 16.9 2H57.81C59.57 2 61 3.43 61 5.19V82.81Z" fill="url(#paint4_linear_26835_29181)"/>
<mask id="mask0_26835_29181" style="mask-type:luminance" maskUnits="userSpaceOnUse" x="0" y="0" width="63" height="88">
<path d="M59 0H4C1.79 0 0 1.79 0 4V84C0 86.21 1.79 88 4 88H59C61.21 88 63 86.21 63 84V4C63 1.79 61.21 0 59 0ZM61 82.81C61 84.57 59.57 86 57.81 86H5.19C3.43 86 2 84.57 2 82.81V18.19C2 16.43 3.43 15 5.19 15H33.59C34.8 15 35.94 14.45 36.7 13.51L44.8 3.48C45.56 2.54 46.7 1.99 47.91 1.99H57.81C59.57 1.99 61 3.42 61 5.18V82.8V82.81Z" fill="white"/>
</mask>
<g mask="url(#mask0_26835_29181)">
<path d="M68.37 47.3101V26.6401L4.45999 90.5501H25.13L68.37 47.3101Z" fill="white"/>
<path d="M64.66 -2.29004H55.22L-2.92001 55.84V66.18L65.46 -2.20004C65.2 -2.26004 64.93 -2.29004 64.66 -2.29004Z" fill="white"/>
<path d="M68.37 69.2298V61.5498L39.37 90.5498H47.05L68.37 69.2298Z" fill="white"/>
</g>
<path d="M57.53 85.9899H47.9C47.9 85.9899 45.87 84.3199 45.8 80.8399L53.66 69.1099L53.76 71.9199L54.07 80.7699L57.54 85.9899H57.53Z" fill="#557086"/>
<path d="M57.71 53.9302C57.41 55.8902 57.06 57.7302 56.67 59.4702C55.96 62.5702 55.12 65.3302 54.18 67.7902C50.37 77.8502 45.16 82.8502 42.53 84.8702C41.5 85.6602 40.87 85.9902 40.87 85.9902H7.81C14.99 64.3102 26.3 60.9802 28.34 59.5302C30.39 58.0802 31.73 57.2802 31.73 57.2802L48.54 55.1102L57.71 53.9302Z" fill="#8EA3B2"/>
<path d="M54.18 67.79C50.37 77.85 45.16 82.85 42.53 84.87C41.5 85.66 40.87 85.99 40.87 85.99H29.9L25.76 80.78L28.88 73.38L33.92 73.82L31.3 78.22C31.3 78.22 45.39 87.23 54.19 67.8L54.18 67.79Z" fill="#1A2C38"/>
<path d="M29.72 78.0201L28.62 77.4401C28.62 77.4401 29.89 77.8401 30.43 77.3101L29.72 78.0201Z" fill="#2C094E"/>
<path d="M31.06 85.99H23.37C21.92 85.08 20.63 84.06 19.73 82.94C15.82 78.11 26.88 63.73 26.88 63.73L28.96 65.59L22.73 74.97L29.53 84.01L31.07 85.99H31.06Z" fill="#1A2C38"/>
<path d="M53.76 71.9199C53.69 72.0299 48.05 80.7299 48.92 85.9899H47.9C47.9 85.9899 45.87 84.3199 45.8 80.8399L53.66 69.1099L53.76 71.9199Z" fill="#1A2C38"/>
<path d="M57.71 53.9302C57.41 55.8902 57.06 57.7302 56.67 59.4702C49.56 72.4602 37.02 63.2702 37.02 63.2702L48.54 55.1202L57.71 53.9402V53.9302Z" fill="#1A2C38"/>
<path d="M33.87 55.1602H33.82C33.59 55.1102 33.35 55.1702 33.18 55.3302L31.94 56.4402C31.7 56.6502 31.62 56.9902 31.74 57.2902C32.5 59.1702 35.77 63.6102 40.37 64.7802C45.49 66.0802 49.46 65.1202 54.29 60.0002C59.12 54.8802 58.66 47.7702 58.47 44.5802C58.28 41.3902 57.32 41.2402 57.32 41.2402L33.88 55.1602H33.87Z" fill="#FF5500"/>
<path d="M55.36 35.24C55.36 35.24 55.78 34.97 56.23 36.62C56.68 38.27 57.78 41.81 57.49 45.11C57.2 48.41 56.39 54.7 52.53 58.4C48.67 62.1 44.83 64.01 40.25 62.23C35.67 60.45 33.45 55.48 33.45 55.48L34.43 54.71L55.36 35.23V35.24Z" fill="#FFBD00"/>
<path d="M55.47 35.5298C55.47 35.5298 57.55 54.6798 44.45 56.9898C31.35 59.2998 39.63 45.3898 39.63 45.3898L55.47 35.5298Z" fill="#FF5500"/>
<path d="M37.02 27.9298C37.02 27.9298 35.58 25.9598 32.29 23.9098C29 21.8598 28.38 18.5098 28.47 17.2798C28.47 17.2798 26.2 20.4498 27.26 24.7998C28.32 29.1498 28.18 26.1998 28.18 31.2298C28.18 36.2598 28.73 36.6598 28.73 36.6598L36.15 33.8398L37.01 27.9298H37.02Z" fill="white"/>
<path d="M55.43 36.6202C53.76 46.6502 44.67 52.6102 41.01 54.6402C39.98 55.2102 38.81 55.5202 37.63 55.4602C36.84 55.4202 36.17 55.3102 35.6 55.1502C34.59 54.8702 33.88 54.4402 33.31 54.0202C32.98 53.7802 32.69 53.5402 32.42 53.3302C31.94 52.9702 31.7 52.4002 31.57 51.8402C31.39 51.0202 31.48 50.2302 31.48 50.2302C31.48 50.2302 30.87 49.2502 30.18 48.1202C30.01 47.8402 29.84 47.5502 29.67 47.2702C29.02 46.1902 28.42 45.1502 28.29 44.8202C28.17 44.5002 27.79 43.4102 27.73 41.8202C27.65 39.7602 28.12 36.8702 30.4 33.7302C30.57 33.5002 30.75 33.2602 30.93 33.0302C31.37 32.4902 31.82 31.9802 32.28 31.5102C36.78 26.9402 42.12 25.9002 42.12 25.9002L43.74 25.4702L46.01 23.0502L49.1 17.7802L49.97 14.4502L50.55 14.7402L51.46 17.2702L52.04 20.5402L51.7 23.3402L52.37 26.9702L53.65 28.7202L55.34 35.2302C55.46 35.6802 55.49 36.1602 55.41 36.6202H55.43Z" fill="#8EA3B2"/>
<path d="M31.67 48.3601C31.61 49.3201 31.49 50.2401 31.49 50.2401C31.49 50.2401 30.88 49.2601 30.19 48.1301C30.02 47.8501 29.85 47.5601 29.68 47.2801C29.03 46.2001 28.43 45.1601 28.3 44.8301C28.18 44.5101 27.8 43.4201 27.74 41.8301C27.82 43.0801 28.35 43.2901 28.35 43.2901L31.46 45.4001C31.47 45.4401 31.6 45.8701 31.69 46.9601C31.72 47.3501 31.71 47.8601 31.68 48.3601H31.67Z" fill="#557086"/>
<path d="M31.45 45.4L30.4 46.04L30.58 44.22C28.16 38.71 30.4 33.74 30.4 33.74C30.57 33.51 30.75 33.27 30.93 33.04C31.37 32.5 31.82 31.99 32.28 31.52C32.28 31.52 30.6 35.95 30.19 38.71C29.78 41.47 31.44 45.4 31.44 45.4H31.45Z" fill="#FFBD00"/>
<path d="M37.63 46.8201C37.63 46.8201 36.35 42.7001 36.86 40.5801C37.37 38.4601 40.35 30.7801 41.59 28.1401L42.51 29.1401L42.11 31.1901C42.11 31.1901 38.73 37.3901 38.09 39.1001C37.45 40.8101 37.15 42.5801 37.44 44.2201L38.73 44.6401L37.63 46.8201Z" fill="#FFBD00"/>
<path d="M33.28 53.79C33.28 53.79 33.77 55.98 35.87 55.6C37.97 55.22 38.93 54.26 38.93 54.26L33.28 53.79Z" fill="#1A2C38"/>
<path d="M39.96 54.1002C39.96 54.1002 42.97 55.7302 45.98 54.2902C48.99 52.8502 53.98 41.4102 53.98 41.4102L39.95 54.1002H39.96Z" fill="#1A2C38"/>
<path d="M55.43 36.62C53.67 47.2 43.64 53.26 40.45 54.94C39.8 55.28 39.08 55.47 38.34 55.48C37.22 55.48 36.33 55.36 35.6 55.15C34.59 54.87 33.88 54.44 33.31 54.02L34.16 53.3L35.9 51.97L37.12 51.65L37.48 51.62C37.48 51.62 37.6 48.08 37.96 46.56C38.31 45.05 45.37 39.89 45.37 39.89C45.37 39.89 51.49 37.15 47.75 34.32L45.01 33.1L43.74 25.48L46.01 23.06L49.1 17.79L49.97 14.46L50.55 14.75L51.46 17.28L52.04 20.55L51.7 23.35L52.37 26.98L53.65 28.73L55.34 35.24C55.46 35.69 55.49 36.17 55.41 36.63L55.43 36.62Z" fill="#557086"/>
<path d="M45.17 27.5198C45.17 27.5198 46.09 25.8598 48.24 26.2498L47.91 26.8598C47.91 26.8598 50.04 26.2198 50.92 26.5398C50.92 26.5398 50.85 28.2698 49.9 28.7998H51.43C51.43 28.7998 51.57 31.1198 50.38 31.5298L50.92 31.7998C50.92 31.7998 49.89 33.7398 46.35 33.4598L44.15 29.5398L45.17 27.5298V27.5198Z" fill="#1A2C38"/>
<path d="M37.79 47.7299C37.79 47.7299 37.01 43.9899 37.79 42.1899C38.57 40.3899 41.13 40.1299 41.84 40.0299C42.55 39.9299 44.96 39.9299 45.38 39.8999C45.38 39.8999 44.83 41.4199 44.38 42.3399C43.93 43.2599 42.02 45.0299 41.41 45.3999C40.8 45.7699 39.09 46.6099 38.67 47.4299C38.25 48.2499 38.04 48.1199 37.79 47.7399V47.7299Z" fill="#1A2C38"/>
<path d="M51.09 33.4098C51.09 33.4098 53.22 31.3298 52.25 27.7598C51.28 24.1898 51.19 23.0698 51.53 21.8198C51.87 20.5698 51.77 19.0698 50.47 15.2498C50.47 15.2498 48.83 20.3698 47.38 22.7398C46.24 24.5998 43.51 30.1798 47.77 34.3398C47.77 34.3398 45.5 35.3498 43.13 32.7498C40.76 30.1498 41.58 26.3198 42.6 25.2098C43.62 24.0998 48.83 19.7998 49.61 13.3198C49.61 13.3198 52.58 16.2698 52.52 20.5198C52.46 24.7698 52.51 24.9198 53.09 26.6098C53.67 28.2998 55.05 32.3498 51.11 33.4198L51.09 33.4098Z" fill="white"/>
<path d="M51.41 18.4402C51.41 18.4402 50.69 18.6602 50.48 18.0402C50.27 17.4202 50.36 16.4902 50.82 16.3202C51.28 16.1502 52.28 16.2502 52.45 16.6002C52.62 16.9502 52.67 17.9802 52.23 18.1302L52.17 17.8902C52.17 17.8902 51.65 17.8402 51.34 18.0902L51.43 18.4502L51.41 18.4402Z" fill="#FFBD00"/>
<path d="M37.03 51.9402C36.6 51.7902 35.75 52.2302 35.44 52.5202C35.13 52.8102 34.96 53.2202 34.88 54.0202C34.81 54.7902 35.56 55.1402 35.6 55.1502C34 54.7002 33.16 53.8902 32.42 53.3302C31.94 52.9702 31.7 52.4002 31.57 51.8402C32.04 52.8302 33.35 52.8002 33.93 52.6802C34.51 52.5602 35.4 51.9102 36.18 51.6202C36.95 51.3302 37.46 51.4702 37.49 51.6202C37.51 51.7602 37.47 52.0802 37.03 51.9302V51.9402Z" fill="#1A2C38"/>
<path d="M41.23 47.4202C41.5614 47.4202 41.83 47.1516 41.83 46.8202C41.83 46.4888 41.5614 46.2202 41.23 46.2202C40.8986 46.2202 40.63 46.4888 40.63 46.8202C40.63 47.1516 40.8986 47.4202 41.23 47.4202Z" fill="#FFBD00"/>
<path d="M30.24 47.8798C30.24 47.9698 30.22 48.0498 30.19 48.1298C30.02 47.8498 29.85 47.5598 29.68 47.2798C30 47.2998 30.25 47.5598 30.25 47.8798H30.24Z" fill="#FFBD00"/>
<path d="M42.51 46.3698C42.7309 46.3698 42.91 46.1907 42.91 45.9698C42.91 45.7489 42.7309 45.5698 42.51 45.5698C42.2891 45.5698 42.11 45.7489 42.11 45.9698C42.11 46.1907 42.2891 46.3698 42.51 46.3698Z" fill="#FFBD00"/>
<path d="M43.5 45.3901C43.6602 45.3901 43.79 45.2602 43.79 45.1001C43.79 44.9399 43.6602 44.8101 43.5 44.8101C43.3398 44.8101 43.21 44.9399 43.21 45.1001C43.21 45.2602 43.3398 45.3901 43.5 45.3901Z" fill="#FFBD00"/>
<path d="M43.79 42.2699C43.18 43.2799 42.4 44.4799 40.31 45.5699C39.47 46.0099 38.92 45.9799 38.55 45.7599C37.99 45.4299 37.86 44.6399 37.83 44.2699C37.83 44.2699 37.54 42.8599 38.47 41.8499C38.57 41.7399 38.69 41.6299 38.83 41.5299C39.05 41.3599 39.31 41.2199 39.59 41.0799C41 40.3999 42.91 40.1199 43.5 40.2999C43.73 40.3699 43.91 40.4999 44.02 40.6799C44.25 41.0299 44.2 41.5799 43.79 42.2499V42.2699Z" fill="#FFBD00"/>
<path d="M43.79 42.2702C43.18 43.2802 42.4 44.4802 40.31 45.5702C39.47 46.0102 38.92 45.9802 38.55 45.7602C38.26 45.3802 38.17 44.8502 38.16 44.5702C38.16 44.5702 37.87 43.1602 38.8 42.1502C38.9 42.0402 39.02 41.9302 39.16 41.8302C39.38 41.6602 39.64 41.5202 39.92 41.3802C41.33 40.7002 43.24 40.4202 43.83 40.6002C43.9 40.6202 43.97 40.6502 44.03 40.6902C44.26 41.0402 44.21 41.5902 43.8 42.2602L43.79 42.2702Z" fill="#FFDA83"/>
<path d="M26.88 63.7402C26.88 63.7402 16.95 78.9602 20.5 82.0102C24.05 85.0602 27.74 86.0002 27.74 86.0002H41.6C41.6 86.0002 36.98 81.8002 29.72 78.0302L33.91 73.8302C33.91 73.8302 34.13 59.5502 26.88 63.7502V63.7402Z" fill="#8EA3B2"/>
<path d="M40.1 44.3998C39.45 43.6998 38.48 41.8598 38.48 41.8598C38.58 41.7498 38.7 41.6398 38.84 41.5398C39.06 41.3698 39.32 41.2298 39.6 41.0898C39.67 41.6498 40.33 43.4998 40.52 44.1698C40.59 44.4098 40.28 44.5898 40.11 44.3998H40.1Z" fill="#1A2C38"/>
<path d="M31.67 48.3602C31.54 48.3902 31.37 48.3602 31.36 48.1302C31.34 47.8702 31.15 47.7102 30.94 47.5502C30.73 47.3902 30.36 47.2902 29.46 46.4702C28.56 45.6502 28.35 43.2802 28.35 43.2802C28.35 43.2802 29.56 43.1202 30.59 44.2102C30.92 44.5602 31.21 44.9802 31.46 45.3902C31.47 45.4302 31.6 45.8602 31.69 46.9502C31.72 47.3402 31.71 47.8502 31.68 48.3502L31.67 48.3602Z" fill="#1A2C38"/>
<path d="M31.44 46.82C31.08 47.92 29.46 46.1 29.46 46.1C29.46 46.1 29.45 46.09 29.44 46.08C29.23 45.85 28.95 45.32 28.89 44.41C28.84 43.64 29.6 43.88 30.02 44.1C30.11 44.15 30.19 44.2 30.24 44.24C30.31 44.3 30.48 44.45 30.66 44.66C30.81 44.83 30.97 45.04 31.12 45.27C31.41 45.74 31.62 46.3 31.45 46.83L31.44 46.82Z" fill="#FFBD00"/>
<path d="M31.44 46.8198C31.08 47.9198 29.46 46.0998 29.46 46.0998C29.46 46.0998 29.45 46.0898 29.44 46.0798C29.28 45.7898 29.14 45.3398 29.09 44.7098C29.04 43.9398 29.8 44.1798 30.22 44.3998C30.31 44.4498 30.39 44.4998 30.44 44.5398C30.51 44.5998 30.68 44.7498 30.86 44.9598C30.94 45.0498 31.03 45.1598 31.11 45.2698C31.4 45.7398 31.61 46.2998 31.44 46.8298V46.8198Z" fill="#FFDA83"/>
<path d="M30.7 46.3501C30.47 45.6501 30.02 44.1001 30.02 44.1001C30.11 44.1501 30.19 44.2001 30.24 44.2401C30.31 44.3001 30.48 44.4501 30.66 44.6601C30.75 45.1001 30.97 46.0301 30.97 46.3101C30.97 46.4701 30.74 46.5101 30.69 46.3601L30.7 46.3501Z" fill="#1A2C38"/>
<path d="M17.42 67.1001C17.42 67.1001 12.79 77.7201 15.97 85.9901H7.81C7.81 85.9901 11.67 72.4101 17.42 67.1001Z" fill="#557086"/>
<path d="M10.49 38.7802L19.88 35.3902C20.14 35.2902 20.44 35.4202 20.55 35.6802L24.98 45.9702L10.5 38.7702L10.49 38.7802Z" fill="url(#paint5_linear_26835_29181)"/>
<path d="M13.3 37.3502L18.64 40.0302L14.19 36.9902L13.3 37.3502Z" fill="#FF5500"/>
<path d="M16.71 23.3501C15.84 22.5201 14.66 22.3101 13.59 22.1601C13.36 21.5001 13.41 20.8901 13.04 20.1901C12.71 19.5701 12.19 18.9501 11.49 18.4601C10.06 17.4701 7.85001 17.3301 7.37001 18.4101C7.37001 18.4101 6.52001 17.8101 5.74001 17.4901C4.64001 17.0401 3.48001 16.8501 2.50001 16.9801C1.69001 17.0901 0.640009 17.5001 1.46001 18.4001C1.68001 18.6501 2.03001 18.7901 2.33001 18.9701C7.32001 22.0401 12.78 24.7701 21.39 28.2401C21.44 28.1801 17.35 25.7501 17.39 25.6801C17.73 25.0301 17.46 24.0701 16.7 23.3401L16.71 23.3501Z" fill="white"/>
<path d="M7.87 18.8702C7.87 18.8702 8.58 19.6102 9.1 20.6302C9.1 20.6302 9.78 19.7902 9.39 18.8202C9.05 17.9802 7.9 18.1502 7.87 18.8702Z" fill="#CCF8FF"/>
<path d="M1.99001 17.88C1.89001 18.18 2.55001 18.72 3.92001 19.17C5.29001 19.62 6.48001 19.73 6.58001 19.42C6.68001 19.11 5.80001 18.14 4.42001 17.7C3.04001 17.26 2.08001 17.58 1.98001 17.88H1.99001Z" fill="#CCF8FF"/>
<path d="M51.33 18.0802C51.33 18.0802 51.58 17.8102 52.16 17.8802C52.16 17.8802 52.28 18.2402 52.31 18.4802C52.31 18.4802 51.72 18.5302 51.48 18.7102L51.34 18.0802H51.33Z" fill="#557086"/>
<path d="M51.83 17.3499C52.0288 17.3499 52.19 17.1887 52.19 16.9899C52.19 16.7911 52.0288 16.6299 51.83 16.6299C51.6312 16.6299 51.47 16.7911 51.47 16.9899C51.47 17.1887 51.6312 17.3499 51.83 17.3499Z" fill="white"/>
</g>
</g>
<path fill-rule="evenodd" clip-rule="evenodd" d="M6.49771 79C6.98969 79 7.48602 79.213 7.49037 79.6913C7.49037 80.1043 7.24656 80.2696 6.99839 80.2696C6.75023 80.2696 6.73281 80.1435 6.73281 80.1435C6.73281 80.1435 7.02452 79.9261 7.02452 79.7174C7.02452 79.6087 6.94179 79.313 6.489 79.3174C5.8577 79.3174 5.5181 79.6174 5.5181 80.1522C5.5181 80.7652 7.35105 80.9739 7.3554 81.7652C7.3554 82.613 6.47594 82.9957 5.69225 83C5.283 83 5.01306 82.7609 5.00871 82.3783C5.00871 81.9261 5.22204 81.4652 5.75756 81.4652C5.88382 81.4565 5.98831 81.5522 5.99702 81.6783C5.99702 81.6783 5.99702 81.6826 5.99702 81.687C5.99702 81.687 5.45715 81.8391 5.4615 82.3783C5.4615 82.4783 5.56599 82.6609 5.81851 82.6565C6.07103 82.6522 6.82424 82.4739 6.81989 81.8087C6.81989 81.1913 5.00435 81.1087 5 80.1478C5 79.0652 6.08845 79.0087 6.49771 79.0087V79ZM10.747 79.6C10.8123 79.5696 11.2129 79.4913 11.1955 79.813C11.1824 80.1348 10.9386 80.6913 10.9037 80.9348C11.2303 80.7696 11.6918 80.2087 11.6918 80.2087C11.6918 80.2087 12.0183 80.2522 11.9182 80.4522C11.818 80.6522 11.1519 81.1435 11.1519 81.1435C11.1519 81.1435 11.3043 82.5696 12.1707 82.5696C12.6453 82.5696 12.8499 82.3609 12.937 82.287C12.9587 82.2696 12.9762 82.2652 12.9849 82.2783C13.0197 82.387 12.9936 82.5043 12.9152 82.5913C12.8194 82.6957 12.5974 82.8217 12.1533 82.8261C11.3653 82.8261 10.9255 82.1957 10.8123 81.2609C10.7252 81.5348 10.7339 81.9826 10.7209 82.2C10.6948 82.2435 10.2507 82.4174 10.2158 82.1174C10.2158 82.0913 10.2158 82.0696 10.2158 82.0435C10.1331 82.1609 10.0199 82.2826 9.91108 82.2826C9.71951 82.2826 9.63679 82.1217 9.60196 82.0391C9.57584 82.0696 9.3625 82.287 9.08821 82.287C8.92277 82.2913 8.77474 82.1957 8.70943 82.0435C8.57011 82.1435 8.32195 82.2913 8.03895 82.2913C7.73418 82.2913 7.66017 82.1087 7.66017 81.9565C7.66017 81.713 7.84303 80.987 7.84303 80.987C7.84303 80.987 7.48602 81.1304 7.36411 81.1348C7.19431 81.1348 7.11159 80.8217 7.11159 80.813C7.11159 80.8087 7.11159 80.8 7.1203 80.8C7.22044 80.7609 7.94317 80.513 7.94317 80.513C7.94317 80.513 8.07813 79.9826 8.09555 79.913C8.11296 79.8435 8.2131 79.7 8.33065 79.6565C8.41773 79.6217 8.50916 79.6 8.60059 79.5913C8.63107 79.5913 8.65284 79.6 8.65284 79.6174C8.65284 79.6348 8.47433 80.4087 8.47433 80.4087C8.47433 80.4087 8.84876 80.3217 8.98808 80.3217C9.09692 80.3217 9.15352 80.387 9.09257 80.4696C9.03162 80.5522 8.96196 80.6478 8.92712 80.6913C8.88794 80.7348 8.86182 80.7435 8.77039 80.7609C8.64413 80.787 8.36113 80.8565 8.36113 80.8565C8.36113 80.8565 8.13473 81.6783 8.13909 81.8174C8.13909 81.8957 8.16521 81.987 8.26099 81.987C8.35678 81.987 8.53964 81.8739 8.67025 81.7913C8.69202 81.1522 9.18835 80.7261 9.57584 80.7261C9.7021 80.7261 9.65421 80.8478 9.79788 80.8478H9.88931C9.94591 80.8478 10.0069 80.8522 10.0069 80.9957C10.0069 81.1957 9.89367 81.5261 9.89367 81.7348C9.89367 81.8826 9.91544 81.987 9.97204 81.987C10.0678 81.987 10.1767 81.8478 10.255 81.7261C10.3813 81.0304 10.734 79.7609 10.734 79.6174L10.747 79.6ZM12.5016 80.7C12.7672 80.6783 12.9326 80.8217 12.9631 80.9C12.9936 80.9783 12.9892 81.1609 12.9152 81.2913C12.6845 81.7044 12.1097 81.6304 12.1097 81.6304C12.1097 81.6304 12.0444 81.9565 12.3405 81.9565C12.593 81.9565 12.7062 81.8304 12.8151 81.7261C12.8586 81.7261 12.9936 81.8652 12.9326 81.9609C12.8847 82.0348 12.6191 82.2565 12.2795 82.2609C11.7397 82.2609 11.6047 81.8 11.6744 81.4696C11.7658 81.0609 12.1751 80.7217 12.5016 80.6957V80.7ZM9.6455 80.987C9.32332 80.987 8.82699 81.9696 9.20577 81.9652C9.61938 81.9652 9.6455 81.1826 9.6455 81.0043V80.987ZM12.6409 80.8913C12.4232 80.9 12.1751 81.3174 12.1533 81.5C12.4798 81.513 12.654 81.1957 12.6757 81.0696C12.6888 80.9739 12.6932 80.887 12.6409 80.887V80.8913Z" fill="white"/>
<path d="M46.1444 79.3778L46.6412 80.278L47.6518 80.4733C47.7792 80.4988 47.8302 80.6559 47.741 80.7494L47.0361 81.5009L47.1635 82.5243C47.1805 82.6559 47.0446 82.7494 46.93 82.6942L46 82.2568L45.0701 82.6942C44.9512 82.7494 44.8196 82.6517 44.8366 82.5243L44.9639 81.5009L44.2591 80.7494C44.1699 80.6559 44.2208 80.4988 44.3482 80.4733L45.3588 80.278L45.8557 79.3778C45.9194 79.2632 46.085 79.2632 46.1444 79.3778Z" fill="#FFC200"/>
<path d="M46 79.2929C46.0552 79.2929 46.1147 79.3226 46.1444 79.3778L46.6412 80.278L47.6518 80.4733C47.7792 80.4988 47.8302 80.6559 47.741 80.7494L47.0361 81.5009L47.1635 82.5243C47.1763 82.6262 47.0955 82.7111 46.9979 82.7111C46.9766 82.7111 46.9512 82.7069 46.9257 82.6942L45.9957 82.2568L45.0658 82.6942C45.0403 82.7069 45.0191 82.7111 44.9936 82.7111C44.9002 82.7111 44.8153 82.6262 44.828 82.5243L44.9554 81.5009L44.2505 80.7494C44.1613 80.6559 44.2123 80.4988 44.3397 80.4733L45.3503 80.278L45.8471 79.3778C45.8768 79.3226 45.9363 79.2929 45.9915 79.2929M46 79.0806C45.8641 79.0806 45.7367 79.157 45.6688 79.2759L45.2187 80.0912L44.3057 80.2653C44.1698 80.2908 44.0594 80.3884 44.017 80.5201C43.9745 80.6517 44.0085 80.7961 44.1019 80.8937L44.7388 81.5731L44.6242 82.4946C44.6115 82.6007 44.6454 82.7111 44.7134 82.7918C44.7856 82.8725 44.8875 82.9192 44.9979 82.9192C45.0531 82.9192 45.1083 82.9065 45.1592 82.881L46 82.4861L46.8408 82.881C46.8917 82.9065 46.9469 82.9192 47.0021 82.9192C47.1125 82.9192 47.2144 82.8725 47.2866 82.7918C47.3588 82.7111 47.3928 82.6007 47.3758 82.4946L47.2611 81.5731L47.8981 80.8937C47.9915 80.7918 48.0255 80.6474 47.983 80.5201C47.9405 80.3884 47.8301 80.2908 47.6943 80.2653L46.7813 80.0912L46.3312 79.2759C46.2633 79.157 46.1359 79.0806 46 79.0806Z" fill="#213743"/>
<path d="M46 79.8152V80.9744C46 81.0678 46.0892 81.1315 46.1784 81.106L47.2187 80.7706C47.2739 80.7536 47.2697 80.6729 47.2102 80.6602L46.5563 80.5413C46.4969 80.5286 46.4417 80.4903 46.4119 80.4351L46.085 79.7939C46.0637 79.7515 45.9958 79.7642 45.9958 79.8152H46Z" fill="#FFEBB8"/>
<path d="M46 81.4924V82.0699C46 82.1039 46.017 82.1294 46.0467 82.1464L46.7983 82.5073C46.8365 82.5243 46.8705 82.4818 46.845 82.4479L46.0934 81.4627C46.0637 81.4245 46 81.4457 46 81.4924Z" fill="#FF7F00"/>
<path d="M51.1444 79.3778L51.6412 80.278L52.6518 80.4733C52.7792 80.4988 52.8302 80.6559 52.741 80.7494L52.0361 81.5009L52.1635 82.5243C52.1805 82.6559 52.0446 82.7494 51.93 82.6942L51 82.2568L50.0701 82.6942C49.9512 82.7494 49.8196 82.6517 49.8366 82.5243L49.9639 81.5009L49.2591 80.7494C49.1699 80.6559 49.2208 80.4988 49.3482 80.4733L50.3588 80.278L50.8557 79.3778C50.9194 79.2632 51.085 79.2632 51.1444 79.3778Z" fill="#FFC200"/>
<path d="M51 79.2929C51.0552 79.2929 51.1147 79.3226 51.1444 79.3778L51.6412 80.278L52.6518 80.4733C52.7792 80.4988 52.8302 80.6559 52.741 80.7494L52.0361 81.5009L52.1635 82.5243C52.1763 82.6262 52.0955 82.7111 51.9979 82.7111C51.9766 82.7111 51.9512 82.7069 51.9257 82.6942L50.9957 82.2568L50.0658 82.6942C50.0403 82.7069 50.0191 82.7111 49.9936 82.7111C49.9002 82.7111 49.8153 82.6262 49.828 82.5243L49.9554 81.5009L49.2505 80.7494C49.1613 80.6559 49.2123 80.4988 49.3397 80.4733L50.3503 80.278L50.8471 79.3778C50.8768 79.3226 50.9363 79.2929 50.9915 79.2929M51 79.0806C50.8641 79.0806 50.7367 79.157 50.6688 79.2759L50.2187 80.0912L49.3057 80.2653C49.1698 80.2908 49.0594 80.3884 49.017 80.5201C48.9745 80.6517 49.0085 80.7961 49.1019 80.8937L49.7388 81.5731L49.6242 82.4946C49.6115 82.6007 49.6454 82.7111 49.7134 82.7918C49.7856 82.8725 49.8875 82.9192 49.9979 82.9192C50.0531 82.9192 50.1083 82.9065 50.1592 82.881L51 82.4861L51.8408 82.881C51.8917 82.9065 51.9469 82.9192 52.0021 82.9192C52.1125 82.9192 52.2144 82.8725 52.2866 82.7918C52.3588 82.7111 52.3928 82.6007 52.3758 82.4946L52.2611 81.5731L52.8981 80.8937C52.9915 80.7918 53.0255 80.6474 52.983 80.5201C52.9405 80.3884 52.8301 80.2908 52.6943 80.2653L51.7813 80.0912L51.3312 79.2759C51.2633 79.157 51.1359 79.0806 51 79.0806Z" fill="#213743"/>
<path d="M51 79.8152V80.9744C51 81.0678 51.0892 81.1315 51.1784 81.106L52.2187 80.7706C52.2739 80.7536 52.2697 80.6729 52.2102 80.6602L51.5563 80.5413C51.4969 80.5286 51.4417 80.4903 51.4119 80.4351L51.085 79.7939C51.0637 79.7515 50.9958 79.7642 50.9958 79.8152H51Z" fill="#FFEBB8"/>
<path d="M51 81.4924V82.0699C51 82.1039 51.017 82.1294 51.0467 82.1464L51.7983 82.5073C51.8365 82.5243 51.8705 82.4818 51.845 82.4479L51.0934 81.4627C51.0637 81.4245 51 81.4457 51 81.4924Z" fill="#FF7F00"/>
<path d="M56.1444 79.3778L56.6412 80.278L57.6518 80.4733C57.7792 80.4988 57.8302 80.6559 57.741 80.7494L57.0361 81.5009L57.1635 82.5243C57.1805 82.6559 57.0446 82.7494 56.93 82.6942L56 82.2568L55.0701 82.6942C54.9512 82.7494 54.8196 82.6517 54.8366 82.5243L54.9639 81.5009L54.2591 80.7494C54.1699 80.6559 54.2208 80.4988 54.3482 80.4733L55.3588 80.278L55.8557 79.3778C55.9194 79.2632 56.085 79.2632 56.1444 79.3778Z" fill="#FFC200"/>
<path d="M56 79.2929C56.0552 79.2929 56.1147 79.3226 56.1444 79.3778L56.6412 80.278L57.6518 80.4733C57.7792 80.4988 57.8302 80.6559 57.741 80.7494L57.0361 81.5009L57.1635 82.5243C57.1763 82.6262 57.0955 82.7111 56.9979 82.7111C56.9766 82.7111 56.9512 82.7069 56.9257 82.6942L55.9957 82.2568L55.0658 82.6942C55.0403 82.7069 55.0191 82.7111 54.9936 82.7111C54.9002 82.7111 54.8153 82.6262 54.828 82.5243L54.9554 81.5009L54.2505 80.7494C54.1613 80.6559 54.2123 80.4988 54.3397 80.4733L55.3503 80.278L55.8471 79.3778C55.8768 79.3226 55.9363 79.2929 55.9915 79.2929M56 79.0806C55.8641 79.0806 55.7367 79.157 55.6688 79.2759L55.2187 80.0912L54.3057 80.2653C54.1698 80.2908 54.0594 80.3884 54.017 80.5201C53.9745 80.6517 54.0085 80.7961 54.1019 80.8937L54.7388 81.5731L54.6242 82.4946C54.6115 82.6007 54.6454 82.7111 54.7134 82.7918C54.7856 82.8725 54.8875 82.9192 54.9979 82.9192C55.0531 82.9192 55.1083 82.9065 55.1592 82.881L56 82.4861L56.8408 82.881C56.8917 82.9065 56.9469 82.9192 57.0021 82.9192C57.1125 82.9192 57.2144 82.8725 57.2866 82.7918C57.3588 82.7111 57.3928 82.6007 57.3758 82.4946L57.2611 81.5731L57.8981 80.8937C57.9915 80.7918 58.0255 80.6474 57.983 80.5201C57.9405 80.3884 57.8301 80.2908 57.6943 80.2653L56.7813 80.0912L56.3312 79.2759C56.2633 79.157 56.1359 79.0806 56 79.0806Z" fill="#213743"/>
<path d="M56 79.8152V80.9744C56 81.0678 56.0892 81.1315 56.1784 81.106L57.2187 80.7706C57.2739 80.7536 57.2697 80.6729 57.2102 80.6602L56.5563 80.5413C56.4969 80.5286 56.4417 80.4903 56.4119 80.4351L56.085 79.7939C56.0637 79.7515 55.9958 79.7642 55.9958 79.8152H56Z" fill="#FFEBB8"/>
<path d="M56 81.4924V82.0699C56 82.1039 56.017 82.1294 56.0467 82.1464L56.7983 82.5073C56.8365 82.5243 56.8705 82.4818 56.845 82.4479L56.0934 81.4627C56.0637 81.4245 56 81.4457 56 81.4924Z" fill="#FF7F00"/>
<rect x="13" y="62" width="37" height="13" rx="6.5" fill="#2F4553"/>
<path d="M29.1086 70H27.9746L29.3306 66.898H27.3806V65.998H30.5186V66.712L29.1086 70ZM32.586 70.072C31.878 70.072 31.344 69.856 30.972 69.49L31.536 68.77C31.812 69.022 32.19 69.16 32.574 69.16C33.012 69.16 33.228 68.944 33.228 68.698C33.228 68.428 33.018 68.236 32.604 68.236C32.286 68.236 32.034 68.326 31.812 68.536L31.098 68.362V65.998H34.002V66.898H32.13V67.672C32.322 67.486 32.634 67.354 32.988 67.354C33.666 67.354 34.278 67.852 34.278 68.656C34.278 69.52 33.624 70.072 32.586 70.072ZM37.6631 70H36.6491L36.0911 69.124L35.5271 70H34.5191L35.5091 68.512L34.5791 67.102H35.5931L36.0911 67.888L36.5831 67.102H37.5971L36.6731 68.512L37.6631 70Z" fill="white"/>
<path d="M7.69 11H5.33V7.665H7.69V8.29H6.04V8.995H7.655V9.62H6.04V10.375H7.69V11ZM9.61004 11.06C9.32504 11.06 9.06004 10.94 8.86504 10.69V11.92H8.23004V8.585H8.86504V8.89C9.05004 8.655 9.31504 8.525 9.61004 8.525C10.23 8.525 10.68 8.985 10.68 9.79C10.68 10.595 10.23 11.06 9.61004 11.06ZM9.41004 10.495C9.77504 10.495 10.02 10.21 10.02 9.79C10.02 9.375 9.77504 9.09 9.41004 9.09C9.20504 9.09 8.97004 9.21 8.86504 9.365V10.22C8.97004 10.37 9.20504 10.495 9.41004 10.495ZM11.4601 8.325C11.2551 8.325 11.0801 8.155 11.0801 7.945C11.0801 7.735 11.2551 7.57 11.4601 7.57C11.6701 7.57 11.8401 7.735 11.8401 7.945C11.8401 8.155 11.6701 8.325 11.4601 8.325ZM11.7801 11H11.1451V8.585H11.7801V11ZM13.5347 11.06C12.7897 11.06 12.2547 10.535 12.2547 9.79C12.2547 9.05 12.7897 8.525 13.5347 8.525C14.0297 8.525 14.3297 8.74 14.4897 8.96L14.0747 9.35C13.9597 9.18 13.7847 9.09 13.5647 9.09C13.1797 9.09 12.9097 9.37 12.9097 9.79C12.9097 10.21 13.1797 10.495 13.5647 10.495C13.7847 10.495 13.9597 10.395 14.0747 10.235L14.4897 10.62C14.3297 10.845 14.0297 11.06 13.5347 11.06Z" fill="#05080A"/>
<path d="M49.5374 11H49.0854L47.6934 9.096V11H47.2254V8.332H47.7054L49.0694 10.184V8.332H49.5374V11ZM50.9643 11.048C50.3523 11.048 49.9723 10.588 49.9723 10.032C49.9723 9.48 50.3523 9.02 50.9643 9.02C51.5843 9.02 51.9603 9.48 51.9603 10.032C51.9603 10.588 51.5843 11.048 50.9643 11.048ZM50.9643 10.676C51.3243 10.676 51.5243 10.376 51.5243 10.032C51.5243 9.692 51.3243 9.392 50.9643 9.392C50.6083 9.392 50.4083 9.692 50.4083 10.032C50.4083 10.376 50.6083 10.676 50.9643 10.676ZM52.5818 11.044C52.4298 11.044 52.3018 10.916 52.3018 10.764C52.3018 10.612 52.4298 10.484 52.5818 10.484C52.7338 10.484 52.8618 10.612 52.8618 10.764C52.8618 10.916 52.7338 11.044 52.5818 11.044ZM55.3376 11H54.8696V8.94L54.4336 9.392L54.1616 9.108L54.9296 8.332H55.3376V11ZM56.8131 11.048C56.2651 11.048 55.7891 10.796 55.7891 10.316C55.7891 9.976 56.0651 9.732 56.3891 9.624C56.0891 9.528 55.8331 9.332 55.8331 8.992C55.8331 8.5 56.3371 8.292 56.8131 8.292C57.2811 8.292 57.7931 8.5 57.7931 8.992C57.7931 9.332 57.5331 9.528 57.2331 9.624C57.5571 9.732 57.8331 9.976 57.8331 10.316C57.8331 10.792 57.3571 11.048 56.8131 11.048ZM56.8131 9.44C56.9771 9.412 57.3171 9.316 57.3171 9.064C57.3171 8.84 57.0971 8.708 56.8131 8.708C56.5211 8.708 56.3051 8.84 56.3051 9.064C56.3051 9.316 56.6491 9.412 56.8131 9.44ZM56.8131 10.632C57.1091 10.632 57.3611 10.488 57.3611 10.256C57.3611 9.98 56.9771 9.856 56.8131 9.836C56.6451 9.856 56.2611 9.98 56.2611 10.256C56.2611 10.488 56.5091 10.632 56.8131 10.632Z" fill="white"/>
<defs>
<linearGradient id="paint0_linear_26835_29181" x1="37.8344" y1="86.256" x2="23.263" y2="1.76" gradientUnits="userSpaceOnUse">
<stop stop-color="#55EEFF"/>
<stop offset="0.09" stop-color="#6CABFF"/>
<stop offset="0.23" stop-color="#8C4FFF"/>
<stop offset="0.32" stop-color="#A016FF"/>
<stop offset="0.37" stop-color="#A800FF"/>
<stop offset="0.44" stop-color="#C043D4"/>
<stop offset="0.51" stop-color="#D680AF"/>
<stop offset="0.58" stop-color="#E8B091"/>
<stop offset="0.64" stop-color="#F4D27B"/>
<stop offset="0.69" stop-color="#FCE76E"/>
<stop offset="0.72" stop-color="#FFEF6A"/>
<stop offset="0.81" stop-color="#BCF589"/>
<stop offset="0.9" stop-color="#84FAA3"/>
<stop offset="0.97" stop-color="#62FDB3"/>
<stop offset="1" stop-color="#55FFBA"/>
</linearGradient>
<linearGradient id="paint1_linear_26835_29181" x1="31.5" y1="87.2602" x2="31.5" y2="0.740234" gradientUnits="userSpaceOnUse">
<stop stop-color="#047BFF"/>
<stop offset="1" stop-color="#009FE8"/>
</linearGradient>
<linearGradient id="paint2_linear_26835_29181" x1="31.11" y1="79.7704" x2="31.11" y2="36.1504" gradientUnits="userSpaceOnUse">
<stop stop-color="#FF5500"/>
<stop offset="1" stop-color="#FFC200"/>
</linearGradient>
<linearGradient id="paint3_linear_26835_29181" x1="57.77" y1="86.3601" x2="26.53" y2="13.7601" gradientUnits="userSpaceOnUse">
<stop stop-color="#55EEFF"/>
<stop offset="0.09" stop-color="#6CABFF"/>
<stop offset="0.23" stop-color="#8C4FFF"/>
<stop offset="0.32" stop-color="#A016FF"/>
<stop offset="0.37" stop-color="#A800FF"/>
<stop offset="0.44" stop-color="#C043D4"/>
<stop offset="0.51" stop-color="#D680AF"/>
<stop offset="0.58" stop-color="#E8B091"/>
<stop offset="0.64" stop-color="#F4D27B"/>
<stop offset="0.69" stop-color="#FCE76E"/>
<stop offset="0.72" stop-color="#FFEF6A"/>
<stop offset="0.81" stop-color="#BCF589"/>
<stop offset="0.9" stop-color="#84FAA3"/>
<stop offset="0.97" stop-color="#62FDB3"/>
<stop offset="1" stop-color="#55FFBA"/>
</linearGradient>
<linearGradient id="paint4_linear_26835_29181" x1="51.08" y1="89.51" x2="19.74" y2="16.67" gradientUnits="userSpaceOnUse">
<stop stop-color="#55EEFF"/>
<stop offset="0.09" stop-color="#6CABFF"/>
<stop offset="0.23" stop-color="#8C4FFF"/>
<stop offset="0.32" stop-color="#A016FF"/>
<stop offset="0.37" stop-color="#A800FF"/>
<stop offset="0.44" stop-color="#C043D4"/>
<stop offset="0.51" stop-color="#D680AF"/>
<stop offset="0.58" stop-color="#E8B091"/>
<stop offset="0.64" stop-color="#F4D27B"/>
<stop offset="0.69" stop-color="#FCE76E"/>
<stop offset="0.72" stop-color="#FFEF6A"/>
<stop offset="0.81" stop-color="#BCF589"/>
<stop offset="0.9" stop-color="#84FAA3"/>
<stop offset="0.97" stop-color="#62FDB3"/>
<stop offset="1" stop-color="#55FFBA"/>
</linearGradient>
<linearGradient id="paint5_linear_26835_29181" x1="17.73" y1="79.3402" x2="17.73" y2="36.2702" gradientUnits="userSpaceOnUse">
<stop stop-color="#FF5500"/>
<stop offset="1" stop-color="#FFC200"/>
</linearGradient>
<clipPath id="clip0_26835_29181">
<rect width="63" height="88" fill="white"/>
</clipPath>
<clipPath id="clip1_26835_29181">
<rect width="63" height="88" fill="white"/>
</clipPath>
</defs>
</svg>
