<svg width="63" height="88" viewBox="0 0 63 88" fill="none" xmlns="http://www.w3.org/2000/svg">
<rect width="63" height="88" rx="4" fill="url(#paint0_linear_26835_29182)"/>
<g clip-path="url(#clip0_26835_29182)">
<g clip-path="url(#clip1_26835_29182)">
<path d="M56.44 0.740234H6.56C3.22972 0.740234 0.529999 3.43996 0.529999 6.77023V81.2302C0.529999 84.5605 3.22972 87.2602 6.56 87.2602H56.44C59.7703 87.2602 62.47 84.5605 62.47 81.2302V6.77023C62.47 3.43996 59.7703 0.740234 56.44 0.740234Z" fill="url(#paint1_linear_26835_29182)"/>
<path d="M54.29 75.3903C55.38 75.3403 56.48 75.3503 57.57 75.4403C58.11 75.4803 58.64 75.5403 59.18 75.5003C59.35 75.4903 62.5 75.5803 62.64 75.4803C62.86 75.3303 59.95 74.9003 59.87 74.6503C59.79 74.4003 59.6 74.1903 59.39 74.0303C58.86 73.6303 58.07 73.4703 57.56 73.8903C57.45 73.3003 56.89 72.8703 56.3 72.8003C56.15 72.8903 56 72.9803 55.93 73.0603C55.62 73.4103 55.51 73.9003 55.78 74.3203C55.57 74.0303 55.15 74.1503 54.91 74.3403C54.59 74.6003 54.37 74.9803 54.29 75.3903Z" fill="#CCF8FF"/>
<path d="M53.6 75.4302C53.83 75.4102 54.06 75.4002 54.28 75.3902C54.36 74.9802 54.58 74.6001 54.9 74.3401C55.14 74.1501 55.56 74.0302 55.77 74.3202C55.51 73.9002 55.61 73.4102 55.92 73.0602C55.99 72.9802 56.14 72.9002 56.29 72.8002C56.17 72.7802 56.05 72.7802 55.93 72.8002C55.15 72.9002 54.84 73.5602 54.22 73.9002C53.61 74.2402 53.11 74.3402 53.13 75.0102C53.13 75.2502 53.34 75.4402 53.58 75.4202L53.6 75.4302Z" fill="white"/>
<path d="M3.92999 1.3501C2.85999 1.3501 1.42999 3.4401 1.42999 4.5001L1.99999 18.1901C1.99999 16.4301 3.42999 15.0001 5.18999 15.0001H33.59C34.8 15.0001 35.94 14.4501 36.7 13.5101L44.8 3.4801C45.56 2.5401 46.7 1.9901 47.91 1.9901L3.92999 1.3501Z" fill="url(#paint2_linear_26835_29182)"/>
<path d="M21.15 13.4902C23.46 12.7902 25.75 13.4902 27.79 14.1902C28.81 13.2202 29.25 12.0902 30.56 11.1902C31.72 10.3802 33.2 9.75018 34.89 9.52018C38.34 9.05018 42.4 10.8102 42.28 13.1602C42.28 13.1602 44.34 12.8602 46.01 13.0002C48.38 13.2002 50.62 13.9202 52.25 15.0302C53.59 15.9502 55.09 17.6302 52.82 18.5102C52.2 18.7502 51.45 18.7902 50.74 18.7402C39.11 17.8502 27.34 16.4602 8.65 18.8102C8.61 18.6502 17.8 17.2302 17.8 17.0602C17.78 15.5802 19.13 14.1202 21.16 13.5002L21.15 13.4902Z" fill="white"/>
<path d="M40.97 13.51C40.97 13.51 39.03 14.18 37.18 15.54C37.18 15.54 36.73 13.42 38.32 12.05C39.69 10.86 41.58 12.21 40.98 13.52L40.97 13.51Z" fill="#CCF8FF"/>
<path d="M52.34 17.0802C52.24 17.7102 50.58 18.0702 47.73 17.6202C44.88 17.1702 42.65 16.2902 42.75 15.6602C42.85 15.0302 45.31 14.0902 48.16 14.5402C51.01 14.9902 52.44 16.4402 52.34 17.0802Z" fill="#CCF8FF"/>
<path d="M27.23 16.0298L0.539993 36.1298H62.46L35.77 16.0298H27.23Z" fill="url(#paint3_linear_26835_29182)"/>
<path d="M33.07 13.79H29.93V14.61H33.07V13.79Z" fill="#1A2C38"/>
<path d="M33.4 14.1999H29.6L29.74 13.6099H33.26L33.4 14.1999Z" fill="#FFC200"/>
<path d="M33.65 15.5702H29.35L29.93 14.4302H33.07L33.65 15.5702Z" fill="#FFC200"/>
<path d="M32.09 15.6402H30.91L31 14.9502H32L32.09 15.6402Z" fill="#1A2C38"/>
<path d="M32.18 15.7201H30.82L30.93 14.8701H32.07L32.18 15.7201ZM31 15.5501H31.99L31.92 15.0201H31.07L31 15.5501Z" fill="#FFEBB8"/>
<path d="M36.82 18.7099H26.18L27.62 15.8999H35.38L36.82 18.7099Z" fill="#FFC200"/>
<path d="M35.78 15.52H27.23V16.03H35.78V15.52Z" fill="#FFC200"/>
<path d="M40.41 22.5H22.59L25 17.79H38L40.41 22.5Z" fill="#FFC200"/>
<path d="M38.7 17.4502H24.3V18.0202H38.7V17.4502Z" fill="#FFC200"/>
<path d="M45.04 28.0101H17.96L21.61 20.8501H41.39L45.04 28.0101Z" fill="url(#paint4_linear_26835_29182)"/>
<path d="M40.88 21.2002L41.95 23.8002L40.63 21.4702H36.82L35.5 24.1002L34.35 21.2002H40.88Z" fill="#FF7F00"/>
<path d="M22.15 21.2002L21.08 23.8002L22.4 21.4702H26.21L27.53 24.1002L28.68 21.2002H22.15Z" fill="#FF7F00"/>
<path d="M42.52 20.4399H20.49V21.1999H42.52V20.4399Z" fill="url(#paint5_linear_26835_29182)"/>
<path d="M52.52 36.13H10.48L16.16 25.02H46.84L52.52 36.13Z" fill="url(#paint6_linear_26835_29182)"/>
<path d="M45.78 25.5601L48.98 33.3201L45.29 26.0901H40.38L38.35 35.0501L32.91 25.5601H45.78Z" fill="#FF5500"/>
<path d="M17.28 25.5601L14.09 33.3201L17.78 26.0901H22.69L24.71 35.0501L30.15 25.5601H17.28Z" fill="#FF5500"/>
<path d="M48.59 24.5601H14.41V25.5601H48.59V24.5601Z" fill="url(#paint7_linear_26835_29182)"/>
<path d="M30.35 15.52L23.18 36.13H39.82L32.65 15.52H30.35Z" fill="url(#paint8_linear_26835_29182)"/>
<path d="M30.66 15.52L25.38 36.13H37.62L32.34 15.52H30.66Z" fill="#FFC200"/>
<path d="M1.11 39.1999C1.11 39.1999 5.98 37.3199 10.49 37.3199C10.49 37.3199 15.34 37.9299 14.49 36.5199C14.29 34.5499 8.26 34.2999 1.12 34.3799V39.2099L1.11 39.1999Z" fill="url(#paint9_linear_26835_29182)"/>
<path opacity="0.8" d="M5.28 34.8798C5.28 34.8798 4.75 35.4498 6.43 35.9998C8.11 36.5498 12.7 35.9598 12.7 35.9598L9.89 34.7998L5.28 34.8698V34.8798Z" fill="#1A2C38"/>
<path d="M52.99 64.3201L58.68 63.2201L59.52 59.4601L61.96 58.2201V51.3701L51.1 52.4001L52.99 64.3201Z" fill="url(#paint10_linear_26835_29182)"/>
<path d="M55.68 63.48L57.9 56.48L60.3 54.04L55.38 54.6L54.3 63L55.68 63.48Z" fill="#1A2C38"/>
<path d="M54.84 64.3198L58.68 63.2198L58.95 62.0098L55.37 63.3398L54.84 64.3198Z" fill="#1A2C38"/>
<path d="M48.98 74.5001L53.98 71.1201L56.62 55.9701L61.96 53.3301V36.5601L45.56 36.7801L48.98 74.5001Z" fill="url(#paint11_linear_26835_29182)"/>
<path d="M48.76 42.5398L49.68 39.2898C49.68 39.2898 56.24 38.1298 61.33 40.0698L61.61 37.7798L47.7 36.5698L48.76 42.5498V42.5398Z" fill="#1A2C38"/>
<path d="M62.63 34.0801C62.63 33.5501 61.11 33.1201 59.24 33.1201C57.77 33.1201 56.06 33.7101 55.39 34.2201C53.16 34.3001 50.98 34.3601 49.99 34.3601C47.55 34.3601 46.62 35.4801 46.62 35.4801L47.25 37.7801C53.3 37.1401 61.96 38.7701 61.96 38.7701V34.6501C62.38 34.4901 62.64 34.2901 62.64 34.0801H62.63Z" fill="url(#paint12_linear_26835_29182)"/>
<path d="M3.33999 63.0098L6.23999 64.0398L7.09999 67.6198L9.63999 68.4998L11.07 67.0998L15.09 68.5498L13.2 40.8898L5.31999 38.7798L2.89999 41.4498L3.33999 63.0098Z" fill="url(#paint13_linear_26835_29182)"/>
<path d="M10.76 60.7502L11.09 62.6302L13.58 64.3202V60.4702L10.76 60.7502Z" fill="#1A2C38"/>
<path d="M1.16 37.7798L1.43 40.8898L3.64 60.0198L5.48 56.7898C5.54 56.6898 5.58 56.5698 5.59 56.4498L6.95 40.1198H7.67L8.37 43.6698L15.09 39.1898L14.8 36.5498L1.16 37.7698V37.7798Z" fill="#1A2C38"/>
<path d="M1.43001 40.1201H4.83001C5.25001 40.1701 5.57001 40.5301 5.56001 40.9601L5.20001 55.1501C5.20001 55.5701 5.04001 55.9701 4.81001 56.3201C4.31001 57.0501 3.58001 59.1301 4.30001 64.8301L1.10001 68.5001L1.43001 40.1201Z" fill="url(#paint14_linear_26835_29182)"/>
<path d="M16.97 38.4001C16.97 38.4001 8.56001 38.0001 8.11001 39.2201C7.66001 40.4401 9.94001 61.2001 9.94001 61.2001L13.94 62.3701L16.98 38.4001H16.97Z" fill="url(#paint15_linear_26835_29182)"/>
<path d="M51.08 87.26H12.42C12.24 67.86 13.28 47.23 14.38 36.64C14.45 35.96 15.02 35.46 15.7 35.46H45.13C46.73 35.46 48.07 36.65 48.27 38.24C49.7 49.81 51.29 68.27 51.08 87.27V87.26Z" fill="url(#paint16_linear_26835_29182)"/>
<path d="M47.51 37.9698C48 39.7298 48.98 52.0998 49.32 52.2598C49.75 52.4598 49.01 42.2898 48.43 37.6398C48.27 36.3098 47.2 35.2798 45.87 35.1698C42.35 34.8798 35.22 34.4198 30.16 35.0498C30.16 35.0498 20.3 33.8098 14.42 35.3098C14.42 35.3098 13.61 44.3798 13.25 51.9298C12.89 59.4798 15.05 39.4298 15.57 38.2498C15.57 38.2498 19.44 37.2498 24.33 38.3798C24.33 38.3798 23.7 47.1698 24.33 47.7998C24.6 48.0698 25.84 38.6498 25.84 38.6498C25.84 38.6498 30.4 39.3898 34.5 38.3098C34.5 38.3098 35.09 49.7498 35.86 49.7498C36.35 49.7498 35.87 38.0098 35.87 38.0098C35.87 38.0098 41.95 40.2698 44.53 37.9698C44.53 37.9698 45.01 42.3898 45.88 43.9998C46.62 45.3698 45.74 37.8598 45.74 37.8598L47.51 37.9698Z" fill="url(#paint17_linear_26835_29182)"/>
<path d="M14.79 35.63C14.65 36.52 13.13 36.2 11.24 35.91C9.35 35.62 4.17 35.54 4.31 34.66C4.45 33.78 9.72 33.21 11.61 33.5C13.5 33.79 14.92 34.74 14.79 35.63Z" fill="#1CE61C"/>
<path d="M22.43 83.9298C22.43 83.9298 23.93 59.7998 24.15 57.4698C25.27 45.5098 24.83 84.0198 24.83 84.0198L22.43 83.9398V83.9298Z" fill="url(#paint18_linear_26835_29182)"/>
<path d="M36.7 85.4902C36.7 85.4902 37.12 76.7202 37.41 76.7202C37.7 76.7202 37.96 85.6702 37.96 85.6702L36.69 85.4902H36.7Z" fill="url(#paint19_linear_26835_29182)"/>
<path d="M41 85.2802C41 85.2802 41.28 64.6202 41 58.5102C40.72 52.4002 41.56 52.6802 42.27 64.1302C42.98 75.5802 43.12 85.6002 43.12 85.6002L41 85.2802Z" fill="url(#paint20_linear_26835_29182)"/>
<path d="M2.03 86L1.11 83V74.57C1.11 74.57 7.48 70.55 17.31 73.5C28.99 77.01 26.24 83.67 26.24 83.67C26.24 83.67 38.7 78.6 50.09 87.3L3.16 86.87L2.03 86.01V86Z" fill="url(#paint21_linear_26835_29182)"/>
<path d="M59 0H4C1.79 0 0 1.79 0 4V84C0 86.21 1.79 88 4 88H59C61.21 88 63 86.21 63 84V4C63 1.79 61.21 0 59 0ZM61 82.81C61 84.57 59.57 86 57.81 86H5.19C3.43 86 2 84.57 2 82.81V16.9C2 8.67 8.67 2 16.9 2H57.81C59.57 2 61 3.43 61 5.19V82.81Z" fill="url(#paint22_linear_26835_29182)"/>
<mask id="mask0_26835_29182" style="mask-type:luminance" maskUnits="userSpaceOnUse" x="0" y="0" width="63" height="88">
<path d="M59 0H4C1.79 0 0 1.79 0 4V84C0 86.21 1.79 88 4 88H59C61.21 88 63 86.21 63 84V4C63 1.79 61.21 0 59 0ZM61 82.81C61 84.57 59.57 86 57.81 86H5.19C3.43 86 2 84.57 2 82.81V18.19C2 16.43 3.43 15 5.19 15H33.59C34.8 15 35.94 14.45 36.7 13.51L44.8 3.48C45.56 2.54 46.7 1.99 47.91 1.99H57.81C59.57 1.99 61 3.42 61 5.18V82.8V82.81Z" fill="white"/>
</mask>
<g mask="url(#mask0_26835_29182)">
<path d="M68.37 47.3101V26.6401L4.46001 90.5501H25.13L68.37 47.3101Z" fill="white"/>
<path d="M64.66 -2.29004H55.22L-2.92 55.84V66.18L65.46 -2.20004C65.2 -2.26004 64.93 -2.29004 64.66 -2.29004Z" fill="white"/>
<path d="M68.37 69.2298V61.5498L39.37 90.5498H47.05L68.37 69.2298Z" fill="white"/>
</g>
<path d="M14.11 35.23C14.04 35.48 13.38 35.23 12.49 34.97C11.6 34.71 10.83 34.51 10.9 34.27C10.97 34.03 11.75 33.83 12.64 34.09C13.53 34.35 14.18 34.98 14.11 35.23Z" fill="#80FF80"/>
<path d="M6.99001 67.1602L7.10001 67.6202L9.64001 68.5002L10.46 67.7001L6.99001 67.1602Z" fill="#1A2C38"/>
<path d="M59.05 54.77L56.9 56.11L53.98 71.12L55.99 55.16L56.85 54.13L57.82 46.25L58.22 54.27L59.05 54.77Z" fill="url(#paint23_linear_26835_29182)"/>
<path d="M60.33 35.6098C60.33 35.8598 60 36.3998 57.8 36.3998C55.6 36.3998 53.98 35.7498 53.98 35.4998C53.98 35.2498 55.76 35.0498 57.96 35.0498C60.16 35.0498 60.32 35.3598 60.32 35.6098H60.33Z" fill="#80FF80"/>
<path d="M50.65 44.3701L51.1 50.8301L51.84 52.1401L51.26 45.4201L51.46 44.7601L50.65 44.3701Z" fill="url(#paint24_linear_26835_29182)"/>
<path d="M50.65 44.3701L51.26 45.4201L57.83 46.2501L56.27 45.1301C55.92 44.8801 55.52 44.7301 55.09 44.7001L50.65 44.3701Z" fill="#8EA3B2"/>
<path d="M9.93 61.1999L8.84 50.6299L9.55 51.6599L10.9 61.5499L9.93 61.1999Z" fill="#8EA3B2"/>
</g>
</g>
<path fill-rule="evenodd" clip-rule="evenodd" d="M6.49771 79C6.98969 79 7.48602 79.213 7.49037 79.6913C7.49037 80.1043 7.24656 80.2696 6.99839 80.2696C6.75023 80.2696 6.73281 80.1435 6.73281 80.1435C6.73281 80.1435 7.02452 79.9261 7.02452 79.7174C7.02452 79.6087 6.94179 79.313 6.489 79.3174C5.8577 79.3174 5.5181 79.6174 5.5181 80.1522C5.5181 80.7652 7.35105 80.9739 7.3554 81.7652C7.3554 82.613 6.47594 82.9957 5.69225 83C5.283 83 5.01306 82.7609 5.00871 82.3783C5.00871 81.9261 5.22204 81.4652 5.75756 81.4652C5.88382 81.4565 5.98831 81.5522 5.99702 81.6783C5.99702 81.6783 5.99702 81.6826 5.99702 81.687C5.99702 81.687 5.45715 81.8391 5.4615 82.3783C5.4615 82.4783 5.56599 82.6609 5.81851 82.6565C6.07103 82.6522 6.82424 82.4739 6.81989 81.8087C6.81989 81.1913 5.00435 81.1087 5 80.1478C5 79.0652 6.08845 79.0087 6.49771 79.0087V79ZM10.747 79.6C10.8123 79.5696 11.2129 79.4913 11.1955 79.813C11.1824 80.1348 10.9386 80.6913 10.9037 80.9348C11.2303 80.7696 11.6918 80.2087 11.6918 80.2087C11.6918 80.2087 12.0183 80.2522 11.9182 80.4522C11.818 80.6522 11.1519 81.1435 11.1519 81.1435C11.1519 81.1435 11.3043 82.5696 12.1707 82.5696C12.6453 82.5696 12.8499 82.3609 12.937 82.287C12.9587 82.2696 12.9762 82.2652 12.9849 82.2783C13.0197 82.387 12.9936 82.5043 12.9152 82.5913C12.8194 82.6957 12.5974 82.8217 12.1533 82.8261C11.3653 82.8261 10.9255 82.1957 10.8123 81.2609C10.7252 81.5348 10.7339 81.9826 10.7209 82.2C10.6948 82.2435 10.2507 82.4174 10.2158 82.1174C10.2158 82.0913 10.2158 82.0696 10.2158 82.0435C10.1331 82.1609 10.0199 82.2826 9.91108 82.2826C9.71951 82.2826 9.63679 82.1217 9.60196 82.0391C9.57584 82.0696 9.3625 82.287 9.08821 82.287C8.92277 82.2913 8.77474 82.1957 8.70943 82.0435C8.57011 82.1435 8.32195 82.2913 8.03895 82.2913C7.73418 82.2913 7.66017 82.1087 7.66017 81.9565C7.66017 81.713 7.84303 80.987 7.84303 80.987C7.84303 80.987 7.48602 81.1304 7.36411 81.1348C7.19431 81.1348 7.11159 80.8217 7.11159 80.813C7.11159 80.8087 7.11159 80.8 7.1203 80.8C7.22044 80.7609 7.94317 80.513 7.94317 80.513C7.94317 80.513 8.07813 79.9826 8.09555 79.913C8.11296 79.8435 8.2131 79.7 8.33065 79.6565C8.41773 79.6217 8.50916 79.6 8.60059 79.5913C8.63107 79.5913 8.65284 79.6 8.65284 79.6174C8.65284 79.6348 8.47433 80.4087 8.47433 80.4087C8.47433 80.4087 8.84876 80.3217 8.98808 80.3217C9.09692 80.3217 9.15352 80.387 9.09257 80.4696C9.03162 80.5522 8.96196 80.6478 8.92712 80.6913C8.88794 80.7348 8.86182 80.7435 8.77039 80.7609C8.64413 80.787 8.36113 80.8565 8.36113 80.8565C8.36113 80.8565 8.13473 81.6783 8.13909 81.8174C8.13909 81.8957 8.16521 81.987 8.26099 81.987C8.35678 81.987 8.53964 81.8739 8.67025 81.7913C8.69202 81.1522 9.18835 80.7261 9.57584 80.7261C9.7021 80.7261 9.65421 80.8478 9.79788 80.8478H9.88931C9.94591 80.8478 10.0069 80.8522 10.0069 80.9957C10.0069 81.1957 9.89367 81.5261 9.89367 81.7348C9.89367 81.8826 9.91544 81.987 9.97204 81.987C10.0678 81.987 10.1767 81.8478 10.255 81.7261C10.3813 81.0304 10.734 79.7609 10.734 79.6174L10.747 79.6ZM12.5016 80.7C12.7672 80.6783 12.9326 80.8217 12.9631 80.9C12.9936 80.9783 12.9892 81.1609 12.9152 81.2913C12.6845 81.7044 12.1097 81.6304 12.1097 81.6304C12.1097 81.6304 12.0444 81.9565 12.3405 81.9565C12.593 81.9565 12.7062 81.8304 12.8151 81.7261C12.8586 81.7261 12.9936 81.8652 12.9326 81.9609C12.8847 82.0348 12.6191 82.2565 12.2795 82.2609C11.7397 82.2609 11.6047 81.8 11.6744 81.4696C11.7658 81.0609 12.1751 80.7217 12.5016 80.6957V80.7ZM9.6455 80.987C9.32332 80.987 8.82699 81.9696 9.20577 81.9652C9.61938 81.9652 9.6455 81.1826 9.6455 81.0043V80.987ZM12.6409 80.8913C12.4232 80.9 12.1751 81.3174 12.1533 81.5C12.4798 81.513 12.654 81.1957 12.6757 81.0696C12.6888 80.9739 12.6932 80.887 12.6409 80.887V80.8913Z" fill="#213743"/>
<path d="M46.1444 79.3778L46.6412 80.278L47.6518 80.4733C47.7792 80.4988 47.8302 80.6559 47.741 80.7494L47.0361 81.5009L47.1635 82.5243C47.1805 82.6559 47.0446 82.7494 46.93 82.6942L46 82.2568L45.0701 82.6942C44.9512 82.7494 44.8196 82.6517 44.8366 82.5243L44.9639 81.5009L44.2591 80.7494C44.1699 80.6559 44.2208 80.4988 44.3482 80.4733L45.3588 80.278L45.8557 79.3778C45.9194 79.2632 46.085 79.2632 46.1444 79.3778Z" fill="#FFC200"/>
<path d="M46 79.2929C46.0552 79.2929 46.1147 79.3226 46.1444 79.3778L46.6412 80.278L47.6518 80.4733C47.7792 80.4988 47.8302 80.6559 47.741 80.7494L47.0361 81.5009L47.1635 82.5243C47.1763 82.6262 47.0955 82.7111 46.9979 82.7111C46.9766 82.7111 46.9512 82.7069 46.9257 82.6942L45.9957 82.2568L45.0658 82.6942C45.0403 82.7069 45.0191 82.7111 44.9936 82.7111C44.9002 82.7111 44.8153 82.6262 44.828 82.5243L44.9554 81.5009L44.2505 80.7494C44.1613 80.6559 44.2123 80.4988 44.3397 80.4733L45.3503 80.278L45.8471 79.3778C45.8768 79.3226 45.9363 79.2929 45.9915 79.2929M46 79.0806C45.8641 79.0806 45.7367 79.157 45.6688 79.2759L45.2187 80.0912L44.3057 80.2653C44.1698 80.2908 44.0594 80.3884 44.017 80.5201C43.9745 80.6517 44.0085 80.7961 44.1019 80.8937L44.7388 81.5731L44.6242 82.4946C44.6115 82.6007 44.6454 82.7111 44.7134 82.7918C44.7856 82.8725 44.8875 82.9192 44.9979 82.9192C45.0531 82.9192 45.1083 82.9065 45.1592 82.881L46 82.4861L46.8408 82.881C46.8917 82.9065 46.9469 82.9192 47.0021 82.9192C47.1125 82.9192 47.2144 82.8725 47.2866 82.7918C47.3588 82.7111 47.3928 82.6007 47.3758 82.4946L47.2611 81.5731L47.8981 80.8937C47.9915 80.7918 48.0255 80.6474 47.983 80.5201C47.9405 80.3884 47.8301 80.2908 47.6943 80.2653L46.7813 80.0912L46.3312 79.2759C46.2633 79.157 46.1359 79.0806 46 79.0806Z" fill="#213743"/>
<path d="M46 79.8152V80.9744C46 81.0678 46.0892 81.1315 46.1784 81.106L47.2187 80.7706C47.2739 80.7536 47.2697 80.6729 47.2102 80.6602L46.5563 80.5413C46.4969 80.5286 46.4417 80.4903 46.4119 80.4351L46.085 79.7939C46.0637 79.7515 45.9958 79.7642 45.9958 79.8152H46Z" fill="#FFEBB8"/>
<path d="M46 81.4924V82.0699C46 82.1039 46.017 82.1294 46.0467 82.1464L46.7983 82.5073C46.8365 82.5243 46.8705 82.4818 46.845 82.4479L46.0934 81.4627C46.0637 81.4245 46 81.4457 46 81.4924Z" fill="#FF7F00"/>
<path d="M51.1444 79.3778L51.6412 80.278L52.6518 80.4733C52.7792 80.4988 52.8302 80.6559 52.741 80.7494L52.0361 81.5009L52.1635 82.5243C52.1805 82.6559 52.0446 82.7494 51.93 82.6942L51 82.2568L50.0701 82.6942C49.9512 82.7494 49.8196 82.6517 49.8366 82.5243L49.9639 81.5009L49.2591 80.7494C49.1699 80.6559 49.2208 80.4988 49.3482 80.4733L50.3588 80.278L50.8557 79.3778C50.9194 79.2632 51.085 79.2632 51.1444 79.3778Z" fill="#FFC200"/>
<path d="M51 79.2929C51.0552 79.2929 51.1147 79.3226 51.1444 79.3778L51.6412 80.278L52.6518 80.4733C52.7792 80.4988 52.8302 80.6559 52.741 80.7494L52.0361 81.5009L52.1635 82.5243C52.1763 82.6262 52.0955 82.7111 51.9979 82.7111C51.9766 82.7111 51.9512 82.7069 51.9257 82.6942L50.9957 82.2568L50.0658 82.6942C50.0403 82.7069 50.0191 82.7111 49.9936 82.7111C49.9002 82.7111 49.8153 82.6262 49.828 82.5243L49.9554 81.5009L49.2505 80.7494C49.1613 80.6559 49.2123 80.4988 49.3397 80.4733L50.3503 80.278L50.8471 79.3778C50.8768 79.3226 50.9363 79.2929 50.9915 79.2929M51 79.0806C50.8641 79.0806 50.7367 79.157 50.6688 79.2759L50.2187 80.0912L49.3057 80.2653C49.1698 80.2908 49.0594 80.3884 49.017 80.5201C48.9745 80.6517 49.0085 80.7961 49.1019 80.8937L49.7388 81.5731L49.6242 82.4946C49.6115 82.6007 49.6454 82.7111 49.7134 82.7918C49.7856 82.8725 49.8875 82.9192 49.9979 82.9192C50.0531 82.9192 50.1083 82.9065 50.1592 82.881L51 82.4861L51.8408 82.881C51.8917 82.9065 51.9469 82.9192 52.0021 82.9192C52.1125 82.9192 52.2144 82.8725 52.2866 82.7918C52.3588 82.7111 52.3928 82.6007 52.3758 82.4946L52.2611 81.5731L52.8981 80.8937C52.9915 80.7918 53.0255 80.6474 52.983 80.5201C52.9405 80.3884 52.8301 80.2908 52.6943 80.2653L51.7813 80.0912L51.3312 79.2759C51.2633 79.157 51.1359 79.0806 51 79.0806Z" fill="#213743"/>
<path d="M51 79.8152V80.9744C51 81.0678 51.0892 81.1315 51.1784 81.106L52.2187 80.7706C52.2739 80.7536 52.2697 80.6729 52.2102 80.6602L51.5563 80.5413C51.4969 80.5286 51.4417 80.4903 51.4119 80.4351L51.085 79.7939C51.0637 79.7515 50.9958 79.7642 50.9958 79.8152H51Z" fill="#FFEBB8"/>
<path d="M51 81.4924V82.0699C51 82.1039 51.017 82.1294 51.0467 82.1464L51.7983 82.5073C51.8365 82.5243 51.8705 82.4818 51.845 82.4479L51.0934 81.4627C51.0637 81.4245 51 81.4457 51 81.4924Z" fill="#FF7F00"/>
<path d="M56.1444 79.3778L56.6412 80.278L57.6518 80.4733C57.7792 80.4988 57.8302 80.6559 57.741 80.7494L57.0361 81.5009L57.1635 82.5243C57.1805 82.6559 57.0446 82.7494 56.93 82.6942L56 82.2568L55.0701 82.6942C54.9512 82.7494 54.8196 82.6517 54.8366 82.5243L54.9639 81.5009L54.2591 80.7494C54.1699 80.6559 54.2208 80.4988 54.3482 80.4733L55.3588 80.278L55.8557 79.3778C55.9194 79.2632 56.085 79.2632 56.1444 79.3778Z" fill="#FFC200"/>
<path d="M56 79.2929C56.0552 79.2929 56.1147 79.3226 56.1444 79.3778L56.6412 80.278L57.6518 80.4733C57.7792 80.4988 57.8302 80.6559 57.741 80.7494L57.0361 81.5009L57.1635 82.5243C57.1763 82.6262 57.0955 82.7111 56.9979 82.7111C56.9766 82.7111 56.9512 82.7069 56.9257 82.6942L55.9957 82.2568L55.0658 82.6942C55.0403 82.7069 55.0191 82.7111 54.9936 82.7111C54.9002 82.7111 54.8153 82.6262 54.828 82.5243L54.9554 81.5009L54.2505 80.7494C54.1613 80.6559 54.2123 80.4988 54.3397 80.4733L55.3503 80.278L55.8471 79.3778C55.8768 79.3226 55.9363 79.2929 55.9915 79.2929M56 79.0806C55.8641 79.0806 55.7367 79.157 55.6688 79.2759L55.2187 80.0912L54.3057 80.2653C54.1698 80.2908 54.0594 80.3884 54.017 80.5201C53.9745 80.6517 54.0085 80.7961 54.1019 80.8937L54.7388 81.5731L54.6242 82.4946C54.6115 82.6007 54.6454 82.7111 54.7134 82.7918C54.7856 82.8725 54.8875 82.9192 54.9979 82.9192C55.0531 82.9192 55.1083 82.9065 55.1592 82.881L56 82.4861L56.8408 82.881C56.8917 82.9065 56.9469 82.9192 57.0021 82.9192C57.1125 82.9192 57.2144 82.8725 57.2866 82.7918C57.3588 82.7111 57.3928 82.6007 57.3758 82.4946L57.2611 81.5731L57.8981 80.8937C57.9915 80.7918 58.0255 80.6474 57.983 80.5201C57.9405 80.3884 57.8301 80.2908 57.6943 80.2653L56.7813 80.0912L56.3312 79.2759C56.2633 79.157 56.1359 79.0806 56 79.0806Z" fill="#213743"/>
<path d="M56 79.8152V80.9744C56 81.0678 56.0892 81.1315 56.1784 81.106L57.2187 80.7706C57.2739 80.7536 57.2697 80.6729 57.2102 80.6602L56.5563 80.5413C56.4969 80.5286 56.4417 80.4903 56.4119 80.4351L56.085 79.7939C56.0637 79.7515 55.9958 79.7642 55.9958 79.8152H56Z" fill="#FFEBB8"/>
<path d="M56 81.4924V82.0699C56 82.1039 56.017 82.1294 56.0467 82.1464L56.7983 82.5073C56.8365 82.5243 56.8705 82.4818 56.845 82.4479L56.0934 81.4627C56.0637 81.4245 56 81.4457 56 81.4924Z" fill="#FF7F00"/>
<rect x="13" y="62" width="37" height="13" rx="6.5" fill="#2F4553"/>
<path d="M29.1086 70H27.9746L29.3306 66.898H27.3806V65.998H30.5186V66.712L29.1086 70ZM32.586 70.072C31.878 70.072 31.344 69.856 30.972 69.49L31.536 68.77C31.812 69.022 32.19 69.16 32.574 69.16C33.012 69.16 33.228 68.944 33.228 68.698C33.228 68.428 33.018 68.236 32.604 68.236C32.286 68.236 32.034 68.326 31.812 68.536L31.098 68.362V65.998H34.002V66.898H32.13V67.672C32.322 67.486 32.634 67.354 32.988 67.354C33.666 67.354 34.278 67.852 34.278 68.656C34.278 69.52 33.624 70.072 32.586 70.072ZM37.6631 70H36.6491L36.0911 69.124L35.5271 70H34.5191L35.5091 68.512L34.5791 67.102H35.5931L36.0911 67.888L36.5831 67.102H37.5971L36.6731 68.512L37.6631 70Z" fill="white"/>
<path d="M7.69 11H5.33V7.665H7.69V8.29H6.04V8.995H7.655V9.62H6.04V10.375H7.69V11ZM9.61004 11.06C9.32504 11.06 9.06004 10.94 8.86504 10.69V11.92H8.23004V8.585H8.86504V8.89C9.05004 8.655 9.31504 8.525 9.61004 8.525C10.23 8.525 10.68 8.985 10.68 9.79C10.68 10.595 10.23 11.06 9.61004 11.06ZM9.41004 10.495C9.77504 10.495 10.02 10.21 10.02 9.79C10.02 9.375 9.77504 9.09 9.41004 9.09C9.20504 9.09 8.97004 9.21 8.86504 9.365V10.22C8.97004 10.37 9.20504 10.495 9.41004 10.495ZM11.4601 8.325C11.2551 8.325 11.0801 8.155 11.0801 7.945C11.0801 7.735 11.2551 7.57 11.4601 7.57C11.6701 7.57 11.8401 7.735 11.8401 7.945C11.8401 8.155 11.6701 8.325 11.4601 8.325ZM11.7801 11H11.1451V8.585H11.7801V11ZM13.5347 11.06C12.7897 11.06 12.2547 10.535 12.2547 9.79C12.2547 9.05 12.7897 8.525 13.5347 8.525C14.0297 8.525 14.3297 8.74 14.4897 8.96L14.0747 9.35C13.9597 9.18 13.7847 9.09 13.5647 9.09C13.1797 9.09 12.9097 9.37 12.9097 9.79C12.9097 10.21 13.1797 10.495 13.5647 10.495C13.7847 10.495 13.9597 10.395 14.0747 10.235L14.4897 10.62C14.3297 10.845 14.0297 11.06 13.5347 11.06Z" fill="#05080A"/>
<path d="M49.514 11H49.062L47.67 9.096V11H47.202V8.332H47.682L49.046 10.184V8.332H49.514V11ZM50.9409 11.048C50.3289 11.048 49.9489 10.588 49.9489 10.032C49.9489 9.48 50.3289 9.02 50.9409 9.02C51.5609 9.02 51.9369 9.48 51.9369 10.032C51.9369 10.588 51.5609 11.048 50.9409 11.048ZM50.9409 10.676C51.3009 10.676 51.5009 10.376 51.5009 10.032C51.5009 9.692 51.3009 9.392 50.9409 9.392C50.5849 9.392 50.3849 9.692 50.3849 10.032C50.3849 10.376 50.5849 10.676 50.9409 10.676ZM52.5583 11.044C52.4063 11.044 52.2783 10.916 52.2783 10.764C52.2783 10.612 52.4063 10.484 52.5583 10.484C52.7103 10.484 52.8383 10.612 52.8383 10.764C52.8383 10.916 52.7103 11.044 52.5583 11.044ZM55.3141 11H54.8461V8.94L54.4101 9.392L54.1381 9.108L54.9061 8.332H55.3141V11ZM56.6577 11.044C56.3297 11.044 56.0737 10.928 55.8937 10.748L56.1097 10.396C56.2497 10.54 56.4057 10.628 56.6577 10.628C57.1417 10.628 57.3617 10.188 57.3617 9.752C57.3617 9.724 57.3617 9.7 57.3617 9.672C57.2377 9.852 56.9577 10.048 56.6457 10.048C56.1657 10.048 55.7497 9.752 55.7497 9.184C55.7497 8.692 56.1377 8.288 56.7337 8.288C57.5177 8.288 57.8337 8.924 57.8337 9.668C57.8337 10.436 57.4297 11.044 56.6577 11.044ZM56.7697 9.644C56.9977 9.644 57.2217 9.524 57.3537 9.332C57.3297 9.044 57.1697 8.704 56.7577 8.704C56.4097 8.704 56.2257 8.956 56.2257 9.168C56.2257 9.496 56.4817 9.644 56.7697 9.644Z" fill="white"/>
<defs>
<linearGradient id="paint0_linear_26835_29182" x1="37.8344" y1="86.256" x2="23.263" y2="1.76" gradientUnits="userSpaceOnUse">
<stop stop-color="#55EEFF"/>
<stop offset="0.09" stop-color="#6CABFF"/>
<stop offset="0.23" stop-color="#8C4FFF"/>
<stop offset="0.32" stop-color="#A016FF"/>
<stop offset="0.37" stop-color="#A800FF"/>
<stop offset="0.44" stop-color="#C043D4"/>
<stop offset="0.51" stop-color="#D680AF"/>
<stop offset="0.58" stop-color="#E8B091"/>
<stop offset="0.64" stop-color="#F4D27B"/>
<stop offset="0.69" stop-color="#FCE76E"/>
<stop offset="0.72" stop-color="#FFEF6A"/>
<stop offset="0.81" stop-color="#BCF589"/>
<stop offset="0.9" stop-color="#84FAA3"/>
<stop offset="0.97" stop-color="#62FDB3"/>
<stop offset="1" stop-color="#55FFBA"/>
</linearGradient>
<linearGradient id="paint1_linear_26835_29182" x1="31.5" y1="8.49023" x2="31.5" y2="57.1602" gradientUnits="userSpaceOnUse">
<stop stop-color="#047BFF"/>
<stop offset="1" stop-color="#009FE8"/>
</linearGradient>
<linearGradient id="paint2_linear_26835_29182" x1="57.77" y1="86.3601" x2="26.53" y2="13.7601" gradientUnits="userSpaceOnUse">
<stop stop-color="#55EEFF"/>
<stop offset="0.09" stop-color="#6CABFF"/>
<stop offset="0.23" stop-color="#8C4FFF"/>
<stop offset="0.32" stop-color="#A016FF"/>
<stop offset="0.37" stop-color="#A800FF"/>
<stop offset="0.44" stop-color="#C043D4"/>
<stop offset="0.51" stop-color="#D680AF"/>
<stop offset="0.58" stop-color="#E8B091"/>
<stop offset="0.64" stop-color="#F4D27B"/>
<stop offset="0.69" stop-color="#FCE76E"/>
<stop offset="0.72" stop-color="#FFEF6A"/>
<stop offset="0.81" stop-color="#BCF589"/>
<stop offset="0.9" stop-color="#84FAA3"/>
<stop offset="0.97" stop-color="#62FDB3"/>
<stop offset="1" stop-color="#55FFBA"/>
</linearGradient>
<linearGradient id="paint3_linear_26835_29182" x1="31.5" y1="19.1198" x2="31.5" y2="45.3598" gradientUnits="userSpaceOnUse">
<stop stop-color="#FF5500"/>
<stop offset="1" stop-color="#557086"/>
</linearGradient>
<linearGradient id="paint4_linear_26835_29182" x1="31.5" y1="28.0601" x2="31.5" y2="21.6301" gradientUnits="userSpaceOnUse">
<stop stop-color="#FF8913"/>
<stop offset="1" stop-color="#FFC200"/>
</linearGradient>
<linearGradient id="paint5_linear_26835_29182" x1="-1.06267e-05" y1="28.0599" x2="0.99999" y2="21.6299" gradientUnits="userSpaceOnUse">
<stop stop-color="#FF8913"/>
<stop offset="1" stop-color="#FFC200"/>
</linearGradient>
<linearGradient id="paint6_linear_26835_29182" x1="-4.50536e-06" y1="42.07" x2="31.5" y2="25.9" gradientUnits="userSpaceOnUse">
<stop stop-color="#FF8913"/>
<stop offset="1" stop-color="#FFC200"/>
</linearGradient>
<linearGradient id="paint7_linear_26835_29182" x1="31.5" y1="42.0701" x2="31.5" y2="25.9001" gradientUnits="userSpaceOnUse">
<stop stop-color="#FF8913"/>
<stop offset="1" stop-color="#FFC200"/>
</linearGradient>
<linearGradient id="paint8_linear_26835_29182" x1="31.5" y1="15.59" x2="31.5" y2="35.73" gradientUnits="userSpaceOnUse">
<stop stop-color="#FFC200"/>
<stop offset="1" stop-color="#FFEBB8"/>
</linearGradient>
<linearGradient id="paint9_linear_26835_29182" x1="-20.34" y1="39.4699" x2="9.77" y2="35.6999" gradientUnits="userSpaceOnUse">
<stop stop-color="#047BFF"/>
<stop offset="1" stop-color="#1CE61C"/>
</linearGradient>
<linearGradient id="paint10_linear_26835_29182" x1="56.53" y1="60.2101" x2="56.53" y2="45.8001" gradientUnits="userSpaceOnUse">
<stop stop-color="#557086"/>
<stop offset="1" stop-color="#1A2C38"/>
</linearGradient>
<linearGradient id="paint11_linear_26835_29182" x1="50.4" y1="82.5401" x2="53.79" y2="44.7101" gradientUnits="userSpaceOnUse">
<stop stop-color="#FF5500"/>
<stop offset="1" stop-color="#557086"/>
</linearGradient>
<linearGradient id="paint12_linear_26835_29182" x1="76.01" y1="41.7801" x2="52.38" y2="35.0101" gradientUnits="userSpaceOnUse">
<stop stop-color="#047BFF"/>
<stop offset="1" stop-color="#1CE61C"/>
</linearGradient>
<linearGradient id="paint13_linear_26835_29182" x1="8.98999" y1="63.2398" x2="8.98999" y2="35.4098" gradientUnits="userSpaceOnUse">
<stop stop-color="#557086"/>
<stop offset="1" stop-color="#1A2C38"/>
</linearGradient>
<linearGradient id="paint14_linear_26835_29182" x1="3.34001" y1="68.7401" x2="3.34001" y2="47.4601" gradientUnits="userSpaceOnUse">
<stop stop-color="#FF5500"/>
<stop offset="1" stop-color="#557086"/>
</linearGradient>
<linearGradient id="paint15_linear_26835_29182" x1="13.92" y1="78.0801" x2="12.88" y2="49.6601" gradientUnits="userSpaceOnUse">
<stop stop-color="#FF5500"/>
<stop offset="1" stop-color="#557086"/>
</linearGradient>
<linearGradient id="paint16_linear_26835_29182" x1="31.75" y1="78.7" x2="31.75" y2="22.85" gradientUnits="userSpaceOnUse">
<stop stop-color="#CCF8FF"/>
<stop offset="1" stop-color="#45A7FF"/>
</linearGradient>
<linearGradient id="paint17_linear_26835_29182" x1="31.32" y1="45.8698" x2="31.32" y2="35.2598" gradientUnits="userSpaceOnUse">
<stop stop-color="#CAF4FF"/>
<stop offset="1" stop-color="white"/>
</linearGradient>
<linearGradient id="paint18_linear_26835_29182" x1="23.68" y1="82.3698" x2="23.68" y2="55.6098" gradientUnits="userSpaceOnUse">
<stop stop-color="#45A7FF"/>
<stop offset="1" stop-color="#45A7FF" stop-opacity="0"/>
</linearGradient>
<linearGradient id="paint19_linear_26835_29182" x1="37.33" y1="82.3702" x2="37.33" y2="55.6102" gradientUnits="userSpaceOnUse">
<stop stop-color="#45A7FF"/>
<stop offset="1" stop-color="#45A7FF" stop-opacity="0"/>
</linearGradient>
<linearGradient id="paint20_linear_26835_29182" x1="42.03" y1="81.0002" x2="42.03" y2="54.2402" gradientUnits="userSpaceOnUse">
<stop stop-color="#45A7FF"/>
<stop offset="1" stop-color="#45A7FF" stop-opacity="0"/>
</linearGradient>
<linearGradient id="paint21_linear_26835_29182" x1="25.6" y1="108.55" x2="25.6" y2="79.96" gradientUnits="userSpaceOnUse">
<stop stop-color="#CAF4FF"/>
<stop offset="1" stop-color="white"/>
</linearGradient>
<linearGradient id="paint22_linear_26835_29182" x1="51.08" y1="89.51" x2="19.74" y2="16.67" gradientUnits="userSpaceOnUse">
<stop stop-color="#55EEFF"/>
<stop offset="0.09" stop-color="#6CABFF"/>
<stop offset="0.23" stop-color="#8C4FFF"/>
<stop offset="0.32" stop-color="#A016FF"/>
<stop offset="0.37" stop-color="#A800FF"/>
<stop offset="0.44" stop-color="#C043D4"/>
<stop offset="0.51" stop-color="#D680AF"/>
<stop offset="0.58" stop-color="#E8B091"/>
<stop offset="0.64" stop-color="#F4D27B"/>
<stop offset="0.69" stop-color="#FCE76E"/>
<stop offset="0.72" stop-color="#FFEF6A"/>
<stop offset="0.81" stop-color="#BCF589"/>
<stop offset="0.9" stop-color="#84FAA3"/>
<stop offset="0.97" stop-color="#62FDB3"/>
<stop offset="1" stop-color="#55FFBA"/>
</linearGradient>
<linearGradient id="paint23_linear_26835_29182" x1="56.51" y1="65.66" x2="56.51" y2="47.3" gradientUnits="userSpaceOnUse">
<stop stop-color="#557086"/>
<stop offset="1" stop-color="#1A2C38"/>
</linearGradient>
<linearGradient id="paint24_linear_26835_29182" x1="51.97" y1="56.0801" x2="51.33" y2="48.4601" gradientUnits="userSpaceOnUse">
<stop stop-color="#FF5500"/>
<stop offset="1" stop-color="#3B5869"/>
</linearGradient>
<clipPath id="clip0_26835_29182">
<rect width="63" height="88" fill="white"/>
</clipPath>
<clipPath id="clip1_26835_29182">
<rect width="63" height="88" fill="white"/>
</clipPath>
</defs>
</svg>
