<svg width="63" height="88" viewBox="0 0 63 88" fill="none" xmlns="http://www.w3.org/2000/svg">
<rect width="63" height="88" rx="4" fill="url(#paint0_linear_26835_29183)"/>
<g clip-path="url(#clip0_26835_29183)">
<g clip-path="url(#clip1_26835_29183)">
<path d="M56.44 0.740234H6.55998C3.22971 0.740234 0.529984 3.43996 0.529984 6.77023V81.2302C0.529984 84.5605 3.22971 87.2602 6.55998 87.2602H56.44C59.7703 87.2602 62.47 84.5605 62.47 81.2302V6.77023C62.47 3.43996 59.7703 0.740234 56.44 0.740234Z" fill="#047BFF"/>
<path d="M14.87 29.1302C20.2382 29.1302 24.59 27.5184 24.59 25.5302C24.59 23.542 20.2382 21.9302 14.87 21.9302C9.50177 21.9302 5.14998 23.542 5.14998 25.5302C5.14998 27.5184 9.50177 29.1302 14.87 29.1302Z" fill="white"/>
<path d="M29.36 30.5902C36.8269 30.5902 42.88 28.6516 42.88 26.2602C42.88 23.8688 36.8269 21.9302 29.36 21.9302C21.8931 21.9302 15.84 23.8688 15.84 26.2602C15.84 28.6516 21.8931 30.5902 29.36 30.5902Z" fill="white"/>
<path d="M24.25 26.9703C24.25 26.9703 33.07 28.2203 36.4 26.5603C41.67 23.9303 29.91 22.8403 29.91 22.8403L24.25 26.9703Z" fill="#CCF8FF"/>
<path d="M21.68 27.49C27.1145 27.49 31.52 25.1977 31.52 22.37C31.52 19.5423 27.1145 17.25 21.68 17.25C16.2455 17.25 11.84 19.5423 11.84 22.37C11.84 25.1977 16.2455 27.49 21.68 27.49Z" fill="white"/>
<path d="M51.42 28.8301L58.41 29.9001L52.74 29.8901L51.42 28.8301Z" fill="white"/>
<path d="M43.94 31.2702C49.1425 31.2702 53.36 30.3076 53.36 29.1202C53.36 27.9328 49.1425 26.9702 43.94 26.9702C38.7375 26.9702 34.52 27.9328 34.52 29.1202C34.52 30.3076 38.7375 31.2702 43.94 31.2702Z" fill="white"/>
<path d="M8.68998 32.5701C12.8542 32.5701 16.23 30.9538 16.23 28.9601C16.23 26.9663 12.8542 25.3501 8.68998 25.3501C4.52575 25.3501 1.14998 26.9663 1.14998 28.9601C1.14998 30.9538 4.52575 32.5701 8.68998 32.5701Z" fill="white"/>
<path d="M1.14998 29.8901H61.87V44.2001L1.14998 29.8901Z" fill="#45A7FF"/>
<path d="M26.16 22.3701C26.16 24.2001 21.89 25.6801 18.9 25.6801C15.91 25.6801 13.49 24.2001 13.49 22.3701C13.49 20.5401 15.91 19.0601 18.9 19.0601C21.89 19.0601 26.16 20.5401 26.16 22.3701Z" fill="#CCF8FF"/>
<path d="M1.14998 29.8901L62.44 42.4501V70.0001L53.39 71.6201L1.14998 29.8901Z" fill="#047BFF"/>
<path d="M61.71 58.66L1.47998 33L2.22998 37.18L41.44 86.78H59.71L61.8 84.8L61.71 58.66Z" fill="#45A7FF"/>
<path d="M0.639984 46.34L1.42998 86.37L47.5 86.78L1.47998 33L0.639984 46.34Z" fill="#047BFF"/>
<path d="M1.87998 36.5402C1.87998 36.5402 -1.15002 40.5902 2.55998 41.1202C2.55998 41.1202 2.90998 45.0402 7.17998 46.5102C12.68 48.4102 8.44998 55.4402 16.9 56.4302C25.35 57.4202 16.05 62.0402 32.03 58.3902C48.01 54.7402 51.82 55.1202 51.82 55.1202L36.38 41.5202L9.83998 35.1802L4.79998 35.6402L1.87998 36.5402Z" fill="#071D2A"/>
<path d="M3.92998 1.3501C2.85998 1.3501 1.42998 3.4401 1.42998 4.5001L1.99998 18.1901C1.99998 16.4301 3.42998 15.0001 5.18998 15.0001H33.59C34.8 15.0001 35.94 14.4501 36.7 13.5101L44.8 3.4801C45.56 2.5401 46.7 1.9901 47.91 1.9901L3.92998 1.3501Z" fill="url(#paint1_linear_26835_29183)"/>
<path d="M59 0H3.99998C1.78998 0 -1.52588e-05 1.79 -1.52588e-05 4V84C-1.52588e-05 86.21 1.78998 88 3.99998 88H59C61.21 88 63 86.21 63 84V4C63 1.79 61.21 0 59 0ZM61 82.81C61 84.57 59.57 86 57.81 86H5.18998C3.42998 86 1.99998 84.57 1.99998 82.81V16.9C1.99998 8.67 8.66998 2 16.9 2H57.81C59.57 2 61 3.43 61 5.19V82.81Z" fill="url(#paint2_linear_26835_29183)"/>
<mask id="mask0_26835_29183" style="mask-type:luminance" maskUnits="userSpaceOnUse" x="0" y="0" width="63" height="88">
<path d="M59 0H3.99998C1.78998 0 -1.52588e-05 1.79 -1.52588e-05 4V84C-1.52588e-05 86.21 1.78998 88 3.99998 88H59C61.21 88 63 86.21 63 84V4C63 1.79 61.21 0 59 0ZM61 82.81C61 84.57 59.57 86 57.81 86H5.18998C3.42998 86 1.99998 84.57 1.99998 82.81V18.19C1.99998 16.43 3.42998 15 5.18998 15H33.59C34.8 15 35.94 14.45 36.7 13.51L44.8 3.48C45.56 2.54 46.7 1.99 47.91 1.99H57.81C59.57 1.99 61 3.42 61 5.18V82.8V82.81Z" fill="white"/>
</mask>
<g mask="url(#mask0_26835_29183)">
<path d="M68.37 47.3101V26.6401L4.45999 90.5501H25.13L68.37 47.3101Z" fill="white"/>
<path d="M64.66 -2.29004H55.22L-2.92001 55.84V66.18L65.46 -2.20004C65.2 -2.26004 64.93 -2.29004 64.66 -2.29004Z" fill="white"/>
<path d="M68.37 69.2298V61.5498L39.37 90.5498H47.05L68.37 69.2298Z" fill="white"/>
</g>
<path d="M55.27 52.9802C55.27 52.9802 54.97 54.4302 53.68 55.0802C52.39 55.7302 46.12 54.9702 42.98 55.6002C39.84 56.2302 26.78 58.4802 25.71 58.6302C24.64 58.7802 24.14 59.0102 23.32 57.4202L55.27 52.9702V52.9802Z" fill="#1A2C38"/>
<path d="M54 38.1001L53.56 43.9801L48.43 48.6601L21.08 52.2301C21.08 52.2301 22.98 57.9201 24.11 58.2801C25.24 58.6401 41.91 54.6501 45.74 54.7001C49.57 54.7501 52.33 54.8901 53.74 54.5301C55.15 54.1701 55.48 51.6001 57.41 50.5701C58.85 49.8001 60.7 48.0601 61.53 47.2201C61.82 46.9301 61.98 46.5401 61.96 46.1401L61.94 45.5501C61.93 45.1901 61.88 44.8301 61.79 44.4701C61.48 43.2601 60.69 40.4201 59.9 39.6101C59.24 38.9201 59.11 38.4601 54.51 37.6901C54.25 37.6501 54.01 37.8301 53.99 38.1001H54Z" fill="#2C404C"/>
<path d="M51.56 51.0898C51.56 51.0898 54.49 48.9698 55.45 47.9598C56.41 46.9498 57.47 46.1498 57.61 46.3198C57.75 46.4898 52.36 51.3198 52.36 51.3198L51.56 51.0898Z" fill="#1A2C38"/>
<path d="M51.54 40.7498C51.13 44.5698 48.08 46.8298 44.66 46.4698C41.24 46.1098 38.78 42.7198 39.19 38.8998C39.6 35.0798 42.21 32.0498 46.13 32.6498C50.48 33.3198 51.95 36.9298 51.55 40.7498H51.54Z" fill="#2C404C"/>
<path d="M44.2072 45.0927C46.1 44.8746 47.3712 42.4118 47.0464 39.5917C46.7216 36.7716 44.9238 34.6622 43.031 34.8802C41.1381 35.0982 39.8669 37.561 40.1917 40.3812C40.5165 43.2013 42.3143 45.3107 44.2072 45.0927Z" fill="#071D2A"/>
<path d="M45.2 45C45.2 45 46.63 44.39 46.68 41.54C46.73 38.69 43.71 33.65 45.35 32.71C45.35 32.71 45.65 32.29 44.05 32.26C42.45 32.23 39.32 34.69 39.67 40.04L45.2 45Z" fill="#1A2C38"/>
<path d="M37.66 38.49L41.05 37.44C41.05 37.44 41.13 37.43 41.35 37.7C41.57 37.97 40.22 38.24 40.22 38.24C40.22 38.24 41.2 38.27 41.28 38.7C41.36 39.13 38.76 39.49 38.76 39.49L37.66 38.48V38.49Z" fill="#557086"/>
<path d="M35.63 37.2999C35.63 37.2999 40.68 36.6399 42.19 36.9799C42.19 36.9799 42.27 36.2899 41.55 36.1099L34.54 36.2699L35.62 37.2899L35.63 37.2999Z" fill="#1A2C38"/>
<path d="M30.47 32.2798L31.5 32.4498C31.5 32.4498 31.76 32.6298 31.73 32.9698C31.7 33.3098 31.48 34.1698 30.82 34.2398L29.01 33.2398L30.47 32.2798Z" fill="#1A2C38"/>
<path d="M25.42 31.8201C25.42 31.8201 29.94 31.0702 31.51 32.4502C31.63 32.5602 31.64 32.7401 31.55 32.8701L31.34 33.1502C31.29 33.2202 31.21 33.2601 31.12 33.2701L29.05 33.4301L25.43 31.8201H25.42Z" fill="#2C404C"/>
<path d="M5.96999 30.7199C5.96999 30.7199 4.49999 28.8199 4.33999 28.2899C4.17999 27.7599 4.26999 26.9299 4.76999 26.8499C5.26999 26.7699 10.45 26.2699 10.79 26.6899C10.79 26.6899 11.24 26.0799 12.09 26.4699L15.62 26.2999C15.62 26.2999 16.68 26.2399 16.91 26.6999L13.03 29.8099L12.94 28.9399L11.84 29.0099L12 30.2499L11.63 30.2299L11.45 29.1299C11.45 29.1299 8.82999 29.5799 5.69999 28.6099L7.61999 31.5499L10.44 31.8499L10.39 32.1199L6.73999 32.4399L5.96999 30.7399V30.7199Z" fill="#2C404C"/>
<path d="M6.12999 28.4C6.12999 28.4 7.64999 29.35 11.55 28.98L11.74 30.12L12.03 30.09L11.84 28.83L13.05 28.8L13.13 29.46L13.27 29.42V28.82L13.85 28.74L15.1 27.5L13.74 28.34L13.24 28.36L13.18 28.69C13.18 28.69 12.93 27.65 12.69 27.62C12.45 27.59 12.35 28.39 12.35 28.39L11.82 28.42L11.78 28.64C11.78 28.64 11.51 27.7 11.23 27.67C10.95 27.64 10.96 28.48 10.96 28.48C10.96 28.48 7.87999 28.8 6.14999 28.41L6.12999 28.4Z" fill="#1A2C38"/>
<path d="M12.62 29.8899C12.62 29.8899 15.16 26.7899 16.46 26.6099C17.76 26.4299 19.83 26.8099 19.83 26.8099L19.19 29.6299L16.85 30.2499L16.44 29.9699C16.44 29.9699 14.56 29.7699 12.62 29.8999V29.8899Z" fill="#008C00"/>
<path d="M45.56 50.8101C45.56 50.8101 45.36 51.6101 45.94 51.9101C46.52 52.2101 46.72 52.4801 46.72 52.4801C46.72 52.4801 39.01 53.3401 37.19 53.8501C35.37 54.3601 23.5 55.2901 23.5 55.2901L23.62 56.4401C23.62 56.4401 28.79 55.0401 32.86 54.8001C36.93 54.5601 41.95 53.1001 46.5 53.0501C46.5 53.0501 48.75 54.4101 51.56 54.3001L45.56 50.8101Z" fill="#1A2C38"/>
<path d="M10.57 32.2298L8.20998 33.6598L7.79998 32.0698L6.80998 32.1598L7.53998 36.5398L8.97998 36.1698L9.33998 33.5898L11.09 32.5598L10.57 32.2298Z" fill="#1A2C38"/>
<path d="M12.62 29.8901C12.62 29.8901 11.11 29.9401 10.81 30.3201C10.51 30.7001 9.58999 32.4201 10.95 33.0701C12.31 33.7201 12.96 37.3101 14.97 37.9101C16.98 38.5101 28.55 41.4701 30.26 42.8101C31.97 44.1501 35.57 43.2501 40.64 46.8101C45.71 50.3701 47.7 54.6701 53.15 54.3401C58.6 54.0201 29 26.1001 12.61 29.8801L12.62 29.8901Z" fill="#1CE61C"/>
<path d="M11.14 32.1499C10.94 31.7799 13.14 31.8199 13.33 32.0099C13.52 32.1999 13.68 32.9799 13.33 32.9799C12.98 32.9799 11.65 33.0899 11.14 32.1499Z" fill="#008C00"/>
<path d="M22.02 37.1699L23.08 39.8799C23.08 39.8799 26.74 40.8199 28.93 41.7999C31.12 42.7799 30.9 43.2499 33.04 43.4699C35.18 43.6899 38.02 44.3799 41.28 46.9999C41.28 46.9999 34.13 39.7199 22.01 37.1699H22.02Z" fill="#008C00"/>
<path d="M23.39 39.57L29.25 37.94C29.25 37.94 30.03 38.14 30.31 37.91C30.59 37.68 30.78 37.17 30.4 37.03C30.02 36.89 29.17 36.79 28.46 37.36L23.37 38.92L23.39 39.57Z" fill="#1A2C38"/>
<path d="M22.67 38.6001C22.67 38.6001 29.07 37.0601 29.28 37.3201C29.28 37.3201 33.69 36.4601 23.17 39.3101L22.68 38.6001H22.67Z" fill="#557086"/>
<path d="M30.2 41.2498C30.2 41.2498 31.29 40.8698 31.73 41.4098C32.17 41.9498 31.06 42.4498 31.06 42.4498L24.35 44.2998L23.53 42.6498L27.11 40.8398C27.11 40.8398 27.63 40.8798 27.7 41.2098C27.77 41.5398 26.24 42.0698 25.24 42.6698C25.24 42.6698 29.42 41.8498 30.19 41.2298L30.2 41.2498Z" fill="#1A2C38"/>
<path d="M8.40998 36.32C8.40998 36.32 8.24998 38.35 8.61998 39.34C8.61998 39.34 6.67998 39.63 9.29998 40.68C9.29998 40.68 8.76998 41.62 9.79998 42.06L11.07 43.37L12.41 43.69L16.75 36.65C16.75 36.65 18.25 36.36 18.98 34.83C18.98 34.83 20.39 34.5 20.65 34.65C20.91 34.8 22 34.82 20.87 34.04L18.41 34.36L14.24 34.25L8.41998 36.33L8.40998 36.32Z" fill="#1A2C38"/>
<path d="M19.22 36.2698L18.19 35.4498C18.19 35.4498 21.95 35.3898 23.29 38.2598C24.63 41.1298 24.95 45.4998 24.82 48.1898C24.82 48.1898 25 48.9998 26.04 49.1098L24.82 50.0898L22.89 50.0498L19.22 36.2598V36.2698Z" fill="#1A2C38"/>
<path d="M23.68 43.7101C23.22 39.7301 21.91 36.5701 20.67 36.2901C20.66 36.2901 20.64 36.2901 20.63 36.2901C17.36 35.7201 14.56 36.4901 13.59 36.8201C13.47 36.8301 13.35 36.8801 13.24 36.9501C12.16 37.6501 11.65 40.9501 12.09 44.8101C12.49 48.2901 13.54 51.1401 14.63 51.9901C16.17 53.5801 22.2 51.7101 22.2 51.7101C23.52 51.5601 24.19 47.9801 23.7 43.7201L23.68 43.7101Z" fill="#2C404C"/>
<path d="M21.96 52.6998L48.81 50.5498C48.81 50.5498 53.51 44.6198 54.36 44.7098C55.21 44.7998 55.6 44.6498 55.86 44.0298L53.62 43.2998C53.62 43.2998 53.5 43.9898 52.42 43.6598C51.34 43.3298 50.6 42.9798 49.66 44.1098C48.72 45.2398 47.74 47.4598 45.48 47.2198C45.48 47.2198 41.91 48.2198 38.1 48.0298C34.29 47.8398 25.8 47.1698 21.68 50.9598L21.96 52.6998Z" fill="#1CE61C"/>
<path d="M48.14 47.2902C48.14 47.2902 50.71 45.5402 51.38 44.5502C52.05 43.5602 53.24 44.7502 54.49 43.4502L55.01 43.5102C55.01 43.5102 53.39 45.0602 51.95 44.4102C51.95 44.4102 51.62 44.5202 51.43 44.7902C51.24 45.0602 49.47 46.9402 48.48 47.6102L48.15 47.2902H48.14Z" fill="#2C404C"/>
<path d="M42.23 47.8502C42.23 47.8502 42.52 47.6302 42.82 47.9102C43.12 48.1902 43.71 49.0302 43.69 49.2802L45.38 50.8302L44.82 51.1802C44.82 51.1802 44.06 49.9402 43.21 49.6002C42.36 49.2602 34.06 50.0902 32.32 50.1402C30.58 50.1902 23.96 50.5102 22.11 52.2502L22 51.7502C22 51.7502 24.31 50.4702 26.6 50.2302C28.89 49.9902 41.89 49.1002 43.22 49.2402C43.22 49.2402 43.17 48.7002 42.22 47.8502H42.23Z" fill="#2C404C"/>
<path d="M17.76 44.52C17.6 44.42 17.39 44.55 17.4 44.74C17.47 46.26 17.73 51.25 18.01 51.9C18.34 52.67 22.55 57.55 23.97 58.39L24.12 58.27C23.18 58.22 22.51 52.64 21.75 48.97C21.75 48.97 21.48 46.72 17.76 44.51V44.52Z" fill="#1A2C38"/>
<path d="M17.22 27.8399C17.31 28.2699 17.49 28.8299 17.84 29.2499C17.98 29.4299 18.2 29.5199 18.43 29.4999C18.77 29.4799 19.33 29.4199 19.86 29.2899C20.11 29.2299 20.3 29.0299 20.36 28.7899C20.44 28.4699 20.53 27.9899 20.51 27.5299C20.49 27.1399 20.2 26.8299 19.81 26.7599C19.31 26.6799 18.55 26.6299 17.79 26.8699C17.38 26.9999 17.14 27.4199 17.23 27.8399H17.22Z" fill="#2C404C"/>
<path d="M14.6882 49.9684C15.5716 49.8667 16.0218 47.4759 15.6938 44.6283C15.3659 41.7808 14.3839 39.5549 13.5006 39.6566C12.6173 39.7583 12.167 42.1492 12.495 44.9967C12.823 47.8443 13.8049 50.0702 14.6882 49.9684Z" fill="#1A2C38"/>
<path d="M14.8501 49.2965C15.5469 49.2162 15.8776 47.1186 15.5888 44.6112C15.3001 42.1038 14.5011 40.1363 13.8043 40.2165C13.1075 40.2968 12.7767 42.3944 13.0655 44.9018C13.3543 47.4092 14.1533 49.3767 14.8501 49.2965Z" fill="#1CE61C"/>
<path d="M14.1812 47.4676C14.5653 47.4234 14.7486 46.2756 14.5906 44.904C14.4326 43.5323 13.9932 42.4562 13.6091 42.5005C13.2251 42.5447 13.0418 43.6925 13.1998 45.0641C13.3577 46.4358 13.7972 47.5119 14.1812 47.4676Z" fill="#1A2C38"/>
<path d="M7.55998 34.27C7.18998 32.11 6.37998 30.43 5.69998 30.32H5.67998C3.89998 30.11 2.41998 30.63 1.90998 30.84C1.83998 30.85 1.77998 30.88 1.71998 30.92C1.15998 31.34 0.989977 33.15 1.35998 35.25C1.68998 37.13 2.33998 38.66 2.95998 39.09C3.83998 39.91 7.02998 38.69 7.02998 38.69C7.73998 38.56 7.97998 36.59 7.57998 34.28L7.55998 34.27Z" fill="#2C404C"/>
<path d="M5.57998 30.87C5.60998 31.09 5.00998 31.02 4.21998 31.11C3.42998 31.2 2.71998 31.42 2.68998 31.2C2.65998 30.98 3.28998 30.72 4.08998 30.63C4.88998 30.54 5.55998 30.64 5.57998 30.87Z" fill="#557086"/>
<path d="M2.93998 39.0798C3.81998 39.8998 7.00998 38.6798 7.00998 38.6798C7.55998 38.5798 7.82998 37.3498 7.72998 35.7098C6.90998 36.3598 5.92998 35.8898 4.48998 36.3498C3.34998 36.7098 2.04998 35.7298 1.30998 35.0298C1.31998 35.0998 1.32998 35.1698 1.33998 35.2398C1.66998 37.1198 2.31998 38.6498 2.93998 39.0798Z" fill="#1A2C38"/>
<path d="M2.91868 37.9767C3.39213 37.8948 3.55907 36.5755 3.29156 35.0299C3.02405 33.4844 2.42338 32.298 1.94994 32.3799C1.47649 32.4619 1.30954 33.7812 1.57705 35.3267C1.84456 36.8722 2.44523 38.0587 2.91868 37.9767Z" fill="#1A2C38"/>
<path d="M2.99021 37.6101C3.36569 37.545 3.47899 36.3894 3.24326 35.029C3.00754 33.6685 2.51206 32.6184 2.13658 32.6835C1.7611 32.7485 1.6478 33.9041 1.88352 35.2646C2.11925 36.625 2.61473 37.6751 2.99021 37.6101Z" fill="#1CE61C"/>
<path d="M2.57272 36.6325C2.77951 36.5966 2.84243 35.9632 2.71325 35.2177C2.58407 34.4722 2.31172 33.8969 2.10494 33.9327C1.89815 33.9685 1.83523 34.6019 1.96441 35.3474C2.09358 36.093 2.36594 36.6683 2.57272 36.6325Z" fill="#1A2C38"/>
<path d="M17.83 35.44C17.83 35.44 17.89 35.52 17.94 35.52C18.52 35.52 22.03 35.64 23.41 38.56C23.41 38.56 22.95 35.38 17.94 35.27C17.85 35.27 17.79 35.36 17.82 35.44H17.83Z" fill="#557086"/>
<path d="M23.81 29.7301L21.11 29.5601L16.73 30.4601L16.62 30.7801C16.62 30.7801 16.45 31.3401 16.94 31.6301C17.05 31.6901 17.13 31.7901 17.17 31.9101C17.28 32.2001 17.8 32.7701 19.99 33.1501C20.05 33.1501 20.1 33.1701 20.16 33.1701L20.38 33.1901C20.6 33.2101 20.82 33.2101 21.04 33.1701C21.84 33.0501 23.9 32.7501 24.25 32.9101C24.25 32.9101 25.09 33.0601 25.13 32.7701C25.17 32.4801 23.81 29.7201 23.81 29.7201V29.7301Z" fill="#2C404C"/>
<path d="M18.38 30.1299L18.27 31.1299L18.75 31.9999L20.73 33.0899L21.32 32.9899L21.61 32.6399L24.12 32.5699L24.18 32.0199L23.12 31.4999L22.71 30.6499L21.43 30.4499L21.9 31.5299L21.74 32.3099L21.42 32.3599L21.49 31.3999L20.28 29.8999L18.38 30.1299Z" fill="#1A2C38"/>
<path d="M24.7 32.8602L24.25 32.9202C24.25 32.9202 24.02 33.9002 26.47 33.5802C28.92 33.2602 25.14 31.4702 25.14 31.4702L24.69 32.8502L24.7 32.8602Z" fill="#80FF80"/>
<path d="M14.87 30.6502C14.87 30.6502 15.97 29.6202 17.3 29.9402C17.3 29.9402 20.8 29.1702 22.66 29.0102C24.51 28.8502 26.84 29.0202 25.92 29.7602C25.92 29.7602 24.55 29.8102 24.62 30.5602C24.62 30.5602 25.7 32.3602 25.87 33.0002C25.87 33.0002 25.13 33.4902 24.26 32.9302C24.26 32.9302 24.76 32.8702 24.44 31.7802C24.12 30.6902 22.02 29.1402 16.63 30.7902L14.88 30.6502H14.87Z" fill="#1CE61C"/>
<path d="M19.1458 30.089C20.0742 29.9493 20.8142 29.7519 20.7985 29.6481C20.7829 29.5444 20.0176 29.5735 19.0892 29.7133C18.1608 29.853 17.4208 30.0504 17.4364 30.1542C17.452 30.258 18.2173 30.2288 19.1458 30.089Z" fill="white"/>
<path d="M20.22 34.4198C20.22 34.4198 20.68 34.5098 20.9 34.3298C21.12 34.1498 20.9 33.5998 18.61 34.0198C16.32 34.4398 16.08 32.6598 11.93 33.3898C11.93 33.3898 8.84998 32.5698 8.08998 34.7198C8.08998 34.7198 7.99998 37.1898 8.91998 37.9498C9.83998 38.7098 10.93 38.6898 11.45 37.8898C11.97 37.0898 13 34.6698 14.99 34.7298C16.98 34.7898 18.85 34.7098 20.21 34.4198H20.22Z" fill="#2C404C"/>
<path d="M26.07 34.6099C25.3 34.1799 28.75 33.4099 29.36 33.6499C29.97 33.8899 47.72 43.7798 52.94 52.5498C54.32 54.8698 51.23 53.6998 50.12 52.5998C34.27 36.9498 26.21 34.6798 26.07 34.5998V34.6099Z" fill="#80FF80"/>
<path d="M56.72 44.4798C56.22 44.3998 56.15 43.0498 56.77 43.2898C57.39 43.5298 61.59 44.7998 61.7 46.3498C61.7 46.3498 59.63 46.3898 58.46 45.8998C58.36 45.8598 58.3 45.7398 58.34 45.6298C58.43 45.3298 58.38 44.7298 56.72 44.4598V44.4798Z" fill="#1A2C38"/>
<path d="M17.28 31.4398L18.09 31.2798L18.49 32.0498L17.84 32.1698L17.28 31.4398Z" fill="#557086"/>
<path d="M15.87 37.75C15.57 36.9 20.21 36.76 20.83 37.24C21.45 37.72 22.75 41.77 22.39 42.72C22.02 43.68 19.54 41.36 18.72 41.39C17.9 41.42 17.11 41.18 15.87 37.74V37.75Z" fill="#557086"/>
<path d="M20.88 47.9102C20.81 47.9902 20.47 48.1502 19.61 47.3602C18.75 46.5702 17.67 45.1302 17.74 45.0502C17.81 44.9702 18.59 45.3402 19.46 46.1302C20.33 46.9202 20.95 47.8302 20.88 47.9002V47.9102Z" fill="#2C404C"/>
<path d="M46.71 33.5801C47.07 33.7201 48.26 34.6601 48.72 34.7101C49.18 34.7601 49.01 34.2501 49.49 34.5401C49.97 34.8301 50.98 36.3801 50.42 36.5501C49.86 36.7201 48.54 37.3101 48.26 36.9701C47.98 36.6301 47.45 35.2201 46.91 34.5601C46.37 33.9001 46.45 33.4801 46.7 33.5801H46.71Z" fill="#557086"/>
<path d="M18.31 27.8402C18.32 28.1402 18.37 28.5402 18.53 28.8402C18.59 28.9702 18.71 29.0402 18.83 29.0402C19.02 29.0402 19.34 29.0202 19.64 28.9602C19.78 28.9302 19.91 28.8002 19.96 28.6302C20.03 28.4102 20.13 28.0902 20.15 27.7702C20.17 27.5002 20.04 27.2702 19.83 27.2102C19.56 27.1302 19.14 27.0602 18.7 27.2002C18.46 27.2702 18.29 27.5502 18.3 27.8402H18.31Z" fill="#1A2C38"/>
</g>
</g>
<path fill-rule="evenodd" clip-rule="evenodd" d="M6.49771 79C6.98969 79 7.48602 79.213 7.49037 79.6913C7.49037 80.1043 7.24656 80.2696 6.99839 80.2696C6.75023 80.2696 6.73281 80.1435 6.73281 80.1435C6.73281 80.1435 7.02452 79.9261 7.02452 79.7174C7.02452 79.6087 6.94179 79.313 6.489 79.3174C5.8577 79.3174 5.5181 79.6174 5.5181 80.1522C5.5181 80.7652 7.35105 80.9739 7.3554 81.7652C7.3554 82.613 6.47594 82.9957 5.69225 83C5.283 83 5.01306 82.7609 5.00871 82.3783C5.00871 81.9261 5.22204 81.4652 5.75756 81.4652C5.88382 81.4565 5.98831 81.5522 5.99702 81.6783C5.99702 81.6783 5.99702 81.6826 5.99702 81.687C5.99702 81.687 5.45715 81.8391 5.4615 82.3783C5.4615 82.4783 5.56599 82.6609 5.81851 82.6565C6.07103 82.6522 6.82424 82.4739 6.81989 81.8087C6.81989 81.1913 5.00435 81.1087 5 80.1478C5 79.0652 6.08845 79.0087 6.49771 79.0087V79ZM10.747 79.6C10.8123 79.5696 11.2129 79.4913 11.1955 79.813C11.1824 80.1348 10.9386 80.6913 10.9037 80.9348C11.2303 80.7696 11.6918 80.2087 11.6918 80.2087C11.6918 80.2087 12.0183 80.2522 11.9182 80.4522C11.818 80.6522 11.1519 81.1435 11.1519 81.1435C11.1519 81.1435 11.3043 82.5696 12.1707 82.5696C12.6453 82.5696 12.8499 82.3609 12.937 82.287C12.9587 82.2696 12.9762 82.2652 12.9849 82.2783C13.0197 82.387 12.9936 82.5043 12.9152 82.5913C12.8194 82.6957 12.5974 82.8217 12.1533 82.8261C11.3653 82.8261 10.9255 82.1957 10.8123 81.2609C10.7252 81.5348 10.7339 81.9826 10.7209 82.2C10.6948 82.2435 10.2507 82.4174 10.2158 82.1174C10.2158 82.0913 10.2158 82.0696 10.2158 82.0435C10.1331 82.1609 10.0199 82.2826 9.91108 82.2826C9.71951 82.2826 9.63679 82.1217 9.60196 82.0391C9.57584 82.0696 9.3625 82.287 9.08821 82.287C8.92277 82.2913 8.77474 82.1957 8.70943 82.0435C8.57011 82.1435 8.32195 82.2913 8.03895 82.2913C7.73418 82.2913 7.66017 82.1087 7.66017 81.9565C7.66017 81.713 7.84303 80.987 7.84303 80.987C7.84303 80.987 7.48602 81.1304 7.36411 81.1348C7.19431 81.1348 7.11159 80.8217 7.11159 80.813C7.11159 80.8087 7.11159 80.8 7.1203 80.8C7.22044 80.7609 7.94317 80.513 7.94317 80.513C7.94317 80.513 8.07813 79.9826 8.09555 79.913C8.11296 79.8435 8.2131 79.7 8.33065 79.6565C8.41773 79.6217 8.50916 79.6 8.60059 79.5913C8.63107 79.5913 8.65284 79.6 8.65284 79.6174C8.65284 79.6348 8.47433 80.4087 8.47433 80.4087C8.47433 80.4087 8.84876 80.3217 8.98808 80.3217C9.09692 80.3217 9.15352 80.387 9.09257 80.4696C9.03162 80.5522 8.96196 80.6478 8.92712 80.6913C8.88794 80.7348 8.86182 80.7435 8.77039 80.7609C8.64413 80.787 8.36113 80.8565 8.36113 80.8565C8.36113 80.8565 8.13473 81.6783 8.13909 81.8174C8.13909 81.8957 8.16521 81.987 8.26099 81.987C8.35678 81.987 8.53964 81.8739 8.67025 81.7913C8.69202 81.1522 9.18835 80.7261 9.57584 80.7261C9.7021 80.7261 9.65421 80.8478 9.79788 80.8478H9.88931C9.94591 80.8478 10.0069 80.8522 10.0069 80.9957C10.0069 81.1957 9.89367 81.5261 9.89367 81.7348C9.89367 81.8826 9.91544 81.987 9.97204 81.987C10.0678 81.987 10.1767 81.8478 10.255 81.7261C10.3813 81.0304 10.734 79.7609 10.734 79.6174L10.747 79.6ZM12.5016 80.7C12.7672 80.6783 12.9326 80.8217 12.9631 80.9C12.9936 80.9783 12.9892 81.1609 12.9152 81.2913C12.6845 81.7044 12.1097 81.6304 12.1097 81.6304C12.1097 81.6304 12.0444 81.9565 12.3405 81.9565C12.593 81.9565 12.7062 81.8304 12.8151 81.7261C12.8586 81.7261 12.9936 81.8652 12.9326 81.9609C12.8847 82.0348 12.6191 82.2565 12.2795 82.2609C11.7397 82.2609 11.6047 81.8 11.6744 81.4696C11.7658 81.0609 12.1751 80.7217 12.5016 80.6957V80.7ZM9.6455 80.987C9.32332 80.987 8.82699 81.9696 9.20577 81.9652C9.61938 81.9652 9.6455 81.1826 9.6455 81.0043V80.987ZM12.6409 80.8913C12.4232 80.9 12.1751 81.3174 12.1533 81.5C12.4798 81.513 12.654 81.1957 12.6757 81.0696C12.6888 80.9739 12.6932 80.887 12.6409 80.887V80.8913Z" fill="white"/>
<path d="M46.1444 79.3778L46.6412 80.278L47.6519 80.4733C47.7792 80.4988 47.8302 80.6559 47.741 80.7494L47.0361 81.5009L47.1635 82.5243C47.1805 82.6559 47.0446 82.7494 46.93 82.6942L46.0001 82.2568L45.0701 82.6942C44.9512 82.7494 44.8196 82.6517 44.8366 82.5243L44.964 81.5009L44.2591 80.7494C44.1699 80.6559 44.2209 80.4988 44.3482 80.4733L45.3589 80.278L45.8557 79.3778C45.9194 79.2632 46.085 79.2632 46.1444 79.3778Z" fill="#FFC200"/>
<path d="M46 79.2929C46.0552 79.2929 46.1147 79.3226 46.1444 79.3778L46.6412 80.278L47.6519 80.4733C47.7792 80.4988 47.8302 80.6559 47.741 80.7494L47.0361 81.5009L47.1635 82.5243C47.1763 82.6262 47.0955 82.7111 46.9979 82.7111C46.9767 82.7111 46.9512 82.7069 46.9257 82.6942L45.9958 82.2568L45.0658 82.6942C45.0403 82.7069 45.0191 82.7111 44.9936 82.7111C44.9002 82.7111 44.8153 82.6262 44.828 82.5243L44.9554 81.5009L44.2505 80.7494C44.1614 80.6559 44.2123 80.4988 44.3397 80.4733L45.3503 80.278L45.8471 79.3778C45.8769 79.3226 45.9363 79.2929 45.9915 79.2929M46 79.0806C45.8641 79.0806 45.7367 79.157 45.6688 79.2759L45.2187 80.0912L44.3057 80.2653C44.1699 80.2908 44.0595 80.3884 44.017 80.5201C43.9745 80.6517 44.0085 80.7961 44.1019 80.8937L44.7389 81.5731L44.6242 82.4946C44.6115 82.6007 44.6454 82.7111 44.7134 82.7918C44.7856 82.8725 44.8875 82.9192 44.9979 82.9192C45.0531 82.9192 45.1083 82.9065 45.1592 82.881L46 82.4861L46.8408 82.881C46.8917 82.9065 46.9469 82.9192 47.0021 82.9192C47.1125 82.9192 47.2144 82.8725 47.2866 82.7918C47.3588 82.7111 47.3928 82.6007 47.3758 82.4946L47.2612 81.5731L47.8981 80.8937C47.9915 80.7918 48.0255 80.6474 47.983 80.5201C47.9406 80.3884 47.8302 80.2908 47.6943 80.2653L46.7813 80.0912L46.3312 79.2759C46.2633 79.157 46.1359 79.0806 46 79.0806Z" fill="#213743"/>
<path d="M46.0001 79.8152V80.9744C46.0001 81.0678 46.0892 81.1315 46.1784 81.106L47.2187 80.7706C47.2739 80.7536 47.2697 80.6729 47.2102 80.6602L46.5563 80.5413C46.4969 80.5286 46.4417 80.4903 46.4119 80.4351L46.085 79.7939C46.0637 79.7515 45.9958 79.7642 45.9958 79.8152H46.0001Z" fill="#FFEBB8"/>
<path d="M46 81.4924V82.0699C46 82.1039 46.017 82.1294 46.0468 82.1464L46.7983 82.5073C46.8366 82.5243 46.8705 82.4818 46.8451 82.4479L46.0935 81.4627C46.0637 81.4245 46 81.4457 46 81.4924Z" fill="#FF7F00"/>
<path d="M51.1444 79.3778L51.6412 80.278L52.6519 80.4733C52.7792 80.4988 52.8302 80.6559 52.741 80.7494L52.0361 81.5009L52.1635 82.5243C52.1805 82.6559 52.0446 82.7494 51.93 82.6942L51.0001 82.2568L50.0701 82.6942C49.9512 82.7494 49.8196 82.6517 49.8366 82.5243L49.964 81.5009L49.2591 80.7494C49.1699 80.6559 49.2209 80.4988 49.3482 80.4733L50.3589 80.278L50.8557 79.3778C50.9194 79.2632 51.085 79.2632 51.1444 79.3778Z" fill="#FFC200"/>
<path d="M51 79.2929C51.0552 79.2929 51.1147 79.3226 51.1444 79.3778L51.6412 80.278L52.6519 80.4733C52.7792 80.4988 52.8302 80.6559 52.741 80.7494L52.0361 81.5009L52.1635 82.5243C52.1763 82.6262 52.0955 82.7111 51.9979 82.7111C51.9767 82.7111 51.9512 82.7069 51.9257 82.6942L50.9958 82.2568L50.0658 82.6942C50.0403 82.7069 50.0191 82.7111 49.9936 82.7111C49.9002 82.7111 49.8153 82.6262 49.828 82.5243L49.9554 81.5009L49.2505 80.7494C49.1614 80.6559 49.2123 80.4988 49.3397 80.4733L50.3503 80.278L50.8471 79.3778C50.8769 79.3226 50.9363 79.2929 50.9915 79.2929M51 79.0806C50.8641 79.0806 50.7367 79.157 50.6688 79.2759L50.2187 80.0912L49.3057 80.2653C49.1699 80.2908 49.0595 80.3884 49.017 80.5201C48.9745 80.6517 49.0085 80.7961 49.1019 80.8937L49.7389 81.5731L49.6242 82.4946C49.6115 82.6007 49.6454 82.7111 49.7134 82.7918C49.7856 82.8725 49.8875 82.9192 49.9979 82.9192C50.0531 82.9192 50.1083 82.9065 50.1592 82.881L51 82.4861L51.8408 82.881C51.8917 82.9065 51.9469 82.9192 52.0021 82.9192C52.1125 82.9192 52.2144 82.8725 52.2866 82.7918C52.3588 82.7111 52.3928 82.6007 52.3758 82.4946L52.2612 81.5731L52.8981 80.8937C52.9915 80.7918 53.0255 80.6474 52.983 80.5201C52.9406 80.3884 52.8302 80.2908 52.6943 80.2653L51.7813 80.0912L51.3312 79.2759C51.2633 79.157 51.1359 79.0806 51 79.0806Z" fill="#213743"/>
<path d="M51.0001 79.8152V80.9744C51.0001 81.0678 51.0892 81.1315 51.1784 81.106L52.2187 80.7706C52.2739 80.7536 52.2697 80.6729 52.2102 80.6602L51.5563 80.5413C51.4969 80.5286 51.4417 80.4903 51.4119 80.4351L51.085 79.7939C51.0637 79.7515 50.9958 79.7642 50.9958 79.8152H51.0001Z" fill="#FFEBB8"/>
<path d="M51 81.4924V82.0699C51 82.1039 51.017 82.1294 51.0468 82.1464L51.7983 82.5073C51.8366 82.5243 51.8705 82.4818 51.8451 82.4479L51.0935 81.4627C51.0637 81.4245 51 81.4457 51 81.4924Z" fill="#FF7F00"/>
<path d="M56.1444 79.3778L56.6412 80.278L57.6519 80.4733C57.7792 80.4988 57.8302 80.6559 57.741 80.7494L57.0361 81.5009L57.1635 82.5243C57.1805 82.6559 57.0446 82.7494 56.93 82.6942L56.0001 82.2568L55.0701 82.6942C54.9512 82.7494 54.8196 82.6517 54.8366 82.5243L54.964 81.5009L54.2591 80.7494C54.1699 80.6559 54.2209 80.4988 54.3482 80.4733L55.3589 80.278L55.8557 79.3778C55.9194 79.2632 56.085 79.2632 56.1444 79.3778Z" fill="#FFC200"/>
<path d="M56 79.2929C56.0552 79.2929 56.1147 79.3226 56.1444 79.3778L56.6412 80.278L57.6519 80.4733C57.7792 80.4988 57.8302 80.6559 57.741 80.7494L57.0361 81.5009L57.1635 82.5243C57.1763 82.6262 57.0955 82.7111 56.9979 82.7111C56.9767 82.7111 56.9512 82.7069 56.9257 82.6942L55.9958 82.2568L55.0658 82.6942C55.0403 82.7069 55.0191 82.7111 54.9936 82.7111C54.9002 82.7111 54.8153 82.6262 54.828 82.5243L54.9554 81.5009L54.2505 80.7494C54.1614 80.6559 54.2123 80.4988 54.3397 80.4733L55.3503 80.278L55.8471 79.3778C55.8769 79.3226 55.9363 79.2929 55.9915 79.2929M56 79.0806C55.8641 79.0806 55.7367 79.157 55.6688 79.2759L55.2187 80.0912L54.3057 80.2653C54.1699 80.2908 54.0595 80.3884 54.017 80.5201C53.9745 80.6517 54.0085 80.7961 54.1019 80.8937L54.7389 81.5731L54.6242 82.4946C54.6115 82.6007 54.6454 82.7111 54.7134 82.7918C54.7856 82.8725 54.8875 82.9192 54.9979 82.9192C55.0531 82.9192 55.1083 82.9065 55.1592 82.881L56 82.4861L56.8408 82.881C56.8917 82.9065 56.9469 82.9192 57.0021 82.9192C57.1125 82.9192 57.2144 82.8725 57.2866 82.7918C57.3588 82.7111 57.3928 82.6007 57.3758 82.4946L57.2612 81.5731L57.8981 80.8937C57.9915 80.7918 58.0255 80.6474 57.983 80.5201C57.9406 80.3884 57.8302 80.2908 57.6943 80.2653L56.7813 80.0912L56.3312 79.2759C56.2633 79.157 56.1359 79.0806 56 79.0806Z" fill="#213743"/>
<path d="M56.0001 79.8152V80.9744C56.0001 81.0678 56.0892 81.1315 56.1784 81.106L57.2187 80.7706C57.2739 80.7536 57.2697 80.6729 57.2102 80.6602L56.5563 80.5413C56.4969 80.5286 56.4417 80.4903 56.4119 80.4351L56.085 79.7939C56.0637 79.7515 55.9958 79.7642 55.9958 79.8152H56.0001Z" fill="#FFEBB8"/>
<path d="M56 81.4924V82.0699C56 82.1039 56.017 82.1294 56.0468 82.1464L56.7983 82.5073C56.8366 82.5243 56.8705 82.4818 56.8451 82.4479L56.0935 81.4627C56.0637 81.4245 56 81.4457 56 81.4924Z" fill="#FF7F00"/>
<rect x="13" y="62" width="37" height="13" rx="6.5" fill="#2F4553"/>
<path d="M29.2886 70H28.1546L29.5106 66.898H27.5606V65.998H30.6986V66.712L29.2886 70ZM32.646 70.072C31.938 70.072 31.404 69.856 31.032 69.49L31.596 68.77C31.872 69.022 32.25 69.16 32.634 69.16C33.072 69.16 33.288 68.944 33.288 68.698C33.288 68.428 33.078 68.236 32.664 68.236C32.346 68.236 32.094 68.326 31.872 68.536L31.158 68.362V65.998H34.062V66.898H32.19V67.672C32.382 67.486 32.694 67.354 33.048 67.354C33.726 67.354 34.338 67.852 34.338 68.656C34.338 69.52 33.684 70.072 32.646 70.072ZM37.6031 70H36.5891L36.0311 69.124L35.4671 70H34.4591L35.4491 68.512L34.5191 67.102H35.5331L36.0311 67.888L36.5231 67.102H37.5371L36.6131 68.512L37.6031 70Z" fill="white"/>
<path d="M7.69 11H5.33V7.665H7.69V8.29H6.04V8.995H7.655V9.62H6.04V10.375H7.69V11ZM9.61004 11.06C9.32504 11.06 9.06004 10.94 8.86504 10.69V11.92H8.23004V8.585H8.86504V8.89C9.05004 8.655 9.31504 8.525 9.61004 8.525C10.23 8.525 10.68 8.985 10.68 9.79C10.68 10.595 10.23 11.06 9.61004 11.06ZM9.41004 10.495C9.77504 10.495 10.02 10.21 10.02 9.79C10.02 9.375 9.77504 9.09 9.41004 9.09C9.20504 9.09 8.97004 9.21 8.86504 9.365V10.22C8.97004 10.37 9.20504 10.495 9.41004 10.495ZM11.4601 8.325C11.2551 8.325 11.0801 8.155 11.0801 7.945C11.0801 7.735 11.2551 7.57 11.4601 7.57C11.6701 7.57 11.8401 7.735 11.8401 7.945C11.8401 8.155 11.6701 8.325 11.4601 8.325ZM11.7801 11H11.1451V8.585H11.7801V11ZM13.5347 11.06C12.7897 11.06 12.2547 10.535 12.2547 9.79C12.2547 9.05 12.7897 8.525 13.5347 8.525C14.0297 8.525 14.3297 8.74 14.4897 8.96L14.0747 9.35C13.9597 9.18 13.7847 9.09 13.5647 9.09C13.1797 9.09 12.9097 9.37 12.9097 9.79C12.9097 10.21 13.1797 10.495 13.5647 10.495C13.7847 10.495 13.9597 10.395 14.0747 10.235L14.4897 10.62C14.3297 10.845 14.0297 11.06 13.5347 11.06Z" fill="#05080A"/>
<path d="M48.5921 11H48.1401L46.7481 9.096V11H46.2801V8.332H46.7601L48.1241 10.184V8.332H48.5921V11ZM50.019 11.048C49.407 11.048 49.027 10.588 49.027 10.032C49.027 9.48 49.407 9.02 50.019 9.02C50.639 9.02 51.015 9.48 51.015 10.032C51.015 10.588 50.639 11.048 50.019 11.048ZM50.019 10.676C50.379 10.676 50.579 10.376 50.579 10.032C50.579 9.692 50.379 9.392 50.019 9.392C49.663 9.392 49.463 9.692 49.463 10.032C49.463 10.376 49.663 10.676 50.019 10.676ZM51.6364 11.044C51.4844 11.044 51.3564 10.916 51.3564 10.764C51.3564 10.612 51.4844 10.484 51.6364 10.484C51.7884 10.484 51.9164 10.612 51.9164 10.764C51.9164 10.916 51.7884 11.044 51.6364 11.044ZM55.2883 11H53.3563V10.632C54.3923 9.848 54.7963 9.5 54.7963 9.116C54.7963 8.836 54.5563 8.708 54.3123 8.708C54.0003 8.708 53.7603 8.836 53.5923 9.028L53.3203 8.72C53.5563 8.436 53.9323 8.292 54.3043 8.292C54.8203 8.292 55.2723 8.584 55.2723 9.116C55.2723 9.608 54.8203 10.048 54.1043 10.588H55.2883V11ZM56.7672 11.048C56.0192 11.048 55.6992 10.34 55.6992 9.668C55.6992 8.996 56.0192 8.292 56.7672 8.292C57.5152 8.292 57.8352 8.996 57.8352 9.668C57.8352 10.34 57.5152 11.048 56.7672 11.048ZM56.7672 10.632C57.2032 10.632 57.3592 10.176 57.3592 9.668C57.3592 9.16 57.2032 8.708 56.7672 8.708C56.3312 8.708 56.1752 9.16 56.1752 9.668C56.1752 10.176 56.3312 10.632 56.7672 10.632Z" fill="white"/>
<defs>
<linearGradient id="paint0_linear_26835_29183" x1="37.8344" y1="86.256" x2="23.263" y2="1.76" gradientUnits="userSpaceOnUse">
<stop stop-color="#55EEFF"/>
<stop offset="0.09" stop-color="#6CABFF"/>
<stop offset="0.23" stop-color="#8C4FFF"/>
<stop offset="0.32" stop-color="#A016FF"/>
<stop offset="0.37" stop-color="#A800FF"/>
<stop offset="0.44" stop-color="#C043D4"/>
<stop offset="0.51" stop-color="#D680AF"/>
<stop offset="0.58" stop-color="#E8B091"/>
<stop offset="0.64" stop-color="#F4D27B"/>
<stop offset="0.69" stop-color="#FCE76E"/>
<stop offset="0.72" stop-color="#FFEF6A"/>
<stop offset="0.81" stop-color="#BCF589"/>
<stop offset="0.9" stop-color="#84FAA3"/>
<stop offset="0.97" stop-color="#62FDB3"/>
<stop offset="1" stop-color="#55FFBA"/>
</linearGradient>
<linearGradient id="paint1_linear_26835_29183" x1="57.77" y1="86.3601" x2="26.53" y2="13.7601" gradientUnits="userSpaceOnUse">
<stop stop-color="#55EEFF"/>
<stop offset="0.09" stop-color="#6CABFF"/>
<stop offset="0.23" stop-color="#8C4FFF"/>
<stop offset="0.32" stop-color="#A016FF"/>
<stop offset="0.37" stop-color="#A800FF"/>
<stop offset="0.44" stop-color="#C043D4"/>
<stop offset="0.51" stop-color="#D680AF"/>
<stop offset="0.58" stop-color="#E8B091"/>
<stop offset="0.64" stop-color="#F4D27B"/>
<stop offset="0.69" stop-color="#FCE76E"/>
<stop offset="0.72" stop-color="#FFEF6A"/>
<stop offset="0.81" stop-color="#BCF589"/>
<stop offset="0.9" stop-color="#84FAA3"/>
<stop offset="0.97" stop-color="#62FDB3"/>
<stop offset="1" stop-color="#55FFBA"/>
</linearGradient>
<linearGradient id="paint2_linear_26835_29183" x1="51.08" y1="89.51" x2="19.74" y2="16.67" gradientUnits="userSpaceOnUse">
<stop stop-color="#55EEFF"/>
<stop offset="0.09" stop-color="#6CABFF"/>
<stop offset="0.23" stop-color="#8C4FFF"/>
<stop offset="0.32" stop-color="#A016FF"/>
<stop offset="0.37" stop-color="#A800FF"/>
<stop offset="0.44" stop-color="#C043D4"/>
<stop offset="0.51" stop-color="#D680AF"/>
<stop offset="0.58" stop-color="#E8B091"/>
<stop offset="0.64" stop-color="#F4D27B"/>
<stop offset="0.69" stop-color="#FCE76E"/>
<stop offset="0.72" stop-color="#FFEF6A"/>
<stop offset="0.81" stop-color="#BCF589"/>
<stop offset="0.9" stop-color="#84FAA3"/>
<stop offset="0.97" stop-color="#62FDB3"/>
<stop offset="1" stop-color="#55FFBA"/>
</linearGradient>
<clipPath id="clip0_26835_29183">
<rect width="63" height="88" fill="white"/>
</clipPath>
<clipPath id="clip1_26835_29183">
<rect width="63" height="88" fill="white"/>
</clipPath>
</defs>
</svg>
