<svg width="63" height="88" viewBox="0 0 63 88" fill="none" xmlns="http://www.w3.org/2000/svg">
<rect width="63" height="88" rx="4" fill="url(#paint0_linear_26835_29184)"/>
<g clip-path="url(#clip0_26835_29184)">
<path d="M56.92 18.29H5.92C5.36771 18.29 4.92 18.7378 4.92 19.29V57.29C4.92 57.8423 5.36771 58.29 5.92 58.29H56.92C57.4723 58.29 57.92 57.8423 57.92 57.29V19.29C57.92 18.7378 57.4723 18.29 56.92 18.29Z" fill="#2F4553"/>
<path d="M62.39 7.07004V81.52C62.39 84.85 59.68 87.55 56.35 87.55H6.48C3.15 87.55 0.450001 84.85 0.450001 81.52V7.07004C0.450001 3.74004 3.15 1.04004 6.48 1.04004H56.35C59.68 1.04004 62.39 3.74004 62.39 7.07004Z" fill="url(#paint1_linear_26835_29184)"/>
<path d="M0.919998 39.7801C0.919998 39.7801 2.59 32.9001 9.56 35.6901C9.56 35.6901 11.91 29.6301 19.36 32.7201C26.81 35.8101 22.01 46.2801 22.01 46.2801C22.01 46.2801 36.58 56.0201 32.65 62.7201C28.72 69.4201 12.91 71.0201 12.91 71.0201L1.35 60.0101L0.919998 39.7701V39.7801Z" fill="white"/>
<path d="M60.59 86.2898C58.91 88.2898 5.56 87.7898 3.63 86.9398C1.69 86.0898 0.450001 82.2698 0.450001 82.2698L0.570001 70.0598L0.640001 62.2898L19.66 63.8098C19.66 63.8098 21.28 56.3498 29.22 58.8298L41.74 54.6398C41.74 54.6398 52.07 49.2098 55.27 62.8598C55.27 62.8598 61.67 60.8898 61.67 71.1998C61.67 72.5798 61.68 73.8298 61.69 74.9498C61.79 82.2498 62.05 84.5598 60.59 86.2898Z" fill="#B59FFF"/>
<path d="M61.95 77.94C61.95 77.94 60.6 74.46 59.19 73.45C59.19 73.45 59.25 74.84 59.43 76.47C59.43 76.47 58.16 73.27 56.82 72.38C56.82 72.38 57.44 75.35 57.46 77.06C56.94 76.97 56.36 76.84 55.76 76.71C55.59 75.3 54.43 73.38 54.43 73.38C54.66 74.9 54.48 76.15 54.43 76.41C53.59 76.22 52.76 76.02 52 75.85C51.89 75.18 51.5 73.3 50.47 71.79C50.47 71.79 50.4 73.44 50.2 74.76C49.97 74.18 49.62 73.4 49.18 72.94C49.18 72.94 49 74.04 48.82 75.12C35.49 71.86 21.08 66.69 17.8 65.48C17.73 65.45 17.67 65.43 17.61 65.41C17.61 65.41 17.6033 65.4066 17.59 65.4C17.5 65.36 17.43 65.34 17.36 65.32C17.29 65.3 17.23 65.28 17.19 65.26C17.17 65.25 17.16 65.25 17.15 65.24H17.13L17.11 65.23L0.559999 70.07L0.439999 82.28C0.439999 82.28 1.69 86.1 3.63 86.95C5.55 87.8 58.91 88.3 60.58 86.3C61.82 84.83 61.75 79.54 61.71 78C61.86 77.97 61.95 77.95 61.95 77.95V77.94Z" fill="url(#paint2_linear_26835_29184)"/>
<path d="M19.11 21.5098C27.06 25.6398 45.42 37.3898 45.42 37.3898L42.35 41.5798C42.35 41.5798 28.26 29.4098 21.65 26.2298C18.48 24.7098 19.11 21.5098 19.11 21.5098Z" fill="#FFC201"/>
<path d="M1.9 53.1799C3.95 52.4899 6.92 53.3699 7.6 55.7899C7.6 55.7899 13.7 55.2599 13.14 62.8299C13.14 62.8299 20.47 58.6399 21.19 65.7999C21.91 72.9599 11.69 74.0599 8.13 72.9499C6.33 72.3899 1.91 68.6599 1.91 68.6599L1.89 53.1799H1.9Z" fill="#8054FF"/>
<path d="M59 0H4C1.79 0 0 1.79 0 4V84C0 86.21 1.79 88 4 88H59C61.21 88 63 86.21 63 84V4C63 1.79 61.21 0 59 0ZM61 82.81C61 84.57 59.57 86 57.81 86H5.19C3.43 86 2 84.57 2 82.81V16.9C2 8.67 8.67 2 16.9 2H57.81C59.57 2 61 3.43 61 5.19V82.81Z" fill="url(#paint3_linear_26835_29184)"/>
<path d="M3.84998 1.3501C2.77998 1.3501 1.34998 3.4401 1.34998 4.5001L1.91998 18.1901C1.91998 16.4301 3.34998 15.0001 5.10998 15.0001H33.51C34.72 15.0001 35.86 14.4501 36.62 13.5101L44.72 3.4801C45.48 2.5401 46.62 1.9901 47.83 1.9901L3.84998 1.3501Z" fill="url(#paint4_linear_26835_29184)"/>
<mask id="mask0_26835_29184" style="mask-type:luminance" maskUnits="userSpaceOnUse" x="0" y="0" width="63" height="88">
<path d="M59 0H4C1.79 0 0 1.79 0 4V84C0 86.21 1.79 88 4 88H59C61.21 88 63 86.21 63 84V4C63 1.79 61.21 0 59 0ZM61 82.81C61 84.57 59.57 86 57.81 86H5.19C3.43 86 2 84.57 2 82.81V18.19C2 16.43 3.43 15 5.19 15H33.59C34.8 15 35.94 14.45 36.7 13.51L44.8 3.48C45.56 2.54 46.7 1.99 47.91 1.99H57.81C59.57 1.99 61 3.42 61 5.18V82.8V82.81Z" fill="white"/>
</mask>
<g mask="url(#mask0_26835_29184)">
<path d="M68.37 47.3201V26.6401L4.46 90.5501H25.13L68.37 47.3201Z" fill="white"/>
<path d="M64.66 -2.29004H55.22L-2.92 55.84V66.18L65.46 -2.20004C65.2 -2.26004 64.93 -2.29004 64.66 -2.29004Z" fill="white"/>
<path d="M68.37 69.2298V61.5498L39.37 90.5498H47.05L68.37 69.2298Z" fill="white"/>
</g>
<path d="M32.21 14.94C33.82 13.61 43.4 15.56 45.67 17.55C47.94 19.54 49.84 25.38 49.84 25.38L32.2 34.59L29.55 24.94L32.2 14.93L32.21 14.94Z" fill="#FF7F00"/>
<path d="M31.37 21.99C31.9 23.92 38.13 22.58 41.19 24.18C44.25 25.78 44.02 30.15 44.02 30.15L29.31 34.29L27.99 23.91L31.36 21.98L31.37 21.99Z" fill="#E64100"/>
<path d="M38.73 25.0098L39.86 25.6898L39 25.7998L38.73 25.0098Z" fill="#FFDA7A"/>
<path d="M42.6 25.6201H38.62L39.23 26.5301H43.21L42.6 25.6201Z" fill="#FFEBB8"/>
<path d="M49.18 17.4399C48.78 17.7799 47.74 18.7399 46.74 19.0599C45.74 19.3799 45.38 19.0599 45.38 19.0599C45.38 19.0599 45.92 19.7199 46.33 19.7299C46.33 19.7299 44.48 21.1499 43.07 21.5799C43.07 21.5799 43.79 21.6499 44.25 21.5799C44.25 21.5799 43.13 22.9099 41.11 22.4999C41.11 22.4999 42.26 22.9699 42.8 23.1399C42.8 23.1399 40.5 23.8499 39.7 23.9399C39.7 23.9399 41.35 24.2999 42.66 24.1699C42.66 24.1699 40.4 25.8499 39.22 26.2499C39.22 26.2499 40.4 26.1199 40.85 26.2499C40.85 26.2499 35.93 29.0399 33.72 31.3899C31.51 33.7399 47.37 32.6199 47.37 32.6199L51.03 18.3199L49.17 17.4199L49.18 17.4399Z" fill="#1A2C38"/>
<path d="M14.06 47.7398C12.24 48.6098 10.02 47.0198 8.05 44.7798C6.08 42.5398 4.29 42.5998 4.29 42.5998C4.29 42.5998 5.97 43.9198 6.45 45.1998C6.45 45.1998 4.79 43.9398 1.92 43.7498V44.2998C1.92 44.2998 3.19 44.7498 4.12 45.4598C4.12 45.4598 2.57 45.1698 1.92 45.0698V50.2698C2.22 50.4398 3.43 50.7098 3.76 50.7398C3.76 50.7398 2.87 50.8098 1.92 50.7298V51.8098C2.76 52.1098 4.53 52.4198 5.15 52.4698C5.15 52.4698 4.01 52.9698 1.92 52.9898V53.4898C3.99 54.0998 8.52 54.9398 13.81 52.7298C21.08 49.6898 14.06 47.7498 14.06 47.7498V47.7398Z" fill="#1A2C38"/>
<path d="M42.84 57.9498C42.84 57.9498 40.83 58.3698 39.53 58.8298C38.23 59.2898 36.55 58.0698 34.37 59.3298C32.19 60.5898 27.96 64.3098 27.39 64.9698C26.83 65.6198 24.65 67.6298 24.1 69.1398C23.94 69.5898 23.75 70.2998 23.54 71.1098C23.06 73.0098 22.48 75.3998 21.92 75.9498C21.12 76.7298 19.53 76.5498 18.99 75.9498C18.44 75.3498 18.19 75.0098 18.19 75.0098C18.19 75.0098 18.99 73.4198 19.91 72.8298L20.87 73.1198L21.96 70.2498L22.93 67.7198C22.93 67.7198 22.47 67.2098 22.59 66.5398C22.72 65.8698 24.18 61.8498 24.31 61.4298C24.44 61.0098 25.15 61.2598 25.74 60.8398C26.32 60.4198 28.24 57.4898 28.24 57.4898L33.4 53.0498L41.75 54.6398L42.84 57.9498Z" fill="#873B14"/>
<path d="M23.54 70.25V71.11C23.06 73.01 22.48 75.4 21.92 75.95C21.12 76.73 19.53 76.55 18.99 75.95C18.44 75.35 18.19 75.01 18.19 75.01C18.19 75.01 18.99 73.42 19.91 72.83L20.87 73.12L21.96 70.25H23.54Z" fill="#1A2C38"/>
<path d="M56.77 17.0597C57.5 17.8297 58.26 19.0397 58.51 19.7297C58.76 20.4197 60.31 20.8497 60.31 21.5897C60.31 22.3297 59.88 22.9497 60.31 26.0597C60.74 29.1697 60.56 31.4197 60.56 31.4197C60.56 31.4197 57.27 34.8097 56.4 33.7497C55.53 32.6997 54.1 30.3997 52.06 29.7197L40.51 55.3397L21.42 50.8097L14.41 53.4197C14.41 53.4197 12.36 52.1797 13.48 46.8797C14.6 41.5797 17.8 36.4297 23.05 33.5097C28.3 30.5897 38.83 32.7897 41.82 30.4097C44.81 28.0297 48.95 19.7297 50.5 17.9997C52.05 16.2697 55.96 16.2297 56.76 17.0797L56.77 17.0597Z" fill="#C97042"/>
<path d="M13.22 50.86C14.01 51.9 16.3 51.41 16.5 50.44C16.7 49.47 18.09 49.61 18.79 48.57C19.49 47.53 18.35 44.62 20.02 42.11C21.69 39.6 28.56 37.54 28.56 37.54C28.56 37.54 27.1 43.78 29.01 47.84C30.92 51.89 27.97 56.86 27.97 56.86C27.97 56.86 24.06 54.04 22.6 52.72C22.6 52.72 15.32 59.16 15.05 60.97C14.77 62.77 14.23 64.85 13.15 65.82C12.07 66.79 11.79 67.83 11.31 70.6C10.82 73.37 10.13 75.03 8.82 75.03C7.51 75.03 6.6 72.27 7.02 71.19C7.44 70.11 7.92 70.11 8.34 69.87C8.76 69.63 9.45 69.87 9.45 69.87C9.45 69.87 11.11 67.27 10.97 65.96C10.83 64.64 10.83 62.56 11.59 61.18C12.35 59.8 12.08 58.05 12.77 56.29C13.46 54.53 13.23 50.86 13.23 50.86H13.22Z" fill="#873B14"/>
<path d="M30.54 30.71C27.98 30.74 23.23 36.84 23.23 36.84C23.23 36.84 17.15 42.88 17.3 42.94C17.45 43 20.02 43.82 22.01 44.05C24 44.28 26.94 43.11 26.89 42.82C26.85 42.56 28.05 42.23 28.57 41.71C30.33 39.92 32.75 33.78 37.27 31.58C38.23 31.11 33.1 30.68 30.54 30.71Z" fill="#8054FF"/>
<path d="M33.72 31.4101C33.31 32.2701 30.89 34.3001 30.89 34.3001C30.89 34.3001 29.82 33.4401 28.57 32.3401C28.1 31.9301 27.61 31.4801 27.15 31.0301C25.94 29.8601 24.88 28.6701 24.77 27.9801C24.52 26.3101 25.68 23.8801 26.79 23.5801C26.79 23.5801 29.78 24.1101 31.85 26.6101C31.87 26.6401 31.89 26.6601 31.91 26.6901C33.92 29.1401 34.12 30.5601 33.72 31.4101Z" fill="white"/>
<path d="M27.46 30.78L27.15 31.03C25.94 29.86 24.88 28.67 24.77 27.98C25.22 29.44 28.93 29.54 27.46 30.78Z" fill="#FFEBB8"/>
<path d="M31.91 26.6899H30.22L29.89 26.9199C28.65 26.8499 27.15 26.7799 27.15 26.7799C26.41 26.9299 27.16 27.4699 28.85 27.6499C33.24 28.2799 33.37 30.4699 33.37 30.4699C33.35 30.7499 33.1 30.6899 33.1 30.6899C31.97 30.3899 31.61 30.9899 31.4 31.5899C31.16 32.3099 29.48 32.6299 28.57 32.3399C29.82 33.4499 30.89 34.2999 30.89 34.2999C30.89 34.2999 33.32 32.2799 33.72 31.4199C34.12 30.5699 33.92 29.1499 31.91 26.6999V26.6899Z" fill="#FFEBB8"/>
<path d="M39.09 26.85L39.11 26.9C39.24 27.11 39.81 27.9 39.82 27.91C40.05 27.68 40.19 27.43 40.08 27.22C39.55 26.27 38.73 25.02 38.73 25.02L36.35 27.68C36.35 27.68 38.22 28.54 38.86 28.49C38.88 28.49 38.93 28.46 38.9 28.4C38.9 28.38 38.93 28.27 38.96 28.26C39 28.24 39.16 28.4 39.2 28.38C39.43 28.27 39.69 28.08 39.65 27.91L39.11 26.89C39.11 26.89 39.09 26.85 39.09 26.84V26.85Z" fill="#FFDA7A"/>
<path d="M39.12 26.8898L39.1 26.8398C39.1 26.8398 39.11 26.8698 39.12 26.8898Z" fill="#E0615C"/>
<path d="M39.12 26.8901L39.66 27.9101C39.66 27.9101 39.8 27.9401 39.83 27.9101C39.83 27.9101 39.25 27.1201 39.12 26.9001V26.8901Z" fill="#E3944F"/>
<path d="M35.9 25.0102C35.9 25.0102 38.47 24.6302 38.72 25.0102C38.97 25.3902 38.48 27.2702 37.26 27.6202C36.04 27.9702 34.63 26.9802 34.63 26.9802C34.63 26.9802 33.53 24.5702 35.9 25.0102Z" fill="#FFEBB8"/>
<path d="M38.62 27.48L39.2 28.38C39.2 28.38 38.94 28.48 38.9 28.4C38.78 28.13 38.62 27.49 38.62 27.49V27.48Z" fill="#E3944F"/>
<path d="M45.39 19.0799C45.47 19.1799 45.95 19.7199 46.33 19.7399C46.33 19.7399 46.11 19.9099 45.76 20.1499C40.49 17.4799 34.82 16.8199 33.75 17.8899C32.89 20.1899 30.63 23.6099 30.63 23.6099C30.63 23.6099 31.89 24.2299 33.94 24.2499C35.66 24.2699 35.9 25.0099 35.9 25.0099C34.96 25.0099 34.7 25.7699 34.64 26.3499C34.6 26.6999 34.64 26.9799 34.64 26.9799C33.82 26.9799 26.7 26.6599 26.13 25.6399C26.04 25.4899 26.05 25.1299 26.14 24.6399C26.14 24.5899 26.16 24.5399 26.16 24.4899C26.24 23.9199 26.12 23.3999 26.46 22.4999C27.28 20.3199 28.7 17.4499 30.2 15.5999H30.21C30.93 14.6899 31.68 14.0299 32.39 13.8099C36.4 12.5299 42.02 14.5899 44.3 15.5699C45.58 16.1199 47.04 17.3499 48.1 18.3299C47.68 18.6299 47.21 18.9199 46.75 19.0699C45.83 19.3599 45.45 19.1199 45.4 19.0799H45.39Z" fill="#FFC201"/>
<path d="M40.23 21.1601C39.37 22.1901 37.93 22.9601 36.87 21.1601C35.81 19.3601 37.47 15.3501 37.47 15.3501L40.23 21.1601Z" fill="#1A2C38"/>
<path d="M19.36 41.5702C19.68 39.9802 25.47 32.5802 27.04 30.7502C27.15 30.6202 27.36 30.6302 27.46 30.7802C28.57 32.3402 29.5 33.1502 30.89 34.2902C31.26 34.6002 31.23 34.5302 29.56 35.7102C27.7 37.0202 23.51 40.0102 24.12 40.6602C24.6 41.1802 26.23 41.6902 26.56 42.5502C26.65 42.7802 25.4 43.7502 24.36 43.4902C22.24 42.9702 19.35 41.5702 19.35 41.5702H19.36Z" fill="#1A2C38"/>
<path d="M21.64 41.42C22.13 41.45 23.83 42.16 24.98 42.78C25.72 43.18 24.12 43.81 24.12 43.81C23.76 43.71 23.17 43.51 22.65 43.34C20.43 42.63 19.41 42.02 19.36 41.57C19.33 41.31 20.13 41.48 20.46 41.31C20.98 41.04 21.65 41.41 21.65 41.41L21.64 41.42Z" fill="#1A2C38"/>
<path d="M25.48 42.6302C25.53 42.9202 24 44.2802 22.02 44.0502C23.6 44.3702 26.34 44.2002 28.58 41.7002C27.54 42.5802 25.44 42.3702 25.48 42.6302Z" fill="#B59FFF"/>
<path d="M55.72 16.6098C55.72 16.6098 55.11 14.9998 53.48 15.0098C51.85 15.0198 50.25 16.2298 48.97 15.7498L51.42 17.8498L55.71 16.6098H55.72Z" fill="#1A2C38"/>
<path d="M48.15 13.0297C48.25 12.7897 49.89 15.0797 50.69 15.8297C51.49 16.5797 52.24 17.9897 52.24 17.9897L49.5 19.7397C49.5 19.7397 48.46 17.1997 48.4 16.3897C48.34 15.5797 47.84 13.7797 48.15 13.0397V13.0297Z" fill="#C97042"/>
<path d="M55.72 16.6099C55.72 16.6099 56.77 14.6299 56.96 14.1699C57.15 13.7099 58.77 15.8099 57.52 17.9799C56.27 20.1599 55.72 16.6099 55.72 16.6099Z" fill="#C97042"/>
<path d="M35.77 66.8702C35.33 67.4402 34.06 67.9201 33.26 69.3901C32.46 70.8601 31.45 73.3701 31.03 73.8801C30.61 74.3901 29.06 74.6801 28.81 74.5901C28.56 74.5001 28.15 74.0501 27.96 73.5001C27.77 72.9501 27.69 71.5301 27.96 71.2401C28.23 70.9501 29.69 70.4002 30.53 69.6102C31.37 68.8202 32.21 67.9302 32.12 67.3002C32.03 66.6702 31.72 65.7902 31.77 65.1202C31.82 64.4502 31.99 64.1602 32.24 63.6102C32.49 63.0602 33.96 62.1801 35.13 62.5601C36.3 62.9401 36.68 63.0601 36.68 63.0601C36.68 63.0601 36.64 65.7402 35.76 66.8702H35.77Z" fill="#C97042"/>
<path d="M36.29 82.9997C35.93 83.6697 16 80.9897 1.91 73.0397V64.7097C2.03 64.6897 2.15 64.6698 2.28 64.6598C6.58 64.1998 6.68 69.1198 6.68 69.1198C6.68 69.1198 12.37 66.9397 14.07 75.6897C18.31 71.9697 21.95 78.2697 21.95 78.2697C25.5 79.5197 36.52 82.5197 36.29 82.9997Z" fill="white"/>
<path d="M49.95 64.9699C49.34 66.0999 48.16 68.8799 46.98 71.8599C46.91 72.0299 46.85 72.1999 46.78 72.3699C45.82 75.0399 45.83 76.6899 45.04 77.4699C44.8 77.7099 44.59 77.9699 44.41 78.2399C44.2 78.5499 44.02 78.8799 43.9 79.2199C43.74 79.6299 42.62 83.2899 42.34 83.8399C42.13 84.2599 40.96 84.2499 40.06 84.0699C39.76 84.0099 39.48 83.9299 39.29 83.8399C38.53 83.4999 40.18 81.2199 40.39 80.7299C40.59 80.2499 39.99 78.0199 40.4 77.8799C40.82 77.7499 42.34 77.2699 42.41 76.4699C42.48 75.6699 42.55 74.8599 43.59 73.8799C44.29 73.2199 45.27 71.7199 45.83 70.3399C46.11 69.6699 46.29 69.0299 46.29 68.5299C46.29 67.0099 46.22 63.5399 46.22 62.9899C46.22 62.4399 44.39 59.9599 44.39 59.9599C44.39 59.9599 41.51 55.2999 42.2 53.5599C42.9 51.8299 47.4 48.9199 48.79 51.9699C50.17 55.0199 50.17 56.4799 50.17 56.4799C50.24 58.3399 49.65 59.3099 49.74 60.6999C49.83 62.0899 50.56 63.8299 49.95 64.9699Z" fill="#C97042"/>
<path d="M43.28 81.2102C43.04 82.2602 42.56 83.4302 42.35 83.8402C42.14 84.2602 40.97 84.2502 40.07 84.0702C39.77 84.0102 39.49 83.9302 39.3 83.8402C38.54 83.5002 37.92 81.5602 38.13 81.0702C38.26 80.7602 39.22 79.7602 39.83 78.9302C40.07 79.7302 41.17 81.2102 42.07 81.4002C42.6 81.5202 43.01 81.4102 43.28 81.2102Z" fill="#1A2C38"/>
<path d="M53.78 31.0797C53.78 31.0797 51.46 37.9997 51.63 39.6697C51.81 41.3497 52.48 45.7497 51.63 48.3897C50.78 51.0297 49.86 52.7497 49.86 52.7497C49.86 52.7497 50.31 54.8897 50.18 56.4797C50.18 56.4797 49.72 54.2997 48.08 54.7997C46.44 55.2997 46.5 56.7997 45.94 57.5697C45.34 58.3897 44.31 58.1997 44.39 59.9597C44.39 59.9597 43.57 59.5097 42.34 57.9897C40.3 55.4897 37.81 52.2497 37.81 52.2497L37.52 48.7297C37.52 48.7297 39.87 43.9097 40.75 42.3597C41.63 40.8097 44.23 37.7097 45.28 37.9197C46.33 38.1297 50.16 28.7397 50.16 28.7397L53.79 31.0797H53.78Z" fill="#873B14"/>
<path d="M49.85 21.24C49.85 21.24 49.26 28.86 50.85 30.03C52.44 31.2 55.89 33.67 56.64 34.59C57.39 35.51 59.07 28.73 59.07 28.73L56.87 21.58L49.86 21.23L49.85 21.24Z" fill="#C97042"/>
<path d="M54.48 18.6902C54.37 17.9102 55.62 17.5602 56.16 18.1202C56.7 18.6802 57.17 19.3402 57.99 19.7302C58.81 20.1202 58.17 20.7902 57.99 21.4402C57.81 22.0902 60.58 28.4702 61.32 29.6402C62.06 30.8102 62.49 30.8102 61.84 31.7202C61.19 32.6302 58.94 35.8502 58.31 35.9102C57.68 35.9702 56.81 34.0202 56.2 32.6702C55.59 31.3202 55.55 30.2802 56.24 28.1602C56.93 26.0302 56.89 25.5602 56.41 24.1702C55.93 22.7802 55.85 22.2902 55.49 21.9102C55.04 21.4302 53.77 21.2402 53.53 20.6302C53.16 19.6702 54.61 19.7002 54.46 18.6802L54.48 18.6902Z" fill="white"/>
<path d="M50.78 17.9799C50.47 17.2399 49.09 15.5799 48.98 15.7499C48.66 16.0699 49.4 18.3899 49.85 19.0599C50.3 19.7299 51.09 18.7199 50.78 17.9799Z" fill="#1A2C38"/>
<path d="M50.46 20.96C50.46 20.96 51.77 20.65 52.11 20.96C52.45 21.27 53.05 22.49 53.05 22.49C53.05 22.49 52.27 23.21 51.75 23.15C51.23 23.09 50.45 20.96 50.45 20.96H50.46Z" fill="#1A2C38"/>
<path d="M52.04 21.91C52.2223 21.91 52.37 21.7623 52.37 21.58C52.37 21.3977 52.2223 21.25 52.04 21.25C51.8577 21.25 51.71 21.3977 51.71 21.58C51.71 21.7623 51.8577 21.91 52.04 21.91Z" fill="white"/>
<path d="M61.98 30.5801C61.45 30.6301 61.03 32.4601 61.03 32.4601C61.03 32.4601 60.27 31.2001 59.5 32.3601C59.24 32.2601 58.97 32.0801 58.85 31.7801C58.6 31.1401 57.53 30.5101 57.06 30.7001C56.59 30.9001 55.85 29.6401 55.85 29.6401C55.85 29.6401 55.57 30.7501 55.73 31.7801C55.87 32.7401 56.8 34.8901 56.86 35.4801C56.93 36.0701 57.16 36.4301 58.52 36.3401C58.55 36.3401 58.57 36.3301 58.6 36.3201C58.86 36.3401 59.16 36.3501 59.48 36.3201C60.61 36.2401 61.12 35.1301 61.03 34.6001C60.95 34.0601 62.07 33.6401 62.16 33.2601C62.25 32.8801 62.72 30.5201 61.98 30.5901V30.5801Z" fill="#FFEBB8"/>
<path d="M32.32 50.0201C32.32 50.0201 34.08 54.2501 34.33 57.3101C34.58 60.3701 36.01 63.6801 36.3 64.3901C36.59 65.1001 31.86 64.9301 31.86 64.9301C31.86 64.9301 32.11 63.6301 31.52 62.9201C30.93 62.2101 28.38 58.3501 27.71 56.1301C27.04 53.9101 29.01 47.8301 29.01 47.8301L32.32 50.0101V50.0201Z" fill="#C97042"/>
<path d="M27.79 73.8799C27.79 73.8799 25.9 72.7899 25.48 72.3299C25.06 71.8699 26.11 70.3699 27.03 69.8799C27.95 69.3899 29.04 68.3499 29.59 68.5599C30.14 68.7699 30.54 70.5599 30.54 70.5599L27.79 73.8899V73.8799Z" fill="#C97042"/>
<path d="M53.47 29.61C53.62 27.86 56.46 25.15 58.22 24.87C59.41 24.69 60.46 25.55 60.7 26.76C60.81 27.32 60.47 27.4 60.47 27.4C60.06 26.3 59.05 25.36 58.32 25.47C57.05 25.67 54.23 27.9 54.09 29.65C53.95 31.38 55.16 33.23 55.15 33.23C54.13 33.23 53.31 31.64 53.48 29.6L53.47 29.61Z" fill="#FFEBB8"/>
<path d="M58.16 30.8101C58.4 30.8901 58.84 32.0801 58.9 32.2701C58.96 32.4601 58.09 33.1101 57.88 33.2301C57.67 33.3501 55.8 32.5501 55.9 31.6801C55.99 30.8101 57.3 30.5301 58.16 30.8101Z" fill="#FFC201"/>
<path d="M57.9 31.2199C57.9 31.2199 58.26 32.0999 57.25 32.6399C57.25 32.6399 56.12 32.3599 56.35 31.5299C56.58 30.6999 57.9 31.2199 57.9 31.2199Z" fill="#1A2C38"/>
<path d="M61.87 30.7598C61.73 30.9298 61.58 32.0398 61.75 32.4898C61.92 32.9398 62.09 33.0898 62.21 32.9798C62.33 32.8698 61.95 32.6398 62.1 31.9798C62.25 31.3198 62.15 30.4198 61.87 30.7598Z" fill="#1A2C38"/>
<path d="M37.88 28.2499C39.01 28.5199 45.92 30.1099 47.69 30.5799C49.46 31.0499 52.59 31.2999 52.59 31.2999L53.92 32.2899C53.92 32.2899 50.93 32.2199 48.7 31.6799C35.7 28.5099 36.37 27.6699 36.37 27.6699L37.9 28.2499H37.88Z" fill="#FFEBB8"/>
<path d="M37.9 17.98C36.99 17.55 36.35 14.63 37.47 15.35C38.59 16.07 37.9 17.98 37.9 17.98Z" fill="#FFEBB8"/>
<path d="M40.23 21.1601C41.14 21.5801 42.8 20.3201 44.36 17.3201C45.93 14.3201 37.69 15.1001 37.69 15.1001C37.69 15.1001 37.17 19.7601 40.23 21.1601Z" fill="#FFEBB8"/>
<path d="M37.67 16.2398C37.67 16.2398 38.4 16.7498 38.82 17.0598C38.82 17.0598 39.64 18.5298 40.17 18.7398C40.7 18.9498 41.78 18.1298 41.78 18.1298H42.15C42.15 18.1298 42.1 19.0498 42.52 19.0698C42.94 19.0898 44.46 17.6598 44.46 17.6598L44.65 17.2398L37.65 15.7598V16.2498L37.67 16.2398Z" fill="#1A2C38"/>
<path d="M37.3 15.57C36.99 13.54 38.7 10.33 41.75 10.83C44.8 11.34 45.38 15.26 45.03 17.08C45.03 17.08 43.37 17.88 41.2 17.37C39.03 16.86 37.31 15.56 37.31 15.56L37.3 15.57Z" fill="#FF7F00"/>
<path d="M33.51 17.44C33.83 17.26 34.36 18.45 34.64 18.34C34.92 18.23 34.98 17.41 35.51 17.4C36.04 17.39 33.51 17.43 33.51 17.43V17.44Z" fill="#FFC201"/>
<path d="M30.7 23.6398C30.7 23.6398 29.2 23.1298 28.21 23.3698C28 22.9198 29.5 22.5498 30.29 22.6698C30.29 22.6698 30.2 22.0798 29.32 21.7098C29.63 21.2598 31.08 21.2298 31.95 21.6098L30.69 23.6398H30.7Z" fill="#FF7F00"/>
<path d="M34.64 26.3398C34.55 26.2198 34.47 26.1298 34.39 26.0798C33.76 25.6298 32.44 25.8198 30.59 25.8998C28.12 25.9998 27.44 23.9298 27.59 22.8798C27.88 20.9698 31.87 14.4098 30.2 15.5998H30.19C28.69 17.4498 27.27 20.3198 26.45 22.4998C26.23 23.0098 25.39 25.1298 26.06 26.2698C26.98 27.8198 35.27 27.7798 34.99 27.1998C34.99 27.1998 34.55 27.0498 34.64 26.3498V26.3398Z" fill="#FFC201"/>
<path d="M36.23 24.9602C36.27 24.8902 35.78 24.8602 35.58 24.7702C35.38 24.6802 34.68 24.8702 34.4 25.6102C34.12 26.3502 34.21 27.1602 34.58 27.1902C34.95 27.2202 35.14 27.4802 35.29 27.3402C35.29 27.3402 34.8 27.4602 34.92 26.3502C35.04 25.2302 35.57 25.0502 35.89 25.0002L36.22 24.9602H36.23Z" fill="#FF7F00"/>
<path d="M33.59 53.69C33.59 53.69 36.89 52.7 37.52 48.73L41.9 56.24L33.59 53.7V53.69Z" fill="#873B14"/>
<path d="M40.91 52.4798C41.09 51.4198 42.96 48.7798 45.13 49.1698C47.3 49.5598 46.81 50.9298 46.42 51.5198C46.03 52.1098 42.67 52.4898 42.21 53.5698C41.75 54.6498 40.71 53.6598 40.91 52.4898V52.4798Z" fill="#C97042"/>
<path d="M20.66 42.5998C20.66 42.5998 21.5 39.9198 25.8 38.5298L25.37 38.8998C25.37 38.8998 21.62 41.0898 21.32 42.8798C21.29 43.0598 20.66 42.8198 20.66 42.5998Z" fill="#8054FF"/>
<path d="M54.08 44.9501C43.78 43.7401 38.98 39.5801 29.88 38.3401C27.21 37.9801 25.98 36.5101 25.23 34.5801C25.23 34.5801 23.57 40.4401 30.68 41.7201C40.04 43.4101 49.83 49.5501 53.07 48.1901C53.45 48.0301 54.48 45.0001 54.08 44.9501Z" fill="#FFC201"/>
<path d="M24.63 29.8202C20.5 25.0302 4.47 21.9902 4.47 21.9902C4.47 21.9902 4.97 24.6302 9.93 26.0802C14.14 27.3102 26.25 30.1502 25.23 34.5902C25.23 34.5902 26.1 31.5302 24.63 29.8302V29.8202Z" fill="#FFC201"/>
<path d="M53.47 29.6098C53.47 29.6098 50.3 26.6898 49.66 24.8398L49.74 26.1098C49.74 26.1098 51.49 29.3798 53.61 30.5698L53.47 29.5998V29.6098Z" fill="#FFEBB8"/>
<path d="M46.53 70.29C46.36 70.22 46.12 70.24 45.83 70.34C45.27 71.72 44.29 73.22 43.59 73.88C42.55 74.86 42.48 75.67 42.41 76.47C42.34 77.27 40.79 77.68 40.4 77.88C40.07 78.05 39.71 78.62 39.82 78.93C40.06 79.73 41.16 81.21 42.06 81.4C42.59 81.52 43.02 81.38 43.27 81.21C43.52 81.04 43.94 80.76 44.12 80.28C44.28 79.84 43.9 79.22 44.11 78.75C44.19 78.57 44.3 78.4 44.41 78.24C44.59 77.97 44.8 77.71 45.04 77.47C45.83 76.69 45.82 75.04 46.78 72.37C46.83 71.19 46.77 70.39 46.53 70.29Z" fill="white"/>
<path d="M56.77 53.9299C57.08 53.6099 57.53 53.4399 57.97 53.4599C58.41 53.4799 58.84 53.6899 59.13 54.0399C58.73 53.7599 58.2 53.7499 57.74 53.8899C57.28 54.0399 56.88 54.3199 56.49 54.6099C56.49 54.1899 56.29 53.7699 55.97 53.4899C55.82 53.3599 55.65 53.2599 55.47 53.1999C55.35 53.1599 54.8 53.1099 54.8 53.1099C54.97 52.9599 55.56 52.9299 55.84 53.0199C56.28 53.1499 56.56 53.5599 56.78 53.9399L56.77 53.9299Z" fill="white"/>
<path d="M54.55 58.3402C54.23 57.7102 53.64 57.2302 52.97 57.0502C52.3 56.8702 51.54 56.9802 50.95 57.3602C51.68 57.1302 52.5 57.3702 53.12 57.8102C53.75 58.2502 54.21 58.8802 54.66 59.5002C54.88 58.8702 55.37 58.3302 55.98 58.0602C56.26 57.9402 56.57 57.8702 56.88 57.8602C57.09 57.8602 57.94 58.0502 57.94 58.0502C57.76 57.7302 56.88 57.4202 56.42 57.4102C55.69 57.3902 55.07 57.8802 54.56 58.3402H54.55Z" fill="white"/>
<path d="M8.18 29.7298C7.93 29.0698 7.39 28.5298 6.74 28.2798C6.09 28.0298 5.32 28.0598 4.7 28.3798C5.45 28.2298 6.24 28.5498 6.81 29.0498C7.39 29.5498 7.79 30.2198 8.17 30.8898C8.45 30.2798 8.99 29.7998 9.63 29.5898C9.92 29.4998 10.23 29.4598 10.54 29.4798C10.75 29.4898 11.57 29.7798 11.57 29.7798C11.42 29.4498 10.58 29.0398 10.12 28.9798C9.39 28.8898 8.73 29.3098 8.18 29.7198V29.7298Z" fill="white"/>
</g>
<path fill-rule="evenodd" clip-rule="evenodd" d="M6.49771 79C6.98969 79 7.48602 79.213 7.49037 79.6913C7.49037 80.1043 7.24656 80.2696 6.99839 80.2696C6.75023 80.2696 6.73281 80.1435 6.73281 80.1435C6.73281 80.1435 7.02452 79.9261 7.02452 79.7174C7.02452 79.6087 6.94179 79.313 6.489 79.3174C5.8577 79.3174 5.5181 79.6174 5.5181 80.1522C5.5181 80.7652 7.35105 80.9739 7.3554 81.7652C7.3554 82.613 6.47594 82.9957 5.69225 83C5.283 83 5.01306 82.7609 5.00871 82.3783C5.00871 81.9261 5.22204 81.4652 5.75756 81.4652C5.88382 81.4565 5.98831 81.5522 5.99702 81.6783C5.99702 81.6783 5.99702 81.6826 5.99702 81.687C5.99702 81.687 5.45715 81.8391 5.4615 82.3783C5.4615 82.4783 5.56599 82.6609 5.81851 82.6565C6.07103 82.6522 6.82424 82.4739 6.81989 81.8087C6.81989 81.1913 5.00435 81.1087 5 80.1478C5 79.0652 6.08845 79.0087 6.49771 79.0087V79ZM10.747 79.6C10.8123 79.5696 11.2129 79.4913 11.1955 79.813C11.1824 80.1348 10.9386 80.6913 10.9037 80.9348C11.2303 80.7696 11.6918 80.2087 11.6918 80.2087C11.6918 80.2087 12.0183 80.2522 11.9182 80.4522C11.818 80.6522 11.1519 81.1435 11.1519 81.1435C11.1519 81.1435 11.3043 82.5696 12.1707 82.5696C12.6453 82.5696 12.8499 82.3609 12.937 82.287C12.9587 82.2696 12.9762 82.2652 12.9849 82.2783C13.0197 82.387 12.9936 82.5043 12.9152 82.5913C12.8194 82.6957 12.5974 82.8217 12.1533 82.8261C11.3653 82.8261 10.9255 82.1957 10.8123 81.2609C10.7252 81.5348 10.7339 81.9826 10.7209 82.2C10.6948 82.2435 10.2507 82.4174 10.2158 82.1174C10.2158 82.0913 10.2158 82.0696 10.2158 82.0435C10.1331 82.1609 10.0199 82.2826 9.91108 82.2826C9.71951 82.2826 9.63679 82.1217 9.60196 82.0391C9.57584 82.0696 9.3625 82.287 9.08821 82.287C8.92277 82.2913 8.77474 82.1957 8.70943 82.0435C8.57011 82.1435 8.32195 82.2913 8.03895 82.2913C7.73418 82.2913 7.66017 82.1087 7.66017 81.9565C7.66017 81.713 7.84303 80.987 7.84303 80.987C7.84303 80.987 7.48602 81.1304 7.36411 81.1348C7.19431 81.1348 7.11159 80.8217 7.11159 80.813C7.11159 80.8087 7.11159 80.8 7.1203 80.8C7.22044 80.7609 7.94317 80.513 7.94317 80.513C7.94317 80.513 8.07813 79.9826 8.09555 79.913C8.11296 79.8435 8.2131 79.7 8.33065 79.6565C8.41773 79.6217 8.50916 79.6 8.60059 79.5913C8.63107 79.5913 8.65284 79.6 8.65284 79.6174C8.65284 79.6348 8.47433 80.4087 8.47433 80.4087C8.47433 80.4087 8.84876 80.3217 8.98808 80.3217C9.09692 80.3217 9.15352 80.387 9.09257 80.4696C9.03162 80.5522 8.96196 80.6478 8.92712 80.6913C8.88794 80.7348 8.86182 80.7435 8.77039 80.7609C8.64413 80.787 8.36113 80.8565 8.36113 80.8565C8.36113 80.8565 8.13473 81.6783 8.13909 81.8174C8.13909 81.8957 8.16521 81.987 8.26099 81.987C8.35678 81.987 8.53964 81.8739 8.67025 81.7913C8.69202 81.1522 9.18835 80.7261 9.57584 80.7261C9.7021 80.7261 9.65421 80.8478 9.79788 80.8478H9.88931C9.94591 80.8478 10.0069 80.8522 10.0069 80.9957C10.0069 81.1957 9.89367 81.5261 9.89367 81.7348C9.89367 81.8826 9.91544 81.987 9.97204 81.987C10.0678 81.987 10.1767 81.8478 10.255 81.7261C10.3813 81.0304 10.734 79.7609 10.734 79.6174L10.747 79.6ZM12.5016 80.7C12.7672 80.6783 12.9326 80.8217 12.9631 80.9C12.9936 80.9783 12.9892 81.1609 12.9152 81.2913C12.6845 81.7044 12.1097 81.6304 12.1097 81.6304C12.1097 81.6304 12.0444 81.9565 12.3405 81.9565C12.593 81.9565 12.7062 81.8304 12.8151 81.7261C12.8586 81.7261 12.9936 81.8652 12.9326 81.9609C12.8847 82.0348 12.6191 82.2565 12.2795 82.2609C11.7397 82.2609 11.6047 81.8 11.6744 81.4696C11.7658 81.0609 12.1751 80.7217 12.5016 80.6957V80.7ZM9.6455 80.987C9.32332 80.987 8.82699 81.9696 9.20577 81.9652C9.61938 81.9652 9.6455 81.1826 9.6455 81.0043V80.987ZM12.6409 80.8913C12.4232 80.9 12.1751 81.3174 12.1533 81.5C12.4798 81.513 12.654 81.1957 12.6757 81.0696C12.6888 80.9739 12.6932 80.887 12.6409 80.887V80.8913Z" fill="white"/>
<path d="M46.1444 79.3778L46.6412 80.278L47.6519 80.4733C47.7792 80.4988 47.8302 80.6559 47.741 80.7494L47.0361 81.5009L47.1635 82.5243C47.1805 82.6559 47.0446 82.7494 46.93 82.6942L46 82.2568L45.0701 82.6942C44.9512 82.7494 44.8196 82.6517 44.8366 82.5243L44.964 81.5009L44.2591 80.7494C44.1699 80.6559 44.2209 80.4988 44.3482 80.4733L45.3589 80.278L45.8557 79.3778C45.9194 79.2632 46.085 79.2632 46.1444 79.3778Z" fill="#FFC200"/>
<path d="M46 79.2929C46.0552 79.2929 46.1147 79.3226 46.1444 79.3778L46.6412 80.278L47.6519 80.4733C47.7792 80.4988 47.8302 80.6559 47.741 80.7494L47.0361 81.5009L47.1635 82.5243C47.1763 82.6262 47.0955 82.7111 46.9979 82.7111C46.9766 82.7111 46.9512 82.7069 46.9257 82.6942L45.9958 82.2568L45.0658 82.6942C45.0403 82.7069 45.0191 82.7111 44.9936 82.7111C44.9002 82.7111 44.8153 82.6262 44.828 82.5243L44.9554 81.5009L44.2505 80.7494C44.1614 80.6559 44.2123 80.4988 44.3397 80.4733L45.3503 80.278L45.8471 79.3778C45.8769 79.3226 45.9363 79.2929 45.9915 79.2929M46 79.0806C45.8641 79.0806 45.7367 79.157 45.6688 79.2759L45.2187 80.0912L44.3057 80.2653C44.1699 80.2908 44.0594 80.3884 44.017 80.5201C43.9745 80.6517 44.0085 80.7961 44.1019 80.8937L44.7389 81.5731L44.6242 82.4946C44.6115 82.6007 44.6454 82.7111 44.7134 82.7918C44.7856 82.8725 44.8875 82.9192 44.9979 82.9192C45.0531 82.9192 45.1083 82.9065 45.1592 82.881L46 82.4861L46.8408 82.881C46.8917 82.9065 46.9469 82.9192 47.0021 82.9192C47.1125 82.9192 47.2144 82.8725 47.2866 82.7918C47.3588 82.7111 47.3928 82.6007 47.3758 82.4946L47.2611 81.5731L47.8981 80.8937C47.9915 80.7918 48.0255 80.6474 47.983 80.5201C47.9406 80.3884 47.8301 80.2908 47.6943 80.2653L46.7813 80.0912L46.3312 79.2759C46.2633 79.157 46.1359 79.0806 46 79.0806Z" fill="#213743"/>
<path d="M46 79.8152V80.9744C46 81.0678 46.0892 81.1315 46.1784 81.106L47.2187 80.7706C47.2739 80.7536 47.2697 80.6729 47.2102 80.6602L46.5563 80.5413C46.4969 80.5286 46.4417 80.4903 46.4119 80.4351L46.085 79.7939C46.0637 79.7515 45.9958 79.7642 45.9958 79.8152H46Z" fill="#FFEBB8"/>
<path d="M46 81.4924V82.0699C46 82.1039 46.017 82.1294 46.0467 82.1464L46.7983 82.5073C46.8366 82.5243 46.8705 82.4818 46.845 82.4479L46.0935 81.4627C46.0637 81.4245 46 81.4457 46 81.4924Z" fill="#FF7F00"/>
<path d="M51.1444 79.3778L51.6412 80.278L52.6519 80.4733C52.7792 80.4988 52.8302 80.6559 52.741 80.7494L52.0361 81.5009L52.1635 82.5243C52.1805 82.6559 52.0446 82.7494 51.93 82.6942L51 82.2568L50.0701 82.6942C49.9512 82.7494 49.8196 82.6517 49.8366 82.5243L49.964 81.5009L49.2591 80.7494C49.1699 80.6559 49.2209 80.4988 49.3482 80.4733L50.3589 80.278L50.8557 79.3778C50.9194 79.2632 51.085 79.2632 51.1444 79.3778Z" fill="#FFC200"/>
<path d="M51 79.2929C51.0552 79.2929 51.1147 79.3226 51.1444 79.3778L51.6412 80.278L52.6519 80.4733C52.7792 80.4988 52.8302 80.6559 52.741 80.7494L52.0361 81.5009L52.1635 82.5243C52.1763 82.6262 52.0955 82.7111 51.9979 82.7111C51.9766 82.7111 51.9512 82.7069 51.9257 82.6942L50.9958 82.2568L50.0658 82.6942C50.0403 82.7069 50.0191 82.7111 49.9936 82.7111C49.9002 82.7111 49.8153 82.6262 49.828 82.5243L49.9554 81.5009L49.2505 80.7494C49.1614 80.6559 49.2123 80.4988 49.3397 80.4733L50.3503 80.278L50.8471 79.3778C50.8769 79.3226 50.9363 79.2929 50.9915 79.2929M51 79.0806C50.8641 79.0806 50.7367 79.157 50.6688 79.2759L50.2187 80.0912L49.3057 80.2653C49.1699 80.2908 49.0594 80.3884 49.017 80.5201C48.9745 80.6517 49.0085 80.7961 49.1019 80.8937L49.7389 81.5731L49.6242 82.4946C49.6115 82.6007 49.6454 82.7111 49.7134 82.7918C49.7856 82.8725 49.8875 82.9192 49.9979 82.9192C50.0531 82.9192 50.1083 82.9065 50.1592 82.881L51 82.4861L51.8408 82.881C51.8917 82.9065 51.9469 82.9192 52.0021 82.9192C52.1125 82.9192 52.2144 82.8725 52.2866 82.7918C52.3588 82.7111 52.3928 82.6007 52.3758 82.4946L52.2611 81.5731L52.8981 80.8937C52.9915 80.7918 53.0255 80.6474 52.983 80.5201C52.9406 80.3884 52.8301 80.2908 52.6943 80.2653L51.7813 80.0912L51.3312 79.2759C51.2633 79.157 51.1359 79.0806 51 79.0806Z" fill="#213743"/>
<path d="M51 79.8152V80.9744C51 81.0678 51.0892 81.1315 51.1784 81.106L52.2187 80.7706C52.2739 80.7536 52.2697 80.6729 52.2102 80.6602L51.5563 80.5413C51.4969 80.5286 51.4417 80.4903 51.4119 80.4351L51.085 79.7939C51.0637 79.7515 50.9958 79.7642 50.9958 79.8152H51Z" fill="#FFEBB8"/>
<path d="M51 81.4924V82.0699C51 82.1039 51.017 82.1294 51.0467 82.1464L51.7983 82.5073C51.8366 82.5243 51.8705 82.4818 51.845 82.4479L51.0935 81.4627C51.0637 81.4245 51 81.4457 51 81.4924Z" fill="#FF7F00"/>
<path d="M56.1444 79.3778L56.6412 80.278L57.6519 80.4733C57.7792 80.4988 57.8302 80.6559 57.741 80.7494L57.0361 81.5009L57.1635 82.5243C57.1805 82.6559 57.0446 82.7494 56.93 82.6942L56 82.2568L55.0701 82.6942C54.9512 82.7494 54.8196 82.6517 54.8366 82.5243L54.964 81.5009L54.2591 80.7494C54.1699 80.6559 54.2209 80.4988 54.3482 80.4733L55.3589 80.278L55.8557 79.3778C55.9194 79.2632 56.085 79.2632 56.1444 79.3778Z" fill="#FFC200"/>
<path d="M56 79.2929C56.0552 79.2929 56.1147 79.3226 56.1444 79.3778L56.6412 80.278L57.6519 80.4733C57.7792 80.4988 57.8302 80.6559 57.741 80.7494L57.0361 81.5009L57.1635 82.5243C57.1763 82.6262 57.0955 82.7111 56.9979 82.7111C56.9766 82.7111 56.9512 82.7069 56.9257 82.6942L55.9958 82.2568L55.0658 82.6942C55.0403 82.7069 55.0191 82.7111 54.9936 82.7111C54.9002 82.7111 54.8153 82.6262 54.828 82.5243L54.9554 81.5009L54.2505 80.7494C54.1614 80.6559 54.2123 80.4988 54.3397 80.4733L55.3503 80.278L55.8471 79.3778C55.8769 79.3226 55.9363 79.2929 55.9915 79.2929M56 79.0806C55.8641 79.0806 55.7367 79.157 55.6688 79.2759L55.2187 80.0912L54.3057 80.2653C54.1699 80.2908 54.0594 80.3884 54.017 80.5201C53.9745 80.6517 54.0085 80.7961 54.1019 80.8937L54.7389 81.5731L54.6242 82.4946C54.6115 82.6007 54.6454 82.7111 54.7134 82.7918C54.7856 82.8725 54.8875 82.9192 54.9979 82.9192C55.0531 82.9192 55.1083 82.9065 55.1592 82.881L56 82.4861L56.8408 82.881C56.8917 82.9065 56.9469 82.9192 57.0021 82.9192C57.1125 82.9192 57.2144 82.8725 57.2866 82.7918C57.3588 82.7111 57.3928 82.6007 57.3758 82.4946L57.2611 81.5731L57.8981 80.8937C57.9915 80.7918 58.0255 80.6474 57.983 80.5201C57.9406 80.3884 57.8301 80.2908 57.6943 80.2653L56.7813 80.0912L56.3312 79.2759C56.2633 79.157 56.1359 79.0806 56 79.0806Z" fill="#213743"/>
<path d="M56 79.8152V80.9744C56 81.0678 56.0892 81.1315 56.1784 81.106L57.2187 80.7706C57.2739 80.7536 57.2697 80.6729 57.2102 80.6602L56.5563 80.5413C56.4969 80.5286 56.4417 80.4903 56.4119 80.4351L56.085 79.7939C56.0637 79.7515 55.9958 79.7642 55.9958 79.8152H56Z" fill="#FFEBB8"/>
<path d="M56 81.4924V82.0699C56 82.1039 56.017 82.1294 56.0467 82.1464L56.7983 82.5073C56.8366 82.5243 56.8705 82.4818 56.845 82.4479L56.0935 81.4627C56.0637 81.4245 56 81.4457 56 81.4924Z" fill="#FF7F00"/>
<rect x="13" y="62" width="37" height="13" rx="6.5" fill="#2F4553"/>
<path d="M29.0952 70.072C28.3872 70.072 27.8532 69.856 27.4812 69.49L28.0452 68.77C28.3212 69.022 28.6992 69.16 29.0832 69.16C29.5212 69.16 29.7372 68.944 29.7372 68.698C29.7372 68.428 29.5272 68.236 29.1132 68.236C28.7952 68.236 28.5432 68.326 28.3212 68.536L27.6072 68.362V65.998H30.5112V66.898H28.6392V67.672C28.8312 67.486 29.1432 67.354 29.4972 67.354C30.1752 67.354 30.7872 67.852 30.7872 68.656C30.7872 69.52 30.1332 70.072 29.0952 70.072ZM32.8163 70.072C31.6463 70.072 31.1003 69.058 31.1003 68.002C31.1003 66.946 31.6463 65.938 32.8163 65.938C33.9863 65.938 34.5323 66.946 34.5323 68.002C34.5323 69.058 33.9863 70.072 32.8163 70.072ZM32.8163 69.16C33.2963 69.16 33.4883 68.71 33.4883 68.002C33.4883 67.294 33.2963 66.85 32.8163 66.85C32.3363 66.85 32.1443 67.294 32.1443 68.002C32.1443 68.71 32.3363 69.16 32.8163 69.16ZM37.7965 70H36.7825L36.2245 69.124L35.6605 70H34.6525L35.6425 68.512L34.7125 67.102H35.7265L36.2245 67.888L36.7165 67.102H37.7305L36.8065 68.512L37.7965 70Z" fill="white"/>
<path d="M7.69 11H5.33V7.665H7.69V8.29H6.04V8.995H7.655V9.62H6.04V10.375H7.69V11ZM9.61004 11.06C9.32504 11.06 9.06004 10.94 8.86504 10.69V11.92H8.23004V8.585H8.86504V8.89C9.05004 8.655 9.31504 8.525 9.61004 8.525C10.23 8.525 10.68 8.985 10.68 9.79C10.68 10.595 10.23 11.06 9.61004 11.06ZM9.41004 10.495C9.77504 10.495 10.02 10.21 10.02 9.79C10.02 9.375 9.77504 9.09 9.41004 9.09C9.20504 9.09 8.97004 9.21 8.86504 9.365V10.22C8.97004 10.37 9.20504 10.495 9.41004 10.495ZM11.4601 8.325C11.2551 8.325 11.0801 8.155 11.0801 7.945C11.0801 7.735 11.2551 7.57 11.4601 7.57C11.6701 7.57 11.8401 7.735 11.8401 7.945C11.8401 8.155 11.6701 8.325 11.4601 8.325ZM11.7801 11H11.1451V8.585H11.7801V11ZM13.5347 11.06C12.7897 11.06 12.2547 10.535 12.2547 9.79C12.2547 9.05 12.7897 8.525 13.5347 8.525C14.0297 8.525 14.3297 8.74 14.4897 8.96L14.0747 9.35C13.9597 9.18 13.7847 9.09 13.5647 9.09C13.1797 9.09 12.9097 9.37 12.9097 9.79C12.9097 10.21 13.1797 10.495 13.5647 10.495C13.7847 10.495 13.9597 10.395 14.0747 10.235L14.4897 10.62C14.3297 10.845 14.0297 11.06 13.5347 11.06Z" fill="#05080A"/>
<path d="M49.5374 11H49.0854L47.6934 9.096V11H47.2254V8.332H47.7054L49.0694 10.184V8.332H49.5374V11ZM50.9643 11.048C50.3523 11.048 49.9723 10.588 49.9723 10.032C49.9723 9.48 50.3523 9.02 50.9643 9.02C51.5843 9.02 51.9603 9.48 51.9603 10.032C51.9603 10.588 51.5843 11.048 50.9643 11.048ZM50.9643 10.676C51.3243 10.676 51.5243 10.376 51.5243 10.032C51.5243 9.692 51.3243 9.392 50.9643 9.392C50.6083 9.392 50.4083 9.692 50.4083 10.032C50.4083 10.376 50.6083 10.676 50.9643 10.676ZM52.5818 11.044C52.4298 11.044 52.3018 10.916 52.3018 10.764C52.3018 10.612 52.4298 10.484 52.5818 10.484C52.7338 10.484 52.8618 10.612 52.8618 10.764C52.8618 10.916 52.7338 11.044 52.5818 11.044ZM56.2336 11H54.3016V10.632C55.3376 9.848 55.7416 9.5 55.7416 9.116C55.7416 8.836 55.5016 8.708 55.2576 8.708C54.9456 8.708 54.7056 8.836 54.5376 9.028L54.2656 8.72C54.5016 8.436 54.8776 8.292 55.2496 8.292C55.7656 8.292 56.2176 8.584 56.2176 9.116C56.2176 9.608 55.7656 10.048 55.0496 10.588H56.2336V11ZM57.7165 11H57.2485V8.94L56.8125 9.392L56.5405 9.108L57.3085 8.332H57.7165V11Z" fill="white"/>
<defs>
<linearGradient id="paint0_linear_26835_29184" x1="37.8344" y1="86.256" x2="23.263" y2="1.76" gradientUnits="userSpaceOnUse">
<stop stop-color="#55EEFF"/>
<stop offset="0.09" stop-color="#6CABFF"/>
<stop offset="0.23" stop-color="#8C4FFF"/>
<stop offset="0.32" stop-color="#A016FF"/>
<stop offset="0.37" stop-color="#A800FF"/>
<stop offset="0.44" stop-color="#C043D4"/>
<stop offset="0.51" stop-color="#D680AF"/>
<stop offset="0.58" stop-color="#E8B091"/>
<stop offset="0.64" stop-color="#F4D27B"/>
<stop offset="0.69" stop-color="#FCE76E"/>
<stop offset="0.72" stop-color="#FFEF6A"/>
<stop offset="0.81" stop-color="#BCF589"/>
<stop offset="0.9" stop-color="#84FAA3"/>
<stop offset="0.97" stop-color="#62FDB3"/>
<stop offset="1" stop-color="#55FFBA"/>
</linearGradient>
<linearGradient id="paint1_linear_26835_29184" x1="31.42" y1="2.35004" x2="31.42" y2="53.44" gradientUnits="userSpaceOnUse">
<stop stop-color="#458FFF"/>
<stop offset="1" stop-color="#54DAFF"/>
</linearGradient>
<linearGradient id="paint2_linear_26835_29184" x1="1.56" y1="73.16" x2="60.4" y2="86.51" gradientUnits="userSpaceOnUse">
<stop stop-color="#009FE8"/>
<stop offset="1" stop-color="#047BFF"/>
</linearGradient>
<linearGradient id="paint3_linear_26835_29184" x1="51.08" y1="89.51" x2="19.74" y2="16.67" gradientUnits="userSpaceOnUse">
<stop stop-color="#55EEFF"/>
<stop offset="0.09" stop-color="#6CABFF"/>
<stop offset="0.23" stop-color="#8C4FFF"/>
<stop offset="0.32" stop-color="#A016FF"/>
<stop offset="0.37" stop-color="#A800FF"/>
<stop offset="0.44" stop-color="#C043D4"/>
<stop offset="0.51" stop-color="#D680AF"/>
<stop offset="0.58" stop-color="#E8B091"/>
<stop offset="0.64" stop-color="#F4D27B"/>
<stop offset="0.69" stop-color="#FCE76E"/>
<stop offset="0.72" stop-color="#FFEF6A"/>
<stop offset="0.81" stop-color="#BCF589"/>
<stop offset="0.9" stop-color="#84FAA3"/>
<stop offset="0.97" stop-color="#62FDB3"/>
<stop offset="1" stop-color="#55FFBA"/>
</linearGradient>
<linearGradient id="paint4_linear_26835_29184" x1="57.69" y1="86.3601" x2="26.45" y2="13.7601" gradientUnits="userSpaceOnUse">
<stop stop-color="#55EEFF"/>
<stop offset="0.09" stop-color="#6CABFF"/>
<stop offset="0.23" stop-color="#8C4FFF"/>
<stop offset="0.32" stop-color="#A016FF"/>
<stop offset="0.37" stop-color="#A800FF"/>
<stop offset="0.44" stop-color="#C043D4"/>
<stop offset="0.51" stop-color="#D680AF"/>
<stop offset="0.58" stop-color="#E8B091"/>
<stop offset="0.64" stop-color="#F4D27B"/>
<stop offset="0.69" stop-color="#FCE76E"/>
<stop offset="0.72" stop-color="#FFEF6A"/>
<stop offset="0.81" stop-color="#BCF589"/>
<stop offset="0.9" stop-color="#84FAA3"/>
<stop offset="0.97" stop-color="#62FDB3"/>
<stop offset="1" stop-color="#55FFBA"/>
</linearGradient>
<clipPath id="clip0_26835_29184">
<rect width="63" height="88" fill="white"/>
</clipPath>
</defs>
</svg>
