<svg width="63" height="88" viewBox="0 0 63 88" fill="none" xmlns="http://www.w3.org/2000/svg">
<rect width="63" height="88" rx="4" fill="url(#paint0_linear_26835_29185)"/>
<g clip-path="url(#clip0_26835_29185)">
<g clip-path="url(#clip1_26835_29185)">
<path d="M56.44 0.740234H6.56001C3.22973 0.740234 0.53001 3.43996 0.53001 6.77023V81.2302C0.53001 84.5605 3.22973 87.2602 6.56001 87.2602H56.44C59.7703 87.2602 62.47 84.5605 62.47 81.2302V6.77023C62.47 3.43996 59.7703 0.740234 56.44 0.740234Z" fill="url(#paint1_linear_26835_29185)"/>
<mask id="mask0_26835_29185" style="mask-type:luminance" maskUnits="userSpaceOnUse" x="0" y="0" width="63" height="88">
<path d="M56.44 0.740234H6.56001C3.22973 0.740234 0.53001 3.43996 0.53001 6.77023V81.2302C0.53001 84.5605 3.22973 87.2602 6.56001 87.2602H56.44C59.7703 87.2602 62.47 84.5605 62.47 81.2302V6.77023C62.47 3.43996 59.7703 0.740234 56.44 0.740234Z" fill="white"/>
</mask>
<g mask="url(#mask0_26835_29185)">
<path d="M66.84 28.0698H48.72C47.5547 28.0698 46.61 29.0145 46.61 30.1798V73.3598C46.61 74.5251 47.5547 75.4698 48.72 75.4698H66.84C68.0053 75.4698 68.95 74.5251 68.95 73.3598V30.1798C68.95 29.0145 68.0053 28.0698 66.84 28.0698Z" fill="#7F0024"/>
<path d="M14.23 28.0698H-3.88999C-5.05531 28.0698 -5.99999 29.0145 -5.99999 30.1798V73.3598C-5.99999 74.5251 -5.05531 75.4698 -3.88999 75.4698H14.23C15.3953 75.4698 16.34 74.5251 16.34 73.3598V30.1798C16.34 29.0145 15.3953 28.0698 14.23 28.0698Z" fill="#7F0024"/>
<path d="M14.23 24.52H-3.88999C-5.05531 24.52 -5.99999 25.4647 -5.99999 26.63V69.81C-5.99999 70.9753 -5.05531 71.92 -3.88999 71.92H14.23C15.3953 71.92 16.34 70.9753 16.34 69.81V26.63C16.34 25.4647 15.3953 24.52 14.23 24.52Z" fill="#FFB6C7"/>
<path d="M14.14 25.2002H-3.80999C-4.63289 25.2002 -5.29999 25.8673 -5.29999 26.6902V65.5302C-5.29999 66.3531 -4.63289 67.0202 -3.80999 67.0202H14.14C14.9629 67.0202 15.63 66.3531 15.63 65.5302V26.6902C15.63 25.8673 14.9629 25.2002 14.14 25.2002Z" fill="#E9627D"/>
<path d="M5.17001 51.6099C4.86001 51.6099 4.55001 51.5299 4.28001 51.3699L-1.42999 48.0699C-1.97999 47.7599 -2.31999 47.1599 -2.31999 46.5299V39.9399C-2.31999 39.3099 -1.97999 38.7199 -1.42999 38.3999L4.28001 35.0999C4.55001 34.9399 4.86001 34.8599 5.17001 34.8599C5.48001 34.8599 5.79001 34.9399 6.06001 35.0999L11.77 38.3999C12.32 38.7199 12.66 39.3099 12.66 39.9399V46.5299C12.66 47.1599 12.32 47.7499 11.77 48.0699L6.06001 51.3699C5.79001 51.5299 5.48001 51.6099 5.17001 51.6099Z" fill="#E9113C"/>
<path d="M5.17001 50.1401C4.82001 50.1401 4.48001 50.0501 4.18001 49.8801L-2.15999 46.2201C-2.76999 45.8701 -3.14999 45.2101 -3.14999 44.5101V37.1901C-3.14999 36.4901 -2.76999 35.8301 -2.15999 35.4801L4.18001 31.8201C4.48001 31.6501 4.82001 31.5601 5.17001 31.5601C5.52001 31.5601 5.86001 31.6501 6.16001 31.8301L12.5 35.4901C13.11 35.8401 13.49 36.5001 13.49 37.2001V44.5201C13.49 45.2201 13.11 45.8801 12.5 46.2301L6.16001 49.8901C5.86001 50.0601 5.52001 50.1501 5.17001 50.1501V50.1401Z" fill="white"/>
<path d="M5.17001 48.3598C4.82001 48.3598 4.48001 48.2698 4.18001 48.0998L-2.15999 44.4398C-2.76999 44.0898 -3.14999 43.4298 -3.14999 42.7298V35.4098C-3.14999 34.7098 -2.76999 34.0498 -2.15999 33.6998L4.18001 30.0398C4.48001 29.8698 4.82001 29.7798 5.17001 29.7798C5.52001 29.7798 5.86001 29.8698 6.16001 30.0498L12.5 33.7098C13.11 34.0598 13.49 34.7198 13.49 35.4198V42.7398C13.49 43.4398 13.11 44.0998 12.5 44.4498L6.16001 48.1098C5.86001 48.2798 5.52001 48.3698 5.17001 48.3698V48.3598Z" fill="white"/>
<path d="M-1.80999 35.3999V42.7199C-1.80999 42.9499 -1.68999 43.1499 -1.48999 43.2699L4.85001 46.9299C5.05001 47.0399 5.29001 47.0399 5.48001 46.9299L11.82 43.2699C12.02 43.1599 12.14 42.9499 12.14 42.7199V35.3999C12.14 35.1699 12.02 34.9699 11.82 34.8499L5.48001 31.1899C5.28001 31.0799 5.04001 31.0799 4.85001 31.1899L-1.48999 34.8499C-1.68999 34.9599 -1.80999 35.1699 -1.80999 35.3999Z" fill="#45A7FF"/>
<path d="M66.84 24.52H48.72C47.5547 24.52 46.61 25.4647 46.61 26.63V69.81C46.61 70.9753 47.5547 71.92 48.72 71.92H66.84C68.0053 71.92 68.95 70.9753 68.95 69.81V26.63C68.95 25.4647 68.0053 24.52 66.84 24.52Z" fill="#FFB6C7"/>
<path d="M66.75 25.2002H48.8C47.9771 25.2002 47.31 25.8673 47.31 26.6902V65.5302C47.31 66.3531 47.9771 67.0202 48.8 67.0202H66.75C67.5729 67.0202 68.24 66.3531 68.24 65.5302V26.6902C68.24 25.8673 67.5729 25.2002 66.75 25.2002Z" fill="#E9627D"/>
<path d="M57.78 51.6099C57.47 51.6099 57.16 51.5299 56.89 51.3699L51.18 48.0699C50.63 47.7599 50.29 47.1599 50.29 46.5299V39.9399C50.29 39.3099 50.63 38.7199 51.18 38.3999L56.89 35.0999C57.16 34.9399 57.47 34.8599 57.78 34.8599C58.09 34.8599 58.4 34.9399 58.67 35.0999L64.38 38.3999C64.93 38.7199 65.27 39.3099 65.27 39.9399V46.5299C65.27 47.1599 64.93 47.7499 64.38 48.0699L58.67 51.3699C58.4 51.5299 58.09 51.6099 57.78 51.6099Z" fill="#E9113C"/>
<path d="M57.78 50.1401C57.43 50.1401 57.09 50.0501 56.79 49.8801L50.45 46.2201C49.84 45.8701 49.46 45.2101 49.46 44.5101V37.1901C49.46 36.4901 49.84 35.8301 50.45 35.4801L56.79 31.8201C57.09 31.6501 57.43 31.5601 57.78 31.5601C58.13 31.5601 58.47 31.6501 58.77 31.8301L65.11 35.4901C65.72 35.8401 66.1 36.5001 66.1 37.2001V44.5201C66.1 45.2201 65.72 45.8801 65.11 46.2301L58.77 49.8901C58.47 50.0601 58.13 50.1501 57.78 50.1501V50.1401Z" fill="white"/>
<path d="M57.78 48.3598C57.43 48.3598 57.09 48.2698 56.79 48.0998L50.45 44.4398C49.84 44.0898 49.46 43.4298 49.46 42.7298V35.4098C49.46 34.7098 49.84 34.0498 50.45 33.6998L56.79 30.0398C57.09 29.8698 57.43 29.7798 57.78 29.7798C58.13 29.7798 58.47 29.8698 58.77 30.0498L65.11 33.7098C65.72 34.0598 66.1 34.7198 66.1 35.4198V42.7398C66.1 43.4398 65.72 44.0998 65.11 44.4498L58.77 48.1098C58.47 48.2798 58.13 48.3698 57.78 48.3698V48.3598Z" fill="white"/>
<path d="M50.8 35.3999V42.7199C50.8 42.9499 50.92 43.1499 51.12 43.2699L57.46 46.9299C57.66 47.0399 57.9 47.0399 58.09 46.9299L64.43 43.2699C64.63 43.1599 64.75 42.9499 64.75 42.7199V35.3999C64.75 35.1699 64.63 34.9699 64.43 34.8499L58.09 31.1899C57.89 31.0799 57.65 31.0799 57.46 31.1899L51.12 34.8499C50.92 34.9599 50.8 35.1699 50.8 35.3999Z" fill="#45A7FF"/>
</g>
<path d="M3.93001 1.3501C2.86001 1.3501 1.43001 3.4401 1.43001 4.5001L2.00001 18.1901C2.00001 16.4301 3.43001 15.0001 5.19001 15.0001H33.59C34.8 15.0001 35.94 14.4501 36.7 13.5101L44.8 3.4801C45.56 2.5401 46.7 1.9901 47.91 1.9901L3.93001 1.3501Z" fill="url(#paint2_linear_26835_29185)"/>
<path d="M59 0H4.00001C1.79001 0 1.14441e-05 1.79 1.14441e-05 4V84C1.14441e-05 86.21 1.79001 88 4.00001 88H59C61.21 88 63 86.21 63 84V4C63 1.79 61.21 0 59 0ZM61 82.81C61 84.57 59.57 86 57.81 86H5.19001C3.43001 86 2.00001 84.57 2.00001 82.81V16.9C2.00001 8.67 8.67001 2 16.9 2H57.81C59.57 2 61 3.43 61 5.19V82.81Z" fill="url(#paint3_linear_26835_29185)"/>
<mask id="mask1_26835_29185" style="mask-type:luminance" maskUnits="userSpaceOnUse" x="0" y="0" width="63" height="88">
<path d="M59 0H4.00001C1.79001 0 1.14441e-05 1.79 1.14441e-05 4V84C1.14441e-05 86.21 1.79001 88 4.00001 88H59C61.21 88 63 86.21 63 84V4C63 1.79 61.21 0 59 0ZM61 82.81C61 84.57 59.57 86 57.81 86H5.19001C3.43001 86 2.00001 84.57 2.00001 82.81V18.19C2.00001 16.43 3.43001 15 5.19001 15H33.59C34.8 15 35.94 14.45 36.7 13.51L44.8 3.48C45.56 2.54 46.7 1.99 47.91 1.99H57.81C59.57 1.99 61 3.42 61 5.18V82.8V82.81Z" fill="white"/>
</mask>
<g mask="url(#mask1_26835_29185)">
<path d="M68.37 47.3101V26.6401L4.46001 90.5501H25.13L68.37 47.3101Z" fill="white"/>
<path d="M64.66 -2.29004H55.22L-2.91999 55.84V66.18L65.46 -2.20004C65.2 -2.26004 64.93 -2.29004 64.66 -2.29004Z" fill="white"/>
<path d="M68.37 69.2298V61.5498L39.37 90.5498H47.05L68.37 69.2298Z" fill="white"/>
</g>
<path d="M41.13 14.6699H21.87C20.6329 14.6699 19.63 15.6728 19.63 16.9099V62.7899C19.63 64.027 20.6329 65.0299 21.87 65.0299H41.13C42.3671 65.0299 43.37 64.027 43.37 62.7899V16.9099C43.37 15.6728 42.3671 14.6699 41.13 14.6699Z" fill="#7F0024"/>
<path d="M41.13 9.7998H21.87C20.6329 9.7998 19.63 10.8027 19.63 12.0398V57.9198C19.63 59.1569 20.6329 60.1598 21.87 60.1598H41.13C42.3671 60.1598 43.37 59.1569 43.37 57.9198V12.0398C43.37 10.8027 42.3671 9.7998 41.13 9.7998Z" fill="white"/>
<path d="M41.04 10.52H21.96C21.0874 10.52 20.38 11.2274 20.38 12.1V53.37C20.38 54.2426 21.0874 54.95 21.96 54.95H41.04C41.9126 54.95 42.62 54.2426 42.62 53.37V12.1C42.62 11.2274 41.9126 10.52 41.04 10.52Z" fill="#45A7FF"/>
<path d="M41.03 10.52H21.96C21.08 10.52 20.38 11.23 20.38 12.1V42.46C23.88 43.59 27.62 44.2 31.5 44.2C35.38 44.2 39.11 43.58 42.62 42.46V12.11C42.62 11.23 41.91 10.53 41.04 10.53L41.03 10.52Z" fill="#047BFF"/>
<path d="M31.5 38.7498C31.16 38.7498 30.82 38.6598 30.52 38.4898L24.23 34.8598C23.63 34.5098 23.25 33.8598 23.25 33.1598V25.8898C23.25 25.1898 23.63 24.5398 24.23 24.1898L30.52 20.5598C30.82 20.3898 31.16 20.2998 31.5 20.2998C31.84 20.2998 32.18 20.3898 32.48 20.5598L38.77 24.1898C39.37 24.5398 39.75 25.1898 39.75 25.8898V33.1598C39.75 33.8598 39.37 34.5098 38.77 34.8598L32.48 38.4898C32.18 38.6598 31.84 38.7498 31.5 38.7498Z" fill="#2B3A4E"/>
<path d="M33.48 60.16V52.62C33.48 52.15 33.1 51.77 32.63 51.77C32.16 51.77 31.78 52.15 31.78 52.62V60.16H33.47H33.48Z" fill="#2B3A4E"/>
<path d="M39.29 19.5401L32.55 15.6501C32.23 15.4701 31.87 15.3701 31.5 15.3701C31.13 15.3701 30.77 15.4701 30.45 15.6501L23.71 19.5401C23.06 19.9101 22.66 20.6101 22.66 21.3601V30.7801C22.66 31.5301 23.06 32.2201 23.71 32.6001L30.45 36.4901C30.77 36.6701 31.13 36.7701 31.5 36.7701C31.87 36.7701 32.23 36.6701 32.55 36.4901L39.29 32.6001C39.94 32.2301 40.34 31.5301 40.34 30.7801V21.3601C40.34 20.6101 39.94 19.9201 39.29 19.5401Z" fill="#FF5500"/>
<path d="M39.29 19.5401L32.55 15.6501C32.23 15.4701 31.87 15.3701 31.5 15.3701C31.13 15.3701 30.77 15.4701 30.45 15.6501L23.71 19.5401C23.06 19.9101 22.66 20.6101 22.66 21.3601V28.1301C24.17 28.4201 25.72 28.5801 27.31 28.5801C32.1 28.5801 36.57 27.1801 40.33 24.7801V21.3601C40.33 20.6101 39.93 19.9201 39.28 19.5401H39.29Z" fill="#FFC200"/>
<path d="M24.67 18.9801L26.07 19.8301L29.16 18.0401L28.74 16.6401L24.67 18.9801Z" fill="white"/>
<path d="M24.09 21.3598V29.1398C24.09 29.3798 24.22 29.5998 24.43 29.7198L31.17 33.6098C31.38 33.7298 31.63 33.7298 31.84 33.6098L38.58 29.7198C38.79 29.5998 38.92 29.3798 38.92 29.1398V21.3598C38.92 21.1198 38.79 20.8998 38.58 20.7798L31.84 16.8898C31.63 16.7698 31.38 16.7698 31.17 16.8898L24.43 20.7798C24.22 20.8998 24.09 21.1198 24.09 21.3598Z" fill="#FFC200"/>
<path d="M24.09 22.6602C24.09 22.6602 32.98 25.7302 38.77 24.1902V28.2102C38.77 28.2102 27.8 24.5902 24.09 25.6702V22.6602Z" fill="white"/>
<path d="M31.5 33.9498C31.34 33.9498 31.18 33.9098 31.04 33.8298L24.3 29.9398C24.02 29.7798 23.84 29.4698 23.84 29.1398V21.3598C23.84 21.0298 24.02 20.7298 24.3 20.5598L31.04 16.6698C31.32 16.5098 31.68 16.5098 31.96 16.6698L38.7 20.5598C38.98 20.7198 39.16 21.0298 39.16 21.3598V29.1398C39.16 29.4698 38.98 29.7698 38.7 29.9398L31.96 33.8298C31.82 33.9098 31.66 33.9498 31.5 33.9498ZM31.5 17.0398C31.43 17.0398 31.35 17.0598 31.29 17.0998L24.55 20.9898C24.42 21.0698 24.34 21.1998 24.34 21.3498V29.1298C24.34 29.2798 24.42 29.4198 24.55 29.4898L31.29 33.3798C31.42 33.4498 31.58 33.4498 31.71 33.3798L38.45 29.4898C38.58 29.4098 38.66 29.2798 38.66 29.1298V21.3498C38.66 21.1998 38.58 21.0598 38.45 20.9898L31.71 17.0998C31.65 17.0598 31.57 17.0398 31.5 17.0398Z" fill="#FFEBB8"/>
<path d="M32.35 77.52H30.66C29.12 77.9 27.98 79.29 27.98 80.94C27.98 82.89 29.56 84.47 31.51 84.47C33.46 84.47 35.04 82.89 35.04 80.94C35.04 79.28 33.9 77.9 32.36 77.52H32.35ZM31.5 82.7C30.53 82.7 29.74 81.91 29.74 80.94C29.74 79.97 30.53 79.18 31.5 79.18C32.47 79.18 33.26 79.97 33.26 80.94C33.26 81.91 32.47 82.7 31.5 82.7Z" fill="#7F0024"/>
<path d="M32.35 76.1999V51.7699C32.35 51.2999 31.97 50.9199 31.5 50.9199C31.03 50.9199 30.65 51.2999 30.65 51.7699V76.1999C29.11 76.5799 27.97 77.9699 27.97 79.6199C27.97 81.5699 29.55 83.1499 31.5 83.1499C33.45 83.1499 35.03 81.5699 35.03 79.6199C35.03 77.9599 33.89 76.5799 32.35 76.1999ZM31.5 81.3799C30.53 81.3799 29.74 80.5899 29.74 79.6199C29.74 78.6499 30.53 77.8599 31.5 77.8599C32.47 77.8599 33.26 78.6499 33.26 79.6199C33.26 80.5899 32.47 81.3799 31.5 81.3799Z" fill="#FFC200"/>
<path d="M34.84 33.33C33.68 34 32.86 34.77 33.03 35.06C33.2 35.35 34.27 35.02 35.43 34.35C36.59 33.68 36.95 33.19 36.78 32.91C36.61 32.63 36 32.66 34.84 33.33Z" fill="#2B3A4E"/>
<path d="M37.856 32.9781C38.5304 32.5888 38.9159 31.9939 38.7171 31.6496C38.5182 31.3052 37.8104 31.3417 37.136 31.731C36.4616 32.1204 36.076 32.7152 36.2749 33.0596C36.4737 33.4039 37.1816 33.3675 37.856 32.9781Z" fill="white"/>
<path d="M37.21 43.46C37.21 44.51 34.53 46.11 31.23 46.11C27.93 46.11 25.25 44.51 25.25 43.46C25.25 42.41 27.93 42.63 31.23 42.63C34.53 42.63 37.21 42.42 37.21 43.46Z" fill="white"/>
</g>
</g>
<path fill-rule="evenodd" clip-rule="evenodd" d="M6.49771 79C6.98969 79 7.48602 79.213 7.49037 79.6913C7.49037 80.1043 7.24656 80.2696 6.99839 80.2696C6.75023 80.2696 6.73281 80.1435 6.73281 80.1435C6.73281 80.1435 7.02452 79.9261 7.02452 79.7174C7.02452 79.6087 6.94179 79.313 6.489 79.3174C5.8577 79.3174 5.5181 79.6174 5.5181 80.1522C5.5181 80.7652 7.35105 80.9739 7.3554 81.7652C7.3554 82.613 6.47594 82.9957 5.69225 83C5.283 83 5.01306 82.7609 5.00871 82.3783C5.00871 81.9261 5.22204 81.4652 5.75756 81.4652C5.88382 81.4565 5.98831 81.5522 5.99702 81.6783C5.99702 81.6783 5.99702 81.6826 5.99702 81.687C5.99702 81.687 5.45715 81.8391 5.4615 82.3783C5.4615 82.4783 5.56599 82.6609 5.81851 82.6565C6.07103 82.6522 6.82424 82.4739 6.81989 81.8087C6.81989 81.1913 5.00435 81.1087 5 80.1478C5 79.0652 6.08845 79.0087 6.49771 79.0087V79ZM10.747 79.6C10.8123 79.5696 11.2129 79.4913 11.1955 79.813C11.1824 80.1348 10.9386 80.6913 10.9037 80.9348C11.2303 80.7696 11.6918 80.2087 11.6918 80.2087C11.6918 80.2087 12.0183 80.2522 11.9182 80.4522C11.818 80.6522 11.1519 81.1435 11.1519 81.1435C11.1519 81.1435 11.3043 82.5696 12.1707 82.5696C12.6453 82.5696 12.8499 82.3609 12.937 82.287C12.9587 82.2696 12.9762 82.2652 12.9849 82.2783C13.0197 82.387 12.9936 82.5043 12.9152 82.5913C12.8194 82.6957 12.5974 82.8217 12.1533 82.8261C11.3653 82.8261 10.9255 82.1957 10.8123 81.2609C10.7252 81.5348 10.7339 81.9826 10.7209 82.2C10.6948 82.2435 10.2507 82.4174 10.2158 82.1174C10.2158 82.0913 10.2158 82.0696 10.2158 82.0435C10.1331 82.1609 10.0199 82.2826 9.91108 82.2826C9.71951 82.2826 9.63679 82.1217 9.60196 82.0391C9.57584 82.0696 9.3625 82.287 9.08821 82.287C8.92277 82.2913 8.77474 82.1957 8.70943 82.0435C8.57011 82.1435 8.32195 82.2913 8.03895 82.2913C7.73418 82.2913 7.66017 82.1087 7.66017 81.9565C7.66017 81.713 7.84303 80.987 7.84303 80.987C7.84303 80.987 7.48602 81.1304 7.36411 81.1348C7.19431 81.1348 7.11159 80.8217 7.11159 80.813C7.11159 80.8087 7.11159 80.8 7.1203 80.8C7.22044 80.7609 7.94317 80.513 7.94317 80.513C7.94317 80.513 8.07813 79.9826 8.09555 79.913C8.11296 79.8435 8.2131 79.7 8.33065 79.6565C8.41773 79.6217 8.50916 79.6 8.60059 79.5913C8.63107 79.5913 8.65284 79.6 8.65284 79.6174C8.65284 79.6348 8.47433 80.4087 8.47433 80.4087C8.47433 80.4087 8.84876 80.3217 8.98808 80.3217C9.09692 80.3217 9.15352 80.387 9.09257 80.4696C9.03162 80.5522 8.96196 80.6478 8.92712 80.6913C8.88794 80.7348 8.86182 80.7435 8.77039 80.7609C8.64413 80.787 8.36113 80.8565 8.36113 80.8565C8.36113 80.8565 8.13473 81.6783 8.13909 81.8174C8.13909 81.8957 8.16521 81.987 8.26099 81.987C8.35678 81.987 8.53964 81.8739 8.67025 81.7913C8.69202 81.1522 9.18835 80.7261 9.57584 80.7261C9.7021 80.7261 9.65421 80.8478 9.79788 80.8478H9.88931C9.94591 80.8478 10.0069 80.8522 10.0069 80.9957C10.0069 81.1957 9.89367 81.5261 9.89367 81.7348C9.89367 81.8826 9.91544 81.987 9.97204 81.987C10.0678 81.987 10.1767 81.8478 10.255 81.7261C10.3813 81.0304 10.734 79.7609 10.734 79.6174L10.747 79.6ZM12.5016 80.7C12.7672 80.6783 12.9326 80.8217 12.9631 80.9C12.9936 80.9783 12.9892 81.1609 12.9152 81.2913C12.6845 81.7044 12.1097 81.6304 12.1097 81.6304C12.1097 81.6304 12.0444 81.9565 12.3405 81.9565C12.593 81.9565 12.7062 81.8304 12.8151 81.7261C12.8586 81.7261 12.9936 81.8652 12.9326 81.9609C12.8847 82.0348 12.6191 82.2565 12.2795 82.2609C11.7397 82.2609 11.6047 81.8 11.6744 81.4696C11.7658 81.0609 12.1751 80.7217 12.5016 80.6957V80.7ZM9.6455 80.987C9.32332 80.987 8.82699 81.9696 9.20577 81.9652C9.61938 81.9652 9.6455 81.1826 9.6455 81.0043V80.987ZM12.6409 80.8913C12.4232 80.9 12.1751 81.3174 12.1533 81.5C12.4798 81.513 12.654 81.1957 12.6757 81.0696C12.6888 80.9739 12.6932 80.887 12.6409 80.887V80.8913Z" fill="white"/>
<path d="M46.1444 79.3778L46.6412 80.278L47.6519 80.4733C47.7792 80.4988 47.8302 80.6559 47.741 80.7494L47.0361 81.5009L47.1635 82.5243C47.1805 82.6559 47.0446 82.7494 46.93 82.6942L46 82.2568L45.0701 82.6942C44.9512 82.7494 44.8196 82.6517 44.8366 82.5243L44.964 81.5009L44.2591 80.7494C44.1699 80.6559 44.2209 80.4988 44.3482 80.4733L45.3589 80.278L45.8557 79.3778C45.9194 79.2632 46.085 79.2632 46.1444 79.3778Z" fill="#FFC200"/>
<path d="M46 79.2929C46.0552 79.2929 46.1147 79.3226 46.1444 79.3778L46.6412 80.278L47.6519 80.4733C47.7792 80.4988 47.8302 80.6559 47.741 80.7494L47.0361 81.5009L47.1635 82.5243C47.1763 82.6262 47.0955 82.7111 46.9979 82.7111C46.9766 82.7111 46.9512 82.7069 46.9257 82.6942L45.9958 82.2568L45.0658 82.6942C45.0403 82.7069 45.0191 82.7111 44.9936 82.7111C44.9002 82.7111 44.8153 82.6262 44.828 82.5243L44.9554 81.5009L44.2505 80.7494C44.1614 80.6559 44.2123 80.4988 44.3397 80.4733L45.3503 80.278L45.8471 79.3778C45.8769 79.3226 45.9363 79.2929 45.9915 79.2929M46 79.0806C45.8641 79.0806 45.7367 79.157 45.6688 79.2759L45.2187 80.0912L44.3057 80.2653C44.1699 80.2908 44.0594 80.3884 44.017 80.5201C43.9745 80.6517 44.0085 80.7961 44.1019 80.8937L44.7389 81.5731L44.6242 82.4946C44.6115 82.6007 44.6454 82.7111 44.7134 82.7918C44.7856 82.8725 44.8875 82.9192 44.9979 82.9192C45.0531 82.9192 45.1083 82.9065 45.1592 82.881L46 82.4861L46.8408 82.881C46.8917 82.9065 46.9469 82.9192 47.0021 82.9192C47.1125 82.9192 47.2144 82.8725 47.2866 82.7918C47.3588 82.7111 47.3928 82.6007 47.3758 82.4946L47.2611 81.5731L47.8981 80.8937C47.9915 80.7918 48.0255 80.6474 47.983 80.5201C47.9406 80.3884 47.8301 80.2908 47.6943 80.2653L46.7813 80.0912L46.3312 79.2759C46.2633 79.157 46.1359 79.0806 46 79.0806Z" fill="#213743"/>
<path d="M46 79.8152V80.9744C46 81.0678 46.0892 81.1315 46.1784 81.106L47.2187 80.7706C47.2739 80.7536 47.2697 80.6729 47.2102 80.6602L46.5563 80.5413C46.4969 80.5286 46.4417 80.4903 46.4119 80.4351L46.085 79.7939C46.0637 79.7515 45.9958 79.7642 45.9958 79.8152H46Z" fill="#FFEBB8"/>
<path d="M46 81.4924V82.0699C46 82.1039 46.017 82.1294 46.0467 82.1464L46.7983 82.5073C46.8366 82.5243 46.8705 82.4818 46.845 82.4479L46.0935 81.4627C46.0637 81.4245 46 81.4457 46 81.4924Z" fill="#FF7F00"/>
<path d="M51.1444 79.3778L51.6412 80.278L52.6519 80.4733C52.7792 80.4988 52.8302 80.6559 52.741 80.7494L52.0361 81.5009L52.1635 82.5243C52.1805 82.6559 52.0446 82.7494 51.93 82.6942L51 82.2568L50.0701 82.6942C49.9512 82.7494 49.8196 82.6517 49.8366 82.5243L49.964 81.5009L49.2591 80.7494C49.1699 80.6559 49.2209 80.4988 49.3482 80.4733L50.3589 80.278L50.8557 79.3778C50.9194 79.2632 51.085 79.2632 51.1444 79.3778Z" fill="#FFC200"/>
<path d="M51 79.2929C51.0552 79.2929 51.1147 79.3226 51.1444 79.3778L51.6412 80.278L52.6519 80.4733C52.7792 80.4988 52.8302 80.6559 52.741 80.7494L52.0361 81.5009L52.1635 82.5243C52.1763 82.6262 52.0955 82.7111 51.9979 82.7111C51.9766 82.7111 51.9512 82.7069 51.9257 82.6942L50.9958 82.2568L50.0658 82.6942C50.0403 82.7069 50.0191 82.7111 49.9936 82.7111C49.9002 82.7111 49.8153 82.6262 49.828 82.5243L49.9554 81.5009L49.2505 80.7494C49.1614 80.6559 49.2123 80.4988 49.3397 80.4733L50.3503 80.278L50.8471 79.3778C50.8769 79.3226 50.9363 79.2929 50.9915 79.2929M51 79.0806C50.8641 79.0806 50.7367 79.157 50.6688 79.2759L50.2187 80.0912L49.3057 80.2653C49.1699 80.2908 49.0594 80.3884 49.017 80.5201C48.9745 80.6517 49.0085 80.7961 49.1019 80.8937L49.7389 81.5731L49.6242 82.4946C49.6115 82.6007 49.6454 82.7111 49.7134 82.7918C49.7856 82.8725 49.8875 82.9192 49.9979 82.9192C50.0531 82.9192 50.1083 82.9065 50.1592 82.881L51 82.4861L51.8408 82.881C51.8917 82.9065 51.9469 82.9192 52.0021 82.9192C52.1125 82.9192 52.2144 82.8725 52.2866 82.7918C52.3588 82.7111 52.3928 82.6007 52.3758 82.4946L52.2611 81.5731L52.8981 80.8937C52.9915 80.7918 53.0255 80.6474 52.983 80.5201C52.9406 80.3884 52.8301 80.2908 52.6943 80.2653L51.7813 80.0912L51.3312 79.2759C51.2633 79.157 51.1359 79.0806 51 79.0806Z" fill="#213743"/>
<path d="M51 79.8152V80.9744C51 81.0678 51.0892 81.1315 51.1784 81.106L52.2187 80.7706C52.2739 80.7536 52.2697 80.6729 52.2102 80.6602L51.5563 80.5413C51.4969 80.5286 51.4417 80.4903 51.4119 80.4351L51.085 79.7939C51.0637 79.7515 50.9958 79.7642 50.9958 79.8152H51Z" fill="#FFEBB8"/>
<path d="M51 81.4924V82.0699C51 82.1039 51.017 82.1294 51.0467 82.1464L51.7983 82.5073C51.8366 82.5243 51.8705 82.4818 51.845 82.4479L51.0935 81.4627C51.0637 81.4245 51 81.4457 51 81.4924Z" fill="#FF7F00"/>
<path d="M56.1444 79.3778L56.6412 80.278L57.6519 80.4733C57.7792 80.4988 57.8302 80.6559 57.741 80.7494L57.0361 81.5009L57.1635 82.5243C57.1805 82.6559 57.0446 82.7494 56.93 82.6942L56 82.2568L55.0701 82.6942C54.9512 82.7494 54.8196 82.6517 54.8366 82.5243L54.964 81.5009L54.2591 80.7494C54.1699 80.6559 54.2209 80.4988 54.3482 80.4733L55.3589 80.278L55.8557 79.3778C55.9194 79.2632 56.085 79.2632 56.1444 79.3778Z" fill="#FFC200"/>
<path d="M56 79.2929C56.0552 79.2929 56.1147 79.3226 56.1444 79.3778L56.6412 80.278L57.6519 80.4733C57.7792 80.4988 57.8302 80.6559 57.741 80.7494L57.0361 81.5009L57.1635 82.5243C57.1763 82.6262 57.0955 82.7111 56.9979 82.7111C56.9766 82.7111 56.9512 82.7069 56.9257 82.6942L55.9958 82.2568L55.0658 82.6942C55.0403 82.7069 55.0191 82.7111 54.9936 82.7111C54.9002 82.7111 54.8153 82.6262 54.828 82.5243L54.9554 81.5009L54.2505 80.7494C54.1614 80.6559 54.2123 80.4988 54.3397 80.4733L55.3503 80.278L55.8471 79.3778C55.8769 79.3226 55.9363 79.2929 55.9915 79.2929M56 79.0806C55.8641 79.0806 55.7367 79.157 55.6688 79.2759L55.2187 80.0912L54.3057 80.2653C54.1699 80.2908 54.0594 80.3884 54.017 80.5201C53.9745 80.6517 54.0085 80.7961 54.1019 80.8937L54.7389 81.5731L54.6242 82.4946C54.6115 82.6007 54.6454 82.7111 54.7134 82.7918C54.7856 82.8725 54.8875 82.9192 54.9979 82.9192C55.0531 82.9192 55.1083 82.9065 55.1592 82.881L56 82.4861L56.8408 82.881C56.8917 82.9065 56.9469 82.9192 57.0021 82.9192C57.1125 82.9192 57.2144 82.8725 57.2866 82.7918C57.3588 82.7111 57.3928 82.6007 57.3758 82.4946L57.2611 81.5731L57.8981 80.8937C57.9915 80.7918 58.0255 80.6474 57.983 80.5201C57.9406 80.3884 57.8301 80.2908 57.6943 80.2653L56.7813 80.0912L56.3312 79.2759C56.2633 79.157 56.1359 79.0806 56 79.0806Z" fill="#213743"/>
<path d="M56 79.8152V80.9744C56 81.0678 56.0892 81.1315 56.1784 81.106L57.2187 80.7706C57.2739 80.7536 57.2697 80.6729 57.2102 80.6602L56.5563 80.5413C56.4969 80.5286 56.4417 80.4903 56.4119 80.4351L56.085 79.7939C56.0637 79.7515 55.9958 79.7642 55.9958 79.8152H56Z" fill="#FFEBB8"/>
<path d="M56 81.4924V82.0699C56 82.1039 56.017 82.1294 56.0467 82.1464L56.7983 82.5073C56.8366 82.5243 56.8705 82.4818 56.845 82.4479L56.0935 81.4627C56.0637 81.4245 56 81.4457 56 81.4924Z" fill="#FF7F00"/>
<rect x="13" y="62" width="37" height="13" rx="6.5" fill="#2F4553"/>
<path d="M29.0952 70.072C28.3872 70.072 27.8532 69.856 27.4812 69.49L28.0452 68.77C28.3212 69.022 28.6992 69.16 29.0832 69.16C29.5212 69.16 29.7372 68.944 29.7372 68.698C29.7372 68.428 29.5272 68.236 29.1132 68.236C28.7952 68.236 28.5432 68.326 28.3212 68.536L27.6072 68.362V65.998H30.5112V66.898H28.6392V67.672C28.8312 67.486 29.1432 67.354 29.4972 67.354C30.1752 67.354 30.7872 67.852 30.7872 68.656C30.7872 69.52 30.1332 70.072 29.0952 70.072ZM32.8163 70.072C31.6463 70.072 31.1003 69.058 31.1003 68.002C31.1003 66.946 31.6463 65.938 32.8163 65.938C33.9863 65.938 34.5323 66.946 34.5323 68.002C34.5323 69.058 33.9863 70.072 32.8163 70.072ZM32.8163 69.16C33.2963 69.16 33.4883 68.71 33.4883 68.002C33.4883 67.294 33.2963 66.85 32.8163 66.85C32.3363 66.85 32.1443 67.294 32.1443 68.002C32.1443 68.71 32.3363 69.16 32.8163 69.16ZM37.7965 70H36.7825L36.2245 69.124L35.6605 70H34.6525L35.6425 68.512L34.7125 67.102H35.7265L36.2245 67.888L36.7165 67.102H37.7305L36.8065 68.512L37.7965 70Z" fill="white"/>
<path d="M7.69 11H5.33V7.665H7.69V8.29H6.04V8.995H7.655V9.62H6.04V10.375H7.69V11ZM9.61004 11.06C9.32504 11.06 9.06004 10.94 8.86504 10.69V11.92H8.23004V8.585H8.86504V8.89C9.05004 8.655 9.31504 8.525 9.61004 8.525C10.23 8.525 10.68 8.985 10.68 9.79C10.68 10.595 10.23 11.06 9.61004 11.06ZM9.41004 10.495C9.77504 10.495 10.02 10.21 10.02 9.79C10.02 9.375 9.77504 9.09 9.41004 9.09C9.20504 9.09 8.97004 9.21 8.86504 9.365V10.22C8.97004 10.37 9.20504 10.495 9.41004 10.495ZM11.4601 8.325C11.2551 8.325 11.0801 8.155 11.0801 7.945C11.0801 7.735 11.2551 7.57 11.4601 7.57C11.6701 7.57 11.8401 7.735 11.8401 7.945C11.8401 8.155 11.6701 8.325 11.4601 8.325ZM11.7801 11H11.1451V8.585H11.7801V11ZM13.5347 11.06C12.7897 11.06 12.2547 10.535 12.2547 9.79C12.2547 9.05 12.7897 8.525 13.5347 8.525C14.0297 8.525 14.3297 8.74 14.4897 8.96L14.0747 9.35C13.9597 9.18 13.7847 9.09 13.5647 9.09C13.1797 9.09 12.9097 9.37 12.9097 9.79C12.9097 10.21 13.1797 10.495 13.5647 10.495C13.7847 10.495 13.9597 10.395 14.0747 10.235L14.4897 10.62C14.3297 10.845 14.0297 11.06 13.5347 11.06Z" fill="#05080A"/>
<path d="M48.678 11H48.226L46.834 9.096V11H46.366V8.332H46.846L48.21 10.184V8.332H48.678V11ZM50.1049 11.048C49.4929 11.048 49.1129 10.588 49.1129 10.032C49.1129 9.48 49.4929 9.02 50.1049 9.02C50.7249 9.02 51.1009 9.48 51.1009 10.032C51.1009 10.588 50.7249 11.048 50.1049 11.048ZM50.1049 10.676C50.4649 10.676 50.6649 10.376 50.6649 10.032C50.6649 9.692 50.4649 9.392 50.1049 9.392C49.7489 9.392 49.5489 9.692 49.5489 10.032C49.5489 10.376 49.7489 10.676 50.1049 10.676ZM51.7224 11.044C51.5704 11.044 51.4424 10.916 51.4424 10.764C51.4424 10.612 51.5704 10.484 51.7224 10.484C51.8744 10.484 52.0024 10.612 52.0024 10.764C52.0024 10.916 51.8744 11.044 51.7224 11.044ZM55.3742 11H53.4422V10.632C54.4782 9.848 54.8822 9.5 54.8822 9.116C54.8822 8.836 54.6422 8.708 54.3982 8.708C54.0862 8.708 53.8462 8.836 53.6782 9.028L53.4062 8.72C53.6422 8.436 54.0182 8.292 54.3902 8.292C54.9062 8.292 55.3582 8.584 55.3582 9.116C55.3582 9.608 54.9062 10.048 54.1902 10.588H55.3742V11ZM57.7531 11H55.8211V10.632C56.8571 9.848 57.2611 9.5 57.2611 9.116C57.2611 8.836 57.0211 8.708 56.7771 8.708C56.4651 8.708 56.2251 8.836 56.0571 9.028L55.7851 8.72C56.0211 8.436 56.3971 8.292 56.7691 8.292C57.2851 8.292 57.7371 8.584 57.7371 9.116C57.7371 9.608 57.2851 10.048 56.5691 10.588H57.7531V11Z" fill="white"/>
<defs>
<linearGradient id="paint0_linear_26835_29185" x1="37.8344" y1="86.256" x2="23.263" y2="1.76" gradientUnits="userSpaceOnUse">
<stop stop-color="#55EEFF"/>
<stop offset="0.09" stop-color="#6CABFF"/>
<stop offset="0.23" stop-color="#8C4FFF"/>
<stop offset="0.32" stop-color="#A016FF"/>
<stop offset="0.37" stop-color="#A800FF"/>
<stop offset="0.44" stop-color="#C043D4"/>
<stop offset="0.51" stop-color="#D680AF"/>
<stop offset="0.58" stop-color="#E8B091"/>
<stop offset="0.64" stop-color="#F4D27B"/>
<stop offset="0.69" stop-color="#FCE76E"/>
<stop offset="0.72" stop-color="#FFEF6A"/>
<stop offset="0.81" stop-color="#BCF589"/>
<stop offset="0.9" stop-color="#84FAA3"/>
<stop offset="0.97" stop-color="#62FDB3"/>
<stop offset="1" stop-color="#55FFBA"/>
</linearGradient>
<linearGradient id="paint1_linear_26835_29185" x1="31.5" y1="99.9802" x2="31.5" y2="31.0502" gradientUnits="userSpaceOnUse">
<stop stop-color="#E9627D"/>
<stop offset="1" stop-color="#E9113C"/>
</linearGradient>
<linearGradient id="paint2_linear_26835_29185" x1="57.77" y1="86.3601" x2="26.53" y2="13.7601" gradientUnits="userSpaceOnUse">
<stop stop-color="#55EEFF"/>
<stop offset="0.09" stop-color="#6CABFF"/>
<stop offset="0.23" stop-color="#8C4FFF"/>
<stop offset="0.32" stop-color="#A016FF"/>
<stop offset="0.37" stop-color="#A800FF"/>
<stop offset="0.44" stop-color="#C043D4"/>
<stop offset="0.51" stop-color="#D680AF"/>
<stop offset="0.58" stop-color="#E8B091"/>
<stop offset="0.64" stop-color="#F4D27B"/>
<stop offset="0.69" stop-color="#FCE76E"/>
<stop offset="0.72" stop-color="#FFEF6A"/>
<stop offset="0.81" stop-color="#BCF589"/>
<stop offset="0.9" stop-color="#84FAA3"/>
<stop offset="0.97" stop-color="#62FDB3"/>
<stop offset="1" stop-color="#55FFBA"/>
</linearGradient>
<linearGradient id="paint3_linear_26835_29185" x1="51.08" y1="89.51" x2="19.74" y2="16.67" gradientUnits="userSpaceOnUse">
<stop stop-color="#55EEFF"/>
<stop offset="0.09" stop-color="#6CABFF"/>
<stop offset="0.23" stop-color="#8C4FFF"/>
<stop offset="0.32" stop-color="#A016FF"/>
<stop offset="0.37" stop-color="#A800FF"/>
<stop offset="0.44" stop-color="#C043D4"/>
<stop offset="0.51" stop-color="#D680AF"/>
<stop offset="0.58" stop-color="#E8B091"/>
<stop offset="0.64" stop-color="#F4D27B"/>
<stop offset="0.69" stop-color="#FCE76E"/>
<stop offset="0.72" stop-color="#FFEF6A"/>
<stop offset="0.81" stop-color="#BCF589"/>
<stop offset="0.9" stop-color="#84FAA3"/>
<stop offset="0.97" stop-color="#62FDB3"/>
<stop offset="1" stop-color="#55FFBA"/>
</linearGradient>
<clipPath id="clip0_26835_29185">
<rect width="63" height="88" fill="white"/>
</clipPath>
<clipPath id="clip1_26835_29185">
<rect width="63" height="88" fill="white"/>
</clipPath>
</defs>
</svg>
