<svg width="63" height="88" viewBox="0 0 63 88" fill="none" xmlns="http://www.w3.org/2000/svg">
<rect width="63" height="88" rx="4" fill="url(#paint0_linear_26835_29186)"/>
<g clip-path="url(#clip0_26835_29186)">
<g clip-path="url(#clip1_26835_29186)">
<path d="M62.94 7.03V81.48C62.94 84.81 60.23 87.51 56.9 87.51H7.03C3.7 87.51 1 84.81 1 81.48V7.03C1 3.7 3.7 1 7.03 1H56.9C60.23 1 62.94 3.7 62.94 7.03Z" fill="url(#paint1_linear_26835_29186)"/>
<path d="M44.7799 0.75H17.3799C16.8699 0.93 16.3499 1.13 15.8399 1.34C9.55991 4.03 4.44991 7.9 0.529907 12.5V24.11C2.21991 21.02 4.42991 18.11 7.18991 15.5C23.5599 -0.309999 49.6299 3.31 62.4699 19.07V14.18C57.9299 8.1 51.7999 3.42 44.7799 0.75ZM18.0099 74C10.0999 70.59 4.16991 64.77 0.529907 57.88V66.43C4.57991 71.15 9.88991 75.07 16.4599 77.72C34.1099 84.77 52.2399 78.18 62.4699 64.74V62.83C52.4399 75.46 34.2399 81.05 18.0099 74Z" fill="#45A7FF"/>
<path fill-rule="evenodd" clip-rule="evenodd" d="M6.29991 70.5403L8.78991 70.6903C9.45991 70.7303 9.89991 71.4103 9.67991 72.0303C9.26991 73.1603 8.39991 74.1303 7.17991 74.6603C6.18991 75.0903 5.05991 75.1203 4.03991 74.7803C1.11991 73.7903 0.0999082 70.3903 1.67991 67.9903C2.79991 66.3003 4.89991 65.6103 6.75991 66.1603C7.39991 66.3503 7.66991 67.1203 7.29991 67.6803L5.91991 69.7603C5.70991 70.0803 5.91991 70.5103 6.30991 70.5303L6.29991 70.5403Z" fill="#55DFFF"/>
<path d="M1.95993 38.6802C3.60993 13.0702 35.0099 1.31022 52.9899 20.0002C64.7899 32.1402 63.5399 52.8202 50.3499 63.4402C30.2299 79.8202 0.469931 64.3102 1.95993 38.6802ZM1.95993 38.6802C0.889931 53.6902 13.3199 66.9702 28.3399 66.7902C42.1499 66.9502 54.1399 55.4502 54.7799 41.9102C55.8099 28.3902 45.3099 15.5002 31.5599 13.9802C16.6699 11.9802 2.71993 23.6502 1.95993 38.6902V38.6802Z" fill="#45A7FF"/>
<path fill-rule="evenodd" clip-rule="evenodd" d="M53.1636 59.083L54.3838 54.6008C54.5168 54.1272 55.0174 53.866 55.4476 54.0701C57.6768 55.1233 59.249 57.5971 58.9674 60.724C58.9674 60.7811 58.9517 60.8383 58.9361 60.8954C57.6064 66.39 51.7479 67.4269 48.6739 64.1122C46.6012 61.8751 46.4604 58.3808 48.2125 55.9724C48.5019 55.5805 49.065 55.556 49.3935 55.907L52.4988 59.2544C52.71 59.483 53.0698 59.385 53.1558 59.083H53.1636Z" fill="#55DFFF"/>
<path d="M3.92993 1.3501C2.85993 1.3501 1.42993 3.4401 1.42993 4.5001L1.99993 18.1901C1.99993 16.4301 3.42993 15.0001 5.18993 15.0001H33.5899C34.7999 15.0001 35.9399 14.4501 36.6999 13.5101L44.7999 3.4801C45.5599 2.5401 46.6999 1.9901 47.9099 1.9901L3.92993 1.3501Z" fill="url(#paint2_linear_26835_29186)"/>
<path fill-rule="evenodd" clip-rule="evenodd" d="M44.6122 51.4316L44.2182 53.916C44.2182 53.916 42.1607 52.2634 44.6122 51.4316Z" fill="#FFE4CD"/>
<path fill-rule="evenodd" clip-rule="evenodd" d="M47.9939 49.5387C47.9939 49.5387 54.0679 45.1938 56.9462 40.8818C59.8245 36.5699 60.3279 30.3974 59.9449 28.8105C59.5619 27.2236 50.1937 37.6205 50.1937 37.6205C50.1937 37.6205 53.5316 22.6927 52.4482 21.0949C52.1746 20.6899 45.422 24.7283 44.1854 30.277C43.3317 34.1184 42.0403 45.7739 43.4412 50.1844C44.065 52.1434 47.9939 49.5387 47.9939 49.5387Z" fill="url(#paint3_linear_26835_29186)"/>
<path fill-rule="evenodd" clip-rule="evenodd" d="M51.4085 36.9307C51.4085 36.9307 51.4085 36.8103 51.4195 36.7446C51.4195 36.6571 51.4194 36.5367 51.4304 36.3944C51.4851 32.2357 50.0514 28.2629 47.5343 25.111C45.1485 22.1233 41.7996 19.8907 37.794 18.9385C28.2726 16.684 18.7074 22.561 16.4529 32.0824C14.877 38.7365 17.2737 45.4124 22.1111 49.604C24.1904 51.3988 26.7404 52.745 29.6078 53.4344C39.0088 55.667 48.4317 49.9652 50.8504 40.6626C50.8941 40.5423 50.927 40.4 50.9598 40.2686C51.2225 39.1523 51.3757 38.0251 51.4195 36.9197L51.4085 36.9307Z" fill="#B59FFF"/>
<path d="M50.8503 40.6625C48.4317 49.9651 39.0088 55.656 29.6078 53.4343C26.7404 52.7558 24.1904 51.4097 22.111 49.6039L18.3353 33.9976L39.9171 37.6529C42.0184 33.9866 50.8285 34.9606 50.8503 40.6625Z" fill="#AB86F5"/>
<path fill-rule="evenodd" clip-rule="evenodd" d="M48.8147 36.6025C49.0336 34.4575 47.4686 29.3028 46.2866 27.8253C44.6231 25.7459 46.6697 24.1153 47.5343 25.1112C50.0514 28.2631 51.4851 32.2358 51.4304 36.3946C51.4304 36.5259 51.4194 36.6463 51.4194 36.7448C51.4194 36.8105 51.4194 36.8761 51.4085 36.9308C51.2443 38.5177 48.5849 38.6819 48.8038 36.6025H48.8147Z" fill="white"/>
<path d="M33.7009 51.2893C42.042 51.2893 48.8038 44.5275 48.8038 36.1864C48.8038 27.8453 42.042 21.0835 33.7009 21.0835C25.3598 21.0835 18.598 27.8453 18.598 36.1864C18.598 44.5275 25.3598 51.2893 33.7009 51.2893Z" fill="#9367E0"/>
<path fill-rule="evenodd" clip-rule="evenodd" d="M46.8448 39.3055C45.1265 46.5724 37.8377 51.0486 30.5818 49.3303C23.7526 47.7106 19.375 41.1769 20.3271 34.3478C20.3928 33.921 20.4694 33.5051 20.5679 33.0783C22.2861 25.8223 29.564 21.3462 36.809 23.0644C42.9268 24.52 47.0855 29.9373 47.2059 35.9566C47.2278 37.0619 47.1074 38.1782 46.8338 39.3164L46.8448 39.3055Z" fill="#B59FFF"/>
<path d="M46.8448 39.3058C45.1265 46.5727 37.8377 51.0489 30.5818 49.3307C23.7526 47.7109 19.375 41.1773 20.3271 34.3481L39.9171 37.6642C41.121 35.5629 44.5246 34.9938 47.2059 35.9569C47.2278 37.0623 47.1074 38.1786 46.8338 39.3168L46.8448 39.3058Z" fill="#AB86F5"/>
<path d="M33.7009 42.567C37.2247 42.567 40.0813 39.7104 40.0813 36.1866C40.0813 32.6628 37.2247 29.8062 33.7009 29.8062C30.1771 29.8062 27.3204 32.6628 27.3204 36.1866C27.3204 39.7104 30.1771 42.567 33.7009 42.567Z" fill="#9367E0"/>
<path fill-rule="evenodd" clip-rule="evenodd" d="M38.385 37.2921C37.7721 39.8749 35.1783 41.4837 32.5846 40.8708C29.9908 40.258 28.393 37.6642 29.0059 35.0704C29.6187 32.4767 32.2125 30.8788 34.8062 31.4917C36.1852 31.82 37.2796 32.6956 37.9034 33.8447C38.4725 34.8516 38.6695 36.0664 38.385 37.2921Z" fill="#CCBDFF"/>
<path d="M38.385 37.2917C38.0566 38.4408 36.8966 37.7294 37.1592 36.9962C37.4109 36.2739 37.1155 35.2342 36.7981 34.4462C36.4807 33.6582 37.5423 33.2752 37.9034 33.8443C38.4725 34.8511 38.6695 36.0659 38.385 37.2917Z" fill="white"/>
<path d="M33.7009 39.7324C35.6592 39.7324 37.2468 38.1449 37.2468 36.1865C37.2468 34.2282 35.6592 32.6406 33.7009 32.6406C31.7425 32.6406 30.155 34.2282 30.155 36.1865C30.155 38.1449 31.7425 39.7324 33.7009 39.7324Z" fill="url(#paint4_linear_26835_29186)"/>
<path fill-rule="evenodd" clip-rule="evenodd" d="M24.6282 39.9298C24.6282 39.9298 21.6295 47.4922 28.973 51.8042L17.416 51.6072L17.5145 34.6328L25.252 36.3948L24.6282 39.9298Z" fill="#1A2C38"/>
<path fill-rule="evenodd" clip-rule="evenodd" d="M13.115 48.7505C13.115 48.7505 13.4105 57.5715 14.5049 59.5414C15.5993 61.5113 18.598 52.2526 18.598 52.2526L13.115 48.7505Z" fill="#FFEBB8"/>
<path d="M28.973 30.0249C28.973 30.0249 33.4163 39.5244 31.2384 45.675C30.352 48.1812 27.6378 44.0991 27.6378 44.0991C27.6378 44.0991 25.5147 44.9636 24.5735 40.3671C24.5735 40.3671 22.7786 41.6257 22.9537 35.9019C23.1288 30.1781 28.973 30.0249 28.973 30.0249Z" fill="#1A2C38"/>
<path d="M28.1084 26.917C28.1084 26.917 32.5518 36.4165 30.3739 42.5671C29.4874 45.0733 26.7733 40.9911 26.7733 40.9911C26.7733 40.9911 24.6501 41.8557 23.7089 37.2592C23.7089 37.2592 21.9141 38.5178 22.0892 32.794C22.2643 27.0702 28.1084 26.917 28.1084 26.917Z" fill="#FFEBB8"/>
<path d="M15.5555 19.7923C15.5555 19.7923 5.5854 19.3984 0.441658 24.4436C-1.46262 26.3041 3.40752 27.0264 3.40752 27.0264C3.40752 27.0264 3.53885 29.3137 8.09161 28.1974C8.09161 28.1974 7.71951 30.3534 12.8195 27.7487C17.9194 25.144 15.5555 19.7923 15.5555 19.7923Z" fill="#FFEBB8"/>
<path fill-rule="evenodd" clip-rule="evenodd" d="M25.3833 14.3312C25.3833 14.3312 28.2288 12.2409 30.8663 14.8018C34.1167 17.9756 31.1728 20.3943 31.1728 20.3943L25.3833 14.3312Z" fill="#FFEBB8"/>
<path fill-rule="evenodd" clip-rule="evenodd" d="M23.8512 48.5315C23.8512 48.5315 34.1058 50.1293 34.1058 51.7271C34.1058 53.325 27.3642 54.3209 27.3642 54.3209L23.8512 48.5205V48.5315Z" fill="#1A2C38"/>
<path fill-rule="evenodd" clip-rule="evenodd" d="M23.4462 46.4851C23.4462 46.4851 33.7009 48.0829 33.7009 49.6808C33.7009 51.2786 26.9593 52.2745 26.9593 52.2745L23.4462 46.4741V46.4851Z" fill="#FFEBB8"/>
<path fill-rule="evenodd" clip-rule="evenodd" d="M32.3657 52.4605C26.7514 51.3113 22.5598 46.485 22.3737 40.7502C22.2752 37.9048 23.1507 34.6215 26.3574 31.6447C34.6092 23.9619 32.4533 19.1246 29.5531 15.9727C25.4709 11.5513 16.5514 14.0028 11.3749 22.977C8.17916 28.5147 5.64012 38.047 10.9043 47.3277C14.0233 52.8326 19.2109 56.8491 25.2411 58.7424C31.5011 60.7123 40.2455 61.1282 46.801 52.2306C46.801 52.2306 49.9529 47.3495 43.4193 50.6766C39.753 52.5371 35.9225 53.1937 32.3766 52.4714L32.3657 52.4605Z" fill="#FFC201"/>
<mask id="mask0_26835_29186" style="mask-type:luminance" maskUnits="userSpaceOnUse" x="7" y="13" width="41" height="47">
<path d="M32.3657 52.4605C26.7514 51.3113 22.5598 46.485 22.3737 40.7502C22.2752 37.9048 23.1507 34.6215 26.3574 31.6447C34.6092 23.9619 32.4533 19.1246 29.5531 15.9727C25.4709 11.5513 16.5514 14.0028 11.3749 22.977C8.17916 28.5147 5.64012 38.047 10.9043 47.3277C14.0233 52.8326 19.2109 56.8491 25.2411 58.7424C31.5011 60.7123 40.2455 61.1282 46.801 52.2306C46.801 52.2306 49.9529 47.3495 43.4193 50.6766C39.753 52.5371 35.9225 53.1937 32.3766 52.4714L32.3657 52.4605Z" fill="white"/>
</mask>
<g mask="url(#mask0_26835_29186)">
<path d="M43.266 57.4731C44.8073 57.4731 46.0568 56.2236 46.0568 54.6824C46.0568 53.1411 44.8073 51.8916 43.266 51.8916C41.7248 51.8916 40.4753 53.1411 40.4753 54.6824C40.4753 56.2236 41.7248 57.4731 43.266 57.4731Z" fill="#FFC201"/>
<path d="M42.8064 56.2801C43.9065 56.2801 44.7982 55.3883 44.7982 54.2882C44.7982 53.1882 43.9065 52.2964 42.8064 52.2964C41.7063 52.2964 40.8146 53.1882 40.8146 54.2882C40.8146 55.3883 41.7063 56.2801 42.8064 56.2801Z" fill="url(#paint5_radial_26835_29186)"/>
<path d="M40.8474 53.3579C42.3887 53.3579 43.6381 52.1084 43.6381 50.5671C43.6381 49.0258 42.3887 47.7764 40.8474 47.7764C39.3061 47.7764 38.0566 49.0258 38.0566 50.5671C38.0566 52.1084 39.3061 53.3579 40.8474 53.3579Z" fill="#FFC201"/>
<path d="M40.8474 52.5589C41.9474 52.5589 42.8392 51.6671 42.8392 50.567C42.8392 49.467 41.9474 48.5752 40.8474 48.5752C39.7473 48.5752 38.8556 49.467 38.8556 50.567C38.8556 51.6671 39.7473 52.5589 40.8474 52.5589Z" fill="url(#paint6_radial_26835_29186)"/>
<path d="M40.6504 56.6084C42.1917 56.6084 43.4411 55.3589 43.4411 53.8176C43.4411 52.2763 42.1917 51.0269 40.6504 51.0269C39.1091 51.0269 37.8596 52.2763 37.8596 53.8176C37.8596 55.3589 39.1091 56.6084 40.6504 56.6084Z" fill="#FFC201"/>
<path d="M42.8611 59.8369C44.4024 59.8369 45.6518 58.5874 45.6518 57.0461C45.6518 55.5048 44.4024 54.2554 42.8611 54.2554C41.3198 54.2554 40.0703 55.5048 40.0703 57.0461C40.0703 58.5874 41.3198 59.8369 42.8611 59.8369Z" fill="#FFC201"/>
<path d="M42.8611 59.0379C43.9612 59.0379 44.8529 58.1461 44.8529 57.046C44.8529 55.946 43.9612 55.0542 42.8611 55.0542C41.761 55.0542 40.8693 55.946 40.8693 57.046C40.8693 58.1461 41.761 59.0379 42.8611 59.0379Z" fill="url(#paint7_radial_26835_29186)"/>
<path d="M40.6504 55.8093C41.7505 55.8093 42.6422 54.9176 42.6422 53.8175C42.6422 52.7175 41.7505 51.8257 40.6504 51.8257C39.5503 51.8257 38.6586 52.7175 38.6586 53.8175C38.6586 54.9176 39.5503 55.8093 40.6504 55.8093Z" fill="url(#paint8_radial_26835_29186)"/>
<path d="M40.2783 59.2461C41.8196 59.2461 43.069 57.9966 43.069 56.4553C43.069 54.914 41.8196 53.6646 40.2783 53.6646C38.737 53.6646 37.4875 54.914 37.4875 56.4553C37.4875 57.9966 38.737 59.2461 40.2783 59.2461Z" fill="#FFC201"/>
<path d="M40.2783 58.447C41.3784 58.447 42.2701 57.5553 42.2701 56.4552C42.2701 55.3552 41.3784 54.4634 40.2783 54.4634C39.1782 54.4634 38.2865 55.3552 38.2865 56.4552C38.2865 57.5553 39.1782 58.447 40.2783 58.447Z" fill="url(#paint9_radial_26835_29186)"/>
<path d="M38.188 54.956C39.7292 54.956 40.9787 53.7066 40.9787 52.1653C40.9787 50.624 39.7292 49.3745 38.188 49.3745C36.6467 49.3745 35.3972 50.624 35.3972 52.1653C35.3972 53.7066 36.6467 54.956 38.188 54.956Z" fill="#FFC201"/>
<path d="M38.188 54.157C39.288 54.157 40.1798 53.2652 40.1798 52.1652C40.1798 51.0651 39.288 50.1733 38.188 50.1733C37.0879 50.1733 36.1961 51.0651 36.1961 52.1652C36.1961 53.2652 37.0879 54.157 38.188 54.157Z" fill="url(#paint10_radial_26835_29186)"/>
<path d="M39.753 61.6425C41.2942 61.6425 42.5437 60.3931 42.5437 58.8518C42.5437 57.3105 41.2942 56.061 39.753 56.061C38.2117 56.061 36.9622 57.3105 36.9622 58.8518C36.9622 60.3931 38.2117 61.6425 39.753 61.6425Z" fill="#FFC201"/>
<path d="M39.753 60.844C40.853 60.844 41.7448 59.9522 41.7448 58.8522C41.7448 57.7521 40.853 56.8604 39.753 56.8604C38.6529 56.8604 37.7611 57.7521 37.7611 58.8522C37.7611 59.9522 38.6529 60.844 39.753 60.844Z" fill="url(#paint11_radial_26835_29186)"/>
<path d="M38.6038 57.0024C40.1451 57.0024 41.3946 55.7529 41.3946 54.2117C41.3946 52.6704 40.1451 51.4209 38.6038 51.4209C37.0625 51.4209 35.8131 52.6704 35.8131 54.2117C35.8131 55.7529 37.0625 57.0024 38.6038 57.0024Z" fill="#FFC201"/>
<path d="M38.6038 56.2034C39.7039 56.2034 40.5957 55.3116 40.5957 54.2116C40.5957 53.1115 39.7039 52.2197 38.6038 52.2197C37.5038 52.2197 36.612 53.1115 36.612 54.2116C36.612 55.3116 37.5038 56.2034 38.6038 56.2034Z" fill="url(#paint12_radial_26835_29186)"/>
<path d="M37.5094 59.9243C39.0507 59.9243 40.3002 58.6748 40.3002 57.1335C40.3002 55.5922 39.0507 54.3428 37.5094 54.3428C35.9681 54.3428 34.7187 55.5922 34.7187 57.1335C34.7187 58.6748 35.9681 59.9243 37.5094 59.9243Z" fill="#FFC201"/>
<path d="M37.5094 59.1253C38.6095 59.1253 39.5013 58.2335 39.5013 57.1334C39.5013 56.0334 38.6095 55.1416 37.5094 55.1416C36.4094 55.1416 35.5176 56.0334 35.5176 57.1334C35.5176 58.2335 36.4094 59.1253 37.5094 59.1253Z" fill="url(#paint13_radial_26835_29186)"/>
<path d="M36.3494 54.4964C37.4494 54.4964 38.3412 53.6046 38.3412 52.5045C38.3412 51.4045 37.4494 50.5127 36.3494 50.5127C35.2493 50.5127 34.3575 51.4045 34.3575 52.5045C34.3575 53.6046 35.2493 54.4964 36.3494 54.4964Z" fill="url(#paint14_radial_26835_29186)"/>
<path d="M36.3931 62.2339C37.9344 62.2339 39.1839 60.9844 39.1839 59.4431C39.1839 57.9018 37.9344 56.6523 36.3931 56.6523C34.8518 56.6523 33.6024 57.9018 33.6024 59.4431C33.6024 60.9844 34.8518 62.2339 36.3931 62.2339Z" fill="#FFC201"/>
<path d="M36.3931 61.4348C37.4932 61.4348 38.3849 60.5431 38.3849 59.443C38.3849 58.3429 37.4932 57.4512 36.3931 57.4512C35.2931 57.4512 34.4013 58.3429 34.4013 59.443C34.4013 60.5431 35.2931 61.4348 36.3931 61.4348Z" fill="url(#paint15_radial_26835_29186)"/>
<path d="M36.0101 57.4731C37.5514 57.4731 38.8008 56.2236 38.8008 54.6824C38.8008 53.1411 37.5514 51.8916 36.0101 51.8916C34.4688 51.8916 33.2193 53.1411 33.2193 54.6824C33.2193 56.2236 34.4688 57.4731 36.0101 57.4731Z" fill="#FFC201"/>
<path d="M36.0101 56.6741C37.1102 56.6741 38.0019 55.7823 38.0019 54.6823C38.0019 53.5822 37.1102 52.6904 36.0101 52.6904C34.91 52.6904 34.0183 53.5822 34.0183 54.6823C34.0183 55.7823 34.91 56.6741 36.0101 56.6741Z" fill="url(#paint16_radial_26835_29186)"/>
<path d="M35.627 52.7124C37.1683 52.7124 38.4178 51.4629 38.4178 49.9216C38.4178 48.3803 37.1683 47.1309 35.627 47.1309C34.0857 47.1309 32.8363 48.3803 32.8363 49.9216C32.8363 51.4629 34.0857 52.7124 35.627 52.7124Z" fill="#FFC201"/>
<path d="M35.627 51.9134C36.7271 51.9134 37.6189 51.0216 37.6189 49.9215C37.6189 48.8215 36.7271 47.9297 35.627 47.9297C34.527 47.9297 33.6352 48.8215 33.6352 49.9215C33.6352 51.0216 34.527 51.9134 35.627 51.9134Z" fill="url(#paint17_radial_26835_29186)"/>
<path d="M34.4779 59.6616C36.0192 59.6616 37.2687 58.4121 37.2687 56.8708C37.2687 55.3295 36.0192 54.0801 34.4779 54.0801C32.9366 54.0801 31.6872 55.3295 31.6872 56.8708C31.6872 58.4121 32.9366 59.6616 34.4779 59.6616Z" fill="#FFC201"/>
<path d="M34.4779 58.8631C35.5779 58.8631 36.4697 57.9713 36.4697 56.8712C36.4697 55.7712 35.5779 54.8794 34.4779 54.8794C33.3778 54.8794 32.4861 55.7712 32.4861 56.8712C32.4861 57.9713 33.3778 58.8631 34.4779 58.8631Z" fill="url(#paint18_radial_26835_29186)"/>
<path d="M34.0839 54.1023C35.184 54.1023 36.0758 53.2105 36.0758 52.1105C36.0758 51.0104 35.184 50.1187 34.0839 50.1187C32.9839 50.1187 32.0921 51.0104 32.0921 52.1105C32.0921 53.2105 32.9839 54.1023 34.0839 54.1023Z" fill="url(#paint19_radial_26835_29186)"/>
<path d="M32.9348 61.3035C34.0348 61.3035 34.9266 60.4117 34.9266 59.3117C34.9266 58.2116 34.0348 57.3198 32.9348 57.3198C31.8347 57.3198 30.9429 58.2116 30.9429 59.3117C30.9429 60.4117 31.8347 61.3035 32.9348 61.3035Z" fill="url(#paint20_radial_26835_29186)"/>
<path d="M32.8144 57.3305C34.3557 57.3305 35.6051 56.0811 35.6051 54.5398C35.6051 52.9985 34.3557 51.749 32.8144 51.749C31.2731 51.749 30.0236 52.9985 30.0236 54.5398C30.0236 56.0811 31.2731 57.3305 32.8144 57.3305Z" fill="#FFC201"/>
<path d="M32.8144 56.5315C33.9145 56.5315 34.8062 55.6397 34.8062 54.5397C34.8062 53.4396 33.9145 52.5479 32.8144 52.5479C31.7143 52.5479 30.8226 53.4396 30.8226 54.5397C30.8226 55.6397 31.7143 56.5315 32.8144 56.5315Z" fill="url(#paint21_radial_26835_29186)"/>
<path d="M32.705 52.5483C34.2463 52.5483 35.4957 51.2988 35.4957 49.7576C35.4957 48.2163 34.2463 46.9668 32.705 46.9668C31.1637 46.9668 29.9142 48.2163 29.9142 49.7576C29.9142 51.2988 31.1637 52.5483 32.705 52.5483Z" fill="#FFC201"/>
<path d="M32.7049 51.7493C33.805 51.7493 34.6968 50.8575 34.6968 49.7575C34.6968 48.6574 33.805 47.7656 32.7049 47.7656C31.6049 47.7656 30.7131 48.6574 30.7131 49.7575C30.7131 50.8575 31.6049 51.7493 32.7049 51.7493Z" fill="url(#paint22_radial_26835_29186)"/>
<path d="M31.6653 59.6616C33.2065 59.6616 34.456 58.4121 34.456 56.8708C34.456 55.3295 33.2065 54.0801 31.6653 54.0801C30.124 54.0801 28.8745 55.3295 28.8745 56.8708C28.8745 58.4121 30.124 59.6616 31.6653 59.6616Z" fill="#FFC201"/>
<path d="M31.6653 58.8631C32.7653 58.8631 33.6571 57.9713 33.6571 56.8712C33.6571 55.7712 32.7653 54.8794 31.6653 54.8794C30.5652 54.8794 29.6734 55.7712 29.6734 56.8712C29.6734 57.9713 30.5652 58.8631 31.6653 58.8631Z" fill="url(#paint23_radial_26835_29186)"/>
<path d="M32.6393 49.3523C33.7393 49.3523 34.6311 48.4605 34.6311 47.3605C34.6311 46.2604 33.7393 45.3687 32.6393 45.3687C31.5392 45.3687 30.6474 46.2604 30.6474 47.3605C30.6474 48.4605 31.5392 49.3523 32.6393 49.3523Z" fill="url(#paint24_radial_26835_29186)"/>
<path d="M29.5968 61.6318C31.1381 61.6318 32.3876 60.3823 32.3876 58.841C32.3876 57.2998 31.1381 56.0503 29.5968 56.0503C28.0555 56.0503 26.806 57.2998 26.806 58.841C26.806 60.3823 28.0555 61.6318 29.5968 61.6318Z" fill="#FFC201"/>
<path d="M29.5968 60.8328C30.6969 60.8328 31.5886 59.941 31.5886 58.841C31.5886 57.7409 30.6969 56.8491 29.5968 56.8491C28.4968 56.8491 27.605 57.7409 27.605 58.841C27.605 59.941 28.4968 60.8328 29.5968 60.8328Z" fill="url(#paint25_radial_26835_29186)"/>
<path d="M31.6324 52.2964C33.1737 52.2964 34.4232 51.0469 34.4232 49.5056C34.4232 47.9643 33.1737 46.7148 31.6324 46.7148C30.0911 46.7148 28.8417 47.9643 28.8417 49.5056C28.8417 51.0469 30.0911 52.2964 31.6324 52.2964Z" fill="#FFC201"/>
<path d="M31.6324 51.4973C32.7325 51.4973 33.6243 50.6056 33.6243 49.5055C33.6243 48.4054 32.7325 47.5137 31.6324 47.5137C30.5324 47.5137 29.6406 48.4054 29.6406 49.5055C29.6406 50.6056 30.5324 51.4973 31.6324 51.4973Z" fill="url(#paint26_radial_26835_29186)"/>
<path d="M30.0236 58.1406C31.5649 58.1406 32.8144 56.8911 32.8144 55.3498C32.8144 53.8085 31.5649 52.5591 30.0236 52.5591C28.4824 52.5591 27.2329 53.8085 27.2329 55.3498C27.2329 56.8911 28.4824 58.1406 30.0236 58.1406Z" fill="#FFC201"/>
<path d="M30.0237 57.3416C31.1237 57.3416 32.0155 56.4498 32.0155 55.3497C32.0155 54.2497 31.1237 53.3579 30.0237 53.3579C28.9236 53.3579 28.0318 54.2497 28.0318 55.3497C28.0318 56.4498 28.9236 57.3416 30.0237 57.3416Z" fill="url(#paint27_radial_26835_29186)"/>
<path d="M31.5558 53.9707C33.0971 53.9707 34.3466 52.7212 34.3466 51.1799C34.3466 49.6386 33.0971 48.3892 31.5558 48.3892C30.0145 48.3892 28.7651 49.6386 28.7651 51.1799C28.7651 52.7212 30.0145 53.9707 31.5558 53.9707Z" fill="#FFC201"/>
<path d="M27.6816 59.3882C29.2229 59.3882 30.4723 58.1387 30.4723 56.5974C30.4723 55.0561 29.2229 53.8066 27.6816 53.8066C26.1403 53.8066 24.8908 55.0561 24.8908 56.5974C24.8908 58.1387 26.1403 59.3882 27.6816 59.3882Z" fill="#FFC201"/>
<path d="M27.6816 58.5891C28.7816 58.5891 29.6734 57.6974 29.6734 56.5973C29.6734 55.4972 28.7816 54.6055 27.6816 54.6055C26.5815 54.6055 25.6898 55.4972 25.6898 56.5973C25.6898 57.6974 26.5815 58.5891 27.6816 58.5891Z" fill="url(#paint28_radial_26835_29186)"/>
<path d="M30.4833 55.5141C32.0246 55.5141 33.274 54.2647 33.274 52.7234C33.274 51.1821 32.0246 49.9326 30.4833 49.9326C28.942 49.9326 27.6925 51.1821 27.6925 52.7234C27.6925 54.2647 28.942 55.5141 30.4833 55.5141Z" fill="#FFC201"/>
<path d="M30.4833 54.7151C31.5833 54.7151 32.4751 53.8233 32.4751 52.7233C32.4751 51.6232 31.5833 50.7314 30.4833 50.7314C29.3832 50.7314 28.4915 51.6232 28.4915 52.7233C28.4915 53.8233 29.3832 54.7151 30.4833 54.7151Z" fill="url(#paint29_radial_26835_29186)"/>
<path d="M33.285 51.6508C34.8263 51.6508 36.0758 50.4014 36.0758 48.8601C36.0758 47.3188 34.8263 46.0693 33.285 46.0693C31.7437 46.0693 30.4942 47.3188 30.4942 48.8601C30.4942 50.4014 31.7437 51.6508 33.285 51.6508Z" fill="#FFC201"/>
<path d="M33.285 50.8518C34.385 50.8518 35.2768 49.9601 35.2768 48.86C35.2768 47.7599 34.385 46.8682 33.285 46.8682C32.1849 46.8682 31.2932 47.7599 31.2932 48.86C31.2932 49.9601 32.1849 50.8518 33.285 50.8518Z" fill="url(#paint30_radial_26835_29186)"/>
<path d="M24.9018 59.1912C26.0018 59.1912 26.8936 58.2994 26.8936 57.1994C26.8936 56.0993 26.0018 55.2075 24.9018 55.2075C23.8017 55.2075 22.9099 56.0993 22.9099 57.1994C22.9099 58.2994 23.8017 59.1912 24.9018 59.1912Z" fill="#FFC201"/>
<path d="M27.9005 56.269C29.4418 56.269 30.6912 55.0195 30.6912 53.4783C30.6912 51.937 29.4418 50.6875 27.9005 50.6875C26.3592 50.6875 25.1097 51.937 25.1097 53.4783C25.1097 55.0195 26.3592 56.269 27.9005 56.269Z" fill="#FFC201"/>
<path d="M27.9005 55.47C29.0005 55.47 29.8923 54.5782 29.8923 53.4782C29.8923 52.3781 29.0005 51.4863 27.9005 51.4863C26.8004 51.4863 25.9087 52.3781 25.9087 53.4782C25.9087 54.5782 26.8004 55.47 27.9005 55.47Z" fill="url(#paint31_radial_26835_29186)"/>
<path d="M30.8992 52.5483C32.4405 52.5483 33.6899 51.2988 33.6899 49.7576C33.6899 48.2163 32.4405 46.9668 30.8992 46.9668C29.3579 46.9668 28.1084 48.2163 28.1084 49.7576C28.1084 51.2988 29.3579 52.5483 30.8992 52.5483Z" fill="#FFC201"/>
<path d="M30.8992 51.7493C31.9992 51.7493 32.891 50.8575 32.891 49.7575C32.891 48.6574 31.9992 47.7656 30.8992 47.7656C29.7991 47.7656 28.9073 48.6574 28.9073 49.7575C28.9073 50.8575 29.7991 51.7493 30.8992 51.7493Z" fill="url(#paint32_radial_26835_29186)"/>
<path d="M24.267 59.3118C25.3671 59.3118 26.2589 58.42 26.2589 57.32C26.2589 56.2199 25.3671 55.3281 24.267 55.3281C23.167 55.3281 22.2752 56.2199 22.2752 57.32C22.2752 58.42 23.167 59.3118 24.267 59.3118Z" fill="url(#paint33_radial_26835_29186)"/>
<path d="M24.9675 56.5864C26.5087 56.5864 27.7582 55.3369 27.7582 53.7956C27.7582 52.2543 26.5087 51.0049 24.9675 51.0049C23.4262 51.0049 22.1767 52.2543 22.1767 53.7956C22.1767 55.3369 23.4262 56.5864 24.9675 56.5864Z" fill="#FFC201"/>
<path d="M24.9674 55.7874C26.0675 55.7874 26.9593 54.8956 26.9593 53.7955C26.9593 52.6955 26.0675 51.8037 24.9674 51.8037C23.8674 51.8037 22.9756 52.6955 22.9756 53.7955C22.9756 54.8956 23.8674 55.7874 24.9674 55.7874Z" fill="url(#paint34_radial_26835_29186)"/>
<path d="M27.9552 52.8657C29.4965 52.8657 30.7459 51.6162 30.7459 50.0749C30.7459 48.5336 29.4965 47.2842 27.9552 47.2842C26.4139 47.2842 25.1644 48.5336 25.1644 50.0749C25.1644 51.6162 26.4139 52.8657 27.9552 52.8657Z" fill="#FFC201"/>
<path d="M27.9552 52.0667C29.0553 52.0667 29.947 51.1749 29.947 50.0748C29.947 48.9748 29.0553 48.083 27.9552 48.083C26.8551 48.083 25.9634 48.9748 25.9634 50.0748C25.9634 51.1749 26.8551 52.0667 27.9552 52.0667Z" fill="url(#paint35_radial_26835_29186)"/>
<path d="M30.9539 49.1445C32.4952 49.1445 33.7447 47.895 33.7447 46.3537C33.7447 44.8125 32.4952 43.563 30.9539 43.563C29.4126 43.563 28.1631 44.8125 28.1631 46.3537C28.1631 47.895 29.4126 49.1445 30.9539 49.1445Z" fill="#FFC201"/>
<path d="M30.9539 48.3455C32.0539 48.3455 32.9457 47.4537 32.9457 46.3536C32.9457 45.2536 32.0539 44.3618 30.9539 44.3618C29.8538 44.3618 28.962 45.2536 28.962 46.3536C28.962 47.4537 29.8538 48.3455 30.9539 48.3455Z" fill="url(#paint36_radial_26835_29186)"/>
<path d="M21.7937 57.0464C23.335 57.0464 24.5844 55.7969 24.5844 54.2556C24.5844 52.7143 23.335 51.4648 21.7937 51.4648C20.2524 51.4648 19.0029 52.7143 19.0029 54.2556C19.0029 55.7969 20.2524 57.0464 21.7937 57.0464Z" fill="#FFC201"/>
<path d="M21.7936 56.2473C22.8937 56.2473 23.7855 55.3556 23.7855 54.2555C23.7855 53.1554 22.8937 52.2637 21.7936 52.2637C20.6936 52.2637 19.8018 53.1554 19.8018 54.2555C19.8018 55.3556 20.6936 56.2473 21.7936 56.2473Z" fill="url(#paint37_radial_26835_29186)"/>
<path d="M24.7923 53.3359C26.3336 53.3359 27.5831 52.0864 27.5831 50.5451C27.5831 49.0039 26.3336 47.7544 24.7923 47.7544C23.251 47.7544 22.0016 49.0039 22.0016 50.5451C22.0016 52.0864 23.251 53.3359 24.7923 53.3359Z" fill="#FFC201"/>
<path d="M24.7924 52.5374C25.8924 52.5374 26.7842 51.6456 26.7842 50.5455C26.7842 49.4455 25.8924 48.5537 24.7924 48.5537C23.6923 48.5537 22.8005 49.4455 22.8005 50.5455C22.8005 51.6456 23.6923 52.5374 24.7924 52.5374Z" fill="url(#paint38_radial_26835_29186)"/>
<path d="M27.791 49.6152C29.3323 49.6152 30.5818 48.3657 30.5818 46.8244C30.5818 45.2832 29.3323 44.0337 27.791 44.0337C26.2497 44.0337 25.0003 45.2832 25.0003 46.8244C25.0003 48.3657 26.2497 49.6152 27.791 49.6152Z" fill="#FFC201"/>
<path d="M27.791 48.8162C28.8911 48.8162 29.7829 47.9244 29.7829 46.8244C29.7829 45.7243 28.8911 44.8325 27.791 44.8325C26.691 44.8325 25.7992 45.7243 25.7992 46.8244C25.7992 47.9244 26.691 48.8162 27.791 48.8162Z" fill="url(#paint39_radial_26835_29186)"/>
<path d="M22.0125 54.0039C23.5538 54.0039 24.8033 52.7544 24.8033 51.2131C24.8033 49.6718 23.5538 48.4224 22.0125 48.4224C20.4712 48.4224 19.2218 49.6718 19.2218 51.2131C19.2218 52.7544 20.4712 54.0039 22.0125 54.0039Z" fill="#FFC201"/>
<path d="M22.0125 53.2049C23.1126 53.2049 24.0044 52.3131 24.0044 51.213C24.0044 50.113 23.1126 49.2212 22.0125 49.2212C20.9125 49.2212 20.0207 50.113 20.0207 51.213C20.0207 52.3131 20.9125 53.2049 22.0125 53.2049Z" fill="url(#paint40_radial_26835_29186)"/>
<path d="M25.438 50.666C26.9793 50.666 28.2288 49.4165 28.2288 47.8752C28.2288 46.3339 26.9793 45.0845 25.438 45.0845C23.8968 45.0845 22.6473 46.3339 22.6473 47.8752C22.6473 49.4165 23.8968 50.666 25.438 50.666Z" fill="#FFC201"/>
<path d="M25.4381 49.867C26.5381 49.867 27.4299 48.9752 27.4299 47.8751C27.4299 46.7751 26.5381 45.8833 25.4381 45.8833C24.338 45.8833 23.4462 46.7751 23.4462 47.8751C23.4462 48.9752 24.338 49.867 25.4381 49.867Z" fill="url(#paint41_radial_26835_29186)"/>
<path d="M19.1123 53.9492C20.6536 53.9492 21.9031 52.6997 21.9031 51.1584C21.9031 49.6171 20.6536 48.3677 19.1123 48.3677C17.571 48.3677 16.3216 49.6171 16.3216 51.1584C16.3216 52.6997 17.571 53.9492 19.1123 53.9492Z" fill="#FFC201"/>
<path d="M19.1123 53.1502C20.2124 53.1502 21.1042 52.2584 21.1042 51.1583C21.1042 50.0583 20.2124 49.1665 19.1123 49.1665C18.0123 49.1665 17.1205 50.0583 17.1205 51.1583C17.1205 52.2584 18.0123 53.1502 19.1123 53.1502Z" fill="url(#paint42_radial_26835_29186)"/>
<path d="M22.9537 51.1147C24.495 51.1147 25.7445 49.8652 25.7445 48.324C25.7445 46.7827 24.495 45.5332 22.9537 45.5332C21.4124 45.5332 20.163 46.7827 20.163 48.324C20.163 49.8652 21.4124 51.1147 22.9537 51.1147Z" fill="#FFC201"/>
<path d="M22.9537 50.3157C24.0538 50.3157 24.9455 49.4239 24.9455 48.3239C24.9455 47.2238 24.0538 46.332 22.9537 46.332C21.8537 46.332 20.9619 47.2238 20.9619 48.3239C20.9619 49.4239 21.8537 50.3157 22.9537 50.3157Z" fill="url(#paint43_radial_26835_29186)"/>
<path d="M26.7951 48.2797C28.3364 48.2797 29.5859 47.0303 29.5859 45.489C29.5859 43.9477 28.3364 42.6982 26.7951 42.6982C25.2538 42.6982 24.0043 43.9477 24.0043 45.489C24.0043 47.0303 25.2538 48.2797 26.7951 48.2797Z" fill="#FFC201"/>
<path d="M26.7951 47.4812C27.8952 47.4812 28.7869 46.5894 28.7869 45.4894C28.7869 44.3893 27.8952 43.4976 26.7951 43.4976C25.6951 43.4976 24.8033 44.3893 24.8033 45.4894C24.8033 46.5894 25.6951 47.4812 26.7951 47.4812Z" fill="url(#paint44_radial_26835_29186)"/>
<path d="M16.2778 53.5771C17.8191 53.5771 19.0686 52.3276 19.0686 50.7864C19.0686 49.2451 17.8191 47.9956 16.2778 47.9956C14.7365 47.9956 13.4871 49.2451 13.4871 50.7864C13.4871 52.3276 14.7365 53.5771 16.2778 53.5771Z" fill="#FFC201"/>
<path d="M16.2778 52.7781C17.3778 52.7781 18.2696 51.8863 18.2696 50.7863C18.2696 49.6862 17.3778 48.7944 16.2778 48.7944C15.1777 48.7944 14.2859 49.6862 14.2859 50.7863C14.2859 51.8863 15.1777 52.7781 16.2778 52.7781Z" fill="url(#paint45_radial_26835_29186)"/>
<path d="M20.3819 51.1474C21.9232 51.1474 23.1726 49.898 23.1726 48.3567C23.1726 46.8154 21.9232 45.5659 20.3819 45.5659C18.8406 45.5659 17.5911 46.8154 17.5911 48.3567C17.5911 49.898 18.8406 51.1474 20.3819 51.1474Z" fill="#FFC201"/>
<path d="M20.3818 50.3484C21.4819 50.3484 22.3737 49.4566 22.3737 48.3566C22.3737 47.2565 21.4819 46.3647 20.3818 46.3647C19.2818 46.3647 18.39 47.2565 18.39 48.3566C18.39 49.4566 19.2818 50.3484 20.3818 50.3484Z" fill="url(#paint46_radial_26835_29186)"/>
<path d="M24.4969 48.7065C26.0382 48.7065 27.2876 47.457 27.2876 45.9158C27.2876 44.3745 26.0382 43.125 24.4969 43.125C22.9556 43.125 21.7061 44.3745 21.7061 45.9158C21.7061 47.457 22.9556 48.7065 24.4969 48.7065Z" fill="#FFC201"/>
<path d="M24.4968 47.908C25.5969 47.908 26.4887 47.0162 26.4887 45.9161C26.4887 44.8161 25.5969 43.9243 24.4968 43.9243C23.3968 43.9243 22.505 44.8161 22.505 45.9161C22.505 47.0162 23.3968 47.908 24.4968 47.908Z" fill="url(#paint47_radial_26835_29186)"/>
<path d="M13.1149 51.5415C14.6562 51.5415 15.9057 50.292 15.9057 48.7507C15.9057 47.2094 14.6562 45.96 13.1149 45.96C11.5737 45.96 10.3242 47.2094 10.3242 48.7507C10.3242 50.292 11.5737 51.5415 13.1149 51.5415Z" fill="#FFC201"/>
<path d="M13.115 50.7425C14.215 50.7425 15.1068 49.8507 15.1068 48.7506C15.1068 47.6506 14.215 46.7588 13.115 46.7588C12.0149 46.7588 11.1231 47.6506 11.1231 48.7506C11.1231 49.8507 12.0149 50.7425 13.115 50.7425Z" fill="url(#paint48_radial_26835_29186)"/>
<path d="M17.613 50.2168C19.1543 50.2168 20.4037 48.9673 20.4037 47.426C20.4037 45.8847 19.1543 44.6353 17.613 44.6353C16.0717 44.6353 14.8222 45.8847 14.8222 47.426C14.8222 48.9673 16.0717 50.2168 17.613 50.2168Z" fill="#FFC201"/>
<path d="M17.613 49.4182C18.7131 49.4182 19.6048 48.5265 19.6048 47.4264C19.6048 46.3263 18.7131 45.4346 17.613 45.4346C16.5129 45.4346 15.6212 46.3263 15.6212 47.4264C15.6212 48.5265 16.5129 49.4182 17.613 49.4182Z" fill="url(#paint49_radial_26835_29186)"/>
<path d="M21.9797 48.269C23.521 48.269 24.7704 47.0195 24.7704 45.4783C24.7704 43.937 23.521 42.6875 21.9797 42.6875C20.4384 42.6875 19.1889 43.937 19.1889 45.4783C19.1889 47.0195 20.4384 48.269 21.9797 48.269Z" fill="#FFC201"/>
<path d="M21.9797 47.47C23.0798 47.47 23.9715 46.5782 23.9715 45.4782C23.9715 44.3781 23.0798 43.4863 21.9797 43.4863C20.8796 43.4863 19.9879 44.3781 19.9879 45.4782C19.9879 46.5782 20.8796 47.47 21.9797 47.47Z" fill="url(#paint50_radial_26835_29186)"/>
<path d="M26.3355 45.533C27.4355 45.533 28.3273 44.6412 28.3273 43.5411C28.3273 42.4411 27.4355 41.5493 26.3355 41.5493C25.2354 41.5493 24.3436 42.4411 24.3436 43.5411C24.3436 44.6412 25.2354 45.533 26.3355 45.533Z" fill="url(#paint51_radial_26835_29186)"/>
<path d="M14.1328 48.5097C15.6741 48.5097 16.9235 47.2603 16.9235 45.719C16.9235 44.1777 15.6741 42.9282 14.1328 42.9282C12.5915 42.9282 11.342 44.1777 11.342 45.719C11.342 47.2603 12.5915 48.5097 14.1328 48.5097Z" fill="#FFC201"/>
<path d="M14.1327 47.7107C15.2328 47.7107 16.1246 46.8189 16.1246 45.7189C16.1246 44.6188 15.2328 43.7271 14.1327 43.7271C13.0327 43.7271 12.1409 44.6188 12.1409 45.7189C12.1409 46.8189 13.0327 47.7107 14.1327 47.7107Z" fill="url(#paint52_radial_26835_29186)"/>
<path d="M9.60188 49.3198C11.1432 49.3198 12.3926 48.0703 12.3926 46.529C12.3926 44.9877 11.1432 43.7383 9.60188 43.7383C8.06059 43.7383 6.81113 44.9877 6.81113 46.529C6.81113 48.0703 8.06059 49.3198 9.60188 49.3198Z" fill="#FFC201"/>
<path d="M9.60189 48.5208C10.702 48.5208 11.5937 47.629 11.5937 46.5289C11.5937 45.4289 10.702 44.5371 9.60189 44.5371C8.50184 44.5371 7.61006 45.4289 7.61006 46.5289C7.61006 47.629 8.50184 48.5208 9.60189 48.5208Z" fill="url(#paint53_radial_26835_29186)"/>
<path d="M18.981 47.0322C20.5223 47.0322 21.7718 45.7827 21.7718 44.2414C21.7718 42.7001 20.5223 41.4507 18.981 41.4507C17.4397 41.4507 16.1903 42.7001 16.1903 44.2414C16.1903 45.7827 17.4397 47.0322 18.981 47.0322Z" fill="#FFC201"/>
<path d="M18.981 46.2332C20.0811 46.2332 20.9729 45.3414 20.9729 44.2413C20.9729 43.1413 20.0811 42.2495 18.981 42.2495C17.881 42.2495 16.9892 43.1413 16.9892 44.2413C16.9892 45.3414 17.881 46.2332 18.981 46.2332Z" fill="url(#paint54_radial_26835_29186)"/>
<path d="M23.4243 45.27C24.9656 45.27 26.2151 44.0205 26.2151 42.4792C26.2151 40.9379 24.9656 39.6885 23.4243 39.6885C21.883 39.6885 20.6336 40.9379 20.6336 42.4792C20.6336 44.0205 21.883 45.27 23.4243 45.27Z" fill="#FFC201"/>
<path d="M23.4243 44.4715C24.5244 44.4715 25.4162 43.5797 25.4162 42.4796C25.4162 41.3796 24.5244 40.4878 23.4243 40.4878C22.3243 40.4878 21.4325 41.3796 21.4325 42.4796C21.4325 43.5797 22.3243 44.4715 23.4243 44.4715Z" fill="url(#paint55_radial_26835_29186)"/>
<path d="M11.539 46.3755C13.0803 46.3755 14.3297 45.126 14.3297 43.5847C14.3297 42.0434 13.0803 40.7939 11.539 40.7939C9.99769 40.7939 8.74823 42.0434 8.74823 43.5847C8.74823 45.126 9.99769 46.3755 11.539 46.3755Z" fill="#FFC201"/>
<path d="M11.539 45.5764C12.6391 45.5764 13.5308 44.6847 13.5308 43.5846C13.5308 42.4846 12.6391 41.5928 11.539 41.5928C10.4389 41.5928 9.54716 42.4846 9.54716 43.5846C9.54716 44.6847 10.4389 45.5764 11.539 45.5764Z" fill="url(#paint56_radial_26835_29186)"/>
<path d="M16.2231 45.4453C17.7644 45.4453 19.0138 44.1958 19.0138 42.6545C19.0138 41.1132 17.7644 39.8638 16.2231 39.8638C14.6818 39.8638 13.4323 41.1132 13.4323 42.6545C13.4323 44.1958 14.6818 45.4453 16.2231 45.4453Z" fill="#FFC201"/>
<path d="M16.2231 44.6463C17.3231 44.6463 18.2149 43.7545 18.2149 42.6544C18.2149 41.5544 17.3231 40.6626 16.2231 40.6626C15.123 40.6626 14.2312 41.5544 14.2312 42.6544C14.2312 43.7545 15.123 44.6463 16.2231 44.6463Z" fill="url(#paint57_radial_26835_29186)"/>
<path d="M20.9181 44.5151C22.4594 44.5151 23.7089 43.2656 23.7089 41.7243C23.7089 40.1831 22.4594 38.9336 20.9181 38.9336C19.3768 38.9336 18.1274 40.1831 18.1274 41.7243C18.1274 43.2656 19.3768 44.5151 20.9181 44.5151Z" fill="#FFC201"/>
<path d="M20.9181 43.7161C22.0182 43.7161 22.91 42.8243 22.91 41.7243C22.91 40.6242 22.0182 39.7324 20.9181 39.7324C19.8181 39.7324 18.9263 40.6242 18.9263 41.7243C18.9263 42.8243 19.8181 43.7161 20.9181 43.7161Z" fill="url(#paint58_radial_26835_29186)"/>
<path d="M25.6022 42.7859C26.7023 42.7859 27.594 41.8941 27.594 40.7941C27.594 39.694 26.7023 38.8022 25.6022 38.8022C24.5022 38.8022 23.6104 39.694 23.6104 40.7941C23.6104 41.8941 24.5022 42.7859 25.6022 42.7859Z" fill="url(#paint59_radial_26835_29186)"/>
<path d="M8.97806 44.0009C10.5193 44.0009 11.7688 42.7515 11.7688 41.2102C11.7688 39.6689 10.5193 38.4194 8.97806 38.4194C7.43677 38.4194 6.1873 39.6689 6.1873 41.2102C6.1873 42.7515 7.43677 44.0009 8.97806 44.0009Z" fill="#FFC201"/>
<path d="M8.97807 43.2019C10.0781 43.2019 10.9699 42.3102 10.9699 41.2101C10.9699 40.11 10.0781 39.2183 8.97807 39.2183C7.87801 39.2183 6.98624 40.11 6.98624 41.2101C6.98624 42.3102 7.87801 43.2019 8.97807 43.2019Z" fill="url(#paint60_radial_26835_29186)"/>
<path d="M13.7388 43.5849C15.2801 43.5849 16.5295 42.3355 16.5295 40.7942C16.5295 39.2529 15.2801 38.0034 13.7388 38.0034C12.1975 38.0034 10.948 39.2529 10.948 40.7942C10.948 42.3355 12.1975 43.5849 13.7388 43.5849Z" fill="#FFC201"/>
<path d="M13.7388 42.7859C14.8388 42.7859 15.7306 41.8941 15.7306 40.7941C15.7306 39.694 14.8388 38.8022 13.7388 38.8022C12.6387 38.8022 11.7469 39.694 11.7469 40.7941C11.7469 41.8941 12.6387 42.7859 13.7388 42.7859Z" fill="url(#paint61_radial_26835_29186)"/>
<path d="M18.4995 43.1689C20.0408 43.1689 21.2902 41.9195 21.2902 40.3782C21.2902 38.8369 20.0408 37.5874 18.4995 37.5874C16.9582 37.5874 15.7087 38.8369 15.7087 40.3782C15.7087 41.9195 16.9582 43.1689 18.4995 43.1689Z" fill="#FFC201"/>
<path d="M18.4995 42.3699C19.5995 42.3699 20.4913 41.4781 20.4913 40.3781C20.4913 39.278 19.5995 38.3862 18.4995 38.3862C17.3994 38.3862 16.5076 39.278 16.5076 40.3781C16.5076 41.4781 17.3994 42.3699 18.4995 42.3699Z" fill="url(#paint62_radial_26835_29186)"/>
<path d="M23.2602 42.7534C24.8015 42.7534 26.0509 41.5039 26.0509 39.9626C26.0509 38.4213 24.8015 37.1719 23.2602 37.1719C21.7189 37.1719 20.4694 38.4213 20.4694 39.9626C20.4694 41.5039 21.7189 42.7534 23.2602 42.7534Z" fill="#FFC201"/>
<path d="M23.2602 41.9544C24.3602 41.9544 25.252 41.0626 25.252 39.9625C25.252 38.8625 24.3602 37.9707 23.2602 37.9707C22.1601 37.9707 21.2683 38.8625 21.2683 39.9625C21.2683 41.0626 22.1601 41.9544 23.2602 41.9544Z" fill="url(#paint63_radial_26835_29186)"/>
<path d="M11.5718 40.9145C13.1131 40.9145 14.3626 39.6651 14.3626 38.1238C14.3626 36.5825 13.1131 35.333 11.5718 35.333C10.0305 35.333 8.78105 36.5825 8.78105 38.1238C8.78105 39.6651 10.0305 40.9145 11.5718 40.9145Z" fill="#FFC201"/>
<path d="M11.5718 40.1155C12.6719 40.1155 13.5637 39.2237 13.5637 38.1237C13.5637 37.0236 12.6719 36.1318 11.5718 36.1318C10.4718 36.1318 9.57999 37.0236 9.57999 38.1237C9.57999 39.2237 10.4718 40.1155 11.5718 40.1155Z" fill="url(#paint64_radial_26835_29186)"/>
<path d="M6.80018 40.5752C8.34148 40.5752 9.59094 39.3257 9.59094 37.7844C9.59094 36.2431 8.34148 34.9937 6.80018 34.9937C5.25889 34.9937 4.00943 36.2431 4.00943 37.7844C4.00943 39.3257 5.25889 40.5752 6.80018 40.5752Z" fill="#FFC201"/>
<path d="M6.8002 39.7761C7.90026 39.7761 8.79203 38.8844 8.79203 37.7843C8.79203 36.6843 7.90026 35.7925 6.8002 35.7925C5.70014 35.7925 4.80836 36.6843 4.80836 37.7843C4.80836 38.8844 5.70014 39.7761 6.8002 39.7761Z" fill="url(#paint65_radial_26835_29186)"/>
<path d="M16.3325 41.2426C17.8738 41.2426 19.1233 39.9932 19.1233 38.4519C19.1233 36.9106 17.8738 35.6611 16.3325 35.6611C14.7912 35.6611 13.5418 36.9106 13.5418 38.4519C13.5418 39.9932 14.7912 41.2426 16.3325 41.2426Z" fill="#FFC201"/>
<path d="M16.3325 40.4441C17.4326 40.4441 18.3244 39.5523 18.3244 38.4523C18.3244 37.3522 17.4326 36.4604 16.3325 36.4604C15.2325 36.4604 14.3407 37.3522 14.3407 38.4523C14.3407 39.5523 15.2325 40.4441 16.3325 40.4441Z" fill="url(#paint66_radial_26835_29186)"/>
<path d="M21.1042 41.582C22.6455 41.582 23.8949 40.3325 23.8949 38.7912C23.8949 37.25 22.6455 36.0005 21.1042 36.0005C19.5629 36.0005 18.3134 37.25 18.3134 38.7912C18.3134 40.3325 19.5629 41.582 21.1042 41.582Z" fill="#FFC201"/>
<path d="M21.1042 40.783C22.2042 40.783 23.096 39.8912 23.096 38.7911C23.096 37.6911 22.2042 36.7993 21.1042 36.7993C20.0041 36.7993 19.1123 37.6911 19.1123 38.7911C19.1123 39.8912 20.0041 40.783 21.1042 40.783Z" fill="url(#paint67_radial_26835_29186)"/>
<path d="M9.71133 37.9047C11.2526 37.9047 12.5021 36.6553 12.5021 35.114C12.5021 33.5727 11.2526 32.3232 9.71133 32.3232C8.17004 32.3232 6.92058 33.5727 6.92058 35.114C6.92058 36.6553 8.17004 37.9047 9.71133 37.9047Z" fill="#FFC201"/>
<path d="M9.71132 37.1057C10.8114 37.1057 11.7031 36.214 11.7031 35.1139C11.7031 34.0138 10.8114 33.1221 9.71132 33.1221C8.61126 33.1221 7.71948 34.0138 7.71948 35.1139C7.71948 36.214 8.61126 37.1057 9.71132 37.1057Z" fill="url(#paint68_radial_26835_29186)"/>
<path d="M14.4173 38.7368C15.9586 38.7368 17.208 37.4873 17.208 35.946C17.208 34.4047 15.9586 33.1553 14.4173 33.1553C12.876 33.1553 11.6265 34.4047 11.6265 35.946C11.6265 37.4873 12.876 38.7368 14.4173 38.7368Z" fill="#FFC201"/>
<path d="M14.4173 37.9378C15.5174 37.9378 16.4091 37.046 16.4091 35.9459C16.4091 34.8459 15.5174 33.9541 14.4173 33.9541C13.3173 33.9541 12.4255 34.8459 12.4255 35.9459C12.4255 37.046 13.3173 37.9378 14.4173 37.9378Z" fill="url(#paint69_radial_26835_29186)"/>
<path d="M19.2327 39.4697C20.774 39.4697 22.0235 38.2202 22.0235 36.6789C22.0235 35.1376 20.774 33.8882 19.2327 33.8882C17.6914 33.8882 16.442 35.1376 16.442 36.6789C16.442 38.2202 17.6914 39.4697 19.2327 39.4697Z" fill="#FFC201"/>
<path d="M19.2327 38.6712C20.3328 38.6712 21.2246 37.7794 21.2246 36.6793C21.2246 35.5793 20.3328 34.6875 19.2327 34.6875C18.1327 34.6875 17.2409 35.5793 17.2409 36.6793C17.2409 37.7794 18.1327 38.6712 19.2327 38.6712Z" fill="url(#paint70_radial_26835_29186)"/>
<path d="M23.8293 39.5901C24.9293 39.5901 25.8211 38.6983 25.8211 37.5983C25.8211 36.4982 24.9293 35.6064 23.8293 35.6064C22.7292 35.6064 21.8374 36.4982 21.8374 37.5983C21.8374 38.6983 22.7292 39.5901 23.8293 39.5901Z" fill="url(#paint71_radial_26835_29186)"/>
<path d="M8.11349 34.3149C9.65478 34.3149 10.9042 33.0654 10.9042 31.5242C10.9042 29.9829 9.65478 28.7334 8.11349 28.7334C6.5722 28.7334 5.32274 29.9829 5.32274 31.5242C5.32274 33.0654 6.5722 34.3149 8.11349 34.3149Z" fill="#FFC201"/>
<path d="M8.11348 33.5164C9.21353 33.5164 10.1053 32.6246 10.1053 31.5245C10.1053 30.4245 9.21353 29.5327 8.11348 29.5327C7.01342 29.5327 6.12164 30.4245 6.12164 31.5245C6.12164 32.6246 7.01342 33.5164 8.11348 33.5164Z" fill="url(#paint72_radial_26835_29186)"/>
<path d="M12.6115 35.9238C14.1528 35.9238 15.4023 34.6743 15.4023 33.133C15.4023 31.5917 14.1528 30.3423 12.6115 30.3423C11.0702 30.3423 9.82077 31.5917 9.82077 33.133C9.82077 34.6743 11.0702 35.9238 12.6115 35.9238Z" fill="#FFC201"/>
<path d="M12.6115 35.1253C13.7116 35.1253 14.6034 34.2335 14.6034 33.1334C14.6034 32.0334 13.7116 31.1416 12.6115 31.1416C11.5115 31.1416 10.6197 32.0334 10.6197 33.1334C10.6197 34.2335 11.5115 35.1253 12.6115 35.1253Z" fill="url(#paint73_radial_26835_29186)"/>
<path d="M17.1096 37.5327C18.6509 37.5327 19.9003 36.2832 19.9003 34.7419C19.9003 33.2006 18.6509 31.9512 17.1096 31.9512C15.5683 31.9512 14.3188 33.2006 14.3188 34.7419C14.3188 36.2832 15.5683 37.5327 17.1096 37.5327Z" fill="#FFC201"/>
<path d="M17.1096 36.7337C18.2096 36.7337 19.1014 35.8419 19.1014 34.7418C19.1014 33.6418 18.2096 32.75 17.1096 32.75C16.0095 32.75 15.1177 33.6418 15.1177 34.7418C15.1177 35.8419 16.0095 36.7337 17.1096 36.7337Z" fill="url(#paint74_radial_26835_29186)"/>
<path d="M11.3858 31.8857C12.9271 31.8857 14.1765 30.6362 14.1765 29.095C14.1765 27.5537 12.9271 26.3042 11.3858 26.3042C9.8445 26.3042 8.59503 27.5537 8.59503 29.095C8.59503 30.6362 9.8445 31.8857 11.3858 31.8857Z" fill="#FFC201"/>
<path d="M7.08474 30.2549C8.62604 30.2549 9.8755 29.0054 9.8755 27.4641C9.8755 25.9228 8.62604 24.6733 7.08474 24.6733C5.54345 24.6733 4.29399 25.9228 4.29399 27.4641C4.29399 29.0054 5.54345 30.2549 7.08474 30.2549Z" fill="#FFC201"/>
<path d="M11.3858 31.0867C12.4859 31.0867 13.3776 30.1949 13.3776 29.0949C13.3776 27.9948 12.4859 27.103 11.3858 27.103C10.2857 27.103 9.39397 27.9948 9.39397 29.0949C9.39397 30.1949 10.2857 31.0867 11.3858 31.0867Z" fill="url(#paint75_radial_26835_29186)"/>
<path d="M7.00814 28.9856C8.1082 28.9856 8.99998 28.0938 8.99998 26.9938C8.99998 25.8937 8.1082 25.002 7.00814 25.002C5.90809 25.002 5.01631 25.8937 5.01631 26.9938C5.01631 28.0938 5.90809 28.9856 7.00814 28.9856Z" fill="url(#paint76_radial_26835_29186)"/>
<path d="M15.6759 34.7749C17.2171 34.7749 18.4666 33.5254 18.4666 31.9841C18.4666 30.4428 17.2171 29.1934 15.6759 29.1934C14.1346 29.1934 12.8851 30.4428 12.8851 31.9841C12.8851 33.5254 14.1346 34.7749 15.6759 34.7749Z" fill="#FFC201"/>
<path d="M15.6759 33.9759C16.7759 33.9759 17.6677 33.0841 17.6677 31.984C17.6677 30.884 16.7759 29.9922 15.6759 29.9922C14.5758 29.9922 13.684 30.884 13.684 31.984C13.684 33.0841 14.5758 33.9759 15.6759 33.9759Z" fill="url(#paint77_radial_26835_29186)"/>
<path d="M19.8018 37.1826C21.3431 37.1826 22.5926 35.9331 22.5926 34.3918C22.5926 32.8505 21.3431 31.6011 19.8018 31.6011C18.2605 31.6011 17.0111 32.8505 17.0111 34.3918C17.0111 35.9331 18.2605 37.1826 19.8018 37.1826Z" fill="#FFC201"/>
<path d="M19.8018 36.3836C20.9019 36.3836 21.7937 35.4918 21.7937 34.3917C21.7937 33.2917 20.9019 32.3999 19.8018 32.3999C18.7018 32.3999 17.81 33.2917 17.81 34.3917C17.81 35.4918 18.7018 36.3836 19.8018 36.3836Z" fill="url(#paint78_radial_26835_29186)"/>
<path d="M23.9934 39.2949C25.5347 39.2949 26.7842 38.0454 26.7842 36.5041C26.7842 34.9628 25.5347 33.7134 23.9934 33.7134C22.4521 33.7134 21.2027 34.9628 21.2027 36.5041C21.2027 38.0454 22.4521 39.2949 23.9934 39.2949Z" fill="#FFC201"/>
<path d="M23.9934 38.4959C25.0935 38.4959 25.9853 37.6041 25.9853 36.504C25.9853 35.404 25.0935 34.5122 23.9934 34.5122C22.8934 34.5122 22.0016 35.404 22.0016 36.504C22.0016 37.6041 22.8934 38.4959 23.9934 38.4959Z" fill="url(#paint79_radial_26835_29186)"/>
<path d="M14.9645 30.9116C16.5058 30.9116 17.7553 29.6621 17.7553 28.1208C17.7553 26.5795 16.5058 25.3301 14.9645 25.3301C13.4232 25.3301 12.1738 26.5795 12.1738 28.1208C12.1738 29.6621 13.4232 30.9116 14.9645 30.9116Z" fill="#FFC201"/>
<path d="M14.9645 30.1126C16.0646 30.1126 16.9564 29.2208 16.9564 28.1207C16.9564 27.0207 16.0646 26.1289 14.9645 26.1289C13.8645 26.1289 12.9727 27.0207 12.9727 28.1207C12.9727 29.2208 13.8645 30.1126 14.9645 30.1126Z" fill="url(#paint80_radial_26835_29186)"/>
<path d="M11.0356 28.1972C12.5769 28.1972 13.8263 26.9478 13.8263 25.4065C13.8263 23.8652 12.5769 22.6157 11.0356 22.6157C9.49428 22.6157 8.24481 23.8652 8.24481 25.4065C8.24481 26.9478 9.49428 28.1972 11.0356 28.1972Z" fill="#FFC201"/>
<path d="M11.0356 27.3982C12.1356 27.3982 13.0274 26.5064 13.0274 25.4064C13.0274 24.3063 12.1356 23.4146 11.0356 23.4146C9.93552 23.4146 9.04375 24.3063 9.04375 25.4064C9.04375 26.5064 9.93552 27.3982 11.0356 27.3982Z" fill="url(#paint81_radial_26835_29186)"/>
<path d="M18.8934 33.6255C20.4347 33.6255 21.6842 32.376 21.6842 30.8347C21.6842 29.2934 20.4347 28.0439 18.8934 28.0439C17.3522 28.0439 16.1027 29.2934 16.1027 30.8347C16.1027 32.376 17.3522 33.6255 18.8934 33.6255Z" fill="#FFC201"/>
<path d="M18.8935 32.8269C19.9935 32.8269 20.8853 31.9352 20.8853 30.8351C20.8853 29.735 19.9935 28.8433 18.8935 28.8433C17.7934 28.8433 16.9016 29.735 16.9016 30.8351C16.9016 31.9352 17.7934 32.8269 18.8935 32.8269Z" fill="url(#paint82_radial_26835_29186)"/>
<path d="M22.8333 36.3398C24.3746 36.3398 25.6241 35.0903 25.6241 33.5491C25.6241 32.0078 24.3746 30.7583 22.8333 30.7583C21.292 30.7583 20.0426 32.0078 20.0426 33.5491C20.0426 35.0903 21.292 36.3398 22.8333 36.3398Z" fill="#FFC201"/>
<path d="M22.8334 35.5408C23.9334 35.5408 24.8252 34.649 24.8252 33.549C24.8252 32.4489 23.9334 31.5571 22.8334 31.5571C21.7333 31.5571 20.8415 32.4489 20.8415 33.549C20.8415 34.649 21.7333 35.5408 22.8334 35.5408Z" fill="url(#paint83_radial_26835_29186)"/>
<path d="M14.6252 27.4751C16.1665 27.4751 17.416 26.2256 17.416 24.6843C17.416 23.143 16.1665 21.8936 14.6252 21.8936C13.084 21.8936 11.8345 23.143 11.8345 24.6843C11.8345 26.2256 13.084 27.4751 14.6252 27.4751Z" fill="#FFC201"/>
<path d="M14.6252 26.676C15.7253 26.676 16.6171 25.7843 16.6171 24.6842C16.6171 23.5842 15.7253 22.6924 14.6252 22.6924C13.5252 22.6924 12.6334 23.5842 12.6334 24.6842C12.6334 25.7843 13.5252 26.676 14.6252 26.676Z" fill="url(#paint84_radial_26835_29186)"/>
<path d="M10.9699 24.4106C12.5112 24.4106 13.7606 23.1611 13.7606 21.6199C13.7606 20.0786 12.5112 18.8291 10.9699 18.8291C9.4286 18.8291 8.17914 20.0786 8.17914 21.6199C8.17914 23.1611 9.4286 24.4106 10.9699 24.4106Z" fill="#FFC201"/>
<path d="M10.9699 23.6116C12.07 23.6116 12.9617 22.7198 12.9617 21.6198C12.9617 20.5197 12.07 19.6279 10.9699 19.6279C9.86985 19.6279 8.97807 20.5197 8.97807 21.6198C8.97807 22.7198 9.86985 23.6116 10.9699 23.6116Z" fill="url(#paint85_radial_26835_29186)"/>
<path d="M18.2915 30.5395C19.8328 30.5395 21.0823 29.2901 21.0823 27.7488C21.0823 26.2075 19.8328 24.958 18.2915 24.958C16.7502 24.958 15.5008 26.2075 15.5008 27.7488C15.5008 29.2901 16.7502 30.5395 18.2915 30.5395Z" fill="#FFC201"/>
<path d="M18.2915 29.7405C19.3916 29.7405 20.2834 28.8487 20.2834 27.7487C20.2834 26.6486 19.3916 25.7568 18.2915 25.7568C17.1915 25.7568 16.2997 26.6486 16.2997 27.7487C16.2997 28.8487 17.1915 29.7405 18.2915 29.7405Z" fill="url(#paint86_radial_26835_29186)"/>
<path d="M21.9578 33.604C23.4991 33.604 24.7486 32.3545 24.7486 30.8132C24.7486 29.2719 23.4991 28.0225 21.9578 28.0225C20.4165 28.0225 19.1671 29.2719 19.1671 30.8132C19.1671 32.3545 20.4165 33.604 21.9578 33.604Z" fill="#FFC201"/>
<path d="M21.9578 32.805C23.0578 32.805 23.9496 31.9132 23.9496 30.8131C23.9496 29.7131 23.0578 28.8213 21.9578 28.8213C20.8577 28.8213 19.966 29.7131 19.966 30.8131C19.966 31.9132 20.8577 32.805 21.9578 32.805Z" fill="url(#paint87_radial_26835_29186)"/>
<path d="M25.6241 36.6792C27.1654 36.6792 28.4149 35.4297 28.4149 33.8884C28.4149 32.3471 27.1654 31.0977 25.6241 31.0977C24.0828 31.0977 22.8334 32.3471 22.8334 33.8884C22.8334 35.4297 24.0828 36.6792 25.6241 36.6792Z" fill="#FFC201"/>
<path d="M25.6241 35.8801C26.7241 35.8801 27.6159 34.9884 27.6159 33.8883C27.6159 32.7883 26.7241 31.8965 25.6241 31.8965C24.524 31.8965 23.6323 32.7883 23.6323 33.8883C23.6323 34.9884 24.524 35.8801 25.6241 35.8801Z" fill="url(#paint88_radial_26835_29186)"/>
<path d="M14.3298 24.1152C15.871 24.1152 17.1205 22.8657 17.1205 21.3244C17.1205 19.7832 15.871 18.5337 14.3298 18.5337C12.7885 18.5337 11.539 19.7832 11.539 21.3244C11.539 22.8657 12.7885 24.1152 14.3298 24.1152Z" fill="#FFC201"/>
<path d="M17.996 27.1797C19.5373 27.1797 20.7868 25.9302 20.7868 24.3889C20.7868 22.8476 19.5373 21.5981 17.996 21.5981C16.4548 21.5981 15.2053 22.8476 15.2053 24.3889C15.2053 25.9302 16.4548 27.1797 17.996 27.1797Z" fill="#FFC201"/>
<path d="M21.6514 30.2441C23.1927 30.2441 24.4421 28.9946 24.4421 27.4534C24.4421 25.9121 23.1927 24.6626 21.6514 24.6626C20.1101 24.6626 18.8606 25.9121 18.8606 27.4534C18.8606 28.9946 20.1101 30.2441 21.6514 30.2441Z" fill="#FFC201"/>
<path d="M25.3177 33.3086C26.859 33.3086 28.1084 32.0591 28.1084 30.5178C28.1084 28.9765 26.859 27.7271 25.3177 27.7271C23.7764 27.7271 22.5269 28.9765 22.5269 30.5178C22.5269 32.0591 23.7764 33.3086 25.3177 33.3086Z" fill="#FFC201"/>
</g>
<path fill-rule="evenodd" clip-rule="evenodd" d="M14.8004 27.4533C12.9618 30.441 11.5062 34.4466 11.7032 38.1785C12.1409 46.6602 16.0042 58.7316 28.5571 60.2966C38.9541 61.588 44.9296 54.4415 44.9296 54.4415C44.9296 54.4415 40.3987 60.4936 28.8526 58.4689C20.8634 57.0681 17.5145 49.5057 16.1356 44.2744C15.2491 40.9036 15.1506 37.3687 16.0261 33.9869C16.4748 32.2577 17.1643 30.4301 18.2259 29.0839C19.0795 28.0005 19.5501 26.2056 18.2259 25.6037C17.1205 25.1003 15.7197 25.9211 14.7785 27.4423L14.8004 27.4533Z" fill="#FFEBB8"/>
<path fill-rule="evenodd" clip-rule="evenodd" d="M19.2218 17.8114C17.7991 17.9318 16.5734 17.0234 16.1794 15.732V15.6226C16.1247 15.4693 16.0918 15.3052 16.0918 15.152C16.0918 15.0754 16.0699 14.9987 16.0809 14.9331C16.0809 14.6923 16.0918 14.4625 16.1684 14.2436C16.4311 13.0397 17.4708 12.1204 18.7403 12.011C19.6268 11.9344 20.4585 12.2627 21.0167 12.8537C21.1918 13.0179 21.3122 13.2039 21.4435 13.39C21.6843 13.7621 21.8375 14.2108 21.8813 14.6704C22.0235 16.2792 20.8087 17.691 19.2218 17.8114Z" fill="#1A2C38"/>
<path d="M20.2357 12.9794C20.3195 12.7786 20.1568 12.5195 19.8723 12.4008C19.5878 12.2821 19.2892 12.3487 19.2055 12.5495C19.1217 12.7503 19.2843 13.0093 19.5688 13.128C19.8533 13.2467 20.1519 13.1802 20.2357 12.9794Z" fill="white"/>
<path d="M19.3313 18.2384C17.7444 18.3697 16.3654 17.3628 15.9276 15.9182L15.9058 15.7978C15.851 15.6227 15.8292 15.4367 15.8182 15.2725C16.2013 14.9332 20.0536 13.215 21.8046 13.3025C22.0673 13.7184 22.2424 14.2219 22.2862 14.7362C22.4394 16.5311 21.0933 18.107 19.3203 18.2384H19.3313Z" fill="#FF7F00"/>
<path fill-rule="evenodd" clip-rule="evenodd" d="M28.2726 24.6514C29.0059 23.3381 30.5271 22.8018 31.8842 23.2177L31.9936 23.2724C32.1578 23.3271 32.311 23.4038 32.4533 23.4804C32.5189 23.5241 32.5955 23.546 32.6503 23.6008C32.8691 23.7321 33.0552 23.8962 33.1975 24.0932C34.0949 25.0344 34.2809 26.4791 33.6243 27.661C33.1646 28.4818 32.3985 29.0181 31.5449 29.1494C31.3041 29.2041 31.0634 29.2041 30.8226 29.2041C30.352 29.2041 29.8705 29.0619 29.4436 28.832C27.9552 28.0003 27.4409 26.1179 28.2726 24.6623V24.6514Z" fill="#1A2C38"/>
<path d="M33.5275 26.1682C33.7472 26.1013 33.8498 25.7987 33.7566 25.4922C33.6635 25.1857 33.4098 24.9914 33.19 25.0582C32.9703 25.125 32.8677 25.4277 32.9608 25.7342C33.054 26.0407 33.3077 26.235 33.5275 26.1682Z" fill="white"/>
<path d="M27.8348 24.5091C28.6556 23.0426 30.352 22.4407 31.8732 22.9004L31.9936 22.9551C32.1687 23.0098 32.3548 23.0973 32.497 23.1849C32.5627 23.7212 31.7857 28.0988 30.6803 29.5872C30.155 29.5763 29.6187 29.434 29.1481 29.1713C27.4846 28.2411 26.9046 26.1398 27.8348 24.5091Z" fill="#FF7F00"/>
<path d="M49.9419 12.9667C49.751 13.0263 49.5434 12.9654 49.417 12.7953C49.2662 12.5805 49.3128 12.2936 49.515 12.1362C56.8994 6.72983 58.526 0.900185 58.5493 0.840536C58.6173 0.58881 58.8733 0.435567 59.125 0.503642C59.3767 0.571717 59.53 0.827677 59.4619 1.0794C59.3938 1.33113 57.7493 7.27113 50.0732 12.8838C50.0314 12.9178 49.9867 12.9422 49.939 12.9571L49.9419 12.9667Z" fill="#047BFF"/>
<path d="M55.2452 13.3433C55.5491 14.317 55.0042 15.3566 54.0306 15.6606C53.0569 15.9646 52.0173 15.4196 51.7133 14.446C51.4093 13.4723 51.4566 10.8386 52.4302 10.5346C53.4039 10.2306 54.9412 12.3697 55.2452 13.3433Z" fill="#047BFF"/>
<path d="M58.5011 9.14249C59.1887 9.90208 59.1347 11.0713 58.3846 11.7559C57.6346 12.4406 56.4558 12.3895 55.7712 11.6395C55.0866 10.8895 54.0098 8.48089 54.7694 7.79327C55.529 7.10566 57.8164 8.39244 58.5106 9.1395L58.5011 9.14249Z" fill="#047BFF"/>
<path d="M61.0591 4.55149C61.9705 5.02122 62.3288 6.13508 61.8686 7.0435C61.4084 7.95192 60.285 8.31312 59.3766 7.85294C58.4681 7.39275 56.6253 5.5167 57.0825 4.59873C57.5397 3.68077 60.1477 4.08176 61.0591 4.55149Z" fill="#047BFF"/>
<path d="M49.4221 7.40934C48.4169 7.20982 47.4432 7.84906 47.2341 8.85717C47.025 9.86528 47.6738 10.836 48.6819 11.0451C49.6901 11.2542 52.2929 10.9339 52.502 9.92582C52.711 8.91771 50.4272 7.60886 49.4221 7.40934Z" fill="#047BFF"/>
<path d="M53.7432 3.90203C53.0974 3.10844 51.9294 2.9912 51.1388 3.64659C50.3481 4.30199 50.2279 5.46046 50.8833 6.25106C51.5387 7.04167 53.7575 8.44416 54.5511 7.79831C55.3447 7.15246 54.3986 4.69263 53.7528 3.89905L53.7432 3.90203Z" fill="#047BFF"/>
<path d="M57.3926 0.625678C57.0886 -0.347974 56.049 -0.892905 55.0753 -0.588928C54.1017 -0.284951 53.5568 0.754687 53.8607 1.72834C54.1647 2.70199 55.702 4.84104 56.6757 4.53706C57.6493 4.23309 57.6966 1.59933 57.3926 0.625678Z" fill="#047BFF"/>
<path d="M48.4957 15.8174C47.7021 16.4632 46.5311 16.3364 45.8948 15.5399C45.2585 14.7433 45.3758 13.5753 46.1723 12.939C46.9689 12.3027 49.4317 11.3662 50.068 12.1627C50.7043 12.9593 49.2893 15.1715 48.4957 15.8174Z" fill="#047BFF"/>
<path d="M59 0H4C1.79 0 0 1.79 0 4V84C0 86.21 1.79 88 4 88H59C61.21 88 63 86.21 63 84V4C63 1.79 61.21 0 59 0ZM61 82.81C61 84.57 59.57 86 57.81 86H5.19C3.43 86 2 84.57 2 82.81V16.9C2 8.67 8.67 2 16.9 2H57.81C59.57 2 61 3.43 61 5.19V82.81Z" fill="url(#paint89_linear_26835_29186)"/>
<mask id="mask1_26835_29186" style="mask-type:luminance" maskUnits="userSpaceOnUse" x="0" y="0" width="63" height="88">
<path d="M59 0H4C1.79 0 0 1.79 0 4V84C0 86.21 1.79 88 4 88H59C61.21 88 63 86.21 63 84V4C63 1.79 61.21 0 59 0ZM61 82.81C61 84.57 59.57 86 57.81 86H5.19C3.43 86 2 84.57 2 82.81V18.19C2 16.43 3.43 15 5.19 15H33.59C34.8 15 35.94 14.45 36.7 13.51L44.8 3.48C45.56 2.54 46.7 1.99 47.91 1.99H57.81C59.57 1.99 61 3.42 61 5.18V82.8V82.81Z" fill="white"/>
</mask>
<g mask="url(#mask1_26835_29186)">
<path d="M68.37 47.3201V26.6401L4.46001 90.5501H25.13L68.37 47.3201Z" fill="white"/>
<path d="M64.66 -2.29004H55.22L-2.92 55.84V66.18L65.46 -2.20004C65.2 -2.26004 64.93 -2.29004 64.66 -2.29004Z" fill="white"/>
<path d="M68.37 69.2298V61.5498L39.37 90.5498H47.05L68.37 69.2298Z" fill="white"/>
</g>
<path d="M40.98 16.96C41.5212 16.96 41.96 16.5212 41.96 15.98C41.96 15.4388 41.5212 15 40.98 15C40.4388 15 40 15.4388 40 15.98C40 16.5212 40.4388 16.96 40.98 16.96Z" fill="#FFEBB8"/>
<path d="M6.83 55.66C7.84068 55.66 8.66 54.8407 8.66 53.83C8.66 52.8193 7.84068 52 6.83 52C5.81932 52 5 52.8193 5 53.83C5 54.8407 5.81932 55.66 6.83 55.66Z" fill="#FFC201"/>
<ellipse cx="27.408" cy="17.5846" rx="1.04322" ry="2.5" transform="rotate(-40.0885 27.408 17.5846)" fill="white"/>
</g>
</g>
<path fill-rule="evenodd" clip-rule="evenodd" d="M6.49771 79C6.98969 79 7.48602 79.213 7.49037 79.6913C7.49037 80.1043 7.24656 80.2696 6.99839 80.2696C6.75023 80.2696 6.73281 80.1435 6.73281 80.1435C6.73281 80.1435 7.02452 79.9261 7.02452 79.7174C7.02452 79.6087 6.94179 79.313 6.489 79.3174C5.8577 79.3174 5.5181 79.6174 5.5181 80.1522C5.5181 80.7652 7.35105 80.9739 7.3554 81.7652C7.3554 82.613 6.47594 82.9957 5.69225 83C5.283 83 5.01306 82.7609 5.00871 82.3783C5.00871 81.9261 5.22204 81.4652 5.75756 81.4652C5.88382 81.4565 5.98831 81.5522 5.99702 81.6783C5.99702 81.6783 5.99702 81.6826 5.99702 81.687C5.99702 81.687 5.45715 81.8391 5.4615 82.3783C5.4615 82.4783 5.56599 82.6609 5.81851 82.6565C6.07103 82.6522 6.82424 82.4739 6.81989 81.8087C6.81989 81.1913 5.00435 81.1087 5 80.1478C5 79.0652 6.08845 79.0087 6.49771 79.0087V79ZM10.747 79.6C10.8123 79.5696 11.2129 79.4913 11.1955 79.813C11.1824 80.1348 10.9386 80.6913 10.9037 80.9348C11.2303 80.7696 11.6918 80.2087 11.6918 80.2087C11.6918 80.2087 12.0183 80.2522 11.9182 80.4522C11.818 80.6522 11.1519 81.1435 11.1519 81.1435C11.1519 81.1435 11.3043 82.5696 12.1707 82.5696C12.6453 82.5696 12.8499 82.3609 12.937 82.287C12.9587 82.2696 12.9762 82.2652 12.9849 82.2783C13.0197 82.387 12.9936 82.5043 12.9152 82.5913C12.8194 82.6957 12.5974 82.8217 12.1533 82.8261C11.3653 82.8261 10.9255 82.1957 10.8123 81.2609C10.7252 81.5348 10.7339 81.9826 10.7209 82.2C10.6948 82.2435 10.2507 82.4174 10.2158 82.1174C10.2158 82.0913 10.2158 82.0696 10.2158 82.0435C10.1331 82.1609 10.0199 82.2826 9.91108 82.2826C9.71951 82.2826 9.63679 82.1217 9.60196 82.0391C9.57584 82.0696 9.3625 82.287 9.08821 82.287C8.92277 82.2913 8.77474 82.1957 8.70943 82.0435C8.57011 82.1435 8.32195 82.2913 8.03895 82.2913C7.73418 82.2913 7.66017 82.1087 7.66017 81.9565C7.66017 81.713 7.84303 80.987 7.84303 80.987C7.84303 80.987 7.48602 81.1304 7.36411 81.1348C7.19431 81.1348 7.11159 80.8217 7.11159 80.813C7.11159 80.8087 7.11159 80.8 7.1203 80.8C7.22044 80.7609 7.94317 80.513 7.94317 80.513C7.94317 80.513 8.07813 79.9826 8.09555 79.913C8.11296 79.8435 8.2131 79.7 8.33065 79.6565C8.41773 79.6217 8.50916 79.6 8.60059 79.5913C8.63107 79.5913 8.65284 79.6 8.65284 79.6174C8.65284 79.6348 8.47433 80.4087 8.47433 80.4087C8.47433 80.4087 8.84876 80.3217 8.98808 80.3217C9.09692 80.3217 9.15352 80.387 9.09257 80.4696C9.03162 80.5522 8.96196 80.6478 8.92712 80.6913C8.88794 80.7348 8.86182 80.7435 8.77039 80.7609C8.64413 80.787 8.36113 80.8565 8.36113 80.8565C8.36113 80.8565 8.13473 81.6783 8.13909 81.8174C8.13909 81.8957 8.16521 81.987 8.26099 81.987C8.35678 81.987 8.53964 81.8739 8.67025 81.7913C8.69202 81.1522 9.18835 80.7261 9.57584 80.7261C9.7021 80.7261 9.65421 80.8478 9.79788 80.8478H9.88931C9.94591 80.8478 10.0069 80.8522 10.0069 80.9957C10.0069 81.1957 9.89367 81.5261 9.89367 81.7348C9.89367 81.8826 9.91544 81.987 9.97204 81.987C10.0678 81.987 10.1767 81.8478 10.255 81.7261C10.3813 81.0304 10.734 79.7609 10.734 79.6174L10.747 79.6ZM12.5016 80.7C12.7672 80.6783 12.9326 80.8217 12.9631 80.9C12.9936 80.9783 12.9892 81.1609 12.9152 81.2913C12.6845 81.7044 12.1097 81.6304 12.1097 81.6304C12.1097 81.6304 12.0444 81.9565 12.3405 81.9565C12.593 81.9565 12.7062 81.8304 12.8151 81.7261C12.8586 81.7261 12.9936 81.8652 12.9326 81.9609C12.8847 82.0348 12.6191 82.2565 12.2795 82.2609C11.7397 82.2609 11.6047 81.8 11.6744 81.4696C11.7658 81.0609 12.1751 80.7217 12.5016 80.6957V80.7ZM9.6455 80.987C9.32332 80.987 8.82699 81.9696 9.20577 81.9652C9.61938 81.9652 9.6455 81.1826 9.6455 81.0043V80.987ZM12.6409 80.8913C12.4232 80.9 12.1751 81.3174 12.1533 81.5C12.4798 81.513 12.654 81.1957 12.6757 81.0696C12.6888 80.9739 12.6932 80.887 12.6409 80.887V80.8913Z" fill="white"/>
<path d="M46.1444 79.3778L46.6412 80.278L47.6519 80.4733C47.7792 80.4988 47.8302 80.6559 47.741 80.7494L47.0361 81.5009L47.1635 82.5243C47.1805 82.6559 47.0446 82.7494 46.93 82.6942L46 82.2568L45.0701 82.6942C44.9512 82.7494 44.8196 82.6517 44.8366 82.5243L44.964 81.5009L44.2591 80.7494C44.1699 80.6559 44.2209 80.4988 44.3482 80.4733L45.3589 80.278L45.8557 79.3778C45.9194 79.2632 46.085 79.2632 46.1444 79.3778Z" fill="#FFC200"/>
<path d="M46 79.2929C46.0552 79.2929 46.1147 79.3226 46.1444 79.3778L46.6412 80.278L47.6519 80.4733C47.7792 80.4988 47.8302 80.6559 47.741 80.7494L47.0361 81.5009L47.1635 82.5243C47.1763 82.6262 47.0955 82.7111 46.9979 82.7111C46.9766 82.7111 46.9512 82.7069 46.9257 82.6942L45.9958 82.2568L45.0658 82.6942C45.0403 82.7069 45.0191 82.7111 44.9936 82.7111C44.9002 82.7111 44.8153 82.6262 44.828 82.5243L44.9554 81.5009L44.2505 80.7494C44.1614 80.6559 44.2123 80.4988 44.3397 80.4733L45.3503 80.278L45.8471 79.3778C45.8769 79.3226 45.9363 79.2929 45.9915 79.2929M46 79.0806C45.8641 79.0806 45.7367 79.157 45.6688 79.2759L45.2187 80.0912L44.3057 80.2653C44.1699 80.2908 44.0594 80.3884 44.017 80.5201C43.9745 80.6517 44.0085 80.7961 44.1019 80.8937L44.7389 81.5731L44.6242 82.4946C44.6115 82.6007 44.6454 82.7111 44.7134 82.7918C44.7856 82.8725 44.8875 82.9192 44.9979 82.9192C45.0531 82.9192 45.1083 82.9065 45.1592 82.881L46 82.4861L46.8408 82.881C46.8917 82.9065 46.9469 82.9192 47.0021 82.9192C47.1125 82.9192 47.2144 82.8725 47.2866 82.7918C47.3588 82.7111 47.3928 82.6007 47.3758 82.4946L47.2611 81.5731L47.8981 80.8937C47.9915 80.7918 48.0255 80.6474 47.983 80.5201C47.9406 80.3884 47.8301 80.2908 47.6943 80.2653L46.7813 80.0912L46.3312 79.2759C46.2633 79.157 46.1359 79.0806 46 79.0806Z" fill="#213743"/>
<path d="M46 79.8152V80.9744C46 81.0678 46.0892 81.1315 46.1784 81.106L47.2187 80.7706C47.2739 80.7536 47.2697 80.6729 47.2102 80.6602L46.5563 80.5413C46.4969 80.5286 46.4417 80.4903 46.4119 80.4351L46.085 79.7939C46.0637 79.7515 45.9958 79.7642 45.9958 79.8152H46Z" fill="#FFEBB8"/>
<path d="M46 81.4924V82.0699C46 82.1039 46.017 82.1294 46.0467 82.1464L46.7983 82.5073C46.8366 82.5243 46.8705 82.4818 46.845 82.4479L46.0935 81.4627C46.0637 81.4245 46 81.4457 46 81.4924Z" fill="#FF7F00"/>
<path d="M51.1444 79.3778L51.6412 80.278L52.6519 80.4733C52.7792 80.4988 52.8302 80.6559 52.741 80.7494L52.0361 81.5009L52.1635 82.5243C52.1805 82.6559 52.0446 82.7494 51.93 82.6942L51 82.2568L50.0701 82.6942C49.9512 82.7494 49.8196 82.6517 49.8366 82.5243L49.964 81.5009L49.2591 80.7494C49.1699 80.6559 49.2209 80.4988 49.3482 80.4733L50.3589 80.278L50.8557 79.3778C50.9194 79.2632 51.085 79.2632 51.1444 79.3778Z" fill="#FFC200"/>
<path d="M51 79.2929C51.0552 79.2929 51.1147 79.3226 51.1444 79.3778L51.6412 80.278L52.6519 80.4733C52.7792 80.4988 52.8302 80.6559 52.741 80.7494L52.0361 81.5009L52.1635 82.5243C52.1763 82.6262 52.0955 82.7111 51.9979 82.7111C51.9766 82.7111 51.9512 82.7069 51.9257 82.6942L50.9958 82.2568L50.0658 82.6942C50.0403 82.7069 50.0191 82.7111 49.9936 82.7111C49.9002 82.7111 49.8153 82.6262 49.828 82.5243L49.9554 81.5009L49.2505 80.7494C49.1614 80.6559 49.2123 80.4988 49.3397 80.4733L50.3503 80.278L50.8471 79.3778C50.8769 79.3226 50.9363 79.2929 50.9915 79.2929M51 79.0806C50.8641 79.0806 50.7367 79.157 50.6688 79.2759L50.2187 80.0912L49.3057 80.2653C49.1699 80.2908 49.0594 80.3884 49.017 80.5201C48.9745 80.6517 49.0085 80.7961 49.1019 80.8937L49.7389 81.5731L49.6242 82.4946C49.6115 82.6007 49.6454 82.7111 49.7134 82.7918C49.7856 82.8725 49.8875 82.9192 49.9979 82.9192C50.0531 82.9192 50.1083 82.9065 50.1592 82.881L51 82.4861L51.8408 82.881C51.8917 82.9065 51.9469 82.9192 52.0021 82.9192C52.1125 82.9192 52.2144 82.8725 52.2866 82.7918C52.3588 82.7111 52.3928 82.6007 52.3758 82.4946L52.2611 81.5731L52.8981 80.8937C52.9915 80.7918 53.0255 80.6474 52.983 80.5201C52.9406 80.3884 52.8301 80.2908 52.6943 80.2653L51.7813 80.0912L51.3312 79.2759C51.2633 79.157 51.1359 79.0806 51 79.0806Z" fill="#213743"/>
<path d="M51 79.8152V80.9744C51 81.0678 51.0892 81.1315 51.1784 81.106L52.2187 80.7706C52.2739 80.7536 52.2697 80.6729 52.2102 80.6602L51.5563 80.5413C51.4969 80.5286 51.4417 80.4903 51.4119 80.4351L51.085 79.7939C51.0637 79.7515 50.9958 79.7642 50.9958 79.8152H51Z" fill="#FFEBB8"/>
<path d="M51 81.4924V82.0699C51 82.1039 51.017 82.1294 51.0467 82.1464L51.7983 82.5073C51.8366 82.5243 51.8705 82.4818 51.845 82.4479L51.0935 81.4627C51.0637 81.4245 51 81.4457 51 81.4924Z" fill="#FF7F00"/>
<path d="M56.1444 79.3778L56.6412 80.278L57.6519 80.4733C57.7792 80.4988 57.8302 80.6559 57.741 80.7494L57.0361 81.5009L57.1635 82.5243C57.1805 82.6559 57.0446 82.7494 56.93 82.6942L56 82.2568L55.0701 82.6942C54.9512 82.7494 54.8196 82.6517 54.8366 82.5243L54.964 81.5009L54.2591 80.7494C54.1699 80.6559 54.2209 80.4988 54.3482 80.4733L55.3589 80.278L55.8557 79.3778C55.9194 79.2632 56.085 79.2632 56.1444 79.3778Z" fill="#FFC200"/>
<path d="M56 79.2929C56.0552 79.2929 56.1147 79.3226 56.1444 79.3778L56.6412 80.278L57.6519 80.4733C57.7792 80.4988 57.8302 80.6559 57.741 80.7494L57.0361 81.5009L57.1635 82.5243C57.1763 82.6262 57.0955 82.7111 56.9979 82.7111C56.9766 82.7111 56.9512 82.7069 56.9257 82.6942L55.9958 82.2568L55.0658 82.6942C55.0403 82.7069 55.0191 82.7111 54.9936 82.7111C54.9002 82.7111 54.8153 82.6262 54.828 82.5243L54.9554 81.5009L54.2505 80.7494C54.1614 80.6559 54.2123 80.4988 54.3397 80.4733L55.3503 80.278L55.8471 79.3778C55.8769 79.3226 55.9363 79.2929 55.9915 79.2929M56 79.0806C55.8641 79.0806 55.7367 79.157 55.6688 79.2759L55.2187 80.0912L54.3057 80.2653C54.1699 80.2908 54.0594 80.3884 54.017 80.5201C53.9745 80.6517 54.0085 80.7961 54.1019 80.8937L54.7389 81.5731L54.6242 82.4946C54.6115 82.6007 54.6454 82.7111 54.7134 82.7918C54.7856 82.8725 54.8875 82.9192 54.9979 82.9192C55.0531 82.9192 55.1083 82.9065 55.1592 82.881L56 82.4861L56.8408 82.881C56.8917 82.9065 56.9469 82.9192 57.0021 82.9192C57.1125 82.9192 57.2144 82.8725 57.2866 82.7918C57.3588 82.7111 57.3928 82.6007 57.3758 82.4946L57.2611 81.5731L57.8981 80.8937C57.9915 80.7918 58.0255 80.6474 57.983 80.5201C57.9406 80.3884 57.8301 80.2908 57.6943 80.2653L56.7813 80.0912L56.3312 79.2759C56.2633 79.157 56.1359 79.0806 56 79.0806Z" fill="#213743"/>
<path d="M56 79.8152V80.9744C56 81.0678 56.0892 81.1315 56.1784 81.106L57.2187 80.7706C57.2739 80.7536 57.2697 80.6729 57.2102 80.6602L56.5563 80.5413C56.4969 80.5286 56.4417 80.4903 56.4119 80.4351L56.085 79.7939C56.0637 79.7515 55.9958 79.7642 55.9958 79.8152H56Z" fill="#FFEBB8"/>
<path d="M56 81.4924V82.0699C56 82.1039 56.017 82.1294 56.0467 82.1464L56.7983 82.5073C56.8366 82.5243 56.8705 82.4818 56.845 82.4479L56.0935 81.4627C56.0637 81.4245 56 81.4457 56 81.4924Z" fill="#FF7F00"/>
<rect x="13" y="62" width="37" height="13" rx="6.5" fill="#2F4553"/>
<path d="M29.0952 70.072C28.3872 70.072 27.8532 69.856 27.4812 69.49L28.0452 68.77C28.3212 69.022 28.6992 69.16 29.0832 69.16C29.5212 69.16 29.7372 68.944 29.7372 68.698C29.7372 68.428 29.5272 68.236 29.1132 68.236C28.7952 68.236 28.5432 68.326 28.3212 68.536L27.6072 68.362V65.998H30.5112V66.898H28.6392V67.672C28.8312 67.486 29.1432 67.354 29.4972 67.354C30.1752 67.354 30.7872 67.852 30.7872 68.656C30.7872 69.52 30.1332 70.072 29.0952 70.072ZM32.8163 70.072C31.6463 70.072 31.1003 69.058 31.1003 68.002C31.1003 66.946 31.6463 65.938 32.8163 65.938C33.9863 65.938 34.5323 66.946 34.5323 68.002C34.5323 69.058 33.9863 70.072 32.8163 70.072ZM32.8163 69.16C33.2963 69.16 33.4883 68.71 33.4883 68.002C33.4883 67.294 33.2963 66.85 32.8163 66.85C32.3363 66.85 32.1443 67.294 32.1443 68.002C32.1443 68.71 32.3363 69.16 32.8163 69.16ZM37.7965 70H36.7825L36.2245 69.124L35.6605 70H34.6525L35.6425 68.512L34.7125 67.102H35.7265L36.2245 67.888L36.7165 67.102H37.7305L36.8065 68.512L37.7965 70Z" fill="white"/>
<path d="M7.69 11H5.33V7.665H7.69V8.29H6.04V8.995H7.655V9.62H6.04V10.375H7.69V11ZM9.61004 11.06C9.32504 11.06 9.06004 10.94 8.86504 10.69V11.92H8.23004V8.585H8.86504V8.89C9.05004 8.655 9.31504 8.525 9.61004 8.525C10.23 8.525 10.68 8.985 10.68 9.79C10.68 10.595 10.23 11.06 9.61004 11.06ZM9.41004 10.495C9.77504 10.495 10.02 10.21 10.02 9.79C10.02 9.375 9.77504 9.09 9.41004 9.09C9.20504 9.09 8.97004 9.21 8.86504 9.365V10.22C8.97004 10.37 9.20504 10.495 9.41004 10.495ZM11.4601 8.325C11.2551 8.325 11.0801 8.155 11.0801 7.945C11.0801 7.735 11.2551 7.57 11.4601 7.57C11.6701 7.57 11.8401 7.735 11.8401 7.945C11.8401 8.155 11.6701 8.325 11.4601 8.325ZM11.7801 11H11.1451V8.585H11.7801V11ZM13.5347 11.06C12.7897 11.06 12.2547 10.535 12.2547 9.79C12.2547 9.05 12.7897 8.525 13.5347 8.525C14.0297 8.525 14.3297 8.74 14.4897 8.96L14.0747 9.35C13.9597 9.18 13.7847 9.09 13.5647 9.09C13.1797 9.09 12.9097 9.37 12.9097 9.79C12.9097 10.21 13.1797 10.495 13.5647 10.495C13.7847 10.495 13.9597 10.395 14.0747 10.235L14.4897 10.62C14.3297 10.845 14.0297 11.06 13.5347 11.06Z" fill="#05080A"/>
<path d="M48.7601 11H48.3081L46.9161 9.096V11H46.4481V8.332H46.9281L48.2921 10.184V8.332H48.7601V11ZM50.187 11.048C49.575 11.048 49.195 10.588 49.195 10.032C49.195 9.48 49.575 9.02 50.187 9.02C50.807 9.02 51.183 9.48 51.183 10.032C51.183 10.588 50.807 11.048 50.187 11.048ZM50.187 10.676C50.547 10.676 50.747 10.376 50.747 10.032C50.747 9.692 50.547 9.392 50.187 9.392C49.831 9.392 49.631 9.692 49.631 10.032C49.631 10.376 49.831 10.676 50.187 10.676ZM51.8044 11.044C51.6524 11.044 51.5244 10.916 51.5244 10.764C51.5244 10.612 51.6524 10.484 51.8044 10.484C51.9564 10.484 52.0844 10.612 52.0844 10.764C52.0844 10.916 51.9564 11.044 51.8044 11.044ZM55.4562 11H53.5242V10.632C54.5602 9.848 54.9642 9.5 54.9642 9.116C54.9642 8.836 54.7242 8.708 54.4802 8.708C54.1682 8.708 53.9282 8.836 53.7602 9.028L53.4882 8.72C53.7242 8.436 54.1002 8.292 54.4722 8.292C54.9882 8.292 55.4402 8.584 55.4402 9.116C55.4402 9.608 54.9882 10.048 54.2722 10.588H55.4562V11ZM56.8071 11.048C56.3311 11.048 55.9791 10.856 55.7991 10.616L56.0511 10.308C56.2231 10.508 56.5071 10.632 56.7911 10.632C57.1431 10.632 57.3471 10.472 57.3471 10.224C57.3471 9.96 57.1351 9.848 56.7551 9.848C56.6431 9.848 56.4871 9.848 56.4471 9.852V9.432C56.4951 9.436 56.6511 9.436 56.7551 9.436C57.0671 9.436 57.3031 9.328 57.3031 9.084C57.3031 8.836 57.0631 8.708 56.7631 8.708C56.4911 8.708 56.2671 8.812 56.0751 9.004L55.8351 8.712C56.0391 8.472 56.3631 8.292 56.8071 8.292C57.3831 8.292 57.7711 8.564 57.7711 9.012C57.7711 9.368 57.4671 9.576 57.1911 9.624C57.4511 9.648 57.8111 9.86 57.8111 10.272C57.8111 10.724 57.4231 11.048 56.8071 11.048Z" fill="white"/>
<defs>
<linearGradient id="paint0_linear_26835_29186" x1="37.8344" y1="86.256" x2="23.263" y2="1.76" gradientUnits="userSpaceOnUse">
<stop stop-color="#55EEFF"/>
<stop offset="0.09" stop-color="#6CABFF"/>
<stop offset="0.23" stop-color="#8C4FFF"/>
<stop offset="0.32" stop-color="#A016FF"/>
<stop offset="0.37" stop-color="#A800FF"/>
<stop offset="0.44" stop-color="#C043D4"/>
<stop offset="0.51" stop-color="#D680AF"/>
<stop offset="0.58" stop-color="#E8B091"/>
<stop offset="0.64" stop-color="#F4D27B"/>
<stop offset="0.69" stop-color="#FCE76E"/>
<stop offset="0.72" stop-color="#FFEF6A"/>
<stop offset="0.81" stop-color="#BCF589"/>
<stop offset="0.9" stop-color="#84FAA3"/>
<stop offset="0.97" stop-color="#62FDB3"/>
<stop offset="1" stop-color="#55FFBA"/>
</linearGradient>
<linearGradient id="paint1_linear_26835_29186" x1="34.24" y1="-2.59" x2="29.92" y2="86.48" gradientUnits="userSpaceOnUse">
<stop stop-color="#45A7FF"/>
<stop offset="1" stop-color="#8054FF"/>
</linearGradient>
<linearGradient id="paint2_linear_26835_29186" x1="57.7699" y1="86.3601" x2="26.5299" y2="13.7601" gradientUnits="userSpaceOnUse">
<stop stop-color="#55EEFF"/>
<stop offset="0.09" stop-color="#6CABFF"/>
<stop offset="0.23" stop-color="#8C4FFF"/>
<stop offset="0.32" stop-color="#A016FF"/>
<stop offset="0.37" stop-color="#A800FF"/>
<stop offset="0.44" stop-color="#C043D4"/>
<stop offset="0.51" stop-color="#D680AF"/>
<stop offset="0.58" stop-color="#E8B091"/>
<stop offset="0.64" stop-color="#F4D27B"/>
<stop offset="0.69" stop-color="#FCE76E"/>
<stop offset="0.72" stop-color="#FFEF6A"/>
<stop offset="0.81" stop-color="#BCF589"/>
<stop offset="0.9" stop-color="#84FAA3"/>
<stop offset="0.97" stop-color="#62FDB3"/>
<stop offset="1" stop-color="#55FFBA"/>
</linearGradient>
<linearGradient id="paint3_linear_26835_29186" x1="52.1855" y1="21.0511" x2="50.7299" y2="51.2131" gradientUnits="userSpaceOnUse">
<stop stop-color="#FF7F00"/>
<stop offset="1" stop-color="#FFEBB8"/>
</linearGradient>
<linearGradient id="paint4_linear_26835_29186" x1="42.7345" y1="4.94158" x2="23.3422" y2="72.0123" gradientUnits="userSpaceOnUse">
<stop stop-color="#45A7FF"/>
<stop offset="1" stop-color="#8054FF"/>
</linearGradient>
<radialGradient id="paint5_radial_26835_29186" cx="0" cy="0" r="1" gradientUnits="userSpaceOnUse" gradientTransform="translate(31.9936 38.9117) scale(20.4546)">
<stop stop-color="#FFAA4F"/>
<stop offset="1" stop-color="#F87915"/>
</radialGradient>
<radialGradient id="paint6_radial_26835_29186" cx="0" cy="0" r="1" gradientUnits="userSpaceOnUse" gradientTransform="translate(31.9936 38.9115) scale(20.4546 20.4546)">
<stop stop-color="#FFAA4F"/>
<stop offset="1" stop-color="#F87915"/>
</radialGradient>
<radialGradient id="paint7_radial_26835_29186" cx="0" cy="0" r="1" gradientUnits="userSpaceOnUse" gradientTransform="translate(31.9936 38.9116) scale(20.4546 20.4546)">
<stop stop-color="#FFAA4F"/>
<stop offset="1" stop-color="#F87915"/>
</radialGradient>
<radialGradient id="paint8_radial_26835_29186" cx="0" cy="0" r="1" gradientUnits="userSpaceOnUse" gradientTransform="translate(31.9936 38.9116) scale(20.4546 20.4546)">
<stop stop-color="#FFAA4F"/>
<stop offset="1" stop-color="#F87915"/>
</radialGradient>
<radialGradient id="paint9_radial_26835_29186" cx="0" cy="0" r="1" gradientUnits="userSpaceOnUse" gradientTransform="translate(31.9936 38.9118) scale(20.4546)">
<stop stop-color="#FFAA4F"/>
<stop offset="1" stop-color="#F87915"/>
</radialGradient>
<radialGradient id="paint10_radial_26835_29186" cx="0" cy="0" r="1" gradientUnits="userSpaceOnUse" gradientTransform="translate(31.9936 38.9118) scale(20.4546)">
<stop stop-color="#FFAA4F"/>
<stop offset="1" stop-color="#F87915"/>
</radialGradient>
<radialGradient id="paint11_radial_26835_29186" cx="0" cy="0" r="1" gradientUnits="userSpaceOnUse" gradientTransform="translate(31.9936 38.912) scale(20.4546 20.4546)">
<stop stop-color="#FFAA4F"/>
<stop offset="1" stop-color="#F87915"/>
</radialGradient>
<radialGradient id="paint12_radial_26835_29186" cx="0" cy="0" r="1" gradientUnits="userSpaceOnUse" gradientTransform="translate(31.9936 38.9117) scale(20.4546)">
<stop stop-color="#FFAA4F"/>
<stop offset="1" stop-color="#F87915"/>
</radialGradient>
<radialGradient id="paint13_radial_26835_29186" cx="0" cy="0" r="1" gradientUnits="userSpaceOnUse" gradientTransform="translate(31.9936 38.9115) scale(20.4546)">
<stop stop-color="#FFAA4F"/>
<stop offset="1" stop-color="#F87915"/>
</radialGradient>
<radialGradient id="paint14_radial_26835_29186" cx="0" cy="0" r="1" gradientUnits="userSpaceOnUse" gradientTransform="translate(-3.93599 38.9119) scale(20.4546)">
<stop stop-color="#FFAA4F"/>
<stop offset="1" stop-color="#F87915"/>
</radialGradient>
<radialGradient id="paint15_radial_26835_29186" cx="0" cy="0" r="1" gradientUnits="userSpaceOnUse" gradientTransform="translate(31.9936 38.9118) scale(20.4546)">
<stop stop-color="#FFAA4F"/>
<stop offset="1" stop-color="#F87915"/>
</radialGradient>
<radialGradient id="paint16_radial_26835_29186" cx="0" cy="0" r="1" gradientUnits="userSpaceOnUse" gradientTransform="translate(31.9936 38.9118) scale(20.4546)">
<stop stop-color="#FFAA4F"/>
<stop offset="1" stop-color="#F87915"/>
</radialGradient>
<radialGradient id="paint17_radial_26835_29186" cx="0" cy="0" r="1" gradientUnits="userSpaceOnUse" gradientTransform="translate(31.9936 38.9117) scale(20.4546)">
<stop stop-color="#FFAA4F"/>
<stop offset="1" stop-color="#F87915"/>
</radialGradient>
<radialGradient id="paint18_radial_26835_29186" cx="0" cy="0" r="1" gradientUnits="userSpaceOnUse" gradientTransform="translate(31.9936 38.9119) scale(20.4546)">
<stop stop-color="#FFAA4F"/>
<stop offset="1" stop-color="#F87915"/>
</radialGradient>
<radialGradient id="paint19_radial_26835_29186" cx="0" cy="0" r="1" gradientUnits="userSpaceOnUse" gradientTransform="translate(31.9936 38.9119) scale(20.4546 20.4546)">
<stop stop-color="#FFAA4F"/>
<stop offset="1" stop-color="#F87915"/>
</radialGradient>
<radialGradient id="paint20_radial_26835_29186" cx="0" cy="0" r="1" gradientUnits="userSpaceOnUse" gradientTransform="translate(31.9936 38.9118) scale(20.4546 20.4546)">
<stop stop-color="#FFAA4F"/>
<stop offset="1" stop-color="#F87915"/>
</radialGradient>
<radialGradient id="paint21_radial_26835_29186" cx="0" cy="0" r="1" gradientUnits="userSpaceOnUse" gradientTransform="translate(31.9936 38.9115) scale(20.4546 20.4546)">
<stop stop-color="#FFAA4F"/>
<stop offset="1" stop-color="#F87915"/>
</radialGradient>
<radialGradient id="paint22_radial_26835_29186" cx="0" cy="0" r="1" gradientUnits="userSpaceOnUse" gradientTransform="translate(31.9936 38.9118) scale(20.4546)">
<stop stop-color="#FFAA4F"/>
<stop offset="1" stop-color="#F87915"/>
</radialGradient>
<radialGradient id="paint23_radial_26835_29186" cx="0" cy="0" r="1" gradientUnits="userSpaceOnUse" gradientTransform="translate(31.9936 38.9119) scale(20.4546)">
<stop stop-color="#FFAA4F"/>
<stop offset="1" stop-color="#F87915"/>
</radialGradient>
<radialGradient id="paint24_radial_26835_29186" cx="0" cy="0" r="1" gradientUnits="userSpaceOnUse" gradientTransform="translate(31.9936 38.9116) scale(20.4546 20.4546)">
<stop stop-color="#FFAA4F"/>
<stop offset="1" stop-color="#F87915"/>
</radialGradient>
<radialGradient id="paint25_radial_26835_29186" cx="0" cy="0" r="1" gradientUnits="userSpaceOnUse" gradientTransform="translate(31.9936 38.9117) scale(20.4546 20.4546)">
<stop stop-color="#FFAA4F"/>
<stop offset="1" stop-color="#F87915"/>
</radialGradient>
<radialGradient id="paint26_radial_26835_29186" cx="0" cy="0" r="1" gradientUnits="userSpaceOnUse" gradientTransform="translate(31.9936 38.9116) scale(20.4546 20.4546)">
<stop stop-color="#FFAA4F"/>
<stop offset="1" stop-color="#F87915"/>
</radialGradient>
<radialGradient id="paint27_radial_26835_29186" cx="0" cy="0" r="1" gradientUnits="userSpaceOnUse" gradientTransform="translate(31.9936 38.9116) scale(20.4546 20.4546)">
<stop stop-color="#FFAA4F"/>
<stop offset="1" stop-color="#F87915"/>
</radialGradient>
<radialGradient id="paint28_radial_26835_29186" cx="0" cy="0" r="1" gradientUnits="userSpaceOnUse" gradientTransform="translate(-3.93601 38.9116) scale(20.4546)">
<stop stop-color="#FFAA4F"/>
<stop offset="1" stop-color="#F87915"/>
</radialGradient>
<radialGradient id="paint29_radial_26835_29186" cx="0" cy="0" r="1" gradientUnits="userSpaceOnUse" gradientTransform="translate(31.9936 38.9118) scale(20.4546 20.4546)">
<stop stop-color="#FFAA4F"/>
<stop offset="1" stop-color="#F87915"/>
</radialGradient>
<radialGradient id="paint30_radial_26835_29186" cx="0" cy="0" r="1" gradientUnits="userSpaceOnUse" gradientTransform="translate(31.9936 38.9118) scale(20.4546 20.4546)">
<stop stop-color="#FFAA4F"/>
<stop offset="1" stop-color="#F87915"/>
</radialGradient>
<radialGradient id="paint31_radial_26835_29186" cx="0" cy="0" r="1" gradientUnits="userSpaceOnUse" gradientTransform="translate(31.9936 38.9115) scale(20.4546)">
<stop stop-color="#FFAA4F"/>
<stop offset="1" stop-color="#F87915"/>
</radialGradient>
<radialGradient id="paint32_radial_26835_29186" cx="0" cy="0" r="1" gradientUnits="userSpaceOnUse" gradientTransform="translate(31.9936 38.9118) scale(20.4546 20.4546)">
<stop stop-color="#FFAA4F"/>
<stop offset="1" stop-color="#F87915"/>
</radialGradient>
<radialGradient id="paint33_radial_26835_29186" cx="0" cy="0" r="1" gradientUnits="userSpaceOnUse" gradientTransform="translate(31.2932 42.425) scale(20.4546)">
<stop stop-color="#FFAA4F"/>
<stop offset="1" stop-color="#F87915"/>
</radialGradient>
<radialGradient id="paint34_radial_26835_29186" cx="0" cy="0" r="1" gradientUnits="userSpaceOnUse" gradientTransform="translate(31.9936 38.9115) scale(20.4546)">
<stop stop-color="#FFAA4F"/>
<stop offset="1" stop-color="#F87915"/>
</radialGradient>
<radialGradient id="paint35_radial_26835_29186" cx="0" cy="0" r="1" gradientUnits="userSpaceOnUse" gradientTransform="translate(31.9936 38.9118) scale(20.4546 20.4546)">
<stop stop-color="#FFAA4F"/>
<stop offset="1" stop-color="#F87915"/>
</radialGradient>
<radialGradient id="paint36_radial_26835_29186" cx="0" cy="0" r="1" gradientUnits="userSpaceOnUse" gradientTransform="translate(31.9936 38.9116) scale(20.4546 20.4546)">
<stop stop-color="#FFAA4F"/>
<stop offset="1" stop-color="#F87915"/>
</radialGradient>
<radialGradient id="paint37_radial_26835_29186" cx="0" cy="0" r="1" gradientUnits="userSpaceOnUse" gradientTransform="translate(31.9936 38.9118) scale(20.4546 20.4546)">
<stop stop-color="#FFAA4F"/>
<stop offset="1" stop-color="#F87915"/>
</radialGradient>
<radialGradient id="paint38_radial_26835_29186" cx="0" cy="0" r="1" gradientUnits="userSpaceOnUse" gradientTransform="translate(31.9936 38.9119) scale(20.4546)">
<stop stop-color="#FFAA4F"/>
<stop offset="1" stop-color="#F87915"/>
</radialGradient>
<radialGradient id="paint39_radial_26835_29186" cx="0" cy="0" r="1" gradientUnits="userSpaceOnUse" gradientTransform="translate(31.9936 38.9117) scale(20.4546)">
<stop stop-color="#FFAA4F"/>
<stop offset="1" stop-color="#F87915"/>
</radialGradient>
<radialGradient id="paint40_radial_26835_29186" cx="0" cy="0" r="1" gradientUnits="userSpaceOnUse" gradientTransform="translate(31.9936 38.9118) scale(20.4546 20.4546)">
<stop stop-color="#FFAA4F"/>
<stop offset="1" stop-color="#F87915"/>
</radialGradient>
<radialGradient id="paint41_radial_26835_29186" cx="0" cy="0" r="1" gradientUnits="userSpaceOnUse" gradientTransform="translate(31.9936 38.9119) scale(20.4546)">
<stop stop-color="#FFAA4F"/>
<stop offset="1" stop-color="#F87915"/>
</radialGradient>
<radialGradient id="paint42_radial_26835_29186" cx="0" cy="0" r="1" gradientUnits="userSpaceOnUse" gradientTransform="translate(31.9936 38.9119) scale(20.4546)">
<stop stop-color="#FFAA4F"/>
<stop offset="1" stop-color="#F87915"/>
</radialGradient>
<radialGradient id="paint43_radial_26835_29186" cx="0" cy="0" r="1" gradientUnits="userSpaceOnUse" gradientTransform="translate(31.9936 38.9119) scale(20.4546)">
<stop stop-color="#FFAA4F"/>
<stop offset="1" stop-color="#F87915"/>
</radialGradient>
<radialGradient id="paint44_radial_26835_29186" cx="0" cy="0" r="1" gradientUnits="userSpaceOnUse" gradientTransform="translate(31.9936 38.912) scale(20.4546)">
<stop stop-color="#FFAA4F"/>
<stop offset="1" stop-color="#F87915"/>
</radialGradient>
<radialGradient id="paint45_radial_26835_29186" cx="0" cy="0" r="1" gradientUnits="userSpaceOnUse" gradientTransform="translate(31.9936 38.9119) scale(20.4546 20.4546)">
<stop stop-color="#FFAA4F"/>
<stop offset="1" stop-color="#F87915"/>
</radialGradient>
<radialGradient id="paint46_radial_26835_29186" cx="0" cy="0" r="1" gradientUnits="userSpaceOnUse" gradientTransform="translate(31.9936 38.9118) scale(20.4546 20.4546)">
<stop stop-color="#FFAA4F"/>
<stop offset="1" stop-color="#F87915"/>
</radialGradient>
<radialGradient id="paint47_radial_26835_29186" cx="0" cy="0" r="1" gradientUnits="userSpaceOnUse" gradientTransform="translate(31.9936 38.9119) scale(20.4546)">
<stop stop-color="#FFAA4F"/>
<stop offset="1" stop-color="#F87915"/>
</radialGradient>
<radialGradient id="paint48_radial_26835_29186" cx="0" cy="0" r="1" gradientUnits="userSpaceOnUse" gradientTransform="translate(31.9936 38.9118) scale(20.4546)">
<stop stop-color="#FFAA4F"/>
<stop offset="1" stop-color="#F87915"/>
</radialGradient>
<radialGradient id="paint49_radial_26835_29186" cx="0" cy="0" r="1" gradientUnits="userSpaceOnUse" gradientTransform="translate(31.9936 38.9119) scale(20.4546)">
<stop stop-color="#FFAA4F"/>
<stop offset="1" stop-color="#F87915"/>
</radialGradient>
<radialGradient id="paint50_radial_26835_29186" cx="0" cy="0" r="1" gradientUnits="userSpaceOnUse" gradientTransform="translate(31.9936 38.9117) scale(20.4546)">
<stop stop-color="#FFAA4F"/>
<stop offset="1" stop-color="#F87915"/>
</radialGradient>
<radialGradient id="paint51_radial_26835_29186" cx="0" cy="0" r="1" gradientUnits="userSpaceOnUse" gradientTransform="translate(31.9936 38.9118) scale(20.4546)">
<stop stop-color="#FFAA4F"/>
<stop offset="1" stop-color="#F87915"/>
</radialGradient>
<radialGradient id="paint52_radial_26835_29186" cx="0" cy="0" r="1" gradientUnits="userSpaceOnUse" gradientTransform="translate(31.9936 38.9116) scale(20.4546 20.4546)">
<stop stop-color="#FFAA4F"/>
<stop offset="1" stop-color="#F87915"/>
</radialGradient>
<radialGradient id="paint53_radial_26835_29186" cx="0" cy="0" r="1" gradientUnits="userSpaceOnUse" gradientTransform="translate(31.9936 38.9118) scale(20.4546)">
<stop stop-color="#FFAA4F"/>
<stop offset="1" stop-color="#F87915"/>
</radialGradient>
<radialGradient id="paint54_radial_26835_29186" cx="0" cy="0" r="1" gradientUnits="userSpaceOnUse" gradientTransform="translate(31.9936 38.9116) scale(20.4546)">
<stop stop-color="#FFAA4F"/>
<stop offset="1" stop-color="#F87915"/>
</radialGradient>
<radialGradient id="paint55_radial_26835_29186" cx="0" cy="0" r="1" gradientUnits="userSpaceOnUse" gradientTransform="translate(31.9936 38.9118) scale(20.4546)">
<stop stop-color="#FFAA4F"/>
<stop offset="1" stop-color="#F87915"/>
</radialGradient>
<radialGradient id="paint56_radial_26835_29186" cx="0" cy="0" r="1" gradientUnits="userSpaceOnUse" gradientTransform="translate(31.9936 38.9115) scale(20.4546 20.4546)">
<stop stop-color="#FFAA4F"/>
<stop offset="1" stop-color="#F87915"/>
</radialGradient>
<radialGradient id="paint57_radial_26835_29186" cx="0" cy="0" r="1" gradientUnits="userSpaceOnUse" gradientTransform="translate(-3.93601 38.9115) scale(20.4546)">
<stop stop-color="#FFAA4F"/>
<stop offset="1" stop-color="#F87915"/>
</radialGradient>
<radialGradient id="paint58_radial_26835_29186" cx="0" cy="0" r="1" gradientUnits="userSpaceOnUse" gradientTransform="translate(31.9936 38.9116) scale(20.4546 20.4546)">
<stop stop-color="#FFAA4F"/>
<stop offset="1" stop-color="#F87915"/>
</radialGradient>
<radialGradient id="paint59_radial_26835_29186" cx="0" cy="0" r="1" gradientUnits="userSpaceOnUse" gradientTransform="translate(31.9936 38.9117) scale(20.4546)">
<stop stop-color="#FFAA4F"/>
<stop offset="1" stop-color="#F87915"/>
</radialGradient>
<radialGradient id="paint60_radial_26835_29186" cx="0" cy="0" r="1" gradientUnits="userSpaceOnUse" gradientTransform="translate(31.9936 38.9118) scale(20.4546 20.4546)">
<stop stop-color="#FFAA4F"/>
<stop offset="1" stop-color="#F87915"/>
</radialGradient>
<radialGradient id="paint61_radial_26835_29186" cx="0" cy="0" r="1" gradientUnits="userSpaceOnUse" gradientTransform="translate(31.9936 38.9117) scale(20.4546)">
<stop stop-color="#FFAA4F"/>
<stop offset="1" stop-color="#F87915"/>
</radialGradient>
<radialGradient id="paint62_radial_26835_29186" cx="0" cy="0" r="1" gradientUnits="userSpaceOnUse" gradientTransform="translate(31.9936 38.9115) scale(20.4546)">
<stop stop-color="#FFAA4F"/>
<stop offset="1" stop-color="#F87915"/>
</radialGradient>
<radialGradient id="paint63_radial_26835_29186" cx="0" cy="0" r="1" gradientUnits="userSpaceOnUse" gradientTransform="translate(31.9936 38.9119) scale(20.4546)">
<stop stop-color="#FFAA4F"/>
<stop offset="1" stop-color="#F87915"/>
</radialGradient>
<radialGradient id="paint64_radial_26835_29186" cx="0" cy="0" r="1" gradientUnits="userSpaceOnUse" gradientTransform="translate(31.9936 38.9116) scale(20.4546)">
<stop stop-color="#FFAA4F"/>
<stop offset="1" stop-color="#F87915"/>
</radialGradient>
<radialGradient id="paint65_radial_26835_29186" cx="0" cy="0" r="1" gradientUnits="userSpaceOnUse" gradientTransform="translate(31.9936 38.9116) scale(20.4546 20.4546)">
<stop stop-color="#FFAA4F"/>
<stop offset="1" stop-color="#F87915"/>
</radialGradient>
<radialGradient id="paint66_radial_26835_29186" cx="0" cy="0" r="1" gradientUnits="userSpaceOnUse" gradientTransform="translate(31.9936 38.9119) scale(20.4546)">
<stop stop-color="#FFAA4F"/>
<stop offset="1" stop-color="#F87915"/>
</radialGradient>
<radialGradient id="paint67_radial_26835_29186" cx="0" cy="0" r="1" gradientUnits="userSpaceOnUse" gradientTransform="translate(31.9936 38.9115) scale(20.4546 20.4546)">
<stop stop-color="#FFAA4F"/>
<stop offset="1" stop-color="#F87915"/>
</radialGradient>
<radialGradient id="paint68_radial_26835_29186" cx="0" cy="0" r="1" gradientUnits="userSpaceOnUse" gradientTransform="translate(31.9936 38.9115) scale(20.4546 20.4546)">
<stop stop-color="#FFAA4F"/>
<stop offset="1" stop-color="#F87915"/>
</radialGradient>
<radialGradient id="paint69_radial_26835_29186" cx="0" cy="0" r="1" gradientUnits="userSpaceOnUse" gradientTransform="translate(31.9936 38.9118) scale(20.4546 20.4546)">
<stop stop-color="#FFAA4F"/>
<stop offset="1" stop-color="#F87915"/>
</radialGradient>
<radialGradient id="paint70_radial_26835_29186" cx="0" cy="0" r="1" gradientUnits="userSpaceOnUse" gradientTransform="translate(31.9936 38.9119) scale(20.4546)">
<stop stop-color="#FFAA4F"/>
<stop offset="1" stop-color="#F87915"/>
</radialGradient>
<radialGradient id="paint71_radial_26835_29186" cx="0" cy="0" r="1" gradientUnits="userSpaceOnUse" gradientTransform="translate(31.9936 38.9116) scale(20.4546 20.4546)">
<stop stop-color="#FFAA4F"/>
<stop offset="1" stop-color="#F87915"/>
</radialGradient>
<radialGradient id="paint72_radial_26835_29186" cx="0" cy="0" r="1" gradientUnits="userSpaceOnUse" gradientTransform="translate(31.9936 38.9118) scale(20.4546 20.4546)">
<stop stop-color="#FFAA4F"/>
<stop offset="1" stop-color="#F87915"/>
</radialGradient>
<radialGradient id="paint73_radial_26835_29186" cx="0" cy="0" r="1" gradientUnits="userSpaceOnUse" gradientTransform="translate(31.9936 38.9119) scale(20.4546 20.4546)">
<stop stop-color="#FFAA4F"/>
<stop offset="1" stop-color="#F87915"/>
</radialGradient>
<radialGradient id="paint74_radial_26835_29186" cx="0" cy="0" r="1" gradientUnits="userSpaceOnUse" gradientTransform="translate(31.9936 38.9115) scale(20.4546)">
<stop stop-color="#FFAA4F"/>
<stop offset="1" stop-color="#F87915"/>
</radialGradient>
<radialGradient id="paint75_radial_26835_29186" cx="0" cy="0" r="1" gradientUnits="userSpaceOnUse" gradientTransform="translate(31.9936 38.9117) scale(20.4546)">
<stop stop-color="#FFAA4F"/>
<stop offset="1" stop-color="#F87915"/>
</radialGradient>
<radialGradient id="paint76_radial_26835_29186" cx="0" cy="0" r="1" gradientUnits="userSpaceOnUse" gradientTransform="translate(31.9936 38.912) scale(20.4546 20.4546)">
<stop stop-color="#FFAA4F"/>
<stop offset="1" stop-color="#F87915"/>
</radialGradient>
<radialGradient id="paint77_radial_26835_29186" cx="0" cy="0" r="1" gradientUnits="userSpaceOnUse" gradientTransform="translate(31.9936 38.9117) scale(20.4546)">
<stop stop-color="#FFAA4F"/>
<stop offset="1" stop-color="#F87915"/>
</radialGradient>
<radialGradient id="paint78_radial_26835_29186" cx="0" cy="0" r="1" gradientUnits="userSpaceOnUse" gradientTransform="translate(31.9936 38.9117) scale(20.4546)">
<stop stop-color="#FFAA4F"/>
<stop offset="1" stop-color="#F87915"/>
</radialGradient>
<radialGradient id="paint79_radial_26835_29186" cx="0" cy="0" r="1" gradientUnits="userSpaceOnUse" gradientTransform="translate(31.9936 38.9117) scale(20.4546)">
<stop stop-color="#FFAA4F"/>
<stop offset="1" stop-color="#F87915"/>
</radialGradient>
<radialGradient id="paint80_radial_26835_29186" cx="0" cy="0" r="1" gradientUnits="userSpaceOnUse" gradientTransform="translate(31.9936 38.9117) scale(20.4546 20.4546)">
<stop stop-color="#FFAA4F"/>
<stop offset="1" stop-color="#F87915"/>
</radialGradient>
<radialGradient id="paint81_radial_26835_29186" cx="0" cy="0" r="1" gradientUnits="userSpaceOnUse" gradientTransform="translate(31.9936 38.9115) scale(20.4546 20.4546)">
<stop stop-color="#FFAA4F"/>
<stop offset="1" stop-color="#F87915"/>
</radialGradient>
<radialGradient id="paint82_radial_26835_29186" cx="0" cy="0" r="1" gradientUnits="userSpaceOnUse" gradientTransform="translate(31.9936 38.9119) scale(20.4546)">
<stop stop-color="#FFAA4F"/>
<stop offset="1" stop-color="#F87915"/>
</radialGradient>
<radialGradient id="paint83_radial_26835_29186" cx="0" cy="0" r="1" gradientUnits="userSpaceOnUse" gradientTransform="translate(31.9936 38.9116) scale(20.4546 20.4546)">
<stop stop-color="#FFAA4F"/>
<stop offset="1" stop-color="#F87915"/>
</radialGradient>
<radialGradient id="paint84_radial_26835_29186" cx="0" cy="0" r="1" gradientUnits="userSpaceOnUse" gradientTransform="translate(31.9936 38.9116) scale(20.4546 20.4546)">
<stop stop-color="#FFAA4F"/>
<stop offset="1" stop-color="#F87915"/>
</radialGradient>
<radialGradient id="paint85_radial_26835_29186" cx="0" cy="0" r="1" gradientUnits="userSpaceOnUse" gradientTransform="translate(31.9936 38.9115) scale(20.4546)">
<stop stop-color="#FFAA4F"/>
<stop offset="1" stop-color="#F87915"/>
</radialGradient>
<radialGradient id="paint86_radial_26835_29186" cx="0" cy="0" r="1" gradientUnits="userSpaceOnUse" gradientTransform="translate(31.9936 38.9117) scale(20.4546)">
<stop stop-color="#FFAA4F"/>
<stop offset="1" stop-color="#F87915"/>
</radialGradient>
<radialGradient id="paint87_radial_26835_29186" cx="0" cy="0" r="1" gradientUnits="userSpaceOnUse" gradientTransform="translate(31.9936 38.9118) scale(20.4546)">
<stop stop-color="#FFAA4F"/>
<stop offset="1" stop-color="#F87915"/>
</radialGradient>
<radialGradient id="paint88_radial_26835_29186" cx="0" cy="0" r="1" gradientUnits="userSpaceOnUse" gradientTransform="translate(31.9936 38.9117) scale(20.4546)">
<stop stop-color="#FFAA4F"/>
<stop offset="1" stop-color="#F87915"/>
</radialGradient>
<linearGradient id="paint89_linear_26835_29186" x1="51.08" y1="89.51" x2="19.74" y2="16.67" gradientUnits="userSpaceOnUse">
<stop stop-color="#55EEFF"/>
<stop offset="0.09" stop-color="#6CABFF"/>
<stop offset="0.23" stop-color="#8C4FFF"/>
<stop offset="0.32" stop-color="#A016FF"/>
<stop offset="0.37" stop-color="#A800FF"/>
<stop offset="0.44" stop-color="#C043D4"/>
<stop offset="0.51" stop-color="#D680AF"/>
<stop offset="0.58" stop-color="#E8B091"/>
<stop offset="0.64" stop-color="#F4D27B"/>
<stop offset="0.69" stop-color="#FCE76E"/>
<stop offset="0.72" stop-color="#FFEF6A"/>
<stop offset="0.81" stop-color="#BCF589"/>
<stop offset="0.9" stop-color="#84FAA3"/>
<stop offset="0.97" stop-color="#62FDB3"/>
<stop offset="1" stop-color="#55FFBA"/>
</linearGradient>
<clipPath id="clip0_26835_29186">
<rect width="63" height="88" fill="white"/>
</clipPath>
<clipPath id="clip1_26835_29186">
<rect width="71.29" height="92.84" fill="white" transform="translate(-4 -2)"/>
</clipPath>
</defs>
</svg>
