<svg width="63" height="88" viewBox="0 0 63 88" fill="none" xmlns="http://www.w3.org/2000/svg">
<rect width="63" height="88" rx="4" fill="url(#paint0_linear_26835_29187)"/>
<g clip-path="url(#clip0_26835_29187)">
<g clip-path="url(#clip1_26835_29187)">
<path d="M56.44 0.740234H6.56C3.22972 0.740234 0.529999 3.43996 0.529999 6.77023V81.2302C0.529999 84.5605 3.22972 87.2602 6.56 87.2602H56.44C59.7703 87.2602 62.47 84.5605 62.47 81.2302V6.77023C62.47 3.43996 59.7703 0.740234 56.44 0.740234Z" fill="#0659FF"/>
<path fill-rule="evenodd" clip-rule="evenodd" d="M59.01 62.9602C58.17 65.1002 56.78 67.0902 54.15 66.9702C53.39 66.9502 52.77 66.7402 52.24 66.4302C51.16 72.7502 49.18 78.8902 45.26 84.7502C48.05 84.9602 48.68 87.0402 48.68 87.0402C48.02 79.2402 50.72 77.3402 58.3 72.1202C58.61 71.9302 58.86 71.8002 59.19 71.6802L62.27 70.0702C59.67 69.6902 59.63 67.5902 59.26 65.3302C59.15 64.5302 59.08 63.7602 59.01 62.9502V62.9602Z" fill="#55DFFF"/>
<path fill-rule="evenodd" clip-rule="evenodd" d="M35.7 52.5402C35.7 52.5402 33.97 51.8702 33.44 53.8902C32.91 55.9102 32.99 58.5202 32.99 58.5202C32.99 58.5202 30.39 59.7202 30.73 62.6502L35.38 62.9702L38.04 53.8902L35.71 52.5402H35.7Z" fill="#00396D"/>
<path fill-rule="evenodd" clip-rule="evenodd" d="M28.89 61.9001L21.79 45.3301C18.97 43.8701 16.61 41.6401 14.8 39.0401C14.09 38.0201 13.45 36.9201 12.9 35.7801C12.88 35.8101 12.87 35.8301 12.85 35.8601C12.69 36.0601 12.43 36.1301 12.19 36.0501C10.43 35.4201 8.62 34.9201 6.78 34.5701C6.52 34.5201 6.33 34.3101 6.3 34.0401C6.27 33.7801 6.43 33.5401 6.67 33.4301C8 32.9201 10.61 31.8901 10.61 31.8901L11.3 31.3301C7.77 32.3901 4.2 33.3201 0.61 34.1701C0.58 34.1801 0.54 34.1901 0.5 34.1901L0.52 41.6701C0.52 41.6701 2.54 43.1801 4.23 44.9601C6.2 47.0401 7.66 49.5401 8.75 52.1801C8.79 52.2801 8.8 52.3701 8.79 52.4801C7.6 61.9401 5.3 71.2501 2.84 80.4501C5.36 74.0601 7.34 67.4701 9 60.8001C9.06 60.5601 9.25 60.3901 9.5 60.3601C9.68 60.3401 9.85 60.4001 9.98 60.5101C10.64 58.4701 10.79 56.0401 10.81 54.0101C10.81 53.7101 11.04 53.4601 11.34 53.4301C11.48 53.4201 11.62 53.4101 11.75 53.4001C11.6 53.2901 11.5 53.1201 11.5 52.9301C11.5 52.6201 11.73 52.3601 12.04 52.3301C13.18 52.2201 14.51 51.9001 15.23 50.9201C16.4 49.3301 15.5 46.5201 14.86 44.9001C14.75 44.6301 14.86 44.3301 15.1 44.1801C15.35 44.0301 15.66 44.0801 15.85 44.3001C19.7 48.8001 22.87 53.0701 24.12 58.9601C24.18 59.2201 24.06 59.4801 23.82 59.6101C23.58 59.7301 23.3 59.6901 23.12 59.5001C22.03 58.3701 20.8 57.2901 19.47 56.3601C21.68 58.1001 23.63 60.3201 25.31 62.2001C25.49 62.4001 25.51 62.6801 25.37 62.9101C25.23 63.1401 24.96 63.2401 24.71 63.1601L23.74 62.8701C23.85 63.1401 23.94 63.4201 24.03 63.7001C25.58 68.7501 23.41 74.6901 21.3 79.2601C21.25 79.3601 21.19 79.4401 21.1 79.5001C18.33 81.4001 15.45 83.1401 12.54 84.8101C11.72 85.2801 10.89 85.7401 10.06 86.2001C12.8 85.2001 15.87 84.2601 18.66 84.3701C23.57 79.0201 29.08 74.2801 34.97 70.0401C32.1 67.8901 30.1 65.4101 28.89 61.9001Z" fill="#1CE61C"/>
<path fill-rule="evenodd" clip-rule="evenodd" d="M47.8924 24.603C47.9907 24.8145 48.0791 25.025 48.1873 25.2376C49.528 28.1547 50.9656 31.0117 52.6146 33.7704C52.6481 33.8343 52.6716 33.8971 52.6742 33.9678C52.8049 36.5357 52.6409 39.1329 52.3099 41.6923C53.0622 40.2836 53.9663 38.9613 54.9844 37.7014C54.2712 37.1232 53.6974 36.3687 53.7088 35.4045C53.7182 34.4603 54.2944 33.576 54.8946 32.845C51.9875 30.4762 49.6868 27.6989 47.8924 24.603Z" fill="white"/>
<path d="M1.32 28.88C1.32 28.88 8.53 28.64 13 28.27L14.8 30.63C14.8 30.63 15.18 37.67 16.73 40.63H6.22C6.22 40.63 4.92 44.42 5.62 46.88C5.62 46.88 4.08 50.39 9.58 53.35C15.08 56.31 20.82 61.89 21.37 65.21L24.67 64.22L15.22 45.77L22.21 40.34L16.49 24.04L1.31 24.7V28.89L1.32 28.88Z" fill="#00396D"/>
<path d="M16.45 20.5804L3.09 21.6204L1.36 21.4004L0.419998 26.9404L13.94 26.6604L17.45 26.5804L17.85 24.6604L18.74 20.4004L16.45 20.5804Z" fill="#C97042"/>
<path d="M3.92999 1.3501C2.85999 1.3501 1.42999 3.4401 1.42999 4.5001L1.99999 18.1901C1.99999 16.4301 3.42999 15.0001 5.18999 15.0001H33.59C34.8 15.0001 35.94 14.4501 36.7 13.5101L44.8 3.4801C45.56 2.5401 46.7 1.9901 47.91 1.9901L3.92999 1.3501Z" fill="url(#paint1_linear_26835_29187)"/>
<path d="M59 0H4C1.79 0 0 1.79 0 4V84C0 86.21 1.79 88 4 88H59C61.21 88 63 86.21 63 84V4C63 1.79 61.21 0 59 0ZM61 82.81C61 84.57 59.57 86 57.81 86H5.19C3.43 86 2 84.57 2 82.81V16.9C2 8.67 8.67 2 16.9 2H57.81C59.57 2 61 3.43 61 5.19V82.81Z" fill="url(#paint2_linear_26835_29187)"/>
<mask id="mask0_26835_29187" style="mask-type:luminance" maskUnits="userSpaceOnUse" x="0" y="0" width="63" height="88">
<path d="M59 0H4C1.79 0 0 1.79 0 4V84C0 86.21 1.79 88 4 88H59C61.21 88 63 86.21 63 84V4C63 1.79 61.21 0 59 0ZM61 82.81C61 84.57 59.57 86 57.81 86H5.19C3.43 86 2 84.57 2 82.81V18.19C2 16.43 3.43 15 5.19 15H33.59C34.8 15 35.94 14.45 36.7 13.51L44.8 3.48C45.56 2.54 46.7 1.99 47.91 1.99H57.81C59.57 1.99 61 3.42 61 5.18V82.8V82.81Z" fill="white"/>
</mask>
<g mask="url(#mask0_26835_29187)">
<path d="M68.37 47.3101V26.6401L4.46001 90.5501H25.13L68.37 47.3101Z" fill="white"/>
<path d="M64.66 -2.29004H55.22L-2.92 55.84V66.18L65.46 -2.20004C65.2 -2.26004 64.93 -2.29004 64.66 -2.29004Z" fill="white"/>
<path d="M68.37 69.2298V61.5498L39.37 90.5498H47.05L68.37 69.2298Z" fill="white"/>
</g>
<path d="M57.83 19.76L56.13 21.04L55.72 20.74L54.64 19.94L54.95 19.3L55.17 18.83L54.63 15.48L56 15.72L56.24 16.17L57.24 16.67L57.15 17.49L57.69 18.18L57.29 18.77L57.83 19.76Z" fill="#C97042"/>
<path d="M55.72 20.7402L54.64 19.9502L54.71 19.4302C54.71 19.4302 55.84 19.9202 55.73 20.7402H55.72Z" fill="#8D5025"/>
<path d="M51.25 14.8799L39.07 15.4699L39.67 19.0799L50.97 17.5799L52.39 16.0999L51.25 14.8799Z" fill="#C97042"/>
<path d="M41.79 15.3401L47.65 15.0601L41.7 16.0301L41.79 15.3401Z" fill="white"/>
<path d="M52.39 19.01L53.3 20.37L55.25 21.1C55.25 21.1 55.85 20 53.92 18.77L52.39 19V19.01Z" fill="#C97042"/>
<path d="M50.95 29.1098L44.18 41.5698L40.83 44.1098L36.13 47.6598C32.88 48.9498 30.99 47.3098 30.99 47.3098V40.6298C32.67 37.9998 35.67 35.0398 38.34 32.6698C41.24 30.0898 43.75 28.2098 43.75 28.2098L50.09 26.8398L50.95 29.1098Z" fill="#C97042"/>
<path d="M40.14 44.62L41.27 35.84C41.27 35.84 43.48 33.71 46.07 33.46L42.68 42.7L40.14 44.62Z" fill="#75401C"/>
<path d="M32.87 47.22C29.87 50.82 25.67 50.28 25.67 50.28L21.73 44.03L21.37 43.45C21.37 43.45 21.34 43.42 21.33 43.4C20.76 42.73 20.25 42.06 19.8 41.4C19.09 40.36 18.53 39.33 18.1 38.34C16.97 35.74 16.69 33.34 16.83 31.27C16.92 30.01 17.16 28.87 17.46 27.9C18.21 25.47 19.33 24 19.33 24L27.44 30.03L28.61 30.9L29.11 31.27L30.98 32.66C30.64 33.87 30.5 35.1 30.49 36.21C30.49 36.32 30.49 36.42 30.49 36.53V36.55C30.49 36.61 30.49 36.68 30.49 36.74C30.49 36.88 30.49 37.02 30.5 37.15C30.52 37.57 30.55 37.96 30.58 38.32C30.58 38.42 30.6 38.51 30.61 38.6C30.66 39.06 30.73 39.46 30.79 39.78C30.89 40.31 30.98 40.62 30.98 40.62L31.67 43.03L32.87 47.22Z" fill="#C97042"/>
<path d="M23.28 29.7799C23.28 29.7799 20.11 31.6599 16.83 31.2699C16.92 30.0099 17.16 28.8699 17.46 27.8999L19.55 26.4399L23.28 29.7799Z" fill="#75401C"/>
<path d="M30.49 36.5299C30.49 36.5999 30.49 36.6699 30.49 36.7399C30.46 35.9599 29.18 34.4599 27.14 34.3999C23.83 34.2999 22.18 32.7999 22.18 32.7999C21.21 31.8699 20.48 29.9199 20.48 29.9199L27.44 30.0299L28.61 30.8999L29.11 31.2699L30.98 32.6599C30.6 33.9899 30.48 35.3299 30.49 36.5199V36.5299Z" fill="#75401C"/>
<path d="M40.97 23.9998C40.97 23.9998 40.51 26.5898 39.65 28.6998C39.64 28.7198 39.63 28.7498 39.62 28.7698C39.62 28.7698 39.61 28.7998 39.6 28.8098C39.59 28.8298 39.58 28.8598 39.57 28.8798C39.42 29.2198 39.27 29.5498 39.1 29.8398C39.08 29.8798 39.05 29.9198 39.03 29.9598C39 30.0098 38.97 30.0598 38.94 30.0998C38.93 30.1198 38.92 30.1298 38.91 30.1498C38.87 30.1998 38.84 30.2598 38.8 30.3098C38.78 30.3398 38.76 30.3698 38.74 30.3898C38.59 30.5998 38.42 30.7898 38.25 30.9398C38.22 30.9698 38.19 30.9898 38.15 31.0198C38.15 31.0198 38.13 31.0298 38.13 31.0398C37.93 31.1998 37.72 31.3398 37.5 31.4798C37.47 31.4998 37.43 31.5198 37.4 31.5398C36.44 32.1298 35.32 32.5298 34.16 32.7998H33.68C33.42 32.9098 32.27 33.1198 32.27 33.1198C28.69 33.5398 25 32.9998 23.45 32.7198C22.91 32.6198 22.45 32.2998 22.16 31.8298C20.6 29.2898 19.36 23.9698 19.36 23.9698C20.65 20.1998 23.9 19.5998 23.9 19.5998L25.47 19.6498L26.64 19.6898L28.95 17.9998C29.87 17.5298 30.72 17.2198 31.52 17.0398C38.34 15.5698 40.98 23.9698 40.98 23.9698L40.97 23.9998Z" fill="#C97042"/>
<path d="M46.06 33.4702C43.58 34.3602 41.95 36.1702 41.95 36.1702L41.89 44.1402L39.73 49.7102L37.72 49.1902C36.98 49.0002 36.19 49.3102 35.81 49.9802C34.49 52.2702 34.67 56.5702 34.67 56.5702C29.79 59.4802 31.84 62.8202 34.33 66.8502C36.82 70.8802 37.76 60.7702 37.76 60.7702L43.76 50.2902L53.01 32.6202C54.27 29.2402 53.42 27.4502 52.65 26.6102C52.25 26.1702 51.61 26.0702 51.08 26.3402L50.1 26.8402L46.07 33.4702H46.06Z" fill="#C97042"/>
<path d="M40.82 44.1002L36.12 47.6502C32.87 48.9402 30.98 47.3002 30.98 47.3002V40.6202C31.34 40.0502 31.77 39.4702 32.24 38.8802C33.94 36.7402 36.24 34.5202 38.33 32.6602C38.29 32.7502 35.99 38.7602 40.82 44.1002Z" fill="#071D2A"/>
<path d="M26.96 48.8502C26.96 48.8502 25.07 54.3302 19.93 51.9302L16.46 47.0302L10.51 38.6502L11.02 37.4502L15.67 38.3402L16.42 38.4802C16.42 38.4802 23.02 41.3902 26.36 46.2802L26.96 48.8502Z" fill="#C97042"/>
<path d="M14.79 41.8198C14.79 41.8198 17.77 39.4998 21.37 45.7598L14.79 41.8198Z" fill="#75401C"/>
<path opacity="0.35" d="M23.83 44.15L21.33 43.41C19.85 41.67 18.81 39.97 18.1 38.35C20.79 37.49 23.82 44.16 23.82 44.16L23.83 44.15Z" fill="#131A0B"/>
<path d="M31.67 43.0298L31.15 43.5798H21.93L19.8 41.3998C29.09 42.9398 30.75 39.8598 30.8 39.7798C30.9 40.3098 30.99 40.6198 30.99 40.6198L31.68 43.0298H31.67Z" fill="black"/>
<path d="M32.87 47.2201C29.87 50.8201 25.67 50.2801 25.67 50.2801L21.73 44.0301L21.04 42.0901C29 43.8401 30.98 40.6201 30.98 40.6201L32.87 47.2201Z" fill="#071D2A"/>
<path d="M25.74 45.4398C25.74 45.4398 24.76 43.1798 23.61 42.1498L21.31 42.0098L23.72 45.4398H25.73H25.74Z" fill="black"/>
<path d="M26.36 46.2801L26.96 48.8501C26.96 48.8501 25.07 54.3301 19.93 51.9301L16.46 47.0301L16.52 44.1001C16.52 44.1001 17.65 40.7501 15.68 38.3301L16.43 38.4701C16.43 38.4701 23.03 41.3801 26.37 46.2701L26.36 46.2801Z" fill="#071D2A"/>
<path d="M14.79 41.82C15.51 41.98 16.11 42.2 16.59 42.43C17.59 42.91 18.31 43.83 18.51 44.92L19.48 50.12L21.98 54.58C24.46 53.72 25.84 58.86 25.84 58.86C25.84 58.86 28.32 60.32 30.72 62.63C33.12 64.94 30.89 73 27.12 71.03C23.35 69.06 21.58 60.37 21.58 60.37C21.58 60.37 17.77 55.55 14.04 53.75C11.51 52.53 9.62 50.45 8.67 49.25C8.22 48.68 7.97 48 7.93 47.28L7.84 45.34C5.12 41.79 6.42 38.48 7.29 36.99C7.57 36.51 8.16 36.3 8.68 36.51L11.01 37.46L14.78 41.83L14.79 41.82Z" fill="#C97042"/>
<path d="M27.64 22.1802C27.64 22.1802 27.01 28.2202 23.28 29.7802C23.28 29.7802 18.15 31.5402 13.93 26.6602C13.38 26.0302 12.86 25.2902 12.36 24.4202C12.36 24.4202 12.72 23.9702 13.36 23.3002C14.08 22.5502 15.14 21.5402 16.45 20.5802C17.65 19.7002 19.06 18.8702 20.59 18.3502C21.05 18.1902 21.52 18.0602 22 17.9702C22 17.9702 25.34 18.5102 27.64 22.1802Z" fill="#C97042"/>
<path opacity="0.35" d="M22.57 19.8299L20.59 18.3599C19.06 18.8799 17.65 19.7099 16.45 20.5899L3.09 21.6299L2 21.4899V26.1999L5.62 25.5799L7.78 25.5399L9.65 24.5499L11.63 24.6199L12.99 23.0599L13.35 23.3099L14.2 23.9099L16.24 23.1999L17.2 24.3499L17.84 24.6699L19.19 25.3599L18.86 26.3099L19.02 27.4399L17.22 28.4599L19.58 28.1299L18.44 29.3199L20.45 28.4399L20.68 27.8499L20.72 28.9999L20.21 29.5799L21.38 28.9499L21.3 28.3999L21.7 27.8699L21.26 26.9899L21.43 25.9399L20.67 24.1599L21.84 23.8699L22.18 22.7999L23.29 21.9999L22.55 19.8299H22.57Z" fill="#131A0B"/>
<path d="M32.25 46.8699L30.99 40.6199C31.35 40.0499 31.78 39.4699 32.25 38.8799C32.25 38.8799 31.55 42.5299 32.25 46.8699Z" fill="black"/>
<path d="M33.44 20.8101L25.45 19.6901L26.62 19.7301L28.93 18.0401C29.85 17.5701 30.7 17.2601 31.5 17.0801L33.43 20.8101H33.44Z" fill="#C97042"/>
<path d="M27.68 18.9399L28.93 18.0299C28.93 18.0299 30.36 17.2299 31.08 17.1899V17.9099L27.68 18.9499V18.9399Z" fill="white"/>
<path d="M26.62 19.7199H31.55L35.71 29.7099C35.71 29.7099 30.84 29.1399 28.41 26.0199C25.98 22.8999 28.32 21.8199 25.45 19.6899L26.62 19.7299V19.7199Z" fill="#75401C"/>
<path fill-rule="evenodd" clip-rule="evenodd" d="M48.95 18.27C48.78 18.4 48.59 18.5 48.38 18.56L48.5 18.59C48.68 18.64 48.79 18.8 48.78 18.99C48.77 19.17 48.63 19.32 48.45 19.34C47.67 19.44 46.99 19.72 46.39 20.23C46.26 20.34 46.09 20.35 45.94 20.27C45.8 20.18 45.73 20.02 45.76 19.86L46.37 14.45C46.37 14.45 46.37 14.45 46.39 14.45C46.27 14.29 46.16 14.13 46.05 13.97C46.04 14.33 46.02 14.69 46 15.04C45.95 15.92 45.86 16.84 45.7 17.7C45.61 18.18 45.42 19.11 44.94 19.34C43.66 19.95 42.38 17.73 41.93 16.79C41.9 16.73 41.89 16.68 41.89 16.61C41.95 15.42 42.76 14.48 43.55 13.65C42.76 13.12 42.13 12.43 41.67 11.57C41.63 11.49 41.61 11.41 41.63 11.32C41.75 10.6 41.82 9.84 41.88 9.11C41.95 8.27 41.99 7.43 42.08 6.6C42.11 6.31 42.15 6 42.22 5.72C42.29 5.44 42.43 5.11 42.78 5.12C42.86 5.12 42.93 5.15 42.99 5.19C42.46 4 42.37 2.82 41.57 1.53C41.5 1.53 41.43 1.51 41.36 1.5C41.4 1.53 41.43 1.57 41.46 1.61C42.41 2.75 41.9 4.89 41.55 6.17C41.26 7.24 40.91 8.29 40.54 9.34C40.16 10.43 39.77 11.52 39.41 12.62C40.07 13.07 40.78 13.46 41.5 13.8C41.63 13.86 41.71 13.98 41.72 14.12C41.73 14.26 41.67 14.39 41.55 14.47C40.54 15.14 39.75 16.1 39.08 17.11C40.81 17.61 42.16 18.62 42.63 20.43C44.34 20.65 45.75 21.41 46.65 22.9C46.71 22.64 46.78 22.38 46.85 22.12C46.86 22.07 46.88 22.03 46.92 21.98C47.72 20.98 48.7 20.21 49.83 19.64C49.46 19.23 49.17 18.78 48.94 18.28L48.95 18.27Z" fill="white"/>
<path d="M43 21.9802L42.87 22.2302L42.64 22.6702L42.39 23.1502C42.42 23.3902 42.43 23.6502 42.43 23.8902C42.43 24.4102 42.39 24.8402 42.39 24.8402L40.83 27.8702V28.2602L40.42 29.0002L39.63 30.4202L39.45 30.7402C38.19 31.1902 36.65 30.5902 36.47 30.5202H36.46L32.95 26.6702L32.78 24.8502C32.06 25.3702 31.27 24.4202 30.93 23.8702C30.58 23.3202 29.86 21.2402 30.61 20.7702C30.69 20.7202 30.78 20.6902 30.86 20.6702C30.98 20.6502 31.09 20.6502 31.21 20.6702C31.22 20.6702 31.23 20.6702 31.24 20.6702C31.82 20.7802 32.38 21.3002 32.42 21.3302L33.03 16.3402L39.09 15.4702L42.36 18.0702C42.36 18.0702 42.36 18.0702 42.36 18.0902C42.51 18.4402 42.62 18.8302 42.71 19.2202C42.75 19.3902 42.78 19.5602 42.81 19.7202C42.95 20.5202 42.99 21.2902 43.01 21.6802C43.01 21.7802 43.01 21.8502 43.01 21.9002V21.9602L43 21.9802Z" fill="#C97042"/>
<path d="M38.61 23.4298C38.61 23.4298 38.26 24.5898 37.25 24.3598C36.24 24.1298 36.12 23.1698 36.19 22.9898C36.26 22.8098 37.04 22.2498 37.69 22.3398C38.34 22.4298 38.76 22.8998 38.6 23.4398L38.61 23.4298Z" fill="#75401C"/>
<path d="M42.38 23.15C42.41 23.39 42.42 23.65 42.42 23.89C42.29 24.14 41.82 24.55 41.24 24.15C40.66 23.75 40.73 23.3 40.73 23.3C42.07 21.6 42.6 22.63 42.6 22.63L42.64 22.67L42.39 23.15H42.38Z" fill="#75401C"/>
<path d="M38.44 23.3702C38.44 23.3702 37.54 24.4702 36.63 23.0402C36.63 23.0402 38.25 21.5902 38.44 23.3702Z" fill="#071D2A"/>
<path d="M40.74 23.3002C40.74 23.3002 42.48 21.5502 42.17 23.1902C42.17 23.1902 42.21 24.3102 40.74 23.3002Z" fill="#071D2A"/>
<path d="M37.41 28.4098C37.41 28.4098 38.59 27.8098 39.59 27.5698L40.1 27.7598L40.5 27.5698C40.5 27.5698 40.93 27.7698 40.83 28.2598L37.42 28.3998L37.41 28.4098Z" fill="#873B14"/>
<path d="M37.41 28.41C37.41 28.41 40.28 30.39 40.82 28.27L37.41 28.41Z" fill="#EAA373"/>
<path d="M38.44 23.37C38.44 23.37 38.29 21.96 36.63 23.04C36.63 23.04 37.35 24.02 38.44 23.37Z" fill="white"/>
<path d="M40.74 23.2999C40.74 23.2999 42.21 21.8399 42.17 23.1899C42.17 23.1899 42.06 23.9499 40.74 23.2999Z" fill="white"/>
<path d="M40.82 26.2502C40.82 26.2502 40.4 26.6102 39.89 26.3402L39.17 26.4402C39.17 26.4402 38.37 26.6702 38.3 26.1502C38.23 25.6302 38.66 24.9802 39.2 25.1402L39.26 22.9102L40.73 23.3102L40.34 23.5702L40.54 25.0802C40.54 25.0802 41.41 25.5102 41.21 26.0202C41.07 26.4002 40.82 26.2502 40.82 26.2502Z" fill="url(#paint3_linear_26835_29187)"/>
<path d="M39.9 26.33C39.9 26.33 39.21 25.94 38.82 26.21C38.43 26.48 39.18 26.43 39.18 26.43L39.9 26.33Z" fill="#071D2A"/>
<path d="M40.82 26.2498C40.82 26.2498 40.91 26.0898 41.01 26.0598C41.11 26.0298 41 26.2198 40.82 26.2498Z" fill="#071D2A"/>
<path d="M34.01 23.8901L35.7 26.1201L35.93 28.1401C35.93 28.1401 35.48 27.6201 35.32 26.2501L34 23.8901H34.01Z" fill="#873B14"/>
<path d="M31.08 23.57C31.08 23.57 30.33 22.04 30.7 21.35C31.07 20.66 32.31 21.96 32.46 22.5L32.33 23.2L32.47 23.57C32.53 23.73 32.41 23.9 32.24 23.9H32.1C32.1 23.9 30.64 22.44 31.75 22.33C31.75 22.33 30.91 20.9 30.84 21.86C30.77 22.82 31.07 23.58 31.07 23.58L31.08 23.57Z" fill="#75401C"/>
<path d="M35.7 21.8902C35.7 21.8902 36.24 21.3502 37.41 21.3702L38.89 21.8902L39.48 22.3102C39.48 22.3102 39.33 22.5802 38.65 22.3102C37.97 22.0402 37.18 21.9102 36.84 21.9302C36.5 21.9502 35.71 21.8902 35.71 21.8902H35.7Z" fill="#071D2A"/>
<path d="M41.05 22.32L41.45 21.93L42.63 21.52L42.99 21.69V21.97L42.86 22.22L42.56 22L41.68 22.23C41.68 22.23 41.24 22.51 41.04 22.31L41.05 22.32Z" fill="#071D2A"/>
<path d="M32.41 21.3302C32.41 21.3302 33.08 22.0502 33.13 22.6202C33.13 22.6202 33.69 22.0802 34.02 20.9202L35.71 19.7002V17.9202C35.71 17.9202 41.65 18.9902 42.35 18.0602C42.35 18.0602 42.7 18.9802 42.81 19.7302C42.81 19.7302 43.2 17.8102 42.42 16.2902C41.64 14.7702 39.71 12.9902 38.15 12.8202C36.59 12.6502 33.29 12.8202 31.99 14.6402C30.69 16.4602 30.48 18.4502 30.85 20.6602C30.85 20.6602 31.38 20.4502 32.42 21.3202L32.41 21.3302Z" fill="#071D2A"/>
<path d="M39.62 30.4302L39.44 30.7502C38.18 31.2002 36.64 30.6002 36.46 30.5302C36.59 30.5802 37.38 30.8502 38.3 30.5202C38.97 30.2702 39.41 30.3602 39.62 30.4402V30.4302Z" fill="#75401C"/>
<path d="M32.25 33.1498C32.25 33.1498 34.09 32.8298 34.63 31.5098C34.63 31.5098 34.66 32.3598 34.15 32.8198H33.67C33.67 32.8198 33.16 33.0198 32.26 33.1498H32.25Z" fill="#5C3013"/>
<path d="M51.25 14.8798L52.25 14.5298L54.72 15.2898C54.72 15.2898 57.84 17.7798 56.2 20.0398L54.5 19.5298L52.8 19.8298L52.07 18.5798L50.97 17.5798L51.25 14.8798Z" fill="#071D2A"/>
<path d="M47.65 15.06C47.65 15.06 48.85 16.16 47.51 18.04L48.6 17.89L49.18 15.47L48.67 15L47.64 15.05L47.65 15.06Z" fill="#8D5025"/>
<path d="M51.25 14.8799L47.85 15.0499C47.85 15.0499 49.15 15.9699 48.15 17.9599L50.97 17.5899L52.01 16.2799L51.25 14.8899V14.8799Z" fill="#071D2A"/>
<path opacity="0.35" d="M29.29 38.0999C29.11 38.3399 28.86 38.4999 28.55 38.5799C28.24 38.6599 27.94 38.6499 27.64 38.5599C27.41 38.4899 27.22 38.3699 27.05 38.2099C26.94 38.0999 26.84 37.9799 26.78 37.8299C26.76 37.7799 26.73 37.7299 26.71 37.6799C26.7 37.6799 26.69 37.6799 26.68 37.6899C26.68 37.7199 26.7 37.7599 26.71 37.7899C26.76 38.0099 26.87 38.1899 27.04 38.3499C27.33 38.6199 27.71 38.7499 28.11 38.7799C28.37 38.7999 28.64 38.7799 28.89 38.6699C28.99 38.6299 29.09 38.5899 29.17 38.5299C29.3 38.4399 29.41 38.3299 29.5 38.1999C29.59 38.0699 29.65 37.9299 29.68 37.7799C29.73 37.5899 29.7 37.3899 29.68 37.1999C29.67 37.0899 29.64 36.9699 29.58 36.8699C29.44 36.5899 29.24 36.3499 28.93 36.1999C28.83 36.1499 28.71 36.0999 28.6 36.0799C28.43 36.0599 28.25 36.0599 28.08 36.0799C27.92 36.0899 27.77 36.1499 27.63 36.2099C27.45 36.2899 27.32 36.4199 27.21 36.5599C27.12 36.6799 27.03 36.7999 27 36.9399C26.98 37.0499 26.96 37.1599 26.94 37.2699C26.91 37.4599 26.94 37.6399 27.03 37.8099C27.12 37.9799 27.25 38.1299 27.43 38.2399C27.6 38.3399 27.79 38.3999 27.99 38.4099C28.19 38.4099 28.39 38.3999 28.57 38.3099C28.78 38.2199 28.94 38.0899 29.03 37.9099C29.17 37.6399 29.14 37.3599 29.01 37.0899C28.93 36.9199 28.78 36.7999 28.6 36.7299C28.41 36.6599 28.21 36.6499 28 36.7199C27.76 36.7999 27.59 36.9399 27.5 37.1499C27.47 37.2099 27.47 37.2799 27.45 37.3499C27.4 37.4899 27.47 37.5899 27.57 37.6699C27.61 37.6999 27.67 37.7399 27.73 37.6999C27.81 37.6599 27.84 37.5799 27.77 37.4999C27.63 37.3599 27.71 37.1499 27.81 37.0499C28.04 36.8199 28.36 36.8199 28.62 36.9799C28.73 37.0499 28.81 37.1499 28.86 37.2699C28.93 37.4499 28.94 37.6199 28.86 37.7899C28.76 37.9999 28.57 38.1199 28.34 38.1599C28.15 38.1899 27.95 38.2099 27.76 38.1399C27.43 38.0399 27.23 37.8299 27.14 37.5399C27.09 37.3599 27.1 37.1699 27.18 36.9799C27.27 36.7699 27.42 36.5999 27.62 36.4699C27.78 36.3699 27.96 36.2899 28.15 36.2699C28.29 36.2499 28.42 36.2699 28.56 36.2999C28.72 36.3399 28.87 36.3899 28.99 36.4999C29.18 36.6599 29.31 36.8599 29.39 37.0999C29.45 37.2699 29.49 37.4399 29.45 37.6299C29.42 37.7899 29.36 37.9399 29.26 38.0799L29.29 38.0999Z" fill="#131A0B"/>
<path opacity="0.35" d="M30.49 36.2098C30.49 36.3198 30.49 36.4198 30.49 36.5298V36.5498L30.2 36.9798C30.2 36.9798 29.65 35.5998 28.24 35.6198C26.83 35.6398 26.35 36.9198 26.35 36.9198L25.35 36.1998L26.36 36.4598C26.47 36.2398 26.81 35.8698 26.81 35.8698L26.3 34.6698L27.24 35.6398C28.13 35.2498 29.05 35.4998 29.05 35.4998L29.84 34.5698L29.56 35.7898C29.94 36.0998 30.12 36.4098 30.12 36.4098L30.5 36.1998L30.49 36.2098Z" fill="#131A0B"/>
<path opacity="0.35" d="M29.62 39.0301L29.96 40.2301L29.13 39.3501C29.13 39.3501 28.22 39.6601 27.31 39.3201L26.41 40.3401L26.87 39.1101C26.87 39.1101 26.52 38.7601 26.4 38.5501L25.4 38.8701L26.37 38.0901C26.37 38.0901 26.9 39.3401 28.31 39.2801C29.72 39.2201 30.21 37.8101 30.21 37.8101L30.6 38.3301C30.6 38.4301 30.62 38.5201 30.63 38.6101L30.15 38.3801C30.15 38.3801 29.99 38.7001 29.62 39.0301Z" fill="#131A0B"/>
<path d="M16.45 20.58C16.45 20.58 19.08 18.37 22 17.98C22 17.98 22.91 18.3 23.31 18.7C23.31 18.7 19.15 19.15 16.45 20.59V20.58Z" fill="white"/>
<path d="M2 21.4801L3.09 21.6201L16.45 20.5801L3.19 22.3901L2 22.2901V21.4801Z" fill="white"/>
<path fill-rule="evenodd" clip-rule="evenodd" d="M50.3 50.6901C50.86 49.5301 51.37 48.3401 51.8 47.0901C51.86 46.9201 51.98 46.8001 52.15 46.7301C53.91 46.1101 55.62 45.1901 57.17 44.1701C57.33 44.0601 57.51 44.0501 57.69 44.1101C57.87 44.1801 58 44.3101 58.05 44.5001C58.13 44.7901 58.24 45.0701 58.36 45.3501C58.47 43.8301 58.7 42.3201 58.99 40.8301C58.84 40.9501 58.7 41.0801 58.56 41.2101C57.81 41.8401 57.02 42.4301 56.22 42.9801C55.39 43.5601 54.54 44.1001 53.67 44.5901C53.02 44.9601 52.34 45.3201 51.65 45.6201C51.3 47.3301 50.83 49.0101 50.32 50.6801L50.3 50.6901Z" fill="white"/>
<path fill-rule="evenodd" clip-rule="evenodd" d="M45.58 49.3299C45.24 49.8599 44.82 50.3599 44.29 50.5799C44.11 50.6599 43.9 50.5799 43.8 50.4099C43.01 48.9799 43.67 47.0499 44.29 45.6899C44.31 45.6499 44.33 45.6199 44.36 45.5899C44.94 44.9499 45.63 44.5199 46.44 44.3099C46.32 43.2499 46.12 42.2199 45.83 41.1899C45.35 42.7999 44.62 44.2899 43.55 45.6199C43.52 46.8799 43.19 47.9799 42.52 49.0699C42.43 49.2099 42.27 49.2799 42.1 49.2399C41.54 49.0999 41 48.9099 40.47 48.6899C42.95 52.1499 44.24 55.7499 44.21 60.2299C44.21 60.2699 44.21 60.3099 44.19 60.3399C42.58 65.4299 39.7 70.7799 35.73 74.3899L27.24 82.0999L30.43 79.6699C30.58 79.5499 30.79 79.5599 30.93 79.6999C31.07 79.8399 31.09 80.0399 30.98 80.1999C29.45 82.3499 27.67 84.2199 25.75 85.9899C32.63 82.6099 38.56 78.0299 43.66 72.3699C40.54 74.6899 37.23 76.7299 33.75 78.4899C33.59 78.5699 33.39 78.5299 33.27 78.3899C33.16 78.2399 33.16 78.0399 33.28 77.8999C34.79 76.1399 36.33 74.3899 37.97 72.7499C39.51 71.2099 41.15 69.7599 42.95 68.5199C45.22 63.4999 48.57 59.3399 53.29 56.4599C54.34 54.8199 55.64 53.4399 57.05 52.1299C55.07 52.9599 53.55 53.7999 51.66 54.8499C51.53 54.9199 51.39 54.9199 51.26 54.8299C51.14 54.7099 51.09 54.4699 51.09 54.4699L50.79 53.2299L50.29 55.3899C50.25 55.5799 50.07 55.6999 49.88 55.6899C49.55 55.6599 49.24 55.5399 48.98 55.3299C48.33 54.8099 48.14 53.8699 47.95 52.9999C47.8 53.1699 47.6 53.2899 47.36 53.2999C47.19 53.3099 47.02 53.2799 46.87 53.2199C46.4 52.9999 46.18 52.4699 46.05 51.9999C45.89 51.4499 45.82 50.8599 45.73 50.2899C45.68 49.9899 45.64 49.6399 45.56 49.2999L45.58 49.3299Z" fill="white"/>
<path fill-rule="evenodd" clip-rule="evenodd" d="M11.44 23.1301C11.44 23.1301 14.61 21.4101 16.32 20.8801C16.53 20.8501 16.73 20.9601 16.81 21.1601C17.46 22.7801 18.41 24.8601 19.7 26.0901C20.04 26.4101 20.4 26.6701 20.81 26.9001C21.16 27.0901 21.52 27.2601 21.85 27.4701C22.4 27.8301 22.77 28.2601 23.06 28.8501C23.1 28.9301 23.12 29.0101 23.12 29.0901C23.14 29.5301 22.72 29.8001 22.38 29.9901C22.24 30.0701 22.1 30.1401 21.96 30.2101C22.42 30.1501 22.89 30.1301 23.33 30.1001C24.23 30.0601 25.12 30.0401 26.01 30.0301C27.03 30.0201 28.05 30.0201 29.07 30.0301C30.09 30.0301 31.1 30.0301 32.12 30.0201C32.56 30.0201 33 30.0201 33.45 30.0001C29.98 29.7501 26.62 29.1901 23.27 28.1301C21.09 27.4401 20.72 24.3701 20.71 22.3401C20.02 22.0901 19.35 21.6601 19.09 20.9501C18.46 19.2201 20.69 16.9901 21.8 15.9401C21.89 15.8501 22.01 15.8101 22.14 15.8201C22.27 15.8201 22.38 15.8801 22.46 15.9801C22.74 16.3201 22.96 16.6501 23.15 17.0001C23.19 15.6901 23.34 14.3801 23.68 13.1101C23.23 12.9001 22.89 12.5201 22.63 12.0801C22.32 12.7301 21.89 13.3501 21.47 13.9001C20.68 14.9101 19.78 15.8501 18.9 16.7901C18.04 17.7001 17.15 18.6201 16.38 19.6101C16.35 19.6601 16.31 19.6901 16.25 19.7201C14.54 20.7401 11.46 23.1501 11.46 23.1501L11.44 23.1301Z" fill="white"/>
</g>
</g>
<path fill-rule="evenodd" clip-rule="evenodd" d="M6.49771 79C6.98969 79 7.48602 79.213 7.49037 79.6913C7.49037 80.1043 7.24656 80.2696 6.99839 80.2696C6.75023 80.2696 6.73281 80.1435 6.73281 80.1435C6.73281 80.1435 7.02452 79.9261 7.02452 79.7174C7.02452 79.6087 6.94179 79.313 6.489 79.3174C5.8577 79.3174 5.5181 79.6174 5.5181 80.1522C5.5181 80.7652 7.35105 80.9739 7.3554 81.7652C7.3554 82.613 6.47594 82.9957 5.69225 83C5.283 83 5.01306 82.7609 5.00871 82.3783C5.00871 81.9261 5.22204 81.4652 5.75756 81.4652C5.88382 81.4565 5.98831 81.5522 5.99702 81.6783C5.99702 81.6783 5.99702 81.6826 5.99702 81.687C5.99702 81.687 5.45715 81.8391 5.4615 82.3783C5.4615 82.4783 5.56599 82.6609 5.81851 82.6565C6.07103 82.6522 6.82424 82.4739 6.81989 81.8087C6.81989 81.1913 5.00435 81.1087 5 80.1478C5 79.0652 6.08845 79.0087 6.49771 79.0087V79ZM10.747 79.6C10.8123 79.5696 11.2129 79.4913 11.1955 79.813C11.1824 80.1348 10.9386 80.6913 10.9037 80.9348C11.2303 80.7696 11.6918 80.2087 11.6918 80.2087C11.6918 80.2087 12.0183 80.2522 11.9182 80.4522C11.818 80.6522 11.1519 81.1435 11.1519 81.1435C11.1519 81.1435 11.3043 82.5696 12.1707 82.5696C12.6453 82.5696 12.8499 82.3609 12.937 82.287C12.9587 82.2696 12.9762 82.2652 12.9849 82.2783C13.0197 82.387 12.9936 82.5043 12.9152 82.5913C12.8194 82.6957 12.5974 82.8217 12.1533 82.8261C11.3653 82.8261 10.9255 82.1957 10.8123 81.2609C10.7252 81.5348 10.7339 81.9826 10.7209 82.2C10.6948 82.2435 10.2507 82.4174 10.2158 82.1174C10.2158 82.0913 10.2158 82.0696 10.2158 82.0435C10.1331 82.1609 10.0199 82.2826 9.91108 82.2826C9.71951 82.2826 9.63679 82.1217 9.60196 82.0391C9.57584 82.0696 9.3625 82.287 9.08821 82.287C8.92277 82.2913 8.77474 82.1957 8.70943 82.0435C8.57011 82.1435 8.32195 82.2913 8.03895 82.2913C7.73418 82.2913 7.66017 82.1087 7.66017 81.9565C7.66017 81.713 7.84303 80.987 7.84303 80.987C7.84303 80.987 7.48602 81.1304 7.36411 81.1348C7.19431 81.1348 7.11159 80.8217 7.11159 80.813C7.11159 80.8087 7.11159 80.8 7.1203 80.8C7.22044 80.7609 7.94317 80.513 7.94317 80.513C7.94317 80.513 8.07813 79.9826 8.09555 79.913C8.11296 79.8435 8.2131 79.7 8.33065 79.6565C8.41773 79.6217 8.50916 79.6 8.60059 79.5913C8.63107 79.5913 8.65284 79.6 8.65284 79.6174C8.65284 79.6348 8.47433 80.4087 8.47433 80.4087C8.47433 80.4087 8.84876 80.3217 8.98808 80.3217C9.09692 80.3217 9.15352 80.387 9.09257 80.4696C9.03162 80.5522 8.96196 80.6478 8.92712 80.6913C8.88794 80.7348 8.86182 80.7435 8.77039 80.7609C8.64413 80.787 8.36113 80.8565 8.36113 80.8565C8.36113 80.8565 8.13473 81.6783 8.13909 81.8174C8.13909 81.8957 8.16521 81.987 8.26099 81.987C8.35678 81.987 8.53964 81.8739 8.67025 81.7913C8.69202 81.1522 9.18835 80.7261 9.57584 80.7261C9.7021 80.7261 9.65421 80.8478 9.79788 80.8478H9.88931C9.94591 80.8478 10.0069 80.8522 10.0069 80.9957C10.0069 81.1957 9.89367 81.5261 9.89367 81.7348C9.89367 81.8826 9.91544 81.987 9.97204 81.987C10.0678 81.987 10.1767 81.8478 10.255 81.7261C10.3813 81.0304 10.734 79.7609 10.734 79.6174L10.747 79.6ZM12.5016 80.7C12.7672 80.6783 12.9326 80.8217 12.9631 80.9C12.9936 80.9783 12.9892 81.1609 12.9152 81.2913C12.6845 81.7044 12.1097 81.6304 12.1097 81.6304C12.1097 81.6304 12.0444 81.9565 12.3405 81.9565C12.593 81.9565 12.7062 81.8304 12.8151 81.7261C12.8586 81.7261 12.9936 81.8652 12.9326 81.9609C12.8847 82.0348 12.6191 82.2565 12.2795 82.2609C11.7397 82.2609 11.6047 81.8 11.6744 81.4696C11.7658 81.0609 12.1751 80.7217 12.5016 80.6957V80.7ZM9.6455 80.987C9.32332 80.987 8.82699 81.9696 9.20577 81.9652C9.61938 81.9652 9.6455 81.1826 9.6455 81.0043V80.987ZM12.6409 80.8913C12.4232 80.9 12.1751 81.3174 12.1533 81.5C12.4798 81.513 12.654 81.1957 12.6757 81.0696C12.6888 80.9739 12.6932 80.887 12.6409 80.887V80.8913Z" fill="white"/>
<path d="M46.1444 79.3778L46.6412 80.278L47.6519 80.4733C47.7792 80.4988 47.8302 80.6559 47.741 80.7494L47.0361 81.5009L47.1635 82.5243C47.1805 82.6559 47.0446 82.7494 46.93 82.6942L46.0001 82.2568L45.0701 82.6942C44.9512 82.7494 44.8196 82.6517 44.8366 82.5243L44.964 81.5009L44.2591 80.7494C44.1699 80.6559 44.2209 80.4988 44.3482 80.4733L45.3589 80.278L45.8557 79.3778C45.9194 79.2632 46.085 79.2632 46.1444 79.3778Z" fill="#FFC200"/>
<path d="M46 79.2929C46.0552 79.2929 46.1147 79.3226 46.1444 79.3778L46.6412 80.278L47.6519 80.4733C47.7792 80.4988 47.8302 80.6559 47.741 80.7494L47.0361 81.5009L47.1635 82.5243C47.1763 82.6262 47.0955 82.7111 46.9979 82.7111C46.9767 82.7111 46.9512 82.7069 46.9257 82.6942L45.9958 82.2568L45.0658 82.6942C45.0403 82.7069 45.0191 82.7111 44.9936 82.7111C44.9002 82.7111 44.8153 82.6262 44.828 82.5243L44.9554 81.5009L44.2505 80.7494C44.1614 80.6559 44.2123 80.4988 44.3397 80.4733L45.3503 80.278L45.8471 79.3778C45.8769 79.3226 45.9363 79.2929 45.9915 79.2929M46 79.0806C45.8641 79.0806 45.7367 79.157 45.6688 79.2759L45.2187 80.0912L44.3057 80.2653C44.1699 80.2908 44.0595 80.3884 44.017 80.5201C43.9745 80.6517 44.0085 80.7961 44.1019 80.8937L44.7389 81.5731L44.6242 82.4946C44.6115 82.6007 44.6454 82.7111 44.7134 82.7918C44.7856 82.8725 44.8875 82.9192 44.9979 82.9192C45.0531 82.9192 45.1083 82.9065 45.1592 82.881L46 82.4861L46.8408 82.881C46.8917 82.9065 46.9469 82.9192 47.0021 82.9192C47.1125 82.9192 47.2144 82.8725 47.2866 82.7918C47.3588 82.7111 47.3928 82.6007 47.3758 82.4946L47.2612 81.5731L47.8981 80.8937C47.9915 80.7918 48.0255 80.6474 47.983 80.5201C47.9406 80.3884 47.8302 80.2908 47.6943 80.2653L46.7813 80.0912L46.3312 79.2759C46.2633 79.157 46.1359 79.0806 46 79.0806Z" fill="#213743"/>
<path d="M46.0001 79.8152V80.9744C46.0001 81.0678 46.0892 81.1315 46.1784 81.106L47.2187 80.7706C47.2739 80.7536 47.2697 80.6729 47.2102 80.6602L46.5563 80.5413C46.4969 80.5286 46.4417 80.4903 46.4119 80.4351L46.085 79.7939C46.0637 79.7515 45.9958 79.7642 45.9958 79.8152H46.0001Z" fill="#FFEBB8"/>
<path d="M46 81.4924V82.0699C46 82.1039 46.017 82.1294 46.0468 82.1464L46.7983 82.5073C46.8366 82.5243 46.8705 82.4818 46.8451 82.4479L46.0935 81.4627C46.0637 81.4245 46 81.4457 46 81.4924Z" fill="#FF7F00"/>
<path d="M51.1444 79.3778L51.6412 80.278L52.6519 80.4733C52.7792 80.4988 52.8302 80.6559 52.741 80.7494L52.0361 81.5009L52.1635 82.5243C52.1805 82.6559 52.0446 82.7494 51.93 82.6942L51.0001 82.2568L50.0701 82.6942C49.9512 82.7494 49.8196 82.6517 49.8366 82.5243L49.964 81.5009L49.2591 80.7494C49.1699 80.6559 49.2209 80.4988 49.3482 80.4733L50.3589 80.278L50.8557 79.3778C50.9194 79.2632 51.085 79.2632 51.1444 79.3778Z" fill="#FFC200"/>
<path d="M51 79.2929C51.0552 79.2929 51.1147 79.3226 51.1444 79.3778L51.6412 80.278L52.6519 80.4733C52.7792 80.4988 52.8302 80.6559 52.741 80.7494L52.0361 81.5009L52.1635 82.5243C52.1763 82.6262 52.0955 82.7111 51.9979 82.7111C51.9767 82.7111 51.9512 82.7069 51.9257 82.6942L50.9958 82.2568L50.0658 82.6942C50.0403 82.7069 50.0191 82.7111 49.9936 82.7111C49.9002 82.7111 49.8153 82.6262 49.828 82.5243L49.9554 81.5009L49.2505 80.7494C49.1614 80.6559 49.2123 80.4988 49.3397 80.4733L50.3503 80.278L50.8471 79.3778C50.8769 79.3226 50.9363 79.2929 50.9915 79.2929M51 79.0806C50.8641 79.0806 50.7367 79.157 50.6688 79.2759L50.2187 80.0912L49.3057 80.2653C49.1699 80.2908 49.0595 80.3884 49.017 80.5201C48.9745 80.6517 49.0085 80.7961 49.1019 80.8937L49.7389 81.5731L49.6242 82.4946C49.6115 82.6007 49.6454 82.7111 49.7134 82.7918C49.7856 82.8725 49.8875 82.9192 49.9979 82.9192C50.0531 82.9192 50.1083 82.9065 50.1592 82.881L51 82.4861L51.8408 82.881C51.8917 82.9065 51.9469 82.9192 52.0021 82.9192C52.1125 82.9192 52.2144 82.8725 52.2866 82.7918C52.3588 82.7111 52.3928 82.6007 52.3758 82.4946L52.2612 81.5731L52.8981 80.8937C52.9915 80.7918 53.0255 80.6474 52.983 80.5201C52.9406 80.3884 52.8302 80.2908 52.6943 80.2653L51.7813 80.0912L51.3312 79.2759C51.2633 79.157 51.1359 79.0806 51 79.0806Z" fill="#213743"/>
<path d="M51.0001 79.8152V80.9744C51.0001 81.0678 51.0892 81.1315 51.1784 81.106L52.2187 80.7706C52.2739 80.7536 52.2697 80.6729 52.2102 80.6602L51.5563 80.5413C51.4969 80.5286 51.4417 80.4903 51.4119 80.4351L51.085 79.7939C51.0637 79.7515 50.9958 79.7642 50.9958 79.8152H51.0001Z" fill="#FFEBB8"/>
<path d="M51 81.4924V82.0699C51 82.1039 51.017 82.1294 51.0468 82.1464L51.7983 82.5073C51.8366 82.5243 51.8705 82.4818 51.8451 82.4479L51.0935 81.4627C51.0637 81.4245 51 81.4457 51 81.4924Z" fill="#FF7F00"/>
<path d="M56.1444 79.3778L56.6412 80.278L57.6519 80.4733C57.7792 80.4988 57.8302 80.6559 57.741 80.7494L57.0361 81.5009L57.1635 82.5243C57.1805 82.6559 57.0446 82.7494 56.93 82.6942L56.0001 82.2568L55.0701 82.6942C54.9512 82.7494 54.8196 82.6517 54.8366 82.5243L54.964 81.5009L54.2591 80.7494C54.1699 80.6559 54.2209 80.4988 54.3482 80.4733L55.3589 80.278L55.8557 79.3778C55.9194 79.2632 56.085 79.2632 56.1444 79.3778Z" fill="#FFC200"/>
<path d="M56 79.2929C56.0552 79.2929 56.1147 79.3226 56.1444 79.3778L56.6412 80.278L57.6519 80.4733C57.7792 80.4988 57.8302 80.6559 57.741 80.7494L57.0361 81.5009L57.1635 82.5243C57.1763 82.6262 57.0955 82.7111 56.9979 82.7111C56.9767 82.7111 56.9512 82.7069 56.9257 82.6942L55.9958 82.2568L55.0658 82.6942C55.0403 82.7069 55.0191 82.7111 54.9936 82.7111C54.9002 82.7111 54.8153 82.6262 54.828 82.5243L54.9554 81.5009L54.2505 80.7494C54.1614 80.6559 54.2123 80.4988 54.3397 80.4733L55.3503 80.278L55.8471 79.3778C55.8769 79.3226 55.9363 79.2929 55.9915 79.2929M56 79.0806C55.8641 79.0806 55.7367 79.157 55.6688 79.2759L55.2187 80.0912L54.3057 80.2653C54.1699 80.2908 54.0595 80.3884 54.017 80.5201C53.9745 80.6517 54.0085 80.7961 54.1019 80.8937L54.7389 81.5731L54.6242 82.4946C54.6115 82.6007 54.6454 82.7111 54.7134 82.7918C54.7856 82.8725 54.8875 82.9192 54.9979 82.9192C55.0531 82.9192 55.1083 82.9065 55.1592 82.881L56 82.4861L56.8408 82.881C56.8917 82.9065 56.9469 82.9192 57.0021 82.9192C57.1125 82.9192 57.2144 82.8725 57.2866 82.7918C57.3588 82.7111 57.3928 82.6007 57.3758 82.4946L57.2612 81.5731L57.8981 80.8937C57.9915 80.7918 58.0255 80.6474 57.983 80.5201C57.9406 80.3884 57.8302 80.2908 57.6943 80.2653L56.7813 80.0912L56.3312 79.2759C56.2633 79.157 56.1359 79.0806 56 79.0806Z" fill="#213743"/>
<path d="M56.0001 79.8152V80.9744C56.0001 81.0678 56.0892 81.1315 56.1784 81.106L57.2187 80.7706C57.2739 80.7536 57.2697 80.6729 57.2102 80.6602L56.5563 80.5413C56.4969 80.5286 56.4417 80.4903 56.4119 80.4351L56.085 79.7939C56.0637 79.7515 55.9958 79.7642 55.9958 79.8152H56.0001Z" fill="#FFEBB8"/>
<path d="M56 81.4924V82.0699C56 82.1039 56.017 82.1294 56.0468 82.1464L56.7983 82.5073C56.8366 82.5243 56.8705 82.4818 56.8451 82.4479L56.0935 81.4627C56.0637 81.4245 56 81.4457 56 81.4924Z" fill="#FF7F00"/>
<rect x="13" y="62" width="37" height="13" rx="6.5" fill="#2F4553"/>
<path d="M28.9152 70.072C28.2072 70.072 27.6732 69.856 27.3012 69.49L27.8652 68.77C28.1412 69.022 28.5192 69.16 28.9032 69.16C29.3412 69.16 29.5572 68.944 29.5572 68.698C29.5572 68.428 29.3472 68.236 28.9332 68.236C28.6152 68.236 28.3632 68.326 28.1412 68.536L27.4272 68.362V65.998H30.3312V66.898H28.4592V67.672C28.6512 67.486 28.9632 67.354 29.3172 67.354C29.9952 67.354 30.6072 67.852 30.6072 68.656C30.6072 69.52 29.9532 70.072 28.9152 70.072ZM32.7563 70.072C31.5863 70.072 31.0403 69.058 31.0403 68.002C31.0403 66.946 31.5863 65.938 32.7563 65.938C33.9263 65.938 34.4723 66.946 34.4723 68.002C34.4723 69.058 33.9263 70.072 32.7563 70.072ZM32.7563 69.16C33.2363 69.16 33.4283 68.71 33.4283 68.002C33.4283 67.294 33.2363 66.85 32.7563 66.85C32.2763 66.85 32.0843 67.294 32.0843 68.002C32.0843 68.71 32.2763 69.16 32.7563 69.16ZM37.8565 70H36.8425L36.2845 69.124L35.7205 70H34.7125L35.7025 68.512L34.7725 67.102H35.7865L36.2845 67.888L36.7765 67.102H37.7905L36.8665 68.512L37.8565 70Z" fill="white"/>
<path d="M7.69 11H5.33V7.665H7.69V8.29H6.04V8.995H7.655V9.62H6.04V10.375H7.69V11ZM9.61004 11.06C9.32504 11.06 9.06004 10.94 8.86504 10.69V11.92H8.23004V8.585H8.86504V8.89C9.05004 8.655 9.31504 8.525 9.61004 8.525C10.23 8.525 10.68 8.985 10.68 9.79C10.68 10.595 10.23 11.06 9.61004 11.06ZM9.41004 10.495C9.77504 10.495 10.02 10.21 10.02 9.79C10.02 9.375 9.77504 9.09 9.41004 9.09C9.20504 9.09 8.97004 9.21 8.86504 9.365V10.22C8.97004 10.37 9.20504 10.495 9.41004 10.495ZM11.4601 8.325C11.2551 8.325 11.0801 8.155 11.0801 7.945C11.0801 7.735 11.2551 7.57 11.4601 7.57C11.6701 7.57 11.8401 7.735 11.8401 7.945C11.8401 8.155 11.6701 8.325 11.4601 8.325ZM11.7801 11H11.1451V8.585H11.7801V11ZM13.5347 11.06C12.7897 11.06 12.2547 10.535 12.2547 9.79C12.2547 9.05 12.7897 8.525 13.5347 8.525C14.0297 8.525 14.3297 8.74 14.4897 8.96L14.0747 9.35C13.9597 9.18 13.7847 9.09 13.5647 9.09C13.1797 9.09 12.9097 9.37 12.9097 9.79C12.9097 10.21 13.1797 10.495 13.5647 10.495C13.7847 10.495 13.9597 10.395 14.0747 10.235L14.4897 10.62C14.3297 10.845 14.0297 11.06 13.5347 11.06Z" fill="#05080A"/>
<path d="M48.7366 11H48.2846L46.8926 9.096V11H46.4246V8.332H46.9046L48.2686 10.184V8.332H48.7366V11ZM50.1635 11.048C49.5515 11.048 49.1715 10.588 49.1715 10.032C49.1715 9.48 49.5515 9.02 50.1635 9.02C50.7835 9.02 51.1595 9.48 51.1595 10.032C51.1595 10.588 50.7835 11.048 50.1635 11.048ZM50.1635 10.676C50.5235 10.676 50.7235 10.376 50.7235 10.032C50.7235 9.692 50.5235 9.392 50.1635 9.392C49.8075 9.392 49.6075 9.692 49.6075 10.032C49.6075 10.376 49.8075 10.676 50.1635 10.676ZM51.781 11.044C51.629 11.044 51.501 10.916 51.501 10.764C51.501 10.612 51.629 10.484 51.781 10.484C51.933 10.484 52.061 10.612 52.061 10.764C52.061 10.916 51.933 11.044 51.781 11.044ZM55.4328 11H53.5008V10.632C54.5368 9.848 54.9408 9.5 54.9408 9.116C54.9408 8.836 54.7008 8.708 54.4568 8.708C54.1448 8.708 53.9048 8.836 53.7368 9.028L53.4648 8.72C53.7008 8.436 54.0768 8.292 54.4488 8.292C54.9648 8.292 55.4168 8.584 55.4168 9.116C55.4168 9.608 54.9648 10.048 54.2488 10.588H55.4328V11ZM57.5317 11H57.0637V10.396H55.7917V10.02L56.8877 8.332H57.5317V9.984H57.8877V10.396H57.5317V11ZM57.0637 9.984V8.752L56.2517 9.984H57.0637Z" fill="white"/>
<defs>
<linearGradient id="paint0_linear_26835_29187" x1="37.8344" y1="86.256" x2="23.263" y2="1.76" gradientUnits="userSpaceOnUse">
<stop stop-color="#55EEFF"/>
<stop offset="0.09" stop-color="#6CABFF"/>
<stop offset="0.23" stop-color="#8C4FFF"/>
<stop offset="0.32" stop-color="#A016FF"/>
<stop offset="0.37" stop-color="#A800FF"/>
<stop offset="0.44" stop-color="#C043D4"/>
<stop offset="0.51" stop-color="#D680AF"/>
<stop offset="0.58" stop-color="#E8B091"/>
<stop offset="0.64" stop-color="#F4D27B"/>
<stop offset="0.69" stop-color="#FCE76E"/>
<stop offset="0.72" stop-color="#FFEF6A"/>
<stop offset="0.81" stop-color="#BCF589"/>
<stop offset="0.9" stop-color="#84FAA3"/>
<stop offset="0.97" stop-color="#62FDB3"/>
<stop offset="1" stop-color="#55FFBA"/>
</linearGradient>
<linearGradient id="paint1_linear_26835_29187" x1="57.77" y1="86.3601" x2="26.53" y2="13.7601" gradientUnits="userSpaceOnUse">
<stop stop-color="#55EEFF"/>
<stop offset="0.09" stop-color="#6CABFF"/>
<stop offset="0.23" stop-color="#8C4FFF"/>
<stop offset="0.32" stop-color="#A016FF"/>
<stop offset="0.37" stop-color="#A800FF"/>
<stop offset="0.44" stop-color="#C043D4"/>
<stop offset="0.51" stop-color="#D680AF"/>
<stop offset="0.58" stop-color="#E8B091"/>
<stop offset="0.64" stop-color="#F4D27B"/>
<stop offset="0.69" stop-color="#FCE76E"/>
<stop offset="0.72" stop-color="#FFEF6A"/>
<stop offset="0.81" stop-color="#BCF589"/>
<stop offset="0.9" stop-color="#84FAA3"/>
<stop offset="0.97" stop-color="#62FDB3"/>
<stop offset="1" stop-color="#55FFBA"/>
</linearGradient>
<linearGradient id="paint2_linear_26835_29187" x1="51.08" y1="89.51" x2="19.74" y2="16.67" gradientUnits="userSpaceOnUse">
<stop stop-color="#55EEFF"/>
<stop offset="0.09" stop-color="#6CABFF"/>
<stop offset="0.23" stop-color="#8C4FFF"/>
<stop offset="0.32" stop-color="#A016FF"/>
<stop offset="0.37" stop-color="#A800FF"/>
<stop offset="0.44" stop-color="#C043D4"/>
<stop offset="0.51" stop-color="#D680AF"/>
<stop offset="0.58" stop-color="#E8B091"/>
<stop offset="0.64" stop-color="#F4D27B"/>
<stop offset="0.69" stop-color="#FCE76E"/>
<stop offset="0.72" stop-color="#FFEF6A"/>
<stop offset="0.81" stop-color="#BCF589"/>
<stop offset="0.9" stop-color="#84FAA3"/>
<stop offset="0.97" stop-color="#62FDB3"/>
<stop offset="1" stop-color="#55FFBA"/>
</linearGradient>
<linearGradient id="paint3_linear_26835_29187" x1="39.29" y1="23.7102" x2="39.86" y2="26.1802" gradientUnits="userSpaceOnUse">
<stop stop-color="#75401C" stop-opacity="0"/>
<stop offset="1" stop-color="#75401C"/>
</linearGradient>
<clipPath id="clip0_26835_29187">
<rect width="63" height="88" fill="white"/>
</clipPath>
<clipPath id="clip1_26835_29187">
<rect width="63" height="88" fill="white"/>
</clipPath>
</defs>
</svg>
