<svg width="63" height="88" viewBox="0 0 63 88" fill="none" xmlns="http://www.w3.org/2000/svg">
<rect width="63" height="88" rx="4" fill="url(#paint0_linear_26835_29188)"/>
<g clip-path="url(#clip0_26835_29188)">
<g clip-path="url(#clip1_26835_29188)">
<path d="M56.44 0.740234H6.56C3.22972 0.740234 0.529999 3.43996 0.529999 6.77023V81.2302C0.529999 84.5605 3.22972 87.2602 6.56 87.2602H56.44C59.7703 87.2602 62.47 84.5605 62.47 81.2302V6.77023C62.47 3.43996 59.7703 0.740234 56.44 0.740234Z" fill="url(#paint1_linear_26835_29188)"/>
<path d="M21.79 77.3902C24.64 75.8802 27.54 77.2902 30.11 78.6702C31.34 76.6202 31.85 74.2702 33.44 72.3402C34.85 70.6302 36.67 69.2702 38.78 68.7402C43.07 67.6702 48.22 71.2302 48.16 76.1402C48.16 76.1402 50.72 75.4602 52.81 75.7102C55.77 76.0702 58.61 77.5002 60.68 79.7902C62.4 81.6802 64.34 85.1502 61.54 87.0202C60.78 87.5302 59.85 87.6102 58.96 87.5402C53.54 87.1102 29.86 87.3502 13.18 87.3802C13.13 87.0402 17.76 85.2102 17.75 84.8702C17.66 81.7902 19.29 78.7002 21.79 77.3802V77.3902Z" fill="white"/>
<path d="M46.54 76.9404C46.54 76.9404 44.15 78.3904 41.89 81.2604C41.89 81.2604 41.24 76.8604 43.16 73.9504C44.82 71.4304 47.24 74.2004 46.54 76.9404Z" fill="#CCF8FF"/>
<path d="M60.88 84.0904C60.78 85.4104 58.72 86.2004 55.15 85.3404C51.58 84.4804 48.75 82.7004 48.85 81.3804C48.95 80.0604 51.98 78.0504 55.56 78.9104C59.14 79.7804 60.98 82.7704 60.89 84.0904H60.88Z" fill="#CCF8FF"/>
<path d="M5.48001 59.7004C7.71001 59.5604 8.43001 59.4904 10.66 59.6404C11.75 59.7104 14.37 59.8104 15.47 59.8104C16.95 59.8104 22.26 59.9004 22.54 59.6904C22.98 59.3704 17.03 58.5704 16.86 58.0604C16.7 57.5404 16.3 57.1304 15.86 56.8104C14.78 56.0104 13.16 55.7104 12.13 56.5704C11.89 55.3704 10.74 54.5104 9.53001 54.3804C9.23001 54.5704 8.93001 54.7504 8.79001 54.9104C8.16001 55.6304 7.96001 56.6404 8.51001 57.4904C8.08001 56.9004 7.22001 57.1604 6.74001 57.5604C6.09001 58.1004 5.66001 58.8804 5.50001 59.7104L5.48001 59.7004Z" fill="#CCF8FF"/>
<path d="M4.09 59.8002C4.55 59.7602 5.02 59.7302 5.49 59.7002C5.65 58.8702 6.08 58.0902 6.73 57.5502C7.21 57.1502 8.07 56.9002 8.5 57.4802C7.95 56.6302 8.15 55.6202 8.78 54.9002C8.92 54.7402 9.23 54.5602 9.52 54.3702C9.28 54.3402 9.03 54.3402 8.79 54.3702C7.2 54.5902 6.58 55.9502 5.34 56.6702C4.1 57.3802 3.09 57.5902 3.15 58.9702C3.17 59.4602 3.6 59.8302 4.09 59.7902V59.8002Z" fill="white"/>
<path d="M56.6 20.7804C62.59 35.4004 57.67 54.5004 44.2 60.0304C30.73 65.5504 13.81 55.4104 7.82 40.7904C1.83 26.1704 7.89 9.84037 21.36 4.32037C34.83 -1.19963 50.61 6.17037 56.61 20.7904L56.6 20.7804Z" fill="#45A7FF"/>
<path d="M3.92999 1.3501C2.85999 1.3501 1.42999 3.4401 1.42999 4.5001L1.99999 18.1901C1.99999 16.4301 3.42999 15.0001 5.18999 15.0001H33.59C34.8 15.0001 35.94 14.4501 36.7 13.5101L44.8 3.4801C45.56 2.5401 46.7 1.9901 47.91 1.9901L3.92999 1.3501Z" fill="url(#paint2_linear_26835_29188)"/>
<path d="M56.01 27.2001C59.52 40.6101 53.01 56.6401 40.65 59.8701C28.29 63.1001 14.77 52.3101 11.26 38.9001C7.75 25.4901 14.93 12.0001 27.28 8.77012C39.63 5.54012 52.5 13.7901 56 27.2001H56.01Z" fill="#FF1A51"/>
<path d="M19.69 23.7801C19.71 23.4801 19.65 23.1901 19.51 22.9101C19.47 22.8301 19.43 22.7501 19.38 22.6801C18.67 21.6001 16.86 20.7501 14.69 20.5901C14.11 20.5501 13.55 20.5701 13.02 20.6301C12.27 22.1501 11.66 23.7501 11.22 25.4301C12.06 25.8401 13.11 26.1401 14.28 26.2201C17.16 26.4301 19.58 25.3401 19.7 23.7901L19.69 23.7801Z" fill="#BC0833"/>
<path d="M28.7 52.01C26.91 48.73 32.09 48.19 38.21 44.85C44.33 41.51 49.07 36.65 50.86 39.93C52.65 43.21 49.63 51.6 43.51 54.94C37.39 58.27 30.49 55.28 28.71 52.01H28.7Z" fill="#D32456"/>
<path d="M49.62 52.76C49.62 52.76 52.16 55.87 51.81 57.49C51.46 59.11 48.32 61.09 47.29 60.59C46.26 60.09 44.57 55.16 44.57 55.16L49.62 52.75V52.76Z" fill="#FF1A51"/>
<path d="M49.6572 59.3005C50.8757 58.712 51.657 57.8076 51.4024 57.2804C51.1478 56.7533 49.9536 56.803 48.7352 57.3915C47.5168 57.98 46.7355 58.8844 46.9901 59.4115C47.2447 59.9387 48.4388 59.889 49.6572 59.3005Z" fill="#213743"/>
<path d="M51.3455 62.5788C52.5639 61.9903 53.3453 61.0859 53.0907 60.5588C52.8361 60.0316 51.6419 60.0813 50.4235 60.6698C49.2051 61.2583 48.4237 62.1627 48.6784 62.6898C48.933 63.217 50.1271 63.1673 51.3455 62.5788Z" fill="#213743"/>
<path d="M51.41 57.27L53.08 60.53L48.68 62.69L47 59.4L51.41 57.27Z" fill="#213743"/>
<path d="M50.97 87.5904L48.68 86.5904C54.14 74.1504 49.78 62.2904 49.73 62.1804C50.3 61.4504 51.09 61.1604 52.07 61.2904C52.27 61.8104 56.85 74.1904 50.97 87.6004V87.5904Z" fill="#557086"/>
<path d="M51.42 73.21C51.42 77.17 50.76 81.83 48.68 86.59L50.97 87.59C53.73 81.31 54.18 75.25 53.87 70.54C52.8 71.28 52 72.27 51.42 73.21Z" fill="#213743"/>
<path d="M49.21 21.2401C48.24 22.5301 45.89 21.1401 43.35 19.2201C40.81 17.3001 39.03 15.5901 40 14.3101C40.97 13.0301 43.82 13.5301 46.36 15.4501C48.9 17.3601 50.18 19.9601 49.21 21.2501V21.2401Z" fill="white"/>
<path d="M38.41 35.1803C38.41 35.1803 38.44 35.2003 38.46 35.2203L35.92 32.2903C35.75 32.0703 35.4 31.9703 34.99 32.0603C34.13 32.2103 33.19 33.0103 32.93 33.8403C32.79 34.2403 32.83 34.5703 33.01 34.7903L35.49 37.6503C35.66 37.9303 36.02 38.0503 36.5 37.9603C37.35 37.8003 38.27 37.0003 38.56 36.1803C38.71 35.7503 38.65 35.3903 38.43 35.1803" fill="#00FF2B"/>
<path d="M37.29 35.6204C37.78 35.5304 38.05 35.8304 37.89 36.3004C37.73 36.7704 37.2 37.2304 36.71 37.3304C36.22 37.4204 35.95 37.1204 36.11 36.6404C36.27 36.1704 36.81 35.7104 37.3 35.6204" fill="#213743"/>
<path d="M37.89 35.9303C37.79 35.8103 37.61 35.7603 37.38 35.8103C36.92 35.9003 36.41 36.3303 36.26 36.7703C36.18 36.9903 36.21 37.1703 36.31 37.2903L38.01 39.2303C37.91 39.1103 37.89 38.9303 37.96 38.7103C38.11 38.2703 38.62 37.8403 39.08 37.7503C39.31 37.7103 39.49 37.7503 39.59 37.8703L37.89 35.9303Z" fill="#557086"/>
<path d="M39.08 37.7503C39.54 37.6603 39.79 37.9503 39.64 38.3903C39.49 38.8303 38.99 39.2703 38.52 39.3603C38.06 39.4503 37.8 39.1603 37.96 38.7103C38.11 38.2703 38.62 37.8403 39.08 37.7503Z" fill="#2C353B"/>
<path d="M39.72 37.4603C39.58 37.3003 39.34 37.2303 39.03 37.2903C38.41 37.4103 37.73 37.9903 37.53 38.5803C37.43 38.8803 37.46 39.1203 37.6 39.2803L39.44 41.4303C39.3 41.2703 39.27 41.0303 39.37 40.7303C39.58 40.1303 40.25 39.5503 40.87 39.4403C41.18 39.3803 41.42 39.4403 41.56 39.6103L39.72 37.4603Z" fill="#213743"/>
<path d="M40.87 39.4402C41.49 39.3202 41.83 39.7102 41.62 40.3002C41.41 40.9002 40.74 41.4802 40.12 41.6002C39.5 41.7202 39.16 41.3302 39.36 40.7302C39.56 40.1302 40.24 39.5502 40.86 39.4402" fill="#2C353B"/>
<path d="M31.42 87.2701L41.91 57.1001L31.08 53.3301L19.27 87.2701H31.42Z" fill="#00FF2A"/>
<path d="M42.89 54.2803L42.02 56.7903H42.01C41.73 57.5903 40.95 58.2203 39.67 58.4503C37.14 58.9303 33.71 57.7403 32 55.7803C31.16 54.8003 30.91 53.8203 31.19 53.0203L32.06 50.5103L42.89 54.2803Z" fill="#213743"/>
<path d="M40.54 55.94C38 56.43 34.57 55.23 32.87 53.27C31.18 51.31 31.87 49.33 34.41 48.84C36.95 48.35 40.38 49.55 42.08 51.51C43.77 53.47 43.08 55.45 40.54 55.94Z" fill="#557086"/>
<path d="M41.94 47.2501L41.59 53.3101C41.38 53.9001 40.81 54.3601 39.88 54.5301C38.02 54.8801 35.51 54.0101 34.27 52.5801C33.65 51.8601 33.47 51.1501 33.67 50.5601L37.18 45.6001L41.95 47.2601L41.94 47.2501Z" fill="#213743"/>
<path d="M40.9 47.9802C39.78 48.1902 38.26 47.6702 37.52 46.8002C36.77 45.9402 37.08 45.0602 38.2 44.8502C39.32 44.6402 40.84 45.1602 41.58 46.0302C42.33 46.8902 42.02 47.7702 40.9 47.9802Z" fill="#557086"/>
<path d="M31.74 78.7003C30.8 78.8803 30.33 78.1803 30.69 77.1303L32.95 70.6403C33.31 69.5903 34.37 68.6003 35.31 68.4203C36.25 68.2403 36.72 68.9403 36.36 69.9903L34.1 76.4803C33.74 77.5303 32.68 78.5203 31.74 78.7003Z" fill="#008C00"/>
<path d="M29.57 84.92C28.63 85.1 28.16 84.4 28.52 83.35L28.86 82.38C29.22 81.33 30.28 80.34 31.22 80.16C32.16 79.98 32.63 80.68 32.27 81.73L31.93 82.7C31.57 83.75 30.51 84.74 29.57 84.92Z" fill="#008C00"/>
<path d="M42.67 43.5405L41.52 46.8605C41.42 47.1405 41.15 47.3605 40.7 47.4405C39.82 47.6105 38.62 47.1905 38.03 46.5105C37.74 46.1705 37.65 45.8305 37.75 45.5505L38.9 42.2305L42.68 43.5405H42.67Z" fill="#213743"/>
<path d="M41.85 44.1201C40.96 44.2901 39.77 43.8701 39.18 43.1901C38.59 42.5101 38.83 41.8201 39.72 41.6501C40.61 41.4801 41.8 41.9001 42.39 42.5801C42.98 43.2601 42.74 43.9501 41.85 44.1201Z" fill="#5D7280"/>
<path d="M44.54 40.63L43.46 43.72C43.32 44.11 42.94 44.42 42.32 44.53C41.08 44.77 39.4 44.18 38.57 43.23C38.16 42.75 38.04 42.27 38.17 41.88L39.25 38.79L44.55 40.63H44.54Z" fill="#213743"/>
<path d="M43.39 41.4403C42.15 41.6803 40.47 41.0903 39.64 40.1403C38.81 39.1803 39.15 38.2103 40.39 37.9803C41.63 37.7403 43.31 38.3303 44.14 39.2803C44.97 40.2403 44.63 41.2103 43.39 41.4403Z" fill="#213743"/>
<path d="M42.84 40.8C42.05 40.95 40.99 40.58 40.47 39.98C39.95 39.37 40.16 38.76 40.95 38.61C41.74 38.46 42.8 38.83 43.32 39.43C43.84 40.04 43.63 40.65 42.84 40.8Z" fill="#00FF2B"/>
<path d="M45.91 44.3701C45.76 44.2201 45.53 44.1401 45.21 44.2101C44.6 44.3201 43.91 44.9101 43.71 45.5001C43.6 45.8101 43.65 46.0501 43.78 46.2001L41.93 44.0601C41.8 43.9001 41.77 43.6601 41.88 43.3701C42.07 42.7601 42.75 42.1801 43.38 42.0701C43.68 42.0101 43.93 42.0801 44.06 42.2401L45.91 44.3801V44.3701Z" fill="#213743"/>
<path d="M45.22 44.2102C45.84 44.0902 46.18 44.4802 45.97 45.0702C45.76 45.6602 45.09 46.2502 44.47 46.3702C43.85 46.4902 43.51 46.1002 43.71 45.5002C43.92 44.9002 44.59 44.3202 45.21 44.2102" fill="#213743"/>
<path d="M45.87 44.8805C45.77 44.7605 45.59 44.7105 45.36 44.7605C44.9 44.8505 44.39 45.2805 44.24 45.7205C44.16 45.9405 44.19 46.1205 44.29 46.2405L48.6 51.2705C48.5 51.1505 48.48 50.9705 48.55 50.7505C48.7 50.3105 49.21 49.8805 49.67 49.7905C49.9 49.7505 50.08 49.7905 50.18 49.9105L45.87 44.8805Z" fill="#557086"/>
<path d="M49.67 49.7903C50.13 49.7003 50.38 49.9903 50.23 50.4303C50.08 50.8703 49.58 51.3103 49.11 51.4003C48.65 51.4903 48.39 51.2003 48.55 50.7503C48.7 50.3103 49.21 49.8803 49.67 49.7903Z" fill="#2C353B"/>
<path d="M50.7 49.0001C50.7 49.0001 50.73 49.0201 50.75 49.0401L48.21 46.1101C48.04 45.8901 47.69 45.7901 47.28 45.8801C46.42 46.0301 45.48 46.8301 45.22 47.6601C45.08 48.0601 45.12 48.3901 45.3 48.6101L47.78 51.4701C47.95 51.7501 48.31 51.8701 48.79 51.7801C49.64 51.6201 50.56 50.8201 50.85 50.0001C51 49.5701 50.94 49.2201 50.72 49.0001" fill="#00FF2B"/>
<path d="M49.57 49.4402C50.06 49.3502 50.33 49.6502 50.17 50.1202C50.01 50.5902 49.48 51.0503 48.99 51.1503C48.5 51.2503 48.23 50.9402 48.39 50.4602C48.55 49.9902 49.09 49.5302 49.58 49.4402" fill="#213743"/>
<path d="M59 0H4C1.79 0 0 1.79 0 4V84C0 86.21 1.79 88 4 88H59C61.21 88 63 86.21 63 84V4C63 1.79 61.21 0 59 0ZM61 82.81C61 84.57 59.57 86 57.81 86H5.19C3.43 86 2 84.57 2 82.81V16.9C2 8.67 8.67 2 16.9 2H57.81C59.57 2 61 3.43 61 5.19V82.81Z" fill="url(#paint3_linear_26835_29188)"/>
<mask id="mask0_26835_29188" style="mask-type:luminance" maskUnits="userSpaceOnUse" x="0" y="0" width="63" height="88">
<path d="M59 0H4C1.79 0 0 1.79 0 4V84C0 86.21 1.79 88 4 88H59C61.21 88 63 86.21 63 84V4C63 1.79 61.21 0 59 0ZM61 82.81C61 84.57 59.57 86 57.81 86H5.19C3.43 86 2 84.57 2 82.81V18.19C2 16.43 3.43 15 5.19 15H33.59C34.8 15 35.94 14.45 36.7 13.51L44.8 3.48C45.56 2.54 46.7 1.99 47.91 1.99H57.81C59.57 1.99 61 3.42 61 5.18V82.8V82.81Z" fill="white"/>
</mask>
<g mask="url(#mask0_26835_29188)">
<path d="M68.37 47.3101V26.6401L4.45999 90.5501H25.13L68.37 47.3101Z" fill="white"/>
<path d="M64.66 -2.29004H55.22L-2.92001 55.84V66.18L65.46 -2.20004C65.2 -2.26004 64.93 -2.29004 64.66 -2.29004Z" fill="white"/>
<path d="M68.37 69.2298V61.5498L39.37 90.5498H47.05L68.37 69.2298Z" fill="white"/>
</g>
<path d="M10.93 19.3398L10.51 20.3098C10.49 20.3898 10.48 20.4698 10.47 20.5598L20.35 23.7898L20.79 22.0898C20.83 21.9298 20.83 21.7598 20.79 21.5998C20.38 20.3798 18.85 19.0898 16.79 18.3798C14.06 17.4398 11.44 17.8698 10.93 19.3498V19.3398Z" fill="#FF7F00"/>
<path d="M20.23 20.6201C20.23 20.6201 20.66 21.9601 20.02 22.1301L20.4 23.6401L20.8 22.0901C20.8 22.0901 21.06 21.6401 20.23 20.6201Z" fill="white"/>
<path d="M10.37 20.8602C10.25 22.2702 11.97 23.9902 14.47 24.8502C17.2 25.7902 19.82 25.3602 20.33 23.8802C20.43 23.6002 20.44 23.3002 20.38 22.9902C20.36 22.9002 20.34 22.8202 20.31 22.7302C19.9 21.5102 18.37 20.2202 16.31 19.5102C13.58 18.5702 10.96 19.0002 10.45 20.4802C10.43 20.5302 10.42 20.5702 10.41 20.6202C10.39 20.7002 10.38 20.7802 10.37 20.8702V20.8602Z" fill="#FFCB03"/>
<path d="M12.25 72.7499L13.07 72.0699C13.12 72.0099 13.17 71.9399 13.22 71.8699L5.80001 64.4199L4.62001 65.7499C4.51001 65.8799 4.43001 66.0299 4.40001 66.1899C4.21001 67.4799 4.99001 69.3399 6.52001 70.9299C8.55001 73.0299 11.11 73.8399 12.24 72.7499H12.25Z" fill="#FF7F00"/>
<path d="M13.45 71.6402C14.2 70.4202 13.45 68.0902 11.59 66.1702C9.56 64.0702 7 63.2602 5.87 64.3502C5.65 64.5602 5.5 64.8202 5.42 65.1302C5.4 65.2202 5.38 65.3102 5.36 65.4002C5.17 66.6902 5.95 68.5502 7.48 70.1402C9.51 72.2402 12.07 73.0502 13.2 71.9602C13.24 71.9302 13.27 71.8902 13.3 71.8502C13.35 71.7902 13.4 71.7202 13.45 71.6502V71.6402Z" fill="#FFCB03"/>
<path d="M10.66 65.3198C10.66 65.3198 14.12 70.4498 11.79 72.4398C11.79 72.4398 12.81 72.5298 13.4 71.7398C14.18 70.6898 13.8 67.8798 10.66 65.3198Z" fill="white"/>
<path d="M55.61 57C53.06 57 51 58.72 51 60.85V62.11C51 64.24 53.07 65.96 55.61 65.96C58.15 65.96 60.22 64.24 60.22 62.11V60.85C60.22 58.72 58.15 57 55.61 57Z" fill="#FFCB03"/>
<path d="M55.61 65.9598C58.156 65.9598 60.22 64.2361 60.22 62.1098C60.22 59.9835 58.156 58.2598 55.61 58.2598C53.064 58.2598 51 59.9835 51 62.1098C51 64.2361 53.064 65.9598 55.61 65.9598Z" fill="#FF7F00"/>
<path d="M57.1799 57.23C57.1799 57.23 57.8199 57.78 57.8699 58.76C57.8699 58.76 58.6399 59.16 58.8999 59.41C58.8999 59.41 59.0199 58.82 58.8999 58.15C58.8999 58.15 58.1699 57.5 57.1899 57.23H57.1799Z" fill="white"/>
</g>
</g>
<path fill-rule="evenodd" clip-rule="evenodd" d="M6.49771 79C6.98969 79 7.48602 79.213 7.49037 79.6913C7.49037 80.1043 7.24656 80.2696 6.99839 80.2696C6.75023 80.2696 6.73281 80.1435 6.73281 80.1435C6.73281 80.1435 7.02452 79.9261 7.02452 79.7174C7.02452 79.6087 6.94179 79.313 6.489 79.3174C5.8577 79.3174 5.5181 79.6174 5.5181 80.1522C5.5181 80.7652 7.35105 80.9739 7.3554 81.7652C7.3554 82.613 6.47594 82.9957 5.69225 83C5.283 83 5.01306 82.7609 5.00871 82.3783C5.00871 81.9261 5.22204 81.4652 5.75756 81.4652C5.88382 81.4565 5.98831 81.5522 5.99702 81.6783C5.99702 81.6783 5.99702 81.6826 5.99702 81.687C5.99702 81.687 5.45715 81.8391 5.4615 82.3783C5.4615 82.4783 5.56599 82.6609 5.81851 82.6565C6.07103 82.6522 6.82424 82.4739 6.81989 81.8087C6.81989 81.1913 5.00435 81.1087 5 80.1478C5 79.0652 6.08845 79.0087 6.49771 79.0087V79ZM10.747 79.6C10.8123 79.5696 11.2129 79.4913 11.1955 79.813C11.1824 80.1348 10.9386 80.6913 10.9037 80.9348C11.2303 80.7696 11.6918 80.2087 11.6918 80.2087C11.6918 80.2087 12.0183 80.2522 11.9182 80.4522C11.818 80.6522 11.1519 81.1435 11.1519 81.1435C11.1519 81.1435 11.3043 82.5696 12.1707 82.5696C12.6453 82.5696 12.8499 82.3609 12.937 82.287C12.9587 82.2696 12.9762 82.2652 12.9849 82.2783C13.0197 82.387 12.9936 82.5043 12.9152 82.5913C12.8194 82.6957 12.5974 82.8217 12.1533 82.8261C11.3653 82.8261 10.9255 82.1957 10.8123 81.2609C10.7252 81.5348 10.7339 81.9826 10.7209 82.2C10.6948 82.2435 10.2507 82.4174 10.2158 82.1174C10.2158 82.0913 10.2158 82.0696 10.2158 82.0435C10.1331 82.1609 10.0199 82.2826 9.91108 82.2826C9.71951 82.2826 9.63679 82.1217 9.60196 82.0391C9.57584 82.0696 9.3625 82.287 9.08821 82.287C8.92277 82.2913 8.77474 82.1957 8.70943 82.0435C8.57011 82.1435 8.32195 82.2913 8.03895 82.2913C7.73418 82.2913 7.66017 82.1087 7.66017 81.9565C7.66017 81.713 7.84303 80.987 7.84303 80.987C7.84303 80.987 7.48602 81.1304 7.36411 81.1348C7.19431 81.1348 7.11159 80.8217 7.11159 80.813C7.11159 80.8087 7.11159 80.8 7.1203 80.8C7.22044 80.7609 7.94317 80.513 7.94317 80.513C7.94317 80.513 8.07813 79.9826 8.09555 79.913C8.11296 79.8435 8.2131 79.7 8.33065 79.6565C8.41773 79.6217 8.50916 79.6 8.60059 79.5913C8.63107 79.5913 8.65284 79.6 8.65284 79.6174C8.65284 79.6348 8.47433 80.4087 8.47433 80.4087C8.47433 80.4087 8.84876 80.3217 8.98808 80.3217C9.09692 80.3217 9.15352 80.387 9.09257 80.4696C9.03162 80.5522 8.96196 80.6478 8.92712 80.6913C8.88794 80.7348 8.86182 80.7435 8.77039 80.7609C8.64413 80.787 8.36113 80.8565 8.36113 80.8565C8.36113 80.8565 8.13473 81.6783 8.13909 81.8174C8.13909 81.8957 8.16521 81.987 8.26099 81.987C8.35678 81.987 8.53964 81.8739 8.67025 81.7913C8.69202 81.1522 9.18835 80.7261 9.57584 80.7261C9.7021 80.7261 9.65421 80.8478 9.79788 80.8478H9.88931C9.94591 80.8478 10.0069 80.8522 10.0069 80.9957C10.0069 81.1957 9.89367 81.5261 9.89367 81.7348C9.89367 81.8826 9.91544 81.987 9.97204 81.987C10.0678 81.987 10.1767 81.8478 10.255 81.7261C10.3813 81.0304 10.734 79.7609 10.734 79.6174L10.747 79.6ZM12.5016 80.7C12.7672 80.6783 12.9326 80.8217 12.9631 80.9C12.9936 80.9783 12.9892 81.1609 12.9152 81.2913C12.6845 81.7044 12.1097 81.6304 12.1097 81.6304C12.1097 81.6304 12.0444 81.9565 12.3405 81.9565C12.593 81.9565 12.7062 81.8304 12.8151 81.7261C12.8586 81.7261 12.9936 81.8652 12.9326 81.9609C12.8847 82.0348 12.6191 82.2565 12.2795 82.2609C11.7397 82.2609 11.6047 81.8 11.6744 81.4696C11.7658 81.0609 12.1751 80.7217 12.5016 80.6957V80.7ZM9.6455 80.987C9.32332 80.987 8.82699 81.9696 9.20577 81.9652C9.61938 81.9652 9.6455 81.1826 9.6455 81.0043V80.987ZM12.6409 80.8913C12.4232 80.9 12.1751 81.3174 12.1533 81.5C12.4798 81.513 12.654 81.1957 12.6757 81.0696C12.6888 80.9739 12.6932 80.887 12.6409 80.887V80.8913Z" fill="white"/>
<path d="M46.1444 79.3778L46.6412 80.278L47.6518 80.4733C47.7792 80.4988 47.8302 80.6559 47.741 80.7494L47.0361 81.5009L47.1635 82.5243C47.1805 82.6559 47.0446 82.7494 46.93 82.6942L46 82.2568L45.0701 82.6942C44.9512 82.7494 44.8196 82.6517 44.8366 82.5243L44.9639 81.5009L44.2591 80.7494C44.1699 80.6559 44.2208 80.4988 44.3482 80.4733L45.3588 80.278L45.8557 79.3778C45.9194 79.2632 46.085 79.2632 46.1444 79.3778Z" fill="#FFC200"/>
<path d="M46 79.2929C46.0552 79.2929 46.1147 79.3226 46.1444 79.3778L46.6412 80.278L47.6518 80.4733C47.7792 80.4988 47.8302 80.6559 47.741 80.7494L47.0361 81.5009L47.1635 82.5243C47.1763 82.6262 47.0955 82.7111 46.9979 82.7111C46.9766 82.7111 46.9512 82.7069 46.9257 82.6942L45.9957 82.2568L45.0658 82.6942C45.0403 82.7069 45.0191 82.7111 44.9936 82.7111C44.9002 82.7111 44.8153 82.6262 44.828 82.5243L44.9554 81.5009L44.2505 80.7494C44.1613 80.6559 44.2123 80.4988 44.3397 80.4733L45.3503 80.278L45.8471 79.3778C45.8768 79.3226 45.9363 79.2929 45.9915 79.2929M46 79.0806C45.8641 79.0806 45.7367 79.157 45.6688 79.2759L45.2187 80.0912L44.3057 80.2653C44.1698 80.2908 44.0594 80.3884 44.017 80.5201C43.9745 80.6517 44.0085 80.7961 44.1019 80.8937L44.7388 81.5731L44.6242 82.4946C44.6115 82.6007 44.6454 82.7111 44.7134 82.7918C44.7856 82.8725 44.8875 82.9192 44.9979 82.9192C45.0531 82.9192 45.1083 82.9065 45.1592 82.881L46 82.4861L46.8408 82.881C46.8917 82.9065 46.9469 82.9192 47.0021 82.9192C47.1125 82.9192 47.2144 82.8725 47.2866 82.7918C47.3588 82.7111 47.3928 82.6007 47.3758 82.4946L47.2611 81.5731L47.8981 80.8937C47.9915 80.7918 48.0255 80.6474 47.983 80.5201C47.9405 80.3884 47.8301 80.2908 47.6943 80.2653L46.7813 80.0912L46.3312 79.2759C46.2633 79.157 46.1359 79.0806 46 79.0806Z" fill="#213743"/>
<path d="M46 79.8152V80.9744C46 81.0678 46.0892 81.1315 46.1784 81.106L47.2187 80.7706C47.2739 80.7536 47.2697 80.6729 47.2102 80.6602L46.5563 80.5413C46.4969 80.5286 46.4417 80.4903 46.4119 80.4351L46.085 79.7939C46.0637 79.7515 45.9958 79.7642 45.9958 79.8152H46Z" fill="#FFEBB8"/>
<path d="M46 81.4924V82.0699C46 82.1039 46.017 82.1294 46.0467 82.1464L46.7983 82.5073C46.8365 82.5243 46.8705 82.4818 46.845 82.4479L46.0934 81.4627C46.0637 81.4245 46 81.4457 46 81.4924Z" fill="#FF7F00"/>
<path d="M51.1444 79.3778L51.6412 80.278L52.6518 80.4733C52.7792 80.4988 52.8302 80.6559 52.741 80.7494L52.0361 81.5009L52.1635 82.5243C52.1805 82.6559 52.0446 82.7494 51.93 82.6942L51 82.2568L50.0701 82.6942C49.9512 82.7494 49.8196 82.6517 49.8366 82.5243L49.9639 81.5009L49.2591 80.7494C49.1699 80.6559 49.2208 80.4988 49.3482 80.4733L50.3588 80.278L50.8557 79.3778C50.9194 79.2632 51.085 79.2632 51.1444 79.3778Z" fill="#FFC200"/>
<path d="M51 79.2929C51.0552 79.2929 51.1147 79.3226 51.1444 79.3778L51.6412 80.278L52.6518 80.4733C52.7792 80.4988 52.8302 80.6559 52.741 80.7494L52.0361 81.5009L52.1635 82.5243C52.1763 82.6262 52.0955 82.7111 51.9979 82.7111C51.9766 82.7111 51.9512 82.7069 51.9257 82.6942L50.9957 82.2568L50.0658 82.6942C50.0403 82.7069 50.0191 82.7111 49.9936 82.7111C49.9002 82.7111 49.8153 82.6262 49.828 82.5243L49.9554 81.5009L49.2505 80.7494C49.1613 80.6559 49.2123 80.4988 49.3397 80.4733L50.3503 80.278L50.8471 79.3778C50.8768 79.3226 50.9363 79.2929 50.9915 79.2929M51 79.0806C50.8641 79.0806 50.7367 79.157 50.6688 79.2759L50.2187 80.0912L49.3057 80.2653C49.1698 80.2908 49.0594 80.3884 49.017 80.5201C48.9745 80.6517 49.0085 80.7961 49.1019 80.8937L49.7388 81.5731L49.6242 82.4946C49.6115 82.6007 49.6454 82.7111 49.7134 82.7918C49.7856 82.8725 49.8875 82.9192 49.9979 82.9192C50.0531 82.9192 50.1083 82.9065 50.1592 82.881L51 82.4861L51.8408 82.881C51.8917 82.9065 51.9469 82.9192 52.0021 82.9192C52.1125 82.9192 52.2144 82.8725 52.2866 82.7918C52.3588 82.7111 52.3928 82.6007 52.3758 82.4946L52.2611 81.5731L52.8981 80.8937C52.9915 80.7918 53.0255 80.6474 52.983 80.5201C52.9405 80.3884 52.8301 80.2908 52.6943 80.2653L51.7813 80.0912L51.3312 79.2759C51.2633 79.157 51.1359 79.0806 51 79.0806Z" fill="#213743"/>
<path d="M51 79.8152V80.9744C51 81.0678 51.0892 81.1315 51.1784 81.106L52.2187 80.7706C52.2739 80.7536 52.2697 80.6729 52.2102 80.6602L51.5563 80.5413C51.4969 80.5286 51.4417 80.4903 51.4119 80.4351L51.085 79.7939C51.0637 79.7515 50.9958 79.7642 50.9958 79.8152H51Z" fill="#FFEBB8"/>
<path d="M51 81.4924V82.0699C51 82.1039 51.017 82.1294 51.0467 82.1464L51.7983 82.5073C51.8365 82.5243 51.8705 82.4818 51.845 82.4479L51.0934 81.4627C51.0637 81.4245 51 81.4457 51 81.4924Z" fill="#FF7F00"/>
<path d="M56.1444 79.3778L56.6412 80.278L57.6518 80.4733C57.7792 80.4988 57.8302 80.6559 57.741 80.7494L57.0361 81.5009L57.1635 82.5243C57.1805 82.6559 57.0446 82.7494 56.93 82.6942L56 82.2568L55.0701 82.6942C54.9512 82.7494 54.8196 82.6517 54.8366 82.5243L54.9639 81.5009L54.2591 80.7494C54.1699 80.6559 54.2208 80.4988 54.3482 80.4733L55.3588 80.278L55.8557 79.3778C55.9194 79.2632 56.085 79.2632 56.1444 79.3778Z" fill="#FFC200"/>
<path d="M56 79.2929C56.0552 79.2929 56.1147 79.3226 56.1444 79.3778L56.6412 80.278L57.6518 80.4733C57.7792 80.4988 57.8302 80.6559 57.741 80.7494L57.0361 81.5009L57.1635 82.5243C57.1763 82.6262 57.0955 82.7111 56.9979 82.7111C56.9766 82.7111 56.9512 82.7069 56.9257 82.6942L55.9957 82.2568L55.0658 82.6942C55.0403 82.7069 55.0191 82.7111 54.9936 82.7111C54.9002 82.7111 54.8153 82.6262 54.828 82.5243L54.9554 81.5009L54.2505 80.7494C54.1613 80.6559 54.2123 80.4988 54.3397 80.4733L55.3503 80.278L55.8471 79.3778C55.8768 79.3226 55.9363 79.2929 55.9915 79.2929M56 79.0806C55.8641 79.0806 55.7367 79.157 55.6688 79.2759L55.2187 80.0912L54.3057 80.2653C54.1698 80.2908 54.0594 80.3884 54.017 80.5201C53.9745 80.6517 54.0085 80.7961 54.1019 80.8937L54.7388 81.5731L54.6242 82.4946C54.6115 82.6007 54.6454 82.7111 54.7134 82.7918C54.7856 82.8725 54.8875 82.9192 54.9979 82.9192C55.0531 82.9192 55.1083 82.9065 55.1592 82.881L56 82.4861L56.8408 82.881C56.8917 82.9065 56.9469 82.9192 57.0021 82.9192C57.1125 82.9192 57.2144 82.8725 57.2866 82.7918C57.3588 82.7111 57.3928 82.6007 57.3758 82.4946L57.2611 81.5731L57.8981 80.8937C57.9915 80.7918 58.0255 80.6474 57.983 80.5201C57.9405 80.3884 57.8301 80.2908 57.6943 80.2653L56.7813 80.0912L56.3312 79.2759C56.2633 79.157 56.1359 79.0806 56 79.0806Z" fill="#213743"/>
<path d="M56 79.8152V80.9744C56 81.0678 56.0892 81.1315 56.1784 81.106L57.2187 80.7706C57.2739 80.7536 57.2697 80.6729 57.2102 80.6602L56.5563 80.5413C56.4969 80.5286 56.4417 80.4903 56.4119 80.4351L56.085 79.7939C56.0637 79.7515 55.9958 79.7642 55.9958 79.8152H56Z" fill="#FFEBB8"/>
<path d="M56 81.4924V82.0699C56 82.1039 56.017 82.1294 56.0467 82.1464L56.7983 82.5073C56.8365 82.5243 56.8705 82.4818 56.845 82.4479L56.0934 81.4627C56.0637 81.4245 56 81.4457 56 81.4924Z" fill="#FF7F00"/>
<rect x="13" y="62" width="37" height="13" rx="6.5" fill="#2F4553"/>
<path d="M28.9152 70.072C28.2072 70.072 27.6732 69.856 27.3012 69.49L27.8652 68.77C28.1412 69.022 28.5192 69.16 28.9032 69.16C29.3412 69.16 29.5572 68.944 29.5572 68.698C29.5572 68.428 29.3472 68.236 28.9332 68.236C28.6152 68.236 28.3632 68.326 28.1412 68.536L27.4272 68.362V65.998H30.3312V66.898H28.4592V67.672C28.6512 67.486 28.9632 67.354 29.3172 67.354C29.9952 67.354 30.6072 67.852 30.6072 68.656C30.6072 69.52 29.9532 70.072 28.9152 70.072ZM32.7563 70.072C31.5863 70.072 31.0403 69.058 31.0403 68.002C31.0403 66.946 31.5863 65.938 32.7563 65.938C33.9263 65.938 34.4723 66.946 34.4723 68.002C34.4723 69.058 33.9263 70.072 32.7563 70.072ZM32.7563 69.16C33.2363 69.16 33.4283 68.71 33.4283 68.002C33.4283 67.294 33.2363 66.85 32.7563 66.85C32.2763 66.85 32.0843 67.294 32.0843 68.002C32.0843 68.71 32.2763 69.16 32.7563 69.16ZM37.8565 70H36.8425L36.2845 69.124L35.7205 70H34.7125L35.7025 68.512L34.7725 67.102H35.7865L36.2845 67.888L36.7765 67.102H37.7905L36.8665 68.512L37.8565 70Z" fill="white"/>
<path d="M7.69 11H5.33V7.665H7.69V8.29H6.04V8.995H7.655V9.62H6.04V10.375H7.69V11ZM9.61004 11.06C9.32504 11.06 9.06004 10.94 8.86504 10.69V11.92H8.23004V8.585H8.86504V8.89C9.05004 8.655 9.31504 8.525 9.61004 8.525C10.23 8.525 10.68 8.985 10.68 9.79C10.68 10.595 10.23 11.06 9.61004 11.06ZM9.41004 10.495C9.77504 10.495 10.02 10.21 10.02 9.79C10.02 9.375 9.77504 9.09 9.41004 9.09C9.20504 9.09 8.97004 9.21 8.86504 9.365V10.22C8.97004 10.37 9.20504 10.495 9.41004 10.495ZM11.4601 8.325C11.2551 8.325 11.0801 8.155 11.0801 7.945C11.0801 7.735 11.2551 7.57 11.4601 7.57C11.6701 7.57 11.8401 7.735 11.8401 7.945C11.8401 8.155 11.6701 8.325 11.4601 8.325ZM11.7801 11H11.1451V8.585H11.7801V11ZM13.5347 11.06C12.7897 11.06 12.2547 10.535 12.2547 9.79C12.2547 9.05 12.7897 8.525 13.5347 8.525C14.0297 8.525 14.3297 8.74 14.4897 8.96L14.0747 9.35C13.9597 9.18 13.7847 9.09 13.5647 9.09C13.1797 9.09 12.9097 9.37 12.9097 9.79C12.9097 10.21 13.1797 10.495 13.5647 10.495C13.7847 10.495 13.9597 10.395 14.0747 10.235L14.4897 10.62C14.3297 10.845 14.0297 11.06 13.5347 11.06Z" fill="#05080A"/>
<path d="M48.6585 11H48.2065L46.8145 9.096V11H46.3465V8.332H46.8265L48.1905 10.184V8.332H48.6585V11ZM50.0854 11.048C49.4734 11.048 49.0934 10.588 49.0934 10.032C49.0934 9.48 49.4734 9.02 50.0854 9.02C50.7054 9.02 51.0814 9.48 51.0814 10.032C51.0814 10.588 50.7054 11.048 50.0854 11.048ZM50.0854 10.676C50.4454 10.676 50.6454 10.376 50.6454 10.032C50.6454 9.692 50.4454 9.392 50.0854 9.392C49.7294 9.392 49.5294 9.692 49.5294 10.032C49.5294 10.376 49.7294 10.676 50.0854 10.676ZM51.7028 11.044C51.5508 11.044 51.4228 10.916 51.4228 10.764C51.4228 10.612 51.5508 10.484 51.7028 10.484C51.8548 10.484 51.9828 10.612 51.9828 10.764C51.9828 10.916 51.8548 11.044 51.7028 11.044ZM55.3547 11H53.4227V10.632C54.4587 9.848 54.8627 9.5 54.8627 9.116C54.8627 8.836 54.6227 8.708 54.3787 8.708C54.0667 8.708 53.8267 8.836 53.6587 9.028L53.3867 8.72C53.6227 8.436 53.9987 8.292 54.3707 8.292C54.8867 8.292 55.3387 8.584 55.3387 9.116C55.3387 9.608 54.8867 10.048 54.1707 10.588H55.3547V11ZM56.8176 11.048C56.3576 11.048 56.0416 10.892 55.8256 10.636L56.0936 10.316C56.2736 10.52 56.5136 10.632 56.8136 10.632C57.1496 10.632 57.3616 10.424 57.3616 10.164C57.3616 9.876 57.1536 9.688 56.8256 9.688C56.5976 9.688 56.4096 9.76 56.2416 9.92L55.9096 9.824V8.332H57.6576V8.744H56.3776V9.516C56.5056 9.388 56.7256 9.284 56.9816 9.284C57.4296 9.284 57.8336 9.6 57.8336 10.144C57.8336 10.7 57.4136 11.048 56.8176 11.048Z" fill="white"/>
<defs>
<linearGradient id="paint0_linear_26835_29188" x1="37.8344" y1="86.256" x2="23.263" y2="1.76" gradientUnits="userSpaceOnUse">
<stop stop-color="#55EEFF"/>
<stop offset="0.09" stop-color="#6CABFF"/>
<stop offset="0.23" stop-color="#8C4FFF"/>
<stop offset="0.32" stop-color="#A016FF"/>
<stop offset="0.37" stop-color="#A800FF"/>
<stop offset="0.44" stop-color="#C043D4"/>
<stop offset="0.51" stop-color="#D680AF"/>
<stop offset="0.58" stop-color="#E8B091"/>
<stop offset="0.64" stop-color="#F4D27B"/>
<stop offset="0.69" stop-color="#FCE76E"/>
<stop offset="0.72" stop-color="#FFEF6A"/>
<stop offset="0.81" stop-color="#BCF589"/>
<stop offset="0.9" stop-color="#84FAA3"/>
<stop offset="0.97" stop-color="#62FDB3"/>
<stop offset="1" stop-color="#55FFBA"/>
</linearGradient>
<linearGradient id="paint1_linear_26835_29188" x1="31.5" y1="102" x2="31.5" y2="0.740234" gradientUnits="userSpaceOnUse">
<stop stop-color="#009FE8"/>
<stop offset="0.706731" stop-color="#047BFF"/>
</linearGradient>
<linearGradient id="paint2_linear_26835_29188" x1="57.77" y1="86.3601" x2="26.53" y2="13.7601" gradientUnits="userSpaceOnUse">
<stop stop-color="#55EEFF"/>
<stop offset="0.09" stop-color="#6CABFF"/>
<stop offset="0.23" stop-color="#8C4FFF"/>
<stop offset="0.32" stop-color="#A016FF"/>
<stop offset="0.37" stop-color="#A800FF"/>
<stop offset="0.44" stop-color="#C043D4"/>
<stop offset="0.51" stop-color="#D680AF"/>
<stop offset="0.58" stop-color="#E8B091"/>
<stop offset="0.64" stop-color="#F4D27B"/>
<stop offset="0.69" stop-color="#FCE76E"/>
<stop offset="0.72" stop-color="#FFEF6A"/>
<stop offset="0.81" stop-color="#BCF589"/>
<stop offset="0.9" stop-color="#84FAA3"/>
<stop offset="0.97" stop-color="#62FDB3"/>
<stop offset="1" stop-color="#55FFBA"/>
</linearGradient>
<linearGradient id="paint3_linear_26835_29188" x1="51.08" y1="89.51" x2="19.74" y2="16.67" gradientUnits="userSpaceOnUse">
<stop stop-color="#55EEFF"/>
<stop offset="0.09" stop-color="#6CABFF"/>
<stop offset="0.23" stop-color="#8C4FFF"/>
<stop offset="0.32" stop-color="#A016FF"/>
<stop offset="0.37" stop-color="#A800FF"/>
<stop offset="0.44" stop-color="#C043D4"/>
<stop offset="0.51" stop-color="#D680AF"/>
<stop offset="0.58" stop-color="#E8B091"/>
<stop offset="0.64" stop-color="#F4D27B"/>
<stop offset="0.69" stop-color="#FCE76E"/>
<stop offset="0.72" stop-color="#FFEF6A"/>
<stop offset="0.81" stop-color="#BCF589"/>
<stop offset="0.9" stop-color="#84FAA3"/>
<stop offset="0.97" stop-color="#62FDB3"/>
<stop offset="1" stop-color="#55FFBA"/>
</linearGradient>
<clipPath id="clip0_26835_29188">
<rect width="63" height="88" fill="white"/>
</clipPath>
<clipPath id="clip1_26835_29188">
<rect width="63" height="88" fill="white"/>
</clipPath>
</defs>
</svg>
