<svg width="63" height="88" viewBox="0 0 63 88" fill="none" xmlns="http://www.w3.org/2000/svg">
<rect width="63" height="88" rx="4" fill="#1CE61C"/>
<path d="M36.7008 13.5133L44.7992 3.48665C45.5586 2.54645 46.7024 2 47.911 2H58C59.6569 2 61 3.34314 61 5V83C61 84.6569 59.6569 86 58 86H5C3.34315 86 2 84.6569 2 83V18C2 16.3431 3.34315 15 5 15H33.589C34.7976 15 35.9414 14.4536 36.7008 13.5133Z" fill="#213743"/>
<mask id="mask0_26835_29189" style="mask-type:luminance" maskUnits="userSpaceOnUse" x="0" y="0" width="63" height="88">
<path d="M59 0H4C1.79 0 0 1.79 0 4V84C0 86.21 1.79 88 4 88H59C61.21 88 63 86.21 63 84V4C63 1.79 61.21 0 59 0ZM61 82.81C61 84.57 59.57 86 57.81 86H5.19C3.43 86 2 84.57 2 82.81V18.19C2 16.43 3.43 15 5.19 15H33.59C34.8 15 35.94 14.45 36.7 13.51L44.8 3.48C45.56 2.54 46.7 1.99 47.91 1.99H57.81C59.57 1.99 61 3.42 61 5.18V82.8V82.81Z" fill="white"/>
</mask>
<g mask="url(#mask0_26835_29189)">
<path d="M68.37 47.3199V26.6399L4.45996 90.5499H25.13L68.37 47.3199Z" fill="white"/>
<path d="M64.66 -2.29004H55.22L-2.92004 55.84V66.18L65.46 -2.20004C65.2 -2.26004 64.93 -2.29004 64.66 -2.29004Z" fill="white"/>
<path d="M68.37 69.23V61.55L39.37 90.55H47.05L68.37 69.23Z" fill="white"/>
</g>
<rect x="5" y="18" width="53" height="40" rx="1" fill="#2F4553"/>
<g clip-path="url(#clip0_26835_29189)">
<g clip-path="url(#clip1_26835_29189)">
<path d="M57 18H6C5.44772 18 5 18.4477 5 19V57C5 57.5523 5.44772 58 6 58H57C57.5523 58 58 57.5523 58 57V19C58 18.4477 57.5523 18 57 18Z" fill="url(#paint0_linear_26835_29189)"/>
<mask id="mask1_26835_29189" style="mask-type:luminance" maskUnits="userSpaceOnUse" x="5" y="18" width="53" height="40">
<path d="M57 18H6C5.44772 18 5 18.4477 5 19V57C5 57.5523 5.44772 58 6 58H57C57.5523 58 58 57.5523 58 57V19C58 18.4477 57.5523 18 57 18Z" fill="white"/>
</mask>
<g mask="url(#mask1_26835_29189)">
<path d="M55.27 51.48C62.9192 51.48 69.12 45.2792 69.12 37.63C69.12 29.9809 62.9192 23.78 55.27 23.78C47.6209 23.78 41.42 29.9809 41.42 37.63C41.42 45.2792 47.6209 51.48 55.27 51.48Z" fill="white"/>
<path d="M52.33 48.8901C54.3514 48.8901 55.99 47.2514 55.99 45.2301C55.99 43.2087 54.3514 41.5701 52.33 41.5701C50.3087 41.5701 48.67 43.2087 48.67 45.2301C48.67 47.2514 50.3087 48.8901 52.33 48.8901Z" fill="#DFEAF0"/>
<path d="M59.4739 39.8474C59.6775 38.7393 59.182 37.7196 58.3672 37.57C57.5524 37.4203 56.7268 38.1972 56.5233 39.3053C56.3197 40.4135 56.8152 41.4331 57.63 41.5828C58.4448 41.7325 59.2703 40.9555 59.4739 39.8474Z" fill="#DFEAF0"/>
<path d="M51.7723 31.443C53.2355 31.1853 54.2383 29.9358 54.0122 28.6521C53.786 27.3685 52.4167 26.5369 50.9535 26.7946C49.4904 27.0523 48.4876 28.3018 48.7137 29.5854C48.9398 30.8691 50.3092 31.7007 51.7723 31.443Z" fill="#DFEAF0"/>
<path d="M45.4108 40.651C46.1178 40.5265 46.5738 39.7597 46.4291 38.9384C46.2844 38.1171 45.5939 37.5523 44.8869 37.6768C44.1798 37.8014 43.7238 38.5681 43.8685 39.3894C44.0132 40.2108 44.7037 40.7756 45.4108 40.651Z" fill="#DFEAF0"/>
<path d="M52.9792 37.3482C53.7014 36.9313 53.9958 36.0892 53.6369 35.4674C53.2779 34.8456 52.4014 34.6796 51.6792 35.0966C50.9569 35.5135 50.6625 36.3556 51.0215 36.9774C51.3804 37.5992 52.2569 37.7652 52.9792 37.3482Z" fill="#DFEAF0"/>
</g>
<path d="M45.39 20.04C44.82 20.91 44.37 21.37 43.5 21.93C44.37 22.5 44.83 22.95 45.39 23.82C45.96 22.95 46.41 22.49 47.28 21.93C46.41 21.36 45.95 20.91 45.39 20.04Z" fill="white"/>
<path d="M10.22 52.95C9.63 53.86 9.15 54.3399 8.25 54.9199C9.16 55.5099 9.64 55.9899 10.22 56.8899C10.81 55.9799 11.29 55.4999 12.19 54.9199C11.28 54.3299 10.8 53.85 10.22 52.95Z" fill="white"/>
<path d="M25.5952 41.5533C33.0977 36.8324 35.5863 27.2948 31.1536 20.2504C26.721 13.206 17.0457 11.3225 9.54325 16.0434C2.0408 20.7643 -0.447778 30.3019 3.98486 37.3462C8.41749 44.3906 18.0928 46.2741 25.5952 41.5533Z" fill="white"/>
<path d="M17.13 52.64L16.91 54.47C16.88 54.7 17.06 54.91 17.29 54.92C18.19 54.95 20.25 54.84 20.95 53.11C21.02 52.94 20.95 52.74 20.8 52.64L19.22 51.59C19.1 51.51 18.94 51.5 18.81 51.57L17.33 52.34C17.21 52.4 17.13 52.52 17.12 52.65L17.13 52.64Z" fill="#FF7F00"/>
<path d="M11.68 45.3399C11.68 45.3399 14.05 52.8199 15.27 53.6299C16.49 54.4399 21.86 52.1399 21.86 52.1399L16.43 42.6199L11.67 45.3299L11.68 45.3399Z" fill="#FFC200"/>
<path d="M26.157 39.6801C32.2804 35.8269 34.3116 28.0423 30.6938 22.2928C27.0759 16.5432 19.179 15.0059 13.0555 18.8591C6.93197 22.7123 4.90076 30.4969 8.51864 36.2464C12.1365 41.9959 20.0335 43.5332 26.157 39.6801Z" fill="#557086"/>
<path d="M31.4901 31.1599C31.4901 31.1599 32.4301 30.6699 33.5701 29.9899C36.4001 29.0499 39.3101 30.8199 38.7501 33.6299C37.6301 34.9899 36.2001 36.4599 34.4101 38.0399C34.4101 38.0399 28.6201 34.4699 31.4901 31.1699V31.1599Z" fill="#DFEAF0"/>
<path d="M33.5701 29.98C35.4001 28.88 37.7201 27.3 37.4401 26.48C36.9801 25.16 37.5401 24.91 38.2001 25.02C39.5701 25.24 39.1601 22.14 40.8001 23.92C42.2401 25.49 43.2001 28.22 38.7501 33.61C38.5401 31.97 35.6501 30.15 33.5701 29.97V29.98Z" fill="white"/>
<path d="M15.82 24.7599C15.74 24.7899 15.65 24.7999 15.57 24.7699L13.5 24.1599C13.36 24.1199 13.25 23.9999 13.22 23.8599C13.19 23.7199 13.25 23.5699 13.36 23.4699L14.53 22.5399L12.91 21.9699C12.7 21.8999 12.6 21.6699 12.67 21.4699C12.74 21.2599 12.97 21.1599 13.17 21.2299L15.46 22.0399C15.6 22.0899 15.69 22.2099 15.72 22.3499C15.74 22.4899 15.69 22.6399 15.58 22.7199L14.45 23.6199L15.79 24.0199C16 24.0799 16.12 24.2999 16.06 24.5099C16.02 24.6299 15.93 24.7199 15.82 24.7699V24.7599Z" fill="white"/>
<path d="M12.8001 22.2901C13.2087 22.2901 13.5401 21.9587 13.5401 21.5501C13.5401 21.1414 13.2087 20.8101 12.8001 20.8101C12.3914 20.8101 12.0601 21.1414 12.0601 21.5501C12.0601 21.9587 12.3914 22.2901 12.8001 22.2901Z" fill="white"/>
<path d="M29.14 25.7799C29.14 25.7799 24.56 18.1499 22.99 17.6599C21.42 17.1699 21.27 22.9499 21.27 22.9499C21.27 22.9499 26.3 26.9399 29.15 25.7799H29.14Z" fill="white"/>
<path d="M11.32 37.9799C11.32 37.9799 5.46998 29.6699 5.42998 27.5899C5.38998 25.5099 12.34 27.8799 12.34 27.8799C12.34 27.8799 13.62 36.9499 11.32 37.9799Z" fill="white"/>
<path d="M36.2501 35.6899C36.2501 35.6899 41.0301 48.2499 40.2401 49.7899C39.4501 51.3299 36.4501 54.1199 34.4201 53.4499C32.3901 52.7799 30.8101 49.0999 30.8101 49.0999L36.2501 35.6899Z" fill="white"/>
<path d="M37.1201 39.02L34.2601 40.6L30.8101 49.11C30.8101 49.11 32.3901 52.78 34.4201 53.46C34.4201 53.46 34.4401 53.46 34.4501 53.46C33.4201 52.38 33.0301 51.07 33.0301 51.07C41.2101 46.34 37.1201 39.02 37.1201 39.02Z" fill="#DFEAF0"/>
<path d="M31.5014 27.8779C28.0501 22.3824 20.7973 20.7253 15.3019 24.1766C9.80639 27.6279 8.14928 34.8807 11.6006 40.3762L15.483 46.5582C18.9343 52.0536 26.1871 53.7107 31.6826 50.2594C37.178 46.8081 38.8352 39.5553 35.3839 34.0599L31.5014 27.8779Z" fill="white"/>
<path d="M10.3401 37.6299C10.4701 38.1199 10.6301 38.5799 10.8501 38.9699C10.8501 38.9699 13.5001 41.2299 19.2601 40.0299C19.2601 40.0299 12.6901 39.2199 10.3401 37.6299Z" fill="#DFEAF0"/>
<path d="M24.4501 34.94C24.4501 34.94 26.7501 34.02 27.0901 32.99C27.5401 31.6 29.0801 34.55 26.4101 35.93C23.3501 37.51 22.5701 36.52 22.2301 35.63C21.9601 34.92 22.9301 35.75 24.4501 34.94Z" fill="#2F2D2A"/>
<path d="M26.97 32.4099L27.31 33.1199C27.42 33.3399 27.36 33.5999 27.17 33.7499C27.14 33.7699 27.11 33.7999 27.08 33.8199C26.99 33.6799 26.8 33.6199 26.65 33.6999C26.48 33.7799 26.41 33.9899 26.49 34.1499C26.5 34.1799 26.52 34.1999 26.54 34.2199C25.49 34.9499 24.36 35.4499 23.15 35.6999C22.91 35.7499 22.67 35.6299 22.57 35.4199L22.22 34.7099C24.05 34.3999 25.64 33.6399 26.97 32.4099Z" fill="white"/>
<path d="M16.82 27.5998C16.59 28.3298 16.54 29.0698 16.63 29.7698C15.99 28.8498 15.78 27.5898 16.16 26.3698C16.79 24.3698 18.79 23.2098 20.63 23.7898C20.95 23.8898 21.25 24.0398 21.51 24.2298C19.49 24.0498 17.5 25.4098 16.81 27.5898L16.82 27.5998Z" fill="#DFEAF0"/>
<path d="M22.13 33.3899C24.4882 33.3899 26.4 31.4781 26.4 29.1199C26.4 26.7616 24.4882 24.8499 22.13 24.8499C19.7717 24.8499 17.86 26.7616 17.86 29.1199C17.86 31.4781 19.7717 33.3899 22.13 33.3899Z" fill="#DDDFE5"/>
<path d="M21.57 33.1198C23.9283 33.1198 25.84 31.2081 25.84 28.8498C25.84 26.4916 23.9283 24.5798 21.57 24.5798C19.2118 24.5798 17.3 26.4916 17.3 28.8498C17.3 31.2081 19.2118 33.1198 21.57 33.1198Z" fill="#504C47"/>
<path d="M21.2001 32.5398C23.3319 32.5398 25.0601 30.8116 25.0601 28.6798C25.0601 26.548 23.3319 24.8198 21.2001 24.8198C19.0683 24.8198 17.3401 26.548 17.3401 28.6798C17.3401 30.8116 19.0683 32.5398 21.2001 32.5398Z" fill="#2F2D2A"/>
<path d="M21.62 29.21C22.3546 29.21 22.95 28.6146 22.95 27.88C22.95 27.1455 22.3546 26.55 21.62 26.55C20.8855 26.55 20.29 27.1455 20.29 27.88C20.29 28.6146 20.8855 29.21 21.62 29.21Z" fill="white"/>
<path d="M20.4301 31.67C20.6897 31.67 20.9001 31.4596 20.9001 31.2C20.9001 30.9404 20.6897 30.73 20.4301 30.73C20.1705 30.73 19.9601 30.9404 19.9601 31.2C19.9601 31.4596 20.1705 31.67 20.4301 31.67Z" fill="white"/>
<path d="M22.7601 58.32C20.6901 57.64 18.6901 53.18 17.2201 50.38C16.2601 48.23 15.5801 46.54 15.5801 46.54C19.2301 43.35 29.3501 48.34 29.3501 48.34C29.3501 48.34 30.3801 52.91 30.5201 55.12C29.3501 56.26 26.1401 59.43 22.7601 58.32Z" fill="white"/>
<path d="M23.01 57.5199C26.39 58.6299 29.35 56.2599 30.52 55.1199C30.55 55.6399 30.53 56.0299 30.44 56.1999C29.28 58.2999 23.86 59.7199 22.44 59.2899C21.22 58.9199 18.83 53.9999 17.22 50.3799C18.69 53.1799 20.94 56.8399 23.01 57.5199Z" fill="#DFEAF0"/>
<path d="M13.77 42.78C13.77 42.78 8.64998 45.43 7.79998 44.32C6.94998 43.21 6.32998 43.5 6.15998 44.15C5.98998 44.8 2.56998 43.35 3.58998 45.82C4.80998 48.79 5.95998 51.54 17.88 48.98C17.88 48.98 18.11 42.19 13.78 42.78H13.77Z" fill="white"/>
<path d="M25.12 46.7C25.7 44.35 30.18 42.14 32.52 41.84C33.58 41.7 35.27 44.84 34.93 45.87C34.59 46.9 29.25 50.73 27.82 50.65C26.39 50.57 24.79 48 25.12 46.7Z" fill="#FF7F00"/>
<path d="M25.12 45.9099C25.7 43.5599 30.18 41.3499 32.52 41.0499C33.58 40.9099 35.27 44.0499 34.93 45.0799C34.59 46.1099 29.25 49.9399 27.82 49.8599C26.39 49.7799 24.79 47.2099 25.12 45.9099Z" fill="#FFC200"/>
<path d="M32.59 43.56C30.97 44.72 29.25 45.72 27.45 46.59C27.18 46.75 26.83 46.66 26.67 46.39V46.37C26.5 46.1 26.59 45.75 26.86 45.59C28.46 44.27 30.16 43.23 32 42.56C32.27 42.4 32.62 42.49 32.78 42.76V42.78C32.95 43.05 32.86 43.4 32.59 43.56Z" fill="#FF7F00"/>
<path d="M28.97 48.22C29.3069 48.22 29.58 47.9469 29.58 47.61C29.58 47.2731 29.3069 47 28.97 47C28.6331 47 28.36 47.2731 28.36 47.61C28.36 47.9469 28.6331 48.22 28.97 48.22Z" fill="#FF7F00"/>
<path d="M31.01 47.22C31.3469 47.22 31.62 46.9469 31.62 46.61C31.62 46.2731 31.3469 46 31.01 46C30.6731 46 30.4 46.2731 30.4 46.61C30.4 46.9469 30.6731 47.22 31.01 47.22Z" fill="#FF7F00"/>
<path d="M32.62 45.8399C32.9569 45.8399 33.23 45.5668 33.23 45.2299C33.23 44.893 32.9569 44.6199 32.62 44.6199C32.2831 44.6199 32.01 44.893 32.01 45.2299C32.01 45.5668 32.2831 45.8399 32.62 45.8399Z" fill="#FF7F00"/>
<path d="M27.1801 40.66C27.1801 40.66 32.6201 35.68 33.1401 30.46C33.1401 30.46 37.9301 33.4 27.1801 40.66Z" fill="#DFEAF0"/>
<path d="M10.2201 44.2699C10.2201 44.2699 12.7701 46.4199 13.4801 49.7499C13.4801 49.7499 14.1501 50.1199 14.3201 49.6599C14.4901 49.1999 13.2601 46.0899 10.9901 44.1199C10.4201 43.6199 10.2101 44.2599 10.2101 44.2599L10.2201 44.2699Z" fill="#8EA3B2"/>
<path d="M35.76 28.5399C35.76 28.5399 38 30.6099 38.56 33.8499C38.56 33.8499 38.96 33.7199 39.15 33.2699C39.34 32.8199 38.6 29.7799 36.27 28.2299C35.87 27.9599 35.76 28.5499 35.76 28.5499V28.5399Z" fill="#8EA3B2"/>
<path d="M3.70007 22.27C3.70007 22.27 4.53007 20.64 5.37007 19.76C5.37007 19.76 8.48007 21.14 9.28007 22.37C9.28007 22.37 8.05007 24.11 7.89007 24.74C7.89007 24.74 5.01007 22.57 3.70007 22.28V22.27Z" fill="#D5E0E6"/>
<path d="M18.4501 16.87C18.4501 16.87 18.61 14.84 17.3 13.48C17.3 13.48 19.1501 13.38 19.5301 13.48C19.9101 13.58 21.0701 16.41 20.7801 16.75C20.7801 16.75 20.1701 16.69 18.4501 16.88V16.87Z" fill="#D5E0E6"/>
<path d="M7.16 26.75C7.16 26.75 6.75 28.94 6.75 30.83C6.75 30.83 7.59 32.28 7.84 32.7C7.84 32.7 7.95 29.36 9.94 27.19C9.94 27.19 8.08 26.74 7.15 26.74L7.16 26.75Z" fill="#DFEAF0"/>
</g>
</g>
<path fill-rule="evenodd" clip-rule="evenodd" d="M6.49771 79C6.98969 79 7.48602 79.213 7.49037 79.6913C7.49037 80.1043 7.24656 80.2696 6.99839 80.2696C6.75023 80.2696 6.73281 80.1435 6.73281 80.1435C6.73281 80.1435 7.02452 79.9261 7.02452 79.7174C7.02452 79.6087 6.94179 79.313 6.489 79.3174C5.8577 79.3174 5.5181 79.6174 5.5181 80.1522C5.5181 80.7652 7.35105 80.9739 7.3554 81.7652C7.3554 82.613 6.47594 82.9957 5.69225 83C5.283 83 5.01306 82.7609 5.00871 82.3783C5.00871 81.9261 5.22204 81.4652 5.75756 81.4652C5.88382 81.4565 5.98831 81.5522 5.99702 81.6783C5.99702 81.6783 5.99702 81.6826 5.99702 81.687C5.99702 81.687 5.45715 81.8391 5.4615 82.3783C5.4615 82.4783 5.56599 82.6609 5.81851 82.6565C6.07103 82.6522 6.82424 82.4739 6.81989 81.8087C6.81989 81.1913 5.00435 81.1087 5 80.1478C5 79.0652 6.08845 79.0087 6.49771 79.0087V79ZM10.747 79.6C10.8123 79.5696 11.2129 79.4913 11.1955 79.813C11.1824 80.1348 10.9386 80.6913 10.9037 80.9348C11.2303 80.7696 11.6918 80.2087 11.6918 80.2087C11.6918 80.2087 12.0183 80.2522 11.9182 80.4522C11.818 80.6522 11.1519 81.1435 11.1519 81.1435C11.1519 81.1435 11.3043 82.5696 12.1707 82.5696C12.6453 82.5696 12.8499 82.3609 12.937 82.287C12.9587 82.2696 12.9762 82.2652 12.9849 82.2783C13.0197 82.387 12.9936 82.5043 12.9152 82.5913C12.8194 82.6957 12.5974 82.8217 12.1533 82.8261C11.3653 82.8261 10.9255 82.1957 10.8123 81.2609C10.7252 81.5348 10.7339 81.9826 10.7209 82.2C10.6948 82.2435 10.2507 82.4174 10.2158 82.1174C10.2158 82.0913 10.2158 82.0696 10.2158 82.0435C10.1331 82.1609 10.0199 82.2826 9.91108 82.2826C9.71951 82.2826 9.63679 82.1217 9.60196 82.0391C9.57584 82.0696 9.3625 82.287 9.08821 82.287C8.92277 82.2913 8.77474 82.1957 8.70943 82.0435C8.57011 82.1435 8.32195 82.2913 8.03895 82.2913C7.73418 82.2913 7.66017 82.1087 7.66017 81.9565C7.66017 81.713 7.84303 80.987 7.84303 80.987C7.84303 80.987 7.48602 81.1304 7.36411 81.1348C7.19431 81.1348 7.11159 80.8217 7.11159 80.813C7.11159 80.8087 7.11159 80.8 7.1203 80.8C7.22044 80.7609 7.94317 80.513 7.94317 80.513C7.94317 80.513 8.07813 79.9826 8.09555 79.913C8.11296 79.8435 8.2131 79.7 8.33065 79.6565C8.41773 79.6217 8.50916 79.6 8.60059 79.5913C8.63107 79.5913 8.65284 79.6 8.65284 79.6174C8.65284 79.6348 8.47433 80.4087 8.47433 80.4087C8.47433 80.4087 8.84876 80.3217 8.98808 80.3217C9.09692 80.3217 9.15352 80.387 9.09257 80.4696C9.03162 80.5522 8.96196 80.6478 8.92712 80.6913C8.88794 80.7348 8.86182 80.7435 8.77039 80.7609C8.64413 80.787 8.36113 80.8565 8.36113 80.8565C8.36113 80.8565 8.13473 81.6783 8.13909 81.8174C8.13909 81.8957 8.16521 81.987 8.26099 81.987C8.35678 81.987 8.53964 81.8739 8.67025 81.7913C8.69202 81.1522 9.18835 80.7261 9.57584 80.7261C9.7021 80.7261 9.65421 80.8478 9.79788 80.8478H9.88931C9.94591 80.8478 10.0069 80.8522 10.0069 80.9957C10.0069 81.1957 9.89367 81.5261 9.89367 81.7348C9.89367 81.8826 9.91544 81.987 9.97204 81.987C10.0678 81.987 10.1767 81.8478 10.255 81.7261C10.3813 81.0304 10.734 79.7609 10.734 79.6174L10.747 79.6ZM12.5016 80.7C12.7672 80.6783 12.9326 80.8217 12.9631 80.9C12.9936 80.9783 12.9892 81.1609 12.9152 81.2913C12.6845 81.7044 12.1097 81.6304 12.1097 81.6304C12.1097 81.6304 12.0444 81.9565 12.3405 81.9565C12.593 81.9565 12.7062 81.8304 12.8151 81.7261C12.8586 81.7261 12.9936 81.8652 12.9326 81.9609C12.8847 82.0348 12.6191 82.2565 12.2795 82.2609C11.7397 82.2609 11.6047 81.8 11.6744 81.4696C11.7658 81.0609 12.1751 80.7217 12.5016 80.6957V80.7ZM9.6455 80.987C9.32332 80.987 8.82699 81.9696 9.20577 81.9652C9.61938 81.9652 9.6455 81.1826 9.6455 81.0043V80.987ZM12.6409 80.8913C12.4232 80.9 12.1751 81.3174 12.1533 81.5C12.4798 81.513 12.654 81.1957 12.6757 81.0696C12.6888 80.9739 12.6932 80.887 12.6409 80.887V80.8913Z" fill="#557086"/>
<path d="M51.1444 79.3778L51.6412 80.278L52.6518 80.4733C52.7792 80.4988 52.8302 80.6559 52.741 80.7494L52.0361 81.5009L52.1635 82.5243C52.1805 82.6559 52.0446 82.7494 51.93 82.6942L51 82.2568L50.0701 82.6942C49.9512 82.7494 49.8196 82.6517 49.8366 82.5243L49.9639 81.5009L49.2591 80.7494C49.1699 80.6559 49.2208 80.4988 49.3482 80.4733L50.3588 80.278L50.8557 79.3778C50.9194 79.2632 51.085 79.2632 51.1444 79.3778Z" fill="#FFC200"/>
<path d="M51 79.2929C51.0552 79.2929 51.1147 79.3226 51.1444 79.3778L51.6412 80.278L52.6518 80.4733C52.7792 80.4988 52.8302 80.6559 52.741 80.7494L52.0361 81.5009L52.1635 82.5243C52.1763 82.6262 52.0955 82.7111 51.9979 82.7111C51.9766 82.7111 51.9512 82.7069 51.9257 82.6942L50.9957 82.2568L50.0658 82.6942C50.0403 82.7069 50.0191 82.7111 49.9936 82.7111C49.9002 82.7111 49.8153 82.6262 49.828 82.5243L49.9554 81.5009L49.2505 80.7494C49.1613 80.6559 49.2123 80.4988 49.3397 80.4733L50.3503 80.278L50.8471 79.3778C50.8768 79.3226 50.9363 79.2929 50.9915 79.2929M51 79.0806C50.8641 79.0806 50.7367 79.157 50.6688 79.2759L50.2187 80.0912L49.3057 80.2653C49.1698 80.2908 49.0594 80.3884 49.017 80.5201C48.9745 80.6517 49.0085 80.7961 49.1019 80.8937L49.7388 81.5731L49.6242 82.4946C49.6115 82.6007 49.6454 82.7111 49.7134 82.7918C49.7856 82.8725 49.8875 82.9192 49.9979 82.9192C50.0531 82.9192 50.1083 82.9065 50.1592 82.881L51 82.4861L51.8408 82.881C51.8917 82.9065 51.9469 82.9192 52.0021 82.9192C52.1125 82.9192 52.2144 82.8725 52.2866 82.7918C52.3588 82.7111 52.3928 82.6007 52.3758 82.4946L52.2611 81.5731L52.8981 80.8937C52.9915 80.7918 53.0255 80.6474 52.983 80.5201C52.9405 80.3884 52.8301 80.2908 52.6943 80.2653L51.7813 80.0912L51.3312 79.2759C51.2633 79.157 51.1359 79.0806 51 79.0806Z" fill="#213743"/>
<path d="M51 79.8152V80.9744C51 81.0678 51.0892 81.1315 51.1784 81.106L52.2187 80.7706C52.2739 80.7536 52.2697 80.6729 52.2102 80.6602L51.5563 80.5413C51.4969 80.5286 51.4417 80.4903 51.4119 80.4351L51.085 79.7939C51.0637 79.7515 50.9958 79.7642 50.9958 79.8152H51Z" fill="#FFEBB8"/>
<path d="M51 81.4924V82.0699C51 82.1039 51.017 82.1294 51.0467 82.1464L51.7983 82.5073C51.8365 82.5243 51.8705 82.4818 51.845 82.4479L51.0934 81.4627C51.0637 81.4245 51 81.4457 51 81.4924Z" fill="#FF7F00"/>
<path d="M56.1444 79.3778L56.6412 80.278L57.6518 80.4733C57.7792 80.4988 57.8302 80.6559 57.741 80.7494L57.0361 81.5009L57.1635 82.5243C57.1805 82.6559 57.0446 82.7494 56.93 82.6942L56 82.2568L55.0701 82.6942C54.9512 82.7494 54.8196 82.6517 54.8366 82.5243L54.9639 81.5009L54.2591 80.7494C54.1699 80.6559 54.2208 80.4988 54.3482 80.4733L55.3588 80.278L55.8557 79.3778C55.9194 79.2632 56.085 79.2632 56.1444 79.3778Z" fill="#FFC200"/>
<path d="M56 79.2929C56.0552 79.2929 56.1147 79.3226 56.1444 79.3778L56.6412 80.278L57.6518 80.4733C57.7792 80.4988 57.8302 80.6559 57.741 80.7494L57.0361 81.5009L57.1635 82.5243C57.1763 82.6262 57.0955 82.7111 56.9979 82.7111C56.9766 82.7111 56.9512 82.7069 56.9257 82.6942L55.9957 82.2568L55.0658 82.6942C55.0403 82.7069 55.0191 82.7111 54.9936 82.7111C54.9002 82.7111 54.8153 82.6262 54.828 82.5243L54.9554 81.5009L54.2505 80.7494C54.1613 80.6559 54.2123 80.4988 54.3397 80.4733L55.3503 80.278L55.8471 79.3778C55.8768 79.3226 55.9363 79.2929 55.9915 79.2929M56 79.0806C55.8641 79.0806 55.7367 79.157 55.6688 79.2759L55.2187 80.0912L54.3057 80.2653C54.1698 80.2908 54.0594 80.3884 54.017 80.5201C53.9745 80.6517 54.0085 80.7961 54.1019 80.8937L54.7388 81.5731L54.6242 82.4946C54.6115 82.6007 54.6454 82.7111 54.7134 82.7918C54.7856 82.8725 54.8875 82.9192 54.9979 82.9192C55.0531 82.9192 55.1083 82.9065 55.1592 82.881L56 82.4861L56.8408 82.881C56.8917 82.9065 56.9469 82.9192 57.0021 82.9192C57.1125 82.9192 57.2144 82.8725 57.2866 82.7918C57.3588 82.7111 57.3928 82.6007 57.3758 82.4946L57.2611 81.5731L57.8981 80.8937C57.9915 80.7918 58.0255 80.6474 57.983 80.5201C57.9405 80.3884 57.8301 80.2908 57.6943 80.2653L56.7813 80.0912L56.3312 79.2759C56.2633 79.157 56.1359 79.0806 56 79.0806Z" fill="#213743"/>
<path d="M56 79.8152V80.9744C56 81.0678 56.0892 81.1315 56.1784 81.106L57.2187 80.7706C57.2739 80.7536 57.2697 80.6729 57.2102 80.6602L56.5563 80.5413C56.4969 80.5286 56.4417 80.4903 56.4119 80.4351L56.085 79.7939C56.0637 79.7515 55.9958 79.7642 55.9958 79.8152H56Z" fill="#FFEBB8"/>
<path d="M56 81.4924V82.0699C56 82.1039 56.017 82.1294 56.0467 82.1464L56.7983 82.5073C56.8365 82.5243 56.8705 82.4818 56.845 82.4479L56.0934 81.4627C56.0637 81.4245 56 81.4457 56 81.4924Z" fill="#FF7F00"/>
<rect x="13" y="62" width="37" height="13" rx="6.5" fill="#2F4553"/>
<path d="M28.5935 70H27.5615V67.318L26.8895 67.996L26.3015 67.378L27.6995 65.998H28.5935V70ZM30.8091 70.072C30.1011 70.072 29.5671 69.856 29.1951 69.49L29.7591 68.77C30.0351 69.022 30.4131 69.16 30.7971 69.16C31.2351 69.16 31.4511 68.944 31.4511 68.698C31.4511 68.428 31.2411 68.236 30.8271 68.236C30.5091 68.236 30.2571 68.326 30.0351 68.536L29.3211 68.362V65.998H32.2251V66.898H30.3531V67.672C30.5451 67.486 30.8571 67.354 31.2111 67.354C31.8891 67.354 32.5011 67.852 32.5011 68.656C32.5011 69.52 31.8471 70.072 30.8091 70.072ZM35.7662 70H34.7522L34.1942 69.124L33.6302 70H32.6222L33.6122 68.512L32.6822 67.102H33.6962L34.1942 67.888L34.6862 67.102H35.7002L34.7762 68.512L35.7662 70Z" fill="white"/>
<path d="M8.03 11H7.215L6.56 9.815H6.04V11H5.33V7.665H6.89C7.585 7.665 8.01 8.12 8.01 8.74C8.01 9.33 7.64 9.645 7.28 9.73L8.03 11ZM6.785 9.19C7.07 9.19 7.285 9.02 7.285 8.74C7.285 8.46 7.07 8.29 6.785 8.29H6.04V9.19H6.785ZM10.5152 11H9.88023V10.75C9.71523 10.945 9.43023 11.06 9.11523 11.06C8.73023 11.06 8.27523 10.8 8.27523 10.26C8.27523 9.695 8.73023 9.48 9.11523 9.48C9.43523 9.48 9.72023 9.585 9.88023 9.775V9.45C9.88023 9.205 9.67023 9.045 9.35023 9.045C9.09023 9.045 8.85023 9.14 8.64523 9.33L8.40523 8.905C8.70023 8.645 9.08023 8.525 9.46023 8.525C10.0102 8.525 10.5152 8.745 10.5152 9.44V11ZM9.37023 10.63C9.57523 10.63 9.77523 10.56 9.88023 10.42V10.12C9.77523 9.98 9.57523 9.91 9.37023 9.91C9.12023 9.91 8.91523 10.04 8.91523 10.275C8.91523 10.5 9.12023 10.63 9.37023 10.63ZM11.7801 11H11.1451V8.585H11.7801V8.915C11.9501 8.7 12.2501 8.525 12.5501 8.525V9.145C12.5051 9.135 12.4451 9.13 12.3751 9.13C12.1651 9.13 11.8851 9.25 11.7801 9.405V11ZM14.0818 11.06C13.3468 11.06 12.7918 10.565 12.7918 9.79C12.7918 9.09 13.3068 8.525 14.0418 8.525C14.7618 8.525 15.2518 9.065 15.2518 9.855V9.995H13.4568C13.4968 10.3 13.7418 10.555 14.1518 10.555C14.3568 10.555 14.6418 10.465 14.7968 10.315L15.0768 10.725C14.8368 10.945 14.4568 11.06 14.0818 11.06ZM14.6368 9.565C14.6218 9.335 14.4618 9.03 14.0418 9.03C13.6468 9.03 13.4768 9.325 13.4468 9.565H14.6368Z" fill="#05080A"/>
<path d="M48.6546 11H48.2026L46.8106 9.096V11H46.3426V8.332H46.8226L48.1866 10.184V8.332H48.6546V11ZM50.0815 11.048C49.4695 11.048 49.0895 10.588 49.0895 10.032C49.0895 9.48 49.4695 9.02 50.0815 9.02C50.7015 9.02 51.0775 9.48 51.0775 10.032C51.0775 10.588 50.7015 11.048 50.0815 11.048ZM50.0815 10.676C50.4415 10.676 50.6415 10.376 50.6415 10.032C50.6415 9.692 50.4415 9.392 50.0815 9.392C49.7255 9.392 49.5255 9.692 49.5255 10.032C49.5255 10.376 49.7255 10.676 50.0815 10.676ZM51.6989 11.044C51.5469 11.044 51.4189 10.916 51.4189 10.764C51.4189 10.612 51.5469 10.484 51.6989 10.484C51.8509 10.484 51.9789 10.612 51.9789 10.764C51.9789 10.916 51.8509 11.044 51.6989 11.044ZM55.3508 11H53.4188V10.632C54.4548 9.848 54.8588 9.5 54.8588 9.116C54.8588 8.836 54.6188 8.708 54.3748 8.708C54.0628 8.708 53.8228 8.836 53.6548 9.028L53.3828 8.72C53.6188 8.436 53.9948 8.292 54.3668 8.292C54.8828 8.292 55.3348 8.584 55.3348 9.116C55.3348 9.608 54.8828 10.048 54.1668 10.588H55.3508V11ZM56.8617 11.048C56.0777 11.048 55.7617 10.412 55.7617 9.672C55.7617 8.9 56.1657 8.292 56.9377 8.292C57.2697 8.292 57.5257 8.412 57.7057 8.588L57.4857 8.944C57.3457 8.796 57.1937 8.708 56.9377 8.708C56.4937 8.708 56.2337 9.12 56.2337 9.588C56.2337 9.616 56.2337 9.64 56.2377 9.664C56.3577 9.484 56.6377 9.292 56.9537 9.292C57.4337 9.292 57.8457 9.584 57.8457 10.152C57.8457 10.648 57.4577 11.048 56.8617 11.048ZM56.8377 10.632C57.1897 10.632 57.3737 10.384 57.3737 10.168C57.3737 9.84 57.1177 9.692 56.8257 9.692C56.5977 9.692 56.3777 9.816 56.2417 10.008C56.2697 10.296 56.4257 10.632 56.8377 10.632Z" fill="white"/>
<defs>
<linearGradient id="paint0_linear_26835_29189" x1="31.5" y1="13.43" x2="31.5" y2="108.22" gradientUnits="userSpaceOnUse">
<stop stop-color="#2F4553"/>
<stop offset="1" stop-color="#047BFF"/>
</linearGradient>
<clipPath id="clip0_26835_29189">
<rect width="63" height="88" fill="white"/>
</clipPath>
<clipPath id="clip1_26835_29189">
<rect width="63" height="88" fill="white"/>
</clipPath>
</defs>
</svg>
