<svg width="63" height="88" viewBox="0 0 63 88" fill="none" xmlns="http://www.w3.org/2000/svg">
<rect width="63" height="88" rx="4" fill="#1CE61C"/>
<path d="M36.7008 13.5133L44.7992 3.48665C45.5586 2.54645 46.7024 2 47.911 2H58C59.6569 2 61 3.34314 61 5V83C61 84.6569 59.6569 86 58 86H5C3.34315 86 2 84.6569 2 83V18C2 16.3431 3.34315 15 5 15H33.589C34.7976 15 35.9414 14.4536 36.7008 13.5133Z" fill="#213743"/>
<mask id="mask0_26835_29190" style="mask-type:luminance" maskUnits="userSpaceOnUse" x="0" y="0" width="63" height="88">
<path d="M59 0H4C1.79 0 0 1.79 0 4V84C0 86.21 1.79 88 4 88H59C61.21 88 63 86.21 63 84V4C63 1.79 61.21 0 59 0ZM61 82.81C61 84.57 59.57 86 57.81 86H5.19C3.43 86 2 84.57 2 82.81V18.19C2 16.43 3.43 15 5.19 15H33.59C34.8 15 35.94 14.45 36.7 13.51L44.8 3.48C45.56 2.54 46.7 1.99 47.91 1.99H57.81C59.57 1.99 61 3.42 61 5.18V82.8V82.81Z" fill="white"/>
</mask>
<g mask="url(#mask0_26835_29190)">
<path d="M68.37 47.3199V26.6399L4.45996 90.5499H25.13L68.37 47.3199Z" fill="white"/>
<path d="M64.66 -2.29004H55.22L-2.92004 55.84V66.18L65.46 -2.20004C65.2 -2.26004 64.93 -2.29004 64.66 -2.29004Z" fill="white"/>
<path d="M68.37 69.23V61.55L39.37 90.55H47.05L68.37 69.23Z" fill="white"/>
</g>
<rect x="5" y="18" width="53" height="40" rx="1" fill="#2F4553"/>
<g clip-path="url(#clip0_26835_29190)">
<path d="M57 18H6C5.44772 18 5 18.4477 5 19V57C5 57.5523 5.44772 58 6 58H57C57.5523 58 58 57.5523 58 57V19C58 18.4477 57.5523 18 57 18Z" fill="url(#paint0_linear_26835_29190)"/>
<path d="M36.94 26C36.94 26 37.86 26.16 39.02 26.3C41.5 27.17 42.57 29.97 40.67 31.62C39.16 31.96 37.37 32.22 35.28 32.36C35.28 32.36 33.17 26.76 36.94 26Z" fill="#DFEAF0"/>
<path d="M39.02 26.3C40.88 26.52 43.35 26.67 43.6 25.95C43.99 24.78 44.51 24.91 44.92 25.34C45.75 26.23 47.14 23.85 47.32 25.98C47.48 27.85 46.68 30.27 40.68 31.63C41.41 30.37 40.39 27.55 39.03 26.31L39.02 26.3Z" fill="white"/>
<path d="M44.77 27.2699C44.77 27.2699 44.7 28.0299 44.26 28.6899C43.82 29.3499 43.47 29.2999 43.47 29.2999C43.47 29.2999 42.98 30.3099 42.68 29.9099C42.38 29.5099 41.81 28.3699 42.21 28.0699C42.61 27.7699 44.15 26.8999 44.15 26.8999L44.78 27.2799L44.77 27.2699Z" fill="#DFEAF0"/>
<path d="M45.37 22.72L48.35 25.95C48.35 25.95 57.35 17.51 58.1 15.97C58.65 14.85 58.81 14.17 58.86 13.89C58.87 13.81 58.81 13.74 58.73 13.75C58.25 13.78 56.66 14.12 55.82 14.6C54.81 15.18 45.38 22.72 45.38 22.72H45.37Z" fill="#FFEBB8"/>
<path d="M47.43 25.2799C47.43 25.2799 57.34 16.3299 58.41 14.2599C58.44 14.1999 58.39 14.1399 58.33 14.1599C58.02 14.2599 57.07 14.7299 54.4 16.8699C50.8 19.7499 45.96 23.7199 45.96 23.7199L47.42 25.2799H47.43Z" fill="#FFC200"/>
<path d="M40.92 28.4201C40.79 28.7401 41.5601 30.0301 42.1201 29.9101C42.4701 29.8301 42.5801 29.3601 42.5801 29.3601C42.5801 29.3601 42.8801 29.3801 43.0301 29.1701L43.1801 28.9601C43.1801 28.9601 45.3201 26.4201 46.7901 25.8401C47.8601 25.4201 47.5301 24.8601 47.5301 24.8601L47.6801 24.7601L46.8801 23.6101L46.7001 23.9801C46.7001 23.9801 46.2401 23.7501 46.0501 23.9201C45.8601 24.0901 43.7101 26.6501 42.6201 27.1901C41.5301 27.7301 41.6501 28.1201 41.6501 28.1201C41.6501 28.1201 41.0601 28.0401 40.9101 28.4201H40.92Z" fill="#FF7F00"/>
<path d="M44.9399 22.84C44.9399 22.84 45.7099 22.17 45.9199 22.18C46.1299 22.19 48.9899 25.34 48.9399 25.51C48.8899 25.68 48.2199 26.39 48.2199 26.39C48.2199 26.39 45.0399 23.33 44.9399 22.84Z" fill="#FF7F00"/>
<path d="M43.32 21.95C44.32 22.93 47.32 25.93 48.8 28.21C48.94 28.42 49.22 28.48 49.42 28.34L49.52 28.27C49.76 28.11 49.79 27.78 49.59 27.58C48.45 26.42 45.1 22.98 43.99 21.37C43.83 21.14 43.51 21.11 43.31 21.3C43.13 21.48 43.12 21.77 43.31 21.95H43.32Z" fill="#FF7F00"/>
<path d="M45.5 25.9499C44.8 26.6299 44.45 27.4099 44.72 27.6899C44.99 27.9699 46.14 27.9299 46.84 27.2499C47.54 26.5699 47.53 25.5099 47.26 25.2299C46.99 24.9499 46.2 25.2699 45.5 25.9499Z" fill="white"/>
<path d="M36.3 23.2099C36.3 23.2099 37.44 23.0299 37.75 22.4499C38.06 21.8699 38.29 20.7899 38.29 20.7899C38.29 20.7899 36.26 20.5799 36.3 23.2099Z" fill="#FF7F00"/>
<path d="M17.1001 21.3699C17.1001 21.3699 18.7001 21.6399 19.2301 23.0199C19.7601 24.3999 18.4801 23.9599 17.6301 23.1699C16.7801 22.3799 17.0901 21.3699 17.0901 21.3699H17.1001Z" fill="#FF7F00"/>
<path d="M28.05 17.5001C27.98 17.4901 27.92 17.4601 27.87 17.4001L26.71 16.1301C26.63 16.0401 26.61 15.9201 26.65 15.8101C26.69 15.7001 26.79 15.6201 26.9 15.6101L28.08 15.4601L27.21 14.4101C27.1 14.2801 27.12 14.0801 27.25 13.9701C27.38 13.8601 27.58 13.8801 27.69 14.0101L28.92 15.5001C28.99 15.5901 29.01 15.7101 28.97 15.8201C28.93 15.9301 28.83 16.0001 28.72 16.0201L27.58 16.1701L28.33 16.9901C28.45 17.1201 28.44 17.3201 28.31 17.4301C28.24 17.5001 28.14 17.5201 28.04 17.5101L28.05 17.5001Z" fill="white"/>
<path d="M27.32 14.67C27.6458 14.67 27.91 14.4058 27.91 14.08C27.91 13.7541 27.6458 13.49 27.32 13.49C26.9941 13.49 26.73 13.7541 26.73 14.08C26.73 14.4058 26.9941 14.67 27.32 14.67Z" fill="white"/>
<path d="M36.69 23.67C36.69 23.67 36.71 16.6 35.85 15.62C34.99 14.64 32.5 18.51 32.5 18.51C32.5 18.51 34.28 23.29 36.69 23.67Z" fill="white"/>
<path d="M19.03 25.0999C19.03 25.0999 18.47 17.0499 19.29 15.6199C20.11 14.1899 23.87 18.6499 23.87 18.6499C23.87 18.6499 21.01 25.3499 19.03 25.0999Z" fill="white"/>
<path d="M17.83 26.5301C17.35 26.8001 16.97 27.1801 16.66 27.6301C14.6 30.6001 14.6 39.2501 10.12 43.0801C8.74 44.2601 6.89 45.1601 5 45.9201V48.9701C12.12 47.2601 21.87 44.5501 26.16 43.8401C27.98 43.5401 31.34 40.8401 31.46 38.9901L23.61 30.2801C23.8 27.2001 20.53 25.0501 17.82 26.5201L17.83 26.5301Z" fill="#E9113C"/>
<path d="M37.4287 26.0717C37.3414 20.9141 33.0918 16.8038 27.9369 16.891C22.7821 16.9783 18.6741 21.2301 18.7614 26.3877L18.8594 32.1769C18.9467 37.3345 23.1963 41.4448 28.3512 41.3575C33.506 41.2703 37.6141 37.0184 37.5267 31.8608L37.4287 26.0717Z" fill="white"/>
<path d="M29.1499 28.0401C29.1499 28.0401 31.0899 28.3601 31.7399 27.8001C32.6199 27.0401 32.4499 29.6801 30.0699 29.5201C27.3399 29.3401 27.2199 28.3401 27.3499 27.6001C27.4599 27.0001 27.7799 27.9701 29.1499 28.0501V28.0401Z" fill="#2F2D2A"/>
<path d="M31.9 27.36L31.84 27.98C31.82 28.17 31.67 28.33 31.48 28.35C31.45 28.35 31.42 28.35 31.39 28.36C31.39 28.23 31.28 28.11 31.15 28.1C31 28.09 30.87 28.2 30.86 28.34C30.86 28.36 30.86 28.39 30.86 28.41C29.85 28.48 28.88 28.35 27.95 28.02C27.77 27.96 27.65 27.78 27.67 27.59L27.73 26.96C29.1 27.5 30.49 27.64 31.9 27.35V27.36Z" fill="white"/>
<path d="M27.56 19.8499C27.1 20.2499 26.76 20.7399 26.54 21.2499C26.49 20.3599 26.85 19.4199 27.62 18.7499C28.87 17.6499 30.71 17.6899 31.72 18.8399C31.9 19.0399 32.04 19.2699 32.14 19.4999C30.84 18.5499 28.93 18.6599 27.56 19.8499Z" fill="#DFEAF0"/>
<path d="M30.55 26.4499C32.4223 26.4499 33.94 24.9322 33.94 23.0599C33.94 21.1877 32.4223 19.6699 30.55 19.6699C28.6778 19.6699 27.16 21.1877 27.16 23.0599C27.16 24.9322 28.6778 26.4499 30.55 26.4499Z" fill="#DDDFE5"/>
<path d="M30.28 26.04C32.1523 26.04 33.67 24.5223 33.67 22.65C33.67 20.7778 32.1523 19.26 30.28 19.26C28.4078 19.26 26.89 20.7778 26.89 22.65C26.89 24.5223 28.4078 26.04 30.28 26.04Z" fill="#504C47"/>
<path d="M30.1 25.4501C31.7955 25.4501 33.17 24.0756 33.17 22.3801C33.17 20.6845 31.7955 19.3101 30.1 19.3101C28.4045 19.3101 27.03 20.6845 27.03 22.3801C27.03 24.0756 28.4045 25.4501 30.1 25.4501Z" fill="#2F2D2A"/>
<path d="M30.71 23.07C31.2954 23.07 31.77 22.5954 31.77 22.01C31.77 21.4245 31.2954 20.95 30.71 20.95C30.1246 20.95 29.65 21.4245 29.65 22.01C29.65 22.5954 30.1246 23.07 30.71 23.07Z" fill="white"/>
<path d="M28.54 24.1499C28.7444 24.1499 28.91 23.9843 28.91 23.7799C28.91 23.5756 28.7444 23.4099 28.54 23.4099C28.3357 23.4099 28.17 23.5756 28.17 23.7799C28.17 23.9843 28.3357 24.1499 28.54 24.1499Z" fill="white"/>
<path d="M18.93 43.4799C17.79 42.1599 18.26 38.2699 18.41 35.7499C18.64 33.8799 18.88 32.4399 18.88 32.4399C22.73 31.7699 27.64 39.3899 27.64 39.3899C27.64 39.3899 26.45 42.9499 25.62 44.5199C24.34 44.8099 20.8 45.6499 18.94 43.4899L18.93 43.4799Z" fill="white"/>
<path d="M19.43 43.04C21.3 45.2 24.33 44.81 25.61 44.51C25.42 44.88 25.24 45.14 25.11 45.21C23.44 46.17 19.1 44.89 18.3 44C17.61 43.24 18.01 38.88 18.41 35.74C18.26 38.27 18.29 41.71 19.43 43.03V43.04Z" fill="#DFEAF0"/>
<path d="M29.5 41.71C29.5 41.71 31.17 41.26 31.56 42.71C31.79 43.58 32.23 44.27 33.8 44.49C36.6 44.88 39.42 43.36 39.65 41.49C39.88 39.62 39.87 36.64 37.5 34.41C34.52 31.61 28.54 35.16 29.5 41.71Z" fill="white"/>
<path d="M39.33 42.3299C39.33 42.3299 38.39 43.8499 35.19 43.7799C31.43 43.6999 32.53 39.7499 30.74 40.3899C29.44 40.8499 27.3 40.3199 27.3 40.3199L26.84 41.5999C26.84 41.5999 29.1 41.9299 29.83 41.6699C29.83 41.6699 31.29 41.4099 31.58 42.7999C31.87 44.1899 33.15 44.4899 34.55 44.5399C34.55 44.5399 38.07 44.6499 39.33 42.3199V42.3299Z" fill="#DFEAF0"/>
<path d="M19.5699 29.0099L21.9699 27.6199C21.9699 27.6199 21.7199 32.3399 23.0799 34.3699C23.0799 34.3699 23.8499 34.4499 23.7599 35.2799C23.7099 35.7499 23.7799 35.9299 23.8999 36.0599C24.2299 36.4099 24.4399 36.8599 24.3999 37.3299C24.3499 37.9199 23.9899 38.5999 22.6399 38.7799C22.4899 38.7999 22.3499 38.7799 22.2099 38.7399C21.1199 38.5699 18.2099 37.7699 16.9399 33.8899L19.5799 29.0199L19.5699 29.0099Z" fill="#DFEAF0"/>
<path d="M22.51 30.8599C22.51 30.8599 21.01 32.0599 21.39 34.5399C21.39 34.5399 22.2 34.6999 22.12 35.1599C22.04 35.6199 21.66 35.5499 21.83 35.9999C22 36.4499 22.81 37.0499 22.36 37.7299C21.91 38.4099 20.64 38.9999 19.17 38.1699C17.39 37.1599 14.18 32.3799 17.4 27.6299C20.61 22.8799 23.72 29.5699 22.51 30.8699V30.8599Z" fill="white"/>
<path d="M32.59 17.9399C32.59 17.9399 32.55 19.0899 33.27 19.3099C33.99 19.5299 33.89 19.8099 33.89 19.8099C33.89 19.8099 33.02 20.3299 34.69 20.9499C34.69 20.9499 36.05 23.3699 36.52 22.1899C36.57 22.0499 36.96 21.2499 36.96 21.2499L32.59 17.9499V17.9399Z" fill="#DDDFE5"/>
<path d="M34.1 18.0999C34.16 17.4499 34.38 16.9699 34.38 16.9699C35.04 17.4599 35.34 17.8699 35.48 18.4799C35.59 18.2799 35.7 18.1699 35.7 18.1699C35.7 18.1699 36.46 18.7499 36.71 19.6799C36.93 19.4699 37.14 19.3799 37.14 19.3799C37.14 19.3799 37.91 20.7099 37.23 21.9399C36.78 22.7499 36.43 22.4999 36.26 21.9199C34.98 21.8799 34.13 20.8599 34.13 20.8599C34.41 20.6999 34.65 20.5899 34.88 20.5199C34.67 20.4899 34.44 20.4399 34.22 20.3599C33.18 19.9999 33.05 19.0099 33.05 19.0099C33.05 19.0099 33.21 18.9699 33.45 18.9499C33.15 18.7799 32.83 18.5799 32.6 18.3799C32.01 17.8699 31.85 16.4199 31.85 16.4199C33.22 16.6599 33.83 17.4199 34.1 18.1099V18.0999Z" fill="#FFC200"/>
<path d="M24.14 19.24C24.14 19.24 24.44 19.58 23.96 20.09C23.48 20.6 21.93 21.47 20.28 21.37C20.28 21.37 20.08 22.27 19.14 22.45L18.84 21.05L21.54 18.71L24.14 19.23V19.24Z" fill="#DDDFE5"/>
<path d="M17.82 21.4799C18.12 22.2499 18.9 23.2599 18.9 23.2599C18.9 23.2599 19.32 22.6299 19.36 21.7699C19.47 21.6799 19.71 21.4699 19.93 21.1599C20 21.1699 20.08 21.1799 20.17 21.1799C21.04 21.2099 21.77 20.7699 22.24 20.3899C22.41 20.4499 22.59 20.4699 22.77 20.4099C23.52 20.1899 24.1 19.7099 24.58 18.8799C24.58 18.8799 24.26 18.7599 23.79 18.7299C24.46 18.4099 25.13 17.7699 25.38 16.4699C25.38 16.4699 23.84 16.6199 23.31 17.2399C23.27 17.2899 23.22 17.3399 23.18 17.3999C23.23 16.8199 23.11 16.3699 23.11 16.3699C23.11 16.3699 22.28 16.4799 21.83 17.2799C21.62 17.3899 20.86 17.8399 20.33 18.6199C20.25 18.3699 20.13 18.0999 19.96 17.8199C19.96 17.8199 18.91 18.9499 18.92 19.7699C18.92 19.9099 18.93 20.0699 18.95 20.2299C18.75 19.9099 18.47 19.5899 18.08 19.2899C18.08 19.2899 17.51 20.7199 17.81 21.4899L17.82 21.4799Z" fill="#FFC200"/>
<path d="M36.96 32.5901C36.96 32.5901 36.7 35.1501 35.51 36.5001C34.38 37.7801 29.89 39.3601 25.96 34.7101L36.97 32.5901H36.96Z" fill="#DDDFE5"/>
<path d="M20.14 26.7601C22.34 28.1701 28.25 32.4001 31.77 31.0501C35.08 29.7801 36.74 25.8301 37.45 25.6501C38.16 25.4701 39.97 25.6501 40.07 26.1101C40.25 26.9801 36.55 37.3001 31.4 37.4801C26.25 37.6601 20.14 27.8501 20.14 27.8501V26.7601Z" fill="#E9113C"/>
<path d="M19.5885 28.179C20.6441 27.9957 21.4057 27.3046 21.2894 26.6353C21.1732 25.966 20.2233 25.572 19.1676 25.7553C18.112 25.9386 17.3504 26.6297 17.4666 27.299C17.5829 27.9683 18.5328 28.3623 19.5885 28.179Z" fill="#FFC200"/>
<path d="M19.2957 26.9679C19.8159 26.8994 20.2124 26.653 20.1814 26.4176C20.1505 26.1821 19.7036 26.0468 19.1834 26.1153C18.6633 26.1837 18.2667 26.4301 18.2977 26.6656C18.3287 26.901 18.7755 27.0364 19.2957 26.9679Z" fill="#E9113C"/>
<path d="M45.94 43.9801C42.14 42.3001 41.13 41.6301 25.97 42.8101C19.54 43.3101 12.06 44.8601 5 46.5301V57.0001C5 57.5501 5.45 58.0001 6 58.0001H47.98C49.12 50.8701 48.94 45.3101 45.95 43.9801H45.94Z" fill="url(#paint1_linear_26835_29190)"/>
<path d="M58 43.1299L52.42 46.2099L53.71 49.4499L58 46.2299V43.1299Z" fill="url(#paint2_linear_26835_29190)"/>
<path d="M52.34 46.4302C53.2 46.9102 53.9 48.0902 53.91 49.0702C53.92 50.0502 53.23 50.4502 52.37 49.9702C51.51 49.4902 50.81 48.3102 50.8 47.3302C50.79 46.3502 51.48 45.9502 52.34 46.4302Z" fill="#FF7F00"/>
<path d="M54.56 48.6201C54.45 47.4001 53.55 45.8901 52.21 45.8501C51.96 45.8501 51.46 46.2401 51.24 46.3401C52.82 45.6701 54.73 49.0101 53.48 50.0701C54.03 49.6101 54.64 49.4501 54.56 48.6201Z" fill="#FFC200"/>
<path d="M16.58 18.52L6.65002 27.93L9.44002 31.59L18.51 20.41L16.58 18.52Z" fill="url(#paint3_linear_26835_29190)"/>
<path d="M7.55004 27.4199L6.97003 27.6699C6.26003 27.9799 6.12004 29.2299 6.66004 30.4599C7.20004 31.6899 8.21004 32.4399 8.92004 32.1299L9.50004 31.8799L7.56004 27.4099L7.55004 27.4199Z" fill="#FF7F00"/>
<path d="M9.4883 31.8939C10.1973 31.5853 10.3378 30.3376 9.80225 29.1071C9.26668 27.8765 8.25779 27.1291 7.54883 27.4376C6.83986 27.7462 6.6993 28.9939 7.23487 30.2245C7.77045 31.455 8.77934 32.2024 9.4883 31.8939Z" fill="#FFC200"/>
<path d="M49.6001 37.1999C50.5886 37.1999 51.3901 36.3985 51.3901 35.4099C51.3901 34.4213 50.5886 33.6199 49.6001 33.6199C48.6115 33.6199 47.8101 34.4213 47.8101 35.4099C47.8101 36.3985 48.6115 37.1999 49.6001 37.1999Z" fill="#FF7F00"/>
<path d="M49.8599 37.05C50.8485 37.05 51.6499 36.2486 51.6499 35.26C51.6499 34.2714 50.8485 33.47 49.8599 33.47C48.8714 33.47 48.0699 34.2714 48.0699 35.26C48.0699 36.2486 48.8714 37.05 49.8599 37.05Z" fill="#FFC200"/>
</g>
<path fill-rule="evenodd" clip-rule="evenodd" d="M6.49771 79C6.98969 79 7.48602 79.213 7.49037 79.6913C7.49037 80.1043 7.24656 80.2696 6.99839 80.2696C6.75023 80.2696 6.73281 80.1435 6.73281 80.1435C6.73281 80.1435 7.02452 79.9261 7.02452 79.7174C7.02452 79.6087 6.94179 79.313 6.489 79.3174C5.8577 79.3174 5.5181 79.6174 5.5181 80.1522C5.5181 80.7652 7.35105 80.9739 7.3554 81.7652C7.3554 82.613 6.47594 82.9957 5.69225 83C5.283 83 5.01306 82.7609 5.00871 82.3783C5.00871 81.9261 5.22204 81.4652 5.75756 81.4652C5.88382 81.4565 5.98831 81.5522 5.99702 81.6783C5.99702 81.6783 5.99702 81.6826 5.99702 81.687C5.99702 81.687 5.45715 81.8391 5.4615 82.3783C5.4615 82.4783 5.56599 82.6609 5.81851 82.6565C6.07103 82.6522 6.82424 82.4739 6.81989 81.8087C6.81989 81.1913 5.00435 81.1087 5 80.1478C5 79.0652 6.08845 79.0087 6.49771 79.0087V79ZM10.747 79.6C10.8123 79.5696 11.2129 79.4913 11.1955 79.813C11.1824 80.1348 10.9386 80.6913 10.9037 80.9348C11.2303 80.7696 11.6918 80.2087 11.6918 80.2087C11.6918 80.2087 12.0183 80.2522 11.9182 80.4522C11.818 80.6522 11.1519 81.1435 11.1519 81.1435C11.1519 81.1435 11.3043 82.5696 12.1707 82.5696C12.6453 82.5696 12.8499 82.3609 12.937 82.287C12.9587 82.2696 12.9762 82.2652 12.9849 82.2783C13.0197 82.387 12.9936 82.5043 12.9152 82.5913C12.8194 82.6957 12.5974 82.8217 12.1533 82.8261C11.3653 82.8261 10.9255 82.1957 10.8123 81.2609C10.7252 81.5348 10.7339 81.9826 10.7209 82.2C10.6948 82.2435 10.2507 82.4174 10.2158 82.1174C10.2158 82.0913 10.2158 82.0696 10.2158 82.0435C10.1331 82.1609 10.0199 82.2826 9.91108 82.2826C9.71951 82.2826 9.63679 82.1217 9.60196 82.0391C9.57584 82.0696 9.3625 82.287 9.08821 82.287C8.92277 82.2913 8.77474 82.1957 8.70943 82.0435C8.57011 82.1435 8.32195 82.2913 8.03895 82.2913C7.73418 82.2913 7.66017 82.1087 7.66017 81.9565C7.66017 81.713 7.84303 80.987 7.84303 80.987C7.84303 80.987 7.48602 81.1304 7.36411 81.1348C7.19431 81.1348 7.11159 80.8217 7.11159 80.813C7.11159 80.8087 7.11159 80.8 7.1203 80.8C7.22044 80.7609 7.94317 80.513 7.94317 80.513C7.94317 80.513 8.07813 79.9826 8.09555 79.913C8.11296 79.8435 8.2131 79.7 8.33065 79.6565C8.41773 79.6217 8.50916 79.6 8.60059 79.5913C8.63107 79.5913 8.65284 79.6 8.65284 79.6174C8.65284 79.6348 8.47433 80.4087 8.47433 80.4087C8.47433 80.4087 8.84876 80.3217 8.98808 80.3217C9.09692 80.3217 9.15352 80.387 9.09257 80.4696C9.03162 80.5522 8.96196 80.6478 8.92712 80.6913C8.88794 80.7348 8.86182 80.7435 8.77039 80.7609C8.64413 80.787 8.36113 80.8565 8.36113 80.8565C8.36113 80.8565 8.13473 81.6783 8.13909 81.8174C8.13909 81.8957 8.16521 81.987 8.26099 81.987C8.35678 81.987 8.53964 81.8739 8.67025 81.7913C8.69202 81.1522 9.18835 80.7261 9.57584 80.7261C9.7021 80.7261 9.65421 80.8478 9.79788 80.8478H9.88931C9.94591 80.8478 10.0069 80.8522 10.0069 80.9957C10.0069 81.1957 9.89367 81.5261 9.89367 81.7348C9.89367 81.8826 9.91544 81.987 9.97204 81.987C10.0678 81.987 10.1767 81.8478 10.255 81.7261C10.3813 81.0304 10.734 79.7609 10.734 79.6174L10.747 79.6ZM12.5016 80.7C12.7672 80.6783 12.9326 80.8217 12.9631 80.9C12.9936 80.9783 12.9892 81.1609 12.9152 81.2913C12.6845 81.7044 12.1097 81.6304 12.1097 81.6304C12.1097 81.6304 12.0444 81.9565 12.3405 81.9565C12.593 81.9565 12.7062 81.8304 12.8151 81.7261C12.8586 81.7261 12.9936 81.8652 12.9326 81.9609C12.8847 82.0348 12.6191 82.2565 12.2795 82.2609C11.7397 82.2609 11.6047 81.8 11.6744 81.4696C11.7658 81.0609 12.1751 80.7217 12.5016 80.6957V80.7ZM9.6455 80.987C9.32332 80.987 8.82699 81.9696 9.20577 81.9652C9.61938 81.9652 9.6455 81.1826 9.6455 81.0043V80.987ZM12.6409 80.8913C12.4232 80.9 12.1751 81.3174 12.1533 81.5C12.4798 81.513 12.654 81.1957 12.6757 81.0696C12.6888 80.9739 12.6932 80.887 12.6409 80.887V80.8913Z" fill="#557086"/>
<path d="M51.1444 79.3778L51.6412 80.278L52.6518 80.4733C52.7792 80.4988 52.8302 80.6559 52.741 80.7494L52.0361 81.5009L52.1635 82.5243C52.1805 82.6559 52.0446 82.7494 51.93 82.6942L51 82.2568L50.0701 82.6942C49.9512 82.7494 49.8196 82.6517 49.8366 82.5243L49.9639 81.5009L49.2591 80.7494C49.1699 80.6559 49.2208 80.4988 49.3482 80.4733L50.3588 80.278L50.8557 79.3778C50.9194 79.2632 51.085 79.2632 51.1444 79.3778Z" fill="#FFC200"/>
<path d="M51 79.2929C51.0552 79.2929 51.1147 79.3226 51.1444 79.3778L51.6412 80.278L52.6518 80.4733C52.7792 80.4988 52.8302 80.6559 52.741 80.7494L52.0361 81.5009L52.1635 82.5243C52.1763 82.6262 52.0955 82.7111 51.9979 82.7111C51.9766 82.7111 51.9512 82.7069 51.9257 82.6942L50.9957 82.2568L50.0658 82.6942C50.0403 82.7069 50.0191 82.7111 49.9936 82.7111C49.9002 82.7111 49.8153 82.6262 49.828 82.5243L49.9554 81.5009L49.2505 80.7494C49.1613 80.6559 49.2123 80.4988 49.3397 80.4733L50.3503 80.278L50.8471 79.3778C50.8768 79.3226 50.9363 79.2929 50.9915 79.2929M51 79.0806C50.8641 79.0806 50.7367 79.157 50.6688 79.2759L50.2187 80.0912L49.3057 80.2653C49.1698 80.2908 49.0594 80.3884 49.017 80.5201C48.9745 80.6517 49.0085 80.7961 49.1019 80.8937L49.7388 81.5731L49.6242 82.4946C49.6115 82.6007 49.6454 82.7111 49.7134 82.7918C49.7856 82.8725 49.8875 82.9192 49.9979 82.9192C50.0531 82.9192 50.1083 82.9065 50.1592 82.881L51 82.4861L51.8408 82.881C51.8917 82.9065 51.9469 82.9192 52.0021 82.9192C52.1125 82.9192 52.2144 82.8725 52.2866 82.7918C52.3588 82.7111 52.3928 82.6007 52.3758 82.4946L52.2611 81.5731L52.8981 80.8937C52.9915 80.7918 53.0255 80.6474 52.983 80.5201C52.9405 80.3884 52.8301 80.2908 52.6943 80.2653L51.7813 80.0912L51.3312 79.2759C51.2633 79.157 51.1359 79.0806 51 79.0806Z" fill="#213743"/>
<path d="M51 79.8152V80.9744C51 81.0678 51.0892 81.1315 51.1784 81.106L52.2187 80.7706C52.2739 80.7536 52.2697 80.6729 52.2102 80.6602L51.5563 80.5413C51.4969 80.5286 51.4417 80.4903 51.4119 80.4351L51.085 79.7939C51.0637 79.7515 50.9958 79.7642 50.9958 79.8152H51Z" fill="#FFEBB8"/>
<path d="M51 81.4924V82.0699C51 82.1039 51.017 82.1294 51.0467 82.1464L51.7983 82.5073C51.8365 82.5243 51.8705 82.4818 51.845 82.4479L51.0934 81.4627C51.0637 81.4245 51 81.4457 51 81.4924Z" fill="#FF7F00"/>
<path d="M56.1444 79.3778L56.6412 80.278L57.6518 80.4733C57.7792 80.4988 57.8302 80.6559 57.741 80.7494L57.0361 81.5009L57.1635 82.5243C57.1805 82.6559 57.0446 82.7494 56.93 82.6942L56 82.2568L55.0701 82.6942C54.9512 82.7494 54.8196 82.6517 54.8366 82.5243L54.9639 81.5009L54.2591 80.7494C54.1699 80.6559 54.2208 80.4988 54.3482 80.4733L55.3588 80.278L55.8557 79.3778C55.9194 79.2632 56.085 79.2632 56.1444 79.3778Z" fill="#FFC200"/>
<path d="M56 79.2929C56.0552 79.2929 56.1147 79.3226 56.1444 79.3778L56.6412 80.278L57.6518 80.4733C57.7792 80.4988 57.8302 80.6559 57.741 80.7494L57.0361 81.5009L57.1635 82.5243C57.1763 82.6262 57.0955 82.7111 56.9979 82.7111C56.9766 82.7111 56.9512 82.7069 56.9257 82.6942L55.9957 82.2568L55.0658 82.6942C55.0403 82.7069 55.0191 82.7111 54.9936 82.7111C54.9002 82.7111 54.8153 82.6262 54.828 82.5243L54.9554 81.5009L54.2505 80.7494C54.1613 80.6559 54.2123 80.4988 54.3397 80.4733L55.3503 80.278L55.8471 79.3778C55.8768 79.3226 55.9363 79.2929 55.9915 79.2929M56 79.0806C55.8641 79.0806 55.7367 79.157 55.6688 79.2759L55.2187 80.0912L54.3057 80.2653C54.1698 80.2908 54.0594 80.3884 54.017 80.5201C53.9745 80.6517 54.0085 80.7961 54.1019 80.8937L54.7388 81.5731L54.6242 82.4946C54.6115 82.6007 54.6454 82.7111 54.7134 82.7918C54.7856 82.8725 54.8875 82.9192 54.9979 82.9192C55.0531 82.9192 55.1083 82.9065 55.1592 82.881L56 82.4861L56.8408 82.881C56.8917 82.9065 56.9469 82.9192 57.0021 82.9192C57.1125 82.9192 57.2144 82.8725 57.2866 82.7918C57.3588 82.7111 57.3928 82.6007 57.3758 82.4946L57.2611 81.5731L57.8981 80.8937C57.9915 80.7918 58.0255 80.6474 57.983 80.5201C57.9405 80.3884 57.8301 80.2908 57.6943 80.2653L56.7813 80.0912L56.3312 79.2759C56.2633 79.157 56.1359 79.0806 56 79.0806Z" fill="#213743"/>
<path d="M56 79.8152V80.9744C56 81.0678 56.0892 81.1315 56.1784 81.106L57.2187 80.7706C57.2739 80.7536 57.2697 80.6729 57.2102 80.6602L56.5563 80.5413C56.4969 80.5286 56.4417 80.4903 56.4119 80.4351L56.085 79.7939C56.0637 79.7515 55.9958 79.7642 55.9958 79.8152H56Z" fill="#FFEBB8"/>
<path d="M56 81.4924V82.0699C56 82.1039 56.017 82.1294 56.0467 82.1464L56.7983 82.5073C56.8365 82.5243 56.8705 82.4818 56.845 82.4479L56.0934 81.4627C56.0637 81.4245 56 81.4457 56 81.4924Z" fill="#FF7F00"/>
<rect x="13" y="62" width="37" height="13" rx="6.5" fill="#2F4553"/>
<path d="M28.5935 70H27.5615V67.318L26.8895 67.996L26.3015 67.378L27.6995 65.998H28.5935V70ZM30.8091 70.072C30.1011 70.072 29.5671 69.856 29.1951 69.49L29.7591 68.77C30.0351 69.022 30.4131 69.16 30.7971 69.16C31.2351 69.16 31.4511 68.944 31.4511 68.698C31.4511 68.428 31.2411 68.236 30.8271 68.236C30.5091 68.236 30.2571 68.326 30.0351 68.536L29.3211 68.362V65.998H32.2251V66.898H30.3531V67.672C30.5451 67.486 30.8571 67.354 31.2111 67.354C31.8891 67.354 32.5011 67.852 32.5011 68.656C32.5011 69.52 31.8471 70.072 30.8091 70.072ZM35.7662 70H34.7522L34.1942 69.124L33.6302 70H32.6222L33.6122 68.512L32.6822 67.102H33.6962L34.1942 67.888L34.6862 67.102H35.7002L34.7762 68.512L35.7662 70Z" fill="white"/>
<path d="M8.03 11H7.215L6.56 9.815H6.04V11H5.33V7.665H6.89C7.585 7.665 8.01 8.12 8.01 8.74C8.01 9.33 7.64 9.645 7.28 9.73L8.03 11ZM6.785 9.19C7.07 9.19 7.285 9.02 7.285 8.74C7.285 8.46 7.07 8.29 6.785 8.29H6.04V9.19H6.785ZM10.5152 11H9.88023V10.75C9.71523 10.945 9.43023 11.06 9.11523 11.06C8.73023 11.06 8.27523 10.8 8.27523 10.26C8.27523 9.695 8.73023 9.48 9.11523 9.48C9.43523 9.48 9.72023 9.585 9.88023 9.775V9.45C9.88023 9.205 9.67023 9.045 9.35023 9.045C9.09023 9.045 8.85023 9.14 8.64523 9.33L8.40523 8.905C8.70023 8.645 9.08023 8.525 9.46023 8.525C10.0102 8.525 10.5152 8.745 10.5152 9.44V11ZM9.37023 10.63C9.57523 10.63 9.77523 10.56 9.88023 10.42V10.12C9.77523 9.98 9.57523 9.91 9.37023 9.91C9.12023 9.91 8.91523 10.04 8.91523 10.275C8.91523 10.5 9.12023 10.63 9.37023 10.63ZM11.7801 11H11.1451V8.585H11.7801V8.915C11.9501 8.7 12.2501 8.525 12.5501 8.525V9.145C12.5051 9.135 12.4451 9.13 12.3751 9.13C12.1651 9.13 11.8851 9.25 11.7801 9.405V11ZM14.0818 11.06C13.3468 11.06 12.7918 10.565 12.7918 9.79C12.7918 9.09 13.3068 8.525 14.0418 8.525C14.7618 8.525 15.2518 9.065 15.2518 9.855V9.995H13.4568C13.4968 10.3 13.7418 10.555 14.1518 10.555C14.3568 10.555 14.6418 10.465 14.7968 10.315L15.0768 10.725C14.8368 10.945 14.4568 11.06 14.0818 11.06ZM14.6368 9.565C14.6218 9.335 14.4618 9.03 14.0418 9.03C13.6468 9.03 13.4768 9.325 13.4468 9.565H14.6368Z" fill="#05080A"/>
<path d="M48.928 11H48.476L47.084 9.096V11H46.616V8.332H47.096L48.46 10.184V8.332H48.928V11ZM50.3549 11.048C49.7429 11.048 49.3629 10.588 49.3629 10.032C49.3629 9.48 49.7429 9.02 50.3549 9.02C50.9749 9.02 51.3509 9.48 51.3509 10.032C51.3509 10.588 50.9749 11.048 50.3549 11.048ZM50.3549 10.676C50.7149 10.676 50.9149 10.376 50.9149 10.032C50.9149 9.692 50.7149 9.392 50.3549 9.392C49.9989 9.392 49.7989 9.692 49.7989 10.032C49.7989 10.376 49.9989 10.676 50.3549 10.676ZM51.9724 11.044C51.8204 11.044 51.6924 10.916 51.6924 10.764C51.6924 10.612 51.8204 10.484 51.9724 10.484C52.1244 10.484 52.2524 10.612 52.2524 10.764C52.2524 10.916 52.1244 11.044 51.9724 11.044ZM55.6242 11H53.6922V10.632C54.7282 9.848 55.1322 9.5 55.1322 9.116C55.1322 8.836 54.8922 8.708 54.6482 8.708C54.3362 8.708 54.0962 8.836 53.9282 9.028L53.6562 8.72C53.8922 8.436 54.2682 8.292 54.6402 8.292C55.1562 8.292 55.6082 8.584 55.6082 9.116C55.6082 9.608 55.1562 10.048 54.4402 10.588H55.6242V11ZM56.8671 11H56.3551L57.3631 8.744H55.9791V8.332H57.9031V8.656L56.8671 11Z" fill="white"/>
<defs>
<linearGradient id="paint0_linear_26835_29190" x1="31.5" y1="8.61" x2="31.5" y2="75.5" gradientUnits="userSpaceOnUse">
<stop stop-color="#2F4553"/>
<stop offset="1" stop-color="#E9113C"/>
</linearGradient>
<linearGradient id="paint1_linear_26835_29190" x1="-4.58" y1="67.7501" x2="49.9" y2="40.6001" gradientUnits="userSpaceOnUse">
<stop stop-color="#F34E36"/>
<stop offset="1" stop-color="#F7BB4B"/>
</linearGradient>
<linearGradient id="paint2_linear_26835_29190" x1="57.9798" y1="46.4616" x2="52.4281" y2="46.01" gradientUnits="userSpaceOnUse">
<stop stop-color="#E88A41" stop-opacity="0"/>
<stop offset="0.25" stop-color="#E98646" stop-opacity="0.23"/>
<stop offset="0.81" stop-color="#EC7D52" stop-opacity="0.8"/>
<stop offset="1" stop-color="#EE7A57"/>
</linearGradient>
<linearGradient id="paint3_linear_26835_29190" x1="19.1781" y1="23.8644" x2="6.3422" y2="26.3269" gradientUnits="userSpaceOnUse">
<stop stop-color="#E88A41" stop-opacity="0"/>
<stop offset="0.25" stop-color="#E98646" stop-opacity="0.23"/>
<stop offset="0.81" stop-color="#EC7D52" stop-opacity="0.8"/>
<stop offset="1" stop-color="#EE7A57"/>
</linearGradient>
<clipPath id="clip0_26835_29190">
<rect width="63" height="88" fill="white"/>
</clipPath>
</defs>
</svg>
