<svg width="63" height="88" viewBox="0 0 63 88" fill="none" xmlns="http://www.w3.org/2000/svg">
<rect width="63" height="88" rx="4" fill="#1CE61C"/>
<path d="M36.7008 13.5133L44.7992 3.48665C45.5586 2.54645 46.7024 2 47.911 2H58C59.6569 2 61 3.34314 61 5V83C61 84.6569 59.6569 86 58 86H5C3.34315 86 2 84.6569 2 83V18C2 16.3431 3.34315 15 5 15H33.589C34.7976 15 35.9414 14.4536 36.7008 13.5133Z" fill="#213743"/>
<mask id="mask0_26835_29191" style="mask-type:luminance" maskUnits="userSpaceOnUse" x="0" y="0" width="63" height="88">
<path d="M59 0H4C1.79 0 0 1.79 0 4V84C0 86.21 1.79 88 4 88H59C61.21 88 63 86.21 63 84V4C63 1.79 61.21 0 59 0ZM61 82.81C61 84.57 59.57 86 57.81 86H5.19C3.43 86 2 84.57 2 82.81V18.19C2 16.43 3.43 15 5.19 15H33.59C34.8 15 35.94 14.45 36.7 13.51L44.8 3.48C45.56 2.54 46.7 1.99 47.91 1.99H57.81C59.57 1.99 61 3.42 61 5.18V82.8V82.81Z" fill="white"/>
</mask>
<g mask="url(#mask0_26835_29191)">
<path d="M68.37 47.3199V26.6399L4.45996 90.5499H25.13L68.37 47.3199Z" fill="white"/>
<path d="M64.66 -2.29004H55.22L-2.92004 55.84V66.18L65.46 -2.20004C65.2 -2.26004 64.93 -2.29004 64.66 -2.29004Z" fill="white"/>
<path d="M68.37 69.23V61.55L39.37 90.55H47.05L68.37 69.23Z" fill="white"/>
</g>
<rect x="5" y="18" width="53" height="40" rx="1" fill="#2F4553"/>
<path d="M57 18H6C5.44772 18 5 18.4477 5 19V57C5 57.5523 5.44772 58 6 58H57C57.5523 58 58 57.5523 58 57V19C58 18.4477 57.5523 18 57 18Z" fill="url(#paint0_linear_26835_29191)"/>
<path d="M7.65 25.58L5 21.81L7.65 18.03L10.3 21.81L7.65 25.58Z" fill="url(#paint1_linear_26835_29191)"/>
<path d="M12.95 25.58L10.3 21.81L12.95 18.03L15.6 21.81L12.95 25.58Z" fill="url(#paint2_linear_26835_29191)"/>
<path d="M18.25 25.58L15.6 21.81L18.25 18.03L20.9 21.81L18.25 25.58Z" fill="url(#paint3_linear_26835_29191)"/>
<path d="M23.55 25.58L20.9 21.81L23.55 18.03L26.2 21.81L23.55 25.58Z" fill="url(#paint4_linear_26835_29191)"/>
<path d="M28.85 25.58L26.2 21.81L28.85 18.03L31.5 21.81L28.85 25.58Z" fill="url(#paint5_linear_26835_29191)"/>
<path d="M34.15 25.58L31.5 21.81L34.15 18.03L36.8 21.81L34.15 25.58Z" fill="url(#paint6_linear_26835_29191)"/>
<path d="M39.4501 25.58L36.8 21.81L39.4501 18.03L42.1 21.81L39.4501 25.58Z" fill="url(#paint7_linear_26835_29191)"/>
<path d="M44.75 25.58L42.1 21.81L44.75 18.03L47.4 21.81L44.75 25.58Z" fill="url(#paint8_linear_26835_29191)"/>
<path d="M50.05 25.58L47.4 21.81L50.05 18.03L52.7 21.81L50.05 25.58Z" fill="url(#paint9_linear_26835_29191)"/>
<path d="M55.3499 25.58L52.7 21.81L55.3499 18.03L58 21.81L55.3499 25.58Z" fill="url(#paint10_linear_26835_29191)"/>
<path d="M7.65 33.1301L5 29.3601L7.65 25.5801L10.3 29.3601L7.65 33.1301Z" fill="url(#paint11_linear_26835_29191)"/>
<path d="M12.95 33.1301L10.3 29.3601L12.95 25.5801L15.6 29.3601L12.95 33.1301Z" fill="url(#paint12_linear_26835_29191)"/>
<path d="M18.25 33.1301L15.6 29.3601L18.25 25.5801L20.9 29.3601L18.25 33.1301Z" fill="url(#paint13_linear_26835_29191)"/>
<path d="M23.55 33.1301L20.9 29.3601L23.55 25.5801L26.2 29.3601L23.55 33.1301Z" fill="url(#paint14_linear_26835_29191)"/>
<path d="M28.85 33.1301L26.2 29.3601L28.85 25.5801L31.5 29.3601L28.85 33.1301Z" fill="url(#paint15_linear_26835_29191)"/>
<path d="M34.15 33.1301L31.5 29.3601L34.15 25.5801L36.8 29.3601L34.15 33.1301Z" fill="url(#paint16_linear_26835_29191)"/>
<path d="M39.4501 33.1301L36.8 29.3601L39.4501 25.5801L42.1 29.3601L39.4501 33.1301Z" fill="url(#paint17_linear_26835_29191)"/>
<path d="M44.75 33.1301L42.1 29.3601L44.75 25.5801L47.4 29.3601L44.75 33.1301Z" fill="url(#paint18_linear_26835_29191)"/>
<path d="M50.05 33.1301L47.4 29.3601L50.05 25.5801L52.7 29.3601L50.05 33.1301Z" fill="url(#paint19_linear_26835_29191)"/>
<path d="M55.3499 33.1301L52.7 29.3601L55.3499 25.5801L58 29.3601L55.3499 33.1301Z" fill="url(#paint20_linear_26835_29191)"/>
<path d="M7.65 40.6901L5 36.9101L7.65 33.1301L10.3 36.9101L7.65 40.6901Z" fill="url(#paint21_linear_26835_29191)"/>
<path d="M12.95 40.6901L10.3 36.9101L12.95 33.1301L15.6 36.9101L12.95 40.6901Z" fill="url(#paint22_linear_26835_29191)"/>
<path d="M18.25 40.6901L15.6 36.9101L18.25 33.1301L20.9 36.9101L18.25 40.6901Z" fill="url(#paint23_linear_26835_29191)"/>
<path d="M23.55 40.6901L20.9 36.9101L23.55 33.1301L26.2 36.9101L23.55 40.6901Z" fill="url(#paint24_linear_26835_29191)"/>
<path d="M28.85 40.6901L26.2 36.9101L28.85 33.1301L31.5 36.9101L28.85 40.6901Z" fill="url(#paint25_linear_26835_29191)"/>
<path d="M34.15 40.6901L31.5 36.9101L34.15 33.1301L36.8 36.9101L34.15 40.6901Z" fill="url(#paint26_linear_26835_29191)"/>
<path d="M39.4501 40.6901L36.8 36.9101L39.4501 33.1301L42.1 36.9101L39.4501 40.6901Z" fill="url(#paint27_linear_26835_29191)"/>
<path d="M44.75 40.6901L42.1 36.9101L44.75 33.1301L47.4 36.9101L44.75 40.6901Z" fill="url(#paint28_linear_26835_29191)"/>
<path d="M50.05 40.6901L47.4 36.9101L50.05 33.1301L52.7 36.9101L50.05 40.6901Z" fill="url(#paint29_linear_26835_29191)"/>
<path d="M55.3499 40.6901L52.7 36.9101L55.3499 33.1301L58 36.9101L55.3499 40.6901Z" fill="url(#paint30_linear_26835_29191)"/>
<path d="M7.65 48.2399L5 44.4599L7.65 40.6899L10.3 44.4599L7.65 48.2399Z" fill="url(#paint31_linear_26835_29191)"/>
<path d="M12.95 48.2399L10.3 44.4599L12.95 40.6899L15.6 44.4599L12.95 48.2399Z" fill="url(#paint32_linear_26835_29191)"/>
<path d="M18.25 48.2399L15.6 44.4599L18.25 40.6899L20.9 44.4599L18.25 48.2399Z" fill="url(#paint33_linear_26835_29191)"/>
<path d="M23.55 48.2399L20.9 44.4599L23.55 40.6899L26.2 44.4599L23.55 48.2399Z" fill="url(#paint34_linear_26835_29191)"/>
<path d="M28.85 48.2399L26.2 44.4599L28.85 40.6899L31.5 44.4599L28.85 48.2399Z" fill="url(#paint35_linear_26835_29191)"/>
<path d="M34.15 48.2399L31.5 44.4599L34.15 40.6899L36.8 44.4599L34.15 48.2399Z" fill="url(#paint36_linear_26835_29191)"/>
<path d="M39.4501 48.2399L36.8 44.4599L39.4501 40.6899L42.1 44.4599L39.4501 48.2399Z" fill="url(#paint37_linear_26835_29191)"/>
<path d="M44.75 48.2399L42.1 44.4599L44.75 40.6899L47.4 44.4599L44.75 48.2399Z" fill="url(#paint38_linear_26835_29191)"/>
<path d="M50.05 48.2399L47.4 44.4599L50.05 40.6899L52.7 44.4599L50.05 48.2399Z" fill="url(#paint39_linear_26835_29191)"/>
<path d="M55.3499 48.2399L52.7 44.4599L55.3499 40.6899L58 44.4599L55.3499 48.2399Z" fill="url(#paint40_linear_26835_29191)"/>
<path d="M7.65 55.79L5 52.01L7.65 48.24L10.3 52.01L7.65 55.79Z" fill="url(#paint41_linear_26835_29191)"/>
<path d="M12.95 55.79L10.3 52.01L12.95 48.24L15.6 52.01L12.95 55.79Z" fill="url(#paint42_linear_26835_29191)"/>
<path d="M18.25 55.79L15.6 52.01L18.25 48.24L20.9 52.01L18.25 55.79Z" fill="url(#paint43_linear_26835_29191)"/>
<path d="M23.55 55.79L20.9 52.01L23.55 48.24L26.2 52.01L23.55 55.79Z" fill="url(#paint44_linear_26835_29191)"/>
<path d="M28.85 55.79L26.2 52.01L28.85 48.24L31.5 52.01L28.85 55.79Z" fill="url(#paint45_linear_26835_29191)"/>
<path d="M34.15 55.79L31.5 52.01L34.15 48.24L36.8 52.01L34.15 55.79Z" fill="url(#paint46_linear_26835_29191)"/>
<path d="M39.4501 55.79L36.8 52.01L39.4501 48.24L42.1 52.01L39.4501 55.79Z" fill="url(#paint47_linear_26835_29191)"/>
<path d="M44.75 55.79L42.1 52.01L44.75 48.24L47.4 52.01L44.75 55.79Z" fill="url(#paint48_linear_26835_29191)"/>
<path d="M50.05 55.79L47.4 52.01L50.05 48.24L52.7 52.01L50.05 55.79Z" fill="url(#paint49_linear_26835_29191)"/>
<path d="M55.3499 55.79L52.7 52.01L55.3499 48.24L58 52.01L55.3499 55.79Z" fill="url(#paint50_linear_26835_29191)"/>
<path d="M31.5001 56.9201C39.1326 56.9201 45.3201 56.1187 45.3201 55.1301C45.3201 54.1415 39.1326 53.3401 31.5001 53.3401C23.8675 53.3401 17.6801 54.1415 17.6801 55.1301C17.6801 56.1187 23.8675 56.9201 31.5001 56.9201Z" fill="#1E3240"/>
<g opacity="0.2">
<path d="M23.08 43.3501C23.08 43.3501 23.1 43.3701 23.11 43.3801L22.88 43.0801C22.93 43.1401 22.96 43.2101 23 43.2801L22.85 42.9201C22.85 42.9201 22.88 43.0101 22.89 43.0501C22.94 43.2501 23.03 43.4201 23.16 43.5601C23.27 43.7201 23.41 43.8501 23.58 43.9501C23.75 44.0601 23.94 44.1201 24.14 44.1301C24.34 44.1701 24.54 44.1701 24.74 44.1001L25.1 43.9501C25.33 43.8201 25.5 43.6401 25.64 43.4101L25.79 43.0501C25.86 42.7801 25.86 42.5201 25.79 42.2501C25.79 42.2201 25.78 42.1901 25.76 42.1601C25.7 42.0001 25.64 41.8501 25.56 41.7001C25.54 41.6701 25.52 41.6301 25.5 41.6001C25.5 41.5901 25.48 41.5701 25.47 41.5601C25.44 41.5101 25.3 41.3201 25.21 41.2201C25.07 41.0701 24.91 40.9701 24.73 40.9101C24.55 40.8201 24.36 40.7701 24.15 40.7801C23.94 40.7801 23.75 40.8201 23.57 40.9101C23.38 40.9701 23.22 41.0701 23.09 41.2201L22.86 41.5201C22.72 41.7501 22.66 42.0101 22.66 42.2801L22.71 42.6801C22.78 42.9301 22.91 43.1501 23.1 43.3401L23.08 43.3501Z" fill="#1E3240"/>
</g>
<path d="M20.39 20.23C22.32 19.24 21.65 21.48 22.99 21.21C23.64 21.08 24.19 21.3 23.79 22.62C23.54 23.43 25.89 24.9 27.73 25.91C28.87 26.54 29.82 26.98 29.82 26.98C32.77 30.11 27.22 33.85 27.22 33.85C25.4 32.37 23.94 30.98 22.79 29.69C18.2 24.56 18.53 21.2 20.4 20.24L20.39 20.23Z" fill="#CBE0FF"/>
<path d="M22.98 21.2099C22.98 21.2099 22.89 22.1099 22.98 22.7099C23.07 23.3099 22.73 25.71 22.41 26.19C22.09 26.67 21.02 27.4699 21.02 27.4699C21.02 27.4699 20.41 26.54 20.25 26.25C20.25 26.25 21.13 26.05 21.45 25.24C21.77 24.43 22.98 21.2 22.98 21.2V21.2099Z" fill="#9BBADD"/>
<path d="M20.25 23.2101C20.25 23.2101 21.19 23.0201 21.47 22.8101C21.47 22.8101 22.19 23.2401 21.47 23.6101C20.75 23.9801 20.25 23.2101 20.25 23.2101Z" fill="#9BBADD"/>
<path d="M42.6601 20.28C42.7401 20.29 42.8301 20.28 42.9101 20.24L44.8001 19.26C44.9301 19.19 45.0101 19.06 45.0101 18.92C45.0101 18.77 44.9301 18.64 44.8001 18.57L43.5001 17.89L44.9601 17.04C45.1501 16.93 45.2101 16.69 45.1001 16.51C44.9901 16.32 44.7501 16.26 44.5701 16.37L42.5101 17.58C42.3901 17.65 42.3101 17.78 42.3201 17.93C42.3201 18.07 42.4001 18.2 42.5301 18.27L43.7901 18.93L42.5701 19.56C42.3801 19.66 42.3001 19.89 42.4001 20.08C42.4601 20.19 42.5601 20.26 42.6801 20.28H42.6601Z" fill="white"/>
<path d="M44.9701 17.3401C45.3733 17.3401 45.7001 17.0133 45.7001 16.6101C45.7001 16.207 45.3733 15.8801 44.9701 15.8801C44.5669 15.8801 44.2401 16.207 44.2401 16.6101C44.2401 17.0133 44.5669 17.3401 44.9701 17.3401Z" fill="white"/>
<path d="M29.98 23.74C29.98 23.74 32.98 15.51 34.41 14.75C35.84 13.99 37.06 19.54 37.06 19.54C37.06 19.54 32.95 24.33 29.98 23.74Z" fill="white"/>
<path d="M49.89 32.9701C49.89 32.9701 53.99 23.8501 53.65 21.8401C53.3 19.8301 47.03 23.4001 47.03 23.4001C47.03 23.4001 47.48 32.4001 49.89 32.9701Z" fill="white"/>
<path d="M43.05 19.61C37.1 17.3 30.4 20.25 28.09 26.21L25.49 32.9C23.18 38.85 26.13 45.55 32.09 47.86C32.64 48.07 33.19 48.24 33.74 48.36C33.74 49.82 33.77 51.58 33.92 52.7C35.29 53.59 39.03 56.08 42.13 54.36C44.02 53.31 45.14 48.6 46.05 45.6C46.58 43.33 46.92 41.56 46.92 41.56C46.96 41.46 47.01 41.36 47.04 41.26L49.64 34.57C51.95 28.62 49 21.92 43.04 19.61H43.05Z" fill="white"/>
<path fill-rule="evenodd" clip-rule="evenodd" d="M41.16 49.2001C41.42 49.5201 41.71 50.0301 42.78 48.8901C43.86 47.7501 42.14 48.1601 42.14 48.1601L41.16 49.2001Z" fill="#CBE0FF"/>
<path d="M26.92 30.2C26.92 30.2 27.81 33.05 28.89 32.41C28.89 32.41 31.65 37.84 33.38 37.25L35.11 36.6699C35.11 36.6699 38.82 39.42 41.42 38.31C44.01 37.2 43.72 36.88 43.72 36.88C43.72 36.88 46.07 37.01 47.54 36.95C49.28 36.88 49.85 33.97 49.85 33.97L47.51 34.4399L45.13 36.02L39.68 36.66L36.72 37.11L34.83 36.2099L33.04 35.82L28.28 30.32L26.9 30.2099L26.92 30.2Z" fill="#CBE0FF"/>
<path d="M46.0501 45.6001C46.1101 45.3301 46.1701 45.0601 46.2301 44.8101C46.2001 44.7501 46.1801 44.7201 46.1801 44.7201L40.0601 44.5701C40.0601 44.5701 40.8501 49.6001 44.7801 49.8101C45.2701 48.3701 45.6801 46.8401 46.0501 45.6001Z" fill="#CBE0FF"/>
<path d="M37.4 32.7401C37.4 32.7401 35.01 32.2801 34.49 31.3501C33.79 30.1001 32.86 33.2301 35.7 34.0601C38.95 35.0201 39.51 33.9101 39.68 32.9901C39.81 32.2501 39.02 33.2301 37.4 32.7401Z" fill="#071D2A"/>
<path d="M34.5 30.77L34.3 31.52C34.24 31.75 34.35 31.99 34.56 32.11C34.59 32.13 34.63 32.14 34.66 32.16C34.72 32.01 34.89 31.92 35.05 31.96C35.23 32.01 35.33 32.19 35.29 32.37C35.29 32.4 35.27 32.42 35.26 32.45C36.41 32.96 37.59 33.23 38.81 33.25C39.05 33.25 39.26 33.1 39.32 32.87L39.52 32.12C37.69 32.16 36.02 31.73 34.51 30.78L34.5 30.77Z" fill="white"/>
<path d="M43.56 24.13C43.92 24.79 44.11 25.5 44.15 26.19C44.6 25.18 44.57 23.93 43.97 22.82C42.99 21 40.84 20.26 39.17 21.16C38.88 21.32 38.62 21.52 38.4 21.75C40.31 21.2 42.49 22.15 43.56 24.12V24.13Z" fill="#CBE0FF"/>
<path d="M38.08 31.3102C40.3996 31.3102 42.28 29.4298 42.28 27.1102C42.28 24.7906 40.3996 22.9102 38.08 22.9102C35.7604 22.9102 33.88 24.7906 33.88 27.1102C33.88 29.4298 35.7604 31.3102 38.08 31.3102Z" fill="#DCDEE4"/>
<path d="M38.58 30.9501C40.8996 30.9501 42.78 29.0696 42.78 26.75C42.78 24.4305 40.8996 22.55 38.58 22.55C36.2604 22.55 34.38 24.4305 34.38 26.75C34.38 29.0696 36.2604 30.9501 38.58 30.9501Z" fill="#213743"/>
<path d="M38.9 30.31C40.9987 30.31 42.7 28.6086 42.7 26.51C42.7 24.4113 40.9987 22.71 38.9 22.71C36.8013 22.71 35.1 24.4113 35.1 26.51C35.1 28.6086 36.8013 30.31 38.9 30.31Z" fill="#071D2A"/>
<path d="M39.22 28.42C39.9435 28.42 40.53 27.8335 40.53 27.1101C40.53 26.3866 39.9435 25.8 39.22 25.8C38.4965 25.8 37.91 26.3866 37.91 27.1101C37.91 27.8335 38.4965 28.42 39.22 28.42Z" fill="white"/>
<path d="M37.77 25.73C38.0407 25.73 38.26 25.5106 38.26 25.24C38.26 24.9694 38.0407 24.75 37.77 24.75C37.4994 24.75 37.28 24.9694 37.28 25.24C37.28 25.5106 37.4994 25.73 37.77 25.73Z" fill="white"/>
<path d="M41.7401 53.6301C38.6401 55.3401 35.3001 53.5901 33.9301 52.7001C34.0001 53.2101 34.0901 53.5801 34.2101 53.7301C35.7401 55.5601 41.3201 55.9301 42.6301 55.2401C43.7601 54.6501 45.1601 49.4201 46.0401 45.6001C45.1401 48.6001 43.6201 52.5901 41.7301 53.6301H41.7401Z" fill="#CBE0FF"/>
<path d="M31.01 47.36C31.01 47.36 29.26 46.12 28.19 47.64C27.56 48.55 26.75 49.17 24.83 48.75C21.41 48 18.78 45.03 19.32 42.75C19.86 40.48 21.14 37.02 24.85 35.44C29.51 33.46 34.94 40.15 31.01 47.35V47.36Z" fill="white"/>
<path d="M19.31 43.8801C19.31 43.8801 19.75 46.0401 23.5 47.3301C27.9 48.8501 28.32 43.7901 30.12 45.2901C31.44 46.3801 33.81 46.7401 33.81 46.7401L33.71 48.3601C33.71 48.3601 31.36 47.7801 30.62 47.1701C30.62 47.1701 29.04 46.2401 28.1 47.7401C27.16 49.2401 25.56 49.0301 23.9 48.4901C23.9 48.4901 19.76 47.1101 19.29 43.8701L19.31 43.8801Z" fill="#CBE0FF"/>
<path d="M49.6801 37.25C49.5701 38.19 47.9201 39.55 45.8101 39.48L45.8801 38.02L49.6801 37.25Z" fill="#CBE0FF"/>
<path d="M45.88 38.02C46.74 38.87 44.28 41.89 44.28 41.89C44.28 41.89 42.94 42.44 42.28 42C41.62 41.56 43.31 41.11 44.14 39.33C44.65 38.24 45.33 37.48 45.88 38.03V38.02Z" fill="#FF7F00"/>
<path fill-rule="evenodd" clip-rule="evenodd" d="M41.11 46.0701C41.11 46.0701 40.78 47.5801 40.32 48.2701C39.86 48.9601 41.17 49.6901 41.83 48.7301C42.49 47.7701 42.48 46.5701 42.48 46.5701L41.1 46.0701H41.11Z" fill="#FF7F00"/>
<path fill-rule="evenodd" clip-rule="evenodd" d="M40.9499 46.6901C41.3299 47.4001 41.6899 48.2801 40.9499 49.1901C41.2499 49.2101 41.5899 49.0901 41.8299 48.7301C42.4899 47.7701 42.4799 46.5701 42.4799 46.5701L41.0999 46.0701C41.0999 46.0701 41.0399 46.3301 40.9399 46.6901H40.9499Z" fill="#FF5500"/>
<path d="M49.08 36.01C49.08 36.01 52.83 41.51 45.94 46.11C41.77 48.9 38.95 44.05 40.26 43.2C40.26 43.2 39.85 42.29 40.32 41.73C40.95 40.99 41.44 41.75 41.44 41.75C41.44 41.75 43.52 41.27 44.96 40.23C46.72 38.97 49.09 36 49.09 36L49.08 36.01Z" fill="white"/>
<path d="M20.7599 26.79H17.5699V18.78H20.7599C22.2299 18.78 23.4199 19.97 23.4199 21.44V24.14C23.4199 25.61 22.2299 26.8 20.7599 26.8V26.79ZM19.6499 24.7H20.7499C21.0699 24.7 21.3299 24.44 21.3299 24.12V21.42C21.3299 21.1 21.0699 20.84 20.7499 20.84H19.6499V24.69V24.7Z" fill="white"/>
<path d="M19.79 27.15C19.79 29.74 9.85999 29.74 9.85999 27.15V17.96H19.79V27.15Z" fill="white"/>
<path d="M18.61 25.59C18.61 27.19 11.03 27.19 11.03 25.59V17.27H18.61V25.59Z" fill="#FFC201"/>
<path d="M16.61 18.77H18.06V25.08C18.06 25.47 17.74 25.79 17.35 25.79H17.32C16.93 25.79 16.61 25.47 16.61 25.08V18.77Z" fill="#FF7F00"/>
<path d="M14.1 19.1702H15.55V25.4802C15.55 25.8702 15.23 26.1902 14.84 26.1902H14.81C14.42 26.1902 14.1 25.8702 14.1 25.4802V19.1702Z" fill="#FF7F00"/>
<path d="M11.59 18.77H13.04V25.08C13.04 25.47 12.72 25.79 12.33 25.79H12.3C11.91 25.79 11.59 25.47 11.59 25.08V18.77Z" fill="#FF7F00"/>
<path d="M10.78 18.77C11.8293 18.77 12.68 17.9193 12.68 16.87C12.68 15.8206 11.8293 14.97 10.78 14.97C9.73066 14.97 8.88 15.8206 8.88 16.87C8.88 17.9193 9.73066 18.77 10.78 18.77Z" fill="white"/>
<path d="M18.8401 19C19.8894 19 20.7401 18.1493 20.7401 17.1C20.7401 16.0506 19.8894 15.2 18.8401 15.2C17.7907 15.2 16.9401 16.0506 16.9401 17.1C16.9401 18.1493 17.7907 19 18.8401 19Z" fill="white"/>
<path d="M16.45 19.1701C17.4994 19.1701 18.35 18.3195 18.35 17.2701C18.35 16.2208 17.4994 15.3701 16.45 15.3701C15.4007 15.3701 14.55 16.2208 14.55 17.2701C14.55 18.3195 15.4007 19.1701 16.45 19.1701Z" fill="white"/>
<path d="M14 17.9601C15.3531 17.9601 16.45 16.8632 16.45 15.5101C16.45 14.157 15.3531 13.0601 14 13.0601C12.647 13.0601 11.55 14.157 11.55 15.5101C11.55 16.8632 12.647 17.9601 14 17.9601Z" fill="white"/>
<path d="M14.82 16.31C12.08 16.31 9.85999 17.05 9.85999 17.96C9.85999 18.48 10.6 18.95 11.75 19.25C12.08 19.34 12.31 19.64 12.31 19.98V21.96C12.31 22.63 12.85 23.17 13.52 23.17C14.19 23.17 14.73 22.63 14.73 21.96V20.14C14.73 19.84 14.97 19.59 15.27 19.57C15.83 19.54 16.69 19.48 17.13 19.41C18.71 19.13 19.78 18.5801 19.78 17.9501C19.78 17.0401 17.56 16.3 14.82 16.3V16.31Z" fill="white"/>
<path d="M20.77 20.86C20.77 20.86 21.88 20.83 21.88 21.63C21.88 22.75 21.03 23.09 20.88 22.99C20.39 22.67 20.77 20.86 20.77 20.86Z" fill="#CBE0FF"/>
<path d="M20.88 14.5499C21.2004 14.5499 21.46 14.2902 21.46 13.9699C21.46 13.6496 21.2004 13.3899 20.88 13.3899C20.5597 13.3899 20.3 13.6496 20.3 13.9699C20.3 14.2902 20.5597 14.5499 20.88 14.5499Z" fill="white"/>
<path d="M11.66 13.2299C11.8202 13.2299 11.95 13.1001 11.95 12.9399C11.95 12.7797 11.8202 12.6499 11.66 12.6499C11.4998 12.6499 11.37 12.7797 11.37 12.9399C11.37 13.1001 11.4998 13.2299 11.66 13.2299Z" fill="white"/>
<path d="M19.34 12.08C19.5002 12.08 19.63 11.9502 19.63 11.79C19.63 11.6298 19.5002 11.5 19.34 11.5C19.1799 11.5 19.05 11.6298 19.05 11.79C19.05 11.9502 19.1799 12.08 19.34 12.08Z" fill="white"/>
<path d="M49.6801 37.2499L49.2801 36.9399L47.3501 37.6799C46.8701 38.2999 46.3301 38.9499 45.8101 39.4799C47.9201 39.5499 49.5701 38.1799 49.6801 37.2499Z" fill="#CBE0FF"/>
<path d="M50.26 32.3398C50.26 32.3398 51.53 34.2898 51.3 35.4998C51.23 35.8898 51.05 36.0898 50.85 36.1898C50.4 36.4098 49.88 36.0498 49.88 35.5498L49.86 33.9598L50.26 32.3398Z" fill="#FF7F00"/>
<path d="M50.34 35.9299C50.74 37.2699 47.08 38.9599 46.34 38.5199C45.6 38.0799 45.48 36.8299 46.45 36.7899C48.3 36.7199 50.02 34.8699 50.34 35.9199V35.9299Z" fill="#FF7F00"/>
<path d="M29.11 24.17C29.11 24.17 28.42 25.39 28.25 25.79C28.08 26.19 28.1 27.95 28.68 29.01C29.26 30.07 28.25 31.56 26.92 30.19C25.59 28.82 26.86 22.44 29.11 24.17Z" fill="#FF7F00"/>
<path fill-rule="evenodd" clip-rule="evenodd" d="M28.66 30.0498C29.68 30.2898 29.49 31.9699 31.61 33.6499C33.73 35.3299 34.22 35.1098 33.4 36.1398C32.58 37.1698 29.74 35.3599 28.66 33.3299C27.59 31.3099 28.1 29.9098 28.66 30.0398V30.0498Z" fill="#FF7F00"/>
<path fill-rule="evenodd" clip-rule="evenodd" d="M33.5501 35.5899C34.4601 35.0599 35.4701 36.4199 38.1601 36.1899C40.8601 35.9699 41.2701 35.4499 41.3901 36.7599C41.5101 38.0699 37.9701 38.7199 35.8001 37.9799C33.6301 37.2399 33.0501 35.8699 33.5501 35.5899Z" fill="#FF7F00"/>
<path fill-rule="evenodd" clip-rule="evenodd" d="M41.2701 36.59C41.6001 37.3 43.4001 37.43 44.9801 37.01C46.5601 36.59 47.8901 35.62 47.7501 34.57C47.6101 33.52 46.4601 34.05 45.9301 34.57C45.4001 35.09 43.8301 35.51 42.7401 35.37C41.6401 35.23 40.8601 35.71 41.2701 36.59Z" fill="#FF7F00"/>
<path fill-rule="evenodd" clip-rule="evenodd" d="M47.52 34.4298C47.84 34.9098 49.48 34.5698 49.86 34.1398C50.24 33.7098 51.14 32.6098 50.26 32.3398C50.26 32.3398 49.59 33.2998 48.67 33.4898C47.75 33.6798 47.08 33.7598 47.53 34.4398L47.52 34.4298Z" fill="#FF7F00"/>
<g opacity="0.5">
<path fill-rule="evenodd" clip-rule="evenodd" d="M35.3301 35.8298C35.3301 35.8298 35.8501 36.6898 35.9401 36.6498C36.0301 36.6098 35.8501 35.9998 35.8501 35.9998L35.3201 35.8298H35.3301Z" fill="#AD3A00"/>
<path fill-rule="evenodd" clip-rule="evenodd" d="M36.52 36.1399C36.52 36.1399 37.23 36.6699 37.37 36.8899C37.51 37.1099 37.86 36.6399 37.17 36.2099L36.53 36.1399H36.52Z" fill="#AD3A00"/>
<path fill-rule="evenodd" clip-rule="evenodd" d="M37.6001 36.22C37.6001 36.22 38.2701 36.5999 38.4701 36.7999C38.6701 36.9999 38.6901 36.71 38.5501 36.49C38.3601 36.21 38.2101 36.2 38.2101 36.2L37.6001 36.22Z" fill="#AD3A00"/>
<path fill-rule="evenodd" clip-rule="evenodd" d="M29.9801 31.76C29.9801 31.76 29.9601 32.97 30.1001 33.04C30.2401 33.11 30.3401 32.33 30.3401 32.33L29.9801 31.76Z" fill="#AD3A00"/>
<path fill-rule="evenodd" clip-rule="evenodd" d="M30.7201 32.8098C30.7201 32.8098 30.7001 33.7598 30.8301 33.9698C30.9601 34.1798 31.0201 33.1298 31.0201 33.1298L30.7201 32.8098Z" fill="#AD3A00"/>
<path fill-rule="evenodd" clip-rule="evenodd" d="M31.42 33.5C31.42 33.5 31.48 34.58 31.65 34.66C31.82 34.74 31.79 33.79 31.79 33.79L31.42 33.49V33.5Z" fill="#AD3A00"/>
<path fill-rule="evenodd" clip-rule="evenodd" d="M28.1801 26.1499C28.1801 26.1499 27.4701 26.7599 27.6201 26.9099C27.7701 27.0599 28.1601 26.7099 28.1601 26.7099L28.1801 26.1599V26.1499Z" fill="#AD3A00"/>
<path fill-rule="evenodd" clip-rule="evenodd" d="M28.1801 27.3799C28.1801 27.3799 27.7801 28.2999 27.8901 28.4199C28.0001 28.5399 28.3001 27.8999 28.3001 27.8999L28.1801 27.3799Z" fill="#AD3A00"/>
<path fill-rule="evenodd" clip-rule="evenodd" d="M43.4901 35.3798C43.4901 35.3798 44.5001 35.9698 44.6201 35.8098C44.7401 35.6498 44.1001 35.2998 44.1001 35.2998L43.4901 35.3698V35.3798Z" fill="#AD3A00"/>
<path fill-rule="evenodd" clip-rule="evenodd" d="M44.8501 35.1199C44.8501 35.1199 45.6201 35.34 45.7601 35.24C45.9001 35.14 45.3101 34.95 45.3101 34.95L44.8601 35.1199H44.8501Z" fill="#AD3A00"/>
<path fill-rule="evenodd" clip-rule="evenodd" d="M47.5 36.5899C47.5 36.5899 47.09 37.0299 47.2 37.0999C47.31 37.1699 47.9 36.4399 47.9 36.4399L47.5 36.5899Z" fill="#AD3A00"/>
<path fill-rule="evenodd" clip-rule="evenodd" d="M48.44 36.2C48.44 36.2 47.91 36.73 48.03 36.77C48.15 36.81 48.84 36.01 48.84 36.01L48.44 36.2Z" fill="#AD3A00"/>
</g>
<path fill-rule="evenodd" clip-rule="evenodd" d="M6.49771 79C6.98969 79 7.48602 79.213 7.49037 79.6913C7.49037 80.1043 7.24656 80.2696 6.99839 80.2696C6.75023 80.2696 6.73281 80.1435 6.73281 80.1435C6.73281 80.1435 7.02452 79.9261 7.02452 79.7174C7.02452 79.6087 6.94179 79.313 6.489 79.3174C5.8577 79.3174 5.5181 79.6174 5.5181 80.1522C5.5181 80.7652 7.35105 80.9739 7.3554 81.7652C7.3554 82.613 6.47594 82.9957 5.69225 83C5.283 83 5.01306 82.7609 5.00871 82.3783C5.00871 81.9261 5.22204 81.4652 5.75756 81.4652C5.88382 81.4565 5.98831 81.5522 5.99702 81.6783C5.99702 81.6783 5.99702 81.6826 5.99702 81.687C5.99702 81.687 5.45715 81.8391 5.4615 82.3783C5.4615 82.4783 5.56599 82.6609 5.81851 82.6565C6.07103 82.6522 6.82424 82.4739 6.81989 81.8087C6.81989 81.1913 5.00435 81.1087 5 80.1478C5 79.0652 6.08845 79.0087 6.49771 79.0087V79ZM10.747 79.6C10.8123 79.5696 11.2129 79.4913 11.1955 79.813C11.1824 80.1348 10.9386 80.6913 10.9037 80.9348C11.2303 80.7696 11.6918 80.2087 11.6918 80.2087C11.6918 80.2087 12.0183 80.2522 11.9182 80.4522C11.818 80.6522 11.1519 81.1435 11.1519 81.1435C11.1519 81.1435 11.3043 82.5696 12.1707 82.5696C12.6453 82.5696 12.8499 82.3609 12.937 82.287C12.9587 82.2696 12.9762 82.2652 12.9849 82.2783C13.0197 82.387 12.9936 82.5043 12.9152 82.5913C12.8194 82.6957 12.5974 82.8217 12.1533 82.8261C11.3653 82.8261 10.9255 82.1957 10.8123 81.2609C10.7252 81.5348 10.7339 81.9826 10.7209 82.2C10.6948 82.2435 10.2507 82.4174 10.2158 82.1174C10.2158 82.0913 10.2158 82.0696 10.2158 82.0435C10.1331 82.1609 10.0199 82.2826 9.91108 82.2826C9.71951 82.2826 9.63679 82.1217 9.60196 82.0391C9.57584 82.0696 9.3625 82.287 9.08821 82.287C8.92277 82.2913 8.77474 82.1957 8.70943 82.0435C8.57011 82.1435 8.32195 82.2913 8.03895 82.2913C7.73418 82.2913 7.66017 82.1087 7.66017 81.9565C7.66017 81.713 7.84303 80.987 7.84303 80.987C7.84303 80.987 7.48602 81.1304 7.36411 81.1348C7.19431 81.1348 7.11159 80.8217 7.11159 80.813C7.11159 80.8087 7.11159 80.8 7.1203 80.8C7.22044 80.7609 7.94317 80.513 7.94317 80.513C7.94317 80.513 8.07813 79.9826 8.09555 79.913C8.11296 79.8435 8.2131 79.7 8.33065 79.6565C8.41773 79.6217 8.50916 79.6 8.60059 79.5913C8.63107 79.5913 8.65284 79.6 8.65284 79.6174C8.65284 79.6348 8.47433 80.4087 8.47433 80.4087C8.47433 80.4087 8.84876 80.3217 8.98808 80.3217C9.09692 80.3217 9.15352 80.387 9.09257 80.4696C9.03162 80.5522 8.96196 80.6478 8.92712 80.6913C8.88794 80.7348 8.86182 80.7435 8.77039 80.7609C8.64413 80.787 8.36113 80.8565 8.36113 80.8565C8.36113 80.8565 8.13473 81.6783 8.13909 81.8174C8.13909 81.8957 8.16521 81.987 8.26099 81.987C8.35678 81.987 8.53964 81.8739 8.67025 81.7913C8.69202 81.1522 9.18835 80.7261 9.57584 80.7261C9.7021 80.7261 9.65421 80.8478 9.79788 80.8478H9.88931C9.94591 80.8478 10.0069 80.8522 10.0069 80.9957C10.0069 81.1957 9.89367 81.5261 9.89367 81.7348C9.89367 81.8826 9.91544 81.987 9.97204 81.987C10.0678 81.987 10.1767 81.8478 10.255 81.7261C10.3813 81.0304 10.734 79.7609 10.734 79.6174L10.747 79.6ZM12.5016 80.7C12.7672 80.6783 12.9326 80.8217 12.9631 80.9C12.9936 80.9783 12.9892 81.1609 12.9152 81.2913C12.6845 81.7044 12.1097 81.6304 12.1097 81.6304C12.1097 81.6304 12.0444 81.9565 12.3405 81.9565C12.593 81.9565 12.7062 81.8304 12.8151 81.7261C12.8586 81.7261 12.9936 81.8652 12.9326 81.9609C12.8847 82.0348 12.6191 82.2565 12.2795 82.2609C11.7397 82.2609 11.6047 81.8 11.6744 81.4696C11.7658 81.0609 12.1751 80.7217 12.5016 80.6957V80.7ZM9.6455 80.987C9.32332 80.987 8.82699 81.9696 9.20577 81.9652C9.61938 81.9652 9.6455 81.1826 9.6455 81.0043V80.987ZM12.6409 80.8913C12.4232 80.9 12.1751 81.3174 12.1533 81.5C12.4798 81.513 12.654 81.1957 12.6757 81.0696C12.6888 80.9739 12.6932 80.887 12.6409 80.887V80.8913Z" fill="#557086"/>
<path d="M51.1444 79.3778L51.6412 80.278L52.6518 80.4733C52.7792 80.4988 52.8302 80.6559 52.741 80.7494L52.0361 81.5009L52.1635 82.5243C52.1805 82.6559 52.0446 82.7494 51.93 82.6942L51 82.2568L50.0701 82.6942C49.9512 82.7494 49.8196 82.6517 49.8366 82.5243L49.9639 81.5009L49.2591 80.7494C49.1699 80.6559 49.2208 80.4988 49.3482 80.4733L50.3588 80.278L50.8557 79.3778C50.9194 79.2632 51.085 79.2632 51.1444 79.3778Z" fill="#FFC200"/>
<path d="M51 79.2929C51.0552 79.2929 51.1147 79.3226 51.1444 79.3778L51.6412 80.278L52.6518 80.4733C52.7792 80.4988 52.8302 80.6559 52.741 80.7494L52.0361 81.5009L52.1635 82.5243C52.1763 82.6262 52.0955 82.7111 51.9979 82.7111C51.9766 82.7111 51.9512 82.7069 51.9257 82.6942L50.9957 82.2568L50.0658 82.6942C50.0403 82.7069 50.0191 82.7111 49.9936 82.7111C49.9002 82.7111 49.8153 82.6262 49.828 82.5243L49.9554 81.5009L49.2505 80.7494C49.1613 80.6559 49.2123 80.4988 49.3397 80.4733L50.3503 80.278L50.8471 79.3778C50.8768 79.3226 50.9363 79.2929 50.9915 79.2929M51 79.0806C50.8641 79.0806 50.7367 79.157 50.6688 79.2759L50.2187 80.0912L49.3057 80.2653C49.1698 80.2908 49.0594 80.3884 49.017 80.5201C48.9745 80.6517 49.0085 80.7961 49.1019 80.8937L49.7388 81.5731L49.6242 82.4946C49.6115 82.6007 49.6454 82.7111 49.7134 82.7918C49.7856 82.8725 49.8875 82.9192 49.9979 82.9192C50.0531 82.9192 50.1083 82.9065 50.1592 82.881L51 82.4861L51.8408 82.881C51.8917 82.9065 51.9469 82.9192 52.0021 82.9192C52.1125 82.9192 52.2144 82.8725 52.2866 82.7918C52.3588 82.7111 52.3928 82.6007 52.3758 82.4946L52.2611 81.5731L52.8981 80.8937C52.9915 80.7918 53.0255 80.6474 52.983 80.5201C52.9405 80.3884 52.8301 80.2908 52.6943 80.2653L51.7813 80.0912L51.3312 79.2759C51.2633 79.157 51.1359 79.0806 51 79.0806Z" fill="#213743"/>
<path d="M51 79.8152V80.9744C51 81.0678 51.0892 81.1315 51.1784 81.106L52.2187 80.7706C52.2739 80.7536 52.2697 80.6729 52.2102 80.6602L51.5563 80.5413C51.4969 80.5286 51.4417 80.4903 51.4119 80.4351L51.085 79.7939C51.0637 79.7515 50.9958 79.7642 50.9958 79.8152H51Z" fill="#FFEBB8"/>
<path d="M51 81.4924V82.0699C51 82.1039 51.017 82.1294 51.0467 82.1464L51.7983 82.5073C51.8365 82.5243 51.8705 82.4818 51.845 82.4479L51.0934 81.4627C51.0637 81.4245 51 81.4457 51 81.4924Z" fill="#FF7F00"/>
<path d="M56.1444 79.3778L56.6412 80.278L57.6518 80.4733C57.7792 80.4988 57.8302 80.6559 57.741 80.7494L57.0361 81.5009L57.1635 82.5243C57.1805 82.6559 57.0446 82.7494 56.93 82.6942L56 82.2568L55.0701 82.6942C54.9512 82.7494 54.8196 82.6517 54.8366 82.5243L54.9639 81.5009L54.2591 80.7494C54.1699 80.6559 54.2208 80.4988 54.3482 80.4733L55.3588 80.278L55.8557 79.3778C55.9194 79.2632 56.085 79.2632 56.1444 79.3778Z" fill="#FFC200"/>
<path d="M56 79.2929C56.0552 79.2929 56.1147 79.3226 56.1444 79.3778L56.6412 80.278L57.6518 80.4733C57.7792 80.4988 57.8302 80.6559 57.741 80.7494L57.0361 81.5009L57.1635 82.5243C57.1763 82.6262 57.0955 82.7111 56.9979 82.7111C56.9766 82.7111 56.9512 82.7069 56.9257 82.6942L55.9957 82.2568L55.0658 82.6942C55.0403 82.7069 55.0191 82.7111 54.9936 82.7111C54.9002 82.7111 54.8153 82.6262 54.828 82.5243L54.9554 81.5009L54.2505 80.7494C54.1613 80.6559 54.2123 80.4988 54.3397 80.4733L55.3503 80.278L55.8471 79.3778C55.8768 79.3226 55.9363 79.2929 55.9915 79.2929M56 79.0806C55.8641 79.0806 55.7367 79.157 55.6688 79.2759L55.2187 80.0912L54.3057 80.2653C54.1698 80.2908 54.0594 80.3884 54.017 80.5201C53.9745 80.6517 54.0085 80.7961 54.1019 80.8937L54.7388 81.5731L54.6242 82.4946C54.6115 82.6007 54.6454 82.7111 54.7134 82.7918C54.7856 82.8725 54.8875 82.9192 54.9979 82.9192C55.0531 82.9192 55.1083 82.9065 55.1592 82.881L56 82.4861L56.8408 82.881C56.8917 82.9065 56.9469 82.9192 57.0021 82.9192C57.1125 82.9192 57.2144 82.8725 57.2866 82.7918C57.3588 82.7111 57.3928 82.6007 57.3758 82.4946L57.2611 81.5731L57.8981 80.8937C57.9915 80.7918 58.0255 80.6474 57.983 80.5201C57.9405 80.3884 57.8301 80.2908 57.6943 80.2653L56.7813 80.0912L56.3312 79.2759C56.2633 79.157 56.1359 79.0806 56 79.0806Z" fill="#213743"/>
<path d="M56 79.8152V80.9744C56 81.0678 56.0892 81.1315 56.1784 81.106L57.2187 80.7706C57.2739 80.7536 57.2697 80.6729 57.2102 80.6602L56.5563 80.5413C56.4969 80.5286 56.4417 80.4903 56.4119 80.4351L56.085 79.7939C56.0637 79.7515 55.9958 79.7642 55.9958 79.8152H56Z" fill="#FFEBB8"/>
<path d="M56 81.4924V82.0699C56 82.1039 56.017 82.1294 56.0467 82.1464L56.7983 82.5073C56.8365 82.5243 56.8705 82.4818 56.845 82.4479L56.0934 81.4627C56.0637 81.4245 56 81.4457 56 81.4924Z" fill="#FF7F00"/>
<rect x="13" y="62" width="37" height="13" rx="6.5" fill="#2F4553"/>
<path d="M28.5935 70H27.5615V67.318L26.8895 67.996L26.3015 67.378L27.6995 65.998H28.5935V70ZM30.8091 70.072C30.1011 70.072 29.5671 69.856 29.1951 69.49L29.7591 68.77C30.0351 69.022 30.4131 69.16 30.7971 69.16C31.2351 69.16 31.4511 68.944 31.4511 68.698C31.4511 68.428 31.2411 68.236 30.8271 68.236C30.5091 68.236 30.2571 68.326 30.0351 68.536L29.3211 68.362V65.998H32.2251V66.898H30.3531V67.672C30.5451 67.486 30.8571 67.354 31.2111 67.354C31.8891 67.354 32.5011 67.852 32.5011 68.656C32.5011 69.52 31.8471 70.072 30.8091 70.072ZM35.7662 70H34.7522L34.1942 69.124L33.6302 70H32.6222L33.6122 68.512L32.6822 67.102H33.6962L34.1942 67.888L34.6862 67.102H35.7002L34.7762 68.512L35.7662 70Z" fill="white"/>
<path d="M8.03 11H7.215L6.56 9.815H6.04V11H5.33V7.665H6.89C7.585 7.665 8.01 8.12 8.01 8.74C8.01 9.33 7.64 9.645 7.28 9.73L8.03 11ZM6.785 9.19C7.07 9.19 7.285 9.02 7.285 8.74C7.285 8.46 7.07 8.29 6.785 8.29H6.04V9.19H6.785ZM10.5152 11H9.88023V10.75C9.71523 10.945 9.43023 11.06 9.11523 11.06C8.73023 11.06 8.27523 10.8 8.27523 10.26C8.27523 9.695 8.73023 9.48 9.11523 9.48C9.43523 9.48 9.72023 9.585 9.88023 9.775V9.45C9.88023 9.205 9.67023 9.045 9.35023 9.045C9.09023 9.045 8.85023 9.14 8.64523 9.33L8.40523 8.905C8.70023 8.645 9.08023 8.525 9.46023 8.525C10.0102 8.525 10.5152 8.745 10.5152 9.44V11ZM9.37023 10.63C9.57523 10.63 9.77523 10.56 9.88023 10.42V10.12C9.77523 9.98 9.57523 9.91 9.37023 9.91C9.12023 9.91 8.91523 10.04 8.91523 10.275C8.91523 10.5 9.12023 10.63 9.37023 10.63ZM11.7801 11H11.1451V8.585H11.7801V8.915C11.9501 8.7 12.2501 8.525 12.5501 8.525V9.145C12.5051 9.135 12.4451 9.13 12.3751 9.13C12.1651 9.13 11.8851 9.25 11.7801 9.405V11ZM14.0818 11.06C13.3468 11.06 12.7918 10.565 12.7918 9.79C12.7918 9.09 13.3068 8.525 14.0418 8.525C14.7618 8.525 15.2518 9.065 15.2518 9.855V9.995H13.4568C13.4968 10.3 13.7418 10.555 14.1518 10.555C14.3568 10.555 14.6418 10.465 14.7968 10.315L15.0768 10.725C14.8368 10.945 14.4568 11.06 14.0818 11.06ZM14.6368 9.565C14.6218 9.335 14.4618 9.03 14.0418 9.03C13.6468 9.03 13.4768 9.325 13.4468 9.565H14.6368Z" fill="#05080A"/>
<path d="M48.678 11H48.226L46.834 9.096V11H46.366V8.332H46.846L48.21 10.184V8.332H48.678V11ZM50.1049 11.048C49.4929 11.048 49.1129 10.588 49.1129 10.032C49.1129 9.48 49.4929 9.02 50.1049 9.02C50.7249 9.02 51.1009 9.48 51.1009 10.032C51.1009 10.588 50.7249 11.048 50.1049 11.048ZM50.1049 10.676C50.4649 10.676 50.6649 10.376 50.6649 10.032C50.6649 9.692 50.4649 9.392 50.1049 9.392C49.7489 9.392 49.5489 9.692 49.5489 10.032C49.5489 10.376 49.7489 10.676 50.1049 10.676ZM51.7224 11.044C51.5704 11.044 51.4424 10.916 51.4424 10.764C51.4424 10.612 51.5704 10.484 51.7224 10.484C51.8744 10.484 52.0024 10.612 52.0024 10.764C52.0024 10.916 51.8744 11.044 51.7224 11.044ZM55.3742 11H53.4422V10.632C54.4782 9.848 54.8822 9.5 54.8822 9.116C54.8822 8.836 54.6422 8.708 54.3982 8.708C54.0862 8.708 53.8462 8.836 53.6782 9.028L53.4062 8.72C53.6422 8.436 54.0182 8.292 54.3902 8.292C54.9062 8.292 55.3582 8.584 55.3582 9.116C55.3582 9.608 54.9062 10.048 54.1902 10.588H55.3742V11ZM56.8131 11.048C56.2651 11.048 55.7891 10.796 55.7891 10.316C55.7891 9.976 56.0651 9.732 56.3891 9.624C56.0891 9.528 55.8331 9.332 55.8331 8.992C55.8331 8.5 56.3371 8.292 56.8131 8.292C57.2811 8.292 57.7931 8.5 57.7931 8.992C57.7931 9.332 57.5331 9.528 57.2331 9.624C57.5571 9.732 57.8331 9.976 57.8331 10.316C57.8331 10.792 57.3571 11.048 56.8131 11.048ZM56.8131 9.44C56.9771 9.412 57.3171 9.316 57.3171 9.064C57.3171 8.84 57.0971 8.708 56.8131 8.708C56.5211 8.708 56.3051 8.84 56.3051 9.064C56.3051 9.316 56.6491 9.412 56.8131 9.44ZM56.8131 10.632C57.1091 10.632 57.3611 10.488 57.3611 10.256C57.3611 9.98 56.9771 9.856 56.8131 9.836C56.6451 9.856 56.2611 9.98 56.2611 10.256C56.2611 10.488 56.5091 10.632 56.8131 10.632Z" fill="white"/>
<defs>
<linearGradient id="paint0_linear_26835_29191" x1="31.5" y1="6.9" x2="31.5" y2="38.98" gradientUnits="userSpaceOnUse">
<stop stop-color="#1CE61C"/>
<stop offset="1" stop-color="#2F4553"/>
</linearGradient>
<linearGradient id="paint1_linear_26835_29191" x1="7.65" y1="18.35" x2="7.65" y2="53.24" gradientUnits="userSpaceOnUse">
<stop stop-color="#1CE61C"/>
<stop offset="1" stop-color="#2F4553" stop-opacity="0"/>
</linearGradient>
<linearGradient id="paint2_linear_26835_29191" x1="12.95" y1="3.16124e-05" x2="12.95" y2="3.16124e-05" gradientUnits="userSpaceOnUse">
<stop stop-color="#1CE61C"/>
<stop offset="1" stop-color="#2F4553" stop-opacity="0"/>
</linearGradient>
<linearGradient id="paint3_linear_26835_29191" x1="18.25" y1="3.16124e-05" x2="18.25" y2="3.16124e-05" gradientUnits="userSpaceOnUse">
<stop stop-color="#1CE61C"/>
<stop offset="1" stop-color="#2F4553" stop-opacity="0"/>
</linearGradient>
<linearGradient id="paint4_linear_26835_29191" x1="23.55" y1="18.35" x2="23.55" y2="53.24" gradientUnits="userSpaceOnUse">
<stop stop-color="#1CE61C"/>
<stop offset="1" stop-color="#2F4553" stop-opacity="0"/>
</linearGradient>
<linearGradient id="paint5_linear_26835_29191" x1="28.85" y1="18.35" x2="28.85" y2="53.24" gradientUnits="userSpaceOnUse">
<stop stop-color="#1CE61C"/>
<stop offset="1" stop-color="#2F4553" stop-opacity="0"/>
</linearGradient>
<linearGradient id="paint6_linear_26835_29191" x1="34.15" y1="18.35" x2="34.15" y2="53.24" gradientUnits="userSpaceOnUse">
<stop stop-color="#1CE61C"/>
<stop offset="1" stop-color="#2F4553" stop-opacity="0"/>
</linearGradient>
<linearGradient id="paint7_linear_26835_29191" x1="39.45" y1="18.35" x2="39.45" y2="53.24" gradientUnits="userSpaceOnUse">
<stop stop-color="#1CE61C"/>
<stop offset="1" stop-color="#2F4553" stop-opacity="0"/>
</linearGradient>
<linearGradient id="paint8_linear_26835_29191" x1="44.75" y1="18.35" x2="44.75" y2="53.24" gradientUnits="userSpaceOnUse">
<stop stop-color="#1CE61C"/>
<stop offset="1" stop-color="#2F4553" stop-opacity="0"/>
</linearGradient>
<linearGradient id="paint9_linear_26835_29191" x1="50.05" y1="18.35" x2="50.05" y2="53.24" gradientUnits="userSpaceOnUse">
<stop stop-color="#1CE61C"/>
<stop offset="1" stop-color="#2F4553" stop-opacity="0"/>
</linearGradient>
<linearGradient id="paint10_linear_26835_29191" x1="55.35" y1="18.35" x2="55.35" y2="53.24" gradientUnits="userSpaceOnUse">
<stop stop-color="#1CE61C"/>
<stop offset="1" stop-color="#2F4553" stop-opacity="0"/>
</linearGradient>
<linearGradient id="paint11_linear_26835_29191" x1="7.65" y1="7.47412e-05" x2="7.65" y2="7.47412e-05" gradientUnits="userSpaceOnUse">
<stop stop-color="#1CE61C"/>
<stop offset="1" stop-color="#2F4553" stop-opacity="0"/>
</linearGradient>
<linearGradient id="paint12_linear_26835_29191" x1="12.95" y1="7.47412e-05" x2="12.95" y2="7.47412e-05" gradientUnits="userSpaceOnUse">
<stop stop-color="#1CE61C"/>
<stop offset="1" stop-color="#2F4553" stop-opacity="0"/>
</linearGradient>
<linearGradient id="paint13_linear_26835_29191" x1="18.25" y1="7.47412e-05" x2="18.25" y2="7.47412e-05" gradientUnits="userSpaceOnUse">
<stop stop-color="#1CE61C"/>
<stop offset="1" stop-color="#2F4553" stop-opacity="0"/>
</linearGradient>
<linearGradient id="paint14_linear_26835_29191" x1="23.55" y1="18.3501" x2="23.55" y2="53.2401" gradientUnits="userSpaceOnUse">
<stop stop-color="#1CE61C"/>
<stop offset="1" stop-color="#2F4553" stop-opacity="0"/>
</linearGradient>
<linearGradient id="paint15_linear_26835_29191" x1="28.85" y1="18.3501" x2="28.85" y2="53.2401" gradientUnits="userSpaceOnUse">
<stop stop-color="#1CE61C"/>
<stop offset="1" stop-color="#2F4553" stop-opacity="0"/>
</linearGradient>
<linearGradient id="paint16_linear_26835_29191" x1="34.15" y1="18.3501" x2="34.15" y2="53.2401" gradientUnits="userSpaceOnUse">
<stop stop-color="#1CE61C"/>
<stop offset="1" stop-color="#2F4553" stop-opacity="0"/>
</linearGradient>
<linearGradient id="paint17_linear_26835_29191" x1="39.45" y1="18.3501" x2="39.45" y2="53.2401" gradientUnits="userSpaceOnUse">
<stop stop-color="#1CE61C"/>
<stop offset="1" stop-color="#2F4553" stop-opacity="0"/>
</linearGradient>
<linearGradient id="paint18_linear_26835_29191" x1="44.75" y1="18.3501" x2="44.75" y2="53.2401" gradientUnits="userSpaceOnUse">
<stop stop-color="#1CE61C"/>
<stop offset="1" stop-color="#2F4553" stop-opacity="0"/>
</linearGradient>
<linearGradient id="paint19_linear_26835_29191" x1="50.05" y1="18.3501" x2="50.05" y2="53.2401" gradientUnits="userSpaceOnUse">
<stop stop-color="#1CE61C"/>
<stop offset="1" stop-color="#2F4553" stop-opacity="0"/>
</linearGradient>
<linearGradient id="paint20_linear_26835_29191" x1="55.35" y1="18.3501" x2="55.35" y2="53.2401" gradientUnits="userSpaceOnUse">
<stop stop-color="#1CE61C"/>
<stop offset="1" stop-color="#2F4553" stop-opacity="0"/>
</linearGradient>
<linearGradient id="paint21_linear_26835_29191" x1="7.65" y1="0.000137862" x2="7.65" y2="0.000137862" gradientUnits="userSpaceOnUse">
<stop stop-color="#1CE61C"/>
<stop offset="1" stop-color="#2F4553" stop-opacity="0"/>
</linearGradient>
<linearGradient id="paint22_linear_26835_29191" x1="12.95" y1="0.000137862" x2="12.95" y2="0.000137862" gradientUnits="userSpaceOnUse">
<stop stop-color="#1CE61C"/>
<stop offset="1" stop-color="#2F4553" stop-opacity="0"/>
</linearGradient>
<linearGradient id="paint23_linear_26835_29191" x1="18.25" y1="0.000137862" x2="18.25" y2="0.000137862" gradientUnits="userSpaceOnUse">
<stop stop-color="#1CE61C"/>
<stop offset="1" stop-color="#2F4553" stop-opacity="0"/>
</linearGradient>
<linearGradient id="paint24_linear_26835_29191" x1="23.55" y1="18.3501" x2="23.55" y2="53.2401" gradientUnits="userSpaceOnUse">
<stop stop-color="#1CE61C"/>
<stop offset="1" stop-color="#2F4553" stop-opacity="0"/>
</linearGradient>
<linearGradient id="paint25_linear_26835_29191" x1="28.85" y1="18.3501" x2="28.85" y2="53.2401" gradientUnits="userSpaceOnUse">
<stop stop-color="#1CE61C"/>
<stop offset="1" stop-color="#2F4553" stop-opacity="0"/>
</linearGradient>
<linearGradient id="paint26_linear_26835_29191" x1="34.15" y1="18.3501" x2="34.15" y2="53.2401" gradientUnits="userSpaceOnUse">
<stop stop-color="#1CE61C"/>
<stop offset="1" stop-color="#2F4553" stop-opacity="0"/>
</linearGradient>
<linearGradient id="paint27_linear_26835_29191" x1="39.45" y1="18.3501" x2="39.45" y2="53.2401" gradientUnits="userSpaceOnUse">
<stop stop-color="#1CE61C"/>
<stop offset="1" stop-color="#2F4553" stop-opacity="0"/>
</linearGradient>
<linearGradient id="paint28_linear_26835_29191" x1="44.75" y1="18.3501" x2="44.75" y2="53.2401" gradientUnits="userSpaceOnUse">
<stop stop-color="#1CE61C"/>
<stop offset="1" stop-color="#2F4553" stop-opacity="0"/>
</linearGradient>
<linearGradient id="paint29_linear_26835_29191" x1="50.05" y1="18.3501" x2="50.05" y2="53.2401" gradientUnits="userSpaceOnUse">
<stop stop-color="#1CE61C"/>
<stop offset="1" stop-color="#2F4553" stop-opacity="0"/>
</linearGradient>
<linearGradient id="paint30_linear_26835_29191" x1="55.35" y1="18.3501" x2="55.35" y2="53.2401" gradientUnits="userSpaceOnUse">
<stop stop-color="#1CE61C"/>
<stop offset="1" stop-color="#2F4553" stop-opacity="0"/>
</linearGradient>
<linearGradient id="paint31_linear_26835_29191" x1="7.65" y1="18.3499" x2="7.65" y2="53.2399" gradientUnits="userSpaceOnUse">
<stop stop-color="#1CE61C"/>
<stop offset="1" stop-color="#2F4553" stop-opacity="0"/>
</linearGradient>
<linearGradient id="paint32_linear_26835_29191" x1="12.95" y1="18.3499" x2="12.95" y2="53.2399" gradientUnits="userSpaceOnUse">
<stop stop-color="#1CE61C"/>
<stop offset="1" stop-color="#2F4553" stop-opacity="0"/>
</linearGradient>
<linearGradient id="paint33_linear_26835_29191" x1="18.25" y1="18.3499" x2="18.25" y2="53.2399" gradientUnits="userSpaceOnUse">
<stop stop-color="#1CE61C"/>
<stop offset="1" stop-color="#2F4553" stop-opacity="0"/>
</linearGradient>
<linearGradient id="paint34_linear_26835_29191" x1="23.55" y1="18.3499" x2="23.55" y2="53.2399" gradientUnits="userSpaceOnUse">
<stop stop-color="#1CE61C"/>
<stop offset="1" stop-color="#2F4553" stop-opacity="0"/>
</linearGradient>
<linearGradient id="paint35_linear_26835_29191" x1="28.85" y1="18.3499" x2="28.85" y2="53.2399" gradientUnits="userSpaceOnUse">
<stop stop-color="#1CE61C"/>
<stop offset="1" stop-color="#2F4553" stop-opacity="0"/>
</linearGradient>
<linearGradient id="paint36_linear_26835_29191" x1="34.15" y1="18.3499" x2="34.15" y2="53.2399" gradientUnits="userSpaceOnUse">
<stop stop-color="#1CE61C"/>
<stop offset="1" stop-color="#2F4553" stop-opacity="0"/>
</linearGradient>
<linearGradient id="paint37_linear_26835_29191" x1="39.45" y1="18.3499" x2="39.45" y2="53.2399" gradientUnits="userSpaceOnUse">
<stop stop-color="#1CE61C"/>
<stop offset="1" stop-color="#2F4553" stop-opacity="0"/>
</linearGradient>
<linearGradient id="paint38_linear_26835_29191" x1="44.75" y1="18.3499" x2="44.75" y2="53.2399" gradientUnits="userSpaceOnUse">
<stop stop-color="#1CE61C"/>
<stop offset="1" stop-color="#2F4553" stop-opacity="0"/>
</linearGradient>
<linearGradient id="paint39_linear_26835_29191" x1="50.05" y1="18.3499" x2="50.05" y2="53.2399" gradientUnits="userSpaceOnUse">
<stop stop-color="#1CE61C"/>
<stop offset="1" stop-color="#2F4553" stop-opacity="0"/>
</linearGradient>
<linearGradient id="paint40_linear_26835_29191" x1="55.35" y1="18.3499" x2="55.35" y2="53.2399" gradientUnits="userSpaceOnUse">
<stop stop-color="#1CE61C"/>
<stop offset="1" stop-color="#2F4553" stop-opacity="0"/>
</linearGradient>
<linearGradient id="paint41_linear_26835_29191" x1="7.65" y1="18.35" x2="7.65" y2="53.24" gradientUnits="userSpaceOnUse">
<stop stop-color="#1CE61C"/>
<stop offset="1" stop-color="#2F4553" stop-opacity="0"/>
</linearGradient>
<linearGradient id="paint42_linear_26835_29191" x1="12.95" y1="18.35" x2="12.95" y2="53.24" gradientUnits="userSpaceOnUse">
<stop stop-color="#1CE61C"/>
<stop offset="1" stop-color="#2F4553" stop-opacity="0"/>
</linearGradient>
<linearGradient id="paint43_linear_26835_29191" x1="18.25" y1="18.35" x2="18.25" y2="53.24" gradientUnits="userSpaceOnUse">
<stop stop-color="#1CE61C"/>
<stop offset="1" stop-color="#2F4553" stop-opacity="0"/>
</linearGradient>
<linearGradient id="paint44_linear_26835_29191" x1="23.55" y1="-5.34063e-06" x2="23.55" y2="53.24" gradientUnits="userSpaceOnUse">
<stop stop-color="#1CE61C"/>
<stop offset="1" stop-color="#2F4553" stop-opacity="0"/>
</linearGradient>
<linearGradient id="paint45_linear_26835_29191" x1="28.8499" y1="-5.34063e-06" x2="28.8499" y2="53.24" gradientUnits="userSpaceOnUse">
<stop stop-color="#1CE61C"/>
<stop offset="1" stop-color="#2F4553" stop-opacity="0"/>
</linearGradient>
<linearGradient id="paint46_linear_26835_29191" x1="34.15" y1="-5.34063e-06" x2="34.15" y2="53.24" gradientUnits="userSpaceOnUse">
<stop stop-color="#1CE61C"/>
<stop offset="1" stop-color="#2F4553" stop-opacity="0"/>
</linearGradient>
<linearGradient id="paint47_linear_26835_29191" x1="39.45" y1="18.35" x2="39.45" y2="53.24" gradientUnits="userSpaceOnUse">
<stop stop-color="#1CE61C"/>
<stop offset="1" stop-color="#2F4553" stop-opacity="0"/>
</linearGradient>
<linearGradient id="paint48_linear_26835_29191" x1="44.75" y1="18.35" x2="44.75" y2="53.24" gradientUnits="userSpaceOnUse">
<stop stop-color="#1CE61C"/>
<stop offset="1" stop-color="#2F4553" stop-opacity="0"/>
</linearGradient>
<linearGradient id="paint49_linear_26835_29191" x1="50.05" y1="18.35" x2="50.05" y2="53.24" gradientUnits="userSpaceOnUse">
<stop stop-color="#1CE61C"/>
<stop offset="1" stop-color="#2F4553" stop-opacity="0"/>
</linearGradient>
<linearGradient id="paint50_linear_26835_29191" x1="55.35" y1="18.35" x2="55.35" y2="53.24" gradientUnits="userSpaceOnUse">
<stop stop-color="#1CE61C"/>
<stop offset="1" stop-color="#2F4553" stop-opacity="0"/>
</linearGradient>
</defs>
</svg>
