<svg width="63" height="88" viewBox="0 0 63 88" fill="none" xmlns="http://www.w3.org/2000/svg">
<rect width="63" height="88" rx="4" fill="#1CE61C"/>
<path d="M36.7008 13.5133L44.7992 3.48665C45.5586 2.54645 46.7024 2 47.911 2H58C59.6569 2 61 3.34314 61 5V83C61 84.6569 59.6569 86 58 86H5C3.34315 86 2 84.6569 2 83V18C2 16.3431 3.34315 15 5 15H33.589C34.7976 15 35.9414 14.4536 36.7008 13.5133Z" fill="#213743"/>
<mask id="mask0_26835_29192" style="mask-type:luminance" maskUnits="userSpaceOnUse" x="0" y="0" width="63" height="88">
<path d="M59 0H4C1.79 0 0 1.79 0 4V84C0 86.21 1.79 88 4 88H59C61.21 88 63 86.21 63 84V4C63 1.79 61.21 0 59 0ZM61 82.81C61 84.57 59.57 86 57.81 86H5.19C3.43 86 2 84.57 2 82.81V18.19C2 16.43 3.43 15 5.19 15H33.59C34.8 15 35.94 14.45 36.7 13.51L44.8 3.48C45.56 2.54 46.7 1.99 47.91 1.99H57.81C59.57 1.99 61 3.42 61 5.18V82.8V82.81Z" fill="white"/>
</mask>
<g mask="url(#mask0_26835_29192)">
<path d="M68.37 47.3199V26.6399L4.45996 90.5499H25.13L68.37 47.3199Z" fill="white"/>
<path d="M64.66 -2.29004H55.22L-2.92004 55.84V66.18L65.46 -2.20004C65.2 -2.26004 64.93 -2.29004 64.66 -2.29004Z" fill="white"/>
<path d="M68.37 69.23V61.55L39.37 90.55H47.05L68.37 69.23Z" fill="white"/>
</g>
<rect x="5" y="18" width="53" height="40" rx="1" fill="#2F4553"/>
<path d="M58 19V57C58 57.55 57.55 58 57 58H6C5.44 58 5 57.55 5 57V19C5 18.45 5.44 18 6 18H57C57.55 18 58 18.45 58 19Z" fill="url(#paint0_linear_26835_29192)"/>
<path d="M58 37.4099V56.9999C58 57.5499 57.55 57.9999 57 57.9999H6C5.44 57.9999 5 57.5499 5 56.9999V37.4099H58Z" fill="url(#paint1_linear_26835_29192)"/>
<path d="M13.04 33.85C12.98 34.93 11.67 35.77 10.14 34.7C10.13 34.7 10.12 34.69 10.12 34.69L8.52 32.68C8.2 32.27 7.64 32.19 7.22 32.45C7.14 32.5 7.07 32.55 7.01 32.62C6.5 33.16 5.79 33.87 5 34.49V19C5 18.45 5.44 18 6 18H13.04C13.44 22.22 13.22 30.21 13.04 33.85Z" fill="#FF7F00"/>
<path d="M11.58 33.87C11.53 34.6 10.76 35 10.14 34.7C10.13 34.7 10.12 34.69 10.12 34.69C10.06 34.66 10.01 34.63 9.96 34.59L7.22 32.45L7.07 32.33C6.66 32.01 6.07 32.06 5.72 32.44C5.52 32.66 5.27 32.92 5 33.2V19C5 18.45 5.44 18 6 18H11.59C12 22.22 11.85 30.14 11.58 33.87Z" fill="#E9113C"/>
<path d="M58 19V34.45C57.23 33.84 56.54 33.15 56.04 32.62C55.98 32.55 55.91 32.5 55.83 32.45C55.41 32.19 54.85 32.27 54.53 32.68L52.93 34.67H52.92V34.69C52.92 34.69 52.89 34.71 52.88 34.71C51.37 35.76 50.06 34.92 50.01 33.85C49.83 30.21 49.61 22.22 50.01 18H57C57.55 18 58 18.45 58 19Z" fill="#FF7F00"/>
<path d="M58 19V33.15C57.75 32.89 57.52 32.65 57.33 32.44C56.98 32.06 56.39 32.01 55.98 32.33L55.83 32.45L53.09 34.59C53.03 34.63 52.98 34.66 52.92 34.68C52.92 34.68 52.89 34.71 52.88 34.71C52.27 34.99 51.51 34.59 51.47 33.87C51.2 30.14 51.05 22.22 51.46 18H57C57.55 18 58 18.45 58 19Z" fill="#E9113C"/>
<path d="M58 54.5499V56.9999C58 57.5499 57.55 57.9999 57 57.9999H6C5.44 57.9999 5 57.5499 5 56.9999V54.5399L18.8 43.7299L31.5 43.6499L44.19 43.7299L58 54.5499Z" fill="#E9113C"/>
<path d="M55.5 57.9999H7.48999L19.42 46.4199H43.57L55.5 57.9999Z" fill="#FF7F00"/>
<path d="M49.36 57.9999H13.64L22.52 46.4199H40.47L49.36 57.9999Z" fill="#E9113C"/>
<path d="M40.1701 36.7799H23.0601V23.3399C25.4001 23.3399 27.3001 21.4399 27.3001 19.0999H35.9301C35.9301 21.4399 37.8301 23.3399 40.1701 23.3399V36.7799Z" fill="#E9113C"/>
<path d="M31.49 17.3999C31.8987 17.3999 32.23 17.0686 32.23 16.6599C32.23 16.2512 31.8987 15.9199 31.49 15.9199C31.0813 15.9199 30.75 16.2512 30.75 16.6599C30.75 17.0686 31.0813 17.3999 31.49 17.3999Z" fill="#FF5500"/>
<path d="M33.4406 13.3798L32.1466 12.0858C31.7834 11.7226 31.1946 11.7226 30.8314 12.0858L29.5374 13.3798C29.1742 13.743 29.1742 14.3319 29.5374 14.6951L30.8314 15.9891C31.1946 16.3523 31.7834 16.3523 32.1466 15.9891L33.4406 14.6951C33.8038 14.3319 33.8038 13.743 33.4406 13.3798Z" fill="#FFC201"/>
<path d="M35.61 17.21H27.37C26.8288 17.21 26.39 17.6487 26.39 18.19V18.24C26.39 18.7812 26.8288 19.22 27.37 19.22H35.61C36.1513 19.22 36.59 18.7812 36.59 18.24V18.19C36.59 17.6487 36.1513 17.21 35.61 17.21Z" fill="#FFC201"/>
<path d="M23.73 51.14H18.14V26.79L23.73 24.22V51.14Z" fill="#FF7F00"/>
<path d="M20.9401 22.75C21.3488 22.75 21.6801 22.4187 21.6801 22.01C21.6801 21.6013 21.3488 21.27 20.9401 21.27C20.5314 21.27 20.2001 21.6013 20.2001 22.01C20.2001 22.4187 20.5314 22.75 20.9401 22.75Z" fill="#FF5500"/>
<path d="M18.14 26.79C18.14 26.79 22.14 26.75 23.73 24.86V24.22L18.14 24.53V26.79Z" fill="#FF5500"/>
<path d="M23.87 22.53H18.01C17.5406 22.53 17.16 22.9106 17.16 23.38V23.69C17.16 24.1595 17.5406 24.54 18.01 24.54H23.87C24.3395 24.54 24.72 24.1595 24.72 23.69V23.38C24.72 22.9106 24.3395 22.53 23.87 22.53Z" fill="#FFC201"/>
<path d="M22.8877 18.7229L21.5936 17.4288C21.2305 17.0657 20.6416 17.0657 20.2784 17.4288L18.9844 18.7229C18.6212 19.086 18.6212 19.6749 18.9844 20.0381L20.2784 21.3321C20.6416 21.6953 21.2305 21.6953 21.5936 21.3321L22.8877 20.0381C23.2508 19.6749 23.2508 19.086 22.8877 18.7229Z" fill="#FFC201"/>
<path d="M44.93 51.14H39.35V24.22L44.93 26.79V51.14Z" fill="#FF7F00"/>
<path d="M44.9301 26.79C44.9301 26.79 40.9301 26.75 39.3401 24.86V24.22L44.9301 24.53V26.79Z" fill="#FF5500"/>
<path d="M42.14 22.75C42.5487 22.75 42.88 22.4187 42.88 22.01C42.88 21.6013 42.5487 21.27 42.14 21.27C41.7313 21.27 41.4 21.6013 41.4 22.01C41.4 22.4187 41.7313 22.75 42.14 22.75Z" fill="#FF5500"/>
<path d="M45.07 22.53H39.21C38.7405 22.53 38.36 22.9106 38.36 23.38V23.69C38.36 24.1595 38.7405 24.54 39.21 24.54H45.07C45.5394 24.54 45.92 24.1595 45.92 23.69V23.38C45.92 22.9106 45.5394 22.53 45.07 22.53Z" fill="#FFC201"/>
<path d="M44.0954 18.7307L42.8014 17.4367C42.4382 17.0735 41.8494 17.0735 41.4862 17.4367L40.1922 18.7307C39.829 19.0939 39.829 19.6827 40.1922 20.0459L41.4862 21.3399C41.8494 21.7031 42.4382 21.7031 42.8014 21.3399L44.0954 20.0459C44.4586 19.6827 44.4586 19.0939 44.0954 18.7307Z" fill="#FFC201"/>
<path d="M44.2001 37.49H19.1901V45.24H44.2001V37.49Z" fill="#E9113C"/>
<path d="M44.8801 48.9299H18.1101V52.4099H44.8801V48.9299Z" fill="#071D2A"/>
<path d="M42.5201 44H20.4801C19.9278 44 19.4801 44.4477 19.4801 45V48.51C19.4801 49.0623 19.9278 49.51 20.4801 49.51H42.5201C43.0724 49.51 43.5201 49.0623 43.5201 48.51V45C43.5201 44.4477 43.0724 44 42.5201 44Z" fill="#FF7F00"/>
<path d="M42.6401 44H20.3601C19.8741 44 19.4801 44.394 19.4801 44.88V47.4C19.4801 47.886 19.8741 48.28 20.3601 48.28H42.6401C43.1261 48.28 43.5201 47.886 43.5201 47.4V44.88C43.5201 44.394 43.1261 44 42.6401 44Z" fill="#FFC201"/>
<path d="M22.97 46.29C22.97 46.29 22.8701 48.38 24.2801 48.79C25.6901 49.2 29.13 49.14 29.6 48.79C30.07 48.44 30.2801 47.14 30.2801 47.14C30.2801 47.14 32.6001 47.55 34.0601 47.18C34.0601 47.18 34.51 48.59 35.16 48.79C35.81 48.99 39.79 48.89 40.5 48.54C41.21 48.19 40.64 44.01 40.64 44.01H24.23L22.97 46.29Z" fill="#1A2C38"/>
<path d="M34.3001 21.8198L33.4101 21.0198C33.2101 20.8398 32.9101 20.8198 32.6901 20.9698L29.8401 22.9398L33.0401 23.5298L34.3001 21.8198Z" fill="#FF7F00"/>
<path d="M32.39 23.74C32.45 23.72 32.5 23.69 32.53 23.63L33.39 22.37C33.45 22.28 33.45 22.17 33.41 22.08C33.36 21.99 33.26 21.93 33.16 21.93H32.1L32.73 20.91C32.81 20.78 32.77 20.61 32.64 20.53C32.51 20.45 32.34 20.49 32.26 20.62L31.37 22.09C31.32 22.18 31.32 22.29 31.37 22.37C31.42 22.46 31.51 22.51 31.62 22.51H32.64L32.08 23.31C31.99 23.44 32.03 23.61 32.15 23.7C32.22 23.75 32.31 23.76 32.39 23.73V23.74Z" fill="white"/>
<path d="M32.53 21.01C32.8172 21.01 33.05 20.7772 33.05 20.49C33.05 20.2028 32.8172 19.97 32.53 19.97C32.2428 19.97 32.01 20.2028 32.01 20.49C32.01 20.7772 32.2428 21.01 32.53 21.01Z" fill="white"/>
<path d="M26.54 22.8098L27.2 21.8098C27.35 21.5798 27.63 21.4898 27.89 21.5798L31.14 22.7798L28.19 24.1498L26.54 22.8098Z" fill="#FF7F00"/>
<path d="M34.58 20.7699L34.43 23.3799L34.41 23.8099L34.37 24.4699L34.33 25.0799L27.34 25.9699L27.15 25.3599L26.95 24.7499L26.82 24.3399L26.02 21.8499C25.97 21.6999 26.12 21.5499 26.28 21.6099L28.26 22.3799L29.71 20.1699C29.91 19.8699 30.32 19.8199 30.59 20.0599L32.55 21.8399L34.27 20.5999C34.4 20.4999 34.59 20.5999 34.58 20.7699Z" fill="#FFC201"/>
<path d="M30.97 26.5673C32.8986 26.3226 34.4029 25.6579 34.3299 25.0827C34.2569 24.5074 32.6343 24.2393 30.7058 24.484C28.7772 24.7287 27.2729 25.3934 27.3459 25.9687C27.4189 26.5439 29.0415 26.812 30.97 26.5673Z" fill="#FF7F00"/>
<path d="M34.37 24.4699L34.33 25.0799L27.34 25.9699L27.15 25.3599C27.34 24.7199 28.79 24.0599 30.62 23.8299C32.45 23.5999 34.05 23.8799 34.37 24.4599V24.4699Z" fill="#FF7F00"/>
<path d="M30.9586 26.4867C32.7338 26.2615 34.1255 25.7058 34.0672 25.2456C34.0088 24.7853 32.5224 24.5948 30.7472 24.82C28.972 25.0452 27.5803 25.6009 27.6387 26.0611C27.6971 26.5213 29.1835 26.7119 30.9586 26.4867Z" fill="#FF7F00"/>
<path d="M30.937 26.3156C32.4437 26.1245 33.6331 25.7163 33.5934 25.404C33.5538 25.0917 32.3003 24.9935 30.7936 25.1847C29.2869 25.3758 28.0975 25.7839 28.1372 26.0962C28.1768 26.4085 29.4303 26.5067 30.937 26.3156Z" fill="#1A2C38"/>
<path d="M31.3661 21.7065L30.5519 21.0756C30.4122 20.9674 30.2112 20.9929 30.103 21.1326L29.4721 21.9468C29.3638 22.0865 29.3893 22.2875 29.529 22.3957L30.3432 23.0266C30.4829 23.1348 30.6839 23.1093 30.7922 22.9696L31.423 22.1555C31.5313 22.0158 31.5058 21.8148 31.3661 21.7065Z" fill="#E9113C"/>
<path d="M30.4001 21.7498L30.4201 21.8998C30.4301 22.0098 30.5301 22.0798 30.6401 22.0698L30.7901 22.0498C31.0001 22.0198 31.0701 21.7598 30.9001 21.6298L30.7701 21.5298C30.6101 21.3998 30.3701 21.5298 30.3901 21.7398L30.4001 21.7498Z" fill="white"/>
<path d="M38.21 31.7598C38.21 31.7598 44.32 32.1698 47.43 35.6298C48.4 36.7098 47.52 37.7398 47.24 38.1698C46.44 39.4398 45.93 38.7598 45.93 38.7598C45.93 38.7598 45.56 39.5098 44.96 38.8398C44.66 38.4998 42.73 36.7598 40.19 38.1298C37.65 39.4998 38.21 31.7598 38.21 31.7598Z" fill="white"/>
<path d="M39.9 34.6399L39.92 38.2399C40 38.2099 40.09 38.1799 40.18 38.1299C42.52 36.8799 44.33 38.2399 44.85 38.7299C45.2 38.3499 44.49 38.5499 44.19 37.7899C42.92 34.5099 39.9 34.6399 39.9 34.6399Z" fill="#E0E9EF"/>
<path d="M34.4301 25.6998C34.4301 25.6998 36.8301 21.8498 37.8801 22.2998C38.3901 23.3198 39.3701 26.0798 37.3901 29.6298C35.9001 28.1298 34.4301 25.6998 34.4301 25.6998Z" fill="white"/>
<path d="M37.8801 22.3098C37.9501 22.3398 38.0201 22.3898 38.0701 22.4698C38.9701 23.6198 39.4901 30.7698 39.4901 30.7698C38.9101 30.9298 38.1501 30.3998 37.3901 29.6398C38.7101 25.0698 38.0801 22.8498 37.8801 22.3098Z" fill="#E0E9EF"/>
<path d="M24.9301 33.8399C24.9301 33.8399 18.0201 33.8199 15.9901 35.7899C14.3401 37.3899 15.4501 37.8699 16.7501 38.0499C16.7501 38.0499 18.2701 40.9399 19.0501 39.8799C19.0501 39.8799 21.0901 38.1999 24.4501 39.2299L24.9301 33.8399Z" fill="white"/>
<path d="M16.8901 35.1898C16.8901 35.1898 17.9001 34.5998 20.3101 35.9598C21.8901 36.8498 23.8001 36.8498 23.8001 36.8498L23.8601 32.2798C23.8601 32.2798 16.1401 34.1198 16.8901 35.1998V35.1898Z" fill="#E9113C"/>
<path d="M24.6401 37.0798C20.7401 37.1498 19.4801 39.0398 19.4801 39.0398L19.1901 39.7698C19.6701 39.4498 21.3401 38.4998 23.8601 39.0698L24.0701 39.0198L24.5201 38.4098L24.6401 37.0798Z" fill="#E0E9EF"/>
<path d="M39.0901 30.7898L40.4101 36.3598C43.2901 36.7998 45.6001 34.9098 45.8801 34.2798C46.3601 33.1898 39.0901 30.7898 39.0901 30.7898Z" fill="#E9113C"/>
<path d="M39.8882 31.852C39.3183 27.3092 35.1736 24.0885 30.6308 24.6584C26.088 25.2282 22.8672 29.3729 23.4371 33.9157L24.0781 39.0257C24.648 43.5685 28.7926 46.7892 33.3355 46.2194C37.8783 45.6495 41.0991 41.5048 40.5292 36.962L39.8882 31.852Z" fill="white"/>
<path d="M24.0701 39.0298C24.0701 39.0298 22.2401 41.5698 22.3501 43.8798C22.5001 47.1398 23.7001 47.3198 24.5901 47.7398C25.4801 48.1598 29.6401 47.9598 29.7701 47.1898C29.9001 46.4198 29.8801 45.9598 30.7501 45.5398C31.6201 45.1198 24.0701 39.0298 24.0701 39.0298Z" fill="white"/>
<path d="M34.31 44.1999C32.71 44.5799 31.76 44.4099 30.29 44.5899C28.83 44.7699 29.36 47.5199 29.37 47.5399C29.6 47.4399 29.74 47.3299 29.76 47.1899C29.86 46.6299 29.93 46.3099 30.24 46.0299C31.22 46.2799 32.26 46.3599 33.32 46.2199C34.07 46.1299 34.78 45.9299 35.45 45.6599C35.31 44.7399 34.99 44.0399 34.3 44.1999H34.31Z" fill="#E0E9EF"/>
<path d="M40.5301 36.97C41.1901 39.25 41.2401 46.68 40.6001 47.29C39.9601 47.9 35.9201 48.28 35.1701 47.62C34.4201 46.96 33.7201 44.21 33.7201 44.21L40.5401 36.97H40.5301Z" fill="white"/>
<path d="M23.7901 31.7199C23.7901 31.7199 22.8801 25.4999 23.5201 24.5399C24.1601 23.5799 26.8201 26.6599 26.8201 26.6599C26.8201 26.6599 25.8601 31.0899 23.7801 31.7299L23.7901 31.7199Z" fill="white"/>
<path d="M32.2001 34.8898C32.2001 34.8898 30.7101 35.2298 30.1401 34.8598C29.5701 34.4898 29.3501 36.0498 31.9301 35.9398C33.8601 35.8598 34.1401 34.7298 33.8301 34.4198C33.5201 34.1098 33.1501 34.6798 32.2101 34.8798L32.2001 34.8898Z" fill="#2F2D2A"/>
<path d="M29.9402 34.4098L30.0202 34.9598C30.0502 35.1298 30.1902 35.2598 30.3602 35.2698C30.3902 35.2698 30.4102 35.2698 30.4402 35.2698C30.4402 35.1498 30.5202 35.0498 30.6402 35.0298C30.7702 35.0098 30.8902 35.0998 30.9102 35.2298C30.9102 35.2498 30.9102 35.2698 30.9102 35.2898C31.8102 35.2898 32.6702 35.1298 33.4702 34.7898C33.6302 34.7198 33.7202 34.5598 33.6902 34.3898L33.6002 33.8398C32.4102 34.3898 31.1902 34.5898 29.9202 34.4098H29.9402Z" fill="white"/>
<path d="M31.71 27.0099C32.25 27.0199 32.76 27.1599 33.2 27.3799C32.73 26.7399 31.94 26.3099 31.04 26.2899C29.56 26.2499 28.33 27.3199 28.29 28.6899C28.29 28.9299 28.32 29.1599 28.38 29.3799C28.72 27.9899 30.09 26.9699 31.7 27.0199L31.71 27.0099Z" fill="#E0E9EF"/>
<path d="M31.3 33.5698C32.9624 33.5698 34.31 32.2222 34.31 30.5598C34.31 28.8974 32.9624 27.5498 31.3 27.5498C29.6377 27.5498 28.29 28.8974 28.29 30.5598C28.29 32.2222 29.6377 33.5698 31.3 33.5698Z" fill="#DCDEE4"/>
<path d="M31.49 33.1699C33.1524 33.1699 34.5 31.8223 34.5 30.1599C34.5 28.4975 33.1524 27.1499 31.49 27.1499C29.8276 27.1499 28.48 28.4975 28.48 30.1599C28.48 31.8223 29.8276 33.1699 31.49 33.1699Z" fill="#4F4C47"/>
<path d="M31.61 32.6299C33.1177 32.6299 34.34 31.4077 34.34 29.8999C34.34 28.3922 33.1177 27.1699 31.61 27.1699C30.1023 27.1699 28.88 28.3922 28.88 29.8999C28.88 31.4077 30.1023 32.6299 31.61 32.6299Z" fill="#2F2D2A"/>
<path d="M31.35 30.3099C31.8692 30.3099 32.29 29.8891 32.29 29.3699C32.29 28.8508 31.8692 28.4299 31.35 28.4299C30.8309 28.4299 30.41 28.8508 30.41 29.3699C30.41 29.8891 30.8309 30.3099 31.35 30.3099Z" fill="white"/>
<path d="M32.71 30.64C32.8923 30.64 33.04 30.4922 33.04 30.31C33.04 30.1277 32.8923 29.98 32.71 29.98C32.5277 29.98 32.38 30.1277 32.38 30.31C32.38 30.4922 32.5277 30.64 32.71 30.64Z" fill="white"/>
<path d="M19.4801 41.46L15.6101 42.7V51.51C15.6101 52.25 16.2101 52.86 16.9601 52.86H18.1301C18.8701 52.86 19.4801 52.26 19.4801 51.51V41.46Z" fill="#FFC201"/>
<path d="M19.4801 40.6499V41.4499C18.6001 42.4599 15.6101 42.6899 15.6101 42.6899V40.6399H19.4801V40.6499Z" fill="#1A2C38"/>
<path d="M18.9601 36.3699H16.1401C14.8588 36.3699 13.8201 37.4063 13.8201 38.6849C13.8201 39.9634 14.8588 40.9999 16.1401 40.9999H18.9601C20.2414 40.9999 21.2801 39.9634 21.2801 38.6849C21.2801 37.4063 20.2414 36.3699 18.9601 36.3699Z" fill="#FFC201"/>
<path d="M16.2001 36.24C16.2001 36.24 16.2601 36.83 16.7801 36.98C17.6201 37.22 18.7301 36.37 18.7301 36.37C18.7301 36.37 17.0901 35.94 16.2001 36.25V36.24Z" fill="white"/>
<path d="M23.8 36.8399C23.8 36.8399 25.12 36.9099 25.42 35.7699C25.91 33.9099 23.37 32.3999 23.37 32.3999C23.37 32.3999 22.75 34.5099 23.8 36.8399Z" fill="#E9113C"/>
<path d="M39.74 31.03C39.74 31.03 37.81 33.65 38.79 35.44C39.2 36.19 40.45 36.37 40.45 36.37C40.45 36.37 41.19 33.18 39.74 31.03Z" fill="#E9113C"/>
<path d="M47.39 42.7L43.52 41.46V51.51C43.52 52.25 44.12 52.86 44.87 52.86H46.04C46.78 52.86 47.39 52.26 47.39 51.51V42.7Z" fill="#FFC201"/>
<path d="M43.52 40.6499V41.4499C44.4 42.4599 47.39 42.6899 47.39 42.6899V40.6399H43.52V40.6499Z" fill="#1A2C38"/>
<path d="M49.1901 38.6799C49.1901 39.3199 48.9301 39.8999 48.5101 40.3199C48.0901 40.7399 47.5101 40.9999 46.8701 40.9999H44.0401C42.7601 40.9999 41.7301 39.9699 41.7301 38.6899C41.7301 38.2699 41.8501 37.8699 42.0401 37.5299C42.0401 37.5299 42.0401 37.5299 42.0401 37.5099C42.1401 37.3399 42.2601 37.1899 42.4001 37.0499C42.8201 36.6299 43.3901 36.3699 44.0401 36.3699H46.8701C47.7301 36.3699 48.4901 36.8399 48.8901 37.5599C48.8901 37.5599 48.8901 37.5799 48.9101 37.5899C48.9301 37.6199 48.9401 37.6399 48.9501 37.6699C49.1001 37.9799 49.1901 38.3099 49.1901 38.6799Z" fill="#FFC201"/>
<path d="M46.42 36.3699C46.42 36.3699 46.36 37.0399 45.9 37.0399C45.18 37.0399 44.67 36.3699 44.67 36.3699C44.67 36.3699 46.33 35.2799 46.42 36.3699Z" fill="white"/>
<path d="M49.1901 38.68C49.1901 39.32 48.9301 39.9 48.5101 40.32C48.0901 40.74 47.5101 41 46.8701 41H44.0401C42.7601 41 41.7301 39.97 41.7301 38.69C41.7301 38.27 41.8501 37.87 42.0401 37.53C41.7601 38.14 42.5601 39.12 45.5401 39.12C48.0701 39.12 49.1001 38.15 48.9501 37.68C49.1001 37.99 49.1901 38.32 49.1901 38.69V38.68Z" fill="#FF7F00"/>
<path d="M21.2701 38.68C21.2701 39.32 21.0101 39.9 20.5901 40.32C20.1701 40.74 19.5901 41 18.9501 41H16.1201C14.8401 41 13.8101 39.97 13.8101 38.69C13.8101 38.27 13.9301 37.87 14.1201 37.53C13.8401 38.14 14.6401 39.12 17.6201 39.12C20.1501 39.12 21.1801 38.15 21.0301 37.68C21.1801 37.99 21.2701 38.32 21.2701 38.69V38.68Z" fill="#FF7F00"/>
<path d="M31.49 13.8099V12.6999C31.49 12.4499 31.79 12.3299 31.96 12.5099L33.04 13.6199C33.21 13.7999 33.09 14.0899 32.84 14.0899H31.76C31.61 14.0899 31.48 13.9699 31.48 13.8099H31.49Z" fill="white"/>
<path d="M42.14 19.1099V17.9999C42.14 17.7499 42.44 17.6299 42.61 17.8099L43.69 18.9199C43.86 19.0999 43.74 19.3899 43.49 19.3899H42.41C42.26 19.3899 42.13 19.2699 42.13 19.1099H42.14Z" fill="white"/>
<path d="M20.9499 19.1099V17.9999C20.9499 17.7499 21.2499 17.6299 21.4199 17.8099L22.4999 18.9199C22.6699 19.0999 22.5499 19.3899 22.2999 19.3899H21.2199C21.0699 19.3899 20.9399 19.2699 20.9399 19.1099H20.9499Z" fill="white"/>
<path fill-rule="evenodd" clip-rule="evenodd" d="M6.49771 79C6.98969 79 7.48602 79.213 7.49037 79.6913C7.49037 80.1043 7.24656 80.2696 6.99839 80.2696C6.75023 80.2696 6.73281 80.1435 6.73281 80.1435C6.73281 80.1435 7.02452 79.9261 7.02452 79.7174C7.02452 79.6087 6.94179 79.313 6.489 79.3174C5.8577 79.3174 5.5181 79.6174 5.5181 80.1522C5.5181 80.7652 7.35105 80.9739 7.3554 81.7652C7.3554 82.613 6.47594 82.9957 5.69225 83C5.283 83 5.01306 82.7609 5.00871 82.3783C5.00871 81.9261 5.22204 81.4652 5.75756 81.4652C5.88382 81.4565 5.98831 81.5522 5.99702 81.6783C5.99702 81.6783 5.99702 81.6826 5.99702 81.687C5.99702 81.687 5.45715 81.8391 5.4615 82.3783C5.4615 82.4783 5.56599 82.6609 5.81851 82.6565C6.07103 82.6522 6.82424 82.4739 6.81989 81.8087C6.81989 81.1913 5.00435 81.1087 5 80.1478C5 79.0652 6.08845 79.0087 6.49771 79.0087V79ZM10.747 79.6C10.8123 79.5696 11.2129 79.4913 11.1955 79.813C11.1824 80.1348 10.9386 80.6913 10.9037 80.9348C11.2303 80.7696 11.6918 80.2087 11.6918 80.2087C11.6918 80.2087 12.0183 80.2522 11.9182 80.4522C11.818 80.6522 11.1519 81.1435 11.1519 81.1435C11.1519 81.1435 11.3043 82.5696 12.1707 82.5696C12.6453 82.5696 12.8499 82.3609 12.937 82.287C12.9587 82.2696 12.9762 82.2652 12.9849 82.2783C13.0197 82.387 12.9936 82.5043 12.9152 82.5913C12.8194 82.6957 12.5974 82.8217 12.1533 82.8261C11.3653 82.8261 10.9255 82.1957 10.8123 81.2609C10.7252 81.5348 10.7339 81.9826 10.7209 82.2C10.6948 82.2435 10.2507 82.4174 10.2158 82.1174C10.2158 82.0913 10.2158 82.0696 10.2158 82.0435C10.1331 82.1609 10.0199 82.2826 9.91108 82.2826C9.71951 82.2826 9.63679 82.1217 9.60196 82.0391C9.57584 82.0696 9.3625 82.287 9.08821 82.287C8.92277 82.2913 8.77474 82.1957 8.70943 82.0435C8.57011 82.1435 8.32195 82.2913 8.03895 82.2913C7.73418 82.2913 7.66017 82.1087 7.66017 81.9565C7.66017 81.713 7.84303 80.987 7.84303 80.987C7.84303 80.987 7.48602 81.1304 7.36411 81.1348C7.19431 81.1348 7.11159 80.8217 7.11159 80.813C7.11159 80.8087 7.11159 80.8 7.1203 80.8C7.22044 80.7609 7.94317 80.513 7.94317 80.513C7.94317 80.513 8.07813 79.9826 8.09555 79.913C8.11296 79.8435 8.2131 79.7 8.33065 79.6565C8.41773 79.6217 8.50916 79.6 8.60059 79.5913C8.63107 79.5913 8.65284 79.6 8.65284 79.6174C8.65284 79.6348 8.47433 80.4087 8.47433 80.4087C8.47433 80.4087 8.84876 80.3217 8.98808 80.3217C9.09692 80.3217 9.15352 80.387 9.09257 80.4696C9.03162 80.5522 8.96196 80.6478 8.92712 80.6913C8.88794 80.7348 8.86182 80.7435 8.77039 80.7609C8.64413 80.787 8.36113 80.8565 8.36113 80.8565C8.36113 80.8565 8.13473 81.6783 8.13909 81.8174C8.13909 81.8957 8.16521 81.987 8.26099 81.987C8.35678 81.987 8.53964 81.8739 8.67025 81.7913C8.69202 81.1522 9.18835 80.7261 9.57584 80.7261C9.7021 80.7261 9.65421 80.8478 9.79788 80.8478H9.88931C9.94591 80.8478 10.0069 80.8522 10.0069 80.9957C10.0069 81.1957 9.89367 81.5261 9.89367 81.7348C9.89367 81.8826 9.91544 81.987 9.97204 81.987C10.0678 81.987 10.1767 81.8478 10.255 81.7261C10.3813 81.0304 10.734 79.7609 10.734 79.6174L10.747 79.6ZM12.5016 80.7C12.7672 80.6783 12.9326 80.8217 12.9631 80.9C12.9936 80.9783 12.9892 81.1609 12.9152 81.2913C12.6845 81.7044 12.1097 81.6304 12.1097 81.6304C12.1097 81.6304 12.0444 81.9565 12.3405 81.9565C12.593 81.9565 12.7062 81.8304 12.8151 81.7261C12.8586 81.7261 12.9936 81.8652 12.9326 81.9609C12.8847 82.0348 12.6191 82.2565 12.2795 82.2609C11.7397 82.2609 11.6047 81.8 11.6744 81.4696C11.7658 81.0609 12.1751 80.7217 12.5016 80.6957V80.7ZM9.6455 80.987C9.32332 80.987 8.82699 81.9696 9.20577 81.9652C9.61938 81.9652 9.6455 81.1826 9.6455 81.0043V80.987ZM12.6409 80.8913C12.4232 80.9 12.1751 81.3174 12.1533 81.5C12.4798 81.513 12.654 81.1957 12.6757 81.0696C12.6888 80.9739 12.6932 80.887 12.6409 80.887V80.8913Z" fill="#557086"/>
<path d="M51.1444 79.3778L51.6412 80.278L52.6518 80.4733C52.7792 80.4988 52.8302 80.6559 52.741 80.7494L52.0361 81.5009L52.1635 82.5243C52.1805 82.6559 52.0446 82.7494 51.93 82.6942L51 82.2568L50.0701 82.6942C49.9512 82.7494 49.8196 82.6517 49.8366 82.5243L49.9639 81.5009L49.2591 80.7494C49.1699 80.6559 49.2208 80.4988 49.3482 80.4733L50.3588 80.278L50.8557 79.3778C50.9194 79.2632 51.085 79.2632 51.1444 79.3778Z" fill="#FFC200"/>
<path d="M51 79.2929C51.0552 79.2929 51.1147 79.3226 51.1444 79.3778L51.6412 80.278L52.6518 80.4733C52.7792 80.4988 52.8302 80.6559 52.741 80.7494L52.0361 81.5009L52.1635 82.5243C52.1763 82.6262 52.0955 82.7111 51.9979 82.7111C51.9766 82.7111 51.9512 82.7069 51.9257 82.6942L50.9957 82.2568L50.0658 82.6942C50.0403 82.7069 50.0191 82.7111 49.9936 82.7111C49.9002 82.7111 49.8153 82.6262 49.828 82.5243L49.9554 81.5009L49.2505 80.7494C49.1613 80.6559 49.2123 80.4988 49.3397 80.4733L50.3503 80.278L50.8471 79.3778C50.8768 79.3226 50.9363 79.2929 50.9915 79.2929M51 79.0806C50.8641 79.0806 50.7367 79.157 50.6688 79.2759L50.2187 80.0912L49.3057 80.2653C49.1698 80.2908 49.0594 80.3884 49.017 80.5201C48.9745 80.6517 49.0085 80.7961 49.1019 80.8937L49.7388 81.5731L49.6242 82.4946C49.6115 82.6007 49.6454 82.7111 49.7134 82.7918C49.7856 82.8725 49.8875 82.9192 49.9979 82.9192C50.0531 82.9192 50.1083 82.9065 50.1592 82.881L51 82.4861L51.8408 82.881C51.8917 82.9065 51.9469 82.9192 52.0021 82.9192C52.1125 82.9192 52.2144 82.8725 52.2866 82.7918C52.3588 82.7111 52.3928 82.6007 52.3758 82.4946L52.2611 81.5731L52.8981 80.8937C52.9915 80.7918 53.0255 80.6474 52.983 80.5201C52.9405 80.3884 52.8301 80.2908 52.6943 80.2653L51.7813 80.0912L51.3312 79.2759C51.2633 79.157 51.1359 79.0806 51 79.0806Z" fill="#213743"/>
<path d="M51 79.8152V80.9744C51 81.0678 51.0892 81.1315 51.1784 81.106L52.2187 80.7706C52.2739 80.7536 52.2697 80.6729 52.2102 80.6602L51.5563 80.5413C51.4969 80.5286 51.4417 80.4903 51.4119 80.4351L51.085 79.7939C51.0637 79.7515 50.9958 79.7642 50.9958 79.8152H51Z" fill="#FFEBB8"/>
<path d="M51 81.4924V82.0699C51 82.1039 51.017 82.1294 51.0467 82.1464L51.7983 82.5073C51.8365 82.5243 51.8705 82.4818 51.845 82.4479L51.0934 81.4627C51.0637 81.4245 51 81.4457 51 81.4924Z" fill="#FF7F00"/>
<path d="M56.1444 79.3778L56.6412 80.278L57.6518 80.4733C57.7792 80.4988 57.8302 80.6559 57.741 80.7494L57.0361 81.5009L57.1635 82.5243C57.1805 82.6559 57.0446 82.7494 56.93 82.6942L56 82.2568L55.0701 82.6942C54.9512 82.7494 54.8196 82.6517 54.8366 82.5243L54.9639 81.5009L54.2591 80.7494C54.1699 80.6559 54.2208 80.4988 54.3482 80.4733L55.3588 80.278L55.8557 79.3778C55.9194 79.2632 56.085 79.2632 56.1444 79.3778Z" fill="#FFC200"/>
<path d="M56 79.2929C56.0552 79.2929 56.1147 79.3226 56.1444 79.3778L56.6412 80.278L57.6518 80.4733C57.7792 80.4988 57.8302 80.6559 57.741 80.7494L57.0361 81.5009L57.1635 82.5243C57.1763 82.6262 57.0955 82.7111 56.9979 82.7111C56.9766 82.7111 56.9512 82.7069 56.9257 82.6942L55.9957 82.2568L55.0658 82.6942C55.0403 82.7069 55.0191 82.7111 54.9936 82.7111C54.9002 82.7111 54.8153 82.6262 54.828 82.5243L54.9554 81.5009L54.2505 80.7494C54.1613 80.6559 54.2123 80.4988 54.3397 80.4733L55.3503 80.278L55.8471 79.3778C55.8768 79.3226 55.9363 79.2929 55.9915 79.2929M56 79.0806C55.8641 79.0806 55.7367 79.157 55.6688 79.2759L55.2187 80.0912L54.3057 80.2653C54.1698 80.2908 54.0594 80.3884 54.017 80.5201C53.9745 80.6517 54.0085 80.7961 54.1019 80.8937L54.7388 81.5731L54.6242 82.4946C54.6115 82.6007 54.6454 82.7111 54.7134 82.7918C54.7856 82.8725 54.8875 82.9192 54.9979 82.9192C55.0531 82.9192 55.1083 82.9065 55.1592 82.881L56 82.4861L56.8408 82.881C56.8917 82.9065 56.9469 82.9192 57.0021 82.9192C57.1125 82.9192 57.2144 82.8725 57.2866 82.7918C57.3588 82.7111 57.3928 82.6007 57.3758 82.4946L57.2611 81.5731L57.8981 80.8937C57.9915 80.7918 58.0255 80.6474 57.983 80.5201C57.9405 80.3884 57.8301 80.2908 57.6943 80.2653L56.7813 80.0912L56.3312 79.2759C56.2633 79.157 56.1359 79.0806 56 79.0806Z" fill="#213743"/>
<path d="M56 79.8152V80.9744C56 81.0678 56.0892 81.1315 56.1784 81.106L57.2187 80.7706C57.2739 80.7536 57.2697 80.6729 57.2102 80.6602L56.5563 80.5413C56.4969 80.5286 56.4417 80.4903 56.4119 80.4351L56.085 79.7939C56.0637 79.7515 55.9958 79.7642 55.9958 79.8152H56Z" fill="#FFEBB8"/>
<path d="M56 81.4924V82.0699C56 82.1039 56.017 82.1294 56.0467 82.1464L56.7983 82.5073C56.8365 82.5243 56.8705 82.4818 56.845 82.4479L56.0934 81.4627C56.0637 81.4245 56 81.4457 56 81.4924Z" fill="#FF7F00"/>
<rect x="13" y="62" width="37" height="13" rx="6.5" fill="#2F4553"/>
<path d="M28.5935 70H27.5615V67.318L26.8895 67.996L26.3015 67.378L27.6995 65.998H28.5935V70ZM30.8091 70.072C30.1011 70.072 29.5671 69.856 29.1951 69.49L29.7591 68.77C30.0351 69.022 30.4131 69.16 30.7971 69.16C31.2351 69.16 31.4511 68.944 31.4511 68.698C31.4511 68.428 31.2411 68.236 30.8271 68.236C30.5091 68.236 30.2571 68.326 30.0351 68.536L29.3211 68.362V65.998H32.2251V66.898H30.3531V67.672C30.5451 67.486 30.8571 67.354 31.2111 67.354C31.8891 67.354 32.5011 67.852 32.5011 68.656C32.5011 69.52 31.8471 70.072 30.8091 70.072ZM35.7662 70H34.7522L34.1942 69.124L33.6302 70H32.6222L33.6122 68.512L32.6822 67.102H33.6962L34.1942 67.888L34.6862 67.102H35.7002L34.7762 68.512L35.7662 70Z" fill="white"/>
<path d="M8.03 11H7.215L6.56 9.815H6.04V11H5.33V7.665H6.89C7.585 7.665 8.01 8.12 8.01 8.74C8.01 9.33 7.64 9.645 7.28 9.73L8.03 11ZM6.785 9.19C7.07 9.19 7.285 9.02 7.285 8.74C7.285 8.46 7.07 8.29 6.785 8.29H6.04V9.19H6.785ZM10.5152 11H9.88023V10.75C9.71523 10.945 9.43023 11.06 9.11523 11.06C8.73023 11.06 8.27523 10.8 8.27523 10.26C8.27523 9.695 8.73023 9.48 9.11523 9.48C9.43523 9.48 9.72023 9.585 9.88023 9.775V9.45C9.88023 9.205 9.67023 9.045 9.35023 9.045C9.09023 9.045 8.85023 9.14 8.64523 9.33L8.40523 8.905C8.70023 8.645 9.08023 8.525 9.46023 8.525C10.0102 8.525 10.5152 8.745 10.5152 9.44V11ZM9.37023 10.63C9.57523 10.63 9.77523 10.56 9.88023 10.42V10.12C9.77523 9.98 9.57523 9.91 9.37023 9.91C9.12023 9.91 8.91523 10.04 8.91523 10.275C8.91523 10.5 9.12023 10.63 9.37023 10.63ZM11.7801 11H11.1451V8.585H11.7801V8.915C11.9501 8.7 12.2501 8.525 12.5501 8.525V9.145C12.5051 9.135 12.4451 9.13 12.3751 9.13C12.1651 9.13 11.8851 9.25 11.7801 9.405V11ZM14.0818 11.06C13.3468 11.06 12.7918 10.565 12.7918 9.79C12.7918 9.09 13.3068 8.525 14.0418 8.525C14.7618 8.525 15.2518 9.065 15.2518 9.855V9.995H13.4568C13.4968 10.3 13.7418 10.555 14.1518 10.555C14.3568 10.555 14.6418 10.465 14.7968 10.315L15.0768 10.725C14.8368 10.945 14.4568 11.06 14.0818 11.06ZM14.6368 9.565C14.6218 9.335 14.4618 9.03 14.0418 9.03C13.6468 9.03 13.4768 9.325 13.4468 9.565H14.6368Z" fill="#05080A"/>
<path d="M48.6546 11H48.2026L46.8106 9.096V11H46.3426V8.332H46.8226L48.1866 10.184V8.332H48.6546V11ZM50.0815 11.048C49.4695 11.048 49.0895 10.588 49.0895 10.032C49.0895 9.48 49.4695 9.02 50.0815 9.02C50.7015 9.02 51.0775 9.48 51.0775 10.032C51.0775 10.588 50.7015 11.048 50.0815 11.048ZM50.0815 10.676C50.4415 10.676 50.6415 10.376 50.6415 10.032C50.6415 9.692 50.4415 9.392 50.0815 9.392C49.7255 9.392 49.5255 9.692 49.5255 10.032C49.5255 10.376 49.7255 10.676 50.0815 10.676ZM51.6989 11.044C51.5469 11.044 51.4189 10.916 51.4189 10.764C51.4189 10.612 51.5469 10.484 51.6989 10.484C51.8509 10.484 51.9789 10.612 51.9789 10.764C51.9789 10.916 51.8509 11.044 51.6989 11.044ZM55.3508 11H53.4188V10.632C54.4548 9.848 54.8588 9.5 54.8588 9.116C54.8588 8.836 54.6188 8.708 54.3748 8.708C54.0628 8.708 53.8228 8.836 53.6548 9.028L53.3828 8.72C53.6188 8.436 53.9948 8.292 54.3668 8.292C54.8828 8.292 55.3348 8.584 55.3348 9.116C55.3348 9.608 54.8828 10.048 54.1668 10.588H55.3508V11ZM56.6577 11.044C56.3297 11.044 56.0737 10.928 55.8937 10.748L56.1097 10.396C56.2497 10.54 56.4057 10.628 56.6577 10.628C57.1417 10.628 57.3617 10.188 57.3617 9.752C57.3617 9.724 57.3617 9.7 57.3617 9.672C57.2377 9.852 56.9577 10.048 56.6457 10.048C56.1657 10.048 55.7497 9.752 55.7497 9.184C55.7497 8.692 56.1377 8.288 56.7337 8.288C57.5177 8.288 57.8337 8.924 57.8337 9.668C57.8337 10.436 57.4297 11.044 56.6577 11.044ZM56.7697 9.644C56.9977 9.644 57.2217 9.524 57.3537 9.332C57.3297 9.044 57.1697 8.704 56.7577 8.704C56.4097 8.704 56.2257 8.956 56.2257 9.168C56.2257 9.496 56.4817 9.644 56.7697 9.644Z" fill="white"/>
<defs>
<linearGradient id="paint0_linear_26835_29192" x1="31.5" y1="6.9" x2="31.5" y2="38.98" gradientUnits="userSpaceOnUse">
<stop stop-color="#008C00"/>
<stop offset="1" stop-color="#2F4553"/>
</linearGradient>
<linearGradient id="paint1_linear_26835_29192" x1="31.5" y1="29.8199" x2="31.5" y2="57.2999" gradientUnits="userSpaceOnUse">
<stop stop-color="#1A2C38"/>
<stop offset="1" stop-color="#2F4553"/>
</linearGradient>
</defs>
</svg>
