<svg width="63" height="88" viewBox="0 0 63 88" fill="none" xmlns="http://www.w3.org/2000/svg">
<rect width="63" height="88" rx="4" fill="#1CE61C"/>
<path d="M36.7008 13.5133L44.7992 3.48665C45.5586 2.54645 46.7024 2 47.911 2H58C59.6569 2 61 3.34314 61 5V83C61 84.6569 59.6569 86 58 86H5C3.34315 86 2 84.6569 2 83V18C2 16.3431 3.34315 15 5 15H33.589C34.7976 15 35.9414 14.4536 36.7008 13.5133Z" fill="#213743"/>
<mask id="mask0_26835_29193" style="mask-type:luminance" maskUnits="userSpaceOnUse" x="0" y="0" width="63" height="88">
<path d="M59 0H4C1.79 0 0 1.79 0 4V84C0 86.21 1.79 88 4 88H59C61.21 88 63 86.21 63 84V4C63 1.79 61.21 0 59 0ZM61 82.81C61 84.57 59.57 86 57.81 86H5.19C3.43 86 2 84.57 2 82.81V18.19C2 16.43 3.43 15 5.19 15H33.59C34.8 15 35.94 14.45 36.7 13.51L44.8 3.48C45.56 2.54 46.7 1.99 47.91 1.99H57.81C59.57 1.99 61 3.42 61 5.18V82.8V82.81Z" fill="white"/>
</mask>
<g mask="url(#mask0_26835_29193)">
<path d="M68.37 47.3199V26.6399L4.45996 90.5499H25.13L68.37 47.3199Z" fill="white"/>
<path d="M64.66 -2.29004H55.22L-2.92004 55.84V66.18L65.46 -2.20004C65.2 -2.26004 64.93 -2.29004 64.66 -2.29004Z" fill="white"/>
<path d="M68.37 69.23V61.55L39.37 90.55H47.05L68.37 69.23Z" fill="white"/>
</g>
<rect x="5" y="18" width="53" height="40" rx="1" fill="#2F4553"/>
<g clip-path="url(#clip0_26835_29193)">
<mask id="mask1_26835_29193" style="mask-type:luminance" maskUnits="userSpaceOnUse" x="5" y="18" width="53" height="40">
<path d="M57 18H6C5.44772 18 5 18.4477 5 19V57C5 57.5523 5.44772 58 6 58H57C57.5523 58 58 57.5523 58 57V19C58 18.4477 57.5523 18 57 18Z" fill="white"/>
</mask>
<g mask="url(#mask1_26835_29193)">
<path d="M47.71 46.2201C47.71 46.2201 46.47 45.5201 45.9 43.7201C45.9 43.7201 47.35 44.2801 47.71 44.5501C47.71 44.5501 47.56 43.2501 47.9 41.6101C47.9 41.6101 48.97 43.0001 49.19 44.6201C49.19 44.6201 49.51 43.6901 49.9 43.4001C49.9 43.4001 50.37 45.6101 49.9 46.1001C49.52 46.5001 47.7 46.2201 47.7 46.2201H47.71Z" fill="#FECF2F"/>
<path d="M52.36 45.3301C52.73 44.9001 52.79 44.1501 52.62 43.0701C52.62 43.0701 51.84 44.1701 51.75 44.6501C51.75 44.6501 51.78 44.2701 51.52 43.6901C51.52 43.6901 50.84 44.4901 50.84 45.5501C50.84 45.5501 52.1 45.6101 52.35 45.3301H52.36Z" fill="#FECF2F"/>
<path d="M-5.25 61.74C-5.25 61.74 37.09 45.26 61.62 44.04L61.13 62.72L-5.24 61.74H-5.25Z" fill="#F9B04F"/>
<path d="M45.25 59.61L48.01 57.77L50.29 59.48L45.25 59.61Z" fill="#002135"/>
<path d="M45.46 59.3499L48.74 57.33L40.75 57.2L45.46 59.3499Z" fill="#002135"/>
<path d="M44.16 54.3501L39.86 54.7701L39.47 55.2301L40.98 56.3101L46.3 56.9901L44.16 54.3501Z" fill="#FECF2F"/>
<path d="M45.75 50.49L44 53.17L43.84 54.89L45.75 56.93L48.25 56.78L50.16 54.49L50.15 52.39L48.87 50.94L45.75 50.49Z" fill="#FA4666"/>
<path d="M40.05 56.69L39.47 55.24L40.98 56.32L42.03 57.69L40.05 56.69Z" fill="#F99E48"/>
<path d="M46.3 57.0001L45.63 57.6901H42.04L40.99 56.3201L46.31 57.0001H46.3Z" fill="#F9794F"/>
<path d="M8.42 55.0499L12.74 54.95L13.18 55.36L11.81 56.61L6.62 57.15L8.42 55.04V55.0499Z" fill="#FECF2F"/>
<path d="M12.78 56.8701L13.18 55.3601L11.81 56.6101L10.85 58.4601L12.79 56.8701H12.78Z" fill="#F99E48"/>
<path d="M48.25 56.7799L53.08 54.8799L50.16 52.3899L48.25 56.7799Z" fill="#D41739"/>
<path d="M49.86 46.6001L45.75 50.4901L50.15 52.3801L49.86 46.6001Z" fill="#FF637F"/>
<path d="M43.84 54.8899L44.04 60.5499L48.25 56.7799L43.85 54.8899H43.84Z" fill="#D41739"/>
<path d="M42.29 50.0901L43.83 54.8701L45.74 50.4801L42.29 50.0801V50.0901Z" fill="#FF5472"/>
<path d="M42.29 50.0901L45.74 50.4901L49.85 46.6001L42.28 50.0901H42.29Z" fill="#FF91A5"/>
<path d="M50.15 52.3801L53.07 54.8701L49.85 46.5901L50.14 52.3701L50.15 52.3801Z" fill="#FF3659"/>
<path d="M43.83 54.8801L42.29 50.0901L44.03 60.5401L43.83 54.8801Z" fill="#FF3659"/>
<path d="M53.08 54.8799L48.25 56.7799L44.04 60.5499L53.08 54.8799Z" fill="#AB122E"/>
<path d="M31.58 57.7801L33.03 56.3101L38.83 55.6101L42.16 57.5401L36.62 58.8001L31.59 57.7801H31.58Z" fill="#FECF2F"/>
<path d="M31.5799 57.78L32.1299 60.03L37.3699 60.92L36.5999 58.8L31.5699 57.78H31.5799Z" fill="#F99E48"/>
<path d="M42.16 57.54V59.18L37.38 60.92L36.61 58.8L42.15 57.54H42.16Z" fill="#F9794F"/>
<path d="M49.7001 59.6299C49.7001 59.6299 47.9501 56.1199 47.0601 52.9699C47.0601 52.9699 49.8701 54.6599 50.7601 55.7899C50.7601 55.7899 51.5401 52.9099 53.1901 50.1899C53.1901 50.1899 54.2201 55.7399 54.0301 57.4999C54.0301 57.4999 54.6301 55.6099 56.0601 53.2899C56.0601 53.2899 55.9701 57.8699 55.4101 59.6299H49.7001Z" fill="#FECF2F"/>
<path d="M50.5801 56.59L50.75 55.79C49.86 54.66 47.05 52.97 47.05 52.97C47.05 52.97 50.2101 55.91 50.5801 56.58V56.59Z" fill="#F99E48"/>
<path d="M54.6101 56.0199L54.0201 57.4999C53.9501 54.3499 53.1801 50.1899 53.1801 50.1899C53.1801 50.1899 54.3301 53.8399 54.6101 56.0099V56.0199Z" fill="#F99E48"/>
<path d="M48.64 30.8399C48.64 30.8399 54.54 27.0699 60.72 24.6799L61.48 33.9999C61.48 33.9999 57.96 35.4299 52.2 39.8099L48.63 30.8399H48.64Z" fill="url(#paint0_linear_26835_29193)"/>
<path d="M47.36 32.9401V32.9601L46.42 35.3901L46.62 39.0401L46.73 40.9601L48.62 40.5701L52.2 39.8201L54.31 38.2901H54.32L56.04 36.5301V36.5101L56.02 36.5001L54.78 34.5101L53.01 32.8101L52.96 32.7701L50.86 31.5101L48.61 30.8401H48.6H48.58L47.33 32.9501L47.36 32.9401Z" fill="#FEE32F"/>
<path d="M54.36 35.6001L53.95 36.5401L54.0999 37.1801L56.0499 36.5001L54.3699 35.5901L54.36 35.6001Z" fill="#FECF2F"/>
<path d="M54.34 38.27L56.06 36.52V36.5L54.1 37.18L54.34 38.27Z" fill="#FEE32F"/>
<path d="M48.33 39.98L46.73 40.95L48.62 40.56L48.33 39.98Z" fill="#FEFA90"/>
<path d="M54.09 37.1901L53.96 36.5601L51.37 38.1301L54.08 37.1801L54.09 37.1901Z" fill="#FECF2F"/>
<path d="M51.88 34.26L53.96 36.56L54.35 35.59L51.87 34.26H51.88Z" fill="#FECF2F"/>
<path d="M54.36 35.5901L54.8 34.5101L53.03 32.8101L54.35 35.5901H54.36Z" fill="#FEFA64"/>
<path d="M54.36 35.59L56.04 36.49L54.8 34.5L54.36 35.58V35.59Z" fill="#FEE32F"/>
<path d="M48.62 40.5601L52.2 39.8101L48.33 39.9701L48.62 40.5501V40.5601Z" fill="#FEFA90"/>
<path d="M54.32 38.2899H54.33L54.09 37.1899L52.2 39.8199L54.32 38.2999V38.2899Z" fill="#FEFA90"/>
<path d="M52.2 39.8099L54.09 37.1799L51.38 38.1299L48.33 39.9799L52.2 39.8199V39.8099Z" fill="#FEE32F"/>
<path d="M47.99 39.3099L48.33 39.9799L51.38 38.1299L47.99 39.3099Z" fill="#FECF2F"/>
<path d="M49.94 32.2201L49.14 32.8601L48.48 32.8801L48.63 30.8201H48.64L49.95 32.2001L49.94 32.2201Z" fill="#FEAC2F"/>
<path d="M47.36 32.9401L48.61 30.8301H48.63L48.48 32.8901L47.36 32.9401Z" fill="#FEE32F"/>
<path d="M47.26 39.16L46.74 40.95L46.63 39.03L47.27 39.16H47.26Z" fill="#FEFA90"/>
<path d="M48.48 32.8901L49.12 32.8501L48.27 35.7501L48.48 32.8901Z" fill="#FECF2F"/>
<path d="M49.12 32.8501L48.27 35.7501L48 39.3101L51.38 38.1301L53.97 36.5601L53.81 36.3901L51.88 34.2701L49.32 32.9601L49.11 32.8501H49.12Z" fill="#FECF2F"/>
<path d="M47.99 39.3099L47.26 39.1599L46.74 40.9399L48.33 39.9799L48 39.3099H47.99Z" fill="#FECF2F"/>
<path d="M51.88 34.26L49.11 32.85L49.94 32.22L51.87 34.26H51.88Z" fill="#FECF2F"/>
<path d="M51.88 34.26L54.36 35.59L53.04 32.81L52.99 32.77L49.95 32.22L51.88 34.26Z" fill="#FEAC2F"/>
<path d="M49.95 32.22L50.8899 31.51L52.99 32.77L49.95 32.22Z" fill="#FE802F"/>
<path d="M49.95 32.2201L48.64 30.8401L50.89 31.5201L49.95 32.2301V32.2201Z" fill="#FEE32F"/>
<path d="M46.62 39.0299L46.42 35.3899L47.26 39.1599L46.62 39.0299Z" fill="#FEFA64"/>
<path d="M47.35 32.9499V32.9299L48.48 32.8799L46.42 35.3799L47.35 32.9499Z" fill="#FEFA64"/>
<path d="M46.42 35.3899L48.48 32.8899L48.27 35.7499L47.27 39.1599L46.43 35.3899H46.42Z" fill="#FEE32F"/>
<path d="M48 39.31L47.26 39.16L48.26 35.75L47.99 39.31H48Z" fill="#FECF2F"/>
<path d="M48.33 39.3001C47.37 39.1801 47.25 39.2601 46.88 40.1501C47 39.2001 46.92 39.0701 46.03 38.7001C46.99 38.8201 47.11 38.7401 47.48 37.8501C47.36 38.8001 47.44 38.9301 48.33 39.3001Z" fill="white"/>
<path d="M3.28003 23.3801C3.28003 23.3801 5.19003 27.9101 9.87003 30.3001C9.87003 30.3001 8.97003 24.4001 4.81003 18.7201C4.81003 18.7201 7.82003 20.8401 12.4 21.7701C12.4 21.7701 10.73 19.8701 7.63003 17.5801H3.28003V23.3701V23.3801Z" fill="#FEE32F"/>
<path d="M12.9399 17.4199C12.9399 17.4199 13.9599 19.7599 17.8999 22.6599C17.8999 22.6599 17.1599 19.2799 16.2699 17.5999L12.9399 17.4199Z" fill="#FEE32F"/>
<path d="M3.34003 18.3899L3.28003 18.6499V23.3699C3.28003 23.3699 5.19003 27.8999 9.87003 30.2899C4.32003 25.9199 3.35003 18.3799 3.35003 18.3799L3.34003 18.3899Z" fill="#F9854F"/>
<path d="M4.81004 18.7301C4.81004 18.7301 7.82004 20.8501 12.4 21.7801C12.4 21.7801 8.49004 20.2901 5.40004 17.5901H3.29004L4.83004 18.7501C4.83004 18.7501 4.82004 18.7301 4.81004 18.7201V18.7301Z" fill="#F9854F"/>
<path d="M12.9399 17.4199C12.9399 17.4199 13.9599 19.7599 17.8999 22.6599C17.8999 22.6599 15.7099 19.8599 14.5599 17.4999L12.9399 17.4199Z" fill="#F9854F"/>
<path d="M9.04998 43.64L8.55998 43.27H7.72998L8.13998 43.64H9.04998Z" fill="#F9B04F"/>
<path d="M8.24999 40.56L6.85999 39.45L5.73999 39.4799L5.93999 40.06L8.24999 40.56Z" fill="#F9B04F"/>
<path d="M12.57 43.46L12.02 42.77H11.25L12.57 43.46Z" fill="#F9B04F"/>
<path d="M14.77 50.0901L12.51 59.7401L13.31 51.4101L14.77 50.0901Z" fill="#F9994F"/>
<path d="M12.51 59.74L1.94995 57.93L6.07995 57.52L12.5 59.74H12.51Z" fill="#F9994F"/>
<path d="M9.72 55.8501L4.87 58.0601L12.52 59.7801L9.72999 55.8501H9.72Z" fill="#F9794F"/>
<path d="M12.48 59.8001L13.67 51.8101L9.73999 55.8801L12.48 59.8001Z" fill="#F9854F"/>
<path d="M9.57 50.3501L7.54 52.4901L4.67 53.6101L3.12 53.1001L2.75 51.6701L4.87 49.1101L8.14 47.6201L9.75 48.6701L9.58 50.3401L9.57 50.3501Z" fill="#F9994F"/>
<path d="M9.75004 55.89L7.54004 52.49L4.67004 53.61L4.93004 58.08L9.76004 55.89H9.75004Z" fill="#F9854F"/>
<path d="M7.54004 52.4901L9.57004 50.3501L13.62 52.1501L9.76004 55.8901L7.55004 52.4901H7.54004Z" fill="#F99E48"/>
<path d="M9.73995 48.6799L9.56995 50.3499L13.5999 52.1699L14.7899 50.0399L14.6499 48.6999L9.74995 48.6799H9.73995Z" fill="#F9BB4F"/>
<path d="M8.14001 47.63L12.89 47.53L14.65 48.7L9.75001 48.68L8.14001 47.63Z" fill="#F9DB4F"/>
<path d="M66.72 -3.75H-4.01001V66.98H66.72V-3.75Z" fill="#047BFF"/>
<path d="M9.36811 28.147C9.56033 27.6887 9.21243 27.1058 8.59106 26.8453C7.9697 26.5847 7.31015 26.7451 7.11794 27.2035C6.92572 27.6619 7.27362 28.2447 7.89498 28.5052C8.51635 28.7658 9.17589 28.6054 9.36811 28.147Z" fill="#00C2F9"/>
<path d="M9.24689 28.3912C9.43911 27.9328 9.09121 27.35 8.46985 27.0894C7.84848 26.8289 7.18894 26.9892 6.99672 27.4476C6.8045 27.906 7.1524 28.4888 7.77377 28.7494C8.39513 29.0099 9.05467 28.8496 9.24689 28.3912Z" fill="url(#paint1_linear_26835_29193)"/>
<path d="M52 36.3321L52.8989 7L55.5356 7.71892L56 38L52 36.3321Z" fill="url(#paint2_linear_26835_29193)"/>
<path d="M55.5112 39.2335C56.1171 38.5111 55.8441 37.2844 54.9013 36.4936C53.9585 35.7028 52.7031 35.6474 52.0971 36.3698C51.4912 37.0921 51.7643 38.3188 52.707 39.1096C53.6498 39.9004 54.9053 39.9558 55.5112 39.2335Z" fill="#FF7F00"/>
<path d="M55.8054 38.8697C56.4113 38.1473 56.1382 36.9207 55.1955 36.1299C54.2527 35.3391 52.9973 35.2836 52.3913 36.006C51.7854 36.7284 52.0585 37.955 53.0012 38.7458C53.944 39.5366 55.1994 39.5921 55.8054 38.8697Z" fill="#FFC200"/>
<path d="M17.2671 34.3065C17.9181 33.6848 18.0254 32.7404 17.5066 32.1972C16.9879 31.654 16.0396 31.7176 15.3885 32.3394C14.7375 32.9611 14.6302 33.9054 15.149 34.4487C15.6677 34.9919 16.616 34.9282 17.2671 34.3065Z" fill="#FF7F00"/>
<path d="M17.0573 34.0929C17.7084 33.4711 17.8157 32.5268 17.2969 31.9836C16.7782 31.4404 15.8299 31.504 15.1788 32.1257C14.5278 32.7475 14.4205 33.6918 14.9393 34.235C15.458 34.7782 16.4063 34.7146 17.0573 34.0929Z" fill="#FFC200"/>
<path d="M13.31 47.41C17.57 47.17 18.98 46.3 18.98 46.3C18.98 46.3 24.27 46.1 24.27 44.91C24.27 44.03 5.51998 42.91 5.46998 45.04C5.41998 47.17 9.14998 47.64 13.32 47.41H13.31Z" fill="url(#paint3_linear_26835_29193)"/>
<path d="M13.31 41.8899C17.57 42.1299 18.98 42.9999 18.98 42.9999C18.98 42.9999 24.27 43.1999 24.27 44.3899C24.27 45.2699 5.51998 46.3899 5.46998 44.2599C5.41998 42.1299 9.14998 41.6599 13.32 41.8899H13.31Z" fill="#00C2F9"/>
<path d="M11.6872 44.4257C12.1213 44.3436 12.4216 44.0043 12.358 43.6678C12.2944 43.3314 11.8908 43.1252 11.4567 43.2073C11.0226 43.2894 10.7222 43.6287 10.7859 43.9652C10.8495 44.3016 11.253 44.5078 11.6872 44.4257Z" fill="#0073F9"/>
<path d="M11.6579 44.2641C12.092 44.182 12.3923 43.8426 12.3287 43.5062C12.2651 43.1697 11.8616 42.9636 11.4274 43.0457C10.9933 43.1278 10.6929 43.4671 10.7566 43.8035C10.8202 44.14 11.2237 44.3462 11.6579 44.2641Z" fill="#00C4F9"/>
<path d="M14.7198 42.3098C14.8026 41.9549 14.4773 41.5756 13.9932 41.4627C13.5092 41.3497 13.0496 41.546 12.9668 41.901C12.884 42.2559 13.2093 42.6352 13.6934 42.7481C14.1774 42.8611 14.637 42.6648 14.7198 42.3098Z" fill="#00C2F9"/>
<path d="M12.32 34.43C12.27 34.43 12.22 34.39 12.22 34.33V8.6C12.22 8.55 12.26 8.5 12.32 8.5C12.38 8.5 12.42 8.54 12.42 8.6V34.34C12.42 34.39 12.38 34.44 12.32 34.44V34.43Z" fill="#DFEAF0"/>
<path d="M22.2 23.9799C22.14 23.9799 22.1 23.9299 22.1 23.8799V11.4999C22.1 11.4399 22.15 11.3999 22.2 11.3999C22.25 11.3999 22.3 11.4499 22.3 11.4999V23.8799C22.3 23.9399 22.25 23.9799 22.2 23.9799Z" fill="#005AC2"/>
<path d="M52.11 26.6301C52.05 26.6301 52 26.5801 52 26.5201V13.2301C52 13.1701 52.05 13.1201 52.11 13.1201C52.17 13.1201 52.22 13.1701 52.22 13.2301V26.5201C52.22 26.5801 52.17 26.6301 52.11 26.6301Z" fill="#DFEAF0"/>
<path d="M25.72 33.4099H25.53V44.2499H25.72V33.4099Z" fill="#DFEAF0"/>
<path d="M38.11 61.24C38.05 61.24 38 61.19 38 61.13V47.11C38 47.05 38.05 47 38.11 47C38.17 47 38.22 47.05 38.22 47.11V61.13C38.22 61.19 38.17 61.24 38.11 61.24Z" fill="#DFEAF0"/>
<path d="M45.1 42.58C45.04 42.58 45 42.53 45 42.48V30.1C45 30.04 45.05 30 45.1 30C45.15 30 45.2 30.05 45.2 30.1V42.48C45.2 42.54 45.15 42.58 45.1 42.58Z" fill="#005AC2"/>
<path d="M17.49 39.8099C17.606 39.8099 17.7 39.7159 17.7 39.5999C17.7 39.4839 17.606 39.3899 17.49 39.3899C17.374 39.3899 17.28 39.4839 17.28 39.5999C17.28 39.7159 17.374 39.8099 17.49 39.8099Z" fill="#DFEAF0"/>
<path d="M41.79 44.5899C41.9722 44.5899 42.12 44.4422 42.12 44.2599C42.12 44.0777 41.9722 43.9299 41.79 43.9299C41.6077 43.9299 41.46 44.0777 41.46 44.2599C41.46 44.4422 41.6077 44.5899 41.79 44.5899Z" fill="#DFEAF0"/>
<path d="M43.29 23.47C43.4059 23.47 43.5 23.376 43.5 23.26C43.5 23.1441 43.4059 23.05 43.29 23.05C43.174 23.05 43.08 23.1441 43.08 23.26C43.08 23.376 43.174 23.47 43.29 23.47Z" fill="#DFEAF0"/>
<path d="M15.32 42.3401L13.73 41.8401L13.68 42.0001C13.63 42.2001 13.94 42.4701 14.38 42.6001C14.82 42.7301 15.22 42.6901 15.27 42.4901L15.32 42.3301V42.3401Z" fill="#0073F9"/>
<path d="M15.3188 42.3447C15.3818 42.1503 15.0794 41.8781 14.6433 41.7369C14.2072 41.5956 13.8026 41.6387 13.7396 41.8331C13.6767 42.0275 13.9791 42.2996 14.4152 42.4409C14.8513 42.5821 15.2559 42.5391 15.3188 42.3447Z" fill="#00C2F9"/>
<path d="M14.32 18.47C14.436 18.47 14.53 18.376 14.53 18.26C14.53 18.1441 14.436 18.05 14.32 18.05C14.204 18.05 14.11 18.1441 14.11 18.26C14.11 18.376 14.204 18.47 14.32 18.47Z" fill="#DFEAF0"/>
<path d="M37.39 59.5345C35.1 56.7845 38.13 54.3245 35.29 51.4745C34.13 50.3145 32.33 49.9545 31.04 50.0045C26.15 50.2045 23.53 55.2745 21.87 60.4945H38.64C38.17 60.2745 37.75 59.9645 37.39 59.5345Z" fill="url(#paint4_linear_26835_29193)"/>
<path d="M30.37 52.2899C18.99 52.2899 10.08 50.8399 10.08 48.9799C10.08 47.1199 18.99 45.6699 30.37 45.6699C41.75 45.6699 50.66 47.1199 50.66 48.9799C50.66 50.8399 41.75 52.2899 30.37 52.2899ZM30.37 45.8699C24.98 45.8699 19.91 46.1999 16.1 46.8099C10.83 47.6499 10.27 48.6099 10.27 48.9899C10.27 49.3699 10.84 50.3299 16.1 51.1699C19.91 51.7799 24.98 52.1099 30.37 52.1099C35.76 52.1099 40.83 51.7799 44.64 51.1699C49.91 50.3299 50.47 49.3699 50.47 48.9899C50.47 48.6099 49.9 47.6499 44.64 46.8099C40.83 46.1999 35.76 45.8699 30.37 45.8699Z" fill="#DFEAF0"/>
<path d="M17.9518 48.1177C18.4169 47.1525 17.8621 45.9211 16.7128 45.3673C15.5635 44.8136 14.2548 45.1472 13.7897 46.1124C13.3246 47.0776 13.8793 48.309 15.0287 48.8628C16.178 49.4165 17.4867 49.083 17.9518 48.1177Z" fill="#FF7F00"/>
<path d="M18.132 47.7459C18.597 46.7807 18.0423 45.5493 16.893 44.9955C15.7437 44.4418 14.4349 44.7753 13.9699 45.7406C13.5048 46.7058 14.0595 47.9372 15.2089 48.491C16.3582 49.0447 17.6669 48.7111 18.132 47.7459Z" fill="#FFC200"/>
<path d="M39.73 53.0599C39.33 53.0799 39.05 53.4699 39.18 53.8499C40.37 57.3599 49.86 61.0899 54.81 60.3199C60.12 59.4899 61.93 57.2699 61.93 57.2699C61.93 57.2699 66.89 56.3899 68.33 53.9699C68.56 53.5799 68.29 53.0799 67.84 53.0599C58.58 52.5599 49.2 52.5799 39.73 53.0699V53.0599Z" fill="url(#paint5_linear_26835_29193)"/>
<path d="M39.59 54.08C39.19 54.06 38.91 53.66 39.04 53.28C40.24 49.73 49.83 45.96 54.83 46.75C60.19 47.59 62.02 49.83 62.02 49.83C62.02 49.83 67.03 50.72 68.48 53.16C68.71 53.55 68.44 54.06 67.98 54.08C58.62 54.59 49.15 54.56 39.59 54.07V54.08Z" fill="#00C2F9"/>
</g>
<path d="M38.44 21.3C38.44 21.3 39.62 21.21 40.7 21.04C43.17 21.2 44.62 23.51 43.38 25.52C42.13 26.22 40.6 26.92 38.76 27.58C38.76 27.58 35.28 22.95 38.44 21.29V21.3Z" fill="#DFEAF0"/>
<path d="M40.7 21.0399C42.43 20.7599 44.3699 20.2699 44.3899 19.5399C44.4099 18.3599 44.96 18.2699 45.4 18.6399C45.84 19.0099 46.0699 17.0699 47.7299 18.6099C49.05 19.8399 47.86 23.6199 42.36 26.0599C42.57 24.2299 42.05 22.1699 40.7 21.0399Z" fill="white"/>
<path d="M27.9709 15.1647C27.9709 15.1647 26.7322 12.9032 24.0505 12.6978C21.3687 12.4923 14.0724 15.5812 9.83679 14.5618L14.3583 18.5058L27.9828 15.1724L27.9709 15.1647Z" fill="#DFEAF0"/>
<path d="M13.0596 16.7785C13.0596 16.7785 17.5012 16.5578 20.7671 15.1868C26.1286 12.95 30.3815 14.7224 30.3815 14.7224L29.1167 21.1165L17.4137 19.8892L13.0498 16.7806L13.0596 16.7785Z" fill="#CB314B"/>
<path d="M5.48698 19.0983C5.48698 19.0983 2.7442 21.053 1.33917 20.2175C-0.0658574 19.3821 2.84178 13.5478 8.30659 13.2827C13.7637 13.0296 15.1398 16.7034 15.1398 16.7034L9.39886 15.9128L5.49467 19.0864L5.48698 19.0983Z" fill="white"/>
<path d="M5.48683 19.0982C5.48683 19.0982 6.50496 14.137 10.4824 14.281C14.4598 14.425 20.5193 20.26 30.2505 15.8342L33.6448 27.4416L20.4051 28.3107C20.4051 28.3107 13.7924 16.7144 5.49453 19.0863L5.48683 19.0982Z" fill="#E9113C"/>
<path d="M28.3 10.4C28.6866 10.4 29 10.0866 29 9.7C29 9.3134 28.6866 9 28.3 9C27.9134 9 27.6 9.3134 27.6 9.7C27.6 10.0866 27.9134 10.4 28.3 10.4Z" fill="white"/>
<path d="M39.39 19.7999C39.39 19.7999 38.26 11.5499 37.09 10.5499C35.92 9.54989 33.66 14.4599 33.66 14.4599C33.66 14.4599 36.51 19.7399 39.39 19.7999Z" fill="white"/>
<path d="M19.17 25.5401C19.17 25.5401 16.86 16.3201 17.53 14.4901C18.2 12.6601 23.46 17.0701 23.46 17.0701C23.46 17.0701 21.52 25.4201 19.17 25.5401Z" fill="white"/>
<path d="M49.05 35.6201C50.91 32.5601 50.74 28.8601 49.67 28.0201C47.32 26.1701 41.95 28.6501 41.39 27.2101C40.79 25.6601 40.61 23.7901 39.89 21.0401C38.38 15.2901 33.78 12.1401 27.82 13.2201C21.86 14.3101 19.16 19.2301 19.11 24.9201C19.08 27.6301 20.1 32.0501 20.91 34.8501C22.51 40.3401 25.1 46.9701 31.04 47.1901C32.32 47.2401 34.13 46.9201 35.29 45.8801C38.13 43.3401 35.1 41.1501 37.39 38.6901C40.19 35.6901 46.81 39.2901 49.06 35.6001L49.05 35.6201Z" fill="white"/>
<path d="M27.42 13.5401C27.36 13.5001 27.32 13.4401 27.29 13.3601L26.76 11.5601C26.72 11.4401 26.76 11.3101 26.85 11.2201C26.94 11.1301 27.08 11.1001 27.2 11.1401L28.43 11.5601L28.09 10.1101C28.05 9.93009 28.16 9.7401 28.34 9.7001C28.52 9.6601 28.71 9.7701 28.75 9.9501L29.23 12.0001C29.26 12.1201 29.22 12.2501 29.13 12.3301C29.04 12.4101 28.91 12.4401 28.79 12.4001L27.6 12.0001L27.94 13.1601C27.99 13.3401 27.89 13.5301 27.71 13.5801C27.6 13.6101 27.49 13.5801 27.41 13.5301L27.42 13.5401Z" fill="white"/>
<path d="M48 32.38C47.55 34.31 47.55 35.96 48 36.06C48.45 36.16 49.49 34.5 49.94 32.57C50.39 30.64 50.1 29.19 49.64 29.08C49.18 28.97 48.44 30.45 47.99 32.37L48 32.38Z" fill="#DFEAF0"/>
<path d="M22.5501 24.4C22.5501 24.4 21.5401 24.11 20.3101 23.68C18.3401 22.99 15.9201 21.92 15.9601 21.08C16.0201 19.69 15.6001 19.32 14.8701 19.97C14.3601 20.43 13.2501 18.16 12.1701 18.86C11.0901 19.56 12.4401 24.21 15.9901 27.84C17.6001 29.49 18.6501 30.44 20.6601 31.61C20.6601 31.61 25.8801 27 22.5501 24.4Z" fill="white"/>
<path d="M30.1501 25.33C30.1501 25.33 32.9201 25.04 33.6801 24.09C34.4401 23.14 34.7901 26.01 31.7301 26.81C27.4801 27.92 26.8301 26.46 26.7501 25.51C26.6901 24.75 28.4201 25.55 30.1501 25.34V25.33Z" fill="#2F2D2A"/>
<path d="M33.7399 23.22L33.9099 24.19C33.9599 24.49 33.7999 24.78 33.5099 24.91C33.4699 24.93 33.4199 24.94 33.3799 24.96C33.3199 24.76 33.1099 24.63 32.8899 24.67C32.6499 24.71 32.4899 24.93 32.5399 25.16C32.5399 25.2 32.5599 25.23 32.5699 25.26C31.0199 25.79 29.4599 26.01 27.8699 25.91C27.5599 25.89 27.3099 25.67 27.2499 25.38L27.0699 24.41C29.4299 24.65 31.6599 24.27 33.7299 23.23L33.7399 23.22Z" fill="white"/>
<path d="M26.5 15.8999C25.92 16.3099 25.47 16.7899 25.15 17.3099C25.2 16.4099 25.74 15.4699 26.7 14.7899C28.28 13.6799 30.4 13.7199 31.42 14.8799C31.6 15.0799 31.73 15.3099 31.82 15.5499C30.44 14.5899 28.22 14.6999 26.5 15.9099V15.8999Z" fill="#DFEAF0"/>
<path d="M27.25 22.84C29.14 23.92 31.8 23.42 33.21 21.74C34.61 20.06 34.22 17.82 32.33 16.74C30.44 15.66 27.78 16.16 26.37 17.84C24.97 19.52 25.36 21.76 27.25 22.84Z" fill="#DDDFE5"/>
<path d="M26.75 22.5599C28.64 23.6399 31.3 23.1399 32.71 21.4599C34.12 19.7799 33.72 17.5399 31.83 16.4599C29.94 15.3799 27.28 15.8799 25.87 17.5599C24.46 19.2399 24.86 21.4799 26.75 22.5599Z" fill="#504C47"/>
<path d="M26.67 22.08C28.38 23.05 30.79 22.61 32.06 21.08C33.33 19.56 32.98 17.53 31.27 16.56C29.56 15.59 27.15 16.03 25.88 17.56C24.61 19.09 24.96 21.11 26.67 22.08Z" fill="#2F2D2A"/>
<path d="M27.12 19.8101C27.71 20.1501 28.54 19.99 28.98 19.47C29.42 18.95 29.3 18.2501 28.71 17.9101C28.12 17.5701 27.29 17.7301 26.85 18.2501C26.41 18.7701 26.53 19.4701 27.12 19.8101Z" fill="white"/>
<path d="M30.24 20.3399C30.45 20.4599 30.74 20.3999 30.89 20.2199C31.04 20.0399 31 19.7899 30.79 19.6699C30.58 19.5499 30.29 19.6099 30.14 19.7899C29.99 19.9699 30.03 20.2199 30.24 20.3399Z" fill="white"/>
<path d="M32.37 32.6899L29.62 34.8699C29.93 35.3699 30.48 35.6999 31.12 35.6999C32.09 35.6999 32.89 34.9099 32.89 33.9299C32.89 33.4499 32.7 33.0099 32.38 32.6899H32.37Z" fill="#DDDFE5"/>
<path d="M32.6 33.6799C32.6 33.6799 38.7 31.5699 38.32 26.6799C38.32 26.6799 33.94 32.4799 31.86 32.9399L32.6 33.6699V33.6799Z" fill="#DDDFE5"/>
<path d="M30.72 33.08C30.72 33.08 37.11 30 37.65 23.73C37.65 23.73 38.64 25.31 38.43 26.46C38.43 26.46 38.31 31.52 30.98 33.69L30.72 33.09V33.08Z" fill="#E9113C"/>
<path d="M23.04 30.8501C23.04 30.8501 25.1 34.1601 29.32 34.6101L29.19 33.3701L23.04 30.8501Z" fill="#DDDFE5"/>
<path d="M19.3101 26.8201C19.3101 26.8201 25.1301 28.6701 29.1901 33.3801V33.9401C29.1901 33.9401 22.6001 33.2101 19.3101 26.8201Z" fill="#E9113C"/>
<path d="M30.37 35.3699C31.4083 35.3699 32.25 34.5282 32.25 33.4899C32.25 32.4516 31.4083 31.6099 30.37 31.6099C29.3317 31.6099 28.49 32.4516 28.49 33.4899C28.49 34.5282 29.3317 35.3699 30.37 35.3699Z" fill="#FFC200"/>
<path d="M31.5921 32.8397C31.7008 32.7003 31.5736 32.4194 31.308 32.2122C31.0423 32.0049 30.7389 31.9499 30.6302 32.0893C30.5215 32.2286 30.6487 32.5095 30.9143 32.7168C31.1799 32.924 31.4834 32.979 31.5921 32.8397Z" fill="#FFEBB8"/>
<path d="M48.2372 53.1489C49.252 52.957 49.9557 52.1723 49.8089 51.3963C49.6621 50.6203 48.7205 50.1468 47.7057 50.3388C46.6909 50.5307 45.9873 51.3154 46.134 52.0914C46.2808 52.8674 47.2224 53.3409 48.2372 53.1489Z" fill="#0073F9"/>
<path d="M48.1679 52.7686C49.1827 52.5766 49.8863 51.792 49.7396 51.016C49.5928 50.24 48.6512 49.7665 47.6364 49.9584C46.6216 50.1503 45.9179 50.935 46.0647 51.711C46.2115 52.487 47.1531 52.9605 48.1679 52.7686Z" fill="#00C4F9"/>
<path d="M56.0287 47.6892C56.2296 47.0692 55.7365 46.3541 54.9273 46.092C54.1182 45.8299 53.2995 46.12 53.0986 46.74C52.8978 47.36 53.3909 48.075 54.2 48.3372C55.0091 48.5993 55.8279 48.3092 56.0287 47.6892Z" fill="#0073F9"/>
<path d="M56.1147 47.3787C56.3155 46.7587 55.8224 46.0436 55.0133 45.7815C54.2042 45.5194 53.3854 45.8095 53.1846 46.4294C52.9837 47.0494 53.4768 47.7645 54.286 48.0266C55.0951 48.2887 55.9138 47.9986 56.1147 47.3787Z" fill="#00C2F9"/>
<path d="M46.905 49.4714C47.1058 48.8515 46.6127 48.1364 45.8036 47.8743C44.9944 47.6121 44.1757 47.9022 43.9749 48.5222C43.774 49.1422 44.2671 49.8573 45.0762 50.1194C45.8854 50.3815 46.7041 50.0914 46.905 49.4714Z" fill="#00C2F9"/>
<path d="M54.926 48.9995C55.069 48.5581 54.529 47.9879 53.7199 47.7257C52.9107 47.4636 52.1389 47.6089 51.9959 48.0503C51.853 48.4916 52.393 49.0619 53.2021 49.324C54.0112 49.5861 54.783 49.4408 54.926 48.9995Z" fill="#0073F9"/>
<path d="M55.0218 48.6889C55.1648 48.2476 54.6248 47.6773 53.8157 47.4152C53.0066 47.1531 52.2347 47.2984 52.0918 47.7397C51.9488 48.181 52.4888 48.7513 53.2979 49.0134C54.107 49.2755 54.8789 49.1303 55.0218 48.6889Z" fill="#00C2F9"/>
</g>
<path fill-rule="evenodd" clip-rule="evenodd" d="M6.49771 79C6.98969 79 7.48602 79.213 7.49037 79.6913C7.49037 80.1043 7.24656 80.2696 6.99839 80.2696C6.75023 80.2696 6.73281 80.1435 6.73281 80.1435C6.73281 80.1435 7.02452 79.9261 7.02452 79.7174C7.02452 79.6087 6.94179 79.313 6.489 79.3174C5.8577 79.3174 5.5181 79.6174 5.5181 80.1522C5.5181 80.7652 7.35105 80.9739 7.3554 81.7652C7.3554 82.613 6.47594 82.9957 5.69225 83C5.283 83 5.01306 82.7609 5.00871 82.3783C5.00871 81.9261 5.22204 81.4652 5.75756 81.4652C5.88382 81.4565 5.98831 81.5522 5.99702 81.6783C5.99702 81.6783 5.99702 81.6826 5.99702 81.687C5.99702 81.687 5.45715 81.8391 5.4615 82.3783C5.4615 82.4783 5.56599 82.6609 5.81851 82.6565C6.07103 82.6522 6.82424 82.4739 6.81989 81.8087C6.81989 81.1913 5.00435 81.1087 5 80.1478C5 79.0652 6.08845 79.0087 6.49771 79.0087V79ZM10.747 79.6C10.8123 79.5696 11.2129 79.4913 11.1955 79.813C11.1824 80.1348 10.9386 80.6913 10.9037 80.9348C11.2303 80.7696 11.6918 80.2087 11.6918 80.2087C11.6918 80.2087 12.0183 80.2522 11.9182 80.4522C11.818 80.6522 11.1519 81.1435 11.1519 81.1435C11.1519 81.1435 11.3043 82.5696 12.1707 82.5696C12.6453 82.5696 12.8499 82.3609 12.937 82.287C12.9587 82.2696 12.9762 82.2652 12.9849 82.2783C13.0197 82.387 12.9936 82.5043 12.9152 82.5913C12.8194 82.6957 12.5974 82.8217 12.1533 82.8261C11.3653 82.8261 10.9255 82.1957 10.8123 81.2609C10.7252 81.5348 10.7339 81.9826 10.7209 82.2C10.6948 82.2435 10.2507 82.4174 10.2158 82.1174C10.2158 82.0913 10.2158 82.0696 10.2158 82.0435C10.1331 82.1609 10.0199 82.2826 9.91108 82.2826C9.71951 82.2826 9.63679 82.1217 9.60196 82.0391C9.57584 82.0696 9.3625 82.287 9.08821 82.287C8.92277 82.2913 8.77474 82.1957 8.70943 82.0435C8.57011 82.1435 8.32195 82.2913 8.03895 82.2913C7.73418 82.2913 7.66017 82.1087 7.66017 81.9565C7.66017 81.713 7.84303 80.987 7.84303 80.987C7.84303 80.987 7.48602 81.1304 7.36411 81.1348C7.19431 81.1348 7.11159 80.8217 7.11159 80.813C7.11159 80.8087 7.11159 80.8 7.1203 80.8C7.22044 80.7609 7.94317 80.513 7.94317 80.513C7.94317 80.513 8.07813 79.9826 8.09555 79.913C8.11296 79.8435 8.2131 79.7 8.33065 79.6565C8.41773 79.6217 8.50916 79.6 8.60059 79.5913C8.63107 79.5913 8.65284 79.6 8.65284 79.6174C8.65284 79.6348 8.47433 80.4087 8.47433 80.4087C8.47433 80.4087 8.84876 80.3217 8.98808 80.3217C9.09692 80.3217 9.15352 80.387 9.09257 80.4696C9.03162 80.5522 8.96196 80.6478 8.92712 80.6913C8.88794 80.7348 8.86182 80.7435 8.77039 80.7609C8.64413 80.787 8.36113 80.8565 8.36113 80.8565C8.36113 80.8565 8.13473 81.6783 8.13909 81.8174C8.13909 81.8957 8.16521 81.987 8.26099 81.987C8.35678 81.987 8.53964 81.8739 8.67025 81.7913C8.69202 81.1522 9.18835 80.7261 9.57584 80.7261C9.7021 80.7261 9.65421 80.8478 9.79788 80.8478H9.88931C9.94591 80.8478 10.0069 80.8522 10.0069 80.9957C10.0069 81.1957 9.89367 81.5261 9.89367 81.7348C9.89367 81.8826 9.91544 81.987 9.97204 81.987C10.0678 81.987 10.1767 81.8478 10.255 81.7261C10.3813 81.0304 10.734 79.7609 10.734 79.6174L10.747 79.6ZM12.5016 80.7C12.7672 80.6783 12.9326 80.8217 12.9631 80.9C12.9936 80.9783 12.9892 81.1609 12.9152 81.2913C12.6845 81.7044 12.1097 81.6304 12.1097 81.6304C12.1097 81.6304 12.0444 81.9565 12.3405 81.9565C12.593 81.9565 12.7062 81.8304 12.8151 81.7261C12.8586 81.7261 12.9936 81.8652 12.9326 81.9609C12.8847 82.0348 12.6191 82.2565 12.2795 82.2609C11.7397 82.2609 11.6047 81.8 11.6744 81.4696C11.7658 81.0609 12.1751 80.7217 12.5016 80.6957V80.7ZM9.6455 80.987C9.32332 80.987 8.82699 81.9696 9.20577 81.9652C9.61938 81.9652 9.6455 81.1826 9.6455 81.0043V80.987ZM12.6409 80.8913C12.4232 80.9 12.1751 81.3174 12.1533 81.5C12.4798 81.513 12.654 81.1957 12.6757 81.0696C12.6888 80.9739 12.6932 80.887 12.6409 80.887V80.8913Z" fill="#557086"/>
<path d="M51.1444 79.3778L51.6412 80.278L52.6518 80.4733C52.7792 80.4988 52.8302 80.6559 52.741 80.7494L52.0361 81.5009L52.1635 82.5243C52.1805 82.6559 52.0446 82.7494 51.93 82.6942L51 82.2568L50.0701 82.6942C49.9512 82.7494 49.8196 82.6517 49.8366 82.5243L49.9639 81.5009L49.2591 80.7494C49.1699 80.6559 49.2208 80.4988 49.3482 80.4733L50.3588 80.278L50.8557 79.3778C50.9194 79.2632 51.085 79.2632 51.1444 79.3778Z" fill="#FFC200"/>
<path d="M51 79.2929C51.0552 79.2929 51.1147 79.3226 51.1444 79.3778L51.6412 80.278L52.6518 80.4733C52.7792 80.4988 52.8302 80.6559 52.741 80.7494L52.0361 81.5009L52.1635 82.5243C52.1763 82.6262 52.0955 82.7111 51.9979 82.7111C51.9766 82.7111 51.9512 82.7069 51.9257 82.6942L50.9957 82.2568L50.0658 82.6942C50.0403 82.7069 50.0191 82.7111 49.9936 82.7111C49.9002 82.7111 49.8153 82.6262 49.828 82.5243L49.9554 81.5009L49.2505 80.7494C49.1613 80.6559 49.2123 80.4988 49.3397 80.4733L50.3503 80.278L50.8471 79.3778C50.8768 79.3226 50.9363 79.2929 50.9915 79.2929M51 79.0806C50.8641 79.0806 50.7367 79.157 50.6688 79.2759L50.2187 80.0912L49.3057 80.2653C49.1698 80.2908 49.0594 80.3884 49.017 80.5201C48.9745 80.6517 49.0085 80.7961 49.1019 80.8937L49.7388 81.5731L49.6242 82.4946C49.6115 82.6007 49.6454 82.7111 49.7134 82.7918C49.7856 82.8725 49.8875 82.9192 49.9979 82.9192C50.0531 82.9192 50.1083 82.9065 50.1592 82.881L51 82.4861L51.8408 82.881C51.8917 82.9065 51.9469 82.9192 52.0021 82.9192C52.1125 82.9192 52.2144 82.8725 52.2866 82.7918C52.3588 82.7111 52.3928 82.6007 52.3758 82.4946L52.2611 81.5731L52.8981 80.8937C52.9915 80.7918 53.0255 80.6474 52.983 80.5201C52.9405 80.3884 52.8301 80.2908 52.6943 80.2653L51.7813 80.0912L51.3312 79.2759C51.2633 79.157 51.1359 79.0806 51 79.0806Z" fill="#213743"/>
<path d="M51 79.8152V80.9744C51 81.0678 51.0892 81.1315 51.1784 81.106L52.2187 80.7706C52.2739 80.7536 52.2697 80.6729 52.2102 80.6602L51.5563 80.5413C51.4969 80.5286 51.4417 80.4903 51.4119 80.4351L51.085 79.7939C51.0637 79.7515 50.9958 79.7642 50.9958 79.8152H51Z" fill="#FFEBB8"/>
<path d="M51 81.4924V82.0699C51 82.1039 51.017 82.1294 51.0467 82.1464L51.7983 82.5073C51.8365 82.5243 51.8705 82.4818 51.845 82.4479L51.0934 81.4627C51.0637 81.4245 51 81.4457 51 81.4924Z" fill="#FF7F00"/>
<path d="M56.1444 79.3778L56.6412 80.278L57.6518 80.4733C57.7792 80.4988 57.8302 80.6559 57.741 80.7494L57.0361 81.5009L57.1635 82.5243C57.1805 82.6559 57.0446 82.7494 56.93 82.6942L56 82.2568L55.0701 82.6942C54.9512 82.7494 54.8196 82.6517 54.8366 82.5243L54.9639 81.5009L54.2591 80.7494C54.1699 80.6559 54.2208 80.4988 54.3482 80.4733L55.3588 80.278L55.8557 79.3778C55.9194 79.2632 56.085 79.2632 56.1444 79.3778Z" fill="#FFC200"/>
<path d="M56 79.2929C56.0552 79.2929 56.1147 79.3226 56.1444 79.3778L56.6412 80.278L57.6518 80.4733C57.7792 80.4988 57.8302 80.6559 57.741 80.7494L57.0361 81.5009L57.1635 82.5243C57.1763 82.6262 57.0955 82.7111 56.9979 82.7111C56.9766 82.7111 56.9512 82.7069 56.9257 82.6942L55.9957 82.2568L55.0658 82.6942C55.0403 82.7069 55.0191 82.7111 54.9936 82.7111C54.9002 82.7111 54.8153 82.6262 54.828 82.5243L54.9554 81.5009L54.2505 80.7494C54.1613 80.6559 54.2123 80.4988 54.3397 80.4733L55.3503 80.278L55.8471 79.3778C55.8768 79.3226 55.9363 79.2929 55.9915 79.2929M56 79.0806C55.8641 79.0806 55.7367 79.157 55.6688 79.2759L55.2187 80.0912L54.3057 80.2653C54.1698 80.2908 54.0594 80.3884 54.017 80.5201C53.9745 80.6517 54.0085 80.7961 54.1019 80.8937L54.7388 81.5731L54.6242 82.4946C54.6115 82.6007 54.6454 82.7111 54.7134 82.7918C54.7856 82.8725 54.8875 82.9192 54.9979 82.9192C55.0531 82.9192 55.1083 82.9065 55.1592 82.881L56 82.4861L56.8408 82.881C56.8917 82.9065 56.9469 82.9192 57.0021 82.9192C57.1125 82.9192 57.2144 82.8725 57.2866 82.7918C57.3588 82.7111 57.3928 82.6007 57.3758 82.4946L57.2611 81.5731L57.8981 80.8937C57.9915 80.7918 58.0255 80.6474 57.983 80.5201C57.9405 80.3884 57.8301 80.2908 57.6943 80.2653L56.7813 80.0912L56.3312 79.2759C56.2633 79.157 56.1359 79.0806 56 79.0806Z" fill="#213743"/>
<path d="M56 79.8152V80.9744C56 81.0678 56.0892 81.1315 56.1784 81.106L57.2187 80.7706C57.2739 80.7536 57.2697 80.6729 57.2102 80.6602L56.5563 80.5413C56.4969 80.5286 56.4417 80.4903 56.4119 80.4351L56.085 79.7939C56.0637 79.7515 55.9958 79.7642 55.9958 79.8152H56Z" fill="#FFEBB8"/>
<path d="M56 81.4924V82.0699C56 82.1039 56.017 82.1294 56.0467 82.1464L56.7983 82.5073C56.8365 82.5243 56.8705 82.4818 56.845 82.4479L56.0934 81.4627C56.0637 81.4245 56 81.4457 56 81.4924Z" fill="#FF7F00"/>
<rect x="13" y="62" width="37" height="13" rx="6.5" fill="#2F4553"/>
<path d="M28.5935 70H27.5615V67.318L26.8895 67.996L26.3015 67.378L27.6995 65.998H28.5935V70ZM30.8091 70.072C30.1011 70.072 29.5671 69.856 29.1951 69.49L29.7591 68.77C30.0351 69.022 30.4131 69.16 30.7971 69.16C31.2351 69.16 31.4511 68.944 31.4511 68.698C31.4511 68.428 31.2411 68.236 30.8271 68.236C30.5091 68.236 30.2571 68.326 30.0351 68.536L29.3211 68.362V65.998H32.2251V66.898H30.3531V67.672C30.5451 67.486 30.8571 67.354 31.2111 67.354C31.8891 67.354 32.5011 67.852 32.5011 68.656C32.5011 69.52 31.8471 70.072 30.8091 70.072ZM35.7662 70H34.7522L34.1942 69.124L33.6302 70H32.6222L33.6122 68.512L32.6822 67.102H33.6962L34.1942 67.888L34.6862 67.102H35.7002L34.7762 68.512L35.7662 70Z" fill="white"/>
<path d="M8.03 11H7.215L6.56 9.815H6.04V11H5.33V7.665H6.89C7.585 7.665 8.01 8.12 8.01 8.74C8.01 9.33 7.64 9.645 7.28 9.73L8.03 11ZM6.785 9.19C7.07 9.19 7.285 9.02 7.285 8.74C7.285 8.46 7.07 8.29 6.785 8.29H6.04V9.19H6.785ZM10.5152 11H9.88023V10.75C9.71523 10.945 9.43023 11.06 9.11523 11.06C8.73023 11.06 8.27523 10.8 8.27523 10.26C8.27523 9.695 8.73023 9.48 9.11523 9.48C9.43523 9.48 9.72023 9.585 9.88023 9.775V9.45C9.88023 9.205 9.67023 9.045 9.35023 9.045C9.09023 9.045 8.85023 9.14 8.64523 9.33L8.40523 8.905C8.70023 8.645 9.08023 8.525 9.46023 8.525C10.0102 8.525 10.5152 8.745 10.5152 9.44V11ZM9.37023 10.63C9.57523 10.63 9.77523 10.56 9.88023 10.42V10.12C9.77523 9.98 9.57523 9.91 9.37023 9.91C9.12023 9.91 8.91523 10.04 8.91523 10.275C8.91523 10.5 9.12023 10.63 9.37023 10.63ZM11.7801 11H11.1451V8.585H11.7801V8.915C11.9501 8.7 12.2501 8.525 12.5501 8.525V9.145C12.5051 9.135 12.4451 9.13 12.3751 9.13C12.1651 9.13 11.8851 9.25 11.7801 9.405V11ZM14.0818 11.06C13.3468 11.06 12.7918 10.565 12.7918 9.79C12.7918 9.09 13.3068 8.525 14.0418 8.525C14.7618 8.525 15.2518 9.065 15.2518 9.855V9.995H13.4568C13.4968 10.3 13.7418 10.555 14.1518 10.555C14.3568 10.555 14.6418 10.465 14.7968 10.315L15.0768 10.725C14.8368 10.945 14.4568 11.06 14.0818 11.06ZM14.6368 9.565C14.6218 9.335 14.4618 9.03 14.0418 9.03C13.6468 9.03 13.4768 9.325 13.4468 9.565H14.6368Z" fill="#05080A"/>
<path d="M48.6741 11H48.2221L46.8301 9.096V11H46.3621V8.332H46.8421L48.2061 10.184V8.332H48.6741V11ZM50.101 11.048C49.489 11.048 49.109 10.588 49.109 10.032C49.109 9.48 49.489 9.02 50.101 9.02C50.721 9.02 51.097 9.48 51.097 10.032C51.097 10.588 50.721 11.048 50.101 11.048ZM50.101 10.676C50.461 10.676 50.661 10.376 50.661 10.032C50.661 9.692 50.461 9.392 50.101 9.392C49.745 9.392 49.545 9.692 49.545 10.032C49.545 10.376 49.745 10.676 50.101 10.676ZM51.7185 11.044C51.5665 11.044 51.4385 10.916 51.4385 10.764C51.4385 10.612 51.5665 10.484 51.7185 10.484C51.8705 10.484 51.9985 10.612 51.9985 10.764C51.9985 10.916 51.8705 11.044 51.7185 11.044ZM54.3423 11.048C53.8663 11.048 53.5143 10.856 53.3343 10.616L53.5863 10.308C53.7583 10.508 54.0423 10.632 54.3263 10.632C54.6783 10.632 54.8823 10.472 54.8823 10.224C54.8823 9.96 54.6703 9.848 54.2903 9.848C54.1783 9.848 54.0223 9.848 53.9823 9.852V9.432C54.0303 9.436 54.1863 9.436 54.2903 9.436C54.6023 9.436 54.8383 9.328 54.8383 9.084C54.8383 8.836 54.5983 8.708 54.2983 8.708C54.0263 8.708 53.8023 8.812 53.6103 9.004L53.3703 8.712C53.5743 8.472 53.8983 8.292 54.3423 8.292C54.9183 8.292 55.3063 8.564 55.3063 9.012C55.3063 9.368 55.0023 9.576 54.7263 9.624C54.9863 9.648 55.3463 9.86 55.3463 10.272C55.3463 10.724 54.9583 11.048 54.3423 11.048ZM56.7672 11.048C56.0192 11.048 55.6992 10.34 55.6992 9.668C55.6992 8.996 56.0192 8.292 56.7672 8.292C57.5152 8.292 57.8352 8.996 57.8352 9.668C57.8352 10.34 57.5152 11.048 56.7672 11.048ZM56.7672 10.632C57.2032 10.632 57.3592 10.176 57.3592 9.668C57.3592 9.16 57.2032 8.708 56.7672 8.708C56.3312 8.708 56.1752 9.16 56.1752 9.668C56.1752 10.176 56.3312 10.632 56.7672 10.632Z" fill="white"/>
<defs>
<linearGradient id="paint0_linear_26835_29193" x1="61.05" y1="28.5099" x2="49.98" y2="35.7199" gradientUnits="userSpaceOnUse">
<stop stop-color="#002135" stop-opacity="0"/>
<stop offset="1" stop-color="#F99E48"/>
</linearGradient>
<linearGradient id="paint1_linear_26835_29193" x1="233.298" y1="489.447" x2="233.965" y2="491.556" gradientUnits="userSpaceOnUse">
<stop stop-color="#0068ED"/>
<stop offset="1" stop-color="#004BDC"/>
</linearGradient>
<linearGradient id="paint2_linear_26835_29193" x1="53.9925" y1="38" x2="53.9925" y2="7" gradientUnits="userSpaceOnUse">
<stop stop-color="#0091DE"/>
<stop offset="1" stop-color="#0073F9" stop-opacity="0"/>
</linearGradient>
<linearGradient id="paint3_linear_26835_29193" x1="14.86" y1="47.46" x2="14.86" y2="43.82" gradientUnits="userSpaceOnUse">
<stop stop-color="#0073F9" stop-opacity="0"/>
<stop offset="1" stop-color="#0026A4"/>
</linearGradient>
<linearGradient id="paint4_linear_26835_29193" x1="30.25" y1="60.4945" x2="30.25" y2="49.9945" gradientUnits="userSpaceOnUse">
<stop stop-color="#0073F9" stop-opacity="0"/>
<stop offset="1" stop-color="#0026A4"/>
</linearGradient>
<linearGradient id="paint5_linear_26835_29193" x1="53.78" y1="59.6599" x2="53.78" y2="52.0899" gradientUnits="userSpaceOnUse">
<stop stop-color="#0073F9" stop-opacity="0"/>
<stop offset="1" stop-color="#0026A4"/>
</linearGradient>
<clipPath id="clip0_26835_29193">
<rect width="63" height="88" fill="white"/>
</clipPath>
</defs>
</svg>
