<svg width="63" height="88" viewBox="0 0 63 88" fill="none" xmlns="http://www.w3.org/2000/svg">
<rect width="63" height="88" rx="4" fill="#1CE61C"/>
<path d="M36.7008 13.5133L44.7992 3.48665C45.5586 2.54645 46.7024 2 47.911 2H58C59.6569 2 61 3.34314 61 5V83C61 84.6569 59.6569 86 58 86H5C3.34315 86 2 84.6569 2 83V18C2 16.3431 3.34315 15 5 15H33.589C34.7976 15 35.9414 14.4536 36.7008 13.5133Z" fill="#213743"/>
<mask id="mask0_26835_29194" style="mask-type:luminance" maskUnits="userSpaceOnUse" x="0" y="0" width="63" height="88">
<path d="M59 0H4C1.79 0 0 1.79 0 4V84C0 86.21 1.79 88 4 88H59C61.21 88 63 86.21 63 84V4C63 1.79 61.21 0 59 0ZM61 82.81C61 84.57 59.57 86 57.81 86H5.19C3.43 86 2 84.57 2 82.81V18.19C2 16.43 3.43 15 5.19 15H33.59C34.8 15 35.94 14.45 36.7 13.51L44.8 3.48C45.56 2.54 46.7 1.99 47.91 1.99H57.81C59.57 1.99 61 3.42 61 5.18V82.8V82.81Z" fill="white"/>
</mask>
<g mask="url(#mask0_26835_29194)">
<path d="M68.37 47.3199V26.6399L4.46002 90.5499H25.13L68.37 47.3199Z" fill="white"/>
<path d="M64.66 -2.29004H55.22L-2.91998 55.84V66.18L65.46 -2.20004C65.2 -2.26004 64.93 -2.29004 64.66 -2.29004Z" fill="white"/>
<path d="M68.37 69.23V61.55L39.37 90.55H47.05L68.37 69.23Z" fill="white"/>
</g>
<rect x="5" y="18" width="53" height="40" rx="1" fill="#2F4553"/>
<g clip-path="url(#clip0_26835_29194)">
<g clip-path="url(#clip1_26835_29194)">
<path d="M57 18H6C5.44772 18 5 18.4477 5 19V57C5 57.5523 5.44772 58 6 58H57C57.5523 58 58 57.5523 58 57V19C58 18.4477 57.5523 18 57 18Z" fill="#E9113C"/>
<path d="M43.1801 30.48C43.1801 30.48 45.8401 29.19 46.0501 27.36C46.2201 25.88 46.5301 22.98 48.0601 22.98C49.5901 22.98 49.7501 24.17 49.7501 24.17C49.7501 24.17 49.3001 23.75 48.9001 23.88C48.5001 24.01 48.4801 24.7 48.6101 25.1C48.7401 25.5 49.2701 26.85 48.8501 27.86C48.4301 28.87 47.9201 29.4 47.9201 29.4C47.9201 29.4 48.0001 30.65 48.4001 30.89L47.9001 31.18C47.9001 31.18 47.3201 30.22 47.2601 29.53V31.18H46.7001L46.4701 29.53L45.8501 29.19C45.8501 29.19 44.8201 30.3 43.1901 31.18V30.48H43.1801Z" fill="#E9627D"/>
<path d="M42.24 27.6799C42.24 27.6799 42.24 27.6299 42.24 27.5999C42.24 26.9299 41.85 26.3399 41.36 25.8499C40.87 25.3099 40.37 24.8499 40.37 24.1599H38.6C38.6 24.8399 38.09 25.3099 37.61 25.8499C37.12 26.3299 36.73 26.9299 36.73 27.5999C36.73 27.6299 36.73 27.6499 36.73 27.6799C36.73 27.7099 36.73 27.7299 36.73 27.7599C36.73 28.4299 37.12 29.0199 37.61 29.5099C38.1 30.0499 38.6 30.5099 38.6 31.1999H40.37C40.37 30.5199 40.88 30.0499 41.36 29.5099C41.85 29.0299 42.24 28.4299 42.24 27.7599C42.24 27.7299 42.24 27.7099 42.24 27.6799Z" fill="#E9627D"/>
<path d="M40.94 23.6399H38.03V24.1599H40.94V23.6399Z" fill="#E9627D"/>
<path d="M40.7 30.8101H38.28V31.2001H40.7V30.8101Z" fill="#E9627D"/>
<path d="M58 33.78H5V34.94H58V33.78Z" fill="#E9627D"/>
<path d="M58 19.99H5V21.15H58V19.99Z" fill="#E9627D"/>
<path d="M21.54 23.91C21.41 23.91 21.29 23.86 21.18 23.77L18.67 21.67C18.5 21.53 18.42 21.3 18.47 21.08C18.52 20.86 18.68 20.69 18.9 20.63L21.09 20.05L19.19 18.28C18.95 18.05 18.94 17.68 19.16 17.43C19.39 17.19 19.77 17.17 20.01 17.4L22.7 19.91C22.86 20.06 22.93 20.28 22.87 20.49C22.82 20.7 22.65 20.87 22.44 20.92L20.32 21.49L21.95 22.85C22.2 23.06 22.24 23.44 22.02 23.69C21.9 23.84 21.71 23.91 21.54 23.9V23.91Z" fill="white"/>
<path d="M19.3101 18.75C19.9341 18.75 20.4401 18.2441 20.4401 17.62C20.4401 16.9959 19.9341 16.49 19.3101 16.49C18.686 16.49 18.1801 16.9959 18.1801 17.62C18.1801 18.2441 18.686 18.75 19.3101 18.75Z" fill="white"/>
<path d="M39.41 33.3999C39.41 33.3999 37.6799 20.0199 35.7999 18.3999C33.9199 16.7799 30.2 24.6899 30.2 24.6899C30.2 24.6899 34.76 33.2799 39.41 33.3999Z" fill="white"/>
<path d="M35.25 24.9899C35.25 24.9899 37.72 25.6599 38.29 26.4199C38.29 26.4199 38.14 25.4399 38.01 24.9899C38.01 24.9899 35.62 24.4199 35.25 24.9899Z" fill="#A3BECC"/>
<path d="M7.48 38.6C7.48 38.6 4.15 25.83 5.35 22.93C6.55 20.02 13.93 27.13 13.93 27.13C13.93 27.13 11.29 38.57 7.48 38.6Z" fill="white"/>
<path d="M44.1 58L41.42 37.74C39.96 28.02 30.9 21.32 21.18 22.77C11.46 24.23 5.69998 32.84 7.15998 42.56L7.81998 57.99" fill="white"/>
<path d="M30.07 56.1499L30.02 57.9999H30.87L31.9 56.6799L30.07 56.1499Z" fill="#A3BECC"/>
<path d="M34.6 43.5401C34.6 45.0301 31.89 46.6401 28.66 46.6401C25.43 46.6401 22.89 45.0301 22.89 43.5401C22.89 42.0501 25.51 40.8501 28.74 40.8501C31.97 40.8501 34.59 42.0601 34.59 43.5401H34.6Z" fill="#071D2A"/>
<path d="M32.48 41.51L32.53 42.7C32.54 43.07 32.3 43.39 31.95 43.49C31.89 43.51 31.84 43.52 31.79 43.53C31.75 43.28 31.53 43.09 31.26 43.1C30.98 43.11 30.75 43.35 30.77 43.64C30.77 43.68 30.78 43.73 30.79 43.77C28.89 44.15 27.02 44.15 25.18 43.77C24.82 43.7 24.56 43.39 24.55 43.03L24.5 41.83C27.23 42.51 29.89 42.42 32.49 41.52L32.48 41.51Z" fill="white"/>
<path d="M28.21 37.73C22.97 37.73 18.72 40.28 18.72 43.43C18.72 46.58 22.97 49.13 28.21 49.13C33.45 49.13 37.7 46.58 37.7 43.43C37.7 40.28 33.45 37.73 28.21 37.73ZM29.46 45.83C24.25 46.17 23.78 44.32 23.84 42.87C23.89 41.72 25.59 43.22 27.35 43.26C27.35 43.26 31.1 43.38 32.19 42.16C33.66 40.51 34 45.53 29.46 45.83Z" fill="white"/>
<path d="M21.2 28.4601C20.44 29.3401 19.91 30.3301 19.62 31.3601C19.29 29.6901 19.75 27.8201 21.03 26.3601C23.12 23.9601 26.6 23.5701 28.81 25.4901C29.2 25.8301 29.51 26.2201 29.77 26.6401C27.08 25.1601 23.48 25.8501 21.21 28.4601H21.2Z" fill="#A3BECC"/>
<path d="M27.0399 39.5401C30.6132 39.5401 33.5099 36.6434 33.5099 33.0701C33.5099 29.4968 30.6132 26.6001 27.0399 26.6001C23.4667 26.6001 20.5699 29.4968 20.5699 33.0701C20.5699 36.6434 23.4667 39.5401 27.0399 39.5401Z" fill="#A3BECC"/>
<path d="M26.64 38.46C29.8709 38.46 32.49 35.8409 32.49 32.61C32.49 29.3791 29.8709 26.76 26.64 26.76C23.4092 26.76 20.79 29.3791 20.79 32.61C20.79 35.8409 23.4092 38.46 26.64 38.46Z" fill="#071D2A"/>
<path d="M27.7001 33.77C28.8157 33.77 29.7201 32.8656 29.7201 31.75C29.7201 30.6344 28.8157 29.73 27.7001 29.73C26.5844 29.73 25.6801 30.6344 25.6801 31.75C25.6801 32.8656 26.5844 33.77 27.7001 33.77Z" fill="#FFC200"/>
<path d="M24.04 36.3599C24.4321 36.3599 24.75 36.0421 24.75 35.6499C24.75 35.2578 24.4321 34.9399 24.04 34.9399C23.6478 34.9399 23.33 35.2578 23.33 35.6499C23.33 36.0421 23.6478 36.3599 24.04 36.3599Z" fill="#FFC200"/>
<path d="M10 34.1301C7.14001 30.9301 7.22001 25.8701 7.68001 22.5401C6.20001 21.7801 4.93001 21.5301 4.51001 22.5401C3.31001 25.4501 6.39001 40.5301 6.39001 40.5301C7.68001 40.5301 8.96001 38.9901 10.09 36.9601C10.02 35.2201 10 34.1301 10 34.1301Z" fill="#A3BECC"/>
<path d="M8.38998 31.5C6.45998 34.86 5.59998 38.87 6.21998 43.01L7.82998 57.99H12.63C10.31 50.24 9.99998 34.12 9.99998 34.12C9.29998 33.34 8.77998 32.44 8.38998 31.49V31.5Z" fill="#A3BECC"/>
<path d="M7.29002 52.9701C7.29002 52.9701 8.42002 51.3801 10.07 50.6101L7.02002 50.9701L7.29002 52.9701Z" fill="#071D2A"/>
<path d="M7.62 32.1301C7.62 32.1301 8.7 28.4701 10.72 26.6001C10.72 26.6001 8.65 31.0801 8.6 33.0701L7.62 32.1301Z" fill="#A3BECC"/>
<path d="M11.39 25.99C11.39 25.99 12.6 24.6 13.63 24.38L13.03 23.72C13.03 23.72 12.19 23.72 11.81 24.08C11.81 24.08 12 23.48 12.71 23.31L12.04 22.71C12.04 22.71 10.39 23.66 9.75 24.57L11.4 26L11.39 25.99Z" fill="white"/>
<path d="M4.67003 25.3501C4.67003 25.3501 3.35003 26.2401 2.66003 27.8101C1.97003 29.3801 3.58003 29.9001 5.09003 29.8301L4.68003 25.3501H4.67003Z" fill="#A3BECC"/>
<path d="M4.60001 29.7001L4.48001 28.3C4.48001 28.3 3.69001 28.61 3.56001 29.17C3.43001 29.73 4.60001 29.71 4.60001 29.71V29.7001Z" fill="#071D2A"/>
<path d="M9.99 34.1299C9.99 34.1299 13.55 26.6699 22.18 24.3799C22.18 24.3799 11.25 28.8499 9.5 39.1399L9.99 34.1199V34.1299Z" fill="#A3BECC"/>
<path d="M9.51001 42.1801C9.51001 42.1801 11.69 36.0501 15.85 32.6101C15.85 32.6101 11.03 40.2101 10.26 44.0601L9.51001 42.1801Z" fill="#A3BECC"/>
<path d="M12.3 37.9899C12.3 37.9899 15.28 37.3399 18.14 37.7499L11.84 39.0599L12.3 37.9899Z" fill="#A3BECC"/>
<path d="M34.36 36.9399C34.36 36.9399 39.37 37.0799 41.43 37.7299C41.43 37.7299 41.39 37.1399 41.29 36.8999C41.29 36.8999 38.82 36.6699 34.37 36.9399H34.36Z" fill="#A3BECC"/>
<path d="M37.01 34.45C37.01 34.45 41.5 34.06 43.42 34.99L43.68 35.74L42.98 35.84L43.68 36.33L43.89 37.27C43.89 37.27 41.97 36.94 41.29 36.9L39.17 36.52L37.02 34.44L37.01 34.45Z" fill="white"/>
<path d="M8.87 47.5701C8.87 47.5701 5.41 48.6301 5.33 51.4201C5.33 51.4201 4.32 52.1401 3.81 52.7101V53.6401C3.81 53.6401 7.79 50.8301 10.06 50.6101L8.87 47.5801V47.5701Z" fill="#A3BECC"/>
<path d="M10.72 50.6099C10.72 50.6099 17.91 48.7899 25.52 49.1399C25.52 49.1399 18 49.2799 10.72 51.7599V50.6099Z" fill="#A3BECC"/>
<path d="M10.64 47.6299C10.64 47.6299 13.14 47.0099 14.91 46.8399C14.91 46.8399 12.46 46.6899 10.25 47.1399L10.64 47.6399V47.6299Z" fill="#A3BECC"/>
<path d="M36.09 32.03C36.09 32.03 38.03 31.56 39.49 31.91C39.49 31.91 39.32 31.53 39.11 31.24C39.11 31.24 37.51 31.37 36.09 32.03Z" fill="#A3BECC"/>
<path d="M18.41 49.5801C18.41 49.5801 16.19 50.5401 13.92 53.4701C13.92 53.4701 16.44 50.8501 19.44 49.5801H18.41Z" fill="#A3BECC"/>
<path d="M11.84 54.69C11.84 54.69 12.74 56.23 14.99 56.75C14.99 56.75 17.52 53.89 19.04 53.27C19.04 53.27 17.04 55.74 17.01 58H12.64L11.23 57.46L11.85 54.69H11.84Z" fill="#A3BECC"/>
<path d="M51.21 49.0401L46.37 47.9901L42.66 44.3201C42.66 44.3201 34.36 46.7701 31.34 51.8001C28.32 56.8301 33.0801 61.4101 33.0801 61.4101C33.0801 61.4101 37.71 66.1201 42.71 63.0501C47.71 59.9801 51.2 49.0301 51.2 49.0301L51.21 49.0401Z" fill="#FF7F00"/>
<path d="M31.99 50.35C31.99 50.35 31.1 51.79 34.9 54.54C40.46 58.56 46.42 56.89 48.18 56.26C48.5 56.14 48.76 55.88 48.87 55.56L49.97 52.35L36.48 47C36.48 47 33.64 48.09 31.98 50.36L31.99 50.35Z" fill="#FFEBB8"/>
<path d="M50.15 52.52C50.03 52.83 49.79 53.08 49.47 53.2C48.02 53.73 43.56 54.71 37.26 50.15C36.41 49.54 35.81 48.57 35.79 47.68C35.78 47.21 35.93 46.76 36.41 46.48C37.79 45.68 43.26 43.72 43.26 43.72L51.97 47.6L50.15 52.52Z" fill="#FFC200"/>
<path d="M31.61 56.14C31.61 56.14 41.61 56.56 40.49 52.76L32.75 53.23L31.61 56.13V56.14Z" fill="#FF7F00"/>
<path d="M43.49 43.8601C43.49 43.8601 38.25 45.0501 39.42 46.8001C40.59 48.5501 48.18 49.0901 48.18 49.0901L43.49 43.8601Z" fill="#FF5500"/>
<path d="M53.7 38.78L50.09 41.57L51.59 43.05C51.59 43.05 54.35 41.12 53.7 38.78Z" fill="#FFC200"/>
<path d="M54.03 43.42L48.8 40.21C48 39.72 47.03 39.61 46.14 39.91L44.35 40.52L42.89 39.72C42.62 39.57 42.28 39.65 42.1 39.89C41.57 40.62 41.33 41.93 41.49 42.71C41.71 43.77 44.81 47.92 46.94 49.19C49.07 50.46 52.7 49.21 53.97 47.92C55.24 46.63 54.03 43.42 54.03 43.42Z" fill="#FFC200"/>
<path d="M51.5421 48.4445C52.6559 48.0331 53.4519 47.4098 53.3199 47.0523C53.1878 46.6949 52.1778 46.7385 51.064 47.1499C49.9501 47.5613 49.1541 48.1846 49.2862 48.542C49.4182 48.8995 50.4282 48.8558 51.5421 48.4445Z" fill="white"/>
<path d="M57.35 41.1001L51.47 42.4101L51.99 44.4601L57.35 41.1001Z" fill="#FFC200"/>
<path d="M57.3399 41.1001L52.8499 43.1201C52.4399 43.3001 52.3799 43.8501 52.7399 44.1201L53.9499 45.0201C54.1699 45.1801 54.4599 45.2301 54.7199 45.1301C55.6799 44.7601 57.8599 43.6201 57.3499 41.1101L57.3399 41.1001Z" fill="#FF7F00"/>
<path d="M48.4099 43.2701L47.1199 41.5701C47.1199 41.5701 46.6899 41.5701 46.2699 42.0001C45.8499 42.4301 48.4099 43.2701 48.4099 43.2701Z" fill="#FF7F00"/>
<path d="M18.66 58C18.66 58 29.21 43.93 37.45 47.6C45.7 51.27 39.17 55.99 31.49 54.17L30.03 58H18.66Z" fill="white"/>
<path d="M27.89 49.1799C27.89 49.1799 23.03 52.6499 20.13 57.9999H18.47C18.47 57.9999 22.1 52.1499 27.88 49.1799H27.89Z" fill="#A3BECC"/>
<path d="M31.48 54.16C31.48 54.16 30.09 53.8 29.38 53C29.38 53 29.64 54.61 31.09 55.16L31.48 54.15V54.16Z" fill="#A3BECC"/>
<path d="M39.24 48.54C39.24 48.54 39.76 48.8 40 49.1C40 49.1 38.38 49.2 37.38 49.52C37.38 49.52 38.46 48.34 39.24 48.53V48.54Z" fill="#A3BECC"/>
<path d="M32.36 49.7999C32.36 49.7999 36.2 46.1299 40.15 46.2199L40.41 46.9899L39.55 47.3399L40.5 47.5299L40.79 48.1499C39.47 48.4599 38.31 48.8999 37.37 49.5399C37 49.5599 32.35 49.7999 32.35 49.7999H32.36Z" fill="white"/>
<path d="M48 52.1499C48 52.1499 45.22 55.4899 45.88 57.7399L47.72 56.8499L48.01 52.1499H48Z" fill="#FF7F00"/>
<path d="M52.1201 54.7899C51.4801 57.0599 49.7801 58.5599 48.3201 58.1399C46.8601 57.7199 46.8901 55.7499 47.5301 53.4799C48.1701 51.2099 49.1901 49.5199 50.6501 49.9299C52.1101 50.3399 52.7601 52.5199 52.1201 54.7799V54.7899Z" fill="white"/>
<path d="M50.55 33.6899C49.96 34.5999 49.49 35.0699 48.6 35.6399C49.51 36.2299 49.98 36.6999 50.55 37.5899C51.14 36.6799 51.61 36.2099 52.5 35.6399C51.59 35.0499 51.12 34.5799 50.55 33.6899Z" fill="white"/>
<path d="M57.49 28.1201C57.49 28.1201 57.49 28.1001 57.49 28.0901C57.49 28.0401 57.49 27.9901 57.49 27.9401C57.49 27.9401 57.49 27.9001 57.49 27.8801C57.49 27.8401 57.49 27.7901 57.49 27.7501C57.49 27.7301 57.49 27.7001 57.49 27.6801C57.49 27.6801 57.49 27.6601 57.49 27.6501C57.49 27.5601 57.47 27.4601 57.45 27.3801C57.11 25.3401 55.49 25.4101 55.43 25.4201C55.36 25.4301 54.93 25.6401 55.35 25.9901C55.71 26.2901 56.6 26.2801 56.89 27.4501C56.89 27.4701 56.9 27.4901 56.9 27.5101C56.92 27.5801 56.93 27.6601 56.94 27.7401C56.94 27.7601 56.94 27.7801 56.94 27.8001C56.95 27.8901 56.96 27.9801 56.97 28.0801C56.97 28.2001 56.97 28.3201 56.97 28.4401C56.97 28.4801 56.97 28.5101 56.97 28.5401C56.97 28.6201 56.97 28.6901 56.97 28.7601C56.97 28.8001 56.97 28.8301 56.97 28.8701C56.97 28.9401 56.96 29.0001 56.95 29.0601C56.95 29.0901 56.95 29.1301 56.94 29.1601C56.94 29.2201 56.92 29.2801 56.91 29.3401C56.86 29.6001 56.79 29.8201 56.72 29.9901C56.71 30.0201 56.7 30.0501 56.68 30.0801C56.68 30.1001 56.66 30.1201 56.65 30.1501C56.64 30.1801 56.63 30.2001 56.61 30.2301C56.61 30.2501 56.59 30.2701 56.58 30.2801C56.57 30.3001 56.56 30.3201 56.54 30.3401C56.54 30.3601 56.52 30.3701 56.51 30.3801C56.5 30.4001 56.49 30.4201 56.48 30.4301C56.48 30.4401 56.46 30.4501 56.46 30.4601C56.45 30.4801 56.44 30.4901 56.43 30.5001C56.43 30.5001 56.42 30.5201 56.41 30.5201C56.41 30.5301 56.39 30.5401 56.39 30.5501C56.39 30.5501 56.39 30.5601 56.38 30.5701C56.38 30.5701 56.37 30.5801 56.36 30.5901C56.36 30.5901 56.69 29.1301 56.43 28.2801C56.23 27.6401 55.83 27.0201 55.02 26.5401C54.88 26.4601 54.74 26.3901 54.58 26.3101C54.5 26.2701 54.42 26.2401 54.33 26.2101C54.24 26.1801 54.16 26.1501 54.06 26.1101C54.06 26.1101 54.05 26.1101 54.04 26.1101C54.04 26.1101 54.04 26.1101 54.03 26.1101C54.03 26.1101 54.01 26.1101 54.01 26.1001C53.99 26.0901 53.97 26.0701 53.95 26.0401C53.95 26.0401 53.95 26.0401 53.94 26.0301C53.94 26.0201 53.92 26.0001 53.91 25.9901C53.91 25.9901 53.9 25.9701 53.89 25.9601C53.89 25.9501 53.87 25.9301 53.87 25.9101C53.87 25.8901 53.85 25.8701 53.84 25.8501C53.84 25.8501 53.84 25.8301 53.84 25.8201C53.84 25.7901 53.82 25.7601 53.82 25.7201C53.82 25.7201 53.82 25.7001 53.82 25.6901C53.82 25.6801 53.82 25.6701 53.82 25.6501C53.82 25.6401 53.82 25.6301 53.82 25.6201C53.82 25.6001 53.82 25.5801 53.82 25.5501C53.82 25.5301 53.82 25.5101 53.82 25.4901C53.82 25.4601 53.82 25.4201 53.82 25.3801C53.82 25.3801 53.82 25.3601 53.82 25.3501C53.82 25.2801 53.82 25.2001 53.82 25.1201C53.82 25.1001 53.82 25.0901 53.82 25.0701C53.82 25.0301 53.82 24.9901 53.83 24.9501C53.83 24.9101 53.83 24.8701 53.84 24.8301C53.87 24.6001 53.88 24.3701 53.87 24.1601C53.87 24.0201 53.86 23.8901 53.84 23.7601C53.82 23.6301 53.81 23.5201 53.78 23.4101C53.76 23.3001 53.73 23.2001 53.71 23.1101C53.62 22.8001 53.54 22.6101 53.54 22.6101C53.54 22.6101 53.32 22.6401 53.2 23.3501C53.2 23.3501 53.12 23.3201 53 23.3001C52.91 22.7001 52.62 22.6201 52.62 22.6201C52.62 22.6201 52.53 22.7201 52.51 23.2701C52.4 23.2801 52.31 23.3201 52.24 23.3801C51.96 23.6401 51.83 23.5701 51.83 23.5701C51.83 23.5701 51.69 23.7901 51.83 24.0201C51.97 24.2501 51.91 24.5901 52.41 24.7101C52.41 24.7101 52.41 24.7801 52.39 24.8901C52.39 24.9101 52.39 24.9401 52.39 24.9701C52.39 24.9701 52.39 24.9801 52.39 24.9901C52.39 25.0201 52.39 25.0401 52.39 25.0701C52.39 25.0701 52.39 25.0801 52.39 25.0901C52.38 25.2701 52.36 25.5001 52.35 25.7601C52.33 26.5101 52.37 27.4901 52.68 28.0901C52.84 29.3401 52.73 30.7801 52.73 30.7801C52.73 30.7801 52.55 30.7601 52.5 30.9101C52.45 31.0601 52.61 31.2001 52.61 31.2001H52.97C52.97 31.2001 53.15 31.1801 53.14 30.8701C53.14 30.7101 53.11 30.4101 53.14 30.1301C53.22 29.3801 53.33 29.1101 53.45 28.8101C53.76 28.9001 54.01 28.8501 54.24 29.2801C53.74 29.7501 53.81 30.8501 53.81 30.8501C53.81 30.8501 53.27 30.7901 53.21 30.9101C53.15 31.0301 53.26 31.2001 53.26 31.2001H54.27H55.97H56.43C56.44 31.2001 56.47 31.1901 56.51 31.1701C56.52 31.1701 56.54 31.1501 56.56 31.1401C56.58 31.1301 56.6 31.1201 56.62 31.1101C56.64 31.1001 56.66 31.0801 56.67 31.0701C56.67 31.0701 56.67 31.0701 56.68 31.0701C56.7 31.0501 56.72 31.0301 56.75 31.0101C56.77 30.9901 56.79 30.9701 56.81 30.9501C56.81 30.9501 56.81 30.9501 56.82 30.9401C56.84 30.9101 56.87 30.8901 56.89 30.8601C56.91 30.8301 56.94 30.8001 56.96 30.7701C56.96 30.7701 56.97 30.7601 56.98 30.7501C57.01 30.7101 57.03 30.6801 57.06 30.6401C57.23 30.3701 57.39 29.9801 57.48 29.4301C57.49 29.3501 57.51 29.2601 57.52 29.1701C57.52 29.1601 57.52 29.1401 57.52 29.1301C57.53 29.0401 57.54 28.9401 57.55 28.8401C57.55 28.7501 57.56 28.6501 57.56 28.5501C57.56 28.5201 57.56 28.5001 57.56 28.4701C57.56 28.4001 57.56 28.3301 57.56 28.2601C57.56 28.2601 57.56 28.2001 57.56 28.1601L57.49 28.1201Z" fill="#E9627D"/>
</g>
</g>
<path fill-rule="evenodd" clip-rule="evenodd" d="M6.49771 79C6.98969 79 7.48602 79.213 7.49037 79.6913C7.49037 80.1043 7.24656 80.2696 6.99839 80.2696C6.75023 80.2696 6.73281 80.1435 6.73281 80.1435C6.73281 80.1435 7.02452 79.9261 7.02452 79.7174C7.02452 79.6087 6.94179 79.313 6.489 79.3174C5.8577 79.3174 5.5181 79.6174 5.5181 80.1522C5.5181 80.7652 7.35105 80.9739 7.3554 81.7652C7.3554 82.613 6.47594 82.9957 5.69225 83C5.283 83 5.01306 82.7609 5.00871 82.3783C5.00871 81.9261 5.22204 81.4652 5.75756 81.4652C5.88382 81.4565 5.98831 81.5522 5.99702 81.6783C5.99702 81.6783 5.99702 81.6826 5.99702 81.687C5.99702 81.687 5.45715 81.8391 5.4615 82.3783C5.4615 82.4783 5.56599 82.6609 5.81851 82.6565C6.07103 82.6522 6.82424 82.4739 6.81989 81.8087C6.81989 81.1913 5.00435 81.1087 5 80.1478C5 79.0652 6.08845 79.0087 6.49771 79.0087V79ZM10.747 79.6C10.8123 79.5696 11.2129 79.4913 11.1955 79.813C11.1824 80.1348 10.9386 80.6913 10.9037 80.9348C11.2303 80.7696 11.6918 80.2087 11.6918 80.2087C11.6918 80.2087 12.0183 80.2522 11.9182 80.4522C11.818 80.6522 11.1519 81.1435 11.1519 81.1435C11.1519 81.1435 11.3043 82.5696 12.1707 82.5696C12.6453 82.5696 12.8499 82.3609 12.937 82.287C12.9587 82.2696 12.9762 82.2652 12.9849 82.2783C13.0197 82.387 12.9936 82.5043 12.9152 82.5913C12.8194 82.6957 12.5974 82.8217 12.1533 82.8261C11.3653 82.8261 10.9255 82.1957 10.8123 81.2609C10.7252 81.5348 10.7339 81.9826 10.7209 82.2C10.6948 82.2435 10.2507 82.4174 10.2158 82.1174C10.2158 82.0913 10.2158 82.0696 10.2158 82.0435C10.1331 82.1609 10.0199 82.2826 9.91108 82.2826C9.71951 82.2826 9.63679 82.1217 9.60196 82.0391C9.57584 82.0696 9.3625 82.287 9.08821 82.287C8.92277 82.2913 8.77474 82.1957 8.70943 82.0435C8.57011 82.1435 8.32195 82.2913 8.03895 82.2913C7.73418 82.2913 7.66017 82.1087 7.66017 81.9565C7.66017 81.713 7.84303 80.987 7.84303 80.987C7.84303 80.987 7.48602 81.1304 7.36411 81.1348C7.19431 81.1348 7.11159 80.8217 7.11159 80.813C7.11159 80.8087 7.11159 80.8 7.1203 80.8C7.22044 80.7609 7.94317 80.513 7.94317 80.513C7.94317 80.513 8.07813 79.9826 8.09555 79.913C8.11296 79.8435 8.2131 79.7 8.33065 79.6565C8.41773 79.6217 8.50916 79.6 8.60059 79.5913C8.63107 79.5913 8.65284 79.6 8.65284 79.6174C8.65284 79.6348 8.47433 80.4087 8.47433 80.4087C8.47433 80.4087 8.84876 80.3217 8.98808 80.3217C9.09692 80.3217 9.15352 80.387 9.09257 80.4696C9.03162 80.5522 8.96196 80.6478 8.92712 80.6913C8.88794 80.7348 8.86182 80.7435 8.77039 80.7609C8.64413 80.787 8.36113 80.8565 8.36113 80.8565C8.36113 80.8565 8.13473 81.6783 8.13909 81.8174C8.13909 81.8957 8.16521 81.987 8.26099 81.987C8.35678 81.987 8.53964 81.8739 8.67025 81.7913C8.69202 81.1522 9.18835 80.7261 9.57584 80.7261C9.7021 80.7261 9.65421 80.8478 9.79788 80.8478H9.88931C9.94591 80.8478 10.0069 80.8522 10.0069 80.9957C10.0069 81.1957 9.89367 81.5261 9.89367 81.7348C9.89367 81.8826 9.91544 81.987 9.97204 81.987C10.0678 81.987 10.1767 81.8478 10.255 81.7261C10.3813 81.0304 10.734 79.7609 10.734 79.6174L10.747 79.6ZM12.5016 80.7C12.7672 80.6783 12.9326 80.8217 12.9631 80.9C12.9936 80.9783 12.9892 81.1609 12.9152 81.2913C12.6845 81.7044 12.1097 81.6304 12.1097 81.6304C12.1097 81.6304 12.0444 81.9565 12.3405 81.9565C12.593 81.9565 12.7062 81.8304 12.8151 81.7261C12.8586 81.7261 12.9936 81.8652 12.9326 81.9609C12.8847 82.0348 12.6191 82.2565 12.2795 82.2609C11.7397 82.2609 11.6047 81.8 11.6744 81.4696C11.7658 81.0609 12.1751 80.7217 12.5016 80.6957V80.7ZM9.6455 80.987C9.32332 80.987 8.82699 81.9696 9.20577 81.9652C9.61938 81.9652 9.6455 81.1826 9.6455 81.0043V80.987ZM12.6409 80.8913C12.4232 80.9 12.1751 81.3174 12.1533 81.5C12.4798 81.513 12.654 81.1957 12.6757 81.0696C12.6888 80.9739 12.6932 80.887 12.6409 80.887V80.8913Z" fill="#557086"/>
<path d="M51.1444 79.3778L51.6412 80.278L52.6518 80.4733C52.7792 80.4988 52.8302 80.6559 52.741 80.7494L52.0361 81.5009L52.1635 82.5243C52.1805 82.6559 52.0446 82.7494 51.93 82.6942L51 82.2568L50.0701 82.6942C49.9512 82.7494 49.8196 82.6517 49.8366 82.5243L49.9639 81.5009L49.2591 80.7494C49.1699 80.6559 49.2208 80.4988 49.3482 80.4733L50.3588 80.278L50.8557 79.3778C50.9194 79.2632 51.085 79.2632 51.1444 79.3778Z" fill="#FFC200"/>
<path d="M51 79.2929C51.0552 79.2929 51.1147 79.3226 51.1444 79.3778L51.6412 80.278L52.6518 80.4733C52.7792 80.4988 52.8302 80.6559 52.741 80.7494L52.0361 81.5009L52.1635 82.5243C52.1763 82.6262 52.0955 82.7111 51.9979 82.7111C51.9766 82.7111 51.9512 82.7069 51.9257 82.6942L50.9957 82.2568L50.0658 82.6942C50.0403 82.7069 50.0191 82.7111 49.9936 82.7111C49.9002 82.7111 49.8153 82.6262 49.828 82.5243L49.9554 81.5009L49.2505 80.7494C49.1613 80.6559 49.2123 80.4988 49.3397 80.4733L50.3503 80.278L50.8471 79.3778C50.8768 79.3226 50.9363 79.2929 50.9915 79.2929M51 79.0806C50.8641 79.0806 50.7367 79.157 50.6688 79.2759L50.2187 80.0912L49.3057 80.2653C49.1698 80.2908 49.0594 80.3884 49.017 80.5201C48.9745 80.6517 49.0085 80.7961 49.1019 80.8937L49.7388 81.5731L49.6242 82.4946C49.6115 82.6007 49.6454 82.7111 49.7134 82.7918C49.7856 82.8725 49.8875 82.9192 49.9979 82.9192C50.0531 82.9192 50.1083 82.9065 50.1592 82.881L51 82.4861L51.8408 82.881C51.8917 82.9065 51.9469 82.9192 52.0021 82.9192C52.1125 82.9192 52.2144 82.8725 52.2866 82.7918C52.3588 82.7111 52.3928 82.6007 52.3758 82.4946L52.2611 81.5731L52.8981 80.8937C52.9915 80.7918 53.0255 80.6474 52.983 80.5201C52.9405 80.3884 52.8301 80.2908 52.6943 80.2653L51.7813 80.0912L51.3312 79.2759C51.2633 79.157 51.1359 79.0806 51 79.0806Z" fill="#213743"/>
<path d="M51 79.8152V80.9744C51 81.0678 51.0892 81.1315 51.1784 81.106L52.2187 80.7706C52.2739 80.7536 52.2697 80.6729 52.2102 80.6602L51.5563 80.5413C51.4969 80.5286 51.4417 80.4903 51.4119 80.4351L51.085 79.7939C51.0637 79.7515 50.9958 79.7642 50.9958 79.8152H51Z" fill="#FFEBB8"/>
<path d="M51 81.4924V82.0699C51 82.1039 51.017 82.1294 51.0467 82.1464L51.7983 82.5073C51.8365 82.5243 51.8705 82.4818 51.845 82.4479L51.0934 81.4627C51.0637 81.4245 51 81.4457 51 81.4924Z" fill="#FF7F00"/>
<path d="M56.1444 79.3778L56.6412 80.278L57.6518 80.4733C57.7792 80.4988 57.8302 80.6559 57.741 80.7494L57.0361 81.5009L57.1635 82.5243C57.1805 82.6559 57.0446 82.7494 56.93 82.6942L56 82.2568L55.0701 82.6942C54.9512 82.7494 54.8196 82.6517 54.8366 82.5243L54.9639 81.5009L54.2591 80.7494C54.1699 80.6559 54.2208 80.4988 54.3482 80.4733L55.3588 80.278L55.8557 79.3778C55.9194 79.2632 56.085 79.2632 56.1444 79.3778Z" fill="#FFC200"/>
<path d="M56 79.2929C56.0552 79.2929 56.1147 79.3226 56.1444 79.3778L56.6412 80.278L57.6518 80.4733C57.7792 80.4988 57.8302 80.6559 57.741 80.7494L57.0361 81.5009L57.1635 82.5243C57.1763 82.6262 57.0955 82.7111 56.9979 82.7111C56.9766 82.7111 56.9512 82.7069 56.9257 82.6942L55.9957 82.2568L55.0658 82.6942C55.0403 82.7069 55.0191 82.7111 54.9936 82.7111C54.9002 82.7111 54.8153 82.6262 54.828 82.5243L54.9554 81.5009L54.2505 80.7494C54.1613 80.6559 54.2123 80.4988 54.3397 80.4733L55.3503 80.278L55.8471 79.3778C55.8768 79.3226 55.9363 79.2929 55.9915 79.2929M56 79.0806C55.8641 79.0806 55.7367 79.157 55.6688 79.2759L55.2187 80.0912L54.3057 80.2653C54.1698 80.2908 54.0594 80.3884 54.017 80.5201C53.9745 80.6517 54.0085 80.7961 54.1019 80.8937L54.7388 81.5731L54.6242 82.4946C54.6115 82.6007 54.6454 82.7111 54.7134 82.7918C54.7856 82.8725 54.8875 82.9192 54.9979 82.9192C55.0531 82.9192 55.1083 82.9065 55.1592 82.881L56 82.4861L56.8408 82.881C56.8917 82.9065 56.9469 82.9192 57.0021 82.9192C57.1125 82.9192 57.2144 82.8725 57.2866 82.7918C57.3588 82.7111 57.3928 82.6007 57.3758 82.4946L57.2611 81.5731L57.8981 80.8937C57.9915 80.7918 58.0255 80.6474 57.983 80.5201C57.9405 80.3884 57.8301 80.2908 57.6943 80.2653L56.7813 80.0912L56.3312 79.2759C56.2633 79.157 56.1359 79.0806 56 79.0806Z" fill="#213743"/>
<path d="M56 79.8152V80.9744C56 81.0678 56.0892 81.1315 56.1784 81.106L57.2187 80.7706C57.2739 80.7536 57.2697 80.6729 57.2102 80.6602L56.5563 80.5413C56.4969 80.5286 56.4417 80.4903 56.4119 80.4351L56.085 79.7939C56.0637 79.7515 55.9958 79.7642 55.9958 79.8152H56Z" fill="#FFEBB8"/>
<path d="M56 81.4924V82.0699C56 82.1039 56.017 82.1294 56.0467 82.1464L56.7983 82.5073C56.8365 82.5243 56.8705 82.4818 56.845 82.4479L56.0934 81.4627C56.0637 81.4245 56 81.4457 56 81.4924Z" fill="#FF7F00"/>
<rect x="13" y="62" width="37" height="13" rx="6.5" fill="#2F4553"/>
<path d="M28.6228 70H27.5908V67.318L26.9188 67.996L26.3308 67.378L27.7288 65.998H28.6228V70ZM32.3864 70H29.2484V69.196C30.9824 67.942 31.3064 67.666 31.3064 67.27C31.3064 66.994 31.0484 66.85 30.7544 66.85C30.3104 66.85 29.9744 67.018 29.6864 67.288L29.1164 66.604C29.5424 66.136 30.1784 65.938 30.7364 65.938C31.6784 65.938 32.3564 66.466 32.3564 67.27C32.3564 67.882 31.9184 68.404 30.9224 69.1H32.3864V70ZM35.7369 70H34.7229L34.1649 69.124L33.6009 70H32.5929L33.5829 68.512L32.6529 67.102H33.6669L34.1649 67.888L34.6569 67.102H35.6709L34.7469 68.512L35.7369 70Z" fill="white"/>
<path d="M8.03 11H7.215L6.56 9.815H6.04V11H5.33V7.665H6.89C7.585 7.665 8.01 8.12 8.01 8.74C8.01 9.33 7.64 9.645 7.28 9.73L8.03 11ZM6.785 9.19C7.07 9.19 7.285 9.02 7.285 8.74C7.285 8.46 7.07 8.29 6.785 8.29H6.04V9.19H6.785ZM10.5152 11H9.88023V10.75C9.71523 10.945 9.43023 11.06 9.11523 11.06C8.73023 11.06 8.27523 10.8 8.27523 10.26C8.27523 9.695 8.73023 9.48 9.11523 9.48C9.43523 9.48 9.72023 9.585 9.88023 9.775V9.45C9.88023 9.205 9.67023 9.045 9.35023 9.045C9.09023 9.045 8.85023 9.14 8.64523 9.33L8.40523 8.905C8.70023 8.645 9.08023 8.525 9.46023 8.525C10.0102 8.525 10.5152 8.745 10.5152 9.44V11ZM9.37023 10.63C9.57523 10.63 9.77523 10.56 9.88023 10.42V10.12C9.77523 9.98 9.57523 9.91 9.37023 9.91C9.12023 9.91 8.91523 10.04 8.91523 10.275C8.91523 10.5 9.12023 10.63 9.37023 10.63ZM11.7801 11H11.1451V8.585H11.7801V8.915C11.9501 8.7 12.2501 8.525 12.5501 8.525V9.145C12.5051 9.135 12.4451 9.13 12.3751 9.13C12.1651 9.13 11.8851 9.25 11.7801 9.405V11ZM14.0818 11.06C13.3468 11.06 12.7918 10.565 12.7918 9.79C12.7918 9.09 13.3068 8.525 14.0418 8.525C14.7618 8.525 15.2518 9.065 15.2518 9.855V9.995H13.4568C13.4968 10.3 13.7418 10.555 14.1518 10.555C14.3568 10.555 14.6418 10.465 14.7968 10.315L15.0768 10.725C14.8368 10.945 14.4568 11.06 14.0818 11.06ZM14.6368 9.565C14.6218 9.335 14.4618 9.03 14.0418 9.03C13.6468 9.03 13.4768 9.325 13.4468 9.565H14.6368Z" fill="#05080A"/>
<path d="M49.6194 11H49.1674L47.7754 9.096V11H47.3074V8.332H47.7874L49.1514 10.184V8.332H49.6194V11ZM51.0463 11.048C50.4343 11.048 50.0543 10.588 50.0543 10.032C50.0543 9.48 50.4343 9.02 51.0463 9.02C51.6663 9.02 52.0423 9.48 52.0423 10.032C52.0423 10.588 51.6663 11.048 51.0463 11.048ZM51.0463 10.676C51.4063 10.676 51.6063 10.376 51.6063 10.032C51.6063 9.692 51.4063 9.392 51.0463 9.392C50.6903 9.392 50.4903 9.692 50.4903 10.032C50.4903 10.376 50.6903 10.676 51.0463 10.676ZM52.6638 11.044C52.5118 11.044 52.3838 10.916 52.3838 10.764C52.3838 10.612 52.5118 10.484 52.6638 10.484C52.8158 10.484 52.9438 10.612 52.9438 10.764C52.9438 10.916 52.8158 11.044 52.6638 11.044ZM55.2876 11.048C54.8116 11.048 54.4596 10.856 54.2796 10.616L54.5316 10.308C54.7036 10.508 54.9876 10.632 55.2716 10.632C55.6236 10.632 55.8276 10.472 55.8276 10.224C55.8276 9.96 55.6156 9.848 55.2356 9.848C55.1236 9.848 54.9676 9.848 54.9276 9.852V9.432C54.9756 9.436 55.1316 9.436 55.2356 9.436C55.5476 9.436 55.7836 9.328 55.7836 9.084C55.7836 8.836 55.5436 8.708 55.2436 8.708C54.9716 8.708 54.7476 8.812 54.5556 9.004L54.3156 8.712C54.5196 8.472 54.8436 8.292 55.2876 8.292C55.8636 8.292 56.2516 8.564 56.2516 9.012C56.2516 9.368 55.9476 9.576 55.6716 9.624C55.9316 9.648 56.2916 9.86 56.2916 10.272C56.2916 10.724 55.9036 11.048 55.2876 11.048ZM57.7165 11H57.2485V8.94L56.8125 9.392L56.5405 9.108L57.3085 8.332H57.7165V11Z" fill="white"/>
<defs>
<clipPath id="clip0_26835_29194">
<rect width="63" height="88" fill="white"/>
</clipPath>
<clipPath id="clip1_26835_29194">
<rect width="63" height="88" fill="white"/>
</clipPath>
</defs>
</svg>
