<svg width="63" height="88" viewBox="0 0 63 88" fill="none" xmlns="http://www.w3.org/2000/svg">
<rect width="63" height="88" rx="4" fill="#1CE61C"/>
<path d="M36.7008 13.5133L44.7992 3.48665C45.5586 2.54645 46.7024 2 47.911 2H58C59.6569 2 61 3.34314 61 5V83C61 84.6569 59.6569 86 58 86H5C3.34315 86 2 84.6569 2 83V18C2 16.3431 3.34315 15 5 15H33.589C34.7976 15 35.9414 14.4536 36.7008 13.5133Z" fill="#213743"/>
<mask id="mask0_26835_29195" style="mask-type:luminance" maskUnits="userSpaceOnUse" x="0" y="0" width="63" height="88">
<path d="M59 0H4C1.79 0 0 1.79 0 4V84C0 86.21 1.79 88 4 88H59C61.21 88 63 86.21 63 84V4C63 1.79 61.21 0 59 0ZM61 82.81C61 84.57 59.57 86 57.81 86H5.19C3.43 86 2 84.57 2 82.81V18.19C2 16.43 3.43 15 5.19 15H33.59C34.8 15 35.94 14.45 36.7 13.51L44.8 3.48C45.56 2.54 46.7 1.99 47.91 1.99H57.81C59.57 1.99 61 3.42 61 5.18V82.8V82.81Z" fill="white"/>
</mask>
<g mask="url(#mask0_26835_29195)">
<path d="M68.37 47.3199V26.6399L4.46002 90.5499H25.13L68.37 47.3199Z" fill="white"/>
<path d="M64.66 -2.29004H55.22L-2.91998 55.84V66.18L65.46 -2.20004C65.2 -2.26004 64.93 -2.29004 64.66 -2.29004Z" fill="white"/>
<path d="M68.37 69.23V61.55L39.37 90.55H47.05L68.37 69.23Z" fill="white"/>
</g>
<rect x="5" y="18" width="53" height="40" rx="1" fill="#2F4553"/>
<g clip-path="url(#clip0_26835_29195)">
<mask id="mask1_26835_29195" style="mask-type:luminance" maskUnits="userSpaceOnUse" x="5" y="18" width="53" height="40">
<path d="M57 18H6C5.44772 18 5 18.4477 5 19V57C5 57.5523 5.44772 58 6 58H57C57.5523 58 58 57.5523 58 57V19C58 18.4477 57.5523 18 57 18Z" fill="white"/>
</mask>
<g mask="url(#mask1_26835_29195)">
<path d="M57 18H6C5.44772 18 5 18.4477 5 19V57C5 57.5523 5.44772 58 6 58H57C57.5523 58 58 57.5523 58 57V19C58 18.4477 57.5523 18 57 18Z" fill="url(#paint0_linear_26835_29195)"/>
<path d="M26.81 30.3302C29.6101 30.3302 31.88 28.0603 31.88 25.2602C31.88 22.4601 29.6101 20.1902 26.81 20.1902C24.0099 20.1902 21.74 22.4601 21.74 25.2602C21.74 28.0603 24.0099 30.3302 26.81 30.3302Z" fill="white"/>
<path opacity="0.3" d="M26.59 28.97C27.3301 28.97 27.93 28.3701 27.93 27.63C27.93 26.89 27.3301 26.29 26.59 26.29C25.8499 26.29 25.25 26.89 25.25 27.63C25.25 28.3701 25.8499 28.97 26.59 28.97Z" fill="#5B5BAE"/>
<path d="M30.9147 25.8522C30.9895 25.4448 30.808 25.0701 30.5092 25.0152C30.2105 24.9603 29.9076 25.2461 29.8328 25.6535C29.7579 26.0609 29.9395 26.4356 30.2382 26.4905C30.537 26.5454 30.8398 26.2596 30.9147 25.8522Z" fill="#DFEAF0"/>
<path d="M25.9875 23.6193C26.5259 23.5244 26.8949 23.0639 26.8115 22.5907C26.7282 22.1175 26.2241 21.8108 25.6856 21.9057C25.1471 22.0005 24.7782 22.461 24.8616 22.9342C24.9449 23.4074 25.449 23.7141 25.9875 23.6193Z" fill="#DFEAF0"/>
<path d="M23.2042 26.3611C23.4653 26.3151 23.6342 26.0354 23.5815 25.7362C23.5288 25.4371 23.2745 25.2318 23.0134 25.2778C22.7523 25.3238 22.5834 25.6036 22.6361 25.9027C22.6888 26.2019 22.9431 26.4071 23.2042 26.3611Z" fill="#DFEAF0"/>
<path d="M27.9216 25.1514C28.1846 24.9995 28.2904 24.6902 28.1579 24.4607C28.0254 24.2311 27.7046 24.1681 27.4416 24.32C27.1785 24.4718 27.0727 24.7811 27.2053 25.0107C27.3378 25.2402 27.6585 25.3032 27.9216 25.1514Z" fill="#DFEAF0"/>
<path d="M30.96 23.2702C31.13 23.1702 31.21 22.9802 31.22 22.7402C30.88 22.1402 30.42 21.6202 29.87 21.2002C29.84 21.2002 29.81 21.2202 29.79 21.2402C29.45 21.4402 29.43 22.0502 29.76 22.6102C30.08 23.1702 30.62 23.4602 30.96 23.2702Z" fill="#DFEAF0"/>
<path d="M56.29 35.1001C56.21 34.6301 55.91 32.8401 55.76 31.5101C57.22 31.6301 58.7 31.6501 59.94 31.4901C59.34 30.3701 58.74 29.0701 58.14 27.6301C58.07 27.4701 56.27 27.6901 56.2 27.5301C56.13 27.3701 57.81 26.8301 57.75 26.6701C57.38 25.7501 57.26 25.5101 56.88 24.4901C56.85 24.4201 55.63 23.9501 55.6 23.8701C55.56 23.7601 56.42 23.0801 56.38 22.9701C55.97 21.8501 55.83 21.4601 55.42 20.2401C55.38 20.1301 54.54 19.7001 54.5 19.5901C54.45 19.4501 55 19.0901 54.95 18.9601C54.59 17.8701 54.22 16.7501 53.86 15.6001C53.54 17.3201 53.27 18.7601 52.93 20.2901C52.92 20.3401 53.52 20.7601 53.51 20.8201C53.5 20.8701 52.64 21.1601 52.63 21.2101C52.3 22.6501 52.14 23.5601 51.78 24.5301C51.73 24.6601 53.16 25.4901 53.11 25.6101C53.04 25.7701 51.33 25.9501 51.26 26.0901L49.5 30.3901C50.45 30.7101 52.04 31.0601 53.81 31.3101C53.81 32.5701 53.78 34.4201 53.62 34.8901C49.79 34.5401 46.45 33.9501 43.34 33.3901C42.92 30.9101 39.89 31.4201 37.98 32.0001C38.07 30.1801 38.22 26.3601 37.93 25.9401C37.55 25.3901 33.33 26.0501 33.09 26.6301C32.91 27.0601 33.33 30.3801 33.55 32.0301C31.37 31.9101 29.15 31.9901 26.8 32.3601C26.97 31.5001 27.23 30.1801 27.46 28.9401L28.97 28.8801C29.08 28.8801 29.17 28.8001 29.2 28.6901L29.47 27.2901C29.5 27.1301 29.36 26.9801 29.2 27.0001L27.77 27.1901C27.9 26.4001 27.96 25.8301 27.91 25.7401C27.71 25.4301 25.69 25.4001 25.49 25.8501C25.49 25.8501 25.42 26.5301 25.35 27.5101L24.03 27.6801C23.89 27.7001 23.79 27.8301 23.82 27.9701L24 28.8701C24.02 28.9901 24.13 29.0701 24.24 29.0601L25.25 29.0201C25.18 30.2601 25.13 31.6301 25.18 32.6601C23.08 33.1101 6.50997 36.1401 4.09997 37.1501L3.90997 48.8601H59.44V35.5801C59.44 35.5801 56.5 35.2901 56.33 35.1201L56.29 35.1001Z" fill="#1D455B"/>
<path d="M63.81 48.04C54.14 45.87 43.26 46.6 32.18 46.6C21.1 46.6 10.85 45.87 1.17999 48.04V61.22H63.81V48.04Z" fill="#047BFF"/>
<path d="M4.98998 46.9302V49.6102C4.98998 49.6102 6.75998 51.5602 8.43998 51.2002C8.43998 51.2002 10.17 54.8802 13.09 49.6702L4.97998 46.9402L4.98998 46.9302Z" fill="#213743"/>
<path d="M17.34 52.02C17.34 52.02 14.44 54.16 15.48 58.24H19.67L17.33 52.02H17.34Z" fill="#213743"/>
</g>
<mask id="mask2_26835_29195" style="mask-type:luminance" maskUnits="userSpaceOnUse" x="5" y="1" width="53" height="57">
<path d="M57 1.5H6C5.44772 1.5 5 1.94772 5 2.5V57C5 57.5523 5.44772 58 6 58H57C57.5523 58 58 57.5523 58 57V2.5C58 1.94772 57.5523 1.5 57 1.5Z" fill="white"/>
</mask>
<g mask="url(#mask2_26835_29195)">
<path d="M34.8757 28.23C34.8757 28.23 36.0257 31.05 38.0557 32.06L37.1557 37.62C37.1557 37.62 33.0857 33.59 33.0957 30.93L34.8757 28.23Z" fill="#DDDFE5"/>
<path d="M46.6957 10.86C46.5257 8.82995 43.1657 7.82995 41.7657 10.43C38.2857 16.87 38.7657 21.55 32.0257 37.99C31.8157 38.51 33.1557 39.06 33.3657 38.54C40.1057 22.09 47.1757 16.44 46.6957 10.86Z" fill="#047BFF"/>
<path d="M33.8457 39.2599C33.9957 38.8999 34.2157 36.8999 33.4357 36.5799C32.6557 36.2599 31.1757 37.7499 31.0257 38.0999C30.8757 38.4599 31.3957 38.9999 32.1657 39.3199C32.9457 39.6399 33.6957 39.6099 33.8357 39.2499L33.8457 39.2599Z" fill="#00C2F9"/>
<path d="M33.2157 39.04C33.2857 38.87 32.9957 38.6 32.5757 38.42C32.1557 38.25 31.7557 38.24 31.6857 38.41C31.6157 38.58 31.9057 38.85 32.3257 39.03C32.7457 39.2 33.1457 39.21 33.2157 39.04Z" fill="#2F4553"/>
<path d="M34.9557 27.6399C36.1757 27.7599 35.7357 29.9099 35.2157 31.0099C34.7757 31.9499 33.0857 31.8199 33.0757 30.8699C33.0657 29.9199 33.7957 27.5299 34.9557 27.6399Z" fill="white"/>
<path d="M45.0458 21.0799C45.1158 21.0699 45.1758 21.0399 45.2258 20.9799L46.4358 19.7099C46.5158 19.6199 46.5458 19.4999 46.5058 19.3799C46.4658 19.2699 46.3658 19.1799 46.2458 19.1699L45.0458 18.9899L45.9458 17.9299C46.0658 17.7999 46.0458 17.5899 45.9058 17.4799C45.7758 17.3599 45.5658 17.3799 45.4558 17.5199L44.1758 19.0199C44.0958 19.1099 44.0758 19.2299 44.1158 19.3399C44.1558 19.4499 44.2558 19.5299 44.3658 19.5399L45.5258 19.7099L44.7458 20.5299C44.6258 20.6599 44.6258 20.8599 44.7558 20.9799C44.8358 21.0499 44.9358 21.0799 45.0258 21.0599L45.0458 21.0799Z" fill="white"/>
<path d="M45.8557 18.2C46.187 18.2 46.4557 17.9314 46.4557 17.6C46.4557 17.2686 46.187 17 45.8557 17C45.5243 17 45.2557 17.2686 45.2557 17.6C45.2557 17.9314 45.5243 18.2 45.8557 18.2Z" fill="white"/>
<path d="M36.8357 28.06C36.8357 28.06 35.5357 20.96 36.2357 19.82C36.9357 18.68 40.9757 22.83 40.9757 22.83C40.9757 22.83 39.1857 27.23 36.8357 28.05V28.06Z" fill="white"/>
<path d="M54.5057 28.89C54.5057 28.89 55.2357 20.69 54.4257 19.21C53.6157 17.73 49.6957 22.21 49.6957 22.21C49.6957 22.21 52.4757 29.1 54.5057 28.88V28.89Z" fill="white"/>
<path d="M46.0772 51.4699C49.27 51.2909 51.8135 50.35 51.7585 49.3685C51.7034 48.387 49.0706 47.7365 45.8779 47.9155C42.6852 48.0946 40.1416 49.0354 40.1967 50.017C40.2517 50.9985 42.8845 51.649 46.0772 51.4699Z" fill="#2F4553"/>
<path d="M54.0157 40.22C54.0157 40.22 51.7757 44.63 51.9057 48.87C51.9657 50.76 45.3357 51.14 44.5357 49.2C42.8357 45.13 43.8357 40.99 43.8357 40.99L54.0157 40.21V40.22Z" fill="#DFEAF0"/>
<path d="M46.3857 20.5101C51.4057 20.6901 55.1757 25.1001 55.1257 30.1201C55.0957 32.6001 54.8357 35.1101 54.5957 37.6901C54.1357 42.6901 50.4957 45.6401 45.4757 45.4501C40.2157 45.2601 36.6457 41.4101 36.8357 36.1501L36.5557 30.4401C36.4857 29.0901 36.6857 27.7401 37.1857 26.4801C38.6357 22.8501 42.2457 20.3501 46.3757 20.5001L46.3857 20.5101Z" fill="white"/>
<path d="M43.2858 32.2399C43.2858 32.2399 41.2858 32.3499 40.6858 31.7099C39.8758 30.8499 39.7558 33.5299 42.1958 33.6399C44.9858 33.7599 45.2158 32.7599 45.1658 31.9899C45.1258 31.3699 44.6858 32.3199 43.2958 32.2399H43.2858Z" fill="#2F2D2A"/>
<path d="M40.5757 31.24V31.88C40.5657 32.08 40.6957 32.25 40.8857 32.3C40.9157 32.3 40.9457 32.31 40.9757 32.32C40.9957 32.18 41.1157 32.08 41.2557 32.08C41.4057 32.08 41.5257 32.21 41.5257 32.36C41.5257 32.38 41.5257 32.41 41.5157 32.43C42.5357 32.61 43.5357 32.59 44.5157 32.36C44.7057 32.32 44.8457 32.15 44.8457 31.95V31.31C43.4057 31.71 41.9757 31.7 40.5757 31.24Z" fill="white"/>
<path d="M45.6757 23.65C46.1357 24.07 46.4757 24.57 46.6957 25.1C46.7657 24.19 46.4157 23.23 45.6457 22.53C44.3857 21.38 42.5157 21.38 41.4557 22.53C41.2657 22.73 41.1257 22.96 41.0157 23.2C42.3557 22.25 44.3157 22.4 45.6757 23.65Z" fill="#DFEAF0"/>
<path d="M45.6765 27.7332C45.9573 25.8431 44.8209 24.1082 43.1383 23.8582C41.4558 23.6082 39.8641 24.9379 39.5833 26.828C39.3025 28.7182 40.4389 30.4531 42.1215 30.7031C43.804 30.953 45.3957 29.6234 45.6765 27.7332Z" fill="#DDDFE5"/>
<path d="M45.7536 27.2308C46.0344 25.3406 44.898 23.6057 43.2155 23.3558C41.5329 23.1058 39.9413 24.4354 39.6605 26.3256C39.3797 28.2158 40.516 29.9507 42.1986 30.2006C43.8812 30.4506 45.4728 29.121 45.7536 27.2308Z" fill="#504C47"/>
<path d="M45.5276 26.8616C45.7817 25.1518 44.752 23.5821 43.2279 23.3556C41.7037 23.1292 40.2622 24.3318 40.0082 26.0417C39.7542 27.7516 40.7838 29.3212 42.308 29.5477C43.8321 29.7741 45.2736 28.5715 45.5276 26.8616Z" fill="#2F2D2A"/>
<path d="M43.0627 26.5254C43.1503 25.9354 42.7962 25.3939 42.2718 25.316C41.7474 25.2381 41.2512 25.6533 41.1635 26.2432C41.0759 26.8332 41.43 27.3747 41.9544 27.4526C42.4788 27.5305 42.975 27.1154 43.0627 26.5254Z" fill="white"/>
<path d="M44.9153 27.0866C44.9461 26.879 44.8206 26.6884 44.6348 26.6608C44.4491 26.6332 44.2735 26.7791 44.2427 26.9867C44.2118 27.1943 44.3374 27.3849 44.5231 27.4125C44.7089 27.4401 44.8844 27.2942 44.9153 27.0866Z" fill="white"/>
<path d="M36.7557 34.4401H41.7257C39.3857 33.7501 37.4857 32.6301 36.6457 32.0801L36.7557 34.4401Z" fill="#DFEAF0"/>
<path d="M32.7857 31.84C31.6257 31.74 30.9557 34.09 31.4357 35.35C31.9557 36.7 35.1757 40.01 41.3757 40.21C47.5757 40.41 49.1157 38.51 48.7257 35.39C48.3357 32.27 45.2957 34.01 42.6557 34.1C38.1357 34.25 35.4357 32.08 32.7857 31.85V31.84Z" fill="white"/>
<path d="M37.3857 39.5798L41.6457 36.5298C38.1057 34.3898 35.6657 37.2798 34.8257 38.5198C35.5557 38.9198 36.4157 39.2898 37.3857 39.5798Z" fill="#DFEAF0"/>
<path d="M46.7557 43.2298C46.7557 43.2298 42.8057 44.8798 42.3857 46.3498C42.1357 47.2298 41.6757 47.9298 40.0657 48.1198C37.1957 48.4598 34.3457 46.8598 34.1557 44.9398C33.9657 43.0198 34.0257 39.9898 36.4857 37.7598C39.5857 34.9598 47.8557 36.5698 46.7457 43.2298H46.7557Z" fill="white"/>
<path d="M34.4658 45.8099C34.4658 45.8099 35.3858 47.3799 38.6558 47.3699C42.4958 47.3699 41.3758 43.5499 43.2658 43.9999C49.0058 45.3699 53.2258 41.8699 53.2258 41.8699C51.8458 43.9899 49.5958 45.3599 46.9058 45.5199C46.9058 45.5199 44.9058 45.6099 44.1658 45.3299C44.1658 45.3299 42.6858 45.0299 42.3558 46.4499C42.0258 47.8699 40.7258 48.1399 39.2958 48.1699C39.2958 48.1699 35.7058 48.2199 34.4658 45.8199V45.8099Z" fill="#DFEAF0"/>
<path d="M19.05 46.39L24.68 45.55L21.74 38.26L19.32 38.92C19.32 38.92 19.32 39.03 19.34 39.21L17.17 39.86C17.17 39.86 17.86 40.86 17.72 41.92L19.45 41.09C19.53 43.08 19.55 45.8 19.05 46.38V46.39Z" fill="#586F7A"/>
<path d="M17.66 38.33C17.66 38.33 18.82 43.85 20.56 46.75L23.07 45.74C23.07 45.74 20.33 39.82 19.97 37.48L17.66 38.33Z" fill="white"/>
<path d="M21.19 38.22C22.22 40.54 23.03 42.98 23.67 45.52L26.44 44.49L24.04 36.74L21.19 38.22Z" fill="white"/>
<path d="M12.66 31.6899C12.66 31.6899 16.02 34.5999 16.69 41.0499C16.69 41.0499 18.44 39.2699 19.33 40.4699C19.33 40.4699 21.91 37.5999 23.83 39.9899C25.75 42.3799 22.9 44.6099 21.4 43.5099C21.4 43.5099 19.18 46.5299 18.42 45.9399C18.42 45.9399 21.71 56.6199 21.96 60.5099L32.48 58.4299C32.48 58.4299 25.83 42.4199 23.07 28.6399L12.65 31.6999L12.66 31.6899Z" fill="#1CE61C"/>
<path d="M18.86 21.0701C18.86 21.0701 21.89 23.3801 22.14 25.6201C22.14 25.6201 23.73 25.4501 23.56 27.8901C23.39 30.3301 23.93 31.6101 21.79 33.3201C19.65 35.0301 18.32 36.6601 16.11 36.3201C13.9 35.9801 8.92997 34.1101 7.58997 29.7101L18.85 21.0701H18.86Z" fill="#1CE61C"/>
<path d="M14.61 29.77C14.61 29.77 17.29 33.15 19.23 33.73C19.23 33.73 16.73 32.31 17.57 30.72C18.41 29.13 16.29 25.03 16.29 25.03L12 26.16L14.61 29.77Z" fill="#008C00"/>
<path d="M8.17999 25.98C8.04999 26.13 5.69999 28.75 7.99999 30.18C10.3 31.61 12.97 32.15 13.65 30.25L8.18999 25.98H8.17999Z" fill="#80FF80"/>
<path d="M9.76997 23C9.76997 23 6.91997 23.91 7.53997 25.93C8.15997 27.96 15.08 32.21 16.83 31.04C18.58 29.87 16.58 28.27 15.32 27.88C14.06 27.49 10.34 24.51 9.76997 23Z" fill="#1CE61C"/>
<path d="M8.13 14.98C8.13 14.98 9.86 14.27 11 16L9.77999 16.86L8.12 14.99L8.13 14.98Z" fill="#80FF80"/>
<path d="M15.61 12.28C15.68 12.31 16.39 12.54 16.85 13.54C17.31 14.54 17.33 15.51 17.33 15.51L15.18 15.14L15.61 12.28Z" fill="#80FF80"/>
<path d="M12.22 26.3699C15.38 27.6399 18.97 26.1199 20.25 22.9599C21.52 19.7999 20 16.2099 16.84 14.9299C13.68 13.6599 10.09 15.1799 8.81001 18.3399C7.53001 21.4999 9.06001 25.0899 12.22 26.3699Z" fill="white"/>
<path d="M13.41 25.6399C15.64 26.1199 17.73 25.2399 18.07 23.6799C18.41 22.1099 16.87 20.4499 14.64 19.9699C12.41 19.4899 10.32 20.3699 9.98002 21.9299C9.64002 23.4999 11.18 25.1599 13.41 25.6399Z" fill="#DFEAF0"/>
<path d="M16.84 25.6899C17 25.8299 17.15 25.9899 17.29 26.1599C17.36 26.1199 17.43 26.0899 17.5 26.0499C17.35 25.8699 17.19 25.7099 17.02 25.5499C15.02 23.7699 11.8 22.8399 8.69 22.6199C8.72 22.6999 8.74 22.7699 8.77 22.8499C11.79 23.0699 14.91 23.9599 16.84 25.6899Z" fill="#047BFF"/>
<path d="M19.79 18.69C19.98 18.69 20.17 18.69 20.36 18.67C20.33 18.6 20.31 18.52 20.28 18.45C20.11 18.46 19.93 18.47 19.76 18.46C17.21 18.36 14.4 16.88 12.09 14.98C12.02 15.01 11.94 15.05 11.87 15.09C14.24 17.05 17.16 18.58 19.8 18.69H19.79Z" fill="#047BFF"/>
<path d="M19.38 18.53C19.38 18.53 19.38 18.7 19.51 18.79C19.63 18.89 19.76 18.93 19.81 18.89C19.86 18.84 19.81 18.72 19.68 18.62C19.56 18.52 19.43 18.48 19.38 18.52V18.53Z" fill="#047BFF"/>
<path d="M19.68 18.4999C19.7 18.5699 19.83 18.5699 19.97 18.5199C20.11 18.4699 20.22 18.3699 20.2 18.2999C20.18 18.2299 20.05 18.2299 19.91 18.2799C19.77 18.3299 19.66 18.4299 19.68 18.4999Z" fill="#047BFF"/>
<path d="M18.69 18.4899C18.65 18.5399 18.71 18.6499 18.84 18.7399C18.97 18.8299 19.11 18.8599 19.15 18.8099C19.19 18.7599 19.13 18.6499 19 18.5599C18.87 18.4699 18.73 18.4399 18.69 18.4899Z" fill="#047BFF"/>
<path d="M18.99 18.43C19.01 18.49 19.14 18.49 19.28 18.43C19.42 18.36 19.52 18.26 19.49 18.19C19.47 18.13 19.34 18.13 19.2 18.19C19.06 18.26 18.96 18.36 18.99 18.43Z" fill="#047BFF"/>
<path d="M18.01 18.37C17.97 18.42 18.03 18.53 18.16 18.62C18.29 18.71 18.42 18.74 18.47 18.69C18.51 18.64 18.45 18.53 18.32 18.44C18.19 18.35 18.06 18.32 18.01 18.37Z" fill="#047BFF"/>
<path d="M18.31 18.3199C18.33 18.3799 18.46 18.3799 18.6 18.3199C18.74 18.2499 18.84 18.1499 18.81 18.0799C18.79 18.0199 18.66 18.0199 18.52 18.0799C18.38 18.1499 18.29 18.2499 18.31 18.3199Z" fill="#047BFF"/>
<path d="M17.27 18.2299C17.23 18.2799 17.29 18.3899 17.42 18.4799C17.55 18.5699 17.69 18.5999 17.73 18.5499C17.77 18.4999 17.71 18.3899 17.58 18.2999C17.45 18.2099 17.31 18.1799 17.27 18.2299Z" fill="#047BFF"/>
<path d="M17.56 18.17C17.58 18.23 17.71 18.23 17.85 18.17C17.99 18.1 18.09 18 18.06 17.93C18.04 17.87 17.91 17.87 17.77 17.93C17.63 18 17.53 18.1 17.56 18.17Z" fill="#047BFF"/>
<path d="M16.57 17.9898C16.57 17.9898 16.57 18.1598 16.69 18.2598C16.81 18.3598 16.94 18.4098 16.99 18.3598C17.04 18.3098 16.99 18.1998 16.86 18.0898C16.74 17.9898 16.61 17.9398 16.56 17.9898H16.57Z" fill="#047BFF"/>
<path d="M16.87 17.9698C16.89 18.0398 17.02 18.0498 17.16 17.9898C17.31 17.9398 17.41 17.8398 17.39 17.7698C17.37 17.6998 17.24 17.6898 17.1 17.7498C16.95 17.7998 16.85 17.8998 16.86 17.9698H16.87Z" fill="#047BFF"/>
<path d="M15.84 17.6899C15.79 17.7299 15.84 17.8599 15.94 17.9699C16.05 18.0799 16.18 18.1399 16.23 18.0899C16.28 18.0499 16.23 17.9299 16.13 17.8199C16.02 17.7099 15.89 17.6499 15.84 17.6899Z" fill="#047BFF"/>
<path d="M16.14 17.6999C16.15 17.7699 16.28 17.7899 16.43 17.7499C16.58 17.7099 16.69 17.6199 16.68 17.5499C16.68 17.4799 16.54 17.4599 16.39 17.4999C16.24 17.5399 16.13 17.6299 16.14 17.6999Z" fill="#047BFF"/>
<path d="M15.1 17.2899C15.04 17.3299 15.08 17.4499 15.18 17.5699C15.28 17.6899 15.4 17.7599 15.46 17.7199C15.52 17.6799 15.48 17.5599 15.38 17.4399C15.28 17.3199 15.16 17.2499 15.1 17.2899Z" fill="#047BFF"/>
<path d="M15.4 17.32C15.4 17.39 15.53 17.42 15.68 17.39C15.83 17.36 15.95 17.29 15.95 17.22C15.95 17.15 15.82 17.12 15.67 17.15C15.52 17.18 15.4 17.25 15.4 17.32Z" fill="#047BFF"/>
<path d="M14.45 16.87C14.39 16.9 14.41 17.03 14.5 17.16C14.59 17.29 14.71 17.37 14.76 17.33C14.82 17.3 14.8 17.17 14.71 17.04C14.62 16.91 14.5 16.83 14.44 16.87H14.45Z" fill="#047BFF"/>
<path d="M14.75 16.9298C14.75 16.9998 14.87 17.0398 15.03 17.0298C15.18 17.0198 15.31 16.9498 15.31 16.8798C15.31 16.8098 15.19 16.7698 15.03 16.7798C14.88 16.7898 14.75 16.8598 14.75 16.9298Z" fill="#047BFF"/>
<path d="M13.75 16.4998C13.69 16.5398 13.72 16.6598 13.81 16.7798C13.9 16.8998 14.02 16.9698 14.07 16.9298C14.13 16.8898 14.1 16.7698 14.01 16.6498C13.92 16.5298 13.8 16.4698 13.74 16.4998H13.75Z" fill="#047BFF"/>
<path d="M14.04 16.5301C14.04 16.6001 14.16 16.6301 14.31 16.6001C14.46 16.5701 14.58 16.5001 14.58 16.4301C14.58 16.3701 14.46 16.3301 14.31 16.3601C14.16 16.3901 14.04 16.4601 14.04 16.5301Z" fill="#047BFF"/>
<path d="M13.12 16.0799C13.06 16.1099 13.08 16.2399 13.16 16.3599C13.24 16.4899 13.35 16.5599 13.41 16.5299C13.47 16.4999 13.45 16.3699 13.37 16.2499C13.29 16.1199 13.18 16.0499 13.12 16.0799Z" fill="#047BFF"/>
<path d="M13.41 16.1401C13.41 16.2101 13.52 16.2501 13.67 16.2401C13.82 16.2301 13.95 16.1601 13.95 16.1001C13.95 16.0301 13.84 15.9901 13.69 16.0001C13.54 16.0101 13.41 16.0801 13.41 16.1401Z" fill="#047BFF"/>
<path d="M12.51 15.5699C12.45 15.5999 12.45 15.7199 12.51 15.8599C12.58 15.9899 12.68 16.0799 12.74 16.0599C12.8 16.0299 12.8 15.9099 12.74 15.7699C12.67 15.6399 12.57 15.5499 12.51 15.5699Z" fill="#047BFF"/>
<path d="M12.79 15.65C12.78 15.72 12.89 15.77 13.04 15.77C13.19 15.77 13.32 15.72 13.33 15.65C13.34 15.58 13.23 15.53 13.08 15.53C12.93 15.53 12.8 15.58 12.79 15.65Z" fill="#047BFF"/>
<path d="M11.99 15.0499C11.93 15.0699 11.92 15.1999 11.98 15.3399C12.04 15.4799 12.13 15.5799 12.19 15.5599C12.25 15.5399 12.26 15.4099 12.21 15.2699C12.15 15.1299 12.06 15.0299 12 15.0499H11.99Z" fill="#047BFF"/>
<path d="M12.26 15.1499C12.24 15.2099 12.35 15.2799 12.5 15.2899C12.65 15.2999 12.78 15.2599 12.8 15.1999C12.82 15.1299 12.71 15.0699 12.56 15.0599C12.41 15.0499 12.27 15.0899 12.26 15.1499Z" fill="#047BFF"/>
<path d="M9.56 22.7101C9.6 22.6501 9.49 22.5401 9.31 22.4501C9.13 22.3601 8.94999 22.3401 8.90999 22.3901C8.86999 22.4401 8.97999 22.5601 9.15999 22.6501C9.33999 22.7401 9.52 22.7601 9.56 22.7101Z" fill="#047BFF"/>
<path d="M9.31002 22.7801C9.24002 22.7301 9.11002 22.7801 9.01002 22.9101C8.91002 23.0301 8.88001 23.1701 8.95001 23.2301C9.02001 23.2801 9.15001 23.2301 9.25001 23.1001C9.35001 22.9801 9.38002 22.8301 9.31002 22.7801Z" fill="#047BFF"/>
<path d="M10.41 22.8299C10.45 22.7699 10.34 22.6599 10.16 22.5699C9.97997 22.4799 9.79997 22.4599 9.75997 22.5099C9.71997 22.5599 9.82997 22.6799 10.01 22.7699C10.19 22.8599 10.37 22.8799 10.41 22.8299Z" fill="#047BFF"/>
<path d="M10.19 22.8199C10.12 22.7699 9.99002 22.8199 9.89002 22.9499C9.79002 23.0699 9.76002 23.2199 9.83002 23.2699C9.90002 23.3199 10.03 23.2699 10.13 23.1399C10.23 23.0199 10.26 22.8799 10.19 22.8199Z" fill="#047BFF"/>
<path d="M11.24 22.9699C11.29 22.9199 11.2 22.7999 11.03 22.6899C10.86 22.5799 10.69 22.5399 10.64 22.5799C10.59 22.6299 10.68 22.7499 10.85 22.8599C11.02 22.9699 11.19 23.0199 11.24 22.9699Z" fill="#047BFF"/>
<path d="M11.13 22.9598C11.07 22.8998 10.92 22.9398 10.8 23.0398C10.68 23.1398 10.62 23.2798 10.68 23.3398C10.74 23.3998 10.89 23.3598 11.01 23.2598C11.13 23.1598 11.19 23.0198 11.13 22.9598Z" fill="#047BFF"/>
<path d="M12.07 23.17C12.13 23.13 12.07 23 11.91 22.87C11.76 22.74 11.6 22.67 11.53 22.71C11.47 22.75 11.53 22.88 11.68 23.01C11.83 23.14 12 23.21 12.06 23.17H12.07Z" fill="#047BFF"/>
<path d="M12.01 23.1099C11.96 23.0499 11.81 23.0599 11.66 23.1399C11.51 23.2199 11.43 23.3399 11.48 23.4099C11.53 23.4799 11.68 23.4599 11.83 23.3799C11.98 23.2999 12.06 23.1799 12.01 23.1099Z" fill="#047BFF"/>
<path d="M13.06 23.4999C13.13 23.4699 13.07 23.3299 12.94 23.1899C12.81 23.0499 12.64 22.9699 12.58 22.9999C12.51 23.0299 12.57 23.1699 12.7 23.2999C12.83 23.4399 13 23.5199 13.06 23.4899V23.4999Z" fill="#047BFF"/>
<path d="M12.94 23.4199C12.9 23.3499 12.74 23.3499 12.58 23.4199C12.42 23.4899 12.32 23.5999 12.36 23.6599C12.4 23.7299 12.56 23.7299 12.72 23.6599C12.88 23.5899 12.98 23.4799 12.94 23.4099V23.4199Z" fill="#047BFF"/>
<path d="M14.17 23.8999C14.24 23.8699 14.2 23.7299 14.08 23.5899C13.96 23.4499 13.81 23.3499 13.73 23.3799C13.66 23.4099 13.7 23.5399 13.82 23.6899C13.94 23.8299 14.1 23.9299 14.17 23.8999Z" fill="#047BFF"/>
<path d="M13.89 23.8598C13.86 23.7898 13.69 23.7798 13.53 23.8298C13.36 23.8798 13.25 23.9798 13.28 24.0498C13.31 24.1198 13.47 24.1298 13.64 24.0798C13.81 24.0298 13.92 23.9298 13.89 23.8598Z" fill="#047BFF"/>
<path d="M15.04 24.2899C15.1 24.2599 15.04 24.1099 14.92 23.9699C14.79 23.8199 14.64 23.7299 14.58 23.7599C14.52 23.7899 14.58 23.9399 14.7 24.0799C14.83 24.2299 14.98 24.3199 15.04 24.2899Z" fill="#047BFF"/>
<path d="M14.77 24.2599C14.73 24.1899 14.58 24.1799 14.44 24.2599C14.29 24.3299 14.21 24.4399 14.24 24.5099C14.28 24.5799 14.43 24.5899 14.57 24.5099C14.72 24.4399 14.81 24.3299 14.77 24.2599Z" fill="#047BFF"/>
<path d="M15.82 24.72C15.89 24.7 15.86 24.55 15.76 24.39C15.66 24.23 15.52 24.12 15.45 24.14C15.38 24.16 15.41 24.31 15.51 24.47C15.61 24.63 15.75 24.74 15.82 24.72Z" fill="#047BFF"/>
<path d="M15.56 24.6499C15.53 24.5799 15.38 24.5499 15.22 24.5899C15.06 24.6299 14.95 24.7199 14.97 24.7999C15 24.8699 15.15 24.8999 15.31 24.8599C15.47 24.8199 15.58 24.7299 15.56 24.6499Z" fill="#047BFF"/>
<path d="M16.61 25.28C16.68 25.27 16.67 25.12 16.58 24.96C16.49 24.79 16.37 24.67 16.29 24.68C16.22 24.69 16.23 24.84 16.32 25C16.41 25.17 16.54 25.29 16.61 25.28Z" fill="#047BFF"/>
<path d="M16.35 25.1901C16.33 25.1101 16.18 25.0701 16.01 25.0901C15.84 25.1101 15.72 25.1901 15.74 25.2701C15.76 25.3501 15.91 25.3901 16.08 25.3701C16.25 25.3501 16.37 25.2701 16.35 25.1901Z" fill="#047BFF"/>
<path d="M17.37 25.9799C17.44 25.9799 17.45 25.8299 17.37 25.6599C17.3 25.4899 17.18 25.3599 17.11 25.3699C17.04 25.3699 17.03 25.5199 17.11 25.6899C17.18 25.8599 17.3 25.9899 17.38 25.9899L17.37 25.9799Z" fill="#047BFF"/>
<path d="M17.11 25.8599C17.1 25.7899 16.95 25.7299 16.78 25.7399C16.61 25.7399 16.48 25.8099 16.49 25.8899C16.5 25.9699 16.65 26.0199 16.82 26.0099C16.99 26.0099 17.13 25.9399 17.11 25.8599Z" fill="#047BFF"/>
<path d="M23.38 26.1499C22.72 24.5599 18.14 24.9499 17.12 25.1499C16.1 25.3499 15.51 26.7799 16.34 27.7799C16.96 28.5199 19.06 28.8099 20 29.0299C23.27 29.7999 24 27.6399 23.38 26.1499Z" fill="#1CE61C"/>
<path d="M8.68 14.81C9.68 14.99 10.5 16.95 9.99999 17.99C9.49999 19.03 8.29999 19.49 7.54999 18.88C6.79999 18.27 6.23999 16.49 6.80999 15.68C7.37999 14.87 8.44 14.76 8.68 14.81Z" fill="#80FF80"/>
<path d="M13.46 12.21C13.46 12.21 12.49 12.93 12.71 14.08C12.93 15.23 14.61 14.91 15.63 14.55C16.65 14.19 16.7 13.22 16.21 12.69C15.72 12.16 15.07 11.54 13.46 12.22V12.21Z" fill="#80FF80"/>
</g>
<path d="M28.38 40.18C29.97 39.96 33.07 40.08 33.07 44.24L30.64 45.46L29.6 44.7C29.6 44.7 30.5 42.08 28.84 42.39C28.48 42.46 28.13 42.24 28.01 41.9L27.76 41.2C27.59 40.74 27.9 40.25 28.39 40.19L28.38 40.18Z" fill="#047BFF"/>
<path d="M40.13 59.5001C40.13 59.5001 48.07 60.1601 47.17 53.7701C46.28 47.4301 38.47 43.7501 36.12 44.7801C36.12 44.7801 33.75 43.7301 31.53 44.8001C31.53 44.8001 30.15 43.8201 27.98 44.9301C27.98 44.9301 22.01 43.6101 18.76 48.5401C15.51 53.4801 15.27 59.9201 23.21 59.5101C23.21 59.5101 26.82 61.5201 31.22 60.0101C31.22 60.0101 36.04 62.2001 40.13 59.4901V59.5001Z" fill="#0E5BA0"/>
<path d="M25.65 45.2801C25.65 45.2801 24.57 45.8601 23.75 46.8501C23.75 46.8501 27.15 44.8801 29.98 45.0601C32.81 45.2401 34.16 46.8701 34.16 46.8701C34.16 46.8701 33.83 45.6101 33.02 45.0501C33.02 45.0501 36.45 44.1501 40.3 47.3701C40.3 47.3701 39.22 46.1401 38.1 45.4601C38.1 45.4601 40.98 45.3501 44.87 48.8801C42.11 45.5001 37.75 43.7201 36.09 44.4501C36.09 44.4501 33.8 43.4101 31.57 44.4901C31.57 44.4901 29.4 43.4101 27.24 44.5301C27.24 44.5301 22 43.6101 18.75 48.5501C18.47 48.9801 18.21 49.4201 17.98 49.8601C19.3 47.9701 21.78 45.4401 25.65 45.2801Z" fill="#00C2F9"/>
<path d="M42.87 57.8701C42.99 57.0501 44.34 55.4201 43.83 52.7701C43.32 50.1201 40.67 47.7501 40.67 47.7501C47.14 55.5401 41.03 59.6001 37.18 59.7801C33.33 59.9601 34.44 58.1101 34.68 57.4701L34.3 56.6301C33.84 57.3101 33.21 57.8901 32.39 58.3101C27.84 60.6401 20.47 59.1101 20.29 54.8701C20.11 50.6301 23.39 47.1201 23.39 47.1201C17.31 53.1901 21.67 58.0901 19.36 58.0701C18.58 58.0701 17.9 57.7601 17.34 57.3601C18.25 58.8001 20.11 59.6801 23.22 59.5201C23.22 59.5201 26.83 61.5301 31.23 60.0201C31.23 60.0201 36.05 62.2101 40.14 59.5001C40.14 59.5001 44.69 59.8601 46.52 57.3401C44.12 59.0101 42.77 58.6101 42.87 57.8701Z" fill="#047BFF"/>
<path d="M28.86 49.6199C29.03 50.5699 27.64 50.4899 26.23 50.6999C24.82 50.9099 23.92 51.3299 23.75 50.3799C23.58 49.4299 24.59 48.4899 26 48.2799C27.41 48.0699 28.69 48.6699 28.86 49.6199Z" fill="#1CE61C"/>
<path d="M39.41 50.41C39.24 51.4 38.03 50.89 36.44 50.66C34.85 50.43 33.48 50.58 33.65 49.59C33.82 48.6 35.25 47.98 36.84 48.21C38.43 48.44 39.58 49.43 39.41 50.42V50.41Z" fill="#1CE61C"/>
<path d="M41.08 52.1099C41 53.2399 39.02 53.7499 36.45 53.9399L36.51 54.5499C36.51 54.5499 36.59 54.8699 36.29 54.8699L34.57 54.9499C34.44 54.9499 34.33 54.8699 34.3 54.7599L34.37 54.0199C32.32 54.0499 30.14 53.9399 28.34 53.8099V54.7099C28.34 54.8699 28.2 54.9899 28.03 54.9899H26.42C26.23 54.9899 26.08 54.8299 26.11 54.6499L26.31 53.6399C25.63 53.5799 25.09 53.5299 24.77 53.4999C22.96 53.3399 22.47 52.5999 22.34 52.2299C22.31 52.1499 22.2 52.1399 22.15 52.2099C19 56.7199 23.82 58.1299 29.46 58.2399L29.27 57.5399C29.22 57.3499 29.38 57.1599 29.59 57.1599H31.29C31.49 57.1599 31.65 57.3199 31.62 57.4999L31.52 58.2199C36.06 58.0699 40.56 57.2299 41.48 56.5899C43.28 55.3299 41.88 52.9299 41.28 52.0599C41.22 51.9799 41.09 52.0099 41.08 52.1099Z" fill="#80FF80"/>
<path d="M13.03 44.95L14.14 45.3699C14.32 45.4399 14.44 45.63 14.41 45.82C14.29 46.85 13.74 49.97 11.66 50.56C10.53 50.55 9.40997 49.32 9.40997 49.32L13.03 44.95Z" fill="#00C2F9"/>
<path d="M7.86997 40.6799C7.86997 40.6799 6.98997 41.6299 5.40997 41.8599L6.33997 42.9399C6.33997 42.9399 7.26997 41.8399 8.69997 41.9699L7.86997 40.6799Z" fill="#047BFF"/>
<path d="M7.18997 38.5901C7.18997 38.5901 6.13997 39.5401 4.15997 40.0701L5.23997 41.2601C5.23997 41.2601 5.90997 40.1001 7.55997 40.0701L7.18997 38.5901Z" fill="#047BFF"/>
<path d="M13.03 44.95L14.1 45.3499C14.1 45.3499 13.1 51.36 10.32 51.47C8.85001 51.53 12.21 47.8 13.03 44.95Z" fill="#047BFF"/>
<path d="M11.71 40.4C10.82 39.08 8.67 36.32 7.42 37.25C6.07 38.25 8.68 42.09 7.88 42.92C6.71 43.61 5.47 40.31 3.81 38.9C4.34 39.69 4.94 40.76 5.47 42.12C6.79 45.54 10.59 44.38 11.71 45.45C12.3 46.01 12.57 46.62 12.69 47.08C13.03 46.41 13.23 45.78 13.26 45.36C13.36 44.03 12.87 42.1 11.72 40.4H11.71Z" fill="#047BFF"/>
<path d="M7.02001 44.46C7.02001 44.46 9.64001 43.36 11.51 44.09C13.38 44.82 11.96 47.35 11.96 47.35L7.01001 44.46H7.02001Z" fill="#2F4553"/>
<path d="M5.45998 42.12C4.92998 40.76 4.32998 39.69 3.79998 38.9C3.20998 38.39 2.55998 38.13 1.83998 38.36C0.479978 38.81 1.05998 40.62 2.13998 43.52C3.41998 46.98 7.15998 50.26 9.55998 49.83C10.78 49.61 11.75 48.63 12.39 47.59C12.61 47.24 12.63 46.8 12.45 46.43C12.29 46.11 12.06 45.76 11.71 45.43C10.58 44.37 6.78998 45.52 5.46998 42.1L5.45998 42.12Z" fill="#00C2F9"/>
<path d="M3.82902 41.2549C4.12222 41.1259 4.15074 40.546 3.89272 39.9596C3.6347 39.3732 3.18785 39.0024 2.89465 39.1314C2.60145 39.2604 2.57294 39.8404 2.83096 40.4268C3.08898 41.0131 3.53582 41.3839 3.82902 41.2549Z" fill="white"/>
<path d="M11.4549 50.7872C11.5383 50.6314 11.4244 50.4078 11.2005 50.2879C10.9766 50.1679 10.7274 50.1969 10.6439 50.3527C10.5605 50.5085 10.6743 50.732 10.8983 50.852C11.1222 50.972 11.3714 50.9429 11.4549 50.7872Z" fill="white"/>
</g>
<path fill-rule="evenodd" clip-rule="evenodd" d="M6.49771 79C6.98969 79 7.48602 79.213 7.49037 79.6913C7.49037 80.1043 7.24656 80.2696 6.99839 80.2696C6.75023 80.2696 6.73281 80.1435 6.73281 80.1435C6.73281 80.1435 7.02452 79.9261 7.02452 79.7174C7.02452 79.6087 6.94179 79.313 6.489 79.3174C5.8577 79.3174 5.5181 79.6174 5.5181 80.1522C5.5181 80.7652 7.35105 80.9739 7.3554 81.7652C7.3554 82.613 6.47594 82.9957 5.69225 83C5.283 83 5.01306 82.7609 5.00871 82.3783C5.00871 81.9261 5.22204 81.4652 5.75756 81.4652C5.88382 81.4565 5.98831 81.5522 5.99702 81.6783C5.99702 81.6783 5.99702 81.6826 5.99702 81.687C5.99702 81.687 5.45715 81.8391 5.4615 82.3783C5.4615 82.4783 5.56599 82.6609 5.81851 82.6565C6.07103 82.6522 6.82424 82.4739 6.81989 81.8087C6.81989 81.1913 5.00435 81.1087 5 80.1478C5 79.0652 6.08845 79.0087 6.49771 79.0087V79ZM10.747 79.6C10.8123 79.5696 11.2129 79.4913 11.1955 79.813C11.1824 80.1348 10.9386 80.6913 10.9037 80.9348C11.2303 80.7696 11.6918 80.2087 11.6918 80.2087C11.6918 80.2087 12.0183 80.2522 11.9182 80.4522C11.818 80.6522 11.1519 81.1435 11.1519 81.1435C11.1519 81.1435 11.3043 82.5696 12.1707 82.5696C12.6453 82.5696 12.8499 82.3609 12.937 82.287C12.9587 82.2696 12.9762 82.2652 12.9849 82.2783C13.0197 82.387 12.9936 82.5043 12.9152 82.5913C12.8194 82.6957 12.5974 82.8217 12.1533 82.8261C11.3653 82.8261 10.9255 82.1957 10.8123 81.2609C10.7252 81.5348 10.7339 81.9826 10.7209 82.2C10.6948 82.2435 10.2507 82.4174 10.2158 82.1174C10.2158 82.0913 10.2158 82.0696 10.2158 82.0435C10.1331 82.1609 10.0199 82.2826 9.91108 82.2826C9.71951 82.2826 9.63679 82.1217 9.60196 82.0391C9.57584 82.0696 9.3625 82.287 9.08821 82.287C8.92277 82.2913 8.77474 82.1957 8.70943 82.0435C8.57011 82.1435 8.32195 82.2913 8.03895 82.2913C7.73418 82.2913 7.66017 82.1087 7.66017 81.9565C7.66017 81.713 7.84303 80.987 7.84303 80.987C7.84303 80.987 7.48602 81.1304 7.36411 81.1348C7.19431 81.1348 7.11159 80.8217 7.11159 80.813C7.11159 80.8087 7.11159 80.8 7.1203 80.8C7.22044 80.7609 7.94317 80.513 7.94317 80.513C7.94317 80.513 8.07813 79.9826 8.09555 79.913C8.11296 79.8435 8.2131 79.7 8.33065 79.6565C8.41773 79.6217 8.50916 79.6 8.60059 79.5913C8.63107 79.5913 8.65284 79.6 8.65284 79.6174C8.65284 79.6348 8.47433 80.4087 8.47433 80.4087C8.47433 80.4087 8.84876 80.3217 8.98808 80.3217C9.09692 80.3217 9.15352 80.387 9.09257 80.4696C9.03162 80.5522 8.96196 80.6478 8.92712 80.6913C8.88794 80.7348 8.86182 80.7435 8.77039 80.7609C8.64413 80.787 8.36113 80.8565 8.36113 80.8565C8.36113 80.8565 8.13473 81.6783 8.13909 81.8174C8.13909 81.8957 8.16521 81.987 8.26099 81.987C8.35678 81.987 8.53964 81.8739 8.67025 81.7913C8.69202 81.1522 9.18835 80.7261 9.57584 80.7261C9.7021 80.7261 9.65421 80.8478 9.79788 80.8478H9.88931C9.94591 80.8478 10.0069 80.8522 10.0069 80.9957C10.0069 81.1957 9.89367 81.5261 9.89367 81.7348C9.89367 81.8826 9.91544 81.987 9.97204 81.987C10.0678 81.987 10.1767 81.8478 10.255 81.7261C10.3813 81.0304 10.734 79.7609 10.734 79.6174L10.747 79.6ZM12.5016 80.7C12.7672 80.6783 12.9326 80.8217 12.9631 80.9C12.9936 80.9783 12.9892 81.1609 12.9152 81.2913C12.6845 81.7044 12.1097 81.6304 12.1097 81.6304C12.1097 81.6304 12.0444 81.9565 12.3405 81.9565C12.593 81.9565 12.7062 81.8304 12.8151 81.7261C12.8586 81.7261 12.9936 81.8652 12.9326 81.9609C12.8847 82.0348 12.6191 82.2565 12.2795 82.2609C11.7397 82.2609 11.6047 81.8 11.6744 81.4696C11.7658 81.0609 12.1751 80.7217 12.5016 80.6957V80.7ZM9.6455 80.987C9.32332 80.987 8.82699 81.9696 9.20577 81.9652C9.61938 81.9652 9.6455 81.1826 9.6455 81.0043V80.987ZM12.6409 80.8913C12.4232 80.9 12.1751 81.3174 12.1533 81.5C12.4798 81.513 12.654 81.1957 12.6757 81.0696C12.6888 80.9739 12.6932 80.887 12.6409 80.887V80.8913Z" fill="#557086"/>
<path d="M51.1444 79.3778L51.6412 80.278L52.6518 80.4733C52.7792 80.4988 52.8302 80.6559 52.741 80.7494L52.0361 81.5009L52.1635 82.5243C52.1805 82.6559 52.0446 82.7494 51.93 82.6942L51 82.2568L50.0701 82.6942C49.9512 82.7494 49.8196 82.6517 49.8366 82.5243L49.9639 81.5009L49.2591 80.7494C49.1699 80.6559 49.2208 80.4988 49.3482 80.4733L50.3588 80.278L50.8557 79.3778C50.9194 79.2632 51.085 79.2632 51.1444 79.3778Z" fill="#FFC200"/>
<path d="M51 79.2929C51.0552 79.2929 51.1147 79.3226 51.1444 79.3778L51.6412 80.278L52.6518 80.4733C52.7792 80.4988 52.8302 80.6559 52.741 80.7494L52.0361 81.5009L52.1635 82.5243C52.1763 82.6262 52.0955 82.7111 51.9979 82.7111C51.9766 82.7111 51.9512 82.7069 51.9257 82.6942L50.9957 82.2568L50.0658 82.6942C50.0403 82.7069 50.0191 82.7111 49.9936 82.7111C49.9002 82.7111 49.8153 82.6262 49.828 82.5243L49.9554 81.5009L49.2505 80.7494C49.1613 80.6559 49.2123 80.4988 49.3397 80.4733L50.3503 80.278L50.8471 79.3778C50.8768 79.3226 50.9363 79.2929 50.9915 79.2929M51 79.0806C50.8641 79.0806 50.7367 79.157 50.6688 79.2759L50.2187 80.0912L49.3057 80.2653C49.1698 80.2908 49.0594 80.3884 49.017 80.5201C48.9745 80.6517 49.0085 80.7961 49.1019 80.8937L49.7388 81.5731L49.6242 82.4946C49.6115 82.6007 49.6454 82.7111 49.7134 82.7918C49.7856 82.8725 49.8875 82.9192 49.9979 82.9192C50.0531 82.9192 50.1083 82.9065 50.1592 82.881L51 82.4861L51.8408 82.881C51.8917 82.9065 51.9469 82.9192 52.0021 82.9192C52.1125 82.9192 52.2144 82.8725 52.2866 82.7918C52.3588 82.7111 52.3928 82.6007 52.3758 82.4946L52.2611 81.5731L52.8981 80.8937C52.9915 80.7918 53.0255 80.6474 52.983 80.5201C52.9405 80.3884 52.8301 80.2908 52.6943 80.2653L51.7813 80.0912L51.3312 79.2759C51.2633 79.157 51.1359 79.0806 51 79.0806Z" fill="#213743"/>
<path d="M51 79.8152V80.9744C51 81.0678 51.0892 81.1315 51.1784 81.106L52.2187 80.7706C52.2739 80.7536 52.2697 80.6729 52.2102 80.6602L51.5563 80.5413C51.4969 80.5286 51.4417 80.4903 51.4119 80.4351L51.085 79.7939C51.0637 79.7515 50.9958 79.7642 50.9958 79.8152H51Z" fill="#FFEBB8"/>
<path d="M51 81.4924V82.0699C51 82.1039 51.017 82.1294 51.0467 82.1464L51.7983 82.5073C51.8365 82.5243 51.8705 82.4818 51.845 82.4479L51.0934 81.4627C51.0637 81.4245 51 81.4457 51 81.4924Z" fill="#FF7F00"/>
<path d="M56.1444 79.3778L56.6412 80.278L57.6518 80.4733C57.7792 80.4988 57.8302 80.6559 57.741 80.7494L57.0361 81.5009L57.1635 82.5243C57.1805 82.6559 57.0446 82.7494 56.93 82.6942L56 82.2568L55.0701 82.6942C54.9512 82.7494 54.8196 82.6517 54.8366 82.5243L54.9639 81.5009L54.2591 80.7494C54.1699 80.6559 54.2208 80.4988 54.3482 80.4733L55.3588 80.278L55.8557 79.3778C55.9194 79.2632 56.085 79.2632 56.1444 79.3778Z" fill="#FFC200"/>
<path d="M56 79.2929C56.0552 79.2929 56.1147 79.3226 56.1444 79.3778L56.6412 80.278L57.6518 80.4733C57.7792 80.4988 57.8302 80.6559 57.741 80.7494L57.0361 81.5009L57.1635 82.5243C57.1763 82.6262 57.0955 82.7111 56.9979 82.7111C56.9766 82.7111 56.9512 82.7069 56.9257 82.6942L55.9957 82.2568L55.0658 82.6942C55.0403 82.7069 55.0191 82.7111 54.9936 82.7111C54.9002 82.7111 54.8153 82.6262 54.828 82.5243L54.9554 81.5009L54.2505 80.7494C54.1613 80.6559 54.2123 80.4988 54.3397 80.4733L55.3503 80.278L55.8471 79.3778C55.8768 79.3226 55.9363 79.2929 55.9915 79.2929M56 79.0806C55.8641 79.0806 55.7367 79.157 55.6688 79.2759L55.2187 80.0912L54.3057 80.2653C54.1698 80.2908 54.0594 80.3884 54.017 80.5201C53.9745 80.6517 54.0085 80.7961 54.1019 80.8937L54.7388 81.5731L54.6242 82.4946C54.6115 82.6007 54.6454 82.7111 54.7134 82.7918C54.7856 82.8725 54.8875 82.9192 54.9979 82.9192C55.0531 82.9192 55.1083 82.9065 55.1592 82.881L56 82.4861L56.8408 82.881C56.8917 82.9065 56.9469 82.9192 57.0021 82.9192C57.1125 82.9192 57.2144 82.8725 57.2866 82.7918C57.3588 82.7111 57.3928 82.6007 57.3758 82.4946L57.2611 81.5731L57.8981 80.8937C57.9915 80.7918 58.0255 80.6474 57.983 80.5201C57.9405 80.3884 57.8301 80.2908 57.6943 80.2653L56.7813 80.0912L56.3312 79.2759C56.2633 79.157 56.1359 79.0806 56 79.0806Z" fill="#213743"/>
<path d="M56 79.8152V80.9744C56 81.0678 56.0892 81.1315 56.1784 81.106L57.2187 80.7706C57.2739 80.7536 57.2697 80.6729 57.2102 80.6602L56.5563 80.5413C56.4969 80.5286 56.4417 80.4903 56.4119 80.4351L56.085 79.7939C56.0637 79.7515 55.9958 79.7642 55.9958 79.8152H56Z" fill="#FFEBB8"/>
<path d="M56 81.4924V82.0699C56 82.1039 56.017 82.1294 56.0467 82.1464L56.7983 82.5073C56.8365 82.5243 56.8705 82.4818 56.845 82.4479L56.0934 81.4627C56.0637 81.4245 56 81.4457 56 81.4924Z" fill="#FF7F00"/>
<rect x="13" y="62" width="37" height="13" rx="6.5" fill="#2F4553"/>
<path d="M28.6228 70H27.5908V67.318L26.9188 67.996L26.3308 67.378L27.7288 65.998H28.6228V70ZM32.3864 70H29.2484V69.196C30.9824 67.942 31.3064 67.666 31.3064 67.27C31.3064 66.994 31.0484 66.85 30.7544 66.85C30.3104 66.85 29.9744 67.018 29.6864 67.288L29.1164 66.604C29.5424 66.136 30.1784 65.938 30.7364 65.938C31.6784 65.938 32.3564 66.466 32.3564 67.27C32.3564 67.882 31.9184 68.404 30.9224 69.1H32.3864V70ZM35.7369 70H34.7229L34.1649 69.124L33.6009 70H32.5929L33.5829 68.512L32.6529 67.102H33.6669L34.1649 67.888L34.6569 67.102H35.6709L34.7469 68.512L35.7369 70Z" fill="white"/>
<path d="M8.03 11H7.215L6.56 9.815H6.04V11H5.33V7.665H6.89C7.585 7.665 8.01 8.12 8.01 8.74C8.01 9.33 7.64 9.645 7.28 9.73L8.03 11ZM6.785 9.19C7.07 9.19 7.285 9.02 7.285 8.74C7.285 8.46 7.07 8.29 6.785 8.29H6.04V9.19H6.785ZM10.5152 11H9.88023V10.75C9.71523 10.945 9.43023 11.06 9.11523 11.06C8.73023 11.06 8.27523 10.8 8.27523 10.26C8.27523 9.695 8.73023 9.48 9.11523 9.48C9.43523 9.48 9.72023 9.585 9.88023 9.775V9.45C9.88023 9.205 9.67023 9.045 9.35023 9.045C9.09023 9.045 8.85023 9.14 8.64523 9.33L8.40523 8.905C8.70023 8.645 9.08023 8.525 9.46023 8.525C10.0102 8.525 10.5152 8.745 10.5152 9.44V11ZM9.37023 10.63C9.57523 10.63 9.77523 10.56 9.88023 10.42V10.12C9.77523 9.98 9.57523 9.91 9.37023 9.91C9.12023 9.91 8.91523 10.04 8.91523 10.275C8.91523 10.5 9.12023 10.63 9.37023 10.63ZM11.7801 11H11.1451V8.585H11.7801V8.915C11.9501 8.7 12.2501 8.525 12.5501 8.525V9.145C12.5051 9.135 12.4451 9.13 12.3751 9.13C12.1651 9.13 11.8851 9.25 11.7801 9.405V11ZM14.0818 11.06C13.3468 11.06 12.7918 10.565 12.7918 9.79C12.7918 9.09 13.3068 8.525 14.0418 8.525C14.7618 8.525 15.2518 9.065 15.2518 9.855V9.995H13.4568C13.4968 10.3 13.7418 10.555 14.1518 10.555C14.3568 10.555 14.6418 10.465 14.7968 10.315L15.0768 10.725C14.8368 10.945 14.4568 11.06 14.0818 11.06ZM14.6368 9.565C14.6218 9.335 14.4618 9.03 14.0418 9.03C13.6468 9.03 13.4768 9.325 13.4468 9.565H14.6368Z" fill="#05080A"/>
<path d="M48.7601 11H48.3081L46.9161 9.096V11H46.4481V8.332H46.9281L48.2921 10.184V8.332H48.7601V11ZM50.187 11.048C49.575 11.048 49.195 10.588 49.195 10.032C49.195 9.48 49.575 9.02 50.187 9.02C50.807 9.02 51.183 9.48 51.183 10.032C51.183 10.588 50.807 11.048 50.187 11.048ZM50.187 10.676C50.547 10.676 50.747 10.376 50.747 10.032C50.747 9.692 50.547 9.392 50.187 9.392C49.831 9.392 49.631 9.692 49.631 10.032C49.631 10.376 49.831 10.676 50.187 10.676ZM51.8044 11.044C51.6524 11.044 51.5244 10.916 51.5244 10.764C51.5244 10.612 51.6524 10.484 51.8044 10.484C51.9564 10.484 52.0844 10.612 52.0844 10.764C52.0844 10.916 51.9564 11.044 51.8044 11.044ZM54.4282 11.048C53.9522 11.048 53.6002 10.856 53.4202 10.616L53.6722 10.308C53.8442 10.508 54.1282 10.632 54.4122 10.632C54.7642 10.632 54.9682 10.472 54.9682 10.224C54.9682 9.96 54.7562 9.848 54.3762 9.848C54.2642 9.848 54.1082 9.848 54.0682 9.852V9.432C54.1162 9.436 54.2722 9.436 54.3762 9.436C54.6882 9.436 54.9242 9.328 54.9242 9.084C54.9242 8.836 54.6842 8.708 54.3842 8.708C54.1122 8.708 53.8882 8.812 53.6962 9.004L53.4562 8.712C53.6602 8.472 53.9842 8.292 54.4282 8.292C55.0042 8.292 55.3922 8.564 55.3922 9.012C55.3922 9.368 55.0882 9.576 54.8122 9.624C55.0722 9.648 55.4322 9.86 55.4322 10.272C55.4322 10.724 55.0442 11.048 54.4282 11.048ZM57.7531 11H55.8211V10.632C56.8571 9.848 57.2611 9.5 57.2611 9.116C57.2611 8.836 57.0211 8.708 56.7771 8.708C56.4651 8.708 56.2251 8.836 56.0571 9.028L55.7851 8.72C56.0211 8.436 56.3971 8.292 56.7691 8.292C57.2851 8.292 57.7371 8.584 57.7371 9.116C57.7371 9.608 57.2851 10.048 56.5691 10.588H57.7531V11Z" fill="white"/>
<defs>
<linearGradient id="paint0_linear_26835_29195" x1="31.5" y1="37.21" x2="31.5" y2="9.81" gradientUnits="userSpaceOnUse">
<stop stop-color="#047BFF"/>
<stop offset="0.27" stop-color="#0B68CB"/>
<stop offset="1" stop-color="#213743"/>
</linearGradient>
<clipPath id="clip0_26835_29195">
<rect width="63" height="88" fill="white"/>
</clipPath>
</defs>
</svg>
