<svg width="63" height="88" viewBox="0 0 63 88" fill="none" xmlns="http://www.w3.org/2000/svg">
<rect width="63" height="88" rx="4" fill="#1CE61C"/>
<path d="M36.7008 13.5133L44.7992 3.48665C45.5586 2.54645 46.7024 2 47.911 2H58C59.6569 2 61 3.34314 61 5V83C61 84.6569 59.6569 86 58 86H5C3.34315 86 2 84.6569 2 83V18C2 16.3431 3.34315 15 5 15H33.589C34.7976 15 35.9414 14.4536 36.7008 13.5133Z" fill="#213743"/>
<mask id="mask0_26835_29196" style="mask-type:luminance" maskUnits="userSpaceOnUse" x="0" y="0" width="63" height="88">
<path d="M59 0H4C1.79 0 0 1.79 0 4V84C0 86.21 1.79 88 4 88H59C61.21 88 63 86.21 63 84V4C63 1.79 61.21 0 59 0ZM61 82.81C61 84.57 59.57 86 57.81 86H5.19C3.43 86 2 84.57 2 82.81V18.19C2 16.43 3.43 15 5.19 15H33.59C34.8 15 35.94 14.45 36.7 13.51L44.8 3.48C45.56 2.54 46.7 1.99 47.91 1.99H57.81C59.57 1.99 61 3.42 61 5.18V82.8V82.81Z" fill="white"/>
</mask>
<g mask="url(#mask0_26835_29196)">
<path d="M68.37 47.3199V26.6399L4.46002 90.5499H25.13L68.37 47.3199Z" fill="white"/>
<path d="M64.66 -2.29004H55.22L-2.91998 55.84V66.18L65.46 -2.20004C65.2 -2.26004 64.93 -2.29004 64.66 -2.29004Z" fill="white"/>
<path d="M68.37 69.23V61.55L39.37 90.55H47.05L68.37 69.23Z" fill="white"/>
</g>
<rect x="5" y="18" width="53" height="40" rx="1" fill="#2F4553"/>
<g clip-path="url(#clip0_26835_29196)">
<g clip-path="url(#clip1_26835_29196)">
<path d="M57 18H6C5.44772 18 5 18.4477 5 19V57C5 57.5523 5.44772 58 6 58H57C57.5523 58 58 57.5523 58 57V19C58 18.4477 57.5523 18 57 18Z" fill="#047BFF"/>
<path d="M33.53 51.3701C33.68 52.6001 34.02 53.7601 34.5 54.8301H56.77C57.65 52.8601 58.03 50.6301 57.74 48.3301C57.74 48.3301 57.3 43.3901 56.8 40.8101C55.5 34.2001 49.86 29.3901 43.18 30.2301C36.5 31.0701 32.33 37.1201 32.6 43.8501C32.71 46.5601 33.54 51.3701 33.54 51.3701H33.53Z" fill="#1A2C38"/>
<path d="M48.77 31.7699C48.77 31.7699 52.3 26.0999 53.85 26.7699C54.61 28.2699 56.03 32.3299 53.13 37.5499C50.94 35.3399 48.77 31.7699 48.77 31.7699Z" fill="#1A2C38"/>
<path d="M53.84 26.77C53.95 26.82 54.04 26.89 54.13 27C55.46 28.7 56.22 39.22 56.22 39.22C55.37 39.45 54.24 38.68 53.12 37.55C55.06 30.83 54.14 27.57 53.84 26.77Z" fill="#1A2C38"/>
<path d="M41.15 29.0499C41.23 29.0199 41.31 28.9699 41.36 28.8899L42.63 27.0399C42.72 26.9099 42.73 26.7499 42.65 26.6099C42.58 26.4799 42.44 26.3899 42.28 26.3899L40.73 26.4099L41.66 24.8899C41.78 24.6999 41.72 24.4399 41.52 24.3299C41.33 24.2099 41.07 24.2699 40.96 24.4699L39.65 26.6299C39.57 26.7599 39.57 26.9199 39.65 27.0499C39.72 27.1799 39.86 27.2599 40.01 27.2599L41.51 27.2399L40.69 28.4399C40.56 28.6299 40.61 28.8799 40.8 29.0099C40.91 29.0799 41.04 29.0999 41.16 29.0599L41.15 29.0499Z" fill="white"/>
<path d="M41.46 25.26C41.8853 25.26 42.23 24.9152 42.23 24.49C42.23 24.0647 41.8853 23.72 41.46 23.72C41.0347 23.72 40.69 24.0647 40.69 24.49C40.69 24.9152 41.0347 25.26 41.46 25.26Z" fill="white"/>
<path d="M46.77 29.7699C46.77 29.7699 50.3 24.0999 51.85 24.7699C52.61 26.2699 54.03 30.3299 51.13 35.5499C48.94 33.3399 46.77 29.7699 46.77 29.7699Z" fill="white"/>
<path d="M51.84 24.77C51.95 24.82 52.04 24.89 52.13 25C53.46 26.7 54.22 37.22 54.22 37.22C53.37 37.45 52.24 36.68 51.12 35.55C53.06 28.83 52.14 25.57 51.84 24.77Z" fill="#DFEAF0"/>
<path d="M31.53 49.3701C31.68 50.6001 32.02 51.7601 32.5 52.8301H54.77C55.65 50.8601 56.03 48.6301 55.74 46.3301C55.74 46.3301 55.3 41.3901 54.8 38.8101C53.5 32.2001 47.86 27.3901 41.18 28.2301C34.5 29.0701 30.33 35.1201 30.6 41.8501C30.71 44.5601 31.54 49.3701 31.54 49.3701H31.53Z" fill="white"/>
<path d="M30.49 44.8099C30.49 44.8099 33.28 44.1899 34.68 47.6699L31.56 48.1699L30.49 44.8099Z" fill="#DFEAF0"/>
<path d="M55.52 44.6299C55.52 44.6299 52.55 44.8599 49.82 48.2899L53.57 48.4999L55.52 44.6299Z" fill="#DFEAF0"/>
<path d="M30.77 38.6601C30.77 38.6601 29.35 28.9301 30.35 27.4201C31.35 25.9101 35.52 30.7401 35.52 30.7401C35.52 30.7401 34.01 37.6701 30.77 38.6701V38.6601Z" fill="white"/>
<path d="M43.27 42.9401C43.27 42.9401 41.07 43.4401 40.24 42.9001C39.41 42.3601 39.11 45.0001 42.87 44.4901C45.82 44.0901 46.12 42.7101 45.66 42.2601C45.2 41.8101 44.66 42.6501 43.27 42.9401Z" fill="#2F2D2A"/>
<path d="M39.95 42.2299L40.07 43.0399C40.11 43.2899 40.31 43.4799 40.57 43.4999C40.61 43.4999 40.65 43.4999 40.69 43.4999C40.69 43.3199 40.81 43.1699 40.99 43.1399C41.18 43.1099 41.36 43.2399 41.39 43.4399C41.39 43.4699 41.39 43.4999 41.39 43.5299C42.72 43.5299 43.97 43.2899 45.16 42.7999C45.39 42.6999 45.53 42.4599 45.49 42.2199L45.36 41.4099C43.61 42.2199 41.81 42.5199 39.95 42.2499V42.2299Z" fill="white"/>
<path d="M42.2 31.07C43 31.09 43.74 31.29 44.4 31.62C43.71 30.68 42.55 30.05 41.22 30.01C39.04 29.95 37.23 31.53 37.18 33.53C37.18 33.88 37.22 34.22 37.31 34.55C37.81 32.51 39.82 31.01 42.19 31.07H42.2Z" fill="#DFEAF0"/>
<path d="M41.6 40.7199C44.0466 40.7199 46.03 38.7365 46.03 36.2899C46.03 33.8432 44.0466 31.8599 41.6 31.8599C39.1534 31.8599 37.17 33.8432 37.17 36.2899C37.17 38.7365 39.1534 40.7199 41.6 40.7199Z" fill="#DDDFE5"/>
<path d="M41.88 40.14C44.3266 40.14 46.31 38.1566 46.31 35.71C46.31 33.2634 44.3266 31.28 41.88 31.28C39.4334 31.28 37.45 33.2634 37.45 35.71C37.45 38.1566 39.4334 40.14 41.88 40.14Z" fill="#504C47"/>
<path d="M42.06 39.3401C44.2747 39.3401 46.07 37.5447 46.07 35.3301C46.07 33.1154 44.2747 31.3201 42.06 31.3201C39.8453 31.3201 38.05 33.1154 38.05 35.3301C38.05 37.5447 39.8453 39.3401 42.06 39.3401Z" fill="#2F2D2A"/>
<path d="M40.75 38.1799C41.5177 38.1799 42.14 37.5576 42.14 36.7899C42.14 36.0222 41.5177 35.3999 40.75 35.3999C39.9823 35.3999 39.36 36.0222 39.36 36.7899C39.36 37.5576 39.9823 38.1799 40.75 38.1799Z" fill="white"/>
<path d="M43.85 35.92C44.1151 35.92 44.33 35.7051 44.33 35.44C44.33 35.1749 44.1151 34.96 43.85 34.96C43.5849 34.96 43.37 35.1749 43.37 35.44C43.37 35.7051 43.5849 35.92 43.85 35.92Z" fill="white"/>
<path d="M16.89 47.3601L5 48.9001V57.0001C5 57.5501 5.45 58.0001 6 58.0001H57C57.55 58.0001 58 57.5501 58 57.0001V47.4601L17.46 47.3401C17.27 47.3401 17.08 47.3401 16.89 47.3601Z" fill="#55DFFF"/>
<path d="M8.60001 49.34C8.60001 49.34 8.21001 49.36 8.43001 49.61C8.68001 49.89 19.76 51.69 21.27 51.76C22.78 51.83 29.71 51.14 30.11 51.08C30.51 51.02 30.59 50.81 29.83 50.7C29.07 50.59 18.76 48.74 18.76 48.74L8.60001 49.34Z" fill="#047BFF"/>
<path d="M8.34003 30.3901V49.4501C8.34003 49.5501 8.42003 49.6401 8.53003 49.6401L13.03 49.7401C13.32 49.7401 13.6 49.7401 13.89 49.7201L18.85 49.4301C19.01 49.4301 19.13 49.2901 19.12 49.1301L18.88 30.1401L13.4 28.6001L8.34003 30.3801V30.3901Z" fill="#8EA3B2"/>
<path d="M31.49 32.97C31.39 32.35 28.99 29.92 27.29 29.28C25.58 28.63 19.12 27.97 19.12 27.97L19 28.82C19 28.82 20.75 29.2 21.93 30.17C22.79 30.88 23.9 32.19 24.43 32.84C24.63 33.09 24.92 33.24 25.24 33.28C27.14 33.66 29.04 33.89 30.95 33.94C31.2 33.94 31.43 33.77 31.47 33.52C31.49 33.41 31.51 33.14 31.48 32.98L31.49 32.97Z" fill="#8EA3B2"/>
<path d="M23.25 29.31C23.31 28.98 24.04 29.16 24.97 29.33C25.9 29.5 26.64 29.74 26.58 30.07C26.52 30.4 26.36 30.76 25.43 30.59C24.5 30.42 23.19 29.64 23.25 29.31Z" fill="white"/>
<path d="M18.84 30.07C18.84 30.07 19 30.12 19 29.8C19 29.48 19 28.82 19 28.82C19 28.82 21.39 29.12 24.43 32.83C24.43 32.83 24.53 33.02 24.76 32.87C24.99 32.72 25.31 32.47 25.18 32.29C25.05 32.11 23.37 30.2 22.2 29.24C21.03 28.28 18.98 27.51 16.62 27.73C14.26 27.95 5.96 28.72 6.53 29.68C7.1 30.64 12.74 29.3 12.74 29.3L14.21 29.25L18.83 30.07H18.84Z" fill="#8EA3B2"/>
<path d="M25.12 32.94L25.2 32.27C25.2 32.22 25.26 32.18 25.31 32.19C27.34 32.51 29.25 32.75 30.99 32.85C31.03 32.85 31.07 32.89 31.07 32.93V33.56C31.07 33.61 31.03 33.66 30.97 33.66C29.35 33.6 27.37 33.36 25.19 33.03C25.15 33.03 25.12 32.98 25.12 32.94Z" fill="#1A2C38"/>
<path d="M13.33 29.28V32.23C13.33 32.23 13.31 33.17 13.73 31.88C14.15 30.59 18.88 30.86 18.88 30.14L13.33 29.28Z" fill="#557086"/>
<path d="M6.53003 29.6799C6.53003 29.6799 6.80003 29.9699 7.52003 29.8399C8.24003 29.7099 12.75 28.8699 13.56 28.9699C14.37 29.0699 19.67 29.8699 18.88 30.1299C18.09 30.3899 14.58 29.2699 13.09 29.5499C8.42003 30.4299 6.82003 30.8099 6.53003 29.6799Z" fill="#1A2C38"/>
<path d="M8.99998 27.6999C8.99998 27.6999 8.05998 25.4699 8.32998 24.9199C8.57998 24.4199 15.76 17.8499 19.27 16.4199C19.66 16.2599 20.09 16.2399 20.5 16.3599L24.09 17.4199C24.22 17.4599 24.28 17.6099 24.21 17.7299L23.88 18.2899C23.81 18.4099 23.7 18.4899 23.58 18.5399C22.07 19.0999 18.35 20.9799 16.67 22.8699L17.64 26.5499L8.98998 27.6999H8.99998Z" fill="#8EA3B2"/>
<path d="M12.82 25.9599C12.28 26.4299 10.66 27.7299 9.01001 27.6999C9.01001 27.6999 14.02 30.0399 17.66 26.5499L13.27 25.8399C13.11 25.8099 12.94 25.8599 12.82 25.9699V25.9599Z" fill="#1A2C38"/>
<path d="M8.34003 49.3399V41.8599C8.34003 41.8599 8.93003 43.0599 10.85 42.8399C12.77 42.6199 13.34 39.1799 13.34 39.1799L13.48 47.0099C13.48 47.0099 13.64 48.6699 12.98 48.8899C12.32 49.1099 9.26003 48.1299 8.34003 49.3399Z" fill="#557086"/>
<path d="M9.67999 28.97C9.67999 28.97 10.64 27.84 12.35 27.43C14.06 27.02 15.98 27.46 16.65 28.11L9.67999 28.96V28.97Z" fill="#8EA3B2"/>
<path d="M12.36 22.1699C12.36 22.1699 12.76 25.8699 13.73 25.2199C14.7 24.5699 16.68 23.0899 16.68 23.0899C16.68 23.0899 15.32 22.9499 14.65 22.6199C13.98 22.2899 12.35 22.1699 12.35 22.1699H12.36Z" fill="white"/>
<path d="M18.81 17.3599C17.58 17.9599 14.37 19.6399 12.52 21.7599C12.45 21.8399 12.5 21.9699 12.61 21.9799C13.09 22.0299 14.15 22.1499 14.66 22.3999C15.24 22.6899 16.34 22.8299 16.62 22.8699C16.66 22.8699 16.7 22.8699 16.73 22.8299C17.07 22.4799 19.33 20.2099 23.5 18.5899C23.61 18.5499 23.61 18.3999 23.5 18.3499C22.98 18.1199 21.73 17.6299 19.86 17.2399C19.51 17.1699 19.14 17.2099 18.82 17.3699L18.81 17.3599Z" fill="#557086"/>
<path d="M51.66 47.7299C51.27 46.8099 52.85 46.5099 53.25 45.8399C53.65 45.1699 54.69 44.3399 56.78 44.7199C58.87 45.0999 60.09 47.5899 59.11 48.2299C58.13 48.8699 53.88 49.3799 53.45 48.2299C53.45 48.2299 52.03 48.5899 51.66 47.7299Z" fill="white"/>
<path d="M32.72 46.47C32.78 47.56 31.56 47.93 30.04 48.02C28.52 48.11 26.43 48.02 26.36 46.93C26.29 45.84 27.98 44.71 29.5 44.62C31.02 44.53 32.65 45.39 32.72 46.48V46.47Z" fill="white"/>
<path d="M30.77 47.5699C30.77 47.5699 30.77 48.3799 31.24 48.4999C32 48.6899 33.72 47.8899 33.12 46.6699C32.34 45.0999 31.04 45.8499 31.04 45.8499L30.77 47.5699Z" fill="white"/>
<path d="M45.03 57.21C44.76 56.32 43.11 55.63 41.12 55.64C38.94 55.64 37.18 56.47 37.18 57.49C37.18 57.67 37.24 57.84 37.35 58H44.88C44.99 57.83 45.07 57.65 45.07 57.46C45.07 57.43 45.07 57.4 45.07 57.37C45.07 57.32 45.05 57.26 45.04 57.21H45.03Z" fill="#047BFF"/>
<path d="M35.02 43.0298L35.53 42.4098C35.56 42.3598 35.59 42.2998 35.61 42.2398L29.06 37.8398L28.39 38.9898C28.33 39.0998 28.29 39.2198 28.3 39.3498C28.35 40.3298 29.2 41.5898 30.55 42.5298C32.35 43.7798 34.35 44.0098 35.03 43.0298H35.02Z" fill="#FF5500"/>
<path d="M35.74 42.0399C36.12 41.0299 35.22 39.4199 33.57 38.2799C31.77 37.0299 29.77 36.7999 29.09 37.7799C28.96 37.9699 28.89 38.1799 28.87 38.4199C28.87 38.4899 28.87 38.5599 28.87 38.6299C28.92 39.6099 29.77 40.8699 31.12 41.8099C32.92 43.0599 34.92 43.2899 35.6 42.3099C35.62 42.2799 35.64 42.2499 35.66 42.2199C35.69 42.1699 35.72 42.1099 35.74 42.0499V42.0399Z" fill="#FFC200"/>
<path d="M33.24 38.0601C33.24 38.0601 35.94 41.0401 34.91 42.8001C36.62 42.2401 35.92 39.6901 33.24 38.0601Z" fill="#FFEBB8"/>
<path d="M31.74 38.3299C31.86 38.3599 31.98 38.3799 32.1 38.4099C32.1 38.4099 32.1 38.4299 32.11 38.4399C32.18 38.5699 32.25 38.7099 32.32 38.8399C32.34 38.8899 32.34 38.8899 32.41 38.8999C32.58 38.9499 32.75 39.0099 32.93 39.0999C33.1 39.1799 33.25 39.2799 33.37 39.4199C33.46 39.5099 33.51 39.6099 33.55 39.6899C33.62 39.8399 33.59 39.9399 33.46 39.9799C33.46 39.9799 33.44 39.9799 33.43 39.9799C33.44 39.9799 33.45 39.9799 33.45 39.9899C33.52 40.0199 33.6 40.0499 33.67 40.0899C33.85 40.1799 34 40.2899 34.11 40.4299C34.22 40.5699 34.28 40.6999 34.3 40.8099C34.32 40.9099 34.3 40.9999 34.24 41.0499C34.16 41.1099 34.03 41.1199 33.89 41.1099C33.77 41.1099 33.65 41.0799 33.53 41.0599C33.5 41.0599 33.5 41.0599 33.51 41.0799C33.53 41.1199 33.55 41.1599 33.57 41.1999C33.63 41.3099 33.69 41.4299 33.75 41.5399L33.39 41.4599L33.14 40.9799C33.05 40.9599 32.96 40.9399 32.87 40.9199C32.85 40.9199 32.87 40.9299 32.87 40.9399C32.95 41.0899 33.03 41.2399 33.11 41.3899L32.75 41.3099L32.5 40.8299L31.77 40.6699C31.74 40.5699 31.7 40.4699 31.67 40.3599C31.67 40.3399 31.67 40.3499 31.69 40.3599C31.76 40.3799 31.84 40.3899 31.91 40.4099C32.01 40.4299 32.04 40.4099 32 40.3199C31.78 39.8999 31.56 39.4899 31.35 39.0699C31.3 38.9799 31.2 38.8999 31.09 38.8699C31.03 38.8499 30.97 38.8399 30.9 38.8299C30.87 38.8299 30.83 38.8099 30.8 38.8099L30.64 38.4999L31.37 38.6599L31.12 38.1899L31.48 38.2699C31.56 38.4199 31.63 38.5699 31.71 38.7099C31.71 38.7299 31.73 38.7299 31.75 38.7399C31.81 38.7499 31.87 38.7699 31.94 38.7799C31.96 38.7799 31.99 38.7899 32.01 38.7999L31.77 38.3399L31.74 38.3299ZM32.67 40.5799C32.78 40.6099 32.89 40.6299 33 40.6499C33.14 40.6799 33.28 40.6999 33.39 40.6899C33.46 40.6899 33.53 40.6699 33.54 40.6099C33.57 40.4999 33.43 40.3299 33.23 40.2199C33.08 40.1399 32.94 40.0799 32.8 40.0499C32.65 40.0099 32.51 39.9799 32.37 39.9499C32.33 39.9499 32.33 39.9499 32.35 39.9699C32.45 40.1599 32.55 40.3499 32.65 40.5399C32.65 40.5399 32.65 40.5599 32.67 40.5699V40.5799ZM32.03 39.3599C32.08 39.4499 32.12 39.5399 32.17 39.6299C32.17 39.6399 32.18 39.6499 32.2 39.6599C32.39 39.6999 32.57 39.7499 32.74 39.7499C32.82 39.7499 32.88 39.7299 32.9 39.6799C32.94 39.5999 32.83 39.4399 32.67 39.3399C32.55 39.2599 32.42 39.2099 32.3 39.1799C32.17 39.1399 32.04 39.1199 31.91 39.0799C31.88 39.0799 31.88 39.0799 31.89 39.0999C31.94 39.1899 31.98 39.2699 32.03 39.3599Z" fill="white"/>
<path d="M43.37 56.9699L43.43 56.2799C43.43 56.2299 43.41 56.1699 43.4 56.1199L35.55 56.2499L35.66 57.3899C35.67 57.4999 35.71 57.5999 35.79 57.6899C36.38 58.3499 37.79 58.8199 39.44 58.8099C41.62 58.8099 43.38 57.9799 43.38 56.9599L43.37 56.9699Z" fill="#FF5500"/>
<path d="M43.39 55.92C43.12 55.03 41.47 54.34 39.48 54.35C37.3 54.35 35.54 55.18 35.54 56.2C35.54 56.39 35.61 56.58 35.73 56.76C35.76 56.81 35.8 56.86 35.84 56.91C36.43 57.57 37.84 58.04 39.49 58.03C41.67 58.03 43.43 57.2 43.43 56.18C43.43 56.15 43.43 56.12 43.43 56.09C43.43 56.04 43.41 55.98 43.4 55.93L43.39 55.92Z" fill="#FFC200"/>
<path d="M43.81 55.4599L43.87 54.7699C43.87 54.7199 43.85 54.6599 43.84 54.6099L35.99 54.7399L36.1 55.8799C36.11 55.9899 36.15 56.0899 36.23 56.1799C36.82 56.8399 38.23 57.3099 39.88 57.2999C42.06 57.2999 43.82 56.4699 43.82 55.4499L43.81 55.4599Z" fill="#FF5500"/>
<path d="M43.84 54.41C43.57 53.52 41.92 52.83 39.93 52.84C37.75 52.84 35.99 53.6699 35.99 54.6899C35.99 54.8799 36.06 55.07 36.18 55.25C36.21 55.3 36.25 55.35 36.29 55.4C36.88 56.06 38.29 56.53 39.94 56.52C42.12 56.52 43.88 55.6899 43.88 54.6699C43.88 54.6399 43.88 54.61 43.88 54.58C43.88 54.53 43.86 54.4699 43.85 54.4199L43.84 54.41Z" fill="#FFC200"/>
<path d="M57.09 54.43C56.82 53.54 55.17 52.85 53.18 52.86C51 52.86 49.24 53.69 49.24 54.71C49.24 54.9 49.31 55.09 49.43 55.27C49.46 55.32 49.5 55.37 49.54 55.42C50.13 56.08 51.54 56.55 53.19 56.54C55.37 56.54 57.13 55.71 57.13 54.69C57.13 54.66 57.13 54.63 57.13 54.6C57.13 54.55 57.11 54.49 57.1 54.44L57.09 54.43Z" fill="#047BFF"/>
<path d="M55.97 54.4198L56.03 53.7298C56.03 53.6798 56.01 53.6198 56 53.5698L48.15 53.6998L48.26 54.8398C48.27 54.9498 48.31 55.0498 48.39 55.1398C48.98 55.7998 50.39 56.2698 52.04 56.2598C54.22 56.2598 55.98 55.4298 55.98 54.4098L55.97 54.4198Z" fill="#FF5500"/>
<path d="M55.99 53.3699C55.72 52.4799 54.07 51.7899 52.08 51.7999C49.9 51.7999 48.14 52.6299 48.14 53.6499C48.14 53.8399 48.21 54.0299 48.33 54.2099C48.36 54.2599 48.4 54.3099 48.44 54.3599C49.03 55.0199 50.44 55.4899 52.09 55.4799C54.27 55.4799 56.03 54.6499 56.03 53.6299C56.03 53.5999 56.03 53.5699 56.03 53.5399C56.03 53.4899 56.01 53.4299 56 53.3799L55.99 53.3699Z" fill="#FFC200"/>
</g>
</g>
<path fill-rule="evenodd" clip-rule="evenodd" d="M6.49771 79C6.98969 79 7.48602 79.213 7.49037 79.6913C7.49037 80.1043 7.24656 80.2696 6.99839 80.2696C6.75023 80.2696 6.73281 80.1435 6.73281 80.1435C6.73281 80.1435 7.02452 79.9261 7.02452 79.7174C7.02452 79.6087 6.94179 79.313 6.489 79.3174C5.8577 79.3174 5.5181 79.6174 5.5181 80.1522C5.5181 80.7652 7.35105 80.9739 7.3554 81.7652C7.3554 82.613 6.47594 82.9957 5.69225 83C5.283 83 5.01306 82.7609 5.00871 82.3783C5.00871 81.9261 5.22204 81.4652 5.75756 81.4652C5.88382 81.4565 5.98831 81.5522 5.99702 81.6783C5.99702 81.6783 5.99702 81.6826 5.99702 81.687C5.99702 81.687 5.45715 81.8391 5.4615 82.3783C5.4615 82.4783 5.56599 82.6609 5.81851 82.6565C6.07103 82.6522 6.82424 82.4739 6.81989 81.8087C6.81989 81.1913 5.00435 81.1087 5 80.1478C5 79.0652 6.08845 79.0087 6.49771 79.0087V79ZM10.747 79.6C10.8123 79.5696 11.2129 79.4913 11.1955 79.813C11.1824 80.1348 10.9386 80.6913 10.9037 80.9348C11.2303 80.7696 11.6918 80.2087 11.6918 80.2087C11.6918 80.2087 12.0183 80.2522 11.9182 80.4522C11.818 80.6522 11.1519 81.1435 11.1519 81.1435C11.1519 81.1435 11.3043 82.5696 12.1707 82.5696C12.6453 82.5696 12.8499 82.3609 12.937 82.287C12.9587 82.2696 12.9762 82.2652 12.9849 82.2783C13.0197 82.387 12.9936 82.5043 12.9152 82.5913C12.8194 82.6957 12.5974 82.8217 12.1533 82.8261C11.3653 82.8261 10.9255 82.1957 10.8123 81.2609C10.7252 81.5348 10.7339 81.9826 10.7209 82.2C10.6948 82.2435 10.2507 82.4174 10.2158 82.1174C10.2158 82.0913 10.2158 82.0696 10.2158 82.0435C10.1331 82.1609 10.0199 82.2826 9.91108 82.2826C9.71951 82.2826 9.63679 82.1217 9.60196 82.0391C9.57584 82.0696 9.3625 82.287 9.08821 82.287C8.92277 82.2913 8.77474 82.1957 8.70943 82.0435C8.57011 82.1435 8.32195 82.2913 8.03895 82.2913C7.73418 82.2913 7.66017 82.1087 7.66017 81.9565C7.66017 81.713 7.84303 80.987 7.84303 80.987C7.84303 80.987 7.48602 81.1304 7.36411 81.1348C7.19431 81.1348 7.11159 80.8217 7.11159 80.813C7.11159 80.8087 7.11159 80.8 7.1203 80.8C7.22044 80.7609 7.94317 80.513 7.94317 80.513C7.94317 80.513 8.07813 79.9826 8.09555 79.913C8.11296 79.8435 8.2131 79.7 8.33065 79.6565C8.41773 79.6217 8.50916 79.6 8.60059 79.5913C8.63107 79.5913 8.65284 79.6 8.65284 79.6174C8.65284 79.6348 8.47433 80.4087 8.47433 80.4087C8.47433 80.4087 8.84876 80.3217 8.98808 80.3217C9.09692 80.3217 9.15352 80.387 9.09257 80.4696C9.03162 80.5522 8.96196 80.6478 8.92712 80.6913C8.88794 80.7348 8.86182 80.7435 8.77039 80.7609C8.64413 80.787 8.36113 80.8565 8.36113 80.8565C8.36113 80.8565 8.13473 81.6783 8.13909 81.8174C8.13909 81.8957 8.16521 81.987 8.26099 81.987C8.35678 81.987 8.53964 81.8739 8.67025 81.7913C8.69202 81.1522 9.18835 80.7261 9.57584 80.7261C9.7021 80.7261 9.65421 80.8478 9.79788 80.8478H9.88931C9.94591 80.8478 10.0069 80.8522 10.0069 80.9957C10.0069 81.1957 9.89367 81.5261 9.89367 81.7348C9.89367 81.8826 9.91544 81.987 9.97204 81.987C10.0678 81.987 10.1767 81.8478 10.255 81.7261C10.3813 81.0304 10.734 79.7609 10.734 79.6174L10.747 79.6ZM12.5016 80.7C12.7672 80.6783 12.9326 80.8217 12.9631 80.9C12.9936 80.9783 12.9892 81.1609 12.9152 81.2913C12.6845 81.7044 12.1097 81.6304 12.1097 81.6304C12.1097 81.6304 12.0444 81.9565 12.3405 81.9565C12.593 81.9565 12.7062 81.8304 12.8151 81.7261C12.8586 81.7261 12.9936 81.8652 12.9326 81.9609C12.8847 82.0348 12.6191 82.2565 12.2795 82.2609C11.7397 82.2609 11.6047 81.8 11.6744 81.4696C11.7658 81.0609 12.1751 80.7217 12.5016 80.6957V80.7ZM9.6455 80.987C9.32332 80.987 8.82699 81.9696 9.20577 81.9652C9.61938 81.9652 9.6455 81.1826 9.6455 81.0043V80.987ZM12.6409 80.8913C12.4232 80.9 12.1751 81.3174 12.1533 81.5C12.4798 81.513 12.654 81.1957 12.6757 81.0696C12.6888 80.9739 12.6932 80.887 12.6409 80.887V80.8913Z" fill="#557086"/>
<path d="M51.1444 79.3778L51.6412 80.278L52.6518 80.4733C52.7792 80.4988 52.8302 80.6559 52.741 80.7494L52.0361 81.5009L52.1635 82.5243C52.1805 82.6559 52.0446 82.7494 51.93 82.6942L51 82.2568L50.0701 82.6942C49.9512 82.7494 49.8196 82.6517 49.8366 82.5243L49.9639 81.5009L49.2591 80.7494C49.1699 80.6559 49.2208 80.4988 49.3482 80.4733L50.3588 80.278L50.8557 79.3778C50.9194 79.2632 51.085 79.2632 51.1444 79.3778Z" fill="#FFC200"/>
<path d="M51 79.2929C51.0552 79.2929 51.1147 79.3226 51.1444 79.3778L51.6412 80.278L52.6518 80.4733C52.7792 80.4988 52.8302 80.6559 52.741 80.7494L52.0361 81.5009L52.1635 82.5243C52.1763 82.6262 52.0955 82.7111 51.9979 82.7111C51.9766 82.7111 51.9512 82.7069 51.9257 82.6942L50.9957 82.2568L50.0658 82.6942C50.0403 82.7069 50.0191 82.7111 49.9936 82.7111C49.9002 82.7111 49.8153 82.6262 49.828 82.5243L49.9554 81.5009L49.2505 80.7494C49.1613 80.6559 49.2123 80.4988 49.3397 80.4733L50.3503 80.278L50.8471 79.3778C50.8768 79.3226 50.9363 79.2929 50.9915 79.2929M51 79.0806C50.8641 79.0806 50.7367 79.157 50.6688 79.2759L50.2187 80.0912L49.3057 80.2653C49.1698 80.2908 49.0594 80.3884 49.017 80.5201C48.9745 80.6517 49.0085 80.7961 49.1019 80.8937L49.7388 81.5731L49.6242 82.4946C49.6115 82.6007 49.6454 82.7111 49.7134 82.7918C49.7856 82.8725 49.8875 82.9192 49.9979 82.9192C50.0531 82.9192 50.1083 82.9065 50.1592 82.881L51 82.4861L51.8408 82.881C51.8917 82.9065 51.9469 82.9192 52.0021 82.9192C52.1125 82.9192 52.2144 82.8725 52.2866 82.7918C52.3588 82.7111 52.3928 82.6007 52.3758 82.4946L52.2611 81.5731L52.8981 80.8937C52.9915 80.7918 53.0255 80.6474 52.983 80.5201C52.9405 80.3884 52.8301 80.2908 52.6943 80.2653L51.7813 80.0912L51.3312 79.2759C51.2633 79.157 51.1359 79.0806 51 79.0806Z" fill="#213743"/>
<path d="M51 79.8152V80.9744C51 81.0678 51.0892 81.1315 51.1784 81.106L52.2187 80.7706C52.2739 80.7536 52.2697 80.6729 52.2102 80.6602L51.5563 80.5413C51.4969 80.5286 51.4417 80.4903 51.4119 80.4351L51.085 79.7939C51.0637 79.7515 50.9958 79.7642 50.9958 79.8152H51Z" fill="#FFEBB8"/>
<path d="M51 81.4924V82.0699C51 82.1039 51.017 82.1294 51.0467 82.1464L51.7983 82.5073C51.8365 82.5243 51.8705 82.4818 51.845 82.4479L51.0934 81.4627C51.0637 81.4245 51 81.4457 51 81.4924Z" fill="#FF7F00"/>
<path d="M56.1444 79.3778L56.6412 80.278L57.6518 80.4733C57.7792 80.4988 57.8302 80.6559 57.741 80.7494L57.0361 81.5009L57.1635 82.5243C57.1805 82.6559 57.0446 82.7494 56.93 82.6942L56 82.2568L55.0701 82.6942C54.9512 82.7494 54.8196 82.6517 54.8366 82.5243L54.9639 81.5009L54.2591 80.7494C54.1699 80.6559 54.2208 80.4988 54.3482 80.4733L55.3588 80.278L55.8557 79.3778C55.9194 79.2632 56.085 79.2632 56.1444 79.3778Z" fill="#FFC200"/>
<path d="M56 79.2929C56.0552 79.2929 56.1147 79.3226 56.1444 79.3778L56.6412 80.278L57.6518 80.4733C57.7792 80.4988 57.8302 80.6559 57.741 80.7494L57.0361 81.5009L57.1635 82.5243C57.1763 82.6262 57.0955 82.7111 56.9979 82.7111C56.9766 82.7111 56.9512 82.7069 56.9257 82.6942L55.9957 82.2568L55.0658 82.6942C55.0403 82.7069 55.0191 82.7111 54.9936 82.7111C54.9002 82.7111 54.8153 82.6262 54.828 82.5243L54.9554 81.5009L54.2505 80.7494C54.1613 80.6559 54.2123 80.4988 54.3397 80.4733L55.3503 80.278L55.8471 79.3778C55.8768 79.3226 55.9363 79.2929 55.9915 79.2929M56 79.0806C55.8641 79.0806 55.7367 79.157 55.6688 79.2759L55.2187 80.0912L54.3057 80.2653C54.1698 80.2908 54.0594 80.3884 54.017 80.5201C53.9745 80.6517 54.0085 80.7961 54.1019 80.8937L54.7388 81.5731L54.6242 82.4946C54.6115 82.6007 54.6454 82.7111 54.7134 82.7918C54.7856 82.8725 54.8875 82.9192 54.9979 82.9192C55.0531 82.9192 55.1083 82.9065 55.1592 82.881L56 82.4861L56.8408 82.881C56.8917 82.9065 56.9469 82.9192 57.0021 82.9192C57.1125 82.9192 57.2144 82.8725 57.2866 82.7918C57.3588 82.7111 57.3928 82.6007 57.3758 82.4946L57.2611 81.5731L57.8981 80.8937C57.9915 80.7918 58.0255 80.6474 57.983 80.5201C57.9405 80.3884 57.8301 80.2908 57.6943 80.2653L56.7813 80.0912L56.3312 79.2759C56.2633 79.157 56.1359 79.0806 56 79.0806Z" fill="#213743"/>
<path d="M56 79.8152V80.9744C56 81.0678 56.0892 81.1315 56.1784 81.106L57.2187 80.7706C57.2739 80.7536 57.2697 80.6729 57.2102 80.6602L56.5563 80.5413C56.4969 80.5286 56.4417 80.4903 56.4119 80.4351L56.085 79.7939C56.0637 79.7515 55.9958 79.7642 55.9958 79.8152H56Z" fill="#FFEBB8"/>
<path d="M56 81.4924V82.0699C56 82.1039 56.017 82.1294 56.0467 82.1464L56.7983 82.5073C56.8365 82.5243 56.8705 82.4818 56.845 82.4479L56.0934 81.4627C56.0637 81.4245 56 81.4457 56 81.4924Z" fill="#FF7F00"/>
<rect x="13" y="62" width="37" height="13" rx="6.5" fill="#2F4553"/>
<path d="M28.6228 70H27.5908V67.318L26.9188 67.996L26.3308 67.378L27.7288 65.998H28.6228V70ZM32.3864 70H29.2484V69.196C30.9824 67.942 31.3064 67.666 31.3064 67.27C31.3064 66.994 31.0484 66.85 30.7544 66.85C30.3104 66.85 29.9744 67.018 29.6864 67.288L29.1164 66.604C29.5424 66.136 30.1784 65.938 30.7364 65.938C31.6784 65.938 32.3564 66.466 32.3564 67.27C32.3564 67.882 31.9184 68.404 30.9224 69.1H32.3864V70ZM35.7369 70H34.7229L34.1649 69.124L33.6009 70H32.5929L33.5829 68.512L32.6529 67.102H33.6669L34.1649 67.888L34.6569 67.102H35.6709L34.7469 68.512L35.7369 70Z" fill="white"/>
<path d="M8.03 11H7.215L6.56 9.815H6.04V11H5.33V7.665H6.89C7.585 7.665 8.01 8.12 8.01 8.74C8.01 9.33 7.64 9.645 7.28 9.73L8.03 11ZM6.785 9.19C7.07 9.19 7.285 9.02 7.285 8.74C7.285 8.46 7.07 8.29 6.785 8.29H6.04V9.19H6.785ZM10.5152 11H9.88023V10.75C9.71523 10.945 9.43023 11.06 9.11523 11.06C8.73023 11.06 8.27523 10.8 8.27523 10.26C8.27523 9.695 8.73023 9.48 9.11523 9.48C9.43523 9.48 9.72023 9.585 9.88023 9.775V9.45C9.88023 9.205 9.67023 9.045 9.35023 9.045C9.09023 9.045 8.85023 9.14 8.64523 9.33L8.40523 8.905C8.70023 8.645 9.08023 8.525 9.46023 8.525C10.0102 8.525 10.5152 8.745 10.5152 9.44V11ZM9.37023 10.63C9.57523 10.63 9.77523 10.56 9.88023 10.42V10.12C9.77523 9.98 9.57523 9.91 9.37023 9.91C9.12023 9.91 8.91523 10.04 8.91523 10.275C8.91523 10.5 9.12023 10.63 9.37023 10.63ZM11.7801 11H11.1451V8.585H11.7801V8.915C11.9501 8.7 12.2501 8.525 12.5501 8.525V9.145C12.5051 9.135 12.4451 9.13 12.3751 9.13C12.1651 9.13 11.8851 9.25 11.7801 9.405V11ZM14.0818 11.06C13.3468 11.06 12.7918 10.565 12.7918 9.79C12.7918 9.09 13.3068 8.525 14.0418 8.525C14.7618 8.525 15.2518 9.065 15.2518 9.855V9.995H13.4568C13.4968 10.3 13.7418 10.555 14.1518 10.555C14.3568 10.555 14.6418 10.465 14.7968 10.315L15.0768 10.725C14.8368 10.945 14.4568 11.06 14.0818 11.06ZM14.6368 9.565C14.6218 9.335 14.4618 9.03 14.0418 9.03C13.6468 9.03 13.4768 9.325 13.4468 9.565H14.6368Z" fill="#05080A"/>
<path d="M48.8421 11H48.3901L46.9981 9.096V11H46.5301V8.332H47.0101L48.3741 10.184V8.332H48.8421V11ZM50.269 11.048C49.657 11.048 49.277 10.588 49.277 10.032C49.277 9.48 49.657 9.02 50.269 9.02C50.889 9.02 51.265 9.48 51.265 10.032C51.265 10.588 50.889 11.048 50.269 11.048ZM50.269 10.676C50.629 10.676 50.829 10.376 50.829 10.032C50.829 9.692 50.629 9.392 50.269 9.392C49.913 9.392 49.713 9.692 49.713 10.032C49.713 10.376 49.913 10.676 50.269 10.676ZM51.8864 11.044C51.7344 11.044 51.6064 10.916 51.6064 10.764C51.6064 10.612 51.7344 10.484 51.8864 10.484C52.0384 10.484 52.1664 10.612 52.1664 10.764C52.1664 10.916 52.0384 11.044 51.8864 11.044ZM54.5103 11.048C54.0343 11.048 53.6823 10.856 53.5023 10.616L53.7543 10.308C53.9263 10.508 54.2103 10.632 54.4943 10.632C54.8463 10.632 55.0503 10.472 55.0503 10.224C55.0503 9.96 54.8383 9.848 54.4583 9.848C54.3463 9.848 54.1903 9.848 54.1503 9.852V9.432C54.1983 9.436 54.3543 9.436 54.4583 9.436C54.7703 9.436 55.0063 9.328 55.0063 9.084C55.0063 8.836 54.7663 8.708 54.4663 8.708C54.1943 8.708 53.9703 8.812 53.7783 9.004L53.5382 8.712C53.7423 8.472 54.0663 8.292 54.5103 8.292C55.0863 8.292 55.4743 8.564 55.4743 9.012C55.4743 9.368 55.1703 9.576 54.8943 9.624C55.1543 9.648 55.5143 9.86 55.5143 10.272C55.5143 10.724 55.1263 11.048 54.5103 11.048ZM56.8071 11.048C56.3311 11.048 55.9791 10.856 55.7991 10.616L56.0511 10.308C56.2231 10.508 56.5071 10.632 56.7911 10.632C57.1431 10.632 57.3471 10.472 57.3471 10.224C57.3471 9.96 57.1351 9.848 56.7551 9.848C56.6431 9.848 56.4871 9.848 56.4471 9.852V9.432C56.4951 9.436 56.6511 9.436 56.7551 9.436C57.0671 9.436 57.3031 9.328 57.3031 9.084C57.3031 8.836 57.0631 8.708 56.7631 8.708C56.4911 8.708 56.2671 8.812 56.0751 9.004L55.8351 8.712C56.0391 8.472 56.3631 8.292 56.8071 8.292C57.3831 8.292 57.7711 8.564 57.7711 9.012C57.7711 9.368 57.4671 9.576 57.1911 9.624C57.4511 9.648 57.8111 9.86 57.8111 10.272C57.8111 10.724 57.4231 11.048 56.8071 11.048Z" fill="white"/>
<defs>
<clipPath id="clip0_26835_29196">
<rect width="63" height="88" fill="white"/>
</clipPath>
<clipPath id="clip1_26835_29196">
<rect width="63" height="88" fill="white"/>
</clipPath>
</defs>
</svg>
