<svg width="63" height="88" viewBox="0 0 63 88" fill="none" xmlns="http://www.w3.org/2000/svg">
<rect width="63" height="88" rx="4" fill="#1CE61C"/>
<path d="M36.7008 13.5133L44.7992 3.48665C45.5586 2.54645 46.7024 2 47.911 2H58C59.6569 2 61 3.34314 61 5V83C61 84.6569 59.6569 86 58 86H5C3.34315 86 2 84.6569 2 83V18C2 16.3431 3.34315 15 5 15H33.589C34.7976 15 35.9414 14.4536 36.7008 13.5133Z" fill="#213743"/>
<mask id="mask0_26835_29197" style="mask-type:luminance" maskUnits="userSpaceOnUse" x="0" y="0" width="63" height="88">
<path d="M59 0H4C1.79 0 0 1.79 0 4V84C0 86.21 1.79 88 4 88H59C61.21 88 63 86.21 63 84V4C63 1.79 61.21 0 59 0ZM61 82.81C61 84.57 59.57 86 57.81 86H5.19C3.43 86 2 84.57 2 82.81V18.19C2 16.43 3.43 15 5.19 15H33.59C34.8 15 35.94 14.45 36.7 13.51L44.8 3.48C45.56 2.54 46.7 1.99 47.91 1.99H57.81C59.57 1.99 61 3.42 61 5.18V82.8V82.81Z" fill="white"/>
</mask>
<g mask="url(#mask0_26835_29197)">
<path d="M68.37 47.3199V26.6399L4.46002 90.5499H25.13L68.37 47.3199Z" fill="white"/>
<path d="M64.66 -2.29004H55.22L-2.91998 55.84V66.18L65.46 -2.20004C65.2 -2.26004 64.93 -2.29004 64.66 -2.29004Z" fill="white"/>
<path d="M68.37 69.23V61.55L39.37 90.55H47.05L68.37 69.23Z" fill="white"/>
</g>
<rect x="5" y="18" width="53" height="40" rx="1" fill="#2F4553"/>
<g clip-path="url(#clip0_26835_29197)">
<g clip-path="url(#clip1_26835_29197)">
<path d="M57 18H6C5.44772 18 5 18.4477 5 19V57C5 57.5523 5.44772 58 6 58H57C57.5523 58 58 57.5523 58 57V19C58 18.4477 57.5523 18 57 18Z" fill="url(#paint0_linear_26835_29197)"/>
<path d="M17.78 58C17.33 56.5 20.24 55.39 20.24 55.39C20.24 55.39 17.92 54.49 16.55 54.52C15.42 54.55 14.61 57.1 14.36 58H17.78Z" fill="#FFC200"/>
<path d="M15.4 45.2801C12.08 44.4901 9.28997 45.5001 19.77 46.8901C15.17 45.8901 11.48 45.0201 15.4 45.2801Z" fill="#213C47"/>
<path d="M15.43 47.9301C14.81 46.4701 20.96 47.1701 21.51 47.6001C22.06 48.0301 20.4 49.5501 20.27 50.2001C20.14 50.8501 14.25 50.9501 14.49 50.3101C14.82 49.4401 15.57 48.2501 15.43 47.9301Z" fill="#FFC200"/>
<path d="M20.96 51.59C21.45 49.82 16.62 50.67 16.19 51.2C15.76 51.73 17.06 53.57 17.17 54.36C17.28 55.15 22.26 55.94 21.94 55.28C21.62 54.62 20.86 51.99 20.96 51.59Z" fill="#FFC200"/>
<path d="M19.05 31.8999C16.34 31.3199 14.02 31.3599 13.19 31.9399C12.99 32.0799 10.98 33.2899 11.05 33.7099L13 33.2499L13.3 35.1199C13.24 36.1399 15.65 37.4899 18.68 38.1399C21.71 38.7899 25.62 37.9799 25.68 36.9699L24.33 37.3199L24.87 35.5299C24.98 35.1499 24.93 34.6499 24.76 34.4399C24.02 33.5299 21.76 32.4999 19.05 31.9199V31.8999Z" fill="#FFC200"/>
<path d="M24.2854 34.4496C24.3561 34.177 22.2727 33.4004 19.6319 32.7149C16.9911 32.0295 14.793 31.6949 14.7222 31.9675C14.6515 32.2402 16.7349 33.0168 19.3757 33.7022C22.0165 34.3876 24.2146 34.7223 24.2854 34.4496Z" fill="#FF5500"/>
<path d="M39.98 22.9701L38.48 21.5101C38.48 21.5101 38.38 21.4601 38.33 21.4901L35.24 23.3001C35.24 23.3001 35.2 23.3601 35.23 23.3801L36.73 25.0501C36.73 25.0501 36.8 25.0901 36.83 25.0601L39.97 23.1101C40.02 23.0801 40.03 23.0001 39.99 22.9601L39.98 22.9701Z" fill="white"/>
<path d="M37.7742 22.1195C37.776 22.1127 37.7835 22.1097 37.791 22.11L37.8392 22.112C37.8498 22.1124 37.8517 22.1177 37.8515 22.1262C37.8516 22.1373 37.8558 22.1571 37.8686 22.1708C37.8861 22.1894 37.9226 22.1932 37.9649 22.1627L38.2574 21.957C38.2634 21.9524 38.2729 21.9528 38.2776 21.9577L38.3284 22.0118C38.3335 22.0173 38.3317 22.0252 38.3257 22.0298L38.0332 22.2354C37.9474 22.2964 37.8719 22.3035 37.8056 22.233C37.7651 22.1898 37.7688 22.139 37.7742 22.1195Z" fill="#213C47"/>
<path d="M37.97 22.8999H37.27L37.18 23.1499L37.51 23.1299L37.48 23.3799L37.88 23.3399L37.97 22.8999Z" fill="#213C47"/>
<path d="M37.04 23.24L37.3 23.45L37.37 23.21L37.04 23.24Z" fill="#213C47"/>
<path d="M25.96 32.28L26.68 30.81C26.83 30.5 26.77 30.08 26.54 29.88C25.58 29.07 22.64 28.08 19.11 27.43C15.58 26.78 11.76 26.5 11.5 27.35C11.3 27.99 11.59 29.78 11.59 29.78C11.51 30.63 14.64 31.91 18.59 32.63C22.54 33.36 27.64 32.91 27.73 32.06L25.97 32.27L25.96 32.28Z" fill="#FFC200"/>
<path d="M25.26 29.6099C25.25 29.7299 20.04 30.1899 18.19 29.9099C17.5 29.8099 21.55 29.4699 20.71 29.3199C20.17 29.2299 19.6 29.1199 19.02 29.0099C15.13 28.2799 12 27.5399 12.02 27.3399C12.04 27.1399 15.28 27.0399 19.17 27.7699C23.06 28.4999 25.28 29.4099 25.26 29.5999V29.6099Z" fill="#FF5500"/>
<path d="M29.04 26.9601C28.16 25.7401 25.02 23.7201 21.11 21.9401C17.19 20.1501 13.69 19.1501 12.31 19.3301C11.98 19.3701 10.07 19.6601 10.07 20.0901L11.69 20.5101L11.67 22.4601C11.32 23.4201 14.6 25.8201 18.99 27.8201C23.38 29.8201 27.47 30.3401 27.82 29.3801L28.94 28.0801C29.21 27.7701 29.26 27.2601 29.04 26.9701V26.9601Z" fill="#FFC200"/>
<path d="M27.07 26.31C27.02 26.45 21.4 25.41 19.33 24.55C18.56 24.23 21.36 24.59 20.42 24.17C19.82 23.9 19.18 23.62 18.54 23.32C14.23 21.34 12.81 19.98 12.89 19.76C12.97 19.54 16.77 20.38 21.08 22.36C25.39 24.34 27.14 26.09 27.06 26.31H27.07Z" fill="#FF5500"/>
<path d="M22.58 16.3401C16.77 14.7701 11.7 13.9701 9.81 14.2601C9.36 14.3301 4.81 14.8501 4.9 15.2901L9.21 15.5201L9.59 17.5401C9.31 18.5601 14.37 20.8101 20.88 22.5701C27.39 24.3301 36.02 24.9201 36.3 23.9001L33.31 23.7701L34.74 22.1401C35.04 21.8001 35 21.2701 34.65 20.9801C33.17 19.7801 28.39 17.9101 22.58 16.3401Z" fill="#FFC200"/>
<path d="M33.91 21C33.87 21.15 23.72 19.92 20.67 19.17C19.53 18.89 26.38 19.37 25 19.01C24.1 18.77 23.17 18.52 22.21 18.26C15.81 16.51 10.67 14.9 10.73 14.67C10.79 14.44 16.24 15.03 22.65 16.78C29.05 18.53 33.98 20.77 33.92 21H33.91Z" fill="#FF5500"/>
<path d="M10.28 21.2501C4.00998 18.4301 -1.91002 19.3701 18.34 26.1001C9.60998 22.3601 2.61998 19.2401 10.28 21.2501Z" fill="white"/>
<path d="M27.64 29.2001C32.98 30.4201 36.43 33.7101 20.24 28.3601C27.58 30.1701 33.52 31.5401 27.64 29.2001Z" fill="white"/>
<path d="M20.59 37.03C20.59 37.03 20.02 38.55 17.85 38.86C17.85 38.86 14.85 38.28 13.77 38.82C12.87 39.28 14.51 42.07 15.46 43.17C15.65 43.39 14.38 43.17 14.59 43.39C14.97 43.77 20.4 45.23 22.65 43.66C22.65 43.66 24.49 39.95 23.24 39.53C21.99 39.11 21.3 39.09 21.3 39.09C21.3 39.09 23.33 37.93 23.48 36.52C23.63 35.11 20.58 37.04 20.58 37.04L20.59 37.03Z" fill="#FFC200"/>
<path d="M25.12 39.5C29.08 39.73 31.49 42.22 19.57 39.99C25.02 40.42 29.43 40.69 25.12 39.5Z" fill="white"/>
<path d="M12.75 36.2401C6.99 34.8201 2.11 36.5401 20.35 39.1101C12.36 37.2901 5.94 35.7201 12.75 36.2401Z" fill="white"/>
<path d="M29.19 39.19L30.21 36.55C30.3 36.33 30.28 36.08 30.16 35.87L27.4 31.05C27.35 30.96 27.21 30.97 27.18 31.08L26.47 33.91C26.46 33.97 26.47 34.02 26.49 34.08L29.06 39.2C29.09 39.26 29.17 39.25 29.19 39.2V39.19Z" fill="white"/>
<path d="M28.06 35.2L27.99 34.52L28.35 34.63L28.46 35.79L27.81 35.51L27.74 35.09L28.06 35.2Z" fill="#E9113C"/>
<path d="M27.1804 34.6129C27.1754 34.6237 27.1636 34.623 27.1561 34.6129L26.7705 34.0829C26.7665 34.0774 26.7652 34.0721 26.768 34.0659L26.7712 34.0589C26.7737 34.0535 26.7794 34.0515 26.7847 34.0521L27.3698 34.1497C27.3813 34.1513 27.3881 34.1629 27.3831 34.1737L27.3521 34.2408C27.3468 34.2524 27.3401 34.2568 27.3274 34.2538L27.2328 34.2335L27.1441 34.4258L27.2092 34.5101C27.2151 34.5175 27.2189 34.5295 27.2132 34.5419L27.1804 34.6129ZM27.0818 34.3417L27.1381 34.2198L26.953 34.1784L26.9523 34.1799L27.0818 34.3417Z" fill="#E9113C"/>
<path d="M18.82 42.9499C18.82 42.9499 18.49 44.0299 17.63 44.1399C16.77 44.2499 16.47 44.3399 16.55 45.1199C16.66 46.1999 17.53 48.0499 18.5 48.0499C19.47 48.0499 22.62 48.3799 23.27 47.6199C23.92 46.8599 24.35 45.1299 23.38 44.9099C22.41 44.6899 20.02 44.2599 20.02 44.2599L19.48 42.4199L18.83 42.9599L18.82 42.9499Z" fill="#FFC200"/>
<path d="M56.84 45.8099C57.18 47.0699 55.28 48.3699 53.39 50.2899C52.85 50.8399 52.59 52.2999 49.66 52.6399C47.67 52.8699 46.75 51.8199 46.42 51.1599C46.09 50.4999 49.36 49.4099 50.22 48.1999C51.08 46.9899 53.32 48.5199 54.88 47.3499C56.44 46.1799 56.71 45.3399 56.83 45.7999L56.84 45.8099Z" fill="#FFC200"/>
<path d="M53.6 48.3601C53.6 48.3601 53.6 50.6601 49.19 51.0401L49.38 50.5201L53.6 48.3601Z" fill="#FF5500"/>
<path d="M56.45 38.9701C57.33 39.2301 56.85 42.3201 55.71 44.9001C55.26 45.9101 54.08 47.5501 53.72 48.3701C52.82 50.4101 48.29 50.6401 47.73 50.0601C47.17 49.4801 50.27 47.2301 50.79 45.6701C51.31 44.1101 53.59 44.6701 54.86 42.9101C56.13 41.1501 56.18 38.8901 56.46 38.9701H56.45Z" fill="#FFC200"/>
<path d="M54 44.6799C54 44.6799 54.33 47.4399 49.79 50.0399V49.4899L54 44.6799Z" fill="#FF5500"/>
<path d="M51.92 34.5299C52.59 34.0599 54.54 37.0999 54.62 40.3899C54.66 41.9199 53.78 43.3199 53.98 44.0399C54.6 46.3099 49.37 50.3399 48.63 50.0299C47.89 49.7199 50.09 45.9399 50.03 44.1199C49.97 42.2999 52.06 42.0899 52.68 39.6999C53.3 37.3099 51.6 34.7699 51.93 34.5299H51.92Z" fill="#FFC200"/>
<path d="M49.43 45.41C49.43 45.41 50.23 43.34 51.1 43.4C51.97 43.46 51.67 45.98 49.78 47.19L49.44 45.41H49.43Z" fill="#416070"/>
<path d="M51.09 43.4001C50.92 43.3901 50.76 43.4601 50.61 43.5701L50.32 44.1601C50.32 44.1601 51.03 44.5901 51.3 45.3601C51.72 44.3601 51.61 43.4301 51.09 43.4001Z" fill="#1A2C38"/>
<path d="M53.28 51.8101C52.23 52.9201 50.52 53.9501 48.66 54.8301L49.51 58.0001H50.38L53.75 57.4901C55.48 56.6401 56.39 55.5601 56.39 55.5601L53.27 51.8201L53.28 51.8101Z" fill="#8EA3B2"/>
<path d="M53.53 52.1101L54.07 52.7601C54.07 52.7601 52.06 55.6201 46.65 57.4401L45.21 57.1601C45.21 57.1601 51.17 55.4901 53.52 52.1001L53.53 52.1101Z" fill="#CDD4D7"/>
<path d="M52.7 51.78C52.89 50.98 53.72 51.18 53.85 51.25C53.98 51.32 57.07 54.86 57.99 54.91C58.91 54.96 60.38 54.65 59.4 55.52C58.42 56.39 55.53 57.54 55.01 57.44C54.49 57.34 52.27 53.59 52.7 51.78Z" fill="white"/>
<path d="M53.71 51.4401C53.81 51.3501 55.3 53.6401 57.33 54.9401C57.37 54.9701 57.65 55.1601 57.38 55.1401C57.05 55.1201 55.83 54.5901 54.96 53.6201C54.09 52.6501 53.49 51.6301 53.7 51.4401H53.71Z" fill="#1A2C38"/>
<path d="M53.08 56.55C53.08 56.55 54.11 56.83 54.38 57.15C54.38 57.15 54.05 57.35 53.92 57.41C53.79 57.47 53.08 56.54 53.08 56.54V56.55Z" fill="#1A2C38"/>
<path d="M54.45 57.9999C54.45 57.9999 53.62 56.4499 52.89 56.4799C52.16 56.5099 50.38 57.9999 50.38 57.9999H54.45Z" fill="white"/>
<path d="M26.61 49.61C26.61 49.61 26.42 52.16 28.87 53.71C31.32 55.26 30.38 49.23 30.38 49.23L26.61 49.61Z" fill="#FF5500"/>
<path d="M31.58 39.4199C31.58 39.4199 32.71 30.6799 33.94 29.6099C35.17 28.5399 37.6 33.7199 37.6 33.7199C37.6 33.7199 34.62 39.3299 31.58 39.4099V39.4199Z" fill="white"/>
<path d="M49.85 42.3001C49.85 42.3001 51.54 34.0001 50.88 32.4001C50.22 30.8001 45.7 34.9201 45.7 34.9201C45.7 34.9201 47.75 42.2801 49.85 42.2901V42.3001Z" fill="white"/>
<path d="M49.52 58C50.08 53.51 50.37 46.41 49.94 42.02C49.14 35.7 46.18 32.42 41.1 32.05C36.02 31.68 32.09 35.24 31.24 40.57L27.23 57.99H49.51L49.52 58Z" fill="white"/>
<path d="M39.3 38.5801C39.25 40.4301 40.71 41.9701 42.56 42.0201C44.41 42.0701 45.95 40.6101 46 38.7601C46.05 36.9101 43.79 36.6601 41.94 36.6101C40.09 36.5601 39.36 36.7301 39.31 38.5801H39.3Z" fill="#DDDFE5"/>
<path d="M39.12 37.8599C38.92 39.6999 40.25 41.3499 42.09 41.5499C43.93 41.7499 45.58 40.4199 45.78 38.5799C45.98 36.7399 44.86 36.8499 43.02 36.6599C41.18 36.4699 39.32 36.0299 39.12 37.8699V37.8599Z" fill="#504C47"/>
<path d="M39.3 37.6701C39.16 39.3401 40.39 40.8101 42.06 40.9501C43.73 41.0901 45.18 40.0701 45.32 38.4001C45.46 36.7301 44.87 36.8001 43.2 36.6601C41.53 36.5201 39.44 36.0101 39.3 37.6801V37.6701Z" fill="#2F2D2A"/>
<path d="M41.85 38.7699C42.4299 38.7699 42.9 38.2998 42.9 37.7199C42.9 37.14 42.4299 36.6699 41.85 36.6699C41.2701 36.6699 40.8 37.14 40.8 37.7199C40.8 38.2998 41.2701 38.7699 41.85 38.7699Z" fill="white"/>
<path d="M40.57 39.3999C40.7744 39.3999 40.94 39.2343 40.94 39.0299C40.94 38.8256 40.7744 38.6599 40.57 38.6599C40.3657 38.6599 40.2 38.8256 40.2 39.0299C40.2 39.2343 40.3657 39.3999 40.57 39.3999Z" fill="white"/>
<path d="M37.76 53.8199C37.76 53.8199 38.16 55.1899 39.54 55.3899C40.92 55.5899 43.35 51.9099 45.52 51.1899C47.69 50.4699 49.6 49.0899 49.79 47.1799L37.76 53.8199Z" fill="#DFEAF0"/>
<path d="M40.43 35.29C41.23 35.93 45.38 35.99 45.78 36.66C45.04 35.75 42.54 34.72 40.43 35.29Z" fill="#DFEAF0"/>
<path d="M43.96 43.58C43.44 43.68 42.55 45.09 43.02 45.32C43.49 45.55 43.96 45.37 44.06 45.13C44.16 44.89 44.45 43.48 43.97 43.57L43.96 43.58Z" fill="#2F2D2A"/>
<path d="M28.63 51.96C29.55 51.5 31.43 50.35 32.71 48.25L29.1 50L28.63 51.97V51.96Z" fill="#DFEAF0"/>
<path d="M23.5 50.85C26.61 53.8 31.71 48.94 33.82 48.24C35.53 47.67 35.49 44.2 34.61 43.87C33.73 43.54 28.87 42.02 27.06 42.02C22.57 42.02 20.39 47.91 23.5 50.85Z" fill="white"/>
<path d="M50.01 42.78L50.06 43.38C50.04 43.18 50.03 42.98 50.01 42.78Z" fill="white"/>
<path d="M51.17 42.78C50.42 42.69 50 42.77 50 42.77L50.06 43.46C50.05 43.46 44.54 48.04 39.5 45.45C34.46 42.86 31.48 42.57 31.08 41.28L31.25 40.58V40.56C31.08 40.45 30.36 40 29.99 40.37C29.57 40.79 30.27 42.21 30.27 42.21C30.27 42.21 27.29 41.31 26.07 42.04C26.07 42.04 26.96 42.09 27.58 42.18C27.8 42.21 28.01 42.29 28.2 42.41C28.67 42.72 29.65 43.42 30.37 44.31C30.88 44.93 31.25 45.65 31.24 46.38C31.24 46.38 31.38 45.58 31.99 45.96C32.6 46.34 32.08 47.09 31.71 46.95C31.71 46.95 31.33 49.4 32.98 49.78C32.98 49.78 32.94 48.01 33.88 48.65C34.8 49.28 34.02 50.49 33.59 50.49C33.59 50.49 35.01 58.27 39.02 54.55C43.12 50.73 46.66 51.2 48.92 48.85C49.65 48.09 50.04 47.46 50.26 46.92C50.7 45.81 50.35 45.13 50.67 44.56C51.14 43.71 51.94 42.91 51.19 42.82L51.17 42.78Z" fill="#FF5500"/>
<path d="M30.25 42.25C30.25 42.25 34.21 46.27 35.53 48.39C36.85 50.51 39.09 51.32 43.11 49.25C47.13 47.18 41.95 49.59 40.07 49.59C37.95 49.59 37.54 49.53 35.76 47.35C33.98 45.17 30.76 42.41 30.25 42.24V42.25Z" fill="#1A2C38"/>
<path d="M26.88 46.7901C27.34 47.3201 28.46 48.4801 27.01 49.6601C26.85 49.7901 25.35 51.8001 24.8 51.3201C24.25 50.8401 24.83 47.5601 25.1 46.4001C25.37 45.2401 25.93 43.3101 26.35 43.3101C26.77 43.3101 26.1 45.9101 26.88 46.8001V46.7901Z" fill="#DFEAF0"/>
<path d="M50.03 43.04C50.03 43.04 51.27 42.59 50.06 43.45L50.03 43.04Z" fill="#1A2C38"/>
<path d="M48.62 42.23C48.62 42.23 48.22 41.65 48.81 41C48.81 41 49.31 41.88 48.62 42.23Z" fill="#FFC200"/>
<path d="M52.21 41.8501C52.21 41.8501 51.53 42.0201 51.12 41.2401C51.12 41.2401 52.11 41.0801 52.21 41.8501Z" fill="#FFEBB8"/>
<path d="M51.19 41.2301C48.56 41.9301 45.53 43.5301 44.19 44.4601C44.19 44.5101 44.17 44.5701 44.17 44.6201C44.17 44.5701 44.19 44.5201 44.19 44.4601C43.67 44.8201 43.28 45.1301 43.03 45.3301C43.26 45.4401 43.48 45.4501 43.66 45.4001C43.79 45.3001 43.92 45.2001 44.05 45.1001C46.28 43.4401 50.22 41.7001 51.2 41.2701C51.23 41.2601 51.21 41.2101 51.18 41.2201L51.19 41.2301Z" fill="#FFC200"/>
<path d="M46.83 43.17C46.83 43.17 47.88 42.64 48.34 43.56C48.34 43.56 47.55 44.09 46.83 43.17Z" fill="#FFC200"/>
<path d="M51.92 40.2699C51.92 40.2699 52.03 41.1299 51.15 41.2499C51.15 41.2499 51.15 40.2399 51.92 40.2699Z" fill="#FFEBB8"/>
<path d="M52.88 35.6701C52.86 35.2101 53.87 37.1201 53.8 37.5801C53.73 38.0401 52.95 37.1901 52.88 35.6701Z" fill="white"/>
<path d="M42.04 33.0699C41.96 33.0499 41.88 33.0099 41.82 32.9399L40.43 31.3099C40.34 31.1999 40.31 31.0399 40.36 30.9099C40.41 30.7699 40.54 30.6799 40.69 30.6699L42.16 30.5299L41.13 29.1799C41 29.0099 41.03 28.7599 41.2 28.6299C41.37 28.4999 41.62 28.5299 41.75 28.6999L43.22 30.6099C43.31 30.7199 43.33 30.8699 43.27 30.9999C43.21 31.1299 43.09 31.2199 42.95 31.2299L41.52 31.3699L42.42 32.4199C42.56 32.5799 42.54 32.8299 42.38 32.9699C42.28 33.0499 42.16 33.0799 42.04 33.0599V33.0699Z" fill="white"/>
<path d="M41.28 29.51C41.6887 29.51 42.02 29.1787 42.02 28.77C42.02 28.3613 41.6887 28.03 41.28 28.03C40.8713 28.03 40.54 28.3613 40.54 28.77C40.54 29.1787 40.8713 29.51 41.28 29.51Z" fill="white"/>
<mask id="mask1_26835_29197" style="mask-type:luminance" maskUnits="userSpaceOnUse" x="5" y="38" width="24" height="22">
<path d="M28.58 38.4199H5V59.1299H28.58V38.4199Z" fill="white"/>
</mask>
<g mask="url(#mask1_26835_29197)">
<path d="M24.08 49.8099C24.08 49.8099 22.91 50.4499 22.35 51.5399C21.79 52.6299 22.22 54.1999 20.67 53.4399C19.12 52.6799 17.01 51.5899 17.38 51.0799C17.75 50.5699 20.7 48.6599 22.05 49.0499C23.4 49.4399 24.08 49.8199 24.08 49.8199V49.8099Z" fill="#557086"/>
<path d="M-14.46 48.16C-8.49002 51.59 10.34 51.52 22.4 47.29L24.72 49.37C24.72 49.37 17.97 54.4 5.49998 55.97C-6.97002 57.54 -14.46 48.16 -14.46 48.16Z" fill="#8EA3B2"/>
<path d="M5.50996 55.9701C14.6 54.8301 20.65 51.8501 23.26 50.3101L22.32 49.6001C21.26 49.9801 19.96 49.7701 18.95 50.0901C17.87 50.4301 17.29 51.6701 16.26 51.9401C15.03 52.2701 13.36 51.6301 12.21 51.8801C10.39 52.2701 8.97996 53.6301 7.33996 53.8401C5.01996 54.1501 2.54996 53.2501 0.609963 53.2801C-1.70004 53.3301 -2.58004 54.3501 -4.34004 54.1601C-5.95004 53.9801 -8.48004 52.6001 -9.60004 52.3501C-6.16004 54.6101 -1.01004 56.7701 5.49996 55.9501L5.50996 55.9701Z" fill="#CDD4D7"/>
<path d="M22.52 50.6799C22.52 50.6799 19.23 48.8899 17.69 48.6599C17.59 48.6799 16.4 49.0399 16.31 49.0699C16.85 49.4299 19.73 49.8699 20.6 51.7199C21.32 51.3799 21.95 51.0499 22.49 50.7599C22.51 50.7199 22.53 50.6899 22.53 50.6899L22.52 50.6799Z" fill="#1A2C38"/>
<path d="M20.7 49.15C20.7 49.15 24.63 47.09 25.94 47.23C26.72 47.31 27.23 48.25 26.7 49.08C26.23 49.81 22.29 50.54 22.29 50.54L20.7 49.15Z" fill="#8EA3B2"/>
<path d="M25.65 48.46C25.54 48.23 25.37 47.68 25.31 47.29C25.25 47.3 25.19 47.31 25.13 47.33C24.93 48.1 24.59 49.67 25.06 49.88C25.32 49.8 25.58 49.71 25.8 49.63C25.8 49.63 26 49.19 25.65 48.47V48.46Z" fill="#1A2C38"/>
<path d="M25.59 40.73C28 39.2 24.75 48.19 25.5 49.63C26.91 52.32 28.94 53.39 26.85 53.93C24.76 54.47 20.38 48.8 16.98 49.05C13.58 49.3 19.49 47.09 21.11 45.48C22.73 43.87 24.44 41.46 25.59 40.72V40.73Z" fill="#8EA3B2"/>
<path d="M8.52999 53.5099L7.29999 55.7199C8.90999 55.4599 10.42 55.1499 11.81 54.8099L13.09 51.8399C12.77 51.8199 12.47 51.8399 12.2 51.8899C10.83 52.1899 9.69999 53.0199 8.52999 53.5099Z" fill="white"/>
<path d="M14.54 51.99L13.72 54.29C14.15 54.16 14.58 54.04 14.99 53.91L15.49 52.05C15.18 52.05 14.86 52.03 14.54 51.99Z" fill="white"/>
</g>
<path d="M11.81 48.3999C12.2 48.5199 12.5 48.7699 12.7 49.0799L12.37 49.3399L11.9 49.7099C11.73 49.8399 11.53 49.9099 11.33 49.9199C11.18 49.9199 11.04 49.8999 10.9 49.8299L9.88 49.3599C10.17 48.5799 11.02 48.1599 11.82 48.3999H11.81Z" fill="#ABC5D2"/>
<path d="M8.22002 46.1799C8.71155 46.1799 9.11002 45.7814 9.11002 45.2899C9.11002 44.7984 8.71155 44.3999 8.22002 44.3999C7.72848 44.3999 7.33002 44.7984 7.33002 45.2899C7.33002 45.7814 7.72848 46.1799 8.22002 46.1799Z" fill="#DFEAF0"/>
<path d="M12.3 43.1401C11.85 43.0001 11.58 42.5401 11.69 42.0801L12.21 42.1601C12.48 42.2001 12.73 42.3601 12.88 42.5901L13.13 42.9701C12.91 43.1501 12.6 43.2301 12.3 43.1401Z" fill="white"/>
<path d="M8.72002 44.94L12.1 42.6C12.4 42.4 12.8 42.47 13 42.77L14.17 44.55L15.21 46.14C15.45 46.5 15.37 46.98 15.03 47.25L12.37 49.3301L11.9 49.7C11.65 49.9 11.28 49.8301 11.1 49.5601L8.56002 45.78C8.37002 45.5 8.44002 45.12 8.72002 44.93V44.94Z" fill="#C7E2F0"/>
<path d="M8.72002 44.94L12.1 42.6C12.4 42.4 12.8 42.47 13 42.77L14.17 44.55L15.21 46.14C15.45 46.5 15.37 46.98 15.03 47.25L12.37 49.3301L11.9 49.7C11.65 49.9 11.28 49.8301 11.1 49.5601L8.56002 45.78C8.37002 45.5 8.44002 45.12 8.72002 44.93V44.94Z" fill="#DFEAF0"/>
<path d="M8.08999 47.0401L6.97999 45.4301C6.85999 45.2501 6.81999 45.0501 6.83999 44.8501L7.72999 45.1301C8.04999 45.2301 8.32999 45.4401 8.51999 45.7201L11.33 49.9101C11.18 49.9101 11.04 49.8901 10.9 49.8201L9.80999 49.3201C9.67999 49.2601 9.56999 49.1701 9.48999 49.0501L8.09999 47.0301L8.08999 47.0401Z" fill="#ABC5D2"/>
<path d="M10.1915 48.9997C10.2468 48.9631 10.1607 48.7356 9.99927 48.4914C9.83784 48.2472 9.66216 48.0789 9.60688 48.1155C9.55159 48.152 9.63764 48.3796 9.79907 48.6238C9.9605 48.8679 10.1362 49.0362 10.1915 48.9997Z" fill="#E9113C"/>
<path d="M8.37067 46.9101C8.42595 46.8735 8.3399 46.646 8.17847 46.4018C8.01704 46.1576 7.84136 45.9893 7.78607 46.0259C7.73079 46.0624 7.81684 46.29 7.97827 46.5342C8.1397 46.7783 8.31538 46.9466 8.37067 46.9101Z" fill="#E9113C"/>
<path d="M9.27252 48.0031C9.32781 47.9666 9.24176 47.739 9.08033 47.4948C8.9189 47.2506 8.74321 47.0823 8.68793 47.1189C8.63265 47.1554 8.7187 47.383 8.88013 47.6272C9.04156 47.8713 9.21724 48.0397 9.27252 48.0031Z" fill="#E9113C"/>
<path d="M7.70002 45.12L6.83002 44.85C6.86002 44.63 6.98002 44.41 7.18002 44.28L10.37 42.11C10.54 42 10.74 41.95 10.94 41.98L12.2 42.17C12.35 42.19 12.4 42.39 12.27 42.48L8.66002 44.98C8.38002 45.18 8.02002 45.23 7.69002 45.13L7.70002 45.12Z" fill="white"/>
<path d="M9.60621 43.4418C9.85038 43.2804 10.0187 43.1047 9.98214 43.0494C9.94559 42.9942 9.71802 43.0802 9.47385 43.2416C9.22968 43.4031 9.06137 43.5788 9.09792 43.634C9.13447 43.6893 9.36204 43.6033 9.60621 43.4418Z" fill="#E9113C"/>
<path d="M12.28 44.6901C12.5175 44.6901 12.71 44.4976 12.71 44.2601C12.71 44.0226 12.5175 43.8301 12.28 43.8301C12.0425 43.8301 11.85 44.0226 11.85 44.2601C11.85 44.4976 12.0425 44.6901 12.28 44.6901Z" fill="#C7E2F0"/>
<path d="M10.45 46.2201C10.6875 46.2201 10.88 46.0276 10.88 45.7901C10.88 45.5526 10.6875 45.3601 10.45 45.3601C10.2125 45.3601 10.02 45.5526 10.02 45.7901C10.02 46.0276 10.2125 46.2201 10.45 46.2201Z" fill="#C7E2F0"/>
<path d="M13.72 46.9C13.9575 46.9 14.15 46.7075 14.15 46.47C14.15 46.2326 13.9575 46.04 13.72 46.04C13.4825 46.04 13.29 46.2326 13.29 46.47C13.29 46.7075 13.4825 46.9 13.72 46.9Z" fill="#C7E2F0"/>
<path d="M11.89 48.4201C12.1275 48.4201 12.32 48.2275 12.32 47.9901C12.32 47.7526 12.1275 47.5601 11.89 47.5601C11.6525 47.5601 11.46 47.7526 11.46 47.9901C11.46 48.2275 11.6525 48.4201 11.89 48.4201Z" fill="#C7E2F0"/>
<path d="M12.09 46.56C12.3275 46.56 12.52 46.3674 12.52 46.13C12.52 45.8925 12.3275 45.7 12.09 45.7C11.8525 45.7 11.66 45.8925 11.66 46.13C11.66 46.3674 11.8525 46.56 12.09 46.56Z" fill="#C7E2F0"/>
<path d="M12.28 44.6901C12.5175 44.6901 12.71 44.4976 12.71 44.2601C12.71 44.0226 12.5175 43.8301 12.28 43.8301C12.0425 43.8301 11.85 44.0226 11.85 44.2601C11.85 44.4976 12.0425 44.6901 12.28 44.6901Z" fill="#E9113C"/>
<path d="M10.45 46.2201C10.6875 46.2201 10.88 46.0276 10.88 45.7901C10.88 45.5526 10.6875 45.3601 10.45 45.3601C10.2125 45.3601 10.02 45.5526 10.02 45.7901C10.02 46.0276 10.2125 46.2201 10.45 46.2201Z" fill="#E9113C"/>
<path d="M13.72 46.9C13.9575 46.9 14.15 46.7075 14.15 46.47C14.15 46.2326 13.9575 46.04 13.72 46.04C13.4825 46.04 13.29 46.2326 13.29 46.47C13.29 46.7075 13.4825 46.9 13.72 46.9Z" fill="#E9113C"/>
<path d="M11.89 48.4201C12.1275 48.4201 12.32 48.2275 12.32 47.9901C12.32 47.7526 12.1275 47.5601 11.89 47.5601C11.6525 47.5601 11.46 47.7526 11.46 47.9901C11.46 48.2275 11.6525 48.4201 11.89 48.4201Z" fill="#E9113C"/>
<path d="M12.09 46.56C12.3275 46.56 12.52 46.3674 12.52 46.13C12.52 45.8925 12.3275 45.7 12.09 45.7C11.8525 45.7 11.66 45.8925 11.66 46.13C11.66 46.3674 11.8525 46.56 12.09 46.56Z" fill="#E9113C"/>
<path d="M44.2 44.4601C43.68 44.8201 43.29 45.1301 43.04 45.3301C43.27 45.4401 43.49 45.4501 43.67 45.4001C43.78 45.3101 43.9 45.2201 44.02 45.1301C44.23 44.7901 44.51 44.4101 44.78 44.0701C44.56 44.2101 44.36 44.3301 44.2 44.4501V44.4601Z" fill="#FFC200"/>
<path d="M22.22 49.5199C22.72 50.0199 24.13 49.7399 24.32 49.3799C24.51 49.0199 24.82 46.8799 24.26 46.8799C23.7 46.8799 21.96 49.2699 22.22 49.5299V49.5199Z" fill="#557086"/>
<path d="M25.27 42.7999C25.15 43.3499 25.21 43.6399 25.36 43.6699C25.51 43.6999 25.67 43.4699 25.79 42.9099C25.91 42.3499 25.89 41.8899 25.74 41.8599C25.59 41.8299 25.39 42.2499 25.27 42.7999Z" fill="white"/>
</g>
</g>
<path fill-rule="evenodd" clip-rule="evenodd" d="M6.49771 79C6.98969 79 7.48602 79.213 7.49037 79.6913C7.49037 80.1043 7.24656 80.2696 6.99839 80.2696C6.75023 80.2696 6.73281 80.1435 6.73281 80.1435C6.73281 80.1435 7.02452 79.9261 7.02452 79.7174C7.02452 79.6087 6.94179 79.313 6.489 79.3174C5.8577 79.3174 5.5181 79.6174 5.5181 80.1522C5.5181 80.7652 7.35105 80.9739 7.3554 81.7652C7.3554 82.613 6.47594 82.9957 5.69225 83C5.283 83 5.01306 82.7609 5.00871 82.3783C5.00871 81.9261 5.22204 81.4652 5.75756 81.4652C5.88382 81.4565 5.98831 81.5522 5.99702 81.6783C5.99702 81.6783 5.99702 81.6826 5.99702 81.687C5.99702 81.687 5.45715 81.8391 5.4615 82.3783C5.4615 82.4783 5.56599 82.6609 5.81851 82.6565C6.07103 82.6522 6.82424 82.4739 6.81989 81.8087C6.81989 81.1913 5.00435 81.1087 5 80.1478C5 79.0652 6.08845 79.0087 6.49771 79.0087V79ZM10.747 79.6C10.8123 79.5696 11.2129 79.4913 11.1955 79.813C11.1824 80.1348 10.9386 80.6913 10.9037 80.9348C11.2303 80.7696 11.6918 80.2087 11.6918 80.2087C11.6918 80.2087 12.0183 80.2522 11.9182 80.4522C11.818 80.6522 11.1519 81.1435 11.1519 81.1435C11.1519 81.1435 11.3043 82.5696 12.1707 82.5696C12.6453 82.5696 12.8499 82.3609 12.937 82.287C12.9587 82.2696 12.9762 82.2652 12.9849 82.2783C13.0197 82.387 12.9936 82.5043 12.9152 82.5913C12.8194 82.6957 12.5974 82.8217 12.1533 82.8261C11.3653 82.8261 10.9255 82.1957 10.8123 81.2609C10.7252 81.5348 10.7339 81.9826 10.7209 82.2C10.6948 82.2435 10.2507 82.4174 10.2158 82.1174C10.2158 82.0913 10.2158 82.0696 10.2158 82.0435C10.1331 82.1609 10.0199 82.2826 9.91108 82.2826C9.71951 82.2826 9.63679 82.1217 9.60196 82.0391C9.57584 82.0696 9.3625 82.287 9.08821 82.287C8.92277 82.2913 8.77474 82.1957 8.70943 82.0435C8.57011 82.1435 8.32195 82.2913 8.03895 82.2913C7.73418 82.2913 7.66017 82.1087 7.66017 81.9565C7.66017 81.713 7.84303 80.987 7.84303 80.987C7.84303 80.987 7.48602 81.1304 7.36411 81.1348C7.19431 81.1348 7.11159 80.8217 7.11159 80.813C7.11159 80.8087 7.11159 80.8 7.1203 80.8C7.22044 80.7609 7.94317 80.513 7.94317 80.513C7.94317 80.513 8.07813 79.9826 8.09555 79.913C8.11296 79.8435 8.2131 79.7 8.33065 79.6565C8.41773 79.6217 8.50916 79.6 8.60059 79.5913C8.63107 79.5913 8.65284 79.6 8.65284 79.6174C8.65284 79.6348 8.47433 80.4087 8.47433 80.4087C8.47433 80.4087 8.84876 80.3217 8.98808 80.3217C9.09692 80.3217 9.15352 80.387 9.09257 80.4696C9.03162 80.5522 8.96196 80.6478 8.92712 80.6913C8.88794 80.7348 8.86182 80.7435 8.77039 80.7609C8.64413 80.787 8.36113 80.8565 8.36113 80.8565C8.36113 80.8565 8.13473 81.6783 8.13909 81.8174C8.13909 81.8957 8.16521 81.987 8.26099 81.987C8.35678 81.987 8.53964 81.8739 8.67025 81.7913C8.69202 81.1522 9.18835 80.7261 9.57584 80.7261C9.7021 80.7261 9.65421 80.8478 9.79788 80.8478H9.88931C9.94591 80.8478 10.0069 80.8522 10.0069 80.9957C10.0069 81.1957 9.89367 81.5261 9.89367 81.7348C9.89367 81.8826 9.91544 81.987 9.97204 81.987C10.0678 81.987 10.1767 81.8478 10.255 81.7261C10.3813 81.0304 10.734 79.7609 10.734 79.6174L10.747 79.6ZM12.5016 80.7C12.7672 80.6783 12.9326 80.8217 12.9631 80.9C12.9936 80.9783 12.9892 81.1609 12.9152 81.2913C12.6845 81.7044 12.1097 81.6304 12.1097 81.6304C12.1097 81.6304 12.0444 81.9565 12.3405 81.9565C12.593 81.9565 12.7062 81.8304 12.8151 81.7261C12.8586 81.7261 12.9936 81.8652 12.9326 81.9609C12.8847 82.0348 12.6191 82.2565 12.2795 82.2609C11.7397 82.2609 11.6047 81.8 11.6744 81.4696C11.7658 81.0609 12.1751 80.7217 12.5016 80.6957V80.7ZM9.6455 80.987C9.32332 80.987 8.82699 81.9696 9.20577 81.9652C9.61938 81.9652 9.6455 81.1826 9.6455 81.0043V80.987ZM12.6409 80.8913C12.4232 80.9 12.1751 81.3174 12.1533 81.5C12.4798 81.513 12.654 81.1957 12.6757 81.0696C12.6888 80.9739 12.6932 80.887 12.6409 80.887V80.8913Z" fill="#557086"/>
<path d="M51.1444 79.3778L51.6412 80.278L52.6518 80.4733C52.7792 80.4988 52.8302 80.6559 52.741 80.7494L52.0361 81.5009L52.1635 82.5243C52.1805 82.6559 52.0446 82.7494 51.93 82.6942L51 82.2568L50.0701 82.6942C49.9512 82.7494 49.8196 82.6517 49.8366 82.5243L49.9639 81.5009L49.2591 80.7494C49.1699 80.6559 49.2208 80.4988 49.3482 80.4733L50.3588 80.278L50.8557 79.3778C50.9194 79.2632 51.085 79.2632 51.1444 79.3778Z" fill="#FFC200"/>
<path d="M51 79.2929C51.0552 79.2929 51.1147 79.3226 51.1444 79.3778L51.6412 80.278L52.6518 80.4733C52.7792 80.4988 52.8302 80.6559 52.741 80.7494L52.0361 81.5009L52.1635 82.5243C52.1763 82.6262 52.0955 82.7111 51.9979 82.7111C51.9766 82.7111 51.9512 82.7069 51.9257 82.6942L50.9957 82.2568L50.0658 82.6942C50.0403 82.7069 50.0191 82.7111 49.9936 82.7111C49.9002 82.7111 49.8153 82.6262 49.828 82.5243L49.9554 81.5009L49.2505 80.7494C49.1613 80.6559 49.2123 80.4988 49.3397 80.4733L50.3503 80.278L50.8471 79.3778C50.8768 79.3226 50.9363 79.2929 50.9915 79.2929M51 79.0806C50.8641 79.0806 50.7367 79.157 50.6688 79.2759L50.2187 80.0912L49.3057 80.2653C49.1698 80.2908 49.0594 80.3884 49.017 80.5201C48.9745 80.6517 49.0085 80.7961 49.1019 80.8937L49.7388 81.5731L49.6242 82.4946C49.6115 82.6007 49.6454 82.7111 49.7134 82.7918C49.7856 82.8725 49.8875 82.9192 49.9979 82.9192C50.0531 82.9192 50.1083 82.9065 50.1592 82.881L51 82.4861L51.8408 82.881C51.8917 82.9065 51.9469 82.9192 52.0021 82.9192C52.1125 82.9192 52.2144 82.8725 52.2866 82.7918C52.3588 82.7111 52.3928 82.6007 52.3758 82.4946L52.2611 81.5731L52.8981 80.8937C52.9915 80.7918 53.0255 80.6474 52.983 80.5201C52.9405 80.3884 52.8301 80.2908 52.6943 80.2653L51.7813 80.0912L51.3312 79.2759C51.2633 79.157 51.1359 79.0806 51 79.0806Z" fill="#213743"/>
<path d="M51 79.8152V80.9744C51 81.0678 51.0892 81.1315 51.1784 81.106L52.2187 80.7706C52.2739 80.7536 52.2697 80.6729 52.2102 80.6602L51.5563 80.5413C51.4969 80.5286 51.4417 80.4903 51.4119 80.4351L51.085 79.7939C51.0637 79.7515 50.9958 79.7642 50.9958 79.8152H51Z" fill="#FFEBB8"/>
<path d="M51 81.4924V82.0699C51 82.1039 51.017 82.1294 51.0467 82.1464L51.7983 82.5073C51.8365 82.5243 51.8705 82.4818 51.845 82.4479L51.0934 81.4627C51.0637 81.4245 51 81.4457 51 81.4924Z" fill="#FF7F00"/>
<path d="M56.1444 79.3778L56.6412 80.278L57.6518 80.4733C57.7792 80.4988 57.8302 80.6559 57.741 80.7494L57.0361 81.5009L57.1635 82.5243C57.1805 82.6559 57.0446 82.7494 56.93 82.6942L56 82.2568L55.0701 82.6942C54.9512 82.7494 54.8196 82.6517 54.8366 82.5243L54.9639 81.5009L54.2591 80.7494C54.1699 80.6559 54.2208 80.4988 54.3482 80.4733L55.3588 80.278L55.8557 79.3778C55.9194 79.2632 56.085 79.2632 56.1444 79.3778Z" fill="#FFC200"/>
<path d="M56 79.2929C56.0552 79.2929 56.1147 79.3226 56.1444 79.3778L56.6412 80.278L57.6518 80.4733C57.7792 80.4988 57.8302 80.6559 57.741 80.7494L57.0361 81.5009L57.1635 82.5243C57.1763 82.6262 57.0955 82.7111 56.9979 82.7111C56.9766 82.7111 56.9512 82.7069 56.9257 82.6942L55.9957 82.2568L55.0658 82.6942C55.0403 82.7069 55.0191 82.7111 54.9936 82.7111C54.9002 82.7111 54.8153 82.6262 54.828 82.5243L54.9554 81.5009L54.2505 80.7494C54.1613 80.6559 54.2123 80.4988 54.3397 80.4733L55.3503 80.278L55.8471 79.3778C55.8768 79.3226 55.9363 79.2929 55.9915 79.2929M56 79.0806C55.8641 79.0806 55.7367 79.157 55.6688 79.2759L55.2187 80.0912L54.3057 80.2653C54.1698 80.2908 54.0594 80.3884 54.017 80.5201C53.9745 80.6517 54.0085 80.7961 54.1019 80.8937L54.7388 81.5731L54.6242 82.4946C54.6115 82.6007 54.6454 82.7111 54.7134 82.7918C54.7856 82.8725 54.8875 82.9192 54.9979 82.9192C55.0531 82.9192 55.1083 82.9065 55.1592 82.881L56 82.4861L56.8408 82.881C56.8917 82.9065 56.9469 82.9192 57.0021 82.9192C57.1125 82.9192 57.2144 82.8725 57.2866 82.7918C57.3588 82.7111 57.3928 82.6007 57.3758 82.4946L57.2611 81.5731L57.8981 80.8937C57.9915 80.7918 58.0255 80.6474 57.983 80.5201C57.9405 80.3884 57.8301 80.2908 57.6943 80.2653L56.7813 80.0912L56.3312 79.2759C56.2633 79.157 56.1359 79.0806 56 79.0806Z" fill="#213743"/>
<path d="M56 79.8152V80.9744C56 81.0678 56.0892 81.1315 56.1784 81.106L57.2187 80.7706C57.2739 80.7536 57.2697 80.6729 57.2102 80.6602L56.5563 80.5413C56.4969 80.5286 56.4417 80.4903 56.4119 80.4351L56.085 79.7939C56.0637 79.7515 55.9958 79.7642 55.9958 79.8152H56Z" fill="#FFEBB8"/>
<path d="M56 81.4924V82.0699C56 82.1039 56.017 82.1294 56.0467 82.1464L56.7983 82.5073C56.8365 82.5243 56.8705 82.4818 56.845 82.4479L56.0934 81.4627C56.0637 81.4245 56 81.4457 56 81.4924Z" fill="#FF7F00"/>
<rect x="13" y="62" width="37" height="13" rx="6.5" fill="#2F4553"/>
<path d="M28.6228 70H27.5908V67.318L26.9188 67.996L26.3308 67.378L27.7288 65.998H28.6228V70ZM32.3864 70H29.2484V69.196C30.9824 67.942 31.3064 67.666 31.3064 67.27C31.3064 66.994 31.0484 66.85 30.7544 66.85C30.3104 66.85 29.9744 67.018 29.6864 67.288L29.1164 66.604C29.5424 66.136 30.1784 65.938 30.7364 65.938C31.6784 65.938 32.3564 66.466 32.3564 67.27C32.3564 67.882 31.9184 68.404 30.9224 69.1H32.3864V70ZM35.7369 70H34.7229L34.1649 69.124L33.6009 70H32.5929L33.5829 68.512L32.6529 67.102H33.6669L34.1649 67.888L34.6569 67.102H35.6709L34.7469 68.512L35.7369 70Z" fill="white"/>
<path d="M8.03 11H7.215L6.56 9.815H6.04V11H5.33V7.665H6.89C7.585 7.665 8.01 8.12 8.01 8.74C8.01 9.33 7.64 9.645 7.28 9.73L8.03 11ZM6.785 9.19C7.07 9.19 7.285 9.02 7.285 8.74C7.285 8.46 7.07 8.29 6.785 8.29H6.04V9.19H6.785ZM10.5152 11H9.88023V10.75C9.71523 10.945 9.43023 11.06 9.11523 11.06C8.73023 11.06 8.27523 10.8 8.27523 10.26C8.27523 9.695 8.73023 9.48 9.11523 9.48C9.43523 9.48 9.72023 9.585 9.88023 9.775V9.45C9.88023 9.205 9.67023 9.045 9.35023 9.045C9.09023 9.045 8.85023 9.14 8.64523 9.33L8.40523 8.905C8.70023 8.645 9.08023 8.525 9.46023 8.525C10.0102 8.525 10.5152 8.745 10.5152 9.44V11ZM9.37023 10.63C9.57523 10.63 9.77523 10.56 9.88023 10.42V10.12C9.77523 9.98 9.57523 9.91 9.37023 9.91C9.12023 9.91 8.91523 10.04 8.91523 10.275C8.91523 10.5 9.12023 10.63 9.37023 10.63ZM11.7801 11H11.1451V8.585H11.7801V8.915C11.9501 8.7 12.2501 8.525 12.5501 8.525V9.145C12.5051 9.135 12.4451 9.13 12.3751 9.13C12.1651 9.13 11.8851 9.25 11.7801 9.405V11ZM14.0818 11.06C13.3468 11.06 12.7918 10.565 12.7918 9.79C12.7918 9.09 13.3068 8.525 14.0418 8.525C14.7618 8.525 15.2518 9.065 15.2518 9.855V9.995H13.4568C13.4968 10.3 13.7418 10.555 14.1518 10.555C14.3568 10.555 14.6418 10.465 14.7968 10.315L15.0768 10.725C14.8368 10.945 14.4568 11.06 14.0818 11.06ZM14.6368 9.565C14.6218 9.335 14.4618 9.03 14.0418 9.03C13.6468 9.03 13.4768 9.325 13.4468 9.565H14.6368Z" fill="#05080A"/>
<path d="M48.8187 11H48.3667L46.9747 9.096V11H46.5067V8.332H46.9867L48.3507 10.184V8.332H48.8187V11ZM50.2456 11.048C49.6336 11.048 49.2536 10.588 49.2536 10.032C49.2536 9.48 49.6336 9.02 50.2456 9.02C50.8656 9.02 51.2416 9.48 51.2416 10.032C51.2416 10.588 50.8656 11.048 50.2456 11.048ZM50.2456 10.676C50.6056 10.676 50.8056 10.376 50.8056 10.032C50.8056 9.692 50.6056 9.392 50.2456 9.392C49.8896 9.392 49.6896 9.692 49.6896 10.032C49.6896 10.376 49.8896 10.676 50.2456 10.676ZM51.863 11.044C51.711 11.044 51.583 10.916 51.583 10.764C51.583 10.612 51.711 10.484 51.863 10.484C52.015 10.484 52.143 10.612 52.143 10.764C52.143 10.916 52.015 11.044 51.863 11.044ZM54.4868 11.048C54.0108 11.048 53.6588 10.856 53.4788 10.616L53.7308 10.308C53.9028 10.508 54.1868 10.632 54.4708 10.632C54.8228 10.632 55.0268 10.472 55.0268 10.224C55.0268 9.96 54.8148 9.848 54.4348 9.848C54.3228 9.848 54.1668 9.848 54.1268 9.852V9.432C54.1748 9.436 54.3308 9.436 54.4348 9.436C54.7468 9.436 54.9828 9.328 54.9828 9.084C54.9828 8.836 54.7428 8.708 54.4428 8.708C54.1708 8.708 53.9468 8.812 53.7548 9.004L53.5148 8.712C53.7188 8.472 54.0428 8.292 54.4868 8.292C55.0628 8.292 55.4508 8.564 55.4508 9.012C55.4508 9.368 55.1468 9.576 54.8708 9.624C55.1308 9.648 55.4908 9.86 55.4908 10.272C55.4908 10.724 55.1028 11.048 54.4868 11.048ZM57.5317 11H57.0637V10.396H55.7917V10.02L56.8877 8.332H57.5317V9.984H57.8877V10.396H57.5317V11ZM57.0637 9.984V8.752L56.2517 9.984H57.0637Z" fill="white"/>
<defs>
<linearGradient id="paint0_linear_26835_29197" x1="31.5" y1="18.68" x2="31.5" y2="63.3" gradientUnits="userSpaceOnUse">
<stop stop-color="#2F4553"/>
<stop offset="1" stop-color="#E9113C"/>
</linearGradient>
<clipPath id="clip0_26835_29197">
<rect width="63" height="88" fill="white"/>
</clipPath>
<clipPath id="clip1_26835_29197">
<rect width="63" height="88" fill="white"/>
</clipPath>
</defs>
</svg>
