<svg width="63" height="88" viewBox="0 0 63 88" fill="none" xmlns="http://www.w3.org/2000/svg">
<rect width="63" height="88" rx="4" fill="#1CE61C"/>
<path d="M36.7008 13.5133L44.7992 3.48665C45.5586 2.54645 46.7024 2 47.911 2H58C59.6569 2 61 3.34314 61 5V83C61 84.6569 59.6569 86 58 86H5C3.34315 86 2 84.6569 2 83V18C2 16.3431 3.34315 15 5 15H33.589C34.7976 15 35.9414 14.4536 36.7008 13.5133Z" fill="#213743"/>
<mask id="mask0_26835_29198" style="mask-type:luminance" maskUnits="userSpaceOnUse" x="0" y="0" width="63" height="88">
<path d="M59 0H4C1.79 0 0 1.79 0 4V84C0 86.21 1.79 88 4 88H59C61.21 88 63 86.21 63 84V4C63 1.79 61.21 0 59 0ZM61 82.81C61 84.57 59.57 86 57.81 86H5.19C3.43 86 2 84.57 2 82.81V18.19C2 16.43 3.43 15 5.19 15H33.59C34.8 15 35.94 14.45 36.7 13.51L44.8 3.48C45.56 2.54 46.7 1.99 47.91 1.99H57.81C59.57 1.99 61 3.42 61 5.18V82.8V82.81Z" fill="white"/>
</mask>
<g mask="url(#mask0_26835_29198)">
<path d="M68.37 47.3199V26.6399L4.46002 90.5499H25.13L68.37 47.3199Z" fill="white"/>
<path d="M64.66 -2.29004H55.22L-2.91998 55.84V66.18L65.46 -2.20004C65.2 -2.26004 64.93 -2.29004 64.66 -2.29004Z" fill="white"/>
<path d="M68.37 69.23V61.55L39.37 90.55H47.05L68.37 69.23Z" fill="white"/>
</g>
<rect x="5" y="18" width="53" height="40" rx="1" fill="#2F4553"/>
<g clip-path="url(#clip0_26835_29198)">
<path d="M57 18H6C5.44772 18 5 18.4477 5 19V57C5 57.5523 5.44772 58 6 58H57C57.5523 58 58 57.5523 58 57V19C58 18.4477 57.5523 18 57 18Z" fill="url(#paint0_linear_26835_29198)"/>
<mask id="mask1_26835_29198" style="mask-type:luminance" maskUnits="userSpaceOnUse" x="5" y="18" width="53" height="40">
<path d="M57 18H6C5.44772 18 5 18.4477 5 19V57C5 57.5523 5.44772 58 6 58H57C57.5523 58 58 57.5523 58 57V19C58 18.4477 57.5523 18 57 18Z" fill="white"/>
</mask>
<g mask="url(#mask1_26835_29198)">
<path d="M15.87 39.1599C15.21 37.4399 14.57 35.4699 13.95 33.2799C13.88 33.0399 11.29 33.0599 11.22 32.8099C11.15 32.5699 13.61 32.0699 13.55 31.8199C13.18 30.4299 12.81 28.9599 12.45 27.4299C12.42 27.3199 11.01 27.5299 10.98 27.4299C10.94 27.2699 12.29 26.7799 12.25 26.6199C11.86 24.9299 11.47 23.1699 11.1 21.3499C11.06 21.1799 10.16 21.2299 10.12 21.0599C10.08 20.8599 10.91 20.4299 10.87 20.2199C10.54 18.5799 10.21 16.8999 9.87998 15.1799C9.13998 17.6099 8.40998 19.9999 7.67998 22.1399C7.65998 22.2099 8.55998 22.5799 8.52998 22.6499C8.50998 22.7199 7.44998 22.8099 7.42998 22.8799C6.72998 24.9099 6.14998 26.3799 5.47998 27.7299C5.38998 27.9099 7.26998 29.3499 7.17998 29.5099C7.05998 29.7299 4.95998 28.6799 4.83998 28.8699C4.71998 29.0599 4.59998 29.2299 4.47998 29.3899V37.2299C5.28998 37.6199 6.20998 37.9499 7.18998 38.2199C6.96998 40.1399 6.61998 42.7299 6.30998 43.1099C5.81998 43.7199 10.13 43.9499 10.13 43.9499C10.13 43.9499 9.96998 41.0199 9.94998 38.7999C11.71 39.0599 13.67 39.1899 15.85 39.1699L15.87 39.1599Z" fill="url(#paint1_linear_26835_29198)"/>
<path d="M54.7 54.7399C54.91 54.1899 55.11 53.5699 55.31 52.8699C55.33 52.7899 56.15 52.7999 56.18 52.7199C56.2 52.6399 55.4199 52.4799 55.4399 52.4099C55.5599 51.9699 55.68 51.4999 55.79 51.0099C55.79 50.9799 56.2499 51.0399 56.2599 51.0099C56.2699 50.9599 55.84 50.7999 55.86 50.7499C55.98 50.2099 56.1099 49.6499 56.2299 49.0699C56.2399 49.0199 56.4699 49.0299 56.4799 48.9799C56.4899 48.9199 56.29 48.7799 56.31 48.7099C56.42 48.1899 56.5199 47.6599 56.6199 47.1099C56.8499 47.8799 57.09 48.6399 57.32 49.3199C57.32 49.3399 57.18 49.4099 57.18 49.4299C57.18 49.4499 57.38 49.5399 57.38 49.5599C57.6 50.2099 57.7999 50.6599 58.0099 51.0899C58.0399 51.1499 57.44 51.5999 57.47 51.6599C57.51 51.7299 58.1699 51.3999 58.2099 51.4599C58.2499 51.5199 58.29 51.5799 58.32 51.6199V54.1099C58.06 54.2299 57.7699 54.3399 57.4599 54.4199C57.5299 55.0299 57.64 55.8499 57.74 55.9699C57.9 56.1599 56.5299 56.2399 56.5299 56.2399C56.5299 56.2399 56.58 55.3099 56.59 54.5999C56.03 54.6799 55.4099 54.7199 54.7099 54.7199L54.7 54.7399Z" fill="white"/>
<path d="M45.3 25.5499C47.14 25.4599 48.99 25.4899 50.83 25.6299C51.73 25.6999 52.64 25.7999 53.54 25.7399C53.83 25.7199 59.15 25.8799 59.38 25.7099C59.75 25.4499 54.84 24.7299 54.71 24.2999C54.58 23.8699 54.25 23.5299 53.9 23.2599C53.01 22.5899 51.68 22.3199 50.82 23.0299C50.64 22.0399 49.69 21.3199 48.69 21.1899C48.44 21.3399 48.19 21.4899 48.07 21.6199C47.54 22.2099 47.37 23.0399 47.81 23.7499C47.46 23.2599 46.75 23.4599 46.35 23.7899C45.8 24.2299 45.44 24.8699 45.3 25.5499Z" fill="#CCF8FF"/>
<path d="M44.14 25.62C44.52 25.59 44.91 25.57 45.29 25.55C45.43 24.86 45.79 24.23 46.34 23.79C46.74 23.47 47.46 23.26 47.8 23.75C47.36 23.04 47.53 22.21 48.06 21.62C48.18 21.49 48.43 21.34 48.68 21.19C48.48 21.16 48.28 21.16 48.08 21.19C46.77 21.35 46.24 22.47 45.2 23.05C44.17 23.63 43.33 23.79 43.36 24.93C43.37 25.34 43.72 25.65 44.13 25.62H44.14Z" fill="white"/>
<path d="M59.9 55.3198C59.9 55.3198 45.2 55.6198 37.97 60.5698L59.9 60.6698V55.3198Z" fill="white"/>
<path d="M4.48999 42.1199C4.48999 42.1199 29.97 44.3199 45.89 58.6599L4.48999 58.8999V42.1199Z" fill="url(#paint2_linear_26835_29198)"/>
<path d="M9.71997 61L16.79 46.81C16.79 46.81 16.7 46.12 16.23 46.53L9.08997 60.41L9.71997 60.99V61Z" fill="#FFC200"/>
<path d="M16.61 47.45C16.61 47.45 14.82 45.1 10.5 45.49C6.17996 45.87 6.60996 43.77 6.60996 43.77C6.60996 43.77 3.97996 47.78 7.98996 48.39C12 49 14.07 52.14 14.31 52.03C14.55 51.92 16.72 47.7 16.6 47.45H16.61Z" fill="#E9113C"/>
</g>
<path d="M38.59 19.89C36.85 14.06 29.99 10.97 23.25 12.98C23.02 13.05 22.79 13.12 22.56 13.2L22.23 14.41L23.61 13.99C23.75 13.95 23.89 13.99 23.99 14.09C24.09 14.19 24.12 14.34 24.08 14.48L23.43 16.47C23.4 16.55 23.35 16.62 23.28 16.67C23.19 16.73 23.06 16.76 22.95 16.72C22.75 16.65 22.64 16.44 22.71 16.24L23.13 14.95L21.79 15.36C21.66 15.4 21.51 15.36 21.41 15.27C21.31 15.17 21.27 15.03 21.31 14.9L21.67 13.56C15.9 16.02 12.6 21.82 14.2 27.18C15.94 33.01 22.8 36.1 29.54 34.09C36.27 32.08 40.32 25.73 38.58 19.91L38.59 19.89Z" fill="#008FC1"/>
<path d="M20.04 33.35C20.04 33.35 19.13 33.83 17.96 34.36C15.65 36.1 15.47 39.39 18.01 40.48C19.7 40.33 21.66 40.01 23.9 39.45C23.9 39.45 24.24 32.88 20.04 33.35Z" fill="#DFEAF0"/>
<path d="M17.97 34.3601C16.09 35.2101 13.56 36.1901 13.06 35.5201C12.26 34.4301 11.76 34.7301 11.48 35.3201C10.91 36.5301 8.65999 34.5001 9.17999 36.7901C9.63999 38.8001 11.29 41.0701 18.02 40.4801C16.83 39.4101 16.97 36.1201 17.97 34.3601Z" fill="white"/>
<path d="M23.29 16.6599C23.36 16.6099 23.41 16.5499 23.44 16.4599L24.09 14.4699C24.13 14.3299 24.1 14.1899 24 14.0799C23.9 13.9799 23.75 13.9399 23.62 13.9799L22.24 14.3999L22.67 12.7999C22.73 12.5999 22.6 12.3899 22.4 12.3299C22.2 12.2699 21.99 12.3999 21.93 12.5999L21.31 14.8699C21.27 14.9999 21.31 15.1499 21.41 15.2399C21.51 15.3399 21.65 15.3699 21.79 15.3299L23.13 14.9199L22.71 16.2099C22.64 16.4099 22.75 16.6299 22.95 16.6899C23.07 16.7299 23.19 16.7099 23.28 16.6399L23.29 16.6599Z" fill="white"/>
<path d="M17.92 29.84C17.92 29.84 12.51 23.14 12.59 21.55C12.67 19.96 17.97 21.74 17.97 21.74C17.97 21.74 19.92 27.63 17.92 29.84Z" fill="white"/>
<path d="M37.22 21.9901C37.22 21.9901 35.22 12.3701 33.79 10.9601C32.35 9.56007 29.42 16.0301 29.42 16.0301C29.42 16.0301 34.98 22.9401 37.22 21.9901Z" fill="white"/>
<path d="M38.304 22.5825C35.8242 16.8134 29.1392 14.146 23.3727 16.6247C17.6061 19.1034 14.9417 25.7896 17.4215 31.5587L20.2055 38.0357C22.6853 43.8048 29.3703 46.4721 35.1369 43.9934C40.9034 41.5147 43.5679 34.8286 41.0881 29.0595L38.304 22.5825Z" fill="white"/>
<path d="M27.55 29.96C27.55 29.96 25.56 31.29 24.55 30.99C23.2 30.59 24.7 33.43 27.27 32.06C30.21 30.49 29.84 29.33 29.32 28.57C28.9 27.96 29.03 29.19 27.55 29.96Z" fill="#2F2D2A"/>
<path d="M24.16 30.5801L24.54 31.2401C24.66 31.4401 24.9 31.5401 25.12 31.4701C25.16 31.4601 25.19 31.4501 25.22 31.4401C25.16 31.2901 25.22 31.1101 25.36 31.0301C25.52 30.9401 25.72 31.0001 25.81 31.1501C25.82 31.1701 25.83 31.2001 25.84 31.2301C27 30.8001 28.01 30.1701 28.88 29.3501C29.05 29.1901 29.09 28.9401 28.97 28.7301L28.59 28.0601C27.34 29.3501 25.86 30.2001 24.15 30.5701L24.16 30.5801Z" fill="white"/>
<path d="M25.28 19.71C25.99 19.93 26.61 20.29 27.12 20.75C26.74 19.73 25.86 18.87 24.67 18.51C22.73 17.91 20.71 18.87 20.16 20.66C20.06 20.97 20.02 21.29 20.02 21.6C20.98 19.89 23.17 19.06 25.28 19.71Z" fill="#DFEAF0"/>
<path d="M23.56 28.9099C25.8409 28.9099 27.69 27.0608 27.69 24.7799C27.69 22.499 25.8409 20.6499 23.56 20.6499C21.2791 20.6499 19.43 22.499 19.43 24.7799C19.43 27.0608 21.2791 28.9099 23.56 28.9099Z" fill="#DDDFE5"/>
<path d="M23.66 28.31C25.941 28.31 27.79 26.461 27.79 24.18C27.79 21.8991 25.941 20.05 23.66 20.05C21.3791 20.05 19.53 21.8991 19.53 24.18C19.53 26.461 21.3791 28.31 23.66 28.31Z" fill="#504C47"/>
<path d="M23.72 27.5301C25.7855 27.5301 27.46 25.8556 27.46 23.7901C27.46 21.7245 25.7855 20.05 23.72 20.05C21.6544 20.05 19.98 21.7245 19.98 23.7901C19.98 25.8556 21.6544 27.5301 23.72 27.5301Z" fill="#2F2D2A"/>
<path d="M22.86 24.9799C23.5725 24.9799 24.15 24.4024 24.15 23.6899C24.15 22.9775 23.5725 22.3999 22.86 22.3999C22.1476 22.3999 21.57 22.9775 21.57 23.6899C21.57 24.4024 22.1476 24.9799 22.86 24.9799Z" fill="white"/>
<path d="M26.15 25.0201C26.3985 25.0201 26.6 24.8186 26.6 24.5701C26.6 24.3216 26.3985 24.1201 26.15 24.1201C25.9015 24.1201 25.7 24.3216 25.7 24.5701C25.7 24.8186 25.9015 25.0201 26.15 25.0201Z" fill="white"/>
<path d="M34.04 44.38C34.04 44.38 31.96 44.72 32.26 46.52C32.44 47.59 32.3 48.59 30.67 49.61C27.75 51.44 23.86 51.17 22.67 49.2C21.48 47.23 20 43.92 21.52 40.27C23.43 35.67 31.84 36.63 34.05 44.38H34.04Z" fill="white"/>
<path d="M38.76 25.1199C34.79 24.1299 33.81 28.8299 33.24 30.5999C33.05 31.1999 33.38 31.8399 33.98 32.0399C45.77 35.8399 51.43 36.0599 53.24 34.1999C53.79 33.6399 53.6 32.6999 52.89 32.3699L39.73 26.0999C39.18 25.8199 38.83 25.1399 38.76 25.1199Z" fill="white"/>
<path d="M40.38 30.77C40.38 30.77 44.37 31.2 46.81 35.11C46.81 35.11 45.49 35.06 44.35 34.8C43.21 34.54 40.38 30.77 40.38 30.77Z" fill="#DFEAF0"/>
<path d="M35.67 31.95C35.67 31.95 29.92 35.22 34.79 42.9L37.62 40.7L35.68 31.95H35.67Z" fill="#DFEAF0"/>
<path d="M23.44 49.9899C23.44 49.9899 25.24 51.2099 28.76 49.5299C32.89 47.5599 29.7 43.7299 32 43.5399C33.68 43.3999 34.83 41.1299 34.83 41.1299L38.38 42.0799C38.38 42.0799 35.31 44.2899 33.66 44.5099C33.66 44.5099 31.91 44.9399 32.28 46.6399C32.65 48.3399 31.38 49.2999 29.86 50.0599C29.86 50.0599 26.01 51.9399 23.44 49.9899Z" fill="#DFEAF0"/>
<path d="M35.88 42.34C36.18 42.66 36.62 42.81 37.05 42.71C37.75 42.55 38.91 42.44 39.85 43.16C40.72 43.82 41.66 44.16 43.33 43.2C46.31 41.48 47.89 37.91 46.7 35.94C45.51 33.97 42.54 30.34 38.6 29.97C33.81 29.52 30.8 36.83 35.87 42.35L35.88 42.34Z" fill="white"/>
<path d="M36.85 19.82C36.85 19.82 32.71 19.79 29.56 15.72C29.82 15.17 30.42 13.96 31.12 12.88C28.71 12.18 25.97 12.16 23.25 12.97C18.92 14.26 15.71 17.34 14.42 20.93C15.7 21.06 17.27 21.53 17.79 21.69C17.77 22.06 17.56 25.06 16.5 28.18L16.48 29.1L18.58 27.64L17.76 24.58L20.01 21.12L22.94 19.61L25.72 19.07L29.06 19.23L30.86 21.19L31.13 21.75L37.12 20.26L36.84 19.84L36.85 19.82Z" fill="#047BFF"/>
<path d="M38.3 22.57L38.9 23.96C39.08 22.61 38.99 21.24 38.59 19.89C38.04 18.04 36.97 16.47 35.56 15.25C36.04 16.91 36.48 18.7 36.79 20.02C37.39 20.78 37.91 21.64 38.31 22.57H38.3Z" fill="#047BFF"/>
<path d="M17.42 31.55C16.93 30.41 16.65 29.24 16.54 28.08C15.69 26.97 14.62 25.5 13.8 24.21C13.78 25.19 13.91 26.19 14.2 27.16C14.81 29.2 16.04 30.9 17.68 32.16L17.42 31.55Z" fill="#45A7FF"/>
<path d="M62.33 34.2399C62.28 32.2699 60.24 31.1399 55.52 31.5299C50.77 31.9299 44.75 40.1499 37.67 44.3299C32.52 47.3699 14.53 52.6299 14.58 54.8999V55.5899C14.55 56.4499 17.06 56.8999 23.75 56.6399C42.3 55.9399 62.39 41.2699 62.33 34.9799V34.2299V34.2399Z" fill="white"/>
<path d="M55.52 32.2399C75.27 30.5899 48.17 55.7199 23.75 56.6399C-0.669971 57.5599 30.6 49.2099 37.67 45.0299C44.74 40.8599 50.76 32.6299 55.52 32.2299V32.2399Z" fill="#047BFF"/>
<path d="M55.25 33.2401C74.04 31.6001 45.53 55.0601 24.94 56.3201C2.51999 57.6901 32.34 48.8501 38.84 45.0101C45.34 41.1701 50.88 33.6301 55.25 33.2401Z" fill="#45A7FF"/>
<path d="M37.42 45.19C29.89 49.41 -0.389985 57.56 23.75 56.65C31.77 56.35 40.07 53.44 46.91 49.72C49.53 44.69 41.9 44.37 37.42 45.19Z" fill="#047BFF"/>
<path d="M29.92 16.4399C29.92 16.4399 35.74 19.3999 36.58 19.3999L33.66 19.7999L29.93 16.4399H29.92Z" fill="#DFEAF0"/>
<path d="M34.78 19.43C33.3 18.97 31.28 17.94 29.55 15.7C29.55 15.7 28.16 17.82 28.65 19.19L29.07 19.21L29.6 19.79L31.7 21.03L34.78 19.42V19.43Z" fill="#1A2C38"/>
<path d="M17.42 31.5499C16.93 30.4099 16.65 29.2399 16.54 28.0799C15.89 27.2299 15.11 26.1699 14.42 25.1399C14.42 25.8399 14.42 27.0299 14.55 28.0999C15.22 29.7199 16.31 31.0899 17.69 32.1499L17.43 31.5399L17.42 31.5499Z" fill="#047BFF"/>
<path d="M16.21 29.1499C15.92 29.1499 15.68 28.9199 15.66 28.6299C15.66 28.5599 15.57 26.8399 16.51 24.6899C17.37 22.7299 18.26 20.3899 22.53 18.6199C27.04 16.7499 33.94 18.4899 36.69 20.0299C36.96 20.1799 37.05 20.5199 36.9 20.7899C36.75 21.0599 36.41 21.1499 36.14 20.9999C33.56 19.5599 27.8 18.3799 23.98 19.2799C18.22 20.6499 16.75 28.4999 16.75 28.5599C16.77 28.8699 16.53 29.1299 16.23 29.1499C16.22 29.1499 16.21 29.1499 16.19 29.1499H16.21Z" fill="#45A7FF"/>
<path d="M36.67 19.2701C36.8 19.2701 36.92 19.3001 37.03 19.3701C38.03 20.0401 38.64 21.8101 38.5 22.3401C38.36 22.9001 31.21 25.3901 31.22 24.8001C31.23 23.1601 28.77 19.6801 29.05 19.1201C29.3 18.6201 35.62 19.2901 36.67 19.2701Z" fill="#1CE61C"/>
<path d="M17.77 25.4099C17.77 25.4099 16.22 28.0399 16.22 28.5999C16.22 29.1599 16.76 31.1099 17.04 31.2499C17.32 31.3899 20.11 29.7399 20.11 29.7399L17.77 25.4199V25.4099Z" fill="#1CE61C"/>
<path opacity="0.1" d="M29.59 20.05L28.39 19.02L24.31 19.29L21.5 20.31L19.62 21.81L17.12 25.69L19.5 29.53L21.91 30.45L24.05 30.03L30.26 26.62L31.18 23.84L29.59 20.05Z" fill="#047BFF"/>
<path d="M28.54 18.66C20.26 17.62 17.59 23.3 16.92 25.28C16.78 25.68 16.79 26.13 16.96 26.52C19.75 33.19 23.38 31.11 29.13 27.86C33.97 25.12 30.92 20.76 29.66 19.27C29.38 18.93 28.98 18.71 28.54 18.66ZM28.28 27.31C23.44 30.05 20.41 31.78 18.09 25.94C18.03 25.79 18.02 25.62 18.07 25.47C18.44 24.21 20.5 18.62 28.08 19.72C28.25 19.74 28.4 19.83 28.51 19.95C29.35 20.87 32.59 24.86 28.27 27.3L28.28 27.31Z" fill="#047BFF"/>
<path d="M23.33 14.6399C23.21 14.6599 23.09 14.7099 22.99 14.7799L21.7 15.6899V14.8499H21.72C22.08 14.5999 22.2 14.2699 21.99 14.1099C21.77 13.9499 21.31 14.0299 20.94 14.2799C20.57 14.5299 20.46 14.8599 20.67 15.0199C20.73 15.0599 20.8 15.0899 20.89 15.0999V16.4199C20.89 16.5299 21 16.5999 21.19 16.5699C21.3 16.5499 21.42 16.4999 21.52 16.4299L22.77 15.5499L22.71 16.5199C22.71 16.5199 22.75 16.5699 22.81 16.5499C23.06 16.4699 23.28 16.3499 23.48 16.1499C23.51 16.1099 23.53 16.0799 23.53 16.0399L23.62 14.8199C23.63 14.6999 23.51 14.6299 23.33 14.6499V14.6399Z" fill="#1A2C38"/>
<path d="M23.93 14.03C23.83 13.97 23.71 13.97 23.6 14L22.23 14.41L22.56 13.19C22.56 13.19 22.57 13.19 22.58 13.19C22.96 13.08 23.18 12.68 23.08 12.3C22.97 11.92 22.57 11.7 22.19 11.8C21.81 11.9 21.59 12.31 21.69 12.69C21.72 12.79 21.77 12.88 21.83 12.96L21.31 14.88C21.27 15.05 21.34 15.22 21.49 15.31C21.59 15.36 21.7 15.37 21.81 15.34L23.13 14.94L22.71 16.32C22.69 16.37 22.73 16.42 22.78 16.44C23.01 16.5 23.23 16.48 23.46 16.32C23.5 16.29 23.53 16.25 23.55 16.2L24.1 14.48C24.15 14.31 24.1 14.13 23.93 14.03Z" fill="white"/>
<path d="M23.2121 16.539C23.6261 16.4697 23.9417 16.2943 23.9171 16.1473C23.8925 16.0002 23.537 15.9371 23.123 16.0064C22.709 16.0757 22.3934 16.2511 22.418 16.3981C22.4426 16.5452 22.7981 16.6083 23.2121 16.539Z" fill="white"/>
<path d="M22.68 16.5501C22.68 16.3801 22.74 16.2001 22.78 16.0901C22.54 16.1701 22.39 16.2901 22.41 16.3901C22.42 16.4701 22.52 16.5201 22.68 16.5401V16.5501Z" fill="#DFEAF0"/>
</g>
<path fill-rule="evenodd" clip-rule="evenodd" d="M6.49771 79C6.98969 79 7.48602 79.213 7.49037 79.6913C7.49037 80.1043 7.24656 80.2696 6.99839 80.2696C6.75023 80.2696 6.73281 80.1435 6.73281 80.1435C6.73281 80.1435 7.02452 79.9261 7.02452 79.7174C7.02452 79.6087 6.94179 79.313 6.489 79.3174C5.8577 79.3174 5.5181 79.6174 5.5181 80.1522C5.5181 80.7652 7.35105 80.9739 7.3554 81.7652C7.3554 82.613 6.47594 82.9957 5.69225 83C5.283 83 5.01306 82.7609 5.00871 82.3783C5.00871 81.9261 5.22204 81.4652 5.75756 81.4652C5.88382 81.4565 5.98831 81.5522 5.99702 81.6783C5.99702 81.6783 5.99702 81.6826 5.99702 81.687C5.99702 81.687 5.45715 81.8391 5.4615 82.3783C5.4615 82.4783 5.56599 82.6609 5.81851 82.6565C6.07103 82.6522 6.82424 82.4739 6.81989 81.8087C6.81989 81.1913 5.00435 81.1087 5 80.1478C5 79.0652 6.08845 79.0087 6.49771 79.0087V79ZM10.747 79.6C10.8123 79.5696 11.2129 79.4913 11.1955 79.813C11.1824 80.1348 10.9386 80.6913 10.9037 80.9348C11.2303 80.7696 11.6918 80.2087 11.6918 80.2087C11.6918 80.2087 12.0183 80.2522 11.9182 80.4522C11.818 80.6522 11.1519 81.1435 11.1519 81.1435C11.1519 81.1435 11.3043 82.5696 12.1707 82.5696C12.6453 82.5696 12.8499 82.3609 12.937 82.287C12.9587 82.2696 12.9762 82.2652 12.9849 82.2783C13.0197 82.387 12.9936 82.5043 12.9152 82.5913C12.8194 82.6957 12.5974 82.8217 12.1533 82.8261C11.3653 82.8261 10.9255 82.1957 10.8123 81.2609C10.7252 81.5348 10.7339 81.9826 10.7209 82.2C10.6948 82.2435 10.2507 82.4174 10.2158 82.1174C10.2158 82.0913 10.2158 82.0696 10.2158 82.0435C10.1331 82.1609 10.0199 82.2826 9.91108 82.2826C9.71951 82.2826 9.63679 82.1217 9.60196 82.0391C9.57584 82.0696 9.3625 82.287 9.08821 82.287C8.92277 82.2913 8.77474 82.1957 8.70943 82.0435C8.57011 82.1435 8.32195 82.2913 8.03895 82.2913C7.73418 82.2913 7.66017 82.1087 7.66017 81.9565C7.66017 81.713 7.84303 80.987 7.84303 80.987C7.84303 80.987 7.48602 81.1304 7.36411 81.1348C7.19431 81.1348 7.11159 80.8217 7.11159 80.813C7.11159 80.8087 7.11159 80.8 7.1203 80.8C7.22044 80.7609 7.94317 80.513 7.94317 80.513C7.94317 80.513 8.07813 79.9826 8.09555 79.913C8.11296 79.8435 8.2131 79.7 8.33065 79.6565C8.41773 79.6217 8.50916 79.6 8.60059 79.5913C8.63107 79.5913 8.65284 79.6 8.65284 79.6174C8.65284 79.6348 8.47433 80.4087 8.47433 80.4087C8.47433 80.4087 8.84876 80.3217 8.98808 80.3217C9.09692 80.3217 9.15352 80.387 9.09257 80.4696C9.03162 80.5522 8.96196 80.6478 8.92712 80.6913C8.88794 80.7348 8.86182 80.7435 8.77039 80.7609C8.64413 80.787 8.36113 80.8565 8.36113 80.8565C8.36113 80.8565 8.13473 81.6783 8.13909 81.8174C8.13909 81.8957 8.16521 81.987 8.26099 81.987C8.35678 81.987 8.53964 81.8739 8.67025 81.7913C8.69202 81.1522 9.18835 80.7261 9.57584 80.7261C9.7021 80.7261 9.65421 80.8478 9.79788 80.8478H9.88931C9.94591 80.8478 10.0069 80.8522 10.0069 80.9957C10.0069 81.1957 9.89367 81.5261 9.89367 81.7348C9.89367 81.8826 9.91544 81.987 9.97204 81.987C10.0678 81.987 10.1767 81.8478 10.255 81.7261C10.3813 81.0304 10.734 79.7609 10.734 79.6174L10.747 79.6ZM12.5016 80.7C12.7672 80.6783 12.9326 80.8217 12.9631 80.9C12.9936 80.9783 12.9892 81.1609 12.9152 81.2913C12.6845 81.7044 12.1097 81.6304 12.1097 81.6304C12.1097 81.6304 12.0444 81.9565 12.3405 81.9565C12.593 81.9565 12.7062 81.8304 12.8151 81.7261C12.8586 81.7261 12.9936 81.8652 12.9326 81.9609C12.8847 82.0348 12.6191 82.2565 12.2795 82.2609C11.7397 82.2609 11.6047 81.8 11.6744 81.4696C11.7658 81.0609 12.1751 80.7217 12.5016 80.6957V80.7ZM9.6455 80.987C9.32332 80.987 8.82699 81.9696 9.20577 81.9652C9.61938 81.9652 9.6455 81.1826 9.6455 81.0043V80.987ZM12.6409 80.8913C12.4232 80.9 12.1751 81.3174 12.1533 81.5C12.4798 81.513 12.654 81.1957 12.6757 81.0696C12.6888 80.9739 12.6932 80.887 12.6409 80.887V80.8913Z" fill="#557086"/>
<path d="M51.1444 79.3778L51.6412 80.278L52.6518 80.4733C52.7792 80.4988 52.8302 80.6559 52.741 80.7494L52.0361 81.5009L52.1635 82.5243C52.1805 82.6559 52.0446 82.7494 51.93 82.6942L51 82.2568L50.0701 82.6942C49.9512 82.7494 49.8196 82.6517 49.8366 82.5243L49.9639 81.5009L49.2591 80.7494C49.1699 80.6559 49.2208 80.4988 49.3482 80.4733L50.3588 80.278L50.8557 79.3778C50.9194 79.2632 51.085 79.2632 51.1444 79.3778Z" fill="#FFC200"/>
<path d="M51 79.2929C51.0552 79.2929 51.1147 79.3226 51.1444 79.3778L51.6412 80.278L52.6518 80.4733C52.7792 80.4988 52.8302 80.6559 52.741 80.7494L52.0361 81.5009L52.1635 82.5243C52.1763 82.6262 52.0955 82.7111 51.9979 82.7111C51.9766 82.7111 51.9512 82.7069 51.9257 82.6942L50.9957 82.2568L50.0658 82.6942C50.0403 82.7069 50.0191 82.7111 49.9936 82.7111C49.9002 82.7111 49.8153 82.6262 49.828 82.5243L49.9554 81.5009L49.2505 80.7494C49.1613 80.6559 49.2123 80.4988 49.3397 80.4733L50.3503 80.278L50.8471 79.3778C50.8768 79.3226 50.9363 79.2929 50.9915 79.2929M51 79.0806C50.8641 79.0806 50.7367 79.157 50.6688 79.2759L50.2187 80.0912L49.3057 80.2653C49.1698 80.2908 49.0594 80.3884 49.017 80.5201C48.9745 80.6517 49.0085 80.7961 49.1019 80.8937L49.7388 81.5731L49.6242 82.4946C49.6115 82.6007 49.6454 82.7111 49.7134 82.7918C49.7856 82.8725 49.8875 82.9192 49.9979 82.9192C50.0531 82.9192 50.1083 82.9065 50.1592 82.881L51 82.4861L51.8408 82.881C51.8917 82.9065 51.9469 82.9192 52.0021 82.9192C52.1125 82.9192 52.2144 82.8725 52.2866 82.7918C52.3588 82.7111 52.3928 82.6007 52.3758 82.4946L52.2611 81.5731L52.8981 80.8937C52.9915 80.7918 53.0255 80.6474 52.983 80.5201C52.9405 80.3884 52.8301 80.2908 52.6943 80.2653L51.7813 80.0912L51.3312 79.2759C51.2633 79.157 51.1359 79.0806 51 79.0806Z" fill="#213743"/>
<path d="M51 79.8152V80.9744C51 81.0678 51.0892 81.1315 51.1784 81.106L52.2187 80.7706C52.2739 80.7536 52.2697 80.6729 52.2102 80.6602L51.5563 80.5413C51.4969 80.5286 51.4417 80.4903 51.4119 80.4351L51.085 79.7939C51.0637 79.7515 50.9958 79.7642 50.9958 79.8152H51Z" fill="#FFEBB8"/>
<path d="M51 81.4924V82.0699C51 82.1039 51.017 82.1294 51.0467 82.1464L51.7983 82.5073C51.8365 82.5243 51.8705 82.4818 51.845 82.4479L51.0934 81.4627C51.0637 81.4245 51 81.4457 51 81.4924Z" fill="#FF7F00"/>
<path d="M56.1444 79.3778L56.6412 80.278L57.6518 80.4733C57.7792 80.4988 57.8302 80.6559 57.741 80.7494L57.0361 81.5009L57.1635 82.5243C57.1805 82.6559 57.0446 82.7494 56.93 82.6942L56 82.2568L55.0701 82.6942C54.9512 82.7494 54.8196 82.6517 54.8366 82.5243L54.9639 81.5009L54.2591 80.7494C54.1699 80.6559 54.2208 80.4988 54.3482 80.4733L55.3588 80.278L55.8557 79.3778C55.9194 79.2632 56.085 79.2632 56.1444 79.3778Z" fill="#FFC200"/>
<path d="M56 79.2929C56.0552 79.2929 56.1147 79.3226 56.1444 79.3778L56.6412 80.278L57.6518 80.4733C57.7792 80.4988 57.8302 80.6559 57.741 80.7494L57.0361 81.5009L57.1635 82.5243C57.1763 82.6262 57.0955 82.7111 56.9979 82.7111C56.9766 82.7111 56.9512 82.7069 56.9257 82.6942L55.9957 82.2568L55.0658 82.6942C55.0403 82.7069 55.0191 82.7111 54.9936 82.7111C54.9002 82.7111 54.8153 82.6262 54.828 82.5243L54.9554 81.5009L54.2505 80.7494C54.1613 80.6559 54.2123 80.4988 54.3397 80.4733L55.3503 80.278L55.8471 79.3778C55.8768 79.3226 55.9363 79.2929 55.9915 79.2929M56 79.0806C55.8641 79.0806 55.7367 79.157 55.6688 79.2759L55.2187 80.0912L54.3057 80.2653C54.1698 80.2908 54.0594 80.3884 54.017 80.5201C53.9745 80.6517 54.0085 80.7961 54.1019 80.8937L54.7388 81.5731L54.6242 82.4946C54.6115 82.6007 54.6454 82.7111 54.7134 82.7918C54.7856 82.8725 54.8875 82.9192 54.9979 82.9192C55.0531 82.9192 55.1083 82.9065 55.1592 82.881L56 82.4861L56.8408 82.881C56.8917 82.9065 56.9469 82.9192 57.0021 82.9192C57.1125 82.9192 57.2144 82.8725 57.2866 82.7918C57.3588 82.7111 57.3928 82.6007 57.3758 82.4946L57.2611 81.5731L57.8981 80.8937C57.9915 80.7918 58.0255 80.6474 57.983 80.5201C57.9405 80.3884 57.8301 80.2908 57.6943 80.2653L56.7813 80.0912L56.3312 79.2759C56.2633 79.157 56.1359 79.0806 56 79.0806Z" fill="#213743"/>
<path d="M56 79.8152V80.9744C56 81.0678 56.0892 81.1315 56.1784 81.106L57.2187 80.7706C57.2739 80.7536 57.2697 80.6729 57.2102 80.6602L56.5563 80.5413C56.4969 80.5286 56.4417 80.4903 56.4119 80.4351L56.085 79.7939C56.0637 79.7515 55.9958 79.7642 55.9958 79.8152H56Z" fill="#FFEBB8"/>
<path d="M56 81.4924V82.0699C56 82.1039 56.017 82.1294 56.0467 82.1464L56.7983 82.5073C56.8365 82.5243 56.8705 82.4818 56.845 82.4479L56.0934 81.4627C56.0637 81.4245 56 81.4457 56 81.4924Z" fill="#FF7F00"/>
<rect x="13" y="62" width="37" height="13" rx="6.5" fill="#2F4553"/>
<path d="M28.6228 70H27.5908V67.318L26.9188 67.996L26.3308 67.378L27.7288 65.998H28.6228V70ZM32.3864 70H29.2484V69.196C30.9824 67.942 31.3064 67.666 31.3064 67.27C31.3064 66.994 31.0484 66.85 30.7544 66.85C30.3104 66.85 29.9744 67.018 29.6864 67.288L29.1164 66.604C29.5424 66.136 30.1784 65.938 30.7364 65.938C31.6784 65.938 32.3564 66.466 32.3564 67.27C32.3564 67.882 31.9184 68.404 30.9224 69.1H32.3864V70ZM35.7369 70H34.7229L34.1649 69.124L33.6009 70H32.5929L33.5829 68.512L32.6529 67.102H33.6669L34.1649 67.888L34.6569 67.102H35.6709L34.7469 68.512L35.7369 70Z" fill="white"/>
<path d="M8.03 11H7.215L6.56 9.815H6.04V11H5.33V7.665H6.89C7.585 7.665 8.01 8.12 8.01 8.74C8.01 9.33 7.64 9.645 7.28 9.73L8.03 11ZM6.785 9.19C7.07 9.19 7.285 9.02 7.285 8.74C7.285 8.46 7.07 8.29 6.785 8.29H6.04V9.19H6.785ZM10.5152 11H9.88023V10.75C9.71523 10.945 9.43023 11.06 9.11523 11.06C8.73023 11.06 8.27523 10.8 8.27523 10.26C8.27523 9.695 8.73023 9.48 9.11523 9.48C9.43523 9.48 9.72023 9.585 9.88023 9.775V9.45C9.88023 9.205 9.67023 9.045 9.35023 9.045C9.09023 9.045 8.85023 9.14 8.64523 9.33L8.40523 8.905C8.70023 8.645 9.08023 8.525 9.46023 8.525C10.0102 8.525 10.5152 8.745 10.5152 9.44V11ZM9.37023 10.63C9.57523 10.63 9.77523 10.56 9.88023 10.42V10.12C9.77523 9.98 9.57523 9.91 9.37023 9.91C9.12023 9.91 8.91523 10.04 8.91523 10.275C8.91523 10.5 9.12023 10.63 9.37023 10.63ZM11.7801 11H11.1451V8.585H11.7801V8.915C11.9501 8.7 12.2501 8.525 12.5501 8.525V9.145C12.5051 9.135 12.4451 9.13 12.3751 9.13C12.1651 9.13 11.8851 9.25 11.7801 9.405V11ZM14.0818 11.06C13.3468 11.06 12.7918 10.565 12.7918 9.79C12.7918 9.09 13.3068 8.525 14.0418 8.525C14.7618 8.525 15.2518 9.065 15.2518 9.855V9.995H13.4568C13.4968 10.3 13.7418 10.555 14.1518 10.555C14.3568 10.555 14.6418 10.465 14.7968 10.315L15.0768 10.725C14.8368 10.945 14.4568 11.06 14.0818 11.06ZM14.6368 9.565C14.6218 9.335 14.4618 9.03 14.0418 9.03C13.6468 9.03 13.4768 9.325 13.4468 9.565H14.6368Z" fill="#05080A"/>
<path d="M48.7405 11H48.2885L46.8965 9.096V11H46.4285V8.332H46.9085L48.2725 10.184V8.332H48.7405V11ZM50.1674 11.048C49.5554 11.048 49.1754 10.588 49.1754 10.032C49.1754 9.48 49.5554 9.02 50.1674 9.02C50.7874 9.02 51.1634 9.48 51.1634 10.032C51.1634 10.588 50.7874 11.048 50.1674 11.048ZM50.1674 10.676C50.5274 10.676 50.7274 10.376 50.7274 10.032C50.7274 9.692 50.5274 9.392 50.1674 9.392C49.8114 9.392 49.6114 9.692 49.6114 10.032C49.6114 10.376 49.8114 10.676 50.1674 10.676ZM51.7849 11.044C51.6329 11.044 51.5049 10.916 51.5049 10.764C51.5049 10.612 51.6329 10.484 51.7849 10.484C51.9369 10.484 52.0649 10.612 52.0649 10.764C52.0649 10.916 51.9369 11.044 51.7849 11.044ZM54.4087 11.048C53.9327 11.048 53.5807 10.856 53.4007 10.616L53.6527 10.308C53.8247 10.508 54.1087 10.632 54.3927 10.632C54.7447 10.632 54.9487 10.472 54.9487 10.224C54.9487 9.96 54.7367 9.848 54.3567 9.848C54.2447 9.848 54.0887 9.848 54.0487 9.852V9.432C54.0967 9.436 54.2527 9.436 54.3567 9.436C54.6687 9.436 54.9047 9.328 54.9047 9.084C54.9047 8.836 54.6647 8.708 54.3647 8.708C54.0927 8.708 53.8687 8.812 53.6767 9.004L53.4367 8.712C53.6407 8.472 53.9647 8.292 54.4087 8.292C54.9847 8.292 55.3727 8.564 55.3727 9.012C55.3727 9.368 55.0687 9.576 54.7927 9.624C55.0527 9.648 55.4127 9.86 55.4127 10.272C55.4127 10.724 55.0247 11.048 54.4087 11.048ZM56.8176 11.048C56.3576 11.048 56.0416 10.892 55.8256 10.636L56.0936 10.316C56.2736 10.52 56.5136 10.632 56.8136 10.632C57.1496 10.632 57.3616 10.424 57.3616 10.164C57.3616 9.876 57.1536 9.688 56.8256 9.688C56.5976 9.688 56.4096 9.76 56.2416 9.92L55.9096 9.824V8.332H57.6576V8.744H56.3776V9.516C56.5056 9.388 56.7256 9.284 56.9816 9.284C57.4296 9.284 57.8336 9.6 57.8336 10.144C57.8336 10.7 57.4136 11.048 56.8176 11.048Z" fill="white"/>
<defs>
<linearGradient id="paint0_linear_26835_29198" x1="31.5" y1="66.96" x2="31.5" y2="28.21" gradientUnits="userSpaceOnUse">
<stop stop-color="#CCF8FF"/>
<stop offset="1" stop-color="#45A7FF"/>
</linearGradient>
<linearGradient id="paint1_linear_26835_29198" x1="10.18" y1="44.2899" x2="10.18" y2="21.6099" gradientUnits="userSpaceOnUse">
<stop stop-color="#557086"/>
<stop offset="1" stop-color="#008C00"/>
</linearGradient>
<linearGradient id="paint2_linear_26835_29198" x1="38.4" y1="65.1299" x2="-5.08001" y2="41.5999" gradientUnits="userSpaceOnUse">
<stop stop-color="#CAF4FF"/>
<stop offset="1" stop-color="white"/>
</linearGradient>
<clipPath id="clip0_26835_29198">
<rect width="63" height="88" fill="white"/>
</clipPath>
</defs>
</svg>
