<svg width="63" height="88" viewBox="0 0 63 88" fill="none" xmlns="http://www.w3.org/2000/svg">
<rect width="63" height="88" rx="4" fill="#1CE61C"/>
<path d="M36.7008 13.5133L44.7992 3.48665C45.5586 2.54645 46.7024 2 47.911 2H58C59.6569 2 61 3.34314 61 5V83C61 84.6569 59.6569 86 58 86H5C3.34315 86 2 84.6569 2 83V18C2 16.3431 3.34315 15 5 15H33.589C34.7976 15 35.9414 14.4536 36.7008 13.5133Z" fill="#213743"/>
<mask id="mask0_26835_29199" style="mask-type:luminance" maskUnits="userSpaceOnUse" x="0" y="0" width="63" height="88">
<path d="M59 0H4C1.79 0 0 1.79 0 4V84C0 86.21 1.79 88 4 88H59C61.21 88 63 86.21 63 84V4C63 1.79 61.21 0 59 0ZM61 82.81C61 84.57 59.57 86 57.81 86H5.19C3.43 86 2 84.57 2 82.81V18.19C2 16.43 3.43 15 5.19 15H33.59C34.8 15 35.94 14.45 36.7 13.51L44.8 3.48C45.56 2.54 46.7 1.99 47.91 1.99H57.81C59.57 1.99 61 3.42 61 5.18V82.8V82.81Z" fill="white"/>
</mask>
<g mask="url(#mask0_26835_29199)">
<path d="M68.37 47.3199V26.6399L4.46002 90.5499H25.13L68.37 47.3199Z" fill="white"/>
<path d="M64.66 -2.29004H55.22L-2.91998 55.84V66.18L65.46 -2.20004C65.2 -2.26004 64.93 -2.29004 64.66 -2.29004Z" fill="white"/>
<path d="M68.37 69.23V61.55L39.37 90.55H47.05L68.37 69.23Z" fill="white"/>
</g>
<rect x="5" y="18" width="53" height="40" rx="1" fill="#2F4553"/>
<g clip-path="url(#clip0_26835_29199)">
<path d="M58 19V57C58 57.55 57.56 58 57 58H6C5.45 58 5 57.55 5 57V19C5 18.64 5.19 18.32 5.48 18.15C5.63 18.05 5.81 18 6 18H57C57.56 18 58 18.45 58 19Z" fill="url(#paint0_linear_26835_29199)"/>
<path d="M45.07 44.39C45.07 44.39 44.11 43.84 43.67 42.44C43.67 42.44 44.8 42.87 45.07 43.08C45.07 43.08 44.95 42.07 45.22 40.79C45.22 40.79 46.05 41.88 46.22 43.13C46.22 43.13 46.47 42.41 46.77 42.18C46.77 42.18 47.13 43.9 46.77 44.28C46.48 44.59 45.07 44.37 45.07 44.37V44.39Z" fill="#FECF2F"/>
<path d="M48.68 43.7002C48.97 43.3702 49.01 42.7802 48.88 41.9402C48.88 41.9402 48.28 42.8002 48.2 43.1702C48.2 43.1702 48.22 42.8802 48.03 42.4202C48.03 42.4202 47.5 43.0402 47.5 43.8602C47.5 43.8602 48.48 43.9102 48.67 43.6902L48.68 43.7002Z" fill="#FECF2F"/>
<path d="M58 42.4402V57.0002C58 57.5502 57.56 58.0002 57 58.0002H36.71L36.62 58.0202L36.52 58.0002H6C5.45 58.0002 5 57.5502 5 57.0002V55.5502C11.55 53.2702 20.75 50.2502 30.32 47.6802H30.33C34.03 46.6802 37.77 45.7502 41.45 44.9502C42.6 44.7002 43.75 44.4702 44.88 44.2502C45.56 44.1102 46.24 43.9902 46.92 43.8602H46.93C47.13 43.8302 47.32 43.7902 47.52 43.7602C47.94 43.6802 48.36 43.6102 48.78 43.5402C52.03 43.0102 55.13 42.6202 58 42.4402Z" fill="#FF7F00"/>
<path d="M51.35 58.0001H48.05L49.71 56.8901L49.8 56.8301L50.04 57.0101L51.25 57.9201V57.9301L51.35 58.0001Z" fill="#002135"/>
<path d="M50.64 56.3102L50.56 56.3602L49.8 56.8302L49.71 56.8902L47.91 58.0002H45.41L45.13 57.8702L44.82 57.7302L43.03 56.9002L42.52 56.6702L41.41 56.1602L41.77 56.1702H41.78L42.37 56.1802H42.47L44.57 56.2102L45.08 56.2202L47.5 56.2602L49.39 56.2902L50.53 56.3102H50.64Z" fill="#002135"/>
<path d="M45.34 52.8601L40.37 53.3501L39.92 53.8901L41.67 55.1401L47.82 55.9301L45.34 52.8601Z" fill="#FECF2F"/>
<path d="M40.59 55.5701L39.92 53.8901L41.67 55.1401L42.89 56.7301L40.59 55.5701Z" fill="#FF9D00"/>
<path d="M47.82 55.9301L47.04 56.7301H42.89L41.67 55.1401L47.82 55.9301Z" fill="#FF7F00"/>
<path d="M50.07 55.6701L55.66 53.4701L52.28 50.5801L50.07 55.6701Z" fill="#AD0D2D"/>
<path d="M51.94 43.8601L47.19 48.3701L52.28 50.5701L51.94 43.8601Z" fill="#FF637F"/>
<path d="M55.66 53.4701L54.62 50.6001L55.66 53.4701Z" fill="#E884FF"/>
<path d="M50.08 55.6702L49.39 56.2902L47.49 58.0002H45.14L45.13 57.8702L45.09 56.7302L45.08 56.2202L45.05 55.5602L44.98 53.4802L46.31 54.0502L50.08 55.6702Z" fill="#AD0D2D"/>
<path d="M43.19 47.9202L44.98 53.4702L47.18 48.3802L43.19 47.9202Z" fill="#FF5472"/>
<path d="M52.28 50.5701L47.18 48.3701H47.17L44.98 53.4701V53.4801L50.07 55.6701H50.08L52.28 50.5801V50.5701Z" fill="#E9113C"/>
<path d="M43.19 47.9201L47.18 48.3801V48.3701H47.19L51.94 43.8601L43.19 47.9201Z" fill="#FFD6DE"/>
<path d="M54.62 50.6001L51.94 43.8601L54.62 50.6001Z" fill="#F5CCFF"/>
<path d="M52.28 50.5701V50.5801L55.66 53.4701L51.94 43.8601L52.28 50.5701Z" fill="#FF3659"/>
<path d="M45.14 58.0002H44.87L44.82 57.7302L44.66 56.7302L44.57 56.2102L44.45 55.4902L44.04 52.9902L43.19 47.9102L44.8 52.9102L44.98 53.4702V53.4802L45.05 55.5602L45.08 56.2202L45.09 56.7302L45.13 57.8702L45.14 58.0002Z" fill="#FF3659"/>
<path d="M55.66 53.4702L52.82 55.2602L52.7 55.3302L50.67 56.6102L50.04 57.0102L48.47 58.0002H47.49L49.39 56.2902L50.08 55.6702H50.09L50.24 55.6102L52.28 54.8002L52.98 54.5302L55.66 53.4702Z" fill="#AB122E"/>
<path d="M43.03 56.5501L42.79 56.6001L42.69 56.6301L42.52 56.6701L36.71 58.0001L36.62 58.0201L36.52 58.0001L30.8 56.8301L32.48 55.1201L39.19 54.3101L40.36 54.9901L42.38 56.1801H42.39L42.53 56.2601L43.03 56.5501Z" fill="#FECF2F"/>
<path d="M36.52 58.0001H31.09L30.8 56.8301L36.52 58.0001Z" fill="#FF9D00"/>
<path d="M43.03 56.55V58H36.71L42.52 56.67L42.69 56.6301L42.79 56.6L43.03 56.55Z" fill="#FF7F00"/>
<path d="M31.646 51.7736C36.6631 50.7264 40.571 49.1149 40.3747 48.1742C40.1783 47.2335 35.952 47.3198 30.9349 48.367C25.9179 49.4143 22.0099 51.0258 22.2062 51.9665C22.4026 52.9072 26.6289 52.8208 31.646 51.7736Z" fill="#1A2C38"/>
<path d="M58 53.6V57C58 57.55 57.56 58 57 58H51.28C51.28 58 51.26 57.96 51.25 57.93C51.08 57.56 50.88 57.11 50.67 56.61C50.63 56.53 50.59 56.45 50.56 56.36C50.56 56.35 50.54 56.33 50.53 56.31C50.44 56.09 50.34 55.86 50.24 55.61L50.18 55.46V55.44C49.65 54.16 49.1 52.69 48.7 51.26H48.71C48.71 51.26 48.75 51.29 48.79 51.32C48.92 51.4 49.2 51.57 49.54 51.79C49.71 51.9 49.9 52.02 50.1 52.16C50.22 52.24 50.33 52.32 50.45 52.4C50.69 52.57 50.93 52.75 51.17 52.92C51.2 52.94 51.22 52.95 51.24 52.98H51.25C51.95 53.5 52.61 54.06 52.98 54.53C52.98 54.53 53.27 53.45 53.87 51.94C54.05 51.48 54.26 50.98 54.5 50.46C54.5 50.46 54.53 50.41 54.54 50.39C54.89 49.63 55.31 48.82 55.79 48.03C55.79 48.03 55.79 48.05 55.8 48.08C55.8 48.08 55.8 48.0834 55.8 48.09C55.84 48.28 55.94 48.89 56.08 49.75C56.42 51.8 56.91 55.15 56.76 56.51V56.48C56.81 56.35 57.02 55.72 57.44 54.79C57.6 54.43 57.78 54.03 58 53.6Z" fill="#FECF2F"/>
<path d="M52.78 55.45L52.98 54.53C51.95 53.22 48.7 51.26 48.7 51.26C48.7 51.26 52.36 54.67 52.78 55.45Z" fill="#FF9D00"/>
<path d="M57.43 54.79L56.75 56.51C56.67 52.85 55.78 48.03 55.78 48.03C55.78 48.03 57.12 52.27 57.43 54.79Z" fill="#FF9D00"/>
<path d="M6.64 19.02C11.51 25.72 12.57 32.66 12.57 32.66C11.95 32.34 11.36 31.98 10.82 31.6C10.75 31.56 10.69 31.51 10.63 31.47C10.43 31.33 10.24 31.19 10.05 31.04C9.9 30.93 9.75 30.8 9.61 30.69C9.46 30.56 9.31 30.43 9.16 30.29C9.07 30.21 8.99 30.13 8.9 30.05C8.49 29.68 8.12 29.29 7.78 28.91C7.64 28.76 7.51 28.61 7.39 28.46C6.35 27.23 5.65 26.09 5.25 25.35C5.18 25.22 5.12 25.1 5.06 25C5.04 24.96 5.02 24.91 5 24.87V19C5 18.64 5.19 18.32 5.48 18.15C5.63 18.05 5.81 18 6 18H10.38C13.58 20.41 15.36 22.4 15.53 22.59H15.54C10.33 21.53 6.84 19.15 6.63 19C6.63 19 6.63333 19.0067 6.64 19.02Z" fill="#FFC201"/>
<path d="M22.02 23.63C21.83 23.49 21.65 23.35 21.47 23.21C20.32 22.33 19.41 21.49 18.69 20.75C17.5 19.54 16.83 18.56 16.49 18H20.27C20.38 18.23 20.48 18.47 20.59 18.73C21.11 20.07 21.56 21.73 21.8 22.73C21.94 23.28 22.02 23.63 22.02 23.63Z" fill="#FFC201"/>
<path d="M12.57 32.66C11.95 32.34 11.36 31.98 10.82 31.6C10.75 31.56 10.69 31.5099 10.63 31.4699C10.43 31.3299 10.24 31.19 10.05 31.04C9.9 30.93 9.75 30.8 9.61 30.69C9.46 30.56 9.31 30.43 9.16 30.29C9.07 30.21 8.99 30.1299 8.9 30.0499C8.49 29.6799 8.12 29.29 7.78 28.91C7.64 28.76 7.51 28.6099 7.39 28.4599C6.35 27.2299 5.65 26.09 5.25 25.35C5.18 25.22 5.12 25.1 5.06 25C5.04 24.96 5.02 24.91 5 24.87V19.2C5.39 21.29 7.06 28.31 12.57 32.66Z" fill="#FF8C00"/>
<path d="M6.62998 19C6.62998 19 6.62998 19.01 6.63998 19.02L5.47998 18.15C5.62998 18.05 5.80998 18 5.99998 18H7.70998C11.16 20.87 15.26 22.49 15.53 22.59H15.54C10.33 21.53 6.83998 19.15 6.62998 19Z" fill="#FF8C00"/>
<path d="M22.02 23.63C21.83 23.49 21.65 23.35 21.47 23.21C20.32 22.33 19.41 21.49 18.69 20.75C17.5 19.54 16.83 18.56 16.49 18H18.33C18.51 18.36 18.72 18.72 18.93 19.08C19.87 20.7 20.99 22.25 21.58 23.06C21.85 23.42 22.02 23.63 22.02 23.63Z" fill="#FF8C00"/>
<path d="M24.94 10.5901C24.94 10.5901 25.62 11.0601 26.73 11.3101C27.47 11.4801 26.37 12.4801 25.41 11.6501C24.94 11.2401 24.94 10.5901 24.94 10.5901Z" fill="#E9113C"/>
<path d="M29.62 5.46021C29.62 5.46021 29.95 5.99021 30.08 6.84021C30.17 7.41021 30.98 6.62021 30.39 5.86021C30.1 5.49021 29.61 5.46021 29.61 5.46021H29.62Z" fill="#E9113C"/>
<path d="M38.6 27.3602C38.6 27.3602 42.28 25.9302 43.49 22.8402C43.49 22.8402 43.1 22.1502 43.53 21.8202C44.16 21.3502 44.07 22.2702 44.52 21.7302C44.97 21.1902 45.64 21.1502 46.27 21.8202C47.46 23.1002 45.36 28.4902 44 30.5202C38.44 38.8302 38.61 27.3602 38.61 27.3602H38.6Z" fill="white"/>
<path d="M42.4 20.3802C42.4 20.3802 46.63 30.9602 47.15 31.5302C47.67 32.1002 48.76 31.7002 48.81 30.9702C48.86 30.2402 44.86 19.4502 44.86 19.4502L42.41 20.3802H42.4Z" fill="#E9113C"/>
<path d="M45.39 21.3303C44.51 21.7303 45.18 24.3703 46.61 24.2703C48.04 24.1703 46.67 20.8303 45.39 21.3303Z" fill="white"/>
<path d="M27.91 19.4204C27.83 19.4204 27.75 19.4104 27.69 19.3604L26.04 18.2704C25.93 18.2004 25.87 18.0704 25.88 17.9304C25.89 17.8004 25.98 17.6804 26.11 17.6304L27.38 17.1304L26.12 16.2004C25.96 16.0804 25.93 15.8604 26.04 15.7004C26.16 15.5404 26.38 15.5104 26.54 15.6204L28.33 16.9404C28.44 17.0204 28.49 17.1504 28.47 17.2804C28.45 17.4104 28.37 17.5204 28.24 17.5704L27.01 18.0604L28.08 18.7604C28.25 18.8704 28.29 19.0904 28.18 19.2604C28.12 19.3604 28.01 19.4104 27.9 19.4204H27.91Z" fill="white"/>
<path d="M26.14 16.4904C26.5156 16.4904 26.82 16.1859 26.82 15.8104C26.82 15.4348 26.5156 15.1304 26.14 15.1304C25.7645 15.1304 25.46 15.4348 25.46 15.8104C25.46 16.1859 25.7645 16.4904 26.14 16.4904Z" fill="white"/>
<path d="M39.27 23.8603C39.27 23.8603 37.3 15.9703 36.06 15.1303C34.82 14.2903 33.14 19.2903 33.14 19.2903C33.14 19.2903 36.47 24.1203 39.26 23.8603H39.27Z" fill="white"/>
<path d="M19.91 31.2602C19.91 31.2602 17.84 20.2802 19.07 18.8402C20.14 17.5902 24.68 21.1602 24.68 21.1602C24.68 21.1602 22.18 30.9802 19.9 31.2602H19.91Z" fill="white"/>
<path d="M33.09 45.9103C33.09 45.9103 26.82 46.9503 24.54 45.6103C22.26 44.2703 21.14 41.6803 22.08 40.8103C23.02 39.9403 25.26 39.0103 25.26 39.0103L33.09 45.9103Z" fill="#DAE5ED"/>
<path d="M40.7813 26.3203C39.2325 20.6003 33.34 17.2188 27.62 18.7675C21.8999 20.3163 18.5184 26.2088 20.0671 31.9289L21.8077 38.3574C23.3564 44.0774 29.249 47.459 34.969 45.9102C40.6891 44.3615 44.0706 38.4689 42.5219 32.7489L40.7813 26.3203Z" fill="white"/>
<path d="M38.17 41.2503L39.63 43.2603C40.26 42.6503 40.81 41.9603 41.27 41.2203C40.06 40.1903 38.17 41.2603 38.17 41.2603V41.2503Z" fill="#E8F1F7"/>
<path d="M34.06 30.5303C34.06 30.5303 31.93 30.8203 31.24 31.5303C30.67 32.1103 29.98 30.3403 32.68 29.8403C35.77 29.2703 36.12 29.6503 36.19 30.5203C36.24 31.2103 35.61 30.2303 34.06 30.5203V30.5303Z" fill="#071D2A"/>
<path d="M35.65 28.5803L35.76 29.2903C35.79 29.5103 35.67 29.7203 35.47 29.8103C35.44 29.8203 35.41 29.8303 35.37 29.8503C35.33 29.7003 35.18 29.6003 35.02 29.6303C34.85 29.6603 34.73 29.8203 34.76 29.9903C34.76 30.0203 34.77 30.0403 34.78 30.0603C33.67 30.4203 32.55 30.5503 31.42 30.4503C31.2 30.4303 31.02 30.2703 30.99 30.0503L30.88 29.3303C32.56 29.5503 34.15 29.3103 35.64 28.5903L35.65 28.5803Z" fill="white"/>
<path d="M28.03 22.1704C27.63 22.7504 27.39 23.3804 27.28 24.0204C26.97 23.0404 27.11 21.8904 27.78 20.9304C28.87 19.3504 30.92 18.8704 32.38 19.8704C32.63 20.0504 32.85 20.2604 33.03 20.4904C31.32 19.7904 29.21 20.4504 28.03 22.1704Z" fill="#E8F1F7"/>
<path d="M31.65 28.9504C33.8039 28.9504 35.55 27.2043 35.55 25.0504C35.55 22.8965 33.8039 21.1504 31.65 21.1504C29.4961 21.1504 27.75 22.8965 27.75 25.0504C27.75 27.2043 29.4961 28.9504 31.65 28.9504Z" fill="#E4E6EC"/>
<path d="M31.6 28.3803C33.7539 28.3803 35.5 26.6342 35.5 24.4803C35.5 22.3264 33.7539 20.5803 31.6 20.5803C29.4461 20.5803 27.7 22.3264 27.7 24.4803C27.7 26.6342 29.4461 28.3803 31.6 28.3803Z" fill="#213743"/>
<path d="M31.56 27.6403C33.5096 27.6403 35.09 26.0599 35.09 24.1103C35.09 22.1608 33.5096 20.5803 31.56 20.5803C29.6105 20.5803 28.03 22.1608 28.03 24.1103C28.03 26.0599 29.6105 27.6403 31.56 27.6403Z" fill="#071D2A"/>
<path d="M33.12 25.4102C33.7938 25.4102 34.34 24.864 34.34 24.1902C34.34 23.5164 33.7938 22.9702 33.12 22.9702C32.4462 22.9702 31.9 23.5164 31.9 24.1902C31.9 24.864 32.4462 25.4102 33.12 25.4102Z" fill="white"/>
<path d="M30.72 23.6303C30.9575 23.6303 31.15 23.4377 31.15 23.2003C31.15 22.9628 30.9575 22.7703 30.72 22.7703C30.4826 22.7703 30.29 22.9628 30.29 23.2003C30.29 23.4377 30.4826 23.6303 30.72 23.6303Z" fill="white"/>
<path d="M22.99 41.0804C22.99 41.0804 25.36 46.2304 29.73 47.5004C34.11 48.7704 34.58 49.4404 35.91 49.6904C37.24 49.9404 41.42 46.8604 41.56 45.7304C41.7 44.6004 40 41.9404 37.47 40.4404C34.94 38.9404 22.99 41.0804 22.99 41.0804Z" fill="white"/>
<path d="M23.48 42.0404C22.74 41.0504 22.25 39.8604 21.88 38.6104H24.1C24.1 38.6104 23.08 40.3104 23.48 42.0404Z" fill="#E8F1F7"/>
<path d="M24.01 38.7902C24.01 38.7902 21.7 38.6102 20.09 40.6202C20.09 40.6202 20.5 41.3302 20.11 41.6002C19.72 41.8702 19.51 41.5302 19.29 41.9702C19.07 42.4102 19.16 43.4302 18.35 43.5702C17.54 43.7102 16.25 43.1802 15.9 41.5102C15.48 39.4802 16.32 35.2802 21.9 31.5902C26.72 28.4002 25.79 38.7802 24.01 38.8002V38.7902Z" fill="white"/>
<path d="M43.86 21.0003C46.35 20.5803 47.38 18.2503 46.6 16.6403C45.82 15.0303 42.62 15.6103 42.56 14.8003C42.5 13.9903 43.47 14.1403 43.45 13.0403C43.43 11.8603 40.31 12.2303 40.31 12.2303C40.31 12.2303 41.19 12.6303 40.44 12.9803C39.9 13.2303 39.27 12.9903 39.27 12.3203C39.27 11.5103 40.49 11.6003 40.19 10.4803C39.71 8.72027 36 8.86027 34.56 9.14027C34.56 9.14027 35.22 9.34027 35.05 9.86027C34.88 10.3803 33.68 10.3503 32.54 10.2503C29.1 9.96027 29.63 8.03027 29.63 8.03027C29.63 8.03027 27.85 9.06027 28.08 10.5703C28.31 12.0803 30.81 12.4003 34.06 12.4103C35.66 12.4103 37.5 12.7003 37.5 13.6303C37.5 14.8703 35.17 14.2703 35.21 16.1903C35.28 19.1303 40.43 18.4103 40.43 19.2203C40.43 19.7603 39.35 20.1403 38.43 19.8703C38.43 19.8703 39.07 21.7803 43.83 20.9903L43.86 21.0003Z" fill="url(#paint1_linear_26835_29199)"/>
<path d="M41.27 10.3602C41.27 10.3602 42.48 10.1902 42.6 10.8702C42.69 11.3702 42.04 11.4602 41.82 11.0902C41.68 10.8502 41.56 10.6502 41.26 10.3602H41.27Z" fill="url(#paint2_linear_26835_29199)"/>
<path d="M44.2 16.7201C41.72 16.6101 41.3 15.6601 41.53 14.9901C42.02 13.5201 39.08 13.6201 39.08 13.6201C40.14 15.5501 36.26 14.9901 37.37 16.8101C37.81 17.5401 40.94 18.0101 41.87 18.6501C42.8 19.2901 41.54 19.8401 41.54 19.8401C41.54 19.8401 42.9 20.1901 44.41 19.6601C44.45 19.6501 44.48 19.6301 44.52 19.6101C44.37 19.4101 44.12 19.2201 43.72 19.1001C42.88 18.8401 42.86 17.6701 44.02 18.0001C44.72 18.2001 44.9 18.8101 44.91 19.3601C45.81 18.5901 46.32 16.8101 44.21 16.7201H44.2Z" fill="#FFC201"/>
<path d="M50.32 29.42C50.32 29.42 56.28 25.76 63 23.26V33.05C63 33.05 59.41 34.84 56.37 38.14L50.32 29.43V29.42Z" fill="url(#paint3_linear_26835_29199)"/>
<path d="M19.48 49.78L16.88 60.88L17.8 51.3L19.48 49.78Z" fill="#FFC201"/>
<path d="M16.88 60.8801L4.78998 58.8001L9.51998 58.3301L16.88 60.8801Z" fill="#E32600"/>
<path d="M13.7 56.4001L8.13 58.9401L16.9 60.9201L13.7 56.4001Z" fill="#FF5500"/>
<path d="M16.86 60.94L18.22 51.76L13.72 56.43L16.86 60.94Z" fill="#FF9D00"/>
<path d="M13.52 50.0702L11.19 52.5302L7.89995 53.8202L6.11995 53.2302L5.69995 51.5902L8.12995 48.6502L11.88 46.9402L13.72 48.1502L13.52 50.0702Z" fill="#FF9D00"/>
<path d="M13.73 56.44L11.19 52.53L7.89996 53.82L8.19996 58.97L13.73 56.44Z" fill="#FF7F00"/>
<path d="M6.11995 53.23L4.19995 57.99L4.77995 58.8L8.19995 58.97L7.89995 53.82L6.11995 53.23Z" fill="#FF5900"/>
<path d="M5.69998 51.5901L3.59998 56.2101L4.23998 58.0801L6.11998 53.2301L5.69998 51.5901Z" fill="#FF7F00"/>
<path d="M11.19 52.5301L13.52 50.0701L18.16 52.1401L13.73 56.4401L11.19 52.5301Z" fill="#FFC201"/>
<path d="M13.72 48.1501L13.52 50.0701L18.14 52.1701L19.5 49.7201L19.34 48.1701L13.72 48.1501Z" fill="#FFEBB8"/>
<path d="M11.88 46.9401L17.32 46.8301L19.34 48.1701L13.72 48.1501L11.88 46.9401Z" fill="white"/>
<path d="M55.43 38.2499L48.86 36.9299L54.51 37.2899L55.43 38.2499Z" fill="#FF7F00"/>
<path d="M48.86 36.93L49.86 29.79L50.22 32.56L48.86 36.93Z" fill="#FF7F00"/>
<path d="M51.43 34.98L49.83 31.76L48.83 36.94L51.43 34.98Z" fill="#FF7F00"/>
<path d="M48.82 36.92L54.25 37.55L51.41 34.99L48.82 36.92Z" fill="#FF8C00"/>
<path d="M55.15 34.7599L53.66 33.4299L52.84 31.5199L53.15 30.4699L54.11 30.1899L55.88 31.5599L56.96 33.7299L56.28 34.8399L55.15 34.7599Z" fill="#FF8C00"/>
<path d="M51.41 35L53.66 33.43L52.84 31.52L49.82 31.79L51.41 35Z" fill="#FF8C00"/>
<path d="M53.15 30.4699L50.32 29.4199L49.86 29.7799L49.82 31.7899L52.84 31.5199L53.15 30.4699Z" fill="#FF7F00"/>
<path d="M54.11 30.19L51.35 29.04L50.27 29.45L53.15 30.47L54.11 30.19Z" fill="#FFEBB8"/>
<path d="M53.66 33.4299L55.15 34.7599L54.02 37.5199L51.41 34.9999L53.66 33.4299Z" fill="#FF9D00"/>
<path d="M56.28 34.84L55.15 34.76L54 37.51L55.47 38.26L56.37 38.14L56.28 34.84Z" fill="#FFC201"/>
<path d="M56.96 33.73L57.12 36.93L56.37 38.14L56.28 34.84L56.96 33.73Z" fill="#FFEBB8"/>
<path d="M7.21 50.52C5.98 51.05 5.42 51.05 4.19 50.52C4.72 51.75 4.72 52.31 4.19 53.54C5.42 53.01 5.98 53.01 7.21 53.54C6.68 52.31 6.68 51.75 7.21 50.52Z" fill="white"/>
<path d="M11.75 43.26C11.37 43.85 11.06 44.17 10.46 44.55C11.05 44.93 11.37 45.24 11.75 45.84C12.13 45.25 12.44 44.93 13.04 44.55C12.45 44.17 12.13 43.86 11.75 43.26Z" fill="white"/>
<path d="M56.86 32.28C56.61 33.11 56.41 33.31 55.58 33.56C56.41 33.81 56.61 34.01 56.86 34.84C57.11 34.01 57.31 33.81 58.14 33.56C57.31 33.31 57.11 33.11 56.86 32.28Z" fill="white"/>
<path d="M47.18 46.8301C46.83 48.0001 46.55 48.2801 45.38 48.6301C46.55 48.9801 46.83 49.2601 47.18 50.4301C47.53 49.2601 47.81 48.9801 48.98 48.6301C47.81 48.2801 47.53 48.0001 47.18 46.8301Z" fill="white"/>
<path d="M55.15 27.6101C54.93 27.9901 54.75 28.1701 54.37 28.3901C54.75 28.6101 54.93 28.7901 55.15 29.1701C55.37 28.7901 55.55 28.6101 55.93 28.3901C55.55 28.1701 55.37 27.9901 55.15 27.6101Z" fill="white"/>
</g>
<path fill-rule="evenodd" clip-rule="evenodd" d="M6.49771 79C6.98969 79 7.48602 79.213 7.49037 79.6913C7.49037 80.1043 7.24656 80.2696 6.99839 80.2696C6.75023 80.2696 6.73281 80.1435 6.73281 80.1435C6.73281 80.1435 7.02452 79.9261 7.02452 79.7174C7.02452 79.6087 6.94179 79.313 6.489 79.3174C5.8577 79.3174 5.5181 79.6174 5.5181 80.1522C5.5181 80.7652 7.35105 80.9739 7.3554 81.7652C7.3554 82.613 6.47594 82.9957 5.69225 83C5.283 83 5.01306 82.7609 5.00871 82.3783C5.00871 81.9261 5.22204 81.4652 5.75756 81.4652C5.88382 81.4565 5.98831 81.5522 5.99702 81.6783C5.99702 81.6783 5.99702 81.6826 5.99702 81.687C5.99702 81.687 5.45715 81.8391 5.4615 82.3783C5.4615 82.4783 5.56599 82.6609 5.81851 82.6565C6.07103 82.6522 6.82424 82.4739 6.81989 81.8087C6.81989 81.1913 5.00435 81.1087 5 80.1478C5 79.0652 6.08845 79.0087 6.49771 79.0087V79ZM10.747 79.6C10.8123 79.5696 11.2129 79.4913 11.1955 79.813C11.1824 80.1348 10.9386 80.6913 10.9037 80.9348C11.2303 80.7696 11.6918 80.2087 11.6918 80.2087C11.6918 80.2087 12.0183 80.2522 11.9182 80.4522C11.818 80.6522 11.1519 81.1435 11.1519 81.1435C11.1519 81.1435 11.3043 82.5696 12.1707 82.5696C12.6453 82.5696 12.8499 82.3609 12.937 82.287C12.9587 82.2696 12.9762 82.2652 12.9849 82.2783C13.0197 82.387 12.9936 82.5043 12.9152 82.5913C12.8194 82.6957 12.5974 82.8217 12.1533 82.8261C11.3653 82.8261 10.9255 82.1957 10.8123 81.2609C10.7252 81.5348 10.7339 81.9826 10.7209 82.2C10.6948 82.2435 10.2507 82.4174 10.2158 82.1174C10.2158 82.0913 10.2158 82.0696 10.2158 82.0435C10.1331 82.1609 10.0199 82.2826 9.91108 82.2826C9.71951 82.2826 9.63679 82.1217 9.60196 82.0391C9.57584 82.0696 9.3625 82.287 9.08821 82.287C8.92277 82.2913 8.77474 82.1957 8.70943 82.0435C8.57011 82.1435 8.32195 82.2913 8.03895 82.2913C7.73418 82.2913 7.66017 82.1087 7.66017 81.9565C7.66017 81.713 7.84303 80.987 7.84303 80.987C7.84303 80.987 7.48602 81.1304 7.36411 81.1348C7.19431 81.1348 7.11159 80.8217 7.11159 80.813C7.11159 80.8087 7.11159 80.8 7.1203 80.8C7.22044 80.7609 7.94317 80.513 7.94317 80.513C7.94317 80.513 8.07813 79.9826 8.09555 79.913C8.11296 79.8435 8.2131 79.7 8.33065 79.6565C8.41773 79.6217 8.50916 79.6 8.60059 79.5913C8.63107 79.5913 8.65284 79.6 8.65284 79.6174C8.65284 79.6348 8.47433 80.4087 8.47433 80.4087C8.47433 80.4087 8.84876 80.3217 8.98808 80.3217C9.09692 80.3217 9.15352 80.387 9.09257 80.4696C9.03162 80.5522 8.96196 80.6478 8.92712 80.6913C8.88794 80.7348 8.86182 80.7435 8.77039 80.7609C8.64413 80.787 8.36113 80.8565 8.36113 80.8565C8.36113 80.8565 8.13473 81.6783 8.13909 81.8174C8.13909 81.8957 8.16521 81.987 8.26099 81.987C8.35678 81.987 8.53964 81.8739 8.67025 81.7913C8.69202 81.1522 9.18835 80.7261 9.57584 80.7261C9.7021 80.7261 9.65421 80.8478 9.79788 80.8478H9.88931C9.94591 80.8478 10.0069 80.8522 10.0069 80.9957C10.0069 81.1957 9.89367 81.5261 9.89367 81.7348C9.89367 81.8826 9.91544 81.987 9.97204 81.987C10.0678 81.987 10.1767 81.8478 10.255 81.7261C10.3813 81.0304 10.734 79.7609 10.734 79.6174L10.747 79.6ZM12.5016 80.7C12.7672 80.6783 12.9326 80.8217 12.9631 80.9C12.9936 80.9783 12.9892 81.1609 12.9152 81.2913C12.6845 81.7044 12.1097 81.6304 12.1097 81.6304C12.1097 81.6304 12.0444 81.9565 12.3405 81.9565C12.593 81.9565 12.7062 81.8304 12.8151 81.7261C12.8586 81.7261 12.9936 81.8652 12.9326 81.9609C12.8847 82.0348 12.6191 82.2565 12.2795 82.2609C11.7397 82.2609 11.6047 81.8 11.6744 81.4696C11.7658 81.0609 12.1751 80.7217 12.5016 80.6957V80.7ZM9.6455 80.987C9.32332 80.987 8.82699 81.9696 9.20577 81.9652C9.61938 81.9652 9.6455 81.1826 9.6455 81.0043V80.987ZM12.6409 80.8913C12.4232 80.9 12.1751 81.3174 12.1533 81.5C12.4798 81.513 12.654 81.1957 12.6757 81.0696C12.6888 80.9739 12.6932 80.887 12.6409 80.887V80.8913Z" fill="#557086"/>
<path d="M51.1444 79.3778L51.6412 80.278L52.6518 80.4733C52.7792 80.4988 52.8302 80.6559 52.741 80.7494L52.0361 81.5009L52.1635 82.5243C52.1805 82.6559 52.0446 82.7494 51.93 82.6942L51 82.2568L50.0701 82.6942C49.9512 82.7494 49.8196 82.6517 49.8366 82.5243L49.9639 81.5009L49.2591 80.7494C49.1699 80.6559 49.2208 80.4988 49.3482 80.4733L50.3588 80.278L50.8557 79.3778C50.9194 79.2632 51.085 79.2632 51.1444 79.3778Z" fill="#FFC200"/>
<path d="M51 79.2929C51.0552 79.2929 51.1147 79.3226 51.1444 79.3778L51.6412 80.278L52.6518 80.4733C52.7792 80.4988 52.8302 80.6559 52.741 80.7494L52.0361 81.5009L52.1635 82.5243C52.1763 82.6262 52.0955 82.7111 51.9979 82.7111C51.9766 82.7111 51.9512 82.7069 51.9257 82.6942L50.9957 82.2568L50.0658 82.6942C50.0403 82.7069 50.0191 82.7111 49.9936 82.7111C49.9002 82.7111 49.8153 82.6262 49.828 82.5243L49.9554 81.5009L49.2505 80.7494C49.1613 80.6559 49.2123 80.4988 49.3397 80.4733L50.3503 80.278L50.8471 79.3778C50.8768 79.3226 50.9363 79.2929 50.9915 79.2929M51 79.0806C50.8641 79.0806 50.7367 79.157 50.6688 79.2759L50.2187 80.0912L49.3057 80.2653C49.1698 80.2908 49.0594 80.3884 49.017 80.5201C48.9745 80.6517 49.0085 80.7961 49.1019 80.8937L49.7388 81.5731L49.6242 82.4946C49.6115 82.6007 49.6454 82.7111 49.7134 82.7918C49.7856 82.8725 49.8875 82.9192 49.9979 82.9192C50.0531 82.9192 50.1083 82.9065 50.1592 82.881L51 82.4861L51.8408 82.881C51.8917 82.9065 51.9469 82.9192 52.0021 82.9192C52.1125 82.9192 52.2144 82.8725 52.2866 82.7918C52.3588 82.7111 52.3928 82.6007 52.3758 82.4946L52.2611 81.5731L52.8981 80.8937C52.9915 80.7918 53.0255 80.6474 52.983 80.5201C52.9405 80.3884 52.8301 80.2908 52.6943 80.2653L51.7813 80.0912L51.3312 79.2759C51.2633 79.157 51.1359 79.0806 51 79.0806Z" fill="#213743"/>
<path d="M51 79.8152V80.9744C51 81.0678 51.0892 81.1315 51.1784 81.106L52.2187 80.7706C52.2739 80.7536 52.2697 80.6729 52.2102 80.6602L51.5563 80.5413C51.4969 80.5286 51.4417 80.4903 51.4119 80.4351L51.085 79.7939C51.0637 79.7515 50.9958 79.7642 50.9958 79.8152H51Z" fill="#FFEBB8"/>
<path d="M51 81.4924V82.0699C51 82.1039 51.017 82.1294 51.0467 82.1464L51.7983 82.5073C51.8365 82.5243 51.8705 82.4818 51.845 82.4479L51.0934 81.4627C51.0637 81.4245 51 81.4457 51 81.4924Z" fill="#FF7F00"/>
<path d="M56.1444 79.3778L56.6412 80.278L57.6518 80.4733C57.7792 80.4988 57.8302 80.6559 57.741 80.7494L57.0361 81.5009L57.1635 82.5243C57.1805 82.6559 57.0446 82.7494 56.93 82.6942L56 82.2568L55.0701 82.6942C54.9512 82.7494 54.8196 82.6517 54.8366 82.5243L54.9639 81.5009L54.2591 80.7494C54.1699 80.6559 54.2208 80.4988 54.3482 80.4733L55.3588 80.278L55.8557 79.3778C55.9194 79.2632 56.085 79.2632 56.1444 79.3778Z" fill="#FFC200"/>
<path d="M56 79.2929C56.0552 79.2929 56.1147 79.3226 56.1444 79.3778L56.6412 80.278L57.6518 80.4733C57.7792 80.4988 57.8302 80.6559 57.741 80.7494L57.0361 81.5009L57.1635 82.5243C57.1763 82.6262 57.0955 82.7111 56.9979 82.7111C56.9766 82.7111 56.9512 82.7069 56.9257 82.6942L55.9957 82.2568L55.0658 82.6942C55.0403 82.7069 55.0191 82.7111 54.9936 82.7111C54.9002 82.7111 54.8153 82.6262 54.828 82.5243L54.9554 81.5009L54.2505 80.7494C54.1613 80.6559 54.2123 80.4988 54.3397 80.4733L55.3503 80.278L55.8471 79.3778C55.8768 79.3226 55.9363 79.2929 55.9915 79.2929M56 79.0806C55.8641 79.0806 55.7367 79.157 55.6688 79.2759L55.2187 80.0912L54.3057 80.2653C54.1698 80.2908 54.0594 80.3884 54.017 80.5201C53.9745 80.6517 54.0085 80.7961 54.1019 80.8937L54.7388 81.5731L54.6242 82.4946C54.6115 82.6007 54.6454 82.7111 54.7134 82.7918C54.7856 82.8725 54.8875 82.9192 54.9979 82.9192C55.0531 82.9192 55.1083 82.9065 55.1592 82.881L56 82.4861L56.8408 82.881C56.8917 82.9065 56.9469 82.9192 57.0021 82.9192C57.1125 82.9192 57.2144 82.8725 57.2866 82.7918C57.3588 82.7111 57.3928 82.6007 57.3758 82.4946L57.2611 81.5731L57.8981 80.8937C57.9915 80.7918 58.0255 80.6474 57.983 80.5201C57.9405 80.3884 57.8301 80.2908 57.6943 80.2653L56.7813 80.0912L56.3312 79.2759C56.2633 79.157 56.1359 79.0806 56 79.0806Z" fill="#213743"/>
<path d="M56 79.8152V80.9744C56 81.0678 56.0892 81.1315 56.1784 81.106L57.2187 80.7706C57.2739 80.7536 57.2697 80.6729 57.2102 80.6602L56.5563 80.5413C56.4969 80.5286 56.4417 80.4903 56.4119 80.4351L56.085 79.7939C56.0637 79.7515 55.9958 79.7642 55.9958 79.8152H56Z" fill="#FFEBB8"/>
<path d="M56 81.4924V82.0699C56 82.1039 56.017 82.1294 56.0467 82.1464L56.7983 82.5073C56.8365 82.5243 56.8705 82.4818 56.845 82.4479L56.0934 81.4627C56.0637 81.4245 56 81.4457 56 81.4924Z" fill="#FF7F00"/>
<rect x="13" y="62" width="37" height="13" rx="6.5" fill="#2F4553"/>
<path d="M28.573 70H27.541V67.318L26.869 67.996L26.281 67.378L27.679 65.998H28.573V70ZM30.8066 70.072C29.6366 70.072 29.0906 69.058 29.0906 68.002C29.0906 66.946 29.6366 65.938 30.8066 65.938C31.9766 65.938 32.5226 66.946 32.5226 68.002C32.5226 69.058 31.9766 70.072 30.8066 70.072ZM30.8066 69.16C31.2866 69.16 31.4786 68.71 31.4786 68.002C31.4786 67.294 31.2866 66.85 30.8066 66.85C30.3266 66.85 30.1346 67.294 30.1346 68.002C30.1346 68.71 30.3266 69.16 30.8066 69.16ZM35.7867 70H34.7727L34.2147 69.124L33.6507 70H32.6427L33.6327 68.512L32.7027 67.102H33.7167L34.2147 67.888L34.7067 67.102H35.7207L34.7967 68.512L35.7867 70Z" fill="white"/>
<path d="M8.03 11H7.215L6.56 9.815H6.04V11H5.33V7.665H6.89C7.585 7.665 8.01 8.12 8.01 8.74C8.01 9.33 7.64 9.645 7.28 9.73L8.03 11ZM6.785 9.19C7.07 9.19 7.285 9.02 7.285 8.74C7.285 8.46 7.07 8.29 6.785 8.29H6.04V9.19H6.785ZM10.5152 11H9.88023V10.75C9.71523 10.945 9.43023 11.06 9.11523 11.06C8.73023 11.06 8.27523 10.8 8.27523 10.26C8.27523 9.695 8.73023 9.48 9.11523 9.48C9.43523 9.48 9.72023 9.585 9.88023 9.775V9.45C9.88023 9.205 9.67023 9.045 9.35023 9.045C9.09023 9.045 8.85023 9.14 8.64523 9.33L8.40523 8.905C8.70023 8.645 9.08023 8.525 9.46023 8.525C10.0102 8.525 10.5152 8.745 10.5152 9.44V11ZM9.37023 10.63C9.57523 10.63 9.77523 10.56 9.88023 10.42V10.12C9.77523 9.98 9.57523 9.91 9.37023 9.91C9.12023 9.91 8.91523 10.04 8.91523 10.275C8.91523 10.5 9.12023 10.63 9.37023 10.63ZM11.7801 11H11.1451V8.585H11.7801V8.915C11.9501 8.7 12.2501 8.525 12.5501 8.525V9.145C12.5051 9.135 12.4451 9.13 12.3751 9.13C12.1651 9.13 11.8851 9.25 11.7801 9.405V11ZM14.0818 11.06C13.3468 11.06 12.7918 10.565 12.7918 9.79C12.7918 9.09 13.3068 8.525 14.0418 8.525C14.7618 8.525 15.2518 9.065 15.2518 9.855V9.995H13.4568C13.4968 10.3 13.7418 10.555 14.1518 10.555C14.3568 10.555 14.6418 10.465 14.7968 10.315L15.0768 10.725C14.8368 10.945 14.4568 11.06 14.0818 11.06ZM14.6368 9.565C14.6218 9.335 14.4618 9.03 14.0418 9.03C13.6468 9.03 13.4768 9.325 13.4468 9.565H14.6368Z" fill="#05080A"/>
<path d="M48.7366 11H48.2846L46.8926 9.096V11H46.4246V8.332H46.9046L48.2686 10.184V8.332H48.7366V11ZM50.1635 11.048C49.5515 11.048 49.1715 10.588 49.1715 10.032C49.1715 9.48 49.5515 9.02 50.1635 9.02C50.7835 9.02 51.1595 9.48 51.1595 10.032C51.1595 10.588 50.7835 11.048 50.1635 11.048ZM50.1635 10.676C50.5235 10.676 50.7235 10.376 50.7235 10.032C50.7235 9.692 50.5235 9.392 50.1635 9.392C49.8075 9.392 49.6075 9.692 49.6075 10.032C49.6075 10.376 49.8075 10.676 50.1635 10.676ZM51.781 11.044C51.629 11.044 51.501 10.916 51.501 10.764C51.501 10.612 51.629 10.484 51.781 10.484C51.933 10.484 52.061 10.612 52.061 10.764C52.061 10.916 51.933 11.044 51.781 11.044ZM54.4048 11.048C53.9288 11.048 53.5768 10.856 53.3968 10.616L53.6488 10.308C53.8208 10.508 54.1048 10.632 54.3888 10.632C54.7408 10.632 54.9448 10.472 54.9448 10.224C54.9448 9.96 54.7328 9.848 54.3528 9.848C54.2408 9.848 54.0848 9.848 54.0448 9.852V9.432C54.0928 9.436 54.2488 9.436 54.3528 9.436C54.6648 9.436 54.9008 9.328 54.9008 9.084C54.9008 8.836 54.6608 8.708 54.3608 8.708C54.0888 8.708 53.8648 8.812 53.6728 9.004L53.4328 8.712C53.6368 8.472 53.9608 8.292 54.4048 8.292C54.9808 8.292 55.3688 8.564 55.3688 9.012C55.3688 9.368 55.0648 9.576 54.7888 9.624C55.0488 9.648 55.4088 9.86 55.4088 10.272C55.4088 10.724 55.0208 11.048 54.4048 11.048ZM56.8617 11.048C56.0777 11.048 55.7617 10.412 55.7617 9.672C55.7617 8.9 56.1657 8.292 56.9377 8.292C57.2697 8.292 57.5257 8.412 57.7057 8.588L57.4857 8.944C57.3457 8.796 57.1937 8.708 56.9377 8.708C56.4937 8.708 56.2337 9.12 56.2337 9.588C56.2337 9.616 56.2337 9.64 56.2377 9.664C56.3577 9.484 56.6377 9.292 56.9537 9.292C57.4337 9.292 57.8457 9.584 57.8457 10.152C57.8457 10.648 57.4577 11.048 56.8617 11.048ZM56.8377 10.632C57.1897 10.632 57.3737 10.384 57.3737 10.168C57.3737 9.84 57.1177 9.692 56.8257 9.692C56.5977 9.692 56.3777 9.816 56.2417 10.008C56.2697 10.296 56.4257 10.632 56.8377 10.632Z" fill="white"/>
<defs>
<linearGradient id="paint0_linear_26835_29199" x1="31.5" y1="61.62" x2="31.5" y2="8.37" gradientUnits="userSpaceOnUse">
<stop stop-color="#002135" stop-opacity="0"/>
<stop offset="1" stop-color="#E9113C"/>
</linearGradient>
<linearGradient id="paint1_linear_26835_29199" x1="31.4" y1="8.03027" x2="45.33" y2="20.2603" gradientUnits="userSpaceOnUse">
<stop stop-color="#E9113C"/>
<stop offset="1" stop-color="#FF7F00"/>
</linearGradient>
<linearGradient id="paint2_linear_26835_29199" x1="41.19" y1="9.8802" x2="45.18" y2="13.9202" gradientUnits="userSpaceOnUse">
<stop stop-color="#FF637F"/>
<stop offset="1" stop-color="#FEAC2F"/>
</linearGradient>
<linearGradient id="paint3_linear_26835_29199" x1="65.5564" y1="25.8534" x2="53.548" y2="33.6546" gradientUnits="userSpaceOnUse">
<stop stop-color="#FF8C00" stop-opacity="0"/>
<stop offset="1" stop-color="#FF8C00" stop-opacity="0.4"/>
</linearGradient>
<clipPath id="clip0_26835_29199">
<rect width="63" height="88" fill="white"/>
</clipPath>
</defs>
</svg>
