<svg width="63" height="88" viewBox="0 0 63 88" fill="none" xmlns="http://www.w3.org/2000/svg">
<rect width="63" height="88" rx="4" fill="#1CE61C"/>
<path d="M36.7008 13.5133L44.7992 3.48665C45.5586 2.54645 46.7024 2 47.911 2H58C59.6569 2 61 3.34314 61 5V83C61 84.6569 59.6569 86 58 86H5C3.34315 86 2 84.6569 2 83V18C2 16.3431 3.34315 15 5 15H33.589C34.7976 15 35.9414 14.4536 36.7008 13.5133Z" fill="#213743"/>
<mask id="mask0_26835_29200" style="mask-type:luminance" maskUnits="userSpaceOnUse" x="0" y="0" width="63" height="88">
<path d="M59 0H4C1.79 0 0 1.79 0 4V84C0 86.21 1.79 88 4 88H59C61.21 88 63 86.21 63 84V4C63 1.79 61.21 0 59 0ZM61 82.81C61 84.57 59.57 86 57.81 86H5.19C3.43 86 2 84.57 2 82.81V18.19C2 16.43 3.43 15 5.19 15H33.59C34.8 15 35.94 14.45 36.7 13.51L44.8 3.48C45.56 2.54 46.7 1.99 47.91 1.99H57.81C59.57 1.99 61 3.42 61 5.18V82.8V82.81Z" fill="white"/>
</mask>
<g mask="url(#mask0_26835_29200)">
<path d="M68.37 47.3199V26.6399L4.45999 90.5499H25.13L68.37 47.3199Z" fill="white"/>
<path d="M64.66 -2.29004H55.22L-2.92001 55.84V66.18L65.46 -2.20004C65.2 -2.26004 64.93 -2.29004 64.66 -2.29004Z" fill="white"/>
<path d="M68.37 69.23V61.55L39.37 90.55H47.05L68.37 69.23Z" fill="white"/>
</g>
<rect x="5" y="18" width="53" height="40" rx="1" fill="#2F4553"/>
<g clip-path="url(#clip0_26835_29200)">
<path d="M57 18H6C5.44772 18 5 18.4477 5 19V57C5 57.5523 5.44772 58 6 58H57C57.5523 58 58 57.5523 58 57V19C58 18.4477 57.5523 18 57 18Z" fill="#047BFF"/>
<path d="M6 58H57C57.55 58 58 57.55 58 57V42.48C38.2 34.86 5 27.53 5 27.53V57C5 57.55 5.45 58 6 58Z" fill="#FFEBB8"/>
<ellipse cx="41.428" cy="54.1821" rx="9.84656" ry="2" transform="rotate(11.4542 41.428 54.1821)" fill="#1A2C38"/>
<path d="M6.10889 31.2513L11.2584 20.0952C11.611 19.3503 12.4182 18.9142 13.244 19.0142C15.5079 19.2867 17.6883 19.7864 19.776 20.5858C20.6018 20.9038 21.1028 21.7305 20.9822 22.5935L19.2842 35.0578C19.2193 35.5302 18.8296 35.9026 18.3471 35.9481C16.2595 36.1479 10.9337 35.9208 6.42436 32.5231C6.02539 32.2233 5.88621 31.6964 6.09961 31.2513H6.10889Z" fill="url(#paint0_linear_26835_29200)"/>
<path d="M47.98 39.7799L50.79 34.1599C50.98 33.7799 51.39 33.5799 51.81 33.6399C52.94 33.8199 54.03 34.1199 55.06 34.5699C55.47 34.7499 55.7 35.1799 55.63 35.6199L54.54 41.9799C54.5 42.2199 54.3 42.3999 54.05 42.4199C53 42.4799 50.33 42.2699 48.13 40.4299C47.94 40.2699 47.88 39.9899 47.99 39.7699L47.98 39.7799Z" fill="url(#paint1_linear_26835_29200)"/>
<path d="M29.1981 25.3997C29.1981 25.3997 28.5622 25.7029 27.7991 26.1236C26.5664 26.8085 25.0011 27.7966 25.1674 28.3444C25.4413 29.2249 25.05 29.45 24.6293 29.2934C24.2184 29.1369 24.5119 30.6533 22.8879 29.9587C21.5965 29.4108 21.4008 27.0726 24.4532 23.6191C25.2261 22.7484 26.1946 21.8092 27.4078 20.8113C27.4078 20.8113 31.145 23.2962 29.1786 25.3997H29.1981Z" fill="white"/>
<path d="M41.9164 17.7001C41.9164 17.7001 42.1805 17.0838 42.5621 16.3304C43.0219 14.4912 41.7599 12.7302 40.0086 13.2291C39.2064 14.002 38.3357 14.9803 37.4258 16.1837C37.4258 16.1837 39.9695 19.6763 41.9164 17.7001Z" fill="#DFEAF0"/>
<path d="M42.5523 16.3306C43.1589 15.1174 44.0492 13.5717 44.5775 13.7086C45.4384 13.9337 45.6341 13.5521 45.4678 13.1608C45.3014 12.7694 46.7689 12.9847 46.0352 11.4585C45.4482 10.2356 43.198 10.1475 39.9989 13.2195C41.0457 13.2782 42.3371 15.0098 42.5523 16.3208V16.3306Z" fill="white"/>
<path d="M31.6342 11.6933C31.5853 11.7031 31.5266 11.6933 31.4776 11.6738L30.2449 11.0574C30.1569 11.0183 30.108 10.9302 30.108 10.8324C30.108 10.7346 30.1569 10.6563 30.2352 10.6074L31.0667 10.1573L30.1178 9.61926C30.0004 9.55077 29.9514 9.39424 30.0199 9.27684C30.0884 9.15944 30.2449 9.11052 30.3623 9.17901L31.7027 9.94211C31.7809 9.99102 31.8298 10.0693 31.8298 10.1671C31.8298 10.2552 31.7809 10.3432 31.7027 10.3824L30.8906 10.8226L31.6831 11.2237C31.8103 11.2824 31.8592 11.439 31.8005 11.5564C31.7614 11.6248 31.7027 11.6738 31.6244 11.6933H31.6342Z" fill="white"/>
<path d="M30.1079 9.81493C30.3673 9.81493 30.5775 9.60469 30.5775 9.34533C30.5775 9.08598 30.3673 8.87573 30.1079 8.87573C29.8486 8.87573 29.6383 9.08598 29.6383 9.34533C29.6383 9.60469 29.8486 9.81493 30.1079 9.81493Z" fill="white"/>
<path d="M39.8521 13.8064C39.8521 13.8064 37.8368 8.52344 36.9073 8.04406C35.9779 7.56468 35.2442 11.1552 35.2442 11.1552C35.2442 11.1552 37.9444 14.2076 39.8521 13.7967V13.8064Z" fill="white"/>
<path d="M27.0946 19.9504C27.0946 19.9504 24.3553 14.1098 24.5607 12.8086C24.7662 11.5074 28.8458 13.7576 28.8458 13.7576C28.8458 13.7576 28.6404 19.5689 27.0946 19.9602V19.9504Z" fill="white"/>
<path d="M50.4671 24.8029C50.2812 23.2083 49.8018 22.4549 47.8549 22.2984C46.769 22.2104 45.3112 22.0343 44.2938 21.9071C43.5796 21.819 42.9926 21.3103 42.7969 20.6157C42.4447 19.3536 41.8186 17.2502 41.0946 15.3718C39.6173 11.527 35.1953 9.71704 31.3798 11.2628C27.5643 12.8086 25.725 17.1622 27.2708 20.9777L29.0122 25.2725C29.0122 25.2725 30.6754 30.1838 31.8591 35.3592C31.8591 35.3592 32.319 36.9832 35.0192 36.4451C37.7292 35.8973 38.9032 34.4004 38.9032 34.4004C38.9032 34.4004 38.6684 32.1307 38.7466 30.1446C38.7662 29.5087 39.1967 28.9609 39.8032 28.7652C42.1219 28.051 45.1743 30.2816 47.4342 29.9001C50.0659 29.4598 50.6529 26.3976 50.4671 24.7932V24.8029Z" fill="white"/>
<path d="M36.7802 19.5884C36.3302 19.6177 35.9682 19.6666 35.4497 20.1754C35.0192 20.6058 34.2365 19.334 35.6551 18.6589C37.6216 17.7295 38.3455 18.4633 38.1694 18.9622C38.0422 19.334 37.7194 19.5199 36.7704 19.5884H36.7802Z" fill="#2F2D2A"/>
<path d="M37.7585 17.71L37.8955 18.1894C37.9346 18.3361 37.8661 18.4927 37.739 18.5709C37.7194 18.5807 37.6998 18.5905 37.6803 18.6003C37.6411 18.5024 37.5335 18.4437 37.4259 18.4731C37.3085 18.5024 37.24 18.6296 37.2791 18.7372C37.2791 18.7568 37.2889 18.7666 37.2987 18.7862C36.565 19.1286 35.8019 19.3145 35.0192 19.334C34.8627 19.334 34.7257 19.2362 34.6866 19.0894L34.5496 18.6003C35.7334 18.6003 36.8095 18.3166 37.7683 17.6904L37.7585 17.71Z" fill="white"/>
<path d="M33.1701 12.3487C32.7494 12.5933 32.407 12.9259 32.1624 13.2977C32.2504 12.5933 32.6809 11.9084 33.3755 11.4877C34.5202 10.8029 35.9583 11.1062 36.5845 12.1628C36.6921 12.3487 36.7703 12.5443 36.8193 12.7498C35.9388 11.8106 34.4223 11.6149 33.1701 12.3487Z" fill="#DFEAF0"/>
<path d="M35.1072 17.8177C36.6039 17.8177 37.8172 16.6044 37.8172 15.1077C37.8172 13.611 36.6039 12.3977 35.1072 12.3977C33.6105 12.3977 32.3972 13.611 32.3972 15.1077C32.3972 16.6044 33.6105 17.8177 35.1072 17.8177Z" fill="#DDDFE5"/>
<path d="M34.7844 17.5926C36.281 17.5926 37.4943 16.3793 37.4943 14.8826C37.4943 13.3859 36.281 12.1726 34.7844 12.1726C33.2877 12.1726 32.0744 13.3859 32.0744 14.8826C32.0744 16.3793 33.2877 17.5926 34.7844 17.5926Z" fill="#504C47"/>
<path d="M34.5692 17.1915C35.9254 17.1915 37.0248 16.0921 37.0248 14.7359C37.0248 13.3797 35.9254 12.2803 34.5692 12.2803C33.213 12.2803 32.1136 13.3797 32.1136 14.7359C32.1136 16.0921 33.213 17.1915 34.5692 17.1915Z" fill="#2F2D2A"/>
<path d="M33.8941 15.1957C34.3641 15.1957 34.7452 14.8146 34.7452 14.3446C34.7452 13.8745 34.3641 13.4934 33.8941 13.4934C33.424 13.4934 33.0429 13.8745 33.0429 14.3446C33.0429 14.8146 33.424 15.1957 33.8941 15.1957Z" fill="white"/>
<path d="M35.5671 15.587C35.7292 15.587 35.8606 15.4556 35.8606 15.2935C35.8606 15.1314 35.7292 15 35.5671 15C35.405 15 35.2736 15.1314 35.2736 15.2935C35.2736 15.4556 35.405 15.587 35.5671 15.587Z" fill="white"/>
<path d="M49.9681 26.7107C49.6257 28.051 48.8724 28.9706 48.4713 28.8728C48.0702 28.775 48.031 27.601 48.3734 26.2606C48.7159 24.9203 49.3126 23.9126 49.704 24.0105C50.0953 24.1083 50.3008 25.3704 49.9583 26.7107H49.9681Z" fill="#DFEAF0"/>
<path d="M38.4727 53.1549C44.1569 53.1549 48.7648 48.547 48.7648 42.8629C48.7648 37.1787 44.1569 32.5708 38.4727 32.5708C32.7886 32.5708 28.1806 37.1787 28.1806 42.8629C28.1806 48.547 32.7886 53.1549 38.4727 53.1549Z" fill="#FFC200"/>
<path d="M45.1449 48.9677C45.0666 50.3765 41.8675 52.3528 38.0911 52.1277C34.3147 51.9027 31.3699 49.5743 31.4482 48.1655C31.5265 46.7567 34.393 47.647 38.1694 47.872C41.9457 48.097 45.2232 47.5589 45.1449 48.9677Z" fill="#FF7F00"/>
<path d="M45.6964 39.9112C46.4742 38.7284 45.8751 36.9609 44.3582 35.9633C42.8414 34.9658 40.9812 35.116 40.2033 36.2988C39.4255 37.4816 40.0246 39.2491 41.5414 40.2466C43.0583 41.2441 44.9185 41.094 45.6964 39.9112Z" fill="white"/>
<path d="M29.13 41.21C22.74 38.32 16.06 37.82 11.95 37.86C9.36 37.88 6.98 39.29 5.75 41.57C5.5 42.03 5.25 42.52 5 43.02V57C5 57.55 5.45 58 6 58H32.55C33.05 54.26 33.25 50.59 33.31 47.88C33.38 45.02 31.74 42.39 29.14 41.22L29.13 41.21Z" fill="white"/>
<path d="M29.2272 43.8931C29.4461 42.7486 25.3098 40.9955 19.9884 39.9775C14.667 38.9595 10.1756 39.0621 9.95664 40.2066C9.73768 41.3512 13.874 43.1043 19.1955 44.1223C24.5169 45.1403 29.0082 45.0377 29.2272 43.8931Z" fill="#FFC200"/>
</g>
<path fill-rule="evenodd" clip-rule="evenodd" d="M6.49771 79C6.98969 79 7.48602 79.213 7.49037 79.6913C7.49037 80.1043 7.24656 80.2696 6.99839 80.2696C6.75023 80.2696 6.73281 80.1435 6.73281 80.1435C6.73281 80.1435 7.02452 79.9261 7.02452 79.7174C7.02452 79.6087 6.94179 79.313 6.489 79.3174C5.8577 79.3174 5.5181 79.6174 5.5181 80.1522C5.5181 80.7652 7.35105 80.9739 7.3554 81.7652C7.3554 82.613 6.47594 82.9957 5.69225 83C5.283 83 5.01306 82.7609 5.00871 82.3783C5.00871 81.9261 5.22204 81.4652 5.75756 81.4652C5.88382 81.4565 5.98831 81.5522 5.99702 81.6783C5.99702 81.6783 5.99702 81.6826 5.99702 81.687C5.99702 81.687 5.45715 81.8391 5.4615 82.3783C5.4615 82.4783 5.56599 82.6609 5.81851 82.6565C6.07103 82.6522 6.82424 82.4739 6.81989 81.8087C6.81989 81.1913 5.00435 81.1087 5 80.1478C5 79.0652 6.08845 79.0087 6.49771 79.0087V79ZM10.747 79.6C10.8123 79.5696 11.2129 79.4913 11.1955 79.813C11.1824 80.1348 10.9386 80.6913 10.9037 80.9348C11.2303 80.7696 11.6918 80.2087 11.6918 80.2087C11.6918 80.2087 12.0183 80.2522 11.9182 80.4522C11.818 80.6522 11.1519 81.1435 11.1519 81.1435C11.1519 81.1435 11.3043 82.5696 12.1707 82.5696C12.6453 82.5696 12.8499 82.3609 12.937 82.287C12.9587 82.2696 12.9762 82.2652 12.9849 82.2783C13.0197 82.387 12.9936 82.5043 12.9152 82.5913C12.8194 82.6957 12.5974 82.8217 12.1533 82.8261C11.3653 82.8261 10.9255 82.1957 10.8123 81.2609C10.7252 81.5348 10.7339 81.9826 10.7209 82.2C10.6948 82.2435 10.2507 82.4174 10.2158 82.1174C10.2158 82.0913 10.2158 82.0696 10.2158 82.0435C10.1331 82.1609 10.0199 82.2826 9.91108 82.2826C9.71951 82.2826 9.63679 82.1217 9.60196 82.0391C9.57584 82.0696 9.3625 82.287 9.08821 82.287C8.92277 82.2913 8.77474 82.1957 8.70943 82.0435C8.57011 82.1435 8.32195 82.2913 8.03895 82.2913C7.73418 82.2913 7.66017 82.1087 7.66017 81.9565C7.66017 81.713 7.84303 80.987 7.84303 80.987C7.84303 80.987 7.48602 81.1304 7.36411 81.1348C7.19431 81.1348 7.11159 80.8217 7.11159 80.813C7.11159 80.8087 7.11159 80.8 7.1203 80.8C7.22044 80.7609 7.94317 80.513 7.94317 80.513C7.94317 80.513 8.07813 79.9826 8.09555 79.913C8.11296 79.8435 8.2131 79.7 8.33065 79.6565C8.41773 79.6217 8.50916 79.6 8.60059 79.5913C8.63107 79.5913 8.65284 79.6 8.65284 79.6174C8.65284 79.6348 8.47433 80.4087 8.47433 80.4087C8.47433 80.4087 8.84876 80.3217 8.98808 80.3217C9.09692 80.3217 9.15352 80.387 9.09257 80.4696C9.03162 80.5522 8.96196 80.6478 8.92712 80.6913C8.88794 80.7348 8.86182 80.7435 8.77039 80.7609C8.64413 80.787 8.36113 80.8565 8.36113 80.8565C8.36113 80.8565 8.13473 81.6783 8.13909 81.8174C8.13909 81.8957 8.16521 81.987 8.26099 81.987C8.35678 81.987 8.53964 81.8739 8.67025 81.7913C8.69202 81.1522 9.18835 80.7261 9.57584 80.7261C9.7021 80.7261 9.65421 80.8478 9.79788 80.8478H9.88931C9.94591 80.8478 10.0069 80.8522 10.0069 80.9957C10.0069 81.1957 9.89367 81.5261 9.89367 81.7348C9.89367 81.8826 9.91544 81.987 9.97204 81.987C10.0678 81.987 10.1767 81.8478 10.255 81.7261C10.3813 81.0304 10.734 79.7609 10.734 79.6174L10.747 79.6ZM12.5016 80.7C12.7672 80.6783 12.9326 80.8217 12.9631 80.9C12.9936 80.9783 12.9892 81.1609 12.9152 81.2913C12.6845 81.7044 12.1097 81.6304 12.1097 81.6304C12.1097 81.6304 12.0444 81.9565 12.3405 81.9565C12.593 81.9565 12.7062 81.8304 12.8151 81.7261C12.8586 81.7261 12.9936 81.8652 12.9326 81.9609C12.8847 82.0348 12.6191 82.2565 12.2795 82.2609C11.7397 82.2609 11.6047 81.8 11.6744 81.4696C11.7658 81.0609 12.1751 80.7217 12.5016 80.6957V80.7ZM9.6455 80.987C9.32332 80.987 8.82699 81.9696 9.20577 81.9652C9.61938 81.9652 9.6455 81.1826 9.6455 81.0043V80.987ZM12.6409 80.8913C12.4232 80.9 12.1751 81.3174 12.1533 81.5C12.4798 81.513 12.654 81.1957 12.6757 81.0696C12.6888 80.9739 12.6932 80.887 12.6409 80.887V80.8913Z" fill="#557086"/>
<path d="M51.1444 79.3778L51.6412 80.278L52.6518 80.4733C52.7792 80.4988 52.8302 80.6559 52.741 80.7494L52.0361 81.5009L52.1635 82.5243C52.1805 82.6559 52.0446 82.7494 51.93 82.6942L51 82.2568L50.0701 82.6942C49.9512 82.7494 49.8196 82.6517 49.8366 82.5243L49.9639 81.5009L49.2591 80.7494C49.1699 80.6559 49.2208 80.4988 49.3482 80.4733L50.3588 80.278L50.8557 79.3778C50.9194 79.2632 51.085 79.2632 51.1444 79.3778Z" fill="#FFC200"/>
<path d="M51 79.2929C51.0552 79.2929 51.1147 79.3226 51.1444 79.3778L51.6412 80.278L52.6518 80.4733C52.7792 80.4988 52.8302 80.6559 52.741 80.7494L52.0361 81.5009L52.1635 82.5243C52.1763 82.6262 52.0955 82.7111 51.9979 82.7111C51.9766 82.7111 51.9512 82.7069 51.9257 82.6942L50.9957 82.2568L50.0658 82.6942C50.0403 82.7069 50.0191 82.7111 49.9936 82.7111C49.9002 82.7111 49.8153 82.6262 49.828 82.5243L49.9554 81.5009L49.2505 80.7494C49.1613 80.6559 49.2123 80.4988 49.3397 80.4733L50.3503 80.278L50.8471 79.3778C50.8768 79.3226 50.9363 79.2929 50.9915 79.2929M51 79.0806C50.8641 79.0806 50.7367 79.157 50.6688 79.2759L50.2187 80.0912L49.3057 80.2653C49.1698 80.2908 49.0594 80.3884 49.017 80.5201C48.9745 80.6517 49.0085 80.7961 49.1019 80.8937L49.7388 81.5731L49.6242 82.4946C49.6115 82.6007 49.6454 82.7111 49.7134 82.7918C49.7856 82.8725 49.8875 82.9192 49.9979 82.9192C50.0531 82.9192 50.1083 82.9065 50.1592 82.881L51 82.4861L51.8408 82.881C51.8917 82.9065 51.9469 82.9192 52.0021 82.9192C52.1125 82.9192 52.2144 82.8725 52.2866 82.7918C52.3588 82.7111 52.3928 82.6007 52.3758 82.4946L52.2611 81.5731L52.8981 80.8937C52.9915 80.7918 53.0255 80.6474 52.983 80.5201C52.9405 80.3884 52.8301 80.2908 52.6943 80.2653L51.7813 80.0912L51.3312 79.2759C51.2633 79.157 51.1359 79.0806 51 79.0806Z" fill="#213743"/>
<path d="M51 79.8152V80.9744C51 81.0678 51.0892 81.1315 51.1784 81.106L52.2187 80.7706C52.2739 80.7536 52.2697 80.6729 52.2102 80.6602L51.5563 80.5413C51.4969 80.5286 51.4417 80.4903 51.4119 80.4351L51.085 79.7939C51.0637 79.7515 50.9958 79.7642 50.9958 79.8152H51Z" fill="#FFEBB8"/>
<path d="M51 81.4924V82.0699C51 82.1039 51.017 82.1294 51.0467 82.1464L51.7983 82.5073C51.8365 82.5243 51.8705 82.4818 51.845 82.4479L51.0934 81.4627C51.0637 81.4245 51 81.4457 51 81.4924Z" fill="#FF7F00"/>
<path d="M56.1444 79.3778L56.6412 80.278L57.6518 80.4733C57.7792 80.4988 57.8302 80.6559 57.741 80.7494L57.0361 81.5009L57.1635 82.5243C57.1805 82.6559 57.0446 82.7494 56.93 82.6942L56 82.2568L55.0701 82.6942C54.9512 82.7494 54.8196 82.6517 54.8366 82.5243L54.9639 81.5009L54.2591 80.7494C54.1699 80.6559 54.2208 80.4988 54.3482 80.4733L55.3588 80.278L55.8557 79.3778C55.9194 79.2632 56.085 79.2632 56.1444 79.3778Z" fill="#FFC200"/>
<path d="M56 79.2929C56.0552 79.2929 56.1147 79.3226 56.1444 79.3778L56.6412 80.278L57.6518 80.4733C57.7792 80.4988 57.8302 80.6559 57.741 80.7494L57.0361 81.5009L57.1635 82.5243C57.1763 82.6262 57.0955 82.7111 56.9979 82.7111C56.9766 82.7111 56.9512 82.7069 56.9257 82.6942L55.9957 82.2568L55.0658 82.6942C55.0403 82.7069 55.0191 82.7111 54.9936 82.7111C54.9002 82.7111 54.8153 82.6262 54.828 82.5243L54.9554 81.5009L54.2505 80.7494C54.1613 80.6559 54.2123 80.4988 54.3397 80.4733L55.3503 80.278L55.8471 79.3778C55.8768 79.3226 55.9363 79.2929 55.9915 79.2929M56 79.0806C55.8641 79.0806 55.7367 79.157 55.6688 79.2759L55.2187 80.0912L54.3057 80.2653C54.1698 80.2908 54.0594 80.3884 54.017 80.5201C53.9745 80.6517 54.0085 80.7961 54.1019 80.8937L54.7388 81.5731L54.6242 82.4946C54.6115 82.6007 54.6454 82.7111 54.7134 82.7918C54.7856 82.8725 54.8875 82.9192 54.9979 82.9192C55.0531 82.9192 55.1083 82.9065 55.1592 82.881L56 82.4861L56.8408 82.881C56.8917 82.9065 56.9469 82.9192 57.0021 82.9192C57.1125 82.9192 57.2144 82.8725 57.2866 82.7918C57.3588 82.7111 57.3928 82.6007 57.3758 82.4946L57.2611 81.5731L57.8981 80.8937C57.9915 80.7918 58.0255 80.6474 57.983 80.5201C57.9405 80.3884 57.8301 80.2908 57.6943 80.2653L56.7813 80.0912L56.3312 79.2759C56.2633 79.157 56.1359 79.0806 56 79.0806Z" fill="#213743"/>
<path d="M56 79.8152V80.9744C56 81.0678 56.0892 81.1315 56.1784 81.106L57.2187 80.7706C57.2739 80.7536 57.2697 80.6729 57.2102 80.6602L56.5563 80.5413C56.4969 80.5286 56.4417 80.4903 56.4119 80.4351L56.085 79.7939C56.0637 79.7515 55.9958 79.7642 55.9958 79.8152H56Z" fill="#FFEBB8"/>
<path d="M56 81.4924V82.0699C56 82.1039 56.017 82.1294 56.0467 82.1464L56.7983 82.5073C56.8365 82.5243 56.8705 82.4818 56.845 82.4479L56.0934 81.4627C56.0637 81.4245 56 81.4457 56 81.4924Z" fill="#FF7F00"/>
<rect x="13" y="62" width="37" height="13" rx="6.5" fill="#2F4553"/>
<path d="M28.573 70H27.541V67.318L26.869 67.996L26.281 67.378L27.679 65.998H28.573V70ZM30.8066 70.072C29.6366 70.072 29.0906 69.058 29.0906 68.002C29.0906 66.946 29.6366 65.938 30.8066 65.938C31.9766 65.938 32.5226 66.946 32.5226 68.002C32.5226 69.058 31.9766 70.072 30.8066 70.072ZM30.8066 69.16C31.2866 69.16 31.4786 68.71 31.4786 68.002C31.4786 67.294 31.2866 66.85 30.8066 66.85C30.3266 66.85 30.1346 67.294 30.1346 68.002C30.1346 68.71 30.3266 69.16 30.8066 69.16ZM35.7867 70H34.7727L34.2147 69.124L33.6507 70H32.6427L33.6327 68.512L32.7027 67.102H33.7167L34.2147 67.888L34.7067 67.102H35.7207L34.7967 68.512L35.7867 70Z" fill="white"/>
<path d="M8.03 11H7.215L6.56 9.815H6.04V11H5.33V7.665H6.89C7.585 7.665 8.01 8.12 8.01 8.74C8.01 9.33 7.64 9.645 7.28 9.73L8.03 11ZM6.785 9.19C7.07 9.19 7.285 9.02 7.285 8.74C7.285 8.46 7.07 8.29 6.785 8.29H6.04V9.19H6.785ZM10.5152 11H9.88023V10.75C9.71523 10.945 9.43023 11.06 9.11523 11.06C8.73023 11.06 8.27523 10.8 8.27523 10.26C8.27523 9.695 8.73023 9.48 9.11523 9.48C9.43523 9.48 9.72023 9.585 9.88023 9.775V9.45C9.88023 9.205 9.67023 9.045 9.35023 9.045C9.09023 9.045 8.85023 9.14 8.64523 9.33L8.40523 8.905C8.70023 8.645 9.08023 8.525 9.46023 8.525C10.0102 8.525 10.5152 8.745 10.5152 9.44V11ZM9.37023 10.63C9.57523 10.63 9.77523 10.56 9.88023 10.42V10.12C9.77523 9.98 9.57523 9.91 9.37023 9.91C9.12023 9.91 8.91523 10.04 8.91523 10.275C8.91523 10.5 9.12023 10.63 9.37023 10.63ZM11.7801 11H11.1451V8.585H11.7801V8.915C11.9501 8.7 12.2501 8.525 12.5501 8.525V9.145C12.5051 9.135 12.4451 9.13 12.3751 9.13C12.1651 9.13 11.8851 9.25 11.7801 9.405V11ZM14.0818 11.06C13.3468 11.06 12.7918 10.565 12.7918 9.79C12.7918 9.09 13.3068 8.525 14.0418 8.525C14.7618 8.525 15.2518 9.065 15.2518 9.855V9.995H13.4568C13.4968 10.3 13.7418 10.555 14.1518 10.555C14.3568 10.555 14.6418 10.465 14.7968 10.315L15.0768 10.725C14.8368 10.945 14.4568 11.06 14.0818 11.06ZM14.6368 9.565C14.6218 9.335 14.4618 9.03 14.0418 9.03C13.6468 9.03 13.4768 9.325 13.4468 9.565H14.6368Z" fill="#05080A"/>
<path d="M49.0101 11H48.5581L47.1661 9.096V11H46.6981V8.332H47.1781L48.5421 10.184V8.332H49.0101V11ZM50.437 11.048C49.825 11.048 49.445 10.588 49.445 10.032C49.445 9.48 49.825 9.02 50.437 9.02C51.057 9.02 51.433 9.48 51.433 10.032C51.433 10.588 51.057 11.048 50.437 11.048ZM50.437 10.676C50.797 10.676 50.997 10.376 50.997 10.032C50.997 9.692 50.797 9.392 50.437 9.392C50.081 9.392 49.881 9.692 49.881 10.032C49.881 10.376 50.081 10.676 50.437 10.676ZM52.0544 11.044C51.9024 11.044 51.7744 10.916 51.7744 10.764C51.7744 10.612 51.9024 10.484 52.0544 10.484C52.2064 10.484 52.3344 10.612 52.3344 10.764C52.3344 10.916 52.2064 11.044 52.0544 11.044ZM54.6782 11.048C54.2022 11.048 53.8502 10.856 53.6702 10.616L53.9222 10.308C54.0942 10.508 54.3782 10.632 54.6622 10.632C55.0142 10.632 55.2182 10.472 55.2182 10.224C55.2182 9.96 55.0062 9.848 54.6262 9.848C54.5142 9.848 54.3582 9.848 54.3182 9.852V9.432C54.3662 9.436 54.5222 9.436 54.6262 9.436C54.9382 9.436 55.1742 9.328 55.1742 9.084C55.1742 8.836 54.9342 8.708 54.6342 8.708C54.3622 8.708 54.1382 8.812 53.9462 9.004L53.7062 8.712C53.9102 8.472 54.2342 8.292 54.6782 8.292C55.2542 8.292 55.6422 8.564 55.6422 9.012C55.6422 9.368 55.3382 9.576 55.0622 9.624C55.3222 9.648 55.6822 9.86 55.6822 10.272C55.6822 10.724 55.2942 11.048 54.6782 11.048ZM56.8671 11H56.3551L57.3631 8.744H55.9791V8.332H57.9031V8.656L56.8671 11Z" fill="white"/>
<defs>
<linearGradient id="paint0_linear_26835_29200" x1="15.8516" y1="22.4614" x2="13.0108" y2="32.5368" gradientUnits="userSpaceOnUse">
<stop stop-color="white"/>
<stop offset="1" stop-color="#FFEBB8"/>
</linearGradient>
<linearGradient id="paint1_linear_26835_29200" x1="53.0478" y1="35.456" x2="51.3658" y2="40.5586" gradientUnits="userSpaceOnUse">
<stop stop-color="white"/>
<stop offset="1" stop-color="#FFEBB8"/>
</linearGradient>
<clipPath id="clip0_26835_29200">
<rect width="63" height="88" fill="white"/>
</clipPath>
</defs>
</svg>
