<svg width="63" height="88" viewBox="0 0 63 88" fill="none" xmlns="http://www.w3.org/2000/svg">
<rect width="63" height="88" rx="4" fill="#1CE61C"/>
<path d="M36.7008 13.5133L44.7992 3.48665C45.5586 2.54645 46.7024 2 47.911 2H58C59.6569 2 61 3.34314 61 5V83C61 84.6569 59.6569 86 58 86H5C3.34315 86 2 84.6569 2 83V18C2 16.3431 3.34315 15 5 15H33.589C34.7976 15 35.9414 14.4536 36.7008 13.5133Z" fill="#213743"/>
<mask id="mask0_26835_29201" style="mask-type:luminance" maskUnits="userSpaceOnUse" x="0" y="0" width="63" height="88">
<path d="M59 0H4C1.79 0 0 1.79 0 4V84C0 86.21 1.79 88 4 88H59C61.21 88 63 86.21 63 84V4C63 1.79 61.21 0 59 0ZM61 82.81C61 84.57 59.57 86 57.81 86H5.19C3.43 86 2 84.57 2 82.81V18.19C2 16.43 3.43 15 5.19 15H33.59C34.8 15 35.94 14.45 36.7 13.51L44.8 3.48C45.56 2.54 46.7 1.99 47.91 1.99H57.81C59.57 1.99 61 3.42 61 5.18V82.8V82.81Z" fill="white"/>
</mask>
<g mask="url(#mask0_26835_29201)">
<path d="M68.37 47.3199V26.6399L4.45999 90.5499H25.13L68.37 47.3199Z" fill="white"/>
<path d="M64.66 -2.29004H55.22L-2.92001 55.84V66.18L65.46 -2.20004C65.2 -2.26004 64.93 -2.29004 64.66 -2.29004Z" fill="white"/>
<path d="M68.37 69.23V61.55L39.37 90.55H47.05L68.37 69.23Z" fill="white"/>
</g>
<rect x="5" y="18" width="53" height="40" rx="1" fill="#2F4553"/>
<g clip-path="url(#clip0_26835_29201)">
<path d="M57 18H6C5.44772 18 5 18.4477 5 19V57C5 57.5523 5.44772 58 6 58H57C57.5523 58 58 57.5523 58 57V19C58 18.4477 57.5523 18 57 18Z" fill="#FF7F00"/>
<path d="M31.15 28.94C41.53 28.94 50.96 26.39 58 22.24V19.01C58 18.46 57.55 18.01 57 18.01H6C5.45 18.01 5 18.46 5 19.01V22.65C11.95 26.56 21.11 28.95 31.15 28.95V28.94Z" fill="#FFC200"/>
<path d="M31.85 39.25C21.47 39.25 12.04 41.8 5 45.95V57C5 57.55 5.45 58 6 58H57C57.55 58 58 57.55 58 57V45.55C51.05 41.64 41.89 39.25 31.85 39.25Z" fill="#FFC200"/>
<path d="M31.56 14C19 14 8.82001 24.18 8.82001 36.74C8.82001 45.51 13.78 53.11 21.05 56.91L42.41 56.74C49.5 52.89 54.31 45.38 54.31 36.74C54.31 24.18 44.13 14 31.57 14H31.56Z" fill="#1A2C38"/>
<path d="M31.56 55.7C44.119 55.7 54.3 45.5189 54.3 32.96C54.3 20.401 44.119 10.22 31.56 10.22C19.0011 10.22 8.82001 20.401 8.82001 32.96C8.82001 45.5189 19.0011 55.7 31.56 55.7Z" fill="#FFEBB8"/>
<path d="M34.06 6.87012H29.09V11.2101H34.06V6.87012Z" fill="#FF5500"/>
<path d="M27.38 8.71997H35.75C36.15 8.71997 36.47 9.03997 36.47 9.43997V14.44H26.65V9.43997C26.65 9.03997 26.97 8.71997 27.37 8.71997H27.38Z" fill="#FFEBB8"/>
<path d="M31.56 53.7899C43.0641 53.7899 52.39 44.464 52.39 32.9599C52.39 21.4558 43.0641 12.1299 31.56 12.1299C20.0559 12.1299 10.73 21.4558 10.73 32.9599C10.73 44.464 20.0559 53.7899 31.56 53.7899Z" fill="#FF5500"/>
<path d="M31.56 52.93C42.5891 52.93 51.53 43.9891 51.53 32.96C51.53 21.9309 42.5891 12.99 31.56 12.99C20.5309 12.99 11.59 21.9309 11.59 32.96C11.59 43.9891 20.5309 52.93 31.56 52.93Z" fill="#FFC200"/>
<path d="M31.56 32.96L49.45 37.75C49.86 36.22 50.08 34.61 50.08 32.96H31.56Z" fill="#55DFFF"/>
<path d="M50.08 32.9599C50.08 31.2999 49.86 29.6999 49.45 28.1699L31.56 32.9599H50.08Z" fill="#45A7FF"/>
<path d="M31.56 32.9599L49.45 28.17C49.03 26.59 48.4 25.09 47.6 23.7L31.56 32.9599Z" fill="#047BFF"/>
<path d="M31.56 32.96L26.77 50.85C28.3 51.26 29.91 51.48 31.56 51.48V32.96Z" fill="#047BFF"/>
<path d="M22.3 49C23.69 49.8 25.18 50.43 26.77 50.85L31.56 32.96L22.3 49Z" fill="#45A7FF"/>
<path d="M15.52 42.22C16.33 43.63 17.33 44.91 18.47 46.05L31.56 32.96L15.52 42.22Z" fill="#45A7FF"/>
<path d="M31.56 51.48C33.22 51.48 34.82 51.26 36.35 50.85L31.56 32.96V51.48Z" fill="#45A7FF"/>
<path d="M18.47 46.06C19.61 47.2 20.9 48.19 22.3 49.01L31.56 32.97L18.47 46.06Z" fill="#55DFFF"/>
<path d="M31.56 32.96L40.82 49C42.23 48.19 43.51 47.19 44.65 46.05L31.56 32.96Z" fill="#45A7FF"/>
<path d="M31.56 32.96L36.35 50.85C37.93 50.43 39.43 49.8 40.82 49L31.56 32.96Z" fill="#55DFFF"/>
<path d="M31.56 32.96L47.6 42.22C48.4 40.83 49.03 39.34 49.45 37.75L31.56 32.96Z" fill="#45A7FF"/>
<path d="M31.56 32.96L44.65 46.05C45.79 44.91 46.78 43.62 47.6 42.22L31.56 32.96Z" fill="#047BFF"/>
<path d="M13.67 37.75C14.09 39.33 14.72 40.83 15.52 42.22L31.56 32.96L13.67 37.75Z" fill="#047BFF"/>
<path d="M31.56 32.9601L18.47 19.8701C17.33 21.0101 16.34 22.3001 15.52 23.7001L31.56 32.9601Z" fill="#047BFF"/>
<path d="M31.56 32.9599V14.4399C29.9 14.4399 28.3 14.6599 26.77 15.0699L31.56 32.9599Z" fill="#45A7FF"/>
<path d="M31.56 32.9601L26.77 15.0701C25.19 15.4901 23.69 16.1201 22.3 16.9201L31.56 32.9601Z" fill="#55DFFF"/>
<path d="M36.36 15.0699C34.83 14.6599 33.22 14.4399 31.57 14.4399V32.9599L36.36 15.0699Z" fill="#FFC200"/>
<path d="M31.56 32.9599L44.65 19.8699C43.51 18.7299 42.22 17.7399 40.82 16.9199L31.56 32.9599Z" fill="#55DFFF"/>
<path d="M31.56 32.9601L40.82 16.9201C39.43 16.1201 37.94 15.4901 36.35 15.0701L31.56 32.9601Z" fill="#45A7FF"/>
<path d="M31.56 32.96H13.04C13.04 34.62 13.26 36.22 13.67 37.75L31.56 32.96Z" fill="#45A7FF"/>
<path d="M31.56 32.9599L22.3 16.9199C20.89 17.7299 19.61 18.7299 18.47 19.8699L31.56 32.9599Z" fill="#45A7FF"/>
<path d="M31.56 32.9599L15.52 23.7C14.72 25.09 14.09 26.58 13.67 28.17L31.56 32.9599Z" fill="#45A7FF"/>
<path d="M13.67 28.1699C13.26 29.6999 13.04 31.3099 13.04 32.9599H31.56L13.67 28.1699Z" fill="#55DFFF"/>
<path d="M31.56 32.9601L47.6 23.7001C46.79 22.2901 45.79 21.0101 44.65 19.8701L31.56 32.9601Z" fill="#45A7FF"/>
<path d="M31.56 38.7599C34.7633 38.7599 37.36 36.1632 37.36 32.9599C37.36 29.7567 34.7633 27.1599 31.56 27.1599C28.3568 27.1599 25.76 29.7567 25.76 32.9599C25.76 36.1632 28.3568 38.7599 31.56 38.7599Z" fill="#1A2C38"/>
<path d="M31.56 37.7499C34.2054 37.7499 36.35 35.6054 36.35 32.9599C36.35 30.3145 34.2054 28.1699 31.56 28.1699C28.9145 28.1699 26.77 30.3145 26.77 32.9599C26.77 35.6054 28.9145 37.7499 31.56 37.7499Z" fill="#FF5500"/>
<path d="M31.88 10.77L34.04 7.02998C34.18 6.78998 34 6.47998 33.72 6.47998H29.4C29.12 6.47998 28.94 6.78998 29.08 7.02998L31.24 10.77C31.38 11.01 31.73 11.01 31.87 10.77H31.88Z" fill="#FFC200"/>
<path d="M28.93 30.9901C29.01 30.9601 29.09 30.9101 29.14 30.8301L30.41 28.9801C30.5 28.8501 30.51 28.6901 30.43 28.5501C30.36 28.4201 30.22 28.3301 30.06 28.3301L28.51 28.3501L29.44 26.8301C29.56 26.6401 29.5 26.3801 29.3 26.2701C29.11 26.1501 28.85 26.2101 28.74 26.4101L27.43 28.5701C27.35 28.7001 27.35 28.8601 27.43 28.9901C27.5 29.1201 27.64 29.2001 27.79 29.2001L29.29 29.1801L28.47 30.3801C28.34 30.5701 28.39 30.8201 28.58 30.9501C28.69 31.0201 28.82 31.0401 28.94 31.0001L28.93 30.9901Z" fill="white"/>
<path d="M29.24 27.34C29.7481 27.34 30.16 26.9281 30.16 26.42C30.16 25.9119 29.7481 25.5 29.24 25.5C28.7319 25.5 28.32 25.9119 28.32 26.42C28.32 26.9281 28.7319 27.34 29.24 27.34Z" fill="white"/>
<path d="M34.48 31.64C34.48 31.64 38.01 25.97 39.56 26.64C40.32 28.14 41.74 32.2 38.84 37.42C36.65 35.21 34.48 31.64 34.48 31.64Z" fill="white"/>
<path d="M39.55 26.6399C39.66 26.6899 39.75 26.7599 39.84 26.8699C41.17 28.5699 41.93 39.0899 41.93 39.0899C41.08 39.3199 39.95 38.5499 38.84 37.4199C40.78 30.6999 39.86 27.4399 39.56 26.6399H39.55Z" fill="#DFEAF0"/>
<path d="M53.47 45.54C53.36 45.86 53.13 46.37 52.72 46.75L58 55.64V53.38L53.47 45.55V45.54Z" fill="#8EA3B2"/>
<path d="M52.72 46.75L53.13 47.44C53.54 47.1 53.76 46.6 53.87 46.22L53.48 45.54C53.37 45.86 53.14 46.37 52.73 46.75H52.72Z" fill="#1A2C38"/>
<path d="M42.94 43.61C45.25 43.87 48.57 44.09 48.62 43.14C48.72 41.4 49.11 40.55 50.25 42.37C50.64 42.99 51.64 40.7 53.23 43.14C54.82 45.58 52.46 48.47 45.02 50.19C45.92 48.62 44.63 45.13 42.94 43.6V43.61Z" fill="white"/>
<path d="M48.39 36.75L47.19 37.45L50.49 43C50.79 42.65 51.28 42.28 51.5 42.13L48.39 36.74V36.75Z" fill="#8EA3B2"/>
<path d="M42.82 43.3401C42.82 43.3401 44.91 43.8601 47.08 43.6301C47.32 43.6101 47.55 43.7301 47.68 43.9301C48.13 44.6801 49.11 46.5601 49.28 48.7901C49.3 49.0701 49.14 49.3301 48.87 49.4401C47.78 49.8801 44.72 50.9901 41.1 51.3601L42.82 43.3401Z" fill="#E9113C"/>
<path d="M42.9 43.8999C42.9 43.8999 45.13 47.5099 44.57 50.7799C44.57 50.7799 43.61 51.0699 42.9 51.1299V43.8999Z" fill="#1A2C38"/>
<path d="M7.46 47.9101C8.3 45.6601 11.25 47.3901 11.2 46.6201C11.1 45.2101 12.6 45.8601 13.48 46.7801C13.99 47.3101 16.95 46.7601 19.21 45.9401C20.62 45.4301 21.72 44.9501 21.72 44.9501C26.66 44.8101 25.76 52.5401 25.76 52.5401C23.1 52.9801 20.79 53.1701 18.8 53.1701C10.88 53.1901 6.66 50.0301 7.46 47.8901V47.9101Z" fill="white"/>
<path d="M42.5 40.6901C41.66 34.0101 35.56 29.2701 28.88 30.1101C22.2 30.9501 17.46 37.0501 18.3 43.7301L19.24 51.2501L43.44 48.2101L42.5 40.6901Z" fill="white"/>
<path d="M40.64 44.8C40.14 45.06 39.54 45.3501 38.82 45.6501C38.1 46.4501 37.07 47.59 36.16 48.51C37.36 47.72 39.08 46.66 40.5 46.1L40.64 44.8Z" fill="#1A2C38"/>
<path d="M40.64 44.8001L40.5 46.1001C39.09 46.6601 37.37 47.7201 36.16 48.5101C35.49 49.2001 34.89 49.7601 34.55 49.9901C33.64 50.5801 32.44 48.3701 31.99 47.4301C31.75 47.6001 31.41 47.7001 31.1 47.7301C31.03 47.7301 30.94 47.5401 30.87 47.5501C30.47 48.6701 29.71 50.3601 28.86 49.9701C28.23 49.6801 26.72 48.5001 25.38 47.4201C21.71 46.9001 19.58 45.6901 19.58 45.6901L28.5 55.2301L39.54 54.7801L42.24 43.8501C42.24 43.8501 41.68 44.2601 40.63 44.8101L40.64 44.8001Z" fill="#E9627D"/>
<path d="M28.89 49.7401C28.89 49.7401 28.85 52.6201 30.02 52.6101C31.19 52.6001 32.05 50.76 32.05 50.76C32.05 50.76 32.55 52.23 33.62 52.12C34.69 52.01 34.81 49.3 34.81 49.3L28.9 49.7401H28.89Z" fill="#1A2C38"/>
<path d="M30.74 49.1199C30.74 49.1199 31.46 48.6599 31.98 47.4299C31.98 47.4299 31.77 47.4699 31.35 47.4999C31.2 47.5099 30.58 47.5499 30.58 47.5499L30.44 49.1799L30.74 49.1199Z" fill="#1A2C38"/>
<path d="M34.55 49.9899C35.36 49.4599 37.57 47.0499 38.82 45.6499C37.12 46.3499 34.81 47.0699 31.99 47.4299C32.45 48.3699 33.64 50.5799 34.55 49.9899Z" fill="#FFEBB8"/>
<path d="M31.35 47.5001C29.21 47.6001 26.61 47.5801 25.05 47.3601C26.38 48.4401 28.23 49.6701 28.86 49.9601C29.71 50.3501 30.96 48.6201 31.35 47.5001Z" fill="#FFEBB8"/>
<path d="M18.83 40.49C18.83 40.49 17.5 31.35 18.44 29.92C19.38 28.49 23.3 33.04 23.3 33.04C23.3 33.04 21.88 39.55 18.83 40.49Z" fill="white"/>
<path d="M30.98 44.82C30.98 44.82 28.78 45.32 27.95 44.78C27.12 44.24 26.82 46.88 30.58 46.37C33.53 45.97 33.83 44.59 33.37 44.14C32.91 43.69 32.37 44.53 30.99 44.82H30.98Z" fill="#2F2D2A"/>
<path d="M27.67 44.1L27.79 44.91C27.83 45.16 28.03 45.35 28.29 45.37C28.33 45.37 28.37 45.37 28.41 45.37C28.41 45.19 28.53 45.04 28.71 45.01C28.9 44.98 29.08 45.11 29.11 45.31C29.11 45.34 29.11 45.37 29.11 45.4C30.44 45.4 31.69 45.16 32.88 44.67C33.11 44.57 33.25 44.33 33.21 44.09L33.08 43.28C31.33 44.09 29.53 44.39 27.67 44.12V44.1Z" fill="white"/>
<path d="M27.91 44.86C27.91 44.86 29.59 44.69 30.26 43.95C30.26 43.95 31.27 44.84 32.87 44.66C32.87 44.66 33.19 44.54 33.18 44.33L30.03 43.04L27.91 44.86Z" fill="#FF7F00"/>
<path d="M29.91 32.9401C30.71 32.9601 31.45 33.1601 32.11 33.4901C31.42 32.5501 30.26 31.9201 28.93 31.8801C26.75 31.8201 24.94 33.4001 24.89 35.4001C24.89 35.7501 24.93 36.0901 25.02 36.4201C25.52 34.3801 27.53 32.8801 29.9 32.9401H29.91Z" fill="#DFEAF0"/>
<path d="M29.31 42.6C31.7566 42.6 33.74 40.6166 33.74 38.17C33.74 35.7234 31.7566 33.74 29.31 33.74C26.8634 33.74 24.88 35.7234 24.88 38.17C24.88 40.6166 26.8634 42.6 29.31 42.6Z" fill="#DFEAF0"/>
<path d="M30.14 42.4001C30.14 42.4001 28.69 41.7401 26.96 42.0501C25.23 42.3601 25.87 45.1101 23.8 43.9501C23.8 43.9501 26.74 47.1101 30.38 43.3901L30.15 42.3901L30.14 42.4001Z" fill="#FFC200"/>
<path d="M30.16 42.4301C30.16 42.4301 31.41 41.4401 33.17 41.3301C34.93 41.2201 34.96 44.0401 36.7 42.4101C36.7 42.4101 34.61 46.1901 30.18 43.4501V42.4301H30.16Z" fill="#FFC200"/>
<path d="M29.59 42.0099C32.0366 42.0099 34.02 40.0265 34.02 37.5799C34.02 35.1333 32.0366 33.1499 29.59 33.1499C27.1434 33.1499 25.16 35.1333 25.16 37.5799C25.16 40.0265 27.1434 42.0099 29.59 42.0099Z" fill="#504C47"/>
<path d="M29.77 41.2099C31.9847 41.2099 33.78 39.4146 33.78 37.1999C33.78 34.9853 31.9847 33.1899 29.77 33.1899C27.5553 33.1899 25.76 34.9853 25.76 37.1999C25.76 39.4146 27.5553 41.2099 29.77 41.2099Z" fill="#2F2D2A"/>
<path d="M28.46 40.05C29.2277 40.05 29.85 39.4277 29.85 38.66C29.85 37.8923 29.2277 37.27 28.46 37.27C27.6923 37.27 27.07 37.8923 27.07 38.66C27.07 39.4277 27.6923 40.05 28.46 40.05Z" fill="white"/>
<path d="M31.56 37.7901C31.8251 37.7901 32.04 37.5752 32.04 37.3101C32.04 37.045 31.8251 36.8301 31.56 36.8301C31.2949 36.8301 31.08 37.045 31.08 37.3101C31.08 37.5752 31.2949 37.7901 31.56 37.7901Z" fill="white"/>
<path d="M50.17 43.27C50.17 43.27 49.64 43.9 49.74 44.3C49.84 44.7 51.43 46.78 51.79 46.87C52.15 46.96 52.55 46.87 52.55 46.87C52.55 46.87 51.84 47.46 51.53 47.2C51.22 46.94 49.22 44.95 49.39 44.23C49.56 43.51 50.18 43.28 50.18 43.28L50.17 43.27Z" fill="#DFEAF0"/>
<path d="M44.67 57.9999C44.44 57.2599 44.18 56.6899 44.18 56.6899C44.61 51.7699 42.72 42.4299 42.72 42.4299C42.72 42.4299 41.33 43.6199 38.16 47.4699C34.99 51.3199 31.57 54.4499 31.57 54.4499C27.54 48.6099 18.36 44.1199 18.36 44.1199C18.36 44.3299 18.36 44.5399 18.37 44.7599C18.39 45.3999 17.94 45.9799 17.31 46.1099C16.33 46.3099 15.04 46.5199 13.89 46.5299C13.71 46.5299 13.57 46.6699 13.56 46.8499C13.52 47.8399 13.53 50.9199 14.91 53.2299C15.04 53.4499 15.26 53.5699 15.5 53.6399C16.22 53.8499 18.12 53.8099 18.12 53.8099C18.12 53.8099 18.37 56.2599 18.37 58.0099H44.68L44.67 57.9999Z" fill="#E9113C"/>
<path d="M19.38 45.3601C19.38 45.3601 22.18 50.7801 22.99 51.0301C23.8 51.2801 25.16 50.3901 25.16 50.3901C25.16 50.3901 24.86 51.5301 24.9 52.1001C24.94 52.6701 31.16 55.7201 31.16 55.7201C31.16 55.7201 24.32 53.1601 24.25 52.5101C24.18 51.8601 24.5 51.1001 24.5 51.1001C24.5 51.1001 22.65 52.3501 22.36 51.6901C22.07 51.0301 19.39 45.3701 19.39 45.3701L19.38 45.3601Z" fill="#1A2C38"/>
<path d="M32.97 54.8001C32.97 54.8001 38.42 52.9801 38.39 52.2001C38.36 51.4201 38.22 50.0901 38.22 50.0901C38.22 50.0901 39.43 50.8301 39.93 50.5301C39.93 50.5301 39.38 51.3201 38.9 51.0901C38.9 51.0901 39.04 52.4101 38.97 52.8201C38.9 53.2301 32.97 54.8001 32.97 54.8001Z" fill="#1A2C38"/>
<path d="M47.9719 34.7001L45.3268 36.3357L47.4778 39.8144L50.123 38.1788L47.9719 34.7001Z" fill="#FF7F00"/>
<path d="M50.2421 37.6954L46.993 39.7044C46.9179 39.7509 46.8946 39.8495 46.9411 39.9247L47.141 40.2479C47.1874 40.323 47.286 40.3463 47.3612 40.2998L50.6102 38.2908C50.6854 38.2443 50.7087 38.1457 50.6622 38.0706L50.4623 37.7474C50.4159 37.6722 50.3173 37.649 50.2421 37.6954Z" fill="#FFC200"/>
<path d="M46.12 37.61C46.54 37.32 47.74 36.54 49.01 36.37L48.18 35.02L45.54 36.65L46.13 37.6L46.12 37.61Z" fill="#1A2C38"/>
<path d="M45.77 35.7901L45.53 33.6101L47.35 34.8201L45.77 35.7901Z" fill="#FF7F00"/>
<path d="M44.96 36.3699L44.71 34.1899L46.54 35.3899L44.96 36.3699Z" fill="#FFC200"/>
<path d="M46.6 35.3599L46.35 33.1799L48.17 34.3799L46.6 35.3599Z" fill="#FFC200"/>
<path d="M48.0736 34.2567L44.8926 36.2237C44.7986 36.2818 44.7696 36.405 44.8277 36.499L45.3641 37.3665C45.4222 37.4605 45.5454 37.4895 45.6394 37.4314L48.8204 35.4645C48.9143 35.4064 48.9434 35.2832 48.8853 35.1892L48.3489 34.3217C48.2908 34.2277 48.1675 34.1987 48.0736 34.2567Z" fill="#FF7F00"/>
<path d="M31.84 49.0999C31.84 49.0999 28.16 46.9499 28.5 48.6899C28.84 50.4299 30.07 54.2099 31.92 49.9499C31.92 49.9499 33.48 52.0999 34.53 51.1799C35.58 50.2599 36.02 45.9399 34.53 47.0499C33.04 48.1599 31.83 49.0999 31.83 49.0999H31.84Z" fill="#E9113C"/>
<path d="M36.47 14C35.88 14.91 35.41 15.38 34.52 15.95C35.43 16.54 35.9 17.01 36.47 17.9C37.06 16.99 37.53 16.52 38.42 15.95C37.51 15.36 37.04 14.89 36.47 14Z" fill="white"/>
<path d="M8.02999 33.3999C7.43999 34.3099 6.96999 34.7799 6.07999 35.3499C6.98999 35.9399 7.45999 36.4099 8.02999 37.2999C8.61999 36.3899 9.08999 35.9199 9.97999 35.3499C9.06999 34.7599 8.59999 34.2899 8.02999 33.3999Z" fill="white"/>
</g>
<path fill-rule="evenodd" clip-rule="evenodd" d="M6.49771 79C6.98969 79 7.48602 79.213 7.49037 79.6913C7.49037 80.1043 7.24656 80.2696 6.99839 80.2696C6.75023 80.2696 6.73281 80.1435 6.73281 80.1435C6.73281 80.1435 7.02452 79.9261 7.02452 79.7174C7.02452 79.6087 6.94179 79.313 6.489 79.3174C5.8577 79.3174 5.5181 79.6174 5.5181 80.1522C5.5181 80.7652 7.35105 80.9739 7.3554 81.7652C7.3554 82.613 6.47594 82.9957 5.69225 83C5.283 83 5.01306 82.7609 5.00871 82.3783C5.00871 81.9261 5.22204 81.4652 5.75756 81.4652C5.88382 81.4565 5.98831 81.5522 5.99702 81.6783C5.99702 81.6783 5.99702 81.6826 5.99702 81.687C5.99702 81.687 5.45715 81.8391 5.4615 82.3783C5.4615 82.4783 5.56599 82.6609 5.81851 82.6565C6.07103 82.6522 6.82424 82.4739 6.81989 81.8087C6.81989 81.1913 5.00435 81.1087 5 80.1478C5 79.0652 6.08845 79.0087 6.49771 79.0087V79ZM10.747 79.6C10.8123 79.5696 11.2129 79.4913 11.1955 79.813C11.1824 80.1348 10.9386 80.6913 10.9037 80.9348C11.2303 80.7696 11.6918 80.2087 11.6918 80.2087C11.6918 80.2087 12.0183 80.2522 11.9182 80.4522C11.818 80.6522 11.1519 81.1435 11.1519 81.1435C11.1519 81.1435 11.3043 82.5696 12.1707 82.5696C12.6453 82.5696 12.8499 82.3609 12.937 82.287C12.9587 82.2696 12.9762 82.2652 12.9849 82.2783C13.0197 82.387 12.9936 82.5043 12.9152 82.5913C12.8194 82.6957 12.5974 82.8217 12.1533 82.8261C11.3653 82.8261 10.9255 82.1957 10.8123 81.2609C10.7252 81.5348 10.7339 81.9826 10.7209 82.2C10.6948 82.2435 10.2507 82.4174 10.2158 82.1174C10.2158 82.0913 10.2158 82.0696 10.2158 82.0435C10.1331 82.1609 10.0199 82.2826 9.91108 82.2826C9.71951 82.2826 9.63679 82.1217 9.60196 82.0391C9.57584 82.0696 9.3625 82.287 9.08821 82.287C8.92277 82.2913 8.77474 82.1957 8.70943 82.0435C8.57011 82.1435 8.32195 82.2913 8.03895 82.2913C7.73418 82.2913 7.66017 82.1087 7.66017 81.9565C7.66017 81.713 7.84303 80.987 7.84303 80.987C7.84303 80.987 7.48602 81.1304 7.36411 81.1348C7.19431 81.1348 7.11159 80.8217 7.11159 80.813C7.11159 80.8087 7.11159 80.8 7.1203 80.8C7.22044 80.7609 7.94317 80.513 7.94317 80.513C7.94317 80.513 8.07813 79.9826 8.09555 79.913C8.11296 79.8435 8.2131 79.7 8.33065 79.6565C8.41773 79.6217 8.50916 79.6 8.60059 79.5913C8.63107 79.5913 8.65284 79.6 8.65284 79.6174C8.65284 79.6348 8.47433 80.4087 8.47433 80.4087C8.47433 80.4087 8.84876 80.3217 8.98808 80.3217C9.09692 80.3217 9.15352 80.387 9.09257 80.4696C9.03162 80.5522 8.96196 80.6478 8.92712 80.6913C8.88794 80.7348 8.86182 80.7435 8.77039 80.7609C8.64413 80.787 8.36113 80.8565 8.36113 80.8565C8.36113 80.8565 8.13473 81.6783 8.13909 81.8174C8.13909 81.8957 8.16521 81.987 8.26099 81.987C8.35678 81.987 8.53964 81.8739 8.67025 81.7913C8.69202 81.1522 9.18835 80.7261 9.57584 80.7261C9.7021 80.7261 9.65421 80.8478 9.79788 80.8478H9.88931C9.94591 80.8478 10.0069 80.8522 10.0069 80.9957C10.0069 81.1957 9.89367 81.5261 9.89367 81.7348C9.89367 81.8826 9.91544 81.987 9.97204 81.987C10.0678 81.987 10.1767 81.8478 10.255 81.7261C10.3813 81.0304 10.734 79.7609 10.734 79.6174L10.747 79.6ZM12.5016 80.7C12.7672 80.6783 12.9326 80.8217 12.9631 80.9C12.9936 80.9783 12.9892 81.1609 12.9152 81.2913C12.6845 81.7044 12.1097 81.6304 12.1097 81.6304C12.1097 81.6304 12.0444 81.9565 12.3405 81.9565C12.593 81.9565 12.7062 81.8304 12.8151 81.7261C12.8586 81.7261 12.9936 81.8652 12.9326 81.9609C12.8847 82.0348 12.6191 82.2565 12.2795 82.2609C11.7397 82.2609 11.6047 81.8 11.6744 81.4696C11.7658 81.0609 12.1751 80.7217 12.5016 80.6957V80.7ZM9.6455 80.987C9.32332 80.987 8.82699 81.9696 9.20577 81.9652C9.61938 81.9652 9.6455 81.1826 9.6455 81.0043V80.987ZM12.6409 80.8913C12.4232 80.9 12.1751 81.3174 12.1533 81.5C12.4798 81.513 12.654 81.1957 12.6757 81.0696C12.6888 80.9739 12.6932 80.887 12.6409 80.887V80.8913Z" fill="#557086"/>
<path d="M51.1444 79.3778L51.6412 80.278L52.6518 80.4733C52.7792 80.4988 52.8302 80.6559 52.741 80.7494L52.0361 81.5009L52.1635 82.5243C52.1805 82.6559 52.0446 82.7494 51.93 82.6942L51 82.2568L50.0701 82.6942C49.9512 82.7494 49.8196 82.6517 49.8366 82.5243L49.9639 81.5009L49.2591 80.7494C49.1699 80.6559 49.2208 80.4988 49.3482 80.4733L50.3588 80.278L50.8557 79.3778C50.9194 79.2632 51.085 79.2632 51.1444 79.3778Z" fill="#FFC200"/>
<path d="M51 79.2929C51.0552 79.2929 51.1147 79.3226 51.1444 79.3778L51.6412 80.278L52.6518 80.4733C52.7792 80.4988 52.8302 80.6559 52.741 80.7494L52.0361 81.5009L52.1635 82.5243C52.1763 82.6262 52.0955 82.7111 51.9979 82.7111C51.9766 82.7111 51.9512 82.7069 51.9257 82.6942L50.9957 82.2568L50.0658 82.6942C50.0403 82.7069 50.0191 82.7111 49.9936 82.7111C49.9002 82.7111 49.8153 82.6262 49.828 82.5243L49.9554 81.5009L49.2505 80.7494C49.1613 80.6559 49.2123 80.4988 49.3397 80.4733L50.3503 80.278L50.8471 79.3778C50.8768 79.3226 50.9363 79.2929 50.9915 79.2929M51 79.0806C50.8641 79.0806 50.7367 79.157 50.6688 79.2759L50.2187 80.0912L49.3057 80.2653C49.1698 80.2908 49.0594 80.3884 49.017 80.5201C48.9745 80.6517 49.0085 80.7961 49.1019 80.8937L49.7388 81.5731L49.6242 82.4946C49.6115 82.6007 49.6454 82.7111 49.7134 82.7918C49.7856 82.8725 49.8875 82.9192 49.9979 82.9192C50.0531 82.9192 50.1083 82.9065 50.1592 82.881L51 82.4861L51.8408 82.881C51.8917 82.9065 51.9469 82.9192 52.0021 82.9192C52.1125 82.9192 52.2144 82.8725 52.2866 82.7918C52.3588 82.7111 52.3928 82.6007 52.3758 82.4946L52.2611 81.5731L52.8981 80.8937C52.9915 80.7918 53.0255 80.6474 52.983 80.5201C52.9405 80.3884 52.8301 80.2908 52.6943 80.2653L51.7813 80.0912L51.3312 79.2759C51.2633 79.157 51.1359 79.0806 51 79.0806Z" fill="#213743"/>
<path d="M51 79.8152V80.9744C51 81.0678 51.0892 81.1315 51.1784 81.106L52.2187 80.7706C52.2739 80.7536 52.2697 80.6729 52.2102 80.6602L51.5563 80.5413C51.4969 80.5286 51.4417 80.4903 51.4119 80.4351L51.085 79.7939C51.0637 79.7515 50.9958 79.7642 50.9958 79.8152H51Z" fill="#FFEBB8"/>
<path d="M51 81.4924V82.0699C51 82.1039 51.017 82.1294 51.0467 82.1464L51.7983 82.5073C51.8365 82.5243 51.8705 82.4818 51.845 82.4479L51.0934 81.4627C51.0637 81.4245 51 81.4457 51 81.4924Z" fill="#FF7F00"/>
<path d="M56.1444 79.3778L56.6412 80.278L57.6518 80.4733C57.7792 80.4988 57.8302 80.6559 57.741 80.7494L57.0361 81.5009L57.1635 82.5243C57.1805 82.6559 57.0446 82.7494 56.93 82.6942L56 82.2568L55.0701 82.6942C54.9512 82.7494 54.8196 82.6517 54.8366 82.5243L54.9639 81.5009L54.2591 80.7494C54.1699 80.6559 54.2208 80.4988 54.3482 80.4733L55.3588 80.278L55.8557 79.3778C55.9194 79.2632 56.085 79.2632 56.1444 79.3778Z" fill="#FFC200"/>
<path d="M56 79.2929C56.0552 79.2929 56.1147 79.3226 56.1444 79.3778L56.6412 80.278L57.6518 80.4733C57.7792 80.4988 57.8302 80.6559 57.741 80.7494L57.0361 81.5009L57.1635 82.5243C57.1763 82.6262 57.0955 82.7111 56.9979 82.7111C56.9766 82.7111 56.9512 82.7069 56.9257 82.6942L55.9957 82.2568L55.0658 82.6942C55.0403 82.7069 55.0191 82.7111 54.9936 82.7111C54.9002 82.7111 54.8153 82.6262 54.828 82.5243L54.9554 81.5009L54.2505 80.7494C54.1613 80.6559 54.2123 80.4988 54.3397 80.4733L55.3503 80.278L55.8471 79.3778C55.8768 79.3226 55.9363 79.2929 55.9915 79.2929M56 79.0806C55.8641 79.0806 55.7367 79.157 55.6688 79.2759L55.2187 80.0912L54.3057 80.2653C54.1698 80.2908 54.0594 80.3884 54.017 80.5201C53.9745 80.6517 54.0085 80.7961 54.1019 80.8937L54.7388 81.5731L54.6242 82.4946C54.6115 82.6007 54.6454 82.7111 54.7134 82.7918C54.7856 82.8725 54.8875 82.9192 54.9979 82.9192C55.0531 82.9192 55.1083 82.9065 55.1592 82.881L56 82.4861L56.8408 82.881C56.8917 82.9065 56.9469 82.9192 57.0021 82.9192C57.1125 82.9192 57.2144 82.8725 57.2866 82.7918C57.3588 82.7111 57.3928 82.6007 57.3758 82.4946L57.2611 81.5731L57.8981 80.8937C57.9915 80.7918 58.0255 80.6474 57.983 80.5201C57.9405 80.3884 57.8301 80.2908 57.6943 80.2653L56.7813 80.0912L56.3312 79.2759C56.2633 79.157 56.1359 79.0806 56 79.0806Z" fill="#213743"/>
<path d="M56 79.8152V80.9744C56 81.0678 56.0892 81.1315 56.1784 81.106L57.2187 80.7706C57.2739 80.7536 57.2697 80.6729 57.2102 80.6602L56.5563 80.5413C56.4969 80.5286 56.4417 80.4903 56.4119 80.4351L56.085 79.7939C56.0637 79.7515 55.9958 79.7642 55.9958 79.8152H56Z" fill="#FFEBB8"/>
<path d="M56 81.4924V82.0699C56 82.1039 56.017 82.1294 56.0467 82.1464L56.7983 82.5073C56.8365 82.5243 56.8705 82.4818 56.845 82.4479L56.0934 81.4627C56.0637 81.4245 56 81.4457 56 81.4924Z" fill="#FF7F00"/>
<rect x="13" y="62" width="37" height="13" rx="6.5" fill="#2F4553"/>
<path d="M28.573 70H27.541V67.318L26.869 67.996L26.281 67.378L27.679 65.998H28.573V70ZM30.8066 70.072C29.6366 70.072 29.0906 69.058 29.0906 68.002C29.0906 66.946 29.6366 65.938 30.8066 65.938C31.9766 65.938 32.5226 66.946 32.5226 68.002C32.5226 69.058 31.9766 70.072 30.8066 70.072ZM30.8066 69.16C31.2866 69.16 31.4786 68.71 31.4786 68.002C31.4786 67.294 31.2866 66.85 30.8066 66.85C30.3266 66.85 30.1346 67.294 30.1346 68.002C30.1346 68.71 30.3266 69.16 30.8066 69.16ZM35.7867 70H34.7727L34.2147 69.124L33.6507 70H32.6427L33.6327 68.512L32.7027 67.102H33.7167L34.2147 67.888L34.7067 67.102H35.7207L34.7967 68.512L35.7867 70Z" fill="white"/>
<path d="M8.03 11H7.215L6.56 9.815H6.04V11H5.33V7.665H6.89C7.585 7.665 8.01 8.12 8.01 8.74C8.01 9.33 7.64 9.645 7.28 9.73L8.03 11ZM6.785 9.19C7.07 9.19 7.285 9.02 7.285 8.74C7.285 8.46 7.07 8.29 6.785 8.29H6.04V9.19H6.785ZM10.5152 11H9.88023V10.75C9.71523 10.945 9.43023 11.06 9.11523 11.06C8.73023 11.06 8.27523 10.8 8.27523 10.26C8.27523 9.695 8.73023 9.48 9.11523 9.48C9.43523 9.48 9.72023 9.585 9.88023 9.775V9.45C9.88023 9.205 9.67023 9.045 9.35023 9.045C9.09023 9.045 8.85023 9.14 8.64523 9.33L8.40523 8.905C8.70023 8.645 9.08023 8.525 9.46023 8.525C10.0102 8.525 10.5152 8.745 10.5152 9.44V11ZM9.37023 10.63C9.57523 10.63 9.77523 10.56 9.88023 10.42V10.12C9.77523 9.98 9.57523 9.91 9.37023 9.91C9.12023 9.91 8.91523 10.04 8.91523 10.275C8.91523 10.5 9.12023 10.63 9.37023 10.63ZM11.7801 11H11.1451V8.585H11.7801V8.915C11.9501 8.7 12.2501 8.525 12.5501 8.525V9.145C12.5051 9.135 12.4451 9.13 12.3751 9.13C12.1651 9.13 11.8851 9.25 11.7801 9.405V11ZM14.0818 11.06C13.3468 11.06 12.7918 10.565 12.7918 9.79C12.7918 9.09 13.3068 8.525 14.0418 8.525C14.7618 8.525 15.2518 9.065 15.2518 9.855V9.995H13.4568C13.4968 10.3 13.7418 10.555 14.1518 10.555C14.3568 10.555 14.6418 10.465 14.7968 10.315L15.0768 10.725C14.8368 10.945 14.4568 11.06 14.0818 11.06ZM14.6368 9.565C14.6218 9.335 14.4618 9.03 14.0418 9.03C13.6468 9.03 13.4768 9.325 13.4468 9.565H14.6368Z" fill="#05080A"/>
<path d="M48.7601 11H48.3081L46.9161 9.096V11H46.4481V8.332H46.9281L48.2921 10.184V8.332H48.7601V11ZM50.187 11.048C49.575 11.048 49.195 10.588 49.195 10.032C49.195 9.48 49.575 9.02 50.187 9.02C50.807 9.02 51.183 9.48 51.183 10.032C51.183 10.588 50.807 11.048 50.187 11.048ZM50.187 10.676C50.547 10.676 50.747 10.376 50.747 10.032C50.747 9.692 50.547 9.392 50.187 9.392C49.831 9.392 49.631 9.692 49.631 10.032C49.631 10.376 49.831 10.676 50.187 10.676ZM51.8044 11.044C51.6524 11.044 51.5244 10.916 51.5244 10.764C51.5244 10.612 51.6524 10.484 51.8044 10.484C51.9564 10.484 52.0844 10.612 52.0844 10.764C52.0844 10.916 51.9564 11.044 51.8044 11.044ZM54.4282 11.048C53.9522 11.048 53.6002 10.856 53.4202 10.616L53.6722 10.308C53.8442 10.508 54.1282 10.632 54.4122 10.632C54.7642 10.632 54.9682 10.472 54.9682 10.224C54.9682 9.96 54.7562 9.848 54.3762 9.848C54.2642 9.848 54.1082 9.848 54.0682 9.852V9.432C54.1162 9.436 54.2722 9.436 54.3762 9.436C54.6882 9.436 54.9242 9.328 54.9242 9.084C54.9242 8.836 54.6842 8.708 54.3842 8.708C54.1122 8.708 53.8882 8.812 53.6962 9.004L53.4562 8.712C53.6602 8.472 53.9842 8.292 54.4282 8.292C55.0042 8.292 55.3922 8.564 55.3922 9.012C55.3922 9.368 55.0882 9.576 54.8122 9.624C55.0722 9.648 55.4322 9.86 55.4322 10.272C55.4322 10.724 55.0442 11.048 54.4282 11.048ZM56.8131 11.048C56.2651 11.048 55.7891 10.796 55.7891 10.316C55.7891 9.976 56.0651 9.732 56.3891 9.624C56.0891 9.528 55.8331 9.332 55.8331 8.992C55.8331 8.5 56.3371 8.292 56.8131 8.292C57.2811 8.292 57.7931 8.5 57.7931 8.992C57.7931 9.332 57.5331 9.528 57.2331 9.624C57.5571 9.732 57.8331 9.976 57.8331 10.316C57.8331 10.792 57.3571 11.048 56.8131 11.048ZM56.8131 9.44C56.9771 9.412 57.3171 9.316 57.3171 9.064C57.3171 8.84 57.0971 8.708 56.8131 8.708C56.5211 8.708 56.3051 8.84 56.3051 9.064C56.3051 9.316 56.6491 9.412 56.8131 9.44ZM56.8131 10.632C57.1091 10.632 57.3611 10.488 57.3611 10.256C57.3611 9.98 56.9771 9.856 56.8131 9.836C56.6451 9.856 56.2611 9.98 56.2611 10.256C56.2611 10.488 56.5091 10.632 56.8131 10.632Z" fill="white"/>
<defs>
<clipPath id="clip0_26835_29201">
<rect width="63" height="88" fill="white"/>
</clipPath>
</defs>
</svg>
