<svg width="63" height="88" viewBox="0 0 63 88" fill="none" xmlns="http://www.w3.org/2000/svg">
<rect width="63" height="88" rx="4" fill="#1CE61C"/>
<path d="M36.7008 13.5133L44.7992 3.48665C45.5586 2.54645 46.7024 2 47.911 2H58C59.6569 2 61 3.34314 61 5V83C61 84.6569 59.6569 86 58 86H5C3.34315 86 2 84.6569 2 83V18C2 16.3431 3.34315 15 5 15H33.589C34.7976 15 35.9414 14.4536 36.7008 13.5133Z" fill="#213743"/>
<mask id="mask0_26835_29202" style="mask-type:luminance" maskUnits="userSpaceOnUse" x="0" y="0" width="63" height="88">
<path d="M59 0H4C1.79 0 0 1.79 0 4V84C0 86.21 1.79 88 4 88H59C61.21 88 63 86.21 63 84V4C63 1.79 61.21 0 59 0ZM61 82.81C61 84.57 59.57 86 57.81 86H5.19C3.43 86 2 84.57 2 82.81V18.19C2 16.43 3.43 15 5.19 15H33.59C34.8 15 35.94 14.45 36.7 13.51L44.8 3.48C45.56 2.54 46.7 1.99 47.91 1.99H57.81C59.57 1.99 61 3.42 61 5.18V82.8V82.81Z" fill="white"/>
</mask>
<g mask="url(#mask0_26835_29202)">
<path d="M68.37 47.3199V26.6399L4.46001 90.5499H25.13L68.37 47.3199Z" fill="white"/>
<path d="M64.66 -2.29004H55.22L-2.92 55.84V66.18L65.46 -2.20004C65.2 -2.26004 64.93 -2.29004 64.66 -2.29004Z" fill="white"/>
<path d="M68.37 69.23V61.55L39.37 90.55H47.05L68.37 69.23Z" fill="white"/>
</g>
<rect x="5" y="18" width="53" height="40" rx="1" fill="#2F4553"/>
<g clip-path="url(#clip0_26835_29202)">
<path d="M5 38.9099H58V56.9999C58 57.5499 57.55 57.9999 57 57.9999H6C5.45 57.9999 5 57.5499 5 56.9999V38.9099Z" fill="#8EA3B2"/>
<path d="M6 18H57C57.55 18 58 18.45 58 19V42.38H5V19C5 18.45 5.45 18 6 18Z" fill="#047BFF"/>
<mask id="mask1_26835_29202" style="mask-type:luminance" maskUnits="userSpaceOnUse" x="5" y="10" width="53" height="48">
<path d="M57 10.7H6C5.44772 10.7 5 11.1477 5 11.7V57C5 57.5522 5.44772 58 6 58H57C57.5523 58 58 57.5522 58 57V11.7C58 11.1477 57.5523 10.7 57 10.7Z" fill="white"/>
</mask>
<g mask="url(#mask1_26835_29202)">
<path d="M44.36 13.51C44.33 13.63 44.3 13.75 44.23 13.84C44.1 13.97 43.99 14.09 43.87 14.23C43.95 14.23 44.03 14.23 44.1 14.23C44.87 14.23 45.59 14.46 46.13 14.86C46.61 15.23 46.87 15.69 46.87 16.18C46.87 16.67 46.61 17.13 46.13 17.5C45.6 17.91 44.88 18.13 44.1 18.13C43.32 18.13 42.61 17.91 42.08 17.5C42.04 17.6 42 17.69 41.96 17.78C41.7 17.89 41.52 18.15 41.52 18.45C41.52 18.85 41.84 19.17 42.24 19.17C42.55 19.17 42.82 18.97 42.92 18.69C43.29 18.79 43.68 18.85 44.1 18.85C46.02 18.85 47.58 17.65 47.58 16.18C47.58 14.71 46.15 13.61 44.35 13.51H44.36Z" fill="#E28B3B"/>
<path d="M30.86 13.51C30.89 13.63 30.92 13.75 30.99 13.84C31.12 13.97 31.23 14.09 31.35 14.23C31.27 14.23 31.19 14.23 31.12 14.23C30.35 14.23 29.63 14.46 29.09 14.86C28.61 15.23 28.35 15.69 28.35 16.18C28.35 16.67 28.61 17.13 29.09 17.5C29.62 17.91 30.34 18.13 31.12 18.13C31.9 18.13 32.61 17.91 33.14 17.5C33.18 17.6 33.22 17.69 33.26 17.78C33.52 17.89 33.7 18.15 33.7 18.45C33.7 18.85 33.38 19.17 32.98 19.17C32.67 19.17 32.4 18.97 32.3 18.69C31.93 18.79 31.54 18.85 31.12 18.85C29.2 18.85 27.64 17.65 27.64 16.18C27.64 14.71 29.07 13.61 30.87 13.51H30.86Z" fill="#E28B3B"/>
<path d="M44.36 13.51C44.33 13.63 44.3 13.75 44.23 13.84C44.1 13.97 43.99 14.09 43.87 14.23C43.95 14.23 44.03 14.23 44.1 14.23C44.87 14.23 45.59 14.46 46.13 14.86C46.61 15.23 46.87 15.69 46.87 16.18C46.87 16.67 46.61 17.13 46.13 17.5C45.6 17.91 44.88 18.13 44.1 18.13C43.32 18.13 42.61 17.91 42.08 17.5C42.04 17.6 42 17.69 41.96 17.78C41.7 17.89 41.52 18.15 41.52 18.45C41.52 18.85 41.84 19.17 42.24 19.17C42.55 19.17 42.82 18.97 42.92 18.69C43.29 18.79 43.68 18.85 44.1 18.85C46.02 18.85 47.58 17.65 47.58 16.18C47.58 14.71 46.15 13.61 44.35 13.51H44.36Z" fill="#FF7F00"/>
<path d="M30.86 13.51C30.89 13.63 30.92 13.75 30.99 13.84C31.12 13.97 31.23 14.09 31.35 14.23C31.27 14.23 31.19 14.23 31.12 14.23C30.35 14.23 29.63 14.46 29.09 14.86C28.61 15.23 28.35 15.69 28.35 16.18C28.35 16.67 28.61 17.13 29.09 17.5C29.62 17.91 30.34 18.13 31.12 18.13C31.9 18.13 32.61 17.91 33.14 17.5C33.18 17.6 33.22 17.69 33.26 17.78C33.52 17.89 33.7 18.15 33.7 18.45C33.7 18.85 33.38 19.17 32.98 19.17C32.67 19.17 32.4 18.97 32.3 18.69C31.93 18.79 31.54 18.85 31.12 18.85C29.2 18.85 27.64 17.65 27.64 16.18C27.64 14.71 29.07 13.61 30.87 13.51H30.86Z" fill="#FFC200"/>
<path d="M44.49 12.99V13.73C44.49 17.07 41.78 19.77 38.45 19.77H36.83C36.47 19.77 36.13 19.74 35.79 19.68C35.44 19.62 35.1 19.53 34.77 19.41C34.65 19.37 34.52 19.32 34.4 19.26C33.73 18.97 33.12 18.55 32.6 18.05C32.53 17.98 32.45 17.9 32.39 17.83C32.26 17.69 32.14 17.55 32.03 17.4C31.25 16.38 30.78 15.11 30.78 13.73V12.99H44.49Z" fill="#FFC200"/>
<path d="M36.57 12.99L34.39 19.26C33.72 18.97 33.11 18.55 32.59 18.05L34.35 12.99H36.57Z" fill="#FFEBB8"/>
<path d="M40.28 12.99V13.73C40.28 16.62 38.24 19.04 35.53 19.64C35.95 19.73 36.38 19.78 36.82 19.78H38.44C41.78 19.78 44.48 17.07 44.48 13.74V13H40.27L40.28 12.99Z" fill="#FF7F00"/>
<path d="M43.89 12.5701H31.41C30.95 12.5701 30.58 12.8201 30.56 13.1401H44.75C44.72 12.8201 44.35 12.5701 43.9 12.5701H43.89Z" fill="#FFC200"/>
<path d="M35.32 19.6001L36.02 23.2201H39.11L39.99 19.6001H35.32Z" fill="#FF9C24"/>
<path d="M39.99 19.6001L39.79 20.4101L39.11 23.2201H36.02L35.48 20.4101L35.32 19.6001H39.99Z" fill="#FFC200"/>
<path d="M39.99 19.6001L39.79 20.4101H35.48L35.32 19.6001H39.99Z" fill="#FF5500"/>
<path d="M39.99 27.7001H35.32L35.67 25.9101L36.02 24.0801H39.11L39.55 25.9101L39.99 27.7001Z" fill="#FFC200"/>
<path d="M39.99 27.7002H35.32L35.67 25.9102H39.55L39.99 27.7002Z" fill="#FF7F00"/>
<path d="M39.62 23.22H35.52C35.3156 23.22 35.15 23.3856 35.15 23.59V23.71C35.15 23.9143 35.3156 24.08 35.52 24.08H39.62C39.8243 24.08 39.99 23.9143 39.99 23.71V23.59C39.99 23.3856 39.8243 23.22 39.62 23.22Z" fill="#FF7F00"/>
<path d="M34.38 26.28H40.77C41.03 26.28 41.24 26.49 41.24 26.75V27.46H33.91V26.75C33.91 26.49 34.12 26.28 34.38 26.28Z" fill="#FFC200"/>
<path d="M40.83 26.28H38.13C38.55 26.28 38.88 26.62 38.88 27.03V27.46H41.58V27.03C41.58 26.61 41.24 26.28 40.83 26.28Z" fill="#FF7F00"/>
<path d="M43.66 28.1702V28.5302H31.48V28.1702C31.48 27.7602 31.82 27.4202 32.23 27.4202H42.91C43.32 27.4202 43.66 27.7602 43.66 28.1702Z" fill="#FF7F00"/>
<g style="mix-blend-mode:multiply" opacity="0.54">
<path d="M43.66 28.3401H31.48V28.5201H43.66V28.3401Z" fill="#FF9C24"/>
</g>
<path d="M41.56 18.9102V19.1802C41.56 19.6502 41.18 20.0302 40.71 20.0302H34.56C34.09 20.0302 33.71 19.6502 33.71 19.1802V18.9102H41.56Z" fill="#FF7F00"/>
<path d="M41.56 18.9101V19.1801C41.56 19.6501 41.18 20.0301 40.71 20.0301H36.64C37.03 20.0301 37.35 19.7101 37.35 19.3201V18.9001H41.56V18.9101Z" fill="#FF5500"/>
<path d="M11.69 32.8002L28.39 32.1902L29.47 43.6302H12.75C12.5 43.6302 12.28 43.4102 12.21 43.0902L11.41 33.3402C11.35 33.0802 11.49 32.8102 11.7 32.8002H11.69Z" fill="#3C5663"/>
<path d="M12.71 43.94L16.22 45.71C16.32 45.76 16.43 45.79 16.54 45.79H28.62L28.71 45.82L30.55 47.01C30.72 47.12 30.92 47.18 31.13 47.18H53.82C53.87 47.18 53.89 47.06 53.86 46.99L53.08 45.65C53.08 45.65 53.08 45.56 53.1 45.56H62.44C62.52 45.56 62.54 45.44 62.47 45.41L57.29 43.25L12.72 43.94H12.71Z" fill="#1A2C38"/>
<path d="M62.65 34.5L42.67 33.99L41.38 43.63H61.39C61.69 43.63 61.95 43.44 62.04 43.17L63 34.96C63.07 34.74 62.9 34.52 62.65 34.5Z" fill="#3C5663"/>
<path d="M25.27 32.3L25.74 43.54L29.84 43.63L27.55 32.22L25.27 32.3Z" fill="#305161"/>
<path d="M27.11 28.3401L48.41 27.8301C48.78 27.8301 49.08 28.1301 49.05 28.5001L47.82 43.6301H28.32C27.93 43.6301 27.59 43.3301 27.54 42.9201L26.35 29.3301C26.28 28.8301 26.64 28.3701 27.12 28.3401H27.11Z" fill="#536A75"/>
<path d="M53.78 38.41C54 38.41 54.19 38.3501 54.35 38.2201C54.51 38.0901 54.59 37.91 54.59 37.66C54.59 37.48 54.53 37.32 54.4 37.18C54.27 37.05 54.1 36.98 53.89 36.98C53.74 36.98 53.62 37.0001 53.53 37.0401C53.44 37.0801 53.36 37.1301 53.31 37.2001C53.25 37.2701 53.2 37.35 53.15 37.46C53.1 37.57 53.06 37.66 53.02 37.76C53 37.81 52.95 37.8501 52.89 37.8801C52.83 37.9101 52.76 37.92 52.67 37.92C52.57 37.92 52.49 37.88 52.41 37.8C52.33 37.72 52.29 37.6201 52.29 37.4901C52.29 37.3601 52.33 37.23 52.4 37.1C52.48 36.96 52.59 36.83 52.73 36.71C52.87 36.59 53.05 36.49 53.27 36.41C53.49 36.33 53.73 36.3 53.99 36.3C54.22 36.3 54.43 36.3301 54.63 36.4001C54.82 36.4601 54.99 36.56 55.13 36.67C55.27 36.79 55.38 36.93 55.45 37.09C55.52 37.25 55.56 37.42 55.56 37.6C55.56 37.84 55.51 38.0401 55.4 38.2201C55.3 38.3901 55.15 38.5601 54.95 38.7201C55.14 38.8201 55.29 38.9401 55.42 39.0601C55.55 39.1901 55.64 39.3301 55.71 39.4901C55.78 39.6501 55.81 39.82 55.81 40C55.81 40.22 55.77 40.4301 55.68 40.6301C55.59 40.8301 55.46 41.01 55.29 41.17C55.12 41.33 54.92 41.4501 54.69 41.5401C54.46 41.6301 54.2 41.67 53.92 41.67C53.64 41.67 53.38 41.6201 53.15 41.5201C52.92 41.4201 52.74 41.2901 52.59 41.1301C52.44 40.9701 52.33 40.8201 52.26 40.6501C52.18 40.4801 52.15 40.3501 52.15 40.2401C52.15 40.1001 52.19 39.9901 52.28 39.9001C52.37 39.8201 52.48 39.7701 52.62 39.7701C52.69 39.7701 52.75 39.7901 52.81 39.8301C52.87 39.8701 52.91 39.9201 52.93 39.9701C53.05 40.3001 53.19 40.55 53.33 40.71C53.47 40.87 53.67 40.9501 53.93 40.9501C54.08 40.9501 54.22 40.91 54.36 40.84C54.5 40.77 54.61 40.6601 54.7 40.5201C54.79 40.3801 54.83 40.2101 54.83 40.0201C54.83 39.7401 54.75 39.5201 54.6 39.3601C54.45 39.2001 54.23 39.12 53.96 39.12C53.91 39.12 53.84 39.1201 53.74 39.1301C53.64 39.1301 53.57 39.14 53.55 39.14C53.42 39.14 53.32 39.1101 53.24 39.0401C53.16 38.9701 53.13 38.8801 53.13 38.7701C53.13 38.6601 53.17 38.5601 53.26 38.4901C53.35 38.4201 53.47 38.3801 53.64 38.3801H53.79L53.78 38.41Z" fill="#FFC200"/>
<path d="M38.07 39.4402V35.0602C37.21 35.7202 36.64 35.8202 36.34 35.8202C36.2 35.8202 36.07 35.7602 35.96 35.6502C35.85 35.5402 35.8 35.4102 35.8 35.2602C35.8 35.0902 35.85 34.9602 35.96 34.8802C36.07 34.8002 36.26 34.6902 36.53 34.5702C36.94 34.3802 37.26 34.1802 37.51 33.9602C37.75 33.7502 37.97 33.5102 38.16 33.2502C38.35 32.9902 38.47 32.8202 38.53 32.7602C38.59 32.7002 38.7 32.6702 38.85 32.6702C39.03 32.6702 39.17 32.7402 39.28 32.8802C39.39 33.0202 39.44 33.2102 39.44 33.4502V39.2502C39.44 39.9302 39.21 40.2702 38.75 40.2702C38.54 40.2702 38.38 40.2002 38.25 40.0602C38.13 39.9202 38.06 39.7202 38.06 39.4502L38.07 39.4402Z" fill="#FFC200"/>
<path d="M17.29 40.5801H19.08C19.26 40.5801 19.39 40.6201 19.49 40.6901C19.58 40.7601 19.63 40.8601 19.63 40.9901C19.63 41.1001 19.59 41.2001 19.52 41.2701C19.45 41.3501 19.33 41.3901 19.18 41.3901H16.66C16.49 41.3901 16.35 41.3401 16.26 41.2501C16.16 41.1601 16.12 41.0401 16.12 40.9201C16.12 40.8401 16.15 40.7301 16.21 40.5901C16.27 40.4501 16.34 40.3501 16.41 40.2701C16.71 39.9501 16.99 39.6801 17.23 39.4601C17.47 39.2301 17.65 39.0901 17.75 39.0201C17.94 38.8901 18.09 38.7501 18.22 38.6201C18.34 38.4901 18.44 38.3501 18.5 38.2101C18.56 38.0701 18.6 37.9301 18.6 37.8001C18.6 37.6501 18.57 37.5201 18.5 37.4101C18.43 37.2901 18.34 37.2001 18.22 37.1401C18.1 37.0801 17.97 37.0401 17.83 37.0401C17.53 37.0401 17.29 37.1701 17.12 37.4301C17.1 37.4601 17.06 37.5601 17 37.7101C16.95 37.8601 16.89 37.9801 16.82 38.0601C16.75 38.1401 16.65 38.1801 16.52 38.1801C16.41 38.1801 16.31 38.1401 16.24 38.0701C16.17 38.0001 16.13 37.8901 16.13 37.7601C16.13 37.6001 16.17 37.4401 16.24 37.2701C16.31 37.1001 16.42 36.9401 16.56 36.8001C16.7 36.6601 16.88 36.5501 17.1 36.4601C17.32 36.3701 17.57 36.3301 17.86 36.3301C18.21 36.3301 18.51 36.3801 18.76 36.4901C18.92 36.5601 19.06 36.6601 19.18 36.7901C19.3 36.9201 19.4 37.0701 19.46 37.2301C19.53 37.4001 19.56 37.5701 19.56 37.7501C19.56 38.0301 19.49 38.2901 19.35 38.5201C19.21 38.7501 19.07 38.9301 18.92 39.0701C18.77 39.2001 18.53 39.4101 18.18 39.6901C17.84 39.9701 17.6 40.1901 17.47 40.3501C17.42 40.4101 17.36 40.4901 17.3 40.5701L17.29 40.5801Z" fill="#FFC200"/>
</g>
<path d="M23.6 56.62C31.4701 56.62 37.85 55.9261 37.85 55.07C37.85 54.214 31.4701 53.52 23.6 53.52C15.7299 53.52 9.35001 54.214 9.35001 55.07C9.35001 55.9261 15.7299 56.62 23.6 56.62Z" fill="#1A2C38"/>
<path d="M17.94 21.8699C18.01 21.8499 18.08 21.7998 18.13 21.7298L19.26 20.0698C19.34 19.9598 19.35 19.8099 19.28 19.6899C19.22 19.5699 19.09 19.4898 18.95 19.4998L17.56 19.5199L18.39 18.1598C18.5 17.9898 18.44 17.7598 18.27 17.6498C18.1 17.5398 17.87 17.5999 17.76 17.7699L16.58 19.6999C16.51 19.8099 16.51 19.9598 16.58 20.0698C16.65 20.1898 16.77 20.2598 16.9 20.2598L18.25 20.2398L17.51 21.3198C17.4 21.4898 17.44 21.7198 17.61 21.8298C17.71 21.8998 17.83 21.9098 17.93 21.8798L17.94 21.8699Z" fill="white"/>
<path d="M18.21 18.4698C18.5911 18.4698 18.9 18.1609 18.9 17.7798C18.9 17.3988 18.5911 17.0898 18.21 17.0898C17.8289 17.0898 17.52 17.3988 17.52 17.7798C17.52 18.1609 17.8289 18.4698 18.21 18.4698Z" fill="white"/>
<path d="M22.97 22.51C22.97 22.51 26.14 17.43 27.52 18.03C28.2 19.38 29.48 23.01 26.88 27.69C24.91 25.71 22.97 22.51 22.97 22.51Z" fill="white"/>
<path d="M27.52 18.03C27.61 18.07 27.7 18.14 27.78 18.23C28.97 19.75 29.65 29.18 29.65 29.18C28.89 29.39 27.88 28.69 26.88 27.68C28.62 21.66 27.8 18.73 27.52 18.02V18.03Z" fill="#DFEAF0"/>
<path d="M27.31 32.49C27.31 32.49 28.35 32.43 29.64 32.27C32.55 32.56 34.44 35.31 32.81 37.59C31.27 38.35 29.4 39.1 27.17 39.8C27.17 39.8 23.42 34.29 27.31 32.49Z" fill="#DFEAF0"/>
<path d="M29.64 32.27C31.71 32.02 34.65 31.52 34.5 30.69C34.23 29.15 34.39 28.33 35.77 29.69C36.24 30.15 36.64 27.95 38.53 29.75C40.42 31.55 38.96 34.56 32.82 37.6C33.28 36.05 31.44 33.27 29.65 32.28L29.64 32.27Z" fill="white"/>
<path d="M17.964 21.1381L17.954 21.1393C11.9645 21.8907 7.71812 27.3552 8.46947 33.3448L9.31585 40.0919C10.0672 46.0814 15.5317 50.3278 21.5213 49.5765L21.5312 49.5752C27.5207 48.8239 31.7671 43.3593 31.0158 37.3698L30.1694 30.6227C29.4181 24.6331 23.9535 20.3867 17.964 21.1381Z" fill="white"/>
<path d="M8.94 30.4499C8.94 30.4499 7.74 22.2499 8.59 20.9799C9.44 19.7099 12.95 23.7699 12.95 23.7699C12.95 23.7699 11.68 29.6099 8.95 30.4499H8.94Z" fill="white"/>
<path d="M19.84 34.3199C19.84 34.3199 17.87 34.7699 17.12 34.2799C16.37 33.7899 16.11 36.1699 19.47 35.7099C22.11 35.3499 22.38 34.1099 21.97 33.7099C21.56 33.3099 21.07 34.0599 19.83 34.3199H19.84Z" fill="#2F2D2A"/>
<path d="M16.87 33.6799L16.98 34.3999C17.01 34.6199 17.2 34.7899 17.42 34.8099C17.45 34.8099 17.49 34.8099 17.52 34.8099C17.52 34.6499 17.63 34.5099 17.79 34.4899C17.96 34.4599 18.12 34.5799 18.15 34.7499C18.15 34.7799 18.15 34.7999 18.15 34.8299C19.34 34.8299 20.47 34.6199 21.53 34.1699C21.74 34.0799 21.86 33.8699 21.82 33.6499L21.71 32.9199C20.14 33.6499 18.53 33.9099 16.86 33.6699L16.87 33.6799Z" fill="white"/>
<path d="M18.88 23.6801C19.59 23.7001 20.26 23.8801 20.85 24.1701C20.23 23.3301 19.19 22.76 18 22.73C16.05 22.68 14.42 24.09 14.38 25.89C14.38 26.21 14.42 26.51 14.5 26.8C14.95 24.97 16.75 23.6301 18.88 23.6801Z" fill="#DFEAF0"/>
<path d="M18.34 32.3299C20.5326 32.3299 22.31 30.5525 22.31 28.3599C22.31 26.1673 20.5326 24.3899 18.34 24.3899C16.1474 24.3899 14.37 26.1673 14.37 28.3599C14.37 30.5525 16.1474 32.3299 18.34 32.3299Z" fill="#DDDFE5"/>
<path d="M18.59 31.8099C20.7826 31.8099 22.56 30.0324 22.56 27.8399C22.56 25.6473 20.7826 23.8699 18.59 23.8699C16.3974 23.8699 14.62 25.6473 14.62 27.8399C14.62 30.0324 16.3974 31.8099 18.59 31.8099Z" fill="#504C47"/>
<path d="M18.75 31.0999C20.7382 31.0999 22.35 29.4881 22.35 27.4999C22.35 25.5117 20.7382 23.8999 18.75 23.8999C16.7618 23.8999 15.15 25.5117 15.15 27.4999C15.15 29.4881 16.7618 31.0999 18.75 31.0999Z" fill="#2F2D2A"/>
<path d="M17.58 30.0501C18.2648 30.0501 18.82 29.4949 18.82 28.8101C18.82 28.1252 18.2648 27.5701 17.58 27.5701C16.8952 27.5701 16.34 28.1252 16.34 28.8101C16.34 29.4949 16.8952 30.0501 17.58 30.0501Z" fill="white"/>
<path d="M20.36 28.0299C20.5975 28.0299 20.79 27.8374 20.79 27.5999C20.79 27.3624 20.5975 27.1699 20.36 27.1699C20.1225 27.1699 19.93 27.3624 19.93 27.5999C19.93 27.8374 20.1225 28.0299 20.36 28.0299Z" fill="white"/>
<path d="M31.1 37.95C31.1 37.95 31.96 53.0999 31.1 54.0999C30.24 55.0999 25.03 55.7299 23.5 54.7299C22.16 53.8599 21.63 48.7999 21.63 48.7999L31.1 37.95Z" fill="white"/>
<path d="M11.88 54.12C10.37 52.89 10.13 48.53 9.80001 45.72C9.69001 43.62 9.67001 41.99 9.67001 41.99C13.77 40.5 20.65 47.92 20.65 47.92C20.65 47.92 20.04 52.06 19.43 53.95C18.08 54.52 14.36 56.13 11.88 54.12Z" fill="white"/>
<path d="M12.34 53.54C14.82 55.55 18.07 54.53 19.42 53.96C19.28 54.4 19.14 54.72 19 54.83C17.35 56.21 12.34 55.65 11.28 54.83C10.38 54.13 9.97001 49.26 9.79001 45.73C10.11 48.54 10.82 52.31 12.34 53.55V53.54Z" fill="#DFEAF0"/>
<path d="M9.32001 40.0899C9.40001 40.7399 9.54001 41.3699 9.73001 41.9799C9.71001 41.9799 9.69001 41.9899 9.67001 41.9999C9.67001 41.9999 9.68001 42.7499 9.72001 43.8899C9.89001 43.7099 10.06 43.4999 10.21 43.2699C11.48 41.3399 11.99 37.8799 12.05 37.3899L9.32001 40.0999V40.0899Z" fill="#DFEAF0"/>
<path d="M10.62 41.8L10.08 42.8C10.08 42.8 11.93 44.32 13.07 41.54L11.9 42.39L10.62 41.8Z" fill="#DFEAF0"/>
<path d="M11.24 40.0699C11.24 40.0699 15.7 41.7299 15.7 37.7499C15.7 37.4199 15.37 36.0999 15.37 36.0999L11.5 37.9499L11.24 40.0699Z" fill="#DFEAF0"/>
<path d="M13.05 37.26C13.05 37.26 14.04 42.22 12.06 42.55C10.08 42.88 9.25 41.06 9.25 41.06L10.24 39.74C10.24 39.74 11.07 42.11 11.89 41.92C12.71 41.73 11.23 37.59 11.23 37.59L13.05 37.26Z" fill="#047BFF"/>
<path d="M11.09 41.42C10.61 40.77 10.25 39.74 10.25 39.74L9.44 40.82C9.49 41.09 9.56 41.37 9.63 41.63C9.86 41.91 10.21 42.22 10.68 42.42C10.83 42.1 10.97 41.76 11.09 41.42Z" fill="#0080AA"/>
<path d="M8.63001 32.5399C9.27001 31.9299 10.01 31.4299 10.83 31.0799C11.52 30.7799 12.29 30.5199 12.56 30.6899C13.08 31.0299 12.13 32.6299 12.65 32.9699C13.17 33.3099 14.67 32.9399 14.38 33.5999C14.09 34.2599 11.81 35.8599 11.72 36.7099C11.63 37.5599 9.93001 47.4399 5.83001 42.6899C3.14001 39.5699 6.62001 34.4499 8.63001 32.5299V32.5399Z" fill="white"/>
<path d="M8.92001 35.9399C8.92001 35.9399 9.09001 38.5899 11.24 39.7399L11.57 38.4199L8.92001 35.9399Z" fill="#DFEAF0"/>
<path d="M14.38 39.7399C14.38 39.7399 17.85 48.0099 27.44 35.9399L24.63 37.2599C24.63 37.2599 22.31 41.3899 19.01 41.5599C15.7 41.7299 15.21 37.7599 15.21 37.7599L14.38 39.7399Z" fill="#DFEAF0"/>
<path d="M13.22 38.4199H11.51C11.61 38.7499 11.73 39.1399 11.84 39.5499C12.16 39.6799 12.71 39.8199 13.3 39.5499C13.3 39.1499 13.26 38.7599 13.22 38.4199Z" fill="#0080AA"/>
<path d="M11.33 31.6399C11.26 31.6799 11.22 31.6999 11.22 31.6999C11.26 31.6799 11.29 31.6599 11.33 31.6399Z" fill="#DFEAF0"/>
<path d="M30.25 30.65C29.76 30.33 24.19 38.11 19.92 39.66C19.5 39.75 17.53 39.68 17.68 39.75C23.14 42.07 30.25 33.3 30.41 32.97C30.57 32.64 30.74 30.99 30.24 30.65H30.25Z" fill="#047BFF"/>
<path d="M11.9 31.97C12.25 31.77 13.55 32.47 13.55 32.47C14.38 34.29 15.37 41.07 19.67 39.75C19.75 39.72 19.84 39.69 19.92 39.66C13.98 35.86 15.17 29.98 11.89 31.97H11.9Z" fill="#45A7FF"/>
<path d="M11.9 31.9699C12.25 31.7699 13.55 32.4699 13.55 32.4699C13.7 32.7999 13.86 33.2999 14.04 33.8799C14.32 33.6999 14.53 33.4299 14.63 33.1099C13.92 31.7599 13.35 31.0899 11.9 31.9799V31.9699Z" fill="#047BFF"/>
<path d="M12.31 38.92C14.2761 38.92 15.87 37.3262 15.87 35.3601C15.87 33.3939 14.2761 31.8 12.31 31.8C10.3439 31.8 8.75 33.3939 8.75 35.3601C8.75 37.3262 10.3439 38.92 12.31 38.92Z" fill="#FFC200"/>
<path d="M12.31 38.75C10.44 38.75 8.92001 37.23 8.92001 35.36C8.92001 33.49 10.44 31.97 12.31 31.97C14.18 31.97 15.7 33.49 15.7 35.36C15.7 37.23 14.18 38.75 12.31 38.75ZM12.31 32.96C10.99 32.96 9.92001 34.03 9.92001 35.35C9.92001 36.67 10.99 37.74 12.31 37.74C13.63 37.74 14.7 36.67 14.7 35.35C14.7 34.03 13.63 32.96 12.31 32.96Z" fill="#FF7F00"/>
<path d="M12.05 33.4099L12.73 34.2499C12.78 34.3099 12.84 34.3399 12.92 34.3299L14 34.2499C14.11 34.2499 14.18 34.3599 14.12 34.4499L13.53 35.3599C13.49 35.4199 13.48 35.4999 13.51 35.5599L13.92 36.5599C13.96 36.6599 13.87 36.7699 13.76 36.7399L12.72 36.4599C12.65 36.4399 12.58 36.4599 12.52 36.4999L11.69 37.1999C11.61 37.2699 11.48 37.2099 11.47 37.1099L11.42 36.0299C11.42 35.9599 11.38 35.8899 11.32 35.8499L10.4 35.2799C10.31 35.2199 10.32 35.0799 10.42 35.0499L11.43 34.6699C11.5 34.6399 11.55 34.5899 11.57 34.5199L11.83 33.4699C11.86 33.3599 11.99 33.3299 12.06 33.4199L12.05 33.4099Z" fill="#FF7F00"/>
<path d="M11.74 36.03C11.74 35.96 11.7 35.89 11.64 35.85L10.72 35.28C10.63 35.22 10.64 35.08 10.74 35.05L11.75 34.67C11.82 34.64 11.87 34.59 11.89 34.52L12.13 33.53L12.04 33.42C11.97 33.34 11.84 33.37 11.81 33.47L11.55 34.52C11.53 34.59 11.48 34.65 11.41 34.67L10.4 35.05C10.3 35.09 10.28 35.23 10.38 35.28L11.3 35.85C11.36 35.89 11.4 35.95 11.4 36.03L11.45 37.11C11.45 37.22 11.58 37.27 11.67 37.2L11.78 37.1L11.73 36.02L11.74 36.03Z" fill="#FF5500"/>
<path d="M35.87 30.48C35.87 30.48 35.54 31.14 35.7 31.47C35.86 31.8 37.68 33.29 38.02 33.29C38.36 33.29 38.68 33.12 38.68 33.12C38.68 33.12 38.18 33.78 37.85 33.62C37.52 33.46 35.37 32.13 35.37 31.47C35.37 30.81 35.87 30.48 35.87 30.48Z" fill="#DFEAF0"/>
<path d="M12.07 31.81C11.35 32.26 9.67001 33.43 9.11001 33.82C8.89001 34.29 8.76001 34.8101 8.76001 35.3601C8.76001 35.4601 8.76001 35.55 8.77001 35.64C9.59001 35.04 12.92 32.57 12.81 31.84C12.65 31.82 12.48 31.8 12.31 31.8C12.23 31.8 12.15 31.8 12.07 31.81Z" fill="#FF5500"/>
<path d="M7.76001 33.9498C7.76001 33.9498 8.59001 35.1098 9.25001 34.7798C9.91001 34.4498 12.23 32.6298 12.56 31.7998C12.89 30.9698 11.73 31.1398 11.73 31.1398L7.76001 33.9498Z" fill="white"/>
</g>
<path fill-rule="evenodd" clip-rule="evenodd" d="M6.49771 79C6.98969 79 7.48602 79.213 7.49037 79.6913C7.49037 80.1043 7.24656 80.2696 6.99839 80.2696C6.75023 80.2696 6.73281 80.1435 6.73281 80.1435C6.73281 80.1435 7.02452 79.9261 7.02452 79.7174C7.02452 79.6087 6.94179 79.313 6.489 79.3174C5.8577 79.3174 5.5181 79.6174 5.5181 80.1522C5.5181 80.7652 7.35105 80.9739 7.3554 81.7652C7.3554 82.613 6.47594 82.9957 5.69225 83C5.283 83 5.01306 82.7609 5.00871 82.3783C5.00871 81.9261 5.22204 81.4652 5.75756 81.4652C5.88382 81.4565 5.98831 81.5522 5.99702 81.6783C5.99702 81.6783 5.99702 81.6826 5.99702 81.687C5.99702 81.687 5.45715 81.8391 5.4615 82.3783C5.4615 82.4783 5.56599 82.6609 5.81851 82.6565C6.07103 82.6522 6.82424 82.4739 6.81989 81.8087C6.81989 81.1913 5.00435 81.1087 5 80.1478C5 79.0652 6.08845 79.0087 6.49771 79.0087V79ZM10.747 79.6C10.8123 79.5696 11.2129 79.4913 11.1955 79.813C11.1824 80.1348 10.9386 80.6913 10.9037 80.9348C11.2303 80.7696 11.6918 80.2087 11.6918 80.2087C11.6918 80.2087 12.0183 80.2522 11.9182 80.4522C11.818 80.6522 11.1519 81.1435 11.1519 81.1435C11.1519 81.1435 11.3043 82.5696 12.1707 82.5696C12.6453 82.5696 12.8499 82.3609 12.937 82.287C12.9587 82.2696 12.9762 82.2652 12.9849 82.2783C13.0197 82.387 12.9936 82.5043 12.9152 82.5913C12.8194 82.6957 12.5974 82.8217 12.1533 82.8261C11.3653 82.8261 10.9255 82.1957 10.8123 81.2609C10.7252 81.5348 10.7339 81.9826 10.7209 82.2C10.6948 82.2435 10.2507 82.4174 10.2158 82.1174C10.2158 82.0913 10.2158 82.0696 10.2158 82.0435C10.1331 82.1609 10.0199 82.2826 9.91108 82.2826C9.71951 82.2826 9.63679 82.1217 9.60196 82.0391C9.57584 82.0696 9.3625 82.287 9.08821 82.287C8.92277 82.2913 8.77474 82.1957 8.70943 82.0435C8.57011 82.1435 8.32195 82.2913 8.03895 82.2913C7.73418 82.2913 7.66017 82.1087 7.66017 81.9565C7.66017 81.713 7.84303 80.987 7.84303 80.987C7.84303 80.987 7.48602 81.1304 7.36411 81.1348C7.19431 81.1348 7.11159 80.8217 7.11159 80.813C7.11159 80.8087 7.11159 80.8 7.1203 80.8C7.22044 80.7609 7.94317 80.513 7.94317 80.513C7.94317 80.513 8.07813 79.9826 8.09555 79.913C8.11296 79.8435 8.2131 79.7 8.33065 79.6565C8.41773 79.6217 8.50916 79.6 8.60059 79.5913C8.63107 79.5913 8.65284 79.6 8.65284 79.6174C8.65284 79.6348 8.47433 80.4087 8.47433 80.4087C8.47433 80.4087 8.84876 80.3217 8.98808 80.3217C9.09692 80.3217 9.15352 80.387 9.09257 80.4696C9.03162 80.5522 8.96196 80.6478 8.92712 80.6913C8.88794 80.7348 8.86182 80.7435 8.77039 80.7609C8.64413 80.787 8.36113 80.8565 8.36113 80.8565C8.36113 80.8565 8.13473 81.6783 8.13909 81.8174C8.13909 81.8957 8.16521 81.987 8.26099 81.987C8.35678 81.987 8.53964 81.8739 8.67025 81.7913C8.69202 81.1522 9.18835 80.7261 9.57584 80.7261C9.7021 80.7261 9.65421 80.8478 9.79788 80.8478H9.88931C9.94591 80.8478 10.0069 80.8522 10.0069 80.9957C10.0069 81.1957 9.89367 81.5261 9.89367 81.7348C9.89367 81.8826 9.91544 81.987 9.97204 81.987C10.0678 81.987 10.1767 81.8478 10.255 81.7261C10.3813 81.0304 10.734 79.7609 10.734 79.6174L10.747 79.6ZM12.5016 80.7C12.7672 80.6783 12.9326 80.8217 12.9631 80.9C12.9936 80.9783 12.9892 81.1609 12.9152 81.2913C12.6845 81.7044 12.1097 81.6304 12.1097 81.6304C12.1097 81.6304 12.0444 81.9565 12.3405 81.9565C12.593 81.9565 12.7062 81.8304 12.8151 81.7261C12.8586 81.7261 12.9936 81.8652 12.9326 81.9609C12.8847 82.0348 12.6191 82.2565 12.2795 82.2609C11.7397 82.2609 11.6047 81.8 11.6744 81.4696C11.7658 81.0609 12.1751 80.7217 12.5016 80.6957V80.7ZM9.6455 80.987C9.32332 80.987 8.82699 81.9696 9.20577 81.9652C9.61938 81.9652 9.6455 81.1826 9.6455 81.0043V80.987ZM12.6409 80.8913C12.4232 80.9 12.1751 81.3174 12.1533 81.5C12.4798 81.513 12.654 81.1957 12.6757 81.0696C12.6888 80.9739 12.6932 80.887 12.6409 80.887V80.8913Z" fill="#557086"/>
<path d="M51.1444 79.3778L51.6412 80.278L52.6518 80.4733C52.7792 80.4988 52.8302 80.6559 52.741 80.7494L52.0361 81.5009L52.1635 82.5243C52.1805 82.6559 52.0446 82.7494 51.93 82.6942L51 82.2568L50.0701 82.6942C49.9512 82.7494 49.8196 82.6517 49.8366 82.5243L49.9639 81.5009L49.2591 80.7494C49.1699 80.6559 49.2208 80.4988 49.3482 80.4733L50.3588 80.278L50.8557 79.3778C50.9194 79.2632 51.085 79.2632 51.1444 79.3778Z" fill="#FFC200"/>
<path d="M51 79.2929C51.0552 79.2929 51.1147 79.3226 51.1444 79.3778L51.6412 80.278L52.6518 80.4733C52.7792 80.4988 52.8302 80.6559 52.741 80.7494L52.0361 81.5009L52.1635 82.5243C52.1763 82.6262 52.0955 82.7111 51.9979 82.7111C51.9766 82.7111 51.9512 82.7069 51.9257 82.6942L50.9957 82.2568L50.0658 82.6942C50.0403 82.7069 50.0191 82.7111 49.9936 82.7111C49.9002 82.7111 49.8153 82.6262 49.828 82.5243L49.9554 81.5009L49.2505 80.7494C49.1613 80.6559 49.2123 80.4988 49.3397 80.4733L50.3503 80.278L50.8471 79.3778C50.8768 79.3226 50.9363 79.2929 50.9915 79.2929M51 79.0806C50.8641 79.0806 50.7367 79.157 50.6688 79.2759L50.2187 80.0912L49.3057 80.2653C49.1698 80.2908 49.0594 80.3884 49.017 80.5201C48.9745 80.6517 49.0085 80.7961 49.1019 80.8937L49.7388 81.5731L49.6242 82.4946C49.6115 82.6007 49.6454 82.7111 49.7134 82.7918C49.7856 82.8725 49.8875 82.9192 49.9979 82.9192C50.0531 82.9192 50.1083 82.9065 50.1592 82.881L51 82.4861L51.8408 82.881C51.8917 82.9065 51.9469 82.9192 52.0021 82.9192C52.1125 82.9192 52.2144 82.8725 52.2866 82.7918C52.3588 82.7111 52.3928 82.6007 52.3758 82.4946L52.2611 81.5731L52.8981 80.8937C52.9915 80.7918 53.0255 80.6474 52.983 80.5201C52.9405 80.3884 52.8301 80.2908 52.6943 80.2653L51.7813 80.0912L51.3312 79.2759C51.2633 79.157 51.1359 79.0806 51 79.0806Z" fill="#213743"/>
<path d="M51 79.8152V80.9744C51 81.0678 51.0892 81.1315 51.1784 81.106L52.2187 80.7706C52.2739 80.7536 52.2697 80.6729 52.2102 80.6602L51.5563 80.5413C51.4969 80.5286 51.4417 80.4903 51.4119 80.4351L51.085 79.7939C51.0637 79.7515 50.9958 79.7642 50.9958 79.8152H51Z" fill="#FFEBB8"/>
<path d="M51 81.4924V82.0699C51 82.1039 51.017 82.1294 51.0467 82.1464L51.7983 82.5073C51.8365 82.5243 51.8705 82.4818 51.845 82.4479L51.0934 81.4627C51.0637 81.4245 51 81.4457 51 81.4924Z" fill="#FF7F00"/>
<path d="M56.1444 79.3778L56.6412 80.278L57.6518 80.4733C57.7792 80.4988 57.8302 80.6559 57.741 80.7494L57.0361 81.5009L57.1635 82.5243C57.1805 82.6559 57.0446 82.7494 56.93 82.6942L56 82.2568L55.0701 82.6942C54.9512 82.7494 54.8196 82.6517 54.8366 82.5243L54.9639 81.5009L54.2591 80.7494C54.1699 80.6559 54.2208 80.4988 54.3482 80.4733L55.3588 80.278L55.8557 79.3778C55.9194 79.2632 56.085 79.2632 56.1444 79.3778Z" fill="#FFC200"/>
<path d="M56 79.2929C56.0552 79.2929 56.1147 79.3226 56.1444 79.3778L56.6412 80.278L57.6518 80.4733C57.7792 80.4988 57.8302 80.6559 57.741 80.7494L57.0361 81.5009L57.1635 82.5243C57.1763 82.6262 57.0955 82.7111 56.9979 82.7111C56.9766 82.7111 56.9512 82.7069 56.9257 82.6942L55.9957 82.2568L55.0658 82.6942C55.0403 82.7069 55.0191 82.7111 54.9936 82.7111C54.9002 82.7111 54.8153 82.6262 54.828 82.5243L54.9554 81.5009L54.2505 80.7494C54.1613 80.6559 54.2123 80.4988 54.3397 80.4733L55.3503 80.278L55.8471 79.3778C55.8768 79.3226 55.9363 79.2929 55.9915 79.2929M56 79.0806C55.8641 79.0806 55.7367 79.157 55.6688 79.2759L55.2187 80.0912L54.3057 80.2653C54.1698 80.2908 54.0594 80.3884 54.017 80.5201C53.9745 80.6517 54.0085 80.7961 54.1019 80.8937L54.7388 81.5731L54.6242 82.4946C54.6115 82.6007 54.6454 82.7111 54.7134 82.7918C54.7856 82.8725 54.8875 82.9192 54.9979 82.9192C55.0531 82.9192 55.1083 82.9065 55.1592 82.881L56 82.4861L56.8408 82.881C56.8917 82.9065 56.9469 82.9192 57.0021 82.9192C57.1125 82.9192 57.2144 82.8725 57.2866 82.7918C57.3588 82.7111 57.3928 82.6007 57.3758 82.4946L57.2611 81.5731L57.8981 80.8937C57.9915 80.7918 58.0255 80.6474 57.983 80.5201C57.9405 80.3884 57.8301 80.2908 57.6943 80.2653L56.7813 80.0912L56.3312 79.2759C56.2633 79.157 56.1359 79.0806 56 79.0806Z" fill="#213743"/>
<path d="M56 79.8152V80.9744C56 81.0678 56.0892 81.1315 56.1784 81.106L57.2187 80.7706C57.2739 80.7536 57.2697 80.6729 57.2102 80.6602L56.5563 80.5413C56.4969 80.5286 56.4417 80.4903 56.4119 80.4351L56.085 79.7939C56.0637 79.7515 55.9958 79.7642 55.9958 79.8152H56Z" fill="#FFEBB8"/>
<path d="M56 81.4924V82.0699C56 82.1039 56.017 82.1294 56.0467 82.1464L56.7983 82.5073C56.8365 82.5243 56.8705 82.4818 56.845 82.4479L56.0934 81.4627C56.0637 81.4245 56 81.4457 56 81.4924Z" fill="#FF7F00"/>
<rect x="13" y="62" width="37" height="13" rx="6.5" fill="#2F4553"/>
<path d="M28.573 70H27.541V67.318L26.869 67.996L26.281 67.378L27.679 65.998H28.573V70ZM30.8066 70.072C29.6366 70.072 29.0906 69.058 29.0906 68.002C29.0906 66.946 29.6366 65.938 30.8066 65.938C31.9766 65.938 32.5226 66.946 32.5226 68.002C32.5226 69.058 31.9766 70.072 30.8066 70.072ZM30.8066 69.16C31.2866 69.16 31.4786 68.71 31.4786 68.002C31.4786 67.294 31.2866 66.85 30.8066 66.85C30.3266 66.85 30.1346 67.294 30.1346 68.002C30.1346 68.71 30.3266 69.16 30.8066 69.16ZM35.7867 70H34.7727L34.2147 69.124L33.6507 70H32.6427L33.6327 68.512L32.7027 67.102H33.7167L34.2147 67.888L34.7067 67.102H35.7207L34.7967 68.512L35.7867 70Z" fill="white"/>
<path d="M8.03 11H7.215L6.56 9.815H6.04V11H5.33V7.665H6.89C7.585 7.665 8.01 8.12 8.01 8.74C8.01 9.33 7.64 9.645 7.28 9.73L8.03 11ZM6.785 9.19C7.07 9.19 7.285 9.02 7.285 8.74C7.285 8.46 7.07 8.29 6.785 8.29H6.04V9.19H6.785ZM10.5152 11H9.88023V10.75C9.71523 10.945 9.43023 11.06 9.11523 11.06C8.73023 11.06 8.27523 10.8 8.27523 10.26C8.27523 9.695 8.73023 9.48 9.11523 9.48C9.43523 9.48 9.72023 9.585 9.88023 9.775V9.45C9.88023 9.205 9.67023 9.045 9.35023 9.045C9.09023 9.045 8.85023 9.14 8.64523 9.33L8.40523 8.905C8.70023 8.645 9.08023 8.525 9.46023 8.525C10.0102 8.525 10.5152 8.745 10.5152 9.44V11ZM9.37023 10.63C9.57523 10.63 9.77523 10.56 9.88023 10.42V10.12C9.77523 9.98 9.57523 9.91 9.37023 9.91C9.12023 9.91 8.91523 10.04 8.91523 10.275C8.91523 10.5 9.12023 10.63 9.37023 10.63ZM11.7801 11H11.1451V8.585H11.7801V8.915C11.9501 8.7 12.2501 8.525 12.5501 8.525V9.145C12.5051 9.135 12.4451 9.13 12.3751 9.13C12.1651 9.13 11.8851 9.25 11.7801 9.405V11ZM14.0818 11.06C13.3468 11.06 12.7918 10.565 12.7918 9.79C12.7918 9.09 13.3068 8.525 14.0418 8.525C14.7618 8.525 15.2518 9.065 15.2518 9.855V9.995H13.4568C13.4968 10.3 13.7418 10.555 14.1518 10.555C14.3568 10.555 14.6418 10.465 14.7968 10.315L15.0768 10.725C14.8368 10.945 14.4568 11.06 14.0818 11.06ZM14.6368 9.565C14.6218 9.335 14.4618 9.03 14.0418 9.03C13.6468 9.03 13.4768 9.325 13.4468 9.565H14.6368Z" fill="#05080A"/>
<path d="M48.7366 11H48.2846L46.8926 9.096V11H46.4246V8.332H46.9046L48.2686 10.184V8.332H48.7366V11ZM50.1635 11.048C49.5515 11.048 49.1715 10.588 49.1715 10.032C49.1715 9.48 49.5515 9.02 50.1635 9.02C50.7835 9.02 51.1595 9.48 51.1595 10.032C51.1595 10.588 50.7835 11.048 50.1635 11.048ZM50.1635 10.676C50.5235 10.676 50.7235 10.376 50.7235 10.032C50.7235 9.692 50.5235 9.392 50.1635 9.392C49.8075 9.392 49.6075 9.692 49.6075 10.032C49.6075 10.376 49.8075 10.676 50.1635 10.676ZM51.781 11.044C51.629 11.044 51.501 10.916 51.501 10.764C51.501 10.612 51.629 10.484 51.781 10.484C51.933 10.484 52.061 10.612 52.061 10.764C52.061 10.916 51.933 11.044 51.781 11.044ZM54.4048 11.048C53.9288 11.048 53.5768 10.856 53.3968 10.616L53.6488 10.308C53.8208 10.508 54.1048 10.632 54.3888 10.632C54.7408 10.632 54.9448 10.472 54.9448 10.224C54.9448 9.96 54.7328 9.848 54.3528 9.848C54.2408 9.848 54.0848 9.848 54.0448 9.852V9.432C54.0928 9.436 54.2488 9.436 54.3528 9.436C54.6648 9.436 54.9008 9.328 54.9008 9.084C54.9008 8.836 54.6608 8.708 54.3608 8.708C54.0888 8.708 53.8648 8.812 53.6728 9.004L53.4328 8.712C53.6368 8.472 53.9608 8.292 54.4048 8.292C54.9808 8.292 55.3688 8.564 55.3688 9.012C55.3688 9.368 55.0648 9.576 54.7888 9.624C55.0488 9.648 55.4088 9.86 55.4088 10.272C55.4088 10.724 55.0208 11.048 54.4048 11.048ZM56.6577 11.044C56.3297 11.044 56.0737 10.928 55.8937 10.748L56.1097 10.396C56.2497 10.54 56.4057 10.628 56.6577 10.628C57.1417 10.628 57.3617 10.188 57.3617 9.752C57.3617 9.724 57.3617 9.7 57.3617 9.672C57.2377 9.852 56.9577 10.048 56.6457 10.048C56.1657 10.048 55.7497 9.752 55.7497 9.184C55.7497 8.692 56.1377 8.288 56.7337 8.288C57.5177 8.288 57.8337 8.924 57.8337 9.668C57.8337 10.436 57.4297 11.044 56.6577 11.044ZM56.7697 9.644C56.9977 9.644 57.2217 9.524 57.3537 9.332C57.3297 9.044 57.1697 8.704 56.7577 8.704C56.4097 8.704 56.2257 8.956 56.2257 9.168C56.2257 9.496 56.4817 9.644 56.7697 9.644Z" fill="white"/>
<defs>
<clipPath id="clip0_26835_29202">
<rect width="63" height="88" fill="white"/>
</clipPath>
</defs>
</svg>
