<svg width="63" height="88" viewBox="0 0 63 88" fill="none" xmlns="http://www.w3.org/2000/svg">
<rect width="63" height="88" rx="4" fill="#1CE61C"/>
<path d="M36.7008 13.5133L44.7992 3.48665C45.5586 2.54645 46.7024 2 47.911 2H58C59.6569 2 61 3.34314 61 5V83C61 84.6569 59.6569 86 58 86H5C3.34315 86 2 84.6569 2 83V18C2 16.3431 3.34315 15 5 15H33.589C34.7976 15 35.9414 14.4536 36.7008 13.5133Z" fill="#213743"/>
<mask id="mask0_26835_29203" style="mask-type:luminance" maskUnits="userSpaceOnUse" x="0" y="0" width="63" height="88">
<path d="M59 0H4C1.79 0 0 1.79 0 4V84C0 86.21 1.79 88 4 88H59C61.21 88 63 86.21 63 84V4C63 1.79 61.21 0 59 0ZM61 82.81C61 84.57 59.57 86 57.81 86H5.19C3.43 86 2 84.57 2 82.81V18.19C2 16.43 3.43 15 5.19 15H33.59C34.8 15 35.94 14.45 36.7 13.51L44.8 3.48C45.56 2.54 46.7 1.99 47.91 1.99H57.81C59.57 1.99 61 3.42 61 5.18V82.8V82.81Z" fill="white"/>
</mask>
<g mask="url(#mask0_26835_29203)">
<path d="M68.37 47.3199V26.6399L4.46001 90.5499H25.13L68.37 47.3199Z" fill="white"/>
<path d="M64.66 -2.29004H55.22L-2.92 55.84V66.18L65.46 -2.20004C65.2 -2.26004 64.93 -2.29004 64.66 -2.29004Z" fill="white"/>
<path d="M68.37 69.23V61.55L39.37 90.55H47.05L68.37 69.23Z" fill="white"/>
</g>
<rect x="5" y="18" width="53" height="40" rx="1" fill="#2F4553"/>
<g clip-path="url(#clip0_26835_29203)">
<mask id="mask1_26835_29203" style="mask-type:luminance" maskUnits="userSpaceOnUse" x="5" y="18" width="53" height="40">
<path d="M57 18H6C5.44772 18 5 18.4477 5 19V57C5 57.5523 5.44772 58 6 58H57C57.5523 58 58 57.5523 58 57V19C58 18.4477 57.5523 18 57 18Z" fill="white"/>
</mask>
<g mask="url(#mask1_26835_29203)">
<path d="M57 18H6C5.44772 18 5 18.4477 5 19V57C5 57.5523 5.44772 58 6 58H57C57.5523 58 58 57.5523 58 57V19C58 18.4477 57.5523 18 57 18Z" fill="url(#paint0_linear_26835_29203)"/>
<path d="M5.50999 17.6001L7.91999 35.6701L15.14 40.0601L19.44 38.5601L20.4 19.8101L24.17 19.0301L26.91 32.9701L29.18 34.6201L31.02 33.7201L32.83 17.6001H5.50999Z" fill="url(#paint1_linear_26835_29203)"/>
</g>
<path d="M28.53 23.73C28.53 23.73 32.06 26.34 34.04 26.7L33.29 31.48C33.29 31.48 28.17 29.6 27.53 27.33L28.53 23.73Z" fill="#DDDFE5"/>
<path d="M43.07 18.6699C43.13 18.6699 43.19 18.6699 43.25 18.6299L44.56 17.7899C44.65 17.7299 44.7 17.6299 44.69 17.5199C44.69 17.4099 44.61 17.3199 44.51 17.2799L43.51 16.8699L44.51 16.1499C44.64 16.0599 44.67 15.8799 44.58 15.7499C44.49 15.6199 44.31 15.5899 44.18 15.6799L42.76 16.6999C42.68 16.7599 42.63 16.8599 42.64 16.9599C42.65 17.0599 42.72 17.1499 42.81 17.1899L43.78 17.5799L42.93 18.1199C42.8 18.1999 42.76 18.3799 42.84 18.5099C42.89 18.5899 42.97 18.6299 43.06 18.6399L43.07 18.6699Z" fill="white"/>
<path d="M44.51 16.3701C44.8027 16.3701 45.04 16.1328 45.04 15.8401C45.04 15.5473 44.8027 15.3101 44.51 15.3101C44.2173 15.3101 43.98 15.5473 43.98 15.8401C43.98 16.1328 44.2173 16.3701 44.51 16.3701Z" fill="white"/>
<path d="M34.89 22.4899C34.89 22.4899 36.33 16.2399 37.29 15.5599C38.25 14.8799 40.1 19.6799 40.1 19.6799C40.1 19.6799 37.1 22.6399 34.89 22.4799V22.4899Z" fill="white"/>
<path d="M49.58 27.4099C49.58 27.4099 51.94 20.4899 51.55 19.0399C51.16 17.5899 46.83 20.6299 46.83 20.6299C46.83 20.6299 47.77 27.1599 49.57 27.3999L49.58 27.4099Z" fill="white"/>
<path d="M48.59 25.3101C48.59 25.3101 56.15 27.2901 56.3 33.9801L53.86 33.6401L48.59 25.3101Z" fill="white"/>
<path d="M42.4 25.0399C42.4 25.0399 54.33 24.4199 55.03 33.9799L44.15 31.0599L42.4 25.0399Z" fill="url(#paint2_linear_26835_29203)"/>
<path d="M47.42 30.9299C47.42 30.9299 52.6 31.4899 55.52 34.2699L46.95 31.9799L47.42 30.9399V30.9299Z" fill="#C01D21"/>
<path d="M54.96 33.73C54.96 33.73 56.63 33.78 57.3 34.38C57.97 34.98 58.55 36.03 58.15 37.74C57.75 39.45 57.31 40.05 56.27 38.84L54.97 33.72L54.96 33.73Z" fill="white"/>
<path d="M46.95 31.6599C46.95 31.6599 52.34 32.1599 55.27 33.6299C56.28 34.1399 56.87 35.2099 56.8 36.3399C56.75 37.1099 56.61 38.0499 56.27 38.8499C56.27 38.8499 53.46 35.2599 47.28 32.3099L46.95 31.6599Z" fill="url(#paint3_linear_26835_29203)"/>
<path d="M44.35 18.4599C48.64 19.6799 50.97 24.2799 49.86 28.5999C49.31 30.7399 48.56 32.8499 47.81 35.0199C46.36 39.2299 42.59 41.0099 38.3 39.7899C33.81 38.5099 31.53 34.4399 32.81 29.9499L33.78 24.9599C34.01 23.7799 34.47 22.6599 35.16 21.6799C37.18 18.8599 40.82 17.4599 44.35 18.4599Z" fill="white"/>
<path d="M33.68 25.47C33.68 25.47 34.15 28.25 35.98 30.28L35.54 31.51L33.3 27.42C33.3 27.42 33.02 26.13 33.68 25.47Z" fill="url(#paint4_linear_26835_29203)"/>
<path d="M36.91 32.45C37.6666 32.45 38.28 31.8366 38.28 31.08C38.28 30.3233 37.6666 29.71 36.91 29.71C36.1534 29.71 35.54 30.3233 35.54 31.08C35.54 31.8366 36.1534 32.45 36.91 32.45Z" fill="#FFC200"/>
<path d="M39.2 27.9301C39.2 27.9301 37.45 27.6001 37.07 26.9201C36.56 26.0001 35.89 28.3001 37.96 28.9001C40.34 29.5901 40.75 28.7801 40.87 28.1001C40.96 27.5601 40.39 28.2801 39.2 27.9201V27.9301Z" fill="#2F2D2A"/>
<path d="M37.07 26.5L36.93 27.05C36.89 27.22 36.97 27.4 37.12 27.48C37.14 27.49 37.17 27.5 37.19 27.52C37.24 27.41 37.36 27.34 37.48 27.37C37.61 27.4 37.69 27.54 37.65 27.67C37.65 27.69 37.64 27.71 37.63 27.73C38.47 28.1 39.34 28.29 40.23 28.3C40.4 28.3 40.56 28.19 40.6 28.02L40.74 27.47C39.4 27.51 38.18 27.19 37.07 26.51V26.5Z" fill="white"/>
<path d="M43.07 21.02C43.38 21.48 43.56 21.98 43.64 22.48C43.9 21.71 43.79 20.8 43.28 20.04C42.44 18.78 40.82 18.39 39.67 19.16C39.47 19.3 39.29 19.46 39.15 19.64C40.51 19.11 42.16 19.64 43.07 21.01V21.02Z" fill="#DFEAF0"/>
<path d="M42.2208 24.5605C42.8617 22.9908 42.2455 21.2546 40.8445 20.6826C39.4435 20.1106 37.7883 20.9194 37.1474 22.4891C36.5065 24.0588 37.1226 25.795 38.5236 26.367C39.9246 26.939 41.5799 26.1302 42.2208 24.5605Z" fill="#DDDFE5"/>
<path d="M42.3862 24.1443C43.0271 22.5746 42.4109 20.8383 41.01 20.2663C39.609 19.6943 37.9537 20.5031 37.3128 22.0728C36.6719 23.6425 37.288 25.3787 38.689 25.9508C40.09 26.5228 41.7453 25.714 42.3862 24.1443Z" fill="#504C47"/>
<path d="M42.2571 23.7721C42.8375 22.3507 42.28 20.7787 41.0119 20.2609C39.7439 19.7432 38.2455 20.4758 37.6651 21.8972C37.0847 23.3186 37.6422 24.8907 38.9103 25.4084C40.1783 25.9261 41.6767 25.1935 42.2571 23.7721Z" fill="#2F2D2A"/>
<path d="M40.2173 22.9679C40.4177 22.4771 40.2237 21.9336 39.7839 21.7541C39.3442 21.5745 38.8253 21.8269 38.6249 22.3178C38.4245 22.8086 38.6185 23.3521 39.0582 23.5316C39.4979 23.7112 40.0168 23.4588 40.2173 22.9679Z" fill="white"/>
<path d="M41.6909 23.842C41.7619 23.6681 41.6951 23.4764 41.5417 23.4138C41.3883 23.3512 41.2064 23.4413 41.1354 23.6152C41.0644 23.789 41.1312 23.9807 41.2846 24.0433C41.438 24.106 41.6199 24.0158 41.6909 23.842Z" fill="white"/>
<path d="M36.22 37.29C40.18 38.96 45.86 36.68 46.71 32.25C44.66 32.94 39.11 36.21 38.22 36.25L36.22 37.29Z" fill="#DFEAF0"/>
<path d="M25.2 34.3C25.2 34.3 27.41 27.02 34.32 30.32L33.09 37.01L25.2 34.3Z" fill="white"/>
<path d="M31.99 31.92C31.99 31.92 32.22 30.83 31.91 29.54L33.97 30.64L34.58 32.73L32.67 33.62L31.98 31.93L31.99 31.92Z" fill="#DDDFE5"/>
<path d="M23.41 31.48C23.19 32.15 23.01 32.85 22.9 33.57C21.79 40.63 26.62 47.25 33.67 48.35C39.79 49.31 45.59 45.8 47.74 40.25C40.27 33.59 28.64 31.9 23.41 31.48Z" fill="url(#paint5_linear_26835_29203)"/>
<path d="M39.26 40.02C39.26 40.02 40.58 42.87 41 45.55C41 45.55 42.76 45.36 43.44 44.2L39.26 40.02Z" fill="url(#paint6_linear_26835_29203)"/>
<path d="M47.65 40.63C47.65 40.63 47.4 41.26 47.09 41.69C47.09 41.69 42.23 37.17 33.15 33.49L41.73 36.16L47.66 40.63H47.65Z" fill="url(#paint7_linear_26835_29203)"/>
<path d="M24.78 31.6101C24.78 31.6101 21.69 49.2401 33.68 48.3601C33.68 48.3601 28.3 39.7101 30.88 32.5701C30.88 32.5701 27.82 31.3801 24.79 31.6101H24.78Z" fill="url(#paint8_linear_26835_29203)"/>
<path d="M5.99999 58H57C57.55 58 58 57.55 58 57V50.82C57.92 50.83 57.85 50.84 57.77 50.86C56.99 51.06 56.37 51.47 56.1 51.92C52.23 51.13 48.48 50.29 44.9 49.47C43 49.03 42.36 47.84 40.46 47.57C38.8 47.33 35.88 47.57 34.25 47.44C22.53 46.46 11.6 48.12 5.00999 49.52V57C5.00999 57.55 5.45999 58 6.00999 58H5.99999Z" fill="url(#paint9_linear_26835_29203)"/>
<path d="M46.04 49.4099C46.04 49.4099 40.52 52.7099 34.92 53.5699C34.69 53.5999 34.72 53.9399 34.94 53.9399C37.58 53.9699 42.16 53.5199 46.69 50.6799L46.03 49.4099H46.04Z" fill="#8EA3B2"/>
<path d="M47.61 41.1101C47.45 41.0801 47.29 41.0101 47.16 40.9001C45.22 39.1501 42.78 37.6101 39.89 36.3201C37.56 35.2801 34.94 34.4101 32.1 33.7301C27.25 32.5601 23.4 32.3501 23.36 32.3501C22.88 32.3201 22.51 31.9201 22.54 31.4401C22.56 30.9601 22.97 30.5901 23.45 30.6201C23.61 30.6201 27.47 30.8401 32.47 32.0401C35.41 32.7501 38.14 33.6501 40.57 34.7301C43.63 36.0901 46.24 37.7301 48.32 39.6101C48.68 39.9301 48.7 40.4801 48.38 40.8401C48.18 41.0701 47.88 41.1601 47.6 41.1201L47.61 41.1101Z" fill="url(#paint10_linear_26835_29203)"/>
<path d="M36.42 39.1001L29.53 37.1001C30.48 35.5101 29.88 33.5201 29.02 32.8501L24.24 38.4501C24.24 38.4501 25.96 39.3901 27.81 38.5801C28.74 38.7201 33.14 39.4101 36.24 40.5901L36.43 39.0901L36.42 39.1001Z" fill="url(#paint11_linear_26835_29203)"/>
<path d="M29.13 34.23C29.13 34.23 39.62 36.31 46.75 42.25C46.75 42.25 46.89 42.38 46.85 42.54C46.65 43.23 45.83 45.05 44.43 45.14C44.43 45.14 35.66 39.18 27.62 37.76L29.13 34.23Z" fill="url(#paint12_linear_26835_29203)"/>
<path d="M27.9353 37.5065C29.6889 35.8563 29.8924 33.2242 28.3898 31.6274C26.8872 30.0307 24.2476 30.074 22.494 31.7242C20.7404 33.3744 20.5369 36.0066 22.0395 37.6033C23.5421 39.2001 26.1817 39.1567 27.9353 37.5065Z" fill="url(#paint13_linear_26835_29203)"/>
<path d="M27.1243 36.9147C28.8779 35.2645 29.0813 32.6324 27.5788 31.0356C26.0762 29.4389 23.4365 29.4822 21.6829 31.1324C19.9293 32.7826 19.7258 35.4148 21.2284 37.0115C22.731 38.6083 25.3707 38.5649 27.1243 36.9147Z" fill="url(#paint14_linear_26835_29203)"/>
<path d="M25.35 30.4699C24.2 30.2899 22.98 30.6899 22.07 31.5399C21.32 32.2399 20.87 33.1599 20.79 34.1399C20.72 35.0899 21.02 35.9799 21.63 36.6299C21.92 36.9299 22.26 37.1699 22.64 37.3399L26.68 30.9899C26.29 30.7199 25.84 30.5399 25.34 30.4599L25.35 30.4699Z" fill="url(#paint15_linear_26835_29203)"/>
<path d="M26.74 36.5099C27.49 35.8099 27.94 34.8899 28.02 33.9099C28.09 32.9599 27.79 32.0699 27.18 31.4199C27.03 31.2599 26.87 31.1199 26.69 30.9999C26.43 30.8899 26.16 30.8099 25.87 30.7599C24.72 30.5799 23.5 30.9799 22.59 31.8299C21.84 32.5299 21.39 33.4499 21.31 34.4299C21.24 35.3799 21.54 36.2699 22.15 36.9199C22.3 37.0799 22.46 37.2199 22.64 37.3399C22.9 37.4499 23.17 37.5299 23.46 37.5799C24.61 37.7599 25.83 37.3599 26.74 36.5099Z" fill="url(#paint16_linear_26835_29203)"/>
<path d="M26.74 36.5099C27.49 35.8099 27.94 34.8899 28.02 33.9099C28.09 32.9599 27.79 32.0699 27.18 31.4199C27.03 31.2599 26.87 31.1199 26.69 30.9999C26.43 30.8899 26.16 30.8099 25.87 30.7599C24.72 30.5799 23.5 30.9799 22.59 31.8299C21.84 32.5299 21.39 33.4499 21.31 34.4299C21.24 35.3799 21.54 36.2699 22.15 36.9199C22.3 37.0799 22.46 37.2199 22.64 37.3399C22.9 37.4499 23.17 37.5299 23.46 37.5799C24.61 37.7599 25.83 37.3599 26.74 36.5099Z" fill="#FFDBA5"/>
<path d="M28.02 33.91C28.09 32.96 27.79 32.07 27.18 31.42C27.03 31.26 26.87 31.12 26.69 31L9.55 17.25C9.55 17.25 3.34 20.64 3.37 27.51L22.65 37.34C22.91 37.45 23.18 37.53 23.47 37.58C24.62 37.76 25.84 37.36 26.75 36.51C27.5 35.81 27.95 34.89 28.03 33.91H28.02Z" fill="url(#paint17_linear_26835_29203)"/>
<path d="M23.09 9.97009C22.81 9.49009 22.19 9.34009 21.72 9.65009L21.83 10.5201C21.85 10.6801 21.67 10.7801 21.54 10.6901L20.87 10.2201L19.89 10.8801C19.44 11.1801 19.33 11.8101 19.65 12.2501C26.31 21.3401 30.79 27.9301 36.3 35.8801L38.75 35.6201C33.35 27.5401 28.46 19.3201 23.09 9.98009V9.97009Z" fill="url(#paint18_linear_26835_29203)"/>
<path d="M50.21 51.5001C46.58 46.8401 43.32 42.3501 40.24 37.8401C39.62 37.9301 38.65 38.0201 37.66 37.8501C40.68 42.1901 44.05 47.0101 48.27 52.8701C48.53 53.2401 49.04 53.3401 49.43 53.1101L49.98 52.7901C50.43 52.5201 50.55 51.9201 50.22 51.5001H50.21Z" fill="url(#paint19_linear_26835_29203)"/>
<path d="M47.2368 47.6172L45.5196 48.7551C45.1145 49.0236 45.0037 49.5696 45.2721 49.9748L45.9295 50.9668C46.1979 51.3719 46.744 51.4827 47.1491 51.2142L48.8663 50.0763C49.2715 49.8079 49.3823 49.2618 49.1138 48.8567L48.4565 47.8647C48.188 47.4596 47.642 47.3488 47.2368 47.6172Z" fill="#8EA3B2"/>
<path d="M49.11 49.83L48.51 49.41C48.51 49.41 48.74 48.89 49.22 49.1C49.22 49.1 49.36 49.5 49.1 49.83H49.11Z" fill="#557086"/>
<path d="M59.35 40.6299C59.35 40.6299 60.06 39.6499 60.38 40.0099C60.7 40.3699 60.59 41.4599 59.98 41.9599L59.36 40.6299H59.35Z" fill="#557086"/>
<path d="M47.9 48.5401C48.34 48.8201 55.79 43.1801 58.21 39.7701C58.39 39.5201 58.77 39.5401 58.94 39.7901C59.22 40.0301 59.54 40.4801 59.88 41.0701C59.97 41.2201 60.13 41.2901 60.3 41.2901C60.6 41.2901 60.13 41.8401 59.97 41.9701C58.6 43.0701 53.46 47.3601 48.51 49.4201C48.51 49.4201 48.33 48.9401 47.9 48.5401Z" fill="#8EA3B2"/>
<path d="M40.25 37.8301C39.75 37.0901 39.25 36.3501 38.75 35.6101L36.3 35.8701C36.75 36.5201 37.2 37.1701 37.66 37.8401C38.63 38.2901 39.61 38.1801 40.24 37.8301H40.25Z" fill="#5F402D"/>
<path d="M27.59 23.5699C29.13 22.6499 30.26 24.9299 30.5 26.3499C30.71 27.5499 28.6 28.8499 27.85 28.0099C27.1 27.1699 26.12 24.4499 27.59 23.5699Z" fill="white"/>
<path d="M34.88 32.6299C33.98 33.1299 33.74 35.6099 34.72 36.2899C35.78 37.0199 39.79 37.8499 44.44 34.8999C49.09 31.9499 49.28 29.7899 47.43 27.6899C45.59 25.5999 44.22 28.3899 42.33 29.7699C39.08 32.1399 36.94 31.4699 34.87 32.6299H34.88Z" fill="white"/>
<path d="M38.25 30.7899C38.27 30.8799 38.28 30.9799 38.28 31.0799C38.28 31.2899 38.23 31.4799 38.15 31.6599C43.81 30.0999 48.53 32.9399 48.53 32.9399C48.85 32.0799 49.11 31.3299 49.32 30.5299C44.59 28.3699 39.87 30.0499 38.25 30.7899Z" fill="url(#paint20_linear_26835_29203)"/>
<path d="M24.0971 56.2465C25.2748 55.6263 26.0022 54.6918 25.7217 54.1591C25.4412 53.6265 24.2591 53.6974 23.0814 54.3176C21.9037 54.9377 21.1764 55.8722 21.4568 56.4049C21.7373 56.9375 22.9194 56.8666 24.0971 56.2465Z" fill="url(#paint21_linear_26835_29203)"/>
<path d="M23.9141 55.9183C25.0918 55.2982 25.8192 54.3637 25.5387 53.831C25.2582 53.2984 24.0761 53.3693 22.8984 53.9894C21.7207 54.6096 20.9933 55.5441 21.2738 56.0768C21.5543 56.6094 22.7364 56.5385 23.9141 55.9183Z" fill="#FFC200"/>
<path d="M40.7983 49.2405C41.7397 48.9044 42.1777 47.7211 41.7766 46.5977C41.3754 45.4742 40.287 44.836 39.3456 45.1721C38.4042 45.5083 37.9662 46.6915 38.3674 47.815C38.7685 48.9384 39.8569 49.5767 40.7983 49.2405Z" fill="url(#paint22_linear_26835_29203)"/>
<path d="M41.1442 49.1204C42.0857 48.7843 42.5236 47.601 42.1225 46.4775C41.7213 45.3541 40.633 44.7158 39.6915 45.052C38.7501 45.3881 38.3121 46.5714 38.7133 47.6949C39.1144 48.8183 40.2028 49.4566 41.1442 49.1204Z" fill="#FFC200"/>
<path d="M51.0253 59.1139C51.299 58.5164 50.4137 57.5249 49.0479 56.8993C47.6822 56.2737 46.3531 56.251 46.0794 56.8485C45.8057 57.446 46.691 58.4376 48.0568 59.0631C49.4225 59.6887 50.7516 59.7115 51.0253 59.1139Z" fill="url(#paint23_linear_26835_29203)"/>
<path d="M51.1897 58.7353C51.4634 58.1378 50.5781 57.1462 49.2123 56.5207C47.8466 55.8951 46.5175 55.8723 46.2438 56.4699C45.9701 57.0674 46.8554 58.0589 48.2212 58.6845C49.5869 59.3101 50.916 59.3328 51.1897 58.7353Z" fill="#FFC200"/>
<path d="M29.9512 48.4051C30.147 47.7201 29.3242 46.8842 28.1135 46.5382C26.9027 46.1922 25.7625 46.467 25.5667 47.152C25.371 47.837 26.1937 48.6728 27.4045 49.0189C28.6152 49.3649 29.7554 49.0901 29.9512 48.4051Z" fill="#FFC200"/>
<path d="M24.4405 49.15C25.7532 49.0828 26.7865 48.4247 26.7484 47.6801C26.7103 46.9355 25.6152 46.3864 24.3025 46.4535C22.9898 46.5207 21.9565 47.1788 21.9946 47.9234C22.0327 48.668 23.1278 49.2172 24.4405 49.15Z" fill="url(#paint24_linear_26835_29203)"/>
<path d="M24.4165 48.6817C25.7292 48.6146 26.7625 47.9565 26.7244 47.2119C26.6863 46.4672 25.5912 45.9181 24.2785 45.9853C22.9658 46.0525 21.9325 46.7106 21.9706 47.4552C22.0087 48.1998 23.1038 48.7489 24.4165 48.6817Z" fill="#FFC200"/>
<path d="M34.7287 54.5639C35.9064 53.9438 36.5336 52.8191 36.1296 52.0519C35.7256 51.2847 34.4434 51.1654 33.2657 51.7856C32.088 52.4057 31.4608 53.5304 31.8648 54.2976C32.2688 55.0648 33.551 55.1841 34.7287 54.5639Z" fill="url(#paint25_linear_26835_29203)"/>
<path d="M34.4785 54.0944C35.6562 53.4743 36.2834 52.3496 35.8794 51.5824C35.4754 50.8152 34.1932 50.6959 33.0155 51.3161C31.8378 51.9362 31.2106 53.0609 31.6146 53.8281C32.0186 54.5954 33.3008 54.7146 34.4785 54.0944Z" fill="#FFC200"/>
<path d="M56.3469 38.5862C56.5522 37.9793 55.9637 37.2319 55.0324 36.9169C54.1012 36.6019 53.1799 36.8385 52.9746 37.4454C52.7693 38.0522 53.3578 38.7996 54.289 39.1146C55.2202 39.4296 56.1416 39.193 56.3469 38.5862Z" fill="url(#paint26_linear_26835_29203)"/>
<path d="M56.4686 38.2114C56.6739 37.6045 56.0854 36.8572 55.1542 36.5422C54.2229 36.2272 53.3016 36.4637 53.0963 37.0706C52.891 37.6775 53.4795 38.4248 54.4107 38.7398C55.3419 39.0549 56.2633 38.8183 56.4686 38.2114Z" fill="#FFC200"/>
<path d="M18.7619 39.9978C18.8322 39.1336 18.0503 38.3647 17.0154 38.2806C15.9805 38.1964 15.0846 38.8287 15.0143 39.693C14.944 40.5572 15.726 41.326 16.7608 41.4102C17.7957 41.4944 18.6916 40.862 18.7619 39.9978Z" fill="url(#paint27_linear_26835_29203)"/>
<path d="M18.7954 39.6719C18.8657 38.8076 18.0838 38.0388 17.0489 37.9546C16.014 37.8705 15.1181 38.5028 15.0478 39.3671C14.9775 40.2313 15.7595 41.0001 16.7943 41.0843C17.8292 41.1685 18.7251 40.5361 18.7954 39.6719Z" fill="#FFC200"/>
<mask id="mask2_26835_29203" style="mask-type:luminance" maskUnits="userSpaceOnUse" x="5" y="18" width="53" height="40">
<path d="M57 18H6C5.44772 18 5 18.4477 5 19V57C5 57.5523 5.44772 58 6 58H57C57.5523 58 58 57.5523 58 57V19C58 18.4477 57.5523 18 57 18Z" fill="white"/>
</mask>
<g mask="url(#mask2_26835_29203)">
<path d="M4.89 25.1201L10.38 28.0501L14.08 45.8801L16.14 47.2201L19.47 58.4401H4.44L4.89 25.1201Z" fill="url(#paint28_linear_26835_29203)"/>
</g>
<path d="M12.7 46.03L6.14999 45.55L7.07999 46.8801L14.91 47.41L12.7 46.03Z" fill="#FFC200"/>
<path d="M47.12 49.83C47.4127 49.83 47.65 49.53 47.65 49.16C47.65 48.79 47.4127 48.49 47.12 48.49C46.8273 48.49 46.59 48.79 46.59 49.16C46.59 49.53 46.8273 49.83 47.12 49.83Z" fill="white"/>
<path d="M37.22 31.3199C37.4685 31.3199 37.67 31.1185 37.67 30.8699C37.67 30.6214 37.4685 30.4199 37.22 30.4199C36.9715 30.4199 36.77 30.6214 36.77 30.8699C36.77 31.1185 36.9715 31.3199 37.22 31.3199Z" fill="white"/>
</g>
<path fill-rule="evenodd" clip-rule="evenodd" d="M6.49771 79C6.98969 79 7.48602 79.213 7.49037 79.6913C7.49037 80.1043 7.24656 80.2696 6.99839 80.2696C6.75023 80.2696 6.73281 80.1435 6.73281 80.1435C6.73281 80.1435 7.02452 79.9261 7.02452 79.7174C7.02452 79.6087 6.94179 79.313 6.489 79.3174C5.8577 79.3174 5.5181 79.6174 5.5181 80.1522C5.5181 80.7652 7.35105 80.9739 7.3554 81.7652C7.3554 82.613 6.47594 82.9957 5.69225 83C5.283 83 5.01306 82.7609 5.00871 82.3783C5.00871 81.9261 5.22204 81.4652 5.75756 81.4652C5.88382 81.4565 5.98831 81.5522 5.99702 81.6783C5.99702 81.6783 5.99702 81.6826 5.99702 81.687C5.99702 81.687 5.45715 81.8391 5.4615 82.3783C5.4615 82.4783 5.56599 82.6609 5.81851 82.6565C6.07103 82.6522 6.82424 82.4739 6.81989 81.8087C6.81989 81.1913 5.00435 81.1087 5 80.1478C5 79.0652 6.08845 79.0087 6.49771 79.0087V79ZM10.747 79.6C10.8123 79.5696 11.2129 79.4913 11.1955 79.813C11.1824 80.1348 10.9386 80.6913 10.9037 80.9348C11.2303 80.7696 11.6918 80.2087 11.6918 80.2087C11.6918 80.2087 12.0183 80.2522 11.9182 80.4522C11.818 80.6522 11.1519 81.1435 11.1519 81.1435C11.1519 81.1435 11.3043 82.5696 12.1707 82.5696C12.6453 82.5696 12.8499 82.3609 12.937 82.287C12.9587 82.2696 12.9762 82.2652 12.9849 82.2783C13.0197 82.387 12.9936 82.5043 12.9152 82.5913C12.8194 82.6957 12.5974 82.8217 12.1533 82.8261C11.3653 82.8261 10.9255 82.1957 10.8123 81.2609C10.7252 81.5348 10.7339 81.9826 10.7209 82.2C10.6948 82.2435 10.2507 82.4174 10.2158 82.1174C10.2158 82.0913 10.2158 82.0696 10.2158 82.0435C10.1331 82.1609 10.0199 82.2826 9.91108 82.2826C9.71951 82.2826 9.63679 82.1217 9.60196 82.0391C9.57584 82.0696 9.3625 82.287 9.08821 82.287C8.92277 82.2913 8.77474 82.1957 8.70943 82.0435C8.57011 82.1435 8.32195 82.2913 8.03895 82.2913C7.73418 82.2913 7.66017 82.1087 7.66017 81.9565C7.66017 81.713 7.84303 80.987 7.84303 80.987C7.84303 80.987 7.48602 81.1304 7.36411 81.1348C7.19431 81.1348 7.11159 80.8217 7.11159 80.813C7.11159 80.8087 7.11159 80.8 7.1203 80.8C7.22044 80.7609 7.94317 80.513 7.94317 80.513C7.94317 80.513 8.07813 79.9826 8.09555 79.913C8.11296 79.8435 8.2131 79.7 8.33065 79.6565C8.41773 79.6217 8.50916 79.6 8.60059 79.5913C8.63107 79.5913 8.65284 79.6 8.65284 79.6174C8.65284 79.6348 8.47433 80.4087 8.47433 80.4087C8.47433 80.4087 8.84876 80.3217 8.98808 80.3217C9.09692 80.3217 9.15352 80.387 9.09257 80.4696C9.03162 80.5522 8.96196 80.6478 8.92712 80.6913C8.88794 80.7348 8.86182 80.7435 8.77039 80.7609C8.64413 80.787 8.36113 80.8565 8.36113 80.8565C8.36113 80.8565 8.13473 81.6783 8.13909 81.8174C8.13909 81.8957 8.16521 81.987 8.26099 81.987C8.35678 81.987 8.53964 81.8739 8.67025 81.7913C8.69202 81.1522 9.18835 80.7261 9.57584 80.7261C9.7021 80.7261 9.65421 80.8478 9.79788 80.8478H9.88931C9.94591 80.8478 10.0069 80.8522 10.0069 80.9957C10.0069 81.1957 9.89367 81.5261 9.89367 81.7348C9.89367 81.8826 9.91544 81.987 9.97204 81.987C10.0678 81.987 10.1767 81.8478 10.255 81.7261C10.3813 81.0304 10.734 79.7609 10.734 79.6174L10.747 79.6ZM12.5016 80.7C12.7672 80.6783 12.9326 80.8217 12.9631 80.9C12.9936 80.9783 12.9892 81.1609 12.9152 81.2913C12.6845 81.7044 12.1097 81.6304 12.1097 81.6304C12.1097 81.6304 12.0444 81.9565 12.3405 81.9565C12.593 81.9565 12.7062 81.8304 12.8151 81.7261C12.8586 81.7261 12.9936 81.8652 12.9326 81.9609C12.8847 82.0348 12.6191 82.2565 12.2795 82.2609C11.7397 82.2609 11.6047 81.8 11.6744 81.4696C11.7658 81.0609 12.1751 80.7217 12.5016 80.6957V80.7ZM9.6455 80.987C9.32332 80.987 8.82699 81.9696 9.20577 81.9652C9.61938 81.9652 9.6455 81.1826 9.6455 81.0043V80.987ZM12.6409 80.8913C12.4232 80.9 12.1751 81.3174 12.1533 81.5C12.4798 81.513 12.654 81.1957 12.6757 81.0696C12.6888 80.9739 12.6932 80.887 12.6409 80.887V80.8913Z" fill="#557086"/>
<path d="M51.1444 79.3778L51.6412 80.278L52.6519 80.4733C52.7792 80.4988 52.8302 80.6559 52.741 80.7494L52.0361 81.5009L52.1635 82.5243C52.1805 82.6559 52.0446 82.7494 51.93 82.6942L51.0001 82.2568L50.0701 82.6942C49.9512 82.7494 49.8196 82.6517 49.8366 82.5243L49.964 81.5009L49.2591 80.7494C49.1699 80.6559 49.2209 80.4988 49.3482 80.4733L50.3589 80.278L50.8557 79.3778C50.9194 79.2632 51.085 79.2632 51.1444 79.3778Z" fill="#FFC200"/>
<path d="M51 79.2929C51.0552 79.2929 51.1147 79.3226 51.1444 79.3778L51.6412 80.278L52.6519 80.4733C52.7792 80.4988 52.8302 80.6559 52.741 80.7494L52.0361 81.5009L52.1635 82.5243C52.1763 82.6262 52.0955 82.7111 51.9979 82.7111C51.9767 82.7111 51.9512 82.7069 51.9257 82.6942L50.9958 82.2568L50.0658 82.6942C50.0403 82.7069 50.0191 82.7111 49.9936 82.7111C49.9002 82.7111 49.8153 82.6262 49.828 82.5243L49.9554 81.5009L49.2505 80.7494C49.1614 80.6559 49.2123 80.4988 49.3397 80.4733L50.3503 80.278L50.8471 79.3778C50.8769 79.3226 50.9363 79.2929 50.9915 79.2929M51 79.0806C50.8641 79.0806 50.7367 79.157 50.6688 79.2759L50.2187 80.0912L49.3057 80.2653C49.1699 80.2908 49.0595 80.3884 49.017 80.5201C48.9745 80.6517 49.0085 80.7961 49.1019 80.8937L49.7389 81.5731L49.6242 82.4946C49.6115 82.6007 49.6454 82.7111 49.7134 82.7918C49.7856 82.8725 49.8875 82.9192 49.9979 82.9192C50.0531 82.9192 50.1083 82.9065 50.1592 82.881L51 82.4861L51.8408 82.881C51.8917 82.9065 51.9469 82.9192 52.0021 82.9192C52.1125 82.9192 52.2144 82.8725 52.2866 82.7918C52.3588 82.7111 52.3928 82.6007 52.3758 82.4946L52.2612 81.5731L52.8981 80.8937C52.9915 80.7918 53.0255 80.6474 52.983 80.5201C52.9406 80.3884 52.8302 80.2908 52.6943 80.2653L51.7813 80.0912L51.3312 79.2759C51.2633 79.157 51.1359 79.0806 51 79.0806Z" fill="#213743"/>
<path d="M51.0001 79.8152V80.9744C51.0001 81.0678 51.0892 81.1315 51.1784 81.106L52.2187 80.7706C52.2739 80.7536 52.2697 80.6729 52.2102 80.6602L51.5563 80.5413C51.4969 80.5286 51.4417 80.4903 51.4119 80.4351L51.085 79.7939C51.0637 79.7515 50.9958 79.7642 50.9958 79.8152H51.0001Z" fill="#FFEBB8"/>
<path d="M51 81.4924V82.0699C51 82.1039 51.017 82.1294 51.0468 82.1464L51.7983 82.5073C51.8366 82.5243 51.8705 82.4818 51.8451 82.4479L51.0935 81.4627C51.0637 81.4245 51 81.4457 51 81.4924Z" fill="#FF7F00"/>
<path d="M56.1444 79.3778L56.6412 80.278L57.6519 80.4733C57.7792 80.4988 57.8302 80.6559 57.741 80.7494L57.0361 81.5009L57.1635 82.5243C57.1805 82.6559 57.0446 82.7494 56.93 82.6942L56.0001 82.2568L55.0701 82.6942C54.9512 82.7494 54.8196 82.6517 54.8366 82.5243L54.964 81.5009L54.2591 80.7494C54.1699 80.6559 54.2209 80.4988 54.3482 80.4733L55.3589 80.278L55.8557 79.3778C55.9194 79.2632 56.085 79.2632 56.1444 79.3778Z" fill="#FFC200"/>
<path d="M56 79.2929C56.0552 79.2929 56.1147 79.3226 56.1444 79.3778L56.6412 80.278L57.6519 80.4733C57.7792 80.4988 57.8302 80.6559 57.741 80.7494L57.0361 81.5009L57.1635 82.5243C57.1763 82.6262 57.0955 82.7111 56.9979 82.7111C56.9767 82.7111 56.9512 82.7069 56.9257 82.6942L55.9958 82.2568L55.0658 82.6942C55.0403 82.7069 55.0191 82.7111 54.9936 82.7111C54.9002 82.7111 54.8153 82.6262 54.828 82.5243L54.9554 81.5009L54.2505 80.7494C54.1614 80.6559 54.2123 80.4988 54.3397 80.4733L55.3503 80.278L55.8471 79.3778C55.8769 79.3226 55.9363 79.2929 55.9915 79.2929M56 79.0806C55.8641 79.0806 55.7367 79.157 55.6688 79.2759L55.2187 80.0912L54.3057 80.2653C54.1699 80.2908 54.0595 80.3884 54.017 80.5201C53.9745 80.6517 54.0085 80.7961 54.1019 80.8937L54.7389 81.5731L54.6242 82.4946C54.6115 82.6007 54.6454 82.7111 54.7134 82.7918C54.7856 82.8725 54.8875 82.9192 54.9979 82.9192C55.0531 82.9192 55.1083 82.9065 55.1592 82.881L56 82.4861L56.8408 82.881C56.8917 82.9065 56.9469 82.9192 57.0021 82.9192C57.1125 82.9192 57.2144 82.8725 57.2866 82.7918C57.3588 82.7111 57.3928 82.6007 57.3758 82.4946L57.2612 81.5731L57.8981 80.8937C57.9915 80.7918 58.0255 80.6474 57.983 80.5201C57.9406 80.3884 57.8302 80.2908 57.6943 80.2653L56.7813 80.0912L56.3312 79.2759C56.2633 79.157 56.1359 79.0806 56 79.0806Z" fill="#213743"/>
<path d="M56.0001 79.8152V80.9744C56.0001 81.0678 56.0892 81.1315 56.1784 81.106L57.2187 80.7706C57.2739 80.7536 57.2697 80.6729 57.2102 80.6602L56.5563 80.5413C56.4969 80.5286 56.4417 80.4903 56.4119 80.4351L56.085 79.7939C56.0637 79.7515 55.9958 79.7642 55.9958 79.8152H56.0001Z" fill="#FFEBB8"/>
<path d="M56 81.4924V82.0699C56 82.1039 56.017 82.1294 56.0468 82.1464L56.7983 82.5073C56.8366 82.5243 56.8705 82.4818 56.8451 82.4479L56.0935 81.4627C56.0637 81.4245 56 81.4457 56 81.4924Z" fill="#FF7F00"/>
<rect x="13" y="62" width="37" height="13" rx="6.5" fill="#2F4553"/>
<path d="M28.573 70H27.541V67.318L26.869 67.996L26.281 67.378L27.679 65.998H28.573V70ZM30.8066 70.072C29.6366 70.072 29.0906 69.058 29.0906 68.002C29.0906 66.946 29.6366 65.938 30.8066 65.938C31.9766 65.938 32.5226 66.946 32.5226 68.002C32.5226 69.058 31.9766 70.072 30.8066 70.072ZM30.8066 69.16C31.2866 69.16 31.4786 68.71 31.4786 68.002C31.4786 67.294 31.2866 66.85 30.8066 66.85C30.3266 66.85 30.1346 67.294 30.1346 68.002C30.1346 68.71 30.3266 69.16 30.8066 69.16ZM35.7867 70H34.7727L34.2147 69.124L33.6507 70H32.6427L33.6327 68.512L32.7027 67.102H33.7167L34.2147 67.888L34.7067 67.102H35.7207L34.7967 68.512L35.7867 70Z" fill="white"/>
<path d="M8.03 11H7.215L6.56 9.815H6.04V11H5.33V7.665H6.89C7.585 7.665 8.01 8.12 8.01 8.74C8.01 9.33 7.64 9.645 7.28 9.73L8.03 11ZM6.785 9.19C7.07 9.19 7.285 9.02 7.285 8.74C7.285 8.46 7.07 8.29 6.785 8.29H6.04V9.19H6.785ZM10.5152 11H9.88023V10.75C9.71523 10.945 9.43023 11.06 9.11523 11.06C8.73023 11.06 8.27523 10.8 8.27523 10.26C8.27523 9.695 8.73023 9.48 9.11523 9.48C9.43523 9.48 9.72023 9.585 9.88023 9.775V9.45C9.88023 9.205 9.67023 9.045 9.35023 9.045C9.09023 9.045 8.85023 9.14 8.64523 9.33L8.40523 8.905C8.70023 8.645 9.08023 8.525 9.46023 8.525C10.0102 8.525 10.5152 8.745 10.5152 9.44V11ZM9.37023 10.63C9.57523 10.63 9.77523 10.56 9.88023 10.42V10.12C9.77523 9.98 9.57523 9.91 9.37023 9.91C9.12023 9.91 8.91523 10.04 8.91523 10.275C8.91523 10.5 9.12023 10.63 9.37023 10.63ZM11.7801 11H11.1451V8.585H11.7801V8.915C11.9501 8.7 12.2501 8.525 12.5501 8.525V9.145C12.5051 9.135 12.4451 9.13 12.3751 9.13C12.1651 9.13 11.8851 9.25 11.7801 9.405V11ZM14.0818 11.06C13.3468 11.06 12.7918 10.565 12.7918 9.79C12.7918 9.09 13.3068 8.525 14.0418 8.525C14.7618 8.525 15.2518 9.065 15.2518 9.855V9.995H13.4568C13.4968 10.3 13.7418 10.555 14.1518 10.555C14.3568 10.555 14.6418 10.465 14.7968 10.315L15.0768 10.725C14.8368 10.945 14.4568 11.06 14.0818 11.06ZM14.6368 9.565C14.6218 9.335 14.4618 9.03 14.0418 9.03C13.6468 9.03 13.4768 9.325 13.4468 9.565H14.6368Z" fill="#05080A"/>
<path d="M48.6507 11H48.1987L46.8067 9.096V11H46.3387V8.332H46.8187L48.1827 10.184V8.332H48.6507V11ZM50.0776 11.048C49.4656 11.048 49.0856 10.588 49.0856 10.032C49.0856 9.48 49.4656 9.02 50.0776 9.02C50.6976 9.02 51.0736 9.48 51.0736 10.032C51.0736 10.588 50.6976 11.048 50.0776 11.048ZM50.0776 10.676C50.4376 10.676 50.6376 10.376 50.6376 10.032C50.6376 9.692 50.4376 9.392 50.0776 9.392C49.7216 9.392 49.5216 9.692 49.5216 10.032C49.5216 10.376 49.7216 10.676 50.0776 10.676ZM51.695 11.044C51.543 11.044 51.415 10.916 51.415 10.764C51.415 10.612 51.543 10.484 51.695 10.484C51.847 10.484 51.975 10.612 51.975 10.764C51.975 10.916 51.847 11.044 51.695 11.044ZM55.0668 11H54.5988V10.396H53.3268V10.02L54.4228 8.332H55.0668V9.984H55.4228V10.396H55.0668V11ZM54.5988 9.984V8.752L53.7868 9.984H54.5988ZM56.7672 11.048C56.0192 11.048 55.6992 10.34 55.6992 9.668C55.6992 8.996 56.0192 8.292 56.7672 8.292C57.5152 8.292 57.8352 8.996 57.8352 9.668C57.8352 10.34 57.5152 11.048 56.7672 11.048ZM56.7672 10.632C57.2032 10.632 57.3592 10.176 57.3592 9.668C57.3592 9.16 57.2032 8.708 56.7672 8.708C56.3312 8.708 56.1752 9.16 56.1752 9.668C56.1752 10.176 56.3312 10.632 56.7672 10.632Z" fill="white"/>
<defs>
<linearGradient id="paint0_linear_26835_29203" x1="31.5" y1="55.51" x2="31.5" y2="41.92" gradientUnits="userSpaceOnUse">
<stop stop-color="#F34E36"/>
<stop offset="0.3" stop-color="#B74B3E"/>
<stop offset="1" stop-color="#2F4553"/>
</linearGradient>
<linearGradient id="paint1_linear_26835_29203" x1="20.49" y1="99.9901" x2="19.22" y2="20.7501" gradientUnits="userSpaceOnUse">
<stop stop-color="#F34E36"/>
<stop offset="0.34" stop-color="#A9473B"/>
<stop offset="1" stop-color="#1A2C38"/>
</linearGradient>
<linearGradient id="paint2_linear_26835_29203" x1="48.72" y1="33.9799" x2="48.72" y2="25.0299" gradientUnits="userSpaceOnUse">
<stop stop-color="#F73B3C"/>
<stop offset="1" stop-color="#F44335"/>
</linearGradient>
<linearGradient id="paint3_linear_26835_29203" x1="51.3502" y1="38.2041" x2="52.1309" y2="32.3459" gradientUnits="userSpaceOnUse">
<stop stop-color="#F73B3C"/>
<stop offset="1" stop-color="#F44335"/>
</linearGradient>
<linearGradient id="paint4_linear_26835_29203" x1="34.61" y1="31.51" x2="34.61" y2="25.47" gradientUnits="userSpaceOnUse">
<stop stop-color="#F73B3C"/>
<stop offset="1" stop-color="#F44335"/>
</linearGradient>
<linearGradient id="paint5_linear_26835_29203" x1="22.0811" y1="38.8189" x2="47.6389" y2="42.8257" gradientUnits="userSpaceOnUse">
<stop stop-color="#F7BB4B"/>
<stop offset="1" stop-color="#F69C45"/>
</linearGradient>
<linearGradient id="paint6_linear_26835_29203" x1="40.2365" y1="39.4212" x2="42.4036" y2="45.3586" gradientUnits="userSpaceOnUse">
<stop stop-color="#BF4C1C"/>
<stop offset="1" stop-color="#F6A647" stop-opacity="0"/>
</linearGradient>
<linearGradient id="paint7_linear_26835_29203" x1="32.6902" y1="36.4231" x2="47.934" y2="38.813" gradientUnits="userSpaceOnUse">
<stop stop-color="#004384"/>
<stop offset="1" stop-color="#00438F"/>
</linearGradient>
<linearGradient id="paint8_linear_26835_29203" x1="23.6093" y1="39.0788" x2="34.852" y2="40.8414" gradientUnits="userSpaceOnUse">
<stop stop-color="#F7BB4B"/>
<stop offset="1" stop-color="#F69C45"/>
</linearGradient>
<linearGradient id="paint9_linear_26835_29203" x1="4.99999" y1="52.57" x2="86.82" y2="52.57" gradientUnits="userSpaceOnUse">
<stop stop-color="#F7BB4B"/>
<stop offset="1" stop-color="#F69C45"/>
</linearGradient>
<linearGradient id="paint10_linear_26835_29203" x1="22.1893" y1="33.6737" x2="48.9919" y2="37.8756" gradientUnits="userSpaceOnUse">
<stop stop-color="#F7BB4B"/>
<stop offset="1" stop-color="#F69C45"/>
</linearGradient>
<linearGradient id="paint11_linear_26835_29203" x1="24.23" y1="36.7301" x2="36.42" y2="36.7301" gradientUnits="userSpaceOnUse">
<stop stop-color="#004384"/>
<stop offset="1" stop-color="#00438F"/>
</linearGradient>
<linearGradient id="paint12_linear_26835_29203" x1="27.62" y1="39.68" x2="46.86" y2="39.68" gradientUnits="userSpaceOnUse">
<stop stop-color="#F5773D"/>
<stop offset="1" stop-color="#F44335"/>
</linearGradient>
<linearGradient id="paint13_linear_26835_29203" x1="24.5718" y1="40.3089" x2="30.9295" y2="34.3262" gradientUnits="userSpaceOnUse">
<stop stop-color="#F5773D"/>
<stop offset="1" stop-color="#F44335"/>
</linearGradient>
<linearGradient id="paint14_linear_26835_29203" x1="23.7668" y1="39.709" x2="30.1244" y2="33.7262" gradientUnits="userSpaceOnUse">
<stop stop-color="#F5773D"/>
<stop offset="1" stop-color="#F44335"/>
</linearGradient>
<linearGradient id="paint15_linear_26835_29203" x1="20.893" y1="33.4196" x2="26.2179" y2="34.2544" gradientUnits="userSpaceOnUse">
<stop stop-color="#004384"/>
<stop offset="1" stop-color="#00438F"/>
</linearGradient>
<linearGradient id="paint16_linear_26835_29203" x1="24.5116" y1="39.6127" x2="30.0536" y2="34.3975" gradientUnits="userSpaceOnUse">
<stop stop-color="#F5773D"/>
<stop offset="1" stop-color="#F44335"/>
</linearGradient>
<linearGradient id="paint17_linear_26835_29203" x1="28.5992" y1="36.8851" x2="4.43841" y2="21.0621" gradientUnits="userSpaceOnUse">
<stop stop-color="#FFF8A9"/>
<stop offset="1" stop-color="#162D37" stop-opacity="0"/>
</linearGradient>
<linearGradient id="paint18_linear_26835_29203" x1="34.4408" y1="55.6666" x2="26.6132" y2="8.74806" gradientUnits="userSpaceOnUse">
<stop stop-color="#AC6D4E"/>
<stop offset="1" stop-color="#957661"/>
</linearGradient>
<linearGradient id="paint19_linear_26835_29203" x1="45.5205" y1="53.8204" x2="37.6929" y2="6.90183" gradientUnits="userSpaceOnUse">
<stop stop-color="#AC6D4E"/>
<stop offset="1" stop-color="#957661"/>
</linearGradient>
<linearGradient id="paint20_linear_26835_29203" x1="43.74" y1="32.9399" x2="43.74" y2="29.4599" gradientUnits="userSpaceOnUse">
<stop stop-color="#F73B3C"/>
<stop offset="1" stop-color="#F44335"/>
</linearGradient>
<linearGradient id="paint21_linear_26835_29203" x1="27.7905" y1="62.9814" x2="24.1381" y2="56.2513" gradientUnits="userSpaceOnUse">
<stop stop-color="#F7BB4B"/>
<stop offset="1" stop-color="#F69C45"/>
</linearGradient>
<linearGradient id="paint22_linear_26835_29203" x1="42.9203" y1="46.3273" x2="54.8002" y2="41.7599" gradientUnits="userSpaceOnUse">
<stop stop-color="#F7BB4B"/>
<stop offset="1" stop-color="#F69C45"/>
</linearGradient>
<linearGradient id="paint23_linear_26835_29203" x1="41.9589" y1="65.5639" x2="45.3364" y2="57.9464" gradientUnits="userSpaceOnUse">
<stop stop-color="#F7BB4B"/>
<stop offset="1" stop-color="#F69C45"/>
</linearGradient>
<linearGradient id="paint24_linear_26835_29203" x1="24.9473" y1="56.3135" x2="24.3129" y2="46.8535" gradientUnits="userSpaceOnUse">
<stop stop-color="#F7BB4B"/>
<stop offset="1" stop-color="#F69C45"/>
</linearGradient>
<linearGradient id="paint25_linear_26835_29203" x1="39.6439" y1="63.5978" x2="34.3294" y2="53.9593" gradientUnits="userSpaceOnUse">
<stop stop-color="#F7BB4B"/>
<stop offset="1" stop-color="#F69C45"/>
</linearGradient>
<linearGradient id="paint26_linear_26835_29203" x1="53.6066" y1="41.4438" x2="56.0741" y2="33.696" gradientUnits="userSpaceOnUse">
<stop stop-color="#F7BB4B"/>
<stop offset="1" stop-color="#F69C45"/>
</linearGradient>
<linearGradient id="paint27_linear_26835_29203" x1="16.49" y1="46.2201" x2="17.1241" y2="35.183" gradientUnits="userSpaceOnUse">
<stop stop-color="#F7BB4B"/>
<stop offset="1" stop-color="#F69C45"/>
</linearGradient>
<linearGradient id="paint28_linear_26835_29203" x1="11.96" y1="58.4401" x2="11.96" y2="25.1201" gradientUnits="userSpaceOnUse">
<stop stop-color="#F34E36"/>
<stop offset="1" stop-color="#F7BB4B"/>
</linearGradient>
<clipPath id="clip0_26835_29203">
<rect width="63" height="88" fill="white"/>
</clipPath>
</defs>
</svg>
