<svg width="63" height="88" viewBox="0 0 63 88" fill="none" xmlns="http://www.w3.org/2000/svg">
<rect width="63" height="88" rx="4" fill="#1CE61C"/>
<path d="M36.7008 13.5133L44.7992 3.48665C45.5586 2.54645 46.7024 2 47.911 2H58C59.6569 2 61 3.34314 61 5V83C61 84.6569 59.6569 86 58 86H5C3.34315 86 2 84.6569 2 83V18C2 16.3431 3.34315 15 5 15H33.589C34.7976 15 35.9414 14.4536 36.7008 13.5133Z" fill="#213743"/>
<mask id="mask0_26835_29204" style="mask-type:luminance" maskUnits="userSpaceOnUse" x="0" y="0" width="63" height="88">
<path d="M59 0H4C1.79 0 0 1.79 0 4V84C0 86.21 1.79 88 4 88H59C61.21 88 63 86.21 63 84V4C63 1.79 61.21 0 59 0ZM61 82.81C61 84.57 59.57 86 57.81 86H5.19C3.43 86 2 84.57 2 82.81V18.19C2 16.43 3.43 15 5.19 15H33.59C34.8 15 35.94 14.45 36.7 13.51L44.8 3.48C45.56 2.54 46.7 1.99 47.91 1.99H57.81C59.57 1.99 61 3.42 61 5.18V82.8V82.81Z" fill="white"/>
</mask>
<g mask="url(#mask0_26835_29204)">
<path d="M68.37 47.3199V26.6399L4.46 90.5499H25.13L68.37 47.3199Z" fill="white"/>
<path d="M64.66 -2.29004H55.22L-2.92 55.84V66.18L65.46 -2.20004C65.2 -2.26004 64.93 -2.29004 64.66 -2.29004Z" fill="white"/>
<path d="M68.37 69.23V61.55L39.37 90.55H47.05L68.37 69.23Z" fill="white"/>
</g>
<rect x="5" y="18" width="53" height="40" rx="1" fill="#2F4553"/>
<g clip-path="url(#clip0_26835_29204)">
<path d="M57 18H6C5.44772 18 5 18.4477 5 19V57C5 57.5523 5.44772 58 6 58H57C57.5523 58 58 57.5523 58 57V19C58 18.4477 57.5523 18 57 18Z" fill="url(#paint0_linear_26835_29204)"/>
<path d="M31.56 32.7C18.7 32.7 8.28 34.4099 8.28 36.5099C8.28 38.6099 18.7 40.32 31.56 40.32C44.42 40.32 54.84 38.6099 54.84 36.5099C54.84 34.4099 44.42 32.7 31.56 32.7ZM31.56 39.15C19.58 39.15 9.88 37.89 9.88 36.34C9.88 34.79 19.59 33.54 31.56 33.54C43.53 33.54 53.24 34.8 53.24 36.34C53.24 37.88 43.53 39.15 31.56 39.15Z" fill="white"/>
<path d="M58 35.98H5V36.57H58V35.98Z" fill="white"/>
<path d="M19.13 49.62C19.73 49.62 20.32 49.63 20.88 49.65C22.81 48.87 27.91 48.31 33.9 48.32C41.55 48.32 47.75 49.24 47.75 50.37C47.75 51.5 41.55 52.4 33.9 52.4C29.73 52.4 25.99 52.12 23.45 51.69C22.22 51.81 20.73 51.88 19.13 51.88C14.89 51.88 11.46 51.37 11.46 50.75C11.46 50.13 14.9 49.62 19.13 49.63V49.62Z" fill="#006A00"/>
<path d="M49.19 28.31C49.19 28.31 50.14 28.5 51.33 28.67C53.24 28.94 55.79 29.15 56.06 28.41C56.49 27.21 57.1 27.3 57.43 27.81C57.76 28.32 58.69 26.42 59.89 28.52C60.85 30.2 59.12 32.93 52.9 34.19C51.33 34.51 49.48 34.73 47.32 34.82C47.32 34.82 45.28 28.99 49.19 28.3V28.31Z" fill="white"/>
<path d="M30.71 26.45C30.71 26.45 29.8 26.64 28.66 26.82C26.23 27.77 25.26 30.59 27.2 32.16C28.71 32.45 30.49 32.6399 32.58 32.7099C32.58 32.7099 34.48 27.0699 30.71 26.4599V26.45Z" fill="#DFEAF0"/>
<path d="M28.65 26.8201C26.81 27.1001 24.36 27.3301 24.1 26.6201C23.67 25.4701 23.08 25.5601 22.77 26.0601C22.46 26.5601 21.54 24.7401 20.41 26.7701C19.5 28.4001 21.19 31.0101 27.2 32.1501C26.43 30.9301 27.35 28.0901 28.66 26.8101L28.65 26.8201Z" fill="white"/>
<path d="M39.99 17.43C40.06 17.43 40.13 17.39 40.19 17.34L41.56 16.04C41.65 15.95 41.69 15.82 41.65 15.69C41.61 15.57 41.51 15.47 41.39 15.45L40.11 15.19L41.14 14.1C41.27 13.96 41.27 13.74 41.13 13.61C40.99 13.48 40.77 13.48 40.64 13.62L39.18 15.16C39.09 15.25 39.06 15.38 39.1 15.5C39.14 15.62 39.24 15.71 39.36 15.73L40.6 15.98L39.71 16.82C39.57 16.95 39.57 17.17 39.7 17.31C39.78 17.39 39.88 17.43 39.99 17.42V17.43Z" fill="white"/>
<path d="M41.05 14.3801C41.409 14.3801 41.7 14.0891 41.7 13.7301C41.7 13.3711 41.409 13.0801 41.05 13.0801C40.691 13.0801 40.4 13.3711 40.4 13.7301C40.4 14.0891 40.691 14.3801 41.05 14.3801Z" fill="white"/>
<path d="M30.03 23.5401C30.03 23.5401 30.55 15.7701 31.57 14.7701C32.59 13.7701 35.02 18.1901 35.02 18.1901C35.02 18.1901 32.7 23.3001 30.02 23.5401H30.03Z" fill="white"/>
<path d="M49.31 26.4701C49.31 26.4701 50.54 17.6701 49.75 16.0401C48.96 14.4101 44.49 19.0201 44.49 19.0201C44.49 19.0201 47.11 26.5901 49.31 26.4701Z" fill="white"/>
<path d="M29.0323 26.1094L28.4799 32.4755C27.9895 38.1262 32.1727 43.1046 37.8234 43.595C43.4742 44.0854 48.4525 39.9021 48.9429 34.2514L49.4954 27.8853C49.9858 22.2346 45.8025 17.2562 40.1518 16.7658C34.5011 16.2754 29.5227 20.4587 29.0323 26.1094Z" fill="white"/>
<path d="M34.52 43.07C34.52 43.07 32.72 42.45 32.19 44.01C31.87 44.94 31.34 45.67 29.6 45.79C26.49 46 23.51 44.12 23.41 42.04C23.31 39.97 23.54 36.7 26.31 34.43C29.8 31.58 36.09 35.94 34.53 43.06L34.52 43.07Z" fill="white"/>
<path d="M37.06 28.7901C37.06 28.7901 35.17 28.9701 34.53 28.4201C33.89 27.8701 34.05 29.8901 36.2 30.0201C39.19 30.2001 39.43 29.1101 39.35 28.4401C39.29 27.9101 38.24 28.7001 37.05 28.7901H37.06Z" fill="#2F2D2A"/>
<path d="M34.37 27.84L34.39 28.53C34.39 28.74 34.55 28.92 34.75 28.97C34.78 28.97 34.81 28.98 34.85 28.99C34.87 28.84 34.99 28.73 35.14 28.72C35.3 28.72 35.44 28.85 35.44 29.01C35.44 29.04 35.44 29.06 35.44 29.08C36.55 29.23 37.62 29.17 38.67 28.88C38.87 28.82 39.01 28.64 39.01 28.43L38.99 27.74C37.44 28.23 35.9 28.28 34.38 27.84H34.37Z" fill="white"/>
<path d="M38.92 18.4801C39.57 18.6401 40.15 18.9301 40.63 19.3201C40.23 18.4201 39.39 17.7001 38.3 17.4401C36.51 17.0101 34.75 17.9901 34.35 19.6301C34.28 19.9201 34.26 20.2101 34.28 20.4901C35.05 18.9001 36.98 18.0201 38.92 18.4901V18.4801Z" fill="#DFEAF0"/>
<path d="M36.81 27.0701C38.87 27.0701 40.54 25.4001 40.54 23.3401C40.54 21.2801 38.87 19.6101 36.81 19.6101C34.75 19.6101 33.08 21.2801 33.08 23.3401C33.08 25.4001 34.75 27.0701 36.81 27.0701Z" fill="#DDDFE5"/>
<path d="M37.14 26.6399C39.2 26.6399 40.87 24.97 40.87 22.9099C40.87 20.8499 39.2 19.1799 37.14 19.1799C35.08 19.1799 33.41 20.8499 33.41 22.9099C33.41 24.97 35.08 26.6399 37.14 26.6399Z" fill="#504C47"/>
<path d="M37.36 26.01C39.2267 26.01 40.74 24.4967 40.74 22.63C40.74 20.7633 39.2267 19.25 37.36 19.25C35.4933 19.25 33.98 20.7633 33.98 22.63C33.98 24.4967 35.4933 26.01 37.36 26.01Z" fill="#2F2D2A"/>
<path d="M38.1 23.0199C38.7462 23.0199 39.27 22.4961 39.27 21.8499C39.27 21.2038 38.7462 20.6799 38.1 20.6799C37.4538 20.6799 36.93 21.2038 36.93 21.8499C36.93 22.4961 37.4538 23.0199 38.1 23.0199Z" fill="white"/>
<path d="M36.28 24.1701C36.5064 24.1701 36.69 23.9865 36.69 23.7601C36.69 23.5337 36.5064 23.3501 36.28 23.3501C36.0536 23.3501 35.87 23.5337 35.87 23.7601C35.87 23.9865 36.0536 24.1701 36.28 24.1701Z" fill="white"/>
<path d="M23.68 43C23.68 43 24.59 44.74 28.11 44.91C32.24 45.11 31.34 40.7 33.26 41.52C34.66 42.12 36.77 41.84 36.77 41.84L37.09 43.25C37.09 43.25 34.94 43.34 34.16 43C34.16 43 32.58 42.6 32.15 44.11C31.72 45.62 30.3 45.84 28.76 45.8C28.76 45.8 24.89 45.65 23.68 43Z" fill="#DFEAF0"/>
<path d="M26.48 36.51C26.48 36.51 29.08 39.37 26.63 44.98C26.63 44.98 24.98 44.71 24.25 43.64L26.47 36.51H26.48Z" fill="#DFEAF0"/>
<path d="M43.09 48.5499C44.83 47.7399 46.11 43.6299 47.1 41.0199C47.71 39.0399 48.12 37.4899 48.12 37.4899C44.56 35.0799 36.2 40.5199 36.2 40.5199C36.2 40.5199 35.79 44.6299 35.92 46.5799C37.08 47.4499 40.24 49.8899 43.1 48.5599L43.09 48.5499Z" fill="white"/>
<path d="M42.78 47.88C39.93 49.21 37.07 47.45 35.91 46.58C35.94 47.04 36 47.37 36.1 47.51C37.35 49.22 42.27 49.89 43.48 49.36C44.51 48.91 46.07 44.35 47.1 41.02C46.12 43.63 44.53 47.07 42.79 47.88H42.78Z" fill="#DFEAF0"/>
<path d="M20.3226 46.1569C24.2654 46.0949 27.4117 42.8619 27.35 38.9356C27.2883 35.0093 24.042 31.8767 20.0992 31.9386C16.1564 32.0006 13.0101 35.2336 13.0718 39.1599C13.1334 43.0862 16.3797 46.2188 20.3226 46.1569Z" fill="#DFEAF0"/>
<path d="M19.6 45.7699C19.27 45.5099 18.94 45.1599 18.59 44.6999C17.69 44.3899 16.83 43.8799 16.05 43.1799C15.72 43.2899 15.32 43.3599 14.77 43.1999C15.7 44.6999 17.14 45.5999 19.15 45.9599L19.6 45.7699Z" fill="white"/>
<path d="M26.78 40.54C26.78 40.37 26.77 40.19 26.74 40.01C26.2 40.15 25.77 40.18 25.45 40.19C25.4 40.19 25.35 40.19 25.31 40.19C25.19 41.1 24.75 42.01 23.95 42.95C24.22 43.3 24.43 43.66 24.58 44.02C26.06 43.27 26.8 42.1 26.77 40.52L26.78 40.54Z" fill="#1A2C38"/>
<path d="M24.48 44.12C24.33 43.75 24.12 43.39 23.85 43.04C22.8 43.33 21.77 43.39 20.8 43.21C20.18 43.97 19.49 44.46 18.75 44.68C19.11 45.14 19.44 45.48 19.77 45.73C21.61 46.37 23.2 45.83 24.49 44.12H24.48Z" fill="white"/>
<path d="M26.63 41.9901C26.85 41.3901 26.91 40.6901 26.81 39.9201C27.04 39.2001 27.14 38.6401 27.15 38.1101C27.15 37.8601 27.13 37.6101 27.09 37.3601C27.47 38.9601 27.32 40.4801 26.64 41.9901H26.63Z" fill="white"/>
<path d="M15.19 44.0201C15 43.7501 14.82 43.4701 14.66 43.1801C14.35 42.8501 14.09 42.4701 13.83 42.1201C14.18 42.7501 14.6 43.4201 15.2 44.0201H15.19Z" fill="#1A2C38"/>
<path d="M13.54 37.96C13.53 37.86 13.52 37.76 13.52 37.66C13.52 37.19 13.61 36.73 13.8 36.28C13.8 36.27 13.81 36.25 13.82 36.24C13.82 36.22 13.84 36.2 13.85 36.18L13.87 36.12C13.97 35.92 14.08 35.72 14.22 35.52L14.27 35.45C14.62 34.96 15.1 34.47 15.69 33.99L16.18 35.23C15.49 36.07 15.03 37 14.81 37.99L13.55 37.95L13.54 37.96Z" fill="#1A2C38"/>
<path d="M27.08 38.0201C27.08 37.7001 27.03 37.3901 26.95 37.0701C26.88 36.8301 26.8 36.5801 26.71 36.3401C26.52 35.9501 26.18 35.5401 25.6 35.0001C25.05 34.8301 24.56 34.8401 24.14 35.0301C24.18 35.2501 24.2 35.4801 24.21 35.7101C24.21 36.3001 24.11 36.8801 23.87 37.5101C24.62 38.3101 25.09 39.1501 25.32 40.0701C25.36 40.0701 25.41 40.0701 25.46 40.0701C25.78 40.0501 26.21 40.0201 26.76 39.8801C27 39.1301 27.09 38.5801 27.08 38.0401V38.0201Z" fill="white"/>
<path d="M16.15 33.3601C15.66 33.7101 15.29 34.0601 14.97 34.4501C14.97 34.4501 14.99 34.4301 15 34.4201C15.21 34.2201 15.43 34.0201 15.68 33.8301C15.79 33.7101 15.9 33.6001 16.02 33.4901C16.07 33.4501 16.11 33.4001 16.16 33.3601H16.15Z" fill="white"/>
<path d="M16.2 40.5901C15.48 39.8801 15.01 39.0501 14.8 38.1301L13.52 38.0901C13.32 38.6701 13.22 39.2401 13.23 39.7901C13.25 40.9301 13.73 42.0201 14.66 43.0201C15.24 43.2301 15.65 43.1601 15.99 43.0601C15.94 42.8201 15.91 42.5701 15.91 42.3101C15.91 41.7601 16 41.1801 16.21 40.5901H16.2Z" fill="white"/>
<path d="M25.7 43.46C25.39 43.74 25.02 43.98 24.6 44.19C24.27 44.64 23.91 45.01 23.53 45.3C24.39 44.84 25.11 44.23 25.7 43.46Z" fill="white"/>
<path d="M21.03 32C20.73 31.95 20.45 31.94 20.19 31.95C20.32 31.97 20.46 32.01 20.59 32.04C20.72 32.02 20.87 32 21.04 32H21.03Z" fill="#004249"/>
<path d="M26.38 35.6099C26.16 35.1999 25.87 34.7599 25.56 34.3999L25.69 34.8999C25.97 35.1599 26.19 35.3899 26.38 35.6099Z" fill="#1A2C38"/>
<path d="M20.82 46.0599C20.47 46.0499 20.1 45.9899 19.72 45.8799L19.37 46.0199C19.77 46.0799 20.29 46.1299 20.82 46.0599Z" fill="#1A2C38"/>
<path d="M13.4 37.29C13.22 37.88 13.14 38.45 13.15 39.04C13.2 38.7 13.29 38.36 13.41 38.01C13.4 37.89 13.39 37.78 13.39 37.66C13.39 37.54 13.39 37.41 13.4 37.29Z" fill="white"/>
<path d="M25.37 34.1899C24.29 33.1499 23.23 32.5099 22.14 32.2399L22.08 32.2299H22.06C21.62 32.1199 21.16 32.0799 20.7 32.0999C21.05 32.4899 21.29 32.9199 21.41 33.4199C22.4 33.7299 23.29 34.2299 24.06 34.8999C24.49 34.6999 24.98 34.6799 25.53 34.8299L25.36 34.1799L25.37 34.1899Z" fill="white"/>
<path d="M24.07 35.7001C24.07 35.4701 24.04 35.2401 24 35.0201C23.25 34.3501 22.36 33.85 21.38 33.55C20.69 33.9 20.04 34.4201 19.4 35.1301L20.86 37.57C21.84 37.72 22.8 37.6801 23.74 37.4501C23.97 36.8401 24.08 36.26 24.07 35.69V35.7001Z" fill="#1A2C38"/>
<path d="M19.27 35.1899C18.24 34.9199 17.26 34.9599 16.3 35.2999C15.61 36.1399 15.15 37.0699 14.93 38.0599C15.13 38.9699 15.6 39.7899 16.31 40.4999H19.25C19.81 39.5699 20.31 38.6099 20.74 37.6399L19.28 35.1799L19.27 35.1899Z" fill="white"/>
<path d="M20.69 43.1199C20.29 42.2899 19.81 41.4499 19.25 40.6399H16.32C16.12 41.2099 16.03 41.7699 16.03 42.2999C16.03 42.5599 16.06 42.8099 16.12 43.0599C16.89 43.7499 17.73 44.2599 18.63 44.5599C19.38 44.3599 20.07 43.8799 20.69 43.1099V43.1199Z" fill="#1A2C38"/>
<path d="M16.29 35.1601L15.79 33.9001C16.29 33.3601 16.83 32.9301 17.38 32.6201C17.54 32.5301 17.72 32.4501 17.89 32.3701H17.91C18.41 32.1501 18.91 32.0301 19.42 32.0101H19.5C19.84 32.0001 20.19 32.0401 20.52 32.1201C20.9 32.5101 21.15 32.9401 21.28 33.4601C20.76 33.7301 20.26 34.0901 19.78 34.5501C19.62 34.7101 19.45 34.8801 19.29 35.0601C18.25 34.7901 17.27 34.8301 16.29 35.1701V35.1601Z" fill="white"/>
<path d="M25.19 40.1401C24.98 39.2201 24.51 38.3901 23.76 37.5901C22.81 37.8201 21.83 37.8601 20.85 37.7101C20.42 38.6701 19.92 39.6301 19.37 40.5701C19.93 41.3901 20.42 42.2301 20.82 43.0701C21.78 43.2501 22.79 43.2001 23.84 42.9001C24.65 41.9501 25.09 41.0401 25.2 40.1401H25.19Z" fill="white"/>
</g>
<path fill-rule="evenodd" clip-rule="evenodd" d="M6.49771 79C6.98969 79 7.48602 79.213 7.49037 79.6913C7.49037 80.1043 7.24656 80.2696 6.99839 80.2696C6.75023 80.2696 6.73281 80.1435 6.73281 80.1435C6.73281 80.1435 7.02452 79.9261 7.02452 79.7174C7.02452 79.6087 6.94179 79.313 6.489 79.3174C5.8577 79.3174 5.5181 79.6174 5.5181 80.1522C5.5181 80.7652 7.35105 80.9739 7.3554 81.7652C7.3554 82.613 6.47594 82.9957 5.69225 83C5.283 83 5.01306 82.7609 5.00871 82.3783C5.00871 81.9261 5.22204 81.4652 5.75756 81.4652C5.88382 81.4565 5.98831 81.5522 5.99702 81.6783C5.99702 81.6783 5.99702 81.6826 5.99702 81.687C5.99702 81.687 5.45715 81.8391 5.4615 82.3783C5.4615 82.4783 5.56599 82.6609 5.81851 82.6565C6.07103 82.6522 6.82424 82.4739 6.81989 81.8087C6.81989 81.1913 5.00435 81.1087 5 80.1478C5 79.0652 6.08845 79.0087 6.49771 79.0087V79ZM10.747 79.6C10.8123 79.5696 11.2129 79.4913 11.1955 79.813C11.1824 80.1348 10.9386 80.6913 10.9037 80.9348C11.2303 80.7696 11.6918 80.2087 11.6918 80.2087C11.6918 80.2087 12.0183 80.2522 11.9182 80.4522C11.818 80.6522 11.1519 81.1435 11.1519 81.1435C11.1519 81.1435 11.3043 82.5696 12.1707 82.5696C12.6453 82.5696 12.8499 82.3609 12.937 82.287C12.9587 82.2696 12.9762 82.2652 12.9849 82.2783C13.0197 82.387 12.9936 82.5043 12.9152 82.5913C12.8194 82.6957 12.5974 82.8217 12.1533 82.8261C11.3653 82.8261 10.9255 82.1957 10.8123 81.2609C10.7252 81.5348 10.7339 81.9826 10.7209 82.2C10.6948 82.2435 10.2507 82.4174 10.2158 82.1174C10.2158 82.0913 10.2158 82.0696 10.2158 82.0435C10.1331 82.1609 10.0199 82.2826 9.91108 82.2826C9.71951 82.2826 9.63679 82.1217 9.60196 82.0391C9.57584 82.0696 9.3625 82.287 9.08821 82.287C8.92277 82.2913 8.77474 82.1957 8.70943 82.0435C8.57011 82.1435 8.32195 82.2913 8.03895 82.2913C7.73418 82.2913 7.66017 82.1087 7.66017 81.9565C7.66017 81.713 7.84303 80.987 7.84303 80.987C7.84303 80.987 7.48602 81.1304 7.36411 81.1348C7.19431 81.1348 7.11159 80.8217 7.11159 80.813C7.11159 80.8087 7.11159 80.8 7.1203 80.8C7.22044 80.7609 7.94317 80.513 7.94317 80.513C7.94317 80.513 8.07813 79.9826 8.09555 79.913C8.11296 79.8435 8.2131 79.7 8.33065 79.6565C8.41773 79.6217 8.50916 79.6 8.60059 79.5913C8.63107 79.5913 8.65284 79.6 8.65284 79.6174C8.65284 79.6348 8.47433 80.4087 8.47433 80.4087C8.47433 80.4087 8.84876 80.3217 8.98808 80.3217C9.09692 80.3217 9.15352 80.387 9.09257 80.4696C9.03162 80.5522 8.96196 80.6478 8.92712 80.6913C8.88794 80.7348 8.86182 80.7435 8.77039 80.7609C8.64413 80.787 8.36113 80.8565 8.36113 80.8565C8.36113 80.8565 8.13473 81.6783 8.13909 81.8174C8.13909 81.8957 8.16521 81.987 8.26099 81.987C8.35678 81.987 8.53964 81.8739 8.67025 81.7913C8.69202 81.1522 9.18835 80.7261 9.57584 80.7261C9.7021 80.7261 9.65421 80.8478 9.79788 80.8478H9.88931C9.94591 80.8478 10.0069 80.8522 10.0069 80.9957C10.0069 81.1957 9.89367 81.5261 9.89367 81.7348C9.89367 81.8826 9.91544 81.987 9.97204 81.987C10.0678 81.987 10.1767 81.8478 10.255 81.7261C10.3813 81.0304 10.734 79.7609 10.734 79.6174L10.747 79.6ZM12.5016 80.7C12.7672 80.6783 12.9326 80.8217 12.9631 80.9C12.9936 80.9783 12.9892 81.1609 12.9152 81.2913C12.6845 81.7044 12.1097 81.6304 12.1097 81.6304C12.1097 81.6304 12.0444 81.9565 12.3405 81.9565C12.593 81.9565 12.7062 81.8304 12.8151 81.7261C12.8586 81.7261 12.9936 81.8652 12.9326 81.9609C12.8847 82.0348 12.6191 82.2565 12.2795 82.2609C11.7397 82.2609 11.6047 81.8 11.6744 81.4696C11.7658 81.0609 12.1751 80.7217 12.5016 80.6957V80.7ZM9.6455 80.987C9.32332 80.987 8.82699 81.9696 9.20577 81.9652C9.61938 81.9652 9.6455 81.1826 9.6455 81.0043V80.987ZM12.6409 80.8913C12.4232 80.9 12.1751 81.3174 12.1533 81.5C12.4798 81.513 12.654 81.1957 12.6757 81.0696C12.6888 80.9739 12.6932 80.887 12.6409 80.887V80.8913Z" fill="#557086"/>
<path d="M51.1444 79.3778L51.6412 80.278L52.6519 80.4733C52.7792 80.4988 52.8302 80.6559 52.741 80.7494L52.0361 81.5009L52.1635 82.5243C52.1805 82.6559 52.0446 82.7494 51.93 82.6942L51 82.2568L50.0701 82.6942C49.9512 82.7494 49.8196 82.6517 49.8366 82.5243L49.964 81.5009L49.2591 80.7494C49.1699 80.6559 49.2209 80.4988 49.3482 80.4733L50.3589 80.278L50.8557 79.3778C50.9194 79.2632 51.085 79.2632 51.1444 79.3778Z" fill="#FFC200"/>
<path d="M51 79.2929C51.0552 79.2929 51.1147 79.3226 51.1444 79.3778L51.6412 80.278L52.6519 80.4733C52.7792 80.4988 52.8302 80.6559 52.741 80.7494L52.0361 81.5009L52.1635 82.5243C52.1763 82.6262 52.0955 82.7111 51.9979 82.7111C51.9766 82.7111 51.9512 82.7069 51.9257 82.6942L50.9958 82.2568L50.0658 82.6942C50.0403 82.7069 50.0191 82.7111 49.9936 82.7111C49.9002 82.7111 49.8153 82.6262 49.828 82.5243L49.9554 81.5009L49.2505 80.7494C49.1614 80.6559 49.2123 80.4988 49.3397 80.4733L50.3503 80.278L50.8471 79.3778C50.8769 79.3226 50.9363 79.2929 50.9915 79.2929M51 79.0806C50.8641 79.0806 50.7367 79.157 50.6688 79.2759L50.2187 80.0912L49.3057 80.2653C49.1699 80.2908 49.0594 80.3884 49.017 80.5201C48.9745 80.6517 49.0085 80.7961 49.1019 80.8937L49.7389 81.5731L49.6242 82.4946C49.6115 82.6007 49.6454 82.7111 49.7134 82.7918C49.7856 82.8725 49.8875 82.9192 49.9979 82.9192C50.0531 82.9192 50.1083 82.9065 50.1592 82.881L51 82.4861L51.8408 82.881C51.8917 82.9065 51.9469 82.9192 52.0021 82.9192C52.1125 82.9192 52.2144 82.8725 52.2866 82.7918C52.3588 82.7111 52.3928 82.6007 52.3758 82.4946L52.2611 81.5731L52.8981 80.8937C52.9915 80.7918 53.0255 80.6474 52.983 80.5201C52.9406 80.3884 52.8301 80.2908 52.6943 80.2653L51.7813 80.0912L51.3312 79.2759C51.2633 79.157 51.1359 79.0806 51 79.0806Z" fill="#213743"/>
<path d="M51 79.8152V80.9744C51 81.0678 51.0892 81.1315 51.1784 81.106L52.2187 80.7706C52.2739 80.7536 52.2697 80.6729 52.2102 80.6602L51.5563 80.5413C51.4969 80.5286 51.4417 80.4903 51.4119 80.4351L51.085 79.7939C51.0637 79.7515 50.9958 79.7642 50.9958 79.8152H51Z" fill="#FFEBB8"/>
<path d="M51 81.4924V82.0699C51 82.1039 51.017 82.1294 51.0467 82.1464L51.7983 82.5073C51.8366 82.5243 51.8705 82.4818 51.845 82.4479L51.0935 81.4627C51.0637 81.4245 51 81.4457 51 81.4924Z" fill="#FF7F00"/>
<path d="M56.1444 79.3778L56.6412 80.278L57.6519 80.4733C57.7792 80.4988 57.8302 80.6559 57.741 80.7494L57.0361 81.5009L57.1635 82.5243C57.1805 82.6559 57.0446 82.7494 56.93 82.6942L56 82.2568L55.0701 82.6942C54.9512 82.7494 54.8196 82.6517 54.8366 82.5243L54.964 81.5009L54.2591 80.7494C54.1699 80.6559 54.2209 80.4988 54.3482 80.4733L55.3589 80.278L55.8557 79.3778C55.9194 79.2632 56.085 79.2632 56.1444 79.3778Z" fill="#FFC200"/>
<path d="M56 79.2929C56.0552 79.2929 56.1147 79.3226 56.1444 79.3778L56.6412 80.278L57.6519 80.4733C57.7792 80.4988 57.8302 80.6559 57.741 80.7494L57.0361 81.5009L57.1635 82.5243C57.1763 82.6262 57.0955 82.7111 56.9979 82.7111C56.9766 82.7111 56.9512 82.7069 56.9257 82.6942L55.9958 82.2568L55.0658 82.6942C55.0403 82.7069 55.0191 82.7111 54.9936 82.7111C54.9002 82.7111 54.8153 82.6262 54.828 82.5243L54.9554 81.5009L54.2505 80.7494C54.1614 80.6559 54.2123 80.4988 54.3397 80.4733L55.3503 80.278L55.8471 79.3778C55.8769 79.3226 55.9363 79.2929 55.9915 79.2929M56 79.0806C55.8641 79.0806 55.7367 79.157 55.6688 79.2759L55.2187 80.0912L54.3057 80.2653C54.1699 80.2908 54.0594 80.3884 54.017 80.5201C53.9745 80.6517 54.0085 80.7961 54.1019 80.8937L54.7389 81.5731L54.6242 82.4946C54.6115 82.6007 54.6454 82.7111 54.7134 82.7918C54.7856 82.8725 54.8875 82.9192 54.9979 82.9192C55.0531 82.9192 55.1083 82.9065 55.1592 82.881L56 82.4861L56.8408 82.881C56.8917 82.9065 56.9469 82.9192 57.0021 82.9192C57.1125 82.9192 57.2144 82.8725 57.2866 82.7918C57.3588 82.7111 57.3928 82.6007 57.3758 82.4946L57.2611 81.5731L57.8981 80.8937C57.9915 80.7918 58.0255 80.6474 57.983 80.5201C57.9406 80.3884 57.8301 80.2908 57.6943 80.2653L56.7813 80.0912L56.3312 79.2759C56.2633 79.157 56.1359 79.0806 56 79.0806Z" fill="#213743"/>
<path d="M56 79.8152V80.9744C56 81.0678 56.0892 81.1315 56.1784 81.106L57.2187 80.7706C57.2739 80.7536 57.2697 80.6729 57.2102 80.6602L56.5563 80.5413C56.4969 80.5286 56.4417 80.4903 56.4119 80.4351L56.085 79.7939C56.0637 79.7515 55.9958 79.7642 55.9958 79.8152H56Z" fill="#FFEBB8"/>
<path d="M56 81.4924V82.0699C56 82.1039 56.017 82.1294 56.0467 82.1464L56.7983 82.5073C56.8366 82.5243 56.8705 82.4818 56.845 82.4479L56.0935 81.4627C56.0637 81.4245 56 81.4457 56 81.4924Z" fill="#FF7F00"/>
<rect x="13" y="62" width="37" height="13" rx="6.5" fill="#2F4553"/>
<path d="M29.9644 70.072C29.1004 70.072 28.2664 69.73 28.2664 68.944C28.2664 68.488 28.6144 68.116 29.0764 67.936C28.6504 67.774 28.3324 67.486 28.3324 67.006C28.3324 66.232 29.1784 65.938 29.9644 65.938C30.7444 65.938 31.5964 66.232 31.5964 67.006C31.5964 67.486 31.2724 67.774 30.8464 67.936C31.3084 68.116 31.6564 68.488 31.6564 68.944C31.6564 69.724 30.8284 70.072 29.9644 70.072ZM29.9644 67.534C30.2104 67.498 30.5404 67.372 30.5404 67.156C30.5404 66.934 30.3064 66.796 29.9644 66.796C29.6104 66.796 29.3824 66.934 29.3824 67.156C29.3824 67.372 29.7184 67.498 29.9644 67.534ZM29.9644 69.214C30.3364 69.214 30.6124 69.058 30.6124 68.824C30.6124 68.578 30.2164 68.434 29.9644 68.404C29.7064 68.434 29.3164 68.578 29.3164 68.824C29.3164 69.058 29.5804 69.214 29.9644 69.214ZM34.9273 70H33.9133L33.3553 69.124L32.7913 70H31.7833L32.7733 68.512L31.8433 67.102H32.8573L33.3553 67.888L33.8473 67.102H34.8613L33.9373 68.512L34.9273 70Z" fill="white"/>
<path d="M8.03 11H7.215L6.56 9.815H6.04V11H5.33V7.665H6.89C7.585 7.665 8.01 8.12 8.01 8.74C8.01 9.33 7.64 9.645 7.28 9.73L8.03 11ZM6.785 9.19C7.07 9.19 7.285 9.02 7.285 8.74C7.285 8.46 7.07 8.29 6.785 8.29H6.04V9.19H6.785ZM10.5152 11H9.88023V10.75C9.71523 10.945 9.43023 11.06 9.11523 11.06C8.73023 11.06 8.27523 10.8 8.27523 10.26C8.27523 9.695 8.73023 9.48 9.11523 9.48C9.43523 9.48 9.72023 9.585 9.88023 9.775V9.45C9.88023 9.205 9.67023 9.045 9.35023 9.045C9.09023 9.045 8.85023 9.14 8.64523 9.33L8.40523 8.905C8.70023 8.645 9.08023 8.525 9.46023 8.525C10.0102 8.525 10.5152 8.745 10.5152 9.44V11ZM9.37023 10.63C9.57523 10.63 9.77523 10.56 9.88023 10.42V10.12C9.77523 9.98 9.57523 9.91 9.37023 9.91C9.12023 9.91 8.91523 10.04 8.91523 10.275C8.91523 10.5 9.12023 10.63 9.37023 10.63ZM11.7801 11H11.1451V8.585H11.7801V8.915C11.9501 8.7 12.2501 8.525 12.5501 8.525V9.145C12.5051 9.135 12.4451 9.13 12.3751 9.13C12.1651 9.13 11.8851 9.25 11.7801 9.405V11ZM14.0818 11.06C13.3468 11.06 12.7918 10.565 12.7918 9.79C12.7918 9.09 13.3068 8.525 14.0418 8.525C14.7618 8.525 15.2518 9.065 15.2518 9.855V9.995H13.4568C13.4968 10.3 13.7418 10.555 14.1518 10.555C14.3568 10.555 14.6418 10.465 14.7968 10.315L15.0768 10.725C14.8368 10.945 14.4568 11.06 14.0818 11.06ZM14.6368 9.565C14.6218 9.335 14.4618 9.03 14.0418 9.03C13.6468 9.03 13.4768 9.325 13.4468 9.565H14.6368Z" fill="#05080A"/>
<path d="M49.596 11H49.144L47.752 9.096V11H47.284V8.332H47.764L49.128 10.184V8.332H49.596V11ZM51.0229 11.048C50.4109 11.048 50.0309 10.588 50.0309 10.032C50.0309 9.48 50.4109 9.02 51.0229 9.02C51.6429 9.02 52.0189 9.48 52.0189 10.032C52.0189 10.588 51.6429 11.048 51.0229 11.048ZM51.0229 10.676C51.3829 10.676 51.5829 10.376 51.5829 10.032C51.5829 9.692 51.3829 9.392 51.0229 9.392C50.6669 9.392 50.4669 9.692 50.4669 10.032C50.4669 10.376 50.6669 10.676 51.0229 10.676ZM52.6403 11.044C52.4883 11.044 52.3603 10.916 52.3603 10.764C52.3603 10.612 52.4883 10.484 52.6403 10.484C52.7923 10.484 52.9203 10.612 52.9203 10.764C52.9203 10.916 52.7923 11.044 52.6403 11.044ZM56.0122 11H55.5442V10.396H54.2722V10.02L55.3682 8.332H56.0122V9.984H56.3682V10.396H56.0122V11ZM55.5442 9.984V8.752L54.7322 9.984H55.5442ZM57.7165 11H57.2485V8.94L56.8125 9.392L56.5405 9.108L57.3085 8.332H57.7165V11Z" fill="white"/>
<defs>
<linearGradient id="paint0_linear_26835_29204" x1="31.5" y1="12.68" x2="31.5" y2="60.39" gradientUnits="userSpaceOnUse">
<stop stop-color="#2F4553"/>
<stop offset="1" stop-color="#1CE61C"/>
</linearGradient>
<clipPath id="clip0_26835_29204">
<rect width="63" height="88" fill="white"/>
</clipPath>
</defs>
</svg>
