<svg width="63" height="88" viewBox="0 0 63 88" fill="none" xmlns="http://www.w3.org/2000/svg">
<rect width="63" height="88" rx="4" fill="#1CE61C"/>
<path d="M36.7008 13.5133L44.7992 3.48665C45.5586 2.54645 46.7024 2 47.911 2H58C59.6569 2 61 3.34314 61 5V83C61 84.6569 59.6569 86 58 86H5C3.34315 86 2 84.6569 2 83V18C2 16.3431 3.34315 15 5 15H33.589C34.7976 15 35.9414 14.4536 36.7008 13.5133Z" fill="#213743"/>
<mask id="mask0_26835_29205" style="mask-type:luminance" maskUnits="userSpaceOnUse" x="0" y="0" width="63" height="88">
<path d="M59 0H4C1.79 0 0 1.79 0 4V84C0 86.21 1.79 88 4 88H59C61.21 88 63 86.21 63 84V4C63 1.79 61.21 0 59 0ZM61 82.81C61 84.57 59.57 86 57.81 86H5.19C3.43 86 2 84.57 2 82.81V18.19C2 16.43 3.43 15 5.19 15H33.59C34.8 15 35.94 14.45 36.7 13.51L44.8 3.48C45.56 2.54 46.7 1.99 47.91 1.99H57.81C59.57 1.99 61 3.42 61 5.18V82.8V82.81Z" fill="white"/>
</mask>
<g mask="url(#mask0_26835_29205)">
<path d="M68.37 47.3199V26.6399L4.46 90.5499H25.13L68.37 47.3199Z" fill="white"/>
<path d="M64.66 -2.29004H55.22L-2.92 55.84V66.18L65.46 -2.20004C65.2 -2.26004 64.93 -2.29004 64.66 -2.29004Z" fill="white"/>
<path d="M68.37 69.23V61.55L39.37 90.55H47.05L68.37 69.23Z" fill="white"/>
</g>
<rect x="5" y="18" width="53" height="40" rx="1" fill="#2F4553"/>
<g clip-path="url(#clip0_26835_29205)">
<path d="M58 19V57C58 57.55 57.55 58 57 58H6C5.44 58 5 57.55 5 57V19C5 18.45 5.44 18 6 18H57C57.55 18 58 18.45 58 19Z" fill="url(#paint0_linear_26835_29205)"/>
<path d="M44.49 23.05C47.86 23.05 48.59 27.86 47.53 32.24C46.36 37.07 40.11 38.76 38.13 38.76C36.15 38.76 43.9 34.09 43.38 31.62C43.27 31.1 40.24 23.04 44.49 23.04V23.05Z" fill="white"/>
<path d="M27.55 17.4502C27.46 17.4502 27.37 17.4202 27.3 17.3602L25.49 15.9602C25.37 15.8602 25.31 15.7102 25.33 15.5502C25.36 15.4002 25.47 15.2702 25.62 15.2302L27.13 14.7602L25.76 13.5702C25.59 13.4202 25.57 13.1502 25.72 12.9802C25.87 12.8102 26.14 12.7902 26.31 12.9402L28.26 14.6202C28.38 14.7202 28.43 14.8702 28.4 15.0202C28.37 15.1702 28.26 15.2902 28.11 15.3302L26.65 15.7802L27.82 16.6902C28 16.8302 28.04 17.0902 27.89 17.2802C27.81 17.3902 27.68 17.4402 27.56 17.4402L27.55 17.4502Z" fill="white"/>
<path d="M25.83 13.9101C26.2663 13.9101 26.62 13.5564 26.62 13.1201C26.62 12.6838 26.2663 12.3301 25.83 12.3301C25.3937 12.3301 25.04 12.6838 25.04 13.1201C25.04 13.5564 25.3937 13.9101 25.83 13.9101Z" fill="white"/>
<path d="M22.33 19.9C22.33 19.9 17.13 15.51 15.84 16.64C15.58 18.33 15.46 22.71 19.91 26.87C21.35 24.04 22.33 19.9 22.33 19.9Z" fill="white"/>
<path d="M15.84 16.6401C15.75 16.7201 15.68 16.8201 15.63 16.9501C14.87 19.0101 17.43 29.4501 17.43 29.4501C18.33 29.4101 19.18 28.3101 19.91 26.8601C15.92 20.9501 15.79 17.5001 15.84 16.6301V16.6401Z" fill="#E8F1F7"/>
<path d="M41.8001 26.5607C40.5208 19.8161 34.0162 15.3855 27.2715 16.6648C20.5269 17.9441 16.0963 24.4488 17.3756 31.1935L18.8143 38.7782C20.0935 45.5229 26.5982 49.9534 33.3429 48.6741C40.0875 47.3948 44.5181 40.8902 43.2388 34.1455L41.8001 26.5607Z" fill="white"/>
<path d="M40.28 23.5901C40.28 23.5901 38.71 14.3001 37.35 13.2201C35.99 12.1401 33.61 17.7601 33.61 17.7601C33.61 17.7601 37.02 23.6301 40.27 23.5901H40.28Z" fill="white"/>
<path d="M33.64 31.7701C33.64 31.7701 31.35 31.9701 30.71 32.7601C30.07 33.5501 29.04 31.4201 32.76 30.3901C35.56 29.6201 36.47 31.1001 36.16 31.6801C35.85 32.2601 35.07 31.6201 33.63 31.7701H33.64Z" fill="#071D2A"/>
<path d="M35.55 29.4102L35.68 30.2302C35.72 30.4802 35.58 30.7302 35.34 30.8302C35.3 30.8502 35.27 30.8602 35.23 30.8702C35.18 30.7002 35.01 30.5902 34.83 30.6202C34.63 30.6502 34.5 30.8402 34.53 31.0302C34.53 31.0602 34.54 31.0902 34.56 31.1202C33.28 31.5402 31.98 31.7002 30.67 31.5902C30.42 31.5702 30.21 31.3802 30.17 31.1302L30.04 30.3002C31.99 30.5402 33.83 30.2602 35.55 29.4202V29.4102Z" fill="white"/>
<path d="M29.87 19.2902C29.1 19.5602 28.44 19.9802 27.91 20.5102C28.29 19.3802 29.21 18.4102 30.49 17.9602C32.59 17.2202 34.84 18.1902 35.51 20.1102C35.63 20.4502 35.69 20.7902 35.7 21.1402C34.58 19.3202 32.15 18.4902 29.88 19.2902H29.87Z" fill="#E8F1F7"/>
<path d="M32.09 28.6901C34.5863 28.6901 36.61 26.6665 36.61 24.1701C36.61 21.6738 34.5863 19.6501 32.09 19.6501C29.5937 19.6501 27.57 21.6738 27.57 24.1701C27.57 26.6665 29.5937 28.6901 32.09 28.6901Z" fill="#E4E6EC"/>
<path d="M31.64 28.2102C34.1363 28.2102 36.16 26.1865 36.16 23.6902C36.16 21.1938 34.1363 19.1702 31.64 19.1702C29.1437 19.1702 27.12 21.1938 27.12 23.6902C27.12 26.1865 29.1437 28.2102 31.64 28.2102Z" fill="#213743"/>
<path d="M31.35 27.47C33.6088 27.47 35.44 25.6389 35.44 23.38C35.44 21.1212 33.6088 19.29 31.35 19.29C29.0912 19.29 27.26 21.1212 27.26 23.38C27.26 25.6389 29.0912 27.47 31.35 27.47Z" fill="#071D2A"/>
<path d="M33.08 25.8002C33.8587 25.8002 34.49 25.1689 34.49 24.3902C34.49 23.6115 33.8587 22.9802 33.08 22.9802C32.3013 22.9802 31.67 23.6115 31.67 24.3902C31.67 25.1689 32.3013 25.8002 33.08 25.8002Z" fill="white"/>
<path d="M29.64 24.5401C29.9106 24.5401 30.13 24.3207 30.13 24.0501C30.13 23.7794 29.9106 23.5601 29.64 23.5601C29.3694 23.5601 29.15 23.7794 29.15 24.0501C29.15 24.3207 29.3694 24.5401 29.64 24.5401Z" fill="white"/>
<path d="M18.93 39.4402C18.93 39.4402 23.29 56.1302 24.57 56.9102C25.85 57.6902 31.71 56.5502 33.01 54.9402C34.16 53.5302 32.97 47.8702 32.97 47.8702L18.93 39.4402Z" fill="white"/>
<path d="M43.24 34.1501C43.24 34.1501 47.19 49.1201 46.32 50.5901C45.45 52.0601 39 54.1401 38.02 53.4701C37.04 52.8001 34.8 47.2801 34.8 47.2801L43.24 34.1501Z" fill="white"/>
<path d="M27.26 39.9201C27.26 39.9201 31.64 41.1601 36.95 38.7601C42.26 36.3701 36.51 34.3501 36.51 34.3501L27.26 39.9101V39.9201Z" fill="#E8F1F7"/>
<path d="M58 39.71V57C58 57.55 57.55 58 57 58H6C5.44 58 5 57.55 5 57V39.71H58Z" fill="#047BFF"/>
<path d="M36.3 52.4001L19.91 44.2701L24.87 39.9001H43.74L36.3 52.4001Z" fill="url(#paint1_linear_26835_29205)"/>
<path d="M40.39 41.27L36.71 45.64V52.66L40.39 47.25V41.27Z" fill="#1A2C38"/>
<path d="M38.97 43.81L38.87 43.73C38.87 43.73 38.84 43.74 38.82 43.79L38.72 44.1C38.72 44.1 38.71 44.19 38.72 44.2L38.82 44.28C38.82 44.28 38.85 44.27 38.87 44.22L38.97 43.91C38.97 43.91 38.98 43.82 38.97 43.81Z" fill="#341F2F"/>
<path d="M38.58 44.4499V44.8599C38.58 44.8599 38.6 44.8799 38.61 44.8499L38.7 44.5599C38.7 44.5599 38.71 44.4699 38.7 44.4599L38.61 44.3799C38.61 44.3799 38.58 44.4099 38.58 44.4399" fill="#341F2F"/>
<path d="M39.05 44.3499L39.15 44.0399C39.15 44.0399 39.16 43.9499 39.15 43.9399L39.05 43.8599C39.05 43.8599 39.02 43.8699 39 43.9199L38.9 44.2299C38.9 44.2299 38.89 44.3199 38.9 44.3299L39 44.4099C39 44.4099 39.03 44.3999 39.05 44.3499Z" fill="#341F2F"/>
<path d="M38.83 44.4699L38.73 44.7799C38.73 44.7799 38.72 44.8699 38.73 44.8799L38.83 44.9599C38.83 44.9599 38.86 44.9499 38.88 44.8999L38.98 44.5899C38.98 44.5899 38.99 44.4999 38.98 44.4899L38.88 44.4099C38.88 44.4099 38.85 44.4199 38.83 44.4699Z" fill="#341F2F"/>
<path d="M39.42 43.2599L39.47 43.2999C39.47 43.2999 39.47 43.3199 39.47 43.3399C39.47 43.3499 39.42 43.5199 39.42 43.6499C39.42 43.7799 39.47 43.8099 39.53 43.7399C39.59 43.6699 39.64 43.5299 39.64 43.3799V43.0899C39.64 43.0899 39.66 43.0099 39.67 42.9899L39.95 42.6599C39.95 42.6599 39.97 42.6599 39.97 42.6799V43.2899C39.97 43.2899 39.97 43.3399 39.95 43.3499L39.89 43.4299C39.89 43.4299 39.87 43.4299 39.87 43.4099V42.9799L39.74 43.1299V43.2899C39.74 43.5599 39.65 43.8299 39.53 43.9799C39.41 44.1299 39.31 44.0399 39.31 43.7699C39.31 43.5699 39.36 43.3799 39.39 43.2999C39.4 43.2599 39.41 43.2499 39.42 43.2599Z" fill="#341F2F"/>
<path d="M40.39 41.3601L46 43.1601C46.23 43.2301 46.38 43.4401 46.38 43.6801V49.1001L40.39 47.2501V41.3601Z" fill="#1A2C38"/>
<path d="M36.71 45.64L46.04 43.29C46.21 43.25 46.38 43.38 46.38 43.56V49.1C46.38 49.34 46.23 49.55 46 49.62L36.66 52.66C36.48 52.72 36.3 52.59 36.3 52.4V46.17C36.3 45.92 36.47 45.7 36.71 45.64Z" fill="white"/>
<path d="M42.48 47.0701C42.92 47.0501 43.16 44.9501 43.16 44.9501L42.84 44.0901L40.74 44.6201C40.74 44.6201 42.04 47.0901 42.48 47.0601V47.0701Z" fill="#FFEBB8"/>
<path d="M36.85 46.1699L45.82 43.9199V49.0999L36.85 52.0099V46.1699Z" fill="#FFC201"/>
<path d="M42.48 47.0699C42.92 47.0499 43.16 44.9499 43.16 44.9499L43.04 44.6099L41.02 45.1199C41.43 45.8399 42.17 47.0799 42.48 47.0699Z" fill="#F87915"/>
<path d="M37.12 35.79L46.43 35.26L45.28 40.46L39.14 40.75L36.89 36.19C36.8 36.02 36.92 35.81 37.12 35.8V35.79Z" fill="#1A2C38"/>
<path d="M44.76 38.64L46.43 35.25V40.23C46.43 40.53 46.38 40.83 46.28 41.11L44.83 45.16C44.78 45.29 44.59 45.26 44.58 45.12L44.49 39.84C44.49 39.43 44.57 39.02 44.76 38.64Z" fill="#FFEBB8"/>
<path d="M45.01 39L46.2 36.2V40.18C46.2 40.46 46.15 40.73 46.06 40.99L45.07 43.56C45.03 43.68 44.85 43.65 44.84 43.52L44.76 40.09C44.76 39.71 44.84 39.33 45.01 38.99V39Z" fill="#FFC201"/>
<path d="M36.89 35.96L44.48 39.21C44.78 39.34 44.98 39.64 44.98 39.97V45.57C44.98 45.77 44.77 45.9 44.59 45.82L36.99 42.41C36.69 42.28 36.5 41.98 36.5 41.66V36.22C36.5 36.02 36.7 35.89 36.88 35.97L36.89 35.96Z" fill="white"/>
<path d="M36.89 35.96C36.71 35.88 36.51 36.02 36.51 36.21V40.52L41.66 38L36.9 35.96H36.89Z" fill="#FFEBB8"/>
<path d="M37.22 41.8899C37.12 41.8499 37.06 41.7499 37.06 41.6399V36.6299L44.26 39.7099C44.36 39.7499 44.42 39.8499 44.42 39.9599V45.1299L37.22 41.8999V41.8899Z" fill="#FFC201"/>
<path d="M41 38.3199L37.07 36.6299V40.2499L41 38.3199Z" fill="#F87915"/>
<path d="M46.91 31.48V36.52L38.72 34.92V28.46L46.52 30.96C46.75 31.03 46.9 31.24 46.9 31.48H46.91Z" fill="#1A2C38"/>
<path d="M37.88 31.98L38.72 28.46V34.92L37.8 38.49V32.65C37.8 32.42 37.83 32.2 37.88 31.98Z" fill="#F87915"/>
<path d="M38.13 38.7602L46.78 37.0102C47.04 36.9602 47.22 36.7302 47.22 36.4702V31.3402C47.22 31.1802 47.08 31.0502 46.91 31.0702L38.28 32.1502C38.01 32.1802 37.8 32.4202 37.8 32.6902V38.4802C37.8 38.6502 37.96 38.7802 38.13 38.7502V38.7602Z" fill="white"/>
<path d="M37.8 33.6802V37.1002C39.81 35.5602 39.67 32.6602 39.67 32.6602L37.8 33.6702V33.6802Z" fill="#FFEBB8"/>
<path d="M38.36 32.7002L46.67 31.6702V36.4802L38.36 38.1502V32.7002Z" fill="#FFC201"/>
<path d="M38.36 36.5902C39.79 35.0002 39.68 32.6702 39.68 32.6702L38.36 33.3902V36.5902Z" fill="#F87915"/>
<path d="M37.71 31.8201H46.06C46.2699 31.8201 46.44 31.6499 46.44 31.4401V29.1301C46.44 28.9202 46.2699 28.7501 46.06 28.7501H37.71C37.5001 28.7501 37.33 28.9202 37.33 29.1301V31.4401C37.33 31.6499 37.5001 31.8201 37.71 31.8201Z" fill="#FFEBB8"/>
<path d="M46.35 31.45L46.38 29.14C46.38 28.93 46.26 28.75 46.06 28.75H38.35L37.93 29.77C37.93 29.77 46.35 31.65 46.35 31.45Z" fill="white"/>
<path d="M44.47 29.3299L45.49 29.5599C45.49 29.5599 45.51 29.5599 45.51 29.5699C45.51 29.5699 45.51 29.5899 45.49 29.5899L44.47 29.8199C44.47 29.8199 44.43 29.8199 44.43 29.8099V29.7399C44.43 29.7399 44.43 29.7199 44.46 29.7199L44.62 29.6799V29.4499L44.46 29.4099C44.46 29.4099 44.43 29.4099 44.43 29.3899V29.3199C44.43 29.3199 44.45 29.2999 44.47 29.3099V29.3299ZM44.79 29.6599L45.12 29.5799L44.79 29.4999V29.6499V29.6599Z" fill="#E9113C"/>
<path d="M43.99 29.6101C43.99 29.6101 44.02 29.5701 43.99 29.5501L43.33 29.2201C43.33 29.2201 43.24 29.2001 43.21 29.2201L42.55 29.5501C42.55 29.5501 42.52 29.5901 42.55 29.6101L43.21 29.9401C43.21 29.9401 43.3 29.9601 43.33 29.9401L43.99 29.6101Z" fill="#E9113C"/>
<path d="M37.57 31.3801L41.69 23.6701C41.82 23.4301 41.88 23.1701 41.88 22.9001V21.0201C41.88 20.8901 41.71 20.8501 41.64 20.9601L37.52 28.5501C37.39 28.7901 37.32 29.0601 37.32 29.3301V31.3201C37.32 31.4501 37.49 31.4901 37.56 31.3801H37.57Z" fill="white"/>
<path d="M37.47 29.3301C37.47 29.0801 37.53 28.8301 37.65 28.6201L41.74 21.0701V22.6201C41.74 22.8701 41.68 23.1101 41.56 23.3301L37.46 31.0001V29.3401L37.47 29.3301Z" fill="#FFC201"/>
<path d="M41.89 21.25V23.34C41.89 23.56 41.95 23.77 42.05 23.96L46.27 31.42C46.3 31.48 46.39 31.45 46.39 31.39V29.21C46.39 28.99 46.33 28.78 46.22 28.59L42 21.22C41.97 21.16 41.88 21.19 41.88 21.25H41.89Z" fill="white"/>
<path d="M45.02 26.49L44.41 25.43L43.58 25.22C43.58 25.22 43.91 26.36 45.01 26.49H45.02Z" fill="#1A2C38"/>
<path d="M42.17 23.63C42.08 23.46 42.02 23.27 42.02 23.08V21.54L46.1 28.66C46.2 28.83 46.25 29.02 46.25 29.22V30.85L42.17 23.64V23.63Z" fill="#FFC201"/>
<path d="M44.84 26.46L44.22 25.38L43.58 25.22C43.58 25.22 43.87 26.23 44.83 26.46H44.84Z" fill="#F87915"/>
<path d="M43.49 23.6902C43.49 23.6902 42.82 25.8002 45.12 26.2202L43.49 23.6902Z" fill="white"/>
<path d="M21.93 38.7701C21.93 38.7701 22.42 39.9301 27.58 39.9301C33.62 39.9301 37.07 36.6401 37.07 36.6401C39.93 34.9801 40.85 30.1001 37.95 30.1001C36.03 30.1001 35.03 33.6601 29.65 33.6601C25.24 33.6601 21.94 31.2401 21.94 31.2401V38.7701H21.93Z" fill="white"/>
<mask id="mask1_26835_29205" style="mask-type:luminance" maskUnits="userSpaceOnUse" x="5" y="18" width="53" height="40">
<path d="M58 19V57C58 57.55 57.55 58 57 58H6C5.44 58 5 57.55 5 57V19C5 18.45 5.44 18 6 18H57C57.55 18 58 18.45 58 19Z" fill="white"/>
</mask>
<g mask="url(#mask1_26835_29205)">
<path d="M54.55 49.1701L50.95 46.1401C50.78 45.9901 50.85 45.7101 51.08 45.6701L59.47 44.2701C59.73 44.2301 60.01 44.2801 60.23 44.4301L63.19 46.3801C63.38 46.5101 63.33 46.8001 63.11 46.8601L54.55 49.1601V49.1701Z" fill="white"/>
<path d="M58.17 45.95L58.25 45.79C58.25 45.79 58.23 45.74 58.18 45.73L57.71 45.65C57.66 45.65 57.63 45.62 57.64 45.59L57.74 45.39C57.74 45.39 57.72 45.34 57.67 45.33L57.3 45.26C57.25 45.26 57.2 45.26 57.19 45.28L56.98 45.73C56.98 45.73 57 45.78 57.05 45.79L58.07 45.97C58.12 45.97 58.17 45.97 58.18 45.94" fill="#E9113C"/>
<path d="M20.04 45.3301L28.08 47.4601C28.29 47.5201 28.35 47.7801 28.18 47.9201L24.06 51.4001C23.85 51.5801 23.55 51.6401 23.29 51.5501L14.55 48.6001C14.33 48.5301 14.3 48.2301 14.51 48.1101L19.45 45.4001C19.63 45.3001 19.84 45.2801 20.04 45.3301Z" fill="white"/>
<path d="M23.55 51.0601C23.55 51.0601 23.49 51.0601 23.47 51.0501L15.3 48.2901L19.71 45.8701C19.71 45.8701 19.79 45.8401 19.84 45.8401C19.86 45.8401 19.89 45.8401 19.91 45.8401L27.46 47.8401L23.73 50.9901C23.73 50.9901 23.62 51.0501 23.56 51.0501L23.55 51.0601Z" fill="#FFC201"/>
<path d="M53.41 46.3801L61.45 48.5101C61.66 48.5701 61.72 48.8301 61.55 48.9701L57.43 52.4501C57.22 52.6301 56.92 52.6901 56.66 52.6001L47.92 49.6501C47.7 49.5801 47.67 49.2801 47.88 49.1601L52.82 46.4501C53 46.3501 53.21 46.3301 53.41 46.3801Z" fill="white"/>
<path d="M56.92 52.1101C56.92 52.1101 56.86 52.1101 56.84 52.1001L48.67 49.3401L53.08 46.9201C53.08 46.9201 53.16 46.8901 53.21 46.8901C53.23 46.8901 53.26 46.8901 53.28 46.8901L60.83 48.8901L57.1 52.0401C57.1 52.0401 56.99 52.1001 56.93 52.1001L56.92 52.1101Z" fill="#FFC201"/>
<path d="M14.74 46.9801L19.55 47.7201C19.77 47.7501 19.86 48.0401 19.68 48.1801L14.28 52.8601C14.05 53.0601 13.74 53.1301 13.44 53.0601L8.27 51.7401C8.05 51.6801 8 51.3901 8.18 51.2601L14.07 47.1401C14.27 47.0001 14.51 46.9501 14.74 46.9801Z" fill="white"/>
<path d="M13.67 52.56C13.67 52.56 13.6 52.56 13.57 52.55L8.96 51.37L14.37 47.58C14.44 47.53 14.52 47.51 14.6 47.51C14.62 47.51 14.64 47.51 14.66 47.51L18.9 48.16L13.93 52.46C13.86 52.52 13.76 52.56 13.67 52.56Z" fill="#FFC201"/>
<path d="M11.89 46.39L14.16 44.46C14.26 44.37 14.21 44.2 14.07 44.19L7.63 43.63C7.38 43.61 7.14 43.67 6.93 43.79L4.04 45.53C3.9 45.61 3.95 45.82 4.11 45.84L11.21 46.6C11.45 46.62 11.7 46.54 11.88 46.39H11.89Z" fill="white"/>
<path d="M5.48 45.4702L5.43 45.5302C5.43 45.5302 5.41 45.5402 5.39 45.5402H5.31C5.31 45.5402 5.29 45.5402 5.29 45.5302L5.24 45.4102L5.31 45.3602C5.31 45.3602 5.34 45.3502 5.36 45.3602L6.34 45.4702C6.34 45.4702 6.36 45.4702 6.35 45.4902L6.27 45.5502C6.27 45.5502 6.24 45.5602 6.22 45.5502L5.49 45.4602L5.48 45.4702Z" fill="#1A2C38"/>
<path d="M5.98 45.3201C5.65 45.2801 5.54 45.2001 5.69 45.0901C5.84 44.9801 6.13 44.9501 6.45 44.9901C6.77 45.0301 6.89 45.1101 6.74 45.2201C6.59 45.3301 6.31 45.3601 5.98 45.3201ZM6.33 45.0801C6.11 45.0501 5.94 45.0701 5.87 45.1201C5.8 45.1701 5.88 45.2101 6.11 45.2401C6.34 45.2701 6.5 45.2501 6.57 45.2001C6.64 45.1501 6.56 45.1101 6.33 45.0801Z" fill="#1A2C38"/>
<path d="M8.08 45.63L8.33 45.44C8.33 45.44 8.32 45.41 8.28 45.42L7.98 45.48C7.98 45.48 7.91 45.51 7.92 45.52L8 45.63C8 45.63 8.06 45.63 8.08 45.63Z" fill="#1A2C38"/>
<path d="M7.07 45.3801C7.07 45.3801 7 45.4101 7.01 45.4201L7.24 45.7301C7.24 45.7301 7.3 45.7501 7.34 45.7401L7.66 45.6801C7.66 45.6801 7.73 45.6501 7.72 45.6401L7.62 45.5001C7.62 45.5001 7.64 45.4701 7.68 45.4601L8.08 45.3801C8.08 45.3801 8.15 45.3501 8.14 45.3401L8.06 45.2301C8.06 45.2301 8 45.2101 7.96 45.2201L7.08 45.4001L7.07 45.3801Z" fill="#1A2C38"/>
</g>
</g>
<path fill-rule="evenodd" clip-rule="evenodd" d="M6.49771 79C6.98969 79 7.48602 79.213 7.49037 79.6913C7.49037 80.1043 7.24656 80.2696 6.99839 80.2696C6.75023 80.2696 6.73281 80.1435 6.73281 80.1435C6.73281 80.1435 7.02452 79.9261 7.02452 79.7174C7.02452 79.6087 6.94179 79.313 6.489 79.3174C5.8577 79.3174 5.5181 79.6174 5.5181 80.1522C5.5181 80.7652 7.35105 80.9739 7.3554 81.7652C7.3554 82.613 6.47594 82.9957 5.69225 83C5.283 83 5.01306 82.7609 5.00871 82.3783C5.00871 81.9261 5.22204 81.4652 5.75756 81.4652C5.88382 81.4565 5.98831 81.5522 5.99702 81.6783C5.99702 81.6783 5.99702 81.6826 5.99702 81.687C5.99702 81.687 5.45715 81.8391 5.4615 82.3783C5.4615 82.4783 5.56599 82.6609 5.81851 82.6565C6.07103 82.6522 6.82424 82.4739 6.81989 81.8087C6.81989 81.1913 5.00435 81.1087 5 80.1478C5 79.0652 6.08845 79.0087 6.49771 79.0087V79ZM10.747 79.6C10.8123 79.5696 11.2129 79.4913 11.1955 79.813C11.1824 80.1348 10.9386 80.6913 10.9037 80.9348C11.2303 80.7696 11.6918 80.2087 11.6918 80.2087C11.6918 80.2087 12.0183 80.2522 11.9182 80.4522C11.818 80.6522 11.1519 81.1435 11.1519 81.1435C11.1519 81.1435 11.3043 82.5696 12.1707 82.5696C12.6453 82.5696 12.8499 82.3609 12.937 82.287C12.9587 82.2696 12.9762 82.2652 12.9849 82.2783C13.0197 82.387 12.9936 82.5043 12.9152 82.5913C12.8194 82.6957 12.5974 82.8217 12.1533 82.8261C11.3653 82.8261 10.9255 82.1957 10.8123 81.2609C10.7252 81.5348 10.7339 81.9826 10.7209 82.2C10.6948 82.2435 10.2507 82.4174 10.2158 82.1174C10.2158 82.0913 10.2158 82.0696 10.2158 82.0435C10.1331 82.1609 10.0199 82.2826 9.91108 82.2826C9.71951 82.2826 9.63679 82.1217 9.60196 82.0391C9.57584 82.0696 9.3625 82.287 9.08821 82.287C8.92277 82.2913 8.77474 82.1957 8.70943 82.0435C8.57011 82.1435 8.32195 82.2913 8.03895 82.2913C7.73418 82.2913 7.66017 82.1087 7.66017 81.9565C7.66017 81.713 7.84303 80.987 7.84303 80.987C7.84303 80.987 7.48602 81.1304 7.36411 81.1348C7.19431 81.1348 7.11159 80.8217 7.11159 80.813C7.11159 80.8087 7.11159 80.8 7.1203 80.8C7.22044 80.7609 7.94317 80.513 7.94317 80.513C7.94317 80.513 8.07813 79.9826 8.09555 79.913C8.11296 79.8435 8.2131 79.7 8.33065 79.6565C8.41773 79.6217 8.50916 79.6 8.60059 79.5913C8.63107 79.5913 8.65284 79.6 8.65284 79.6174C8.65284 79.6348 8.47433 80.4087 8.47433 80.4087C8.47433 80.4087 8.84876 80.3217 8.98808 80.3217C9.09692 80.3217 9.15352 80.387 9.09257 80.4696C9.03162 80.5522 8.96196 80.6478 8.92712 80.6913C8.88794 80.7348 8.86182 80.7435 8.77039 80.7609C8.64413 80.787 8.36113 80.8565 8.36113 80.8565C8.36113 80.8565 8.13473 81.6783 8.13909 81.8174C8.13909 81.8957 8.16521 81.987 8.26099 81.987C8.35678 81.987 8.53964 81.8739 8.67025 81.7913C8.69202 81.1522 9.18835 80.7261 9.57584 80.7261C9.7021 80.7261 9.65421 80.8478 9.79788 80.8478H9.88931C9.94591 80.8478 10.0069 80.8522 10.0069 80.9957C10.0069 81.1957 9.89367 81.5261 9.89367 81.7348C9.89367 81.8826 9.91544 81.987 9.97204 81.987C10.0678 81.987 10.1767 81.8478 10.255 81.7261C10.3813 81.0304 10.734 79.7609 10.734 79.6174L10.747 79.6ZM12.5016 80.7C12.7672 80.6783 12.9326 80.8217 12.9631 80.9C12.9936 80.9783 12.9892 81.1609 12.9152 81.2913C12.6845 81.7044 12.1097 81.6304 12.1097 81.6304C12.1097 81.6304 12.0444 81.9565 12.3405 81.9565C12.593 81.9565 12.7062 81.8304 12.8151 81.7261C12.8586 81.7261 12.9936 81.8652 12.9326 81.9609C12.8847 82.0348 12.6191 82.2565 12.2795 82.2609C11.7397 82.2609 11.6047 81.8 11.6744 81.4696C11.7658 81.0609 12.1751 80.7217 12.5016 80.6957V80.7ZM9.6455 80.987C9.32332 80.987 8.82699 81.9696 9.20577 81.9652C9.61938 81.9652 9.6455 81.1826 9.6455 81.0043V80.987ZM12.6409 80.8913C12.4232 80.9 12.1751 81.3174 12.1533 81.5C12.4798 81.513 12.654 81.1957 12.6757 81.0696C12.6888 80.9739 12.6932 80.887 12.6409 80.887V80.8913Z" fill="#557086"/>
<path d="M51.1444 79.3778L51.6412 80.278L52.6519 80.4733C52.7792 80.4988 52.8302 80.6559 52.741 80.7494L52.0361 81.5009L52.1635 82.5243C52.1805 82.6559 52.0446 82.7494 51.93 82.6942L51 82.2568L50.0701 82.6942C49.9512 82.7494 49.8196 82.6517 49.8366 82.5243L49.964 81.5009L49.2591 80.7494C49.1699 80.6559 49.2209 80.4988 49.3482 80.4733L50.3589 80.278L50.8557 79.3778C50.9194 79.2632 51.085 79.2632 51.1444 79.3778Z" fill="#FFC200"/>
<path d="M51 79.2929C51.0552 79.2929 51.1147 79.3226 51.1444 79.3778L51.6412 80.278L52.6519 80.4733C52.7792 80.4988 52.8302 80.6559 52.741 80.7494L52.0361 81.5009L52.1635 82.5243C52.1763 82.6262 52.0955 82.7111 51.9979 82.7111C51.9766 82.7111 51.9512 82.7069 51.9257 82.6942L50.9958 82.2568L50.0658 82.6942C50.0403 82.7069 50.0191 82.7111 49.9936 82.7111C49.9002 82.7111 49.8153 82.6262 49.828 82.5243L49.9554 81.5009L49.2505 80.7494C49.1614 80.6559 49.2123 80.4988 49.3397 80.4733L50.3503 80.278L50.8471 79.3778C50.8769 79.3226 50.9363 79.2929 50.9915 79.2929M51 79.0806C50.8641 79.0806 50.7367 79.157 50.6688 79.2759L50.2187 80.0912L49.3057 80.2653C49.1699 80.2908 49.0594 80.3884 49.017 80.5201C48.9745 80.6517 49.0085 80.7961 49.1019 80.8937L49.7389 81.5731L49.6242 82.4946C49.6115 82.6007 49.6454 82.7111 49.7134 82.7918C49.7856 82.8725 49.8875 82.9192 49.9979 82.9192C50.0531 82.9192 50.1083 82.9065 50.1592 82.881L51 82.4861L51.8408 82.881C51.8917 82.9065 51.9469 82.9192 52.0021 82.9192C52.1125 82.9192 52.2144 82.8725 52.2866 82.7918C52.3588 82.7111 52.3928 82.6007 52.3758 82.4946L52.2611 81.5731L52.8981 80.8937C52.9915 80.7918 53.0255 80.6474 52.983 80.5201C52.9406 80.3884 52.8301 80.2908 52.6943 80.2653L51.7813 80.0912L51.3312 79.2759C51.2633 79.157 51.1359 79.0806 51 79.0806Z" fill="#213743"/>
<path d="M51 79.8152V80.9744C51 81.0678 51.0892 81.1315 51.1784 81.106L52.2187 80.7706C52.2739 80.7536 52.2697 80.6729 52.2102 80.6602L51.5563 80.5413C51.4969 80.5286 51.4417 80.4903 51.4119 80.4351L51.085 79.7939C51.0637 79.7515 50.9958 79.7642 50.9958 79.8152H51Z" fill="#FFEBB8"/>
<path d="M51 81.4924V82.0699C51 82.1039 51.017 82.1294 51.0467 82.1464L51.7983 82.5073C51.8366 82.5243 51.8705 82.4818 51.845 82.4479L51.0935 81.4627C51.0637 81.4245 51 81.4457 51 81.4924Z" fill="#FF7F00"/>
<path d="M56.1444 79.3778L56.6412 80.278L57.6519 80.4733C57.7792 80.4988 57.8302 80.6559 57.741 80.7494L57.0361 81.5009L57.1635 82.5243C57.1805 82.6559 57.0446 82.7494 56.93 82.6942L56 82.2568L55.0701 82.6942C54.9512 82.7494 54.8196 82.6517 54.8366 82.5243L54.964 81.5009L54.2591 80.7494C54.1699 80.6559 54.2209 80.4988 54.3482 80.4733L55.3589 80.278L55.8557 79.3778C55.9194 79.2632 56.085 79.2632 56.1444 79.3778Z" fill="#FFC200"/>
<path d="M56 79.2929C56.0552 79.2929 56.1147 79.3226 56.1444 79.3778L56.6412 80.278L57.6519 80.4733C57.7792 80.4988 57.8302 80.6559 57.741 80.7494L57.0361 81.5009L57.1635 82.5243C57.1763 82.6262 57.0955 82.7111 56.9979 82.7111C56.9766 82.7111 56.9512 82.7069 56.9257 82.6942L55.9958 82.2568L55.0658 82.6942C55.0403 82.7069 55.0191 82.7111 54.9936 82.7111C54.9002 82.7111 54.8153 82.6262 54.828 82.5243L54.9554 81.5009L54.2505 80.7494C54.1614 80.6559 54.2123 80.4988 54.3397 80.4733L55.3503 80.278L55.8471 79.3778C55.8769 79.3226 55.9363 79.2929 55.9915 79.2929M56 79.0806C55.8641 79.0806 55.7367 79.157 55.6688 79.2759L55.2187 80.0912L54.3057 80.2653C54.1699 80.2908 54.0594 80.3884 54.017 80.5201C53.9745 80.6517 54.0085 80.7961 54.1019 80.8937L54.7389 81.5731L54.6242 82.4946C54.6115 82.6007 54.6454 82.7111 54.7134 82.7918C54.7856 82.8725 54.8875 82.9192 54.9979 82.9192C55.0531 82.9192 55.1083 82.9065 55.1592 82.881L56 82.4861L56.8408 82.881C56.8917 82.9065 56.9469 82.9192 57.0021 82.9192C57.1125 82.9192 57.2144 82.8725 57.2866 82.7918C57.3588 82.7111 57.3928 82.6007 57.3758 82.4946L57.2611 81.5731L57.8981 80.8937C57.9915 80.7918 58.0255 80.6474 57.983 80.5201C57.9406 80.3884 57.8301 80.2908 57.6943 80.2653L56.7813 80.0912L56.3312 79.2759C56.2633 79.157 56.1359 79.0806 56 79.0806Z" fill="#213743"/>
<path d="M56 79.8152V80.9744C56 81.0678 56.0892 81.1315 56.1784 81.106L57.2187 80.7706C57.2739 80.7536 57.2697 80.6729 57.2102 80.6602L56.5563 80.5413C56.4969 80.5286 56.4417 80.4903 56.4119 80.4351L56.085 79.7939C56.0637 79.7515 55.9958 79.7642 55.9958 79.8152H56Z" fill="#FFEBB8"/>
<path d="M56 81.4924V82.0699C56 82.1039 56.017 82.1294 56.0467 82.1464L56.7983 82.5073C56.8366 82.5243 56.8705 82.4818 56.845 82.4479L56.0935 81.4627C56.0637 81.4245 56 81.4457 56 81.4924Z" fill="#FF7F00"/>
<rect x="13" y="62" width="37" height="13" rx="6.5" fill="#2F4553"/>
<path d="M29.9644 70.072C29.1004 70.072 28.2664 69.73 28.2664 68.944C28.2664 68.488 28.6144 68.116 29.0764 67.936C28.6504 67.774 28.3324 67.486 28.3324 67.006C28.3324 66.232 29.1784 65.938 29.9644 65.938C30.7444 65.938 31.5964 66.232 31.5964 67.006C31.5964 67.486 31.2724 67.774 30.8464 67.936C31.3084 68.116 31.6564 68.488 31.6564 68.944C31.6564 69.724 30.8284 70.072 29.9644 70.072ZM29.9644 67.534C30.2104 67.498 30.5404 67.372 30.5404 67.156C30.5404 66.934 30.3064 66.796 29.9644 66.796C29.6104 66.796 29.3824 66.934 29.3824 67.156C29.3824 67.372 29.7184 67.498 29.9644 67.534ZM29.9644 69.214C30.3364 69.214 30.6124 69.058 30.6124 68.824C30.6124 68.578 30.2164 68.434 29.9644 68.404C29.7064 68.434 29.3164 68.578 29.3164 68.824C29.3164 69.058 29.5804 69.214 29.9644 69.214ZM34.9273 70H33.9133L33.3553 69.124L32.7913 70H31.7833L32.7733 68.512L31.8433 67.102H32.8573L33.3553 67.888L33.8473 67.102H34.8613L33.9373 68.512L34.9273 70Z" fill="white"/>
<path d="M8.03 11H7.215L6.56 9.815H6.04V11H5.33V7.665H6.89C7.585 7.665 8.01 8.12 8.01 8.74C8.01 9.33 7.64 9.645 7.28 9.73L8.03 11ZM6.785 9.19C7.07 9.19 7.285 9.02 7.285 8.74C7.285 8.46 7.07 8.29 6.785 8.29H6.04V9.19H6.785ZM10.5152 11H9.88023V10.75C9.71523 10.945 9.43023 11.06 9.11523 11.06C8.73023 11.06 8.27523 10.8 8.27523 10.26C8.27523 9.695 8.73023 9.48 9.11523 9.48C9.43523 9.48 9.72023 9.585 9.88023 9.775V9.45C9.88023 9.205 9.67023 9.045 9.35023 9.045C9.09023 9.045 8.85023 9.14 8.64523 9.33L8.40523 8.905C8.70023 8.645 9.08023 8.525 9.46023 8.525C10.0102 8.525 10.5152 8.745 10.5152 9.44V11ZM9.37023 10.63C9.57523 10.63 9.77523 10.56 9.88023 10.42V10.12C9.77523 9.98 9.57523 9.91 9.37023 9.91C9.12023 9.91 8.91523 10.04 8.91523 10.275C8.91523 10.5 9.12023 10.63 9.37023 10.63ZM11.7801 11H11.1451V8.585H11.7801V8.915C11.9501 8.7 12.2501 8.525 12.5501 8.525V9.145C12.5051 9.135 12.4451 9.13 12.3751 9.13C12.1651 9.13 11.8851 9.25 11.7801 9.405V11ZM14.0818 11.06C13.3468 11.06 12.7918 10.565 12.7918 9.79C12.7918 9.09 13.3068 8.525 14.0418 8.525C14.7618 8.525 15.2518 9.065 15.2518 9.855V9.995H13.4568C13.4968 10.3 13.7418 10.555 14.1518 10.555C14.3568 10.555 14.6418 10.465 14.7968 10.315L15.0768 10.725C14.8368 10.945 14.4568 11.06 14.0818 11.06ZM14.6368 9.565C14.6218 9.335 14.4618 9.03 14.0418 9.03C13.6468 9.03 13.4768 9.325 13.4468 9.565H14.6368Z" fill="#05080A"/>
<path d="M48.7366 11H48.2846L46.8926 9.096V11H46.4246V8.332H46.9046L48.2686 10.184V8.332H48.7366V11ZM50.1635 11.048C49.5515 11.048 49.1715 10.588 49.1715 10.032C49.1715 9.48 49.5515 9.02 50.1635 9.02C50.7835 9.02 51.1595 9.48 51.1595 10.032C51.1595 10.588 50.7835 11.048 50.1635 11.048ZM50.1635 10.676C50.5235 10.676 50.7235 10.376 50.7235 10.032C50.7235 9.692 50.5235 9.392 50.1635 9.392C49.8075 9.392 49.6075 9.692 49.6075 10.032C49.6075 10.376 49.8075 10.676 50.1635 10.676ZM51.781 11.044C51.629 11.044 51.501 10.916 51.501 10.764C51.501 10.612 51.629 10.484 51.781 10.484C51.933 10.484 52.061 10.612 52.061 10.764C52.061 10.916 51.933 11.044 51.781 11.044ZM55.1528 11H54.6848V10.396H53.4128V10.02L54.5088 8.332H55.1528V9.984H55.5088V10.396H55.1528V11ZM54.6848 9.984V8.752L53.8728 9.984H54.6848ZM57.7531 11H55.8211V10.632C56.8571 9.848 57.2611 9.5 57.2611 9.116C57.2611 8.836 57.0211 8.708 56.7771 8.708C56.4651 8.708 56.2251 8.836 56.0571 9.028L55.7851 8.72C56.0211 8.436 56.3971 8.292 56.7691 8.292C57.2851 8.292 57.7371 8.584 57.7371 9.116C57.7371 9.608 57.2851 10.048 56.5691 10.588H57.7531V11Z" fill="white"/>
<defs>
<linearGradient id="paint0_linear_26835_29205" x1="31.5" y1="15.92" x2="31.5" y2="42.02" gradientUnits="userSpaceOnUse">
<stop stop-color="#45A7FF"/>
<stop offset="1" stop-color="#2F4553" stop-opacity="0"/>
</linearGradient>
<linearGradient id="paint1_linear_26835_29205" x1="39.87" y1="46.3801" x2="24.65" y2="38.2501" gradientUnits="userSpaceOnUse">
<stop stop-color="#1A2C38" stop-opacity="0.6"/>
<stop offset="1" stop-color="#047BFF" stop-opacity="0"/>
</linearGradient>
<clipPath id="clip0_26835_29205">
<rect width="63" height="88" fill="white"/>
</clipPath>
</defs>
</svg>
