<svg width="63" height="88" viewBox="0 0 63 88" fill="none" xmlns="http://www.w3.org/2000/svg">
<rect width="63" height="88" rx="4" fill="#1CE61C"/>
<path d="M36.7008 13.5133L44.7992 3.48665C45.5586 2.54645 46.7024 2 47.911 2H58C59.6569 2 61 3.34314 61 5V83C61 84.6569 59.6569 86 58 86H5C3.34315 86 2 84.6569 2 83V18C2 16.3431 3.34315 15 5 15H33.589C34.7976 15 35.9414 14.4536 36.7008 13.5133Z" fill="#213743"/>
<mask id="mask0_26835_29206" style="mask-type:luminance" maskUnits="userSpaceOnUse" x="0" y="0" width="63" height="88">
<path d="M59 0H4C1.79 0 0 1.79 0 4V84C0 86.21 1.79 88 4 88H59C61.21 88 63 86.21 63 84V4C63 1.79 61.21 0 59 0ZM61 82.81C61 84.57 59.57 86 57.81 86H5.19C3.43 86 2 84.57 2 82.81V18.19C2 16.43 3.43 15 5.19 15H33.59C34.8 15 35.94 14.45 36.7 13.51L44.8 3.48C45.56 2.54 46.7 1.99 47.91 1.99H57.81C59.57 1.99 61 3.42 61 5.18V82.8V82.81Z" fill="white"/>
</mask>
<g mask="url(#mask0_26835_29206)">
<path d="M68.37 47.3199V26.6399L4.46001 90.5499H25.13L68.37 47.3199Z" fill="white"/>
<path d="M64.66 -2.29004H55.22L-2.92 55.84V66.18L65.46 -2.20004C65.2 -2.26004 64.93 -2.29004 64.66 -2.29004Z" fill="white"/>
<path d="M68.37 69.23V61.55L39.37 90.55H47.05L68.37 69.23Z" fill="white"/>
</g>
<rect x="5" y="18" width="53" height="40" rx="1" fill="#2F4553"/>
<mask id="mask1_26835_29206" style="mask-type:luminance" maskUnits="userSpaceOnUse" x="5" y="18" width="53" height="40">
<path d="M58 19V57C58 57.55 57.56 58 57 58H6C5.45 58 5 57.55 5 57V19C5 18.83 5.04 18.68 5.12 18.54C5.28 18.22 5.62 18 6 18H57C57.56 18 58 18.45 58 19Z" fill="white"/>
</mask>
<g mask="url(#mask1_26835_29206)">
<mask id="mask2_26835_29206" style="mask-type:luminance" maskUnits="userSpaceOnUse" x="-12" y="8" width="93" height="54">
<path d="M80.25 8.3501H-12V61.5701H80.25V8.3501Z" fill="white"/>
</mask>
<g mask="url(#mask2_26835_29206)">
<path d="M80.79 8.3501H-12V61.7401H80.79V8.3501Z" fill="#1A2C37"/>
<path d="M82.93 22.04L87.16 61.18L46.77 61.85L43.86 30.67L82.93 22.04Z" fill="#55DFFF"/>
<path d="M-16.66 26.99C-16.66 26.99 18.34 15.94 81.77 9.55005L82.75 20.11L-16.42 29.49L-16.65 26.98L-16.66 26.99Z" fill="#55DFFF"/>
<path d="M-16.52 28.45C18.28 16.11 81.81 9.97998 81.81 9.97998L82.93 22.04C82.93 22.04 47.5 29.58 48.79 47.05C49.64 58.48 58.34 60.78 58.34 60.78L-12.89 67.42L-16.52 28.45Z" fill="url(#paint0_linear_26835_29206)"/>
<path d="M-17.16 58.8402C-1.92 42.2402 43.7 19.2202 82.55 14.0602L81.8 12.2102C81.8 12.2102 18.85 20.9802 -15.94 37.8102L-17.16 58.8402Z" fill="url(#paint1_linear_26835_29206)"/>
<path d="M41.83 63.27C41.83 63.27 37.71 53.4 45.49 42.21C53.27 31.02 68.97 26.56 82.93 22.04L82.49 17.27C82.49 17.27 29.58 24.01 12.1 65.09L41.83 63.27Z" fill="url(#paint2_linear_26835_29206)"/>
<path d="M10.14 44.1C5.19 41.75 3.07 43.32 10.58 48.84C18.09 54.36 28.47 56.19 31.74 54.43C35.01 52.67 10.14 44.1 10.14 44.1Z" fill="#1A2C37"/>
<g style="mix-blend-mode:screen" opacity="0.41">
<path d="M48.71 46.2302C46.8 53.0102 40.43 58.0302 33.71 59.8602C19.84 63.6602 4 57.5602 -4 45.7102C-7.99 39.8102 -9.73 32.6302 -9.02 25.9402C-7.22 32.4302 -4.39 38.2202 -0.259997 42.8302C11.6 56.1202 36.2 61.8302 48.71 46.2202V46.2302Z" fill="#5390D9"/>
<path d="M48.71 46.23C44.46 49.39 39.04 50.54 33.84 50.99C20.1 52.18 5.05001 44.97 2.83001 30.14C2.45001 27.57 2.45001 24.82 2.89001 22.28C4.49001 26.97 6.32001 31.49 9.40001 35.23C18.02 45.93 35.76 47.71 48.71 46.22V46.23Z" fill="#5390D9"/>
<path d="M50.57 39.6302C45.01 44.1502 36.59 40.0502 33.53 34.3802C30.3 29.0602 29.37 22.4702 30.83 16.4302C34.54 22.2202 36.42 28.8502 40.73 34.2102C43.21 37.2602 46.54 39.1502 50.57 39.6302Z" fill="#5390D9"/>
<path d="M53.53 13.4402C55.01 19.0502 57.56 22.5302 60.65 27.1702C61.15 27.8802 61.65 28.6502 62.1 29.6402C60.09 29.9802 58.15 29.6402 56.33 28.7902C54.58 27.9202 52.97 26.5502 51.88 24.7302C49.75 21.2102 49.91 15.8902 53.54 13.4302L53.53 13.4402Z" fill="#5390D9"/>
</g>
<path d="M83.07 23.55C83.07 23.55 51.05 30.98 51.45 44.67C51.78 56.21 84.41 58.34 84.41 58.34L86.3 58.16L83.07 23.54V23.55Z" fill="#2C404D"/>
<path d="M9.64 37.6402L28.94 52.0702C37.4 29.2802 70.51 21.1502 82.48 18.0902L82.17 13.9502C82.17 13.9502 27.32 15.8002 9.64 37.6502V37.6402Z" fill="url(#paint3_linear_26835_29206)"/>
<path style="mix-blend-mode:multiply" opacity="0.6" d="M28.04 53.1701C32.95 51.7801 36.51 42.0901 44.28 37.7801C57.67 30.3501 36.65 32.9601 26.97 38.9001C17.29 44.8401 28.03 53.1801 28.03 53.1801" fill="url(#paint4_linear_26835_29206)"/>
<path d="M51.45 44.67C51.55 48.17 54.62 50.8 58.85 52.77C54.6 48.12 64.9 37.56 84.06 34.21L83.07 23.54C83.07 23.54 51.05 30.97 51.45 44.66V44.67Z" fill="#283B47"/>
</g>
</g>
<path d="M5.09 35.8099C5.09 35.8099 8.61 35.1699 11.92 33.2399C15.23 31.3099 33.36 44.6599 32.94 47.6399C32.52 50.6199 32.74 51.6899 33.22 54.0199C33.22 54.0199 17.12 51.1799 12.29 44.7199C7.45 38.2499 5.1 35.8099 5.1 35.8099H5.09Z" fill="#047BFF"/>
<path d="M24.5 22.1099C24.5 22.1099 16.61 23.4199 12.86 28.7399C10.94 31.4499 13.71 32.9999 14.74 32.6499C15.62 32.3499 17.55 32.5799 16.99 31.0399C16.99 31.0399 19.37 28.4499 22.12 28.4299C24.87 28.4099 24.5 22.1099 24.5 22.1099Z" fill="white"/>
<path d="M28.93 52.2799L9 38.6399L9.12 38.4099C9.25 38.1499 12.26 32.1499 15.17 31.3799C17.77 30.6999 29.81 38.7599 33.33 42.2599C34.5 43.4199 34.56 43.8899 34.49 44.1599C34.03 45.9799 29.3 51.8199 29.1 52.0599L28.93 52.2699V52.2799ZM9.78 38.4399L28.82 51.4699C30.53 49.3399 33.59 45.3199 33.92 44.0099C33.92 43.9899 33.96 43.5699 32.15 41.9699C27.39 37.7399 17.23 31.4599 15.33 31.9599C14.25 32.2399 12.93 33.4799 11.52 35.5499C10.68 36.7699 10.04 37.9599 9.78 38.4399Z" fill="#45A7FF"/>
<path d="M39.51 21.7702C39.58 21.8102 39.66 21.8302 39.74 21.8202L41.76 21.5902C41.9 21.5702 42.02 21.4802 42.06 21.3502C42.11 21.2202 42.08 21.0702 41.99 20.9702L41.06 19.9202L42.65 19.6502C42.85 19.6202 42.99 19.4202 42.95 19.2202C42.92 19.0202 42.72 18.8802 42.52 18.9202L40.27 19.3002C40.14 19.3202 40.03 19.4202 39.98 19.5402C39.94 19.6702 39.96 19.8102 40.05 19.9102L40.95 20.9302L39.64 21.0802C39.44 21.1002 39.29 21.2902 39.31 21.4902C39.32 21.6102 39.39 21.7102 39.49 21.7702H39.51Z" fill="white"/>
<path d="M42.81 19.9801C43.1966 19.9801 43.51 19.6667 43.51 19.2801C43.51 18.8935 43.1966 18.5801 42.81 18.5801C42.4234 18.5801 42.11 18.8935 42.11 19.2801C42.11 19.6667 42.4234 19.9801 42.81 19.9801Z" fill="white"/>
<path d="M42.34 26.03C42.34 26.03 48.3 25.1 48.76 26.55C48.18 27.95 46.25 31.33 40.96 32.43C41.17 29.62 42.34 26.03 42.34 26.03Z" fill="white"/>
<path d="M48.76 26.55C48.79 26.65 48.8 26.76 48.77 26.88C48.4 28.79 41.65 35.53 41.65 35.53C40.99 35.09 40.85 33.86 40.96 32.43C46.71 29.79 48.39 27.23 48.76 26.55Z" fill="#E6EFF5"/>
<path d="M19.92 27.2C19.17 28.03 18.57 28.95 18.12 29.91C18.12 29.91 12.89 36.29 19.34 43.03C25.71 49.69 31.28 45.14 31.28 45.14C33.15 44.58 34.89 43.52 36.3 41.96C36.3 41.96 39.42 38.74 40.89 36.87C44.65 32.08 44.6 25.37 40.08 21.3C35.56 17.22 28.95 17.95 24.51 22.11C22.72 23.78 19.92 27.2 19.92 27.2Z" fill="white"/>
<path d="M26.54 32.4299C27.33 34.3599 28.64 35.6899 30.54 35.8299L25.02 38.4899L26.54 32.4299Z" fill="#E6EFF5"/>
<path d="M32.77 36.6499L28.6 46.4099C30.27 45.9799 31.3 45.1399 31.3 45.1399C32.91 44.6599 34.43 43.7999 35.71 42.5799C35.82 42.3499 35.91 42.1599 35.93 42.0299C36.14 41.1199 35.69 38.8699 32.77 36.6499Z" fill="#DAE5ED"/>
<path d="M26.82 20.37C26.82 20.37 32.61 13.63 34.24 13.42C35.87 13.21 35.03 18.92 35.03 18.92C35.03 18.92 29.42 22 26.82 20.37Z" fill="white"/>
<path d="M31.25 31.4299C31.25 31.4299 29.61 30.2299 29.49 29.3299C29.37 28.4299 27.38 29.7999 29.95 32.0699C31.97 33.8499 33.09 33.2399 33.13 32.6599C33.17 32.0799 32.27 32.2099 31.26 31.4299H31.25Z" fill="#2F2D2A"/>
<path d="M29.78 28.74L29.3 29.3C29.15 29.47 29.15 29.73 29.28 29.91C29.3 29.94 29.32 29.96 29.34 29.99C29.46 29.88 29.64 29.88 29.76 29.99C29.89 30.1 29.91 30.31 29.8 30.44C29.78 30.46 29.76 30.48 29.74 30.49C30.52 31.4 31.43 32.12 32.47 32.63C32.67 32.73 32.92 32.68 33.06 32.51L33.54 31.94C31.95 31.23 30.68 30.17 29.77 28.73L29.78 28.74Z" fill="white"/>
<path d="M38.75 23.6799C39.21 24.2399 39.51 24.8599 39.68 25.5099C39.91 24.4799 39.66 23.3199 38.9 22.3899C37.65 20.8699 35.5 20.5599 34.1 21.7099C33.85 21.9099 33.65 22.1499 33.48 22.3999C35.17 21.5399 37.39 22.0299 38.75 23.6799Z" fill="#E6EFF5"/>
<path d="M34.82 30.3699C37.0347 30.3699 38.83 28.5745 38.83 26.3599C38.83 24.1452 37.0347 22.3499 34.82 22.3499C32.6053 22.3499 30.81 24.1452 30.81 26.3599C30.81 28.5745 32.6053 30.3699 34.82 30.3699Z" fill="#E2E4EA"/>
<path d="M35.38 30.2099C37.5947 30.2099 39.39 28.4146 39.39 26.1999C39.39 23.9853 37.5947 22.1899 35.38 22.1899C33.1654 22.1899 31.37 23.9853 31.37 26.1999C31.37 28.4146 33.1654 30.2099 35.38 30.2099Z" fill="#4F4C47"/>
<path d="M35.75 29.73C37.7548 29.73 39.38 28.1048 39.38 26.1C39.38 24.0952 37.7548 22.47 35.75 22.47C33.7452 22.47 32.12 24.0952 32.12 26.1C32.12 28.1048 33.7452 29.73 35.75 29.73Z" fill="#2F2D2A"/>
<path d="M36.24 27.47C36.9304 27.47 37.49 26.9103 37.49 26.22C37.49 25.5296 36.9304 24.97 36.24 24.97C35.5497 24.97 34.99 25.5296 34.99 26.22C34.99 26.9103 35.5497 27.47 36.24 27.47Z" fill="white"/>
<path d="M34.3 26.85C34.543 26.85 34.74 26.653 34.74 26.41C34.74 26.167 34.543 25.97 34.3 25.97C34.057 25.97 33.86 26.167 33.86 26.41C33.86 26.653 34.057 26.85 34.3 26.85Z" fill="white"/>
<path d="M22.12 28.4299C20.4 28.4399 18.83 29.4499 17.89 30.2199C17.69 30.5099 17.38 31.0099 17.07 31.6599C17.05 31.7899 17 31.8999 16.93 31.9899C16.46 33.0999 16.04 34.5799 16.13 36.2899L20.63 31.7099C20.63 31.7099 22.4 28.4299 22.12 28.4399V28.4299Z" fill="#E6EFF5"/>
<path d="M15.49 39.47C15.29 36.26 17.32 27.7499 23.99 29.7999C30.66 31.8499 22.93 43.19 20.12 42.61C17.31 42.03 15.61 41.47 15.48 39.47H15.49Z" fill="white"/>
<path d="M24.71 47.3399C27.93 47.2999 36.26 44.6199 33.7 38.1199C31.15 31.6199 20.43 40.1999 21.22 42.9499C22.02 45.6999 22.7 47.3599 24.7 47.3399H24.71Z" fill="white"/>
<path d="M7.2 37.2399C7.2 37.2399 9.87 36.7599 12.19 34.7699C12.65 34.3799 13.44 34.3099 13.95 34.6399C17.59 36.9799 27.81 43.6199 30.6 46.2199C31.04 46.6299 31.2 47.2499 31.04 47.8299C30.34 50.3399 30.77 52.6799 30.77 52.6799L20.06 49.2599L7.2 37.2499V37.2399Z" fill="#45A7FF"/>
<path d="M28.42 52.6498L27.89 52.4698C27.89 52.4698 24.55 51.3098 20.62 49.2098C16.98 47.2698 12.05 44.0998 9.21 40.0198L8.94 39.6298L9.39 39.4698C9.5 39.4298 12.09 38.5498 14.16 40.1398C15.18 40.9298 18 42.8798 20.72 44.7598C23.14 46.4398 25.42 48.0198 26.27 48.6598C28.17 50.0998 28.37 51.9998 28.38 52.0798L28.43 52.6398L28.42 52.6498ZM10.11 40.0298C14.87 46.4198 24.89 50.5498 27.5 51.5498C27.3 50.9498 26.85 50.0198 25.83 49.2498C24.99 48.6098 22.71 47.0398 20.3 45.3598C17.57 43.4698 14.75 41.5098 13.71 40.7098C12.44 39.7398 10.89 39.8698 10.11 40.0298Z" fill="#1E3240"/>
<path d="M28.17 51.76L27.64 51.58C27.64 51.58 24.3 50.42 20.37 48.32C16.73 46.38 11.8 43.21 8.96 39.13L8.69 38.74L9.14 38.58C9.25 38.54 11.84 37.66 13.91 39.25C14.93 40.04 17.75 41.99 20.47 43.87C22.89 45.55 25.17 47.13 26.02 47.77C27.92 49.21 28.12 51.11 28.13 51.19L28.18 51.75L28.17 51.76ZM9.86 39.14C14.62 45.53 24.46 50.33 27.07 51.32C27.13 50.33 26.59 49.13 25.57 48.36C24.73 47.72 22.45 46.15 20.04 44.47C17.31 42.58 14.49 40.62 13.45 39.82C12.18 38.85 10.63 38.98 9.85 39.14H9.86Z" fill="white"/>
<path d="M5.27 34.5901C5.27 34.5901 2.02 35.4601 3.64 38.1901C8.08 45.7201 20.95 53.0201 26.48 54.9101C31.02 56.4601 32.09 56.9301 33.27 55.7001C33.66 55.3001 34.17 53.6501 34.17 53.6501C34.17 53.6501 30.97 52.7301 26.76 50.6301C21.93 48.2201 8.7 39.2301 5.27 34.5801V34.5901Z" fill="#047BFF"/>
<path d="M41.63 35.8301C41.63 35.8301 39.68 40.9701 37.88 44.4901C36.73 46.7301 35.48 47.9701 34.08 47.2601C32.76 46.6001 33.58 45.4001 33.58 45.4001C33.58 45.4001 32.54 45.1201 32.97 44.2101C33.4 43.3001 34.56 42.8101 34.56 42.8101C34.56 42.8101 35.26 40.3601 35.34 38.2701C35.42 36.1801 41.62 35.8301 41.62 35.8301H41.63Z" fill="white"/>
<path d="M37.88 44.4799C38.59 43.0999 39.32 41.6799 39.87 40.1599C39.87 40.1599 36.62 47.2299 33.38 46.5499C33.47 46.7999 33.67 47.0499 34.07 47.2499C35.47 47.9499 36.73 46.7199 37.87 44.4799H37.88Z" fill="#E6EFF5"/>
<path d="M33.81 54.6998C34.02 54.1798 34.18 53.6598 34.18 53.6598C34.18 53.6598 30.98 52.7398 26.77 50.6398C21.94 48.2298 8.71001 39.2398 5.28001 34.5898C5.28001 34.5898 5.04001 34.6598 4.72001 34.8098L4.60001 34.8698C8.70001 40.6498 20.69 49.9698 33.82 54.6998H33.81Z" fill="white"/>
<path opacity="0.5" d="M31.65 21.2099L41.33 28.5399C41.55 28.7099 41.57 29.0299 41.37 29.2199C40.23 30.3099 36.55 33.2099 32.41 29.6999C28.27 26.1999 30.21 22.4899 31.01 21.3099C31.15 21.0999 31.45 21.0499 31.65 21.1999V21.2099Z" fill="#55DFFF"/>
<path d="M30.96 20.56C30.96 20.56 28.2 18.98 27.77 19.03C27.43 19.07 26.73 19.9 26.8 20.16C26.87 20.42 30.05 22.32 30.05 22.32L30.96 20.57V20.56Z" fill="#55DFFF"/>
<path d="M41.8 30.22C41.8 30.22 43.21 32.22 42.44 34.34L44.22 32.54L41.79 30.22H41.8Z" fill="#E6EFF5"/>
<path d="M41.96 29.0801C41.96 29.0801 45.18 32.0201 44.76 32.5901C44.3 33.2101 43.74 33.7901 43.6 33.4301C43.1 32.1901 41.15 30.7801 40.63 30.3301L41.99 29.3201" fill="#55DFFF"/>
<path d="M31.09 20.2799C30.47 20.5699 29.37 23.1599 29.99 23.6299C30.22 22.5899 30.7 21.7599 31 21.3099C31.14 21.0999 31.44 21.0499 31.64 21.1999L41.32 28.5299C41.54 28.6999 41.56 29.0199 41.36 29.2099C40.99 29.5699 40.35 30.1099 39.52 30.5699C40.23 31.1799 42.32 29.2999 42.21 28.7799C42.1 28.2499 31.71 19.9899 31.09 20.2799Z" fill="#55DFFF"/>
<path d="M33.76 44.4501C33.53 44.8401 33.29 45.2701 33.29 45.2701L33.32 46.3801C33.32 46.3801 33.99 45.1301 34.15 44.8201C34.38 44.3901 33.92 44.1801 33.75 44.4501H33.76Z" fill="#5390D9"/>
<path fill-rule="evenodd" clip-rule="evenodd" d="M6.49771 79C6.98969 79 7.48602 79.213 7.49037 79.6913C7.49037 80.1043 7.24656 80.2696 6.99839 80.2696C6.75023 80.2696 6.73281 80.1435 6.73281 80.1435C6.73281 80.1435 7.02452 79.9261 7.02452 79.7174C7.02452 79.6087 6.94179 79.313 6.489 79.3174C5.8577 79.3174 5.5181 79.6174 5.5181 80.1522C5.5181 80.7652 7.35105 80.9739 7.3554 81.7652C7.3554 82.613 6.47594 82.9957 5.69225 83C5.283 83 5.01306 82.7609 5.00871 82.3783C5.00871 81.9261 5.22204 81.4652 5.75756 81.4652C5.88382 81.4565 5.98831 81.5522 5.99702 81.6783C5.99702 81.6783 5.99702 81.6826 5.99702 81.687C5.99702 81.687 5.45715 81.8391 5.4615 82.3783C5.4615 82.4783 5.56599 82.6609 5.81851 82.6565C6.07103 82.6522 6.82424 82.4739 6.81989 81.8087C6.81989 81.1913 5.00435 81.1087 5 80.1478C5 79.0652 6.08845 79.0087 6.49771 79.0087V79ZM10.747 79.6C10.8123 79.5696 11.2129 79.4913 11.1955 79.813C11.1824 80.1348 10.9386 80.6913 10.9037 80.9348C11.2303 80.7696 11.6918 80.2087 11.6918 80.2087C11.6918 80.2087 12.0183 80.2522 11.9182 80.4522C11.818 80.6522 11.1519 81.1435 11.1519 81.1435C11.1519 81.1435 11.3043 82.5696 12.1707 82.5696C12.6453 82.5696 12.8499 82.3609 12.937 82.287C12.9587 82.2696 12.9762 82.2652 12.9849 82.2783C13.0197 82.387 12.9936 82.5043 12.9152 82.5913C12.8194 82.6957 12.5974 82.8217 12.1533 82.8261C11.3653 82.8261 10.9255 82.1957 10.8123 81.2609C10.7252 81.5348 10.7339 81.9826 10.7209 82.2C10.6948 82.2435 10.2507 82.4174 10.2158 82.1174C10.2158 82.0913 10.2158 82.0696 10.2158 82.0435C10.1331 82.1609 10.0199 82.2826 9.91108 82.2826C9.71951 82.2826 9.63679 82.1217 9.60196 82.0391C9.57584 82.0696 9.3625 82.287 9.08821 82.287C8.92277 82.2913 8.77474 82.1957 8.70943 82.0435C8.57011 82.1435 8.32195 82.2913 8.03895 82.2913C7.73418 82.2913 7.66017 82.1087 7.66017 81.9565C7.66017 81.713 7.84303 80.987 7.84303 80.987C7.84303 80.987 7.48602 81.1304 7.36411 81.1348C7.19431 81.1348 7.11159 80.8217 7.11159 80.813C7.11159 80.8087 7.11159 80.8 7.1203 80.8C7.22044 80.7609 7.94317 80.513 7.94317 80.513C7.94317 80.513 8.07813 79.9826 8.09555 79.913C8.11296 79.8435 8.2131 79.7 8.33065 79.6565C8.41773 79.6217 8.50916 79.6 8.60059 79.5913C8.63107 79.5913 8.65284 79.6 8.65284 79.6174C8.65284 79.6348 8.47433 80.4087 8.47433 80.4087C8.47433 80.4087 8.84876 80.3217 8.98808 80.3217C9.09692 80.3217 9.15352 80.387 9.09257 80.4696C9.03162 80.5522 8.96196 80.6478 8.92712 80.6913C8.88794 80.7348 8.86182 80.7435 8.77039 80.7609C8.64413 80.787 8.36113 80.8565 8.36113 80.8565C8.36113 80.8565 8.13473 81.6783 8.13909 81.8174C8.13909 81.8957 8.16521 81.987 8.26099 81.987C8.35678 81.987 8.53964 81.8739 8.67025 81.7913C8.69202 81.1522 9.18835 80.7261 9.57584 80.7261C9.7021 80.7261 9.65421 80.8478 9.79788 80.8478H9.88931C9.94591 80.8478 10.0069 80.8522 10.0069 80.9957C10.0069 81.1957 9.89367 81.5261 9.89367 81.7348C9.89367 81.8826 9.91544 81.987 9.97204 81.987C10.0678 81.987 10.1767 81.8478 10.255 81.7261C10.3813 81.0304 10.734 79.7609 10.734 79.6174L10.747 79.6ZM12.5016 80.7C12.7672 80.6783 12.9326 80.8217 12.9631 80.9C12.9936 80.9783 12.9892 81.1609 12.9152 81.2913C12.6845 81.7044 12.1097 81.6304 12.1097 81.6304C12.1097 81.6304 12.0444 81.9565 12.3405 81.9565C12.593 81.9565 12.7062 81.8304 12.8151 81.7261C12.8586 81.7261 12.9936 81.8652 12.9326 81.9609C12.8847 82.0348 12.6191 82.2565 12.2795 82.2609C11.7397 82.2609 11.6047 81.8 11.6744 81.4696C11.7658 81.0609 12.1751 80.7217 12.5016 80.6957V80.7ZM9.6455 80.987C9.32332 80.987 8.82699 81.9696 9.20577 81.9652C9.61938 81.9652 9.6455 81.1826 9.6455 81.0043V80.987ZM12.6409 80.8913C12.4232 80.9 12.1751 81.3174 12.1533 81.5C12.4798 81.513 12.654 81.1957 12.6757 81.0696C12.6888 80.9739 12.6932 80.887 12.6409 80.887V80.8913Z" fill="#557086"/>
<path d="M51.1444 79.3778L51.6412 80.278L52.6519 80.4733C52.7792 80.4988 52.8302 80.6559 52.741 80.7494L52.0361 81.5009L52.1635 82.5243C52.1805 82.6559 52.0446 82.7494 51.93 82.6942L51 82.2568L50.0701 82.6942C49.9512 82.7494 49.8196 82.6517 49.8366 82.5243L49.964 81.5009L49.2591 80.7494C49.1699 80.6559 49.2209 80.4988 49.3482 80.4733L50.3589 80.278L50.8557 79.3778C50.9194 79.2632 51.085 79.2632 51.1444 79.3778Z" fill="#FFC200"/>
<path d="M51 79.2929C51.0552 79.2929 51.1147 79.3226 51.1444 79.3778L51.6412 80.278L52.6519 80.4733C52.7792 80.4988 52.8302 80.6559 52.741 80.7494L52.0361 81.5009L52.1635 82.5243C52.1763 82.6262 52.0955 82.7111 51.9979 82.7111C51.9766 82.7111 51.9512 82.7069 51.9257 82.6942L50.9958 82.2568L50.0658 82.6942C50.0403 82.7069 50.0191 82.7111 49.9936 82.7111C49.9002 82.7111 49.8153 82.6262 49.828 82.5243L49.9554 81.5009L49.2505 80.7494C49.1614 80.6559 49.2123 80.4988 49.3397 80.4733L50.3503 80.278L50.8471 79.3778C50.8769 79.3226 50.9363 79.2929 50.9915 79.2929M51 79.0806C50.8641 79.0806 50.7367 79.157 50.6688 79.2759L50.2187 80.0912L49.3057 80.2653C49.1699 80.2908 49.0594 80.3884 49.017 80.5201C48.9745 80.6517 49.0085 80.7961 49.1019 80.8937L49.7389 81.5731L49.6242 82.4946C49.6115 82.6007 49.6454 82.7111 49.7134 82.7918C49.7856 82.8725 49.8875 82.9192 49.9979 82.9192C50.0531 82.9192 50.1083 82.9065 50.1592 82.881L51 82.4861L51.8408 82.881C51.8917 82.9065 51.9469 82.9192 52.0021 82.9192C52.1125 82.9192 52.2144 82.8725 52.2866 82.7918C52.3588 82.7111 52.3928 82.6007 52.3758 82.4946L52.2611 81.5731L52.8981 80.8937C52.9915 80.7918 53.0255 80.6474 52.983 80.5201C52.9406 80.3884 52.8301 80.2908 52.6943 80.2653L51.7813 80.0912L51.3312 79.2759C51.2633 79.157 51.1359 79.0806 51 79.0806Z" fill="#213743"/>
<path d="M51 79.8152V80.9744C51 81.0678 51.0892 81.1315 51.1784 81.106L52.2187 80.7706C52.2739 80.7536 52.2697 80.6729 52.2102 80.6602L51.5563 80.5413C51.4969 80.5286 51.4417 80.4903 51.4119 80.4351L51.085 79.7939C51.0637 79.7515 50.9958 79.7642 50.9958 79.8152H51Z" fill="#FFEBB8"/>
<path d="M51 81.4924V82.0699C51 82.1039 51.017 82.1294 51.0467 82.1464L51.7983 82.5073C51.8366 82.5243 51.8705 82.4818 51.845 82.4479L51.0935 81.4627C51.0637 81.4245 51 81.4457 51 81.4924Z" fill="#FF7F00"/>
<path d="M56.1444 79.3778L56.6412 80.278L57.6519 80.4733C57.7792 80.4988 57.8302 80.6559 57.741 80.7494L57.0361 81.5009L57.1635 82.5243C57.1805 82.6559 57.0446 82.7494 56.93 82.6942L56 82.2568L55.0701 82.6942C54.9512 82.7494 54.8196 82.6517 54.8366 82.5243L54.964 81.5009L54.2591 80.7494C54.1699 80.6559 54.2209 80.4988 54.3482 80.4733L55.3589 80.278L55.8557 79.3778C55.9194 79.2632 56.085 79.2632 56.1444 79.3778Z" fill="#FFC200"/>
<path d="M56 79.2929C56.0552 79.2929 56.1147 79.3226 56.1444 79.3778L56.6412 80.278L57.6519 80.4733C57.7792 80.4988 57.8302 80.6559 57.741 80.7494L57.0361 81.5009L57.1635 82.5243C57.1763 82.6262 57.0955 82.7111 56.9979 82.7111C56.9766 82.7111 56.9512 82.7069 56.9257 82.6942L55.9958 82.2568L55.0658 82.6942C55.0403 82.7069 55.0191 82.7111 54.9936 82.7111C54.9002 82.7111 54.8153 82.6262 54.828 82.5243L54.9554 81.5009L54.2505 80.7494C54.1614 80.6559 54.2123 80.4988 54.3397 80.4733L55.3503 80.278L55.8471 79.3778C55.8769 79.3226 55.9363 79.2929 55.9915 79.2929M56 79.0806C55.8641 79.0806 55.7367 79.157 55.6688 79.2759L55.2187 80.0912L54.3057 80.2653C54.1699 80.2908 54.0594 80.3884 54.017 80.5201C53.9745 80.6517 54.0085 80.7961 54.1019 80.8937L54.7389 81.5731L54.6242 82.4946C54.6115 82.6007 54.6454 82.7111 54.7134 82.7918C54.7856 82.8725 54.8875 82.9192 54.9979 82.9192C55.0531 82.9192 55.1083 82.9065 55.1592 82.881L56 82.4861L56.8408 82.881C56.8917 82.9065 56.9469 82.9192 57.0021 82.9192C57.1125 82.9192 57.2144 82.8725 57.2866 82.7918C57.3588 82.7111 57.3928 82.6007 57.3758 82.4946L57.2611 81.5731L57.8981 80.8937C57.9915 80.7918 58.0255 80.6474 57.983 80.5201C57.9406 80.3884 57.8301 80.2908 57.6943 80.2653L56.7813 80.0912L56.3312 79.2759C56.2633 79.157 56.1359 79.0806 56 79.0806Z" fill="#213743"/>
<path d="M56 79.8152V80.9744C56 81.0678 56.0892 81.1315 56.1784 81.106L57.2187 80.7706C57.2739 80.7536 57.2697 80.6729 57.2102 80.6602L56.5563 80.5413C56.4969 80.5286 56.4417 80.4903 56.4119 80.4351L56.085 79.7939C56.0637 79.7515 55.9958 79.7642 55.9958 79.8152H56Z" fill="#FFEBB8"/>
<path d="M56 81.4924V82.0699C56 82.1039 56.017 82.1294 56.0467 82.1464L56.7983 82.5073C56.8366 82.5243 56.8705 82.4818 56.845 82.4479L56.0935 81.4627C56.0637 81.4245 56 81.4457 56 81.4924Z" fill="#FF7F00"/>
<rect x="13" y="62" width="37" height="13" rx="6.5" fill="#2F4553"/>
<path d="M29.9644 70.072C29.1004 70.072 28.2664 69.73 28.2664 68.944C28.2664 68.488 28.6144 68.116 29.0764 67.936C28.6504 67.774 28.3324 67.486 28.3324 67.006C28.3324 66.232 29.1784 65.938 29.9644 65.938C30.7444 65.938 31.5964 66.232 31.5964 67.006C31.5964 67.486 31.2724 67.774 30.8464 67.936C31.3084 68.116 31.6564 68.488 31.6564 68.944C31.6564 69.724 30.8284 70.072 29.9644 70.072ZM29.9644 67.534C30.2104 67.498 30.5404 67.372 30.5404 67.156C30.5404 66.934 30.3064 66.796 29.9644 66.796C29.6104 66.796 29.3824 66.934 29.3824 67.156C29.3824 67.372 29.7184 67.498 29.9644 67.534ZM29.9644 69.214C30.3364 69.214 30.6124 69.058 30.6124 68.824C30.6124 68.578 30.2164 68.434 29.9644 68.404C29.7064 68.434 29.3164 68.578 29.3164 68.824C29.3164 69.058 29.5804 69.214 29.9644 69.214ZM34.9273 70H33.9133L33.3553 69.124L32.7913 70H31.7833L32.7733 68.512L31.8433 67.102H32.8573L33.3553 67.888L33.8473 67.102H34.8613L33.9373 68.512L34.9273 70Z" fill="white"/>
<path d="M8.03 11H7.215L6.56 9.815H6.04V11H5.33V7.665H6.89C7.585 7.665 8.01 8.12 8.01 8.74C8.01 9.33 7.64 9.645 7.28 9.73L8.03 11ZM6.785 9.19C7.07 9.19 7.285 9.02 7.285 8.74C7.285 8.46 7.07 8.29 6.785 8.29H6.04V9.19H6.785ZM10.5152 11H9.88023V10.75C9.71523 10.945 9.43023 11.06 9.11523 11.06C8.73023 11.06 8.27523 10.8 8.27523 10.26C8.27523 9.695 8.73023 9.48 9.11523 9.48C9.43523 9.48 9.72023 9.585 9.88023 9.775V9.45C9.88023 9.205 9.67023 9.045 9.35023 9.045C9.09023 9.045 8.85023 9.14 8.64523 9.33L8.40523 8.905C8.70023 8.645 9.08023 8.525 9.46023 8.525C10.0102 8.525 10.5152 8.745 10.5152 9.44V11ZM9.37023 10.63C9.57523 10.63 9.77523 10.56 9.88023 10.42V10.12C9.77523 9.98 9.57523 9.91 9.37023 9.91C9.12023 9.91 8.91523 10.04 8.91523 10.275C8.91523 10.5 9.12023 10.63 9.37023 10.63ZM11.7801 11H11.1451V8.585H11.7801V8.915C11.9501 8.7 12.2501 8.525 12.5501 8.525V9.145C12.5051 9.135 12.4451 9.13 12.3751 9.13C12.1651 9.13 11.8851 9.25 11.7801 9.405V11ZM14.0818 11.06C13.3468 11.06 12.7918 10.565 12.7918 9.79C12.7918 9.09 13.3068 8.525 14.0418 8.525C14.7618 8.525 15.2518 9.065 15.2518 9.855V9.995H13.4568C13.4968 10.3 13.7418 10.555 14.1518 10.555C14.3568 10.555 14.6418 10.465 14.7968 10.315L15.0768 10.725C14.8368 10.945 14.4568 11.06 14.0818 11.06ZM14.6368 9.565C14.6218 9.335 14.4618 9.03 14.0418 9.03C13.6468 9.03 13.4768 9.325 13.4468 9.565H14.6368Z" fill="#05080A"/>
<path d="M48.8187 11H48.3667L46.9747 9.096V11H46.5067V8.332H46.9867L48.3507 10.184V8.332H48.8187V11ZM50.2456 11.048C49.6336 11.048 49.2536 10.588 49.2536 10.032C49.2536 9.48 49.6336 9.02 50.2456 9.02C50.8656 9.02 51.2416 9.48 51.2416 10.032C51.2416 10.588 50.8656 11.048 50.2456 11.048ZM50.2456 10.676C50.6056 10.676 50.8056 10.376 50.8056 10.032C50.8056 9.692 50.6056 9.392 50.2456 9.392C49.8896 9.392 49.6896 9.692 49.6896 10.032C49.6896 10.376 49.8896 10.676 50.2456 10.676ZM51.863 11.044C51.711 11.044 51.583 10.916 51.583 10.764C51.583 10.612 51.711 10.484 51.863 10.484C52.015 10.484 52.143 10.612 52.143 10.764C52.143 10.916 52.015 11.044 51.863 11.044ZM55.2348 11H54.7668V10.396H53.4948V10.02L54.5908 8.332H55.2348V9.984H55.5908V10.396H55.2348V11ZM54.7668 9.984V8.752L53.9548 9.984H54.7668ZM56.8071 11.048C56.3311 11.048 55.9791 10.856 55.7991 10.616L56.0511 10.308C56.2231 10.508 56.5071 10.632 56.7911 10.632C57.1431 10.632 57.3471 10.472 57.3471 10.224C57.3471 9.96 57.1351 9.848 56.7551 9.848C56.6431 9.848 56.4871 9.848 56.4471 9.852V9.432C56.4951 9.436 56.6511 9.436 56.7551 9.436C57.0671 9.436 57.3031 9.328 57.3031 9.084C57.3031 8.836 57.0631 8.708 56.7631 8.708C56.4911 8.708 56.2671 8.812 56.0751 9.004L55.8351 8.712C56.0391 8.472 56.3631 8.292 56.8071 8.292C57.3831 8.292 57.7711 8.564 57.7711 9.012C57.7711 9.368 57.4671 9.576 57.1911 9.624C57.4511 9.648 57.8111 9.86 57.8111 10.272C57.8111 10.724 57.4231 11.048 56.8071 11.048Z" fill="white"/>
<defs>
<linearGradient id="paint0_linear_26835_29206" x1="-15.1047" y1="43.3256" x2="84.0846" y2="34.0717" gradientUnits="userSpaceOnUse">
<stop stop-color="#376473"/>
<stop offset="1" stop-color="#1A2C37"/>
</linearGradient>
<linearGradient id="paint1_linear_26835_29206" x1="-18.8618" y1="40.3017" x2="84.1409" y2="30.6921" gradientUnits="userSpaceOnUse">
<stop stop-color="#4FA9DE"/>
<stop offset="1" stop-color="#1B2E3A" stop-opacity="0"/>
</linearGradient>
<linearGradient id="paint2_linear_26835_29206" x1="39.8872" y1="61.4557" x2="57.6239" y2="20.0089" gradientUnits="userSpaceOnUse">
<stop stop-color="#4FA9DE"/>
<stop offset="1" stop-color="#1B2E3A" stop-opacity="0"/>
</linearGradient>
<linearGradient id="paint3_linear_26835_29206" x1="34.1741" y1="36.0668" x2="74.8589" y2="18.7225" gradientUnits="userSpaceOnUse">
<stop stop-color="#55DFFF" stop-opacity="0.6"/>
<stop offset="1" stop-color="#55DFFF" stop-opacity="0"/>
</linearGradient>
<linearGradient id="paint4_linear_26835_29206" x1="54.5871" y1="29.8737" x2="40.998" y2="38.0514" gradientUnits="userSpaceOnUse">
<stop stop-color="#376473" stop-opacity="0"/>
<stop offset="1" stop-color="#1A2C37"/>
</linearGradient>
</defs>
</svg>
