<svg width="63" height="88" viewBox="0 0 63 88" fill="none" xmlns="http://www.w3.org/2000/svg">
<rect width="63" height="88" rx="4" fill="#1CE61C"/>
<path d="M36.7008 13.5133L44.7992 3.48665C45.5586 2.54645 46.7024 2 47.911 2H58C59.6569 2 61 3.34314 61 5V83C61 84.6569 59.6569 86 58 86H5C3.34315 86 2 84.6569 2 83V18C2 16.3431 3.34315 15 5 15H33.589C34.7976 15 35.9414 14.4536 36.7008 13.5133Z" fill="#213743"/>
<mask id="mask0_26835_29207" style="mask-type:luminance" maskUnits="userSpaceOnUse" x="0" y="0" width="63" height="88">
<path d="M59 0H4C1.79 0 0 1.79 0 4V84C0 86.21 1.79 88 4 88H59C61.21 88 63 86.21 63 84V4C63 1.79 61.21 0 59 0ZM61 82.81C61 84.57 59.57 86 57.81 86H5.19C3.43 86 2 84.57 2 82.81V18.19C2 16.43 3.43 15 5.19 15H33.59C34.8 15 35.94 14.45 36.7 13.51L44.8 3.48C45.56 2.54 46.7 1.99 47.91 1.99H57.81C59.57 1.99 61 3.42 61 5.18V82.8V82.81Z" fill="white"/>
</mask>
<g mask="url(#mask0_26835_29207)">
<path d="M68.37 47.3199V26.6399L4.46001 90.5499H25.13L68.37 47.3199Z" fill="white"/>
<path d="M64.66 -2.29004H55.22L-2.92 55.84V66.18L65.46 -2.20004C65.2 -2.26004 64.93 -2.29004 64.66 -2.29004Z" fill="white"/>
<path d="M68.37 69.23V61.55L39.37 90.55H47.05L68.37 69.23Z" fill="white"/>
</g>
<rect x="5" y="18" width="53" height="40" rx="1" fill="#2F4553"/>
<mask id="mask1_26835_29207" style="mask-type:luminance" maskUnits="userSpaceOnUse" x="4" y="17" width="54" height="41">
<path d="M57.99 18.9998V56.9998C57.99 57.5498 57.55 57.9998 56.99 57.9998H5.98999C5.43999 57.9998 4.98999 57.5498 4.98999 56.9998V18.9998C4.98999 18.6398 5.17999 18.3198 5.46999 18.1498C5.61999 18.0498 5.79999 17.9998 5.98999 17.9998H56.99C57.55 17.9998 57.99 18.4498 57.99 18.9998Z" fill="white"/>
</mask>
<g mask="url(#mask1_26835_29207)">
<path d="M29.35 78.5497C51.8721 78.5497 70.13 60.2919 70.13 37.7697C70.13 15.2476 51.8721 -3.01025 29.35 -3.01025C6.8278 -3.01025 -11.43 15.2476 -11.43 37.7697C-11.43 60.2919 6.8278 78.5497 29.35 78.5497Z" fill="#FF5900"/>
<path d="M36.4 84.8297C62.3905 84.8297 83.46 63.7602 83.46 37.7697C83.46 11.7792 62.3905 -9.29028 36.4 -9.29028C10.4094 -9.29028 -10.66 11.7792 -10.66 37.7697C-10.66 63.7602 10.4094 84.8297 36.4 84.8297Z" fill="#FF9D00"/>
<path d="M29.87 78.3097C52.2596 78.3097 70.41 60.1594 70.41 37.7697C70.41 15.3801 52.2596 -2.77026 29.87 -2.77026C7.48036 -2.77026 -10.67 15.3801 -10.67 37.7697C-10.67 60.1594 7.48036 78.3097 29.87 78.3097Z" fill="#FF5900"/>
<path d="M23.89 72.3297C42.977 72.3297 58.45 56.8567 58.45 37.7697C58.45 18.6828 42.977 3.20972 23.89 3.20972C4.80303 3.20972 -10.67 18.6828 -10.67 37.7697C-10.67 56.8567 4.80303 72.3297 23.89 72.3297Z" fill="#FF9D00"/>
<path d="M18.97 67.0497C35.1409 67.0497 48.25 53.9406 48.25 37.7697C48.25 21.5989 35.1409 8.48975 18.97 8.48975C2.79907 8.48975 -10.31 21.5989 -10.31 37.7697C-10.31 53.9406 2.79907 67.0497 18.97 67.0497Z" fill="#FF5900"/>
<path d="M15.35 62.5198C29.019 62.5198 40.1 51.4388 40.1 37.7698C40.1 24.1007 29.019 13.0198 15.35 13.0198C1.68093 13.0198 -9.40002 24.1007 -9.40002 37.7698C-9.40002 51.4388 1.68093 62.5198 15.35 62.5198Z" fill="#FF9D00"/>
<path d="M12.38 59.5897C24.4308 59.5897 34.2 49.8206 34.2 37.7697C34.2 25.7189 24.4308 15.9497 12.38 15.9497C0.329114 15.9497 -9.44003 25.7189 -9.44003 37.7697C-9.44003 49.8206 0.329114 59.5897 12.38 59.5897Z" fill="#FF5900"/>
<path d="M13.69 55.6197C23.5483 55.6197 31.54 47.628 31.54 37.7697C31.54 27.9114 23.5483 19.9197 13.69 19.9197C3.8317 19.9197 -4.16002 27.9114 -4.16002 37.7697C-4.16002 47.628 3.8317 55.6197 13.69 55.6197Z" fill="#FF9D00"/>
<path d="M16.82 52.5398C24.9772 52.5398 31.59 45.927 31.59 37.7698C31.59 29.6125 24.9772 22.9998 16.82 22.9998C8.66273 22.9998 2.04997 29.6125 2.04997 37.7698C2.04997 45.927 8.66273 52.5398 16.82 52.5398Z" fill="#FF5900"/>
<path d="M18.12 46.9496C23.1899 46.9496 27.3 42.8396 27.3 37.7696C27.3 32.6996 23.1899 28.5896 18.12 28.5896C13.05 28.5896 8.93997 32.6996 8.93997 37.7696C8.93997 42.8396 13.05 46.9496 18.12 46.9496Z" fill="#FF9D00"/>
<path d="M19.85 42.3897C22.4015 42.3897 24.47 40.3212 24.47 37.7697C24.47 35.2181 22.4015 33.1497 19.85 33.1497C17.2984 33.1497 15.23 35.2181 15.23 37.7697C15.23 40.3212 17.2984 42.3897 19.85 42.3897Z" fill="white"/>
</g>
<path d="M45.56 18.5997L36.73 17.0597C36.26 16.9797 35.77 16.9697 35.3 17.0397L27.32 18.2597L36.02 20.4097L45.57 18.5897L45.56 18.5997Z" fill="#FF5500"/>
<path d="M36.0217 12.3755L32.5973 21.0113C32.4425 21.4015 32.6334 21.8432 33.0236 21.9979L39.1031 24.4086C39.4933 24.5634 39.935 24.3725 40.0897 23.9823L43.5141 15.3465C43.6688 14.9563 43.478 14.5146 43.0878 14.3598L37.0083 11.9491C36.6181 11.7944 36.1764 11.9853 36.0217 12.3755Z" fill="#E9113C"/>
<path d="M38.15 19.8098C38.8569 19.8098 39.43 19.2367 39.43 18.5298C39.43 17.8228 38.8569 17.2498 38.15 17.2498C37.4431 17.2498 36.87 17.8228 36.87 18.5298C36.87 19.2367 37.4431 19.8098 38.15 19.8098Z" fill="#AD0D2D"/>
<path d="M43.46 15.4898L42.55 17.7898C42.33 18.0098 42.05 18.1498 41.74 18.2098L37.77 18.9098L35.36 15.6798C35.17 15.4298 35.07 15.1198 35.06 14.8198L35.97 12.5198C36.17 12.3798 36.44 12.3398 36.7 12.4398L43 14.9398C43.25 15.0398 43.42 15.2498 43.47 15.4898H43.46Z" fill="#FF7F00"/>
<path d="M42.01 17.5098L38.04 18.2198L35.63 14.9798C35.3 14.5398 35.23 13.9698 35.43 13.4598L35.94 12.1798C36.1 11.7798 36.56 11.5798 36.96 11.7398L43.26 14.2398C43.66 14.3998 43.86 14.8598 43.7 15.2598L43.19 16.5398C42.99 17.0498 42.54 17.4098 42 17.5098H42.01Z" fill="#E9113C"/>
<path d="M38.1066 13.1125C38.2015 12.8709 37.895 12.5245 37.4221 12.3388C36.9491 12.153 36.4888 12.1984 36.3939 12.44C36.2991 12.6816 36.6055 13.028 37.0785 13.2137C37.5514 13.3995 38.0117 13.3541 38.1066 13.1125Z" fill="white"/>
<path d="M38.08 19.3998C38.7869 19.3998 39.36 18.8268 39.36 18.1198C39.36 17.4129 38.7869 16.8398 38.08 16.8398C37.3731 16.8398 36.8 17.4129 36.8 18.1198C36.8 18.8268 37.3731 19.3998 38.08 19.3998Z" fill="#FFC201"/>
<path d="M38.08 18.9198C38.5218 18.9198 38.88 18.5617 38.88 18.1198C38.88 17.678 38.5218 17.3198 38.08 17.3198C37.6382 17.3198 37.28 17.678 37.28 18.1198C37.28 18.5617 37.6382 18.9198 38.08 18.9198Z" fill="#FF7F00"/>
<path d="M42.1454 11.513C42.525 10.0824 42.6293 8.86867 42.3784 8.8021C42.1275 8.73553 41.6164 9.84132 41.2368 11.2719C40.8572 12.7026 40.7529 13.9163 41.0038 13.9828C41.2547 14.0494 41.7658 12.9436 42.1454 11.513Z" fill="#FFC201"/>
<path d="M43.1579 11.7864C43.5375 10.3558 43.6418 9.14211 43.391 9.07554C43.1401 9.00897 42.629 10.1148 42.2494 11.5454C41.8698 12.976 41.7654 14.1897 42.0163 14.2563C42.2672 14.3228 42.7783 13.2171 43.1579 11.7864Z" fill="#FFC201"/>
<path d="M43.4065 9.07287L42.3819 8.80103L41.0073 13.9818L42.0319 14.2536L43.4065 9.07287Z" fill="#FFC201"/>
<path d="M43.0171 11.7495C43.2749 10.7779 43.367 9.95934 43.2229 9.9211C43.0788 9.88286 42.7529 10.6394 42.4952 11.611C42.2374 12.5825 42.1453 13.4011 42.2894 13.4394C42.4335 13.4776 42.7593 12.721 43.0171 11.7495Z" fill="#F87915"/>
<path d="M43.6418 19.8669C44.491 18.6546 44.8127 17.415 44.3603 17.0982C43.908 16.7813 42.8529 17.5072 42.0037 18.7195C41.1545 19.9318 40.8329 21.1714 41.2852 21.4883C41.7376 21.8051 42.7927 21.0792 43.6418 19.8669Z" fill="#FFC201"/>
<path d="M42.8163 19.2859C43.6655 18.0736 43.9872 16.834 43.5348 16.5171C43.0825 16.2002 42.0274 16.9261 41.1782 18.1384C40.329 19.3507 40.0074 20.5904 40.4597 20.9072C40.9121 21.2241 41.9672 20.4982 42.8163 19.2859Z" fill="#FFC201"/>
<path d="M40.4657 20.9082L41.2847 21.4819L44.3599 17.0918L43.5408 16.5181L40.4657 20.9082Z" fill="#FFC201"/>
<path d="M42.367 18.9571C42.9437 18.1338 43.2058 17.3225 42.9525 17.1451C42.6992 16.9677 42.0263 17.4912 41.4496 18.3145C40.873 19.1378 40.6108 19.949 40.8641 20.1265C41.1175 20.3039 41.7903 19.7803 42.367 18.9571Z" fill="#F87915"/>
<path d="M33.8775 20.0877C34.1353 19.1162 33.0893 17.9956 31.5413 17.5848C29.9932 17.1741 28.5293 17.6287 28.2715 18.6002C28.0137 19.5718 29.0597 20.6924 30.6078 21.1031C32.1558 21.5139 33.6197 21.0592 33.8775 20.0877Z" fill="#FFC201"/>
<path d="M34.1914 18.9453L28.595 17.4604L28.2924 18.601L33.8887 20.0859L34.1914 18.9453Z" fill="#FFC201"/>
<path d="M34.1826 18.9454C34.4404 17.9738 33.3944 16.8533 31.8463 16.4425C30.2983 16.0318 28.8344 16.4864 28.5766 17.4579C28.3188 18.4295 29.3648 19.55 30.9128 19.9608C32.4609 20.3715 33.9248 19.9169 34.1826 18.9454Z" fill="#FFC201"/>
<path d="M33.2603 18.5595C33.409 17.999 32.703 17.3253 31.6835 17.0548C30.6639 16.7843 29.7168 17.0193 29.5681 17.5798C29.4193 18.1403 30.1253 18.814 31.1449 19.0846C32.1645 19.3551 33.1116 19.12 33.2603 18.5595Z" fill="#F87915"/>
<path d="M25.22 23.6997C25.31 23.6397 25.38 23.5497 25.42 23.4497L26.31 20.8697C26.37 20.6897 26.33 20.4997 26.2 20.3597C26.07 20.2297 25.88 20.1697 25.7 20.2197L23.89 20.7397L24.49 18.6597C24.57 18.3997 24.41 18.1197 24.15 18.0397C23.89 17.9597 23.61 18.1197 23.53 18.3797L22.69 21.3197C22.64 21.4897 22.69 21.6797 22.82 21.8097C22.95 21.9397 23.14 21.9897 23.31 21.9397L25.06 21.4397L24.48 23.1097C24.39 23.3697 24.53 23.6497 24.79 23.7397C24.94 23.7897 25.1 23.7697 25.23 23.6797L25.22 23.6997Z" fill="white"/>
<path d="M23.98 19.1998C24.4992 19.1998 24.92 18.779 24.92 18.2598C24.92 17.7407 24.4992 17.3198 23.98 17.3198C23.4609 17.3198 23.04 17.7407 23.04 18.2598C23.04 18.779 23.4609 19.1998 23.98 19.1998Z" fill="white"/>
<path d="M43.54 49.6997C43.51 49.8697 43.47 50.0297 43.43 50.1997C43.4 50.3197 43.37 50.4397 43.33 50.5597C42.53 53.4897 40.84 56.0797 38.54 57.9997H19.57C17.42 56.2097 15.77 53.8097 14.91 51.0297C14.71 50.3797 14.55 49.6997 14.44 49.0097C14.41 48.8297 14.38 48.6497 14.36 48.4697L13.89 44.6397C13.89 44.6397 13.88 44.5697 13.87 44.5397C13.87 44.5197 13.86 44.4997 13.86 44.4797L13.52 41.7697L13.48 41.4597L13.22 39.3397C13.11 38.4597 13.08 37.5897 13.12 36.7397C13.35 32.0597 15.8 27.8397 19.54 25.2797C21.01 24.2697 22.67 23.5197 24.48 23.0997C24.85 23.0097 25.23 22.9297 25.62 22.8697C25.77 22.8497 25.92 22.8297 26.07 22.8097C26.5 22.7497 26.93 22.7197 27.36 22.7097C28.64 22.6497 29.9 22.7697 31.1 23.0397H31.11C31.76 23.1797 32.38 23.3597 32.99 23.5897C33.14 23.6397 33.3 23.6997 33.45 23.7597H33.46C34.36 24.1297 35.21 24.5797 36.01 25.1097C36.81 25.6197 37.55 26.2197 38.23 26.8797C38.53 27.1697 38.82 27.4797 39.09 27.7997C39.14 27.8497 39.18 27.8897 39.21 27.9397C39.34 28.0797 39.46 28.2297 39.58 28.3797C40.05 28.9897 40.48 29.6297 40.86 30.3097C41.04 30.6397 41.21 30.9797 41.37 31.3297C41.53 31.6597 41.67 31.9697 41.79 32.3197H41.8V32.3597C42.18 33.3997 42.46 34.5097 42.6 35.6597V35.7697L42.77 36.9697L42.8 37.2797L42.84 37.5197L43.09 39.5197L43.16 40.0797L43.39 41.9597L43.75 44.7697C43.79 45.0397 43.81 45.3197 43.83 45.5897C43.83 45.6097 43.84 45.6297 43.84 45.6497C43.92 47.0397 43.82 48.3897 43.54 49.6897V49.6997Z" fill="white"/>
<path d="M13.12 36.7398C13.12 36.7398 11.22 22.6798 12.54 20.6798C13.86 18.6798 19.6 25.3498 19.6 25.3498C19.6 25.3498 17.4 35.4098 13.12 36.7298V36.7398Z" fill="white"/>
<path d="M28.06 40.9999C28.06 40.9999 25.46 41.8399 24.39 41.2699C23.32 40.6999 23.25 43.9299 27.73 42.9199C31.26 42.1299 31.47 40.4199 30.87 39.9299C30.27 39.4399 29.7 40.5099 28.06 40.9999Z" fill="#071D2A"/>
<path d="M23.97 40.4799L24.21 41.4399C24.28 41.7399 24.55 41.9399 24.86 41.9399C24.91 41.9399 24.95 41.9399 25 41.9399C24.98 41.7299 25.11 41.5299 25.32 41.4799C25.55 41.4199 25.78 41.5599 25.84 41.7999C25.84 41.8399 25.85 41.8699 25.85 41.9099C27.45 41.7799 28.95 41.3499 30.33 40.6299C30.6 40.4899 30.74 40.1799 30.67 39.8899L30.43 38.9199C28.4 40.0899 26.25 40.6299 23.97 40.4999V40.4799Z" fill="white"/>
<path d="M25.53 26.7499C26.5 26.6899 27.42 26.8499 28.25 27.1799C27.31 26.1199 25.85 25.4699 24.24 25.5699C21.6 25.7299 19.57 27.8299 19.72 30.2499C19.75 30.6799 19.84 31.0799 19.99 31.4599C20.38 28.9399 22.66 26.9199 25.53 26.7399V26.7499Z" fill="#E8F1F7"/>
<path d="M25.34 38.51C28.3113 38.51 30.72 36.1013 30.72 33.13C30.72 30.1587 28.3113 27.75 25.34 27.75C22.3687 27.75 19.96 30.1587 19.96 33.13C19.96 36.1013 22.3687 38.51 25.34 38.51Z" fill="#E4E6EC"/>
<path d="M25.62 37.77C28.5913 37.77 31 35.3613 31 32.39C31 29.4187 28.5913 27.01 25.62 27.01C22.6487 27.01 20.24 29.4187 20.24 32.39C20.24 35.3613 22.6487 37.77 25.62 37.77Z" fill="#213743"/>
<path d="M25.8 36.78C28.4896 36.78 30.67 34.5997 30.67 31.91C30.67 29.2204 28.4896 27.04 25.8 27.04C23.1104 27.04 20.93 29.2204 20.93 31.91C20.93 34.5997 23.1104 36.78 25.8 36.78Z" fill="#071D2A"/>
<path d="M26.34 33.6798C27.2678 33.6798 28.02 32.9277 28.02 31.9998C28.02 31.072 27.2678 30.3198 26.34 30.3198C25.4122 30.3198 24.66 31.072 24.66 31.9998C24.66 32.9277 25.4122 33.6798 26.34 33.6798Z" fill="white"/>
<path d="M23.59 33.72C23.9158 33.72 24.18 33.4559 24.18 33.13C24.18 32.8042 23.9158 32.54 23.59 32.54C23.2642 32.54 23 32.8042 23 33.13C23 33.4559 23.2642 33.72 23.59 33.72Z" fill="white"/>
<path d="M44.35 57.9998H33.01L37.97 52.3098L38.6 51.5898L40.69 49.1998L43.66 45.7998L43.83 45.5998L43.86 45.5698V45.6398C43.88 46.0098 43.97 47.6098 44.07 49.7898C44.18 52.1398 44.29 55.1398 44.35 57.9998Z" fill="white"/>
<path d="M32.65 49.0998C32.65 49.0998 33.63 53.0098 38.43 52.2698C43.23 51.5298 44.08 49.7998 44.08 49.7998L32.8 47.8298L32.65 49.1098V49.0998Z" fill="#E8F1F7"/>
<path d="M28.65 57.9997H15.22C15.17 57.4997 15.12 57.0097 15.07 56.5397C15.05 56.3897 15.04 56.2397 15.02 56.0897C14.87 53.2497 14.84 51.0497 14.84 51.0497C14.86 51.0397 14.89 51.0297 14.91 51.0297C15.24 50.9197 15.57 50.8397 15.92 50.8097C16.44 50.7597 16.99 50.7897 17.55 50.8797C19.41 51.1997 21.4 52.2697 23.24 53.5197C23.24 53.5197 23.25 53.5297 23.26 53.5297C23.56 53.7297 23.85 53.9397 24.14 54.1497C26.02 55.5297 27.65 57.0297 28.65 57.9997Z" fill="white"/>
<path d="M15.27 57.9998H15.13C15.09 57.3398 15.05 56.6998 15.02 56.0898C15.04 56.2398 15.05 56.3898 15.07 56.5398C15.13 57.0098 15.19 57.4998 15.27 57.9998Z" fill="#E8F1F7"/>
<path d="M27.42 36.7399L36.17 34.9299L44.18 35.9799C44.38 35.9899 44.44 36.2499 44.28 36.3499L39.08 39.6299L27.42 36.7399Z" fill="#FF7F00"/>
<path d="M43.96 38.8599V45.5699L38.49 49.7899V43.0199L43.96 38.8599Z" fill="#FF5500"/>
<path d="M39.7 38.4799L44.38 36.1899V37.2699V38.6199C44.38 38.9699 44.22 39.2999 43.94 39.5099L39.67 42.7099C39.43 42.8899 39.08 42.7099 39.08 42.4099V39.4699C39.08 39.0499 39.32 38.6599 39.7 38.4799Z" fill="#FF7F00"/>
<path d="M28.49 31.1698L40.86 33.1398V32.2098L28.47 31.0198L28.49 31.1698Z" fill="#FF5500"/>
<path d="M43.96 29.5999V36.9299L40.86 38.5699V30.1799L43.96 29.5999Z" fill="#FF7F00"/>
<path d="M27.35 40.4998V47.0498L38.49 49.7898V43.0198L27.35 40.4998Z" fill="#FF7F00"/>
<path d="M27.35 41.46C29.48 42.34 33.88 45.51 33.88 48.48L27.35 46.03V41.46Z" fill="#FFC201"/>
<path d="M34.32 41.7898V48.7698L33.79 48.6298L31.72 48.1198V41.5798L32.42 41.6398L34.32 41.7898Z" fill="#047BFF"/>
<path d="M39.86 42.5599C39.46 42.8499 39.22 43.1699 38.15 42.9399C37.08 42.7099 39 41.9399 39 41.9399L39.85 42.5599H39.86Z" fill="#FF7F00"/>
<path d="M27.58 36.7498L38.36 38.6598C38.78 38.7298 39.08 39.0998 39.08 39.5198V42.4598C39.08 42.8098 38.75 43.0798 38.41 42.9998L27.62 40.6698C27.22 40.5798 26.93 40.2298 26.93 39.8098V37.2898C26.93 36.9398 27.24 36.6798 27.58 36.7398V36.7498Z" fill="#FFC201"/>
<path d="M30.88 41.3798V37.8098L33.96 37.8598V42.0398L30.88 41.3798Z" fill="#45A7FF"/>
<path d="M29.48 36.45L29.75 37.84C29.86 38.41 30.39 38.7999 30.96 38.7399L36.57 38.1199L29.48 36.45Z" fill="#FF7F00"/>
<path d="M30.88 38.7499V37.6399L33.96 37.9199V38.4099L30.88 38.7499Z" fill="#1A2C38"/>
<path d="M28.49 36.3999V30.6399L40.87 31.2899V37.3599C40.87 38.0199 40.31 38.5299 39.65 38.4699L29.5 37.5199C28.93 37.4699 28.49 36.9899 28.49 36.4099V36.3999Z" fill="#FFC201"/>
<path d="M28.49 31.6199C30.59 31.8699 39.9 33.9699 40.88 34.7699V30.9699L28.49 30.8599V31.6299V31.6199Z" fill="#FF7F00"/>
<path d="M40.56 31.6199L29.01 31.0199C28.42 30.9899 27.96 30.4999 27.96 29.9099V27.6499C27.96 27.0199 28.48 26.5199 29.11 26.5399L41.73 27.0099V30.5099C41.73 31.1499 41.2 31.6499 40.56 31.6199Z" fill="#FFC201"/>
<path d="M34.32 28.3499C33.66 29.3099 33.64 30.8299 33.79 31.5299L32.86 31.4399C32.86 31.4399 31.47 29.3899 32.37 28.5099C33.27 27.6299 34.32 28.3499 34.32 28.3499Z" fill="#FF7F00"/>
<path d="M32.02 27.6899C32.02 27.6899 30.54 27.9199 30.53 31.6799C30.53 34.7699 29.35 35.4099 29.6 35.6499C29.71 35.7499 30.79 35.7499 31.18 35.3599C31.18 35.3599 31.29 37.1699 31.44 37.2499C31.66 37.3599 33.07 36.6399 32.86 33.1999C32.65 29.7599 34.12 28.2999 34.12 28.2999L32.02 27.6999V27.6899Z" fill="#45A7FF"/>
<path d="M44.38 36.9697C44.38 36.9697 47.64 37.7797 47.64 43.7297C47.64 47.9097 43.33 51.6097 38.02 51.6097C34.87 51.6097 33.16 49.3797 34.67 47.6097C34.67 47.6097 34.34 45.4097 36.56 45.5697C36.56 45.5697 42.07 44.9897 43.86 41.1597L43.95 39.4897C43.95 39.4897 44.35 39.1597 44.37 38.6397V36.9697H44.38Z" fill="white"/>
<path d="M43.96 27.1599C43.96 27.1599 50.55 24.9999 50.65 30.4699C50.75 35.9399 52.96 38.7799 52.96 38.7799C52.96 38.7799 50.01 38.3599 49.02 34.5499C48.03 30.7399 49.12 29.4099 47.88 27.4299C46.64 25.4499 45.56 25.5499 45.56 25.5499L43.96 27.1599Z" fill="#047BFF"/>
<path d="M53.43 46.7998C53.07 47.2298 52.69 45.7598 53.04 44.5798C53.04 44.5798 50.65 44.9398 50.52 44.7598C49.9 43.8898 54.79 42.7698 52.97 38.7798C52.97 38.7798 58.83 40.2898 53.43 46.7998Z" fill="white"/>
<path d="M41.73 26.6099L44.72 25.1099V29.6799C44.72 29.7599 44.68 29.8299 44.62 29.8699L41.74 31.6899V26.6099H41.73Z" fill="#FF7F00"/>
<path d="M37.06 28.5399L44.75 26.3999C45.23 26.2699 45.56 25.8299 45.56 25.3299V18.5999L36.01 20.4199V27.7499C36.01 28.2999 36.53 28.6899 37.05 28.5399H37.06Z" fill="#FF7F00"/>
<path d="M36.02 20.4199L37.37 23.2899C37.59 23.7699 38.12 24.0199 38.63 23.8999L45.57 22.2599V21.3799L36.02 20.4199Z" fill="#1A2C38"/>
<path d="M35.04 28.5598C35.72 28.7398 36.11 28.8098 37.06 28.5498C38.01 28.2898 35.92 27.0498 35.92 27.0498L35.04 28.5698V28.5598Z" fill="#FF7F00"/>
<path d="M28.21 26.5998L35.04 28.5498C35.53 28.6898 36.02 28.3198 36.02 27.8098V20.4098L27.32 18.2598L27.41 25.5398C27.41 26.0298 27.74 26.4598 28.22 26.5998H28.21Z" fill="#FFC201"/>
<path d="M36.02 20.4199L33.68 23.2199C33.38 23.5799 32.88 23.7099 32.43 23.5499L27.73 21.7799L36.01 20.4299L36.02 20.4199Z" fill="#FF5500"/>
<path d="M45.56 18.5998L47 20.1998C47.28 20.5198 47.12 21.0198 46.71 21.1098L38.48 22.9898C38.02 23.0998 37.53 22.8898 37.28 22.4898L36 20.4098L45.55 18.5898L45.56 18.5998Z" fill="#FFEBB8"/>
<path d="M27.31 18.2598L25.03 20.1598C24.68 20.4498 24.81 21.0098 25.24 21.1198L32.28 23.0198C32.64 23.1198 33.02 23.0198 33.3 22.7798L36.01 20.4098L27.31 18.2598Z" fill="#FFEBB8"/>
<path d="M31.04 53.0199L13.97 41.3699C13.97 41.3699 13.77 41.4999 13.52 41.7699L14.36 48.4599C14.38 48.6399 14.41 48.8199 14.44 48.9999C14.62 49.2499 14.8 49.5099 15.01 49.7799C20.71 57.0999 31.03 53.0099 31.03 53.0099L31.04 53.0199Z" fill="#E8F1F7"/>
<path d="M26.16 46.1799C26.16 46.1799 28.85 44.6699 29.71 46.4099C29.71 46.4099 33.88 46.4699 33.32 50.3799C32.76 54.2899 24.99 54.5799 20.88 52.7999C16.77 51.0199 13.88 48.3599 13.49 41.4499L18.51 41.3599C18.51 41.3599 19.92 45.8199 26.16 46.1699V46.1799Z" fill="white"/>
<path d="M30.87 12.1898C29.76 12.8998 29.18 13.4798 28.47 14.5898C27.76 13.4798 27.18 12.8998 26.07 12.1898C27.18 11.4798 27.76 10.8998 28.47 9.78979C29.18 10.8998 29.76 11.4798 30.87 12.1898Z" fill="white"/>
<path d="M48.49 16.0198C47.94 16.3698 47.65 16.6598 47.3 17.2098C46.95 16.6598 46.66 16.3698 46.11 16.0198C46.66 15.6698 46.95 15.3798 47.3 14.8298C47.65 15.3798 47.94 15.6698 48.49 16.0198Z" fill="white"/>
<path fill-rule="evenodd" clip-rule="evenodd" d="M6.49771 79C6.98969 79 7.48602 79.213 7.49037 79.6913C7.49037 80.1043 7.24656 80.2696 6.99839 80.2696C6.75023 80.2696 6.73281 80.1435 6.73281 80.1435C6.73281 80.1435 7.02452 79.9261 7.02452 79.7174C7.02452 79.6087 6.94179 79.313 6.489 79.3174C5.8577 79.3174 5.5181 79.6174 5.5181 80.1522C5.5181 80.7652 7.35105 80.9739 7.3554 81.7652C7.3554 82.613 6.47594 82.9957 5.69225 83C5.283 83 5.01306 82.7609 5.00871 82.3783C5.00871 81.9261 5.22204 81.4652 5.75756 81.4652C5.88382 81.4565 5.98831 81.5522 5.99702 81.6783C5.99702 81.6783 5.99702 81.6826 5.99702 81.687C5.99702 81.687 5.45715 81.8391 5.4615 82.3783C5.4615 82.4783 5.56599 82.6609 5.81851 82.6565C6.07103 82.6522 6.82424 82.4739 6.81989 81.8087C6.81989 81.1913 5.00435 81.1087 5 80.1478C5 79.0652 6.08845 79.0087 6.49771 79.0087V79ZM10.747 79.6C10.8123 79.5696 11.2129 79.4913 11.1955 79.813C11.1824 80.1348 10.9386 80.6913 10.9037 80.9348C11.2303 80.7696 11.6918 80.2087 11.6918 80.2087C11.6918 80.2087 12.0183 80.2522 11.9182 80.4522C11.818 80.6522 11.1519 81.1435 11.1519 81.1435C11.1519 81.1435 11.3043 82.5696 12.1707 82.5696C12.6453 82.5696 12.8499 82.3609 12.937 82.287C12.9587 82.2696 12.9762 82.2652 12.9849 82.2783C13.0197 82.387 12.9936 82.5043 12.9152 82.5913C12.8194 82.6957 12.5974 82.8217 12.1533 82.8261C11.3653 82.8261 10.9255 82.1957 10.8123 81.2609C10.7252 81.5348 10.7339 81.9826 10.7209 82.2C10.6948 82.2435 10.2507 82.4174 10.2158 82.1174C10.2158 82.0913 10.2158 82.0696 10.2158 82.0435C10.1331 82.1609 10.0199 82.2826 9.91108 82.2826C9.71951 82.2826 9.63679 82.1217 9.60196 82.0391C9.57584 82.0696 9.3625 82.287 9.08821 82.287C8.92277 82.2913 8.77474 82.1957 8.70943 82.0435C8.57011 82.1435 8.32195 82.2913 8.03895 82.2913C7.73418 82.2913 7.66017 82.1087 7.66017 81.9565C7.66017 81.713 7.84303 80.987 7.84303 80.987C7.84303 80.987 7.48602 81.1304 7.36411 81.1348C7.19431 81.1348 7.11159 80.8217 7.11159 80.813C7.11159 80.8087 7.11159 80.8 7.1203 80.8C7.22044 80.7609 7.94317 80.513 7.94317 80.513C7.94317 80.513 8.07813 79.9826 8.09555 79.913C8.11296 79.8435 8.2131 79.7 8.33065 79.6565C8.41773 79.6217 8.50916 79.6 8.60059 79.5913C8.63107 79.5913 8.65284 79.6 8.65284 79.6174C8.65284 79.6348 8.47433 80.4087 8.47433 80.4087C8.47433 80.4087 8.84876 80.3217 8.98808 80.3217C9.09692 80.3217 9.15352 80.387 9.09257 80.4696C9.03162 80.5522 8.96196 80.6478 8.92712 80.6913C8.88794 80.7348 8.86182 80.7435 8.77039 80.7609C8.64413 80.787 8.36113 80.8565 8.36113 80.8565C8.36113 80.8565 8.13473 81.6783 8.13909 81.8174C8.13909 81.8957 8.16521 81.987 8.26099 81.987C8.35678 81.987 8.53964 81.8739 8.67025 81.7913C8.69202 81.1522 9.18835 80.7261 9.57584 80.7261C9.7021 80.7261 9.65421 80.8478 9.79788 80.8478H9.88931C9.94591 80.8478 10.0069 80.8522 10.0069 80.9957C10.0069 81.1957 9.89367 81.5261 9.89367 81.7348C9.89367 81.8826 9.91544 81.987 9.97204 81.987C10.0678 81.987 10.1767 81.8478 10.255 81.7261C10.3813 81.0304 10.734 79.7609 10.734 79.6174L10.747 79.6ZM12.5016 80.7C12.7672 80.6783 12.9326 80.8217 12.9631 80.9C12.9936 80.9783 12.9892 81.1609 12.9152 81.2913C12.6845 81.7044 12.1097 81.6304 12.1097 81.6304C12.1097 81.6304 12.0444 81.9565 12.3405 81.9565C12.593 81.9565 12.7062 81.8304 12.8151 81.7261C12.8586 81.7261 12.9936 81.8652 12.9326 81.9609C12.8847 82.0348 12.6191 82.2565 12.2795 82.2609C11.7397 82.2609 11.6047 81.8 11.6744 81.4696C11.7658 81.0609 12.1751 80.7217 12.5016 80.6957V80.7ZM9.6455 80.987C9.32332 80.987 8.82699 81.9696 9.20577 81.9652C9.61938 81.9652 9.6455 81.1826 9.6455 81.0043V80.987ZM12.6409 80.8913C12.4232 80.9 12.1751 81.3174 12.1533 81.5C12.4798 81.513 12.654 81.1957 12.6757 81.0696C12.6888 80.9739 12.6932 80.887 12.6409 80.887V80.8913Z" fill="#557086"/>
<path d="M51.1444 79.3778L51.6412 80.278L52.6519 80.4733C52.7792 80.4988 52.8302 80.6559 52.741 80.7494L52.0361 81.5009L52.1635 82.5243C52.1805 82.6559 52.0446 82.7494 51.93 82.6942L51.0001 82.2568L50.0701 82.6942C49.9512 82.7494 49.8196 82.6517 49.8366 82.5243L49.964 81.5009L49.2591 80.7494C49.1699 80.6559 49.2209 80.4988 49.3482 80.4733L50.3589 80.278L50.8557 79.3778C50.9194 79.2632 51.085 79.2632 51.1444 79.3778Z" fill="#FFC200"/>
<path d="M51 79.2929C51.0552 79.2929 51.1147 79.3226 51.1444 79.3778L51.6412 80.278L52.6519 80.4733C52.7792 80.4988 52.8302 80.6559 52.741 80.7494L52.0361 81.5009L52.1635 82.5243C52.1763 82.6262 52.0955 82.7111 51.9979 82.7111C51.9767 82.7111 51.9512 82.7069 51.9257 82.6942L50.9958 82.2568L50.0658 82.6942C50.0403 82.7069 50.0191 82.7111 49.9936 82.7111C49.9002 82.7111 49.8153 82.6262 49.828 82.5243L49.9554 81.5009L49.2505 80.7494C49.1614 80.6559 49.2123 80.4988 49.3397 80.4733L50.3503 80.278L50.8471 79.3778C50.8769 79.3226 50.9363 79.2929 50.9915 79.2929M51 79.0806C50.8641 79.0806 50.7367 79.157 50.6688 79.2759L50.2187 80.0912L49.3057 80.2653C49.1699 80.2908 49.0595 80.3884 49.017 80.5201C48.9745 80.6517 49.0085 80.7961 49.1019 80.8937L49.7389 81.5731L49.6242 82.4946C49.6115 82.6007 49.6454 82.7111 49.7134 82.7918C49.7856 82.8725 49.8875 82.9192 49.9979 82.9192C50.0531 82.9192 50.1083 82.9065 50.1592 82.881L51 82.4861L51.8408 82.881C51.8917 82.9065 51.9469 82.9192 52.0021 82.9192C52.1125 82.9192 52.2144 82.8725 52.2866 82.7918C52.3588 82.7111 52.3928 82.6007 52.3758 82.4946L52.2612 81.5731L52.8981 80.8937C52.9915 80.7918 53.0255 80.6474 52.983 80.5201C52.9406 80.3884 52.8302 80.2908 52.6943 80.2653L51.7813 80.0912L51.3312 79.2759C51.2633 79.157 51.1359 79.0806 51 79.0806Z" fill="#213743"/>
<path d="M51.0001 79.8152V80.9744C51.0001 81.0678 51.0892 81.1315 51.1784 81.106L52.2187 80.7706C52.2739 80.7536 52.2697 80.6729 52.2102 80.6602L51.5563 80.5413C51.4969 80.5286 51.4417 80.4903 51.4119 80.4351L51.085 79.7939C51.0637 79.7515 50.9958 79.7642 50.9958 79.8152H51.0001Z" fill="#FFEBB8"/>
<path d="M51 81.4924V82.0699C51 82.1039 51.017 82.1294 51.0468 82.1464L51.7983 82.5073C51.8366 82.5243 51.8705 82.4818 51.8451 82.4479L51.0935 81.4627C51.0637 81.4245 51 81.4457 51 81.4924Z" fill="#FF7F00"/>
<path d="M56.1444 79.3778L56.6412 80.278L57.6519 80.4733C57.7792 80.4988 57.8302 80.6559 57.741 80.7494L57.0361 81.5009L57.1635 82.5243C57.1805 82.6559 57.0446 82.7494 56.93 82.6942L56.0001 82.2568L55.0701 82.6942C54.9512 82.7494 54.8196 82.6517 54.8366 82.5243L54.964 81.5009L54.2591 80.7494C54.1699 80.6559 54.2209 80.4988 54.3482 80.4733L55.3589 80.278L55.8557 79.3778C55.9194 79.2632 56.085 79.2632 56.1444 79.3778Z" fill="#FFC200"/>
<path d="M56 79.2929C56.0552 79.2929 56.1147 79.3226 56.1444 79.3778L56.6412 80.278L57.6519 80.4733C57.7792 80.4988 57.8302 80.6559 57.741 80.7494L57.0361 81.5009L57.1635 82.5243C57.1763 82.6262 57.0955 82.7111 56.9979 82.7111C56.9767 82.7111 56.9512 82.7069 56.9257 82.6942L55.9958 82.2568L55.0658 82.6942C55.0403 82.7069 55.0191 82.7111 54.9936 82.7111C54.9002 82.7111 54.8153 82.6262 54.828 82.5243L54.9554 81.5009L54.2505 80.7494C54.1614 80.6559 54.2123 80.4988 54.3397 80.4733L55.3503 80.278L55.8471 79.3778C55.8769 79.3226 55.9363 79.2929 55.9915 79.2929M56 79.0806C55.8641 79.0806 55.7367 79.157 55.6688 79.2759L55.2187 80.0912L54.3057 80.2653C54.1699 80.2908 54.0595 80.3884 54.017 80.5201C53.9745 80.6517 54.0085 80.7961 54.1019 80.8937L54.7389 81.5731L54.6242 82.4946C54.6115 82.6007 54.6454 82.7111 54.7134 82.7918C54.7856 82.8725 54.8875 82.9192 54.9979 82.9192C55.0531 82.9192 55.1083 82.9065 55.1592 82.881L56 82.4861L56.8408 82.881C56.8917 82.9065 56.9469 82.9192 57.0021 82.9192C57.1125 82.9192 57.2144 82.8725 57.2866 82.7918C57.3588 82.7111 57.3928 82.6007 57.3758 82.4946L57.2612 81.5731L57.8981 80.8937C57.9915 80.7918 58.0255 80.6474 57.983 80.5201C57.9406 80.3884 57.8302 80.2908 57.6943 80.2653L56.7813 80.0912L56.3312 79.2759C56.2633 79.157 56.1359 79.0806 56 79.0806Z" fill="#213743"/>
<path d="M56.0001 79.8152V80.9744C56.0001 81.0678 56.0892 81.1315 56.1784 81.106L57.2187 80.7706C57.2739 80.7536 57.2697 80.6729 57.2102 80.6602L56.5563 80.5413C56.4969 80.5286 56.4417 80.4903 56.4119 80.4351L56.085 79.7939C56.0637 79.7515 55.9958 79.7642 55.9958 79.8152H56.0001Z" fill="#FFEBB8"/>
<path d="M56 81.4924V82.0699C56 82.1039 56.017 82.1294 56.0468 82.1464L56.7983 82.5073C56.8366 82.5243 56.8705 82.4818 56.8451 82.4479L56.0935 81.4627C56.0637 81.4245 56 81.4457 56 81.4924Z" fill="#FF7F00"/>
<rect x="13" y="62" width="37" height="13" rx="6.5" fill="#2F4553"/>
<path d="M29.9644 70.072C29.1004 70.072 28.2664 69.73 28.2664 68.944C28.2664 68.488 28.6144 68.116 29.0764 67.936C28.6504 67.774 28.3324 67.486 28.3324 67.006C28.3324 66.232 29.1784 65.938 29.9644 65.938C30.7444 65.938 31.5964 66.232 31.5964 67.006C31.5964 67.486 31.2724 67.774 30.8464 67.936C31.3084 68.116 31.6564 68.488 31.6564 68.944C31.6564 69.724 30.8284 70.072 29.9644 70.072ZM29.9644 67.534C30.2104 67.498 30.5404 67.372 30.5404 67.156C30.5404 66.934 30.3064 66.796 29.9644 66.796C29.6104 66.796 29.3824 66.934 29.3824 67.156C29.3824 67.372 29.7184 67.498 29.9644 67.534ZM29.9644 69.214C30.3364 69.214 30.6124 69.058 30.6124 68.824C30.6124 68.578 30.2164 68.434 29.9644 68.404C29.7064 68.434 29.3164 68.578 29.3164 68.824C29.3164 69.058 29.5804 69.214 29.9644 69.214ZM34.9273 70H33.9133L33.3553 69.124L32.7913 70H31.7833L32.7733 68.512L31.8433 67.102H32.8573L33.3553 67.888L33.8473 67.102H34.8613L33.9373 68.512L34.9273 70Z" fill="white"/>
<path d="M8.03 11H7.215L6.56 9.815H6.04V11H5.33V7.665H6.89C7.585 7.665 8.01 8.12 8.01 8.74C8.01 9.33 7.64 9.645 7.28 9.73L8.03 11ZM6.785 9.19C7.07 9.19 7.285 9.02 7.285 8.74C7.285 8.46 7.07 8.29 6.785 8.29H6.04V9.19H6.785ZM10.5152 11H9.88023V10.75C9.71523 10.945 9.43023 11.06 9.11523 11.06C8.73023 11.06 8.27523 10.8 8.27523 10.26C8.27523 9.695 8.73023 9.48 9.11523 9.48C9.43523 9.48 9.72023 9.585 9.88023 9.775V9.45C9.88023 9.205 9.67023 9.045 9.35023 9.045C9.09023 9.045 8.85023 9.14 8.64523 9.33L8.40523 8.905C8.70023 8.645 9.08023 8.525 9.46023 8.525C10.0102 8.525 10.5152 8.745 10.5152 9.44V11ZM9.37023 10.63C9.57523 10.63 9.77523 10.56 9.88023 10.42V10.12C9.77523 9.98 9.57523 9.91 9.37023 9.91C9.12023 9.91 8.91523 10.04 8.91523 10.275C8.91523 10.5 9.12023 10.63 9.37023 10.63ZM11.7801 11H11.1451V8.585H11.7801V8.915C11.9501 8.7 12.2501 8.525 12.5501 8.525V9.145C12.5051 9.135 12.4451 9.13 12.3751 9.13C12.1651 9.13 11.8851 9.25 11.7801 9.405V11ZM14.0818 11.06C13.3468 11.06 12.7918 10.565 12.7918 9.79C12.7918 9.09 13.3068 8.525 14.0418 8.525C14.7618 8.525 15.2518 9.065 15.2518 9.855V9.995H13.4568C13.4968 10.3 13.7418 10.555 14.1518 10.555C14.3568 10.555 14.6418 10.465 14.7968 10.315L15.0768 10.725C14.8368 10.945 14.4568 11.06 14.0818 11.06ZM14.6368 9.565C14.6218 9.335 14.4618 9.03 14.0418 9.03C13.6468 9.03 13.4768 9.325 13.4468 9.565H14.6368Z" fill="#05080A"/>
<path d="M48.7952 11H48.3432L46.9512 9.096V11H46.4832V8.332H46.9632L48.3272 10.184V8.332H48.7952V11ZM50.2221 11.048C49.6101 11.048 49.2301 10.588 49.2301 10.032C49.2301 9.48 49.6101 9.02 50.2221 9.02C50.8421 9.02 51.2181 9.48 51.2181 10.032C51.2181 10.588 50.8421 11.048 50.2221 11.048ZM50.2221 10.676C50.5821 10.676 50.7821 10.376 50.7821 10.032C50.7821 9.692 50.5821 9.392 50.2221 9.392C49.8661 9.392 49.6661 9.692 49.6661 10.032C49.6661 10.376 49.8661 10.676 50.2221 10.676ZM51.8396 11.044C51.6876 11.044 51.5596 10.916 51.5596 10.764C51.5596 10.612 51.6876 10.484 51.8396 10.484C51.9916 10.484 52.1196 10.612 52.1196 10.764C52.1196 10.916 51.9916 11.044 51.8396 11.044ZM55.2114 11H54.7434V10.396H53.4714V10.02L54.5674 8.332H55.2114V9.984H55.5674V10.396H55.2114V11ZM54.7434 9.984V8.752L53.9314 9.984H54.7434ZM57.5317 11H57.0637V10.396H55.7917V10.02L56.8877 8.332H57.5317V9.984H57.8877V10.396H57.5317V11ZM57.0637 9.984V8.752L56.2517 9.984H57.0637Z" fill="white"/>
</svg>
