<svg width="63" height="88" viewBox="0 0 63 88" fill="none" xmlns="http://www.w3.org/2000/svg">
<rect width="63" height="88" rx="4" fill="#1CE61C"/>
<path d="M36.7008 13.5133L44.7992 3.48665C45.5586 2.54645 46.7024 2 47.911 2H58C59.6569 2 61 3.34314 61 5V83C61 84.6569 59.6569 86 58 86H5C3.34315 86 2 84.6569 2 83V18C2 16.3431 3.34315 15 5 15H33.589C34.7976 15 35.9414 14.4536 36.7008 13.5133Z" fill="#213743"/>
<mask id="mask0_26835_29208" style="mask-type:luminance" maskUnits="userSpaceOnUse" x="0" y="0" width="63" height="88">
<path d="M59 0H4C1.79 0 0 1.79 0 4V84C0 86.21 1.79 88 4 88H59C61.21 88 63 86.21 63 84V4C63 1.79 61.21 0 59 0ZM61 82.81C61 84.57 59.57 86 57.81 86H5.19C3.43 86 2 84.57 2 82.81V18.19C2 16.43 3.43 15 5.19 15H33.59C34.8 15 35.94 14.45 36.7 13.51L44.8 3.48C45.56 2.54 46.7 1.99 47.91 1.99H57.81C59.57 1.99 61 3.42 61 5.18V82.8V82.81Z" fill="white"/>
</mask>
<g mask="url(#mask0_26835_29208)">
<path d="M68.37 47.3199V26.6399L4.45999 90.5499H25.13L68.37 47.3199Z" fill="white"/>
<path d="M64.66 -2.29004H55.22L-2.92001 55.84V66.18L65.46 -2.20004C65.2 -2.26004 64.93 -2.29004 64.66 -2.29004Z" fill="white"/>
<path d="M68.37 69.23V61.55L39.37 90.55H47.05L68.37 69.23Z" fill="white"/>
</g>
<rect x="5" y="18" width="53" height="40" rx="1" fill="#2F4553"/>
<g clip-path="url(#clip0_26835_29208)">
<path d="M57.0001 18H6.00006C5.44778 18 5.00006 18.4477 5.00006 19V57C5.00006 57.5523 5.44778 58 6.00006 58H57.0001C57.5523 58 58.0001 57.5523 58.0001 57V19C58.0001 18.4477 57.5523 18 57.0001 18Z" fill="#55DFFF"/>
<path d="M22.0401 39.51C15.0001 37.84 9.35006 37.06 5.00006 36.73V52.65H58.0001V41.75C45.6101 42.04 35.5101 42.71 22.0401 39.52V39.51Z" fill="#45A7FF"/>
<path d="M9.08005 43.8999L10.44 42.6899L12.44 45.4899L10.13 45.0599L9.08005 43.8999Z" fill="#1A2C38"/>
<path d="M10.05 42.51C10.05 42.51 13.71 50.63 23.96 50.54C34.21 50.45 48.4701 43.49 48.4701 43.49L48.8 35.46C33.44 37.51 18.76 39.64 10.06 42.51H10.05Z" fill="#55DFFF"/>
<path d="M29.8701 41.7401C30.7501 40.9701 31.7001 44.4601 32.9701 44.4601C34.2401 44.4601 31.1701 47.5701 31.1701 47.5701C31.1701 47.5701 28.5701 42.8701 29.8701 41.7401Z" fill="#047BFF"/>
<path d="M37.8901 30.9499C37.8901 30.9499 39.4201 27.7299 41.4401 27.5599C43.4601 27.3899 48.6801 29.7899 49.6401 30.0599C50.6001 30.3299 51.5301 31.2399 51.5301 31.2399L47.7301 36.5299L38.3001 34.0999L37.8901 30.9599V30.9499Z" fill="#047BFF"/>
<path d="M43.6261 32.7674C44.0595 30.6858 43.2843 28.7637 41.8947 28.4744C40.5051 28.1851 39.0273 29.6382 38.594 31.7198C38.1606 33.8015 38.9358 35.7235 40.3254 36.0128C41.7149 36.3021 43.1927 34.8491 43.6261 32.7674Z" fill="#1A2C38"/>
<path d="M24.7101 25.9699C24.7101 25.9699 24.3801 26.4799 24.0101 27.1399C22.8701 28.4099 20.9201 28.3499 20.4101 26.7999C20.5801 25.8099 20.8801 24.6799 21.3201 23.3899C21.3201 23.3899 25.2001 23.5299 24.7101 25.9799V25.9699Z" fill="#DFEAF0"/>
<path d="M24.01 27.14C23.41 28.2 22.71 29.64 23.08 29.97C23.68 30.5 23.48 30.78 23.12 30.91C22.38 31.18 23.46 32.61 22.14 32.19C20.98 31.82 19.73 30.73 20.42 26.8C20.99 27.55 22.93 27.64 24.02 27.14H24.01Z" fill="white"/>
<path d="M25.2501 16.0601C25.2501 16.0601 25.3301 16.0001 25.3501 15.9501L25.8301 14.8101C25.8601 14.7301 25.8501 14.6401 25.7901 14.5801C25.7401 14.5201 25.6501 14.4901 25.5701 14.5001L24.7401 14.6801L25.0701 13.7601C25.1101 13.6401 25.0501 13.5101 24.9301 13.4701C24.8101 13.4301 24.6801 13.4901 24.6401 13.6101L24.1701 14.9201C24.1401 15.0001 24.1601 15.0801 24.2101 15.1501C24.2601 15.2101 24.3501 15.2401 24.4301 15.2201L25.2401 15.0401L24.9301 15.7801C24.8801 15.9001 24.9301 16.0301 25.0501 16.0801C25.1201 16.1101 25.1901 16.1001 25.2501 16.0701V16.0601Z" fill="white"/>
<path d="M24.9101 13.9899C25.142 13.9899 25.3301 13.8019 25.3301 13.5699C25.3301 13.3379 25.142 13.1499 24.9101 13.1499C24.6781 13.1499 24.4901 13.3379 24.4901 13.5699C24.4901 13.8019 24.6781 13.9899 24.9101 13.9899Z" fill="white"/>
<path d="M20.9101 22.3401C20.9101 22.3401 19.1701 17.5601 19.5201 16.6901C19.8701 15.8201 22.4901 17.8301 22.4901 17.8301C22.4901 17.8301 22.4501 21.5001 20.9101 22.3401Z" fill="white"/>
<path d="M33.2001 19.0101C33.2001 19.0101 31.6201 13.4201 30.7101 12.6601C29.8001 11.9001 28.3501 15.8301 28.3501 15.8301C28.3501 15.8301 31.9101 19.6701 33.1901 19.0101H33.2001Z" fill="white"/>
<path d="M33.6841 19.8078C32.4892 16.2999 28.6769 14.4248 25.169 15.6197C21.661 16.8146 19.786 20.6269 20.9808 24.1348L22.3254 28.0821C23.5202 31.59 27.3326 33.4651 30.8405 32.2703C34.3484 31.0754 36.2235 27.263 35.0287 23.7551L33.6841 19.8078Z" fill="white"/>
<path d="M37.74 31.4199C38.19 30.2499 36.93 27.7299 36.21 26.0599C35.6 24.8499 35.09 23.9399 35.09 23.9399C32.32 24.4199 30.86 30.7699 30.86 30.7699C30.86 30.7699 32.53 32.8899 33.47 33.7499C34.41 33.6399 37 33.3399 37.74 31.4299V31.4199Z" fill="white"/>
<path d="M32.8301 23.3201C32.8301 23.3201 33.7301 25.8301 36.2101 26.0601C36.2101 26.0601 35.6401 24.9101 35.4201 24.5501L32.8301 23.3201Z" fill="#DFEAF0"/>
<path d="M33.55 19.6201C33.55 19.6201 38.98 19.7501 39.04 23.6101C39.08 26.0001 36.76 25.6601 35.03 25.0001C33.3 24.3401 32.36 23.0301 32.36 23.0301L33.55 19.6201Z" fill="white"/>
<path d="M26.6601 23.5601C26.6601 23.5601 25.4301 24.2501 24.8501 24.0301C24.0701 23.7301 24.8301 25.4701 26.4001 24.7901C28.2001 24.0001 28.0401 23.3001 27.7701 22.8301C27.5501 22.4501 27.5701 23.1801 26.6601 23.5701V23.5601Z" fill="#2F2D2A"/>
<path d="M24.6301 23.76L24.8201 24.17C24.8801 24.3 25.0201 24.36 25.1501 24.33C25.1701 24.33 25.1901 24.32 25.2101 24.32C25.1801 24.23 25.2201 24.13 25.3101 24.08C25.4101 24.03 25.5201 24.08 25.5701 24.17C25.5701 24.19 25.5801 24.2 25.5801 24.22C26.2801 24.02 26.9101 23.7 27.4601 23.25C27.5701 23.16 27.6001 23.02 27.5401 22.89L27.3501 22.48C26.5501 23.18 25.6501 23.61 24.6201 23.76H24.6301Z" fill="white"/>
<path d="M26.1501 17.5299C26.5601 17.6899 26.9101 17.9299 27.1801 18.2299C27.0001 17.6099 26.5201 17.0699 25.8401 16.7999C24.7201 16.3599 23.4901 16.8299 23.0901 17.8599C23.0201 18.0399 22.9801 18.2199 22.9701 18.4099C23.6201 17.4499 24.9401 17.0599 26.1501 17.5399V17.5299Z" fill="#DFEAF0"/>
<path d="M24.9101 22.87C26.2576 22.87 27.3501 21.7776 27.3501 20.43C27.3501 19.0824 26.2576 17.99 24.9101 17.99C23.5625 17.99 22.4701 19.0824 22.4701 20.43C22.4701 21.7776 23.5625 22.87 24.9101 22.87Z" fill="#DDDFE5"/>
<path d="M24.99 22.5299C26.3376 22.5299 27.43 21.4375 27.43 20.0899C27.43 18.7423 26.3376 17.6499 24.99 17.6499C23.6425 17.6499 22.55 18.7423 22.55 20.0899C22.55 21.4375 23.6425 22.5299 24.99 22.5299Z" fill="#504C47"/>
<path d="M25.0501 22.0699C26.2706 22.0699 27.2601 21.0805 27.2601 19.8599C27.2601 18.6394 26.2706 17.6499 25.0501 17.6499C23.8295 17.6499 22.8401 18.6394 22.8401 19.8599C22.8401 21.0805 23.8295 22.0699 25.0501 22.0699Z" fill="#2F2D2A"/>
<path d="M24.5401 20.52C24.9598 20.52 25.3001 20.1797 25.3001 19.76C25.3001 19.3403 24.9598 19 24.5401 19C24.1203 19 23.7801 19.3403 23.7801 19.76C23.7801 20.1797 24.1203 20.52 24.5401 20.52Z" fill="white"/>
<path d="M26.4501 20.6999C26.5992 20.6999 26.7201 20.579 26.7201 20.4299C26.7201 20.2808 26.5992 20.1599 26.4501 20.1599C26.3009 20.1599 26.1801 20.2808 26.1801 20.4299C26.1801 20.579 26.3009 20.6999 26.4501 20.6999Z" fill="white"/>
<path d="M37.2901 31.2401C36.5501 33.1601 34.4101 33.6301 33.4701 33.7401C33.6901 33.9401 33.8701 34.0701 33.9801 34.0901C35.3401 34.3301 37.9601 32.4101 38.2901 31.6201C38.5701 30.9401 37.2401 28.0901 36.2101 26.0601C36.9301 27.7301 37.7401 30.0701 37.2901 31.2401Z" fill="#DFEAF0"/>
<path d="M30.1801 32.4599C30.1801 32.4599 28.9401 32.5599 29.0301 33.6399C29.0901 34.2799 28.9601 34.8599 27.9501 35.3899C26.1501 36.3399 23.8701 35.9899 23.2601 34.7799C22.6501 33.5699 21.9301 31.5499 22.9901 29.4699C24.3201 26.8499 29.2301 27.7999 30.1801 32.4699V32.4599Z" fill="white"/>
<path d="M23.6801 35.2699C23.6801 35.2699 24.6801 36.0699 26.8301 35.2399C29.3501 34.2699 27.6501 31.8699 29.0101 31.8599C30.0001 31.8599 31.1901 31.1299 31.1901 31.1299L31.7501 31.8899C31.7501 31.8899 30.4901 32.5099 29.9301 32.5099C29.9301 32.5099 28.8801 32.6899 29.0201 33.6999C29.1601 34.7099 28.3701 35.2199 27.4401 35.5999C27.4401 35.5999 25.0901 36.5299 23.6701 35.2599L23.6801 35.2699Z" fill="#DFEAF0"/>
<path d="M35.3801 28.23C35.3801 28.23 37.0901 28.32 38.0201 29.16C38.9501 30 38.1601 34.08 42.0201 34.85L40.8201 35.46L32.8301 32.91L35.3801 28.23Z" fill="#557086"/>
<path d="M28.1701 26.32C28.1701 26.32 28.8101 22.76 31.1601 23.2C33.5101 23.64 29.8601 26.59 29.8601 26.59L28.1701 26.33V26.32Z" fill="#047BFF"/>
<path d="M14.7501 35.8999C14.7501 35.8999 13.4401 34.9399 16.7401 31.2499L25.2901 25.6999L28.3801 25.5099L31.8801 24.6899C32.0901 24.6399 32.3201 24.6899 32.4801 24.8399L33.4601 25.7299C33.5701 25.8299 33.5601 25.9999 33.4501 26.0999L31.1301 27.9199L30.9701 32.0699L14.7401 35.8999H14.7501Z" fill="#45A7FF"/>
<path d="M22.9701 32.96L28.2201 32.23C28.4401 32.2 28.6301 32.07 28.7401 31.88L30.8301 28.25V27.73H31.1601C31.3001 27.73 31.4401 27.68 31.5501 27.6L31.9701 27.27C31.9701 27.27 34.9501 27.76 36.3401 28.44C36.5801 28.56 36.6801 28.85 36.5601 29.1L34.5601 33.19L25.7001 35.22L22.9701 32.97V32.96Z" fill="#8EA3B2"/>
<path d="M14.7501 35.5501C14.7501 35.5501 13.5301 34.7801 13.8801 34.0401C14.2301 33.3001 16.3901 31.8401 16.3901 31.8401L15.8801 35.3701L14.7501 35.5501Z" fill="white"/>
<path d="M19.2401 30.98C19.2401 30.98 19.1801 31.72 19.7501 31.79L23.0901 29.9L22.6801 29.22L19.3501 30.04L19.2501 30.99L19.2401 30.98Z" fill="#162D37"/>
<path d="M16.3801 30.06C16.3801 30.06 19.0401 27.19 20.5701 26.66C22.1001 26.13 24.8601 24.94 25.7901 25.67C25.7901 25.67 25.3201 26.24 25.3001 27.17C25.3001 27.17 17.5001 30.67 16.3701 30.06H16.3801Z" fill="#047BFF"/>
<path d="M23.0501 30.06C23.0501 30.06 22.5801 29.36 21.6701 29.61C20.7601 29.86 19.3101 30.23 19.2501 30.98C19.2501 30.98 18.9201 30.93 19.0701 30.58C19.0701 30.58 16.5601 31.71 16.1401 31.6C15.7201 31.49 15.4101 31.11 15.4101 31.11C15.4101 31.11 15.5601 30.34 16.2301 29.78C16.2301 29.78 22.5101 28.23 23.1701 27.67C23.8301 27.11 23.9701 27 24.7701 27.01C25.5701 27.02 26.1001 26.79 24.3901 29.07L23.0601 30.06H23.0501Z" fill="#45A7FF"/>
<path d="M27.7901 28.9599L29.7901 29.0499L28.2101 31.2299C28.2101 31.2299 25.9601 31.2 24.4101 32.75L22.6101 32.9799L22.1301 32.18L27.7901 28.95V28.9599Z" fill="#162D37"/>
<path d="M15.04 35.2099C15.04 35.2099 14.95 34.5299 16.64 33.3799C18.33 32.2299 23.8 28.6399 26.08 28.3199C28.36 27.9999 29.87 28.2499 29.87 28.2499L27.68 30.3799C27.68 30.3799 26.99 30.3299 26.28 30.6699C25.57 31.0099 22.35 32.6199 22.46 33.3999L15.04 35.2099Z" fill="white"/>
<path d="M13.4201 38.57L13.7101 36.2299L13.6101 36.04C13.5101 35.85 13.5701 35.61 13.7501 35.49L14.4901 35L20.2701 33.2L22.9801 32.95L28.1901 33.77L13.4401 38.57H13.4201Z" fill="#45A7FF"/>
<path d="M10.05 41.74C10.05 41.74 10.27 39.15 13.3 37.69C16.07 36.36 29.59 33.04 31.93 32.46C32.16 32.4 32.4001 32.4 32.6301 32.44C34.2501 32.72 41.03 33.93 44.37 35.04C48.18 36.31 49.7001 32.54 50.3101 31.35C50.9201 30.16 52.07 28.81 54.41 32.17L51.01 37.13L30.35 38.36L10.05 41.73V41.74Z" fill="#FFC200"/>
<path d="M38.1501 36.0099C38.1501 36.5299 36.9001 36.7999 34.4801 37.0899C32.5401 37.3199 32.4301 36.5199 32.4301 35.6499C32.4301 34.7799 32.5801 33.4699 34.4801 33.9299C36.8001 34.4999 38.1501 35.1399 38.1501 36.0099Z" fill="#FF7F00"/>
<path d="M21.0001 36.3C21.0001 36.3 23.2601 35.71 24.4801 36.59L22.1201 37.07L21.0101 36.3H21.0001Z" fill="#162D37"/>
<path d="M25.44 36.52C25.44 36.52 26.96 35.93 27.29 36.67C27.62 37.41 27.85 38.34 27.85 38.34L24.46 38.82L22.11 37.06L25.43 36.51L25.44 36.52Z" fill="#1A2C38"/>
<path d="M25.11 38.6999C25.11 38.6999 41.89 36.4299 50.2 36.5199L48.7 37.6899C48.7 37.6899 31.96 38.5099 26.63 39.4399L25.11 38.6899V38.6999Z" fill="#047BFF"/>
<path d="M11.4301 42.4999L17.5301 41.7899C17.5301 41.7899 18.1901 42.7999 22.2801 41.0599C24.7301 40.0099 26.8501 39.6599 26.8501 39.6599L14.8801 40.6699L11.4401 42.4999H11.4301Z" fill="#1A2C38"/>
<path d="M21.5001 36.25C21.5001 36.25 20.4001 36.08 19.9301 35.76C19.4601 35.44 18.7701 35.3 18.3901 35.67C18.0101 36.04 17.1301 36.44 16.6401 36.24C16.1501 36.04 15.7701 36.31 15.4101 36.78C15.0501 37.25 13.9201 36.73 13.4301 37C12.9401 37.27 13.1701 37.63 12.7101 37.88C12.2501 38.13 11.6901 37.3 10.7101 39.65L21.5001 36.25Z" fill="#008C00"/>
<path d="M27.3101 39.33C26.9301 39.14 27.2501 37.72 26.7101 37.31C26.3201 37.01 26.1401 38.02 25.6601 38.11L24.2401 38.16C24.2401 38.16 23.0001 35.98 20.8701 36.05C16.7101 36.18 13.6501 37.8 11.6301 38.94C10.5801 39.53 9.55005 40.14 8.97005 41.2C8.64005 41.81 8.34005 42.53 8.24005 43.25C7.97005 45.16 11.6001 45.67 12.3801 45.8C12.3801 45.8 12.0101 45.41 11.7301 45.06C11.7301 45.06 9.73005 44.91 9.63005 43.88C9.53005 42.85 15.3401 41.9 17.1801 41.15C19.0201 40.4 18.8801 41.92 20.6501 41.09C22.7401 40.11 25.9301 39.72 27.2501 39.64C27.4101 39.63 27.4601 39.41 27.3101 39.34V39.33Z" fill="#1CE61C"/>
<path d="M15.6083 46.0521C15.9922 45.7364 15.7802 44.8441 15.1348 44.0592C14.4893 43.2743 13.6549 42.8939 13.271 43.2096C12.887 43.5253 13.099 44.4176 13.7445 45.2025C14.3899 45.9874 15.2243 46.3678 15.6083 46.0521Z" fill="#1A2C38"/>
<path d="M31.49 21.8201C31.49 21.8201 30.96 22.5901 31.3 23.1101C31.64 23.6301 31.8 22.5701 31.8 22.5701L31.49 21.8201Z" fill="#DFEAF0"/>
<path d="M34.7501 20.3201C34.7501 20.3201 31.1401 22.7601 30.3801 23.6501C30.3801 23.6501 31.4001 25.0601 31.5601 24.2301C31.5601 24.2301 34.5501 21.6801 35.4401 21.3201L34.7501 20.3201Z" fill="#1A2C38"/>
<path d="M35.4299 21.3317C35.5686 21.2516 35.5422 20.9463 35.371 20.6498C35.1998 20.3532 34.9486 20.1778 34.8099 20.2578C34.6712 20.3379 34.6975 20.6432 34.8687 20.9398C35.0399 21.2363 35.2912 21.4118 35.4299 21.3317Z" fill="#047BFF"/>
<path d="M31.4201 21.93C31.4201 21.93 31.3901 22.98 32.1001 23.08C32.8101 23.18 34.3001 21.88 33.7301 21.07C33.1601 20.26 31.5101 20.9 31.4201 21.94V21.93Z" fill="white"/>
<path d="M25.8901 46.48C25.8901 46.48 24.4001 46.41 24.9801 47.43C25.5601 48.45 28.1701 51.26 28.1701 51.26L30.7501 50.11L25.8901 46.47V46.48Z" fill="#047BFF"/>
<path d="M30.9601 51.47C30.9601 51.47 22.9001 45.55 25.0901 45.22C27.2801 44.89 28.7701 47.16 31.2601 46.5C33.7501 45.84 30.4401 36.19 32.1401 35.58C33.8401 34.97 33.9601 40.33 36.4601 40.24C38.9601 40.15 43.4501 27.99 46.6501 27.15C49.8501 26.31 42.5401 35.71 43.6101 39.74C44.4901 43.08 53.8401 28.75 57.8501 27.63C61.8601 26.51 55.1101 32.22 53.8101 38.56C52.5101 44.9 58.3901 33.58 61.9301 34.37C65.4701 35.16 47.7901 48.28 47.7901 48.28L30.9601 51.46V51.47Z" fill="#BAF9F9"/>
<path d="M48.7901 47.5901C48.7901 49.5101 46.1201 51.0601 42.8201 51.0601C39.5201 51.0601 36.8601 51.9301 36.6201 50.0301C36.3901 48.2301 39.3101 40.9101 41.1 40.7101C42 40.6101 41.7901 45.4901 42.8901 45.4901C44.5401 45.4901 49.4601 38.2401 51.1301 38.2901C52.0601 38.3201 48.7801 46.6301 48.7801 47.5901H48.7901Z" fill="#45A7FF"/>
<path d="M9.83706 34.2842C10.0484 34.2424 10.1467 33.8396 10.0568 33.3845C9.96684 32.9294 9.72263 32.5943 9.51132 32.6361C9.30002 32.6778 9.20164 33.0806 9.29159 33.5357C9.38154 33.9908 9.62576 34.3259 9.83706 34.2842Z" fill="white"/>
<path d="M11.2601 32.6299C11.4754 32.6299 11.6501 31.9136 11.6501 31.0299C11.6501 30.1463 11.4754 29.4299 11.2601 29.4299C11.0447 29.4299 10.8701 30.1463 10.8701 31.0299C10.8701 31.9136 11.0447 32.6299 11.2601 32.6299Z" fill="white"/>
<path d="M55.2871 18.2598C56.3845 17.1624 56.8784 15.8771 56.3902 15.3889C55.9021 14.9008 54.6168 15.3947 53.5194 16.492C52.422 17.5894 51.9281 18.8747 52.4163 19.3629C52.9044 19.851 54.1898 19.3572 55.2871 18.2598Z" fill="white"/>
<path d="M23.5201 37.1001L22.9701 37.5401C22.9701 37.5401 23.4801 38.7201 25.6601 38.1101C25.6601 38.1101 24.4901 38.1801 23.5201 37.1001Z" fill="#008C00"/>
<path d="M25.0701 37.1601C25.0701 37.1601 25.1801 37.6801 25.3301 37.6501C25.4801 37.6201 25.4301 37.0701 25.4301 37.0701L25.0701 37.1601Z" fill="white"/>
<path d="M25.4401 36.9899C25.4401 36.9899 25.5501 37.5099 25.7001 37.4799C25.8501 37.4499 25.8001 36.8999 25.8001 36.8999L25.4401 36.9899Z" fill="white"/>
<path d="M22.11 36.2801C22.11 36.2801 23.78 37.0101 25.31 36.0601C25.31 36.0601 25.89 36.4401 25.89 36.8501C25.89 37.2601 22.97 37.5501 22.97 37.5501L22.12 36.2801H22.11Z" fill="#1CE61C"/>
<path d="M23.4101 37.3599C23.6531 37.3599 23.8501 37.2077 23.8501 37.0199C23.8501 36.8322 23.6531 36.6799 23.4101 36.6799C23.1671 36.6799 22.9701 36.8322 22.9701 37.0199C22.9701 37.2077 23.1671 37.3599 23.4101 37.3599Z" fill="white"/>
<path d="M23.4101 37.2001C23.5095 37.2001 23.5901 37.1195 23.5901 37.0201C23.5901 36.9207 23.5095 36.8401 23.4101 36.8401C23.3107 36.8401 23.2301 36.9207 23.2301 37.0201C23.2301 37.1195 23.3107 37.2001 23.4101 37.2001Z" fill="#162D37"/>
<path d="M18.3715 37.6375C18.7657 37.4931 19.0266 37.2163 18.9544 37.0192C18.8822 36.8222 18.5042 36.7795 18.1101 36.9239C17.716 37.0683 17.455 37.345 17.5272 37.5421C17.5994 37.7392 17.9774 37.7819 18.3715 37.6375Z" fill="#008C00"/>
<path d="M16.3458 38.1103C16.6777 37.9887 16.8975 37.7556 16.8367 37.5897C16.7759 37.4237 16.4576 37.3878 16.1257 37.5093C15.7938 37.6309 15.574 37.864 15.6348 38.03C15.6956 38.1959 16.014 38.2319 16.3458 38.1103Z" fill="#008C00"/>
<path d="M14.6332 38.6923C14.9651 38.5707 15.1848 38.3376 15.124 38.1717C15.0632 38.0057 14.7449 37.9698 14.413 38.0914C14.0811 38.213 13.8614 38.446 13.9221 38.612C13.9829 38.7779 14.3013 38.8139 14.6332 38.6923Z" fill="#008C00"/>
<path d="M13.0291 39.2804C13.2884 39.1854 13.4601 39.0033 13.4126 38.8737C13.3651 38.744 13.1164 38.7159 12.8571 38.8109C12.5978 38.9059 12.4261 39.088 12.4736 39.2177C12.5211 39.3473 12.7698 39.3754 13.0291 39.2804Z" fill="#008C00"/>
<path d="M11.7833 39.74C11.9504 39.6544 12.0512 39.5173 12.0084 39.4337C11.9657 39.3502 11.7955 39.3518 11.6283 39.4373C11.4612 39.5229 11.3604 39.66 11.4032 39.7436C11.4459 39.8272 11.6161 39.8256 11.7833 39.74Z" fill="#008C00"/>
<path d="M42.8801 47.6601C30.3301 51.1301 15.2801 50.7301 5.00006 49.8101V57.0001C5.00006 57.5501 5.45006 58.0001 6.00006 58.0001H57.0001C57.5501 58.0001 58.0001 57.5501 58.0001 57.0001V44.1201C53.6801 44.9301 48.6301 46.0701 42.8801 47.6601Z" fill="#047BFF"/>
<path d="M52.0401 40.1499C52.8801 38.2199 53.4601 35.7299 53.0601 35.5599C52.6601 35.3899 51.6601 36.8099 50.8201 38.7399C49.9801 40.6699 49.6301 42.3699 50.0201 42.5399C50.4101 42.7099 51.2001 42.0799 52.0301 40.1499H52.0401Z" fill="white"/>
<path d="M14.9361 45.4545C15.1409 45.2861 15.0253 44.8072 14.6781 44.3849C14.3308 43.9626 13.8833 43.7567 13.6785 43.9251C13.4738 44.0935 13.5893 44.5723 13.9366 44.9947C14.2838 45.417 14.7313 45.6228 14.9361 45.4545Z" fill="white"/>
<path d="M37.5378 29.9225C37.6135 29.6397 36.6326 29.1314 35.3468 28.7872C34.0611 28.4429 32.9575 28.393 32.8818 28.6758C32.8061 28.9585 33.787 29.4668 35.0727 29.8111C36.3584 30.1554 37.462 30.2052 37.5378 29.9225Z" fill="white"/>
<path d="M42.8901 24.8C44.6101 24.72 46.3301 24.74 48.0501 24.87C48.8901 24.93 49.7401 25.03 50.5801 24.97C50.8501 24.95 55.8001 25.1 56.0201 24.95C56.3601 24.71 51.7901 24.04 51.6601 23.64C51.5401 23.24 51.2401 22.92 50.9001 22.67C50.0701 22.04 48.8301 21.8 48.0301 22.45C47.8601 21.52 46.9801 20.85 46.0501 20.74C45.8201 20.88 45.5801 21.02 45.4701 21.14C44.9801 21.69 44.8101 22.47 45.2301 23.12C44.9101 22.67 44.2401 22.85 43.8701 23.15C43.3601 23.56 43.0201 24.16 42.8901 24.79V24.8Z" fill="#CCF8FF"/>
<path d="M41.8201 24.8699C42.1801 24.8399 42.5401 24.8199 42.9001 24.8099C43.0301 24.1699 43.3701 23.5799 43.8801 23.1699C44.2501 22.8699 44.9201 22.6799 45.2401 23.1399C44.8301 22.4799 44.9901 21.7099 45.4801 21.1599C45.5901 21.0399 45.8301 20.8999 46.0601 20.7599C45.8701 20.7399 45.6901 20.7299 45.5001 20.7599C44.2801 20.9099 43.7801 21.9599 42.8201 22.4999C41.8601 23.0399 41.0801 23.1899 41.1101 24.2499C41.1201 24.6299 41.4501 24.9199 41.8201 24.8899V24.8699Z" fill="white"/>
</g>
<path fill-rule="evenodd" clip-rule="evenodd" d="M6.49771 79C6.98969 79 7.48602 79.213 7.49037 79.6913C7.49037 80.1043 7.24656 80.2696 6.99839 80.2696C6.75023 80.2696 6.73281 80.1435 6.73281 80.1435C6.73281 80.1435 7.02452 79.9261 7.02452 79.7174C7.02452 79.6087 6.94179 79.313 6.489 79.3174C5.8577 79.3174 5.5181 79.6174 5.5181 80.1522C5.5181 80.7652 7.35105 80.9739 7.3554 81.7652C7.3554 82.613 6.47594 82.9957 5.69225 83C5.283 83 5.01306 82.7609 5.00871 82.3783C5.00871 81.9261 5.22204 81.4652 5.75756 81.4652C5.88382 81.4565 5.98831 81.5522 5.99702 81.6783C5.99702 81.6783 5.99702 81.6826 5.99702 81.687C5.99702 81.687 5.45715 81.8391 5.4615 82.3783C5.4615 82.4783 5.56599 82.6609 5.81851 82.6565C6.07103 82.6522 6.82424 82.4739 6.81989 81.8087C6.81989 81.1913 5.00435 81.1087 5 80.1478C5 79.0652 6.08845 79.0087 6.49771 79.0087V79ZM10.747 79.6C10.8123 79.5696 11.2129 79.4913 11.1955 79.813C11.1824 80.1348 10.9386 80.6913 10.9037 80.9348C11.2303 80.7696 11.6918 80.2087 11.6918 80.2087C11.6918 80.2087 12.0183 80.2522 11.9182 80.4522C11.818 80.6522 11.1519 81.1435 11.1519 81.1435C11.1519 81.1435 11.3043 82.5696 12.1707 82.5696C12.6453 82.5696 12.8499 82.3609 12.937 82.287C12.9587 82.2696 12.9762 82.2652 12.9849 82.2783C13.0197 82.387 12.9936 82.5043 12.9152 82.5913C12.8194 82.6957 12.5974 82.8217 12.1533 82.8261C11.3653 82.8261 10.9255 82.1957 10.8123 81.2609C10.7252 81.5348 10.7339 81.9826 10.7209 82.2C10.6948 82.2435 10.2507 82.4174 10.2158 82.1174C10.2158 82.0913 10.2158 82.0696 10.2158 82.0435C10.1331 82.1609 10.0199 82.2826 9.91108 82.2826C9.71951 82.2826 9.63679 82.1217 9.60196 82.0391C9.57584 82.0696 9.3625 82.287 9.08821 82.287C8.92277 82.2913 8.77474 82.1957 8.70943 82.0435C8.57011 82.1435 8.32195 82.2913 8.03895 82.2913C7.73418 82.2913 7.66017 82.1087 7.66017 81.9565C7.66017 81.713 7.84303 80.987 7.84303 80.987C7.84303 80.987 7.48602 81.1304 7.36411 81.1348C7.19431 81.1348 7.11159 80.8217 7.11159 80.813C7.11159 80.8087 7.11159 80.8 7.1203 80.8C7.22044 80.7609 7.94317 80.513 7.94317 80.513C7.94317 80.513 8.07813 79.9826 8.09555 79.913C8.11296 79.8435 8.2131 79.7 8.33065 79.6565C8.41773 79.6217 8.50916 79.6 8.60059 79.5913C8.63107 79.5913 8.65284 79.6 8.65284 79.6174C8.65284 79.6348 8.47433 80.4087 8.47433 80.4087C8.47433 80.4087 8.84876 80.3217 8.98808 80.3217C9.09692 80.3217 9.15352 80.387 9.09257 80.4696C9.03162 80.5522 8.96196 80.6478 8.92712 80.6913C8.88794 80.7348 8.86182 80.7435 8.77039 80.7609C8.64413 80.787 8.36113 80.8565 8.36113 80.8565C8.36113 80.8565 8.13473 81.6783 8.13909 81.8174C8.13909 81.8957 8.16521 81.987 8.26099 81.987C8.35678 81.987 8.53964 81.8739 8.67025 81.7913C8.69202 81.1522 9.18835 80.7261 9.57584 80.7261C9.7021 80.7261 9.65421 80.8478 9.79788 80.8478H9.88931C9.94591 80.8478 10.0069 80.8522 10.0069 80.9957C10.0069 81.1957 9.89367 81.5261 9.89367 81.7348C9.89367 81.8826 9.91544 81.987 9.97204 81.987C10.0678 81.987 10.1767 81.8478 10.255 81.7261C10.3813 81.0304 10.734 79.7609 10.734 79.6174L10.747 79.6ZM12.5016 80.7C12.7672 80.6783 12.9326 80.8217 12.9631 80.9C12.9936 80.9783 12.9892 81.1609 12.9152 81.2913C12.6845 81.7044 12.1097 81.6304 12.1097 81.6304C12.1097 81.6304 12.0444 81.9565 12.3405 81.9565C12.593 81.9565 12.7062 81.8304 12.8151 81.7261C12.8586 81.7261 12.9936 81.8652 12.9326 81.9609C12.8847 82.0348 12.6191 82.2565 12.2795 82.2609C11.7397 82.2609 11.6047 81.8 11.6744 81.4696C11.7658 81.0609 12.1751 80.7217 12.5016 80.6957V80.7ZM9.6455 80.987C9.32332 80.987 8.82699 81.9696 9.20577 81.9652C9.61938 81.9652 9.6455 81.1826 9.6455 81.0043V80.987ZM12.6409 80.8913C12.4232 80.9 12.1751 81.3174 12.1533 81.5C12.4798 81.513 12.654 81.1957 12.6757 81.0696C12.6888 80.9739 12.6932 80.887 12.6409 80.887V80.8913Z" fill="#557086"/>
<path d="M51.1444 79.3778L51.6412 80.278L52.6518 80.4733C52.7792 80.4988 52.8302 80.6559 52.741 80.7494L52.0361 81.5009L52.1635 82.5243C52.1805 82.6559 52.0446 82.7494 51.93 82.6942L51 82.2568L50.0701 82.6942C49.9512 82.7494 49.8196 82.6517 49.8366 82.5243L49.9639 81.5009L49.2591 80.7494C49.1699 80.6559 49.2208 80.4988 49.3482 80.4733L50.3588 80.278L50.8557 79.3778C50.9194 79.2632 51.085 79.2632 51.1444 79.3778Z" fill="#FFC200"/>
<path d="M51 79.2929C51.0552 79.2929 51.1147 79.3226 51.1444 79.3778L51.6412 80.278L52.6518 80.4733C52.7792 80.4988 52.8302 80.6559 52.741 80.7494L52.0361 81.5009L52.1635 82.5243C52.1763 82.6262 52.0955 82.7111 51.9979 82.7111C51.9766 82.7111 51.9512 82.7069 51.9257 82.6942L50.9957 82.2568L50.0658 82.6942C50.0403 82.7069 50.0191 82.7111 49.9936 82.7111C49.9002 82.7111 49.8153 82.6262 49.828 82.5243L49.9554 81.5009L49.2505 80.7494C49.1613 80.6559 49.2123 80.4988 49.3397 80.4733L50.3503 80.278L50.8471 79.3778C50.8768 79.3226 50.9363 79.2929 50.9915 79.2929M51 79.0806C50.8641 79.0806 50.7367 79.157 50.6688 79.2759L50.2187 80.0912L49.3057 80.2653C49.1698 80.2908 49.0594 80.3884 49.017 80.5201C48.9745 80.6517 49.0085 80.7961 49.1019 80.8937L49.7388 81.5731L49.6242 82.4946C49.6115 82.6007 49.6454 82.7111 49.7134 82.7918C49.7856 82.8725 49.8875 82.9192 49.9979 82.9192C50.0531 82.9192 50.1083 82.9065 50.1592 82.881L51 82.4861L51.8408 82.881C51.8917 82.9065 51.9469 82.9192 52.0021 82.9192C52.1125 82.9192 52.2144 82.8725 52.2866 82.7918C52.3588 82.7111 52.3928 82.6007 52.3758 82.4946L52.2611 81.5731L52.8981 80.8937C52.9915 80.7918 53.0255 80.6474 52.983 80.5201C52.9405 80.3884 52.8301 80.2908 52.6943 80.2653L51.7813 80.0912L51.3312 79.2759C51.2633 79.157 51.1359 79.0806 51 79.0806Z" fill="#213743"/>
<path d="M51 79.8152V80.9744C51 81.0678 51.0892 81.1315 51.1784 81.106L52.2187 80.7706C52.2739 80.7536 52.2697 80.6729 52.2102 80.6602L51.5563 80.5413C51.4969 80.5286 51.4417 80.4903 51.4119 80.4351L51.085 79.7939C51.0637 79.7515 50.9958 79.7642 50.9958 79.8152H51Z" fill="#FFEBB8"/>
<path d="M51 81.4924V82.0699C51 82.1039 51.017 82.1294 51.0467 82.1464L51.7983 82.5073C51.8365 82.5243 51.8705 82.4818 51.845 82.4479L51.0934 81.4627C51.0637 81.4245 51 81.4457 51 81.4924Z" fill="#FF7F00"/>
<path d="M56.1444 79.3778L56.6412 80.278L57.6518 80.4733C57.7792 80.4988 57.8302 80.6559 57.741 80.7494L57.0361 81.5009L57.1635 82.5243C57.1805 82.6559 57.0446 82.7494 56.93 82.6942L56 82.2568L55.0701 82.6942C54.9512 82.7494 54.8196 82.6517 54.8366 82.5243L54.9639 81.5009L54.2591 80.7494C54.1699 80.6559 54.2208 80.4988 54.3482 80.4733L55.3588 80.278L55.8557 79.3778C55.9194 79.2632 56.085 79.2632 56.1444 79.3778Z" fill="#FFC200"/>
<path d="M56 79.2929C56.0552 79.2929 56.1147 79.3226 56.1444 79.3778L56.6412 80.278L57.6518 80.4733C57.7792 80.4988 57.8302 80.6559 57.741 80.7494L57.0361 81.5009L57.1635 82.5243C57.1763 82.6262 57.0955 82.7111 56.9979 82.7111C56.9766 82.7111 56.9512 82.7069 56.9257 82.6942L55.9957 82.2568L55.0658 82.6942C55.0403 82.7069 55.0191 82.7111 54.9936 82.7111C54.9002 82.7111 54.8153 82.6262 54.828 82.5243L54.9554 81.5009L54.2505 80.7494C54.1613 80.6559 54.2123 80.4988 54.3397 80.4733L55.3503 80.278L55.8471 79.3778C55.8768 79.3226 55.9363 79.2929 55.9915 79.2929M56 79.0806C55.8641 79.0806 55.7367 79.157 55.6688 79.2759L55.2187 80.0912L54.3057 80.2653C54.1698 80.2908 54.0594 80.3884 54.017 80.5201C53.9745 80.6517 54.0085 80.7961 54.1019 80.8937L54.7388 81.5731L54.6242 82.4946C54.6115 82.6007 54.6454 82.7111 54.7134 82.7918C54.7856 82.8725 54.8875 82.9192 54.9979 82.9192C55.0531 82.9192 55.1083 82.9065 55.1592 82.881L56 82.4861L56.8408 82.881C56.8917 82.9065 56.9469 82.9192 57.0021 82.9192C57.1125 82.9192 57.2144 82.8725 57.2866 82.7918C57.3588 82.7111 57.3928 82.6007 57.3758 82.4946L57.2611 81.5731L57.8981 80.8937C57.9915 80.7918 58.0255 80.6474 57.983 80.5201C57.9405 80.3884 57.8301 80.2908 57.6943 80.2653L56.7813 80.0912L56.3312 79.2759C56.2633 79.157 56.1359 79.0806 56 79.0806Z" fill="#213743"/>
<path d="M56 79.8152V80.9744C56 81.0678 56.0892 81.1315 56.1784 81.106L57.2187 80.7706C57.2739 80.7536 57.2697 80.6729 57.2102 80.6602L56.5563 80.5413C56.4969 80.5286 56.4417 80.4903 56.4119 80.4351L56.085 79.7939C56.0637 79.7515 55.9958 79.7642 55.9958 79.8152H56Z" fill="#FFEBB8"/>
<path d="M56 81.4924V82.0699C56 82.1039 56.017 82.1294 56.0467 82.1464L56.7983 82.5073C56.8365 82.5243 56.8705 82.4818 56.845 82.4479L56.0934 81.4627C56.0637 81.4245 56 81.4457 56 81.4924Z" fill="#FF7F00"/>
<rect x="13" y="62" width="37" height="13" rx="6.5" fill="#2F4553"/>
<path d="M29.9644 70.072C29.1004 70.072 28.2664 69.73 28.2664 68.944C28.2664 68.488 28.6144 68.116 29.0764 67.936C28.6504 67.774 28.3324 67.486 28.3324 67.006C28.3324 66.232 29.1784 65.938 29.9644 65.938C30.7444 65.938 31.5964 66.232 31.5964 67.006C31.5964 67.486 31.2724 67.774 30.8464 67.936C31.3084 68.116 31.6564 68.488 31.6564 68.944C31.6564 69.724 30.8284 70.072 29.9644 70.072ZM29.9644 67.534C30.2104 67.498 30.5404 67.372 30.5404 67.156C30.5404 66.934 30.3064 66.796 29.9644 66.796C29.6104 66.796 29.3824 66.934 29.3824 67.156C29.3824 67.372 29.7184 67.498 29.9644 67.534ZM29.9644 69.214C30.3364 69.214 30.6124 69.058 30.6124 68.824C30.6124 68.578 30.2164 68.434 29.9644 68.404C29.7064 68.434 29.3164 68.578 29.3164 68.824C29.3164 69.058 29.5804 69.214 29.9644 69.214ZM34.9273 70H33.9133L33.3553 69.124L32.7913 70H31.7833L32.7733 68.512L31.8433 67.102H32.8573L33.3553 67.888L33.8473 67.102H34.8613L33.9373 68.512L34.9273 70Z" fill="white"/>
<path d="M8.03 11H7.215L6.56 9.815H6.04V11H5.33V7.665H6.89C7.585 7.665 8.01 8.12 8.01 8.74C8.01 9.33 7.64 9.645 7.28 9.73L8.03 11ZM6.785 9.19C7.07 9.19 7.285 9.02 7.285 8.74C7.285 8.46 7.07 8.29 6.785 8.29H6.04V9.19H6.785ZM10.5152 11H9.88023V10.75C9.71523 10.945 9.43023 11.06 9.11523 11.06C8.73023 11.06 8.27523 10.8 8.27523 10.26C8.27523 9.695 8.73023 9.48 9.11523 9.48C9.43523 9.48 9.72023 9.585 9.88023 9.775V9.45C9.88023 9.205 9.67023 9.045 9.35023 9.045C9.09023 9.045 8.85023 9.14 8.64523 9.33L8.40523 8.905C8.70023 8.645 9.08023 8.525 9.46023 8.525C10.0102 8.525 10.5152 8.745 10.5152 9.44V11ZM9.37023 10.63C9.57523 10.63 9.77523 10.56 9.88023 10.42V10.12C9.77523 9.98 9.57523 9.91 9.37023 9.91C9.12023 9.91 8.91523 10.04 8.91523 10.275C8.91523 10.5 9.12023 10.63 9.37023 10.63ZM11.7801 11H11.1451V8.585H11.7801V8.915C11.9501 8.7 12.2501 8.525 12.5501 8.525V9.145C12.5051 9.135 12.4451 9.13 12.3751 9.13C12.1651 9.13 11.8851 9.25 11.7801 9.405V11ZM14.0818 11.06C13.3468 11.06 12.7918 10.565 12.7918 9.79C12.7918 9.09 13.3068 8.525 14.0418 8.525C14.7618 8.525 15.2518 9.065 15.2518 9.855V9.995H13.4568C13.4968 10.3 13.7418 10.555 14.1518 10.555C14.3568 10.555 14.6418 10.465 14.7968 10.315L15.0768 10.725C14.8368 10.945 14.4568 11.06 14.0818 11.06ZM14.6368 9.565C14.6218 9.335 14.4618 9.03 14.0418 9.03C13.6468 9.03 13.4768 9.325 13.4468 9.565H14.6368Z" fill="#05080A"/>
<path d="M48.7171 11H48.2651L46.8731 9.096V11H46.4051V8.332H46.8851L48.2491 10.184V8.332H48.7171V11ZM50.144 11.048C49.532 11.048 49.152 10.588 49.152 10.032C49.152 9.48 49.532 9.02 50.144 9.02C50.764 9.02 51.14 9.48 51.14 10.032C51.14 10.588 50.764 11.048 50.144 11.048ZM50.144 10.676C50.504 10.676 50.704 10.376 50.704 10.032C50.704 9.692 50.504 9.392 50.144 9.392C49.788 9.392 49.588 9.692 49.588 10.032C49.588 10.376 49.788 10.676 50.144 10.676ZM51.7614 11.044C51.6094 11.044 51.4814 10.916 51.4814 10.764C51.4814 10.612 51.6094 10.484 51.7614 10.484C51.9134 10.484 52.0414 10.612 52.0414 10.764C52.0414 10.916 51.9134 11.044 51.7614 11.044ZM55.1333 11H54.6653V10.396H53.3933V10.02L54.4893 8.332H55.1333V9.984H55.4893V10.396H55.1333V11ZM54.6653 9.984V8.752L53.8533 9.984H54.6653ZM56.8176 11.048C56.3576 11.048 56.0416 10.892 55.8256 10.636L56.0936 10.316C56.2736 10.52 56.5136 10.632 56.8136 10.632C57.1496 10.632 57.3616 10.424 57.3616 10.164C57.3616 9.876 57.1536 9.688 56.8256 9.688C56.5976 9.688 56.4096 9.76 56.2416 9.92L55.9096 9.824V8.332H57.6576V8.744H56.3776V9.516C56.5056 9.388 56.7256 9.284 56.9816 9.284C57.4296 9.284 57.8336 9.6 57.8336 10.144C57.8336 10.7 57.4136 11.048 56.8176 11.048Z" fill="white"/>
<defs>
<clipPath id="clip0_26835_29208">
<rect width="63" height="88" fill="white"/>
</clipPath>
</defs>
</svg>
