<svg width="63" height="88" viewBox="0 0 63 88" fill="none" xmlns="http://www.w3.org/2000/svg">
<rect width="63" height="88" rx="4" fill="#FF003F"/>
<path d="M36.7008 13.5133L44.7992 3.48665C45.5586 2.54645 46.7024 2 47.911 2H58C59.6569 2 61 3.34314 61 5V83C61 84.6569 59.6569 86 58 86H5C3.34315 86 2 84.6569 2 83V18C2 16.3431 3.34315 15 5 15H33.589C34.7976 15 35.9414 14.4536 36.7008 13.5133Z" fill="#213743"/>
<rect x="5" y="18" width="53" height="40" rx="1" fill="#2F4553"/>
<g clip-path="url(#clip0_26835_29209)">
<path d="M57 18H6C5.44772 18 5 18.4477 5 19V57C5 57.5523 5.44772 58 6 58H57C57.5523 58 58 57.5523 58 57V19C58 18.4477 57.5523 18 57 18Z" fill="#1CE61C"/>
<path d="M41.67 22.3801C41.67 22.3801 41.74 22.6501 42.05 22.5201C42.36 22.3901 42.7 22.3901 42.88 22.4601C42.88 22.4601 42.89 22.4601 42.9 22.4601C43.08 22.5401 42.82 22.1101 42.82 22.1101L41.69 22.0601L41.67 22.3701V22.3801Z" fill="#1A2C38"/>
<mask id="mask0_26835_29209" style="mask-type:luminance" maskUnits="userSpaceOnUse" x="0" y="2" width="58" height="56">
<path d="M57 2H1.45001C0.897727 2 0.450012 2.44772 0.450012 3V57C0.450012 57.5523 0.897727 58 1.45001 58H57C57.5523 58 58 57.5523 58 57V3C58 2.44772 57.5523 2 57 2Z" fill="white"/>
</mask>
<g mask="url(#mask0_26835_29209)">
<path fill-rule="evenodd" clip-rule="evenodd" d="M34.561 29.4158C33.8853 27.6835 33.5536 26.8235 33.5536 26.8235C50.3119 36.3698 63.495 41.5423 73.0905 42.3409C68.7044 43.3975 57.5116 40.0803 39.5246 32.3891C41.1833 35.1535 42.0065 36.5295 42.0065 36.5295C29.4131 30.0793 23.1226 26.8603 23.1226 26.8603C23.8966 29.0841 24.2898 30.1899 24.2898 30.1899C14.9523 23.5799 3.2558 22.0441 8.89516 30.8902C-3.35417 21.1104 8.78459 18.8129 21.2674 24.4399C20.2968 22.5601 19.8053 21.6141 19.8053 21.6141C29.6343 26.8112 34.5487 29.4158 34.5487 29.4158" fill="#80FF80"/>
<path d="M42.9525 25.6194L45.7046 25.2508L45.5817 20.1643L42.031 20.9752L41.9327 24.2187L42.9525 25.6194Z" fill="#1A2C38"/>
<path d="M44.4144 21.6387L43.6772 23.4079C43.6772 23.4079 45.0042 26.5409 46.0362 26.6514C47.0682 26.762 47.5351 26.3443 47.744 25.7914C47.9528 25.2385 49.4026 23.0024 49.5623 21.6632L44.4144 21.6387Z" fill="#FFC200"/>
<path d="M46.2206 24.8576C46.2206 24.8576 46.4294 25.1893 46.7489 25.0542C47.0683 24.919 47.3263 24.9067 47.3878 24.9067C47.4492 24.9067 47.7441 25.1156 47.8424 25.0173C47.9407 24.919 47.9406 24.5381 47.9406 24.5381L46.626 24.3416L46.2206 24.8453V24.8576Z" fill="#FF7F00"/>
<path d="M52.1057 16.036C52.1057 16.036 53.0149 17.7806 52.4743 20.0044C52.4743 20.0044 53.4572 19.6481 53.5309 17.5963C53.5309 17.5963 53.2975 16.7731 52.1057 16.0237V16.036Z" fill="#FFC200"/>
<path d="M50.2013 20.2994L50.3487 21.7246C50.3487 21.7246 51.2088 22.2283 52.6954 21.7737C52.6954 21.7737 53.9977 19.894 53.5431 17.5964C53.5431 17.5964 53.4694 19.3779 50.2013 20.2994Z" fill="#FFEBB8"/>
<path d="M51 20.1764C51 20.1764 51.7249 16.4291 48.8622 14.4142C45.8521 12.301 43.1614 13.505 41.6011 16.638L44.6972 21.1716L50.9877 20.1764H51Z" fill="#007FFF"/>
<path d="M43.8861 20.7416C43.8861 20.7416 45.0164 22.7074 46.0484 22.7934C47.0805 22.8794 47.3631 22.2282 47.9282 22.3265L47.5596 23.764C47.5596 23.764 45.9747 23.42 45.7781 24.624C45.7781 24.624 48.5917 23.5674 48.3828 26.4792C48.7514 26.0492 48.9111 25.054 48.9111 25.054C48.9111 25.054 50.7786 25.2506 51.3315 27.0567C51.3315 27.0567 53.6413 25.8403 50.2995 20.0044L43.8738 20.7293L43.8861 20.7416Z" fill="#1A2C38"/>
<path d="M44.6725 25.3367C44.6725 25.3367 44.8322 25.5701 44.9059 25.6807C44.9059 25.6807 46.3557 25.2138 46.712 24.3538L45.1271 24.5749L44.6725 25.3489V25.3367Z" fill="#1A2C38"/>
<path d="M46.5154 16.7732C46.5154 16.7732 45.5817 19.0707 48.0266 19.1567L47.2772 17.965C46.8103 17.7069 46.6014 17.2769 46.5277 16.7732H46.5154Z" fill="#1A2C38"/>
<path d="M47.572 16.0484C47.572 16.0484 46.4663 18.5302 47.5966 19.0094C48.7269 19.4886 50.6436 19.2674 50.9999 18.3337C51.3562 17.3999 50.877 16.1221 50.877 16.1221C50.877 16.1221 50.8893 17.4245 50.275 17.6579C49.6607 17.8913 47.7072 18.2845 47.572 16.0361V16.0484Z" fill="#FFC200"/>
<path d="M44.7462 20.6435C44.7462 20.6435 46.3066 21.7492 48.8867 21.4052C51.4668 21.0612 52.6462 20.1029 51.0736 19.6974C49.501 19.292 45.766 19.6729 44.7462 20.6435Z" fill="#1D51B5"/>
<path d="M46.7244 13.7631L48.2601 14.5494C48.2601 14.5494 48.4199 13.3331 47.695 13.0505C46.9701 12.7679 46.7244 13.7631 46.7244 13.7631Z" fill="#007FFF"/>
<path d="M28.4916 21.8107C28.4916 21.8107 26.7347 19.8694 26.3047 20.5452C25.8746 21.2209 25.4446 27.6957 27.4596 29.895L28.4916 21.8107Z" fill="#1D51B5"/>
<path d="M37.5465 19.3778C37.5465 19.3778 35.9861 18.5423 34.5609 18.3826C34.3152 18.358 34.0695 18.4563 33.9097 18.6529C33.664 18.9478 33.3323 19.4269 33.2463 19.8815L29.1796 20.201C28.7618 20.2378 28.3687 20.4098 28.0861 20.717L27.6192 21.1839C27.6192 21.1839 26.5012 27.5113 26.9558 29.8702L37.8782 22.3265L37.5342 19.3901L37.5465 19.3778Z" fill="#1A2C38"/>
<path d="M43.2078 38.6107L1.84999 31.2072C1.52554 31.1472 1.22495 31.3985 1.16893 31.7446C1.09513 32.6492 1.86787 33.121 3.10904 33.3717L42.9225 40.5025C43.3923 40.592 43.8426 40.2336 43.9267 39.7145C44.0107 39.1954 43.6888 38.7006 43.219 38.6111L43.2078 38.6107Z" fill="#FFC200"/>
<path d="M43.6349 35.9145C43.2062 35.864 42.688 37.4701 42.4762 39.4916C42.2643 41.5131 42.42 43.1898 42.8486 43.2403L43.1671 43.275L43.9533 35.9492L43.6349 35.9145Z" fill="#FFEBB8"/>
<path d="M44.3243 39.696C44.5428 37.6721 44.3754 35.9942 43.9504 35.9483C43.5254 35.9024 43.0037 37.5059 42.7852 39.5298C42.5667 41.5537 42.7341 43.2315 43.1591 43.2774C43.5841 43.3233 44.1058 41.7198 44.3243 39.696Z" fill="#FF7300"/>
<path d="M52.1922 39.7669L43.9118 38.4061C43.644 38.3621 43.3912 38.5435 43.3472 38.8114L43.1998 39.7085C43.1557 39.9763 43.3372 40.2291 43.605 40.2731L51.8854 41.6339C52.1532 41.6779 52.406 41.4965 52.45 41.2287L52.5975 40.3315C52.6415 40.0637 52.4601 39.8109 52.1922 39.7669Z" fill="#FFEBB8"/>
<path d="M28.5406 27.6465L25.3462 31.7746C25.3462 31.7746 24.3141 33.6667 23.7367 35.7799L26.5994 38.8884L30.3098 39.1709L28.5406 27.6588V27.6465Z" fill="#1A2C38"/>
<path d="M39.2297 20.3363C39.2297 20.3363 32.288 21.786 29.1673 24.8822L28.3687 26.5408C28.3687 26.5408 24.7074 30.2389 25.4323 32.2662C26.1572 34.2934 28.0124 35.3868 27.2629 37.8687C27.2629 37.8687 27.1769 42.7709 33.2832 43.6063C39.3894 44.4418 38.3574 31.7501 38.3574 31.7501L39.2297 20.324V20.3363Z" fill="#007FFF"/>
<path d="M35.507 26.3934C35.507 26.3934 32.0055 30.6813 34.0204 33.7405C34.0204 33.7405 33.6027 36.0749 35.1753 37.0332L36.023 37.3527C36.023 37.3527 36.3302 35.9029 37.4237 35.9889L35.5193 26.3811L35.507 26.3934Z" fill="#1A2C38"/>
<path d="M35.8878 21.2699C35.8878 21.2699 36.5144 21.4788 37.1042 22.3511C37.1042 22.3511 39.4262 21.5156 39.5491 21.6262C39.672 21.7368 37.8167 20.2256 37.8167 20.2256L35.9001 21.2699H35.8878Z" fill="#071D2A"/>
<path d="M35.8878 33.372C35.8878 33.372 35.6913 36.0627 36.8585 37.279C38.0256 38.4953 37.3499 41.7635 39.8931 42.6604L42.4364 41.9478L43.4316 40.0311C43.4316 40.0311 42.1538 39.7485 42.2275 37.6845L42.3135 35.6204L41.5764 33.0034L35.8878 33.372Z" fill="#1D51B5"/>
<path d="M36.1949 26.5407C36.1949 26.5407 34.3151 25.3367 35.1629 23.3954C36.0106 21.4542 40.3599 20.8153 42.1414 22.7688C43.9229 24.7224 46.9576 27.9782 42.9769 29.3297L36.1826 26.5284L36.1949 26.5407Z" fill="#FFEBB8"/>
<path d="M36.1335 24.5259C36.1335 24.5259 35.4332 25.1525 35.2612 25.5579C35.2612 25.5579 35.4332 25.8651 35.6052 26.0494L36.1335 24.5382V24.5259Z" fill="#1A2C38"/>
<path d="M35.2612 28.7646C35.2612 28.7646 34.2415 33.7896 35.2612 35.9643L35.6175 36.1731C35.6175 36.1731 35.7649 35.2639 37.5956 34.7356C39.4262 34.2073 41.736 34.4408 42.3012 35.6202C42.3012 35.6202 42.8664 33.765 41.908 30.9884C41.908 30.9884 39.1191 27.0076 35.2366 28.7523L35.2612 28.7646Z" fill="#007FFF"/>
<path d="M41.1708 33.0892C41.048 33.5192 40.6057 33.6052 40.1511 33.4701C39.6965 33.3349 39.3893 33.0155 39.5122 32.5855C39.6351 32.1554 40.0405 32.1554 40.5074 32.2906C40.9743 32.4257 41.2937 32.6592 41.1708 33.0892Z" fill="white"/>
<path d="M34.5487 31.787C34.5487 31.787 37.3008 28.1749 41.9696 32.1187L42.3627 29.7352L34.7699 28.9612L34.3398 30.0178L34.561 31.7747L34.5487 31.787Z" fill="#1A2C38"/>
<path d="M36.1334 24.5257C36.1334 24.5257 33.7131 29.0962 33.8973 30.8531L34.4134 31.3323C34.4134 31.3323 34.5239 29.5508 37.3252 29.7597C40.1264 29.9685 41.9694 32.1186 41.9694 32.1186L43.0383 31.9835C43.0383 31.9835 43.37 29.7351 43.4191 27.327C43.4191 26.9338 43.3209 26.553 43.1243 26.2212C42.4608 25.1155 40.5687 23.076 36.1457 24.5257H36.1334Z" fill="#007FFF"/>
<path d="M41.8344 27.9046C41.8344 28.7769 41.687 29.4772 41.2938 29.4772C40.9006 29.4772 40.2372 29.2438 40.2372 28.3714C40.2372 27.4991 40.8884 26.6514 41.2938 26.6514C41.6992 26.6514 41.8344 27.0322 41.8344 27.9046Z" fill="white"/>
<path d="M37.6447 21.7491C37.6447 21.7491 38.7136 22.3143 38.5416 24.0466C38.5416 24.0466 39.3402 24.4275 39.5491 25.3612C39.5491 25.3612 40.4706 25.0172 40.9497 24.3906C40.9497 24.3906 41.9695 24.1449 42.4363 23.1251C42.4363 23.1251 40.8391 20.7048 37.6324 21.7491H37.6447Z" fill="#1A2C38"/>
<path d="M41.183 18.69C41.183 18.69 37.0672 17.3016 34.4502 20.2257C34.4502 20.2257 39.3278 19.98 39.6841 24.6119C39.6841 24.6119 42.6082 23.1498 43.5788 21.5772C43.5788 21.5772 42.9645 19.4886 41.1953 18.69H41.183Z" fill="#007FFF"/>
<path d="M44.5374 20.0044C44.5374 20.0044 44.218 21.4296 43.4439 22.2405C43.4439 22.2405 41.8713 18.6161 38.4312 18.6898C38.4312 18.6898 38.6154 16.1834 40.0038 14.6599C40.0038 14.6599 43.2719 15.0899 44.5374 19.9921V20.0044Z" fill="#FFEBB8"/>
<path d="M47.3017 23.2728C47.3017 23.2728 45.6431 22.9042 45.1516 23.8256C44.6602 24.7471 44.3776 25.5211 43.9353 25.7546C43.9353 25.7546 45.1516 25.4228 45.7905 24.6242C46.4294 23.8256 47.0929 23.7273 47.572 23.7642L47.314 23.2728H47.3017Z" fill="#FFEBB8"/>
<path d="M48.002 22.2283C48.002 22.2283 47.9405 22.1791 47.9037 22.1914C47.6948 22.2774 47.2894 22.8672 47.2894 22.8672C47.2894 22.8672 46.7365 23.162 46.9945 23.5183C47.2525 23.8746 47.8545 23.9729 48.0511 23.7272C48.2108 23.5183 48.1617 22.5354 48.002 22.2406V22.2283Z" fill="#FF7300"/>
<path d="M42.7926 50.9044C42.7926 50.9044 45.7905 53.6442 46.2573 54.9097C46.7242 56.1751 39.8931 65.0212 39.8931 65.0212C39.8931 65.0212 34.3275 64.5666 36.0598 62.1216C36.0598 62.1216 35.0155 60.5613 36.4284 59.1607L36.195 54.0373L38.431 48.054L42.7926 50.9044Z" fill="#1A2C38"/>
<path d="M36.1583 43.2131C36.1583 43.2131 45.7046 49.0368 46.2084 52.9684L45.5449 53.1035C45.5449 53.1035 44.2794 50.376 40.827 54.8113C40.827 54.8113 39.5984 55.0939 37.1535 49.1719L35.1631 45.5844L36.1706 43.2131H36.1583Z" fill="#1D51B5"/>
<path d="M19.5227 54.1477L18.761 56.3715C18.761 56.3715 17.6675 59.6028 16.402 59.6765C16.402 59.6765 14.8908 61.888 16.7583 63.264C18.6258 64.6401 21.0094 65.1684 21.9308 63.3009C22.8523 61.4334 27.7791 58.9884 29.0937 55.1183C29.0937 55.1183 32.2881 48.2503 19.5227 54.1477Z" fill="#1A2C38"/>
<path d="M23.6016 36.1609C23.6016 36.1609 21.0338 37.6352 20.3212 39.2816C19.6086 40.9279 13.8218 54.6025 14.8539 55.3396C15.8859 56.0768 16.9671 53.9022 19.0557 53.1527L23.6016 36.1609Z" fill="#1A2C38"/>
<path d="M36.2687 43.6554L29.757 43.594C29.7202 43.9011 29.671 44.2083 29.6342 44.5032L30.2116 56.6911C33.8606 54.9464 37.5956 57.1948 37.5956 57.1948C39.5123 54.5656 36.2687 43.6431 36.2687 43.6431V43.6554Z" fill="#007FFF"/>
<path d="M29.6465 44.5032C28.1107 56.5191 29.3639 57.1702 29.3639 57.1702C29.6465 56.9859 29.9291 56.8262 30.2116 56.6911C31.2191 51.064 30.2854 46.641 29.6342 44.5032H29.6465Z" fill="#071D2A"/>
<path d="M30.3591 44.4664C30.3591 44.4664 30.5311 55.2291 29.0937 55.1185C29.0937 55.1185 30.2117 49.6757 18.761 56.3717C18.761 56.3717 16.6355 53.3125 23.1226 36.3821L26.3907 37.8687L30.3591 44.4541V44.4664Z" fill="#007FFF"/>
<path d="M23.442 37.0824C23.442 37.0824 26.3047 41.8494 28.5899 43.2623C28.5899 43.2623 29.6834 47.8942 31.6738 45.5475L29.8063 42.304L23.442 37.0701V37.0824Z" fill="#071D2A"/>
<path d="M28.8847 41.1735C28.8847 41.1735 28.4179 38.2739 26.6609 37.377C24.904 36.4801 23.6262 33.9246 23.0979 35.227C22.5696 36.5293 22.9136 36.7013 23.5894 37.6105C24.2651 38.5197 29.5605 44.4539 32.5829 44.8716C35.593 45.2893 36.9445 43.9133 36.9445 43.9133C36.9445 43.9133 37.2025 42.2055 36.5636 42.2669C35.9247 42.3284 34.3889 45.3016 28.8847 41.1735Z" fill="#FFC200"/>
<path d="M28.4792 39.7239C28.4792 39.7239 29.0321 45.867 31.3665 45.7564C33.7009 45.6458 28.4792 39.7239 28.4792 39.7239Z" fill="#FF7300"/>
<path d="M52.8059 41.8984C52.8059 41.8984 54.0837 40.0309 54.7594 39.736C55.4352 39.4412 55.5703 40.9278 54.4154 42.2301L52.8059 41.8984Z" fill="#007FFF"/>
<path d="M54.5998 40.7683C54.5998 40.7683 55.6441 41.9969 55.4721 43.5941C55.4721 43.5941 56.3813 44.6507 54.8824 45.5108L53.8872 44.6385L54.1206 41.6406L54.6121 40.7683H54.5998Z" fill="#007FFF"/>
<path d="M53.7766 41.1982C53.7766 41.1982 52.376 41.493 51.6511 41.0384C50.9262 40.5838 49.759 41.1982 51.5159 42.8936L53.7889 41.1982H53.7766Z" fill="#007FFF"/>
<path d="M51.0122 43.25C51.0122 43.25 52.634 40.8173 53.9363 40.9525C55.2386 41.0876 54.8946 45.5106 54.8946 45.5106C54.8946 45.5106 53.5554 47.0464 50.6559 45.4738L51.0122 43.25Z" fill="#1D51B5"/>
<path d="M51.4912 42.4758C51.4912 42.4758 50.3732 42.8076 47.7071 41.2595C45.041 39.7115 42.6329 39.4043 42.6329 39.4043C42.6329 39.4043 43.4192 40.5469 39.4385 42.4513C39.4385 42.4513 37.3867 43.1516 39.9054 44.3556C42.424 45.5597 50.1643 45.5351 50.1643 45.5351C50.1643 45.5351 50.2135 45.7808 50.6189 45.8423C50.9261 45.8791 52.9533 44.9331 51.4912 42.4758Z" fill="#007FFF"/>
</g>
<path fill-rule="evenodd" clip-rule="evenodd" d="M35.16 50.1503C35.71 51.6003 35.99 52.3303 35.99 52.3303C22.02 44.2603 11.02 39.8703 3 39.1503C6.68 38.2903 16.02 41.1203 31.02 47.6403C29.65 45.3203 28.96 44.1703 28.96 44.1703C39.46 49.6303 44.71 52.3603 44.71 52.3603C44.07 50.5003 43.75 49.5703 43.75 49.5703C51.52 55.1503 61.3 56.4903 56.62 49.0603C66.82 57.3003 56.65 59.1603 46.24 54.3903C47.04 55.9703 47.45 56.7603 47.45 56.7603C39.25 52.3603 35.16 50.1603 35.16 50.1603" fill="white"/>
<path d="M46.39 24.61C46.39 24.61 46.5 24.81 46.68 24.75C46.86 24.69 47.33 24.49 47.79 24.63L47.05 24.25L46.45 24.38L46.39 24.6V24.61Z" fill="#1A2C38"/>
</g>
<path fill-rule="evenodd" clip-rule="evenodd" d="M6.49771 79C6.98969 79 7.48602 79.213 7.49037 79.6913C7.49037 80.1043 7.24656 80.2696 6.99839 80.2696C6.75023 80.2696 6.73281 80.1435 6.73281 80.1435C6.73281 80.1435 7.02452 79.9261 7.02452 79.7174C7.02452 79.6087 6.94179 79.313 6.489 79.3174C5.8577 79.3174 5.5181 79.6174 5.5181 80.1522C5.5181 80.7652 7.35105 80.9739 7.3554 81.7652C7.3554 82.613 6.47594 82.9957 5.69225 83C5.283 83 5.01306 82.7609 5.00871 82.3783C5.00871 81.9261 5.22204 81.4652 5.75756 81.4652C5.88382 81.4565 5.98831 81.5522 5.99702 81.6783C5.99702 81.6783 5.99702 81.6826 5.99702 81.687C5.99702 81.687 5.45715 81.8391 5.4615 82.3783C5.4615 82.4783 5.56599 82.6609 5.81851 82.6565C6.07103 82.6522 6.82424 82.4739 6.81989 81.8087C6.81989 81.1913 5.00435 81.1087 5 80.1478C5 79.0652 6.08845 79.0087 6.49771 79.0087V79ZM10.747 79.6C10.8123 79.5696 11.2129 79.4913 11.1955 79.813C11.1824 80.1348 10.9386 80.6913 10.9037 80.9348C11.2303 80.7696 11.6918 80.2087 11.6918 80.2087C11.6918 80.2087 12.0183 80.2522 11.9182 80.4522C11.818 80.6522 11.1519 81.1435 11.1519 81.1435C11.1519 81.1435 11.3043 82.5696 12.1707 82.5696C12.6453 82.5696 12.8499 82.3609 12.937 82.287C12.9587 82.2696 12.9762 82.2652 12.9849 82.2783C13.0197 82.387 12.9936 82.5043 12.9152 82.5913C12.8194 82.6957 12.5974 82.8217 12.1533 82.8261C11.3653 82.8261 10.9255 82.1957 10.8123 81.2609C10.7252 81.5348 10.7339 81.9826 10.7209 82.2C10.6948 82.2435 10.2507 82.4174 10.2158 82.1174C10.2158 82.0913 10.2158 82.0696 10.2158 82.0435C10.1331 82.1609 10.0199 82.2826 9.91108 82.2826C9.71951 82.2826 9.63679 82.1217 9.60196 82.0391C9.57584 82.0696 9.3625 82.287 9.08821 82.287C8.92277 82.2913 8.77474 82.1957 8.70943 82.0435C8.57011 82.1435 8.32195 82.2913 8.03895 82.2913C7.73418 82.2913 7.66017 82.1087 7.66017 81.9565C7.66017 81.713 7.84303 80.987 7.84303 80.987C7.84303 80.987 7.48602 81.1304 7.36411 81.1348C7.19431 81.1348 7.11159 80.8217 7.11159 80.813C7.11159 80.8087 7.11159 80.8 7.1203 80.8C7.22044 80.7609 7.94317 80.513 7.94317 80.513C7.94317 80.513 8.07813 79.9826 8.09555 79.913C8.11296 79.8435 8.2131 79.7 8.33065 79.6565C8.41773 79.6217 8.50916 79.6 8.60059 79.5913C8.63107 79.5913 8.65284 79.6 8.65284 79.6174C8.65284 79.6348 8.47433 80.4087 8.47433 80.4087C8.47433 80.4087 8.84876 80.3217 8.98808 80.3217C9.09692 80.3217 9.15352 80.387 9.09257 80.4696C9.03162 80.5522 8.96196 80.6478 8.92712 80.6913C8.88794 80.7348 8.86182 80.7435 8.77039 80.7609C8.64413 80.787 8.36113 80.8565 8.36113 80.8565C8.36113 80.8565 8.13473 81.6783 8.13909 81.8174C8.13909 81.8957 8.16521 81.987 8.26099 81.987C8.35678 81.987 8.53964 81.8739 8.67025 81.7913C8.69202 81.1522 9.18835 80.7261 9.57584 80.7261C9.7021 80.7261 9.65421 80.8478 9.79788 80.8478H9.88931C9.94591 80.8478 10.0069 80.8522 10.0069 80.9957C10.0069 81.1957 9.89367 81.5261 9.89367 81.7348C9.89367 81.8826 9.91544 81.987 9.97204 81.987C10.0678 81.987 10.1767 81.8478 10.255 81.7261C10.3813 81.0304 10.734 79.7609 10.734 79.6174L10.747 79.6ZM12.5016 80.7C12.7672 80.6783 12.9326 80.8217 12.9631 80.9C12.9936 80.9783 12.9892 81.1609 12.9152 81.2913C12.6845 81.7044 12.1097 81.6304 12.1097 81.6304C12.1097 81.6304 12.0444 81.9565 12.3405 81.9565C12.593 81.9565 12.7062 81.8304 12.8151 81.7261C12.8586 81.7261 12.9936 81.8652 12.9326 81.9609C12.8847 82.0348 12.6191 82.2565 12.2795 82.2609C11.7397 82.2609 11.6047 81.8 11.6744 81.4696C11.7658 81.0609 12.1751 80.7217 12.5016 80.6957V80.7ZM9.6455 80.987C9.32332 80.987 8.82699 81.9696 9.20577 81.9652C9.61938 81.9652 9.6455 81.1826 9.6455 81.0043V80.987ZM12.6409 80.8913C12.4232 80.9 12.1751 81.3174 12.1533 81.5C12.4798 81.513 12.654 81.1957 12.6757 81.0696C12.6888 80.9739 12.6932 80.887 12.6409 80.887V80.8913Z" fill="#557086"/>
<path d="M56.1444 79.3778L56.6412 80.278L57.6518 80.4733C57.7792 80.4988 57.8302 80.6559 57.741 80.7494L57.0361 81.5009L57.1635 82.5243C57.1805 82.6559 57.0446 82.7494 56.93 82.6942L56 82.2568L55.0701 82.6942C54.9512 82.7494 54.8196 82.6517 54.8366 82.5243L54.9639 81.5009L54.2591 80.7494C54.1699 80.6559 54.2208 80.4988 54.3482 80.4733L55.3588 80.278L55.8557 79.3778C55.9194 79.2632 56.085 79.2632 56.1444 79.3778Z" fill="#FFC200"/>
<path d="M56 79.2929C56.0552 79.2929 56.1147 79.3226 56.1444 79.3778L56.6412 80.278L57.6518 80.4733C57.7792 80.4988 57.8302 80.6559 57.741 80.7494L57.0361 81.5009L57.1635 82.5243C57.1763 82.6262 57.0955 82.7111 56.9979 82.7111C56.9766 82.7111 56.9512 82.7069 56.9257 82.6942L55.9957 82.2568L55.0658 82.6942C55.0403 82.7069 55.0191 82.7111 54.9936 82.7111C54.9002 82.7111 54.8153 82.6262 54.828 82.5243L54.9554 81.5009L54.2505 80.7494C54.1613 80.6559 54.2123 80.4988 54.3397 80.4733L55.3503 80.278L55.8471 79.3778C55.8768 79.3226 55.9363 79.2929 55.9915 79.2929M56 79.0806C55.8641 79.0806 55.7367 79.157 55.6688 79.2759L55.2187 80.0912L54.3057 80.2653C54.1698 80.2908 54.0594 80.3884 54.017 80.5201C53.9745 80.6517 54.0085 80.7961 54.1019 80.8937L54.7388 81.5731L54.6242 82.4946C54.6115 82.6007 54.6454 82.7111 54.7134 82.7918C54.7856 82.8725 54.8875 82.9192 54.9979 82.9192C55.0531 82.9192 55.1083 82.9065 55.1592 82.881L56 82.4861L56.8408 82.881C56.8917 82.9065 56.9469 82.9192 57.0021 82.9192C57.1125 82.9192 57.2144 82.8725 57.2866 82.7918C57.3588 82.7111 57.3928 82.6007 57.3758 82.4946L57.2611 81.5731L57.8981 80.8937C57.9915 80.7918 58.0255 80.6474 57.983 80.5201C57.9405 80.3884 57.8301 80.2908 57.6943 80.2653L56.7813 80.0912L56.3312 79.2759C56.2633 79.157 56.1359 79.0806 56 79.0806Z" fill="#213743"/>
<path d="M56 79.8152V80.9744C56 81.0678 56.0892 81.1315 56.1784 81.106L57.2187 80.7706C57.2739 80.7536 57.2697 80.6729 57.2102 80.6602L56.5563 80.5413C56.4969 80.5286 56.4417 80.4903 56.4119 80.4351L56.085 79.7939C56.0637 79.7515 55.9958 79.7642 55.9958 79.8152H56Z" fill="#FFEBB8"/>
<path d="M56 81.4924V82.0699C56 82.1039 56.017 82.1294 56.0467 82.1464L56.7983 82.5073C56.8365 82.5243 56.8705 82.4818 56.845 82.4479L56.0934 81.4627C56.0637 81.4245 56 81.4457 56 81.4924Z" fill="#FF7F00"/>
<rect x="13" y="62" width="37" height="13" rx="6.5" fill="#2F4553"/>
<path d="M31.2002 70H30.1622V69.268H28.2482V68.464L29.7662 65.998H31.2002V68.362H31.6862V69.268H31.2002V70ZM30.1622 68.362V66.898L29.2502 68.362H30.1622ZM34.9215 70H33.9075L33.3495 69.124L32.7855 70H31.7775L32.7675 68.512L31.8375 67.102H32.8515L33.3495 67.888L33.8415 67.102H34.8555L33.9315 68.512L34.9215 70Z" fill="white"/>
<path d="M8.03 11H7.215L6.56 9.815H6.04V11H5.33V7.665H6.89C7.585 7.665 8.01 8.12 8.01 8.74C8.01 9.33 7.64 9.645 7.28 9.73L8.03 11ZM6.785 9.19C7.07 9.19 7.285 9.02 7.285 8.74C7.285 8.46 7.07 8.29 6.785 8.29H6.04V9.19H6.785ZM10.5152 11H9.88023V10.75C9.71523 10.945 9.43023 11.06 9.11523 11.06C8.73023 11.06 8.27523 10.8 8.27523 10.26C8.27523 9.695 8.73023 9.48 9.11523 9.48C9.43523 9.48 9.72023 9.585 9.88023 9.775V9.45C9.88023 9.205 9.67023 9.045 9.35023 9.045C9.09023 9.045 8.85023 9.14 8.64523 9.33L8.40523 8.905C8.70023 8.645 9.08023 8.525 9.46023 8.525C10.0102 8.525 10.5152 8.745 10.5152 9.44V11ZM9.37023 10.63C9.57523 10.63 9.77523 10.56 9.88023 10.42V10.12C9.77523 9.98 9.57523 9.91 9.37023 9.91C9.12023 9.91 8.91523 10.04 8.91523 10.275C8.91523 10.5 9.12023 10.63 9.37023 10.63ZM11.7801 11H11.1451V8.585H11.7801V8.915C11.9501 8.7 12.2501 8.525 12.5501 8.525V9.145C12.5051 9.135 12.4451 9.13 12.3751 9.13C12.1651 9.13 11.8851 9.25 11.7801 9.405V11ZM14.0818 11.06C13.3468 11.06 12.7918 10.565 12.7918 9.79C12.7918 9.09 13.3068 8.525 14.0418 8.525C14.7618 8.525 15.2518 9.065 15.2518 9.855V9.995H13.4568C13.4968 10.3 13.7418 10.555 14.1518 10.555C14.3568 10.555 14.6418 10.465 14.7968 10.315L15.0768 10.725C14.8368 10.945 14.4568 11.06 14.0818 11.06ZM14.6368 9.565C14.6218 9.335 14.4618 9.03 14.0418 9.03C13.6468 9.03 13.4768 9.325 13.4468 9.565H14.6368Z" fill="white"/>
<path d="M48.7132 11H48.2612L46.8692 9.096V11H46.4012V8.332H46.8812L48.2452 10.184V8.332H48.7132V11ZM50.1401 11.048C49.5281 11.048 49.1481 10.588 49.1481 10.032C49.1481 9.48 49.5281 9.02 50.1401 9.02C50.7601 9.02 51.1361 9.48 51.1361 10.032C51.1361 10.588 50.7601 11.048 50.1401 11.048ZM50.1401 10.676C50.5001 10.676 50.7001 10.376 50.7001 10.032C50.7001 9.692 50.5001 9.392 50.1401 9.392C49.7841 9.392 49.5841 9.692 49.5841 10.032C49.5841 10.376 49.7841 10.676 50.1401 10.676ZM51.7575 11.044C51.6055 11.044 51.4775 10.916 51.4775 10.764C51.4775 10.612 51.6055 10.484 51.7575 10.484C51.9095 10.484 52.0375 10.612 52.0375 10.764C52.0375 10.916 51.9095 11.044 51.7575 11.044ZM55.1293 11H54.6613V10.396H53.3893V10.02L54.4853 8.332H55.1293V9.984H55.4853V10.396H55.1293V11ZM54.6613 9.984V8.752L53.8493 9.984H54.6613ZM56.8617 11.048C56.0777 11.048 55.7617 10.412 55.7617 9.672C55.7617 8.9 56.1657 8.292 56.9377 8.292C57.2697 8.292 57.5257 8.412 57.7057 8.588L57.4857 8.944C57.3457 8.796 57.1937 8.708 56.9377 8.708C56.4937 8.708 56.2337 9.12 56.2337 9.588C56.2337 9.616 56.2337 9.64 56.2377 9.664C56.3577 9.484 56.6377 9.292 56.9537 9.292C57.4337 9.292 57.8457 9.584 57.8457 10.152C57.8457 10.648 57.4577 11.048 56.8617 11.048ZM56.8377 10.632C57.1897 10.632 57.3737 10.384 57.3737 10.168C57.3737 9.84 57.1177 9.692 56.8257 9.692C56.5977 9.692 56.3777 9.816 56.2417 10.008C56.2697 10.296 56.4257 10.632 56.8377 10.632Z" fill="white"/>
<defs>
<clipPath id="clip0_26835_29209">
<rect width="63" height="88" fill="white"/>
</clipPath>
</defs>
</svg>
