<svg width="63" height="88" viewBox="0 0 63 88" fill="none" xmlns="http://www.w3.org/2000/svg">
<rect width="63" height="88" rx="4" fill="#FF003F"/>
<path d="M36.7008 13.5133L44.7992 3.48665C45.5586 2.54645 46.7024 2 47.911 2H58C59.6569 2 61 3.34314 61 5V83C61 84.6569 59.6569 86 58 86H5C3.34315 86 2 84.6569 2 83V18C2 16.3431 3.34315 15 5 15H33.589C34.7976 15 35.9414 14.4536 36.7008 13.5133Z" fill="#213743"/>
<rect x="5" y="18" width="53" height="40" rx="1" fill="#2F4553"/>
<g clip-path="url(#clip0_26835_29210)">
<path d="M57.89 18.5601L35.48 31.5001H58V19.0001C58 18.8401 57.95 18.7001 57.89 18.5601Z" fill="#45A7FF"/>
<path d="M57.89 18.56C57.73 18.23 57.39 18 57 18H43.27L35.48 31.5L57.89 18.56Z" fill="#047BFF"/>
<path d="M43.27 18H35.48V31.5L43.27 18Z" fill="#45A7FF"/>
<path d="M35.48 18H27.68L35.48 31.5V18Z" fill="#047BFF"/>
<path d="M27.68 18H12.09L35.48 31.5L27.68 18Z" fill="#45A7FF"/>
<path d="M12.09 18H6C5.45 18 5 18.45 5 19V31.5H35.48L12.1 18H12.09Z" fill="#047BFF"/>
<path d="M5 31.5V49.1L35.48 31.5H5Z" fill="#45A7FF"/>
<path d="M5 49.1V57C5 57.55 5.45 58 6 58H20.18L35.48 31.5L5 49.1Z" fill="#047BFF"/>
<path d="M20.18 58H35.48V31.5L20.18 58Z" fill="#45A7FF"/>
<path d="M35.48 58H50.78L35.48 31.5V58Z" fill="#047BFF"/>
<path d="M50.78 58H57C57.55 58 58 57.55 58 57V44.51L35.48 31.51L50.78 58.01V58Z" fill="#45A7FF"/>
<path d="M58 44.51V31.5H35.48L58 44.51Z" fill="#047BFF"/>
<path d="M58 29.36C56.01 28.49 55.58 26.86 53.58 25.75C53.58 25.75 52.23 24.81 50.27 24.12C50.32 23.94 50.5 23.23 50.72 22.24C50.88 21.54 51.03 20.99 51.16 20.19C51.31 19.46 51.45 18.71 51.56 18H48.6C48.52 18.12 48.45 18.23 48.38 18.34C48.02 18.86 47.67 19.4 47.33 19.92C47.33 19.92 46.67 20.89 45.95 22.08C45.48 22.83 45.18 23.32 45.16 23.36C45.09 23.36 45.03 23.38 44.96 23.39C44.97 23.02 45.02 20.67 44.24 19.8C44.2 19.74 44.15 19.69 44.08 19.65C43.45 19.31 42.26 21.04 41.35 22.59C41.32 21.66 41.51 20.17 40.86 19.83C40.44 19.59 39.81 20 39.07 20.75C39.29 19.43 40.47 18.12 40.47 18.12C40.31 18.1 40.19 18.05 40.08 18H38.01C37.35 19.39 37.71 21.29 37.91 22.09C37.77 22.26 37.63 22.44 37.49 22.62C37.25 20.39 36.28 18.59 35.93 18H35.79C35.65 18.64 34.41 19.53 34.41 19.53C36.5 20.61 36.34 23.29 36.19 24.35C36.1 24.48 36 24.6 35.91 24.73C34.85 24.46 34.36 23.28 34.07 21.49C33.78 19.67 33.09 19.79 33.09 19.79L30.72 21.16C30.72 21.16 32.1 21.7 32.67 23.41C33.16 24.88 34.82 25.46 35.27 25.59C35.03 25.92 34.79 26.23 34.55 26.53C34.11 26.33 32.71 25.69 31.86 25.28C30.83 24.78 30.77 23.4 30.77 23.4C30.44 24.1 28.75 24.71 28.75 24.71C29.11 26.12 31.05 26.85 32.29 26.59C33.53 26.34 33.71 27.52 33.71 27.52C33.71 27.52 33.14 28.23 32.8 28.54C30.33 27.54 28.51 28.69 28.51 28.69L29.17 30.7C31.8 29.36 33.19 29.86 33.8 30.28C33.58 30.71 32.96 31.57 32.7 31.91C32.37 31.81 31.96 31.71 31.47 31.61C29.8 31.27 28.31 32.32 28.07 32.51C24.16 32.22 19.3 32.16 16.33 33.24C14.19 34.02 14.45 33.85 13.59 34.68C11.05 33.39 6.36 31.07 5.83 27.47C5.83 27.47 5.59 28.43 5.01 29.59V31.48C6.21 32.66 8.85 34.98 11.93 35.73C11.71 36.01 11.6 36.19 11.6 36.19C10 35.78 7.39 35.17 5 34.81V38.07C6.6 37.82 8.32 37.7 9.36 38.11C7.78 38.62 6.32 38.92 5 39.18V41.31C5.93 40.61 7.05 40.84 8.25 40.32C7 41.72 5.58 43.09 5.58 43.09L6.45 43.16C5.96 43.77 5.61 44.19 5.57 44.23C5.39 44.44 5.2 44.65 5.01 44.86V47.57C6.22 46.59 7.76 45.23 7.76 45.23C7.5 46.32 6.19 48.68 6.19 48.68L7.49 48.82C7.11 49.25 6.73 49.66 6.36 50.03C5.89 50.52 5.43 50.92 5.06 51.17L5.74 51.58C5.48 51.93 5.23 52.3 5.03 52.63C5.03 52.64 5.02 52.66 5.01 52.67V54.52C5.85 55.5 7.78 56.74 8.85 56.56C9.14 56.51 9.48 56.26 9.84 55.88C10.11 55.6 10.39 55.26 10.66 54.89L11.17 55.36C11.17 55.36 12.02 53.85 13.32 52.05C12.83 53.12 12.45 53.86 12.45 53.86L13.62 54.21C13.56 54.5 13.5 54.93 13.5 55.38C13.5 56.16 13.69 57.01 14.43 57.4C14.9 57.65 15.5 57.84 16.13 57.96H18.47C18.94 57.84 19.3 57.61 19.45 57.27C19.53 57.09 19.62 56.76 19.71 56.34C19.71 56.34 20.8 52.75 21.14 51.36C21.19 51.15 21.24 50.94 21.3 50.74H21.34C22.56 49.61 24.05 44.71 24.05 44.71C24 47.34 23.64 50.74 23.64 50.74L26.39 50.69C26.66 50.08 26.9 48.87 27.05 47.94C27.2 48.82 27.24 49.73 27.22 50.6C27.14 53.03 26.58 55.13 26.58 55.13H27.73C27.73 55.53 27.77 55.95 27.85 56.35C27.96 56.97 28.18 57.52 28.55 57.83C28.6 57.88 28.67 57.92 28.75 57.96H33.16C33.76 57.76 34.27 57.47 34.57 57.07C34.85 56.69 34.93 56.11 34.9 55.44C34.88 55.08 34.84 54.7 34.77 54.32L35.88 53.94C35.52 52.98 35.27 51.51 35.11 50.1C35.01 49.35 34.94 48.62 34.89 47.99C35.15 48.59 35.36 48.94 35.36 48.94L37.67 48.5C37.13 46.98 37.11 44.69 37.11 44.69C37.88 46.87 38.8 48.38 38.8 48.38L39.33 48.27C39.44 48.63 39.55 48.98 39.64 49.32C40.32 51.69 40.5 53.43 40.5 53.43L41.85 53.26C41.99 53.56 42.14 53.86 42.31 54.12C42.7 54.7 43.18 55.13 43.75 55.16C45.68 55.25 48.91 54.13 48.85 52.69C48.85 52.39 48.74 51.99 48.59 51.54C48.51 51.29 48.4 51.01 48.29 50.74L48.88 50.35C47.97 49.13 47.1 47.61 46.45 46.37C46.34 46.15 46.23 45.94 46.13 45.74L47.45 44.97C46.79 44.23 46.02 43.05 45.4 42.01L46.05 41.63C45.21 40.56 44.63 39.59 44.27 38.88L44.66 38.78C44.66 38.78 44.27 37.93 43.88 36.7C44.33 36.75 44.81 36.79 45.33 36.83C48.66 37.05 53.19 36.93 55.05 34.85C55.31 34.56 55.54 34.25 55.75 33.93C55.92 33.66 56.07 33.37 56.19 33.08C56.23 33.29 56.26 33.49 56.26 33.65L57.33 33.42C57.33 33.42 57.21 32.05 56.85 30.74C56.81 30.56 56.76 30.38 56.72 30.18L58.04 29.75V29.3L58 29.36Z" fill="#1A2C38"/>
<path d="M15.97 34.9798C15.58 35.0398 15.2 35.0698 14.81 35.0698C13.6 35.0698 12.42 34.7398 11.33 34.2598C8.07001 32.8398 5.64001 30.0198 5.64001 30.0198C6.64001 28.7098 7.09001 26.8298 7.09001 26.8298C7.37001 28.7098 8.58002 30.2898 10.02 31.5398C11.81 33.0898 13.96 34.1398 15.12 34.6398C15.65 34.8598 15.97 34.9798 15.97 34.9798Z" fill="#1CE61C"/>
<path d="M12.9869 36.6646C11.7222 34.314 3.11028 35.7957 2 35C2 35 3.47715 36.7561 3.16821 38C3.16821 38 10.8243 35.7957 11.7898 37.9085C11.9636 38.2927 13.18 37.0396 12.9773 36.6738L12.9869 36.6646Z" fill="#1CE61C"/>
<path d="M5.03999 35.52C5.03999 35.52 4.96999 36.03 4.29999 36.49C4.29999 36.49 8.99999 35.32 12.48 36.42L12.71 35.87C12.71 35.87 8.02999 34.73 5.03999 35.52Z" fill="#0CCC0C"/>
<path d="M12.9313 36.0119C8.15473 38.5916 4.19003 37.96 2 40.0045C2 40.0045 3.72748 39.6727 4.50154 41C5.64375 38.6451 8.74 40.0473 12.4876 37.3713C12.4876 37.3713 13.2239 35.8513 12.9313 36.0119Z" fill="#E94868"/>
<path d="M14.5 35.6598C14.5 35.6598 4.64 32.8898 2 33.8598C2 33.8598 3.81 34.5398 4.01 35.9598C4.01 35.9598 8.9 34.4998 13.93 36.5298L14.5 35.6598Z" fill="#E94868"/>
<path d="M36.02 52.9499C36.05 53.5999 35.97 54.1699 35.7 54.5299C34.64 55.9599 30.75 56.0099 29.87 55.2699C29.52 54.9699 29.3 54.4299 29.19 53.8299C28.91 52.3199 29.23 50.3699 29.23 50.3699L30.83 48.1899L34.91 48.4199C34.91 48.4199 35.94 51.0299 36.03 52.9399L36.02 52.9499Z" fill="#FFC200"/>
<path d="M36.02 52.95L35.09 53.2599C35.09 53.2599 33.95 51.6099 33.73 49.7799C33.72 49.7299 33.71 49.6699 33.7 49.6199C33.7 49.6599 33.7 49.7099 33.7 49.7799C33.71 50.4599 33.78 52.5299 33.95 53.7299L31.67 53.9599C31.67 53.9599 31.09 51.89 30.93 50.29C30.92 50.19 30.9 50.0999 30.9 50.0099C30.9 50.0099 30.89 50.1199 30.87 50.2999C30.81 51.0799 30.58 53.21 30.28 53.83H29.19C28.91 52.34 29.23 50.38 29.23 50.38L30.83 48.2L34.91 48.43C34.91 48.43 35.94 51.04 36.03 52.95H36.02Z" fill="#FF7F00"/>
<path d="M49.53 50.2899C49.59 51.6899 46.46 52.7799 44.59 52.6799C44.04 52.6499 43.57 52.2399 43.2 51.6799C42.31 50.3499 41.92 48.1499 41.92 48.1499L42.32 46.2199L47.37 45.0999C47.37 45.0999 47.53 45.3899 47.76 45.8499C47.8 45.9399 47.86 46.0299 47.91 46.1299C48.34 46.9799 48.93 48.1999 49.26 49.1799C49.41 49.6199 49.51 49.9999 49.52 50.2899H49.53Z" fill="#FFC200"/>
<path d="M48.02 49.9899C48.02 49.9899 46.58 48.7499 45.85 47.0399C45.85 47.0399 46.56 49.2599 47.24 50.3399L45.43 50.9299C45.43 50.9299 43.92 49.9199 43.21 47.4799C43.21 47.4799 43.21 49.6599 43.93 51.5899L43.19 51.6799C42.3 50.3499 41.91 48.1499 41.91 48.1499L42.31 46.2199L47.36 45.0999C47.48 45.3399 47.62 45.5899 47.76 45.8499C47.8 45.9399 47.86 46.0299 47.91 46.1299C48.34 46.9799 48.93 48.1999 49.26 49.1799L48.01 49.9999L48.02 49.9899Z" fill="#FF7F00"/>
<path d="M38.69 21.42C38.69 21.42 37.18 16.77 40.22 15.72C40.22 15.72 39.94 17.04 41.08 17.2C41.08 17.2 39.21 19.26 39.79 20.79L38.7 21.42H38.69Z" fill="#E94868"/>
<path d="M36.84 23.6899C36.84 23.6899 37.76 19.8899 35.2 18.5699C35.2 18.5699 36.72 17.4799 36.54 16.8699C36.54 16.8699 38.03 19.1099 38.22 21.9299L36.83 23.6899H36.84Z" fill="#1CE61C"/>
<path d="M31.62 20.1599L33.92 18.8299C33.92 18.8299 34.59 18.7099 34.87 20.4699C35.15 22.2299 35.64 23.3899 36.7 23.6199L36.15 24.4799C36.15 24.4799 34.07 23.9799 33.52 22.3299C32.97 20.6799 31.63 20.1499 31.63 20.1499L31.62 20.1599Z" fill="#E94868"/>
<path d="M31.66 22.3298C31.66 22.3298 31.72 23.6698 32.72 24.1598C33.72 24.6498 35.48 25.4398 35.48 25.4398L34.52 26.3298C34.52 26.3298 34.34 25.1798 33.14 25.4298C31.94 25.6798 30.06 24.9698 29.71 23.6098C29.71 23.6098 31.34 23.0198 31.66 22.3398V22.3298Z" fill="#1CE61C"/>
<path d="M29.47 27.45C29.47 27.45 32.13 25.78 35.36 28.34L34.96 29.35C34.96 29.35 33.77 27.53 30.11 29.4L29.47 27.45Z" fill="#E94868"/>
<path d="M29.36 30.7398C29.36 30.7398 30.93 29.4698 32.7 29.8398C34.47 30.2098 35.1 30.5998 35.1 30.5998L34.6 32.0998C34.6 32.0998 32.74 30.2298 29.53 32.9798L29.36 30.7498V30.7398Z" fill="#1CE61C"/>
<path d="M41.1 23.26C41.1 23.26 43.86 17.67 44.93 18.24C45.78 18.7 44.72 22.08 44.72 22.08L41.1 23.26Z" fill="#FFC200"/>
<path d="M44.93 18.24C45.91 18.98 45.77 21.91 45.77 21.91L43.81 22.38C43.81 22.38 45.47 19.45 44.93 18.24Z" fill="#FFE594"/>
<path d="M56.96 30.3299C56.82 30.9499 56.56 31.5599 56.2 32.1299C56 32.4399 55.77 32.7399 55.52 33.0199C53.72 35.0299 49.33 35.1599 46.11 34.9399C43.93 34.7799 42.26 34.4799 42.26 34.4799L50 25.1999L54.14 24.1499C54.36 24.2999 54.58 24.4499 54.77 24.5999C56.88 26.2699 57.45 28.4099 56.96 30.3399V30.3299Z" fill="#FFC200"/>
<path d="M56.2 32.1299C56 30.9599 55.38 29.0699 55.38 29.0699C55.7 30.8799 55.61 32.7499 55.61 32.7499L53.97 33.1599C53.84 31.5899 53.25 29.9099 53.25 29.9099C53.3 31.6999 52.93 33.4499 52.93 33.4499L50.98 33.8999C51.39 32.4399 50.55 26.6799 50.55 26.6799C50.55 26.6799 55.54 26.9699 56.3 28.3799C56.59 28.9299 56.81 29.6399 56.96 30.3299C56.82 30.9499 56.56 31.5599 56.2 32.1299Z" fill="#FF7F00"/>
<path d="M14.73 48.9199C14.73 48.9199 13.09 51.9899 11.75 53.3699C11.4 53.7399 11.07 53.9799 10.79 54.0299C9.45999 54.2499 6.74999 52.2099 6.66999 51.3399C6.63999 51.0899 6.82999 50.6799 7.08999 50.2199C7.79999 49.0299 9.13999 47.4799 9.13999 47.4799L12.11 46.9399L14.73 48.9099V48.9199Z" fill="#FFC200"/>
<path d="M22.35 46.6899C22.35 46.6899 22.2 47.9999 21.99 49.5699C21.99 49.5699 21.99 49.5799 21.99 49.5899C21.81 50.9299 21.58 52.4599 21.37 53.5399C21.37 53.5499 21.37 53.5599 21.37 53.5599C21.35 53.6499 21.33 53.7399 21.31 53.8299C21.22 54.2299 21.14 54.5499 21.06 54.7299C20.58 55.8799 17.67 55.6499 16.2 54.8599C15.49 54.4799 15.3 53.6499 15.3 52.8999C15.3 52.0999 15.51 51.3699 15.51 51.3699L16.97 46.8799L22.36 46.6799L22.35 46.6899Z" fill="#FFC200"/>
<path d="M47.89 49.12C47.89 49.12 46.45 47.88 45.72 46.17C45.72 46.17 46.43 48.39 47.11 49.47L45.3 50.06C45.3 50.06 43.79 49.05 43.08 46.61C43.08 46.61 43.08 48.79 43.8 50.72L41.44 51.02C41.44 51.02 41.26 49.33 40.6 47.03C40.42 46.35 40.19 45.62 39.91 44.86C38.88 42.06 39.54 37.09 45.71 41.57C45.83 41.66 45.95 41.76 46.08 41.85C46.08 41.85 46.25 42.24 46.55 42.86C46.73 43.23 46.95 43.68 47.21 44.17C47.84 45.37 48.68 46.84 49.56 48.03L47.9 49.12H47.89Z" fill="#E94868"/>
<path d="M36.22 47.7798C36.38 49.1398 36.62 50.5598 36.97 51.4998L35.29 52.0698C35.29 52.0698 34.15 50.4198 33.93 48.5898C33.91 48.5198 33.9 48.4398 33.9 48.3698C33.9 48.3698 33.9 48.4498 33.9 48.5998C33.91 49.2798 33.98 51.3498 34.15 52.5498L31.87 52.7798C31.87 52.7798 31.29 50.7098 31.13 49.1098C31.12 49.0098 31.1 48.9198 31.1 48.8298C31.1 48.8298 31.09 48.9398 31.07 49.1198C31.01 49.8998 30.78 52.0298 30.48 52.6498L27.96 52.6798C27.96 52.6798 28.51 50.6498 28.58 48.2898C28.6 47.4498 28.56 46.5598 28.41 45.7098C27.85 42.4898 31.72 41.0398 31.72 41.0398C31.72 41.0398 35.1 40.7198 35.88 43.9898C35.88 43.9898 35.97 45.8198 36.22 47.7898V47.7798Z" fill="#E94868"/>
<path d="M14.73 48.9199C14.73 48.9199 13.09 51.9899 11.75 53.3699L10.9 52.5799C11.21 51.6899 12.14 50.2199 12.53 49.6299C12.61 49.5099 12.67 49.4099 12.69 49.3699C12.61 49.4499 12.52 49.5299 12.45 49.6099C10.91 51.1099 9.69998 51.8799 9.69998 51.8799L8.73998 51.0399C9.44998 49.9799 10.34 48.9999 10.55 48.7799C8.58998 50.0199 7.67998 50.5699 7.67998 50.5699L7.09998 50.2199C7.80998 49.0299 9.14998 47.4799 9.14998 47.4799L12.12 46.9399L14.74 48.9099L14.73 48.9199Z" fill="#FF7F00"/>
<path d="M20.68 42.98C20.28 43.87 19.62 44.8 18.72 45.58C17.46 46.67 16.3 48.07 15.35 49.36C15.27 49.46 15.19 49.56 15.13 49.66C13.86 51.42 13.04 52.88 13.04 52.88L11.7 51.63C12.01 50.74 12.94 49.27 13.33 48.68C13.44 48.51 13.51 48.41 13.51 48.41C13.42 48.49 13.34 48.59 13.26 48.67C11.72 50.17 10.51 50.94 10.51 50.94L9.55 50.1C10.31 48.96 11.27 47.93 11.39 47.81C9.41001 49.08 8.48 49.63 8.48 49.63L7.13 48.82C7.49 48.58 7.93001 48.19 8.39001 47.71C10.23 45.87 12.48 42.8 12.48 42.8C12.48 42.8 14.58 41.74 18.36 40.07C21.04 38.89 21.66 40.82 20.69 42.99L20.68 42.98Z" fill="#E94868"/>
<path d="M22.35 46.6899C22.35 46.6899 22.2 47.9999 21.99 49.5699C21.99 49.5699 21.99 49.5799 21.99 49.5899C21.96 49.6999 21.93 49.8099 21.9 49.9299C21.61 51.1599 21.59 51.4199 21.62 52.4299C21.62 52.4399 21.32 53.8299 21.32 53.8299L19.42 53.7299C19.42 53.7299 19.25 51.8599 19.34 50.6299C19.35 50.3999 19.37 50.1899 19.41 50.0099C19.41 50.0099 19.32 50.1799 19.18 50.4499C18.85 51.0699 18.26 52.2799 17.98 53.4399L16.36 53.2199C16.36 53.2199 16.6 50.8799 17.09 49.8199C16.94 50.0199 15.74 51.6699 15.42 52.9299L15.31 52.8999C15.31 52.0999 15.52 51.3699 15.52 51.3699L16.98 46.8799L22.37 46.6799L22.35 46.6899Z" fill="#FF7F00"/>
<path d="M23.52 46.15C23.52 46.15 23.07 47.46 22.69 49C22.37 50.35 22.09 51.87 22.18 52.9L20.21 52.79C20.21 52.79 20.04 50.92 20.13 49.69C20.14 49.46 20.16 49.25 20.2 49.07C20.2 49.07 20.11 49.24 19.97 49.51C19.64 50.13 19.05 51.34 18.77 52.5L17.15 52.28C17.15 52.28 17.39 49.94 17.88 48.88C17.73 49.08 16.53 50.73 16.21 51.99L14.28 51.42C14.28 51.42 14.65 50.7 15.12 49.66C15.16 49.55 15.21 49.45 15.25 49.35C15.94 47.81 16.78 45.7 17.04 44.13C17.28 42.66 19.04 42.4 20.67 42.97C22.11 43.47 23.45 44.62 23.51 46.14L23.52 46.15Z" fill="#E94868"/>
<path d="M35.88 43.9798C35.88 43.9798 35.97 45.8098 36.22 47.7798L35.73 47.8698C35.73 47.8698 34.83 46.3298 34.37 44.1298C34.37 44.1298 34.73 47.1798 34.93 48.4698L33.94 48.5798H33.91L32.89 48.7098C32.89 48.7098 31.89 46.1898 31.4 44.5298C31.4 44.5298 31.23 47.7498 31.67 49.0198L31.14 49.0998H31.08L29.16 49.3898C29.16 49.3898 28.9 49.0398 28.59 48.2698C28.61 47.4298 28.57 46.5398 28.42 45.6898C27.86 42.4698 31.73 41.0198 31.73 41.0198C31.73 41.0198 35.11 40.6998 35.89 43.9698L35.88 43.9798Z" fill="#D43151"/>
<path d="M45.58 45.1198C45.58 45.1198 44.08 43.9798 43.34 42.6598C43.65 43.2898 44.36 44.6798 44.95 45.6698L42.5 46.4798C42.5 46.4798 41.09 44.9798 40.29 43.0098C40.29 43.0098 40.68 45.2598 41.44 46.8698L40.61 47.0398C40.43 46.3598 40.2 45.6298 39.92 44.8698C38.89 42.0698 39.55 37.0998 45.72 41.5798C45.98 42.0098 46.27 42.4498 46.56 42.8698C46.74 43.2398 46.96 43.6898 47.22 44.1798L45.6 45.1298L45.58 45.1198Z" fill="#D43151"/>
<path d="M23.52 46.15C23.52 46.15 23.07 47.46 22.69 49C22.51 49.24 22.33 49.45 22.15 49.62L20.12 49.69H19.93C19.93 49.69 19.94 49.63 19.97 49.51C20.09 48.94 20.41 47.17 20.39 45.57C20.39 45.57 18.61 48.15 17.33 49.37L15.36 49.35H15.27H14.81C14.81 49.35 16.19 47.45 16.58 45.28C16.58 45.28 14.73 48.08 13.82 48.74L13.32 48.68H13.24L11.31 48.42C11.31 48.42 12.8 46.41 13.34 44.61C13.34 44.61 11.08 46.97 9.81999 47.87L8.37 47.72C10.21 45.88 12.46 42.81 12.46 42.81C12.46 42.81 14.56 41.75 18.34 40.08C21.02 38.9 21.64 40.83 20.67 43C22.11 43.5 23.45 44.65 23.51 46.17L23.52 46.15Z" fill="#D43151"/>
<path d="M45.04 37.9698C45.04 37.9698 46.83 41.3198 48.16 42.8198L46.3 43.9098C46.3 43.9098 44.53 42.5698 43.9 41.1098C43.9 41.1098 44.87 43.1398 45.68 44.4598L43.23 45.2598C43.23 45.2598 41.82 43.7598 41.02 41.7898C41.02 41.7898 41.41 44.0498 42.17 45.6498L39.79 46.1198C39.79 46.1198 38.9 44.6498 38.15 42.5398C38.15 42.5398 38.17 44.7698 38.69 46.2398L36.45 46.6698C36.45 46.6698 35.55 45.1298 35.09 42.9298C35.09 42.9298 35.45 45.9798 35.64 47.2698L33.6 47.5098C33.6 47.5098 32.6 44.9898 32.11 43.3298C32.11 43.3298 31.94 46.5398 32.38 47.8198L29.88 48.1898C29.88 48.1898 29.05 47.0598 28.59 44.4898C28.59 44.4898 28.24 47.3298 27.77 48.3698L25.11 48.4098C25.11 48.4098 25.37 46.7398 25.42 44.1898C25.42 44.1898 24.07 47.3198 22.89 48.4098L20.66 48.4998C20.66 48.4998 21.14 46.2998 21.12 44.3798C21.12 44.3798 19.34 46.9498 18.06 48.1798L15.54 48.1498C15.54 48.1498 16.92 46.2598 17.31 44.0898C17.31 44.0898 15.46 46.8898 14.55 47.5398L12.05 47.2198C12.05 47.2198 13.54 45.2098 14.08 43.4098C14.08 43.4098 11.82 45.7598 10.56 46.6598L8.20999 46.4098C8.20999 46.4098 10.47 44.1198 10.73 43.0598C10.73 43.0598 8.28999 45.2198 7.19999 45.9998L5.17999 45.3898C5.17999 45.3898 8.11999 42.4298 9.24999 40.8998C10.38 39.3698 28.31 25.9498 45.05 37.9798L45.04 37.9698Z" fill="#1CE61C"/>
<path d="M43.85 37.04C43.85 37.04 44.45 38.73 46.08 40.8L45.02 41.42C45.02 41.42 43.59 40.22 42.9 38.96C42.9 38.96 43.84 41.09 44.25 41.9L42.18 42.54C42.18 42.54 41.03 40.82 40.46 39.12C40.46 39.12 40.84 42.03 41.18 42.79L38.85 43.08C38.85 43.08 38.3 41.6 37.8 40C37.8 40 37.58 41.85 37.93 43.06H35.84C35.84 43.06 35.29 41.45 35.25 40.2C35.25 40.2 34.68 42.57 34.78 43.28L32.86 43.54C32.86 43.54 32.46 42.24 32.43 40.45C32.43 40.45 31.78 42.68 31.92 43.43L29.97 43.78C29.97 43.78 29.46 42.22 29.48 40.65C29.48 40.65 28.7 42.89 28.76 43.99L27.07 44.12C27.07 44.12 26.44 42.17 26.49 40.8C26.49 40.8 25.29 43.61 24.64 44.4L22.09 44.47C22.09 44.47 22.86 42.97 23.25 40.76C23.25 40.76 21.49 43.57 20.5 44.4L18.2 44.17C18.2 44.17 19.49 42.74 19.77 40.85C19.77 40.85 17.87 43.16 16.61 43.84L14.18 43.45C14.18 43.45 16.1 41.48 16.78 40.18C16.78 40.18 14.01 42.53 12.67 43.2L10.6 42.68C10.6 42.68 12.54 40.94 13.61 38.97C13.61 38.97 10.91 41.58 9.82001 42.41L8.26001 42.14C8.26001 42.14 9.87001 40.19 11.14 38.56C11.14 38.56 13.54 35.19 14.76 34.87C19.89 33.54 32.57 33.47 43.86 37.08L43.85 37.04Z" fill="#0CCC0C"/>
<path d="M44.58 35.8298C44.58 35.8298 45.18 37.5198 46.81 39.5898L45.75 40.2098C45.75 40.2098 44.32 39.0098 43.63 37.7498C43.63 37.7498 44.57 39.8798 44.98 40.6898L42.91 41.3298C42.91 41.3298 41.76 39.6098 41.19 37.9098C41.19 37.9098 41.57 40.8198 41.91 41.5798L39.58 41.8698C39.58 41.8698 39.03 40.3898 38.53 38.7898C38.53 38.7898 38.31 40.6398 38.66 41.8498H36.57C36.57 41.8498 36.02 40.2398 35.98 38.9898C35.98 38.9898 35.41 41.3598 35.51 42.0698L33.59 42.3298C33.59 42.3298 33.19 41.0298 33.16 39.2398C33.16 39.2398 32.51 41.4698 32.65 42.2198L30.7 42.5698C30.7 42.5698 30.19 41.0098 30.21 39.4398C30.21 39.4398 29.43 41.6798 29.49 42.7798L27.8 42.9098C27.8 42.9098 27.17 40.9598 27.22 39.5898C27.22 39.5898 26.02 42.3998 25.37 43.1898L22.82 43.2598C22.82 43.2598 23.59 41.7598 23.98 39.5498C23.98 39.5498 22.22 42.3598 21.23 43.1898L18.93 42.9598C18.93 42.9598 20.22 41.5298 20.5 39.6398C20.5 39.6398 18.6 41.9498 17.34 42.6298L14.91 42.2398C14.91 42.2398 16.83 40.2698 17.51 38.9698C17.51 38.9698 14.74 41.3198 13.4 41.9898L11.33 41.4698C11.33 41.4698 13.27 39.7298 14.34 37.7598C14.34 37.7598 11.64 40.3698 10.55 41.1998L8.29999 41.0098C8.29999 41.0098 10.52 38.8798 11.79 37.2598C11.79 37.2598 14.29 33.9798 15.5 33.6698C20.63 32.3398 33.31 32.2698 44.6 35.8798L44.58 35.8298Z" fill="#047BFF"/>
<path d="M43.36 33.52C42.98 31.13 35.13 31.52 35.13 31.52L34.48 33.4299C34.59 32.9299 34.65 32.5899 34.65 32.5899C34.65 32.5899 22.74 30.65 17.31 32.61C14.3 33.7 12.29 36.56 12.29 36.56L13.45 36.8699L16.29 35.2C16.29 35.2 14.45 37.15 13.99 37.47L15.11 37.8699C15.11 37.8699 18.15 35.8899 18.97 35.2599C18.97 35.2599 17.05 37.21 16.09 37.86L17.09 38.06C17.09 38.06 19.34 37.3099 20.42 36.2499C20.42 36.2499 19.41 37.6799 18.57 38.2299L19.77 38.4799C19.77 38.4799 21.91 37.6099 23.59 35.7599C23.59 35.7599 21.74 38.0499 20.76 38.4999L21.66 38.5999C21.66 38.5999 23.4 38.1199 24.61 37.1399C24.61 37.1399 23.54 38.25 23.11 38.58L24.36 38.8499C24.36 38.8499 25.69 38.41 26.95 37.22C26.95 37.22 26.01 38.6599 25.56 38.9299L27.04 39.0499C27.04 39.0499 28.15 38.48 29.09 37.54C29.09 37.54 28.62 38.7 28.53 38.9L29.23 38.9399C29.23 38.9399 30.73 37.6799 31.37 36.7299C31.37 36.7299 30.76 38.6599 30.39 39.0699L31.64 39.29C31.64 39.29 32.77 38.5599 33.4 37.2799C33.4 37.2699 33.41 37.25 33.42 37.24C33.25 38.05 33.05 38.95 32.92 39.24L34.6 39.31C34.6 39.31 35.37 37.62 35.59 36.61C35.59 36.61 35.8 38.4399 35.83 39.1699L37.42 39.0899C37.42 39.0899 36.97 37.0699 37.25 35.7299C37.25 35.7299 37.98 38.16 38.52 39.11L39.75 39.0899C39.75 39.0899 39.52 37.9099 39.48 36.2599C39.48 36.2599 40.4 38.1199 40.92 38.9199L42.06 38.7299C42.06 38.7299 41.68 37.3599 41.69 36.2599C41.69 36.2599 42.5 37.6999 43.33 38.4099L44.74 38.06C44.74 38.06 43.76 35.93 43.37 33.54L43.36 33.52Z" fill="#0369D9"/>
<path d="M44.09 32.31C43.71 29.92 35.86 30.31 35.86 30.31L35.21 32.22C35.32 31.72 35.38 31.38 35.38 31.38C35.38 31.38 23.47 29.43 18.04 31.4C14.08 32.84 12.7 35.26 12.7 35.26L14.18 35.65L17.02 33.98C17.02 33.98 15.18 35.93 14.72 36.25L15.84 36.65C15.84 36.65 18.88 34.67 19.7 34.04C19.7 34.04 17.78 35.99 16.82 36.64L17.82 36.84C17.82 36.84 20.07 36.09 21.15 35.03C21.15 35.03 20.14 36.46 19.3 37.01L20.5 37.26C20.5 37.26 22.64 36.39 24.32 34.54C24.32 34.54 22.47 36.83 21.49 37.28L22.39 37.38C22.39 37.38 24.13 36.9 25.34 35.92C25.34 35.92 24.27 37.03 23.84 37.36L25.09 37.63C25.09 37.63 26.42 37.19 27.68 36C27.68 36 26.74 37.44 26.29 37.71L27.77 37.83C27.77 37.83 28.88 37.26 29.82 36.32C29.82 36.32 29.35 37.48 29.26 37.68L29.96 37.72C29.96 37.72 31.46 36.46 32.1 35.51C32.1 35.51 31.49 37.44 31.12 37.85L32.37 38.07C32.37 38.07 33.5 37.34 34.13 36.06C34.13 36.05 34.14 36.03 34.15 36.02C33.98 36.83 33.78 37.73 33.65 38.02L35.33 38.09C35.33 38.09 36.1 36.4 36.32 35.39C36.32 35.39 36.53 37.22 36.56 37.95L38.15 37.87C38.15 37.87 37.7 35.85 37.98 34.51C37.98 34.51 38.71 36.94 39.25 37.89L40.48 37.87C40.48 37.87 40.25 36.69 40.21 35.04C40.21 35.04 41.13 36.9 41.65 37.7L42.79 37.51C42.79 37.51 42.41 36.14 42.42 35.04C42.42 35.04 43.23 36.48 44.06 37.19L45.47 36.84C45.47 36.84 44.49 34.71 44.1 32.32L44.09 32.31Z" fill="#FFC200"/>
<path d="M33.58 31.1199C33.58 31.1199 32 30.6599 27.69 30.2899C22.99 29.8799 20.03 30.8199 18.47 30.6599L21.03 31.8199C21.03 31.8199 22.91 31.7799 24.43 31.2899C24.43 31.2899 23.37 31.7799 22.06 32.0099L23.81 32.6199C23.81 32.6199 26.35 32.1799 27.13 31.7799C27.13 31.7799 25.65 32.6199 25 32.7799L26.67 33.1599C26.67 33.1599 28.14 32.8099 29.35 32.2399C29.35 32.2399 28.53 33.0199 27.79 33.2499L29.84 33.7199C29.84 33.7199 30.38 33.5399 31.71 32.7799C31.71 32.7799 31.22 33.5099 30.84 33.7199L32.97 34.0799C32.97 34.0799 34.5 33.0199 34.92 32.4299C34.92 32.4299 34.24 33.9699 34.06 34.1899L35.99 34.4099C35.99 34.4099 37.03 32.9999 37.47 32.2299C37.91 31.4599 38.65 29.5699 38.65 29.5699L37.64 29.1099L33.58 31.1299V31.1199Z" fill="white"/>
<path d="M50.8 29.2999C50.8 29.2999 51.38 32.2899 49.95 34.0899L48.2 34.3799C48.2 34.3799 48.95 31.9899 49.01 30.7499C49.01 30.7499 48.04 33.6099 47.27 34.2799L44.95 34.3399C44.95 34.3399 45.87 32.8199 46.23 31.0999C46.23 31.0999 44.9 33.9499 44 34.3799L42.07 34.4C42.07 34.4 42.89 32.7899 43.16 31.5799C43.16 31.5799 41.72 33.53 41.08 34.08L38.94 33.9499C38.94 33.9499 39.98 32.1099 40.56 30.8699C40.56 30.8699 39.24 33.1499 38.11 33.9199L35.87 33.8699C35.87 33.8699 37.1 32.1199 37.57 30.5199C37.57 30.5199 35.97 32.9399 35.22 33.6199L31.98 33.0599C31.98 33.0599 34.4 31.4599 35.06 28.2399C35.72 25.0199 40.85 25.2999 45.42 25.9799C49.99 26.6599 50.81 27.6699 50.81 29.2999H50.8Z" fill="#FF7F00"/>
<path d="M51.57 28.49C51.57 28.49 51.59 28.96 51.53 29.64C51.44 30.65 51.15 32.14 50.3 33.21L48.55 33.49C48.55 33.49 49.23 31.3 49.35 30.03C49.35 29.97 49.35 29.92 49.35 29.86C49.35 29.86 49.33 29.92 49.3 30.02C49.09 30.62 48.28 32.82 47.62 33.4L45.29 33.45C45.29 33.45 46.19 31.95 46.55 30.25C46.4 30.57 45.17 33.09 44.33 33.5H42.41C42.41 33.5 43.23 31.91 43.5 30.7C43.5 30.7 42.05 32.66 41.42 33.21L39.28 33.08C39.28 33.08 40.31 31.27 40.89 30.02C40.74 30.27 39.51 32.32 38.46 33.05L36.22 33C36.22 33 37.44 31.25 37.9 29.66C37.72 29.93 36.26 32.1 35.56 32.74L31.79 31.99C31.79 31.99 33.79 30.92 34.78 28.61C34.96 28.21 35.1 27.78 35.2 27.3C35.51 25.77 36.87 25.04 38.73 24.78C40.76 24.48 43.36 24.74 45.76 25.1C47.68 25.39 49.01 25.73 49.91 26.16C51.17 26.77 51.58 27.53 51.57 28.48V28.49Z" fill="#047BFF"/>
<path d="M50.99 25.9399C50.99 25.9399 51.83 31.6999 51.42 33.1599L53.37 32.7099C53.37 32.7099 53.75 30.9499 53.7 29.1599C53.7 29.1599 54.28 30.8399 54.41 32.4199L56.05 32.0099C56.05 32.0099 56.14 30.1399 55.82 28.3299C55.82 28.3299 56.64 30.8199 56.7 31.8499L57.74 31.6299C57.74 31.6299 57.51 29.0599 56.75 27.6499C55.99 26.2399 51 25.9399 51 25.9399H50.99Z" fill="#047BFF"/>
<path d="M57.27 29.0398L56.14 29.3498L55.88 28.6198L55.97 29.4198L55.05 29.6498C55.05 29.6498 53.98 29.2598 53.32 27.9198C53.32 27.9198 53.58 29.1298 54.2 29.8398L51.98 30.0298C51.98 30.0298 51.79 29.9098 51.53 29.6498C51.29 29.3798 50.99 28.9498 50.84 28.3398C50.84 28.3398 50.89 28.9098 50.45 30.0998L49.34 30.0598H49.3L48.68 30.0298C48.68 30.0298 48.93 28.6998 48.6 27.7598C48.47 28.9198 47.54 29.8598 47.54 29.8598L45.77 29.8898C45.77 29.8898 46.62 28.8698 46.27 27.6698C45.86 28.6498 44.71 29.8498 44.71 29.8498L43.02 29.7998L42.18 27.2698L41.09 29.4898L38.87 29.2398C38.87 29.2398 39.54 27.9398 39.25 26.8098C38.98 28.1998 37.62 29.0898 37.62 29.0898L35.6 28.7298C35.6 28.7298 36.53 26.7098 36.56 25.9798C36.31 26.8398 34.94 28.6798 34.94 28.6798L34.77 28.6498C34.95 28.2498 35.09 27.8198 35.19 27.3398C35.5 25.8098 36.86 25.0798 38.72 24.8198C38.59 24.9998 38.47 25.1498 38.36 25.2698C42.05 25.8798 46.47 26.7298 49.91 26.1998C51.08 26.0298 55.72 27.5598 56.6 26.9898C56.93 27.5298 57.1 28.3998 57.27 29.0698V29.0398Z" fill="#0369D9"/>
<path d="M54.13 24.1498C54.13 24.1498 50.15 21.3498 45.76 21.9198C41.37 22.4898 39.48 24.2998 39.48 24.2998L50.29 26.8098L54.13 24.1498Z" fill="#FFC200"/>
<path d="M50.44 23C49.39 23.75 41.58 23.74 40.79 23.53C40.79 23.53 42.46 22.14 46.21 21.8C49.96 21.46 50.44 23 50.44 23Z" fill="#FF7F00"/>
<path d="M45.96 21.8499C45.96 21.8499 51.1 13.3899 52.15 13.3699C53.2 13.3499 51.03 22.2499 50.91 22.6099C50.79 22.9699 49.62 23.4399 47.83 23.1599C46.04 22.8799 45.77 22.2999 45.96 21.8499Z" fill="white"/>
<path d="M41.44 18.8599C42.69 19.4999 42.18 22.7499 42.18 22.7499C42.18 22.7499 41.04 23.3299 39.48 24.2899C38.3 23.4699 40.4 18.3399 41.43 18.8599H41.44Z" fill="#FFE594"/>
<path d="M19.91 20.1699C20.72 20.5699 22.5 20.5399 22.81 20.7699C22.81 20.7699 24.15 21.9999 24.38 22.7199C24.38 22.7199 24.23 21.8699 22.51 21.4299C20.22 20.8499 19.91 20.1799 19.91 20.1799V20.1699Z" fill="#FFC200"/>
<path d="M22.81 20.76C22.81 20.76 24.14 21.89 23.74 22.86C23.34 23.83 23.19 24.14 23.28 24.37C23.37 24.6 24.16 25.56 24.16 25.56C24.16 25.56 23.71 25.07 24.16 24.28C24.36 23.92 24.56 23.48 24.53 22.96C24.51 22.63 23.95 21.79 22.82 20.76H22.81Z" fill="#FFE594"/>
<path d="M24.16 25.5599C24.16 25.5599 24.7 26.1699 24.91 26.2499C25.12 26.3299 26.69 26.2899 26.69 26.2899C26.69 26.2899 26.09 25.3899 25.73 25.3699C25.37 25.3499 24.45 25.7499 24.17 25.5599H24.16Z" fill="#FFC200"/>
<path d="M53.89 41C53.89 41 54.62 40.85 54.73 40.93C54.84 41.01 55 41.48 55.2 41.48C55.2 41.48 54.94 41.59 54.77 41.51C54.6 41.43 54.22 41.07 53.88 41H53.89Z" fill="#FF7F00"/>
<path d="M55.2 41.4699C55.2 41.4699 55.68 41.3199 55.82 41.2599C55.96 41.1999 55.82 40.2699 55.96 40.1399C56.1 40.0099 56.22 39.9299 56.22 39.9299C56.22 39.9299 55.75 39.9299 55.59 40.1899C55.43 40.4499 55.53 41.0299 55.4 41.2299C55.32 41.3499 55.2 41.4599 55.2 41.4599V41.4699Z" fill="#FFC200"/>
<path d="M56.36 39.9299C56.36 39.9299 56.79 39.8899 56.96 39.9299C57.13 39.9699 57.34 40.2699 57.46 40.6499C57.58 41.0299 57.64 41.4499 58 41.5099C58 41.5099 57.46 41.6699 57.29 41.5299C57.12 41.3899 56.92 40.6199 56.79 40.3799C56.56 39.9799 56.36 39.9199 56.36 39.9199V39.9299Z" fill="#FFE594"/>
<path d="M58 41.5199C58 41.5199 58.4 41.4999 58.6 41.4699C58.8 41.4399 59.23 39.8699 59.57 39.7799C59.91 39.6899 60.16 39.7399 60.16 39.7399C60.16 39.7399 59.65 39.2499 59.1 39.5999C58.55 39.9499 58.41 41.1799 58 41.5199Z" fill="#FFC200"/>
<path d="M55.85 54.3199C55.85 54.3199 55.3 53.4399 55.35 53.2499C55.4 53.0599 55.94 52.6299 55.84 52.3699C55.84 52.3699 56.11 52.6599 56.09 52.9199C56.07 53.1799 55.78 53.8499 55.85 54.3299V54.3199Z" fill="white"/>
<path d="M55.84 52.3698C55.84 52.3698 55.22 51.4598 55.08 51.2998C54.94 51.1398 53.79 51.7798 53.55 51.6498C53.31 51.5198 53.15 51.4098 53.15 51.4098C53.15 51.4098 53.57 52.3798 53.99 52.4698C54.41 52.5598 55.12 52.1398 55.44 52.2098C55.64 52.2598 55.83 52.3598 55.83 52.3598L55.84 52.3698Z" fill="#E94868"/>
<path d="M53.07 51.2398C53.07 51.2398 52.81 50.6898 52.79 50.4498C52.77 50.2098 53.05 49.7898 53.49 49.4498C53.93 49.1098 54.45 48.8198 54.36 48.3298C54.36 48.3298 54.82 48.9598 54.73 49.2498C54.64 49.5398 53.72 50.1698 53.47 50.4598C53.06 50.9498 53.07 51.2498 53.07 51.2498V51.2398Z" fill="white"/>
<path d="M54.35 48.3299C54.35 48.3299 54.02 47.4199 53.89 47.1799C53.76 46.9399 51.6 47.5099 51.32 47.1099C51.04 46.7099 50.99 46.3499 50.99 46.3499C50.99 46.3499 50.59 47.7599 51.31 48.3199C52.03 48.8799 53.72 47.9499 54.36 48.3199L54.35 48.3299Z" fill="#E94868"/>
<path d="M59.03 27.8799C56.54 27.1299 56.27 25.3199 54.13 24.1399C50.69 26.3799 44.43 25.1099 39.48 24.2999C40.48 23.2299 42.26 19.3299 41.43 18.8699C39.95 18.0299 35.97 25.1899 33.62 27.3199L36.06 27.7199C36.06 27.7199 37.42 25.8699 37.68 25.0099C37.64 25.7499 36.72 27.7699 36.72 27.7699L38.74 28.1399C38.74 28.1399 40.09 27.2499 40.37 25.8599C40.65 26.9899 39.98 28.2899 39.98 28.2899L42.2 28.5399L43.28 26.3199L44.12 28.8599L45.81 28.9199C45.81 28.9199 46.97 27.7099 47.37 26.7299C47.72 27.9299 46.87 28.9499 46.87 28.9499L48.63 28.9199C48.63 28.9199 49.56 27.9899 49.7 26.8199C50.02 27.7599 49.78 29.0899 49.78 29.0899L51.56 29.1599C52 27.9799 51.96 27.3999 51.96 27.3999C52.26 28.5899 53.09 29.0999 53.09 29.0999L55.31 28.9099C54.68 28.1899 54.43 26.9799 54.43 26.9799C55.09 28.3299 56.47 28.7299 56.47 28.7299L59.03 27.8899V27.8799Z" fill="#FFC200"/>
<path d="M43.51 29.93C44.8023 29.93 45.85 28.8823 45.85 27.59C45.85 26.2977 44.8023 25.25 43.51 25.25C42.2176 25.25 41.17 26.2977 41.17 27.59C41.17 28.8823 42.2176 29.93 43.51 29.93Z" fill="white"/>
<path d="M44.07 28.23C44.6113 28.23 45.05 27.7913 45.05 27.25C45.05 26.7088 44.6113 26.27 44.07 26.27C43.5288 26.27 43.09 26.7088 43.09 27.25C43.09 27.7913 43.5288 28.23 44.07 28.23Z" fill="#1A2C38"/>
<path d="M53.4125 26.7467C53.6025 26.6339 53.5805 26.246 53.3633 25.8804C53.1462 25.5147 52.8162 25.3097 52.6263 25.4225C52.4363 25.5353 52.4584 25.9231 52.6755 26.2888C52.8926 26.6545 53.2226 26.8595 53.4125 26.7467Z" fill="#FF7F00"/>
<path d="M55.0913 26.1317C55.267 26.0274 55.2471 25.6695 55.0469 25.3323C54.8467 24.9951 54.542 24.8064 54.3663 24.9107C54.1906 25.015 54.2104 25.3729 54.4106 25.7101C54.6108 26.0473 54.9156 26.236 55.0913 26.1317Z" fill="#FF7F00"/>
<path d="M50.48 15.0298C50.26 15.6498 51.93 17.2898 51.79 18.7598C51.66 19.5298 51.51 20.0698 51.36 20.7498C51.51 20.0698 48.63 18.2298 49.09 16.9798C49.64 16.0998 50.48 15.0398 50.48 15.0398V15.0298Z" fill="#FFC200"/>
<path d="M48.07 18.5C47.7 19.26 51.14 21.67 50.91 22.61C50.83 22.89 50.27 23.17 49.3 23.23C49.45 22.83 46.49 21.34 46.73 20.59C47.43 19.44 48.07 18.5 48.07 18.5Z" fill="#FFC200"/>
<path d="M12.03 33.01C11.36 32.58 10.66 32.09 10.02 31.54C10.3 32.34 10.73 33.33 11.33 34.26C11.82 34.48 12.34 34.66 12.86 34.79C12.51 34.16 12.23 33.54 12.03 33.01Z" fill="white"/>
</g>
<path fill-rule="evenodd" clip-rule="evenodd" d="M6.49771 79C6.98969 79 7.48602 79.213 7.49037 79.6913C7.49037 80.1043 7.24656 80.2696 6.99839 80.2696C6.75023 80.2696 6.73281 80.1435 6.73281 80.1435C6.73281 80.1435 7.02452 79.9261 7.02452 79.7174C7.02452 79.6087 6.94179 79.313 6.489 79.3174C5.8577 79.3174 5.5181 79.6174 5.5181 80.1522C5.5181 80.7652 7.35105 80.9739 7.3554 81.7652C7.3554 82.613 6.47594 82.9957 5.69225 83C5.283 83 5.01306 82.7609 5.00871 82.3783C5.00871 81.9261 5.22204 81.4652 5.75756 81.4652C5.88382 81.4565 5.98831 81.5522 5.99702 81.6783C5.99702 81.6783 5.99702 81.6826 5.99702 81.687C5.99702 81.687 5.45715 81.8391 5.4615 82.3783C5.4615 82.4783 5.56599 82.6609 5.81851 82.6565C6.07103 82.6522 6.82424 82.4739 6.81989 81.8087C6.81989 81.1913 5.00435 81.1087 5 80.1478C5 79.0652 6.08845 79.0087 6.49771 79.0087V79ZM10.747 79.6C10.8123 79.5696 11.2129 79.4913 11.1955 79.813C11.1824 80.1348 10.9386 80.6913 10.9037 80.9348C11.2303 80.7696 11.6918 80.2087 11.6918 80.2087C11.6918 80.2087 12.0183 80.2522 11.9182 80.4522C11.818 80.6522 11.1519 81.1435 11.1519 81.1435C11.1519 81.1435 11.3043 82.5696 12.1707 82.5696C12.6453 82.5696 12.8499 82.3609 12.937 82.287C12.9587 82.2696 12.9762 82.2652 12.9849 82.2783C13.0197 82.387 12.9936 82.5043 12.9152 82.5913C12.8194 82.6957 12.5974 82.8217 12.1533 82.8261C11.3653 82.8261 10.9255 82.1957 10.8123 81.2609C10.7252 81.5348 10.7339 81.9826 10.7209 82.2C10.6948 82.2435 10.2507 82.4174 10.2158 82.1174C10.2158 82.0913 10.2158 82.0696 10.2158 82.0435C10.1331 82.1609 10.0199 82.2826 9.91108 82.2826C9.71951 82.2826 9.63679 82.1217 9.60196 82.0391C9.57584 82.0696 9.3625 82.287 9.08821 82.287C8.92277 82.2913 8.77474 82.1957 8.70943 82.0435C8.57011 82.1435 8.32195 82.2913 8.03895 82.2913C7.73418 82.2913 7.66017 82.1087 7.66017 81.9565C7.66017 81.713 7.84303 80.987 7.84303 80.987C7.84303 80.987 7.48602 81.1304 7.36411 81.1348C7.19431 81.1348 7.11159 80.8217 7.11159 80.813C7.11159 80.8087 7.11159 80.8 7.1203 80.8C7.22044 80.7609 7.94317 80.513 7.94317 80.513C7.94317 80.513 8.07813 79.9826 8.09555 79.913C8.11296 79.8435 8.2131 79.7 8.33065 79.6565C8.41773 79.6217 8.50916 79.6 8.60059 79.5913C8.63107 79.5913 8.65284 79.6 8.65284 79.6174C8.65284 79.6348 8.47433 80.4087 8.47433 80.4087C8.47433 80.4087 8.84876 80.3217 8.98808 80.3217C9.09692 80.3217 9.15352 80.387 9.09257 80.4696C9.03162 80.5522 8.96196 80.6478 8.92712 80.6913C8.88794 80.7348 8.86182 80.7435 8.77039 80.7609C8.64413 80.787 8.36113 80.8565 8.36113 80.8565C8.36113 80.8565 8.13473 81.6783 8.13909 81.8174C8.13909 81.8957 8.16521 81.987 8.26099 81.987C8.35678 81.987 8.53964 81.8739 8.67025 81.7913C8.69202 81.1522 9.18835 80.7261 9.57584 80.7261C9.7021 80.7261 9.65421 80.8478 9.79788 80.8478H9.88931C9.94591 80.8478 10.0069 80.8522 10.0069 80.9957C10.0069 81.1957 9.89367 81.5261 9.89367 81.7348C9.89367 81.8826 9.91544 81.987 9.97204 81.987C10.0678 81.987 10.1767 81.8478 10.255 81.7261C10.3813 81.0304 10.734 79.7609 10.734 79.6174L10.747 79.6ZM12.5016 80.7C12.7672 80.6783 12.9326 80.8217 12.9631 80.9C12.9936 80.9783 12.9892 81.1609 12.9152 81.2913C12.6845 81.7044 12.1097 81.6304 12.1097 81.6304C12.1097 81.6304 12.0444 81.9565 12.3405 81.9565C12.593 81.9565 12.7062 81.8304 12.8151 81.7261C12.8586 81.7261 12.9936 81.8652 12.9326 81.9609C12.8847 82.0348 12.6191 82.2565 12.2795 82.2609C11.7397 82.2609 11.6047 81.8 11.6744 81.4696C11.7658 81.0609 12.1751 80.7217 12.5016 80.6957V80.7ZM9.6455 80.987C9.32332 80.987 8.82699 81.9696 9.20577 81.9652C9.61938 81.9652 9.6455 81.1826 9.6455 81.0043V80.987ZM12.6409 80.8913C12.4232 80.9 12.1751 81.3174 12.1533 81.5C12.4798 81.513 12.654 81.1957 12.6757 81.0696C12.6888 80.9739 12.6932 80.887 12.6409 80.887V80.8913Z" fill="#557086"/>
<path d="M56.1444 79.3778L56.6412 80.278L57.6518 80.4733C57.7792 80.4988 57.8302 80.6559 57.741 80.7494L57.0361 81.5009L57.1635 82.5243C57.1805 82.6559 57.0446 82.7494 56.93 82.6942L56 82.2568L55.0701 82.6942C54.9512 82.7494 54.8196 82.6517 54.8366 82.5243L54.9639 81.5009L54.2591 80.7494C54.1699 80.6559 54.2208 80.4988 54.3482 80.4733L55.3588 80.278L55.8557 79.3778C55.9194 79.2632 56.085 79.2632 56.1444 79.3778Z" fill="#FFC200"/>
<path d="M56 79.2929C56.0552 79.2929 56.1147 79.3226 56.1444 79.3778L56.6412 80.278L57.6518 80.4733C57.7792 80.4988 57.8302 80.6559 57.741 80.7494L57.0361 81.5009L57.1635 82.5243C57.1763 82.6262 57.0955 82.7111 56.9979 82.7111C56.9766 82.7111 56.9512 82.7069 56.9257 82.6942L55.9957 82.2568L55.0658 82.6942C55.0403 82.7069 55.0191 82.7111 54.9936 82.7111C54.9002 82.7111 54.8153 82.6262 54.828 82.5243L54.9554 81.5009L54.2505 80.7494C54.1613 80.6559 54.2123 80.4988 54.3397 80.4733L55.3503 80.278L55.8471 79.3778C55.8768 79.3226 55.9363 79.2929 55.9915 79.2929M56 79.0806C55.8641 79.0806 55.7367 79.157 55.6688 79.2759L55.2187 80.0912L54.3057 80.2653C54.1698 80.2908 54.0594 80.3884 54.017 80.5201C53.9745 80.6517 54.0085 80.7961 54.1019 80.8937L54.7388 81.5731L54.6242 82.4946C54.6115 82.6007 54.6454 82.7111 54.7134 82.7918C54.7856 82.8725 54.8875 82.9192 54.9979 82.9192C55.0531 82.9192 55.1083 82.9065 55.1592 82.881L56 82.4861L56.8408 82.881C56.8917 82.9065 56.9469 82.9192 57.0021 82.9192C57.1125 82.9192 57.2144 82.8725 57.2866 82.7918C57.3588 82.7111 57.3928 82.6007 57.3758 82.4946L57.2611 81.5731L57.8981 80.8937C57.9915 80.7918 58.0255 80.6474 57.983 80.5201C57.9405 80.3884 57.8301 80.2908 57.6943 80.2653L56.7813 80.0912L56.3312 79.2759C56.2633 79.157 56.1359 79.0806 56 79.0806Z" fill="#213743"/>
<path d="M56 79.8152V80.9744C56 81.0678 56.0892 81.1315 56.1784 81.106L57.2187 80.7706C57.2739 80.7536 57.2697 80.6729 57.2102 80.6602L56.5563 80.5413C56.4969 80.5286 56.4417 80.4903 56.4119 80.4351L56.085 79.7939C56.0637 79.7515 55.9958 79.7642 55.9958 79.8152H56Z" fill="#FFEBB8"/>
<path d="M56 81.4924V82.0699C56 82.1039 56.017 82.1294 56.0467 82.1464L56.7983 82.5073C56.8365 82.5243 56.8705 82.4818 56.845 82.4479L56.0934 81.4627C56.0637 81.4245 56 81.4457 56 81.4924Z" fill="#FF7F00"/>
<rect x="13" y="62" width="37" height="13" rx="6.5" fill="#2F4553"/>
<path d="M31.2002 70H30.1622V69.268H28.2482V68.464L29.7662 65.998H31.2002V68.362H31.6862V69.268H31.2002V70ZM30.1622 68.362V66.898L29.2502 68.362H30.1622ZM34.9215 70H33.9075L33.3495 69.124L32.7855 70H31.7775L32.7675 68.512L31.8375 67.102H32.8515L33.3495 67.888L33.8415 67.102H34.8555L33.9315 68.512L34.9215 70Z" fill="white"/>
<path d="M8.03 11H7.215L6.56 9.815H6.04V11H5.33V7.665H6.89C7.585 7.665 8.01 8.12 8.01 8.74C8.01 9.33 7.64 9.645 7.28 9.73L8.03 11ZM6.785 9.19C7.07 9.19 7.285 9.02 7.285 8.74C7.285 8.46 7.07 8.29 6.785 8.29H6.04V9.19H6.785ZM10.5152 11H9.88023V10.75C9.71523 10.945 9.43023 11.06 9.11523 11.06C8.73023 11.06 8.27523 10.8 8.27523 10.26C8.27523 9.695 8.73023 9.48 9.11523 9.48C9.43523 9.48 9.72023 9.585 9.88023 9.775V9.45C9.88023 9.205 9.67023 9.045 9.35023 9.045C9.09023 9.045 8.85023 9.14 8.64523 9.33L8.40523 8.905C8.70023 8.645 9.08023 8.525 9.46023 8.525C10.0102 8.525 10.5152 8.745 10.5152 9.44V11ZM9.37023 10.63C9.57523 10.63 9.77523 10.56 9.88023 10.42V10.12C9.77523 9.98 9.57523 9.91 9.37023 9.91C9.12023 9.91 8.91523 10.04 8.91523 10.275C8.91523 10.5 9.12023 10.63 9.37023 10.63ZM11.7801 11H11.1451V8.585H11.7801V8.915C11.9501 8.7 12.2501 8.525 12.5501 8.525V9.145C12.5051 9.135 12.4451 9.13 12.3751 9.13C12.1651 9.13 11.8851 9.25 11.7801 9.405V11ZM14.0818 11.06C13.3468 11.06 12.7918 10.565 12.7918 9.79C12.7918 9.09 13.3068 8.525 14.0418 8.525C14.7618 8.525 15.2518 9.065 15.2518 9.855V9.995H13.4568C13.4968 10.3 13.7418 10.555 14.1518 10.555C14.3568 10.555 14.6418 10.465 14.7968 10.315L15.0768 10.725C14.8368 10.945 14.4568 11.06 14.0818 11.06ZM14.6368 9.565C14.6218 9.335 14.4618 9.03 14.0418 9.03C13.6468 9.03 13.4768 9.325 13.4468 9.565H14.6368Z" fill="white"/>
<path d="M48.9866 11H48.5346L47.1426 9.096V11H46.6746V8.332H47.1546L48.5186 10.184V8.332H48.9866V11ZM50.4135 11.048C49.8015 11.048 49.4215 10.588 49.4215 10.032C49.4215 9.48 49.8015 9.02 50.4135 9.02C51.0335 9.02 51.4095 9.48 51.4095 10.032C51.4095 10.588 51.0335 11.048 50.4135 11.048ZM50.4135 10.676C50.7735 10.676 50.9735 10.376 50.9735 10.032C50.9735 9.692 50.7735 9.392 50.4135 9.392C50.0575 9.392 49.8575 9.692 49.8575 10.032C49.8575 10.376 50.0575 10.676 50.4135 10.676ZM52.031 11.044C51.879 11.044 51.751 10.916 51.751 10.764C51.751 10.612 51.879 10.484 52.031 10.484C52.183 10.484 52.311 10.612 52.311 10.764C52.311 10.916 52.183 11.044 52.031 11.044ZM55.4028 11H54.9348V10.396H53.6628V10.02L54.7588 8.332H55.4028V9.984H55.7588V10.396H55.4028V11ZM54.9348 9.984V8.752L54.1228 9.984H54.9348ZM56.8671 11H56.3551L57.3631 8.744H55.9791V8.332H57.9031V8.656L56.8671 11Z" fill="white"/>
<defs>
<clipPath id="clip0_26835_29210">
<rect width="63" height="88" fill="white"/>
</clipPath>
</defs>
</svg>
