<svg width="63" height="88" viewBox="0 0 63 88" fill="none" xmlns="http://www.w3.org/2000/svg">
<rect width="63" height="88" rx="4" fill="#FF003F"/>
<path d="M36.7008 13.5133L44.7992 3.48665C45.5586 2.54645 46.7024 2 47.911 2H58C59.6569 2 61 3.34314 61 5V83C61 84.6569 59.6569 86 58 86H5C3.34315 86 2 84.6569 2 83V18C2 16.3431 3.34315 15 5 15H33.589C34.7976 15 35.9414 14.4536 36.7008 13.5133Z" fill="#213743"/>
<rect x="5" y="18" width="53" height="40" rx="1" fill="#2F4553"/>
<g clip-path="url(#clip0_26835_29211)">
<path d="M57 18H6C5.44772 18 5 18.4477 5 19V57C5 57.5523 5.44772 58 6 58H57C57.5523 58 58 57.5523 58 57V19C58 18.4477 57.5523 18 57 18Z" fill="#FFC201"/>
<path d="M6.00001 57.9999H57C57.55 57.9999 58 57.5499 58 56.9999V41.6299C56.92 42.2299 54.72 43.3099 52.96 43.1199C50.54 42.8499 51.16 41.2799 52.13 40.2799C53.1 39.2799 52.72 38.4399 52.72 38.4399C50.58 40.4199 46.88 41.6199 46.88 41.6199C48.84 43.7699 55.75 47.0599 55.75 47.0599C55.75 47.0599 40.48 45.5699 40.26 44.7099C40.04 43.8499 45.3 43.9199 44.99 43.0599C44.69 42.1999 36.64 41.7399 37.02 40.3999C37.4 39.0699 42.13 39.6999 42.18 38.6799C42.23 37.6599 40.26 37.7999 40.26 34.6799C33.42 42.8799 10.3 46.5099 5.01001 47.2499V57.0099C5.01001 57.5599 5.46001 58.0099 6.01001 58.0099L6.00001 57.9999Z" fill="#FFDF7A"/>
<path d="M11.21 42.99C13.5572 42.99 15.46 41.0872 15.46 38.74C15.46 36.3928 13.5572 34.49 11.21 34.49C8.86281 34.49 6.96002 36.3928 6.96002 38.74C6.96002 41.0872 8.86281 42.99 11.21 42.99Z" fill="#FFDF7A"/>
<path d="M6.58002 42.9899C9.91002 42.2599 13.67 40.2399 17.58 37.3699C22.93 33.4399 11.76 45.3499 11.76 45.3499L6.58002 42.9899Z" fill="#FFC201"/>
<path d="M47.39 22.6499C47.39 22.6499 46.91 23.4899 46.77 23.9199C46.63 24.3499 46.95 25.3699 47.08 25.4599C47.21 25.5499 47.5 24.9599 47.39 22.6499Z" fill="#1A2C38"/>
<path d="M47.08 24.3401C47.29 24.3801 47.18 23.7901 47.08 23.7701C46.98 23.7501 46.87 24.3001 47.08 24.3401Z" fill="#008C00"/>
<path d="M54.46 28.72H52.12V58H54.46V28.72Z" fill="#1A2C38"/>
<path d="M53.03 27.4202H52.66V58.0002H53.03V27.4202Z" fill="white"/>
<path d="M47.76 23.9101C48.48 23.7301 50.54 23.0201 52.67 24.1401C54.8 25.2601 55.19 29.1401 54.3 29.8801C53.41 30.6201 51.7601 30.4901 51.3601 29.3301C50.9601 28.1701 50.76 27.6601 50.76 27.6601C50.76 27.6601 52.02 27.2701 50.71 26.1501C49.4 25.0301 46.25 24.3301 45.8 23.6101C45.8 23.6101 46.68 24.1801 47.75 23.9101H47.76Z" fill="#1A2C38"/>
<path d="M48.85 15.74C49.74 15.94 48.55 21.46 49.32 23.08C50.09 24.7 49.53 26.8 48.85 28.72C48.17 30.64 48 33.9 47.27 34.38C47.27 34.38 46.93 35.11 46.42 35.12C45.91 35.13 45.08 30.56 44.98 28.12C44.98 28.12 44.09 26.41 44.98 23.94C45.87 21.47 47.15 15.36 48.85 15.75V15.74Z" fill="#008C00"/>
<path d="M49.85 24.8101C49.8 24.3901 49.5 23.4501 49.32 23.0801C48.55 21.4601 49.74 15.9401 48.85 15.7401C48.69 15.7001 48.53 15.7301 48.38 15.8001C48.95 16.0901 48.27 18.3601 47.44 20.2401C46.61 22.1201 46.2 23.6101 46.96 24.1001C47.18 24.2401 48.44 24.8301 49.85 24.8201V24.8101Z" fill="#1A2C38"/>
<path d="M48.24 24.26C49.94 24.02 52.14 26.43 52.76 28.04C53.38 29.65 52.09 29.76 51.64 29.3C51.19 28.84 50.87 27.89 50.63 27.3C50.39 26.71 47.72 27.01 47.72 27.01C47.72 27.01 47.31 35.08 46.05 34.52C45.6 33.41 45.02 30.77 44.99 28.12C44.6 27.43 44.33 26.53 44.44 25.61C44.74 23.14 46.09 21.14 46.26 21.21C46.79 21.42 46.08 22.73 46.62 23.58C47.16 24.43 48.26 24.27 48.26 24.27L48.24 24.26Z" fill="white"/>
<path d="M50.62 27.2902C50.62 27.2902 50.38 27.2102 50.14 27.1602C48.95 26.9302 48.6 29.5202 48.05 32.1802C47.5 34.8402 46.79 35.2802 46.41 35.1002C46.03 34.9202 46.03 34.5002 46.03 34.5002C46.3 34.5302 46.37 33.0002 46.26 31.5802C46.15 30.1602 47.13 28.9202 47.13 28.7002C47.13 28.4802 46.4 28.7002 46.2 28.5202C46 28.3402 46.98 27.4002 46.96 26.3902C46.94 25.3802 48.66 24.6902 48.68 24.8102C48.7 24.9302 47.92 25.7602 49.21 25.9802C50.29 26.1602 50.51 26.8402 50.63 27.2802L50.62 27.2902Z" fill="#1A2C38"/>
<path d="M48.05 32.19C48.47 30.14 48.78 28.14 49.43 27.43C47.42 26.91 46.9 34.84 46.41 35.12C46.79 35.3 47.5 34.86 48.05 32.2V32.19Z" fill="#008C00"/>
<path d="M13.83 46.4901C13.83 46.4901 12.94 39.84 14.04 36.62C15.14 33.4 16.41 32.05 16.41 32.05L18.53 32.2201L17.34 46.4901H13.82H13.83Z" fill="#1A2C38"/>
<path d="M42.87 58H45.48C45.53 57.81 45.54 57.64 45.53 57.5C45.26 54.3 44.5 51.75 42.77 49.88C42.43 49.51 42.05 49.16 41.63 48.85C41.38 48.66 41.11 48.48 40.83 48.31C40.79 48.28 40.75 48.25 40.71 48.23C39.79 47.69 38.86 47.19 37.86 46.75C37.13 46.43 36.37 46.14 35.55 45.88H35.54C35 45.71 34.44 45.55 33.84 45.4H33.83C33.73 45.38 33.64 45.36 33.53 45.34C33.46 45.32 33.38 45.3 33.31 45.29H33.3C33.3 45.29 33.23 45.27 33.2 45.26C32.63 45.15 32.03 45.04 31.39 44.95C30.44 44.82 29.43 44.72 28.3 44.66H28.03C27.08 44.62 26.16 44.6 25.27 44.6C24.44 44.59 23.64 44.61 22.86 44.65C22.85 44.64 22.84 44.64 22.83 44.65C22.58 44.66 22.34 44.67 22.1 44.69H22.09C21.89 44.69 21.7 44.7 21.51 44.72C20.19 44.81 18.96 44.94 17.82 45.13C17.7 45.15 17.59 45.17 17.47 45.19C17.24 45.23 17.01 45.27 16.78 45.32C16.47 45.38 16.17 45.44 15.88 45.51H15.87C15.37 45.63 14.9 45.75 14.44 45.9C14.23 45.96 14.02 46.03 13.81 46.1C11.89 46.76 10.43 47.63 9.53999 48.68C7.16999 51.48 7.77999 56.59 8.08999 58H42.88H42.87Z" fill="#008C00"/>
<path d="M14.36 45.82C17.92 49.64 23.05 56.88 32.79 56.56C42.53 56.25 42.45 51.05 42.84 49.56C42.84 49.56 39.94 45.27 28.9 44.22C17.86 43.17 14.36 45.82 14.36 45.82Z" fill="#F87915"/>
<path d="M15.52 45.2299C17.35 46.4899 23.64 54.9999 32.44 54.9399C39.41 54.8899 41.48 49.5799 41.74 48.4599C40.1 47.1099 36.36 44.9199 28.9 44.2099C21.33 43.4899 17.31 44.5099 15.52 45.2199V45.2299Z" fill="#1A2C38"/>
<path d="M26.2 49.0301C26.2 49.0301 28.32 51.0201 32.3 49.3701C32.3 49.3701 33.49 45.8501 33.78 38.9101C33.78 38.9101 30.69 36.2801 23.61 38.9101C16.53 41.5401 26.19 49.0301 26.19 49.0301H26.2Z" fill="#1A2C38"/>
<path d="M25.1 38.7799C25.1 38.7799 27.51 38.3999 29.38 38.5699C29.38 38.5699 29.21 43.4499 27.9 43.5699C26.59 43.6899 25.1 38.7799 25.1 38.7799Z" fill="#008C00"/>
<path d="M32.3 49.37C32.3 49.37 33.49 45.85 33.78 38.91C33.78 38.91 31.04 38.25 30.65 38.91C30.26 39.57 30.31 40.96 31.16 43.58C31.8 45.55 30.95 48.55 30.49 49.92C31.04 49.82 31.65 49.65 32.3 49.38V49.37Z" fill="#008C00"/>
<path d="M26.72 47.8899C26.72 47.8899 28.8 49.4799 31.6 49.3399C34.4 49.1999 34.17 48.1799 34.17 48.1799L38.27 50.4799C38.27 50.4799 34.41 56.7899 25.94 51.7599L26.72 47.8899Z" fill="#F87915"/>
<path d="M33.6 52.7301L32.7 49.8201C32.18 49.9401 31.66 49.9701 31.15 49.9501L31.42 52.8801C32.21 52.9301 32.95 52.8601 33.6 52.7301Z" fill="#1A2C38"/>
<path d="M29.91 52.6301L30.04 49.8201C29.47 49.7201 28.95 49.5601 28.51 49.4001L28.17 51.9501C28.76 52.2601 29.34 52.4801 29.9 52.6301H29.91Z" fill="#1A2C38"/>
<path d="M36.57 51.53L34.79 48.78C34.52 49.02 34.23 49.21 33.93 49.37L35.21 52.24C36.06 51.89 36.57 51.53 36.57 51.53Z" fill="#1A2C38"/>
<path d="M18.25 58.0001H14.55C14.72 55.6401 15.26 51.8901 15.44 51.7701C15.68 51.6301 15.78 52.9801 17.41 56.1601C17.75 56.8301 18.03 57.4401 18.25 58.0001Z" fill="#1A2C38"/>
<path d="M41.95 58.0001C42.1 57.3401 42.23 56.5401 42.26 55.5801C42.26 55.5801 42.56 56.5301 42.87 58.0001H41.95Z" fill="#1A2C38"/>
<path d="M9.80001 57.5001C9.81001 57.6801 9.81001 57.8501 9.81001 58.0001H8.69001C8.65001 57.8401 8.62001 57.6801 8.60001 57.5001C8.31001 55.3401 8.89001 49.3201 10.33 49.8001C11.09 50.0501 9.66001 54.6001 9.80001 57.5001Z" fill="white"/>
<path d="M27.76 27.7301C27.76 27.7301 30.1 17.2701 30.41 16.6801C30.72 16.0901 31.17 16.3301 31.55 17.4101C31.93 18.4901 33.52 25.1101 33.78 28.8701C34.04 32.6301 27.76 27.7201 27.76 27.7201V27.7301Z" fill="#1A2C38"/>
<path d="M33.78 28.88C33.51 25.12 31.93 18.49 31.55 17.42C31.26 16.59 30.92 16.26 30.64 16.42C31.31 16.8 32.43 27.29 32.47 28C32.49 28.27 33.06 28.62 33.78 28.95C33.78 28.93 33.78 28.9 33.78 28.88Z" fill="white"/>
<path d="M30.64 16.4099C30.56 16.4599 30.48 16.5499 30.41 16.6799C30.1 17.2699 27.76 27.7299 27.76 27.7299C27.76 27.7299 28.01 27.9299 28.41 28.2099L29.6 27.8999C29.6 27.8999 30.26 18.7199 30.64 16.4099Z" fill="#008C00"/>
<path d="M26.4 27.75C24.51 28.06 22.94 28.44 21.88 27.17C20.82 25.9 17.69 20.73 16.46 17.22C15.23 13.71 14.97 13.62 14.51 13.96C14.05 14.3 12.14 18.28 12.48 23.41C12.82 28.54 14.47 32.95 17.86 32.97C21.25 32.99 26.4 27.76 26.4 27.76V27.75Z" fill="#008C00"/>
<path d="M14.5 22.18L14.84 14.05C14.76 13.98 14.58 14.02 14.34 14.15C13.71 15.06 12.17 18.76 12.48 23.4C12.82 28.53 14.47 32.94 17.86 32.96C19.36 32.96 18.43 33.57 20.02 32.44L14.5 22.18Z" fill="white"/>
<path d="M14.84 14.0499C14.5 13.9599 12.31 19.6899 13.49 25.7899C14.67 31.8899 17.52 32.4599 18.95 32.5999C20.38 32.7399 22.13 32.4999 22.13 32.4999L21.57 30.3099C21.57 30.3099 16.43 29.2899 15.52 23.3999C14.61 17.5099 14.84 14.0499 14.84 14.0499Z" fill="#1A2C38"/>
<path d="M14.84 14.05C15.28 14.17 14.8 18.13 16.29 23.76C18.03 30.34 22.9 29.04 22.9 29.04C22.9 29.04 23.43 30.39 21.58 30.3C19.73 30.21 17.36 30 15.81 26.32C14.27 22.66 14.51 13.96 14.85 14.05H14.84Z" fill="white"/>
<path d="M21.84 31.7001C21.84 31.7001 18.62 31.6 16.79 29.38C14.4 26.48 13.82 19.9 14.84 14.05C14.84 14.05 14.39 21.61 16.4 26.19C17.31 28.26 18.55 30.23 21.89 30L21.84 31.71V31.7001Z" fill="#FFC201"/>
<path d="M22.9 29.0401C24.89 27.9101 28.07 27.2601 30.48 27.2601C32.89 27.2601 33.28 28.5701 33.28 28.5701C33.28 28.5701 35.86 28.4001 36.41 27.2601C36.96 26.1201 38.33 25.5201 39.51 25.9001C40.69 26.2801 41.37 29.3701 40.65 30.6001C40.65 30.6001 40.82 31.7901 38.74 33.8601C36.66 35.9301 35.35 36.2701 35.27 36.7001C35.19 37.1301 35.95 37.9701 33.79 38.9001C31.63 39.8301 21.03 40.1301 21.03 40.1301L18.96 32.5901C18.96 32.5901 20.57 32.9101 21.2 31.6501C21.83 30.3901 22.07 29.5001 22.89 29.0301L22.9 29.0401Z" fill="#008C00"/>
<path d="M38.27 55.5801C39.5 55.5801 41.35 55.7601 41.4 54.9001C41.45 54.0401 38.21 52.3201 37.12 53.1601C36.03 54.0001 35.22 54.2401 35.64 54.7801C36.06 55.3201 37.58 55.5901 38.27 55.5901V55.5801Z" fill="#1A2C38"/>
<path d="M35.65 35.6901C35.65 35.6901 38.87 40.1801 40.14 45.1401C41.41 50.1001 41.58 54.5001 41.41 54.9001C41.24 55.3001 41.24 53.9801 39.25 53.9201C37.26 53.8601 36.03 54.4501 35.65 54.7701C35.27 55.0901 34.17 47.9301 33.07 44.5401C31.97 41.1501 34.43 34.8001 35.65 35.6901Z" fill="#008C00"/>
<path d="M37.52 38.75C37.3 38.34 37.09 37.97 36.89 37.63C36.31 37.5 35.22 37.37 34.33 37.86C34.06 38.01 33.78 38.21 33.52 38.42C33.42 38.72 33.33 39.02 33.24 39.34C34.64 38.55 36.56 38.24 37.53 38.75H37.52Z" fill="#FFC201"/>
<path d="M34.68 36.64C35.26 36.52 35.91 36.62 36.33 36.71C35.92 36.06 35.65 35.68 35.65 35.68C35.51 35.58 35.35 35.57 35.18 35.65C34.71 36.07 34.01 36.77 34.68 36.64Z" fill="#FFC201"/>
<path d="M22.39 55.26C22.71 56.22 29.38 54.95 28.87 53.92C28.36 52.89 21.67 53.1 22.39 55.26Z" fill="#1A2C38"/>
<path d="M22.9 29.0399C22.9 29.0399 24.88 28.9499 25.62 29.5199C26.36 30.0899 24.24 31.0399 24.26 31.4299C24.28 31.8199 27.81 32.5599 31.1 31.4299C34.39 30.2999 36.4 28.0399 36.58 27.8599C36.76 27.6799 37.16 29.2899 36.62 30.0599C36.08 30.8299 27.53 37.3399 26.05 37.7499C24.57 38.1599 22.59 38.5399 21.58 36.7699C20.57 34.9999 20.67 30.8299 20.67 30.8299C20.67 30.8299 21.52 29.0899 22.9 29.0399Z" fill="white"/>
<path d="M18.96 32.59L21.03 40.13C21.03 40.13 31.63 39.83 33.79 38.9C35.95 37.97 35.19 37.12 35.27 36.7C35.35 36.28 36.67 35.94 38.74 33.86C39.15 33.45 39.48 33.07 39.73 32.73C40.13 32.01 40.42 31.36 40.14 31.01C39.86 30.66 38.66 30.88 38.06 30.94C37.47 31 30.51 35.97 30.25 35.6C29.99 35.23 33.96 32.71 35.86 31.45C37.75 30.19 38.66 30 39.51 30.01C40.36 30.02 40.65 30.6 40.65 30.6L40.77 30.34C40.77 30.34 40.6 29.63 40.18 29.33C39.76 29.03 39.59 28.53 39.93 28.36C40.27 28.19 40.66 27.47 40.35 27.51C40.04 27.56 40.05 28.02 39.21 27.9C38.36 27.78 37.18 26.79 37.13 26.96C37.08 27.13 37.73 27.89 38.48 28.06C39.23 28.23 39.38 28.78 39.05 29.03C38.72 29.28 37.4 29.24 36.63 30.05C35.86 30.86 28.21 36.23 26.01 37.17C23.81 38.1 22.88 36.92 22.54 35.6C22.2 34.29 21.44 34.24 21.31 33.99C21.18 33.74 22.24 33.27 22.16 32.49C22.08 31.71 22.53 30.36 22.36 30.31C22.16 30.25 21.76 30.85 21.23 31.66C20.59 32.92 18.99 32.6 18.99 32.6L18.96 32.59Z" fill="#1A2C38"/>
<path d="M14.5 38.3099C14.47 42.5699 18.03 47.2899 19.57 50.0199C21.11 52.7499 22.08 55.0799 22.38 55.2499C22.68 55.4199 22.13 54.2799 24.92 53.6799C27.71 53.0799 28.73 53.7099 28.86 53.9099C28.99 54.1099 28.69 52.5299 27.08 48.7699C25.47 45.0099 21.49 36.1499 20.22 33.5599C18.95 30.9699 14.53 33.2199 14.5 38.2999V38.3099Z" fill="#008C00"/>
<path d="M26.03 29.0101C26.06 28.7801 27.92 28.0001 29.11 28.2201C30.3 28.4401 30.77 29.1901 30.95 29.3701C31.13 29.5501 29.73 29.9401 28.28 29.8101C26.83 29.6801 26.03 29.0101 26.03 29.0101Z" fill="#008C00"/>
<path d="M27.4 30.4299C28.66 30.2999 30.01 29.8599 30.64 29.2999C30.64 29.2999 29.38 28.0099 28.22 27.9999C28.22 27.9999 29.74 27.8099 31.57 29.3199C31.57 29.3199 30.35 30.5199 27.4 30.4299Z" fill="white"/>
<path d="M26.65 29.0099C26.31 28.8899 28.71 28.4199 30.1 29.3099C30.1 29.3099 28.3 29.5899 26.65 29.0099Z" fill="#1A2C38"/>
<path d="M26.03 29.01C26.41 29.05 27.17 29.64 28.28 29.81C29.39 29.98 30.41 29.48 30.41 29.48C30.41 29.48 29.65 30.37 28.08 30.08C26.51 29.79 26.03 29.01 26.03 29.01Z" fill="#FFC201"/>
<path d="M23.63 28.67C24.26 28.73 25.57 28.92 26.16 28.67C26.93 28.35 27.78 27.87 28.64 28.05C29.86 28.3 30.64 29.31 30.64 29.31C30.64 29.31 29.09 28.17 28.07 28.31C27.05 28.45 26.71 28.91 26.03 29.01C25.35 29.11 23.63 28.67 23.63 28.67Z" fill="#FFC201"/>
<path d="M36.57 31C36.6 31.27 36.71 31.68 36.42 31.88C34.4 33.25 30.39 35.9 30.24 35.67C30.06 35.39 31.16 34.66 31.43 34.46C32.93 33.31 36.58 31 36.58 31H36.57Z" fill="white"/>
<path d="M38.45 26.2299C38.65 26.2599 38.19 27.1699 37.69 26.9399C37.19 26.7099 38.15 26.1799 38.45 26.2299Z" fill="#FFC201"/>
<path d="M28.5 52.8501C28.56 52.8901 28.62 52.9201 28.67 52.9601C28.61 52.7601 28.54 52.5401 28.45 52.2801C27.37 51.4601 22.84 51.3501 21.38 53.4701C21.5 53.7201 21.62 53.9501 21.72 54.1501C22.14 52.6201 26.76 51.7801 28.5 52.8601V52.8501Z" fill="#FFC201"/>
<path d="M28.02 51.07C27.92 50.8 27.81 50.52 27.69 50.21C26.32 49.56 22.06 49.59 20.4 51.52C20.53 51.77 20.66 52.02 20.78 52.26C21.58 51.22 25.47 49.86 28.02 51.07Z" fill="#FFC201"/>
<path d="M27.3 49.2799C27.23 49.1199 27.16 48.9499 27.09 48.7799C27.03 48.6399 26.96 48.4799 26.89 48.3199C25.82 47.8199 22.09 47.3899 19.4 49.7199C19.46 49.8199 19.52 49.9199 19.57 50.0199C19.65 50.1699 19.73 50.3099 19.81 50.4599C20.51 49.3899 24.56 48.0899 27.29 49.2799H27.3Z" fill="#FFC201"/>
<path d="M26.4 47.1801C26.28 46.9101 26.16 46.6301 26.03 46.3301C24.42 45.5701 20.27 45.3601 18.31 47.9201C18.47 48.1701 18.62 48.4101 18.76 48.6501C19.62 47.3201 23.58 46.0801 26.4 47.1801Z" fill="#FFC201"/>
<path d="M25.5 45.1299C25.37 44.8399 25.24 44.5399 25.1 44.2299C23.84 43.5499 19.73 42.9499 17.05 45.8199C17.24 46.1499 17.43 46.4699 17.62 46.7899C18.3 45.4799 21.58 43.7999 25.5 45.1299Z" fill="#FFC201"/>
<path d="M24.55 43C24.41 42.69 24.27 42.37 24.13 42.05C22.91 41.48 18.43 41 16.02 43.86C16.16 44.16 16.31 44.45 16.46 44.74C17.21 43.52 21.11 41.81 24.56 43H24.55Z" fill="#FFC201"/>
<path d="M23.63 40.94C23.46 40.55 23.28 40.17 23.11 39.79C21.68 39.14 17.13 39.26 15.09 41.62C15.2 41.95 15.32 42.29 15.46 42.62C16.1 41.48 20.2 39.72 23.63 40.94Z" fill="#FFC201"/>
<path d="M22.62 38.7199C22.47 38.3799 22.32 38.0599 22.17 37.7399C20.72 37.1499 16.71 37.1299 14.57 39.4599C14.61 39.7899 14.67 40.1199 14.75 40.4499C15.84 39.1299 19.2 37.7999 22.62 38.7299V38.7199Z" fill="#FFC201"/>
<path d="M21.63 36.5399C21.48 36.2099 21.33 35.8999 21.19 35.5999C19.59 34.9199 15.98 34.9799 14.64 36.8399C14.57 37.2299 14.52 37.6399 14.5 38.0799C15.56 36.7999 18.14 35.7099 21.62 36.5499L21.63 36.5399Z" fill="#FFC201"/>
<path d="M20.65 34.4399C20.49 34.0999 20.35 33.8099 20.23 33.5699C20.19 33.4899 20.15 33.4099 20.1 33.3399C19.22 32.9199 17.38 33.1299 16.1 33.7799C15.77 34.1499 15.47 34.5799 15.22 35.0899C16.39 34.1799 18.75 33.6399 20.65 34.4399Z" fill="#FFC201"/>
<path d="M41.41 53.8899C41.41 53.8899 41.45 53.9599 41.46 53.9899C41.46 53.6899 41.44 53.3099 41.41 52.8799C40.6 51.8899 36.97 51.5599 35.02 52.8799C35.1 53.2099 35.17 53.5199 35.23 53.7699C35.95 52.9599 40.55 52.1999 41.4 53.8799L41.41 53.8899Z" fill="#FFC201"/>
<path d="M41.33 51.8699C41.3 51.5199 41.25 51.1399 41.2 50.7399C40.08 49.6099 35.76 49.6999 34.56 50.7399C34.63 51.0799 34.7 51.3999 34.77 51.7199C35.91 50.8699 39.88 50.4999 41.33 51.8699Z" fill="#FFC201"/>
<path d="M41.04 49.5599C40.99 49.1999 40.92 48.8299 40.86 48.4499C39.64 47.5299 36.04 47.3799 34.09 48.4999C34.17 48.8499 34.25 49.2099 34.32 49.5599C35.47 48.7899 39.63 48.3199 41.05 49.5599H41.04Z" fill="#FFC201"/>
<path d="M40.67 47.47C40.59 47.09 40.51 46.7 40.42 46.31C39.12 45.51 35.04 45.56 33.61 46.48C33.69 46.8 33.77 47.13 33.85 47.47C34.87 46.73 38.94 46.27 40.67 47.47Z" fill="#FFC201"/>
<path d="M40.22 45.4599C40.19 45.3499 40.16 45.2399 40.14 45.1299C40.08 44.8899 40.01 44.6499 39.94 44.4199C38.75 43.4799 35.08 43.2099 33.06 44.5399C33.15 44.8199 33.24 45.1299 33.34 45.4599C34.14 44.7899 38.21 44.0399 40.22 45.4599Z" fill="#FFC201"/>
<path d="M39.61 43.3799C39.47 42.9799 39.32 42.5799 39.16 42.1899C38.07 41.3099 34.54 41.3899 32.85 42.4799C32.83 42.4899 32.81 42.5099 32.79 42.5199C32.79 42.8799 32.81 43.2299 32.85 43.5699C33.53 42.7999 38.13 41.8899 39.61 43.3799Z" fill="#FFC201"/>
<path d="M38.67 41.0499C38.51 40.6999 38.35 40.3599 38.19 40.0299C38.19 40.0299 38.18 40.0299 38.17 40.0199C36.79 39.2599 34.07 39.6499 33 40.3699C32.93 40.7299 32.88 41.0899 32.84 41.4499C34.24 40.5599 37.65 40.2399 38.67 41.0499Z" fill="#FFC201"/>
</g>
<path fill-rule="evenodd" clip-rule="evenodd" d="M6.49771 79C6.98969 79 7.48602 79.213 7.49037 79.6913C7.49037 80.1043 7.24656 80.2696 6.99839 80.2696C6.75023 80.2696 6.73281 80.1435 6.73281 80.1435C6.73281 80.1435 7.02452 79.9261 7.02452 79.7174C7.02452 79.6087 6.94179 79.313 6.489 79.3174C5.8577 79.3174 5.5181 79.6174 5.5181 80.1522C5.5181 80.7652 7.35105 80.9739 7.3554 81.7652C7.3554 82.613 6.47594 82.9957 5.69225 83C5.283 83 5.01306 82.7609 5.00871 82.3783C5.00871 81.9261 5.22204 81.4652 5.75756 81.4652C5.88382 81.4565 5.98831 81.5522 5.99702 81.6783C5.99702 81.6783 5.99702 81.6826 5.99702 81.687C5.99702 81.687 5.45715 81.8391 5.4615 82.3783C5.4615 82.4783 5.56599 82.6609 5.81851 82.6565C6.07103 82.6522 6.82424 82.4739 6.81989 81.8087C6.81989 81.1913 5.00435 81.1087 5 80.1478C5 79.0652 6.08845 79.0087 6.49771 79.0087V79ZM10.747 79.6C10.8123 79.5696 11.2129 79.4913 11.1955 79.813C11.1824 80.1348 10.9386 80.6913 10.9037 80.9348C11.2303 80.7696 11.6918 80.2087 11.6918 80.2087C11.6918 80.2087 12.0183 80.2522 11.9182 80.4522C11.818 80.6522 11.1519 81.1435 11.1519 81.1435C11.1519 81.1435 11.3043 82.5696 12.1707 82.5696C12.6453 82.5696 12.8499 82.3609 12.937 82.287C12.9587 82.2696 12.9762 82.2652 12.9849 82.2783C13.0197 82.387 12.9936 82.5043 12.9152 82.5913C12.8194 82.6957 12.5974 82.8217 12.1533 82.8261C11.3653 82.8261 10.9255 82.1957 10.8123 81.2609C10.7252 81.5348 10.7339 81.9826 10.7209 82.2C10.6948 82.2435 10.2507 82.4174 10.2158 82.1174C10.2158 82.0913 10.2158 82.0696 10.2158 82.0435C10.1331 82.1609 10.0199 82.2826 9.91108 82.2826C9.71951 82.2826 9.63679 82.1217 9.60196 82.0391C9.57584 82.0696 9.3625 82.287 9.08821 82.287C8.92277 82.2913 8.77474 82.1957 8.70943 82.0435C8.57011 82.1435 8.32195 82.2913 8.03895 82.2913C7.73418 82.2913 7.66017 82.1087 7.66017 81.9565C7.66017 81.713 7.84303 80.987 7.84303 80.987C7.84303 80.987 7.48602 81.1304 7.36411 81.1348C7.19431 81.1348 7.11159 80.8217 7.11159 80.813C7.11159 80.8087 7.11159 80.8 7.1203 80.8C7.22044 80.7609 7.94317 80.513 7.94317 80.513C7.94317 80.513 8.07813 79.9826 8.09555 79.913C8.11296 79.8435 8.2131 79.7 8.33065 79.6565C8.41773 79.6217 8.50916 79.6 8.60059 79.5913C8.63107 79.5913 8.65284 79.6 8.65284 79.6174C8.65284 79.6348 8.47433 80.4087 8.47433 80.4087C8.47433 80.4087 8.84876 80.3217 8.98808 80.3217C9.09692 80.3217 9.15352 80.387 9.09257 80.4696C9.03162 80.5522 8.96196 80.6478 8.92712 80.6913C8.88794 80.7348 8.86182 80.7435 8.77039 80.7609C8.64413 80.787 8.36113 80.8565 8.36113 80.8565C8.36113 80.8565 8.13473 81.6783 8.13909 81.8174C8.13909 81.8957 8.16521 81.987 8.26099 81.987C8.35678 81.987 8.53964 81.8739 8.67025 81.7913C8.69202 81.1522 9.18835 80.7261 9.57584 80.7261C9.7021 80.7261 9.65421 80.8478 9.79788 80.8478H9.88931C9.94591 80.8478 10.0069 80.8522 10.0069 80.9957C10.0069 81.1957 9.89367 81.5261 9.89367 81.7348C9.89367 81.8826 9.91544 81.987 9.97204 81.987C10.0678 81.987 10.1767 81.8478 10.255 81.7261C10.3813 81.0304 10.734 79.7609 10.734 79.6174L10.747 79.6ZM12.5016 80.7C12.7672 80.6783 12.9326 80.8217 12.9631 80.9C12.9936 80.9783 12.9892 81.1609 12.9152 81.2913C12.6845 81.7044 12.1097 81.6304 12.1097 81.6304C12.1097 81.6304 12.0444 81.9565 12.3405 81.9565C12.593 81.9565 12.7062 81.8304 12.8151 81.7261C12.8586 81.7261 12.9936 81.8652 12.9326 81.9609C12.8847 82.0348 12.6191 82.2565 12.2795 82.2609C11.7397 82.2609 11.6047 81.8 11.6744 81.4696C11.7658 81.0609 12.1751 80.7217 12.5016 80.6957V80.7ZM9.6455 80.987C9.32332 80.987 8.82699 81.9696 9.20577 81.9652C9.61938 81.9652 9.6455 81.1826 9.6455 81.0043V80.987ZM12.6409 80.8913C12.4232 80.9 12.1751 81.3174 12.1533 81.5C12.4798 81.513 12.654 81.1957 12.6757 81.0696C12.6888 80.9739 12.6932 80.887 12.6409 80.887V80.8913Z" fill="#557086"/>
<path d="M56.1444 79.3778L56.6412 80.278L57.6518 80.4733C57.7792 80.4988 57.8302 80.6559 57.741 80.7494L57.0361 81.5009L57.1635 82.5243C57.1805 82.6559 57.0446 82.7494 56.93 82.6942L56 82.2568L55.0701 82.6942C54.9512 82.7494 54.8196 82.6517 54.8366 82.5243L54.9639 81.5009L54.2591 80.7494C54.1699 80.6559 54.2208 80.4988 54.3482 80.4733L55.3588 80.278L55.8557 79.3778C55.9194 79.2632 56.085 79.2632 56.1444 79.3778Z" fill="#FFC200"/>
<path d="M56 79.2929C56.0552 79.2929 56.1147 79.3226 56.1444 79.3778L56.6412 80.278L57.6518 80.4733C57.7792 80.4988 57.8302 80.6559 57.741 80.7494L57.0361 81.5009L57.1635 82.5243C57.1763 82.6262 57.0955 82.7111 56.9979 82.7111C56.9766 82.7111 56.9512 82.7069 56.9257 82.6942L55.9957 82.2568L55.0658 82.6942C55.0403 82.7069 55.0191 82.7111 54.9936 82.7111C54.9002 82.7111 54.8153 82.6262 54.828 82.5243L54.9554 81.5009L54.2505 80.7494C54.1613 80.6559 54.2123 80.4988 54.3397 80.4733L55.3503 80.278L55.8471 79.3778C55.8768 79.3226 55.9363 79.2929 55.9915 79.2929M56 79.0806C55.8641 79.0806 55.7367 79.157 55.6688 79.2759L55.2187 80.0912L54.3057 80.2653C54.1698 80.2908 54.0594 80.3884 54.017 80.5201C53.9745 80.6517 54.0085 80.7961 54.1019 80.8937L54.7388 81.5731L54.6242 82.4946C54.6115 82.6007 54.6454 82.7111 54.7134 82.7918C54.7856 82.8725 54.8875 82.9192 54.9979 82.9192C55.0531 82.9192 55.1083 82.9065 55.1592 82.881L56 82.4861L56.8408 82.881C56.8917 82.9065 56.9469 82.9192 57.0021 82.9192C57.1125 82.9192 57.2144 82.8725 57.2866 82.7918C57.3588 82.7111 57.3928 82.6007 57.3758 82.4946L57.2611 81.5731L57.8981 80.8937C57.9915 80.7918 58.0255 80.6474 57.983 80.5201C57.9405 80.3884 57.8301 80.2908 57.6943 80.2653L56.7813 80.0912L56.3312 79.2759C56.2633 79.157 56.1359 79.0806 56 79.0806Z" fill="#213743"/>
<path d="M56 79.8152V80.9744C56 81.0678 56.0892 81.1315 56.1784 81.106L57.2187 80.7706C57.2739 80.7536 57.2697 80.6729 57.2102 80.6602L56.5563 80.5413C56.4969 80.5286 56.4417 80.4903 56.4119 80.4351L56.085 79.7939C56.0637 79.7515 55.9958 79.7642 55.9958 79.8152H56Z" fill="#FFEBB8"/>
<path d="M56 81.4924V82.0699C56 82.1039 56.017 82.1294 56.0467 82.1464L56.7983 82.5073C56.8365 82.5243 56.8705 82.4818 56.845 82.4479L56.0934 81.4627C56.0637 81.4245 56 81.4457 56 81.4924Z" fill="#FF7F00"/>
<rect x="13" y="62" width="37" height="13" rx="6.5" fill="#2F4553"/>
<path d="M31.2002 70H30.1622V69.268H28.2482V68.464L29.7662 65.998H31.2002V68.362H31.6862V69.268H31.2002V70ZM30.1622 68.362V66.898L29.2502 68.362H30.1622ZM34.9215 70H33.9075L33.3495 69.124L32.7855 70H31.7775L32.7675 68.512L31.8375 67.102H32.8515L33.3495 67.888L33.8415 67.102H34.8555L33.9315 68.512L34.9215 70Z" fill="white"/>
<path d="M8.03 11H7.215L6.56 9.815H6.04V11H5.33V7.665H6.89C7.585 7.665 8.01 8.12 8.01 8.74C8.01 9.33 7.64 9.645 7.28 9.73L8.03 11ZM6.785 9.19C7.07 9.19 7.285 9.02 7.285 8.74C7.285 8.46 7.07 8.29 6.785 8.29H6.04V9.19H6.785ZM10.5152 11H9.88023V10.75C9.71523 10.945 9.43023 11.06 9.11523 11.06C8.73023 11.06 8.27523 10.8 8.27523 10.26C8.27523 9.695 8.73023 9.48 9.11523 9.48C9.43523 9.48 9.72023 9.585 9.88023 9.775V9.45C9.88023 9.205 9.67023 9.045 9.35023 9.045C9.09023 9.045 8.85023 9.14 8.64523 9.33L8.40523 8.905C8.70023 8.645 9.08023 8.525 9.46023 8.525C10.0102 8.525 10.5152 8.745 10.5152 9.44V11ZM9.37023 10.63C9.57523 10.63 9.77523 10.56 9.88023 10.42V10.12C9.77523 9.98 9.57523 9.91 9.37023 9.91C9.12023 9.91 8.91523 10.04 8.91523 10.275C8.91523 10.5 9.12023 10.63 9.37023 10.63ZM11.7801 11H11.1451V8.585H11.7801V8.915C11.9501 8.7 12.2501 8.525 12.5501 8.525V9.145C12.5051 9.135 12.4451 9.13 12.3751 9.13C12.1651 9.13 11.8851 9.25 11.7801 9.405V11ZM14.0818 11.06C13.3468 11.06 12.7918 10.565 12.7918 9.79C12.7918 9.09 13.3068 8.525 14.0418 8.525C14.7618 8.525 15.2518 9.065 15.2518 9.855V9.995H13.4568C13.4968 10.3 13.7418 10.555 14.1518 10.555C14.3568 10.555 14.6418 10.465 14.7968 10.315L15.0768 10.725C14.8368 10.945 14.4568 11.06 14.0818 11.06ZM14.6368 9.565C14.6218 9.335 14.4618 9.03 14.0418 9.03C13.6468 9.03 13.4768 9.325 13.4468 9.565H14.6368Z" fill="white"/>
<path d="M48.7366 11H48.2846L46.8926 9.096V11H46.4246V8.332H46.9046L48.2686 10.184V8.332H48.7366V11ZM50.1635 11.048C49.5515 11.048 49.1715 10.588 49.1715 10.032C49.1715 9.48 49.5515 9.02 50.1635 9.02C50.7835 9.02 51.1595 9.48 51.1595 10.032C51.1595 10.588 50.7835 11.048 50.1635 11.048ZM50.1635 10.676C50.5235 10.676 50.7235 10.376 50.7235 10.032C50.7235 9.692 50.5235 9.392 50.1635 9.392C49.8075 9.392 49.6075 9.692 49.6075 10.032C49.6075 10.376 49.8075 10.676 50.1635 10.676ZM51.781 11.044C51.629 11.044 51.501 10.916 51.501 10.764C51.501 10.612 51.629 10.484 51.781 10.484C51.933 10.484 52.061 10.612 52.061 10.764C52.061 10.916 51.933 11.044 51.781 11.044ZM55.1528 11H54.6848V10.396H53.4128V10.02L54.5088 8.332H55.1528V9.984H55.5088V10.396H55.1528V11ZM54.6848 9.984V8.752L53.8728 9.984H54.6848ZM56.8131 11.048C56.2651 11.048 55.7891 10.796 55.7891 10.316C55.7891 9.976 56.0651 9.732 56.3891 9.624C56.0891 9.528 55.8331 9.332 55.8331 8.992C55.8331 8.5 56.3371 8.292 56.8131 8.292C57.2811 8.292 57.7931 8.5 57.7931 8.992C57.7931 9.332 57.5331 9.528 57.2331 9.624C57.5571 9.732 57.8331 9.976 57.8331 10.316C57.8331 10.792 57.3571 11.048 56.8131 11.048ZM56.8131 9.44C56.9771 9.412 57.3171 9.316 57.3171 9.064C57.3171 8.84 57.0971 8.708 56.8131 8.708C56.5211 8.708 56.3051 8.84 56.3051 9.064C56.3051 9.316 56.6491 9.412 56.8131 9.44ZM56.8131 10.632C57.1091 10.632 57.3611 10.488 57.3611 10.256C57.3611 9.98 56.9771 9.856 56.8131 9.836C56.6451 9.856 56.2611 9.98 56.2611 10.256C56.2611 10.488 56.5091 10.632 56.8131 10.632Z" fill="white"/>
<defs>
<clipPath id="clip0_26835_29211">
<rect width="63" height="88" fill="white"/>
</clipPath>
</defs>
</svg>
