<svg width="63" height="88" viewBox="0 0 63 88" fill="none" xmlns="http://www.w3.org/2000/svg">
<rect width="63" height="88" rx="4" fill="#FF003F"/>
<path d="M36.7008 13.5133L44.7992 3.48665C45.5586 2.54645 46.7024 2 47.911 2H58C59.6569 2 61 3.34314 61 5V83C61 84.6569 59.6569 86 58 86H5C3.34315 86 2 84.6569 2 83V18C2 16.3431 3.34315 15 5 15H33.589C34.7976 15 35.9414 14.4536 36.7008 13.5133Z" fill="#213743"/>
<rect x="5" y="18" width="53" height="40" rx="1" fill="#2F4553"/>
<g clip-path="url(#clip0_26835_29212)">
<path d="M58 19V57C58 57.55 57.56 58 57 58H6C5.45 58 5 57.55 5 57V19C5 18.45 5.45 18 6 18H57C57.56 18 58 18.45 58 19Z" fill="#007FFF"/>
<path d="M58 41.9501V57C58 57.55 57.56 58 57 58H50.92L31.5 39.73L12.08 58H6C5.45 58 5 57.55 5 57V41.94L31.47 32.0801V32.05L31.5 32.07L31.53 32.05V32.0801L58 41.9501Z" fill="#1CE61C"/>
<path d="M20.5 24C19.3 22.4 19 19.3333 19 18H28L29 31.5L22.5 58H14.5C18.1 52.4 19.1667 42.8333 19.5 38.5C14 32 18.5 26.3333 20.5 24Z" fill="#1A2C38"/>
<path d="M46.7101 57.57C46.5701 57.73 46.4101 57.88 46.2301 58H41.0001C40.5301 57.83 40.0401 57.63 39.5301 57.39C36.3301 55.88 34.6401 53.14 35.1201 52.11C35.6101 51.07 42.2901 60.54 46.2701 55.94C46.2701 55.94 47.4601 56.71 46.7101 57.57Z" fill="#1A2C38"/>
<path d="M19.43 53.0898C19.43 49.0898 43.5201 49.0898 43.5201 53.0898L43.6501 56.2498H19.3L19.43 53.0898Z" fill="#FF7F00"/>
<path d="M23.48 57.39C22.97 57.63 22.48 57.83 22.01 58H16.78C16.6 57.88 16.44 57.73 16.3 57.57C15.55 56.71 16.74 55.94 16.74 55.94C20.71 60.54 27.4 51.07 27.88 52.11C28.37 53.14 26.68 55.88 23.48 57.39Z" fill="#45A7FF"/>
<path d="M43.62 58.0001H19.33C19.25 56.9601 19.34 55.9201 19.65 54.8901C22.12 46.6001 21.99 36.0801 21.99 36.0801H40.96C40.96 36.0801 40.84 46.6001 43.31 54.8901C43.62 55.9201 43.71 56.9601 43.62 58.0001Z" fill="#F87915"/>
<path d="M37.69 55.17C37.69 55.8 37.58 56.8 37.38 58H25.56C25.36 56.8 25.25 55.8 25.25 55.17C25.25 51.97 28.03 51.05 31.47 51.05C34.91 51.05 37.69 51.97 37.69 55.17Z" fill="#FFC201"/>
<path d="M31.46 45.56C35.58 45.56 38.92 44.9242 38.92 44.14C38.92 43.3557 35.58 42.72 31.46 42.72C27.34 42.72 24 43.3557 24 44.14C24 44.9242 27.34 45.56 31.46 45.56Z" fill="#001E2B"/>
<path d="M25.4501 48.6401C24.4101 48.6401 23.5701 49.4801 23.5701 50.5201C23.5701 51.5601 24.4101 52.4001 25.4501 52.4001C26.4901 52.4001 27.3301 51.5601 27.3301 50.5201C27.3301 49.4801 26.4901 48.6401 25.4501 48.6401ZM25.4501 51.7501C24.7701 51.7501 24.2201 51.2001 24.2201 50.5201C24.2201 49.8401 24.7701 49.2901 25.4501 49.2901C26.1301 49.2901 26.6801 49.8401 26.6801 50.5201C26.6801 51.2001 26.1301 51.7501 25.4501 51.7501Z" fill="#0077DB"/>
<path d="M19.44 54.02C19.44 55.55 19.85 56.87 20.58 58H19.05C18.97 57.6 18.91 57.18 18.9 56.74C18.9 56.58 18.92 56.42 18.95 56.26L19.44 54.02Z" fill="#BF3910"/>
<path d="M44.05 56.74C44.04 57.18 43.99 57.6 43.9 58H42.39C43.11 56.87 43.52 55.55 43.52 54.02L44.01 56.26C44.04 56.42 44.06 56.58 44.05 56.74Z" fill="#BF3910"/>
<path d="M25.1301 44.6899L24.6801 48.1299C24.6801 48.1299 24.4501 49.8799 25.4501 49.8799L26.1101 45.5699L25.1301 44.6899Z" fill="#001E2B"/>
<path d="M35.62 50.5201C35.62 51.5601 36.46 52.4001 37.5 52.4001C38.54 52.4001 39.38 51.5601 39.38 50.5201C39.38 49.4801 38.54 48.6401 37.5 48.6401C36.46 48.6401 35.62 49.4801 35.62 50.5201ZM36.27 50.5201C36.27 49.8401 36.82 49.2901 37.5 49.2901C38.18 49.2901 38.73 49.8401 38.73 50.5201C38.73 51.2001 38.18 51.7501 37.5 51.7501C36.82 51.7501 36.27 51.2001 36.27 50.5201Z" fill="#0077DB"/>
<path d="M37.8201 44.6899L38.2701 48.1299C38.2701 48.1299 38.5001 49.8799 37.5001 49.8799L36.8401 45.5699L37.8201 44.6899Z" fill="#001E2B"/>
<path d="M42.9501 30.45C42.8401 29.86 42.6101 29.3 42.2801 28.79C41.7501 27.98 40.6801 25.96 39.5301 21.51C38.7101 18.32 35.1401 19.09 31.4901 19.11C27.8401 19.13 24.1901 18.36 23.3801 21.51C22.2301 25.96 21.1701 27.98 20.6301 28.79C20.2901 29.31 20.0501 29.9 19.9501 30.52C19.6701 32.09 19.6001 34.88 21.6401 37.59C21.9101 37.95 22.1601 38.33 22.3701 38.74C23.2301 40.44 25.3401 44.97 25.6301 49.12C25.7901 51.43 26.9401 53.21 28.1701 54.48C29.9601 56.32 32.9401 56.32 34.7301 54.48C35.9601 53.21 37.1101 51.43 37.2701 49.12C37.5601 44.97 39.6701 40.44 40.5301 38.74C40.7401 38.33 40.9801 37.95 41.2601 37.59C43.3401 34.84 43.2301 32 42.9401 30.45H42.9501Z" fill="#FFC201"/>
<path d="M35.8501 53.5801C35.8501 58.5601 27.0701 58.5601 27.0701 53.5801V50.3301H35.8501V53.5801Z" fill="#F85915"/>
<path d="M40.94 28.17L38.27 23.3H24.66L21.99 28.17C21.99 28.17 26.12 29.4101 26.23 33.6501C26.31 36.9501 26.65 38.9301 27.52 41.1501C27.52 41.1501 28.58 44.93 26.53 46.41C26.53 46.41 22.62 51.94 28.05 54.48C30.32 55.03 32.58 55.03 34.83 54.48C40.26 51.93 36.48 46.41 36.48 46.41C36.48 46.41 34.66 44.5401 35.41 41.1501C36.28 38.9401 36.61 36.9501 36.7 33.6501C36.81 29.4101 40.94 28.17 40.94 28.17Z" fill="#F87915"/>
<path d="M37.5201 48.3099C37.5201 48.3099 37.9801 45.9799 35.9801 45.7799C33.9801 45.5799 33.6101 48.6399 33.6101 48.6399L33.2701 50.3499C33.2101 50.6599 33.3501 50.9799 33.6301 51.1399L33.9101 51.2899C34.6301 51.6899 35.5101 51.6599 36.2101 51.2199L36.5901 50.9799C36.7401 50.8799 36.8601 50.7299 36.9001 50.5599L37.5201 48.3099Z" fill="#BF3910"/>
<path d="M36.3101 49.2999C35.8001 50.5499 34.5901 50.7199 34.1501 50.5199C33.7101 50.3199 34.3401 49.4499 34.7101 48.5999C35.0801 47.7499 35.7501 47.2099 36.1901 47.3999C36.6301 47.5899 36.6601 48.4299 36.3101 49.2999Z" fill="#001E2B"/>
<path d="M25.4 48.3099C25.4 48.3099 24.94 45.9799 26.94 45.7799C28.94 45.5799 29.31 48.6399 29.31 48.6399L29.65 50.3499C29.71 50.6599 29.57 50.9799 29.29 51.1399L29.01 51.2899C28.29 51.6899 27.41 51.6599 26.71 51.2199L26.33 50.9799C26.18 50.8799 26.06 50.7299 26.02 50.5599L25.4 48.3099Z" fill="#BF3910"/>
<path d="M26.5701 49.2999C27.0801 50.5499 28.2901 50.7199 28.7301 50.5199C29.1701 50.3199 28.5401 49.4499 28.1701 48.5999C27.8001 47.7499 27.1301 47.2099 26.6901 47.3999C26.2501 47.5899 26.2201 48.4299 26.5701 49.2999Z" fill="#001E2B"/>
<path d="M35.4501 18.91C35.4501 18.91 38.0401 15.4 39.9601 11.54C39.9601 11.54 41.5401 8.08999 41.5401 13.98C41.5401 18.56 40.5901 22.72 37.2201 23.67L35.4501 18.92V18.91Z" fill="#FFC201"/>
<path d="M37.8201 21.9199C37.8601 20.4199 38.2401 18.9699 38.9501 17.7599C39.2601 17.2199 39.6401 16.4499 40.0501 15.3499C40.5301 14.0799 40.8901 12.9799 41.1601 13.2199C41.4301 13.4599 40.8301 23.2799 37.8101 21.9199H37.8201Z" fill="#F87915"/>
<path d="M27.5 18.91C27.5 18.91 24.91 15.4 22.99 11.54C22.99 11.54 21.41 8.08999 21.41 13.98C21.41 18.56 22.36 22.72 25.73 23.67L27.5 18.92V18.91Z" fill="#FFC201"/>
<path d="M40.94 23.6601C40.94 25.3701 36.73 24.4201 31.53 24.4201C26.33 24.4201 22.12 25.3601 22.12 23.6601C22.12 21.9601 26.33 20.5701 31.53 20.5701C36.73 20.5701 40.94 21.9501 40.94 23.6601Z" fill="#1A2C38"/>
<path d="M25.1301 21.9199C25.0901 20.4199 24.7101 18.9699 24.0001 17.7599C23.6901 17.2199 23.3101 16.4499 22.9001 15.3499C22.4201 14.0799 22.0601 12.9799 21.7901 13.2199C21.5201 13.4599 22.1201 23.2799 25.1401 21.9199H25.1301Z" fill="#F87915"/>
<path d="M28.08 17.2699C25.47 18.2699 23.72 21.6399 23.04 23.1399C22.84 23.5999 22.62 24.0499 22.39 24.4899C21.45 26.2799 20.65 28.7899 20.65 28.7899C22.54 28.0999 25.87 28.5999 26.27 33.6399C26.67 38.6799 22.4 38.7399 22.4 38.7399L23.51 41.1199C32.72 31.9599 39.44 41.1199 39.44 41.1199L40.55 38.7399C40.55 38.7399 36.27 38.6799 36.68 33.6399C37.08 28.5999 40.41 28.0999 42.3 28.7899C42.3 28.7899 41.56 26.4599 40.66 24.6899C40.38 24.1299 40.11 23.5599 39.86 22.9899C39.17 21.3699 37.47 18.0299 34.86 17.2599C34.86 17.2599 31.86 15.8099 28.1 17.2599L28.08 17.2699Z" fill="#047BFF"/>
<path d="M22.38 38.7499L21.65 37.5999C21.65 37.5999 24.04 37.9799 25.13 35.8099C26.22 33.6499 25.02 31.0899 24.08 30.0599C23.52 29.4499 22.14 29.0699 20.96 29.3699C19.1 29.8399 19.48 34.1999 19.75 35.8499C19.75 35.8499 16.26 30.2899 20.71 28.4899C24.01 27.1599 25.83 30.3899 25.83 30.3899C28.19 35.0499 25.36 39.0899 22.38 38.7399V38.7499Z" fill="#45A7FF"/>
<path d="M31.5 15.95C32.04 15.95 32.48 16.39 32.48 16.93V37.22H30.52V16.93C30.52 16.39 30.96 15.95 31.5 15.95Z" fill="#45A7FF"/>
<path d="M23.52 41.15L23.97 42.45C28.67 37.32 33.64 36.99 38.94 42.45L39.52 40.96C34.28 35.48 28.61 35.69 23.52 41.15Z" fill="white"/>
<path d="M24.3401 44.5601C24.3401 44.5601 23.3601 44.2001 23.5301 43.2301C23.8401 39.6701 39.2701 40.0901 39.4101 43.2301C39.5801 44.2001 38.6001 44.5601 38.6001 44.5601C40.3101 41.6801 22.6101 41.2401 24.3501 44.5601H24.3401Z" fill="#047BFF"/>
<path d="M20.96 29.3701C20.96 29.3701 19.33 32.7401 21.65 37.5901C21.65 37.5901 19.08 36.5201 18.78 32.8201C18.55 30.0301 20.96 29.3701 20.96 29.3701Z" fill="#047BFF"/>
<path d="M24.53 34.8401C24.53 34.8401 24.81 32.4701 24.11 31.4801C23.16 30.1401 21.63 30.3601 20.49 30.9501C19.77 31.3201 19.78 32.3301 20.49 32.7201C20.92 32.9601 21.31 33.3401 21.49 33.9401L24.53 34.8401Z" fill="#F87915"/>
<path d="M24.0601 35.3999C24.3501 35.3999 24.5801 35.1299 24.5401 34.8399C24.4001 33.8799 23.9001 31.8499 22.1501 31.5099C19.9701 31.0799 21.1201 35.4599 24.0601 35.3999Z" fill="#1A2C38"/>
<path d="M22.3145 33.7476C22.5887 33.6304 22.6702 33.206 22.4965 32.7998C22.3228 32.3935 21.9597 32.1592 21.6855 32.2765C21.4113 32.3937 21.3298 32.8181 21.5035 33.2244C21.6772 33.6306 22.0403 33.8649 22.3145 33.7476Z" fill="white"/>
<path d="M40.5201 38.7499L41.2501 37.5999C41.2501 37.5999 38.8601 37.9799 37.7701 35.8099C36.6801 33.6499 37.8801 31.0899 38.8201 30.0599C39.3801 29.4499 40.7601 29.0699 41.9401 29.3699C43.8001 29.8399 43.4301 34.2099 43.1601 35.8599C43.1601 35.8599 46.6501 30.2899 42.1901 28.4799C38.8901 27.1499 37.0701 30.3799 37.0701 30.3799C34.7101 35.0399 37.5401 39.0799 40.5201 38.7299V38.7499Z" fill="#45A7FF"/>
<path d="M41.94 29.3701C41.94 29.3701 43.57 32.7401 41.25 37.5901C41.25 37.5901 43.84 36.5301 44.12 32.8201C44.33 29.9801 41.94 29.3701 41.94 29.3701Z" fill="#1A2C38"/>
<path d="M40.94 23.66C40.94 23.66 43.11 18.71 31.53 18.71C19.95 18.71 22.12 23.66 22.12 23.66C22.12 21.95 26.33 20.57 31.53 20.57C36.73 20.57 40.94 21.95 40.94 23.66Z" fill="white"/>
<path d="M24.2039 50.1779L21.6939 51.1454C21.4724 51.2308 21.3612 51.4776 21.4456 51.6966C21.53 51.9156 21.7781 52.0239 21.9997 51.9385L24.5097 50.971C24.7312 50.8856 24.8424 50.6388 24.758 50.4198C24.6736 50.2008 24.4255 50.0925 24.2039 50.1779Z" fill="white"/>
<path d="M16.29 57.5701C16.29 57.5701 14.51 55.8901 16.47 53.8101C17.69 52.5201 19.66 51.3801 20.98 50.7001C21.66 50.3501 22.48 50.7701 22.6 51.5301C22.68 52.0301 22.42 52.5201 21.96 52.7301C20.15 53.5601 15.84 55.7601 16.29 57.5701Z" fill="#0077DB"/>
<path d="M38.48 50.9755L40.99 51.943C41.2116 52.0284 41.4597 51.9201 41.5441 51.7011C41.6285 51.4821 41.5173 51.2353 41.2957 51.1499L38.7857 50.1824C38.5642 50.0969 38.3161 50.2053 38.2317 50.4243C38.1472 50.6433 38.2584 50.8901 38.48 50.9755Z" fill="white"/>
<path d="M46.7101 57.5701C46.7101 57.5701 48.4901 55.8901 46.5301 53.8101C45.3101 52.5201 43.3401 51.3801 42.0201 50.7001C41.3401 50.3501 40.5201 50.7701 40.4001 51.5301C40.3201 52.0301 40.5801 52.5201 41.0401 52.7301C42.8501 53.5601 47.1601 55.7601 46.7101 57.5701Z" fill="#0077DB"/>
<path d="M38.39 34.8401C38.39 34.8401 38.11 32.4701 38.81 31.4801C39.76 30.1401 41.29 30.3601 42.43 30.9501C43.15 31.3201 43.14 32.3301 42.43 32.7201C42 32.9601 41.61 33.3401 41.43 33.9401L38.39 34.8401Z" fill="#F87915"/>
<path d="M38.87 35.3999C38.58 35.3999 38.35 35.1299 38.39 34.8399C38.53 33.8799 39.03 31.8499 40.78 31.5099C42.96 31.0799 41.81 35.4599 38.87 35.3999Z" fill="#1A2C38"/>
<path d="M41.429 33.2395C41.6027 32.8333 41.5212 32.4089 41.247 32.2917C40.9728 32.1744 40.6097 32.4087 40.436 32.815C40.2623 33.2212 40.3438 33.6456 40.618 33.7628C40.8922 33.8801 41.2553 33.6458 41.429 33.2395Z" fill="white"/>
<path d="M32.0201 22.41L32.8501 23.93L34.5501 24.26C35.0101 24.35 35.1901 24.91 34.8701 25.25L33.6901 26.51L33.9101 28.23C33.9701 28.7 33.4901 29.04 33.0701 28.84L31.5001 28.1L29.9301 28.84C29.5001 29.04 29.0301 28.69 29.0901 28.23L29.3101 26.51L28.1301 25.25C27.8101 24.91 27.9901 24.35 28.4501 24.26L30.1501 23.93L30.9801 22.41C31.2101 22 31.8001 22 32.0201 22.41Z" fill="white"/>
<g clip-path="url(#clip1_26835_29212)">
<path d="M50.92 24C50.28 24.99 49.77 25.51 48.78 26.14C49.77 26.78 50.29 27.29 50.92 28.28C51.56 27.29 52.07 26.77 53.06 26.14C52.07 25.5 51.55 24.99 50.92 24Z" fill="white"/>
<path d="M12.14 33.5701C11.5 34.5601 10.99 35.0801 10 35.7101C10.99 36.3501 11.51 36.8601 12.14 37.8501C12.78 36.8601 13.29 36.3401 14.28 35.7101C13.29 35.0701 12.77 34.5601 12.14 33.5701Z" fill="white"/>
</g>
</g>
<path fill-rule="evenodd" clip-rule="evenodd" d="M6.49771 79C6.98969 79 7.48602 79.213 7.49037 79.6913C7.49037 80.1043 7.24656 80.2696 6.99839 80.2696C6.75023 80.2696 6.73281 80.1435 6.73281 80.1435C6.73281 80.1435 7.02452 79.9261 7.02452 79.7174C7.02452 79.6087 6.94179 79.313 6.489 79.3174C5.8577 79.3174 5.5181 79.6174 5.5181 80.1522C5.5181 80.7652 7.35105 80.9739 7.3554 81.7652C7.3554 82.613 6.47594 82.9957 5.69225 83C5.283 83 5.01306 82.7609 5.00871 82.3783C5.00871 81.9261 5.22204 81.4652 5.75756 81.4652C5.88382 81.4565 5.98831 81.5522 5.99702 81.6783C5.99702 81.6783 5.99702 81.6826 5.99702 81.687C5.99702 81.687 5.45715 81.8391 5.4615 82.3783C5.4615 82.4783 5.56599 82.6609 5.81851 82.6565C6.07103 82.6522 6.82424 82.4739 6.81989 81.8087C6.81989 81.1913 5.00435 81.1087 5 80.1478C5 79.0652 6.08845 79.0087 6.49771 79.0087V79ZM10.747 79.6C10.8123 79.5696 11.2129 79.4913 11.1955 79.813C11.1824 80.1348 10.9386 80.6913 10.9037 80.9348C11.2303 80.7696 11.6918 80.2087 11.6918 80.2087C11.6918 80.2087 12.0183 80.2522 11.9182 80.4522C11.818 80.6522 11.1519 81.1435 11.1519 81.1435C11.1519 81.1435 11.3043 82.5696 12.1707 82.5696C12.6453 82.5696 12.8499 82.3609 12.937 82.287C12.9587 82.2696 12.9762 82.2652 12.9849 82.2783C13.0197 82.387 12.9936 82.5043 12.9152 82.5913C12.8194 82.6957 12.5974 82.8217 12.1533 82.8261C11.3653 82.8261 10.9255 82.1957 10.8123 81.2609C10.7252 81.5348 10.7339 81.9826 10.7209 82.2C10.6948 82.2435 10.2507 82.4174 10.2158 82.1174C10.2158 82.0913 10.2158 82.0696 10.2158 82.0435C10.1331 82.1609 10.0199 82.2826 9.91108 82.2826C9.71951 82.2826 9.63679 82.1217 9.60196 82.0391C9.57584 82.0696 9.3625 82.287 9.08821 82.287C8.92277 82.2913 8.77474 82.1957 8.70943 82.0435C8.57011 82.1435 8.32195 82.2913 8.03895 82.2913C7.73418 82.2913 7.66017 82.1087 7.66017 81.9565C7.66017 81.713 7.84303 80.987 7.84303 80.987C7.84303 80.987 7.48602 81.1304 7.36411 81.1348C7.19431 81.1348 7.11159 80.8217 7.11159 80.813C7.11159 80.8087 7.11159 80.8 7.1203 80.8C7.22044 80.7609 7.94317 80.513 7.94317 80.513C7.94317 80.513 8.07813 79.9826 8.09555 79.913C8.11296 79.8435 8.2131 79.7 8.33065 79.6565C8.41773 79.6217 8.50916 79.6 8.60059 79.5913C8.63107 79.5913 8.65284 79.6 8.65284 79.6174C8.65284 79.6348 8.47433 80.4087 8.47433 80.4087C8.47433 80.4087 8.84876 80.3217 8.98808 80.3217C9.09692 80.3217 9.15352 80.387 9.09257 80.4696C9.03162 80.5522 8.96196 80.6478 8.92712 80.6913C8.88794 80.7348 8.86182 80.7435 8.77039 80.7609C8.64413 80.787 8.36113 80.8565 8.36113 80.8565C8.36113 80.8565 8.13473 81.6783 8.13909 81.8174C8.13909 81.8957 8.16521 81.987 8.26099 81.987C8.35678 81.987 8.53964 81.8739 8.67025 81.7913C8.69202 81.1522 9.18835 80.7261 9.57584 80.7261C9.7021 80.7261 9.65421 80.8478 9.79788 80.8478H9.88931C9.94591 80.8478 10.0069 80.8522 10.0069 80.9957C10.0069 81.1957 9.89367 81.5261 9.89367 81.7348C9.89367 81.8826 9.91544 81.987 9.97204 81.987C10.0678 81.987 10.1767 81.8478 10.255 81.7261C10.3813 81.0304 10.734 79.7609 10.734 79.6174L10.747 79.6ZM12.5016 80.7C12.7672 80.6783 12.9326 80.8217 12.9631 80.9C12.9936 80.9783 12.9892 81.1609 12.9152 81.2913C12.6845 81.7044 12.1097 81.6304 12.1097 81.6304C12.1097 81.6304 12.0444 81.9565 12.3405 81.9565C12.593 81.9565 12.7062 81.8304 12.8151 81.7261C12.8586 81.7261 12.9936 81.8652 12.9326 81.9609C12.8847 82.0348 12.6191 82.2565 12.2795 82.2609C11.7397 82.2609 11.6047 81.8 11.6744 81.4696C11.7658 81.0609 12.1751 80.7217 12.5016 80.6957V80.7ZM9.6455 80.987C9.32332 80.987 8.82699 81.9696 9.20577 81.9652C9.61938 81.9652 9.6455 81.1826 9.6455 81.0043V80.987ZM12.6409 80.8913C12.4232 80.9 12.1751 81.3174 12.1533 81.5C12.4798 81.513 12.654 81.1957 12.6757 81.0696C12.6888 80.9739 12.6932 80.887 12.6409 80.887V80.8913Z" fill="#557086"/>
<path d="M56.1444 79.3778L56.6412 80.278L57.6518 80.4733C57.7792 80.4988 57.8302 80.6559 57.741 80.7494L57.0361 81.5009L57.1635 82.5243C57.1805 82.6559 57.0446 82.7494 56.93 82.6942L56 82.2568L55.0701 82.6942C54.9512 82.7494 54.8196 82.6517 54.8366 82.5243L54.9639 81.5009L54.2591 80.7494C54.1699 80.6559 54.2208 80.4988 54.3482 80.4733L55.3588 80.278L55.8557 79.3778C55.9194 79.2632 56.085 79.2632 56.1444 79.3778Z" fill="#FFC200"/>
<path d="M56 79.2929C56.0552 79.2929 56.1147 79.3226 56.1444 79.3778L56.6412 80.278L57.6518 80.4733C57.7792 80.4988 57.8302 80.6559 57.741 80.7494L57.0361 81.5009L57.1635 82.5243C57.1763 82.6262 57.0955 82.7111 56.9979 82.7111C56.9766 82.7111 56.9512 82.7069 56.9257 82.6942L55.9957 82.2568L55.0658 82.6942C55.0403 82.7069 55.0191 82.7111 54.9936 82.7111C54.9002 82.7111 54.8153 82.6262 54.828 82.5243L54.9554 81.5009L54.2505 80.7494C54.1613 80.6559 54.2123 80.4988 54.3397 80.4733L55.3503 80.278L55.8471 79.3778C55.8768 79.3226 55.9363 79.2929 55.9915 79.2929M56 79.0806C55.8641 79.0806 55.7367 79.157 55.6688 79.2759L55.2187 80.0912L54.3057 80.2653C54.1698 80.2908 54.0594 80.3884 54.017 80.5201C53.9745 80.6517 54.0085 80.7961 54.1019 80.8937L54.7388 81.5731L54.6242 82.4946C54.6115 82.6007 54.6454 82.7111 54.7134 82.7918C54.7856 82.8725 54.8875 82.9192 54.9979 82.9192C55.0531 82.9192 55.1083 82.9065 55.1592 82.881L56 82.4861L56.8408 82.881C56.8917 82.9065 56.9469 82.9192 57.0021 82.9192C57.1125 82.9192 57.2144 82.8725 57.2866 82.7918C57.3588 82.7111 57.3928 82.6007 57.3758 82.4946L57.2611 81.5731L57.8981 80.8937C57.9915 80.7918 58.0255 80.6474 57.983 80.5201C57.9405 80.3884 57.8301 80.2908 57.6943 80.2653L56.7813 80.0912L56.3312 79.2759C56.2633 79.157 56.1359 79.0806 56 79.0806Z" fill="#213743"/>
<path d="M56 79.8152V80.9744C56 81.0678 56.0892 81.1315 56.1784 81.106L57.2187 80.7706C57.2739 80.7536 57.2697 80.6729 57.2102 80.6602L56.5563 80.5413C56.4969 80.5286 56.4417 80.4903 56.4119 80.4351L56.085 79.7939C56.0637 79.7515 55.9958 79.7642 55.9958 79.8152H56Z" fill="#FFEBB8"/>
<path d="M56 81.4924V82.0699C56 82.1039 56.017 82.1294 56.0467 82.1464L56.7983 82.5073C56.8365 82.5243 56.8705 82.4818 56.845 82.4479L56.0934 81.4627C56.0637 81.4245 56 81.4457 56 81.4924Z" fill="#FF7F00"/>
<rect x="13" y="62" width="37" height="13" rx="6.5" fill="#2F4553"/>
<path d="M31.2002 70H30.1622V69.268H28.2482V68.464L29.7662 65.998H31.2002V68.362H31.6862V69.268H31.2002V70ZM30.1622 68.362V66.898L29.2502 68.362H30.1622ZM34.9215 70H33.9075L33.3495 69.124L32.7855 70H31.7775L32.7675 68.512L31.8375 67.102H32.8515L33.3495 67.888L33.8415 67.102H34.8555L33.9315 68.512L34.9215 70Z" fill="white"/>
<path d="M8.03 11H7.215L6.56 9.815H6.04V11H5.33V7.665H6.89C7.585 7.665 8.01 8.12 8.01 8.74C8.01 9.33 7.64 9.645 7.28 9.73L8.03 11ZM6.785 9.19C7.07 9.19 7.285 9.02 7.285 8.74C7.285 8.46 7.07 8.29 6.785 8.29H6.04V9.19H6.785ZM10.5152 11H9.88023V10.75C9.71523 10.945 9.43023 11.06 9.11523 11.06C8.73023 11.06 8.27523 10.8 8.27523 10.26C8.27523 9.695 8.73023 9.48 9.11523 9.48C9.43523 9.48 9.72023 9.585 9.88023 9.775V9.45C9.88023 9.205 9.67023 9.045 9.35023 9.045C9.09023 9.045 8.85023 9.14 8.64523 9.33L8.40523 8.905C8.70023 8.645 9.08023 8.525 9.46023 8.525C10.0102 8.525 10.5152 8.745 10.5152 9.44V11ZM9.37023 10.63C9.57523 10.63 9.77523 10.56 9.88023 10.42V10.12C9.77523 9.98 9.57523 9.91 9.37023 9.91C9.12023 9.91 8.91523 10.04 8.91523 10.275C8.91523 10.5 9.12023 10.63 9.37023 10.63ZM11.7801 11H11.1451V8.585H11.7801V8.915C11.9501 8.7 12.2501 8.525 12.5501 8.525V9.145C12.5051 9.135 12.4451 9.13 12.3751 9.13C12.1651 9.13 11.8851 9.25 11.7801 9.405V11ZM14.0818 11.06C13.3468 11.06 12.7918 10.565 12.7918 9.79C12.7918 9.09 13.3068 8.525 14.0418 8.525C14.7618 8.525 15.2518 9.065 15.2518 9.855V9.995H13.4568C13.4968 10.3 13.7418 10.555 14.1518 10.555C14.3568 10.555 14.6418 10.465 14.7968 10.315L15.0768 10.725C14.8368 10.945 14.4568 11.06 14.0818 11.06ZM14.6368 9.565C14.6218 9.335 14.4618 9.03 14.0418 9.03C13.6468 9.03 13.4768 9.325 13.4468 9.565H14.6368Z" fill="white"/>
<path d="M48.7132 11H48.2612L46.8692 9.096V11H46.4012V8.332H46.8812L48.2452 10.184V8.332H48.7132V11ZM50.1401 11.048C49.5281 11.048 49.1481 10.588 49.1481 10.032C49.1481 9.48 49.5281 9.02 50.1401 9.02C50.7601 9.02 51.1361 9.48 51.1361 10.032C51.1361 10.588 50.7601 11.048 50.1401 11.048ZM50.1401 10.676C50.5001 10.676 50.7001 10.376 50.7001 10.032C50.7001 9.692 50.5001 9.392 50.1401 9.392C49.7841 9.392 49.5841 9.692 49.5841 10.032C49.5841 10.376 49.7841 10.676 50.1401 10.676ZM51.7575 11.044C51.6055 11.044 51.4775 10.916 51.4775 10.764C51.4775 10.612 51.6055 10.484 51.7575 10.484C51.9095 10.484 52.0375 10.612 52.0375 10.764C52.0375 10.916 51.9095 11.044 51.7575 11.044ZM55.1293 11H54.6613V10.396H53.3893V10.02L54.4853 8.332H55.1293V9.984H55.4853V10.396H55.1293V11ZM54.6613 9.984V8.752L53.8493 9.984H54.6613ZM56.6577 11.044C56.3297 11.044 56.0737 10.928 55.8937 10.748L56.1097 10.396C56.2497 10.54 56.4057 10.628 56.6577 10.628C57.1417 10.628 57.3617 10.188 57.3617 9.752C57.3617 9.724 57.3617 9.7 57.3617 9.672C57.2377 9.852 56.9577 10.048 56.6457 10.048C56.1657 10.048 55.7497 9.752 55.7497 9.184C55.7497 8.692 56.1377 8.288 56.7337 8.288C57.5177 8.288 57.8337 8.924 57.8337 9.668C57.8337 10.436 57.4297 11.044 56.6577 11.044ZM56.7697 9.644C56.9977 9.644 57.2217 9.524 57.3537 9.332C57.3297 9.044 57.1697 8.704 56.7577 8.704C56.4097 8.704 56.2257 8.956 56.2257 9.168C56.2257 9.496 56.4817 9.644 56.7697 9.644Z" fill="white"/>
<defs>
<clipPath id="clip0_26835_29212">
<rect width="63" height="88" fill="white"/>
</clipPath>
<clipPath id="clip1_26835_29212">
<rect width="43.06" height="13.86" fill="white" transform="translate(10 24)"/>
</clipPath>
</defs>
</svg>
