<svg width="63" height="88" viewBox="0 0 63 88" fill="none" xmlns="http://www.w3.org/2000/svg">
<rect width="63" height="88" rx="4" fill="#FF003F"/>
<path d="M36.7008 13.5133L44.7992 3.48665C45.5586 2.54645 46.7024 2 47.911 2H58C59.6569 2 61 3.34314 61 5V83C61 84.6569 59.6569 86 58 86H5C3.34315 86 2 84.6569 2 83V18C2 16.3431 3.34315 15 5 15H33.589C34.7976 15 35.9414 14.4536 36.7008 13.5133Z" fill="#213743"/>
<rect x="5" y="18" width="53" height="40" rx="1" fill="#2F4553"/>
<g clip-path="url(#clip0_26835_29213)">
<path d="M57 18H6C5.44772 18 5 18.4477 5 19V57C5 57.5523 5.44772 58 6 58H57C57.5523 58 58 57.5523 58 57V19C58 18.4477 57.5523 18 57 18Z" fill="#FF7F00"/>
<mask id="mask0_26835_29213" style="mask-type:luminance" maskUnits="userSpaceOnUse" x="5" y="18" width="53" height="40">
<path d="M57 18H6C5.44772 18 5 18.4477 5 19V57C5 57.5523 5.44772 58 6 58H57C57.5523 58 58 57.5523 58 57V19C58 18.4477 57.5523 18 57 18Z" fill="white"/>
</mask>
<g mask="url(#mask0_26835_29213)">
<path d="M5 28.66V45.65C25.41 53.74 45.61 46.81 58 40.39V27C37.18 32.34 18.13 31.02 5 28.66Z" fill="#FF5500"/>
<path d="M42.823 37.8401C42.823 37.8401 42.193 36.5701 42.053 35.2101C43.893 33.5301 45.043 31.1801 45.043 28.5801C45.043 26.5201 44.313 24.6201 43.103 23.0801C43.013 22.2801 42.823 21.5101 42.543 20.7801C42.213 19.9101 41.743 19.1101 41.183 18.3901C41.843 17.4501 42.603 15.9001 42.043 14.1501C41.133 11.3301 39.893 13.1401 38.883 14.3901C38.473 14.8901 38.033 15.2901 37.653 15.5901C36.403 15.0101 35.013 14.6801 33.543 14.6801C29.583 14.6801 26.193 17.0201 24.713 20.3701C24.203 21.5201 23.923 22.7901 23.923 24.1301C23.923 24.2201 23.933 24.3101 23.933 24.4001L23.043 23.9201C23.043 23.9201 18.803 29.1101 17.993 35.4501H17.963C17.963 35.5901 17.963 35.7201 17.953 35.8601C17.903 36.3301 17.873 36.8101 17.873 37.2901C17.213 45.0701 13.743 45.5601 18.353 58.0001H61.433C61.433 58.0001 56.203 45.0601 42.833 37.8401H42.823Z" fill="#1A2C38"/>
</g>
<path d="M49.66 27.1699L49.28 27.6299C48.82 28.1799 49.23 29.2799 50.19 30.0799C51.15 30.8799 52.3 31.0699 52.76 30.5199L53.14 30.0599L49.66 27.1799V27.1699Z" fill="#FF7F00"/>
<path d="M53.144 30.059C53.6018 29.5059 53.1936 28.4124 52.2321 27.6164C51.2707 26.8205 50.1201 26.6236 49.6623 27.1766C49.2044 27.7296 49.6127 28.8232 50.5741 29.6192C51.5356 30.4151 52.6861 30.612 53.144 30.059Z" fill="#FFC200"/>
<path d="M6.14999 29.4799C7.34293 29.4799 8.30999 28.5128 8.30999 27.3199C8.30999 26.127 7.34293 25.1599 6.14999 25.1599C4.95706 25.1599 3.98999 26.127 3.98999 27.3199C3.98999 28.5128 4.95706 29.4799 6.14999 29.4799Z" fill="#FF7F00"/>
<path d="M5.94003 29.1801C7.13296 29.1801 8.10003 28.213 8.10003 27.0201C8.10003 25.8272 7.13296 24.8601 5.94003 24.8601C4.74709 24.8601 3.78003 25.8272 3.78003 27.0201C3.78003 28.213 4.74709 29.1801 5.94003 29.1801Z" fill="#FFC200"/>
<path d="M38.5729 36.9435L12.6076 34.4368C12.4091 44.495 7.83435 44.0458 13.0044 57.9999H58C58 57.9999 52.5374 44.4845 38.5729 36.9435Z" fill="#FF7F00"/>
<path d="M17.903 22.3942C17.903 22.3942 10.0069 32.0451 13.3074 41.3408C13.3074 41.3408 10.832 51.5557 18.8221 57.9896H38.9281C38.9281 57.9896 41.8004 54.7622 40.8917 49.1848C40.8917 49.1848 45.5082 45.5814 38.573 36.9332C38.573 36.9332 37.5494 34.9069 37.7583 33.1731L17.9135 22.3838L17.903 22.3942Z" fill="#FFEBB8"/>
<path d="M20.2635 20.4202C20.2635 20.4202 14.8114 14.4563 17.7672 11.7929C20.723 9.12954 22.7911 14.7592 26.2378 13.673L25.7156 17.0152L20.253 20.4306L20.2635 20.4202Z" fill="#FF7F00"/>
<path d="M24.6606 14.947C24.6606 14.947 22.6239 14.8008 20.2635 12.7432C17.903 10.6856 15.6887 14.6232 19.6472 19.2084L24.6502 14.947H24.6606Z" fill="#1A2C38"/>
<path d="M25.726 37.4866C31.4195 37.4866 36.0349 33.1564 36.0349 27.8148C36.0349 22.4733 31.4195 18.1431 25.726 18.1431C20.0326 18.1431 15.4172 22.4733 15.4172 27.8148C15.4172 33.1564 20.0326 37.4866 25.726 37.4866Z" fill="#FFEBB8"/>
<path d="M30.5724 36.9331C36.2658 36.9331 40.8812 32.6029 40.8812 27.2613C40.8812 21.9198 36.2658 17.5896 30.5724 17.5896C24.8789 17.5896 20.2635 21.9198 20.2635 27.2613C20.2635 32.6029 24.8789 36.9331 30.5724 36.9331Z" fill="#FFEBB8"/>
<path d="M38.2805 19.125L19.6473 18.6968C19.1146 19.8979 18.8221 21.2244 18.8221 22.624C18.8221 28.0761 23.3238 32.4942 28.8803 32.4942C34.4369 32.4942 38.9385 28.0761 38.9385 22.624C38.9385 21.3915 38.7088 20.2217 38.291 19.1355L38.2805 19.125Z" fill="#FFEBB8"/>
<path d="M26.2378 31.8361C26.2378 31.8361 19.7517 38.2909 17.5792 27.8253C17.5792 27.8253 16.7541 30.8334 18.2581 32.9745C18.2581 32.9745 15.1247 29.3711 15.6365 25.7991C15.6365 25.7991 12.5658 36.9957 25.726 40.6722C25.726 40.6722 26.3632 38.8444 30.5828 38.552C34.8024 38.2491 37.9672 35.6066 36.0453 32.2748C30.8021 35.2828 26.6974 36.5466 26.2483 31.8361H26.2378Z" fill="#1A2C38"/>
<path d="M35.0948 34.6455C35.0948 34.6455 36.9853 35.0947 38.5729 31.8359C38.5729 31.8359 38.5729 34.6455 35.5231 36.0974L35.0948 34.6455Z" fill="#1A2C38"/>
<path d="M37.9567 19.7202C37.9567 19.7202 38.9803 21.3182 40.5261 21.6003C40.5261 21.6003 39.6383 22.2269 37.9567 21.7047V19.7307V19.7202Z" fill="#FFEBB8"/>
<path d="M32.1077 14.3935C32.1077 14.3935 33.4029 13.746 34.4578 12.4404C35.5127 11.1348 36.8078 9.24433 37.7583 12.1897C38.7087 15.1351 36.0349 17.5792 36.0349 17.5792L32.1077 14.3831V14.3935Z" fill="#FF7F00"/>
<path d="M26.5094 21.6005C26.5094 21.6005 27.1047 26.4991 33.5595 26.8751C40.0039 27.2511 37.6121 22.4465 37.6121 22.4465C37.6121 22.4465 39.231 22.7285 38.291 19.1251C36.8496 15.3964 33.1835 12.7539 28.8908 12.7539C24.598 12.7539 21.214 15.198 19.6682 18.6969C20.9946 20.9216 23.1358 22.7285 26.5303 21.6005H26.5094Z" fill="#FF7F00"/>
<path d="M30.259 18.143C30.259 19.7724 29.6427 20.702 28.3685 20.702C27.0943 20.702 26.0707 19.386 26.0707 17.7566C26.0707 16.1272 26.6138 14.1114 28.3685 14.8112C29.5487 15.2812 30.259 16.5241 30.259 18.143Z" fill="#FFEBB8"/>
<path d="M33.9773 15.177C33.9773 15.177 35.2515 16.8899 35.5022 17.9762C35.5022 17.9762 35.0531 20.8484 36.3691 21.1305C37.6851 21.4125 38.176 18.582 36.484 17.8091C36.484 17.8091 35.5544 15.3546 33.9877 15.1874L33.9773 15.177Z" fill="#FFEBB8"/>
<path d="M36.0349 33.9982C36.0349 35.2306 34.1444 36.9435 32.1077 36.9435C30.071 36.9435 28.4103 35.9409 28.4103 34.7188C28.4103 33.4968 30.4888 32.3479 32.5359 32.3479C34.5831 32.3479 36.0453 32.7657 36.0453 33.9982H36.0349Z" fill="#FFEBB8"/>
<path d="M30.3008 27.8149L26.8541 29.8412C26.8541 29.8412 26.9063 35.1889 29.4548 34.3428C32.0033 33.4968 33.3193 33.1313 34.4995 33.6431C35.6798 34.1548 36.2125 34.1444 36.0349 30.447C36.0349 30.447 37.8732 30.7081 37.9567 28.3998L30.3008 27.8254V27.8149Z" fill="#1A2C38"/>
<path d="M31.293 31.3557C31.293 31.3557 32.5151 31.199 33.1313 31.5541C33.1313 31.5541 33.9878 30.635 35.0949 30.9797L34.4682 32.2017C34.4682 32.2017 33.0477 32.6508 31.1886 32.045L31.2826 31.3557H31.293Z" fill="#E9113C"/>
<path d="M32.2331 24.7234C32.2331 24.7234 28.3059 26.1021 28.4103 27.5957C28.5148 29.0893 31.011 30.844 34.8442 28.2955C34.8442 28.2955 36.2334 30.5411 38.1343 29.1206C40.0352 27.7001 37.4554 25.4754 37.4554 25.4754C37.4554 25.4754 34.1549 27.8463 32.2331 24.7234Z" fill="#FFEBB8"/>
<path d="M32.233 24.7234C32.233 24.7234 32.3062 26.311 34.8546 27.2719L34.604 28.5984H34.8546L35.45 27.2719C35.45 27.2719 36.8809 26.9481 37.4449 25.4754C37.4449 25.4754 36.86 24.8069 35.7529 25.5903C35.7529 25.5903 34.1757 24.3265 33.2253 25.2456C33.2253 25.2456 32.6299 25.2665 32.2226 24.7234H32.233Z" fill="#1A2C38"/>
<path d="M33.2253 25.2455C33.2253 25.2455 35.6276 24.8486 34.8024 26.8749C34.8024 26.8749 35.3351 27.4702 36.0349 26.3004C36.7347 25.1306 37.4554 25.4753 37.4554 25.4753C37.4554 25.4753 37.5911 24.5562 36.6302 24.9113C35.6693 25.2664 33.9251 23.7311 33.2357 25.2455H33.2253Z" fill="#FFEBB8"/>
<path d="M31.5855 30.3006C31.5542 30.2066 31.4288 30.2066 31.387 30.2902C31.0424 30.9586 30.1024 32.9536 31.1259 32.9745C32.3688 33.0058 31.8048 31.0004 31.5855 30.3006Z" fill="white"/>
<path d="M35.0844 30.4053C34.8547 30.8649 34.322 31.8153 33.7997 32.1287C33.7997 32.1287 34.1862 33.4969 34.886 32.6614C35.3978 32.0451 35.3351 30.9693 35.262 30.4262C35.2515 30.3322 35.1158 30.3113 35.074 30.3949L35.0844 30.4053Z" fill="white"/>
<path d="M31.5019 31.8359C31.5019 31.8359 32.515 32.3373 34.0191 32.1075L34.2071 32.4313C34.2071 32.4313 32.7657 33.0162 31.5123 32.5253V31.8464L31.5019 31.8359Z" fill="white"/>
<path d="M25.0576 19.7203C25.0576 19.7203 25.8096 18.916 26.9794 19.292C26.9794 19.292 28.1492 20.7961 29.3294 20.4201L29.6323 21.1199L30.5724 20.159C30.5724 20.159 29.1519 17.5373 27.1465 18.8638C27.1465 18.8638 25.8932 18.7698 26.102 17.2971C26.102 17.2971 24.88 17.9238 25.0471 19.7203H25.0576Z" fill="#1A2C38"/>
<path d="M28.5983 20.1381C29.0367 20.1381 29.3921 19.8575 29.3921 19.5114C29.3921 19.1653 29.0367 18.8848 28.5983 18.8848C28.1599 18.8848 27.8045 19.1653 27.8045 19.5114C27.8045 19.8575 28.1599 20.1381 28.5983 20.1381Z" fill="#FFC200"/>
<path d="M28.6296 19.8666C28.8085 19.8666 28.9534 19.7216 28.9534 19.5428C28.9534 19.364 28.8085 19.219 28.6296 19.219C28.4508 19.219 28.3058 19.364 28.3058 19.5428C28.3058 19.7216 28.4508 19.8666 28.6296 19.8666Z" fill="#1A2C38"/>
<path d="M35.4291 19.2085C35.4291 19.2085 35.45 20.6498 36.2751 20.702C37.1002 20.7543 36.8704 19.5949 36.8704 19.5949C36.8704 19.5949 37.6642 19.8456 37.1211 19.2085C36.578 18.5713 35.4291 19.2085 35.4291 19.2085Z" fill="#1A2C38"/>
<path d="M36.0871 20.3993C36.4101 20.3993 36.672 20.1374 36.672 19.8144C36.672 19.4914 36.4101 19.2295 36.0871 19.2295C35.7641 19.2295 35.5022 19.4914 35.5022 19.8144C35.5022 20.1374 35.7641 20.3993 36.0871 20.3993Z" fill="#FFC200"/>
<path d="M35.9617 20.0231C36.1117 20.0231 36.2333 19.9015 36.2333 19.7515C36.2333 19.6016 36.1117 19.48 35.9617 19.48C35.8118 19.48 35.6902 19.6016 35.6902 19.7515C35.6902 19.9015 35.8118 20.0231 35.9617 20.0231Z" fill="#1A2C38"/>
<path d="M28.3268 19.7202C28.494 19.7202 28.6297 19.6361 28.6297 19.5322C28.6297 19.4284 28.494 19.3442 28.3268 19.3442C28.1595 19.3442 28.0239 19.4284 28.0239 19.5322C28.0239 19.6361 28.1595 19.7202 28.3268 19.7202Z" fill="#FF9B2E"/>
<path d="M35.732 19.9395C35.8474 19.9395 35.9409 19.8553 35.9409 19.7515C35.9409 19.6476 35.8474 19.5635 35.732 19.5635C35.6167 19.5635 35.5231 19.6476 35.5231 19.7515C35.5231 19.8553 35.6167 19.9395 35.732 19.9395Z" fill="#FF9B2E"/>
<path d="M43.1059 58C43.1059 58 45.9573 55.5977 46.5317 51.5452C46.5317 51.5452 47.0331 53.6445 46.1557 56.1199C46.1557 56.1199 48.2551 58 51.4825 58H43.1059Z" fill="#1A2C38"/>
<path d="M34.5622 36.5571C34.5622 36.5571 29.2668 40.4007 28.6401 46.8973C28.6401 46.8973 27.0107 47.8999 26.8645 50.1978C26.8645 50.1978 27.7105 47.994 30.259 47.0957C30.259 47.0957 31.2721 41.1005 36.1707 35.3977L34.5622 36.5571Z" fill="#1A2C38"/>
<path d="M13.652 34.6457L14.2683 37.6433C14.2683 37.6433 19.501 42.0927 22.6031 49.0906C22.6031 49.0906 20.3993 40.8916 13.652 34.6353V34.6457Z" fill="#1A2C38"/>
<path d="M26.2378 27.1568C26.2378 27.1568 29.3712 25.705 31.1468 26.6555C29.9352 26.6032 26.2378 27.1568 26.2378 27.1568Z" fill="#1A2C38"/>
<path d="M31.1572 27.5851C31.1572 27.5851 28.1178 27.2509 25.5693 28.5982C25.5693 28.5982 29.2041 28.1491 31.1572 27.5851Z" fill="#1A2C38"/>
<path d="M37.7478 27.2614C37.7478 27.2614 38.1029 27.2197 38.3536 27.4181C38.3536 27.4181 38.4267 26.8019 38.2074 26.3005C38.2074 26.3005 38.8445 26.8228 38.8236 27.9508L37.7478 27.2719V27.2614Z" fill="#1A2C38"/>
<path d="M37.4554 28.0759C37.4554 28.0759 37.9672 28.0759 38.573 28.8488C38.573 28.8488 38.0298 29.1204 37.4554 28.0759Z" fill="#1A2C38"/>
<path d="M23.3551 19.3547C23.3551 19.3547 21.9555 24.7232 23.3551 26.6555C23.3551 26.6555 20.7021 26.8853 22.0495 23.5117C22.0495 23.5117 21.9242 21.6212 23.3551 19.3442V19.3547Z" fill="#1A2C38"/>
<path d="M23.658 29.5906C23.658 29.5906 17.9239 31.3244 21.0677 19.1772C21.0677 19.1772 15.3127 32.1808 23.658 29.5906Z" fill="#1A2C38"/>
<path d="M28.6296 13.9339C28.6296 13.9339 31.7839 13.5996 33.8102 14.8739C33.8102 14.8739 31.4079 14.2159 30.4888 14.383C29.5696 14.5501 27.5016 15.0828 28.6192 13.9339H28.6296Z" fill="#1A2C38"/>
<path d="M31.1155 15.0411C31.1155 15.0411 32.8075 14.8009 33.664 15.3962C33.664 15.3962 34.0295 15.8662 31.1155 15.0411Z" fill="#1A2C38"/>
<path d="M35.0322 46.2183C35.0322 46.2183 31.6481 51.5033 30.5723 57.9998H22.6031C22.6031 57.9998 11.3229 50.1454 23.658 56.0467C25.0576 56.7151 27.6374 54.2502 29.6532 55.3991C29.6532 55.3991 31.4079 50.0514 35.0322 46.2287V46.2183Z" fill="#1A2C38"/>
<path d="M11.7302 44.3384C11.7302 44.3384 12.5031 48.6625 16.1065 48.7147C20.2844 48.7774 23.3551 53.8639 23.3551 53.8639C23.3551 53.8639 19.1668 50.0934 15.4067 49.9158C11.6466 49.7383 11.7302 44.3384 11.7302 44.3384Z" fill="#1A2C38"/>
<path d="M35.3455 53.2579C35.3455 53.2579 43.1999 52.5895 44.307 46.7405C44.307 46.7405 44.7353 49.9888 42.3957 52.6939C42.3957 52.6939 42.9074 55.1902 41.6019 56.6942C41.6019 56.6942 41.7168 54.0413 40.2023 53.2579C40.2023 53.2579 37.4867 53.9682 35.3455 53.2579Z" fill="#1A2C38"/>
<path d="M49.4249 47.3777C49.4249 47.3777 51.5661 52.7985 50.1352 56.6943C50.1352 56.6943 53.655 55.9736 49.4249 47.3777Z" fill="#1A2C38"/>
<path d="M36.4213 47.7537C36.4213 47.7537 38.2805 44.7039 40.735 44.3279L39.5652 46.0408L36.4213 47.7537Z" fill="#1A2C38"/>
<path d="M23.9 48.3L23.47 48.82C22.94 49.46 23.41 50.72 24.52 51.64C25.63 52.56 26.95 52.78 27.48 52.14L27.91 51.62L23.9 48.3Z" fill="#FFC200"/>
<path d="M27.9027 51.6166C28.431 50.9785 27.9626 49.7189 26.8565 48.8032C25.7504 47.8875 24.4255 47.6625 23.8972 48.3006C23.3689 48.9387 23.8373 50.1984 24.9434 51.1141C26.0495 52.0297 27.3744 52.2548 27.9027 51.6166Z" fill="#FF7F00"/>
</g>
<path fill-rule="evenodd" clip-rule="evenodd" d="M6.49771 79C6.98969 79 7.48602 79.213 7.49037 79.6913C7.49037 80.1043 7.24656 80.2696 6.99839 80.2696C6.75023 80.2696 6.73281 80.1435 6.73281 80.1435C6.73281 80.1435 7.02452 79.9261 7.02452 79.7174C7.02452 79.6087 6.94179 79.313 6.489 79.3174C5.8577 79.3174 5.5181 79.6174 5.5181 80.1522C5.5181 80.7652 7.35105 80.9739 7.3554 81.7652C7.3554 82.613 6.47594 82.9957 5.69225 83C5.283 83 5.01306 82.7609 5.00871 82.3783C5.00871 81.9261 5.22204 81.4652 5.75756 81.4652C5.88382 81.4565 5.98831 81.5522 5.99702 81.6783C5.99702 81.6783 5.99702 81.6826 5.99702 81.687C5.99702 81.687 5.45715 81.8391 5.4615 82.3783C5.4615 82.4783 5.56599 82.6609 5.81851 82.6565C6.07103 82.6522 6.82424 82.4739 6.81989 81.8087C6.81989 81.1913 5.00435 81.1087 5 80.1478C5 79.0652 6.08845 79.0087 6.49771 79.0087V79ZM10.747 79.6C10.8123 79.5696 11.2129 79.4913 11.1955 79.813C11.1824 80.1348 10.9386 80.6913 10.9037 80.9348C11.2303 80.7696 11.6918 80.2087 11.6918 80.2087C11.6918 80.2087 12.0183 80.2522 11.9182 80.4522C11.818 80.6522 11.1519 81.1435 11.1519 81.1435C11.1519 81.1435 11.3043 82.5696 12.1707 82.5696C12.6453 82.5696 12.8499 82.3609 12.937 82.287C12.9587 82.2696 12.9762 82.2652 12.9849 82.2783C13.0197 82.387 12.9936 82.5043 12.9152 82.5913C12.8194 82.6957 12.5974 82.8217 12.1533 82.8261C11.3653 82.8261 10.9255 82.1957 10.8123 81.2609C10.7252 81.5348 10.7339 81.9826 10.7209 82.2C10.6948 82.2435 10.2507 82.4174 10.2158 82.1174C10.2158 82.0913 10.2158 82.0696 10.2158 82.0435C10.1331 82.1609 10.0199 82.2826 9.91108 82.2826C9.71951 82.2826 9.63679 82.1217 9.60196 82.0391C9.57584 82.0696 9.3625 82.287 9.08821 82.287C8.92277 82.2913 8.77474 82.1957 8.70943 82.0435C8.57011 82.1435 8.32195 82.2913 8.03895 82.2913C7.73418 82.2913 7.66017 82.1087 7.66017 81.9565C7.66017 81.713 7.84303 80.987 7.84303 80.987C7.84303 80.987 7.48602 81.1304 7.36411 81.1348C7.19431 81.1348 7.11159 80.8217 7.11159 80.813C7.11159 80.8087 7.11159 80.8 7.1203 80.8C7.22044 80.7609 7.94317 80.513 7.94317 80.513C7.94317 80.513 8.07813 79.9826 8.09555 79.913C8.11296 79.8435 8.2131 79.7 8.33065 79.6565C8.41773 79.6217 8.50916 79.6 8.60059 79.5913C8.63107 79.5913 8.65284 79.6 8.65284 79.6174C8.65284 79.6348 8.47433 80.4087 8.47433 80.4087C8.47433 80.4087 8.84876 80.3217 8.98808 80.3217C9.09692 80.3217 9.15352 80.387 9.09257 80.4696C9.03162 80.5522 8.96196 80.6478 8.92712 80.6913C8.88794 80.7348 8.86182 80.7435 8.77039 80.7609C8.64413 80.787 8.36113 80.8565 8.36113 80.8565C8.36113 80.8565 8.13473 81.6783 8.13909 81.8174C8.13909 81.8957 8.16521 81.987 8.26099 81.987C8.35678 81.987 8.53964 81.8739 8.67025 81.7913C8.69202 81.1522 9.18835 80.7261 9.57584 80.7261C9.7021 80.7261 9.65421 80.8478 9.79788 80.8478H9.88931C9.94591 80.8478 10.0069 80.8522 10.0069 80.9957C10.0069 81.1957 9.89367 81.5261 9.89367 81.7348C9.89367 81.8826 9.91544 81.987 9.97204 81.987C10.0678 81.987 10.1767 81.8478 10.255 81.7261C10.3813 81.0304 10.734 79.7609 10.734 79.6174L10.747 79.6ZM12.5016 80.7C12.7672 80.6783 12.9326 80.8217 12.9631 80.9C12.9936 80.9783 12.9892 81.1609 12.9152 81.2913C12.6845 81.7044 12.1097 81.6304 12.1097 81.6304C12.1097 81.6304 12.0444 81.9565 12.3405 81.9565C12.593 81.9565 12.7062 81.8304 12.8151 81.7261C12.8586 81.7261 12.9936 81.8652 12.9326 81.9609C12.8847 82.0348 12.6191 82.2565 12.2795 82.2609C11.7397 82.2609 11.6047 81.8 11.6744 81.4696C11.7658 81.0609 12.1751 80.7217 12.5016 80.6957V80.7ZM9.6455 80.987C9.32332 80.987 8.82699 81.9696 9.20577 81.9652C9.61938 81.9652 9.6455 81.1826 9.6455 81.0043V80.987ZM12.6409 80.8913C12.4232 80.9 12.1751 81.3174 12.1533 81.5C12.4798 81.513 12.654 81.1957 12.6757 81.0696C12.6888 80.9739 12.6932 80.887 12.6409 80.887V80.8913Z" fill="#557086"/>
<path d="M56.1444 79.3778L56.6412 80.278L57.6518 80.4733C57.7792 80.4988 57.8302 80.6559 57.741 80.7494L57.0361 81.5009L57.1635 82.5243C57.1805 82.6559 57.0446 82.7494 56.93 82.6942L56 82.2568L55.0701 82.6942C54.9512 82.7494 54.8196 82.6517 54.8366 82.5243L54.9639 81.5009L54.2591 80.7494C54.1699 80.6559 54.2208 80.4988 54.3482 80.4733L55.3588 80.278L55.8557 79.3778C55.9194 79.2632 56.085 79.2632 56.1444 79.3778Z" fill="#FFC200"/>
<path d="M56 79.2929C56.0552 79.2929 56.1147 79.3226 56.1444 79.3778L56.6412 80.278L57.6518 80.4733C57.7792 80.4988 57.8302 80.6559 57.741 80.7494L57.0361 81.5009L57.1635 82.5243C57.1763 82.6262 57.0955 82.7111 56.9979 82.7111C56.9766 82.7111 56.9512 82.7069 56.9257 82.6942L55.9957 82.2568L55.0658 82.6942C55.0403 82.7069 55.0191 82.7111 54.9936 82.7111C54.9002 82.7111 54.8153 82.6262 54.828 82.5243L54.9554 81.5009L54.2505 80.7494C54.1613 80.6559 54.2123 80.4988 54.3397 80.4733L55.3503 80.278L55.8471 79.3778C55.8768 79.3226 55.9363 79.2929 55.9915 79.2929M56 79.0806C55.8641 79.0806 55.7367 79.157 55.6688 79.2759L55.2187 80.0912L54.3057 80.2653C54.1698 80.2908 54.0594 80.3884 54.017 80.5201C53.9745 80.6517 54.0085 80.7961 54.1019 80.8937L54.7388 81.5731L54.6242 82.4946C54.6115 82.6007 54.6454 82.7111 54.7134 82.7918C54.7856 82.8725 54.8875 82.9192 54.9979 82.9192C55.0531 82.9192 55.1083 82.9065 55.1592 82.881L56 82.4861L56.8408 82.881C56.8917 82.9065 56.9469 82.9192 57.0021 82.9192C57.1125 82.9192 57.2144 82.8725 57.2866 82.7918C57.3588 82.7111 57.3928 82.6007 57.3758 82.4946L57.2611 81.5731L57.8981 80.8937C57.9915 80.7918 58.0255 80.6474 57.983 80.5201C57.9405 80.3884 57.8301 80.2908 57.6943 80.2653L56.7813 80.0912L56.3312 79.2759C56.2633 79.157 56.1359 79.0806 56 79.0806Z" fill="#213743"/>
<path d="M56 79.8152V80.9744C56 81.0678 56.0892 81.1315 56.1784 81.106L57.2187 80.7706C57.2739 80.7536 57.2697 80.6729 57.2102 80.6602L56.5563 80.5413C56.4969 80.5286 56.4417 80.4903 56.4119 80.4351L56.085 79.7939C56.0637 79.7515 55.9958 79.7642 55.9958 79.8152H56Z" fill="#FFEBB8"/>
<path d="M56 81.4924V82.0699C56 82.1039 56.017 82.1294 56.0467 82.1464L56.7983 82.5073C56.8365 82.5243 56.8705 82.4818 56.845 82.4479L56.0934 81.4627C56.0637 81.4245 56 81.4457 56 81.4924Z" fill="#FF7F00"/>
<rect x="13" y="62" width="37" height="13" rx="6.5" fill="#2F4553"/>
<path d="M31.2002 70H30.1622V69.268H28.2482V68.464L29.7662 65.998H31.2002V68.362H31.6862V69.268H31.2002V70ZM30.1622 68.362V66.898L29.2502 68.362H30.1622ZM34.9215 70H33.9075L33.3495 69.124L32.7855 70H31.7775L32.7675 68.512L31.8375 67.102H32.8515L33.3495 67.888L33.8415 67.102H34.8555L33.9315 68.512L34.9215 70Z" fill="white"/>
<path d="M8.03 11H7.215L6.56 9.815H6.04V11H5.33V7.665H6.89C7.585 7.665 8.01 8.12 8.01 8.74C8.01 9.33 7.64 9.645 7.28 9.73L8.03 11ZM6.785 9.19C7.07 9.19 7.285 9.02 7.285 8.74C7.285 8.46 7.07 8.29 6.785 8.29H6.04V9.19H6.785ZM10.5152 11H9.88023V10.75C9.71523 10.945 9.43023 11.06 9.11523 11.06C8.73023 11.06 8.27523 10.8 8.27523 10.26C8.27523 9.695 8.73023 9.48 9.11523 9.48C9.43523 9.48 9.72023 9.585 9.88023 9.775V9.45C9.88023 9.205 9.67023 9.045 9.35023 9.045C9.09023 9.045 8.85023 9.14 8.64523 9.33L8.40523 8.905C8.70023 8.645 9.08023 8.525 9.46023 8.525C10.0102 8.525 10.5152 8.745 10.5152 9.44V11ZM9.37023 10.63C9.57523 10.63 9.77523 10.56 9.88023 10.42V10.12C9.77523 9.98 9.57523 9.91 9.37023 9.91C9.12023 9.91 8.91523 10.04 8.91523 10.275C8.91523 10.5 9.12023 10.63 9.37023 10.63ZM11.7801 11H11.1451V8.585H11.7801V8.915C11.9501 8.7 12.2501 8.525 12.5501 8.525V9.145C12.5051 9.135 12.4451 9.13 12.3751 9.13C12.1651 9.13 11.8851 9.25 11.7801 9.405V11ZM14.0818 11.06C13.3468 11.06 12.7918 10.565 12.7918 9.79C12.7918 9.09 13.3068 8.525 14.0418 8.525C14.7618 8.525 15.2518 9.065 15.2518 9.855V9.995H13.4568C13.4968 10.3 13.7418 10.555 14.1518 10.555C14.3568 10.555 14.6418 10.465 14.7968 10.315L15.0768 10.725C14.8368 10.945 14.4568 11.06 14.0818 11.06ZM14.6368 9.565C14.6218 9.335 14.4618 9.03 14.0418 9.03C13.6468 9.03 13.4768 9.325 13.4468 9.565H14.6368Z" fill="white"/>
<path d="M48.5726 11H48.1206L46.7286 9.096V11H46.2606V8.332H46.7406L48.1046 10.184V8.332H48.5726V11ZM49.9995 11.048C49.3875 11.048 49.0075 10.588 49.0075 10.032C49.0075 9.48 49.3875 9.02 49.9995 9.02C50.6195 9.02 50.9955 9.48 50.9955 10.032C50.9955 10.588 50.6195 11.048 49.9995 11.048ZM49.9995 10.676C50.3595 10.676 50.5595 10.376 50.5595 10.032C50.5595 9.692 50.3595 9.392 49.9995 9.392C49.6435 9.392 49.4435 9.692 49.4435 10.032C49.4435 10.376 49.6435 10.676 49.9995 10.676ZM51.6169 11.044C51.4649 11.044 51.3369 10.916 51.3369 10.764C51.3369 10.612 51.4649 10.484 51.6169 10.484C51.7689 10.484 51.8969 10.612 51.8969 10.764C51.8969 10.916 51.7689 11.044 51.6169 11.044ZM54.3527 11.048C53.8927 11.048 53.5767 10.892 53.3607 10.636L53.6287 10.316C53.8087 10.52 54.0487 10.632 54.3487 10.632C54.6847 10.632 54.8967 10.424 54.8967 10.164C54.8967 9.876 54.6887 9.688 54.3607 9.688C54.1327 9.688 53.9447 9.76 53.7767 9.92L53.4447 9.824V8.332H55.1927V8.744H53.9127V9.516C54.0407 9.388 54.2607 9.284 54.5167 9.284C54.9647 9.284 55.3687 9.6 55.3687 10.144C55.3687 10.7 54.9487 11.048 54.3527 11.048ZM56.7672 11.048C56.0192 11.048 55.6992 10.34 55.6992 9.668C55.6992 8.996 56.0192 8.292 56.7672 8.292C57.5152 8.292 57.8352 8.996 57.8352 9.668C57.8352 10.34 57.5152 11.048 56.7672 11.048ZM56.7672 10.632C57.2032 10.632 57.3592 10.176 57.3592 9.668C57.3592 9.16 57.2032 8.708 56.7672 8.708C56.3312 8.708 56.1752 9.16 56.1752 9.668C56.1752 10.176 56.3312 10.632 56.7672 10.632Z" fill="white"/>
<defs>
<clipPath id="clip0_26835_29213">
<rect width="63" height="88" fill="white"/>
</clipPath>
</defs>
</svg>
