<svg width="63" height="88" viewBox="0 0 63 88" fill="none" xmlns="http://www.w3.org/2000/svg">
<rect width="63" height="88" rx="4" fill="#FF003F"/>
<path d="M36.7008 13.5133L44.7992 3.48665C45.5586 2.54645 46.7024 2 47.911 2H58C59.6569 2 61 3.34314 61 5V83C61 84.6569 59.6569 86 58 86H5C3.34315 86 2 84.6569 2 83V18C2 16.3431 3.34315 15 5 15H33.589C34.7976 15 35.9414 14.4536 36.7008 13.5133Z" fill="#213743"/>
<rect x="5" y="18" width="53" height="40" rx="1" fill="#2F4553"/>
<g clip-path="url(#clip0_26835_29214)">
<path d="M6 18H8.85L10.09 18.42L11.36 18H38.54L39.92 18.57L41.7 18H57.01C57.56 18 58.01 18.45 58.01 19V57C58.01 57.55 57.56 58 57.01 58H8.94L7.77 57.76L6 58C5.45 58 5 57.55 5 57V19C5 18.45 5.45 18 6 18Z" fill="#047BFF"/>
<mask id="mask0_26835_29214" style="mask-type:luminance" maskUnits="userSpaceOnUse" x="5" y="18" width="53" height="40">
<path d="M6 18H8.85L10.55 18.26L11.36 18H38.54L41.35 18.12L41.69 18H57C57.55 18 58 18.45 58 19V57C58 57.55 57.55 58 57 58H8.94L7.4 57.75L6 58C5.45 58 5 57.55 5 57V19C5 18.45 5.45 18 6 18Z" fill="white"/>
</mask>
<g mask="url(#mask0_26835_29214)">
<path d="M59.01 24.47C61.2136 24.47 63 22.6836 63 20.48C63 18.2764 61.2136 16.49 59.01 16.49C56.8064 16.49 55.02 18.2764 55.02 20.48C55.02 22.6836 56.8064 24.47 59.01 24.47Z" fill="#036BDE"/>
<path d="M59.01 32.47C61.2136 32.47 63 30.6836 63 28.48C63 26.2764 61.2136 24.49 59.01 24.49C56.8064 24.49 55.02 26.2764 55.02 28.48C55.02 30.6836 56.8064 32.47 59.01 32.47Z" fill="#036BDE"/>
<path d="M59.01 40.46C61.2136 40.46 63 38.6736 63 36.47C63 34.2664 61.2136 32.48 59.01 32.48C56.8064 32.48 55.02 34.2664 55.02 36.47C55.02 38.6736 56.8064 40.46 59.01 40.46Z" fill="#036BDE"/>
<path d="M59.01 48.46C61.2136 48.46 63 46.6736 63 44.47C63 42.2664 61.2136 40.48 59.01 40.48C56.8064 40.48 55.02 42.2664 55.02 44.47C55.02 46.6736 56.8064 48.46 59.01 48.46Z" fill="#036BDE"/>
<path d="M59.01 56.46C61.2136 56.46 63 54.6736 63 52.47C63 50.2664 61.2136 48.48 59.01 48.48C56.8064 48.48 55.02 50.2664 55.02 52.47C55.02 54.6736 56.8064 56.46 59.01 56.46Z" fill="#036BDE"/>
<path d="M59.01 64.45C61.2136 64.45 63 62.6636 63 60.46C63 58.2564 61.2136 56.47 59.01 56.47C56.8064 56.47 55.02 58.2564 55.02 60.46C55.02 62.6636 56.8064 64.45 59.01 64.45Z" fill="#036BDE"/>
<path d="M51.15 24.47C53.3536 24.47 55.14 22.6836 55.14 20.48C55.14 18.2764 53.3536 16.49 51.15 16.49C48.9464 16.49 47.16 18.2764 47.16 20.48C47.16 22.6836 48.9464 24.47 51.15 24.47Z" fill="#036BDE"/>
<path d="M51.15 32.47C53.3536 32.47 55.14 30.6836 55.14 28.48C55.14 26.2764 53.3536 24.49 51.15 24.49C48.9464 24.49 47.16 26.2764 47.16 28.48C47.16 30.6836 48.9464 32.47 51.15 32.47Z" fill="#036BDE"/>
<path d="M51.15 40.46C53.3536 40.46 55.14 38.6736 55.14 36.47C55.14 34.2664 53.3536 32.48 51.15 32.48C48.9464 32.48 47.16 34.2664 47.16 36.47C47.16 38.6736 48.9464 40.46 51.15 40.46Z" fill="#036BDE"/>
<path d="M51.15 48.46C53.3536 48.46 55.14 46.6736 55.14 44.47C55.14 42.2664 53.3536 40.48 51.15 40.48C48.9464 40.48 47.16 42.2664 47.16 44.47C47.16 46.6736 48.9464 48.46 51.15 48.46Z" fill="#036BDE"/>
<path d="M51.15 56.46C53.3536 56.46 55.14 54.6736 55.14 52.47C55.14 50.2664 53.3536 48.48 51.15 48.48C48.9464 48.48 47.16 50.2664 47.16 52.47C47.16 54.6736 48.9464 56.46 51.15 56.46Z" fill="#036BDE"/>
<path d="M51.15 64.45C53.3536 64.45 55.14 62.6636 55.14 60.46C55.14 58.2564 53.3536 56.47 51.15 56.47C48.9464 56.47 47.16 58.2564 47.16 60.46C47.16 62.6636 48.9464 64.45 51.15 64.45Z" fill="#036BDE"/>
<path d="M43.29 24.47C45.4936 24.47 47.28 22.6836 47.28 20.48C47.28 18.2764 45.4936 16.49 43.29 16.49C41.0864 16.49 39.3 18.2764 39.3 20.48C39.3 22.6836 41.0864 24.47 43.29 24.47Z" fill="#036BDE"/>
<path d="M43.29 32.47C45.4936 32.47 47.28 30.6836 47.28 28.48C47.28 26.2764 45.4936 24.49 43.29 24.49C41.0864 24.49 39.3 26.2764 39.3 28.48C39.3 30.6836 41.0864 32.47 43.29 32.47Z" fill="#036BDE"/>
<path d="M43.29 40.46C45.4936 40.46 47.28 38.6736 47.28 36.47C47.28 34.2664 45.4936 32.48 43.29 32.48C41.0864 32.48 39.3 34.2664 39.3 36.47C39.3 38.6736 41.0864 40.46 43.29 40.46Z" fill="#036BDE"/>
<path d="M43.29 48.46C45.4936 48.46 47.28 46.6736 47.28 44.47C47.28 42.2664 45.4936 40.48 43.29 40.48C41.0864 40.48 39.3 42.2664 39.3 44.47C39.3 46.6736 41.0864 48.46 43.29 48.46Z" fill="#036BDE"/>
<path d="M43.29 56.46C45.4936 56.46 47.28 54.6736 47.28 52.47C47.28 50.2664 45.4936 48.48 43.29 48.48C41.0864 48.48 39.3 50.2664 39.3 52.47C39.3 54.6736 41.0864 56.46 43.29 56.46Z" fill="#036BDE"/>
<path d="M43.29 64.45C45.4936 64.45 47.28 62.6636 47.28 60.46C47.28 58.2564 45.4936 56.47 43.29 56.47C41.0864 56.47 39.3 58.2564 39.3 60.46C39.3 62.6636 41.0864 64.45 43.29 64.45Z" fill="#036BDE"/>
<path d="M35.43 24.47C37.6336 24.47 39.42 22.6836 39.42 20.48C39.42 18.2764 37.6336 16.49 35.43 16.49C33.2264 16.49 31.44 18.2764 31.44 20.48C31.44 22.6836 33.2264 24.47 35.43 24.47Z" fill="#036BDE"/>
<path d="M35.43 32.47C37.6336 32.47 39.42 30.6836 39.42 28.48C39.42 26.2764 37.6336 24.49 35.43 24.49C33.2264 24.49 31.44 26.2764 31.44 28.48C31.44 30.6836 33.2264 32.47 35.43 32.47Z" fill="#036BDE"/>
<path d="M35.43 40.46C37.6336 40.46 39.42 38.6736 39.42 36.47C39.42 34.2664 37.6336 32.48 35.43 32.48C33.2264 32.48 31.44 34.2664 31.44 36.47C31.44 38.6736 33.2264 40.46 35.43 40.46Z" fill="#036BDE"/>
<path d="M35.43 48.46C37.6336 48.46 39.42 46.6736 39.42 44.47C39.42 42.2664 37.6336 40.48 35.43 40.48C33.2264 40.48 31.44 42.2664 31.44 44.47C31.44 46.6736 33.2264 48.46 35.43 48.46Z" fill="#036BDE"/>
<path d="M35.43 56.46C37.6336 56.46 39.42 54.6736 39.42 52.47C39.42 50.2664 37.6336 48.48 35.43 48.48C33.2264 48.48 31.44 50.2664 31.44 52.47C31.44 54.6736 33.2264 56.46 35.43 56.46Z" fill="#036BDE"/>
<path d="M35.43 64.45C37.6336 64.45 39.42 62.6636 39.42 60.46C39.42 58.2564 37.6336 56.47 35.43 56.47C33.2264 56.47 31.44 58.2564 31.44 60.46C31.44 62.6636 33.2264 64.45 35.43 64.45Z" fill="#036BDE"/>
<path d="M27.57 24.47C29.7736 24.47 31.56 22.6836 31.56 20.48C31.56 18.2764 29.7736 16.49 27.57 16.49C25.3664 16.49 23.58 18.2764 23.58 20.48C23.58 22.6836 25.3664 24.47 27.57 24.47Z" fill="#036BDE"/>
<path d="M27.57 32.47C29.7736 32.47 31.56 30.6836 31.56 28.48C31.56 26.2764 29.7736 24.49 27.57 24.49C25.3664 24.49 23.58 26.2764 23.58 28.48C23.58 30.6836 25.3664 32.47 27.57 32.47Z" fill="#036BDE"/>
<path d="M27.57 40.46C29.7736 40.46 31.56 38.6736 31.56 36.47C31.56 34.2664 29.7736 32.48 27.57 32.48C25.3664 32.48 23.58 34.2664 23.58 36.47C23.58 38.6736 25.3664 40.46 27.57 40.46Z" fill="#036BDE"/>
<path d="M27.57 48.46C29.7736 48.46 31.56 46.6736 31.56 44.47C31.56 42.2664 29.7736 40.48 27.57 40.48C25.3664 40.48 23.58 42.2664 23.58 44.47C23.58 46.6736 25.3664 48.46 27.57 48.46Z" fill="#036BDE"/>
<path d="M27.57 56.46C29.7736 56.46 31.56 54.6736 31.56 52.47C31.56 50.2664 29.7736 48.48 27.57 48.48C25.3664 48.48 23.58 50.2664 23.58 52.47C23.58 54.6736 25.3664 56.46 27.57 56.46Z" fill="#036BDE"/>
<path d="M27.57 64.45C29.7736 64.45 31.56 62.6636 31.56 60.46C31.56 58.2564 29.7736 56.47 27.57 56.47C25.3664 56.47 23.58 58.2564 23.58 60.46C23.58 62.6636 25.3664 64.45 27.57 64.45Z" fill="#036BDE"/>
<path d="M19.71 24.47C21.9136 24.47 23.7 22.6836 23.7 20.48C23.7 18.2764 21.9136 16.49 19.71 16.49C17.5064 16.49 15.72 18.2764 15.72 20.48C15.72 22.6836 17.5064 24.47 19.71 24.47Z" fill="#036BDE"/>
<path d="M19.71 32.47C21.9136 32.47 23.7 30.6836 23.7 28.48C23.7 26.2764 21.9136 24.49 19.71 24.49C17.5064 24.49 15.72 26.2764 15.72 28.48C15.72 30.6836 17.5064 32.47 19.71 32.47Z" fill="#036BDE"/>
<path d="M19.71 40.46C21.9136 40.46 23.7 38.6736 23.7 36.47C23.7 34.2664 21.9136 32.48 19.71 32.48C17.5064 32.48 15.72 34.2664 15.72 36.47C15.72 38.6736 17.5064 40.46 19.71 40.46Z" fill="#036BDE"/>
<path d="M19.71 48.46C21.9136 48.46 23.7 46.6736 23.7 44.47C23.7 42.2664 21.9136 40.48 19.71 40.48C17.5064 40.48 15.72 42.2664 15.72 44.47C15.72 46.6736 17.5064 48.46 19.71 48.46Z" fill="#036BDE"/>
<path d="M19.71 56.46C21.9136 56.46 23.7 54.6736 23.7 52.47C23.7 50.2664 21.9136 48.48 19.71 48.48C17.5064 48.48 15.72 50.2664 15.72 52.47C15.72 54.6736 17.5064 56.46 19.71 56.46Z" fill="#036BDE"/>
<path d="M19.71 64.45C21.9136 64.45 23.7 62.6636 23.7 60.46C23.7 58.2564 21.9136 56.47 19.71 56.47C17.5064 56.47 15.72 58.2564 15.72 60.46C15.72 62.6636 17.5064 64.45 19.71 64.45Z" fill="#036BDE"/>
<path d="M11.85 24.47C14.0536 24.47 15.84 22.6836 15.84 20.48C15.84 18.2764 14.0536 16.49 11.85 16.49C9.64637 16.49 7.85999 18.2764 7.85999 20.48C7.85999 22.6836 9.64637 24.47 11.85 24.47Z" fill="#036BDE"/>
<path d="M11.85 32.47C14.0536 32.47 15.84 30.6836 15.84 28.48C15.84 26.2764 14.0536 24.49 11.85 24.49C9.64637 24.49 7.85999 26.2764 7.85999 28.48C7.85999 30.6836 9.64637 32.47 11.85 32.47Z" fill="#036BDE"/>
<path d="M11.85 40.46C14.0536 40.46 15.84 38.6736 15.84 36.47C15.84 34.2664 14.0536 32.48 11.85 32.48C9.64637 32.48 7.85999 34.2664 7.85999 36.47C7.85999 38.6736 9.64637 40.46 11.85 40.46Z" fill="#036BDE"/>
<path d="M11.85 48.46C14.0536 48.46 15.84 46.6736 15.84 44.47C15.84 42.2664 14.0536 40.48 11.85 40.48C9.64637 40.48 7.85999 42.2664 7.85999 44.47C7.85999 46.6736 9.64637 48.46 11.85 48.46Z" fill="#036BDE"/>
<path d="M11.85 56.46C14.0536 56.46 15.84 54.6736 15.84 52.47C15.84 50.2664 14.0536 48.48 11.85 48.48C9.64637 48.48 7.85999 50.2664 7.85999 52.47C7.85999 54.6736 9.64637 56.46 11.85 56.46Z" fill="#036BDE"/>
<path d="M11.85 64.45C14.0536 64.45 15.84 62.6636 15.84 60.46C15.84 58.2564 14.0536 56.47 11.85 56.47C9.64637 56.47 7.85999 58.2564 7.85999 60.46C7.85999 62.6636 9.64637 64.45 11.85 64.45Z" fill="#036BDE"/>
<path d="M3.99 24.47C6.19362 24.47 7.98 22.6836 7.98 20.48C7.98 18.2764 6.19362 16.49 3.99 16.49C1.78638 16.49 0 18.2764 0 20.48C0 22.6836 1.78638 24.47 3.99 24.47Z" fill="#036BDE"/>
<path d="M3.99 32.47C6.19362 32.47 7.98 30.6836 7.98 28.48C7.98 26.2764 6.19362 24.49 3.99 24.49C1.78638 24.49 0 26.2764 0 28.48C0 30.6836 1.78638 32.47 3.99 32.47Z" fill="#036BDE"/>
<path d="M3.99 40.46C6.19362 40.46 7.98 38.6736 7.98 36.47C7.98 34.2664 6.19362 32.48 3.99 32.48C1.78638 32.48 0 34.2664 0 36.47C0 38.6736 1.78638 40.46 3.99 40.46Z" fill="#036BDE"/>
<path d="M3.99 48.46C6.19362 48.46 7.98 46.6736 7.98 44.47C7.98 42.2664 6.19362 40.48 3.99 40.48C1.78638 40.48 0 42.2664 0 44.47C0 46.6736 1.78638 48.46 3.99 48.46Z" fill="#036BDE"/>
<path d="M3.99 56.46C6.19362 56.46 7.98 54.6736 7.98 52.47C7.98 50.2664 6.19362 48.48 3.99 48.48C1.78638 48.48 0 50.2664 0 52.47C0 54.6736 1.78638 56.46 3.99 56.46Z" fill="#036BDE"/>
<path d="M3.99 64.45C6.19362 64.45 7.98 62.6636 7.98 60.46C7.98 58.2564 6.19362 56.47 3.99 56.47C1.78638 56.47 0 58.2564 0 60.46C0 62.6636 1.78638 64.45 3.99 64.45Z" fill="#036BDE"/>
</g>
<path d="M11.46 49.23C11.28 48.88 11.09 48.28 11.11 47.8C8.43 45.74 6.84 43.02 6.84 39.64C6.84 37.72 7.35 35.76 8.29 33.88C8.01 29.01 7.86 22.14 8.85 18H17.56C19.29 20 20.68 22.27 21.26 23.27C23.53 22.54 25.97 22.12 28.51 22.12C31.05 22.12 32.56 22.54 34.83 23.27C35.41 22.27 36.8 20 38.53 18H48.17C49.15 22.15 49.01 29.01 48.73 33.88C49.66 35.76 50.18 37.72 50.18 39.64C50.18 43.02 48.59 45.74 45.9 47.8C45.78 48.75 45.5 49.64 45.07 50.45C47.61 52.55 49.52 55.13 50.56 58H6C7.04 55.13 8.93 51.33 11.46 49.23Z" fill="#1A2C38"/>
<path d="M8.94 57.9999H54.06C51.62 49.9299 42.45 43.9399 31.5 43.9399C20.55 43.9399 11.38 49.9399 8.94 57.9999Z" fill="#FFC201"/>
<path d="M49.18 45.84C49.18 52.8 41.26 56.45 31.5 56.45C21.74 56.45 13.82 52.8 13.82 45.84C13.82 38.88 21.74 31.24 31.5 31.24C41.26 31.24 49.18 38.88 49.18 45.84Z" fill="#E9113C"/>
<path d="M28.97 49.2C27.7 50.01 26.81 51.4 26.72 52.91C26.6 54.92 27.7 56.67 29.36 57.5C30.01 57.82 30.77 57.31 30.77 56.58V56.02H32.23V56.58C32.23 57.31 33 57.82 33.66 57.49C35.13 56.75 36.16 55.28 36.28 53.54C36.52 50.05 32.53 46.93 28.98 49.2H28.97Z" fill="white"/>
<path d="M31.5 56.9399C32.472 56.9399 33.26 56.1519 33.26 55.1799C33.26 54.2079 32.472 53.4199 31.5 53.4199C30.528 53.4199 29.74 54.2079 29.74 55.1799C29.74 56.1519 30.528 56.9399 31.5 56.9399Z" fill="#1A2C38"/>
<path d="M38.54 22.64C38.54 22.64 44.49 11.67 49.26 13.21C54.03 14.75 51.53 38.62 51.53 38.62L38.54 22.64Z" fill="#FFC201"/>
<path d="M24.46 22.64C24.46 22.64 18.51 11.67 13.74 13.21C8.97002 14.75 11.47 38.62 11.47 38.62L24.46 22.64Z" fill="#FFC201"/>
<path d="M48.03 18C50.64 18 49.28 30.82 49.28 30.82L42.41 27.21C42.41 27.21 46.37 18 48.03 18Z" fill="#FF7F00"/>
<path d="M14.97 18C12.36 18 13.72 30.82 13.72 30.82L20.59 27.21C20.59 27.21 16.63 18 14.97 18Z" fill="#FF7F00"/>
<path d="M53.43 38.68C53.43 47.13 43.61 51.56 31.5 51.56C19.39 51.56 9.57001 47.13 9.57001 38.68C9.57001 30.23 19.39 20.96 31.5 20.96C43.61 20.96 53.43 30.23 53.43 38.68Z" fill="#FFC201"/>
<path d="M42.67 42.6199C45.7793 42.6199 48.3 40.0992 48.3 36.9899C48.3 33.8805 45.7793 31.3599 42.67 31.3599C39.5606 31.3599 37.04 33.8805 37.04 36.9899C37.04 40.0992 39.5606 42.6199 42.67 42.6199Z" fill="white"/>
<path d="M20.33 42.6199C23.4394 42.6199 25.96 40.0992 25.96 36.9899C25.96 33.8805 23.4394 31.3599 20.33 31.3599C17.2206 31.3599 14.7 33.8805 14.7 36.9899C14.7 40.0992 17.2206 42.6199 20.33 42.6199Z" fill="white"/>
<path d="M20.33 41.8199C18.81 41.8199 17.58 39.6599 17.58 36.9999C17.58 34.3399 18.82 32.1799 20.33 32.1799C21.84 32.1799 23.08 34.3399 23.08 36.9999C23.08 39.6599 21.84 41.8199 20.33 41.8199Z" fill="#1A2C38"/>
<path d="M42.67 41.8199C41.15 41.8199 39.92 39.6599 39.92 36.9999C39.92 34.3399 41.16 32.1799 42.67 32.1799C44.18 32.1799 45.42 34.3399 45.42 36.9999C45.42 39.6599 44.18 41.8199 42.67 41.8199Z" fill="#1A2C38"/>
<path d="M34.31 46.71C33.51 46.71 32.83 46.48 32.27 46.04C30.89 44.93 30.88 42.86 30.88 42.77C30.88 42.49 31.1 42.27 31.38 42.27C31.66 42.27 31.88 42.49 31.88 42.77C31.88 42.79 31.9 44.45 32.91 45.26C33.46 45.7 34.23 45.82 35.2 45.61C35.47 45.55 35.74 45.72 35.79 45.99C35.85 46.26 35.68 46.53 35.41 46.58C35.02 46.66 34.66 46.71 34.31 46.71Z" fill="#FF7F00"/>
<path d="M28.69 46.71C28.35 46.71 27.98 46.67 27.59 46.58C27.32 46.52 27.15 46.26 27.21 45.99C27.27 45.72 27.54 45.55 27.8 45.61C28.78 45.82 29.55 45.7 30.09 45.26C31.1 44.45 31.12 42.78 31.12 42.77C31.12 42.49 31.34 42.27 31.62 42.27C31.9 42.27 32.12 42.49 32.12 42.77C32.12 42.86 32.1 44.93 30.73 46.04C30.17 46.49 29.49 46.71 28.69 46.71Z" fill="#FF7F00"/>
<path d="M33.89 41.7799C33.89 40.7199 29.1 40.7199 29.1 41.7799C29.14 42.7399 30.17 43.8699 31.44 43.9399C31.44 43.9399 31.48 43.9399 31.5 43.9399C31.52 43.9399 31.54 43.9399 31.56 43.9399C32.83 43.8699 33.85 42.7299 33.9 41.7799H33.89Z" fill="#FF7F00"/>
<path d="M40.88 38.23C41.6422 38.23 42.26 37.6121 42.26 36.85C42.26 36.0878 41.6422 35.47 40.88 35.47C40.1178 35.47 39.5 36.0878 39.5 36.85C39.5 37.6121 40.1178 38.23 40.88 38.23Z" fill="white"/>
<path d="M18.6 38.23C19.3622 38.23 19.98 37.6121 19.98 36.85C19.98 36.0878 19.3622 35.47 18.6 35.47C17.8379 35.47 17.22 36.0878 17.22 36.85C17.22 37.6121 17.8379 38.23 18.6 38.23Z" fill="white"/>
<path d="M49.84 38.6199C49.84 38.6199 49.36 48.6499 43.02 57.9999H57.05C57.36 57.9999 57.69 57.8499 57.85 57.5799C58.67 56.1999 60.8 51.2299 60.8 38.6299H49.84V38.6199Z" fill="#FFC201"/>
<path d="M55.3801 42.5199C59.0141 42.5199 61.96 39.5739 61.96 35.9399C61.96 32.3058 59.0141 29.3599 55.3801 29.3599C51.746 29.3599 48.8 32.3058 48.8 35.9399C48.8 39.5739 51.746 42.5199 55.3801 42.5199Z" fill="#FFC201"/>
<path d="M53.69 40.2999C55.7997 40.2999 57.51 38.5896 57.51 36.4799C57.51 34.3702 55.7997 32.6599 53.69 32.6599C51.5803 32.6599 49.87 34.3702 49.87 36.4799C49.87 38.5896 51.5803 40.2999 53.69 40.2999Z" fill="#FF7F00"/>
<path d="M49.7 36.1298C50.9537 36.1298 51.97 35.1135 51.97 33.8598C51.97 32.6062 50.9537 31.5898 49.7 31.5898C48.4463 31.5898 47.43 32.6062 47.43 33.8598C47.43 35.1135 48.4463 36.1298 49.7 36.1298Z" fill="#FFC201"/>
<path d="M53.66 36.1298C54.9137 36.1298 55.93 35.1135 55.93 33.8598C55.93 32.6062 54.9137 31.5898 53.66 31.5898C52.4063 31.5898 51.39 32.6062 51.39 33.8598C51.39 35.1135 52.4063 36.1298 53.66 36.1298Z" fill="#FFC201"/>
<path d="M57.63 36.1298C58.8837 36.1298 59.9 35.1135 59.9 33.8598C59.9 32.6062 58.8837 31.5898 57.63 31.5898C56.3764 31.5898 55.36 32.6062 55.36 33.8598C55.36 35.1135 56.3764 36.1298 57.63 36.1298Z" fill="#FFC201"/>
</g>
<path fill-rule="evenodd" clip-rule="evenodd" d="M6.49771 79C6.98969 79 7.48602 79.213 7.49037 79.6913C7.49037 80.1043 7.24656 80.2696 6.99839 80.2696C6.75023 80.2696 6.73281 80.1435 6.73281 80.1435C6.73281 80.1435 7.02452 79.9261 7.02452 79.7174C7.02452 79.6087 6.94179 79.313 6.489 79.3174C5.8577 79.3174 5.5181 79.6174 5.5181 80.1522C5.5181 80.7652 7.35105 80.9739 7.3554 81.7652C7.3554 82.613 6.47594 82.9957 5.69225 83C5.283 83 5.01306 82.7609 5.00871 82.3783C5.00871 81.9261 5.22204 81.4652 5.75756 81.4652C5.88382 81.4565 5.98831 81.5522 5.99702 81.6783C5.99702 81.6783 5.99702 81.6826 5.99702 81.687C5.99702 81.687 5.45715 81.8391 5.4615 82.3783C5.4615 82.4783 5.56599 82.6609 5.81851 82.6565C6.07103 82.6522 6.82424 82.4739 6.81989 81.8087C6.81989 81.1913 5.00435 81.1087 5 80.1478C5 79.0652 6.08845 79.0087 6.49771 79.0087V79ZM10.747 79.6C10.8123 79.5696 11.2129 79.4913 11.1955 79.813C11.1824 80.1348 10.9386 80.6913 10.9037 80.9348C11.2303 80.7696 11.6918 80.2087 11.6918 80.2087C11.6918 80.2087 12.0183 80.2522 11.9182 80.4522C11.818 80.6522 11.1519 81.1435 11.1519 81.1435C11.1519 81.1435 11.3043 82.5696 12.1707 82.5696C12.6453 82.5696 12.8499 82.3609 12.937 82.287C12.9587 82.2696 12.9762 82.2652 12.9849 82.2783C13.0197 82.387 12.9936 82.5043 12.9152 82.5913C12.8194 82.6957 12.5974 82.8217 12.1533 82.8261C11.3653 82.8261 10.9255 82.1957 10.8123 81.2609C10.7252 81.5348 10.7339 81.9826 10.7209 82.2C10.6948 82.2435 10.2507 82.4174 10.2158 82.1174C10.2158 82.0913 10.2158 82.0696 10.2158 82.0435C10.1331 82.1609 10.0199 82.2826 9.91108 82.2826C9.71951 82.2826 9.63679 82.1217 9.60196 82.0391C9.57584 82.0696 9.3625 82.287 9.08821 82.287C8.92277 82.2913 8.77474 82.1957 8.70943 82.0435C8.57011 82.1435 8.32195 82.2913 8.03895 82.2913C7.73418 82.2913 7.66017 82.1087 7.66017 81.9565C7.66017 81.713 7.84303 80.987 7.84303 80.987C7.84303 80.987 7.48602 81.1304 7.36411 81.1348C7.19431 81.1348 7.11159 80.8217 7.11159 80.813C7.11159 80.8087 7.11159 80.8 7.1203 80.8C7.22044 80.7609 7.94317 80.513 7.94317 80.513C7.94317 80.513 8.07813 79.9826 8.09555 79.913C8.11296 79.8435 8.2131 79.7 8.33065 79.6565C8.41773 79.6217 8.50916 79.6 8.60059 79.5913C8.63107 79.5913 8.65284 79.6 8.65284 79.6174C8.65284 79.6348 8.47433 80.4087 8.47433 80.4087C8.47433 80.4087 8.84876 80.3217 8.98808 80.3217C9.09692 80.3217 9.15352 80.387 9.09257 80.4696C9.03162 80.5522 8.96196 80.6478 8.92712 80.6913C8.88794 80.7348 8.86182 80.7435 8.77039 80.7609C8.64413 80.787 8.36113 80.8565 8.36113 80.8565C8.36113 80.8565 8.13473 81.6783 8.13909 81.8174C8.13909 81.8957 8.16521 81.987 8.26099 81.987C8.35678 81.987 8.53964 81.8739 8.67025 81.7913C8.69202 81.1522 9.18835 80.7261 9.57584 80.7261C9.7021 80.7261 9.65421 80.8478 9.79788 80.8478H9.88931C9.94591 80.8478 10.0069 80.8522 10.0069 80.9957C10.0069 81.1957 9.89367 81.5261 9.89367 81.7348C9.89367 81.8826 9.91544 81.987 9.97204 81.987C10.0678 81.987 10.1767 81.8478 10.255 81.7261C10.3813 81.0304 10.734 79.7609 10.734 79.6174L10.747 79.6ZM12.5016 80.7C12.7672 80.6783 12.9326 80.8217 12.9631 80.9C12.9936 80.9783 12.9892 81.1609 12.9152 81.2913C12.6845 81.7044 12.1097 81.6304 12.1097 81.6304C12.1097 81.6304 12.0444 81.9565 12.3405 81.9565C12.593 81.9565 12.7062 81.8304 12.8151 81.7261C12.8586 81.7261 12.9936 81.8652 12.9326 81.9609C12.8847 82.0348 12.6191 82.2565 12.2795 82.2609C11.7397 82.2609 11.6047 81.8 11.6744 81.4696C11.7658 81.0609 12.1751 80.7217 12.5016 80.6957V80.7ZM9.6455 80.987C9.32332 80.987 8.82699 81.9696 9.20577 81.9652C9.61938 81.9652 9.6455 81.1826 9.6455 81.0043V80.987ZM12.6409 80.8913C12.4232 80.9 12.1751 81.3174 12.1533 81.5C12.4798 81.513 12.654 81.1957 12.6757 81.0696C12.6888 80.9739 12.6932 80.887 12.6409 80.887V80.8913Z" fill="#557086"/>
<path d="M56.1444 79.3778L56.6412 80.278L57.6518 80.4733C57.7792 80.4988 57.8302 80.6559 57.741 80.7494L57.0361 81.5009L57.1635 82.5243C57.1805 82.6559 57.0446 82.7494 56.93 82.6942L56 82.2568L55.0701 82.6942C54.9512 82.7494 54.8196 82.6517 54.8366 82.5243L54.9639 81.5009L54.2591 80.7494C54.1699 80.6559 54.2208 80.4988 54.3482 80.4733L55.3588 80.278L55.8557 79.3778C55.9194 79.2632 56.085 79.2632 56.1444 79.3778Z" fill="#FFC200"/>
<path d="M56 79.2929C56.0552 79.2929 56.1147 79.3226 56.1444 79.3778L56.6412 80.278L57.6518 80.4733C57.7792 80.4988 57.8302 80.6559 57.741 80.7494L57.0361 81.5009L57.1635 82.5243C57.1763 82.6262 57.0955 82.7111 56.9979 82.7111C56.9766 82.7111 56.9512 82.7069 56.9257 82.6942L55.9957 82.2568L55.0658 82.6942C55.0403 82.7069 55.0191 82.7111 54.9936 82.7111C54.9002 82.7111 54.8153 82.6262 54.828 82.5243L54.9554 81.5009L54.2505 80.7494C54.1613 80.6559 54.2123 80.4988 54.3397 80.4733L55.3503 80.278L55.8471 79.3778C55.8768 79.3226 55.9363 79.2929 55.9915 79.2929M56 79.0806C55.8641 79.0806 55.7367 79.157 55.6688 79.2759L55.2187 80.0912L54.3057 80.2653C54.1698 80.2908 54.0594 80.3884 54.017 80.5201C53.9745 80.6517 54.0085 80.7961 54.1019 80.8937L54.7388 81.5731L54.6242 82.4946C54.6115 82.6007 54.6454 82.7111 54.7134 82.7918C54.7856 82.8725 54.8875 82.9192 54.9979 82.9192C55.0531 82.9192 55.1083 82.9065 55.1592 82.881L56 82.4861L56.8408 82.881C56.8917 82.9065 56.9469 82.9192 57.0021 82.9192C57.1125 82.9192 57.2144 82.8725 57.2866 82.7918C57.3588 82.7111 57.3928 82.6007 57.3758 82.4946L57.2611 81.5731L57.8981 80.8937C57.9915 80.7918 58.0255 80.6474 57.983 80.5201C57.9405 80.3884 57.8301 80.2908 57.6943 80.2653L56.7813 80.0912L56.3312 79.2759C56.2633 79.157 56.1359 79.0806 56 79.0806Z" fill="#213743"/>
<path d="M56 79.8152V80.9744C56 81.0678 56.0892 81.1315 56.1784 81.106L57.2187 80.7706C57.2739 80.7536 57.2697 80.6729 57.2102 80.6602L56.5563 80.5413C56.4969 80.5286 56.4417 80.4903 56.4119 80.4351L56.085 79.7939C56.0637 79.7515 55.9958 79.7642 55.9958 79.8152H56Z" fill="#FFEBB8"/>
<path d="M56 81.4924V82.0699C56 82.1039 56.017 82.1294 56.0467 82.1464L56.7983 82.5073C56.8365 82.5243 56.8705 82.4818 56.845 82.4479L56.0934 81.4627C56.0637 81.4245 56 81.4457 56 81.4924Z" fill="#FF7F00"/>
<rect x="13" y="62" width="37" height="13" rx="6.5" fill="#2F4553"/>
<path d="M29.9122 70.072C29.1442 70.072 28.5682 69.802 28.2562 69.442L28.7782 68.74C29.0662 69.022 29.5222 69.16 29.8702 69.16C30.3142 69.16 30.5422 68.992 30.5422 68.77C30.5422 68.542 30.3742 68.434 29.8282 68.434C29.6542 68.434 29.3482 68.434 29.2882 68.44V67.522C29.3662 67.528 29.6782 67.528 29.8282 67.528C30.2422 67.528 30.4762 67.426 30.4762 67.216C30.4762 66.964 30.1882 66.85 29.8042 66.85C29.4382 66.85 29.0902 66.982 28.8082 67.234L28.3102 66.586C28.6462 66.208 29.1742 65.938 29.9122 65.938C30.9322 65.938 31.5022 66.376 31.5022 67.036C31.5022 67.504 31.1002 67.858 30.6262 67.936C31.0522 67.978 31.5682 68.308 31.5682 68.884C31.5682 69.586 30.9082 70.072 29.9122 70.072ZM34.8775 70H33.8635L33.3055 69.124L32.7415 70H31.7335L32.7235 68.512L31.7935 67.102H32.8075L33.3055 67.888L33.7975 67.102H34.8115L33.8875 68.512L34.8775 70Z" fill="white"/>
<path d="M8.03 11H7.215L6.56 9.815H6.04V11H5.33V7.665H6.89C7.585 7.665 8.01 8.12 8.01 8.74C8.01 9.33 7.64 9.645 7.28 9.73L8.03 11ZM6.785 9.19C7.07 9.19 7.285 9.02 7.285 8.74C7.285 8.46 7.07 8.29 6.785 8.29H6.04V9.19H6.785ZM10.5152 11H9.88023V10.75C9.71523 10.945 9.43023 11.06 9.11523 11.06C8.73023 11.06 8.27523 10.8 8.27523 10.26C8.27523 9.695 8.73023 9.48 9.11523 9.48C9.43523 9.48 9.72023 9.585 9.88023 9.775V9.45C9.88023 9.205 9.67023 9.045 9.35023 9.045C9.09023 9.045 8.85023 9.14 8.64523 9.33L8.40523 8.905C8.70023 8.645 9.08023 8.525 9.46023 8.525C10.0102 8.525 10.5152 8.745 10.5152 9.44V11ZM9.37023 10.63C9.57523 10.63 9.77523 10.56 9.88023 10.42V10.12C9.77523 9.98 9.57523 9.91 9.37023 9.91C9.12023 9.91 8.91523 10.04 8.91523 10.275C8.91523 10.5 9.12023 10.63 9.37023 10.63ZM11.7801 11H11.1451V8.585H11.7801V8.915C11.9501 8.7 12.2501 8.525 12.5501 8.525V9.145C12.5051 9.135 12.4451 9.13 12.3751 9.13C12.1651 9.13 11.8851 9.25 11.7801 9.405V11ZM14.0818 11.06C13.3468 11.06 12.7918 10.565 12.7918 9.79C12.7918 9.09 13.3068 8.525 14.0418 8.525C14.7618 8.525 15.2518 9.065 15.2518 9.855V9.995H13.4568C13.4968 10.3 13.7418 10.555 14.1518 10.555C14.3568 10.555 14.6418 10.465 14.7968 10.315L15.0768 10.725C14.8368 10.945 14.4568 11.06 14.0818 11.06ZM14.6368 9.565C14.6218 9.335 14.4618 9.03 14.0418 9.03C13.6468 9.03 13.4768 9.325 13.4468 9.565H14.6368Z" fill="white"/>
<path d="M49.5179 11H49.0659L47.6739 9.096V11H47.2059V8.332H47.6859L49.0499 10.184V8.332H49.5179V11ZM50.9448 11.048C50.3328 11.048 49.9528 10.588 49.9528 10.032C49.9528 9.48 50.3328 9.02 50.9448 9.02C51.5648 9.02 51.9408 9.48 51.9408 10.032C51.9408 10.588 51.5648 11.048 50.9448 11.048ZM50.9448 10.676C51.3048 10.676 51.5048 10.376 51.5048 10.032C51.5048 9.692 51.3048 9.392 50.9448 9.392C50.5888 9.392 50.3888 9.692 50.3888 10.032C50.3888 10.376 50.5888 10.676 50.9448 10.676ZM52.5622 11.044C52.4102 11.044 52.2822 10.916 52.2822 10.764C52.2822 10.612 52.4102 10.484 52.5622 10.484C52.7142 10.484 52.8422 10.612 52.8422 10.764C52.8422 10.916 52.7142 11.044 52.5622 11.044ZM55.298 11.048C54.838 11.048 54.522 10.892 54.306 10.636L54.574 10.316C54.754 10.52 54.994 10.632 55.294 10.632C55.63 10.632 55.842 10.424 55.842 10.164C55.842 9.876 55.634 9.688 55.306 9.688C55.078 9.688 54.89 9.76 54.722 9.92L54.39 9.824V8.332H56.138V8.744H54.858V9.516C54.986 9.388 55.206 9.284 55.462 9.284C55.91 9.284 56.314 9.6 56.314 10.144C56.314 10.7 55.894 11.048 55.298 11.048ZM57.7165 11H57.2485V8.94L56.8125 9.392L56.5405 9.108L57.3085 8.332H57.7165V11Z" fill="white"/>
<defs>
<clipPath id="clip0_26835_29214">
<rect width="63" height="88" fill="white"/>
</clipPath>
</defs>
</svg>
