<svg width="63" height="88" viewBox="0 0 63 88" fill="none" xmlns="http://www.w3.org/2000/svg">
<rect width="63" height="88" rx="4" fill="#FF003F"/>
<path d="M36.7008 13.5133L44.7992 3.48665C45.5586 2.54645 46.7024 2 47.911 2H58C59.6569 2 61 3.34314 61 5V83C61 84.6569 59.6569 86 58 86H5C3.34315 86 2 84.6569 2 83V18C2 16.3431 3.34315 15 5 15H33.589C34.7976 15 35.9414 14.4536 36.7008 13.5133Z" fill="#213743"/>
<rect x="5" y="18" width="53" height="40" rx="1" fill="#2F4553"/>
<g clip-path="url(#clip0_26835_29215)">
<path d="M5 57V19C5 18.45 5.45 18 6 18H57C57.55 18 58 18.45 58 19V57C58 57.55 57.55 58 57 58H50.52L37.91 56.8L36.98 58H26.03L20.75 56.8L12.49 58H6.01C5.46 58 5.01 57.55 5.01 57H5Z" fill="#45A7FF"/>
<path d="M5 57V39.7C10.02 30.19 20 23.7 31.5 23.7C43 23.7 52.99 30.19 58 39.7V57C58 57.55 57.55 58 57 58H46.88L42.04 57.65L35.78 58H26.81L19.81 57.27L15.72 57.99H6C5.45 57.99 5 57.54 5 56.99V57Z" fill="#047BFF"/>
<path d="M32.0504 14.3828C32.9878 11.7267 33.3677 9.43942 32.899 9.274C32.4303 9.10857 31.2904 11.1277 30.353 13.7837C29.4156 16.4398 29.0356 18.7271 29.5043 18.8925C29.9731 19.058 31.1129 17.0389 32.0504 14.3828Z" fill="#FFC201"/>
<path d="M33.9529 15.0552C34.8903 12.3991 35.2702 10.1118 34.8015 9.94636C34.3328 9.78094 33.1929 11.8 32.2555 14.4561C31.3181 17.1122 30.9381 19.3995 31.4069 19.5649C31.8756 19.7303 33.0155 17.7113 33.9529 15.0552Z" fill="#FFC201"/>
<path d="M34.8018 9.94726L32.9063 9.27832L29.515 18.8874L31.4105 19.5564L34.8018 9.94726Z" fill="#FFC201"/>
<path d="M33.6581 14.957C34.2941 13.155 34.5985 11.6197 34.3381 11.5278C34.0777 11.4359 33.3511 12.8222 32.7151 14.6242C32.0791 16.4262 31.7747 17.9615 32.0351 18.0534C32.2955 18.1453 33.0221 16.759 33.6581 14.957Z" fill="#F87915"/>
<path d="M55.5961 51.4449C57.2121 49.1379 57.8254 46.7797 56.9659 46.1776C56.1064 45.5756 54.0997 46.9577 52.4837 49.2647C50.8678 51.5717 50.2545 53.9299 51.114 54.532C51.9734 55.134 53.9802 53.7518 55.5961 51.4449Z" fill="#FFC201"/>
<path d="M54.0384 50.3572C55.6543 48.0502 56.2676 45.692 55.4081 45.09C54.5487 44.488 52.5419 45.8701 50.926 48.1771C49.31 50.4841 48.6967 52.8423 49.5562 53.4443C50.4157 54.0463 52.4224 52.6642 54.0384 50.3572Z" fill="#FFC201"/>
<path d="M49.5561 53.4478L51.1123 54.5378L56.9585 46.1917L55.4023 45.1016L49.5561 53.4478Z" fill="#FFC201"/>
<path d="M53.1631 49.7522C54.2594 48.1871 54.7558 46.6435 54.2718 46.3044C53.7877 45.9654 52.5066 46.9593 51.4103 48.5245C50.314 50.0896 49.8176 51.6332 50.3016 51.9723C50.7856 52.3113 52.0667 51.3174 53.1631 49.7522Z" fill="#F87915"/>
<path d="M18.5195 50.3425C19.0095 48.4955 17.0267 46.3667 14.0907 45.5877C11.1548 44.8087 8.37741 45.6744 7.88734 47.5214C7.39728 49.3684 9.38008 51.4972 12.3161 52.2762C15.252 53.0553 18.0294 52.1895 18.5195 50.3425Z" fill="#FFC201"/>
<path d="M19.1075 48.1753L8.47543 45.3542L7.90097 47.5193L18.5331 50.3404L19.1075 48.1753Z" fill="#FFC201"/>
<path d="M19.1008 48.1652C19.5909 46.3182 17.608 44.1894 14.6721 43.4104C11.7361 42.6314 8.95874 43.4972 8.46867 45.3442C7.97861 47.1912 9.96141 49.32 12.8974 50.099C15.8334 50.878 18.6107 50.0122 19.1008 48.1652Z" fill="#FFC201"/>
<path d="M17.3571 47.4436C17.6389 46.3813 16.2966 45.1033 14.3588 44.5892C12.4211 44.075 10.6217 44.5194 10.3399 45.5817C10.058 46.644 11.4004 47.9219 13.3381 48.4361C15.2759 48.9502 17.0752 48.5059 17.3571 47.4436Z" fill="#F87915"/>
<path d="M34.7561 25.2768C34.7561 25.2768 42.3211 15.7972 48.3801 17.1281C54.4391 18.4706 51.2637 39.0875 51.2637 39.0875L34.7561 25.2768Z" fill="#FF859D"/>
<path d="M46.4655 21.2725C50.3647 21.2725 48.3334 32.3514 48.3334 32.3514L38.0833 29.2344C38.0833 29.2344 43.9905 21.2725 46.4655 21.2725Z" fill="#E93A5D"/>
<path d="M28.1018 25.2768L11.5942 39.0876C11.5942 39.0876 11.5709 38.9008 11.5125 38.5739C11.1856 36.169 9.93649 25.989 11.6409 20.5487C12.2013 18.7275 13.1002 17.4433 14.4661 17.1398C20.5251 15.8089 28.0901 25.2885 28.0901 25.2885L28.1018 25.2768Z" fill="#FF859D"/>
<path d="M16.3924 21.2725C12.4932 21.2725 14.5245 32.3514 14.5245 32.3514L24.7746 29.2344C24.7746 29.2344 18.8674 21.2725 16.3924 21.2725Z" fill="#E93A5D"/>
<path d="M18.4237 57.9999H14.3961V38.7839H26.5257L18.4237 57.9999Z" fill="#E93A5D"/>
<path d="M14.3961 50.2014V53.2134C14.3961 54.591 17.6532 57.9999 18.4237 57.9999H26.5257V53.5753L14.3961 50.2014Z" fill="#071824"/>
<path d="M48.4618 57.9999H44.4342L36.3322 38.7839H48.4618V57.9999Z" fill="#E93A5D"/>
<path d="M48.4618 50.2014V53.2134C48.4618 54.591 45.2047 57.9999 44.4342 57.9999H36.3322V53.5753L48.4618 50.2014Z" fill="#071824"/>
<path d="M30.3899 21.5059H32.468C42.8932 21.5059 51.3571 29.9698 51.3571 40.3949V41.5624C51.3571 50.2014 44.3408 57.2177 35.7018 57.2177H27.1445C18.5054 57.2177 11.4892 50.2014 11.4892 41.5624V40.3949C11.4892 29.9698 19.9531 21.5059 30.3783 21.5059H30.3899Z" fill="white"/>
<path d="M30.3899 20.5369H32.468C42.8932 20.5369 51.3571 29.0008 51.3571 39.426C51.3571 48.065 44.3408 55.0813 35.7018 55.0813H27.1445C18.5054 55.0813 11.4892 48.065 11.4892 39.426C11.4892 29.0008 19.9531 20.5369 30.3783 20.5369H30.3899Z" fill="#FF859D"/>
<path d="M33.6004 35.6436H29.2575C25.9693 35.6436 23.3036 38.3066 23.3036 41.5916C23.3036 44.8767 25.9693 47.5397 29.2575 47.5397H33.6004C36.8886 47.5397 39.5543 44.8767 39.5543 41.5916C39.5543 38.3066 36.8886 35.6436 33.6004 35.6436Z" fill="#DE264A"/>
<path d="M39.5543 39.9863H23.3036V41.5974H39.5543V39.9863Z" fill="#DE264A"/>
<path d="M33.6004 34.0325H29.2575C25.9693 34.0325 23.3036 36.6955 23.3036 39.9805C23.3036 43.2656 25.9693 45.9286 29.2575 45.9286H33.6004C36.8886 45.9286 39.5543 43.2656 39.5543 39.9805C39.5543 36.6955 36.8886 34.0325 33.6004 34.0325Z" fill="#E93A5D"/>
<path d="M28.1018 41.5974C28.9915 41.5974 29.7128 40.8761 29.7128 39.9863C29.7128 39.0965 28.9915 38.3752 28.1018 38.3752C27.212 38.3752 26.4907 39.0965 26.4907 39.9863C26.4907 40.8761 27.212 41.5974 28.1018 41.5974Z" fill="#A60020"/>
<path d="M34.7562 41.5974C35.6459 41.5974 36.3672 40.8761 36.3672 39.9863C36.3672 39.0965 35.6459 38.3752 34.7562 38.3752C33.8664 38.3752 33.1451 39.0965 33.1451 39.9863C33.1451 40.8761 33.8664 41.5974 34.7562 41.5974Z" fill="#A60020"/>
<path d="M40.138 34.1842C41.1567 34.1842 41.9825 33.3584 41.9825 32.3397C41.9825 31.321 41.1567 30.4951 40.138 30.4951C39.1193 30.4951 38.2935 31.321 38.2935 32.3397C38.2935 33.3584 39.1193 34.1842 40.138 34.1842Z" fill="#071824"/>
<path d="M22.7199 34.1842C23.7386 34.1842 24.5644 33.3584 24.5644 32.3397C24.5644 31.321 23.7386 30.4951 22.7199 30.4951C21.7012 30.4951 20.8753 31.321 20.8753 32.3397C20.8753 33.3584 21.7012 34.1842 22.7199 34.1842Z" fill="#071824"/>
<path d="M44.7067 28.1141C45.2491 27.475 44.7363 26.1486 43.5614 25.1515C42.3865 24.1544 40.9944 23.8642 40.452 24.5033C39.9097 25.1423 40.4225 26.4687 41.5974 27.4658C42.7723 28.4629 44.1644 28.7531 44.7067 28.1141Z" fill="white"/>
<path d="M37.6399 37.4861C37.9736 37.0928 37.6584 36.2768 36.9358 35.6636C36.2131 35.0503 35.3567 34.8719 35.023 35.2652C34.6892 35.6585 35.0045 36.4745 35.7271 37.0877C36.4498 37.701 37.3061 37.8794 37.6399 37.4861Z" fill="white"/>
<path d="M10.7654 26.7947C10.0182 27.9504 9.42282 28.5575 8.26706 29.293C9.42282 30.0401 10.0299 30.6355 10.7654 31.7913C11.5125 30.6355 12.1079 30.0285 13.2637 29.293C12.1079 28.5458 11.5009 27.9504 10.7654 26.7947Z" fill="white"/>
<path d="M53.1 38.46C52.46 39.45 51.95 39.97 50.96 40.6C51.95 41.24 52.47 41.75 53.1 42.74C53.74 41.75 54.25 41.23 55.24 40.6C54.25 39.96 53.73 39.45 53.1 38.46Z" fill="white"/>
</g>
<path fill-rule="evenodd" clip-rule="evenodd" d="M6.49771 79C6.98969 79 7.48602 79.213 7.49037 79.6913C7.49037 80.1043 7.24656 80.2696 6.99839 80.2696C6.75023 80.2696 6.73281 80.1435 6.73281 80.1435C6.73281 80.1435 7.02452 79.9261 7.02452 79.7174C7.02452 79.6087 6.94179 79.313 6.489 79.3174C5.8577 79.3174 5.5181 79.6174 5.5181 80.1522C5.5181 80.7652 7.35105 80.9739 7.3554 81.7652C7.3554 82.613 6.47594 82.9957 5.69225 83C5.283 83 5.01306 82.7609 5.00871 82.3783C5.00871 81.9261 5.22204 81.4652 5.75756 81.4652C5.88382 81.4565 5.98831 81.5522 5.99702 81.6783C5.99702 81.6783 5.99702 81.6826 5.99702 81.687C5.99702 81.687 5.45715 81.8391 5.4615 82.3783C5.4615 82.4783 5.56599 82.6609 5.81851 82.6565C6.07103 82.6522 6.82424 82.4739 6.81989 81.8087C6.81989 81.1913 5.00435 81.1087 5 80.1478C5 79.0652 6.08845 79.0087 6.49771 79.0087V79ZM10.747 79.6C10.8123 79.5696 11.2129 79.4913 11.1955 79.813C11.1824 80.1348 10.9386 80.6913 10.9037 80.9348C11.2303 80.7696 11.6918 80.2087 11.6918 80.2087C11.6918 80.2087 12.0183 80.2522 11.9182 80.4522C11.818 80.6522 11.1519 81.1435 11.1519 81.1435C11.1519 81.1435 11.3043 82.5696 12.1707 82.5696C12.6453 82.5696 12.8499 82.3609 12.937 82.287C12.9587 82.2696 12.9762 82.2652 12.9849 82.2783C13.0197 82.387 12.9936 82.5043 12.9152 82.5913C12.8194 82.6957 12.5974 82.8217 12.1533 82.8261C11.3653 82.8261 10.9255 82.1957 10.8123 81.2609C10.7252 81.5348 10.7339 81.9826 10.7209 82.2C10.6948 82.2435 10.2507 82.4174 10.2158 82.1174C10.2158 82.0913 10.2158 82.0696 10.2158 82.0435C10.1331 82.1609 10.0199 82.2826 9.91108 82.2826C9.71951 82.2826 9.63679 82.1217 9.60196 82.0391C9.57584 82.0696 9.3625 82.287 9.08821 82.287C8.92277 82.2913 8.77474 82.1957 8.70943 82.0435C8.57011 82.1435 8.32195 82.2913 8.03895 82.2913C7.73418 82.2913 7.66017 82.1087 7.66017 81.9565C7.66017 81.713 7.84303 80.987 7.84303 80.987C7.84303 80.987 7.48602 81.1304 7.36411 81.1348C7.19431 81.1348 7.11159 80.8217 7.11159 80.813C7.11159 80.8087 7.11159 80.8 7.1203 80.8C7.22044 80.7609 7.94317 80.513 7.94317 80.513C7.94317 80.513 8.07813 79.9826 8.09555 79.913C8.11296 79.8435 8.2131 79.7 8.33065 79.6565C8.41773 79.6217 8.50916 79.6 8.60059 79.5913C8.63107 79.5913 8.65284 79.6 8.65284 79.6174C8.65284 79.6348 8.47433 80.4087 8.47433 80.4087C8.47433 80.4087 8.84876 80.3217 8.98808 80.3217C9.09692 80.3217 9.15352 80.387 9.09257 80.4696C9.03162 80.5522 8.96196 80.6478 8.92712 80.6913C8.88794 80.7348 8.86182 80.7435 8.77039 80.7609C8.64413 80.787 8.36113 80.8565 8.36113 80.8565C8.36113 80.8565 8.13473 81.6783 8.13909 81.8174C8.13909 81.8957 8.16521 81.987 8.26099 81.987C8.35678 81.987 8.53964 81.8739 8.67025 81.7913C8.69202 81.1522 9.18835 80.7261 9.57584 80.7261C9.7021 80.7261 9.65421 80.8478 9.79788 80.8478H9.88931C9.94591 80.8478 10.0069 80.8522 10.0069 80.9957C10.0069 81.1957 9.89367 81.5261 9.89367 81.7348C9.89367 81.8826 9.91544 81.987 9.97204 81.987C10.0678 81.987 10.1767 81.8478 10.255 81.7261C10.3813 81.0304 10.734 79.7609 10.734 79.6174L10.747 79.6ZM12.5016 80.7C12.7672 80.6783 12.9326 80.8217 12.9631 80.9C12.9936 80.9783 12.9892 81.1609 12.9152 81.2913C12.6845 81.7044 12.1097 81.6304 12.1097 81.6304C12.1097 81.6304 12.0444 81.9565 12.3405 81.9565C12.593 81.9565 12.7062 81.8304 12.8151 81.7261C12.8586 81.7261 12.9936 81.8652 12.9326 81.9609C12.8847 82.0348 12.6191 82.2565 12.2795 82.2609C11.7397 82.2609 11.6047 81.8 11.6744 81.4696C11.7658 81.0609 12.1751 80.7217 12.5016 80.6957V80.7ZM9.6455 80.987C9.32332 80.987 8.82699 81.9696 9.20577 81.9652C9.61938 81.9652 9.6455 81.1826 9.6455 81.0043V80.987ZM12.6409 80.8913C12.4232 80.9 12.1751 81.3174 12.1533 81.5C12.4798 81.513 12.654 81.1957 12.6757 81.0696C12.6888 80.9739 12.6932 80.887 12.6409 80.887V80.8913Z" fill="#557086"/>
<path d="M56.1444 79.3778L56.6412 80.278L57.6518 80.4733C57.7792 80.4988 57.8302 80.6559 57.741 80.7494L57.0361 81.5009L57.1635 82.5243C57.1805 82.6559 57.0446 82.7494 56.93 82.6942L56 82.2568L55.0701 82.6942C54.9512 82.7494 54.8196 82.6517 54.8366 82.5243L54.9639 81.5009L54.2591 80.7494C54.1699 80.6559 54.2208 80.4988 54.3482 80.4733L55.3588 80.278L55.8557 79.3778C55.9194 79.2632 56.085 79.2632 56.1444 79.3778Z" fill="#FFC200"/>
<path d="M56 79.2929C56.0552 79.2929 56.1147 79.3226 56.1444 79.3778L56.6412 80.278L57.6518 80.4733C57.7792 80.4988 57.8302 80.6559 57.741 80.7494L57.0361 81.5009L57.1635 82.5243C57.1763 82.6262 57.0955 82.7111 56.9979 82.7111C56.9766 82.7111 56.9512 82.7069 56.9257 82.6942L55.9957 82.2568L55.0658 82.6942C55.0403 82.7069 55.0191 82.7111 54.9936 82.7111C54.9002 82.7111 54.8153 82.6262 54.828 82.5243L54.9554 81.5009L54.2505 80.7494C54.1613 80.6559 54.2123 80.4988 54.3397 80.4733L55.3503 80.278L55.8471 79.3778C55.8768 79.3226 55.9363 79.2929 55.9915 79.2929M56 79.0806C55.8641 79.0806 55.7367 79.157 55.6688 79.2759L55.2187 80.0912L54.3057 80.2653C54.1698 80.2908 54.0594 80.3884 54.017 80.5201C53.9745 80.6517 54.0085 80.7961 54.1019 80.8937L54.7388 81.5731L54.6242 82.4946C54.6115 82.6007 54.6454 82.7111 54.7134 82.7918C54.7856 82.8725 54.8875 82.9192 54.9979 82.9192C55.0531 82.9192 55.1083 82.9065 55.1592 82.881L56 82.4861L56.8408 82.881C56.8917 82.9065 56.9469 82.9192 57.0021 82.9192C57.1125 82.9192 57.2144 82.8725 57.2866 82.7918C57.3588 82.7111 57.3928 82.6007 57.3758 82.4946L57.2611 81.5731L57.8981 80.8937C57.9915 80.7918 58.0255 80.6474 57.983 80.5201C57.9405 80.3884 57.8301 80.2908 57.6943 80.2653L56.7813 80.0912L56.3312 79.2759C56.2633 79.157 56.1359 79.0806 56 79.0806Z" fill="#213743"/>
<path d="M56 79.8152V80.9744C56 81.0678 56.0892 81.1315 56.1784 81.106L57.2187 80.7706C57.2739 80.7536 57.2697 80.6729 57.2102 80.6602L56.5563 80.5413C56.4969 80.5286 56.4417 80.4903 56.4119 80.4351L56.085 79.7939C56.0637 79.7515 55.9958 79.7642 55.9958 79.8152H56Z" fill="#FFEBB8"/>
<path d="M56 81.4924V82.0699C56 82.1039 56.017 82.1294 56.0467 82.1464L56.7983 82.5073C56.8365 82.5243 56.8705 82.4818 56.845 82.4479L56.0934 81.4627C56.0637 81.4245 56 81.4457 56 81.4924Z" fill="#FF7F00"/>
<rect x="13" y="62" width="37" height="13" rx="6.5" fill="#2F4553"/>
<path d="M29.9122 70.072C29.1442 70.072 28.5682 69.802 28.2562 69.442L28.7782 68.74C29.0662 69.022 29.5222 69.16 29.8702 69.16C30.3142 69.16 30.5422 68.992 30.5422 68.77C30.5422 68.542 30.3742 68.434 29.8282 68.434C29.6542 68.434 29.3482 68.434 29.2882 68.44V67.522C29.3662 67.528 29.6782 67.528 29.8282 67.528C30.2422 67.528 30.4762 67.426 30.4762 67.216C30.4762 66.964 30.1882 66.85 29.8042 66.85C29.4382 66.85 29.0902 66.982 28.8082 67.234L28.3102 66.586C28.6462 66.208 29.1742 65.938 29.9122 65.938C30.9322 65.938 31.5022 66.376 31.5022 67.036C31.5022 67.504 31.1002 67.858 30.6262 67.936C31.0522 67.978 31.5682 68.308 31.5682 68.884C31.5682 69.586 30.9082 70.072 29.9122 70.072ZM34.8775 70H33.8635L33.3055 69.124L32.7415 70H31.7335L32.7235 68.512L31.7935 67.102H32.8075L33.3055 67.888L33.7975 67.102H34.8115L33.8875 68.512L34.8775 70Z" fill="white"/>
<path d="M8.03 11H7.215L6.56 9.815H6.04V11H5.33V7.665H6.89C7.585 7.665 8.01 8.12 8.01 8.74C8.01 9.33 7.64 9.645 7.28 9.73L8.03 11ZM6.785 9.19C7.07 9.19 7.285 9.02 7.285 8.74C7.285 8.46 7.07 8.29 6.785 8.29H6.04V9.19H6.785ZM10.5152 11H9.88023V10.75C9.71523 10.945 9.43023 11.06 9.11523 11.06C8.73023 11.06 8.27523 10.8 8.27523 10.26C8.27523 9.695 8.73023 9.48 9.11523 9.48C9.43523 9.48 9.72023 9.585 9.88023 9.775V9.45C9.88023 9.205 9.67023 9.045 9.35023 9.045C9.09023 9.045 8.85023 9.14 8.64523 9.33L8.40523 8.905C8.70023 8.645 9.08023 8.525 9.46023 8.525C10.0102 8.525 10.5152 8.745 10.5152 9.44V11ZM9.37023 10.63C9.57523 10.63 9.77523 10.56 9.88023 10.42V10.12C9.77523 9.98 9.57523 9.91 9.37023 9.91C9.12023 9.91 8.91523 10.04 8.91523 10.275C8.91523 10.5 9.12023 10.63 9.37023 10.63ZM11.7801 11H11.1451V8.585H11.7801V8.915C11.9501 8.7 12.2501 8.525 12.5501 8.525V9.145C12.5051 9.135 12.4451 9.13 12.3751 9.13C12.1651 9.13 11.8851 9.25 11.7801 9.405V11ZM14.0818 11.06C13.3468 11.06 12.7918 10.565 12.7918 9.79C12.7918 9.09 13.3068 8.525 14.0418 8.525C14.7618 8.525 15.2518 9.065 15.2518 9.855V9.995H13.4568C13.4968 10.3 13.7418 10.555 14.1518 10.555C14.3568 10.555 14.6418 10.465 14.7968 10.315L15.0768 10.725C14.8368 10.945 14.4568 11.06 14.0818 11.06ZM14.6368 9.565C14.6218 9.335 14.4618 9.03 14.0418 9.03C13.6468 9.03 13.4768 9.325 13.4468 9.565H14.6368Z" fill="white"/>
<path d="M48.6585 11H48.2065L46.8145 9.096V11H46.3465V8.332H46.8265L48.1905 10.184V8.332H48.6585V11ZM50.0854 11.048C49.4734 11.048 49.0934 10.588 49.0934 10.032C49.0934 9.48 49.4734 9.02 50.0854 9.02C50.7054 9.02 51.0814 9.48 51.0814 10.032C51.0814 10.588 50.7054 11.048 50.0854 11.048ZM50.0854 10.676C50.4454 10.676 50.6454 10.376 50.6454 10.032C50.6454 9.692 50.4454 9.392 50.0854 9.392C49.7294 9.392 49.5294 9.692 49.5294 10.032C49.5294 10.376 49.7294 10.676 50.0854 10.676ZM51.7028 11.044C51.5508 11.044 51.4228 10.916 51.4228 10.764C51.4228 10.612 51.5508 10.484 51.7028 10.484C51.8548 10.484 51.9828 10.612 51.9828 10.764C51.9828 10.916 51.8548 11.044 51.7028 11.044ZM54.4387 11.048C53.9787 11.048 53.6627 10.892 53.4467 10.636L53.7147 10.316C53.8947 10.52 54.1347 10.632 54.4347 10.632C54.7707 10.632 54.9827 10.424 54.9827 10.164C54.9827 9.876 54.7747 9.688 54.4467 9.688C54.2187 9.688 54.0307 9.76 53.8627 9.92L53.5307 9.824V8.332H55.2787V8.744H53.9987V9.516C54.1267 9.388 54.3467 9.284 54.6027 9.284C55.0507 9.284 55.4547 9.6 55.4547 10.144C55.4547 10.7 55.0347 11.048 54.4387 11.048ZM57.7531 11H55.8211V10.632C56.8571 9.848 57.2611 9.5 57.2611 9.116C57.2611 8.836 57.0211 8.708 56.7771 8.708C56.4651 8.708 56.2251 8.836 56.0571 9.028L55.7851 8.72C56.0211 8.436 56.3971 8.292 56.7691 8.292C57.2851 8.292 57.7371 8.584 57.7371 9.116C57.7371 9.608 57.2851 10.048 56.5691 10.588H57.7531V11Z" fill="white"/>
<defs>
<clipPath id="clip0_26835_29215">
<rect width="63" height="88" fill="white"/>
</clipPath>
</defs>
</svg>
