<svg width="63" height="88" viewBox="0 0 63 88" fill="none" xmlns="http://www.w3.org/2000/svg">
<rect width="63" height="88" rx="4" fill="#FF003F"/>
<path d="M36.7008 13.5133L44.7992 3.48665C45.5586 2.54645 46.7024 2 47.911 2H58C59.6569 2 61 3.34314 61 5V83C61 84.6569 59.6569 86 58 86H5C3.34315 86 2 84.6569 2 83V18C2 16.3431 3.34315 15 5 15H33.589C34.7976 15 35.9414 14.4536 36.7008 13.5133Z" fill="#213743"/>
<rect x="5" y="18" width="53" height="40" rx="1" fill="#2F4553"/>
<g clip-path="url(#clip0_26835_29216)">
<path d="M57 18H6C5.44772 18 5 18.4477 5 19V57C5 57.5523 5.44772 58 6 58H57C57.5523 58 58 57.5523 58 57V19C58 18.4477 57.5523 18 57 18Z" fill="#FF7F00"/>
<path d="M58 19C58 18.45 57.55 18 57 18H6C5.45 18 5 18.45 5 19V30.06C10.01 39.58 19.99 46.07 31.5 46.07C43.01 46.07 52.99 39.57 58 30.05V19.01V19Z" fill="#FFC200"/>
<path d="M31.5 56.37C41.7974 56.37 50.145 54.8444 50.145 52.9626C50.145 51.0807 41.7974 49.5552 31.5 49.5552C21.2027 49.5552 12.855 51.0807 12.855 52.9626C12.855 54.8444 21.2027 56.37 31.5 56.37Z" fill="#1A2C38"/>
<path d="M53 35.2653C53 51.2162 43.3734 53.8782 31.5 53.8782C19.6266 53.8782 10 52.0148 10 35.2653C10 22.9667 19.6266 13 31.5 13C43.3734 13 53 22.9667 53 35.2653Z" fill="#E9113C"/>
<path d="M47.9187 31.4957C47.9187 40.8661 41.2193 37.9378 32.1493 37.9378C23.0793 37.9378 15.071 40.8767 15.071 31.4957C15.071 25.192 17.9981 21.0925 22.9454 18.6966C25.3468 17.536 28.5316 18.6647 31.5 18.6647C34.6848 18.6647 38.0551 17.4721 40.57 18.8138C45.2184 21.2841 47.929 25.4156 47.929 31.485L47.9187 31.4957Z" fill="#FFEBB8"/>
<path d="M37.3646 31.3894C39.3683 31.3894 40.9926 29.7113 40.9926 27.6412C40.9926 25.5712 39.3683 23.8931 37.3646 23.8931C35.3609 23.8931 33.7366 25.5712 33.7366 27.6412C33.7366 29.7113 35.3609 31.3894 37.3646 31.3894Z" fill="#FF7F00"/>
<path d="M26.2744 31.3894C28.2781 31.3894 29.9024 29.7113 29.9024 27.6412C29.9024 25.5712 28.2781 23.8931 26.2744 23.8931C24.2708 23.8931 22.6465 25.5712 22.6465 27.6412C22.6465 29.7113 24.2708 31.3894 26.2744 31.3894Z" fill="#FF7F00"/>
<path d="M37.3646 30.6226C38.9584 30.6226 40.2505 29.2878 40.2505 27.6411C40.2505 25.9945 38.9584 24.6597 37.3646 24.6597C35.7707 24.6597 34.4787 25.9945 34.4787 27.6411C34.4787 29.2878 35.7707 30.6226 37.3646 30.6226Z" fill="white"/>
<path d="M33.6747 33.7214C33.6747 33.7214 36.3339 33.9876 38.0551 35.521C39.7764 37.0543 43.2498 39.5566 46.3006 37.5335C49.3617 35.5103 46.5892 28.8872 40.2402 31.9325C40.2402 31.9325 45.0225 30.8251 44.6824 33.4339C44.1671 37.3631 36.2617 32.2307 33.6644 33.7214H33.6747Z" fill="#1A2C38"/>
<path d="M29.6654 33.7214C29.6654 33.7214 27.0062 33.9876 25.285 35.521C23.5535 37.0543 20.0904 39.5566 17.0396 37.5335C13.9784 35.5103 16.751 28.8872 23.1 31.9325C23.1 31.9325 18.3176 30.8251 18.6577 33.4339C19.1731 37.3631 27.0784 32.2307 29.6757 33.7214H29.6654Z" fill="#1A2C38"/>
<path d="M37.3646 29.7921C38.5144 29.7921 39.4465 28.8291 39.4465 27.6412C39.4465 26.4532 38.5144 25.4902 37.3646 25.4902C36.2147 25.4902 35.2826 26.4532 35.2826 27.6412C35.2826 28.8291 36.2147 29.7921 37.3646 29.7921Z" fill="#1A2C38"/>
<path d="M26.2848 31.5811C27.8786 31.5811 29.1707 30.2463 29.1707 28.5996C29.1707 26.953 27.8786 25.6182 26.2848 25.6182C24.6909 25.6182 23.3989 26.953 23.3989 28.5996C23.3989 30.2463 24.6909 31.5811 26.2848 31.5811Z" fill="#1A2C38"/>
<path d="M26.2848 30.6226C27.8786 30.6226 29.1707 29.2878 29.1707 27.6411C29.1707 25.9945 27.8786 24.6597 26.2848 24.6597C24.6909 24.6597 23.3989 25.9945 23.3989 27.6411C23.3989 29.2878 24.6909 30.6226 26.2848 30.6226Z" fill="#FF7F00"/>
<path d="M26.2848 30.8357C24.5841 30.8357 23.1927 29.4088 23.1927 27.6412C23.1927 25.8736 24.5738 24.4468 26.2848 24.4468C27.9957 24.4468 29.3768 25.8736 29.3768 27.6412C29.3768 29.4088 27.9957 30.8357 26.2848 30.8357ZM26.2848 24.8727C24.8109 24.8727 23.605 26.1185 23.605 27.6412C23.605 29.1639 24.8109 30.4097 26.2848 30.4097C27.7586 30.4097 28.9645 29.1639 28.9645 27.6412C28.9645 26.1185 27.7586 24.8727 26.2848 24.8727Z" fill="#FFC200"/>
<path d="M26.2848 29.7921C27.4346 29.7921 28.3667 28.8291 28.3667 27.6412C28.3667 26.4532 27.4346 25.4902 26.2848 25.4902C25.1349 25.4902 24.2028 26.4532 24.2028 27.6412C24.2028 28.8291 25.1349 29.7921 26.2848 29.7921Z" fill="#FFC200"/>
<path d="M29.8612 32.3584C29.8612 32.3584 30.3662 33.2528 31.5 33.2528C32.6337 33.2528 33.4377 32.3584 33.4377 32.3584C33.4377 32.3584 32.4173 34.7329 31.5 34.7329C30.5827 34.7329 29.8612 32.3584 29.8612 32.3584Z" fill="#1A2C38"/>
<path d="M48.8975 29.2041C49.7977 28.6173 49.3406 26.1983 47.8766 23.801C46.4125 21.4037 44.4959 19.9361 43.5956 20.5229C42.6954 21.1097 43.1524 23.5288 44.6165 25.9261C46.0806 28.3233 47.9972 29.791 48.8975 29.2041Z" fill="white"/>
<path d="M32.9223 23.7123C32.9223 23.7123 33.1491 25.5011 34.3034 25.1817C35.4578 24.8623 36.3236 22.5516 37.5089 21.1461C38.6941 19.7405 41.2605 17.8345 43.8578 20.6669C46.4552 23.4993 45.6512 27.4924 43.8578 28.8979C43.8578 28.8979 45.074 25.3521 42.6726 23.4993C40.2814 21.6465 37.7562 23.2331 37.1069 24.053C34.9218 26.7683 32.0875 26.5553 32.9223 23.7123Z" fill="#1A2C38"/>
<path d="M30.4178 23.4139C30.4178 23.4139 30.191 25.2028 29.0367 24.8834C27.8823 24.5639 27.0165 22.2533 25.8313 20.8477C24.646 19.4422 22.0796 17.5361 19.4823 20.3686C16.8849 23.201 17.6889 27.194 19.4823 28.5996C19.4823 28.5996 18.2661 25.0537 20.6675 23.201C23.0587 21.3482 25.5839 22.9348 26.2332 23.7547C28.4183 26.4699 31.2526 26.257 30.4178 23.4139Z" fill="#1A2C38"/>
<path d="M25.8828 36.5644C25.6663 35.638 30.0158 35.276 31.8092 35.2547C33.6026 35.2334 37.313 35.851 37.1378 36.7028C36.9626 37.5547 34.2313 35.8723 31.5 35.9788C28.7687 36.0852 26.0374 37.2246 25.8828 36.5644Z" fill="#E9113C"/>
<path d="M23.6462 52.3981C23.6462 52.3981 22.7186 48.7778 23.2236 45.3278C23.7287 41.8778 24.0688 39.4074 22.3372 39.6097C20.6057 39.812 20.1831 42.0694 20.6882 45.5727C21.1932 49.0653 23.6462 52.4088 23.6462 52.4088V52.3981Z" fill="#FFC200"/>
<path d="M19.3792 52.2704C19.3792 52.2704 18.2145 48.7352 18.4722 45.2426C18.7299 41.75 18.9154 39.2796 17.2044 39.5991C15.4935 39.9185 15.2255 42.2079 15.9573 45.6685C16.6891 49.1185 19.3792 52.2704 19.3792 52.2704Z" fill="#FFC200"/>
<path d="M40.6112 52.3981C40.6112 52.3981 41.5388 48.7778 41.0338 45.3278C40.5288 41.8778 40.1886 39.4074 41.9202 39.6097C43.6517 39.812 44.0743 42.0694 43.5693 45.5727C43.0642 49.0653 40.6112 52.4088 40.6112 52.4088V52.3981Z" fill="#FFC200"/>
<path d="M13.9578 45.3172C14.2258 41.8352 14.401 39.3542 12.6901 39.6737C11.3605 39.9292 10.907 41.3667 11.1131 43.6241C11.814 45.8602 12.8344 47.6278 14.1227 49.0014C13.9578 47.8834 13.865 46.6056 13.9681 45.3278L13.9578 45.3172Z" fill="#FFC200"/>
<path d="M52.6186 40.2913C52.361 39.9718 52.0208 39.7589 51.588 39.6737C49.877 39.3542 50.0522 41.8352 50.3202 45.3172C50.3511 45.7964 50.3615 46.2649 50.3511 46.7334C51.4231 45.0084 52.1961 42.8894 52.6186 40.2913Z" fill="#FFC200"/>
<path d="M47.0633 39.5992C45.3524 39.2798 45.5276 41.7608 45.7955 45.2427C45.9811 47.7344 45.4451 50.2473 45.1153 51.4825C45.3317 51.3761 45.5379 51.2589 45.744 51.1418C46.5995 49.9173 47.8363 47.8622 48.3104 45.6686C49.0422 42.2186 48.7742 39.9293 47.0633 39.5992Z" fill="#FFC200"/>
<path d="M11.7 24C10.89 25.25 10.24 25.91 9 26.7C10.25 27.51 10.91 28.16 11.7 29.4C12.51 28.15 13.16 27.49 14.4 26.7C13.15 25.89 12.49 25.24 11.7 24Z" fill="white"/>
</g>
<path fill-rule="evenodd" clip-rule="evenodd" d="M6.49771 79C6.98969 79 7.48602 79.213 7.49037 79.6913C7.49037 80.1043 7.24656 80.2696 6.99839 80.2696C6.75023 80.2696 6.73281 80.1435 6.73281 80.1435C6.73281 80.1435 7.02452 79.9261 7.02452 79.7174C7.02452 79.6087 6.94179 79.313 6.489 79.3174C5.8577 79.3174 5.5181 79.6174 5.5181 80.1522C5.5181 80.7652 7.35105 80.9739 7.3554 81.7652C7.3554 82.613 6.47594 82.9957 5.69225 83C5.283 83 5.01306 82.7609 5.00871 82.3783C5.00871 81.9261 5.22204 81.4652 5.75756 81.4652C5.88382 81.4565 5.98831 81.5522 5.99702 81.6783C5.99702 81.6783 5.99702 81.6826 5.99702 81.687C5.99702 81.687 5.45715 81.8391 5.4615 82.3783C5.4615 82.4783 5.56599 82.6609 5.81851 82.6565C6.07103 82.6522 6.82424 82.4739 6.81989 81.8087C6.81989 81.1913 5.00435 81.1087 5 80.1478C5 79.0652 6.08845 79.0087 6.49771 79.0087V79ZM10.747 79.6C10.8123 79.5696 11.2129 79.4913 11.1955 79.813C11.1824 80.1348 10.9386 80.6913 10.9037 80.9348C11.2303 80.7696 11.6918 80.2087 11.6918 80.2087C11.6918 80.2087 12.0183 80.2522 11.9182 80.4522C11.818 80.6522 11.1519 81.1435 11.1519 81.1435C11.1519 81.1435 11.3043 82.5696 12.1707 82.5696C12.6453 82.5696 12.8499 82.3609 12.937 82.287C12.9587 82.2696 12.9762 82.2652 12.9849 82.2783C13.0197 82.387 12.9936 82.5043 12.9152 82.5913C12.8194 82.6957 12.5974 82.8217 12.1533 82.8261C11.3653 82.8261 10.9255 82.1957 10.8123 81.2609C10.7252 81.5348 10.7339 81.9826 10.7209 82.2C10.6948 82.2435 10.2507 82.4174 10.2158 82.1174C10.2158 82.0913 10.2158 82.0696 10.2158 82.0435C10.1331 82.1609 10.0199 82.2826 9.91108 82.2826C9.71951 82.2826 9.63679 82.1217 9.60196 82.0391C9.57584 82.0696 9.3625 82.287 9.08821 82.287C8.92277 82.2913 8.77474 82.1957 8.70943 82.0435C8.57011 82.1435 8.32195 82.2913 8.03895 82.2913C7.73418 82.2913 7.66017 82.1087 7.66017 81.9565C7.66017 81.713 7.84303 80.987 7.84303 80.987C7.84303 80.987 7.48602 81.1304 7.36411 81.1348C7.19431 81.1348 7.11159 80.8217 7.11159 80.813C7.11159 80.8087 7.11159 80.8 7.1203 80.8C7.22044 80.7609 7.94317 80.513 7.94317 80.513C7.94317 80.513 8.07813 79.9826 8.09555 79.913C8.11296 79.8435 8.2131 79.7 8.33065 79.6565C8.41773 79.6217 8.50916 79.6 8.60059 79.5913C8.63107 79.5913 8.65284 79.6 8.65284 79.6174C8.65284 79.6348 8.47433 80.4087 8.47433 80.4087C8.47433 80.4087 8.84876 80.3217 8.98808 80.3217C9.09692 80.3217 9.15352 80.387 9.09257 80.4696C9.03162 80.5522 8.96196 80.6478 8.92712 80.6913C8.88794 80.7348 8.86182 80.7435 8.77039 80.7609C8.64413 80.787 8.36113 80.8565 8.36113 80.8565C8.36113 80.8565 8.13473 81.6783 8.13909 81.8174C8.13909 81.8957 8.16521 81.987 8.26099 81.987C8.35678 81.987 8.53964 81.8739 8.67025 81.7913C8.69202 81.1522 9.18835 80.7261 9.57584 80.7261C9.7021 80.7261 9.65421 80.8478 9.79788 80.8478H9.88931C9.94591 80.8478 10.0069 80.8522 10.0069 80.9957C10.0069 81.1957 9.89367 81.5261 9.89367 81.7348C9.89367 81.8826 9.91544 81.987 9.97204 81.987C10.0678 81.987 10.1767 81.8478 10.255 81.7261C10.3813 81.0304 10.734 79.7609 10.734 79.6174L10.747 79.6ZM12.5016 80.7C12.7672 80.6783 12.9326 80.8217 12.9631 80.9C12.9936 80.9783 12.9892 81.1609 12.9152 81.2913C12.6845 81.7044 12.1097 81.6304 12.1097 81.6304C12.1097 81.6304 12.0444 81.9565 12.3405 81.9565C12.593 81.9565 12.7062 81.8304 12.8151 81.7261C12.8586 81.7261 12.9936 81.8652 12.9326 81.9609C12.8847 82.0348 12.6191 82.2565 12.2795 82.2609C11.7397 82.2609 11.6047 81.8 11.6744 81.4696C11.7658 81.0609 12.1751 80.7217 12.5016 80.6957V80.7ZM9.6455 80.987C9.32332 80.987 8.82699 81.9696 9.20577 81.9652C9.61938 81.9652 9.6455 81.1826 9.6455 81.0043V80.987ZM12.6409 80.8913C12.4232 80.9 12.1751 81.3174 12.1533 81.5C12.4798 81.513 12.654 81.1957 12.6757 81.0696C12.6888 80.9739 12.6932 80.887 12.6409 80.887V80.8913Z" fill="#557086"/>
<path d="M56.1444 79.3778L56.6412 80.278L57.6518 80.4733C57.7792 80.4988 57.8302 80.6559 57.741 80.7494L57.0361 81.5009L57.1635 82.5243C57.1805 82.6559 57.0446 82.7494 56.93 82.6942L56 82.2568L55.0701 82.6942C54.9512 82.7494 54.8196 82.6517 54.8366 82.5243L54.9639 81.5009L54.2591 80.7494C54.1699 80.6559 54.2208 80.4988 54.3482 80.4733L55.3588 80.278L55.8557 79.3778C55.9194 79.2632 56.085 79.2632 56.1444 79.3778Z" fill="#FFC200"/>
<path d="M56 79.2929C56.0552 79.2929 56.1147 79.3226 56.1444 79.3778L56.6412 80.278L57.6518 80.4733C57.7792 80.4988 57.8302 80.6559 57.741 80.7494L57.0361 81.5009L57.1635 82.5243C57.1763 82.6262 57.0955 82.7111 56.9979 82.7111C56.9766 82.7111 56.9512 82.7069 56.9257 82.6942L55.9957 82.2568L55.0658 82.6942C55.0403 82.7069 55.0191 82.7111 54.9936 82.7111C54.9002 82.7111 54.8153 82.6262 54.828 82.5243L54.9554 81.5009L54.2505 80.7494C54.1613 80.6559 54.2123 80.4988 54.3397 80.4733L55.3503 80.278L55.8471 79.3778C55.8768 79.3226 55.9363 79.2929 55.9915 79.2929M56 79.0806C55.8641 79.0806 55.7367 79.157 55.6688 79.2759L55.2187 80.0912L54.3057 80.2653C54.1698 80.2908 54.0594 80.3884 54.017 80.5201C53.9745 80.6517 54.0085 80.7961 54.1019 80.8937L54.7388 81.5731L54.6242 82.4946C54.6115 82.6007 54.6454 82.7111 54.7134 82.7918C54.7856 82.8725 54.8875 82.9192 54.9979 82.9192C55.0531 82.9192 55.1083 82.9065 55.1592 82.881L56 82.4861L56.8408 82.881C56.8917 82.9065 56.9469 82.9192 57.0021 82.9192C57.1125 82.9192 57.2144 82.8725 57.2866 82.7918C57.3588 82.7111 57.3928 82.6007 57.3758 82.4946L57.2611 81.5731L57.8981 80.8937C57.9915 80.7918 58.0255 80.6474 57.983 80.5201C57.9405 80.3884 57.8301 80.2908 57.6943 80.2653L56.7813 80.0912L56.3312 79.2759C56.2633 79.157 56.1359 79.0806 56 79.0806Z" fill="#213743"/>
<path d="M56 79.8152V80.9744C56 81.0678 56.0892 81.1315 56.1784 81.106L57.2187 80.7706C57.2739 80.7536 57.2697 80.6729 57.2102 80.6602L56.5563 80.5413C56.4969 80.5286 56.4417 80.4903 56.4119 80.4351L56.085 79.7939C56.0637 79.7515 55.9958 79.7642 55.9958 79.8152H56Z" fill="#FFEBB8"/>
<path d="M56 81.4924V82.0699C56 82.1039 56.017 82.1294 56.0467 82.1464L56.7983 82.5073C56.8365 82.5243 56.8705 82.4818 56.845 82.4479L56.0934 81.4627C56.0637 81.4245 56 81.4457 56 81.4924Z" fill="#FF7F00"/>
<rect x="13" y="62" width="37" height="13" rx="6.5" fill="#2F4553"/>
<path d="M29.9122 70.072C29.1442 70.072 28.5682 69.802 28.2562 69.442L28.7782 68.74C29.0662 69.022 29.5222 69.16 29.8702 69.16C30.3142 69.16 30.5422 68.992 30.5422 68.77C30.5422 68.542 30.3742 68.434 29.8282 68.434C29.6542 68.434 29.3482 68.434 29.2882 68.44V67.522C29.3662 67.528 29.6782 67.528 29.8282 67.528C30.2422 67.528 30.4762 67.426 30.4762 67.216C30.4762 66.964 30.1882 66.85 29.8042 66.85C29.4382 66.85 29.0902 66.982 28.8082 67.234L28.3102 66.586C28.6462 66.208 29.1742 65.938 29.9122 65.938C30.9322 65.938 31.5022 66.376 31.5022 67.036C31.5022 67.504 31.1002 67.858 30.6262 67.936C31.0522 67.978 31.5682 68.308 31.5682 68.884C31.5682 69.586 30.9082 70.072 29.9122 70.072ZM34.8775 70H33.8635L33.3055 69.124L32.7415 70H31.7335L32.7235 68.512L31.7935 67.102H32.8075L33.3055 67.888L33.7975 67.102H34.8115L33.8875 68.512L34.8775 70Z" fill="white"/>
<path d="M8.03 11H7.215L6.56 9.815H6.04V11H5.33V7.665H6.89C7.585 7.665 8.01 8.12 8.01 8.74C8.01 9.33 7.64 9.645 7.28 9.73L8.03 11ZM6.785 9.19C7.07 9.19 7.285 9.02 7.285 8.74C7.285 8.46 7.07 8.29 6.785 8.29H6.04V9.19H6.785ZM10.5152 11H9.88023V10.75C9.71523 10.945 9.43023 11.06 9.11523 11.06C8.73023 11.06 8.27523 10.8 8.27523 10.26C8.27523 9.695 8.73023 9.48 9.11523 9.48C9.43523 9.48 9.72023 9.585 9.88023 9.775V9.45C9.88023 9.205 9.67023 9.045 9.35023 9.045C9.09023 9.045 8.85023 9.14 8.64523 9.33L8.40523 8.905C8.70023 8.645 9.08023 8.525 9.46023 8.525C10.0102 8.525 10.5152 8.745 10.5152 9.44V11ZM9.37023 10.63C9.57523 10.63 9.77523 10.56 9.88023 10.42V10.12C9.77523 9.98 9.57523 9.91 9.37023 9.91C9.12023 9.91 8.91523 10.04 8.91523 10.275C8.91523 10.5 9.12023 10.63 9.37023 10.63ZM11.7801 11H11.1451V8.585H11.7801V8.915C11.9501 8.7 12.2501 8.525 12.5501 8.525V9.145C12.5051 9.135 12.4451 9.13 12.3751 9.13C12.1651 9.13 11.8851 9.25 11.7801 9.405V11ZM14.0818 11.06C13.3468 11.06 12.7918 10.565 12.7918 9.79C12.7918 9.09 13.3068 8.525 14.0418 8.525C14.7618 8.525 15.2518 9.065 15.2518 9.855V9.995H13.4568C13.4968 10.3 13.7418 10.555 14.1518 10.555C14.3568 10.555 14.6418 10.465 14.7968 10.315L15.0768 10.725C14.8368 10.945 14.4568 11.06 14.0818 11.06ZM14.6368 9.565C14.6218 9.335 14.4618 9.03 14.0418 9.03C13.6468 9.03 13.4768 9.325 13.4468 9.565H14.6368Z" fill="white"/>
<path d="M48.7405 11H48.2885L46.8965 9.096V11H46.4285V8.332H46.9085L48.2725 10.184V8.332H48.7405V11ZM50.1674 11.048C49.5554 11.048 49.1754 10.588 49.1754 10.032C49.1754 9.48 49.5554 9.02 50.1674 9.02C50.7874 9.02 51.1634 9.48 51.1634 10.032C51.1634 10.588 50.7874 11.048 50.1674 11.048ZM50.1674 10.676C50.5274 10.676 50.7274 10.376 50.7274 10.032C50.7274 9.692 50.5274 9.392 50.1674 9.392C49.8114 9.392 49.6114 9.692 49.6114 10.032C49.6114 10.376 49.8114 10.676 50.1674 10.676ZM51.7849 11.044C51.6329 11.044 51.5049 10.916 51.5049 10.764C51.5049 10.612 51.6329 10.484 51.7849 10.484C51.9369 10.484 52.0649 10.612 52.0649 10.764C52.0649 10.916 51.9369 11.044 51.7849 11.044ZM54.5207 11.048C54.0607 11.048 53.7447 10.892 53.5287 10.636L53.7967 10.316C53.9767 10.52 54.2167 10.632 54.5167 10.632C54.8527 10.632 55.0647 10.424 55.0647 10.164C55.0647 9.876 54.8567 9.688 54.5287 9.688C54.3007 9.688 54.1127 9.76 53.9447 9.92L53.6127 9.824V8.332H55.3607V8.744H54.0807V9.516C54.2087 9.388 54.4287 9.284 54.6847 9.284C55.1327 9.284 55.5367 9.6 55.5367 10.144C55.5367 10.7 55.1167 11.048 54.5207 11.048ZM56.8071 11.048C56.3311 11.048 55.9791 10.856 55.7991 10.616L56.0511 10.308C56.2231 10.508 56.5071 10.632 56.7911 10.632C57.1431 10.632 57.3471 10.472 57.3471 10.224C57.3471 9.96 57.1351 9.848 56.7551 9.848C56.6431 9.848 56.4871 9.848 56.4471 9.852V9.432C56.4951 9.436 56.6511 9.436 56.7551 9.436C57.0671 9.436 57.3031 9.328 57.3031 9.084C57.3031 8.836 57.0631 8.708 56.7631 8.708C56.4911 8.708 56.2671 8.812 56.0751 9.004L55.8351 8.712C56.0391 8.472 56.3631 8.292 56.8071 8.292C57.3831 8.292 57.7711 8.564 57.7711 9.012C57.7711 9.368 57.4671 9.576 57.1911 9.624C57.4511 9.648 57.8111 9.86 57.8111 10.272C57.8111 10.724 57.4231 11.048 56.8071 11.048Z" fill="white"/>
<defs>
<clipPath id="clip0_26835_29216">
<rect width="63" height="88" fill="white"/>
</clipPath>
</defs>
</svg>
