<svg width="63" height="88" viewBox="0 0 63 88" fill="none" xmlns="http://www.w3.org/2000/svg">
<rect width="63" height="88" rx="4" fill="#FF003F"/>
<path d="M36.7008 13.5133L44.7992 3.48665C45.5586 2.54645 46.7024 2 47.911 2H58C59.6569 2 61 3.34314 61 5V83C61 84.6569 59.6569 86 58 86H5C3.34315 86 2 84.6569 2 83V18C2 16.3431 3.34315 15 5 15H33.589C34.7976 15 35.9414 14.4536 36.7008 13.5133Z" fill="#213743"/>
<rect x="5" y="18" width="53" height="40" rx="1" fill="#2F4553"/>
<g clip-path="url(#clip0_26835_29217)">
<path d="M57 18H6C5.44772 18 5 18.4477 5 19V57C5 57.5523 5.44772 58 6 58H57C57.5523 58 58 57.5523 58 57V19C58 18.4477 57.5523 18 57 18Z" fill="#FFC200"/>
<path d="M31.5 54.18C44.8653 54.18 55.7 46.9225 55.7 37.97C55.7 29.0175 44.8653 21.76 31.5 21.76C18.1347 21.76 7.3 29.0175 7.3 37.97C7.3 46.9225 18.1347 54.18 31.5 54.18Z" fill="#FFA300"/>
<path d="M39.22 28.6C39.3 27.96 39.38 27.3 39.45 26.63C39.49 26.23 39.52 25.84 39.56 25.46C39.6 25 39.62 24.57 39.64 24.12C42.1 23.96 43.45 21.55 43.3 19.98C43.23 19.27 42.79 18.58 42.07 18H33.24C32.36 20.8 31.9 24.23 31.6 27.91C30.71 27.88 29.81 27.86 28.89 27.86C27.97 27.86 27.14 27.88 26.29 27.91C26.23 27.19 26.15 26.47 26.06 25.73C25.71 22.9 25.2 20.27 24.61 18H17.96C17.88 20.53 18.02 23.5 18.41 26.67C18.49 27.32 18.58 27.96 18.68 28.59C13.31 29.42 9.73 30.89 9.73 32.56V34.91C9.73 36.01 11.29 37.02 13.88 37.82V58H43.9V37.82C46.49 37.02 48.05 36.01 48.05 34.91V32.56C48.05 30.9 44.52 29.44 39.21 28.61L39.22 28.6Z" fill="#1A2C38"/>
<path d="M17.97 19.99C17.38 20.9 16.91 21.37 16.02 21.94C16.93 22.53 17.4 23 17.97 23.89C18.56 22.98 19.03 22.51 19.92 21.94C19.01 21.35 18.54 20.88 17.97 19.99Z" fill="white"/>
<path d="M52.73 44.4299C52.14 45.3399 51.67 45.8099 50.78 46.3799C51.69 46.9699 52.16 47.4399 52.73 48.3299C53.32 47.4199 53.79 46.9499 54.68 46.3799C53.77 45.7899 53.3 45.3199 52.73 44.4299Z" fill="white"/>
<path d="M43.35 23.84C43.5 22.03 43.57 20.3001 43.56 18.7001L36.66 17.3C36.28 19.03 35.95 20.96 35.71 23C37.04 23.49 39.75 24.22 43.35 23.84Z" fill="#FF7F00"/>
<path d="M35.72 23C35.67 23.41 35.62 23.83 35.58 24.25C34.7 33.05 35.7 40.36 37.82 40.58C39.94 40.8 42.37 33.83 43.25 25.02C43.29 24.62 43.32 24.23 43.36 23.85C39.76 24.23 37.05 23.5 35.72 23.01V23Z" fill="#FFEBB8"/>
<path d="M41.37 28.4599C40.49 37.2599 38.74 44.2999 37.46 44.1699C36.18 44.0399 35.86 36.7999 36.74 27.9999C37.62 19.1999 38.92 16.6899 40.2 16.8199C41.48 16.9499 42.26 19.6599 41.37 28.4699V28.4599Z" fill="#FF5500"/>
<path d="M47.1 18.3499C47.26 20.0699 45.64 22.7799 42.75 22.4899C39.86 22.1999 36.46 18.8699 36.62 17.2999C36.78 15.7299 39.25 14.6899 42.14 14.9799C45.03 15.2699 46.95 16.7799 47.09 18.3499H47.1Z" fill="#FFEBB8"/>
<path d="M45.58 19.25C45.25 20.13 44.44 20.63 43.25 20.18C42.06 19.73 41.37 18.65 41.7 17.77C42.03 16.89 43.27 16.55 44.46 17.01C45.65 17.47 45.91 18.38 45.58 19.25Z" fill="white"/>
<path d="M28.0119 40.4666C30.1222 40.2064 30.9552 32.8769 29.8723 24.0958C28.7895 15.3148 26.2009 8.40724 24.0906 8.66747C21.9803 8.92771 21.1474 16.2571 22.2302 25.0382C23.3131 33.8193 25.9016 40.7268 28.0119 40.4666Z" fill="#FFEBB8"/>
<path d="M28.8 27.8801C29.88 36.6601 29.73 43.9101 28.45 44.0701C27.17 44.2301 25.26 37.2401 24.18 28.4501C23.1 19.6701 23.81 16.9401 25.09 16.7801C26.37 16.6201 27.72 19.1001 28.8 27.8801Z" fill="#FF5500"/>
<path d="M32.7 26.23C31.42 26.23 30.16 26.26 28.95 26.32C28.95 26.32 26.2 26.58 26.2 27.76C26.2 29.21 37.75 30.05 37.75 30.05V35.46C42.66 35.13 46.79 34.33 49.28 33.28H51.85V30.93C51.85 28.33 43.27 26.23 32.7 26.23Z" fill="#45A7FF"/>
<path d="M27.46 27.5501C27.46 26.9901 28.13 26.6001 28.95 26.3301C20.17 26.7601 13.54 28.6601 13.54 30.9401V33.2901H16.11C19.42 34.6901 25.61 35.6401 32.7 35.6401C34.45 35.6401 36.15 35.5801 37.76 35.4701V30.0601C37.76 30.0601 27.46 29.0001 27.46 27.5501Z" fill="#047BFF"/>
<path d="M32.7 37.9801C43.2763 37.9801 51.85 35.8758 51.85 33.2801C51.85 30.6843 43.2763 28.5801 32.7 28.5801C22.1238 28.5801 13.55 30.6843 13.55 33.2801C13.55 35.8758 22.1238 37.9801 32.7 37.9801Z" fill="#047BFF"/>
<path d="M29.7 36.7201C38.034 36.7201 44.79 35.1799 44.79 33.2801C44.79 31.3802 38.034 29.8401 29.7 29.8401C21.366 29.8401 14.61 31.3802 14.61 33.2801C14.61 35.1799 21.366 36.7201 29.7 36.7201Z" fill="#1A2C38"/>
<path d="M47.71 35.1399H17.69V56.5499H47.71V35.1399Z" fill="#047BFF"/>
<path d="M32.7 59.6799C40.9898 59.6799 47.71 58.2786 47.71 56.5499C47.71 54.8213 40.9898 53.4199 32.7 53.4199C24.4102 53.4199 17.69 54.8213 17.69 56.5499C17.69 58.2786 24.4102 59.6799 32.7 59.6799Z" fill="#047BFF"/>
<path d="M34.9 35.6299H23.41V56.5899H34.9V35.6299Z" fill="#45A7FF"/>
<path d="M34.31 58.11C40.9982 58.11 46.42 57.2906 46.42 56.2799C46.42 55.2693 40.9982 54.45 34.31 54.45C27.6218 54.45 22.2 55.2693 22.2 56.2799C22.2 57.2906 27.6218 58.11 34.31 58.11Z" fill="#45A7FF"/>
<path d="M31.68 58.7401C38.3682 58.7401 43.79 57.9208 43.79 56.9101C43.79 55.8994 38.3682 55.0801 31.68 55.0801C24.9918 55.0801 19.57 55.8994 19.57 56.9101C19.57 57.9208 24.9918 58.7401 31.68 58.7401Z" fill="#1A2C38"/>
<path d="M26.1836 55.5289C28.5885 55.3261 30.511 54.8405 30.4776 54.4443C30.4442 54.048 28.4675 53.8912 26.0626 54.094C23.6576 54.2968 21.7351 54.7824 21.7685 55.1786C21.8019 55.5749 23.7786 55.7317 26.1836 55.5289Z" fill="white"/>
<path d="M48.7913 29.7377C48.9215 29.1047 47.3912 28.2553 45.3734 27.8404C43.3556 27.4254 41.6143 27.6022 41.4842 28.2351C41.354 28.868 42.8843 29.7175 44.9021 30.1324C46.9199 30.5473 48.6612 30.3706 48.7913 29.7377Z" fill="white"/>
<path d="M34.89 30.73C32.86 33.81 32.78 36.98 34.89 40.26C42.14 40.48 47.7 41.78 47.7 43.35V33.82C47.7 32.25 42.13 30.95 34.89 30.73Z" fill="#FF7F00"/>
<path d="M32.7 30.7C29.19 30.7 25.96 30.95 23.41 31.37C21.77 34.59 21.75 37.77 23.41 40.9C25.97 40.48 29.19 40.2299 32.7 40.2299C33.45 40.2299 34.18 40.2399 34.89 40.2599V30.7299C34.17 30.7099 33.44 30.7 32.7 30.7Z" fill="#FFC200"/>
<path d="M17.69 33.8301V43.3601C17.69 42.3601 19.93 41.4801 23.41 40.9001V31.3701C19.93 31.9401 17.69 32.8301 17.69 33.8301Z" fill="#FF7F00"/>
</g>
<path fill-rule="evenodd" clip-rule="evenodd" d="M6.49771 79C6.98969 79 7.48602 79.213 7.49037 79.6913C7.49037 80.1043 7.24656 80.2696 6.99839 80.2696C6.75023 80.2696 6.73281 80.1435 6.73281 80.1435C6.73281 80.1435 7.02452 79.9261 7.02452 79.7174C7.02452 79.6087 6.94179 79.313 6.489 79.3174C5.8577 79.3174 5.5181 79.6174 5.5181 80.1522C5.5181 80.7652 7.35105 80.9739 7.3554 81.7652C7.3554 82.613 6.47594 82.9957 5.69225 83C5.283 83 5.01306 82.7609 5.00871 82.3783C5.00871 81.9261 5.22204 81.4652 5.75756 81.4652C5.88382 81.4565 5.98831 81.5522 5.99702 81.6783C5.99702 81.6783 5.99702 81.6826 5.99702 81.687C5.99702 81.687 5.45715 81.8391 5.4615 82.3783C5.4615 82.4783 5.56599 82.6609 5.81851 82.6565C6.07103 82.6522 6.82424 82.4739 6.81989 81.8087C6.81989 81.1913 5.00435 81.1087 5 80.1478C5 79.0652 6.08845 79.0087 6.49771 79.0087V79ZM10.747 79.6C10.8123 79.5696 11.2129 79.4913 11.1955 79.813C11.1824 80.1348 10.9386 80.6913 10.9037 80.9348C11.2303 80.7696 11.6918 80.2087 11.6918 80.2087C11.6918 80.2087 12.0183 80.2522 11.9182 80.4522C11.818 80.6522 11.1519 81.1435 11.1519 81.1435C11.1519 81.1435 11.3043 82.5696 12.1707 82.5696C12.6453 82.5696 12.8499 82.3609 12.937 82.287C12.9587 82.2696 12.9762 82.2652 12.9849 82.2783C13.0197 82.387 12.9936 82.5043 12.9152 82.5913C12.8194 82.6957 12.5974 82.8217 12.1533 82.8261C11.3653 82.8261 10.9255 82.1957 10.8123 81.2609C10.7252 81.5348 10.7339 81.9826 10.7209 82.2C10.6948 82.2435 10.2507 82.4174 10.2158 82.1174C10.2158 82.0913 10.2158 82.0696 10.2158 82.0435C10.1331 82.1609 10.0199 82.2826 9.91108 82.2826C9.71951 82.2826 9.63679 82.1217 9.60196 82.0391C9.57584 82.0696 9.3625 82.287 9.08821 82.287C8.92277 82.2913 8.77474 82.1957 8.70943 82.0435C8.57011 82.1435 8.32195 82.2913 8.03895 82.2913C7.73418 82.2913 7.66017 82.1087 7.66017 81.9565C7.66017 81.713 7.84303 80.987 7.84303 80.987C7.84303 80.987 7.48602 81.1304 7.36411 81.1348C7.19431 81.1348 7.11159 80.8217 7.11159 80.813C7.11159 80.8087 7.11159 80.8 7.1203 80.8C7.22044 80.7609 7.94317 80.513 7.94317 80.513C7.94317 80.513 8.07813 79.9826 8.09555 79.913C8.11296 79.8435 8.2131 79.7 8.33065 79.6565C8.41773 79.6217 8.50916 79.6 8.60059 79.5913C8.63107 79.5913 8.65284 79.6 8.65284 79.6174C8.65284 79.6348 8.47433 80.4087 8.47433 80.4087C8.47433 80.4087 8.84876 80.3217 8.98808 80.3217C9.09692 80.3217 9.15352 80.387 9.09257 80.4696C9.03162 80.5522 8.96196 80.6478 8.92712 80.6913C8.88794 80.7348 8.86182 80.7435 8.77039 80.7609C8.64413 80.787 8.36113 80.8565 8.36113 80.8565C8.36113 80.8565 8.13473 81.6783 8.13909 81.8174C8.13909 81.8957 8.16521 81.987 8.26099 81.987C8.35678 81.987 8.53964 81.8739 8.67025 81.7913C8.69202 81.1522 9.18835 80.7261 9.57584 80.7261C9.7021 80.7261 9.65421 80.8478 9.79788 80.8478H9.88931C9.94591 80.8478 10.0069 80.8522 10.0069 80.9957C10.0069 81.1957 9.89367 81.5261 9.89367 81.7348C9.89367 81.8826 9.91544 81.987 9.97204 81.987C10.0678 81.987 10.1767 81.8478 10.255 81.7261C10.3813 81.0304 10.734 79.7609 10.734 79.6174L10.747 79.6ZM12.5016 80.7C12.7672 80.6783 12.9326 80.8217 12.9631 80.9C12.9936 80.9783 12.9892 81.1609 12.9152 81.2913C12.6845 81.7044 12.1097 81.6304 12.1097 81.6304C12.1097 81.6304 12.0444 81.9565 12.3405 81.9565C12.593 81.9565 12.7062 81.8304 12.8151 81.7261C12.8586 81.7261 12.9936 81.8652 12.9326 81.9609C12.8847 82.0348 12.6191 82.2565 12.2795 82.2609C11.7397 82.2609 11.6047 81.8 11.6744 81.4696C11.7658 81.0609 12.1751 80.7217 12.5016 80.6957V80.7ZM9.6455 80.987C9.32332 80.987 8.82699 81.9696 9.20577 81.9652C9.61938 81.9652 9.6455 81.1826 9.6455 81.0043V80.987ZM12.6409 80.8913C12.4232 80.9 12.1751 81.3174 12.1533 81.5C12.4798 81.513 12.654 81.1957 12.6757 81.0696C12.6888 80.9739 12.6932 80.887 12.6409 80.887V80.8913Z" fill="#557086"/>
<path d="M56.1444 79.3778L56.6412 80.278L57.6518 80.4733C57.7792 80.4988 57.8302 80.6559 57.741 80.7494L57.0361 81.5009L57.1635 82.5243C57.1805 82.6559 57.0446 82.7494 56.93 82.6942L56 82.2568L55.0701 82.6942C54.9512 82.7494 54.8196 82.6517 54.8366 82.5243L54.9639 81.5009L54.2591 80.7494C54.1699 80.6559 54.2208 80.4988 54.3482 80.4733L55.3588 80.278L55.8557 79.3778C55.9194 79.2632 56.085 79.2632 56.1444 79.3778Z" fill="#FFC200"/>
<path d="M56 79.2929C56.0552 79.2929 56.1147 79.3226 56.1444 79.3778L56.6412 80.278L57.6518 80.4733C57.7792 80.4988 57.8302 80.6559 57.741 80.7494L57.0361 81.5009L57.1635 82.5243C57.1763 82.6262 57.0955 82.7111 56.9979 82.7111C56.9766 82.7111 56.9512 82.7069 56.9257 82.6942L55.9957 82.2568L55.0658 82.6942C55.0403 82.7069 55.0191 82.7111 54.9936 82.7111C54.9002 82.7111 54.8153 82.6262 54.828 82.5243L54.9554 81.5009L54.2505 80.7494C54.1613 80.6559 54.2123 80.4988 54.3397 80.4733L55.3503 80.278L55.8471 79.3778C55.8768 79.3226 55.9363 79.2929 55.9915 79.2929M56 79.0806C55.8641 79.0806 55.7367 79.157 55.6688 79.2759L55.2187 80.0912L54.3057 80.2653C54.1698 80.2908 54.0594 80.3884 54.017 80.5201C53.9745 80.6517 54.0085 80.7961 54.1019 80.8937L54.7388 81.5731L54.6242 82.4946C54.6115 82.6007 54.6454 82.7111 54.7134 82.7918C54.7856 82.8725 54.8875 82.9192 54.9979 82.9192C55.0531 82.9192 55.1083 82.9065 55.1592 82.881L56 82.4861L56.8408 82.881C56.8917 82.9065 56.9469 82.9192 57.0021 82.9192C57.1125 82.9192 57.2144 82.8725 57.2866 82.7918C57.3588 82.7111 57.3928 82.6007 57.3758 82.4946L57.2611 81.5731L57.8981 80.8937C57.9915 80.7918 58.0255 80.6474 57.983 80.5201C57.9405 80.3884 57.8301 80.2908 57.6943 80.2653L56.7813 80.0912L56.3312 79.2759C56.2633 79.157 56.1359 79.0806 56 79.0806Z" fill="#213743"/>
<path d="M56 79.8152V80.9744C56 81.0678 56.0892 81.1315 56.1784 81.106L57.2187 80.7706C57.2739 80.7536 57.2697 80.6729 57.2102 80.6602L56.5563 80.5413C56.4969 80.5286 56.4417 80.4903 56.4119 80.4351L56.085 79.7939C56.0637 79.7515 55.9958 79.7642 55.9958 79.8152H56Z" fill="#FFEBB8"/>
<path d="M56 81.4924V82.0699C56 82.1039 56.017 82.1294 56.0467 82.1464L56.7983 82.5073C56.8365 82.5243 56.8705 82.4818 56.845 82.4479L56.0934 81.4627C56.0637 81.4245 56 81.4457 56 81.4924Z" fill="#FF7F00"/>
<rect x="13" y="62" width="37" height="13" rx="6.5" fill="#2F4553"/>
<path d="M29.9122 70.072C29.1442 70.072 28.5682 69.802 28.2562 69.442L28.7782 68.74C29.0662 69.022 29.5222 69.16 29.8702 69.16C30.3142 69.16 30.5422 68.992 30.5422 68.77C30.5422 68.542 30.3742 68.434 29.8282 68.434C29.6542 68.434 29.3482 68.434 29.2882 68.44V67.522C29.3662 67.528 29.6782 67.528 29.8282 67.528C30.2422 67.528 30.4762 67.426 30.4762 67.216C30.4762 66.964 30.1882 66.85 29.8042 66.85C29.4382 66.85 29.0902 66.982 28.8082 67.234L28.3102 66.586C28.6462 66.208 29.1742 65.938 29.9122 65.938C30.9322 65.938 31.5022 66.376 31.5022 67.036C31.5022 67.504 31.1002 67.858 30.6262 67.936C31.0522 67.978 31.5682 68.308 31.5682 68.884C31.5682 69.586 30.9082 70.072 29.9122 70.072ZM34.8775 70H33.8635L33.3055 69.124L32.7415 70H31.7335L32.7235 68.512L31.7935 67.102H32.8075L33.3055 67.888L33.7975 67.102H34.8115L33.8875 68.512L34.8775 70Z" fill="white"/>
<path d="M8.03 11H7.215L6.56 9.815H6.04V11H5.33V7.665H6.89C7.585 7.665 8.01 8.12 8.01 8.74C8.01 9.33 7.64 9.645 7.28 9.73L8.03 11ZM6.785 9.19C7.07 9.19 7.285 9.02 7.285 8.74C7.285 8.46 7.07 8.29 6.785 8.29H6.04V9.19H6.785ZM10.5152 11H9.88023V10.75C9.71523 10.945 9.43023 11.06 9.11523 11.06C8.73023 11.06 8.27523 10.8 8.27523 10.26C8.27523 9.695 8.73023 9.48 9.11523 9.48C9.43523 9.48 9.72023 9.585 9.88023 9.775V9.45C9.88023 9.205 9.67023 9.045 9.35023 9.045C9.09023 9.045 8.85023 9.14 8.64523 9.33L8.40523 8.905C8.70023 8.645 9.08023 8.525 9.46023 8.525C10.0102 8.525 10.5152 8.745 10.5152 9.44V11ZM9.37023 10.63C9.57523 10.63 9.77523 10.56 9.88023 10.42V10.12C9.77523 9.98 9.57523 9.91 9.37023 9.91C9.12023 9.91 8.91523 10.04 8.91523 10.275C8.91523 10.5 9.12023 10.63 9.37023 10.63ZM11.7801 11H11.1451V8.585H11.7801V8.915C11.9501 8.7 12.2501 8.525 12.5501 8.525V9.145C12.5051 9.135 12.4451 9.13 12.3751 9.13C12.1651 9.13 11.8851 9.25 11.7801 9.405V11ZM14.0818 11.06C13.3468 11.06 12.7918 10.565 12.7918 9.79C12.7918 9.09 13.3068 8.525 14.0418 8.525C14.7618 8.525 15.2518 9.065 15.2518 9.855V9.995H13.4568C13.4968 10.3 13.7418 10.555 14.1518 10.555C14.3568 10.555 14.6418 10.465 14.7968 10.315L15.0768 10.725C14.8368 10.945 14.4568 11.06 14.0818 11.06ZM14.6368 9.565C14.6218 9.335 14.4618 9.03 14.0418 9.03C13.6468 9.03 13.4768 9.325 13.4468 9.565H14.6368Z" fill="white"/>
<path d="M48.7171 11H48.2651L46.8731 9.096V11H46.4051V8.332H46.8851L48.2491 10.184V8.332H48.7171V11ZM50.144 11.048C49.532 11.048 49.152 10.588 49.152 10.032C49.152 9.48 49.532 9.02 50.144 9.02C50.764 9.02 51.14 9.48 51.14 10.032C51.14 10.588 50.764 11.048 50.144 11.048ZM50.144 10.676C50.504 10.676 50.704 10.376 50.704 10.032C50.704 9.692 50.504 9.392 50.144 9.392C49.788 9.392 49.588 9.692 49.588 10.032C49.588 10.376 49.788 10.676 50.144 10.676ZM51.7614 11.044C51.6094 11.044 51.4814 10.916 51.4814 10.764C51.4814 10.612 51.6094 10.484 51.7614 10.484C51.9134 10.484 52.0414 10.612 52.0414 10.764C52.0414 10.916 51.9134 11.044 51.7614 11.044ZM54.4973 11.048C54.0373 11.048 53.7213 10.892 53.5053 10.636L53.7733 10.316C53.9533 10.52 54.1933 10.632 54.4933 10.632C54.8293 10.632 55.0413 10.424 55.0413 10.164C55.0413 9.876 54.8333 9.688 54.5053 9.688C54.2773 9.688 54.0893 9.76 53.9213 9.92L53.5893 9.824V8.332H55.3372V8.744H54.0573V9.516C54.1853 9.388 54.4053 9.284 54.6613 9.284C55.1093 9.284 55.5133 9.6 55.5133 10.144C55.5133 10.7 55.0933 11.048 54.4973 11.048ZM57.5317 11H57.0637V10.396H55.7917V10.02L56.8877 8.332H57.5317V9.984H57.8877V10.396H57.5317V11ZM57.0637 9.984V8.752L56.2517 9.984H57.0637Z" fill="white"/>
<defs>
<clipPath id="clip0_26835_29217">
<rect width="63" height="88" fill="white"/>
</clipPath>
</defs>
</svg>
