<svg width="63" height="88" viewBox="0 0 63 88" fill="none" xmlns="http://www.w3.org/2000/svg">
<rect width="63" height="88" rx="4" fill="#FF003F"/>
<path d="M36.7008 13.5133L44.7992 3.48665C45.5586 2.54645 46.7024 2 47.911 2H58C59.6569 2 61 3.34314 61 5V83C61 84.6569 59.6569 86 58 86H5C3.34315 86 2 84.6569 2 83V18C2 16.3431 3.34315 15 5 15H33.589C34.7976 15 35.9414 14.4536 36.7008 13.5133Z" fill="#213743"/>
<rect x="5" y="18" width="53" height="40" rx="1" fill="#2F4553"/>
<g clip-path="url(#clip0_26835_29218)">
<path d="M57 18H6C5.44772 18 5 18.4477 5 19V57C5 57.5523 5.44772 58 6 58H57C57.5523 58 58 57.5523 58 57V19C58 18.4477 57.5523 18 57 18Z" fill="#047BFF"/>
<path d="M58 28.8501H5V47.1501H58V28.8501Z" fill="#45A7FF"/>
<path d="M18.3 22.4L16.72 29.27C14.18 29.72 12.04 31.63 11.42 34.3C11.14 35.52 11.22 36.74 11.59 37.85C9.99999 39.35 8.84999 41.19 8.36999 43.3C7.10999 48.75 10.46 54.45 16.32 57.99H40.23C42.39 56.35 43.93 54.19 44.52 51.63C45.01 49.52 44.78 47.37 44.01 45.31C44.83 44.47 45.43 43.41 45.72 42.19C46.54 38.63 44.32 35.08 40.76 34.26C40.37 34.17 39.99 34.12 39.6 34.1L41.17 27.29C43.02 26.68 44.53 25.15 45 23.1C45.44 21.21 44.88 19.32 43.69 17.97H16C16.07 19.72 16.92 21.34 18.3 22.37V22.4Z" fill="#1A2C38"/>
<path d="M43.78 45.72C47.4306 45.72 50.39 42.7606 50.39 39.11C50.39 35.4594 47.4306 32.5 43.78 32.5C40.1294 32.5 37.17 35.4594 37.17 39.11C37.17 42.7606 40.1294 45.72 43.78 45.72Z" fill="#008C00"/>
<path d="M43.78 43.51C46.2101 43.51 48.18 41.54 48.18 39.11C48.18 36.6799 46.2101 34.71 43.78 34.71C41.3499 34.71 39.38 36.6799 39.38 39.11C39.38 41.54 41.3499 43.51 43.78 43.51Z" fill="white"/>
<path d="M46.2573 38.2182L43.0319 37.4747C42.5368 37.3606 42.0429 37.6694 41.9287 38.1646L41.9265 38.1743C41.8124 38.6694 42.1212 39.1633 42.6163 39.2774L45.8418 40.0209C46.3369 40.135 46.8308 39.8262 46.9449 39.3311L46.9471 39.3213C47.0613 38.8262 46.7524 38.3323 46.2573 38.2182Z" fill="#1A2C38"/>
<path d="M49.0259 50.0281C50.7267 42.6497 44.0124 34.803 34.0293 32.5018C24.0462 30.2007 14.5746 34.3166 12.8739 41.695C11.1732 49.0734 17.8874 56.9201 27.8705 59.2212C37.8536 61.5223 47.3252 57.4064 49.0259 50.0281Z" fill="#008C00"/>
<path d="M24.44 13.72L19.98 33.1C28.55 31.72 36.11 31.72 43.14 36.73L47.23 18.97L24.44 13.72Z" fill="#FFC201"/>
<path d="M25.55 24.35C25.55 24.35 31.35 26.02 36 23.93L29.54 18.97L26.51 20.16L25.55 24.34V24.35Z" fill="#F87915"/>
<path d="M28.38 18.3299L25.36 31.4299L20.81 29.4599L23.47 17.9399L28.38 18.3299Z" fill="#F87915"/>
<path d="M22.37 40.7801C26.0206 40.7801 28.98 37.8207 28.98 34.1701C28.98 30.5195 26.0206 27.5601 22.37 27.5601C18.7194 27.5601 15.76 30.5195 15.76 34.1701C15.76 37.8207 18.7194 40.7801 22.37 40.7801Z" fill="#008C00"/>
<path d="M46.36 51.75C45.12 57.14 37.49 59.99 29.33 58.11C21.17 56.23 15.56 50.33 16.8 44.94C18.04 39.55 26.38 44.37 34.54 46.25C42.7 48.13 47.61 46.36 46.36 51.75Z" fill="#1CE61C"/>
<path d="M44.2644 42.041C44.856 41.2353 43.5494 39.2704 41.3458 37.6523C39.1423 36.0343 36.8763 35.3757 36.2847 36.1815C35.693 36.9872 36.9997 38.9521 39.2032 40.5702C41.4068 42.1882 43.6727 42.8467 44.2644 42.041Z" fill="#1CE61C"/>
<path d="M28.8904 57.3935C29.1508 56.8386 27.3071 55.4243 24.7722 54.2348C22.2374 53.0452 19.9714 52.5308 19.7109 53.0857C19.4505 53.6407 21.2943 55.0549 23.8291 56.2445C26.3639 57.434 28.63 57.9485 28.8904 57.3935Z" fill="white"/>
<path d="M22.37 38.57C24.8001 38.57 26.77 36.6001 26.77 34.17C26.77 31.74 24.8001 29.77 22.37 29.77C19.9399 29.77 17.97 31.74 17.97 34.17C17.97 36.6001 19.9399 38.57 22.37 38.57Z" fill="white"/>
<path d="M24.29 43.1799C24.29 43.1799 25.8 46.1699 31.72 47.7499C37.64 49.3299 41.44 47.2999 41.44 47.2999C31.99 46.0899 31.49 44.6799 24.29 43.1699V43.1799Z" fill="#1A2C38"/>
<path d="M24.1779 33.6457L20.9525 32.9022C20.4574 32.7881 19.9635 33.0969 19.8494 33.592L19.8471 33.6018C19.733 34.0969 20.0419 34.5908 20.537 34.7049L23.7624 35.4484C24.2575 35.5625 24.7514 35.2537 24.8656 34.7585L24.8678 34.7488C24.9819 34.2537 24.6731 33.7598 24.1779 33.6457Z" fill="#1A2C38"/>
<path d="M26.27 21.9399C29.4622 21.9399 32.05 19.3521 32.05 16.1599C32.05 12.9677 29.4622 10.3799 26.27 10.3799C23.0778 10.3799 20.49 12.9677 20.49 16.1599C20.49 19.3521 23.0778 21.9399 26.27 21.9399Z" fill="#FFC201"/>
<path d="M36.22 24.2599C39.97 24.2599 43.01 21.2199 43.01 17.4699C43.01 13.7199 39.97 10.6799 36.22 10.6799C32.47 10.6799 29.43 13.7199 29.43 17.4699C29.43 21.2199 32.47 24.2599 36.22 24.2599Z" fill="#FFC201"/>
<path d="M43.87 25.9999C47.0622 25.9999 49.65 23.4121 49.65 20.2199C49.65 17.0277 47.0622 14.4399 43.87 14.4399C40.6778 14.4399 38.09 17.0277 38.09 20.2199C38.09 23.4121 40.6778 25.9999 43.87 25.9999Z" fill="#FFC201"/>
<path d="M45.08 21.6C46.4994 21.6 47.65 20.4493 47.65 19.03C47.65 17.6106 46.4994 16.46 45.08 16.46C43.6606 16.46 42.51 17.6106 42.51 19.03C42.51 20.4493 43.6606 21.6 45.08 21.6Z" fill="white"/>
<path d="M17.97 19.99C17.38 20.9 16.91 21.37 16.02 21.94C16.93 22.53 17.4 23 17.97 23.89C18.56 22.98 19.03 22.51 19.92 21.94C19.01 21.35 18.54 20.88 17.97 19.99Z" fill="white"/>
<path d="M52.73 44.4299C52.14 45.3399 51.67 45.8099 50.78 46.3799C51.69 46.9699 52.16 47.4399 52.73 48.3299C53.32 47.4199 53.79 46.9499 54.68 46.3799C53.77 45.7899 53.3 45.3199 52.73 44.4299Z" fill="white"/>
</g>
<path fill-rule="evenodd" clip-rule="evenodd" d="M6.49771 79C6.98969 79 7.48602 79.213 7.49037 79.6913C7.49037 80.1043 7.24656 80.2696 6.99839 80.2696C6.75023 80.2696 6.73281 80.1435 6.73281 80.1435C6.73281 80.1435 7.02452 79.9261 7.02452 79.7174C7.02452 79.6087 6.94179 79.313 6.489 79.3174C5.8577 79.3174 5.5181 79.6174 5.5181 80.1522C5.5181 80.7652 7.35105 80.9739 7.3554 81.7652C7.3554 82.613 6.47594 82.9957 5.69225 83C5.283 83 5.01306 82.7609 5.00871 82.3783C5.00871 81.9261 5.22204 81.4652 5.75756 81.4652C5.88382 81.4565 5.98831 81.5522 5.99702 81.6783C5.99702 81.6783 5.99702 81.6826 5.99702 81.687C5.99702 81.687 5.45715 81.8391 5.4615 82.3783C5.4615 82.4783 5.56599 82.6609 5.81851 82.6565C6.07103 82.6522 6.82424 82.4739 6.81989 81.8087C6.81989 81.1913 5.00435 81.1087 5 80.1478C5 79.0652 6.08845 79.0087 6.49771 79.0087V79ZM10.747 79.6C10.8123 79.5696 11.2129 79.4913 11.1955 79.813C11.1824 80.1348 10.9386 80.6913 10.9037 80.9348C11.2303 80.7696 11.6918 80.2087 11.6918 80.2087C11.6918 80.2087 12.0183 80.2522 11.9182 80.4522C11.818 80.6522 11.1519 81.1435 11.1519 81.1435C11.1519 81.1435 11.3043 82.5696 12.1707 82.5696C12.6453 82.5696 12.8499 82.3609 12.937 82.287C12.9587 82.2696 12.9762 82.2652 12.9849 82.2783C13.0197 82.387 12.9936 82.5043 12.9152 82.5913C12.8194 82.6957 12.5974 82.8217 12.1533 82.8261C11.3653 82.8261 10.9255 82.1957 10.8123 81.2609C10.7252 81.5348 10.7339 81.9826 10.7209 82.2C10.6948 82.2435 10.2507 82.4174 10.2158 82.1174C10.2158 82.0913 10.2158 82.0696 10.2158 82.0435C10.1331 82.1609 10.0199 82.2826 9.91108 82.2826C9.71951 82.2826 9.63679 82.1217 9.60196 82.0391C9.57584 82.0696 9.3625 82.287 9.08821 82.287C8.92277 82.2913 8.77474 82.1957 8.70943 82.0435C8.57011 82.1435 8.32195 82.2913 8.03895 82.2913C7.73418 82.2913 7.66017 82.1087 7.66017 81.9565C7.66017 81.713 7.84303 80.987 7.84303 80.987C7.84303 80.987 7.48602 81.1304 7.36411 81.1348C7.19431 81.1348 7.11159 80.8217 7.11159 80.813C7.11159 80.8087 7.11159 80.8 7.1203 80.8C7.22044 80.7609 7.94317 80.513 7.94317 80.513C7.94317 80.513 8.07813 79.9826 8.09555 79.913C8.11296 79.8435 8.2131 79.7 8.33065 79.6565C8.41773 79.6217 8.50916 79.6 8.60059 79.5913C8.63107 79.5913 8.65284 79.6 8.65284 79.6174C8.65284 79.6348 8.47433 80.4087 8.47433 80.4087C8.47433 80.4087 8.84876 80.3217 8.98808 80.3217C9.09692 80.3217 9.15352 80.387 9.09257 80.4696C9.03162 80.5522 8.96196 80.6478 8.92712 80.6913C8.88794 80.7348 8.86182 80.7435 8.77039 80.7609C8.64413 80.787 8.36113 80.8565 8.36113 80.8565C8.36113 80.8565 8.13473 81.6783 8.13909 81.8174C8.13909 81.8957 8.16521 81.987 8.26099 81.987C8.35678 81.987 8.53964 81.8739 8.67025 81.7913C8.69202 81.1522 9.18835 80.7261 9.57584 80.7261C9.7021 80.7261 9.65421 80.8478 9.79788 80.8478H9.88931C9.94591 80.8478 10.0069 80.8522 10.0069 80.9957C10.0069 81.1957 9.89367 81.5261 9.89367 81.7348C9.89367 81.8826 9.91544 81.987 9.97204 81.987C10.0678 81.987 10.1767 81.8478 10.255 81.7261C10.3813 81.0304 10.734 79.7609 10.734 79.6174L10.747 79.6ZM12.5016 80.7C12.7672 80.6783 12.9326 80.8217 12.9631 80.9C12.9936 80.9783 12.9892 81.1609 12.9152 81.2913C12.6845 81.7044 12.1097 81.6304 12.1097 81.6304C12.1097 81.6304 12.0444 81.9565 12.3405 81.9565C12.593 81.9565 12.7062 81.8304 12.8151 81.7261C12.8586 81.7261 12.9936 81.8652 12.9326 81.9609C12.8847 82.0348 12.6191 82.2565 12.2795 82.2609C11.7397 82.2609 11.6047 81.8 11.6744 81.4696C11.7658 81.0609 12.1751 80.7217 12.5016 80.6957V80.7ZM9.6455 80.987C9.32332 80.987 8.82699 81.9696 9.20577 81.9652C9.61938 81.9652 9.6455 81.1826 9.6455 81.0043V80.987ZM12.6409 80.8913C12.4232 80.9 12.1751 81.3174 12.1533 81.5C12.4798 81.513 12.654 81.1957 12.6757 81.0696C12.6888 80.9739 12.6932 80.887 12.6409 80.887V80.8913Z" fill="#557086"/>
<path d="M56.1444 79.3778L56.6412 80.278L57.6519 80.4733C57.7792 80.4988 57.8302 80.6559 57.741 80.7494L57.0361 81.5009L57.1635 82.5243C57.1805 82.6559 57.0446 82.7494 56.93 82.6942L56.0001 82.2568L55.0701 82.6942C54.9512 82.7494 54.8196 82.6517 54.8366 82.5243L54.964 81.5009L54.2591 80.7494C54.1699 80.6559 54.2209 80.4988 54.3482 80.4733L55.3589 80.278L55.8557 79.3778C55.9194 79.2632 56.085 79.2632 56.1444 79.3778Z" fill="#FFC200"/>
<path d="M56 79.2929C56.0552 79.2929 56.1147 79.3226 56.1444 79.3778L56.6412 80.278L57.6519 80.4733C57.7792 80.4988 57.8302 80.6559 57.741 80.7494L57.0361 81.5009L57.1635 82.5243C57.1763 82.6262 57.0955 82.7111 56.9979 82.7111C56.9767 82.7111 56.9512 82.7069 56.9257 82.6942L55.9958 82.2568L55.0658 82.6942C55.0403 82.7069 55.0191 82.7111 54.9936 82.7111C54.9002 82.7111 54.8153 82.6262 54.828 82.5243L54.9554 81.5009L54.2505 80.7494C54.1614 80.6559 54.2123 80.4988 54.3397 80.4733L55.3503 80.278L55.8471 79.3778C55.8769 79.3226 55.9363 79.2929 55.9915 79.2929M56 79.0806C55.8641 79.0806 55.7367 79.157 55.6688 79.2759L55.2187 80.0912L54.3057 80.2653C54.1699 80.2908 54.0595 80.3884 54.017 80.5201C53.9745 80.6517 54.0085 80.7961 54.1019 80.8937L54.7389 81.5731L54.6242 82.4946C54.6115 82.6007 54.6454 82.7111 54.7134 82.7918C54.7856 82.8725 54.8875 82.9192 54.9979 82.9192C55.0531 82.9192 55.1083 82.9065 55.1592 82.881L56 82.4861L56.8408 82.881C56.8917 82.9065 56.9469 82.9192 57.0021 82.9192C57.1125 82.9192 57.2144 82.8725 57.2866 82.7918C57.3588 82.7111 57.3928 82.6007 57.3758 82.4946L57.2612 81.5731L57.8981 80.8937C57.9915 80.7918 58.0255 80.6474 57.983 80.5201C57.9406 80.3884 57.8302 80.2908 57.6943 80.2653L56.7813 80.0912L56.3312 79.2759C56.2633 79.157 56.1359 79.0806 56 79.0806Z" fill="#213743"/>
<path d="M56.0001 79.8152V80.9744C56.0001 81.0678 56.0892 81.1315 56.1784 81.106L57.2187 80.7706C57.2739 80.7536 57.2697 80.6729 57.2102 80.6602L56.5563 80.5413C56.4969 80.5286 56.4417 80.4903 56.4119 80.4351L56.085 79.7939C56.0637 79.7515 55.9958 79.7642 55.9958 79.8152H56.0001Z" fill="#FFEBB8"/>
<path d="M56 81.4924V82.0699C56 82.1039 56.017 82.1294 56.0468 82.1464L56.7983 82.5073C56.8366 82.5243 56.8705 82.4818 56.8451 82.4479L56.0935 81.4627C56.0637 81.4245 56 81.4457 56 81.4924Z" fill="#FF7F00"/>
<rect x="13" y="62" width="37" height="13" rx="6.5" fill="#2F4553"/>
<path d="M29.9122 70.072C29.1442 70.072 28.5682 69.802 28.2562 69.442L28.7782 68.74C29.0662 69.022 29.5222 69.16 29.8702 69.16C30.3142 69.16 30.5422 68.992 30.5422 68.77C30.5422 68.542 30.3742 68.434 29.8282 68.434C29.6542 68.434 29.3482 68.434 29.2882 68.44V67.522C29.3662 67.528 29.6782 67.528 29.8282 67.528C30.2422 67.528 30.4762 67.426 30.4762 67.216C30.4762 66.964 30.1882 66.85 29.8042 66.85C29.4382 66.85 29.0902 66.982 28.8082 67.234L28.3102 66.586C28.6462 66.208 29.1742 65.938 29.9122 65.938C30.9322 65.938 31.5022 66.376 31.5022 67.036C31.5022 67.504 31.1002 67.858 30.6262 67.936C31.0522 67.978 31.5682 68.308 31.5682 68.884C31.5682 69.586 30.9082 70.072 29.9122 70.072ZM34.8775 70H33.8635L33.3055 69.124L32.7415 70H31.7335L32.7235 68.512L31.7935 67.102H32.8075L33.3055 67.888L33.7975 67.102H34.8115L33.8875 68.512L34.8775 70Z" fill="white"/>
<path d="M8.03 11H7.215L6.56 9.815H6.04V11H5.33V7.665H6.89C7.585 7.665 8.01 8.12 8.01 8.74C8.01 9.33 7.64 9.645 7.28 9.73L8.03 11ZM6.785 9.19C7.07 9.19 7.285 9.02 7.285 8.74C7.285 8.46 7.07 8.29 6.785 8.29H6.04V9.19H6.785ZM10.5152 11H9.88023V10.75C9.71523 10.945 9.43023 11.06 9.11523 11.06C8.73023 11.06 8.27523 10.8 8.27523 10.26C8.27523 9.695 8.73023 9.48 9.11523 9.48C9.43523 9.48 9.72023 9.585 9.88023 9.775V9.45C9.88023 9.205 9.67023 9.045 9.35023 9.045C9.09023 9.045 8.85023 9.14 8.64523 9.33L8.40523 8.905C8.70023 8.645 9.08023 8.525 9.46023 8.525C10.0102 8.525 10.5152 8.745 10.5152 9.44V11ZM9.37023 10.63C9.57523 10.63 9.77523 10.56 9.88023 10.42V10.12C9.77523 9.98 9.57523 9.91 9.37023 9.91C9.12023 9.91 8.91523 10.04 8.91523 10.275C8.91523 10.5 9.12023 10.63 9.37023 10.63ZM11.7801 11H11.1451V8.585H11.7801V8.915C11.9501 8.7 12.2501 8.525 12.5501 8.525V9.145C12.5051 9.135 12.4451 9.13 12.3751 9.13C12.1651 9.13 11.8851 9.25 11.7801 9.405V11ZM14.0818 11.06C13.3468 11.06 12.7918 10.565 12.7918 9.79C12.7918 9.09 13.3068 8.525 14.0418 8.525C14.7618 8.525 15.2518 9.065 15.2518 9.855V9.995H13.4568C13.4968 10.3 13.7418 10.555 14.1518 10.555C14.3568 10.555 14.6418 10.465 14.7968 10.315L15.0768 10.725C14.8368 10.945 14.4568 11.06 14.0818 11.06ZM14.6368 9.565C14.6218 9.335 14.4618 9.03 14.0418 9.03C13.6468 9.03 13.4768 9.325 13.4468 9.565H14.6368Z" fill="white"/>
<path d="M48.639 11H48.187L46.795 9.096V11H46.327V8.332H46.807L48.171 10.184V8.332H48.639V11ZM50.0659 11.048C49.4539 11.048 49.0739 10.588 49.0739 10.032C49.0739 9.48 49.4539 9.02 50.0659 9.02C50.6859 9.02 51.0619 9.48 51.0619 10.032C51.0619 10.588 50.6859 11.048 50.0659 11.048ZM50.0659 10.676C50.4259 10.676 50.6259 10.376 50.6259 10.032C50.6259 9.692 50.4259 9.392 50.0659 9.392C49.7099 9.392 49.5099 9.692 49.5099 10.032C49.5099 10.376 49.7099 10.676 50.0659 10.676ZM51.6833 11.044C51.5313 11.044 51.4033 10.916 51.4033 10.764C51.4033 10.612 51.5313 10.484 51.6833 10.484C51.8353 10.484 51.9633 10.612 51.9633 10.764C51.9633 10.916 51.8353 11.044 51.6833 11.044ZM54.4191 11.048C53.9591 11.048 53.6431 10.892 53.4271 10.636L53.6951 10.316C53.8751 10.52 54.1151 10.632 54.4151 10.632C54.7511 10.632 54.9631 10.424 54.9631 10.164C54.9631 9.876 54.7551 9.688 54.4271 9.688C54.1991 9.688 54.0111 9.76 53.8431 9.92L53.5111 9.824V8.332H55.2591V8.744H53.9791V9.516C54.1071 9.388 54.3271 9.284 54.5831 9.284C55.0311 9.284 55.4351 9.6 55.4351 10.144C55.4351 10.7 55.0151 11.048 54.4191 11.048ZM56.8176 11.048C56.3576 11.048 56.0416 10.892 55.8256 10.636L56.0936 10.316C56.2736 10.52 56.5136 10.632 56.8136 10.632C57.1496 10.632 57.3616 10.424 57.3616 10.164C57.3616 9.876 57.1536 9.688 56.8256 9.688C56.5976 9.688 56.4096 9.76 56.2416 9.92L55.9096 9.824V8.332H57.6576V8.744H56.3776V9.516C56.5056 9.388 56.7256 9.284 56.9816 9.284C57.4296 9.284 57.8336 9.6 57.8336 10.144C57.8336 10.7 57.4136 11.048 56.8176 11.048Z" fill="white"/>
<defs>
<clipPath id="clip0_26835_29218">
<rect width="63" height="88" fill="white"/>
</clipPath>
</defs>
</svg>
