<svg width="63" height="88" viewBox="0 0 63 88" fill="none" xmlns="http://www.w3.org/2000/svg">
<rect width="63" height="88" rx="4" fill="#FF003F"/>
<path d="M36.7008 13.5133L44.7992 3.48665C45.5586 2.54645 46.7024 2 47.911 2H58C59.6569 2 61 3.34314 61 5V83C61 84.6569 59.6569 86 58 86H5C3.34315 86 2 84.6569 2 83V18C2 16.3431 3.34315 15 5 15H33.589C34.7976 15 35.9414 14.4536 36.7008 13.5133Z" fill="#213743"/>
<rect x="5" y="18" width="53" height="40" rx="1" fill="#2F4553"/>
<g clip-path="url(#clip0_26835_29219)">
<path d="M57 18H6C5.44772 18 5 18.4477 5 19V57C5 57.5523 5.44772 58 6 58H57C57.5523 58 58 57.5523 58 57V19C58 18.4477 57.5523 18 57 18Z" fill="#E9113C"/>
<path d="M58 19V36.3C52.98 45.81 43 52.3 31.5 52.3C20 52.3 10.01 45.81 5 36.3V19C5 18.45 5.45 18 6 18H57C57.55 18 58 18.45 58 19Z" fill="#CC0028"/>
<path d="M56.91 18C53.61 28.92 43.48 36.86 31.5 36.86C19.52 36.86 9.38 28.92 6.09 18H56.91Z" fill="#E9113C"/>
<path d="M46.27 18C43.95 23.88 38.21 28.05 31.5 28.05C24.79 28.05 19.05 23.88 16.74 18H46.27Z" fill="#CC0028"/>
<path d="M29.16 55.9601C41.8681 55.9601 52.17 52.3023 52.17 47.7901C52.17 43.278 41.8681 39.6201 29.16 39.6201C16.4519 39.6201 6.15 43.278 6.15 47.7901C6.15 52.3023 16.4519 55.9601 29.16 55.9601Z" fill="#1A2C38"/>
<path d="M54.4 27.4801L49.82 22.1501C48.79 20.9501 47.06 20.6101 45.65 21.3401L27.59 30.7001L45.78 36.5201L54.4 27.4801Z" fill="#FF7F00"/>
<path d="M8.5 27.4801L13.08 22.1501C14.11 20.9501 15.84 20.6101 17.25 21.3401L35.31 30.7001L17.12 36.5201L8.5 27.4801Z" fill="#FF7F00"/>
<path d="M56.82 21.56L54 36.63L53.54 39.1L52.82 42.93L52.16 46.48H10.83L10.15 42.81L9.45 39.1L8.99 36.63L6.17 21.56C6 20.62 6.99 19.9 7.83 20.35L18.79 26.29L28.89 14.46C30.25 12.86 32.72 12.86 34.09 14.46L44.18 26.29L55.14 20.35C55.98 19.89 56.98 20.62 56.8 21.56H56.82Z" fill="#FFC201"/>
<path d="M31.5 52.6401C42.9157 52.6401 52.17 49.8911 52.17 46.5001C52.17 43.1091 42.9157 40.3601 31.5 40.3601C20.0843 40.3601 10.83 43.1091 10.83 46.5001C10.83 49.8911 20.0843 52.6401 31.5 52.6401Z" fill="#FFC201"/>
<path d="M39.8246 31.3685L32.9162 24.4601C32.1351 23.6791 30.8688 23.6791 30.0878 24.4601L23.1793 31.3685C22.3983 32.1496 22.3983 33.4159 23.1793 34.197L30.0878 41.1054C30.8688 41.8865 32.1351 41.8865 32.9162 41.1054L39.8246 34.197C40.6057 33.4159 40.6057 32.1496 39.8246 31.3685Z" fill="#E9113C"/>
<path d="M35.73 31.22L32.48 24.45C32.09 23.63 30.92 23.63 30.53 24.45L27.28 31.22C26.94 31.94 27.46 32.77 28.26 32.77H34.76C35.56 32.77 36.08 31.94 35.74 31.22H35.73Z" fill="white"/>
<path d="M27.27 34.32L30.52 41.09C30.91 41.91 32.08 41.91 32.47 41.09L35.72 34.32C36.06 33.6 35.54 32.77 34.74 32.77H28.24C27.44 32.77 26.92 33.6 27.26 34.32H27.27Z" fill="#FF7F00"/>
<path d="M52.17 46.5001C52.17 46.5001 52.17 46.5001 52.17 46.4901L52.83 42.9501L53.55 39.1201L53.59 38.8901C52.14 43.1301 42.81 45.7501 31.5 45.7501C20.19 45.7501 10.83 43.1201 9.4 38.8601L9.45 39.1101L10.15 42.8201L10.83 46.4901C10.83 49.8801 20.08 52.6301 31.5 52.6301C42.92 52.6301 52.17 49.8801 52.17 46.4901V46.5001Z" fill="#FF7F00"/>
<path d="M49.79 15C48.96 16.29 48.29 16.96 47 17.79C48.29 18.62 48.96 19.29 49.79 20.58C50.62 19.29 51.29 18.62 52.58 17.79C51.29 16.96 50.62 16.29 49.79 15Z" fill="white"/>
<path d="M16.09 40.76C14.91 42.59 13.95 43.55 12.12 44.73C13.95 45.91 14.91 46.87 16.09 48.7C17.27 46.87 18.23 45.91 20.06 44.73C18.23 43.55 17.27 42.59 16.09 40.76Z" fill="white"/>
</g>
<path fill-rule="evenodd" clip-rule="evenodd" d="M6.49771 79C6.98969 79 7.48602 79.213 7.49037 79.6913C7.49037 80.1043 7.24656 80.2696 6.99839 80.2696C6.75023 80.2696 6.73281 80.1435 6.73281 80.1435C6.73281 80.1435 7.02452 79.9261 7.02452 79.7174C7.02452 79.6087 6.94179 79.313 6.489 79.3174C5.8577 79.3174 5.5181 79.6174 5.5181 80.1522C5.5181 80.7652 7.35105 80.9739 7.3554 81.7652C7.3554 82.613 6.47594 82.9957 5.69225 83C5.283 83 5.01306 82.7609 5.00871 82.3783C5.00871 81.9261 5.22204 81.4652 5.75756 81.4652C5.88382 81.4565 5.98831 81.5522 5.99702 81.6783C5.99702 81.6783 5.99702 81.6826 5.99702 81.687C5.99702 81.687 5.45715 81.8391 5.4615 82.3783C5.4615 82.4783 5.56599 82.6609 5.81851 82.6565C6.07103 82.6522 6.82424 82.4739 6.81989 81.8087C6.81989 81.1913 5.00435 81.1087 5 80.1478C5 79.0652 6.08845 79.0087 6.49771 79.0087V79ZM10.747 79.6C10.8123 79.5696 11.2129 79.4913 11.1955 79.813C11.1824 80.1348 10.9386 80.6913 10.9037 80.9348C11.2303 80.7696 11.6918 80.2087 11.6918 80.2087C11.6918 80.2087 12.0183 80.2522 11.9182 80.4522C11.818 80.6522 11.1519 81.1435 11.1519 81.1435C11.1519 81.1435 11.3043 82.5696 12.1707 82.5696C12.6453 82.5696 12.8499 82.3609 12.937 82.287C12.9587 82.2696 12.9762 82.2652 12.9849 82.2783C13.0197 82.387 12.9936 82.5043 12.9152 82.5913C12.8194 82.6957 12.5974 82.8217 12.1533 82.8261C11.3653 82.8261 10.9255 82.1957 10.8123 81.2609C10.7252 81.5348 10.7339 81.9826 10.7209 82.2C10.6948 82.2435 10.2507 82.4174 10.2158 82.1174C10.2158 82.0913 10.2158 82.0696 10.2158 82.0435C10.1331 82.1609 10.0199 82.2826 9.91108 82.2826C9.71951 82.2826 9.63679 82.1217 9.60196 82.0391C9.57584 82.0696 9.3625 82.287 9.08821 82.287C8.92277 82.2913 8.77474 82.1957 8.70943 82.0435C8.57011 82.1435 8.32195 82.2913 8.03895 82.2913C7.73418 82.2913 7.66017 82.1087 7.66017 81.9565C7.66017 81.713 7.84303 80.987 7.84303 80.987C7.84303 80.987 7.48602 81.1304 7.36411 81.1348C7.19431 81.1348 7.11159 80.8217 7.11159 80.813C7.11159 80.8087 7.11159 80.8 7.1203 80.8C7.22044 80.7609 7.94317 80.513 7.94317 80.513C7.94317 80.513 8.07813 79.9826 8.09555 79.913C8.11296 79.8435 8.2131 79.7 8.33065 79.6565C8.41773 79.6217 8.50916 79.6 8.60059 79.5913C8.63107 79.5913 8.65284 79.6 8.65284 79.6174C8.65284 79.6348 8.47433 80.4087 8.47433 80.4087C8.47433 80.4087 8.84876 80.3217 8.98808 80.3217C9.09692 80.3217 9.15352 80.387 9.09257 80.4696C9.03162 80.5522 8.96196 80.6478 8.92712 80.6913C8.88794 80.7348 8.86182 80.7435 8.77039 80.7609C8.64413 80.787 8.36113 80.8565 8.36113 80.8565C8.36113 80.8565 8.13473 81.6783 8.13909 81.8174C8.13909 81.8957 8.16521 81.987 8.26099 81.987C8.35678 81.987 8.53964 81.8739 8.67025 81.7913C8.69202 81.1522 9.18835 80.7261 9.57584 80.7261C9.7021 80.7261 9.65421 80.8478 9.79788 80.8478H9.88931C9.94591 80.8478 10.0069 80.8522 10.0069 80.9957C10.0069 81.1957 9.89367 81.5261 9.89367 81.7348C9.89367 81.8826 9.91544 81.987 9.97204 81.987C10.0678 81.987 10.1767 81.8478 10.255 81.7261C10.3813 81.0304 10.734 79.7609 10.734 79.6174L10.747 79.6ZM12.5016 80.7C12.7672 80.6783 12.9326 80.8217 12.9631 80.9C12.9936 80.9783 12.9892 81.1609 12.9152 81.2913C12.6845 81.7044 12.1097 81.6304 12.1097 81.6304C12.1097 81.6304 12.0444 81.9565 12.3405 81.9565C12.593 81.9565 12.7062 81.8304 12.8151 81.7261C12.8586 81.7261 12.9936 81.8652 12.9326 81.9609C12.8847 82.0348 12.6191 82.2565 12.2795 82.2609C11.7397 82.2609 11.6047 81.8 11.6744 81.4696C11.7658 81.0609 12.1751 80.7217 12.5016 80.6957V80.7ZM9.6455 80.987C9.32332 80.987 8.82699 81.9696 9.20577 81.9652C9.61938 81.9652 9.6455 81.1826 9.6455 81.0043V80.987ZM12.6409 80.8913C12.4232 80.9 12.1751 81.3174 12.1533 81.5C12.4798 81.513 12.654 81.1957 12.6757 81.0696C12.6888 80.9739 12.6932 80.887 12.6409 80.887V80.8913Z" fill="#557086"/>
<path d="M56.1444 79.3778L56.6412 80.278L57.6519 80.4733C57.7792 80.4988 57.8302 80.6559 57.741 80.7494L57.0361 81.5009L57.1635 82.5243C57.1805 82.6559 57.0446 82.7494 56.93 82.6942L56 82.2568L55.0701 82.6942C54.9512 82.7494 54.8196 82.6517 54.8366 82.5243L54.964 81.5009L54.2591 80.7494C54.1699 80.6559 54.2209 80.4988 54.3482 80.4733L55.3589 80.278L55.8557 79.3778C55.9194 79.2632 56.085 79.2632 56.1444 79.3778Z" fill="#FFC200"/>
<path d="M56 79.2929C56.0552 79.2929 56.1147 79.3226 56.1444 79.3778L56.6412 80.278L57.6519 80.4733C57.7792 80.4988 57.8302 80.6559 57.741 80.7494L57.0361 81.5009L57.1635 82.5243C57.1763 82.6262 57.0955 82.7111 56.9979 82.7111C56.9766 82.7111 56.9512 82.7069 56.9257 82.6942L55.9958 82.2568L55.0658 82.6942C55.0403 82.7069 55.0191 82.7111 54.9936 82.7111C54.9002 82.7111 54.8153 82.6262 54.828 82.5243L54.9554 81.5009L54.2505 80.7494C54.1614 80.6559 54.2123 80.4988 54.3397 80.4733L55.3503 80.278L55.8471 79.3778C55.8769 79.3226 55.9363 79.2929 55.9915 79.2929M56 79.0806C55.8641 79.0806 55.7367 79.157 55.6688 79.2759L55.2187 80.0912L54.3057 80.2653C54.1699 80.2908 54.0594 80.3884 54.017 80.5201C53.9745 80.6517 54.0085 80.7961 54.1019 80.8937L54.7389 81.5731L54.6242 82.4946C54.6115 82.6007 54.6454 82.7111 54.7134 82.7918C54.7856 82.8725 54.8875 82.9192 54.9979 82.9192C55.0531 82.9192 55.1083 82.9065 55.1592 82.881L56 82.4861L56.8408 82.881C56.8917 82.9065 56.9469 82.9192 57.0021 82.9192C57.1125 82.9192 57.2144 82.8725 57.2866 82.7918C57.3588 82.7111 57.3928 82.6007 57.3758 82.4946L57.2611 81.5731L57.8981 80.8937C57.9915 80.7918 58.0255 80.6474 57.983 80.5201C57.9406 80.3884 57.8301 80.2908 57.6943 80.2653L56.7813 80.0912L56.3312 79.2759C56.2633 79.157 56.1359 79.0806 56 79.0806Z" fill="#213743"/>
<path d="M56 79.8152V80.9744C56 81.0678 56.0892 81.1315 56.1784 81.106L57.2187 80.7706C57.2739 80.7536 57.2697 80.6729 57.2102 80.6602L56.5563 80.5413C56.4969 80.5286 56.4417 80.4903 56.4119 80.4351L56.085 79.7939C56.0637 79.7515 55.9958 79.7642 55.9958 79.8152H56Z" fill="#FFEBB8"/>
<path d="M56 81.4924V82.0699C56 82.1039 56.017 82.1294 56.0467 82.1464L56.7983 82.5073C56.8366 82.5243 56.8705 82.4818 56.845 82.4479L56.0935 81.4627C56.0637 81.4245 56 81.4457 56 81.4924Z" fill="#FF7F00"/>
<rect x="13" y="62" width="37" height="13" rx="6.5" fill="#2F4553"/>
<path d="M31.5446 70H28.4066V69.196C30.1406 67.942 30.4646 67.666 30.4646 67.27C30.4646 66.994 30.2066 66.85 29.9126 66.85C29.4686 66.85 29.1326 67.018 28.8446 67.288L28.2746 66.604C28.7006 66.136 29.3366 65.938 29.8946 65.938C30.8366 65.938 31.5146 66.466 31.5146 67.27C31.5146 67.882 31.0766 68.404 30.0806 69.1H31.5446V70ZM34.8951 70H33.8811L33.3231 69.124L32.7591 70H31.7511L32.7411 68.512L31.8111 67.102H32.8251L33.3231 67.888L33.8151 67.102H34.8291L33.9051 68.512L34.8951 70Z" fill="white"/>
<path d="M8.03 11H7.215L6.56 9.815H6.04V11H5.33V7.665H6.89C7.585 7.665 8.01 8.12 8.01 8.74C8.01 9.33 7.64 9.645 7.28 9.73L8.03 11ZM6.785 9.19C7.07 9.19 7.285 9.02 7.285 8.74C7.285 8.46 7.07 8.29 6.785 8.29H6.04V9.19H6.785ZM10.5152 11H9.88023V10.75C9.71523 10.945 9.43023 11.06 9.11523 11.06C8.73023 11.06 8.27523 10.8 8.27523 10.26C8.27523 9.695 8.73023 9.48 9.11523 9.48C9.43523 9.48 9.72023 9.585 9.88023 9.775V9.45C9.88023 9.205 9.67023 9.045 9.35023 9.045C9.09023 9.045 8.85023 9.14 8.64523 9.33L8.40523 8.905C8.70023 8.645 9.08023 8.525 9.46023 8.525C10.0102 8.525 10.5152 8.745 10.5152 9.44V11ZM9.37023 10.63C9.57523 10.63 9.77523 10.56 9.88023 10.42V10.12C9.77523 9.98 9.57523 9.91 9.37023 9.91C9.12023 9.91 8.91523 10.04 8.91523 10.275C8.91523 10.5 9.12023 10.63 9.37023 10.63ZM11.7801 11H11.1451V8.585H11.7801V8.915C11.9501 8.7 12.2501 8.525 12.5501 8.525V9.145C12.5051 9.135 12.4451 9.13 12.3751 9.13C12.1651 9.13 11.8851 9.25 11.7801 9.405V11ZM14.0818 11.06C13.3468 11.06 12.7918 10.565 12.7918 9.79C12.7918 9.09 13.3068 8.525 14.0418 8.525C14.7618 8.525 15.2518 9.065 15.2518 9.855V9.995H13.4568C13.4968 10.3 13.7418 10.555 14.1518 10.555C14.3568 10.555 14.6418 10.465 14.7968 10.315L15.0768 10.725C14.8368 10.945 14.4568 11.06 14.0818 11.06ZM14.6368 9.565C14.6218 9.335 14.4618 9.03 14.0418 9.03C13.6468 9.03 13.4768 9.325 13.4468 9.565H14.6368Z" fill="white"/>
<path d="M48.6351 11H48.1831L46.7911 9.096V11H46.3231V8.332H46.8031L48.1671 10.184V8.332H48.6351V11ZM50.062 11.048C49.45 11.048 49.07 10.588 49.07 10.032C49.07 9.48 49.45 9.02 50.062 9.02C50.682 9.02 51.058 9.48 51.058 10.032C51.058 10.588 50.682 11.048 50.062 11.048ZM50.062 10.676C50.422 10.676 50.622 10.376 50.622 10.032C50.622 9.692 50.422 9.392 50.062 9.392C49.706 9.392 49.506 9.692 49.506 10.032C49.506 10.376 49.706 10.676 50.062 10.676ZM51.6794 11.044C51.5274 11.044 51.3994 10.916 51.3994 10.764C51.3994 10.612 51.5274 10.484 51.6794 10.484C51.8314 10.484 51.9594 10.612 51.9594 10.764C51.9594 10.916 51.8314 11.044 51.6794 11.044ZM54.4152 11.048C53.9552 11.048 53.6392 10.892 53.4232 10.636L53.6912 10.316C53.8712 10.52 54.1112 10.632 54.4112 10.632C54.7472 10.632 54.9592 10.424 54.9592 10.164C54.9592 9.876 54.7512 9.688 54.4232 9.688C54.1952 9.688 54.0072 9.76 53.8392 9.92L53.5072 9.824V8.332H55.2552V8.744H53.9752V9.516C54.1032 9.388 54.3232 9.284 54.5792 9.284C55.0272 9.284 55.4312 9.6 55.4312 10.144C55.4312 10.7 55.0112 11.048 54.4152 11.048ZM56.8617 11.048C56.0777 11.048 55.7617 10.412 55.7617 9.672C55.7617 8.9 56.1657 8.292 56.9377 8.292C57.2697 8.292 57.5257 8.412 57.7057 8.588L57.4857 8.944C57.3457 8.796 57.1937 8.708 56.9377 8.708C56.4937 8.708 56.2337 9.12 56.2337 9.588C56.2337 9.616 56.2337 9.64 56.2377 9.664C56.3577 9.484 56.6377 9.292 56.9537 9.292C57.4337 9.292 57.8457 9.584 57.8457 10.152C57.8457 10.648 57.4577 11.048 56.8617 11.048ZM56.8377 10.632C57.1897 10.632 57.3737 10.384 57.3737 10.168C57.3737 9.84 57.1177 9.692 56.8257 9.692C56.5977 9.692 56.3777 9.816 56.2417 10.008C56.2697 10.296 56.4257 10.632 56.8377 10.632Z" fill="white"/>
<defs>
<clipPath id="clip0_26835_29219">
<rect width="63" height="88" fill="white"/>
</clipPath>
</defs>
</svg>
