<svg width="63" height="88" viewBox="0 0 63 88" fill="none" xmlns="http://www.w3.org/2000/svg">
<rect width="63" height="88" rx="4" fill="#FF003F"/>
<path d="M36.7008 13.5133L44.7992 3.48665C45.5586 2.54645 46.7024 2 47.911 2H58C59.6569 2 61 3.34314 61 5V83C61 84.6569 59.6569 86 58 86H5C3.34315 86 2 84.6569 2 83V18C2 16.3431 3.34315 15 5 15H33.589C34.7976 15 35.9414 14.4536 36.7008 13.5133Z" fill="#213743"/>
<rect x="5" y="18" width="53" height="40" rx="1" fill="#2F4553"/>
<g clip-path="url(#clip0_26835_29220)">
<path d="M57 18H6C5.44772 18 5 18.4477 5 19V57C5 57.5523 5.44772 58 6 58H57C57.5523 58 58 57.5523 58 57V19C58 18.4477 57.5523 18 57 18Z" fill="#047BFF"/>
<path d="M9.58 23.61C9.58 22.87 8.98006 22.27 8.24 22.27C7.49994 22.27 6.9 22.87 6.9 23.61V34.1C6.9 34.8401 7.49994 35.44 8.24 35.44C8.98006 35.44 9.58 34.8401 9.58 34.1V23.61Z" fill="#45A7FF"/>
<path d="M14.75 23.61C14.75 22.87 14.1501 22.27 13.41 22.27C12.6699 22.27 12.07 22.87 12.07 23.61V28.44C12.07 29.1801 12.6699 29.78 13.41 29.78C14.1501 29.78 14.75 29.1801 14.75 28.44V23.61Z" fill="#45A7FF"/>
<path d="M19.92 23.61C19.92 22.87 19.3201 22.27 18.58 22.27C17.8399 22.27 17.24 22.87 17.24 23.61V28.44C17.24 29.1801 17.8399 29.78 18.58 29.78C19.3201 29.78 19.92 29.1801 19.92 28.44V23.61Z" fill="#45A7FF"/>
<path d="M25.09 23.61C25.09 22.87 24.4901 22.27 23.75 22.27C23.0099 22.27 22.41 22.87 22.41 23.61V28.44C22.41 29.1801 23.0099 29.78 23.75 29.78C24.4901 29.78 25.09 29.1801 25.09 28.44V23.61Z" fill="#45A7FF"/>
<path d="M35.42 23.61C35.42 22.87 34.8201 22.27 34.08 22.27C33.3399 22.27 32.74 22.87 32.74 23.61V28.44C32.74 29.1801 33.3399 29.78 34.08 29.78C34.8201 29.78 35.42 29.1801 35.42 28.44V23.61Z" fill="#45A7FF"/>
<path d="M40.59 23.61C40.59 22.87 39.9901 22.27 39.25 22.27C38.5099 22.27 37.91 22.87 37.91 23.61V28.44C37.91 29.1801 38.5099 29.78 39.25 29.78C39.9901 29.78 40.59 29.1801 40.59 28.44V23.61Z" fill="#45A7FF"/>
<path d="M45.76 23.61C45.76 22.87 45.1601 22.27 44.42 22.27C43.6799 22.27 43.08 22.87 43.08 23.61V28.44C43.08 29.1801 43.6799 29.78 44.42 29.78C45.1601 29.78 45.76 29.1801 45.76 28.44V23.61Z" fill="#45A7FF"/>
<path d="M56.09 23.61C56.09 22.87 55.4901 22.27 54.75 22.27C54.0099 22.27 53.41 22.87 53.41 23.61V28.44C53.41 29.1801 54.0099 29.78 54.75 29.78C55.4901 29.78 56.09 29.1801 56.09 28.44V23.61Z" fill="#45A7FF"/>
<path d="M30.25 23.61C30.25 22.87 29.6501 22.27 28.91 22.27C28.1699 22.27 27.57 22.87 27.57 23.61V34.1C27.57 34.8401 28.1699 35.44 28.91 35.44C29.6501 35.44 30.25 34.8401 30.25 34.1V23.61Z" fill="#45A7FF"/>
<path d="M50.93 23.61C50.93 22.87 50.3301 22.27 49.59 22.27C48.8499 22.27 48.25 22.87 48.25 23.61V34.1C48.25 34.8401 48.8499 35.44 49.59 35.44C50.3301 35.44 50.93 34.8401 50.93 34.1V23.61Z" fill="#45A7FF"/>
<path d="M24.17 51.3401C16.35 51.3401 9.4 51.6401 5 52.1001V54.4201C9.39 54.8801 16.34 55.1801 24.17 55.1801C37.46 55.1801 48.23 54.3201 48.23 53.2601C48.23 52.2001 37.46 51.3401 24.17 51.3401Z" fill="#1A2C38"/>
<path d="M54.32 45.1601L57.64 41.9601L56.61 40.9001L53.84 43.5801L50.11 42.9201L49.76 42.2701C51.49 41.6401 55.4 40.0001 57.05 37.6901L55.85 36.8301C54.02 39.3801 48.53 41.1401 48.47 41.1501L47.62 41.4201L49.14 44.2501L54.32 45.1701V45.1601Z" fill="#1CE61C"/>
<path d="M57.41 54.2401C57.7 54.2401 57.97 54.0401 58.05 53.7501C58.14 53.4001 57.93 53.0401 57.58 52.9501C56.36 52.6301 53.16 51.4101 52.95 49.6501C52.68 47.3501 54.89 44.4301 54.91 44.4001C55.02 44.2601 55.06 44.0801 55.04 43.9101C55.01 43.7301 54.92 43.5801 54.78 43.4701C53.42 42.4801 51.17 40.4501 50.91 39.2601C50.8 38.7801 50.72 37.9501 50.63 37.0801C50.28 33.6201 49.92 31.1401 48.44 30.7501C48.23 30.7001 48.01 30.7501 47.84 30.8901C47.68 31.0301 47.59 31.2401 47.61 31.4601C47.61 31.5101 48.15 36.6001 47.44 39.4401C47.35 39.7901 47.57 40.1501 47.92 40.2401C48.27 40.3301 48.63 40.1101 48.72 39.7601C49.03 38.5301 49.13 36.9701 49.13 35.5201C49.2 36.0901 49.26 36.6601 49.31 37.2101C49.41 38.1601 49.49 38.9801 49.61 39.5401C49.98 41.2101 52.38 43.2601 53.47 44.1301C52.77 45.1901 51.36 47.6101 51.62 49.8001C51.97 52.7601 56.68 54.0801 57.22 54.2201C57.28 54.2301 57.33 54.2401 57.39 54.2401H57.41Z" fill="#1CE61C"/>
<path d="M47.43 29C47.43 29 48.49 34.54 48.03 38.14C48.03 38.14 52.13 44.67 51.64 46.44C51.15 48.21 48.82 52.85 47.62 53.5C47.62 53.5 27.31 54.34 23.38 51.91L22.61 30.74L41.12 25.52L47.43 29.02V29Z" fill="#1A2C38"/>
<path d="M30.16 53.9499C30.52 53.9499 30.81 53.6599 30.82 53.2999C30.82 52.9399 30.54 52.6399 30.17 52.6299L17.18 52.4299C17.04 52.4299 16.8 52.3999 16.8 52.2599C16.85 50.4799 14.87 49.8299 15.1 47.7399C15.14 47.3799 14.88 47.0499 14.52 47.0099C14.16 46.9699 13.83 47.2299 13.79 47.5899C13.5 50.2099 15.11 52.3299 15.82 53.1299C16.16 53.5099 16.65 53.7299 17.16 53.7399L30.15 53.9399H30.16V53.9499Z" fill="#3D5B6E"/>
<path d="M25.09 15.72C26.43 15.44 27.81 15.29 29.23 15.3C38.19 15.33 45.76 21.26 48.26 29.41C45.14 27.89 38.65 26.9 25.66 31.27C24.64 31.61 23.89 32.49 23.73 33.55C23.42 35.65 24.01 39.46 29.61 44.56C30.16 45.06 30.28 45.88 29.9 46.51C28.73 48.49 25.1 52.04 20.3 53.11C13.55 50.1 9.47 43.82 9.21 36.06C9.2 35.76 9.19 35.45 9.2 35.14C9.25 25.59 16.09 17.59 25.1 15.7L25.09 15.72Z" fill="#1CE61C"/>
<path d="M44.18 28.1901C44.18 28.1901 43.74 20.9401 36.04 16.5201C36.04 16.5201 33.28 15.3901 29.82 15.3101C29.82 15.3101 36.95 20.6501 36.37 28.8601L44.17 28.1901H44.18Z" fill="#008C00"/>
<path d="M33.26 17.4899C33.41 18.4299 30.42 18.3099 26.92 18.8699C23.42 19.4299 20.73 20.4699 20.58 19.5299C20.43 18.5899 23.14 17.3699 26.64 16.8099C30.14 16.2499 33.1 16.5499 33.25 17.4899H33.26Z" fill="white"/>
<path d="M28.97 43.98C28.97 43.98 25.47 44.72 23.12 42.54L23.49 41.77L28.11 43.02L28.97 43.97V43.98Z" fill="#3D5B6E"/>
<path d="M20.93 37.6399C20.93 37.6399 20.57 38.7099 21.22 39.7099C21.87 40.7099 22.89 41.2799 22.89 41.2799L23.38 39.7099L20.93 37.6399Z" fill="#3D5B6E"/>
<path d="M25.36 47.2099C25.36 47.2099 24.99 47.7399 24.86 48.3699L22.76 47.3999L21.97 48.9899L22.16 46.1799L25.36 47.2099Z" fill="#3D5B6E"/>
<path d="M46.79 26.51C46.79 26.51 33.96 25.98 23.98 30.73C23.98 30.73 22.17 33.43 21.66 36.31L22.61 29.58C22.61 29.58 30.86 24.89 46.79 26.51Z" fill="#3D5B6E"/>
<path d="M24.51 51.86C24.51 51.86 23.1 53.93 20.35 53.5C18.79 53.26 17.58 53.11 16.82 53.03C16.14 52.96 15.53 52.55 15.23 51.93C14.88 51.21 14.78 50.36 16.26 50.26C18.86 50.09 24.51 51.86 24.51 51.86Z" fill="#1CE61C"/>
<path d="M23.54 53.3401C23.54 53.3401 21.67 52.6101 21.22 50.8301L23.38 51.9101L24.17 52.5801L23.54 53.3501V53.3401Z" fill="#3D5B6E"/>
<path d="M49.64 33.87C49.9 33.87 50.14 33.72 50.25 33.47C50.29 33.38 51.15 31.25 49.63 29.52C47.22 26.77 40.37 26.92 29.28 29.95C28.93 30.05 28.72 30.41 28.82 30.76C28.92 31.11 29.28 31.32 29.63 31.22C43.45 27.44 47.47 29.07 48.63 30.38C49.61 31.49 49.06 32.91 49.03 32.97C48.89 33.31 49.05 33.69 49.39 33.83C49.47 33.86 49.56 33.88 49.64 33.88V33.87Z" fill="white"/>
<path d="M45.83 54.3401C52.43 54.3401 58.19 54.2201 58.69 54.2101C59.05 54.2101 59.34 53.9001 59.33 53.5401C59.32 53.1801 59.02 52.8901 58.66 52.9001C58.4 52.9001 32.23 53.4401 26.74 52.2401C21.69 51.1301 21.95 49.5501 22.17 48.1601C22.41 46.6701 24.24 40.6301 24.26 40.5701C24.33 40.3401 24.27 40.1001 24.11 39.9301L21.92 37.6201C21.75 34.8601 22.96 31.2201 23.3 30.2701C28.98 27.5501 40.3 25.2601 45.24 26.5301C48.8 27.4501 48.22 30.2801 48.2 30.4001C48.12 30.7601 48.35 31.1101 48.7 31.1801C49.05 31.2601 49.41 31.0301 49.48 30.6801C49.48 30.6401 50.33 26.4901 45.56 25.2601C41.08 24.1101 29.54 25.7001 22.47 29.2101C22.32 29.2801 22.21 29.4101 22.15 29.5701C22.07 29.7701 20.3 34.4601 20.62 37.9801C20.63 38.1301 20.7 38.2701 20.8 38.3701L22.89 40.5701C22.48 41.9301 21.09 46.6001 20.87 47.9701C20.53 50.1001 20.68 52.2801 26.46 53.5501C29.49 54.2201 38.22 54.3701 45.83 54.3701V54.3401Z" fill="white"/>
<path d="M57.75 54.23C58.07 54.23 58.35 54 58.4 53.68C58.9 50.66 58.79 46.75 58.07 42.04C57.54 38.55 56.87 35.98 56.84 35.87C56.75 35.52 56.39 35.31 56.04 35.4C55.69 35.49 55.48 35.85 55.57 36.2C55.6 36.3 58.24 46.58 57.1 53.47C57.04 53.83 57.28 54.17 57.64 54.23C57.68 54.23 57.71 54.23 57.75 54.23Z" fill="white"/>
<path d="M54.41 54.22C54.7 54.22 54.96 54.03 55.04 53.74C56.87 47.12 53.09 35.46 52.93 34.97C52.82 34.62 52.45 34.44 52.1 34.55C51.75 34.66 51.57 35.04 51.68 35.38C51.72 35.5 55.5 47.15 53.78 53.39C53.68 53.74 53.89 54.1 54.24 54.2C54.3 54.22 54.36 54.22 54.42 54.22H54.41Z" fill="white"/>
<path d="M45.17 34.54C45.52 34.43 45.89 34.62 46 34.97C46.16 35.47 49.87 47.31 49.25 53.75L47.94 53.62C48.54 47.45 44.79 35.49 44.75 35.37C44.64 35.02 44.83 34.65 45.18 34.54H45.17Z" fill="white"/>
<path d="M23.05 42.1901C22.71 42.0701 22.52 41.7001 22.64 41.3501C22.76 41.0101 23.13 40.8201 23.48 40.9401C28.19 42.5701 28.71 42.4601 32.07 41.7701C34.08 41.3501 37.12 40.7201 42.56 40.1501C50.59 39.3001 55.75 39.6301 57.48 41.1001C57.98 41.5301 58.05 41.9201 58.06 42.0801C58.08 42.4401 57.8 42.7501 57.44 42.7701C57.11 42.7901 56.82 42.5601 56.76 42.2501C56.65 42.0801 55.15 40.1501 42.7 41.4701C37.32 42.0401 34.32 42.6601 32.34 43.0701C30.83 43.3801 29.82 43.5801 28.8 43.5801C27.37 43.5801 25.92 43.1901 23.05 42.2001V42.1901Z" fill="white"/>
<path d="M30.47 26.59C30.65 26.27 31.05 26.16 31.36 26.33C31.68 26.51 31.79 26.91 31.62 27.22C31.61 27.24 30.47 29.32 29.51 31.75C28.31 34.81 27.93 37.14 28.43 38.3C28.98 39.56 30.06 40.64 31.21 41.78C32.89 43.45 34.62 45.18 34.74 47.63C34.9 50.86 36.17 52.22 39.79 53.03L39.32 54.25C35.83 53.47 33.64 52.11 33.42 47.7C33.32 45.76 31.84 44.28 30.28 42.72C29.09 41.54 27.87 40.32 27.22 38.83C25.71 35.35 29.97 27.47 30.46 26.59H30.47Z" fill="white"/>
<path d="M28.28 40.06C28.35 40.06 28.42 40.05 28.49 40.03C33.91 38.2 41.95 36.1 49.48 36.51C53.97 36.75 56.18 37.78 56.2 37.79C56.53 37.95 56.92 37.81 57.08 37.48C57.24 37.15 57.1 36.76 56.78 36.6C56.41 36.42 47.43 32.24 28.08 38.78C27.74 38.9 27.55 39.27 27.67 39.61C27.76 39.88 28.02 40.06 28.29 40.06H28.28Z" fill="white"/>
<path d="M26.91 46.53C26.91 46.53 22.85 43.02 21.77 43.57C21.77 43.57 20.25 46.28 21.62 46.53C22.99 46.78 25.43 47.4 25.43 47.4H26.76L26.92 46.53H26.91Z" fill="white"/>
<path d="M15.7263 44.3024C16.5566 44.2242 17.1264 43.0643 16.999 41.7117C16.8716 40.359 16.0953 39.3259 15.265 39.4041C14.4347 39.4823 13.8649 40.6422 13.9923 41.9948C14.1197 43.3475 14.896 44.3806 15.7263 44.3024Z" fill="#1A2C38"/>
<path d="M15.26 39.3899C15.26 39.3899 15.31 39.3899 15.33 39.3899C14.74 39.8299 14.39 40.7999 14.49 41.8899C14.6 43.0599 15.2 43.9999 15.93 44.2499C15.86 44.2699 15.8 44.2899 15.72 44.2999C14.89 44.3799 14.12 43.3399 13.99 41.9899C13.86 40.6399 14.43 39.4699 15.26 39.3999V39.3899Z" fill="white"/>
<path d="M26.58 46.6801L26.51 47.1001H25.7L25.74 46.5901L26.58 46.6801Z" fill="#1CE61C"/>
</g>
<path fill-rule="evenodd" clip-rule="evenodd" d="M6.49771 79C6.98969 79 7.48602 79.213 7.49037 79.6913C7.49037 80.1043 7.24656 80.2696 6.99839 80.2696C6.75023 80.2696 6.73281 80.1435 6.73281 80.1435C6.73281 80.1435 7.02452 79.9261 7.02452 79.7174C7.02452 79.6087 6.94179 79.313 6.489 79.3174C5.8577 79.3174 5.5181 79.6174 5.5181 80.1522C5.5181 80.7652 7.35105 80.9739 7.3554 81.7652C7.3554 82.613 6.47594 82.9957 5.69225 83C5.283 83 5.01306 82.7609 5.00871 82.3783C5.00871 81.9261 5.22204 81.4652 5.75756 81.4652C5.88382 81.4565 5.98831 81.5522 5.99702 81.6783C5.99702 81.6783 5.99702 81.6826 5.99702 81.687C5.99702 81.687 5.45715 81.8391 5.4615 82.3783C5.4615 82.4783 5.56599 82.6609 5.81851 82.6565C6.07103 82.6522 6.82424 82.4739 6.81989 81.8087C6.81989 81.1913 5.00435 81.1087 5 80.1478C5 79.0652 6.08845 79.0087 6.49771 79.0087V79ZM10.747 79.6C10.8123 79.5696 11.2129 79.4913 11.1955 79.813C11.1824 80.1348 10.9386 80.6913 10.9037 80.9348C11.2303 80.7696 11.6918 80.2087 11.6918 80.2087C11.6918 80.2087 12.0183 80.2522 11.9182 80.4522C11.818 80.6522 11.1519 81.1435 11.1519 81.1435C11.1519 81.1435 11.3043 82.5696 12.1707 82.5696C12.6453 82.5696 12.8499 82.3609 12.937 82.287C12.9587 82.2696 12.9762 82.2652 12.9849 82.2783C13.0197 82.387 12.9936 82.5043 12.9152 82.5913C12.8194 82.6957 12.5974 82.8217 12.1533 82.8261C11.3653 82.8261 10.9255 82.1957 10.8123 81.2609C10.7252 81.5348 10.7339 81.9826 10.7209 82.2C10.6948 82.2435 10.2507 82.4174 10.2158 82.1174C10.2158 82.0913 10.2158 82.0696 10.2158 82.0435C10.1331 82.1609 10.0199 82.2826 9.91108 82.2826C9.71951 82.2826 9.63679 82.1217 9.60196 82.0391C9.57584 82.0696 9.3625 82.287 9.08821 82.287C8.92277 82.2913 8.77474 82.1957 8.70943 82.0435C8.57011 82.1435 8.32195 82.2913 8.03895 82.2913C7.73418 82.2913 7.66017 82.1087 7.66017 81.9565C7.66017 81.713 7.84303 80.987 7.84303 80.987C7.84303 80.987 7.48602 81.1304 7.36411 81.1348C7.19431 81.1348 7.11159 80.8217 7.11159 80.813C7.11159 80.8087 7.11159 80.8 7.1203 80.8C7.22044 80.7609 7.94317 80.513 7.94317 80.513C7.94317 80.513 8.07813 79.9826 8.09555 79.913C8.11296 79.8435 8.2131 79.7 8.33065 79.6565C8.41773 79.6217 8.50916 79.6 8.60059 79.5913C8.63107 79.5913 8.65284 79.6 8.65284 79.6174C8.65284 79.6348 8.47433 80.4087 8.47433 80.4087C8.47433 80.4087 8.84876 80.3217 8.98808 80.3217C9.09692 80.3217 9.15352 80.387 9.09257 80.4696C9.03162 80.5522 8.96196 80.6478 8.92712 80.6913C8.88794 80.7348 8.86182 80.7435 8.77039 80.7609C8.64413 80.787 8.36113 80.8565 8.36113 80.8565C8.36113 80.8565 8.13473 81.6783 8.13909 81.8174C8.13909 81.8957 8.16521 81.987 8.26099 81.987C8.35678 81.987 8.53964 81.8739 8.67025 81.7913C8.69202 81.1522 9.18835 80.7261 9.57584 80.7261C9.7021 80.7261 9.65421 80.8478 9.79788 80.8478H9.88931C9.94591 80.8478 10.0069 80.8522 10.0069 80.9957C10.0069 81.1957 9.89367 81.5261 9.89367 81.7348C9.89367 81.8826 9.91544 81.987 9.97204 81.987C10.0678 81.987 10.1767 81.8478 10.255 81.7261C10.3813 81.0304 10.734 79.7609 10.734 79.6174L10.747 79.6ZM12.5016 80.7C12.7672 80.6783 12.9326 80.8217 12.9631 80.9C12.9936 80.9783 12.9892 81.1609 12.9152 81.2913C12.6845 81.7044 12.1097 81.6304 12.1097 81.6304C12.1097 81.6304 12.0444 81.9565 12.3405 81.9565C12.593 81.9565 12.7062 81.8304 12.8151 81.7261C12.8586 81.7261 12.9936 81.8652 12.9326 81.9609C12.8847 82.0348 12.6191 82.2565 12.2795 82.2609C11.7397 82.2609 11.6047 81.8 11.6744 81.4696C11.7658 81.0609 12.1751 80.7217 12.5016 80.6957V80.7ZM9.6455 80.987C9.32332 80.987 8.82699 81.9696 9.20577 81.9652C9.61938 81.9652 9.6455 81.1826 9.6455 81.0043V80.987ZM12.6409 80.8913C12.4232 80.9 12.1751 81.3174 12.1533 81.5C12.4798 81.513 12.654 81.1957 12.6757 81.0696C12.6888 80.9739 12.6932 80.887 12.6409 80.887V80.8913Z" fill="#557086"/>
<path d="M56.1444 79.3778L56.6412 80.278L57.6519 80.4733C57.7792 80.4988 57.8302 80.6559 57.741 80.7494L57.0361 81.5009L57.1635 82.5243C57.1805 82.6559 57.0446 82.7494 56.93 82.6942L56 82.2568L55.0701 82.6942C54.9512 82.7494 54.8196 82.6517 54.8366 82.5243L54.964 81.5009L54.2591 80.7494C54.1699 80.6559 54.2209 80.4988 54.3482 80.4733L55.3589 80.278L55.8557 79.3778C55.9194 79.2632 56.085 79.2632 56.1444 79.3778Z" fill="#FFC200"/>
<path d="M56 79.2929C56.0552 79.2929 56.1147 79.3226 56.1444 79.3778L56.6412 80.278L57.6519 80.4733C57.7792 80.4988 57.8302 80.6559 57.741 80.7494L57.0361 81.5009L57.1635 82.5243C57.1763 82.6262 57.0955 82.7111 56.9979 82.7111C56.9766 82.7111 56.9512 82.7069 56.9257 82.6942L55.9958 82.2568L55.0658 82.6942C55.0403 82.7069 55.0191 82.7111 54.9936 82.7111C54.9002 82.7111 54.8153 82.6262 54.828 82.5243L54.9554 81.5009L54.2505 80.7494C54.1614 80.6559 54.2123 80.4988 54.3397 80.4733L55.3503 80.278L55.8471 79.3778C55.8769 79.3226 55.9363 79.2929 55.9915 79.2929M56 79.0806C55.8641 79.0806 55.7367 79.157 55.6688 79.2759L55.2187 80.0912L54.3057 80.2653C54.1699 80.2908 54.0594 80.3884 54.017 80.5201C53.9745 80.6517 54.0085 80.7961 54.1019 80.8937L54.7389 81.5731L54.6242 82.4946C54.6115 82.6007 54.6454 82.7111 54.7134 82.7918C54.7856 82.8725 54.8875 82.9192 54.9979 82.9192C55.0531 82.9192 55.1083 82.9065 55.1592 82.881L56 82.4861L56.8408 82.881C56.8917 82.9065 56.9469 82.9192 57.0021 82.9192C57.1125 82.9192 57.2144 82.8725 57.2866 82.7918C57.3588 82.7111 57.3928 82.6007 57.3758 82.4946L57.2611 81.5731L57.8981 80.8937C57.9915 80.7918 58.0255 80.6474 57.983 80.5201C57.9406 80.3884 57.8301 80.2908 57.6943 80.2653L56.7813 80.0912L56.3312 79.2759C56.2633 79.157 56.1359 79.0806 56 79.0806Z" fill="#213743"/>
<path d="M56 79.8152V80.9744C56 81.0678 56.0892 81.1315 56.1784 81.106L57.2187 80.7706C57.2739 80.7536 57.2697 80.6729 57.2102 80.6602L56.5563 80.5413C56.4969 80.5286 56.4417 80.4903 56.4119 80.4351L56.085 79.7939C56.0637 79.7515 55.9958 79.7642 55.9958 79.8152H56Z" fill="#FFEBB8"/>
<path d="M56 81.4924V82.0699C56 82.1039 56.017 82.1294 56.0467 82.1464L56.7983 82.5073C56.8366 82.5243 56.8705 82.4818 56.845 82.4479L56.0935 81.4627C56.0637 81.4245 56 81.4457 56 81.4924Z" fill="#FF7F00"/>
<rect x="13" y="62" width="37" height="13" rx="6.5" fill="#2F4553"/>
<path d="M31.5446 70H28.4066V69.196C30.1406 67.942 30.4646 67.666 30.4646 67.27C30.4646 66.994 30.2066 66.85 29.9126 66.85C29.4686 66.85 29.1326 67.018 28.8446 67.288L28.2746 66.604C28.7006 66.136 29.3366 65.938 29.8946 65.938C30.8366 65.938 31.5146 66.466 31.5146 67.27C31.5146 67.882 31.0766 68.404 30.0806 69.1H31.5446V70ZM34.8951 70H33.8811L33.3231 69.124L32.7591 70H31.7511L32.7411 68.512L31.8111 67.102H32.8251L33.3231 67.888L33.8151 67.102H34.8291L33.9051 68.512L34.8951 70Z" fill="white"/>
<path d="M8.03 11H7.215L6.56 9.815H6.04V11H5.33V7.665H6.89C7.585 7.665 8.01 8.12 8.01 8.74C8.01 9.33 7.64 9.645 7.28 9.73L8.03 11ZM6.785 9.19C7.07 9.19 7.285 9.02 7.285 8.74C7.285 8.46 7.07 8.29 6.785 8.29H6.04V9.19H6.785ZM10.5152 11H9.88023V10.75C9.71523 10.945 9.43023 11.06 9.11523 11.06C8.73023 11.06 8.27523 10.8 8.27523 10.26C8.27523 9.695 8.73023 9.48 9.11523 9.48C9.43523 9.48 9.72023 9.585 9.88023 9.775V9.45C9.88023 9.205 9.67023 9.045 9.35023 9.045C9.09023 9.045 8.85023 9.14 8.64523 9.33L8.40523 8.905C8.70023 8.645 9.08023 8.525 9.46023 8.525C10.0102 8.525 10.5152 8.745 10.5152 9.44V11ZM9.37023 10.63C9.57523 10.63 9.77523 10.56 9.88023 10.42V10.12C9.77523 9.98 9.57523 9.91 9.37023 9.91C9.12023 9.91 8.91523 10.04 8.91523 10.275C8.91523 10.5 9.12023 10.63 9.37023 10.63ZM11.7801 11H11.1451V8.585H11.7801V8.915C11.9501 8.7 12.2501 8.525 12.5501 8.525V9.145C12.5051 9.135 12.4451 9.13 12.3751 9.13C12.1651 9.13 11.8851 9.25 11.7801 9.405V11ZM14.0818 11.06C13.3468 11.06 12.7918 10.565 12.7918 9.79C12.7918 9.09 13.3068 8.525 14.0418 8.525C14.7618 8.525 15.2518 9.065 15.2518 9.855V9.995H13.4568C13.4968 10.3 13.7418 10.555 14.1518 10.555C14.3568 10.555 14.6418 10.465 14.7968 10.315L15.0768 10.725C14.8368 10.945 14.4568 11.06 14.0818 11.06ZM14.6368 9.565C14.6218 9.335 14.4618 9.03 14.0418 9.03C13.6468 9.03 13.4768 9.325 13.4468 9.565H14.6368Z" fill="white"/>
<path d="M48.9085 11H48.4565L47.0645 9.096V11H46.5965V8.332H47.0765L48.4405 10.184V8.332H48.9085V11ZM50.3354 11.048C49.7234 11.048 49.3434 10.588 49.3434 10.032C49.3434 9.48 49.7234 9.02 50.3354 9.02C50.9554 9.02 51.3314 9.48 51.3314 10.032C51.3314 10.588 50.9554 11.048 50.3354 11.048ZM50.3354 10.676C50.6954 10.676 50.8954 10.376 50.8954 10.032C50.8954 9.692 50.6954 9.392 50.3354 9.392C49.9794 9.392 49.7794 9.692 49.7794 10.032C49.7794 10.376 49.9794 10.676 50.3354 10.676ZM51.9528 11.044C51.8008 11.044 51.6728 10.916 51.6728 10.764C51.6728 10.612 51.8008 10.484 51.9528 10.484C52.1048 10.484 52.2328 10.612 52.2328 10.764C52.2328 10.916 52.1048 11.044 51.9528 11.044ZM54.6887 11.048C54.2287 11.048 53.9127 10.892 53.6967 10.636L53.9647 10.316C54.1447 10.52 54.3847 10.632 54.6847 10.632C55.0207 10.632 55.2327 10.424 55.2327 10.164C55.2327 9.876 55.0247 9.688 54.6967 9.688C54.4687 9.688 54.2807 9.76 54.1127 9.92L53.7807 9.824V8.332H55.5287V8.744H54.2487V9.516C54.3767 9.388 54.5967 9.284 54.8527 9.284C55.3007 9.284 55.7047 9.6 55.7047 10.144C55.7047 10.7 55.2847 11.048 54.6887 11.048ZM56.8671 11H56.3551L57.3631 8.744H55.9791V8.332H57.9031V8.656L56.8671 11Z" fill="white"/>
<defs>
<clipPath id="clip0_26835_29220">
<rect width="63" height="88" fill="white"/>
</clipPath>
</defs>
</svg>
