<svg width="63" height="88" viewBox="0 0 63 88" fill="none" xmlns="http://www.w3.org/2000/svg">
<rect width="63" height="88" rx="4" fill="#FF003F"/>
<path d="M36.7008 13.5133L44.7992 3.48665C45.5586 2.54645 46.7024 2 47.911 2H58C59.6569 2 61 3.34314 61 5V83C61 84.6569 59.6569 86 58 86H5C3.34315 86 2 84.6569 2 83V18C2 16.3431 3.34315 15 5 15H33.589C34.7976 15 35.9414 14.4536 36.7008 13.5133Z" fill="#213743"/>
<rect x="5" y="18" width="53" height="40" rx="1" fill="#2F4553"/>
<g clip-path="url(#clip0_26835_29221)">
<path d="M57 18H6C5.44772 18 5 18.4477 5 19V57C5 57.5523 5.44772 58 6 58H57C57.5523 58 58 57.5523 58 57V19C58 18.4477 57.5523 18 57 18Z" fill="#FF7F00"/>
<path d="M58 35.4399H5V51.7499H58V35.4399Z" fill="#FFC200"/>
<path d="M44.24 58L45.3 27.64C45.34 26.38 44.36 25.33 43.11 25.29L41.46 25.23C41.28 25.23 41.11 25.23 40.94 25.27C39.93 25.47 39.14 26.34 39.11 27.42L39.06 28.94L38.53 44.03L38.04 57.99H44.25L44.24 58Z" fill="#1A2C38"/>
<path d="M16.37 57.9999L12.65 28.6599C12.49 27.4099 11.35 26.5299 10.11 26.6899L9.58 26.7599L8.46 26.8999C7.21 27.0599 6.33 28.1999 6.49 29.4399L10.11 57.9999H16.36H16.37Z" fill="#1A2C38"/>
<path d="M34.32 58L36.63 26.93C36.72 25.68 35.78 24.59 34.53 24.49L32.88 24.37C32.65 24.35 32.43 24.37 32.22 24.42C31.26 24.63 30.52 25.45 30.44 26.47L30.21 29.51L29.13 43.95L28.97 46.09L28.08 58.01H34.3L34.32 58Z" fill="#1A2C38"/>
<path d="M50.241 15.8053C50.6288 15.6948 50.8719 15.3555 50.7841 15.0474C50.6963 14.7394 50.3108 14.5793 49.9231 14.6898C49.5353 14.8003 49.2922 15.1396 49.38 15.4477C49.4678 15.7557 49.8533 15.9159 50.241 15.8053Z" fill="white"/>
<path d="M50.7919 15.0473L49.3879 15.4475L50.1938 18.2749L51.5979 17.8747L50.7919 15.0473Z" fill="white"/>
<path d="M51.0531 18.6252C51.4408 18.5146 51.6839 18.1753 51.5961 17.8673C51.5083 17.5592 51.1228 17.3991 50.7351 17.5096C50.3473 17.6201 50.1042 17.9594 50.192 18.2675C50.2798 18.5756 50.6653 18.7357 51.0531 18.6252Z" fill="#0B2533"/>
<path d="M52.72 17.46C52.49 16.64 51.47 16.21 50.44 16.51C49.42 16.8 48.78 17.7 49.01 18.52L49.19 19.16L49.38 19.11C49.82 19.52 50.55 19.68 51.29 19.47C52.03 19.26 52.56 18.74 52.72 18.16L52.91 18.11L52.73 17.47L52.72 17.46Z" fill="white"/>
<path d="M51.4736 20.1131C52.4987 19.8209 53.1407 18.921 52.9075 18.1031C52.6744 17.2851 51.6544 16.8589 50.6293 17.1511C49.6042 17.4433 48.9622 18.3432 49.1954 19.1612C49.4285 19.9791 50.4485 20.4053 51.4736 20.1131Z" fill="#FF7F00"/>
<path d="M53.14 18.9499C52.91 18.1299 51.89 17.6999 50.86 17.9999C49.84 18.2899 49.2 19.1899 49.43 20.0099L49.61 20.6499L49.8 20.5999C50.24 21.0099 50.97 21.1699 51.71 20.9599C52.44 20.7499 52.98 20.2299 53.14 19.6499L53.33 19.5999L53.15 18.9599L53.14 18.9499Z" fill="white"/>
<path d="M51.8932 21.5914C52.9183 21.2992 53.5603 20.3993 53.3271 19.5813C53.094 18.7634 52.074 18.3372 51.0489 18.6294C50.0238 18.9216 49.3818 19.8215 49.615 20.6395C49.8481 21.4574 50.8681 21.8836 51.8932 21.5914Z" fill="#FF7F00"/>
<path d="M53.56 20.4299C53.33 19.6099 52.31 19.1799 51.28 19.4799C50.26 19.7699 49.62 20.6699 49.85 21.4899L50.03 22.1299L50.22 22.0799C50.66 22.4899 51.39 22.6499 52.13 22.4399C52.86 22.2299 53.4 21.7099 53.56 21.1299L53.75 21.0799L53.57 20.4399L53.56 20.4299Z" fill="white"/>
<path d="M52.3156 23.0792C53.3406 22.787 53.9826 21.8871 53.7495 21.0691C53.5163 20.2512 52.4963 19.825 51.4713 20.1172C50.4462 20.4094 49.8042 21.3093 50.0373 22.1272C50.2705 22.9452 51.2905 23.3714 52.3156 23.0792Z" fill="#FF7F00"/>
<path d="M53.99 21.9099C53.76 21.0899 52.74 20.6599 51.71 20.9599C50.69 21.2499 50.05 22.1499 50.28 22.9699L50.46 23.6099L50.65 23.5599C51.09 23.9699 51.82 24.1299 52.56 23.9199C53.29 23.7099 53.83 23.1899 53.99 22.6099L54.18 22.5599L54 21.9199L53.99 21.9099Z" fill="white"/>
<path d="M52.7448 24.5645C53.7699 24.2723 54.4119 23.3724 54.1787 22.5545C53.9456 21.7365 52.9256 21.3103 51.9005 21.6025C50.8754 21.8947 50.2334 22.7947 50.4666 23.6126C50.6997 24.4305 51.7197 24.8567 52.7448 24.5645Z" fill="#FF7F00"/>
<path d="M54.41 23.3899C54.18 22.5699 53.16 22.1399 52.13 22.4399C51.11 22.7299 50.47 23.6299 50.7 24.4499L50.88 25.0899L51.07 25.0399C51.51 25.4499 52.24 25.6099 52.98 25.3999C53.71 25.1899 54.25 24.6699 54.41 24.0899L54.6 24.0399L54.42 23.3999L54.41 23.3899Z" fill="white"/>
<path d="M53.1644 26.0428C54.1895 25.7506 54.8315 24.8507 54.5983 24.0327C54.3652 23.2148 53.3452 22.7886 52.3201 23.0808C51.295 23.373 50.6531 24.2729 50.8862 25.0909C51.1194 25.9088 52.1394 26.335 53.1644 26.0428Z" fill="#FFC200"/>
<path d="M52.9013 25.1196C53.289 25.009 53.5321 24.6697 53.4443 24.3617C53.3565 24.0536 52.971 23.8935 52.5833 24.004C52.1956 24.1145 51.9524 24.4538 52.0402 24.7619C52.128 25.0699 52.5135 25.2301 52.9013 25.1196Z" fill="white"/>
<path d="M53.4425 24.3542L52.0385 24.7544L52.8444 27.5818L54.2485 27.1815L53.4425 24.3542Z" fill="white"/>
<path d="M53.6964 27.9518C54.0841 27.8413 54.3273 27.502 54.2394 27.1939C54.1516 26.8859 53.7661 26.7257 53.3784 26.8363C52.9907 26.9468 52.7476 27.2861 52.8354 27.5942C52.9232 27.9022 53.3087 28.0623 53.6964 27.9518Z" fill="#FFC200"/>
<path d="M25.7175 18.2596C25.8832 18.2166 25.9354 17.8653 25.8339 17.4751C25.7325 17.0849 25.516 16.8035 25.3503 16.8466C25.1846 16.8896 25.1325 17.2409 25.2339 17.6311C25.3353 18.0213 25.5518 18.3027 25.7175 18.2596Z" fill="white"/>
<path d="M25.3517 16.8422L22.5063 17.5818L22.8736 18.9948L25.719 18.2552L25.3517 16.8422Z" fill="white"/>
<path d="M22.875 19.0003C23.0407 18.9573 23.0928 18.606 22.9914 18.2158C22.89 17.8256 22.6735 17.5442 22.5077 17.5873C22.342 17.6304 22.2899 17.9816 22.3914 18.3718C22.4928 18.762 22.7093 19.0434 22.875 19.0003Z" fill="#0B2533"/>
<path d="M22.23 16.41L21.07 16.71L22.04 20.44L23.2 20.14C23.63 20.03 23.76 19.1 23.49 18.07C23.22 17.04 22.66 16.3 22.23 16.41Z" fill="white"/>
<path d="M22.0462 20.4467C22.4738 20.3356 22.6031 19.4092 22.335 18.3775C22.0668 17.3459 21.5028 16.5997 21.0752 16.7109C20.6476 16.822 20.5183 17.7484 20.7864 18.78C21.0546 19.8117 21.6186 20.5579 22.0462 20.4467Z" fill="#FF7F00"/>
<path d="M20.29 16.92L19.13 17.22L20.1 20.95L21.26 20.65C21.69 20.54 21.82 19.61 21.55 18.58C21.28 17.55 20.72 16.81 20.29 16.92Z" fill="white"/>
<path d="M20.1069 20.9584C20.5345 20.8473 20.6638 19.9209 20.3956 18.8893C20.1275 17.8576 19.5635 17.1114 19.1359 17.2226C18.7082 17.3337 18.579 18.2601 18.8471 19.2918C19.1152 20.3234 19.6793 21.0696 20.1069 20.9584Z" fill="#FF7F00"/>
<path d="M18.33 17.43L17.17 17.73L18.14 21.46L19.3 21.16C19.73 21.05 19.86 20.12 19.59 19.09C19.32 18.06 18.76 17.32 18.33 17.43Z" fill="white"/>
<path d="M18.1457 21.4553C18.5733 21.3441 18.7026 20.4177 18.4345 19.3861C18.1663 18.3545 17.6023 17.6083 17.1747 17.7194C16.747 17.8306 16.6178 18.757 16.8859 19.7886C17.154 20.8202 17.7181 21.5664 18.1457 21.4553Z" fill="#FF7F00"/>
<path d="M16.39 17.93L15.23 18.23L16.2 21.96L17.36 21.66C17.79 21.55 17.92 20.62 17.65 19.59C17.38 18.56 16.82 17.82 16.39 17.93Z" fill="white"/>
<path d="M16.1967 21.9694C16.6243 21.8583 16.7536 20.9319 16.4855 19.9002C16.2173 18.8686 15.6533 18.1224 15.2257 18.2336C14.7981 18.3447 14.6688 19.2711 14.9369 20.3027C15.2051 21.3344 15.7691 22.0806 16.1967 21.9694Z" fill="#FF7F00"/>
<path d="M14.44 18.44L13.28 18.74L14.25 22.47L15.41 22.17C15.84 22.06 15.97 21.13 15.7 20.1C15.43 19.07 14.87 18.33 14.44 18.44Z" fill="white"/>
<path d="M14.2549 22.4714C14.6825 22.3602 14.8118 21.4338 14.5436 20.4022C14.2755 19.3706 13.7115 18.6244 13.2838 18.7355C12.8562 18.8467 12.7269 19.7731 12.9951 20.8047C13.2632 21.8363 13.8273 22.5825 14.2549 22.4714Z" fill="#FFC200"/>
<path d="M13.9555 21.3197C14.1212 21.2766 14.1733 20.9254 14.0719 20.5352C13.9705 20.145 13.7539 19.8636 13.5882 19.9066C13.4225 19.9497 13.3704 20.3009 13.4718 20.6911C13.5733 21.0813 13.7898 21.3628 13.9555 21.3197Z" fill="white"/>
<path d="M13.5872 19.8925L10.7417 20.6321L11.109 22.0451L13.9545 21.3055L13.5872 19.8925Z" fill="white"/>
<path d="M11.1033 22.0528C11.269 22.0098 11.3211 21.6585 11.2197 21.2683C11.1183 20.8781 10.9018 20.5967 10.7361 20.6398C10.5703 20.6829 10.5182 21.0341 10.6197 21.4243C10.7211 21.8145 10.9376 22.0959 11.1033 22.0528Z" fill="#FFC200"/>
<path d="M37.17 58L39.67 24.46C39.76 23.21 38.82 22.12 37.57 22.02L35.92 21.9C35.69 21.88 35.47 21.9 35.26 21.95C34.3 22.16 33.56 22.98 33.48 24L33.25 27.04L32.17 41.48L32.01 43.62L30.94 58.01H37.16L37.17 58Z" fill="white"/>
<path d="M34.59 40.17C33.85 40.87 33.02 41.3 32.18 41.47L33.26 27.03C34.3 27.53 35.23 28.44 35.92 29.73C37.72 33.1 37.12 37.77 34.6 40.17H34.59Z" fill="#FFEBB8"/>
<path d="M29.95 32.1601C28.05 33.5101 25.6 33.5101 23.73 32.3601C23.11 31.9801 22.56 31.4701 22.12 30.8401C20.32 28.3101 20.92 24.8001 23.44 23.0101C25 21.9001 26.94 21.7001 28.61 22.3101C29.65 22.6801 30.58 23.3701 31.27 24.3301C33.07 26.8601 32.47 30.3701 29.95 32.1601Z" fill="#FFC200"/>
<path d="M24.0652 25.3539C24.7315 24.6311 24.9853 23.7812 24.632 23.4555C24.2787 23.1298 23.4521 23.4518 22.7858 24.1746C22.1195 24.8974 21.8658 25.7474 22.2191 26.0731C22.5724 26.3987 23.3989 26.0768 24.0652 25.3539Z" fill="white"/>
<path d="M23.779 26.978C23.9881 26.5825 23.9993 26.1782 23.804 26.075C23.6088 25.9717 23.2809 26.2086 23.0718 26.604C22.8627 26.9995 22.8515 27.4038 23.0468 27.5071C23.242 27.6103 23.5699 27.3735 23.779 26.978Z" fill="white"/>
<path d="M47.18 58L48.33 25.17C48.37 23.91 47.39 22.86 46.14 22.82L44.49 22.76C44.31 22.76 44.14 22.76 43.97 22.8C42.96 23 42.17 23.87 42.14 24.95L42.09 26.47L41.56 41.56L40.99 57.99H47.2L47.18 58Z" fill="white"/>
<path d="M13.46 58H19.71L15.67 26.19C15.51 24.94 14.37 24.06 13.13 24.22L12.6 24.29L11.48 24.43C10.23 24.59 9.35 25.73 9.51 26.97L13.45 58H13.46Z" fill="white"/>
</g>
<path fill-rule="evenodd" clip-rule="evenodd" d="M6.49771 79C6.98969 79 7.48602 79.213 7.49037 79.6913C7.49037 80.1043 7.24656 80.2696 6.99839 80.2696C6.75023 80.2696 6.73281 80.1435 6.73281 80.1435C6.73281 80.1435 7.02452 79.9261 7.02452 79.7174C7.02452 79.6087 6.94179 79.313 6.489 79.3174C5.8577 79.3174 5.5181 79.6174 5.5181 80.1522C5.5181 80.7652 7.35105 80.9739 7.3554 81.7652C7.3554 82.613 6.47594 82.9957 5.69225 83C5.283 83 5.01306 82.7609 5.00871 82.3783C5.00871 81.9261 5.22204 81.4652 5.75756 81.4652C5.88382 81.4565 5.98831 81.5522 5.99702 81.6783C5.99702 81.6783 5.99702 81.6826 5.99702 81.687C5.99702 81.687 5.45715 81.8391 5.4615 82.3783C5.4615 82.4783 5.56599 82.6609 5.81851 82.6565C6.07103 82.6522 6.82424 82.4739 6.81989 81.8087C6.81989 81.1913 5.00435 81.1087 5 80.1478C5 79.0652 6.08845 79.0087 6.49771 79.0087V79ZM10.747 79.6C10.8123 79.5696 11.2129 79.4913 11.1955 79.813C11.1824 80.1348 10.9386 80.6913 10.9037 80.9348C11.2303 80.7696 11.6918 80.2087 11.6918 80.2087C11.6918 80.2087 12.0183 80.2522 11.9182 80.4522C11.818 80.6522 11.1519 81.1435 11.1519 81.1435C11.1519 81.1435 11.3043 82.5696 12.1707 82.5696C12.6453 82.5696 12.8499 82.3609 12.937 82.287C12.9587 82.2696 12.9762 82.2652 12.9849 82.2783C13.0197 82.387 12.9936 82.5043 12.9152 82.5913C12.8194 82.6957 12.5974 82.8217 12.1533 82.8261C11.3653 82.8261 10.9255 82.1957 10.8123 81.2609C10.7252 81.5348 10.7339 81.9826 10.7209 82.2C10.6948 82.2435 10.2507 82.4174 10.2158 82.1174C10.2158 82.0913 10.2158 82.0696 10.2158 82.0435C10.1331 82.1609 10.0199 82.2826 9.91108 82.2826C9.71951 82.2826 9.63679 82.1217 9.60196 82.0391C9.57584 82.0696 9.3625 82.287 9.08821 82.287C8.92277 82.2913 8.77474 82.1957 8.70943 82.0435C8.57011 82.1435 8.32195 82.2913 8.03895 82.2913C7.73418 82.2913 7.66017 82.1087 7.66017 81.9565C7.66017 81.713 7.84303 80.987 7.84303 80.987C7.84303 80.987 7.48602 81.1304 7.36411 81.1348C7.19431 81.1348 7.11159 80.8217 7.11159 80.813C7.11159 80.8087 7.11159 80.8 7.1203 80.8C7.22044 80.7609 7.94317 80.513 7.94317 80.513C7.94317 80.513 8.07813 79.9826 8.09555 79.913C8.11296 79.8435 8.2131 79.7 8.33065 79.6565C8.41773 79.6217 8.50916 79.6 8.60059 79.5913C8.63107 79.5913 8.65284 79.6 8.65284 79.6174C8.65284 79.6348 8.47433 80.4087 8.47433 80.4087C8.47433 80.4087 8.84876 80.3217 8.98808 80.3217C9.09692 80.3217 9.15352 80.387 9.09257 80.4696C9.03162 80.5522 8.96196 80.6478 8.92712 80.6913C8.88794 80.7348 8.86182 80.7435 8.77039 80.7609C8.64413 80.787 8.36113 80.8565 8.36113 80.8565C8.36113 80.8565 8.13473 81.6783 8.13909 81.8174C8.13909 81.8957 8.16521 81.987 8.26099 81.987C8.35678 81.987 8.53964 81.8739 8.67025 81.7913C8.69202 81.1522 9.18835 80.7261 9.57584 80.7261C9.7021 80.7261 9.65421 80.8478 9.79788 80.8478H9.88931C9.94591 80.8478 10.0069 80.8522 10.0069 80.9957C10.0069 81.1957 9.89367 81.5261 9.89367 81.7348C9.89367 81.8826 9.91544 81.987 9.97204 81.987C10.0678 81.987 10.1767 81.8478 10.255 81.7261C10.3813 81.0304 10.734 79.7609 10.734 79.6174L10.747 79.6ZM12.5016 80.7C12.7672 80.6783 12.9326 80.8217 12.9631 80.9C12.9936 80.9783 12.9892 81.1609 12.9152 81.2913C12.6845 81.7044 12.1097 81.6304 12.1097 81.6304C12.1097 81.6304 12.0444 81.9565 12.3405 81.9565C12.593 81.9565 12.7062 81.8304 12.8151 81.7261C12.8586 81.7261 12.9936 81.8652 12.9326 81.9609C12.8847 82.0348 12.6191 82.2565 12.2795 82.2609C11.7397 82.2609 11.6047 81.8 11.6744 81.4696C11.7658 81.0609 12.1751 80.7217 12.5016 80.6957V80.7ZM9.6455 80.987C9.32332 80.987 8.82699 81.9696 9.20577 81.9652C9.61938 81.9652 9.6455 81.1826 9.6455 81.0043V80.987ZM12.6409 80.8913C12.4232 80.9 12.1751 81.3174 12.1533 81.5C12.4798 81.513 12.654 81.1957 12.6757 81.0696C12.6888 80.9739 12.6932 80.887 12.6409 80.887V80.8913Z" fill="#557086"/>
<path d="M56.1444 79.3778L56.6412 80.278L57.6519 80.4733C57.7792 80.4988 57.8302 80.6559 57.741 80.7494L57.0361 81.5009L57.1635 82.5243C57.1805 82.6559 57.0446 82.7494 56.93 82.6942L56 82.2568L55.0701 82.6942C54.9512 82.7494 54.8196 82.6517 54.8366 82.5243L54.964 81.5009L54.2591 80.7494C54.1699 80.6559 54.2209 80.4988 54.3482 80.4733L55.3589 80.278L55.8557 79.3778C55.9194 79.2632 56.085 79.2632 56.1444 79.3778Z" fill="#FFC200"/>
<path d="M56 79.2929C56.0552 79.2929 56.1147 79.3226 56.1444 79.3778L56.6412 80.278L57.6519 80.4733C57.7792 80.4988 57.8302 80.6559 57.741 80.7494L57.0361 81.5009L57.1635 82.5243C57.1763 82.6262 57.0955 82.7111 56.9979 82.7111C56.9766 82.7111 56.9512 82.7069 56.9257 82.6942L55.9958 82.2568L55.0658 82.6942C55.0403 82.7069 55.0191 82.7111 54.9936 82.7111C54.9002 82.7111 54.8153 82.6262 54.828 82.5243L54.9554 81.5009L54.2505 80.7494C54.1614 80.6559 54.2123 80.4988 54.3397 80.4733L55.3503 80.278L55.8471 79.3778C55.8769 79.3226 55.9363 79.2929 55.9915 79.2929M56 79.0806C55.8641 79.0806 55.7367 79.157 55.6688 79.2759L55.2187 80.0912L54.3057 80.2653C54.1699 80.2908 54.0594 80.3884 54.017 80.5201C53.9745 80.6517 54.0085 80.7961 54.1019 80.8937L54.7389 81.5731L54.6242 82.4946C54.6115 82.6007 54.6454 82.7111 54.7134 82.7918C54.7856 82.8725 54.8875 82.9192 54.9979 82.9192C55.0531 82.9192 55.1083 82.9065 55.1592 82.881L56 82.4861L56.8408 82.881C56.8917 82.9065 56.9469 82.9192 57.0021 82.9192C57.1125 82.9192 57.2144 82.8725 57.2866 82.7918C57.3588 82.7111 57.3928 82.6007 57.3758 82.4946L57.2611 81.5731L57.8981 80.8937C57.9915 80.7918 58.0255 80.6474 57.983 80.5201C57.9406 80.3884 57.8301 80.2908 57.6943 80.2653L56.7813 80.0912L56.3312 79.2759C56.2633 79.157 56.1359 79.0806 56 79.0806Z" fill="#213743"/>
<path d="M56 79.8152V80.9744C56 81.0678 56.0892 81.1315 56.1784 81.106L57.2187 80.7706C57.2739 80.7536 57.2697 80.6729 57.2102 80.6602L56.5563 80.5413C56.4969 80.5286 56.4417 80.4903 56.4119 80.4351L56.085 79.7939C56.0637 79.7515 55.9958 79.7642 55.9958 79.8152H56Z" fill="#FFEBB8"/>
<path d="M56 81.4924V82.0699C56 82.1039 56.017 82.1294 56.0467 82.1464L56.7983 82.5073C56.8366 82.5243 56.8705 82.4818 56.845 82.4479L56.0935 81.4627C56.0637 81.4245 56 81.4457 56 81.4924Z" fill="#FF7F00"/>
<rect x="13" y="62" width="37" height="13" rx="6.5" fill="#2F4553"/>
<path d="M31.5446 70H28.4066V69.196C30.1406 67.942 30.4646 67.666 30.4646 67.27C30.4646 66.994 30.2066 66.85 29.9126 66.85C29.4686 66.85 29.1326 67.018 28.8446 67.288L28.2746 66.604C28.7006 66.136 29.3366 65.938 29.8946 65.938C30.8366 65.938 31.5146 66.466 31.5146 67.27C31.5146 67.882 31.0766 68.404 30.0806 69.1H31.5446V70ZM34.8951 70H33.8811L33.3231 69.124L32.7591 70H31.7511L32.7411 68.512L31.8111 67.102H32.8251L33.3231 67.888L33.8151 67.102H34.8291L33.9051 68.512L34.8951 70Z" fill="white"/>
<path d="M8.03 11H7.215L6.56 9.815H6.04V11H5.33V7.665H6.89C7.585 7.665 8.01 8.12 8.01 8.74C8.01 9.33 7.64 9.645 7.28 9.73L8.03 11ZM6.785 9.19C7.07 9.19 7.285 9.02 7.285 8.74C7.285 8.46 7.07 8.29 6.785 8.29H6.04V9.19H6.785ZM10.5152 11H9.88023V10.75C9.71523 10.945 9.43023 11.06 9.11523 11.06C8.73023 11.06 8.27523 10.8 8.27523 10.26C8.27523 9.695 8.73023 9.48 9.11523 9.48C9.43523 9.48 9.72023 9.585 9.88023 9.775V9.45C9.88023 9.205 9.67023 9.045 9.35023 9.045C9.09023 9.045 8.85023 9.14 8.64523 9.33L8.40523 8.905C8.70023 8.645 9.08023 8.525 9.46023 8.525C10.0102 8.525 10.5152 8.745 10.5152 9.44V11ZM9.37023 10.63C9.57523 10.63 9.77523 10.56 9.88023 10.42V10.12C9.77523 9.98 9.57523 9.91 9.37023 9.91C9.12023 9.91 8.91523 10.04 8.91523 10.275C8.91523 10.5 9.12023 10.63 9.37023 10.63ZM11.7801 11H11.1451V8.585H11.7801V8.915C11.9501 8.7 12.2501 8.525 12.5501 8.525V9.145C12.5051 9.135 12.4451 9.13 12.3751 9.13C12.1651 9.13 11.8851 9.25 11.7801 9.405V11ZM14.0818 11.06C13.3468 11.06 12.7918 10.565 12.7918 9.79C12.7918 9.09 13.3068 8.525 14.0418 8.525C14.7618 8.525 15.2518 9.065 15.2518 9.855V9.995H13.4568C13.4968 10.3 13.7418 10.555 14.1518 10.555C14.3568 10.555 14.6418 10.465 14.7968 10.315L15.0768 10.725C14.8368 10.945 14.4568 11.06 14.0818 11.06ZM14.6368 9.565C14.6218 9.335 14.4618 9.03 14.0418 9.03C13.6468 9.03 13.4768 9.325 13.4468 9.565H14.6368Z" fill="white"/>
<path d="M48.6585 11H48.2065L46.8145 9.096V11H46.3465V8.332H46.8265L48.1905 10.184V8.332H48.6585V11ZM50.0854 11.048C49.4734 11.048 49.0934 10.588 49.0934 10.032C49.0934 9.48 49.4734 9.02 50.0854 9.02C50.7054 9.02 51.0814 9.48 51.0814 10.032C51.0814 10.588 50.7054 11.048 50.0854 11.048ZM50.0854 10.676C50.4454 10.676 50.6454 10.376 50.6454 10.032C50.6454 9.692 50.4454 9.392 50.0854 9.392C49.7294 9.392 49.5294 9.692 49.5294 10.032C49.5294 10.376 49.7294 10.676 50.0854 10.676ZM51.7028 11.044C51.5508 11.044 51.4228 10.916 51.4228 10.764C51.4228 10.612 51.5508 10.484 51.7028 10.484C51.8548 10.484 51.9828 10.612 51.9828 10.764C51.9828 10.916 51.8548 11.044 51.7028 11.044ZM54.4387 11.048C53.9787 11.048 53.6627 10.892 53.4467 10.636L53.7147 10.316C53.8947 10.52 54.1347 10.632 54.4347 10.632C54.7707 10.632 54.9827 10.424 54.9827 10.164C54.9827 9.876 54.7747 9.688 54.4467 9.688C54.2187 9.688 54.0307 9.76 53.8627 9.92L53.5307 9.824V8.332H55.2787V8.744H53.9987V9.516C54.1267 9.388 54.3467 9.284 54.6027 9.284C55.0507 9.284 55.4547 9.6 55.4547 10.144C55.4547 10.7 55.0347 11.048 54.4387 11.048ZM56.8131 11.048C56.2651 11.048 55.7891 10.796 55.7891 10.316C55.7891 9.976 56.0651 9.732 56.3891 9.624C56.0891 9.528 55.8331 9.332 55.8331 8.992C55.8331 8.5 56.3371 8.292 56.8131 8.292C57.2811 8.292 57.7931 8.5 57.7931 8.992C57.7931 9.332 57.5331 9.528 57.2331 9.624C57.5571 9.732 57.8331 9.976 57.8331 10.316C57.8331 10.792 57.3571 11.048 56.8131 11.048ZM56.8131 9.44C56.9771 9.412 57.3171 9.316 57.3171 9.064C57.3171 8.84 57.0971 8.708 56.8131 8.708C56.5211 8.708 56.3051 8.84 56.3051 9.064C56.3051 9.316 56.6491 9.412 56.8131 9.44ZM56.8131 10.632C57.1091 10.632 57.3611 10.488 57.3611 10.256C57.3611 9.98 56.9771 9.856 56.8131 9.836C56.6451 9.856 56.2611 9.98 56.2611 10.256C56.2611 10.488 56.5091 10.632 56.8131 10.632Z" fill="white"/>
<defs>
<clipPath id="clip0_26835_29221">
<rect width="63" height="88" fill="white"/>
</clipPath>
</defs>
</svg>
