<svg width="63" height="88" viewBox="0 0 63 88" fill="none" xmlns="http://www.w3.org/2000/svg">
<rect width="63" height="88" rx="4" fill="#FF003F"/>
<path d="M36.7008 13.5133L44.7992 3.48665C45.5586 2.54645 46.7024 2 47.911 2H58C59.6569 2 61 3.34314 61 5V83C61 84.6569 59.6569 86 58 86H5C3.34315 86 2 84.6569 2 83V18C2 16.3431 3.34315 15 5 15H33.589C34.7976 15 35.9414 14.4536 36.7008 13.5133Z" fill="#213743"/>
<rect x="5" y="18" width="53" height="40" rx="1" fill="#2F4553"/>
<g clip-path="url(#clip0_26835_29222)">
<path d="M57 18H6C5.44772 18 5 18.4477 5 19V57C5 57.5523 5.44772 58 6 58H57C57.5523 58 58 57.5523 58 57V19C58 18.4477 57.5523 18 57 18Z" fill="#047BFF"/>
<rect x="5" y="49" width="53" height="3" fill="#1A2C38"/>
<path d="M58 19C58 18.45 57.55 18 57 18H6C5.45 18 5 18.45 5 19V30.06C10.01 39.58 19.99 46.07 31.5 46.07C43.01 46.07 52.99 39.57 58 30.05V19.01V19Z" fill="#45A7FF"/>
<path d="M35.77 36.05L32.82 28.73H43.53C44.26 28.73 44.92 29.18 45.2 29.86L47.15 34.7C47.41 35.35 46.93 36.06 46.23 36.06H35.77V36.05Z" fill="#1A2C38"/>
<path d="M44.05 43.3801L41.1 36.0601H51.81C52.54 36.0601 53.2 36.5101 53.48 37.1901L55.43 42.0301C55.69 42.6801 55.21 43.3901 54.51 43.3901H44.05V43.3801Z" fill="#1A2C38"/>
<path d="M19.23 49.2301L16.28 40.3601H25.67C26.4 40.3601 27.06 40.9001 27.34 41.7201L29.29 47.5801C29.55 48.3701 29.07 49.2201 28.37 49.2201H19.23V49.2301Z" fill="#1A2C38"/>
<path d="M21.41 47.8799L19.46 43.0399C19.19 42.3599 18.53 41.9099 17.79 41.9099H12.8L12.87 49.2299H20.49C21.19 49.2299 21.67 48.5199 21.41 47.8699V47.8799Z" fill="#FF5500"/>
<path d="M32.09 49.2301L29.14 40.3601H38.53C39.26 40.3601 39.92 40.9001 40.2 41.7201L42.15 47.5801C42.41 48.3701 41.93 49.2201 41.23 49.2201H32.09V49.2301Z" fill="#1A2C38"/>
<path d="M37.87 47.8799L35.92 43.0399C35.65 42.3599 34.99 41.9099 34.25 41.9099H29.26L29.33 49.2299H36.95C37.65 49.2299 38.13 48.5199 37.87 47.8699V47.8799Z" fill="#FF5500"/>
<path d="M23.91 41.89L20.96 33.02H30.35C31.08 33.02 31.74 33.56 32.02 34.38L33.97 40.24C34.23 41.03 33.75 41.88 33.05 41.88H23.91V41.89Z" fill="#1A2C38"/>
<path d="M29.69 40.5401L27.74 35.7001C27.47 35.0201 26.81 34.5701 26.07 34.5701H21.08L21.15 41.8901H28.77C29.47 41.8901 29.95 41.1801 29.69 40.5301V40.5401Z" fill="#FF5500"/>
<path d="M32.72 34.57L29.77 27.25H40.48C41.21 27.25 41.87 27.7 42.15 28.38L44.1 33.22C44.36 33.87 43.88 34.58 43.18 34.58H32.72V34.57Z" fill="#FF7F00"/>
<path d="M19.39 33.21L21.34 28.37C21.61 27.69 22.27 27.24 23.01 27.24H31.47C32.2 27.24 32.86 27.69 33.14 28.37L35.09 33.21C35.35 33.86 34.87 34.57 34.17 34.57H20.32C19.62 34.57 19.14 33.86 19.4 33.21H19.39Z" fill="#FFC200"/>
<path d="M10.58 40.5401L12.53 35.7001C12.8 35.0201 13.46 34.5701 14.2 34.5701H22.66C23.39 34.5701 24.05 35.0201 24.33 35.7001L26.28 40.5401C26.54 41.1901 26.06 41.9001 25.36 41.9001H11.51C10.81 41.9001 10.33 41.1901 10.59 40.5401H10.58Z" fill="#FFC200"/>
<path d="M40.99 41.8901L38.04 34.5701H48.75C49.48 34.5701 50.14 35.0201 50.42 35.7001L52.37 40.5401C52.63 41.1901 52.15 41.9001 51.45 41.9001H40.99V41.8901Z" fill="#FF7F00"/>
<path d="M27.67 40.5401L29.62 35.7001C29.89 35.0201 30.55 34.5701 31.29 34.5701H39.75C40.48 34.5701 41.14 35.0201 41.42 35.7001L43.37 40.5401C43.63 41.1901 43.15 41.9001 42.45 41.9001H28.6C27.9 41.9001 27.42 41.1901 27.68 40.5401H27.67Z" fill="#FFC200"/>
<path d="M24.19 27.25L26.22 34.57H31L28.75 27.25H24.19Z" fill="#FFEBB8"/>
<path d="M19.39 47.8799L21.34 43.0399C21.61 42.3599 22.27 41.9099 23.01 41.9099H31.47C32.2 41.9099 32.86 42.3599 33.14 43.0399L35.09 47.8799C35.35 48.5299 34.87 49.2399 34.17 49.2399H20.32C19.62 49.2399 19.14 48.5299 19.4 47.8799H19.39Z" fill="#FFC200"/>
<path d="M24.19 41.9099L26.22 49.2299H31L28.75 41.9099H24.19Z" fill="#FFEBB8"/>
<path d="M15.4 34.5701L17.42 41.8901H22.21L19.96 34.5701H15.4Z" fill="#FFEBB8"/>
<path d="M32.86 34.5701L34.88 41.8901H39.67L37.41 34.5701H32.86Z" fill="#FFEBB8"/>
<path d="M2.30999 47.8799L4.25999 43.0399C4.52999 42.3599 5.18999 41.9099 5.92999 41.9099H14.39C15.12 41.9099 15.78 42.3599 16.06 43.0399L18.01 47.8799C18.27 48.5299 17.79 49.2399 17.09 49.2399H3.21999C2.51999 49.2399 2.03999 48.5299 2.29999 47.8799H2.30999Z" fill="#FFC200"/>
<path d="M49.82 49.2299L46.87 41.9099H57.58C58.31 41.9099 58.97 42.3599 59.25 43.0399L61.2 47.8799C61.46 48.5299 60.98 49.2399 60.28 49.2399H49.82V49.2299Z" fill="#FF7F00"/>
<path d="M36.5 47.8799L38.45 43.0399C38.72 42.3599 39.38 41.9099 40.12 41.9099H48.58C49.31 41.9099 49.97 42.3599 50.25 43.0399L52.2 47.8799C52.46 48.5299 51.98 49.2399 51.28 49.2399H37.43C36.73 49.2399 36.25 48.5299 36.51 47.8799H36.5Z" fill="#FFC200"/>
<path d="M41.37 41.9099L43.39 49.2299H48.18L45.92 41.9099H41.37Z" fill="#FFEBB8"/>
<path d="M7.12 41.9099L9.14999 49.2299H13.93L11.68 41.9099H7.12Z" fill="#FFEBB8"/>
<path d="M13.93 24.75C13.27 25.77 12.74 26.3 11.73 26.95C12.75 27.61 13.28 28.14 13.93 29.15C14.59 28.13 15.12 27.6 16.13 26.95C15.11 26.29 14.58 25.76 13.93 24.75Z" fill="white"/>
<path d="M49.61 32.3701C48.95 33.3901 48.42 33.9201 47.41 34.5701C48.43 35.2301 48.96 35.7601 49.61 36.7701C50.27 35.7501 50.8 35.2201 51.81 34.5701C50.79 33.9101 50.26 33.3801 49.61 32.3701Z" fill="white"/>
</g>
<path fill-rule="evenodd" clip-rule="evenodd" d="M6.49771 79C6.98969 79 7.48602 79.213 7.49037 79.6913C7.49037 80.1043 7.24656 80.2696 6.99839 80.2696C6.75023 80.2696 6.73281 80.1435 6.73281 80.1435C6.73281 80.1435 7.02452 79.9261 7.02452 79.7174C7.02452 79.6087 6.94179 79.313 6.489 79.3174C5.8577 79.3174 5.5181 79.6174 5.5181 80.1522C5.5181 80.7652 7.35105 80.9739 7.3554 81.7652C7.3554 82.613 6.47594 82.9957 5.69225 83C5.283 83 5.01306 82.7609 5.00871 82.3783C5.00871 81.9261 5.22204 81.4652 5.75756 81.4652C5.88382 81.4565 5.98831 81.5522 5.99702 81.6783C5.99702 81.6783 5.99702 81.6826 5.99702 81.687C5.99702 81.687 5.45715 81.8391 5.4615 82.3783C5.4615 82.4783 5.56599 82.6609 5.81851 82.6565C6.07103 82.6522 6.82424 82.4739 6.81989 81.8087C6.81989 81.1913 5.00435 81.1087 5 80.1478C5 79.0652 6.08845 79.0087 6.49771 79.0087V79ZM10.747 79.6C10.8123 79.5696 11.2129 79.4913 11.1955 79.813C11.1824 80.1348 10.9386 80.6913 10.9037 80.9348C11.2303 80.7696 11.6918 80.2087 11.6918 80.2087C11.6918 80.2087 12.0183 80.2522 11.9182 80.4522C11.818 80.6522 11.1519 81.1435 11.1519 81.1435C11.1519 81.1435 11.3043 82.5696 12.1707 82.5696C12.6453 82.5696 12.8499 82.3609 12.937 82.287C12.9587 82.2696 12.9762 82.2652 12.9849 82.2783C13.0197 82.387 12.9936 82.5043 12.9152 82.5913C12.8194 82.6957 12.5974 82.8217 12.1533 82.8261C11.3653 82.8261 10.9255 82.1957 10.8123 81.2609C10.7252 81.5348 10.7339 81.9826 10.7209 82.2C10.6948 82.2435 10.2507 82.4174 10.2158 82.1174C10.2158 82.0913 10.2158 82.0696 10.2158 82.0435C10.1331 82.1609 10.0199 82.2826 9.91108 82.2826C9.71951 82.2826 9.63679 82.1217 9.60196 82.0391C9.57584 82.0696 9.3625 82.287 9.08821 82.287C8.92277 82.2913 8.77474 82.1957 8.70943 82.0435C8.57011 82.1435 8.32195 82.2913 8.03895 82.2913C7.73418 82.2913 7.66017 82.1087 7.66017 81.9565C7.66017 81.713 7.84303 80.987 7.84303 80.987C7.84303 80.987 7.48602 81.1304 7.36411 81.1348C7.19431 81.1348 7.11159 80.8217 7.11159 80.813C7.11159 80.8087 7.11159 80.8 7.1203 80.8C7.22044 80.7609 7.94317 80.513 7.94317 80.513C7.94317 80.513 8.07813 79.9826 8.09555 79.913C8.11296 79.8435 8.2131 79.7 8.33065 79.6565C8.41773 79.6217 8.50916 79.6 8.60059 79.5913C8.63107 79.5913 8.65284 79.6 8.65284 79.6174C8.65284 79.6348 8.47433 80.4087 8.47433 80.4087C8.47433 80.4087 8.84876 80.3217 8.98808 80.3217C9.09692 80.3217 9.15352 80.387 9.09257 80.4696C9.03162 80.5522 8.96196 80.6478 8.92712 80.6913C8.88794 80.7348 8.86182 80.7435 8.77039 80.7609C8.64413 80.787 8.36113 80.8565 8.36113 80.8565C8.36113 80.8565 8.13473 81.6783 8.13909 81.8174C8.13909 81.8957 8.16521 81.987 8.26099 81.987C8.35678 81.987 8.53964 81.8739 8.67025 81.7913C8.69202 81.1522 9.18835 80.7261 9.57584 80.7261C9.7021 80.7261 9.65421 80.8478 9.79788 80.8478H9.88931C9.94591 80.8478 10.0069 80.8522 10.0069 80.9957C10.0069 81.1957 9.89367 81.5261 9.89367 81.7348C9.89367 81.8826 9.91544 81.987 9.97204 81.987C10.0678 81.987 10.1767 81.8478 10.255 81.7261C10.3813 81.0304 10.734 79.7609 10.734 79.6174L10.747 79.6ZM12.5016 80.7C12.7672 80.6783 12.9326 80.8217 12.9631 80.9C12.9936 80.9783 12.9892 81.1609 12.9152 81.2913C12.6845 81.7044 12.1097 81.6304 12.1097 81.6304C12.1097 81.6304 12.0444 81.9565 12.3405 81.9565C12.593 81.9565 12.7062 81.8304 12.8151 81.7261C12.8586 81.7261 12.9936 81.8652 12.9326 81.9609C12.8847 82.0348 12.6191 82.2565 12.2795 82.2609C11.7397 82.2609 11.6047 81.8 11.6744 81.4696C11.7658 81.0609 12.1751 80.7217 12.5016 80.6957V80.7ZM9.6455 80.987C9.32332 80.987 8.82699 81.9696 9.20577 81.9652C9.61938 81.9652 9.6455 81.1826 9.6455 81.0043V80.987ZM12.6409 80.8913C12.4232 80.9 12.1751 81.3174 12.1533 81.5C12.4798 81.513 12.654 81.1957 12.6757 81.0696C12.6888 80.9739 12.6932 80.887 12.6409 80.887V80.8913Z" fill="#557086"/>
<path d="M56.1444 79.3778L56.6412 80.278L57.6519 80.4733C57.7792 80.4988 57.8302 80.6559 57.741 80.7494L57.0361 81.5009L57.1635 82.5243C57.1805 82.6559 57.0446 82.7494 56.93 82.6942L56.0001 82.2568L55.0701 82.6942C54.9512 82.7494 54.8196 82.6517 54.8366 82.5243L54.964 81.5009L54.2591 80.7494C54.1699 80.6559 54.2209 80.4988 54.3482 80.4733L55.3589 80.278L55.8557 79.3778C55.9194 79.2632 56.085 79.2632 56.1444 79.3778Z" fill="#FFC200"/>
<path d="M56 79.2929C56.0552 79.2929 56.1147 79.3226 56.1444 79.3778L56.6412 80.278L57.6519 80.4733C57.7792 80.4988 57.8302 80.6559 57.741 80.7494L57.0361 81.5009L57.1635 82.5243C57.1763 82.6262 57.0955 82.7111 56.9979 82.7111C56.9767 82.7111 56.9512 82.7069 56.9257 82.6942L55.9958 82.2568L55.0658 82.6942C55.0403 82.7069 55.0191 82.7111 54.9936 82.7111C54.9002 82.7111 54.8153 82.6262 54.828 82.5243L54.9554 81.5009L54.2505 80.7494C54.1614 80.6559 54.2123 80.4988 54.3397 80.4733L55.3503 80.278L55.8471 79.3778C55.8769 79.3226 55.9363 79.2929 55.9915 79.2929M56 79.0806C55.8641 79.0806 55.7367 79.157 55.6688 79.2759L55.2187 80.0912L54.3057 80.2653C54.1699 80.2908 54.0595 80.3884 54.017 80.5201C53.9745 80.6517 54.0085 80.7961 54.1019 80.8937L54.7389 81.5731L54.6242 82.4946C54.6115 82.6007 54.6454 82.7111 54.7134 82.7918C54.7856 82.8725 54.8875 82.9192 54.9979 82.9192C55.0531 82.9192 55.1083 82.9065 55.1592 82.881L56 82.4861L56.8408 82.881C56.8917 82.9065 56.9469 82.9192 57.0021 82.9192C57.1125 82.9192 57.2144 82.8725 57.2866 82.7918C57.3588 82.7111 57.3928 82.6007 57.3758 82.4946L57.2612 81.5731L57.8981 80.8937C57.9915 80.7918 58.0255 80.6474 57.983 80.5201C57.9406 80.3884 57.8302 80.2908 57.6943 80.2653L56.7813 80.0912L56.3312 79.2759C56.2633 79.157 56.1359 79.0806 56 79.0806Z" fill="#213743"/>
<path d="M56.0001 79.8152V80.9744C56.0001 81.0678 56.0892 81.1315 56.1784 81.106L57.2187 80.7706C57.2739 80.7536 57.2697 80.6729 57.2102 80.6602L56.5563 80.5413C56.4969 80.5286 56.4417 80.4903 56.4119 80.4351L56.085 79.7939C56.0637 79.7515 55.9958 79.7642 55.9958 79.8152H56.0001Z" fill="#FFEBB8"/>
<path d="M56 81.4924V82.0699C56 82.1039 56.017 82.1294 56.0468 82.1464L56.7983 82.5073C56.8366 82.5243 56.8705 82.4818 56.8451 82.4479L56.0935 81.4627C56.0637 81.4245 56 81.4457 56 81.4924Z" fill="#FF7F00"/>
<rect x="13" y="62" width="37" height="13" rx="6.5" fill="#2F4553"/>
<path d="M31.5446 70H28.4066V69.196C30.1406 67.942 30.4646 67.666 30.4646 67.27C30.4646 66.994 30.2066 66.85 29.9126 66.85C29.4686 66.85 29.1326 67.018 28.8446 67.288L28.2746 66.604C28.7006 66.136 29.3366 65.938 29.8946 65.938C30.8366 65.938 31.5146 66.466 31.5146 67.27C31.5146 67.882 31.0766 68.404 30.0806 69.1H31.5446V70ZM34.8951 70H33.8811L33.3231 69.124L32.7591 70H31.7511L32.7411 68.512L31.8111 67.102H32.8251L33.3231 67.888L33.8151 67.102H34.8291L33.9051 68.512L34.8951 70Z" fill="white"/>
<path d="M8.03 11H7.215L6.56 9.815H6.04V11H5.33V7.665H6.89C7.585 7.665 8.01 8.12 8.01 8.74C8.01 9.33 7.64 9.645 7.28 9.73L8.03 11ZM6.785 9.19C7.07 9.19 7.285 9.02 7.285 8.74C7.285 8.46 7.07 8.29 6.785 8.29H6.04V9.19H6.785ZM10.5152 11H9.88023V10.75C9.71523 10.945 9.43023 11.06 9.11523 11.06C8.73023 11.06 8.27523 10.8 8.27523 10.26C8.27523 9.695 8.73023 9.48 9.11523 9.48C9.43523 9.48 9.72023 9.585 9.88023 9.775V9.45C9.88023 9.205 9.67023 9.045 9.35023 9.045C9.09023 9.045 8.85023 9.14 8.64523 9.33L8.40523 8.905C8.70023 8.645 9.08023 8.525 9.46023 8.525C10.0102 8.525 10.5152 8.745 10.5152 9.44V11ZM9.37023 10.63C9.57523 10.63 9.77523 10.56 9.88023 10.42V10.12C9.77523 9.98 9.57523 9.91 9.37023 9.91C9.12023 9.91 8.91523 10.04 8.91523 10.275C8.91523 10.5 9.12023 10.63 9.37023 10.63ZM11.7801 11H11.1451V8.585H11.7801V8.915C11.9501 8.7 12.2501 8.525 12.5501 8.525V9.145C12.5051 9.135 12.4451 9.13 12.3751 9.13C12.1651 9.13 11.8851 9.25 11.7801 9.405V11ZM14.0818 11.06C13.3468 11.06 12.7918 10.565 12.7918 9.79C12.7918 9.09 13.3068 8.525 14.0418 8.525C14.7618 8.525 15.2518 9.065 15.2518 9.855V9.995H13.4568C13.4968 10.3 13.7418 10.555 14.1518 10.555C14.3568 10.555 14.6418 10.465 14.7968 10.315L15.0768 10.725C14.8368 10.945 14.4568 11.06 14.0818 11.06ZM14.6368 9.565C14.6218 9.335 14.4618 9.03 14.0418 9.03C13.6468 9.03 13.4768 9.325 13.4468 9.565H14.6368Z" fill="white"/>
<path d="M48.6351 11H48.1831L46.7911 9.096V11H46.3231V8.332H46.8031L48.1671 10.184V8.332H48.6351V11ZM50.062 11.048C49.45 11.048 49.07 10.588 49.07 10.032C49.07 9.48 49.45 9.02 50.062 9.02C50.682 9.02 51.058 9.48 51.058 10.032C51.058 10.588 50.682 11.048 50.062 11.048ZM50.062 10.676C50.422 10.676 50.622 10.376 50.622 10.032C50.622 9.692 50.422 9.392 50.062 9.392C49.706 9.392 49.506 9.692 49.506 10.032C49.506 10.376 49.706 10.676 50.062 10.676ZM51.6794 11.044C51.5274 11.044 51.3994 10.916 51.3994 10.764C51.3994 10.612 51.5274 10.484 51.6794 10.484C51.8314 10.484 51.9594 10.612 51.9594 10.764C51.9594 10.916 51.8314 11.044 51.6794 11.044ZM54.4152 11.048C53.9552 11.048 53.6392 10.892 53.4232 10.636L53.6912 10.316C53.8712 10.52 54.1112 10.632 54.4112 10.632C54.7472 10.632 54.9592 10.424 54.9592 10.164C54.9592 9.876 54.7512 9.688 54.4232 9.688C54.1952 9.688 54.0072 9.76 53.8392 9.92L53.5072 9.824V8.332H55.2552V8.744H53.9752V9.516C54.1032 9.388 54.3232 9.284 54.5792 9.284C55.0272 9.284 55.4312 9.6 55.4312 10.144C55.4312 10.7 55.0112 11.048 54.4152 11.048ZM56.6577 11.044C56.3297 11.044 56.0737 10.928 55.8937 10.748L56.1097 10.396C56.2497 10.54 56.4057 10.628 56.6577 10.628C57.1417 10.628 57.3617 10.188 57.3617 9.752C57.3617 9.724 57.3617 9.7 57.3617 9.672C57.2377 9.852 56.9577 10.048 56.6457 10.048C56.1657 10.048 55.7497 9.752 55.7497 9.184C55.7497 8.692 56.1377 8.288 56.7337 8.288C57.5177 8.288 57.8337 8.924 57.8337 9.668C57.8337 10.436 57.4297 11.044 56.6577 11.044ZM56.7697 9.644C56.9977 9.644 57.2217 9.524 57.3537 9.332C57.3297 9.044 57.1697 8.704 56.7577 8.704C56.4097 8.704 56.2257 8.956 56.2257 9.168C56.2257 9.496 56.4817 9.644 56.7697 9.644Z" fill="white"/>
<defs>
<clipPath id="clip0_26835_29222">
<rect width="63" height="88" fill="white"/>
</clipPath>
</defs>
</svg>
