<svg width="63" height="88" viewBox="0 0 63 88" fill="none" xmlns="http://www.w3.org/2000/svg">
<rect width="63" height="88" rx="4" fill="#FF003F"/>
<path d="M36.7008 13.5133L44.7992 3.48665C45.5586 2.54645 46.7024 2 47.911 2H58C59.6569 2 61 3.34314 61 5V83C61 84.6569 59.6569 86 58 86H5C3.34315 86 2 84.6569 2 83V18C2 16.3431 3.34315 15 5 15H33.589C34.7976 15 35.9414 14.4536 36.7008 13.5133Z" fill="#213743"/>
<rect x="5" y="18" width="53" height="40" rx="1" fill="#2F4553"/>
<g clip-path="url(#clip0_26835_29223)">
<path d="M57 18H6C5.44772 18 5 18.4477 5 19V57C5 57.5523 5.44772 58 6 58H57C57.5523 58 58 57.5523 58 57V19C58 18.4477 57.5523 18 57 18Z" fill="#1CE61C"/>
<mask id="mask0_26835_29223" style="mask-type:luminance" maskUnits="userSpaceOnUse" x="5" y="18" width="53" height="40">
<path d="M57 18H6C5.44772 18 5 18.4477 5 19V57C5 57.5523 5.44772 58 6 58H57C57.5523 58 58 57.5523 58 57V19C58 18.4477 57.5523 18 57 18Z" fill="white"/>
</mask>
<g mask="url(#mask0_26835_29223)">
<path d="M21.18 49.2599C21.18 49.2599 14.01 7.62988 49.38 -2.70012L10.56 -9.37012C10.56 -9.37012 1.09999 26.0099 13.55 52.0499L21.19 49.2599H21.18Z" fill="#80FF80"/>
<path d="M23.63 26.57L25.91 34.38C25.91 34.38 67.92 29.97 75.9 65.94L85.11 27.64C85.11 27.64 50.43 15.87 23.63 26.58V26.57Z" fill="#80FF80"/>
<path d="M42.18 39.8098C42.18 39.8098 37.27 81.7598 0.429993 81.6698L35.78 99.0498C35.78 99.0498 54.86 67.7898 50.29 39.2898L42.17 39.8098H42.18Z" fill="#80FF80"/>
</g>
<mask id="mask1_26835_29223" style="mask-type:luminance" maskUnits="userSpaceOnUse" x="5" y="18" width="53" height="40">
<path d="M57 18H6C5.44772 18 5 18.4477 5 19V57C5 57.5523 5.44772 58 6 58H57C57.5523 58 58 57.5523 58 57V19C58 18.4477 57.5523 18 57 18Z" fill="white"/>
</mask>
<g mask="url(#mask1_26835_29223)">
<path d="M36.67 28.14C35.35 27.84 34.03 27.74 32.73 27.78C31.57 27.19 30.33 26.72 29.01 26.42C28.84 26.38 28.67 26.37 28.51 26.34C29.48 25.22 30.57 24.18 31.79 23.25C33.21 22.17 34.54 21.43 35.53 20.95C36.49 22.11 37.82 22.98 39.4 23.33C43.18 24.18 46.93 21.8 47.78 18.03C48.63 14.25 46.25 10.5 42.48 9.64999C38.7 8.79999 34.95 11.18 34.1 14.95C33.85 16.08 33.89 17.2 34.16 18.25C31.79 19.39 27.95 21.75 24.86 26.07C17.94 26.36 11.64 31.12 9.14999 38.2C8.93999 38.66 8.72999 39.37 8.49999 40.41C6.29999 50.19 11.93 59.78 21.07 61.83C22.39 62.13 23.71 62.23 25.01 62.19C26.17 62.78 27.41 63.25 28.73 63.55C37.87 65.6 47.06 59.34 49.25 49.56C49.38 48.99 49.46 48.49 49.52 48.04C50.85 38.81 45.35 30.08 36.69 28.13L36.67 28.14ZM38.08 15.85C38.43 14.28 39.99 13.29 41.56 13.65C43.13 14 44.12 15.56 43.76 17.13C43.41 18.7 41.85 19.69 40.28 19.33C38.71 18.98 37.72 17.42 38.08 15.85Z" fill="#071D2A"/>
</g>
<path d="M42.518 44.1702C43.9271 34.5694 37.7959 25.7189 28.8235 24.4019C19.8512 23.085 11.4352 29.8004 10.0261 39.4012C8.61693 49.0019 14.7481 57.8525 23.7205 59.1694C32.6929 60.4863 41.1088 53.771 42.518 44.1702Z" fill="#008C00"/>
<path d="M42.52 44.1601C41.11 53.7601 32.7 60.4701 23.73 59.1601C14.76 57.8501 8.63 48.9901 10.04 39.3901C11.45 29.7901 13.15 47.1901 22.12 48.5101C31.09 49.8301 43.94 34.5601 42.53 44.1601H42.52Z" fill="#1CE61C"/>
<path d="M41.8068 44.0673C42.9513 36.2697 37.9699 29.0812 30.6805 28.0113C23.3911 26.9414 16.5541 32.3952 15.4097 40.1928C14.2652 47.9904 19.2466 55.1789 26.536 56.2488C33.8253 57.3187 40.6623 51.8648 41.8068 44.0673Z" fill="#1A2C38"/>
<path d="M24.61 32.8001L21.74 32.2201C24.31 19.4701 34.8 15.2701 35.25 15.1001L36.31 17.8301C36.31 17.8301 33.9 18.7901 31.27 21.1201C27.79 24.2101 25.55 28.1401 24.61 32.8001Z" fill="#80FF80"/>
<path d="M50.0384 45.2698C51.4475 35.669 45.3163 26.8185 36.3439 25.5015C27.3715 24.1846 18.9556 30.9 17.5465 40.5008C16.1373 50.1016 22.2685 58.9521 31.2409 60.269C40.2133 61.586 48.6292 54.8706 50.0384 45.2698Z" fill="#8EA3B2"/>
<path d="M50.03 45.27C48.62 54.87 40.21 61.58 31.24 60.27C22.27 58.96 16.14 50.1 17.55 40.5C18.96 30.9 25.23 43.13 34.2 44.44C43.17 45.75 51.44 35.66 50.03 45.26V45.27Z" fill="#557086"/>
<path d="M40.59 7.22009C36.88 6.68009 33.43 9.24009 32.89 12.9501C32.35 16.6601 34.91 20.1101 38.62 20.6501C42.33 21.1901 45.78 18.6301 46.32 14.9201C46.86 11.2101 44.3 7.76009 40.59 7.22009ZM39.2 16.7301C37.66 16.5001 36.59 15.0701 36.82 13.5301C37.05 11.9901 38.48 10.9201 40.02 11.1501C41.56 11.3801 42.63 12.8101 42.4 14.3501C42.17 15.8901 40.74 16.9601 39.2 16.7301Z" fill="#80FF80"/>
<path d="M44.95 12.4699C44.57 12.7599 43.64 12.1999 42.87 11.1999C42.1 10.1999 41.79 9.15993 42.17 8.86993C42.55 8.57993 43.72 9.02993 44.49 10.0299C45.26 11.0299 45.34 12.1799 44.96 12.4699H44.95Z" fill="white"/>
<path d="M45.063 44.5414C46.0246 37.9897 42.9193 32.1083 38.1271 31.405C33.3349 30.7016 28.6706 35.4426 27.7089 41.9943C26.7473 48.546 29.8526 54.4274 34.6448 55.1308C39.437 55.8341 44.1014 51.0931 45.063 44.5414Z" fill="#071D2A"/>
<path d="M34.86 53.68C30.87 53.1 28.32 47.95 29.16 42.21C30 36.47 33.93 32.27 37.92 32.86C41.91 33.45 44.46 38.59 43.62 44.33C42.78 50.07 38.85 54.27 34.86 53.68Z" fill="#1CE61C"/>
<path d="M34.23 50.5899C31.37 50.1699 29.53 46.4699 30.13 42.3499C30.74 38.2199 33.56 35.2099 36.42 35.6299C39.28 36.0499 41.12 39.7499 40.52 43.8699C39.91 47.9999 37.09 51.0099 34.23 50.5899Z" fill="#008C00"/>
<path d="M46.18 32.36C47.19 34.68 47.2 37.79 46.52 38.09C45.84 38.39 44.46 36.74 43.45 34.42C42.44 32.1 42.18 29.97 42.86 29.67C43.54 29.37 45.16 30.04 46.17 32.36H46.18Z" fill="white"/>
<path d="M18.558 55.8479C19.21 55.293 18.4907 53.3772 16.9515 51.5687C15.4123 49.7601 13.6361 48.7438 12.9842 49.2986C12.3323 49.8535 13.0516 51.7693 14.5907 53.5778C16.1299 55.3864 17.9061 56.4027 18.558 55.8479Z" fill="white"/>
</g>
<path fill-rule="evenodd" clip-rule="evenodd" d="M6.49771 79C6.98969 79 7.48602 79.213 7.49037 79.6913C7.49037 80.1043 7.24656 80.2696 6.99839 80.2696C6.75023 80.2696 6.73281 80.1435 6.73281 80.1435C6.73281 80.1435 7.02452 79.9261 7.02452 79.7174C7.02452 79.6087 6.94179 79.313 6.489 79.3174C5.8577 79.3174 5.5181 79.6174 5.5181 80.1522C5.5181 80.7652 7.35105 80.9739 7.3554 81.7652C7.3554 82.613 6.47594 82.9957 5.69225 83C5.283 83 5.01306 82.7609 5.00871 82.3783C5.00871 81.9261 5.22204 81.4652 5.75756 81.4652C5.88382 81.4565 5.98831 81.5522 5.99702 81.6783C5.99702 81.6783 5.99702 81.6826 5.99702 81.687C5.99702 81.687 5.45715 81.8391 5.4615 82.3783C5.4615 82.4783 5.56599 82.6609 5.81851 82.6565C6.07103 82.6522 6.82424 82.4739 6.81989 81.8087C6.81989 81.1913 5.00435 81.1087 5 80.1478C5 79.0652 6.08845 79.0087 6.49771 79.0087V79ZM10.747 79.6C10.8123 79.5696 11.2129 79.4913 11.1955 79.813C11.1824 80.1348 10.9386 80.6913 10.9037 80.9348C11.2303 80.7696 11.6918 80.2087 11.6918 80.2087C11.6918 80.2087 12.0183 80.2522 11.9182 80.4522C11.818 80.6522 11.1519 81.1435 11.1519 81.1435C11.1519 81.1435 11.3043 82.5696 12.1707 82.5696C12.6453 82.5696 12.8499 82.3609 12.937 82.287C12.9587 82.2696 12.9762 82.2652 12.9849 82.2783C13.0197 82.387 12.9936 82.5043 12.9152 82.5913C12.8194 82.6957 12.5974 82.8217 12.1533 82.8261C11.3653 82.8261 10.9255 82.1957 10.8123 81.2609C10.7252 81.5348 10.7339 81.9826 10.7209 82.2C10.6948 82.2435 10.2507 82.4174 10.2158 82.1174C10.2158 82.0913 10.2158 82.0696 10.2158 82.0435C10.1331 82.1609 10.0199 82.2826 9.91108 82.2826C9.71951 82.2826 9.63679 82.1217 9.60196 82.0391C9.57584 82.0696 9.3625 82.287 9.08821 82.287C8.92277 82.2913 8.77474 82.1957 8.70943 82.0435C8.57011 82.1435 8.32195 82.2913 8.03895 82.2913C7.73418 82.2913 7.66017 82.1087 7.66017 81.9565C7.66017 81.713 7.84303 80.987 7.84303 80.987C7.84303 80.987 7.48602 81.1304 7.36411 81.1348C7.19431 81.1348 7.11159 80.8217 7.11159 80.813C7.11159 80.8087 7.11159 80.8 7.1203 80.8C7.22044 80.7609 7.94317 80.513 7.94317 80.513C7.94317 80.513 8.07813 79.9826 8.09555 79.913C8.11296 79.8435 8.2131 79.7 8.33065 79.6565C8.41773 79.6217 8.50916 79.6 8.60059 79.5913C8.63107 79.5913 8.65284 79.6 8.65284 79.6174C8.65284 79.6348 8.47433 80.4087 8.47433 80.4087C8.47433 80.4087 8.84876 80.3217 8.98808 80.3217C9.09692 80.3217 9.15352 80.387 9.09257 80.4696C9.03162 80.5522 8.96196 80.6478 8.92712 80.6913C8.88794 80.7348 8.86182 80.7435 8.77039 80.7609C8.64413 80.787 8.36113 80.8565 8.36113 80.8565C8.36113 80.8565 8.13473 81.6783 8.13909 81.8174C8.13909 81.8957 8.16521 81.987 8.26099 81.987C8.35678 81.987 8.53964 81.8739 8.67025 81.7913C8.69202 81.1522 9.18835 80.7261 9.57584 80.7261C9.7021 80.7261 9.65421 80.8478 9.79788 80.8478H9.88931C9.94591 80.8478 10.0069 80.8522 10.0069 80.9957C10.0069 81.1957 9.89367 81.5261 9.89367 81.7348C9.89367 81.8826 9.91544 81.987 9.97204 81.987C10.0678 81.987 10.1767 81.8478 10.255 81.7261C10.3813 81.0304 10.734 79.7609 10.734 79.6174L10.747 79.6ZM12.5016 80.7C12.7672 80.6783 12.9326 80.8217 12.9631 80.9C12.9936 80.9783 12.9892 81.1609 12.9152 81.2913C12.6845 81.7044 12.1097 81.6304 12.1097 81.6304C12.1097 81.6304 12.0444 81.9565 12.3405 81.9565C12.593 81.9565 12.7062 81.8304 12.8151 81.7261C12.8586 81.7261 12.9936 81.8652 12.9326 81.9609C12.8847 82.0348 12.6191 82.2565 12.2795 82.2609C11.7397 82.2609 11.6047 81.8 11.6744 81.4696C11.7658 81.0609 12.1751 80.7217 12.5016 80.6957V80.7ZM9.6455 80.987C9.32332 80.987 8.82699 81.9696 9.20577 81.9652C9.61938 81.9652 9.6455 81.1826 9.6455 81.0043V80.987ZM12.6409 80.8913C12.4232 80.9 12.1751 81.3174 12.1533 81.5C12.4798 81.513 12.654 81.1957 12.6757 81.0696C12.6888 80.9739 12.6932 80.887 12.6409 80.887V80.8913Z" fill="#557086"/>
<path d="M56.1444 79.3778L56.6412 80.278L57.6518 80.4733C57.7792 80.4988 57.8302 80.6559 57.741 80.7494L57.0361 81.5009L57.1635 82.5243C57.1805 82.6559 57.0446 82.7494 56.93 82.6942L56 82.2568L55.0701 82.6942C54.9512 82.7494 54.8196 82.6517 54.8366 82.5243L54.9639 81.5009L54.2591 80.7494C54.1699 80.6559 54.2208 80.4988 54.3482 80.4733L55.3588 80.278L55.8557 79.3778C55.9194 79.2632 56.085 79.2632 56.1444 79.3778Z" fill="#FFC200"/>
<path d="M56 79.2929C56.0552 79.2929 56.1147 79.3226 56.1444 79.3778L56.6412 80.278L57.6518 80.4733C57.7792 80.4988 57.8302 80.6559 57.741 80.7494L57.0361 81.5009L57.1635 82.5243C57.1763 82.6262 57.0955 82.7111 56.9979 82.7111C56.9766 82.7111 56.9512 82.7069 56.9257 82.6942L55.9957 82.2568L55.0658 82.6942C55.0403 82.7069 55.0191 82.7111 54.9936 82.7111C54.9002 82.7111 54.8153 82.6262 54.828 82.5243L54.9554 81.5009L54.2505 80.7494C54.1613 80.6559 54.2123 80.4988 54.3397 80.4733L55.3503 80.278L55.8471 79.3778C55.8768 79.3226 55.9363 79.2929 55.9915 79.2929M56 79.0806C55.8641 79.0806 55.7367 79.157 55.6688 79.2759L55.2187 80.0912L54.3057 80.2653C54.1698 80.2908 54.0594 80.3884 54.017 80.5201C53.9745 80.6517 54.0085 80.7961 54.1019 80.8937L54.7388 81.5731L54.6242 82.4946C54.6115 82.6007 54.6454 82.7111 54.7134 82.7918C54.7856 82.8725 54.8875 82.9192 54.9979 82.9192C55.0531 82.9192 55.1083 82.9065 55.1592 82.881L56 82.4861L56.8408 82.881C56.8917 82.9065 56.9469 82.9192 57.0021 82.9192C57.1125 82.9192 57.2144 82.8725 57.2866 82.7918C57.3588 82.7111 57.3928 82.6007 57.3758 82.4946L57.2611 81.5731L57.8981 80.8937C57.9915 80.7918 58.0255 80.6474 57.983 80.5201C57.9405 80.3884 57.8301 80.2908 57.6943 80.2653L56.7813 80.0912L56.3312 79.2759C56.2633 79.157 56.1359 79.0806 56 79.0806Z" fill="#213743"/>
<path d="M56 79.8152V80.9744C56 81.0678 56.0892 81.1315 56.1784 81.106L57.2187 80.7706C57.2739 80.7536 57.2697 80.6729 57.2102 80.6602L56.5563 80.5413C56.4969 80.5286 56.4417 80.4903 56.4119 80.4351L56.085 79.7939C56.0637 79.7515 55.9958 79.7642 55.9958 79.8152H56Z" fill="#FFEBB8"/>
<path d="M56 81.4924V82.0699C56 82.1039 56.017 82.1294 56.0467 82.1464L56.7983 82.5073C56.8365 82.5243 56.8705 82.4818 56.845 82.4479L56.0934 81.4627C56.0637 81.4245 56 81.4457 56 81.4924Z" fill="#FF7F00"/>
<rect x="13" y="62" width="37" height="13" rx="6.5" fill="#2F4553"/>
<path d="M31.5446 70H28.4066V69.196C30.1406 67.942 30.4646 67.666 30.4646 67.27C30.4646 66.994 30.2066 66.85 29.9126 66.85C29.4686 66.85 29.1326 67.018 28.8446 67.288L28.2746 66.604C28.7006 66.136 29.3366 65.938 29.8946 65.938C30.8366 65.938 31.5146 66.466 31.5146 67.27C31.5146 67.882 31.0766 68.404 30.0806 69.1H31.5446V70ZM34.8951 70H33.8811L33.3231 69.124L32.7591 70H31.7511L32.7411 68.512L31.8111 67.102H32.8251L33.3231 67.888L33.8151 67.102H34.8291L33.9051 68.512L34.8951 70Z" fill="white"/>
<path d="M8.03 11H7.215L6.56 9.815H6.04V11H5.33V7.665H6.89C7.585 7.665 8.01 8.12 8.01 8.74C8.01 9.33 7.64 9.645 7.28 9.73L8.03 11ZM6.785 9.19C7.07 9.19 7.285 9.02 7.285 8.74C7.285 8.46 7.07 8.29 6.785 8.29H6.04V9.19H6.785ZM10.5152 11H9.88023V10.75C9.71523 10.945 9.43023 11.06 9.11523 11.06C8.73023 11.06 8.27523 10.8 8.27523 10.26C8.27523 9.695 8.73023 9.48 9.11523 9.48C9.43523 9.48 9.72023 9.585 9.88023 9.775V9.45C9.88023 9.205 9.67023 9.045 9.35023 9.045C9.09023 9.045 8.85023 9.14 8.64523 9.33L8.40523 8.905C8.70023 8.645 9.08023 8.525 9.46023 8.525C10.0102 8.525 10.5152 8.745 10.5152 9.44V11ZM9.37023 10.63C9.57523 10.63 9.77523 10.56 9.88023 10.42V10.12C9.77523 9.98 9.57523 9.91 9.37023 9.91C9.12023 9.91 8.91523 10.04 8.91523 10.275C8.91523 10.5 9.12023 10.63 9.37023 10.63ZM11.7801 11H11.1451V8.585H11.7801V8.915C11.9501 8.7 12.2501 8.525 12.5501 8.525V9.145C12.5051 9.135 12.4451 9.13 12.3751 9.13C12.1651 9.13 11.8851 9.25 11.7801 9.405V11ZM14.0818 11.06C13.3468 11.06 12.7918 10.565 12.7918 9.79C12.7918 9.09 13.3068 8.525 14.0418 8.525C14.7618 8.525 15.2518 9.065 15.2518 9.855V9.995H13.4568C13.4968 10.3 13.7418 10.555 14.1518 10.555C14.3568 10.555 14.6418 10.465 14.7968 10.315L15.0768 10.725C14.8368 10.945 14.4568 11.06 14.0818 11.06ZM14.6368 9.565C14.6218 9.335 14.4618 9.03 14.0418 9.03C13.6468 9.03 13.4768 9.325 13.4468 9.565H14.6368Z" fill="white"/>
<path d="M48.5687 11H48.1167L46.7247 9.096V11H46.2567V8.332H46.7367L48.1007 10.184V8.332H48.5687V11ZM49.9956 11.048C49.3836 11.048 49.0036 10.588 49.0036 10.032C49.0036 9.48 49.3836 9.02 49.9956 9.02C50.6156 9.02 50.9916 9.48 50.9916 10.032C50.9916 10.588 50.6156 11.048 49.9956 11.048ZM49.9956 10.676C50.3556 10.676 50.5556 10.376 50.5556 10.032C50.5556 9.692 50.3556 9.392 49.9956 9.392C49.6396 9.392 49.4396 9.692 49.4396 10.032C49.4396 10.376 49.6396 10.676 49.9956 10.676ZM51.613 11.044C51.461 11.044 51.333 10.916 51.333 10.764C51.333 10.612 51.461 10.484 51.613 10.484C51.765 10.484 51.893 10.612 51.893 10.764C51.893 10.916 51.765 11.044 51.613 11.044ZM54.3968 11.048C53.6128 11.048 53.2968 10.412 53.2968 9.672C53.2968 8.9 53.7008 8.292 54.4728 8.292C54.8048 8.292 55.0608 8.412 55.2408 8.588L55.0208 8.944C54.8808 8.796 54.7288 8.708 54.4728 8.708C54.0288 8.708 53.7688 9.12 53.7688 9.588C53.7688 9.616 53.7688 9.64 53.7728 9.664C53.8928 9.484 54.1728 9.292 54.4888 9.292C54.9688 9.292 55.3808 9.584 55.3808 10.152C55.3808 10.648 54.9928 11.048 54.3968 11.048ZM54.3728 10.632C54.7248 10.632 54.9088 10.384 54.9088 10.168C54.9088 9.84 54.6528 9.692 54.3608 9.692C54.1328 9.692 53.9128 9.816 53.7768 10.008C53.8048 10.296 53.9608 10.632 54.3728 10.632ZM56.7672 11.048C56.0192 11.048 55.6992 10.34 55.6992 9.668C55.6992 8.996 56.0192 8.292 56.7672 8.292C57.5152 8.292 57.8352 8.996 57.8352 9.668C57.8352 10.34 57.5152 11.048 56.7672 11.048ZM56.7672 10.632C57.2032 10.632 57.3592 10.176 57.3592 9.668C57.3592 9.16 57.2032 8.708 56.7672 8.708C56.3312 8.708 56.1752 9.16 56.1752 9.668C56.1752 10.176 56.3312 10.632 56.7672 10.632Z" fill="white"/>
<defs>
<clipPath id="clip0_26835_29223">
<rect width="63" height="88" fill="white"/>
</clipPath>
</defs>
</svg>
