<svg width="63" height="88" viewBox="0 0 63 88" fill="none" xmlns="http://www.w3.org/2000/svg">
<rect width="63" height="88" rx="4" fill="#FF003F"/>
<path d="M36.7008 13.5133L44.7992 3.48665C45.5586 2.54645 46.7024 2 47.911 2H58C59.6569 2 61 3.34314 61 5V83C61 84.6569 59.6569 86 58 86H5C3.34315 86 2 84.6569 2 83V18C2 16.3431 3.34315 15 5 15H33.589C34.7976 15 35.9414 14.4536 36.7008 13.5133Z" fill="#213743"/>
<rect x="5" y="18" width="53" height="40" rx="1" fill="#2F4553"/>
<g clip-path="url(#clip0_26835_29224)">
<path d="M5.99999 18H57C57.55 18 58 18.45 58 19V57C58 57.55 57.55 58 57 58H34.43C27.17 55.98 20.25 55.77 13.78 58H5.98999C5.43999 58 4.98999 57.55 4.98999 57V19C4.98999 18.45 5.43999 18 5.98999 18H5.99999Z" fill="#FFC200"/>
<path d="M25.38 26.84C12 32.31 3.90005 43.46 7.29005 51.74C8.43005 54.53 10.73 56.64 13.79 58H34.44C35.51 57.66 36.58 57.28 37.64 56.84C51.02 51.37 59.12 40.22 55.73 31.94C52.34 23.65 38.75 21.37 25.38 26.84Z" fill="#1A2C38"/>
<path d="M43.33 13.6099C31.38 12.0399 15.71 18.6399 8.31001 28.3399C3.65001 34.4499 3.39001 40.3399 6.86001 44.2999C9.17001 46.7999 12.15 48.3599 16.26 49.1999C21.64 50.2999 26.96 49.2299 28.97 48.8299C32.15 48.1899 37.2 46.4399 41.31 43.9599C46.67 40.7199 49.06 38.0699 51.22 35.4099C52.69 33.3699 55.75 29.1199 55.35 23.4399C54.89 18.3899 50.67 14.5799 43.34 13.6199L43.33 13.6099ZM46.75 36.3099C41.46 43.2499 30.25 47.9699 21.7 46.8499C13.16 45.7299 10.52 39.1899 15.8 32.2499C21.09 25.3099 32.3 20.5899 40.85 21.7099C49.39 22.8299 52.03 29.3699 46.75 36.3099Z" fill="#FF7F00"/>
<path d="M51.22 35.3998C52.69 33.3598 55.75 29.1098 55.35 23.4298C54.89 18.3798 50.67 14.5698 43.34 13.6098C43.19 13.5898 43.03 13.5898 42.88 13.5698C43.4 15.9498 43.9 19.2998 43.5 22.2998C49.89 24.3198 51.45 30.1498 46.76 36.3098C44.51 39.2598 41.19 41.7998 37.47 43.6698L38.28 45.5898C39.32 45.0898 40.35 44.5498 41.33 43.9598C46.69 40.7198 49.08 38.0698 51.24 35.4098L51.22 35.3998Z" fill="#FFC200"/>
<path d="M40.85 21.7098C32.31 20.5898 21.09 25.3099 15.8 32.2499C10.51 39.1899 13.15 45.7298 21.7 46.8498C30.24 47.9698 41.46 43.2499 46.75 36.3099C52.04 29.3699 49.4 22.8298 40.85 21.7098Z" fill="#1A2C38"/>
<path d="M38.46 23.9499L37.46 25.6799L36.37 25.4999L37.25 23.8999C36.84 23.8999 36.46 23.8999 36.19 23.8999L35.22 25.8399C35.83 25.8199 37.6 25.9799 38.19 26.0399L39.67 24.0299C39.39 23.9999 38.95 23.9699 38.46 23.9499Z" fill="#45A7FF"/>
<path d="M37.46 25.6799L38.46 23.9499C38.07 23.9299 37.64 23.9099 37.25 23.8999L36.37 25.4999L37.46 25.6799Z" fill="#1A2C38"/>
<path d="M32.16 26.4099L32.2 24.5299C33.03 24.3199 33.35 24.2499 34.19 24.1299L33.65 26.1099C32.98 26.2099 32.82 26.2399 32.15 26.4199L32.16 26.4099Z" fill="#45A7FF"/>
<path d="M30.9101 24.88L31.2201 26.18L29.9801 26.53L29.5601 25.28C29.2801 25.37 29.0201 25.45 28.8201 25.53L29.3501 27.23C30.0101 26.99 31.6501 26.49 32.3201 26.31L32.4301 24.46C32.1001 24.55 31.4001 24.74 30.9001 24.88H30.9101Z" fill="#1A2C38"/>
<path d="M31.2201 26.1799L30.9101 24.8799C30.4601 25.0099 29.9801 25.1499 29.5701 25.2799L29.9901 26.5299L31.2301 26.1799H31.2201Z" fill="#45A7FF"/>
<path d="M41.11 39.5299L39.28 38.5699C39.79 38.1499 40.37 37.6299 40.82 37.1799L43.01 37.8099C42.45 38.3699 41.75 39.0099 41.11 39.5299Z" fill="#1A2C38"/>
<path d="M43.0201 37.82L40.8201 37.19C41.2501 36.76 41.7201 36.2 42.0801 35.73L44.5701 36.02C44.1201 36.61 43.5601 37.28 43.0201 37.83V37.82Z" fill="#45A7FF"/>
<path d="M42.0701 35.7199C42.4101 35.2499 42.7501 34.6699 42.9801 34.2099L45.6901 34.1499C45.3901 34.7399 44.9801 35.4099 44.5501 36.0099L42.0601 35.7199H42.0701Z" fill="#1A2C38"/>
<path d="M42.99 34.2198C43.22 33.7398 43.42 33.1798 43.55 32.7298L46.39 32.3098C46.23 32.8798 45.98 33.5598 45.69 34.1498L42.98 34.2198H42.99Z" fill="#45A7FF"/>
<path d="M43.4501 32.7998C43.5701 32.3398 43.6401 31.7998 43.6501 31.3598L46.6601 30.5298C46.6501 31.0698 46.5701 31.7298 46.4001 32.3098L43.4501 32.7998Z" fill="#1A2C38"/>
<path d="M43.65 31.3599C43.65 30.9199 43.58 30.4099 43.48 30.0099L46.45 28.8699C46.57 29.3699 46.66 29.9799 46.66 30.5199L43.65 31.3499V31.3599Z" fill="#45A7FF"/>
<path d="M43.4901 30.0099C43.3801 29.6099 43.1801 29.1599 42.9601 28.8099L45.7901 27.3899C46.0701 27.8299 46.3101 28.3799 46.4401 28.8799L43.4901 30.0199V30.0099Z" fill="#1A2C38"/>
<path d="M42.94 28.8299C42.71 28.4799 42.36 28.0999 42.03 27.7999L44.68 26.1199C45.08 26.4899 45.51 26.9499 45.79 27.3799L42.94 28.8199V28.8299Z" fill="#45A7FF"/>
<path d="M42.11 27.7599C41.78 27.4699 41.32 27.1699 40.9 26.9399L43.18 25.1199C43.71 25.3999 44.27 25.7699 44.68 26.1299L42.11 27.7599Z" fill="#1A2C38"/>
<path d="M38.93 41.0898L37.51 39.8398C38.09 39.4698 38.76 38.9898 39.29 38.5698L41.12 39.5298C40.47 40.0498 39.66 40.6298 38.94 41.0898H38.93Z" fill="#45A7FF"/>
<path d="M33.93 43.5699L33.47 41.8499C34.14 41.5999 34.91 41.2399 35.55 40.9399L36.51 42.4499C35.72 42.8399 34.77 43.2699 33.94 43.5799L33.93 43.5699Z" fill="#45A7FF"/>
<path d="M28.64 44.97L29.19 42.99C29.85 42.89 30.67 42.72 31.34 42.54L31.3 44.42C30.47 44.63 29.49 44.84 28.65 44.97H28.64Z" fill="#45A7FF"/>
<path d="M26.0801 45.2L27.1101 43.17C27.7401 43.16 28.5301 43.07 29.1801 42.98L28.6401 44.96C27.8201 45.08 26.8701 45.17 26.0701 45.2H26.0801Z" fill="#1A2C38"/>
<path d="M23.68 45.11C22.95 45.03 22.15 44.87 21.52 44.7L23.41 42.77C23.9 42.91 24.57 43.04 25.16 43.11L23.68 45.12V45.11Z" fill="#1A2C38"/>
<path d="M21.52 44.6899C20.88 44.4999 20.19 44.2399 19.66 43.9599L21.9 42.1799C22.33 42.3899 22.9 42.6199 23.42 42.7599L21.53 44.6899H21.52Z" fill="#45A7FF"/>
<path d="M19.66 43.9599C19.13 43.6799 18.57 43.3099 18.16 42.9499L20.68 41.3499C21.01 41.6399 21.47 41.9399 21.9 42.1699L19.66 43.9499V43.9599Z" fill="#1A2C38"/>
<path d="M18.15 42.9598C17.75 42.5898 17.32 42.1298 17.04 41.6998L19.77 40.3398C19.99 40.6898 20.36 41.0798 20.68 41.3698L18.14 42.9598H18.15Z" fill="#45A7FF"/>
<path d="M17.04 41.6999C16.76 41.2599 16.52 40.7099 16.39 40.2099L19.24 39.1499C19.36 39.5399 19.56 39.9999 19.77 40.3499L17.04 41.6999Z" fill="#1A2C38"/>
<path d="M16.3901 40.2098C16.2701 39.7098 16.1801 39.0998 16.1801 38.5598L19.0801 37.7998C19.0801 38.2298 19.1501 38.7398 19.2501 39.1398L16.3901 40.2098Z" fill="#45A7FF"/>
<path d="M16.1801 38.5499C16.1901 38.0099 16.2801 37.3499 16.4401 36.7699L19.2801 36.3499C19.1601 36.8099 19.0801 37.3599 19.0801 37.7999L16.1801 38.5499Z" fill="#1A2C38"/>
<path d="M16.4401 36.7699C16.6001 36.1999 16.8501 35.5199 17.1401 34.9199L19.8401 34.8599C19.6101 35.3399 19.4101 35.8999 19.2801 36.3499L16.4401 36.7699Z" fill="#45A7FF"/>
<path d="M23.6801 45.1099L25.1601 43.0999C25.7501 43.1699 26.4801 43.1799 27.1001 43.1699L26.0701 45.1999C25.3001 45.1999 24.4101 45.1999 23.6801 45.1099Z" fill="#45A7FF"/>
<path d="M17.14 34.9298C17.43 34.3498 17.85 33.6698 18.27 33.0798L20.76 33.3698C20.42 33.8398 20.08 34.4198 19.85 34.8698L17.14 34.9298Z" fill="#1A2C38"/>
<path d="M18.27 33.07C18.72 32.47 19.28 31.81 19.83 31.26L22.03 31.89C21.59 32.33 21.12 32.89 20.76 33.36L18.27 33.07Z" fill="#45A7FF"/>
<path d="M21.7301 32.1599L19.5601 31.5299C20.1201 30.9199 20.3501 30.6499 21.0001 30.1399L22.8301 31.0999C22.3201 31.5199 22.1901 31.7099 21.7301 32.1599Z" fill="#1A2C38"/>
<path d="M22.83 31.0898L20.99 30.1398C21.64 29.5898 21.73 29.5098 22.44 29.0298L23.98 30.2398C23.4 30.6098 23.35 30.6798 22.82 31.0898H22.83Z" fill="#45A7FF"/>
<path d="M24.1701 30.41L22.4401 29.03C23.1001 28.51 23.1501 28.48 23.8601 28.01L25.1401 29.45C24.6301 30.05 24.7001 30 24.1701 30.41Z" fill="#1A2C38"/>
<path d="M25.99 28.7999L24.72 27.4699C25.45 27.0099 25.82 26.7799 26.63 26.4299L27.28 28.1299C26.65 28.4399 26.59 28.4299 25.99 28.7999Z" fill="#1A2C38"/>
<path d="M23.86 28.0099L25.14 29.4499L26.2 28.6699L25.33 27.1099C25.33 27.1099 24.63 27.4699 23.87 28.0199L23.86 28.0099Z" fill="#45A7FF"/>
<path d="M27.28 28.1299L26.63 26.4299C27.42 26.0399 27.92 25.9499 28.75 25.6399L29.36 27.2199C28.7 27.4699 27.92 27.8099 27.28 28.1199V28.1299Z" fill="#45A7FF"/>
<path d="M39.4301 26.3198C38.9201 26.1698 38.7601 26.1198 38.1801 26.0398L39.6601 24.0298C40.3801 24.1198 40.6801 24.2098 41.3201 24.3898L39.4301 26.3198Z" fill="#1A2C38"/>
<path d="M40.91 26.9299C40.49 26.7199 39.92 26.4999 39.41 26.3399L41.32 24.3999C41.96 24.5899 42.64 24.8499 43.17 25.1299L40.9 26.9399L40.91 26.9299Z" fill="white"/>
<path d="M33.65 26.0999L34.19 24.1199C35.01 23.9999 35.38 23.9399 36.18 23.9099L35.16 25.9299C34.52 25.9499 34.31 26.0099 33.65 26.0999Z" fill="#1A2C38"/>
<path d="M36.5101 42.4598L35.5601 40.9498C36.1901 40.6398 36.9301 40.2098 37.5201 39.8398L38.9201 41.0998C38.1901 41.5598 37.3001 42.0698 36.5001 42.4698L36.5101 42.4598Z" fill="#1A2C38"/>
<path d="M31.29 44.4199L31.32 42.5399C32 42.3699 32.86 42.0999 33.53 41.8499L33.98 43.5799C33.16 43.8799 32.12 44.2099 31.29 44.4299V44.4199Z" fill="#1A2C38"/>
<path d="M37.65 26.0699C33.73 25.4899 28.02 27.1199 24.38 29.8799C22.07 31.6299 20.84 33.0599 19.83 35.1399C19.3 36.2299 19.26 37.3099 19.23 37.8299C19.2 38.5499 19.46 39.2899 19.62 39.7299C20.36 41.4499 22.22 42.6999 25.03 43.0699C30.75 43.8199 38.26 40.6599 41.8 36.0199C43.6 33.6599 44.03 31.3699 43.23 29.5099C42.49 28.1099 41.26 26.6099 37.66 26.0699H37.65Z" fill="#4953B9"/>
<path d="M51.52 34.2199C44.18 43.8499 28.62 50.3999 16.76 48.8499C10.93 48.0799 7.22004 45.7199 5.04004 42.5299L7.68004 47.5899C9.44004 51.0199 13.53 53.7699 19.36 54.5299C31.22 56.0899 46.78 49.5399 54.12 39.8999C57.85 34.9999 58.31 29.4799 57.15 26.5599L55.24 21.1399C55.86 25.6399 55.24 29.3199 51.51 34.2099L51.52 34.2199Z" fill="#007FFF"/>
<path d="M9.42003 30.9899C16.81 21.2899 32.49 14.6899 44.44 16.2599C49.65 16.9399 53.29 19.0699 55.13 22.0599C54.09 17.6999 49.99 14.4799 43.34 13.6099C31.39 12.0399 15.72 18.6399 8.32003 28.3399C4.16003 33.7999 3.51003 39.0799 5.89003 42.9599C5.05003 39.4799 6.15003 35.2899 9.42003 30.9899Z" fill="#1A2C38"/>
<path d="M52.11 34.8899C44.6 44.7499 28.67 51.4499 16.54 49.8499C4.40002 48.2599 0.46002 38.1499 7.97002 28.2899C15.48 18.4299 31.41 11.7299 43.54 13.3299C55.67 14.9199 59.61 25.0299 52.1 34.8899H52.11ZM50.2 33.5499C57.24 24.5599 53.57 15.7499 42.38 14.4299C31.19 13.1199 16.42 19.3399 9.38002 28.3299C2.34002 37.3199 6.01002 46.1299 17.2 47.4499C28.39 48.7599 43.16 42.5399 50.2 33.5499Z" fill="#007FFF"/>
<path d="M56.28 32.91C56 34.3 54.59 37.04 54.02 36.93C53.45 36.82 53.84 33.07 54.12 31.69C54.4 30.31 55.23 29.96 55.76 30.2C56.4 30.49 56.56 31.53 56.28 32.92V32.91Z" fill="white"/>
<path d="M20.7301 33.1199C24.2201 28.3099 31.8001 25.0199 37.6501 25.7599C43.5101 26.4999 45.4201 30.9999 41.9301 35.8099C38.4401 40.6199 30.8601 43.9099 25.0101 43.1699C19.1501 42.4299 17.2401 37.9299 20.7301 33.1199Z" fill="#007FFF"/>
<path d="M30.71 28.9699C29.43 28.8199 29.37 27.0299 27.97 27.2399C31.09 25.8199 34.54 25.0999 37.53 25.4499C43.28 26.1199 45.94 31.3899 41.69 36.1599C41.65 36.2099 41.61 36.2599 41.57 36.3099C38.25 31.5499 34.27 29.3799 30.71 28.9699Z" fill="#1A2C38"/>
<path d="M26.42 35.6999C29.62 36.0699 33.77 34.2599 35.7 31.6699C37.63 29.0699 36.6 26.6699 33.41 26.2999C30.22 25.9299 26.06 27.7399 24.13 30.3299C22.2 32.9299 23.23 35.3299 26.42 35.6999Z" fill="white"/>
<path d="M27.28 33.9198C29.53 34.1798 32.47 32.9098 33.83 31.0698C35.19 29.2398 34.47 27.5398 32.21 27.2798C29.96 27.0198 27.02 28.2898 25.66 30.1298C24.3 31.9598 25.02 33.6598 27.28 33.9198Z" fill="#007FFF"/>
<path d="M36.57 27.2299L35.96 26.1799L33.46 27.8399C32.29 27.0799 30.23 27.6499 30.23 27.6499L31.01 32.5499C31.01 32.5499 33.89 31.3799 33.99 28.9599C33.99 28.9099 33.99 28.8599 33.99 28.8199L36.56 27.2299H36.57Z" fill="#142234"/>
<path d="M32.46 30.25C33.45 28.91 32.92 27.68 31.26 27.48C29.61 27.29 27.46 28.22 26.47 29.55C25.48 30.89 26.01 32.12 27.67 32.32C29.32 32.51 31.47 31.58 32.46 30.25Z" fill="#FFCA00"/>
<path d="M26.0701 31.35L26.4401 32.2C26.6501 32.71 27.2001 33.07 28.0401 33.17C29.6901 33.36 31.8401 32.43 32.8301 31.1C33.3201 30.44 33.4401 29.8 33.2301 29.31L32.8601 28.46C33.0701 28.96 32.9501 29.59 32.4601 30.25C31.4701 31.59 29.3201 32.51 27.6701 32.32C26.8301 32.22 26.2801 31.86 26.0701 31.35Z" fill="white"/>
<path d="M32.7 27.9399C32.09 28.2599 29.98 29.3599 29.91 29.3899L29.85 30.3199L33.05 28.5499C32.99 28.3199 32.88 28.1199 32.7 27.9399Z" fill="#142234"/>
<path d="M31.44 19.9599C31.62 20.3799 31.43 20.8699 31.01 21.0599C30.59 21.2499 30.1 21.0499 29.91 20.6299C29.72 20.2099 29.92 19.7199 30.34 19.5299C30.76 19.3399 31.25 19.5399 31.44 19.9599Z" fill="#FFCA00"/>
<path d="M21.9701 25.1699C22.4008 25.1699 22.7501 24.8206 22.7501 24.3899C22.7501 23.9591 22.4008 23.6099 21.9701 23.6099C21.5393 23.6099 21.1901 23.9591 21.1901 24.3899C21.1901 24.8206 21.5393 25.1699 21.9701 25.1699Z" fill="#FFCA00"/>
<path d="M26.56 25.2798C26.5 25.2998 26.44 25.3098 26.38 25.3098L22.39 24.8398C22.19 24.8198 22.05 24.6398 22.07 24.4398C22.09 24.2398 22.27 24.0998 22.47 24.1198L26.46 24.5898C26.66 24.6098 26.8 24.7898 26.78 24.9898C26.76 25.1198 26.68 25.2298 26.56 25.2798Z" fill="#FFCA00"/>
<path d="M27.98 24.5399C27.87 24.5899 27.73 24.5799 27.62 24.4999C27.46 24.3799 27.43 24.1599 27.55 23.9999L30.1 20.5899C30.22 20.4299 30.44 20.3999 30.6 20.5199C30.76 20.6399 30.79 20.8699 30.67 21.0199L28.12 24.4299C28.08 24.4799 28.03 24.5199 27.97 24.5499L27.98 24.5399Z" fill="#FFCA00"/>
<path d="M27.74 24.0199C28.05 23.5999 27.88 23.2099 27.36 23.1499C26.84 23.0899 26.16 23.3799 25.85 23.7999C25.54 24.2199 25.71 24.6099 26.23 24.6699C26.75 24.7299 27.43 24.4399 27.74 24.0199Z" fill="#FFCA00"/>
<path d="M25.73 24.37L28.35 30.25C28.42 30.41 28.59 30.53 28.85 30.56C29.37 30.62 30.05 30.33 30.36 29.91C30.51 29.7 30.55 29.5 30.49 29.34L27.87 23.46C27.93 23.62 27.9 23.82 27.74 24.03C27.43 24.45 26.75 24.74 26.23 24.68C25.97 24.65 25.79 24.53 25.73 24.37Z" fill="white"/>
<path d="M33.6301 26.1799C33.5701 26.1999 33.5101 26.2198 33.4501 26.2098L28.3301 25.6199C28.1301 25.5999 27.9901 25.4198 28.0101 25.2198C28.0301 25.0198 28.2101 24.8798 28.4101 24.8998L33.5401 25.4898C33.7401 25.5098 33.8801 25.6898 33.8601 25.8898C33.8401 26.0198 33.7601 26.1299 33.6401 26.1799H33.6301Z" fill="#FFCA00"/>
<path d="M23.68 30.2599C23.57 30.3099 23.43 30.2999 23.32 30.2199C23.16 30.0999 23.13 29.8799 23.25 29.7199L26.33 25.5799C26.45 25.4199 26.67 25.3899 26.83 25.5099C26.99 25.6299 27.02 25.8499 26.9 26.0099L23.82 30.1499C23.78 30.1999 23.73 30.2399 23.67 30.2699L23.68 30.2599Z" fill="#FFCA00"/>
<path d="M33.83 26.83C34.3381 26.83 34.75 26.4181 34.75 25.91C34.75 25.4019 34.3381 24.99 33.83 24.99C33.3219 24.99 32.91 25.4019 32.91 25.91C32.91 26.4181 33.3219 26.83 33.83 26.83Z" fill="#FFCA00"/>
<path d="M23.3701 31.1398C23.8782 31.1398 24.2901 30.7279 24.2901 30.2198C24.2901 29.7117 23.8782 29.2998 23.3701 29.2998C22.862 29.2998 22.4501 29.7117 22.4501 30.2198C22.4501 30.7279 22.862 31.1398 23.3701 31.1398Z" fill="#FFCA00"/>
</g>
<path fill-rule="evenodd" clip-rule="evenodd" d="M6.49771 79C6.98969 79 7.48602 79.213 7.49037 79.6913C7.49037 80.1043 7.24656 80.2696 6.99839 80.2696C6.75023 80.2696 6.73281 80.1435 6.73281 80.1435C6.73281 80.1435 7.02452 79.9261 7.02452 79.7174C7.02452 79.6087 6.94179 79.313 6.489 79.3174C5.8577 79.3174 5.5181 79.6174 5.5181 80.1522C5.5181 80.7652 7.35105 80.9739 7.3554 81.7652C7.3554 82.613 6.47594 82.9957 5.69225 83C5.283 83 5.01306 82.7609 5.00871 82.3783C5.00871 81.9261 5.22204 81.4652 5.75756 81.4652C5.88382 81.4565 5.98831 81.5522 5.99702 81.6783C5.99702 81.6783 5.99702 81.6826 5.99702 81.687C5.99702 81.687 5.45715 81.8391 5.4615 82.3783C5.4615 82.4783 5.56599 82.6609 5.81851 82.6565C6.07103 82.6522 6.82424 82.4739 6.81989 81.8087C6.81989 81.1913 5.00435 81.1087 5 80.1478C5 79.0652 6.08845 79.0087 6.49771 79.0087V79ZM10.747 79.6C10.8123 79.5696 11.2129 79.4913 11.1955 79.813C11.1824 80.1348 10.9386 80.6913 10.9037 80.9348C11.2303 80.7696 11.6918 80.2087 11.6918 80.2087C11.6918 80.2087 12.0183 80.2522 11.9182 80.4522C11.818 80.6522 11.1519 81.1435 11.1519 81.1435C11.1519 81.1435 11.3043 82.5696 12.1707 82.5696C12.6453 82.5696 12.8499 82.3609 12.937 82.287C12.9587 82.2696 12.9762 82.2652 12.9849 82.2783C13.0197 82.387 12.9936 82.5043 12.9152 82.5913C12.8194 82.6957 12.5974 82.8217 12.1533 82.8261C11.3653 82.8261 10.9255 82.1957 10.8123 81.2609C10.7252 81.5348 10.7339 81.9826 10.7209 82.2C10.6948 82.2435 10.2507 82.4174 10.2158 82.1174C10.2158 82.0913 10.2158 82.0696 10.2158 82.0435C10.1331 82.1609 10.0199 82.2826 9.91108 82.2826C9.71951 82.2826 9.63679 82.1217 9.60196 82.0391C9.57584 82.0696 9.3625 82.287 9.08821 82.287C8.92277 82.2913 8.77474 82.1957 8.70943 82.0435C8.57011 82.1435 8.32195 82.2913 8.03895 82.2913C7.73418 82.2913 7.66017 82.1087 7.66017 81.9565C7.66017 81.713 7.84303 80.987 7.84303 80.987C7.84303 80.987 7.48602 81.1304 7.36411 81.1348C7.19431 81.1348 7.11159 80.8217 7.11159 80.813C7.11159 80.8087 7.11159 80.8 7.1203 80.8C7.22044 80.7609 7.94317 80.513 7.94317 80.513C7.94317 80.513 8.07813 79.9826 8.09555 79.913C8.11296 79.8435 8.2131 79.7 8.33065 79.6565C8.41773 79.6217 8.50916 79.6 8.60059 79.5913C8.63107 79.5913 8.65284 79.6 8.65284 79.6174C8.65284 79.6348 8.47433 80.4087 8.47433 80.4087C8.47433 80.4087 8.84876 80.3217 8.98808 80.3217C9.09692 80.3217 9.15352 80.387 9.09257 80.4696C9.03162 80.5522 8.96196 80.6478 8.92712 80.6913C8.88794 80.7348 8.86182 80.7435 8.77039 80.7609C8.64413 80.787 8.36113 80.8565 8.36113 80.8565C8.36113 80.8565 8.13473 81.6783 8.13909 81.8174C8.13909 81.8957 8.16521 81.987 8.26099 81.987C8.35678 81.987 8.53964 81.8739 8.67025 81.7913C8.69202 81.1522 9.18835 80.7261 9.57584 80.7261C9.7021 80.7261 9.65421 80.8478 9.79788 80.8478H9.88931C9.94591 80.8478 10.0069 80.8522 10.0069 80.9957C10.0069 81.1957 9.89367 81.5261 9.89367 81.7348C9.89367 81.8826 9.91544 81.987 9.97204 81.987C10.0678 81.987 10.1767 81.8478 10.255 81.7261C10.3813 81.0304 10.734 79.7609 10.734 79.6174L10.747 79.6ZM12.5016 80.7C12.7672 80.6783 12.9326 80.8217 12.9631 80.9C12.9936 80.9783 12.9892 81.1609 12.9152 81.2913C12.6845 81.7044 12.1097 81.6304 12.1097 81.6304C12.1097 81.6304 12.0444 81.9565 12.3405 81.9565C12.593 81.9565 12.7062 81.8304 12.8151 81.7261C12.8586 81.7261 12.9936 81.8652 12.9326 81.9609C12.8847 82.0348 12.6191 82.2565 12.2795 82.2609C11.7397 82.2609 11.6047 81.8 11.6744 81.4696C11.7658 81.0609 12.1751 80.7217 12.5016 80.6957V80.7ZM9.6455 80.987C9.32332 80.987 8.82699 81.9696 9.20577 81.9652C9.61938 81.9652 9.6455 81.1826 9.6455 81.0043V80.987ZM12.6409 80.8913C12.4232 80.9 12.1751 81.3174 12.1533 81.5C12.4798 81.513 12.654 81.1957 12.6757 81.0696C12.6888 80.9739 12.6932 80.887 12.6409 80.887V80.8913Z" fill="#557086"/>
<path d="M56.1444 79.3778L56.6412 80.278L57.6518 80.4733C57.7792 80.4988 57.8302 80.6559 57.741 80.7494L57.0361 81.5009L57.1635 82.5243C57.1805 82.6559 57.0446 82.7494 56.93 82.6942L56 82.2568L55.0701 82.6942C54.9512 82.7494 54.8196 82.6517 54.8366 82.5243L54.9639 81.5009L54.2591 80.7494C54.1699 80.6559 54.2208 80.4988 54.3482 80.4733L55.3588 80.278L55.8557 79.3778C55.9194 79.2632 56.085 79.2632 56.1444 79.3778Z" fill="#FFC200"/>
<path d="M56 79.2929C56.0552 79.2929 56.1147 79.3226 56.1444 79.3778L56.6412 80.278L57.6518 80.4733C57.7792 80.4988 57.8302 80.6559 57.741 80.7494L57.0361 81.5009L57.1635 82.5243C57.1763 82.6262 57.0955 82.7111 56.9979 82.7111C56.9766 82.7111 56.9512 82.7069 56.9257 82.6942L55.9957 82.2568L55.0658 82.6942C55.0403 82.7069 55.0191 82.7111 54.9936 82.7111C54.9002 82.7111 54.8153 82.6262 54.828 82.5243L54.9554 81.5009L54.2505 80.7494C54.1613 80.6559 54.2123 80.4988 54.3397 80.4733L55.3503 80.278L55.8471 79.3778C55.8768 79.3226 55.9363 79.2929 55.9915 79.2929M56 79.0806C55.8641 79.0806 55.7367 79.157 55.6688 79.2759L55.2187 80.0912L54.3057 80.2653C54.1698 80.2908 54.0594 80.3884 54.017 80.5201C53.9745 80.6517 54.0085 80.7961 54.1019 80.8937L54.7388 81.5731L54.6242 82.4946C54.6115 82.6007 54.6454 82.7111 54.7134 82.7918C54.7856 82.8725 54.8875 82.9192 54.9979 82.9192C55.0531 82.9192 55.1083 82.9065 55.1592 82.881L56 82.4861L56.8408 82.881C56.8917 82.9065 56.9469 82.9192 57.0021 82.9192C57.1125 82.9192 57.2144 82.8725 57.2866 82.7918C57.3588 82.7111 57.3928 82.6007 57.3758 82.4946L57.2611 81.5731L57.8981 80.8937C57.9915 80.7918 58.0255 80.6474 57.983 80.5201C57.9405 80.3884 57.8301 80.2908 57.6943 80.2653L56.7813 80.0912L56.3312 79.2759C56.2633 79.157 56.1359 79.0806 56 79.0806Z" fill="#213743"/>
<path d="M56 79.8152V80.9744C56 81.0678 56.0892 81.1315 56.1784 81.106L57.2187 80.7706C57.2739 80.7536 57.2697 80.6729 57.2102 80.6602L56.5563 80.5413C56.4969 80.5286 56.4417 80.4903 56.4119 80.4351L56.085 79.7939C56.0637 79.7515 55.9958 79.7642 55.9958 79.8152H56Z" fill="#FFEBB8"/>
<path d="M56 81.4924V82.0699C56 82.1039 56.017 82.1294 56.0467 82.1464L56.7983 82.5073C56.8365 82.5243 56.8705 82.4818 56.845 82.4479L56.0934 81.4627C56.0637 81.4245 56 81.4457 56 81.4924Z" fill="#FF7F00"/>
<rect x="13" y="62" width="37" height="13" rx="6.5" fill="#2F4553"/>
<path d="M27.8142 70H26.7822V67.318L26.1102 67.996L25.5222 67.378L26.9202 65.998H27.8142V70ZM28.9798 70.072C28.6738 70.072 28.4158 69.814 28.4158 69.508C28.4158 69.202 28.6738 68.944 28.9798 68.944C29.2858 68.944 29.5438 69.202 29.5438 69.508C29.5438 69.814 29.2858 70.072 28.9798 70.072ZM33.195 70H30.057V69.196C31.791 67.942 32.115 67.666 32.115 67.27C32.115 66.994 31.857 66.85 31.563 66.85C31.119 66.85 30.783 67.018 30.495 67.288L29.925 66.604C30.351 66.136 30.987 65.938 31.545 65.938C32.487 65.938 33.165 66.466 33.165 67.27C33.165 67.882 32.727 68.404 31.731 69.1H33.195V70ZM36.5455 70H35.5315L34.9735 69.124L34.4095 70H33.4015L34.3915 68.512L33.4615 67.102H34.4755L34.9735 67.888L35.4655 67.102H36.4795L35.5555 68.512L36.5455 70Z" fill="white"/>
<path d="M8.03 11H7.215L6.56 9.815H6.04V11H5.33V7.665H6.89C7.585 7.665 8.01 8.12 8.01 8.74C8.01 9.33 7.64 9.645 7.28 9.73L8.03 11ZM6.785 9.19C7.07 9.19 7.285 9.02 7.285 8.74C7.285 8.46 7.07 8.29 6.785 8.29H6.04V9.19H6.785ZM10.5152 11H9.88023V10.75C9.71523 10.945 9.43023 11.06 9.11523 11.06C8.73023 11.06 8.27523 10.8 8.27523 10.26C8.27523 9.695 8.73023 9.48 9.11523 9.48C9.43523 9.48 9.72023 9.585 9.88023 9.775V9.45C9.88023 9.205 9.67023 9.045 9.35023 9.045C9.09023 9.045 8.85023 9.14 8.64523 9.33L8.40523 8.905C8.70023 8.645 9.08023 8.525 9.46023 8.525C10.0102 8.525 10.5152 8.745 10.5152 9.44V11ZM9.37023 10.63C9.57523 10.63 9.77523 10.56 9.88023 10.42V10.12C9.77523 9.98 9.57523 9.91 9.37023 9.91C9.12023 9.91 8.91523 10.04 8.91523 10.275C8.91523 10.5 9.12023 10.63 9.37023 10.63ZM11.7801 11H11.1451V8.585H11.7801V8.915C11.9501 8.7 12.2501 8.525 12.5501 8.525V9.145C12.5051 9.135 12.4451 9.13 12.3751 9.13C12.1651 9.13 11.8851 9.25 11.7801 9.405V11ZM14.0818 11.06C13.3468 11.06 12.7918 10.565 12.7918 9.79C12.7918 9.09 13.3068 8.525 14.0418 8.525C14.7618 8.525 15.2518 9.065 15.2518 9.855V9.995H13.4568C13.4968 10.3 13.7418 10.555 14.1518 10.555C14.3568 10.555 14.6418 10.465 14.7968 10.315L15.0768 10.725C14.8368 10.945 14.4568 11.06 14.0818 11.06ZM14.6368 9.565C14.6218 9.335 14.4618 9.03 14.0418 9.03C13.6468 9.03 13.4768 9.325 13.4468 9.565H14.6368Z" fill="white"/>
<path d="M49.514 11H49.062L47.67 9.096V11H47.202V8.332H47.682L49.046 10.184V8.332H49.514V11ZM50.9409 11.048C50.3289 11.048 49.9489 10.588 49.9489 10.032C49.9489 9.48 50.3289 9.02 50.9409 9.02C51.5609 9.02 51.9369 9.48 51.9369 10.032C51.9369 10.588 51.5609 11.048 50.9409 11.048ZM50.9409 10.676C51.3009 10.676 51.5009 10.376 51.5009 10.032C51.5009 9.692 51.3009 9.392 50.9409 9.392C50.5849 9.392 50.3849 9.692 50.3849 10.032C50.3849 10.376 50.5849 10.676 50.9409 10.676ZM52.5583 11.044C52.4063 11.044 52.2783 10.916 52.2783 10.764C52.2783 10.612 52.4063 10.484 52.5583 10.484C52.7103 10.484 52.8383 10.612 52.8383 10.764C52.8383 10.916 52.7103 11.044 52.5583 11.044ZM55.3421 11.048C54.5581 11.048 54.2421 10.412 54.2421 9.672C54.2421 8.9 54.6461 8.292 55.4181 8.292C55.7501 8.292 56.0061 8.412 56.1861 8.588L55.9661 8.944C55.8261 8.796 55.6741 8.708 55.4181 8.708C54.9741 8.708 54.7141 9.12 54.7141 9.588C54.7141 9.616 54.7141 9.64 54.7181 9.664C54.8381 9.484 55.1181 9.292 55.4341 9.292C55.9141 9.292 56.3261 9.584 56.3261 10.152C56.3261 10.648 55.9381 11.048 55.3421 11.048ZM55.3181 10.632C55.6701 10.632 55.8541 10.384 55.8541 10.168C55.8541 9.84 55.5981 9.692 55.3061 9.692C55.0781 9.692 54.8581 9.816 54.7221 10.008C54.7501 10.296 54.9061 10.632 55.3181 10.632ZM57.7165 11H57.2485V8.94L56.8125 9.392L56.5405 9.108L57.3085 8.332H57.7165V11Z" fill="white"/>
<defs>
<clipPath id="clip0_26835_29224">
<rect width="63" height="88" fill="white"/>
</clipPath>
</defs>
</svg>
