<svg width="63" height="88" viewBox="0 0 63 88" fill="none" xmlns="http://www.w3.org/2000/svg">
<rect width="63" height="88" rx="4" fill="#FF003F"/>
<path d="M36.7008 13.5133L44.7992 3.48665C45.5586 2.54645 46.7024 2 47.911 2H58C59.6569 2 61 3.34314 61 5V83C61 84.6569 59.6569 86 58 86H5C3.34315 86 2 84.6569 2 83V18C2 16.3431 3.34315 15 5 15H33.589C34.7976 15 35.9414 14.4536 36.7008 13.5133Z" fill="#213743"/>
<rect x="5" y="18" width="53" height="40" rx="1" fill="#2F4553"/>
<g clip-path="url(#clip0_26835_29226)">
<path d="M57 18H6C5.44772 18 5 18.4477 5 19V57C5 57.5523 5.44772 58 6 58H57C57.5523 58 58 57.5523 58 57V19C58 18.4477 57.5523 18 57 18Z" fill="#047BFF"/>
<path d="M5 40.5601V57.0001C5 57.5501 5.45 58.0001 6 58.0001H57C57.55 58.0001 58 57.5501 58 57.0001V40.5601H5Z" fill="#55DFFF"/>
<path d="M37.84 18H43.81C43.81 18 55.05 36.54 53.57 58H51.33L37.84 18Z" fill="#55DFFF"/>
<path d="M24.8801 18H18.9101C18.9101 18 7.67005 36.54 9.15005 58H11.3901L24.8801 18Z" fill="#55DFFF"/>
<mask id="mask0_26835_29226" style="mask-type:luminance" maskUnits="userSpaceOnUse" x="4" y="12" width="56" height="46">
<path d="M59.1599 12.1001H4.18994V58.0001H59.1599V12.1001Z" fill="white"/>
</mask>
<g mask="url(#mask0_26835_29226)">
<path d="M15.5799 31.09C19.8299 26.84 25.4899 24.49 31.5099 24.49C37.5299 24.49 43.1799 26.83 47.4399 31.09C50.3699 34.02 52.3999 37.62 53.3699 41.55H58.1899C57.8299 39.8 57.2999 38.08 56.5999 36.42C55.2299 33.18 53.2699 30.2701 50.7699 27.7701C48.2699 25.2701 45.3599 23.3101 42.1199 21.9401C38.7599 20.5201 35.1999 19.8 31.5199 19.8C27.8399 19.8 24.2799 20.5201 20.9199 21.9401C17.6799 23.3101 14.7699 25.2701 12.2699 27.7701C9.76985 30.2701 7.80985 33.18 6.43985 36.42C5.73985 38.08 5.20985 39.8 4.84985 41.55H9.66985C10.6399 37.62 12.6699 34.02 15.5999 31.09H15.5799Z" fill="#1A2C38"/>
<path d="M54.9998 40.5002L56.8798 45.4202C58.0798 43.7402 58.6398 42.0902 57.9798 40.5002C57.6398 39.1002 57.1798 37.7302 56.6198 36.4002C55.2498 33.1602 53.2898 30.2502 50.7898 27.7502C48.2898 25.2502 45.3798 23.2902 42.1398 21.9202C41.2198 21.5302 40.2898 21.2002 39.3398 20.9102L40.3898 22.9802C40.3898 22.9802 52.0798 27.3202 55.0098 40.5102L54.9998 40.5002Z" fill="#E9113C"/>
<path d="M7.7999 40.4101L5.5599 43.1801C4.4199 42.9901 4.3399 41.9401 4.8299 40.4101C5.1699 39.0101 5.6299 37.6401 6.1899 36.3101C7.5599 33.0701 9.5199 30.1601 12.0199 27.6601C14.5199 25.1601 17.4299 23.2001 20.6699 21.8301C21.5899 21.4401 22.5199 21.1101 23.4699 20.8201L22.4199 22.8901C22.4199 22.8901 10.7299 27.2301 7.7999 40.4201V40.4101Z" fill="#E9113C"/>
<path d="M31.3299 12.8401C22.4199 12.8401 15.1899 29.4901 15.1899 43.0701C25.9499 48.3101 36.7099 48.3101 47.4699 43.0701C47.4699 29.4901 40.2399 12.8401 31.3299 12.8401Z" fill="#557086"/>
<path d="M24.7599 16.4C24.7599 16.4 27.2899 17.91 25.0199 23.04L28.9499 21.35C28.9499 21.35 26.1299 15.49 27.8699 13.75L26.8599 14.37L24.7699 16.39L24.7599 16.4Z" fill="white"/>
<path d="M30.1799 12.9302C22.9499 14.0902 17.0299 26.0402 15.5499 37.6402L17.5399 34.0502C20.4299 19.9002 26.0399 14.4902 30.1799 12.9302Z" fill="#8EA3B2"/>
<path d="M23.9668 20.0397C24.3258 19.418 24.3415 18.755 24.0019 18.5589C23.6623 18.3628 23.096 18.708 22.737 19.3297C22.3781 19.9515 22.3623 20.6145 22.7019 20.8106C23.0415 21.0066 23.6078 20.6615 23.9668 20.0397Z" fill="#8EA3B2"/>
<path d="M39.6189 20.5837C39.9584 20.3876 39.9427 19.7246 39.5837 19.1028C39.2248 18.4811 38.6584 18.1359 38.3189 18.332C37.9793 18.5281 37.995 19.1911 38.354 19.8128C38.713 20.4346 39.2793 20.7797 39.6189 20.5837Z" fill="#8EA3B2"/>
<path d="M23.939 19.3471C24.2041 18.8879 24.2174 18.3993 23.9687 18.2557C23.72 18.1121 23.3034 18.3679 23.0383 18.8271C22.7733 19.2862 22.76 19.7749 23.0087 19.9184C23.2574 20.062 23.6739 19.8062 23.939 19.3471Z" fill="#1A2C38"/>
<path d="M39.1318 19.9103C39.3805 19.7667 39.3672 19.2781 39.1021 18.819C38.837 18.3598 38.4205 18.104 38.1718 18.2476C37.9231 18.3912 37.9363 18.8798 38.2014 19.339C38.4665 19.7981 38.8831 20.0539 39.1318 19.9103Z" fill="#1A2C38"/>
<path d="M50.2599 52.1802C50.2599 38.6002 41.7899 20.6602 31.3299 20.6602C20.8699 20.6602 12.3999 38.5902 12.3999 52.1802C12.3999 52.1802 12.4299 57.6002 12.7299 61.1602H49.1899L50.2599 52.1802Z" fill="#8EA3B2"/>
<path d="M47.1299 58C47.1299 58 49.0699 47.75 48.1799 39.49C48.1799 39.49 51.0699 47.58 50.2599 58H47.1299Z" fill="white"/>
<path d="M14.5199 39.3701C14.5199 39.3701 13.4299 51.3401 15.1899 58.1301L12.5299 58.1101C12.5299 58.1101 11.5199 47.2901 14.5199 39.3801V39.3701Z" fill="white"/>
<path d="M31.3299 28.4402C24.2999 28.4402 18.5999 41.2002 18.5999 51.6202C27.0899 55.6402 35.5699 55.6402 44.0599 51.6202C44.0599 41.2102 38.3599 28.4402 31.3299 28.4402Z" fill="#1A2C38"/>
<path d="M31.3299 35.4402C23.3099 35.4402 16.8199 48.2002 16.8199 58.6202C26.4999 62.6402 36.1699 62.6402 45.8499 58.6202C45.8499 48.2102 39.3499 35.4402 31.3399 35.4402H31.3299Z" fill="#8EA3B2"/>
<path d="M35.4099 36.8201C35.4099 36.8201 36.2699 36.3401 36.6999 35.8701C36.7799 35.7801 36.9299 35.8301 36.9399 35.9601C36.9599 36.3601 36.9399 37.0301 36.6799 37.6801L35.4099 36.8301V36.8201Z" fill="#8EA3B2"/>
<path d="M31.1599 38.99C23.1399 38.99 16.6499 51.75 16.6499 62.17C26.3299 66.19 35.9999 66.19 45.6799 62.17C45.6799 51.76 39.1799 38.99 31.1699 38.99H31.1599Z" fill="#557086"/>
<path d="M31.0599 53.52C31.0599 53.52 33.7099 56.53 28.6799 58H22.7699L31.0699 53.52H31.0599Z" fill="#1A2C38"/>
<path d="M29.7299 42.69C29.7299 42.69 27.8599 42.32 27.5599 43.24C27.2599 44.16 25.9799 51.35 25.9799 51.35L28.7299 51.83L29.7199 42.69H29.7299Z" fill="#1A2C38"/>
<path d="M34.86 37.3601L34.35 37.2801C34.23 37.2601 34.12 37.3501 34.1 37.4601L33.21 43.7901L34.26 43.4501L35.04 37.5901C35.06 37.4701 34.97 37.3601 34.86 37.3501V37.3601Z" fill="#1A2C38"/>
<path d="M36.7898 39.1702C37.4298 38.5102 41.6098 44.2102 40.8498 43.9902C40.3098 43.8402 36.4498 39.5102 36.7898 39.1702Z" fill="white"/>
<path d="M42.1631 27.6648C42.3738 27.4779 41.6475 26.3148 40.5408 25.067C39.4341 23.8191 38.3661 22.9591 38.1554 23.146C37.9446 23.3329 38.671 24.4959 39.7777 25.7438C40.8844 26.9916 41.9524 27.8517 42.1631 27.6648Z" fill="white"/>
<path d="M28.7099 29.96C28.9399 29.79 29.4099 29.49 30.0299 29.41C30.1299 29.4 30.2199 29.48 30.2399 29.61C30.3399 30.26 30.5999 32.24 30.1699 32.5C29.7399 32.76 28.8899 30.88 28.6299 30.27C28.5799 30.16 28.6099 30.03 28.6999 29.96H28.7099Z" fill="white"/>
<path d="M31.9999 29.4402C32.2699 29.4202 32.7999 29.4402 33.3799 29.7202C33.4699 29.7702 33.5199 29.9002 33.4899 30.0102C33.3099 30.6402 32.7499 32.9802 32.2699 32.9602C31.7899 32.9402 31.7999 30.3502 31.8099 29.6602C31.8099 29.5402 31.8899 29.4402 31.9999 29.4302V29.4402Z" fill="white"/>
<path d="M35.4099 31.02C35.4099 31.02 35.8699 32.69 36.0699 34.01C36.2099 34.96 36.8999 33.56 36.7699 32.18C36.7699 32.18 36.5599 31.57 35.3999 31.03L35.4099 31.02Z" fill="white"/>
<path d="M26.7199 31.1902C26.7199 31.1902 25.7799 32.0102 25.3599 32.6402C25.3599 32.6402 25.8499 34.4902 26.2699 34.0702C26.6899 33.6502 26.7099 31.1902 26.7099 31.1902H26.7199Z" fill="white"/>
<path d="M31.33 35.9501C31.33 35.9501 32.08 33.6501 32.29 33.6501C32.5 33.6501 33.21 35.2401 33.4 36.0801L31.34 35.9501H31.33Z" fill="#8EA3B2"/>
<path d="M44.2599 26.3201C44.2599 26.3201 45.1999 32.6501 44.9099 34.5801L47.2999 38.5901C47.2999 38.5901 47.0299 33.1801 44.2599 26.3201Z" fill="#8EA3B2"/>
<path d="M46.1599 38.1202C46.5631 38.1202 46.8899 37.4665 46.8899 36.6602C46.8899 35.8539 46.5631 35.2002 46.1599 35.2002C45.7568 35.2002 45.4299 35.8539 45.4299 36.6602C45.4299 37.4665 45.7568 38.1202 46.1599 38.1202Z" fill="white"/>
<path d="M46.5999 35.7702C46.6399 36.7402 46.3099 37.5402 45.8599 37.5602C45.4099 37.5802 45.3299 36.8002 45.2899 35.8302C45.2499 34.8602 45.2599 34.0702 45.7099 34.0602C46.1599 34.0502 46.5599 34.8102 46.5999 35.7802V35.7702Z" fill="#1A2C38"/>
<path d="M29.7799 35.7801C29.7799 35.7801 29.2599 34.8701 29.0799 34.3401C28.8199 33.5901 28.5899 33.9001 28.4699 34.7001C28.3499 35.5001 28.3599 36.3101 28.3599 36.3101L29.7799 35.7801Z" fill="#8EA3B2"/>
<path d="M27.02 36.92C27.02 36.92 25.95 36.48 25.61 35.92C25.57 35.86 25.48 35.8801 25.48 35.9501C25.46 36.3701 25.48 37.17 25.93 37.78L27.03 36.92H27.02Z" fill="#8EA3B2"/>
<path d="M38.1199 38.7902C38.1199 38.7902 39.1599 38.3302 39.2899 38.4602C39.4199 38.5902 38.8799 39.6002 38.8799 39.6002L38.1299 38.7902H38.1199Z" fill="#8EA3B2"/>
<path d="M24.11 39.37C24.11 39.37 23.23 38.49 23.05 38.67C22.87 38.85 23.33 40.43 23.33 40.43L24.11 39.37Z" fill="#8EA3B2"/>
<path d="M16.6499 35.7702C16.6099 36.7402 16.9399 37.5402 17.3899 37.5602C17.8399 37.5802 17.9199 36.8002 17.9599 35.8302C17.9999 34.8602 17.9899 34.0702 17.5399 34.0602C17.0899 34.0502 16.6899 34.8102 16.6499 35.7802V35.7702Z" fill="#1A2C38"/>
</g>
<path d="M34.6748 55.8383C34.8553 55.0241 33.3931 54.0075 31.4089 53.5676C29.4247 53.1277 27.6698 53.4311 27.4893 54.2453C27.3088 55.0595 28.771 56.0761 30.7552 56.516C32.7395 56.9559 34.4943 56.6525 34.6748 55.8383Z" fill="white"/>
<path d="M35.8824 55.0534C36.1119 54.0182 34.248 52.7245 31.7192 52.1638C29.1903 51.6032 26.9543 51.988 26.7248 53.0232C26.4953 54.0585 28.3592 55.3522 30.888 55.9128C33.4169 56.4734 35.6529 56.0887 35.8824 55.0534Z" fill="#E9113C"/>
<path d="M37.71 42.14L30.52 40.55L29.71 41.2001C29.43 41.4301 29.23 41.74 29.15 42.1L26.72 53.0401L35.87 55.07L38.3 44.1301C38.38 43.7801 38.33 43.4101 38.17 43.0801L37.71 42.1501V42.14Z" fill="#E9113C"/>
<path d="M30.44 40.9C30.3 41.51 31.8 42.37 33.79 42.81C35.78 43.25 37.49 43.11 37.63 42.5L37.71 42.12L30.52 40.53L30.44 40.91V40.9Z" fill="white"/>
<path d="M34.37 40.2101C32.38 39.7701 30.67 39.9101 30.53 40.5201C30.52 40.5901 30.53 40.6601 30.54 40.7301L37.63 42.2801C37.67 42.2301 37.71 42.1701 37.72 42.1101C37.86 41.5001 36.36 40.6401 34.37 40.2001V40.2101Z" fill="#45A7FF"/>
<path d="M30.54 40.73C30.73 41.32 32.11 42.03 33.87 42.43C35.63 42.83 37.22 42.75 37.62 42.29C37.43 41.7 36.05 40.99 34.29 40.59C32.53 40.19 30.94 40.27 30.54 40.73Z" fill="#CDE0F6"/>
<path d="M36.8424 42.1272C36.8878 41.9223 36.4613 41.6535 35.8898 41.5267C35.3183 41.4 34.8181 41.4634 34.7727 41.6683C34.7273 41.8732 35.1538 42.142 35.7253 42.2687C36.2968 42.3954 36.797 42.3321 36.8424 42.1272Z" fill="#1A2C38"/>
<path d="M35.39 41.7999C35.35 41.9999 34.85 42.0599 34.28 41.9399C33.71 41.8199 33.28 41.5499 33.33 41.3399L33.36 41.1799L35.43 41.6399L35.4 41.7999H35.39Z" fill="white"/>
<path d="M35.4264 41.6396C35.4718 41.4347 35.0453 41.1659 34.4738 41.0392C33.9022 40.9125 33.4021 40.9759 33.3567 41.1808C33.3112 41.3857 33.7377 41.6545 34.3093 41.7812C34.8808 41.9079 35.381 41.8445 35.4264 41.6396Z" fill="white"/>
<path d="M35.2054 41.5367C35.2234 41.4558 35.0281 41.3437 34.7693 41.2863C34.5105 41.229 34.2861 41.248 34.2682 41.3289C34.2503 41.4098 34.4455 41.5219 34.7043 41.5792C34.9632 41.6366 35.1875 41.6176 35.2054 41.5367Z" fill="#45A7FF"/>
<mask id="mask1_26835_29226" style="mask-type:luminance" maskUnits="userSpaceOnUse" x="26" y="40" width="13" height="16">
<path d="M37.71 42.14L30.52 40.55L29.71 41.2001C29.43 41.4301 29.23 41.74 29.15 42.1L26.72 53.0401L35.87 55.07L38.3 44.1301C38.38 43.7801 38.33 43.4101 38.17 43.0801L37.71 42.1501V42.14Z" fill="white"/>
</mask>
<g mask="url(#mask1_26835_29226)">
<path d="M37.12 53.16C36.56 52.77 35.89 52.57 35.21 52.6C34.84 52.6 34.49 52.8 34.28 53.1C33.99 52.59 33.42 52.28 32.53 52.29C31.1 52.3 29.67 52.96 28.55 52.96C27.47 52.96 26.69 52.28 26.71 51.07C26.76 48.96 28.55 47.06 29.89 46.2C30.66 45.71 31.3 45.57 31.72 45.61C32.03 45.64 32.39 46 32.16 46.52C31.82 47.28 30.88 47.77 30.9 47.41C30.91 47.17 31.34 46.69 31.45 46.59C31.67 46.41 31.87 46.32 31.94 46.32C32.01 46.26 32.06 45.85 31.51 45.98C30.96 46.11 30.3 46.65 29.66 47.35C29.02 48.05 28.04 49.36 27.79 50.74C27.67 51.38 27.75 52.55 29.27 52.54C30.56 52.54 32.46 51.69 34.21 51.71C34.89 51.71 35.48 51.9 35.94 52.19C36.39 52.47 36.93 52.88 37.12 53.16Z" fill="white"/>
<path d="M38.9999 45.19C38.5599 44.69 36.9999 46.31 36.2699 47.18C35.2399 48.3 35.1399 49.53 34.5099 49.46C34.4799 49.46 35.1599 48.3 34.5099 48.12C33.7199 47.89 33.0499 49.32 32.3499 49.49C33.2999 47.25 30.6799 48.59 30.0999 50.04C29.1799 52.08 30.9999 51.55 31.6899 50.5C31.8899 50.25 32.2199 49.73 32.2199 49.73C32.2499 49.73 32.4699 49.68 32.5199 49.67C31.3799 51.74 33.0399 51.62 33.9399 50.34C34.1399 50.09 34.3899 49.66 34.3899 49.66C34.3999 49.66 34.7299 49.63 34.7599 49.62C33.9099 51.5 34.8499 51.81 36.0499 50.58L35.9399 50.19C35.9399 50.19 35.5099 50.83 35.2899 50.78C34.9299 50.69 35.6199 49.35 35.6199 49.35C37.0099 48.61 39.6299 45.89 39.0099 45.19H38.9999ZM37.0799 47C37.8599 45.98 39.0499 45.06 38.8499 45.49C38.3199 46.68 37.3399 47.71 36.2199 48.68C36.0999 48.79 35.9599 48.87 35.8199 48.95C36.1899 48.27 36.6099 47.61 37.0799 47ZM31.9699 49.73C31.8499 49.93 31.7099 50.13 31.5599 50.31C31.3699 50.55 31.0099 50.91 30.7999 50.83C30.4799 50.7 30.8399 50.01 31.0799 49.66C31.3199 49.31 31.3599 49.28 31.3599 49.27C31.3599 49.27 31.3699 49.25 31.3799 49.27C31.4299 49.38 31.5199 49.47 31.6199 49.54C31.7199 49.61 31.8399 49.66 31.9599 49.7C31.9599 49.7 31.9799 49.7 31.9699 49.73ZM32.2499 49.2C32.2099 49.3 32.1699 49.39 32.1199 49.48C32.1199 49.48 32.1099 49.5 32.0999 49.5C32.0899 49.5 32.0699 49.5 32.0599 49.5C32.0099 49.5 31.6099 49.39 31.6199 49.07C31.6199 48.76 32.0699 48.46 32.2399 48.6C32.3999 48.73 32.3199 49.03 32.2499 49.19V49.2ZM34.1699 49.64C34.0599 49.82 33.9399 50 33.8099 50.17C33.6199 50.41 33.2599 50.77 33.0599 50.69C32.7399 50.56 33.1099 49.86 33.3499 49.52C33.5899 49.18 33.6199 49.16 33.6199 49.15C33.6199 49.15 33.6299 49.13 33.6399 49.15C33.6999 49.26 33.7699 49.35 33.8599 49.43C33.9499 49.51 34.0499 49.58 34.1599 49.63C34.1599 49.63 34.1799 49.63 34.1599 49.66L34.1699 49.64ZM34.3199 49.39C34.3199 49.39 34.2799 49.43 34.2399 49.41C34.1699 49.39 33.8599 49.24 33.8599 48.92C33.8599 48.61 34.3099 48.31 34.4799 48.44C34.6399 48.57 34.5599 48.87 34.4899 49.03C34.4399 49.15 34.3799 49.27 34.3099 49.38L34.3199 49.39Z" fill="white"/>
</g>
<path d="M36.3899 43.7501L36.9599 43.6301C37.0499 43.6101 37.1499 43.6501 37.2099 43.7301L37.4499 44.0701C37.5199 44.1701 37.4899 44.3101 37.3799 44.3601C37.1799 44.4601 36.8199 44.5701 36.2499 44.5301C36.1199 44.5301 36.0299 44.3801 36.0799 44.2601L36.2199 43.8901C36.2499 43.8101 36.3199 43.7601 36.3999 43.7401L36.3899 43.7501Z" fill="white"/>
<path d="M8.13 58.0001C8.13 58.0001 14.38 47.3201 21.36 48.4201C28.34 49.5201 32.53 51.2801 32.53 53.1601C32.53 55.0401 25.33 58.0101 25.33 58.0101H8.13V58.0001Z" fill="#557086"/>
<path d="M36.6901 41.9801C36.5601 42.1601 35.7801 42.0401 35.6801 41.9301L36.6901 35.0001C36.7101 34.9001 36.7901 34.8201 36.9001 34.8201C37.1201 34.8201 37.3401 34.8401 37.5501 34.9101C37.6501 34.9401 37.7101 35.0401 37.6901 35.1501L36.6901 41.9801Z" fill="#E9113C"/>
<path d="M37.6099 35.72L36.4599 36.58L36.3199 37.55L37.4599 36.7L37.6099 35.72Z" fill="white"/>
<path d="M37.3 37.8501L36.15 38.7101L36.01 39.6801L37.15 38.8301L37.3 37.8501Z" fill="white"/>
<path d="M35.7 41.81L36.84 40.96L36.9799 39.99L35.84 40.84L35.7 41.81Z" fill="white"/>
<path d="M37.5664 35.0755C37.5751 35.0154 37.4183 34.9427 37.2161 34.9132C37.0139 34.8836 36.8429 34.9084 36.8341 34.9685C36.8254 35.0287 36.9822 35.1013 37.1844 35.1309C37.3866 35.1604 37.5576 35.1356 37.5664 35.0755Z" fill="#1A2C38"/>
<path d="M12.0771 37.5418L8.42334 37.1035L7.19902 47.3103L10.8528 47.7486L12.0771 37.5418Z" fill="#1A2C38"/>
<path d="M12.47 48.34C12.47 48.34 12.33 50.57 13.46 50.88C15.08 51.34 14.59 39.95 14.59 39.95L12.47 48.33V48.34Z" fill="#1A2C38"/>
<path d="M11.2863 36.2749L13.6593 36.5595C14.3841 36.6465 14.9084 37.3137 14.8214 38.0385L13.6376 47.9077C13.5507 48.6325 12.8835 49.1568 12.1587 49.0698L9.78568 48.7852C9.57717 48.7602 9.4187 48.57 9.4449 48.3515L10.8538 36.6057C10.8788 36.3972 11.0691 36.2388 11.2875 36.265L11.2863 36.2749Z" fill="#E9627D"/>
<path d="M7.76997 48.2999L6.65997 47.7799C5.40997 47.1999 4.67997 45.8799 4.84997 44.5099L5.48997 39.1799C5.65997 37.7599 6.74997 36.6299 8.15997 36.4099L9.23997 36.2399C9.61997 36.1799 9.94997 36.4999 9.89997 36.8799L8.57997 47.8499C8.52997 48.2399 8.11997 48.4699 7.76997 48.2999Z" fill="#E9113C"/>
<path d="M47.93 39.9399C47.93 39.9399 47.55 49.8899 49.09 51.4299C50.63 52.9699 50.01 46.0899 50.01 46.0899L47.93 39.9399Z" fill="#1A2C38"/>
<path d="M9.31001 23.3601H9.28001C9.13089 23.3601 9.01001 23.481 9.01001 23.6301V26.7401C9.01001 26.8892 9.13089 27.0101 9.28001 27.0101H9.31001C9.45913 27.0101 9.58001 26.8892 9.58001 26.7401V23.6301C9.58001 23.481 9.45913 23.3601 9.31001 23.3601Z" fill="white"/>
<path d="M11.91 22.4099H11.88C11.7309 22.4099 11.61 22.5308 11.61 22.6799V25.7899C11.61 25.939 11.7309 26.0599 11.88 26.0599H11.91C12.0591 26.0599 12.18 25.939 12.18 25.7899V22.6799C12.18 22.5308 12.0591 22.4099 11.91 22.4099Z" fill="white"/>
<path d="M8.64004 27.6199C9.17576 27.6199 9.61004 27.1856 9.61004 26.6499C9.61004 26.1142 9.17576 25.6799 8.64004 25.6799C8.10433 25.6799 7.67004 26.1142 7.67004 26.6499C7.67004 27.1856 8.10433 27.6199 8.64004 27.6199Z" fill="white"/>
<path d="M11.23 26.67C11.7657 26.67 12.2 26.2357 12.2 25.7C12.2 25.1643 11.7657 24.73 11.23 24.73C10.6943 24.73 10.26 25.1643 10.26 25.7C10.26 26.2357 10.6943 26.67 11.23 26.67Z" fill="white"/>
<path d="M12.17 21.28L9.01001 22.61V24.15L12.17 22.82V21.28Z" fill="white"/>
<path d="M51.5575 47.7593L55.2113 47.321L53.987 37.1142L50.3332 37.5525L51.5575 47.7593Z" fill="#1A2C38"/>
<path d="M52.6168 48.8014L50.2438 49.0861C49.519 49.173 48.8519 48.6487 48.7649 47.9239L47.5811 38.0547C47.4941 37.3299 48.0184 36.6627 48.7432 36.5757L51.1162 36.2911C51.3247 36.2661 51.5237 36.4134 51.5499 36.6319L52.9588 48.3777C52.9838 48.5862 52.8365 48.7851 52.618 48.8113L52.6168 48.8014Z" fill="#E9627D"/>
<path d="M54.64 48.2999L55.75 47.7799C57 47.1999 57.73 45.8799 57.56 44.5099L56.92 39.1799C56.75 37.7599 55.66 36.6299 54.25 36.4099L53.17 36.2399C52.79 36.1799 52.46 36.4999 52.51 36.8799L53.83 47.8499C53.88 48.2399 54.29 48.4699 54.64 48.2999Z" fill="#E9113C"/>
<path d="M54.71 37.4399C55.58 36.5299 57.17 38.9799 56.91 40.1899C56.65 41.3999 54.09 38.0899 54.71 37.4399Z" fill="white"/>
<path d="M51.64 33.5901H51.61C51.4608 33.5901 51.34 33.711 51.34 33.8601V36.9701C51.34 37.1192 51.4608 37.2401 51.61 37.2401H51.64C51.7891 37.2401 51.91 37.1192 51.91 36.9701V33.8601C51.91 33.711 51.7891 33.5901 51.64 33.5901Z" fill="white"/>
<path d="M50.98 37.8499C51.5157 37.8499 51.95 37.4156 51.95 36.8799C51.95 36.3442 51.5157 35.9099 50.98 35.9099C50.4443 35.9099 50.01 36.3442 50.01 36.8799C50.01 37.4156 50.4443 37.8499 50.98 37.8499Z" fill="white"/>
<path d="M53.71 31.8401L51.34 32.8401V34.3801L53.71 33.3901V31.8401Z" fill="white"/>
<path d="M27.2131 51.6078C27.0887 52.1459 24.9683 52.7041 22.816 52.2062C20.6638 51.7082 19.2945 50.3427 19.419 49.8046C19.5435 49.2665 21.3892 49.234 23.5415 49.7319C25.6938 50.2299 27.3376 51.0697 27.2131 51.6078Z" fill="#8EA3B2"/>
</g>
<path fill-rule="evenodd" clip-rule="evenodd" d="M6.49771 79C6.98969 79 7.48602 79.213 7.49037 79.6913C7.49037 80.1043 7.24656 80.2696 6.99839 80.2696C6.75023 80.2696 6.73281 80.1435 6.73281 80.1435C6.73281 80.1435 7.02452 79.9261 7.02452 79.7174C7.02452 79.6087 6.94179 79.313 6.489 79.3174C5.8577 79.3174 5.5181 79.6174 5.5181 80.1522C5.5181 80.7652 7.35105 80.9739 7.3554 81.7652C7.3554 82.613 6.47594 82.9957 5.69225 83C5.283 83 5.01306 82.7609 5.00871 82.3783C5.00871 81.9261 5.22204 81.4652 5.75756 81.4652C5.88382 81.4565 5.98831 81.5522 5.99702 81.6783C5.99702 81.6783 5.99702 81.6826 5.99702 81.687C5.99702 81.687 5.45715 81.8391 5.4615 82.3783C5.4615 82.4783 5.56599 82.6609 5.81851 82.6565C6.07103 82.6522 6.82424 82.4739 6.81989 81.8087C6.81989 81.1913 5.00435 81.1087 5 80.1478C5 79.0652 6.08845 79.0087 6.49771 79.0087V79ZM10.747 79.6C10.8123 79.5696 11.2129 79.4913 11.1955 79.813C11.1824 80.1348 10.9386 80.6913 10.9037 80.9348C11.2303 80.7696 11.6918 80.2087 11.6918 80.2087C11.6918 80.2087 12.0183 80.2522 11.9182 80.4522C11.818 80.6522 11.1519 81.1435 11.1519 81.1435C11.1519 81.1435 11.3043 82.5696 12.1707 82.5696C12.6453 82.5696 12.8499 82.3609 12.937 82.287C12.9587 82.2696 12.9762 82.2652 12.9849 82.2783C13.0197 82.387 12.9936 82.5043 12.9152 82.5913C12.8194 82.6957 12.5974 82.8217 12.1533 82.8261C11.3653 82.8261 10.9255 82.1957 10.8123 81.2609C10.7252 81.5348 10.7339 81.9826 10.7209 82.2C10.6948 82.2435 10.2507 82.4174 10.2158 82.1174C10.2158 82.0913 10.2158 82.0696 10.2158 82.0435C10.1331 82.1609 10.0199 82.2826 9.91108 82.2826C9.71951 82.2826 9.63679 82.1217 9.60196 82.0391C9.57584 82.0696 9.3625 82.287 9.08821 82.287C8.92277 82.2913 8.77474 82.1957 8.70943 82.0435C8.57011 82.1435 8.32195 82.2913 8.03895 82.2913C7.73418 82.2913 7.66017 82.1087 7.66017 81.9565C7.66017 81.713 7.84303 80.987 7.84303 80.987C7.84303 80.987 7.48602 81.1304 7.36411 81.1348C7.19431 81.1348 7.11159 80.8217 7.11159 80.813C7.11159 80.8087 7.11159 80.8 7.1203 80.8C7.22044 80.7609 7.94317 80.513 7.94317 80.513C7.94317 80.513 8.07813 79.9826 8.09555 79.913C8.11296 79.8435 8.2131 79.7 8.33065 79.6565C8.41773 79.6217 8.50916 79.6 8.60059 79.5913C8.63107 79.5913 8.65284 79.6 8.65284 79.6174C8.65284 79.6348 8.47433 80.4087 8.47433 80.4087C8.47433 80.4087 8.84876 80.3217 8.98808 80.3217C9.09692 80.3217 9.15352 80.387 9.09257 80.4696C9.03162 80.5522 8.96196 80.6478 8.92712 80.6913C8.88794 80.7348 8.86182 80.7435 8.77039 80.7609C8.64413 80.787 8.36113 80.8565 8.36113 80.8565C8.36113 80.8565 8.13473 81.6783 8.13909 81.8174C8.13909 81.8957 8.16521 81.987 8.26099 81.987C8.35678 81.987 8.53964 81.8739 8.67025 81.7913C8.69202 81.1522 9.18835 80.7261 9.57584 80.7261C9.7021 80.7261 9.65421 80.8478 9.79788 80.8478H9.88931C9.94591 80.8478 10.0069 80.8522 10.0069 80.9957C10.0069 81.1957 9.89367 81.5261 9.89367 81.7348C9.89367 81.8826 9.91544 81.987 9.97204 81.987C10.0678 81.987 10.1767 81.8478 10.255 81.7261C10.3813 81.0304 10.734 79.7609 10.734 79.6174L10.747 79.6ZM12.5016 80.7C12.7672 80.6783 12.9326 80.8217 12.9631 80.9C12.9936 80.9783 12.9892 81.1609 12.9152 81.2913C12.6845 81.7044 12.1097 81.6304 12.1097 81.6304C12.1097 81.6304 12.0444 81.9565 12.3405 81.9565C12.593 81.9565 12.7062 81.8304 12.8151 81.7261C12.8586 81.7261 12.9936 81.8652 12.9326 81.9609C12.8847 82.0348 12.6191 82.2565 12.2795 82.2609C11.7397 82.2609 11.6047 81.8 11.6744 81.4696C11.7658 81.0609 12.1751 80.7217 12.5016 80.6957V80.7ZM9.6455 80.987C9.32332 80.987 8.82699 81.9696 9.20577 81.9652C9.61938 81.9652 9.6455 81.1826 9.6455 81.0043V80.987ZM12.6409 80.8913C12.4232 80.9 12.1751 81.3174 12.1533 81.5C12.4798 81.513 12.654 81.1957 12.6757 81.0696C12.6888 80.9739 12.6932 80.887 12.6409 80.887V80.8913Z" fill="#557086"/>
<path d="M56.1444 79.3778L56.6412 80.278L57.6518 80.4733C57.7792 80.4988 57.8302 80.6559 57.741 80.7494L57.0361 81.5009L57.1635 82.5243C57.1805 82.6559 57.0446 82.7494 56.93 82.6942L56 82.2568L55.0701 82.6942C54.9512 82.7494 54.8196 82.6517 54.8366 82.5243L54.9639 81.5009L54.2591 80.7494C54.1699 80.6559 54.2208 80.4988 54.3482 80.4733L55.3588 80.278L55.8557 79.3778C55.9194 79.2632 56.085 79.2632 56.1444 79.3778Z" fill="#FFC200"/>
<path d="M56 79.2929C56.0552 79.2929 56.1147 79.3226 56.1444 79.3778L56.6412 80.278L57.6518 80.4733C57.7792 80.4988 57.8302 80.6559 57.741 80.7494L57.0361 81.5009L57.1635 82.5243C57.1763 82.6262 57.0955 82.7111 56.9979 82.7111C56.9766 82.7111 56.9512 82.7069 56.9257 82.6942L55.9957 82.2568L55.0658 82.6942C55.0403 82.7069 55.0191 82.7111 54.9936 82.7111C54.9002 82.7111 54.8153 82.6262 54.828 82.5243L54.9554 81.5009L54.2505 80.7494C54.1613 80.6559 54.2123 80.4988 54.3397 80.4733L55.3503 80.278L55.8471 79.3778C55.8768 79.3226 55.9363 79.2929 55.9915 79.2929M56 79.0806C55.8641 79.0806 55.7367 79.157 55.6688 79.2759L55.2187 80.0912L54.3057 80.2653C54.1698 80.2908 54.0594 80.3884 54.017 80.5201C53.9745 80.6517 54.0085 80.7961 54.1019 80.8937L54.7388 81.5731L54.6242 82.4946C54.6115 82.6007 54.6454 82.7111 54.7134 82.7918C54.7856 82.8725 54.8875 82.9192 54.9979 82.9192C55.0531 82.9192 55.1083 82.9065 55.1592 82.881L56 82.4861L56.8408 82.881C56.8917 82.9065 56.9469 82.9192 57.0021 82.9192C57.1125 82.9192 57.2144 82.8725 57.2866 82.7918C57.3588 82.7111 57.3928 82.6007 57.3758 82.4946L57.2611 81.5731L57.8981 80.8937C57.9915 80.7918 58.0255 80.6474 57.983 80.5201C57.9405 80.3884 57.8301 80.2908 57.6943 80.2653L56.7813 80.0912L56.3312 79.2759C56.2633 79.157 56.1359 79.0806 56 79.0806Z" fill="#213743"/>
<path d="M56 79.8152V80.9744C56 81.0678 56.0892 81.1315 56.1784 81.106L57.2187 80.7706C57.2739 80.7536 57.2697 80.6729 57.2102 80.6602L56.5563 80.5413C56.4969 80.5286 56.4417 80.4903 56.4119 80.4351L56.085 79.7939C56.0637 79.7515 55.9958 79.7642 55.9958 79.8152H56Z" fill="#FFEBB8"/>
<path d="M56 81.4924V82.0699C56 82.1039 56.017 82.1294 56.0467 82.1464L56.7983 82.5073C56.8365 82.5243 56.8705 82.4818 56.845 82.4479L56.0934 81.4627C56.0637 81.4245 56 81.4457 56 81.4924Z" fill="#FF7F00"/>
<rect x="13" y="62" width="37" height="13" rx="6.5" fill="#2F4553"/>
<path d="M27.8142 70H26.7822V67.318L26.1102 67.996L25.5222 67.378L26.9202 65.998H27.8142V70ZM28.9798 70.072C28.6738 70.072 28.4158 69.814 28.4158 69.508C28.4158 69.202 28.6738 68.944 28.9798 68.944C29.2858 68.944 29.5438 69.202 29.5438 69.508C29.5438 69.814 29.2858 70.072 28.9798 70.072ZM33.195 70H30.057V69.196C31.791 67.942 32.115 67.666 32.115 67.27C32.115 66.994 31.857 66.85 31.563 66.85C31.119 66.85 30.783 67.018 30.495 67.288L29.925 66.604C30.351 66.136 30.987 65.938 31.545 65.938C32.487 65.938 33.165 66.466 33.165 67.27C33.165 67.882 32.727 68.404 31.731 69.1H33.195V70ZM36.5455 70H35.5315L34.9735 69.124L34.4095 70H33.4015L34.3915 68.512L33.4615 67.102H34.4755L34.9735 67.888L35.4655 67.102H36.4795L35.5555 68.512L36.5455 70Z" fill="white"/>
<path d="M8.03 11H7.215L6.56 9.815H6.04V11H5.33V7.665H6.89C7.585 7.665 8.01 8.12 8.01 8.74C8.01 9.33 7.64 9.645 7.28 9.73L8.03 11ZM6.785 9.19C7.07 9.19 7.285 9.02 7.285 8.74C7.285 8.46 7.07 8.29 6.785 8.29H6.04V9.19H6.785ZM10.5152 11H9.88023V10.75C9.71523 10.945 9.43023 11.06 9.11523 11.06C8.73023 11.06 8.27523 10.8 8.27523 10.26C8.27523 9.695 8.73023 9.48 9.11523 9.48C9.43523 9.48 9.72023 9.585 9.88023 9.775V9.45C9.88023 9.205 9.67023 9.045 9.35023 9.045C9.09023 9.045 8.85023 9.14 8.64523 9.33L8.40523 8.905C8.70023 8.645 9.08023 8.525 9.46023 8.525C10.0102 8.525 10.5152 8.745 10.5152 9.44V11ZM9.37023 10.63C9.57523 10.63 9.77523 10.56 9.88023 10.42V10.12C9.77523 9.98 9.57523 9.91 9.37023 9.91C9.12023 9.91 8.91523 10.04 8.91523 10.275C8.91523 10.5 9.12023 10.63 9.37023 10.63ZM11.7801 11H11.1451V8.585H11.7801V8.915C11.9501 8.7 12.2501 8.525 12.5501 8.525V9.145C12.5051 9.135 12.4451 9.13 12.3751 9.13C12.1651 9.13 11.8851 9.25 11.7801 9.405V11ZM14.0818 11.06C13.3468 11.06 12.7918 10.565 12.7918 9.79C12.7918 9.09 13.3068 8.525 14.0418 8.525C14.7618 8.525 15.2518 9.065 15.2518 9.855V9.995H13.4568C13.4968 10.3 13.7418 10.555 14.1518 10.555C14.3568 10.555 14.6418 10.465 14.7968 10.315L15.0768 10.725C14.8368 10.945 14.4568 11.06 14.0818 11.06ZM14.6368 9.565C14.6218 9.335 14.4618 9.03 14.0418 9.03C13.6468 9.03 13.4768 9.325 13.4468 9.565H14.6368Z" fill="white"/>
<path d="M48.7366 11H48.2846L46.8926 9.096V11H46.4246V8.332H46.9046L48.2686 10.184V8.332H48.7366V11ZM50.1635 11.048C49.5515 11.048 49.1715 10.588 49.1715 10.032C49.1715 9.48 49.5515 9.02 50.1635 9.02C50.7835 9.02 51.1595 9.48 51.1595 10.032C51.1595 10.588 50.7835 11.048 50.1635 11.048ZM50.1635 10.676C50.5235 10.676 50.7235 10.376 50.7235 10.032C50.7235 9.692 50.5235 9.392 50.1635 9.392C49.8075 9.392 49.6075 9.692 49.6075 10.032C49.6075 10.376 49.8075 10.676 50.1635 10.676ZM51.781 11.044C51.629 11.044 51.501 10.916 51.501 10.764C51.501 10.612 51.629 10.484 51.781 10.484C51.933 10.484 52.061 10.612 52.061 10.764C52.061 10.916 51.933 11.044 51.781 11.044ZM54.5648 11.048C53.7808 11.048 53.4648 10.412 53.4648 9.672C53.4648 8.9 53.8688 8.292 54.6408 8.292C54.9728 8.292 55.2288 8.412 55.4088 8.588L55.1888 8.944C55.0488 8.796 54.8968 8.708 54.6408 8.708C54.1968 8.708 53.9368 9.12 53.9368 9.588C53.9368 9.616 53.9368 9.64 53.9408 9.664C54.0608 9.484 54.3408 9.292 54.6568 9.292C55.1368 9.292 55.5488 9.584 55.5488 10.152C55.5488 10.648 55.1608 11.048 54.5648 11.048ZM54.5408 10.632C54.8928 10.632 55.0768 10.384 55.0768 10.168C55.0768 9.84 54.8208 9.692 54.5288 9.692C54.3008 9.692 54.0808 9.816 53.9448 10.008C53.9728 10.296 54.1288 10.632 54.5408 10.632ZM56.8071 11.048C56.3311 11.048 55.9791 10.856 55.7991 10.616L56.0511 10.308C56.2231 10.508 56.5071 10.632 56.7911 10.632C57.1431 10.632 57.3471 10.472 57.3471 10.224C57.3471 9.96 57.1351 9.848 56.7551 9.848C56.6431 9.848 56.4871 9.848 56.4471 9.852V9.432C56.4951 9.436 56.6511 9.436 56.7551 9.436C57.0671 9.436 57.3031 9.328 57.3031 9.084C57.3031 8.836 57.0631 8.708 56.7631 8.708C56.4911 8.708 56.2671 8.812 56.0751 9.004L55.8351 8.712C56.0391 8.472 56.3631 8.292 56.8071 8.292C57.3831 8.292 57.7711 8.564 57.7711 9.012C57.7711 9.368 57.4671 9.576 57.1911 9.624C57.4511 9.648 57.8111 9.86 57.8111 10.272C57.8111 10.724 57.4231 11.048 56.8071 11.048Z" fill="white"/>
<defs>
<clipPath id="clip0_26835_29226">
<rect width="63" height="88" fill="white"/>
</clipPath>
</defs>
</svg>
