<svg width="63" height="88" viewBox="0 0 63 88" fill="none" xmlns="http://www.w3.org/2000/svg">
<rect width="63" height="88" rx="4" fill="#FF003F"/>
<path d="M36.7008 13.5133L44.7992 3.48665C45.5586 2.54645 46.7024 2 47.911 2H58C59.6569 2 61 3.34314 61 5V83C61 84.6569 59.6569 86 58 86H5C3.34315 86 2 84.6569 2 83V18C2 16.3431 3.34315 15 5 15H33.589C34.7976 15 35.9414 14.4536 36.7008 13.5133Z" fill="#213743"/>
<rect x="5" y="18" width="53" height="40" rx="1" fill="#2F4553"/>
<g clip-path="url(#clip0_26835_29227)">
<path d="M57 18H6C5.44772 18 5 18.4477 5 19V57C5 57.5523 5.44772 58 6 58H57C57.5523 58 58 57.5523 58 57V19C58 18.4477 57.5523 18 57 18Z" fill="#E9113C"/>
<path d="M13.89 34.5999C13.89 34.5999 10.59 30.3899 5 30.3899V36.1699C5 36.1699 7.44 31.7499 11.45 35.7599L13.89 34.5899V34.5999Z" fill="#FFC200"/>
<path d="M31.5001 52.3599C20.3501 52.3599 11.3101 48.6099 11.3101 52.6099C11.3101 54.1099 12.5901 56.0999 14.7701 57.9999H48.2301C50.4101 56.0999 51.6801 54.1099 51.6801 52.6099C51.6801 48.6099 42.6401 52.3599 31.4901 52.3599H31.5001Z" fill="#1A2C38"/>
<path d="M11.65 37.0901C13.0252 37.0901 14.14 35.9753 14.14 34.6001C14.14 33.2249 13.0252 32.1101 11.65 32.1101C10.2748 32.1101 9.16003 33.2249 9.16003 34.6001C9.16003 35.9753 10.2748 37.0901 11.65 37.0901Z" fill="#E9113C"/>
<path d="M51.6901 47.3599C51.6901 50.6099 42.6501 56.6399 31.5001 56.6399C20.3501 56.6399 11.3101 50.6099 11.3101 47.3599C11.3101 44.1099 20.3501 47.1499 31.5001 47.1499C42.6501 47.1499 51.6901 44.1099 51.6901 47.3599Z" fill="#FFF7E6"/>
<path d="M47.82 32.8999C45.84 39.4499 43.34 36.5099 39.69 35.4099C36.04 34.3099 32.63 35.4699 34.61 28.9099C36.59 22.3499 42.94 12.0099 46.59 13.1099C50.24 14.2099 49.81 26.3499 47.83 32.8999H47.82Z" fill="#FFF7E6"/>
<path d="M46.65 32.96C45.03 38.34 43.25 36 40.58 35.2C37.91 34.4 35.36 35.42 36.99 30.05C38.61 24.67 43.56 16.1 46.23 16.91C48.9 17.72 48.28 27.59 46.65 32.97V32.96Z" fill="#E9113C"/>
<path d="M15.2601 32.8999C17.2401 39.4499 19.7401 36.5099 23.3901 35.4099C27.0401 34.3099 30.4501 35.4699 28.4701 28.9099C26.4901 22.3499 20.1401 12.0099 16.4901 13.1099C12.8401 14.2099 13.2701 26.3499 15.2501 32.8999H15.2601Z" fill="#FFF7E6"/>
<path d="M16.4301 32.9599C18.0501 38.3399 19.8301 35.9999 22.5001 35.1999C25.1701 34.3999 27.7201 35.4199 26.0901 30.0499C24.4601 24.6799 19.5201 16.0999 16.8501 16.9099C14.1801 17.7199 14.8001 27.5899 16.4301 32.9699V32.9599Z" fill="#E9113C"/>
<path d="M47.8001 33.78C47.0201 29.23 39.1501 23.47 31.3901 23.69C23.6301 23.91 15.9701 29.24 15.2001 33.78C14.4201 38.33 16.3101 49.75 16.8601 51.97C17.4101 54.19 22.1801 54.52 23.7401 55.96C25.3001 57.4 27.7301 60.06 29.6201 60.51C29.9301 60.58 30.1901 60.44 30.4101 60.18C31.0001 59.49 32.0201 59.49 32.6101 60.18C32.8301 60.44 33.0901 60.58 33.4001 60.51C35.2901 60.07 37.7301 57.4 39.2801 55.96C40.8301 54.52 45.6001 54.19 46.1601 51.97C46.7101 49.75 48.6001 38.33 47.8201 33.78H47.8001Z" fill="#FFF7E6"/>
<path d="M45.6901 34.8398C45.6901 34.8398 45.6901 37.5998 48.2701 38.8498L48.6901 36.3998L45.6801 34.8398H45.6901Z" fill="#E9113C"/>
<path d="M24.91 54.5299C24.91 53.0199 27.86 49.8699 31.5 49.8699C35.14 49.8699 38.09 53.0199 38.09 54.5299C38.09 56.0399 35.14 57.2599 31.5 57.2599C27.86 57.2599 24.91 56.0399 24.91 54.5299Z" fill="white"/>
<path d="M41.7801 33.6599C41.7801 38.3599 37.1801 48.1799 31.5001 48.1799C25.8201 48.1799 21.2201 38.3599 21.2201 33.6599C21.2201 28.9599 25.8201 25.1399 31.5001 25.1399C37.1801 25.1399 41.7801 28.9499 41.7801 33.6599Z" fill="white"/>
<path d="M45.11 39.0998C45.11 39.0998 43 41.3198 40.67 43.3098C38.34 45.3098 36.68 46.0798 35.57 47.9698C34.46 49.8598 33.91 52.0698 33.91 52.0698L35.35 51.0698C35.35 51.0698 38.79 51.2898 41.67 48.9598C44.55 46.6298 44.11 42.3098 44.11 42.3098L45.11 39.0898V39.0998Z" fill="#1A2C38"/>
<path d="M36.14 47.1499C36.69 47.9799 37.63 48.5199 38.7 48.5199C40.4 48.5199 41.78 47.1399 41.78 45.4399C41.78 44.5499 41.4 43.7499 40.8 43.1899C40.76 43.2299 40.71 43.2599 40.67 43.2999C38.71 44.9799 37.22 45.7999 36.14 47.1399V47.1499Z" fill="#FFC200"/>
<path d="M35.57 49.7998C36.68 47.9098 38.34 47.1398 40.67 45.1398C42.1 43.9098 43.45 42.5998 44.27 41.7698L45.1 39.0898C45.1 39.0898 42.99 41.3098 40.66 43.2998C38.33 45.2998 36.67 46.0698 35.56 47.9598C34.45 49.8498 33.9 52.0598 33.9 52.0598L34.72 51.4898C34.95 50.9398 35.23 50.3498 35.56 49.7798L35.57 49.7998Z" fill="#1A2C38"/>
<path d="M17.89 39.0998C17.89 39.0998 20 41.3198 22.33 43.3098C24.66 45.3098 26.32 46.0798 27.43 47.9698C28.54 49.8598 29.09 52.0698 29.09 52.0698L27.65 51.0698C27.65 51.0698 24.21 51.2898 21.33 48.9598C18.45 46.6298 18.89 42.3098 18.89 42.3098L17.89 39.0898V39.0998Z" fill="#1A2C38"/>
<path d="M26.8601 47.1499C26.3101 47.9799 25.3701 48.5199 24.3001 48.5199C22.6001 48.5199 21.2201 47.1399 21.2201 45.4399C21.2201 44.5499 21.6001 43.7499 22.2001 43.1899C22.2401 43.2299 22.2901 43.2599 22.3301 43.2999C24.2901 44.9799 25.7801 45.7999 26.8601 47.1399V47.1499Z" fill="#FFC200"/>
<path d="M27.43 49.7998C26.32 47.9098 24.66 47.1398 22.33 45.1398C20.9 43.9098 19.55 42.5998 18.73 41.7698L17.9 39.0898C17.9 39.0898 20.01 41.3098 22.34 43.2998C24.67 45.2998 26.33 46.0698 27.44 47.9598C28.55 49.8498 29.1 52.0598 29.1 52.0598L28.28 51.4898C28.05 50.9398 27.77 50.3498 27.44 49.7798L27.43 49.7998Z" fill="#1A2C38"/>
<path d="M34.7801 57.1099C34.7801 57.8599 33.3101 58.4699 31.5001 58.4699C29.6901 58.4699 28.2201 57.8599 28.2201 57.1099C28.2201 56.3599 29.6901 56.1599 31.5001 56.1599C33.3101 56.1599 34.7801 56.3599 34.7801 57.1099Z" fill="#1A2C38"/>
<path d="M28.76 47.17C29.3675 47.17 29.86 46.6775 29.86 46.07C29.86 45.4625 29.3675 44.97 28.76 44.97C28.1525 44.97 27.66 45.4625 27.66 46.07C27.66 46.6775 28.1525 47.17 28.76 47.17Z" fill="#E9113C"/>
<path d="M34.24 47.17C34.8475 47.17 35.34 46.6775 35.34 46.07C35.34 45.4625 34.8475 44.97 34.24 44.97C33.6325 44.97 33.14 45.4625 33.14 46.07C33.14 46.6775 33.6325 47.17 34.24 47.17Z" fill="#E9113C"/>
<path d="M34.35 31.9899C32.02 30.8199 31.51 25.6099 31.51 25.6099C31.51 25.6099 31 30.8199 28.67 31.9899C26.34 33.1599 25.83 37.1199 28.67 38.3899C30.61 39.2599 31.23 40.6199 31.42 41.3999C31.45 41.5999 31.48 41.7999 31.51 41.9999C31.51 41.9999 31.51 39.6599 34.35 38.3899C37.19 37.1199 36.68 33.1599 34.35 31.9899Z" fill="#E9113C"/>
<path d="M32.7301 44.0999C32.5601 41.1599 35.4001 38.8599 38.0901 38.4299C38.3201 38.3799 38.6701 38.3099 38.9001 38.2699C40.8301 37.8899 41.8401 36.7399 42.4401 34.6099C44.0001 37.1399 42.3001 40.0799 39.5801 40.7999C39.3301 40.8599 38.8201 40.9799 38.5701 41.0399C36.3201 41.4299 34.3301 42.4299 32.7201 44.1099L32.7301 44.0999Z" fill="#E9113C"/>
<path d="M30.2701 44.0999C30.4401 41.1599 27.6001 38.8599 24.9101 38.4299C24.6801 38.3799 24.3301 38.3099 24.1001 38.2699C22.1701 37.8899 21.1601 36.7399 20.5601 34.6099C19.0001 37.1399 20.7001 40.0799 23.4201 40.7999C23.6701 40.8599 24.1801 40.9799 24.4301 41.0399C26.6801 41.4299 28.6701 42.4299 30.2801 44.1099L30.2701 44.0999Z" fill="#E9113C"/>
<path d="M38.2101 52.0799C38.2101 52.0799 42.9901 51.9799 44.7401 47.1799C44.7401 47.1799 45.4101 54.5199 38.2101 52.0799Z" fill="#E9113C"/>
<path d="M24.79 52.0799C24.79 52.0799 20.01 51.9799 18.26 47.1799C18.26 47.1799 17.59 54.5199 24.79 52.0799Z" fill="#E9113C"/>
<path d="M53.16 40.21C53.16 40.21 54.82 42.89 58 43.93V41.83L53.16 40.21Z" fill="#1A2C38"/>
<path d="M49.2401 35.1399C49.2401 35.1399 51.0601 41.1499 58.0001 42.0999V36.6599C58.0001 36.6599 52.3801 39.0899 51.2401 34.1899L49.2401 35.1399Z" fill="#FFC200"/>
<path d="M49.83 38.6C51.3709 38.6 52.62 37.3509 52.62 35.81C52.62 34.2691 51.3709 33.02 49.83 33.02C48.2892 33.02 47.04 34.2691 47.04 35.81C47.04 37.3509 48.2892 38.6 49.83 38.6Z" fill="#E9113C"/>
<path d="M49.24 37.5099C51.2835 37.5099 52.94 35.8533 52.94 33.8099C52.94 31.7664 51.2835 30.1099 49.24 30.1099C47.1966 30.1099 45.54 31.7664 45.54 33.8099C45.54 35.8533 47.1966 37.5099 49.24 37.5099Z" fill="#FFC200"/>
<path d="M49.24 37.02C50.5213 37.02 51.56 36.1783 51.56 35.14C51.56 34.1017 50.5213 33.26 49.24 33.26C47.9587 33.26 46.92 34.1017 46.92 35.14C46.92 36.1783 47.9587 37.02 49.24 37.02Z" fill="#FF5500"/>
<path d="M51.4501 35.7399C51.6101 36.0699 51.2801 36.6399 50.6501 36.9399C50.0201 37.2399 49.3201 37.1599 49.1601 36.8399C49.0001 36.5199 49.3901 36.0099 50.0201 35.6999C50.6501 35.3899 51.2901 35.4199 51.4501 35.7399Z" fill="#1A2C38"/>
<path d="M51.4569 32.2412C51.6295 31.7987 51.202 31.2188 50.5022 30.946C49.8024 30.6731 49.0953 30.8107 48.9227 31.2532C48.7502 31.6957 49.1777 32.2756 49.8775 32.5485C50.5773 32.8213 51.2844 32.6838 51.4569 32.2412Z" fill="white"/>
<path d="M13.7601 37.5099C15.8035 37.5099 17.4601 35.8533 17.4601 33.8099C17.4601 31.7664 15.8035 30.1099 13.7601 30.1099C11.7166 30.1099 10.0601 31.7664 10.0601 33.8099C10.0601 35.8533 11.7166 37.5099 13.7601 37.5099Z" fill="#FFC200"/>
<path d="M13.7601 37.02C15.0414 37.02 16.0801 36.1783 16.0801 35.14C16.0801 34.1017 15.0414 33.26 13.7601 33.26C12.4788 33.26 11.4401 34.1017 11.4401 35.14C11.4401 36.1783 12.4788 37.02 13.7601 37.02Z" fill="#FF5500"/>
<path d="M13.8801 36.5199C13.7701 36.8599 13.1501 37.0699 12.4801 36.8599C11.8101 36.6499 11.3501 36.1199 11.4601 35.7699C11.5701 35.4199 12.1901 35.3099 12.8601 35.5199C13.5301 35.7299 13.9901 36.1699 13.8801 36.5199Z" fill="#1A2C38"/>
<path d="M15.9688 32.2376C16.1413 31.795 15.7139 31.2151 15.0141 30.9423C14.3143 30.6695 13.6071 30.807 13.4346 31.2495C13.2621 31.692 13.6895 32.272 14.3893 32.5448C15.0891 32.8176 15.7963 32.6801 15.9688 32.2376Z" fill="white"/>
<path d="M51.6901 39.01C51.6901 39.01 55.4301 41.54 58.0001 40.16V42.42C58.0001 42.42 54.4101 42.09 51.6901 39.01Z" fill="#FFEBB8"/>
</g>
<path fill-rule="evenodd" clip-rule="evenodd" d="M6.49771 79C6.98969 79 7.48602 79.213 7.49037 79.6913C7.49037 80.1043 7.24656 80.2696 6.99839 80.2696C6.75023 80.2696 6.73281 80.1435 6.73281 80.1435C6.73281 80.1435 7.02452 79.9261 7.02452 79.7174C7.02452 79.6087 6.94179 79.313 6.489 79.3174C5.8577 79.3174 5.5181 79.6174 5.5181 80.1522C5.5181 80.7652 7.35105 80.9739 7.3554 81.7652C7.3554 82.613 6.47594 82.9957 5.69225 83C5.283 83 5.01306 82.7609 5.00871 82.3783C5.00871 81.9261 5.22204 81.4652 5.75756 81.4652C5.88382 81.4565 5.98831 81.5522 5.99702 81.6783C5.99702 81.6783 5.99702 81.6826 5.99702 81.687C5.99702 81.687 5.45715 81.8391 5.4615 82.3783C5.4615 82.4783 5.56599 82.6609 5.81851 82.6565C6.07103 82.6522 6.82424 82.4739 6.81989 81.8087C6.81989 81.1913 5.00435 81.1087 5 80.1478C5 79.0652 6.08845 79.0087 6.49771 79.0087V79ZM10.747 79.6C10.8123 79.5696 11.2129 79.4913 11.1955 79.813C11.1824 80.1348 10.9386 80.6913 10.9037 80.9348C11.2303 80.7696 11.6918 80.2087 11.6918 80.2087C11.6918 80.2087 12.0183 80.2522 11.9182 80.4522C11.818 80.6522 11.1519 81.1435 11.1519 81.1435C11.1519 81.1435 11.3043 82.5696 12.1707 82.5696C12.6453 82.5696 12.8499 82.3609 12.937 82.287C12.9587 82.2696 12.9762 82.2652 12.9849 82.2783C13.0197 82.387 12.9936 82.5043 12.9152 82.5913C12.8194 82.6957 12.5974 82.8217 12.1533 82.8261C11.3653 82.8261 10.9255 82.1957 10.8123 81.2609C10.7252 81.5348 10.7339 81.9826 10.7209 82.2C10.6948 82.2435 10.2507 82.4174 10.2158 82.1174C10.2158 82.0913 10.2158 82.0696 10.2158 82.0435C10.1331 82.1609 10.0199 82.2826 9.91108 82.2826C9.71951 82.2826 9.63679 82.1217 9.60196 82.0391C9.57584 82.0696 9.3625 82.287 9.08821 82.287C8.92277 82.2913 8.77474 82.1957 8.70943 82.0435C8.57011 82.1435 8.32195 82.2913 8.03895 82.2913C7.73418 82.2913 7.66017 82.1087 7.66017 81.9565C7.66017 81.713 7.84303 80.987 7.84303 80.987C7.84303 80.987 7.48602 81.1304 7.36411 81.1348C7.19431 81.1348 7.11159 80.8217 7.11159 80.813C7.11159 80.8087 7.11159 80.8 7.1203 80.8C7.22044 80.7609 7.94317 80.513 7.94317 80.513C7.94317 80.513 8.07813 79.9826 8.09555 79.913C8.11296 79.8435 8.2131 79.7 8.33065 79.6565C8.41773 79.6217 8.50916 79.6 8.60059 79.5913C8.63107 79.5913 8.65284 79.6 8.65284 79.6174C8.65284 79.6348 8.47433 80.4087 8.47433 80.4087C8.47433 80.4087 8.84876 80.3217 8.98808 80.3217C9.09692 80.3217 9.15352 80.387 9.09257 80.4696C9.03162 80.5522 8.96196 80.6478 8.92712 80.6913C8.88794 80.7348 8.86182 80.7435 8.77039 80.7609C8.64413 80.787 8.36113 80.8565 8.36113 80.8565C8.36113 80.8565 8.13473 81.6783 8.13909 81.8174C8.13909 81.8957 8.16521 81.987 8.26099 81.987C8.35678 81.987 8.53964 81.8739 8.67025 81.7913C8.69202 81.1522 9.18835 80.7261 9.57584 80.7261C9.7021 80.7261 9.65421 80.8478 9.79788 80.8478H9.88931C9.94591 80.8478 10.0069 80.8522 10.0069 80.9957C10.0069 81.1957 9.89367 81.5261 9.89367 81.7348C9.89367 81.8826 9.91544 81.987 9.97204 81.987C10.0678 81.987 10.1767 81.8478 10.255 81.7261C10.3813 81.0304 10.734 79.7609 10.734 79.6174L10.747 79.6ZM12.5016 80.7C12.7672 80.6783 12.9326 80.8217 12.9631 80.9C12.9936 80.9783 12.9892 81.1609 12.9152 81.2913C12.6845 81.7044 12.1097 81.6304 12.1097 81.6304C12.1097 81.6304 12.0444 81.9565 12.3405 81.9565C12.593 81.9565 12.7062 81.8304 12.8151 81.7261C12.8586 81.7261 12.9936 81.8652 12.9326 81.9609C12.8847 82.0348 12.6191 82.2565 12.2795 82.2609C11.7397 82.2609 11.6047 81.8 11.6744 81.4696C11.7658 81.0609 12.1751 80.7217 12.5016 80.6957V80.7ZM9.6455 80.987C9.32332 80.987 8.82699 81.9696 9.20577 81.9652C9.61938 81.9652 9.6455 81.1826 9.6455 81.0043V80.987ZM12.6409 80.8913C12.4232 80.9 12.1751 81.3174 12.1533 81.5C12.4798 81.513 12.654 81.1957 12.6757 81.0696C12.6888 80.9739 12.6932 80.887 12.6409 80.887V80.8913Z" fill="#557086"/>
<path d="M56.1444 79.3778L56.6412 80.278L57.6518 80.4733C57.7792 80.4988 57.8302 80.6559 57.741 80.7494L57.0361 81.5009L57.1635 82.5243C57.1805 82.6559 57.0446 82.7494 56.93 82.6942L56 82.2568L55.0701 82.6942C54.9512 82.7494 54.8196 82.6517 54.8366 82.5243L54.9639 81.5009L54.2591 80.7494C54.1699 80.6559 54.2208 80.4988 54.3482 80.4733L55.3588 80.278L55.8557 79.3778C55.9194 79.2632 56.085 79.2632 56.1444 79.3778Z" fill="#FFC200"/>
<path d="M56 79.2929C56.0552 79.2929 56.1147 79.3226 56.1444 79.3778L56.6412 80.278L57.6518 80.4733C57.7792 80.4988 57.8302 80.6559 57.741 80.7494L57.0361 81.5009L57.1635 82.5243C57.1763 82.6262 57.0955 82.7111 56.9979 82.7111C56.9766 82.7111 56.9512 82.7069 56.9257 82.6942L55.9957 82.2568L55.0658 82.6942C55.0403 82.7069 55.0191 82.7111 54.9936 82.7111C54.9002 82.7111 54.8153 82.6262 54.828 82.5243L54.9554 81.5009L54.2505 80.7494C54.1613 80.6559 54.2123 80.4988 54.3397 80.4733L55.3503 80.278L55.8471 79.3778C55.8768 79.3226 55.9363 79.2929 55.9915 79.2929M56 79.0806C55.8641 79.0806 55.7367 79.157 55.6688 79.2759L55.2187 80.0912L54.3057 80.2653C54.1698 80.2908 54.0594 80.3884 54.017 80.5201C53.9745 80.6517 54.0085 80.7961 54.1019 80.8937L54.7388 81.5731L54.6242 82.4946C54.6115 82.6007 54.6454 82.7111 54.7134 82.7918C54.7856 82.8725 54.8875 82.9192 54.9979 82.9192C55.0531 82.9192 55.1083 82.9065 55.1592 82.881L56 82.4861L56.8408 82.881C56.8917 82.9065 56.9469 82.9192 57.0021 82.9192C57.1125 82.9192 57.2144 82.8725 57.2866 82.7918C57.3588 82.7111 57.3928 82.6007 57.3758 82.4946L57.2611 81.5731L57.8981 80.8937C57.9915 80.7918 58.0255 80.6474 57.983 80.5201C57.9405 80.3884 57.8301 80.2908 57.6943 80.2653L56.7813 80.0912L56.3312 79.2759C56.2633 79.157 56.1359 79.0806 56 79.0806Z" fill="#213743"/>
<path d="M56 79.8152V80.9744C56 81.0678 56.0892 81.1315 56.1784 81.106L57.2187 80.7706C57.2739 80.7536 57.2697 80.6729 57.2102 80.6602L56.5563 80.5413C56.4969 80.5286 56.4417 80.4903 56.4119 80.4351L56.085 79.7939C56.0637 79.7515 55.9958 79.7642 55.9958 79.8152H56Z" fill="#FFEBB8"/>
<path d="M56 81.4924V82.0699C56 82.1039 56.017 82.1294 56.0467 82.1464L56.7983 82.5073C56.8365 82.5243 56.8705 82.4818 56.845 82.4479L56.0934 81.4627C56.0637 81.4245 56 81.4457 56 81.4924Z" fill="#FF7F00"/>
<rect x="13" y="62" width="37" height="13" rx="6.5" fill="#2F4553"/>
<path d="M27.8142 70H26.7822V67.318L26.1102 67.996L25.5222 67.378L26.9202 65.998H27.8142V70ZM28.9798 70.072C28.6738 70.072 28.4158 69.814 28.4158 69.508C28.4158 69.202 28.6738 68.944 28.9798 68.944C29.2858 68.944 29.5438 69.202 29.5438 69.508C29.5438 69.814 29.2858 70.072 28.9798 70.072ZM33.195 70H30.057V69.196C31.791 67.942 32.115 67.666 32.115 67.27C32.115 66.994 31.857 66.85 31.563 66.85C31.119 66.85 30.783 67.018 30.495 67.288L29.925 66.604C30.351 66.136 30.987 65.938 31.545 65.938C32.487 65.938 33.165 66.466 33.165 67.27C33.165 67.882 32.727 68.404 31.731 69.1H33.195V70ZM36.5455 70H35.5315L34.9735 69.124L34.4095 70H33.4015L34.3915 68.512L33.4615 67.102H34.4755L34.9735 67.888L35.4655 67.102H36.4795L35.5555 68.512L36.5455 70Z" fill="white"/>
<path d="M8.03 11H7.215L6.56 9.815H6.04V11H5.33V7.665H6.89C7.585 7.665 8.01 8.12 8.01 8.74C8.01 9.33 7.64 9.645 7.28 9.73L8.03 11ZM6.785 9.19C7.07 9.19 7.285 9.02 7.285 8.74C7.285 8.46 7.07 8.29 6.785 8.29H6.04V9.19H6.785ZM10.5152 11H9.88023V10.75C9.71523 10.945 9.43023 11.06 9.11523 11.06C8.73023 11.06 8.27523 10.8 8.27523 10.26C8.27523 9.695 8.73023 9.48 9.11523 9.48C9.43523 9.48 9.72023 9.585 9.88023 9.775V9.45C9.88023 9.205 9.67023 9.045 9.35023 9.045C9.09023 9.045 8.85023 9.14 8.64523 9.33L8.40523 8.905C8.70023 8.645 9.08023 8.525 9.46023 8.525C10.0102 8.525 10.5152 8.745 10.5152 9.44V11ZM9.37023 10.63C9.57523 10.63 9.77523 10.56 9.88023 10.42V10.12C9.77523 9.98 9.57523 9.91 9.37023 9.91C9.12023 9.91 8.91523 10.04 8.91523 10.275C8.91523 10.5 9.12023 10.63 9.37023 10.63ZM11.7801 11H11.1451V8.585H11.7801V8.915C11.9501 8.7 12.2501 8.525 12.5501 8.525V9.145C12.5051 9.135 12.4451 9.13 12.3751 9.13C12.1651 9.13 11.8851 9.25 11.7801 9.405V11ZM14.0818 11.06C13.3468 11.06 12.7918 10.565 12.7918 9.79C12.7918 9.09 13.3068 8.525 14.0418 8.525C14.7618 8.525 15.2518 9.065 15.2518 9.855V9.995H13.4568C13.4968 10.3 13.7418 10.555 14.1518 10.555C14.3568 10.555 14.6418 10.465 14.7968 10.315L15.0768 10.725C14.8368 10.945 14.4568 11.06 14.0818 11.06ZM14.6368 9.565C14.6218 9.335 14.4618 9.03 14.0418 9.03C13.6468 9.03 13.4768 9.325 13.4468 9.565H14.6368Z" fill="white"/>
<path d="M48.7132 11H48.2612L46.8692 9.096V11H46.4012V8.332H46.8812L48.2452 10.184V8.332H48.7132V11ZM50.1401 11.048C49.5281 11.048 49.1481 10.588 49.1481 10.032C49.1481 9.48 49.5281 9.02 50.1401 9.02C50.7601 9.02 51.1361 9.48 51.1361 10.032C51.1361 10.588 50.7601 11.048 50.1401 11.048ZM50.1401 10.676C50.5001 10.676 50.7001 10.376 50.7001 10.032C50.7001 9.692 50.5001 9.392 50.1401 9.392C49.7841 9.392 49.5841 9.692 49.5841 10.032C49.5841 10.376 49.7841 10.676 50.1401 10.676ZM51.7575 11.044C51.6055 11.044 51.4775 10.916 51.4775 10.764C51.4775 10.612 51.6055 10.484 51.7575 10.484C51.9095 10.484 52.0375 10.612 52.0375 10.764C52.0375 10.916 51.9095 11.044 51.7575 11.044ZM54.5413 11.048C53.7573 11.048 53.4413 10.412 53.4413 9.672C53.4413 8.9 53.8453 8.292 54.6173 8.292C54.9493 8.292 55.2053 8.412 55.3853 8.588L55.1653 8.944C55.0253 8.796 54.8733 8.708 54.6173 8.708C54.1733 8.708 53.9133 9.12 53.9133 9.588C53.9133 9.616 53.9133 9.64 53.9173 9.664C54.0373 9.484 54.3173 9.292 54.6333 9.292C55.1133 9.292 55.5253 9.584 55.5253 10.152C55.5253 10.648 55.1373 11.048 54.5413 11.048ZM54.5173 10.632C54.8693 10.632 55.0533 10.384 55.0533 10.168C55.0533 9.84 54.7973 9.692 54.5053 9.692C54.2773 9.692 54.0573 9.816 53.9213 10.008C53.9493 10.296 54.1053 10.632 54.5173 10.632ZM57.5317 11H57.0637V10.396H55.7917V10.02L56.8877 8.332H57.5317V9.984H57.8877V10.396H57.5317V11ZM57.0637 9.984V8.752L56.2517 9.984H57.0637Z" fill="white"/>
<defs>
<clipPath id="clip0_26835_29227">
<rect width="63" height="88" fill="white"/>
</clipPath>
</defs>
</svg>
