<svg width="63" height="88" viewBox="0 0 63 88" fill="none" xmlns="http://www.w3.org/2000/svg">
<rect width="63" height="88" rx="4" fill="#FF003F"/>
<path d="M36.7008 13.5133L44.7992 3.48665C45.5586 2.54645 46.7024 2 47.911 2H58C59.6569 2 61 3.34314 61 5V83C61 84.6569 59.6569 86 58 86H5C3.34315 86 2 84.6569 2 83V18C2 16.3431 3.34315 15 5 15H33.589C34.7976 15 35.9414 14.4536 36.7008 13.5133Z" fill="#213743"/>
<rect x="5" y="18" width="53" height="40" rx="1" fill="#2F4553"/>
<g clip-path="url(#clip0_26835_29228)">
<path d="M57 18H6C5.44772 18 5 18.4477 5 19V57C5 57.5523 5.44772 58 6 58H57C57.5523 58 58 57.5523 58 57V19C58 18.4477 57.5523 18 57 18Z" fill="#FFC200"/>
<path d="M57 18H6C5.45 18 5 18.45 5 19V39.02L58 27.29V18.99C58 18.44 57.55 17.99 57 17.99V18Z" fill="#FF7F00"/>
<path d="M29.88 53.0498C29.41 53.0498 28.99 53.4698 28.65 53.9598C28.95 55.1898 29.17 56.5698 29.17 57.9998H33.13C33.13 57.9998 33.2 56.2498 33.77 54.1198C32.05 54.1698 30.76 53.0498 29.88 53.0498Z" fill="white"/>
<path d="M26.5801 48.7199C26.5801 48.7199 27.9001 50.8999 28.6501 53.9599C28.9801 53.4799 29.4101 53.0499 29.8801 53.0499C30.7601 53.0499 32.0501 54.1699 33.7701 54.1199C34.2801 52.1999 35.1901 49.9799 36.8101 48.4299L26.5901 48.7099L26.5801 48.7199Z" fill="#1A2C38"/>
<path d="M21.3201 36.95C21.3201 41.58 23.4301 51 31.6801 51C39.9301 51 42.0401 41.58 42.0401 36.95H21.3201Z" fill="white"/>
<path d="M21.3201 36.45C21.3201 40.32 23.4301 48.2099 31.6801 48.2099C39.9301 48.2099 42.0401 40.32 42.0401 36.45H21.3201Z" fill="#45A7FF"/>
<path d="M38.9401 39.46C38.9401 39.46 35.9901 39.46 35.6401 43.37C35.3501 46.67 27.8001 47.47 24.7201 43.09C24.7201 43.09 26.0901 48.32 32.3701 47.75C38.6501 47.18 40.8301 39.74 40.8301 39.74L38.9301 39.46H38.9401Z" fill="#047BFF"/>
<path d="M28.4742 46.8125C29.2855 46.1468 28.7758 44.1847 27.336 42.4299C25.8961 40.6752 24.0713 39.7922 23.2601 40.4579C22.4489 41.1235 22.9585 43.0856 24.3983 44.8404C25.8382 46.5952 27.663 47.4781 28.4742 46.8125Z" fill="#55DFFF"/>
<path d="M10.28 24.4199C10.28 29.7999 14.79 40.7499 32.38 40.7499C49.97 40.7499 54.48 29.7899 54.48 24.4199H10.28Z" fill="#047BFF"/>
<path d="M10.28 24.4199C10.28 28.3799 14.79 36.4499 32.38 36.4499C49.97 36.4499 54.48 28.3799 54.48 24.4199H10.28Z" fill="#55DFFF"/>
<path d="M32.38 34.1599C44.5855 34.1599 54.48 29.7992 54.48 24.4199C54.48 19.0407 44.5855 14.6799 32.38 14.6799C20.1745 14.6799 10.28 19.0407 10.28 24.4199C10.28 29.7992 20.1745 34.1599 32.38 34.1599Z" fill="white"/>
<path d="M52.63 27.7398C52.17 32.4698 39.83 36.2998 28.26 35.1798C16.69 34.0598 9.82003 28.9298 10.28 24.1998C10.74 19.4698 20.94 16.0298 32.51 17.1498C44.08 18.2698 53.09 23.0098 52.63 27.7498V27.7398Z" fill="#55DFFF"/>
<path d="M42.7134 35.9805C45.9928 35.1623 48.4812 33.8169 48.2712 32.9756C48.0613 32.1343 45.2327 32.1157 41.9532 32.9339C38.6738 33.7522 36.1854 35.0975 36.3953 35.9388C36.6053 36.7801 39.4339 36.7988 42.7134 35.9805Z" fill="white"/>
<path d="M32.3801 33.0298C44.0057 33.0298 53.4301 29.175 53.4301 24.4198C53.4301 19.6646 44.0057 15.8098 32.3801 15.8098C20.7545 15.8098 11.3301 19.6646 11.3301 24.4198C11.3301 29.175 20.7545 33.0298 32.3801 33.0298Z" fill="#047BFF"/>
<path d="M44.5013 28.663C44.5355 26.0509 38.4883 23.8539 30.9944 23.7558C23.5006 23.6577 17.3979 25.6957 17.3637 28.3078C17.3295 30.9198 23.3767 33.1169 30.8706 33.215C38.3645 33.3131 44.4672 31.2751 44.5013 28.663Z" fill="#1A2C38"/>
<path d="M46.3401 39.46L11.4201 16.96C10.3301 17.26 10.2201 18.19 11.2301 19.72L45.1801 42.14C45.4301 42.3 45.7501 42.33 46.0101 42.19C46.9601 41.69 47.4501 39.99 46.3501 39.46H46.3401Z" fill="#1A2C38"/>
<path d="M11.4201 16.9598L6.97005 14.0898C6.52005 13.7998 5.92005 13.8798 5.58005 14.2998C5.35005 14.5898 5.26005 14.8998 5.25005 15.1598C5.22005 15.5198 5.41005 15.8598 5.71005 16.0598L11.2301 19.7098C11.1401 18.6198 11.2501 17.6798 11.4201 16.9498V16.9598Z" fill="#55DFFF"/>
<path d="M17.3901 27.04C17.3901 27.04 13.8101 22.94 15.7401 16.63C15.7401 16.63 19.5601 17.93 20.5901 24.28C20.5901 24.28 22.4101 17.59 25.6501 15.48C25.6501 15.48 27.6001 21.04 24.3301 25.97C24.3301 25.97 28.9801 21.32 32.3701 21.6C32.3701 21.6 30.3001 27.73 26.2401 29.17L22.8801 31.75C22.8801 31.75 25.5801 34.83 20.9001 34.23C20.9001 34.23 17.3701 33.41 18.5701 30.91C18.5701 30.91 13.3601 30.39 11.3201 26.84C11.3201 26.84 13.2701 24.17 17.3801 27.03L17.3901 27.04Z" fill="white"/>
<path d="M23.1401 30.4698C23.1401 30.4698 24.0201 29.5598 26.2501 29.1798C28.4801 28.7998 32.1601 31.5698 32.1601 31.5698C32.1601 31.5698 27.8301 33.8298 22.4801 31.5698L23.3601 30.8598L23.1401 30.4698Z" fill="#FFC200"/>
<path d="M19.9101 30.7499C19.9101 30.7499 20.8301 30.8399 21.4401 31.1499C21.4401 31.1499 23.0701 30.6599 22.8501 29.2399C22.6301 27.8199 18.9401 28.1799 18.9401 28.1799L19.3601 29.2399L18.8201 29.1399C18.8201 29.1399 19.7101 30.0799 19.9001 30.7499H19.9101Z" fill="#008C00"/>
<path d="M20.1901 29.9999L20.4401 27.7999C20.4401 27.7999 20.7501 25.5399 20.1901 25.2099C20.1901 25.2099 20.9001 24.8499 21.0101 25.7599C21.1201 26.6699 20.6801 27.9399 20.6801 27.9399C20.6801 27.9399 22.7201 25.1799 23.9901 25.8999C25.2601 26.6199 22.3101 25.7099 21.5201 27.7699C21.5201 27.7699 22.9601 26.8899 24.0801 27.0599C25.2001 27.2299 24.5201 27.7999 24.5201 27.7999C24.5201 27.7999 23.6701 27.1299 22.8701 27.9399C22.8701 27.9399 24.3201 28.2099 23.9401 28.8199C23.9401 28.8199 22.5701 27.9899 21.8501 28.7099C21.1301 29.4299 21.0501 30.0799 21.0501 30.0799H20.6901L20.8401 29.3699L20.5001 30.0799L20.1901 29.9999Z" fill="#FFC200"/>
<path d="M42.58 20.92C42.24 20.77 42.1 20.36 42.28 20.03C43.11 18.55 45.33 14.92 46.96 15.21C49 15.58 44.91 21.94 44.91 21.94L42.58 20.93V20.92Z" fill="white"/>
<path d="M46.35 16.2L47.38 15.47C47.38 15.47 52.3 18.14 52.65 19.13C53 20.12 52.05 21.94 52.05 21.94C52.05 21.94 47.79 22.77 44.9 21.94L46.35 16.21V16.2Z" fill="white"/>
<path d="M42.63 20.37C42.63 20.37 45.46 15.9 46.42 15.68C47.38 15.46 44.52 19.31 44.52 19.31L42.62 20.37H42.63Z" fill="#55DFFF"/>
<path d="M27.3201 18.3699L28.7601 20.7299C28.7601 20.7299 37.7701 21.5899 40.5601 20.7299L43.4601 18.3699L39.4901 12.8999L27.3201 18.3699Z" fill="white"/>
<path d="M27.9601 14.7099L27.3201 18.3699C27.3201 18.3699 36.3101 18.6699 37.8101 17.9599C39.3101 17.2499 39.4901 12.8999 39.4901 12.8999L29.2801 13.5299C28.6201 13.5699 28.0701 14.0599 27.9501 14.7199L27.9601 14.7099Z" fill="#047BFF"/>
<path d="M33.08 17.3199C32.46 17.1699 37.61 13.8999 38.17 14.4599C38.73 15.0199 38.62 18.6399 33.08 17.3199Z" fill="#55DFFF"/>
<path d="M33.889 17.2772C35.5554 16.9957 36.8384 16.3657 36.7547 15.8701C36.671 15.3746 35.2522 15.2011 33.5858 15.4826C31.9195 15.7642 30.6365 16.3942 30.7202 16.8897C30.8039 17.3853 32.2227 17.5588 33.889 17.2772Z" fill="white"/>
<path d="M41.3501 23.6699C41.3501 23.6699 44.7201 24.5199 44.8601 25.0199C45.0001 25.5199 39.4901 28.8199 39.4901 28.8199L41.3601 23.6699H41.3501Z" fill="#45A7FF"/>
<path d="M41.8601 22.7898C41.8601 22.7898 45.5801 24.2998 44.8601 25.0198C44.1401 25.7398 41.0601 25.0198 41.0601 25.0198L41.8501 22.7898H41.8601Z" fill="white"/>
<path d="M35.92 26.1498L32.76 28.4898C32.76 28.4898 38.53 29.1498 39.49 28.8198C40.45 28.4898 41.78 23.3398 41.78 23.3398L35.92 26.1498Z" fill="white"/>
<path d="M32.76 28.4899C32.27 27.9999 34.22 23.9199 35.12 23.4499C36.02 22.9799 41.29 22.2199 41.86 22.7899C42.43 23.3599 38.39 27.3099 38.39 27.3099L32.77 28.4899H32.76Z" fill="#55DFFF"/>
<path d="M46.6 41.22C46.33 41.69 45.81 42.07 45.63 41.97C45.45 41.87 45.53 41.4 45.81 40.92C46.09 40.44 46.45 40.14 46.63 40.25C46.81 40.36 46.88 40.75 46.61 41.22H46.6Z" fill="#55DFFF"/>
</g>
<path fill-rule="evenodd" clip-rule="evenodd" d="M6.49771 79C6.98969 79 7.48602 79.213 7.49037 79.6913C7.49037 80.1043 7.24656 80.2696 6.99839 80.2696C6.75023 80.2696 6.73281 80.1435 6.73281 80.1435C6.73281 80.1435 7.02452 79.9261 7.02452 79.7174C7.02452 79.6087 6.94179 79.313 6.489 79.3174C5.8577 79.3174 5.5181 79.6174 5.5181 80.1522C5.5181 80.7652 7.35105 80.9739 7.3554 81.7652C7.3554 82.613 6.47594 82.9957 5.69225 83C5.283 83 5.01306 82.7609 5.00871 82.3783C5.00871 81.9261 5.22204 81.4652 5.75756 81.4652C5.88382 81.4565 5.98831 81.5522 5.99702 81.6783C5.99702 81.6783 5.99702 81.6826 5.99702 81.687C5.99702 81.687 5.45715 81.8391 5.4615 82.3783C5.4615 82.4783 5.56599 82.6609 5.81851 82.6565C6.07103 82.6522 6.82424 82.4739 6.81989 81.8087C6.81989 81.1913 5.00435 81.1087 5 80.1478C5 79.0652 6.08845 79.0087 6.49771 79.0087V79ZM10.747 79.6C10.8123 79.5696 11.2129 79.4913 11.1955 79.813C11.1824 80.1348 10.9386 80.6913 10.9037 80.9348C11.2303 80.7696 11.6918 80.2087 11.6918 80.2087C11.6918 80.2087 12.0183 80.2522 11.9182 80.4522C11.818 80.6522 11.1519 81.1435 11.1519 81.1435C11.1519 81.1435 11.3043 82.5696 12.1707 82.5696C12.6453 82.5696 12.8499 82.3609 12.937 82.287C12.9587 82.2696 12.9762 82.2652 12.9849 82.2783C13.0197 82.387 12.9936 82.5043 12.9152 82.5913C12.8194 82.6957 12.5974 82.8217 12.1533 82.8261C11.3653 82.8261 10.9255 82.1957 10.8123 81.2609C10.7252 81.5348 10.7339 81.9826 10.7209 82.2C10.6948 82.2435 10.2507 82.4174 10.2158 82.1174C10.2158 82.0913 10.2158 82.0696 10.2158 82.0435C10.1331 82.1609 10.0199 82.2826 9.91108 82.2826C9.71951 82.2826 9.63679 82.1217 9.60196 82.0391C9.57584 82.0696 9.3625 82.287 9.08821 82.287C8.92277 82.2913 8.77474 82.1957 8.70943 82.0435C8.57011 82.1435 8.32195 82.2913 8.03895 82.2913C7.73418 82.2913 7.66017 82.1087 7.66017 81.9565C7.66017 81.713 7.84303 80.987 7.84303 80.987C7.84303 80.987 7.48602 81.1304 7.36411 81.1348C7.19431 81.1348 7.11159 80.8217 7.11159 80.813C7.11159 80.8087 7.11159 80.8 7.1203 80.8C7.22044 80.7609 7.94317 80.513 7.94317 80.513C7.94317 80.513 8.07813 79.9826 8.09555 79.913C8.11296 79.8435 8.2131 79.7 8.33065 79.6565C8.41773 79.6217 8.50916 79.6 8.60059 79.5913C8.63107 79.5913 8.65284 79.6 8.65284 79.6174C8.65284 79.6348 8.47433 80.4087 8.47433 80.4087C8.47433 80.4087 8.84876 80.3217 8.98808 80.3217C9.09692 80.3217 9.15352 80.387 9.09257 80.4696C9.03162 80.5522 8.96196 80.6478 8.92712 80.6913C8.88794 80.7348 8.86182 80.7435 8.77039 80.7609C8.64413 80.787 8.36113 80.8565 8.36113 80.8565C8.36113 80.8565 8.13473 81.6783 8.13909 81.8174C8.13909 81.8957 8.16521 81.987 8.26099 81.987C8.35678 81.987 8.53964 81.8739 8.67025 81.7913C8.69202 81.1522 9.18835 80.7261 9.57584 80.7261C9.7021 80.7261 9.65421 80.8478 9.79788 80.8478H9.88931C9.94591 80.8478 10.0069 80.8522 10.0069 80.9957C10.0069 81.1957 9.89367 81.5261 9.89367 81.7348C9.89367 81.8826 9.91544 81.987 9.97204 81.987C10.0678 81.987 10.1767 81.8478 10.255 81.7261C10.3813 81.0304 10.734 79.7609 10.734 79.6174L10.747 79.6ZM12.5016 80.7C12.7672 80.6783 12.9326 80.8217 12.9631 80.9C12.9936 80.9783 12.9892 81.1609 12.9152 81.2913C12.6845 81.7044 12.1097 81.6304 12.1097 81.6304C12.1097 81.6304 12.0444 81.9565 12.3405 81.9565C12.593 81.9565 12.7062 81.8304 12.8151 81.7261C12.8586 81.7261 12.9936 81.8652 12.9326 81.9609C12.8847 82.0348 12.6191 82.2565 12.2795 82.2609C11.7397 82.2609 11.6047 81.8 11.6744 81.4696C11.7658 81.0609 12.1751 80.7217 12.5016 80.6957V80.7ZM9.6455 80.987C9.32332 80.987 8.82699 81.9696 9.20577 81.9652C9.61938 81.9652 9.6455 81.1826 9.6455 81.0043V80.987ZM12.6409 80.8913C12.4232 80.9 12.1751 81.3174 12.1533 81.5C12.4798 81.513 12.654 81.1957 12.6757 81.0696C12.6888 80.9739 12.6932 80.887 12.6409 80.887V80.8913Z" fill="#557086"/>
<path d="M56.1444 79.3778L56.6412 80.278L57.6518 80.4733C57.7792 80.4988 57.8302 80.6559 57.741 80.7494L57.0361 81.5009L57.1635 82.5243C57.1805 82.6559 57.0446 82.7494 56.93 82.6942L56 82.2568L55.0701 82.6942C54.9512 82.7494 54.8196 82.6517 54.8366 82.5243L54.9639 81.5009L54.2591 80.7494C54.1699 80.6559 54.2208 80.4988 54.3482 80.4733L55.3588 80.278L55.8557 79.3778C55.9194 79.2632 56.085 79.2632 56.1444 79.3778Z" fill="#FFC200"/>
<path d="M56 79.2929C56.0552 79.2929 56.1147 79.3226 56.1444 79.3778L56.6412 80.278L57.6518 80.4733C57.7792 80.4988 57.8302 80.6559 57.741 80.7494L57.0361 81.5009L57.1635 82.5243C57.1763 82.6262 57.0955 82.7111 56.9979 82.7111C56.9766 82.7111 56.9512 82.7069 56.9257 82.6942L55.9957 82.2568L55.0658 82.6942C55.0403 82.7069 55.0191 82.7111 54.9936 82.7111C54.9002 82.7111 54.8153 82.6262 54.828 82.5243L54.9554 81.5009L54.2505 80.7494C54.1613 80.6559 54.2123 80.4988 54.3397 80.4733L55.3503 80.278L55.8471 79.3778C55.8768 79.3226 55.9363 79.2929 55.9915 79.2929M56 79.0806C55.8641 79.0806 55.7367 79.157 55.6688 79.2759L55.2187 80.0912L54.3057 80.2653C54.1698 80.2908 54.0594 80.3884 54.017 80.5201C53.9745 80.6517 54.0085 80.7961 54.1019 80.8937L54.7388 81.5731L54.6242 82.4946C54.6115 82.6007 54.6454 82.7111 54.7134 82.7918C54.7856 82.8725 54.8875 82.9192 54.9979 82.9192C55.0531 82.9192 55.1083 82.9065 55.1592 82.881L56 82.4861L56.8408 82.881C56.8917 82.9065 56.9469 82.9192 57.0021 82.9192C57.1125 82.9192 57.2144 82.8725 57.2866 82.7918C57.3588 82.7111 57.3928 82.6007 57.3758 82.4946L57.2611 81.5731L57.8981 80.8937C57.9915 80.7918 58.0255 80.6474 57.983 80.5201C57.9405 80.3884 57.8301 80.2908 57.6943 80.2653L56.7813 80.0912L56.3312 79.2759C56.2633 79.157 56.1359 79.0806 56 79.0806Z" fill="#213743"/>
<path d="M56 79.8152V80.9744C56 81.0678 56.0892 81.1315 56.1784 81.106L57.2187 80.7706C57.2739 80.7536 57.2697 80.6729 57.2102 80.6602L56.5563 80.5413C56.4969 80.5286 56.4417 80.4903 56.4119 80.4351L56.085 79.7939C56.0637 79.7515 55.9958 79.7642 55.9958 79.8152H56Z" fill="#FFEBB8"/>
<path d="M56 81.4924V82.0699C56 82.1039 56.017 82.1294 56.0467 82.1464L56.7983 82.5073C56.8365 82.5243 56.8705 82.4818 56.845 82.4479L56.0934 81.4627C56.0637 81.4245 56 81.4457 56 81.4924Z" fill="#FF7F00"/>
<rect x="13" y="62" width="37" height="13" rx="6.5" fill="#2F4553"/>
<path d="M27.8142 70H26.7822V67.318L26.1102 67.996L25.5222 67.378L26.9202 65.998H27.8142V70ZM28.9798 70.072C28.6738 70.072 28.4158 69.814 28.4158 69.508C28.4158 69.202 28.6738 68.944 28.9798 68.944C29.2858 68.944 29.5438 69.202 29.5438 69.508C29.5438 69.814 29.2858 70.072 28.9798 70.072ZM33.195 70H30.057V69.196C31.791 67.942 32.115 67.666 32.115 67.27C32.115 66.994 31.857 66.85 31.563 66.85C31.119 66.85 30.783 67.018 30.495 67.288L29.925 66.604C30.351 66.136 30.987 65.938 31.545 65.938C32.487 65.938 33.165 66.466 33.165 67.27C33.165 67.882 32.727 68.404 31.731 69.1H33.195V70ZM36.5455 70H35.5315L34.9735 69.124L34.4095 70H33.4015L34.3915 68.512L33.4615 67.102H34.4755L34.9735 67.888L35.4655 67.102H36.4795L35.5555 68.512L36.5455 70Z" fill="white"/>
<path d="M8.03 11H7.215L6.56 9.815H6.04V11H5.33V7.665H6.89C7.585 7.665 8.01 8.12 8.01 8.74C8.01 9.33 7.64 9.645 7.28 9.73L8.03 11ZM6.785 9.19C7.07 9.19 7.285 9.02 7.285 8.74C7.285 8.46 7.07 8.29 6.785 8.29H6.04V9.19H6.785ZM10.5152 11H9.88023V10.75C9.71523 10.945 9.43023 11.06 9.11523 11.06C8.73023 11.06 8.27523 10.8 8.27523 10.26C8.27523 9.695 8.73023 9.48 9.11523 9.48C9.43523 9.48 9.72023 9.585 9.88023 9.775V9.45C9.88023 9.205 9.67023 9.045 9.35023 9.045C9.09023 9.045 8.85023 9.14 8.64523 9.33L8.40523 8.905C8.70023 8.645 9.08023 8.525 9.46023 8.525C10.0102 8.525 10.5152 8.745 10.5152 9.44V11ZM9.37023 10.63C9.57523 10.63 9.77523 10.56 9.88023 10.42V10.12C9.77523 9.98 9.57523 9.91 9.37023 9.91C9.12023 9.91 8.91523 10.04 8.91523 10.275C8.91523 10.5 9.12023 10.63 9.37023 10.63ZM11.7801 11H11.1451V8.585H11.7801V8.915C11.9501 8.7 12.2501 8.525 12.5501 8.525V9.145C12.5051 9.135 12.4451 9.13 12.3751 9.13C12.1651 9.13 11.8851 9.25 11.7801 9.405V11ZM14.0818 11.06C13.3468 11.06 12.7918 10.565 12.7918 9.79C12.7918 9.09 13.3068 8.525 14.0418 8.525C14.7618 8.525 15.2518 9.065 15.2518 9.855V9.995H13.4568C13.4968 10.3 13.7418 10.555 14.1518 10.555C14.3568 10.555 14.6418 10.465 14.7968 10.315L15.0768 10.725C14.8368 10.945 14.4568 11.06 14.0818 11.06ZM14.6368 9.565C14.6218 9.335 14.4618 9.03 14.0418 9.03C13.6468 9.03 13.4768 9.325 13.4468 9.565H14.6368Z" fill="white"/>
<path d="M48.6351 11H48.1831L46.7911 9.096V11H46.3231V8.332H46.8031L48.1671 10.184V8.332H48.6351V11ZM50.062 11.048C49.45 11.048 49.07 10.588 49.07 10.032C49.07 9.48 49.45 9.02 50.062 9.02C50.682 9.02 51.058 9.48 51.058 10.032C51.058 10.588 50.682 11.048 50.062 11.048ZM50.062 10.676C50.422 10.676 50.622 10.376 50.622 10.032C50.622 9.692 50.422 9.392 50.062 9.392C49.706 9.392 49.506 9.692 49.506 10.032C49.506 10.376 49.706 10.676 50.062 10.676ZM51.6794 11.044C51.5274 11.044 51.3994 10.916 51.3994 10.764C51.3994 10.612 51.5274 10.484 51.6794 10.484C51.8314 10.484 51.9594 10.612 51.9594 10.764C51.9594 10.916 51.8314 11.044 51.6794 11.044ZM54.4632 11.048C53.6792 11.048 53.3632 10.412 53.3632 9.672C53.3632 8.9 53.7672 8.292 54.5392 8.292C54.8712 8.292 55.1272 8.412 55.3072 8.588L55.0872 8.944C54.9472 8.796 54.7952 8.708 54.5392 8.708C54.0952 8.708 53.8352 9.12 53.8352 9.588C53.8352 9.616 53.8352 9.64 53.8392 9.664C53.9592 9.484 54.2392 9.292 54.5552 9.292C55.0352 9.292 55.4472 9.584 55.4472 10.152C55.4472 10.648 55.0592 11.048 54.4632 11.048ZM54.4392 10.632C54.7912 10.632 54.9752 10.384 54.9752 10.168C54.9752 9.84 54.7192 9.692 54.4272 9.692C54.1992 9.692 53.9792 9.816 53.8432 10.008C53.8712 10.296 54.0272 10.632 54.4392 10.632ZM56.8176 11.048C56.3576 11.048 56.0416 10.892 55.8256 10.636L56.0936 10.316C56.2736 10.52 56.5136 10.632 56.8136 10.632C57.1496 10.632 57.3616 10.424 57.3616 10.164C57.3616 9.876 57.1536 9.688 56.8256 9.688C56.5976 9.688 56.4096 9.76 56.2416 9.92L55.9096 9.824V8.332H57.6576V8.744H56.3776V9.516C56.5056 9.388 56.7256 9.284 56.9816 9.284C57.4296 9.284 57.8336 9.6 57.8336 10.144C57.8336 10.7 57.4136 11.048 56.8176 11.048Z" fill="white"/>
<defs>
<clipPath id="clip0_26835_29228">
<rect width="63" height="88" fill="white"/>
</clipPath>
</defs>
</svg>
