<svg width="63" height="88" viewBox="0 0 63 88" fill="none" xmlns="http://www.w3.org/2000/svg">
<rect width="63" height="88" rx="4" fill="#FF003F"/>
<path d="M36.7008 13.5133L44.7992 3.48665C45.5586 2.54645 46.7024 2 47.911 2H58C59.6569 2 61 3.34314 61 5V83C61 84.6569 59.6569 86 58 86H5C3.34315 86 2 84.6569 2 83V18C2 16.3431 3.34315 15 5 15H33.589C34.7976 15 35.9414 14.4536 36.7008 13.5133Z" fill="#213743"/>
<rect x="5" y="18" width="53" height="40" rx="1" fill="#2F4553"/>
<g clip-path="url(#clip0_26835_29229)">
<path d="M57 18H6C5.44772 18 5 18.4477 5 19V57C5 57.5523 5.44772 58 6 58H57C57.5523 58 58 57.5523 58 57V19C58 18.4477 57.5523 18 57 18Z" fill="#047BFF"/>
<path d="M58 42.27V19C58 18.45 57.55 18 57 18H6C5.45 18 5 18.45 5 19V26.44C12.69 32.73 31.51 45.09 58 42.27Z" fill="#45A7FF"/>
<path d="M48.9133 44.7539C51.2904 36.8757 44.2376 27.7796 33.1605 24.4374C22.0834 21.0951 11.1766 24.7722 8.79951 32.6505C6.42243 40.5287 13.4752 49.6247 24.5523 52.967C35.6294 56.3093 46.5362 52.6321 48.9133 44.7539Z" fill="#1A2C38"/>
<path d="M16.44 47.5801C16.44 47.5801 16.5 53.5101 10.75 53.2001L16.11 55.9601C16.11 55.9601 19.84 54.7001 21.08 53.4501C21.08 53.4501 19.39 56.0901 17.39 56.7001L20.48 57.8501C20.48 57.8501 23.74 56.5801 25.75 54.5601L22.55 58.0701H27.5L31.07 53.3601L16.44 47.5801Z" fill="#1A2C38"/>
<path d="M37.78 18C37.48 18.84 37.16 19.63 36.83 20.29L37.22 20.48C37.57 19.76 37.92 18.9 38.24 18H37.78Z" fill="#E9113C"/>
<path d="M37.8686 19.9959C37.8932 19.7375 37.3383 19.4732 36.6291 19.4055C35.9198 19.3379 35.3249 19.4925 35.3003 19.7509C35.2756 20.0093 35.8306 20.2736 36.5398 20.3413C37.249 20.4089 37.8439 20.2543 37.8686 19.9959Z" fill="#E9627D"/>
<path d="M37.7997 20.6802C37.8244 20.4218 37.2694 20.1575 36.5602 20.0898C35.851 20.0222 35.2561 20.1768 35.2314 20.4352C35.2068 20.6936 35.7617 20.9579 36.4709 21.0256C37.1802 21.0933 37.7751 20.9386 37.7997 20.6802Z" fill="#E9113C"/>
<path d="M43.3099 25.0867C43.648 23.891 40.5747 21.975 36.4453 20.8073C32.316 19.6396 28.6944 19.6623 28.3563 20.8581C28.0181 22.0538 31.0915 23.9698 35.2208 25.1375C39.3501 26.3052 42.9717 26.2825 43.3099 25.0867Z" fill="#FFC200"/>
<path d="M51.44 41.65C48.94 50.4 38.9 50.93 28.38 47.92C17.86 44.91 9.67997 39.36 12.18 30.62C14.68 21.88 25.28 18.98 35.8 21.99C46.32 25 53.94 32.91 51.43 41.65H51.44Z" fill="#E9113C"/>
<path d="M32.28 45.7901C31.72 47.3001 27.67 47.2001 23.21 45.5601C18.75 43.9201 15.6 41.3701 16.15 39.8601C16.7 38.3501 20.9 38.0701 25.36 39.7101C29.82 41.3501 32.83 44.2801 32.28 45.7901Z" fill="#1A2C38"/>
<path d="M49.83 41.02C47.4 45.8 40.87 44.74 34.05 41.29C27.23 37.83 22.71 33.29 25.14 28.5C27.57 23.71 35.06 22.64 41.88 26.1C48.7 29.56 52.26 36.24 49.83 41.02Z" fill="#E9627D"/>
<path d="M40.65 41.46C36.82 48.06 31.14 48.53 31.08 48.53L31.14 49.39C31.42 49.37 37.44 48.9 41.47 41.79C41.19 41.68 40.93 41.57 40.66 41.46H40.65Z" fill="#FF7F00"/>
<path d="M20.53 32.8101C18.91 42.9601 24.87 47.2701 25.13 47.4501L25.63 46.7401C25.57 46.7001 19.86 42.5401 21.39 32.9501C21.58 31.7701 21.85 30.7 22.18 29.72C21.94 29.49 21.71 29.27 21.49 29.05C21.09 30.18 20.76 31.43 20.54 32.82L20.53 32.8101Z" fill="#FF7F00"/>
<path d="M28.24 47.9501L29.09 48.1101C29.91 43.8001 30.76 40.0601 31.58 36.8501C31.32 36.6901 31.06 36.5301 30.81 36.3701C29.96 39.6601 29.08 43.5001 28.24 47.9501Z" fill="#FF7F00"/>
<path d="M19.2199 61.1301L18.9399 60.3101C18.9399 60.3101 21.5099 59.3601 25.0699 54.5601L25.7699 55.0801C22.0199 60.1401 19.3399 61.1001 19.2299 61.1301H19.2199Z" fill="#E9113C"/>
<path d="M17.88 61.08C17.88 61.08 12.04 62.16 9.21002 57.01L8.84002 60.84L10.08 61.69L8.77002 61.57L8.71002 62.15C8.71002 62.15 14.71 66.34 18.66 61.9L17.87 61.07L17.88 61.08Z" fill="#FF7F00"/>
<path d="M17.46 61.19L18.24 62.34C18.35 62.51 18.58 62.55 18.75 62.43L19.9 61.63L19.68 61.3L20.13 60.97L19.39 59.89L19.02 60.14L18.81 59.79L17.56 60.67C17.4 60.78 17.36 61 17.47 61.17L17.46 61.19Z" fill="#FFC200"/>
<mask id="mask0_26835_29229" style="mask-type:luminance" maskUnits="userSpaceOnUse" x="11" y="20" width="41" height="30">
<path d="M51.44 41.65C48.94 50.4 38.9 50.93 28.38 47.92C17.86 44.91 9.67997 39.36 12.18 30.62C14.68 21.88 25.28 18.98 35.8 21.99C46.32 25 53.94 32.91 51.43 41.65H51.44Z" fill="white"/>
</mask>
<g mask="url(#mask0_26835_29229)">
<path d="M21.88 45.9001C17.08 42.8601 14.1 38.8901 13.63 34.7001C12.83 27.4701 18.84 21.3501 19.1 21.0901L19.71 21.7001C19.65 21.7601 13.73 27.7901 14.49 34.6001C14.93 38.5101 17.77 42.2701 22.34 45.1601L21.88 45.8901V45.9001Z" fill="#FF7F00"/>
<path d="M34.31 51.1401L34.14 50.2901C41.47 48.8201 46.36 45.8301 48.68 41.4101C51.88 35.3101 49 28.4801 48.97 28.4201L49.76 28.0801C49.89 28.3701 52.83 35.3401 49.44 41.8101C46.99 46.4801 41.9 49.6201 34.3 51.1501L34.31 51.1401Z" fill="#E9627D"/>
<path d="M42.67 39.2901C46.55 29.8201 42.34 23.1301 42.16 22.8501L41.43 23.3201C41.43 23.3201 42.49 24.9801 43.06 27.7201C43.59 30.2401 43.81 34.2401 41.87 38.9601C41.49 39.8801 41.08 40.7001 40.65 41.4601C40.92 41.5701 41.19 41.6801 41.46 41.7901C41.89 41.0301 42.3 40.2001 42.67 39.2901Z" fill="#FFC200"/>
<path d="M29.97 20.4301L29.65 19.6201C29.39 19.7201 24 21.9301 21.48 29.0401C21.7 29.2601 21.93 29.4801 22.17 29.7101C24.52 22.6601 29.9 20.4501 29.96 20.4301H29.97Z" fill="#FFC200"/>
<path d="M36.0901 20.8201C36.0601 20.8801 33.5801 25.6301 30.8101 36.3701C31.0601 36.5301 31.3201 36.6901 31.5801 36.8501C34.3501 26.0401 36.8301 21.2801 36.8601 21.2201L36.1001 20.8101L36.0901 20.8201Z" fill="#FFC200"/>
</g>
<path d="M49.1498 37.6883C50.3652 37.1879 50.6022 34.9647 49.679 32.7228C48.7559 30.4809 47.0222 29.0692 45.8068 29.5697C44.5914 30.0701 44.3544 32.2933 45.2776 34.5352C46.2007 36.7771 47.9343 38.1888 49.1498 37.6883Z" fill="white"/>
<path d="M35.1812 51.3904C35.2945 51.015 32.2273 49.7575 28.3305 48.5817C24.4337 47.4059 21.1829 46.7571 21.0696 47.1325C20.9563 47.5079 24.0235 48.7654 27.9203 49.9412C31.8171 51.117 35.068 51.7658 35.1812 51.3904Z" fill="#FFC200"/>
<path d="M13.75 50.2301C13.75 50.2301 18.97 51.7801 21.73 47.3701C21.73 47.3701 30.41 49.3301 34.52 51.3301C34.52 51.3301 33.88 56.3801 30.69 59.0201C30.69 59.0201 26.98 57.9901 25.59 57.1201C25.59 57.1201 27.41 55.7301 28.42 53.5501C28.42 53.5501 25.94 56.0501 24.43 56.4201L21.23 55.1601C21.23 55.1601 23.96 53.9201 24.95 52.4801C24.95 52.4801 21.88 54.3701 20.09 54.5301C20.09 54.5301 15.33 51.7101 13.75 50.2101V50.2301Z" fill="#FF7F00"/>
<path d="M15.46 50.8999C15.46 50.8999 19.93 51.6999 22.12 48.1799C22.12 48.1799 24.39 48.3799 26.71 49.2099C26.71 49.2099 22.98 52.4799 17.71 52.1799L15.46 50.8999Z" fill="#FF5500"/>
<path d="M27.27 57.1401C27.27 57.1401 28.63 57.8601 30.88 58.0801C30.88 58.0801 32.57 56.0301 33.06 53.8601C33.06 53.8601 30.21 56.7101 27.26 57.1401H27.27Z" fill="#FFC200"/>
<path d="M35.9235 49.4898C36.0368 49.1143 32.9696 47.8569 29.0728 46.6811C25.176 45.5053 21.9252 44.8565 21.8119 45.2319C21.6986 45.6073 24.7658 46.8648 28.6626 48.0406C32.5594 49.2163 35.8103 49.8652 35.9235 49.4898Z" fill="#FFC200"/>
<path d="M21.0699 47.14L21.8099 45.23L35.9199 49.49L35.1899 51.4L21.0699 47.14Z" fill="#FFC200"/>
<path d="M32.9699 49.1399C32.8399 49.5699 31.8999 49.3699 30.8299 49.0499C29.7599 48.7299 28.9699 48.3999 29.0999 47.9699C29.2299 47.5399 30.1999 47.4499 31.2699 47.7799C32.3399 48.1099 33.0999 48.7099 32.9699 49.1399Z" fill="white"/>
<path d="M24.56 45.74L24.11 47.15C24.11 47.15 26.14 47.63 27.56 48.03L27.99 46.77C27.99 46.77 26.3 46.13 24.56 45.74Z" fill="#FF7F00"/>
</g>
<path fill-rule="evenodd" clip-rule="evenodd" d="M6.49771 79C6.98969 79 7.48602 79.213 7.49037 79.6913C7.49037 80.1043 7.24656 80.2696 6.99839 80.2696C6.75023 80.2696 6.73281 80.1435 6.73281 80.1435C6.73281 80.1435 7.02452 79.9261 7.02452 79.7174C7.02452 79.6087 6.94179 79.313 6.489 79.3174C5.8577 79.3174 5.5181 79.6174 5.5181 80.1522C5.5181 80.7652 7.35105 80.9739 7.3554 81.7652C7.3554 82.613 6.47594 82.9957 5.69225 83C5.283 83 5.01306 82.7609 5.00871 82.3783C5.00871 81.9261 5.22204 81.4652 5.75756 81.4652C5.88382 81.4565 5.98831 81.5522 5.99702 81.6783C5.99702 81.6783 5.99702 81.6826 5.99702 81.687C5.99702 81.687 5.45715 81.8391 5.4615 82.3783C5.4615 82.4783 5.56599 82.6609 5.81851 82.6565C6.07103 82.6522 6.82424 82.4739 6.81989 81.8087C6.81989 81.1913 5.00435 81.1087 5 80.1478C5 79.0652 6.08845 79.0087 6.49771 79.0087V79ZM10.747 79.6C10.8123 79.5696 11.2129 79.4913 11.1955 79.813C11.1824 80.1348 10.9386 80.6913 10.9037 80.9348C11.2303 80.7696 11.6918 80.2087 11.6918 80.2087C11.6918 80.2087 12.0183 80.2522 11.9182 80.4522C11.818 80.6522 11.1519 81.1435 11.1519 81.1435C11.1519 81.1435 11.3043 82.5696 12.1707 82.5696C12.6453 82.5696 12.8499 82.3609 12.937 82.287C12.9587 82.2696 12.9762 82.2652 12.9849 82.2783C13.0197 82.387 12.9936 82.5043 12.9152 82.5913C12.8194 82.6957 12.5974 82.8217 12.1533 82.8261C11.3653 82.8261 10.9255 82.1957 10.8123 81.2609C10.7252 81.5348 10.7339 81.9826 10.7209 82.2C10.6948 82.2435 10.2507 82.4174 10.2158 82.1174C10.2158 82.0913 10.2158 82.0696 10.2158 82.0435C10.1331 82.1609 10.0199 82.2826 9.91108 82.2826C9.71951 82.2826 9.63679 82.1217 9.60196 82.0391C9.57584 82.0696 9.3625 82.287 9.08821 82.287C8.92277 82.2913 8.77474 82.1957 8.70943 82.0435C8.57011 82.1435 8.32195 82.2913 8.03895 82.2913C7.73418 82.2913 7.66017 82.1087 7.66017 81.9565C7.66017 81.713 7.84303 80.987 7.84303 80.987C7.84303 80.987 7.48602 81.1304 7.36411 81.1348C7.19431 81.1348 7.11159 80.8217 7.11159 80.813C7.11159 80.8087 7.11159 80.8 7.1203 80.8C7.22044 80.7609 7.94317 80.513 7.94317 80.513C7.94317 80.513 8.07813 79.9826 8.09555 79.913C8.11296 79.8435 8.2131 79.7 8.33065 79.6565C8.41773 79.6217 8.50916 79.6 8.60059 79.5913C8.63107 79.5913 8.65284 79.6 8.65284 79.6174C8.65284 79.6348 8.47433 80.4087 8.47433 80.4087C8.47433 80.4087 8.84876 80.3217 8.98808 80.3217C9.09692 80.3217 9.15352 80.387 9.09257 80.4696C9.03162 80.5522 8.96196 80.6478 8.92712 80.6913C8.88794 80.7348 8.86182 80.7435 8.77039 80.7609C8.64413 80.787 8.36113 80.8565 8.36113 80.8565C8.36113 80.8565 8.13473 81.6783 8.13909 81.8174C8.13909 81.8957 8.16521 81.987 8.26099 81.987C8.35678 81.987 8.53964 81.8739 8.67025 81.7913C8.69202 81.1522 9.18835 80.7261 9.57584 80.7261C9.7021 80.7261 9.65421 80.8478 9.79788 80.8478H9.88931C9.94591 80.8478 10.0069 80.8522 10.0069 80.9957C10.0069 81.1957 9.89367 81.5261 9.89367 81.7348C9.89367 81.8826 9.91544 81.987 9.97204 81.987C10.0678 81.987 10.1767 81.8478 10.255 81.7261C10.3813 81.0304 10.734 79.7609 10.734 79.6174L10.747 79.6ZM12.5016 80.7C12.7672 80.6783 12.9326 80.8217 12.9631 80.9C12.9936 80.9783 12.9892 81.1609 12.9152 81.2913C12.6845 81.7044 12.1097 81.6304 12.1097 81.6304C12.1097 81.6304 12.0444 81.9565 12.3405 81.9565C12.593 81.9565 12.7062 81.8304 12.8151 81.7261C12.8586 81.7261 12.9936 81.8652 12.9326 81.9609C12.8847 82.0348 12.6191 82.2565 12.2795 82.2609C11.7397 82.2609 11.6047 81.8 11.6744 81.4696C11.7658 81.0609 12.1751 80.7217 12.5016 80.6957V80.7ZM9.6455 80.987C9.32332 80.987 8.82699 81.9696 9.20577 81.9652C9.61938 81.9652 9.6455 81.1826 9.6455 81.0043V80.987ZM12.6409 80.8913C12.4232 80.9 12.1751 81.3174 12.1533 81.5C12.4798 81.513 12.654 81.1957 12.6757 81.0696C12.6888 80.9739 12.6932 80.887 12.6409 80.887V80.8913Z" fill="#557086"/>
<path d="M56.1444 79.3778L56.6412 80.278L57.6518 80.4733C57.7792 80.4988 57.8302 80.6559 57.741 80.7494L57.0361 81.5009L57.1635 82.5243C57.1805 82.6559 57.0446 82.7494 56.93 82.6942L56 82.2568L55.0701 82.6942C54.9512 82.7494 54.8196 82.6517 54.8366 82.5243L54.9639 81.5009L54.2591 80.7494C54.1699 80.6559 54.2208 80.4988 54.3482 80.4733L55.3588 80.278L55.8557 79.3778C55.9194 79.2632 56.085 79.2632 56.1444 79.3778Z" fill="#FFC200"/>
<path d="M56 79.2929C56.0552 79.2929 56.1147 79.3226 56.1444 79.3778L56.6412 80.278L57.6518 80.4733C57.7792 80.4988 57.8302 80.6559 57.741 80.7494L57.0361 81.5009L57.1635 82.5243C57.1763 82.6262 57.0955 82.7111 56.9979 82.7111C56.9766 82.7111 56.9512 82.7069 56.9257 82.6942L55.9957 82.2568L55.0658 82.6942C55.0403 82.7069 55.0191 82.7111 54.9936 82.7111C54.9002 82.7111 54.8153 82.6262 54.828 82.5243L54.9554 81.5009L54.2505 80.7494C54.1613 80.6559 54.2123 80.4988 54.3397 80.4733L55.3503 80.278L55.8471 79.3778C55.8768 79.3226 55.9363 79.2929 55.9915 79.2929M56 79.0806C55.8641 79.0806 55.7367 79.157 55.6688 79.2759L55.2187 80.0912L54.3057 80.2653C54.1698 80.2908 54.0594 80.3884 54.017 80.5201C53.9745 80.6517 54.0085 80.7961 54.1019 80.8937L54.7388 81.5731L54.6242 82.4946C54.6115 82.6007 54.6454 82.7111 54.7134 82.7918C54.7856 82.8725 54.8875 82.9192 54.9979 82.9192C55.0531 82.9192 55.1083 82.9065 55.1592 82.881L56 82.4861L56.8408 82.881C56.8917 82.9065 56.9469 82.9192 57.0021 82.9192C57.1125 82.9192 57.2144 82.8725 57.2866 82.7918C57.3588 82.7111 57.3928 82.6007 57.3758 82.4946L57.2611 81.5731L57.8981 80.8937C57.9915 80.7918 58.0255 80.6474 57.983 80.5201C57.9405 80.3884 57.8301 80.2908 57.6943 80.2653L56.7813 80.0912L56.3312 79.2759C56.2633 79.157 56.1359 79.0806 56 79.0806Z" fill="#213743"/>
<path d="M56 79.8152V80.9744C56 81.0678 56.0892 81.1315 56.1784 81.106L57.2187 80.7706C57.2739 80.7536 57.2697 80.6729 57.2102 80.6602L56.5563 80.5413C56.4969 80.5286 56.4417 80.4903 56.4119 80.4351L56.085 79.7939C56.0637 79.7515 55.9958 79.7642 55.9958 79.8152H56Z" fill="#FFEBB8"/>
<path d="M56 81.4924V82.0699C56 82.1039 56.017 82.1294 56.0467 82.1464L56.7983 82.5073C56.8365 82.5243 56.8705 82.4818 56.845 82.4479L56.0934 81.4627C56.0637 81.4245 56 81.4457 56 81.4924Z" fill="#FF7F00"/>
<rect x="13" y="62" width="37" height="13" rx="6.5" fill="#2F4553"/>
<path d="M27.8142 70H26.7822V67.318L26.1102 67.996L25.5222 67.378L26.9202 65.998H27.8142V70ZM28.9798 70.072C28.6738 70.072 28.4158 69.814 28.4158 69.508C28.4158 69.202 28.6738 68.944 28.9798 68.944C29.2858 68.944 29.5438 69.202 29.5438 69.508C29.5438 69.814 29.2858 70.072 28.9798 70.072ZM33.195 70H30.057V69.196C31.791 67.942 32.115 67.666 32.115 67.27C32.115 66.994 31.857 66.85 31.563 66.85C31.119 66.85 30.783 67.018 30.495 67.288L29.925 66.604C30.351 66.136 30.987 65.938 31.545 65.938C32.487 65.938 33.165 66.466 33.165 67.27C33.165 67.882 32.727 68.404 31.731 69.1H33.195V70ZM36.5455 70H35.5315L34.9735 69.124L34.4095 70H33.4015L34.3915 68.512L33.4615 67.102H34.4755L34.9735 67.888L35.4655 67.102H36.4795L35.5555 68.512L36.5455 70Z" fill="white"/>
<path d="M8.03 11H7.215L6.56 9.815H6.04V11H5.33V7.665H6.89C7.585 7.665 8.01 8.12 8.01 8.74C8.01 9.33 7.64 9.645 7.28 9.73L8.03 11ZM6.785 9.19C7.07 9.19 7.285 9.02 7.285 8.74C7.285 8.46 7.07 8.29 6.785 8.29H6.04V9.19H6.785ZM10.5152 11H9.88023V10.75C9.71523 10.945 9.43023 11.06 9.11523 11.06C8.73023 11.06 8.27523 10.8 8.27523 10.26C8.27523 9.695 8.73023 9.48 9.11523 9.48C9.43523 9.48 9.72023 9.585 9.88023 9.775V9.45C9.88023 9.205 9.67023 9.045 9.35023 9.045C9.09023 9.045 8.85023 9.14 8.64523 9.33L8.40523 8.905C8.70023 8.645 9.08023 8.525 9.46023 8.525C10.0102 8.525 10.5152 8.745 10.5152 9.44V11ZM9.37023 10.63C9.57523 10.63 9.77523 10.56 9.88023 10.42V10.12C9.77523 9.98 9.57523 9.91 9.37023 9.91C9.12023 9.91 8.91523 10.04 8.91523 10.275C8.91523 10.5 9.12023 10.63 9.37023 10.63ZM11.7801 11H11.1451V8.585H11.7801V8.915C11.9501 8.7 12.2501 8.525 12.5501 8.525V9.145C12.5051 9.135 12.4451 9.13 12.3751 9.13C12.1651 9.13 11.8851 9.25 11.7801 9.405V11ZM14.0818 11.06C13.3468 11.06 12.7918 10.565 12.7918 9.79C12.7918 9.09 13.3068 8.525 14.0418 8.525C14.7618 8.525 15.2518 9.065 15.2518 9.855V9.995H13.4568C13.4968 10.3 13.7418 10.555 14.1518 10.555C14.3568 10.555 14.6418 10.465 14.7968 10.315L15.0768 10.725C14.8368 10.945 14.4568 11.06 14.0818 11.06ZM14.6368 9.565C14.6218 9.335 14.4618 9.03 14.0418 9.03C13.6468 9.03 13.4768 9.325 13.4468 9.565H14.6368Z" fill="white"/>
<path d="M48.6312 11H48.1792L46.7872 9.096V11H46.3192V8.332H46.7992L48.1632 10.184V8.332H48.6312V11ZM50.0581 11.048C49.4461 11.048 49.0661 10.588 49.0661 10.032C49.0661 9.48 49.4461 9.02 50.0581 9.02C50.6781 9.02 51.0541 9.48 51.0541 10.032C51.0541 10.588 50.6781 11.048 50.0581 11.048ZM50.0581 10.676C50.4181 10.676 50.6181 10.376 50.6181 10.032C50.6181 9.692 50.4181 9.392 50.0581 9.392C49.7021 9.392 49.5021 9.692 49.5021 10.032C49.5021 10.376 49.7021 10.676 50.0581 10.676ZM51.6755 11.044C51.5235 11.044 51.3955 10.916 51.3955 10.764C51.3955 10.612 51.5235 10.484 51.6755 10.484C51.8275 10.484 51.9555 10.612 51.9555 10.764C51.9555 10.916 51.8275 11.044 51.6755 11.044ZM54.4593 11.048C53.6753 11.048 53.3593 10.412 53.3593 9.672C53.3593 8.9 53.7633 8.292 54.5353 8.292C54.8673 8.292 55.1233 8.412 55.3033 8.588L55.0833 8.944C54.9433 8.796 54.7913 8.708 54.5353 8.708C54.0913 8.708 53.8313 9.12 53.8313 9.588C53.8313 9.616 53.8313 9.64 53.8353 9.664C53.9553 9.484 54.2353 9.292 54.5513 9.292C55.0313 9.292 55.4433 9.584 55.4433 10.152C55.4433 10.648 55.0553 11.048 54.4593 11.048ZM54.4353 10.632C54.7873 10.632 54.9713 10.384 54.9713 10.168C54.9713 9.84 54.7153 9.692 54.4233 9.692C54.1953 9.692 53.9753 9.816 53.8393 10.008C53.8673 10.296 54.0233 10.632 54.4353 10.632ZM56.8617 11.048C56.0777 11.048 55.7617 10.412 55.7617 9.672C55.7617 8.9 56.1657 8.292 56.9377 8.292C57.2697 8.292 57.5257 8.412 57.7057 8.588L57.4857 8.944C57.3457 8.796 57.1937 8.708 56.9377 8.708C56.4937 8.708 56.2337 9.12 56.2337 9.588C56.2337 9.616 56.2337 9.64 56.2377 9.664C56.3577 9.484 56.6377 9.292 56.9537 9.292C57.4337 9.292 57.8457 9.584 57.8457 10.152C57.8457 10.648 57.4577 11.048 56.8617 11.048ZM56.8377 10.632C57.1897 10.632 57.3737 10.384 57.3737 10.168C57.3737 9.84 57.1177 9.692 56.8257 9.692C56.5977 9.692 56.3777 9.816 56.2417 10.008C56.2697 10.296 56.4257 10.632 56.8377 10.632Z" fill="white"/>
<defs>
<clipPath id="clip0_26835_29229">
<rect width="63" height="88" fill="white"/>
</clipPath>
</defs>
</svg>
