<svg width="63" height="88" viewBox="0 0 63 88" fill="none" xmlns="http://www.w3.org/2000/svg">
<rect width="63" height="88" rx="4" fill="#FF003F"/>
<path d="M36.7008 13.5133L44.7992 3.48665C45.5586 2.54645 46.7024 2 47.911 2H58C59.6569 2 61 3.34314 61 5V83C61 84.6569 59.6569 86 58 86H5C3.34315 86 2 84.6569 2 83V18C2 16.3431 3.34315 15 5 15H33.589C34.7976 15 35.9414 14.4536 36.7008 13.5133Z" fill="#213743"/>
<rect x="5" y="18" width="53" height="40" rx="1" fill="#2F4553"/>
<g clip-path="url(#clip0_26835_29230)">
<path d="M57 18H6C5.44772 18 5 18.4477 5 19V57C5 57.5523 5.44772 58 6 58H57C57.5523 58 58 57.5523 58 57V19C58 18.4477 57.5523 18 57 18Z" fill="#047BFF"/>
<path d="M10.08 29.02H5V40.37H10.08C10.7 40.37 11.21 39.86 11.21 39.24V30.16C11.21 29.54 10.7 29.03 10.08 29.03V29.02Z" fill="#45A7FF"/>
<path d="M19.85 29.02H13.83C13.2059 29.02 12.7 29.5259 12.7 30.15V39.24C12.7 39.8641 13.2059 40.37 13.83 40.37H19.85C20.4741 40.37 20.98 39.8641 20.98 39.24V30.15C20.98 29.5259 20.4741 29.02 19.85 29.02Z" fill="#45A7FF"/>
<path d="M49.16 29.02H43.14C42.5159 29.02 42.01 29.5259 42.01 30.15V39.24C42.01 39.8641 42.5159 40.37 43.14 40.37H49.16C49.7841 40.37 50.29 39.8641 50.29 39.24V30.15C50.29 29.5259 49.7841 29.02 49.16 29.02Z" fill="#45A7FF"/>
<path d="M52.92 29.02C52.3 29.02 51.79 29.53 51.79 30.15V39.23C51.79 39.85 52.3 40.36 52.92 40.36H58V29.01H52.92V29.02Z" fill="#45A7FF"/>
<path d="M28.876 55.656C37.6441 55.656 44.752 54.6137 44.752 53.328C44.752 52.0423 37.6441 51 28.876 51C20.1079 51 13 52.0423 13 53.328C13 54.6137 20.1079 55.656 28.876 55.656Z" fill="#1A2C38"/>
<path d="M51.96 18.8978L52.0199 15.7038C52.0439 14.5363 51.1448 13.523 49.898 13.3027L29.1703 9.70116C27.2162 9.35972 25.2621 10.2959 24.4469 11.959L11.5236 38.3485C10.9722 39.4829 10.8643 40.7716 11.2479 41.9721L11.8952 43.9987L40.3314 51.6313L51.972 18.8978H51.96Z" fill="white"/>
<path d="M34.9371 40.5562C34.2113 43.4778 29.9163 42.8106 24.7171 41.6029C19.5178 40.3952 15.3775 39.1069 16.1032 36.1738C16.829 33.2408 21.6356 31.8605 26.8348 33.0682C32.0341 34.276 35.6628 37.6346 34.9252 40.5562H34.9371Z" fill="#FFC200"/>
<path d="M32.8817 15.7894C36.7708 15.9387 31.0461 19.6382 29.9481 20.8493C33.789 22.9612 27.9786 23.4421 28.8125 24.7554C28.9004 25.234 28.6049 25.5281 27.926 25.6376C25.3677 26.0786 22.4627 28.9315 26.2708 27.5706C29.7505 26.3257 27.0764 31.0798 26.1387 32.1164C24.6893 34.031 22.5599 34.1471 20.4416 34.3188C19.5573 33.77 19.9393 33.3777 20.2929 32.5522C20.951 30.9448 23.0547 34.1895 25.1198 30.3449C25.4935 29.7416 25.5744 29.2883 25.3864 28.9964C24.9543 28.8332 24.2273 28.9307 23.1936 29.2777C20.2891 29.4793 22.9463 26.9547 23.7232 26.1148C24.4438 24.3975 27.7175 24.4912 28.3339 23.1824C28.7459 22.4689 27.5758 23.002 27.0593 22.8261C25.0135 23.6537 23.0083 25.5581 20.6182 26.0465C18.7655 26.2342 24.0573 23.0703 25.5895 21.9116C27.0783 21.1403 26.8995 20.3494 25.7901 19.5524C23.9398 18.2981 27.4693 17.631 28.1512 18.6641C28.575 19.282 29.0941 19.3138 29.6851 18.7256C30.5536 18.1648 32.1085 16.4296 29.7756 17.0966C28.9501 17.2922 28.4936 16.485 28.974 15.9947C30.19 14.9411 31.3483 16.3602 32.894 15.7785L32.8817 15.7894ZM35.3284 27.9705C38.8481 28.4901 32.5862 32.4793 33.2985 33.8347C33.2644 34.3776 39.1988 37.6596 37.4207 38.3923C34.8875 39.4328 32.5129 37.7694 30.9708 34.8789C29.8471 34.2037 28.3815 35.0309 26.5406 34.5754C24.7077 33.6875 33.6686 34.74 28.2473 30.5024C28.0608 30.1328 28.2967 29.7933 28.9669 29.495C29.9034 29.1795 30.3921 30.2091 31.124 31.1544C32.1109 32.6924 33.2712 30.0736 33.6914 29.571C33.7128 28.4066 31.0922 29.6008 30.5444 29.158C30.0678 26.8197 33.9542 27.7677 35.3284 27.9705ZM41.934 19.0956C43.0214 19.1156 43.8691 20.3404 42.7457 20.9631C42.1594 21.2962 38.0241 20.7319 38.9934 21.9145C39.9627 23.0972 46.8083 28.7478 42.7312 27.6521C40.8551 27.1405 38.6938 26.3685 37.4732 24.3936C36.8914 24.4827 36.1476 24.8351 36.0841 25.6548C36.0524 26.0647 36.6201 26.0862 37.3393 25.7556C40.1431 27.083 32.1663 28.3781 34.0574 26.1056C34.7112 25.3855 36.8157 22.6842 33.969 23.6856C31.8985 24.546 32.3901 27.3838 29.8702 27.7035C30.1439 25.9669 31.2242 22.437 33.3607 21.9328C34.1492 22.4354 34.4015 22.5177 35.6863 22.3195C37.1861 20.9494 33.1169 19.4212 33.9338 18.3824C35.2237 17.2525 36.7965 19.134 37.5981 20.2359C38.3997 21.3378 40.7256 19.0844 41.9338 19.1067L41.934 19.0956ZM40.0507 17.0086C41.2051 16.6749 41.899 17.7194 41.2844 18.2738C40.7436 18.763 38.8667 18.9503 38.0654 18.4918C37.013 17.8845 39.5889 17.1443 40.0507 17.0086Z" fill="#008C00"/>
<path d="M37.2193 49.2906L12.0204 44.1322L12.6785 46.2247C12.9896 47.2094 13.8391 47.9702 14.904 48.2052L38.5714 53.5538C40.0431 53.8895 41.5507 53.1062 42.0413 51.7635L51.0153 26.699C51.6136 25.0094 51.9486 23.2414 51.9725 21.4623L52.0204 18.6313L40.6055 47.5562C40.1029 48.843 38.6551 49.5703 37.2313 49.2794L37.2193 49.2906Z" fill="#1CE61C"/>
<path d="M22.0072 47.4702C21.6977 49.2682 19.7374 48.5537 17.4219 48.1132C15.1063 47.6726 13.8683 47.4583 13.4212 45.696C12.9168 43.7193 12.4812 42.2785 14.7968 42.7072C17.1124 43.1359 22.3167 45.6721 22.0072 47.4702Z" fill="#008C00"/>
</g>
<path fill-rule="evenodd" clip-rule="evenodd" d="M6.49771 79C6.98969 79 7.48602 79.213 7.49037 79.6913C7.49037 80.1043 7.24656 80.2696 6.99839 80.2696C6.75023 80.2696 6.73281 80.1435 6.73281 80.1435C6.73281 80.1435 7.02452 79.9261 7.02452 79.7174C7.02452 79.6087 6.94179 79.313 6.489 79.3174C5.8577 79.3174 5.5181 79.6174 5.5181 80.1522C5.5181 80.7652 7.35105 80.9739 7.3554 81.7652C7.3554 82.613 6.47594 82.9957 5.69225 83C5.283 83 5.01306 82.7609 5.00871 82.3783C5.00871 81.9261 5.22204 81.4652 5.75756 81.4652C5.88382 81.4565 5.98831 81.5522 5.99702 81.6783C5.99702 81.6783 5.99702 81.6826 5.99702 81.687C5.99702 81.687 5.45715 81.8391 5.4615 82.3783C5.4615 82.4783 5.56599 82.6609 5.81851 82.6565C6.07103 82.6522 6.82424 82.4739 6.81989 81.8087C6.81989 81.1913 5.00435 81.1087 5 80.1478C5 79.0652 6.08845 79.0087 6.49771 79.0087V79ZM10.747 79.6C10.8123 79.5696 11.2129 79.4913 11.1955 79.813C11.1824 80.1348 10.9386 80.6913 10.9037 80.9348C11.2303 80.7696 11.6918 80.2087 11.6918 80.2087C11.6918 80.2087 12.0183 80.2522 11.9182 80.4522C11.818 80.6522 11.1519 81.1435 11.1519 81.1435C11.1519 81.1435 11.3043 82.5696 12.1707 82.5696C12.6453 82.5696 12.8499 82.3609 12.937 82.287C12.9587 82.2696 12.9762 82.2652 12.9849 82.2783C13.0197 82.387 12.9936 82.5043 12.9152 82.5913C12.8194 82.6957 12.5974 82.8217 12.1533 82.8261C11.3653 82.8261 10.9255 82.1957 10.8123 81.2609C10.7252 81.5348 10.7339 81.9826 10.7209 82.2C10.6948 82.2435 10.2507 82.4174 10.2158 82.1174C10.2158 82.0913 10.2158 82.0696 10.2158 82.0435C10.1331 82.1609 10.0199 82.2826 9.91108 82.2826C9.71951 82.2826 9.63679 82.1217 9.60196 82.0391C9.57584 82.0696 9.3625 82.287 9.08821 82.287C8.92277 82.2913 8.77474 82.1957 8.70943 82.0435C8.57011 82.1435 8.32195 82.2913 8.03895 82.2913C7.73418 82.2913 7.66017 82.1087 7.66017 81.9565C7.66017 81.713 7.84303 80.987 7.84303 80.987C7.84303 80.987 7.48602 81.1304 7.36411 81.1348C7.19431 81.1348 7.11159 80.8217 7.11159 80.813C7.11159 80.8087 7.11159 80.8 7.1203 80.8C7.22044 80.7609 7.94317 80.513 7.94317 80.513C7.94317 80.513 8.07813 79.9826 8.09555 79.913C8.11296 79.8435 8.2131 79.7 8.33065 79.6565C8.41773 79.6217 8.50916 79.6 8.60059 79.5913C8.63107 79.5913 8.65284 79.6 8.65284 79.6174C8.65284 79.6348 8.47433 80.4087 8.47433 80.4087C8.47433 80.4087 8.84876 80.3217 8.98808 80.3217C9.09692 80.3217 9.15352 80.387 9.09257 80.4696C9.03162 80.5522 8.96196 80.6478 8.92712 80.6913C8.88794 80.7348 8.86182 80.7435 8.77039 80.7609C8.64413 80.787 8.36113 80.8565 8.36113 80.8565C8.36113 80.8565 8.13473 81.6783 8.13909 81.8174C8.13909 81.8957 8.16521 81.987 8.26099 81.987C8.35678 81.987 8.53964 81.8739 8.67025 81.7913C8.69202 81.1522 9.18835 80.7261 9.57584 80.7261C9.7021 80.7261 9.65421 80.8478 9.79788 80.8478H9.88931C9.94591 80.8478 10.0069 80.8522 10.0069 80.9957C10.0069 81.1957 9.89367 81.5261 9.89367 81.7348C9.89367 81.8826 9.91544 81.987 9.97204 81.987C10.0678 81.987 10.1767 81.8478 10.255 81.7261C10.3813 81.0304 10.734 79.7609 10.734 79.6174L10.747 79.6ZM12.5016 80.7C12.7672 80.6783 12.9326 80.8217 12.9631 80.9C12.9936 80.9783 12.9892 81.1609 12.9152 81.2913C12.6845 81.7044 12.1097 81.6304 12.1097 81.6304C12.1097 81.6304 12.0444 81.9565 12.3405 81.9565C12.593 81.9565 12.7062 81.8304 12.8151 81.7261C12.8586 81.7261 12.9936 81.8652 12.9326 81.9609C12.8847 82.0348 12.6191 82.2565 12.2795 82.2609C11.7397 82.2609 11.6047 81.8 11.6744 81.4696C11.7658 81.0609 12.1751 80.7217 12.5016 80.6957V80.7ZM9.6455 80.987C9.32332 80.987 8.82699 81.9696 9.20577 81.9652C9.61938 81.9652 9.6455 81.1826 9.6455 81.0043V80.987ZM12.6409 80.8913C12.4232 80.9 12.1751 81.3174 12.1533 81.5C12.4798 81.513 12.654 81.1957 12.6757 81.0696C12.6888 80.9739 12.6932 80.887 12.6409 80.887V80.8913Z" fill="#557086"/>
<path d="M56.1444 79.3778L56.6412 80.278L57.6518 80.4733C57.7792 80.4988 57.8302 80.6559 57.741 80.7494L57.0361 81.5009L57.1635 82.5243C57.1805 82.6559 57.0446 82.7494 56.93 82.6942L56 82.2568L55.0701 82.6942C54.9512 82.7494 54.8196 82.6517 54.8366 82.5243L54.9639 81.5009L54.2591 80.7494C54.1699 80.6559 54.2208 80.4988 54.3482 80.4733L55.3588 80.278L55.8557 79.3778C55.9194 79.2632 56.085 79.2632 56.1444 79.3778Z" fill="#FFC200"/>
<path d="M56 79.2929C56.0552 79.2929 56.1147 79.3226 56.1444 79.3778L56.6412 80.278L57.6518 80.4733C57.7792 80.4988 57.8302 80.6559 57.741 80.7494L57.0361 81.5009L57.1635 82.5243C57.1763 82.6262 57.0955 82.7111 56.9979 82.7111C56.9766 82.7111 56.9512 82.7069 56.9257 82.6942L55.9957 82.2568L55.0658 82.6942C55.0403 82.7069 55.0191 82.7111 54.9936 82.7111C54.9002 82.7111 54.8153 82.6262 54.828 82.5243L54.9554 81.5009L54.2505 80.7494C54.1613 80.6559 54.2123 80.4988 54.3397 80.4733L55.3503 80.278L55.8471 79.3778C55.8768 79.3226 55.9363 79.2929 55.9915 79.2929M56 79.0806C55.8641 79.0806 55.7367 79.157 55.6688 79.2759L55.2187 80.0912L54.3057 80.2653C54.1698 80.2908 54.0594 80.3884 54.017 80.5201C53.9745 80.6517 54.0085 80.7961 54.1019 80.8937L54.7388 81.5731L54.6242 82.4946C54.6115 82.6007 54.6454 82.7111 54.7134 82.7918C54.7856 82.8725 54.8875 82.9192 54.9979 82.9192C55.0531 82.9192 55.1083 82.9065 55.1592 82.881L56 82.4861L56.8408 82.881C56.8917 82.9065 56.9469 82.9192 57.0021 82.9192C57.1125 82.9192 57.2144 82.8725 57.2866 82.7918C57.3588 82.7111 57.3928 82.6007 57.3758 82.4946L57.2611 81.5731L57.8981 80.8937C57.9915 80.7918 58.0255 80.6474 57.983 80.5201C57.9405 80.3884 57.8301 80.2908 57.6943 80.2653L56.7813 80.0912L56.3312 79.2759C56.2633 79.157 56.1359 79.0806 56 79.0806Z" fill="#213743"/>
<path d="M56 79.8152V80.9744C56 81.0678 56.0892 81.1315 56.1784 81.106L57.2187 80.7706C57.2739 80.7536 57.2697 80.6729 57.2102 80.6602L56.5563 80.5413C56.4969 80.5286 56.4417 80.4903 56.4119 80.4351L56.085 79.7939C56.0637 79.7515 55.9958 79.7642 55.9958 79.8152H56Z" fill="#FFEBB8"/>
<path d="M56 81.4924V82.0699C56 82.1039 56.017 82.1294 56.0467 82.1464L56.7983 82.5073C56.8365 82.5243 56.8705 82.4818 56.845 82.4479L56.0934 81.4627C56.0637 81.4245 56 81.4457 56 81.4924Z" fill="#FF7F00"/>
<rect x="13" y="62" width="37" height="13" rx="6.5" fill="#2F4553"/>
<path d="M27.8142 70H26.7822V67.318L26.1102 67.996L25.5222 67.378L26.9202 65.998H27.8142V70ZM28.9798 70.072C28.6738 70.072 28.4158 69.814 28.4158 69.508C28.4158 69.202 28.6738 68.944 28.9798 68.944C29.2858 68.944 29.5438 69.202 29.5438 69.508C29.5438 69.814 29.2858 70.072 28.9798 70.072ZM33.195 70H30.057V69.196C31.791 67.942 32.115 67.666 32.115 67.27C32.115 66.994 31.857 66.85 31.563 66.85C31.119 66.85 30.783 67.018 30.495 67.288L29.925 66.604C30.351 66.136 30.987 65.938 31.545 65.938C32.487 65.938 33.165 66.466 33.165 67.27C33.165 67.882 32.727 68.404 31.731 69.1H33.195V70ZM36.5455 70H35.5315L34.9735 69.124L34.4095 70H33.4015L34.3915 68.512L33.4615 67.102H34.4755L34.9735 67.888L35.4655 67.102H36.4795L35.5555 68.512L36.5455 70Z" fill="white"/>
<path d="M8.03 11H7.215L6.56 9.815H6.04V11H5.33V7.665H6.89C7.585 7.665 8.01 8.12 8.01 8.74C8.01 9.33 7.64 9.645 7.28 9.73L8.03 11ZM6.785 9.19C7.07 9.19 7.285 9.02 7.285 8.74C7.285 8.46 7.07 8.29 6.785 8.29H6.04V9.19H6.785ZM10.5152 11H9.88023V10.75C9.71523 10.945 9.43023 11.06 9.11523 11.06C8.73023 11.06 8.27523 10.8 8.27523 10.26C8.27523 9.695 8.73023 9.48 9.11523 9.48C9.43523 9.48 9.72023 9.585 9.88023 9.775V9.45C9.88023 9.205 9.67023 9.045 9.35023 9.045C9.09023 9.045 8.85023 9.14 8.64523 9.33L8.40523 8.905C8.70023 8.645 9.08023 8.525 9.46023 8.525C10.0102 8.525 10.5152 8.745 10.5152 9.44V11ZM9.37023 10.63C9.57523 10.63 9.77523 10.56 9.88023 10.42V10.12C9.77523 9.98 9.57523 9.91 9.37023 9.91C9.12023 9.91 8.91523 10.04 8.91523 10.275C8.91523 10.5 9.12023 10.63 9.37023 10.63ZM11.7801 11H11.1451V8.585H11.7801V8.915C11.9501 8.7 12.2501 8.525 12.5501 8.525V9.145C12.5051 9.135 12.4451 9.13 12.3751 9.13C12.1651 9.13 11.8851 9.25 11.7801 9.405V11ZM14.0818 11.06C13.3468 11.06 12.7918 10.565 12.7918 9.79C12.7918 9.09 13.3068 8.525 14.0418 8.525C14.7618 8.525 15.2518 9.065 15.2518 9.855V9.995H13.4568C13.4968 10.3 13.7418 10.555 14.1518 10.555C14.3568 10.555 14.6418 10.465 14.7968 10.315L15.0768 10.725C14.8368 10.945 14.4568 11.06 14.0818 11.06ZM14.6368 9.565C14.6218 9.335 14.4618 9.03 14.0418 9.03C13.6468 9.03 13.4768 9.325 13.4468 9.565H14.6368Z" fill="white"/>
<path d="M48.9046 11H48.4526L47.0606 9.096V11H46.5926V8.332H47.0726L48.4366 10.184V8.332H48.9046V11ZM50.3315 11.048C49.7195 11.048 49.3395 10.588 49.3395 10.032C49.3395 9.48 49.7195 9.02 50.3315 9.02C50.9515 9.02 51.3275 9.48 51.3275 10.032C51.3275 10.588 50.9515 11.048 50.3315 11.048ZM50.3315 10.676C50.6915 10.676 50.8915 10.376 50.8915 10.032C50.8915 9.692 50.6915 9.392 50.3315 9.392C49.9755 9.392 49.7755 9.692 49.7755 10.032C49.7755 10.376 49.9755 10.676 50.3315 10.676ZM51.9489 11.044C51.7969 11.044 51.6689 10.916 51.6689 10.764C51.6689 10.612 51.7969 10.484 51.9489 10.484C52.1009 10.484 52.2289 10.612 52.2289 10.764C52.2289 10.916 52.1009 11.044 51.9489 11.044ZM54.7328 11.048C53.9488 11.048 53.6328 10.412 53.6328 9.672C53.6328 8.9 54.0368 8.292 54.8088 8.292C55.1408 8.292 55.3968 8.412 55.5768 8.588L55.3568 8.944C55.2168 8.796 55.0648 8.708 54.8088 8.708C54.3648 8.708 54.1048 9.12 54.1048 9.588C54.1048 9.616 54.1048 9.64 54.1088 9.664C54.2288 9.484 54.5088 9.292 54.8248 9.292C55.3048 9.292 55.7168 9.584 55.7168 10.152C55.7168 10.648 55.3288 11.048 54.7328 11.048ZM54.7088 10.632C55.0608 10.632 55.2448 10.384 55.2448 10.168C55.2448 9.84 54.9888 9.692 54.6968 9.692C54.4688 9.692 54.2488 9.816 54.1128 10.008C54.1408 10.296 54.2968 10.632 54.7088 10.632ZM56.8671 11H56.3551L57.3631 8.744H55.9791V8.332H57.9031V8.656L56.8671 11Z" fill="white"/>
<defs>
<clipPath id="clip0_26835_29230">
<rect width="63" height="88" fill="white"/>
</clipPath>
</defs>
</svg>
