<svg width="63" height="88" viewBox="0 0 63 88" fill="none" xmlns="http://www.w3.org/2000/svg">
<rect width="63" height="88" rx="4" fill="#FF003F"/>
<path d="M36.7008 13.5133L44.7992 3.48665C45.5586 2.54645 46.7024 2 47.911 2H58C59.6569 2 61 3.34314 61 5V83C61 84.6569 59.6569 86 58 86H5C3.34315 86 2 84.6569 2 83V18C2 16.3431 3.34315 15 5 15H33.589C34.7976 15 35.9414 14.4536 36.7008 13.5133Z" fill="#213743"/>
<rect x="5" y="18" width="53" height="40" rx="1" fill="#2F4553"/>
<g clip-path="url(#clip0_26835_29231)">
<path d="M57 18H6C5.44772 18 5 18.4477 5 19V57C5 57.5523 5.44772 58 6 58H57C57.5523 58 58 57.5523 58 57V19C58 18.4477 57.5523 18 57 18Z" fill="#E9113C"/>
<path d="M5 50.79V57C5 57.55 5.45 58 6 58H57C57.55 58 58 57.55 58 57V50.79H5Z" fill="#E9627D"/>
<path d="M44.31 20H14.64C12.9997 20 11.67 21.3297 11.67 22.97V48.69C11.67 50.3303 12.9997 51.66 14.64 51.66H44.31C45.9503 51.66 47.28 50.3303 47.28 48.69V22.97C47.28 21.3297 45.9503 20 44.31 20Z" fill="#1A2C38"/>
<path d="M12.22 39.45C13.7388 39.45 14.97 37.2159 14.97 34.46C14.97 31.7041 13.7388 29.47 12.22 29.47C10.7012 29.47 9.46997 31.7041 9.46997 34.46C9.46997 37.2159 10.7012 39.45 12.22 39.45Z" fill="#1A2C38"/>
<path d="M49.18 13.1399H19.41C17.7973 13.1399 16.49 14.4472 16.49 16.0599V48.7399C16.49 50.3526 17.7973 51.6599 19.41 51.6599H49.18C50.7927 51.6599 52.1 50.3526 52.1 48.7399V16.0599C52.1 14.4472 50.7927 13.1399 49.18 13.1399Z" fill="#FF7F00"/>
<path d="M57.75 34.7899V32.9099H58.43C59.27 32.9099 59.95 32.2299 59.95 31.3899V15.7899C59.95 14.3199 58.75 13.1299 57.29 13.1299H27.01C25.54 13.1299 24.35 14.3299 24.35 15.7899V48.9899C24.35 50.4599 25.55 51.6499 27.01 51.6499H57.29C58.76 51.6499 59.95 50.4499 59.95 48.9899V36.3099C59.95 35.4699 59.27 34.7899 58.43 34.7899H57.75Z" fill="#FFC200"/>
<path d="M29.48 34.51H33.62V37.36C33.62 38.5 32.69 39.43 31.55 39.43C30.41 39.43 29.48 38.5 29.48 37.36V34.51Z" fill="#1A2C38"/>
<path d="M52.64 34.51H56.78V37.36C56.78 38.5 55.85 39.43 54.71 39.43C53.57 39.43 52.64 38.5 52.64 37.36V34.51Z" fill="#1A2C38"/>
<path d="M58.02 32.9199H16.49V34.7999H58.02V32.9199Z" fill="#1A2C38"/>
<path d="M29.48 32.9199H33.62V35.7699C33.62 36.9099 32.69 37.8399 31.55 37.8399C30.41 37.8399 29.48 36.9099 29.48 35.7699V32.9199Z" fill="#FF7F00"/>
<path d="M52.64 32.9199H56.78V35.7699C56.78 36.9099 55.85 37.8399 54.71 37.8399C53.57 37.8399 52.64 36.9099 52.64 35.7699V32.9199Z" fill="#FF7F00"/>
<path d="M31.55 36.97C32.152 36.97 32.64 36.482 32.64 35.88C32.64 35.278 32.152 34.79 31.55 34.79C30.948 34.79 30.46 35.278 30.46 35.88C30.46 36.482 30.948 36.97 31.55 36.97Z" fill="#FFEBB8"/>
<path d="M54.71 36.97C55.312 36.97 55.8 36.482 55.8 35.88C55.8 35.278 55.312 34.79 54.71 34.79C54.108 34.79 53.62 35.278 53.62 35.88C53.62 36.482 54.108 36.97 54.71 36.97Z" fill="#FFEBB8"/>
<path d="M37.97 33.9299H48.29V36.0799C48.29 37.0499 47.51 37.8299 46.54 37.8299H39.72C38.75 37.8299 37.97 37.0499 37.97 36.0799V33.9299Z" fill="#1A2C38"/>
<path d="M58.01 17.16C58.01 18.22 56.53 19.08 53.23 19.08C49.93 19.08 47.27 18.22 47.27 17.16C47.27 16.1 49.94 15.24 53.23 15.24C56.52 15.24 58.01 16.1 58.01 17.16Z" fill="white"/>
<path d="M31.55 13.1399C31.55 13.1399 41.21 26.4299 39.61 32.9199H46.66C46.66 32.9199 38.2 18.2399 38.92 13.1399H31.55Z" fill="#FFEBB8"/>
<path d="M46.27 47.5C46.27 49.51 41.96 49.7001 36.64 49.7001C31.32 49.7001 27.01 49.51 27.01 47.5C27.01 45.49 27.94 43.05 33.26 43.05C38.58 43.05 46.27 45.48 46.27 47.5Z" fill="#FF7F00"/>
<path d="M58.18 46.2899C58.18 48.5499 57.53 49.2799 56.74 49.2799C55.95 49.2799 55.3 48.5499 55.3 46.2899C55.3 44.0299 55.95 42.1899 56.74 42.1899C57.53 42.1899 58.18 44.0299 58.18 46.2899Z" fill="white"/>
<path d="M16.49 39.43L18.77 36.97C18.77 36.97 18.74 41.26 16.49 42.06V39.42V39.43Z" fill="#1A2C38"/>
<path d="M16.49 39.43C18.0088 39.43 19.24 36.9363 19.24 33.86C19.24 30.7838 18.0088 28.29 16.49 28.29C14.9712 28.29 13.74 30.7838 13.74 33.86C13.74 36.9363 14.9712 39.43 16.49 39.43Z" fill="#FF7F00"/>
<path d="M15.44 37C16.0199 37 16.49 35.5941 16.49 33.86C16.49 32.1258 16.0199 30.72 15.44 30.72C14.8601 30.72 14.39 32.1258 14.39 33.86C14.39 35.5941 14.8601 37 15.44 37Z" fill="#FFC200"/>
</g>
<path fill-rule="evenodd" clip-rule="evenodd" d="M6.49771 79C6.98969 79 7.48602 79.213 7.49037 79.6913C7.49037 80.1043 7.24656 80.2696 6.99839 80.2696C6.75023 80.2696 6.73281 80.1435 6.73281 80.1435C6.73281 80.1435 7.02452 79.9261 7.02452 79.7174C7.02452 79.6087 6.94179 79.313 6.489 79.3174C5.8577 79.3174 5.5181 79.6174 5.5181 80.1522C5.5181 80.7652 7.35105 80.9739 7.3554 81.7652C7.3554 82.613 6.47594 82.9957 5.69225 83C5.283 83 5.01306 82.7609 5.00871 82.3783C5.00871 81.9261 5.22204 81.4652 5.75756 81.4652C5.88382 81.4565 5.98831 81.5522 5.99702 81.6783C5.99702 81.6783 5.99702 81.6826 5.99702 81.687C5.99702 81.687 5.45715 81.8391 5.4615 82.3783C5.4615 82.4783 5.56599 82.6609 5.81851 82.6565C6.07103 82.6522 6.82424 82.4739 6.81989 81.8087C6.81989 81.1913 5.00435 81.1087 5 80.1478C5 79.0652 6.08845 79.0087 6.49771 79.0087V79ZM10.747 79.6C10.8123 79.5696 11.2129 79.4913 11.1955 79.813C11.1824 80.1348 10.9386 80.6913 10.9037 80.9348C11.2303 80.7696 11.6918 80.2087 11.6918 80.2087C11.6918 80.2087 12.0183 80.2522 11.9182 80.4522C11.818 80.6522 11.1519 81.1435 11.1519 81.1435C11.1519 81.1435 11.3043 82.5696 12.1707 82.5696C12.6453 82.5696 12.8499 82.3609 12.937 82.287C12.9587 82.2696 12.9762 82.2652 12.9849 82.2783C13.0197 82.387 12.9936 82.5043 12.9152 82.5913C12.8194 82.6957 12.5974 82.8217 12.1533 82.8261C11.3653 82.8261 10.9255 82.1957 10.8123 81.2609C10.7252 81.5348 10.7339 81.9826 10.7209 82.2C10.6948 82.2435 10.2507 82.4174 10.2158 82.1174C10.2158 82.0913 10.2158 82.0696 10.2158 82.0435C10.1331 82.1609 10.0199 82.2826 9.91108 82.2826C9.71951 82.2826 9.63679 82.1217 9.60196 82.0391C9.57584 82.0696 9.3625 82.287 9.08821 82.287C8.92277 82.2913 8.77474 82.1957 8.70943 82.0435C8.57011 82.1435 8.32195 82.2913 8.03895 82.2913C7.73418 82.2913 7.66017 82.1087 7.66017 81.9565C7.66017 81.713 7.84303 80.987 7.84303 80.987C7.84303 80.987 7.48602 81.1304 7.36411 81.1348C7.19431 81.1348 7.11159 80.8217 7.11159 80.813C7.11159 80.8087 7.11159 80.8 7.1203 80.8C7.22044 80.7609 7.94317 80.513 7.94317 80.513C7.94317 80.513 8.07813 79.9826 8.09555 79.913C8.11296 79.8435 8.2131 79.7 8.33065 79.6565C8.41773 79.6217 8.50916 79.6 8.60059 79.5913C8.63107 79.5913 8.65284 79.6 8.65284 79.6174C8.65284 79.6348 8.47433 80.4087 8.47433 80.4087C8.47433 80.4087 8.84876 80.3217 8.98808 80.3217C9.09692 80.3217 9.15352 80.387 9.09257 80.4696C9.03162 80.5522 8.96196 80.6478 8.92712 80.6913C8.88794 80.7348 8.86182 80.7435 8.77039 80.7609C8.64413 80.787 8.36113 80.8565 8.36113 80.8565C8.36113 80.8565 8.13473 81.6783 8.13909 81.8174C8.13909 81.8957 8.16521 81.987 8.26099 81.987C8.35678 81.987 8.53964 81.8739 8.67025 81.7913C8.69202 81.1522 9.18835 80.7261 9.57584 80.7261C9.7021 80.7261 9.65421 80.8478 9.79788 80.8478H9.88931C9.94591 80.8478 10.0069 80.8522 10.0069 80.9957C10.0069 81.1957 9.89367 81.5261 9.89367 81.7348C9.89367 81.8826 9.91544 81.987 9.97204 81.987C10.0678 81.987 10.1767 81.8478 10.255 81.7261C10.3813 81.0304 10.734 79.7609 10.734 79.6174L10.747 79.6ZM12.5016 80.7C12.7672 80.6783 12.9326 80.8217 12.9631 80.9C12.9936 80.9783 12.9892 81.1609 12.9152 81.2913C12.6845 81.7044 12.1097 81.6304 12.1097 81.6304C12.1097 81.6304 12.0444 81.9565 12.3405 81.9565C12.593 81.9565 12.7062 81.8304 12.8151 81.7261C12.8586 81.7261 12.9936 81.8652 12.9326 81.9609C12.8847 82.0348 12.6191 82.2565 12.2795 82.2609C11.7397 82.2609 11.6047 81.8 11.6744 81.4696C11.7658 81.0609 12.1751 80.7217 12.5016 80.6957V80.7ZM9.6455 80.987C9.32332 80.987 8.82699 81.9696 9.20577 81.9652C9.61938 81.9652 9.6455 81.1826 9.6455 81.0043V80.987ZM12.6409 80.8913C12.4232 80.9 12.1751 81.3174 12.1533 81.5C12.4798 81.513 12.654 81.1957 12.6757 81.0696C12.6888 80.9739 12.6932 80.887 12.6409 80.887V80.8913Z" fill="#557086"/>
<path d="M56.1444 79.3778L56.6412 80.278L57.6518 80.4733C57.7792 80.4988 57.8302 80.6559 57.741 80.7494L57.0361 81.5009L57.1635 82.5243C57.1805 82.6559 57.0446 82.7494 56.93 82.6942L56 82.2568L55.0701 82.6942C54.9512 82.7494 54.8196 82.6517 54.8366 82.5243L54.9639 81.5009L54.2591 80.7494C54.1699 80.6559 54.2208 80.4988 54.3482 80.4733L55.3588 80.278L55.8557 79.3778C55.9194 79.2632 56.085 79.2632 56.1444 79.3778Z" fill="#FFC200"/>
<path d="M56 79.2929C56.0552 79.2929 56.1147 79.3226 56.1444 79.3778L56.6412 80.278L57.6518 80.4733C57.7792 80.4988 57.8302 80.6559 57.741 80.7494L57.0361 81.5009L57.1635 82.5243C57.1763 82.6262 57.0955 82.7111 56.9979 82.7111C56.9766 82.7111 56.9512 82.7069 56.9257 82.6942L55.9957 82.2568L55.0658 82.6942C55.0403 82.7069 55.0191 82.7111 54.9936 82.7111C54.9002 82.7111 54.8153 82.6262 54.828 82.5243L54.9554 81.5009L54.2505 80.7494C54.1613 80.6559 54.2123 80.4988 54.3397 80.4733L55.3503 80.278L55.8471 79.3778C55.8768 79.3226 55.9363 79.2929 55.9915 79.2929M56 79.0806C55.8641 79.0806 55.7367 79.157 55.6688 79.2759L55.2187 80.0912L54.3057 80.2653C54.1698 80.2908 54.0594 80.3884 54.017 80.5201C53.9745 80.6517 54.0085 80.7961 54.1019 80.8937L54.7388 81.5731L54.6242 82.4946C54.6115 82.6007 54.6454 82.7111 54.7134 82.7918C54.7856 82.8725 54.8875 82.9192 54.9979 82.9192C55.0531 82.9192 55.1083 82.9065 55.1592 82.881L56 82.4861L56.8408 82.881C56.8917 82.9065 56.9469 82.9192 57.0021 82.9192C57.1125 82.9192 57.2144 82.8725 57.2866 82.7918C57.3588 82.7111 57.3928 82.6007 57.3758 82.4946L57.2611 81.5731L57.8981 80.8937C57.9915 80.7918 58.0255 80.6474 57.983 80.5201C57.9405 80.3884 57.8301 80.2908 57.6943 80.2653L56.7813 80.0912L56.3312 79.2759C56.2633 79.157 56.1359 79.0806 56 79.0806Z" fill="#213743"/>
<path d="M56 79.8152V80.9744C56 81.0678 56.0892 81.1315 56.1784 81.106L57.2187 80.7706C57.2739 80.7536 57.2697 80.6729 57.2102 80.6602L56.5563 80.5413C56.4969 80.5286 56.4417 80.4903 56.4119 80.4351L56.085 79.7939C56.0637 79.7515 55.9958 79.7642 55.9958 79.8152H56Z" fill="#FFEBB8"/>
<path d="M56 81.4924V82.0699C56 82.1039 56.017 82.1294 56.0467 82.1464L56.7983 82.5073C56.8365 82.5243 56.8705 82.4818 56.845 82.4479L56.0934 81.4627C56.0637 81.4245 56 81.4457 56 81.4924Z" fill="#FF7F00"/>
<rect x="13" y="62" width="37" height="13" rx="6.5" fill="#2F4553"/>
<path d="M27.8142 70H26.7822V67.318L26.1102 67.996L25.5222 67.378L26.9202 65.998H27.8142V70ZM28.9798 70.072C28.6738 70.072 28.4158 69.814 28.4158 69.508C28.4158 69.202 28.6738 68.944 28.9798 68.944C29.2858 68.944 29.5438 69.202 29.5438 69.508C29.5438 69.814 29.2858 70.072 28.9798 70.072ZM33.195 70H30.057V69.196C31.791 67.942 32.115 67.666 32.115 67.27C32.115 66.994 31.857 66.85 31.563 66.85C31.119 66.85 30.783 67.018 30.495 67.288L29.925 66.604C30.351 66.136 30.987 65.938 31.545 65.938C32.487 65.938 33.165 66.466 33.165 67.27C33.165 67.882 32.727 68.404 31.731 69.1H33.195V70ZM36.5455 70H35.5315L34.9735 69.124L34.4095 70H33.4015L34.3915 68.512L33.4615 67.102H34.4755L34.9735 67.888L35.4655 67.102H36.4795L35.5555 68.512L36.5455 70Z" fill="white"/>
<path d="M8.03 11H7.215L6.56 9.815H6.04V11H5.33V7.665H6.89C7.585 7.665 8.01 8.12 8.01 8.74C8.01 9.33 7.64 9.645 7.28 9.73L8.03 11ZM6.785 9.19C7.07 9.19 7.285 9.02 7.285 8.74C7.285 8.46 7.07 8.29 6.785 8.29H6.04V9.19H6.785ZM10.5152 11H9.88023V10.75C9.71523 10.945 9.43023 11.06 9.11523 11.06C8.73023 11.06 8.27523 10.8 8.27523 10.26C8.27523 9.695 8.73023 9.48 9.11523 9.48C9.43523 9.48 9.72023 9.585 9.88023 9.775V9.45C9.88023 9.205 9.67023 9.045 9.35023 9.045C9.09023 9.045 8.85023 9.14 8.64523 9.33L8.40523 8.905C8.70023 8.645 9.08023 8.525 9.46023 8.525C10.0102 8.525 10.5152 8.745 10.5152 9.44V11ZM9.37023 10.63C9.57523 10.63 9.77523 10.56 9.88023 10.42V10.12C9.77523 9.98 9.57523 9.91 9.37023 9.91C9.12023 9.91 8.91523 10.04 8.91523 10.275C8.91523 10.5 9.12023 10.63 9.37023 10.63ZM11.7801 11H11.1451V8.585H11.7801V8.915C11.9501 8.7 12.2501 8.525 12.5501 8.525V9.145C12.5051 9.135 12.4451 9.13 12.3751 9.13C12.1651 9.13 11.8851 9.25 11.7801 9.405V11ZM14.0818 11.06C13.3468 11.06 12.7918 10.565 12.7918 9.79C12.7918 9.09 13.3068 8.525 14.0418 8.525C14.7618 8.525 15.2518 9.065 15.2518 9.855V9.995H13.4568C13.4968 10.3 13.7418 10.555 14.1518 10.555C14.3568 10.555 14.6418 10.465 14.7968 10.315L15.0768 10.725C14.8368 10.945 14.4568 11.06 14.0818 11.06ZM14.6368 9.565C14.6218 9.335 14.4618 9.03 14.0418 9.03C13.6468 9.03 13.4768 9.325 13.4468 9.565H14.6368Z" fill="white"/>
<path d="M48.6546 11H48.2026L46.8106 9.096V11H46.3426V8.332H46.8226L48.1866 10.184V8.332H48.6546V11ZM50.0815 11.048C49.4695 11.048 49.0895 10.588 49.0895 10.032C49.0895 9.48 49.4695 9.02 50.0815 9.02C50.7015 9.02 51.0775 9.48 51.0775 10.032C51.0775 10.588 50.7015 11.048 50.0815 11.048ZM50.0815 10.676C50.4415 10.676 50.6415 10.376 50.6415 10.032C50.6415 9.692 50.4415 9.392 50.0815 9.392C49.7255 9.392 49.5255 9.692 49.5255 10.032C49.5255 10.376 49.7255 10.676 50.0815 10.676ZM51.6989 11.044C51.5469 11.044 51.4189 10.916 51.4189 10.764C51.4189 10.612 51.5469 10.484 51.6989 10.484C51.8509 10.484 51.9789 10.612 51.9789 10.764C51.9789 10.916 51.8509 11.044 51.6989 11.044ZM54.4828 11.048C53.6988 11.048 53.3828 10.412 53.3828 9.672C53.3828 8.9 53.7868 8.292 54.5588 8.292C54.8908 8.292 55.1468 8.412 55.3268 8.588L55.1068 8.944C54.9668 8.796 54.8148 8.708 54.5588 8.708C54.1148 8.708 53.8548 9.12 53.8548 9.588C53.8548 9.616 53.8548 9.64 53.8588 9.664C53.9788 9.484 54.2588 9.292 54.5748 9.292C55.0548 9.292 55.4668 9.584 55.4668 10.152C55.4668 10.648 55.0788 11.048 54.4828 11.048ZM54.4588 10.632C54.8108 10.632 54.9948 10.384 54.9948 10.168C54.9948 9.84 54.7388 9.692 54.4468 9.692C54.2188 9.692 53.9988 9.816 53.8628 10.008C53.8908 10.296 54.0468 10.632 54.4588 10.632ZM56.8131 11.048C56.2651 11.048 55.7891 10.796 55.7891 10.316C55.7891 9.976 56.0651 9.732 56.3891 9.624C56.0891 9.528 55.8331 9.332 55.8331 8.992C55.8331 8.5 56.3371 8.292 56.8131 8.292C57.2811 8.292 57.7931 8.5 57.7931 8.992C57.7931 9.332 57.5331 9.528 57.2331 9.624C57.5571 9.732 57.8331 9.976 57.8331 10.316C57.8331 10.792 57.3571 11.048 56.8131 11.048ZM56.8131 9.44C56.9771 9.412 57.3171 9.316 57.3171 9.064C57.3171 8.84 57.0971 8.708 56.8131 8.708C56.5211 8.708 56.3051 8.84 56.3051 9.064C56.3051 9.316 56.6491 9.412 56.8131 9.44ZM56.8131 10.632C57.1091 10.632 57.3611 10.488 57.3611 10.256C57.3611 9.98 56.9771 9.856 56.8131 9.836C56.6451 9.856 56.2611 9.98 56.2611 10.256C56.2611 10.488 56.5091 10.632 56.8131 10.632Z" fill="white"/>
<defs>
<clipPath id="clip0_26835_29231">
<rect width="63" height="88" fill="white"/>
</clipPath>
</defs>
</svg>
