<svg width="63" height="88" viewBox="0 0 63 88" fill="none" xmlns="http://www.w3.org/2000/svg">
<rect width="63" height="88" rx="4" fill="#FF003F"/>
<path d="M36.7008 13.5133L44.7992 3.48665C45.5586 2.54645 46.7024 2 47.911 2H58C59.6569 2 61 3.34314 61 5V83C61 84.6569 59.6569 86 58 86H5C3.34315 86 2 84.6569 2 83V18C2 16.3431 3.34315 15 5 15H33.589C34.7976 15 35.9414 14.4536 36.7008 13.5133Z" fill="#213743"/>
<rect x="5" y="18" width="53" height="40" rx="1" fill="#2F4553"/>
<g clip-path="url(#clip0_26835_29232)">
<path d="M57 18H6C5.44772 18 5 18.4477 5 19V57C5 57.5523 5.44772 58 6 58H57C57.5523 58 58 57.5523 58 57V19C58 18.4477 57.5523 18 57 18Z" fill="#047BFF"/>
<path d="M31.38 39.48C21.77 39.48 12.77 40.46 5 42.17V57C5 57.55 5.45 58 6 58H57C57.55 58 58 57.55 58 57V42.22C50.18 40.48 41.09 39.48 31.38 39.48Z" fill="#45A7FF"/>
<path d="M11.37 49.74C11.37 49.74 22.73 57.69 36.03 54.04C49.33 50.39 58 42.22 58 42.22V31.79L11.37 49.74Z" fill="#1A2C38"/>
<path d="M8.07001 36.59C8.07001 36.59 8.22001 32.56 11.4 30.72C14.58 28.88 17.04 31 25.86 27.52C34.67 24.04 40.46 20.73 44.38 18.05C48.3 15.37 51.83 16.09 53.58 18.25L34.15 33.16L8.07001 36.58V36.59Z" fill="#FFC200"/>
<path d="M8.41998 35.5099C8.41998 35.5099 10.53 32.8099 14.08 31.5799C17.63 30.3499 22.87 31.4999 33.01 26.4399C45.54 20.1899 45.42 16.4699 51.86 19.1299L38.1 29.9999L14.09 37.0499L8.42998 35.4999L8.41998 35.5099Z" fill="#FFEBB8"/>
<path d="M8.67999 35.55C8.67999 35.55 11.92 32.6 15.27 32.15C18.62 31.7 20.03 33.1 23.83 31.25C28.52 28.98 31.54 28.12 35.1 26.97C41.07 25.04 45.49 17.47 53.12 19.54L28.05 35.01L8.67999 35.54V35.55Z" fill="#E9113C"/>
<path d="M56.88 30.77L58.67 28.12C58.67 28.12 63.55 25.18 61.07 20C58.59 14.82 53.09 17.37 47.83 21.06C42.57 24.75 22.84 34.56 10.68 34.64C-1.49003 34.72 -1.48003 45.28 6.90997 46.47C15.3 47.65 56.89 30.78 56.89 30.78L56.88 30.77Z" fill="#FF5500"/>
<path d="M45.03 30.5699C45.03 30.5699 53.71 23.7099 56.29 29.6499L45.03 30.5699Z" fill="#1A2C38"/>
<path d="M12.8 35.57C12.8 35.57 14.83 34.27 19.19 36.94L14.96 33.71L12.8 35.57Z" fill="#1A2C38"/>
<path d="M38.34 30C38.34 30 38.7 27.1 40.13 26.22C41.56 25.34 44.15 26.1 44.15 26.1L40.68 24.54L38.14 26.29L38.34 29.99V30Z" fill="#1A2C38"/>
<path d="M24.76 35.1699C24.76 35.1699 27.36 31.1299 29.95 31.8199L27.94 30.1499L25.24 31.7199L24.76 35.1699Z" fill="#1A2C38"/>
<path d="M48.68 25.98C48.49 26.11 48.27 26.22 48.02 26.32C46.25 27.04 44.65 26.43 43.25 25.88C41.79 25.31 40.84 25 39.87 25.6C39.86 25.6 39.85 25.62 39.83 25.62C38.97 26.17 38.83 27.1 38.66 28.55C38.47 30.15 38.24 32.14 36.24 33.44C33.99 34.9 31.86 33.46 30.14 32.31C29.04 31.57 28.01 30.87 27.34 31.14C26.5 31.48 26.13 32.52 25.7 33.72C25.16 35.24 24.55 36.96 22.74 37.71C20.74 38.55 18.96 37.15 17.54 36.04C16.57 35.28 15.57 34.49 14.82 34.63C13.74 34.83 12.74 35.93 11.67 37.09C10.67 38.18 9.63998 39.3 8.33998 39.96C7.25998 40.51 6.45998 40.29 5.97998 40.01C4.46998 39.14 4.26998 36.59 4.24998 36.09C4.22998 35.6 4.59998 35.18 5.08998 35.16C5.57998 35.14 5.98998 35.51 6.01998 36C6.06998 36.86 6.38998 38.19 6.86998 38.47C6.91998 38.5 7.08998 38.6 7.52998 38.37C8.54998 37.85 9.46998 36.85 10.36 35.88C11.57 34.56 12.83 33.19 14.49 32.88C16.02 32.59 17.35 33.63 18.63 34.64C20.07 35.77 21.08 36.48 22.05 36.07C23.13 35.62 23.57 34.4 24.02 33.12C24.52 31.72 25.08 30.12 26.66 29.49C28.21 28.87 29.69 29.86 31.12 30.83C32.91 32.03 34.08 32.71 35.26 31.94C36.56 31.1 36.71 29.82 36.88 28.34C37.06 26.83 37.26 25.11 38.92 24.08C40.69 22.98 42.38 23.64 43.87 24.21C45.12 24.7 46.21 25.12 47.33 24.66C48.36 24.24 48.44 23.43 48.51 21.92C48.57 20.59 48.64 18.93 49.99 17.72C50.36 17.39 50.92 17.43 51.24 17.79C51.56 18.15 51.53 18.72 51.17 19.04C50.38 19.75 50.33 20.79 50.28 21.99C50.22 23.34 50.15 24.99 48.66 25.96L48.68 25.98Z" fill="#FFC200"/>
<path d="M56.29 29.6501C56.29 29.6501 53.43 27.4301 49.1 28.3701C48.88 28.4201 48.65 28.4901 48.4 28.5701C54.04 30.6901 51.09 40.1801 34.15 47.3901C21.97 52.5701 12.85 51.3101 7.72998 49.6401C9.87998 53.3501 16.38 56.0601 29.68 52.0901C51.51 45.5901 58.24 35.7701 58.65 28.1201C58.65 28.1201 57.44 29.1201 56.28 29.6501H56.29Z" fill="#FF5500"/>
<path d="M34.15 47.3801C51.1 40.1701 54.04 30.6801 48.4 28.5601C43.69 30.1601 33.49 38.1201 25.69 39.3501C17.47 40.6401 12.22 38.4101 8.28999 42.7701C6.74999 44.4701 6.34999 47.2601 7.72999 49.6301C12.85 51.3001 21.97 52.5601 34.15 47.3801Z" fill="#FFC200"/>
<path d="M12.6 42.38C16.38 40.57 20.97 42.71 28.06 40.59C35.15 38.47 41.9 33.57 40.49 36.7C39.08 39.82 25.59 43.4 21.64 43.67C17.69 43.94 8.91999 44.15 12.6 42.39V42.38Z" fill="white"/>
<path d="M57.8837 20.6516C58.3145 19.9055 58.148 19.0029 57.5119 18.6356C56.8757 18.2683 56.0108 18.5755 55.58 19.3216C55.1493 20.0677 55.3157 20.9703 55.9519 21.3376C56.588 21.7049 57.4529 21.3977 57.8837 20.6516Z" fill="white"/>
</g>
<path fill-rule="evenodd" clip-rule="evenodd" d="M6.49771 79C6.98969 79 7.48602 79.213 7.49037 79.6913C7.49037 80.1043 7.24656 80.2696 6.99839 80.2696C6.75023 80.2696 6.73281 80.1435 6.73281 80.1435C6.73281 80.1435 7.02452 79.9261 7.02452 79.7174C7.02452 79.6087 6.94179 79.313 6.489 79.3174C5.8577 79.3174 5.5181 79.6174 5.5181 80.1522C5.5181 80.7652 7.35105 80.9739 7.3554 81.7652C7.3554 82.613 6.47594 82.9957 5.69225 83C5.283 83 5.01306 82.7609 5.00871 82.3783C5.00871 81.9261 5.22204 81.4652 5.75756 81.4652C5.88382 81.4565 5.98831 81.5522 5.99702 81.6783C5.99702 81.6783 5.99702 81.6826 5.99702 81.687C5.99702 81.687 5.45715 81.8391 5.4615 82.3783C5.4615 82.4783 5.56599 82.6609 5.81851 82.6565C6.07103 82.6522 6.82424 82.4739 6.81989 81.8087C6.81989 81.1913 5.00435 81.1087 5 80.1478C5 79.0652 6.08845 79.0087 6.49771 79.0087V79ZM10.747 79.6C10.8123 79.5696 11.2129 79.4913 11.1955 79.813C11.1824 80.1348 10.9386 80.6913 10.9037 80.9348C11.2303 80.7696 11.6918 80.2087 11.6918 80.2087C11.6918 80.2087 12.0183 80.2522 11.9182 80.4522C11.818 80.6522 11.1519 81.1435 11.1519 81.1435C11.1519 81.1435 11.3043 82.5696 12.1707 82.5696C12.6453 82.5696 12.8499 82.3609 12.937 82.287C12.9587 82.2696 12.9762 82.2652 12.9849 82.2783C13.0197 82.387 12.9936 82.5043 12.9152 82.5913C12.8194 82.6957 12.5974 82.8217 12.1533 82.8261C11.3653 82.8261 10.9255 82.1957 10.8123 81.2609C10.7252 81.5348 10.7339 81.9826 10.7209 82.2C10.6948 82.2435 10.2507 82.4174 10.2158 82.1174C10.2158 82.0913 10.2158 82.0696 10.2158 82.0435C10.1331 82.1609 10.0199 82.2826 9.91108 82.2826C9.71951 82.2826 9.63679 82.1217 9.60196 82.0391C9.57584 82.0696 9.3625 82.287 9.08821 82.287C8.92277 82.2913 8.77474 82.1957 8.70943 82.0435C8.57011 82.1435 8.32195 82.2913 8.03895 82.2913C7.73418 82.2913 7.66017 82.1087 7.66017 81.9565C7.66017 81.713 7.84303 80.987 7.84303 80.987C7.84303 80.987 7.48602 81.1304 7.36411 81.1348C7.19431 81.1348 7.11159 80.8217 7.11159 80.813C7.11159 80.8087 7.11159 80.8 7.1203 80.8C7.22044 80.7609 7.94317 80.513 7.94317 80.513C7.94317 80.513 8.07813 79.9826 8.09555 79.913C8.11296 79.8435 8.2131 79.7 8.33065 79.6565C8.41773 79.6217 8.50916 79.6 8.60059 79.5913C8.63107 79.5913 8.65284 79.6 8.65284 79.6174C8.65284 79.6348 8.47433 80.4087 8.47433 80.4087C8.47433 80.4087 8.84876 80.3217 8.98808 80.3217C9.09692 80.3217 9.15352 80.387 9.09257 80.4696C9.03162 80.5522 8.96196 80.6478 8.92712 80.6913C8.88794 80.7348 8.86182 80.7435 8.77039 80.7609C8.64413 80.787 8.36113 80.8565 8.36113 80.8565C8.36113 80.8565 8.13473 81.6783 8.13909 81.8174C8.13909 81.8957 8.16521 81.987 8.26099 81.987C8.35678 81.987 8.53964 81.8739 8.67025 81.7913C8.69202 81.1522 9.18835 80.7261 9.57584 80.7261C9.7021 80.7261 9.65421 80.8478 9.79788 80.8478H9.88931C9.94591 80.8478 10.0069 80.8522 10.0069 80.9957C10.0069 81.1957 9.89367 81.5261 9.89367 81.7348C9.89367 81.8826 9.91544 81.987 9.97204 81.987C10.0678 81.987 10.1767 81.8478 10.255 81.7261C10.3813 81.0304 10.734 79.7609 10.734 79.6174L10.747 79.6ZM12.5016 80.7C12.7672 80.6783 12.9326 80.8217 12.9631 80.9C12.9936 80.9783 12.9892 81.1609 12.9152 81.2913C12.6845 81.7044 12.1097 81.6304 12.1097 81.6304C12.1097 81.6304 12.0444 81.9565 12.3405 81.9565C12.593 81.9565 12.7062 81.8304 12.8151 81.7261C12.8586 81.7261 12.9936 81.8652 12.9326 81.9609C12.8847 82.0348 12.6191 82.2565 12.2795 82.2609C11.7397 82.2609 11.6047 81.8 11.6744 81.4696C11.7658 81.0609 12.1751 80.7217 12.5016 80.6957V80.7ZM9.6455 80.987C9.32332 80.987 8.82699 81.9696 9.20577 81.9652C9.61938 81.9652 9.6455 81.1826 9.6455 81.0043V80.987ZM12.6409 80.8913C12.4232 80.9 12.1751 81.3174 12.1533 81.5C12.4798 81.513 12.654 81.1957 12.6757 81.0696C12.6888 80.9739 12.6932 80.887 12.6409 80.887V80.8913Z" fill="#557086"/>
<path d="M56.1444 79.3778L56.6412 80.278L57.6518 80.4733C57.7792 80.4988 57.8302 80.6559 57.741 80.7494L57.0361 81.5009L57.1635 82.5243C57.1805 82.6559 57.0446 82.7494 56.93 82.6942L56 82.2568L55.0701 82.6942C54.9512 82.7494 54.8196 82.6517 54.8366 82.5243L54.9639 81.5009L54.2591 80.7494C54.1699 80.6559 54.2208 80.4988 54.3482 80.4733L55.3588 80.278L55.8557 79.3778C55.9194 79.2632 56.085 79.2632 56.1444 79.3778Z" fill="#FFC200"/>
<path d="M56 79.2929C56.0552 79.2929 56.1147 79.3226 56.1444 79.3778L56.6412 80.278L57.6518 80.4733C57.7792 80.4988 57.8302 80.6559 57.741 80.7494L57.0361 81.5009L57.1635 82.5243C57.1763 82.6262 57.0955 82.7111 56.9979 82.7111C56.9766 82.7111 56.9512 82.7069 56.9257 82.6942L55.9957 82.2568L55.0658 82.6942C55.0403 82.7069 55.0191 82.7111 54.9936 82.7111C54.9002 82.7111 54.8153 82.6262 54.828 82.5243L54.9554 81.5009L54.2505 80.7494C54.1613 80.6559 54.2123 80.4988 54.3397 80.4733L55.3503 80.278L55.8471 79.3778C55.8768 79.3226 55.9363 79.2929 55.9915 79.2929M56 79.0806C55.8641 79.0806 55.7367 79.157 55.6688 79.2759L55.2187 80.0912L54.3057 80.2653C54.1698 80.2908 54.0594 80.3884 54.017 80.5201C53.9745 80.6517 54.0085 80.7961 54.1019 80.8937L54.7388 81.5731L54.6242 82.4946C54.6115 82.6007 54.6454 82.7111 54.7134 82.7918C54.7856 82.8725 54.8875 82.9192 54.9979 82.9192C55.0531 82.9192 55.1083 82.9065 55.1592 82.881L56 82.4861L56.8408 82.881C56.8917 82.9065 56.9469 82.9192 57.0021 82.9192C57.1125 82.9192 57.2144 82.8725 57.2866 82.7918C57.3588 82.7111 57.3928 82.6007 57.3758 82.4946L57.2611 81.5731L57.8981 80.8937C57.9915 80.7918 58.0255 80.6474 57.983 80.5201C57.9405 80.3884 57.8301 80.2908 57.6943 80.2653L56.7813 80.0912L56.3312 79.2759C56.2633 79.157 56.1359 79.0806 56 79.0806Z" fill="#213743"/>
<path d="M56 79.8152V80.9744C56 81.0678 56.0892 81.1315 56.1784 81.106L57.2187 80.7706C57.2739 80.7536 57.2697 80.6729 57.2102 80.6602L56.5563 80.5413C56.4969 80.5286 56.4417 80.4903 56.4119 80.4351L56.085 79.7939C56.0637 79.7515 55.9958 79.7642 55.9958 79.8152H56Z" fill="#FFEBB8"/>
<path d="M56 81.4924V82.0699C56 82.1039 56.017 82.1294 56.0467 82.1464L56.7983 82.5073C56.8365 82.5243 56.8705 82.4818 56.845 82.4479L56.0934 81.4627C56.0637 81.4245 56 81.4457 56 81.4924Z" fill="#FF7F00"/>
<rect x="13" y="62" width="37" height="13" rx="6.5" fill="#2F4553"/>
<path d="M27.8142 70H26.7822V67.318L26.1102 67.996L25.5222 67.378L26.9202 65.998H27.8142V70ZM28.9798 70.072C28.6738 70.072 28.4158 69.814 28.4158 69.508C28.4158 69.202 28.6738 68.944 28.9798 68.944C29.2858 68.944 29.5438 69.202 29.5438 69.508C29.5438 69.814 29.2858 70.072 28.9798 70.072ZM33.195 70H30.057V69.196C31.791 67.942 32.115 67.666 32.115 67.27C32.115 66.994 31.857 66.85 31.563 66.85C31.119 66.85 30.783 67.018 30.495 67.288L29.925 66.604C30.351 66.136 30.987 65.938 31.545 65.938C32.487 65.938 33.165 66.466 33.165 67.27C33.165 67.882 32.727 68.404 31.731 69.1H33.195V70ZM36.5455 70H35.5315L34.9735 69.124L34.4095 70H33.4015L34.3915 68.512L33.4615 67.102H34.4755L34.9735 67.888L35.4655 67.102H36.4795L35.5555 68.512L36.5455 70Z" fill="white"/>
<path d="M8.03 11H7.215L6.56 9.815H6.04V11H5.33V7.665H6.89C7.585 7.665 8.01 8.12 8.01 8.74C8.01 9.33 7.64 9.645 7.28 9.73L8.03 11ZM6.785 9.19C7.07 9.19 7.285 9.02 7.285 8.74C7.285 8.46 7.07 8.29 6.785 8.29H6.04V9.19H6.785ZM10.5152 11H9.88023V10.75C9.71523 10.945 9.43023 11.06 9.11523 11.06C8.73023 11.06 8.27523 10.8 8.27523 10.26C8.27523 9.695 8.73023 9.48 9.11523 9.48C9.43523 9.48 9.72023 9.585 9.88023 9.775V9.45C9.88023 9.205 9.67023 9.045 9.35023 9.045C9.09023 9.045 8.85023 9.14 8.64523 9.33L8.40523 8.905C8.70023 8.645 9.08023 8.525 9.46023 8.525C10.0102 8.525 10.5152 8.745 10.5152 9.44V11ZM9.37023 10.63C9.57523 10.63 9.77523 10.56 9.88023 10.42V10.12C9.77523 9.98 9.57523 9.91 9.37023 9.91C9.12023 9.91 8.91523 10.04 8.91523 10.275C8.91523 10.5 9.12023 10.63 9.37023 10.63ZM11.7801 11H11.1451V8.585H11.7801V8.915C11.9501 8.7 12.2501 8.525 12.5501 8.525V9.145C12.5051 9.135 12.4451 9.13 12.3751 9.13C12.1651 9.13 11.8851 9.25 11.7801 9.405V11ZM14.0818 11.06C13.3468 11.06 12.7918 10.565 12.7918 9.79C12.7918 9.09 13.3068 8.525 14.0418 8.525C14.7618 8.525 15.2518 9.065 15.2518 9.855V9.995H13.4568C13.4968 10.3 13.7418 10.555 14.1518 10.555C14.3568 10.555 14.6418 10.465 14.7968 10.315L15.0768 10.725C14.8368 10.945 14.4568 11.06 14.0818 11.06ZM14.6368 9.565C14.6218 9.335 14.4618 9.03 14.0418 9.03C13.6468 9.03 13.4768 9.325 13.4468 9.565H14.6368Z" fill="white"/>
<path d="M48.6312 11H48.1792L46.7872 9.096V11H46.3192V8.332H46.7992L48.1632 10.184V8.332H48.6312V11ZM50.0581 11.048C49.4461 11.048 49.0661 10.588 49.0661 10.032C49.0661 9.48 49.4461 9.02 50.0581 9.02C50.6781 9.02 51.0541 9.48 51.0541 10.032C51.0541 10.588 50.6781 11.048 50.0581 11.048ZM50.0581 10.676C50.4181 10.676 50.6181 10.376 50.6181 10.032C50.6181 9.692 50.4181 9.392 50.0581 9.392C49.7021 9.392 49.5021 9.692 49.5021 10.032C49.5021 10.376 49.7021 10.676 50.0581 10.676ZM51.6755 11.044C51.5235 11.044 51.3955 10.916 51.3955 10.764C51.3955 10.612 51.5235 10.484 51.6755 10.484C51.8275 10.484 51.9555 10.612 51.9555 10.764C51.9555 10.916 51.8275 11.044 51.6755 11.044ZM54.4593 11.048C53.6753 11.048 53.3593 10.412 53.3593 9.672C53.3593 8.9 53.7633 8.292 54.5353 8.292C54.8673 8.292 55.1233 8.412 55.3033 8.588L55.0833 8.944C54.9433 8.796 54.7913 8.708 54.5353 8.708C54.0913 8.708 53.8313 9.12 53.8313 9.588C53.8313 9.616 53.8313 9.64 53.8353 9.664C53.9553 9.484 54.2353 9.292 54.5513 9.292C55.0313 9.292 55.4433 9.584 55.4433 10.152C55.4433 10.648 55.0553 11.048 54.4593 11.048ZM54.4353 10.632C54.7873 10.632 54.9713 10.384 54.9713 10.168C54.9713 9.84 54.7153 9.692 54.4233 9.692C54.1953 9.692 53.9753 9.816 53.8393 10.008C53.8673 10.296 54.0233 10.632 54.4353 10.632ZM56.6577 11.044C56.3297 11.044 56.0737 10.928 55.8937 10.748L56.1097 10.396C56.2497 10.54 56.4057 10.628 56.6577 10.628C57.1417 10.628 57.3617 10.188 57.3617 9.752C57.3617 9.724 57.3617 9.7 57.3617 9.672C57.2377 9.852 56.9577 10.048 56.6457 10.048C56.1657 10.048 55.7497 9.752 55.7497 9.184C55.7497 8.692 56.1377 8.288 56.7337 8.288C57.5177 8.288 57.8337 8.924 57.8337 9.668C57.8337 10.436 57.4297 11.044 56.6577 11.044ZM56.7697 9.644C56.9977 9.644 57.2217 9.524 57.3537 9.332C57.3297 9.044 57.1697 8.704 56.7577 8.704C56.4097 8.704 56.2257 8.956 56.2257 9.168C56.2257 9.496 56.4817 9.644 56.7697 9.644Z" fill="white"/>
<defs>
<clipPath id="clip0_26835_29232">
<rect width="63" height="88" fill="white"/>
</clipPath>
</defs>
</svg>
