<svg width="63" height="88" viewBox="0 0 63 88" fill="none" xmlns="http://www.w3.org/2000/svg">
<rect width="63" height="88" rx="4" fill="#FF003F"/>
<path d="M36.7008 13.5133L44.7992 3.48665C45.5586 2.54645 46.7024 2 47.911 2H58C59.6569 2 61 3.34314 61 5V83C61 84.6569 59.6569 86 58 86H5C3.34315 86 2 84.6569 2 83V18C2 16.3431 3.34315 15 5 15H33.589C34.7976 15 35.9414 14.4536 36.7008 13.5133Z" fill="#213743"/>
<rect x="5" y="18" width="53" height="40" rx="1" fill="#2F4553"/>
<g clip-path="url(#clip0_26835_29233)">
<g clip-path="url(#clip1_26835_29233)">
<mask id="mask0_26835_29233" style="mask-type:luminance" maskUnits="userSpaceOnUse" x="5" y="18" width="53" height="40">
<path d="M57 18H6C5.44772 18 5 18.4477 5 19V57C5 57.5523 5.44772 58 6 58H57C57.5523 58 58 57.5523 58 57V19C58 18.4477 57.5523 18 57 18Z" fill="white"/>
</mask>
<g mask="url(#mask0_26835_29233)">
<path d="M56.04 25.3501C65.02 38.7201 61.46 56.8401 48.09 65.8201L52.15 71.8701C68.86 60.6501 73.31 38.0001 62.08 21.2901C50.86 4.57007 28.22 0.13007 11.51 11.3501L15.57 17.4001C28.94 8.42007 47.06 11.9801 56.04 25.3501Z" fill="#0078EB"/>
<path d="M48.09 65.82L44.03 59.7701C30.66 68.75 12.54 65.19 3.55999 51.82C-5.42001 38.45 -1.86001 20.33 11.51 11.35L7.44999 5.30005C-9.27001 16.52 -13.72 39.1701 -2.49001 55.8801C8.72999 72.59 31.38 77.04 48.09 65.81V65.82Z" fill="#00BAFF"/>
<path d="M9.60996 47.7501C2.87996 37.7201 5.53996 24.1401 15.57 17.4001L11.51 11.3501C-1.86004 20.3301 -5.42004 38.4501 3.55996 51.8201C12.54 65.1901 30.66 68.7501 44.03 59.7701L39.97 53.7201C29.94 60.4501 16.36 57.7901 9.61996 47.7601L9.60996 47.7501Z" fill="#0078EB"/>
<path d="M56.04 25.3501C47.06 11.9801 28.94 8.42011 15.57 17.4001L19.63 23.4501C29.66 16.7201 43.24 19.3801 49.98 29.4101C56.71 39.4401 54.05 53.0201 44.02 59.7601L48.08 65.8101C61.45 56.8301 65.01 38.7101 56.03 25.3401L56.04 25.3501Z" fill="#00BAFF"/>
<path d="M43.93 33.4801C48.42 40.1601 46.64 49.2201 39.96 53.7101L44.02 59.7601C54.05 53.0301 56.72 39.4401 49.98 29.4101C43.25 19.3801 29.66 16.7101 19.63 23.4501L23.69 29.5001C30.37 25.0101 39.43 26.7901 43.92 33.4701L43.93 33.4801Z" fill="#0078EB"/>
<path d="M9.61001 47.7502C16.34 57.7802 29.93 60.4502 39.96 53.7102L35.9 47.6602C29.22 52.1502 20.16 50.3702 15.67 43.6902C11.18 37.0102 12.96 27.9502 19.64 23.4602L15.58 17.4102C5.55001 24.1402 2.88001 37.7302 9.62001 47.7602L9.61001 47.7502Z" fill="#00BAFF"/>
<path d="M15.66 43.6899C20.15 50.3699 29.21 52.15 35.89 47.66L19.63 23.45C12.95 27.94 11.17 37 15.66 43.68V43.6899Z" fill="#0078EB"/>
<path d="M43.93 33.4801C39.44 26.8001 30.38 25.0201 23.7 29.5101L39.96 53.7201C46.64 49.2301 48.42 40.1701 43.93 33.4901V33.4801Z" fill="#00BAFF"/>
<path d="M44.6 44.5901C44.35 44.3601 44.09 44.1501 43.83 43.9501C33 34.9001 38.48 29.9101 38.48 29.9101L40.75 27.7101C40.88 27.5801 41.01 27.4401 41.11 27.2901C43.11 24.5001 41.68 19.7101 37.8 16.4101C33.79 13.0101 28.7 12.4701 26.41 15.2201L25.39 16.4501C24.68 17.3001 24.32 18.3801 24.29 19.5501C24.29 19.8201 24.29 20.0801 24.32 20.3601C24.33 20.4701 24.34 20.5701 24.34 20.6801C24.34 29.9701 13.73 24.9001 13.73 24.9001C13.34 24.6401 12.93 24.4001 12.51 24.1701C10.9 23.3201 9.22997 22.8001 7.60997 22.6001C6.57997 22.4701 5.55997 22.5201 4.58997 22.7201L4.64997 42.0001C8.09997 43.4801 10.98 43.0001 14.88 41.9201C24.16 39.3501 28.29 48.5701 29.1 51.7601C29.17 52.0401 29.37 52.9001 29.37 52.9001C29.96 54.9901 31.21 57.0501 33.07 58.7201C33.46 59.0701 33.87 59.4001 34.29 59.6901C38.56 62.7101 44.49 61.5901 47.45 57.2801C49.84 53.7601 48.64 48.2101 44.59 44.5701L44.6 44.5901Z" fill="#1A2C38"/>
</g>
<mask id="mask1_26835_29233" style="mask-type:luminance" maskUnits="userSpaceOnUse" x="0" y="0" width="63" height="88">
<path d="M56.86 0H6.14C2.74897 0 0 2.74897 0 6.14V81.86C0 85.251 2.74897 88 6.14 88H56.86C60.251 88 63 85.251 63 81.86V6.14C63 2.74897 60.251 0 56.86 0Z" fill="white"/>
</mask>
<g mask="url(#mask1_26835_29233)">
<path d="M48.29 42.6001C48.04 42.3401 47.77 42.1001 47.51 41.8701C35.47 30.9301 42.65 26.5101 42.65 26.5101C44.83 24.8601 45.4 24.1401 45.4 24.1401C48.01 21.3401 46.83 15.9201 42.75 12.0301C38.67 8.14012 33.25 7.26012 30.63 10.0601L29.46 11.3101C28.65 12.1801 28.2 13.3101 28.1 14.5601C28.07 14.9001 28.07 15.2401 28.1 15.6001C27.66 25.7901 16.48 19.6401 16.48 19.6401C16.08 19.3401 15.66 19.0601 15.22 18.7901C10 15.6201 3.88003 15.9601 0.780027 19.3701C0.340027 19.8601 -0.0199731 20.4201 -0.299973 21.0201L-1.44997 23.4901C-1.56997 23.7501 -1.67997 24.0201 -1.75997 24.3001C-2.92997 28.5201 -0.399973 33.7501 4.58003 36.7701C8.23003 38.9901 12.32 39.4901 15.5 38.4301L15.74 38.3501C16.34 38.1301 16.96 37.9801 17.59 37.8701C17.71 37.8501 17.83 37.8401 17.95 37.8301C27.92 37.3001 30.66 46.2801 31.32 49.4801C31.36 49.8501 31.43 50.2201 31.51 50.5901C32.01 52.8601 33.23 55.1501 35.11 57.0501C39.16 61.1401 44.85 61.9901 48.28 59.1601C48.63 58.8701 48.94 58.5301 49.22 58.1701L50.59 56.4001C53.36 52.7801 52.42 46.7701 48.31 42.6101L48.29 42.6001ZM13.18 29.8501C12.01 30.3201 10.45 30.1701 9.07003 29.3301C7.45003 28.3501 6.56003 26.7201 6.71003 25.2901C7.84003 24.2301 10.15 23.7301 11.53 24.5701C13.15 25.5501 13.64 28.3401 13.18 29.8501ZM38.98 15.9401C39.96 16.7401 40.08 18.7601 39.74 19.7901C38.8 19.8201 37.63 19.3301 36.67 18.3901C35.87 17.6201 35.38 16.7001 35.23 15.8701C35.96 15.1801 37.94 15.0801 38.98 15.9401ZM43.79 52.4001C42.64 52.4601 41.35 51.8201 40.42 50.5901C39.33 49.1601 39.07 47.3701 39.65 46.1001C40.75 45.6201 42.87 46.1201 43.8 47.3401C44.89 48.7701 45.33 50.8001 43.8 52.3901L43.79 52.4001Z" fill="url(#paint0_linear_26835_29233)"/>
<path d="M46.07 20.3102C45.94 21.4402 45.59 22.3202 45.29 22.2902C44.99 22.2602 45.14 21.3802 45.27 20.2502C45.4 19.1202 45.45 18.1802 45.75 18.2102C46.05 18.2402 46.19 19.1902 46.06 20.3102H46.07Z" fill="white"/>
<path d="M51.3241 54.0369C51.6779 52.9614 51.6585 51.9888 51.2807 51.8645C50.903 51.7403 50.31 52.5114 49.9562 53.5868C49.6024 54.6623 49.6218 55.6349 49.9995 55.7592C50.3772 55.8834 50.9702 55.1123 51.3241 54.0369Z" fill="white"/>
<path d="M49.61 48.9901C50.25 49.7901 50.06 51.9401 48.82 53.8901C47.58 55.8401 45.87 56.5401 45.13 56.0601C44.39 55.5801 44.78 53.6201 46.02 51.6601C47.26 49.7001 49.06 48.2901 49.61 48.9801V48.9901Z" fill="white"/>
<path d="M39.9701 15.0001C38.4901 13.5701 36.5601 13.1701 35.6501 14.1101C35.2301 14.5401 35.1001 15.1801 35.2301 15.8901C36.0301 15.9201 37.1301 16.1501 38.1801 17.0001C39.1601 17.8001 39.5801 18.9001 39.7501 19.8001C40.2501 19.7801 40.6901 19.6201 41.0001 19.3001C41.9101 18.3601 41.4501 16.4401 39.9801 15.0001H39.9701Z" fill="#FF7F00"/>
<path d="M40.99 19.2901C41.9 18.3501 41.44 16.4301 39.97 14.9901C39.84 14.8701 39.72 14.7601 39.58 14.6501C39.58 15.4401 39.41 16.5501 38.72 17.5301C39.32 18.2401 39.61 19.0801 39.74 19.7801C40.24 19.7601 40.68 19.6001 40.99 19.2801V19.2901Z" fill="white"/>
<path d="M12.56 23.5701C10.5 22.3201 8.04001 22.5901 7.07001 24.1801C6.86001 24.5201 6.74001 24.9001 6.70001 25.2901C7.87001 24.8201 9.43001 24.9701 10.81 25.8101C12.43 26.7901 13.32 28.4201 13.17 29.8501C13.74 29.6201 14.23 29.2401 14.55 28.7201C15.52 27.1301 14.63 24.8201 12.56 23.5701Z" fill="#FFC200"/>
<path d="M13.78 33.9801C13.78 33.9801 13.7 33.9801 13.66 33.9901C11.53 34.2301 9.23005 33.6701 7.18005 32.4301C5.13005 31.1901 3.58005 29.4001 2.81005 27.4001C2.03005 25.3801 2.14005 23.3801 3.12005 21.7701C4.10005 20.1601 5.82005 19.1401 7.98005 18.9001C10.11 18.6601 12.41 19.2201 14.46 20.4601C16.51 21.7001 18.06 23.4901 18.83 25.4901C19.61 27.5101 19.5 29.5101 18.52 31.1201C17.56 32.7001 15.88 33.7101 13.78 33.9701V33.9801ZM7.91005 19.4201C5.97005 19.6601 4.42005 20.5901 3.54005 22.0301C2.65005 23.5001 2.55005 25.3501 3.27005 27.2201C4.00005 29.1201 5.48005 30.8101 7.43005 32.0001C9.38005 33.1901 11.57 33.7201 13.59 33.4901C15.59 33.2701 17.18 32.3401 18.07 30.8601C18.96 29.3801 19.06 27.5401 18.34 25.6701C17.61 23.7701 16.13 22.0801 14.18 20.8901C12.23 19.7001 10.04 19.1701 8.02005 19.4001C7.98005 19.4001 7.94005 19.4001 7.91005 19.4101V19.4201Z" fill="#FFC200"/>
<path d="M45.2901 56.4902C44.9001 56.5402 44.5001 56.5502 44.0801 56.5202C41.8501 56.3602 39.62 55.0702 37.94 52.9902C34.99 49.3302 34.76 44.3302 37.43 41.8502C38.52 40.8402 39.94 40.3602 41.53 40.4802C43.76 40.6402 45.99 41.9302 47.67 44.0102C50.62 47.6702 50.85 52.6702 48.18 55.1502C47.37 55.9002 46.39 56.3502 45.28 56.4902H45.2901ZM40.4001 41.0102C39.4001 41.1402 38.51 41.5502 37.78 42.2202C35.3 44.5202 35.55 49.2102 38.34 52.6702C39.93 54.6402 42.04 55.8602 44.12 56.0102C45.57 56.1202 46.86 55.6902 47.85 54.7702C50.33 52.4702 50.0801 47.7802 47.2901 44.3202C45.7001 42.3502 43.59 41.1302 41.51 40.9802C41.13 40.9502 40.76 40.9602 40.41 41.0102H40.4001Z" fill="#FFC200"/>
<path d="M45.2 46.4101C43.82 44.5901 41.62 44.0501 40.3 45.2101C40.02 45.4601 39.8 45.7701 39.64 46.1201C40.79 46.0601 42.08 46.7001 43.01 47.9301C44.1 49.3601 44.36 51.1501 43.78 52.4201C44.34 52.3901 44.88 52.2001 45.31 51.8201C46.63 50.6601 46.58 48.2501 45.2 46.4301V46.4101Z" fill="#FFC200"/>
<path d="M41.39 23.3C41.22 23.32 41.06 23.33 40.88 23.34C38.91 23.4 36.66 22.41 34.87 20.7C31.87 17.83 31.02 13.77 32.99 11.66C33.72 10.87 34.76 10.44 35.99 10.4C37.96 10.34 40.21 11.33 42 13.04C45 15.91 45.85 19.97 43.88 22.08C43.25 22.76 42.4 23.17 41.39 23.3ZM35.55 10.93C34.66 11.04 33.91 11.41 33.36 11.99C31.58 13.9 32.42 17.64 35.22 20.32C36.91 21.94 39.02 22.88 40.87 22.82C41.96 22.79 42.88 22.41 43.52 21.72C45.3 19.81 44.46 16.07 41.66 13.39C39.97 11.77 37.86 10.83 36.01 10.89C35.85 10.89 35.7 10.91 35.55 10.92V10.93Z" fill="#FFC200"/>
<path d="M36.76 24.8801C33.7 21.2101 29.01 20.0801 26.29 22.3501L25.15 23.4501C22.8 25.8301 23.18 30.3801 26.11 33.8901C29.17 37.5601 33.86 38.6901 36.58 36.4201L37.7 35.3301C40.07 32.9601 39.69 28.3901 36.76 24.8701V24.8801Z" fill="#55DFFF"/>
<path d="M35.8917 33.7758C37.791 32.1219 37.49 28.6675 35.2196 26.0602C32.9491 23.453 29.5689 22.6801 27.6696 24.334C25.7704 25.9879 26.0714 29.4422 28.3418 32.0495C30.6123 34.6568 33.9925 35.4297 35.8917 33.7758Z" fill="#FF7F00"/>
<path d="M35.7 26.6801C35.55 26.4701 35.39 26.2601 35.21 26.0601C34.08 24.7601 32.68 23.9201 31.31 23.6001C31.35 25.0001 31.14 27.5101 29.34 28.9901L33.58 33.9001C33.58 33.9001 33.47 27.6201 35.7 26.6701V26.6801Z" fill="white"/>
<path d="M34.58 34.49C34.78 32.83 34.14 30.83 32.7 29.18C30.89 27.1 28.37 26.19 26.46 26.75C26.26 28.41 26.9 30.41 28.34 32.06C30.15 34.14 32.67 35.05 34.58 34.49Z" fill="#1A2C38"/>
</g>
</g>
</g>
<path fill-rule="evenodd" clip-rule="evenodd" d="M6.49771 79C6.98969 79 7.48602 79.213 7.49037 79.6913C7.49037 80.1043 7.24656 80.2696 6.99839 80.2696C6.75023 80.2696 6.73281 80.1435 6.73281 80.1435C6.73281 80.1435 7.02452 79.9261 7.02452 79.7174C7.02452 79.6087 6.94179 79.313 6.489 79.3174C5.8577 79.3174 5.5181 79.6174 5.5181 80.1522C5.5181 80.7652 7.35105 80.9739 7.3554 81.7652C7.3554 82.613 6.47594 82.9957 5.69225 83C5.283 83 5.01306 82.7609 5.00871 82.3783C5.00871 81.9261 5.22204 81.4652 5.75756 81.4652C5.88382 81.4565 5.98831 81.5522 5.99702 81.6783C5.99702 81.6783 5.99702 81.6826 5.99702 81.687C5.99702 81.687 5.45715 81.8391 5.4615 82.3783C5.4615 82.4783 5.56599 82.6609 5.81851 82.6565C6.07103 82.6522 6.82424 82.4739 6.81989 81.8087C6.81989 81.1913 5.00435 81.1087 5 80.1478C5 79.0652 6.08845 79.0087 6.49771 79.0087V79ZM10.747 79.6C10.8123 79.5696 11.2129 79.4913 11.1955 79.813C11.1824 80.1348 10.9386 80.6913 10.9037 80.9348C11.2303 80.7696 11.6918 80.2087 11.6918 80.2087C11.6918 80.2087 12.0183 80.2522 11.9182 80.4522C11.818 80.6522 11.1519 81.1435 11.1519 81.1435C11.1519 81.1435 11.3043 82.5696 12.1707 82.5696C12.6453 82.5696 12.8499 82.3609 12.937 82.287C12.9587 82.2696 12.9762 82.2652 12.9849 82.2783C13.0197 82.387 12.9936 82.5043 12.9152 82.5913C12.8194 82.6957 12.5974 82.8217 12.1533 82.8261C11.3653 82.8261 10.9255 82.1957 10.8123 81.2609C10.7252 81.5348 10.7339 81.9826 10.7209 82.2C10.6948 82.2435 10.2507 82.4174 10.2158 82.1174C10.2158 82.0913 10.2158 82.0696 10.2158 82.0435C10.1331 82.1609 10.0199 82.2826 9.91108 82.2826C9.71951 82.2826 9.63679 82.1217 9.60196 82.0391C9.57584 82.0696 9.3625 82.287 9.08821 82.287C8.92277 82.2913 8.77474 82.1957 8.70943 82.0435C8.57011 82.1435 8.32195 82.2913 8.03895 82.2913C7.73418 82.2913 7.66017 82.1087 7.66017 81.9565C7.66017 81.713 7.84303 80.987 7.84303 80.987C7.84303 80.987 7.48602 81.1304 7.36411 81.1348C7.19431 81.1348 7.11159 80.8217 7.11159 80.813C7.11159 80.8087 7.11159 80.8 7.1203 80.8C7.22044 80.7609 7.94317 80.513 7.94317 80.513C7.94317 80.513 8.07813 79.9826 8.09555 79.913C8.11296 79.8435 8.2131 79.7 8.33065 79.6565C8.41773 79.6217 8.50916 79.6 8.60059 79.5913C8.63107 79.5913 8.65284 79.6 8.65284 79.6174C8.65284 79.6348 8.47433 80.4087 8.47433 80.4087C8.47433 80.4087 8.84876 80.3217 8.98808 80.3217C9.09692 80.3217 9.15352 80.387 9.09257 80.4696C9.03162 80.5522 8.96196 80.6478 8.92712 80.6913C8.88794 80.7348 8.86182 80.7435 8.77039 80.7609C8.64413 80.787 8.36113 80.8565 8.36113 80.8565C8.36113 80.8565 8.13473 81.6783 8.13909 81.8174C8.13909 81.8957 8.16521 81.987 8.26099 81.987C8.35678 81.987 8.53964 81.8739 8.67025 81.7913C8.69202 81.1522 9.18835 80.7261 9.57584 80.7261C9.7021 80.7261 9.65421 80.8478 9.79788 80.8478H9.88931C9.94591 80.8478 10.0069 80.8522 10.0069 80.9957C10.0069 81.1957 9.89367 81.5261 9.89367 81.7348C9.89367 81.8826 9.91544 81.987 9.97204 81.987C10.0678 81.987 10.1767 81.8478 10.255 81.7261C10.3813 81.0304 10.734 79.7609 10.734 79.6174L10.747 79.6ZM12.5016 80.7C12.7672 80.6783 12.9326 80.8217 12.9631 80.9C12.9936 80.9783 12.9892 81.1609 12.9152 81.2913C12.6845 81.7044 12.1097 81.6304 12.1097 81.6304C12.1097 81.6304 12.0444 81.9565 12.3405 81.9565C12.593 81.9565 12.7062 81.8304 12.8151 81.7261C12.8586 81.7261 12.9936 81.8652 12.9326 81.9609C12.8847 82.0348 12.6191 82.2565 12.2795 82.2609C11.7397 82.2609 11.6047 81.8 11.6744 81.4696C11.7658 81.0609 12.1751 80.7217 12.5016 80.6957V80.7ZM9.6455 80.987C9.32332 80.987 8.82699 81.9696 9.20577 81.9652C9.61938 81.9652 9.6455 81.1826 9.6455 81.0043V80.987ZM12.6409 80.8913C12.4232 80.9 12.1751 81.3174 12.1533 81.5C12.4798 81.513 12.654 81.1957 12.6757 81.0696C12.6888 80.9739 12.6932 80.887 12.6409 80.887V80.8913Z" fill="#557086"/>
<path d="M56.1444 79.3778L56.6412 80.278L57.6518 80.4733C57.7792 80.4988 57.8302 80.6559 57.741 80.7494L57.0361 81.5009L57.1635 82.5243C57.1805 82.6559 57.0446 82.7494 56.93 82.6942L56 82.2568L55.0701 82.6942C54.9512 82.7494 54.8196 82.6517 54.8366 82.5243L54.9639 81.5009L54.2591 80.7494C54.1699 80.6559 54.2208 80.4988 54.3482 80.4733L55.3588 80.278L55.8557 79.3778C55.9194 79.2632 56.085 79.2632 56.1444 79.3778Z" fill="#FFC200"/>
<path d="M56 79.2929C56.0552 79.2929 56.1147 79.3226 56.1444 79.3778L56.6412 80.278L57.6518 80.4733C57.7792 80.4988 57.8302 80.6559 57.741 80.7494L57.0361 81.5009L57.1635 82.5243C57.1763 82.6262 57.0955 82.7111 56.9979 82.7111C56.9766 82.7111 56.9512 82.7069 56.9257 82.6942L55.9957 82.2568L55.0658 82.6942C55.0403 82.7069 55.0191 82.7111 54.9936 82.7111C54.9002 82.7111 54.8153 82.6262 54.828 82.5243L54.9554 81.5009L54.2505 80.7494C54.1613 80.6559 54.2123 80.4988 54.3397 80.4733L55.3503 80.278L55.8471 79.3778C55.8768 79.3226 55.9363 79.2929 55.9915 79.2929M56 79.0806C55.8641 79.0806 55.7367 79.157 55.6688 79.2759L55.2187 80.0912L54.3057 80.2653C54.1698 80.2908 54.0594 80.3884 54.017 80.5201C53.9745 80.6517 54.0085 80.7961 54.1019 80.8937L54.7388 81.5731L54.6242 82.4946C54.6115 82.6007 54.6454 82.7111 54.7134 82.7918C54.7856 82.8725 54.8875 82.9192 54.9979 82.9192C55.0531 82.9192 55.1083 82.9065 55.1592 82.881L56 82.4861L56.8408 82.881C56.8917 82.9065 56.9469 82.9192 57.0021 82.9192C57.1125 82.9192 57.2144 82.8725 57.2866 82.7918C57.3588 82.7111 57.3928 82.6007 57.3758 82.4946L57.2611 81.5731L57.8981 80.8937C57.9915 80.7918 58.0255 80.6474 57.983 80.5201C57.9405 80.3884 57.8301 80.2908 57.6943 80.2653L56.7813 80.0912L56.3312 79.2759C56.2633 79.157 56.1359 79.0806 56 79.0806Z" fill="#213743"/>
<path d="M56 79.8152V80.9744C56 81.0678 56.0892 81.1315 56.1784 81.106L57.2187 80.7706C57.2739 80.7536 57.2697 80.6729 57.2102 80.6602L56.5563 80.5413C56.4969 80.5286 56.4417 80.4903 56.4119 80.4351L56.085 79.7939C56.0637 79.7515 55.9958 79.7642 55.9958 79.8152H56Z" fill="#FFEBB8"/>
<path d="M56 81.4924V82.0699C56 82.1039 56.017 82.1294 56.0467 82.1464L56.7983 82.5073C56.8365 82.5243 56.8705 82.4818 56.845 82.4479L56.0934 81.4627C56.0637 81.4245 56 81.4457 56 81.4924Z" fill="#FF7F00"/>
<rect x="13" y="62" width="37" height="13" rx="6.5" fill="#2F4553"/>
<path d="M27.8142 70H26.7822V67.318L26.1102 67.996L25.5222 67.378L26.9202 65.998H27.8142V70ZM28.9798 70.072C28.6738 70.072 28.4158 69.814 28.4158 69.508C28.4158 69.202 28.6738 68.944 28.9798 68.944C29.2858 68.944 29.5438 69.202 29.5438 69.508C29.5438 69.814 29.2858 70.072 28.9798 70.072ZM33.195 70H30.057V69.196C31.791 67.942 32.115 67.666 32.115 67.27C32.115 66.994 31.857 66.85 31.563 66.85C31.119 66.85 30.783 67.018 30.495 67.288L29.925 66.604C30.351 66.136 30.987 65.938 31.545 65.938C32.487 65.938 33.165 66.466 33.165 67.27C33.165 67.882 32.727 68.404 31.731 69.1H33.195V70ZM36.5455 70H35.5315L34.9735 69.124L34.4095 70H33.4015L34.3915 68.512L33.4615 67.102H34.4755L34.9735 67.888L35.4655 67.102H36.4795L35.5555 68.512L36.5455 70Z" fill="white"/>
<path d="M8.03 11H7.215L6.56 9.815H6.04V11H5.33V7.665H6.89C7.585 7.665 8.01 8.12 8.01 8.74C8.01 9.33 7.64 9.645 7.28 9.73L8.03 11ZM6.785 9.19C7.07 9.19 7.285 9.02 7.285 8.74C7.285 8.46 7.07 8.29 6.785 8.29H6.04V9.19H6.785ZM10.5152 11H9.88023V10.75C9.71523 10.945 9.43023 11.06 9.11523 11.06C8.73023 11.06 8.27523 10.8 8.27523 10.26C8.27523 9.695 8.73023 9.48 9.11523 9.48C9.43523 9.48 9.72023 9.585 9.88023 9.775V9.45C9.88023 9.205 9.67023 9.045 9.35023 9.045C9.09023 9.045 8.85023 9.14 8.64523 9.33L8.40523 8.905C8.70023 8.645 9.08023 8.525 9.46023 8.525C10.0102 8.525 10.5152 8.745 10.5152 9.44V11ZM9.37023 10.63C9.57523 10.63 9.77523 10.56 9.88023 10.42V10.12C9.77523 9.98 9.57523 9.91 9.37023 9.91C9.12023 9.91 8.91523 10.04 8.91523 10.275C8.91523 10.5 9.12023 10.63 9.37023 10.63ZM11.7801 11H11.1451V8.585H11.7801V8.915C11.9501 8.7 12.2501 8.525 12.5501 8.525V9.145C12.5051 9.135 12.4451 9.13 12.3751 9.13C12.1651 9.13 11.8851 9.25 11.7801 9.405V11ZM14.0818 11.06C13.3468 11.06 12.7918 10.565 12.7918 9.79C12.7918 9.09 13.3068 8.525 14.0418 8.525C14.7618 8.525 15.2518 9.065 15.2518 9.855V9.995H13.4568C13.4968 10.3 13.7418 10.555 14.1518 10.555C14.3568 10.555 14.6418 10.465 14.7968 10.315L15.0768 10.725C14.8368 10.945 14.4568 11.06 14.0818 11.06ZM14.6368 9.565C14.6218 9.335 14.4618 9.03 14.0418 9.03C13.6468 9.03 13.4768 9.325 13.4468 9.565H14.6368Z" fill="white"/>
<path d="M48.8421 11H48.3901L46.9981 9.096V11H46.5301V8.332H47.0101L48.3741 10.184V8.332H48.8421V11ZM50.269 11.048C49.657 11.048 49.277 10.588 49.277 10.032C49.277 9.48 49.657 9.02 50.269 9.02C50.889 9.02 51.265 9.48 51.265 10.032C51.265 10.588 50.889 11.048 50.269 11.048ZM50.269 10.676C50.629 10.676 50.829 10.376 50.829 10.032C50.829 9.692 50.629 9.392 50.269 9.392C49.913 9.392 49.713 9.692 49.713 10.032C49.713 10.376 49.913 10.676 50.269 10.676ZM51.8864 11.044C51.7344 11.044 51.6064 10.916 51.6064 10.764C51.6064 10.612 51.7344 10.484 51.8864 10.484C52.0384 10.484 52.1664 10.612 52.1664 10.764C52.1664 10.916 52.0384 11.044 51.8864 11.044ZM54.4023 11H53.8903L54.8983 8.744H53.5143V8.332H55.4383V8.656L54.4023 11ZM56.7672 11.048C56.0192 11.048 55.6992 10.34 55.6992 9.668C55.6992 8.996 56.0192 8.292 56.7672 8.292C57.5152 8.292 57.8352 8.996 57.8352 9.668C57.8352 10.34 57.5152 11.048 56.7672 11.048ZM56.7672 10.632C57.2032 10.632 57.3592 10.176 57.3592 9.668C57.3592 9.16 57.2032 8.708 56.7672 8.708C56.3312 8.708 56.1752 9.16 56.1752 9.668C56.1752 10.176 56.3312 10.632 56.7672 10.632Z" fill="white"/>
<defs>
<linearGradient id="paint0_linear_26835_29233" x1="-0.456791" y1="39.5937" x2="49.9669" y2="33.2595" gradientUnits="userSpaceOnUse">
<stop stop-color="#047BFF"/>
<stop offset="1" stop-color="#009FE8"/>
</linearGradient>
<clipPath id="clip0_26835_29233">
<rect width="63" height="88" fill="white"/>
</clipPath>
<clipPath id="clip1_26835_29233">
<rect width="63" height="88" fill="white"/>
</clipPath>
</defs>
</svg>
