<svg width="63" height="88" viewBox="0 0 63 88" fill="none" xmlns="http://www.w3.org/2000/svg">
<rect width="63" height="88" rx="4" fill="#FF003F"/>
<path d="M36.7008 13.5133L44.7992 3.48665C45.5586 2.54645 46.7024 2 47.911 2H58C59.6569 2 61 3.34314 61 5V83C61 84.6569 59.6569 86 58 86H5C3.34315 86 2 84.6569 2 83V18C2 16.3431 3.34315 15 5 15H33.589C34.7976 15 35.9414 14.4536 36.7008 13.5133Z" fill="#213743"/>
<rect x="5" y="18" width="53" height="40" rx="1" fill="#2F4553"/>
<g clip-path="url(#clip0_26835_29234)">
<path d="M57 18H6C5.44772 18 5 18.4477 5 19V57C5 57.5523 5.44772 58 6 58H57C57.5523 58 58 57.5523 58 57V19C58 18.4477 57.5523 18 57 18Z" fill="#FFC200"/>
<path d="M54.89 29.3999C34.92 29.3999 17.05 34.3999 5 42.2899V56.9999C5 57.5499 5.45 57.9999 6 57.9999H57C57.55 57.9999 58 57.5499 58 56.9999V29.4399C56.97 29.4099 55.93 29.3999 54.89 29.3999Z" fill="#FFEBB8"/>
<path d="M13.2 47.46C13.2 47.46 6.91 29.48 17.05 19.33C18.77 18.22 20.46 17.35 22.05 17.44C22.05 17.44 11.27 22.24 18.04 48.94L13.2 47.47V47.46Z" fill="#FF5500"/>
<path d="M17.05 19.3301C17.05 19.3301 27.61 9.10012 37.45 23.7701H31.97C31.97 23.7701 28.04 14.8401 17.05 19.3301Z" fill="white"/>
<path d="M4.05001 38.0199L3.26001 44.6499C3.26001 44.6499 6.46001 49.7799 26.71 52.5099C46.96 55.2399 55.68 36.5799 55.68 36.5799L53.92 32.6299C53.92 32.6299 45.11 48.4099 32.27 48.9499C21.51 49.3999 9.05001 45.6999 4.45001 41.0999L4.06001 38.0199H4.05001Z" fill="#FF5500"/>
<path d="M9.45999 33.1399C9.45999 33.1399 5.76999 43.2799 16.93 44.9299C28.09 46.5799 35.48 41.2399 40.14 42.3599C44.61 43.4299 43.24 51.1199 49.42 52.4599C49.93 52.5699 50.6 52.5899 50.81 51.5799C51.06 50.3799 51.59 48.3899 53.34 46.8399L40.42 36.6799L9.45999 33.1399Z" fill="#1A2C38"/>
<path d="M51.76 48.8599C54.71 48.3699 60.36 42.2199 60.36 42.2199L21.4 20.1699C21.4 20.1699 12.23 26.3899 11.03 32.1799C9.82999 37.9699 20.69 44.8099 28.93 42.5799C37.17 40.3499 43.42 40.3599 45.27 44.2599C47.12 48.1599 49.54 49.2399 51.77 48.8599H51.76Z" fill="#047BFF"/>
<path d="M56.39 43.86C46.96 41.17 36.08 39.04 24.39 37.22C21.93 36.71 19.95 34.2 19.98 31.64L20.09 23.14C20.12 20.58 22.16 18.91 24.62 19.42C36.23 21.1 44.76 22.47 54.23 25.36C57.57 26.47 61.02 29.9 61.01 33.84L60.93 40.15C60.9 42.71 58.86 44.38 56.4 43.87L56.39 43.86Z" fill="#55DFFF"/>
<path d="M15.38 27.3C15.38 27.3 15.79 31.5 14.9 32.51C14.01 33.52 11.5 35.42 11.5 35.42C11.5 35.42 10.97 34.3901 10.92 33.6301L15.38 27.3Z" fill="#1A2C38"/>
<path d="M22.074 22.1629C22.9958 21.2811 23.4275 20.2361 23.0381 19.8291C22.6487 19.422 21.5857 19.8069 20.6638 20.6888C19.7419 21.5707 19.3102 22.6156 19.6997 23.0227C20.0891 23.4298 21.1521 23.0448 22.074 22.1629Z" fill="#55DFFF"/>
<path d="M21.7352 21.809C22.2141 21.3509 22.4383 20.808 22.236 20.5965C22.0337 20.385 21.4814 20.5849 21.0025 21.043C20.5236 21.5012 20.2994 22.044 20.5017 22.2555C20.7041 22.4671 21.2563 22.2671 21.7352 21.809Z" fill="#1A2C38"/>
<path d="M24.8222 35.66C25.0735 35.3169 24.8075 34.6949 24.2282 34.2708C23.6489 33.8466 22.9756 33.781 22.7244 34.1241C22.4732 34.4672 22.7391 35.0892 23.3184 35.5133C23.8977 35.9375 24.571 36.0031 24.8222 35.66Z" fill="#1A2C38"/>
<path d="M58.6433 42.5686C59.1754 42.3115 59.484 41.8491 59.3326 41.5358C59.1812 41.2226 58.6272 41.177 58.0951 41.4341C57.563 41.6912 57.2544 42.1536 57.4057 42.4669C57.5571 42.7802 58.1112 42.8257 58.6433 42.5686Z" fill="#1A2C38"/>
<path d="M14.57 24.8001C11.25 27.4701 6.51003 32.3701 4.08003 35.4201C2.28003 37.6801 -0.0799723 43.2201 5.40003 46.4601C2.41003 40.4501 8.76003 35.6701 14 32.2501C15.29 31.0801 16.04 29.4301 16.09 27.6901L16.15 25.5301C16.17 24.7001 15.2 24.2501 14.58 24.8001H14.57Z" fill="#55DFFF"/>
<path d="M57.54 31.9C56.73 33.17 55.19 32.02 53.21 30.75C51.23 29.48 49.54 28.56 50.35 27.3C51.16 26.04 53.43 26.04 55.41 27.3C57.39 28.56 58.34 30.63 57.53 31.9H57.54Z" fill="white"/>
<path d="M42.81 40.01C42.67 40.83 38.91 40.5 34.34 39.71C29.77 38.92 26.12 37.95 26.26 37.13C26.4 36.31 30.28 35.95 34.85 36.74C39.42 37.53 42.95 39.19 42.81 40.01Z" fill="white"/>
</g>
<path fill-rule="evenodd" clip-rule="evenodd" d="M6.49771 79C6.98969 79 7.48602 79.213 7.49037 79.6913C7.49037 80.1043 7.24656 80.2696 6.99839 80.2696C6.75023 80.2696 6.73281 80.1435 6.73281 80.1435C6.73281 80.1435 7.02452 79.9261 7.02452 79.7174C7.02452 79.6087 6.94179 79.313 6.489 79.3174C5.8577 79.3174 5.5181 79.6174 5.5181 80.1522C5.5181 80.7652 7.35105 80.9739 7.3554 81.7652C7.3554 82.613 6.47594 82.9957 5.69225 83C5.283 83 5.01306 82.7609 5.00871 82.3783C5.00871 81.9261 5.22204 81.4652 5.75756 81.4652C5.88382 81.4565 5.98831 81.5522 5.99702 81.6783C5.99702 81.6783 5.99702 81.6826 5.99702 81.687C5.99702 81.687 5.45715 81.8391 5.4615 82.3783C5.4615 82.4783 5.56599 82.6609 5.81851 82.6565C6.07103 82.6522 6.82424 82.4739 6.81989 81.8087C6.81989 81.1913 5.00435 81.1087 5 80.1478C5 79.0652 6.08845 79.0087 6.49771 79.0087V79ZM10.747 79.6C10.8123 79.5696 11.2129 79.4913 11.1955 79.813C11.1824 80.1348 10.9386 80.6913 10.9037 80.9348C11.2303 80.7696 11.6918 80.2087 11.6918 80.2087C11.6918 80.2087 12.0183 80.2522 11.9182 80.4522C11.818 80.6522 11.1519 81.1435 11.1519 81.1435C11.1519 81.1435 11.3043 82.5696 12.1707 82.5696C12.6453 82.5696 12.8499 82.3609 12.937 82.287C12.9587 82.2696 12.9762 82.2652 12.9849 82.2783C13.0197 82.387 12.9936 82.5043 12.9152 82.5913C12.8194 82.6957 12.5974 82.8217 12.1533 82.8261C11.3653 82.8261 10.9255 82.1957 10.8123 81.2609C10.7252 81.5348 10.7339 81.9826 10.7209 82.2C10.6948 82.2435 10.2507 82.4174 10.2158 82.1174C10.2158 82.0913 10.2158 82.0696 10.2158 82.0435C10.1331 82.1609 10.0199 82.2826 9.91108 82.2826C9.71951 82.2826 9.63679 82.1217 9.60196 82.0391C9.57584 82.0696 9.3625 82.287 9.08821 82.287C8.92277 82.2913 8.77474 82.1957 8.70943 82.0435C8.57011 82.1435 8.32195 82.2913 8.03895 82.2913C7.73418 82.2913 7.66017 82.1087 7.66017 81.9565C7.66017 81.713 7.84303 80.987 7.84303 80.987C7.84303 80.987 7.48602 81.1304 7.36411 81.1348C7.19431 81.1348 7.11159 80.8217 7.11159 80.813C7.11159 80.8087 7.11159 80.8 7.1203 80.8C7.22044 80.7609 7.94317 80.513 7.94317 80.513C7.94317 80.513 8.07813 79.9826 8.09555 79.913C8.11296 79.8435 8.2131 79.7 8.33065 79.6565C8.41773 79.6217 8.50916 79.6 8.60059 79.5913C8.63107 79.5913 8.65284 79.6 8.65284 79.6174C8.65284 79.6348 8.47433 80.4087 8.47433 80.4087C8.47433 80.4087 8.84876 80.3217 8.98808 80.3217C9.09692 80.3217 9.15352 80.387 9.09257 80.4696C9.03162 80.5522 8.96196 80.6478 8.92712 80.6913C8.88794 80.7348 8.86182 80.7435 8.77039 80.7609C8.64413 80.787 8.36113 80.8565 8.36113 80.8565C8.36113 80.8565 8.13473 81.6783 8.13909 81.8174C8.13909 81.8957 8.16521 81.987 8.26099 81.987C8.35678 81.987 8.53964 81.8739 8.67025 81.7913C8.69202 81.1522 9.18835 80.7261 9.57584 80.7261C9.7021 80.7261 9.65421 80.8478 9.79788 80.8478H9.88931C9.94591 80.8478 10.0069 80.8522 10.0069 80.9957C10.0069 81.1957 9.89367 81.5261 9.89367 81.7348C9.89367 81.8826 9.91544 81.987 9.97204 81.987C10.0678 81.987 10.1767 81.8478 10.255 81.7261C10.3813 81.0304 10.734 79.7609 10.734 79.6174L10.747 79.6ZM12.5016 80.7C12.7672 80.6783 12.9326 80.8217 12.9631 80.9C12.9936 80.9783 12.9892 81.1609 12.9152 81.2913C12.6845 81.7044 12.1097 81.6304 12.1097 81.6304C12.1097 81.6304 12.0444 81.9565 12.3405 81.9565C12.593 81.9565 12.7062 81.8304 12.8151 81.7261C12.8586 81.7261 12.9936 81.8652 12.9326 81.9609C12.8847 82.0348 12.6191 82.2565 12.2795 82.2609C11.7397 82.2609 11.6047 81.8 11.6744 81.4696C11.7658 81.0609 12.1751 80.7217 12.5016 80.6957V80.7ZM9.6455 80.987C9.32332 80.987 8.82699 81.9696 9.20577 81.9652C9.61938 81.9652 9.6455 81.1826 9.6455 81.0043V80.987ZM12.6409 80.8913C12.4232 80.9 12.1751 81.3174 12.1533 81.5C12.4798 81.513 12.654 81.1957 12.6757 81.0696C12.6888 80.9739 12.6932 80.887 12.6409 80.887V80.8913Z" fill="#557086"/>
<path d="M56.1444 79.3778L56.6412 80.278L57.6518 80.4733C57.7792 80.4988 57.8302 80.6559 57.741 80.7494L57.0361 81.5009L57.1635 82.5243C57.1805 82.6559 57.0446 82.7494 56.93 82.6942L56 82.2568L55.0701 82.6942C54.9512 82.7494 54.8196 82.6517 54.8366 82.5243L54.9639 81.5009L54.2591 80.7494C54.1699 80.6559 54.2208 80.4988 54.3482 80.4733L55.3588 80.278L55.8557 79.3778C55.9194 79.2632 56.085 79.2632 56.1444 79.3778Z" fill="#FFC200"/>
<path d="M56 79.2929C56.0552 79.2929 56.1147 79.3226 56.1444 79.3778L56.6412 80.278L57.6518 80.4733C57.7792 80.4988 57.8302 80.6559 57.741 80.7494L57.0361 81.5009L57.1635 82.5243C57.1763 82.6262 57.0955 82.7111 56.9979 82.7111C56.9766 82.7111 56.9512 82.7069 56.9257 82.6942L55.9957 82.2568L55.0658 82.6942C55.0403 82.7069 55.0191 82.7111 54.9936 82.7111C54.9002 82.7111 54.8153 82.6262 54.828 82.5243L54.9554 81.5009L54.2505 80.7494C54.1613 80.6559 54.2123 80.4988 54.3397 80.4733L55.3503 80.278L55.8471 79.3778C55.8768 79.3226 55.9363 79.2929 55.9915 79.2929M56 79.0806C55.8641 79.0806 55.7367 79.157 55.6688 79.2759L55.2187 80.0912L54.3057 80.2653C54.1698 80.2908 54.0594 80.3884 54.017 80.5201C53.9745 80.6517 54.0085 80.7961 54.1019 80.8937L54.7388 81.5731L54.6242 82.4946C54.6115 82.6007 54.6454 82.7111 54.7134 82.7918C54.7856 82.8725 54.8875 82.9192 54.9979 82.9192C55.0531 82.9192 55.1083 82.9065 55.1592 82.881L56 82.4861L56.8408 82.881C56.8917 82.9065 56.9469 82.9192 57.0021 82.9192C57.1125 82.9192 57.2144 82.8725 57.2866 82.7918C57.3588 82.7111 57.3928 82.6007 57.3758 82.4946L57.2611 81.5731L57.8981 80.8937C57.9915 80.7918 58.0255 80.6474 57.983 80.5201C57.9405 80.3884 57.8301 80.2908 57.6943 80.2653L56.7813 80.0912L56.3312 79.2759C56.2633 79.157 56.1359 79.0806 56 79.0806Z" fill="#213743"/>
<path d="M56 79.8152V80.9744C56 81.0678 56.0892 81.1315 56.1784 81.106L57.2187 80.7706C57.2739 80.7536 57.2697 80.6729 57.2102 80.6602L56.5563 80.5413C56.4969 80.5286 56.4417 80.4903 56.4119 80.4351L56.085 79.7939C56.0637 79.7515 55.9958 79.7642 55.9958 79.8152H56Z" fill="#FFEBB8"/>
<path d="M56 81.4924V82.0699C56 82.1039 56.017 82.1294 56.0467 82.1464L56.7983 82.5073C56.8365 82.5243 56.8705 82.4818 56.845 82.4479L56.0934 81.4627C56.0637 81.4245 56 81.4457 56 81.4924Z" fill="#FF7F00"/>
<rect x="13" y="62" width="37" height="13" rx="6.5" fill="#2F4553"/>
<path d="M30.445 70H29.413V67.318L28.741 67.996L28.153 67.378L29.551 65.998H30.445V70ZM33.9146 70H32.9006L32.3426 69.124L31.7786 70H30.7706L31.7606 68.512L30.8306 67.102H31.8446L32.3426 67.888L32.8346 67.102H33.8486L32.9246 68.512L33.9146 70Z" fill="white"/>
<path d="M8.03 11H7.215L6.56 9.815H6.04V11H5.33V7.665H6.89C7.585 7.665 8.01 8.12 8.01 8.74C8.01 9.33 7.64 9.645 7.28 9.73L8.03 11ZM6.785 9.19C7.07 9.19 7.285 9.02 7.285 8.74C7.285 8.46 7.07 8.29 6.785 8.29H6.04V9.19H6.785ZM10.5152 11H9.88023V10.75C9.71523 10.945 9.43023 11.06 9.11523 11.06C8.73023 11.06 8.27523 10.8 8.27523 10.26C8.27523 9.695 8.73023 9.48 9.11523 9.48C9.43523 9.48 9.72023 9.585 9.88023 9.775V9.45C9.88023 9.205 9.67023 9.045 9.35023 9.045C9.09023 9.045 8.85023 9.14 8.64523 9.33L8.40523 8.905C8.70023 8.645 9.08023 8.525 9.46023 8.525C10.0102 8.525 10.5152 8.745 10.5152 9.44V11ZM9.37023 10.63C9.57523 10.63 9.77523 10.56 9.88023 10.42V10.12C9.77523 9.98 9.57523 9.91 9.37023 9.91C9.12023 9.91 8.91523 10.04 8.91523 10.275C8.91523 10.5 9.12023 10.63 9.37023 10.63ZM11.7801 11H11.1451V8.585H11.7801V8.915C11.9501 8.7 12.2501 8.525 12.5501 8.525V9.145C12.5051 9.135 12.4451 9.13 12.3751 9.13C12.1651 9.13 11.8851 9.25 11.7801 9.405V11ZM14.0818 11.06C13.3468 11.06 12.7918 10.565 12.7918 9.79C12.7918 9.09 13.3068 8.525 14.0418 8.525C14.7618 8.525 15.2518 9.065 15.2518 9.855V9.995H13.4568C13.4968 10.3 13.7418 10.555 14.1518 10.555C14.3568 10.555 14.6418 10.465 14.7968 10.315L15.0768 10.725C14.8368 10.945 14.4568 11.06 14.0818 11.06ZM14.6368 9.565C14.6218 9.335 14.4618 9.03 14.0418 9.03C13.6468 9.03 13.4768 9.325 13.4468 9.565H14.6368Z" fill="white"/>
<path d="M49.7874 11H49.3354L47.9434 9.096V11H47.4754V8.332H47.9554L49.3194 10.184V8.332H49.7874V11ZM51.2143 11.048C50.6023 11.048 50.2223 10.588 50.2223 10.032C50.2223 9.48 50.6023 9.02 51.2143 9.02C51.8343 9.02 52.2103 9.48 52.2103 10.032C52.2103 10.588 51.8343 11.048 51.2143 11.048ZM51.2143 10.676C51.5743 10.676 51.7743 10.376 51.7743 10.032C51.7743 9.692 51.5743 9.392 51.2143 9.392C50.8583 9.392 50.6583 9.692 50.6583 10.032C50.6583 10.376 50.8583 10.676 51.2143 10.676ZM52.8318 11.044C52.6798 11.044 52.5518 10.916 52.5518 10.764C52.5518 10.612 52.6798 10.484 52.8318 10.484C52.9838 10.484 53.1118 10.612 53.1118 10.764C53.1118 10.916 52.9838 11.044 52.8318 11.044ZM55.3476 11H54.8356L55.8436 8.744H54.4596V8.332H56.3836V8.656L55.3476 11ZM57.7165 11H57.2485V8.94L56.8125 9.392L56.5405 9.108L57.3085 8.332H57.7165V11Z" fill="white"/>
<defs>
<clipPath id="clip0_26835_29234">
<rect width="63" height="88" fill="white"/>
</clipPath>
</defs>
</svg>
