<svg width="63" height="88" viewBox="0 0 63 88" fill="none" xmlns="http://www.w3.org/2000/svg">
<rect width="63" height="88" rx="4" fill="#FF003F"/>
<path d="M36.7008 13.5133L44.7992 3.48665C45.5586 2.54645 46.7024 2 47.911 2H58C59.6569 2 61 3.34314 61 5V83C61 84.6569 59.6569 86 58 86H5C3.34315 86 2 84.6569 2 83V18C2 16.3431 3.34315 15 5 15H33.589C34.7976 15 35.9414 14.4536 36.7008 13.5133Z" fill="#213743"/>
<rect x="5" y="18" width="53" height="40" rx="1" fill="#2F4553"/>
<path d="M57 18H6C5.44772 18 5 18.4477 5 19V57C5 57.5523 5.44772 58 6 58H57C57.5523 58 58 57.5523 58 57V19C58 18.4477 57.5523 18 57 18Z" fill="#2F4553"/>
<path d="M57 18H6C5.44772 18 5 18.4477 5 19V57C5 57.5523 5.44772 58 6 58H57C57.5523 58 58 57.5523 58 57V19C58 18.4477 57.5523 18 57 18Z" fill="#0EC60E"/>
<path d="M6 58.0001H57C57.55 58.0001 58 57.5501 58 57.0001V32.0901C58 32.0901 57.93 32.0901 57.89 32.0901C31.75 31.7601 5 41.4001 5 41.4001V57.0101C5 57.5601 5.45 58.0101 6 58.0101V58.0001Z" fill="#1CE61C"/>
<path d="M12.53 23.78C11.97 23.78 11.46 24.28 11.31 25.08C10.67 24.05 9.7 23.7 9.04 24.08C8.38 24.46 8.19 25.48 8.77 26.55C8 26.28 7.32 26.47 7.03 26.96C6.53 27.83 7.47 29.31 9.75 29.46C8.38 31.18 9.33 33.02 10.41 34.18C10.7 34.49 11.08 34.91 11.52 35.38L12.29 36.19C14.46 38.46 17.44 41.29 18.59 40.63C19.48 40.12 19.1 37.59 18.47 35.07C18.4 34.78 18.32 34.48 18.24 34.19C17.82 32.64 17.36 31.18 17.09 30.31C16.63 28.79 15.51 27.05 13.34 27.37C14.35 25.32 13.53 23.77 12.53 23.77V23.78ZM10.79 28.46C10.79 28.46 10.81 28.47 10.82 28.48C10.82 28.48 10.81 28.48 10.8 28.49C10.8 28.49 10.8 28.47 10.78 28.46H10.79Z" fill="#1CE61C"/>
<path d="M33.88 13.3402C30.37 13.6302 28.15 20.4002 35.06 27.5802C40.69 19.3502 37.39 13.0502 33.88 13.3402Z" fill="#1CE61C"/>
<path d="M50.81 21.33C52.82 24.23 49.01 30.24 39.07 29.47C41.84 19.89 48.81 18.43 50.81 21.33Z" fill="#1CE61C"/>
<path d="M43.96 22.72C44.76 25.74 42.39 28.34 42.39 28.34L39.06 26.46L43.96 22.72Z" fill="#008C00"/>
<path d="M44.21 13.3801C40.52 11.6401 34.38 17.1401 37.15 28.3401C47.56 23.3501 47.9 15.1201 44.21 13.3801Z" fill="#1CE61C"/>
<path d="M42.4429 16.2947C43.3674 15.9145 43.9211 15.1302 43.6796 14.5428C43.4381 13.9554 42.4928 13.7873 41.5683 14.1674C40.6437 14.5476 40.09 15.3319 40.3315 15.9193C40.573 16.5067 41.5183 16.6748 42.4429 16.2947Z" fill="white"/>
<path d="M47.15 52.3401C51.51 54.7901 54.99 53.1601 55.08 51.0001C55.13 49.7901 54.1 48.6801 52.4 48.2901C54.66 47.0101 55.47 44.9601 54.71 43.5201C53.95 42.0801 51.79 41.5901 49.47 42.7401C50.1 41.1201 49.76 39.6401 48.74 39.0001C47.07 37.9501 44.19 39.4801 43.35 43.5101C39.84 40.2501 35.96 42.6101 32.85 44.2001C22.39 49.5301 13.79 50.8701 15.06 55.2601C15.38 56.3601 16.21 57.2701 17.41 58.0101H38.5C42 58.0101 46.94 55.2001 47.15 52.3501V52.3401Z" fill="#1A2C38"/>
<path d="M41.22 41.9202C31.29 54.2902 16.17 63.6202 10.22 59.1402C5.19 55.3502 13.55 46.7602 20.67 32.2202C23.27 26.9002 26.19 19.3202 36.93 24.3802C47.68 29.4502 44.93 37.3002 41.22 41.9202Z" fill="#FF7F00"/>
<path d="M31.5 51.75C31.5 51.75 29.95 50.47 27.35 49.27C24.1 47.78 21.44 47.08 21.64 48.33C22.21 51.85 29.01 53.69 29.01 53.69C29.01 53.69 30.07 52.95 31.49 51.75H31.5Z" fill="#FF5500"/>
<path d="M16.75 56.5602C18.65 56.2302 10.02 51.4602 10.01 51.4502C9.64002 52.2502 9.34002 52.9902 9.11002 53.6902C9.12002 53.6902 11.33 57.4902 16.75 56.5602Z" fill="#FF5500"/>
<path d="M23.08 37.14C28.4 38.21 16.55 52.35 14.46 50.9C13.17 50.01 14.55 48.35 16.93 44.39C19.16 40.68 21.29 36.77 23.08 37.13V37.14Z" fill="#FFA90A"/>
<path d="M30.7814 30.477C32.4417 29.6859 33.333 28.0907 32.7723 26.914C32.2116 25.7374 30.4111 25.425 28.7509 26.2161C27.0907 27.0073 26.1994 28.6025 26.7601 29.7791C27.3208 30.9558 29.1212 31.2682 30.7814 30.477Z" fill="white"/>
<path d="M26.85 34.94C27.11 33.66 31.81 34.58 34.88 36.46C37.48 38.06 39.64 41.12 38.92 42.2C38.1 43.43 26.54 36.51 26.85 34.94Z" fill="#FF5500"/>
<path d="M18.07 39.1901C18.19 38.0601 22.36 38.4601 25.19 39.8501C27.58 41.0201 29.73 43.5101 29.19 44.5101C28.58 45.6501 17.93 40.5901 18.07 39.1901Z" fill="#FF5500"/>
<path fill-rule="evenodd" clip-rule="evenodd" d="M6.49771 79C6.98969 79 7.48602 79.213 7.49037 79.6913C7.49037 80.1043 7.24656 80.2696 6.99839 80.2696C6.75023 80.2696 6.73281 80.1435 6.73281 80.1435C6.73281 80.1435 7.02452 79.9261 7.02452 79.7174C7.02452 79.6087 6.94179 79.313 6.489 79.3174C5.8577 79.3174 5.5181 79.6174 5.5181 80.1522C5.5181 80.7652 7.35105 80.9739 7.3554 81.7652C7.3554 82.613 6.47594 82.9957 5.69225 83C5.283 83 5.01306 82.7609 5.00871 82.3783C5.00871 81.9261 5.22204 81.4652 5.75756 81.4652C5.88382 81.4565 5.98831 81.5522 5.99702 81.6783C5.99702 81.6783 5.99702 81.6826 5.99702 81.687C5.99702 81.687 5.45715 81.8391 5.4615 82.3783C5.4615 82.4783 5.56599 82.6609 5.81851 82.6565C6.07103 82.6522 6.82424 82.4739 6.81989 81.8087C6.81989 81.1913 5.00435 81.1087 5 80.1478C5 79.0652 6.08845 79.0087 6.49771 79.0087V79ZM10.747 79.6C10.8123 79.5696 11.2129 79.4913 11.1955 79.813C11.1824 80.1348 10.9386 80.6913 10.9037 80.9348C11.2303 80.7696 11.6918 80.2087 11.6918 80.2087C11.6918 80.2087 12.0183 80.2522 11.9182 80.4522C11.818 80.6522 11.1519 81.1435 11.1519 81.1435C11.1519 81.1435 11.3043 82.5696 12.1707 82.5696C12.6453 82.5696 12.8499 82.3609 12.937 82.287C12.9587 82.2696 12.9762 82.2652 12.9849 82.2783C13.0197 82.387 12.9936 82.5043 12.9152 82.5913C12.8194 82.6957 12.5974 82.8217 12.1533 82.8261C11.3653 82.8261 10.9255 82.1957 10.8123 81.2609C10.7252 81.5348 10.7339 81.9826 10.7209 82.2C10.6948 82.2435 10.2507 82.4174 10.2158 82.1174C10.2158 82.0913 10.2158 82.0696 10.2158 82.0435C10.1331 82.1609 10.0199 82.2826 9.91108 82.2826C9.71951 82.2826 9.63679 82.1217 9.60196 82.0391C9.57584 82.0696 9.3625 82.287 9.08821 82.287C8.92277 82.2913 8.77474 82.1957 8.70943 82.0435C8.57011 82.1435 8.32195 82.2913 8.03895 82.2913C7.73418 82.2913 7.66017 82.1087 7.66017 81.9565C7.66017 81.713 7.84303 80.987 7.84303 80.987C7.84303 80.987 7.48602 81.1304 7.36411 81.1348C7.19431 81.1348 7.11159 80.8217 7.11159 80.813C7.11159 80.8087 7.11159 80.8 7.1203 80.8C7.22044 80.7609 7.94317 80.513 7.94317 80.513C7.94317 80.513 8.07813 79.9826 8.09555 79.913C8.11296 79.8435 8.2131 79.7 8.33065 79.6565C8.41773 79.6217 8.50916 79.6 8.60059 79.5913C8.63107 79.5913 8.65284 79.6 8.65284 79.6174C8.65284 79.6348 8.47433 80.4087 8.47433 80.4087C8.47433 80.4087 8.84876 80.3217 8.98808 80.3217C9.09692 80.3217 9.15352 80.387 9.09257 80.4696C9.03162 80.5522 8.96196 80.6478 8.92712 80.6913C8.88794 80.7348 8.86182 80.7435 8.77039 80.7609C8.64413 80.787 8.36113 80.8565 8.36113 80.8565C8.36113 80.8565 8.13473 81.6783 8.13909 81.8174C8.13909 81.8957 8.16521 81.987 8.26099 81.987C8.35678 81.987 8.53964 81.8739 8.67025 81.7913C8.69202 81.1522 9.18835 80.7261 9.57584 80.7261C9.7021 80.7261 9.65421 80.8478 9.79788 80.8478H9.88931C9.94591 80.8478 10.0069 80.8522 10.0069 80.9957C10.0069 81.1957 9.89367 81.5261 9.89367 81.7348C9.89367 81.8826 9.91544 81.987 9.97204 81.987C10.0678 81.987 10.1767 81.8478 10.255 81.7261C10.3813 81.0304 10.734 79.7609 10.734 79.6174L10.747 79.6ZM12.5016 80.7C12.7672 80.6783 12.9326 80.8217 12.9631 80.9C12.9936 80.9783 12.9892 81.1609 12.9152 81.2913C12.6845 81.7044 12.1097 81.6304 12.1097 81.6304C12.1097 81.6304 12.0444 81.9565 12.3405 81.9565C12.593 81.9565 12.7062 81.8304 12.8151 81.7261C12.8586 81.7261 12.9936 81.8652 12.9326 81.9609C12.8847 82.0348 12.6191 82.2565 12.2795 82.2609C11.7397 82.2609 11.6047 81.8 11.6744 81.4696C11.7658 81.0609 12.1751 80.7217 12.5016 80.6957V80.7ZM9.6455 80.987C9.32332 80.987 8.82699 81.9696 9.20577 81.9652C9.61938 81.9652 9.6455 81.1826 9.6455 81.0043V80.987ZM12.6409 80.8913C12.4232 80.9 12.1751 81.3174 12.1533 81.5C12.4798 81.513 12.654 81.1957 12.6757 81.0696C12.6888 80.9739 12.6932 80.887 12.6409 80.887V80.8913Z" fill="#557086"/>
<path d="M56.1444 79.3778L56.6412 80.278L57.6518 80.4733C57.7792 80.4988 57.8302 80.6559 57.741 80.7494L57.0361 81.5009L57.1635 82.5243C57.1805 82.6559 57.0446 82.7494 56.93 82.6942L56 82.2568L55.0701 82.6942C54.9512 82.7494 54.8196 82.6517 54.8366 82.5243L54.9639 81.5009L54.2591 80.7494C54.1699 80.6559 54.2208 80.4988 54.3482 80.4733L55.3588 80.278L55.8557 79.3778C55.9194 79.2632 56.085 79.2632 56.1444 79.3778Z" fill="#FFC200"/>
<path d="M56 79.2929C56.0552 79.2929 56.1147 79.3226 56.1444 79.3778L56.6412 80.278L57.6518 80.4733C57.7792 80.4988 57.8302 80.6559 57.741 80.7494L57.0361 81.5009L57.1635 82.5243C57.1763 82.6262 57.0955 82.7111 56.9979 82.7111C56.9766 82.7111 56.9512 82.7069 56.9257 82.6942L55.9957 82.2568L55.0658 82.6942C55.0403 82.7069 55.0191 82.7111 54.9936 82.7111C54.9002 82.7111 54.8153 82.6262 54.828 82.5243L54.9554 81.5009L54.2505 80.7494C54.1613 80.6559 54.2123 80.4988 54.3397 80.4733L55.3503 80.278L55.8471 79.3778C55.8768 79.3226 55.9363 79.2929 55.9915 79.2929M56 79.0806C55.8641 79.0806 55.7367 79.157 55.6688 79.2759L55.2187 80.0912L54.3057 80.2653C54.1698 80.2908 54.0594 80.3884 54.017 80.5201C53.9745 80.6517 54.0085 80.7961 54.1019 80.8937L54.7388 81.5731L54.6242 82.4946C54.6115 82.6007 54.6454 82.7111 54.7134 82.7918C54.7856 82.8725 54.8875 82.9192 54.9979 82.9192C55.0531 82.9192 55.1083 82.9065 55.1592 82.881L56 82.4861L56.8408 82.881C56.8917 82.9065 56.9469 82.9192 57.0021 82.9192C57.1125 82.9192 57.2144 82.8725 57.2866 82.7918C57.3588 82.7111 57.3928 82.6007 57.3758 82.4946L57.2611 81.5731L57.8981 80.8937C57.9915 80.7918 58.0255 80.6474 57.983 80.5201C57.9405 80.3884 57.8301 80.2908 57.6943 80.2653L56.7813 80.0912L56.3312 79.2759C56.2633 79.157 56.1359 79.0806 56 79.0806Z" fill="#213743"/>
<path d="M56 79.8152V80.9744C56 81.0678 56.0892 81.1315 56.1784 81.106L57.2187 80.7706C57.2739 80.7536 57.2697 80.6729 57.2102 80.6602L56.5563 80.5413C56.4969 80.5286 56.4417 80.4903 56.4119 80.4351L56.085 79.7939C56.0637 79.7515 55.9958 79.7642 55.9958 79.8152H56Z" fill="#FFEBB8"/>
<path d="M56 81.4924V82.0699C56 82.1039 56.017 82.1294 56.0467 82.1464L56.7983 82.5073C56.8365 82.5243 56.8705 82.4818 56.845 82.4479L56.0934 81.4627C56.0637 81.4245 56 81.4457 56 81.4924Z" fill="#FF7F00"/>
<rect x="13" y="62" width="37" height="13" rx="6.5" fill="#2F4553"/>
<path d="M30.445 70H29.413V67.318L28.741 67.996L28.153 67.378L29.551 65.998H30.445V70ZM33.9146 70H32.9006L32.3426 69.124L31.7786 70H30.7706L31.7606 68.512L30.8306 67.102H31.8446L32.3426 67.888L32.8346 67.102H33.8486L32.9246 68.512L33.9146 70Z" fill="white"/>
<path d="M8.03 11H7.215L6.56 9.815H6.04V11H5.33V7.665H6.89C7.585 7.665 8.01 8.12 8.01 8.74C8.01 9.33 7.64 9.645 7.28 9.73L8.03 11ZM6.785 9.19C7.07 9.19 7.285 9.02 7.285 8.74C7.285 8.46 7.07 8.29 6.785 8.29H6.04V9.19H6.785ZM10.5152 11H9.88023V10.75C9.71523 10.945 9.43023 11.06 9.11523 11.06C8.73023 11.06 8.27523 10.8 8.27523 10.26C8.27523 9.695 8.73023 9.48 9.11523 9.48C9.43523 9.48 9.72023 9.585 9.88023 9.775V9.45C9.88023 9.205 9.67023 9.045 9.35023 9.045C9.09023 9.045 8.85023 9.14 8.64523 9.33L8.40523 8.905C8.70023 8.645 9.08023 8.525 9.46023 8.525C10.0102 8.525 10.5152 8.745 10.5152 9.44V11ZM9.37023 10.63C9.57523 10.63 9.77523 10.56 9.88023 10.42V10.12C9.77523 9.98 9.57523 9.91 9.37023 9.91C9.12023 9.91 8.91523 10.04 8.91523 10.275C8.91523 10.5 9.12023 10.63 9.37023 10.63ZM11.7801 11H11.1451V8.585H11.7801V8.915C11.9501 8.7 12.2501 8.525 12.5501 8.525V9.145C12.5051 9.135 12.4451 9.13 12.3751 9.13C12.1651 9.13 11.8851 9.25 11.7801 9.405V11ZM14.0818 11.06C13.3468 11.06 12.7918 10.565 12.7918 9.79C12.7918 9.09 13.3068 8.525 14.0418 8.525C14.7618 8.525 15.2518 9.065 15.2518 9.855V9.995H13.4568C13.4968 10.3 13.7418 10.555 14.1518 10.555C14.3568 10.555 14.6418 10.465 14.7968 10.315L15.0768 10.725C14.8368 10.945 14.4568 11.06 14.0818 11.06ZM14.6368 9.565C14.6218 9.335 14.4618 9.03 14.0418 9.03C13.6468 9.03 13.4768 9.325 13.4468 9.565H14.6368Z" fill="white"/>
<path d="M48.928 11H48.476L47.084 9.096V11H46.616V8.332H47.096L48.46 10.184V8.332H48.928V11ZM50.3549 11.048C49.7429 11.048 49.3629 10.588 49.3629 10.032C49.3629 9.48 49.7429 9.02 50.3549 9.02C50.9749 9.02 51.3509 9.48 51.3509 10.032C51.3509 10.588 50.9749 11.048 50.3549 11.048ZM50.3549 10.676C50.7149 10.676 50.9149 10.376 50.9149 10.032C50.9149 9.692 50.7149 9.392 50.3549 9.392C49.9989 9.392 49.7989 9.692 49.7989 10.032C49.7989 10.376 49.9989 10.676 50.3549 10.676ZM51.9724 11.044C51.8204 11.044 51.6924 10.916 51.6924 10.764C51.6924 10.612 51.8204 10.484 51.9724 10.484C52.1244 10.484 52.2524 10.612 52.2524 10.764C52.2524 10.916 52.1244 11.044 51.9724 11.044ZM54.4882 11H53.9762L54.9842 8.744H53.6002V8.332H55.5242V8.656L54.4882 11ZM57.7531 11H55.8211V10.632C56.8571 9.848 57.2611 9.5 57.2611 9.116C57.2611 8.836 57.0211 8.708 56.7771 8.708C56.4651 8.708 56.2251 8.836 56.0571 9.028L55.7851 8.72C56.0211 8.436 56.3971 8.292 56.7691 8.292C57.2851 8.292 57.7371 8.584 57.7371 9.116C57.7371 9.608 57.2851 10.048 56.5691 10.588H57.7531V11Z" fill="white"/>
</svg>
