<svg width="63" height="88" viewBox="0 0 63 88" fill="none" xmlns="http://www.w3.org/2000/svg">
<rect width="63" height="88" rx="4" fill="#FF003F"/>
<path d="M36.7008 13.5133L44.7992 3.48665C45.5586 2.54645 46.7024 2 47.911 2H58C59.6569 2 61 3.34314 61 5V83C61 84.6569 59.6569 86 58 86H5C3.34315 86 2 84.6569 2 83V18C2 16.3431 3.34315 15 5 15H33.589C34.7976 15 35.9414 14.4536 36.7008 13.5133Z" fill="#213743"/>
<rect x="5" y="18" width="53" height="40" rx="1" fill="#2F4553"/>
<path d="M57 18H6C5.44772 18 5 18.4477 5 19V57C5 57.5523 5.44772 58 6 58H57C57.5523 58 58 57.5523 58 57V19C58 18.4477 57.5523 18 57 18Z" fill="#047BFF"/>
<path d="M58 34.96C55.88 33.32 53.83 31.6 53.83 26.97C53.83 22.86 51.79 19.96 48.38 17.99H13.06C9.58 19.76 6.76 22.08 5 24.72V46.6C8.69 48.87 14.55 50.41 15.08 57.99H45.23C46.19 56.84 46.76 55.61 46.76 54.35C46.76 48.23 53.31 49.6 58.01 48.76V34.96H58Z" fill="#00BAFF"/>
<path d="M49 58C57 50.4 53.6667 48.5 51 48.5H11C4.60001 46.9 10.3333 54.1667 14 58H49Z" fill="#1A2C38"/>
<path d="M14.81 46.1298C14.58 42.8498 19.87 40.0998 23.57 42.9898C27.27 45.8798 17.12 48.9898 17.12 48.9898L14.81 46.1198V46.1298Z" fill="#FF5500"/>
<path d="M48.06 46.2201C48.29 42.9401 43.12 40.1001 39.41 42.9901C35.7 45.8801 45.86 48.9901 45.86 48.9901L48.05 46.2201H48.06Z" fill="#FF5500"/>
<path d="M31.5 11.24C26.69 11.24 24.28 14.95 24.28 14.95L31.5 40.72L38.72 14.95C38.72 14.95 36.31 11.24 31.5 11.24Z" fill="#FFC201"/>
<path d="M24.28 14.9501C24.28 14.9501 15.88 13.3501 14.46 22.5201L31.5 40.7201L24.28 14.9501Z" fill="#FF7F00"/>
<path d="M38.72 14.9501C38.72 14.9501 47.12 13.3501 48.54 22.5201L31.5 40.7201L38.72 14.9501Z" fill="#FF7F00"/>
<path d="M14.46 22.52C14.46 22.52 7.35998 23.82 8.60998 32.81L31.5 40.72L14.46 22.52Z" fill="#FF5500"/>
<path d="M48.54 22.52C48.54 22.52 55.64 23.82 54.39 32.81L31.5 40.72L48.54 22.52Z" fill="#FF5500"/>
<path d="M8.60999 32.8101C8.60999 32.8101 7.87999 33.8001 7.46999 35.3201C6.60999 38.4601 9.06999 41.5301 12.32 41.4101L31.49 40.7301L8.59999 32.8201L8.60999 32.8101Z" fill="#FF7F00"/>
<path d="M54.39 32.8101C54.39 32.8101 55.12 33.8001 55.53 35.3201C56.39 38.4601 53.93 41.5301 50.68 41.4101L31.51 40.7301L54.4 32.8201L54.39 32.8101Z" fill="#FF7F00"/>
<path d="M10.89 44.4399C10.48 44.5099 10.18 44.8599 10.17 45.2799C10.12 47.3999 10.49 53.4599 16.64 52.9899C21.87 52.5899 18.15 48.3099 15.48 45.7899C14.25 44.6399 12.55 44.1399 10.89 44.4399Z" fill="#FF5500"/>
<path d="M46.56 52.9999C46.49 52.9999 46.43 52.9999 46.36 52.9899C41.93 52.6499 43.91 49.5299 46.25 47.0499C46.68 46.5999 47.11 46.1799 47.52 45.7899C48.75 44.6399 50.45 44.1399 52.11 44.4399C52.51 44.5199 52.82 44.8599 52.83 45.2799C52.88 47.3699 52.52 53.3299 46.56 52.9999Z" fill="#FF5500"/>
<path d="M46.56 52.9999L47.56 49.8399C48.88 49.5199 52.86 45.1399 52 44.7499C51.13 44.3599 48.72 45.5299 47.32 46.8299C46.91 47.2099 46.55 47.2299 46.25 47.0499C46.68 46.5999 47.11 46.1799 47.52 45.7899C48.75 44.6399 50.45 44.1399 52.11 44.4399C52.51 44.5199 52.82 44.8599 52.83 45.2799C52.88 47.3699 52.52 53.3299 46.56 52.9999Z" fill="#FF7F00"/>
<path d="M16.44 52.9999L15.44 49.8399C14.12 49.5199 10.14 45.1399 11 44.7499C11.87 44.3599 14.28 45.5299 15.68 46.8299C16.09 47.2099 16.45 47.2299 16.75 47.0499C16.32 46.5999 15.89 46.1799 15.48 45.7899C14.25 44.6399 12.55 44.1399 10.89 44.4399C10.49 44.5199 10.18 44.8599 10.17 45.2799C10.12 47.3699 10.48 53.3299 16.44 52.9999Z" fill="#FF7F00"/>
<path d="M47.56 48.3302C47.56 53.1202 40.37 54.3602 31.5 54.3602C22.63 54.3602 15.44 53.1202 15.44 48.3302C15.44 43.5402 22.63 39.6602 31.5 39.6602C40.37 39.6602 47.56 43.5402 47.56 48.3302Z" fill="#FFC201"/>
<path d="M24.78 53.34C24.78 53.34 21.49 49.37 15.91 48.92C15.27 48.87 14.74 49.41 14.82 50.04C15.17 52.81 16.99 59.47 26.49 58.43L24.79 53.35L24.78 53.34Z" fill="#FF7F00"/>
<path d="M38.22 53.34C38.22 53.34 41.54 49.37 47.12 48.92C47.76 48.87 48.29 49.41 48.21 50.04C47.86 52.81 46.04 59.47 36.54 58.43L38.22 53.35V53.34Z" fill="#FF7F00"/>
<path d="M31.56 45.44C35.0118 45.44 37.81 44.2849 37.81 42.86C37.81 41.4351 35.0118 40.28 31.56 40.28C28.1082 40.28 25.31 41.4351 25.31 42.86C25.31 44.2849 28.1082 45.44 31.56 45.44Z" fill="#1A2C38"/>
<path d="M31.5 43.6199C35.4378 43.6199 38.63 40.4277 38.63 36.4899C38.63 32.5521 35.4378 29.3599 31.5 29.3599C27.5622 29.3599 24.37 32.5521 24.37 36.4899C24.37 40.4277 27.5622 43.6199 31.5 43.6199Z" fill="#FFEBB8"/>
<path d="M33.67 41.4798C32.21 42.9398 29.45 42.5598 27.51 40.6198C25.57 38.6798 25.19 35.9198 26.65 34.4598C28.11 32.9998 29.63 34.6198 31.57 36.5598C33.51 38.4998 35.13 40.0198 33.67 41.4798Z" fill="#FFD978"/>
<path d="M31.56 33.69C33.0456 33.69 34.25 32.9692 34.25 32.08C34.25 31.1908 33.0456 30.47 31.56 30.47C30.0743 30.47 28.87 31.1908 28.87 32.08C28.87 32.9692 30.0743 33.69 31.56 33.69Z" fill="white"/>
<path d="M36.21 37.21C37.04 38.56 36.27 40.5501 34.49 41.6501C32.71 42.7501 30.58 42.5601 29.74 41.2101C28.9 39.8601 30.27 38.8301 32.05 37.7201C33.83 36.6101 35.37 35.8601 36.21 37.2001V37.21Z" fill="white"/>
<path d="M37.27 58.4898C37.04 58.4798 36.8 58.4598 36.55 58.4298L37.98 54.0898C39.86 54.3598 40.4 57.5198 37.28 58.4898H37.27Z" fill="#FF5500"/>
<path d="M25.79 58.4898C26.02 58.4798 26.26 58.4598 26.51 58.4298L25.08 54.0898C23.2 54.3598 22.66 57.5198 25.78 58.4898H25.79Z" fill="#FF5500"/>
<path d="M31.5 51.21C27.02 51.21 24.78 53.34 24.78 53.34C24.78 57.03 26.48 60.27 31.56 60.27C36.64 60.27 38.22 57.03 38.22 53.34C38.22 53.34 35.98 51.21 31.5 51.21Z" fill="#FF7F00"/>
<path d="M31.5 54.7299C33.0243 54.7299 34.26 54.2733 34.26 53.7099C34.26 53.1466 33.0243 52.6899 31.5 52.6899C29.9757 52.6899 28.74 53.1466 28.74 53.7099C28.74 54.2733 29.9757 54.7299 31.5 54.7299Z" fill="white"/>
<path d="M31.5 15.31C33.3943 15.31 34.93 14.6922 34.93 13.93C34.93 13.1679 33.3943 12.55 31.5 12.55C29.6057 12.55 28.07 13.1679 28.07 13.93C28.07 14.6922 29.6057 15.31 31.5 15.31Z" fill="white"/>
<path d="M43.02 25.0901C42.12 26.4801 41.4 27.2101 40.01 28.1001C41.4 29.0001 42.13 29.7201 43.02 31.1101C43.92 29.7201 44.64 28.9901 46.03 28.1001C44.64 27.2001 43.91 26.4801 43.02 25.0901Z" fill="white"/>
<path d="M19.91 34.0901C18.76 34.3401 18.03 34.3401 16.88 34.0901C17.13 35.2401 17.13 35.9701 16.88 37.1201C18.03 36.8701 18.76 36.8701 19.91 37.1201C19.66 35.9701 19.66 35.2401 19.91 34.0901Z" fill="white"/>
<path fill-rule="evenodd" clip-rule="evenodd" d="M6.49771 79C6.98969 79 7.48602 79.213 7.49037 79.6913C7.49037 80.1043 7.24656 80.2696 6.99839 80.2696C6.75023 80.2696 6.73281 80.1435 6.73281 80.1435C6.73281 80.1435 7.02452 79.9261 7.02452 79.7174C7.02452 79.6087 6.94179 79.313 6.489 79.3174C5.8577 79.3174 5.5181 79.6174 5.5181 80.1522C5.5181 80.7652 7.35105 80.9739 7.3554 81.7652C7.3554 82.613 6.47594 82.9957 5.69225 83C5.283 83 5.01306 82.7609 5.00871 82.3783C5.00871 81.9261 5.22204 81.4652 5.75756 81.4652C5.88382 81.4565 5.98831 81.5522 5.99702 81.6783C5.99702 81.6783 5.99702 81.6826 5.99702 81.687C5.99702 81.687 5.45715 81.8391 5.4615 82.3783C5.4615 82.4783 5.56599 82.6609 5.81851 82.6565C6.07103 82.6522 6.82424 82.4739 6.81989 81.8087C6.81989 81.1913 5.00435 81.1087 5 80.1478C5 79.0652 6.08845 79.0087 6.49771 79.0087V79ZM10.747 79.6C10.8123 79.5696 11.2129 79.4913 11.1955 79.813C11.1824 80.1348 10.9386 80.6913 10.9037 80.9348C11.2303 80.7696 11.6918 80.2087 11.6918 80.2087C11.6918 80.2087 12.0183 80.2522 11.9182 80.4522C11.818 80.6522 11.1519 81.1435 11.1519 81.1435C11.1519 81.1435 11.3043 82.5696 12.1707 82.5696C12.6453 82.5696 12.8499 82.3609 12.937 82.287C12.9587 82.2696 12.9762 82.2652 12.9849 82.2783C13.0197 82.387 12.9936 82.5043 12.9152 82.5913C12.8194 82.6957 12.5974 82.8217 12.1533 82.8261C11.3653 82.8261 10.9255 82.1957 10.8123 81.2609C10.7252 81.5348 10.7339 81.9826 10.7209 82.2C10.6948 82.2435 10.2507 82.4174 10.2158 82.1174C10.2158 82.0913 10.2158 82.0696 10.2158 82.0435C10.1331 82.1609 10.0199 82.2826 9.91108 82.2826C9.71951 82.2826 9.63679 82.1217 9.60196 82.0391C9.57584 82.0696 9.3625 82.287 9.08821 82.287C8.92277 82.2913 8.77474 82.1957 8.70943 82.0435C8.57011 82.1435 8.32195 82.2913 8.03895 82.2913C7.73418 82.2913 7.66017 82.1087 7.66017 81.9565C7.66017 81.713 7.84303 80.987 7.84303 80.987C7.84303 80.987 7.48602 81.1304 7.36411 81.1348C7.19431 81.1348 7.11159 80.8217 7.11159 80.813C7.11159 80.8087 7.11159 80.8 7.1203 80.8C7.22044 80.7609 7.94317 80.513 7.94317 80.513C7.94317 80.513 8.07813 79.9826 8.09555 79.913C8.11296 79.8435 8.2131 79.7 8.33065 79.6565C8.41773 79.6217 8.50916 79.6 8.60059 79.5913C8.63107 79.5913 8.65284 79.6 8.65284 79.6174C8.65284 79.6348 8.47433 80.4087 8.47433 80.4087C8.47433 80.4087 8.84876 80.3217 8.98808 80.3217C9.09692 80.3217 9.15352 80.387 9.09257 80.4696C9.03162 80.5522 8.96196 80.6478 8.92712 80.6913C8.88794 80.7348 8.86182 80.7435 8.77039 80.7609C8.64413 80.787 8.36113 80.8565 8.36113 80.8565C8.36113 80.8565 8.13473 81.6783 8.13909 81.8174C8.13909 81.8957 8.16521 81.987 8.26099 81.987C8.35678 81.987 8.53964 81.8739 8.67025 81.7913C8.69202 81.1522 9.18835 80.7261 9.57584 80.7261C9.7021 80.7261 9.65421 80.8478 9.79788 80.8478H9.88931C9.94591 80.8478 10.0069 80.8522 10.0069 80.9957C10.0069 81.1957 9.89367 81.5261 9.89367 81.7348C9.89367 81.8826 9.91544 81.987 9.97204 81.987C10.0678 81.987 10.1767 81.8478 10.255 81.7261C10.3813 81.0304 10.734 79.7609 10.734 79.6174L10.747 79.6ZM12.5016 80.7C12.7672 80.6783 12.9326 80.8217 12.9631 80.9C12.9936 80.9783 12.9892 81.1609 12.9152 81.2913C12.6845 81.7044 12.1097 81.6304 12.1097 81.6304C12.1097 81.6304 12.0444 81.9565 12.3405 81.9565C12.593 81.9565 12.7062 81.8304 12.8151 81.7261C12.8586 81.7261 12.9936 81.8652 12.9326 81.9609C12.8847 82.0348 12.6191 82.2565 12.2795 82.2609C11.7397 82.2609 11.6047 81.8 11.6744 81.4696C11.7658 81.0609 12.1751 80.7217 12.5016 80.6957V80.7ZM9.6455 80.987C9.32332 80.987 8.82699 81.9696 9.20577 81.9652C9.61938 81.9652 9.6455 81.1826 9.6455 81.0043V80.987ZM12.6409 80.8913C12.4232 80.9 12.1751 81.3174 12.1533 81.5C12.4798 81.513 12.654 81.1957 12.6757 81.0696C12.6888 80.9739 12.6932 80.887 12.6409 80.887V80.8913Z" fill="#557086"/>
<path d="M56.1444 79.3778L56.6412 80.278L57.6518 80.4733C57.7792 80.4988 57.8302 80.6559 57.741 80.7494L57.0361 81.5009L57.1635 82.5243C57.1805 82.6559 57.0446 82.7494 56.93 82.6942L56 82.2568L55.0701 82.6942C54.9512 82.7494 54.8196 82.6517 54.8366 82.5243L54.9639 81.5009L54.2591 80.7494C54.1699 80.6559 54.2208 80.4988 54.3482 80.4733L55.3588 80.278L55.8557 79.3778C55.9194 79.2632 56.085 79.2632 56.1444 79.3778Z" fill="#FFC200"/>
<path d="M56 79.2929C56.0552 79.2929 56.1147 79.3226 56.1444 79.3778L56.6412 80.278L57.6518 80.4733C57.7792 80.4988 57.8302 80.6559 57.741 80.7494L57.0361 81.5009L57.1635 82.5243C57.1763 82.6262 57.0955 82.7111 56.9979 82.7111C56.9766 82.7111 56.9512 82.7069 56.9257 82.6942L55.9957 82.2568L55.0658 82.6942C55.0403 82.7069 55.0191 82.7111 54.9936 82.7111C54.9002 82.7111 54.8153 82.6262 54.828 82.5243L54.9554 81.5009L54.2505 80.7494C54.1613 80.6559 54.2123 80.4988 54.3397 80.4733L55.3503 80.278L55.8471 79.3778C55.8768 79.3226 55.9363 79.2929 55.9915 79.2929M56 79.0806C55.8641 79.0806 55.7367 79.157 55.6688 79.2759L55.2187 80.0912L54.3057 80.2653C54.1698 80.2908 54.0594 80.3884 54.017 80.5201C53.9745 80.6517 54.0085 80.7961 54.1019 80.8937L54.7388 81.5731L54.6242 82.4946C54.6115 82.6007 54.6454 82.7111 54.7134 82.7918C54.7856 82.8725 54.8875 82.9192 54.9979 82.9192C55.0531 82.9192 55.1083 82.9065 55.1592 82.881L56 82.4861L56.8408 82.881C56.8917 82.9065 56.9469 82.9192 57.0021 82.9192C57.1125 82.9192 57.2144 82.8725 57.2866 82.7918C57.3588 82.7111 57.3928 82.6007 57.3758 82.4946L57.2611 81.5731L57.8981 80.8937C57.9915 80.7918 58.0255 80.6474 57.983 80.5201C57.9405 80.3884 57.8301 80.2908 57.6943 80.2653L56.7813 80.0912L56.3312 79.2759C56.2633 79.157 56.1359 79.0806 56 79.0806Z" fill="#213743"/>
<path d="M56 79.8152V80.9744C56 81.0678 56.0892 81.1315 56.1784 81.106L57.2187 80.7706C57.2739 80.7536 57.2697 80.6729 57.2102 80.6602L56.5563 80.5413C56.4969 80.5286 56.4417 80.4903 56.4119 80.4351L56.085 79.7939C56.0637 79.7515 55.9958 79.7642 55.9958 79.8152H56Z" fill="#FFEBB8"/>
<path d="M56 81.4924V82.0699C56 82.1039 56.017 82.1294 56.0467 82.1464L56.7983 82.5073C56.8365 82.5243 56.8705 82.4818 56.845 82.4479L56.0934 81.4627C56.0637 81.4245 56 81.4457 56 81.4924Z" fill="#FF7F00"/>
<rect x="13" y="62" width="37" height="13" rx="6.5" fill="#2F4553"/>
<path d="M30.445 70H29.413V67.318L28.741 67.996L28.153 67.378L29.551 65.998H30.445V70ZM33.9146 70H32.9006L32.3426 69.124L31.7786 70H30.7706L31.7606 68.512L30.8306 67.102H31.8446L32.3426 67.888L32.8346 67.102H33.8486L32.9246 68.512L33.9146 70Z" fill="white"/>
<path d="M8.03 11H7.215L6.56 9.815H6.04V11H5.33V7.665H6.89C7.585 7.665 8.01 8.12 8.01 8.74C8.01 9.33 7.64 9.645 7.28 9.73L8.03 11ZM6.785 9.19C7.07 9.19 7.285 9.02 7.285 8.74C7.285 8.46 7.07 8.29 6.785 8.29H6.04V9.19H6.785ZM10.5152 11H9.88023V10.75C9.71523 10.945 9.43023 11.06 9.11523 11.06C8.73023 11.06 8.27523 10.8 8.27523 10.26C8.27523 9.695 8.73023 9.48 9.11523 9.48C9.43523 9.48 9.72023 9.585 9.88023 9.775V9.45C9.88023 9.205 9.67023 9.045 9.35023 9.045C9.09023 9.045 8.85023 9.14 8.64523 9.33L8.40523 8.905C8.70023 8.645 9.08023 8.525 9.46023 8.525C10.0102 8.525 10.5152 8.745 10.5152 9.44V11ZM9.37023 10.63C9.57523 10.63 9.77523 10.56 9.88023 10.42V10.12C9.77523 9.98 9.57523 9.91 9.37023 9.91C9.12023 9.91 8.91523 10.04 8.91523 10.275C8.91523 10.5 9.12023 10.63 9.37023 10.63ZM11.7801 11H11.1451V8.585H11.7801V8.915C11.9501 8.7 12.2501 8.525 12.5501 8.525V9.145C12.5051 9.135 12.4451 9.13 12.3751 9.13C12.1651 9.13 11.8851 9.25 11.7801 9.405V11ZM14.0818 11.06C13.3468 11.06 12.7918 10.565 12.7918 9.79C12.7918 9.09 13.3068 8.525 14.0418 8.525C14.7618 8.525 15.2518 9.065 15.2518 9.855V9.995H13.4568C13.4968 10.3 13.7418 10.555 14.1518 10.555C14.3568 10.555 14.6418 10.465 14.7968 10.315L15.0768 10.725C14.8368 10.945 14.4568 11.06 14.0818 11.06ZM14.6368 9.565C14.6218 9.335 14.4618 9.03 14.0418 9.03C13.6468 9.03 13.4768 9.325 13.4468 9.565H14.6368Z" fill="white"/>
<path d="M49.0101 11H48.5581L47.1661 9.096V11H46.6981V8.332H47.1781L48.5421 10.184V8.332H49.0101V11ZM50.437 11.048C49.825 11.048 49.445 10.588 49.445 10.032C49.445 9.48 49.825 9.02 50.437 9.02C51.057 9.02 51.433 9.48 51.433 10.032C51.433 10.588 51.057 11.048 50.437 11.048ZM50.437 10.676C50.797 10.676 50.997 10.376 50.997 10.032C50.997 9.692 50.797 9.392 50.437 9.392C50.081 9.392 49.881 9.692 49.881 10.032C49.881 10.376 50.081 10.676 50.437 10.676ZM52.0544 11.044C51.9024 11.044 51.7744 10.916 51.7744 10.764C51.7744 10.612 51.9024 10.484 52.0544 10.484C52.2064 10.484 52.3344 10.612 52.3344 10.764C52.3344 10.916 52.2064 11.044 52.0544 11.044ZM54.5702 11H54.0582L55.0662 8.744H53.6822V8.332H55.6062V8.656L54.5702 11ZM56.8071 11.048C56.3311 11.048 55.9791 10.856 55.7991 10.616L56.0511 10.308C56.2231 10.508 56.5071 10.632 56.7911 10.632C57.1431 10.632 57.3471 10.472 57.3471 10.224C57.3471 9.96 57.1351 9.848 56.7551 9.848C56.6431 9.848 56.4871 9.848 56.4471 9.852V9.432C56.4951 9.436 56.6511 9.436 56.7551 9.436C57.0671 9.436 57.3031 9.328 57.3031 9.084C57.3031 8.836 57.0631 8.708 56.7631 8.708C56.4911 8.708 56.2671 8.812 56.0751 9.004L55.8351 8.712C56.0391 8.472 56.3631 8.292 56.8071 8.292C57.3831 8.292 57.7711 8.564 57.7711 9.012C57.7711 9.368 57.4671 9.576 57.1911 9.624C57.4511 9.648 57.8111 9.86 57.8111 10.272C57.8111 10.724 57.4231 11.048 56.8071 11.048Z" fill="white"/>
</svg>
