<svg width="63" height="88" viewBox="0 0 63 88" fill="none" xmlns="http://www.w3.org/2000/svg">
<rect width="63" height="88" rx="4" fill="#FF003F"/>
<path d="M36.7008 13.5133L44.7992 3.48665C45.5586 2.54645 46.7024 2 47.911 2H58C59.6569 2 61 3.34314 61 5V83C61 84.6569 59.6569 86 58 86H5C3.34315 86 2 84.6569 2 83V18C2 16.3431 3.34315 15 5 15H33.589C34.7976 15 35.9414 14.4536 36.7008 13.5133Z" fill="#213743"/>
<rect x="5" y="18" width="53" height="40" rx="1" fill="#2F4553"/>
<g clip-path="url(#clip0_26835_29238)">
<path d="M57 18H6C5.44772 18 5 18.4477 5 19V57C5 57.5523 5.44772 58 6 58H57C57.5523 58 58 57.5523 58 57V19C58 18.4477 57.5523 18 57 18Z" fill="#1CE61C"/>
<path d="M7.28 18L18.01 40.82H33.4L15.18 18H7.28Z" fill="#0EC60E"/>
<path d="M19.56 18L37.39 29.5L42.91 18H19.56Z" fill="#0EC60E"/>
<path d="M39.07 21.39C39.07 21.39 38.12 19.36 36.72 19.85C35.32 20.34 35.77 26.18 35.77 26.18L37.38 26.48L39.06 21.39H39.07Z" fill="#1A2C38"/>
<path d="M22.31 35.5599L35.85 27.7499L39.13 18.5599C39.25 18.2299 39.44 17.9399 39.71 17.7199C41.15 16.4999 46.03 13.2499 50.43 20.9799L50.2 31.4799L30.17 39.8599L22.31 35.5599Z" fill="#FFC200"/>
<path d="M43.81 18.74C45.24 17.31 48.23 24.01 48.04 25.35C47.85 26.69 45.23 25.35 42.65 25.35C40.07 25.35 38.17 24.38 43.81 18.74Z" fill="#FF7F00"/>
<path d="M57.88 30.54C57.88 30.54 60.02 34.5 59.56 39.87L55.31 44.16L49.93 44.54L57.87 30.54H57.88Z" fill="#FF7F00"/>
<path d="M11.35 38.63C11.35 38.63 10.31 38.24 8.62 42.45L11.98 45.48L37.89 47.99L41.39 48.97L42.9 42.03L17.65 38.25L11.35 38.64V38.63Z" fill="#FF7F00"/>
<path d="M46.51 24.0701L44.96 23.8201C44.96 23.8201 44.09 23.4801 45.11 22.4601C46.13 21.4401 48.84 18.2701 51.65 20.8001C51.65 20.8001 53.46 20.1401 55.04 22.1201C56.62 24.1001 58.68 28.0301 57.97 29.4901L46.52 24.0701H46.51Z" fill="white"/>
<path d="M44.95 23.8201C44.95 23.8201 48.39 17.9701 51.55 21.7001C53.93 24.5201 56.81 27.4601 58.07 28.7401C58.56 29.2401 58.82 29.9201 58.76 30.6201C58.52 33.6701 56.06 39.0301 49.94 44.5401C42.94 50.8401 41.16 47.3501 41.16 47.3501C41.16 47.3501 42.57 43.1001 29.65 41.3801C16.74 39.6601 11.34 38.6301 11.34 38.6301C11.34 38.6301 12.2 37.1401 17.52 37.1401L22.3 35.5601C22.3 35.5601 27.92 35.7201 30.33 37.6401L31.4 37.2601C31.4 37.2601 28.8 34.3901 30.71 33.4701C32.62 32.5501 34.46 32.0501 36.72 33.0501C38.98 34.0401 40.16 35.0001 41.62 34.5401C43.08 34.0801 49.1 30.7401 49.1 30.0301C49.1 29.3201 44.94 23.8301 44.94 23.8301L44.95 23.8201Z" fill="#1A2C38"/>
<path d="M50.7896 24.3069C51.19 23.6134 50.8864 22.6885 50.1116 22.2412C49.3368 21.7938 48.384 21.9934 47.9836 22.6869C47.5832 23.3804 47.8868 24.3053 48.6616 24.7526C49.4364 25.2 50.3892 25.0004 50.7896 24.3069Z" fill="white"/>
<path d="M50.3888 23.7687C50.6152 23.3765 50.4421 22.8526 50.0021 22.5986C49.562 22.3445 49.0218 22.4565 48.7953 22.8487C48.5689 23.2409 48.742 23.7648 49.1821 24.0188C49.6221 24.2729 50.1624 24.1609 50.3888 23.7687Z" fill="#1CE61C"/>
<path d="M24.97 53.2399C35.2646 53.2399 43.61 52.4877 43.61 51.5599C43.61 50.632 35.2646 49.8799 24.97 49.8799C14.6754 49.8799 6.33 50.632 6.33 51.5599C6.33 52.4877 14.6754 53.2399 24.97 53.2399Z" fill="#1A2C38"/>
<path d="M8.62 44.28L7.41 44.97C7.41 44.97 6.66 48.18 8.02 48.87C9.38 49.56 22.92 53.29 39.1 52.72L57.58 49.51C57.58 49.51 61.93 48.71 60.36 45.46L39.9 50.25L8.62 44.28Z" fill="#557086"/>
<path d="M7.40999 44.97C7.40999 44.97 7.57999 42.83 8.61999 42.44C9.65999 42.05 23.4 45.58 28.3 45.58C33.2 45.58 36.94 46.22 37.89 47.98C37.89 47.98 40.28 48.13 41.14 47.75C41.14 47.75 44.41 42.41 49.94 44.54L55.39 43.21L60.29 44.17C60.29 44.17 60.54 46.03 60.06 47.27C59.9 47.7 59.53 48.01 59.09 48.11C55.8 48.91 38.14 53.05 31.86 50.82C24.92 48.35 7.39999 44.97 7.39999 44.97H7.40999Z" fill="white"/>
<path d="M59.61 39.3201L49.95 44.5401V47.2101C49.95 47.2101 50.29 47.6401 51.01 47.2101C51.73 46.7801 54.51 45.4901 56 45.2601C57.49 45.0301 59.82 44.6501 60.29 44.1701C60.76 43.6901 60.39 39.3301 59.6 39.3301L59.61 39.3201Z" fill="#1A2C38"/>
<path d="M21.56 35.8099C21.56 35.8099 23.81 30.6199 26.56 31.0799C26.56 31.0799 30.65 27.3699 32.22 27.6699C32.22 27.6699 34.01 23.2999 38.68 26.5499C38.68 26.5499 45.26 26.2099 46.41 28.3499L37.88 33.2099C37.88 33.2099 37.27 31.5499 37.5 30.5799C37.5 30.5799 36.12 29.3099 33.41 29.4999C33.41 29.4999 35.48 31.4899 35.48 32.9799L31.19 34.3899C31.19 34.3899 27.56 31.9499 22.32 35.5599L21.57 35.8099H21.56Z" fill="#1A2C38"/>
<path d="M38.61 28.8301L39.11 28.5101C39.21 28.4401 39.35 28.4701 39.42 28.5701L39.78 29.0501C40.05 29.4101 40.23 29.8301 40.32 30.2701L40.53 31.3501L39.67 30.6901C39.42 30.5001 39.22 30.2601 39.07 29.9801L38.56 29.0401C38.52 28.9701 38.54 28.8801 38.61 28.8301Z" fill="#1CE61C"/>
<path d="M30.73 31.4801L32.23 31.3501L32.91 32.0701L32.02 32.4401L30.73 31.4801Z" fill="#1CE61C"/>
<path d="M45.06 34.14L47.5 32.55C47.5 32.55 51.28 37.53 55.02 36.96C55.02 36.96 53.18 40.6701 50.29 42.0801C50.29 42.0801 51.06 38.29 45.07 34.14H45.06Z" fill="#8EA3B2"/>
<path d="M46.66 18.7299C47 19.5299 47.14 20.2299 45.99 20.7299C44.84 21.2299 43.64 20.9699 43.29 20.1799C42.94 19.3899 43.6 18.3399 44.75 17.8499C45.9 17.3599 46.32 17.9399 46.66 18.7399V18.7299Z" fill="white"/>
</g>
<path fill-rule="evenodd" clip-rule="evenodd" d="M6.49771 79C6.98969 79 7.48602 79.213 7.49037 79.6913C7.49037 80.1043 7.24656 80.2696 6.99839 80.2696C6.75023 80.2696 6.73281 80.1435 6.73281 80.1435C6.73281 80.1435 7.02452 79.9261 7.02452 79.7174C7.02452 79.6087 6.94179 79.313 6.489 79.3174C5.8577 79.3174 5.5181 79.6174 5.5181 80.1522C5.5181 80.7652 7.35105 80.9739 7.3554 81.7652C7.3554 82.613 6.47594 82.9957 5.69225 83C5.283 83 5.01306 82.7609 5.00871 82.3783C5.00871 81.9261 5.22204 81.4652 5.75756 81.4652C5.88382 81.4565 5.98831 81.5522 5.99702 81.6783C5.99702 81.6783 5.99702 81.6826 5.99702 81.687C5.99702 81.687 5.45715 81.8391 5.4615 82.3783C5.4615 82.4783 5.56599 82.6609 5.81851 82.6565C6.07103 82.6522 6.82424 82.4739 6.81989 81.8087C6.81989 81.1913 5.00435 81.1087 5 80.1478C5 79.0652 6.08845 79.0087 6.49771 79.0087V79ZM10.747 79.6C10.8123 79.5696 11.2129 79.4913 11.1955 79.813C11.1824 80.1348 10.9386 80.6913 10.9037 80.9348C11.2303 80.7696 11.6918 80.2087 11.6918 80.2087C11.6918 80.2087 12.0183 80.2522 11.9182 80.4522C11.818 80.6522 11.1519 81.1435 11.1519 81.1435C11.1519 81.1435 11.3043 82.5696 12.1707 82.5696C12.6453 82.5696 12.8499 82.3609 12.937 82.287C12.9587 82.2696 12.9762 82.2652 12.9849 82.2783C13.0197 82.387 12.9936 82.5043 12.9152 82.5913C12.8194 82.6957 12.5974 82.8217 12.1533 82.8261C11.3653 82.8261 10.9255 82.1957 10.8123 81.2609C10.7252 81.5348 10.7339 81.9826 10.7209 82.2C10.6948 82.2435 10.2507 82.4174 10.2158 82.1174C10.2158 82.0913 10.2158 82.0696 10.2158 82.0435C10.1331 82.1609 10.0199 82.2826 9.91108 82.2826C9.71951 82.2826 9.63679 82.1217 9.60196 82.0391C9.57584 82.0696 9.3625 82.287 9.08821 82.287C8.92277 82.2913 8.77474 82.1957 8.70943 82.0435C8.57011 82.1435 8.32195 82.2913 8.03895 82.2913C7.73418 82.2913 7.66017 82.1087 7.66017 81.9565C7.66017 81.713 7.84303 80.987 7.84303 80.987C7.84303 80.987 7.48602 81.1304 7.36411 81.1348C7.19431 81.1348 7.11159 80.8217 7.11159 80.813C7.11159 80.8087 7.11159 80.8 7.1203 80.8C7.22044 80.7609 7.94317 80.513 7.94317 80.513C7.94317 80.513 8.07813 79.9826 8.09555 79.913C8.11296 79.8435 8.2131 79.7 8.33065 79.6565C8.41773 79.6217 8.50916 79.6 8.60059 79.5913C8.63107 79.5913 8.65284 79.6 8.65284 79.6174C8.65284 79.6348 8.47433 80.4087 8.47433 80.4087C8.47433 80.4087 8.84876 80.3217 8.98808 80.3217C9.09692 80.3217 9.15352 80.387 9.09257 80.4696C9.03162 80.5522 8.96196 80.6478 8.92712 80.6913C8.88794 80.7348 8.86182 80.7435 8.77039 80.7609C8.64413 80.787 8.36113 80.8565 8.36113 80.8565C8.36113 80.8565 8.13473 81.6783 8.13909 81.8174C8.13909 81.8957 8.16521 81.987 8.26099 81.987C8.35678 81.987 8.53964 81.8739 8.67025 81.7913C8.69202 81.1522 9.18835 80.7261 9.57584 80.7261C9.7021 80.7261 9.65421 80.8478 9.79788 80.8478H9.88931C9.94591 80.8478 10.0069 80.8522 10.0069 80.9957C10.0069 81.1957 9.89367 81.5261 9.89367 81.7348C9.89367 81.8826 9.91544 81.987 9.97204 81.987C10.0678 81.987 10.1767 81.8478 10.255 81.7261C10.3813 81.0304 10.734 79.7609 10.734 79.6174L10.747 79.6ZM12.5016 80.7C12.7672 80.6783 12.9326 80.8217 12.9631 80.9C12.9936 80.9783 12.9892 81.1609 12.9152 81.2913C12.6845 81.7044 12.1097 81.6304 12.1097 81.6304C12.1097 81.6304 12.0444 81.9565 12.3405 81.9565C12.593 81.9565 12.7062 81.8304 12.8151 81.7261C12.8586 81.7261 12.9936 81.8652 12.9326 81.9609C12.8847 82.0348 12.6191 82.2565 12.2795 82.2609C11.7397 82.2609 11.6047 81.8 11.6744 81.4696C11.7658 81.0609 12.1751 80.7217 12.5016 80.6957V80.7ZM9.6455 80.987C9.32332 80.987 8.82699 81.9696 9.20577 81.9652C9.61938 81.9652 9.6455 81.1826 9.6455 81.0043V80.987ZM12.6409 80.8913C12.4232 80.9 12.1751 81.3174 12.1533 81.5C12.4798 81.513 12.654 81.1957 12.6757 81.0696C12.6888 80.9739 12.6932 80.887 12.6409 80.887V80.8913Z" fill="#557086"/>
<path d="M56.1444 79.3778L56.6412 80.278L57.6519 80.4733C57.7792 80.4988 57.8302 80.6559 57.741 80.7494L57.0361 81.5009L57.1635 82.5243C57.1805 82.6559 57.0446 82.7494 56.93 82.6942L56.0001 82.2568L55.0701 82.6942C54.9512 82.7494 54.8196 82.6517 54.8366 82.5243L54.964 81.5009L54.2591 80.7494C54.1699 80.6559 54.2209 80.4988 54.3482 80.4733L55.3589 80.278L55.8557 79.3778C55.9194 79.2632 56.085 79.2632 56.1444 79.3778Z" fill="#FFC200"/>
<path d="M56 79.2929C56.0552 79.2929 56.1147 79.3226 56.1444 79.3778L56.6412 80.278L57.6519 80.4733C57.7792 80.4988 57.8302 80.6559 57.741 80.7494L57.0361 81.5009L57.1635 82.5243C57.1763 82.6262 57.0955 82.7111 56.9979 82.7111C56.9767 82.7111 56.9512 82.7069 56.9257 82.6942L55.9958 82.2568L55.0658 82.6942C55.0403 82.7069 55.0191 82.7111 54.9936 82.7111C54.9002 82.7111 54.8153 82.6262 54.828 82.5243L54.9554 81.5009L54.2505 80.7494C54.1614 80.6559 54.2123 80.4988 54.3397 80.4733L55.3503 80.278L55.8471 79.3778C55.8769 79.3226 55.9363 79.2929 55.9915 79.2929M56 79.0806C55.8641 79.0806 55.7367 79.157 55.6688 79.2759L55.2187 80.0912L54.3057 80.2653C54.1699 80.2908 54.0595 80.3884 54.017 80.5201C53.9745 80.6517 54.0085 80.7961 54.1019 80.8937L54.7389 81.5731L54.6242 82.4946C54.6115 82.6007 54.6454 82.7111 54.7134 82.7918C54.7856 82.8725 54.8875 82.9192 54.9979 82.9192C55.0531 82.9192 55.1083 82.9065 55.1592 82.881L56 82.4861L56.8408 82.881C56.8917 82.9065 56.9469 82.9192 57.0021 82.9192C57.1125 82.9192 57.2144 82.8725 57.2866 82.7918C57.3588 82.7111 57.3928 82.6007 57.3758 82.4946L57.2612 81.5731L57.8981 80.8937C57.9915 80.7918 58.0255 80.6474 57.983 80.5201C57.9406 80.3884 57.8302 80.2908 57.6943 80.2653L56.7813 80.0912L56.3312 79.2759C56.2633 79.157 56.1359 79.0806 56 79.0806Z" fill="#213743"/>
<path d="M56.0001 79.8152V80.9744C56.0001 81.0678 56.0892 81.1315 56.1784 81.106L57.2187 80.7706C57.2739 80.7536 57.2697 80.6729 57.2102 80.6602L56.5563 80.5413C56.4969 80.5286 56.4417 80.4903 56.4119 80.4351L56.085 79.7939C56.0637 79.7515 55.9958 79.7642 55.9958 79.8152H56.0001Z" fill="#FFEBB8"/>
<path d="M56 81.4924V82.0699C56 82.1039 56.017 82.1294 56.0468 82.1464L56.7983 82.5073C56.8366 82.5243 56.8705 82.4818 56.8451 82.4479L56.0935 81.4627C56.0637 81.4245 56 81.4457 56 81.4924Z" fill="#FF7F00"/>
<rect x="13" y="62" width="37" height="13" rx="6.5" fill="#2F4553"/>
<path d="M30.445 70H29.413V67.318L28.741 67.996L28.153 67.378L29.551 65.998H30.445V70ZM33.9146 70H32.9006L32.3426 69.124L31.7786 70H30.7706L31.7606 68.512L30.8306 67.102H31.8446L32.3426 67.888L32.8346 67.102H33.8486L32.9246 68.512L33.9146 70Z" fill="white"/>
<path d="M8.03 11H7.215L6.56 9.815H6.04V11H5.33V7.665H6.89C7.585 7.665 8.01 8.12 8.01 8.74C8.01 9.33 7.64 9.645 7.28 9.73L8.03 11ZM6.785 9.19C7.07 9.19 7.285 9.02 7.285 8.74C7.285 8.46 7.07 8.29 6.785 8.29H6.04V9.19H6.785ZM10.5152 11H9.88023V10.75C9.71523 10.945 9.43023 11.06 9.11523 11.06C8.73023 11.06 8.27523 10.8 8.27523 10.26C8.27523 9.695 8.73023 9.48 9.11523 9.48C9.43523 9.48 9.72023 9.585 9.88023 9.775V9.45C9.88023 9.205 9.67023 9.045 9.35023 9.045C9.09023 9.045 8.85023 9.14 8.64523 9.33L8.40523 8.905C8.70023 8.645 9.08023 8.525 9.46023 8.525C10.0102 8.525 10.5152 8.745 10.5152 9.44V11ZM9.37023 10.63C9.57523 10.63 9.77523 10.56 9.88023 10.42V10.12C9.77523 9.98 9.57523 9.91 9.37023 9.91C9.12023 9.91 8.91523 10.04 8.91523 10.275C8.91523 10.5 9.12023 10.63 9.37023 10.63ZM11.7801 11H11.1451V8.585H11.7801V8.915C11.9501 8.7 12.2501 8.525 12.5501 8.525V9.145C12.5051 9.135 12.4451 9.13 12.3751 9.13C12.1651 9.13 11.8851 9.25 11.7801 9.405V11ZM14.0818 11.06C13.3468 11.06 12.7918 10.565 12.7918 9.79C12.7918 9.09 13.3068 8.525 14.0418 8.525C14.7618 8.525 15.2518 9.065 15.2518 9.855V9.995H13.4568C13.4968 10.3 13.7418 10.555 14.1518 10.555C14.3568 10.555 14.6418 10.465 14.7968 10.315L15.0768 10.725C14.8368 10.945 14.4568 11.06 14.0818 11.06ZM14.6368 9.565C14.6218 9.335 14.4618 9.03 14.0418 9.03C13.6468 9.03 13.4768 9.325 13.4468 9.565H14.6368Z" fill="white"/>
<path d="M48.9085 11H48.4565L47.0645 9.096V11H46.5965V8.332H47.0765L48.4405 10.184V8.332H48.9085V11ZM50.3354 11.048C49.7234 11.048 49.3434 10.588 49.3434 10.032C49.3434 9.48 49.7234 9.02 50.3354 9.02C50.9554 9.02 51.3314 9.48 51.3314 10.032C51.3314 10.588 50.9554 11.048 50.3354 11.048ZM50.3354 10.676C50.6954 10.676 50.8954 10.376 50.8954 10.032C50.8954 9.692 50.6954 9.392 50.3354 9.392C49.9794 9.392 49.7794 9.692 49.7794 10.032C49.7794 10.376 49.9794 10.676 50.3354 10.676ZM51.9528 11.044C51.8008 11.044 51.6728 10.916 51.6728 10.764C51.6728 10.612 51.8008 10.484 51.9528 10.484C52.1048 10.484 52.2328 10.612 52.2328 10.764C52.2328 10.916 52.1048 11.044 51.9528 11.044ZM54.4687 11H53.9567L54.9647 8.744H53.5807V8.332H55.5047V8.656L54.4687 11ZM56.8176 11.048C56.3576 11.048 56.0416 10.892 55.8256 10.636L56.0936 10.316C56.2736 10.52 56.5136 10.632 56.8136 10.632C57.1496 10.632 57.3616 10.424 57.3616 10.164C57.3616 9.876 57.1536 9.688 56.8256 9.688C56.5976 9.688 56.4096 9.76 56.2416 9.92L55.9096 9.824V8.332H57.6576V8.744H56.3776V9.516C56.5056 9.388 56.7256 9.284 56.9816 9.284C57.4296 9.284 57.8336 9.6 57.8336 10.144C57.8336 10.7 57.4136 11.048 56.8176 11.048Z" fill="white"/>
<defs>
<clipPath id="clip0_26835_29238">
<rect width="63" height="88" fill="white"/>
</clipPath>
</defs>
</svg>
