<svg width="63" height="88" viewBox="0 0 63 88" fill="none" xmlns="http://www.w3.org/2000/svg">
<rect width="63" height="88" rx="4" fill="#FF003F"/>
<path d="M36.7008 13.5133L44.7992 3.48665C45.5586 2.54645 46.7024 2 47.911 2H58C59.6569 2 61 3.34314 61 5V83C61 84.6569 59.6569 86 58 86H5C3.34315 86 2 84.6569 2 83V18C2 16.3431 3.34315 15 5 15H33.589C34.7976 15 35.9414 14.4536 36.7008 13.5133Z" fill="#213743"/>
<rect x="5" y="18" width="53" height="40" rx="1" fill="#2F4553"/>
<g clip-path="url(#clip0_26835_29239)">
<g clip-path="url(#clip1_26835_29239)">
<path d="M57 18H6C5.44772 18 5 18.4477 5 19V57C5 57.5523 5.44772 58 6 58H57C57.5523 58 58 57.5523 58 57V19C58 18.4477 57.5523 18 57 18Z" fill="#E9113C"/>
<path d="M38.24 18H6C5.45 18 5 18.45 5 19V35.68C22.02 32.89 33.14 23.39 38.24 18Z" fill="#E9627D"/>
<path d="M57 18H53.74C53.11 26.02 49.12 41.83 29.55 58H57C57.55 58 58 57.55 58 57V19C58 18.45 57.55 18 57 18Z" fill="#E9627D"/>
<path d="M58 47C50.4 53.8 42.8333 49.8333 40 47L58 39V47Z" fill="#1A2C38"/>
<path d="M28.54 44.31L29.86 48.24L33.57 47.77C33.94 47.72 34.27 47.49 34.45 47.16L35.38 45.38C35.51 45.13 35.53 44.84 35.45 44.57L35.26 43.98L34.53 41.29L31.21 42.09L28.54 44.31Z" fill="#1A2C38"/>
<path d="M29.03 43.0401L28.58 43.9101C28.38 44.3001 28.71 44.7501 29.14 44.6801L32.13 44.2001C32.68 44.1101 33.16 43.7501 33.38 43.2401L33.99 41.8701L29.03 43.0401Z" fill="#8EA3B2"/>
<path d="M40.5 29.5101L43.82 27.6301L45.99 27.1001L42.62 29.6501L40.99 29.8301L40.5 29.5101Z" fill="white"/>
<path d="M45.99 27.1001L40.99 29.8301V30.9701L41.44 31.2001L46.46 28.4801L45.99 27.1001Z" fill="#557086"/>
<path d="M41.44 31.2001L40.88 29.5501C40.73 29.0901 39.9 28.9601 39.03 29.2501C38.16 29.5401 37.58 30.1501 37.73 30.6101L38.29 32.26C38.44 32.72 39.27 32.8501 40.14 32.5601C41.01 32.2701 41.59 31.6601 41.44 31.2001Z" fill="#557086"/>
<path d="M39.4804 30.5907C40.0301 30.4058 40.3971 30.0226 40.3003 29.7346C40.2035 29.4467 39.6794 29.3632 39.1298 29.5481C38.5801 29.7329 38.213 30.1162 38.3099 30.4041C38.4067 30.692 38.9308 30.7756 39.4804 30.5907Z" fill="#1A2C38"/>
<path d="M21.1 39.3101L24.16 38.1101L23.95 38.6901L21.62 39.8601L21.1 39.3101Z" fill="#383952"/>
<path d="M22.01 39.2799L21.51 39.8899L22.29 41.8499L24.73 40.8099L23.95 38.6899L22.01 39.2799Z" fill="#383952"/>
<path d="M36.76 38.47C36.76 38.47 37.39 37.81 37.93 38.08L38.66 37.47L38.34 36.94L36.84 36.49L36.54 37.83L36.76 38.47Z" fill="#1A2C38"/>
<path d="M36.59 37.33C36.59 37.33 37.31 36.82 37.63 36.98C37.95 37.14 38.66 37.47 38.66 37.47L39.07 36.98L38.1 36.53C38.1 36.53 37.54 36.16 37.53 35.47L36.59 37.33Z" fill="white"/>
<path d="M23.94 40.16L23.46 40.43L23.97 41.95C24.05 42.19 24.23 42.38 24.47 42.47L27.17 43.52C27.52 43.66 27.9 43.69 28.27 43.62L31.07 43.1C31.51 43.02 31.94 42.88 32.34 42.68L33.99 41.86C33.99 41.86 34.22 43.46 35.26 43.98C35.26 43.98 36.48 42.98 37.45 40.67C37.59 40.33 37.58 39.95 37.41 39.62C37.05 38.9 36.49 37.58 36.96 37.06L38.5 34.19C38.7 33.83 38.73 33.4 38.6 33L38.01 31.25L38.83 29.55C38.95 29.31 38.96 29.03 38.88 28.78L37.57 25.54L23.93 40.15L23.94 40.16Z" fill="#1A2C38"/>
<path d="M23.07 39.27L23.45 40.43C23.54 40.7 23.81 40.86 24.09 40.81L35.12 38.87L36.21 40.42C36.21 40.42 35.39 38.47 35.72 37.29L23.07 39.28V39.27Z" fill="#8EA3B2"/>
<path d="M26.21 35.33L25.24 35.56C24.91 35.64 24.63 35.86 24.48 36.16L23.14 38.79C22.86 39.35 23.33 39.99 23.94 39.89L34.99 38.07C35.24 38.03 35.45 37.87 35.56 37.64L36.93 34.68C37.08 34.35 36.95 33.97 36.62 33.81L34.92 32.96L26.21 35.34V35.33Z" fill="#557086"/>
<path d="M25.62 39.7499C25.62 39.7499 27.18 42.3899 28.9 42.1499C30.62 41.9099 30.92 38.8799 30.92 38.8799L25.62 39.7499Z" fill="white"/>
<path d="M23.0242 33.4943C27.7833 31.6988 30.75 27.8807 29.6505 24.9664C28.551 22.052 23.8016 21.1449 19.0425 22.9404C14.2834 24.7359 11.3167 28.554 12.4162 31.4684C13.5157 34.3827 18.2651 35.2898 23.0242 33.4943Z" fill="white"/>
<path d="M21.9069 30.8794C25.4362 29.5479 27.6793 26.8306 26.9171 24.8102C26.1548 22.7897 22.6758 22.2312 19.1465 23.5627C15.6173 24.8942 13.3741 27.6115 14.1364 29.6319C14.8986 31.6524 18.3776 32.2109 21.9069 30.8794Z" fill="#1A2C38"/>
<path d="M21.6931 30.3863C24.6126 29.2849 26.48 27.0683 25.8639 25.4354C25.2479 23.8025 22.3817 23.3717 19.4622 24.4732C16.5426 25.5746 14.6753 27.7912 15.2913 29.4241C15.9074 31.057 18.7735 31.4878 21.6931 30.3863Z" fill="#FFC200"/>
<path d="M21.66 26.7101C21.8 27.0701 21.38 27.5701 20.73 27.8101C20.08 28.0501 19.44 27.9601 19.31 27.6001C19.18 27.2401 19.52 26.5601 20.17 26.3101C20.82 26.0601 21.53 26.3501 21.67 26.7101H21.66Z" fill="#1A2C38"/>
<path d="M26.28 40.27C25.01 40.05 22.76 34.26 25.9 30.67C28.22 28.01 29.76 28.29 32.07 26.68C34.38 25.07 38.25 22.62 37.74 26.36C37.49 28.21 36.67 32.56 33.91 36.11C31.54 39.16 28.2 40.61 26.28 40.27Z" fill="white"/>
<path d="M32.57 45.6001C31.6 44.7401 30.19 44.7401 29.43 45.6001C29.27 45.7901 29.15 46.0001 29.07 46.2301L28.72 47.2401C28.39 48.0701 28.65 49.1101 29.44 49.8001C30.41 50.6601 31.82 50.6601 32.58 49.8001C32.73 49.6301 32.83 49.4401 32.91 49.2401L33.33 48.0301C33.58 47.2201 33.31 46.2601 32.56 45.6001H32.57Z" fill="#1A2C38"/>
<path d="M31.8759 49.3555C32.3691 48.7963 32.2551 47.8899 31.6214 47.331C30.9876 46.7721 30.0741 46.7723 29.5809 47.3315C29.0878 47.8907 29.2017 48.7971 29.8355 49.356C30.4692 49.9149 31.3828 49.9147 31.8759 49.3555Z" fill="#557086"/>
<path d="M31.6047 48.9095C31.9518 48.516 31.8738 47.8802 31.4306 47.4893C30.9874 47.0984 30.3468 47.1005 29.9997 47.494C29.6527 47.8875 29.7306 48.5234 30.1739 48.9143C30.6171 49.3052 31.2577 49.303 31.6047 48.9095Z" fill="#1A2C38"/>
<path d="M30.7776 48.3897C30.9749 48.1661 30.9669 47.8367 30.7598 47.654C30.5527 47.4714 30.2249 47.5046 30.0276 47.7283C29.8304 47.952 29.8384 48.2814 30.0455 48.464C30.2526 48.6467 30.5804 48.6134 30.7776 48.3897Z" fill="white"/>
<path d="M49.7783 47.0308C55.6883 45.043 59.4045 40.2362 58.0787 36.2945C56.7529 32.3527 50.8872 30.7688 44.9773 32.7565C39.0673 34.7443 35.3511 39.5511 36.6768 43.4928C38.0026 47.4346 43.8683 49.0185 49.7783 47.0308Z" fill="white"/>
<path d="M48.427 43.5089C52.8085 42.0352 55.6139 38.6212 54.693 35.8834C53.7722 33.1457 49.4739 32.121 45.0925 33.5946C40.711 35.0683 37.9057 38.4823 38.8265 41.2201C39.7473 43.9578 44.0456 44.9825 48.427 43.5089Z" fill="#1A2C38"/>
<path d="M48.1901 42.8C51.8177 41.5799 54.1576 38.8042 53.4164 36.6004C52.6751 34.3966 49.1335 33.5992 45.5058 34.8193C41.8782 36.0395 39.5383 38.8151 40.2795 41.0189C41.0208 43.2227 44.5624 44.0201 48.1901 42.8Z" fill="#FFC200"/>
<path d="M48.18 37.9501C48.34 38.4401 47.82 39.0601 47.02 39.3301C46.22 39.6001 45.43 39.4201 45.26 38.9301C45.09 38.4401 45.53 37.5701 46.34 37.2901C47.15 37.0101 48.02 37.45 48.19 37.94L48.18 37.9501Z" fill="#1A2C38"/>
<path d="M15.1608 50.8802C20.6297 48.5836 23.8219 43.7662 22.2908 40.1203C20.7597 36.4744 15.0851 35.3806 9.61619 37.6772C4.14732 39.9739 0.955132 44.7913 2.48624 48.4372C4.01734 52.0831 9.69194 53.1769 15.1608 50.8802Z" fill="white"/>
<path d="M13.6358 47.6212C17.6941 45.9169 20.1225 42.4837 19.0597 39.9529C17.997 37.4222 13.8454 36.7522 9.78707 38.4565C5.7287 40.1609 3.3003 43.5941 4.36309 46.1248C5.42588 48.6556 9.5774 49.3255 13.6358 47.6212Z" fill="#1A2C38"/>
<path d="M13.5159 46.9429C16.8715 45.5337 18.8967 42.736 18.0392 40.6941C17.1817 38.6522 13.7662 38.1393 10.4106 39.5485C7.05492 40.9577 5.02976 43.7554 5.88726 45.7973C6.74476 47.8392 10.1602 48.3521 13.5159 46.9429Z" fill="#FFC200"/>
<path d="M13.16 42.3299C13.35 42.7799 12.9 43.4099 12.15 43.7199C11.4 44.0299 10.64 43.9199 10.45 43.4699C10.26 43.0199 10.61 42.1599 11.36 41.8399C12.11 41.5199 12.97 41.8799 13.16 42.3299Z" fill="#1A2C38"/>
<path d="M47.38 29.68C47.38 29.68 53 30.39 58 26.84V23.2L47.38 29.68Z" fill="#1A2C38"/>
<path d="M51.841 28.6946C57.029 26.7373 60.2644 22.5786 59.0674 19.4058C57.8704 16.2331 52.6944 15.2478 47.5064 17.2051C42.3184 19.1623 39.083 23.321 40.28 26.4938C41.477 29.6665 46.653 30.6519 51.841 28.6946Z" fill="white"/>
<path d="M50.6158 25.8723C54.4654 24.4199 56.9114 21.4538 56.079 19.2474C55.2465 17.0409 51.4509 16.4296 47.6013 17.882C43.7516 19.3343 41.3057 22.3004 42.1381 24.5069C42.9705 26.7133 46.7661 27.3246 50.6158 25.8723Z" fill="#1A2C38"/>
<path d="M50.4082 25.3191C53.5913 24.1183 55.628 21.7037 54.9574 19.9262C54.2868 18.1486 51.1627 17.6811 47.9796 18.882C44.7966 20.0829 42.7598 22.4974 43.4304 24.275C44.1011 26.0525 47.2251 26.52 50.4082 25.3191Z" fill="#FFC200"/>
<path d="M50.37 21.3199C50.52 21.7199 50.07 22.2499 49.36 22.5199C48.65 22.7899 47.96 22.6799 47.81 22.2899C47.66 21.8999 48.04 21.1499 48.74 20.8799C49.44 20.6099 50.22 20.9199 50.37 21.3199Z" fill="#1A2C38"/>
<path d="M34.23 33.2201C34.64 33.6101 34.01 34.8101 32.9 35.9901C31.79 37.1701 30.64 37.8801 30.22 37.4901C29.8 37.1001 30.6 35.0701 31.7 33.8901C32.8 32.7101 33.81 32.8301 34.22 33.2201H34.23Z" fill="#FFEBB8"/>
</g>
</g>
<path fill-rule="evenodd" clip-rule="evenodd" d="M6.49771 79C6.98969 79 7.48602 79.213 7.49037 79.6913C7.49037 80.1043 7.24656 80.2696 6.99839 80.2696C6.75023 80.2696 6.73281 80.1435 6.73281 80.1435C6.73281 80.1435 7.02452 79.9261 7.02452 79.7174C7.02452 79.6087 6.94179 79.313 6.489 79.3174C5.8577 79.3174 5.5181 79.6174 5.5181 80.1522C5.5181 80.7652 7.35105 80.9739 7.3554 81.7652C7.3554 82.613 6.47594 82.9957 5.69225 83C5.283 83 5.01306 82.7609 5.00871 82.3783C5.00871 81.9261 5.22204 81.4652 5.75756 81.4652C5.88382 81.4565 5.98831 81.5522 5.99702 81.6783C5.99702 81.6783 5.99702 81.6826 5.99702 81.687C5.99702 81.687 5.45715 81.8391 5.4615 82.3783C5.4615 82.4783 5.56599 82.6609 5.81851 82.6565C6.07103 82.6522 6.82424 82.4739 6.81989 81.8087C6.81989 81.1913 5.00435 81.1087 5 80.1478C5 79.0652 6.08845 79.0087 6.49771 79.0087V79ZM10.747 79.6C10.8123 79.5696 11.2129 79.4913 11.1955 79.813C11.1824 80.1348 10.9386 80.6913 10.9037 80.9348C11.2303 80.7696 11.6918 80.2087 11.6918 80.2087C11.6918 80.2087 12.0183 80.2522 11.9182 80.4522C11.818 80.6522 11.1519 81.1435 11.1519 81.1435C11.1519 81.1435 11.3043 82.5696 12.1707 82.5696C12.6453 82.5696 12.8499 82.3609 12.937 82.287C12.9587 82.2696 12.9762 82.2652 12.9849 82.2783C13.0197 82.387 12.9936 82.5043 12.9152 82.5913C12.8194 82.6957 12.5974 82.8217 12.1533 82.8261C11.3653 82.8261 10.9255 82.1957 10.8123 81.2609C10.7252 81.5348 10.7339 81.9826 10.7209 82.2C10.6948 82.2435 10.2507 82.4174 10.2158 82.1174C10.2158 82.0913 10.2158 82.0696 10.2158 82.0435C10.1331 82.1609 10.0199 82.2826 9.91108 82.2826C9.71951 82.2826 9.63679 82.1217 9.60196 82.0391C9.57584 82.0696 9.3625 82.287 9.08821 82.287C8.92277 82.2913 8.77474 82.1957 8.70943 82.0435C8.57011 82.1435 8.32195 82.2913 8.03895 82.2913C7.73418 82.2913 7.66017 82.1087 7.66017 81.9565C7.66017 81.713 7.84303 80.987 7.84303 80.987C7.84303 80.987 7.48602 81.1304 7.36411 81.1348C7.19431 81.1348 7.11159 80.8217 7.11159 80.813C7.11159 80.8087 7.11159 80.8 7.1203 80.8C7.22044 80.7609 7.94317 80.513 7.94317 80.513C7.94317 80.513 8.07813 79.9826 8.09555 79.913C8.11296 79.8435 8.2131 79.7 8.33065 79.6565C8.41773 79.6217 8.50916 79.6 8.60059 79.5913C8.63107 79.5913 8.65284 79.6 8.65284 79.6174C8.65284 79.6348 8.47433 80.4087 8.47433 80.4087C8.47433 80.4087 8.84876 80.3217 8.98808 80.3217C9.09692 80.3217 9.15352 80.387 9.09257 80.4696C9.03162 80.5522 8.96196 80.6478 8.92712 80.6913C8.88794 80.7348 8.86182 80.7435 8.77039 80.7609C8.64413 80.787 8.36113 80.8565 8.36113 80.8565C8.36113 80.8565 8.13473 81.6783 8.13909 81.8174C8.13909 81.8957 8.16521 81.987 8.26099 81.987C8.35678 81.987 8.53964 81.8739 8.67025 81.7913C8.69202 81.1522 9.18835 80.7261 9.57584 80.7261C9.7021 80.7261 9.65421 80.8478 9.79788 80.8478H9.88931C9.94591 80.8478 10.0069 80.8522 10.0069 80.9957C10.0069 81.1957 9.89367 81.5261 9.89367 81.7348C9.89367 81.8826 9.91544 81.987 9.97204 81.987C10.0678 81.987 10.1767 81.8478 10.255 81.7261C10.3813 81.0304 10.734 79.7609 10.734 79.6174L10.747 79.6ZM12.5016 80.7C12.7672 80.6783 12.9326 80.8217 12.9631 80.9C12.9936 80.9783 12.9892 81.1609 12.9152 81.2913C12.6845 81.7044 12.1097 81.6304 12.1097 81.6304C12.1097 81.6304 12.0444 81.9565 12.3405 81.9565C12.593 81.9565 12.7062 81.8304 12.8151 81.7261C12.8586 81.7261 12.9936 81.8652 12.9326 81.9609C12.8847 82.0348 12.6191 82.2565 12.2795 82.2609C11.7397 82.2609 11.6047 81.8 11.6744 81.4696C11.7658 81.0609 12.1751 80.7217 12.5016 80.6957V80.7ZM9.6455 80.987C9.32332 80.987 8.82699 81.9696 9.20577 81.9652C9.61938 81.9652 9.6455 81.1826 9.6455 81.0043V80.987ZM12.6409 80.8913C12.4232 80.9 12.1751 81.3174 12.1533 81.5C12.4798 81.513 12.654 81.1957 12.6757 81.0696C12.6888 80.9739 12.6932 80.887 12.6409 80.887V80.8913Z" fill="#557086"/>
<path d="M56.1444 79.3778L56.6412 80.278L57.6519 80.4733C57.7792 80.4988 57.8302 80.6559 57.741 80.7494L57.0361 81.5009L57.1635 82.5243C57.1805 82.6559 57.0446 82.7494 56.93 82.6942L56 82.2568L55.0701 82.6942C54.9512 82.7494 54.8196 82.6517 54.8366 82.5243L54.964 81.5009L54.2591 80.7494C54.1699 80.6559 54.2209 80.4988 54.3482 80.4733L55.3589 80.278L55.8557 79.3778C55.9194 79.2632 56.085 79.2632 56.1444 79.3778Z" fill="#FFC200"/>
<path d="M56 79.2929C56.0552 79.2929 56.1147 79.3226 56.1444 79.3778L56.6412 80.278L57.6519 80.4733C57.7792 80.4988 57.8302 80.6559 57.741 80.7494L57.0361 81.5009L57.1635 82.5243C57.1763 82.6262 57.0955 82.7111 56.9979 82.7111C56.9766 82.7111 56.9512 82.7069 56.9257 82.6942L55.9958 82.2568L55.0658 82.6942C55.0403 82.7069 55.0191 82.7111 54.9936 82.7111C54.9002 82.7111 54.8153 82.6262 54.828 82.5243L54.9554 81.5009L54.2505 80.7494C54.1614 80.6559 54.2123 80.4988 54.3397 80.4733L55.3503 80.278L55.8471 79.3778C55.8769 79.3226 55.9363 79.2929 55.9915 79.2929M56 79.0806C55.8641 79.0806 55.7367 79.157 55.6688 79.2759L55.2187 80.0912L54.3057 80.2653C54.1699 80.2908 54.0594 80.3884 54.017 80.5201C53.9745 80.6517 54.0085 80.7961 54.1019 80.8937L54.7389 81.5731L54.6242 82.4946C54.6115 82.6007 54.6454 82.7111 54.7134 82.7918C54.7856 82.8725 54.8875 82.9192 54.9979 82.9192C55.0531 82.9192 55.1083 82.9065 55.1592 82.881L56 82.4861L56.8408 82.881C56.8917 82.9065 56.9469 82.9192 57.0021 82.9192C57.1125 82.9192 57.2144 82.8725 57.2866 82.7918C57.3588 82.7111 57.3928 82.6007 57.3758 82.4946L57.2611 81.5731L57.8981 80.8937C57.9915 80.7918 58.0255 80.6474 57.983 80.5201C57.9406 80.3884 57.8301 80.2908 57.6943 80.2653L56.7813 80.0912L56.3312 79.2759C56.2633 79.157 56.1359 79.0806 56 79.0806Z" fill="#213743"/>
<path d="M56 79.8152V80.9744C56 81.0678 56.0892 81.1315 56.1784 81.106L57.2187 80.7706C57.2739 80.7536 57.2697 80.6729 57.2102 80.6602L56.5563 80.5413C56.4969 80.5286 56.4417 80.4903 56.4119 80.4351L56.085 79.7939C56.0637 79.7515 55.9958 79.7642 55.9958 79.8152H56Z" fill="#FFEBB8"/>
<path d="M56 81.4924V82.0699C56 82.1039 56.017 82.1294 56.0467 82.1464L56.7983 82.5073C56.8366 82.5243 56.8705 82.4818 56.845 82.4479L56.0935 81.4627C56.0637 81.4245 56 81.4457 56 81.4924Z" fill="#FF7F00"/>
<rect x="13" y="62" width="37" height="13" rx="6.5" fill="#2F4553"/>
<path d="M30.445 70H29.413V67.318L28.741 67.996L28.153 67.378L29.551 65.998H30.445V70ZM33.9146 70H32.9006L32.3426 69.124L31.7786 70H30.7706L31.7606 68.512L30.8306 67.102H31.8446L32.3426 67.888L32.8346 67.102H33.8486L32.9246 68.512L33.9146 70Z" fill="white"/>
<path d="M8.03 11H7.215L6.56 9.815H6.04V11H5.33V7.665H6.89C7.585 7.665 8.01 8.12 8.01 8.74C8.01 9.33 7.64 9.645 7.28 9.73L8.03 11ZM6.785 9.19C7.07 9.19 7.285 9.02 7.285 8.74C7.285 8.46 7.07 8.29 6.785 8.29H6.04V9.19H6.785ZM10.5152 11H9.88023V10.75C9.71523 10.945 9.43023 11.06 9.11523 11.06C8.73023 11.06 8.27523 10.8 8.27523 10.26C8.27523 9.695 8.73023 9.48 9.11523 9.48C9.43523 9.48 9.72023 9.585 9.88023 9.775V9.45C9.88023 9.205 9.67023 9.045 9.35023 9.045C9.09023 9.045 8.85023 9.14 8.64523 9.33L8.40523 8.905C8.70023 8.645 9.08023 8.525 9.46023 8.525C10.0102 8.525 10.5152 8.745 10.5152 9.44V11ZM9.37023 10.63C9.57523 10.63 9.77523 10.56 9.88023 10.42V10.12C9.77523 9.98 9.57523 9.91 9.37023 9.91C9.12023 9.91 8.91523 10.04 8.91523 10.275C8.91523 10.5 9.12023 10.63 9.37023 10.63ZM11.7801 11H11.1451V8.585H11.7801V8.915C11.9501 8.7 12.2501 8.525 12.5501 8.525V9.145C12.5051 9.135 12.4451 9.13 12.3751 9.13C12.1651 9.13 11.8851 9.25 11.7801 9.405V11ZM14.0818 11.06C13.3468 11.06 12.7918 10.565 12.7918 9.79C12.7918 9.09 13.3068 8.525 14.0418 8.525C14.7618 8.525 15.2518 9.065 15.2518 9.855V9.995H13.4568C13.4968 10.3 13.7418 10.555 14.1518 10.555C14.3568 10.555 14.6418 10.465 14.7968 10.315L15.0768 10.725C14.8368 10.945 14.4568 11.06 14.0818 11.06ZM14.6368 9.565C14.6218 9.335 14.4618 9.03 14.0418 9.03C13.6468 9.03 13.4768 9.325 13.4468 9.565H14.6368Z" fill="white"/>
<path d="M48.9046 11H48.4526L47.0606 9.096V11H46.5926V8.332H47.0726L48.4366 10.184V8.332H48.9046V11ZM50.3315 11.048C49.7195 11.048 49.3395 10.588 49.3395 10.032C49.3395 9.48 49.7195 9.02 50.3315 9.02C50.9515 9.02 51.3275 9.48 51.3275 10.032C51.3275 10.588 50.9515 11.048 50.3315 11.048ZM50.3315 10.676C50.6915 10.676 50.8915 10.376 50.8915 10.032C50.8915 9.692 50.6915 9.392 50.3315 9.392C49.9755 9.392 49.7755 9.692 49.7755 10.032C49.7755 10.376 49.9755 10.676 50.3315 10.676ZM51.9489 11.044C51.7969 11.044 51.6689 10.916 51.6689 10.764C51.6689 10.612 51.7969 10.484 51.9489 10.484C52.1009 10.484 52.2289 10.612 52.2289 10.764C52.2289 10.916 52.1009 11.044 51.9489 11.044ZM54.4648 11H53.9528L54.9608 8.744H53.5768V8.332H55.5008V8.656L54.4648 11ZM56.8617 11.048C56.0777 11.048 55.7617 10.412 55.7617 9.672C55.7617 8.9 56.1657 8.292 56.9377 8.292C57.2697 8.292 57.5257 8.412 57.7057 8.588L57.4857 8.944C57.3457 8.796 57.1937 8.708 56.9377 8.708C56.4937 8.708 56.2337 9.12 56.2337 9.588C56.2337 9.616 56.2337 9.64 56.2377 9.664C56.3577 9.484 56.6377 9.292 56.9537 9.292C57.4337 9.292 57.8457 9.584 57.8457 10.152C57.8457 10.648 57.4577 11.048 56.8617 11.048ZM56.8377 10.632C57.1897 10.632 57.3737 10.384 57.3737 10.168C57.3737 9.84 57.1177 9.692 56.8257 9.692C56.5977 9.692 56.3777 9.816 56.2417 10.008C56.2697 10.296 56.4257 10.632 56.8377 10.632Z" fill="white"/>
<defs>
<clipPath id="clip0_26835_29239">
<rect width="63" height="88" fill="white"/>
</clipPath>
<clipPath id="clip1_26835_29239">
<rect width="63" height="88" fill="white"/>
</clipPath>
</defs>
</svg>
