<svg width="63" height="88" viewBox="0 0 63 88" fill="none" xmlns="http://www.w3.org/2000/svg">
<rect width="63" height="88" rx="4" fill="#FF003F"/>
<path d="M36.7008 13.5133L44.7992 3.48665C45.5586 2.54645 46.7024 2 47.911 2H58C59.6569 2 61 3.34314 61 5V83C61 84.6569 59.6569 86 58 86H5C3.34315 86 2 84.6569 2 83V18C2 16.3431 3.34315 15 5 15H33.589C34.7976 15 35.9414 14.4536 36.7008 13.5133Z" fill="#213743"/>
<rect x="5" y="18" width="53" height="40" rx="1" fill="#2F4553"/>
<g clip-path="url(#clip0_26835_29240)">
<path d="M57 18H6C5.44772 18 5 18.4477 5 19V57C5 57.5523 5.44772 58 6 58H57C57.5523 58 58 57.5523 58 57V19C58 18.4477 57.5523 18 57 18Z" fill="#FFC200"/>
<path d="M31.38 39.48C21.77 39.48 12.77 40.46 5 42.17V57C5 57.55 5.45 58 6 58H57C57.55 58 58 57.55 58 57V42.22C50.18 40.48 41.09 39.48 31.38 39.48Z" fill="#FF5500"/>
<path d="M31.38 50.4699C44.5686 50.4699 55.26 49.0059 55.26 47.1999C55.26 45.394 44.5686 43.9299 31.38 43.9299C18.1914 43.9299 7.5 45.394 7.5 47.1999C7.5 49.0059 18.1914 50.4699 31.38 50.4699Z" fill="#1A2C38"/>
<path d="M26.34 41.9499C26.18 44.1499 25.28 45.8399 24.32 45.8299C23.35 45.8299 22.61 44.0999 22.68 41.8599C22.75 39.4899 23.68 37.4999 24.75 37.5399C25.81 37.5899 26.51 39.6099 26.34 41.9399V41.9499Z" fill="url(#paint0_linear_26835_29240)"/>
<path d="M24.97 37.59C24.97 37.59 22.98 37.01 21.35 37.4C21.35 37.4 21.32 37.4 21.3 37.4C19.41 37.32 17.97 39.32 18.1 41.74C18.22 43.95 19.62 45.69 21.26 45.82C21.26 45.82 22.42 46.05 24.32 45.84C24.32 45.84 27.48 45.65 27.64 42.01C27.81 38.1 24.97 37.59 24.97 37.59Z" fill="#047BFF"/>
<path d="M52.24 43.05C52.08 45.25 51.18 46.94 50.22 46.93C49.25 46.93 48.51 45.2 48.58 42.96C48.65 40.59 49.58 38.6 50.65 38.64C51.71 38.69 52.41 40.71 52.24 43.04V43.05Z" fill="url(#paint1_linear_26835_29240)"/>
<path d="M50.87 38.6901C50.87 38.6901 48.88 38.1101 47.25 38.5001C47.25 38.5001 47.22 38.5001 47.2 38.5001C45.31 38.4201 43.87 40.4201 44 42.8401C44.12 45.0501 45.52 46.7901 47.16 46.9201C47.16 46.9201 48.32 47.1501 50.22 46.9401C50.22 46.9401 53.38 46.7501 53.54 43.1101C53.71 39.2001 50.87 38.6901 50.87 38.6901Z" fill="#047BFF"/>
<path d="M47.55 41.11C47.44 41.11 47.33 41.12 47.23 41.15C47.16 40 48.19 36.36 50.5 35.5L43.65 35.69L15 33.5L16.09 36.03C16.22 36.21 16.42 36.33 16.65 36.36C17.62 36.47 20.28 36.82 19.99 37.37C19.71 37.91 18.7 39.74 18.29 40.48C17.2 40.19 16.52 39.61 16.52 39.61C17.83 41.33 16.8 43.85 16.8 43.85C16.8 43.85 18.47 42.19 20.63 42.95C20.89 43.34 21.27 43.6 21.68 43.61C22.42 43.63 23.02 42.87 23.03 41.9C23.03 40.9 22.42 40.05 21.65 40.03C21.49 40.03 21.33 40.06 21.19 40.12C21.84 39.16 23.25 37.38 25.05 37.1C27.41 36.73 35.46 37.05 41.52 38.14C44.9 38.79 44.93 41.98 44.93 41.98C44.96 42 44.99 42.02 45.02 42.04C44.18 41.9 43.63 41.48 43.63 41.48C44.87 43.01 44.27 45.64 44.27 45.64C44.27 45.64 45.17 44.25 46.6 44.16C46.85 44.49 47.2 44.7 47.57 44.71C48.31 44.73 48.91 43.97 48.92 43C48.92 42 48.31 41.15 47.54 41.13L47.55 41.11Z" fill="#1A2C38"/>
<path d="M41.87 38.8799C41.87 38.8799 39.64 38.5299 37.85 38.6799C37.65 38.6799 37.46 38.6999 37.27 38.7499C35.65 39.1799 34.5 41.2499 34.61 43.6799C34.72 46.2299 36.2 48.2199 37.92 48.3599C37.92 48.3599 39.15 48.6199 41.15 48.3599C41.15 48.3599 44.48 48.1299 44.66 43.9399C44.85 39.4399 41.87 38.8699 41.87 38.8699V38.8799Z" fill="#008C00"/>
<path d="M39.06 45.1299C41.14 45.4799 43.1 45.3299 44.57 44.8099C44.61 44.5399 44.65 44.2599 44.66 43.9499C44.85 39.4499 41.87 38.8799 41.87 38.8799C41.87 38.8799 39.64 38.5299 37.85 38.6799C37.65 38.6799 37.46 38.6999 37.27 38.7499C35.69 39.1699 34.56 41.1499 34.6 43.4999C35.77 44.2499 37.32 44.8299 39.05 45.1199L39.06 45.1299Z" fill="#1CE61C"/>
<path d="M40.51 43.86C40.47 45.77 39.38 47.23 38.06 47.2C36.73 47.17 35.59 45.64 35.53 43.71C35.46 41.69 36.58 40.03 38.01 40.09C39.44 40.15 40.55 41.87 40.51 43.86Z" fill="#1A2C38"/>
<path d="M39.83 43.5999C39.82 44.7199 39.18 45.5899 38.4 45.5699C37.62 45.5499 36.96 44.6399 36.94 43.5099C36.92 42.3499 37.57 41.4199 38.38 41.4499C39.2 41.4799 39.84 42.4499 39.83 43.5999Z" fill="white"/>
<path d="M14.78 37.7301C14.78 37.7301 12.3 37.1801 10.44 37.5501C8.69 37.8201 7.41 39.9701 7.52 42.5301C7.63 45.0801 9.11 47.0701 10.83 47.2101C10.83 47.2101 12.06 47.4701 14.06 47.2101C14.06 47.2101 17.39 46.9801 17.57 42.7901C17.76 38.2901 14.78 37.7201 14.78 37.7201V37.7301Z" fill="#008C00"/>
<path d="M17.32 44.3701C17.46 43.9201 17.55 43.4101 17.57 42.8101C17.76 38.3101 14.78 37.7401 14.78 37.7401C14.78 37.7401 12.3 37.1901 10.44 37.5601C8.69 37.8301 7.41 39.9801 7.52 42.5401C7.53 42.7701 7.55 42.9801 7.58 43.2001C8.72 43.8801 10.18 44.4101 11.81 44.6901C13.89 45.0401 15.85 44.8901 17.31 44.3801L17.32 44.3701Z" fill="#1CE61C"/>
<path d="M13.42 42.7101C13.38 44.6201 12.29 46.0801 10.97 46.0501C9.64 46.0201 8.5 44.4901 8.44 42.5601C8.37 40.5401 9.49 38.8801 10.92 38.9401C12.35 39.0001 13.46 40.7201 13.42 42.7101Z" fill="#1A2C38"/>
<path d="M12.88 42.3599C12.87 43.4799 12.23 44.3499 11.45 44.3299C10.67 44.3099 10.01 43.3999 9.99 42.2699C9.97 41.1099 10.62 40.1799 11.43 40.2099C12.25 40.2399 12.89 41.2099 12.88 42.3599Z" fill="white"/>
<path d="M55.36 30.22C55.36 30.22 37.9 28.5 19.63 27.53C7.09995 26.86 6.21995 24.8 3.88995 25.36C2.90995 25.59 3.01995 27.25 3.52995 28.03C4.80995 29.99 10.46 33.11 15.38 34.05C22.28 35.37 43.6899 37.49 57.57 34.66C61.02 33.96 61.7699 32.13 61.3499 31.37C60.9799 30.72 59.1299 30.9 55.3699 30.22H55.36Z" fill="#FFEBB8"/>
<path d="M10.25 30.71L10.33 30.74C11.92 31.3 13.68 31.73 15.54 31.93C22.32 32.67 27.5 33.43 31.76 33.73C41.67 34.42 47.61 34.53 57.9 32.92C61.24 32.4 62.69 31.21 59.98 30.12C59.02 29.73 57.53 29.34 55.42 28.96C55.42 28.96 54.88 28.9 53.83 28.8C50.57 28.49 42.36 27.78 29.79 27.07C28.95 27.02 28.09 26.98 27.21 26.93C14.68 26.26 6.69 24.34 4.36 24.89C1.73 25.51 4.94 28.81 10.25 30.7V30.71Z" fill="#45A7FF"/>
<path d="M10.25 30.71L10.33 30.74C14.22 28.38 25.71 27.37 29.79 27.08C28.95 27.03 28.09 26.99 27.21 26.94C14.68 26.27 6.69 24.35 4.36 24.9C1.73 25.52 4.94 28.82 10.25 30.71Z" fill="#047BFF"/>
<path d="M16.6 29.56C19.124 29.56 21.17 29.1571 21.17 28.66C21.17 28.163 19.124 27.76 16.6 27.76C14.0761 27.76 12.03 28.163 12.03 28.66C12.03 29.1571 14.0761 29.56 16.6 29.56Z" fill="white"/>
</g>
<path fill-rule="evenodd" clip-rule="evenodd" d="M6.49771 79C6.98969 79 7.48602 79.213 7.49037 79.6913C7.49037 80.1043 7.24656 80.2696 6.99839 80.2696C6.75023 80.2696 6.73281 80.1435 6.73281 80.1435C6.73281 80.1435 7.02452 79.9261 7.02452 79.7174C7.02452 79.6087 6.94179 79.313 6.489 79.3174C5.8577 79.3174 5.5181 79.6174 5.5181 80.1522C5.5181 80.7652 7.35105 80.9739 7.3554 81.7652C7.3554 82.613 6.47594 82.9957 5.69225 83C5.283 83 5.01306 82.7609 5.00871 82.3783C5.00871 81.9261 5.22204 81.4652 5.75756 81.4652C5.88382 81.4565 5.98831 81.5522 5.99702 81.6783C5.99702 81.6783 5.99702 81.6826 5.99702 81.687C5.99702 81.687 5.45715 81.8391 5.4615 82.3783C5.4615 82.4783 5.56599 82.6609 5.81851 82.6565C6.07103 82.6522 6.82424 82.4739 6.81989 81.8087C6.81989 81.1913 5.00435 81.1087 5 80.1478C5 79.0652 6.08845 79.0087 6.49771 79.0087V79ZM10.747 79.6C10.8123 79.5696 11.2129 79.4913 11.1955 79.813C11.1824 80.1348 10.9386 80.6913 10.9037 80.9348C11.2303 80.7696 11.6918 80.2087 11.6918 80.2087C11.6918 80.2087 12.0183 80.2522 11.9182 80.4522C11.818 80.6522 11.1519 81.1435 11.1519 81.1435C11.1519 81.1435 11.3043 82.5696 12.1707 82.5696C12.6453 82.5696 12.8499 82.3609 12.937 82.287C12.9587 82.2696 12.9762 82.2652 12.9849 82.2783C13.0197 82.387 12.9936 82.5043 12.9152 82.5913C12.8194 82.6957 12.5974 82.8217 12.1533 82.8261C11.3653 82.8261 10.9255 82.1957 10.8123 81.2609C10.7252 81.5348 10.7339 81.9826 10.7209 82.2C10.6948 82.2435 10.2507 82.4174 10.2158 82.1174C10.2158 82.0913 10.2158 82.0696 10.2158 82.0435C10.1331 82.1609 10.0199 82.2826 9.91108 82.2826C9.71951 82.2826 9.63679 82.1217 9.60196 82.0391C9.57584 82.0696 9.3625 82.287 9.08821 82.287C8.92277 82.2913 8.77474 82.1957 8.70943 82.0435C8.57011 82.1435 8.32195 82.2913 8.03895 82.2913C7.73418 82.2913 7.66017 82.1087 7.66017 81.9565C7.66017 81.713 7.84303 80.987 7.84303 80.987C7.84303 80.987 7.48602 81.1304 7.36411 81.1348C7.19431 81.1348 7.11159 80.8217 7.11159 80.813C7.11159 80.8087 7.11159 80.8 7.1203 80.8C7.22044 80.7609 7.94317 80.513 7.94317 80.513C7.94317 80.513 8.07813 79.9826 8.09555 79.913C8.11296 79.8435 8.2131 79.7 8.33065 79.6565C8.41773 79.6217 8.50916 79.6 8.60059 79.5913C8.63107 79.5913 8.65284 79.6 8.65284 79.6174C8.65284 79.6348 8.47433 80.4087 8.47433 80.4087C8.47433 80.4087 8.84876 80.3217 8.98808 80.3217C9.09692 80.3217 9.15352 80.387 9.09257 80.4696C9.03162 80.5522 8.96196 80.6478 8.92712 80.6913C8.88794 80.7348 8.86182 80.7435 8.77039 80.7609C8.64413 80.787 8.36113 80.8565 8.36113 80.8565C8.36113 80.8565 8.13473 81.6783 8.13909 81.8174C8.13909 81.8957 8.16521 81.987 8.26099 81.987C8.35678 81.987 8.53964 81.8739 8.67025 81.7913C8.69202 81.1522 9.18835 80.7261 9.57584 80.7261C9.7021 80.7261 9.65421 80.8478 9.79788 80.8478H9.88931C9.94591 80.8478 10.0069 80.8522 10.0069 80.9957C10.0069 81.1957 9.89367 81.5261 9.89367 81.7348C9.89367 81.8826 9.91544 81.987 9.97204 81.987C10.0678 81.987 10.1767 81.8478 10.255 81.7261C10.3813 81.0304 10.734 79.7609 10.734 79.6174L10.747 79.6ZM12.5016 80.7C12.7672 80.6783 12.9326 80.8217 12.9631 80.9C12.9936 80.9783 12.9892 81.1609 12.9152 81.2913C12.6845 81.7044 12.1097 81.6304 12.1097 81.6304C12.1097 81.6304 12.0444 81.9565 12.3405 81.9565C12.593 81.9565 12.7062 81.8304 12.8151 81.7261C12.8586 81.7261 12.9936 81.8652 12.9326 81.9609C12.8847 82.0348 12.6191 82.2565 12.2795 82.2609C11.7397 82.2609 11.6047 81.8 11.6744 81.4696C11.7658 81.0609 12.1751 80.7217 12.5016 80.6957V80.7ZM9.6455 80.987C9.32332 80.987 8.82699 81.9696 9.20577 81.9652C9.61938 81.9652 9.6455 81.1826 9.6455 81.0043V80.987ZM12.6409 80.8913C12.4232 80.9 12.1751 81.3174 12.1533 81.5C12.4798 81.513 12.654 81.1957 12.6757 81.0696C12.6888 80.9739 12.6932 80.887 12.6409 80.887V80.8913Z" fill="#557086"/>
<path d="M56.1444 79.3778L56.6412 80.278L57.6519 80.4733C57.7792 80.4988 57.8302 80.6559 57.741 80.7494L57.0361 81.5009L57.1635 82.5243C57.1805 82.6559 57.0446 82.7494 56.93 82.6942L56 82.2568L55.0701 82.6942C54.9512 82.7494 54.8196 82.6517 54.8366 82.5243L54.964 81.5009L54.2591 80.7494C54.1699 80.6559 54.2209 80.4988 54.3482 80.4733L55.3589 80.278L55.8557 79.3778C55.9194 79.2632 56.085 79.2632 56.1444 79.3778Z" fill="#FFC200"/>
<path d="M56 79.2929C56.0552 79.2929 56.1147 79.3226 56.1444 79.3778L56.6412 80.278L57.6519 80.4733C57.7792 80.4988 57.8302 80.6559 57.741 80.7494L57.0361 81.5009L57.1635 82.5243C57.1763 82.6262 57.0955 82.7111 56.9979 82.7111C56.9766 82.7111 56.9512 82.7069 56.9257 82.6942L55.9958 82.2568L55.0658 82.6942C55.0403 82.7069 55.0191 82.7111 54.9936 82.7111C54.9002 82.7111 54.8153 82.6262 54.828 82.5243L54.9554 81.5009L54.2505 80.7494C54.1614 80.6559 54.2123 80.4988 54.3397 80.4733L55.3503 80.278L55.8471 79.3778C55.8769 79.3226 55.9363 79.2929 55.9915 79.2929M56 79.0806C55.8641 79.0806 55.7367 79.157 55.6688 79.2759L55.2187 80.0912L54.3057 80.2653C54.1699 80.2908 54.0594 80.3884 54.017 80.5201C53.9745 80.6517 54.0085 80.7961 54.1019 80.8937L54.7389 81.5731L54.6242 82.4946C54.6115 82.6007 54.6454 82.7111 54.7134 82.7918C54.7856 82.8725 54.8875 82.9192 54.9979 82.9192C55.0531 82.9192 55.1083 82.9065 55.1592 82.881L56 82.4861L56.8408 82.881C56.8917 82.9065 56.9469 82.9192 57.0021 82.9192C57.1125 82.9192 57.2144 82.8725 57.2866 82.7918C57.3588 82.7111 57.3928 82.6007 57.3758 82.4946L57.2611 81.5731L57.8981 80.8937C57.9915 80.7918 58.0255 80.6474 57.983 80.5201C57.9406 80.3884 57.8301 80.2908 57.6943 80.2653L56.7813 80.0912L56.3312 79.2759C56.2633 79.157 56.1359 79.0806 56 79.0806Z" fill="#213743"/>
<path d="M56 79.8152V80.9744C56 81.0678 56.0892 81.1315 56.1784 81.106L57.2187 80.7706C57.2739 80.7536 57.2697 80.6729 57.2102 80.6602L56.5563 80.5413C56.4969 80.5286 56.4417 80.4903 56.4119 80.4351L56.085 79.7939C56.0637 79.7515 55.9958 79.7642 55.9958 79.8152H56Z" fill="#FFEBB8"/>
<path d="M56 81.4924V82.0699C56 82.1039 56.017 82.1294 56.0467 82.1464L56.7983 82.5073C56.8366 82.5243 56.8705 82.4818 56.845 82.4479L56.0935 81.4627C56.0637 81.4245 56 81.4457 56 81.4924Z" fill="#FF7F00"/>
<rect x="13" y="62" width="37" height="13" rx="6.5" fill="#2F4553"/>
<path d="M30.445 70H29.413V67.318L28.741 67.996L28.153 67.378L29.551 65.998H30.445V70ZM33.9146 70H32.9006L32.3426 69.124L31.7786 70H30.7706L31.7606 68.512L30.8306 67.102H31.8446L32.3426 67.888L32.8346 67.102H33.8486L32.9246 68.512L33.9146 70Z" fill="white"/>
<path d="M8.03 11H7.215L6.56 9.815H6.04V11H5.33V7.665H6.89C7.585 7.665 8.01 8.12 8.01 8.74C8.01 9.33 7.64 9.645 7.28 9.73L8.03 11ZM6.785 9.19C7.07 9.19 7.285 9.02 7.285 8.74C7.285 8.46 7.07 8.29 6.785 8.29H6.04V9.19H6.785ZM10.5152 11H9.88023V10.75C9.71523 10.945 9.43023 11.06 9.11523 11.06C8.73023 11.06 8.27523 10.8 8.27523 10.26C8.27523 9.695 8.73023 9.48 9.11523 9.48C9.43523 9.48 9.72023 9.585 9.88023 9.775V9.45C9.88023 9.205 9.67023 9.045 9.35023 9.045C9.09023 9.045 8.85023 9.14 8.64523 9.33L8.40523 8.905C8.70023 8.645 9.08023 8.525 9.46023 8.525C10.0102 8.525 10.5152 8.745 10.5152 9.44V11ZM9.37023 10.63C9.57523 10.63 9.77523 10.56 9.88023 10.42V10.12C9.77523 9.98 9.57523 9.91 9.37023 9.91C9.12023 9.91 8.91523 10.04 8.91523 10.275C8.91523 10.5 9.12023 10.63 9.37023 10.63ZM11.7801 11H11.1451V8.585H11.7801V8.915C11.9501 8.7 12.2501 8.525 12.5501 8.525V9.145C12.5051 9.135 12.4451 9.13 12.3751 9.13C12.1651 9.13 11.8851 9.25 11.7801 9.405V11ZM14.0818 11.06C13.3468 11.06 12.7918 10.565 12.7918 9.79C12.7918 9.09 13.3068 8.525 14.0418 8.525C14.7618 8.525 15.2518 9.065 15.2518 9.855V9.995H13.4568C13.4968 10.3 13.7418 10.555 14.1518 10.555C14.3568 10.555 14.6418 10.465 14.7968 10.315L15.0768 10.725C14.8368 10.945 14.4568 11.06 14.0818 11.06ZM14.6368 9.565C14.6218 9.335 14.4618 9.03 14.0418 9.03C13.6468 9.03 13.4768 9.325 13.4468 9.565H14.6368Z" fill="white"/>
<path d="M49.178 11H48.726L47.334 9.096V11H46.866V8.332H47.346L48.71 10.184V8.332H49.178V11ZM50.6049 11.048C49.9929 11.048 49.6129 10.588 49.6129 10.032C49.6129 9.48 49.9929 9.02 50.6049 9.02C51.2249 9.02 51.6009 9.48 51.6009 10.032C51.6009 10.588 51.2249 11.048 50.6049 11.048ZM50.6049 10.676C50.9649 10.676 51.1649 10.376 51.1649 10.032C51.1649 9.692 50.9649 9.392 50.6049 9.392C50.2489 9.392 50.0489 9.692 50.0489 10.032C50.0489 10.376 50.2489 10.676 50.6049 10.676ZM52.2224 11.044C52.0704 11.044 51.9424 10.916 51.9424 10.764C51.9424 10.612 52.0704 10.484 52.2224 10.484C52.3744 10.484 52.5024 10.612 52.5024 10.764C52.5024 10.916 52.3744 11.044 52.2224 11.044ZM54.7382 11H54.2262L55.2342 8.744H53.8502V8.332H55.7742V8.656L54.7382 11ZM56.8671 11H56.3551L57.3631 8.744H55.9791V8.332H57.9031V8.656L56.8671 11Z" fill="white"/>
<defs>
<linearGradient id="paint0_linear_26835_29240" x1="20.2194" y1="46.2108" x2="19.5704" y2="38.0195" gradientUnits="userSpaceOnUse">
<stop stop-color="#FFA148"/>
<stop offset="0.12" stop-color="#FF9742"/>
<stop offset="0.31" stop-color="#FF7F33"/>
<stop offset="0.55" stop-color="#FF571B"/>
<stop offset="0.78" stop-color="#FF2A00"/>
<stop offset="1" stop-color="#FF7200"/>
</linearGradient>
<linearGradient id="paint1_linear_26835_29240" x1="46.6184" y1="47.2576" x2="45.9702" y2="39.0761" gradientUnits="userSpaceOnUse">
<stop stop-color="#FFA148"/>
<stop offset="0.12" stop-color="#FF9742"/>
<stop offset="0.31" stop-color="#FF7F33"/>
<stop offset="0.55" stop-color="#FF571B"/>
<stop offset="0.78" stop-color="#FF2A00"/>
<stop offset="1" stop-color="#FF7200"/>
</linearGradient>
<clipPath id="clip0_26835_29240">
<rect width="63" height="88" fill="white"/>
</clipPath>
</defs>
</svg>
