<svg width="63" height="88" viewBox="0 0 63 88" fill="none" xmlns="http://www.w3.org/2000/svg">
<rect width="63" height="88" rx="4" fill="#FF003F"/>
<path d="M36.7008 13.5133L44.7992 3.48665C45.5586 2.54645 46.7024 2 47.911 2H58C59.6569 2 61 3.34314 61 5V83C61 84.6569 59.6569 86 58 86H5C3.34315 86 2 84.6569 2 83V18C2 16.3431 3.34315 15 5 15H33.589C34.7976 15 35.9414 14.4536 36.7008 13.5133Z" fill="#213743"/>
<rect x="5" y="18" width="53" height="40" rx="1" fill="#2F4553"/>
<g clip-path="url(#clip0_26835_29241)">
<mask id="mask0_26835_29241" style="mask-type:luminance" maskUnits="userSpaceOnUse" x="5" y="18" width="53" height="40">
<path d="M57 18H6C5.44772 18 5 18.4477 5 19V57C5 57.5523 5.44772 58 6 58H57C57.5523 58 58 57.5523 58 57V19C58 18.4477 57.5523 18 57 18Z" fill="white"/>
</mask>
<g mask="url(#mask0_26835_29241)">
<path d="M21.02 17.05H0.0700073V38H21.02V17.05Z" fill="#45A7FF"/>
<path d="M41.97 17.05H21.02V38H41.97V17.05Z" fill="#047BFF"/>
<path d="M62.93 17.05H41.98V38H62.93V17.05Z" fill="#45A7FF"/>
<path d="M21.02 38H0.0700073V58.95H21.02V38Z" fill="#047BFF"/>
<path d="M41.97 38H21.02V58.95H41.97V38Z" fill="#45A7FF"/>
<path d="M62.93 38H41.98V58.95H62.93V38Z" fill="#047BFF"/>
</g>
<mask id="mask1_26835_29241" style="mask-type:luminance" maskUnits="userSpaceOnUse" x="5" y="18" width="53" height="40">
<path d="M57 18H6C5.44772 18 5 18.4477 5 19V57C5 57.5523 5.44772 58 6 58H57C57.5523 58 58 57.5523 58 57V19C58 18.4477 57.5523 18 57 18Z" fill="white"/>
</mask>
<g mask="url(#mask1_26835_29241)">
<path d="M32.14 21.12C32.14 21.12 32.02 21.1 31.83 21.07L33.32 20.12L36.15 18.62L36.48 16.54L32.65 15.93L33.3 11.87L30.73 11.46L30.08 15.52L26.25 14.91L25.92 16.99L29.75 17.6L29.24 20.75C26.43 20.51 22.55 20.57 22.21 22.65L21.66 26.11C21.63 26.27 21.72 26.44 21.87 26.51C22.28 26.7 22.7 26.86 23.12 27.03C23.65 28.61 24.1 30.68 23.53 34.23C22.38 41.41 14.98 46.97 14.59 49.41C14.41 50.51 14.95 51.32 15.58 51.87C14 51.99 13.03 52.29 12.95 52.77L12.42 56.05C12.22 57.3 18.22 59.31 25.83 60.52C33.44 61.73 39.76 61.71 39.96 60.46L40.49 57.18C40.57 56.7 39.74 56.12 38.27 55.51C39.05 55.18 39.81 54.58 39.98 53.48C40.37 51.04 35.07 43.44 36.22 36.27C36.79 32.72 37.86 30.9 38.85 29.56C39.3 29.53 39.75 29.5 40.21 29.45C40.37 29.43 40.51 29.3 40.53 29.14L41.08 25.68H41.07C41.6 22.39 32.12 21.13 32.12 21.13L32.14 21.12Z" fill="#1A2C38"/>
</g>
<path d="M30.28 50.92C22.68 49.7 16.35 49.73 16.15 50.98L15.62 54.26C15.42 55.51 21.42 57.52 29.03 58.73C36.63 59.95 42.96 59.92 43.16 58.67L43.69 55.39C43.89 54.14 37.89 52.13 30.28 50.92Z" fill="#FFC200"/>
<path d="M21.87 49.28L18.78 50.09C18.78 50.09 16.3 50.12 16.16 50.99C15.83 53.07 34.18 56.88 39.56 54.13L21.88 49.29L21.87 49.28Z" fill="#FF5500"/>
<path d="M39.43 34.4801C40.58 27.3001 43.76 27.1801 44.29 23.8901C44.82 20.6001 35.34 19.3401 35.34 19.3401C35.34 19.3401 25.94 17.5801 25.42 20.8701C24.89 24.1601 27.88 25.2801 26.73 32.4501C25.58 39.6301 18.18 45.1901 17.79 47.6301C17.4 50.0701 20.49 51.0801 20.49 51.0801C26.78 53.0901 33.14 54.1401 39.56 54.1301C39.56 54.1301 42.81 54.1301 43.2 51.7001C43.59 49.2701 38.29 41.6601 39.44 34.4901L39.43 34.4801Z" fill="white"/>
<path d="M38.27 20.89C37.36 20.67 36.31 20.46 35.19 20.28C31.65 19.71 28.71 19.67 28.63 20.17C28.55 20.67 31.35 21.55 34.9 22.12C36.22 22.33 37.45 22.47 38.49 22.54C38.73 21.86 38.55 21.3 38.28 20.89H38.27Z" fill="#FF5500"/>
<path d="M41.46 22.2299C41.52 21.8799 40.23 21.3699 38.28 20.8899C38.55 21.2999 38.73 21.8599 38.49 22.5399C40.24 22.6499 41.41 22.5499 41.47 22.2299H41.46Z" fill="#1A2C38"/>
<path d="M25.59 36.12C25.59 36.12 30.57 37.11 36.59 35.55C36.59 35.55 38.01 34.93 38.07 34.34L26.48 33.3C26.48 33.3 26.48 33.9701 25.59 36.1301V36.12Z" fill="#FFC200"/>
<path d="M27.69 25.1001C27.95 23.4601 35.75 24.9801 37.28 27.0901C38.93 29.3701 32.72 35.7801 34.55 41.1201C36.38 46.4601 39.6 54.0501 27.57 51.3801C15.54 48.7101 25.32 45.0901 27.7 37.7201C30.08 30.3501 27.4 26.8801 27.69 25.1001Z" fill="#FFC200"/>
<path d="M26.03 24.6599C26.03 24.6599 26.78 25.9399 26.98 28.8899C26.98 28.8899 30.86 26.5399 37.28 27.0899C37.28 27.0899 28.31 23.0099 26.03 24.6699V24.6599Z" fill="#FF5500"/>
<path d="M43.42 27.6601C37.04 28.3801 30.92 27.4001 25.08 24.7201C24.93 24.6501 24.84 24.4901 24.87 24.3201L25.42 20.8601L44.3 23.8801L43.75 27.3401C43.72 27.5001 43.59 27.6301 43.43 27.6501L43.42 27.6601Z" fill="white"/>
<path d="M39.27 35.73C34.98 35.55 30.72 34.86 26.48 33.68C25.74 33.56 25.23 32.86 25.34 32.11C25.46 31.37 26.16 30.86 26.91 30.97C31.1 32.11 35.36 32.79 39.7 33.02C40.44 33.14 40.95 33.84 40.84 34.59C40.72 35.33 40.02 35.84 39.27 35.73Z" fill="white"/>
<path d="M36.04 23.1901C35.13 23.3601 34.28 23.2201 33.47 22.7801L35.38 10.8301L37.95 11.2401L36.04 23.1901Z" fill="white"/>
<path d="M41.127 15.9193L30.8974 14.2808L30.5637 16.3642L40.7933 18.0027L41.127 15.9193Z" fill="white"/>
<path d="M43.3 57.82L41.46 58.27L41.71 56.71L43.55 56.26L43.3 57.82Z" fill="white"/>
<path d="M31.77 49.9199C31.36 51.3699 28.56 51.8599 25.51 50.9999C22.46 50.1399 20.32 48.2699 20.73 46.8199C21.14 45.3699 24.94 41.5099 27.99 42.3699C31.04 43.2299 32.17 48.4699 31.77 49.9199Z" fill="#FF5500"/>
<path d="M18.13 51.92C18.13 51.92 24.42 55.04 31.19 55.65L30.66 58.99C28.68 58.84 16.8 56.79 15.61 54.46L16.17 50.99L18.15 51.92H18.13Z" fill="#FF5500"/>
</g>
<path fill-rule="evenodd" clip-rule="evenodd" d="M6.49771 79C6.98969 79 7.48602 79.213 7.49037 79.6913C7.49037 80.1043 7.24656 80.2696 6.99839 80.2696C6.75023 80.2696 6.73281 80.1435 6.73281 80.1435C6.73281 80.1435 7.02452 79.9261 7.02452 79.7174C7.02452 79.6087 6.94179 79.313 6.489 79.3174C5.8577 79.3174 5.5181 79.6174 5.5181 80.1522C5.5181 80.7652 7.35105 80.9739 7.3554 81.7652C7.3554 82.613 6.47594 82.9957 5.69225 83C5.283 83 5.01306 82.7609 5.00871 82.3783C5.00871 81.9261 5.22204 81.4652 5.75756 81.4652C5.88382 81.4565 5.98831 81.5522 5.99702 81.6783C5.99702 81.6783 5.99702 81.6826 5.99702 81.687C5.99702 81.687 5.45715 81.8391 5.4615 82.3783C5.4615 82.4783 5.56599 82.6609 5.81851 82.6565C6.07103 82.6522 6.82424 82.4739 6.81989 81.8087C6.81989 81.1913 5.00435 81.1087 5 80.1478C5 79.0652 6.08845 79.0087 6.49771 79.0087V79ZM10.747 79.6C10.8123 79.5696 11.2129 79.4913 11.1955 79.813C11.1824 80.1348 10.9386 80.6913 10.9037 80.9348C11.2303 80.7696 11.6918 80.2087 11.6918 80.2087C11.6918 80.2087 12.0183 80.2522 11.9182 80.4522C11.818 80.6522 11.1519 81.1435 11.1519 81.1435C11.1519 81.1435 11.3043 82.5696 12.1707 82.5696C12.6453 82.5696 12.8499 82.3609 12.937 82.287C12.9587 82.2696 12.9762 82.2652 12.9849 82.2783C13.0197 82.387 12.9936 82.5043 12.9152 82.5913C12.8194 82.6957 12.5974 82.8217 12.1533 82.8261C11.3653 82.8261 10.9255 82.1957 10.8123 81.2609C10.7252 81.5348 10.7339 81.9826 10.7209 82.2C10.6948 82.2435 10.2507 82.4174 10.2158 82.1174C10.2158 82.0913 10.2158 82.0696 10.2158 82.0435C10.1331 82.1609 10.0199 82.2826 9.91108 82.2826C9.71951 82.2826 9.63679 82.1217 9.60196 82.0391C9.57584 82.0696 9.3625 82.287 9.08821 82.287C8.92277 82.2913 8.77474 82.1957 8.70943 82.0435C8.57011 82.1435 8.32195 82.2913 8.03895 82.2913C7.73418 82.2913 7.66017 82.1087 7.66017 81.9565C7.66017 81.713 7.84303 80.987 7.84303 80.987C7.84303 80.987 7.48602 81.1304 7.36411 81.1348C7.19431 81.1348 7.11159 80.8217 7.11159 80.813C7.11159 80.8087 7.11159 80.8 7.1203 80.8C7.22044 80.7609 7.94317 80.513 7.94317 80.513C7.94317 80.513 8.07813 79.9826 8.09555 79.913C8.11296 79.8435 8.2131 79.7 8.33065 79.6565C8.41773 79.6217 8.50916 79.6 8.60059 79.5913C8.63107 79.5913 8.65284 79.6 8.65284 79.6174C8.65284 79.6348 8.47433 80.4087 8.47433 80.4087C8.47433 80.4087 8.84876 80.3217 8.98808 80.3217C9.09692 80.3217 9.15352 80.387 9.09257 80.4696C9.03162 80.5522 8.96196 80.6478 8.92712 80.6913C8.88794 80.7348 8.86182 80.7435 8.77039 80.7609C8.64413 80.787 8.36113 80.8565 8.36113 80.8565C8.36113 80.8565 8.13473 81.6783 8.13909 81.8174C8.13909 81.8957 8.16521 81.987 8.26099 81.987C8.35678 81.987 8.53964 81.8739 8.67025 81.7913C8.69202 81.1522 9.18835 80.7261 9.57584 80.7261C9.7021 80.7261 9.65421 80.8478 9.79788 80.8478H9.88931C9.94591 80.8478 10.0069 80.8522 10.0069 80.9957C10.0069 81.1957 9.89367 81.5261 9.89367 81.7348C9.89367 81.8826 9.91544 81.987 9.97204 81.987C10.0678 81.987 10.1767 81.8478 10.255 81.7261C10.3813 81.0304 10.734 79.7609 10.734 79.6174L10.747 79.6ZM12.5016 80.7C12.7672 80.6783 12.9326 80.8217 12.9631 80.9C12.9936 80.9783 12.9892 81.1609 12.9152 81.2913C12.6845 81.7044 12.1097 81.6304 12.1097 81.6304C12.1097 81.6304 12.0444 81.9565 12.3405 81.9565C12.593 81.9565 12.7062 81.8304 12.8151 81.7261C12.8586 81.7261 12.9936 81.8652 12.9326 81.9609C12.8847 82.0348 12.6191 82.2565 12.2795 82.2609C11.7397 82.2609 11.6047 81.8 11.6744 81.4696C11.7658 81.0609 12.1751 80.7217 12.5016 80.6957V80.7ZM9.6455 80.987C9.32332 80.987 8.82699 81.9696 9.20577 81.9652C9.61938 81.9652 9.6455 81.1826 9.6455 81.0043V80.987ZM12.6409 80.8913C12.4232 80.9 12.1751 81.3174 12.1533 81.5C12.4798 81.513 12.654 81.1957 12.6757 81.0696C12.6888 80.9739 12.6932 80.887 12.6409 80.887V80.8913Z" fill="#557086"/>
<path d="M56.1444 79.3778L56.6412 80.278L57.6519 80.4733C57.7792 80.4988 57.8302 80.6559 57.741 80.7494L57.0361 81.5009L57.1635 82.5243C57.1805 82.6559 57.0446 82.7494 56.93 82.6942L56 82.2568L55.0701 82.6942C54.9512 82.7494 54.8196 82.6517 54.8366 82.5243L54.964 81.5009L54.2591 80.7494C54.1699 80.6559 54.2209 80.4988 54.3482 80.4733L55.3589 80.278L55.8557 79.3778C55.9194 79.2632 56.085 79.2632 56.1444 79.3778Z" fill="#FFC200"/>
<path d="M56 79.2929C56.0552 79.2929 56.1147 79.3226 56.1444 79.3778L56.6412 80.278L57.6519 80.4733C57.7792 80.4988 57.8302 80.6559 57.741 80.7494L57.0361 81.5009L57.1635 82.5243C57.1763 82.6262 57.0955 82.7111 56.9979 82.7111C56.9766 82.7111 56.9512 82.7069 56.9257 82.6942L55.9958 82.2568L55.0658 82.6942C55.0403 82.7069 55.0191 82.7111 54.9936 82.7111C54.9002 82.7111 54.8153 82.6262 54.828 82.5243L54.9554 81.5009L54.2505 80.7494C54.1614 80.6559 54.2123 80.4988 54.3397 80.4733L55.3503 80.278L55.8471 79.3778C55.8769 79.3226 55.9363 79.2929 55.9915 79.2929M56 79.0806C55.8641 79.0806 55.7367 79.157 55.6688 79.2759L55.2187 80.0912L54.3057 80.2653C54.1699 80.2908 54.0594 80.3884 54.017 80.5201C53.9745 80.6517 54.0085 80.7961 54.1019 80.8937L54.7389 81.5731L54.6242 82.4946C54.6115 82.6007 54.6454 82.7111 54.7134 82.7918C54.7856 82.8725 54.8875 82.9192 54.9979 82.9192C55.0531 82.9192 55.1083 82.9065 55.1592 82.881L56 82.4861L56.8408 82.881C56.8917 82.9065 56.9469 82.9192 57.0021 82.9192C57.1125 82.9192 57.2144 82.8725 57.2866 82.7918C57.3588 82.7111 57.3928 82.6007 57.3758 82.4946L57.2611 81.5731L57.8981 80.8937C57.9915 80.7918 58.0255 80.6474 57.983 80.5201C57.9406 80.3884 57.8301 80.2908 57.6943 80.2653L56.7813 80.0912L56.3312 79.2759C56.2633 79.157 56.1359 79.0806 56 79.0806Z" fill="#213743"/>
<path d="M56 79.8152V80.9744C56 81.0678 56.0892 81.1315 56.1784 81.106L57.2187 80.7706C57.2739 80.7536 57.2697 80.6729 57.2102 80.6602L56.5563 80.5413C56.4969 80.5286 56.4417 80.4903 56.4119 80.4351L56.085 79.7939C56.0637 79.7515 55.9958 79.7642 55.9958 79.8152H56Z" fill="#FFEBB8"/>
<path d="M56 81.4924V82.0699C56 82.1039 56.017 82.1294 56.0467 82.1464L56.7983 82.5073C56.8366 82.5243 56.8705 82.4818 56.845 82.4479L56.0935 81.4627C56.0637 81.4245 56 81.4457 56 81.4924Z" fill="#FF7F00"/>
<rect x="13" y="62" width="37" height="13" rx="6.5" fill="#2F4553"/>
<path d="M30.445 70H29.413V67.318L28.741 67.996L28.153 67.378L29.551 65.998H30.445V70ZM33.9146 70H32.9006L32.3426 69.124L31.7786 70H30.7706L31.7606 68.512L30.8306 67.102H31.8446L32.3426 67.888L32.8346 67.102H33.8486L32.9246 68.512L33.9146 70Z" fill="white"/>
<path d="M8.03 11H7.215L6.56 9.815H6.04V11H5.33V7.665H6.89C7.585 7.665 8.01 8.12 8.01 8.74C8.01 9.33 7.64 9.645 7.28 9.73L8.03 11ZM6.785 9.19C7.07 9.19 7.285 9.02 7.285 8.74C7.285 8.46 7.07 8.29 6.785 8.29H6.04V9.19H6.785ZM10.5152 11H9.88023V10.75C9.71523 10.945 9.43023 11.06 9.11523 11.06C8.73023 11.06 8.27523 10.8 8.27523 10.26C8.27523 9.695 8.73023 9.48 9.11523 9.48C9.43523 9.48 9.72023 9.585 9.88023 9.775V9.45C9.88023 9.205 9.67023 9.045 9.35023 9.045C9.09023 9.045 8.85023 9.14 8.64523 9.33L8.40523 8.905C8.70023 8.645 9.08023 8.525 9.46023 8.525C10.0102 8.525 10.5152 8.745 10.5152 9.44V11ZM9.37023 10.63C9.57523 10.63 9.77523 10.56 9.88023 10.42V10.12C9.77523 9.98 9.57523 9.91 9.37023 9.91C9.12023 9.91 8.91523 10.04 8.91523 10.275C8.91523 10.5 9.12023 10.63 9.37023 10.63ZM11.7801 11H11.1451V8.585H11.7801V8.915C11.9501 8.7 12.2501 8.525 12.5501 8.525V9.145C12.5051 9.135 12.4451 9.13 12.3751 9.13C12.1651 9.13 11.8851 9.25 11.7801 9.405V11ZM14.0818 11.06C13.3468 11.06 12.7918 10.565 12.7918 9.79C12.7918 9.09 13.3068 8.525 14.0418 8.525C14.7618 8.525 15.2518 9.065 15.2518 9.855V9.995H13.4568C13.4968 10.3 13.7418 10.555 14.1518 10.555C14.3568 10.555 14.6418 10.465 14.7968 10.315L15.0768 10.725C14.8368 10.945 14.4568 11.06 14.0818 11.06ZM14.6368 9.565C14.6218 9.335 14.4618 9.03 14.0418 9.03C13.6468 9.03 13.4768 9.325 13.4468 9.565H14.6368Z" fill="white"/>
<path d="M48.928 11H48.476L47.084 9.096V11H46.616V8.332H47.096L48.46 10.184V8.332H48.928V11ZM50.3549 11.048C49.7429 11.048 49.3629 10.588 49.3629 10.032C49.3629 9.48 49.7429 9.02 50.3549 9.02C50.9749 9.02 51.3509 9.48 51.3509 10.032C51.3509 10.588 50.9749 11.048 50.3549 11.048ZM50.3549 10.676C50.7149 10.676 50.9149 10.376 50.9149 10.032C50.9149 9.692 50.7149 9.392 50.3549 9.392C49.9989 9.392 49.7989 9.692 49.7989 10.032C49.7989 10.376 49.9989 10.676 50.3549 10.676ZM51.9724 11.044C51.8204 11.044 51.6924 10.916 51.6924 10.764C51.6924 10.612 51.8204 10.484 51.9724 10.484C52.1244 10.484 52.2524 10.612 52.2524 10.764C52.2524 10.916 52.1244 11.044 51.9724 11.044ZM54.4882 11H53.9762L54.9842 8.744H53.6002V8.332H55.5242V8.656L54.4882 11ZM56.8131 11.048C56.2651 11.048 55.7891 10.796 55.7891 10.316C55.7891 9.976 56.0651 9.732 56.3891 9.624C56.0891 9.528 55.8331 9.332 55.8331 8.992C55.8331 8.5 56.3371 8.292 56.8131 8.292C57.2811 8.292 57.7931 8.5 57.7931 8.992C57.7931 9.332 57.5331 9.528 57.2331 9.624C57.5571 9.732 57.8331 9.976 57.8331 10.316C57.8331 10.792 57.3571 11.048 56.8131 11.048ZM56.8131 9.44C56.9771 9.412 57.3171 9.316 57.3171 9.064C57.3171 8.84 57.0971 8.708 56.8131 8.708C56.5211 8.708 56.3051 8.84 56.3051 9.064C56.3051 9.316 56.6491 9.412 56.8131 9.44ZM56.8131 10.632C57.1091 10.632 57.3611 10.488 57.3611 10.256C57.3611 9.98 56.9771 9.856 56.8131 9.836C56.6451 9.856 56.2611 9.98 56.2611 10.256C56.2611 10.488 56.5091 10.632 56.8131 10.632Z" fill="white"/>
<defs>
<clipPath id="clip0_26835_29241">
<rect width="63" height="88" fill="white"/>
</clipPath>
</defs>
</svg>
