<svg width="63" height="88" viewBox="0 0 63 88" fill="none" xmlns="http://www.w3.org/2000/svg">
<rect width="63" height="88" rx="4" fill="#FF003F"/>
<path d="M36.7008 13.5133L44.7992 3.48665C45.5586 2.54645 46.7024 2 47.911 2H58C59.6569 2 61 3.34314 61 5V83C61 84.6569 59.6569 86 58 86H5C3.34315 86 2 84.6569 2 83V18C2 16.3431 3.34315 15 5 15H33.589C34.7976 15 35.9414 14.4536 36.7008 13.5133Z" fill="#213743"/>
<rect x="5" y="18" width="53" height="40" rx="1" fill="#2F4553"/>
<g clip-path="url(#clip0_26835_29242)">
<path d="M57 18H6C5.44772 18 5 18.4477 5 19V57C5 57.5523 5.44772 58 6 58H57C57.5523 58 58 57.5523 58 57V19C58 18.4477 57.5523 18 57 18Z" fill="#1CE61C"/>
<path d="M19.46 19.54V25.97C13.33 27.18 8.67 32.61 8.67 39.08V55.06C8.67 56.07 8.79 57.05 9.01 58H47.33C47.55 57.05 47.67 56.07 47.67 55.06V44.55C51.62 42.59 54.36 38.53 54.36 33.84V19.54C54.36 19.02 54.31 18.51 54.25 18H19.57C19.5 18.5 19.46 19.01 19.46 19.54Z" fill="#0EC60E"/>
<path d="M25.01 26.55V31.24C20.54 32.12 17.14 36.08 17.14 40.8V52.46C17.14 54.51 17.79 56.42 18.88 58H43.84C44.94 56.42 45.58 54.52 45.58 52.46V44.79C48.46 43.36 50.46 40.4 50.46 36.98V26.55C50.46 22.34 47.44 18.8 43.45 18H32.01C28.03 18.8 25 22.34 25 26.55H25.01Z" fill="#1A2C38"/>
<path d="M39.8456 13.7046H31.4365C26.3807 13.7046 22.2821 17.8032 22.2821 22.859V33.8086C22.2821 38.8645 26.3807 42.9631 31.4365 42.9631H39.8456C44.9014 42.9631 49 38.8645 49 33.8086V22.859C49 17.8032 44.9014 13.7046 39.8456 13.7046Z" fill="#047BFF"/>
<path d="M35.6463 30.7747C41.7748 30.7747 46.7429 27.1508 46.7429 22.6805C46.7429 18.2103 41.7748 14.5864 35.6463 14.5864C29.5178 14.5864 24.5497 18.2103 24.5497 22.6805C24.5497 27.1508 29.5178 30.7747 35.6463 30.7747Z" fill="#45A7FF"/>
<path d="M35.6463 42.5746C41.2935 42.5746 45.8715 40.3749 45.8715 37.6614C45.8715 34.948 41.2935 32.7483 35.6463 32.7483C29.999 32.7483 25.421 34.948 25.421 37.6614C25.421 40.3749 29.999 42.5746 35.6463 42.5746Z" fill="#1A2C38"/>
<path d="M31.1426 20.6229C32.4935 20.6229 33.5886 19.8238 33.5886 18.8382C33.5886 17.8525 32.4935 17.0535 31.1426 17.0535C29.7916 17.0535 28.6965 17.8525 28.6965 18.8382C28.6965 19.8238 29.7916 20.6229 31.1426 20.6229Z" fill="white"/>
<path d="M40.087 27.1739C41.438 27.1739 42.5331 26.3748 42.5331 25.3892C42.5331 24.4035 41.438 23.6045 40.087 23.6045C38.7361 23.6045 37.641 24.4035 37.641 25.3892C37.641 26.3748 38.7361 27.1739 40.087 27.1739Z" fill="white"/>
<path d="M35.6463 39.1206C37.3219 39.1206 38.6803 38.4673 38.6803 37.6614C38.6803 36.8555 37.3219 36.2021 35.6463 36.2021C33.9707 36.2021 32.6123 36.8555 32.6123 37.6614C32.6123 38.4673 33.9707 39.1206 35.6463 39.1206Z" fill="#962EFF"/>
<path d="M33.6516 27.5938H24.2557C18.6027 27.5938 14.02 32.1764 14.02 37.8295V50.0599C14.02 55.7129 18.6027 60.2956 24.2557 60.2956H33.6516C39.3047 60.2956 43.8874 55.7129 43.8874 50.0599V37.8295C43.8874 32.1764 39.3047 27.5938 33.6516 27.5938Z" fill="#047BFF"/>
<path d="M28.9485 46.669C35.7959 46.669 41.3468 42.6221 41.3468 37.63C41.3468 32.6379 35.7959 28.5911 28.9485 28.5911C22.101 28.5911 16.5501 32.6379 16.5501 37.63C16.5501 42.6221 22.101 46.669 28.9485 46.669Z" fill="#45A7FF"/>
<path d="M28.9484 59.3297C35.2567 59.3297 40.3705 57.1065 40.3705 54.3641C40.3705 51.6216 35.2567 49.3984 28.9484 49.3984C22.6402 49.3984 17.5264 51.6216 17.5264 54.3641C17.5264 57.1065 22.6402 59.3297 28.9484 59.3297Z" fill="#1A2C38"/>
<path d="M33.9141 35.3204C35.4216 35.3204 36.6436 34.4273 36.6436 33.3257C36.6436 32.2241 35.4216 31.3311 33.9141 31.3311C32.4066 31.3311 31.1846 32.2241 31.1846 33.3257C31.1846 34.4273 32.4066 35.3204 33.9141 35.3204Z" fill="white"/>
<path d="M41.1158 33.6092C40.6644 34.1971 39.3836 33.3677 37.7984 32.1289C36.2132 30.8901 34.9114 29.6933 35.3628 29.1159C35.8143 28.5385 37.473 29.0634 39.0582 30.3022C40.6434 31.541 41.5673 33.0213 41.1053 33.6092H41.1158Z" fill="white"/>
<path d="M23.9198 35.3204C25.4273 35.3204 26.6493 34.4273 26.6493 33.3257C26.6493 32.2241 25.4273 31.3311 23.9198 31.3311C22.4123 31.3311 21.1903 32.2241 21.1903 33.3257C21.1903 34.4273 22.4123 35.3204 23.9198 35.3204Z" fill="white"/>
<path d="M33.9141 42.6483C35.4216 42.6483 36.6436 41.7552 36.6436 40.6536C36.6436 39.552 35.4216 38.6589 33.9141 38.6589C32.4066 38.6589 31.1846 39.552 31.1846 40.6536C31.1846 41.7552 32.4066 42.6483 33.9141 42.6483Z" fill="white"/>
<path d="M23.9198 42.6483C25.4273 42.6483 26.6493 41.7552 26.6493 40.6536C26.6493 39.552 25.4273 38.6589 23.9198 38.6589C22.4123 38.6589 21.1903 39.552 21.1903 40.6536C21.1903 41.7552 22.4123 42.6483 23.9198 42.6483Z" fill="white"/>
<path d="M28.9484 55.8443C30.8212 55.8443 32.3393 55.1816 32.3393 54.364C32.3393 53.5465 30.8212 52.8838 28.9484 52.8838C27.0757 52.8838 25.5575 53.5465 25.5575 54.364C25.5575 55.1816 27.0757 55.8443 28.9484 55.8443Z" fill="white"/>
<path d="M16.95 29C16.36 29.91 15.89 30.38 15 30.95C15.91 31.54 16.38 32.01 16.95 32.9C17.54 31.99 18.01 31.52 18.9 30.95C17.99 30.36 17.52 29.89 16.95 29Z" fill="white"/>
</g>
<path fill-rule="evenodd" clip-rule="evenodd" d="M6.49771 79C6.98969 79 7.48602 79.213 7.49037 79.6913C7.49037 80.1043 7.24656 80.2696 6.99839 80.2696C6.75023 80.2696 6.73281 80.1435 6.73281 80.1435C6.73281 80.1435 7.02452 79.9261 7.02452 79.7174C7.02452 79.6087 6.94179 79.313 6.489 79.3174C5.8577 79.3174 5.5181 79.6174 5.5181 80.1522C5.5181 80.7652 7.35105 80.9739 7.3554 81.7652C7.3554 82.613 6.47594 82.9957 5.69225 83C5.283 83 5.01306 82.7609 5.00871 82.3783C5.00871 81.9261 5.22204 81.4652 5.75756 81.4652C5.88382 81.4565 5.98831 81.5522 5.99702 81.6783C5.99702 81.6783 5.99702 81.6826 5.99702 81.687C5.99702 81.687 5.45715 81.8391 5.4615 82.3783C5.4615 82.4783 5.56599 82.6609 5.81851 82.6565C6.07103 82.6522 6.82424 82.4739 6.81989 81.8087C6.81989 81.1913 5.00435 81.1087 5 80.1478C5 79.0652 6.08845 79.0087 6.49771 79.0087V79ZM10.747 79.6C10.8123 79.5696 11.2129 79.4913 11.1955 79.813C11.1824 80.1348 10.9386 80.6913 10.9037 80.9348C11.2303 80.7696 11.6918 80.2087 11.6918 80.2087C11.6918 80.2087 12.0183 80.2522 11.9182 80.4522C11.818 80.6522 11.1519 81.1435 11.1519 81.1435C11.1519 81.1435 11.3043 82.5696 12.1707 82.5696C12.6453 82.5696 12.8499 82.3609 12.937 82.287C12.9587 82.2696 12.9762 82.2652 12.9849 82.2783C13.0197 82.387 12.9936 82.5043 12.9152 82.5913C12.8194 82.6957 12.5974 82.8217 12.1533 82.8261C11.3653 82.8261 10.9255 82.1957 10.8123 81.2609C10.7252 81.5348 10.7339 81.9826 10.7209 82.2C10.6948 82.2435 10.2507 82.4174 10.2158 82.1174C10.2158 82.0913 10.2158 82.0696 10.2158 82.0435C10.1331 82.1609 10.0199 82.2826 9.91108 82.2826C9.71951 82.2826 9.63679 82.1217 9.60196 82.0391C9.57584 82.0696 9.3625 82.287 9.08821 82.287C8.92277 82.2913 8.77474 82.1957 8.70943 82.0435C8.57011 82.1435 8.32195 82.2913 8.03895 82.2913C7.73418 82.2913 7.66017 82.1087 7.66017 81.9565C7.66017 81.713 7.84303 80.987 7.84303 80.987C7.84303 80.987 7.48602 81.1304 7.36411 81.1348C7.19431 81.1348 7.11159 80.8217 7.11159 80.813C7.11159 80.8087 7.11159 80.8 7.1203 80.8C7.22044 80.7609 7.94317 80.513 7.94317 80.513C7.94317 80.513 8.07813 79.9826 8.09555 79.913C8.11296 79.8435 8.2131 79.7 8.33065 79.6565C8.41773 79.6217 8.50916 79.6 8.60059 79.5913C8.63107 79.5913 8.65284 79.6 8.65284 79.6174C8.65284 79.6348 8.47433 80.4087 8.47433 80.4087C8.47433 80.4087 8.84876 80.3217 8.98808 80.3217C9.09692 80.3217 9.15352 80.387 9.09257 80.4696C9.03162 80.5522 8.96196 80.6478 8.92712 80.6913C8.88794 80.7348 8.86182 80.7435 8.77039 80.7609C8.64413 80.787 8.36113 80.8565 8.36113 80.8565C8.36113 80.8565 8.13473 81.6783 8.13909 81.8174C8.13909 81.8957 8.16521 81.987 8.26099 81.987C8.35678 81.987 8.53964 81.8739 8.67025 81.7913C8.69202 81.1522 9.18835 80.7261 9.57584 80.7261C9.7021 80.7261 9.65421 80.8478 9.79788 80.8478H9.88931C9.94591 80.8478 10.0069 80.8522 10.0069 80.9957C10.0069 81.1957 9.89367 81.5261 9.89367 81.7348C9.89367 81.8826 9.91544 81.987 9.97204 81.987C10.0678 81.987 10.1767 81.8478 10.255 81.7261C10.3813 81.0304 10.734 79.7609 10.734 79.6174L10.747 79.6ZM12.5016 80.7C12.7672 80.6783 12.9326 80.8217 12.9631 80.9C12.9936 80.9783 12.9892 81.1609 12.9152 81.2913C12.6845 81.7044 12.1097 81.6304 12.1097 81.6304C12.1097 81.6304 12.0444 81.9565 12.3405 81.9565C12.593 81.9565 12.7062 81.8304 12.8151 81.7261C12.8586 81.7261 12.9936 81.8652 12.9326 81.9609C12.8847 82.0348 12.6191 82.2565 12.2795 82.2609C11.7397 82.2609 11.6047 81.8 11.6744 81.4696C11.7658 81.0609 12.1751 80.7217 12.5016 80.6957V80.7ZM9.6455 80.987C9.32332 80.987 8.82699 81.9696 9.20577 81.9652C9.61938 81.9652 9.6455 81.1826 9.6455 81.0043V80.987ZM12.6409 80.8913C12.4232 80.9 12.1751 81.3174 12.1533 81.5C12.4798 81.513 12.654 81.1957 12.6757 81.0696C12.6888 80.9739 12.6932 80.887 12.6409 80.887V80.8913Z" fill="#557086"/>
<path d="M56.1444 79.3778L56.6412 80.278L57.6519 80.4733C57.7792 80.4988 57.8302 80.6559 57.741 80.7494L57.0361 81.5009L57.1635 82.5243C57.1805 82.6559 57.0446 82.7494 56.93 82.6942L56.0001 82.2568L55.0701 82.6942C54.9512 82.7494 54.8196 82.6517 54.8366 82.5243L54.964 81.5009L54.2591 80.7494C54.1699 80.6559 54.2209 80.4988 54.3482 80.4733L55.3589 80.278L55.8557 79.3778C55.9194 79.2632 56.085 79.2632 56.1444 79.3778Z" fill="#FFC200"/>
<path d="M56 79.2929C56.0552 79.2929 56.1147 79.3226 56.1444 79.3778L56.6412 80.278L57.6519 80.4733C57.7792 80.4988 57.8302 80.6559 57.741 80.7494L57.0361 81.5009L57.1635 82.5243C57.1763 82.6262 57.0955 82.7111 56.9979 82.7111C56.9767 82.7111 56.9512 82.7069 56.9257 82.6942L55.9958 82.2568L55.0658 82.6942C55.0403 82.7069 55.0191 82.7111 54.9936 82.7111C54.9002 82.7111 54.8153 82.6262 54.828 82.5243L54.9554 81.5009L54.2505 80.7494C54.1614 80.6559 54.2123 80.4988 54.3397 80.4733L55.3503 80.278L55.8471 79.3778C55.8769 79.3226 55.9363 79.2929 55.9915 79.2929M56 79.0806C55.8641 79.0806 55.7367 79.157 55.6688 79.2759L55.2187 80.0912L54.3057 80.2653C54.1699 80.2908 54.0595 80.3884 54.017 80.5201C53.9745 80.6517 54.0085 80.7961 54.1019 80.8937L54.7389 81.5731L54.6242 82.4946C54.6115 82.6007 54.6454 82.7111 54.7134 82.7918C54.7856 82.8725 54.8875 82.9192 54.9979 82.9192C55.0531 82.9192 55.1083 82.9065 55.1592 82.881L56 82.4861L56.8408 82.881C56.8917 82.9065 56.9469 82.9192 57.0021 82.9192C57.1125 82.9192 57.2144 82.8725 57.2866 82.7918C57.3588 82.7111 57.3928 82.6007 57.3758 82.4946L57.2612 81.5731L57.8981 80.8937C57.9915 80.7918 58.0255 80.6474 57.983 80.5201C57.9406 80.3884 57.8302 80.2908 57.6943 80.2653L56.7813 80.0912L56.3312 79.2759C56.2633 79.157 56.1359 79.0806 56 79.0806Z" fill="#213743"/>
<path d="M56.0001 79.8152V80.9744C56.0001 81.0678 56.0892 81.1315 56.1784 81.106L57.2187 80.7706C57.2739 80.7536 57.2697 80.6729 57.2102 80.6602L56.5563 80.5413C56.4969 80.5286 56.4417 80.4903 56.4119 80.4351L56.085 79.7939C56.0637 79.7515 55.9958 79.7642 55.9958 79.8152H56.0001Z" fill="#FFEBB8"/>
<path d="M56 81.4924V82.0699C56 82.1039 56.017 82.1294 56.0468 82.1464L56.7983 82.5073C56.8366 82.5243 56.8705 82.4818 56.8451 82.4479L56.0935 81.4627C56.0637 81.4245 56 81.4457 56 81.4924Z" fill="#FF7F00"/>
<rect x="13" y="62" width="37" height="13" rx="6.5" fill="#2F4553"/>
<path d="M30.445 70H29.413V67.318L28.741 67.996L28.153 67.378L29.551 65.998H30.445V70ZM33.9146 70H32.9006L32.3426 69.124L31.7786 70H30.7706L31.7606 68.512L30.8306 67.102H31.8446L32.3426 67.888L32.8346 67.102H33.8486L32.9246 68.512L33.9146 70Z" fill="white"/>
<path d="M8.03 11H7.215L6.56 9.815H6.04V11H5.33V7.665H6.89C7.585 7.665 8.01 8.12 8.01 8.74C8.01 9.33 7.64 9.645 7.28 9.73L8.03 11ZM6.785 9.19C7.07 9.19 7.285 9.02 7.285 8.74C7.285 8.46 7.07 8.29 6.785 8.29H6.04V9.19H6.785ZM10.5152 11H9.88023V10.75C9.71523 10.945 9.43023 11.06 9.11523 11.06C8.73023 11.06 8.27523 10.8 8.27523 10.26C8.27523 9.695 8.73023 9.48 9.11523 9.48C9.43523 9.48 9.72023 9.585 9.88023 9.775V9.45C9.88023 9.205 9.67023 9.045 9.35023 9.045C9.09023 9.045 8.85023 9.14 8.64523 9.33L8.40523 8.905C8.70023 8.645 9.08023 8.525 9.46023 8.525C10.0102 8.525 10.5152 8.745 10.5152 9.44V11ZM9.37023 10.63C9.57523 10.63 9.77523 10.56 9.88023 10.42V10.12C9.77523 9.98 9.57523 9.91 9.37023 9.91C9.12023 9.91 8.91523 10.04 8.91523 10.275C8.91523 10.5 9.12023 10.63 9.37023 10.63ZM11.7801 11H11.1451V8.585H11.7801V8.915C11.9501 8.7 12.2501 8.525 12.5501 8.525V9.145C12.5051 9.135 12.4451 9.13 12.3751 9.13C12.1651 9.13 11.8851 9.25 11.7801 9.405V11ZM14.0818 11.06C13.3468 11.06 12.7918 10.565 12.7918 9.79C12.7918 9.09 13.3068 8.525 14.0418 8.525C14.7618 8.525 15.2518 9.065 15.2518 9.855V9.995H13.4568C13.4968 10.3 13.7418 10.555 14.1518 10.555C14.3568 10.555 14.6418 10.465 14.7968 10.315L15.0768 10.725C14.8368 10.945 14.4568 11.06 14.0818 11.06ZM14.6368 9.565C14.6218 9.335 14.4618 9.03 14.0418 9.03C13.6468 9.03 13.4768 9.325 13.4468 9.565H14.6368Z" fill="white"/>
<path d="M48.9046 11H48.4526L47.0606 9.096V11H46.5926V8.332H47.0726L48.4366 10.184V8.332H48.9046V11ZM50.3315 11.048C49.7195 11.048 49.3395 10.588 49.3395 10.032C49.3395 9.48 49.7195 9.02 50.3315 9.02C50.9515 9.02 51.3275 9.48 51.3275 10.032C51.3275 10.588 50.9515 11.048 50.3315 11.048ZM50.3315 10.676C50.6915 10.676 50.8915 10.376 50.8915 10.032C50.8915 9.692 50.6915 9.392 50.3315 9.392C49.9755 9.392 49.7755 9.692 49.7755 10.032C49.7755 10.376 49.9755 10.676 50.3315 10.676ZM51.9489 11.044C51.7969 11.044 51.6689 10.916 51.6689 10.764C51.6689 10.612 51.7969 10.484 51.9489 10.484C52.1009 10.484 52.2289 10.612 52.2289 10.764C52.2289 10.916 52.1009 11.044 51.9489 11.044ZM54.4648 11H53.9528L54.9608 8.744H53.5768V8.332H55.5008V8.656L54.4648 11ZM56.6577 11.044C56.3297 11.044 56.0737 10.928 55.8937 10.748L56.1097 10.396C56.2497 10.54 56.4057 10.628 56.6577 10.628C57.1417 10.628 57.3617 10.188 57.3617 9.752C57.3617 9.724 57.3617 9.7 57.3617 9.672C57.2377 9.852 56.9577 10.048 56.6457 10.048C56.1657 10.048 55.7497 9.752 55.7497 9.184C55.7497 8.692 56.1377 8.288 56.7337 8.288C57.5177 8.288 57.8337 8.924 57.8337 9.668C57.8337 10.436 57.4297 11.044 56.6577 11.044ZM56.7697 9.644C56.9977 9.644 57.2217 9.524 57.3537 9.332C57.3297 9.044 57.1697 8.704 56.7577 8.704C56.4097 8.704 56.2257 8.956 56.2257 9.168C56.2257 9.496 56.4817 9.644 56.7697 9.644Z" fill="white"/>
<defs>
<clipPath id="clip0_26835_29242">
<rect width="63" height="88" fill="white"/>
</clipPath>
</defs>
</svg>
