<svg width="63" height="88" viewBox="0 0 63 88" fill="none" xmlns="http://www.w3.org/2000/svg">
<rect width="63" height="88" rx="4" fill="#FF003F"/>
<path d="M36.7008 13.5133L44.7992 3.48665C45.5586 2.54645 46.7024 2 47.911 2H58C59.6569 2 61 3.34314 61 5V83C61 84.6569 59.6569 86 58 86H5C3.34315 86 2 84.6569 2 83V18C2 16.3431 3.34315 15 5 15H33.589C34.7976 15 35.9414 14.4536 36.7008 13.5133Z" fill="#213743"/>
<rect x="5" y="18" width="53" height="40" rx="1" fill="#2F4553"/>
<g clip-path="url(#clip0_26835_29243)">
<path d="M5 57V19C5 18.45 5.45 18 6 18H57C57.55 18 58 18.45 58 19V57C58 57.55 57.55 58 57 58H47.81L41.83 57.25L39.09 58H23.91L17.46 57.25L15.18 58H6C5.45 58 5 57.55 5 57Z" fill="#047BFF"/>
<path d="M6 18C5.45 18 5 18.45 5 19V57C5 57.55 5.45 58 6 58H11.61V18H6Z" fill="#45A7FF"/>
<path d="M23.58 18H15.71V56.97H23.58V18Z" fill="#45A7FF"/>
<path d="M40.11 18H22.9V58H40.11V18Z" fill="#45A7FF"/>
<path d="M47.52 18H39.65V57.52H47.52V18Z" fill="#45A7FF"/>
<path d="M57 18H51.62V58H57C57.55 58 58 57.55 58 57V19C58 18.45 57.55 18 57 18Z" fill="#45A7FF"/>
<path d="M53.69 44.61C53.51 44.98 53.26 45.32 52.99 45.62L51.26 47.52C51.17 47.63 51.09 47.72 50.99 47.83C50.44 48.52 50.06 49.34 49.86 50.21L49.75 50.72L48.87 54.66L48.48 56.4C48.38 56.84 48.23 57.27 48.01 57.65C47.95 57.77 47.88 57.89 47.81 58H39.09V23.7L43.23 21.97C44.74 22.78 46.37 24.22 47.92 26.15C48.71 27.13 49.48 28.24 50.2 29.46C50.99 30.82 51.73 32.31 52.34 33.88C52.79 35.01 53.17 36.19 53.48 37.42C53.82 38.75 54.08 40.13 54.21 41.55C54.23 41.68 54.24 41.82 54.25 41.96C54.33 42.89 54.13 43.81 53.69 44.61Z" fill="#1A2C38"/>
<path d="M23.91 23.7V58H15.18C14.87 57.52 14.65 56.98 14.52 56.4L13.13 50.21C12.91 49.21 12.43 48.28 11.74 47.52L10.01 45.62C9.10001 44.62 8.63001 43.3 8.74001 41.96C9.53001 32.68 15.21 24.4 19.77 21.97L23.91 23.7Z" fill="#1A2C38"/>
<path d="M42.12 28.02V39.69C42.12 45.55 37.36 50.31 31.5 50.31C25.64 50.31 20.88 45.55 20.88 39.69V28.02H42.12Z" fill="#1A2C38"/>
<path d="M53.69 39.61C53.51 39.98 53.26 40.31 52.99 40.62L51.26 42.52C51.17 42.62 51.09 42.71 50.99 42.83C50.44 43.52 50.06 44.33 49.86 45.21L49.75 45.72L48.87 49.66L48.48 51.4C48.38 51.84 48.23 52.26 48.01 52.65C47.53 53.58 46.77 54.33 45.82 54.82L42.05 56.74C41.74 56.9 41.42 56.97 41.11 56.96C40.04 56.95 39.09 56.11 39.09 54.93V18.7L43.23 16.97C44.74 17.77 46.37 19.22 47.92 21.14C48.71 22.13 49.48 23.24 50.2 24.45C50.99 25.82 51.73 27.3 52.34 28.88C52.79 30.01 53.17 31.19 53.48 32.41C53.82 33.75 54.08 35.13 54.21 36.55C54.23 36.68 54.24 36.82 54.25 36.95C54.33 37.89 54.13 38.81 53.69 39.61Z" fill="#FFC201"/>
<path d="M41.98 38.4099L41.11 56.9599C40.04 56.9499 39.09 56.1099 39.09 54.9299V40.1599L41.98 38.4099Z" fill="#FF7F00"/>
<path d="M23.91 18.7V54.93C23.91 56.45 22.3 57.43 20.94 56.74L17.17 54.82C15.82 54.13 14.85 52.87 14.52 51.39L13.13 45.21C12.91 44.21 12.43 43.28 11.74 42.52L10.01 40.61C9.10001 39.62 8.63001 38.3 8.74001 36.96C9.53001 27.68 15.21 19.4 19.77 16.97L23.91 18.7Z" fill="#FFC201"/>
<path d="M21.04 38.48L21.89 56.96C22.96 56.95 23.91 56.11 23.91 54.93V40.16L21.04 38.48Z" fill="#FF7F00"/>
<path d="M53.69 39.61C48.68 37.54 40.67 38.56 39.09 38.79V35.72C41.48 35.39 48.84 34.63 54.21 36.55C54.23 36.68 54.24 36.82 54.25 36.96C54.33 37.9 54.13 38.81 53.69 39.62V39.61Z" fill="#047BFF"/>
<path d="M51 42.83C50.45 43.52 50.06 44.34 49.87 45.21L49.76 45.72C45.26 45.1 40.31 45.72 39.1 45.9C38.83 45.9 38.83 42.82 39.1 42.82C41.04 42.56 46.24 42.01 51 42.83Z" fill="#047BFF"/>
<path d="M48.87 49.6602L48.48 51.4002C48.38 51.8402 48.23 52.2702 48.01 52.6502C44.04 52.3502 40.14 52.8602 39.09 53.0202C38.82 53.0202 38.82 49.9402 39.09 49.9402C40.75 49.7202 44.77 49.2802 48.86 49.6702L48.87 49.6602Z" fill="#047BFF"/>
<path d="M53.48 32.41C48.46 30.46 40.65 31.44 39.1 31.68V28.6C41.23 28.3 47.26 27.67 52.34 28.89C52.79 30.02 53.17 31.2 53.48 32.42V32.41Z" fill="#047BFF"/>
<path d="M50.2 24.45C45.58 23.72 40.34 24.39 39.09 24.56V21.49C40.62 21.28 44.16 20.89 47.92 21.14C48.71 22.13 49.48 23.24 50.2 24.45Z" fill="#047BFF"/>
<path d="M9.30999 39.61C14.32 37.54 22.33 38.56 23.91 38.79V35.72C21.52 35.39 14.16 34.63 8.78999 36.55C8.76999 36.68 8.75999 36.82 8.74999 36.96C8.66999 37.9 8.86999 38.81 9.30999 39.62V39.61Z" fill="#047BFF"/>
<path d="M12 42.83C12.55 43.52 12.94 44.34 13.13 45.21L13.24 45.72C17.74 45.1 22.69 45.72 23.9 45.9C24.1 45.9 24.1 42.82 23.9 42.82C21.96 42.56 16.76 42.01 12 42.83Z" fill="#047BFF"/>
<path d="M14.13 49.6602L14.52 51.4002C14.62 51.8402 14.77 52.2702 14.99 52.6502C18.96 52.3502 22.86 52.8602 23.91 53.0202C24.27 53.0202 24.27 49.9402 23.91 49.9402C22.25 49.7202 18.23 49.2802 14.14 49.6702L14.13 49.6602Z" fill="#047BFF"/>
<path d="M9.51999 32.41C14.54 30.46 22.35 31.44 23.9 31.68V28.6C21.77 28.3 15.74 27.67 10.66 28.89C10.21 30.02 9.82999 31.2 9.51999 32.42V32.41Z" fill="#047BFF"/>
<path d="M12.8 24.45C17.42 23.72 22.66 24.39 23.91 24.56V21.49C22.38 21.28 18.84 20.89 15.08 21.14C14.29 22.13 13.52 23.24 12.8 24.45Z" fill="#047BFF"/>
<path d="M20.42 37.5701C22.11 37.5701 23.48 35.9538 23.48 33.9601C23.48 31.9663 22.11 30.3501 20.42 30.3501C18.73 30.3501 17.36 31.9663 17.36 33.9601C17.36 35.9538 18.73 37.5701 20.42 37.5701Z" fill="#FF7F00"/>
<path d="M45.64 33.9601C45.64 34.1801 45.62 34.3901 45.59 34.5901C45.34 36.2801 44.09 37.5701 42.58 37.5701C40.89 37.5701 39.52 35.9501 39.52 33.9601C39.52 32.7501 40.03 31.6801 40.81 31.0301C41.3 30.6001 41.91 30.3601 42.58 30.3601C44.27 30.3601 45.64 31.9701 45.64 33.9601Z" fill="#FF7F00"/>
<path d="M36.24 41.1301L35.45 46.8801L34.72 52.1301C34.56 53.3301 33.75 54.3301 32.63 54.7501C32.27 54.8801 31.88 54.9401 31.5 54.9401C31.12 54.9401 30.74 54.8801 30.37 54.7501C29.24 54.3401 28.43 53.3301 28.26 52.1301L27.53 46.8601L26.74 41.1201L31.49 42.1001L36.22 41.1201L36.24 41.1301Z" fill="#FF7F00"/>
<path d="M42.12 25.01V36.68C42.12 42.54 37.36 47.3 31.5 47.3C25.64 47.3 20.88 42.54 20.88 36.68V25.01H42.12Z" fill="#FFC201"/>
<path d="M45.54 17.9501C45.66 17.5401 45.54 17.0901 45.21 16.8101C43.65 15.4801 38.74 11.8501 31.56 11.8501H31.43C24.26 11.8501 19.34 15.4801 17.78 16.8101C17.45 17.0901 17.32 17.5301 17.45 17.9501L20.12 26.8301C20.3 27.4401 20.96 27.7601 21.55 27.5301C23.24 26.8801 26.81 25.7701 31.49 25.7701C36.17 25.7701 39.75 26.8601 41.42 27.5101C42.01 27.7401 42.68 27.4301 42.87 26.8201L45.54 17.9601V17.9501Z" fill="#FFC201"/>
<path d="M42.12 26.3901V30.0301C40.49 29.3701 36.28 27.8501 31.5 27.8501C26.72 27.8501 22.51 29.3601 20.88 30.0301V26.3801C21.9 25.9501 23.24 25.4501 24.83 25.0101C26.72 24.5101 28.99 24.1101 31.5 24.1101C34.01 24.1101 36.19 24.5001 38.08 25.0101C39.71 25.4501 41.08 25.9601 42.11 26.3901H42.12Z" fill="#1A2C38"/>
<path d="M43.67 25.3801C43.72 25.2001 43.63 25.0101 43.46 24.9401C41.62 24.1601 37.09 22.1101 31.5 22.1101C25.91 22.1101 21.38 24.1701 19.54 24.9401C19.37 25.0101 19.28 25.2001 19.33 25.3801L20 27.7501C20.09 28.0601 20.43 28.2201 20.72 28.1001C22.22 27.4701 26.55 25.8501 31.49 25.8501C36.43 25.8501 40.77 27.4701 42.26 28.1001C42.56 28.2301 42.9 28.0601 42.98 27.7501L43.65 25.3801H43.67Z" fill="#FF7F00"/>
<path d="M25.6 12.33C25.43 12.39 25.32 12.57 25.35 12.75L27.9 26.21C27.9 26.21 29.38 25.95 31.5 25.95C33.62 25.95 35.1 26.21 35.1 26.21L37.65 12.75C37.68 12.57 37.58 12.39 37.4 12.33C34.28 11.29 28.71 11.29 25.6 12.33Z" fill="#047BFF"/>
<path d="M31.5 20.5001C33.201 20.5001 34.58 19.1211 34.58 17.4201C34.58 15.7191 33.201 14.3401 31.5 14.3401C29.7989 14.3401 28.42 15.7191 28.42 17.4201C28.42 19.1211 29.7989 20.5001 31.5 20.5001Z" fill="#FFC201"/>
<path d="M31.5 19.4601C32.6267 19.4601 33.54 18.5468 33.54 17.4201C33.54 16.2935 32.6267 15.3801 31.5 15.3801C30.3733 15.3801 29.46 16.2935 29.46 17.4201C29.46 18.5468 30.3733 19.4601 31.5 19.4601Z" fill="#E9113C"/>
<path d="M32.7383 17.2804C32.9292 17.1486 32.9186 16.8023 32.7146 16.5069C32.5107 16.2115 32.1906 16.0788 31.9997 16.2106C31.8088 16.3424 31.8194 16.6887 32.0234 16.9841C32.2273 17.2796 32.5474 17.4122 32.7383 17.2804Z" fill="white"/>
<path d="M26.76 22.3301L27.51 26.3201C28.77 26.1401 30.11 26.0201 31.49 26.0201C32.87 26.0201 34.21 26.1401 35.47 26.3201L36.22 22.3401C34.75 22.0801 33.16 21.9001 31.48 21.9001C29.8 21.9001 28.2 22.0701 26.74 22.3301H26.76Z" fill="white"/>
<path d="M33.54 33.3502C33.54 33.3502 34.1 30.6602 37.59 30.6602C39.74 30.6602 40.58 32.5202 40.58 32.5202C40.58 32.5202 38.93 34.4702 33.54 33.3502Z" fill="#FF7F00"/>
<path d="M29.47 33.3502C29.47 33.3502 28.91 30.6602 25.42 30.6602C23.27 30.6602 22.43 32.5202 22.43 32.5202C22.43 32.5202 24.08 34.4702 29.47 33.3502Z" fill="#FF7F00"/>
<path d="M31.5 37.49C32.61 37.49 35.01 39.23 31.5 39.23C27.99 39.23 30.4 37.49 31.5 37.49Z" fill="#FF7F00"/>
<path d="M43.5387 17.3946C43.7788 16.9467 42.9316 16.0253 41.6465 15.3366C40.3614 14.6478 39.125 14.4525 38.885 14.9003C38.645 15.3481 39.4922 16.2695 40.7773 16.9583C42.0624 17.6471 43.2987 17.8424 43.5387 17.3946Z" fill="white"/>
</g>
<path fill-rule="evenodd" clip-rule="evenodd" d="M6.49771 79C6.98969 79 7.48602 79.213 7.49037 79.6913C7.49037 80.1043 7.24656 80.2696 6.99839 80.2696C6.75023 80.2696 6.73281 80.1435 6.73281 80.1435C6.73281 80.1435 7.02452 79.9261 7.02452 79.7174C7.02452 79.6087 6.94179 79.313 6.489 79.3174C5.8577 79.3174 5.5181 79.6174 5.5181 80.1522C5.5181 80.7652 7.35105 80.9739 7.3554 81.7652C7.3554 82.613 6.47594 82.9957 5.69225 83C5.283 83 5.01306 82.7609 5.00871 82.3783C5.00871 81.9261 5.22204 81.4652 5.75756 81.4652C5.88382 81.4565 5.98831 81.5522 5.99702 81.6783C5.99702 81.6783 5.99702 81.6826 5.99702 81.687C5.99702 81.687 5.45715 81.8391 5.4615 82.3783C5.4615 82.4783 5.56599 82.6609 5.81851 82.6565C6.07103 82.6522 6.82424 82.4739 6.81989 81.8087C6.81989 81.1913 5.00435 81.1087 5 80.1478C5 79.0652 6.08845 79.0087 6.49771 79.0087V79ZM10.747 79.6C10.8123 79.5696 11.2129 79.4913 11.1955 79.813C11.1824 80.1348 10.9386 80.6913 10.9037 80.9348C11.2303 80.7696 11.6918 80.2087 11.6918 80.2087C11.6918 80.2087 12.0183 80.2522 11.9182 80.4522C11.818 80.6522 11.1519 81.1435 11.1519 81.1435C11.1519 81.1435 11.3043 82.5696 12.1707 82.5696C12.6453 82.5696 12.8499 82.3609 12.937 82.287C12.9587 82.2696 12.9762 82.2652 12.9849 82.2783C13.0197 82.387 12.9936 82.5043 12.9152 82.5913C12.8194 82.6957 12.5974 82.8217 12.1533 82.8261C11.3653 82.8261 10.9255 82.1957 10.8123 81.2609C10.7252 81.5348 10.7339 81.9826 10.7209 82.2C10.6948 82.2435 10.2507 82.4174 10.2158 82.1174C10.2158 82.0913 10.2158 82.0696 10.2158 82.0435C10.1331 82.1609 10.0199 82.2826 9.91108 82.2826C9.71951 82.2826 9.63679 82.1217 9.60196 82.0391C9.57584 82.0696 9.3625 82.287 9.08821 82.287C8.92277 82.2913 8.77474 82.1957 8.70943 82.0435C8.57011 82.1435 8.32195 82.2913 8.03895 82.2913C7.73418 82.2913 7.66017 82.1087 7.66017 81.9565C7.66017 81.713 7.84303 80.987 7.84303 80.987C7.84303 80.987 7.48602 81.1304 7.36411 81.1348C7.19431 81.1348 7.11159 80.8217 7.11159 80.813C7.11159 80.8087 7.11159 80.8 7.1203 80.8C7.22044 80.7609 7.94317 80.513 7.94317 80.513C7.94317 80.513 8.07813 79.9826 8.09555 79.913C8.11296 79.8435 8.2131 79.7 8.33065 79.6565C8.41773 79.6217 8.50916 79.6 8.60059 79.5913C8.63107 79.5913 8.65284 79.6 8.65284 79.6174C8.65284 79.6348 8.47433 80.4087 8.47433 80.4087C8.47433 80.4087 8.84876 80.3217 8.98808 80.3217C9.09692 80.3217 9.15352 80.387 9.09257 80.4696C9.03162 80.5522 8.96196 80.6478 8.92712 80.6913C8.88794 80.7348 8.86182 80.7435 8.77039 80.7609C8.64413 80.787 8.36113 80.8565 8.36113 80.8565C8.36113 80.8565 8.13473 81.6783 8.13909 81.8174C8.13909 81.8957 8.16521 81.987 8.26099 81.987C8.35678 81.987 8.53964 81.8739 8.67025 81.7913C8.69202 81.1522 9.18835 80.7261 9.57584 80.7261C9.7021 80.7261 9.65421 80.8478 9.79788 80.8478H9.88931C9.94591 80.8478 10.0069 80.8522 10.0069 80.9957C10.0069 81.1957 9.89367 81.5261 9.89367 81.7348C9.89367 81.8826 9.91544 81.987 9.97204 81.987C10.0678 81.987 10.1767 81.8478 10.255 81.7261C10.3813 81.0304 10.734 79.7609 10.734 79.6174L10.747 79.6ZM12.5016 80.7C12.7672 80.6783 12.9326 80.8217 12.9631 80.9C12.9936 80.9783 12.9892 81.1609 12.9152 81.2913C12.6845 81.7044 12.1097 81.6304 12.1097 81.6304C12.1097 81.6304 12.0444 81.9565 12.3405 81.9565C12.593 81.9565 12.7062 81.8304 12.8151 81.7261C12.8586 81.7261 12.9936 81.8652 12.9326 81.9609C12.8847 82.0348 12.6191 82.2565 12.2795 82.2609C11.7397 82.2609 11.6047 81.8 11.6744 81.4696C11.7658 81.0609 12.1751 80.7217 12.5016 80.6957V80.7ZM9.6455 80.987C9.32332 80.987 8.82699 81.9696 9.20577 81.9652C9.61938 81.9652 9.6455 81.1826 9.6455 81.0043V80.987ZM12.6409 80.8913C12.4232 80.9 12.1751 81.3174 12.1533 81.5C12.4798 81.513 12.654 81.1957 12.6757 81.0696C12.6888 80.9739 12.6932 80.887 12.6409 80.887V80.8913Z" fill="#557086"/>
<path d="M56.1444 79.3778L56.6412 80.278L57.6518 80.4733C57.7792 80.4988 57.8302 80.6559 57.741 80.7494L57.0361 81.5009L57.1635 82.5243C57.1805 82.6559 57.0446 82.7494 56.93 82.6942L56 82.2568L55.0701 82.6942C54.9512 82.7494 54.8196 82.6517 54.8366 82.5243L54.9639 81.5009L54.2591 80.7494C54.1699 80.6559 54.2208 80.4988 54.3482 80.4733L55.3588 80.278L55.8557 79.3778C55.9194 79.2632 56.085 79.2632 56.1444 79.3778Z" fill="#FFC200"/>
<path d="M56 79.2929C56.0552 79.2929 56.1147 79.3226 56.1444 79.3778L56.6412 80.278L57.6518 80.4733C57.7792 80.4988 57.8302 80.6559 57.741 80.7494L57.0361 81.5009L57.1635 82.5243C57.1763 82.6262 57.0955 82.7111 56.9979 82.7111C56.9766 82.7111 56.9512 82.7069 56.9257 82.6942L55.9957 82.2568L55.0658 82.6942C55.0403 82.7069 55.0191 82.7111 54.9936 82.7111C54.9002 82.7111 54.8153 82.6262 54.828 82.5243L54.9554 81.5009L54.2505 80.7494C54.1613 80.6559 54.2123 80.4988 54.3397 80.4733L55.3503 80.278L55.8471 79.3778C55.8768 79.3226 55.9363 79.2929 55.9915 79.2929M56 79.0806C55.8641 79.0806 55.7367 79.157 55.6688 79.2759L55.2187 80.0912L54.3057 80.2653C54.1698 80.2908 54.0594 80.3884 54.017 80.5201C53.9745 80.6517 54.0085 80.7961 54.1019 80.8937L54.7388 81.5731L54.6242 82.4946C54.6115 82.6007 54.6454 82.7111 54.7134 82.7918C54.7856 82.8725 54.8875 82.9192 54.9979 82.9192C55.0531 82.9192 55.1083 82.9065 55.1592 82.881L56 82.4861L56.8408 82.881C56.8917 82.9065 56.9469 82.9192 57.0021 82.9192C57.1125 82.9192 57.2144 82.8725 57.2866 82.7918C57.3588 82.7111 57.3928 82.6007 57.3758 82.4946L57.2611 81.5731L57.8981 80.8937C57.9915 80.7918 58.0255 80.6474 57.983 80.5201C57.9405 80.3884 57.8301 80.2908 57.6943 80.2653L56.7813 80.0912L56.3312 79.2759C56.2633 79.157 56.1359 79.0806 56 79.0806Z" fill="#213743"/>
<path d="M56 79.8152V80.9744C56 81.0678 56.0892 81.1315 56.1784 81.106L57.2187 80.7706C57.2739 80.7536 57.2697 80.6729 57.2102 80.6602L56.5563 80.5413C56.4969 80.5286 56.4417 80.4903 56.4119 80.4351L56.085 79.7939C56.0637 79.7515 55.9958 79.7642 55.9958 79.8152H56Z" fill="#FFEBB8"/>
<path d="M56 81.4924V82.0699C56 82.1039 56.017 82.1294 56.0467 82.1464L56.7983 82.5073C56.8365 82.5243 56.8705 82.4818 56.845 82.4479L56.0934 81.4627C56.0637 81.4245 56 81.4457 56 81.4924Z" fill="#FF7F00"/>
<rect x="13" y="62" width="37" height="13" rx="6.5" fill="#2F4553"/>
<path d="M30.445 70H29.413V67.318L28.741 67.996L28.153 67.378L29.551 65.998H30.445V70ZM33.9146 70H32.9006L32.3426 69.124L31.7786 70H30.7706L31.7606 68.512L30.8306 67.102H31.8446L32.3426 67.888L32.8346 67.102H33.8486L32.9246 68.512L33.9146 70Z" fill="white"/>
<path d="M8.03 11H7.215L6.56 9.815H6.04V11H5.33V7.665H6.89C7.585 7.665 8.01 8.12 8.01 8.74C8.01 9.33 7.64 9.645 7.28 9.73L8.03 11ZM6.785 9.19C7.07 9.19 7.285 9.02 7.285 8.74C7.285 8.46 7.07 8.29 6.785 8.29H6.04V9.19H6.785ZM10.5152 11H9.88023V10.75C9.71523 10.945 9.43023 11.06 9.11523 11.06C8.73023 11.06 8.27523 10.8 8.27523 10.26C8.27523 9.695 8.73023 9.48 9.11523 9.48C9.43523 9.48 9.72023 9.585 9.88023 9.775V9.45C9.88023 9.205 9.67023 9.045 9.35023 9.045C9.09023 9.045 8.85023 9.14 8.64523 9.33L8.40523 8.905C8.70023 8.645 9.08023 8.525 9.46023 8.525C10.0102 8.525 10.5152 8.745 10.5152 9.44V11ZM9.37023 10.63C9.57523 10.63 9.77523 10.56 9.88023 10.42V10.12C9.77523 9.98 9.57523 9.91 9.37023 9.91C9.12023 9.91 8.91523 10.04 8.91523 10.275C8.91523 10.5 9.12023 10.63 9.37023 10.63ZM11.7801 11H11.1451V8.585H11.7801V8.915C11.9501 8.7 12.2501 8.525 12.5501 8.525V9.145C12.5051 9.135 12.4451 9.13 12.3751 9.13C12.1651 9.13 11.8851 9.25 11.7801 9.405V11ZM14.0818 11.06C13.3468 11.06 12.7918 10.565 12.7918 9.79C12.7918 9.09 13.3068 8.525 14.0418 8.525C14.7618 8.525 15.2518 9.065 15.2518 9.855V9.995H13.4568C13.4968 10.3 13.7418 10.555 14.1518 10.555C14.3568 10.555 14.6418 10.465 14.7968 10.315L15.0768 10.725C14.8368 10.945 14.4568 11.06 14.0818 11.06ZM14.6368 9.565C14.6218 9.335 14.4618 9.03 14.0418 9.03C13.6468 9.03 13.4768 9.325 13.4468 9.565H14.6368Z" fill="white"/>
<path d="M48.5921 11H48.1401L46.7481 9.096V11H46.2801V8.332H46.7601L48.1241 10.184V8.332H48.5921V11ZM50.019 11.048C49.407 11.048 49.027 10.588 49.027 10.032C49.027 9.48 49.407 9.02 50.019 9.02C50.639 9.02 51.015 9.48 51.015 10.032C51.015 10.588 50.639 11.048 50.019 11.048ZM50.019 10.676C50.379 10.676 50.579 10.376 50.579 10.032C50.579 9.692 50.379 9.392 50.019 9.392C49.663 9.392 49.463 9.692 49.463 10.032C49.463 10.376 49.663 10.676 50.019 10.676ZM51.6364 11.044C51.4844 11.044 51.3564 10.916 51.3564 10.764C51.3564 10.612 51.4844 10.484 51.6364 10.484C51.7884 10.484 51.9164 10.612 51.9164 10.764C51.9164 10.916 51.7884 11.044 51.6364 11.044ZM54.3483 11.048C53.8003 11.048 53.3243 10.796 53.3243 10.316C53.3243 9.976 53.6003 9.732 53.9243 9.624C53.6243 9.528 53.3683 9.332 53.3683 8.992C53.3683 8.5 53.8723 8.292 54.3483 8.292C54.8163 8.292 55.3283 8.5 55.3283 8.992C55.3283 9.332 55.0683 9.528 54.7683 9.624C55.0923 9.732 55.3683 9.976 55.3683 10.316C55.3683 10.792 54.8923 11.048 54.3483 11.048ZM54.3483 9.44C54.5123 9.412 54.8523 9.316 54.8523 9.064C54.8523 8.84 54.6323 8.708 54.3483 8.708C54.0563 8.708 53.8403 8.84 53.8403 9.064C53.8403 9.316 54.1842 9.412 54.3483 9.44ZM54.3483 10.632C54.6443 10.632 54.8963 10.488 54.8963 10.256C54.8963 9.98 54.5123 9.856 54.3483 9.836C54.1803 9.856 53.7963 9.98 53.7963 10.256C53.7963 10.488 54.0443 10.632 54.3483 10.632ZM56.7672 11.048C56.0192 11.048 55.6992 10.34 55.6992 9.668C55.6992 8.996 56.0192 8.292 56.7672 8.292C57.5152 8.292 57.8352 8.996 57.8352 9.668C57.8352 10.34 57.5152 11.048 56.7672 11.048ZM56.7672 10.632C57.2032 10.632 57.3592 10.176 57.3592 9.668C57.3592 9.16 57.2032 8.708 56.7672 8.708C56.3312 8.708 56.1752 9.16 56.1752 9.668C56.1752 10.176 56.3312 10.632 56.7672 10.632Z" fill="white"/>
<defs>
<clipPath id="clip0_26835_29243">
<rect width="63" height="88" fill="white"/>
</clipPath>
</defs>
</svg>
