<svg width="63" height="88" viewBox="0 0 63 88" fill="none" xmlns="http://www.w3.org/2000/svg">
<rect width="63" height="88" rx="4" fill="#047BFF"/>
<path d="M36.7008 13.5133L44.7992 3.48665C45.5586 2.54645 46.7024 2 47.911 2H58C59.6569 2 61 3.34314 61 5V83C61 84.6569 59.6569 86 58 86H5C3.34315 86 2 84.6569 2 83V18C2 16.3431 3.34315 15 5 15H33.589C34.7976 15 35.9414 14.4536 36.7008 13.5133Z" fill="#213743"/>
<rect x="5" y="18" width="53" height="40" rx="1" fill="#2F4553"/>
<path d="M9.35988 47.3002C9.33988 53.1202 28.4999 59.5001 28.4999 59.5001C28.4999 59.5001 39.7699 52.1602 35.3999 47.6502C28.5199 40.5402 9.37988 42.3802 9.35988 47.3002Z" fill="#1A2C38"/>
<path d="M31 61.5401L14.95 52.2501C14.49 51.9801 14.2 51.4901 14.2 50.9501V48.8101C14.2 48.4901 14.37 48.1901 14.65 48.0201L20.83 44.3901L42.0099 44.5401L48.2299 48.0501C48.5199 48.2101 48.6899 48.5201 48.6899 48.8401V50.2101C48.6899 51.1701 48.1799 52.0601 47.3499 52.5401L31.8899 61.5201C31.6099 61.6801 31.27 61.6801 30.99 61.5201L31 61.5401Z" fill="#FFEBB8"/>
<path d="M31.4801 58.2701L14.6801 48.5701C14.4701 48.4501 14.4601 48.1401 14.6801 48.0101L31.0801 38.3701L48.2001 48.0401C48.4201 48.1601 48.4201 48.4801 48.2001 48.6001L31.4801 58.2601V58.2701Z" fill="#FFEBB8"/>
<path d="M31.45 61.2402L31.4699 58.8302C31.4699 58.4902 31.6599 58.1702 31.9599 58.0002L48.2099 48.6102C48.4299 48.4902 48.7 48.6402 48.7 48.8902V51.2302C48.7 51.5802 48.52 51.9002 48.22 52.0702L31.95 61.5202C31.73 61.6502 31.4599 61.4902 31.4599 61.2402H31.45Z" fill="#FFEBB8"/>
<path d="M14.2 48.8602V51.2602C14.2 51.6102 14.38 51.9302 14.69 52.1002L30.97 61.5202C31.18 61.6402 31.4499 61.4902 31.4599 61.2402L31.4799 58.8302C31.4799 58.4802 31.3 58.1502 30.99 57.9802L14.69 48.5702C14.47 48.4502 14.2 48.6002 14.2 48.8502V48.8602Z" fill="#FF7F00"/>
<path d="M41.3499 29.4502H21.6099V47.3002H41.3499V29.4502Z" fill="#FFC201"/>
<path d="M31.4799 52.6901C36.9309 52.6901 41.3499 50.1605 41.3499 47.0401C41.3499 43.9197 36.9309 41.3901 31.4799 41.3901C26.0288 41.3901 21.6099 43.9197 21.6099 47.0401C21.6099 50.1605 26.0288 52.6901 31.4799 52.6901Z" fill="#FFC201"/>
<path d="M31.48 50.0803C37.9748 50.0803 43.24 47.0493 43.24 43.3103C43.24 39.5713 37.9748 36.5403 31.48 36.5403C24.9851 36.5403 19.72 39.5713 19.72 43.3103C19.72 47.0493 24.9851 50.0803 31.48 50.0803Z" fill="#FFEBB8"/>
<path d="M43.24 40.8801C43.24 37.1401 37.97 34.1101 31.48 34.1101C24.99 34.1101 19.72 37.1401 19.72 40.8801V43.3101H43.25V40.8801H43.24Z" fill="#FFEBB8"/>
<path d="M41.3499 23.2903H21.6099V41.1403H41.3499V23.2903Z" fill="#FFC201"/>
<path d="M31.4799 45.9501C36.9309 45.9501 41.3499 43.6801 41.3499 40.8801C41.3499 38.08 36.9309 35.8101 31.4799 35.8101C26.0288 35.8101 21.6099 38.08 21.6099 40.8801C21.6099 43.6801 26.0288 45.9501 31.4799 45.9501Z" fill="#FFC201"/>
<path d="M24.1999 24.0403H24.1799C23.3349 24.0403 22.6499 24.7253 22.6499 25.5703V47.5603C22.6499 48.4053 23.3349 49.0903 24.1799 49.0903H24.1999C25.0449 49.0903 25.7299 48.4053 25.7299 47.5603V25.5703C25.7299 24.7253 25.0449 24.0403 24.1999 24.0403Z" fill="#FF7F00"/>
<path d="M29.04 26.2002H29.02C28.175 26.2002 27.49 26.8852 27.49 27.7302V49.7202C27.49 50.5652 28.175 51.2502 29.02 51.2502H29.04C29.885 51.2502 30.57 50.5652 30.57 49.7202V27.7302C30.57 26.8852 29.885 26.2002 29.04 26.2002Z" fill="#FF7F00"/>
<path d="M33.8698 26.2002H33.8498C33.0048 26.2002 32.3198 26.8852 32.3198 27.7302V49.7202C32.3198 50.5652 33.0048 51.2502 33.8498 51.2502H33.8698C34.7148 51.2502 35.3998 50.5652 35.3998 49.7202V27.7302C35.3998 26.8852 34.7148 26.2002 33.8698 26.2002Z" fill="#FF7F00"/>
<path d="M38.7099 24.0403H38.6899C37.8449 24.0403 37.1599 24.7253 37.1599 25.5703V47.5603C37.1599 48.4053 37.8449 49.0903 38.6899 49.0903H38.7099C39.5549 49.0903 40.2399 48.4053 40.2399 47.5603V25.5703C40.2399 24.7253 39.5549 24.0403 38.7099 24.0403Z" fill="#FF7F00"/>
<path d="M48.7 26.5102C48.7 28.4802 47.89 28.9602 46.54 29.7602C45.83 30.1802 42.14 32.3202 38.81 34.2602C35.81 36.0002 32.9 37.7802 32.9 37.7802L26.28 27.5202L14.97 20.8802L29.55 12.4402C30.55 11.8602 31.77 11.8602 32.77 12.4302L44.35 19.0202C44.75 19.2502 45.12 19.5202 45.46 19.8402C47.5 21.6902 48.67 24.8402 48.67 26.5302L48.7 26.5102Z" fill="#FFEBB8"/>
<path d="M32.3 12.2203C31.4 11.8903 30.4 11.9403 29.56 12.4303L14.98 20.8703L20.47 24.1003C20.91 24.1003 21.16 24.1003 21.16 24.1003C27.87 25.2903 32.32 17.0003 32.3 12.2303V12.2203Z" fill="#FFC201"/>
<path d="M18.03 20.96L29.75 27.68L30.83 33.14L20.57 27.05L18.03 20.96Z" fill="#FFEBB8"/>
<path d="M21.3703 30.9492C22.9723 29.9698 22.8769 26.8953 21.1571 24.0823C19.4373 21.2692 16.7444 19.7827 15.1423 20.7622C13.5402 21.7416 13.6356 24.8161 15.3554 27.6292C17.0752 30.4422 19.7682 31.9287 21.3703 30.9492Z" fill="#FFEBB8"/>
<path d="M20.54 24.4601C19.27 22.3801 17.34 21.2501 16.06 21.7401C15.04 22.6501 15.17 24.8901 16.44 26.9601C17.71 29.0301 19.64 30.1701 20.92 29.6801C21.94 28.7701 21.81 26.5301 20.54 24.4601Z" fill="#FFC201"/>
<path d="M16.44 26.97C15.17 24.89 15.04 22.66 16.06 21.75C15.97 21.78 15.88 21.8 15.8 21.85C14.54 22.62 14.61 25.04 15.97 27.26C17.32 29.48 19.4499 30.65 20.7099 29.88C20.7899 29.83 20.85 29.76 20.92 29.7C19.64 30.19 17.71 29.06 16.44 26.98V26.97Z" fill="#FF7F00"/>
<path d="M20.158 28.5514C21.0061 28.0329 20.9557 26.4054 20.0454 24.9164C19.1351 23.4274 17.7096 22.6407 16.8614 23.1593C16.0133 23.6778 16.0636 25.3052 16.974 26.7942C17.8843 28.2832 19.3098 29.0699 20.158 28.5514Z" fill="#FFEBB8"/>
<path d="M19.6797 28.8492C20.5279 28.3307 20.4775 26.7033 19.5672 25.2143C18.6568 23.7253 17.2313 22.9386 16.3831 23.4571C15.535 23.9756 15.5854 25.6031 16.4957 27.0921C17.406 28.5811 18.8315 29.3678 19.6797 28.8492Z" fill="#FFEBB8"/>
<path d="M19.0381 27.7999C19.5564 27.483 19.5259 26.4889 18.9699 25.5794C18.4139 24.67 17.543 24.1897 17.0247 24.5066C16.5064 24.8234 16.5369 25.8176 17.0929 26.727C17.6489 27.6364 18.5198 28.1167 19.0381 27.7999Z" fill="#FF7F00"/>
<mask id="mask0_26835_29245" style="mask-type:luminance" maskUnits="userSpaceOnUse" x="16" y="24" width="4" height="4">
<path d="M19.0381 27.7996C19.5564 27.4827 19.5259 26.4886 18.9699 25.5792C18.4139 24.6698 17.543 24.1894 17.0247 24.5063C16.5064 24.8232 16.5369 25.8173 17.0929 26.7267C17.6489 27.6361 18.5198 28.1165 19.0381 27.7996Z" fill="white"/>
</mask>
<g mask="url(#mask0_26835_29245)">
<path d="M19.6238 27.4346C20.1421 27.1177 20.1116 26.1236 19.5556 25.2142C18.9996 24.3048 18.1287 23.8244 17.6104 24.1413C17.0921 24.4582 17.1226 25.4523 17.6786 26.3617C18.2346 27.2712 19.1055 27.7515 19.6238 27.4346Z" fill="#FFC201"/>
</g>
<path d="M33.0949 37.6695C34.697 36.69 34.6015 33.6155 32.8817 30.8025C31.1619 27.9894 28.469 26.5029 26.8669 27.4824C25.2648 28.4619 25.3602 31.5363 27.08 34.3494C28.7999 37.1625 31.4928 38.6489 33.0949 37.6695Z" fill="#FFEBB8"/>
<path d="M32.26 31.19C30.99 29.11 29.06 27.98 27.78 28.47C26.76 29.38 26.89 31.62 28.16 33.69C29.43 35.77 31.36 36.9 32.64 36.41C33.66 35.5 33.53 33.26 32.26 31.19Z" fill="#FFC201"/>
<path d="M28.1602 33.69C26.8902 31.61 26.7602 29.38 27.7802 28.47C27.6902 28.5 27.6002 28.52 27.5202 28.57C26.2602 29.34 26.3302 31.76 27.6902 33.98C29.0402 36.2 31.1702 37.37 32.4302 36.6C32.5102 36.55 32.5702 36.48 32.6402 36.42C31.3602 36.91 29.4302 35.78 28.1602 33.7V33.69Z" fill="#FF7F00"/>
<path d="M31.8726 35.2716C32.7207 34.7531 32.6703 33.1256 31.76 31.6367C30.8497 30.1477 29.4242 29.3609 28.576 29.8795C27.7279 30.398 27.7782 32.0254 28.6886 33.5144C29.5989 35.0034 31.0244 35.7901 31.8726 35.2716Z" fill="#FFEBB8"/>
<path d="M31.3943 35.5695C32.2425 35.0509 32.1921 33.4235 31.2818 31.9345C30.3714 30.4455 28.9459 29.6588 28.0977 30.1773C27.2496 30.6959 27.3 32.3233 28.2103 33.8123C29.1206 35.3013 30.5461 36.088 31.3943 35.5695Z" fill="#FFEBB8"/>
<path d="M30.7527 34.5201C31.271 34.2032 31.2405 33.2091 30.6845 32.2997C30.1285 31.3902 29.2576 30.9099 28.7393 31.2268C28.221 31.5437 28.2515 32.5378 28.8075 33.4472C29.3635 34.3566 30.2344 34.837 30.7527 34.5201Z" fill="#FF7F00"/>
<mask id="mask1_26835_29245" style="mask-type:luminance" maskUnits="userSpaceOnUse" x="28" y="31" width="4" height="4">
<path d="M30.7527 34.5198C31.271 34.2029 31.2405 33.2088 30.6845 32.2994C30.1285 31.39 29.2576 30.9096 28.7393 31.2265C28.221 31.5434 28.2515 32.5375 28.8075 33.4469C29.3635 34.3564 30.2344 34.8367 30.7527 34.5198Z" fill="white"/>
</mask>
<g mask="url(#mask1_26835_29245)">
<path d="M31.3484 34.1548C31.8667 33.838 31.8362 32.8438 31.2802 31.9344C30.7242 31.025 29.8533 30.5447 29.335 30.8615C28.8167 31.1784 28.8472 32.1725 29.4032 33.082C29.9592 33.9914 30.8301 34.4717 31.3484 34.1548Z" fill="#FFC201"/>
</g>
<path d="M48.6999 26.5101C48.6999 28.4801 47.8899 28.9601 46.5399 29.7601C45.8299 30.1801 42.1399 32.3201 38.8099 34.2601C36.8399 31.6301 40.5899 21.9901 45.4899 19.8201C47.5299 21.6701 48.6999 24.8201 48.6999 26.5101Z" fill="white"/>
<path d="M43.05 42.0901C42.7 40.9901 42.49 40.4701 41.35 39.6201C41.35 39.6201 41.35 40.2701 41.35 40.8701C41.35 43.6701 36.93 45.9401 31.48 45.9401C26.03 45.9401 21.61 43.6701 21.61 40.8701V39.1401C20.47 39.9801 20.25 40.9901 19.91 42.0801C19.79 42.4701 19.72 42.8801 19.72 43.3001C19.72 47.0401 24.99 50.0701 31.48 50.0701C37.97 50.0701 43.24 47.0401 43.24 43.3001C43.24 42.8801 43.17 42.4801 43.05 42.0801V42.0901Z" fill="#FFEBB8"/>
<path d="M37.5298 58.2701L48.2198 52.0601C48.5198 51.8901 48.6998 51.5701 48.6998 51.2201V48.8501C48.6998 48.5201 48.5198 48.2201 48.2398 48.0601C46.7698 47.7201 34.8298 55.3001 37.5398 58.2701H37.5298Z" fill="white"/>
<path fill-rule="evenodd" clip-rule="evenodd" d="M6.49771 79C6.98969 79 7.48602 79.213 7.49037 79.6913C7.49037 80.1043 7.24656 80.2696 6.99839 80.2696C6.75023 80.2696 6.73281 80.1435 6.73281 80.1435C6.73281 80.1435 7.02452 79.9261 7.02452 79.7174C7.02452 79.6087 6.94179 79.313 6.489 79.3174C5.8577 79.3174 5.5181 79.6174 5.5181 80.1522C5.5181 80.7652 7.35105 80.9739 7.3554 81.7652C7.3554 82.613 6.47594 82.9957 5.69225 83C5.283 83 5.01306 82.7609 5.00871 82.3783C5.00871 81.9261 5.22204 81.4652 5.75756 81.4652C5.88382 81.4565 5.98831 81.5522 5.99702 81.6783C5.99702 81.6783 5.99702 81.6826 5.99702 81.687C5.99702 81.687 5.45715 81.8391 5.4615 82.3783C5.4615 82.4783 5.56599 82.6609 5.81851 82.6565C6.07103 82.6522 6.82424 82.4739 6.81989 81.8087C6.81989 81.1913 5.00435 81.1087 5 80.1478C5 79.0652 6.08845 79.0087 6.49771 79.0087V79ZM10.747 79.6C10.8123 79.5696 11.2129 79.4913 11.1955 79.813C11.1824 80.1348 10.9386 80.6913 10.9037 80.9348C11.2303 80.7696 11.6918 80.2087 11.6918 80.2087C11.6918 80.2087 12.0183 80.2522 11.9182 80.4522C11.818 80.6522 11.1519 81.1435 11.1519 81.1435C11.1519 81.1435 11.3043 82.5696 12.1707 82.5696C12.6453 82.5696 12.8499 82.3609 12.937 82.287C12.9587 82.2696 12.9762 82.2652 12.9849 82.2783C13.0197 82.387 12.9936 82.5043 12.9152 82.5913C12.8194 82.6957 12.5974 82.8217 12.1533 82.8261C11.3653 82.8261 10.9255 82.1957 10.8123 81.2609C10.7252 81.5348 10.7339 81.9826 10.7209 82.2C10.6948 82.2435 10.2507 82.4174 10.2158 82.1174C10.2158 82.0913 10.2158 82.0696 10.2158 82.0435C10.1331 82.1609 10.0199 82.2826 9.91108 82.2826C9.71951 82.2826 9.63679 82.1217 9.60196 82.0391C9.57584 82.0696 9.3625 82.287 9.08821 82.287C8.92277 82.2913 8.77474 82.1957 8.70943 82.0435C8.57011 82.1435 8.32195 82.2913 8.03895 82.2913C7.73418 82.2913 7.66017 82.1087 7.66017 81.9565C7.66017 81.713 7.84303 80.987 7.84303 80.987C7.84303 80.987 7.48602 81.1304 7.36411 81.1348C7.19431 81.1348 7.11159 80.8217 7.11159 80.813C7.11159 80.8087 7.11159 80.8 7.1203 80.8C7.22044 80.7609 7.94317 80.513 7.94317 80.513C7.94317 80.513 8.07813 79.9826 8.09555 79.913C8.11296 79.8435 8.2131 79.7 8.33065 79.6565C8.41773 79.6217 8.50916 79.6 8.60059 79.5913C8.63107 79.5913 8.65284 79.6 8.65284 79.6174C8.65284 79.6348 8.47433 80.4087 8.47433 80.4087C8.47433 80.4087 8.84876 80.3217 8.98808 80.3217C9.09692 80.3217 9.15352 80.387 9.09257 80.4696C9.03162 80.5522 8.96196 80.6478 8.92712 80.6913C8.88794 80.7348 8.86182 80.7435 8.77039 80.7609C8.64413 80.787 8.36113 80.8565 8.36113 80.8565C8.36113 80.8565 8.13473 81.6783 8.13909 81.8174C8.13909 81.8957 8.16521 81.987 8.26099 81.987C8.35678 81.987 8.53964 81.8739 8.67025 81.7913C8.69202 81.1522 9.18835 80.7261 9.57584 80.7261C9.7021 80.7261 9.65421 80.8478 9.79788 80.8478H9.88931C9.94591 80.8478 10.0069 80.8522 10.0069 80.9957C10.0069 81.1957 9.89367 81.5261 9.89367 81.7348C9.89367 81.8826 9.91544 81.987 9.97204 81.987C10.0678 81.987 10.1767 81.8478 10.255 81.7261C10.3813 81.0304 10.734 79.7609 10.734 79.6174L10.747 79.6ZM12.5016 80.7C12.7672 80.6783 12.9326 80.8217 12.9631 80.9C12.9936 80.9783 12.9892 81.1609 12.9152 81.2913C12.6845 81.7044 12.1097 81.6304 12.1097 81.6304C12.1097 81.6304 12.0444 81.9565 12.3405 81.9565C12.593 81.9565 12.7062 81.8304 12.8151 81.7261C12.8586 81.7261 12.9936 81.8652 12.9326 81.9609C12.8847 82.0348 12.6191 82.2565 12.2795 82.2609C11.7397 82.2609 11.6047 81.8 11.6744 81.4696C11.7658 81.0609 12.1751 80.7217 12.5016 80.6957V80.7ZM9.6455 80.987C9.32332 80.987 8.82699 81.9696 9.20577 81.9652C9.61938 81.9652 9.6455 81.1826 9.6455 81.0043V80.987ZM12.6409 80.8913C12.4232 80.9 12.1751 81.3174 12.1533 81.5C12.4798 81.513 12.654 81.1957 12.6757 81.0696C12.6888 80.9739 12.6932 80.887 12.6409 80.887V80.8913Z" fill="#557086"/>
<path d="M40.851 79.0672L39.2521 80.8632C39.1826 80.9428 39.1826 81.0572 39.2521 81.1368L40.846 82.9328C40.9255 83.0224 41.0695 83.0224 41.1539 82.9328L42.7478 81.1368C42.8173 81.0572 42.8173 80.9428 42.7478 80.8632L41.1539 79.0672C41.0744 78.9776 40.9304 78.9776 40.846 79.0672H40.851Z" fill="white"/>
<path d="M41.6604 79.6343L42.142 80.1766L40.568 82.6144L39.704 81.6393L41.6604 79.6343Z" fill="#8EA3B2"/>
<path d="M45.851 79.0672L44.2521 80.8632C44.1826 80.9428 44.1826 81.0572 44.2521 81.1368L45.846 82.9328C45.9255 83.0224 46.0695 83.0224 46.1539 82.9328L47.7478 81.1368C47.8173 81.0572 47.8173 80.9428 47.7478 80.8632L46.1539 79.0672C46.0744 78.9776 45.9304 78.9776 45.846 79.0672H45.851Z" fill="white"/>
<path d="M46.6604 79.6343L47.142 80.1766L45.568 82.6144L44.704 81.6393L46.6604 79.6343Z" fill="#8EA3B2"/>
<path d="M50.851 79.0672L49.2521 80.8632C49.1826 80.9428 49.1826 81.0572 49.2521 81.1368L50.846 82.9328C50.9255 83.0224 51.0695 83.0224 51.1539 82.9328L52.7478 81.1368C52.8173 81.0572 52.8173 80.9428 52.7478 80.8632L51.1539 79.0672C51.0744 78.9776 50.9304 78.9776 50.846 79.0672H50.851Z" fill="white"/>
<path d="M51.6604 79.6343L52.142 80.1766L50.568 82.6144L49.704 81.6393L51.6604 79.6343Z" fill="#8EA3B2"/>
<path d="M55.851 79.0672L54.2521 80.8632C54.1826 80.9428 54.1826 81.0572 54.2521 81.1368L55.846 82.9328C55.9255 83.0224 56.0695 83.0224 56.1539 82.9328L57.7478 81.1368C57.8173 81.0572 57.8173 80.9428 57.7478 80.8632L56.1539 79.0672C56.0744 78.9776 55.9304 78.9776 55.846 79.0672H55.851Z" fill="white"/>
<path d="M56.6604 79.6343L57.142 80.1766L55.568 82.6144L54.704 81.6393L56.6604 79.6343Z" fill="#8EA3B2"/>
<rect x="13" y="62" width="37" height="13" rx="6.5" fill="#2F4553"/>
<path d="M27.3456 70.072C26.1756 70.072 25.6296 69.058 25.6296 68.002C25.6296 66.946 26.1756 65.938 27.3456 65.938C28.5156 65.938 29.0616 66.946 29.0616 68.002C29.0616 69.058 28.5156 70.072 27.3456 70.072ZM27.3456 69.16C27.8256 69.16 28.0176 68.71 28.0176 68.002C28.0176 67.294 27.8256 66.85 27.3456 66.85C26.8656 66.85 26.6736 67.294 26.6736 68.002C26.6736 68.71 26.8656 69.16 27.3456 69.16ZM29.9339 70.072C29.6279 70.072 29.3699 69.814 29.3699 69.508C29.3699 69.202 29.6279 68.944 29.9339 68.944C30.2399 68.944 30.4979 69.202 30.4979 69.508C30.4979 69.814 30.2399 70.072 29.9339 70.072ZM32.6011 70.072C31.7371 70.072 30.9031 69.73 30.9031 68.944C30.9031 68.488 31.2511 68.116 31.7131 67.936C31.2871 67.774 30.9691 67.486 30.9691 67.006C30.9691 66.232 31.8151 65.938 32.6011 65.938C33.3811 65.938 34.2331 66.232 34.2331 67.006C34.2331 67.486 33.9091 67.774 33.4831 67.936C33.9451 68.116 34.2931 68.488 34.2931 68.944C34.2931 69.724 33.4651 70.072 32.6011 70.072ZM32.6011 67.534C32.8471 67.498 33.1771 67.372 33.1771 67.156C33.1771 66.934 32.9431 66.796 32.6011 66.796C32.2471 66.796 32.0191 66.934 32.0191 67.156C32.0191 67.372 32.3551 67.498 32.6011 67.534ZM32.6011 69.214C32.9731 69.214 33.2491 69.058 33.2491 68.824C33.2491 68.578 32.8531 68.434 32.6011 68.404C32.3431 68.434 31.9531 68.578 31.9531 68.824C31.9531 69.058 32.2171 69.214 32.6011 69.214ZM37.5641 70H36.5501L35.9921 69.124L35.4281 70H34.4201L35.4101 68.512L34.4801 67.102H35.4941L35.9921 67.888L36.4841 67.102H37.4981L36.5741 68.512L37.5641 70Z" fill="white"/>
<path d="M6.835 11.06C5.82 11.06 5.33 10.49 5.33 9.67V7.665H6.05V9.645C6.05 10.11 6.32 10.43 6.835 10.43C7.35 10.43 7.615 10.11 7.615 9.645V7.665H8.34V9.665C8.34 10.495 7.85 11.06 6.835 11.06ZM11.247 11H10.612V9.54C10.612 9.205 10.437 9.09 10.167 9.09C9.91699 9.09 9.72199 9.23 9.61699 9.375V11H8.98199V8.585H9.61699V8.9C9.77199 8.715 10.067 8.525 10.462 8.525C10.992 8.525 11.247 8.825 11.247 9.295V11ZM13.0025 11.06C12.2575 11.06 11.7225 10.535 11.7225 9.79C11.7225 9.05 12.2575 8.525 13.0025 8.525C13.4975 8.525 13.7975 8.74 13.9575 8.96L13.5425 9.35C13.4275 9.18 13.2525 9.09 13.0325 9.09C12.6475 9.09 12.3775 9.37 12.3775 9.79C12.3775 10.21 12.6475 10.495 13.0325 10.495C13.2525 10.495 13.4275 10.395 13.5425 10.235L13.9575 10.62C13.7975 10.845 13.4975 11.06 13.0025 11.06ZM15.4926 11.06C14.6976 11.06 14.2176 10.48 14.2176 9.79C14.2176 9.105 14.6976 8.525 15.4926 8.525C16.2926 8.525 16.7726 9.105 16.7726 9.79C16.7726 10.48 16.2926 11.06 15.4926 11.06ZM15.4926 10.495C15.8876 10.495 16.1126 10.17 16.1126 9.79C16.1126 9.415 15.8876 9.09 15.4926 9.09C15.0976 9.09 14.8776 9.415 14.8776 9.79C14.8776 10.17 15.0976 10.495 15.4926 10.495ZM20.8787 11H20.2387V9.475C20.2387 9.25 20.1387 9.09 19.8787 9.09C19.6537 9.09 19.4687 9.24 19.3787 9.37V11H18.7387V9.475C18.7387 9.25 18.6387 9.09 18.3787 9.09C18.1587 9.09 17.9737 9.24 17.8787 9.375V11H17.2437V8.585H17.8787V8.9C17.9787 8.755 18.2987 8.525 18.6687 8.525C19.0237 8.525 19.2487 8.69 19.3387 8.965C19.4787 8.745 19.7987 8.525 20.1687 8.525C20.6137 8.525 20.8787 8.76 20.8787 9.255V11ZM25.1365 11H24.4965V9.475C24.4965 9.25 24.3965 9.09 24.1365 9.09C23.9115 9.09 23.7265 9.24 23.6365 9.37V11H22.9965V9.475C22.9965 9.25 22.8965 9.09 22.6365 9.09C22.4165 9.09 22.2315 9.24 22.1365 9.375V11H21.5015V8.585H22.1365V8.9C22.2365 8.755 22.5565 8.525 22.9265 8.525C23.2815 8.525 23.5065 8.69 23.5965 8.965C23.7365 8.745 24.0565 8.525 24.4265 8.525C24.8715 8.525 25.1365 8.76 25.1365 9.255V11ZM26.8793 11.06C26.0843 11.06 25.6043 10.48 25.6043 9.79C25.6043 9.105 26.0843 8.525 26.8793 8.525C27.6793 8.525 28.1593 9.105 28.1593 9.79C28.1593 10.48 27.6793 11.06 26.8793 11.06ZM26.8793 10.495C27.2743 10.495 27.4993 10.17 27.4993 9.79C27.4993 9.415 27.2743 9.09 26.8793 9.09C26.4843 9.09 26.2643 9.415 26.2643 9.79C26.2643 10.17 26.4843 10.495 26.8793 10.495ZM30.8954 11H30.2604V9.54C30.2604 9.205 30.0854 9.09 29.8154 9.09C29.5654 9.09 29.3704 9.23 29.2654 9.375V11H28.6304V8.585H29.2654V8.9C29.4204 8.715 29.7154 8.525 30.1104 8.525C30.6404 8.525 30.8954 8.825 30.8954 9.295V11Z" fill="white"/>
<path d="M48.678 11H48.226L46.834 9.096V11H46.366V8.332H46.846L48.21 10.184V8.332H48.678V11ZM50.1049 11.048C49.4929 11.048 49.1129 10.588 49.1129 10.032C49.1129 9.48 49.4929 9.02 50.1049 9.02C50.7249 9.02 51.1009 9.48 51.1009 10.032C51.1009 10.588 50.7249 11.048 50.1049 11.048ZM50.1049 10.676C50.4649 10.676 50.6649 10.376 50.6649 10.032C50.6649 9.692 50.4649 9.392 50.1049 9.392C49.7489 9.392 49.5489 9.692 49.5489 10.032C49.5489 10.376 49.7489 10.676 50.1049 10.676ZM51.7224 11.044C51.5704 11.044 51.4424 10.916 51.4424 10.764C51.4424 10.612 51.5704 10.484 51.7224 10.484C51.8744 10.484 52.0024 10.612 52.0024 10.764C52.0024 10.916 51.8744 11.044 51.7224 11.044ZM54.4342 11.048C53.8862 11.048 53.4102 10.796 53.4102 10.316C53.4102 9.976 53.6862 9.732 54.0102 9.624C53.7102 9.528 53.4542 9.332 53.4542 8.992C53.4542 8.5 53.9582 8.292 54.4342 8.292C54.9022 8.292 55.4142 8.5 55.4142 8.992C55.4142 9.332 55.1542 9.528 54.8542 9.624C55.1782 9.732 55.4542 9.976 55.4542 10.316C55.4542 10.792 54.9782 11.048 54.4342 11.048ZM54.4342 9.44C54.5982 9.412 54.9382 9.316 54.9382 9.064C54.9382 8.84 54.7182 8.708 54.4342 8.708C54.1422 8.708 53.9262 8.84 53.9262 9.064C53.9262 9.316 54.2702 9.412 54.4342 9.44ZM54.4342 10.632C54.7302 10.632 54.9822 10.488 54.9822 10.256C54.9822 9.98 54.5982 9.856 54.4342 9.836C54.2662 9.856 53.8822 9.98 53.8822 10.256C53.8822 10.488 54.1302 10.632 54.4342 10.632ZM57.7531 11H55.8211V10.632C56.8571 9.848 57.2611 9.5 57.2611 9.116C57.2611 8.836 57.0211 8.708 56.7771 8.708C56.4651 8.708 56.2251 8.836 56.0571 9.028L55.7851 8.72C56.0211 8.436 56.3971 8.292 56.7691 8.292C57.2851 8.292 57.7371 8.584 57.7371 9.116C57.7371 9.608 57.2851 10.048 56.5691 10.588H57.7531V11Z" fill="white"/>
</svg>
