<svg width="63" height="88" viewBox="0 0 63 88" fill="none" xmlns="http://www.w3.org/2000/svg">
<rect width="63" height="88" rx="4" fill="#047BFF"/>
<path d="M36.7008 13.5133L44.7992 3.48665C45.5586 2.54645 46.7024 2 47.911 2H58C59.6569 2 61 3.34314 61 5V83C61 84.6569 59.6569 86 58 86H5C3.34315 86 2 84.6569 2 83V18C2 16.3431 3.34315 15 5 15H33.589C34.7976 15 35.9414 14.4536 36.7008 13.5133Z" fill="#213743"/>
<rect x="5" y="18" width="53" height="40" rx="1" fill="#2F4553"/>
<path d="M31.5002 38.562C36.7945 38.562 41.0865 37.9326 41.0865 37.1562C41.0865 36.3799 36.7945 35.7505 31.5002 35.7505C26.2058 35.7505 21.9138 36.3799 21.9138 37.1562C21.9138 37.9326 26.2058 38.562 31.5002 38.562Z" fill="#FFC201"/>
<path d="M43.9077 55.2552C42.9022 57.2369 35.1804 54.8257 35.0243 55.2162C35.0243 55.2162 33.1109 60.5951 31.5002 60.5951C29.8894 60.5951 27.9761 55.2162 27.9761 55.2162C27.8101 54.8257 20.0981 57.2369 19.0926 55.2552C18.4483 53.9764 22.685 50.794 22.685 50.794C23.2415 50.3937 17.6869 46.938 18.175 45.2101C18.419 44.3217 19.0633 43.5701 19.9809 42.9355C24.9986 39.4895 38.441 39.7531 43.2927 43.3846C44.0053 43.9215 44.5423 44.5267 44.8254 45.2101C45.5185 46.8696 39.7588 50.3937 40.3055 50.794C40.3055 50.794 44.552 53.9764 43.9077 55.2552Z" fill="#FFC201"/>
<path d="M37.7771 47.0161C32.896 48.002 30.1334 48.002 25.2523 47.0161C19.278 45.8153 18.8973 44.7025 19.9808 42.9355C24.9985 39.4895 38.4409 39.7531 43.2926 43.3846C44.0345 45.0344 43.2438 45.9227 37.7771 47.0161Z" fill="white"/>
<path d="M39.017 37.947V46.2155C39.017 50.3644 35.649 53.7323 31.5002 53.7323C27.3513 53.7323 23.9834 50.3644 23.9834 46.2155V37.947C23.9834 36.2484 39.0267 36.2484 39.0267 37.947H39.017Z" fill="#1A2C38"/>
<path d="M40.2568 33.3002V42.9256C40.2568 47.7578 36.3324 51.6822 31.5002 51.6822C26.668 51.6822 22.7437 47.7578 22.7437 42.9256V33.3002C22.7437 31.3283 40.2568 31.3283 40.2568 33.3002Z" fill="#FFEBB8"/>
<path d="M37.1719 45.0832C38.1963 45.0832 39.0267 44.5981 39.0267 43.9996C39.0267 43.4012 38.1963 42.916 37.1719 42.916C36.1476 42.916 35.3171 43.4012 35.3171 43.9996C35.3171 44.5981 36.1476 45.0832 37.1719 45.0832Z" fill="#FFC201"/>
<path d="M25.8284 45.0832C26.8528 45.0832 27.6832 44.5981 27.6832 43.9996C27.6832 43.4012 26.8528 42.916 25.8284 42.916C24.804 42.916 23.9736 43.4012 23.9736 43.9996C23.9736 44.5981 24.804 45.0832 25.8284 45.0832Z" fill="#FFC201"/>
<path d="M21.9137 34.4913H30.3969C30.3969 34.4913 30.026 24.6804 21.9137 24.6804C13.8015 24.6804 12.9912 30.8696 12.9912 30.8696L14.6312 31.6896C14.6312 31.6896 18.8094 27.9507 21.9235 34.4913H21.9137Z" fill="#E9113C"/>
<path d="M12.9913 35.2039C14.2799 35.2039 15.3245 34.1593 15.3245 32.8707C15.3245 31.5822 14.2799 30.5376 12.9913 30.5376C11.7028 30.5376 10.6582 31.5822 10.6582 32.8707C10.6582 34.1593 11.7028 35.2039 12.9913 35.2039Z" fill="#047BFF"/>
<path d="M41.0865 34.4913H32.6033C32.6033 34.4913 32.9742 24.6804 41.0865 24.6804C49.1988 24.6804 50.009 30.8696 50.009 30.8696L48.369 31.6896C48.369 31.6896 44.1908 27.9507 41.0767 34.4913H41.0865Z" fill="#047BFF"/>
<path d="M50.0092 35.2039C51.2977 35.2039 52.3423 34.1593 52.3423 32.8707C52.3423 31.5822 51.2977 30.5376 50.0092 30.5376C48.7206 30.5376 47.676 31.5822 47.676 32.8707C47.676 34.1593 48.7206 35.2039 50.0092 35.2039Z" fill="#FFC201"/>
<path d="M32.6034 16.8903L31.5003 16.5388L30.3972 16.8903C30.3972 16.8903 25.604 24.3777 25.604 34.4912H37.3868C37.3868 24.3777 32.5936 16.8903 32.5936 16.8903H32.6034Z" fill="#FFC201"/>
<path d="M31.5001 17.2612C32.7887 17.2612 33.8333 16.2167 33.8333 14.9281C33.8333 13.6395 32.7887 12.595 31.5001 12.595C30.2116 12.595 29.167 13.6395 29.167 14.9281C29.167 16.2167 30.2116 17.2612 31.5001 17.2612Z" fill="#E9113C"/>
<path d="M31.5002 47.0161C32.6324 47.0161 33.5503 46.0982 33.5503 44.966C33.5503 43.8338 32.6324 42.916 31.5002 42.916C30.368 42.916 29.4502 43.8338 29.4502 44.966C29.4502 46.0982 30.368 47.0161 31.5002 47.0161Z" fill="#E9113C"/>
<path d="M36.6056 37.8787C35.6879 39.2942 34.946 40.0361 33.5305 40.9537C34.946 41.8713 35.6879 42.6133 36.6056 44.0288C37.5232 42.6133 38.2651 41.8713 39.6806 40.9537C38.2651 40.0361 37.5232 39.2942 36.6056 37.8787Z" fill="#1A2C38"/>
<path d="M26.3946 37.8787C25.477 39.2942 24.7351 40.0361 23.3196 40.9537C24.7351 41.8713 25.477 42.6133 26.3946 44.0288C27.3123 42.6133 28.0542 41.8713 29.4697 40.9537C28.0542 40.0361 27.3123 39.2942 26.3946 37.8787Z" fill="#1A2C38"/>
<path d="M41.0865 37.1562C41.0865 35.6822 21.9236 35.6822 21.9236 37.1562V33.9738C21.9236 31.914 41.0865 31.914 41.0865 33.9738V37.1562Z" fill="#FFC201"/>
<path fill-rule="evenodd" clip-rule="evenodd" d="M6.49771 79C6.98969 79 7.48602 79.213 7.49037 79.6913C7.49037 80.1043 7.24656 80.2696 6.99839 80.2696C6.75023 80.2696 6.73281 80.1435 6.73281 80.1435C6.73281 80.1435 7.02452 79.9261 7.02452 79.7174C7.02452 79.6087 6.94179 79.313 6.489 79.3174C5.8577 79.3174 5.5181 79.6174 5.5181 80.1522C5.5181 80.7652 7.35105 80.9739 7.3554 81.7652C7.3554 82.613 6.47594 82.9957 5.69225 83C5.283 83 5.01306 82.7609 5.00871 82.3783C5.00871 81.9261 5.22204 81.4652 5.75756 81.4652C5.88382 81.4565 5.98831 81.5522 5.99702 81.6783C5.99702 81.6783 5.99702 81.6826 5.99702 81.687C5.99702 81.687 5.45715 81.8391 5.4615 82.3783C5.4615 82.4783 5.56599 82.6609 5.81851 82.6565C6.07103 82.6522 6.82424 82.4739 6.81989 81.8087C6.81989 81.1913 5.00435 81.1087 5 80.1478C5 79.0652 6.08845 79.0087 6.49771 79.0087V79ZM10.747 79.6C10.8123 79.5696 11.2129 79.4913 11.1955 79.813C11.1824 80.1348 10.9386 80.6913 10.9037 80.9348C11.2303 80.7696 11.6918 80.2087 11.6918 80.2087C11.6918 80.2087 12.0183 80.2522 11.9182 80.4522C11.818 80.6522 11.1519 81.1435 11.1519 81.1435C11.1519 81.1435 11.3043 82.5696 12.1707 82.5696C12.6453 82.5696 12.8499 82.3609 12.937 82.287C12.9587 82.2696 12.9762 82.2652 12.9849 82.2783C13.0197 82.387 12.9936 82.5043 12.9152 82.5913C12.8194 82.6957 12.5974 82.8217 12.1533 82.8261C11.3653 82.8261 10.9255 82.1957 10.8123 81.2609C10.7252 81.5348 10.7339 81.9826 10.7209 82.2C10.6948 82.2435 10.2507 82.4174 10.2158 82.1174C10.2158 82.0913 10.2158 82.0696 10.2158 82.0435C10.1331 82.1609 10.0199 82.2826 9.91108 82.2826C9.71951 82.2826 9.63679 82.1217 9.60196 82.0391C9.57584 82.0696 9.3625 82.287 9.08821 82.287C8.92277 82.2913 8.77474 82.1957 8.70943 82.0435C8.57011 82.1435 8.32195 82.2913 8.03895 82.2913C7.73418 82.2913 7.66017 82.1087 7.66017 81.9565C7.66017 81.713 7.84303 80.987 7.84303 80.987C7.84303 80.987 7.48602 81.1304 7.36411 81.1348C7.19431 81.1348 7.11159 80.8217 7.11159 80.813C7.11159 80.8087 7.11159 80.8 7.1203 80.8C7.22044 80.7609 7.94317 80.513 7.94317 80.513C7.94317 80.513 8.07813 79.9826 8.09555 79.913C8.11296 79.8435 8.2131 79.7 8.33065 79.6565C8.41773 79.6217 8.50916 79.6 8.60059 79.5913C8.63107 79.5913 8.65284 79.6 8.65284 79.6174C8.65284 79.6348 8.47433 80.4087 8.47433 80.4087C8.47433 80.4087 8.84876 80.3217 8.98808 80.3217C9.09692 80.3217 9.15352 80.387 9.09257 80.4696C9.03162 80.5522 8.96196 80.6478 8.92712 80.6913C8.88794 80.7348 8.86182 80.7435 8.77039 80.7609C8.64413 80.787 8.36113 80.8565 8.36113 80.8565C8.36113 80.8565 8.13473 81.6783 8.13909 81.8174C8.13909 81.8957 8.16521 81.987 8.26099 81.987C8.35678 81.987 8.53964 81.8739 8.67025 81.7913C8.69202 81.1522 9.18835 80.7261 9.57584 80.7261C9.7021 80.7261 9.65421 80.8478 9.79788 80.8478H9.88931C9.94591 80.8478 10.0069 80.8522 10.0069 80.9957C10.0069 81.1957 9.89367 81.5261 9.89367 81.7348C9.89367 81.8826 9.91544 81.987 9.97204 81.987C10.0678 81.987 10.1767 81.8478 10.255 81.7261C10.3813 81.0304 10.734 79.7609 10.734 79.6174L10.747 79.6ZM12.5016 80.7C12.7672 80.6783 12.9326 80.8217 12.9631 80.9C12.9936 80.9783 12.9892 81.1609 12.9152 81.2913C12.6845 81.7044 12.1097 81.6304 12.1097 81.6304C12.1097 81.6304 12.0444 81.9565 12.3405 81.9565C12.593 81.9565 12.7062 81.8304 12.8151 81.7261C12.8586 81.7261 12.9936 81.8652 12.9326 81.9609C12.8847 82.0348 12.6191 82.2565 12.2795 82.2609C11.7397 82.2609 11.6047 81.8 11.6744 81.4696C11.7658 81.0609 12.1751 80.7217 12.5016 80.6957V80.7ZM9.6455 80.987C9.32332 80.987 8.82699 81.9696 9.20577 81.9652C9.61938 81.9652 9.6455 81.1826 9.6455 81.0043V80.987ZM12.6409 80.8913C12.4232 80.9 12.1751 81.3174 12.1533 81.5C12.4798 81.513 12.654 81.1957 12.6757 81.0696C12.6888 80.9739 12.6932 80.887 12.6409 80.887V80.8913Z" fill="#557086"/>
<path d="M40.851 79.0672L39.2521 80.8632C39.1826 80.9428 39.1826 81.0572 39.2521 81.1368L40.846 82.9328C40.9255 83.0224 41.0695 83.0224 41.1539 82.9328L42.7478 81.1368C42.8173 81.0572 42.8173 80.9428 42.7478 80.8632L41.1539 79.0672C41.0744 78.9776 40.9304 78.9776 40.846 79.0672H40.851Z" fill="white"/>
<path d="M41.6604 79.6343L42.142 80.1766L40.568 82.6144L39.704 81.6393L41.6604 79.6343Z" fill="#8EA3B2"/>
<path d="M45.851 79.0672L44.2521 80.8632C44.1826 80.9428 44.1826 81.0572 44.2521 81.1368L45.846 82.9328C45.9255 83.0224 46.0695 83.0224 46.1539 82.9328L47.7478 81.1368C47.8173 81.0572 47.8173 80.9428 47.7478 80.8632L46.1539 79.0672C46.0744 78.9776 45.9304 78.9776 45.846 79.0672H45.851Z" fill="white"/>
<path d="M46.6604 79.6343L47.142 80.1766L45.568 82.6144L44.704 81.6393L46.6604 79.6343Z" fill="#8EA3B2"/>
<path d="M50.851 79.0672L49.2521 80.8632C49.1826 80.9428 49.1826 81.0572 49.2521 81.1368L50.846 82.9328C50.9255 83.0224 51.0695 83.0224 51.1539 82.9328L52.7478 81.1368C52.8173 81.0572 52.8173 80.9428 52.7478 80.8632L51.1539 79.0672C51.0744 78.9776 50.9304 78.9776 50.846 79.0672H50.851Z" fill="white"/>
<path d="M51.6604 79.6343L52.142 80.1766L50.568 82.6144L49.704 81.6393L51.6604 79.6343Z" fill="#8EA3B2"/>
<path d="M55.851 79.0672L54.2521 80.8632C54.1826 80.9428 54.1826 81.0572 54.2521 81.1368L55.846 82.9328C55.9255 83.0224 56.0695 83.0224 56.1539 82.9328L57.7478 81.1368C57.8173 81.0572 57.8173 80.9428 57.7478 80.8632L56.1539 79.0672C56.0744 78.9776 55.9304 78.9776 55.846 79.0672H55.851Z" fill="white"/>
<path d="M56.6604 79.6343L57.142 80.1766L55.568 82.6144L54.704 81.6393L56.6604 79.6343Z" fill="#8EA3B2"/>
<rect x="13" y="62" width="37" height="13" rx="6.5" fill="#2F4553"/>
<path d="M27.3456 70.072C26.1756 70.072 25.6296 69.058 25.6296 68.002C25.6296 66.946 26.1756 65.938 27.3456 65.938C28.5156 65.938 29.0616 66.946 29.0616 68.002C29.0616 69.058 28.5156 70.072 27.3456 70.072ZM27.3456 69.16C27.8256 69.16 28.0176 68.71 28.0176 68.002C28.0176 67.294 27.8256 66.85 27.3456 66.85C26.8656 66.85 26.6736 67.294 26.6736 68.002C26.6736 68.71 26.8656 69.16 27.3456 69.16ZM29.9339 70.072C29.6279 70.072 29.3699 69.814 29.3699 69.508C29.3699 69.202 29.6279 68.944 29.9339 68.944C30.2399 68.944 30.4979 69.202 30.4979 69.508C30.4979 69.814 30.2399 70.072 29.9339 70.072ZM32.6011 70.072C31.7371 70.072 30.9031 69.73 30.9031 68.944C30.9031 68.488 31.2511 68.116 31.7131 67.936C31.2871 67.774 30.9691 67.486 30.9691 67.006C30.9691 66.232 31.8151 65.938 32.6011 65.938C33.3811 65.938 34.2331 66.232 34.2331 67.006C34.2331 67.486 33.9091 67.774 33.4831 67.936C33.9451 68.116 34.2931 68.488 34.2931 68.944C34.2931 69.724 33.4651 70.072 32.6011 70.072ZM32.6011 67.534C32.8471 67.498 33.1771 67.372 33.1771 67.156C33.1771 66.934 32.9431 66.796 32.6011 66.796C32.2471 66.796 32.0191 66.934 32.0191 67.156C32.0191 67.372 32.3551 67.498 32.6011 67.534ZM32.6011 69.214C32.9731 69.214 33.2491 69.058 33.2491 68.824C33.2491 68.578 32.8531 68.434 32.6011 68.404C32.3431 68.434 31.9531 68.578 31.9531 68.824C31.9531 69.058 32.2171 69.214 32.6011 69.214ZM37.5641 70H36.5501L35.9921 69.124L35.4281 70H34.4201L35.4101 68.512L34.4801 67.102H35.4941L35.9921 67.888L36.4841 67.102H37.4981L36.5741 68.512L37.5641 70Z" fill="white"/>
<path d="M6.835 11.06C5.82 11.06 5.33 10.49 5.33 9.67V7.665H6.05V9.645C6.05 10.11 6.32 10.43 6.835 10.43C7.35 10.43 7.615 10.11 7.615 9.645V7.665H8.34V9.665C8.34 10.495 7.85 11.06 6.835 11.06ZM11.247 11H10.612V9.54C10.612 9.205 10.437 9.09 10.167 9.09C9.91699 9.09 9.72199 9.23 9.61699 9.375V11H8.98199V8.585H9.61699V8.9C9.77199 8.715 10.067 8.525 10.462 8.525C10.992 8.525 11.247 8.825 11.247 9.295V11ZM13.0025 11.06C12.2575 11.06 11.7225 10.535 11.7225 9.79C11.7225 9.05 12.2575 8.525 13.0025 8.525C13.4975 8.525 13.7975 8.74 13.9575 8.96L13.5425 9.35C13.4275 9.18 13.2525 9.09 13.0325 9.09C12.6475 9.09 12.3775 9.37 12.3775 9.79C12.3775 10.21 12.6475 10.495 13.0325 10.495C13.2525 10.495 13.4275 10.395 13.5425 10.235L13.9575 10.62C13.7975 10.845 13.4975 11.06 13.0025 11.06ZM15.4926 11.06C14.6976 11.06 14.2176 10.48 14.2176 9.79C14.2176 9.105 14.6976 8.525 15.4926 8.525C16.2926 8.525 16.7726 9.105 16.7726 9.79C16.7726 10.48 16.2926 11.06 15.4926 11.06ZM15.4926 10.495C15.8876 10.495 16.1126 10.17 16.1126 9.79C16.1126 9.415 15.8876 9.09 15.4926 9.09C15.0976 9.09 14.8776 9.415 14.8776 9.79C14.8776 10.17 15.0976 10.495 15.4926 10.495ZM20.8787 11H20.2387V9.475C20.2387 9.25 20.1387 9.09 19.8787 9.09C19.6537 9.09 19.4687 9.24 19.3787 9.37V11H18.7387V9.475C18.7387 9.25 18.6387 9.09 18.3787 9.09C18.1587 9.09 17.9737 9.24 17.8787 9.375V11H17.2437V8.585H17.8787V8.9C17.9787 8.755 18.2987 8.525 18.6687 8.525C19.0237 8.525 19.2487 8.69 19.3387 8.965C19.4787 8.745 19.7987 8.525 20.1687 8.525C20.6137 8.525 20.8787 8.76 20.8787 9.255V11ZM25.1365 11H24.4965V9.475C24.4965 9.25 24.3965 9.09 24.1365 9.09C23.9115 9.09 23.7265 9.24 23.6365 9.37V11H22.9965V9.475C22.9965 9.25 22.8965 9.09 22.6365 9.09C22.4165 9.09 22.2315 9.24 22.1365 9.375V11H21.5015V8.585H22.1365V8.9C22.2365 8.755 22.5565 8.525 22.9265 8.525C23.2815 8.525 23.5065 8.69 23.5965 8.965C23.7365 8.745 24.0565 8.525 24.4265 8.525C24.8715 8.525 25.1365 8.76 25.1365 9.255V11ZM26.8793 11.06C26.0843 11.06 25.6043 10.48 25.6043 9.79C25.6043 9.105 26.0843 8.525 26.8793 8.525C27.6793 8.525 28.1593 9.105 28.1593 9.79C28.1593 10.48 27.6793 11.06 26.8793 11.06ZM26.8793 10.495C27.2743 10.495 27.4993 10.17 27.4993 9.79C27.4993 9.415 27.2743 9.09 26.8793 9.09C26.4843 9.09 26.2643 9.415 26.2643 9.79C26.2643 10.17 26.4843 10.495 26.8793 10.495ZM30.8954 11H30.2604V9.54C30.2604 9.205 30.0854 9.09 29.8154 9.09C29.5654 9.09 29.3704 9.23 29.2654 9.375V11H28.6304V8.585H29.2654V8.9C29.4204 8.715 29.7154 8.525 30.1104 8.525C30.6404 8.525 30.8954 8.825 30.8954 9.295V11Z" fill="white"/>
<path d="M48.7601 11H48.3081L46.9161 9.096V11H46.4481V8.332H46.9281L48.2921 10.184V8.332H48.7601V11ZM50.187 11.048C49.575 11.048 49.195 10.588 49.195 10.032C49.195 9.48 49.575 9.02 50.187 9.02C50.807 9.02 51.183 9.48 51.183 10.032C51.183 10.588 50.807 11.048 50.187 11.048ZM50.187 10.676C50.547 10.676 50.747 10.376 50.747 10.032C50.747 9.692 50.547 9.392 50.187 9.392C49.831 9.392 49.631 9.692 49.631 10.032C49.631 10.376 49.831 10.676 50.187 10.676ZM51.8044 11.044C51.6524 11.044 51.5244 10.916 51.5244 10.764C51.5244 10.612 51.6524 10.484 51.8044 10.484C51.9564 10.484 52.0844 10.612 52.0844 10.764C52.0844 10.916 51.9564 11.044 51.8044 11.044ZM54.5162 11.048C53.9682 11.048 53.4922 10.796 53.4922 10.316C53.4922 9.976 53.7682 9.732 54.0922 9.624C53.7922 9.528 53.5362 9.332 53.5362 8.992C53.5362 8.5 54.0402 8.292 54.5162 8.292C54.9842 8.292 55.4962 8.5 55.4962 8.992C55.4962 9.332 55.2362 9.528 54.9362 9.624C55.2602 9.732 55.5362 9.976 55.5362 10.316C55.5362 10.792 55.0602 11.048 54.5162 11.048ZM54.5162 9.44C54.6802 9.412 55.0202 9.316 55.0202 9.064C55.0202 8.84 54.8002 8.708 54.5162 8.708C54.2242 8.708 54.0082 8.84 54.0082 9.064C54.0082 9.316 54.3522 9.412 54.5162 9.44ZM54.5162 10.632C54.8122 10.632 55.0642 10.488 55.0642 10.256C55.0642 9.98 54.6802 9.856 54.5162 9.836C54.3482 9.856 53.9642 9.98 53.9642 10.256C53.9642 10.488 54.2122 10.632 54.5162 10.632ZM56.8071 11.048C56.3311 11.048 55.9791 10.856 55.7991 10.616L56.0511 10.308C56.2231 10.508 56.5071 10.632 56.7911 10.632C57.1431 10.632 57.3471 10.472 57.3471 10.224C57.3471 9.96 57.1351 9.848 56.7551 9.848C56.6431 9.848 56.4871 9.848 56.4471 9.852V9.432C56.4951 9.436 56.6511 9.436 56.7551 9.436C57.0671 9.436 57.3031 9.328 57.3031 9.084C57.3031 8.836 57.0631 8.708 56.7631 8.708C56.4911 8.708 56.2671 8.812 56.0751 9.004L55.8351 8.712C56.0391 8.472 56.3631 8.292 56.8071 8.292C57.3831 8.292 57.7711 8.564 57.7711 9.012C57.7711 9.368 57.4671 9.576 57.1911 9.624C57.4511 9.648 57.8111 9.86 57.8111 10.272C57.8111 10.724 57.4231 11.048 56.8071 11.048Z" fill="white"/>
</svg>
