<svg width="63" height="88" viewBox="0 0 63 88" fill="none" xmlns="http://www.w3.org/2000/svg">
<rect width="63" height="88" rx="4" fill="#047BFF"/>
<path d="M36.7008 13.5133L44.7992 3.48665C45.5586 2.54645 46.7024 2 47.911 2H58C59.6569 2 61 3.34314 61 5V83C61 84.6569 59.6569 86 58 86H5C3.34315 86 2 84.6569 2 83V18C2 16.3431 3.34315 15 5 15H33.589C34.7976 15 35.9414 14.4536 36.7008 13.5133Z" fill="#213743"/>
<rect x="5" y="18" width="53" height="40" rx="1" fill="#2F4553"/>
<path d="M43.995 22.9851C34.6723 13.6624 21.5199 11.6992 14.6246 18.5945C9.97292 23.2462 9.35399 30.7411 12.3036 37.9943C13.7252 41.4952 15.9785 44.9283 19.0152 47.965C20.4465 49.3963 21.9745 50.6631 23.5508 51.7269C24.3148 52.2588 25.0885 52.7424 25.8718 53.1776C26.8969 53.7481 27.9414 54.251 28.9858 54.6765C29.4791 54.8796 29.982 55.0634 30.4752 55.2278C30.7556 55.3245 31.0264 55.4115 31.3069 55.4986C37.8057 57.4521 44.2271 56.514 48.3856 52.3555C55.2809 45.4602 53.3178 32.3078 43.995 22.9851ZM34.4015 42.6653C32.4867 41.4855 30.5719 39.9865 28.7828 38.1974C26.9937 36.4083 25.4947 34.4934 24.3148 32.5786C20.843 26.9115 20.1757 21.1767 23.1253 18.2174C27.0807 14.2717 36.0166 16.8054 43.0957 23.8845C50.1747 30.9636 52.7085 39.9091 48.7628 43.8548C45.8035 46.8141 40.0687 46.1372 34.4015 42.6653Z" fill="#FFC201"/>
<path d="M48.7627 43.8548C47.7376 44.8702 46.3933 45.4601 44.8266 45.6535C44.3044 40.3829 41.5966 34.6964 36.9449 30.0448C33.6568 26.7567 29.8465 24.4453 26.0458 23.1881C24.4598 22.6562 22.8738 22.3081 21.3264 22.1533C21.5198 20.5866 22.1098 19.2424 23.1252 18.2173C25.5526 15.7899 29.8658 15.8189 34.4788 17.8401H34.4885C37.3704 19.107 40.378 21.1572 43.0955 23.8844C50.1746 30.9635 52.7084 39.8994 48.7627 43.8548Z" fill="#FF7F00"/>
<path d="M26.0845 23.1881H26.0458C24.4598 22.6562 22.8738 22.3081 21.3264 22.1533C21.5198 20.5866 22.1098 19.2424 23.1252 18.2173C25.5526 15.7899 29.8658 15.8189 34.4788 17.8401C30.5428 17.3759 25.8524 19.7743 26.0845 23.1881Z" fill="#1A2C38"/>
<path d="M17.8676 21.0753C19.2536 19.9102 19.937 18.4421 19.394 17.7961C18.851 17.1501 17.2872 17.5709 15.9012 18.7359C14.5152 19.901 13.8318 21.3691 14.3748 22.0151C14.9178 22.6611 16.4816 22.2403 17.8676 21.0753Z" fill="white"/>
<path d="M30.4751 55.2277C29.9819 55.0633 29.479 54.8795 28.9858 54.6764C27.9414 54.2509 26.8969 53.748 25.8718 53.1774C25.0884 52.7422 24.3148 52.2587 23.5508 51.7268L33.4731 42.9553C34.9721 46.2144 33.7439 52.0363 30.4751 55.2277Z" fill="#1A2C38"/>
<path d="M32.6802 47.5975C32.2547 48.2938 31.7421 48.9417 31.1425 49.5316C28.2413 52.4426 24.0828 53.3516 20.3982 52.2588C18.7251 51.7656 17.1488 50.8566 15.8239 49.5316C13.0387 46.7561 12.0909 42.8394 12.9516 39.2805C13.4158 37.4237 14.3732 35.6636 15.8239 34.213C18.6381 31.3988 22.6128 30.451 26.2104 31.3891C28.0188 31.8533 29.7209 32.7914 31.1425 34.213C34.7788 37.8396 35.2913 43.41 32.6802 47.5975Z" fill="#FFC201"/>
<path d="M31.0555 41.5435C30.2915 40.7795 29.2858 41.2437 29.4115 42.3269C29.6823 44.6092 29.0343 46.9979 27.2839 48.758C26.1717 49.8702 24.8081 50.5568 23.3769 50.8373C21.9456 51.1177 19.5569 51.3498 20.3692 52.2395C20.3692 52.2492 20.3886 52.2589 20.3982 52.2685C24.0828 53.3613 28.2413 52.4523 31.1426 49.5414C31.7422 48.9514 32.2547 48.3035 32.6802 47.6169C33.3088 45.5279 32.8736 43.3713 31.0555 41.5532V41.5435Z" fill="#FF7F00"/>
<path d="M13.5996 39.6867C14.412 40.0252 15.3307 39.6577 15.8529 38.942C16.0754 38.6326 16.3268 38.3424 16.6072 38.062C18.377 36.2922 20.8044 35.5959 23.0964 35.9441C23.638 36.0311 24.1892 35.8474 24.6051 35.4992C26.4232 33.9519 27.3999 32.3562 26.2104 31.3891C22.6129 30.451 18.6381 31.3988 15.8239 34.213C14.3733 35.6636 13.4159 37.4237 12.9517 39.2805C13.1257 39.4546 13.3385 39.59 13.5899 39.6964L13.5996 39.6867Z" fill="#FFEBB8"/>
<path d="M21.9455 50.9628C26.1169 50.9628 29.4985 47.5813 29.4985 43.4099C29.4985 39.2385 26.1169 35.8569 21.9455 35.8569C17.7741 35.8569 14.3926 39.2385 14.3926 43.4099C14.3926 47.5813 17.7741 50.9628 21.9455 50.9628Z" fill="#FFC201"/>
<path d="M21.6167 50.5954C25.3608 50.5954 28.396 47.5602 28.396 43.8161C28.396 40.0721 25.3608 37.0369 21.6167 37.0369C17.8726 37.0369 14.8374 40.0721 14.8374 43.8161C14.8374 47.5602 17.8726 50.5954 21.6167 50.5954Z" fill="#FFC201"/>
<path d="M21.0269 48.2358C24.082 48.2358 26.5586 45.7592 26.5586 42.7041C26.5586 39.649 24.082 37.1724 21.0269 37.1724C17.9718 37.1724 15.4951 39.649 15.4951 42.7041C15.4951 45.7592 17.9718 48.2358 21.0269 48.2358Z" fill="white"/>
<path d="M21.5491 49.3479C24.6042 49.3479 27.0808 46.8713 27.0808 43.8162C27.0808 40.7611 24.6042 38.2844 21.5491 38.2844C18.494 38.2844 16.0173 40.7611 16.0173 43.8162C16.0173 46.8713 18.494 49.3479 21.5491 49.3479Z" fill="#E9627D"/>
<path d="M20.0036 41.4427C20.6218 41.0219 20.9231 40.3873 20.6767 40.0253C20.4303 39.6632 19.7294 39.7108 19.1112 40.1315C18.4931 40.5522 18.1917 41.1868 18.4381 41.5489C18.6846 41.9109 19.3854 41.8634 20.0036 41.4427Z" fill="white"/>
<path d="M18.9863 46.4466C19.3248 45.3828 21.0462 45.9728 22.5548 44.7736C24.0635 43.5744 24.0055 41.4275 25.1079 41.8143C25.8236 42.0657 26.2975 44.8413 24.2762 46.8335C21.9649 49.1061 18.6671 47.4717 18.996 46.4466H18.9863Z" fill="#E9113C"/>
<path fill-rule="evenodd" clip-rule="evenodd" d="M6.49771 79C6.98969 79 7.48602 79.213 7.49037 79.6913C7.49037 80.1043 7.24656 80.2696 6.99839 80.2696C6.75023 80.2696 6.73281 80.1435 6.73281 80.1435C6.73281 80.1435 7.02452 79.9261 7.02452 79.7174C7.02452 79.6087 6.94179 79.313 6.489 79.3174C5.8577 79.3174 5.5181 79.6174 5.5181 80.1522C5.5181 80.7652 7.35105 80.9739 7.3554 81.7652C7.3554 82.613 6.47594 82.9957 5.69225 83C5.283 83 5.01306 82.7609 5.00871 82.3783C5.00871 81.9261 5.22204 81.4652 5.75756 81.4652C5.88382 81.4565 5.98831 81.5522 5.99702 81.6783C5.99702 81.6783 5.99702 81.6826 5.99702 81.687C5.99702 81.687 5.45715 81.8391 5.4615 82.3783C5.4615 82.4783 5.56599 82.6609 5.81851 82.6565C6.07103 82.6522 6.82424 82.4739 6.81989 81.8087C6.81989 81.1913 5.00435 81.1087 5 80.1478C5 79.0652 6.08845 79.0087 6.49771 79.0087V79ZM10.747 79.6C10.8123 79.5696 11.2129 79.4913 11.1955 79.813C11.1824 80.1348 10.9386 80.6913 10.9037 80.9348C11.2303 80.7696 11.6918 80.2087 11.6918 80.2087C11.6918 80.2087 12.0183 80.2522 11.9182 80.4522C11.818 80.6522 11.1519 81.1435 11.1519 81.1435C11.1519 81.1435 11.3043 82.5696 12.1707 82.5696C12.6453 82.5696 12.8499 82.3609 12.937 82.287C12.9587 82.2696 12.9762 82.2652 12.9849 82.2783C13.0197 82.387 12.9936 82.5043 12.9152 82.5913C12.8194 82.6957 12.5974 82.8217 12.1533 82.8261C11.3653 82.8261 10.9255 82.1957 10.8123 81.2609C10.7252 81.5348 10.7339 81.9826 10.7209 82.2C10.6948 82.2435 10.2507 82.4174 10.2158 82.1174C10.2158 82.0913 10.2158 82.0696 10.2158 82.0435C10.1331 82.1609 10.0199 82.2826 9.91108 82.2826C9.71951 82.2826 9.63679 82.1217 9.60196 82.0391C9.57584 82.0696 9.3625 82.287 9.08821 82.287C8.92277 82.2913 8.77474 82.1957 8.70943 82.0435C8.57011 82.1435 8.32195 82.2913 8.03895 82.2913C7.73418 82.2913 7.66017 82.1087 7.66017 81.9565C7.66017 81.713 7.84303 80.987 7.84303 80.987C7.84303 80.987 7.48602 81.1304 7.36411 81.1348C7.19431 81.1348 7.11159 80.8217 7.11159 80.813C7.11159 80.8087 7.11159 80.8 7.1203 80.8C7.22044 80.7609 7.94317 80.513 7.94317 80.513C7.94317 80.513 8.07813 79.9826 8.09555 79.913C8.11296 79.8435 8.2131 79.7 8.33065 79.6565C8.41773 79.6217 8.50916 79.6 8.60059 79.5913C8.63107 79.5913 8.65284 79.6 8.65284 79.6174C8.65284 79.6348 8.47433 80.4087 8.47433 80.4087C8.47433 80.4087 8.84876 80.3217 8.98808 80.3217C9.09692 80.3217 9.15352 80.387 9.09257 80.4696C9.03162 80.5522 8.96196 80.6478 8.92712 80.6913C8.88794 80.7348 8.86182 80.7435 8.77039 80.7609C8.64413 80.787 8.36113 80.8565 8.36113 80.8565C8.36113 80.8565 8.13473 81.6783 8.13909 81.8174C8.13909 81.8957 8.16521 81.987 8.26099 81.987C8.35678 81.987 8.53964 81.8739 8.67025 81.7913C8.69202 81.1522 9.18835 80.7261 9.57584 80.7261C9.7021 80.7261 9.65421 80.8478 9.79788 80.8478H9.88931C9.94591 80.8478 10.0069 80.8522 10.0069 80.9957C10.0069 81.1957 9.89367 81.5261 9.89367 81.7348C9.89367 81.8826 9.91544 81.987 9.97204 81.987C10.0678 81.987 10.1767 81.8478 10.255 81.7261C10.3813 81.0304 10.734 79.7609 10.734 79.6174L10.747 79.6ZM12.5016 80.7C12.7672 80.6783 12.9326 80.8217 12.9631 80.9C12.9936 80.9783 12.9892 81.1609 12.9152 81.2913C12.6845 81.7044 12.1097 81.6304 12.1097 81.6304C12.1097 81.6304 12.0444 81.9565 12.3405 81.9565C12.593 81.9565 12.7062 81.8304 12.8151 81.7261C12.8586 81.7261 12.9936 81.8652 12.9326 81.9609C12.8847 82.0348 12.6191 82.2565 12.2795 82.2609C11.7397 82.2609 11.6047 81.8 11.6744 81.4696C11.7658 81.0609 12.1751 80.7217 12.5016 80.6957V80.7ZM9.6455 80.987C9.32332 80.987 8.82699 81.9696 9.20577 81.9652C9.61938 81.9652 9.6455 81.1826 9.6455 81.0043V80.987ZM12.6409 80.8913C12.4232 80.9 12.1751 81.3174 12.1533 81.5C12.4798 81.513 12.654 81.1957 12.6757 81.0696C12.6888 80.9739 12.6932 80.887 12.6409 80.887V80.8913Z" fill="#557086"/>
<path d="M40.851 79.0672L39.2521 80.8632C39.1826 80.9428 39.1826 81.0572 39.2521 81.1368L40.846 82.9328C40.9255 83.0224 41.0695 83.0224 41.1539 82.9328L42.7478 81.1368C42.8173 81.0572 42.8173 80.9428 42.7478 80.8632L41.1539 79.0672C41.0744 78.9776 40.9304 78.9776 40.846 79.0672H40.851Z" fill="white"/>
<path d="M41.6604 79.6343L42.142 80.1766L40.568 82.6144L39.704 81.6393L41.6604 79.6343Z" fill="#8EA3B2"/>
<path d="M45.851 79.0672L44.2521 80.8632C44.1826 80.9428 44.1826 81.0572 44.2521 81.1368L45.846 82.9328C45.9255 83.0224 46.0695 83.0224 46.1539 82.9328L47.7478 81.1368C47.8173 81.0572 47.8173 80.9428 47.7478 80.8632L46.1539 79.0672C46.0744 78.9776 45.9304 78.9776 45.846 79.0672H45.851Z" fill="white"/>
<path d="M46.6604 79.6343L47.142 80.1766L45.568 82.6144L44.704 81.6393L46.6604 79.6343Z" fill="#8EA3B2"/>
<path d="M50.851 79.0672L49.2521 80.8632C49.1826 80.9428 49.1826 81.0572 49.2521 81.1368L50.846 82.9328C50.9255 83.0224 51.0695 83.0224 51.1539 82.9328L52.7478 81.1368C52.8173 81.0572 52.8173 80.9428 52.7478 80.8632L51.1539 79.0672C51.0744 78.9776 50.9304 78.9776 50.846 79.0672H50.851Z" fill="white"/>
<path d="M51.6604 79.6343L52.142 80.1766L50.568 82.6144L49.704 81.6393L51.6604 79.6343Z" fill="#8EA3B2"/>
<path d="M55.851 79.0672L54.2521 80.8632C54.1826 80.9428 54.1826 81.0572 54.2521 81.1368L55.846 82.9328C55.9255 83.0224 56.0695 83.0224 56.1539 82.9328L57.7478 81.1368C57.8173 81.0572 57.8173 80.9428 57.7478 80.8632L56.1539 79.0672C56.0744 78.9776 55.9304 78.9776 55.846 79.0672H55.851Z" fill="white"/>
<path d="M56.6604 79.6343L57.142 80.1766L55.568 82.6144L54.704 81.6393L56.6604 79.6343Z" fill="#8EA3B2"/>
<rect x="13" y="62" width="37" height="13" rx="6.5" fill="#2F4553"/>
<path d="M27.3456 70.072C26.1756 70.072 25.6296 69.058 25.6296 68.002C25.6296 66.946 26.1756 65.938 27.3456 65.938C28.5156 65.938 29.0616 66.946 29.0616 68.002C29.0616 69.058 28.5156 70.072 27.3456 70.072ZM27.3456 69.16C27.8256 69.16 28.0176 68.71 28.0176 68.002C28.0176 67.294 27.8256 66.85 27.3456 66.85C26.8656 66.85 26.6736 67.294 26.6736 68.002C26.6736 68.71 26.8656 69.16 27.3456 69.16ZM29.9339 70.072C29.6279 70.072 29.3699 69.814 29.3699 69.508C29.3699 69.202 29.6279 68.944 29.9339 68.944C30.2399 68.944 30.4979 69.202 30.4979 69.508C30.4979 69.814 30.2399 70.072 29.9339 70.072ZM32.6011 70.072C31.7371 70.072 30.9031 69.73 30.9031 68.944C30.9031 68.488 31.2511 68.116 31.7131 67.936C31.2871 67.774 30.9691 67.486 30.9691 67.006C30.9691 66.232 31.8151 65.938 32.6011 65.938C33.3811 65.938 34.2331 66.232 34.2331 67.006C34.2331 67.486 33.9091 67.774 33.4831 67.936C33.9451 68.116 34.2931 68.488 34.2931 68.944C34.2931 69.724 33.4651 70.072 32.6011 70.072ZM32.6011 67.534C32.8471 67.498 33.1771 67.372 33.1771 67.156C33.1771 66.934 32.9431 66.796 32.6011 66.796C32.2471 66.796 32.0191 66.934 32.0191 67.156C32.0191 67.372 32.3551 67.498 32.6011 67.534ZM32.6011 69.214C32.9731 69.214 33.2491 69.058 33.2491 68.824C33.2491 68.578 32.8531 68.434 32.6011 68.404C32.3431 68.434 31.9531 68.578 31.9531 68.824C31.9531 69.058 32.2171 69.214 32.6011 69.214ZM37.5641 70H36.5501L35.9921 69.124L35.4281 70H34.4201L35.4101 68.512L34.4801 67.102H35.4941L35.9921 67.888L36.4841 67.102H37.4981L36.5741 68.512L37.5641 70Z" fill="white"/>
<path d="M6.835 11.06C5.82 11.06 5.33 10.49 5.33 9.67V7.665H6.05V9.645C6.05 10.11 6.32 10.43 6.835 10.43C7.35 10.43 7.615 10.11 7.615 9.645V7.665H8.34V9.665C8.34 10.495 7.85 11.06 6.835 11.06ZM11.247 11H10.612V9.54C10.612 9.205 10.437 9.09 10.167 9.09C9.91699 9.09 9.72199 9.23 9.61699 9.375V11H8.98199V8.585H9.61699V8.9C9.77199 8.715 10.067 8.525 10.462 8.525C10.992 8.525 11.247 8.825 11.247 9.295V11ZM13.0025 11.06C12.2575 11.06 11.7225 10.535 11.7225 9.79C11.7225 9.05 12.2575 8.525 13.0025 8.525C13.4975 8.525 13.7975 8.74 13.9575 8.96L13.5425 9.35C13.4275 9.18 13.2525 9.09 13.0325 9.09C12.6475 9.09 12.3775 9.37 12.3775 9.79C12.3775 10.21 12.6475 10.495 13.0325 10.495C13.2525 10.495 13.4275 10.395 13.5425 10.235L13.9575 10.62C13.7975 10.845 13.4975 11.06 13.0025 11.06ZM15.4926 11.06C14.6976 11.06 14.2176 10.48 14.2176 9.79C14.2176 9.105 14.6976 8.525 15.4926 8.525C16.2926 8.525 16.7726 9.105 16.7726 9.79C16.7726 10.48 16.2926 11.06 15.4926 11.06ZM15.4926 10.495C15.8876 10.495 16.1126 10.17 16.1126 9.79C16.1126 9.415 15.8876 9.09 15.4926 9.09C15.0976 9.09 14.8776 9.415 14.8776 9.79C14.8776 10.17 15.0976 10.495 15.4926 10.495ZM20.8787 11H20.2387V9.475C20.2387 9.25 20.1387 9.09 19.8787 9.09C19.6537 9.09 19.4687 9.24 19.3787 9.37V11H18.7387V9.475C18.7387 9.25 18.6387 9.09 18.3787 9.09C18.1587 9.09 17.9737 9.24 17.8787 9.375V11H17.2437V8.585H17.8787V8.9C17.9787 8.755 18.2987 8.525 18.6687 8.525C19.0237 8.525 19.2487 8.69 19.3387 8.965C19.4787 8.745 19.7987 8.525 20.1687 8.525C20.6137 8.525 20.8787 8.76 20.8787 9.255V11ZM25.1365 11H24.4965V9.475C24.4965 9.25 24.3965 9.09 24.1365 9.09C23.9115 9.09 23.7265 9.24 23.6365 9.37V11H22.9965V9.475C22.9965 9.25 22.8965 9.09 22.6365 9.09C22.4165 9.09 22.2315 9.24 22.1365 9.375V11H21.5015V8.585H22.1365V8.9C22.2365 8.755 22.5565 8.525 22.9265 8.525C23.2815 8.525 23.5065 8.69 23.5965 8.965C23.7365 8.745 24.0565 8.525 24.4265 8.525C24.8715 8.525 25.1365 8.76 25.1365 9.255V11ZM26.8793 11.06C26.0843 11.06 25.6043 10.48 25.6043 9.79C25.6043 9.105 26.0843 8.525 26.8793 8.525C27.6793 8.525 28.1593 9.105 28.1593 9.79C28.1593 10.48 27.6793 11.06 26.8793 11.06ZM26.8793 10.495C27.2743 10.495 27.4993 10.17 27.4993 9.79C27.4993 9.415 27.2743 9.09 26.8793 9.09C26.4843 9.09 26.2643 9.415 26.2643 9.79C26.2643 10.17 26.4843 10.495 26.8793 10.495ZM30.8954 11H30.2604V9.54C30.2604 9.205 30.0854 9.09 29.8154 9.09C29.5654 9.09 29.3704 9.23 29.2654 9.375V11H28.6304V8.585H29.2654V8.9C29.4204 8.715 29.7154 8.525 30.1104 8.525C30.6404 8.525 30.8954 8.825 30.8954 9.295V11Z" fill="white"/>
<path d="M48.7366 11H48.2846L46.8926 9.096V11H46.4246V8.332H46.9046L48.2686 10.184V8.332H48.7366V11ZM50.1635 11.048C49.5515 11.048 49.1715 10.588 49.1715 10.032C49.1715 9.48 49.5515 9.02 50.1635 9.02C50.7835 9.02 51.1595 9.48 51.1595 10.032C51.1595 10.588 50.7835 11.048 50.1635 11.048ZM50.1635 10.676C50.5235 10.676 50.7235 10.376 50.7235 10.032C50.7235 9.692 50.5235 9.392 50.1635 9.392C49.8075 9.392 49.6075 9.692 49.6075 10.032C49.6075 10.376 49.8075 10.676 50.1635 10.676ZM51.781 11.044C51.629 11.044 51.501 10.916 51.501 10.764C51.501 10.612 51.629 10.484 51.781 10.484C51.933 10.484 52.061 10.612 52.061 10.764C52.061 10.916 51.933 11.044 51.781 11.044ZM54.4928 11.048C53.9448 11.048 53.4688 10.796 53.4688 10.316C53.4688 9.976 53.7448 9.732 54.0688 9.624C53.7688 9.528 53.5128 9.332 53.5128 8.992C53.5128 8.5 54.0168 8.292 54.4928 8.292C54.9608 8.292 55.4728 8.5 55.4728 8.992C55.4728 9.332 55.2128 9.528 54.9128 9.624C55.2368 9.732 55.5128 9.976 55.5128 10.316C55.5128 10.792 55.0368 11.048 54.4928 11.048ZM54.4928 9.44C54.6568 9.412 54.9968 9.316 54.9968 9.064C54.9968 8.84 54.7768 8.708 54.4928 8.708C54.2008 8.708 53.9848 8.84 53.9848 9.064C53.9848 9.316 54.3288 9.412 54.4928 9.44ZM54.4928 10.632C54.7888 10.632 55.0408 10.488 55.0408 10.256C55.0408 9.98 54.6568 9.856 54.4928 9.836C54.3248 9.856 53.9408 9.98 53.9408 10.256C53.9408 10.488 54.1888 10.632 54.4928 10.632ZM57.5317 11H57.0637V10.396H55.7917V10.02L56.8877 8.332H57.5317V9.984H57.8877V10.396H57.5317V11ZM57.0637 9.984V8.752L56.2517 9.984H57.0637Z" fill="white"/>
</svg>
