<svg width="63" height="88" viewBox="0 0 63 88" fill="none" xmlns="http://www.w3.org/2000/svg">
<rect width="63" height="88" rx="4" fill="#047BFF"/>
<path d="M36.7008 13.5133L44.7992 3.48665C45.5586 2.54645 46.7024 2 47.911 2H58C59.6569 2 61 3.34314 61 5V83C61 84.6569 59.6569 86 58 86H5C3.34315 86 2 84.6569 2 83V18C2 16.3431 3.34315 15 5 15H33.589C34.7976 15 35.9414 14.4536 36.7008 13.5133Z" fill="#213743"/>
<rect x="5" y="18" width="53" height="40" rx="1" fill="#2F4553"/>
<path d="M45.6428 45.8141L43.0534 44.9473C43.9202 43.104 44.5237 42.4346 39.8714 38.9454C38.6864 38.0457 37.3916 37.3983 36.1189 36.9046C32.4102 35.4782 28.8661 35.4672 28.8113 35.4672L37.7537 26.9856C37.9732 27.9292 38.2036 28.7851 38.4669 29.586C40.5078 35.961 43.4703 37.9909 45.182 40.1743C47.1022 42.6322 45.6428 45.8141 45.6428 45.8141Z" fill="#047BFF"/>
<path d="M36.1188 36.9047C32.4101 35.4783 28.7673 35.5551 28.8112 35.4673L37.7975 26.8979C38.017 27.8416 38.2035 28.7852 38.4668 29.5862C38.6205 31.2869 39.3446 36.8279 36.1188 36.9047Z" fill="#1A2C38"/>
<path d="M40.409 24.3303C39.1472 27.7757 37.5562 28.445 37.5562 28.445C37.5562 28.445 37.7976 30.0798 35.7019 32.3072C35.6141 32.406 35.5153 32.5157 35.4056 32.6145C32.9807 35.0064 31.291 34.8089 31.291 34.8089C31.291 34.8089 30.5997 36.6852 27.0776 38.1006C24.8173 39.0113 23.5116 38.748 22.8752 38.4408H22.8642C22.6009 38.3091 22.4473 38.1774 22.3924 38.1226C22.3924 38.1226 22.3851 38.1153 22.3705 38.1006C22.3705 38.1006 20.4503 39.4612 18.1351 38.726C17.5646 38.5505 17.2025 38.2542 16.983 37.9031L16.9172 37.7605C16.3796 36.6962 17.005 35.2698 17.005 35.2698C17.005 35.2698 14.9532 35.0064 14.8105 32.0878C14.6789 29.1691 17.2683 28.1816 17.2683 28.1816C17.2683 28.1816 16.6319 26.1079 18.2888 23.255C19.9456 20.4132 22.3705 20.1499 22.3705 20.1499C22.3705 20.1499 22.5021 17.8347 25.1574 15.9804C27.8127 14.1151 29.7987 14.7844 29.7987 14.7844C29.7987 14.7844 30.1608 13.9066 31.0276 13.1386C31.697 12.546 32.6845 12.0303 34.045 12.0633C37.1612 12.1291 37.1612 13.9176 37.1612 13.9176C37.1612 13.9176 38.7522 12.6667 40.0798 13.9176C41.4075 15.1794 40.5407 19.294 40.5407 19.294C40.5407 19.294 41.6708 20.885 40.409 24.3303Z" fill="#45A7FF"/>
<path d="M40.409 24.3303C39.1472 27.7756 37.5562 28.4449 37.5562 28.4449C37.5562 28.4449 37.7976 30.0798 35.7018 32.3072C30.468 34.1835 27.4506 13.4677 34.045 12.0632C37.1612 12.1291 37.1612 13.9176 37.1612 13.9176C37.1612 13.9176 38.7522 12.6667 40.0798 13.9176C41.4075 15.1794 40.5407 19.294 40.5407 19.294C40.5407 19.294 41.6708 20.885 40.409 24.3303Z" fill="white"/>
<path d="M29.5684 46.8566L18.3437 51.7283C17.3233 52.1672 17.3013 53.835 18.3108 54.3178L29.4038 59.5516C30.8412 60.2318 32.4542 60.2318 33.8915 59.5516L44.9846 54.3178C45.994 53.8459 45.9721 52.1781 44.9516 51.7283L33.7269 46.8566C32.3883 46.275 30.9071 46.275 29.5575 46.8566H29.5684Z" fill="#047BFF"/>
<path d="M18.8484 46.7139V51.4429C18.8484 51.8928 19.1117 52.3098 19.5287 52.4853L29.3379 56.8194C30.8082 57.4668 32.487 57.4668 33.9573 56.8194L43.7666 52.4853C44.1835 52.2988 44.4468 51.8928 44.4468 51.4429V46.7139H18.8374H18.8484Z" fill="#45A7FF"/>
<path d="M44.9953 46.5056L33.9023 51.0043C32.4649 51.5858 30.852 51.5858 29.4146 51.0043L19.9784 47.1749C19.9784 47.1749 19.9564 47.164 19.9455 47.164L18.3216 46.5056C17.6083 46.2094 17.4108 45.3974 17.7181 44.8269C17.8388 44.5964 18.0582 44.388 18.3435 44.2782L29.5682 40.0978C30.9178 39.5931 32.3991 39.5931 33.7377 40.0978L44.9624 44.2782C45.9828 44.6623 46.0048 46.0887 44.9953 46.5056Z" fill="#047BFF"/>
<path d="M31.6532 49.5997C37.5131 49.5997 42.2635 47.5561 42.2635 45.0352C42.2635 42.5143 37.5131 40.4707 31.6532 40.4707C25.7933 40.4707 21.043 42.5143 21.043 45.0352C21.043 47.5561 25.7933 49.5997 31.6532 49.5997Z" fill="#1A2C38"/>
<path d="M31.6531 46.6591C34.7315 46.6591 37.227 45.6668 37.227 44.4427C37.227 43.2186 34.7315 42.2263 31.6531 42.2263C28.5746 42.2263 26.0791 43.2186 26.0791 44.4427C26.0791 45.6668 28.5746 46.6591 31.6531 46.6591Z" fill="#FF7F00"/>
<path d="M31.6531 45.0352C32.6954 45.0352 33.5404 44.6962 33.5404 44.2781C33.5404 43.86 32.6954 43.521 31.6531 43.521C30.6108 43.521 29.7659 43.86 29.7659 44.2781C29.7659 44.6962 30.6108 45.0352 31.6531 45.0352Z" fill="white"/>
<path d="M31.1993 28.2712C35.36 24.1105 37.1559 19.1606 35.2105 17.2152C33.2651 15.2698 28.3152 17.0657 24.1545 21.2264C19.9938 25.3871 18.1979 30.337 20.1433 32.2824C22.0886 34.2278 27.0386 32.4319 31.1993 28.2712Z" fill="#FFC201"/>
<path d="M23.1496 29.4984C23.1496 29.4984 21.9866 25.8556 22.0524 23.6501C19.441 27.1613 18.5522 30.7054 20.1322 32.2854C20.7138 32.8669 21.5806 33.1083 22.612 33.0534L23.1496 29.4984Z" fill="white"/>
<path d="M31.1921 28.2584C34.4509 24.9996 36.2504 21.258 35.9541 18.8551C33.8365 17.3519 29.3049 19.0526 25.4975 22.86C21.9205 26.437 20.1979 30.7052 21.2512 32.9545C23.6103 33.6348 27.681 31.7695 31.1921 28.2584Z" fill="#45A7FF"/>
<path d="M34.484 24.0122C34.4292 23.7159 34.3194 23.4526 34.1329 23.2551C33.1125 22.2347 30.5011 23.1783 28.3066 25.3728C26.1121 27.5672 25.1685 30.1677 26.1889 31.1991C26.3864 31.3966 26.6498 31.4953 26.946 31.5502C28.3505 30.7382 29.8098 29.63 31.1923 28.2585C32.5748 26.8869 33.6721 25.4276 34.484 24.0122Z" fill="#1A2C38"/>
<path d="M22.3705 38.1006C22.3705 38.1006 20.4503 39.4612 18.1352 38.726C17.5646 38.5505 17.2025 38.2542 16.9831 37.9031L16.9172 37.7605C18.1352 38.726 21.0538 36.2134 21.0538 36.2134C21.0538 36.2134 21.4378 37.168 22.3705 38.1006Z" fill="#047BFF"/>
<path d="M31.291 34.809C31.291 34.809 30.5998 36.6853 27.0777 38.1007C24.8173 39.0114 23.5116 38.7481 22.8752 38.4409C27.0008 38.4518 29.0198 34.1836 29.0198 34.1836C29.0198 34.1836 29.7768 34.7322 31.291 34.809Z" fill="#047BFF"/>
<path d="M37.0844 51.8709C34.2426 53.7362 32.3992 56.5231 33.9683 56.8304L43.2838 52.7157C43.7227 50.6529 40.5517 49.5886 37.0844 51.8709Z" fill="white"/>
<path fill-rule="evenodd" clip-rule="evenodd" d="M6.49771 79C6.98969 79 7.48602 79.213 7.49037 79.6913C7.49037 80.1043 7.24656 80.2696 6.99839 80.2696C6.75023 80.2696 6.73281 80.1435 6.73281 80.1435C6.73281 80.1435 7.02452 79.9261 7.02452 79.7174C7.02452 79.6087 6.94179 79.313 6.489 79.3174C5.8577 79.3174 5.5181 79.6174 5.5181 80.1522C5.5181 80.7652 7.35105 80.9739 7.3554 81.7652C7.3554 82.613 6.47594 82.9957 5.69225 83C5.283 83 5.01306 82.7609 5.00871 82.3783C5.00871 81.9261 5.22204 81.4652 5.75756 81.4652C5.88382 81.4565 5.98831 81.5522 5.99702 81.6783C5.99702 81.6783 5.99702 81.6826 5.99702 81.687C5.99702 81.687 5.45715 81.8391 5.4615 82.3783C5.4615 82.4783 5.56599 82.6609 5.81851 82.6565C6.07103 82.6522 6.82424 82.4739 6.81989 81.8087C6.81989 81.1913 5.00435 81.1087 5 80.1478C5 79.0652 6.08845 79.0087 6.49771 79.0087V79ZM10.747 79.6C10.8123 79.5696 11.2129 79.4913 11.1955 79.813C11.1824 80.1348 10.9386 80.6913 10.9037 80.9348C11.2303 80.7696 11.6918 80.2087 11.6918 80.2087C11.6918 80.2087 12.0183 80.2522 11.9182 80.4522C11.818 80.6522 11.1519 81.1435 11.1519 81.1435C11.1519 81.1435 11.3043 82.5696 12.1707 82.5696C12.6453 82.5696 12.8499 82.3609 12.937 82.287C12.9587 82.2696 12.9762 82.2652 12.9849 82.2783C13.0197 82.387 12.9936 82.5043 12.9152 82.5913C12.8194 82.6957 12.5974 82.8217 12.1533 82.8261C11.3653 82.8261 10.9255 82.1957 10.8123 81.2609C10.7252 81.5348 10.7339 81.9826 10.7209 82.2C10.6948 82.2435 10.2507 82.4174 10.2158 82.1174C10.2158 82.0913 10.2158 82.0696 10.2158 82.0435C10.1331 82.1609 10.0199 82.2826 9.91108 82.2826C9.71951 82.2826 9.63679 82.1217 9.60196 82.0391C9.57584 82.0696 9.3625 82.287 9.08821 82.287C8.92277 82.2913 8.77474 82.1957 8.70943 82.0435C8.57011 82.1435 8.32195 82.2913 8.03895 82.2913C7.73418 82.2913 7.66017 82.1087 7.66017 81.9565C7.66017 81.713 7.84303 80.987 7.84303 80.987C7.84303 80.987 7.48602 81.1304 7.36411 81.1348C7.19431 81.1348 7.11159 80.8217 7.11159 80.813C7.11159 80.8087 7.11159 80.8 7.1203 80.8C7.22044 80.7609 7.94317 80.513 7.94317 80.513C7.94317 80.513 8.07813 79.9826 8.09555 79.913C8.11296 79.8435 8.2131 79.7 8.33065 79.6565C8.41773 79.6217 8.50916 79.6 8.60059 79.5913C8.63107 79.5913 8.65284 79.6 8.65284 79.6174C8.65284 79.6348 8.47433 80.4087 8.47433 80.4087C8.47433 80.4087 8.84876 80.3217 8.98808 80.3217C9.09692 80.3217 9.15352 80.387 9.09257 80.4696C9.03162 80.5522 8.96196 80.6478 8.92712 80.6913C8.88794 80.7348 8.86182 80.7435 8.77039 80.7609C8.64413 80.787 8.36113 80.8565 8.36113 80.8565C8.36113 80.8565 8.13473 81.6783 8.13909 81.8174C8.13909 81.8957 8.16521 81.987 8.26099 81.987C8.35678 81.987 8.53964 81.8739 8.67025 81.7913C8.69202 81.1522 9.18835 80.7261 9.57584 80.7261C9.7021 80.7261 9.65421 80.8478 9.79788 80.8478H9.88931C9.94591 80.8478 10.0069 80.8522 10.0069 80.9957C10.0069 81.1957 9.89367 81.5261 9.89367 81.7348C9.89367 81.8826 9.91544 81.987 9.97204 81.987C10.0678 81.987 10.1767 81.8478 10.255 81.7261C10.3813 81.0304 10.734 79.7609 10.734 79.6174L10.747 79.6ZM12.5016 80.7C12.7672 80.6783 12.9326 80.8217 12.9631 80.9C12.9936 80.9783 12.9892 81.1609 12.9152 81.2913C12.6845 81.7044 12.1097 81.6304 12.1097 81.6304C12.1097 81.6304 12.0444 81.9565 12.3405 81.9565C12.593 81.9565 12.7062 81.8304 12.8151 81.7261C12.8586 81.7261 12.9936 81.8652 12.9326 81.9609C12.8847 82.0348 12.6191 82.2565 12.2795 82.2609C11.7397 82.2609 11.6047 81.8 11.6744 81.4696C11.7658 81.0609 12.1751 80.7217 12.5016 80.6957V80.7ZM9.6455 80.987C9.32332 80.987 8.82699 81.9696 9.20577 81.9652C9.61938 81.9652 9.6455 81.1826 9.6455 81.0043V80.987ZM12.6409 80.8913C12.4232 80.9 12.1751 81.3174 12.1533 81.5C12.4798 81.513 12.654 81.1957 12.6757 81.0696C12.6888 80.9739 12.6932 80.887 12.6409 80.887V80.8913Z" fill="#557086"/>
<path d="M40.851 79.0672L39.2521 80.8632C39.1826 80.9428 39.1826 81.0572 39.2521 81.1368L40.846 82.9328C40.9255 83.0224 41.0695 83.0224 41.1539 82.9328L42.7478 81.1368C42.8173 81.0572 42.8173 80.9428 42.7478 80.8632L41.1539 79.0672C41.0744 78.9776 40.9304 78.9776 40.846 79.0672H40.851Z" fill="white"/>
<path d="M41.6604 79.6343L42.142 80.1766L40.568 82.6144L39.704 81.6393L41.6604 79.6343Z" fill="#8EA3B2"/>
<path d="M45.851 79.0672L44.2521 80.8632C44.1826 80.9428 44.1826 81.0572 44.2521 81.1368L45.846 82.9328C45.9255 83.0224 46.0695 83.0224 46.1539 82.9328L47.7478 81.1368C47.8173 81.0572 47.8173 80.9428 47.7478 80.8632L46.1539 79.0672C46.0744 78.9776 45.9304 78.9776 45.846 79.0672H45.851Z" fill="white"/>
<path d="M46.6604 79.6343L47.142 80.1766L45.568 82.6144L44.704 81.6393L46.6604 79.6343Z" fill="#8EA3B2"/>
<path d="M50.851 79.0672L49.2521 80.8632C49.1826 80.9428 49.1826 81.0572 49.2521 81.1368L50.846 82.9328C50.9255 83.0224 51.0695 83.0224 51.1539 82.9328L52.7478 81.1368C52.8173 81.0572 52.8173 80.9428 52.7478 80.8632L51.1539 79.0672C51.0744 78.9776 50.9304 78.9776 50.846 79.0672H50.851Z" fill="white"/>
<path d="M51.6604 79.6343L52.142 80.1766L50.568 82.6144L49.704 81.6393L51.6604 79.6343Z" fill="#8EA3B2"/>
<path d="M55.851 79.0672L54.2521 80.8632C54.1826 80.9428 54.1826 81.0572 54.2521 81.1368L55.846 82.9328C55.9255 83.0224 56.0695 83.0224 56.1539 82.9328L57.7478 81.1368C57.8173 81.0572 57.8173 80.9428 57.7478 80.8632L56.1539 79.0672C56.0744 78.9776 55.9304 78.9776 55.846 79.0672H55.851Z" fill="white"/>
<path d="M56.6604 79.6343L57.142 80.1766L55.568 82.6144L54.704 81.6393L56.6604 79.6343Z" fill="#8EA3B2"/>
<rect x="13" y="62" width="37" height="13" rx="6.5" fill="#2F4553"/>
<path d="M27.3456 70.072C26.1756 70.072 25.6296 69.058 25.6296 68.002C25.6296 66.946 26.1756 65.938 27.3456 65.938C28.5156 65.938 29.0616 66.946 29.0616 68.002C29.0616 69.058 28.5156 70.072 27.3456 70.072ZM27.3456 69.16C27.8256 69.16 28.0176 68.71 28.0176 68.002C28.0176 67.294 27.8256 66.85 27.3456 66.85C26.8656 66.85 26.6736 67.294 26.6736 68.002C26.6736 68.71 26.8656 69.16 27.3456 69.16ZM29.9339 70.072C29.6279 70.072 29.3699 69.814 29.3699 69.508C29.3699 69.202 29.6279 68.944 29.9339 68.944C30.2399 68.944 30.4979 69.202 30.4979 69.508C30.4979 69.814 30.2399 70.072 29.9339 70.072ZM32.6011 70.072C31.7371 70.072 30.9031 69.73 30.9031 68.944C30.9031 68.488 31.2511 68.116 31.7131 67.936C31.2871 67.774 30.9691 67.486 30.9691 67.006C30.9691 66.232 31.8151 65.938 32.6011 65.938C33.3811 65.938 34.2331 66.232 34.2331 67.006C34.2331 67.486 33.9091 67.774 33.4831 67.936C33.9451 68.116 34.2931 68.488 34.2931 68.944C34.2931 69.724 33.4651 70.072 32.6011 70.072ZM32.6011 67.534C32.8471 67.498 33.1771 67.372 33.1771 67.156C33.1771 66.934 32.9431 66.796 32.6011 66.796C32.2471 66.796 32.0191 66.934 32.0191 67.156C32.0191 67.372 32.3551 67.498 32.6011 67.534ZM32.6011 69.214C32.9731 69.214 33.2491 69.058 33.2491 68.824C33.2491 68.578 32.8531 68.434 32.6011 68.404C32.3431 68.434 31.9531 68.578 31.9531 68.824C31.9531 69.058 32.2171 69.214 32.6011 69.214ZM37.5641 70H36.5501L35.9921 69.124L35.4281 70H34.4201L35.4101 68.512L34.4801 67.102H35.4941L35.9921 67.888L36.4841 67.102H37.4981L36.5741 68.512L37.5641 70Z" fill="white"/>
<path d="M6.835 11.06C5.82 11.06 5.33 10.49 5.33 9.67V7.665H6.05V9.645C6.05 10.11 6.32 10.43 6.835 10.43C7.35 10.43 7.615 10.11 7.615 9.645V7.665H8.34V9.665C8.34 10.495 7.85 11.06 6.835 11.06ZM11.247 11H10.612V9.54C10.612 9.205 10.437 9.09 10.167 9.09C9.91699 9.09 9.72199 9.23 9.61699 9.375V11H8.98199V8.585H9.61699V8.9C9.77199 8.715 10.067 8.525 10.462 8.525C10.992 8.525 11.247 8.825 11.247 9.295V11ZM13.0025 11.06C12.2575 11.06 11.7225 10.535 11.7225 9.79C11.7225 9.05 12.2575 8.525 13.0025 8.525C13.4975 8.525 13.7975 8.74 13.9575 8.96L13.5425 9.35C13.4275 9.18 13.2525 9.09 13.0325 9.09C12.6475 9.09 12.3775 9.37 12.3775 9.79C12.3775 10.21 12.6475 10.495 13.0325 10.495C13.2525 10.495 13.4275 10.395 13.5425 10.235L13.9575 10.62C13.7975 10.845 13.4975 11.06 13.0025 11.06ZM15.4926 11.06C14.6976 11.06 14.2176 10.48 14.2176 9.79C14.2176 9.105 14.6976 8.525 15.4926 8.525C16.2926 8.525 16.7726 9.105 16.7726 9.79C16.7726 10.48 16.2926 11.06 15.4926 11.06ZM15.4926 10.495C15.8876 10.495 16.1126 10.17 16.1126 9.79C16.1126 9.415 15.8876 9.09 15.4926 9.09C15.0976 9.09 14.8776 9.415 14.8776 9.79C14.8776 10.17 15.0976 10.495 15.4926 10.495ZM20.8787 11H20.2387V9.475C20.2387 9.25 20.1387 9.09 19.8787 9.09C19.6537 9.09 19.4687 9.24 19.3787 9.37V11H18.7387V9.475C18.7387 9.25 18.6387 9.09 18.3787 9.09C18.1587 9.09 17.9737 9.24 17.8787 9.375V11H17.2437V8.585H17.8787V8.9C17.9787 8.755 18.2987 8.525 18.6687 8.525C19.0237 8.525 19.2487 8.69 19.3387 8.965C19.4787 8.745 19.7987 8.525 20.1687 8.525C20.6137 8.525 20.8787 8.76 20.8787 9.255V11ZM25.1365 11H24.4965V9.475C24.4965 9.25 24.3965 9.09 24.1365 9.09C23.9115 9.09 23.7265 9.24 23.6365 9.37V11H22.9965V9.475C22.9965 9.25 22.8965 9.09 22.6365 9.09C22.4165 9.09 22.2315 9.24 22.1365 9.375V11H21.5015V8.585H22.1365V8.9C22.2365 8.755 22.5565 8.525 22.9265 8.525C23.2815 8.525 23.5065 8.69 23.5965 8.965C23.7365 8.745 24.0565 8.525 24.4265 8.525C24.8715 8.525 25.1365 8.76 25.1365 9.255V11ZM26.8793 11.06C26.0843 11.06 25.6043 10.48 25.6043 9.79C25.6043 9.105 26.0843 8.525 26.8793 8.525C27.6793 8.525 28.1593 9.105 28.1593 9.79C28.1593 10.48 27.6793 11.06 26.8793 11.06ZM26.8793 10.495C27.2743 10.495 27.4993 10.17 27.4993 9.79C27.4993 9.415 27.2743 9.09 26.8793 9.09C26.4843 9.09 26.2643 9.415 26.2643 9.79C26.2643 10.17 26.4843 10.495 26.8793 10.495ZM30.8954 11H30.2604V9.54C30.2604 9.205 30.0854 9.09 29.8154 9.09C29.5654 9.09 29.3704 9.23 29.2654 9.375V11H28.6304V8.585H29.2654V8.9C29.4204 8.715 29.7154 8.525 30.1104 8.525C30.6404 8.525 30.8954 8.825 30.8954 9.295V11Z" fill="white"/>
<path d="M48.6585 11H48.2065L46.8145 9.096V11H46.3465V8.332H46.8265L48.1905 10.184V8.332H48.6585V11ZM50.0854 11.048C49.4734 11.048 49.0934 10.588 49.0934 10.032C49.0934 9.48 49.4734 9.02 50.0854 9.02C50.7054 9.02 51.0814 9.48 51.0814 10.032C51.0814 10.588 50.7054 11.048 50.0854 11.048ZM50.0854 10.676C50.4454 10.676 50.6454 10.376 50.6454 10.032C50.6454 9.692 50.4454 9.392 50.0854 9.392C49.7294 9.392 49.5294 9.692 49.5294 10.032C49.5294 10.376 49.7294 10.676 50.0854 10.676ZM51.7028 11.044C51.5508 11.044 51.4228 10.916 51.4228 10.764C51.4228 10.612 51.5508 10.484 51.7028 10.484C51.8548 10.484 51.9828 10.612 51.9828 10.764C51.9828 10.916 51.8548 11.044 51.7028 11.044ZM54.4147 11.048C53.8667 11.048 53.3907 10.796 53.3907 10.316C53.3907 9.976 53.6667 9.732 53.9907 9.624C53.6907 9.528 53.4347 9.332 53.4347 8.992C53.4347 8.5 53.9387 8.292 54.4147 8.292C54.8827 8.292 55.3947 8.5 55.3947 8.992C55.3947 9.332 55.1347 9.528 54.8347 9.624C55.1587 9.732 55.4347 9.976 55.4347 10.316C55.4347 10.792 54.9587 11.048 54.4147 11.048ZM54.4147 9.44C54.5787 9.412 54.9187 9.316 54.9187 9.064C54.9187 8.84 54.6987 8.708 54.4147 8.708C54.1227 8.708 53.9067 8.84 53.9067 9.064C53.9067 9.316 54.2507 9.412 54.4147 9.44ZM54.4147 10.632C54.7107 10.632 54.9627 10.488 54.9627 10.256C54.9627 9.98 54.5787 9.856 54.4147 9.836C54.2467 9.856 53.8627 9.98 53.8627 10.256C53.8627 10.488 54.1107 10.632 54.4147 10.632ZM56.8176 11.048C56.3576 11.048 56.0416 10.892 55.8256 10.636L56.0936 10.316C56.2736 10.52 56.5136 10.632 56.8136 10.632C57.1496 10.632 57.3616 10.424 57.3616 10.164C57.3616 9.876 57.1536 9.688 56.8256 9.688C56.5976 9.688 56.4096 9.76 56.2416 9.92L55.9096 9.824V8.332H57.6576V8.744H56.3776V9.516C56.5056 9.388 56.7256 9.284 56.9816 9.284C57.4296 9.284 57.8336 9.6 57.8336 10.144C57.8336 10.7 57.4136 11.048 56.8176 11.048Z" fill="white"/>
</svg>
