<svg width="63" height="88" viewBox="0 0 63 88" fill="none" xmlns="http://www.w3.org/2000/svg">
<rect width="63" height="88" rx="4" fill="#047BFF"/>
<path d="M36.7008 13.5133L44.7992 3.48665C45.5586 2.54645 46.7024 2 47.911 2H58C59.6569 2 61 3.34314 61 5V83C61 84.6569 59.6569 86 58 86H5C3.34315 86 2 84.6569 2 83V18C2 16.3431 3.34315 15 5 15H33.589C34.7976 15 35.9414 14.4536 36.7008 13.5133Z" fill="#213743"/>
<rect x="5" y="18" width="53" height="40" rx="1" fill="#2F4553"/>
<g clip-path="url(#clip0_26835_29250)">
<g clip-path="url(#clip1_26835_29250)">
<path d="M39.5382 49.3689C42.3207 48.8351 44.4051 47.5098 44.1938 46.4087C43.9826 45.3076 41.5557 44.8478 38.7732 45.3816C35.9908 45.9154 33.9063 47.2407 34.1176 48.3418C34.3288 49.4428 36.7557 49.9027 39.5382 49.3689Z" fill="#FFEBB8"/>
<path d="M43.7597 50.2721C43.8104 49.1521 41.557 48.1404 38.7267 48.0124C35.8964 47.8844 33.5609 48.6885 33.5102 49.8085C33.4595 50.9285 35.7129 51.9402 38.5432 52.0682C41.3735 52.1963 43.709 51.3921 43.7597 50.2721Z" fill="#FFEBB8"/>
<path d="M24.5276 52.0528C27.3579 51.9248 29.6113 50.913 29.5606 49.793C29.51 48.6731 27.1744 47.8689 24.3441 47.9969C21.5138 48.125 19.2604 49.1367 19.3111 50.2567C19.3618 51.3767 21.6973 52.1808 24.5276 52.0528Z" fill="#FFC201"/>
<path d="M29.5501 49.8C29.5001 48.68 27.1701 47.87 24.3401 48C23.0201 48.06 21.8301 48.31 20.9301 48.68C21.5701 49.53 23.2501 50.36 25.3101 50.76C26.6401 51.02 27.8901 51.04 28.8501 50.88C29.3101 50.55 29.5601 50.18 29.5501 49.8Z" fill="#FF7F00"/>
<path d="M28.9682 48.342C29.1795 47.241 27.0951 45.9157 24.3126 45.3818C21.5301 44.848 19.1032 45.3079 18.892 46.4089C18.6808 47.51 20.7652 48.8353 23.5476 49.3691C26.3301 49.9029 28.757 49.4431 28.9682 48.342Z" fill="#FFEBB8"/>
<path d="M34.6901 47.5699V57.3399C34.6901 57.5699 34.6701 57.7899 34.6201 57.9999H28.3801C28.3301 57.7899 28.3101 57.5699 28.3101 57.3399V47.5699C28.3101 45.8199 29.7501 44.3799 31.5001 44.3799C32.3801 44.3799 33.1701 44.7399 33.7501 45.3199C34.3301 45.8999 34.6901 46.6999 34.6901 47.5699Z" fill="#008C00"/>
<path d="M28.3101 47.5701V50.2601C28.3101 50.2601 31.9501 51.4801 34.6901 48.7401V47.5801H28.3101V47.5701Z" fill="#1A2C38"/>
<path d="M31.5 13.47C21.91 13.47 14.14 21.24 14.14 30.83C14.14 40.42 21.91 48.19 31.5 48.19C41.09 48.19 48.86 40.42 48.86 30.83C48.86 21.24 41.09 13.47 31.5 13.47ZM31.5 43.6C24.45 43.6 18.73 37.88 18.73 30.83C18.73 23.78 24.45 18.06 31.5 18.06C38.55 18.06 44.27 23.78 44.27 30.83C44.27 37.88 38.55 43.6 31.5 43.6Z" fill="#1CE61C"/>
<path d="M24.48 41.4899C19.14 37.9699 17.3 31.1399 19.89 25.5099C20.36 24.4799 20.02 23.2599 19.07 22.6399C17.89 21.8599 16.31 22.3299 15.72 23.6099C12.21 31.2699 14.71 40.5499 21.96 45.3199C29.21 50.0999 38.72 48.7299 44.37 42.4799C45.32 41.4299 45.12 39.7899 43.94 39.0199C42.99 38.3999 41.74 38.5599 40.98 39.3999C36.83 43.9999 29.82 45.0099 24.48 41.4899Z" fill="#06C906"/>
<path d="M33.22 19.71L35.96 24.69L41.54 25.76C43.06 26.05 43.66 27.9 42.6 29.02L38.71 33.17L39.42 38.81C39.61 40.34 38.04 41.48 36.64 40.83L31.49 38.41L26.34 40.83C24.94 41.49 23.37 40.34 23.56 38.81L24.27 33.17L20.38 29.02C19.32 27.89 19.92 26.05 21.44 25.76L27.02 24.69L29.76 19.71C30.5 18.36 32.45 18.36 33.19 19.71H33.22Z" fill="#FFC201"/>
<path d="M42.87 18.65C44.83 20.49 45.91 22.52 45.28 23.2C44.65 23.88 42.97 22.48 41 20.64C39.04 18.8 37.54 17.21 38.17 16.54C38.8 15.87 40.9 16.81 42.87 18.65Z" fill="white"/>
<path d="M31.5 21.4599V29.5199C31.5 30.1699 32.13 30.6299 32.75 30.4299L39.97 28.1099C40.36 27.9899 40.32 27.4299 39.92 27.3499L35.37 26.5199C34.94 26.4399 34.58 26.1699 34.38 25.7799L32.12 21.3199C31.96 21.0099 31.5 21.1199 31.5 21.4699V21.4599Z" fill="white"/>
<path d="M31.5 33.1199V37.1199C31.5 37.3399 31.63 37.5399 31.83 37.6399L37.04 40.1399C37.29 40.2599 37.53 39.9599 37.37 39.7399L32.16 32.8999C31.95 32.6199 31.51 32.7699 31.51 33.1199H31.5Z" fill="#FF7F00"/>
</g>
</g>
<path fill-rule="evenodd" clip-rule="evenodd" d="M6.49771 79C6.98969 79 7.48602 79.213 7.49037 79.6913C7.49037 80.1043 7.24656 80.2696 6.99839 80.2696C6.75023 80.2696 6.73281 80.1435 6.73281 80.1435C6.73281 80.1435 7.02452 79.9261 7.02452 79.7174C7.02452 79.6087 6.94179 79.313 6.489 79.3174C5.8577 79.3174 5.5181 79.6174 5.5181 80.1522C5.5181 80.7652 7.35105 80.9739 7.3554 81.7652C7.3554 82.613 6.47594 82.9957 5.69225 83C5.283 83 5.01306 82.7609 5.00871 82.3783C5.00871 81.9261 5.22204 81.4652 5.75756 81.4652C5.88382 81.4565 5.98831 81.5522 5.99702 81.6783C5.99702 81.6783 5.99702 81.6826 5.99702 81.687C5.99702 81.687 5.45715 81.8391 5.4615 82.3783C5.4615 82.4783 5.56599 82.6609 5.81851 82.6565C6.07103 82.6522 6.82424 82.4739 6.81989 81.8087C6.81989 81.1913 5.00435 81.1087 5 80.1478C5 79.0652 6.08845 79.0087 6.49771 79.0087V79ZM10.747 79.6C10.8123 79.5696 11.2129 79.4913 11.1955 79.813C11.1824 80.1348 10.9386 80.6913 10.9037 80.9348C11.2303 80.7696 11.6918 80.2087 11.6918 80.2087C11.6918 80.2087 12.0183 80.2522 11.9182 80.4522C11.818 80.6522 11.1519 81.1435 11.1519 81.1435C11.1519 81.1435 11.3043 82.5696 12.1707 82.5696C12.6453 82.5696 12.8499 82.3609 12.937 82.287C12.9587 82.2696 12.9762 82.2652 12.9849 82.2783C13.0197 82.387 12.9936 82.5043 12.9152 82.5913C12.8194 82.6957 12.5974 82.8217 12.1533 82.8261C11.3653 82.8261 10.9255 82.1957 10.8123 81.2609C10.7252 81.5348 10.7339 81.9826 10.7209 82.2C10.6948 82.2435 10.2507 82.4174 10.2158 82.1174C10.2158 82.0913 10.2158 82.0696 10.2158 82.0435C10.1331 82.1609 10.0199 82.2826 9.91108 82.2826C9.71951 82.2826 9.63679 82.1217 9.60196 82.0391C9.57584 82.0696 9.3625 82.287 9.08821 82.287C8.92277 82.2913 8.77474 82.1957 8.70943 82.0435C8.57011 82.1435 8.32195 82.2913 8.03895 82.2913C7.73418 82.2913 7.66017 82.1087 7.66017 81.9565C7.66017 81.713 7.84303 80.987 7.84303 80.987C7.84303 80.987 7.48602 81.1304 7.36411 81.1348C7.19431 81.1348 7.11159 80.8217 7.11159 80.813C7.11159 80.8087 7.11159 80.8 7.1203 80.8C7.22044 80.7609 7.94317 80.513 7.94317 80.513C7.94317 80.513 8.07813 79.9826 8.09555 79.913C8.11296 79.8435 8.2131 79.7 8.33065 79.6565C8.41773 79.6217 8.50916 79.6 8.60059 79.5913C8.63107 79.5913 8.65284 79.6 8.65284 79.6174C8.65284 79.6348 8.47433 80.4087 8.47433 80.4087C8.47433 80.4087 8.84876 80.3217 8.98808 80.3217C9.09692 80.3217 9.15352 80.387 9.09257 80.4696C9.03162 80.5522 8.96196 80.6478 8.92712 80.6913C8.88794 80.7348 8.86182 80.7435 8.77039 80.7609C8.64413 80.787 8.36113 80.8565 8.36113 80.8565C8.36113 80.8565 8.13473 81.6783 8.13909 81.8174C8.13909 81.8957 8.16521 81.987 8.26099 81.987C8.35678 81.987 8.53964 81.8739 8.67025 81.7913C8.69202 81.1522 9.18835 80.7261 9.57584 80.7261C9.7021 80.7261 9.65421 80.8478 9.79788 80.8478H9.88931C9.94591 80.8478 10.0069 80.8522 10.0069 80.9957C10.0069 81.1957 9.89367 81.5261 9.89367 81.7348C9.89367 81.8826 9.91544 81.987 9.97204 81.987C10.0678 81.987 10.1767 81.8478 10.255 81.7261C10.3813 81.0304 10.734 79.7609 10.734 79.6174L10.747 79.6ZM12.5016 80.7C12.7672 80.6783 12.9326 80.8217 12.9631 80.9C12.9936 80.9783 12.9892 81.1609 12.9152 81.2913C12.6845 81.7044 12.1097 81.6304 12.1097 81.6304C12.1097 81.6304 12.0444 81.9565 12.3405 81.9565C12.593 81.9565 12.7062 81.8304 12.8151 81.7261C12.8586 81.7261 12.9936 81.8652 12.9326 81.9609C12.8847 82.0348 12.6191 82.2565 12.2795 82.2609C11.7397 82.2609 11.6047 81.8 11.6744 81.4696C11.7658 81.0609 12.1751 80.7217 12.5016 80.6957V80.7ZM9.6455 80.987C9.32332 80.987 8.82699 81.9696 9.20577 81.9652C9.61938 81.9652 9.6455 81.1826 9.6455 81.0043V80.987ZM12.6409 80.8913C12.4232 80.9 12.1751 81.3174 12.1533 81.5C12.4798 81.513 12.654 81.1957 12.6757 81.0696C12.6888 80.9739 12.6932 80.887 12.6409 80.887V80.8913Z" fill="#557086"/>
<path d="M40.851 79.0672L39.2521 80.8632C39.1826 80.9428 39.1826 81.0572 39.2521 81.1368L40.846 82.9328C40.9255 83.0224 41.0695 83.0224 41.1539 82.9328L42.7478 81.1368C42.8173 81.0572 42.8173 80.9428 42.7478 80.8632L41.1539 79.0672C41.0744 78.9776 40.9304 78.9776 40.846 79.0672H40.851Z" fill="white"/>
<path d="M41.6604 79.6343L42.142 80.1766L40.568 82.6144L39.704 81.6393L41.6604 79.6343Z" fill="#8EA3B2"/>
<path d="M45.851 79.0672L44.2521 80.8632C44.1826 80.9428 44.1826 81.0572 44.2521 81.1368L45.846 82.9328C45.9255 83.0224 46.0695 83.0224 46.1539 82.9328L47.7478 81.1368C47.8173 81.0572 47.8173 80.9428 47.7478 80.8632L46.1539 79.0672C46.0744 78.9776 45.9304 78.9776 45.846 79.0672H45.851Z" fill="white"/>
<path d="M46.6604 79.6343L47.142 80.1766L45.568 82.6144L44.704 81.6393L46.6604 79.6343Z" fill="#8EA3B2"/>
<path d="M50.851 79.0672L49.2521 80.8632C49.1826 80.9428 49.1826 81.0572 49.2521 81.1368L50.846 82.9328C50.9255 83.0224 51.0695 83.0224 51.1539 82.9328L52.7478 81.1368C52.8173 81.0572 52.8173 80.9428 52.7478 80.8632L51.1539 79.0672C51.0744 78.9776 50.9304 78.9776 50.846 79.0672H50.851Z" fill="white"/>
<path d="M51.6604 79.6343L52.142 80.1766L50.568 82.6144L49.704 81.6393L51.6604 79.6343Z" fill="#8EA3B2"/>
<path d="M55.851 79.0672L54.2521 80.8632C54.1826 80.9428 54.1826 81.0572 54.2521 81.1368L55.846 82.9328C55.9255 83.0224 56.0695 83.0224 56.1539 82.9328L57.7478 81.1368C57.8173 81.0572 57.8173 80.9428 57.7478 80.8632L56.1539 79.0672C56.0744 78.9776 55.9304 78.9776 55.846 79.0672H55.851Z" fill="white"/>
<path d="M56.6604 79.6343L57.142 80.1766L55.568 82.6144L54.704 81.6393L56.6604 79.6343Z" fill="#8EA3B2"/>
<rect x="13" y="62" width="37" height="13" rx="6.5" fill="#2F4553"/>
<path d="M27.3456 70.072C26.1756 70.072 25.6296 69.058 25.6296 68.002C25.6296 66.946 26.1756 65.938 27.3456 65.938C28.5156 65.938 29.0616 66.946 29.0616 68.002C29.0616 69.058 28.5156 70.072 27.3456 70.072ZM27.3456 69.16C27.8256 69.16 28.0176 68.71 28.0176 68.002C28.0176 67.294 27.8256 66.85 27.3456 66.85C26.8656 66.85 26.6736 67.294 26.6736 68.002C26.6736 68.71 26.8656 69.16 27.3456 69.16ZM29.9339 70.072C29.6279 70.072 29.3699 69.814 29.3699 69.508C29.3699 69.202 29.6279 68.944 29.9339 68.944C30.2399 68.944 30.4979 69.202 30.4979 69.508C30.4979 69.814 30.2399 70.072 29.9339 70.072ZM32.6011 70.072C31.7371 70.072 30.9031 69.73 30.9031 68.944C30.9031 68.488 31.2511 68.116 31.7131 67.936C31.2871 67.774 30.9691 67.486 30.9691 67.006C30.9691 66.232 31.8151 65.938 32.6011 65.938C33.3811 65.938 34.2331 66.232 34.2331 67.006C34.2331 67.486 33.9091 67.774 33.4831 67.936C33.9451 68.116 34.2931 68.488 34.2931 68.944C34.2931 69.724 33.4651 70.072 32.6011 70.072ZM32.6011 67.534C32.8471 67.498 33.1771 67.372 33.1771 67.156C33.1771 66.934 32.9431 66.796 32.6011 66.796C32.2471 66.796 32.0191 66.934 32.0191 67.156C32.0191 67.372 32.3551 67.498 32.6011 67.534ZM32.6011 69.214C32.9731 69.214 33.2491 69.058 33.2491 68.824C33.2491 68.578 32.8531 68.434 32.6011 68.404C32.3431 68.434 31.9531 68.578 31.9531 68.824C31.9531 69.058 32.2171 69.214 32.6011 69.214ZM37.5641 70H36.5501L35.9921 69.124L35.4281 70H34.4201L35.4101 68.512L34.4801 67.102H35.4941L35.9921 67.888L36.4841 67.102H37.4981L36.5741 68.512L37.5641 70Z" fill="white"/>
<path d="M6.835 11.06C5.82 11.06 5.33 10.49 5.33 9.67V7.665H6.05V9.645C6.05 10.11 6.32 10.43 6.835 10.43C7.35 10.43 7.615 10.11 7.615 9.645V7.665H8.34V9.665C8.34 10.495 7.85 11.06 6.835 11.06ZM11.247 11H10.612V9.54C10.612 9.205 10.437 9.09 10.167 9.09C9.91699 9.09 9.72199 9.23 9.61699 9.375V11H8.98199V8.585H9.61699V8.9C9.77199 8.715 10.067 8.525 10.462 8.525C10.992 8.525 11.247 8.825 11.247 9.295V11ZM13.0025 11.06C12.2575 11.06 11.7225 10.535 11.7225 9.79C11.7225 9.05 12.2575 8.525 13.0025 8.525C13.4975 8.525 13.7975 8.74 13.9575 8.96L13.5425 9.35C13.4275 9.18 13.2525 9.09 13.0325 9.09C12.6475 9.09 12.3775 9.37 12.3775 9.79C12.3775 10.21 12.6475 10.495 13.0325 10.495C13.2525 10.495 13.4275 10.395 13.5425 10.235L13.9575 10.62C13.7975 10.845 13.4975 11.06 13.0025 11.06ZM15.4926 11.06C14.6976 11.06 14.2176 10.48 14.2176 9.79C14.2176 9.105 14.6976 8.525 15.4926 8.525C16.2926 8.525 16.7726 9.105 16.7726 9.79C16.7726 10.48 16.2926 11.06 15.4926 11.06ZM15.4926 10.495C15.8876 10.495 16.1126 10.17 16.1126 9.79C16.1126 9.415 15.8876 9.09 15.4926 9.09C15.0976 9.09 14.8776 9.415 14.8776 9.79C14.8776 10.17 15.0976 10.495 15.4926 10.495ZM20.8787 11H20.2387V9.475C20.2387 9.25 20.1387 9.09 19.8787 9.09C19.6537 9.09 19.4687 9.24 19.3787 9.37V11H18.7387V9.475C18.7387 9.25 18.6387 9.09 18.3787 9.09C18.1587 9.09 17.9737 9.24 17.8787 9.375V11H17.2437V8.585H17.8787V8.9C17.9787 8.755 18.2987 8.525 18.6687 8.525C19.0237 8.525 19.2487 8.69 19.3387 8.965C19.4787 8.745 19.7987 8.525 20.1687 8.525C20.6137 8.525 20.8787 8.76 20.8787 9.255V11ZM25.1365 11H24.4965V9.475C24.4965 9.25 24.3965 9.09 24.1365 9.09C23.9115 9.09 23.7265 9.24 23.6365 9.37V11H22.9965V9.475C22.9965 9.25 22.8965 9.09 22.6365 9.09C22.4165 9.09 22.2315 9.24 22.1365 9.375V11H21.5015V8.585H22.1365V8.9C22.2365 8.755 22.5565 8.525 22.9265 8.525C23.2815 8.525 23.5065 8.69 23.5965 8.965C23.7365 8.745 24.0565 8.525 24.4265 8.525C24.8715 8.525 25.1365 8.76 25.1365 9.255V11ZM26.8793 11.06C26.0843 11.06 25.6043 10.48 25.6043 9.79C25.6043 9.105 26.0843 8.525 26.8793 8.525C27.6793 8.525 28.1593 9.105 28.1593 9.79C28.1593 10.48 27.6793 11.06 26.8793 11.06ZM26.8793 10.495C27.2743 10.495 27.4993 10.17 27.4993 9.79C27.4993 9.415 27.2743 9.09 26.8793 9.09C26.4843 9.09 26.2643 9.415 26.2643 9.79C26.2643 10.17 26.4843 10.495 26.8793 10.495ZM30.8954 11H30.2604V9.54C30.2604 9.205 30.0854 9.09 29.8154 9.09C29.5654 9.09 29.3704 9.23 29.2654 9.375V11H28.6304V8.585H29.2654V8.9C29.4204 8.715 29.7154 8.525 30.1104 8.525C30.6404 8.525 30.8954 8.825 30.8954 9.295V11Z" fill="white"/>
<path d="M48.928 11H48.476L47.084 9.096V11H46.616V8.332H47.096L48.46 10.184V8.332H48.928V11ZM50.3549 11.048C49.7429 11.048 49.3629 10.588 49.3629 10.032C49.3629 9.48 49.7429 9.02 50.3549 9.02C50.9749 9.02 51.3509 9.48 51.3509 10.032C51.3509 10.588 50.9749 11.048 50.3549 11.048ZM50.3549 10.676C50.7149 10.676 50.9149 10.376 50.9149 10.032C50.9149 9.692 50.7149 9.392 50.3549 9.392C49.9989 9.392 49.7989 9.692 49.7989 10.032C49.7989 10.376 49.9989 10.676 50.3549 10.676ZM51.9724 11.044C51.8204 11.044 51.6924 10.916 51.6924 10.764C51.6924 10.612 51.8204 10.484 51.9724 10.484C52.1244 10.484 52.2524 10.612 52.2524 10.764C52.2524 10.916 52.1244 11.044 51.9724 11.044ZM54.6842 11.048C54.1362 11.048 53.6602 10.796 53.6602 10.316C53.6602 9.976 53.9362 9.732 54.2602 9.624C53.9602 9.528 53.7042 9.332 53.7042 8.992C53.7042 8.5 54.2082 8.292 54.6842 8.292C55.1522 8.292 55.6642 8.5 55.6642 8.992C55.6642 9.332 55.4042 9.528 55.1042 9.624C55.4282 9.732 55.7042 9.976 55.7042 10.316C55.7042 10.792 55.2282 11.048 54.6842 11.048ZM54.6842 9.44C54.8482 9.412 55.1882 9.316 55.1882 9.064C55.1882 8.84 54.9682 8.708 54.6842 8.708C54.3922 8.708 54.1762 8.84 54.1762 9.064C54.1762 9.316 54.5202 9.412 54.6842 9.44ZM54.6842 10.632C54.9802 10.632 55.2322 10.488 55.2322 10.256C55.2322 9.98 54.8482 9.856 54.6842 9.836C54.5162 9.856 54.1322 9.98 54.1322 10.256C54.1322 10.488 54.3802 10.632 54.6842 10.632ZM56.8671 11H56.3551L57.3631 8.744H55.9791V8.332H57.9031V8.656L56.8671 11Z" fill="white"/>
<defs>
<clipPath id="clip0_26835_29250">
<rect width="63" height="88" fill="white"/>
</clipPath>
<clipPath id="clip1_26835_29250">
<rect width="63" height="87.87" fill="white"/>
</clipPath>
</defs>
</svg>
