<svg width="63" height="88" viewBox="0 0 63 88" fill="none" xmlns="http://www.w3.org/2000/svg">
<rect width="63" height="88" rx="4" fill="#047BFF"/>
<path d="M36.7008 13.5133L44.7992 3.48665C45.5586 2.54645 46.7024 2 47.911 2H58C59.6569 2 61 3.34314 61 5V83C61 84.6569 59.6569 86 58 86H5C3.34315 86 2 84.6569 2 83V18C2 16.3431 3.34315 15 5 15H33.589C34.7976 15 35.9414 14.4536 36.7008 13.5133Z" fill="#213743"/>
<rect x="5" y="18" width="53" height="40" rx="1" fill="#2F4553"/>
<g clip-path="url(#clip0_26835_29251)">
<path d="M46.9142 50.3244C46.9142 54.697 41.3481 58.311 34.053 58.958C33.2945 59.0361 32.5248 59.0695 31.7328 59.0695C30.8628 59.0695 30.0039 59.0249 29.1673 58.9357C21.9949 58.2553 16.5292 54.6746 16.5292 50.3578C16.5292 45.5391 23.3223 41.635 31.7105 41.6238C40.0988 41.6126 46.9031 45.5167 46.9142 50.3244Z" fill="#047BFF"/>
<path d="M46.9142 45.9185H16.5292V50.3468H46.9142V45.9185Z" fill="#047BFF"/>
<path d="M34.0976 53.3696L34.1199 54.5185L34.0642 58.958C33.3057 59.0361 32.536 59.0695 31.744 59.0695C30.874 59.0695 30.0151 59.0249 29.1785 58.9357L29.2565 54.5185L29.3235 53.3584H34.1088L34.0976 53.3696Z" fill="#45A7FF"/>
<path d="M46.9142 45.896C46.9142 47.0673 46.5127 48.1827 45.7876 49.1978H45.7765C43.5121 52.388 38.0798 54.6301 31.7217 54.6301C23.3335 54.6301 16.5292 50.7371 16.5292 45.9295C16.518 41.1107 23.3223 37.1955 31.7106 37.1843C36.8863 37.1843 41.4596 38.6679 44.2037 40.9323C45.9103 42.3377 46.9142 44.0444 46.9142 45.896Z" fill="#047BFF"/>
<path d="M45.9437 45.5948C45.9437 46.3087 45.7764 47.0003 45.4529 47.6473C44.1144 50.3913 40.1434 52.5553 35.135 53.2469C34.7892 53.2915 34.4434 53.3361 34.0976 53.3696C33.8745 53.3919 33.6402 53.403 33.406 53.4253C32.8594 53.4588 32.2905 53.4811 31.7328 53.4923C31.1751 53.5034 30.6062 53.47 30.0596 53.4365C29.8142 53.4142 29.5688 53.403 29.3234 53.3696C28.9888 53.3473 28.6653 53.3138 28.3307 53.2692C23.3223 52.5887 19.3401 50.4359 18.0015 47.6919C17.6781 47.0338 17.5107 46.3533 17.5107 45.6395C17.5107 44.6244 17.8565 43.6651 18.4923 42.7616C20.1878 40.3633 23.9581 38.5451 28.5649 37.954C28.7769 37.9316 28.9999 37.8982 29.2342 37.8759C29.7473 37.8201 30.2604 37.7866 30.7847 37.7755C31.097 37.7755 31.4093 37.7532 31.7217 37.7532C32.034 37.7532 32.3463 37.7532 32.6586 37.7643C33.1718 37.7755 33.6626 37.8201 34.1534 37.8647C34.3988 37.887 34.6442 37.9093 34.8784 37.9428C39.4964 38.5117 43.2666 40.341 44.9621 42.7281C45.6091 43.6205 45.9549 44.5909 45.9549 45.606L45.9437 45.5948Z" fill="#45A7FF"/>
<path d="M33.7407 47.3684L34.0976 53.3696C33.8746 53.3919 33.6403 53.403 33.4061 53.4253C32.8595 53.4588 32.2906 53.4811 31.7329 53.4923C31.1751 53.5034 30.6063 53.47 30.0597 53.4365C29.8143 53.4142 29.5689 53.403 29.3235 53.3696L29.6693 47.3796L29.7808 45.4387L29.6135 43.1074L29.2343 37.8759C29.7474 37.8201 30.2605 37.7866 30.7847 37.7755C31.0971 37.7755 31.4094 37.7532 31.7217 37.7532C32.034 37.7532 32.3464 37.7532 32.6587 37.7643C33.1718 37.7755 33.6626 37.8201 34.1534 37.8647L33.7853 43.0962L33.6292 45.4275L33.7407 47.3684Z" fill="#9ED1FF"/>
<path d="M45.308 43.2747C45.7318 44.0109 45.9549 44.7917 45.9549 45.5948C45.9549 46.1079 45.8545 46.621 45.6872 47.1007L31.6548 46.8441L17.7562 47.0672C17.5889 46.5987 17.4996 46.1079 17.4996 45.6171C17.4996 44.7917 17.745 43.9886 18.1689 43.2412L31.6771 43.5535L45.308 43.2747Z" fill="#9ED1FF"/>
<path d="M41.1585 45.5168C41.1585 47.9708 37.9906 50.0233 33.7407 50.5252C33.0937 50.6033 32.4133 50.6479 31.7217 50.6479C31.0301 50.6479 30.3497 50.6145 29.7027 50.5364C25.4529 50.0456 22.2738 47.9931 22.2738 45.5391C22.2738 43.2636 24.9955 41.345 28.7658 40.6757C29.6916 40.5084 30.6843 40.4192 31.7106 40.4192C32.7368 40.4192 33.7295 40.5084 34.6554 40.6757C38.4256 41.345 41.1585 43.2636 41.1585 45.528V45.5168Z" fill="#45A7FF"/>
<path d="M39.9761 45.4165C39.9761 47.324 37.7117 48.9414 34.5438 49.5549C34.2092 49.6218 33.8523 49.6776 33.4953 49.711C32.9264 49.778 32.3352 49.8114 31.7329 49.8114C31.1305 49.8114 30.5282 49.778 29.9705 49.711C29.6135 49.6664 29.2566 49.6218 28.9219 49.5549C25.7429 48.9414 23.4785 47.3351 23.4785 45.4277C23.4785 43.5203 25.8544 41.8359 29.1562 41.2559C29.5131 41.189 29.8812 41.1443 30.2605 41.1109C30.7401 41.0663 31.2309 41.0439 31.7329 41.0439C32.2349 41.0439 32.7257 41.0663 33.2053 41.1109C33.5846 41.1443 33.9527 41.2001 34.3096 41.2559C37.6114 41.8248 39.9984 43.4756 39.9984 45.4165H39.9761Z" fill="#9ED1FF"/>
<path d="M31.6436 42.985C36.6644 42.985 40.7346 41.8313 40.7346 40.4082C40.7346 38.9852 36.6644 37.8315 31.6436 37.8315C26.6228 37.8315 22.5526 38.9852 22.5526 40.4082C22.5526 41.8313 26.6228 42.985 31.6436 42.985Z" fill="#1A2C38"/>
<path d="M43.6236 37.8538C40.9911 41.6352 33.986 41.401 27.2933 37.5638C26.5905 37.1734 25.8989 36.7383 25.2185 36.2587C24.46 35.7344 23.7461 35.1767 23.0768 34.5967C17.2876 29.6775 14.7109 23.2859 17.3211 19.5492C20.2213 15.3774 28.4645 16.1024 35.7261 21.1554C42.9877 26.2084 46.5237 33.6932 43.6236 37.8538Z" fill="#FF7F00"/>
<path d="M46.2947 34.0112L19.9921 15.7031L17.322 19.5391L43.6247 37.8472L46.2947 34.0112Z" fill="#FF7F00"/>
<path d="M30.6955 32.7449L30.015 33.7488L27.2933 37.5525C26.5906 37.1621 25.899 36.7271 25.2186 36.2474C24.4601 35.7232 23.7462 35.1655 23.0769 34.5854L25.8098 30.804L26.5683 29.8447L30.7066 32.7449H30.6955Z" fill="#FFC201"/>
<path d="M46.2894 34.0166C43.3892 38.1884 35.146 37.4633 27.8844 32.4103C20.6228 27.3573 17.0868 19.8726 19.987 15.7008C22.5414 12.0309 29.2229 12.1536 35.7372 15.6784C36.6296 16.1469 37.5219 16.6935 38.392 17.307C41.4372 19.4264 43.8243 21.9696 45.3636 24.524C47.483 28.06 47.9738 31.596 46.2894 34.0166Z" fill="#FF7F00"/>
<path d="M46.5126 30.0791C46.535 31.2503 46.2449 32.2877 45.6314 33.1689C45.2076 33.7824 44.6387 34.2843 43.9694 34.6524C42.8986 35.2548 41.5377 35.5448 40.0207 35.5448C37.5444 35.5448 34.5996 34.7752 31.6659 33.2693C31.3424 33.0908 31.0189 32.9235 30.6955 32.745L30.0597 32.3769C29.5689 32.0646 29.0669 31.7523 28.5761 31.4176C28.0853 31.0718 27.6168 30.7149 27.1595 30.3468C26.9475 30.1795 26.7579 30.0233 26.5571 29.8448C26.2783 29.6217 26.0217 29.3875 25.7651 29.1532C21.8387 25.5503 19.6971 21.2893 20.1879 18.0991C20.3106 17.3406 20.5783 16.6378 21.0021 16.0243C21.6156 15.1431 22.508 14.5185 23.59 14.128C26.5013 13.0795 30.8628 13.7711 35.2019 16.0578C35.4138 16.1582 35.6146 16.2697 35.8377 16.3924C36.0273 16.4928 36.2281 16.6044 36.4178 16.7271C36.6966 16.8944 36.9643 17.0617 37.2432 17.2402C37.5109 17.4186 37.7898 17.5971 38.0575 17.7867C38.3363 17.9764 38.6041 18.1772 38.8606 18.3668C39.2956 18.6903 39.7084 19.0137 40.0988 19.3595C40.2995 19.5269 40.5003 19.6942 40.6788 19.8615C44.3263 23.1409 46.4903 26.9893 46.5126 30.0791Z" fill="#FFC201"/>
<path d="M34.0083 27.335L30.6954 32.745C30.4946 32.6223 30.2827 32.4996 30.0708 32.3769C29.5688 32.0757 29.078 31.7634 28.5872 31.4176C28.0964 31.0718 27.6279 30.7149 27.1706 30.3579C26.9698 30.1906 26.769 30.0344 26.5682 29.856L30.4835 24.881L31.744 23.2748L33.0044 21.1554L35.8377 16.4036C36.3062 16.6601 36.7747 16.9501 37.2432 17.2513C37.522 17.4298 37.7897 17.6083 38.0686 17.7979C38.3475 17.9875 38.604 18.1883 38.8717 18.3779C39.2956 18.7014 39.7083 19.0249 40.1099 19.3707L36.6408 23.6763L35.0903 25.5949L34.0195 27.335H34.0083Z" fill="#FFEBB8"/>
<path d="M46.4903 30.7817C46.4122 31.6741 46.1334 32.4772 45.6426 33.18C45.3302 33.6261 44.9398 34.0054 44.4936 34.3289L32.5136 25.6395L20.344 17.4409C20.4778 16.9278 20.7009 16.4593 21.0021 16.0354C21.5041 15.3215 22.1957 14.7749 23.0211 14.3845L34.5214 22.8062L46.4903 30.7817Z" fill="#FFEBB8"/>
<path d="M41.5489 30.213C40.0765 32.3323 36.0832 32.1985 32.1121 30.068C31.5098 29.7445 30.8963 29.3764 30.2939 28.9525C29.6916 28.5286 29.1339 28.0936 28.6207 27.6363C25.2409 24.6468 23.735 20.9547 25.2074 18.8353C26.5795 16.8721 30.0931 16.8498 33.763 18.5341C34.6665 18.9469 35.5812 19.4711 36.4624 20.0846C37.3436 20.6981 38.1579 21.3786 38.8606 22.0813C41.7162 24.9369 42.9209 28.2386 41.5489 30.2018V30.213Z" fill="#FFC201"/>
<path d="M40.5784 29.4098C39.9091 30.3803 38.6152 30.793 37.0312 30.6926C36.2839 30.6368 35.4696 30.4695 34.633 30.1907C34.2203 30.0568 33.8076 29.9006 33.3837 29.711C33.0491 29.566 32.7144 29.3987 32.3798 29.2202C31.8444 28.9302 31.309 28.6067 30.7847 28.2386C30.2604 27.8705 29.7696 27.4801 29.3123 27.0897C29.0334 26.8331 28.7546 26.5766 28.498 26.3089C26.1221 23.866 25.1405 21.0997 26.2782 19.46C27.2264 18.0991 29.4127 17.8425 31.9113 18.5787C32.5025 18.7572 33.1048 18.9803 33.7183 19.2703C33.7741 19.2926 33.8187 19.315 33.8745 19.3484C34.1645 19.4934 34.4657 19.6496 34.7557 19.8169C35.2019 20.0623 35.6481 20.3412 36.072 20.6423C36.507 20.9435 36.9197 21.2558 37.3101 21.5793C37.6113 21.8359 37.9013 22.1147 38.1802 22.3825C40.6899 24.8588 41.7496 27.7255 40.5784 29.4098Z" fill="#FFEBB8"/>
<path d="M40.5784 29.4097C39.9091 30.3801 38.6152 30.7929 37.0312 30.6925C36.2838 30.6367 35.4696 30.4694 34.633 30.1905C34.2872 27.0672 33.406 22.3265 31.9113 18.5786C32.5024 18.7571 33.1048 18.9802 33.7183 19.2702C33.7741 19.2925 33.8187 19.3148 33.8745 19.3483C34.1645 19.4933 34.4657 19.6495 34.7557 19.8168C35.2019 20.0622 35.648 20.341 36.0719 20.6422C36.5069 20.9434 36.9197 21.2557 37.3101 21.5792C37.6112 21.8357 37.9013 22.1146 38.1801 22.3823C40.6899 24.8586 41.7496 27.7254 40.5784 29.4097Z" fill="white"/>
</g>
<path fill-rule="evenodd" clip-rule="evenodd" d="M6.49771 79C6.98969 79 7.48602 79.213 7.49037 79.6913C7.49037 80.1043 7.24656 80.2696 6.99839 80.2696C6.75023 80.2696 6.73281 80.1435 6.73281 80.1435C6.73281 80.1435 7.02452 79.9261 7.02452 79.7174C7.02452 79.6087 6.94179 79.313 6.489 79.3174C5.8577 79.3174 5.5181 79.6174 5.5181 80.1522C5.5181 80.7652 7.35105 80.9739 7.3554 81.7652C7.3554 82.613 6.47594 82.9957 5.69225 83C5.283 83 5.01306 82.7609 5.00871 82.3783C5.00871 81.9261 5.22204 81.4652 5.75756 81.4652C5.88382 81.4565 5.98831 81.5522 5.99702 81.6783C5.99702 81.6783 5.99702 81.6826 5.99702 81.687C5.99702 81.687 5.45715 81.8391 5.4615 82.3783C5.4615 82.4783 5.56599 82.6609 5.81851 82.6565C6.07103 82.6522 6.82424 82.4739 6.81989 81.8087C6.81989 81.1913 5.00435 81.1087 5 80.1478C5 79.0652 6.08845 79.0087 6.49771 79.0087V79ZM10.747 79.6C10.8123 79.5696 11.2129 79.4913 11.1955 79.813C11.1824 80.1348 10.9386 80.6913 10.9037 80.9348C11.2303 80.7696 11.6918 80.2087 11.6918 80.2087C11.6918 80.2087 12.0183 80.2522 11.9182 80.4522C11.818 80.6522 11.1519 81.1435 11.1519 81.1435C11.1519 81.1435 11.3043 82.5696 12.1707 82.5696C12.6453 82.5696 12.8499 82.3609 12.937 82.287C12.9587 82.2696 12.9762 82.2652 12.9849 82.2783C13.0197 82.387 12.9936 82.5043 12.9152 82.5913C12.8194 82.6957 12.5974 82.8217 12.1533 82.8261C11.3653 82.8261 10.9255 82.1957 10.8123 81.2609C10.7252 81.5348 10.7339 81.9826 10.7209 82.2C10.6948 82.2435 10.2507 82.4174 10.2158 82.1174C10.2158 82.0913 10.2158 82.0696 10.2158 82.0435C10.1331 82.1609 10.0199 82.2826 9.91108 82.2826C9.71951 82.2826 9.63679 82.1217 9.60196 82.0391C9.57584 82.0696 9.3625 82.287 9.08821 82.287C8.92277 82.2913 8.77474 82.1957 8.70943 82.0435C8.57011 82.1435 8.32195 82.2913 8.03895 82.2913C7.73418 82.2913 7.66017 82.1087 7.66017 81.9565C7.66017 81.713 7.84303 80.987 7.84303 80.987C7.84303 80.987 7.48602 81.1304 7.36411 81.1348C7.19431 81.1348 7.11159 80.8217 7.11159 80.813C7.11159 80.8087 7.11159 80.8 7.1203 80.8C7.22044 80.7609 7.94317 80.513 7.94317 80.513C7.94317 80.513 8.07813 79.9826 8.09555 79.913C8.11296 79.8435 8.2131 79.7 8.33065 79.6565C8.41773 79.6217 8.50916 79.6 8.60059 79.5913C8.63107 79.5913 8.65284 79.6 8.65284 79.6174C8.65284 79.6348 8.47433 80.4087 8.47433 80.4087C8.47433 80.4087 8.84876 80.3217 8.98808 80.3217C9.09692 80.3217 9.15352 80.387 9.09257 80.4696C9.03162 80.5522 8.96196 80.6478 8.92712 80.6913C8.88794 80.7348 8.86182 80.7435 8.77039 80.7609C8.64413 80.787 8.36113 80.8565 8.36113 80.8565C8.36113 80.8565 8.13473 81.6783 8.13909 81.8174C8.13909 81.8957 8.16521 81.987 8.26099 81.987C8.35678 81.987 8.53964 81.8739 8.67025 81.7913C8.69202 81.1522 9.18835 80.7261 9.57584 80.7261C9.7021 80.7261 9.65421 80.8478 9.79788 80.8478H9.88931C9.94591 80.8478 10.0069 80.8522 10.0069 80.9957C10.0069 81.1957 9.89367 81.5261 9.89367 81.7348C9.89367 81.8826 9.91544 81.987 9.97204 81.987C10.0678 81.987 10.1767 81.8478 10.255 81.7261C10.3813 81.0304 10.734 79.7609 10.734 79.6174L10.747 79.6ZM12.5016 80.7C12.7672 80.6783 12.9326 80.8217 12.9631 80.9C12.9936 80.9783 12.9892 81.1609 12.9152 81.2913C12.6845 81.7044 12.1097 81.6304 12.1097 81.6304C12.1097 81.6304 12.0444 81.9565 12.3405 81.9565C12.593 81.9565 12.7062 81.8304 12.8151 81.7261C12.8586 81.7261 12.9936 81.8652 12.9326 81.9609C12.8847 82.0348 12.6191 82.2565 12.2795 82.2609C11.7397 82.2609 11.6047 81.8 11.6744 81.4696C11.7658 81.0609 12.1751 80.7217 12.5016 80.6957V80.7ZM9.6455 80.987C9.32332 80.987 8.82699 81.9696 9.20577 81.9652C9.61938 81.9652 9.6455 81.1826 9.6455 81.0043V80.987ZM12.6409 80.8913C12.4232 80.9 12.1751 81.3174 12.1533 81.5C12.4798 81.513 12.654 81.1957 12.6757 81.0696C12.6888 80.9739 12.6932 80.887 12.6409 80.887V80.8913Z" fill="#557086"/>
<path d="M40.851 79.0672L39.2521 80.8632C39.1826 80.9428 39.1826 81.0572 39.2521 81.1368L40.846 82.9328C40.9255 83.0224 41.0695 83.0224 41.1539 82.9328L42.7478 81.1368C42.8173 81.0572 42.8173 80.9428 42.7478 80.8632L41.1539 79.0672C41.0744 78.9776 40.9304 78.9776 40.846 79.0672H40.851Z" fill="white"/>
<path d="M41.6604 79.6343L42.142 80.1766L40.568 82.6144L39.704 81.6393L41.6604 79.6343Z" fill="#8EA3B2"/>
<path d="M45.851 79.0672L44.2521 80.8632C44.1826 80.9428 44.1826 81.0572 44.2521 81.1368L45.846 82.9328C45.9255 83.0224 46.0695 83.0224 46.1539 82.9328L47.7478 81.1368C47.8173 81.0572 47.8173 80.9428 47.7478 80.8632L46.1539 79.0672C46.0744 78.9776 45.9304 78.9776 45.846 79.0672H45.851Z" fill="white"/>
<path d="M46.6604 79.6343L47.142 80.1766L45.568 82.6144L44.704 81.6393L46.6604 79.6343Z" fill="#8EA3B2"/>
<path d="M50.851 79.0672L49.2521 80.8632C49.1826 80.9428 49.1826 81.0572 49.2521 81.1368L50.846 82.9328C50.9255 83.0224 51.0695 83.0224 51.1539 82.9328L52.7478 81.1368C52.8173 81.0572 52.8173 80.9428 52.7478 80.8632L51.1539 79.0672C51.0744 78.9776 50.9304 78.9776 50.846 79.0672H50.851Z" fill="white"/>
<path d="M51.6604 79.6343L52.142 80.1766L50.568 82.6144L49.704 81.6393L51.6604 79.6343Z" fill="#8EA3B2"/>
<path d="M55.851 79.0672L54.2521 80.8632C54.1826 80.9428 54.1826 81.0572 54.2521 81.1368L55.846 82.9328C55.9255 83.0224 56.0695 83.0224 56.1539 82.9328L57.7478 81.1368C57.8173 81.0572 57.8173 80.9428 57.7478 80.8632L56.1539 79.0672C56.0744 78.9776 55.9304 78.9776 55.846 79.0672H55.851Z" fill="white"/>
<path d="M56.6604 79.6343L57.142 80.1766L55.568 82.6144L54.704 81.6393L56.6604 79.6343Z" fill="#8EA3B2"/>
<rect x="13" y="62" width="37" height="13" rx="6.5" fill="#2F4553"/>
<path d="M27.3456 70.072C26.1756 70.072 25.6296 69.058 25.6296 68.002C25.6296 66.946 26.1756 65.938 27.3456 65.938C28.5156 65.938 29.0616 66.946 29.0616 68.002C29.0616 69.058 28.5156 70.072 27.3456 70.072ZM27.3456 69.16C27.8256 69.16 28.0176 68.71 28.0176 68.002C28.0176 67.294 27.8256 66.85 27.3456 66.85C26.8656 66.85 26.6736 67.294 26.6736 68.002C26.6736 68.71 26.8656 69.16 27.3456 69.16ZM29.9339 70.072C29.6279 70.072 29.3699 69.814 29.3699 69.508C29.3699 69.202 29.6279 68.944 29.9339 68.944C30.2399 68.944 30.4979 69.202 30.4979 69.508C30.4979 69.814 30.2399 70.072 29.9339 70.072ZM32.6011 70.072C31.7371 70.072 30.9031 69.73 30.9031 68.944C30.9031 68.488 31.2511 68.116 31.7131 67.936C31.2871 67.774 30.9691 67.486 30.9691 67.006C30.9691 66.232 31.8151 65.938 32.6011 65.938C33.3811 65.938 34.2331 66.232 34.2331 67.006C34.2331 67.486 33.9091 67.774 33.4831 67.936C33.9451 68.116 34.2931 68.488 34.2931 68.944C34.2931 69.724 33.4651 70.072 32.6011 70.072ZM32.6011 67.534C32.8471 67.498 33.1771 67.372 33.1771 67.156C33.1771 66.934 32.9431 66.796 32.6011 66.796C32.2471 66.796 32.0191 66.934 32.0191 67.156C32.0191 67.372 32.3551 67.498 32.6011 67.534ZM32.6011 69.214C32.9731 69.214 33.2491 69.058 33.2491 68.824C33.2491 68.578 32.8531 68.434 32.6011 68.404C32.3431 68.434 31.9531 68.578 31.9531 68.824C31.9531 69.058 32.2171 69.214 32.6011 69.214ZM37.5641 70H36.5501L35.9921 69.124L35.4281 70H34.4201L35.4101 68.512L34.4801 67.102H35.4941L35.9921 67.888L36.4841 67.102H37.4981L36.5741 68.512L37.5641 70Z" fill="white"/>
<path d="M6.835 11.06C5.82 11.06 5.33 10.49 5.33 9.67V7.665H6.05V9.645C6.05 10.11 6.32 10.43 6.835 10.43C7.35 10.43 7.615 10.11 7.615 9.645V7.665H8.34V9.665C8.34 10.495 7.85 11.06 6.835 11.06ZM11.247 11H10.612V9.54C10.612 9.205 10.437 9.09 10.167 9.09C9.91699 9.09 9.72199 9.23 9.61699 9.375V11H8.98199V8.585H9.61699V8.9C9.77199 8.715 10.067 8.525 10.462 8.525C10.992 8.525 11.247 8.825 11.247 9.295V11ZM13.0025 11.06C12.2575 11.06 11.7225 10.535 11.7225 9.79C11.7225 9.05 12.2575 8.525 13.0025 8.525C13.4975 8.525 13.7975 8.74 13.9575 8.96L13.5425 9.35C13.4275 9.18 13.2525 9.09 13.0325 9.09C12.6475 9.09 12.3775 9.37 12.3775 9.79C12.3775 10.21 12.6475 10.495 13.0325 10.495C13.2525 10.495 13.4275 10.395 13.5425 10.235L13.9575 10.62C13.7975 10.845 13.4975 11.06 13.0025 11.06ZM15.4926 11.06C14.6976 11.06 14.2176 10.48 14.2176 9.79C14.2176 9.105 14.6976 8.525 15.4926 8.525C16.2926 8.525 16.7726 9.105 16.7726 9.79C16.7726 10.48 16.2926 11.06 15.4926 11.06ZM15.4926 10.495C15.8876 10.495 16.1126 10.17 16.1126 9.79C16.1126 9.415 15.8876 9.09 15.4926 9.09C15.0976 9.09 14.8776 9.415 14.8776 9.79C14.8776 10.17 15.0976 10.495 15.4926 10.495ZM20.8787 11H20.2387V9.475C20.2387 9.25 20.1387 9.09 19.8787 9.09C19.6537 9.09 19.4687 9.24 19.3787 9.37V11H18.7387V9.475C18.7387 9.25 18.6387 9.09 18.3787 9.09C18.1587 9.09 17.9737 9.24 17.8787 9.375V11H17.2437V8.585H17.8787V8.9C17.9787 8.755 18.2987 8.525 18.6687 8.525C19.0237 8.525 19.2487 8.69 19.3387 8.965C19.4787 8.745 19.7987 8.525 20.1687 8.525C20.6137 8.525 20.8787 8.76 20.8787 9.255V11ZM25.1365 11H24.4965V9.475C24.4965 9.25 24.3965 9.09 24.1365 9.09C23.9115 9.09 23.7265 9.24 23.6365 9.37V11H22.9965V9.475C22.9965 9.25 22.8965 9.09 22.6365 9.09C22.4165 9.09 22.2315 9.24 22.1365 9.375V11H21.5015V8.585H22.1365V8.9C22.2365 8.755 22.5565 8.525 22.9265 8.525C23.2815 8.525 23.5065 8.69 23.5965 8.965C23.7365 8.745 24.0565 8.525 24.4265 8.525C24.8715 8.525 25.1365 8.76 25.1365 9.255V11ZM26.8793 11.06C26.0843 11.06 25.6043 10.48 25.6043 9.79C25.6043 9.105 26.0843 8.525 26.8793 8.525C27.6793 8.525 28.1593 9.105 28.1593 9.79C28.1593 10.48 27.6793 11.06 26.8793 11.06ZM26.8793 10.495C27.2743 10.495 27.4993 10.17 27.4993 9.79C27.4993 9.415 27.2743 9.09 26.8793 9.09C26.4843 9.09 26.2643 9.415 26.2643 9.79C26.2643 10.17 26.4843 10.495 26.8793 10.495ZM30.8954 11H30.2604V9.54C30.2604 9.205 30.0854 9.09 29.8154 9.09C29.5654 9.09 29.3704 9.23 29.2654 9.375V11H28.6304V8.585H29.2654V8.9C29.4204 8.715 29.7154 8.525 30.1104 8.525C30.6404 8.525 30.8954 8.825 30.8954 9.295V11Z" fill="white"/>
<path d="M48.678 11H48.226L46.834 9.096V11H46.366V8.332H46.846L48.21 10.184V8.332H48.678V11ZM50.1049 11.048C49.4929 11.048 49.1129 10.588 49.1129 10.032C49.1129 9.48 49.4929 9.02 50.1049 9.02C50.7249 9.02 51.1009 9.48 51.1009 10.032C51.1009 10.588 50.7249 11.048 50.1049 11.048ZM50.1049 10.676C50.4649 10.676 50.6649 10.376 50.6649 10.032C50.6649 9.692 50.4649 9.392 50.1049 9.392C49.7489 9.392 49.5489 9.692 49.5489 10.032C49.5489 10.376 49.7489 10.676 50.1049 10.676ZM51.7224 11.044C51.5704 11.044 51.4424 10.916 51.4424 10.764C51.4424 10.612 51.5704 10.484 51.7224 10.484C51.8744 10.484 52.0024 10.612 52.0024 10.764C52.0024 10.916 51.8744 11.044 51.7224 11.044ZM54.4342 11.048C53.8862 11.048 53.4102 10.796 53.4102 10.316C53.4102 9.976 53.6862 9.732 54.0102 9.624C53.7102 9.528 53.4542 9.332 53.4542 8.992C53.4542 8.5 53.9582 8.292 54.4342 8.292C54.9022 8.292 55.4142 8.5 55.4142 8.992C55.4142 9.332 55.1542 9.528 54.8542 9.624C55.1782 9.732 55.4542 9.976 55.4542 10.316C55.4542 10.792 54.9782 11.048 54.4342 11.048ZM54.4342 9.44C54.5982 9.412 54.9382 9.316 54.9382 9.064C54.9382 8.84 54.7182 8.708 54.4342 8.708C54.1422 8.708 53.9262 8.84 53.9262 9.064C53.9262 9.316 54.2702 9.412 54.4342 9.44ZM54.4342 10.632C54.7302 10.632 54.9822 10.488 54.9822 10.256C54.9822 9.98 54.5982 9.856 54.4342 9.836C54.2662 9.856 53.8822 9.98 53.8822 10.256C53.8822 10.488 54.1302 10.632 54.4342 10.632ZM56.8131 11.048C56.2651 11.048 55.7891 10.796 55.7891 10.316C55.7891 9.976 56.0651 9.732 56.3891 9.624C56.0891 9.528 55.8331 9.332 55.8331 8.992C55.8331 8.5 56.3371 8.292 56.8131 8.292C57.2811 8.292 57.7931 8.5 57.7931 8.992C57.7931 9.332 57.5331 9.528 57.2331 9.624C57.5571 9.732 57.8331 9.976 57.8331 10.316C57.8331 10.792 57.3571 11.048 56.8131 11.048ZM56.8131 9.44C56.9771 9.412 57.3171 9.316 57.3171 9.064C57.3171 8.84 57.0971 8.708 56.8131 8.708C56.5211 8.708 56.3051 8.84 56.3051 9.064C56.3051 9.316 56.6491 9.412 56.8131 9.44ZM56.8131 10.632C57.1091 10.632 57.3611 10.488 57.3611 10.256C57.3611 9.98 56.9771 9.856 56.8131 9.836C56.6451 9.856 56.2611 9.98 56.2611 10.256C56.2611 10.488 56.5091 10.632 56.8131 10.632Z" fill="white"/>
<defs>
<clipPath id="clip0_26835_29251">
<rect width="63" height="88" fill="white"/>
</clipPath>
</defs>
</svg>
