<svg width="63" height="88" viewBox="0 0 63 88" fill="none" xmlns="http://www.w3.org/2000/svg">
<rect width="63" height="88" rx="4" fill="#047BFF"/>
<path d="M36.7008 13.5133L44.7992 3.48665C45.5586 2.54645 46.7024 2 47.911 2H58C59.6569 2 61 3.34314 61 5V83C61 84.6569 59.6569 86 58 86H5C3.34315 86 2 84.6569 2 83V18C2 16.3431 3.34315 15 5 15H33.589C34.7976 15 35.9414 14.4536 36.7008 13.5133Z" fill="#213743"/>
<rect x="5" y="18" width="53" height="40" rx="1" fill="#2F4553"/>
<g clip-path="url(#clip0_26835_29252)">
<path d="M53.785 28.8915L42.0995 35.1179L43.2311 37.2418L54.9166 31.0154L53.785 28.8915Z" fill="#1A2C38"/>
<path d="M48.9746 27.4671L48.7705 32.2368L51.1748 32.3397L51.3789 27.57L48.9746 27.4671Z" fill="#1A2C38"/>
<path d="M7.95001 29.3459L6.91663 31.5193L21.2679 38.343L22.3013 36.1696L7.95001 29.3459Z" fill="#1A2C38"/>
<path d="M13.6448 32.9196L9.81189 34.7957L10.8699 36.9572L14.7028 35.0811L13.6448 32.9196Z" fill="#1A2C38"/>
<path d="M47.5318 47.1788C47.5318 52.4985 40.3025 55.8501 31.3778 55.8501C22.4532 55.8501 15.2239 52.4985 15.2239 47.1788C15.2239 41.8591 22.4532 37.543 31.3778 37.543C40.3025 37.543 47.5318 41.8591 47.5318 47.1788Z" fill="white"/>
<path d="M15.672 44.9282C15.672 44.9282 16.9873 41.4597 27.1103 43.2719L23.5444 38.7024L19.4718 40.4172C19.4718 40.4172 16.7535 42.093 15.672 44.9282Z" fill="#8EA3B2"/>
<path d="M47.0934 44.9282C47.0934 44.9282 45.7781 41.4597 35.655 43.2719L39.221 38.7024L43.2936 40.4172C43.2936 40.4172 46.0119 42.093 47.0934 44.9282Z" fill="#8EA3B2"/>
<path d="M44.6478 36.6466C44.6478 41.9663 38.7046 43.8077 31.3778 43.8077C24.051 43.8077 18.1078 41.9663 18.1078 36.6466C18.1078 31.3269 24.051 27.0107 31.3778 27.0107C38.7046 27.0107 44.6478 31.3269 44.6478 36.6466Z" fill="white"/>
<path d="M31.3778 33.3826C36.1184 33.3826 39.9614 31.315 39.9614 28.7644C39.9614 26.2139 36.1184 24.1462 31.3778 24.1462C26.6372 24.1462 22.7942 26.2139 22.7942 28.7644C22.7942 31.315 26.6372 33.3826 31.3778 33.3826Z" fill="#8EA3B2"/>
<path d="M44.1899 24.156C44.1899 29.2516 38.461 31.853 31.3876 31.853C24.3141 31.853 18.5852 29.2613 18.5852 24.156C18.5852 19.0506 24.3141 13.3899 31.3876 13.3899C38.461 13.3899 44.1899 19.0603 44.1899 24.156Z" fill="white"/>
<path d="M35.09 22.6262C36.0801 22.6262 36.8827 21.5444 36.8827 20.21C36.8827 18.8755 36.0801 17.7937 35.09 17.7937C34.0999 17.7937 33.2972 18.8755 33.2972 20.21C33.2972 21.5444 34.0999 22.6262 35.09 22.6262Z" fill="#1A2C38"/>
<path d="M27.1103 22.6262C28.1004 22.6262 28.9031 21.5444 28.9031 20.21C28.9031 18.8755 28.1004 17.7937 27.1103 17.7937C26.1203 17.7937 25.3176 18.8755 25.3176 20.21C25.3176 21.5444 26.1203 22.6262 27.1103 22.6262Z" fill="#1A2C38"/>
<path d="M29.5754 26.8352L22.1999 25.403C20.8164 25.1302 20.8164 23.1524 22.1999 22.8796L29.5754 21.4473C30.4717 21.272 31.4265 21.5155 32.0793 22.1586C32.586 22.6652 32.8977 23.357 32.8977 24.1364C32.8977 24.9061 32.586 25.6076 32.0793 26.1142C31.4265 26.767 30.4717 27.0009 29.5754 26.8255V26.8352Z" fill="#F87915"/>
<path d="M31.6324 37.8624C32.6247 37.6656 33.2873 36.7915 33.1125 35.91C32.9376 35.0286 31.9915 34.4736 30.9992 34.6705C30.0069 34.8673 29.3443 35.7414 29.5191 36.6228C29.694 37.5043 30.6401 38.0593 31.6324 37.8624Z" fill="#1A2C38"/>
<path d="M33.4799 43.5086C33.5894 42.6167 32.7127 41.7751 31.5217 41.6289C30.3307 41.4826 29.2764 42.0871 29.1669 42.979C29.0574 43.871 29.9341 44.7125 31.1251 44.8588C32.3161 45.005 33.3704 44.4005 33.4799 43.5086Z" fill="#1A2C38"/>
</g>
<path fill-rule="evenodd" clip-rule="evenodd" d="M6.49771 79C6.98969 79 7.48602 79.213 7.49037 79.6913C7.49037 80.1043 7.24656 80.2696 6.99839 80.2696C6.75023 80.2696 6.73281 80.1435 6.73281 80.1435C6.73281 80.1435 7.02452 79.9261 7.02452 79.7174C7.02452 79.6087 6.94179 79.313 6.489 79.3174C5.8577 79.3174 5.5181 79.6174 5.5181 80.1522C5.5181 80.7652 7.35105 80.9739 7.3554 81.7652C7.3554 82.613 6.47594 82.9957 5.69225 83C5.283 83 5.01306 82.7609 5.00871 82.3783C5.00871 81.9261 5.22204 81.4652 5.75756 81.4652C5.88382 81.4565 5.98831 81.5522 5.99702 81.6783C5.99702 81.6783 5.99702 81.6826 5.99702 81.687C5.99702 81.687 5.45715 81.8391 5.4615 82.3783C5.4615 82.4783 5.56599 82.6609 5.81851 82.6565C6.07103 82.6522 6.82424 82.4739 6.81989 81.8087C6.81989 81.1913 5.00435 81.1087 5 80.1478C5 79.0652 6.08845 79.0087 6.49771 79.0087V79ZM10.747 79.6C10.8123 79.5696 11.2129 79.4913 11.1955 79.813C11.1824 80.1348 10.9386 80.6913 10.9037 80.9348C11.2303 80.7696 11.6918 80.2087 11.6918 80.2087C11.6918 80.2087 12.0183 80.2522 11.9182 80.4522C11.818 80.6522 11.1519 81.1435 11.1519 81.1435C11.1519 81.1435 11.3043 82.5696 12.1707 82.5696C12.6453 82.5696 12.8499 82.3609 12.937 82.287C12.9587 82.2696 12.9762 82.2652 12.9849 82.2783C13.0197 82.387 12.9936 82.5043 12.9152 82.5913C12.8194 82.6957 12.5974 82.8217 12.1533 82.8261C11.3653 82.8261 10.9255 82.1957 10.8123 81.2609C10.7252 81.5348 10.7339 81.9826 10.7209 82.2C10.6948 82.2435 10.2507 82.4174 10.2158 82.1174C10.2158 82.0913 10.2158 82.0696 10.2158 82.0435C10.1331 82.1609 10.0199 82.2826 9.91108 82.2826C9.71951 82.2826 9.63679 82.1217 9.60196 82.0391C9.57584 82.0696 9.3625 82.287 9.08821 82.287C8.92277 82.2913 8.77474 82.1957 8.70943 82.0435C8.57011 82.1435 8.32195 82.2913 8.03895 82.2913C7.73418 82.2913 7.66017 82.1087 7.66017 81.9565C7.66017 81.713 7.84303 80.987 7.84303 80.987C7.84303 80.987 7.48602 81.1304 7.36411 81.1348C7.19431 81.1348 7.11159 80.8217 7.11159 80.813C7.11159 80.8087 7.11159 80.8 7.1203 80.8C7.22044 80.7609 7.94317 80.513 7.94317 80.513C7.94317 80.513 8.07813 79.9826 8.09555 79.913C8.11296 79.8435 8.2131 79.7 8.33065 79.6565C8.41773 79.6217 8.50916 79.6 8.60059 79.5913C8.63107 79.5913 8.65284 79.6 8.65284 79.6174C8.65284 79.6348 8.47433 80.4087 8.47433 80.4087C8.47433 80.4087 8.84876 80.3217 8.98808 80.3217C9.09692 80.3217 9.15352 80.387 9.09257 80.4696C9.03162 80.5522 8.96196 80.6478 8.92712 80.6913C8.88794 80.7348 8.86182 80.7435 8.77039 80.7609C8.64413 80.787 8.36113 80.8565 8.36113 80.8565C8.36113 80.8565 8.13473 81.6783 8.13909 81.8174C8.13909 81.8957 8.16521 81.987 8.26099 81.987C8.35678 81.987 8.53964 81.8739 8.67025 81.7913C8.69202 81.1522 9.18835 80.7261 9.57584 80.7261C9.7021 80.7261 9.65421 80.8478 9.79788 80.8478H9.88931C9.94591 80.8478 10.0069 80.8522 10.0069 80.9957C10.0069 81.1957 9.89367 81.5261 9.89367 81.7348C9.89367 81.8826 9.91544 81.987 9.97204 81.987C10.0678 81.987 10.1767 81.8478 10.255 81.7261C10.3813 81.0304 10.734 79.7609 10.734 79.6174L10.747 79.6ZM12.5016 80.7C12.7672 80.6783 12.9326 80.8217 12.9631 80.9C12.9936 80.9783 12.9892 81.1609 12.9152 81.2913C12.6845 81.7044 12.1097 81.6304 12.1097 81.6304C12.1097 81.6304 12.0444 81.9565 12.3405 81.9565C12.593 81.9565 12.7062 81.8304 12.8151 81.7261C12.8586 81.7261 12.9936 81.8652 12.9326 81.9609C12.8847 82.0348 12.6191 82.2565 12.2795 82.2609C11.7397 82.2609 11.6047 81.8 11.6744 81.4696C11.7658 81.0609 12.1751 80.7217 12.5016 80.6957V80.7ZM9.6455 80.987C9.32332 80.987 8.82699 81.9696 9.20577 81.9652C9.61938 81.9652 9.6455 81.1826 9.6455 81.0043V80.987ZM12.6409 80.8913C12.4232 80.9 12.1751 81.3174 12.1533 81.5C12.4798 81.513 12.654 81.1957 12.6757 81.0696C12.6888 80.9739 12.6932 80.887 12.6409 80.887V80.8913Z" fill="#557086"/>
<path d="M40.851 79.0672L39.2521 80.8632C39.1826 80.9428 39.1826 81.0572 39.2521 81.1368L40.846 82.9328C40.9255 83.0224 41.0695 83.0224 41.1539 82.9328L42.7478 81.1368C42.8173 81.0572 42.8173 80.9428 42.7478 80.8632L41.1539 79.0672C41.0744 78.9776 40.9304 78.9776 40.846 79.0672H40.851Z" fill="white"/>
<path d="M41.6604 79.6343L42.142 80.1766L40.568 82.6144L39.704 81.6393L41.6604 79.6343Z" fill="#8EA3B2"/>
<path d="M45.851 79.0672L44.2521 80.8632C44.1826 80.9428 44.1826 81.0572 44.2521 81.1368L45.846 82.9328C45.9255 83.0224 46.0695 83.0224 46.1539 82.9328L47.7478 81.1368C47.8173 81.0572 47.8173 80.9428 47.7478 80.8632L46.1539 79.0672C46.0744 78.9776 45.9304 78.9776 45.846 79.0672H45.851Z" fill="white"/>
<path d="M46.6604 79.6343L47.142 80.1766L45.568 82.6144L44.704 81.6393L46.6604 79.6343Z" fill="#8EA3B2"/>
<path d="M50.851 79.0672L49.2521 80.8632C49.1826 80.9428 49.1826 81.0572 49.2521 81.1368L50.846 82.9328C50.9255 83.0224 51.0695 83.0224 51.1539 82.9328L52.7478 81.1368C52.8173 81.0572 52.8173 80.9428 52.7478 80.8632L51.1539 79.0672C51.0744 78.9776 50.9304 78.9776 50.846 79.0672H50.851Z" fill="white"/>
<path d="M51.6604 79.6343L52.142 80.1766L50.568 82.6144L49.704 81.6393L51.6604 79.6343Z" fill="#8EA3B2"/>
<path d="M55.851 79.0672L54.2521 80.8632C54.1826 80.9428 54.1826 81.0572 54.2521 81.1368L55.846 82.9328C55.9255 83.0224 56.0695 83.0224 56.1539 82.9328L57.7478 81.1368C57.8173 81.0572 57.8173 80.9428 57.7478 80.8632L56.1539 79.0672C56.0744 78.9776 55.9304 78.9776 55.846 79.0672H55.851Z" fill="white"/>
<path d="M56.6604 79.6343L57.142 80.1766L55.568 82.6144L54.704 81.6393L56.6604 79.6343Z" fill="#8EA3B2"/>
<rect x="13" y="62" width="37" height="13" rx="6.5" fill="#2F4553"/>
<path d="M27.3456 70.072C26.1756 70.072 25.6296 69.058 25.6296 68.002C25.6296 66.946 26.1756 65.938 27.3456 65.938C28.5156 65.938 29.0616 66.946 29.0616 68.002C29.0616 69.058 28.5156 70.072 27.3456 70.072ZM27.3456 69.16C27.8256 69.16 28.0176 68.71 28.0176 68.002C28.0176 67.294 27.8256 66.85 27.3456 66.85C26.8656 66.85 26.6736 67.294 26.6736 68.002C26.6736 68.71 26.8656 69.16 27.3456 69.16ZM29.9339 70.072C29.6279 70.072 29.3699 69.814 29.3699 69.508C29.3699 69.202 29.6279 68.944 29.9339 68.944C30.2399 68.944 30.4979 69.202 30.4979 69.508C30.4979 69.814 30.2399 70.072 29.9339 70.072ZM32.6011 70.072C31.7371 70.072 30.9031 69.73 30.9031 68.944C30.9031 68.488 31.2511 68.116 31.7131 67.936C31.2871 67.774 30.9691 67.486 30.9691 67.006C30.9691 66.232 31.8151 65.938 32.6011 65.938C33.3811 65.938 34.2331 66.232 34.2331 67.006C34.2331 67.486 33.9091 67.774 33.4831 67.936C33.9451 68.116 34.2931 68.488 34.2931 68.944C34.2931 69.724 33.4651 70.072 32.6011 70.072ZM32.6011 67.534C32.8471 67.498 33.1771 67.372 33.1771 67.156C33.1771 66.934 32.9431 66.796 32.6011 66.796C32.2471 66.796 32.0191 66.934 32.0191 67.156C32.0191 67.372 32.3551 67.498 32.6011 67.534ZM32.6011 69.214C32.9731 69.214 33.2491 69.058 33.2491 68.824C33.2491 68.578 32.8531 68.434 32.6011 68.404C32.3431 68.434 31.9531 68.578 31.9531 68.824C31.9531 69.058 32.2171 69.214 32.6011 69.214ZM37.5641 70H36.5501L35.9921 69.124L35.4281 70H34.4201L35.4101 68.512L34.4801 67.102H35.4941L35.9921 67.888L36.4841 67.102H37.4981L36.5741 68.512L37.5641 70Z" fill="white"/>
<path d="M6.835 11.06C5.82 11.06 5.33 10.49 5.33 9.67V7.665H6.05V9.645C6.05 10.11 6.32 10.43 6.835 10.43C7.35 10.43 7.615 10.11 7.615 9.645V7.665H8.34V9.665C8.34 10.495 7.85 11.06 6.835 11.06ZM11.247 11H10.612V9.54C10.612 9.205 10.437 9.09 10.167 9.09C9.91699 9.09 9.72199 9.23 9.61699 9.375V11H8.98199V8.585H9.61699V8.9C9.77199 8.715 10.067 8.525 10.462 8.525C10.992 8.525 11.247 8.825 11.247 9.295V11ZM13.0025 11.06C12.2575 11.06 11.7225 10.535 11.7225 9.79C11.7225 9.05 12.2575 8.525 13.0025 8.525C13.4975 8.525 13.7975 8.74 13.9575 8.96L13.5425 9.35C13.4275 9.18 13.2525 9.09 13.0325 9.09C12.6475 9.09 12.3775 9.37 12.3775 9.79C12.3775 10.21 12.6475 10.495 13.0325 10.495C13.2525 10.495 13.4275 10.395 13.5425 10.235L13.9575 10.62C13.7975 10.845 13.4975 11.06 13.0025 11.06ZM15.4926 11.06C14.6976 11.06 14.2176 10.48 14.2176 9.79C14.2176 9.105 14.6976 8.525 15.4926 8.525C16.2926 8.525 16.7726 9.105 16.7726 9.79C16.7726 10.48 16.2926 11.06 15.4926 11.06ZM15.4926 10.495C15.8876 10.495 16.1126 10.17 16.1126 9.79C16.1126 9.415 15.8876 9.09 15.4926 9.09C15.0976 9.09 14.8776 9.415 14.8776 9.79C14.8776 10.17 15.0976 10.495 15.4926 10.495ZM20.8787 11H20.2387V9.475C20.2387 9.25 20.1387 9.09 19.8787 9.09C19.6537 9.09 19.4687 9.24 19.3787 9.37V11H18.7387V9.475C18.7387 9.25 18.6387 9.09 18.3787 9.09C18.1587 9.09 17.9737 9.24 17.8787 9.375V11H17.2437V8.585H17.8787V8.9C17.9787 8.755 18.2987 8.525 18.6687 8.525C19.0237 8.525 19.2487 8.69 19.3387 8.965C19.4787 8.745 19.7987 8.525 20.1687 8.525C20.6137 8.525 20.8787 8.76 20.8787 9.255V11ZM25.1365 11H24.4965V9.475C24.4965 9.25 24.3965 9.09 24.1365 9.09C23.9115 9.09 23.7265 9.24 23.6365 9.37V11H22.9965V9.475C22.9965 9.25 22.8965 9.09 22.6365 9.09C22.4165 9.09 22.2315 9.24 22.1365 9.375V11H21.5015V8.585H22.1365V8.9C22.2365 8.755 22.5565 8.525 22.9265 8.525C23.2815 8.525 23.5065 8.69 23.5965 8.965C23.7365 8.745 24.0565 8.525 24.4265 8.525C24.8715 8.525 25.1365 8.76 25.1365 9.255V11ZM26.8793 11.06C26.0843 11.06 25.6043 10.48 25.6043 9.79C25.6043 9.105 26.0843 8.525 26.8793 8.525C27.6793 8.525 28.1593 9.105 28.1593 9.79C28.1593 10.48 27.6793 11.06 26.8793 11.06ZM26.8793 10.495C27.2743 10.495 27.4993 10.17 27.4993 9.79C27.4993 9.415 27.2743 9.09 26.8793 9.09C26.4843 9.09 26.2643 9.415 26.2643 9.79C26.2643 10.17 26.4843 10.495 26.8793 10.495ZM30.8954 11H30.2604V9.54C30.2604 9.205 30.0854 9.09 29.8154 9.09C29.5654 9.09 29.3704 9.23 29.2654 9.375V11H28.6304V8.585H29.2654V8.9C29.4204 8.715 29.7154 8.525 30.1104 8.525C30.6404 8.525 30.8954 8.825 30.8954 9.295V11Z" fill="white"/>
<path d="M48.6546 11H48.2026L46.8106 9.096V11H46.3426V8.332H46.8226L48.1866 10.184V8.332H48.6546V11ZM50.0815 11.048C49.4695 11.048 49.0895 10.588 49.0895 10.032C49.0895 9.48 49.4695 9.02 50.0815 9.02C50.7015 9.02 51.0775 9.48 51.0775 10.032C51.0775 10.588 50.7015 11.048 50.0815 11.048ZM50.0815 10.676C50.4415 10.676 50.6415 10.376 50.6415 10.032C50.6415 9.692 50.4415 9.392 50.0815 9.392C49.7255 9.392 49.5255 9.692 49.5255 10.032C49.5255 10.376 49.7255 10.676 50.0815 10.676ZM51.6989 11.044C51.5469 11.044 51.4189 10.916 51.4189 10.764C51.4189 10.612 51.5469 10.484 51.6989 10.484C51.8509 10.484 51.9789 10.612 51.9789 10.764C51.9789 10.916 51.8509 11.044 51.6989 11.044ZM54.4108 11.048C53.8628 11.048 53.3868 10.796 53.3868 10.316C53.3868 9.976 53.6628 9.732 53.9868 9.624C53.6868 9.528 53.4308 9.332 53.4308 8.992C53.4308 8.5 53.9348 8.292 54.4108 8.292C54.8788 8.292 55.3908 8.5 55.3908 8.992C55.3908 9.332 55.1308 9.528 54.8308 9.624C55.1548 9.732 55.4308 9.976 55.4308 10.316C55.4308 10.792 54.9548 11.048 54.4108 11.048ZM54.4108 9.44C54.5748 9.412 54.9148 9.316 54.9148 9.064C54.9148 8.84 54.6948 8.708 54.4108 8.708C54.1188 8.708 53.9028 8.84 53.9028 9.064C53.9028 9.316 54.2467 9.412 54.4108 9.44ZM54.4108 10.632C54.7068 10.632 54.9588 10.488 54.9588 10.256C54.9588 9.98 54.5748 9.856 54.4108 9.836C54.2428 9.856 53.8588 9.98 53.8588 10.256C53.8588 10.488 54.1068 10.632 54.4108 10.632ZM56.6577 11.044C56.3297 11.044 56.0737 10.928 55.8937 10.748L56.1097 10.396C56.2497 10.54 56.4057 10.628 56.6577 10.628C57.1417 10.628 57.3617 10.188 57.3617 9.752C57.3617 9.724 57.3617 9.7 57.3617 9.672C57.2377 9.852 56.9577 10.048 56.6457 10.048C56.1657 10.048 55.7497 9.752 55.7497 9.184C55.7497 8.692 56.1377 8.288 56.7337 8.288C57.5177 8.288 57.8337 8.924 57.8337 9.668C57.8337 10.436 57.4297 11.044 56.6577 11.044ZM56.7697 9.644C56.9977 9.644 57.2217 9.524 57.3537 9.332C57.3297 9.044 57.1697 8.704 56.7577 8.704C56.4097 8.704 56.2257 8.956 56.2257 9.168C56.2257 9.496 56.4817 9.644 56.7697 9.644Z" fill="white"/>
<defs>
<clipPath id="clip0_26835_29252">
<rect width="63" height="88" fill="white"/>
</clipPath>
</defs>
</svg>
