<svg width="63" height="88" viewBox="0 0 63 88" fill="none" xmlns="http://www.w3.org/2000/svg">
<rect width="63" height="88" rx="4" fill="#047BFF"/>
<path d="M36.7008 13.5133L44.7992 3.48665C45.5586 2.54645 46.7024 2 47.911 2H58C59.6569 2 61 3.34314 61 5V83C61 84.6569 59.6569 86 58 86H5C3.34315 86 2 84.6569 2 83V18C2 16.3431 3.34315 15 5 15H33.589C34.7976 15 35.9414 14.4536 36.7008 13.5133Z" fill="#213743"/>
<rect x="5" y="18" width="53" height="40" rx="1" fill="#2F4553"/>
<g clip-path="url(#clip0_26835_29255)">
<path d="M21.3 16.6303L18.8 16.3503C18.14 16.2703 17.46 17.5203 17.29 19.1403C17.12 20.7603 17.51 22.1303 18.18 22.2003L20.68 22.4803C21.34 22.5603 22.02 21.3103 22.19 19.6903C22.36 18.0703 21.97 16.7003 21.3 16.6303Z" fill="#FFEBB8"/>
<path d="M22.08 24.6402C21.56 24.6402 21.08 24.3602 20.83 23.8802C20.36 23.0002 19.77 21.4102 20 19.2902C20.25 17.0302 21.39 15.4702 22.1 14.7002C22.43 14.3402 22.91 14.1802 23.38 14.2702C25.81 14.7502 33.96 16.3302 37.08 16.5602C40.62 16.8202 47.63 17.4002 53.45 17.1102C53.98 17.0802 54.5 17.2802 54.88 17.6502C55.71 18.4502 56.89 20.1702 56.58 23.3002C56.28 26.2902 55.12 27.9402 54.24 28.7802C53.71 29.2902 52.96 29.4502 52.28 29.2102C49.92 28.3802 43.38 26.2102 37.34 25.4002C31.3 24.5902 24.31 24.6002 22.07 24.6302L22.08 24.6402Z" fill="#FF7F00"/>
<path d="M27.54 15.0602C26.31 14.8302 25.19 14.6202 24.34 14.4502C23.88 15.1602 22.82 16.9802 22.48 19.3802C22.15 21.7002 22.96 23.7502 23.39 24.6302C24.23 24.6302 25.28 24.6302 26.48 24.6602C26.07 23.9802 25.41 22.4202 25.71 19.8502C26.01 17.2802 26.99 15.7402 27.53 15.0702L27.54 15.0602Z" fill="#4D4D4D"/>
<path d="M47.5299 17.1601C46.4999 18.1301 45.3399 19.7501 45.1099 22.2601C44.8899 24.6901 45.3199 26.2501 45.7799 27.1901C47.2999 27.6701 48.6799 28.0201 49.8299 28.3901C48.7399 27.7301 48.0099 25.1301 48.5099 22.6601C49.0799 19.8801 50.3999 18.1101 51.2999 17.1701C50.0499 17.1901 48.7799 17.1701 47.5199 17.1501L47.5299 17.1601Z" fill="#1A2C38"/>
<path d="M56.0794 23.5207C56.3769 20.6809 55.5271 18.2646 54.1814 18.1236C52.8356 17.9826 51.5036 20.1705 51.2061 23.0102C50.9086 25.85 51.7584 28.2664 53.1041 28.4073C54.4499 28.5483 55.782 26.3605 56.0794 23.5207Z" fill="#1A2C38"/>
<path d="M58.7999 20.8401L54.6299 20.4001C53.9699 20.3201 53.2899 21.5701 53.1199 23.1901C52.9499 24.8101 53.3399 26.1801 54.0099 26.2501L58.1799 26.6901C58.8399 26.7701 59.5199 25.5201 59.6899 23.9001C59.8599 22.2801 59.4699 20.9101 58.7999 20.8401Z" fill="#FFEBB8"/>
<path d="M59.5311 23.8625C59.6712 22.5389 59.3796 21.423 58.8798 21.3701C58.38 21.3173 57.8613 22.3474 57.7212 23.671C57.5812 24.9946 57.8728 26.1105 58.3726 26.1634C58.8724 26.2163 59.3911 25.1861 59.5311 23.8625Z" fill="#1A2C38"/>
<path d="M54.58 17.4201C50.16 16.1601 48.86 21.3601 47.97 29.3601C46.75 40.3201 45.47 59.4101 36.48 59.7501C34.35 59.8301 32.6 58.5901 32.6 58.5901L8.33997 48.5401C9.67997 47.5101 10.8 46.2201 11.85 44.8501C16.05 39.3701 18.53 25.8401 18.59 25.4701C19.4 20.6901 19.75 13.6701 24.44 13.9301C26.05 14.0201 34.95 17.1601 44.63 16.6401C52.92 16.2001 54.58 17.4201 54.58 17.4201Z" fill="#FFC201"/>
<path d="M23.69 26.6402L42.46 30.1702C42.99 30.2702 43.35 30.7702 43.26 31.3002C43.12 32.2102 42.89 33.6202 42.62 34.8702C42.5 35.4002 41.98 35.7402 41.44 35.6302L22.68 31.8302C22.12 31.7202 21.77 31.1702 21.91 30.6102C22.11 29.8002 22.37 28.6102 22.51 27.5002C22.58 26.9302 23.12 26.5402 23.68 26.6402H23.69Z" fill="#FF7F00"/>
<path d="M22.06 34.1301L33.28 36.4301C33.82 36.5401 34.17 37.0701 34.06 37.6101C33.87 38.5101 33.56 39.8901 33.2 41.1201C33.05 41.6301 32.53 41.9401 32.01 41.8201L20.72 39.2501C20.13 39.1201 19.79 38.5001 20 37.9301C20.3 37.1401 20.67 36.0101 20.87 34.9501C20.97 34.3901 21.5 34.0101 22.06 34.1301Z" fill="#FF7F00"/>
<path d="M39.47 48.9302C40.45 51.0902 39.74 53.7802 39.74 53.7802L28.83 51.0202C28.83 51.0202 33.47 46.2002 36.24 46.7702C39.01 47.3402 39.06 48.0302 39.47 48.9302Z" fill="#FF7F00"/>
<path d="M3.37001 43.6501C3.37001 43.6501 2.52001 48.6601 5.87001 51.1001C8.20001 52.7901 31.5 60.3201 36.49 59.7501C36.49 59.7501 31.3 59.1601 32.39 50.8801C32.39 50.8801 13.75 48.0001 3.38001 43.6501H3.37001Z" fill="#FFEBB8"/>
<path d="M35.7901 18.2002C39.7301 18.7202 45.5501 17.6902 45.7701 18.7702C45.9901 19.8502 42.6801 21.8402 35.4301 21.3802C28.1801 20.9202 25.22 16.6702 26.5601 16.2202C27.9001 15.7702 30.99 17.5602 35.78 18.1902L35.7901 18.2002Z" fill="white"/>
<path d="M32.39 50.8802C32.84 48.0902 37.06 44.8202 39.48 48.9302C39.48 48.9302 39.22 46.7902 35.01 45.4602C30.8 44.1302 10.53 39.7302 8.78002 39.4102C7.03002 39.0902 3.93002 40.7702 3.38002 43.6502C2.83002 46.5302 32.39 50.8802 32.39 50.8802Z" fill="white"/>
</g>
<path fill-rule="evenodd" clip-rule="evenodd" d="M6.49771 79C6.98969 79 7.48602 79.213 7.49037 79.6913C7.49037 80.1043 7.24656 80.2696 6.99839 80.2696C6.75023 80.2696 6.73281 80.1435 6.73281 80.1435C6.73281 80.1435 7.02452 79.9261 7.02452 79.7174C7.02452 79.6087 6.94179 79.313 6.489 79.3174C5.8577 79.3174 5.5181 79.6174 5.5181 80.1522C5.5181 80.7652 7.35105 80.9739 7.3554 81.7652C7.3554 82.613 6.47594 82.9957 5.69225 83C5.283 83 5.01306 82.7609 5.00871 82.3783C5.00871 81.9261 5.22204 81.4652 5.75756 81.4652C5.88382 81.4565 5.98831 81.5522 5.99702 81.6783C5.99702 81.6783 5.99702 81.6826 5.99702 81.687C5.99702 81.687 5.45715 81.8391 5.4615 82.3783C5.4615 82.4783 5.56599 82.6609 5.81851 82.6565C6.07103 82.6522 6.82424 82.4739 6.81989 81.8087C6.81989 81.1913 5.00435 81.1087 5 80.1478C5 79.0652 6.08845 79.0087 6.49771 79.0087V79ZM10.747 79.6C10.8123 79.5696 11.2129 79.4913 11.1955 79.813C11.1824 80.1348 10.9386 80.6913 10.9037 80.9348C11.2303 80.7696 11.6918 80.2087 11.6918 80.2087C11.6918 80.2087 12.0183 80.2522 11.9182 80.4522C11.818 80.6522 11.1519 81.1435 11.1519 81.1435C11.1519 81.1435 11.3043 82.5696 12.1707 82.5696C12.6453 82.5696 12.8499 82.3609 12.937 82.287C12.9587 82.2696 12.9762 82.2652 12.9849 82.2783C13.0197 82.387 12.9936 82.5043 12.9152 82.5913C12.8194 82.6957 12.5974 82.8217 12.1533 82.8261C11.3653 82.8261 10.9255 82.1957 10.8123 81.2609C10.7252 81.5348 10.7339 81.9826 10.7209 82.2C10.6948 82.2435 10.2507 82.4174 10.2158 82.1174C10.2158 82.0913 10.2158 82.0696 10.2158 82.0435C10.1331 82.1609 10.0199 82.2826 9.91108 82.2826C9.71951 82.2826 9.63679 82.1217 9.60196 82.0391C9.57584 82.0696 9.3625 82.287 9.08821 82.287C8.92277 82.2913 8.77474 82.1957 8.70943 82.0435C8.57011 82.1435 8.32195 82.2913 8.03895 82.2913C7.73418 82.2913 7.66017 82.1087 7.66017 81.9565C7.66017 81.713 7.84303 80.987 7.84303 80.987C7.84303 80.987 7.48602 81.1304 7.36411 81.1348C7.19431 81.1348 7.11159 80.8217 7.11159 80.813C7.11159 80.8087 7.11159 80.8 7.1203 80.8C7.22044 80.7609 7.94317 80.513 7.94317 80.513C7.94317 80.513 8.07813 79.9826 8.09555 79.913C8.11296 79.8435 8.2131 79.7 8.33065 79.6565C8.41773 79.6217 8.50916 79.6 8.60059 79.5913C8.63107 79.5913 8.65284 79.6 8.65284 79.6174C8.65284 79.6348 8.47433 80.4087 8.47433 80.4087C8.47433 80.4087 8.84876 80.3217 8.98808 80.3217C9.09692 80.3217 9.15352 80.387 9.09257 80.4696C9.03162 80.5522 8.96196 80.6478 8.92712 80.6913C8.88794 80.7348 8.86182 80.7435 8.77039 80.7609C8.64413 80.787 8.36113 80.8565 8.36113 80.8565C8.36113 80.8565 8.13473 81.6783 8.13909 81.8174C8.13909 81.8957 8.16521 81.987 8.26099 81.987C8.35678 81.987 8.53964 81.8739 8.67025 81.7913C8.69202 81.1522 9.18835 80.7261 9.57584 80.7261C9.7021 80.7261 9.65421 80.8478 9.79788 80.8478H9.88931C9.94591 80.8478 10.0069 80.8522 10.0069 80.9957C10.0069 81.1957 9.89367 81.5261 9.89367 81.7348C9.89367 81.8826 9.91544 81.987 9.97204 81.987C10.0678 81.987 10.1767 81.8478 10.255 81.7261C10.3813 81.0304 10.734 79.7609 10.734 79.6174L10.747 79.6ZM12.5016 80.7C12.7672 80.6783 12.9326 80.8217 12.9631 80.9C12.9936 80.9783 12.9892 81.1609 12.9152 81.2913C12.6845 81.7044 12.1097 81.6304 12.1097 81.6304C12.1097 81.6304 12.0444 81.9565 12.3405 81.9565C12.593 81.9565 12.7062 81.8304 12.8151 81.7261C12.8586 81.7261 12.9936 81.8652 12.9326 81.9609C12.8847 82.0348 12.6191 82.2565 12.2795 82.2609C11.7397 82.2609 11.6047 81.8 11.6744 81.4696C11.7658 81.0609 12.1751 80.7217 12.5016 80.6957V80.7ZM9.6455 80.987C9.32332 80.987 8.82699 81.9696 9.20577 81.9652C9.61938 81.9652 9.6455 81.1826 9.6455 81.0043V80.987ZM12.6409 80.8913C12.4232 80.9 12.1751 81.3174 12.1533 81.5C12.4798 81.513 12.654 81.1957 12.6757 81.0696C12.6888 80.9739 12.6932 80.887 12.6409 80.887V80.8913Z" fill="#557086"/>
<path d="M40.851 79.0672L39.2521 80.8632C39.1826 80.9428 39.1826 81.0572 39.2521 81.1368L40.846 82.9328C40.9255 83.0224 41.0695 83.0224 41.1539 82.9328L42.7478 81.1368C42.8173 81.0572 42.8173 80.9428 42.7478 80.8632L41.1539 79.0672C41.0744 78.9776 40.9304 78.9776 40.846 79.0672H40.851Z" fill="white"/>
<path d="M41.6604 79.6343L42.142 80.1766L40.568 82.6144L39.704 81.6393L41.6604 79.6343Z" fill="#8EA3B2"/>
<path d="M45.851 79.0672L44.2521 80.8632C44.1826 80.9428 44.1826 81.0572 44.2521 81.1368L45.846 82.9328C45.9255 83.0224 46.0695 83.0224 46.1539 82.9328L47.7478 81.1368C47.8173 81.0572 47.8173 80.9428 47.7478 80.8632L46.1539 79.0672C46.0744 78.9776 45.9304 78.9776 45.846 79.0672H45.851Z" fill="white"/>
<path d="M46.6604 79.6343L47.142 80.1766L45.568 82.6144L44.704 81.6393L46.6604 79.6343Z" fill="#8EA3B2"/>
<path d="M50.851 79.0672L49.2521 80.8632C49.1826 80.9428 49.1826 81.0572 49.2521 81.1368L50.846 82.9328C50.9255 83.0224 51.0695 83.0224 51.1539 82.9328L52.7478 81.1368C52.8173 81.0572 52.8173 80.9428 52.7478 80.8632L51.1539 79.0672C51.0744 78.9776 50.9304 78.9776 50.846 79.0672H50.851Z" fill="white"/>
<path d="M51.6604 79.6343L52.142 80.1766L50.568 82.6144L49.704 81.6393L51.6604 79.6343Z" fill="#8EA3B2"/>
<path d="M55.851 79.0672L54.2521 80.8632C54.1826 80.9428 54.1826 81.0572 54.2521 81.1368L55.846 82.9328C55.9255 83.0224 56.0695 83.0224 56.1539 82.9328L57.7478 81.1368C57.8173 81.0572 57.8173 80.9428 57.7478 80.8632L56.1539 79.0672C56.0744 78.9776 55.9304 78.9776 55.846 79.0672H55.851Z" fill="white"/>
<path d="M56.6604 79.6343L57.142 80.1766L55.568 82.6144L54.704 81.6393L56.6604 79.6343Z" fill="#8EA3B2"/>
<rect x="13" y="62" width="37" height="13" rx="6.5" fill="#2F4553"/>
<path d="M27.3486 70.072C26.1786 70.072 25.6326 69.058 25.6326 68.002C25.6326 66.946 26.1786 65.938 27.3486 65.938C28.5186 65.938 29.0646 66.946 29.0646 68.002C29.0646 69.058 28.5186 70.072 27.3486 70.072ZM27.3486 69.16C27.8286 69.16 28.0206 68.71 28.0206 68.002C28.0206 67.294 27.8286 66.85 27.3486 66.85C26.8686 66.85 26.6766 67.294 26.6766 68.002C26.6766 68.71 26.8686 69.16 27.3486 69.16ZM29.9368 70.072C29.6308 70.072 29.3728 69.814 29.3728 69.508C29.3728 69.202 29.6308 68.944 29.9368 68.944C30.2428 68.944 30.5008 69.202 30.5008 69.508C30.5008 69.814 30.2428 70.072 29.9368 70.072ZM32.604 70.072C31.896 70.072 31.362 69.856 30.99 69.49L31.554 68.77C31.83 69.022 32.208 69.16 32.592 69.16C33.03 69.16 33.246 68.944 33.246 68.698C33.246 68.428 33.036 68.236 32.622 68.236C32.304 68.236 32.052 68.326 31.83 68.536L31.116 68.362V65.998H34.02V66.898H32.148V67.672C32.34 67.486 32.652 67.354 33.006 67.354C33.684 67.354 34.296 67.852 34.296 68.656C34.296 69.52 33.642 70.072 32.604 70.072ZM37.5611 70H36.5471L35.9891 69.124L35.4251 70H34.4171L35.4071 68.512L34.4771 67.102H35.4911L35.9891 67.888L36.4811 67.102H37.4951L36.5711 68.512L37.5611 70Z" fill="white"/>
<path d="M6.835 11.06C5.82 11.06 5.33 10.49 5.33 9.67V7.665H6.05V9.645C6.05 10.11 6.32 10.43 6.835 10.43C7.35 10.43 7.615 10.11 7.615 9.645V7.665H8.34V9.665C8.34 10.495 7.85 11.06 6.835 11.06ZM11.247 11H10.612V9.54C10.612 9.205 10.437 9.09 10.167 9.09C9.91699 9.09 9.72199 9.23 9.61699 9.375V11H8.98199V8.585H9.61699V8.9C9.77199 8.715 10.067 8.525 10.462 8.525C10.992 8.525 11.247 8.825 11.247 9.295V11ZM13.0025 11.06C12.2575 11.06 11.7225 10.535 11.7225 9.79C11.7225 9.05 12.2575 8.525 13.0025 8.525C13.4975 8.525 13.7975 8.74 13.9575 8.96L13.5425 9.35C13.4275 9.18 13.2525 9.09 13.0325 9.09C12.6475 9.09 12.3775 9.37 12.3775 9.79C12.3775 10.21 12.6475 10.495 13.0325 10.495C13.2525 10.495 13.4275 10.395 13.5425 10.235L13.9575 10.62C13.7975 10.845 13.4975 11.06 13.0025 11.06ZM15.4926 11.06C14.6976 11.06 14.2176 10.48 14.2176 9.79C14.2176 9.105 14.6976 8.525 15.4926 8.525C16.2926 8.525 16.7726 9.105 16.7726 9.79C16.7726 10.48 16.2926 11.06 15.4926 11.06ZM15.4926 10.495C15.8876 10.495 16.1126 10.17 16.1126 9.79C16.1126 9.415 15.8876 9.09 15.4926 9.09C15.0976 9.09 14.8776 9.415 14.8776 9.79C14.8776 10.17 15.0976 10.495 15.4926 10.495ZM20.8787 11H20.2387V9.475C20.2387 9.25 20.1387 9.09 19.8787 9.09C19.6537 9.09 19.4687 9.24 19.3787 9.37V11H18.7387V9.475C18.7387 9.25 18.6387 9.09 18.3787 9.09C18.1587 9.09 17.9737 9.24 17.8787 9.375V11H17.2437V8.585H17.8787V8.9C17.9787 8.755 18.2987 8.525 18.6687 8.525C19.0237 8.525 19.2487 8.69 19.3387 8.965C19.4787 8.745 19.7987 8.525 20.1687 8.525C20.6137 8.525 20.8787 8.76 20.8787 9.255V11ZM25.1365 11H24.4965V9.475C24.4965 9.25 24.3965 9.09 24.1365 9.09C23.9115 9.09 23.7265 9.24 23.6365 9.37V11H22.9965V9.475C22.9965 9.25 22.8965 9.09 22.6365 9.09C22.4165 9.09 22.2315 9.24 22.1365 9.375V11H21.5015V8.585H22.1365V8.9C22.2365 8.755 22.5565 8.525 22.9265 8.525C23.2815 8.525 23.5065 8.69 23.5965 8.965C23.7365 8.745 24.0565 8.525 24.4265 8.525C24.8715 8.525 25.1365 8.76 25.1365 9.255V11ZM26.8793 11.06C26.0843 11.06 25.6043 10.48 25.6043 9.79C25.6043 9.105 26.0843 8.525 26.8793 8.525C27.6793 8.525 28.1593 9.105 28.1593 9.79C28.1593 10.48 27.6793 11.06 26.8793 11.06ZM26.8793 10.495C27.2743 10.495 27.4993 10.17 27.4993 9.79C27.4993 9.415 27.2743 9.09 26.8793 9.09C26.4843 9.09 26.2643 9.415 26.2643 9.79C26.2643 10.17 26.4843 10.495 26.8793 10.495ZM30.8954 11H30.2604V9.54C30.2604 9.205 30.0854 9.09 29.8154 9.09C29.5654 9.09 29.3704 9.23 29.2654 9.375V11H28.6304V8.585H29.2654V8.9C29.4204 8.715 29.7154 8.525 30.1104 8.525C30.6404 8.525 30.8954 8.825 30.8954 9.295V11Z" fill="white"/>
<path d="M48.6546 11H48.2026L46.8106 9.096V11H46.3426V8.332H46.8226L48.1866 10.184V8.332H48.6546V11ZM50.0815 11.048C49.4695 11.048 49.0895 10.588 49.0895 10.032C49.0895 9.48 49.4695 9.02 50.0815 9.02C50.7015 9.02 51.0775 9.48 51.0775 10.032C51.0775 10.588 50.7015 11.048 50.0815 11.048ZM50.0815 10.676C50.4415 10.676 50.6415 10.376 50.6415 10.032C50.6415 9.692 50.4415 9.392 50.0815 9.392C49.7255 9.392 49.5255 9.692 49.5255 10.032C49.5255 10.376 49.7255 10.676 50.0815 10.676ZM51.6989 11.044C51.5469 11.044 51.4189 10.916 51.4189 10.764C51.4189 10.612 51.5469 10.484 51.6989 10.484C51.8509 10.484 51.9789 10.612 51.9789 10.764C51.9789 10.916 51.8509 11.044 51.6989 11.044ZM54.2788 11.044C53.9508 11.044 53.6948 10.928 53.5148 10.748L53.7308 10.396C53.8708 10.54 54.0268 10.628 54.2788 10.628C54.7628 10.628 54.9828 10.188 54.9828 9.752C54.9828 9.724 54.9828 9.7 54.9828 9.672C54.8588 9.852 54.5788 10.048 54.2668 10.048C53.7868 10.048 53.3708 9.752 53.3708 9.184C53.3708 8.692 53.7588 8.288 54.3548 8.288C55.1388 8.288 55.4548 8.924 55.4548 9.668C55.4548 10.436 55.0508 11.044 54.2788 11.044ZM54.3908 9.644C54.6188 9.644 54.8428 9.524 54.9748 9.332C54.9508 9.044 54.7908 8.704 54.3788 8.704C54.0308 8.704 53.8468 8.956 53.8468 9.168C53.8468 9.496 54.1028 9.644 54.3908 9.644ZM57.7531 11H55.8211V10.632C56.8571 9.848 57.2611 9.5 57.2611 9.116C57.2611 8.836 57.0211 8.708 56.7771 8.708C56.4651 8.708 56.2251 8.836 56.0571 9.028L55.7851 8.72C56.0211 8.436 56.3971 8.292 56.7691 8.292C57.2851 8.292 57.7371 8.584 57.7371 9.116C57.7371 9.608 57.2851 10.048 56.5691 10.588H57.7531V11Z" fill="white"/>
<defs>
<clipPath id="clip0_26835_29255">
<rect width="63" height="88" fill="white"/>
</clipPath>
</defs>
</svg>
