<svg width="63" height="88" viewBox="0 0 63 88" fill="none" xmlns="http://www.w3.org/2000/svg">
<rect width="63" height="88" rx="4" fill="#047BFF"/>
<path d="M36.7008 13.5133L44.7992 3.48665C45.5586 2.54645 46.7024 2 47.911 2H58C59.6569 2 61 3.34314 61 5V83C61 84.6569 59.6569 86 58 86H5C3.34315 86 2 84.6569 2 83V18C2 16.3431 3.34315 15 5 15H33.589C34.7976 15 35.9414 14.4536 36.7008 13.5133Z" fill="#213743"/>
<rect x="5" y="18" width="53" height="40" rx="1" fill="#2F4553"/>
<g clip-path="url(#clip0_26835_29256)">
<path d="M31.4501 23.8899C20.2701 23.8899 11.2101 31.2699 11.2101 40.3799C11.2101 49.4899 20.2701 56.8699 31.4501 56.8699C42.6301 56.8699 51.6901 49.4899 51.6901 40.3799C51.6901 31.2699 42.6301 23.8899 31.4501 23.8899ZM31.4501 38.1299C28.8101 38.1299 25.3601 36.1799 25.3601 34.4199C26.5201 32.7499 28.8101 31.6099 31.4501 31.6099C34.0901 31.6099 36.3801 32.7499 37.5401 34.4199C37.5401 36.0999 34.0901 38.1299 31.4501 38.1299Z" fill="#1A2C38"/>
<path d="M31.45 20.3499C20.43 20.3499 11.5 27.9699 11.5 37.3799C11.5 46.7899 20.43 54.4099 31.45 54.4099C42.47 54.4099 51.4 46.7899 51.4 37.3799C51.4 27.9699 42.47 20.3499 31.45 20.3499ZM31.45 35.8099C28.85 35.8099 25.45 33.7899 25.45 31.9799C26.59 30.2599 28.85 29.0799 31.45 29.0799C34.05 29.0799 36.31 30.2499 37.45 31.9799C37.45 33.7199 34.05 35.8099 31.45 35.8099Z" fill="#FFEBB8"/>
<path d="M51.88 31.7699V30.8699C51.88 21.2399 42.74 13.4399 31.46 13.4399C20.18 13.4399 11.03 21.2399 11.03 30.8699C11.03 31.2499 11.06 32.5499 11.09 32.9299C11.04 36.6399 11.46 38.7999 12.11 39.3999C12.77 39.9999 25.92 39.4499 29.82 39.4499C32.52 39.4499 46.89 44.9699 48.27 43.0099C49.65 41.0499 50.25 41.1999 51.29 39.9999C52.34 38.7999 51.89 31.7799 51.89 31.7699H51.88ZM31.45 34.8699C28.83 34.8699 26.55 33.6799 25.43 31.9299C25.03 31.3199 24.77 30.6499 24.69 29.9299C24.17 27.6599 26.09 26.2099 26.72 27.9499C27.31 29.5699 29.51 28.5999 29.3 26.8599C29.11 25.2699 32.07 24.6699 32.25 26.9799C32.41 29.0999 34.86 29.3699 35.32 27.4099C35.83 25.2799 38.77 26.6399 38.19 29.9599C38.11 30.6799 37.83 31.3599 37.43 31.9699C36.29 33.6899 34.03 34.8599 31.44 34.8599L31.45 34.8699Z" fill="#E9627D"/>
<path d="M37.4701 31.97C37.4701 31.97 37.4501 31.97 37.4401 31.97C37.8401 31.36 38.1101 30.68 38.2001 29.96C38.7701 26.65 35.8301 25.28 35.3301 27.41C34.8701 29.37 32.4201 29.1 32.2601 26.98C32.0801 24.67 29.1201 25.27 29.3101 26.86C29.5201 28.59 27.3201 29.57 26.7301 27.95C26.0901 26.21 24.1701 27.66 24.7001 29.93C24.7801 30.65 25.0401 31.33 25.4401 31.93C22.3101 30.71 20.7601 27.29 21.5901 24.59C22.0101 23.23 23.0201 21.52 24.6601 20.14C26.3001 18.76 28.5601 17.72 31.4801 17.72H31.5301C37.3701 17.74 40.5801 21.88 41.4301 24.59C42.2701 27.31 40.6701 30.78 37.4901 31.97H37.4701Z" fill="#E9113C"/>
<path d="M11.03 31.1399L11.08 44.9899C11.08 46.7899 12.54 48.2499 14.34 48.2499H14.72C16.31 48.2499 17.6 46.9599 17.6 45.3699C17.6 44.0599 18.66 42.9999 19.97 42.9999C21.28 42.9999 22.34 44.0599 22.34 45.3699V49.7099C22.34 51.3199 23.64 52.6199 25.25 52.6199H25.55C27.16 52.6199 28.46 51.3199 28.46 49.7099C28.46 48.3099 29.59 47.1799 30.99 47.1799C32.18 47.1799 33.15 48.1499 33.15 49.3399V49.6899C33.15 51.4899 34.61 52.9499 36.41 52.9499C38.21 52.9499 39.67 51.4899 39.67 49.6899V45.0299C39.67 43.8099 40.66 42.8099 41.89 42.8099C43.11 42.8099 44.11 43.7999 44.11 45.0299V45.3099C44.11 47.4799 45.87 49.2499 48.05 49.2499C50.22 49.2499 51.99 47.4899 51.99 45.3099L51.89 31.0199C51.89 30.4299 51.53 37.4299 50.94 37.3799L12.31 34.4199C11.65 34.3699 11.05 30.4899 11.05 31.1499L11.03 31.1399Z" fill="#E9627D"/>
<path d="M38.2237 18.3492L35.1664 17.1338C34.5813 16.9012 33.9185 17.1869 33.6859 17.772C33.4533 18.3571 33.7391 19.0199 34.3241 19.2525L37.3814 20.4679C37.9665 20.7005 38.6293 20.4148 38.8619 19.8297C39.0945 19.2446 38.8087 18.5818 38.2237 18.3492Z" fill="white"/>
<path d="M45.7772 30.2908L46.5391 27.0902C46.6849 26.4777 46.3066 25.863 45.6941 25.7172C45.0816 25.5714 44.4669 25.9497 44.3211 26.5622L43.5592 29.7628C43.4134 30.3753 43.7917 30.99 44.4042 31.1358C45.0167 31.2816 45.6314 30.9033 45.7772 30.2908Z" fill="#047BFF"/>
<path d="M21.8433 33.1953L19.4344 30.9544C18.9734 30.5256 18.2521 30.5517 17.8233 31.0127C17.3944 31.4737 17.4205 32.195 17.8815 32.6238L20.2904 34.8647C20.7514 35.2935 21.4727 35.2674 21.9016 34.8064C22.3304 34.3454 22.3043 33.6241 21.8433 33.1953Z" fill="white"/>
<path d="M37.462 39.0532L40.5928 38.042C41.1919 37.8485 41.5207 37.206 41.3272 36.6068C41.1337 36.0077 40.4912 35.6789 39.892 35.8724L36.7613 36.8836C36.1621 37.0771 35.8333 37.7197 36.0268 38.3188C36.2204 38.9179 36.8629 39.2468 37.462 39.0532Z" fill="#FFC201"/>
<path d="M20.7645 23.1616L23.8953 22.1504C24.4944 21.9569 24.8232 21.3144 24.6297 20.7152C24.4362 20.1161 23.7936 19.7873 23.1945 19.9808L20.0638 20.992C19.4646 21.1855 19.1358 21.8281 19.3293 22.4272C19.5228 23.0263 20.1654 23.3552 20.7645 23.1616Z" fill="#FFC201"/>
</g>
<path fill-rule="evenodd" clip-rule="evenodd" d="M6.49771 79C6.98969 79 7.48602 79.213 7.49037 79.6913C7.49037 80.1043 7.24656 80.2696 6.99839 80.2696C6.75023 80.2696 6.73281 80.1435 6.73281 80.1435C6.73281 80.1435 7.02452 79.9261 7.02452 79.7174C7.02452 79.6087 6.94179 79.313 6.489 79.3174C5.8577 79.3174 5.5181 79.6174 5.5181 80.1522C5.5181 80.7652 7.35105 80.9739 7.3554 81.7652C7.3554 82.613 6.47594 82.9957 5.69225 83C5.283 83 5.01306 82.7609 5.00871 82.3783C5.00871 81.9261 5.22204 81.4652 5.75756 81.4652C5.88382 81.4565 5.98831 81.5522 5.99702 81.6783C5.99702 81.6783 5.99702 81.6826 5.99702 81.687C5.99702 81.687 5.45715 81.8391 5.4615 82.3783C5.4615 82.4783 5.56599 82.6609 5.81851 82.6565C6.07103 82.6522 6.82424 82.4739 6.81989 81.8087C6.81989 81.1913 5.00435 81.1087 5 80.1478C5 79.0652 6.08845 79.0087 6.49771 79.0087V79ZM10.747 79.6C10.8123 79.5696 11.2129 79.4913 11.1955 79.813C11.1824 80.1348 10.9386 80.6913 10.9037 80.9348C11.2303 80.7696 11.6918 80.2087 11.6918 80.2087C11.6918 80.2087 12.0183 80.2522 11.9182 80.4522C11.818 80.6522 11.1519 81.1435 11.1519 81.1435C11.1519 81.1435 11.3043 82.5696 12.1707 82.5696C12.6453 82.5696 12.8499 82.3609 12.937 82.287C12.9587 82.2696 12.9762 82.2652 12.9849 82.2783C13.0197 82.387 12.9936 82.5043 12.9152 82.5913C12.8194 82.6957 12.5974 82.8217 12.1533 82.8261C11.3653 82.8261 10.9255 82.1957 10.8123 81.2609C10.7252 81.5348 10.7339 81.9826 10.7209 82.2C10.6948 82.2435 10.2507 82.4174 10.2158 82.1174C10.2158 82.0913 10.2158 82.0696 10.2158 82.0435C10.1331 82.1609 10.0199 82.2826 9.91108 82.2826C9.71951 82.2826 9.63679 82.1217 9.60196 82.0391C9.57584 82.0696 9.3625 82.287 9.08821 82.287C8.92277 82.2913 8.77474 82.1957 8.70943 82.0435C8.57011 82.1435 8.32195 82.2913 8.03895 82.2913C7.73418 82.2913 7.66017 82.1087 7.66017 81.9565C7.66017 81.713 7.84303 80.987 7.84303 80.987C7.84303 80.987 7.48602 81.1304 7.36411 81.1348C7.19431 81.1348 7.11159 80.8217 7.11159 80.813C7.11159 80.8087 7.11159 80.8 7.1203 80.8C7.22044 80.7609 7.94317 80.513 7.94317 80.513C7.94317 80.513 8.07813 79.9826 8.09555 79.913C8.11296 79.8435 8.2131 79.7 8.33065 79.6565C8.41773 79.6217 8.50916 79.6 8.60059 79.5913C8.63107 79.5913 8.65284 79.6 8.65284 79.6174C8.65284 79.6348 8.47433 80.4087 8.47433 80.4087C8.47433 80.4087 8.84876 80.3217 8.98808 80.3217C9.09692 80.3217 9.15352 80.387 9.09257 80.4696C9.03162 80.5522 8.96196 80.6478 8.92712 80.6913C8.88794 80.7348 8.86182 80.7435 8.77039 80.7609C8.64413 80.787 8.36113 80.8565 8.36113 80.8565C8.36113 80.8565 8.13473 81.6783 8.13909 81.8174C8.13909 81.8957 8.16521 81.987 8.26099 81.987C8.35678 81.987 8.53964 81.8739 8.67025 81.7913C8.69202 81.1522 9.18835 80.7261 9.57584 80.7261C9.7021 80.7261 9.65421 80.8478 9.79788 80.8478H9.88931C9.94591 80.8478 10.0069 80.8522 10.0069 80.9957C10.0069 81.1957 9.89367 81.5261 9.89367 81.7348C9.89367 81.8826 9.91544 81.987 9.97204 81.987C10.0678 81.987 10.1767 81.8478 10.255 81.7261C10.3813 81.0304 10.734 79.7609 10.734 79.6174L10.747 79.6ZM12.5016 80.7C12.7672 80.6783 12.9326 80.8217 12.9631 80.9C12.9936 80.9783 12.9892 81.1609 12.9152 81.2913C12.6845 81.7044 12.1097 81.6304 12.1097 81.6304C12.1097 81.6304 12.0444 81.9565 12.3405 81.9565C12.593 81.9565 12.7062 81.8304 12.8151 81.7261C12.8586 81.7261 12.9936 81.8652 12.9326 81.9609C12.8847 82.0348 12.6191 82.2565 12.2795 82.2609C11.7397 82.2609 11.6047 81.8 11.6744 81.4696C11.7658 81.0609 12.1751 80.7217 12.5016 80.6957V80.7ZM9.6455 80.987C9.32332 80.987 8.82699 81.9696 9.20577 81.9652C9.61938 81.9652 9.6455 81.1826 9.6455 81.0043V80.987ZM12.6409 80.8913C12.4232 80.9 12.1751 81.3174 12.1533 81.5C12.4798 81.513 12.654 81.1957 12.6757 81.0696C12.6888 80.9739 12.6932 80.887 12.6409 80.887V80.8913Z" fill="#557086"/>
<path d="M40.851 79.0672L39.2521 80.8632C39.1826 80.9428 39.1826 81.0572 39.2521 81.1368L40.846 82.9328C40.9255 83.0224 41.0695 83.0224 41.1539 82.9328L42.7478 81.1368C42.8173 81.0572 42.8173 80.9428 42.7478 80.8632L41.1539 79.0672C41.0744 78.9776 40.9304 78.9776 40.846 79.0672H40.851Z" fill="white"/>
<path d="M41.6604 79.6343L42.142 80.1766L40.568 82.6144L39.704 81.6393L41.6604 79.6343Z" fill="#8EA3B2"/>
<path d="M45.851 79.0672L44.2521 80.8632C44.1826 80.9428 44.1826 81.0572 44.2521 81.1368L45.846 82.9328C45.9255 83.0224 46.0695 83.0224 46.1539 82.9328L47.7478 81.1368C47.8173 81.0572 47.8173 80.9428 47.7478 80.8632L46.1539 79.0672C46.0744 78.9776 45.9304 78.9776 45.846 79.0672H45.851Z" fill="white"/>
<path d="M46.6604 79.6343L47.142 80.1766L45.568 82.6144L44.704 81.6393L46.6604 79.6343Z" fill="#8EA3B2"/>
<path d="M50.851 79.0672L49.2521 80.8632C49.1826 80.9428 49.1826 81.0572 49.2521 81.1368L50.846 82.9328C50.9255 83.0224 51.0695 83.0224 51.1539 82.9328L52.7478 81.1368C52.8173 81.0572 52.8173 80.9428 52.7478 80.8632L51.1539 79.0672C51.0744 78.9776 50.9304 78.9776 50.846 79.0672H50.851Z" fill="white"/>
<path d="M51.6604 79.6343L52.142 80.1766L50.568 82.6144L49.704 81.6393L51.6604 79.6343Z" fill="#8EA3B2"/>
<path d="M55.851 79.0672L54.2521 80.8632C54.1826 80.9428 54.1826 81.0572 54.2521 81.1368L55.846 82.9328C55.9255 83.0224 56.0695 83.0224 56.1539 82.9328L57.7478 81.1368C57.8173 81.0572 57.8173 80.9428 57.7478 80.8632L56.1539 79.0672C56.0744 78.9776 55.9304 78.9776 55.846 79.0672H55.851Z" fill="white"/>
<path d="M56.6604 79.6343L57.142 80.1766L55.568 82.6144L54.704 81.6393L56.6604 79.6343Z" fill="#8EA3B2"/>
<rect x="13" y="62" width="37" height="13" rx="6.5" fill="#2F4553"/>
<path d="M27.3486 70.072C26.1786 70.072 25.6326 69.058 25.6326 68.002C25.6326 66.946 26.1786 65.938 27.3486 65.938C28.5186 65.938 29.0646 66.946 29.0646 68.002C29.0646 69.058 28.5186 70.072 27.3486 70.072ZM27.3486 69.16C27.8286 69.16 28.0206 68.71 28.0206 68.002C28.0206 67.294 27.8286 66.85 27.3486 66.85C26.8686 66.85 26.6766 67.294 26.6766 68.002C26.6766 68.71 26.8686 69.16 27.3486 69.16ZM29.9368 70.072C29.6308 70.072 29.3728 69.814 29.3728 69.508C29.3728 69.202 29.6308 68.944 29.9368 68.944C30.2428 68.944 30.5008 69.202 30.5008 69.508C30.5008 69.814 30.2428 70.072 29.9368 70.072ZM32.604 70.072C31.896 70.072 31.362 69.856 30.99 69.49L31.554 68.77C31.83 69.022 32.208 69.16 32.592 69.16C33.03 69.16 33.246 68.944 33.246 68.698C33.246 68.428 33.036 68.236 32.622 68.236C32.304 68.236 32.052 68.326 31.83 68.536L31.116 68.362V65.998H34.02V66.898H32.148V67.672C32.34 67.486 32.652 67.354 33.006 67.354C33.684 67.354 34.296 67.852 34.296 68.656C34.296 69.52 33.642 70.072 32.604 70.072ZM37.5611 70H36.5471L35.9891 69.124L35.4251 70H34.4171L35.4071 68.512L34.4771 67.102H35.4911L35.9891 67.888L36.4811 67.102H37.4951L36.5711 68.512L37.5611 70Z" fill="white"/>
<path d="M6.835 11.06C5.82 11.06 5.33 10.49 5.33 9.67V7.665H6.05V9.645C6.05 10.11 6.32 10.43 6.835 10.43C7.35 10.43 7.615 10.11 7.615 9.645V7.665H8.34V9.665C8.34 10.495 7.85 11.06 6.835 11.06ZM11.247 11H10.612V9.54C10.612 9.205 10.437 9.09 10.167 9.09C9.91699 9.09 9.72199 9.23 9.61699 9.375V11H8.98199V8.585H9.61699V8.9C9.77199 8.715 10.067 8.525 10.462 8.525C10.992 8.525 11.247 8.825 11.247 9.295V11ZM13.0025 11.06C12.2575 11.06 11.7225 10.535 11.7225 9.79C11.7225 9.05 12.2575 8.525 13.0025 8.525C13.4975 8.525 13.7975 8.74 13.9575 8.96L13.5425 9.35C13.4275 9.18 13.2525 9.09 13.0325 9.09C12.6475 9.09 12.3775 9.37 12.3775 9.79C12.3775 10.21 12.6475 10.495 13.0325 10.495C13.2525 10.495 13.4275 10.395 13.5425 10.235L13.9575 10.62C13.7975 10.845 13.4975 11.06 13.0025 11.06ZM15.4926 11.06C14.6976 11.06 14.2176 10.48 14.2176 9.79C14.2176 9.105 14.6976 8.525 15.4926 8.525C16.2926 8.525 16.7726 9.105 16.7726 9.79C16.7726 10.48 16.2926 11.06 15.4926 11.06ZM15.4926 10.495C15.8876 10.495 16.1126 10.17 16.1126 9.79C16.1126 9.415 15.8876 9.09 15.4926 9.09C15.0976 9.09 14.8776 9.415 14.8776 9.79C14.8776 10.17 15.0976 10.495 15.4926 10.495ZM20.8787 11H20.2387V9.475C20.2387 9.25 20.1387 9.09 19.8787 9.09C19.6537 9.09 19.4687 9.24 19.3787 9.37V11H18.7387V9.475C18.7387 9.25 18.6387 9.09 18.3787 9.09C18.1587 9.09 17.9737 9.24 17.8787 9.375V11H17.2437V8.585H17.8787V8.9C17.9787 8.755 18.2987 8.525 18.6687 8.525C19.0237 8.525 19.2487 8.69 19.3387 8.965C19.4787 8.745 19.7987 8.525 20.1687 8.525C20.6137 8.525 20.8787 8.76 20.8787 9.255V11ZM25.1365 11H24.4965V9.475C24.4965 9.25 24.3965 9.09 24.1365 9.09C23.9115 9.09 23.7265 9.24 23.6365 9.37V11H22.9965V9.475C22.9965 9.25 22.8965 9.09 22.6365 9.09C22.4165 9.09 22.2315 9.24 22.1365 9.375V11H21.5015V8.585H22.1365V8.9C22.2365 8.755 22.5565 8.525 22.9265 8.525C23.2815 8.525 23.5065 8.69 23.5965 8.965C23.7365 8.745 24.0565 8.525 24.4265 8.525C24.8715 8.525 25.1365 8.76 25.1365 9.255V11ZM26.8793 11.06C26.0843 11.06 25.6043 10.48 25.6043 9.79C25.6043 9.105 26.0843 8.525 26.8793 8.525C27.6793 8.525 28.1593 9.105 28.1593 9.79C28.1593 10.48 27.6793 11.06 26.8793 11.06ZM26.8793 10.495C27.2743 10.495 27.4993 10.17 27.4993 9.79C27.4993 9.415 27.2743 9.09 26.8793 9.09C26.4843 9.09 26.2643 9.415 26.2643 9.79C26.2643 10.17 26.4843 10.495 26.8793 10.495ZM30.8954 11H30.2604V9.54C30.2604 9.205 30.0854 9.09 29.8154 9.09C29.5654 9.09 29.3704 9.23 29.2654 9.375V11H28.6304V8.585H29.2654V8.9C29.4204 8.715 29.7154 8.525 30.1104 8.525C30.6404 8.525 30.8954 8.825 30.8954 9.295V11Z" fill="white"/>
<path d="M48.7366 11H48.2846L46.8926 9.096V11H46.4246V8.332H46.9046L48.2686 10.184V8.332H48.7366V11ZM50.1635 11.048C49.5515 11.048 49.1715 10.588 49.1715 10.032C49.1715 9.48 49.5515 9.02 50.1635 9.02C50.7835 9.02 51.1595 9.48 51.1595 10.032C51.1595 10.588 50.7835 11.048 50.1635 11.048ZM50.1635 10.676C50.5235 10.676 50.7235 10.376 50.7235 10.032C50.7235 9.692 50.5235 9.392 50.1635 9.392C49.8075 9.392 49.6075 9.692 49.6075 10.032C49.6075 10.376 49.8075 10.676 50.1635 10.676ZM51.781 11.044C51.629 11.044 51.501 10.916 51.501 10.764C51.501 10.612 51.629 10.484 51.781 10.484C51.933 10.484 52.061 10.612 52.061 10.764C52.061 10.916 51.933 11.044 51.781 11.044ZM54.3608 11.044C54.0328 11.044 53.7768 10.928 53.5968 10.748L53.8128 10.396C53.9528 10.54 54.1088 10.628 54.3608 10.628C54.8448 10.628 55.0648 10.188 55.0648 9.752C55.0648 9.724 55.0648 9.7 55.0648 9.672C54.9408 9.852 54.6608 10.048 54.3488 10.048C53.8688 10.048 53.4528 9.752 53.4528 9.184C53.4528 8.692 53.8408 8.288 54.4368 8.288C55.2208 8.288 55.5368 8.924 55.5368 9.668C55.5368 10.436 55.1328 11.044 54.3608 11.044ZM54.4728 9.644C54.7008 9.644 54.9248 9.524 55.0568 9.332C55.0328 9.044 54.8728 8.704 54.4608 8.704C54.1128 8.704 53.9288 8.956 53.9288 9.168C53.9288 9.496 54.1848 9.644 54.4728 9.644ZM56.8071 11.048C56.3311 11.048 55.9791 10.856 55.7991 10.616L56.0511 10.308C56.2231 10.508 56.5071 10.632 56.7911 10.632C57.1431 10.632 57.3471 10.472 57.3471 10.224C57.3471 9.96 57.1351 9.848 56.7551 9.848C56.6431 9.848 56.4871 9.848 56.4471 9.852V9.432C56.4951 9.436 56.6511 9.436 56.7551 9.436C57.0671 9.436 57.3031 9.328 57.3031 9.084C57.3031 8.836 57.0631 8.708 56.7631 8.708C56.4911 8.708 56.2671 8.812 56.0751 9.004L55.8351 8.712C56.0391 8.472 56.3631 8.292 56.8071 8.292C57.3831 8.292 57.7711 8.564 57.7711 9.012C57.7711 9.368 57.4671 9.576 57.1911 9.624C57.4511 9.648 57.8111 9.86 57.8111 10.272C57.8111 10.724 57.4231 11.048 56.8071 11.048Z" fill="white"/>
<defs>
<clipPath id="clip0_26835_29256">
<rect width="63" height="88" fill="white"/>
</clipPath>
</defs>
</svg>
