<svg width="63" height="88" viewBox="0 0 63 88" fill="none" xmlns="http://www.w3.org/2000/svg">
<rect width="63" height="88" rx="4" fill="#047BFF"/>
<path d="M36.7008 13.5133L44.7992 3.48665C45.5586 2.54645 46.7024 2 47.911 2H58C59.6569 2 61 3.34314 61 5V83C61 84.6569 59.6569 86 58 86H5C3.34315 86 2 84.6569 2 83V18C2 16.3431 3.34315 15 5 15H33.589C34.7976 15 35.9414 14.4536 36.7008 13.5133Z" fill="#213743"/>
<rect x="5" y="18" width="53" height="40" rx="1" fill="#2F4553"/>
<g clip-path="url(#clip0_26835_29257)">
<path d="M50.46 29.3501L12.4 41.6201C20.01 45.8801 31.8 55.5201 31.8 55.5201L51.56 44.1501C55.23 42.3901 54.21 32.6501 50.46 29.3501Z" fill="#FFC201"/>
<path d="M10.5701 37.4001L16.5201 34.3L31.5501 50.94L15.0401 42.41L10.5701 37.4001Z" fill="#1A2C38"/>
<path d="M30.3601 40.8999L10.2001 26.9399V30.7799L14.8801 34.5599L10.2001 31.6599V34.1499C10.2001 34.5399 10.4001 34.9099 10.7301 35.1299L26.1501 45.3899C27.8601 46.5699 26.7901 47.7799 25.9901 47.2799C23.1901 45.4999 14.7801 39.8999 11.1101 37.4499C10.7201 37.1899 10.2001 37.4699 10.2001 37.9399V42.6799C10.2001 43.3299 10.5301 43.9299 11.0701 44.2799L27.9601 55.1999C35.5901 59.5299 34.7401 43.8099 30.3601 40.8999Z" fill="#FF7F00"/>
<path d="M30.36 40.9001L10.6 27.7601C10.04 27.3901 10.07 26.5501 10.66 26.2201L29.79 15.6001L50.46 29.3401L30.36 40.9001Z" fill="#FFEBB8"/>
<path d="M32.63 13.72C32.26 13.41 31.75 13.35 31.33 13.57C28.14 15.24 14.95 22.15 11.33 24.1C10.7 24.44 10.88 25.29 11.21 25.57C15.86 29.53 24.93 37.32 30.36 40.91L46.34 35.23L50.47 29.35C50.47 29.35 38.48 18.72 32.63 13.72Z" fill="#FFC201"/>
<path d="M30.69 38.28C26.77 35.56 21.35 31.07 17 27.4C18.48 26.62 18.69 24.6 17.42 23.52C19.97 22.17 23.63 20.25 28.85 17.51C30.32 18.78 32.41 19.02 34.12 18.12C38.66 22.07 44.54 27.26 47.31 29.71L44.82 33.25L30.68 38.28H30.69Z" fill="#FFEBB8"/>
<path d="M30.6901 38.2801C33.2601 39.8701 36.4501 43.3301 35.9601 48.8701C35.9601 48.8701 38.3101 41.6301 43.7101 38.5301C49.5701 35.1501 51.7101 38.5301 51.7101 38.5301C51.7101 38.5301 52.1901 34.0001 47.3301 29.7201C42.4701 25.4401 30.7001 38.2901 30.7001 38.2901L30.6901 38.2801Z" fill="#FFEBB8"/>
<path d="M36.87 25.1299C39.91 26.7599 41.35 30.2399 40.09 32.8899C38.83 35.5499 35.34 36.3799 32.3 34.7499C29.26 33.1199 27.82 29.6399 29.08 26.9899C30.34 24.3299 33.83 23.4999 36.87 25.1299Z" fill="#FFC201"/>
<path d="M26.58 38.2799L26.54 54.2899L25.22 53.4299L24.13 35.0799L46.02 25.4099L26.58 38.2799Z" fill="#1A2C38"/>
<path d="M42.47 22.2701L21.71 33.8601C21.34 34.0701 21.11 34.4601 21.11 34.8901V50.7801C21.12 52.0101 25.23 54.2801 25.22 53.4401L25.2 37.6501C25.2 37.2201 25.43 36.8301 25.81 36.6201L46.02 25.4101C47.18 24.7801 43.71 21.6001 42.47 22.2801V22.2701Z" fill="#047BFF"/>
<path d="M24.6833 36.9684C24.8847 36.6514 24.3944 35.979 23.588 35.4665C22.7816 34.954 21.9647 34.7954 21.7632 35.1124C21.5617 35.4293 22.0521 36.1018 22.8585 36.6143C23.6648 37.1268 24.4818 37.2853 24.6833 36.9684Z" fill="white"/>
</g>
<path fill-rule="evenodd" clip-rule="evenodd" d="M6.49771 79C6.98969 79 7.48602 79.213 7.49037 79.6913C7.49037 80.1043 7.24656 80.2696 6.99839 80.2696C6.75023 80.2696 6.73281 80.1435 6.73281 80.1435C6.73281 80.1435 7.02452 79.9261 7.02452 79.7174C7.02452 79.6087 6.94179 79.313 6.489 79.3174C5.8577 79.3174 5.5181 79.6174 5.5181 80.1522C5.5181 80.7652 7.35105 80.9739 7.3554 81.7652C7.3554 82.613 6.47594 82.9957 5.69225 83C5.283 83 5.01306 82.7609 5.00871 82.3783C5.00871 81.9261 5.22204 81.4652 5.75756 81.4652C5.88382 81.4565 5.98831 81.5522 5.99702 81.6783C5.99702 81.6783 5.99702 81.6826 5.99702 81.687C5.99702 81.687 5.45715 81.8391 5.4615 82.3783C5.4615 82.4783 5.56599 82.6609 5.81851 82.6565C6.07103 82.6522 6.82424 82.4739 6.81989 81.8087C6.81989 81.1913 5.00435 81.1087 5 80.1478C5 79.0652 6.08845 79.0087 6.49771 79.0087V79ZM10.747 79.6C10.8123 79.5696 11.2129 79.4913 11.1955 79.813C11.1824 80.1348 10.9386 80.6913 10.9037 80.9348C11.2303 80.7696 11.6918 80.2087 11.6918 80.2087C11.6918 80.2087 12.0183 80.2522 11.9182 80.4522C11.818 80.6522 11.1519 81.1435 11.1519 81.1435C11.1519 81.1435 11.3043 82.5696 12.1707 82.5696C12.6453 82.5696 12.8499 82.3609 12.937 82.287C12.9587 82.2696 12.9762 82.2652 12.9849 82.2783C13.0197 82.387 12.9936 82.5043 12.9152 82.5913C12.8194 82.6957 12.5974 82.8217 12.1533 82.8261C11.3653 82.8261 10.9255 82.1957 10.8123 81.2609C10.7252 81.5348 10.7339 81.9826 10.7209 82.2C10.6948 82.2435 10.2507 82.4174 10.2158 82.1174C10.2158 82.0913 10.2158 82.0696 10.2158 82.0435C10.1331 82.1609 10.0199 82.2826 9.91108 82.2826C9.71951 82.2826 9.63679 82.1217 9.60196 82.0391C9.57584 82.0696 9.3625 82.287 9.08821 82.287C8.92277 82.2913 8.77474 82.1957 8.70943 82.0435C8.57011 82.1435 8.32195 82.2913 8.03895 82.2913C7.73418 82.2913 7.66017 82.1087 7.66017 81.9565C7.66017 81.713 7.84303 80.987 7.84303 80.987C7.84303 80.987 7.48602 81.1304 7.36411 81.1348C7.19431 81.1348 7.11159 80.8217 7.11159 80.813C7.11159 80.8087 7.11159 80.8 7.1203 80.8C7.22044 80.7609 7.94317 80.513 7.94317 80.513C7.94317 80.513 8.07813 79.9826 8.09555 79.913C8.11296 79.8435 8.2131 79.7 8.33065 79.6565C8.41773 79.6217 8.50916 79.6 8.60059 79.5913C8.63107 79.5913 8.65284 79.6 8.65284 79.6174C8.65284 79.6348 8.47433 80.4087 8.47433 80.4087C8.47433 80.4087 8.84876 80.3217 8.98808 80.3217C9.09692 80.3217 9.15352 80.387 9.09257 80.4696C9.03162 80.5522 8.96196 80.6478 8.92712 80.6913C8.88794 80.7348 8.86182 80.7435 8.77039 80.7609C8.64413 80.787 8.36113 80.8565 8.36113 80.8565C8.36113 80.8565 8.13473 81.6783 8.13909 81.8174C8.13909 81.8957 8.16521 81.987 8.26099 81.987C8.35678 81.987 8.53964 81.8739 8.67025 81.7913C8.69202 81.1522 9.18835 80.7261 9.57584 80.7261C9.7021 80.7261 9.65421 80.8478 9.79788 80.8478H9.88931C9.94591 80.8478 10.0069 80.8522 10.0069 80.9957C10.0069 81.1957 9.89367 81.5261 9.89367 81.7348C9.89367 81.8826 9.91544 81.987 9.97204 81.987C10.0678 81.987 10.1767 81.8478 10.255 81.7261C10.3813 81.0304 10.734 79.7609 10.734 79.6174L10.747 79.6ZM12.5016 80.7C12.7672 80.6783 12.9326 80.8217 12.9631 80.9C12.9936 80.9783 12.9892 81.1609 12.9152 81.2913C12.6845 81.7044 12.1097 81.6304 12.1097 81.6304C12.1097 81.6304 12.0444 81.9565 12.3405 81.9565C12.593 81.9565 12.7062 81.8304 12.8151 81.7261C12.8586 81.7261 12.9936 81.8652 12.9326 81.9609C12.8847 82.0348 12.6191 82.2565 12.2795 82.2609C11.7397 82.2609 11.6047 81.8 11.6744 81.4696C11.7658 81.0609 12.1751 80.7217 12.5016 80.6957V80.7ZM9.6455 80.987C9.32332 80.987 8.82699 81.9696 9.20577 81.9652C9.61938 81.9652 9.6455 81.1826 9.6455 81.0043V80.987ZM12.6409 80.8913C12.4232 80.9 12.1751 81.3174 12.1533 81.5C12.4798 81.513 12.654 81.1957 12.6757 81.0696C12.6888 80.9739 12.6932 80.887 12.6409 80.887V80.8913Z" fill="#557086"/>
<path d="M40.851 79.0672L39.2521 80.8632C39.1826 80.9428 39.1826 81.0572 39.2521 81.1368L40.846 82.9328C40.9255 83.0224 41.0695 83.0224 41.1539 82.9328L42.7478 81.1368C42.8173 81.0572 42.8173 80.9428 42.7478 80.8632L41.1539 79.0672C41.0744 78.9776 40.9304 78.9776 40.846 79.0672H40.851Z" fill="white"/>
<path d="M41.6604 79.6343L42.142 80.1766L40.568 82.6144L39.704 81.6393L41.6604 79.6343Z" fill="#8EA3B2"/>
<path d="M45.851 79.0672L44.2521 80.8632C44.1826 80.9428 44.1826 81.0572 44.2521 81.1368L45.846 82.9328C45.9255 83.0224 46.0695 83.0224 46.1539 82.9328L47.7478 81.1368C47.8173 81.0572 47.8173 80.9428 47.7478 80.8632L46.1539 79.0672C46.0744 78.9776 45.9304 78.9776 45.846 79.0672H45.851Z" fill="white"/>
<path d="M46.6604 79.6343L47.142 80.1766L45.568 82.6144L44.704 81.6393L46.6604 79.6343Z" fill="#8EA3B2"/>
<path d="M50.851 79.0672L49.2521 80.8632C49.1826 80.9428 49.1826 81.0572 49.2521 81.1368L50.846 82.9328C50.9255 83.0224 51.0695 83.0224 51.1539 82.9328L52.7478 81.1368C52.8173 81.0572 52.8173 80.9428 52.7478 80.8632L51.1539 79.0672C51.0744 78.9776 50.9304 78.9776 50.846 79.0672H50.851Z" fill="white"/>
<path d="M51.6604 79.6343L52.142 80.1766L50.568 82.6144L49.704 81.6393L51.6604 79.6343Z" fill="#8EA3B2"/>
<path d="M55.851 79.0672L54.2521 80.8632C54.1826 80.9428 54.1826 81.0572 54.2521 81.1368L55.846 82.9328C55.9255 83.0224 56.0695 83.0224 56.1539 82.9328L57.7478 81.1368C57.8173 81.0572 57.8173 80.9428 57.7478 80.8632L56.1539 79.0672C56.0744 78.9776 55.9304 78.9776 55.846 79.0672H55.851Z" fill="white"/>
<path d="M56.6604 79.6343L57.142 80.1766L55.568 82.6144L54.704 81.6393L56.6604 79.6343Z" fill="#8EA3B2"/>
<rect x="13" y="62" width="37" height="13" rx="6.5" fill="#2F4553"/>
<path d="M27.3486 70.072C26.1786 70.072 25.6326 69.058 25.6326 68.002C25.6326 66.946 26.1786 65.938 27.3486 65.938C28.5186 65.938 29.0646 66.946 29.0646 68.002C29.0646 69.058 28.5186 70.072 27.3486 70.072ZM27.3486 69.16C27.8286 69.16 28.0206 68.71 28.0206 68.002C28.0206 67.294 27.8286 66.85 27.3486 66.85C26.8686 66.85 26.6766 67.294 26.6766 68.002C26.6766 68.71 26.8686 69.16 27.3486 69.16ZM29.9368 70.072C29.6308 70.072 29.3728 69.814 29.3728 69.508C29.3728 69.202 29.6308 68.944 29.9368 68.944C30.2428 68.944 30.5008 69.202 30.5008 69.508C30.5008 69.814 30.2428 70.072 29.9368 70.072ZM32.604 70.072C31.896 70.072 31.362 69.856 30.99 69.49L31.554 68.77C31.83 69.022 32.208 69.16 32.592 69.16C33.03 69.16 33.246 68.944 33.246 68.698C33.246 68.428 33.036 68.236 32.622 68.236C32.304 68.236 32.052 68.326 31.83 68.536L31.116 68.362V65.998H34.02V66.898H32.148V67.672C32.34 67.486 32.652 67.354 33.006 67.354C33.684 67.354 34.296 67.852 34.296 68.656C34.296 69.52 33.642 70.072 32.604 70.072ZM37.5611 70H36.5471L35.9891 69.124L35.4251 70H34.4171L35.4071 68.512L34.4771 67.102H35.4911L35.9891 67.888L36.4811 67.102H37.4951L36.5711 68.512L37.5611 70Z" fill="white"/>
<path d="M6.835 11.06C5.82 11.06 5.33 10.49 5.33 9.67V7.665H6.05V9.645C6.05 10.11 6.32 10.43 6.835 10.43C7.35 10.43 7.615 10.11 7.615 9.645V7.665H8.34V9.665C8.34 10.495 7.85 11.06 6.835 11.06ZM11.247 11H10.612V9.54C10.612 9.205 10.437 9.09 10.167 9.09C9.91699 9.09 9.72199 9.23 9.61699 9.375V11H8.98199V8.585H9.61699V8.9C9.77199 8.715 10.067 8.525 10.462 8.525C10.992 8.525 11.247 8.825 11.247 9.295V11ZM13.0025 11.06C12.2575 11.06 11.7225 10.535 11.7225 9.79C11.7225 9.05 12.2575 8.525 13.0025 8.525C13.4975 8.525 13.7975 8.74 13.9575 8.96L13.5425 9.35C13.4275 9.18 13.2525 9.09 13.0325 9.09C12.6475 9.09 12.3775 9.37 12.3775 9.79C12.3775 10.21 12.6475 10.495 13.0325 10.495C13.2525 10.495 13.4275 10.395 13.5425 10.235L13.9575 10.62C13.7975 10.845 13.4975 11.06 13.0025 11.06ZM15.4926 11.06C14.6976 11.06 14.2176 10.48 14.2176 9.79C14.2176 9.105 14.6976 8.525 15.4926 8.525C16.2926 8.525 16.7726 9.105 16.7726 9.79C16.7726 10.48 16.2926 11.06 15.4926 11.06ZM15.4926 10.495C15.8876 10.495 16.1126 10.17 16.1126 9.79C16.1126 9.415 15.8876 9.09 15.4926 9.09C15.0976 9.09 14.8776 9.415 14.8776 9.79C14.8776 10.17 15.0976 10.495 15.4926 10.495ZM20.8787 11H20.2387V9.475C20.2387 9.25 20.1387 9.09 19.8787 9.09C19.6537 9.09 19.4687 9.24 19.3787 9.37V11H18.7387V9.475C18.7387 9.25 18.6387 9.09 18.3787 9.09C18.1587 9.09 17.9737 9.24 17.8787 9.375V11H17.2437V8.585H17.8787V8.9C17.9787 8.755 18.2987 8.525 18.6687 8.525C19.0237 8.525 19.2487 8.69 19.3387 8.965C19.4787 8.745 19.7987 8.525 20.1687 8.525C20.6137 8.525 20.8787 8.76 20.8787 9.255V11ZM25.1365 11H24.4965V9.475C24.4965 9.25 24.3965 9.09 24.1365 9.09C23.9115 9.09 23.7265 9.24 23.6365 9.37V11H22.9965V9.475C22.9965 9.25 22.8965 9.09 22.6365 9.09C22.4165 9.09 22.2315 9.24 22.1365 9.375V11H21.5015V8.585H22.1365V8.9C22.2365 8.755 22.5565 8.525 22.9265 8.525C23.2815 8.525 23.5065 8.69 23.5965 8.965C23.7365 8.745 24.0565 8.525 24.4265 8.525C24.8715 8.525 25.1365 8.76 25.1365 9.255V11ZM26.8793 11.06C26.0843 11.06 25.6043 10.48 25.6043 9.79C25.6043 9.105 26.0843 8.525 26.8793 8.525C27.6793 8.525 28.1593 9.105 28.1593 9.79C28.1593 10.48 27.6793 11.06 26.8793 11.06ZM26.8793 10.495C27.2743 10.495 27.4993 10.17 27.4993 9.79C27.4993 9.415 27.2743 9.09 26.8793 9.09C26.4843 9.09 26.2643 9.415 26.2643 9.79C26.2643 10.17 26.4843 10.495 26.8793 10.495ZM30.8954 11H30.2604V9.54C30.2604 9.205 30.0854 9.09 29.8154 9.09C29.5654 9.09 29.3704 9.23 29.2654 9.375V11H28.6304V8.585H29.2654V8.9C29.4204 8.715 29.7154 8.525 30.1104 8.525C30.6404 8.525 30.8954 8.825 30.8954 9.295V11Z" fill="white"/>
<path d="M48.7132 11H48.2612L46.8692 9.096V11H46.4012V8.332H46.8812L48.2452 10.184V8.332H48.7132V11ZM50.1401 11.048C49.5281 11.048 49.1481 10.588 49.1481 10.032C49.1481 9.48 49.5281 9.02 50.1401 9.02C50.7601 9.02 51.1361 9.48 51.1361 10.032C51.1361 10.588 50.7601 11.048 50.1401 11.048ZM50.1401 10.676C50.5001 10.676 50.7001 10.376 50.7001 10.032C50.7001 9.692 50.5001 9.392 50.1401 9.392C49.7841 9.392 49.5841 9.692 49.5841 10.032C49.5841 10.376 49.7841 10.676 50.1401 10.676ZM51.7575 11.044C51.6055 11.044 51.4775 10.916 51.4775 10.764C51.4775 10.612 51.6055 10.484 51.7575 10.484C51.9095 10.484 52.0375 10.612 52.0375 10.764C52.0375 10.916 51.9095 11.044 51.7575 11.044ZM54.3373 11.044C54.0093 11.044 53.7533 10.928 53.5733 10.748L53.7893 10.396C53.9293 10.54 54.0853 10.628 54.3373 10.628C54.8213 10.628 55.0413 10.188 55.0413 9.752C55.0413 9.724 55.0413 9.7 55.0413 9.672C54.9173 9.852 54.6373 10.048 54.3253 10.048C53.8453 10.048 53.4293 9.752 53.4293 9.184C53.4293 8.692 53.8173 8.288 54.4133 8.288C55.1973 8.288 55.5133 8.924 55.5133 9.668C55.5133 10.436 55.1093 11.044 54.3373 11.044ZM54.4493 9.644C54.6773 9.644 54.9013 9.524 55.0333 9.332C55.0093 9.044 54.8493 8.704 54.4373 8.704C54.0893 8.704 53.9053 8.956 53.9053 9.168C53.9053 9.496 54.1613 9.644 54.4493 9.644ZM57.5317 11H57.0637V10.396H55.7917V10.02L56.8877 8.332H57.5317V9.984H57.8877V10.396H57.5317V11ZM57.0637 9.984V8.752L56.2517 9.984H57.0637Z" fill="white"/>
<defs>
<clipPath id="clip0_26835_29257">
<rect width="63" height="88" fill="white"/>
</clipPath>
</defs>
</svg>
