<svg width="63" height="88" viewBox="0 0 63 88" fill="none" xmlns="http://www.w3.org/2000/svg">
<rect width="63" height="88" rx="4" fill="#047BFF"/>
<path d="M36.7008 13.5133L44.7992 3.48665C45.5586 2.54645 46.7024 2 47.911 2H58C59.6569 2 61 3.34314 61 5V83C61 84.6569 59.6569 86 58 86H5C3.34315 86 2 84.6569 2 83V18C2 16.3431 3.34315 15 5 15H33.589C34.7976 15 35.9414 14.4536 36.7008 13.5133Z" fill="#213743"/>
<rect x="5" y="18" width="53" height="40" rx="1" fill="#2F4553"/>
<g clip-path="url(#clip0_26835_29258)">
<path d="M22.7 24.71C20.49 27.02 19.64 30.31 20.45 33.4L24.09 43.94L36.2 19.81L34.31 14.5C34.04 13.73 33.05 13.53 32.49 14.13L22.69 24.72L22.7 24.71Z" fill="#8EA3B2"/>
<path d="M22.11 44.04L19.16 34.27C18.51 31.5 18.75 28.58 19.84 25.94L27.21 16.79H31.33L31.94 27.71L32.07 30.01L34.78 32.45L39.38 36.58L40.96 41.07L22.11 44.05V44.04Z" fill="white"/>
<path d="M34.85 28.4401L40.14 30.2901C41.45 30.7501 42.89 30.1401 43.48 28.8901L44.6 26.5201C45.17 25.3101 44.77 23.8701 43.66 23.1201L35.29 17.4901C34.63 17.0501 33.85 16.8101 33.06 16.8101H31.33V22.4101L34.85 28.4501V28.4401Z" fill="white"/>
<path d="M27.78 56.8899C34.1644 56.8899 39.34 55.493 39.34 53.7699C39.34 52.0468 34.1644 50.6499 27.78 50.6499C21.3956 50.6499 16.22 52.0468 16.22 53.7699C16.22 55.493 21.3956 56.8899 27.78 56.8899Z" fill="#1A2C38"/>
<path d="M31.66 52.34C35.9733 52.34 39.47 51.0999 39.47 49.57C39.47 48.0402 35.9733 46.8 31.66 46.8C27.3466 46.8 23.85 48.0402 23.85 49.57C23.85 51.0999 27.3466 52.34 31.66 52.34Z" fill="white"/>
<path d="M31.66 47.5899C34.311 47.5899 36.46 46.9318 36.46 46.1199C36.46 45.308 34.311 44.6499 31.66 44.6499C29.009 44.6499 26.86 45.308 26.86 46.1199C26.86 46.9318 29.009 47.5899 31.66 47.5899Z" fill="#8EA3B2"/>
<path d="M37.07 47.7299C37.03 47.4299 36.62 46.27 36.43 45.95L35.47 46.5999C34.49 46.2999 33.15 46.1199 31.66 46.1199C30.17 46.1199 28.83 46.2999 27.85 46.5999L26.89 45.95C26.7 46.27 26.29 47.4299 26.25 47.7299V47.77C26.25 48.69 28.67 49.43 31.66 49.43C34.65 49.43 37.07 48.69 37.07 47.77C37.07 47.76 37.07 47.7299 37.07 47.7299Z" fill="#557086"/>
<path d="M41.48 41.7599V41.7899C41.48 42.0199 41.33 43.5599 41.21 44.0399C41.21 48.0799 22.11 48.0799 22.11 44.0399C21.94 43.2999 21.84 42.5499 21.84 41.7599C21.84 36.9199 25.34 32.8999 29.95 32.0899C30.5 31.9899 31.08 31.9399 31.66 31.9399C32.75 31.9399 33.8 32.1099 34.78 32.4499C37 33.1899 38.86 34.6899 40.05 36.6499H40.06C40.96 38.1599 41.48 39.8999 41.48 41.7599Z" fill="white"/>
<path d="M41.48 41.76V41.79C41.48 41.79 41.47 41.77 41.46 41.76C41.3 41.52 41.12 41.28 40.96 41.07C38.36 37.75 33.61 36.75 30.99 36.45C29.82 36.31 28.82 35.52 28.38 34.43L26.32 29.25C26.04 28.54 26.56 27.77 27.32 27.77L31.94 27.73L32.07 30.03L34.78 32.47C37 33.21 38.86 34.71 40.05 36.67H40.06C40.96 38.18 41.48 39.92 41.48 41.78V41.76Z" fill="#45A7FF"/>
<path d="M20.5299 23.62C18.3199 25.93 17.4699 29.2199 18.2799 32.3099L21.9199 42.8499L25.0999 27.0899L34.0299 18.7299L32.1399 13.4199C31.8699 12.6499 30.8799 12.4499 30.3199 13.0499L20.5199 23.6399L20.5299 23.62Z" fill="white"/>
<path d="M40.46 52.61C40.4 52.04 39.73 49.86 39.42 49.25L37.86 50.47C36.27 49.91 34.08 49.56 31.66 49.56C29.24 49.56 27.05 49.91 25.46 50.47L23.9 49.25C23.59 49.86 22.92 52.04 22.86 52.61V52.69C22.86 54.41 26.8 55.81 31.66 55.81C36.52 55.81 40.46 54.41 40.46 52.69C40.46 52.66 40.46 52.61 40.46 52.61Z" fill="white"/>
<path d="M42.65 23.9C42.65 23.9 42.98 24.11 43.35 24.35C43.72 24.59 43.86 25.14 43.72 25.45C43.58 25.76 43.54 25.82 43.35 26.25C43.22 26.54 42.75 26.56 42.6 26.13C42.44 25.66 42.19 25 42.05 24.53C41.89 23.98 42.27 23.65 42.65 23.9Z" fill="#8EA3B2"/>
<path d="M33.1599 30.8198C36.192 30.8198 38.6499 28.3619 38.6499 25.3298C38.6499 22.2978 36.192 19.8398 33.1599 19.8398C30.1279 19.8398 27.6699 22.2978 27.6699 25.3298C27.6699 28.3619 30.1279 30.8198 33.1599 30.8198Z" fill="white"/>
<path d="M35.5599 23.3999C36.2503 23.3999 36.8099 22.8403 36.8099 22.1499C36.8099 21.4595 36.2503 20.8999 35.5599 20.8999C34.8696 20.8999 34.3099 21.4595 34.3099 22.1499C34.3099 22.8403 34.8696 23.3999 35.5599 23.3999Z" fill="#1A2C38"/>
</g>
<path fill-rule="evenodd" clip-rule="evenodd" d="M6.49771 79C6.98969 79 7.48602 79.213 7.49037 79.6913C7.49037 80.1043 7.24656 80.2696 6.99839 80.2696C6.75023 80.2696 6.73281 80.1435 6.73281 80.1435C6.73281 80.1435 7.02452 79.9261 7.02452 79.7174C7.02452 79.6087 6.94179 79.313 6.489 79.3174C5.8577 79.3174 5.5181 79.6174 5.5181 80.1522C5.5181 80.7652 7.35105 80.9739 7.3554 81.7652C7.3554 82.613 6.47594 82.9957 5.69225 83C5.283 83 5.01306 82.7609 5.00871 82.3783C5.00871 81.9261 5.22204 81.4652 5.75756 81.4652C5.88382 81.4565 5.98831 81.5522 5.99702 81.6783C5.99702 81.6783 5.99702 81.6826 5.99702 81.687C5.99702 81.687 5.45715 81.8391 5.4615 82.3783C5.4615 82.4783 5.56599 82.6609 5.81851 82.6565C6.07103 82.6522 6.82424 82.4739 6.81989 81.8087C6.81989 81.1913 5.00435 81.1087 5 80.1478C5 79.0652 6.08845 79.0087 6.49771 79.0087V79ZM10.747 79.6C10.8123 79.5696 11.2129 79.4913 11.1955 79.813C11.1824 80.1348 10.9386 80.6913 10.9037 80.9348C11.2303 80.7696 11.6918 80.2087 11.6918 80.2087C11.6918 80.2087 12.0183 80.2522 11.9182 80.4522C11.818 80.6522 11.1519 81.1435 11.1519 81.1435C11.1519 81.1435 11.3043 82.5696 12.1707 82.5696C12.6453 82.5696 12.8499 82.3609 12.937 82.287C12.9587 82.2696 12.9762 82.2652 12.9849 82.2783C13.0197 82.387 12.9936 82.5043 12.9152 82.5913C12.8194 82.6957 12.5974 82.8217 12.1533 82.8261C11.3653 82.8261 10.9255 82.1957 10.8123 81.2609C10.7252 81.5348 10.7339 81.9826 10.7209 82.2C10.6948 82.2435 10.2507 82.4174 10.2158 82.1174C10.2158 82.0913 10.2158 82.0696 10.2158 82.0435C10.1331 82.1609 10.0199 82.2826 9.91108 82.2826C9.71951 82.2826 9.63679 82.1217 9.60196 82.0391C9.57584 82.0696 9.3625 82.287 9.08821 82.287C8.92277 82.2913 8.77474 82.1957 8.70943 82.0435C8.57011 82.1435 8.32195 82.2913 8.03895 82.2913C7.73418 82.2913 7.66017 82.1087 7.66017 81.9565C7.66017 81.713 7.84303 80.987 7.84303 80.987C7.84303 80.987 7.48602 81.1304 7.36411 81.1348C7.19431 81.1348 7.11159 80.8217 7.11159 80.813C7.11159 80.8087 7.11159 80.8 7.1203 80.8C7.22044 80.7609 7.94317 80.513 7.94317 80.513C7.94317 80.513 8.07813 79.9826 8.09555 79.913C8.11296 79.8435 8.2131 79.7 8.33065 79.6565C8.41773 79.6217 8.50916 79.6 8.60059 79.5913C8.63107 79.5913 8.65284 79.6 8.65284 79.6174C8.65284 79.6348 8.47433 80.4087 8.47433 80.4087C8.47433 80.4087 8.84876 80.3217 8.98808 80.3217C9.09692 80.3217 9.15352 80.387 9.09257 80.4696C9.03162 80.5522 8.96196 80.6478 8.92712 80.6913C8.88794 80.7348 8.86182 80.7435 8.77039 80.7609C8.64413 80.787 8.36113 80.8565 8.36113 80.8565C8.36113 80.8565 8.13473 81.6783 8.13909 81.8174C8.13909 81.8957 8.16521 81.987 8.26099 81.987C8.35678 81.987 8.53964 81.8739 8.67025 81.7913C8.69202 81.1522 9.18835 80.7261 9.57584 80.7261C9.7021 80.7261 9.65421 80.8478 9.79788 80.8478H9.88931C9.94591 80.8478 10.0069 80.8522 10.0069 80.9957C10.0069 81.1957 9.89367 81.5261 9.89367 81.7348C9.89367 81.8826 9.91544 81.987 9.97204 81.987C10.0678 81.987 10.1767 81.8478 10.255 81.7261C10.3813 81.0304 10.734 79.7609 10.734 79.6174L10.747 79.6ZM12.5016 80.7C12.7672 80.6783 12.9326 80.8217 12.9631 80.9C12.9936 80.9783 12.9892 81.1609 12.9152 81.2913C12.6845 81.7044 12.1097 81.6304 12.1097 81.6304C12.1097 81.6304 12.0444 81.9565 12.3405 81.9565C12.593 81.9565 12.7062 81.8304 12.8151 81.7261C12.8586 81.7261 12.9936 81.8652 12.9326 81.9609C12.8847 82.0348 12.6191 82.2565 12.2795 82.2609C11.7397 82.2609 11.6047 81.8 11.6744 81.4696C11.7658 81.0609 12.1751 80.7217 12.5016 80.6957V80.7ZM9.6455 80.987C9.32332 80.987 8.82699 81.9696 9.20577 81.9652C9.61938 81.9652 9.6455 81.1826 9.6455 81.0043V80.987ZM12.6409 80.8913C12.4232 80.9 12.1751 81.3174 12.1533 81.5C12.4798 81.513 12.654 81.1957 12.6757 81.0696C12.6888 80.9739 12.6932 80.887 12.6409 80.887V80.8913Z" fill="#557086"/>
<path d="M40.851 79.0672L39.2521 80.8632C39.1826 80.9428 39.1826 81.0572 39.2521 81.1368L40.846 82.9328C40.9255 83.0224 41.0695 83.0224 41.1539 82.9328L42.7478 81.1368C42.8173 81.0572 42.8173 80.9428 42.7478 80.8632L41.1539 79.0672C41.0744 78.9776 40.9304 78.9776 40.846 79.0672H40.851Z" fill="white"/>
<path d="M41.6604 79.6343L42.142 80.1766L40.568 82.6144L39.704 81.6393L41.6604 79.6343Z" fill="#8EA3B2"/>
<path d="M45.851 79.0672L44.2521 80.8632C44.1826 80.9428 44.1826 81.0572 44.2521 81.1368L45.846 82.9328C45.9255 83.0224 46.0695 83.0224 46.1539 82.9328L47.7478 81.1368C47.8173 81.0572 47.8173 80.9428 47.7478 80.8632L46.1539 79.0672C46.0744 78.9776 45.9304 78.9776 45.846 79.0672H45.851Z" fill="white"/>
<path d="M46.6604 79.6343L47.142 80.1766L45.568 82.6144L44.704 81.6393L46.6604 79.6343Z" fill="#8EA3B2"/>
<path d="M50.851 79.0672L49.2521 80.8632C49.1826 80.9428 49.1826 81.0572 49.2521 81.1368L50.846 82.9328C50.9255 83.0224 51.0695 83.0224 51.1539 82.9328L52.7478 81.1368C52.8173 81.0572 52.8173 80.9428 52.7478 80.8632L51.1539 79.0672C51.0744 78.9776 50.9304 78.9776 50.846 79.0672H50.851Z" fill="white"/>
<path d="M51.6604 79.6343L52.142 80.1766L50.568 82.6144L49.704 81.6393L51.6604 79.6343Z" fill="#8EA3B2"/>
<path d="M55.851 79.0672L54.2521 80.8632C54.1826 80.9428 54.1826 81.0572 54.2521 81.1368L55.846 82.9328C55.9255 83.0224 56.0695 83.0224 56.1539 82.9328L57.7478 81.1368C57.8173 81.0572 57.8173 80.9428 57.7478 80.8632L56.1539 79.0672C56.0744 78.9776 55.9304 78.9776 55.846 79.0672H55.851Z" fill="white"/>
<path d="M56.6604 79.6343L57.142 80.1766L55.568 82.6144L54.704 81.6393L56.6604 79.6343Z" fill="#8EA3B2"/>
<rect x="13" y="62" width="37" height="13" rx="6.5" fill="#2F4553"/>
<path d="M27.3486 70.072C26.1786 70.072 25.6326 69.058 25.6326 68.002C25.6326 66.946 26.1786 65.938 27.3486 65.938C28.5186 65.938 29.0646 66.946 29.0646 68.002C29.0646 69.058 28.5186 70.072 27.3486 70.072ZM27.3486 69.16C27.8286 69.16 28.0206 68.71 28.0206 68.002C28.0206 67.294 27.8286 66.85 27.3486 66.85C26.8686 66.85 26.6766 67.294 26.6766 68.002C26.6766 68.71 26.8686 69.16 27.3486 69.16ZM29.9368 70.072C29.6308 70.072 29.3728 69.814 29.3728 69.508C29.3728 69.202 29.6308 68.944 29.9368 68.944C30.2428 68.944 30.5008 69.202 30.5008 69.508C30.5008 69.814 30.2428 70.072 29.9368 70.072ZM32.604 70.072C31.896 70.072 31.362 69.856 30.99 69.49L31.554 68.77C31.83 69.022 32.208 69.16 32.592 69.16C33.03 69.16 33.246 68.944 33.246 68.698C33.246 68.428 33.036 68.236 32.622 68.236C32.304 68.236 32.052 68.326 31.83 68.536L31.116 68.362V65.998H34.02V66.898H32.148V67.672C32.34 67.486 32.652 67.354 33.006 67.354C33.684 67.354 34.296 67.852 34.296 68.656C34.296 69.52 33.642 70.072 32.604 70.072ZM37.5611 70H36.5471L35.9891 69.124L35.4251 70H34.4171L35.4071 68.512L34.4771 67.102H35.4911L35.9891 67.888L36.4811 67.102H37.4951L36.5711 68.512L37.5611 70Z" fill="white"/>
<path d="M6.835 11.06C5.82 11.06 5.33 10.49 5.33 9.67V7.665H6.05V9.645C6.05 10.11 6.32 10.43 6.835 10.43C7.35 10.43 7.615 10.11 7.615 9.645V7.665H8.34V9.665C8.34 10.495 7.85 11.06 6.835 11.06ZM11.247 11H10.612V9.54C10.612 9.205 10.437 9.09 10.167 9.09C9.91699 9.09 9.72199 9.23 9.61699 9.375V11H8.98199V8.585H9.61699V8.9C9.77199 8.715 10.067 8.525 10.462 8.525C10.992 8.525 11.247 8.825 11.247 9.295V11ZM13.0025 11.06C12.2575 11.06 11.7225 10.535 11.7225 9.79C11.7225 9.05 12.2575 8.525 13.0025 8.525C13.4975 8.525 13.7975 8.74 13.9575 8.96L13.5425 9.35C13.4275 9.18 13.2525 9.09 13.0325 9.09C12.6475 9.09 12.3775 9.37 12.3775 9.79C12.3775 10.21 12.6475 10.495 13.0325 10.495C13.2525 10.495 13.4275 10.395 13.5425 10.235L13.9575 10.62C13.7975 10.845 13.4975 11.06 13.0025 11.06ZM15.4926 11.06C14.6976 11.06 14.2176 10.48 14.2176 9.79C14.2176 9.105 14.6976 8.525 15.4926 8.525C16.2926 8.525 16.7726 9.105 16.7726 9.79C16.7726 10.48 16.2926 11.06 15.4926 11.06ZM15.4926 10.495C15.8876 10.495 16.1126 10.17 16.1126 9.79C16.1126 9.415 15.8876 9.09 15.4926 9.09C15.0976 9.09 14.8776 9.415 14.8776 9.79C14.8776 10.17 15.0976 10.495 15.4926 10.495ZM20.8787 11H20.2387V9.475C20.2387 9.25 20.1387 9.09 19.8787 9.09C19.6537 9.09 19.4687 9.24 19.3787 9.37V11H18.7387V9.475C18.7387 9.25 18.6387 9.09 18.3787 9.09C18.1587 9.09 17.9737 9.24 17.8787 9.375V11H17.2437V8.585H17.8787V8.9C17.9787 8.755 18.2987 8.525 18.6687 8.525C19.0237 8.525 19.2487 8.69 19.3387 8.965C19.4787 8.745 19.7987 8.525 20.1687 8.525C20.6137 8.525 20.8787 8.76 20.8787 9.255V11ZM25.1365 11H24.4965V9.475C24.4965 9.25 24.3965 9.09 24.1365 9.09C23.9115 9.09 23.7265 9.24 23.6365 9.37V11H22.9965V9.475C22.9965 9.25 22.8965 9.09 22.6365 9.09C22.4165 9.09 22.2315 9.24 22.1365 9.375V11H21.5015V8.585H22.1365V8.9C22.2365 8.755 22.5565 8.525 22.9265 8.525C23.2815 8.525 23.5065 8.69 23.5965 8.965C23.7365 8.745 24.0565 8.525 24.4265 8.525C24.8715 8.525 25.1365 8.76 25.1365 9.255V11ZM26.8793 11.06C26.0843 11.06 25.6043 10.48 25.6043 9.79C25.6043 9.105 26.0843 8.525 26.8793 8.525C27.6793 8.525 28.1593 9.105 28.1593 9.79C28.1593 10.48 27.6793 11.06 26.8793 11.06ZM26.8793 10.495C27.2743 10.495 27.4993 10.17 27.4993 9.79C27.4993 9.415 27.2743 9.09 26.8793 9.09C26.4843 9.09 26.2643 9.415 26.2643 9.79C26.2643 10.17 26.4843 10.495 26.8793 10.495ZM30.8954 11H30.2604V9.54C30.2604 9.205 30.0854 9.09 29.8154 9.09C29.5654 9.09 29.3704 9.23 29.2654 9.375V11H28.6304V8.585H29.2654V8.9C29.4204 8.715 29.7154 8.525 30.1104 8.525C30.6404 8.525 30.8954 8.825 30.8954 9.295V11Z" fill="white"/>
<path d="M48.6351 11H48.1831L46.7911 9.096V11H46.3231V8.332H46.8031L48.1671 10.184V8.332H48.6351V11ZM50.062 11.048C49.45 11.048 49.07 10.588 49.07 10.032C49.07 9.48 49.45 9.02 50.062 9.02C50.682 9.02 51.058 9.48 51.058 10.032C51.058 10.588 50.682 11.048 50.062 11.048ZM50.062 10.676C50.422 10.676 50.622 10.376 50.622 10.032C50.622 9.692 50.422 9.392 50.062 9.392C49.706 9.392 49.506 9.692 49.506 10.032C49.506 10.376 49.706 10.676 50.062 10.676ZM51.6794 11.044C51.5274 11.044 51.3994 10.916 51.3994 10.764C51.3994 10.612 51.5274 10.484 51.6794 10.484C51.8314 10.484 51.9594 10.612 51.9594 10.764C51.9594 10.916 51.8314 11.044 51.6794 11.044ZM54.2592 11.044C53.9312 11.044 53.6752 10.928 53.4952 10.748L53.7112 10.396C53.8512 10.54 54.0072 10.628 54.2592 10.628C54.7432 10.628 54.9632 10.188 54.9632 9.752C54.9632 9.724 54.9632 9.7 54.9632 9.672C54.8392 9.852 54.5592 10.048 54.2472 10.048C53.7672 10.048 53.3512 9.752 53.3512 9.184C53.3512 8.692 53.7392 8.288 54.3352 8.288C55.1192 8.288 55.4352 8.924 55.4352 9.668C55.4352 10.436 55.0312 11.044 54.2592 11.044ZM54.3712 9.644C54.5992 9.644 54.8232 9.524 54.9552 9.332C54.9312 9.044 54.7712 8.704 54.3592 8.704C54.0112 8.704 53.8272 8.956 53.8272 9.168C53.8272 9.496 54.0832 9.644 54.3712 9.644ZM56.8176 11.048C56.3576 11.048 56.0416 10.892 55.8256 10.636L56.0936 10.316C56.2736 10.52 56.5136 10.632 56.8136 10.632C57.1496 10.632 57.3616 10.424 57.3616 10.164C57.3616 9.876 57.1536 9.688 56.8256 9.688C56.5976 9.688 56.4096 9.76 56.2416 9.92L55.9096 9.824V8.332H57.6576V8.744H56.3776V9.516C56.5056 9.388 56.7256 9.284 56.9816 9.284C57.4296 9.284 57.8336 9.6 57.8336 10.144C57.8336 10.7 57.4136 11.048 56.8176 11.048Z" fill="white"/>
<defs>
<clipPath id="clip0_26835_29258">
<rect width="63" height="88" fill="white"/>
</clipPath>
</defs>
</svg>
