<svg width="63" height="88" viewBox="0 0 63 88" fill="none" xmlns="http://www.w3.org/2000/svg">
<rect width="63" height="88" rx="4" fill="#047BFF"/>
<path d="M36.7008 13.5133L44.7992 3.48665C45.5586 2.54645 46.7024 2 47.911 2H58C59.6569 2 61 3.34314 61 5V83C61 84.6569 59.6569 86 58 86H5C3.34315 86 2 84.6569 2 83V18C2 16.3431 3.34315 15 5 15H33.589C34.7976 15 35.9414 14.4536 36.7008 13.5133Z" fill="#213743"/>
<rect x="5" y="18" width="53" height="40" rx="1" fill="#2F4553"/>
<g clip-path="url(#clip0_26835_29259)">
<path d="M31.72 56.405C40.8327 56.405 48.22 54.838 48.22 52.905C48.22 50.972 40.8327 49.405 31.72 49.405C22.6073 49.405 15.22 50.972 15.22 52.905C15.22 54.838 22.6073 56.405 31.72 56.405Z" fill="#1A2C38"/>
<path d="M31.22 31.7615C31.22 34.1674 27.1886 34.405 22.22 34.405C17.2513 34.405 13.22 34.1674 13.22 31.7615C13.22 29.3555 17.2513 27.405 22.22 27.405C27.1886 27.405 31.22 29.3555 31.22 31.7615Z" fill="#008C00"/>
<path d="M44.22 20.1427C44.22 22.2083 40.8624 22.405 36.72 22.405C32.5775 22.405 29.22 22.1985 29.22 20.1427C29.22 18.087 32.5775 16.405 36.72 16.405C40.8624 16.405 44.22 18.0772 44.22 20.1427Z" fill="#008C00"/>
<path d="M49.22 43.7394C49.22 48.9388 41.1616 50.405 31.22 50.405C21.2783 50.405 13.22 48.9388 13.22 43.7394C13.22 38.5401 21.2783 35.405 31.22 35.405C41.1616 35.405 49.22 38.5401 49.22 43.7394Z" fill="#557086"/>
<path d="M47.22 46.1795C47.22 51.0336 40.0594 52.405 31.22 52.405C22.3805 52.405 15.22 51.0336 15.22 46.1795C15.22 41.3254 22.3805 38.405 31.22 38.405C40.0594 38.405 47.22 41.3254 47.22 46.1795Z" fill="#557086"/>
<path d="M49.22 43.3926C49.22 48.8625 41.1616 50.405 31.22 50.405C21.2783 50.405 13.22 48.8625 13.22 43.3926C13.22 37.9228 21.9403 41.637 31.8706 41.637C41.8008 41.637 49.2086 37.9228 49.2086 43.3926H49.22Z" fill="#8EA3B2"/>
<path d="M34.2565 50.5978C34.2686 50.1892 32.5174 49.8168 30.345 49.766C28.1726 49.7153 26.4017 50.0053 26.3895 50.4138C26.3774 50.8224 28.1286 51.1947 30.301 51.2455C32.4734 51.2963 34.2443 51.0063 34.2565 50.5978Z" fill="white"/>
<path d="M43.22 39.8942C43.22 41.4546 38.0744 43.405 31.72 43.405C25.3656 43.405 20.22 41.4546 20.22 39.8942C20.22 38.3338 25.3656 36.405 31.72 36.405C38.0744 36.405 43.22 38.323 43.22 39.8942Z" fill="#1A2C38"/>
<path d="M19.2319 46.405H22.22V53.3292C22.22 53.916 21.6366 54.405 20.9104 54.405H20.5295C19.8152 54.405 19.22 53.9258 19.22 53.3292V46.405H19.2319Z" fill="#008C00"/>
<path d="M42.2319 45.405H45.22V53.3451C45.22 53.9232 44.6366 54.405 43.9104 54.405H43.5295C42.8152 54.405 42.22 53.9329 42.22 53.3451V45.405H42.2319Z" fill="#008C00"/>
<path d="M29.0488 33.4579C29.5764 30.6722 28.8647 24.4818 27.1836 22.405H24.4963C24.4963 22.405 27.8094 26.6484 24.4963 28.8949C22.4348 30.2928 21.355 32.1399 21.22 34.007C22.8397 35.5047 25.4902 36.4133 29.0365 33.4579H29.0488Z" fill="#8EA3B2"/>
<path d="M34.3876 38.1701C32.4589 41.7489 27.1462 36.1066 28.2203 34.5315C28.382 34.2923 28.509 33.9035 28.5899 33.405C24.9981 35.3689 22.5958 34.7708 21.233 33.9533C21.0482 36.6947 22.8268 39.486 26.4764 40.9115C29.3983 41.5795 32.3896 41.5595 35.4617 40.9115C35.4617 40.9115 37.0439 37.6517 39.065 40.9115H40.22C40.22 40.9115 37.8062 31.82 34.3876 38.1602V38.1701Z" fill="#557086"/>
<path d="M25.22 23.6124C25.22 23.6124 25.5041 24.015 25.7313 24.9421C25.7313 24.9421 26.8109 25.491 28.22 25.3934C28.22 25.3934 27.8791 23.8076 27.7313 23.405L25.2313 23.6124H25.22Z" fill="#557086"/>
<path d="M35.22 19.8761C35.22 24.0057 31.4182 24.405 26.72 24.405C22.0217 24.405 18.22 23.9952 18.22 19.8761C18.22 15.757 22.0217 12.405 26.72 12.405C31.4182 12.405 35.22 15.757 35.22 19.8761Z" fill="#1CE61C"/>
<path d="M48.22 32.4956C48.22 36.9682 43.2928 37.405 37.22 37.405C31.1472 37.405 26.22 36.9682 26.22 32.4956C26.22 28.023 31.1472 24.405 37.22 24.405C43.2928 24.405 48.22 28.0325 48.22 32.4956Z" fill="#1CE61C"/>
<path d="M42.7861 27.0641C44.5876 27.8387 45.765 28.9198 44.9643 29.8901C44.1637 30.8605 42.6095 30.2987 40.8198 29.5241C39.03 28.7495 37.6524 28.0515 38.4531 27.0726C39.2538 26.0938 40.9846 26.281 42.7861 27.0556V27.0641Z" fill="white"/>
<path d="M22.22 46.7537C22.22 46.9445 21.957 47.405 21.1323 47.405C20.3076 47.405 19.22 46.9445 19.22 46.7537C19.22 46.5629 19.8893 46.405 20.714 46.405C21.5387 46.405 22.208 46.5629 22.208 46.7537H22.22Z" fill="white"/>
<path d="M45.22 45.0436C45.22 45.5737 44.548 46.405 43.72 46.405C42.892 46.405 42.22 45.5737 42.22 45.0436C42.22 44.5135 42.892 44.405 43.72 44.405C44.548 44.405 45.22 44.5255 45.22 45.0436Z" fill="white"/>
</g>
<path fill-rule="evenodd" clip-rule="evenodd" d="M6.49771 79C6.98969 79 7.48602 79.213 7.49037 79.6913C7.49037 80.1043 7.24656 80.2696 6.99839 80.2696C6.75023 80.2696 6.73281 80.1435 6.73281 80.1435C6.73281 80.1435 7.02452 79.9261 7.02452 79.7174C7.02452 79.6087 6.94179 79.313 6.489 79.3174C5.8577 79.3174 5.5181 79.6174 5.5181 80.1522C5.5181 80.7652 7.35105 80.9739 7.3554 81.7652C7.3554 82.613 6.47594 82.9957 5.69225 83C5.283 83 5.01306 82.7609 5.00871 82.3783C5.00871 81.9261 5.22204 81.4652 5.75756 81.4652C5.88382 81.4565 5.98831 81.5522 5.99702 81.6783C5.99702 81.6783 5.99702 81.6826 5.99702 81.687C5.99702 81.687 5.45715 81.8391 5.4615 82.3783C5.4615 82.4783 5.56599 82.6609 5.81851 82.6565C6.07103 82.6522 6.82424 82.4739 6.81989 81.8087C6.81989 81.1913 5.00435 81.1087 5 80.1478C5 79.0652 6.08845 79.0087 6.49771 79.0087V79ZM10.747 79.6C10.8123 79.5696 11.2129 79.4913 11.1955 79.813C11.1824 80.1348 10.9386 80.6913 10.9037 80.9348C11.2303 80.7696 11.6918 80.2087 11.6918 80.2087C11.6918 80.2087 12.0183 80.2522 11.9182 80.4522C11.818 80.6522 11.1519 81.1435 11.1519 81.1435C11.1519 81.1435 11.3043 82.5696 12.1707 82.5696C12.6453 82.5696 12.8499 82.3609 12.937 82.287C12.9587 82.2696 12.9762 82.2652 12.9849 82.2783C13.0197 82.387 12.9936 82.5043 12.9152 82.5913C12.8194 82.6957 12.5974 82.8217 12.1533 82.8261C11.3653 82.8261 10.9255 82.1957 10.8123 81.2609C10.7252 81.5348 10.7339 81.9826 10.7209 82.2C10.6948 82.2435 10.2507 82.4174 10.2158 82.1174C10.2158 82.0913 10.2158 82.0696 10.2158 82.0435C10.1331 82.1609 10.0199 82.2826 9.91108 82.2826C9.71951 82.2826 9.63679 82.1217 9.60196 82.0391C9.57584 82.0696 9.3625 82.287 9.08821 82.287C8.92277 82.2913 8.77474 82.1957 8.70943 82.0435C8.57011 82.1435 8.32195 82.2913 8.03895 82.2913C7.73418 82.2913 7.66017 82.1087 7.66017 81.9565C7.66017 81.713 7.84303 80.987 7.84303 80.987C7.84303 80.987 7.48602 81.1304 7.36411 81.1348C7.19431 81.1348 7.11159 80.8217 7.11159 80.813C7.11159 80.8087 7.11159 80.8 7.1203 80.8C7.22044 80.7609 7.94317 80.513 7.94317 80.513C7.94317 80.513 8.07813 79.9826 8.09555 79.913C8.11296 79.8435 8.2131 79.7 8.33065 79.6565C8.41773 79.6217 8.50916 79.6 8.60059 79.5913C8.63107 79.5913 8.65284 79.6 8.65284 79.6174C8.65284 79.6348 8.47433 80.4087 8.47433 80.4087C8.47433 80.4087 8.84876 80.3217 8.98808 80.3217C9.09692 80.3217 9.15352 80.387 9.09257 80.4696C9.03162 80.5522 8.96196 80.6478 8.92712 80.6913C8.88794 80.7348 8.86182 80.7435 8.77039 80.7609C8.64413 80.787 8.36113 80.8565 8.36113 80.8565C8.36113 80.8565 8.13473 81.6783 8.13909 81.8174C8.13909 81.8957 8.16521 81.987 8.26099 81.987C8.35678 81.987 8.53964 81.8739 8.67025 81.7913C8.69202 81.1522 9.18835 80.7261 9.57584 80.7261C9.7021 80.7261 9.65421 80.8478 9.79788 80.8478H9.88931C9.94591 80.8478 10.0069 80.8522 10.0069 80.9957C10.0069 81.1957 9.89367 81.5261 9.89367 81.7348C9.89367 81.8826 9.91544 81.987 9.97204 81.987C10.0678 81.987 10.1767 81.8478 10.255 81.7261C10.3813 81.0304 10.734 79.7609 10.734 79.6174L10.747 79.6ZM12.5016 80.7C12.7672 80.6783 12.9326 80.8217 12.9631 80.9C12.9936 80.9783 12.9892 81.1609 12.9152 81.2913C12.6845 81.7044 12.1097 81.6304 12.1097 81.6304C12.1097 81.6304 12.0444 81.9565 12.3405 81.9565C12.593 81.9565 12.7062 81.8304 12.8151 81.7261C12.8586 81.7261 12.9936 81.8652 12.9326 81.9609C12.8847 82.0348 12.6191 82.2565 12.2795 82.2609C11.7397 82.2609 11.6047 81.8 11.6744 81.4696C11.7658 81.0609 12.1751 80.7217 12.5016 80.6957V80.7ZM9.6455 80.987C9.32332 80.987 8.82699 81.9696 9.20577 81.9652C9.61938 81.9652 9.6455 81.1826 9.6455 81.0043V80.987ZM12.6409 80.8913C12.4232 80.9 12.1751 81.3174 12.1533 81.5C12.4798 81.513 12.654 81.1957 12.6757 81.0696C12.6888 80.9739 12.6932 80.887 12.6409 80.887V80.8913Z" fill="#557086"/>
<path d="M40.851 79.0672L39.2521 80.8632C39.1826 80.9428 39.1826 81.0572 39.2521 81.1368L40.846 82.9328C40.9255 83.0224 41.0695 83.0224 41.1539 82.9328L42.7478 81.1368C42.8173 81.0572 42.8173 80.9428 42.7478 80.8632L41.1539 79.0672C41.0744 78.9776 40.9304 78.9776 40.846 79.0672H40.851Z" fill="white"/>
<path d="M41.6604 79.6343L42.142 80.1766L40.568 82.6144L39.704 81.6393L41.6604 79.6343Z" fill="#8EA3B2"/>
<path d="M45.851 79.0672L44.2521 80.8632C44.1826 80.9428 44.1826 81.0572 44.2521 81.1368L45.846 82.9328C45.9255 83.0224 46.0695 83.0224 46.1539 82.9328L47.7478 81.1368C47.8173 81.0572 47.8173 80.9428 47.7478 80.8632L46.1539 79.0672C46.0744 78.9776 45.9304 78.9776 45.846 79.0672H45.851Z" fill="white"/>
<path d="M46.6604 79.6343L47.142 80.1766L45.568 82.6144L44.704 81.6393L46.6604 79.6343Z" fill="#8EA3B2"/>
<path d="M50.851 79.0672L49.2521 80.8632C49.1826 80.9428 49.1826 81.0572 49.2521 81.1368L50.846 82.9328C50.9255 83.0224 51.0695 83.0224 51.1539 82.9328L52.7478 81.1368C52.8173 81.0572 52.8173 80.9428 52.7478 80.8632L51.1539 79.0672C51.0744 78.9776 50.9304 78.9776 50.846 79.0672H50.851Z" fill="white"/>
<path d="M51.6604 79.6343L52.142 80.1766L50.568 82.6144L49.704 81.6393L51.6604 79.6343Z" fill="#8EA3B2"/>
<path d="M55.851 79.0672L54.2521 80.8632C54.1826 80.9428 54.1826 81.0572 54.2521 81.1368L55.846 82.9328C55.9255 83.0224 56.0695 83.0224 56.1539 82.9328L57.7478 81.1368C57.8173 81.0572 57.8173 80.9428 57.7478 80.8632L56.1539 79.0672C56.0744 78.9776 55.9304 78.9776 55.846 79.0672H55.851Z" fill="white"/>
<path d="M56.6604 79.6343L57.142 80.1766L55.568 82.6144L54.704 81.6393L56.6604 79.6343Z" fill="#8EA3B2"/>
<rect x="13" y="62" width="37" height="13" rx="6.5" fill="#2F4553"/>
<path d="M27.3486 70.072C26.1786 70.072 25.6326 69.058 25.6326 68.002C25.6326 66.946 26.1786 65.938 27.3486 65.938C28.5186 65.938 29.0646 66.946 29.0646 68.002C29.0646 69.058 28.5186 70.072 27.3486 70.072ZM27.3486 69.16C27.8286 69.16 28.0206 68.71 28.0206 68.002C28.0206 67.294 27.8286 66.85 27.3486 66.85C26.8686 66.85 26.6766 67.294 26.6766 68.002C26.6766 68.71 26.8686 69.16 27.3486 69.16ZM29.9368 70.072C29.6308 70.072 29.3728 69.814 29.3728 69.508C29.3728 69.202 29.6308 68.944 29.9368 68.944C30.2428 68.944 30.5008 69.202 30.5008 69.508C30.5008 69.814 30.2428 70.072 29.9368 70.072ZM32.604 70.072C31.896 70.072 31.362 69.856 30.99 69.49L31.554 68.77C31.83 69.022 32.208 69.16 32.592 69.16C33.03 69.16 33.246 68.944 33.246 68.698C33.246 68.428 33.036 68.236 32.622 68.236C32.304 68.236 32.052 68.326 31.83 68.536L31.116 68.362V65.998H34.02V66.898H32.148V67.672C32.34 67.486 32.652 67.354 33.006 67.354C33.684 67.354 34.296 67.852 34.296 68.656C34.296 69.52 33.642 70.072 32.604 70.072ZM37.5611 70H36.5471L35.9891 69.124L35.4251 70H34.4171L35.4071 68.512L34.4771 67.102H35.4911L35.9891 67.888L36.4811 67.102H37.4951L36.5711 68.512L37.5611 70Z" fill="white"/>
<path d="M6.835 11.06C5.82 11.06 5.33 10.49 5.33 9.67V7.665H6.05V9.645C6.05 10.11 6.32 10.43 6.835 10.43C7.35 10.43 7.615 10.11 7.615 9.645V7.665H8.34V9.665C8.34 10.495 7.85 11.06 6.835 11.06ZM11.247 11H10.612V9.54C10.612 9.205 10.437 9.09 10.167 9.09C9.91699 9.09 9.72199 9.23 9.61699 9.375V11H8.98199V8.585H9.61699V8.9C9.77199 8.715 10.067 8.525 10.462 8.525C10.992 8.525 11.247 8.825 11.247 9.295V11ZM13.0025 11.06C12.2575 11.06 11.7225 10.535 11.7225 9.79C11.7225 9.05 12.2575 8.525 13.0025 8.525C13.4975 8.525 13.7975 8.74 13.9575 8.96L13.5425 9.35C13.4275 9.18 13.2525 9.09 13.0325 9.09C12.6475 9.09 12.3775 9.37 12.3775 9.79C12.3775 10.21 12.6475 10.495 13.0325 10.495C13.2525 10.495 13.4275 10.395 13.5425 10.235L13.9575 10.62C13.7975 10.845 13.4975 11.06 13.0025 11.06ZM15.4926 11.06C14.6976 11.06 14.2176 10.48 14.2176 9.79C14.2176 9.105 14.6976 8.525 15.4926 8.525C16.2926 8.525 16.7726 9.105 16.7726 9.79C16.7726 10.48 16.2926 11.06 15.4926 11.06ZM15.4926 10.495C15.8876 10.495 16.1126 10.17 16.1126 9.79C16.1126 9.415 15.8876 9.09 15.4926 9.09C15.0976 9.09 14.8776 9.415 14.8776 9.79C14.8776 10.17 15.0976 10.495 15.4926 10.495ZM20.8787 11H20.2387V9.475C20.2387 9.25 20.1387 9.09 19.8787 9.09C19.6537 9.09 19.4687 9.24 19.3787 9.37V11H18.7387V9.475C18.7387 9.25 18.6387 9.09 18.3787 9.09C18.1587 9.09 17.9737 9.24 17.8787 9.375V11H17.2437V8.585H17.8787V8.9C17.9787 8.755 18.2987 8.525 18.6687 8.525C19.0237 8.525 19.2487 8.69 19.3387 8.965C19.4787 8.745 19.7987 8.525 20.1687 8.525C20.6137 8.525 20.8787 8.76 20.8787 9.255V11ZM25.1365 11H24.4965V9.475C24.4965 9.25 24.3965 9.09 24.1365 9.09C23.9115 9.09 23.7265 9.24 23.6365 9.37V11H22.9965V9.475C22.9965 9.25 22.8965 9.09 22.6365 9.09C22.4165 9.09 22.2315 9.24 22.1365 9.375V11H21.5015V8.585H22.1365V8.9C22.2365 8.755 22.5565 8.525 22.9265 8.525C23.2815 8.525 23.5065 8.69 23.5965 8.965C23.7365 8.745 24.0565 8.525 24.4265 8.525C24.8715 8.525 25.1365 8.76 25.1365 9.255V11ZM26.8793 11.06C26.0843 11.06 25.6043 10.48 25.6043 9.79C25.6043 9.105 26.0843 8.525 26.8793 8.525C27.6793 8.525 28.1593 9.105 28.1593 9.79C28.1593 10.48 27.6793 11.06 26.8793 11.06ZM26.8793 10.495C27.2743 10.495 27.4993 10.17 27.4993 9.79C27.4993 9.415 27.2743 9.09 26.8793 9.09C26.4843 9.09 26.2643 9.415 26.2643 9.79C26.2643 10.17 26.4843 10.495 26.8793 10.495ZM30.8954 11H30.2604V9.54C30.2604 9.205 30.0854 9.09 29.8154 9.09C29.5654 9.09 29.3704 9.23 29.2654 9.375V11H28.6304V8.585H29.2654V8.9C29.4204 8.715 29.7154 8.525 30.1104 8.525C30.6404 8.525 30.8954 8.825 30.8954 9.295V11Z" fill="white"/>
<path d="M48.6312 11H48.1792L46.7872 9.096V11H46.3192V8.332H46.7992L48.1632 10.184V8.332H48.6312V11ZM50.0581 11.048C49.4461 11.048 49.0661 10.588 49.0661 10.032C49.0661 9.48 49.4461 9.02 50.0581 9.02C50.6781 9.02 51.0541 9.48 51.0541 10.032C51.0541 10.588 50.6781 11.048 50.0581 11.048ZM50.0581 10.676C50.4181 10.676 50.6181 10.376 50.6181 10.032C50.6181 9.692 50.4181 9.392 50.0581 9.392C49.7021 9.392 49.5021 9.692 49.5021 10.032C49.5021 10.376 49.7021 10.676 50.0581 10.676ZM51.6755 11.044C51.5235 11.044 51.3955 10.916 51.3955 10.764C51.3955 10.612 51.5235 10.484 51.6755 10.484C51.8275 10.484 51.9555 10.612 51.9555 10.764C51.9555 10.916 51.8275 11.044 51.6755 11.044ZM54.2553 11.044C53.9273 11.044 53.6713 10.928 53.4913 10.748L53.7073 10.396C53.8473 10.54 54.0033 10.628 54.2553 10.628C54.7393 10.628 54.9593 10.188 54.9593 9.752C54.9593 9.724 54.9593 9.7 54.9593 9.672C54.8353 9.852 54.5553 10.048 54.2433 10.048C53.7633 10.048 53.3473 9.752 53.3473 9.184C53.3473 8.692 53.7353 8.288 54.3313 8.288C55.1153 8.288 55.4313 8.924 55.4313 9.668C55.4313 10.436 55.0273 11.044 54.2553 11.044ZM54.3673 9.644C54.5953 9.644 54.8193 9.524 54.9513 9.332C54.9273 9.044 54.7673 8.704 54.3553 8.704C54.0073 8.704 53.8233 8.956 53.8233 9.168C53.8233 9.496 54.0793 9.644 54.3673 9.644ZM56.8617 11.048C56.0777 11.048 55.7617 10.412 55.7617 9.672C55.7617 8.9 56.1657 8.292 56.9377 8.292C57.2697 8.292 57.5257 8.412 57.7057 8.588L57.4857 8.944C57.3457 8.796 57.1937 8.708 56.9377 8.708C56.4937 8.708 56.2337 9.12 56.2337 9.588C56.2337 9.616 56.2337 9.64 56.2377 9.664C56.3577 9.484 56.6377 9.292 56.9537 9.292C57.4337 9.292 57.8457 9.584 57.8457 10.152C57.8457 10.648 57.4577 11.048 56.8617 11.048ZM56.8377 10.632C57.1897 10.632 57.3737 10.384 57.3737 10.168C57.3737 9.84 57.1177 9.692 56.8257 9.692C56.5977 9.692 56.3777 9.816 56.2417 10.008C56.2697 10.296 56.4257 10.632 56.8377 10.632Z" fill="white"/>
<defs>
<clipPath id="clip0_26835_29259">
<rect width="63" height="88" fill="white"/>
</clipPath>
</defs>
</svg>
