<svg width="63" height="88" viewBox="0 0 63 88" fill="none" xmlns="http://www.w3.org/2000/svg">
<rect width="63" height="88" rx="4" fill="#047BFF"/>
<path d="M36.7008 13.5133L44.7992 3.48665C45.5586 2.54645 46.7024 2 47.911 2H58C59.6569 2 61 3.34314 61 5V83C61 84.6569 59.6569 86 58 86H5C3.34315 86 2 84.6569 2 83V18C2 16.3431 3.34315 15 5 15H33.589C34.7976 15 35.9414 14.4536 36.7008 13.5133Z" fill="#213743"/>
<rect x="5" y="18" width="53" height="40" rx="1" fill="#2F4553"/>
<g clip-path="url(#clip0_26835_29260)">
<path d="M14.775 54.3784H43.7621C44.2536 54.3784 44.6557 54.7805 44.6557 55.272V57.8722C44.6557 58.8552 43.8515 59.6594 42.8686 59.6594H16.5621C15.5792 59.6594 14.775 58.8552 14.775 57.8722V54.3784Z" fill="#047BFF"/>
<path d="M42.8418 52.6987C42.8418 52.6987 26.3734 55.7458 21.2087 55.7458C16.6962 55.7458 16.9017 57.9797 16.9017 57.9797H41.8767C42.4129 57.9797 42.8418 57.5508 42.8418 57.0146V52.6987Z" fill="#1A2C38"/>
<path d="M45.9424 55.7455H19.6449L14.775 54.8787V22.9429C14.775 19.1542 19.6449 19.0291 19.6449 19.0291H45.9424C47.0147 19.0291 47.8815 19.8958 47.8815 20.9681V53.8154C47.8815 54.8877 47.0147 55.7544 45.9424 55.7544V55.7455Z" fill="#047BFF"/>
<path d="M24.0413 17.3403H20.1185C19.6152 17.3403 19.2071 17.7484 19.2071 18.2518V56.103C19.2071 56.6064 19.6152 57.0144 20.1185 57.0144H24.0413C24.5446 57.0144 24.9527 56.6064 24.9527 56.103V18.2518C24.9527 17.7484 24.5446 17.3403 24.0413 17.3403Z" fill="#1A2C38"/>
<path d="M39.5356 24.1582C39.5356 26.6601 38.374 27.7592 38.374 27.7592C38.4633 24.6228 36.4528 23.0144 36.4528 23.0144C36.4528 23.0144 34.4423 24.6139 34.5317 27.7592C34.5317 27.7592 33.3701 26.6601 33.3701 24.1582C33.3701 24.1582 30.7877 26.544 30.7877 31.0028H42.1001C42.1001 26.5529 39.5177 24.1582 39.5177 24.1582H39.5356Z" fill="#FFC201"/>
<path d="M36.4528 46.8815C41.4372 46.8815 45.4778 42.8409 45.4778 37.8565C45.4778 32.8722 41.4372 28.8315 36.4528 28.8315C31.4685 28.8315 27.4279 32.8722 27.4279 37.8565C27.4279 42.8409 31.4685 46.8815 36.4528 46.8815Z" fill="#FFC201"/>
<path d="M36.4529 45.2461C40.5341 45.2461 43.8426 41.9375 43.8426 37.8563C43.8426 33.7751 40.5341 30.4666 36.4529 30.4666C32.3716 30.4666 29.0631 33.7751 29.0631 37.8563C29.0631 41.9375 32.3716 45.2461 36.4529 45.2461Z" fill="#FF7F00"/>
<path d="M36.4529 33.335C31.6634 33.335 29.8584 37.8564 29.8584 37.8564C29.8584 37.8564 31.6723 42.3778 36.4529 42.3778C41.2334 42.3778 43.0474 37.8564 43.0474 37.8564C43.0474 37.8564 41.2334 33.335 36.4529 33.335Z" fill="white"/>
<path d="M36.3993 41.3323C38.2992 41.3323 39.8395 39.7921 39.8395 37.8921C39.8395 35.9921 38.2992 34.4519 36.3993 34.4519C34.4993 34.4519 32.959 35.9921 32.959 37.8921C32.959 39.7921 34.4993 41.3323 36.3993 41.3323Z" fill="#1A2C38"/>
<path d="M38.5705 37.9277C39.3552 37.9277 39.9913 37.2916 39.9913 36.5069C39.9913 35.7223 39.3552 35.0862 38.5705 35.0862C37.7859 35.0862 37.1498 35.7223 37.1498 36.5069C37.1498 37.2916 37.7859 37.9277 38.5705 37.9277Z" fill="#FFFFFD"/>
<path d="M47.247 25.4182L41.4835 19.6547C40.9206 19.0918 41.3227 18.1267 42.118 18.1267H47.8814C48.3729 18.1267 48.775 18.5288 48.775 19.0203V24.7837C48.775 25.579 47.81 25.9811 47.247 25.4182Z" fill="#FFC201"/>
<path d="M41.4835 55.0665L47.247 49.303C47.81 48.7401 48.775 49.1422 48.775 49.9374V55.7009C48.775 56.1924 48.3729 56.5945 47.8814 56.5945H42.118C41.3227 56.5945 40.9206 55.6294 41.4835 55.0665Z" fill="#FFC201"/>
<path d="M25.0688 22.5676H19.0909C18.4444 22.5676 17.9203 23.0917 17.9203 23.7382V25.3913C17.9203 26.0378 18.4444 26.5618 19.0909 26.5618H25.0688C25.7153 26.5618 26.2394 26.0378 26.2394 25.3913V23.7382C26.2394 23.0917 25.7153 22.5676 25.0688 22.5676Z" fill="#FFC201"/>
<path d="M25.0688 48.4631H19.0909C18.4444 48.4631 17.9203 48.9872 17.9203 49.6337V51.2868C17.9203 51.9333 18.4444 52.4574 19.0909 52.4574H25.0688C25.7153 52.4574 26.2394 51.9333 26.2394 51.2868V49.6337C26.2394 48.9872 25.7153 48.4631 25.0688 48.4631Z" fill="#FFC201"/>
</g>
<path fill-rule="evenodd" clip-rule="evenodd" d="M6.49771 79C6.98969 79 7.48602 79.213 7.49037 79.6913C7.49037 80.1043 7.24656 80.2696 6.99839 80.2696C6.75023 80.2696 6.73281 80.1435 6.73281 80.1435C6.73281 80.1435 7.02452 79.9261 7.02452 79.7174C7.02452 79.6087 6.94179 79.313 6.489 79.3174C5.8577 79.3174 5.5181 79.6174 5.5181 80.1522C5.5181 80.7652 7.35105 80.9739 7.3554 81.7652C7.3554 82.613 6.47594 82.9957 5.69225 83C5.283 83 5.01306 82.7609 5.00871 82.3783C5.00871 81.9261 5.22204 81.4652 5.75756 81.4652C5.88382 81.4565 5.98831 81.5522 5.99702 81.6783C5.99702 81.6783 5.99702 81.6826 5.99702 81.687C5.99702 81.687 5.45715 81.8391 5.4615 82.3783C5.4615 82.4783 5.56599 82.6609 5.81851 82.6565C6.07103 82.6522 6.82424 82.4739 6.81989 81.8087C6.81989 81.1913 5.00435 81.1087 5 80.1478C5 79.0652 6.08845 79.0087 6.49771 79.0087V79ZM10.747 79.6C10.8123 79.5696 11.2129 79.4913 11.1955 79.813C11.1824 80.1348 10.9386 80.6913 10.9037 80.9348C11.2303 80.7696 11.6918 80.2087 11.6918 80.2087C11.6918 80.2087 12.0183 80.2522 11.9182 80.4522C11.818 80.6522 11.1519 81.1435 11.1519 81.1435C11.1519 81.1435 11.3043 82.5696 12.1707 82.5696C12.6453 82.5696 12.8499 82.3609 12.937 82.287C12.9587 82.2696 12.9762 82.2652 12.9849 82.2783C13.0197 82.387 12.9936 82.5043 12.9152 82.5913C12.8194 82.6957 12.5974 82.8217 12.1533 82.8261C11.3653 82.8261 10.9255 82.1957 10.8123 81.2609C10.7252 81.5348 10.7339 81.9826 10.7209 82.2C10.6948 82.2435 10.2507 82.4174 10.2158 82.1174C10.2158 82.0913 10.2158 82.0696 10.2158 82.0435C10.1331 82.1609 10.0199 82.2826 9.91108 82.2826C9.71951 82.2826 9.63679 82.1217 9.60196 82.0391C9.57584 82.0696 9.3625 82.287 9.08821 82.287C8.92277 82.2913 8.77474 82.1957 8.70943 82.0435C8.57011 82.1435 8.32195 82.2913 8.03895 82.2913C7.73418 82.2913 7.66017 82.1087 7.66017 81.9565C7.66017 81.713 7.84303 80.987 7.84303 80.987C7.84303 80.987 7.48602 81.1304 7.36411 81.1348C7.19431 81.1348 7.11159 80.8217 7.11159 80.813C7.11159 80.8087 7.11159 80.8 7.1203 80.8C7.22044 80.7609 7.94317 80.513 7.94317 80.513C7.94317 80.513 8.07813 79.9826 8.09555 79.913C8.11296 79.8435 8.2131 79.7 8.33065 79.6565C8.41773 79.6217 8.50916 79.6 8.60059 79.5913C8.63107 79.5913 8.65284 79.6 8.65284 79.6174C8.65284 79.6348 8.47433 80.4087 8.47433 80.4087C8.47433 80.4087 8.84876 80.3217 8.98808 80.3217C9.09692 80.3217 9.15352 80.387 9.09257 80.4696C9.03162 80.5522 8.96196 80.6478 8.92712 80.6913C8.88794 80.7348 8.86182 80.7435 8.77039 80.7609C8.64413 80.787 8.36113 80.8565 8.36113 80.8565C8.36113 80.8565 8.13473 81.6783 8.13909 81.8174C8.13909 81.8957 8.16521 81.987 8.26099 81.987C8.35678 81.987 8.53964 81.8739 8.67025 81.7913C8.69202 81.1522 9.18835 80.7261 9.57584 80.7261C9.7021 80.7261 9.65421 80.8478 9.79788 80.8478H9.88931C9.94591 80.8478 10.0069 80.8522 10.0069 80.9957C10.0069 81.1957 9.89367 81.5261 9.89367 81.7348C9.89367 81.8826 9.91544 81.987 9.97204 81.987C10.0678 81.987 10.1767 81.8478 10.255 81.7261C10.3813 81.0304 10.734 79.7609 10.734 79.6174L10.747 79.6ZM12.5016 80.7C12.7672 80.6783 12.9326 80.8217 12.9631 80.9C12.9936 80.9783 12.9892 81.1609 12.9152 81.2913C12.6845 81.7044 12.1097 81.6304 12.1097 81.6304C12.1097 81.6304 12.0444 81.9565 12.3405 81.9565C12.593 81.9565 12.7062 81.8304 12.8151 81.7261C12.8586 81.7261 12.9936 81.8652 12.9326 81.9609C12.8847 82.0348 12.6191 82.2565 12.2795 82.2609C11.7397 82.2609 11.6047 81.8 11.6744 81.4696C11.7658 81.0609 12.1751 80.7217 12.5016 80.6957V80.7ZM9.6455 80.987C9.32332 80.987 8.82699 81.9696 9.20577 81.9652C9.61938 81.9652 9.6455 81.1826 9.6455 81.0043V80.987ZM12.6409 80.8913C12.4232 80.9 12.1751 81.3174 12.1533 81.5C12.4798 81.513 12.654 81.1957 12.6757 81.0696C12.6888 80.9739 12.6932 80.887 12.6409 80.887V80.8913Z" fill="#557086"/>
<path d="M40.851 79.0672L39.2522 80.8632C39.1826 80.9428 39.1826 81.0572 39.2522 81.1368L40.8461 82.9328C40.9255 83.0224 41.0695 83.0224 41.1539 82.9328L42.7479 81.1368C42.8174 81.0572 42.8174 80.9428 42.7479 80.8632L41.1539 79.0672C41.0745 78.9776 40.9305 78.9776 40.8461 79.0672H40.851Z" fill="white"/>
<path d="M41.6604 79.6343L42.1421 80.1766L40.568 82.6144L39.704 81.6393L41.6604 79.6343Z" fill="#8EA3B2"/>
<path d="M45.851 79.0672L44.2522 80.8632C44.1826 80.9428 44.1826 81.0572 44.2522 81.1368L45.8461 82.9328C45.9255 83.0224 46.0695 83.0224 46.1539 82.9328L47.7479 81.1368C47.8174 81.0572 47.8174 80.9428 47.7479 80.8632L46.1539 79.0672C46.0745 78.9776 45.9305 78.9776 45.8461 79.0672H45.851Z" fill="white"/>
<path d="M46.6604 79.6343L47.1421 80.1766L45.568 82.6144L44.704 81.6393L46.6604 79.6343Z" fill="#8EA3B2"/>
<path d="M50.851 79.0672L49.2522 80.8632C49.1826 80.9428 49.1826 81.0572 49.2522 81.1368L50.8461 82.9328C50.9255 83.0224 51.0695 83.0224 51.1539 82.9328L52.7479 81.1368C52.8174 81.0572 52.8174 80.9428 52.7479 80.8632L51.1539 79.0672C51.0745 78.9776 50.9305 78.9776 50.8461 79.0672H50.851Z" fill="white"/>
<path d="M51.6604 79.6343L52.1421 80.1766L50.568 82.6144L49.704 81.6393L51.6604 79.6343Z" fill="#8EA3B2"/>
<path d="M55.851 79.0672L54.2522 80.8632C54.1826 80.9428 54.1826 81.0572 54.2522 81.1368L55.8461 82.9328C55.9255 83.0224 56.0695 83.0224 56.1539 82.9328L57.7479 81.1368C57.8174 81.0572 57.8174 80.9428 57.7479 80.8632L56.1539 79.0672C56.0745 78.9776 55.9305 78.9776 55.8461 79.0672H55.851Z" fill="white"/>
<path d="M56.6604 79.6343L57.1421 80.1766L55.568 82.6144L54.704 81.6393L56.6604 79.6343Z" fill="#8EA3B2"/>
<rect x="13" y="62" width="37" height="13" rx="6.5" fill="#2F4553"/>
<path d="M27.3486 70.072C26.1786 70.072 25.6326 69.058 25.6326 68.002C25.6326 66.946 26.1786 65.938 27.3486 65.938C28.5186 65.938 29.0646 66.946 29.0646 68.002C29.0646 69.058 28.5186 70.072 27.3486 70.072ZM27.3486 69.16C27.8286 69.16 28.0206 68.71 28.0206 68.002C28.0206 67.294 27.8286 66.85 27.3486 66.85C26.8686 66.85 26.6766 67.294 26.6766 68.002C26.6766 68.71 26.8686 69.16 27.3486 69.16ZM29.9368 70.072C29.6308 70.072 29.3728 69.814 29.3728 69.508C29.3728 69.202 29.6308 68.944 29.9368 68.944C30.2428 68.944 30.5008 69.202 30.5008 69.508C30.5008 69.814 30.2428 70.072 29.9368 70.072ZM32.604 70.072C31.896 70.072 31.362 69.856 30.99 69.49L31.554 68.77C31.83 69.022 32.208 69.16 32.592 69.16C33.03 69.16 33.246 68.944 33.246 68.698C33.246 68.428 33.036 68.236 32.622 68.236C32.304 68.236 32.052 68.326 31.83 68.536L31.116 68.362V65.998H34.02V66.898H32.148V67.672C32.34 67.486 32.652 67.354 33.006 67.354C33.684 67.354 34.296 67.852 34.296 68.656C34.296 69.52 33.642 70.072 32.604 70.072ZM37.5611 70H36.5471L35.9891 69.124L35.4251 70H34.4171L35.4071 68.512L34.4771 67.102H35.4911L35.9891 67.888L36.4811 67.102H37.4951L36.5711 68.512L37.5611 70Z" fill="white"/>
<path d="M6.835 11.06C5.82 11.06 5.33 10.49 5.33 9.67V7.665H6.05V9.645C6.05 10.11 6.32 10.43 6.835 10.43C7.35 10.43 7.615 10.11 7.615 9.645V7.665H8.34V9.665C8.34 10.495 7.85 11.06 6.835 11.06ZM11.247 11H10.612V9.54C10.612 9.205 10.437 9.09 10.167 9.09C9.91699 9.09 9.72199 9.23 9.61699 9.375V11H8.98199V8.585H9.61699V8.9C9.77199 8.715 10.067 8.525 10.462 8.525C10.992 8.525 11.247 8.825 11.247 9.295V11ZM13.0025 11.06C12.2575 11.06 11.7225 10.535 11.7225 9.79C11.7225 9.05 12.2575 8.525 13.0025 8.525C13.4975 8.525 13.7975 8.74 13.9575 8.96L13.5425 9.35C13.4275 9.18 13.2525 9.09 13.0325 9.09C12.6475 9.09 12.3775 9.37 12.3775 9.79C12.3775 10.21 12.6475 10.495 13.0325 10.495C13.2525 10.495 13.4275 10.395 13.5425 10.235L13.9575 10.62C13.7975 10.845 13.4975 11.06 13.0025 11.06ZM15.4926 11.06C14.6976 11.06 14.2176 10.48 14.2176 9.79C14.2176 9.105 14.6976 8.525 15.4926 8.525C16.2926 8.525 16.7726 9.105 16.7726 9.79C16.7726 10.48 16.2926 11.06 15.4926 11.06ZM15.4926 10.495C15.8876 10.495 16.1126 10.17 16.1126 9.79C16.1126 9.415 15.8876 9.09 15.4926 9.09C15.0976 9.09 14.8776 9.415 14.8776 9.79C14.8776 10.17 15.0976 10.495 15.4926 10.495ZM20.8787 11H20.2387V9.475C20.2387 9.25 20.1387 9.09 19.8787 9.09C19.6537 9.09 19.4687 9.24 19.3787 9.37V11H18.7387V9.475C18.7387 9.25 18.6387 9.09 18.3787 9.09C18.1587 9.09 17.9737 9.24 17.8787 9.375V11H17.2437V8.585H17.8787V8.9C17.9787 8.755 18.2987 8.525 18.6687 8.525C19.0237 8.525 19.2487 8.69 19.3387 8.965C19.4787 8.745 19.7987 8.525 20.1687 8.525C20.6137 8.525 20.8787 8.76 20.8787 9.255V11ZM25.1365 11H24.4965V9.475C24.4965 9.25 24.3965 9.09 24.1365 9.09C23.9115 9.09 23.7265 9.24 23.6365 9.37V11H22.9965V9.475C22.9965 9.25 22.8965 9.09 22.6365 9.09C22.4165 9.09 22.2315 9.24 22.1365 9.375V11H21.5015V8.585H22.1365V8.9C22.2365 8.755 22.5565 8.525 22.9265 8.525C23.2815 8.525 23.5065 8.69 23.5965 8.965C23.7365 8.745 24.0565 8.525 24.4265 8.525C24.8715 8.525 25.1365 8.76 25.1365 9.255V11ZM26.8793 11.06C26.0843 11.06 25.6043 10.48 25.6043 9.79C25.6043 9.105 26.0843 8.525 26.8793 8.525C27.6793 8.525 28.1593 9.105 28.1593 9.79C28.1593 10.48 27.6793 11.06 26.8793 11.06ZM26.8793 10.495C27.2743 10.495 27.4993 10.17 27.4993 9.79C27.4993 9.415 27.2743 9.09 26.8793 9.09C26.4843 9.09 26.2643 9.415 26.2643 9.79C26.2643 10.17 26.4843 10.495 26.8793 10.495ZM30.8954 11H30.2604V9.54C30.2604 9.205 30.0854 9.09 29.8154 9.09C29.5654 9.09 29.3704 9.23 29.2654 9.375V11H28.6304V8.585H29.2654V8.9C29.4204 8.715 29.7154 8.525 30.1104 8.525C30.6404 8.525 30.8954 8.825 30.8954 9.295V11Z" fill="white"/>
<path d="M48.9046 11H48.4526L47.0606 9.096V11H46.5926V8.332H47.0726L48.4366 10.184V8.332H48.9046V11ZM50.3315 11.048C49.7195 11.048 49.3395 10.588 49.3395 10.032C49.3395 9.48 49.7195 9.02 50.3315 9.02C50.9515 9.02 51.3275 9.48 51.3275 10.032C51.3275 10.588 50.9515 11.048 50.3315 11.048ZM50.3315 10.676C50.6915 10.676 50.8915 10.376 50.8915 10.032C50.8915 9.692 50.6915 9.392 50.3315 9.392C49.9755 9.392 49.7755 9.692 49.7755 10.032C49.7755 10.376 49.9755 10.676 50.3315 10.676ZM51.9489 11.044C51.7969 11.044 51.6689 10.916 51.6689 10.764C51.6689 10.612 51.7969 10.484 51.9489 10.484C52.1009 10.484 52.2289 10.612 52.2289 10.764C52.2289 10.916 52.1009 11.044 51.9489 11.044ZM54.5288 11.044C54.2008 11.044 53.9448 10.928 53.7648 10.748L53.9808 10.396C54.1208 10.54 54.2768 10.628 54.5288 10.628C55.0128 10.628 55.2328 10.188 55.2328 9.752C55.2328 9.724 55.2328 9.7 55.2328 9.672C55.1088 9.852 54.8288 10.048 54.5168 10.048C54.0368 10.048 53.6208 9.752 53.6208 9.184C53.6208 8.692 54.0088 8.288 54.6048 8.288C55.3888 8.288 55.7048 8.924 55.7048 9.668C55.7048 10.436 55.3008 11.044 54.5288 11.044ZM54.6408 9.644C54.8688 9.644 55.0928 9.524 55.2248 9.332C55.2008 9.044 55.0408 8.704 54.6288 8.704C54.2808 8.704 54.0968 8.956 54.0968 9.168C54.0968 9.496 54.3528 9.644 54.6408 9.644ZM56.8671 11H56.3551L57.3631 8.744H55.9791V8.332H57.9031V8.656L56.8671 11Z" fill="white"/>
<defs>
<clipPath id="clip0_26835_29260">
<rect width="63" height="88" fill="white"/>
</clipPath>
</defs>
</svg>
