<svg width="63" height="88" viewBox="0 0 63 88" fill="none" xmlns="http://www.w3.org/2000/svg">
<rect width="63" height="88" rx="4" fill="#047BFF"/>
<path d="M36.7008 13.5133L44.7992 3.48665C45.5586 2.54645 46.7024 2 47.911 2H58C59.6569 2 61 3.34314 61 5V83C61 84.6569 59.6569 86 58 86H5C3.34315 86 2 84.6569 2 83V18C2 16.3431 3.34315 15 5 15H33.589C34.7976 15 35.9414 14.4536 36.7008 13.5133Z" fill="#213743"/>
<rect x="5" y="18" width="53" height="40" rx="1" fill="#2F4553"/>
<g clip-path="url(#clip0_26835_29262)">
<path d="M43.4915 54.1783C43.7641 55.1449 38.448 55.9999 32.2272 55.9999C26.0065 55.9999 20.963 55.182 20.963 54.1783C20.963 53.1746 26.0065 52.3567 32.2272 52.3567C38.448 52.3567 43.4295 53.9429 43.4915 54.1783Z" fill="#1A2C38"/>
<path d="M39.7243 32.9016L33.1442 36.4333L26.3535 39.5436C26.3535 39.5436 31.2731 45.467 32.6857 47.1647C32.8964 47.4125 33.8382 47.6975 33.8382 47.6975L37.184 51.5018C37.184 51.5018 37.0725 51.9851 37.2955 52.233C37.7912 52.7658 38.4232 53.2987 38.7826 53.6704C39.303 54.1785 40.4926 54.2033 41.6699 53.6085C42.8471 53.0137 43.6526 51.9727 43.4419 51.254C43.4419 51.254 42.748 46.8053 42.5125 45.2935C42.4877 45.1324 42.178 45.0333 42.178 45.0333L40.3068 37.1148C40.3068 37.1148 40.4679 36.7554 40.5918 35.95C40.6414 35.6402 40.4926 35.2436 40.4307 35.0206C40.2448 34.3886 39.712 32.8892 39.712 32.8892L39.7243 32.9016Z" fill="#FF7F00"/>
<path d="M26.8491 40.126L29.7612 43.6329C33.2186 42.5796 38.4108 37.7096 38.9189 33.9053L26.8491 40.126Z" fill="#FF5500"/>
<path d="M23.082 37.4617L25.3001 40.0888C25.6347 40.758 29.3771 39.5807 33.6523 37.4617C37.9275 35.3427 41.1246 33.0626 40.79 32.3934L40.0341 29.0476L23.082 37.4741V37.4617Z" fill="#FF7F00"/>
<path d="M30.8946 31.8999C36.3306 29.1979 40.4657 26.461 40.1306 25.7869C39.7955 25.1127 35.1171 26.7566 29.6811 29.4586C24.2451 32.1607 20.11 34.8976 20.445 35.5717C20.7801 36.2459 25.4585 34.6019 30.8946 31.8999Z" fill="#FFC201"/>
<path d="M20.4425 35.578L23.082 37.4491C23.4166 38.1183 27.4811 36.78 32.1653 34.4627C36.8494 32.1454 40.3687 29.7042 40.0341 29.0226L40.1333 25.7883L20.4425 35.578Z" fill="#FF5500"/>
<path d="M23.1068 28.6387C25.4884 28.6387 27.4192 26.708 27.4192 24.3263C27.4192 21.9446 25.4884 20.0139 23.1068 20.0139C20.7251 20.0139 18.7944 21.9446 18.7944 24.3263C18.7944 26.708 20.7251 28.6387 23.1068 28.6387Z" fill="white"/>
<path d="M23.8503 21.6248C26.232 21.6248 28.1627 19.6941 28.1627 17.3124C28.1627 14.9307 26.232 13 23.8503 13C21.4686 13 19.5379 14.9307 19.5379 17.3124C19.5379 19.6941 21.4686 21.6248 23.8503 21.6248Z" fill="white"/>
<path d="M29.5629 25.429C31.9446 25.429 33.8753 23.4983 33.8753 21.1166C33.8753 18.7349 31.9446 16.8042 29.5629 16.8042C27.1813 16.8042 25.2505 18.7349 25.2505 21.1166C25.2505 23.4983 27.1813 25.429 29.5629 25.429Z" fill="white"/>
<path d="M22.9085 35.5164C25.2902 35.5164 27.2209 33.5857 27.2209 31.204C27.2209 28.8223 25.2902 26.8916 22.9085 26.8916C20.5269 26.8916 18.5961 28.8223 18.5961 31.204C18.5961 33.5857 20.5269 35.5164 22.9085 35.5164Z" fill="white"/>
<path d="M35.1517 29.4319C37.5334 29.4319 39.4641 27.5012 39.4641 25.1195C39.4641 22.7379 37.5334 20.8071 35.1517 20.8071C32.7701 20.8071 30.8394 22.7379 30.8394 25.1195C30.8394 27.5012 32.7701 29.4319 35.1517 29.4319Z" fill="white"/>
<path d="M39.712 31.9595C38.4852 31.9595 37.8656 31.1912 37.8656 30.0264C37.8656 29.2581 37.0849 28.9731 36.3785 29.32L39.0304 23.186C39.0304 23.186 40.1705 25.4662 40.5422 26.2345C41.1866 27.5728 41.4716 28.3906 41.4716 29.7042C41.4716 31.0177 40.8272 31.9471 39.7244 31.9471L39.712 31.9595Z" fill="white"/>
<path d="M29.9223 20.9433L22.8961 24.4378L19.0422 33.1246C19.0422 33.1246 20.3433 35.5906 20.3433 37.8707C20.3433 40.7952 23.7263 40.696 23.7263 37.6352C23.7263 36.3713 23.6891 35.6773 24.792 35.0825C25.7338 34.5744 26.688 35.1321 26.7004 35.9871C26.7004 36.9785 27.3943 37.8831 28.3733 38.0194C29.6125 38.2053 30.6782 37.2387 30.6658 36.0367V33.707C30.641 32.7652 31.1739 31.8978 32.0289 31.4764L33.4664 30.7701L37.0724 28.9733L29.9099 20.9309L29.9223 20.9433Z" fill="white"/>
<path d="M20.5912 25.9126C21.3967 27.5235 23.5281 27.1641 26.3039 25.7763C27.2829 25.293 27.4811 25.0327 27.3696 24.8345C27.097 24.2768 22.2022 23.6696 21.1984 24.1777C20.4425 24.5495 20.2938 25.3301 20.5788 25.9126H20.5912Z" fill="#55DFFF"/>
<path d="M20.2691 32.4431C21.248 34.4134 23.6892 34.4382 27.2333 32.282C28.299 31.6253 28.5097 30.8322 28.1875 30.4356C27.2581 29.2832 22.2394 29.7169 21.0126 30.3241C20.0956 30.7826 19.8973 31.7244 20.2567 32.4431H20.2691Z" fill="#55DFFF"/>
<path d="M23.3422 46.0741C23.3422 46.9044 22.6731 47.5736 21.8428 47.5736C21.0125 47.5736 20.3434 46.9044 20.3434 46.0741C20.3434 45.2439 21.0125 43.2488 21.8428 43.2488C22.6731 43.2488 23.3422 45.2439 23.3422 46.0741Z" fill="white"/>
<path d="M40.4927 36.5447C40.2696 37.6847 39.0056 39.6303 37.9028 41.1297C37.4814 41.6997 37.7664 42.6787 38.3613 43.0628C39.1543 43.5833 40.4059 44.2896 42.2028 45.0455L40.4927 36.5447Z" fill="#FFC201"/>
<path d="M37.0601 49.0852C36.7379 48.9365 35.1146 48.2426 33.8506 47.7097L37.1964 51.514C37.2336 51.3529 37.3079 50.944 37.3947 50.5103C37.5929 49.6057 37.4442 49.2587 37.0477 49.0852H37.0601Z" fill="#FFC201"/>
</g>
<path fill-rule="evenodd" clip-rule="evenodd" d="M6.49771 79C6.98969 79 7.48602 79.213 7.49037 79.6913C7.49037 80.1043 7.24656 80.2696 6.99839 80.2696C6.75023 80.2696 6.73281 80.1435 6.73281 80.1435C6.73281 80.1435 7.02452 79.9261 7.02452 79.7174C7.02452 79.6087 6.94179 79.313 6.489 79.3174C5.8577 79.3174 5.5181 79.6174 5.5181 80.1522C5.5181 80.7652 7.35105 80.9739 7.3554 81.7652C7.3554 82.613 6.47594 82.9957 5.69225 83C5.283 83 5.01306 82.7609 5.00871 82.3783C5.00871 81.9261 5.22204 81.4652 5.75756 81.4652C5.88382 81.4565 5.98831 81.5522 5.99702 81.6783C5.99702 81.6783 5.99702 81.6826 5.99702 81.687C5.99702 81.687 5.45715 81.8391 5.4615 82.3783C5.4615 82.4783 5.56599 82.6609 5.81851 82.6565C6.07103 82.6522 6.82424 82.4739 6.81989 81.8087C6.81989 81.1913 5.00435 81.1087 5 80.1478C5 79.0652 6.08845 79.0087 6.49771 79.0087V79ZM10.747 79.6C10.8123 79.5696 11.2129 79.4913 11.1955 79.813C11.1824 80.1348 10.9386 80.6913 10.9037 80.9348C11.2303 80.7696 11.6918 80.2087 11.6918 80.2087C11.6918 80.2087 12.0183 80.2522 11.9182 80.4522C11.818 80.6522 11.1519 81.1435 11.1519 81.1435C11.1519 81.1435 11.3043 82.5696 12.1707 82.5696C12.6453 82.5696 12.8499 82.3609 12.937 82.287C12.9587 82.2696 12.9762 82.2652 12.9849 82.2783C13.0197 82.387 12.9936 82.5043 12.9152 82.5913C12.8194 82.6957 12.5974 82.8217 12.1533 82.8261C11.3653 82.8261 10.9255 82.1957 10.8123 81.2609C10.7252 81.5348 10.7339 81.9826 10.7209 82.2C10.6948 82.2435 10.2507 82.4174 10.2158 82.1174C10.2158 82.0913 10.2158 82.0696 10.2158 82.0435C10.1331 82.1609 10.0199 82.2826 9.91108 82.2826C9.71951 82.2826 9.63679 82.1217 9.60196 82.0391C9.57584 82.0696 9.3625 82.287 9.08821 82.287C8.92277 82.2913 8.77474 82.1957 8.70943 82.0435C8.57011 82.1435 8.32195 82.2913 8.03895 82.2913C7.73418 82.2913 7.66017 82.1087 7.66017 81.9565C7.66017 81.713 7.84303 80.987 7.84303 80.987C7.84303 80.987 7.48602 81.1304 7.36411 81.1348C7.19431 81.1348 7.11159 80.8217 7.11159 80.813C7.11159 80.8087 7.11159 80.8 7.1203 80.8C7.22044 80.7609 7.94317 80.513 7.94317 80.513C7.94317 80.513 8.07813 79.9826 8.09555 79.913C8.11296 79.8435 8.2131 79.7 8.33065 79.6565C8.41773 79.6217 8.50916 79.6 8.60059 79.5913C8.63107 79.5913 8.65284 79.6 8.65284 79.6174C8.65284 79.6348 8.47433 80.4087 8.47433 80.4087C8.47433 80.4087 8.84876 80.3217 8.98808 80.3217C9.09692 80.3217 9.15352 80.387 9.09257 80.4696C9.03162 80.5522 8.96196 80.6478 8.92712 80.6913C8.88794 80.7348 8.86182 80.7435 8.77039 80.7609C8.64413 80.787 8.36113 80.8565 8.36113 80.8565C8.36113 80.8565 8.13473 81.6783 8.13909 81.8174C8.13909 81.8957 8.16521 81.987 8.26099 81.987C8.35678 81.987 8.53964 81.8739 8.67025 81.7913C8.69202 81.1522 9.18835 80.7261 9.57584 80.7261C9.7021 80.7261 9.65421 80.8478 9.79788 80.8478H9.88931C9.94591 80.8478 10.0069 80.8522 10.0069 80.9957C10.0069 81.1957 9.89367 81.5261 9.89367 81.7348C9.89367 81.8826 9.91544 81.987 9.97204 81.987C10.0678 81.987 10.1767 81.8478 10.255 81.7261C10.3813 81.0304 10.734 79.7609 10.734 79.6174L10.747 79.6ZM12.5016 80.7C12.7672 80.6783 12.9326 80.8217 12.9631 80.9C12.9936 80.9783 12.9892 81.1609 12.9152 81.2913C12.6845 81.7044 12.1097 81.6304 12.1097 81.6304C12.1097 81.6304 12.0444 81.9565 12.3405 81.9565C12.593 81.9565 12.7062 81.8304 12.8151 81.7261C12.8586 81.7261 12.9936 81.8652 12.9326 81.9609C12.8847 82.0348 12.6191 82.2565 12.2795 82.2609C11.7397 82.2609 11.6047 81.8 11.6744 81.4696C11.7658 81.0609 12.1751 80.7217 12.5016 80.6957V80.7ZM9.6455 80.987C9.32332 80.987 8.82699 81.9696 9.20577 81.9652C9.61938 81.9652 9.6455 81.1826 9.6455 81.0043V80.987ZM12.6409 80.8913C12.4232 80.9 12.1751 81.3174 12.1533 81.5C12.4798 81.513 12.654 81.1957 12.6757 81.0696C12.6888 80.9739 12.6932 80.887 12.6409 80.887V80.8913Z" fill="#557086"/>
<path d="M40.851 79.0672L39.2522 80.8632C39.1826 80.9428 39.1826 81.0572 39.2522 81.1368L40.8461 82.9328C40.9255 83.0224 41.0695 83.0224 41.1539 82.9328L42.7479 81.1368C42.8174 81.0572 42.8174 80.9428 42.7479 80.8632L41.1539 79.0672C41.0745 78.9776 40.9305 78.9776 40.8461 79.0672H40.851Z" fill="white"/>
<path d="M41.6604 79.6343L42.1421 80.1766L40.568 82.6144L39.704 81.6393L41.6604 79.6343Z" fill="#8EA3B2"/>
<path d="M45.851 79.0672L44.2522 80.8632C44.1826 80.9428 44.1826 81.0572 44.2522 81.1368L45.8461 82.9328C45.9255 83.0224 46.0695 83.0224 46.1539 82.9328L47.7479 81.1368C47.8174 81.0572 47.8174 80.9428 47.7479 80.8632L46.1539 79.0672C46.0745 78.9776 45.9305 78.9776 45.8461 79.0672H45.851Z" fill="white"/>
<path d="M46.6604 79.6343L47.1421 80.1766L45.568 82.6144L44.704 81.6393L46.6604 79.6343Z" fill="#8EA3B2"/>
<path d="M50.851 79.0672L49.2522 80.8632C49.1826 80.9428 49.1826 81.0572 49.2522 81.1368L50.8461 82.9328C50.9255 83.0224 51.0695 83.0224 51.1539 82.9328L52.7479 81.1368C52.8174 81.0572 52.8174 80.9428 52.7479 80.8632L51.1539 79.0672C51.0745 78.9776 50.9305 78.9776 50.8461 79.0672H50.851Z" fill="white"/>
<path d="M51.6604 79.6343L52.1421 80.1766L50.568 82.6144L49.704 81.6393L51.6604 79.6343Z" fill="#8EA3B2"/>
<path d="M55.851 79.0672L54.2522 80.8632C54.1826 80.9428 54.1826 81.0572 54.2522 81.1368L55.8461 82.9328C55.9255 83.0224 56.0695 83.0224 56.1539 82.9328L57.7479 81.1368C57.8174 81.0572 57.8174 80.9428 57.7479 80.8632L56.1539 79.0672C56.0745 78.9776 55.9305 78.9776 55.8461 79.0672H55.851Z" fill="white"/>
<path d="M56.6604 79.6343L57.1421 80.1766L55.568 82.6144L54.704 81.6393L56.6604 79.6343Z" fill="#8EA3B2"/>
<rect x="13" y="62" width="37" height="13" rx="6.5" fill="#2F4553"/>
<path d="M27.3486 70.072C26.1786 70.072 25.6326 69.058 25.6326 68.002C25.6326 66.946 26.1786 65.938 27.3486 65.938C28.5186 65.938 29.0646 66.946 29.0646 68.002C29.0646 69.058 28.5186 70.072 27.3486 70.072ZM27.3486 69.16C27.8286 69.16 28.0206 68.71 28.0206 68.002C28.0206 67.294 27.8286 66.85 27.3486 66.85C26.8686 66.85 26.6766 67.294 26.6766 68.002C26.6766 68.71 26.8686 69.16 27.3486 69.16ZM29.9368 70.072C29.6308 70.072 29.3728 69.814 29.3728 69.508C29.3728 69.202 29.6308 68.944 29.9368 68.944C30.2428 68.944 30.5008 69.202 30.5008 69.508C30.5008 69.814 30.2428 70.072 29.9368 70.072ZM32.604 70.072C31.896 70.072 31.362 69.856 30.99 69.49L31.554 68.77C31.83 69.022 32.208 69.16 32.592 69.16C33.03 69.16 33.246 68.944 33.246 68.698C33.246 68.428 33.036 68.236 32.622 68.236C32.304 68.236 32.052 68.326 31.83 68.536L31.116 68.362V65.998H34.02V66.898H32.148V67.672C32.34 67.486 32.652 67.354 33.006 67.354C33.684 67.354 34.296 67.852 34.296 68.656C34.296 69.52 33.642 70.072 32.604 70.072ZM37.5611 70H36.5471L35.9891 69.124L35.4251 70H34.4171L35.4071 68.512L34.4771 67.102H35.4911L35.9891 67.888L36.4811 67.102H37.4951L36.5711 68.512L37.5611 70Z" fill="white"/>
<path d="M6.835 11.06C5.82 11.06 5.33 10.49 5.33 9.67V7.665H6.05V9.645C6.05 10.11 6.32 10.43 6.835 10.43C7.35 10.43 7.615 10.11 7.615 9.645V7.665H8.34V9.665C8.34 10.495 7.85 11.06 6.835 11.06ZM11.247 11H10.612V9.54C10.612 9.205 10.437 9.09 10.167 9.09C9.91699 9.09 9.72199 9.23 9.61699 9.375V11H8.98199V8.585H9.61699V8.9C9.77199 8.715 10.067 8.525 10.462 8.525C10.992 8.525 11.247 8.825 11.247 9.295V11ZM13.0025 11.06C12.2575 11.06 11.7225 10.535 11.7225 9.79C11.7225 9.05 12.2575 8.525 13.0025 8.525C13.4975 8.525 13.7975 8.74 13.9575 8.96L13.5425 9.35C13.4275 9.18 13.2525 9.09 13.0325 9.09C12.6475 9.09 12.3775 9.37 12.3775 9.79C12.3775 10.21 12.6475 10.495 13.0325 10.495C13.2525 10.495 13.4275 10.395 13.5425 10.235L13.9575 10.62C13.7975 10.845 13.4975 11.06 13.0025 11.06ZM15.4926 11.06C14.6976 11.06 14.2176 10.48 14.2176 9.79C14.2176 9.105 14.6976 8.525 15.4926 8.525C16.2926 8.525 16.7726 9.105 16.7726 9.79C16.7726 10.48 16.2926 11.06 15.4926 11.06ZM15.4926 10.495C15.8876 10.495 16.1126 10.17 16.1126 9.79C16.1126 9.415 15.8876 9.09 15.4926 9.09C15.0976 9.09 14.8776 9.415 14.8776 9.79C14.8776 10.17 15.0976 10.495 15.4926 10.495ZM20.8787 11H20.2387V9.475C20.2387 9.25 20.1387 9.09 19.8787 9.09C19.6537 9.09 19.4687 9.24 19.3787 9.37V11H18.7387V9.475C18.7387 9.25 18.6387 9.09 18.3787 9.09C18.1587 9.09 17.9737 9.24 17.8787 9.375V11H17.2437V8.585H17.8787V8.9C17.9787 8.755 18.2987 8.525 18.6687 8.525C19.0237 8.525 19.2487 8.69 19.3387 8.965C19.4787 8.745 19.7987 8.525 20.1687 8.525C20.6137 8.525 20.8787 8.76 20.8787 9.255V11ZM25.1365 11H24.4965V9.475C24.4965 9.25 24.3965 9.09 24.1365 9.09C23.9115 9.09 23.7265 9.24 23.6365 9.37V11H22.9965V9.475C22.9965 9.25 22.8965 9.09 22.6365 9.09C22.4165 9.09 22.2315 9.24 22.1365 9.375V11H21.5015V8.585H22.1365V8.9C22.2365 8.755 22.5565 8.525 22.9265 8.525C23.2815 8.525 23.5065 8.69 23.5965 8.965C23.7365 8.745 24.0565 8.525 24.4265 8.525C24.8715 8.525 25.1365 8.76 25.1365 9.255V11ZM26.8793 11.06C26.0843 11.06 25.6043 10.48 25.6043 9.79C25.6043 9.105 26.0843 8.525 26.8793 8.525C27.6793 8.525 28.1593 9.105 28.1593 9.79C28.1593 10.48 27.6793 11.06 26.8793 11.06ZM26.8793 10.495C27.2743 10.495 27.4993 10.17 27.4993 9.79C27.4993 9.415 27.2743 9.09 26.8793 9.09C26.4843 9.09 26.2643 9.415 26.2643 9.79C26.2643 10.17 26.4843 10.495 26.8793 10.495ZM30.8954 11H30.2604V9.54C30.2604 9.205 30.0854 9.09 29.8154 9.09C29.5654 9.09 29.3704 9.23 29.2654 9.375V11H28.6304V8.585H29.2654V8.9C29.4204 8.715 29.7154 8.525 30.1104 8.525C30.6404 8.525 30.8954 8.825 30.8954 9.295V11Z" fill="white"/>
<path d="M48.6312 11H48.1792L46.7872 9.096V11H46.3192V8.332H46.7992L48.1632 10.184V8.332H48.6312V11ZM50.0581 11.048C49.4461 11.048 49.0661 10.588 49.0661 10.032C49.0661 9.48 49.4461 9.02 50.0581 9.02C50.6781 9.02 51.0541 9.48 51.0541 10.032C51.0541 10.588 50.6781 11.048 50.0581 11.048ZM50.0581 10.676C50.4181 10.676 50.6181 10.376 50.6181 10.032C50.6181 9.692 50.4181 9.392 50.0581 9.392C49.7021 9.392 49.5021 9.692 49.5021 10.032C49.5021 10.376 49.7021 10.676 50.0581 10.676ZM51.6755 11.044C51.5235 11.044 51.3955 10.916 51.3955 10.764C51.3955 10.612 51.5235 10.484 51.6755 10.484C51.8275 10.484 51.9555 10.612 51.9555 10.764C51.9555 10.916 51.8275 11.044 51.6755 11.044ZM54.2553 11.044C53.9273 11.044 53.6713 10.928 53.4913 10.748L53.7073 10.396C53.8473 10.54 54.0033 10.628 54.2553 10.628C54.7393 10.628 54.9593 10.188 54.9593 9.752C54.9593 9.724 54.9593 9.7 54.9593 9.672C54.8353 9.852 54.5553 10.048 54.2433 10.048C53.7633 10.048 53.3473 9.752 53.3473 9.184C53.3473 8.692 53.7353 8.288 54.3313 8.288C55.1153 8.288 55.4313 8.924 55.4313 9.668C55.4313 10.436 55.0273 11.044 54.2553 11.044ZM54.3673 9.644C54.5953 9.644 54.8193 9.524 54.9513 9.332C54.9273 9.044 54.7673 8.704 54.3553 8.704C54.0073 8.704 53.8233 8.956 53.8233 9.168C53.8233 9.496 54.0793 9.644 54.3673 9.644ZM56.6577 11.044C56.3297 11.044 56.0737 10.928 55.8937 10.748L56.1097 10.396C56.2497 10.54 56.4057 10.628 56.6577 10.628C57.1417 10.628 57.3617 10.188 57.3617 9.752C57.3617 9.724 57.3617 9.7 57.3617 9.672C57.2377 9.852 56.9577 10.048 56.6457 10.048C56.1657 10.048 55.7497 9.752 55.7497 9.184C55.7497 8.692 56.1377 8.288 56.7337 8.288C57.5177 8.288 57.8337 8.924 57.8337 9.668C57.8337 10.436 57.4297 11.044 56.6577 11.044ZM56.7697 9.644C56.9977 9.644 57.2217 9.524 57.3537 9.332C57.3297 9.044 57.1697 8.704 56.7577 8.704C56.4097 8.704 56.2257 8.956 56.2257 9.168C56.2257 9.496 56.4817 9.644 56.7697 9.644Z" fill="white"/>
<defs>
<clipPath id="clip0_26835_29262">
<rect width="24.9078" height="43" fill="white" transform="translate(18.5961 13)"/>
</clipPath>
</defs>
</svg>
