<svg width="63" height="88" viewBox="0 0 63 88" fill="none" xmlns="http://www.w3.org/2000/svg">
<rect width="63" height="88" rx="4" fill="#047BFF"/>
<path d="M36.7008 13.5133L44.7992 3.48665C45.5586 2.54645 46.7024 2 47.911 2H58C59.6569 2 61 3.34314 61 5V83C61 84.6569 59.6569 86 58 86H5C3.34315 86 2 84.6569 2 83V18C2 16.3431 3.34315 15 5 15H33.589C34.7976 15 35.9414 14.4536 36.7008 13.5133Z" fill="#213743"/>
<rect x="5" y="18" width="53" height="40" rx="1" fill="#2F4553"/>
<g clip-path="url(#clip0_26835_29263)">
<path d="M41.3438 25.1211H15.3904C13.7978 25.1211 12.5067 26.4122 12.5067 28.0048V51.6242C12.5067 53.2169 13.7978 54.5079 15.3904 54.5079H41.3438C42.9364 54.5079 44.2275 53.2169 44.2275 51.6242V28.0048C44.2275 26.4122 42.9364 25.1211 41.3438 25.1211Z" fill="#071D2A"/>
<path d="M46.551 22.7871H20.8259C19.1702 22.7871 17.8281 24.1293 17.8281 25.7849V51.5101C17.8281 53.1657 19.1702 54.5079 20.8259 54.5079H46.551C48.2067 54.5079 49.5488 53.1657 49.5488 51.5101V25.7849C49.5488 24.1293 48.2067 22.7871 46.551 22.7871Z" fill="#FF7F00"/>
<path d="M46.551 19.644H20.8259C19.1702 19.644 17.8281 20.9862 17.8281 22.6419V48.367C17.8281 50.0227 19.1702 51.3648 20.8259 51.3648H46.551C48.2067 51.3648 49.5488 50.0227 49.5488 48.367V22.6419C49.5488 20.9862 48.2067 19.644 46.551 19.644Z" fill="#FFC200"/>
<path d="M45.327 22.7871H22.0499C21.4541 22.7871 20.9711 23.2701 20.9711 23.8659V47.143C20.9711 47.7388 21.4541 48.2218 22.0499 48.2218H45.327C45.9228 48.2218 46.4058 47.7388 46.4058 47.143V23.8659C46.4058 23.2701 45.9228 22.7871 45.327 22.7871Z" fill="#071D2A"/>
<path d="M46.468 42.1847L49.9741 37.0189C50.4306 36.3447 50.6069 35.5149 50.4513 34.7161L47.1008 17.2479C46.9452 16.4492 46.4784 15.7438 45.8042 15.2874L40.6384 11.7813C39.9641 11.3249 39.1343 11.1486 38.3356 11.3042L20.8674 14.6547C20.0686 14.8103 19.3633 15.277 18.9069 15.9513L15.4008 21.1171C14.9444 21.7913 14.768 22.6212 14.9236 23.4199L18.2741 40.8881C18.4297 41.6868 18.8965 42.3922 19.5707 42.8486L24.7365 46.3547C25.4108 46.8111 26.2406 46.9874 27.0393 46.8319L44.5075 43.4814C45.3063 43.3258 46.0116 42.859 46.468 42.1847Z" fill="#1CE61C"/>
<path d="M42.7338 37.7865L44.4868 35.1933C45.0366 34.3842 45.2441 33.3884 45.0574 32.4341L42.9413 21.3764C42.7545 20.4221 42.2048 19.5715 41.3957 19.0217L38.8024 17.2687C37.9933 16.7189 36.9975 16.5114 36.0432 16.6981L24.9855 18.8142C24.0312 19.001 23.1806 19.5507 22.6308 20.3598L20.8778 22.9531C20.328 23.7622 20.1206 24.758 20.3073 25.7123L22.4234 36.77C22.6101 37.7243 23.1599 38.5749 23.969 39.1247L26.5622 40.8777C27.3713 41.4275 28.3671 41.6349 29.3215 41.4482L40.3791 39.3321C41.3334 39.1454 42.184 38.5956 42.7338 37.7865Z" fill="#80FF80"/>
<path d="M16.0024 22.6833L19.1869 23.9073C19.6745 24.0941 20.2242 23.9177 20.5147 23.4924L22.9835 19.8515C23.2739 19.4158 23.2324 18.8453 22.8797 18.4615L20.5665 15.9616C20.079 15.4326 19.218 15.4948 18.8135 16.0964L15.4734 21.0236C15.0688 21.6253 15.3282 22.4448 16.0024 22.7041V22.6833Z" fill="#80FF80"/>
<path d="M45.8145 16.9679L43.3146 19.2811C42.9308 19.6338 42.3603 19.6753 41.9246 19.3848L38.2837 16.916C37.848 16.6256 37.6821 16.0758 37.8688 15.5883L39.0928 12.4038C39.3521 11.7295 40.1716 11.4702 40.7732 11.8747L45.7004 15.2149C46.3021 15.6194 46.3643 16.4804 45.8353 16.9679H45.8145Z" fill="white"/>
<path d="M29.6015 32.7246L30.5661 30.847C31.3026 31.3035 32.2155 31.4487 33.0868 31.2827C34.0826 31.096 34.4768 30.5047 34.3731 29.9446C34.259 29.3326 33.6988 28.9903 32.7549 29.1666C32.0287 29.3015 31.4997 29.623 31.0848 30.1935L29.3836 30.1106L28.3567 24.7477L34.9436 23.4822L35.3378 25.5257L31.0848 26.3451L31.4167 28.0982C31.7694 27.5899 32.4229 27.1542 33.2216 26.9986C34.7569 26.7082 36.3647 27.5692 36.7174 29.3948C37.0908 31.3553 35.846 32.8905 33.4913 33.3469C31.8835 33.6581 30.5765 33.3988 29.5703 32.7246H29.6015Z" fill="#071D2A"/>
<path d="M27.4335 42.7554L26.6036 44.9026C26.2406 45.8465 27.0601 46.832 28.0559 46.6349L43.5532 43.6578C44.549 43.4711 44.9432 42.2678 44.2689 41.521L42.6404 39.7264C42.184 39.2181 41.489 38.9899 40.8147 39.1248L28.8753 41.5417C28.2218 41.6766 27.6824 42.133 27.4439 42.7554H27.4335Z" fill="#008C00"/>
</g>
<path fill-rule="evenodd" clip-rule="evenodd" d="M6.49771 79C6.98969 79 7.48602 79.213 7.49037 79.6913C7.49037 80.1043 7.24656 80.2696 6.99839 80.2696C6.75023 80.2696 6.73281 80.1435 6.73281 80.1435C6.73281 80.1435 7.02452 79.9261 7.02452 79.7174C7.02452 79.6087 6.94179 79.313 6.489 79.3174C5.8577 79.3174 5.5181 79.6174 5.5181 80.1522C5.5181 80.7652 7.35105 80.9739 7.3554 81.7652C7.3554 82.613 6.47594 82.9957 5.69225 83C5.283 83 5.01306 82.7609 5.00871 82.3783C5.00871 81.9261 5.22204 81.4652 5.75756 81.4652C5.88382 81.4565 5.98831 81.5522 5.99702 81.6783C5.99702 81.6783 5.99702 81.6826 5.99702 81.687C5.99702 81.687 5.45715 81.8391 5.4615 82.3783C5.4615 82.4783 5.56599 82.6609 5.81851 82.6565C6.07103 82.6522 6.82424 82.4739 6.81989 81.8087C6.81989 81.1913 5.00435 81.1087 5 80.1478C5 79.0652 6.08845 79.0087 6.49771 79.0087V79ZM10.747 79.6C10.8123 79.5696 11.2129 79.4913 11.1955 79.813C11.1824 80.1348 10.9386 80.6913 10.9037 80.9348C11.2303 80.7696 11.6918 80.2087 11.6918 80.2087C11.6918 80.2087 12.0183 80.2522 11.9182 80.4522C11.818 80.6522 11.1519 81.1435 11.1519 81.1435C11.1519 81.1435 11.3043 82.5696 12.1707 82.5696C12.6453 82.5696 12.8499 82.3609 12.937 82.287C12.9587 82.2696 12.9762 82.2652 12.9849 82.2783C13.0197 82.387 12.9936 82.5043 12.9152 82.5913C12.8194 82.6957 12.5974 82.8217 12.1533 82.8261C11.3653 82.8261 10.9255 82.1957 10.8123 81.2609C10.7252 81.5348 10.7339 81.9826 10.7209 82.2C10.6948 82.2435 10.2507 82.4174 10.2158 82.1174C10.2158 82.0913 10.2158 82.0696 10.2158 82.0435C10.1331 82.1609 10.0199 82.2826 9.91108 82.2826C9.71951 82.2826 9.63679 82.1217 9.60196 82.0391C9.57584 82.0696 9.3625 82.287 9.08821 82.287C8.92277 82.2913 8.77474 82.1957 8.70943 82.0435C8.57011 82.1435 8.32195 82.2913 8.03895 82.2913C7.73418 82.2913 7.66017 82.1087 7.66017 81.9565C7.66017 81.713 7.84303 80.987 7.84303 80.987C7.84303 80.987 7.48602 81.1304 7.36411 81.1348C7.19431 81.1348 7.11159 80.8217 7.11159 80.813C7.11159 80.8087 7.11159 80.8 7.1203 80.8C7.22044 80.7609 7.94317 80.513 7.94317 80.513C7.94317 80.513 8.07813 79.9826 8.09555 79.913C8.11296 79.8435 8.2131 79.7 8.33065 79.6565C8.41773 79.6217 8.50916 79.6 8.60059 79.5913C8.63107 79.5913 8.65284 79.6 8.65284 79.6174C8.65284 79.6348 8.47433 80.4087 8.47433 80.4087C8.47433 80.4087 8.84876 80.3217 8.98808 80.3217C9.09692 80.3217 9.15352 80.387 9.09257 80.4696C9.03162 80.5522 8.96196 80.6478 8.92712 80.6913C8.88794 80.7348 8.86182 80.7435 8.77039 80.7609C8.64413 80.787 8.36113 80.8565 8.36113 80.8565C8.36113 80.8565 8.13473 81.6783 8.13909 81.8174C8.13909 81.8957 8.16521 81.987 8.26099 81.987C8.35678 81.987 8.53964 81.8739 8.67025 81.7913C8.69202 81.1522 9.18835 80.7261 9.57584 80.7261C9.7021 80.7261 9.65421 80.8478 9.79788 80.8478H9.88931C9.94591 80.8478 10.0069 80.8522 10.0069 80.9957C10.0069 81.1957 9.89367 81.5261 9.89367 81.7348C9.89367 81.8826 9.91544 81.987 9.97204 81.987C10.0678 81.987 10.1767 81.8478 10.255 81.7261C10.3813 81.0304 10.734 79.7609 10.734 79.6174L10.747 79.6ZM12.5016 80.7C12.7672 80.6783 12.9326 80.8217 12.9631 80.9C12.9936 80.9783 12.9892 81.1609 12.9152 81.2913C12.6845 81.7044 12.1097 81.6304 12.1097 81.6304C12.1097 81.6304 12.0444 81.9565 12.3405 81.9565C12.593 81.9565 12.7062 81.8304 12.8151 81.7261C12.8586 81.7261 12.9936 81.8652 12.9326 81.9609C12.8847 82.0348 12.6191 82.2565 12.2795 82.2609C11.7397 82.2609 11.6047 81.8 11.6744 81.4696C11.7658 81.0609 12.1751 80.7217 12.5016 80.6957V80.7ZM9.6455 80.987C9.32332 80.987 8.82699 81.9696 9.20577 81.9652C9.61938 81.9652 9.6455 81.1826 9.6455 81.0043V80.987ZM12.6409 80.8913C12.4232 80.9 12.1751 81.3174 12.1533 81.5C12.4798 81.513 12.654 81.1957 12.6757 81.0696C12.6888 80.9739 12.6932 80.887 12.6409 80.887V80.8913Z" fill="#557086"/>
<path d="M40.851 79.0672L39.2522 80.8632C39.1826 80.9428 39.1826 81.0572 39.2522 81.1368L40.8461 82.9328C40.9255 83.0224 41.0695 83.0224 41.1539 82.9328L42.7479 81.1368C42.8174 81.0572 42.8174 80.9428 42.7479 80.8632L41.1539 79.0672C41.0745 78.9776 40.9305 78.9776 40.8461 79.0672H40.851Z" fill="white"/>
<path d="M41.6604 79.6343L42.1421 80.1766L40.568 82.6144L39.704 81.6393L41.6604 79.6343Z" fill="#8EA3B2"/>
<path d="M45.851 79.0672L44.2522 80.8632C44.1826 80.9428 44.1826 81.0572 44.2522 81.1368L45.8461 82.9328C45.9255 83.0224 46.0695 83.0224 46.1539 82.9328L47.7479 81.1368C47.8174 81.0572 47.8174 80.9428 47.7479 80.8632L46.1539 79.0672C46.0745 78.9776 45.9305 78.9776 45.8461 79.0672H45.851Z" fill="white"/>
<path d="M46.6604 79.6343L47.1421 80.1766L45.568 82.6144L44.704 81.6393L46.6604 79.6343Z" fill="#8EA3B2"/>
<path d="M50.851 79.0672L49.2522 80.8632C49.1826 80.9428 49.1826 81.0572 49.2522 81.1368L50.8461 82.9328C50.9255 83.0224 51.0695 83.0224 51.1539 82.9328L52.7479 81.1368C52.8174 81.0572 52.8174 80.9428 52.7479 80.8632L51.1539 79.0672C51.0745 78.9776 50.9305 78.9776 50.8461 79.0672H50.851Z" fill="white"/>
<path d="M51.6604 79.6343L52.1421 80.1766L50.568 82.6144L49.704 81.6393L51.6604 79.6343Z" fill="#8EA3B2"/>
<path d="M55.851 79.0672L54.2522 80.8632C54.1826 80.9428 54.1826 81.0572 54.2522 81.1368L55.8461 82.9328C55.9255 83.0224 56.0695 83.0224 56.1539 82.9328L57.7479 81.1368C57.8174 81.0572 57.8174 80.9428 57.7479 80.8632L56.1539 79.0672C56.0745 78.9776 55.9305 78.9776 55.8461 79.0672H55.851Z" fill="white"/>
<path d="M56.6604 79.6343L57.1421 80.1766L55.568 82.6144L54.704 81.6393L56.6604 79.6343Z" fill="#8EA3B2"/>
<rect x="13" y="62" width="37" height="13" rx="6.5" fill="#2F4553"/>
<path d="M27.3486 70.072C26.1786 70.072 25.6326 69.058 25.6326 68.002C25.6326 66.946 26.1786 65.938 27.3486 65.938C28.5186 65.938 29.0646 66.946 29.0646 68.002C29.0646 69.058 28.5186 70.072 27.3486 70.072ZM27.3486 69.16C27.8286 69.16 28.0206 68.71 28.0206 68.002C28.0206 67.294 27.8286 66.85 27.3486 66.85C26.8686 66.85 26.6766 67.294 26.6766 68.002C26.6766 68.71 26.8686 69.16 27.3486 69.16ZM29.9368 70.072C29.6308 70.072 29.3728 69.814 29.3728 69.508C29.3728 69.202 29.6308 68.944 29.9368 68.944C30.2428 68.944 30.5008 69.202 30.5008 69.508C30.5008 69.814 30.2428 70.072 29.9368 70.072ZM32.604 70.072C31.896 70.072 31.362 69.856 30.99 69.49L31.554 68.77C31.83 69.022 32.208 69.16 32.592 69.16C33.03 69.16 33.246 68.944 33.246 68.698C33.246 68.428 33.036 68.236 32.622 68.236C32.304 68.236 32.052 68.326 31.83 68.536L31.116 68.362V65.998H34.02V66.898H32.148V67.672C32.34 67.486 32.652 67.354 33.006 67.354C33.684 67.354 34.296 67.852 34.296 68.656C34.296 69.52 33.642 70.072 32.604 70.072ZM37.5611 70H36.5471L35.9891 69.124L35.4251 70H34.4171L35.4071 68.512L34.4771 67.102H35.4911L35.9891 67.888L36.4811 67.102H37.4951L36.5711 68.512L37.5611 70Z" fill="white"/>
<path d="M6.835 11.06C5.82 11.06 5.33 10.49 5.33 9.67V7.665H6.05V9.645C6.05 10.11 6.32 10.43 6.835 10.43C7.35 10.43 7.615 10.11 7.615 9.645V7.665H8.34V9.665C8.34 10.495 7.85 11.06 6.835 11.06ZM11.247 11H10.612V9.54C10.612 9.205 10.437 9.09 10.167 9.09C9.91699 9.09 9.72199 9.23 9.61699 9.375V11H8.98199V8.585H9.61699V8.9C9.77199 8.715 10.067 8.525 10.462 8.525C10.992 8.525 11.247 8.825 11.247 9.295V11ZM13.0025 11.06C12.2575 11.06 11.7225 10.535 11.7225 9.79C11.7225 9.05 12.2575 8.525 13.0025 8.525C13.4975 8.525 13.7975 8.74 13.9575 8.96L13.5425 9.35C13.4275 9.18 13.2525 9.09 13.0325 9.09C12.6475 9.09 12.3775 9.37 12.3775 9.79C12.3775 10.21 12.6475 10.495 13.0325 10.495C13.2525 10.495 13.4275 10.395 13.5425 10.235L13.9575 10.62C13.7975 10.845 13.4975 11.06 13.0025 11.06ZM15.4926 11.06C14.6976 11.06 14.2176 10.48 14.2176 9.79C14.2176 9.105 14.6976 8.525 15.4926 8.525C16.2926 8.525 16.7726 9.105 16.7726 9.79C16.7726 10.48 16.2926 11.06 15.4926 11.06ZM15.4926 10.495C15.8876 10.495 16.1126 10.17 16.1126 9.79C16.1126 9.415 15.8876 9.09 15.4926 9.09C15.0976 9.09 14.8776 9.415 14.8776 9.79C14.8776 10.17 15.0976 10.495 15.4926 10.495ZM20.8787 11H20.2387V9.475C20.2387 9.25 20.1387 9.09 19.8787 9.09C19.6537 9.09 19.4687 9.24 19.3787 9.37V11H18.7387V9.475C18.7387 9.25 18.6387 9.09 18.3787 9.09C18.1587 9.09 17.9737 9.24 17.8787 9.375V11H17.2437V8.585H17.8787V8.9C17.9787 8.755 18.2987 8.525 18.6687 8.525C19.0237 8.525 19.2487 8.69 19.3387 8.965C19.4787 8.745 19.7987 8.525 20.1687 8.525C20.6137 8.525 20.8787 8.76 20.8787 9.255V11ZM25.1365 11H24.4965V9.475C24.4965 9.25 24.3965 9.09 24.1365 9.09C23.9115 9.09 23.7265 9.24 23.6365 9.37V11H22.9965V9.475C22.9965 9.25 22.8965 9.09 22.6365 9.09C22.4165 9.09 22.2315 9.24 22.1365 9.375V11H21.5015V8.585H22.1365V8.9C22.2365 8.755 22.5565 8.525 22.9265 8.525C23.2815 8.525 23.5065 8.69 23.5965 8.965C23.7365 8.745 24.0565 8.525 24.4265 8.525C24.8715 8.525 25.1365 8.76 25.1365 9.255V11ZM26.8793 11.06C26.0843 11.06 25.6043 10.48 25.6043 9.79C25.6043 9.105 26.0843 8.525 26.8793 8.525C27.6793 8.525 28.1593 9.105 28.1593 9.79C28.1593 10.48 27.6793 11.06 26.8793 11.06ZM26.8793 10.495C27.2743 10.495 27.4993 10.17 27.4993 9.79C27.4993 9.415 27.2743 9.09 26.8793 9.09C26.4843 9.09 26.2643 9.415 26.2643 9.79C26.2643 10.17 26.4843 10.495 26.8793 10.495ZM30.8954 11H30.2604V9.54C30.2604 9.205 30.0854 9.09 29.8154 9.09C29.5654 9.09 29.3704 9.23 29.2654 9.375V11H28.6304V8.585H29.2654V8.9C29.4204 8.715 29.7154 8.525 30.1104 8.525C30.6404 8.525 30.8954 8.825 30.8954 9.295V11Z" fill="white"/>
<path d="M46.9866 11H46.5346L45.1426 9.096V11H44.6746V8.332H45.1546L46.5186 10.184V8.332H46.9866V11ZM48.4135 11.048C47.8015 11.048 47.4215 10.588 47.4215 10.032C47.4215 9.48 47.8015 9.02 48.4135 9.02C49.0335 9.02 49.4095 9.48 49.4095 10.032C49.4095 10.588 49.0335 11.048 48.4135 11.048ZM48.4135 10.676C48.7735 10.676 48.9735 10.376 48.9735 10.032C48.9735 9.692 48.7735 9.392 48.4135 9.392C48.0575 9.392 47.8575 9.692 47.8575 10.032C47.8575 10.376 48.0575 10.676 48.4135 10.676ZM50.031 11.044C49.879 11.044 49.751 10.916 49.751 10.764C49.751 10.612 49.879 10.484 50.031 10.484C50.183 10.484 50.311 10.612 50.311 10.764C50.311 10.916 50.183 11.044 50.031 11.044ZM52.7868 11H52.3188V8.94L51.8828 9.392L51.6108 9.108L52.3788 8.332H52.7868V11ZM54.3023 11.048C53.5543 11.048 53.2343 10.34 53.2343 9.668C53.2343 8.996 53.5543 8.292 54.3023 8.292C55.0503 8.292 55.3703 8.996 55.3703 9.668C55.3703 10.34 55.0503 11.048 54.3023 11.048ZM54.3023 10.632C54.7383 10.632 54.8943 10.176 54.8943 9.668C54.8943 9.16 54.7383 8.708 54.3023 8.708C53.8663 8.708 53.7103 9.16 53.7103 9.668C53.7103 10.176 53.8663 10.632 54.3023 10.632ZM56.7672 11.048C56.0192 11.048 55.6992 10.34 55.6992 9.668C55.6992 8.996 56.0192 8.292 56.7672 8.292C57.5152 8.292 57.8352 8.996 57.8352 9.668C57.8352 10.34 57.5152 11.048 56.7672 11.048ZM56.7672 10.632C57.2032 10.632 57.3592 10.176 57.3592 9.668C57.3592 9.16 57.2032 8.708 56.7672 8.708C56.3312 8.708 56.1752 9.16 56.1752 9.668C56.1752 10.176 56.3312 10.632 56.7672 10.632Z" fill="white"/>
<defs>
<clipPath id="clip0_26835_29263">
<rect width="63" height="88" fill="white"/>
</clipPath>
</defs>
</svg>
