<svg width="63" height="88" viewBox="0 0 63 88" fill="none" xmlns="http://www.w3.org/2000/svg">
<rect width="63" height="88" rx="4" fill="#047BFF"/>
<path d="M36.7008 13.5133L44.7992 3.48665C45.5586 2.54645 46.7024 2 47.911 2H58C59.6569 2 61 3.34314 61 5V83C61 84.6569 59.6569 86 58 86H5C3.34315 86 2 84.6569 2 83V18C2 16.3431 3.34315 15 5 15H33.589C34.7976 15 35.9414 14.4536 36.7008 13.5133Z" fill="#213743"/>
<rect x="5" y="18" width="53" height="40" rx="1" fill="#2F4553"/>
<g clip-path="url(#clip0_26835_29264)">
<path d="M52.14 36.68C52.14 25.12 42.8 15.75 31.28 15.75C19.76 15.75 10.42 25.12 10.42 36.68C10.42 48.24 19.76 57.61 31.28 57.61C42.8 57.61 52.14 48.24 52.14 36.68Z" fill="#071D2A"/>
<path d="M52.14 33.8299C52.14 22.2699 42.8 12.8999 31.28 12.8999C19.76 12.8999 10.42 22.2699 10.42 33.8299C10.42 45.3899 19.76 54.7599 31.28 54.7599C42.8 54.7599 52.14 45.3899 52.14 33.8299Z" fill="#45A7FF"/>
<path d="M22.76 52.7399C22.48 52.7399 22.2 52.6799 21.93 52.5399C18.64 50.8899 15.83 48.3799 13.8 45.2899C12.8 43.7699 12.01 42.1299 11.43 40.4199C11.11 39.4499 11.63 38.3999 12.6 38.0799C13.57 37.7599 14.62 38.2799 14.94 39.2499C15.41 40.6599 16.07 42.0099 16.89 43.2699C18.56 45.8199 20.88 47.8799 23.58 49.2399C24.49 49.6999 24.86 50.8099 24.4 51.7199C24.08 52.3699 23.42 52.7399 22.75 52.7399H22.76ZM50.31 34.5199C49.34 34.5199 48.53 33.7699 48.47 32.7899C48.28 29.8099 47.31 26.9099 45.67 24.3999C43.14 20.5499 39.27 17.8999 34.76 16.9599C33.76 16.7499 33.12 15.7699 33.33 14.7699C33.54 13.7699 34.52 13.1299 35.52 13.3399C40.99 14.4899 45.69 17.6899 48.76 22.3699C50.76 25.4199 51.94 28.9499 52.16 32.5599C52.22 33.5799 51.45 34.4599 50.43 34.5199C50.39 34.5199 50.35 34.5199 50.31 34.5199Z" fill="white"/>
<path d="M48.4201 33.8299C48.4201 24.3299 40.7401 16.6299 31.2701 16.6299C21.8001 16.6299 14.1201 24.3299 14.1201 33.8299C14.1201 43.3299 21.8001 51.0299 31.2701 51.0299C40.7401 51.0299 48.4201 43.3299 48.4201 33.8299Z" fill="#1A2C38"/>
<path d="M43.8801 33.8299C43.8801 26.8499 38.2401 21.1899 31.2801 21.1899C24.3201 21.1899 18.6801 26.8499 18.6801 33.8299C18.6801 40.8099 24.3201 46.4699 31.2801 46.4699C38.2401 46.4699 43.8801 40.8099 43.8801 33.8299Z" fill="#047BFF"/>
<path d="M39.9101 33.8299C39.9101 29.0399 36.0401 25.1699 31.2701 25.1699C26.5001 25.1699 22.6301 29.0499 22.6301 33.8299C22.6301 38.6199 26.5001 42.4899 31.2701 42.4899C36.0401 42.4899 39.9101 38.6099 39.9101 33.8299Z" fill="#1A2C38"/>
<path d="M35.13 33.83C35.13 31.69 33.4 29.96 31.28 29.96C29.15 29.96 27.42 31.69 27.42 33.83C27.42 35.97 29.15 37.7 31.28 37.7C33.41 37.7 35.13 35.97 35.13 33.83Z" fill="#1CE61C"/>
<path d="M15 44.0001C13.66 42.4801 13.74 42.4801 13 41.5001L22.29 36.03L24.5 37.0001L15 44.0001Z" fill="black"/>
<path d="M16.29 36.7899C2.55002 35.6199 8.21002 39.7699 8.21002 39.7699L16.29 36.7899Z" fill="white"/>
<path d="M16.7 36.58C3.21004 35.63 8.25004 39.15 8.25004 39.15L16.7 36.58Z" fill="#047BFF"/>
<path d="M47.3273 20.3839C53.0688 7.79981 53.7653 15.1131 53.7653 15.1131L47.3273 20.3839Z" fill="white"/>
<path d="M47.0073 20.5721C52.7488 7.98805 53.4453 15.3013 53.4453 15.3013L47.0073 20.5721Z" fill="#047BFF"/>
<path d="M41.0211 28.7514C41.567 28.3279 41.6706 27.5372 41.247 26.9913C40.8235 26.4454 40.0328 26.3419 39.4869 26.7654C38.941 27.189 38.8375 27.9796 39.261 28.5255C39.6846 29.0714 40.4752 29.175 41.0211 28.7514Z" fill="#1A2C38"/>
<path d="M56.0618 17.7579L41.0117 28.7513L39.4775 26.7653L53.8688 14.9248L56.0524 17.7579H56.0618Z" fill="#1A2C38"/>
<path d="M23.2 34.76C22.5 34.99 22.12 35.75 22.36 36.45C22.6 37.15 23.35 37.53 24.04 37.3C24.73 37.07 25.12 36.31 24.88 35.61C24.64 34.91 23.89 34.53 23.2 34.76Z" fill="#1A2C38"/>
<path d="M8.42999 38.92L23.2 34.76L24.04 37.3L9.70999 42.79L8.42999 38.92Z" fill="#1A2C38"/>
<path d="M37.26 30.6698C44.6 21.8698 42.45 28.9598 42.45 28.9598L37.26 30.6698Z" fill="#E9EAEB"/>
<path d="M36.91 30.7399C44.25 21.9399 42.1 29.0299 42.1 29.0299L36.91 30.7399Z" fill="#1CE61C"/>
<path d="M32.88 34.7799C33.62 34.5899 34.07 33.8399 33.88 33.0999C33.7 32.3599 32.95 31.9099 32.21 32.0999C31.47 32.2899 31.02 33.0399 31.21 33.7799C31.4 34.5199 32.14 34.9699 32.88 34.7899" fill="#1A2C38"/>
<path d="M43.61 32.9899L32.88 34.7799L32.21 32.0999L42.52 28.6099L43.61 32.9899Z" fill="#1A2C38"/>
<path d="M43.6101 32.9898C44.7101 32.7098 45.3601 31.5098 45.0501 30.2998C44.7401 29.0898 43.6101 28.3298 42.5101 28.6098C41.4101 28.8898 40.7601 30.0898 41.0701 31.2998C41.3801 32.5098 42.5101 33.2698 43.6101 32.9898Z" fill="#1CE61C"/>
<path d="M36.1201 33.5298C39.1601 37.7098 40.1801 37.0298 40.7601 35.4998C41.2001 34.3298 41.5001 32.5798 41.5001 32.5798L36.1201 33.5298Z" fill="#E9EAEB"/>
<path d="M35.78 33.5298C38.82 37.7098 39.84 37.0298 40.42 35.4998C40.86 34.3298 41.16 32.5798 41.16 32.5798L35.78 33.5298Z" fill="#1CE61C"/>
<path d="M10.9 41.99L18.93 39.53C14.33 49.13 10.9 42.41 10.9 42.41V41.98V41.99Z" fill="white"/>
<path d="M56.0619 17.7578C56.7301 17.2401 56.7772 16.1859 56.1748 15.4047C55.5724 14.6235 54.5465 14.407 53.8782 14.9153C53.21 15.4235 53.1629 16.4871 53.7653 17.2683C54.3677 18.0495 55.3936 18.266 56.0619 17.7578Z" fill="#45A7FF"/>
<path d="M48.0991 23.1135C57.6996 23.9324 54.8006 18.1909 54.8006 18.1909L48.0991 23.1135Z" fill="white"/>
<path d="M47.7791 23.3017C57.3796 24.1206 54.4806 18.3792 54.4806 18.3792L47.7791 23.3017Z" fill="#047BFF"/>
<path d="M8.43003 38.92C7.52003 39.22 7.08003 40.33 7.43003 41.4C7.78003 42.47 8.80003 43.09 9.71003 42.79C10.62 42.49 11.06 41.38 10.71 40.31C10.36 39.24 9.34003 38.62 8.43003 38.92Z" fill="#45A7FF"/>
<path d="M19.2 38.99C14.42 48.81 10.9 42 10.9 42L19.2 38.99Z" fill="#047BFF"/>
</g>
<path fill-rule="evenodd" clip-rule="evenodd" d="M6.49771 79C6.98969 79 7.48602 79.213 7.49037 79.6913C7.49037 80.1043 7.24656 80.2696 6.99839 80.2696C6.75023 80.2696 6.73281 80.1435 6.73281 80.1435C6.73281 80.1435 7.02452 79.9261 7.02452 79.7174C7.02452 79.6087 6.94179 79.313 6.489 79.3174C5.8577 79.3174 5.5181 79.6174 5.5181 80.1522C5.5181 80.7652 7.35105 80.9739 7.3554 81.7652C7.3554 82.613 6.47594 82.9957 5.69225 83C5.283 83 5.01306 82.7609 5.00871 82.3783C5.00871 81.9261 5.22204 81.4652 5.75756 81.4652C5.88382 81.4565 5.98831 81.5522 5.99702 81.6783C5.99702 81.6783 5.99702 81.6826 5.99702 81.687C5.99702 81.687 5.45715 81.8391 5.4615 82.3783C5.4615 82.4783 5.56599 82.6609 5.81851 82.6565C6.07103 82.6522 6.82424 82.4739 6.81989 81.8087C6.81989 81.1913 5.00435 81.1087 5 80.1478C5 79.0652 6.08845 79.0087 6.49771 79.0087V79ZM10.747 79.6C10.8123 79.5696 11.2129 79.4913 11.1955 79.813C11.1824 80.1348 10.9386 80.6913 10.9037 80.9348C11.2303 80.7696 11.6918 80.2087 11.6918 80.2087C11.6918 80.2087 12.0183 80.2522 11.9182 80.4522C11.818 80.6522 11.1519 81.1435 11.1519 81.1435C11.1519 81.1435 11.3043 82.5696 12.1707 82.5696C12.6453 82.5696 12.8499 82.3609 12.937 82.287C12.9587 82.2696 12.9762 82.2652 12.9849 82.2783C13.0197 82.387 12.9936 82.5043 12.9152 82.5913C12.8194 82.6957 12.5974 82.8217 12.1533 82.8261C11.3653 82.8261 10.9255 82.1957 10.8123 81.2609C10.7252 81.5348 10.7339 81.9826 10.7209 82.2C10.6948 82.2435 10.2507 82.4174 10.2158 82.1174C10.2158 82.0913 10.2158 82.0696 10.2158 82.0435C10.1331 82.1609 10.0199 82.2826 9.91108 82.2826C9.71951 82.2826 9.63679 82.1217 9.60196 82.0391C9.57584 82.0696 9.3625 82.287 9.08821 82.287C8.92277 82.2913 8.77474 82.1957 8.70943 82.0435C8.57011 82.1435 8.32195 82.2913 8.03895 82.2913C7.73418 82.2913 7.66017 82.1087 7.66017 81.9565C7.66017 81.713 7.84303 80.987 7.84303 80.987C7.84303 80.987 7.48602 81.1304 7.36411 81.1348C7.19431 81.1348 7.11159 80.8217 7.11159 80.813C7.11159 80.8087 7.11159 80.8 7.1203 80.8C7.22044 80.7609 7.94317 80.513 7.94317 80.513C7.94317 80.513 8.07813 79.9826 8.09555 79.913C8.11296 79.8435 8.2131 79.7 8.33065 79.6565C8.41773 79.6217 8.50916 79.6 8.60059 79.5913C8.63107 79.5913 8.65284 79.6 8.65284 79.6174C8.65284 79.6348 8.47433 80.4087 8.47433 80.4087C8.47433 80.4087 8.84876 80.3217 8.98808 80.3217C9.09692 80.3217 9.15352 80.387 9.09257 80.4696C9.03162 80.5522 8.96196 80.6478 8.92712 80.6913C8.88794 80.7348 8.86182 80.7435 8.77039 80.7609C8.64413 80.787 8.36113 80.8565 8.36113 80.8565C8.36113 80.8565 8.13473 81.6783 8.13909 81.8174C8.13909 81.8957 8.16521 81.987 8.26099 81.987C8.35678 81.987 8.53964 81.8739 8.67025 81.7913C8.69202 81.1522 9.18835 80.7261 9.57584 80.7261C9.7021 80.7261 9.65421 80.8478 9.79788 80.8478H9.88931C9.94591 80.8478 10.0069 80.8522 10.0069 80.9957C10.0069 81.1957 9.89367 81.5261 9.89367 81.7348C9.89367 81.8826 9.91544 81.987 9.97204 81.987C10.0678 81.987 10.1767 81.8478 10.255 81.7261C10.3813 81.0304 10.734 79.7609 10.734 79.6174L10.747 79.6ZM12.5016 80.7C12.7672 80.6783 12.9326 80.8217 12.9631 80.9C12.9936 80.9783 12.9892 81.1609 12.9152 81.2913C12.6845 81.7044 12.1097 81.6304 12.1097 81.6304C12.1097 81.6304 12.0444 81.9565 12.3405 81.9565C12.593 81.9565 12.7062 81.8304 12.8151 81.7261C12.8586 81.7261 12.9936 81.8652 12.9326 81.9609C12.8847 82.0348 12.6191 82.2565 12.2795 82.2609C11.7397 82.2609 11.6047 81.8 11.6744 81.4696C11.7658 81.0609 12.1751 80.7217 12.5016 80.6957V80.7ZM9.6455 80.987C9.32332 80.987 8.82699 81.9696 9.20577 81.9652C9.61938 81.9652 9.6455 81.1826 9.6455 81.0043V80.987ZM12.6409 80.8913C12.4232 80.9 12.1751 81.3174 12.1533 81.5C12.4798 81.513 12.654 81.1957 12.6757 81.0696C12.6888 80.9739 12.6932 80.887 12.6409 80.887V80.8913Z" fill="#557086"/>
<path d="M40.851 79.0672L39.2522 80.8632C39.1826 80.9428 39.1826 81.0572 39.2522 81.1368L40.8461 82.9328C40.9255 83.0224 41.0695 83.0224 41.1539 82.9328L42.7479 81.1368C42.8174 81.0572 42.8174 80.9428 42.7479 80.8632L41.1539 79.0672C41.0745 78.9776 40.9305 78.9776 40.8461 79.0672H40.851Z" fill="white"/>
<path d="M41.6604 79.6343L42.1421 80.1766L40.568 82.6144L39.704 81.6393L41.6604 79.6343Z" fill="#8EA3B2"/>
<path d="M45.851 79.0672L44.2522 80.8632C44.1826 80.9428 44.1826 81.0572 44.2522 81.1368L45.8461 82.9328C45.9255 83.0224 46.0695 83.0224 46.1539 82.9328L47.7479 81.1368C47.8174 81.0572 47.8174 80.9428 47.7479 80.8632L46.1539 79.0672C46.0745 78.9776 45.9305 78.9776 45.8461 79.0672H45.851Z" fill="white"/>
<path d="M46.6604 79.6343L47.1421 80.1766L45.568 82.6144L44.704 81.6393L46.6604 79.6343Z" fill="#8EA3B2"/>
<path d="M50.851 79.0672L49.2522 80.8632C49.1826 80.9428 49.1826 81.0572 49.2522 81.1368L50.8461 82.9328C50.9255 83.0224 51.0695 83.0224 51.1539 82.9328L52.7479 81.1368C52.8174 81.0572 52.8174 80.9428 52.7479 80.8632L51.1539 79.0672C51.0745 78.9776 50.9305 78.9776 50.8461 79.0672H50.851Z" fill="white"/>
<path d="M51.6604 79.6343L52.1421 80.1766L50.568 82.6144L49.704 81.6393L51.6604 79.6343Z" fill="#8EA3B2"/>
<path d="M55.851 79.0672L54.2522 80.8632C54.1826 80.9428 54.1826 81.0572 54.2522 81.1368L55.8461 82.9328C55.9255 83.0224 56.0695 83.0224 56.1539 82.9328L57.7479 81.1368C57.8174 81.0572 57.8174 80.9428 57.7479 80.8632L56.1539 79.0672C56.0745 78.9776 55.9305 78.9776 55.8461 79.0672H55.851Z" fill="white"/>
<path d="M56.6604 79.6343L57.1421 80.1766L55.568 82.6144L54.704 81.6393L56.6604 79.6343Z" fill="#8EA3B2"/>
<rect x="13" y="62" width="37" height="13" rx="6.5" fill="#2F4553"/>
<path d="M26.8954 70.072C25.7254 70.072 25.1794 69.058 25.1794 68.002C25.1794 66.946 25.7254 65.938 26.8954 65.938C28.0654 65.938 28.6114 66.946 28.6114 68.002C28.6114 69.058 28.0654 70.072 26.8954 70.072ZM26.8954 69.16C27.3754 69.16 27.5674 68.71 27.5674 68.002C27.5674 67.294 27.3754 66.85 26.8954 66.85C26.4154 66.85 26.2234 67.294 26.2234 68.002C26.2234 68.71 26.4154 69.16 26.8954 69.16ZM29.4837 70.072C29.1777 70.072 28.9197 69.814 28.9197 69.508C28.9197 69.202 29.1777 68.944 29.4837 68.944C29.7897 68.944 30.0477 69.202 30.0477 69.508C30.0477 69.814 29.7897 70.072 29.4837 70.072ZM32.0489 70.072C31.2809 70.072 30.7049 69.802 30.3929 69.442L30.9149 68.74C31.2029 69.022 31.6589 69.16 32.0069 69.16C32.4509 69.16 32.6789 68.992 32.6789 68.77C32.6789 68.542 32.5109 68.434 31.9649 68.434C31.7909 68.434 31.4849 68.434 31.4249 68.44V67.522C31.5029 67.528 31.8149 67.528 31.9649 67.528C32.3789 67.528 32.6129 67.426 32.6129 67.216C32.6129 66.964 32.3249 66.85 31.9409 66.85C31.5749 66.85 31.2269 66.982 30.9449 67.234L30.4469 66.586C30.7829 66.208 31.3109 65.938 32.0489 65.938C33.0689 65.938 33.6389 66.376 33.6389 67.036C33.6389 67.504 33.2369 67.858 32.7629 67.936C33.1889 67.978 33.7049 68.308 33.7049 68.884C33.7049 69.586 33.0449 70.072 32.0489 70.072ZM37.0143 70H36.0003L35.4423 69.124L34.8783 70H33.8702L34.8603 68.512L33.9303 67.102H34.9443L35.4423 67.888L35.9343 67.102H36.9483L36.0243 68.512L37.0143 70Z" fill="white"/>
<path d="M6.835 11.06C5.82 11.06 5.33 10.49 5.33 9.67V7.665H6.05V9.645C6.05 10.11 6.32 10.43 6.835 10.43C7.35 10.43 7.615 10.11 7.615 9.645V7.665H8.34V9.665C8.34 10.495 7.85 11.06 6.835 11.06ZM11.247 11H10.612V9.54C10.612 9.205 10.437 9.09 10.167 9.09C9.91699 9.09 9.72199 9.23 9.61699 9.375V11H8.98199V8.585H9.61699V8.9C9.77199 8.715 10.067 8.525 10.462 8.525C10.992 8.525 11.247 8.825 11.247 9.295V11ZM13.0025 11.06C12.2575 11.06 11.7225 10.535 11.7225 9.79C11.7225 9.05 12.2575 8.525 13.0025 8.525C13.4975 8.525 13.7975 8.74 13.9575 8.96L13.5425 9.35C13.4275 9.18 13.2525 9.09 13.0325 9.09C12.6475 9.09 12.3775 9.37 12.3775 9.79C12.3775 10.21 12.6475 10.495 13.0325 10.495C13.2525 10.495 13.4275 10.395 13.5425 10.235L13.9575 10.62C13.7975 10.845 13.4975 11.06 13.0025 11.06ZM15.4926 11.06C14.6976 11.06 14.2176 10.48 14.2176 9.79C14.2176 9.105 14.6976 8.525 15.4926 8.525C16.2926 8.525 16.7726 9.105 16.7726 9.79C16.7726 10.48 16.2926 11.06 15.4926 11.06ZM15.4926 10.495C15.8876 10.495 16.1126 10.17 16.1126 9.79C16.1126 9.415 15.8876 9.09 15.4926 9.09C15.0976 9.09 14.8776 9.415 14.8776 9.79C14.8776 10.17 15.0976 10.495 15.4926 10.495ZM20.8787 11H20.2387V9.475C20.2387 9.25 20.1387 9.09 19.8787 9.09C19.6537 9.09 19.4687 9.24 19.3787 9.37V11H18.7387V9.475C18.7387 9.25 18.6387 9.09 18.3787 9.09C18.1587 9.09 17.9737 9.24 17.8787 9.375V11H17.2437V8.585H17.8787V8.9C17.9787 8.755 18.2987 8.525 18.6687 8.525C19.0237 8.525 19.2487 8.69 19.3387 8.965C19.4787 8.745 19.7987 8.525 20.1687 8.525C20.6137 8.525 20.8787 8.76 20.8787 9.255V11ZM25.1365 11H24.4965V9.475C24.4965 9.25 24.3965 9.09 24.1365 9.09C23.9115 9.09 23.7265 9.24 23.6365 9.37V11H22.9965V9.475C22.9965 9.25 22.8965 9.09 22.6365 9.09C22.4165 9.09 22.2315 9.24 22.1365 9.375V11H21.5015V8.585H22.1365V8.9C22.2365 8.755 22.5565 8.525 22.9265 8.525C23.2815 8.525 23.5065 8.69 23.5965 8.965C23.7365 8.745 24.0565 8.525 24.4265 8.525C24.8715 8.525 25.1365 8.76 25.1365 9.255V11ZM26.8793 11.06C26.0843 11.06 25.6043 10.48 25.6043 9.79C25.6043 9.105 26.0843 8.525 26.8793 8.525C27.6793 8.525 28.1593 9.105 28.1593 9.79C28.1593 10.48 27.6793 11.06 26.8793 11.06ZM26.8793 10.495C27.2743 10.495 27.4993 10.17 27.4993 9.79C27.4993 9.415 27.2743 9.09 26.8793 9.09C26.4843 9.09 26.2643 9.415 26.2643 9.79C26.2643 10.17 26.4843 10.495 26.8793 10.495ZM30.8954 11H30.2604V9.54C30.2604 9.205 30.0854 9.09 29.8154 9.09C29.5654 9.09 29.3704 9.23 29.2654 9.375V11H28.6304V8.585H29.2654V8.9C29.4204 8.715 29.7154 8.525 30.1104 8.525C30.6404 8.525 30.8954 8.825 30.8954 9.295V11Z" fill="white"/>
<path d="M47.9319 11H47.4799L46.0879 9.096V11H45.6199V8.332H46.0999L47.4639 10.184V8.332H47.9319V11ZM49.3588 11.048C48.7468 11.048 48.3668 10.588 48.3668 10.032C48.3668 9.48 48.7468 9.02 49.3588 9.02C49.9788 9.02 50.3548 9.48 50.3548 10.032C50.3548 10.588 49.9788 11.048 49.3588 11.048ZM49.3588 10.676C49.7188 10.676 49.9188 10.376 49.9188 10.032C49.9188 9.692 49.7188 9.392 49.3588 9.392C49.0028 9.392 48.8028 9.692 48.8028 10.032C48.8028 10.376 49.0028 10.676 49.3588 10.676ZM50.9763 11.044C50.8243 11.044 50.6963 10.916 50.6963 10.764C50.6963 10.612 50.8243 10.484 50.9763 10.484C51.1283 10.484 51.2563 10.612 51.2563 10.764C51.2563 10.916 51.1283 11.044 50.9763 11.044ZM53.7321 11H53.2641V8.94L52.8281 9.392L52.5561 9.108L53.3241 8.332H53.7321V11ZM55.2476 11.048C54.4996 11.048 54.1796 10.34 54.1796 9.668C54.1796 8.996 54.4996 8.292 55.2476 8.292C55.9956 8.292 56.3156 8.996 56.3156 9.668C56.3156 10.34 55.9956 11.048 55.2476 11.048ZM55.2476 10.632C55.6836 10.632 55.8396 10.176 55.8396 9.668C55.8396 9.16 55.6836 8.708 55.2476 8.708C54.8116 8.708 54.6556 9.16 54.6556 9.668C54.6556 10.176 54.8116 10.632 55.2476 10.632ZM57.7165 11H57.2485V8.94L56.8125 9.392L56.5405 9.108L57.3085 8.332H57.7165V11Z" fill="white"/>
<defs>
<clipPath id="clip0_26835_29264">
<rect width="63" height="88" fill="white"/>
</clipPath>
</defs>
</svg>
