<svg width="63" height="88" viewBox="0 0 63 88" fill="none" xmlns="http://www.w3.org/2000/svg">
<rect width="63" height="88" rx="4" fill="#047BFF"/>
<path d="M36.7008 13.5133L44.7992 3.48665C45.5586 2.54645 46.7024 2 47.911 2H58C59.6569 2 61 3.34314 61 5V83C61 84.6569 59.6569 86 58 86H5C3.34315 86 2 84.6569 2 83V18C2 16.3431 3.34315 15 5 15H33.589C34.7976 15 35.9414 14.4536 36.7008 13.5133Z" fill="#213743"/>
<rect x="5" y="18" width="53" height="40" rx="1" fill="#2F4553"/>
<g clip-path="url(#clip0_26835_29268)">
<path d="M54.54 45.31C51.97 51.88 44.55 55.11 37.99 52.53C34.84 51.29 32.45 48.93 31.12 46.11C30.87 45.59 30.66 45.06 30.5 44.51C29.63 41.81 29.66 38.81 30.77 35.97C31.29 34.67 31.99 33.5 32.83 32.5V32.48C34.24 30.78 36.07 29.49 38.09 28.72C40.19 27.91 42.5 27.65 44.81 28.05C45.65 28.19 46.49 28.43 47.31 28.75C47.31 28.75 47.3167 28.75 47.33 28.75C48.49 29.21 49.55 29.82 50.49 30.55C52.83 32.35 54.43 34.9 55.09 37.7C55.67 40.15 55.54 42.79 54.54 45.31Z" fill="#EE4869"/>
<path d="M41.09 34.9799C43.6692 34.9799 45.76 33.798 45.76 32.34C45.76 30.8819 43.6692 29.7 41.09 29.7C38.5108 29.7 36.42 30.8819 36.42 32.34C36.42 33.798 38.5108 34.9799 41.09 34.9799Z" fill="#1A2C38"/>
<path d="M22.39 35.53C24.9692 35.53 27.06 34.348 27.06 32.89C27.06 31.432 24.9692 30.25 22.39 30.25C19.8108 30.25 17.72 31.432 17.72 32.89C17.72 34.348 19.8108 35.53 22.39 35.53Z" fill="#1A2C38"/>
<path d="M54.54 45.3101C51.97 51.8801 44.55 55.11 37.99 52.53C34.84 51.29 32.45 48.9301 31.12 46.1101C30.87 45.5901 30.66 45.06 30.5 44.51L32.67 36.18C34.17 40.8101 50.77 40.1901 51.16 33.2401C51.22 32.1801 50.97 31.29 50.49 30.55C52.83 32.35 54.43 34.9001 55.09 37.7001C55.67 40.1501 55.54 42.7901 54.54 45.3101Z" fill="#E9113C"/>
<path d="M51.3835 36.4672C52.1489 35.9045 52.0428 34.46 51.1465 33.2407C50.2502 32.0215 48.9031 31.4892 48.1378 32.0518C47.3724 32.6144 47.4785 34.059 48.3748 35.2782C49.2711 36.4975 50.6182 37.0298 51.3835 36.4672Z" fill="white"/>
<path d="M35.83 44.3799C35.47 46.7499 34.53 48.8899 33.18 50.6799C31.23 53.2599 28.43 55.1199 25.26 55.8699C23.9 56.1999 22.46 56.3199 21 56.2199C20.63 56.1899 20.26 56.1499 19.88 56.0899C12.24 54.9199 7.00001 47.7799 8.17001 40.1499C8.53001 37.7799 9.47001 35.6399 10.83 33.8399V33.8199C12.97 30.9999 16.11 29.0599 19.64 28.4799C21.09 28.2299 22.59 28.1999 24.11 28.4299C28.22 29.0599 31.62 31.4199 33.71 34.6399C34.44 35.7399 35.01 36.9599 35.39 38.2399C35.99 40.1599 36.16 42.2499 35.83 44.3799Z" fill="#EE4869"/>
<path d="M22.39 35.53C24.9692 35.53 27.06 34.348 27.06 32.89C27.06 31.432 24.9692 30.25 22.39 30.25C19.8108 30.25 17.72 31.432 17.72 32.89C17.72 34.348 19.8108 35.53 22.39 35.53Z" fill="#1A2C38"/>
<path d="M35.83 44.3801C35.47 46.7501 34.53 48.8901 33.18 50.6801C31.23 53.2601 28.43 55.1201 25.26 55.8701C23.9 56.2001 22.46 56.3201 21 56.2201C20.63 56.1901 20.26 56.1501 19.88 56.0901C12.24 54.9201 7.00001 47.7801 8.17001 40.1501C8.53001 37.7801 9.47001 35.6401 10.83 33.8401C7.82001 41.9101 37.08 42.2401 33.71 34.6401C34.44 35.7401 35.01 36.9601 35.39 38.2401C35.99 40.1601 36.16 42.2501 35.83 44.3801Z" fill="#E9113C"/>
<path d="M32.278 40.4108C33.3887 39.8414 33.5559 37.9495 32.6515 36.1851C31.747 34.4207 30.1134 33.4519 29.0027 34.0213C27.8919 34.5907 27.7247 36.4826 28.6292 38.247C29.5336 40.0114 31.1672 40.9801 32.278 40.4108Z" fill="white"/>
<path d="M24.09 34.4299C23.59 34.3499 23.11 34.1199 22.74 33.7299C21.83 32.7799 21.85 31.2799 22.8 30.3599C28.72 24.6499 29.31 16.7199 29.32 16.6399C29.38 15.7999 29.87 15.0499 30.61 14.6699C31.36 14.2899 32.25 14.3199 32.96 14.7699C42.58 20.7899 45.38 30.2899 45.5 30.6899C45.86 31.9499 45.13 33.2699 43.86 33.6299C42.6 33.9899 41.28 33.2599 40.92 31.9999C40.89 31.8999 39.05 25.8399 33.37 20.9699C32.48 24.4499 30.5 29.5499 26.11 33.7799C25.55 34.3199 24.8 34.5299 24.1 34.4199L24.09 34.4299Z" fill="#1CE61C"/>
<path d="M32.95 14.78C32.95 14.78 22.94 8.46001 17.95 17.97C17.43 18.97 17.83 20.21 18.87 20.64C22.18 22.02 29.36 23.73 32.95 14.78Z" fill="#1CE61C"/>
</g>
<path fill-rule="evenodd" clip-rule="evenodd" d="M6.49771 79C6.98969 79 7.48602 79.213 7.49037 79.6913C7.49037 80.1043 7.24656 80.2696 6.99839 80.2696C6.75023 80.2696 6.73281 80.1435 6.73281 80.1435C6.73281 80.1435 7.02452 79.9261 7.02452 79.7174C7.02452 79.6087 6.94179 79.313 6.489 79.3174C5.8577 79.3174 5.5181 79.6174 5.5181 80.1522C5.5181 80.7652 7.35105 80.9739 7.3554 81.7652C7.3554 82.613 6.47594 82.9957 5.69225 83C5.283 83 5.01306 82.7609 5.00871 82.3783C5.00871 81.9261 5.22204 81.4652 5.75756 81.4652C5.88382 81.4565 5.98831 81.5522 5.99702 81.6783C5.99702 81.6783 5.99702 81.6826 5.99702 81.687C5.99702 81.687 5.45715 81.8391 5.4615 82.3783C5.4615 82.4783 5.56599 82.6609 5.81851 82.6565C6.07103 82.6522 6.82424 82.4739 6.81989 81.8087C6.81989 81.1913 5.00435 81.1087 5 80.1478C5 79.0652 6.08845 79.0087 6.49771 79.0087V79ZM10.747 79.6C10.8123 79.5696 11.2129 79.4913 11.1955 79.813C11.1824 80.1348 10.9386 80.6913 10.9037 80.9348C11.2303 80.7696 11.6918 80.2087 11.6918 80.2087C11.6918 80.2087 12.0183 80.2522 11.9182 80.4522C11.818 80.6522 11.1519 81.1435 11.1519 81.1435C11.1519 81.1435 11.3043 82.5696 12.1707 82.5696C12.6453 82.5696 12.8499 82.3609 12.937 82.287C12.9587 82.2696 12.9762 82.2652 12.9849 82.2783C13.0197 82.387 12.9936 82.5043 12.9152 82.5913C12.8194 82.6957 12.5974 82.8217 12.1533 82.8261C11.3653 82.8261 10.9255 82.1957 10.8123 81.2609C10.7252 81.5348 10.7339 81.9826 10.7209 82.2C10.6948 82.2435 10.2507 82.4174 10.2158 82.1174C10.2158 82.0913 10.2158 82.0696 10.2158 82.0435C10.1331 82.1609 10.0199 82.2826 9.91108 82.2826C9.71951 82.2826 9.63679 82.1217 9.60196 82.0391C9.57584 82.0696 9.3625 82.287 9.08821 82.287C8.92277 82.2913 8.77474 82.1957 8.70943 82.0435C8.57011 82.1435 8.32195 82.2913 8.03895 82.2913C7.73418 82.2913 7.66017 82.1087 7.66017 81.9565C7.66017 81.713 7.84303 80.987 7.84303 80.987C7.84303 80.987 7.48602 81.1304 7.36411 81.1348C7.19431 81.1348 7.11159 80.8217 7.11159 80.813C7.11159 80.8087 7.11159 80.8 7.1203 80.8C7.22044 80.7609 7.94317 80.513 7.94317 80.513C7.94317 80.513 8.07813 79.9826 8.09555 79.913C8.11296 79.8435 8.2131 79.7 8.33065 79.6565C8.41773 79.6217 8.50916 79.6 8.60059 79.5913C8.63107 79.5913 8.65284 79.6 8.65284 79.6174C8.65284 79.6348 8.47433 80.4087 8.47433 80.4087C8.47433 80.4087 8.84876 80.3217 8.98808 80.3217C9.09692 80.3217 9.15352 80.387 9.09257 80.4696C9.03162 80.5522 8.96196 80.6478 8.92712 80.6913C8.88794 80.7348 8.86182 80.7435 8.77039 80.7609C8.64413 80.787 8.36113 80.8565 8.36113 80.8565C8.36113 80.8565 8.13473 81.6783 8.13909 81.8174C8.13909 81.8957 8.16521 81.987 8.26099 81.987C8.35678 81.987 8.53964 81.8739 8.67025 81.7913C8.69202 81.1522 9.18835 80.7261 9.57584 80.7261C9.7021 80.7261 9.65421 80.8478 9.79788 80.8478H9.88931C9.94591 80.8478 10.0069 80.8522 10.0069 80.9957C10.0069 81.1957 9.89367 81.5261 9.89367 81.7348C9.89367 81.8826 9.91544 81.987 9.97204 81.987C10.0678 81.987 10.1767 81.8478 10.255 81.7261C10.3813 81.0304 10.734 79.7609 10.734 79.6174L10.747 79.6ZM12.5016 80.7C12.7672 80.6783 12.9326 80.8217 12.9631 80.9C12.9936 80.9783 12.9892 81.1609 12.9152 81.2913C12.6845 81.7044 12.1097 81.6304 12.1097 81.6304C12.1097 81.6304 12.0444 81.9565 12.3405 81.9565C12.593 81.9565 12.7062 81.8304 12.8151 81.7261C12.8586 81.7261 12.9936 81.8652 12.9326 81.9609C12.8847 82.0348 12.6191 82.2565 12.2795 82.2609C11.7397 82.2609 11.6047 81.8 11.6744 81.4696C11.7658 81.0609 12.1751 80.7217 12.5016 80.6957V80.7ZM9.6455 80.987C9.32332 80.987 8.82699 81.9696 9.20577 81.9652C9.61938 81.9652 9.6455 81.1826 9.6455 81.0043V80.987ZM12.6409 80.8913C12.4232 80.9 12.1751 81.3174 12.1533 81.5C12.4798 81.513 12.654 81.1957 12.6757 81.0696C12.6888 80.9739 12.6932 80.887 12.6409 80.887V80.8913Z" fill="#557086"/>
<path d="M40.851 79.0672L39.2521 80.8632C39.1826 80.9428 39.1826 81.0572 39.2521 81.1368L40.8461 82.9328C40.9255 83.0224 41.0695 83.0224 41.1539 82.9328L42.7479 81.1368C42.8174 81.0572 42.8174 80.9428 42.7479 80.8632L41.1539 79.0672C41.0745 78.9776 40.9305 78.9776 40.8461 79.0672H40.851Z" fill="white"/>
<path d="M41.6604 79.6343L42.1421 80.1766L40.568 82.6144L39.704 81.6393L41.6604 79.6343Z" fill="#8EA3B2"/>
<path d="M45.851 79.0672L44.2521 80.8632C44.1826 80.9428 44.1826 81.0572 44.2521 81.1368L45.8461 82.9328C45.9255 83.0224 46.0695 83.0224 46.1539 82.9328L47.7479 81.1368C47.8174 81.0572 47.8174 80.9428 47.7479 80.8632L46.1539 79.0672C46.0745 78.9776 45.9305 78.9776 45.8461 79.0672H45.851Z" fill="white"/>
<path d="M46.6604 79.6343L47.1421 80.1766L45.568 82.6144L44.704 81.6393L46.6604 79.6343Z" fill="#8EA3B2"/>
<path d="M50.851 79.0672L49.2521 80.8632C49.1826 80.9428 49.1826 81.0572 49.2521 81.1368L50.8461 82.9328C50.9255 83.0224 51.0695 83.0224 51.1539 82.9328L52.7479 81.1368C52.8174 81.0572 52.8174 80.9428 52.7479 80.8632L51.1539 79.0672C51.0745 78.9776 50.9305 78.9776 50.8461 79.0672H50.851Z" fill="white"/>
<path d="M51.6604 79.6343L52.1421 80.1766L50.568 82.6144L49.704 81.6393L51.6604 79.6343Z" fill="#8EA3B2"/>
<path d="M55.851 79.0672L54.2521 80.8632C54.1826 80.9428 54.1826 81.0572 54.2521 81.1368L55.8461 82.9328C55.9255 83.0224 56.0695 83.0224 56.1539 82.9328L57.7479 81.1368C57.8174 81.0572 57.8174 80.9428 57.7479 80.8632L56.1539 79.0672C56.0745 78.9776 55.9305 78.9776 55.8461 79.0672H55.851Z" fill="white"/>
<path d="M56.6604 79.6343L57.1421 80.1766L55.568 82.6144L54.704 81.6393L56.6604 79.6343Z" fill="#8EA3B2"/>
<rect x="13" y="62" width="37" height="13" rx="6.5" fill="#2F4553"/>
<path d="M26.8954 70.072C25.7254 70.072 25.1794 69.058 25.1794 68.002C25.1794 66.946 25.7254 65.938 26.8954 65.938C28.0654 65.938 28.6114 66.946 28.6114 68.002C28.6114 69.058 28.0654 70.072 26.8954 70.072ZM26.8954 69.16C27.3754 69.16 27.5674 68.71 27.5674 68.002C27.5674 67.294 27.3754 66.85 26.8954 66.85C26.4154 66.85 26.2234 67.294 26.2234 68.002C26.2234 68.71 26.4154 69.16 26.8954 69.16ZM29.4837 70.072C29.1777 70.072 28.9197 69.814 28.9197 69.508C28.9197 69.202 29.1777 68.944 29.4837 68.944C29.7897 68.944 30.0477 69.202 30.0477 69.508C30.0477 69.814 29.7897 70.072 29.4837 70.072ZM32.0489 70.072C31.2809 70.072 30.7049 69.802 30.3929 69.442L30.9149 68.74C31.2029 69.022 31.6589 69.16 32.0069 69.16C32.4509 69.16 32.6789 68.992 32.6789 68.77C32.6789 68.542 32.5109 68.434 31.9649 68.434C31.7909 68.434 31.4849 68.434 31.4249 68.44V67.522C31.5029 67.528 31.8149 67.528 31.9649 67.528C32.3789 67.528 32.6129 67.426 32.6129 67.216C32.6129 66.964 32.3249 66.85 31.9409 66.85C31.5749 66.85 31.2269 66.982 30.9449 67.234L30.4469 66.586C30.7829 66.208 31.3109 65.938 32.0489 65.938C33.0689 65.938 33.6389 66.376 33.6389 67.036C33.6389 67.504 33.2369 67.858 32.7629 67.936C33.1889 67.978 33.7049 68.308 33.7049 68.884C33.7049 69.586 33.0449 70.072 32.0489 70.072ZM37.0143 70H36.0003L35.4423 69.124L34.8783 70H33.8702L34.8603 68.512L33.9303 67.102H34.9443L35.4423 67.888L35.9343 67.102H36.9483L36.0243 68.512L37.0143 70Z" fill="white"/>
<path d="M6.835 11.06C5.82 11.06 5.33 10.49 5.33 9.67V7.665H6.05V9.645C6.05 10.11 6.32 10.43 6.835 10.43C7.35 10.43 7.615 10.11 7.615 9.645V7.665H8.34V9.665C8.34 10.495 7.85 11.06 6.835 11.06ZM11.247 11H10.612V9.54C10.612 9.205 10.437 9.09 10.167 9.09C9.91699 9.09 9.72199 9.23 9.61699 9.375V11H8.98199V8.585H9.61699V8.9C9.77199 8.715 10.067 8.525 10.462 8.525C10.992 8.525 11.247 8.825 11.247 9.295V11ZM13.0025 11.06C12.2575 11.06 11.7225 10.535 11.7225 9.79C11.7225 9.05 12.2575 8.525 13.0025 8.525C13.4975 8.525 13.7975 8.74 13.9575 8.96L13.5425 9.35C13.4275 9.18 13.2525 9.09 13.0325 9.09C12.6475 9.09 12.3775 9.37 12.3775 9.79C12.3775 10.21 12.6475 10.495 13.0325 10.495C13.2525 10.495 13.4275 10.395 13.5425 10.235L13.9575 10.62C13.7975 10.845 13.4975 11.06 13.0025 11.06ZM15.4926 11.06C14.6976 11.06 14.2176 10.48 14.2176 9.79C14.2176 9.105 14.6976 8.525 15.4926 8.525C16.2926 8.525 16.7726 9.105 16.7726 9.79C16.7726 10.48 16.2926 11.06 15.4926 11.06ZM15.4926 10.495C15.8876 10.495 16.1126 10.17 16.1126 9.79C16.1126 9.415 15.8876 9.09 15.4926 9.09C15.0976 9.09 14.8776 9.415 14.8776 9.79C14.8776 10.17 15.0976 10.495 15.4926 10.495ZM20.8787 11H20.2387V9.475C20.2387 9.25 20.1387 9.09 19.8787 9.09C19.6537 9.09 19.4687 9.24 19.3787 9.37V11H18.7387V9.475C18.7387 9.25 18.6387 9.09 18.3787 9.09C18.1587 9.09 17.9737 9.24 17.8787 9.375V11H17.2437V8.585H17.8787V8.9C17.9787 8.755 18.2987 8.525 18.6687 8.525C19.0237 8.525 19.2487 8.69 19.3387 8.965C19.4787 8.745 19.7987 8.525 20.1687 8.525C20.6137 8.525 20.8787 8.76 20.8787 9.255V11ZM25.1365 11H24.4965V9.475C24.4965 9.25 24.3965 9.09 24.1365 9.09C23.9115 9.09 23.7265 9.24 23.6365 9.37V11H22.9965V9.475C22.9965 9.25 22.8965 9.09 22.6365 9.09C22.4165 9.09 22.2315 9.24 22.1365 9.375V11H21.5015V8.585H22.1365V8.9C22.2365 8.755 22.5565 8.525 22.9265 8.525C23.2815 8.525 23.5065 8.69 23.5965 8.965C23.7365 8.745 24.0565 8.525 24.4265 8.525C24.8715 8.525 25.1365 8.76 25.1365 9.255V11ZM26.8793 11.06C26.0843 11.06 25.6043 10.48 25.6043 9.79C25.6043 9.105 26.0843 8.525 26.8793 8.525C27.6793 8.525 28.1593 9.105 28.1593 9.79C28.1593 10.48 27.6793 11.06 26.8793 11.06ZM26.8793 10.495C27.2743 10.495 27.4993 10.17 27.4993 9.79C27.4993 9.415 27.2743 9.09 26.8793 9.09C26.4843 9.09 26.2643 9.415 26.2643 9.79C26.2643 10.17 26.4843 10.495 26.8793 10.495ZM30.8954 11H30.2604V9.54C30.2604 9.205 30.0854 9.09 29.8154 9.09C29.5654 9.09 29.3704 9.23 29.2654 9.375V11H28.6304V8.585H29.2654V8.9C29.4204 8.715 29.7154 8.525 30.1104 8.525C30.6404 8.525 30.8954 8.825 30.8954 9.295V11Z" fill="white"/>
<path d="M47.053 11H46.601L45.209 9.096V11H44.741V8.332H45.221L46.585 10.184V8.332H47.053V11ZM48.4799 11.048C47.8679 11.048 47.4879 10.588 47.4879 10.032C47.4879 9.48 47.8679 9.02 48.4799 9.02C49.0999 9.02 49.4759 9.48 49.4759 10.032C49.4759 10.588 49.0999 11.048 48.4799 11.048ZM48.4799 10.676C48.8399 10.676 49.0399 10.376 49.0399 10.032C49.0399 9.692 48.8399 9.392 48.4799 9.392C48.1239 9.392 47.9239 9.692 47.9239 10.032C47.9239 10.376 48.1239 10.676 48.4799 10.676ZM50.0974 11.044C49.9454 11.044 49.8174 10.916 49.8174 10.764C49.8174 10.612 49.9454 10.484 50.0974 10.484C50.2494 10.484 50.3774 10.612 50.3774 10.764C50.3774 10.916 50.2494 11.044 50.0974 11.044ZM52.8532 11H52.3852V8.94L51.9492 9.392L51.6772 9.108L52.4452 8.332H52.8532V11ZM54.3687 11.048C53.6207 11.048 53.3007 10.34 53.3007 9.668C53.3007 8.996 53.6207 8.292 54.3687 8.292C55.1167 8.292 55.4367 8.996 55.4367 9.668C55.4367 10.34 55.1167 11.048 54.3687 11.048ZM54.3687 10.632C54.8047 10.632 54.9607 10.176 54.9607 9.668C54.9607 9.16 54.8047 8.708 54.3687 8.708C53.9327 8.708 53.7767 9.16 53.7767 9.668C53.7767 10.176 53.9327 10.632 54.3687 10.632ZM56.8176 11.048C56.3576 11.048 56.0416 10.892 55.8256 10.636L56.0936 10.316C56.2736 10.52 56.5136 10.632 56.8136 10.632C57.1496 10.632 57.3616 10.424 57.3616 10.164C57.3616 9.876 57.1536 9.688 56.8256 9.688C56.5976 9.688 56.4096 9.76 56.2416 9.92L55.9096 9.824V8.332H57.6576V8.744H56.3776V9.516C56.5056 9.388 56.7256 9.284 56.9816 9.284C57.4296 9.284 57.8336 9.6 57.8336 10.144C57.8336 10.7 57.4136 11.048 56.8176 11.048Z" fill="white"/>
<defs>
<clipPath id="clip0_26835_29268">
<rect width="63" height="88" fill="white"/>
</clipPath>
</defs>
</svg>
