<svg width="63" height="88" viewBox="0 0 63 88" fill="none" xmlns="http://www.w3.org/2000/svg">
<rect width="63" height="88" rx="4" fill="#047BFF"/>
<path d="M36.7008 13.5133L44.7992 3.48665C45.5586 2.54645 46.7024 2 47.911 2H58C59.6569 2 61 3.34314 61 5V83C61 84.6569 59.6569 86 58 86H5C3.34315 86 2 84.6569 2 83V18C2 16.3431 3.34315 15 5 15H33.589C34.7976 15 35.9414 14.4536 36.7008 13.5133Z" fill="#213743"/>
<rect x="5" y="18" width="53" height="40" rx="1" fill="#2F4553"/>
<g clip-path="url(#clip0_26835_29271)">
<path d="M45.07 33.31C49.2342 33.31 52.61 29.9342 52.61 25.77C52.61 21.6058 49.2342 18.23 45.07 18.23C40.9058 18.23 37.53 21.6058 37.53 25.77C37.53 29.9342 40.9058 33.31 45.07 33.31Z" fill="white"/>
<path d="M51.84 38.11C54.491 38.11 56.64 35.961 56.64 33.31C56.64 30.659 54.491 28.51 51.84 28.51C49.189 28.51 47.04 30.659 47.04 33.31C47.04 35.961 49.189 38.11 51.84 38.11Z" fill="white"/>
<path d="M49.66 30.8501C49.66 30.8501 51.17 34.1401 49.66 37.6001C49.66 37.6001 48.34 36.9801 48.05 36.2101L49.66 30.8601V30.8501Z" fill="#45A7FF"/>
<path d="M49.66 31.2901C49.66 38.0301 44.49 40.7701 34.17 40.7701C23.85 40.7701 12.3 38.0301 12.3 31.2901C12.3 24.5501 20.66 19.0801 30.98 19.0801C41.3 19.0801 49.66 24.5401 49.66 31.2901Z" fill="white"/>
<path d="M11.48 38.4601C14.131 38.4601 16.28 36.3111 16.28 33.6601C16.28 31.0091 14.131 28.8601 11.48 28.8601C8.82903 28.8601 6.67999 31.0091 6.67999 33.6601C6.67999 36.3111 8.82903 38.4601 11.48 38.4601Z" fill="white"/>
<path d="M35.68 28.86C39.8442 28.86 43.22 25.4843 43.22 21.32C43.22 17.1558 39.8442 13.78 35.68 13.78C31.5158 13.78 28.14 17.1558 28.14 21.32C28.14 25.4843 31.5158 28.86 35.68 28.86Z" fill="white"/>
<path d="M24.6 28.86C28.7642 28.86 32.14 25.4843 32.14 21.32C32.14 17.1558 28.7642 13.78 24.6 13.78C20.4358 13.78 17.06 17.1558 17.06 21.32C17.06 25.4843 20.4358 28.86 24.6 28.86Z" fill="white"/>
<path d="M17.05 34.4699C21.2142 34.4699 24.59 31.0941 24.59 26.9299C24.59 22.7657 21.2142 19.3899 17.05 19.3899C12.8858 19.3899 9.50999 22.7657 9.50999 26.9299C9.50999 31.0941 12.8858 34.4699 17.05 34.4699Z" fill="white"/>
<path d="M26.59 29.4901C28.0038 29.4901 29.15 28.344 29.15 26.9301C29.15 25.5163 28.0038 24.3701 26.59 24.3701C25.1761 24.3701 24.03 25.5163 24.03 26.9301C24.03 28.344 25.1761 29.4901 26.59 29.4901Z" fill="#1A2C38"/>
<path d="M39.78 29.4901C41.1938 29.4901 42.34 28.344 42.34 26.9301C42.34 25.5163 41.1938 24.3701 39.78 24.3701C38.3661 24.3701 37.22 25.5163 37.22 26.9301C37.22 28.344 38.3661 29.4901 39.78 29.4901Z" fill="#1A2C38"/>
<path d="M42.34 32.7099C42.34 33.7199 39.83 34.5399 36.74 34.5399C33.65 34.5399 31.14 33.7199 31.14 32.7099C31.14 31.6999 33.65 31.4099 36.74 31.4099C39.83 31.4099 42.34 31.6899 42.34 32.7099Z" fill="#1A2C38"/>
<path d="M38.9 33.68C40.0929 33.68 41.06 33.2994 41.06 32.83C41.06 32.3605 40.0929 31.98 38.9 31.98C37.7071 31.98 36.74 32.3605 36.74 32.83C36.74 33.2994 37.7071 33.68 38.9 33.68Z" fill="#557086"/>
<path d="M38.46 54.1999C45.0156 54.1999 50.33 53.6268 50.33 52.9199C50.33 52.213 45.0156 51.6399 38.46 51.6399C31.9044 51.6399 26.59 52.213 26.59 52.9199C26.59 53.6268 31.9044 54.1999 38.46 54.1999Z" fill="#1A2C38"/>
<path d="M40.16 51.02C40.16 52.15 39.05 52.56 37.6 52.56C36.15 52.56 34.9 52.15 34.9 51.02C34.9 49.89 36.08 48.97 37.53 48.97C38.98 48.97 40.16 49.89 40.16 51.02Z" fill="#45A7FF"/>
<path d="M38.37 47.3601C38.37 52.7701 34.95 53.4701 30.73 53.4701C26.51 53.4701 23.09 52.7701 23.09 47.3601C23.09 41.9501 26.51 37.5601 30.73 37.5601C34.95 37.5601 38.37 41.9501 38.37 47.3601Z" fill="white"/>
<path d="M38.51 51.9299C38.51 53.0599 37.4 53.4699 35.95 53.4699C34.5 53.4699 33.25 53.0599 33.25 51.9299C33.25 50.7999 34.43 49.8799 35.88 49.8799C37.33 49.8799 38.51 50.7999 38.51 51.9299Z" fill="white"/>
<path d="M25.25 48.53C25.25 48.53 20.17 47.4 17.53 41.38C17.33 40.93 16.67 40.96 16.48 41.41C16.01 42.54 15.63 44.34 17.05 45.77L15.49 45.81C15.03 45.82 14.79 46.38 15.11 46.71C16.47 48.14 20.9 50.63 25.81 49.94L25.24 48.53H25.25Z" fill="white"/>
<path d="M32.14 36.89C32.14 36.89 34.63 36.62 35.97 35.29C35.97 35.29 37.28 36.62 39.39 36.89C39.39 36.89 37.21 37.53 35.97 36.56C35.97 36.56 34.4 37.69 32.14 36.89Z" fill="#45A7FF"/>
<path d="M27.5 27.85C28.0081 27.85 28.42 27.4381 28.42 26.93C28.42 26.4219 28.0081 26.01 27.5 26.01C26.9919 26.01 26.58 26.4219 26.58 26.93C26.58 27.4381 26.9919 27.85 27.5 27.85Z" fill="white"/>
<path d="M40.7 27.85C41.2081 27.85 41.62 27.4381 41.62 26.93C41.62 26.4219 41.2081 26.01 40.7 26.01C40.1919 26.01 39.78 26.4219 39.78 26.93C39.78 27.4381 40.1919 27.85 40.7 27.85Z" fill="white"/>
</g>
<path fill-rule="evenodd" clip-rule="evenodd" d="M6.49771 79C6.98969 79 7.48602 79.213 7.49037 79.6913C7.49037 80.1043 7.24656 80.2696 6.99839 80.2696C6.75023 80.2696 6.73281 80.1435 6.73281 80.1435C6.73281 80.1435 7.02452 79.9261 7.02452 79.7174C7.02452 79.6087 6.94179 79.313 6.489 79.3174C5.8577 79.3174 5.5181 79.6174 5.5181 80.1522C5.5181 80.7652 7.35105 80.9739 7.3554 81.7652C7.3554 82.613 6.47594 82.9957 5.69225 83C5.283 83 5.01306 82.7609 5.00871 82.3783C5.00871 81.9261 5.22204 81.4652 5.75756 81.4652C5.88382 81.4565 5.98831 81.5522 5.99702 81.6783C5.99702 81.6783 5.99702 81.6826 5.99702 81.687C5.99702 81.687 5.45715 81.8391 5.4615 82.3783C5.4615 82.4783 5.56599 82.6609 5.81851 82.6565C6.07103 82.6522 6.82424 82.4739 6.81989 81.8087C6.81989 81.1913 5.00435 81.1087 5 80.1478C5 79.0652 6.08845 79.0087 6.49771 79.0087V79ZM10.747 79.6C10.8123 79.5696 11.2129 79.4913 11.1955 79.813C11.1824 80.1348 10.9386 80.6913 10.9037 80.9348C11.2303 80.7696 11.6918 80.2087 11.6918 80.2087C11.6918 80.2087 12.0183 80.2522 11.9182 80.4522C11.818 80.6522 11.1519 81.1435 11.1519 81.1435C11.1519 81.1435 11.3043 82.5696 12.1707 82.5696C12.6453 82.5696 12.8499 82.3609 12.937 82.287C12.9587 82.2696 12.9762 82.2652 12.9849 82.2783C13.0197 82.387 12.9936 82.5043 12.9152 82.5913C12.8194 82.6957 12.5974 82.8217 12.1533 82.8261C11.3653 82.8261 10.9255 82.1957 10.8123 81.2609C10.7252 81.5348 10.7339 81.9826 10.7209 82.2C10.6948 82.2435 10.2507 82.4174 10.2158 82.1174C10.2158 82.0913 10.2158 82.0696 10.2158 82.0435C10.1331 82.1609 10.0199 82.2826 9.91108 82.2826C9.71951 82.2826 9.63679 82.1217 9.60196 82.0391C9.57584 82.0696 9.3625 82.287 9.08821 82.287C8.92277 82.2913 8.77474 82.1957 8.70943 82.0435C8.57011 82.1435 8.32195 82.2913 8.03895 82.2913C7.73418 82.2913 7.66017 82.1087 7.66017 81.9565C7.66017 81.713 7.84303 80.987 7.84303 80.987C7.84303 80.987 7.48602 81.1304 7.36411 81.1348C7.19431 81.1348 7.11159 80.8217 7.11159 80.813C7.11159 80.8087 7.11159 80.8 7.1203 80.8C7.22044 80.7609 7.94317 80.513 7.94317 80.513C7.94317 80.513 8.07813 79.9826 8.09555 79.913C8.11296 79.8435 8.2131 79.7 8.33065 79.6565C8.41773 79.6217 8.50916 79.6 8.60059 79.5913C8.63107 79.5913 8.65284 79.6 8.65284 79.6174C8.65284 79.6348 8.47433 80.4087 8.47433 80.4087C8.47433 80.4087 8.84876 80.3217 8.98808 80.3217C9.09692 80.3217 9.15352 80.387 9.09257 80.4696C9.03162 80.5522 8.96196 80.6478 8.92712 80.6913C8.88794 80.7348 8.86182 80.7435 8.77039 80.7609C8.64413 80.787 8.36113 80.8565 8.36113 80.8565C8.36113 80.8565 8.13473 81.6783 8.13909 81.8174C8.13909 81.8957 8.16521 81.987 8.26099 81.987C8.35678 81.987 8.53964 81.8739 8.67025 81.7913C8.69202 81.1522 9.18835 80.7261 9.57584 80.7261C9.7021 80.7261 9.65421 80.8478 9.79788 80.8478H9.88931C9.94591 80.8478 10.0069 80.8522 10.0069 80.9957C10.0069 81.1957 9.89367 81.5261 9.89367 81.7348C9.89367 81.8826 9.91544 81.987 9.97204 81.987C10.0678 81.987 10.1767 81.8478 10.255 81.7261C10.3813 81.0304 10.734 79.7609 10.734 79.6174L10.747 79.6ZM12.5016 80.7C12.7672 80.6783 12.9326 80.8217 12.9631 80.9C12.9936 80.9783 12.9892 81.1609 12.9152 81.2913C12.6845 81.7044 12.1097 81.6304 12.1097 81.6304C12.1097 81.6304 12.0444 81.9565 12.3405 81.9565C12.593 81.9565 12.7062 81.8304 12.8151 81.7261C12.8586 81.7261 12.9936 81.8652 12.9326 81.9609C12.8847 82.0348 12.6191 82.2565 12.2795 82.2609C11.7397 82.2609 11.6047 81.8 11.6744 81.4696C11.7658 81.0609 12.1751 80.7217 12.5016 80.6957V80.7ZM9.6455 80.987C9.32332 80.987 8.82699 81.9696 9.20577 81.9652C9.61938 81.9652 9.6455 81.1826 9.6455 81.0043V80.987ZM12.6409 80.8913C12.4232 80.9 12.1751 81.3174 12.1533 81.5C12.4798 81.513 12.654 81.1957 12.6757 81.0696C12.6888 80.9739 12.6932 80.887 12.6409 80.887V80.8913Z" fill="#557086"/>
<path d="M40.851 79.0672L39.2521 80.8632C39.1826 80.9428 39.1826 81.0572 39.2521 81.1368L40.8461 82.9328C40.9255 83.0224 41.0695 83.0224 41.1539 82.9328L42.7479 81.1368C42.8174 81.0572 42.8174 80.9428 42.7479 80.8632L41.1539 79.0672C41.0745 78.9776 40.9305 78.9776 40.8461 79.0672H40.851Z" fill="white"/>
<path d="M41.6604 79.6343L42.1421 80.1766L40.568 82.6144L39.704 81.6393L41.6604 79.6343Z" fill="#8EA3B2"/>
<path d="M45.851 79.0672L44.2521 80.8632C44.1826 80.9428 44.1826 81.0572 44.2521 81.1368L45.8461 82.9328C45.9255 83.0224 46.0695 83.0224 46.1539 82.9328L47.7479 81.1368C47.8174 81.0572 47.8174 80.9428 47.7479 80.8632L46.1539 79.0672C46.0745 78.9776 45.9305 78.9776 45.8461 79.0672H45.851Z" fill="white"/>
<path d="M46.6604 79.6343L47.1421 80.1766L45.568 82.6144L44.704 81.6393L46.6604 79.6343Z" fill="#8EA3B2"/>
<path d="M50.851 79.0672L49.2521 80.8632C49.1826 80.9428 49.1826 81.0572 49.2521 81.1368L50.8461 82.9328C50.9255 83.0224 51.0695 83.0224 51.1539 82.9328L52.7479 81.1368C52.8174 81.0572 52.8174 80.9428 52.7479 80.8632L51.1539 79.0672C51.0745 78.9776 50.9305 78.9776 50.8461 79.0672H50.851Z" fill="white"/>
<path d="M51.6604 79.6343L52.1421 80.1766L50.568 82.6144L49.704 81.6393L51.6604 79.6343Z" fill="#8EA3B2"/>
<path d="M55.851 79.0672L54.2521 80.8632C54.1826 80.9428 54.1826 81.0572 54.2521 81.1368L55.8461 82.9328C55.9255 83.0224 56.0695 83.0224 56.1539 82.9328L57.7479 81.1368C57.8174 81.0572 57.8174 80.9428 57.7479 80.8632L56.1539 79.0672C56.0745 78.9776 55.9305 78.9776 55.8461 79.0672H55.851Z" fill="white"/>
<path d="M56.6604 79.6343L57.1421 80.1766L55.568 82.6144L54.704 81.6393L56.6604 79.6343Z" fill="#8EA3B2"/>
<rect x="13" y="62" width="37" height="13" rx="6.5" fill="#2F4553"/>
<path d="M26.8954 70.072C25.7254 70.072 25.1794 69.058 25.1794 68.002C25.1794 66.946 25.7254 65.938 26.8954 65.938C28.0654 65.938 28.6114 66.946 28.6114 68.002C28.6114 69.058 28.0654 70.072 26.8954 70.072ZM26.8954 69.16C27.3754 69.16 27.5674 68.71 27.5674 68.002C27.5674 67.294 27.3754 66.85 26.8954 66.85C26.4154 66.85 26.2234 67.294 26.2234 68.002C26.2234 68.71 26.4154 69.16 26.8954 69.16ZM29.4837 70.072C29.1777 70.072 28.9197 69.814 28.9197 69.508C28.9197 69.202 29.1777 68.944 29.4837 68.944C29.7897 68.944 30.0477 69.202 30.0477 69.508C30.0477 69.814 29.7897 70.072 29.4837 70.072ZM32.0489 70.072C31.2809 70.072 30.7049 69.802 30.3929 69.442L30.9149 68.74C31.2029 69.022 31.6589 69.16 32.0069 69.16C32.4509 69.16 32.6789 68.992 32.6789 68.77C32.6789 68.542 32.5109 68.434 31.9649 68.434C31.7909 68.434 31.4849 68.434 31.4249 68.44V67.522C31.5029 67.528 31.8149 67.528 31.9649 67.528C32.3789 67.528 32.6129 67.426 32.6129 67.216C32.6129 66.964 32.3249 66.85 31.9409 66.85C31.5749 66.85 31.2269 66.982 30.9449 67.234L30.4469 66.586C30.7829 66.208 31.3109 65.938 32.0489 65.938C33.0689 65.938 33.6389 66.376 33.6389 67.036C33.6389 67.504 33.2369 67.858 32.7629 67.936C33.1889 67.978 33.7049 68.308 33.7049 68.884C33.7049 69.586 33.0449 70.072 32.0489 70.072ZM37.0143 70H36.0003L35.4423 69.124L34.8783 70H33.8702L34.8603 68.512L33.9303 67.102H34.9443L35.4423 67.888L35.9343 67.102H36.9483L36.0243 68.512L37.0143 70Z" fill="white"/>
<path d="M6.835 11.06C5.82 11.06 5.33 10.49 5.33 9.67V7.665H6.05V9.645C6.05 10.11 6.32 10.43 6.835 10.43C7.35 10.43 7.615 10.11 7.615 9.645V7.665H8.34V9.665C8.34 10.495 7.85 11.06 6.835 11.06ZM11.247 11H10.612V9.54C10.612 9.205 10.437 9.09 10.167 9.09C9.91699 9.09 9.72199 9.23 9.61699 9.375V11H8.98199V8.585H9.61699V8.9C9.77199 8.715 10.067 8.525 10.462 8.525C10.992 8.525 11.247 8.825 11.247 9.295V11ZM13.0025 11.06C12.2575 11.06 11.7225 10.535 11.7225 9.79C11.7225 9.05 12.2575 8.525 13.0025 8.525C13.4975 8.525 13.7975 8.74 13.9575 8.96L13.5425 9.35C13.4275 9.18 13.2525 9.09 13.0325 9.09C12.6475 9.09 12.3775 9.37 12.3775 9.79C12.3775 10.21 12.6475 10.495 13.0325 10.495C13.2525 10.495 13.4275 10.395 13.5425 10.235L13.9575 10.62C13.7975 10.845 13.4975 11.06 13.0025 11.06ZM15.4926 11.06C14.6976 11.06 14.2176 10.48 14.2176 9.79C14.2176 9.105 14.6976 8.525 15.4926 8.525C16.2926 8.525 16.7726 9.105 16.7726 9.79C16.7726 10.48 16.2926 11.06 15.4926 11.06ZM15.4926 10.495C15.8876 10.495 16.1126 10.17 16.1126 9.79C16.1126 9.415 15.8876 9.09 15.4926 9.09C15.0976 9.09 14.8776 9.415 14.8776 9.79C14.8776 10.17 15.0976 10.495 15.4926 10.495ZM20.8787 11H20.2387V9.475C20.2387 9.25 20.1387 9.09 19.8787 9.09C19.6537 9.09 19.4687 9.24 19.3787 9.37V11H18.7387V9.475C18.7387 9.25 18.6387 9.09 18.3787 9.09C18.1587 9.09 17.9737 9.24 17.8787 9.375V11H17.2437V8.585H17.8787V8.9C17.9787 8.755 18.2987 8.525 18.6687 8.525C19.0237 8.525 19.2487 8.69 19.3387 8.965C19.4787 8.745 19.7987 8.525 20.1687 8.525C20.6137 8.525 20.8787 8.76 20.8787 9.255V11ZM25.1365 11H24.4965V9.475C24.4965 9.25 24.3965 9.09 24.1365 9.09C23.9115 9.09 23.7265 9.24 23.6365 9.37V11H22.9965V9.475C22.9965 9.25 22.8965 9.09 22.6365 9.09C22.4165 9.09 22.2315 9.24 22.1365 9.375V11H21.5015V8.585H22.1365V8.9C22.2365 8.755 22.5565 8.525 22.9265 8.525C23.2815 8.525 23.5065 8.69 23.5965 8.965C23.7365 8.745 24.0565 8.525 24.4265 8.525C24.8715 8.525 25.1365 8.76 25.1365 9.255V11ZM26.8793 11.06C26.0843 11.06 25.6043 10.48 25.6043 9.79C25.6043 9.105 26.0843 8.525 26.8793 8.525C27.6793 8.525 28.1593 9.105 28.1593 9.79C28.1593 10.48 27.6793 11.06 26.8793 11.06ZM26.8793 10.495C27.2743 10.495 27.4993 10.17 27.4993 9.79C27.4993 9.415 27.2743 9.09 26.8793 9.09C26.4843 9.09 26.2643 9.415 26.2643 9.79C26.2643 10.17 26.4843 10.495 26.8793 10.495ZM30.8954 11H30.2604V9.54C30.2604 9.205 30.0854 9.09 29.8154 9.09C29.5654 9.09 29.3704 9.23 29.2654 9.375V11H28.6304V8.585H29.2654V8.9C29.4204 8.715 29.7154 8.525 30.1104 8.525C30.6404 8.525 30.8954 8.825 30.8954 9.295V11Z" fill="white"/>
<path d="M47.0726 11H46.6206L45.2286 9.096V11H44.7606V8.332H45.2406L46.6046 10.184V8.332H47.0726V11ZM48.4995 11.048C47.8875 11.048 47.5075 10.588 47.5075 10.032C47.5075 9.48 47.8875 9.02 48.4995 9.02C49.1195 9.02 49.4955 9.48 49.4955 10.032C49.4955 10.588 49.1195 11.048 48.4995 11.048ZM48.4995 10.676C48.8595 10.676 49.0595 10.376 49.0595 10.032C49.0595 9.692 48.8595 9.392 48.4995 9.392C48.1435 9.392 47.9435 9.692 47.9435 10.032C47.9435 10.376 48.1435 10.676 48.4995 10.676ZM50.1169 11.044C49.9649 11.044 49.8369 10.916 49.8369 10.764C49.8369 10.612 49.9649 10.484 50.1169 10.484C50.2689 10.484 50.3969 10.612 50.3969 10.764C50.3969 10.916 50.2689 11.044 50.1169 11.044ZM52.8727 11H52.4047V8.94L51.9687 9.392L51.6967 9.108L52.4647 8.332H52.8727V11ZM54.3883 11.048C53.6403 11.048 53.3203 10.34 53.3203 9.668C53.3203 8.996 53.6403 8.292 54.3883 8.292C55.1363 8.292 55.4563 8.996 55.4563 9.668C55.4563 10.34 55.1363 11.048 54.3883 11.048ZM54.3883 10.632C54.8243 10.632 54.9803 10.176 54.9803 9.668C54.9803 9.16 54.8243 8.708 54.3883 8.708C53.9523 8.708 53.7963 9.16 53.7963 9.668C53.7963 10.176 53.9523 10.632 54.3883 10.632ZM56.8131 11.048C56.2651 11.048 55.7891 10.796 55.7891 10.316C55.7891 9.976 56.0651 9.732 56.3891 9.624C56.0891 9.528 55.8331 9.332 55.8331 8.992C55.8331 8.5 56.3371 8.292 56.8131 8.292C57.2811 8.292 57.7931 8.5 57.7931 8.992C57.7931 9.332 57.5331 9.528 57.2331 9.624C57.5571 9.732 57.8331 9.976 57.8331 10.316C57.8331 10.792 57.3571 11.048 56.8131 11.048ZM56.8131 9.44C56.9771 9.412 57.3171 9.316 57.3171 9.064C57.3171 8.84 57.0971 8.708 56.8131 8.708C56.5211 8.708 56.3051 8.84 56.3051 9.064C56.3051 9.316 56.6491 9.412 56.8131 9.44ZM56.8131 10.632C57.1091 10.632 57.3611 10.488 57.3611 10.256C57.3611 9.98 56.9771 9.856 56.8131 9.836C56.6451 9.856 56.2611 9.98 56.2611 10.256C56.2611 10.488 56.5091 10.632 56.8131 10.632Z" fill="white"/>
<defs>
<clipPath id="clip0_26835_29271">
<rect width="63" height="88" fill="white"/>
</clipPath>
</defs>
</svg>
