<svg width="63" height="88" viewBox="0 0 63 88" fill="none" xmlns="http://www.w3.org/2000/svg">
<rect width="63" height="88" rx="4" fill="#047BFF"/>
<path d="M36.7008 13.5133L44.7992 3.48665C45.5586 2.54645 46.7024 2 47.911 2H58C59.6569 2 61 3.34314 61 5V83C61 84.6569 59.6569 86 58 86H5C3.34315 86 2 84.6569 2 83V18C2 16.3431 3.34315 15 5 15H33.589C34.7976 15 35.9414 14.4536 36.7008 13.5133Z" fill="#213743"/>
<rect x="5" y="18" width="53" height="40" rx="1" fill="#2F4553"/>
<path d="M42.1798 45.7698H20.8298C19.7603 45.7698 18.8933 46.6368 18.8933 47.7063V54.2807C18.8933 55.3502 19.7603 56.2172 20.8298 56.2172H42.1798C43.2493 56.2172 44.1163 55.3502 44.1163 54.2807V47.7063C44.1163 46.6368 43.2493 45.7698 42.1798 45.7698Z" fill="#45A7FF"/>
<path d="M42.1798 42.3035H20.8298C19.7603 42.3035 18.8933 43.1705 18.8933 44.24V50.8144C18.8933 51.8839 19.7603 52.7509 20.8298 52.7509H42.1798C43.2493 52.7509 44.1163 51.8839 44.1163 50.8144V44.24C44.1163 43.1705 43.2493 42.3035 42.1798 42.3035Z" fill="#047BFF"/>
<path d="M31.5 50.3982C36.3395 50.3982 40.2627 49.0283 40.2627 47.3385C40.2627 45.6487 36.3395 44.2788 31.5 44.2788C26.6605 44.2788 22.7373 45.6487 22.7373 47.3385C22.7373 49.0283 26.6605 50.3982 31.5 50.3982Z" fill="#1A2C38"/>
<path d="M49.5773 29.2418C49.5676 29.7162 49.3836 30.1907 49.0157 30.5489L32.8168 46.3605C32.4489 46.7188 31.9744 46.8931 31.5 46.8931C31.0256 46.8931 30.5511 46.7188 30.1832 46.3605L13.994 30.5489C13.3452 29.9196 13.2484 28.9126 13.7325 28.1573L20.0843 18.6104C20.6652 17.7389 21.6432 17.2161 22.6889 17.2161H40.3111C41.3568 17.2161 42.3348 17.7389 42.9157 18.6104L49.2675 28.1573C49.3546 28.2832 49.4127 28.4188 49.4611 28.5543C49.4611 28.564 49.4708 28.5737 49.4708 28.5834C49.4902 28.6221 49.5095 28.6705 49.5095 28.7189C49.5579 28.8835 49.5773 29.0675 49.5773 29.2418Z" fill="#FFC201"/>
<path d="M13.4227 29.2419C13.4324 29.7163 13.6163 30.1908 13.9843 30.549L30.1832 46.3606C30.5511 46.7188 31.0256 46.8931 31.5 46.8931L30.2509 40.125L24.8965 34.9739C24.2187 33.4925 23.4829 32.1079 21.8175 31.372C20.2198 30.6749 14.1489 27.5474 13.5389 28.5544C13.4033 28.8158 13.4227 29.0966 13.4227 29.2419Z" fill="#FF7F00"/>
<path d="M49.5773 29.2419C49.5676 29.7163 49.3836 30.1908 49.0157 30.549L32.8168 46.3606C32.4489 46.7188 31.9744 46.8931 31.5 46.8931L32.749 40.125L38.1035 34.9739C38.7813 33.4925 39.5171 32.1079 41.1825 31.372C42.7802 30.6749 48.8414 27.5474 49.4514 28.5544C49.4514 28.5641 49.5676 29.0966 49.5676 29.2419H49.5773Z" fill="#FFDF7A"/>
<path d="M30.5124 22.5996L24.8965 29.7163C24.2478 30.5393 24.8287 31.7593 25.8841 31.7593H37.1159C38.1713 31.7593 38.7619 30.5393 38.1035 29.7163L32.4876 22.5996C31.9841 21.9606 31.0159 21.9606 30.5027 22.5996H30.5124Z" fill="white"/>
<path d="M30.5124 46.1476L24.8965 34.974C24.2478 33.6765 24.8287 31.769 25.8841 31.769H37.1159C38.1713 31.769 38.7619 33.6765 38.1035 34.974L32.4876 46.1476C31.9841 47.1546 31.0159 47.1546 30.5027 46.1476H30.5124Z" fill="#FFA601"/>
<path d="M30.677 21.9703L22.2725 18.2328C21.3624 17.8261 21.1978 17.2258 22.6695 17.2258H40.3402C41.8119 17.2258 41.6473 17.8261 40.7371 18.2328L32.3327 21.9703C31.8776 22.1736 31.1321 22.1736 30.677 21.9703Z" fill="#FFA601"/>
<path d="M42.0346 14.5146C41.231 15.7637 40.5822 16.4124 39.3332 17.2161C40.5822 18.0197 41.231 18.6685 42.0346 19.9175C42.8383 18.6685 43.487 18.0197 44.736 17.2161C43.487 16.4124 42.8383 15.7637 42.0346 14.5146Z" fill="white"/>
<path fill-rule="evenodd" clip-rule="evenodd" d="M6.49771 79C6.98969 79 7.48602 79.213 7.49037 79.6913C7.49037 80.1043 7.24656 80.2696 6.99839 80.2696C6.75023 80.2696 6.73281 80.1435 6.73281 80.1435C6.73281 80.1435 7.02452 79.9261 7.02452 79.7174C7.02452 79.6087 6.94179 79.313 6.489 79.3174C5.8577 79.3174 5.5181 79.6174 5.5181 80.1522C5.5181 80.7652 7.35105 80.9739 7.3554 81.7652C7.3554 82.613 6.47594 82.9957 5.69225 83C5.283 83 5.01306 82.7609 5.00871 82.3783C5.00871 81.9261 5.22204 81.4652 5.75756 81.4652C5.88382 81.4565 5.98831 81.5522 5.99702 81.6783C5.99702 81.6783 5.99702 81.6826 5.99702 81.687C5.99702 81.687 5.45715 81.8391 5.4615 82.3783C5.4615 82.4783 5.56599 82.6609 5.81851 82.6565C6.07103 82.6522 6.82424 82.4739 6.81989 81.8087C6.81989 81.1913 5.00435 81.1087 5 80.1478C5 79.0652 6.08845 79.0087 6.49771 79.0087V79ZM10.747 79.6C10.8123 79.5696 11.2129 79.4913 11.1955 79.813C11.1824 80.1348 10.9386 80.6913 10.9037 80.9348C11.2303 80.7696 11.6918 80.2087 11.6918 80.2087C11.6918 80.2087 12.0183 80.2522 11.9182 80.4522C11.818 80.6522 11.1519 81.1435 11.1519 81.1435C11.1519 81.1435 11.3043 82.5696 12.1707 82.5696C12.6453 82.5696 12.8499 82.3609 12.937 82.287C12.9587 82.2696 12.9762 82.2652 12.9849 82.2783C13.0197 82.387 12.9936 82.5043 12.9152 82.5913C12.8194 82.6957 12.5974 82.8217 12.1533 82.8261C11.3653 82.8261 10.9255 82.1957 10.8123 81.2609C10.7252 81.5348 10.7339 81.9826 10.7209 82.2C10.6948 82.2435 10.2507 82.4174 10.2158 82.1174C10.2158 82.0913 10.2158 82.0696 10.2158 82.0435C10.1331 82.1609 10.0199 82.2826 9.91108 82.2826C9.71951 82.2826 9.63679 82.1217 9.60196 82.0391C9.57584 82.0696 9.3625 82.287 9.08821 82.287C8.92277 82.2913 8.77474 82.1957 8.70943 82.0435C8.57011 82.1435 8.32195 82.2913 8.03895 82.2913C7.73418 82.2913 7.66017 82.1087 7.66017 81.9565C7.66017 81.713 7.84303 80.987 7.84303 80.987C7.84303 80.987 7.48602 81.1304 7.36411 81.1348C7.19431 81.1348 7.11159 80.8217 7.11159 80.813C7.11159 80.8087 7.11159 80.8 7.1203 80.8C7.22044 80.7609 7.94317 80.513 7.94317 80.513C7.94317 80.513 8.07813 79.9826 8.09555 79.913C8.11296 79.8435 8.2131 79.7 8.33065 79.6565C8.41773 79.6217 8.50916 79.6 8.60059 79.5913C8.63107 79.5913 8.65284 79.6 8.65284 79.6174C8.65284 79.6348 8.47433 80.4087 8.47433 80.4087C8.47433 80.4087 8.84876 80.3217 8.98808 80.3217C9.09692 80.3217 9.15352 80.387 9.09257 80.4696C9.03162 80.5522 8.96196 80.6478 8.92712 80.6913C8.88794 80.7348 8.86182 80.7435 8.77039 80.7609C8.64413 80.787 8.36113 80.8565 8.36113 80.8565C8.36113 80.8565 8.13473 81.6783 8.13909 81.8174C8.13909 81.8957 8.16521 81.987 8.26099 81.987C8.35678 81.987 8.53964 81.8739 8.67025 81.7913C8.69202 81.1522 9.18835 80.7261 9.57584 80.7261C9.7021 80.7261 9.65421 80.8478 9.79788 80.8478H9.88931C9.94591 80.8478 10.0069 80.8522 10.0069 80.9957C10.0069 81.1957 9.89367 81.5261 9.89367 81.7348C9.89367 81.8826 9.91544 81.987 9.97204 81.987C10.0678 81.987 10.1767 81.8478 10.255 81.7261C10.3813 81.0304 10.734 79.7609 10.734 79.6174L10.747 79.6ZM12.5016 80.7C12.7672 80.6783 12.9326 80.8217 12.9631 80.9C12.9936 80.9783 12.9892 81.1609 12.9152 81.2913C12.6845 81.7044 12.1097 81.6304 12.1097 81.6304C12.1097 81.6304 12.0444 81.9565 12.3405 81.9565C12.593 81.9565 12.7062 81.8304 12.8151 81.7261C12.8586 81.7261 12.9936 81.8652 12.9326 81.9609C12.8847 82.0348 12.6191 82.2565 12.2795 82.2609C11.7397 82.2609 11.6047 81.8 11.6744 81.4696C11.7658 81.0609 12.1751 80.7217 12.5016 80.6957V80.7ZM9.6455 80.987C9.32332 80.987 8.82699 81.9696 9.20577 81.9652C9.61938 81.9652 9.6455 81.1826 9.6455 81.0043V80.987ZM12.6409 80.8913C12.4232 80.9 12.1751 81.3174 12.1533 81.5C12.4798 81.513 12.654 81.1957 12.6757 81.0696C12.6888 80.9739 12.6932 80.887 12.6409 80.887V80.8913Z" fill="#557086"/>
<path d="M40.851 79.0672L39.2521 80.8632C39.1826 80.9428 39.1826 81.0572 39.2521 81.1368L40.8461 82.9328C40.9255 83.0224 41.0695 83.0224 41.1539 82.9328L42.7479 81.1368C42.8174 81.0572 42.8174 80.9428 42.7479 80.8632L41.1539 79.0672C41.0745 78.9776 40.9305 78.9776 40.8461 79.0672H40.851Z" fill="white"/>
<path d="M41.6604 79.6343L42.1421 80.1766L40.568 82.6144L39.704 81.6393L41.6604 79.6343Z" fill="#8EA3B2"/>
<path d="M45.851 79.0672L44.2521 80.8632C44.1826 80.9428 44.1826 81.0572 44.2521 81.1368L45.8461 82.9328C45.9255 83.0224 46.0695 83.0224 46.1539 82.9328L47.7479 81.1368C47.8174 81.0572 47.8174 80.9428 47.7479 80.8632L46.1539 79.0672C46.0745 78.9776 45.9305 78.9776 45.8461 79.0672H45.851Z" fill="white"/>
<path d="M46.6604 79.6343L47.1421 80.1766L45.568 82.6144L44.704 81.6393L46.6604 79.6343Z" fill="#8EA3B2"/>
<path d="M50.851 79.0672L49.2521 80.8632C49.1826 80.9428 49.1826 81.0572 49.2521 81.1368L50.8461 82.9328C50.9255 83.0224 51.0695 83.0224 51.1539 82.9328L52.7479 81.1368C52.8174 81.0572 52.8174 80.9428 52.7479 80.8632L51.1539 79.0672C51.0745 78.9776 50.9305 78.9776 50.8461 79.0672H50.851Z" fill="white"/>
<path d="M51.6604 79.6343L52.1421 80.1766L50.568 82.6144L49.704 81.6393L51.6604 79.6343Z" fill="#8EA3B2"/>
<path d="M55.851 79.0672L54.2521 80.8632C54.1826 80.9428 54.1826 81.0572 54.2521 81.1368L55.8461 82.9328C55.9255 83.0224 56.0695 83.0224 56.1539 82.9328L57.7479 81.1368C57.8174 81.0572 57.8174 80.9428 57.7479 80.8632L56.1539 79.0672C56.0745 78.9776 55.9305 78.9776 55.8461 79.0672H55.851Z" fill="white"/>
<path d="M56.6604 79.6343L57.1421 80.1766L55.568 82.6144L54.704 81.6393L56.6604 79.6343Z" fill="#8EA3B2"/>
<rect x="13" y="62" width="37" height="13" rx="6.5" fill="#2F4553"/>
<path d="M26.8954 70.072C25.7254 70.072 25.1794 69.058 25.1794 68.002C25.1794 66.946 25.7254 65.938 26.8954 65.938C28.0654 65.938 28.6114 66.946 28.6114 68.002C28.6114 69.058 28.0654 70.072 26.8954 70.072ZM26.8954 69.16C27.3754 69.16 27.5674 68.71 27.5674 68.002C27.5674 67.294 27.3754 66.85 26.8954 66.85C26.4154 66.85 26.2234 67.294 26.2234 68.002C26.2234 68.71 26.4154 69.16 26.8954 69.16ZM29.4837 70.072C29.1777 70.072 28.9197 69.814 28.9197 69.508C28.9197 69.202 29.1777 68.944 29.4837 68.944C29.7897 68.944 30.0477 69.202 30.0477 69.508C30.0477 69.814 29.7897 70.072 29.4837 70.072ZM32.0489 70.072C31.2809 70.072 30.7049 69.802 30.3929 69.442L30.9149 68.74C31.2029 69.022 31.6589 69.16 32.0069 69.16C32.4509 69.16 32.6789 68.992 32.6789 68.77C32.6789 68.542 32.5109 68.434 31.9649 68.434C31.7909 68.434 31.4849 68.434 31.4249 68.44V67.522C31.5029 67.528 31.8149 67.528 31.9649 67.528C32.3789 67.528 32.6129 67.426 32.6129 67.216C32.6129 66.964 32.3249 66.85 31.9409 66.85C31.5749 66.85 31.2269 66.982 30.9449 67.234L30.4469 66.586C30.7829 66.208 31.3109 65.938 32.0489 65.938C33.0689 65.938 33.6389 66.376 33.6389 67.036C33.6389 67.504 33.2369 67.858 32.7629 67.936C33.1889 67.978 33.7049 68.308 33.7049 68.884C33.7049 69.586 33.0449 70.072 32.0489 70.072ZM37.0143 70H36.0003L35.4423 69.124L34.8783 70H33.8702L34.8603 68.512L33.9303 67.102H34.9443L35.4423 67.888L35.9343 67.102H36.9483L36.0243 68.512L37.0143 70Z" fill="white"/>
<path d="M6.835 11.06C5.82 11.06 5.33 10.49 5.33 9.67V7.665H6.05V9.645C6.05 10.11 6.32 10.43 6.835 10.43C7.35 10.43 7.615 10.11 7.615 9.645V7.665H8.34V9.665C8.34 10.495 7.85 11.06 6.835 11.06ZM11.247 11H10.612V9.54C10.612 9.205 10.437 9.09 10.167 9.09C9.91699 9.09 9.72199 9.23 9.61699 9.375V11H8.98199V8.585H9.61699V8.9C9.77199 8.715 10.067 8.525 10.462 8.525C10.992 8.525 11.247 8.825 11.247 9.295V11ZM13.0025 11.06C12.2575 11.06 11.7225 10.535 11.7225 9.79C11.7225 9.05 12.2575 8.525 13.0025 8.525C13.4975 8.525 13.7975 8.74 13.9575 8.96L13.5425 9.35C13.4275 9.18 13.2525 9.09 13.0325 9.09C12.6475 9.09 12.3775 9.37 12.3775 9.79C12.3775 10.21 12.6475 10.495 13.0325 10.495C13.2525 10.495 13.4275 10.395 13.5425 10.235L13.9575 10.62C13.7975 10.845 13.4975 11.06 13.0025 11.06ZM15.4926 11.06C14.6976 11.06 14.2176 10.48 14.2176 9.79C14.2176 9.105 14.6976 8.525 15.4926 8.525C16.2926 8.525 16.7726 9.105 16.7726 9.79C16.7726 10.48 16.2926 11.06 15.4926 11.06ZM15.4926 10.495C15.8876 10.495 16.1126 10.17 16.1126 9.79C16.1126 9.415 15.8876 9.09 15.4926 9.09C15.0976 9.09 14.8776 9.415 14.8776 9.79C14.8776 10.17 15.0976 10.495 15.4926 10.495ZM20.8787 11H20.2387V9.475C20.2387 9.25 20.1387 9.09 19.8787 9.09C19.6537 9.09 19.4687 9.24 19.3787 9.37V11H18.7387V9.475C18.7387 9.25 18.6387 9.09 18.3787 9.09C18.1587 9.09 17.9737 9.24 17.8787 9.375V11H17.2437V8.585H17.8787V8.9C17.9787 8.755 18.2987 8.525 18.6687 8.525C19.0237 8.525 19.2487 8.69 19.3387 8.965C19.4787 8.745 19.7987 8.525 20.1687 8.525C20.6137 8.525 20.8787 8.76 20.8787 9.255V11ZM25.1365 11H24.4965V9.475C24.4965 9.25 24.3965 9.09 24.1365 9.09C23.9115 9.09 23.7265 9.24 23.6365 9.37V11H22.9965V9.475C22.9965 9.25 22.8965 9.09 22.6365 9.09C22.4165 9.09 22.2315 9.24 22.1365 9.375V11H21.5015V8.585H22.1365V8.9C22.2365 8.755 22.5565 8.525 22.9265 8.525C23.2815 8.525 23.5065 8.69 23.5965 8.965C23.7365 8.745 24.0565 8.525 24.4265 8.525C24.8715 8.525 25.1365 8.76 25.1365 9.255V11ZM26.8793 11.06C26.0843 11.06 25.6043 10.48 25.6043 9.79C25.6043 9.105 26.0843 8.525 26.8793 8.525C27.6793 8.525 28.1593 9.105 28.1593 9.79C28.1593 10.48 27.6793 11.06 26.8793 11.06ZM26.8793 10.495C27.2743 10.495 27.4993 10.17 27.4993 9.79C27.4993 9.415 27.2743 9.09 26.8793 9.09C26.4843 9.09 26.2643 9.415 26.2643 9.79C26.2643 10.17 26.4843 10.495 26.8793 10.495ZM30.8954 11H30.2604V9.54C30.2604 9.205 30.0854 9.09 29.8154 9.09C29.5654 9.09 29.3704 9.23 29.2654 9.375V11H28.6304V8.585H29.2654V8.9C29.4204 8.715 29.7154 8.525 30.1104 8.525C30.6404 8.525 30.8954 8.825 30.8954 9.295V11Z" fill="white"/>
<path d="M47.0491 11H46.5971L45.2051 9.096V11H44.7371V8.332H45.2171L46.5811 10.184V8.332H47.0491V11ZM48.476 11.048C47.864 11.048 47.484 10.588 47.484 10.032C47.484 9.48 47.864 9.02 48.476 9.02C49.096 9.02 49.472 9.48 49.472 10.032C49.472 10.588 49.096 11.048 48.476 11.048ZM48.476 10.676C48.836 10.676 49.036 10.376 49.036 10.032C49.036 9.692 48.836 9.392 48.476 9.392C48.12 9.392 47.92 9.692 47.92 10.032C47.92 10.376 48.12 10.676 48.476 10.676ZM50.0935 11.044C49.9415 11.044 49.8135 10.916 49.8135 10.764C49.8135 10.612 49.9415 10.484 50.0935 10.484C50.2455 10.484 50.3735 10.612 50.3735 10.764C50.3735 10.916 50.2455 11.044 50.0935 11.044ZM52.8493 11H52.3813V8.94L51.9453 9.392L51.6733 9.108L52.4413 8.332H52.8493V11ZM54.3648 11.048C53.6168 11.048 53.2968 10.34 53.2968 9.668C53.2968 8.996 53.6168 8.292 54.3648 8.292C55.1128 8.292 55.4328 8.996 55.4328 9.668C55.4328 10.34 55.1128 11.048 54.3648 11.048ZM54.3648 10.632C54.8008 10.632 54.9568 10.176 54.9568 9.668C54.9568 9.16 54.8008 8.708 54.3648 8.708C53.9288 8.708 53.7728 9.16 53.7728 9.668C53.7728 10.176 53.9288 10.632 54.3648 10.632ZM56.6577 11.044C56.3297 11.044 56.0737 10.928 55.8937 10.748L56.1097 10.396C56.2497 10.54 56.4057 10.628 56.6577 10.628C57.1417 10.628 57.3617 10.188 57.3617 9.752C57.3617 9.724 57.3617 9.7 57.3617 9.672C57.2377 9.852 56.9577 10.048 56.6457 10.048C56.1657 10.048 55.7497 9.752 55.7497 9.184C55.7497 8.692 56.1377 8.288 56.7337 8.288C57.5177 8.288 57.8337 8.924 57.8337 9.668C57.8337 10.436 57.4297 11.044 56.6577 11.044ZM56.7697 9.644C56.9977 9.644 57.2217 9.524 57.3537 9.332C57.3297 9.044 57.1697 8.704 56.7577 8.704C56.4097 8.704 56.2257 8.956 56.2257 9.168C56.2257 9.496 56.4817 9.644 56.7697 9.644Z" fill="white"/>
</svg>
