<svg width="63" height="88" viewBox="0 0 63 88" fill="none" xmlns="http://www.w3.org/2000/svg">
<rect width="63" height="88" rx="4" fill="#047BFF"/>
<path d="M36.7008 13.5133L44.7992 3.48665C45.5586 2.54645 46.7024 2 47.911 2H58C59.6569 2 61 3.34314 61 5V83C61 84.6569 59.6569 86 58 86H5C3.34315 86 2 84.6569 2 83V18C2 16.3431 3.34315 15 5 15H33.589C34.7976 15 35.9414 14.4536 36.7008 13.5133Z" fill="#213743"/>
<rect x="5" y="18" width="53" height="40" rx="1" fill="#2F4553"/>
<path d="M34 52C41.1797 52 47 52.8954 47 54C47 55.1046 41.1797 56 34 56C26.8203 56 21 55.1046 21 54C21 52.8954 26.8203 52 34 52Z" fill="#1A2C38"/>
<path d="M36.2874 51.6707C28.4089 54.1459 19.9846 49.7496 17.5094 41.8712L14.0063 30.7212L25.4221 27.1346L28.9252 38.2846C29.4242 39.8729 31.1187 40.7519 32.7007 40.2549C34.2828 39.7579 35.1681 38.0614 34.6711 36.4793L31.1679 25.3293L42.5837 21.7427L46.0868 32.8927C48.5621 40.7711 44.1658 49.1954 36.2874 51.6707Z" fill="#047BFF"/>
<path d="M17.2027 20.9565C20.3551 19.9661 22.5902 18.1432 22.1949 16.8851C21.7996 15.6269 18.9236 15.4099 15.7712 16.4003C12.6189 17.3907 10.3838 19.2135 10.7791 20.4717C11.1744 21.7299 14.0503 21.9469 17.2027 20.9565Z" fill="#557086"/>
<path d="M34.3707 15.5627C37.5231 14.5723 39.7582 12.7494 39.3629 11.4913C38.9676 10.2331 36.0916 10.0161 32.9392 11.0065C29.7869 11.9969 27.5518 13.8197 27.9471 15.0779C28.3424 16.3361 31.2183 16.5531 34.3707 15.5627Z" fill="#557086"/>
<path d="M18.6362 25.519C21.7885 24.5286 24.0236 22.7057 23.6283 21.4476C23.233 20.1894 20.3571 19.9724 17.2047 20.9628C14.0523 21.9532 11.8172 23.776 12.2125 25.0342C12.6078 26.2924 15.4838 26.5094 18.6362 25.519Z" fill="#557086"/>
<path d="M35.8042 20.1249C38.9565 19.1345 41.1916 17.3117 40.7963 16.0535C40.401 14.7954 37.5251 14.5783 34.3727 15.5688C31.2203 16.5592 28.9852 18.382 29.3805 19.6402C29.7758 20.8983 32.6518 21.1154 35.8042 20.1249Z" fill="#557086"/>
<path d="M20.4195 31.1953C23.5719 30.2048 25.807 28.382 25.4117 27.1238C25.0164 25.8657 22.1405 25.6486 18.9881 26.6391C15.8357 27.6295 13.6006 29.4523 13.9959 30.7105C14.3912 31.9686 17.2672 32.1857 20.4195 31.1953Z" fill="#047BFF"/>
<path d="M20.0816 30.1196C22.175 29.4619 23.7047 28.3961 23.4983 27.739C23.2919 27.082 21.4275 27.0825 19.334 27.7403C17.2406 28.398 15.7109 29.4638 15.9173 30.1208C16.1237 30.7779 17.9882 30.7773 20.0816 30.1196Z" fill="#1A2C38"/>
<path d="M37.5875 25.8012C40.7399 24.8108 42.975 22.988 42.5797 21.7298C42.1844 20.4716 39.3084 20.2546 36.156 21.245C33.0037 22.2354 30.7686 24.0583 31.1639 25.3164C31.5592 26.5746 34.4351 26.7916 37.5875 25.8012Z" fill="#047BFF"/>
<path d="M38.759 24.6616C40.9957 23.9588 42.5686 22.6242 42.2721 21.6806C41.9757 20.737 39.9221 20.5417 37.6854 21.2444C35.4487 21.9472 33.8758 23.2818 34.1722 24.2254C34.4687 25.169 36.5223 25.3643 38.759 24.6616Z" fill="white"/>
<path d="M37.2496 24.7256C39.343 24.0678 40.8727 23.002 40.6663 22.345C40.4599 21.6879 38.5955 21.6885 36.502 22.3462C34.4086 23.0039 32.8789 24.0697 33.0853 24.7268C33.2917 25.3838 35.1562 25.3833 37.2496 24.7256Z" fill="#1A2C38"/>
<path d="M34.0627 34.543L34.671 36.4794C35.1701 38.0677 34.2827 39.7579 32.7007 40.255C31.1187 40.752 29.4222 39.8667 28.9252 38.2846L28.6051 37.2658C24.7465 39.4793 21.4147 42.0418 18.7602 44.746C22.1613 50.7692 29.434 53.8239 36.2936 51.6688C44.1721 49.1935 48.5684 40.7692 46.0931 32.8908L45.5563 31.1822C41.9049 31.7315 38.0004 32.847 34.067 34.5347L34.0627 34.543Z" fill="#1CE61C"/>
<path d="M40.9819 45.5234C41.3121 47.1717 38.3746 49.8606 34.2591 50.6809C30.1435 51.5011 26.4014 50.146 26.0692 48.4914C25.7391 46.843 29.354 47.5497 33.4695 46.7295C37.5851 45.9092 40.6498 43.8687 40.9819 45.5234Z" fill="#047BFF"/>
<path d="M25.6299 46.3629C27.8942 48.2588 27.8352 48.7571 27.5054 49.1457C27.1776 49.5408 25.8281 49.4502 23.5618 47.548C21.2976 45.6522 20.6042 44.0206 20.934 43.6319C21.2638 43.2432 23.3636 44.4607 25.6299 46.3629Z" fill="white"/>
<path d="M22.2012 16.8831L10.7854 20.4697L12.2169 25.0259L23.6327 21.4393L22.2012 16.8831Z" fill="#557086"/>
<path d="M39.3629 11.4913L27.9471 15.0779L29.3786 19.6341L40.7943 16.0475L39.3629 11.4913Z" fill="#557086"/>
<path d="M39.2219 11.5366C39.0343 10.5954 37.0998 10.1876 34.9011 10.6258C32.7024 11.064 31.0721 12.1823 31.2597 13.1236C31.4473 14.0648 33.3818 14.4726 35.5805 14.0344C37.7792 13.5962 39.4095 12.4779 39.2219 11.5366Z" fill="white"/>
<path d="M35.5583 12.5266L35.552 12.5286C34.535 12.8482 33.9696 13.9316 34.2891 14.9486L35.0028 17.2204C35.3224 18.2374 36.4058 18.8028 37.4229 18.4833L37.4292 18.4813C38.4462 18.1618 39.0116 17.0783 38.6921 16.0613L37.9783 13.7896C37.6588 12.7725 36.5753 12.2071 35.5583 12.5266Z" fill="white"/>
<path d="M34.1618 14.5436C36.6432 13.764 38.4749 12.5597 38.2531 11.8538C38.0313 11.1478 35.8399 11.2075 33.3586 11.9871C30.8772 12.7667 29.0455 13.971 29.2673 14.6769C29.4891 15.3829 31.6804 15.3232 34.1618 14.5436Z" fill="#8EA3B2"/>
<path d="M16.8925 19.9692C19.3739 19.1896 21.2056 17.9853 20.9838 17.2793C20.762 16.5733 18.5707 16.633 16.0893 17.4126C13.608 18.1922 11.7762 19.3965 11.998 20.1025C12.2198 20.8085 14.4112 20.7488 16.8925 19.9692Z" fill="white"/>
<path fill-rule="evenodd" clip-rule="evenodd" d="M6.49771 79C6.98969 79 7.48602 79.213 7.49037 79.6913C7.49037 80.1043 7.24656 80.2696 6.99839 80.2696C6.75023 80.2696 6.73281 80.1435 6.73281 80.1435C6.73281 80.1435 7.02452 79.9261 7.02452 79.7174C7.02452 79.6087 6.94179 79.313 6.489 79.3174C5.8577 79.3174 5.5181 79.6174 5.5181 80.1522C5.5181 80.7652 7.35105 80.9739 7.3554 81.7652C7.3554 82.613 6.47594 82.9957 5.69225 83C5.283 83 5.01306 82.7609 5.00871 82.3783C5.00871 81.9261 5.22204 81.4652 5.75756 81.4652C5.88382 81.4565 5.98831 81.5522 5.99702 81.6783C5.99702 81.6783 5.99702 81.6826 5.99702 81.687C5.99702 81.687 5.45715 81.8391 5.4615 82.3783C5.4615 82.4783 5.56599 82.6609 5.81851 82.6565C6.07103 82.6522 6.82424 82.4739 6.81989 81.8087C6.81989 81.1913 5.00435 81.1087 5 80.1478C5 79.0652 6.08845 79.0087 6.49771 79.0087V79ZM10.747 79.6C10.8123 79.5696 11.2129 79.4913 11.1955 79.813C11.1824 80.1348 10.9386 80.6913 10.9037 80.9348C11.2303 80.7696 11.6918 80.2087 11.6918 80.2087C11.6918 80.2087 12.0183 80.2522 11.9182 80.4522C11.818 80.6522 11.1519 81.1435 11.1519 81.1435C11.1519 81.1435 11.3043 82.5696 12.1707 82.5696C12.6453 82.5696 12.8499 82.3609 12.937 82.287C12.9587 82.2696 12.9762 82.2652 12.9849 82.2783C13.0197 82.387 12.9936 82.5043 12.9152 82.5913C12.8194 82.6957 12.5974 82.8217 12.1533 82.8261C11.3653 82.8261 10.9255 82.1957 10.8123 81.2609C10.7252 81.5348 10.7339 81.9826 10.7209 82.2C10.6948 82.2435 10.2507 82.4174 10.2158 82.1174C10.2158 82.0913 10.2158 82.0696 10.2158 82.0435C10.1331 82.1609 10.0199 82.2826 9.91108 82.2826C9.71951 82.2826 9.63679 82.1217 9.60196 82.0391C9.57584 82.0696 9.3625 82.287 9.08821 82.287C8.92277 82.2913 8.77474 82.1957 8.70943 82.0435C8.57011 82.1435 8.32195 82.2913 8.03895 82.2913C7.73418 82.2913 7.66017 82.1087 7.66017 81.9565C7.66017 81.713 7.84303 80.987 7.84303 80.987C7.84303 80.987 7.48602 81.1304 7.36411 81.1348C7.19431 81.1348 7.11159 80.8217 7.11159 80.813C7.11159 80.8087 7.11159 80.8 7.1203 80.8C7.22044 80.7609 7.94317 80.513 7.94317 80.513C7.94317 80.513 8.07813 79.9826 8.09555 79.913C8.11296 79.8435 8.2131 79.7 8.33065 79.6565C8.41773 79.6217 8.50916 79.6 8.60059 79.5913C8.63107 79.5913 8.65284 79.6 8.65284 79.6174C8.65284 79.6348 8.47433 80.4087 8.47433 80.4087C8.47433 80.4087 8.84876 80.3217 8.98808 80.3217C9.09692 80.3217 9.15352 80.387 9.09257 80.4696C9.03162 80.5522 8.96196 80.6478 8.92712 80.6913C8.88794 80.7348 8.86182 80.7435 8.77039 80.7609C8.64413 80.787 8.36113 80.8565 8.36113 80.8565C8.36113 80.8565 8.13473 81.6783 8.13909 81.8174C8.13909 81.8957 8.16521 81.987 8.26099 81.987C8.35678 81.987 8.53964 81.8739 8.67025 81.7913C8.69202 81.1522 9.18835 80.7261 9.57584 80.7261C9.7021 80.7261 9.65421 80.8478 9.79788 80.8478H9.88931C9.94591 80.8478 10.0069 80.8522 10.0069 80.9957C10.0069 81.1957 9.89367 81.5261 9.89367 81.7348C9.89367 81.8826 9.91544 81.987 9.97204 81.987C10.0678 81.987 10.1767 81.8478 10.255 81.7261C10.3813 81.0304 10.734 79.7609 10.734 79.6174L10.747 79.6ZM12.5016 80.7C12.7672 80.6783 12.9326 80.8217 12.9631 80.9C12.9936 80.9783 12.9892 81.1609 12.9152 81.2913C12.6845 81.7044 12.1097 81.6304 12.1097 81.6304C12.1097 81.6304 12.0444 81.9565 12.3405 81.9565C12.593 81.9565 12.7062 81.8304 12.8151 81.7261C12.8586 81.7261 12.9936 81.8652 12.9326 81.9609C12.8847 82.0348 12.6191 82.2565 12.2795 82.2609C11.7397 82.2609 11.6047 81.8 11.6744 81.4696C11.7658 81.0609 12.1751 80.7217 12.5016 80.6957V80.7ZM9.6455 80.987C9.32332 80.987 8.82699 81.9696 9.20577 81.9652C9.61938 81.9652 9.6455 81.1826 9.6455 81.0043V80.987ZM12.6409 80.8913C12.4232 80.9 12.1751 81.3174 12.1533 81.5C12.4798 81.513 12.654 81.1957 12.6757 81.0696C12.6888 80.9739 12.6932 80.887 12.6409 80.887V80.8913Z" fill="#557086"/>
<path d="M40.851 79.0672L39.2522 80.8632C39.1826 80.9428 39.1826 81.0572 39.2522 81.1368L40.8461 82.9328C40.9255 83.0224 41.0695 83.0224 41.1539 82.9328L42.7479 81.1368C42.8174 81.0572 42.8174 80.9428 42.7479 80.8632L41.1539 79.0672C41.0745 78.9776 40.9305 78.9776 40.8461 79.0672H40.851Z" fill="white"/>
<path d="M41.6604 79.6343L42.1421 80.1766L40.568 82.6144L39.704 81.6393L41.6604 79.6343Z" fill="#8EA3B2"/>
<path d="M45.851 79.0672L44.2522 80.8632C44.1826 80.9428 44.1826 81.0572 44.2522 81.1368L45.8461 82.9328C45.9255 83.0224 46.0695 83.0224 46.1539 82.9328L47.7479 81.1368C47.8174 81.0572 47.8174 80.9428 47.7479 80.8632L46.1539 79.0672C46.0745 78.9776 45.9305 78.9776 45.8461 79.0672H45.851Z" fill="white"/>
<path d="M46.6604 79.6343L47.1421 80.1766L45.568 82.6144L44.704 81.6393L46.6604 79.6343Z" fill="#8EA3B2"/>
<path d="M50.851 79.0672L49.2522 80.8632C49.1826 80.9428 49.1826 81.0572 49.2522 81.1368L50.8461 82.9328C50.9255 83.0224 51.0695 83.0224 51.1539 82.9328L52.7479 81.1368C52.8174 81.0572 52.8174 80.9428 52.7479 80.8632L51.1539 79.0672C51.0745 78.9776 50.9305 78.9776 50.8461 79.0672H50.851Z" fill="white"/>
<path d="M51.6604 79.6343L52.1421 80.1766L50.568 82.6144L49.704 81.6393L51.6604 79.6343Z" fill="#8EA3B2"/>
<path d="M55.851 79.0672L54.2522 80.8632C54.1826 80.9428 54.1826 81.0572 54.2522 81.1368L55.8461 82.9328C55.9255 83.0224 56.0695 83.0224 56.1539 82.9328L57.7479 81.1368C57.8174 81.0572 57.8174 80.9428 57.7479 80.8632L56.1539 79.0672C56.0745 78.9776 55.9305 78.9776 55.8461 79.0672H55.851Z" fill="white"/>
<path d="M56.6604 79.6343L57.1421 80.1766L55.568 82.6144L54.704 81.6393L56.6604 79.6343Z" fill="#8EA3B2"/>
<rect x="13" y="62" width="37" height="13" rx="6.5" fill="#2F4553"/>
<path d="M26.8954 70.072C25.7254 70.072 25.1794 69.058 25.1794 68.002C25.1794 66.946 25.7254 65.938 26.8954 65.938C28.0654 65.938 28.6114 66.946 28.6114 68.002C28.6114 69.058 28.0654 70.072 26.8954 70.072ZM26.8954 69.16C27.3754 69.16 27.5674 68.71 27.5674 68.002C27.5674 67.294 27.3754 66.85 26.8954 66.85C26.4154 66.85 26.2234 67.294 26.2234 68.002C26.2234 68.71 26.4154 69.16 26.8954 69.16ZM29.4837 70.072C29.1777 70.072 28.9197 69.814 28.9197 69.508C28.9197 69.202 29.1777 68.944 29.4837 68.944C29.7897 68.944 30.0477 69.202 30.0477 69.508C30.0477 69.814 29.7897 70.072 29.4837 70.072ZM32.0489 70.072C31.2809 70.072 30.7049 69.802 30.3929 69.442L30.9149 68.74C31.2029 69.022 31.6589 69.16 32.0069 69.16C32.4509 69.16 32.6789 68.992 32.6789 68.77C32.6789 68.542 32.5109 68.434 31.9649 68.434C31.7909 68.434 31.4849 68.434 31.4249 68.44V67.522C31.5029 67.528 31.8149 67.528 31.9649 67.528C32.3789 67.528 32.6129 67.426 32.6129 67.216C32.6129 66.964 32.3249 66.85 31.9409 66.85C31.5749 66.85 31.2269 66.982 30.9449 67.234L30.4469 66.586C30.7829 66.208 31.3109 65.938 32.0489 65.938C33.0689 65.938 33.6389 66.376 33.6389 67.036C33.6389 67.504 33.2369 67.858 32.7629 67.936C33.1889 67.978 33.7049 68.308 33.7049 68.884C33.7049 69.586 33.0449 70.072 32.0489 70.072ZM37.0143 70H36.0003L35.4423 69.124L34.8783 70H33.8702L34.8603 68.512L33.9303 67.102H34.9443L35.4423 67.888L35.9343 67.102H36.9483L36.0243 68.512L37.0143 70Z" fill="white"/>
<path d="M6.835 11.06C5.82 11.06 5.33 10.49 5.33 9.67V7.665H6.05V9.645C6.05 10.11 6.32 10.43 6.835 10.43C7.35 10.43 7.615 10.11 7.615 9.645V7.665H8.34V9.665C8.34 10.495 7.85 11.06 6.835 11.06ZM11.247 11H10.612V9.54C10.612 9.205 10.437 9.09 10.167 9.09C9.91699 9.09 9.72199 9.23 9.61699 9.375V11H8.98199V8.585H9.61699V8.9C9.77199 8.715 10.067 8.525 10.462 8.525C10.992 8.525 11.247 8.825 11.247 9.295V11ZM13.0025 11.06C12.2575 11.06 11.7225 10.535 11.7225 9.79C11.7225 9.05 12.2575 8.525 13.0025 8.525C13.4975 8.525 13.7975 8.74 13.9575 8.96L13.5425 9.35C13.4275 9.18 13.2525 9.09 13.0325 9.09C12.6475 9.09 12.3775 9.37 12.3775 9.79C12.3775 10.21 12.6475 10.495 13.0325 10.495C13.2525 10.495 13.4275 10.395 13.5425 10.235L13.9575 10.62C13.7975 10.845 13.4975 11.06 13.0025 11.06ZM15.4926 11.06C14.6976 11.06 14.2176 10.48 14.2176 9.79C14.2176 9.105 14.6976 8.525 15.4926 8.525C16.2926 8.525 16.7726 9.105 16.7726 9.79C16.7726 10.48 16.2926 11.06 15.4926 11.06ZM15.4926 10.495C15.8876 10.495 16.1126 10.17 16.1126 9.79C16.1126 9.415 15.8876 9.09 15.4926 9.09C15.0976 9.09 14.8776 9.415 14.8776 9.79C14.8776 10.17 15.0976 10.495 15.4926 10.495ZM20.8787 11H20.2387V9.475C20.2387 9.25 20.1387 9.09 19.8787 9.09C19.6537 9.09 19.4687 9.24 19.3787 9.37V11H18.7387V9.475C18.7387 9.25 18.6387 9.09 18.3787 9.09C18.1587 9.09 17.9737 9.24 17.8787 9.375V11H17.2437V8.585H17.8787V8.9C17.9787 8.755 18.2987 8.525 18.6687 8.525C19.0237 8.525 19.2487 8.69 19.3387 8.965C19.4787 8.745 19.7987 8.525 20.1687 8.525C20.6137 8.525 20.8787 8.76 20.8787 9.255V11ZM25.1365 11H24.4965V9.475C24.4965 9.25 24.3965 9.09 24.1365 9.09C23.9115 9.09 23.7265 9.24 23.6365 9.37V11H22.9965V9.475C22.9965 9.25 22.8965 9.09 22.6365 9.09C22.4165 9.09 22.2315 9.24 22.1365 9.375V11H21.5015V8.585H22.1365V8.9C22.2365 8.755 22.5565 8.525 22.9265 8.525C23.2815 8.525 23.5065 8.69 23.5965 8.965C23.7365 8.745 24.0565 8.525 24.4265 8.525C24.8715 8.525 25.1365 8.76 25.1365 9.255V11ZM26.8793 11.06C26.0843 11.06 25.6043 10.48 25.6043 9.79C25.6043 9.105 26.0843 8.525 26.8793 8.525C27.6793 8.525 28.1593 9.105 28.1593 9.79C28.1593 10.48 27.6793 11.06 26.8793 11.06ZM26.8793 10.495C27.2743 10.495 27.4993 10.17 27.4993 9.79C27.4993 9.415 27.2743 9.09 26.8793 9.09C26.4843 9.09 26.2643 9.415 26.2643 9.79C26.2643 10.17 26.4843 10.495 26.8793 10.495ZM30.8954 11H30.2604V9.54C30.2604 9.205 30.0854 9.09 29.8154 9.09C29.5654 9.09 29.3704 9.23 29.2654 9.375V11H28.6304V8.585H29.2654V8.9C29.4204 8.715 29.7154 8.525 30.1104 8.525C30.6404 8.525 30.8954 8.825 30.8954 9.295V11Z" fill="white"/>
<path d="M47.9319 11H47.4799L46.0879 9.096V11H45.6199V8.332H46.0999L47.4639 10.184V8.332H47.9319V11ZM49.3588 11.048C48.7468 11.048 48.3668 10.588 48.3668 10.032C48.3668 9.48 48.7468 9.02 49.3588 9.02C49.9788 9.02 50.3548 9.48 50.3548 10.032C50.3548 10.588 49.9788 11.048 49.3588 11.048ZM49.3588 10.676C49.7188 10.676 49.9188 10.376 49.9188 10.032C49.9188 9.692 49.7188 9.392 49.3588 9.392C49.0028 9.392 48.8028 9.692 48.8028 10.032C48.8028 10.376 49.0028 10.676 49.3588 10.676ZM50.9763 11.044C50.8243 11.044 50.6963 10.916 50.6963 10.764C50.6963 10.612 50.8243 10.484 50.9763 10.484C51.1283 10.484 51.2563 10.612 51.2563 10.764C51.2563 10.916 51.1283 11.044 50.9763 11.044ZM53.7321 11H53.2641V8.94L52.8281 9.392L52.5561 9.108L53.3241 8.332H53.7321V11ZM55.2516 11H54.7836V8.94L54.3476 9.392L54.0756 9.108L54.8436 8.332H55.2516V11ZM56.7672 11.048C56.0192 11.048 55.6992 10.34 55.6992 9.668C55.6992 8.996 56.0192 8.292 56.7672 8.292C57.5152 8.292 57.8352 8.996 57.8352 9.668C57.8352 10.34 57.5152 11.048 56.7672 11.048ZM56.7672 10.632C57.2032 10.632 57.3592 10.176 57.3592 9.668C57.3592 9.16 57.2032 8.708 56.7672 8.708C56.3312 8.708 56.1752 9.16 56.1752 9.668C56.1752 10.176 56.3312 10.632 56.7672 10.632Z" fill="white"/>
</svg>
