<svg width="63" height="88" viewBox="0 0 63 88" fill="none" xmlns="http://www.w3.org/2000/svg">
<rect width="63" height="88" rx="4" fill="#047BFF"/>
<path d="M36.7008 13.5133L44.7992 3.48665C45.5586 2.54645 46.7024 2 47.911 2H58C59.6569 2 61 3.34314 61 5V83C61 84.6569 59.6569 86 58 86H5C3.34315 86 2 84.6569 2 83V18C2 16.3431 3.34315 15 5 15H33.589C34.7976 15 35.9414 14.4536 36.7008 13.5133Z" fill="#213743"/>
<rect x="5" y="18" width="53" height="40" rx="1" fill="#2F4553"/>
<g clip-path="url(#clip0_26835_29275)">
<path d="M25.03 48.82C33.3529 48.82 40.1 47.741 40.1 46.41C40.1 45.079 33.3529 44 25.03 44C16.707 44 9.95996 45.079 9.95996 46.41C9.95996 47.741 16.707 48.82 25.03 48.82Z" fill="#1A2C38"/>
<path d="M48.02 40.9399C48.02 46.7499 41.03 48.3599 31.91 48.3599C22.79 48.3599 14.98 46.7499 14.98 40.9399C14.98 35.1299 22.38 30.4099 31.5 30.4099C40.62 30.4099 48.02 35.1199 48.02 40.9399Z" fill="white"/>
<path d="M15.6101 37.8299C15.6101 37.8299 15.1601 38.6899 15.0701 39.8199C15.0701 39.8199 17.5401 40.5199 21.0901 39.0699C25.8801 37.1199 31.9101 38.6699 31.9101 38.6699L29.4801 35.8399C29.4801 35.8399 20.8301 33.8299 20.7301 33.9299C20.6301 34.0299 15.6101 37.8199 15.6101 37.8199V37.8299Z" fill="#1A2C38"/>
<path d="M16.98 37.67C16.14 37.9 15.25 37.88 14.4 37.64C13.04 37.26 11.25 36.57 11.25 35.64C11.25 34.13 14.05 28.37 22.95 27.02C31.85 25.67 43.36 25.89 46.96 29.48C50.56 33.07 58.53 45.76 44.84 42.56C31.15 39.36 26.57 35 16.98 37.68V37.67Z" fill="#FF7F00"/>
<path d="M42.5399 30.2001C42.5399 31.6301 38.9199 32.7801 32.0599 32.7801C25.1999 32.7801 19.6399 31.6201 19.6399 30.2001C19.6399 28.7801 25.1999 27.6201 32.0599 27.6201C38.9199 27.6201 42.5399 28.7801 42.5399 30.2001Z" fill="#FFC200"/>
<path d="M50.3 38.51C50.84 39.63 50.45 41.63 45.97 41.21C41.49 40.79 33.9701 38.19 34.0801 36.99C34.1901 35.79 37.91 35.17 42.39 35.59C46.87 36.01 49.36 36.58 50.3 38.52V38.51Z" fill="#FF5500"/>
<path d="M41.34 26.99C38.72 29.1 33.99 29.76 30.54 31.09C27.76 32.16 28.38 35.72 29.03 37.81C29.81 38.02 30.61 38.26 31.42 38.52C30.72 35.96 30.04 30.99 35.62 31.31C40.56 31.59 43.25 29.44 44.51 27.95C43.59 27.56 42.52 27.24 41.34 27V26.99Z" fill="#FFEBB8"/>
<path d="M44.5 29.6197C44.5996 28.9143 42.7121 28.0644 40.2841 27.7214C37.856 27.3784 35.8069 27.6723 35.7073 28.3777C35.6076 29.0832 37.4952 29.9331 39.9232 30.276C42.3513 30.619 44.4004 30.3252 44.5 29.6197Z" fill="white"/>
<path d="M17.6299 37.5199C18.2899 37.3599 18.9199 37.2299 19.5399 37.1299C17.9099 35.5999 16.3499 31.8599 18.0499 28.4199C16.9499 28.9099 15.9899 29.4699 15.1899 30.0599C15.4099 31.9999 16.0099 34.9099 17.6299 37.5199Z" fill="#FFEBB8"/>
<path d="M25.1601 37.02C23.7601 35.44 20.9201 31.51 25.2901 29.58C28.5201 28.16 30.1901 27.07 31.0501 26.28C30.1901 26.31 29.3201 26.35 28.4501 26.41C25.9001 28.32 24.1601 28.36 22.1801 30.03C20.5501 31.41 21.9101 34.77 23.0001 36.86C23.7301 36.87 24.4501 36.92 25.1601 37.01V37.02Z" fill="#FFEBB8"/>
<path d="M51.1799 35.43C50.7899 34.66 50.3399 33.91 49.8699 33.19C47.9599 33.17 42.3899 33.24 38.6599 34.66C35.6699 35.8 35.8099 38.44 36.2699 40.12C37.0399 40.37 37.8499 40.63 38.6799 40.88C38.4999 39.92 38.5799 38.76 39.1799 37.41C40.7499 33.88 48.6299 34.98 51.1799 35.44V35.43Z" fill="#FFC200"/>
<path d="M47.61 36.31C47.64 37.06 46.69 37.71 45.5 37.75C44.31 37.79 43.32 37.22 43.29 36.46C43.26 35.7 44.23 35.62 45.42 35.58C46.61 35.54 47.58 35.56 47.61 36.31Z" fill="white"/>
<path d="M33.54 46.47C33.4 47.65 30.13 47.43 25.81 46.93C21.49 46.43 18.1 45.07 18.24 43.88C18.38 42.69 22.9 41.3 27.22 41.8C31.54 42.3 33.67 45.29 33.54 46.47Z" fill="#FFEBB8"/>
<path d="M35.8699 43.4399C35.8699 43.4399 36.2799 45.3799 38.8299 44.3199C38.8299 44.3199 37.4499 46.0699 36.1999 45.3599C34.9499 44.6499 35.8699 43.4399 35.8699 43.4399Z" fill="#FFEBB8"/>
<path d="M37.4099 45.0701C37.4099 45.0701 38.8699 46.6101 40.8399 45.5401C40.8399 45.5401 38.4599 46.1101 38.8299 44.3201L37.4099 45.0701Z" fill="#FFEBB8"/>
</g>
<path fill-rule="evenodd" clip-rule="evenodd" d="M6.49771 79C6.98969 79 7.48602 79.213 7.49037 79.6913C7.49037 80.1043 7.24656 80.2696 6.99839 80.2696C6.75023 80.2696 6.73281 80.1435 6.73281 80.1435C6.73281 80.1435 7.02452 79.9261 7.02452 79.7174C7.02452 79.6087 6.94179 79.313 6.489 79.3174C5.8577 79.3174 5.5181 79.6174 5.5181 80.1522C5.5181 80.7652 7.35105 80.9739 7.3554 81.7652C7.3554 82.613 6.47594 82.9957 5.69225 83C5.283 83 5.01306 82.7609 5.00871 82.3783C5.00871 81.9261 5.22204 81.4652 5.75756 81.4652C5.88382 81.4565 5.98831 81.5522 5.99702 81.6783C5.99702 81.6783 5.99702 81.6826 5.99702 81.687C5.99702 81.687 5.45715 81.8391 5.4615 82.3783C5.4615 82.4783 5.56599 82.6609 5.81851 82.6565C6.07103 82.6522 6.82424 82.4739 6.81989 81.8087C6.81989 81.1913 5.00435 81.1087 5 80.1478C5 79.0652 6.08845 79.0087 6.49771 79.0087V79ZM10.747 79.6C10.8123 79.5696 11.2129 79.4913 11.1955 79.813C11.1824 80.1348 10.9386 80.6913 10.9037 80.9348C11.2303 80.7696 11.6918 80.2087 11.6918 80.2087C11.6918 80.2087 12.0183 80.2522 11.9182 80.4522C11.818 80.6522 11.1519 81.1435 11.1519 81.1435C11.1519 81.1435 11.3043 82.5696 12.1707 82.5696C12.6453 82.5696 12.8499 82.3609 12.937 82.287C12.9587 82.2696 12.9762 82.2652 12.9849 82.2783C13.0197 82.387 12.9936 82.5043 12.9152 82.5913C12.8194 82.6957 12.5974 82.8217 12.1533 82.8261C11.3653 82.8261 10.9255 82.1957 10.8123 81.2609C10.7252 81.5348 10.7339 81.9826 10.7209 82.2C10.6948 82.2435 10.2507 82.4174 10.2158 82.1174C10.2158 82.0913 10.2158 82.0696 10.2158 82.0435C10.1331 82.1609 10.0199 82.2826 9.91108 82.2826C9.71951 82.2826 9.63679 82.1217 9.60196 82.0391C9.57584 82.0696 9.3625 82.287 9.08821 82.287C8.92277 82.2913 8.77474 82.1957 8.70943 82.0435C8.57011 82.1435 8.32195 82.2913 8.03895 82.2913C7.73418 82.2913 7.66017 82.1087 7.66017 81.9565C7.66017 81.713 7.84303 80.987 7.84303 80.987C7.84303 80.987 7.48602 81.1304 7.36411 81.1348C7.19431 81.1348 7.11159 80.8217 7.11159 80.813C7.11159 80.8087 7.11159 80.8 7.1203 80.8C7.22044 80.7609 7.94317 80.513 7.94317 80.513C7.94317 80.513 8.07813 79.9826 8.09555 79.913C8.11296 79.8435 8.2131 79.7 8.33065 79.6565C8.41773 79.6217 8.50916 79.6 8.60059 79.5913C8.63107 79.5913 8.65284 79.6 8.65284 79.6174C8.65284 79.6348 8.47433 80.4087 8.47433 80.4087C8.47433 80.4087 8.84876 80.3217 8.98808 80.3217C9.09692 80.3217 9.15352 80.387 9.09257 80.4696C9.03162 80.5522 8.96196 80.6478 8.92712 80.6913C8.88794 80.7348 8.86182 80.7435 8.77039 80.7609C8.64413 80.787 8.36113 80.8565 8.36113 80.8565C8.36113 80.8565 8.13473 81.6783 8.13909 81.8174C8.13909 81.8957 8.16521 81.987 8.26099 81.987C8.35678 81.987 8.53964 81.8739 8.67025 81.7913C8.69202 81.1522 9.18835 80.7261 9.57584 80.7261C9.7021 80.7261 9.65421 80.8478 9.79788 80.8478H9.88931C9.94591 80.8478 10.0069 80.8522 10.0069 80.9957C10.0069 81.1957 9.89367 81.5261 9.89367 81.7348C9.89367 81.8826 9.91544 81.987 9.97204 81.987C10.0678 81.987 10.1767 81.8478 10.255 81.7261C10.3813 81.0304 10.734 79.7609 10.734 79.6174L10.747 79.6ZM12.5016 80.7C12.7672 80.6783 12.9326 80.8217 12.9631 80.9C12.9936 80.9783 12.9892 81.1609 12.9152 81.2913C12.6845 81.7044 12.1097 81.6304 12.1097 81.6304C12.1097 81.6304 12.0444 81.9565 12.3405 81.9565C12.593 81.9565 12.7062 81.8304 12.8151 81.7261C12.8586 81.7261 12.9936 81.8652 12.9326 81.9609C12.8847 82.0348 12.6191 82.2565 12.2795 82.2609C11.7397 82.2609 11.6047 81.8 11.6744 81.4696C11.7658 81.0609 12.1751 80.7217 12.5016 80.6957V80.7ZM9.6455 80.987C9.32332 80.987 8.82699 81.9696 9.20577 81.9652C9.61938 81.9652 9.6455 81.1826 9.6455 81.0043V80.987ZM12.6409 80.8913C12.4232 80.9 12.1751 81.3174 12.1533 81.5C12.4798 81.513 12.654 81.1957 12.6757 81.0696C12.6888 80.9739 12.6932 80.887 12.6409 80.887V80.8913Z" fill="#557086"/>
<path d="M45.851 79.0672L44.2521 80.8632C44.1826 80.9428 44.1826 81.0572 44.2521 81.1368L45.846 82.9328C45.9255 83.0224 46.0695 83.0224 46.1539 82.9328L47.7478 81.1368C47.8173 81.0572 47.8173 80.9428 47.7478 80.8632L46.1539 79.0672C46.0744 78.9776 45.9304 78.9776 45.846 79.0672H45.851Z" fill="white"/>
<path d="M46.6604 79.6343L47.142 80.1766L45.568 82.6144L44.704 81.6393L46.6604 79.6343Z" fill="#8EA3B2"/>
<path d="M50.851 79.0672L49.2521 80.8632C49.1826 80.9428 49.1826 81.0572 49.2521 81.1368L50.846 82.9328C50.9255 83.0224 51.0695 83.0224 51.1539 82.9328L52.7478 81.1368C52.8173 81.0572 52.8173 80.9428 52.7478 80.8632L51.1539 79.0672C51.0744 78.9776 50.9304 78.9776 50.846 79.0672H50.851Z" fill="white"/>
<path d="M51.6604 79.6343L52.142 80.1766L50.568 82.6144L49.704 81.6393L51.6604 79.6343Z" fill="#8EA3B2"/>
<path d="M55.851 79.0672L54.2521 80.8632C54.1826 80.9428 54.1826 81.0572 54.2521 81.1368L55.846 82.9328C55.9255 83.0224 56.0695 83.0224 56.1539 82.9328L57.7478 81.1368C57.8173 81.0572 57.8173 80.9428 57.7478 80.8632L56.1539 79.0672C56.0744 78.9776 55.9304 78.9776 55.846 79.0672H55.851Z" fill="white"/>
<path d="M56.6604 79.6343L57.142 80.1766L55.568 82.6144L54.704 81.6393L56.6604 79.6343Z" fill="#8EA3B2"/>
<rect x="13" y="62" width="37" height="13" rx="6.5" fill="#2F4553"/>
<path d="M26.8779 70.072C25.7079 70.072 25.1619 69.058 25.1619 68.002C25.1619 66.946 25.7079 65.938 26.8779 65.938C28.0479 65.938 28.5939 66.946 28.5939 68.002C28.5939 69.058 28.0479 70.072 26.8779 70.072ZM26.8779 69.16C27.3579 69.16 27.5499 68.71 27.5499 68.002C27.5499 67.294 27.3579 66.85 26.8779 66.85C26.3979 66.85 26.2059 67.294 26.2059 68.002C26.2059 68.71 26.3979 69.16 26.8779 69.16ZM29.4661 70.072C29.1601 70.072 28.9021 69.814 28.9021 69.508C28.9021 69.202 29.1601 68.944 29.4661 68.944C29.7721 68.944 30.0301 69.202 30.0301 69.508C30.0301 69.814 29.7721 70.072 29.4661 70.072ZM33.6813 70H30.5433V69.196C32.2773 67.942 32.6013 67.666 32.6013 67.27C32.6013 66.994 32.3433 66.85 32.0493 66.85C31.6053 66.85 31.2693 67.018 30.9813 67.288L30.4113 66.604C30.8373 66.136 31.4733 65.938 32.0313 65.938C32.9733 65.938 33.6513 66.466 33.6513 67.27C33.6513 67.882 33.2133 68.404 32.2173 69.1H33.6813V70ZM37.0318 70H36.0178L35.4598 69.124L34.8958 70H33.8878L34.8778 68.512L33.9478 67.102H34.9618L35.4598 67.888L35.9518 67.102H36.9658L36.0418 68.512L37.0318 70Z" fill="white"/>
<path d="M6.835 11.06C5.82 11.06 5.33 10.49 5.33 9.67V7.665H6.05V9.645C6.05 10.11 6.32 10.43 6.835 10.43C7.35 10.43 7.615 10.11 7.615 9.645V7.665H8.34V9.665C8.34 10.495 7.85 11.06 6.835 11.06ZM11.247 11H10.612V9.54C10.612 9.205 10.437 9.09 10.167 9.09C9.91699 9.09 9.72199 9.23 9.61699 9.375V11H8.98199V8.585H9.61699V8.9C9.77199 8.715 10.067 8.525 10.462 8.525C10.992 8.525 11.247 8.825 11.247 9.295V11ZM13.0025 11.06C12.2575 11.06 11.7225 10.535 11.7225 9.79C11.7225 9.05 12.2575 8.525 13.0025 8.525C13.4975 8.525 13.7975 8.74 13.9575 8.96L13.5425 9.35C13.4275 9.18 13.2525 9.09 13.0325 9.09C12.6475 9.09 12.3775 9.37 12.3775 9.79C12.3775 10.21 12.6475 10.495 13.0325 10.495C13.2525 10.495 13.4275 10.395 13.5425 10.235L13.9575 10.62C13.7975 10.845 13.4975 11.06 13.0025 11.06ZM15.4926 11.06C14.6976 11.06 14.2176 10.48 14.2176 9.79C14.2176 9.105 14.6976 8.525 15.4926 8.525C16.2926 8.525 16.7726 9.105 16.7726 9.79C16.7726 10.48 16.2926 11.06 15.4926 11.06ZM15.4926 10.495C15.8876 10.495 16.1126 10.17 16.1126 9.79C16.1126 9.415 15.8876 9.09 15.4926 9.09C15.0976 9.09 14.8776 9.415 14.8776 9.79C14.8776 10.17 15.0976 10.495 15.4926 10.495ZM20.8787 11H20.2387V9.475C20.2387 9.25 20.1387 9.09 19.8787 9.09C19.6537 9.09 19.4687 9.24 19.3787 9.37V11H18.7387V9.475C18.7387 9.25 18.6387 9.09 18.3787 9.09C18.1587 9.09 17.9737 9.24 17.8787 9.375V11H17.2437V8.585H17.8787V8.9C17.9787 8.755 18.2987 8.525 18.6687 8.525C19.0237 8.525 19.2487 8.69 19.3387 8.965C19.4787 8.745 19.7987 8.525 20.1687 8.525C20.6137 8.525 20.8787 8.76 20.8787 9.255V11ZM25.1365 11H24.4965V9.475C24.4965 9.25 24.3965 9.09 24.1365 9.09C23.9115 9.09 23.7265 9.24 23.6365 9.37V11H22.9965V9.475C22.9965 9.25 22.8965 9.09 22.6365 9.09C22.4165 9.09 22.2315 9.24 22.1365 9.375V11H21.5015V8.585H22.1365V8.9C22.2365 8.755 22.5565 8.525 22.9265 8.525C23.2815 8.525 23.5065 8.69 23.5965 8.965C23.7365 8.745 24.0565 8.525 24.4265 8.525C24.8715 8.525 25.1365 8.76 25.1365 9.255V11ZM26.8793 11.06C26.0843 11.06 25.6043 10.48 25.6043 9.79C25.6043 9.105 26.0843 8.525 26.8793 8.525C27.6793 8.525 28.1593 9.105 28.1593 9.79C28.1593 10.48 27.6793 11.06 26.8793 11.06ZM26.8793 10.495C27.2743 10.495 27.4993 10.17 27.4993 9.79C27.4993 9.415 27.2743 9.09 26.8793 9.09C26.4843 9.09 26.2643 9.415 26.2643 9.79C26.2643 10.17 26.4843 10.495 26.8793 10.495ZM30.8954 11H30.2604V9.54C30.2604 9.205 30.0854 9.09 29.8154 9.09C29.5654 9.09 29.3704 9.23 29.2654 9.375V11H28.6304V8.585H29.2654V8.9C29.4204 8.715 29.7154 8.525 30.1104 8.525C30.6404 8.525 30.8954 8.825 30.8954 9.295V11Z" fill="white"/>
<path d="M48.0179 11H47.5659L46.1739 9.096V11H45.7059V8.332H46.1859L47.5499 10.184V8.332H48.0179V11ZM49.4448 11.048C48.8328 11.048 48.4528 10.588 48.4528 10.032C48.4528 9.48 48.8328 9.02 49.4448 9.02C50.0648 9.02 50.4408 9.48 50.4408 10.032C50.4408 10.588 50.0648 11.048 49.4448 11.048ZM49.4448 10.676C49.8048 10.676 50.0048 10.376 50.0048 10.032C50.0048 9.692 49.8048 9.392 49.4448 9.392C49.0888 9.392 48.8888 9.692 48.8888 10.032C48.8888 10.376 49.0888 10.676 49.4448 10.676ZM51.0622 11.044C50.9102 11.044 50.7822 10.916 50.7822 10.764C50.7822 10.612 50.9102 10.484 51.0622 10.484C51.2142 10.484 51.3422 10.612 51.3422 10.764C51.3422 10.916 51.2142 11.044 51.0622 11.044ZM53.818 11H53.35V8.94L52.914 9.392L52.642 9.108L53.41 8.332H53.818V11ZM55.3376 11H54.8696V8.94L54.4336 9.392L54.1616 9.108L54.9296 8.332H55.3376V11ZM57.7531 11H55.8211V10.632C56.8571 9.848 57.2611 9.5 57.2611 9.116C57.2611 8.836 57.0211 8.708 56.7771 8.708C56.4651 8.708 56.2251 8.836 56.0571 9.028L55.7851 8.72C56.0211 8.436 56.3971 8.292 56.7691 8.292C57.2851 8.292 57.7371 8.584 57.7371 9.116C57.7371 9.608 57.2851 10.048 56.5691 10.588H57.7531V11Z" fill="white"/>
<defs>
<clipPath id="clip0_26835_29275">
<rect width="63" height="88" fill="white"/>
</clipPath>
</defs>
</svg>
