<svg width="63" height="88" viewBox="0 0 63 88" fill="none" xmlns="http://www.w3.org/2000/svg">
<rect width="63" height="88" rx="4" fill="#047BFF"/>
<path d="M36.7008 13.5133L44.7992 3.48665C45.5586 2.54645 46.7024 2 47.911 2H58C59.6569 2 61 3.34314 61 5V83C61 84.6569 59.6569 86 58 86H5C3.34315 86 2 84.6569 2 83V18C2 16.3431 3.34315 15 5 15H33.589C34.7976 15 35.9414 14.4536 36.7008 13.5133Z" fill="#213743"/>
<rect x="5" y="18" width="53" height="40" rx="1" fill="#2F4553"/>
<g clip-path="url(#clip0_26835_29277)">
<path d="M36.3252 49.251C46.8711 49.251 55.4202 48.043 55.4202 46.553C55.4202 45.0629 46.8711 43.855 36.3252 43.855C25.7794 43.855 17.2302 45.0629 17.2302 46.553C17.2302 48.043 25.7794 49.251 36.3252 49.251Z" fill="#1A2C38"/>
<path d="M27.9368 42.8575C27.9368 42.8575 29.3428 46.8 33.3328 46.8H44.4383L37.1898 40.511L27.9368 42.8575Z" fill="#008C00"/>
<path d="M45.4166 46.9045C49.3202 46.9045 52.4846 41.9962 52.4846 35.9415C52.4846 29.8868 49.3202 24.9785 45.4166 24.9785C41.5131 24.9785 38.3486 29.8868 38.3486 35.9415C38.3486 41.9962 41.5131 46.9045 45.4166 46.9045Z" fill="#1CE61C"/>
<path d="M46.0152 43.1425C48.5021 43.1425 50.5182 39.7994 50.5182 35.6755C50.5182 31.5516 48.5021 28.2085 46.0152 28.2085C43.5283 28.2085 41.5122 31.5516 41.5122 35.6755C41.5122 39.7994 43.5283 43.1425 46.0152 43.1425Z" fill="#1A2C38"/>
<path d="M45.4167 40.9765C47.0957 40.9765 48.4567 38.7222 48.4567 35.9415C48.4567 33.1607 47.0957 30.9065 45.4167 30.9065C43.7378 30.9065 42.3767 33.1607 42.3767 35.9415C42.3767 38.7222 43.7378 40.9765 45.4167 40.9765Z" fill="#FFC200"/>
<path d="M23.5952 41.5086L41.1702 27.1731L40.0872 37.9271L43.4597 46.4771C43.4597 46.4771 41.0182 45.3846 38.5767 43.4656C36.2397 41.6226 32.0882 41.7176 24.1177 47.6646C23.6617 48.0066 23.0157 47.6931 23.0062 47.1231L22.9112 42.9716C22.9017 42.4016 23.1487 41.8601 23.5857 41.5086H23.5952Z" fill="#1CE61C"/>
<path d="M9.22166 41.2995L28.5922 25.9665C29.4092 25.3205 30.4162 24.969 31.4517 24.969H45.4167L44.1247 27.1635L24.6497 47.275L23.5952 47.9875C22.9587 48.415 22.2177 48.643 21.4482 48.643H9.46866C8.85116 48.643 8.34766 48.1395 8.34766 47.522L8.36666 43.038C8.36666 42.354 8.68016 41.7175 9.22166 41.29V41.2995Z" fill="#1CE61C"/>
<path d="M20.8688 43.437H9.89627C9.48703 43.437 9.15527 43.7688 9.15527 44.178V47.1135C9.15527 47.5228 9.48703 47.8545 9.89627 47.8545H20.8688C21.278 47.8545 21.6098 47.5228 21.6098 47.1135V44.178C21.6098 43.7688 21.278 43.437 20.8688 43.437Z" fill="#1A2C38"/>
<path d="M31.2902 32.398H22.7022C22.3317 32.398 22.1702 31.9325 22.4552 31.7045L26.2362 28.6645C26.6067 28.37 27.0627 28.2085 27.5377 28.2085H36.1257C36.4962 28.2085 36.6577 28.674 36.3727 28.902L32.5917 31.942C32.2212 32.2365 31.7652 32.398 31.2902 32.398Z" fill="#1A2C38"/>
<path d="M27.2244 29.5289L26.4074 31.1534C26.3219 31.3339 26.4454 31.5429 26.6449 31.5429H30.9674C31.0529 31.5429 31.1289 31.5144 31.1859 31.4574L33.1809 29.7379C33.4184 29.5289 33.2759 29.1394 32.9624 29.1394H27.8419C27.5854 29.1394 27.3384 29.2914 27.2244 29.5194V29.5289Z" fill="#008C00"/>
<path d="M10.6848 47.0186L12.7368 45.8501C12.9743 45.7171 13.2593 45.6696 13.5253 45.7266L20.0043 47.0186H10.6848Z" fill="#008C00"/>
<path d="M45.8729 26.6314C45.8729 27.1254 44.0014 27.5149 41.6834 27.5149C39.3654 27.5149 37.4939 27.1159 37.4939 26.6314C37.4939 26.1469 40.3629 25.5864 42.6809 25.5864C44.9989 25.5864 45.8824 26.1374 45.8824 26.6314H45.8729Z" fill="white"/>
<path d="M47.2788 38.6109C46.9083 39.6844 45.8728 40.3114 44.9703 39.9979C44.0678 39.6844 43.6308 38.5634 44.0013 37.4804C44.3718 36.3974 45.3788 36.5019 46.2813 36.8154C47.1838 37.1289 47.6493 37.5279 47.2788 38.6014V38.6109Z" fill="#FF7F00"/>
<path d="M47.0792 38.8201C47.5409 38.8201 47.9152 37.6377 47.9152 36.1791C47.9152 34.7205 47.5409 33.5381 47.0792 33.5381C46.6175 33.5381 46.2432 34.7205 46.2432 36.1791C46.2432 37.6377 46.6175 38.8201 47.0792 38.8201Z" fill="white"/>
</g>
<path fill-rule="evenodd" clip-rule="evenodd" d="M6.49771 79C6.98969 79 7.48602 79.213 7.49037 79.6913C7.49037 80.1043 7.24656 80.2696 6.99839 80.2696C6.75023 80.2696 6.73281 80.1435 6.73281 80.1435C6.73281 80.1435 7.02452 79.9261 7.02452 79.7174C7.02452 79.6087 6.94179 79.313 6.489 79.3174C5.8577 79.3174 5.5181 79.6174 5.5181 80.1522C5.5181 80.7652 7.35105 80.9739 7.3554 81.7652C7.3554 82.613 6.47594 82.9957 5.69225 83C5.283 83 5.01306 82.7609 5.00871 82.3783C5.00871 81.9261 5.22204 81.4652 5.75756 81.4652C5.88382 81.4565 5.98831 81.5522 5.99702 81.6783C5.99702 81.6783 5.99702 81.6826 5.99702 81.687C5.99702 81.687 5.45715 81.8391 5.4615 82.3783C5.4615 82.4783 5.56599 82.6609 5.81851 82.6565C6.07103 82.6522 6.82424 82.4739 6.81989 81.8087C6.81989 81.1913 5.00435 81.1087 5 80.1478C5 79.0652 6.08845 79.0087 6.49771 79.0087V79ZM10.747 79.6C10.8123 79.5696 11.2129 79.4913 11.1955 79.813C11.1824 80.1348 10.9386 80.6913 10.9037 80.9348C11.2303 80.7696 11.6918 80.2087 11.6918 80.2087C11.6918 80.2087 12.0183 80.2522 11.9182 80.4522C11.818 80.6522 11.1519 81.1435 11.1519 81.1435C11.1519 81.1435 11.3043 82.5696 12.1707 82.5696C12.6453 82.5696 12.8499 82.3609 12.937 82.287C12.9587 82.2696 12.9762 82.2652 12.9849 82.2783C13.0197 82.387 12.9936 82.5043 12.9152 82.5913C12.8194 82.6957 12.5974 82.8217 12.1533 82.8261C11.3653 82.8261 10.9255 82.1957 10.8123 81.2609C10.7252 81.5348 10.7339 81.9826 10.7209 82.2C10.6948 82.2435 10.2507 82.4174 10.2158 82.1174C10.2158 82.0913 10.2158 82.0696 10.2158 82.0435C10.1331 82.1609 10.0199 82.2826 9.91108 82.2826C9.71951 82.2826 9.63679 82.1217 9.60196 82.0391C9.57584 82.0696 9.3625 82.287 9.08821 82.287C8.92277 82.2913 8.77474 82.1957 8.70943 82.0435C8.57011 82.1435 8.32195 82.2913 8.03895 82.2913C7.73418 82.2913 7.66017 82.1087 7.66017 81.9565C7.66017 81.713 7.84303 80.987 7.84303 80.987C7.84303 80.987 7.48602 81.1304 7.36411 81.1348C7.19431 81.1348 7.11159 80.8217 7.11159 80.813C7.11159 80.8087 7.11159 80.8 7.1203 80.8C7.22044 80.7609 7.94317 80.513 7.94317 80.513C7.94317 80.513 8.07813 79.9826 8.09555 79.913C8.11296 79.8435 8.2131 79.7 8.33065 79.6565C8.41773 79.6217 8.50916 79.6 8.60059 79.5913C8.63107 79.5913 8.65284 79.6 8.65284 79.6174C8.65284 79.6348 8.47433 80.4087 8.47433 80.4087C8.47433 80.4087 8.84876 80.3217 8.98808 80.3217C9.09692 80.3217 9.15352 80.387 9.09257 80.4696C9.03162 80.5522 8.96196 80.6478 8.92712 80.6913C8.88794 80.7348 8.86182 80.7435 8.77039 80.7609C8.64413 80.787 8.36113 80.8565 8.36113 80.8565C8.36113 80.8565 8.13473 81.6783 8.13909 81.8174C8.13909 81.8957 8.16521 81.987 8.26099 81.987C8.35678 81.987 8.53964 81.8739 8.67025 81.7913C8.69202 81.1522 9.18835 80.7261 9.57584 80.7261C9.7021 80.7261 9.65421 80.8478 9.79788 80.8478H9.88931C9.94591 80.8478 10.0069 80.8522 10.0069 80.9957C10.0069 81.1957 9.89367 81.5261 9.89367 81.7348C9.89367 81.8826 9.91544 81.987 9.97204 81.987C10.0678 81.987 10.1767 81.8478 10.255 81.7261C10.3813 81.0304 10.734 79.7609 10.734 79.6174L10.747 79.6ZM12.5016 80.7C12.7672 80.6783 12.9326 80.8217 12.9631 80.9C12.9936 80.9783 12.9892 81.1609 12.9152 81.2913C12.6845 81.7044 12.1097 81.6304 12.1097 81.6304C12.1097 81.6304 12.0444 81.9565 12.3405 81.9565C12.593 81.9565 12.7062 81.8304 12.8151 81.7261C12.8586 81.7261 12.9936 81.8652 12.9326 81.9609C12.8847 82.0348 12.6191 82.2565 12.2795 82.2609C11.7397 82.2609 11.6047 81.8 11.6744 81.4696C11.7658 81.0609 12.1751 80.7217 12.5016 80.6957V80.7ZM9.6455 80.987C9.32332 80.987 8.82699 81.9696 9.20577 81.9652C9.61938 81.9652 9.6455 81.1826 9.6455 81.0043V80.987ZM12.6409 80.8913C12.4232 80.9 12.1751 81.3174 12.1533 81.5C12.4798 81.513 12.654 81.1957 12.6757 81.0696C12.6888 80.9739 12.6932 80.887 12.6409 80.887V80.8913Z" fill="#557086"/>
<path d="M45.851 79.0672L44.2521 80.8632C44.1826 80.9428 44.1826 81.0572 44.2521 81.1368L45.846 82.9328C45.9255 83.0224 46.0695 83.0224 46.1539 82.9328L47.7478 81.1368C47.8173 81.0572 47.8173 80.9428 47.7478 80.8632L46.1539 79.0672C46.0744 78.9776 45.9304 78.9776 45.846 79.0672H45.851Z" fill="white"/>
<path d="M46.6604 79.6343L47.142 80.1766L45.568 82.6144L44.704 81.6393L46.6604 79.6343Z" fill="#8EA3B2"/>
<path d="M50.851 79.0672L49.2521 80.8632C49.1826 80.9428 49.1826 81.0572 49.2521 81.1368L50.846 82.9328C50.9255 83.0224 51.0695 83.0224 51.1539 82.9328L52.7478 81.1368C52.8173 81.0572 52.8173 80.9428 52.7478 80.8632L51.1539 79.0672C51.0744 78.9776 50.9304 78.9776 50.846 79.0672H50.851Z" fill="white"/>
<path d="M51.6604 79.6343L52.142 80.1766L50.568 82.6144L49.704 81.6393L51.6604 79.6343Z" fill="#8EA3B2"/>
<path d="M55.851 79.0672L54.2521 80.8632C54.1826 80.9428 54.1826 81.0572 54.2521 81.1368L55.846 82.9328C55.9255 83.0224 56.0695 83.0224 56.1539 82.9328L57.7478 81.1368C57.8173 81.0572 57.8173 80.9428 57.7478 80.8632L56.1539 79.0672C56.0744 78.9776 55.9304 78.9776 55.846 79.0672H55.851Z" fill="white"/>
<path d="M56.6604 79.6343L57.142 80.1766L55.568 82.6144L54.704 81.6393L56.6604 79.6343Z" fill="#8EA3B2"/>
<rect x="13" y="62" width="37" height="13" rx="6.5" fill="#2F4553"/>
<path d="M26.8779 70.072C25.7079 70.072 25.1619 69.058 25.1619 68.002C25.1619 66.946 25.7079 65.938 26.8779 65.938C28.0479 65.938 28.5939 66.946 28.5939 68.002C28.5939 69.058 28.0479 70.072 26.8779 70.072ZM26.8779 69.16C27.3579 69.16 27.5499 68.71 27.5499 68.002C27.5499 67.294 27.3579 66.85 26.8779 66.85C26.3979 66.85 26.2059 67.294 26.2059 68.002C26.2059 68.71 26.3979 69.16 26.8779 69.16ZM29.4661 70.072C29.1601 70.072 28.9021 69.814 28.9021 69.508C28.9021 69.202 29.1601 68.944 29.4661 68.944C29.7721 68.944 30.0301 69.202 30.0301 69.508C30.0301 69.814 29.7721 70.072 29.4661 70.072ZM33.6813 70H30.5433V69.196C32.2773 67.942 32.6013 67.666 32.6013 67.27C32.6013 66.994 32.3433 66.85 32.0493 66.85C31.6053 66.85 31.2693 67.018 30.9813 67.288L30.4113 66.604C30.8373 66.136 31.4733 65.938 32.0313 65.938C32.9733 65.938 33.6513 66.466 33.6513 67.27C33.6513 67.882 33.2133 68.404 32.2173 69.1H33.6813V70ZM37.0318 70H36.0178L35.4598 69.124L34.8958 70H33.8878L34.8778 68.512L33.9478 67.102H34.9618L35.4598 67.888L35.9518 67.102H36.9658L36.0418 68.512L37.0318 70Z" fill="white"/>
<path d="M6.835 11.06C5.82 11.06 5.33 10.49 5.33 9.67V7.665H6.05V9.645C6.05 10.11 6.32 10.43 6.835 10.43C7.35 10.43 7.615 10.11 7.615 9.645V7.665H8.34V9.665C8.34 10.495 7.85 11.06 6.835 11.06ZM11.247 11H10.612V9.54C10.612 9.205 10.437 9.09 10.167 9.09C9.91699 9.09 9.72199 9.23 9.61699 9.375V11H8.98199V8.585H9.61699V8.9C9.77199 8.715 10.067 8.525 10.462 8.525C10.992 8.525 11.247 8.825 11.247 9.295V11ZM13.0025 11.06C12.2575 11.06 11.7225 10.535 11.7225 9.79C11.7225 9.05 12.2575 8.525 13.0025 8.525C13.4975 8.525 13.7975 8.74 13.9575 8.96L13.5425 9.35C13.4275 9.18 13.2525 9.09 13.0325 9.09C12.6475 9.09 12.3775 9.37 12.3775 9.79C12.3775 10.21 12.6475 10.495 13.0325 10.495C13.2525 10.495 13.4275 10.395 13.5425 10.235L13.9575 10.62C13.7975 10.845 13.4975 11.06 13.0025 11.06ZM15.4926 11.06C14.6976 11.06 14.2176 10.48 14.2176 9.79C14.2176 9.105 14.6976 8.525 15.4926 8.525C16.2926 8.525 16.7726 9.105 16.7726 9.79C16.7726 10.48 16.2926 11.06 15.4926 11.06ZM15.4926 10.495C15.8876 10.495 16.1126 10.17 16.1126 9.79C16.1126 9.415 15.8876 9.09 15.4926 9.09C15.0976 9.09 14.8776 9.415 14.8776 9.79C14.8776 10.17 15.0976 10.495 15.4926 10.495ZM20.8787 11H20.2387V9.475C20.2387 9.25 20.1387 9.09 19.8787 9.09C19.6537 9.09 19.4687 9.24 19.3787 9.37V11H18.7387V9.475C18.7387 9.25 18.6387 9.09 18.3787 9.09C18.1587 9.09 17.9737 9.24 17.8787 9.375V11H17.2437V8.585H17.8787V8.9C17.9787 8.755 18.2987 8.525 18.6687 8.525C19.0237 8.525 19.2487 8.69 19.3387 8.965C19.4787 8.745 19.7987 8.525 20.1687 8.525C20.6137 8.525 20.8787 8.76 20.8787 9.255V11ZM25.1365 11H24.4965V9.475C24.4965 9.25 24.3965 9.09 24.1365 9.09C23.9115 9.09 23.7265 9.24 23.6365 9.37V11H22.9965V9.475C22.9965 9.25 22.8965 9.09 22.6365 9.09C22.4165 9.09 22.2315 9.24 22.1365 9.375V11H21.5015V8.585H22.1365V8.9C22.2365 8.755 22.5565 8.525 22.9265 8.525C23.2815 8.525 23.5065 8.69 23.5965 8.965C23.7365 8.745 24.0565 8.525 24.4265 8.525C24.8715 8.525 25.1365 8.76 25.1365 9.255V11ZM26.8793 11.06C26.0843 11.06 25.6043 10.48 25.6043 9.79C25.6043 9.105 26.0843 8.525 26.8793 8.525C27.6793 8.525 28.1593 9.105 28.1593 9.79C28.1593 10.48 27.6793 11.06 26.8793 11.06ZM26.8793 10.495C27.2743 10.495 27.4993 10.17 27.4993 9.79C27.4993 9.415 27.2743 9.09 26.8793 9.09C26.4843 9.09 26.2643 9.415 26.2643 9.79C26.2643 10.17 26.4843 10.495 26.8793 10.495ZM30.8954 11H30.2604V9.54C30.2604 9.205 30.0854 9.09 29.8154 9.09C29.5654 9.09 29.3704 9.23 29.2654 9.375V11H28.6304V8.585H29.2654V8.9C29.4204 8.715 29.7154 8.525 30.1104 8.525C30.6404 8.525 30.8954 8.825 30.8954 9.295V11Z" fill="white"/>
<path d="M48.0765 11H47.6245L46.2325 9.096V11H45.7645V8.332H46.2445L47.6085 10.184V8.332H48.0765V11ZM49.5034 11.048C48.8914 11.048 48.5114 10.588 48.5114 10.032C48.5114 9.48 48.8914 9.02 49.5034 9.02C50.1234 9.02 50.4994 9.48 50.4994 10.032C50.4994 10.588 50.1234 11.048 49.5034 11.048ZM49.5034 10.676C49.8634 10.676 50.0634 10.376 50.0634 10.032C50.0634 9.692 49.8634 9.392 49.5034 9.392C49.1474 9.392 48.9474 9.692 48.9474 10.032C48.9474 10.376 49.1474 10.676 49.5034 10.676ZM51.1208 11.044C50.9688 11.044 50.8408 10.916 50.8408 10.764C50.8408 10.612 50.9688 10.484 51.1208 10.484C51.2728 10.484 51.4008 10.612 51.4008 10.764C51.4008 10.916 51.2728 11.044 51.1208 11.044ZM53.8766 11H53.4086V8.94L52.9726 9.392L52.7006 9.108L53.4686 8.332H53.8766V11ZM55.3962 11H54.9282V8.94L54.4922 9.392L54.2202 9.108L54.9882 8.332H55.3962V11ZM57.5317 11H57.0637V10.396H55.7917V10.02L56.8877 8.332H57.5317V9.984H57.8877V10.396H57.5317V11ZM57.0637 9.984V8.752L56.2517 9.984H57.0637Z" fill="white"/>
<defs>
<clipPath id="clip0_26835_29277">
<rect width="63" height="88" fill="white"/>
</clipPath>
</defs>
</svg>
