<svg width="63" height="88" viewBox="0 0 63 88" fill="none" xmlns="http://www.w3.org/2000/svg">
<rect width="63" height="88" rx="4" fill="#047BFF"/>
<path d="M36.7008 13.5133L44.7992 3.48665C45.5586 2.54645 46.7024 2 47.911 2H58C59.6569 2 61 3.34314 61 5V83C61 84.6569 59.6569 86 58 86H5C3.34315 86 2 84.6569 2 83V18C2 16.3431 3.34315 15 5 15H33.589C34.7976 15 35.9414 14.4536 36.7008 13.5133Z" fill="#213743"/>
<rect x="5" y="18" width="53" height="40" rx="1" fill="#2F4553"/>
<path d="M47.2847 37.9962C47.2847 46.8319 40.1165 54 31.2809 54C23.9694 54 17.7973 49.0804 15.8958 42.3726C15.4959 40.9842 15.2847 39.5129 15.2847 37.9962C15.2847 36.6003 15.4658 35.2497 15.7978 33.967C17.586 27.0856 23.8411 22 31.2809 22C35.8911 22 40.0411 23.9467 42.9536 27.063C44.9909 29.2209 46.4169 31.9373 46.9979 34.963C47.1866 35.9439 47.2847 36.9625 47.2847 37.9962Z" fill="#FFC201"/>
<path d="M47.2772 38.3882C46.6434 37.5884 45.8285 36.9697 44.8627 36.6151C41.3541 35.3323 37.1589 37.9959 35.4838 42.5608C33.9898 46.6353 35.016 50.8532 37.7474 52.6264C43.248 50.1892 47.1188 44.749 47.2697 38.3882H47.2772Z" fill="#FF7F00"/>
<path d="M38.5434 28.8658C39.0848 27.3865 38.1055 25.6684 36.3562 25.0283C34.6069 24.3881 32.75 25.0684 32.2087 26.5476C31.6674 28.0269 32.6466 29.745 34.3959 30.3852C36.1452 31.0253 38.0021 30.3451 38.5434 28.8658Z" fill="#FF7F00"/>
<path d="M23.3658 30.0206C24.245 30.0206 24.9578 29.3078 24.9578 28.4285C24.9578 27.5492 24.245 26.8364 23.3658 26.8364C22.4865 26.8364 21.7737 27.5492 21.7737 28.4285C21.7737 29.3078 22.4865 30.0206 23.3658 30.0206Z" fill="#FF7F00"/>
<path d="M26.8901 48.2489C29.3112 46.5555 29.6979 42.9294 27.7537 40.1497C25.8095 37.3701 22.2707 36.4895 19.8496 38.1829C17.4285 39.8763 17.0419 43.5024 18.9861 46.2821C20.9302 49.0617 24.469 49.9423 26.8901 48.2489Z" fill="#FF7F00"/>
<path d="M46.9979 34.9629C46.9074 35.3024 46.8319 35.574 46.7188 35.7023C46.5452 35.8909 45.6322 35.7627 44.5683 35.7099C44.4853 35.7099 44.3948 35.7023 44.3118 35.7023C44.2439 35.6948 44.1835 35.6948 44.1156 35.6948H43.6553C43.5723 35.6948 43.4893 35.6948 43.4063 35.7023C43.3384 35.7023 43.2705 35.7099 43.2026 35.7099C43.1196 35.7174 43.0366 35.7249 42.9536 35.7325C42.8932 35.74 42.8253 35.7476 42.765 35.7551C42.682 35.7702 42.599 35.7853 42.516 35.8004C42.4556 35.8079 42.3953 35.823 42.3349 35.8381C42.2594 35.8532 42.1764 35.8759 42.101 35.8985C42.0482 35.9211 41.9954 35.9287 41.9425 35.9513C41.8595 35.9815 41.7841 36.0192 41.7011 36.0569C41.6634 36.072 41.6181 36.0871 41.5804 36.1098C41.4672 36.1701 41.3615 36.238 41.2634 36.3135C41.1654 36.404 41.0748 36.487 40.9843 36.5776C40.9616 36.6078 40.939 36.6379 40.9088 36.6606C40.856 36.7285 40.7956 36.7889 40.7504 36.8568C40.7202 36.8869 40.6975 36.9247 40.6749 36.9548C40.6296 37.0228 40.5844 37.0907 40.5466 37.1586C40.524 37.1888 40.5089 37.2189 40.4863 37.2491C40.4485 37.3246 40.4108 37.4 40.3731 37.4755C39.8751 38.5092 39.8977 39.6108 39.4903 40.0107C39.03 40.4559 36.3589 39.807 34.3745 41.4142C33.9972 42.9761 33.4162 44.1305 32.9635 44.2437C32.4957 44.3569 31.5073 43.625 30.5037 42.463C27.9232 41.8594 25.7879 43.7759 25.1616 43.5872C24.6032 43.4212 24.0901 42.3951 23.1168 41.716C23.0866 41.6934 23.0489 41.6707 23.0187 41.6481C22.8678 41.55 22.7169 41.467 22.5433 41.384C22.5132 41.384 22.483 41.3614 22.4452 41.3463C22.2642 41.2708 22.068 41.2104 21.8567 41.1652C21.736 41.1425 21.6077 41.1275 21.4794 41.1275C21.4342 41.1275 21.3889 41.135 21.3436 41.135C21.2606 41.1425 21.1776 41.1425 21.0871 41.1576C21.0343 41.1652 20.9814 41.1803 20.9286 41.1878C20.8456 41.2029 20.7626 41.218 20.6872 41.2406C20.6268 41.2557 20.5664 41.2784 20.5061 41.2934C20.4306 41.3236 20.3552 41.3463 20.2722 41.3764C20.2118 41.3991 20.1514 41.4217 20.0911 41.4444C20.0156 41.4745 19.9402 41.5047 19.8647 41.5424C19.8044 41.5726 19.744 41.5953 19.6836 41.6254C19.6006 41.6632 19.5252 41.7009 19.4497 41.7386C19.3894 41.7688 19.3365 41.799 19.2762 41.8292C19.2007 41.8744 19.1253 41.9122 19.0498 41.9574C18.997 41.9876 18.9366 42.0178 18.8838 42.048C18.8084 42.0933 18.7329 42.1385 18.6575 42.1838C17.7445 42.7271 16.9975 43.2703 16.756 43.1873C16.5447 43.1043 16.2656 42.7648 15.8958 42.3724C15.4959 40.9841 15.2847 39.5127 15.2847 37.9961C15.2847 36.6002 15.4658 35.2496 15.7978 33.9669C17.4728 32.5861 19.0649 31.5071 20.0383 31.3788C22.6867 31.0242 25.6973 37.0077 27.7119 37.4679C27.7044 37.4528 27.7044 37.4453 27.6968 37.4302C27.6289 37.1661 27.6063 36.902 27.6063 36.6455C27.3875 35.8909 26.8593 33.9291 27.0102 33.4613C27.1536 32.986 28.2778 33.7254 28.7306 34.0499C29.1154 33.6952 29.5756 33.4312 30.0963 33.2727L29.7567 33.0388C29.7567 33.0388 29.7039 32.9709 29.7115 32.9256C29.719 32.8803 29.7416 32.8502 29.7869 32.8351L30.2019 32.6766L29.8925 32.4427C29.7794 32.488 29.6511 32.4276 29.6058 32.3144C29.5605 32.2013 29.6209 32.073 29.7341 32.0277C29.8473 31.9824 29.9755 32.0428 30.0208 32.156C30.0284 32.1862 30.0208 32.2088 30.0208 32.239L30.5188 32.6238C30.5188 32.6238 30.5641 32.6917 30.5565 32.737C30.5565 32.7747 30.5264 32.8124 30.4811 32.8275L30.0812 32.9784L30.3905 33.1897C30.9942 33.069 31.5827 33.0992 32.1335 33.2652C32.292 32.8652 32.7372 31.8693 33.0541 32.1032C33.3483 32.3144 33.7407 33.8009 33.9218 34.5479C34.1632 34.8874 34.3443 35.2722 34.465 35.7099C35.9213 34.1631 35.8232 27.7344 38.2755 26.8214C39.1507 26.4969 40.939 26.6629 42.9536 27.0628C44.9909 29.2208 46.4169 31.9372 46.9979 34.9629Z" fill="#1A2C38"/>
<path d="M34.9782 38.8109C37.1286 38.2752 36.7136 29.9526 39.6261 28.8661C42.5387 27.7796 54.7471 31.7484 54.7471 32.4577C54.7471 33.167 51.5931 33.8385 50.3481 34.9703C49.1031 36.1021 49.1409 38.0413 48.7561 38.4638C48.3712 38.8864 44.4703 37.8225 42.8631 39.1278C41.2559 40.4332 41.5578 42.5157 40.9466 43.1193C40.3354 43.723 36.0647 42.5006 34.0652 46.3186L34.9782 38.8109Z" fill="#047BFF"/>
<path d="M28.6929 40.3805C26.5425 40.9162 22.9962 33.3784 19.9176 33.7934C16.8391 34.2084 7.92801 43.4439 8.26001 44.0702C8.59201 44.6965 11.6932 43.8061 13.323 44.2211C14.9528 44.6361 15.8356 46.364 16.3713 46.5526C16.907 46.7413 19.8497 43.9646 21.8794 44.372C23.9091 44.7719 24.626 46.7488 25.4484 46.9903C26.2709 47.2317 29.4626 44.1457 33.024 46.5753L28.6854 40.3805H28.6929Z" fill="#047BFF"/>
<path d="M20.4382 38.4036C21.2078 38.3131 22.7773 43.127 23.3734 45.0511C22.9659 44.7417 22.483 44.4852 21.8869 44.372C20.8004 44.1532 19.4497 44.8549 18.3406 45.5189C18.7329 43.3534 19.6912 38.4941 20.4382 38.4036Z" fill="#45A7FF"/>
<path d="M16.3109 39.9428C16.8089 40.2371 15.6242 43.4967 14.9678 45.1869C14.5226 44.7719 13.9869 44.387 13.3229 44.2211C12.3118 43.9645 10.7348 44.2135 9.60303 44.2814C11.1876 43.0591 15.7601 39.6108 16.3109 39.9428Z" fill="#45A7FF"/>
<path d="M31.0774 36.0041C31.0774 36.0041 31.0246 36.0041 31.002 35.9815L30.4285 35.5816C30.3908 35.5514 30.3682 35.5061 30.3757 35.4608C30.3757 35.4156 30.4134 35.3779 30.4587 35.3552L30.9114 35.1892L30.4738 34.8497C30.421 34.8044 30.4059 34.7289 30.4512 34.6686C30.4964 34.6158 30.5719 34.6007 30.6323 34.6459L31.251 35.1289C31.251 35.1289 31.3038 35.2043 31.2963 35.2496C31.2963 35.2949 31.2585 35.3326 31.2133 35.3477L30.7756 35.5061L31.1453 35.7627C31.2057 35.8004 31.2208 35.8834 31.1755 35.9362C31.1529 35.9664 31.1152 35.989 31.0774 35.989V36.0041Z" fill="#45A7FF"/>
<path d="M30.4812 34.9553C30.6145 34.9553 30.7227 34.8472 30.7227 34.7139C30.7227 34.5805 30.6145 34.4724 30.4812 34.4724C30.3478 34.4724 30.2397 34.5805 30.2397 34.7139C30.2397 34.8472 30.3478 34.9553 30.4812 34.9553Z" fill="#45A7FF"/>
<path d="M35.0312 37.6716C35.0312 37.6716 34.4124 34.8798 33.9824 34.5705C33.5523 34.2611 32.9185 36.0041 32.9185 36.0041C32.9185 36.0041 34.0427 37.732 35.0312 37.6716Z" fill="#45A7FF"/>
<path d="M28.1874 39.8072C28.1874 39.8072 27.2518 36.6758 27.4479 36.042C27.6441 35.4082 29.5229 36.8343 29.5229 36.8343C29.5229 36.8343 28.9872 39.7317 28.1798 39.8072H28.1874Z" fill="#45A7FF"/>
<path d="M30.9792 35.7703C28.9495 36.2608 27.6969 38.3056 28.2025 40.3277C29.1155 43.9797 32.8127 47.9637 33.8917 47.692C34.9179 47.4355 36.5024 42.3801 35.5441 38.547C35.016 36.4268 33.0089 35.2723 30.9867 35.7703H30.9792Z" fill="#45A7FF"/>
<path d="M32.5108 37.3248C32.7749 37.4455 32.9937 37.6191 33.1597 37.8228C33.0692 37.4078 32.7749 37.0305 32.3373 36.8268C31.6205 36.4873 30.7905 36.7513 30.4811 37.4078C30.4283 37.521 30.3906 37.6417 30.3755 37.7624C30.8358 37.1588 31.7261 36.9551 32.5033 37.3248H32.5108Z" fill="#047BFF"/>
<path d="M31.8621 40.8183C32.7497 40.8183 33.4692 40.0988 33.4692 39.2112C33.4692 38.3236 32.7497 37.604 31.8621 37.604C30.9744 37.604 30.2549 38.3236 30.2549 39.2112C30.2549 40.0988 30.9744 40.8183 31.8621 40.8183Z" fill="#45A7FF"/>
<path d="M31.6885 40.6523C32.5761 40.6523 33.2956 39.9328 33.2956 39.0452C33.2956 38.1575 32.5761 37.438 31.6885 37.438C30.8009 37.438 30.0813 38.1575 30.0813 39.0452C30.0813 39.9328 30.8009 40.6523 31.6885 40.6523Z" fill="#047BFF"/>
<path d="M31.5827 40.3957C32.387 40.3957 33.039 39.7437 33.039 38.9394C33.039 38.1351 32.387 37.4832 31.5827 37.4832C30.7785 37.4832 30.1265 38.1351 30.1265 38.9394C30.1265 39.7437 30.7785 40.3957 31.5827 40.3957Z" fill="#1A2C38"/>
<path d="M31.7487 39.3395C32.0238 39.3395 32.2467 39.1165 32.2467 38.8415C32.2467 38.5665 32.0238 38.3435 31.7487 38.3435C31.4737 38.3435 31.2507 38.5665 31.2507 38.8415C31.2507 39.1165 31.4737 39.3395 31.7487 39.3395Z" fill="white"/>
<path d="M31.2961 39.9053C31.4002 39.9053 31.4847 39.8209 31.4847 39.7167C31.4847 39.6125 31.4002 39.5281 31.2961 39.5281C31.1919 39.5281 31.1074 39.6125 31.1074 39.7167C31.1074 39.8209 31.1919 39.9053 31.2961 39.9053Z" fill="white"/>
<path d="M41.3391 33.1821C40.6223 33.4613 41.4975 38.4488 41.8748 40.4257C42.0861 39.9655 42.3954 39.5127 42.8708 39.1204C43.731 38.4186 45.2551 38.4036 46.5378 38.4715C45.1721 36.7511 42.0408 32.9105 41.3391 33.1821Z" fill="#45A7FF"/>
<path d="M45.7078 32.6012C45.4135 33.0992 47.9865 35.4081 49.3522 36.6003C49.5484 36.0268 49.8427 35.4307 50.3482 34.9705C51.1178 34.2687 52.6269 33.7406 53.6606 33.2728C51.6913 32.9408 46.0323 32.0429 45.7003 32.5937L45.7078 32.6012Z" fill="#45A7FF"/>
<path fill-rule="evenodd" clip-rule="evenodd" d="M6.49771 79C6.98969 79 7.48602 79.213 7.49037 79.6913C7.49037 80.1043 7.24656 80.2696 6.99839 80.2696C6.75023 80.2696 6.73281 80.1435 6.73281 80.1435C6.73281 80.1435 7.02452 79.9261 7.02452 79.7174C7.02452 79.6087 6.94179 79.313 6.489 79.3174C5.8577 79.3174 5.5181 79.6174 5.5181 80.1522C5.5181 80.7652 7.35105 80.9739 7.3554 81.7652C7.3554 82.613 6.47594 82.9957 5.69225 83C5.283 83 5.01306 82.7609 5.00871 82.3783C5.00871 81.9261 5.22204 81.4652 5.75756 81.4652C5.88382 81.4565 5.98831 81.5522 5.99702 81.6783C5.99702 81.6783 5.99702 81.6826 5.99702 81.687C5.99702 81.687 5.45715 81.8391 5.4615 82.3783C5.4615 82.4783 5.56599 82.6609 5.81851 82.6565C6.07103 82.6522 6.82424 82.4739 6.81989 81.8087C6.81989 81.1913 5.00435 81.1087 5 80.1478C5 79.0652 6.08845 79.0087 6.49771 79.0087V79ZM10.747 79.6C10.8123 79.5696 11.2129 79.4913 11.1955 79.813C11.1824 80.1348 10.9386 80.6913 10.9037 80.9348C11.2303 80.7696 11.6918 80.2087 11.6918 80.2087C11.6918 80.2087 12.0183 80.2522 11.9182 80.4522C11.818 80.6522 11.1519 81.1435 11.1519 81.1435C11.1519 81.1435 11.3043 82.5696 12.1707 82.5696C12.6453 82.5696 12.8499 82.3609 12.937 82.287C12.9587 82.2696 12.9762 82.2652 12.9849 82.2783C13.0197 82.387 12.9936 82.5043 12.9152 82.5913C12.8194 82.6957 12.5974 82.8217 12.1533 82.8261C11.3653 82.8261 10.9255 82.1957 10.8123 81.2609C10.7252 81.5348 10.7339 81.9826 10.7209 82.2C10.6948 82.2435 10.2507 82.4174 10.2158 82.1174C10.2158 82.0913 10.2158 82.0696 10.2158 82.0435C10.1331 82.1609 10.0199 82.2826 9.91108 82.2826C9.71951 82.2826 9.63679 82.1217 9.60196 82.0391C9.57584 82.0696 9.3625 82.287 9.08821 82.287C8.92277 82.2913 8.77474 82.1957 8.70943 82.0435C8.57011 82.1435 8.32195 82.2913 8.03895 82.2913C7.73418 82.2913 7.66017 82.1087 7.66017 81.9565C7.66017 81.713 7.84303 80.987 7.84303 80.987C7.84303 80.987 7.48602 81.1304 7.36411 81.1348C7.19431 81.1348 7.11159 80.8217 7.11159 80.813C7.11159 80.8087 7.11159 80.8 7.1203 80.8C7.22044 80.7609 7.94317 80.513 7.94317 80.513C7.94317 80.513 8.07813 79.9826 8.09555 79.913C8.11296 79.8435 8.2131 79.7 8.33065 79.6565C8.41773 79.6217 8.50916 79.6 8.60059 79.5913C8.63107 79.5913 8.65284 79.6 8.65284 79.6174C8.65284 79.6348 8.47433 80.4087 8.47433 80.4087C8.47433 80.4087 8.84876 80.3217 8.98808 80.3217C9.09692 80.3217 9.15352 80.387 9.09257 80.4696C9.03162 80.5522 8.96196 80.6478 8.92712 80.6913C8.88794 80.7348 8.86182 80.7435 8.77039 80.7609C8.64413 80.787 8.36113 80.8565 8.36113 80.8565C8.36113 80.8565 8.13473 81.6783 8.13909 81.8174C8.13909 81.8957 8.16521 81.987 8.26099 81.987C8.35678 81.987 8.53964 81.8739 8.67025 81.7913C8.69202 81.1522 9.18835 80.7261 9.57584 80.7261C9.7021 80.7261 9.65421 80.8478 9.79788 80.8478H9.88931C9.94591 80.8478 10.0069 80.8522 10.0069 80.9957C10.0069 81.1957 9.89367 81.5261 9.89367 81.7348C9.89367 81.8826 9.91544 81.987 9.97204 81.987C10.0678 81.987 10.1767 81.8478 10.255 81.7261C10.3813 81.0304 10.734 79.7609 10.734 79.6174L10.747 79.6ZM12.5016 80.7C12.7672 80.6783 12.9326 80.8217 12.9631 80.9C12.9936 80.9783 12.9892 81.1609 12.9152 81.2913C12.6845 81.7044 12.1097 81.6304 12.1097 81.6304C12.1097 81.6304 12.0444 81.9565 12.3405 81.9565C12.593 81.9565 12.7062 81.8304 12.8151 81.7261C12.8586 81.7261 12.9936 81.8652 12.9326 81.9609C12.8847 82.0348 12.6191 82.2565 12.2795 82.2609C11.7397 82.2609 11.6047 81.8 11.6744 81.4696C11.7658 81.0609 12.1751 80.7217 12.5016 80.6957V80.7ZM9.6455 80.987C9.32332 80.987 8.82699 81.9696 9.20577 81.9652C9.61938 81.9652 9.6455 81.1826 9.6455 81.0043V80.987ZM12.6409 80.8913C12.4232 80.9 12.1751 81.3174 12.1533 81.5C12.4798 81.513 12.654 81.1957 12.6757 81.0696C12.6888 80.9739 12.6932 80.887 12.6409 80.887V80.8913Z" fill="#557086"/>
<path d="M45.851 79.0672L44.2521 80.8632C44.1826 80.9428 44.1826 81.0572 44.2521 81.1368L45.846 82.9328C45.9255 83.0224 46.0695 83.0224 46.1539 82.9328L47.7478 81.1368C47.8173 81.0572 47.8173 80.9428 47.7478 80.8632L46.1539 79.0672C46.0744 78.9776 45.9304 78.9776 45.846 79.0672H45.851Z" fill="white"/>
<path d="M46.6604 79.6343L47.142 80.1766L45.568 82.6144L44.704 81.6393L46.6604 79.6343Z" fill="#8EA3B2"/>
<path d="M50.851 79.0672L49.2521 80.8632C49.1826 80.9428 49.1826 81.0572 49.2521 81.1368L50.846 82.9328C50.9255 83.0224 51.0695 83.0224 51.1539 82.9328L52.7478 81.1368C52.8173 81.0572 52.8173 80.9428 52.7478 80.8632L51.1539 79.0672C51.0744 78.9776 50.9304 78.9776 50.846 79.0672H50.851Z" fill="white"/>
<path d="M51.6604 79.6343L52.142 80.1766L50.568 82.6144L49.704 81.6393L51.6604 79.6343Z" fill="#8EA3B2"/>
<path d="M55.851 79.0672L54.2521 80.8632C54.1826 80.9428 54.1826 81.0572 54.2521 81.1368L55.846 82.9328C55.9255 83.0224 56.0695 83.0224 56.1539 82.9328L57.7478 81.1368C57.8173 81.0572 57.8173 80.9428 57.7478 80.8632L56.1539 79.0672C56.0744 78.9776 55.9304 78.9776 55.846 79.0672H55.851Z" fill="white"/>
<path d="M56.6604 79.6343L57.142 80.1766L55.568 82.6144L54.704 81.6393L56.6604 79.6343Z" fill="#8EA3B2"/>
<rect x="13" y="62" width="37" height="13" rx="6.5" fill="#2F4553"/>
<path d="M26.8779 70.072C25.7079 70.072 25.1619 69.058 25.1619 68.002C25.1619 66.946 25.7079 65.938 26.8779 65.938C28.0479 65.938 28.5939 66.946 28.5939 68.002C28.5939 69.058 28.0479 70.072 26.8779 70.072ZM26.8779 69.16C27.3579 69.16 27.5499 68.71 27.5499 68.002C27.5499 67.294 27.3579 66.85 26.8779 66.85C26.3979 66.85 26.2059 67.294 26.2059 68.002C26.2059 68.71 26.3979 69.16 26.8779 69.16ZM29.4661 70.072C29.1601 70.072 28.9021 69.814 28.9021 69.508C28.9021 69.202 29.1601 68.944 29.4661 68.944C29.7721 68.944 30.0301 69.202 30.0301 69.508C30.0301 69.814 29.7721 70.072 29.4661 70.072ZM33.6813 70H30.5433V69.196C32.2773 67.942 32.6013 67.666 32.6013 67.27C32.6013 66.994 32.3433 66.85 32.0493 66.85C31.6053 66.85 31.2693 67.018 30.9813 67.288L30.4113 66.604C30.8373 66.136 31.4733 65.938 32.0313 65.938C32.9733 65.938 33.6513 66.466 33.6513 67.27C33.6513 67.882 33.2133 68.404 32.2173 69.1H33.6813V70ZM37.0318 70H36.0178L35.4598 69.124L34.8958 70H33.8878L34.8778 68.512L33.9478 67.102H34.9618L35.4598 67.888L35.9518 67.102H36.9658L36.0418 68.512L37.0318 70Z" fill="white"/>
<path d="M6.835 11.06C5.82 11.06 5.33 10.49 5.33 9.67V7.665H6.05V9.645C6.05 10.11 6.32 10.43 6.835 10.43C7.35 10.43 7.615 10.11 7.615 9.645V7.665H8.34V9.665C8.34 10.495 7.85 11.06 6.835 11.06ZM11.247 11H10.612V9.54C10.612 9.205 10.437 9.09 10.167 9.09C9.91699 9.09 9.72199 9.23 9.61699 9.375V11H8.98199V8.585H9.61699V8.9C9.77199 8.715 10.067 8.525 10.462 8.525C10.992 8.525 11.247 8.825 11.247 9.295V11ZM13.0025 11.06C12.2575 11.06 11.7225 10.535 11.7225 9.79C11.7225 9.05 12.2575 8.525 13.0025 8.525C13.4975 8.525 13.7975 8.74 13.9575 8.96L13.5425 9.35C13.4275 9.18 13.2525 9.09 13.0325 9.09C12.6475 9.09 12.3775 9.37 12.3775 9.79C12.3775 10.21 12.6475 10.495 13.0325 10.495C13.2525 10.495 13.4275 10.395 13.5425 10.235L13.9575 10.62C13.7975 10.845 13.4975 11.06 13.0025 11.06ZM15.4926 11.06C14.6976 11.06 14.2176 10.48 14.2176 9.79C14.2176 9.105 14.6976 8.525 15.4926 8.525C16.2926 8.525 16.7726 9.105 16.7726 9.79C16.7726 10.48 16.2926 11.06 15.4926 11.06ZM15.4926 10.495C15.8876 10.495 16.1126 10.17 16.1126 9.79C16.1126 9.415 15.8876 9.09 15.4926 9.09C15.0976 9.09 14.8776 9.415 14.8776 9.79C14.8776 10.17 15.0976 10.495 15.4926 10.495ZM20.8787 11H20.2387V9.475C20.2387 9.25 20.1387 9.09 19.8787 9.09C19.6537 9.09 19.4687 9.24 19.3787 9.37V11H18.7387V9.475C18.7387 9.25 18.6387 9.09 18.3787 9.09C18.1587 9.09 17.9737 9.24 17.8787 9.375V11H17.2437V8.585H17.8787V8.9C17.9787 8.755 18.2987 8.525 18.6687 8.525C19.0237 8.525 19.2487 8.69 19.3387 8.965C19.4787 8.745 19.7987 8.525 20.1687 8.525C20.6137 8.525 20.8787 8.76 20.8787 9.255V11ZM25.1365 11H24.4965V9.475C24.4965 9.25 24.3965 9.09 24.1365 9.09C23.9115 9.09 23.7265 9.24 23.6365 9.37V11H22.9965V9.475C22.9965 9.25 22.8965 9.09 22.6365 9.09C22.4165 9.09 22.2315 9.24 22.1365 9.375V11H21.5015V8.585H22.1365V8.9C22.2365 8.755 22.5565 8.525 22.9265 8.525C23.2815 8.525 23.5065 8.69 23.5965 8.965C23.7365 8.745 24.0565 8.525 24.4265 8.525C24.8715 8.525 25.1365 8.76 25.1365 9.255V11ZM26.8793 11.06C26.0843 11.06 25.6043 10.48 25.6043 9.79C25.6043 9.105 26.0843 8.525 26.8793 8.525C27.6793 8.525 28.1593 9.105 28.1593 9.79C28.1593 10.48 27.6793 11.06 26.8793 11.06ZM26.8793 10.495C27.2743 10.495 27.4993 10.17 27.4993 9.79C27.4993 9.415 27.2743 9.09 26.8793 9.09C26.4843 9.09 26.2643 9.415 26.2643 9.79C26.2643 10.17 26.4843 10.495 26.8793 10.495ZM30.8954 11H30.2604V9.54C30.2604 9.205 30.0854 9.09 29.8154 9.09C29.5654 9.09 29.3704 9.23 29.2654 9.375V11H28.6304V8.585H29.2654V8.9C29.4204 8.715 29.7154 8.525 30.1104 8.525C30.6404 8.525 30.8954 8.825 30.8954 9.295V11Z" fill="white"/>
<path d="M47.9983 11H47.5463L46.1543 9.096V11H45.6863V8.332H46.1663L47.5303 10.184V8.332H47.9983V11ZM49.4253 11.048C48.8133 11.048 48.4333 10.588 48.4333 10.032C48.4333 9.48 48.8133 9.02 49.4253 9.02C50.0453 9.02 50.4213 9.48 50.4213 10.032C50.4213 10.588 50.0453 11.048 49.4253 11.048ZM49.4253 10.676C49.7853 10.676 49.9853 10.376 49.9853 10.032C49.9853 9.692 49.7853 9.392 49.4253 9.392C49.0693 9.392 48.8692 9.692 48.8692 10.032C48.8692 10.376 49.0693 10.676 49.4253 10.676ZM51.0427 11.044C50.8907 11.044 50.7627 10.916 50.7627 10.764C50.7627 10.612 50.8907 10.484 51.0427 10.484C51.1947 10.484 51.3227 10.612 51.3227 10.764C51.3227 10.916 51.1947 11.044 51.0427 11.044ZM53.7985 11H53.3305V8.94L52.8945 9.392L52.6225 9.108L53.3905 8.332H53.7985V11ZM55.318 11H54.85V8.94L54.414 9.392L54.142 9.108L54.91 8.332H55.318V11ZM56.8176 11.048C56.3576 11.048 56.0416 10.892 55.8256 10.636L56.0936 10.316C56.2736 10.52 56.5136 10.632 56.8136 10.632C57.1496 10.632 57.3616 10.424 57.3616 10.164C57.3616 9.876 57.1536 9.688 56.8256 9.688C56.5976 9.688 56.4096 9.76 56.2416 9.92L55.9096 9.824V8.332H57.6576V8.744H56.3776V9.516C56.5056 9.388 56.7256 9.284 56.9816 9.284C57.4296 9.284 57.8336 9.6 57.8336 10.144C57.8336 10.7 57.4136 11.048 56.8176 11.048Z" fill="white"/>
</svg>
