<svg width="63" height="88" viewBox="0 0 63 88" fill="none" xmlns="http://www.w3.org/2000/svg">
<rect width="63" height="88" rx="4" fill="#047BFF"/>
<path d="M36.7008 13.5133L44.7992 3.48665C45.5586 2.54645 46.7024 2 47.911 2H58C59.6569 2 61 3.34314 61 5V83C61 84.6569 59.6569 86 58 86H5C3.34315 86 2 84.6569 2 83V18C2 16.3431 3.34315 15 5 15H33.589C34.7976 15 35.9414 14.4536 36.7008 13.5133Z" fill="#213743"/>
<rect x="5" y="18" width="53" height="40" rx="1" fill="#2F4553"/>
<g clip-path="url(#clip0_26835_29279)">
<path d="M40.12 51.9401C49.4205 51.9401 56.96 51.0223 56.96 49.8901C56.96 48.7579 49.4205 47.8401 40.12 47.8401C30.8196 47.8401 23.28 48.7579 23.28 49.8901C23.28 51.0223 30.8196 51.9401 40.12 51.9401Z" fill="#1A2C38"/>
<path d="M24.53 24.3301C25.02 24.1001 25.52 24.6001 25.3 25.0901C24.56 26.7301 24.1 28.8001 26.82 30.2901C26.82 30.2901 28.24 31.6501 27.23 33.0701C26.22 34.4901 24 35.0701 22.96 34.3301C21.99 33.6501 18.52 27.1301 24.53 24.3401V24.3301Z" fill="white"/>
<path d="M51.37 49.22C51.31 49.48 50.92 49.69 49.99 49.41C49.58 49.29 47.09 47.53 42.78 46.31C37.49 44.81 29.44 43.6 19.09 40.86C22 30.43 27.57 23.61 39.48 26.57C39.48 26.57 39.49 26.57 39.5 26.57C39.87 26.66 40.24 26.76 40.62 26.87C52.8 30.41 53.64 39.83 51.37 49.2V49.22Z" fill="#45A7FF"/>
<path d="M37.45 38.2901C37.2 40.2701 34.15 39.1301 30.28 38.6401C26.41 38.1501 23.18 38.5101 23.43 36.5301C23.68 34.5501 26.28 31.5101 30.15 31.9901C34.02 32.4701 37.7 36.3101 37.45 38.2901Z" fill="#047BFF"/>
<path d="M39.14 27.85C39.14 28.58 37.13 28.39 34.65 28.39C32.17 28.39 30.16 28.58 30.16 27.85C30.16 27.12 32.17 26.54 34.65 26.54C37.13 26.54 39.14 27.13 39.14 27.85Z" fill="white"/>
<path d="M17.22 48.8099C14.74 49.9999 12.16 50.1399 10.73 49.5399C9.76 49.1299 9.05 47.9799 8.96 47.4299C8.87 46.8999 11.85 45.7899 14.34 45.6099C16.83 45.4199 17.12 48.2599 17.22 48.8199V48.8099Z" fill="#1A2C38"/>
<path d="M51.6601 49.7301C51.6001 49.9901 50.9201 50.1701 49.9901 49.8901C49.5801 49.7701 43.3501 47.8701 39.0401 46.6501C38.8401 45.6901 42.3701 45.3401 42.1501 44.2301C46.1901 44.8801 45.9601 42.9301 46.5701 40.1201C48.0701 33.1801 46.4701 28.6201 39.5001 26.5801C39.8701 26.6701 40.2401 26.7801 40.6201 26.8801C53.2101 30.2801 53.9301 40.3601 51.6601 49.7301Z" fill="#047BFF"/>
<path d="M51.18 49.5401C51.02 50.0901 44.3 47.6701 35.47 44.9101C26.64 42.1501 27.71 42.3601 27.88 41.8101C28.05 41.2701 28.01 39.6901 36.84 42.4501C45.67 45.2101 51.65 47.9501 51.17 49.5401H51.18Z" fill="#1A2C38"/>
<path d="M9.28999 46.83C10.3 45.8 15.07 43.16 18.67 41.42C22.27 39.68 31.42 40 42.15 44.24C38.51 47.93 30.33 57.08 17.76 49.64C12.58 46.57 10.17 46.38 9.08999 47.2C8.84999 47.42 8.99999 47.09 9.28999 46.83Z" fill="white"/>
<path d="M9.03996 46.52C8.89996 46.78 8.85996 47.1 8.96996 47.49C8.96996 47.44 8.96996 47.36 9.02996 47.26C9.14996 47.04 10.25 46.27 10.46 46.01C10.07 45.98 9.18996 46.23 9.03996 46.52Z" fill="white"/>
<path d="M41.1599 43.82C37.7899 47.21 30.6599 55.82 18.0999 48.38C13.8999 45.9 11.2099 45.6 9.91994 46.23C9.64994 46.36 9.16994 46.71 9.02994 46.9C8.78994 47.12 9.00994 46.43 9.29994 46.18C10.3099 45.15 16.0299 41.95 19.5799 40.09C21.1299 39.28 28.5699 40.07 35.2499 41.85C37.5899 42.47 39.2999 42.99 41.1699 43.82H41.1599Z" fill="#1CE61C"/>
<path d="M48.67 36.7001C48.07 37.7401 45.88 36.7401 43.78 35.5201C41.68 34.3001 40.45 32.4801 41.05 31.4401C41.65 30.4001 43.84 30.5501 45.94 31.7701C48.04 32.9901 49.27 35.6601 48.67 36.7001Z" fill="#1A2C38"/>
<path d="M44.16 23.1C43.62 22.85 43.07 23.4 43.31 23.94C44.13 25.75 44.91 28.81 41.91 30.45C41.91 30.45 40.06 31.18 41.18 32.76C42.3 34.34 44.75 34.97 45.9 34.15C46.97 33.39 50.82 26.19 44.17 23.09L44.16 23.1Z" fill="#1CE61C"/>
<path d="M18.8199 43.412C20.6643 42.6404 22.0316 41.7094 21.8739 41.3323C21.7162 40.9553 20.0932 41.2751 18.2488 42.0466C16.4044 42.8182 15.037 43.7492 15.1947 44.1263C15.3525 44.5033 16.9755 44.1835 18.8199 43.412Z" fill="white"/>
<path d="M18.16 48.42C30.68 55.79 37.79 47.21 41.16 43.83C39.29 42.99 37.58 42.48 35.24 41.86C35.15 41.84 35.06 41.81 34.97 41.79C34.07 44.14 30.7 48.67 18.16 48.43V48.42Z" fill="#047BFF"/>
</g>
<path fill-rule="evenodd" clip-rule="evenodd" d="M6.49771 79C6.98969 79 7.48602 79.213 7.49037 79.6913C7.49037 80.1043 7.24656 80.2696 6.99839 80.2696C6.75023 80.2696 6.73281 80.1435 6.73281 80.1435C6.73281 80.1435 7.02452 79.9261 7.02452 79.7174C7.02452 79.6087 6.94179 79.313 6.489 79.3174C5.8577 79.3174 5.5181 79.6174 5.5181 80.1522C5.5181 80.7652 7.35105 80.9739 7.3554 81.7652C7.3554 82.613 6.47594 82.9957 5.69225 83C5.283 83 5.01306 82.7609 5.00871 82.3783C5.00871 81.9261 5.22204 81.4652 5.75756 81.4652C5.88382 81.4565 5.98831 81.5522 5.99702 81.6783C5.99702 81.6783 5.99702 81.6826 5.99702 81.687C5.99702 81.687 5.45715 81.8391 5.4615 82.3783C5.4615 82.4783 5.56599 82.6609 5.81851 82.6565C6.07103 82.6522 6.82424 82.4739 6.81989 81.8087C6.81989 81.1913 5.00435 81.1087 5 80.1478C5 79.0652 6.08845 79.0087 6.49771 79.0087V79ZM10.747 79.6C10.8123 79.5696 11.2129 79.4913 11.1955 79.813C11.1824 80.1348 10.9386 80.6913 10.9037 80.9348C11.2303 80.7696 11.6918 80.2087 11.6918 80.2087C11.6918 80.2087 12.0183 80.2522 11.9182 80.4522C11.818 80.6522 11.1519 81.1435 11.1519 81.1435C11.1519 81.1435 11.3043 82.5696 12.1707 82.5696C12.6453 82.5696 12.8499 82.3609 12.937 82.287C12.9587 82.2696 12.9762 82.2652 12.9849 82.2783C13.0197 82.387 12.9936 82.5043 12.9152 82.5913C12.8194 82.6957 12.5974 82.8217 12.1533 82.8261C11.3653 82.8261 10.9255 82.1957 10.8123 81.2609C10.7252 81.5348 10.7339 81.9826 10.7209 82.2C10.6948 82.2435 10.2507 82.4174 10.2158 82.1174C10.2158 82.0913 10.2158 82.0696 10.2158 82.0435C10.1331 82.1609 10.0199 82.2826 9.91108 82.2826C9.71951 82.2826 9.63679 82.1217 9.60196 82.0391C9.57584 82.0696 9.3625 82.287 9.08821 82.287C8.92277 82.2913 8.77474 82.1957 8.70943 82.0435C8.57011 82.1435 8.32195 82.2913 8.03895 82.2913C7.73418 82.2913 7.66017 82.1087 7.66017 81.9565C7.66017 81.713 7.84303 80.987 7.84303 80.987C7.84303 80.987 7.48602 81.1304 7.36411 81.1348C7.19431 81.1348 7.11159 80.8217 7.11159 80.813C7.11159 80.8087 7.11159 80.8 7.1203 80.8C7.22044 80.7609 7.94317 80.513 7.94317 80.513C7.94317 80.513 8.07813 79.9826 8.09555 79.913C8.11296 79.8435 8.2131 79.7 8.33065 79.6565C8.41773 79.6217 8.50916 79.6 8.60059 79.5913C8.63107 79.5913 8.65284 79.6 8.65284 79.6174C8.65284 79.6348 8.47433 80.4087 8.47433 80.4087C8.47433 80.4087 8.84876 80.3217 8.98808 80.3217C9.09692 80.3217 9.15352 80.387 9.09257 80.4696C9.03162 80.5522 8.96196 80.6478 8.92712 80.6913C8.88794 80.7348 8.86182 80.7435 8.77039 80.7609C8.64413 80.787 8.36113 80.8565 8.36113 80.8565C8.36113 80.8565 8.13473 81.6783 8.13909 81.8174C8.13909 81.8957 8.16521 81.987 8.26099 81.987C8.35678 81.987 8.53964 81.8739 8.67025 81.7913C8.69202 81.1522 9.18835 80.7261 9.57584 80.7261C9.7021 80.7261 9.65421 80.8478 9.79788 80.8478H9.88931C9.94591 80.8478 10.0069 80.8522 10.0069 80.9957C10.0069 81.1957 9.89367 81.5261 9.89367 81.7348C9.89367 81.8826 9.91544 81.987 9.97204 81.987C10.0678 81.987 10.1767 81.8478 10.255 81.7261C10.3813 81.0304 10.734 79.7609 10.734 79.6174L10.747 79.6ZM12.5016 80.7C12.7672 80.6783 12.9326 80.8217 12.9631 80.9C12.9936 80.9783 12.9892 81.1609 12.9152 81.2913C12.6845 81.7044 12.1097 81.6304 12.1097 81.6304C12.1097 81.6304 12.0444 81.9565 12.3405 81.9565C12.593 81.9565 12.7062 81.8304 12.8151 81.7261C12.8586 81.7261 12.9936 81.8652 12.9326 81.9609C12.8847 82.0348 12.6191 82.2565 12.2795 82.2609C11.7397 82.2609 11.6047 81.8 11.6744 81.4696C11.7658 81.0609 12.1751 80.7217 12.5016 80.6957V80.7ZM9.6455 80.987C9.32332 80.987 8.82699 81.9696 9.20577 81.9652C9.61938 81.9652 9.6455 81.1826 9.6455 81.0043V80.987ZM12.6409 80.8913C12.4232 80.9 12.1751 81.3174 12.1533 81.5C12.4798 81.513 12.654 81.1957 12.6757 81.0696C12.6888 80.9739 12.6932 80.887 12.6409 80.887V80.8913Z" fill="#557086"/>
<path d="M45.851 79.0672L44.2521 80.8632C44.1826 80.9428 44.1826 81.0572 44.2521 81.1368L45.846 82.9328C45.9255 83.0224 46.0695 83.0224 46.1539 82.9328L47.7478 81.1368C47.8173 81.0572 47.8173 80.9428 47.7478 80.8632L46.1539 79.0672C46.0744 78.9776 45.9304 78.9776 45.846 79.0672H45.851Z" fill="white"/>
<path d="M46.6604 79.6343L47.142 80.1766L45.568 82.6144L44.704 81.6393L46.6604 79.6343Z" fill="#8EA3B2"/>
<path d="M50.851 79.0672L49.2521 80.8632C49.1826 80.9428 49.1826 81.0572 49.2521 81.1368L50.846 82.9328C50.9255 83.0224 51.0695 83.0224 51.1539 82.9328L52.7478 81.1368C52.8173 81.0572 52.8173 80.9428 52.7478 80.8632L51.1539 79.0672C51.0744 78.9776 50.9304 78.9776 50.846 79.0672H50.851Z" fill="white"/>
<path d="M51.6604 79.6343L52.142 80.1766L50.568 82.6144L49.704 81.6393L51.6604 79.6343Z" fill="#8EA3B2"/>
<path d="M55.851 79.0672L54.2521 80.8632C54.1826 80.9428 54.1826 81.0572 54.2521 81.1368L55.846 82.9328C55.9255 83.0224 56.0695 83.0224 56.1539 82.9328L57.7478 81.1368C57.8173 81.0572 57.8173 80.9428 57.7478 80.8632L56.1539 79.0672C56.0744 78.9776 55.9304 78.9776 55.846 79.0672H55.851Z" fill="white"/>
<path d="M56.6604 79.6343L57.142 80.1766L55.568 82.6144L54.704 81.6393L56.6604 79.6343Z" fill="#8EA3B2"/>
<rect x="13" y="62" width="37" height="13" rx="6.5" fill="#2F4553"/>
<path d="M26.8779 70.072C25.7079 70.072 25.1619 69.058 25.1619 68.002C25.1619 66.946 25.7079 65.938 26.8779 65.938C28.0479 65.938 28.5939 66.946 28.5939 68.002C28.5939 69.058 28.0479 70.072 26.8779 70.072ZM26.8779 69.16C27.3579 69.16 27.5499 68.71 27.5499 68.002C27.5499 67.294 27.3579 66.85 26.8779 66.85C26.3979 66.85 26.2059 67.294 26.2059 68.002C26.2059 68.71 26.3979 69.16 26.8779 69.16ZM29.4661 70.072C29.1601 70.072 28.9021 69.814 28.9021 69.508C28.9021 69.202 29.1601 68.944 29.4661 68.944C29.7721 68.944 30.0301 69.202 30.0301 69.508C30.0301 69.814 29.7721 70.072 29.4661 70.072ZM33.6813 70H30.5433V69.196C32.2773 67.942 32.6013 67.666 32.6013 67.27C32.6013 66.994 32.3433 66.85 32.0493 66.85C31.6053 66.85 31.2693 67.018 30.9813 67.288L30.4113 66.604C30.8373 66.136 31.4733 65.938 32.0313 65.938C32.9733 65.938 33.6513 66.466 33.6513 67.27C33.6513 67.882 33.2133 68.404 32.2173 69.1H33.6813V70ZM37.0318 70H36.0178L35.4598 69.124L34.8958 70H33.8878L34.8778 68.512L33.9478 67.102H34.9618L35.4598 67.888L35.9518 67.102H36.9658L36.0418 68.512L37.0318 70Z" fill="white"/>
<path d="M6.835 11.06C5.82 11.06 5.33 10.49 5.33 9.67V7.665H6.05V9.645C6.05 10.11 6.32 10.43 6.835 10.43C7.35 10.43 7.615 10.11 7.615 9.645V7.665H8.34V9.665C8.34 10.495 7.85 11.06 6.835 11.06ZM11.247 11H10.612V9.54C10.612 9.205 10.437 9.09 10.167 9.09C9.91699 9.09 9.72199 9.23 9.61699 9.375V11H8.98199V8.585H9.61699V8.9C9.77199 8.715 10.067 8.525 10.462 8.525C10.992 8.525 11.247 8.825 11.247 9.295V11ZM13.0025 11.06C12.2575 11.06 11.7225 10.535 11.7225 9.79C11.7225 9.05 12.2575 8.525 13.0025 8.525C13.4975 8.525 13.7975 8.74 13.9575 8.96L13.5425 9.35C13.4275 9.18 13.2525 9.09 13.0325 9.09C12.6475 9.09 12.3775 9.37 12.3775 9.79C12.3775 10.21 12.6475 10.495 13.0325 10.495C13.2525 10.495 13.4275 10.395 13.5425 10.235L13.9575 10.62C13.7975 10.845 13.4975 11.06 13.0025 11.06ZM15.4926 11.06C14.6976 11.06 14.2176 10.48 14.2176 9.79C14.2176 9.105 14.6976 8.525 15.4926 8.525C16.2926 8.525 16.7726 9.105 16.7726 9.79C16.7726 10.48 16.2926 11.06 15.4926 11.06ZM15.4926 10.495C15.8876 10.495 16.1126 10.17 16.1126 9.79C16.1126 9.415 15.8876 9.09 15.4926 9.09C15.0976 9.09 14.8776 9.415 14.8776 9.79C14.8776 10.17 15.0976 10.495 15.4926 10.495ZM20.8787 11H20.2387V9.475C20.2387 9.25 20.1387 9.09 19.8787 9.09C19.6537 9.09 19.4687 9.24 19.3787 9.37V11H18.7387V9.475C18.7387 9.25 18.6387 9.09 18.3787 9.09C18.1587 9.09 17.9737 9.24 17.8787 9.375V11H17.2437V8.585H17.8787V8.9C17.9787 8.755 18.2987 8.525 18.6687 8.525C19.0237 8.525 19.2487 8.69 19.3387 8.965C19.4787 8.745 19.7987 8.525 20.1687 8.525C20.6137 8.525 20.8787 8.76 20.8787 9.255V11ZM25.1365 11H24.4965V9.475C24.4965 9.25 24.3965 9.09 24.1365 9.09C23.9115 9.09 23.7265 9.24 23.6365 9.37V11H22.9965V9.475C22.9965 9.25 22.8965 9.09 22.6365 9.09C22.4165 9.09 22.2315 9.24 22.1365 9.375V11H21.5015V8.585H22.1365V8.9C22.2365 8.755 22.5565 8.525 22.9265 8.525C23.2815 8.525 23.5065 8.69 23.5965 8.965C23.7365 8.745 24.0565 8.525 24.4265 8.525C24.8715 8.525 25.1365 8.76 25.1365 9.255V11ZM26.8793 11.06C26.0843 11.06 25.6043 10.48 25.6043 9.79C25.6043 9.105 26.0843 8.525 26.8793 8.525C27.6793 8.525 28.1593 9.105 28.1593 9.79C28.1593 10.48 27.6793 11.06 26.8793 11.06ZM26.8793 10.495C27.2743 10.495 27.4993 10.17 27.4993 9.79C27.4993 9.415 27.2743 9.09 26.8793 9.09C26.4843 9.09 26.2643 9.415 26.2643 9.79C26.2643 10.17 26.4843 10.495 26.8793 10.495ZM30.8954 11H30.2604V9.54C30.2604 9.205 30.0854 9.09 29.8154 9.09C29.5654 9.09 29.3704 9.23 29.2654 9.375V11H28.6304V8.585H29.2654V8.9C29.4204 8.715 29.7154 8.525 30.1104 8.525C30.6404 8.525 30.8954 8.825 30.8954 9.295V11Z" fill="white"/>
<path d="M47.9944 11H47.5424L46.1504 9.096V11H45.6824V8.332H46.1624L47.5264 10.184V8.332H47.9944V11ZM49.4213 11.048C48.8093 11.048 48.4293 10.588 48.4293 10.032C48.4293 9.48 48.8093 9.02 49.4213 9.02C50.0413 9.02 50.4173 9.48 50.4173 10.032C50.4173 10.588 50.0413 11.048 49.4213 11.048ZM49.4213 10.676C49.7813 10.676 49.9813 10.376 49.9813 10.032C49.9813 9.692 49.7813 9.392 49.4213 9.392C49.0653 9.392 48.8653 9.692 48.8653 10.032C48.8653 10.376 49.0653 10.676 49.4213 10.676ZM51.0388 11.044C50.8868 11.044 50.7588 10.916 50.7588 10.764C50.7588 10.612 50.8868 10.484 51.0388 10.484C51.1908 10.484 51.3188 10.612 51.3188 10.764C51.3188 10.916 51.1908 11.044 51.0388 11.044ZM53.7946 11H53.3266V8.94L52.8906 9.392L52.6186 9.108L53.3866 8.332H53.7946V11ZM55.3141 11H54.8461V8.94L54.4101 9.392L54.1381 9.108L54.9061 8.332H55.3141V11ZM56.8617 11.048C56.0777 11.048 55.7617 10.412 55.7617 9.672C55.7617 8.9 56.1657 8.292 56.9377 8.292C57.2697 8.292 57.5257 8.412 57.7057 8.588L57.4857 8.944C57.3457 8.796 57.1937 8.708 56.9377 8.708C56.4937 8.708 56.2337 9.12 56.2337 9.588C56.2337 9.616 56.2337 9.64 56.2377 9.664C56.3577 9.484 56.6377 9.292 56.9537 9.292C57.4337 9.292 57.8457 9.584 57.8457 10.152C57.8457 10.648 57.4577 11.048 56.8617 11.048ZM56.8377 10.632C57.1897 10.632 57.3737 10.384 57.3737 10.168C57.3737 9.84 57.1177 9.692 56.8257 9.692C56.5977 9.692 56.3777 9.816 56.2417 10.008C56.2697 10.296 56.4257 10.632 56.8377 10.632Z" fill="white"/>
<defs>
<clipPath id="clip0_26835_29279">
<rect width="63" height="88" fill="white"/>
</clipPath>
</defs>
</svg>
