<svg width="63" height="88" viewBox="0 0 63 88" fill="none" xmlns="http://www.w3.org/2000/svg">
<rect width="63" height="88" rx="4" fill="#047BFF"/>
<path d="M36.7008 13.5133L44.7992 3.48665C45.5586 2.54645 46.7024 2 47.911 2H58C59.6569 2 61 3.34314 61 5V83C61 84.6569 59.6569 86 58 86H5C3.34315 86 2 84.6569 2 83V18C2 16.3431 3.34315 15 5 15H33.589C34.7976 15 35.9414 14.4536 36.7008 13.5133Z" fill="#213743"/>
<rect x="5" y="18" width="53" height="40" rx="1" fill="#2F4553"/>
<g clip-path="url(#clip0_26835_29281)">
<path d="M26.6899 32.2401L26.8999 32.92L30.8999 31.72L30.6799 31.05L26.6899 32.2401Z" fill="#FF7F00"/>
<path d="M34.31 29.6399L33.83 28.1699L33.18 28.4599L33.13 28.4199L33.01 28.6899C33.17 28.6499 33.22 28.7499 33.24 28.7899L33.46 29.5599V29.5799C33.46 29.6199 33.46 29.7099 33.33 29.7599L33.53 29.8199L33.57 29.9799L34.31 29.6599V29.6399Z" fill="#FF9D00"/>
<path d="M23.41 31.3601L23.12 31.4501L23.17 31.1301L23.63 31.1001L23.41 31.3601Z" fill="#0092FF"/>
<path d="M13.28 18L22.94 31.3L32.78 28.39L23.82 18H13.28Z" fill="#047BFF"/>
<path d="M22.78 30.6299L22.28 30.7799C22.03 30.8599 21.88 31.1199 21.95 31.3799L22.45 33.1399C22.52 33.3899 22.78 33.5399 23.04 33.4799L23.54 33.3499L22.78 30.6299Z" fill="#FF7F00"/>
<path d="M31.9521 56.7279C36.9858 55.0982 39.4446 48.7679 37.444 42.5888C35.4435 36.4097 29.7411 32.7217 24.7075 34.3514C19.6738 35.9811 17.215 42.3114 19.2156 48.4905C21.2161 54.6696 26.9185 58.3576 31.9521 56.7279Z" fill="#1A2C38"/>
<path d="M40.28 40.6999C38.63 35.5899 34.44 32.1799 30.19 32.0799L30.05 31.6499L27.54 32.4599C22.51 34.0899 20.05 40.4199 22.05 46.5999C24.05 52.7799 29.75 56.4699 34.79 54.8399L37.3 54.0299L37.16 53.5999C40.54 51.0299 41.94 45.8099 40.28 40.6999Z" fill="#FF7F00"/>
<path d="M37.3004 54.0211C42.334 52.3914 44.7928 46.0611 42.7923 39.882C40.7917 33.7029 35.0894 30.0149 30.0557 31.6446C25.0221 33.2743 22.5633 39.6046 24.5639 45.7837C26.5644 51.9628 32.2668 55.6508 37.3004 54.0211Z" fill="#FFCE00"/>
<path d="M37.3004 54.0211C42.334 52.3914 44.7928 46.0611 42.7923 39.882C40.7917 33.7029 35.0894 30.0149 30.0557 31.6446C25.0221 33.2743 22.5633 39.6046 24.5639 45.7837C26.5644 51.9628 32.2668 55.6508 37.3004 54.0211Z" fill="#FFC200"/>
<path d="M41.0999 40.4399C42.6399 45.1899 40.7499 50.0599 36.8799 51.3099C36.6799 51.3799 36.4799 51.4299 36.2699 51.4699C32.5599 52.2599 28.5499 49.4799 27.0899 44.9699C25.6299 40.4599 27.2499 35.8599 30.7199 34.3299C30.9099 34.2499 31.1099 34.1699 31.3099 34.0999C35.1799 32.8499 39.5599 35.6799 41.0999 40.4299V40.4399Z" fill="#FF5500"/>
<path d="M39.91 40.83C41.37 45.33 39.75 49.94 36.28 51.47C32.57 52.26 28.56 49.48 27.1 44.97C25.64 40.46 27.26 35.86 30.73 34.33C34.44 33.54 38.45 36.32 39.91 40.83Z" fill="#FF7F00"/>
<path d="M37.6201 41.9C37.4701 41.75 37.3901 41.55 37.4301 41.34C37.5001 40.87 37.5901 40.41 37.6701 39.95C37.6901 39.82 37.6801 39.69 37.6801 39.55C37.6801 39.55 37.6601 39.55 37.6501 39.55C37.5701 39.3 37.4301 39.16 37.1901 39.13C36.7701 39.07 36.3501 39.02 35.9301 38.97C35.7401 38.95 35.5701 38.82 35.4901 38.6C35.3401 38.19 35.1801 37.77 35.0301 37.36L35.4001 36.42L34.3601 36.76C34.3601 36.76 34.2601 36.8 34.2101 36.83C33.8801 37.06 33.5601 37.29 33.2501 37.54C33.0501 37.7 32.8601 37.67 32.6501 37.5C32.5101 37.39 32.3701 37.28 32.2401 37.16L32.2001 36.21L31.1801 36.54C31.0501 36.58 30.9401 36.7 30.8801 36.91C30.7501 37.36 30.6301 37.81 30.5101 38.26C30.4601 38.45 30.3201 38.58 30.1401 38.58C30.0101 38.58 29.8801 38.58 29.7601 38.58V38.26L28.7301 38.6C28.7201 38.6 28.7001 38.6 28.6901 38.61C28.4701 38.69 28.3701 38.94 28.4501 39.27C28.5801 39.76 28.7101 40.24 28.8501 40.73C28.9201 40.97 28.8701 41.19 28.7201 41.33C28.4001 41.62 28.0801 41.91 27.7701 42.21C27.5601 42.41 27.6001 42.83 27.8301 43.06C28.1801 43.4 28.5301 43.75 28.8801 44.09C29.0601 44.26 29.1201 44.46 29.0701 44.69C28.9901 45.15 28.9101 45.62 28.8201 46.08C28.7501 46.47 28.9701 46.83 29.3301 46.87C29.7501 46.92 30.1801 46.97 30.6001 47.03C30.7901 47.05 30.9201 47.18 31.0001 47.39C31.1201 47.7 31.2301 48.01 31.3501 48.32C31.4301 48.52 31.4901 48.73 31.5801 48.92C31.7101 49.2 31.9501 49.31 32.1701 49.22L33.1701 48.9L33.0301 48.61C33.1201 48.55 33.2101 48.48 33.3001 48.42C33.4601 48.31 33.6201 48.3 33.8101 48.46C34.1801 48.77 34.5601 49.06 34.9301 49.36C35.0601 49.46 35.2101 49.48 35.3401 49.44L36.3701 49.11L35.8101 48.39C35.8601 48.19 35.9201 48 35.9601 47.8C36.0201 47.54 36.1601 47.43 36.3801 47.42C36.7801 47.42 37.1901 47.42 37.6001 47.42C37.6701 47.42 37.7401 47.42 37.8001 47.39L38.8401 47.05L37.9901 46.55C37.8701 46.12 37.7501 45.69 37.6301 45.25C37.5701 45.03 37.6001 44.85 37.7301 44.72C38.0401 44.42 38.3501 44.13 38.6701 43.85C38.9301 43.61 38.9201 43.19 38.6301 42.91C38.2901 42.58 37.9501 42.25 37.6101 41.92L37.6201 41.9Z" fill="#FF5500"/>
<path d="M38.66 41.5601C38.51 41.4101 38.43 41.2101 38.47 41.0001C38.54 40.5301 38.63 40.0701 38.71 39.6101C38.73 39.4801 38.72 39.3501 38.72 39.2101C38.72 39.2101 38.7 39.2101 38.69 39.2101C38.61 38.9601 38.47 38.8201 38.23 38.7901C37.81 38.7301 37.39 38.6801 36.97 38.6301C36.78 38.6101 36.61 38.4701 36.53 38.2601C36.35 37.7801 36.17 37.3001 36 36.8201C35.87 36.4601 35.56 36.2801 35.25 36.4901C34.92 36.7201 34.6 36.9501 34.29 37.2001C34.09 37.3601 33.9 37.3301 33.69 37.1601C33.36 36.8901 33.02 36.6201 32.69 36.3501C32.35 36.0701 32.05 36.1501 31.93 36.5701C31.8 37.0201 31.68 37.4701 31.56 37.9201C31.51 38.1101 31.37 38.2401 31.19 38.2401C30.77 38.2401 30.34 38.2401 29.92 38.2401C29.58 38.2401 29.4 38.5201 29.5 38.9301C29.63 39.4201 29.77 39.9001 29.9 40.3901C29.97 40.6301 29.92 40.8501 29.77 40.9901C29.45 41.2801 29.13 41.5701 28.82 41.8701C28.61 42.0701 28.65 42.4901 28.88 42.7201C29.23 43.0601 29.58 43.4101 29.93 43.7501C30.11 43.9201 30.17 44.1201 30.12 44.3501C30.04 44.8101 29.96 45.2801 29.87 45.7401C29.8 46.1301 30.02 46.4901 30.38 46.5301C30.8 46.5801 31.23 46.6301 31.65 46.6901C31.84 46.7101 31.97 46.8401 32.05 47.0501C32.17 47.3601 32.28 47.6701 32.4 47.9801C32.48 48.1801 32.54 48.3901 32.63 48.5801C32.78 48.9101 33.1 49.0001 33.33 48.8201C33.66 48.5701 34 48.3201 34.34 48.0901C34.5 47.9801 34.67 47.9701 34.85 48.1301C35.22 48.4401 35.6 48.7301 35.97 49.0301C36.21 49.2201 36.54 49.1401 36.62 48.8601C36.75 48.4001 36.89 47.9401 37 47.4701C37.06 47.2101 37.2 47.1001 37.42 47.0901C37.82 47.0901 38.23 47.0901 38.64 47.0901C39 47.0901 39.19 46.7901 39.07 46.3801C38.94 45.8901 38.8 45.4101 38.66 44.9201C38.6 44.7001 38.63 44.5201 38.76 44.3901C39.07 44.0901 39.38 43.8001 39.7 43.5201C39.96 43.2801 39.95 42.8601 39.66 42.5801C39.32 42.2501 38.98 41.9201 38.64 41.5901L38.66 41.5601Z" fill="#FFCE00"/>
<path d="M39.68 42.55C39.97 42.83 39.98 43.25 39.72 43.49C39.4 43.77 39.09 44.07 38.78 44.36C38.65 44.49 38.62 44.67 38.68 44.89C38.82 45.37 38.95 45.86 39.09 46.35C39.21 46.77 39.01 47.07 38.66 47.06C38.25 47.05 37.85 47.06 37.44 47.06C37.22 47.06 37.08 47.18 37.02 47.44C36.91 47.91 36.77 48.37 36.64 48.83C36.56 49.11 36.22 49.19 35.99 49C35.61 48.7 35.24 48.41 34.87 48.1C34.68 47.94 34.51 47.96 34.36 48.06C34.02 48.3 33.68 48.54 33.35 48.79C33.11 48.97 32.8 48.88 32.65 48.55C32.56 48.36 32.49 48.15 32.42 47.95C32.3 47.64 32.19 47.33 32.07 47.02C31.99 46.81 31.86 46.68 31.67 46.66C31.25 46.6 30.82 46.55 30.4 46.5C30.05 46.46 29.82 46.1 29.89 45.71C29.98 45.25 30.05 44.78 30.14 44.32C30.18 44.09 30.12 43.89 29.95 43.72C29.6 43.38 29.25 43.03 28.9 42.69C28.67 42.47 28.63 42.04 28.84 41.84C29.15 41.54 29.47 41.25 29.79 40.96C29.94 40.82 29.99 40.6 29.92 40.36C29.78 39.87 29.64 39.39 29.52 38.9C29.41 38.49 29.59 38.21 29.94 38.21C30.36 38.21 30.79 38.21 31.21 38.21C31.39 38.21 31.53 38.08 31.58 37.89C31.7 37.44 31.82 36.99 31.95 36.54C32.07 36.13 32.38 36.05 32.71 36.32C33.04 36.59 33.38 36.86 33.71 37.13C33.92 37.3 34.11 37.33 34.31 37.17C34.62 36.92 34.95 36.69 35.27 36.46C35.58 36.24 35.89 36.43 36.02 36.79C36.2 37.27 36.38 37.75 36.55 38.23C36.63 38.44 36.8 38.58 36.99 38.6C37.41 38.65 37.83 38.7 38.25 38.76C38.49 38.79 38.63 38.93 38.71 39.18C38.71 39.18 38.73 39.18 38.74 39.18C38.74 39.31 38.74 39.45 38.73 39.58C38.65 40.05 38.56 40.51 38.49 40.97C38.46 41.18 38.53 41.38 38.68 41.53C39.02 41.86 39.36 42.19 39.7 42.52L39.68 42.55Z" fill="#FFC200"/>
<path d="M34.4 29.5799L34.02 28.2399C33.94 27.9599 33.66 27.7999 33.38 27.8699L22.79 30.6199C22.5 30.6899 22.33 30.9899 22.41 31.2799L22.89 32.9799C22.97 33.2599 23.27 33.4299 23.55 33.3399L34.04 30.2199C34.32 30.1399 34.48 29.8499 34.4 29.5699V29.5799ZM33.7 29.6499L23.66 32.5399C23.58 32.5599 23.5 32.5199 23.48 32.4399L23.21 31.4399C23.19 31.3599 23.23 31.2799 23.31 31.2599L33.4 28.5699C33.48 28.5499 33.56 28.5899 33.58 28.6699L33.81 29.4699C33.83 29.5499 33.79 29.6299 33.71 29.6499H33.7Z" fill="#FFC200"/>
<path d="M27.21 18L23.41 31.36L33.19 28.76L37.28 18H27.21Z" fill="#55DFFF"/>
<path d="M40.73 35.85C41.92 37.49 42.32 39.24 41.62 39.74C40.92 40.24 40.66 38.97 39.47 37.32C38.28 35.67 36.6 34.29 37.3 33.78C38 33.27 39.53 34.2 40.72 35.84L40.73 35.85Z" fill="white"/>
</g>
<path fill-rule="evenodd" clip-rule="evenodd" d="M6.49771 79C6.98969 79 7.48602 79.213 7.49037 79.6913C7.49037 80.1043 7.24656 80.2696 6.99839 80.2696C6.75023 80.2696 6.73281 80.1435 6.73281 80.1435C6.73281 80.1435 7.02452 79.9261 7.02452 79.7174C7.02452 79.6087 6.94179 79.313 6.489 79.3174C5.8577 79.3174 5.5181 79.6174 5.5181 80.1522C5.5181 80.7652 7.35105 80.9739 7.3554 81.7652C7.3554 82.613 6.47594 82.9957 5.69225 83C5.283 83 5.01306 82.7609 5.00871 82.3783C5.00871 81.9261 5.22204 81.4652 5.75756 81.4652C5.88382 81.4565 5.98831 81.5522 5.99702 81.6783C5.99702 81.6783 5.99702 81.6826 5.99702 81.687C5.99702 81.687 5.45715 81.8391 5.4615 82.3783C5.4615 82.4783 5.56599 82.6609 5.81851 82.6565C6.07103 82.6522 6.82424 82.4739 6.81989 81.8087C6.81989 81.1913 5.00435 81.1087 5 80.1478C5 79.0652 6.08845 79.0087 6.49771 79.0087V79ZM10.747 79.6C10.8123 79.5696 11.2129 79.4913 11.1955 79.813C11.1824 80.1348 10.9386 80.6913 10.9037 80.9348C11.2303 80.7696 11.6918 80.2087 11.6918 80.2087C11.6918 80.2087 12.0183 80.2522 11.9182 80.4522C11.818 80.6522 11.1519 81.1435 11.1519 81.1435C11.1519 81.1435 11.3043 82.5696 12.1707 82.5696C12.6453 82.5696 12.8499 82.3609 12.937 82.287C12.9587 82.2696 12.9762 82.2652 12.9849 82.2783C13.0197 82.387 12.9936 82.5043 12.9152 82.5913C12.8194 82.6957 12.5974 82.8217 12.1533 82.8261C11.3653 82.8261 10.9255 82.1957 10.8123 81.2609C10.7252 81.5348 10.7339 81.9826 10.7209 82.2C10.6948 82.2435 10.2507 82.4174 10.2158 82.1174C10.2158 82.0913 10.2158 82.0696 10.2158 82.0435C10.1331 82.1609 10.0199 82.2826 9.91108 82.2826C9.71951 82.2826 9.63679 82.1217 9.60196 82.0391C9.57584 82.0696 9.3625 82.287 9.08821 82.287C8.92277 82.2913 8.77474 82.1957 8.70943 82.0435C8.57011 82.1435 8.32195 82.2913 8.03895 82.2913C7.73418 82.2913 7.66017 82.1087 7.66017 81.9565C7.66017 81.713 7.84303 80.987 7.84303 80.987C7.84303 80.987 7.48602 81.1304 7.36411 81.1348C7.19431 81.1348 7.11159 80.8217 7.11159 80.813C7.11159 80.8087 7.11159 80.8 7.1203 80.8C7.22044 80.7609 7.94317 80.513 7.94317 80.513C7.94317 80.513 8.07813 79.9826 8.09555 79.913C8.11296 79.8435 8.2131 79.7 8.33065 79.6565C8.41773 79.6217 8.50916 79.6 8.60059 79.5913C8.63107 79.5913 8.65284 79.6 8.65284 79.6174C8.65284 79.6348 8.47433 80.4087 8.47433 80.4087C8.47433 80.4087 8.84876 80.3217 8.98808 80.3217C9.09692 80.3217 9.15352 80.387 9.09257 80.4696C9.03162 80.5522 8.96196 80.6478 8.92712 80.6913C8.88794 80.7348 8.86182 80.7435 8.77039 80.7609C8.64413 80.787 8.36113 80.8565 8.36113 80.8565C8.36113 80.8565 8.13473 81.6783 8.13909 81.8174C8.13909 81.8957 8.16521 81.987 8.26099 81.987C8.35678 81.987 8.53964 81.8739 8.67025 81.7913C8.69202 81.1522 9.18835 80.7261 9.57584 80.7261C9.7021 80.7261 9.65421 80.8478 9.79788 80.8478H9.88931C9.94591 80.8478 10.0069 80.8522 10.0069 80.9957C10.0069 81.1957 9.89367 81.5261 9.89367 81.7348C9.89367 81.8826 9.91544 81.987 9.97204 81.987C10.0678 81.987 10.1767 81.8478 10.255 81.7261C10.3813 81.0304 10.734 79.7609 10.734 79.6174L10.747 79.6ZM12.5016 80.7C12.7672 80.6783 12.9326 80.8217 12.9631 80.9C12.9936 80.9783 12.9892 81.1609 12.9152 81.2913C12.6845 81.7044 12.1097 81.6304 12.1097 81.6304C12.1097 81.6304 12.0444 81.9565 12.3405 81.9565C12.593 81.9565 12.7062 81.8304 12.8151 81.7261C12.8586 81.7261 12.9936 81.8652 12.9326 81.9609C12.8847 82.0348 12.6191 82.2565 12.2795 82.2609C11.7397 82.2609 11.6047 81.8 11.6744 81.4696C11.7658 81.0609 12.1751 80.7217 12.5016 80.6957V80.7ZM9.6455 80.987C9.32332 80.987 8.82699 81.9696 9.20577 81.9652C9.61938 81.9652 9.6455 81.1826 9.6455 81.0043V80.987ZM12.6409 80.8913C12.4232 80.9 12.1751 81.3174 12.1533 81.5C12.4798 81.513 12.654 81.1957 12.6757 81.0696C12.6888 80.9739 12.6932 80.887 12.6409 80.887V80.8913Z" fill="#557086"/>
<path d="M45.851 79.0672L44.2521 80.8632C44.1826 80.9428 44.1826 81.0572 44.2521 81.1368L45.846 82.9328C45.9255 83.0224 46.0695 83.0224 46.1539 82.9328L47.7478 81.1368C47.8173 81.0572 47.8173 80.9428 47.7478 80.8632L46.1539 79.0672C46.0744 78.9776 45.9304 78.9776 45.846 79.0672H45.851Z" fill="white"/>
<path d="M46.6604 79.6343L47.142 80.1766L45.568 82.6144L44.704 81.6393L46.6604 79.6343Z" fill="#8EA3B2"/>
<path d="M50.851 79.0672L49.2521 80.8632C49.1826 80.9428 49.1826 81.0572 49.2521 81.1368L50.846 82.9328C50.9255 83.0224 51.0695 83.0224 51.1539 82.9328L52.7478 81.1368C52.8173 81.0572 52.8173 80.9428 52.7478 80.8632L51.1539 79.0672C51.0744 78.9776 50.9304 78.9776 50.846 79.0672H50.851Z" fill="white"/>
<path d="M51.6604 79.6343L52.142 80.1766L50.568 82.6144L49.704 81.6393L51.6604 79.6343Z" fill="#8EA3B2"/>
<path d="M55.851 79.0672L54.2521 80.8632C54.1826 80.9428 54.1826 81.0572 54.2521 81.1368L55.846 82.9328C55.9255 83.0224 56.0695 83.0224 56.1539 82.9328L57.7478 81.1368C57.8173 81.0572 57.8173 80.9428 57.7478 80.8632L56.1539 79.0672C56.0744 78.9776 55.9304 78.9776 55.846 79.0672H55.851Z" fill="white"/>
<path d="M56.6604 79.6343L57.142 80.1766L55.568 82.6144L54.704 81.6393L56.6604 79.6343Z" fill="#8EA3B2"/>
<rect x="13" y="62" width="37" height="13" rx="6.5" fill="#2F4553"/>
<path d="M26.8779 70.072C25.7079 70.072 25.1619 69.058 25.1619 68.002C25.1619 66.946 25.7079 65.938 26.8779 65.938C28.0479 65.938 28.5939 66.946 28.5939 68.002C28.5939 69.058 28.0479 70.072 26.8779 70.072ZM26.8779 69.16C27.3579 69.16 27.5499 68.71 27.5499 68.002C27.5499 67.294 27.3579 66.85 26.8779 66.85C26.3979 66.85 26.2059 67.294 26.2059 68.002C26.2059 68.71 26.3979 69.16 26.8779 69.16ZM29.4661 70.072C29.1601 70.072 28.9021 69.814 28.9021 69.508C28.9021 69.202 29.1601 68.944 29.4661 68.944C29.7721 68.944 30.0301 69.202 30.0301 69.508C30.0301 69.814 29.7721 70.072 29.4661 70.072ZM33.6813 70H30.5433V69.196C32.2773 67.942 32.6013 67.666 32.6013 67.27C32.6013 66.994 32.3433 66.85 32.0493 66.85C31.6053 66.85 31.2693 67.018 30.9813 67.288L30.4113 66.604C30.8373 66.136 31.4733 65.938 32.0313 65.938C32.9733 65.938 33.6513 66.466 33.6513 67.27C33.6513 67.882 33.2133 68.404 32.2173 69.1H33.6813V70ZM37.0318 70H36.0178L35.4598 69.124L34.8958 70H33.8878L34.8778 68.512L33.9478 67.102H34.9618L35.4598 67.888L35.9518 67.102H36.9658L36.0418 68.512L37.0318 70Z" fill="white"/>
<path d="M6.835 11.06C5.82 11.06 5.33 10.49 5.33 9.67V7.665H6.05V9.645C6.05 10.11 6.32 10.43 6.835 10.43C7.35 10.43 7.615 10.11 7.615 9.645V7.665H8.34V9.665C8.34 10.495 7.85 11.06 6.835 11.06ZM11.247 11H10.612V9.54C10.612 9.205 10.437 9.09 10.167 9.09C9.91699 9.09 9.72199 9.23 9.61699 9.375V11H8.98199V8.585H9.61699V8.9C9.77199 8.715 10.067 8.525 10.462 8.525C10.992 8.525 11.247 8.825 11.247 9.295V11ZM13.0025 11.06C12.2575 11.06 11.7225 10.535 11.7225 9.79C11.7225 9.05 12.2575 8.525 13.0025 8.525C13.4975 8.525 13.7975 8.74 13.9575 8.96L13.5425 9.35C13.4275 9.18 13.2525 9.09 13.0325 9.09C12.6475 9.09 12.3775 9.37 12.3775 9.79C12.3775 10.21 12.6475 10.495 13.0325 10.495C13.2525 10.495 13.4275 10.395 13.5425 10.235L13.9575 10.62C13.7975 10.845 13.4975 11.06 13.0025 11.06ZM15.4926 11.06C14.6976 11.06 14.2176 10.48 14.2176 9.79C14.2176 9.105 14.6976 8.525 15.4926 8.525C16.2926 8.525 16.7726 9.105 16.7726 9.79C16.7726 10.48 16.2926 11.06 15.4926 11.06ZM15.4926 10.495C15.8876 10.495 16.1126 10.17 16.1126 9.79C16.1126 9.415 15.8876 9.09 15.4926 9.09C15.0976 9.09 14.8776 9.415 14.8776 9.79C14.8776 10.17 15.0976 10.495 15.4926 10.495ZM20.8787 11H20.2387V9.475C20.2387 9.25 20.1387 9.09 19.8787 9.09C19.6537 9.09 19.4687 9.24 19.3787 9.37V11H18.7387V9.475C18.7387 9.25 18.6387 9.09 18.3787 9.09C18.1587 9.09 17.9737 9.24 17.8787 9.375V11H17.2437V8.585H17.8787V8.9C17.9787 8.755 18.2987 8.525 18.6687 8.525C19.0237 8.525 19.2487 8.69 19.3387 8.965C19.4787 8.745 19.7987 8.525 20.1687 8.525C20.6137 8.525 20.8787 8.76 20.8787 9.255V11ZM25.1365 11H24.4965V9.475C24.4965 9.25 24.3965 9.09 24.1365 9.09C23.9115 9.09 23.7265 9.24 23.6365 9.37V11H22.9965V9.475C22.9965 9.25 22.8965 9.09 22.6365 9.09C22.4165 9.09 22.2315 9.24 22.1365 9.375V11H21.5015V8.585H22.1365V8.9C22.2365 8.755 22.5565 8.525 22.9265 8.525C23.2815 8.525 23.5065 8.69 23.5965 8.965C23.7365 8.745 24.0565 8.525 24.4265 8.525C24.8715 8.525 25.1365 8.76 25.1365 9.255V11ZM26.8793 11.06C26.0843 11.06 25.6043 10.48 25.6043 9.79C25.6043 9.105 26.0843 8.525 26.8793 8.525C27.6793 8.525 28.1593 9.105 28.1593 9.79C28.1593 10.48 27.6793 11.06 26.8793 11.06ZM26.8793 10.495C27.2743 10.495 27.4993 10.17 27.4993 9.79C27.4993 9.415 27.2743 9.09 26.8793 9.09C26.4843 9.09 26.2643 9.415 26.2643 9.79C26.2643 10.17 26.4843 10.495 26.8793 10.495ZM30.8954 11H30.2604V9.54C30.2604 9.205 30.0854 9.09 29.8154 9.09C29.5654 9.09 29.3704 9.23 29.2654 9.375V11H28.6304V8.585H29.2654V8.9C29.4204 8.715 29.7154 8.525 30.1104 8.525C30.6404 8.525 30.8954 8.825 30.8954 9.295V11Z" fill="white"/>
<path d="M48.0179 11H47.5659L46.1739 9.096V11H45.7059V8.332H46.1859L47.5499 10.184V8.332H48.0179V11ZM49.4448 11.048C48.8328 11.048 48.4528 10.588 48.4528 10.032C48.4528 9.48 48.8328 9.02 49.4448 9.02C50.0648 9.02 50.4408 9.48 50.4408 10.032C50.4408 10.588 50.0648 11.048 49.4448 11.048ZM49.4448 10.676C49.8048 10.676 50.0048 10.376 50.0048 10.032C50.0048 9.692 49.8048 9.392 49.4448 9.392C49.0888 9.392 48.8888 9.692 48.8888 10.032C48.8888 10.376 49.0888 10.676 49.4448 10.676ZM51.0622 11.044C50.9102 11.044 50.7822 10.916 50.7822 10.764C50.7822 10.612 50.9102 10.484 51.0622 10.484C51.2142 10.484 51.3422 10.612 51.3422 10.764C51.3422 10.916 51.2142 11.044 51.0622 11.044ZM53.818 11H53.35V8.94L52.914 9.392L52.642 9.108L53.41 8.332H53.818V11ZM55.3376 11H54.8696V8.94L54.4336 9.392L54.1616 9.108L54.9296 8.332H55.3376V11ZM56.8131 11.048C56.2651 11.048 55.7891 10.796 55.7891 10.316C55.7891 9.976 56.0651 9.732 56.3891 9.624C56.0891 9.528 55.8331 9.332 55.8331 8.992C55.8331 8.5 56.3371 8.292 56.8131 8.292C57.2811 8.292 57.7931 8.5 57.7931 8.992C57.7931 9.332 57.5331 9.528 57.2331 9.624C57.5571 9.732 57.8331 9.976 57.8331 10.316C57.8331 10.792 57.3571 11.048 56.8131 11.048ZM56.8131 9.44C56.9771 9.412 57.3171 9.316 57.3171 9.064C57.3171 8.84 57.0971 8.708 56.8131 8.708C56.5211 8.708 56.3051 8.84 56.3051 9.064C56.3051 9.316 56.6491 9.412 56.8131 9.44ZM56.8131 10.632C57.1091 10.632 57.3611 10.488 57.3611 10.256C57.3611 9.98 56.9771 9.856 56.8131 9.836C56.6451 9.856 56.2611 9.98 56.2611 10.256C56.2611 10.488 56.5091 10.632 56.8131 10.632Z" fill="white"/>
<defs>
<clipPath id="clip0_26835_29281">
<rect width="63" height="88" fill="white"/>
</clipPath>
</defs>
</svg>
