<svg width="63" height="88" viewBox="0 0 63 88" fill="none" xmlns="http://www.w3.org/2000/svg">
<rect width="63" height="88" rx="4" fill="#047BFF"/>
<path d="M36.7008 13.5133L44.7992 3.48665C45.5586 2.54645 46.7024 2 47.911 2H58C59.6569 2 61 3.34314 61 5V83C61 84.6569 59.6569 86 58 86H5C3.34315 86 2 84.6569 2 83V18C2 16.3431 3.34315 15 5 15H33.589C34.7976 15 35.9414 14.4536 36.7008 13.5133Z" fill="#213743"/>
<rect x="5" y="18" width="53" height="40" rx="1" fill="#2F4553"/>
<path d="M51.5 32.8134C51.5 28.9589 48.5975 25.5992 44.7525 25.3472C40.5434 25.0765 37.0343 28.4083 37.0343 32.5614L29.9135 52.0107H47.7669C49.8295 52.0107 51.5 50.3402 51.5 48.2777V32.804V32.8134Z" fill="#FF7F00"/>
<path d="M33.3665 52.02H15.2331C13.1706 52.02 11.5 50.3495 11.5 48.287V37.545L37.0996 37.2837V48.2776C37.0996 50.3402 35.4291 52.0107 33.3665 52.0107V52.02Z" fill="#FFC201"/>
<path d="M15.0931 35.0437V32.3839C15.0931 28.3521 19.2275 25.0857 23.2593 25.0857H39.7502C35.5691 25.0857 32.7506 28.7908 32.7506 32.3839V35.0437H15.0931Z" fill="#E9113C"/>
<path d="M15.3171 38.6462H32.76V44.3299C32.76 46.3924 31.0894 48.0629 29.0269 48.0629H19.0502C16.9877 48.0629 15.3171 46.3924 15.3171 44.3299V38.6462Z" fill="#E9113C"/>
<path d="M32.76 37.8435H15.0931V41.2779H32.76V37.8435Z" fill="#1A2C38"/>
<path d="M44.8645 29.4629H44.7898C43.1404 29.4629 41.8033 30.8 41.8033 32.4494V45.0952C41.8033 46.7446 43.1404 48.0816 44.7898 48.0816H44.8645C46.5139 48.0816 47.8509 46.7446 47.8509 45.0952V32.4494C47.8509 30.8 46.5139 29.4629 44.8645 29.4629Z" fill="#1A2C38"/>
<path d="M28.7561 37.5264H27.7202V38.637H28.7561V37.5264Z" fill="#FF8800"/>
<path d="M23.0352 37.5264H21.9993V38.637H23.0352V37.5264Z" fill="#FF8800"/>
<path d="M25.639 37.5264H21.9993V38.637H25.639V37.5264Z" fill="#FF8800"/>
<path d="M15.3171 41.278H15.2331C13.1706 41.278 11.5 39.6074 11.5 37.5449V32.8132L15.3171 38.0862V41.278Z" fill="#FF7F00"/>
<path d="M33.3665 41.2781H32.7599V37.8717L37.6689 31.7681L37.0996 37.545C37.0996 39.6075 35.429 41.2781 33.3665 41.2781Z" fill="#FF7F00"/>
<path d="M44.5659 25.3378C44.5659 25.3378 42.3727 24.2459 39.7688 24.4419C35.5971 24.7592 32.7693 28.7816 32.7693 32.384V32.4867C32.7693 33.9052 31.6214 35.0438 30.2122 35.0438H28.1683C26.7497 35.0438 25.6111 33.8959 25.6111 32.4867V32.384C25.6111 28.3523 29.7455 25.0858 33.7772 25.0858C33.7772 25.0858 31.8267 24.0499 28.6069 24.4045C24.7245 24.8432 21.5701 28.5762 21.5701 32.4773C21.5701 33.8959 20.4221 35.0345 19.0129 35.0345H17.669C16.2504 35.0345 15.1118 33.8866 15.1118 32.4773V32.3747C15.1118 28.3429 19.2462 25.0765 23.2779 25.0765C15.3358 22.2953 11.5094 28.3429 11.5094 32.3747C11.5094 35.8278 14.3092 38.6276 17.7623 38.6276H30.8468C34.2999 38.6276 37.0997 35.8278 37.0997 32.3747C37.0997 28.3429 40.5341 25.3285 44.5659 25.3285V25.3378Z" fill="#FFC201"/>
<path d="M29.2228 37.5263C29.0642 37.349 28.2242 36.6304 28.2242 36.6304C28.2242 36.6304 28.5136 38.1609 28.5136 38.6369H29.4468V38.1143C29.4468 37.8903 29.3628 37.6756 29.2135 37.5263H29.2228Z" fill="#1A2C38"/>
<path d="M28.5135 38.6462C28.0282 38.6462 21.6447 37.6383 21.6447 38.1236V42.1553C21.6447 42.9019 22.6246 44.2832 23.1752 44.6005C23.5392 44.8058 25.0884 45.1044 25.4897 45.1138C25.9284 45.1231 26.3763 45.0204 26.7776 44.7871C27.3283 44.4698 27.9722 44.0312 28.4855 43.6485C29.0922 43.2099 29.4468 42.5006 29.4468 41.754V38.6462H28.5135Z" fill="#1A2C38"/>
<path d="M27.6455 36.4158H26.8523C26.8523 36.4158 20.8513 36.8078 20.8513 37.2838V41.3155C20.8513 42.0621 21.206 42.7714 21.8126 43.21C22.3259 43.5927 23.2592 44.358 23.8191 44.6753C23.8191 44.6753 24.3324 44.6753 24.7524 44.6753C25.1724 44.6753 25.6017 44.5633 25.9843 44.3486C26.5349 44.0313 27.1789 43.5927 27.6922 43.21C28.2988 42.7714 28.6535 42.0621 28.6535 41.3155V37.3771C28.6535 36.8918 28.1215 36.4065 27.6362 36.4065L27.6455 36.4158Z" fill="#FF7F00"/>
<path d="M26.8523 36.4158H20.786C20.3007 36.4158 19.9181 36.8077 19.9181 37.2837V41.3154C19.9181 42.0621 20.2727 42.7713 20.8794 43.21C21.3927 43.5926 22.0366 44.0313 22.5872 44.3486C23.3525 44.7779 24.2858 44.7779 25.0511 44.3486C25.6017 44.0313 26.2457 43.5926 26.759 43.21C27.3656 42.7713 27.7202 42.0621 27.7202 41.3154V37.2837C27.7202 36.7984 27.3283 36.4158 26.8523 36.4158Z" fill="#FFC201"/>
<path d="M19.9182 33.616C19.1435 34.8199 18.5183 35.4452 17.3143 36.2198C18.5183 36.9944 19.1435 37.6197 19.9182 38.8236C20.6928 37.6197 21.3181 36.9944 22.522 36.2198C21.3181 35.4452 20.6928 34.8199 19.9182 33.616Z" fill="white"/>
<path d="M16.6914 26.9772C17.4963 26.4756 17.9477 25.7463 17.6997 25.3482C17.4516 24.9501 16.598 25.0341 15.7931 25.5356C14.9882 26.0372 14.5368 26.7666 14.7849 27.1646C15.0329 27.5627 15.8865 27.4788 16.6914 26.9772Z" fill="white"/>
<path d="M26.9296 26.9755C27.7345 26.4739 28.1859 25.7446 27.9378 25.3465C27.6897 24.9484 26.8361 25.0323 26.0312 25.5339C25.2264 26.0355 24.775 26.7648 25.023 27.1629C25.2711 27.561 26.1247 27.4771 26.9296 26.9755Z" fill="white"/>
<path d="M38.0112 26.9774C38.8161 26.4758 39.2675 25.7465 39.0195 25.3485C38.7714 24.9504 37.9178 25.0343 37.1129 25.5359C36.308 26.0375 35.8566 26.7668 36.1047 27.1649C36.3528 27.5629 37.2064 27.479 38.0112 26.9774Z" fill="white"/>
<path d="M24.3232 39.6542C24.5005 39.4862 24.6031 39.2342 24.5471 38.9635C24.4911 38.6649 24.2578 38.4222 23.9592 38.3662C23.4832 38.2729 23.0632 38.6369 23.0632 39.1035C23.0632 39.3182 23.1566 39.5142 23.3059 39.6542L22.7366 40.8021C22.6619 40.9607 22.6713 41.1474 22.7833 41.2874C23.0166 41.6047 23.4552 42.118 23.8192 42.118C24.1832 42.118 24.6218 41.6047 24.8551 41.2874C24.9578 41.1474 24.9765 40.9607 24.9018 40.8021L24.3325 39.6542H24.3232Z" fill="#1A2C38"/>
<path fill-rule="evenodd" clip-rule="evenodd" d="M6.49771 79C6.98969 79 7.48602 79.213 7.49037 79.6913C7.49037 80.1043 7.24656 80.2696 6.99839 80.2696C6.75023 80.2696 6.73281 80.1435 6.73281 80.1435C6.73281 80.1435 7.02452 79.9261 7.02452 79.7174C7.02452 79.6087 6.94179 79.313 6.489 79.3174C5.8577 79.3174 5.5181 79.6174 5.5181 80.1522C5.5181 80.7652 7.35105 80.9739 7.3554 81.7652C7.3554 82.613 6.47594 82.9957 5.69225 83C5.283 83 5.01306 82.7609 5.00871 82.3783C5.00871 81.9261 5.22204 81.4652 5.75756 81.4652C5.88382 81.4565 5.98831 81.5522 5.99702 81.6783C5.99702 81.6783 5.99702 81.6826 5.99702 81.687C5.99702 81.687 5.45715 81.8391 5.4615 82.3783C5.4615 82.4783 5.56599 82.6609 5.81851 82.6565C6.07103 82.6522 6.82424 82.4739 6.81989 81.8087C6.81989 81.1913 5.00435 81.1087 5 80.1478C5 79.0652 6.08845 79.0087 6.49771 79.0087V79ZM10.747 79.6C10.8123 79.5696 11.2129 79.4913 11.1955 79.813C11.1824 80.1348 10.9386 80.6913 10.9037 80.9348C11.2303 80.7696 11.6918 80.2087 11.6918 80.2087C11.6918 80.2087 12.0183 80.2522 11.9182 80.4522C11.818 80.6522 11.1519 81.1435 11.1519 81.1435C11.1519 81.1435 11.3043 82.5696 12.1707 82.5696C12.6453 82.5696 12.8499 82.3609 12.937 82.287C12.9587 82.2696 12.9762 82.2652 12.9849 82.2783C13.0197 82.387 12.9936 82.5043 12.9152 82.5913C12.8194 82.6957 12.5974 82.8217 12.1533 82.8261C11.3653 82.8261 10.9255 82.1957 10.8123 81.2609C10.7252 81.5348 10.7339 81.9826 10.7209 82.2C10.6948 82.2435 10.2507 82.4174 10.2158 82.1174C10.2158 82.0913 10.2158 82.0696 10.2158 82.0435C10.1331 82.1609 10.0199 82.2826 9.91108 82.2826C9.71951 82.2826 9.63679 82.1217 9.60196 82.0391C9.57584 82.0696 9.3625 82.287 9.08821 82.287C8.92277 82.2913 8.77474 82.1957 8.70943 82.0435C8.57011 82.1435 8.32195 82.2913 8.03895 82.2913C7.73418 82.2913 7.66017 82.1087 7.66017 81.9565C7.66017 81.713 7.84303 80.987 7.84303 80.987C7.84303 80.987 7.48602 81.1304 7.36411 81.1348C7.19431 81.1348 7.11159 80.8217 7.11159 80.813C7.11159 80.8087 7.11159 80.8 7.1203 80.8C7.22044 80.7609 7.94317 80.513 7.94317 80.513C7.94317 80.513 8.07813 79.9826 8.09555 79.913C8.11296 79.8435 8.2131 79.7 8.33065 79.6565C8.41773 79.6217 8.50916 79.6 8.60059 79.5913C8.63107 79.5913 8.65284 79.6 8.65284 79.6174C8.65284 79.6348 8.47433 80.4087 8.47433 80.4087C8.47433 80.4087 8.84876 80.3217 8.98808 80.3217C9.09692 80.3217 9.15352 80.387 9.09257 80.4696C9.03162 80.5522 8.96196 80.6478 8.92712 80.6913C8.88794 80.7348 8.86182 80.7435 8.77039 80.7609C8.64413 80.787 8.36113 80.8565 8.36113 80.8565C8.36113 80.8565 8.13473 81.6783 8.13909 81.8174C8.13909 81.8957 8.16521 81.987 8.26099 81.987C8.35678 81.987 8.53964 81.8739 8.67025 81.7913C8.69202 81.1522 9.18835 80.7261 9.57584 80.7261C9.7021 80.7261 9.65421 80.8478 9.79788 80.8478H9.88931C9.94591 80.8478 10.0069 80.8522 10.0069 80.9957C10.0069 81.1957 9.89367 81.5261 9.89367 81.7348C9.89367 81.8826 9.91544 81.987 9.97204 81.987C10.0678 81.987 10.1767 81.8478 10.255 81.7261C10.3813 81.0304 10.734 79.7609 10.734 79.6174L10.747 79.6ZM12.5016 80.7C12.7672 80.6783 12.9326 80.8217 12.9631 80.9C12.9936 80.9783 12.9892 81.1609 12.9152 81.2913C12.6845 81.7044 12.1097 81.6304 12.1097 81.6304C12.1097 81.6304 12.0444 81.9565 12.3405 81.9565C12.593 81.9565 12.7062 81.8304 12.8151 81.7261C12.8586 81.7261 12.9936 81.8652 12.9326 81.9609C12.8847 82.0348 12.6191 82.2565 12.2795 82.2609C11.7397 82.2609 11.6047 81.8 11.6744 81.4696C11.7658 81.0609 12.1751 80.7217 12.5016 80.6957V80.7ZM9.6455 80.987C9.32332 80.987 8.82699 81.9696 9.20577 81.9652C9.61938 81.9652 9.6455 81.1826 9.6455 81.0043V80.987ZM12.6409 80.8913C12.4232 80.9 12.1751 81.3174 12.1533 81.5C12.4798 81.513 12.654 81.1957 12.6757 81.0696C12.6888 80.9739 12.6932 80.887 12.6409 80.887V80.8913Z" fill="#557086"/>
<path d="M45.851 79.0672L44.2521 80.8632C44.1826 80.9428 44.1826 81.0572 44.2521 81.1368L45.846 82.9328C45.9255 83.0224 46.0695 83.0224 46.1539 82.9328L47.7478 81.1368C47.8173 81.0572 47.8173 80.9428 47.7478 80.8632L46.1539 79.0672C46.0744 78.9776 45.9304 78.9776 45.846 79.0672H45.851Z" fill="white"/>
<path d="M46.6604 79.6343L47.142 80.1766L45.568 82.6144L44.704 81.6393L46.6604 79.6343Z" fill="#8EA3B2"/>
<path d="M50.851 79.0672L49.2521 80.8632C49.1826 80.9428 49.1826 81.0572 49.2521 81.1368L50.846 82.9328C50.9255 83.0224 51.0695 83.0224 51.1539 82.9328L52.7478 81.1368C52.8173 81.0572 52.8173 80.9428 52.7478 80.8632L51.1539 79.0672C51.0744 78.9776 50.9304 78.9776 50.846 79.0672H50.851Z" fill="white"/>
<path d="M51.6604 79.6343L52.142 80.1766L50.568 82.6144L49.704 81.6393L51.6604 79.6343Z" fill="#8EA3B2"/>
<path d="M55.851 79.0672L54.2521 80.8632C54.1826 80.9428 54.1826 81.0572 54.2521 81.1368L55.846 82.9328C55.9255 83.0224 56.0695 83.0224 56.1539 82.9328L57.7478 81.1368C57.8173 81.0572 57.8173 80.9428 57.7478 80.8632L56.1539 79.0672C56.0744 78.9776 55.9304 78.9776 55.846 79.0672H55.851Z" fill="white"/>
<path d="M56.6604 79.6343L57.142 80.1766L55.568 82.6144L54.704 81.6393L56.6604 79.6343Z" fill="#8EA3B2"/>
<rect x="13" y="62" width="37" height="13" rx="6.5" fill="#2F4553"/>
<path d="M26.8779 70.072C25.7079 70.072 25.1619 69.058 25.1619 68.002C25.1619 66.946 25.7079 65.938 26.8779 65.938C28.0479 65.938 28.5939 66.946 28.5939 68.002C28.5939 69.058 28.0479 70.072 26.8779 70.072ZM26.8779 69.16C27.3579 69.16 27.5499 68.71 27.5499 68.002C27.5499 67.294 27.3579 66.85 26.8779 66.85C26.3979 66.85 26.2059 67.294 26.2059 68.002C26.2059 68.71 26.3979 69.16 26.8779 69.16ZM29.4661 70.072C29.1601 70.072 28.9021 69.814 28.9021 69.508C28.9021 69.202 29.1601 68.944 29.4661 68.944C29.7721 68.944 30.0301 69.202 30.0301 69.508C30.0301 69.814 29.7721 70.072 29.4661 70.072ZM33.6813 70H30.5433V69.196C32.2773 67.942 32.6013 67.666 32.6013 67.27C32.6013 66.994 32.3433 66.85 32.0493 66.85C31.6053 66.85 31.2693 67.018 30.9813 67.288L30.4113 66.604C30.8373 66.136 31.4733 65.938 32.0313 65.938C32.9733 65.938 33.6513 66.466 33.6513 67.27C33.6513 67.882 33.2133 68.404 32.2173 69.1H33.6813V70ZM37.0318 70H36.0178L35.4598 69.124L34.8958 70H33.8878L34.8778 68.512L33.9478 67.102H34.9618L35.4598 67.888L35.9518 67.102H36.9658L36.0418 68.512L37.0318 70Z" fill="white"/>
<path d="M6.835 11.06C5.82 11.06 5.33 10.49 5.33 9.67V7.665H6.05V9.645C6.05 10.11 6.32 10.43 6.835 10.43C7.35 10.43 7.615 10.11 7.615 9.645V7.665H8.34V9.665C8.34 10.495 7.85 11.06 6.835 11.06ZM11.247 11H10.612V9.54C10.612 9.205 10.437 9.09 10.167 9.09C9.91699 9.09 9.72199 9.23 9.61699 9.375V11H8.98199V8.585H9.61699V8.9C9.77199 8.715 10.067 8.525 10.462 8.525C10.992 8.525 11.247 8.825 11.247 9.295V11ZM13.0025 11.06C12.2575 11.06 11.7225 10.535 11.7225 9.79C11.7225 9.05 12.2575 8.525 13.0025 8.525C13.4975 8.525 13.7975 8.74 13.9575 8.96L13.5425 9.35C13.4275 9.18 13.2525 9.09 13.0325 9.09C12.6475 9.09 12.3775 9.37 12.3775 9.79C12.3775 10.21 12.6475 10.495 13.0325 10.495C13.2525 10.495 13.4275 10.395 13.5425 10.235L13.9575 10.62C13.7975 10.845 13.4975 11.06 13.0025 11.06ZM15.4926 11.06C14.6976 11.06 14.2176 10.48 14.2176 9.79C14.2176 9.105 14.6976 8.525 15.4926 8.525C16.2926 8.525 16.7726 9.105 16.7726 9.79C16.7726 10.48 16.2926 11.06 15.4926 11.06ZM15.4926 10.495C15.8876 10.495 16.1126 10.17 16.1126 9.79C16.1126 9.415 15.8876 9.09 15.4926 9.09C15.0976 9.09 14.8776 9.415 14.8776 9.79C14.8776 10.17 15.0976 10.495 15.4926 10.495ZM20.8787 11H20.2387V9.475C20.2387 9.25 20.1387 9.09 19.8787 9.09C19.6537 9.09 19.4687 9.24 19.3787 9.37V11H18.7387V9.475C18.7387 9.25 18.6387 9.09 18.3787 9.09C18.1587 9.09 17.9737 9.24 17.8787 9.375V11H17.2437V8.585H17.8787V8.9C17.9787 8.755 18.2987 8.525 18.6687 8.525C19.0237 8.525 19.2487 8.69 19.3387 8.965C19.4787 8.745 19.7987 8.525 20.1687 8.525C20.6137 8.525 20.8787 8.76 20.8787 9.255V11ZM25.1365 11H24.4965V9.475C24.4965 9.25 24.3965 9.09 24.1365 9.09C23.9115 9.09 23.7265 9.24 23.6365 9.37V11H22.9965V9.475C22.9965 9.25 22.8965 9.09 22.6365 9.09C22.4165 9.09 22.2315 9.24 22.1365 9.375V11H21.5015V8.585H22.1365V8.9C22.2365 8.755 22.5565 8.525 22.9265 8.525C23.2815 8.525 23.5065 8.69 23.5965 8.965C23.7365 8.745 24.0565 8.525 24.4265 8.525C24.8715 8.525 25.1365 8.76 25.1365 9.255V11ZM26.8793 11.06C26.0843 11.06 25.6043 10.48 25.6043 9.79C25.6043 9.105 26.0843 8.525 26.8793 8.525C27.6793 8.525 28.1593 9.105 28.1593 9.79C28.1593 10.48 27.6793 11.06 26.8793 11.06ZM26.8793 10.495C27.2743 10.495 27.4993 10.17 27.4993 9.79C27.4993 9.415 27.2743 9.09 26.8793 9.09C26.4843 9.09 26.2643 9.415 26.2643 9.79C26.2643 10.17 26.4843 10.495 26.8793 10.495ZM30.8954 11H30.2604V9.54C30.2604 9.205 30.0854 9.09 29.8154 9.09C29.5654 9.09 29.3704 9.23 29.2654 9.375V11H28.6304V8.585H29.2654V8.9C29.4204 8.715 29.7154 8.525 30.1104 8.525C30.6404 8.525 30.8954 8.825 30.8954 9.295V11Z" fill="white"/>
<path d="M47.0726 11H46.6206L45.2286 9.096V11H44.7606V8.332H45.2406L46.6046 10.184V8.332H47.0726V11ZM48.4995 11.048C47.8875 11.048 47.5075 10.588 47.5075 10.032C47.5075 9.48 47.8875 9.02 48.4995 9.02C49.1195 9.02 49.4955 9.48 49.4955 10.032C49.4955 10.588 49.1195 11.048 48.4995 11.048ZM48.4995 10.676C48.8595 10.676 49.0595 10.376 49.0595 10.032C49.0595 9.692 48.8595 9.392 48.4995 9.392C48.1435 9.392 47.9435 9.692 47.9435 10.032C47.9435 10.376 48.1435 10.676 48.4995 10.676ZM50.1169 11.044C49.9649 11.044 49.8369 10.916 49.8369 10.764C49.8369 10.612 49.9649 10.484 50.1169 10.484C50.2689 10.484 50.3969 10.612 50.3969 10.764C50.3969 10.916 50.2689 11.044 50.1169 11.044ZM52.8727 11H52.4047V8.94L51.9687 9.392L51.6967 9.108L52.4647 8.332H52.8727V11ZM55.2883 11H53.3563V10.632C54.3923 9.848 54.7963 9.5 54.7963 9.116C54.7963 8.836 54.5563 8.708 54.3123 8.708C54.0003 8.708 53.7603 8.836 53.5923 9.028L53.3203 8.72C53.5563 8.436 53.9323 8.292 54.3043 8.292C54.8203 8.292 55.2723 8.584 55.2723 9.116C55.2723 9.608 54.8203 10.048 54.1043 10.588H55.2883V11ZM56.7672 11.048C56.0192 11.048 55.6992 10.34 55.6992 9.668C55.6992 8.996 56.0192 8.292 56.7672 8.292C57.5152 8.292 57.8352 8.996 57.8352 9.668C57.8352 10.34 57.5152 11.048 56.7672 11.048ZM56.7672 10.632C57.2032 10.632 57.3592 10.176 57.3592 9.668C57.3592 9.16 57.2032 8.708 56.7672 8.708C56.3312 8.708 56.1752 9.16 56.1752 9.668C56.1752 10.176 56.3312 10.632 56.7672 10.632Z" fill="white"/>
</svg>
