<svg width="63" height="88" viewBox="0 0 63 88" fill="none" xmlns="http://www.w3.org/2000/svg">
<rect width="63" height="88" rx="4" fill="#047BFF"/>
<path d="M36.7008 13.5133L44.7992 3.48665C45.5586 2.54645 46.7024 2 47.911 2H58C59.6569 2 61 3.34314 61 5V83C61 84.6569 59.6569 86 58 86H5C3.34315 86 2 84.6569 2 83V18C2 16.3431 3.34315 15 5 15H33.589C34.7976 15 35.9414 14.4536 36.7008 13.5133Z" fill="#213743"/>
<rect x="5" y="18" width="53" height="40" rx="1" fill="#2F4553"/>
<path d="M15.95 43.46H10.04C8.93547 43.46 8.04004 44.3554 8.04004 45.46V50C8.04004 51.1045 8.93547 52 10.04 52H15.95C17.0546 52 17.95 51.1045 17.95 50V45.46C17.95 44.3554 17.0546 43.46 15.95 43.46Z" fill="#1A2C38"/>
<path d="M48.44 24H14.56C13.0743 24 11.87 25.2044 11.87 26.69V49.31C11.87 50.7956 13.0743 52 14.56 52H48.44C49.9256 52 51.13 50.7956 51.13 49.31V26.69C51.13 25.2044 49.9256 24 48.44 24Z" fill="#008C00"/>
<path d="M51.1301 26.69V49.31C51.1301 50.8 49.9201 52 48.4401 52H42.8201V24H48.4401C49.9201 24 51.1301 25.2 51.1301 26.69Z" fill="white"/>
<path d="M48.01 27.47H14.99C13.6259 27.47 12.52 28.5758 12.52 29.94V49.53C12.52 50.8941 13.6259 52 14.99 52H48.01C49.3742 52 50.48 50.8941 50.48 49.53V29.94C50.48 28.5758 49.3742 27.47 48.01 27.47Z" fill="#1CE61C"/>
<path d="M47.3801 32.4099H15.6101C14.6988 32.4099 13.9601 33.1486 13.9601 34.0599V48.8599C13.9601 49.7712 14.6988 50.5099 15.6101 50.5099H47.3801C48.2914 50.5099 49.0301 49.7712 49.0301 48.8599V34.0599C49.0301 33.1486 48.2914 32.4099 47.3801 32.4099Z" fill="#008C00"/>
<path d="M18.02 44.51H18.01C16.8392 44.51 15.89 45.4592 15.89 46.63V46.64C15.89 47.8109 16.8392 48.76 18.01 48.76H18.02C19.1909 48.76 20.14 47.8109 20.14 46.64V46.63C20.14 45.4592 19.1909 44.51 18.02 44.51Z" fill="#FFC201"/>
<path d="M43.6 38.36C43.6 39.22 43.26 39.99 42.7 40.55C42.14 41.12 41.37 41.46 40.51 41.46H22.5C20.79 41.46 19.4 40.07 19.4 38.36C19.4 37.51 19.74 36.73 20.31 36.17C20.87 35.61 21.64 35.27 22.5 35.27H40.51C42.22 35.27 43.6 36.66 43.6 38.36Z" fill="#FF7F00"/>
<path d="M30.71 38.36C30.71 39.46 30.5 40.5 30.1 41.46H22.49C20.78 41.46 19.39 40.07 19.39 38.36C19.39 37.51 19.73 36.73 20.3 36.17C20.86 35.61 21.63 35.27 22.49 35.27H30.1C30.49 36.22 30.71 37.27 30.71 38.36Z" fill="#1A2C38"/>
<path d="M22.5001 42.9001C25.0075 42.9001 27.0401 40.8674 27.0401 38.3601C27.0401 35.8527 25.0075 33.8201 22.5001 33.8201C19.9927 33.8201 17.9601 35.8527 17.9601 38.3601C17.9601 40.8674 19.9927 42.9001 22.5001 42.9001Z" fill="#008C00"/>
<path d="M22.5 41.46C24.2121 41.46 25.6 40.0721 25.6 38.36C25.6 36.6479 24.2121 35.26 22.5 35.26C20.7879 35.26 19.4 36.6479 19.4 38.36C19.4 40.0721 20.7879 41.46 22.5 41.46Z" fill="#2F4553"/>
<path d="M43.6 38.36C43.6 39.22 43.26 39.99 42.7 40.55C42.14 41.12 41.37 41.46 40.51 41.46H32.9C32.51 40.5 32.29 39.46 32.29 38.36C32.29 37.26 32.5 36.22 32.9 35.27H40.51C42.22 35.27 43.6 36.66 43.6 38.36Z" fill="#1A2C38"/>
<path d="M45.04 38.3601C45.04 39.3901 44.7 40.3501 44.11 41.1201C43.28 42.2101 41.98 42.9101 40.51 42.9101C38.01 42.9101 35.98 40.8701 35.98 38.3701C35.98 36.9001 36.68 35.6001 37.77 34.7701C38.53 34.1801 39.48 33.8401 40.52 33.8401C43.02 33.8401 45.05 35.8701 45.05 38.3701L45.04 38.3601Z" fill="#008C00"/>
<path d="M40.5 41.46C42.2121 41.46 43.6 40.0721 43.6 38.36C43.6 36.6479 42.2121 35.26 40.5 35.26C38.7879 35.26 37.4 36.6479 37.4 38.36C37.4 40.0721 38.7879 41.46 40.5 41.46Z" fill="#2F4553"/>
<path d="M39.07 32.41H23.93C23.1 32.41 22.33 32 21.87 31.31L20.28 28.94C19.67 28.02 18.64 27.47 17.54 27.47H45.46C44.36 27.47 43.33 28.02 42.72 28.94L41.13 31.31C40.67 32 39.9 32.41 39.07 32.41Z" fill="#FFC201"/>
<path d="M45.27 24H17.31C16.8571 24 16.49 24.3671 16.49 24.82V26.65C16.49 27.1029 16.8571 27.47 17.31 27.47H45.27C45.7229 27.47 46.09 27.1029 46.09 26.65V24.82C46.09 24.3671 45.7229 24 45.27 24Z" fill="#FF7F00"/>
<path d="M14.9301 30.8599C15.4603 30.8599 15.8901 30.4301 15.8901 29.8999C15.8901 29.3697 15.4603 28.9399 14.9301 28.9399C14.3999 28.9399 13.9701 29.3697 13.9701 29.8999C13.9701 30.4301 14.3999 30.8599 14.9301 30.8599Z" fill="#008C00"/>
<path d="M48.0701 30.8599C48.6003 30.8599 49.0301 30.4301 49.0301 29.8999C49.0301 29.3697 48.6003 28.9399 48.0701 28.9399C47.5399 28.9399 47.1101 29.3697 47.1101 29.8999C47.1101 30.4301 47.5399 30.8599 48.0701 30.8599Z" fill="#008C00"/>
<path d="M44.99 44.51H24.62C23.4492 44.51 22.5 45.4592 22.5 46.63V46.64C22.5 47.8109 23.4492 48.76 24.62 48.76H44.99C46.1608 48.76 47.11 47.8109 47.11 46.64V46.63C47.11 45.4592 46.1608 44.51 44.99 44.51Z" fill="#FFC201"/>
<path d="M25.25 37.27C25.09 37.32 24.97 37.44 24.91 37.6L24.62 38.49C24.57 38.65 24.6 38.82 24.7 38.95L24.93 39.25C24.59 39.69 24.13 40.04 23.6 40.24L23.37 39.91C23.28 39.77 23.12 39.69 22.96 39.69H22.02C21.85 39.69 21.7 39.77 21.61 39.91L21.38 40.24C20.85 40.04 20.4 39.69 20.05 39.25L20.28 38.95C20.38 38.82 20.41 38.65 20.36 38.49L20.07 37.6C20.02 37.44 19.89 37.32 19.73 37.27L19.6 37.23C19.46 37.58 19.38 37.96 19.38 38.35C19.38 40.06 20.77 41.45 22.48 41.45C24.19 41.45 25.58 40.06 25.58 38.35C25.58 37.95 25.5 37.57 25.36 37.23L25.23 37.27H25.25Z" fill="#1CE61C"/>
<path d="M22.03 40.7H22.97C23.14 40.7 23.29 40.7799 23.38 40.9199L24.23 42.1699H20.76L21.61 40.9199C21.7 40.7799 21.86 40.7 22.02 40.7H22.03Z" fill="#008C00"/>
<path d="M24.6201 39.4899L24.9101 38.5999C24.9601 38.4399 25.0901 38.3199 25.2501 38.2699L26.7001 37.8499L25.6301 41.1499L24.7001 39.9499C24.6001 39.8199 24.5701 39.6499 24.6201 39.4899Z" fill="#008C00"/>
<path d="M24.2801 36.6599L23.5201 36.1099C23.3901 36.0099 23.3101 35.8599 23.3101 35.6899L23.3601 34.1799L26.1701 36.2199L24.7501 36.7299C24.5901 36.7899 24.4201 36.7599 24.2901 36.6599H24.2801Z" fill="#008C00"/>
<path d="M21.4701 36.0999L20.7101 36.6499C20.5801 36.7499 20.4001 36.7699 20.2501 36.7199L18.8301 36.2099L21.6401 34.1699L21.6901 35.6799C21.6901 35.8499 21.6201 35.9999 21.4801 36.0999H21.4701Z" fill="#008C00"/>
<path d="M20.08 38.5999L20.37 39.4899C20.42 39.6499 20.39 39.8199 20.29 39.9499L19.36 41.1499L18.29 37.8499L19.74 38.2699C19.9 38.3199 20.02 38.4399 20.08 38.5999Z" fill="#008C00"/>
<path d="M43.25 37.27C43.09 37.32 42.97 37.44 42.91 37.6L42.62 38.49C42.57 38.65 42.6 38.82 42.7 38.95L42.93 39.25C42.59 39.69 42.13 40.04 41.6 40.24L41.37 39.91C41.28 39.77 41.12 39.69 40.96 39.69H40.02C39.85 39.69 39.7 39.77 39.61 39.91L39.38 40.24C38.85 40.04 38.4 39.69 38.05 39.25L38.28 38.95C38.38 38.82 38.41 38.65 38.36 38.49L38.07 37.6C38.02 37.44 37.89 37.32 37.73 37.27L37.6 37.23C37.46 37.58 37.38 37.96 37.38 38.35C37.38 40.06 38.77 41.45 40.48 41.45C42.19 41.45 43.58 40.06 43.58 38.35C43.58 37.95 43.5 37.57 43.36 37.23L43.23 37.27H43.25Z" fill="#1CE61C"/>
<path d="M40.03 40.7H40.97C41.14 40.7 41.29 40.7799 41.38 40.9199L42.23 42.1699H38.76L39.61 40.9199C39.7 40.7799 39.86 40.7 40.02 40.7H40.03Z" fill="#008C00"/>
<path d="M42.6301 39.4899L42.9201 38.5999C42.9701 38.4399 43.1001 38.3199 43.2601 38.2699L44.7101 37.8499L43.6401 41.1499L42.7101 39.9499C42.6101 39.8199 42.5801 39.6499 42.6301 39.4899Z" fill="#008C00"/>
<path d="M42.2901 36.6599L41.5301 36.1099C41.4001 36.0099 41.3201 35.8599 41.3201 35.6899L41.3701 34.1799L44.1801 36.2199L42.7601 36.7299C42.6001 36.7899 42.4301 36.7599 42.3001 36.6599H42.2901Z" fill="#008C00"/>
<path d="M39.4801 36.0999L38.7201 36.6499C38.5901 36.7499 38.4101 36.7699 38.2601 36.7199L36.8401 36.2099L39.6501 34.1699L39.7001 35.6799C39.7001 35.8499 39.6301 35.9999 39.4901 36.0999H39.4801Z" fill="#008C00"/>
<path d="M38.09 38.5999L38.3801 39.4899C38.4301 39.6499 38.4 39.8199 38.3 39.9499L37.37 41.1499L36.3 37.8499L37.75 38.2699C37.91 38.3199 38.03 38.4399 38.09 38.5999Z" fill="#008C00"/>
<path fill-rule="evenodd" clip-rule="evenodd" d="M6.49771 79C6.98969 79 7.48602 79.213 7.49037 79.6913C7.49037 80.1043 7.24656 80.2696 6.99839 80.2696C6.75023 80.2696 6.73281 80.1435 6.73281 80.1435C6.73281 80.1435 7.02452 79.9261 7.02452 79.7174C7.02452 79.6087 6.94179 79.313 6.489 79.3174C5.8577 79.3174 5.5181 79.6174 5.5181 80.1522C5.5181 80.7652 7.35105 80.9739 7.3554 81.7652C7.3554 82.613 6.47594 82.9957 5.69225 83C5.283 83 5.01306 82.7609 5.00871 82.3783C5.00871 81.9261 5.22204 81.4652 5.75756 81.4652C5.88382 81.4565 5.98831 81.5522 5.99702 81.6783C5.99702 81.6783 5.99702 81.6826 5.99702 81.687C5.99702 81.687 5.45715 81.8391 5.4615 82.3783C5.4615 82.4783 5.56599 82.6609 5.81851 82.6565C6.07103 82.6522 6.82424 82.4739 6.81989 81.8087C6.81989 81.1913 5.00435 81.1087 5 80.1478C5 79.0652 6.08845 79.0087 6.49771 79.0087V79ZM10.747 79.6C10.8123 79.5696 11.2129 79.4913 11.1955 79.813C11.1824 80.1348 10.9386 80.6913 10.9037 80.9348C11.2303 80.7696 11.6918 80.2087 11.6918 80.2087C11.6918 80.2087 12.0183 80.2522 11.9182 80.4522C11.818 80.6522 11.1519 81.1435 11.1519 81.1435C11.1519 81.1435 11.3043 82.5696 12.1707 82.5696C12.6453 82.5696 12.8499 82.3609 12.937 82.287C12.9587 82.2696 12.9762 82.2652 12.9849 82.2783C13.0197 82.387 12.9936 82.5043 12.9152 82.5913C12.8194 82.6957 12.5974 82.8217 12.1533 82.8261C11.3653 82.8261 10.9255 82.1957 10.8123 81.2609C10.7252 81.5348 10.7339 81.9826 10.7209 82.2C10.6948 82.2435 10.2507 82.4174 10.2158 82.1174C10.2158 82.0913 10.2158 82.0696 10.2158 82.0435C10.1331 82.1609 10.0199 82.2826 9.91108 82.2826C9.71951 82.2826 9.63679 82.1217 9.60196 82.0391C9.57584 82.0696 9.3625 82.287 9.08821 82.287C8.92277 82.2913 8.77474 82.1957 8.70943 82.0435C8.57011 82.1435 8.32195 82.2913 8.03895 82.2913C7.73418 82.2913 7.66017 82.1087 7.66017 81.9565C7.66017 81.713 7.84303 80.987 7.84303 80.987C7.84303 80.987 7.48602 81.1304 7.36411 81.1348C7.19431 81.1348 7.11159 80.8217 7.11159 80.813C7.11159 80.8087 7.11159 80.8 7.1203 80.8C7.22044 80.7609 7.94317 80.513 7.94317 80.513C7.94317 80.513 8.07813 79.9826 8.09555 79.913C8.11296 79.8435 8.2131 79.7 8.33065 79.6565C8.41773 79.6217 8.50916 79.6 8.60059 79.5913C8.63107 79.5913 8.65284 79.6 8.65284 79.6174C8.65284 79.6348 8.47433 80.4087 8.47433 80.4087C8.47433 80.4087 8.84876 80.3217 8.98808 80.3217C9.09692 80.3217 9.15352 80.387 9.09257 80.4696C9.03162 80.5522 8.96196 80.6478 8.92712 80.6913C8.88794 80.7348 8.86182 80.7435 8.77039 80.7609C8.64413 80.787 8.36113 80.8565 8.36113 80.8565C8.36113 80.8565 8.13473 81.6783 8.13909 81.8174C8.13909 81.8957 8.16521 81.987 8.26099 81.987C8.35678 81.987 8.53964 81.8739 8.67025 81.7913C8.69202 81.1522 9.18835 80.7261 9.57584 80.7261C9.7021 80.7261 9.65421 80.8478 9.79788 80.8478H9.88931C9.94591 80.8478 10.0069 80.8522 10.0069 80.9957C10.0069 81.1957 9.89367 81.5261 9.89367 81.7348C9.89367 81.8826 9.91544 81.987 9.97204 81.987C10.0678 81.987 10.1767 81.8478 10.255 81.7261C10.3813 81.0304 10.734 79.7609 10.734 79.6174L10.747 79.6ZM12.5016 80.7C12.7672 80.6783 12.9326 80.8217 12.9631 80.9C12.9936 80.9783 12.9892 81.1609 12.9152 81.2913C12.6845 81.7044 12.1097 81.6304 12.1097 81.6304C12.1097 81.6304 12.0444 81.9565 12.3405 81.9565C12.593 81.9565 12.7062 81.8304 12.8151 81.7261C12.8586 81.7261 12.9936 81.8652 12.9326 81.9609C12.8847 82.0348 12.6191 82.2565 12.2795 82.2609C11.7397 82.2609 11.6047 81.8 11.6744 81.4696C11.7658 81.0609 12.1751 80.7217 12.5016 80.6957V80.7ZM9.6455 80.987C9.32332 80.987 8.82699 81.9696 9.20577 81.9652C9.61938 81.9652 9.6455 81.1826 9.6455 81.0043V80.987ZM12.6409 80.8913C12.4232 80.9 12.1751 81.3174 12.1533 81.5C12.4798 81.513 12.654 81.1957 12.6757 81.0696C12.6888 80.9739 12.6932 80.887 12.6409 80.887V80.8913Z" fill="#557086"/>
<path d="M45.851 79.0672L44.2521 80.8632C44.1826 80.9428 44.1826 81.0572 44.2521 81.1368L45.846 82.9328C45.9255 83.0224 46.0695 83.0224 46.1539 82.9328L47.7478 81.1368C47.8173 81.0572 47.8173 80.9428 47.7478 80.8632L46.1539 79.0672C46.0744 78.9776 45.9304 78.9776 45.846 79.0672H45.851Z" fill="white"/>
<path d="M46.6604 79.6343L47.142 80.1766L45.568 82.6144L44.704 81.6393L46.6604 79.6343Z" fill="#8EA3B2"/>
<path d="M50.851 79.0672L49.2521 80.8632C49.1826 80.9428 49.1826 81.0572 49.2521 81.1368L50.846 82.9328C50.9255 83.0224 51.0695 83.0224 51.1539 82.9328L52.7478 81.1368C52.8173 81.0572 52.8173 80.9428 52.7478 80.8632L51.1539 79.0672C51.0744 78.9776 50.9304 78.9776 50.846 79.0672H50.851Z" fill="white"/>
<path d="M51.6604 79.6343L52.142 80.1766L50.568 82.6144L49.704 81.6393L51.6604 79.6343Z" fill="#8EA3B2"/>
<path d="M55.851 79.0672L54.2521 80.8632C54.1826 80.9428 54.1826 81.0572 54.2521 81.1368L55.846 82.9328C55.9255 83.0224 56.0695 83.0224 56.1539 82.9328L57.7478 81.1368C57.8173 81.0572 57.8173 80.9428 57.7478 80.8632L56.1539 79.0672C56.0744 78.9776 55.9304 78.9776 55.846 79.0672H55.851Z" fill="white"/>
<path d="M56.6604 79.6343L57.142 80.1766L55.568 82.6144L54.704 81.6393L56.6604 79.6343Z" fill="#8EA3B2"/>
<rect x="13" y="62" width="37" height="13" rx="6.5" fill="#2F4553"/>
<path d="M26.3378 70.072C25.1678 70.072 24.6218 69.058 24.6218 68.002C24.6218 66.946 25.1678 65.938 26.3378 65.938C27.5078 65.938 28.0538 66.946 28.0538 68.002C28.0538 69.058 27.5078 70.072 26.3378 70.072ZM26.3378 69.16C26.8178 69.16 27.0098 68.71 27.0098 68.002C27.0098 67.294 26.8178 66.85 26.3378 66.85C25.8578 66.85 25.6658 67.294 25.6658 68.002C25.6658 68.71 25.8578 69.16 26.3378 69.16ZM28.9261 70.072C28.6201 70.072 28.3621 69.814 28.3621 69.508C28.3621 69.202 28.6201 68.944 28.9261 68.944C29.2321 68.944 29.4901 69.202 29.4901 69.508C29.4901 69.814 29.2321 70.072 28.9261 70.072ZM31.3991 70H30.3671V67.318L29.6951 67.996L29.1071 67.378L30.5051 65.998H31.3991V70ZM33.6147 70.072C32.9067 70.072 32.3727 69.856 32.0007 69.49L32.5647 68.77C32.8407 69.022 33.2187 69.16 33.6027 69.16C34.0407 69.16 34.2567 68.944 34.2567 68.698C34.2567 68.428 34.0467 68.236 33.6327 68.236C33.3147 68.236 33.0627 68.326 32.8407 68.536L32.1267 68.362V65.998H35.0307V66.898H33.1587V67.672C33.3507 67.486 33.6627 67.354 34.0167 67.354C34.6947 67.354 35.3067 67.852 35.3067 68.656C35.3067 69.52 34.6527 70.072 33.6147 70.072ZM38.5719 70H37.5579L36.9999 69.124L36.4359 70H35.4279L36.4179 68.512L35.4879 67.102H36.5019L36.9999 67.888L37.4919 67.102H38.5059L37.5819 68.512L38.5719 70Z" fill="white"/>
<path d="M6.835 11.06C5.82 11.06 5.33 10.49 5.33 9.67V7.665H6.05V9.645C6.05 10.11 6.32 10.43 6.835 10.43C7.35 10.43 7.615 10.11 7.615 9.645V7.665H8.34V9.665C8.34 10.495 7.85 11.06 6.835 11.06ZM11.247 11H10.612V9.54C10.612 9.205 10.437 9.09 10.167 9.09C9.91699 9.09 9.72199 9.23 9.61699 9.375V11H8.98199V8.585H9.61699V8.9C9.77199 8.715 10.067 8.525 10.462 8.525C10.992 8.525 11.247 8.825 11.247 9.295V11ZM13.0025 11.06C12.2575 11.06 11.7225 10.535 11.7225 9.79C11.7225 9.05 12.2575 8.525 13.0025 8.525C13.4975 8.525 13.7975 8.74 13.9575 8.96L13.5425 9.35C13.4275 9.18 13.2525 9.09 13.0325 9.09C12.6475 9.09 12.3775 9.37 12.3775 9.79C12.3775 10.21 12.6475 10.495 13.0325 10.495C13.2525 10.495 13.4275 10.395 13.5425 10.235L13.9575 10.62C13.7975 10.845 13.4975 11.06 13.0025 11.06ZM15.4926 11.06C14.6976 11.06 14.2176 10.48 14.2176 9.79C14.2176 9.105 14.6976 8.525 15.4926 8.525C16.2926 8.525 16.7726 9.105 16.7726 9.79C16.7726 10.48 16.2926 11.06 15.4926 11.06ZM15.4926 10.495C15.8876 10.495 16.1126 10.17 16.1126 9.79C16.1126 9.415 15.8876 9.09 15.4926 9.09C15.0976 9.09 14.8776 9.415 14.8776 9.79C14.8776 10.17 15.0976 10.495 15.4926 10.495ZM20.8787 11H20.2387V9.475C20.2387 9.25 20.1387 9.09 19.8787 9.09C19.6537 9.09 19.4687 9.24 19.3787 9.37V11H18.7387V9.475C18.7387 9.25 18.6387 9.09 18.3787 9.09C18.1587 9.09 17.9737 9.24 17.8787 9.375V11H17.2437V8.585H17.8787V8.9C17.9787 8.755 18.2987 8.525 18.6687 8.525C19.0237 8.525 19.2487 8.69 19.3387 8.965C19.4787 8.745 19.7987 8.525 20.1687 8.525C20.6137 8.525 20.8787 8.76 20.8787 9.255V11ZM25.1365 11H24.4965V9.475C24.4965 9.25 24.3965 9.09 24.1365 9.09C23.9115 9.09 23.7265 9.24 23.6365 9.37V11H22.9965V9.475C22.9965 9.25 22.8965 9.09 22.6365 9.09C22.4165 9.09 22.2315 9.24 22.1365 9.375V11H21.5015V8.585H22.1365V8.9C22.2365 8.755 22.5565 8.525 22.9265 8.525C23.2815 8.525 23.5065 8.69 23.5965 8.965C23.7365 8.745 24.0565 8.525 24.4265 8.525C24.8715 8.525 25.1365 8.76 25.1365 9.255V11ZM26.8793 11.06C26.0843 11.06 25.6043 10.48 25.6043 9.79C25.6043 9.105 26.0843 8.525 26.8793 8.525C27.6793 8.525 28.1593 9.105 28.1593 9.79C28.1593 10.48 27.6793 11.06 26.8793 11.06ZM26.8793 10.495C27.2743 10.495 27.4993 10.17 27.4993 9.79C27.4993 9.415 27.2743 9.09 26.8793 9.09C26.4843 9.09 26.2643 9.415 26.2643 9.79C26.2643 10.17 26.4843 10.495 26.8793 10.495ZM30.8954 11H30.2604V9.54C30.2604 9.205 30.0854 9.09 29.8154 9.09C29.5654 9.09 29.3704 9.23 29.2654 9.375V11H28.6304V8.585H29.2654V8.9C29.4204 8.715 29.7154 8.525 30.1104 8.525C30.6404 8.525 30.8954 8.825 30.8954 9.295V11Z" fill="white"/>
<path d="M48.0179 11H47.5659L46.1739 9.096V11H45.7059V8.332H46.1859L47.5499 10.184V8.332H48.0179V11ZM49.4448 11.048C48.8328 11.048 48.4528 10.588 48.4528 10.032C48.4528 9.48 48.8328 9.02 49.4448 9.02C50.0648 9.02 50.4408 9.48 50.4408 10.032C50.4408 10.588 50.0648 11.048 49.4448 11.048ZM49.4448 10.676C49.8048 10.676 50.0048 10.376 50.0048 10.032C50.0048 9.692 49.8048 9.392 49.4448 9.392C49.0888 9.392 48.8888 9.692 48.8888 10.032C48.8888 10.376 49.0888 10.676 49.4448 10.676ZM51.0622 11.044C50.9102 11.044 50.7822 10.916 50.7822 10.764C50.7822 10.612 50.9102 10.484 51.0622 10.484C51.2142 10.484 51.3422 10.612 51.3422 10.764C51.3422 10.916 51.2142 11.044 51.0622 11.044ZM53.818 11H53.35V8.94L52.914 9.392L52.642 9.108L53.41 8.332H53.818V11ZM56.2336 11H54.3016V10.632C55.3376 9.848 55.7416 9.5 55.7416 9.116C55.7416 8.836 55.5016 8.708 55.2576 8.708C54.9456 8.708 54.7056 8.836 54.5376 9.028L54.2656 8.72C54.5016 8.436 54.8776 8.292 55.2496 8.292C55.7656 8.292 56.2176 8.584 56.2176 9.116C56.2176 9.608 55.7656 10.048 55.0496 10.588H56.2336V11ZM57.7165 11H57.2485V8.94L56.8125 9.392L56.5405 9.108L57.3085 8.332H57.7165V11Z" fill="white"/>
</svg>
