<svg width="63" height="88" viewBox="0 0 63 88" fill="none" xmlns="http://www.w3.org/2000/svg">
<rect width="63" height="88" rx="4" fill="#047BFF"/>
<path d="M36.7008 13.5133L44.7992 3.48665C45.5586 2.54645 46.7024 2 47.911 2H58C59.6569 2 61 3.34314 61 5V83C61 84.6569 59.6569 86 58 86H5C3.34315 86 2 84.6569 2 83V18C2 16.3431 3.34315 15 5 15H33.589C34.7976 15 35.9414 14.4536 36.7008 13.5133Z" fill="#213743"/>
<rect x="5" y="18" width="53" height="40" rx="1" fill="#2F4553"/>
<g clip-path="url(#clip0_26835_29285)">
<path d="M31.5194 52.6211C43.6917 52.6211 53.5594 50.4009 53.5594 47.6621C53.5594 44.9233 43.6917 42.7031 31.5194 42.7031C19.347 42.7031 9.47937 44.9233 9.47937 47.6621C9.47937 50.4009 19.347 52.6211 31.5194 52.6211Z" fill="#1A2C38"/>
<path d="M29.4199 30.4861L50.1489 41.9906L52.7899 34.0581L31.9849 22.5156L29.4199 30.4861Z" fill="#FFEBB8"/>
<path d="M28.869 29.6787L10.3915 45.6482C9.08998 46.7787 10.078 48.9067 11.7785 48.6407L51.08 42.4087L49.2845 39.5112L28.8595 29.6882L28.869 29.6787Z" fill="#FF7F00"/>
<path d="M8.26343 44.9262C8.26343 44.9262 8.69093 46.5032 10.2014 48.0327L16.4619 44.6697L8.26343 44.9262Z" fill="#FF5500"/>
<path d="M54.9182 38.8391C55.3883 36.5307 54.4357 34.3878 52.7905 34.0528C51.1453 33.7178 49.4306 35.3175 48.9605 37.6259C48.4904 39.9343 49.4431 42.0772 51.0882 42.4123C52.7334 42.7473 54.4482 41.1475 54.9182 38.8391Z" fill="#FF7F00"/>
<path d="M33.2499 26.9119C33.72 24.6035 32.7674 22.4606 31.1222 22.1256C29.477 21.7906 27.7622 23.3903 27.2922 25.6987C26.8221 28.0071 27.7747 30.15 29.4199 30.485C31.0651 30.82 32.7798 29.2203 33.2499 26.9119Z" fill="#FFEBB8"/>
<path d="M27.178 26.8286L8.60547 42.7411C7.30397 43.8716 8.29197 45.9996 9.99247 45.7336L48.876 39.2546L27.178 26.8286Z" fill="#FFEBB8"/>
<path d="M26.6459 40.6606H26.6364C25.8756 40.6606 25.2589 41.2774 25.2589 42.0381V48.7926C25.2589 49.5534 25.8756 50.1701 26.6364 50.1701H26.6459C27.4067 50.1701 28.0234 49.5534 28.0234 48.7926V42.0381C28.0234 41.2774 27.4067 40.6606 26.6459 40.6606Z" fill="#FFEBB8"/>
<path d="M27.8239 32.5665C28.7054 32.5665 29.4199 32.1667 29.4199 31.6735C29.4199 31.1803 28.7054 30.7805 27.8239 30.7805C26.9425 30.7805 26.2279 31.1803 26.2279 31.6735C26.2279 32.1667 26.9425 32.5665 27.8239 32.5665Z" fill="#FFC200"/>
<path d="M25.696 40.9552C26.5774 40.9552 27.292 40.5554 27.292 40.0622C27.292 39.569 26.5774 39.1692 25.696 39.1692C24.8145 39.1692 24.1 39.569 24.1 40.0622C24.1 40.5554 24.8145 40.9552 25.696 40.9552Z" fill="white"/>
<path d="M14.4764 42.7411C15.3578 42.7411 16.0724 42.3413 16.0724 41.8481C16.0724 41.3549 15.3578 40.9551 14.4764 40.9551C13.5949 40.9551 12.8804 41.3549 12.8804 41.8481C12.8804 42.3413 13.5949 42.7411 14.4764 42.7411Z" fill="#FFC200"/>
<path d="M31.1489 29.1086L47.0994 38.2381C47.0994 38.2381 47.0614 35.8251 48.4959 34.4001C48.4959 34.4001 39.6229 30.3531 31.1489 29.1086Z" fill="#FFC200"/>
<path d="M30.2749 37.2881V38.5421C30.2749 39.7106 31.9754 40.6606 34.0749 40.6606C36.1744 40.6606 37.8749 39.7106 37.8749 38.5421V37.2881H30.2844H30.2749Z" fill="#E9113C"/>
<path d="M34.0749 39.4067C36.1736 39.4067 37.8749 38.4582 37.8749 37.2882C37.8749 36.1182 36.1736 35.1697 34.0749 35.1697C31.9762 35.1697 30.2749 36.1182 30.2749 37.2882C30.2749 38.4582 31.9762 39.4067 34.0749 39.4067Z" fill="#E9627D"/>
<path d="M36.6725 36.843C36.7317 36.4752 35.9944 36.0507 35.0257 35.8949C34.057 35.739 33.2238 35.9109 33.1646 36.2786C33.1055 36.6464 33.8428 37.0709 34.8114 37.2268C35.7801 37.3826 36.6134 37.2108 36.6725 36.843Z" fill="white"/>
<path d="M15.6544 35.6445V36.8985C15.6544 38.067 17.3549 39.017 19.4544 39.017C21.5539 39.017 23.2544 38.067 23.2544 36.8985V35.6445H15.6639H15.6544Z" fill="#E9113C"/>
<path d="M19.4544 37.7631C21.5531 37.7631 23.2544 36.8146 23.2544 35.6446C23.2544 34.4746 21.5531 33.5261 19.4544 33.5261C17.3557 33.5261 15.6544 34.4746 15.6544 35.6446C15.6544 36.8146 17.3557 37.7631 19.4544 37.7631Z" fill="#E9627D"/>
<path d="M22.0496 35.1978C22.1088 34.83 21.3715 34.4055 20.4028 34.2496C19.4341 34.0938 18.6009 34.2656 18.5417 34.6334C18.4825 35.0012 19.2198 35.4257 20.1885 35.5815C21.1572 35.7374 21.9904 35.5656 22.0496 35.1978Z" fill="white"/>
<path d="M29.0685 23.6935C28.261 24.501 28.033 25.5745 28.2895 25.8215C28.546 26.0685 29.401 25.622 30.199 24.824C30.997 24.026 31.453 23.1615 31.1965 22.9145C30.94 22.6675 29.8665 22.8955 29.0685 23.6935Z" fill="white"/>
<path d="M19.2359 41.4016H19.2264C18.4656 41.4016 17.8489 42.0183 17.8489 42.7791V52.5546C17.8489 53.3154 18.4656 53.9321 19.2264 53.9321H19.2359C19.9966 53.9321 20.6134 53.3154 20.6134 52.5546V42.7791C20.6134 42.0183 19.9966 41.4016 19.2359 41.4016Z" fill="#FFEBB8"/>
</g>
<path fill-rule="evenodd" clip-rule="evenodd" d="M6.49771 79C6.98969 79 7.48602 79.213 7.49037 79.6913C7.49037 80.1043 7.24656 80.2696 6.99839 80.2696C6.75023 80.2696 6.73281 80.1435 6.73281 80.1435C6.73281 80.1435 7.02452 79.9261 7.02452 79.7174C7.02452 79.6087 6.94179 79.313 6.489 79.3174C5.8577 79.3174 5.5181 79.6174 5.5181 80.1522C5.5181 80.7652 7.35105 80.9739 7.3554 81.7652C7.3554 82.613 6.47594 82.9957 5.69225 83C5.283 83 5.01306 82.7609 5.00871 82.3783C5.00871 81.9261 5.22204 81.4652 5.75756 81.4652C5.88382 81.4565 5.98831 81.5522 5.99702 81.6783C5.99702 81.6783 5.99702 81.6826 5.99702 81.687C5.99702 81.687 5.45715 81.8391 5.4615 82.3783C5.4615 82.4783 5.56599 82.6609 5.81851 82.6565C6.07103 82.6522 6.82424 82.4739 6.81989 81.8087C6.81989 81.1913 5.00435 81.1087 5 80.1478C5 79.0652 6.08845 79.0087 6.49771 79.0087V79ZM10.747 79.6C10.8123 79.5696 11.2129 79.4913 11.1955 79.813C11.1824 80.1348 10.9386 80.6913 10.9037 80.9348C11.2303 80.7696 11.6918 80.2087 11.6918 80.2087C11.6918 80.2087 12.0183 80.2522 11.9182 80.4522C11.818 80.6522 11.1519 81.1435 11.1519 81.1435C11.1519 81.1435 11.3043 82.5696 12.1707 82.5696C12.6453 82.5696 12.8499 82.3609 12.937 82.287C12.9587 82.2696 12.9762 82.2652 12.9849 82.2783C13.0197 82.387 12.9936 82.5043 12.9152 82.5913C12.8194 82.6957 12.5974 82.8217 12.1533 82.8261C11.3653 82.8261 10.9255 82.1957 10.8123 81.2609C10.7252 81.5348 10.7339 81.9826 10.7209 82.2C10.6948 82.2435 10.2507 82.4174 10.2158 82.1174C10.2158 82.0913 10.2158 82.0696 10.2158 82.0435C10.1331 82.1609 10.0199 82.2826 9.91108 82.2826C9.71951 82.2826 9.63679 82.1217 9.60196 82.0391C9.57584 82.0696 9.3625 82.287 9.08821 82.287C8.92277 82.2913 8.77474 82.1957 8.70943 82.0435C8.57011 82.1435 8.32195 82.2913 8.03895 82.2913C7.73418 82.2913 7.66017 82.1087 7.66017 81.9565C7.66017 81.713 7.84303 80.987 7.84303 80.987C7.84303 80.987 7.48602 81.1304 7.36411 81.1348C7.19431 81.1348 7.11159 80.8217 7.11159 80.813C7.11159 80.8087 7.11159 80.8 7.1203 80.8C7.22044 80.7609 7.94317 80.513 7.94317 80.513C7.94317 80.513 8.07813 79.9826 8.09555 79.913C8.11296 79.8435 8.2131 79.7 8.33065 79.6565C8.41773 79.6217 8.50916 79.6 8.60059 79.5913C8.63107 79.5913 8.65284 79.6 8.65284 79.6174C8.65284 79.6348 8.47433 80.4087 8.47433 80.4087C8.47433 80.4087 8.84876 80.3217 8.98808 80.3217C9.09692 80.3217 9.15352 80.387 9.09257 80.4696C9.03162 80.5522 8.96196 80.6478 8.92712 80.6913C8.88794 80.7348 8.86182 80.7435 8.77039 80.7609C8.64413 80.787 8.36113 80.8565 8.36113 80.8565C8.36113 80.8565 8.13473 81.6783 8.13909 81.8174C8.13909 81.8957 8.16521 81.987 8.26099 81.987C8.35678 81.987 8.53964 81.8739 8.67025 81.7913C8.69202 81.1522 9.18835 80.7261 9.57584 80.7261C9.7021 80.7261 9.65421 80.8478 9.79788 80.8478H9.88931C9.94591 80.8478 10.0069 80.8522 10.0069 80.9957C10.0069 81.1957 9.89367 81.5261 9.89367 81.7348C9.89367 81.8826 9.91544 81.987 9.97204 81.987C10.0678 81.987 10.1767 81.8478 10.255 81.7261C10.3813 81.0304 10.734 79.7609 10.734 79.6174L10.747 79.6ZM12.5016 80.7C12.7672 80.6783 12.9326 80.8217 12.9631 80.9C12.9936 80.9783 12.9892 81.1609 12.9152 81.2913C12.6845 81.7044 12.1097 81.6304 12.1097 81.6304C12.1097 81.6304 12.0444 81.9565 12.3405 81.9565C12.593 81.9565 12.7062 81.8304 12.8151 81.7261C12.8586 81.7261 12.9936 81.8652 12.9326 81.9609C12.8847 82.0348 12.6191 82.2565 12.2795 82.2609C11.7397 82.2609 11.6047 81.8 11.6744 81.4696C11.7658 81.0609 12.1751 80.7217 12.5016 80.6957V80.7ZM9.6455 80.987C9.32332 80.987 8.82699 81.9696 9.20577 81.9652C9.61938 81.9652 9.6455 81.1826 9.6455 81.0043V80.987ZM12.6409 80.8913C12.4232 80.9 12.1751 81.3174 12.1533 81.5C12.4798 81.513 12.654 81.1957 12.6757 81.0696C12.6888 80.9739 12.6932 80.887 12.6409 80.887V80.8913Z" fill="#557086"/>
<path d="M45.851 79.0672L44.2521 80.8632C44.1826 80.9428 44.1826 81.0572 44.2521 81.1368L45.846 82.9328C45.9255 83.0224 46.0695 83.0224 46.1539 82.9328L47.7478 81.1368C47.8173 81.0572 47.8173 80.9428 47.7478 80.8632L46.1539 79.0672C46.0744 78.9776 45.9304 78.9776 45.846 79.0672H45.851Z" fill="white"/>
<path d="M46.6604 79.6343L47.142 80.1766L45.568 82.6144L44.704 81.6393L46.6604 79.6343Z" fill="#8EA3B2"/>
<path d="M50.851 79.0672L49.2521 80.8632C49.1826 80.9428 49.1826 81.0572 49.2521 81.1368L50.846 82.9328C50.9255 83.0224 51.0695 83.0224 51.1539 82.9328L52.7478 81.1368C52.8173 81.0572 52.8173 80.9428 52.7478 80.8632L51.1539 79.0672C51.0744 78.9776 50.9304 78.9776 50.846 79.0672H50.851Z" fill="white"/>
<path d="M51.6604 79.6343L52.142 80.1766L50.568 82.6144L49.704 81.6393L51.6604 79.6343Z" fill="#8EA3B2"/>
<path d="M55.851 79.0672L54.2521 80.8632C54.1826 80.9428 54.1826 81.0572 54.2521 81.1368L55.846 82.9328C55.9255 83.0224 56.0695 83.0224 56.1539 82.9328L57.7478 81.1368C57.8173 81.0572 57.8173 80.9428 57.7478 80.8632L56.1539 79.0672C56.0744 78.9776 55.9304 78.9776 55.846 79.0672H55.851Z" fill="white"/>
<path d="M56.6604 79.6343L57.142 80.1766L55.568 82.6144L54.704 81.6393L56.6604 79.6343Z" fill="#8EA3B2"/>
<rect x="13" y="62" width="37" height="13" rx="6.5" fill="#2F4553"/>
<path d="M26.3378 70.072C25.1678 70.072 24.6218 69.058 24.6218 68.002C24.6218 66.946 25.1678 65.938 26.3378 65.938C27.5078 65.938 28.0538 66.946 28.0538 68.002C28.0538 69.058 27.5078 70.072 26.3378 70.072ZM26.3378 69.16C26.8178 69.16 27.0098 68.71 27.0098 68.002C27.0098 67.294 26.8178 66.85 26.3378 66.85C25.8578 66.85 25.6658 67.294 25.6658 68.002C25.6658 68.71 25.8578 69.16 26.3378 69.16ZM28.9261 70.072C28.6201 70.072 28.3621 69.814 28.3621 69.508C28.3621 69.202 28.6201 68.944 28.9261 68.944C29.2321 68.944 29.4901 69.202 29.4901 69.508C29.4901 69.814 29.2321 70.072 28.9261 70.072ZM31.3991 70H30.3671V67.318L29.6951 67.996L29.1071 67.378L30.5051 65.998H31.3991V70ZM33.6147 70.072C32.9067 70.072 32.3727 69.856 32.0007 69.49L32.5647 68.77C32.8407 69.022 33.2187 69.16 33.6027 69.16C34.0407 69.16 34.2567 68.944 34.2567 68.698C34.2567 68.428 34.0467 68.236 33.6327 68.236C33.3147 68.236 33.0627 68.326 32.8407 68.536L32.1267 68.362V65.998H35.0307V66.898H33.1587V67.672C33.3507 67.486 33.6627 67.354 34.0167 67.354C34.6947 67.354 35.3067 67.852 35.3067 68.656C35.3067 69.52 34.6527 70.072 33.6147 70.072ZM38.5719 70H37.5579L36.9999 69.124L36.4359 70H35.4279L36.4179 68.512L35.4879 67.102H36.5019L36.9999 67.888L37.4919 67.102H38.5059L37.5819 68.512L38.5719 70Z" fill="white"/>
<path d="M6.835 11.06C5.82 11.06 5.33 10.49 5.33 9.67V7.665H6.05V9.645C6.05 10.11 6.32 10.43 6.835 10.43C7.35 10.43 7.615 10.11 7.615 9.645V7.665H8.34V9.665C8.34 10.495 7.85 11.06 6.835 11.06ZM11.247 11H10.612V9.54C10.612 9.205 10.437 9.09 10.167 9.09C9.91699 9.09 9.72199 9.23 9.61699 9.375V11H8.98199V8.585H9.61699V8.9C9.77199 8.715 10.067 8.525 10.462 8.525C10.992 8.525 11.247 8.825 11.247 9.295V11ZM13.0025 11.06C12.2575 11.06 11.7225 10.535 11.7225 9.79C11.7225 9.05 12.2575 8.525 13.0025 8.525C13.4975 8.525 13.7975 8.74 13.9575 8.96L13.5425 9.35C13.4275 9.18 13.2525 9.09 13.0325 9.09C12.6475 9.09 12.3775 9.37 12.3775 9.79C12.3775 10.21 12.6475 10.495 13.0325 10.495C13.2525 10.495 13.4275 10.395 13.5425 10.235L13.9575 10.62C13.7975 10.845 13.4975 11.06 13.0025 11.06ZM15.4926 11.06C14.6976 11.06 14.2176 10.48 14.2176 9.79C14.2176 9.105 14.6976 8.525 15.4926 8.525C16.2926 8.525 16.7726 9.105 16.7726 9.79C16.7726 10.48 16.2926 11.06 15.4926 11.06ZM15.4926 10.495C15.8876 10.495 16.1126 10.17 16.1126 9.79C16.1126 9.415 15.8876 9.09 15.4926 9.09C15.0976 9.09 14.8776 9.415 14.8776 9.79C14.8776 10.17 15.0976 10.495 15.4926 10.495ZM20.8787 11H20.2387V9.475C20.2387 9.25 20.1387 9.09 19.8787 9.09C19.6537 9.09 19.4687 9.24 19.3787 9.37V11H18.7387V9.475C18.7387 9.25 18.6387 9.09 18.3787 9.09C18.1587 9.09 17.9737 9.24 17.8787 9.375V11H17.2437V8.585H17.8787V8.9C17.9787 8.755 18.2987 8.525 18.6687 8.525C19.0237 8.525 19.2487 8.69 19.3387 8.965C19.4787 8.745 19.7987 8.525 20.1687 8.525C20.6137 8.525 20.8787 8.76 20.8787 9.255V11ZM25.1365 11H24.4965V9.475C24.4965 9.25 24.3965 9.09 24.1365 9.09C23.9115 9.09 23.7265 9.24 23.6365 9.37V11H22.9965V9.475C22.9965 9.25 22.8965 9.09 22.6365 9.09C22.4165 9.09 22.2315 9.24 22.1365 9.375V11H21.5015V8.585H22.1365V8.9C22.2365 8.755 22.5565 8.525 22.9265 8.525C23.2815 8.525 23.5065 8.69 23.5965 8.965C23.7365 8.745 24.0565 8.525 24.4265 8.525C24.8715 8.525 25.1365 8.76 25.1365 9.255V11ZM26.8793 11.06C26.0843 11.06 25.6043 10.48 25.6043 9.79C25.6043 9.105 26.0843 8.525 26.8793 8.525C27.6793 8.525 28.1593 9.105 28.1593 9.79C28.1593 10.48 27.6793 11.06 26.8793 11.06ZM26.8793 10.495C27.2743 10.495 27.4993 10.17 27.4993 9.79C27.4993 9.415 27.2743 9.09 26.8793 9.09C26.4843 9.09 26.2643 9.415 26.2643 9.79C26.2643 10.17 26.4843 10.495 26.8793 10.495ZM30.8954 11H30.2604V9.54C30.2604 9.205 30.0854 9.09 29.8154 9.09C29.5654 9.09 29.3704 9.23 29.2654 9.375V11H28.6304V8.585H29.2654V8.9C29.4204 8.715 29.7154 8.525 30.1104 8.525C30.6404 8.525 30.8954 8.825 30.8954 9.295V11Z" fill="white"/>
<path d="M47.1585 11H46.7065L45.3145 9.096V11H44.8465V8.332H45.3265L46.6905 10.184V8.332H47.1585V11ZM48.5854 11.048C47.9734 11.048 47.5934 10.588 47.5934 10.032C47.5934 9.48 47.9734 9.02 48.5854 9.02C49.2054 9.02 49.5814 9.48 49.5814 10.032C49.5814 10.588 49.2054 11.048 48.5854 11.048ZM48.5854 10.676C48.9454 10.676 49.1454 10.376 49.1454 10.032C49.1454 9.692 48.9454 9.392 48.5854 9.392C48.2294 9.392 48.0294 9.692 48.0294 10.032C48.0294 10.376 48.2294 10.676 48.5854 10.676ZM50.2028 11.044C50.0508 11.044 49.9228 10.916 49.9228 10.764C49.9228 10.612 50.0508 10.484 50.2028 10.484C50.3548 10.484 50.4828 10.612 50.4828 10.764C50.4828 10.916 50.3548 11.044 50.2028 11.044ZM52.9587 11H52.4907V8.94L52.0547 9.392L51.7827 9.108L52.5507 8.332H52.9587V11ZM55.3742 11H53.4422V10.632C54.4782 9.848 54.8822 9.5 54.8822 9.116C54.8822 8.836 54.6422 8.708 54.3982 8.708C54.0862 8.708 53.8462 8.836 53.6782 9.028L53.4062 8.72C53.6422 8.436 54.0182 8.292 54.3902 8.292C54.9062 8.292 55.3582 8.584 55.3582 9.116C55.3582 9.608 54.9062 10.048 54.1902 10.588H55.3742V11ZM57.7531 11H55.8211V10.632C56.8571 9.848 57.2611 9.5 57.2611 9.116C57.2611 8.836 57.0211 8.708 56.7771 8.708C56.4651 8.708 56.2251 8.836 56.0571 9.028L55.7851 8.72C56.0211 8.436 56.3971 8.292 56.7691 8.292C57.2851 8.292 57.7371 8.584 57.7371 9.116C57.7371 9.608 57.2851 10.048 56.5691 10.588H57.7531V11Z" fill="white"/>
<defs>
<clipPath id="clip0_26835_29285">
<rect width="63" height="88" fill="white"/>
</clipPath>
</defs>
</svg>
