<svg width="63" height="88" viewBox="0 0 63 88" fill="none" xmlns="http://www.w3.org/2000/svg">
<rect width="63" height="88" rx="4" fill="#047BFF"/>
<path d="M36.7008 13.5133L44.7992 3.48665C45.5586 2.54645 46.7024 2 47.911 2H58C59.6569 2 61 3.34314 61 5V83C61 84.6569 59.6569 86 58 86H5C3.34315 86 2 84.6569 2 83V18C2 16.3431 3.34315 15 5 15H33.589C34.7976 15 35.9414 14.4536 36.7008 13.5133Z" fill="#213743"/>
<rect x="5" y="18" width="53" height="40" rx="1" fill="#2F4553"/>
<path d="M33.26 46.4001C38.5067 46.4001 42.76 44.9226 42.76 43.1C42.76 41.2775 38.5067 39.8 33.26 39.8C28.0133 39.8 23.76 41.2775 23.76 43.1C23.76 44.9226 28.0133 46.4001 33.26 46.4001Z" fill="#1A2C38"/>
<path d="M36.4001 56.2299C42.5249 56.2299 47.4901 54.8061 47.4901 53.0499C47.4901 51.2936 42.5249 49.8699 36.4001 49.8699C30.2752 49.8699 25.3101 51.2936 25.3101 53.0499C25.3101 54.8061 30.2752 56.2299 36.4001 56.2299Z" fill="#1A2C38"/>
<path d="M25.304 49.195C25.3069 48.2008 24.5034 47.3926 23.5093 47.3896C22.5152 47.3867 21.707 48.1902 21.704 49.1843L21.6979 51.2443C21.6949 52.2384 22.4984 53.0466 23.4925 53.0496C24.4867 53.0525 25.2949 52.2491 25.2979 51.2549L25.304 49.195Z" fill="#1A2C38"/>
<path d="M25.35 49.7599C25.35 51.6199 22.51 51.6099 22.52 49.7599C22.52 47.1599 21.31 45.4099 19.9 43.3899C18.23 40.9899 16.33 38.2599 16.34 33.7999C16.34 31.5099 17.13 29.5999 18.66 28.1299C22.02 24.8999 27.83 25.0699 28.08 25.0699C29.41 25.1199 29.31 27.9499 27.98 27.8999C27.93 27.8999 23.1 27.7699 20.61 30.1699C19.64 31.0999 19.17 32.2899 19.17 33.7999C19.16 37.3699 20.65 39.4999 22.22 41.7599C23.76 43.9799 25.36 46.2699 25.35 49.7599Z" fill="#1A2C38"/>
<path d="M29.31 25.0901C29.31 25.0901 38.75 25.1201 39.96 25.1201C41.17 25.1201 41.12 26.4801 41.07 27.1601L28.53 27.1201L29.31 25.0901Z" fill="#B80D2F"/>
<path d="M40.55 21.18C39.8 19.76 38.56 19.6 37.69 19.89C36.52 20.26 28.59 22.88 28.59 22.88L30.46 25.81L40.19 22.37C40.98 22.09 40.69 21.43 40.56 21.18H40.55Z" fill="#E9113C"/>
<path d="M30.61 25.34L39.5 22.17C39.94 22.01 39.89 21.72 39.8 21.61C39.57 21.33 39.15 21.26 38.36 21.51L30.61 24.22V25.33V25.34Z" fill="#B80D2F"/>
<path d="M29.21 27.23C30.4361 27.23 31.43 26.2361 31.43 25.01C31.43 23.784 30.4361 22.79 29.21 22.79C27.9839 22.79 26.99 23.784 26.99 25.01C26.99 26.2361 27.9839 27.23 29.21 27.23Z" fill="#E9113C"/>
<path d="M41.51 31.44C41.87 32.4 42.06 33.43 42.06 34.52L42.03 47.37L42.01 52.44L26.61 52.39H24.51L24.56 34.47C24.56 29.64 28.5 25.74 33.34 25.74C37.08 25.76 40.27 28.12 41.51 31.44Z" fill="#E9113C"/>
<path d="M42.01 52.4399C42.01 54.0799 38.08 55.3799 33.24 55.3799C31.57 55.3799 30.02 55.2099 28.68 54.9299H28.66H28.65C26.16 54.4099 24.5 53.4699 24.5 52.3999C24.5 51.6799 25.27 51.0099 26.56 50.5099C28.17 49.8699 30.57 49.4599 33.26 49.4699C38.09 49.4899 42.01 50.8199 42.01 52.4599V52.4399Z" fill="#E9113C"/>
<path d="M35.23 47.1401C35.23 53.3501 37 55.1001 37.39 55.0301C40.14 54.5401 42.01 53.5701 42.01 52.4401L42.03 47.3701L42.06 34.5201C42.06 33.6001 41.91 32.7201 41.65 31.9001C41.55 31.8901 41.45 31.8601 41.35 31.8601C37.97 31.8601 35.23 38.7001 35.23 47.1401Z" fill="#B80D2F"/>
<path d="M37.54 43.5299C35.48 44.0599 31.09 44.0499 29.02 43.5299C28.68 43.4399 28.02 43.0799 28.02 42.5299V35.2699C28.02 34.6699 28.54 34.1999 29.14 34.2799C31.16 34.5299 35.4 34.5299 37.42 34.2799C38.02 34.2099 38.54 34.6699 38.54 35.2699V42.5299C38.54 43.0799 37.88 43.4399 37.54 43.5299Z" fill="#FFEBB8"/>
<path d="M29.7582 31.1554C30.5748 30.3873 30.8103 29.3112 30.2843 28.7521C29.7583 28.1929 28.67 28.3624 27.8533 29.1306C27.0367 29.8987 26.8012 30.9748 27.3272 31.5339C27.8532 32.0931 28.9416 31.9236 29.7582 31.1554Z" fill="white"/>
<path d="M33.24 46.25C31.43 46.24 29.7399 46.05 28.2999 45.74H28.28H28.2699C25.5699 45.17 23.77 44.15 23.78 42.99V45.71C23.76 46.87 25.5599 47.89 28.2599 48.46H28.2699H28.29C29.73 48.77 31.4199 48.95 33.2299 48.97C38.4799 48.99 42.73 47.59 42.75 45.81V43.09C42.75 44.86 38.49 46.27 33.24 46.25Z" fill="#1A2C38"/>
<path d="M29.03 43.5299C31.09 44.0499 35.48 44.0599 37.55 43.5299C37.89 43.4399 38.55 43.0799 38.55 42.5299V35.2699C38.55 34.6699 38.03 34.1999 37.43 34.2799C37.24 34.2999 37.01 34.3199 36.78 34.3399C36.25 38.2399 31.04 41.3999 28.03 41.9199V42.5399C28.03 43.0899 28.69 43.4499 29.03 43.5399V43.5299Z" fill="#FFC201"/>
<path fill-rule="evenodd" clip-rule="evenodd" d="M6.49771 79C6.98969 79 7.48602 79.213 7.49037 79.6913C7.49037 80.1043 7.24656 80.2696 6.99839 80.2696C6.75023 80.2696 6.73281 80.1435 6.73281 80.1435C6.73281 80.1435 7.02452 79.9261 7.02452 79.7174C7.02452 79.6087 6.94179 79.313 6.489 79.3174C5.8577 79.3174 5.5181 79.6174 5.5181 80.1522C5.5181 80.7652 7.35105 80.9739 7.3554 81.7652C7.3554 82.613 6.47594 82.9957 5.69225 83C5.283 83 5.01306 82.7609 5.00871 82.3783C5.00871 81.9261 5.22204 81.4652 5.75756 81.4652C5.88382 81.4565 5.98831 81.5522 5.99702 81.6783C5.99702 81.6783 5.99702 81.6826 5.99702 81.687C5.99702 81.687 5.45715 81.8391 5.4615 82.3783C5.4615 82.4783 5.56599 82.6609 5.81851 82.6565C6.07103 82.6522 6.82424 82.4739 6.81989 81.8087C6.81989 81.1913 5.00435 81.1087 5 80.1478C5 79.0652 6.08845 79.0087 6.49771 79.0087V79ZM10.747 79.6C10.8123 79.5696 11.2129 79.4913 11.1955 79.813C11.1824 80.1348 10.9386 80.6913 10.9037 80.9348C11.2303 80.7696 11.6918 80.2087 11.6918 80.2087C11.6918 80.2087 12.0183 80.2522 11.9182 80.4522C11.818 80.6522 11.1519 81.1435 11.1519 81.1435C11.1519 81.1435 11.3043 82.5696 12.1707 82.5696C12.6453 82.5696 12.8499 82.3609 12.937 82.287C12.9587 82.2696 12.9762 82.2652 12.9849 82.2783C13.0197 82.387 12.9936 82.5043 12.9152 82.5913C12.8194 82.6957 12.5974 82.8217 12.1533 82.8261C11.3653 82.8261 10.9255 82.1957 10.8123 81.2609C10.7252 81.5348 10.7339 81.9826 10.7209 82.2C10.6948 82.2435 10.2507 82.4174 10.2158 82.1174C10.2158 82.0913 10.2158 82.0696 10.2158 82.0435C10.1331 82.1609 10.0199 82.2826 9.91108 82.2826C9.71951 82.2826 9.63679 82.1217 9.60196 82.0391C9.57584 82.0696 9.3625 82.287 9.08821 82.287C8.92277 82.2913 8.77474 82.1957 8.70943 82.0435C8.57011 82.1435 8.32195 82.2913 8.03895 82.2913C7.73418 82.2913 7.66017 82.1087 7.66017 81.9565C7.66017 81.713 7.84303 80.987 7.84303 80.987C7.84303 80.987 7.48602 81.1304 7.36411 81.1348C7.19431 81.1348 7.11159 80.8217 7.11159 80.813C7.11159 80.8087 7.11159 80.8 7.1203 80.8C7.22044 80.7609 7.94317 80.513 7.94317 80.513C7.94317 80.513 8.07813 79.9826 8.09555 79.913C8.11296 79.8435 8.2131 79.7 8.33065 79.6565C8.41773 79.6217 8.50916 79.6 8.60059 79.5913C8.63107 79.5913 8.65284 79.6 8.65284 79.6174C8.65284 79.6348 8.47433 80.4087 8.47433 80.4087C8.47433 80.4087 8.84876 80.3217 8.98808 80.3217C9.09692 80.3217 9.15352 80.387 9.09257 80.4696C9.03162 80.5522 8.96196 80.6478 8.92712 80.6913C8.88794 80.7348 8.86182 80.7435 8.77039 80.7609C8.64413 80.787 8.36113 80.8565 8.36113 80.8565C8.36113 80.8565 8.13473 81.6783 8.13909 81.8174C8.13909 81.8957 8.16521 81.987 8.26099 81.987C8.35678 81.987 8.53964 81.8739 8.67025 81.7913C8.69202 81.1522 9.18835 80.7261 9.57584 80.7261C9.7021 80.7261 9.65421 80.8478 9.79788 80.8478H9.88931C9.94591 80.8478 10.0069 80.8522 10.0069 80.9957C10.0069 81.1957 9.89367 81.5261 9.89367 81.7348C9.89367 81.8826 9.91544 81.987 9.97204 81.987C10.0678 81.987 10.1767 81.8478 10.255 81.7261C10.3813 81.0304 10.734 79.7609 10.734 79.6174L10.747 79.6ZM12.5016 80.7C12.7672 80.6783 12.9326 80.8217 12.9631 80.9C12.9936 80.9783 12.9892 81.1609 12.9152 81.2913C12.6845 81.7044 12.1097 81.6304 12.1097 81.6304C12.1097 81.6304 12.0444 81.9565 12.3405 81.9565C12.593 81.9565 12.7062 81.8304 12.8151 81.7261C12.8586 81.7261 12.9936 81.8652 12.9326 81.9609C12.8847 82.0348 12.6191 82.2565 12.2795 82.2609C11.7397 82.2609 11.6047 81.8 11.6744 81.4696C11.7658 81.0609 12.1751 80.7217 12.5016 80.6957V80.7ZM9.6455 80.987C9.32332 80.987 8.82699 81.9696 9.20577 81.9652C9.61938 81.9652 9.6455 81.1826 9.6455 81.0043V80.987ZM12.6409 80.8913C12.4232 80.9 12.1751 81.3174 12.1533 81.5C12.4798 81.513 12.654 81.1957 12.6757 81.0696C12.6888 80.9739 12.6932 80.887 12.6409 80.887V80.8913Z" fill="#557086"/>
<path d="M45.851 79.0672L44.2521 80.8632C44.1826 80.9428 44.1826 81.0572 44.2521 81.1368L45.846 82.9328C45.9255 83.0224 46.0695 83.0224 46.1539 82.9328L47.7478 81.1368C47.8173 81.0572 47.8173 80.9428 47.7478 80.8632L46.1539 79.0672C46.0744 78.9776 45.9304 78.9776 45.846 79.0672H45.851Z" fill="white"/>
<path d="M46.6604 79.6343L47.142 80.1766L45.568 82.6144L44.704 81.6393L46.6604 79.6343Z" fill="#8EA3B2"/>
<path d="M50.851 79.0672L49.2521 80.8632C49.1826 80.9428 49.1826 81.0572 49.2521 81.1368L50.846 82.9328C50.9255 83.0224 51.0695 83.0224 51.1539 82.9328L52.7478 81.1368C52.8173 81.0572 52.8173 80.9428 52.7478 80.8632L51.1539 79.0672C51.0744 78.9776 50.9304 78.9776 50.846 79.0672H50.851Z" fill="white"/>
<path d="M51.6604 79.6343L52.142 80.1766L50.568 82.6144L49.704 81.6393L51.6604 79.6343Z" fill="#8EA3B2"/>
<path d="M55.851 79.0672L54.2521 80.8632C54.1826 80.9428 54.1826 81.0572 54.2521 81.1368L55.846 82.9328C55.9255 83.0224 56.0695 83.0224 56.1539 82.9328L57.7478 81.1368C57.8173 81.0572 57.8173 80.9428 57.7478 80.8632L56.1539 79.0672C56.0744 78.9776 55.9304 78.9776 55.846 79.0672H55.851Z" fill="white"/>
<path d="M56.6604 79.6343L57.142 80.1766L55.568 82.6144L54.704 81.6393L56.6604 79.6343Z" fill="#8EA3B2"/>
<rect x="13" y="62" width="37" height="13" rx="6.5" fill="#2F4553"/>
<path d="M26.3378 70.072C25.1678 70.072 24.6218 69.058 24.6218 68.002C24.6218 66.946 25.1678 65.938 26.3378 65.938C27.5078 65.938 28.0538 66.946 28.0538 68.002C28.0538 69.058 27.5078 70.072 26.3378 70.072ZM26.3378 69.16C26.8178 69.16 27.0098 68.71 27.0098 68.002C27.0098 67.294 26.8178 66.85 26.3378 66.85C25.8578 66.85 25.6658 67.294 25.6658 68.002C25.6658 68.71 25.8578 69.16 26.3378 69.16ZM28.9261 70.072C28.6201 70.072 28.3621 69.814 28.3621 69.508C28.3621 69.202 28.6201 68.944 28.9261 68.944C29.2321 68.944 29.4901 69.202 29.4901 69.508C29.4901 69.814 29.2321 70.072 28.9261 70.072ZM31.3991 70H30.3671V67.318L29.6951 67.996L29.1071 67.378L30.5051 65.998H31.3991V70ZM33.6147 70.072C32.9067 70.072 32.3727 69.856 32.0007 69.49L32.5647 68.77C32.8407 69.022 33.2187 69.16 33.6027 69.16C34.0407 69.16 34.2567 68.944 34.2567 68.698C34.2567 68.428 34.0467 68.236 33.6327 68.236C33.3147 68.236 33.0627 68.326 32.8407 68.536L32.1267 68.362V65.998H35.0307V66.898H33.1587V67.672C33.3507 67.486 33.6627 67.354 34.0167 67.354C34.6947 67.354 35.3067 67.852 35.3067 68.656C35.3067 69.52 34.6527 70.072 33.6147 70.072ZM38.5719 70H37.5579L36.9999 69.124L36.4359 70H35.4279L36.4179 68.512L35.4879 67.102H36.5019L36.9999 67.888L37.4919 67.102H38.5059L37.5819 68.512L38.5719 70Z" fill="white"/>
<path d="M6.835 11.06C5.82 11.06 5.33 10.49 5.33 9.67V7.665H6.05V9.645C6.05 10.11 6.32 10.43 6.835 10.43C7.35 10.43 7.615 10.11 7.615 9.645V7.665H8.34V9.665C8.34 10.495 7.85 11.06 6.835 11.06ZM11.247 11H10.612V9.54C10.612 9.205 10.437 9.09 10.167 9.09C9.91699 9.09 9.72199 9.23 9.61699 9.375V11H8.98199V8.585H9.61699V8.9C9.77199 8.715 10.067 8.525 10.462 8.525C10.992 8.525 11.247 8.825 11.247 9.295V11ZM13.0025 11.06C12.2575 11.06 11.7225 10.535 11.7225 9.79C11.7225 9.05 12.2575 8.525 13.0025 8.525C13.4975 8.525 13.7975 8.74 13.9575 8.96L13.5425 9.35C13.4275 9.18 13.2525 9.09 13.0325 9.09C12.6475 9.09 12.3775 9.37 12.3775 9.79C12.3775 10.21 12.6475 10.495 13.0325 10.495C13.2525 10.495 13.4275 10.395 13.5425 10.235L13.9575 10.62C13.7975 10.845 13.4975 11.06 13.0025 11.06ZM15.4926 11.06C14.6976 11.06 14.2176 10.48 14.2176 9.79C14.2176 9.105 14.6976 8.525 15.4926 8.525C16.2926 8.525 16.7726 9.105 16.7726 9.79C16.7726 10.48 16.2926 11.06 15.4926 11.06ZM15.4926 10.495C15.8876 10.495 16.1126 10.17 16.1126 9.79C16.1126 9.415 15.8876 9.09 15.4926 9.09C15.0976 9.09 14.8776 9.415 14.8776 9.79C14.8776 10.17 15.0976 10.495 15.4926 10.495ZM20.8787 11H20.2387V9.475C20.2387 9.25 20.1387 9.09 19.8787 9.09C19.6537 9.09 19.4687 9.24 19.3787 9.37V11H18.7387V9.475C18.7387 9.25 18.6387 9.09 18.3787 9.09C18.1587 9.09 17.9737 9.24 17.8787 9.375V11H17.2437V8.585H17.8787V8.9C17.9787 8.755 18.2987 8.525 18.6687 8.525C19.0237 8.525 19.2487 8.69 19.3387 8.965C19.4787 8.745 19.7987 8.525 20.1687 8.525C20.6137 8.525 20.8787 8.76 20.8787 9.255V11ZM25.1365 11H24.4965V9.475C24.4965 9.25 24.3965 9.09 24.1365 9.09C23.9115 9.09 23.7265 9.24 23.6365 9.37V11H22.9965V9.475C22.9965 9.25 22.8965 9.09 22.6365 9.09C22.4165 9.09 22.2315 9.24 22.1365 9.375V11H21.5015V8.585H22.1365V8.9C22.2365 8.755 22.5565 8.525 22.9265 8.525C23.2815 8.525 23.5065 8.69 23.5965 8.965C23.7365 8.745 24.0565 8.525 24.4265 8.525C24.8715 8.525 25.1365 8.76 25.1365 9.255V11ZM26.8793 11.06C26.0843 11.06 25.6043 10.48 25.6043 9.79C25.6043 9.105 26.0843 8.525 26.8793 8.525C27.6793 8.525 28.1593 9.105 28.1593 9.79C28.1593 10.48 27.6793 11.06 26.8793 11.06ZM26.8793 10.495C27.2743 10.495 27.4993 10.17 27.4993 9.79C27.4993 9.415 27.2743 9.09 26.8793 9.09C26.4843 9.09 26.2643 9.415 26.2643 9.79C26.2643 10.17 26.4843 10.495 26.8793 10.495ZM30.8954 11H30.2604V9.54C30.2604 9.205 30.0854 9.09 29.8154 9.09C29.5654 9.09 29.3704 9.23 29.2654 9.375V11H28.6304V8.585H29.2654V8.9C29.4204 8.715 29.7154 8.525 30.1104 8.525C30.6404 8.525 30.8954 8.825 30.8954 9.295V11Z" fill="white"/>
<path d="M47.2171 11H46.7651L45.3731 9.096V11H44.9051V8.332H45.3851L46.7491 10.184V8.332H47.2171V11ZM48.644 11.048C48.032 11.048 47.652 10.588 47.652 10.032C47.652 9.48 48.032 9.02 48.644 9.02C49.264 9.02 49.64 9.48 49.64 10.032C49.64 10.588 49.264 11.048 48.644 11.048ZM48.644 10.676C49.004 10.676 49.204 10.376 49.204 10.032C49.204 9.692 49.004 9.392 48.644 9.392C48.288 9.392 48.088 9.692 48.088 10.032C48.088 10.376 48.288 10.676 48.644 10.676ZM50.2614 11.044C50.1094 11.044 49.9814 10.916 49.9814 10.764C49.9814 10.612 50.1094 10.484 50.2614 10.484C50.4134 10.484 50.5414 10.612 50.5414 10.764C50.5414 10.916 50.4134 11.044 50.2614 11.044ZM53.0173 11H52.5493V8.94L52.1133 9.392L51.8413 9.108L52.6093 8.332H53.0173V11ZM55.4328 11H53.5008V10.632C54.5368 9.848 54.9408 9.5 54.9408 9.116C54.9408 8.836 54.7008 8.708 54.4568 8.708C54.1448 8.708 53.9048 8.836 53.7368 9.028L53.4648 8.72C53.7008 8.436 54.0768 8.292 54.4488 8.292C54.9648 8.292 55.4168 8.584 55.4168 9.116C55.4168 9.608 54.9648 10.048 54.2488 10.588H55.4328V11ZM57.5317 11H57.0637V10.396H55.7917V10.02L56.8877 8.332H57.5317V9.984H57.8877V10.396H57.5317V11ZM57.0637 9.984V8.752L56.2517 9.984H57.0637Z" fill="white"/>
</svg>
