<svg width="63" height="88" viewBox="0 0 63 88" fill="none" xmlns="http://www.w3.org/2000/svg">
<rect width="63" height="88" rx="4" fill="#047BFF"/>
<path d="M36.7008 13.5133L44.7992 3.48665C45.5586 2.54645 46.7024 2 47.911 2H58C59.6569 2 61 3.34314 61 5V83C61 84.6569 59.6569 86 58 86H5C3.34315 86 2 84.6569 2 83V18C2 16.3431 3.34315 15 5 15H33.589C34.7976 15 35.9414 14.4536 36.7008 13.5133Z" fill="#213743"/>
<rect x="5" y="18" width="53" height="40" rx="1" fill="#2F4553"/>
<path d="M16.61 22.2701C13.75 24.8001 13.45 29.1301 15.94 31.9501L26.29 22.8001C23.8 19.9801 19.46 19.7501 16.61 22.2701Z" fill="#FFC201"/>
<path d="M22.2794 28.6835C25.139 26.1563 26.9382 23.5205 26.2982 22.7963C25.6582 22.0721 22.8212 23.5337 19.9616 26.061C17.1021 28.5882 15.3028 31.224 15.9428 31.9482C16.5829 32.6724 19.4199 31.2108 22.2794 28.6835Z" fill="#FFC201"/>
<path d="M21.9474 28.3131C24.3766 26.1662 25.9693 23.9997 25.5048 23.4742C25.0403 22.9486 22.6945 24.263 20.2654 26.4098C17.8362 28.5567 16.2435 30.7232 16.708 31.2487C17.1725 31.7743 19.5182 30.46 21.9474 28.3131Z" fill="#1A2C38"/>
<path d="M46.42 22.2701C49.28 24.8001 49.58 29.1301 47.09 31.9501L36.74 22.8001C39.23 19.9801 43.57 19.7501 46.42 22.2701Z" fill="#FFC201"/>
<path d="M47.0901 31.9479C47.7301 31.2237 45.9308 28.5879 43.0713 26.0606C40.2117 23.5334 37.3747 22.0717 36.7347 22.7959C36.0947 23.5201 37.8939 26.1559 40.7535 28.6832C43.613 31.2104 46.45 32.6721 47.0901 31.9479Z" fill="#FFC201"/>
<path d="M46.32 31.2451C46.7845 30.7195 45.1918 28.5531 42.7626 26.4062C40.3334 24.2593 37.9876 22.9449 37.5232 23.4705C37.0587 23.9961 38.6514 26.1625 41.0805 28.3094C43.5097 30.4563 45.8555 31.7706 46.32 31.2451Z" fill="#1A2C38"/>
<path d="M31.5 56.7902C40.1819 56.7902 47.22 55.3172 47.22 53.5002C47.22 51.6832 40.1819 50.2102 31.5 50.2102C22.8181 50.2102 15.78 51.6832 15.78 53.5002C15.78 55.3172 22.8181 56.7902 31.5 56.7902Z" fill="#1A2C38"/>
<path d="M45.97 38.2701C45.97 30.2801 39.49 23.8 31.5 23.8C23.51 23.8 17.03 30.2801 17.03 38.2701C17.03 38.6201 17.06 38.97 17.08 39.32C17.05 39.67 17.03 40.02 17.03 40.37C17.03 48.36 23.51 54.84 31.5 54.84C39.49 54.84 45.97 48.36 45.97 40.37C45.97 40.02 45.94 39.67 45.92 39.32C45.94 38.97 45.97 38.6201 45.97 38.2701Z" fill="#047BFF"/>
<path d="M31.5 48.3702C37.4868 48.3702 42.34 43.517 42.34 37.5302C42.34 31.5434 37.4868 26.6902 31.5 26.6902C25.5133 26.6902 20.66 31.5434 20.66 37.5302C20.66 43.517 25.5133 48.3702 31.5 48.3702Z" fill="#45A7FF"/>
<path d="M31.5 49.1202C37.4868 49.1202 42.34 44.3789 42.34 38.5302C42.34 32.6815 37.4868 27.9402 31.5 27.9402C25.5133 27.9402 20.66 32.6815 20.66 38.5302C20.66 44.3789 25.5133 49.1202 31.5 49.1202Z" fill="white"/>
<path d="M26.8148 34.2288C26.2678 33.9398 25.5913 34.1469 25.3036 34.6914C25.0159 35.2359 25.2261 35.9115 25.773 36.2005L30.5033 38.6998C31.0502 38.9887 31.7268 38.7816 32.0145 38.2371C32.3021 37.6927 32.092 37.017 31.5451 36.7281L26.8148 34.2288Z" fill="#1A2C38"/>
<path d="M31.9383 38.4207L39.0443 33.0621C39.3794 32.8094 39.4463 32.3328 39.1935 31.9977L39.1634 31.9578C38.9107 31.6226 38.4342 31.5558 38.099 31.8086L30.993 37.1672C30.6579 37.4199 30.5911 37.8965 30.8438 38.2316L30.8739 38.2715C31.1267 38.6066 31.6032 38.6734 31.9383 38.4207Z" fill="#1A2C38"/>
<path d="M31.5 39.74C32.6598 39.74 33.6 38.7998 33.6 37.64C33.6 36.4802 32.6598 35.54 31.5 35.54C30.3402 35.54 29.4 36.4802 29.4 37.64C29.4 38.7998 30.3402 39.74 31.5 39.74Z" fill="#FFC201"/>
<path d="M31.5001 37.0302C32.0192 37.0302 32.4401 36.7839 32.4401 36.4802C32.4401 36.1764 32.0192 35.9302 31.5001 35.9302C30.9809 35.9302 30.5601 36.1764 30.5601 36.4802C30.5601 36.7839 30.9809 37.0302 31.5001 37.0302Z" fill="white"/>
<path d="M21.47 49.3101C21.09 48.9801 20.5 49.0801 20.25 49.5201C19.56 50.7801 18.6 53.1901 20.22 54.7401C21.84 56.2901 24.47 54.8701 25.97 53.8701C26.48 53.5301 26.44 52.7901 25.9 52.5001C24.38 51.6901 22.91 50.5601 21.47 49.3001V49.3101Z" fill="#FFC201"/>
<path d="M41.53 49.3101C41.91 48.9801 42.5 49.0801 42.75 49.5201C43.44 50.7801 44.4 53.1901 42.78 54.7401C41.16 56.2901 38.53 54.8701 37.03 53.8701C36.52 53.5301 36.56 52.7901 37.1 52.5001C38.62 51.6901 40.09 50.5601 41.53 49.3001V49.3101Z" fill="#FFC201"/>
<path d="M41.9 22.6101C42.8831 22.6101 43.68 22.2608 43.68 21.83C43.68 21.3993 42.8831 21.05 41.9 21.05C40.9169 21.05 40.12 21.3993 40.12 21.83C40.12 22.2608 40.9169 22.6101 41.9 22.6101Z" fill="white"/>
<path d="M21.1001 22.6101C22.0831 22.6101 22.8801 22.2608 22.8801 21.83C22.8801 21.3993 22.0831 21.05 21.1001 21.05C20.117 21.05 19.3201 21.3993 19.3201 21.83C19.3201 22.2608 20.117 22.6101 21.1001 22.6101Z" fill="white"/>
<path fill-rule="evenodd" clip-rule="evenodd" d="M6.49771 79C6.98969 79 7.48602 79.213 7.49037 79.6913C7.49037 80.1043 7.24656 80.2696 6.99839 80.2696C6.75023 80.2696 6.73281 80.1435 6.73281 80.1435C6.73281 80.1435 7.02452 79.9261 7.02452 79.7174C7.02452 79.6087 6.94179 79.313 6.489 79.3174C5.8577 79.3174 5.5181 79.6174 5.5181 80.1522C5.5181 80.7652 7.35105 80.9739 7.3554 81.7652C7.3554 82.613 6.47594 82.9957 5.69225 83C5.283 83 5.01306 82.7609 5.00871 82.3783C5.00871 81.9261 5.22204 81.4652 5.75756 81.4652C5.88382 81.4565 5.98831 81.5522 5.99702 81.6783C5.99702 81.6783 5.99702 81.6826 5.99702 81.687C5.99702 81.687 5.45715 81.8391 5.4615 82.3783C5.4615 82.4783 5.56599 82.6609 5.81851 82.6565C6.07103 82.6522 6.82424 82.4739 6.81989 81.8087C6.81989 81.1913 5.00435 81.1087 5 80.1478C5 79.0652 6.08845 79.0087 6.49771 79.0087V79ZM10.747 79.6C10.8123 79.5696 11.2129 79.4913 11.1955 79.813C11.1824 80.1348 10.9386 80.6913 10.9037 80.9348C11.2303 80.7696 11.6918 80.2087 11.6918 80.2087C11.6918 80.2087 12.0183 80.2522 11.9182 80.4522C11.818 80.6522 11.1519 81.1435 11.1519 81.1435C11.1519 81.1435 11.3043 82.5696 12.1707 82.5696C12.6453 82.5696 12.8499 82.3609 12.937 82.287C12.9587 82.2696 12.9762 82.2652 12.9849 82.2783C13.0197 82.387 12.9936 82.5043 12.9152 82.5913C12.8194 82.6957 12.5974 82.8217 12.1533 82.8261C11.3653 82.8261 10.9255 82.1957 10.8123 81.2609C10.7252 81.5348 10.7339 81.9826 10.7209 82.2C10.6948 82.2435 10.2507 82.4174 10.2158 82.1174C10.2158 82.0913 10.2158 82.0696 10.2158 82.0435C10.1331 82.1609 10.0199 82.2826 9.91108 82.2826C9.71951 82.2826 9.63679 82.1217 9.60196 82.0391C9.57584 82.0696 9.3625 82.287 9.08821 82.287C8.92277 82.2913 8.77474 82.1957 8.70943 82.0435C8.57011 82.1435 8.32195 82.2913 8.03895 82.2913C7.73418 82.2913 7.66017 82.1087 7.66017 81.9565C7.66017 81.713 7.84303 80.987 7.84303 80.987C7.84303 80.987 7.48602 81.1304 7.36411 81.1348C7.19431 81.1348 7.11159 80.8217 7.11159 80.813C7.11159 80.8087 7.11159 80.8 7.1203 80.8C7.22044 80.7609 7.94317 80.513 7.94317 80.513C7.94317 80.513 8.07813 79.9826 8.09555 79.913C8.11296 79.8435 8.2131 79.7 8.33065 79.6565C8.41773 79.6217 8.50916 79.6 8.60059 79.5913C8.63107 79.5913 8.65284 79.6 8.65284 79.6174C8.65284 79.6348 8.47433 80.4087 8.47433 80.4087C8.47433 80.4087 8.84876 80.3217 8.98808 80.3217C9.09692 80.3217 9.15352 80.387 9.09257 80.4696C9.03162 80.5522 8.96196 80.6478 8.92712 80.6913C8.88794 80.7348 8.86182 80.7435 8.77039 80.7609C8.64413 80.787 8.36113 80.8565 8.36113 80.8565C8.36113 80.8565 8.13473 81.6783 8.13909 81.8174C8.13909 81.8957 8.16521 81.987 8.26099 81.987C8.35678 81.987 8.53964 81.8739 8.67025 81.7913C8.69202 81.1522 9.18835 80.7261 9.57584 80.7261C9.7021 80.7261 9.65421 80.8478 9.79788 80.8478H9.88931C9.94591 80.8478 10.0069 80.8522 10.0069 80.9957C10.0069 81.1957 9.89367 81.5261 9.89367 81.7348C9.89367 81.8826 9.91544 81.987 9.97204 81.987C10.0678 81.987 10.1767 81.8478 10.255 81.7261C10.3813 81.0304 10.734 79.7609 10.734 79.6174L10.747 79.6ZM12.5016 80.7C12.7672 80.6783 12.9326 80.8217 12.9631 80.9C12.9936 80.9783 12.9892 81.1609 12.9152 81.2913C12.6845 81.7044 12.1097 81.6304 12.1097 81.6304C12.1097 81.6304 12.0444 81.9565 12.3405 81.9565C12.593 81.9565 12.7062 81.8304 12.8151 81.7261C12.8586 81.7261 12.9936 81.8652 12.9326 81.9609C12.8847 82.0348 12.6191 82.2565 12.2795 82.2609C11.7397 82.2609 11.6047 81.8 11.6744 81.4696C11.7658 81.0609 12.1751 80.7217 12.5016 80.6957V80.7ZM9.6455 80.987C9.32332 80.987 8.82699 81.9696 9.20577 81.9652C9.61938 81.9652 9.6455 81.1826 9.6455 81.0043V80.987ZM12.6409 80.8913C12.4232 80.9 12.1751 81.3174 12.1533 81.5C12.4798 81.513 12.654 81.1957 12.6757 81.0696C12.6888 80.9739 12.6932 80.887 12.6409 80.887V80.8913Z" fill="#557086"/>
<path d="M45.851 79.0672L44.2521 80.8632C44.1826 80.9428 44.1826 81.0572 44.2521 81.1368L45.846 82.9328C45.9255 83.0224 46.0695 83.0224 46.1539 82.9328L47.7478 81.1368C47.8173 81.0572 47.8173 80.9428 47.7478 80.8632L46.1539 79.0672C46.0744 78.9776 45.9304 78.9776 45.846 79.0672H45.851Z" fill="white"/>
<path d="M46.6604 79.6343L47.142 80.1766L45.568 82.6144L44.704 81.6393L46.6604 79.6343Z" fill="#8EA3B2"/>
<path d="M50.851 79.0672L49.2521 80.8632C49.1826 80.9428 49.1826 81.0572 49.2521 81.1368L50.846 82.9328C50.9255 83.0224 51.0695 83.0224 51.1539 82.9328L52.7478 81.1368C52.8173 81.0572 52.8173 80.9428 52.7478 80.8632L51.1539 79.0672C51.0744 78.9776 50.9304 78.9776 50.846 79.0672H50.851Z" fill="white"/>
<path d="M51.6604 79.6343L52.142 80.1766L50.568 82.6144L49.704 81.6393L51.6604 79.6343Z" fill="#8EA3B2"/>
<path d="M55.851 79.0672L54.2521 80.8632C54.1826 80.9428 54.1826 81.0572 54.2521 81.1368L55.846 82.9328C55.9255 83.0224 56.0695 83.0224 56.1539 82.9328L57.7478 81.1368C57.8173 81.0572 57.8173 80.9428 57.7478 80.8632L56.1539 79.0672C56.0744 78.9776 55.9304 78.9776 55.846 79.0672H55.851Z" fill="white"/>
<path d="M56.6604 79.6343L57.142 80.1766L55.568 82.6144L54.704 81.6393L56.6604 79.6343Z" fill="#8EA3B2"/>
<rect x="13" y="62" width="37" height="13" rx="6.5" fill="#2F4553"/>
<path d="M26.3378 70.072C25.1678 70.072 24.6218 69.058 24.6218 68.002C24.6218 66.946 25.1678 65.938 26.3378 65.938C27.5078 65.938 28.0538 66.946 28.0538 68.002C28.0538 69.058 27.5078 70.072 26.3378 70.072ZM26.3378 69.16C26.8178 69.16 27.0098 68.71 27.0098 68.002C27.0098 67.294 26.8178 66.85 26.3378 66.85C25.8578 66.85 25.6658 67.294 25.6658 68.002C25.6658 68.71 25.8578 69.16 26.3378 69.16ZM28.9261 70.072C28.6201 70.072 28.3621 69.814 28.3621 69.508C28.3621 69.202 28.6201 68.944 28.9261 68.944C29.2321 68.944 29.4901 69.202 29.4901 69.508C29.4901 69.814 29.2321 70.072 28.9261 70.072ZM31.3991 70H30.3671V67.318L29.6951 67.996L29.1071 67.378L30.5051 65.998H31.3991V70ZM33.6147 70.072C32.9067 70.072 32.3727 69.856 32.0007 69.49L32.5647 68.77C32.8407 69.022 33.2187 69.16 33.6027 69.16C34.0407 69.16 34.2567 68.944 34.2567 68.698C34.2567 68.428 34.0467 68.236 33.6327 68.236C33.3147 68.236 33.0627 68.326 32.8407 68.536L32.1267 68.362V65.998H35.0307V66.898H33.1587V67.672C33.3507 67.486 33.6627 67.354 34.0167 67.354C34.6947 67.354 35.3067 67.852 35.3067 68.656C35.3067 69.52 34.6527 70.072 33.6147 70.072ZM38.5719 70H37.5579L36.9999 69.124L36.4359 70H35.4279L36.4179 68.512L35.4879 67.102H36.5019L36.9999 67.888L37.4919 67.102H38.5059L37.5819 68.512L38.5719 70Z" fill="white"/>
<path d="M6.835 11.06C5.82 11.06 5.33 10.49 5.33 9.67V7.665H6.05V9.645C6.05 10.11 6.32 10.43 6.835 10.43C7.35 10.43 7.615 10.11 7.615 9.645V7.665H8.34V9.665C8.34 10.495 7.85 11.06 6.835 11.06ZM11.247 11H10.612V9.54C10.612 9.205 10.437 9.09 10.167 9.09C9.91699 9.09 9.72199 9.23 9.61699 9.375V11H8.98199V8.585H9.61699V8.9C9.77199 8.715 10.067 8.525 10.462 8.525C10.992 8.525 11.247 8.825 11.247 9.295V11ZM13.0025 11.06C12.2575 11.06 11.7225 10.535 11.7225 9.79C11.7225 9.05 12.2575 8.525 13.0025 8.525C13.4975 8.525 13.7975 8.74 13.9575 8.96L13.5425 9.35C13.4275 9.18 13.2525 9.09 13.0325 9.09C12.6475 9.09 12.3775 9.37 12.3775 9.79C12.3775 10.21 12.6475 10.495 13.0325 10.495C13.2525 10.495 13.4275 10.395 13.5425 10.235L13.9575 10.62C13.7975 10.845 13.4975 11.06 13.0025 11.06ZM15.4926 11.06C14.6976 11.06 14.2176 10.48 14.2176 9.79C14.2176 9.105 14.6976 8.525 15.4926 8.525C16.2926 8.525 16.7726 9.105 16.7726 9.79C16.7726 10.48 16.2926 11.06 15.4926 11.06ZM15.4926 10.495C15.8876 10.495 16.1126 10.17 16.1126 9.79C16.1126 9.415 15.8876 9.09 15.4926 9.09C15.0976 9.09 14.8776 9.415 14.8776 9.79C14.8776 10.17 15.0976 10.495 15.4926 10.495ZM20.8787 11H20.2387V9.475C20.2387 9.25 20.1387 9.09 19.8787 9.09C19.6537 9.09 19.4687 9.24 19.3787 9.37V11H18.7387V9.475C18.7387 9.25 18.6387 9.09 18.3787 9.09C18.1587 9.09 17.9737 9.24 17.8787 9.375V11H17.2437V8.585H17.8787V8.9C17.9787 8.755 18.2987 8.525 18.6687 8.525C19.0237 8.525 19.2487 8.69 19.3387 8.965C19.4787 8.745 19.7987 8.525 20.1687 8.525C20.6137 8.525 20.8787 8.76 20.8787 9.255V11ZM25.1365 11H24.4965V9.475C24.4965 9.25 24.3965 9.09 24.1365 9.09C23.9115 9.09 23.7265 9.24 23.6365 9.37V11H22.9965V9.475C22.9965 9.25 22.8965 9.09 22.6365 9.09C22.4165 9.09 22.2315 9.24 22.1365 9.375V11H21.5015V8.585H22.1365V8.9C22.2365 8.755 22.5565 8.525 22.9265 8.525C23.2815 8.525 23.5065 8.69 23.5965 8.965C23.7365 8.745 24.0565 8.525 24.4265 8.525C24.8715 8.525 25.1365 8.76 25.1365 9.255V11ZM26.8793 11.06C26.0843 11.06 25.6043 10.48 25.6043 9.79C25.6043 9.105 26.0843 8.525 26.8793 8.525C27.6793 8.525 28.1593 9.105 28.1593 9.79C28.1593 10.48 27.6793 11.06 26.8793 11.06ZM26.8793 10.495C27.2743 10.495 27.4993 10.17 27.4993 9.79C27.4993 9.415 27.2743 9.09 26.8793 9.09C26.4843 9.09 26.2643 9.415 26.2643 9.79C26.2643 10.17 26.4843 10.495 26.8793 10.495ZM30.8954 11H30.2604V9.54C30.2604 9.205 30.0854 9.09 29.8154 9.09C29.5654 9.09 29.3704 9.23 29.2654 9.375V11H28.6304V8.585H29.2654V8.9C29.4204 8.715 29.7154 8.525 30.1104 8.525C30.6404 8.525 30.8954 8.825 30.8954 9.295V11Z" fill="white"/>
<path d="M47.1351 11H46.6831L45.2911 9.096V11H44.8231V8.332H45.3031L46.6671 10.184V8.332H47.1351V11ZM48.562 11.048C47.95 11.048 47.57 10.588 47.57 10.032C47.57 9.48 47.95 9.02 48.562 9.02C49.182 9.02 49.558 9.48 49.558 10.032C49.558 10.588 49.182 11.048 48.562 11.048ZM48.562 10.676C48.922 10.676 49.122 10.376 49.122 10.032C49.122 9.692 48.922 9.392 48.562 9.392C48.206 9.392 48.006 9.692 48.006 10.032C48.006 10.376 48.206 10.676 48.562 10.676ZM50.1794 11.044C50.0274 11.044 49.8994 10.916 49.8994 10.764C49.8994 10.612 50.0274 10.484 50.1794 10.484C50.3314 10.484 50.4594 10.612 50.4594 10.764C50.4594 10.916 50.3314 11.044 50.1794 11.044ZM52.9352 11H52.4672V8.94L52.0312 9.392L51.7592 9.108L52.5272 8.332H52.9352V11ZM55.3508 11H53.4188V10.632C54.4548 9.848 54.8588 9.5 54.8588 9.116C54.8588 8.836 54.6188 8.708 54.3748 8.708C54.0628 8.708 53.8228 8.836 53.6548 9.028L53.3828 8.72C53.6188 8.436 53.9948 8.292 54.3668 8.292C54.8828 8.292 55.3348 8.584 55.3348 9.116C55.3348 9.608 54.8828 10.048 54.1668 10.588H55.3508V11ZM56.8617 11.048C56.0777 11.048 55.7617 10.412 55.7617 9.672C55.7617 8.9 56.1657 8.292 56.9377 8.292C57.2697 8.292 57.5257 8.412 57.7057 8.588L57.4857 8.944C57.3457 8.796 57.1937 8.708 56.9377 8.708C56.4937 8.708 56.2337 9.12 56.2337 9.588C56.2337 9.616 56.2337 9.64 56.2377 9.664C56.3577 9.484 56.6377 9.292 56.9537 9.292C57.4337 9.292 57.8457 9.584 57.8457 10.152C57.8457 10.648 57.4577 11.048 56.8617 11.048ZM56.8377 10.632C57.1897 10.632 57.3737 10.384 57.3737 10.168C57.3737 9.84 57.1177 9.692 56.8257 9.692C56.5977 9.692 56.3777 9.816 56.2417 10.008C56.2697 10.296 56.4257 10.632 56.8377 10.632Z" fill="white"/>
</svg>
