<svg width="63" height="88" viewBox="0 0 63 88" fill="none" xmlns="http://www.w3.org/2000/svg">
<rect width="63" height="88" rx="4" fill="#047BFF"/>
<path d="M36.7008 13.5133L44.7992 3.48665C45.5586 2.54645 46.7024 2 47.911 2H58C59.6569 2 61 3.34314 61 5V83C61 84.6569 59.6569 86 58 86H5C3.34315 86 2 84.6569 2 83V18C2 16.3431 3.34315 15 5 15H33.589C34.7976 15 35.9414 14.4536 36.7008 13.5133Z" fill="#213743"/>
<rect x="5" y="18" width="53" height="40" rx="1" fill="#2F4553"/>
<g clip-path="url(#clip0_26835_29292)">
<path d="M38.7625 42.6894C39.4483 41.0348 39.8402 39.206 39.8402 37.2683C39.8402 30.1709 34.7021 21.6909 28.3775 21.6909C22.0529 21.6909 16.9149 30.16 16.9149 37.2683C16.9149 39.206 17.3068 41.0457 17.9926 42.6894C16.2073 43.7453 15.0099 45.683 15.0099 47.9037V51.9749C15.0099 52.8131 15.761 53.4554 16.5883 53.3247L21.6828 52.5083C22.423 52.3886 22.9673 51.7463 22.9673 50.9952V48.6112C24.5784 49.5801 26.4072 50.1243 28.3666 50.1243C30.3261 50.1243 32.1549 49.5692 33.7659 48.6112V50.9952C33.7659 51.7463 34.3102 52.3886 35.0504 52.5083L40.1449 53.3247C40.9723 53.4554 41.7234 52.8131 41.7234 51.9749V47.9037C41.7234 45.683 40.5259 43.7453 38.7407 42.6894H38.7625Z" fill="#1A2C38"/>
<path d="M19.8541 52.1275L24.9486 51.311C25.6888 51.1913 26.2331 50.549 26.2331 49.7979V40.6431H24.3281C20.9753 40.6431 18.2648 43.3536 18.2648 46.7064V50.7776C18.2648 51.6158 19.0159 52.2581 19.8432 52.1275H19.8541Z" fill="#1CE61C"/>
<path d="M20.4855 42.0257C21.5305 41.1657 22.8694 40.6541 24.3281 40.6541H26.2331V49.8089C26.2331 50.3967 25.8957 50.9193 25.3949 51.1696C22.9674 49.4061 21.1713 45.2805 20.4855 42.0257Z" fill="#008C00"/>
<path d="M43.4106 52.1275L38.3161 51.311C37.5759 51.1913 37.0316 50.549 37.0316 49.7979V40.6431H38.9366C42.2894 40.6431 44.9999 43.3536 44.9999 46.7064V50.7776C44.9999 51.6158 44.2488 52.2581 43.4215 52.1275H43.4106Z" fill="#1CE61C"/>
<path d="M30.1193 56.0462C31.0872 56.0462 31.8719 55.2615 31.8719 54.2936C31.8719 53.3257 31.0872 52.541 30.1193 52.541C29.1514 52.541 28.3667 53.3257 28.3667 54.2936C28.3667 55.2615 29.1514 56.0462 30.1193 56.0462Z" fill="white"/>
<path d="M28.2905 48.4155C28.1707 48.4155 28.0837 48.5025 28.0945 48.6005C28.2034 50.1027 29.7492 51.2893 31.6324 51.2893C33.5156 51.2893 35.0614 50.1027 35.1702 48.6005C35.1702 48.5025 35.0832 48.4263 34.9634 48.4155C32.6665 48.2739 30.4459 48.2739 28.2905 48.4155Z" fill="white"/>
<path d="M32.6666 54.7618C34.1095 54.7618 35.2792 53.5921 35.2792 52.1492C35.2792 50.7063 34.1095 49.5366 32.6666 49.5366C31.2238 49.5366 30.0541 50.7063 30.0541 52.1492C30.0541 53.5921 31.2238 54.7618 32.6666 54.7618Z" fill="white"/>
<path d="M43.0951 36.0711C43.0951 43.1685 37.957 48.9271 31.6324 48.9271C25.3078 48.9271 20.1698 43.1685 20.1698 36.0711C20.1698 28.9736 25.3078 20.4937 31.6324 20.4937C37.957 20.4937 43.0951 28.9627 43.0951 36.0711Z" fill="#047BFF"/>
<path d="M36.1065 23.9118C36.1065 25.1854 34.1035 25.1419 31.6325 25.1419C29.1614 25.1419 27.1584 25.1854 27.1584 23.9118C27.1584 22.6381 29.1614 21.604 31.6325 21.604C34.1035 21.604 36.1065 22.6381 36.1065 23.9118Z" fill="#1A2C38"/>
<path d="M43.0951 36.071C43.0951 43.1685 37.957 48.927 31.6324 48.927C25.3078 48.927 20.1698 43.1685 20.1698 36.071C20.1698 28.9736 24.9486 33.9483 31.2841 33.9483C37.6196 33.9483 43.106 28.9736 43.106 36.071H43.0951Z" fill="#45A7FF"/>
<path d="M30.5982 40.8391L28.3776 48.4047C28.3776 48.4047 29.2049 48.753 30.5982 48.8836L31.6324 42.6026L30.5982 40.85V40.8391Z" fill="#047BFF"/>
<path d="M26.8209 47.7515H36.4439C36.4439 48.4373 35.8887 48.9815 35.2138 48.9815H28.0619C27.3761 48.9815 26.8318 48.4264 26.8318 47.7515H26.8209Z" fill="#047BFF"/>
<path d="M31.9046 40.0662H31.3712C30.9443 40.0662 30.5983 40.4122 30.5983 40.839V51.3655C30.5983 51.7924 30.9443 52.1384 31.3712 52.1384H31.9046C32.3314 52.1384 32.6774 51.7924 32.6774 51.3655V40.839C32.6774 40.4122 32.3314 40.0662 31.9046 40.0662Z" fill="#1CE61C"/>
<path d="M31.2406 38.466C30.3807 38.466 29.7058 37.7911 29.7058 36.942V34.8846H28.6281C27.8552 34.8846 27.1694 34.4492 26.8319 33.7525C26.4945 33.0558 26.5816 32.2503 27.0605 31.6407L31.0556 26.6006C31.3495 26.2305 31.7849 26.0237 32.2421 26.0237C33.0912 26.0237 33.777 26.7095 33.777 27.5477V29.3982H34.637C35.3881 29.3982 36.0739 29.8119 36.4113 30.4868C36.7488 31.1617 36.6944 31.9455 36.2589 32.566L32.4707 37.8347C32.1768 38.2374 31.7305 38.466 31.2406 38.466Z" fill="#047BFF"/>
<path d="M32.8408 27.5586V30.3562H34.6369C35.4969 30.3562 35.9868 31.3251 35.486 32.0217L31.6978 37.2904C31.3712 37.7476 30.6419 37.519 30.6419 36.953V33.9485H28.6171C27.7354 33.9485 27.2455 32.9361 27.8007 32.2503L31.7958 27.2103C32.1332 26.7748 32.8299 27.0252 32.8299 27.5695L32.8408 27.5586Z" fill="white"/>
<path d="M37.759 27.7436C38.5193 27.1446 38.3516 25.6637 37.3843 24.4358C36.417 23.2079 35.0165 22.6981 34.2561 23.2971C33.4958 23.896 33.6635 25.377 34.6308 26.6049C35.5981 27.8328 36.9986 28.3426 37.759 27.7436Z" fill="white"/>
</g>
<path fill-rule="evenodd" clip-rule="evenodd" d="M6.49771 79C6.98969 79 7.48602 79.213 7.49037 79.6913C7.49037 80.1043 7.24656 80.2696 6.99839 80.2696C6.75023 80.2696 6.73281 80.1435 6.73281 80.1435C6.73281 80.1435 7.02452 79.9261 7.02452 79.7174C7.02452 79.6087 6.94179 79.313 6.489 79.3174C5.8577 79.3174 5.5181 79.6174 5.5181 80.1522C5.5181 80.7652 7.35105 80.9739 7.3554 81.7652C7.3554 82.613 6.47594 82.9957 5.69225 83C5.283 83 5.01306 82.7609 5.00871 82.3783C5.00871 81.9261 5.22204 81.4652 5.75756 81.4652C5.88382 81.4565 5.98831 81.5522 5.99702 81.6783C5.99702 81.6783 5.99702 81.6826 5.99702 81.687C5.99702 81.687 5.45715 81.8391 5.4615 82.3783C5.4615 82.4783 5.56599 82.6609 5.81851 82.6565C6.07103 82.6522 6.82424 82.4739 6.81989 81.8087C6.81989 81.1913 5.00435 81.1087 5 80.1478C5 79.0652 6.08845 79.0087 6.49771 79.0087V79ZM10.747 79.6C10.8123 79.5696 11.2129 79.4913 11.1955 79.813C11.1824 80.1348 10.9386 80.6913 10.9037 80.9348C11.2303 80.7696 11.6918 80.2087 11.6918 80.2087C11.6918 80.2087 12.0183 80.2522 11.9182 80.4522C11.818 80.6522 11.1519 81.1435 11.1519 81.1435C11.1519 81.1435 11.3043 82.5696 12.1707 82.5696C12.6453 82.5696 12.8499 82.3609 12.937 82.287C12.9587 82.2696 12.9762 82.2652 12.9849 82.2783C13.0197 82.387 12.9936 82.5043 12.9152 82.5913C12.8194 82.6957 12.5974 82.8217 12.1533 82.8261C11.3653 82.8261 10.9255 82.1957 10.8123 81.2609C10.7252 81.5348 10.7339 81.9826 10.7209 82.2C10.6948 82.2435 10.2507 82.4174 10.2158 82.1174C10.2158 82.0913 10.2158 82.0696 10.2158 82.0435C10.1331 82.1609 10.0199 82.2826 9.91108 82.2826C9.71951 82.2826 9.63679 82.1217 9.60196 82.0391C9.57584 82.0696 9.3625 82.287 9.08821 82.287C8.92277 82.2913 8.77474 82.1957 8.70943 82.0435C8.57011 82.1435 8.32195 82.2913 8.03895 82.2913C7.73418 82.2913 7.66017 82.1087 7.66017 81.9565C7.66017 81.713 7.84303 80.987 7.84303 80.987C7.84303 80.987 7.48602 81.1304 7.36411 81.1348C7.19431 81.1348 7.11159 80.8217 7.11159 80.813C7.11159 80.8087 7.11159 80.8 7.1203 80.8C7.22044 80.7609 7.94317 80.513 7.94317 80.513C7.94317 80.513 8.07813 79.9826 8.09555 79.913C8.11296 79.8435 8.2131 79.7 8.33065 79.6565C8.41773 79.6217 8.50916 79.6 8.60059 79.5913C8.63107 79.5913 8.65284 79.6 8.65284 79.6174C8.65284 79.6348 8.47433 80.4087 8.47433 80.4087C8.47433 80.4087 8.84876 80.3217 8.98808 80.3217C9.09692 80.3217 9.15352 80.387 9.09257 80.4696C9.03162 80.5522 8.96196 80.6478 8.92712 80.6913C8.88794 80.7348 8.86182 80.7435 8.77039 80.7609C8.64413 80.787 8.36113 80.8565 8.36113 80.8565C8.36113 80.8565 8.13473 81.6783 8.13909 81.8174C8.13909 81.8957 8.16521 81.987 8.26099 81.987C8.35678 81.987 8.53964 81.8739 8.67025 81.7913C8.69202 81.1522 9.18835 80.7261 9.57584 80.7261C9.7021 80.7261 9.65421 80.8478 9.79788 80.8478H9.88931C9.94591 80.8478 10.0069 80.8522 10.0069 80.9957C10.0069 81.1957 9.89367 81.5261 9.89367 81.7348C9.89367 81.8826 9.91544 81.987 9.97204 81.987C10.0678 81.987 10.1767 81.8478 10.255 81.7261C10.3813 81.0304 10.734 79.7609 10.734 79.6174L10.747 79.6ZM12.5016 80.7C12.7672 80.6783 12.9326 80.8217 12.9631 80.9C12.9936 80.9783 12.9892 81.1609 12.9152 81.2913C12.6845 81.7044 12.1097 81.6304 12.1097 81.6304C12.1097 81.6304 12.0444 81.9565 12.3405 81.9565C12.593 81.9565 12.7062 81.8304 12.8151 81.7261C12.8586 81.7261 12.9936 81.8652 12.9326 81.9609C12.8847 82.0348 12.6191 82.2565 12.2795 82.2609C11.7397 82.2609 11.6047 81.8 11.6744 81.4696C11.7658 81.0609 12.1751 80.7217 12.5016 80.6957V80.7ZM9.6455 80.987C9.32332 80.987 8.82699 81.9696 9.20577 81.9652C9.61938 81.9652 9.6455 81.1826 9.6455 81.0043V80.987ZM12.6409 80.8913C12.4232 80.9 12.1751 81.3174 12.1533 81.5C12.4798 81.513 12.654 81.1957 12.6757 81.0696C12.6888 80.9739 12.6932 80.887 12.6409 80.887V80.8913Z" fill="#557086"/>
<path d="M45.851 79.0672L44.2522 80.8632C44.1826 80.9428 44.1826 81.0572 44.2522 81.1368L45.8461 82.9328C45.9255 83.0224 46.0695 83.0224 46.1539 82.9328L47.7479 81.1368C47.8174 81.0572 47.8174 80.9428 47.7479 80.8632L46.1539 79.0672C46.0745 78.9776 45.9305 78.9776 45.8461 79.0672H45.851Z" fill="white"/>
<path d="M46.6604 79.6343L47.1421 80.1766L45.568 82.6144L44.704 81.6393L46.6604 79.6343Z" fill="#8EA3B2"/>
<path d="M50.851 79.0672L49.2522 80.8632C49.1826 80.9428 49.1826 81.0572 49.2522 81.1368L50.8461 82.9328C50.9255 83.0224 51.0695 83.0224 51.1539 82.9328L52.7479 81.1368C52.8174 81.0572 52.8174 80.9428 52.7479 80.8632L51.1539 79.0672C51.0745 78.9776 50.9305 78.9776 50.8461 79.0672H50.851Z" fill="white"/>
<path d="M51.6604 79.6343L52.1421 80.1766L50.568 82.6144L49.704 81.6393L51.6604 79.6343Z" fill="#8EA3B2"/>
<path d="M55.851 79.0672L54.2522 80.8632C54.1826 80.9428 54.1826 81.0572 54.2522 81.1368L55.8461 82.9328C55.9255 83.0224 56.0695 83.0224 56.1539 82.9328L57.7479 81.1368C57.8174 81.0572 57.8174 80.9428 57.7479 80.8632L56.1539 79.0672C56.0745 78.9776 55.9305 78.9776 55.8461 79.0672H55.851Z" fill="white"/>
<path d="M56.6604 79.6343L57.1421 80.1766L55.568 82.6144L54.704 81.6393L56.6604 79.6343Z" fill="#8EA3B2"/>
<rect x="13" y="62" width="37" height="13" rx="6.5" fill="#2F4553"/>
<path d="M26.3378 70.072C25.1678 70.072 24.6218 69.058 24.6218 68.002C24.6218 66.946 25.1678 65.938 26.3378 65.938C27.5078 65.938 28.0538 66.946 28.0538 68.002C28.0538 69.058 27.5078 70.072 26.3378 70.072ZM26.3378 69.16C26.8178 69.16 27.0098 68.71 27.0098 68.002C27.0098 67.294 26.8178 66.85 26.3378 66.85C25.8578 66.85 25.6658 67.294 25.6658 68.002C25.6658 68.71 25.8578 69.16 26.3378 69.16ZM28.9261 70.072C28.6201 70.072 28.3621 69.814 28.3621 69.508C28.3621 69.202 28.6201 68.944 28.9261 68.944C29.2321 68.944 29.4901 69.202 29.4901 69.508C29.4901 69.814 29.2321 70.072 28.9261 70.072ZM31.3991 70H30.3671V67.318L29.6951 67.996L29.1071 67.378L30.5051 65.998H31.3991V70ZM33.6147 70.072C32.9067 70.072 32.3727 69.856 32.0007 69.49L32.5647 68.77C32.8407 69.022 33.2187 69.16 33.6027 69.16C34.0407 69.16 34.2567 68.944 34.2567 68.698C34.2567 68.428 34.0467 68.236 33.6327 68.236C33.3147 68.236 33.0627 68.326 32.8407 68.536L32.1267 68.362V65.998H35.0307V66.898H33.1587V67.672C33.3507 67.486 33.6627 67.354 34.0167 67.354C34.6947 67.354 35.3067 67.852 35.3067 68.656C35.3067 69.52 34.6527 70.072 33.6147 70.072ZM38.5719 70H37.5579L36.9999 69.124L36.4359 70H35.4279L36.4179 68.512L35.4879 67.102H36.5019L36.9999 67.888L37.4919 67.102H38.5059L37.5819 68.512L38.5719 70Z" fill="white"/>
<path d="M6.835 11.06C5.82 11.06 5.33 10.49 5.33 9.67V7.665H6.05V9.645C6.05 10.11 6.32 10.43 6.835 10.43C7.35 10.43 7.615 10.11 7.615 9.645V7.665H8.34V9.665C8.34 10.495 7.85 11.06 6.835 11.06ZM11.247 11H10.612V9.54C10.612 9.205 10.437 9.09 10.167 9.09C9.91699 9.09 9.72199 9.23 9.61699 9.375V11H8.98199V8.585H9.61699V8.9C9.77199 8.715 10.067 8.525 10.462 8.525C10.992 8.525 11.247 8.825 11.247 9.295V11ZM13.0025 11.06C12.2575 11.06 11.7225 10.535 11.7225 9.79C11.7225 9.05 12.2575 8.525 13.0025 8.525C13.4975 8.525 13.7975 8.74 13.9575 8.96L13.5425 9.35C13.4275 9.18 13.2525 9.09 13.0325 9.09C12.6475 9.09 12.3775 9.37 12.3775 9.79C12.3775 10.21 12.6475 10.495 13.0325 10.495C13.2525 10.495 13.4275 10.395 13.5425 10.235L13.9575 10.62C13.7975 10.845 13.4975 11.06 13.0025 11.06ZM15.4926 11.06C14.6976 11.06 14.2176 10.48 14.2176 9.79C14.2176 9.105 14.6976 8.525 15.4926 8.525C16.2926 8.525 16.7726 9.105 16.7726 9.79C16.7726 10.48 16.2926 11.06 15.4926 11.06ZM15.4926 10.495C15.8876 10.495 16.1126 10.17 16.1126 9.79C16.1126 9.415 15.8876 9.09 15.4926 9.09C15.0976 9.09 14.8776 9.415 14.8776 9.79C14.8776 10.17 15.0976 10.495 15.4926 10.495ZM20.8787 11H20.2387V9.475C20.2387 9.25 20.1387 9.09 19.8787 9.09C19.6537 9.09 19.4687 9.24 19.3787 9.37V11H18.7387V9.475C18.7387 9.25 18.6387 9.09 18.3787 9.09C18.1587 9.09 17.9737 9.24 17.8787 9.375V11H17.2437V8.585H17.8787V8.9C17.9787 8.755 18.2987 8.525 18.6687 8.525C19.0237 8.525 19.2487 8.69 19.3387 8.965C19.4787 8.745 19.7987 8.525 20.1687 8.525C20.6137 8.525 20.8787 8.76 20.8787 9.255V11ZM25.1365 11H24.4965V9.475C24.4965 9.25 24.3965 9.09 24.1365 9.09C23.9115 9.09 23.7265 9.24 23.6365 9.37V11H22.9965V9.475C22.9965 9.25 22.8965 9.09 22.6365 9.09C22.4165 9.09 22.2315 9.24 22.1365 9.375V11H21.5015V8.585H22.1365V8.9C22.2365 8.755 22.5565 8.525 22.9265 8.525C23.2815 8.525 23.5065 8.69 23.5965 8.965C23.7365 8.745 24.0565 8.525 24.4265 8.525C24.8715 8.525 25.1365 8.76 25.1365 9.255V11ZM26.8793 11.06C26.0843 11.06 25.6043 10.48 25.6043 9.79C25.6043 9.105 26.0843 8.525 26.8793 8.525C27.6793 8.525 28.1593 9.105 28.1593 9.79C28.1593 10.48 27.6793 11.06 26.8793 11.06ZM26.8793 10.495C27.2743 10.495 27.4993 10.17 27.4993 9.79C27.4993 9.415 27.2743 9.09 26.8793 9.09C26.4843 9.09 26.2643 9.415 26.2643 9.79C26.2643 10.17 26.4843 10.495 26.8793 10.495ZM30.8954 11H30.2604V9.54C30.2604 9.205 30.0854 9.09 29.8154 9.09C29.5654 9.09 29.3704 9.23 29.2654 9.375V11H28.6304V8.585H29.2654V8.9C29.4204 8.715 29.7154 8.525 30.1104 8.525C30.6404 8.525 30.8954 8.825 30.8954 9.295V11Z" fill="white"/>
<path d="M47.1351 11H46.6831L45.2911 9.096V11H44.8231V8.332H45.3031L46.6671 10.184V8.332H47.1351V11ZM48.562 11.048C47.95 11.048 47.57 10.588 47.57 10.032C47.57 9.48 47.95 9.02 48.562 9.02C49.182 9.02 49.558 9.48 49.558 10.032C49.558 10.588 49.182 11.048 48.562 11.048ZM48.562 10.676C48.922 10.676 49.122 10.376 49.122 10.032C49.122 9.692 48.922 9.392 48.562 9.392C48.206 9.392 48.006 9.692 48.006 10.032C48.006 10.376 48.206 10.676 48.562 10.676ZM50.1794 11.044C50.0274 11.044 49.8994 10.916 49.8994 10.764C49.8994 10.612 50.0274 10.484 50.1794 10.484C50.3314 10.484 50.4594 10.612 50.4594 10.764C50.4594 10.916 50.3314 11.044 50.1794 11.044ZM52.9352 11H52.4672V8.94L52.0312 9.392L51.7592 9.108L52.5272 8.332H52.9352V11ZM55.3508 11H53.4188V10.632C54.4548 9.848 54.8588 9.5 54.8588 9.116C54.8588 8.836 54.6188 8.708 54.3748 8.708C54.0628 8.708 53.8228 8.836 53.6548 9.028L53.3828 8.72C53.6188 8.436 53.9948 8.292 54.3668 8.292C54.8828 8.292 55.3348 8.584 55.3348 9.116C55.3348 9.608 54.8828 10.048 54.1668 10.588H55.3508V11ZM56.6577 11.044C56.3297 11.044 56.0737 10.928 55.8937 10.748L56.1097 10.396C56.2497 10.54 56.4057 10.628 56.6577 10.628C57.1417 10.628 57.3617 10.188 57.3617 9.752C57.3617 9.724 57.3617 9.7 57.3617 9.672C57.2377 9.852 56.9577 10.048 56.6457 10.048C56.1657 10.048 55.7497 9.752 55.7497 9.184C55.7497 8.692 56.1377 8.288 56.7337 8.288C57.5177 8.288 57.8337 8.924 57.8337 9.668C57.8337 10.436 57.4297 11.044 56.6577 11.044ZM56.7697 9.644C56.9977 9.644 57.2217 9.524 57.3537 9.332C57.3297 9.044 57.1697 8.704 56.7577 8.704C56.4097 8.704 56.2257 8.956 56.2257 9.168C56.2257 9.496 56.4817 9.644 56.7697 9.644Z" fill="white"/>
<defs>
<clipPath id="clip0_26835_29292">
<rect width="63" height="88" fill="white"/>
</clipPath>
</defs>
</svg>
