<svg width="63" height="88" viewBox="0 0 63 88" fill="none" xmlns="http://www.w3.org/2000/svg">
<rect width="63" height="88" rx="4" fill="#047BFF"/>
<path d="M36.7008 13.5133L44.7992 3.48665C45.5586 2.54645 46.7024 2 47.911 2H58C59.6569 2 61 3.34314 61 5V83C61 84.6569 59.6569 86 58 86H5C3.34315 86 2 84.6569 2 83V18C2 16.3431 3.34315 15 5 15H33.589C34.7976 15 35.9414 14.4536 36.7008 13.5133Z" fill="#213743"/>
<rect x="5" y="18" width="53" height="40" rx="1" fill="#2F4553"/>
<g clip-path="url(#clip0_26835_29293)">
<path d="M39.0688 45.8301H15.2712C14.1107 45.8301 13.17 46.6089 13.17 47.5696V54.0905C13.17 55.0512 14.1107 55.8301 15.2712 55.8301H39.0688C40.2292 55.8301 41.17 55.0512 41.17 54.0905V47.5696C41.17 46.6089 40.2292 45.8301 39.0688 45.8301Z" fill="#1A2C38"/>
<path d="M43.1438 45.8301H20.1961C19.0771 45.8301 18.17 46.6089 18.17 47.5696V54.0905C18.17 55.0512 19.0771 55.8301 20.1961 55.8301H43.1438C44.2628 55.8301 45.17 55.0512 45.17 54.0905V47.5696C45.17 46.6089 44.2628 45.8301 43.1438 45.8301Z" fill="#047BFF"/>
<path d="M43.1438 42.8301H20.1961C19.0771 42.8301 18.17 43.6118 18.17 44.5762V50.084C18.17 51.0483 19.0771 51.8301 20.1961 51.8301H43.1438C44.2628 51.8301 45.17 51.0483 45.17 50.084V44.5762C45.17 43.6118 44.2628 42.8301 43.1438 42.8301Z" fill="#45A7FF"/>
<path d="M27.81 49.08C31.4275 49.08 34.36 48.001 34.36 46.67C34.36 45.339 31.4275 44.26 27.81 44.26C24.1925 44.26 21.26 45.339 21.26 46.67C21.26 48.001 24.1925 49.08 27.81 49.08Z" fill="#1A2C38"/>
<path d="M33.87 52.57C35.6318 52.57 37.06 52.1716 37.06 51.68C37.06 51.1885 35.6318 50.79 33.87 50.79C32.1082 50.79 30.68 51.1885 30.68 51.68C30.68 52.1716 32.1082 52.57 33.87 52.57Z" fill="white"/>
<path d="M21.56 34.64C23.3163 34.64 24.74 33.2163 24.74 31.46C24.74 29.7038 23.3163 28.28 21.56 28.28C19.8037 28.28 18.38 29.7038 18.38 31.46C18.38 33.2163 19.8037 34.64 21.56 34.64Z" fill="#FF7F00"/>
<path d="M22.35 24.1599H40.64V32.8299C40.64 37.8799 36.54 41.9799 31.49 41.9799C26.44 41.9799 22.34 37.8799 22.34 32.8299V24.1599H22.35Z" fill="#FF7F00"/>
<path d="M22.35 24.1599H40.64V28.2099C40.64 33.2599 36.54 37.3599 31.49 37.3599C26.44 37.3599 22.34 33.2599 22.34 28.2099V24.1599H22.35Z" fill="#FFC200"/>
<path d="M31.5 27.32C36.5534 27.32 40.65 25.9052 40.65 24.16C40.65 22.4148 36.5534 21 31.5 21C26.4466 21 22.35 22.4148 22.35 24.16C22.35 25.9052 26.4466 27.32 31.5 27.32Z" fill="#FFC200"/>
<path d="M41.44 34.64C43.1963 34.64 44.62 33.2163 44.62 31.46C44.62 29.7038 43.1963 28.28 41.44 28.28C39.6837 28.28 38.26 29.7038 38.26 31.46C38.26 33.2163 39.6837 34.64 41.44 34.64Z" fill="#FFC200"/>
<path d="M42.12 32.24C42.9374 32.24 43.6 31.5774 43.6 30.76C43.6 29.9426 42.9374 29.28 42.12 29.28C41.3026 29.28 40.64 29.9426 40.64 30.76C40.64 31.5774 41.3026 32.24 42.12 32.24Z" fill="white"/>
<path d="M32.74 26.6499C36.722 26.6499 39.95 25.5351 39.95 24.1599C39.95 22.7847 36.722 21.6699 32.74 21.6699C28.7581 21.6699 25.53 22.7847 25.53 24.1599C25.53 25.5351 28.7581 26.6499 32.74 26.6499Z" fill="white"/>
<path d="M31.5 27.3201C35.4819 27.3201 38.71 26.2053 38.71 24.8301C38.71 23.4549 35.4819 22.3401 31.5 22.3401C27.518 22.3401 24.29 23.4549 24.29 24.8301C24.29 26.2053 27.518 27.3201 31.5 27.3201Z" fill="#1A2C38"/>
<path d="M33.3 38.8899H29.7V46.5499H33.3V38.8899Z" fill="#FF7F00"/>
<path d="M31.5 49.1601C36.0619 49.1601 39.76 47.7945 39.76 46.1101C39.76 44.4256 36.0619 43.0601 31.5 43.0601C26.9381 43.0601 23.24 44.4256 23.24 46.1101C23.24 47.7945 26.9381 49.1601 31.5 49.1601Z" fill="#FF7F00"/>
<path d="M22.35 21.96C21.76 22.87 21.29 23.34 20.4 23.91C21.31 24.5 21.78 24.97 22.35 25.86C22.94 24.95 23.41 24.48 24.3 23.91C23.39 23.32 22.92 22.85 22.35 21.96Z" fill="white"/>
</g>
<path fill-rule="evenodd" clip-rule="evenodd" d="M6.49771 79C6.98969 79 7.48602 79.213 7.49037 79.6913C7.49037 80.1043 7.24656 80.2696 6.99839 80.2696C6.75023 80.2696 6.73281 80.1435 6.73281 80.1435C6.73281 80.1435 7.02452 79.9261 7.02452 79.7174C7.02452 79.6087 6.94179 79.313 6.489 79.3174C5.8577 79.3174 5.5181 79.6174 5.5181 80.1522C5.5181 80.7652 7.35105 80.9739 7.3554 81.7652C7.3554 82.613 6.47594 82.9957 5.69225 83C5.283 83 5.01306 82.7609 5.00871 82.3783C5.00871 81.9261 5.22204 81.4652 5.75756 81.4652C5.88382 81.4565 5.98831 81.5522 5.99702 81.6783C5.99702 81.6783 5.99702 81.6826 5.99702 81.687C5.99702 81.687 5.45715 81.8391 5.4615 82.3783C5.4615 82.4783 5.56599 82.6609 5.81851 82.6565C6.07103 82.6522 6.82424 82.4739 6.81989 81.8087C6.81989 81.1913 5.00435 81.1087 5 80.1478C5 79.0652 6.08845 79.0087 6.49771 79.0087V79ZM10.747 79.6C10.8123 79.5696 11.2129 79.4913 11.1955 79.813C11.1824 80.1348 10.9386 80.6913 10.9037 80.9348C11.2303 80.7696 11.6918 80.2087 11.6918 80.2087C11.6918 80.2087 12.0183 80.2522 11.9182 80.4522C11.818 80.6522 11.1519 81.1435 11.1519 81.1435C11.1519 81.1435 11.3043 82.5696 12.1707 82.5696C12.6453 82.5696 12.8499 82.3609 12.937 82.287C12.9587 82.2696 12.9762 82.2652 12.9849 82.2783C13.0197 82.387 12.9936 82.5043 12.9152 82.5913C12.8194 82.6957 12.5974 82.8217 12.1533 82.8261C11.3653 82.8261 10.9255 82.1957 10.8123 81.2609C10.7252 81.5348 10.7339 81.9826 10.7209 82.2C10.6948 82.2435 10.2507 82.4174 10.2158 82.1174C10.2158 82.0913 10.2158 82.0696 10.2158 82.0435C10.1331 82.1609 10.0199 82.2826 9.91108 82.2826C9.71951 82.2826 9.63679 82.1217 9.60196 82.0391C9.57584 82.0696 9.3625 82.287 9.08821 82.287C8.92277 82.2913 8.77474 82.1957 8.70943 82.0435C8.57011 82.1435 8.32195 82.2913 8.03895 82.2913C7.73418 82.2913 7.66017 82.1087 7.66017 81.9565C7.66017 81.713 7.84303 80.987 7.84303 80.987C7.84303 80.987 7.48602 81.1304 7.36411 81.1348C7.19431 81.1348 7.11159 80.8217 7.11159 80.813C7.11159 80.8087 7.11159 80.8 7.1203 80.8C7.22044 80.7609 7.94317 80.513 7.94317 80.513C7.94317 80.513 8.07813 79.9826 8.09555 79.913C8.11296 79.8435 8.2131 79.7 8.33065 79.6565C8.41773 79.6217 8.50916 79.6 8.60059 79.5913C8.63107 79.5913 8.65284 79.6 8.65284 79.6174C8.65284 79.6348 8.47433 80.4087 8.47433 80.4087C8.47433 80.4087 8.84876 80.3217 8.98808 80.3217C9.09692 80.3217 9.15352 80.387 9.09257 80.4696C9.03162 80.5522 8.96196 80.6478 8.92712 80.6913C8.88794 80.7348 8.86182 80.7435 8.77039 80.7609C8.64413 80.787 8.36113 80.8565 8.36113 80.8565C8.36113 80.8565 8.13473 81.6783 8.13909 81.8174C8.13909 81.8957 8.16521 81.987 8.26099 81.987C8.35678 81.987 8.53964 81.8739 8.67025 81.7913C8.69202 81.1522 9.18835 80.7261 9.57584 80.7261C9.7021 80.7261 9.65421 80.8478 9.79788 80.8478H9.88931C9.94591 80.8478 10.0069 80.8522 10.0069 80.9957C10.0069 81.1957 9.89367 81.5261 9.89367 81.7348C9.89367 81.8826 9.91544 81.987 9.97204 81.987C10.0678 81.987 10.1767 81.8478 10.255 81.7261C10.3813 81.0304 10.734 79.7609 10.734 79.6174L10.747 79.6ZM12.5016 80.7C12.7672 80.6783 12.9326 80.8217 12.9631 80.9C12.9936 80.9783 12.9892 81.1609 12.9152 81.2913C12.6845 81.7044 12.1097 81.6304 12.1097 81.6304C12.1097 81.6304 12.0444 81.9565 12.3405 81.9565C12.593 81.9565 12.7062 81.8304 12.8151 81.7261C12.8586 81.7261 12.9936 81.8652 12.9326 81.9609C12.8847 82.0348 12.6191 82.2565 12.2795 82.2609C11.7397 82.2609 11.6047 81.8 11.6744 81.4696C11.7658 81.0609 12.1751 80.7217 12.5016 80.6957V80.7ZM9.6455 80.987C9.32332 80.987 8.82699 81.9696 9.20577 81.9652C9.61938 81.9652 9.6455 81.1826 9.6455 81.0043V80.987ZM12.6409 80.8913C12.4232 80.9 12.1751 81.3174 12.1533 81.5C12.4798 81.513 12.654 81.1957 12.6757 81.0696C12.6888 80.9739 12.6932 80.887 12.6409 80.887V80.8913Z" fill="#557086"/>
<path d="M45.851 79.0672L44.2522 80.8632C44.1826 80.9428 44.1826 81.0572 44.2522 81.1368L45.8461 82.9328C45.9255 83.0224 46.0695 83.0224 46.1539 82.9328L47.7479 81.1368C47.8174 81.0572 47.8174 80.9428 47.7479 80.8632L46.1539 79.0672C46.0745 78.9776 45.9305 78.9776 45.8461 79.0672H45.851Z" fill="white"/>
<path d="M46.6604 79.6343L47.1421 80.1766L45.568 82.6144L44.704 81.6393L46.6604 79.6343Z" fill="#8EA3B2"/>
<path d="M50.851 79.0672L49.2522 80.8632C49.1826 80.9428 49.1826 81.0572 49.2522 81.1368L50.8461 82.9328C50.9255 83.0224 51.0695 83.0224 51.1539 82.9328L52.7479 81.1368C52.8174 81.0572 52.8174 80.9428 52.7479 80.8632L51.1539 79.0672C51.0745 78.9776 50.9305 78.9776 50.8461 79.0672H50.851Z" fill="white"/>
<path d="M51.6604 79.6343L52.1421 80.1766L50.568 82.6144L49.704 81.6393L51.6604 79.6343Z" fill="#8EA3B2"/>
<path d="M55.851 79.0672L54.2522 80.8632C54.1826 80.9428 54.1826 81.0572 54.2522 81.1368L55.8461 82.9328C55.9255 83.0224 56.0695 83.0224 56.1539 82.9328L57.7479 81.1368C57.8174 81.0572 57.8174 80.9428 57.7479 80.8632L56.1539 79.0672C56.0745 78.9776 55.9305 78.9776 55.8461 79.0672H55.851Z" fill="white"/>
<path d="M56.6604 79.6343L57.1421 80.1766L55.568 82.6144L54.704 81.6393L56.6604 79.6343Z" fill="#8EA3B2"/>
<rect x="13" y="62" width="37" height="13" rx="6.5" fill="#2F4553"/>
<path d="M26.3378 70.072C25.1678 70.072 24.6218 69.058 24.6218 68.002C24.6218 66.946 25.1678 65.938 26.3378 65.938C27.5078 65.938 28.0538 66.946 28.0538 68.002C28.0538 69.058 27.5078 70.072 26.3378 70.072ZM26.3378 69.16C26.8178 69.16 27.0098 68.71 27.0098 68.002C27.0098 67.294 26.8178 66.85 26.3378 66.85C25.8578 66.85 25.6658 67.294 25.6658 68.002C25.6658 68.71 25.8578 69.16 26.3378 69.16ZM28.9261 70.072C28.6201 70.072 28.3621 69.814 28.3621 69.508C28.3621 69.202 28.6201 68.944 28.9261 68.944C29.2321 68.944 29.4901 69.202 29.4901 69.508C29.4901 69.814 29.2321 70.072 28.9261 70.072ZM31.3991 70H30.3671V67.318L29.6951 67.996L29.1071 67.378L30.5051 65.998H31.3991V70ZM33.6147 70.072C32.9067 70.072 32.3727 69.856 32.0007 69.49L32.5647 68.77C32.8407 69.022 33.2187 69.16 33.6027 69.16C34.0407 69.16 34.2567 68.944 34.2567 68.698C34.2567 68.428 34.0467 68.236 33.6327 68.236C33.3147 68.236 33.0627 68.326 32.8407 68.536L32.1267 68.362V65.998H35.0307V66.898H33.1587V67.672C33.3507 67.486 33.6627 67.354 34.0167 67.354C34.6947 67.354 35.3067 67.852 35.3067 68.656C35.3067 69.52 34.6527 70.072 33.6147 70.072ZM38.5719 70H37.5579L36.9999 69.124L36.4359 70H35.4279L36.4179 68.512L35.4879 67.102H36.5019L36.9999 67.888L37.4919 67.102H38.5059L37.5819 68.512L38.5719 70Z" fill="white"/>
<path d="M6.835 11.06C5.82 11.06 5.33 10.49 5.33 9.67V7.665H6.05V9.645C6.05 10.11 6.32 10.43 6.835 10.43C7.35 10.43 7.615 10.11 7.615 9.645V7.665H8.34V9.665C8.34 10.495 7.85 11.06 6.835 11.06ZM11.247 11H10.612V9.54C10.612 9.205 10.437 9.09 10.167 9.09C9.91699 9.09 9.72199 9.23 9.61699 9.375V11H8.98199V8.585H9.61699V8.9C9.77199 8.715 10.067 8.525 10.462 8.525C10.992 8.525 11.247 8.825 11.247 9.295V11ZM13.0025 11.06C12.2575 11.06 11.7225 10.535 11.7225 9.79C11.7225 9.05 12.2575 8.525 13.0025 8.525C13.4975 8.525 13.7975 8.74 13.9575 8.96L13.5425 9.35C13.4275 9.18 13.2525 9.09 13.0325 9.09C12.6475 9.09 12.3775 9.37 12.3775 9.79C12.3775 10.21 12.6475 10.495 13.0325 10.495C13.2525 10.495 13.4275 10.395 13.5425 10.235L13.9575 10.62C13.7975 10.845 13.4975 11.06 13.0025 11.06ZM15.4926 11.06C14.6976 11.06 14.2176 10.48 14.2176 9.79C14.2176 9.105 14.6976 8.525 15.4926 8.525C16.2926 8.525 16.7726 9.105 16.7726 9.79C16.7726 10.48 16.2926 11.06 15.4926 11.06ZM15.4926 10.495C15.8876 10.495 16.1126 10.17 16.1126 9.79C16.1126 9.415 15.8876 9.09 15.4926 9.09C15.0976 9.09 14.8776 9.415 14.8776 9.79C14.8776 10.17 15.0976 10.495 15.4926 10.495ZM20.8787 11H20.2387V9.475C20.2387 9.25 20.1387 9.09 19.8787 9.09C19.6537 9.09 19.4687 9.24 19.3787 9.37V11H18.7387V9.475C18.7387 9.25 18.6387 9.09 18.3787 9.09C18.1587 9.09 17.9737 9.24 17.8787 9.375V11H17.2437V8.585H17.8787V8.9C17.9787 8.755 18.2987 8.525 18.6687 8.525C19.0237 8.525 19.2487 8.69 19.3387 8.965C19.4787 8.745 19.7987 8.525 20.1687 8.525C20.6137 8.525 20.8787 8.76 20.8787 9.255V11ZM25.1365 11H24.4965V9.475C24.4965 9.25 24.3965 9.09 24.1365 9.09C23.9115 9.09 23.7265 9.24 23.6365 9.37V11H22.9965V9.475C22.9965 9.25 22.8965 9.09 22.6365 9.09C22.4165 9.09 22.2315 9.24 22.1365 9.375V11H21.5015V8.585H22.1365V8.9C22.2365 8.755 22.5565 8.525 22.9265 8.525C23.2815 8.525 23.5065 8.69 23.5965 8.965C23.7365 8.745 24.0565 8.525 24.4265 8.525C24.8715 8.525 25.1365 8.76 25.1365 9.255V11ZM26.8793 11.06C26.0843 11.06 25.6043 10.48 25.6043 9.79C25.6043 9.105 26.0843 8.525 26.8793 8.525C27.6793 8.525 28.1593 9.105 28.1593 9.79C28.1593 10.48 27.6793 11.06 26.8793 11.06ZM26.8793 10.495C27.2743 10.495 27.4993 10.17 27.4993 9.79C27.4993 9.415 27.2743 9.09 26.8793 9.09C26.4843 9.09 26.2643 9.415 26.2643 9.79C26.2643 10.17 26.4843 10.495 26.8793 10.495ZM30.8954 11H30.2604V9.54C30.2604 9.205 30.0854 9.09 29.8154 9.09C29.5654 9.09 29.3704 9.23 29.2654 9.375V11H28.6304V8.585H29.2654V8.9C29.4204 8.715 29.7154 8.525 30.1104 8.525C30.6404 8.525 30.8954 8.825 30.8954 9.295V11Z" fill="white"/>
<path d="M47.1546 11H46.7026L45.3106 9.096V11H44.8426V8.332H45.3226L46.6866 10.184V8.332H47.1546V11ZM48.5815 11.048C47.9695 11.048 47.5895 10.588 47.5895 10.032C47.5895 9.48 47.9695 9.02 48.5815 9.02C49.2015 9.02 49.5775 9.48 49.5775 10.032C49.5775 10.588 49.2015 11.048 48.5815 11.048ZM48.5815 10.676C48.9415 10.676 49.1415 10.376 49.1415 10.032C49.1415 9.692 48.9415 9.392 48.5815 9.392C48.2255 9.392 48.0255 9.692 48.0255 10.032C48.0255 10.376 48.2255 10.676 48.5815 10.676ZM50.1989 11.044C50.0469 11.044 49.9189 10.916 49.9189 10.764C49.9189 10.612 50.0469 10.484 50.1989 10.484C50.3509 10.484 50.4789 10.612 50.4789 10.764C50.4789 10.916 50.3509 11.044 50.1989 11.044ZM52.9548 11H52.4868V8.94L52.0508 9.392L51.7788 9.108L52.5468 8.332H52.9548V11ZM54.3423 11.048C53.8663 11.048 53.5143 10.856 53.3343 10.616L53.5863 10.308C53.7583 10.508 54.0423 10.632 54.3263 10.632C54.6783 10.632 54.8823 10.472 54.8823 10.224C54.8823 9.96 54.6703 9.848 54.2903 9.848C54.1783 9.848 54.0223 9.848 53.9823 9.852V9.432C54.0303 9.436 54.1863 9.436 54.2903 9.436C54.6023 9.436 54.8383 9.328 54.8383 9.084C54.8383 8.836 54.5983 8.708 54.2983 8.708C54.0263 8.708 53.8023 8.812 53.6103 9.004L53.3703 8.712C53.5743 8.472 53.8983 8.292 54.3423 8.292C54.9183 8.292 55.3063 8.564 55.3063 9.012C55.3063 9.368 55.0023 9.576 54.7263 9.624C54.9863 9.648 55.3463 9.86 55.3463 10.272C55.3463 10.724 54.9583 11.048 54.3423 11.048ZM56.7672 11.048C56.0192 11.048 55.6992 10.34 55.6992 9.668C55.6992 8.996 56.0192 8.292 56.7672 8.292C57.5152 8.292 57.8352 8.996 57.8352 9.668C57.8352 10.34 57.5152 11.048 56.7672 11.048ZM56.7672 10.632C57.2032 10.632 57.3592 10.176 57.3592 9.668C57.3592 9.16 57.2032 8.708 56.7672 8.708C56.3312 8.708 56.1752 9.16 56.1752 9.668C56.1752 10.176 56.3312 10.632 56.7672 10.632Z" fill="white"/>
<defs>
<clipPath id="clip0_26835_29293">
<rect width="63" height="88" fill="white"/>
</clipPath>
</defs>
</svg>
