<svg width="63" height="88" viewBox="0 0 63 88" fill="none" xmlns="http://www.w3.org/2000/svg">
<rect width="63" height="88" rx="4" fill="#047BFF"/>
<path d="M36.7008 13.5133L44.7992 3.48665C45.5586 2.54645 46.7024 2 47.911 2H58C59.6569 2 61 3.34314 61 5V83C61 84.6569 59.6569 86 58 86H5C3.34315 86 2 84.6569 2 83V18C2 16.3431 3.34315 15 5 15H33.589C34.7976 15 35.9414 14.4536 36.7008 13.5133Z" fill="#213743"/>
<rect x="5" y="18" width="53" height="40" rx="1" fill="#2F4553"/>
<path d="M26.85 54.1802C36.9292 54.1802 45.1 50.8805 45.1 46.8102C45.1 42.7398 36.9292 39.4402 26.85 39.4402C16.7708 39.4402 8.60001 42.7398 8.60001 46.8102C8.60001 50.8805 16.7708 54.1802 26.85 54.1802Z" fill="#1A2C38"/>
<path d="M31.5 53.1701C40.2427 53.1701 47.33 49.9107 47.33 45.8901C47.33 41.8695 40.2427 38.6101 31.5 38.6101C22.7573 38.6101 15.67 41.8695 15.67 45.8901C15.67 49.9107 22.7573 53.1701 31.5 53.1701Z" fill="#047BFF"/>
<path d="M47.33 30.03V45.89H15.66V39.99L16.13 30.03H47.33Z" fill="#047BFF"/>
<path d="M14.61 29.51V31.95C14.61 36.19 22.17 39.63 31.5 39.63C40.83 39.63 48.39 36.19 48.39 31.95V29.51H14.61Z" fill="#45A7FF"/>
<path d="M31.5 37.1901C40.8281 37.1901 48.39 33.7516 48.39 29.5101C48.39 25.2685 40.8281 21.8301 31.5 21.8301C22.1719 21.8301 14.61 25.2685 14.61 29.5101C14.61 33.7516 22.1719 37.1901 31.5 37.1901Z" fill="#45A7FF"/>
<path d="M48.39 29.5101C48.39 27.7501 47.08 26.1401 44.9 24.8501C38.92 23.6801 30.05 32.8301 36.58 36.8301C43.42 35.8501 48.39 32.9401 48.39 29.5101Z" fill="white"/>
<path d="M31.5 34.5701C38.8454 34.5701 44.8 32.1793 44.8 29.2301C44.8 26.2809 38.8454 23.8901 31.5 23.8901C24.1546 23.8901 18.2 26.2809 18.2 29.2301C18.2 32.1793 24.1546 34.5701 31.5 34.5701Z" fill="#047BFF"/>
<path d="M31.5 25.3901C38.7 25.3901 43.99 27.3801 44.54 30.2101C44.54 30.2401 44.54 30.2701 44.54 30.3001C44.72 29.9501 44.81 29.5901 44.81 29.2301C44.81 26.2801 38.85 23.8901 31.51 23.8901C24.17 23.8901 18.21 26.2801 18.21 29.2301C18.21 29.6001 18.3 29.9601 18.48 30.3001C18.48 30.2701 18.47 30.2401 18.48 30.2101C19.03 27.3901 24.32 25.3901 31.52 25.3901H31.5Z" fill="#55DFFF"/>
<path d="M29.23 28.12H27.45C23.54 26.28 19.92 27.57 19.92 29.76C19.92 31.95 23.54 33.24 27.45 31.4H29.23C29.54 31.4 29.79 31.15 29.79 30.84V28.68C29.79 28.37 29.54 28.12 29.23 28.12Z" fill="#55DFFF"/>
<path d="M29.23 27.39H27.45C23.54 25.55 19.92 26.84 19.92 29.03C19.92 31.22 23.54 32.51 27.45 30.67H29.23C29.54 30.67 29.79 30.42 29.79 30.11V27.95C29.79 27.64 29.54 27.39 29.23 27.39Z" fill="white"/>
<path d="M22.79 30.35C23.7179 30.35 24.47 29.7008 24.47 28.9C24.47 28.0991 23.7179 27.45 22.79 27.45C21.8622 27.45 21.11 28.0991 21.11 28.9C21.11 29.7008 21.8622 30.35 22.79 30.35Z" fill="#047BFF"/>
<path d="M22.79 27.9599C23.64 27.9599 24.34 28.37 24.45 29.08C24.45 29.02 24.47 28.96 24.47 28.9C24.47 28.1 23.72 27.45 22.79 27.45C21.86 27.45 21.11 28.1 21.11 28.9C21.11 28.96 21.12 29.02 21.13 29.08C21.23 28.37 21.93 27.9599 22.79 27.9599Z" fill="#55DFFF"/>
<path d="M40.23 47.39C40.32 47.16 40.22 46.91 40 46.8C39.72 46.66 38.88 46.6 38.91 46.38C38.94 46.15 39.85 45.83 40.17 45.77C40.41 45.72 40.58 45.51 40.56 45.27C40.56 45.21 40.55 45.15 40.54 45.09C40.23 42.58 37.93 40.8 35.4 41.13C32.87 41.46 32.78 43.54 33.09 46.06C33.4 48.57 33.99 50.57 36.52 50.24C38.23 50.02 39.61 48.89 40.22 47.4L40.23 47.39Z" fill="#55DFFF"/>
<path d="M30.52 49.9299C31.06 49.1899 31.41 48.1899 31.53 47.0999C32.45 47.0699 33.06 46.9699 33.12 46.9499C33.42 46.8999 33.63 46.6099 33.57 46.3099C33.52 46.0099 33.23 45.8099 32.92 45.8599C32.91 45.8599 32.37 45.9499 31.55 45.9799C31.49 44.7499 31.14 43.5899 30.54 42.7499C30.33 42.4499 29.91 42.3799 29.6 42.5899C29.3 42.7999 29.22 43.2099 29.44 43.5199C29.88 44.1399 30.15 45.0199 30.2 45.9799C29.84 45.9599 29.46 45.9299 29.06 45.8699C29.12 45.0099 28.97 44.1699 28.64 43.5299C28.5 43.2599 28.16 43.1499 27.89 43.2799C27.61 43.4199 27.5 43.7499 27.64 44.0199C27.86 44.4599 27.97 45.0399 27.95 45.6499C27.56 45.5499 27.18 45.4299 26.8 45.2699C26.51 45.1499 26.19 45.2899 26.07 45.5699C26.04 45.6399 26.03 45.7099 26.03 45.7799C26.03 45.9999 26.16 46.1999 26.38 46.2899C26.84 46.4799 27.32 46.6299 27.79 46.7399C27.63 47.3199 27.36 47.8299 27.02 48.1699C26.91 48.2799 26.86 48.4199 26.86 48.5599C26.86 48.6999 26.92 48.8499 27.03 48.9599C27.25 49.1699 27.61 49.1699 27.82 48.9599C28.3 48.4699 28.68 47.7599 28.89 46.9699C29.33 47.0299 29.76 47.0699 30.17 47.0999C30.07 47.9099 29.81 48.6299 29.42 49.1599C29.33 49.2799 29.29 49.4099 29.29 49.5499C29.29 49.7599 29.39 49.9599 29.57 50.0899C29.87 50.3099 30.29 50.2399 30.51 49.9399L30.52 49.9299Z" fill="#55DFFF"/>
<path d="M23.19 49.5901L24.94 49.1601C26.03 48.8901 26.7 47.7901 26.43 46.7101L26.02 45.0601C24.29 45.9601 23.08 47.2101 22.53 48.9001C22.4 49.3001 22.77 49.6901 23.18 49.5901H23.19Z" fill="#55DFFF"/>
<path d="M23 41.6399L24.78 41.9299C25.89 42.1099 26.65 43.1499 26.47 44.2499L26.2 45.9299C24.4 45.1699 23.09 44.0299 22.41 42.3899C22.25 41.9999 22.58 41.5799 23.01 41.6499L23 41.6399Z" fill="#55DFFF"/>
<path d="M47.33 39.1002C44.56 39.0702 39.31 45.9602 42.43 51.1502C45.45 49.8202 47.33 47.9602 47.33 45.8902V39.1102V39.1002Z" fill="white"/>
<path fill-rule="evenodd" clip-rule="evenodd" d="M6.49771 79C6.98969 79 7.48602 79.213 7.49037 79.6913C7.49037 80.1043 7.24656 80.2696 6.99839 80.2696C6.75023 80.2696 6.73281 80.1435 6.73281 80.1435C6.73281 80.1435 7.02452 79.9261 7.02452 79.7174C7.02452 79.6087 6.94179 79.313 6.489 79.3174C5.8577 79.3174 5.5181 79.6174 5.5181 80.1522C5.5181 80.7652 7.35105 80.9739 7.3554 81.7652C7.3554 82.613 6.47594 82.9957 5.69225 83C5.283 83 5.01306 82.7609 5.00871 82.3783C5.00871 81.9261 5.22204 81.4652 5.75756 81.4652C5.88382 81.4565 5.98831 81.5522 5.99702 81.6783C5.99702 81.6783 5.99702 81.6826 5.99702 81.687C5.99702 81.687 5.45715 81.8391 5.4615 82.3783C5.4615 82.4783 5.56599 82.6609 5.81851 82.6565C6.07103 82.6522 6.82424 82.4739 6.81989 81.8087C6.81989 81.1913 5.00435 81.1087 5 80.1478C5 79.0652 6.08845 79.0087 6.49771 79.0087V79ZM10.747 79.6C10.8123 79.5696 11.2129 79.4913 11.1955 79.813C11.1824 80.1348 10.9386 80.6913 10.9037 80.9348C11.2303 80.7696 11.6918 80.2087 11.6918 80.2087C11.6918 80.2087 12.0183 80.2522 11.9182 80.4522C11.818 80.6522 11.1519 81.1435 11.1519 81.1435C11.1519 81.1435 11.3043 82.5696 12.1707 82.5696C12.6453 82.5696 12.8499 82.3609 12.937 82.287C12.9587 82.2696 12.9762 82.2652 12.9849 82.2783C13.0197 82.387 12.9936 82.5043 12.9152 82.5913C12.8194 82.6957 12.5974 82.8217 12.1533 82.8261C11.3653 82.8261 10.9255 82.1957 10.8123 81.2609C10.7252 81.5348 10.7339 81.9826 10.7209 82.2C10.6948 82.2435 10.2507 82.4174 10.2158 82.1174C10.2158 82.0913 10.2158 82.0696 10.2158 82.0435C10.1331 82.1609 10.0199 82.2826 9.91108 82.2826C9.71951 82.2826 9.63679 82.1217 9.60196 82.0391C9.57584 82.0696 9.3625 82.287 9.08821 82.287C8.92277 82.2913 8.77474 82.1957 8.70943 82.0435C8.57011 82.1435 8.32195 82.2913 8.03895 82.2913C7.73418 82.2913 7.66017 82.1087 7.66017 81.9565C7.66017 81.713 7.84303 80.987 7.84303 80.987C7.84303 80.987 7.48602 81.1304 7.36411 81.1348C7.19431 81.1348 7.11159 80.8217 7.11159 80.813C7.11159 80.8087 7.11159 80.8 7.1203 80.8C7.22044 80.7609 7.94317 80.513 7.94317 80.513C7.94317 80.513 8.07813 79.9826 8.09555 79.913C8.11296 79.8435 8.2131 79.7 8.33065 79.6565C8.41773 79.6217 8.50916 79.6 8.60059 79.5913C8.63107 79.5913 8.65284 79.6 8.65284 79.6174C8.65284 79.6348 8.47433 80.4087 8.47433 80.4087C8.47433 80.4087 8.84876 80.3217 8.98808 80.3217C9.09692 80.3217 9.15352 80.387 9.09257 80.4696C9.03162 80.5522 8.96196 80.6478 8.92712 80.6913C8.88794 80.7348 8.86182 80.7435 8.77039 80.7609C8.64413 80.787 8.36113 80.8565 8.36113 80.8565C8.36113 80.8565 8.13473 81.6783 8.13909 81.8174C8.13909 81.8957 8.16521 81.987 8.26099 81.987C8.35678 81.987 8.53964 81.8739 8.67025 81.7913C8.69202 81.1522 9.18835 80.7261 9.57584 80.7261C9.7021 80.7261 9.65421 80.8478 9.79788 80.8478H9.88931C9.94591 80.8478 10.0069 80.8522 10.0069 80.9957C10.0069 81.1957 9.89367 81.5261 9.89367 81.7348C9.89367 81.8826 9.91544 81.987 9.97204 81.987C10.0678 81.987 10.1767 81.8478 10.255 81.7261C10.3813 81.0304 10.734 79.7609 10.734 79.6174L10.747 79.6ZM12.5016 80.7C12.7672 80.6783 12.9326 80.8217 12.9631 80.9C12.9936 80.9783 12.9892 81.1609 12.9152 81.2913C12.6845 81.7044 12.1097 81.6304 12.1097 81.6304C12.1097 81.6304 12.0444 81.9565 12.3405 81.9565C12.593 81.9565 12.7062 81.8304 12.8151 81.7261C12.8586 81.7261 12.9936 81.8652 12.9326 81.9609C12.8847 82.0348 12.6191 82.2565 12.2795 82.2609C11.7397 82.2609 11.6047 81.8 11.6744 81.4696C11.7658 81.0609 12.1751 80.7217 12.5016 80.6957V80.7ZM9.6455 80.987C9.32332 80.987 8.82699 81.9696 9.20577 81.9652C9.61938 81.9652 9.6455 81.1826 9.6455 81.0043V80.987ZM12.6409 80.8913C12.4232 80.9 12.1751 81.3174 12.1533 81.5C12.4798 81.513 12.654 81.1957 12.6757 81.0696C12.6888 80.9739 12.6932 80.887 12.6409 80.887V80.8913Z" fill="#557086"/>
<path d="M45.851 79.0672L44.2522 80.8632C44.1826 80.9428 44.1826 81.0572 44.2522 81.1368L45.8461 82.9328C45.9255 83.0224 46.0695 83.0224 46.1539 82.9328L47.7479 81.1368C47.8174 81.0572 47.8174 80.9428 47.7479 80.8632L46.1539 79.0672C46.0745 78.9776 45.9305 78.9776 45.8461 79.0672H45.851Z" fill="white"/>
<path d="M46.6604 79.6343L47.1421 80.1766L45.568 82.6144L44.704 81.6393L46.6604 79.6343Z" fill="#8EA3B2"/>
<path d="M50.851 79.0672L49.2522 80.8632C49.1826 80.9428 49.1826 81.0572 49.2522 81.1368L50.8461 82.9328C50.9255 83.0224 51.0695 83.0224 51.1539 82.9328L52.7479 81.1368C52.8174 81.0572 52.8174 80.9428 52.7479 80.8632L51.1539 79.0672C51.0745 78.9776 50.9305 78.9776 50.8461 79.0672H50.851Z" fill="white"/>
<path d="M51.6604 79.6343L52.1421 80.1766L50.568 82.6144L49.704 81.6393L51.6604 79.6343Z" fill="#8EA3B2"/>
<path d="M55.851 79.0672L54.2522 80.8632C54.1826 80.9428 54.1826 81.0572 54.2522 81.1368L55.8461 82.9328C55.9255 83.0224 56.0695 83.0224 56.1539 82.9328L57.7479 81.1368C57.8174 81.0572 57.8174 80.9428 57.7479 80.8632L56.1539 79.0672C56.0745 78.9776 55.9305 78.9776 55.8461 79.0672H55.851Z" fill="white"/>
<path d="M56.6604 79.6343L57.1421 80.1766L55.568 82.6144L54.704 81.6393L56.6604 79.6343Z" fill="#8EA3B2"/>
<rect x="13" y="62" width="37" height="13" rx="6.5" fill="#2F4553"/>
<path d="M28.1894 70.072C27.0194 70.072 26.4734 69.058 26.4734 68.002C26.4734 66.946 27.0194 65.938 28.1894 65.938C29.3594 65.938 29.9054 66.946 29.9054 68.002C29.9054 69.058 29.3594 70.072 28.1894 70.072ZM28.1894 69.16C28.6694 69.16 28.8614 68.71 28.8614 68.002C28.8614 67.294 28.6694 66.85 28.1894 66.85C27.7094 66.85 27.5174 67.294 27.5174 68.002C27.5174 68.71 27.7094 69.16 28.1894 69.16ZM30.7776 70.072C30.4716 70.072 30.2136 69.814 30.2136 69.508C30.2136 69.202 30.4716 68.944 30.7776 68.944C31.0836 68.944 31.3416 69.202 31.3416 69.508C31.3416 69.814 31.0836 70.072 30.7776 70.072ZM33.2507 70H32.2187V67.318L31.5467 67.996L30.9587 67.378L32.3567 65.998H33.2507V70ZM36.7203 70H35.7063L35.1483 69.124L34.5843 70H33.5763L34.5663 68.512L33.6363 67.102H34.6503L35.1483 67.888L35.6403 67.102H36.6543L35.7303 68.512L36.7203 70Z" fill="white"/>
<path d="M6.835 11.06C5.82 11.06 5.33 10.49 5.33 9.67V7.665H6.05V9.645C6.05 10.11 6.32 10.43 6.835 10.43C7.35 10.43 7.615 10.11 7.615 9.645V7.665H8.34V9.665C8.34 10.495 7.85 11.06 6.835 11.06ZM11.247 11H10.612V9.54C10.612 9.205 10.437 9.09 10.167 9.09C9.91699 9.09 9.72199 9.23 9.61699 9.375V11H8.98199V8.585H9.61699V8.9C9.77199 8.715 10.067 8.525 10.462 8.525C10.992 8.525 11.247 8.825 11.247 9.295V11ZM13.0025 11.06C12.2575 11.06 11.7225 10.535 11.7225 9.79C11.7225 9.05 12.2575 8.525 13.0025 8.525C13.4975 8.525 13.7975 8.74 13.9575 8.96L13.5425 9.35C13.4275 9.18 13.2525 9.09 13.0325 9.09C12.6475 9.09 12.3775 9.37 12.3775 9.79C12.3775 10.21 12.6475 10.495 13.0325 10.495C13.2525 10.495 13.4275 10.395 13.5425 10.235L13.9575 10.62C13.7975 10.845 13.4975 11.06 13.0025 11.06ZM15.4926 11.06C14.6976 11.06 14.2176 10.48 14.2176 9.79C14.2176 9.105 14.6976 8.525 15.4926 8.525C16.2926 8.525 16.7726 9.105 16.7726 9.79C16.7726 10.48 16.2926 11.06 15.4926 11.06ZM15.4926 10.495C15.8876 10.495 16.1126 10.17 16.1126 9.79C16.1126 9.415 15.8876 9.09 15.4926 9.09C15.0976 9.09 14.8776 9.415 14.8776 9.79C14.8776 10.17 15.0976 10.495 15.4926 10.495ZM20.8787 11H20.2387V9.475C20.2387 9.25 20.1387 9.09 19.8787 9.09C19.6537 9.09 19.4687 9.24 19.3787 9.37V11H18.7387V9.475C18.7387 9.25 18.6387 9.09 18.3787 9.09C18.1587 9.09 17.9737 9.24 17.8787 9.375V11H17.2437V8.585H17.8787V8.9C17.9787 8.755 18.2987 8.525 18.6687 8.525C19.0237 8.525 19.2487 8.69 19.3387 8.965C19.4787 8.745 19.7987 8.525 20.1687 8.525C20.6137 8.525 20.8787 8.76 20.8787 9.255V11ZM25.1365 11H24.4965V9.475C24.4965 9.25 24.3965 9.09 24.1365 9.09C23.9115 9.09 23.7265 9.24 23.6365 9.37V11H22.9965V9.475C22.9965 9.25 22.8965 9.09 22.6365 9.09C22.4165 9.09 22.2315 9.24 22.1365 9.375V11H21.5015V8.585H22.1365V8.9C22.2365 8.755 22.5565 8.525 22.9265 8.525C23.2815 8.525 23.5065 8.69 23.5965 8.965C23.7365 8.745 24.0565 8.525 24.4265 8.525C24.8715 8.525 25.1365 8.76 25.1365 9.255V11ZM26.8793 11.06C26.0843 11.06 25.6043 10.48 25.6043 9.79C25.6043 9.105 26.0843 8.525 26.8793 8.525C27.6793 8.525 28.1593 9.105 28.1593 9.79C28.1593 10.48 27.6793 11.06 26.8793 11.06ZM26.8793 10.495C27.2743 10.495 27.4993 10.17 27.4993 9.79C27.4993 9.415 27.2743 9.09 26.8793 9.09C26.4843 9.09 26.2643 9.415 26.2643 9.79C26.2643 10.17 26.4843 10.495 26.8793 10.495ZM30.8954 11H30.2604V9.54C30.2604 9.205 30.0854 9.09 29.8154 9.09C29.5654 9.09 29.3704 9.23 29.2654 9.375V11H28.6304V8.585H29.2654V8.9C29.4204 8.715 29.7154 8.525 30.1104 8.525C30.6404 8.525 30.8954 8.825 30.8954 9.295V11Z" fill="white"/>
<path d="M47.2405 11H46.7885L45.3965 9.096V11H44.9285V8.332H45.4085L46.7725 10.184V8.332H47.2405V11ZM48.6674 11.048C48.0554 11.048 47.6754 10.588 47.6754 10.032C47.6754 9.48 48.0554 9.02 48.6674 9.02C49.2874 9.02 49.6634 9.48 49.6634 10.032C49.6634 10.588 49.2874 11.048 48.6674 11.048ZM48.6674 10.676C49.0274 10.676 49.2274 10.376 49.2274 10.032C49.2274 9.692 49.0274 9.392 48.6674 9.392C48.3114 9.392 48.1114 9.692 48.1114 10.032C48.1114 10.376 48.3114 10.676 48.6674 10.676ZM50.2849 11.044C50.1329 11.044 50.0049 10.916 50.0049 10.764C50.0049 10.612 50.1329 10.484 50.2849 10.484C50.4369 10.484 50.5649 10.612 50.5649 10.764C50.5649 10.916 50.4369 11.044 50.2849 11.044ZM53.0407 11H52.5727V8.94L52.1367 9.392L51.8647 9.108L52.6327 8.332H53.0407V11ZM54.4282 11.048C53.9522 11.048 53.6002 10.856 53.4202 10.616L53.6722 10.308C53.8442 10.508 54.1282 10.632 54.4122 10.632C54.7642 10.632 54.9682 10.472 54.9682 10.224C54.9682 9.96 54.7562 9.848 54.3762 9.848C54.2642 9.848 54.1082 9.848 54.0682 9.852V9.432C54.1162 9.436 54.2722 9.436 54.3762 9.436C54.6882 9.436 54.9242 9.328 54.9242 9.084C54.9242 8.836 54.6842 8.708 54.3842 8.708C54.1122 8.708 53.8882 8.812 53.6962 9.004L53.4562 8.712C53.6602 8.472 53.9842 8.292 54.4282 8.292C55.0042 8.292 55.3922 8.564 55.3922 9.012C55.3922 9.368 55.0882 9.576 54.8122 9.624C55.0722 9.648 55.4322 9.86 55.4322 10.272C55.4322 10.724 55.0442 11.048 54.4282 11.048ZM57.7531 11H55.8211V10.632C56.8571 9.848 57.2611 9.5 57.2611 9.116C57.2611 8.836 57.0211 8.708 56.7771 8.708C56.4651 8.708 56.2251 8.836 56.0571 9.028L55.7851 8.72C56.0211 8.436 56.3971 8.292 56.7691 8.292C57.2851 8.292 57.7371 8.584 57.7371 9.116C57.7371 9.608 57.2851 10.048 56.5691 10.588H57.7531V11Z" fill="white"/>
</svg>
