<svg width="63" height="88" viewBox="0 0 63 88" fill="none" xmlns="http://www.w3.org/2000/svg">
<rect width="63" height="88" rx="4" fill="#047BFF"/>
<path d="M36.7008 13.5133L44.7992 3.48665C45.5586 2.54645 46.7024 2 47.911 2H58C59.6569 2 61 3.34314 61 5V83C61 84.6569 59.6569 86 58 86H5C3.34315 86 2 84.6569 2 83V18C2 16.3431 3.34315 15 5 15H33.589C34.7976 15 35.9414 14.4536 36.7008 13.5133Z" fill="#213743"/>
<rect x="5" y="18" width="53" height="40" rx="1" fill="#2F4553"/>
<path d="M8.07999 43.5098C8.07999 48.4298 31.12 50.8998 31.12 50.8998L32.13 38.9198C32.13 38.9198 8.07999 37.8698 8.07999 43.5098Z" fill="#1A2C38"/>
<path d="M48.86 43.6697V43.9597C48.86 44.1597 48.84 44.3697 48.79 44.5597C48.63 45.2897 48.18 45.9197 47.52 46.2997L33.03 54.7197C32.15 55.2297 31.08 55.2297 30.2 54.7197L16.05 46.5397C15.01 45.9297 14.37 44.8197 14.37 43.6097C14.37 42.6297 14.97 41.9097 15.81 41.4097L21.03 38.2397L42.18 38.2997L46.94 40.9797L47.46 41.2797C48.33 41.7697 48.86 42.6897 48.86 43.6797V43.6697Z" fill="#FF7F00"/>
<path d="M48.86 43.6697V43.9597C48.86 44.1597 48.84 44.3697 48.79 44.5597C48.64 44.5997 48.48 44.6197 48.32 44.6197C47.21 44.6197 46.31 43.6697 46.31 42.4997C46.31 41.8997 46.55 41.3497 46.94 40.9697L47.46 41.2697C48.33 41.7597 48.86 42.6797 48.86 43.6697Z" fill="white"/>
<path d="M31.68 53.7199C32.8564 53.7199 33.81 52.8603 33.81 51.7999C33.81 50.7395 32.8564 49.8799 31.68 49.8799C30.5036 49.8799 29.55 50.7395 29.55 51.7999C29.55 52.8603 30.5036 53.7199 31.68 53.7199Z" fill="#FF7F00"/>
<path d="M31.65 52.0098L15.87 42.8998C15.2 42.5098 15.35 41.6698 16.02 41.2798L31.27 32.2998L47.33 41.1898C48.01 41.5698 48.02 42.5598 47.33 42.9498L31.65 52.0098Z" fill="#FF7F00"/>
<path d="M41.56 42.3897C41.56 39.2697 35.39 36.7397 27.78 36.7397C25.98 36.7397 24.27 36.8897 22.7 37.1397L18.73 39.4697L15.73 41.2297C14.89 41.7297 14.37 42.6297 14.37 43.6097C14.37 43.6397 14.37 43.6597 14.37 43.6897C15.8 46.1797 21.25 48.0397 27.77 48.0397C35.38 48.0397 41.55 45.5097 41.55 42.3897H41.56Z" fill="#1A2C38"/>
<path d="M48.86 43.7898C48.92 44.9898 48.42 45.7998 47.37 46.3798L33.13 54.6498C32.46 55.0398 31.62 54.5498 31.63 53.7798V53.7198C31.64 52.6598 32.21 51.6798 33.13 51.1498L47.36 42.9298C48.03 42.5398 48.86 43.0298 48.86 43.7998V43.7898Z" fill="white"/>
<path d="M31.64 53.7597V53.8197C31.63 54.5897 30.8 55.0597 30.13 54.6797L21.69 49.7897L15.87 46.4197C14.94 45.8897 14.37 44.8997 14.37 43.8297V43.7597C14.37 42.9897 15.2 42.5097 15.87 42.8997L24.52 47.8897H24.53L30.14 51.1297C31.07 51.6697 31.65 52.6697 31.64 53.7597Z" fill="#FF7F00"/>
<path d="M33.77 21.6299H29.23L20.96 39.9099H42.04L33.77 21.6299Z" fill="white"/>
<path d="M40.03 35.47C40.19 35.83 40.27 36.2 40.27 36.58C40.27 39.18 36.34 41.28 31.5 41.28C26.66 41.28 22.73 39.18 22.73 36.58C22.73 36.2 22.81 35.83 22.97 35.47L20.96 39.9H20.97C20.74 40.37 20.61 40.86 20.61 41.36C20.61 44.58 25.48 47.19 31.49 47.19C37.5 47.19 42.37 44.58 42.37 41.36C42.37 40.85 42.24 40.37 42.01 39.9H42.02L40.01 35.47H40.03Z" fill="white"/>
<path d="M27.48 25.51L22.97 35.47L20.96 39.9H20.97C20.74 40.37 20.61 40.86 20.61 41.36C20.61 42.23 20.97 43.05 21.6 43.78C23.58 44.89 27.49 43.32 28.95 38.01C30.63 31.9 29.63 26.26 27.46 25.49L27.48 25.51Z" fill="#FFEBB8"/>
<path d="M35.59 25.6499L35.57 25.6099L33.77 21.6199H29.24L27.44 25.6099L27.42 25.6499C27.37 25.7799 27.34 25.9099 27.34 26.0399C27.34 27.1499 29.21 28.0499 31.51 28.0499C33.81 28.0499 35.68 27.1499 35.68 26.0399C35.68 25.9099 35.65 25.7799 35.6 25.6499H35.59Z" fill="#FF7F00"/>
<path d="M31.5 22.6099C32.7647 22.6099 33.79 22.2294 33.79 21.7599C33.79 21.2905 32.7647 20.9099 31.5 20.9099C30.2353 20.9099 29.21 21.2905 29.21 21.7599C29.21 22.2294 30.2353 22.6099 31.5 22.6099Z" fill="#FF7F00"/>
<path d="M22.97 35.47C22.81 35.83 22.73 36.19 22.73 36.58C22.73 39.18 26.66 41.28 31.5 41.28C36.34 41.28 40.27 39.18 40.27 36.58C40.27 36.2 40.19 35.83 40.03 35.47L37.77 30.46C37.91 30.73 37.98 31.02 37.98 31.31C37.98 33.17 35.08 34.68 31.51 34.68C27.94 34.68 25.04 33.17 25.04 31.31C25.04 31.02 25.11 30.73 25.25 30.46L22.98 35.47H22.97Z" fill="#FF7F00"/>
<path d="M24.52 47.89C23.59 47.45 21.38 48.42 21.69 49.79L15.87 46.42C14.94 45.89 14.37 44.9 14.37 43.83V43.76C14.37 42.99 15.2 42.51 15.87 42.9L24.52 47.89Z" fill="#FF5500"/>
<path fill-rule="evenodd" clip-rule="evenodd" d="M6.49771 79C6.98969 79 7.48602 79.213 7.49037 79.6913C7.49037 80.1043 7.24656 80.2696 6.99839 80.2696C6.75023 80.2696 6.73281 80.1435 6.73281 80.1435C6.73281 80.1435 7.02452 79.9261 7.02452 79.7174C7.02452 79.6087 6.94179 79.313 6.489 79.3174C5.8577 79.3174 5.5181 79.6174 5.5181 80.1522C5.5181 80.7652 7.35105 80.9739 7.3554 81.7652C7.3554 82.613 6.47594 82.9957 5.69225 83C5.283 83 5.01306 82.7609 5.00871 82.3783C5.00871 81.9261 5.22204 81.4652 5.75756 81.4652C5.88382 81.4565 5.98831 81.5522 5.99702 81.6783C5.99702 81.6783 5.99702 81.6826 5.99702 81.687C5.99702 81.687 5.45715 81.8391 5.4615 82.3783C5.4615 82.4783 5.56599 82.6609 5.81851 82.6565C6.07103 82.6522 6.82424 82.4739 6.81989 81.8087C6.81989 81.1913 5.00435 81.1087 5 80.1478C5 79.0652 6.08845 79.0087 6.49771 79.0087V79ZM10.747 79.6C10.8123 79.5696 11.2129 79.4913 11.1955 79.813C11.1824 80.1348 10.9386 80.6913 10.9037 80.9348C11.2303 80.7696 11.6918 80.2087 11.6918 80.2087C11.6918 80.2087 12.0183 80.2522 11.9182 80.4522C11.818 80.6522 11.1519 81.1435 11.1519 81.1435C11.1519 81.1435 11.3043 82.5696 12.1707 82.5696C12.6453 82.5696 12.8499 82.3609 12.937 82.287C12.9587 82.2696 12.9762 82.2652 12.9849 82.2783C13.0197 82.387 12.9936 82.5043 12.9152 82.5913C12.8194 82.6957 12.5974 82.8217 12.1533 82.8261C11.3653 82.8261 10.9255 82.1957 10.8123 81.2609C10.7252 81.5348 10.7339 81.9826 10.7209 82.2C10.6948 82.2435 10.2507 82.4174 10.2158 82.1174C10.2158 82.0913 10.2158 82.0696 10.2158 82.0435C10.1331 82.1609 10.0199 82.2826 9.91108 82.2826C9.71951 82.2826 9.63679 82.1217 9.60196 82.0391C9.57584 82.0696 9.3625 82.287 9.08821 82.287C8.92277 82.2913 8.77474 82.1957 8.70943 82.0435C8.57011 82.1435 8.32195 82.2913 8.03895 82.2913C7.73418 82.2913 7.66017 82.1087 7.66017 81.9565C7.66017 81.713 7.84303 80.987 7.84303 80.987C7.84303 80.987 7.48602 81.1304 7.36411 81.1348C7.19431 81.1348 7.11159 80.8217 7.11159 80.813C7.11159 80.8087 7.11159 80.8 7.1203 80.8C7.22044 80.7609 7.94317 80.513 7.94317 80.513C7.94317 80.513 8.07813 79.9826 8.09555 79.913C8.11296 79.8435 8.2131 79.7 8.33065 79.6565C8.41773 79.6217 8.50916 79.6 8.60059 79.5913C8.63107 79.5913 8.65284 79.6 8.65284 79.6174C8.65284 79.6348 8.47433 80.4087 8.47433 80.4087C8.47433 80.4087 8.84876 80.3217 8.98808 80.3217C9.09692 80.3217 9.15352 80.387 9.09257 80.4696C9.03162 80.5522 8.96196 80.6478 8.92712 80.6913C8.88794 80.7348 8.86182 80.7435 8.77039 80.7609C8.64413 80.787 8.36113 80.8565 8.36113 80.8565C8.36113 80.8565 8.13473 81.6783 8.13909 81.8174C8.13909 81.8957 8.16521 81.987 8.26099 81.987C8.35678 81.987 8.53964 81.8739 8.67025 81.7913C8.69202 81.1522 9.18835 80.7261 9.57584 80.7261C9.7021 80.7261 9.65421 80.8478 9.79788 80.8478H9.88931C9.94591 80.8478 10.0069 80.8522 10.0069 80.9957C10.0069 81.1957 9.89367 81.5261 9.89367 81.7348C9.89367 81.8826 9.91544 81.987 9.97204 81.987C10.0678 81.987 10.1767 81.8478 10.255 81.7261C10.3813 81.0304 10.734 79.7609 10.734 79.6174L10.747 79.6ZM12.5016 80.7C12.7672 80.6783 12.9326 80.8217 12.9631 80.9C12.9936 80.9783 12.9892 81.1609 12.9152 81.2913C12.6845 81.7044 12.1097 81.6304 12.1097 81.6304C12.1097 81.6304 12.0444 81.9565 12.3405 81.9565C12.593 81.9565 12.7062 81.8304 12.8151 81.7261C12.8586 81.7261 12.9936 81.8652 12.9326 81.9609C12.8847 82.0348 12.6191 82.2565 12.2795 82.2609C11.7397 82.2609 11.6047 81.8 11.6744 81.4696C11.7658 81.0609 12.1751 80.7217 12.5016 80.6957V80.7ZM9.6455 80.987C9.32332 80.987 8.82699 81.9696 9.20577 81.9652C9.61938 81.9652 9.6455 81.1826 9.6455 81.0043V80.987ZM12.6409 80.8913C12.4232 80.9 12.1751 81.3174 12.1533 81.5C12.4798 81.513 12.654 81.1957 12.6757 81.0696C12.6888 80.9739 12.6932 80.887 12.6409 80.887V80.8913Z" fill="#557086"/>
<path d="M45.851 79.0672L44.2522 80.8632C44.1826 80.9428 44.1826 81.0572 44.2522 81.1368L45.8461 82.9328C45.9255 83.0224 46.0695 83.0224 46.1539 82.9328L47.7479 81.1368C47.8174 81.0572 47.8174 80.9428 47.7479 80.8632L46.1539 79.0672C46.0745 78.9776 45.9305 78.9776 45.8461 79.0672H45.851Z" fill="white"/>
<path d="M46.6604 79.6343L47.1421 80.1766L45.568 82.6144L44.704 81.6393L46.6604 79.6343Z" fill="#8EA3B2"/>
<path d="M50.851 79.0672L49.2522 80.8632C49.1826 80.9428 49.1826 81.0572 49.2522 81.1368L50.8461 82.9328C50.9255 83.0224 51.0695 83.0224 51.1539 82.9328L52.7479 81.1368C52.8174 81.0572 52.8174 80.9428 52.7479 80.8632L51.1539 79.0672C51.0745 78.9776 50.9305 78.9776 50.8461 79.0672H50.851Z" fill="white"/>
<path d="M51.6604 79.6343L52.1421 80.1766L50.568 82.6144L49.704 81.6393L51.6604 79.6343Z" fill="#8EA3B2"/>
<path d="M55.851 79.0672L54.2522 80.8632C54.1826 80.9428 54.1826 81.0572 54.2522 81.1368L55.8461 82.9328C55.9255 83.0224 56.0695 83.0224 56.1539 82.9328L57.7479 81.1368C57.8174 81.0572 57.8174 80.9428 57.7479 80.8632L56.1539 79.0672C56.0745 78.9776 55.9305 78.9776 55.8461 79.0672H55.851Z" fill="white"/>
<path d="M56.6604 79.6343L57.1421 80.1766L55.568 82.6144L54.704 81.6393L56.6604 79.6343Z" fill="#8EA3B2"/>
<rect x="13" y="62" width="37" height="13" rx="6.5" fill="#2F4553"/>
<path d="M28.1894 70.072C27.0194 70.072 26.4734 69.058 26.4734 68.002C26.4734 66.946 27.0194 65.938 28.1894 65.938C29.3594 65.938 29.9054 66.946 29.9054 68.002C29.9054 69.058 29.3594 70.072 28.1894 70.072ZM28.1894 69.16C28.6694 69.16 28.8614 68.71 28.8614 68.002C28.8614 67.294 28.6694 66.85 28.1894 66.85C27.7094 66.85 27.5174 67.294 27.5174 68.002C27.5174 68.71 27.7094 69.16 28.1894 69.16ZM30.7776 70.072C30.4716 70.072 30.2136 69.814 30.2136 69.508C30.2136 69.202 30.4716 68.944 30.7776 68.944C31.0836 68.944 31.3416 69.202 31.3416 69.508C31.3416 69.814 31.0836 70.072 30.7776 70.072ZM33.2507 70H32.2187V67.318L31.5467 67.996L30.9587 67.378L32.3567 65.998H33.2507V70ZM36.7203 70H35.7063L35.1483 69.124L34.5843 70H33.5763L34.5663 68.512L33.6363 67.102H34.6503L35.1483 67.888L35.6403 67.102H36.6543L35.7303 68.512L36.7203 70Z" fill="white"/>
<path d="M6.835 11.06C5.82 11.06 5.33 10.49 5.33 9.67V7.665H6.05V9.645C6.05 10.11 6.32 10.43 6.835 10.43C7.35 10.43 7.615 10.11 7.615 9.645V7.665H8.34V9.665C8.34 10.495 7.85 11.06 6.835 11.06ZM11.247 11H10.612V9.54C10.612 9.205 10.437 9.09 10.167 9.09C9.91699 9.09 9.72199 9.23 9.61699 9.375V11H8.98199V8.585H9.61699V8.9C9.77199 8.715 10.067 8.525 10.462 8.525C10.992 8.525 11.247 8.825 11.247 9.295V11ZM13.0025 11.06C12.2575 11.06 11.7225 10.535 11.7225 9.79C11.7225 9.05 12.2575 8.525 13.0025 8.525C13.4975 8.525 13.7975 8.74 13.9575 8.96L13.5425 9.35C13.4275 9.18 13.2525 9.09 13.0325 9.09C12.6475 9.09 12.3775 9.37 12.3775 9.79C12.3775 10.21 12.6475 10.495 13.0325 10.495C13.2525 10.495 13.4275 10.395 13.5425 10.235L13.9575 10.62C13.7975 10.845 13.4975 11.06 13.0025 11.06ZM15.4926 11.06C14.6976 11.06 14.2176 10.48 14.2176 9.79C14.2176 9.105 14.6976 8.525 15.4926 8.525C16.2926 8.525 16.7726 9.105 16.7726 9.79C16.7726 10.48 16.2926 11.06 15.4926 11.06ZM15.4926 10.495C15.8876 10.495 16.1126 10.17 16.1126 9.79C16.1126 9.415 15.8876 9.09 15.4926 9.09C15.0976 9.09 14.8776 9.415 14.8776 9.79C14.8776 10.17 15.0976 10.495 15.4926 10.495ZM20.8787 11H20.2387V9.475C20.2387 9.25 20.1387 9.09 19.8787 9.09C19.6537 9.09 19.4687 9.24 19.3787 9.37V11H18.7387V9.475C18.7387 9.25 18.6387 9.09 18.3787 9.09C18.1587 9.09 17.9737 9.24 17.8787 9.375V11H17.2437V8.585H17.8787V8.9C17.9787 8.755 18.2987 8.525 18.6687 8.525C19.0237 8.525 19.2487 8.69 19.3387 8.965C19.4787 8.745 19.7987 8.525 20.1687 8.525C20.6137 8.525 20.8787 8.76 20.8787 9.255V11ZM25.1365 11H24.4965V9.475C24.4965 9.25 24.3965 9.09 24.1365 9.09C23.9115 9.09 23.7265 9.24 23.6365 9.37V11H22.9965V9.475C22.9965 9.25 22.8965 9.09 22.6365 9.09C22.4165 9.09 22.2315 9.24 22.1365 9.375V11H21.5015V8.585H22.1365V8.9C22.2365 8.755 22.5565 8.525 22.9265 8.525C23.2815 8.525 23.5065 8.69 23.5965 8.965C23.7365 8.745 24.0565 8.525 24.4265 8.525C24.8715 8.525 25.1365 8.76 25.1365 9.255V11ZM26.8793 11.06C26.0843 11.06 25.6043 10.48 25.6043 9.79C25.6043 9.105 26.0843 8.525 26.8793 8.525C27.6793 8.525 28.1593 9.105 28.1593 9.79C28.1593 10.48 27.6793 11.06 26.8793 11.06ZM26.8793 10.495C27.2743 10.495 27.4993 10.17 27.4993 9.79C27.4993 9.415 27.2743 9.09 26.8793 9.09C26.4843 9.09 26.2643 9.415 26.2643 9.79C26.2643 10.17 26.4843 10.495 26.8793 10.495ZM30.8954 11H30.2604V9.54C30.2604 9.205 30.0854 9.09 29.8154 9.09C29.5654 9.09 29.3704 9.23 29.2654 9.375V11H28.6304V8.585H29.2654V8.9C29.4204 8.715 29.7154 8.525 30.1104 8.525C30.6404 8.525 30.8954 8.825 30.8954 9.295V11Z" fill="white"/>
<path d="M47.3226 11H46.8706L45.4786 9.096V11H45.0106V8.332H45.4906L46.8546 10.184V8.332H47.3226V11ZM48.7495 11.048C48.1375 11.048 47.7575 10.588 47.7575 10.032C47.7575 9.48 48.1375 9.02 48.7495 9.02C49.3695 9.02 49.7455 9.48 49.7455 10.032C49.7455 10.588 49.3695 11.048 48.7495 11.048ZM48.7495 10.676C49.1095 10.676 49.3095 10.376 49.3095 10.032C49.3095 9.692 49.1095 9.392 48.7495 9.392C48.3935 9.392 48.1935 9.692 48.1935 10.032C48.1935 10.376 48.3935 10.676 48.7495 10.676ZM50.3669 11.044C50.2149 11.044 50.0869 10.916 50.0869 10.764C50.0869 10.612 50.2149 10.484 50.3669 10.484C50.5189 10.484 50.6469 10.612 50.6469 10.764C50.6469 10.916 50.5189 11.044 50.3669 11.044ZM53.1227 11H52.6547V8.94L52.2187 9.392L51.9467 9.108L52.7147 8.332H53.1227V11ZM54.5103 11.048C54.0343 11.048 53.6823 10.856 53.5023 10.616L53.7543 10.308C53.9263 10.508 54.2103 10.632 54.4943 10.632C54.8463 10.632 55.0503 10.472 55.0503 10.224C55.0503 9.96 54.8383 9.848 54.4583 9.848C54.3463 9.848 54.1903 9.848 54.1503 9.852V9.432C54.1983 9.436 54.3543 9.436 54.4583 9.436C54.7703 9.436 55.0063 9.328 55.0063 9.084C55.0063 8.836 54.7663 8.708 54.4663 8.708C54.1943 8.708 53.9703 8.812 53.7783 9.004L53.5382 8.712C53.7423 8.472 54.0663 8.292 54.5103 8.292C55.0863 8.292 55.4743 8.564 55.4743 9.012C55.4743 9.368 55.1703 9.576 54.8943 9.624C55.1543 9.648 55.5143 9.86 55.5143 10.272C55.5143 10.724 55.1263 11.048 54.5103 11.048ZM56.8071 11.048C56.3311 11.048 55.9791 10.856 55.7991 10.616L56.0511 10.308C56.2231 10.508 56.5071 10.632 56.7911 10.632C57.1431 10.632 57.3471 10.472 57.3471 10.224C57.3471 9.96 57.1351 9.848 56.7551 9.848C56.6431 9.848 56.4871 9.848 56.4471 9.852V9.432C56.4951 9.436 56.6511 9.436 56.7551 9.436C57.0671 9.436 57.3031 9.328 57.3031 9.084C57.3031 8.836 57.0631 8.708 56.7631 8.708C56.4911 8.708 56.2671 8.812 56.0751 9.004L55.8351 8.712C56.0391 8.472 56.3631 8.292 56.8071 8.292C57.3831 8.292 57.7711 8.564 57.7711 9.012C57.7711 9.368 57.4671 9.576 57.1911 9.624C57.4511 9.648 57.8111 9.86 57.8111 10.272C57.8111 10.724 57.4231 11.048 56.8071 11.048Z" fill="white"/>
</svg>
