<svg width="63" height="88" viewBox="0 0 63 88" fill="none" xmlns="http://www.w3.org/2000/svg">
<rect width="63" height="88" rx="4" fill="#047BFF"/>
<path d="M36.7008 13.5133L44.7992 3.48665C45.5586 2.54645 46.7024 2 47.911 2H58C59.6569 2 61 3.34314 61 5V83C61 84.6569 59.6569 86 58 86H5C3.34315 86 2 84.6569 2 83V18C2 16.3431 3.34315 15 5 15H33.589C34.7976 15 35.9414 14.4536 36.7008 13.5133Z" fill="#213743"/>
<rect x="5" y="18" width="53" height="40" rx="1" fill="#2F4553"/>
<g clip-path="url(#clip0_26835_29298)">
<path d="M47.9248 41.627C47.9248 52.2745 40.6519 53.0597 31.6778 53.0597C22.7036 53.0597 15.4308 52.2745 15.4308 41.627C15.4308 30.9795 22.7036 27.6235 31.6778 27.6235C40.6519 27.6235 47.9248 30.9795 47.9248 41.627Z" fill="#F87915"/>
<path d="M31.5749 54.0879C37.7393 54.0879 42.7365 49.0907 42.7365 42.9263C42.7365 36.7619 37.7393 31.7646 31.5749 31.7646C25.4105 31.7646 20.4133 36.7619 20.4133 42.9263C20.4133 49.0907 25.4105 54.0879 31.5749 54.0879Z" fill="#1A2C38"/>
<path d="M27.5459 55.4341C36.2504 55.4341 43.3068 54.5384 43.3068 53.4336C43.3068 52.3288 36.2504 51.4331 27.5459 51.4331C18.8414 51.4331 11.785 52.3288 11.785 53.4336C11.785 54.5384 18.8414 55.4341 27.5459 55.4341Z" fill="#1A2C38"/>
<path d="M36.4546 22.8746C36.2396 23.2204 35.9966 23.6598 35.7629 24.1833C35.3422 25.0994 34.987 26.2586 34.9496 27.5299C34.8748 30.5867 28.9575 27.5299 28.9575 27.5299C28.9575 27.5299 30.3597 24.2955 33.108 21.6032C33.1828 21.5284 33.2576 21.463 33.3511 21.4069C33.7717 21.1171 34.3233 21.0517 34.8094 21.2386L36.0433 21.706C36.5201 21.8837 36.707 22.4445 36.4453 22.8746H36.4546Z" fill="#047BFF"/>
<path d="M36.4546 22.8746C36.2396 23.2204 35.9965 23.6598 35.7628 24.1833C35.2019 22.6035 34.4167 21.9397 33.3604 21.4069C33.781 21.1171 34.3326 21.0517 34.8187 21.2386L36.0526 21.706C36.5294 21.8837 36.7163 22.4445 36.4546 22.8746Z" fill="white"/>
<path d="M33.7904 26.165H29.537C20.4507 26.6511 13.3835 30.6802 13.3835 41.7764C13.3835 53.6952 21.5257 54.5739 31.5842 54.5739C41.6428 54.5739 49.785 53.6952 49.785 41.7764C49.785 30.7456 42.8113 26.7072 33.7997 26.165H33.7904ZM34.9122 37.7099C35.7161 35.4851 36.95 33.2602 38.6047 31.0447C38.829 30.7456 39.259 30.7176 39.5301 30.97C41.6054 32.877 42.7365 35.242 43.288 37.8782C43.3722 38.2989 43.017 38.6821 42.5869 38.6167C39.9321 38.2334 37.5764 38.1773 35.5946 38.5232C35.1272 38.6074 34.7439 38.1586 34.9028 37.7099H34.9122ZM29.8548 39.5702L31.4253 37.3267C31.5468 37.1584 31.7992 37.1584 31.9208 37.3267L33.4912 39.5702C33.6315 39.7759 33.4912 40.047 33.2388 40.047H30.0979C29.8548 40.047 29.7053 39.7665 29.8455 39.5702H29.8548ZM20.0954 37.8782C20.647 35.242 21.7781 32.877 23.8534 30.97C24.1245 30.7176 24.5545 30.7456 24.7788 31.0447C26.4428 33.2696 27.6674 35.4944 28.4713 37.7099C28.6302 38.1586 28.2563 38.6074 27.7796 38.5232C25.7978 38.1773 23.4514 38.2334 20.7872 38.6167C20.3572 38.6821 20.0019 38.2989 20.0861 37.8782H20.0954ZM37.165 50.0681C37.165 50.0681 37.165 50.0401 37.1464 50.0214L35.3235 47.7217C35.1272 47.4787 34.7532 47.5348 34.6411 47.8339L33.6034 50.4888C32.3227 50.5636 31.0234 50.5729 29.7427 50.4981L28.6957 47.8339C28.5835 47.5348 28.2096 47.4787 28.0133 47.7217L26.1904 50.0214C26.1904 50.0214 26.1717 50.0681 26.153 50.0962C21.8248 49.339 18.4595 47.6376 18.4595 44.9828C18.4595 44.9828 19.7869 44.7304 21.9744 44.4686C21.9837 44.4967 22.0024 44.5247 22.0211 44.5527L24.1899 47.703C24.3488 47.9274 24.6573 47.9461 24.8349 47.7311L27.9291 43.9358C30.2007 43.8142 32.7247 43.7581 35.3515 43.861L38.5112 47.7311C38.6888 47.9461 38.9973 47.9274 39.1562 47.703L41.325 44.5527C41.3623 44.506 41.381 44.4499 41.3904 44.3938C42.5028 44.5527 43.6152 44.749 44.709 44.9828C44.709 47.6096 41.4184 49.3016 37.1744 50.0681H37.165Z" fill="#FFC201"/>
<path d="M45.5032 33.3926C45.9267 32.9691 45.465 31.8209 44.472 30.8279C43.4791 29.8349 42.3308 29.3732 41.9073 29.7967C41.4838 30.2202 41.9455 31.3684 42.9385 32.3614C43.9315 33.3544 45.0797 33.8161 45.5032 33.3926Z" fill="white"/>
</g>
<path fill-rule="evenodd" clip-rule="evenodd" d="M6.49771 79C6.98969 79 7.48602 79.213 7.49037 79.6913C7.49037 80.1043 7.24656 80.2696 6.99839 80.2696C6.75023 80.2696 6.73281 80.1435 6.73281 80.1435C6.73281 80.1435 7.02452 79.9261 7.02452 79.7174C7.02452 79.6087 6.94179 79.313 6.489 79.3174C5.8577 79.3174 5.5181 79.6174 5.5181 80.1522C5.5181 80.7652 7.35105 80.9739 7.3554 81.7652C7.3554 82.613 6.47594 82.9957 5.69225 83C5.283 83 5.01306 82.7609 5.00871 82.3783C5.00871 81.9261 5.22204 81.4652 5.75756 81.4652C5.88382 81.4565 5.98831 81.5522 5.99702 81.6783C5.99702 81.6783 5.99702 81.6826 5.99702 81.687C5.99702 81.687 5.45715 81.8391 5.4615 82.3783C5.4615 82.4783 5.56599 82.6609 5.81851 82.6565C6.07103 82.6522 6.82424 82.4739 6.81989 81.8087C6.81989 81.1913 5.00435 81.1087 5 80.1478C5 79.0652 6.08845 79.0087 6.49771 79.0087V79ZM10.747 79.6C10.8123 79.5696 11.2129 79.4913 11.1955 79.813C11.1824 80.1348 10.9386 80.6913 10.9037 80.9348C11.2303 80.7696 11.6918 80.2087 11.6918 80.2087C11.6918 80.2087 12.0183 80.2522 11.9182 80.4522C11.818 80.6522 11.1519 81.1435 11.1519 81.1435C11.1519 81.1435 11.3043 82.5696 12.1707 82.5696C12.6453 82.5696 12.8499 82.3609 12.937 82.287C12.9587 82.2696 12.9762 82.2652 12.9849 82.2783C13.0197 82.387 12.9936 82.5043 12.9152 82.5913C12.8194 82.6957 12.5974 82.8217 12.1533 82.8261C11.3653 82.8261 10.9255 82.1957 10.8123 81.2609C10.7252 81.5348 10.7339 81.9826 10.7209 82.2C10.6948 82.2435 10.2507 82.4174 10.2158 82.1174C10.2158 82.0913 10.2158 82.0696 10.2158 82.0435C10.1331 82.1609 10.0199 82.2826 9.91108 82.2826C9.71951 82.2826 9.63679 82.1217 9.60196 82.0391C9.57584 82.0696 9.3625 82.287 9.08821 82.287C8.92277 82.2913 8.77474 82.1957 8.70943 82.0435C8.57011 82.1435 8.32195 82.2913 8.03895 82.2913C7.73418 82.2913 7.66017 82.1087 7.66017 81.9565C7.66017 81.713 7.84303 80.987 7.84303 80.987C7.84303 80.987 7.48602 81.1304 7.36411 81.1348C7.19431 81.1348 7.11159 80.8217 7.11159 80.813C7.11159 80.8087 7.11159 80.8 7.1203 80.8C7.22044 80.7609 7.94317 80.513 7.94317 80.513C7.94317 80.513 8.07813 79.9826 8.09555 79.913C8.11296 79.8435 8.2131 79.7 8.33065 79.6565C8.41773 79.6217 8.50916 79.6 8.60059 79.5913C8.63107 79.5913 8.65284 79.6 8.65284 79.6174C8.65284 79.6348 8.47433 80.4087 8.47433 80.4087C8.47433 80.4087 8.84876 80.3217 8.98808 80.3217C9.09692 80.3217 9.15352 80.387 9.09257 80.4696C9.03162 80.5522 8.96196 80.6478 8.92712 80.6913C8.88794 80.7348 8.86182 80.7435 8.77039 80.7609C8.64413 80.787 8.36113 80.8565 8.36113 80.8565C8.36113 80.8565 8.13473 81.6783 8.13909 81.8174C8.13909 81.8957 8.16521 81.987 8.26099 81.987C8.35678 81.987 8.53964 81.8739 8.67025 81.7913C8.69202 81.1522 9.18835 80.7261 9.57584 80.7261C9.7021 80.7261 9.65421 80.8478 9.79788 80.8478H9.88931C9.94591 80.8478 10.0069 80.8522 10.0069 80.9957C10.0069 81.1957 9.89367 81.5261 9.89367 81.7348C9.89367 81.8826 9.91544 81.987 9.97204 81.987C10.0678 81.987 10.1767 81.8478 10.255 81.7261C10.3813 81.0304 10.734 79.7609 10.734 79.6174L10.747 79.6ZM12.5016 80.7C12.7672 80.6783 12.9326 80.8217 12.9631 80.9C12.9936 80.9783 12.9892 81.1609 12.9152 81.2913C12.6845 81.7044 12.1097 81.6304 12.1097 81.6304C12.1097 81.6304 12.0444 81.9565 12.3405 81.9565C12.593 81.9565 12.7062 81.8304 12.8151 81.7261C12.8586 81.7261 12.9936 81.8652 12.9326 81.9609C12.8847 82.0348 12.6191 82.2565 12.2795 82.2609C11.7397 82.2609 11.6047 81.8 11.6744 81.4696C11.7658 81.0609 12.1751 80.7217 12.5016 80.6957V80.7ZM9.6455 80.987C9.32332 80.987 8.82699 81.9696 9.20577 81.9652C9.61938 81.9652 9.6455 81.1826 9.6455 81.0043V80.987ZM12.6409 80.8913C12.4232 80.9 12.1751 81.3174 12.1533 81.5C12.4798 81.513 12.654 81.1957 12.6757 81.0696C12.6888 80.9739 12.6932 80.887 12.6409 80.887V80.8913Z" fill="#557086"/>
<path d="M45.851 79.0672L44.2521 80.8632C44.1826 80.9428 44.1826 81.0572 44.2521 81.1368L45.8461 82.9328C45.9255 83.0224 46.0695 83.0224 46.1539 82.9328L47.7479 81.1368C47.8174 81.0572 47.8174 80.9428 47.7479 80.8632L46.1539 79.0672C46.0745 78.9776 45.9305 78.9776 45.8461 79.0672H45.851Z" fill="white"/>
<path d="M46.6604 79.6343L47.1421 80.1766L45.568 82.6144L44.704 81.6393L46.6604 79.6343Z" fill="#8EA3B2"/>
<path d="M50.851 79.0672L49.2521 80.8632C49.1826 80.9428 49.1826 81.0572 49.2521 81.1368L50.8461 82.9328C50.9255 83.0224 51.0695 83.0224 51.1539 82.9328L52.7479 81.1368C52.8174 81.0572 52.8174 80.9428 52.7479 80.8632L51.1539 79.0672C51.0745 78.9776 50.9305 78.9776 50.8461 79.0672H50.851Z" fill="white"/>
<path d="M51.6604 79.6343L52.1421 80.1766L50.568 82.6144L49.704 81.6393L51.6604 79.6343Z" fill="#8EA3B2"/>
<path d="M55.851 79.0672L54.2521 80.8632C54.1826 80.9428 54.1826 81.0572 54.2521 81.1368L55.8461 82.9328C55.9255 83.0224 56.0695 83.0224 56.1539 82.9328L57.7479 81.1368C57.8174 81.0572 57.8174 80.9428 57.7479 80.8632L56.1539 79.0672C56.0745 78.9776 55.9305 78.9776 55.8461 79.0672H55.851Z" fill="white"/>
<path d="M56.6604 79.6343L57.1421 80.1766L55.568 82.6144L54.704 81.6393L56.6604 79.6343Z" fill="#8EA3B2"/>
<rect x="13" y="62" width="37" height="13" rx="6.5" fill="#2F4553"/>
<path d="M28.1894 70.072C27.0194 70.072 26.4734 69.058 26.4734 68.002C26.4734 66.946 27.0194 65.938 28.1894 65.938C29.3594 65.938 29.9054 66.946 29.9054 68.002C29.9054 69.058 29.3594 70.072 28.1894 70.072ZM28.1894 69.16C28.6694 69.16 28.8614 68.71 28.8614 68.002C28.8614 67.294 28.6694 66.85 28.1894 66.85C27.7094 66.85 27.5174 67.294 27.5174 68.002C27.5174 68.71 27.7094 69.16 28.1894 69.16ZM30.7776 70.072C30.4716 70.072 30.2136 69.814 30.2136 69.508C30.2136 69.202 30.4716 68.944 30.7776 68.944C31.0836 68.944 31.3416 69.202 31.3416 69.508C31.3416 69.814 31.0836 70.072 30.7776 70.072ZM33.2507 70H32.2187V67.318L31.5467 67.996L30.9587 67.378L32.3567 65.998H33.2507V70ZM36.7203 70H35.7063L35.1483 69.124L34.5843 70H33.5763L34.5663 68.512L33.6363 67.102H34.6503L35.1483 67.888L35.6403 67.102H36.6543L35.7303 68.512L36.7203 70Z" fill="white"/>
<path d="M6.835 11.06C5.82 11.06 5.33 10.49 5.33 9.67V7.665H6.05V9.645C6.05 10.11 6.32 10.43 6.835 10.43C7.35 10.43 7.615 10.11 7.615 9.645V7.665H8.34V9.665C8.34 10.495 7.85 11.06 6.835 11.06ZM11.247 11H10.612V9.54C10.612 9.205 10.437 9.09 10.167 9.09C9.91699 9.09 9.72199 9.23 9.61699 9.375V11H8.98199V8.585H9.61699V8.9C9.77199 8.715 10.067 8.525 10.462 8.525C10.992 8.525 11.247 8.825 11.247 9.295V11ZM13.0025 11.06C12.2575 11.06 11.7225 10.535 11.7225 9.79C11.7225 9.05 12.2575 8.525 13.0025 8.525C13.4975 8.525 13.7975 8.74 13.9575 8.96L13.5425 9.35C13.4275 9.18 13.2525 9.09 13.0325 9.09C12.6475 9.09 12.3775 9.37 12.3775 9.79C12.3775 10.21 12.6475 10.495 13.0325 10.495C13.2525 10.495 13.4275 10.395 13.5425 10.235L13.9575 10.62C13.7975 10.845 13.4975 11.06 13.0025 11.06ZM15.4926 11.06C14.6976 11.06 14.2176 10.48 14.2176 9.79C14.2176 9.105 14.6976 8.525 15.4926 8.525C16.2926 8.525 16.7726 9.105 16.7726 9.79C16.7726 10.48 16.2926 11.06 15.4926 11.06ZM15.4926 10.495C15.8876 10.495 16.1126 10.17 16.1126 9.79C16.1126 9.415 15.8876 9.09 15.4926 9.09C15.0976 9.09 14.8776 9.415 14.8776 9.79C14.8776 10.17 15.0976 10.495 15.4926 10.495ZM20.8787 11H20.2387V9.475C20.2387 9.25 20.1387 9.09 19.8787 9.09C19.6537 9.09 19.4687 9.24 19.3787 9.37V11H18.7387V9.475C18.7387 9.25 18.6387 9.09 18.3787 9.09C18.1587 9.09 17.9737 9.24 17.8787 9.375V11H17.2437V8.585H17.8787V8.9C17.9787 8.755 18.2987 8.525 18.6687 8.525C19.0237 8.525 19.2487 8.69 19.3387 8.965C19.4787 8.745 19.7987 8.525 20.1687 8.525C20.6137 8.525 20.8787 8.76 20.8787 9.255V11ZM25.1365 11H24.4965V9.475C24.4965 9.25 24.3965 9.09 24.1365 9.09C23.9115 9.09 23.7265 9.24 23.6365 9.37V11H22.9965V9.475C22.9965 9.25 22.8965 9.09 22.6365 9.09C22.4165 9.09 22.2315 9.24 22.1365 9.375V11H21.5015V8.585H22.1365V8.9C22.2365 8.755 22.5565 8.525 22.9265 8.525C23.2815 8.525 23.5065 8.69 23.5965 8.965C23.7365 8.745 24.0565 8.525 24.4265 8.525C24.8715 8.525 25.1365 8.76 25.1365 9.255V11ZM26.8793 11.06C26.0843 11.06 25.6043 10.48 25.6043 9.79C25.6043 9.105 26.0843 8.525 26.8793 8.525C27.6793 8.525 28.1593 9.105 28.1593 9.79C28.1593 10.48 27.6793 11.06 26.8793 11.06ZM26.8793 10.495C27.2743 10.495 27.4993 10.17 27.4993 9.79C27.4993 9.415 27.2743 9.09 26.8793 9.09C26.4843 9.09 26.2643 9.415 26.2643 9.79C26.2643 10.17 26.4843 10.495 26.8793 10.495ZM30.8954 11H30.2604V9.54C30.2604 9.205 30.0854 9.09 29.8154 9.09C29.5654 9.09 29.3704 9.23 29.2654 9.375V11H28.6304V8.585H29.2654V8.9C29.4204 8.715 29.7154 8.525 30.1104 8.525C30.6404 8.525 30.8954 8.825 30.8954 9.295V11Z" fill="white"/>
<path d="M47.221 11H46.769L45.377 9.096V11H44.909V8.332H45.389L46.753 10.184V8.332H47.221V11ZM48.6479 11.048C48.0359 11.048 47.6559 10.588 47.6559 10.032C47.6559 9.48 48.0359 9.02 48.6479 9.02C49.2679 9.02 49.6439 9.48 49.6439 10.032C49.6439 10.588 49.2679 11.048 48.6479 11.048ZM48.6479 10.676C49.0079 10.676 49.2079 10.376 49.2079 10.032C49.2079 9.692 49.0079 9.392 48.6479 9.392C48.2919 9.392 48.0919 9.692 48.0919 10.032C48.0919 10.376 48.2919 10.676 48.6479 10.676ZM50.2653 11.044C50.1133 11.044 49.9853 10.916 49.9853 10.764C49.9853 10.612 50.1133 10.484 50.2653 10.484C50.4173 10.484 50.5453 10.612 50.5453 10.764C50.5453 10.916 50.4173 11.044 50.2653 11.044ZM53.0212 11H52.5532V8.94L52.1172 9.392L51.8452 9.108L52.6132 8.332H53.0212V11ZM54.4087 11.048C53.9327 11.048 53.5807 10.856 53.4007 10.616L53.6527 10.308C53.8247 10.508 54.1087 10.632 54.3927 10.632C54.7447 10.632 54.9487 10.472 54.9487 10.224C54.9487 9.96 54.7367 9.848 54.3567 9.848C54.2447 9.848 54.0887 9.848 54.0487 9.852V9.432C54.0967 9.436 54.2527 9.436 54.3567 9.436C54.6687 9.436 54.9047 9.328 54.9047 9.084C54.9047 8.836 54.6647 8.708 54.3647 8.708C54.0927 8.708 53.8687 8.812 53.6767 9.004L53.4367 8.712C53.6407 8.472 53.9647 8.292 54.4087 8.292C54.9847 8.292 55.3727 8.564 55.3727 9.012C55.3727 9.368 55.0687 9.576 54.7927 9.624C55.0527 9.648 55.4127 9.86 55.4127 10.272C55.4127 10.724 55.0247 11.048 54.4087 11.048ZM56.8176 11.048C56.3576 11.048 56.0416 10.892 55.8256 10.636L56.0936 10.316C56.2736 10.52 56.5136 10.632 56.8136 10.632C57.1496 10.632 57.3616 10.424 57.3616 10.164C57.3616 9.876 57.1536 9.688 56.8256 9.688C56.5976 9.688 56.4096 9.76 56.2416 9.92L55.9096 9.824V8.332H57.6576V8.744H56.3776V9.516C56.5056 9.388 56.7256 9.284 56.9816 9.284C57.4296 9.284 57.8336 9.6 57.8336 10.144C57.8336 10.7 57.4136 11.048 56.8176 11.048Z" fill="white"/>
<defs>
<clipPath id="clip0_26835_29298">
<rect width="63" height="88" fill="white"/>
</clipPath>
</defs>
</svg>
