<svg width="63" height="88" viewBox="0 0 63 88" fill="none" xmlns="http://www.w3.org/2000/svg">
<rect width="63" height="88" rx="4" fill="#047BFF"/>
<path d="M36.7008 13.5133L44.7992 3.48665C45.5586 2.54645 46.7024 2 47.911 2H58C59.6569 2 61 3.34314 61 5V83C61 84.6569 59.6569 86 58 86H5C3.34315 86 2 84.6569 2 83V18C2 16.3431 3.34315 15 5 15H33.589C34.7976 15 35.9414 14.4536 36.7008 13.5133Z" fill="#213743"/>
<rect x="5" y="18" width="53" height="40" rx="1" fill="#2F4553"/>
<path d="M44.238 31.1768C45.1228 28.3114 43.3888 25.2316 40.3651 24.2979C37.3414 23.3642 34.1729 24.9302 33.2881 27.7956C32.4033 30.661 34.1372 33.7408 37.161 34.6745C40.1847 35.6082 43.3532 34.0422 44.238 31.1768Z" fill="#1CE61C"/>
<path d="M31.81 55.8501C37.9127 55.8501 42.86 54.892 42.86 53.7101C42.86 52.5282 37.9127 51.5701 31.81 51.5701C25.7073 51.5701 20.76 52.5282 20.76 53.7101C20.76 54.892 25.7073 55.8501 31.81 55.8501Z" fill="#1A2C38"/>
<path d="M46.37 37.4901C46.25 38.1401 46.1 38.8401 45.9 39.5601C44.51 44.7801 41.15 51.3501 33.91 53.1601C32.67 53.4801 31.31 53.6501 29.83 53.6501C22.31 53.6501 17.08 49.5901 16.41 42.2401C16.34 41.5201 16.92 40.8901 17.64 40.8701C18.18 40.8501 18.68 41.1801 18.87 41.6801L19 42.0301C19.5 43.3201 20.75 44.1701 22.14 44.1701H22.15C26.77 44.1701 26.2 37.6401 27.37 33.1001C28.88 27.2201 33.81 24.5901 39.06 25.7901C44.3 27.0001 47.46 31.5401 46.36 37.4801L46.37 37.4901Z" fill="#E9113C"/>
<path d="M32.825 32.4041C33.7519 31.0242 33.9905 29.561 33.3578 29.136C32.7252 28.711 31.4608 29.4852 30.5339 30.8651C29.607 32.2451 29.3684 33.7083 30.0011 34.1333C30.6337 34.5582 31.8981 33.7841 32.825 32.4041Z" fill="white"/>
<path d="M45.9 39.5701C44.51 44.7901 41.15 51.3601 33.91 53.1701C33.08 52.6601 32.43 51.8701 32.05 50.7401C29.59 43.3701 46.41 33.3801 45.9 39.5701Z" fill="#C20026"/>
<path d="M39.53 20.48C39.58 20.69 39.62 20.95 39.65 21.25C39.7 21.78 39.66 23.56 39.28 24.63C38.74 26.15 42.31 25.97 42.31 25.97C42.31 25.97 42.31 22.23 41.41 20.42C41.39 20.37 41.36 20.33 41.32 20.28C41.16 20.06 40.9 19.94 40.62 19.95L39.93 19.97C39.66 19.97 39.47 20.22 39.53 20.48Z" fill="#1CE61C"/>
<path fill-rule="evenodd" clip-rule="evenodd" d="M6.49771 79C6.98969 79 7.48602 79.213 7.49037 79.6913C7.49037 80.1043 7.24656 80.2696 6.99839 80.2696C6.75023 80.2696 6.73281 80.1435 6.73281 80.1435C6.73281 80.1435 7.02452 79.9261 7.02452 79.7174C7.02452 79.6087 6.94179 79.313 6.489 79.3174C5.8577 79.3174 5.5181 79.6174 5.5181 80.1522C5.5181 80.7652 7.35105 80.9739 7.3554 81.7652C7.3554 82.613 6.47594 82.9957 5.69225 83C5.283 83 5.01306 82.7609 5.00871 82.3783C5.00871 81.9261 5.22204 81.4652 5.75756 81.4652C5.88382 81.4565 5.98831 81.5522 5.99702 81.6783C5.99702 81.6783 5.99702 81.6826 5.99702 81.687C5.99702 81.687 5.45715 81.8391 5.4615 82.3783C5.4615 82.4783 5.56599 82.6609 5.81851 82.6565C6.07103 82.6522 6.82424 82.4739 6.81989 81.8087C6.81989 81.1913 5.00435 81.1087 5 80.1478C5 79.0652 6.08845 79.0087 6.49771 79.0087V79ZM10.747 79.6C10.8123 79.5696 11.2129 79.4913 11.1955 79.813C11.1824 80.1348 10.9386 80.6913 10.9037 80.9348C11.2303 80.7696 11.6918 80.2087 11.6918 80.2087C11.6918 80.2087 12.0183 80.2522 11.9182 80.4522C11.818 80.6522 11.1519 81.1435 11.1519 81.1435C11.1519 81.1435 11.3043 82.5696 12.1707 82.5696C12.6453 82.5696 12.8499 82.3609 12.937 82.287C12.9587 82.2696 12.9762 82.2652 12.9849 82.2783C13.0197 82.387 12.9936 82.5043 12.9152 82.5913C12.8194 82.6957 12.5974 82.8217 12.1533 82.8261C11.3653 82.8261 10.9255 82.1957 10.8123 81.2609C10.7252 81.5348 10.7339 81.9826 10.7209 82.2C10.6948 82.2435 10.2507 82.4174 10.2158 82.1174C10.2158 82.0913 10.2158 82.0696 10.2158 82.0435C10.1331 82.1609 10.0199 82.2826 9.91108 82.2826C9.71951 82.2826 9.63679 82.1217 9.60196 82.0391C9.57584 82.0696 9.3625 82.287 9.08821 82.287C8.92277 82.2913 8.77474 82.1957 8.70943 82.0435C8.57011 82.1435 8.32195 82.2913 8.03895 82.2913C7.73418 82.2913 7.66017 82.1087 7.66017 81.9565C7.66017 81.713 7.84303 80.987 7.84303 80.987C7.84303 80.987 7.48602 81.1304 7.36411 81.1348C7.19431 81.1348 7.11159 80.8217 7.11159 80.813C7.11159 80.8087 7.11159 80.8 7.1203 80.8C7.22044 80.7609 7.94317 80.513 7.94317 80.513C7.94317 80.513 8.07813 79.9826 8.09555 79.913C8.11296 79.8435 8.2131 79.7 8.33065 79.6565C8.41773 79.6217 8.50916 79.6 8.60059 79.5913C8.63107 79.5913 8.65284 79.6 8.65284 79.6174C8.65284 79.6348 8.47433 80.4087 8.47433 80.4087C8.47433 80.4087 8.84876 80.3217 8.98808 80.3217C9.09692 80.3217 9.15352 80.387 9.09257 80.4696C9.03162 80.5522 8.96196 80.6478 8.92712 80.6913C8.88794 80.7348 8.86182 80.7435 8.77039 80.7609C8.64413 80.787 8.36113 80.8565 8.36113 80.8565C8.36113 80.8565 8.13473 81.6783 8.13909 81.8174C8.13909 81.8957 8.16521 81.987 8.26099 81.987C8.35678 81.987 8.53964 81.8739 8.67025 81.7913C8.69202 81.1522 9.18835 80.7261 9.57584 80.7261C9.7021 80.7261 9.65421 80.8478 9.79788 80.8478H9.88931C9.94591 80.8478 10.0069 80.8522 10.0069 80.9957C10.0069 81.1957 9.89367 81.5261 9.89367 81.7348C9.89367 81.8826 9.91544 81.987 9.97204 81.987C10.0678 81.987 10.1767 81.8478 10.255 81.7261C10.3813 81.0304 10.734 79.7609 10.734 79.6174L10.747 79.6ZM12.5016 80.7C12.7672 80.6783 12.9326 80.8217 12.9631 80.9C12.9936 80.9783 12.9892 81.1609 12.9152 81.2913C12.6845 81.7044 12.1097 81.6304 12.1097 81.6304C12.1097 81.6304 12.0444 81.9565 12.3405 81.9565C12.593 81.9565 12.7062 81.8304 12.8151 81.7261C12.8586 81.7261 12.9936 81.8652 12.9326 81.9609C12.8847 82.0348 12.6191 82.2565 12.2795 82.2609C11.7397 82.2609 11.6047 81.8 11.6744 81.4696C11.7658 81.0609 12.1751 80.7217 12.5016 80.6957V80.7ZM9.6455 80.987C9.32332 80.987 8.82699 81.9696 9.20577 81.9652C9.61938 81.9652 9.6455 81.1826 9.6455 81.0043V80.987ZM12.6409 80.8913C12.4232 80.9 12.1751 81.3174 12.1533 81.5C12.4798 81.513 12.654 81.1957 12.6757 81.0696C12.6888 80.9739 12.6932 80.887 12.6409 80.887V80.8913Z" fill="#557086"/>
<path d="M45.851 79.0672L44.2521 80.8632C44.1826 80.9428 44.1826 81.0572 44.2521 81.1368L45.8461 82.9328C45.9255 83.0224 46.0695 83.0224 46.1539 82.9328L47.7479 81.1368C47.8174 81.0572 47.8174 80.9428 47.7479 80.8632L46.1539 79.0672C46.0745 78.9776 45.9305 78.9776 45.8461 79.0672H45.851Z" fill="white"/>
<path d="M46.6604 79.6343L47.1421 80.1766L45.568 82.6144L44.704 81.6393L46.6604 79.6343Z" fill="#8EA3B2"/>
<path d="M50.851 79.0672L49.2521 80.8632C49.1826 80.9428 49.1826 81.0572 49.2521 81.1368L50.8461 82.9328C50.9255 83.0224 51.0695 83.0224 51.1539 82.9328L52.7479 81.1368C52.8174 81.0572 52.8174 80.9428 52.7479 80.8632L51.1539 79.0672C51.0745 78.9776 50.9305 78.9776 50.8461 79.0672H50.851Z" fill="white"/>
<path d="M51.6604 79.6343L52.1421 80.1766L50.568 82.6144L49.704 81.6393L51.6604 79.6343Z" fill="#8EA3B2"/>
<path d="M55.851 79.0672L54.2521 80.8632C54.1826 80.9428 54.1826 81.0572 54.2521 81.1368L55.8461 82.9328C55.9255 83.0224 56.0695 83.0224 56.1539 82.9328L57.7479 81.1368C57.8174 81.0572 57.8174 80.9428 57.7479 80.8632L56.1539 79.0672C56.0745 78.9776 55.9305 78.9776 55.8461 79.0672H55.851Z" fill="white"/>
<path d="M56.6604 79.6343L57.1421 80.1766L55.568 82.6144L54.704 81.6393L56.6604 79.6343Z" fill="#8EA3B2"/>
<rect x="13" y="62" width="37" height="13" rx="6.5" fill="#2F4553"/>
<path d="M28.1894 70.072C27.0194 70.072 26.4734 69.058 26.4734 68.002C26.4734 66.946 27.0194 65.938 28.1894 65.938C29.3594 65.938 29.9054 66.946 29.9054 68.002C29.9054 69.058 29.3594 70.072 28.1894 70.072ZM28.1894 69.16C28.6694 69.16 28.8614 68.71 28.8614 68.002C28.8614 67.294 28.6694 66.85 28.1894 66.85C27.7094 66.85 27.5174 67.294 27.5174 68.002C27.5174 68.71 27.7094 69.16 28.1894 69.16ZM30.7776 70.072C30.4716 70.072 30.2136 69.814 30.2136 69.508C30.2136 69.202 30.4716 68.944 30.7776 68.944C31.0836 68.944 31.3416 69.202 31.3416 69.508C31.3416 69.814 31.0836 70.072 30.7776 70.072ZM33.2507 70H32.2187V67.318L31.5467 67.996L30.9587 67.378L32.3567 65.998H33.2507V70ZM36.7203 70H35.7063L35.1483 69.124L34.5843 70H33.5763L34.5663 68.512L33.6363 67.102H34.6503L35.1483 67.888L35.6403 67.102H36.6543L35.7303 68.512L36.7203 70Z" fill="white"/>
<path d="M6.835 11.06C5.82 11.06 5.33 10.49 5.33 9.67V7.665H6.05V9.645C6.05 10.11 6.32 10.43 6.835 10.43C7.35 10.43 7.615 10.11 7.615 9.645V7.665H8.34V9.665C8.34 10.495 7.85 11.06 6.835 11.06ZM11.247 11H10.612V9.54C10.612 9.205 10.437 9.09 10.167 9.09C9.91699 9.09 9.72199 9.23 9.61699 9.375V11H8.98199V8.585H9.61699V8.9C9.77199 8.715 10.067 8.525 10.462 8.525C10.992 8.525 11.247 8.825 11.247 9.295V11ZM13.0025 11.06C12.2575 11.06 11.7225 10.535 11.7225 9.79C11.7225 9.05 12.2575 8.525 13.0025 8.525C13.4975 8.525 13.7975 8.74 13.9575 8.96L13.5425 9.35C13.4275 9.18 13.2525 9.09 13.0325 9.09C12.6475 9.09 12.3775 9.37 12.3775 9.79C12.3775 10.21 12.6475 10.495 13.0325 10.495C13.2525 10.495 13.4275 10.395 13.5425 10.235L13.9575 10.62C13.7975 10.845 13.4975 11.06 13.0025 11.06ZM15.4926 11.06C14.6976 11.06 14.2176 10.48 14.2176 9.79C14.2176 9.105 14.6976 8.525 15.4926 8.525C16.2926 8.525 16.7726 9.105 16.7726 9.79C16.7726 10.48 16.2926 11.06 15.4926 11.06ZM15.4926 10.495C15.8876 10.495 16.1126 10.17 16.1126 9.79C16.1126 9.415 15.8876 9.09 15.4926 9.09C15.0976 9.09 14.8776 9.415 14.8776 9.79C14.8776 10.17 15.0976 10.495 15.4926 10.495ZM20.8787 11H20.2387V9.475C20.2387 9.25 20.1387 9.09 19.8787 9.09C19.6537 9.09 19.4687 9.24 19.3787 9.37V11H18.7387V9.475C18.7387 9.25 18.6387 9.09 18.3787 9.09C18.1587 9.09 17.9737 9.24 17.8787 9.375V11H17.2437V8.585H17.8787V8.9C17.9787 8.755 18.2987 8.525 18.6687 8.525C19.0237 8.525 19.2487 8.69 19.3387 8.965C19.4787 8.745 19.7987 8.525 20.1687 8.525C20.6137 8.525 20.8787 8.76 20.8787 9.255V11ZM25.1365 11H24.4965V9.475C24.4965 9.25 24.3965 9.09 24.1365 9.09C23.9115 9.09 23.7265 9.24 23.6365 9.37V11H22.9965V9.475C22.9965 9.25 22.8965 9.09 22.6365 9.09C22.4165 9.09 22.2315 9.24 22.1365 9.375V11H21.5015V8.585H22.1365V8.9C22.2365 8.755 22.5565 8.525 22.9265 8.525C23.2815 8.525 23.5065 8.69 23.5965 8.965C23.7365 8.745 24.0565 8.525 24.4265 8.525C24.8715 8.525 25.1365 8.76 25.1365 9.255V11ZM26.8793 11.06C26.0843 11.06 25.6043 10.48 25.6043 9.79C25.6043 9.105 26.0843 8.525 26.8793 8.525C27.6793 8.525 28.1593 9.105 28.1593 9.79C28.1593 10.48 27.6793 11.06 26.8793 11.06ZM26.8793 10.495C27.2743 10.495 27.4993 10.17 27.4993 9.79C27.4993 9.415 27.2743 9.09 26.8793 9.09C26.4843 9.09 26.2643 9.415 26.2643 9.79C26.2643 10.17 26.4843 10.495 26.8793 10.495ZM30.8954 11H30.2604V9.54C30.2604 9.205 30.0854 9.09 29.8154 9.09C29.5654 9.09 29.3704 9.23 29.2654 9.375V11H28.6304V8.585H29.2654V8.9C29.4204 8.715 29.7154 8.525 30.1104 8.525C30.6404 8.525 30.8954 8.825 30.8954 9.295V11Z" fill="white"/>
<path d="M47.4905 11H47.0385L45.6465 9.096V11H45.1785V8.332H45.6585L47.0225 10.184V8.332H47.4905V11ZM48.9174 11.048C48.3054 11.048 47.9254 10.588 47.9254 10.032C47.9254 9.48 48.3054 9.02 48.9174 9.02C49.5374 9.02 49.9134 9.48 49.9134 10.032C49.9134 10.588 49.5374 11.048 48.9174 11.048ZM48.9174 10.676C49.2774 10.676 49.4774 10.376 49.4774 10.032C49.4774 9.692 49.2774 9.392 48.9174 9.392C48.5614 9.392 48.3614 9.692 48.3614 10.032C48.3614 10.376 48.5614 10.676 48.9174 10.676ZM50.5349 11.044C50.3829 11.044 50.2549 10.916 50.2549 10.764C50.2549 10.612 50.3829 10.484 50.5349 10.484C50.6869 10.484 50.8149 10.612 50.8149 10.764C50.8149 10.916 50.6869 11.044 50.5349 11.044ZM53.2907 11H52.8227V8.94L52.3867 9.392L52.1147 9.108L52.8827 8.332H53.2907V11ZM54.6782 11.048C54.2022 11.048 53.8502 10.856 53.6702 10.616L53.9222 10.308C54.0942 10.508 54.3782 10.632 54.6622 10.632C55.0142 10.632 55.2182 10.472 55.2182 10.224C55.2182 9.96 55.0062 9.848 54.6262 9.848C54.5142 9.848 54.3582 9.848 54.3182 9.852V9.432C54.3662 9.436 54.5222 9.436 54.6262 9.436C54.9382 9.436 55.1742 9.328 55.1742 9.084C55.1742 8.836 54.9342 8.708 54.6342 8.708C54.3622 8.708 54.1382 8.812 53.9462 9.004L53.7062 8.712C53.9102 8.472 54.2342 8.292 54.6782 8.292C55.2542 8.292 55.6422 8.564 55.6422 9.012C55.6422 9.368 55.3382 9.576 55.0622 9.624C55.3222 9.648 55.6822 9.86 55.6822 10.272C55.6822 10.724 55.2942 11.048 54.6782 11.048ZM56.8671 11H56.3551L57.3631 8.744H55.9791V8.332H57.9031V8.656L56.8671 11Z" fill="white"/>
</svg>
