<svg width="63" height="88" viewBox="0 0 63 88" fill="none" xmlns="http://www.w3.org/2000/svg">
<rect width="63" height="88" rx="4" fill="#047BFF"/>
<path d="M36.7008 13.5133L44.7992 3.48665C45.5586 2.54645 46.7024 2 47.911 2H58C59.6569 2 61 3.34314 61 5V83C61 84.6569 59.6569 86 58 86H5C3.34315 86 2 84.6569 2 83V18C2 16.3431 3.34315 15 5 15H33.589C34.7976 15 35.9414 14.4536 36.7008 13.5133Z" fill="#213743"/>
<rect x="5" y="18" width="53" height="40" rx="1" fill="#2F4553"/>
<g clip-path="url(#clip0_26835_29302)">
<path d="M31.49 56.06C37.057 56.06 41.57 55.0839 41.57 53.88C41.57 52.676 37.057 51.7 31.49 51.7C25.923 51.7 21.41 52.676 21.41 53.88C21.41 55.0839 25.923 56.06 31.49 56.06Z" fill="#1A2C38"/>
<path d="M42.96 49.14C41.62 50.48 40.11 51.53 38.49 52.3C38.49 52.3 38.49 52.32 38.47 52.32C36.21 53.39 33.75 53.92 31.3 53.88C27.48 53.84 23.66 52.45 20.62 49.71C20.42 49.52 20.22 49.34 20.02 49.14C17.14 46.26 15.58 42.57 15.32 38.81C15.23 37.59 15.29 36.34 15.48 35.13C15.61 34.25 15.83 33.37 16.11 32.51L16.13 32.48C16.9 30.18 18.2 28.02 20.03 26.19C22.55 23.68 25.69 22.15 28.96 21.64C33.91 20.87 39.16 22.37 42.98 26.19C43.18 26.39 43.36 26.59 43.54 26.79C49.3 33.17 49.11 42.99 42.96 49.14Z" fill="#1CE61C"/>
<path d="M31.31 53.8801C27.49 53.8401 23.67 52.4501 20.63 49.7101C20.43 49.5201 20.23 49.3401 20.03 49.1401C17.15 46.2601 15.59 42.5701 15.33 38.8101C20.03 26.2001 41.91 50.7801 31.32 53.8801H31.31Z" fill="#06C906"/>
<path d="M34.06 47.71C40.8807 47.71 46.41 42.1807 46.41 35.36C46.41 28.5393 40.8807 23.01 34.06 23.01C27.2393 23.01 21.71 28.5393 21.71 35.36C21.71 42.1807 27.2393 47.71 34.06 47.71Z" fill="white"/>
<path d="M34.95 43.93C40.1746 43.93 44.41 39.6946 44.41 34.47C44.41 29.2454 40.1746 25.01 34.95 25.01C29.7254 25.01 25.49 29.2454 25.49 34.47C25.49 39.6946 29.7254 43.93 34.95 43.93Z" fill="#45A7FF"/>
<path d="M34.42 41.2999C37.8994 41.2999 40.72 38.4793 40.72 35C40.72 31.5206 37.8994 28.7 34.42 28.7C30.9406 28.7 28.12 31.5206 28.12 35C28.12 38.4793 30.9406 41.2999 34.42 41.2999Z" fill="#1A2C38"/>
<path d="M32.7087 40.6874C33.4468 39.9493 33.3043 38.6102 32.3905 37.6964C31.4767 36.7825 30.1375 36.6401 29.3994 37.3782C28.6613 38.1163 28.8038 39.4554 29.7176 40.3692C30.6314 41.2831 31.9706 41.4255 32.7087 40.6874Z" fill="#45A7FF"/>
<path d="M43.1224 31.7898C44.1963 30.7158 43.9842 28.7625 42.6486 27.4269C41.313 26.0913 39.3597 25.8792 38.2857 26.9532C37.2118 28.0271 37.4239 29.9804 38.7595 31.316C40.0951 32.6516 42.0484 32.8637 43.1224 31.7898Z" fill="white"/>
</g>
<path fill-rule="evenodd" clip-rule="evenodd" d="M6.49771 79C6.98969 79 7.48602 79.213 7.49037 79.6913C7.49037 80.1043 7.24656 80.2696 6.99839 80.2696C6.75023 80.2696 6.73281 80.1435 6.73281 80.1435C6.73281 80.1435 7.02452 79.9261 7.02452 79.7174C7.02452 79.6087 6.94179 79.313 6.489 79.3174C5.8577 79.3174 5.5181 79.6174 5.5181 80.1522C5.5181 80.7652 7.35105 80.9739 7.3554 81.7652C7.3554 82.613 6.47594 82.9957 5.69225 83C5.283 83 5.01306 82.7609 5.00871 82.3783C5.00871 81.9261 5.22204 81.4652 5.75756 81.4652C5.88382 81.4565 5.98831 81.5522 5.99702 81.6783C5.99702 81.6783 5.99702 81.6826 5.99702 81.687C5.99702 81.687 5.45715 81.8391 5.4615 82.3783C5.4615 82.4783 5.56599 82.6609 5.81851 82.6565C6.07103 82.6522 6.82424 82.4739 6.81989 81.8087C6.81989 81.1913 5.00435 81.1087 5 80.1478C5 79.0652 6.08845 79.0087 6.49771 79.0087V79ZM10.747 79.6C10.8123 79.5696 11.2129 79.4913 11.1955 79.813C11.1824 80.1348 10.9386 80.6913 10.9037 80.9348C11.2303 80.7696 11.6918 80.2087 11.6918 80.2087C11.6918 80.2087 12.0183 80.2522 11.9182 80.4522C11.818 80.6522 11.1519 81.1435 11.1519 81.1435C11.1519 81.1435 11.3043 82.5696 12.1707 82.5696C12.6453 82.5696 12.8499 82.3609 12.937 82.287C12.9587 82.2696 12.9762 82.2652 12.9849 82.2783C13.0197 82.387 12.9936 82.5043 12.9152 82.5913C12.8194 82.6957 12.5974 82.8217 12.1533 82.8261C11.3653 82.8261 10.9255 82.1957 10.8123 81.2609C10.7252 81.5348 10.7339 81.9826 10.7209 82.2C10.6948 82.2435 10.2507 82.4174 10.2158 82.1174C10.2158 82.0913 10.2158 82.0696 10.2158 82.0435C10.1331 82.1609 10.0199 82.2826 9.91108 82.2826C9.71951 82.2826 9.63679 82.1217 9.60196 82.0391C9.57584 82.0696 9.3625 82.287 9.08821 82.287C8.92277 82.2913 8.77474 82.1957 8.70943 82.0435C8.57011 82.1435 8.32195 82.2913 8.03895 82.2913C7.73418 82.2913 7.66017 82.1087 7.66017 81.9565C7.66017 81.713 7.84303 80.987 7.84303 80.987C7.84303 80.987 7.48602 81.1304 7.36411 81.1348C7.19431 81.1348 7.11159 80.8217 7.11159 80.813C7.11159 80.8087 7.11159 80.8 7.1203 80.8C7.22044 80.7609 7.94317 80.513 7.94317 80.513C7.94317 80.513 8.07813 79.9826 8.09555 79.913C8.11296 79.8435 8.2131 79.7 8.33065 79.6565C8.41773 79.6217 8.50916 79.6 8.60059 79.5913C8.63107 79.5913 8.65284 79.6 8.65284 79.6174C8.65284 79.6348 8.47433 80.4087 8.47433 80.4087C8.47433 80.4087 8.84876 80.3217 8.98808 80.3217C9.09692 80.3217 9.15352 80.387 9.09257 80.4696C9.03162 80.5522 8.96196 80.6478 8.92712 80.6913C8.88794 80.7348 8.86182 80.7435 8.77039 80.7609C8.64413 80.787 8.36113 80.8565 8.36113 80.8565C8.36113 80.8565 8.13473 81.6783 8.13909 81.8174C8.13909 81.8957 8.16521 81.987 8.26099 81.987C8.35678 81.987 8.53964 81.8739 8.67025 81.7913C8.69202 81.1522 9.18835 80.7261 9.57584 80.7261C9.7021 80.7261 9.65421 80.8478 9.79788 80.8478H9.88931C9.94591 80.8478 10.0069 80.8522 10.0069 80.9957C10.0069 81.1957 9.89367 81.5261 9.89367 81.7348C9.89367 81.8826 9.91544 81.987 9.97204 81.987C10.0678 81.987 10.1767 81.8478 10.255 81.7261C10.3813 81.0304 10.734 79.7609 10.734 79.6174L10.747 79.6ZM12.5016 80.7C12.7672 80.6783 12.9326 80.8217 12.9631 80.9C12.9936 80.9783 12.9892 81.1609 12.9152 81.2913C12.6845 81.7044 12.1097 81.6304 12.1097 81.6304C12.1097 81.6304 12.0444 81.9565 12.3405 81.9565C12.593 81.9565 12.7062 81.8304 12.8151 81.7261C12.8586 81.7261 12.9936 81.8652 12.9326 81.9609C12.8847 82.0348 12.6191 82.2565 12.2795 82.2609C11.7397 82.2609 11.6047 81.8 11.6744 81.4696C11.7658 81.0609 12.1751 80.7217 12.5016 80.6957V80.7ZM9.6455 80.987C9.32332 80.987 8.82699 81.9696 9.20577 81.9652C9.61938 81.9652 9.6455 81.1826 9.6455 81.0043V80.987ZM12.6409 80.8913C12.4232 80.9 12.1751 81.3174 12.1533 81.5C12.4798 81.513 12.654 81.1957 12.6757 81.0696C12.6888 80.9739 12.6932 80.887 12.6409 80.887V80.8913Z" fill="#557086"/>
<path d="M45.851 79.0672L44.2521 80.8632C44.1826 80.9428 44.1826 81.0572 44.2521 81.1368L45.8461 82.9328C45.9255 83.0224 46.0695 83.0224 46.1539 82.9328L47.7479 81.1368C47.8174 81.0572 47.8174 80.9428 47.7479 80.8632L46.1539 79.0672C46.0745 78.9776 45.9305 78.9776 45.8461 79.0672H45.851Z" fill="white"/>
<path d="M46.6604 79.6343L47.1421 80.1766L45.568 82.6144L44.704 81.6393L46.6604 79.6343Z" fill="#8EA3B2"/>
<path d="M50.851 79.0672L49.2521 80.8632C49.1826 80.9428 49.1826 81.0572 49.2521 81.1368L50.8461 82.9328C50.9255 83.0224 51.0695 83.0224 51.1539 82.9328L52.7479 81.1368C52.8174 81.0572 52.8174 80.9428 52.7479 80.8632L51.1539 79.0672C51.0745 78.9776 50.9305 78.9776 50.8461 79.0672H50.851Z" fill="white"/>
<path d="M51.6604 79.6343L52.1421 80.1766L50.568 82.6144L49.704 81.6393L51.6604 79.6343Z" fill="#8EA3B2"/>
<path d="M55.851 79.0672L54.2521 80.8632C54.1826 80.9428 54.1826 81.0572 54.2521 81.1368L55.8461 82.9328C55.9255 83.0224 56.0695 83.0224 56.1539 82.9328L57.7479 81.1368C57.8174 81.0572 57.8174 80.9428 57.7479 80.8632L56.1539 79.0672C56.0745 78.9776 55.9305 78.9776 55.8461 79.0672H55.851Z" fill="white"/>
<path d="M56.6604 79.6343L57.1421 80.1766L55.568 82.6144L54.704 81.6393L56.6604 79.6343Z" fill="#8EA3B2"/>
<rect x="13" y="62" width="37" height="13" rx="6.5" fill="#2F4553"/>
<path d="M28.1894 70.072C27.0194 70.072 26.4734 69.058 26.4734 68.002C26.4734 66.946 27.0194 65.938 28.1894 65.938C29.3594 65.938 29.9054 66.946 29.9054 68.002C29.9054 69.058 29.3594 70.072 28.1894 70.072ZM28.1894 69.16C28.6694 69.16 28.8614 68.71 28.8614 68.002C28.8614 67.294 28.6694 66.85 28.1894 66.85C27.7094 66.85 27.5174 67.294 27.5174 68.002C27.5174 68.71 27.7094 69.16 28.1894 69.16ZM30.7776 70.072C30.4716 70.072 30.2136 69.814 30.2136 69.508C30.2136 69.202 30.4716 68.944 30.7776 68.944C31.0836 68.944 31.3416 69.202 31.3416 69.508C31.3416 69.814 31.0836 70.072 30.7776 70.072ZM33.2507 70H32.2187V67.318L31.5467 67.996L30.9587 67.378L32.3567 65.998H33.2507V70ZM36.7203 70H35.7063L35.1483 69.124L34.5843 70H33.5763L34.5663 68.512L33.6363 67.102H34.6503L35.1483 67.888L35.6403 67.102H36.6543L35.7303 68.512L36.7203 70Z" fill="white"/>
<path d="M6.835 11.06C5.82 11.06 5.33 10.49 5.33 9.67V7.665H6.05V9.645C6.05 10.11 6.32 10.43 6.835 10.43C7.35 10.43 7.615 10.11 7.615 9.645V7.665H8.34V9.665C8.34 10.495 7.85 11.06 6.835 11.06ZM11.247 11H10.612V9.54C10.612 9.205 10.437 9.09 10.167 9.09C9.91699 9.09 9.72199 9.23 9.61699 9.375V11H8.98199V8.585H9.61699V8.9C9.77199 8.715 10.067 8.525 10.462 8.525C10.992 8.525 11.247 8.825 11.247 9.295V11ZM13.0025 11.06C12.2575 11.06 11.7225 10.535 11.7225 9.79C11.7225 9.05 12.2575 8.525 13.0025 8.525C13.4975 8.525 13.7975 8.74 13.9575 8.96L13.5425 9.35C13.4275 9.18 13.2525 9.09 13.0325 9.09C12.6475 9.09 12.3775 9.37 12.3775 9.79C12.3775 10.21 12.6475 10.495 13.0325 10.495C13.2525 10.495 13.4275 10.395 13.5425 10.235L13.9575 10.62C13.7975 10.845 13.4975 11.06 13.0025 11.06ZM15.4926 11.06C14.6976 11.06 14.2176 10.48 14.2176 9.79C14.2176 9.105 14.6976 8.525 15.4926 8.525C16.2926 8.525 16.7726 9.105 16.7726 9.79C16.7726 10.48 16.2926 11.06 15.4926 11.06ZM15.4926 10.495C15.8876 10.495 16.1126 10.17 16.1126 9.79C16.1126 9.415 15.8876 9.09 15.4926 9.09C15.0976 9.09 14.8776 9.415 14.8776 9.79C14.8776 10.17 15.0976 10.495 15.4926 10.495ZM20.8787 11H20.2387V9.475C20.2387 9.25 20.1387 9.09 19.8787 9.09C19.6537 9.09 19.4687 9.24 19.3787 9.37V11H18.7387V9.475C18.7387 9.25 18.6387 9.09 18.3787 9.09C18.1587 9.09 17.9737 9.24 17.8787 9.375V11H17.2437V8.585H17.8787V8.9C17.9787 8.755 18.2987 8.525 18.6687 8.525C19.0237 8.525 19.2487 8.69 19.3387 8.965C19.4787 8.745 19.7987 8.525 20.1687 8.525C20.6137 8.525 20.8787 8.76 20.8787 9.255V11ZM25.1365 11H24.4965V9.475C24.4965 9.25 24.3965 9.09 24.1365 9.09C23.9115 9.09 23.7265 9.24 23.6365 9.37V11H22.9965V9.475C22.9965 9.25 22.8965 9.09 22.6365 9.09C22.4165 9.09 22.2315 9.24 22.1365 9.375V11H21.5015V8.585H22.1365V8.9C22.2365 8.755 22.5565 8.525 22.9265 8.525C23.2815 8.525 23.5065 8.69 23.5965 8.965C23.7365 8.745 24.0565 8.525 24.4265 8.525C24.8715 8.525 25.1365 8.76 25.1365 9.255V11ZM26.8793 11.06C26.0843 11.06 25.6043 10.48 25.6043 9.79C25.6043 9.105 26.0843 8.525 26.8793 8.525C27.6793 8.525 28.1593 9.105 28.1593 9.79C28.1593 10.48 27.6793 11.06 26.8793 11.06ZM26.8793 10.495C27.2743 10.495 27.4993 10.17 27.4993 9.79C27.4993 9.415 27.2743 9.09 26.8793 9.09C26.4843 9.09 26.2643 9.415 26.2643 9.79C26.2643 10.17 26.4843 10.495 26.8793 10.495ZM30.8954 11H30.2604V9.54C30.2604 9.205 30.0854 9.09 29.8154 9.09C29.5654 9.09 29.3704 9.23 29.2654 9.375V11H28.6304V8.585H29.2654V8.9C29.4204 8.715 29.7154 8.525 30.1104 8.525C30.6404 8.525 30.8954 8.825 30.8954 9.295V11Z" fill="white"/>
<path d="M47.2171 11H46.7651L45.3731 9.096V11H44.9051V8.332H45.3851L46.7491 10.184V8.332H47.2171V11ZM48.644 11.048C48.032 11.048 47.652 10.588 47.652 10.032C47.652 9.48 48.032 9.02 48.644 9.02C49.264 9.02 49.64 9.48 49.64 10.032C49.64 10.588 49.264 11.048 48.644 11.048ZM48.644 10.676C49.004 10.676 49.204 10.376 49.204 10.032C49.204 9.692 49.004 9.392 48.644 9.392C48.288 9.392 48.088 9.692 48.088 10.032C48.088 10.376 48.288 10.676 48.644 10.676ZM50.2614 11.044C50.1094 11.044 49.9814 10.916 49.9814 10.764C49.9814 10.612 50.1094 10.484 50.2614 10.484C50.4134 10.484 50.5414 10.612 50.5414 10.764C50.5414 10.916 50.4134 11.044 50.2614 11.044ZM53.0173 11H52.5493V8.94L52.1133 9.392L51.8413 9.108L52.6093 8.332H53.0173V11ZM54.4048 11.048C53.9288 11.048 53.5768 10.856 53.3968 10.616L53.6488 10.308C53.8208 10.508 54.1048 10.632 54.3888 10.632C54.7408 10.632 54.9448 10.472 54.9448 10.224C54.9448 9.96 54.7328 9.848 54.3528 9.848C54.2408 9.848 54.0848 9.848 54.0448 9.852V9.432C54.0928 9.436 54.2488 9.436 54.3528 9.436C54.6648 9.436 54.9008 9.328 54.9008 9.084C54.9008 8.836 54.6608 8.708 54.3608 8.708C54.0888 8.708 53.8648 8.812 53.6728 9.004L53.4328 8.712C53.6368 8.472 53.9608 8.292 54.4048 8.292C54.9808 8.292 55.3688 8.564 55.3688 9.012C55.3688 9.368 55.0648 9.576 54.7888 9.624C55.0488 9.648 55.4088 9.86 55.4088 10.272C55.4088 10.724 55.0208 11.048 54.4048 11.048ZM56.6577 11.044C56.3297 11.044 56.0737 10.928 55.8937 10.748L56.1097 10.396C56.2497 10.54 56.4057 10.628 56.6577 10.628C57.1417 10.628 57.3617 10.188 57.3617 9.752C57.3617 9.724 57.3617 9.7 57.3617 9.672C57.2377 9.852 56.9577 10.048 56.6457 10.048C56.1657 10.048 55.7497 9.752 55.7497 9.184C55.7497 8.692 56.1377 8.288 56.7337 8.288C57.5177 8.288 57.8337 8.924 57.8337 9.668C57.8337 10.436 57.4297 11.044 56.6577 11.044ZM56.7697 9.644C56.9977 9.644 57.2217 9.524 57.3537 9.332C57.3297 9.044 57.1697 8.704 56.7577 8.704C56.4097 8.704 56.2257 8.956 56.2257 9.168C56.2257 9.496 56.4817 9.644 56.7697 9.644Z" fill="white"/>
<defs>
<clipPath id="clip0_26835_29302">
<rect width="63" height="88" fill="white"/>
</clipPath>
</defs>
</svg>
