<svg width="63" height="88" viewBox="0 0 63 88" fill="none" xmlns="http://www.w3.org/2000/svg">
<rect width="63" height="88" rx="4" fill="#55DFFF"/>
<path d="M36.7008 13.5133L44.7992 3.48665C45.5586 2.54645 46.7024 2 47.911 2H58C59.6569 2 61 3.34314 61 5V83C61 84.6569 59.6569 86 58 86H5C3.34315 86 2 84.6569 2 83V18C2 16.3431 3.34315 15 5 15H33.589C34.7976 15 35.9414 14.4536 36.7008 13.5133Z" fill="#213743"/>
<rect x="5" y="18" width="53" height="40" rx="1" fill="#2F4553"/>
<path d="M32.5001 56.7298C41.1599 56.7298 48.1801 55.9105 48.1801 54.8998C48.1801 53.8891 41.1599 53.0698 32.5001 53.0698C23.8402 53.0698 16.8201 53.8891 16.8201 54.8998C16.8201 55.9105 23.8402 56.7298 32.5001 56.7298Z" fill="#1A2C38"/>
<path d="M39.32 53.2L30.64 44.52L38.91 36.25L47.59 44.93C51.96 49.3 43.7 57.57 39.32 53.2Z" fill="#55DFFF"/>
<path d="M35.851 41.4627C38.1355 39.1782 39.5032 36.8418 38.9057 36.2443C38.3082 35.6468 35.9718 37.0144 33.6872 39.299C31.4027 41.5835 30.035 43.9199 30.6325 44.5174C31.23 45.1149 33.5664 43.7473 35.851 41.4627Z" fill="#55DFFF"/>
<path d="M38.65 37.8399C37.57 37.8399 35.42 39.0099 33.24 39.7599C33.38 39.6099 33.53 39.4499 33.68 39.2999C35.97 37.0199 38.3 35.6499 38.9 36.2499C39.15 36.4999 39.05 37.0799 38.65 37.8399Z" fill="white"/>
<path d="M31.49 43.2399L29.76 41.5099L35.89 35.3799L37.62 37.1099C38.57 38.0599 32.44 44.1999 31.49 43.2399Z" fill="#1A2C38"/>
<path d="M33.9763 39.5928C36.2609 37.3083 37.6285 34.9719 37.031 34.3744C36.4335 33.7769 34.0972 35.1445 31.8126 37.4291C29.528 39.7137 28.1604 42.05 28.7579 42.6475C29.3554 43.245 31.6918 41.8774 33.9763 39.5928Z" fill="#557086"/>
<path d="M36.9479 34.3006L35.4418 32.7944L27.1757 41.0605L28.6818 42.5666L36.9479 34.3006Z" fill="#557086"/>
<path d="M35.2 34.39C34.69 35.39 33.69 36.71 32.39 38.01C30.11 40.29 27.78 41.66 27.18 41.06C26.62 40.51 27.77 38.44 29.79 36.31C29.93 36.16 30.08 36 30.23 35.85C32.52 33.57 34.85 32.2 35.45 32.8C35.7 33.05 35.6 33.63 35.2 34.39Z" fill="#55DFFF"/>
<path d="M35.2 34.39C34.12 34.39 31.97 35.56 29.79 36.31C29.93 36.16 30.08 36 30.23 35.85C32.52 33.57 34.85 32.2 35.45 32.8C35.7 33.05 35.6 33.63 35.2 34.39Z" fill="white"/>
<path d="M32.9 35.2199L24.68 27.5699L23.95 25.7099C23.77 25.2399 23.46 24.8399 23.05 24.5399L19.63 21.9999C19.2 21.6799 18.61 21.7299 18.24 22.0999L16.48 23.8599C16.11 24.2299 16.06 24.8299 16.38 25.2499L18.92 28.6699C19.22 29.0699 19.63 29.3799 20.09 29.5699L21.95 30.2999L29.6 38.5199C29.98 38.8999 33.27 35.6099 32.89 35.2299L32.9 35.2199Z" fill="#8EA3B2"/>
<path d="M22.4433 26.728C22.7244 26.4468 22.2781 25.5446 21.4462 24.7128C20.6144 23.8809 19.7122 23.4346 19.431 23.7157C19.1498 23.9969 19.5962 24.8992 20.428 25.731C21.2598 26.5628 22.1621 27.0092 22.4433 26.728Z" fill="white"/>
<path d="M42.8864 49.9381L37.5265 44.5783C36.9564 44.0081 36.0335 44.0065 35.4653 44.5747C34.8971 45.143 34.8987 46.0658 35.4688 46.636L40.8287 51.9958C41.3989 52.566 42.3217 52.5676 42.8899 51.9994C43.4581 51.4311 43.4566 50.5083 42.8864 49.9381Z" fill="white"/>
<path d="M46.3791 46.4411L41.0192 41.0812C40.449 40.511 39.5262 40.5095 38.958 41.0777C38.3898 41.6459 38.3913 42.5687 38.9615 43.1389L44.3214 48.4988C44.8915 49.0689 45.8144 49.0705 46.3826 48.5023C46.9508 47.9341 46.9492 47.0112 46.3791 46.4411Z" fill="white"/>
<path fill-rule="evenodd" clip-rule="evenodd" d="M6.49771 79C6.98969 79 7.48602 79.213 7.49037 79.6913C7.49037 80.1043 7.24656 80.2696 6.99839 80.2696C6.75023 80.2696 6.73281 80.1435 6.73281 80.1435C6.73281 80.1435 7.02452 79.9261 7.02452 79.7174C7.02452 79.6087 6.94179 79.313 6.489 79.3174C5.8577 79.3174 5.5181 79.6174 5.5181 80.1522C5.5181 80.7652 7.35105 80.9739 7.3554 81.7652C7.3554 82.613 6.47594 82.9957 5.69225 83C5.283 83 5.01306 82.7609 5.00871 82.3783C5.00871 81.9261 5.22204 81.4652 5.75756 81.4652C5.88382 81.4565 5.98831 81.5522 5.99702 81.6783C5.99702 81.6783 5.99702 81.6826 5.99702 81.687C5.99702 81.687 5.45715 81.8391 5.4615 82.3783C5.4615 82.4783 5.56599 82.6609 5.81851 82.6565C6.07103 82.6522 6.82424 82.4739 6.81989 81.8087C6.81989 81.1913 5.00435 81.1087 5 80.1478C5 79.0652 6.08845 79.0087 6.49771 79.0087V79ZM10.747 79.6C10.8123 79.5696 11.2129 79.4913 11.1955 79.813C11.1824 80.1348 10.9386 80.6913 10.9037 80.9348C11.2303 80.7696 11.6918 80.2087 11.6918 80.2087C11.6918 80.2087 12.0183 80.2522 11.9182 80.4522C11.818 80.6522 11.1519 81.1435 11.1519 81.1435C11.1519 81.1435 11.3043 82.5696 12.1707 82.5696C12.6453 82.5696 12.8499 82.3609 12.937 82.287C12.9587 82.2696 12.9762 82.2652 12.9849 82.2783C13.0197 82.387 12.9936 82.5043 12.9152 82.5913C12.8194 82.6957 12.5974 82.8217 12.1533 82.8261C11.3653 82.8261 10.9255 82.1957 10.8123 81.2609C10.7252 81.5348 10.7339 81.9826 10.7209 82.2C10.6948 82.2435 10.2507 82.4174 10.2158 82.1174C10.2158 82.0913 10.2158 82.0696 10.2158 82.0435C10.1331 82.1609 10.0199 82.2826 9.91108 82.2826C9.71951 82.2826 9.63679 82.1217 9.60196 82.0391C9.57584 82.0696 9.3625 82.287 9.08821 82.287C8.92277 82.2913 8.77474 82.1957 8.70943 82.0435C8.57011 82.1435 8.32195 82.2913 8.03895 82.2913C7.73418 82.2913 7.66017 82.1087 7.66017 81.9565C7.66017 81.713 7.84303 80.987 7.84303 80.987C7.84303 80.987 7.48602 81.1304 7.36411 81.1348C7.19431 81.1348 7.11159 80.8217 7.11159 80.813C7.11159 80.8087 7.11159 80.8 7.1203 80.8C7.22044 80.7609 7.94317 80.513 7.94317 80.513C7.94317 80.513 8.07813 79.9826 8.09555 79.913C8.11296 79.8435 8.2131 79.7 8.33065 79.6565C8.41773 79.6217 8.50916 79.6 8.60059 79.5913C8.63107 79.5913 8.65284 79.6 8.65284 79.6174C8.65284 79.6348 8.47433 80.4087 8.47433 80.4087C8.47433 80.4087 8.84876 80.3217 8.98808 80.3217C9.09692 80.3217 9.15352 80.387 9.09257 80.4696C9.03162 80.5522 8.96196 80.6478 8.92712 80.6913C8.88794 80.7348 8.86182 80.7435 8.77039 80.7609C8.64413 80.787 8.36113 80.8565 8.36113 80.8565C8.36113 80.8565 8.13473 81.6783 8.13909 81.8174C8.13909 81.8957 8.16521 81.987 8.26099 81.987C8.35678 81.987 8.53964 81.8739 8.67025 81.7913C8.69202 81.1522 9.18835 80.7261 9.57584 80.7261C9.7021 80.7261 9.65421 80.8478 9.79788 80.8478H9.88931C9.94591 80.8478 10.0069 80.8522 10.0069 80.9957C10.0069 81.1957 9.89367 81.5261 9.89367 81.7348C9.89367 81.8826 9.91544 81.987 9.97204 81.987C10.0678 81.987 10.1767 81.8478 10.255 81.7261C10.3813 81.0304 10.734 79.7609 10.734 79.6174L10.747 79.6ZM12.5016 80.7C12.7672 80.6783 12.9326 80.8217 12.9631 80.9C12.9936 80.9783 12.9892 81.1609 12.9152 81.2913C12.6845 81.7044 12.1097 81.6304 12.1097 81.6304C12.1097 81.6304 12.0444 81.9565 12.3405 81.9565C12.593 81.9565 12.7062 81.8304 12.8151 81.7261C12.8586 81.7261 12.9936 81.8652 12.9326 81.9609C12.8847 82.0348 12.6191 82.2565 12.2795 82.2609C11.7397 82.2609 11.6047 81.8 11.6744 81.4696C11.7658 81.0609 12.1751 80.7217 12.5016 80.6957V80.7ZM9.6455 80.987C9.32332 80.987 8.82699 81.9696 9.20577 81.9652C9.61938 81.9652 9.6455 81.1826 9.6455 81.0043V80.987ZM12.6409 80.8913C12.4232 80.9 12.1751 81.3174 12.1533 81.5C12.4798 81.513 12.654 81.1957 12.6757 81.0696C12.6888 80.9739 12.6932 80.887 12.6409 80.887V80.8913Z" fill="#557086"/>
<path d="M50.851 79.0672L49.2521 80.8632C49.1826 80.9428 49.1826 81.0572 49.2521 81.1368L50.846 82.9328C50.9255 83.0224 51.0695 83.0224 51.1539 82.9328L52.7478 81.1368C52.8173 81.0572 52.8173 80.9428 52.7478 80.8632L51.1539 79.0672C51.0744 78.9776 50.9304 78.9776 50.846 79.0672H50.851Z" fill="white"/>
<path d="M51.6604 79.6343L52.142 80.1766L50.568 82.6144L49.704 81.6393L51.6604 79.6343Z" fill="#8EA3B2"/>
<path d="M55.851 79.0672L54.2521 80.8632C54.1826 80.9428 54.1826 81.0572 54.2521 81.1368L55.846 82.9328C55.9255 83.0224 56.0695 83.0224 56.1539 82.9328L57.7478 81.1368C57.8173 81.0572 57.8173 80.9428 57.7478 80.8632L56.1539 79.0672C56.0744 78.9776 55.9304 78.9776 55.846 79.0672H55.851Z" fill="white"/>
<path d="M56.6604 79.6343L57.142 80.1766L55.568 82.6144L54.704 81.6393L56.6604 79.6343Z" fill="#8EA3B2"/>
<rect x="13" y="62" width="37" height="13" rx="6.5" fill="#2F4553"/>
<path d="M25.0234 70.072C23.8534 70.072 23.3074 69.058 23.3074 68.002C23.3074 66.946 23.8534 65.938 25.0234 65.938C26.1934 65.938 26.7394 66.946 26.7394 68.002C26.7394 69.058 26.1934 70.072 25.0234 70.072ZM25.0234 69.16C25.5034 69.16 25.6954 68.71 25.6954 68.002C25.6954 67.294 25.5034 66.85 25.0234 66.85C24.5434 66.85 24.3514 67.294 24.3514 68.002C24.3514 68.71 24.5434 69.16 25.0234 69.16ZM27.6116 70.072C27.3056 70.072 27.0476 69.814 27.0476 69.508C27.0476 69.202 27.3056 68.944 27.6116 68.944C27.9176 68.944 28.1756 69.202 28.1756 69.508C28.1756 69.814 27.9176 70.072 27.6116 70.072ZM30.2089 70.072C29.0389 70.072 28.4929 69.058 28.4929 68.002C28.4929 66.946 29.0389 65.938 30.2089 65.938C31.3789 65.938 31.9249 66.946 31.9249 68.002C31.9249 69.058 31.3789 70.072 30.2089 70.072ZM30.2089 69.16C30.6889 69.16 30.8809 68.71 30.8809 68.002C30.8809 67.294 30.6889 66.85 30.2089 66.85C29.7289 66.85 29.5369 67.294 29.5369 68.002C29.5369 68.71 29.7289 69.16 30.2089 69.16ZM35.1651 70H34.1271V69.268H32.2131V68.464L33.7311 65.998H35.1651V68.362H35.6511V69.268H35.1651V70ZM34.1271 68.362V66.898L33.2151 68.362H34.1271ZM38.8863 70H37.8723L37.3143 69.124L36.7503 70H35.7423L36.7323 68.512L35.8023 67.102H36.8163L37.3143 67.888L37.8063 67.102H38.8203L37.8963 68.512L38.8863 70Z" fill="white"/>
<path d="M6.945 11.06C5.945 11.06 5.17 10.36 5.17 9.335C5.17 8.31 5.945 7.61 6.945 7.61C7.68 7.61 8.105 8.01 8.34 8.425L7.73 8.725C7.59 8.455 7.29 8.24 6.945 8.24C6.34 8.24 5.9 8.705 5.9 9.335C5.9 9.965 6.34 10.43 6.945 10.43C7.29 10.43 7.59 10.22 7.73 9.945L8.34 10.24C8.1 10.655 7.68 11.06 6.945 11.06ZM9.86762 11.06C9.07262 11.06 8.59262 10.48 8.59262 9.79C8.59262 9.105 9.07262 8.525 9.86762 8.525C10.6676 8.525 11.1476 9.105 11.1476 9.79C11.1476 10.48 10.6676 11.06 9.86762 11.06ZM9.86762 10.495C10.2626 10.495 10.4876 10.17 10.4876 9.79C10.4876 9.415 10.2626 9.09 9.86762 9.09C9.47262 9.09 9.25262 9.415 9.25262 9.79C9.25262 10.17 9.47262 10.495 9.86762 10.495ZM15.2537 11H14.6137V9.475C14.6137 9.25 14.5137 9.09 14.2537 9.09C14.0287 9.09 13.8437 9.24 13.7537 9.37V11H13.1137V9.475C13.1137 9.25 13.0137 9.09 12.7537 9.09C12.5337 9.09 12.3487 9.24 12.2537 9.375V11H11.6187V8.585H12.2537V8.9C12.3537 8.755 12.6737 8.525 13.0437 8.525C13.3987 8.525 13.6237 8.69 13.7137 8.965C13.8537 8.745 14.1737 8.525 14.5437 8.525C14.9887 8.525 15.2537 8.76 15.2537 9.255V11ZM19.5115 11H18.8715V9.475C18.8715 9.25 18.7715 9.09 18.5115 9.09C18.2865 9.09 18.1015 9.24 18.0115 9.37V11H17.3715V9.475C17.3715 9.25 17.2715 9.09 17.0115 9.09C16.7915 9.09 16.6065 9.24 16.5115 9.375V11H15.8765V8.585H16.5115V8.9C16.6115 8.755 16.9315 8.525 17.3015 8.525C17.6565 8.525 17.8815 8.69 17.9715 8.965C18.1115 8.745 18.4315 8.525 18.8015 8.525C19.2465 8.525 19.5115 8.76 19.5115 9.255V11ZM21.2543 11.06C20.4593 11.06 19.9793 10.48 19.9793 9.79C19.9793 9.105 20.4593 8.525 21.2543 8.525C22.0543 8.525 22.5343 9.105 22.5343 9.79C22.5343 10.48 22.0543 11.06 21.2543 11.06ZM21.2543 10.495C21.6493 10.495 21.8743 10.17 21.8743 9.79C21.8743 9.415 21.6493 9.09 21.2543 9.09C20.8593 9.09 20.6393 9.415 20.6393 9.79C20.6393 10.17 20.8593 10.495 21.2543 10.495ZM25.2704 11H24.6354V9.54C24.6354 9.205 24.4604 9.09 24.1904 9.09C23.9404 9.09 23.7454 9.23 23.6404 9.375V11H23.0054V8.585H23.6404V8.9C23.7954 8.715 24.0904 8.525 24.4854 8.525C25.0154 8.525 25.2704 8.825 25.2704 9.295V11Z" fill="#05080A"/>
<path d="M48.0765 11H47.6245L46.2325 9.096V11H45.7645V8.332H46.2445L47.6085 10.184V8.332H48.0765V11ZM49.5034 11.048C48.8914 11.048 48.5114 10.588 48.5114 10.032C48.5114 9.48 48.8914 9.02 49.5034 9.02C50.1234 9.02 50.4994 9.48 50.4994 10.032C50.4994 10.588 50.1234 11.048 49.5034 11.048ZM49.5034 10.676C49.8634 10.676 50.0634 10.376 50.0634 10.032C50.0634 9.692 49.8634 9.392 49.5034 9.392C49.1474 9.392 48.9474 9.692 48.9474 10.032C48.9474 10.376 49.1474 10.676 49.5034 10.676ZM51.1208 11.044C50.9688 11.044 50.8408 10.916 50.8408 10.764C50.8408 10.612 50.9688 10.484 51.1208 10.484C51.2728 10.484 51.4008 10.612 51.4008 10.764C51.4008 10.916 51.2728 11.044 51.1208 11.044ZM53.8766 11H53.4086V8.94L52.9726 9.392L52.7006 9.108L53.4686 8.332H53.8766V11ZM56.0122 11H55.5442V10.396H54.2722V10.02L55.3682 8.332H56.0122V9.984H56.3682V10.396H56.0122V11ZM55.5442 9.984V8.752L54.7322 9.984H55.5442ZM57.7165 11H57.2485V8.94L56.8125 9.392L56.5405 9.108L57.3085 8.332H57.7165V11Z" fill="white"/>
</svg>
