<svg width="63" height="88" viewBox="0 0 63 88" fill="none" xmlns="http://www.w3.org/2000/svg">
<rect width="63" height="88" rx="4" fill="#55DFFF"/>
<path d="M36.7008 13.5133L44.7992 3.48665C45.5586 2.54645 46.7024 2 47.911 2H58C59.6569 2 61 3.34314 61 5V83C61 84.6569 59.6569 86 58 86H5C3.34315 86 2 84.6569 2 83V18C2 16.3431 3.34315 15 5 15H33.589C34.7976 15 35.9414 14.4536 36.7008 13.5133Z" fill="#213743"/>
<rect x="5" y="18" width="53" height="40" rx="1" fill="#2F4553"/>
<path d="M31.5799 56.7301C37.5943 56.7301 42.4699 55.3646 42.4699 53.6801C42.4699 51.9957 37.5943 50.6301 31.5799 50.6301C25.5656 50.6301 20.6899 51.9957 20.6899 53.6801C20.6899 55.3646 25.5656 56.7301 31.5799 56.7301Z" fill="#1A2C38"/>
<path d="M43.39 43.1801C43.39 49.7501 38.07 55.0701 31.5 55.0701H31.46C24.92 55.0501 19.62 49.7401 19.62 43.1801C19.62 41.1201 20.15 39.1701 21.07 37.4901C21.07 37.4901 24.79 29.6301 25.77 24.8401H37.23C38.22 29.6301 41.93 37.4901 41.93 37.4901C42.52 38.5701 42.95 39.7501 43.18 41.0001C43.31 41.7101 43.38 42.4301 43.38 43.1801H43.39Z" fill="#55DFFF"/>
<path d="M22.58 34.0701C22.66 35.2701 23.51 36.7201 26.94 37.1101C33.08 37.8001 39.05 35.5101 39.27 33.4701L23.29 32.3601C23.05 32.9601 22.81 33.5401 22.58 34.0801V34.0701Z" fill="#1A2C38"/>
<path d="M31.5 36.0001C35.3 36.0001 39.84 35.0201 40.27 32.8401C39.22 30.2301 38.12 27.1901 37.64 24.8401C37.18 21.8701 34.61 19.5901 31.51 19.5901C28.41 19.5901 25.84 21.8701 25.38 24.8401C24.89 27.1901 23.79 30.2301 22.75 32.8401C23.18 35.0201 27.61 36.0001 31.52 36.0001H31.5Z" fill="#557086"/>
<path d="M36.2515 26.5732C36.678 23.9456 34.8937 21.4697 32.266 21.0432C29.6384 20.6167 27.1626 22.401 26.736 25.0286C26.3095 27.6563 28.0939 30.1321 30.7215 30.5587C33.3491 30.9852 35.825 29.2008 36.2515 26.5732Z" fill="white"/>
<path d="M36.8201 26.02C36.8201 23.11 34.5701 20.72 31.7101 20.51C31.7101 20.51 31.7101 20.5 31.7101 20.49C31.6401 20.49 31.5701 20.49 31.5001 20.5C31.4301 20.5 31.3601 20.49 31.2901 20.49C31.2901 20.49 31.2901 20.5 31.2901 20.51C28.4301 20.73 26.1801 23.11 26.1801 26.02C28.4001 26.02 30.3101 24.71 31.1901 22.83C31.3101 22.57 31.6901 22.57 31.8201 22.83C32.7001 24.71 34.6101 26.02 36.8301 26.02H36.8201Z" fill="#557086"/>
<path d="M35.11 41.29V39.04C35.11 37.64 33.98 36.5 32.6 36.5H28.53C27.15 36.5 26.02 37.64 26.02 39.04V41.29C26.02 41.82 26.6 42.15 27.05 41.87C28.86 40.75 29.98 39.01 30.57 36.79C31.17 39.01 32.29 40.75 34.09 41.87C34.54 42.15 35.12 41.82 35.12 41.28L35.11 41.29Z" fill="#1A2C38"/>
<path d="M36.05 40.6001V38.3501C36.05 36.9501 34.92 35.8101 33.54 35.8101H29.47C28.09 35.8101 26.96 36.9501 26.96 38.3501V40.6001C26.96 41.1301 27.54 41.4601 27.99 41.1801C29.8 40.0601 30.92 38.3201 31.51 36.1001C32.11 38.3201 33.23 40.0601 35.03 41.1801C35.48 41.4601 36.06 41.1301 36.06 40.5901L36.05 40.6001Z" fill="#557086"/>
<path d="M33.76 27.3301C34.1797 27.3301 34.52 26.9898 34.52 26.5701C34.52 26.1503 34.1797 25.8101 33.76 25.8101C33.3403 25.8101 33 26.1503 33 26.5701C33 26.9898 33.3403 27.3301 33.76 27.3301Z" fill="#1A2C38"/>
<path d="M29.41 27.3301C29.8298 27.3301 30.17 26.9898 30.17 26.5701C30.17 26.1503 29.8298 25.8101 29.41 25.8101C28.9903 25.8101 28.65 26.1503 28.65 26.5701C28.65 26.9898 28.9903 27.3301 29.41 27.3301Z" fill="#1A2C38"/>
<path d="M43.39 43.18C43.39 42.43 43.32 41.71 43.19 41C43.19 44.09 38.97 47.39 31.51 47.42C24.04 47.4 19.83 44.09 19.83 41C19.7 41.71 19.63 42.43 19.63 43.18C19.63 49.73 24.93 55.04 31.47 55.06H31.51H31.55C38.1 55.04 43.39 49.73 43.39 43.17V43.18Z" fill="#8EA3B2"/>
<path d="M40.8788 42.4239C41.5746 42.2062 41.7082 40.6539 41.1773 38.9566C40.6464 37.2594 39.652 36.0599 38.9562 36.2776C38.2604 36.4952 38.1268 38.0475 38.6577 39.7448C39.1886 41.442 40.183 42.6415 40.8788 42.4239Z" fill="white"/>
<path fill-rule="evenodd" clip-rule="evenodd" d="M6.49771 79C6.98969 79 7.48602 79.213 7.49037 79.6913C7.49037 80.1043 7.24656 80.2696 6.99839 80.2696C6.75023 80.2696 6.73281 80.1435 6.73281 80.1435C6.73281 80.1435 7.02452 79.9261 7.02452 79.7174C7.02452 79.6087 6.94179 79.313 6.489 79.3174C5.8577 79.3174 5.5181 79.6174 5.5181 80.1522C5.5181 80.7652 7.35105 80.9739 7.3554 81.7652C7.3554 82.613 6.47594 82.9957 5.69225 83C5.283 83 5.01306 82.7609 5.00871 82.3783C5.00871 81.9261 5.22204 81.4652 5.75756 81.4652C5.88382 81.4565 5.98831 81.5522 5.99702 81.6783C5.99702 81.6783 5.99702 81.6826 5.99702 81.687C5.99702 81.687 5.45715 81.8391 5.4615 82.3783C5.4615 82.4783 5.56599 82.6609 5.81851 82.6565C6.07103 82.6522 6.82424 82.4739 6.81989 81.8087C6.81989 81.1913 5.00435 81.1087 5 80.1478C5 79.0652 6.08845 79.0087 6.49771 79.0087V79ZM10.747 79.6C10.8123 79.5696 11.2129 79.4913 11.1955 79.813C11.1824 80.1348 10.9386 80.6913 10.9037 80.9348C11.2303 80.7696 11.6918 80.2087 11.6918 80.2087C11.6918 80.2087 12.0183 80.2522 11.9182 80.4522C11.818 80.6522 11.1519 81.1435 11.1519 81.1435C11.1519 81.1435 11.3043 82.5696 12.1707 82.5696C12.6453 82.5696 12.8499 82.3609 12.937 82.287C12.9587 82.2696 12.9762 82.2652 12.9849 82.2783C13.0197 82.387 12.9936 82.5043 12.9152 82.5913C12.8194 82.6957 12.5974 82.8217 12.1533 82.8261C11.3653 82.8261 10.9255 82.1957 10.8123 81.2609C10.7252 81.5348 10.7339 81.9826 10.7209 82.2C10.6948 82.2435 10.2507 82.4174 10.2158 82.1174C10.2158 82.0913 10.2158 82.0696 10.2158 82.0435C10.1331 82.1609 10.0199 82.2826 9.91108 82.2826C9.71951 82.2826 9.63679 82.1217 9.60196 82.0391C9.57584 82.0696 9.3625 82.287 9.08821 82.287C8.92277 82.2913 8.77474 82.1957 8.70943 82.0435C8.57011 82.1435 8.32195 82.2913 8.03895 82.2913C7.73418 82.2913 7.66017 82.1087 7.66017 81.9565C7.66017 81.713 7.84303 80.987 7.84303 80.987C7.84303 80.987 7.48602 81.1304 7.36411 81.1348C7.19431 81.1348 7.11159 80.8217 7.11159 80.813C7.11159 80.8087 7.11159 80.8 7.1203 80.8C7.22044 80.7609 7.94317 80.513 7.94317 80.513C7.94317 80.513 8.07813 79.9826 8.09555 79.913C8.11296 79.8435 8.2131 79.7 8.33065 79.6565C8.41773 79.6217 8.50916 79.6 8.60059 79.5913C8.63107 79.5913 8.65284 79.6 8.65284 79.6174C8.65284 79.6348 8.47433 80.4087 8.47433 80.4087C8.47433 80.4087 8.84876 80.3217 8.98808 80.3217C9.09692 80.3217 9.15352 80.387 9.09257 80.4696C9.03162 80.5522 8.96196 80.6478 8.92712 80.6913C8.88794 80.7348 8.86182 80.7435 8.77039 80.7609C8.64413 80.787 8.36113 80.8565 8.36113 80.8565C8.36113 80.8565 8.13473 81.6783 8.13909 81.8174C8.13909 81.8957 8.16521 81.987 8.26099 81.987C8.35678 81.987 8.53964 81.8739 8.67025 81.7913C8.69202 81.1522 9.18835 80.7261 9.57584 80.7261C9.7021 80.7261 9.65421 80.8478 9.79788 80.8478H9.88931C9.94591 80.8478 10.0069 80.8522 10.0069 80.9957C10.0069 81.1957 9.89367 81.5261 9.89367 81.7348C9.89367 81.8826 9.91544 81.987 9.97204 81.987C10.0678 81.987 10.1767 81.8478 10.255 81.7261C10.3813 81.0304 10.734 79.7609 10.734 79.6174L10.747 79.6ZM12.5016 80.7C12.7672 80.6783 12.9326 80.8217 12.9631 80.9C12.9936 80.9783 12.9892 81.1609 12.9152 81.2913C12.6845 81.7044 12.1097 81.6304 12.1097 81.6304C12.1097 81.6304 12.0444 81.9565 12.3405 81.9565C12.593 81.9565 12.7062 81.8304 12.8151 81.7261C12.8586 81.7261 12.9936 81.8652 12.9326 81.9609C12.8847 82.0348 12.6191 82.2565 12.2795 82.2609C11.7397 82.2609 11.6047 81.8 11.6744 81.4696C11.7658 81.0609 12.1751 80.7217 12.5016 80.6957V80.7ZM9.6455 80.987C9.32332 80.987 8.82699 81.9696 9.20577 81.9652C9.61938 81.9652 9.6455 81.1826 9.6455 81.0043V80.987ZM12.6409 80.8913C12.4232 80.9 12.1751 81.3174 12.1533 81.5C12.4798 81.513 12.654 81.1957 12.6757 81.0696C12.6888 80.9739 12.6932 80.887 12.6409 80.887V80.8913Z" fill="#557086"/>
<path d="M50.851 79.0672L49.2521 80.8632C49.1826 80.9428 49.1826 81.0572 49.2521 81.1368L50.846 82.9328C50.9255 83.0224 51.0695 83.0224 51.1539 82.9328L52.7478 81.1368C52.8173 81.0572 52.8173 80.9428 52.7478 80.8632L51.1539 79.0672C51.0744 78.9776 50.9304 78.9776 50.846 79.0672H50.851Z" fill="white"/>
<path d="M51.6604 79.6343L52.142 80.1766L50.568 82.6144L49.704 81.6393L51.6604 79.6343Z" fill="#8EA3B2"/>
<path d="M55.851 79.0672L54.2521 80.8632C54.1826 80.9428 54.1826 81.0572 54.2521 81.1368L55.846 82.9328C55.9255 83.0224 56.0695 83.0224 56.1539 82.9328L57.7478 81.1368C57.8173 81.0572 57.8173 80.9428 57.7478 80.8632L56.1539 79.0672C56.0744 78.9776 55.9304 78.9776 55.846 79.0672H55.851Z" fill="white"/>
<path d="M56.6604 79.6343L57.142 80.1766L55.568 82.6144L54.704 81.6393L56.6604 79.6343Z" fill="#8EA3B2"/>
<rect x="13" y="62" width="37" height="13" rx="6.5" fill="#2F4553"/>
<path d="M25.0234 70.072C23.8534 70.072 23.3074 69.058 23.3074 68.002C23.3074 66.946 23.8534 65.938 25.0234 65.938C26.1934 65.938 26.7394 66.946 26.7394 68.002C26.7394 69.058 26.1934 70.072 25.0234 70.072ZM25.0234 69.16C25.5034 69.16 25.6954 68.71 25.6954 68.002C25.6954 67.294 25.5034 66.85 25.0234 66.85C24.5434 66.85 24.3514 67.294 24.3514 68.002C24.3514 68.71 24.5434 69.16 25.0234 69.16ZM27.6116 70.072C27.3056 70.072 27.0476 69.814 27.0476 69.508C27.0476 69.202 27.3056 68.944 27.6116 68.944C27.9176 68.944 28.1756 69.202 28.1756 69.508C28.1756 69.814 27.9176 70.072 27.6116 70.072ZM30.2089 70.072C29.0389 70.072 28.4929 69.058 28.4929 68.002C28.4929 66.946 29.0389 65.938 30.2089 65.938C31.3789 65.938 31.9249 66.946 31.9249 68.002C31.9249 69.058 31.3789 70.072 30.2089 70.072ZM30.2089 69.16C30.6889 69.16 30.8809 68.71 30.8809 68.002C30.8809 67.294 30.6889 66.85 30.2089 66.85C29.7289 66.85 29.5369 67.294 29.5369 68.002C29.5369 68.71 29.7289 69.16 30.2089 69.16ZM35.1651 70H34.1271V69.268H32.2131V68.464L33.7311 65.998H35.1651V68.362H35.6511V69.268H35.1651V70ZM34.1271 68.362V66.898L33.2151 68.362H34.1271ZM38.8863 70H37.8723L37.3143 69.124L36.7503 70H35.7423L36.7323 68.512L35.8023 67.102H36.8163L37.3143 67.888L37.8063 67.102H38.8203L37.8963 68.512L38.8863 70Z" fill="white"/>
<path d="M6.945 11.06C5.945 11.06 5.17 10.36 5.17 9.335C5.17 8.31 5.945 7.61 6.945 7.61C7.68 7.61 8.105 8.01 8.34 8.425L7.73 8.725C7.59 8.455 7.29 8.24 6.945 8.24C6.34 8.24 5.9 8.705 5.9 9.335C5.9 9.965 6.34 10.43 6.945 10.43C7.29 10.43 7.59 10.22 7.73 9.945L8.34 10.24C8.1 10.655 7.68 11.06 6.945 11.06ZM9.86762 11.06C9.07262 11.06 8.59262 10.48 8.59262 9.79C8.59262 9.105 9.07262 8.525 9.86762 8.525C10.6676 8.525 11.1476 9.105 11.1476 9.79C11.1476 10.48 10.6676 11.06 9.86762 11.06ZM9.86762 10.495C10.2626 10.495 10.4876 10.17 10.4876 9.79C10.4876 9.415 10.2626 9.09 9.86762 9.09C9.47262 9.09 9.25262 9.415 9.25262 9.79C9.25262 10.17 9.47262 10.495 9.86762 10.495ZM15.2537 11H14.6137V9.475C14.6137 9.25 14.5137 9.09 14.2537 9.09C14.0287 9.09 13.8437 9.24 13.7537 9.37V11H13.1137V9.475C13.1137 9.25 13.0137 9.09 12.7537 9.09C12.5337 9.09 12.3487 9.24 12.2537 9.375V11H11.6187V8.585H12.2537V8.9C12.3537 8.755 12.6737 8.525 13.0437 8.525C13.3987 8.525 13.6237 8.69 13.7137 8.965C13.8537 8.745 14.1737 8.525 14.5437 8.525C14.9887 8.525 15.2537 8.76 15.2537 9.255V11ZM19.5115 11H18.8715V9.475C18.8715 9.25 18.7715 9.09 18.5115 9.09C18.2865 9.09 18.1015 9.24 18.0115 9.37V11H17.3715V9.475C17.3715 9.25 17.2715 9.09 17.0115 9.09C16.7915 9.09 16.6065 9.24 16.5115 9.375V11H15.8765V8.585H16.5115V8.9C16.6115 8.755 16.9315 8.525 17.3015 8.525C17.6565 8.525 17.8815 8.69 17.9715 8.965C18.1115 8.745 18.4315 8.525 18.8015 8.525C19.2465 8.525 19.5115 8.76 19.5115 9.255V11ZM21.2543 11.06C20.4593 11.06 19.9793 10.48 19.9793 9.79C19.9793 9.105 20.4593 8.525 21.2543 8.525C22.0543 8.525 22.5343 9.105 22.5343 9.79C22.5343 10.48 22.0543 11.06 21.2543 11.06ZM21.2543 10.495C21.6493 10.495 21.8743 10.17 21.8743 9.79C21.8743 9.415 21.6493 9.09 21.2543 9.09C20.8593 9.09 20.6393 9.415 20.6393 9.79C20.6393 10.17 20.8593 10.495 21.2543 10.495ZM25.2704 11H24.6354V9.54C24.6354 9.205 24.4604 9.09 24.1904 9.09C23.9404 9.09 23.7454 9.23 23.6404 9.375V11H23.0054V8.585H23.6404V8.9C23.7954 8.715 24.0904 8.525 24.4854 8.525C25.0154 8.525 25.2704 8.825 25.2704 9.295V11Z" fill="#05080A"/>
<path d="M47.2991 11H46.8471L45.4551 9.096V11H44.9871V8.332H45.4671L46.8311 10.184V8.332H47.2991V11ZM48.726 11.048C48.114 11.048 47.734 10.588 47.734 10.032C47.734 9.48 48.114 9.02 48.726 9.02C49.346 9.02 49.722 9.48 49.722 10.032C49.722 10.588 49.346 11.048 48.726 11.048ZM48.726 10.676C49.086 10.676 49.286 10.376 49.286 10.032C49.286 9.692 49.086 9.392 48.726 9.392C48.37 9.392 48.17 9.692 48.17 10.032C48.17 10.376 48.37 10.676 48.726 10.676ZM50.3435 11.044C50.1915 11.044 50.0635 10.916 50.0635 10.764C50.0635 10.612 50.1915 10.484 50.3435 10.484C50.4955 10.484 50.6235 10.612 50.6235 10.764C50.6235 10.916 50.4955 11.044 50.3435 11.044ZM53.0993 11H52.6313V8.94L52.1953 9.392L51.9233 9.108L52.6913 8.332H53.0993V11ZM55.2348 11H54.7668V10.396H53.4948V10.02L54.5908 8.332H55.2348V9.984H55.5908V10.396H55.2348V11ZM54.7668 9.984V8.752L53.9548 9.984H54.7668ZM56.8071 11.048C56.3311 11.048 55.9791 10.856 55.7991 10.616L56.0511 10.308C56.2231 10.508 56.5071 10.632 56.7911 10.632C57.1431 10.632 57.3471 10.472 57.3471 10.224C57.3471 9.96 57.1351 9.848 56.7551 9.848C56.6431 9.848 56.4871 9.848 56.4471 9.852V9.432C56.4951 9.436 56.6511 9.436 56.7551 9.436C57.0671 9.436 57.3031 9.328 57.3031 9.084C57.3031 8.836 57.0631 8.708 56.7631 8.708C56.4911 8.708 56.2671 8.812 56.0751 9.004L55.8351 8.712C56.0391 8.472 56.3631 8.292 56.8071 8.292C57.3831 8.292 57.7711 8.564 57.7711 9.012C57.7711 9.368 57.4671 9.576 57.1911 9.624C57.4511 9.648 57.8111 9.86 57.8111 10.272C57.8111 10.724 57.4231 11.048 56.8071 11.048Z" fill="white"/>
</svg>
