<svg width="63" height="88" viewBox="0 0 63 88" fill="none" xmlns="http://www.w3.org/2000/svg">
<rect width="63" height="88" rx="4" fill="#55DFFF"/>
<path d="M36.7008 13.5133L44.7992 3.48665C45.5586 2.54645 46.7024 2 47.911 2H58C59.6569 2 61 3.34314 61 5V83C61 84.6569 59.6569 86 58 86H5C3.34315 86 2 84.6569 2 83V18C2 16.3431 3.34315 15 5 15H33.589C34.7976 15 35.9414 14.4536 36.7008 13.5133Z" fill="#213743"/>
<rect x="5" y="18" width="53" height="40" rx="1" fill="#2F4553"/>
<g clip-path="url(#clip0_26835_29307)">
<path d="M22.48 44.1299L16.38 50.2299C15.92 50.6899 16.2 51.7099 16.99 52.4999C17.79 53.2999 18.8 53.5699 19.26 53.1099L25.36 47.0099L22.47 44.1199L22.48 44.1299Z" fill="#8EA3B2"/>
<path d="M29.2916 53.8924C31.3692 51.8148 29.9921 47.0692 26.2157 43.2929C22.4393 39.5165 17.6938 38.1394 15.6162 40.217C13.5386 42.2945 14.9157 47.0401 18.6921 50.8165C22.4685 54.5929 27.214 55.97 29.2916 53.8924Z" fill="#557086"/>
<path d="M29.2967 53.8981L31.2979 51.897L17.6153 38.2145L15.6142 40.2156L29.2967 53.8981Z" fill="#55DFFF"/>
<path d="M31.2916 51.8841C33.3692 49.8065 31.9921 45.0609 28.2157 41.2846C24.4393 37.5082 19.6938 36.1311 17.6162 38.2086C15.5386 40.2862 16.9157 45.0318 20.6921 48.8082C24.4685 52.5845 29.214 53.9617 31.2916 51.8841Z" fill="#55DFFF"/>
<path d="M18.99 35.0898L16.74 37.3398C14.4 39.6798 15.95 45.0298 20.21 49.2898C24.47 53.5498 29.82 55.0998 32.16 52.7598L34.41 50.5098L18.99 35.0898Z" fill="#55DFFF"/>
<path d="M34.41 50.4999C33.64 51.2699 32.53 51.6199 31.25 51.5799C28.66 51.5199 25.32 49.8898 22.47 47.0299C18.21 42.7799 16.66 37.4299 19 35.0899C19.96 34.1299 21.43 33.8198 23.12 34.0998C25.55 34.4898 28.43 36.0499 30.94 38.5599C35.2 42.8199 36.75 48.1699 34.41 50.4999Z" fill="#55DFFF"/>
<path d="M32.1697 46.0503C33.3842 44.8358 32.4186 41.901 30.013 39.4954C27.6074 37.0898 24.6727 36.1242 23.4581 37.3387C22.2436 38.5533 23.2092 41.488 25.6148 43.8936C28.0204 46.2992 30.9552 47.2648 32.1697 46.0503Z" fill="#1A2C38"/>
<path d="M34.61 30.95L26.28 39.2799C25.65 39.9099 26.03 41.3 27.12 42.38C28.21 43.47 29.6 43.84 30.22 43.22L38.55 34.8899L34.61 30.95Z" fill="#8EA3B2"/>
<path d="M29.8499 35.7C29.6299 37.07 30.2099 40.31 31.5399 41.9L34.2699 39.17L30.3299 35.23L29.8499 35.71V35.7Z" fill="#1A2C38"/>
<path d="M30.36 23.72L28.11 25.97C25.77 28.31 27.32 33.66 31.58 37.92C35.84 42.18 41.19 43.73 43.53 41.39L45.78 39.14L30.36 23.72Z" fill="#8EA3B2"/>
<path d="M45.7813 39.1423C48.1245 36.7991 46.5732 31.4489 42.3165 27.1922C38.0598 22.9354 32.7096 21.3842 30.3664 23.7273C28.0233 26.0705 29.5745 31.4207 33.8312 35.6774C38.088 39.9341 43.4382 41.4854 45.7813 39.1423Z" fill="#8EA3B2"/>
<path d="M33.71 22.1099L31.71 24.1099C29.63 26.1899 31.01 30.9399 34.79 34.7099C38.57 38.4899 43.32 39.8699 45.39 37.7899L47.39 35.7899L33.71 22.1099Z" fill="#55DFFF"/>
<path d="M47.39 35.7899C46.81 36.3699 46.02 36.6799 45.11 36.7499C42.74 36.9199 39.51 35.4399 36.79 32.7099C33.01 28.9299 31.63 24.1899 33.71 22.1199C34.51 21.3199 35.71 21.0299 37.1 21.1999C39.31 21.4599 41.99 22.8699 44.32 25.1999C48.1 28.9799 49.47 33.7199 47.4 35.7899H47.39Z" fill="#55DFFF"/>
<path d="M45.3897 32.8103C46.6042 31.5958 45.6386 28.6611 43.233 26.2554C40.8274 23.8498 37.8926 22.8842 36.6781 24.0987C35.4636 25.3133 36.4292 28.248 38.8348 30.6536C41.2404 33.0593 44.1751 34.0248 45.3897 32.8103Z" fill="#1A2C38"/>
<path d="M42.6164 29.7591C43.0733 29.3022 42.7978 28.286 42.0012 27.4893C41.2045 26.6926 40.1883 26.4172 39.7314 26.8741C39.2745 27.331 39.5499 28.3472 40.3465 29.1439C41.1432 29.9406 42.1595 30.216 42.6164 29.7591Z" fill="#8EA3B2"/>
<path d="M42.6272 29.7695L46.877 25.5198L43.992 22.6348L39.7422 26.8845L42.6272 29.7695Z" fill="#8EA3B2"/>
<path d="M46.88 25.51C46.67 25.72 46.32 25.78 45.93 25.69C45.5 25.6 45.02 25.32 44.6 24.91C43.8 24.11 43.52 23.09 43.98 22.64C44.43 22.18 45.45 22.45 46.25 23.24C47.04 24.04 47.32 25.06 46.87 25.51H46.88Z" fill="#8EA3B2"/>
<path d="M24.1279 49.9413C24.4833 49.5859 23.7488 48.2753 22.4874 47.0139C21.226 45.7525 19.9153 45.018 19.56 45.3734C19.2046 45.7288 19.9391 47.0394 21.2005 48.3008C22.4619 49.5622 23.7725 50.2967 24.1279 49.9413Z" fill="white"/>
<path d="M38.6778 35.3805C39.0332 35.0251 38.2987 33.7145 37.0373 32.4531C35.7759 31.1917 34.4653 30.4572 34.1099 30.8126C33.7545 31.168 34.489 32.4786 35.7504 33.74C37.0118 35.0014 38.3224 35.7359 38.6778 35.3805Z" fill="white"/>
</g>
<path fill-rule="evenodd" clip-rule="evenodd" d="M6.49771 79C6.98969 79 7.48602 79.213 7.49037 79.6913C7.49037 80.1043 7.24656 80.2696 6.99839 80.2696C6.75023 80.2696 6.73281 80.1435 6.73281 80.1435C6.73281 80.1435 7.02452 79.9261 7.02452 79.7174C7.02452 79.6087 6.94179 79.313 6.489 79.3174C5.8577 79.3174 5.5181 79.6174 5.5181 80.1522C5.5181 80.7652 7.35105 80.9739 7.3554 81.7652C7.3554 82.613 6.47594 82.9957 5.69225 83C5.283 83 5.01306 82.7609 5.00871 82.3783C5.00871 81.9261 5.22204 81.4652 5.75756 81.4652C5.88382 81.4565 5.98831 81.5522 5.99702 81.6783C5.99702 81.6783 5.99702 81.6826 5.99702 81.687C5.99702 81.687 5.45715 81.8391 5.4615 82.3783C5.4615 82.4783 5.56599 82.6609 5.81851 82.6565C6.07103 82.6522 6.82424 82.4739 6.81989 81.8087C6.81989 81.1913 5.00435 81.1087 5 80.1478C5 79.0652 6.08845 79.0087 6.49771 79.0087V79ZM10.747 79.6C10.8123 79.5696 11.2129 79.4913 11.1955 79.813C11.1824 80.1348 10.9386 80.6913 10.9037 80.9348C11.2303 80.7696 11.6918 80.2087 11.6918 80.2087C11.6918 80.2087 12.0183 80.2522 11.9182 80.4522C11.818 80.6522 11.1519 81.1435 11.1519 81.1435C11.1519 81.1435 11.3043 82.5696 12.1707 82.5696C12.6453 82.5696 12.8499 82.3609 12.937 82.287C12.9587 82.2696 12.9762 82.2652 12.9849 82.2783C13.0197 82.387 12.9936 82.5043 12.9152 82.5913C12.8194 82.6957 12.5974 82.8217 12.1533 82.8261C11.3653 82.8261 10.9255 82.1957 10.8123 81.2609C10.7252 81.5348 10.7339 81.9826 10.7209 82.2C10.6948 82.2435 10.2507 82.4174 10.2158 82.1174C10.2158 82.0913 10.2158 82.0696 10.2158 82.0435C10.1331 82.1609 10.0199 82.2826 9.91108 82.2826C9.71951 82.2826 9.63679 82.1217 9.60196 82.0391C9.57584 82.0696 9.3625 82.287 9.08821 82.287C8.92277 82.2913 8.77474 82.1957 8.70943 82.0435C8.57011 82.1435 8.32195 82.2913 8.03895 82.2913C7.73418 82.2913 7.66017 82.1087 7.66017 81.9565C7.66017 81.713 7.84303 80.987 7.84303 80.987C7.84303 80.987 7.48602 81.1304 7.36411 81.1348C7.19431 81.1348 7.11159 80.8217 7.11159 80.813C7.11159 80.8087 7.11159 80.8 7.1203 80.8C7.22044 80.7609 7.94317 80.513 7.94317 80.513C7.94317 80.513 8.07813 79.9826 8.09555 79.913C8.11296 79.8435 8.2131 79.7 8.33065 79.6565C8.41773 79.6217 8.50916 79.6 8.60059 79.5913C8.63107 79.5913 8.65284 79.6 8.65284 79.6174C8.65284 79.6348 8.47433 80.4087 8.47433 80.4087C8.47433 80.4087 8.84876 80.3217 8.98808 80.3217C9.09692 80.3217 9.15352 80.387 9.09257 80.4696C9.03162 80.5522 8.96196 80.6478 8.92712 80.6913C8.88794 80.7348 8.86182 80.7435 8.77039 80.7609C8.64413 80.787 8.36113 80.8565 8.36113 80.8565C8.36113 80.8565 8.13473 81.6783 8.13909 81.8174C8.13909 81.8957 8.16521 81.987 8.26099 81.987C8.35678 81.987 8.53964 81.8739 8.67025 81.7913C8.69202 81.1522 9.18835 80.7261 9.57584 80.7261C9.7021 80.7261 9.65421 80.8478 9.79788 80.8478H9.88931C9.94591 80.8478 10.0069 80.8522 10.0069 80.9957C10.0069 81.1957 9.89367 81.5261 9.89367 81.7348C9.89367 81.8826 9.91544 81.987 9.97204 81.987C10.0678 81.987 10.1767 81.8478 10.255 81.7261C10.3813 81.0304 10.734 79.7609 10.734 79.6174L10.747 79.6ZM12.5016 80.7C12.7672 80.6783 12.9326 80.8217 12.9631 80.9C12.9936 80.9783 12.9892 81.1609 12.9152 81.2913C12.6845 81.7044 12.1097 81.6304 12.1097 81.6304C12.1097 81.6304 12.0444 81.9565 12.3405 81.9565C12.593 81.9565 12.7062 81.8304 12.8151 81.7261C12.8586 81.7261 12.9936 81.8652 12.9326 81.9609C12.8847 82.0348 12.6191 82.2565 12.2795 82.2609C11.7397 82.2609 11.6047 81.8 11.6744 81.4696C11.7658 81.0609 12.1751 80.7217 12.5016 80.6957V80.7ZM9.6455 80.987C9.32332 80.987 8.82699 81.9696 9.20577 81.9652C9.61938 81.9652 9.6455 81.1826 9.6455 81.0043V80.987ZM12.6409 80.8913C12.4232 80.9 12.1751 81.3174 12.1533 81.5C12.4798 81.513 12.654 81.1957 12.6757 81.0696C12.6888 80.9739 12.6932 80.887 12.6409 80.887V80.8913Z" fill="#557086"/>
<path d="M50.851 79.0672L49.2521 80.8632C49.1826 80.9428 49.1826 81.0572 49.2521 81.1368L50.846 82.9328C50.9255 83.0224 51.0695 83.0224 51.1539 82.9328L52.7478 81.1368C52.8173 81.0572 52.8173 80.9428 52.7478 80.8632L51.1539 79.0672C51.0744 78.9776 50.9304 78.9776 50.846 79.0672H50.851Z" fill="white"/>
<path d="M51.6604 79.6343L52.142 80.1766L50.568 82.6144L49.704 81.6393L51.6604 79.6343Z" fill="#8EA3B2"/>
<path d="M55.851 79.0672L54.2521 80.8632C54.1826 80.9428 54.1826 81.0572 54.2521 81.1368L55.846 82.9328C55.9255 83.0224 56.0695 83.0224 56.1539 82.9328L57.7478 81.1368C57.8173 81.0572 57.8173 80.9428 57.7478 80.8632L56.1539 79.0672C56.0744 78.9776 55.9304 78.9776 55.846 79.0672H55.851Z" fill="white"/>
<path d="M56.6604 79.6343L57.142 80.1766L55.568 82.6144L54.704 81.6393L56.6604 79.6343Z" fill="#8EA3B2"/>
<rect x="13" y="62" width="37" height="13" rx="6.5" fill="#2F4553"/>
<path d="M25.0234 70.072C23.8534 70.072 23.3074 69.058 23.3074 68.002C23.3074 66.946 23.8534 65.938 25.0234 65.938C26.1934 65.938 26.7394 66.946 26.7394 68.002C26.7394 69.058 26.1934 70.072 25.0234 70.072ZM25.0234 69.16C25.5034 69.16 25.6954 68.71 25.6954 68.002C25.6954 67.294 25.5034 66.85 25.0234 66.85C24.5434 66.85 24.3514 67.294 24.3514 68.002C24.3514 68.71 24.5434 69.16 25.0234 69.16ZM27.6116 70.072C27.3056 70.072 27.0476 69.814 27.0476 69.508C27.0476 69.202 27.3056 68.944 27.6116 68.944C27.9176 68.944 28.1756 69.202 28.1756 69.508C28.1756 69.814 27.9176 70.072 27.6116 70.072ZM30.2089 70.072C29.0389 70.072 28.4929 69.058 28.4929 68.002C28.4929 66.946 29.0389 65.938 30.2089 65.938C31.3789 65.938 31.9249 66.946 31.9249 68.002C31.9249 69.058 31.3789 70.072 30.2089 70.072ZM30.2089 69.16C30.6889 69.16 30.8809 68.71 30.8809 68.002C30.8809 67.294 30.6889 66.85 30.2089 66.85C29.7289 66.85 29.5369 67.294 29.5369 68.002C29.5369 68.71 29.7289 69.16 30.2089 69.16ZM35.1651 70H34.1271V69.268H32.2131V68.464L33.7311 65.998H35.1651V68.362H35.6511V69.268H35.1651V70ZM34.1271 68.362V66.898L33.2151 68.362H34.1271ZM38.8863 70H37.8723L37.3143 69.124L36.7503 70H35.7423L36.7323 68.512L35.8023 67.102H36.8163L37.3143 67.888L37.8063 67.102H38.8203L37.8963 68.512L38.8863 70Z" fill="white"/>
<path d="M6.945 11.06C5.945 11.06 5.17 10.36 5.17 9.335C5.17 8.31 5.945 7.61 6.945 7.61C7.68 7.61 8.105 8.01 8.34 8.425L7.73 8.725C7.59 8.455 7.29 8.24 6.945 8.24C6.34 8.24 5.9 8.705 5.9 9.335C5.9 9.965 6.34 10.43 6.945 10.43C7.29 10.43 7.59 10.22 7.73 9.945L8.34 10.24C8.1 10.655 7.68 11.06 6.945 11.06ZM9.86762 11.06C9.07262 11.06 8.59262 10.48 8.59262 9.79C8.59262 9.105 9.07262 8.525 9.86762 8.525C10.6676 8.525 11.1476 9.105 11.1476 9.79C11.1476 10.48 10.6676 11.06 9.86762 11.06ZM9.86762 10.495C10.2626 10.495 10.4876 10.17 10.4876 9.79C10.4876 9.415 10.2626 9.09 9.86762 9.09C9.47262 9.09 9.25262 9.415 9.25262 9.79C9.25262 10.17 9.47262 10.495 9.86762 10.495ZM15.2537 11H14.6137V9.475C14.6137 9.25 14.5137 9.09 14.2537 9.09C14.0287 9.09 13.8437 9.24 13.7537 9.37V11H13.1137V9.475C13.1137 9.25 13.0137 9.09 12.7537 9.09C12.5337 9.09 12.3487 9.24 12.2537 9.375V11H11.6187V8.585H12.2537V8.9C12.3537 8.755 12.6737 8.525 13.0437 8.525C13.3987 8.525 13.6237 8.69 13.7137 8.965C13.8537 8.745 14.1737 8.525 14.5437 8.525C14.9887 8.525 15.2537 8.76 15.2537 9.255V11ZM19.5115 11H18.8715V9.475C18.8715 9.25 18.7715 9.09 18.5115 9.09C18.2865 9.09 18.1015 9.24 18.0115 9.37V11H17.3715V9.475C17.3715 9.25 17.2715 9.09 17.0115 9.09C16.7915 9.09 16.6065 9.24 16.5115 9.375V11H15.8765V8.585H16.5115V8.9C16.6115 8.755 16.9315 8.525 17.3015 8.525C17.6565 8.525 17.8815 8.69 17.9715 8.965C18.1115 8.745 18.4315 8.525 18.8015 8.525C19.2465 8.525 19.5115 8.76 19.5115 9.255V11ZM21.2543 11.06C20.4593 11.06 19.9793 10.48 19.9793 9.79C19.9793 9.105 20.4593 8.525 21.2543 8.525C22.0543 8.525 22.5343 9.105 22.5343 9.79C22.5343 10.48 22.0543 11.06 21.2543 11.06ZM21.2543 10.495C21.6493 10.495 21.8743 10.17 21.8743 9.79C21.8743 9.415 21.6493 9.09 21.2543 9.09C20.8593 9.09 20.6393 9.415 20.6393 9.79C20.6393 10.17 20.8593 10.495 21.2543 10.495ZM25.2704 11H24.6354V9.54C24.6354 9.205 24.4604 9.09 24.1904 9.09C23.9404 9.09 23.7454 9.23 23.6404 9.375V11H23.0054V8.585H23.6404V8.9C23.7954 8.715 24.0904 8.525 24.4854 8.525C25.0154 8.525 25.2704 8.825 25.2704 9.295V11Z" fill="#05080A"/>
<path d="M47.2757 11H46.8237L45.4317 9.096V11H44.9637V8.332H45.4437L46.8077 10.184V8.332H47.2757V11ZM48.7026 11.048C48.0906 11.048 47.7106 10.588 47.7106 10.032C47.7106 9.48 48.0906 9.02 48.7026 9.02C49.3226 9.02 49.6986 9.48 49.6986 10.032C49.6986 10.588 49.3226 11.048 48.7026 11.048ZM48.7026 10.676C49.0626 10.676 49.2626 10.376 49.2626 10.032C49.2626 9.692 49.0626 9.392 48.7026 9.392C48.3466 9.392 48.1466 9.692 48.1466 10.032C48.1466 10.376 48.3466 10.676 48.7026 10.676ZM50.32 11.044C50.168 11.044 50.04 10.916 50.04 10.764C50.04 10.612 50.168 10.484 50.32 10.484C50.472 10.484 50.6 10.612 50.6 10.764C50.6 10.916 50.472 11.044 50.32 11.044ZM53.0758 11H52.6078V8.94L52.1718 9.392L51.8998 9.108L52.6678 8.332H53.0758V11ZM55.2114 11H54.7434V10.396H53.4714V10.02L54.5674 8.332H55.2114V9.984H55.5674V10.396H55.2114V11ZM54.7434 9.984V8.752L53.9314 9.984H54.7434ZM57.5317 11H57.0637V10.396H55.7917V10.02L56.8877 8.332H57.5317V9.984H57.8877V10.396H57.5317V11ZM57.0637 9.984V8.752L56.2517 9.984H57.0637Z" fill="white"/>
<defs>
<clipPath id="clip0_26835_29307">
<rect width="63" height="88" fill="white"/>
</clipPath>
</defs>
</svg>
