<svg width="63" height="88" viewBox="0 0 63 88" fill="none" xmlns="http://www.w3.org/2000/svg">
<rect width="63" height="88" rx="4" fill="#55DFFF"/>
<path d="M36.7008 13.5133L44.7992 3.48665C45.5586 2.54645 46.7024 2 47.911 2H58C59.6569 2 61 3.34314 61 5V83C61 84.6569 59.6569 86 58 86H5C3.34315 86 2 84.6569 2 83V18C2 16.3431 3.34315 15 5 15H33.589C34.7976 15 35.9414 14.4536 36.7008 13.5133Z" fill="#213743"/>
<rect x="5" y="18" width="53" height="40" rx="1" fill="#2F4553"/>
<g clip-path="url(#clip0_26835_29309)">
<path d="M30.1799 55.34C38.2488 55.34 44.7899 53.97 44.7899 52.28C44.7899 50.59 38.2488 49.22 30.1799 49.22C22.1111 49.22 15.5699 50.59 15.5699 52.28C15.5699 53.97 22.1111 55.34 30.1799 55.34Z" fill="#1A2C38"/>
<path d="M47.7199 36.85C47.7199 37.29 47.6999 37.73 47.6699 38.16C47.6599 38.32 47.6399 38.4701 47.6299 38.6301C47.6299 38.6601 47.6299 38.68 47.6299 38.71C47.6299 38.74 47.6299 38.7801 47.6199 38.8101C47.5599 39.3101 47.4799 39.8 47.3799 40.28C46.7199 43.38 45.1699 46.1501 43.0199 48.3101C42.4099 48.9301 41.7399 49.5001 41.0299 50.0201C40.8799 50.1301 40.7299 50.23 40.5799 50.34C40.4999 50.4 40.4199 50.45 40.3299 50.5C39.8099 50.84 39.2699 51.15 38.7099 51.43C36.5199 52.52 34.0599 53.1301 31.4499 53.1301C28.8399 53.1301 26.5299 52.56 24.3999 51.53C23.9799 51.33 23.5799 51.1101 23.1799 50.8801C23.1299 50.8501 23.0799 50.8201 23.0299 50.7901C22.8799 50.7001 22.7299 50.6 22.5799 50.5C19.3899 48.43 16.9799 45.27 15.8599 41.55C15.7599 41.22 15.6699 40.9001 15.5999 40.5601C15.5799 40.4901 15.5699 40.41 15.5499 40.34C15.5299 40.25 15.5099 40.1701 15.4999 40.0801C15.2899 39.0301 15.1799 37.9501 15.1799 36.8301C15.1799 31.7201 17.5399 27.15 21.2299 24.17C21.6499 23.83 22.0899 23.51 22.5399 23.21L22.7299 23.09C22.8299 23.02 22.9399 22.96 23.0499 22.89C23.0799 22.87 23.1099 22.86 23.1399 22.84C25.5799 21.39 28.4299 20.55 31.4699 20.55C31.9999 20.55 32.5299 20.58 33.0499 20.63C33.5799 20.68 34.0999 20.7601 34.6099 20.8601C34.7499 20.8901 34.8999 20.9201 35.0399 20.9501C35.1999 20.9901 35.3599 21.02 35.5199 21.06C37.6699 21.61 39.6599 22.59 41.3699 23.9C41.4299 23.95 41.4899 23.9901 41.5499 24.0401C41.6199 24.0901 41.6799 24.1401 41.7499 24.2001C41.9999 24.4001 42.2399 24.61 42.4699 24.82C44.4399 26.62 45.9599 28.89 46.8599 31.47C46.8899 31.55 46.9099 31.6201 46.9399 31.7001C46.9599 31.7701 46.9899 31.84 47.0099 31.92C47.1099 32.23 47.1999 32.55 47.2799 32.87C47.5999 34.15 47.7699 35.48 47.7699 36.85H47.7199Z" fill="#55DFFF"/>
<path d="M38.03 48.92C37.04 51.69 31.83 52.37 26.4 50.42C20.97 48.47 17.37 44.65 18.37 41.87C19.37 39.09 23.84 40.48 29.27 42.43C34.7 44.38 39.04 46.14 38.04 48.92H38.03Z" fill="#557086"/>
<path d="M47.62 38.6299C47.57 39.2199 47.46 39.7999 47.35 40.2799C46.88 39.6599 46.32 39.0999 45.68 38.6299C44.79 37.9699 43.76 37.4999 42.68 37.2699C42.59 37.2499 42.5 37.2299 42.41 37.2199C42.48 37.9399 42.52 38.6599 42.54 39.3799C42.61 42.6399 42.18 46.1799 40.96 49.3399C40.83 49.6799 40.69 50.0099 40.54 50.3399C40.46 50.3999 40.38 50.4499 40.29 50.4999C39.77 50.8399 39.23 51.1499 38.67 51.4299C38.96 50.9299 39.23 50.4099 39.46 49.8799C39.92 48.8399 40.29 47.7599 40.57 46.6699C41.37 43.5599 41.59 40.2999 41.25 37.0999C40.17 37.0999 39.1 37.3499 38.14 37.9299C35.79 39.3499 34.49 42.0399 32.92 44.1899C31.58 46.0199 29.98 47.8099 28.15 49.2499C26.98 50.1799 25.71 50.9699 24.36 51.5299C23.94 51.3299 23.54 51.1099 23.14 50.8799C23.09 50.8499 23.04 50.8199 22.99 50.7899C23.78 50.5399 24.54 50.2099 25.28 49.8199C25.89 49.4899 26.47 49.1199 27.03 48.7099C27.41 48.4299 27.78 48.1299 28.14 47.8199C29.49 46.6399 30.62 45.2899 31.67 43.8799C31.67 43.8799 31.67 43.8799 31.67 43.8699C32.45 42.8299 33.18 41.7599 33.92 40.6899C35.48 38.4499 37.39 36.3599 40.25 35.9999C40.53 35.9599 40.81 35.9499 41.08 35.9399C41.07 35.8499 41.05 35.7499 41.04 35.6599C40.89 34.7199 40.7 33.7999 40.45 32.8799C32.97 33.3399 25.46 35.2999 19.11 39.2399C17.97 39.9499 16.87 40.7099 15.81 41.5499C15.71 41.2199 15.62 40.8999 15.55 40.5599C15.53 40.4899 15.52 40.4099 15.5 40.3399C16.56 39.5299 17.66 38.7699 18.8 38.0799C19.17 37.8599 19.54 37.6399 19.91 37.4299C26.08 33.9599 33.07 32.1999 40.14 31.7399C40.12 31.6599 40.09 31.5899 40.07 31.5099C39.88 30.9399 39.68 30.3699 39.46 29.8099C39.18 29.0999 38.86 28.3999 38.5 27.6999C37.58 27.8199 36.61 27.7299 35.67 27.5199C33.41 27.0099 31.27 26.0499 29.03 25.4299C26.7 24.7899 24.29 24.3199 21.88 24.1999C21.64 24.1899 21.41 24.1799 21.17 24.1799C21.59 23.8399 22.03 23.5199 22.48 23.2199L22.67 23.0999C22.72 23.0999 22.77 23.0999 22.82 23.1099C24.78 23.2799 26.71 23.6499 28.61 24.1399C30.76 24.6999 32.83 25.5099 34.95 26.1499C35.89 26.4299 36.91 26.6599 37.89 26.6199C37.85 26.5499 37.81 26.4799 37.76 26.3999C36.5 24.2499 34.88 22.2299 32.98 20.6299C33.51 20.6799 34.03 20.7599 34.54 20.8599C34.68 20.8899 34.83 20.9199 34.97 20.9499C35.48 21.4499 35.96 21.9799 36.41 22.5199C37.43 23.7299 38.32 25.0399 39.08 26.4099C39.17 26.3799 39.26 26.3499 39.35 26.3099C39.8 26.1199 40.22 25.8299 40.59 25.4199C40.96 25.0099 41.24 24.5399 41.48 24.0399C41.55 24.0899 41.61 24.1399 41.68 24.1999C41.93 24.3999 42.17 24.6099 42.4 24.8199C42.12 25.3299 41.79 25.8099 41.41 26.2399C40.96 26.7399 40.44 27.0999 39.88 27.3399C39.8 27.3799 39.71 27.4099 39.63 27.4399C40.28 28.7299 40.82 30.0799 41.25 31.4699C41.27 31.5399 41.3 31.6199 41.32 31.6899C41.4 31.6899 41.48 31.6899 41.55 31.6899C43.33 31.6199 45.1 31.6299 46.87 31.7099C46.89 31.7799 46.92 31.8499 46.94 31.9299C47.04 32.2399 47.13 32.5599 47.21 32.8799C45.64 32.7999 44.07 32.7799 42.5 32.8199C42.29 32.8199 42.08 32.8299 41.87 32.8399C41.79 32.8399 41.71 32.8399 41.64 32.8399C41.89 33.7999 42.08 34.7699 42.23 35.7499C42.24 35.8399 42.26 35.9399 42.27 36.0299C42.36 36.0399 42.44 36.0599 42.53 36.0699C44.2 36.3499 45.79 37.1499 47.04 38.2899C47.07 38.3199 47.11 38.3499 47.15 38.3699C47.3 38.4599 47.46 38.4799 47.59 38.6299H47.62Z" fill="#EDE9E8"/>
<path d="M44.8554 30.741C45.3803 30.3186 45.1098 29.1111 44.2512 28.044C43.3926 26.9769 42.271 26.4542 41.7461 26.8766C41.2211 27.299 41.4916 28.5064 42.3502 29.5736C43.2088 30.6407 44.3304 31.1634 44.8554 30.741Z" fill="#EDE9E8"/>
<path d="M33.13 43.91C32.77 43.76 32.39 43.61 32.01 43.46C31.91 43.6 31.81 43.74 31.71 43.88C31.71 43.88 31.71 43.88 31.71 43.89C30.66 45.3 29.52 46.65 28.18 47.83C27.82 48.14 27.45 48.44 27.07 48.72C26.51 49.13 25.93 49.5 25.32 49.83C25.26 49.86 25.2 49.88 25.14 49.92C25.55 50.1 25.98 50.27 26.42 50.43C26.45 50.43 26.47 50.45 26.5 50.46C27.08 50.1 27.65 49.7 28.19 49.27C30.02 47.82 31.62 46.03 32.96 44.21C33.03 44.12 33.09 44.02 33.16 43.93L33.13 43.91Z" fill="#8EA3B2"/>
</g>
<path fill-rule="evenodd" clip-rule="evenodd" d="M6.49771 79C6.98969 79 7.48602 79.213 7.49037 79.6913C7.49037 80.1043 7.24656 80.2696 6.99839 80.2696C6.75023 80.2696 6.73281 80.1435 6.73281 80.1435C6.73281 80.1435 7.02452 79.9261 7.02452 79.7174C7.02452 79.6087 6.94179 79.313 6.489 79.3174C5.8577 79.3174 5.5181 79.6174 5.5181 80.1522C5.5181 80.7652 7.35105 80.9739 7.3554 81.7652C7.3554 82.613 6.47594 82.9957 5.69225 83C5.283 83 5.01306 82.7609 5.00871 82.3783C5.00871 81.9261 5.22204 81.4652 5.75756 81.4652C5.88382 81.4565 5.98831 81.5522 5.99702 81.6783C5.99702 81.6783 5.99702 81.6826 5.99702 81.687C5.99702 81.687 5.45715 81.8391 5.4615 82.3783C5.4615 82.4783 5.56599 82.6609 5.81851 82.6565C6.07103 82.6522 6.82424 82.4739 6.81989 81.8087C6.81989 81.1913 5.00435 81.1087 5 80.1478C5 79.0652 6.08845 79.0087 6.49771 79.0087V79ZM10.747 79.6C10.8123 79.5696 11.2129 79.4913 11.1955 79.813C11.1824 80.1348 10.9386 80.6913 10.9037 80.9348C11.2303 80.7696 11.6918 80.2087 11.6918 80.2087C11.6918 80.2087 12.0183 80.2522 11.9182 80.4522C11.818 80.6522 11.1519 81.1435 11.1519 81.1435C11.1519 81.1435 11.3043 82.5696 12.1707 82.5696C12.6453 82.5696 12.8499 82.3609 12.937 82.287C12.9587 82.2696 12.9762 82.2652 12.9849 82.2783C13.0197 82.387 12.9936 82.5043 12.9152 82.5913C12.8194 82.6957 12.5974 82.8217 12.1533 82.8261C11.3653 82.8261 10.9255 82.1957 10.8123 81.2609C10.7252 81.5348 10.7339 81.9826 10.7209 82.2C10.6948 82.2435 10.2507 82.4174 10.2158 82.1174C10.2158 82.0913 10.2158 82.0696 10.2158 82.0435C10.1331 82.1609 10.0199 82.2826 9.91108 82.2826C9.71951 82.2826 9.63679 82.1217 9.60196 82.0391C9.57584 82.0696 9.3625 82.287 9.08821 82.287C8.92277 82.2913 8.77474 82.1957 8.70943 82.0435C8.57011 82.1435 8.32195 82.2913 8.03895 82.2913C7.73418 82.2913 7.66017 82.1087 7.66017 81.9565C7.66017 81.713 7.84303 80.987 7.84303 80.987C7.84303 80.987 7.48602 81.1304 7.36411 81.1348C7.19431 81.1348 7.11159 80.8217 7.11159 80.813C7.11159 80.8087 7.11159 80.8 7.1203 80.8C7.22044 80.7609 7.94317 80.513 7.94317 80.513C7.94317 80.513 8.07813 79.9826 8.09555 79.913C8.11296 79.8435 8.2131 79.7 8.33065 79.6565C8.41773 79.6217 8.50916 79.6 8.60059 79.5913C8.63107 79.5913 8.65284 79.6 8.65284 79.6174C8.65284 79.6348 8.47433 80.4087 8.47433 80.4087C8.47433 80.4087 8.84876 80.3217 8.98808 80.3217C9.09692 80.3217 9.15352 80.387 9.09257 80.4696C9.03162 80.5522 8.96196 80.6478 8.92712 80.6913C8.88794 80.7348 8.86182 80.7435 8.77039 80.7609C8.64413 80.787 8.36113 80.8565 8.36113 80.8565C8.36113 80.8565 8.13473 81.6783 8.13909 81.8174C8.13909 81.8957 8.16521 81.987 8.26099 81.987C8.35678 81.987 8.53964 81.8739 8.67025 81.7913C8.69202 81.1522 9.18835 80.7261 9.57584 80.7261C9.7021 80.7261 9.65421 80.8478 9.79788 80.8478H9.88931C9.94591 80.8478 10.0069 80.8522 10.0069 80.9957C10.0069 81.1957 9.89367 81.5261 9.89367 81.7348C9.89367 81.8826 9.91544 81.987 9.97204 81.987C10.0678 81.987 10.1767 81.8478 10.255 81.7261C10.3813 81.0304 10.734 79.7609 10.734 79.6174L10.747 79.6ZM12.5016 80.7C12.7672 80.6783 12.9326 80.8217 12.9631 80.9C12.9936 80.9783 12.9892 81.1609 12.9152 81.2913C12.6845 81.7044 12.1097 81.6304 12.1097 81.6304C12.1097 81.6304 12.0444 81.9565 12.3405 81.9565C12.593 81.9565 12.7062 81.8304 12.8151 81.7261C12.8586 81.7261 12.9936 81.8652 12.9326 81.9609C12.8847 82.0348 12.6191 82.2565 12.2795 82.2609C11.7397 82.2609 11.6047 81.8 11.6744 81.4696C11.7658 81.0609 12.1751 80.7217 12.5016 80.6957V80.7ZM9.6455 80.987C9.32332 80.987 8.82699 81.9696 9.20577 81.9652C9.61938 81.9652 9.6455 81.1826 9.6455 81.0043V80.987ZM12.6409 80.8913C12.4232 80.9 12.1751 81.3174 12.1533 81.5C12.4798 81.513 12.654 81.1957 12.6757 81.0696C12.6888 80.9739 12.6932 80.887 12.6409 80.887V80.8913Z" fill="#557086"/>
<path d="M50.851 79.0672L49.2521 80.8632C49.1826 80.9428 49.1826 81.0572 49.2521 81.1368L50.846 82.9328C50.9255 83.0224 51.0695 83.0224 51.1539 82.9328L52.7478 81.1368C52.8173 81.0572 52.8173 80.9428 52.7478 80.8632L51.1539 79.0672C51.0744 78.9776 50.9304 78.9776 50.846 79.0672H50.851Z" fill="white"/>
<path d="M51.6604 79.6343L52.142 80.1766L50.568 82.6144L49.704 81.6393L51.6604 79.6343Z" fill="#8EA3B2"/>
<path d="M55.851 79.0672L54.2521 80.8632C54.1826 80.9428 54.1826 81.0572 54.2521 81.1368L55.846 82.9328C55.9255 83.0224 56.0695 83.0224 56.1539 82.9328L57.7478 81.1368C57.8173 81.0572 57.8173 80.9428 57.7478 80.8632L56.1539 79.0672C56.0744 78.9776 55.9304 78.9776 55.846 79.0672H55.851Z" fill="white"/>
<path d="M56.6604 79.6343L57.142 80.1766L55.568 82.6144L54.704 81.6393L56.6604 79.6343Z" fill="#8EA3B2"/>
<rect x="13" y="62" width="37" height="13" rx="6.5" fill="#2F4553"/>
<path d="M25.0234 70.072C23.8534 70.072 23.3074 69.058 23.3074 68.002C23.3074 66.946 23.8534 65.938 25.0234 65.938C26.1934 65.938 26.7394 66.946 26.7394 68.002C26.7394 69.058 26.1934 70.072 25.0234 70.072ZM25.0234 69.16C25.5034 69.16 25.6954 68.71 25.6954 68.002C25.6954 67.294 25.5034 66.85 25.0234 66.85C24.5434 66.85 24.3514 67.294 24.3514 68.002C24.3514 68.71 24.5434 69.16 25.0234 69.16ZM27.6116 70.072C27.3056 70.072 27.0476 69.814 27.0476 69.508C27.0476 69.202 27.3056 68.944 27.6116 68.944C27.9176 68.944 28.1756 69.202 28.1756 69.508C28.1756 69.814 27.9176 70.072 27.6116 70.072ZM30.2089 70.072C29.0389 70.072 28.4929 69.058 28.4929 68.002C28.4929 66.946 29.0389 65.938 30.2089 65.938C31.3789 65.938 31.9249 66.946 31.9249 68.002C31.9249 69.058 31.3789 70.072 30.2089 70.072ZM30.2089 69.16C30.6889 69.16 30.8809 68.71 30.8809 68.002C30.8809 67.294 30.6889 66.85 30.2089 66.85C29.7289 66.85 29.5369 67.294 29.5369 68.002C29.5369 68.71 29.7289 69.16 30.2089 69.16ZM35.1651 70H34.1271V69.268H32.2131V68.464L33.7311 65.998H35.1651V68.362H35.6511V69.268H35.1651V70ZM34.1271 68.362V66.898L33.2151 68.362H34.1271ZM38.8863 70H37.8723L37.3143 69.124L36.7503 70H35.7423L36.7323 68.512L35.8023 67.102H36.8163L37.3143 67.888L37.8063 67.102H38.8203L37.8963 68.512L38.8863 70Z" fill="white"/>
<path d="M6.945 11.06C5.945 11.06 5.17 10.36 5.17 9.335C5.17 8.31 5.945 7.61 6.945 7.61C7.68 7.61 8.105 8.01 8.34 8.425L7.73 8.725C7.59 8.455 7.29 8.24 6.945 8.24C6.34 8.24 5.9 8.705 5.9 9.335C5.9 9.965 6.34 10.43 6.945 10.43C7.29 10.43 7.59 10.22 7.73 9.945L8.34 10.24C8.1 10.655 7.68 11.06 6.945 11.06ZM9.86762 11.06C9.07262 11.06 8.59262 10.48 8.59262 9.79C8.59262 9.105 9.07262 8.525 9.86762 8.525C10.6676 8.525 11.1476 9.105 11.1476 9.79C11.1476 10.48 10.6676 11.06 9.86762 11.06ZM9.86762 10.495C10.2626 10.495 10.4876 10.17 10.4876 9.79C10.4876 9.415 10.2626 9.09 9.86762 9.09C9.47262 9.09 9.25262 9.415 9.25262 9.79C9.25262 10.17 9.47262 10.495 9.86762 10.495ZM15.2537 11H14.6137V9.475C14.6137 9.25 14.5137 9.09 14.2537 9.09C14.0287 9.09 13.8437 9.24 13.7537 9.37V11H13.1137V9.475C13.1137 9.25 13.0137 9.09 12.7537 9.09C12.5337 9.09 12.3487 9.24 12.2537 9.375V11H11.6187V8.585H12.2537V8.9C12.3537 8.755 12.6737 8.525 13.0437 8.525C13.3987 8.525 13.6237 8.69 13.7137 8.965C13.8537 8.745 14.1737 8.525 14.5437 8.525C14.9887 8.525 15.2537 8.76 15.2537 9.255V11ZM19.5115 11H18.8715V9.475C18.8715 9.25 18.7715 9.09 18.5115 9.09C18.2865 9.09 18.1015 9.24 18.0115 9.37V11H17.3715V9.475C17.3715 9.25 17.2715 9.09 17.0115 9.09C16.7915 9.09 16.6065 9.24 16.5115 9.375V11H15.8765V8.585H16.5115V8.9C16.6115 8.755 16.9315 8.525 17.3015 8.525C17.6565 8.525 17.8815 8.69 17.9715 8.965C18.1115 8.745 18.4315 8.525 18.8015 8.525C19.2465 8.525 19.5115 8.76 19.5115 9.255V11ZM21.2543 11.06C20.4593 11.06 19.9793 10.48 19.9793 9.79C19.9793 9.105 20.4593 8.525 21.2543 8.525C22.0543 8.525 22.5343 9.105 22.5343 9.79C22.5343 10.48 22.0543 11.06 21.2543 11.06ZM21.2543 10.495C21.6493 10.495 21.8743 10.17 21.8743 9.79C21.8743 9.415 21.6493 9.09 21.2543 9.09C20.8593 9.09 20.6393 9.415 20.6393 9.79C20.6393 10.17 20.8593 10.495 21.2543 10.495ZM25.2704 11H24.6354V9.54C24.6354 9.205 24.4604 9.09 24.1904 9.09C23.9404 9.09 23.7454 9.23 23.6404 9.375V11H23.0054V8.585H23.6404V8.9C23.7954 8.715 24.0904 8.525 24.4854 8.525C25.0154 8.525 25.2704 8.825 25.2704 9.295V11Z" fill="#05080A"/>
<path d="M47.1937 11H46.7417L45.3497 9.096V11H44.8817V8.332H45.3617L46.7257 10.184V8.332H47.1937V11ZM48.6206 11.048C48.0086 11.048 47.6286 10.588 47.6286 10.032C47.6286 9.48 48.0086 9.02 48.6206 9.02C49.2406 9.02 49.6166 9.48 49.6166 10.032C49.6166 10.588 49.2406 11.048 48.6206 11.048ZM48.6206 10.676C48.9806 10.676 49.1806 10.376 49.1806 10.032C49.1806 9.692 48.9806 9.392 48.6206 9.392C48.2646 9.392 48.0646 9.692 48.0646 10.032C48.0646 10.376 48.2646 10.676 48.6206 10.676ZM50.238 11.044C50.086 11.044 49.958 10.916 49.958 10.764C49.958 10.612 50.086 10.484 50.238 10.484C50.39 10.484 50.518 10.612 50.518 10.764C50.518 10.916 50.39 11.044 50.238 11.044ZM52.9938 11H52.5258V8.94L52.0898 9.392L51.8178 9.108L52.5858 8.332H52.9938V11ZM55.1293 11H54.6613V10.396H53.3893V10.02L54.4853 8.332H55.1293V9.984H55.4853V10.396H55.1293V11ZM54.6613 9.984V8.752L53.8493 9.984H54.6613ZM56.8617 11.048C56.0777 11.048 55.7617 10.412 55.7617 9.672C55.7617 8.9 56.1657 8.292 56.9377 8.292C57.2697 8.292 57.5257 8.412 57.7057 8.588L57.4857 8.944C57.3457 8.796 57.1937 8.708 56.9377 8.708C56.4937 8.708 56.2337 9.12 56.2337 9.588C56.2337 9.616 56.2337 9.64 56.2377 9.664C56.3577 9.484 56.6377 9.292 56.9537 9.292C57.4337 9.292 57.8457 9.584 57.8457 10.152C57.8457 10.648 57.4577 11.048 56.8617 11.048ZM56.8377 10.632C57.1897 10.632 57.3737 10.384 57.3737 10.168C57.3737 9.84 57.1177 9.692 56.8257 9.692C56.5977 9.692 56.3777 9.816 56.2417 10.008C56.2697 10.296 56.4257 10.632 56.8377 10.632Z" fill="white"/>
<defs>
<clipPath id="clip0_26835_29309">
<rect width="63" height="88" fill="white"/>
</clipPath>
</defs>
</svg>
