<svg width="63" height="88" viewBox="0 0 63 88" fill="none" xmlns="http://www.w3.org/2000/svg">
<rect width="63" height="88" rx="4" fill="#55DFFF"/>
<path d="M36.7008 13.5133L44.7992 3.48665C45.5586 2.54645 46.7024 2 47.911 2H58C59.6569 2 61 3.34314 61 5V83C61 84.6569 59.6569 86 58 86H5C3.34315 86 2 84.6569 2 83V18C2 16.3431 3.34315 15 5 15H33.589C34.7976 15 35.9414 14.4536 36.7008 13.5133Z" fill="#213743"/>
<rect x="5" y="18" width="53" height="40" rx="1" fill="#2F4553"/>
<path d="M27.33 55.5699C33.5708 55.5699 38.63 53.7297 38.63 51.4599C38.63 49.19 33.5708 47.3499 27.33 47.3499C21.0892 47.3499 16.03 49.19 16.03 51.4599C16.03 53.7297 21.0892 55.5699 27.33 55.5699Z" fill="#1A2C38"/>
<path d="M21.1 37.2C21.08 36.91 21.39 36.78 21.39 36.78L21.44 37.45L21.35 38L21.1 37.2Z" fill="#557086"/>
<path d="M31.5 28.5999L20.86 29.9199C20.86 29.9199 22.27 48.4099 22.48 50.1699C22.69 51.9299 24.38 55.2799 31.5 55.2799C38.62 55.2799 40.31 51.9299 40.52 50.1699C40.73 48.4099 42.14 29.9199 42.14 29.9199L31.5 28.5999Z" fill="#55DFFF"/>
<path d="M19.8701 30.0999C19.8701 32.1999 25.0801 33.9099 31.5001 33.9099C37.9201 33.9099 43.1301 32.2099 43.1301 30.0999V25.9399H19.8801V30.0999H19.8701Z" fill="#8EA3B2"/>
<path d="M43.13 30.0999V25.9399C43.13 25.6699 43.02 25.4099 42.84 25.1599C40.65 25.8999 37.02 30.6499 39.53 32.8499C41.75 32.1599 43.13 31.1799 43.13 30.0999Z" fill="white"/>
<path d="M31.5001 29.4599C37.9231 29.4599 43.1301 27.8795 43.1301 25.9299C43.1301 23.9803 37.9231 22.3999 31.5001 22.3999C25.077 22.3999 19.8701 23.9803 19.8701 25.9299C19.8701 27.8795 25.077 29.4599 31.5001 29.4599Z" fill="#8EA3B2"/>
<path d="M29.6 22.95C29.18 22.95 28.78 22.9599 28.38 22.9799C25.49 23.2899 23.16 23.9599 21.98 24.8099C21.28 25.3099 21.43 26.42 22.21 26.77C23.75 27.47 26.48 27.94 29.6 27.94C34.43 27.94 38.34 26.82 38.34 25.45C38.34 24.08 34.43 22.9599 29.6 22.9599V22.95Z" fill="#1A2C38"/>
<path d="M24.36 25.21C24.36 26.31 27.55 27.21 31.5 27.21C35.45 27.21 38.64 26.32 38.64 25.21V23.03H24.37V25.21H24.36Z" fill="#557086"/>
<path d="M31.5 24.8799C35.4434 24.8799 38.64 24.0517 38.64 23.0299C38.64 22.0082 35.4434 21.1799 31.5 21.1799C27.5567 21.1799 24.36 22.0082 24.36 23.0299C24.36 24.0517 27.5567 24.8799 31.5 24.8799Z" fill="#557086"/>
<path d="M31.5 24.43C34.8248 24.43 37.52 23.7674 37.52 22.95C37.52 22.1326 34.8248 21.47 31.5 21.47C28.1753 21.47 25.48 22.1326 25.48 22.95C25.48 23.7674 28.1753 24.43 31.5 24.43Z" fill="#557086"/>
<path d="M28.1901 24.1799L35.53 23.0299C35.53 23.0299 28.49 21.5999 26.3 23.6899C26.3 23.6899 27.0801 24.0099 28.1901 24.1799Z" fill="#1A2C38"/>
<path d="M36.71 23.69C37.22 23.47 37.52 23.22 37.52 22.95C37.52 22.13 34.83 21.47 31.5 21.47C28.17 21.47 25.48 22.13 25.48 22.95C25.48 23.22 25.78 23.47 26.29 23.69C27.33 23.25 29.27 22.95 31.5 22.95C33.73 22.95 35.66 23.25 36.71 23.69Z" fill="#557086"/>
<path d="M31.5 21.47C28.18 21.47 25.48 22.13 25.48 22.95C25.48 23.22 25.78 23.47 26.29 23.69C27.33 23.25 29.27 22.95 31.5 22.95C31.5 22.95 31.51 22.95 31.52 22.95C32.72 22.98 33.94 21.58 32.96 21.52C32.63 21.5 32.01 21.47 31.5 21.47Z" fill="white"/>
<path d="M41.92 37.2C41.82 37.28 41.58 37.29 41.56 37.47C41.44 38.47 37.31 39.48 31.51 39.56C25.68 39.48 21.53 38.29 21.44 37.45C21.42 37.29 21.19 37.27 21.1 37.2L21.69 47.6399C21.71 47.9099 21.89 48.1 22.1 48.27C22.91 48.95 26.63 50.59 31.52 50.59C36.74 50.59 40.22 48.9 40.94 48.27C41.14 48.09 41.32 47.8999 41.35 47.6399L41.94 37.2H41.92Z" fill="white"/>
<path d="M41.9201 37.2C41.9401 36.91 41.6101 36.78 41.6101 36.78L41.5601 37.47L41.6801 38.01L41.9301 37.21L41.9201 37.2Z" fill="#557086"/>
<path d="M33.79 47.2099C32.88 45.5299 31.64 43.6799 30.03 42.0499C29.32 41.3299 28.38 40.8799 27.39 40.7799C25.61 40.5899 24.37 40.2899 23.54 39.9899C23.12 39.8299 22.68 40.1699 22.7 40.6199C22.7 40.6199 26.48 48.8199 29.98 48.8599C31.16 48.8699 32.22 48.7599 33.13 48.5899C33.76 48.4699 34.1 47.7799 33.79 47.2099Z" fill="#8EA3B2"/>
<path fill-rule="evenodd" clip-rule="evenodd" d="M6.49771 79C6.98969 79 7.48602 79.213 7.49037 79.6913C7.49037 80.1043 7.24656 80.2696 6.99839 80.2696C6.75023 80.2696 6.73281 80.1435 6.73281 80.1435C6.73281 80.1435 7.02452 79.9261 7.02452 79.7174C7.02452 79.6087 6.94179 79.313 6.489 79.3174C5.8577 79.3174 5.5181 79.6174 5.5181 80.1522C5.5181 80.7652 7.35105 80.9739 7.3554 81.7652C7.3554 82.613 6.47594 82.9957 5.69225 83C5.283 83 5.01306 82.7609 5.00871 82.3783C5.00871 81.9261 5.22204 81.4652 5.75756 81.4652C5.88382 81.4565 5.98831 81.5522 5.99702 81.6783C5.99702 81.6783 5.99702 81.6826 5.99702 81.687C5.99702 81.687 5.45715 81.8391 5.4615 82.3783C5.4615 82.4783 5.56599 82.6609 5.81851 82.6565C6.07103 82.6522 6.82424 82.4739 6.81989 81.8087C6.81989 81.1913 5.00435 81.1087 5 80.1478C5 79.0652 6.08845 79.0087 6.49771 79.0087V79ZM10.747 79.6C10.8123 79.5696 11.2129 79.4913 11.1955 79.813C11.1824 80.1348 10.9386 80.6913 10.9037 80.9348C11.2303 80.7696 11.6918 80.2087 11.6918 80.2087C11.6918 80.2087 12.0183 80.2522 11.9182 80.4522C11.818 80.6522 11.1519 81.1435 11.1519 81.1435C11.1519 81.1435 11.3043 82.5696 12.1707 82.5696C12.6453 82.5696 12.8499 82.3609 12.937 82.287C12.9587 82.2696 12.9762 82.2652 12.9849 82.2783C13.0197 82.387 12.9936 82.5043 12.9152 82.5913C12.8194 82.6957 12.5974 82.8217 12.1533 82.8261C11.3653 82.8261 10.9255 82.1957 10.8123 81.2609C10.7252 81.5348 10.7339 81.9826 10.7209 82.2C10.6948 82.2435 10.2507 82.4174 10.2158 82.1174C10.2158 82.0913 10.2158 82.0696 10.2158 82.0435C10.1331 82.1609 10.0199 82.2826 9.91108 82.2826C9.71951 82.2826 9.63679 82.1217 9.60196 82.0391C9.57584 82.0696 9.3625 82.287 9.08821 82.287C8.92277 82.2913 8.77474 82.1957 8.70943 82.0435C8.57011 82.1435 8.32195 82.2913 8.03895 82.2913C7.73418 82.2913 7.66017 82.1087 7.66017 81.9565C7.66017 81.713 7.84303 80.987 7.84303 80.987C7.84303 80.987 7.48602 81.1304 7.36411 81.1348C7.19431 81.1348 7.11159 80.8217 7.11159 80.813C7.11159 80.8087 7.11159 80.8 7.1203 80.8C7.22044 80.7609 7.94317 80.513 7.94317 80.513C7.94317 80.513 8.07813 79.9826 8.09555 79.913C8.11296 79.8435 8.2131 79.7 8.33065 79.6565C8.41773 79.6217 8.50916 79.6 8.60059 79.5913C8.63107 79.5913 8.65284 79.6 8.65284 79.6174C8.65284 79.6348 8.47433 80.4087 8.47433 80.4087C8.47433 80.4087 8.84876 80.3217 8.98808 80.3217C9.09692 80.3217 9.15352 80.387 9.09257 80.4696C9.03162 80.5522 8.96196 80.6478 8.92712 80.6913C8.88794 80.7348 8.86182 80.7435 8.77039 80.7609C8.64413 80.787 8.36113 80.8565 8.36113 80.8565C8.36113 80.8565 8.13473 81.6783 8.13909 81.8174C8.13909 81.8957 8.16521 81.987 8.26099 81.987C8.35678 81.987 8.53964 81.8739 8.67025 81.7913C8.69202 81.1522 9.18835 80.7261 9.57584 80.7261C9.7021 80.7261 9.65421 80.8478 9.79788 80.8478H9.88931C9.94591 80.8478 10.0069 80.8522 10.0069 80.9957C10.0069 81.1957 9.89367 81.5261 9.89367 81.7348C9.89367 81.8826 9.91544 81.987 9.97204 81.987C10.0678 81.987 10.1767 81.8478 10.255 81.7261C10.3813 81.0304 10.734 79.7609 10.734 79.6174L10.747 79.6ZM12.5016 80.7C12.7672 80.6783 12.9326 80.8217 12.9631 80.9C12.9936 80.9783 12.9892 81.1609 12.9152 81.2913C12.6845 81.7044 12.1097 81.6304 12.1097 81.6304C12.1097 81.6304 12.0444 81.9565 12.3405 81.9565C12.593 81.9565 12.7062 81.8304 12.8151 81.7261C12.8586 81.7261 12.9936 81.8652 12.9326 81.9609C12.8847 82.0348 12.6191 82.2565 12.2795 82.2609C11.7397 82.2609 11.6047 81.8 11.6744 81.4696C11.7658 81.0609 12.1751 80.7217 12.5016 80.6957V80.7ZM9.6455 80.987C9.32332 80.987 8.82699 81.9696 9.20577 81.9652C9.61938 81.9652 9.6455 81.1826 9.6455 81.0043V80.987ZM12.6409 80.8913C12.4232 80.9 12.1751 81.3174 12.1533 81.5C12.4798 81.513 12.654 81.1957 12.6757 81.0696C12.6888 80.9739 12.6932 80.887 12.6409 80.887V80.8913Z" fill="#557086"/>
<path d="M50.851 79.0672L49.2522 80.8632C49.1826 80.9428 49.1826 81.0572 49.2522 81.1368L50.8461 82.9328C50.9255 83.0224 51.0695 83.0224 51.1539 82.9328L52.7479 81.1368C52.8174 81.0572 52.8174 80.9428 52.7479 80.8632L51.1539 79.0672C51.0745 78.9776 50.9305 78.9776 50.8461 79.0672H50.851Z" fill="white"/>
<path d="M51.6604 79.6343L52.1421 80.1766L50.568 82.6144L49.704 81.6393L51.6604 79.6343Z" fill="#8EA3B2"/>
<path d="M55.851 79.0672L54.2522 80.8632C54.1826 80.9428 54.1826 81.0572 54.2522 81.1368L55.8461 82.9328C55.9255 83.0224 56.0695 83.0224 56.1539 82.9328L57.7479 81.1368C57.8174 81.0572 57.8174 80.9428 57.7479 80.8632L56.1539 79.0672C56.0745 78.9776 55.9305 78.9776 55.8461 79.0672H55.851Z" fill="white"/>
<path d="M56.6604 79.6343L57.1421 80.1766L55.568 82.6144L54.704 81.6393L56.6604 79.6343Z" fill="#8EA3B2"/>
<rect x="13" y="62" width="37" height="13" rx="6.5" fill="#2F4553"/>
<path d="M25.0234 70.072C23.8534 70.072 23.3074 69.058 23.3074 68.002C23.3074 66.946 23.8534 65.938 25.0234 65.938C26.1934 65.938 26.7394 66.946 26.7394 68.002C26.7394 69.058 26.1934 70.072 25.0234 70.072ZM25.0234 69.16C25.5034 69.16 25.6954 68.71 25.6954 68.002C25.6954 67.294 25.5034 66.85 25.0234 66.85C24.5434 66.85 24.3514 67.294 24.3514 68.002C24.3514 68.71 24.5434 69.16 25.0234 69.16ZM27.6116 70.072C27.3056 70.072 27.0476 69.814 27.0476 69.508C27.0476 69.202 27.3056 68.944 27.6116 68.944C27.9176 68.944 28.1756 69.202 28.1756 69.508C28.1756 69.814 27.9176 70.072 27.6116 70.072ZM30.2089 70.072C29.0389 70.072 28.4929 69.058 28.4929 68.002C28.4929 66.946 29.0389 65.938 30.2089 65.938C31.3789 65.938 31.9249 66.946 31.9249 68.002C31.9249 69.058 31.3789 70.072 30.2089 70.072ZM30.2089 69.16C30.6889 69.16 30.8809 68.71 30.8809 68.002C30.8809 67.294 30.6889 66.85 30.2089 66.85C29.7289 66.85 29.5369 67.294 29.5369 68.002C29.5369 68.71 29.7289 69.16 30.2089 69.16ZM35.1651 70H34.1271V69.268H32.2131V68.464L33.7311 65.998H35.1651V68.362H35.6511V69.268H35.1651V70ZM34.1271 68.362V66.898L33.2151 68.362H34.1271ZM38.8863 70H37.8723L37.3143 69.124L36.7503 70H35.7423L36.7323 68.512L35.8023 67.102H36.8163L37.3143 67.888L37.8063 67.102H38.8203L37.8963 68.512L38.8863 70Z" fill="white"/>
<path d="M6.945 11.06C5.945 11.06 5.17 10.36 5.17 9.335C5.17 8.31 5.945 7.61 6.945 7.61C7.68 7.61 8.105 8.01 8.34 8.425L7.73 8.725C7.59 8.455 7.29 8.24 6.945 8.24C6.34 8.24 5.9 8.705 5.9 9.335C5.9 9.965 6.34 10.43 6.945 10.43C7.29 10.43 7.59 10.22 7.73 9.945L8.34 10.24C8.1 10.655 7.68 11.06 6.945 11.06ZM9.86762 11.06C9.07262 11.06 8.59262 10.48 8.59262 9.79C8.59262 9.105 9.07262 8.525 9.86762 8.525C10.6676 8.525 11.1476 9.105 11.1476 9.79C11.1476 10.48 10.6676 11.06 9.86762 11.06ZM9.86762 10.495C10.2626 10.495 10.4876 10.17 10.4876 9.79C10.4876 9.415 10.2626 9.09 9.86762 9.09C9.47262 9.09 9.25262 9.415 9.25262 9.79C9.25262 10.17 9.47262 10.495 9.86762 10.495ZM15.2537 11H14.6137V9.475C14.6137 9.25 14.5137 9.09 14.2537 9.09C14.0287 9.09 13.8437 9.24 13.7537 9.37V11H13.1137V9.475C13.1137 9.25 13.0137 9.09 12.7537 9.09C12.5337 9.09 12.3487 9.24 12.2537 9.375V11H11.6187V8.585H12.2537V8.9C12.3537 8.755 12.6737 8.525 13.0437 8.525C13.3987 8.525 13.6237 8.69 13.7137 8.965C13.8537 8.745 14.1737 8.525 14.5437 8.525C14.9887 8.525 15.2537 8.76 15.2537 9.255V11ZM19.5115 11H18.8715V9.475C18.8715 9.25 18.7715 9.09 18.5115 9.09C18.2865 9.09 18.1015 9.24 18.0115 9.37V11H17.3715V9.475C17.3715 9.25 17.2715 9.09 17.0115 9.09C16.7915 9.09 16.6065 9.24 16.5115 9.375V11H15.8765V8.585H16.5115V8.9C16.6115 8.755 16.9315 8.525 17.3015 8.525C17.6565 8.525 17.8815 8.69 17.9715 8.965C18.1115 8.745 18.4315 8.525 18.8015 8.525C19.2465 8.525 19.5115 8.76 19.5115 9.255V11ZM21.2543 11.06C20.4593 11.06 19.9793 10.48 19.9793 9.79C19.9793 9.105 20.4593 8.525 21.2543 8.525C22.0543 8.525 22.5343 9.105 22.5343 9.79C22.5343 10.48 22.0543 11.06 21.2543 11.06ZM21.2543 10.495C21.6493 10.495 21.8743 10.17 21.8743 9.79C21.8743 9.415 21.6493 9.09 21.2543 9.09C20.8593 9.09 20.6393 9.415 20.6393 9.79C20.6393 10.17 20.8593 10.495 21.2543 10.495ZM25.2704 11H24.6354V9.54C24.6354 9.205 24.4604 9.09 24.1904 9.09C23.9404 9.09 23.7454 9.23 23.6404 9.375V11H23.0054V8.585H23.6404V8.9C23.7954 8.715 24.0904 8.525 24.4854 8.525C25.0154 8.525 25.2704 8.825 25.2704 9.295V11Z" fill="#05080A"/>
<path d="M47.1937 11H46.7417L45.3497 9.096V11H44.8817V8.332H45.3617L46.7257 10.184V8.332H47.1937V11ZM48.6206 11.048C48.0086 11.048 47.6286 10.588 47.6286 10.032C47.6286 9.48 48.0086 9.02 48.6206 9.02C49.2406 9.02 49.6166 9.48 49.6166 10.032C49.6166 10.588 49.2406 11.048 48.6206 11.048ZM48.6206 10.676C48.9806 10.676 49.1806 10.376 49.1806 10.032C49.1806 9.692 48.9806 9.392 48.6206 9.392C48.2646 9.392 48.0646 9.692 48.0646 10.032C48.0646 10.376 48.2646 10.676 48.6206 10.676ZM50.238 11.044C50.086 11.044 49.958 10.916 49.958 10.764C49.958 10.612 50.086 10.484 50.238 10.484C50.39 10.484 50.518 10.612 50.518 10.764C50.518 10.916 50.39 11.044 50.238 11.044ZM52.9938 11H52.5258V8.94L52.0898 9.392L51.8178 9.108L52.5858 8.332H52.9938V11ZM55.1293 11H54.6613V10.396H53.3893V10.02L54.4853 8.332H55.1293V9.984H55.4853V10.396H55.1293V11ZM54.6613 9.984V8.752L53.8493 9.984H54.6613ZM56.6577 11.044C56.3297 11.044 56.0737 10.928 55.8937 10.748L56.1097 10.396C56.2497 10.54 56.4057 10.628 56.6577 10.628C57.1417 10.628 57.3617 10.188 57.3617 9.752C57.3617 9.724 57.3617 9.7 57.3617 9.672C57.2377 9.852 56.9577 10.048 56.6457 10.048C56.1657 10.048 55.7497 9.752 55.7497 9.184C55.7497 8.692 56.1377 8.288 56.7337 8.288C57.5177 8.288 57.8337 8.924 57.8337 9.668C57.8337 10.436 57.4297 11.044 56.6577 11.044ZM56.7697 9.644C56.9977 9.644 57.2217 9.524 57.3537 9.332C57.3297 9.044 57.1697 8.704 56.7577 8.704C56.4097 8.704 56.2257 8.956 56.2257 9.168C56.2257 9.496 56.4817 9.644 56.7697 9.644Z" fill="white"/>
</svg>
