<svg width="63" height="88" viewBox="0 0 63 88" fill="none" xmlns="http://www.w3.org/2000/svg">
<rect width="63" height="88" rx="4" fill="#55DFFF"/>
<path d="M36.7008 13.5133L44.7992 3.48665C45.5586 2.54645 46.7024 2 47.911 2H58C59.6569 2 61 3.34314 61 5V83C61 84.6569 59.6569 86 58 86H5C3.34315 86 2 84.6569 2 83V18C2 16.3431 3.34315 15 5 15H33.589C34.7976 15 35.9414 14.4536 36.7008 13.5133Z" fill="#213743"/>
<rect x="5" y="18" width="53" height="40" rx="1" fill="#2F4553"/>
<g clip-path="url(#clip0_26835_29318)">
<path d="M17.3151 44.9601C17.3151 44.9601 16.5551 47.8801 20.4551 47.8801C24.3551 47.8801 25.6651 52.0101 28.3351 51.6701L30.3551 47.5601L19.7551 44.0901L17.3251 44.9601H17.3151Z" fill="#1A2C38"/>
<path d="M37.5702 53.523C40.9623 50.7878 42.3661 46.9011 40.7056 44.8417C39.0451 42.7823 34.949 43.3302 31.5569 46.0653C28.1647 48.8005 26.7609 52.6873 28.4215 54.7467C30.082 56.806 34.178 56.2582 37.5702 53.523Z" fill="#1A2C38"/>
<path d="M40.6564 51.0171C44.0486 48.282 45.4523 44.3952 43.7918 42.3358C42.1313 40.2764 38.0353 40.8243 34.6431 43.5595C31.2509 46.2947 29.8472 50.1814 31.5077 52.2408C33.1682 54.3002 37.2642 53.7523 40.6564 51.0171Z" fill="#557086"/>
<path d="M42.109 48.4165C43.4038 46.8142 43.9798 45.1326 43.3956 44.6605C42.8113 44.1884 41.2882 45.1046 39.9934 46.7069C38.6987 48.3092 38.1227 49.9908 38.7069 50.4629C39.2911 50.935 40.8143 50.0188 42.109 48.4165Z" fill="#8EA3B2"/>
<path d="M30.875 50.8299C30.875 50.8299 34.5251 50.6799 37.2251 47.6599L30.895 49.0799C30.895 49.0799 30.705 50.0299 30.875 50.8299Z" fill="#1A2C38"/>
<path d="M17.2651 31.05C17.2651 31.05 14.7751 31.32 14.7751 33.48C14.7751 35.64 18.5151 37.1201 20.0251 40.4901L24.0851 40.18L17.2651 31.05Z" fill="#1A2C38"/>
<path d="M39.015 32.27C38.055 31.31 36.955 30.6 35.775 30.11C34.975 28.69 33.405 25.66 32.175 21.92C32.065 21.59 31.895 21.27 31.625 21C30.735 20.11 29.305 20.11 28.415 21C27.845 21.57 27.645 22.38 27.815 23.11C27.815 23.11 28.355 26.9 29.395 29.26C27.605 27.24 25.915 25.16 24.385 23.02C24.325 22.95 24.275 22.87 24.205 22.8C23.295 21.89 21.805 21.89 20.895 22.8C20.125 23.57 20.015 24.74 20.535 25.64C20.535 25.64 21.385 27.94 23.195 31.47C22.125 30.69 20.795 29.63 19.385 28.31C18.405 27.33 16.825 27.33 15.845 28.31C14.865 29.29 14.865 30.87 15.845 31.85C15.845 31.85 19.805 35.55 22.185 38.8C22.185 38.94 22.165 39.07 22.165 39.21C19.485 39.36 17.345 39.79 17.345 39.79C16.715 39.87 16.115 40.13 15.635 40.61C14.515 41.73 14.515 43.54 15.635 44.66C16.315 45.34 17.245 45.6 18.125 45.45C22.575 44.98 25.145 46.44 25.995 47.05C26.035 47.08 26.075 47.11 26.125 47.14C26.245 47.23 26.315 47.3 26.315 47.3V47.28C30.175 50.05 35.575 49.7 39.035 46.24C42.895 42.38 42.895 36.12 39.035 32.26L39.015 32.27Z" fill="#55DFFF"/>
<path d="M35.305 31.0601C35.035 28.8301 35.065 26.6701 35.425 24.5801L39.565 24.8101C39.565 24.8101 39.285 30.0901 40.865 34.8401C39.375 32.7201 37.595 31.2901 35.295 31.0501L35.305 31.0601Z" fill="#557086"/>
<path d="M37.4851 26.92C38.6338 26.92 39.5651 25.9888 39.5651 24.84C39.5651 23.6913 38.6338 22.76 37.4851 22.76C36.3363 22.76 35.4051 23.6913 35.4051 24.84C35.4051 25.9888 36.3363 26.92 37.4851 26.92Z" fill="#55DFFF"/>
<path d="M39.615 37.0201C39.475 40.9501 37.005 42.2501 37.005 42.2501C34.825 38.3701 31.625 38.7001 31.625 38.7001C34.125 40.5001 33.975 44.4201 31.095 45.3201C29.315 45.8701 27.2651 44.9301 26.3951 44.2001C25.075 43.1001 20.615 43.0001 18.825 43.8401C17.905 44.2701 17.975 44.9301 18.265 45.4701C22.445 45.0601 24.945 46.3801 25.865 47.0101C25.995 47.1201 26.135 47.2201 26.275 47.3201L26.285 47.3301C30.145 50.0901 35.595 49.7301 39.055 46.2701C42.135 43.1901 42.705 38.5701 40.865 34.8701C40.535 33.8801 40.285 32.8601 40.095 31.8701C39.735 33.0101 39.6951 34.5601 39.6051 37.0501L39.615 37.0201Z" fill="#557086"/>
<path d="M29.9951 41.9399C32.2318 41.9399 34.0451 41.1519 34.0451 40.1799C34.0451 39.2079 32.2318 38.4199 29.9951 38.4199C27.7583 38.4199 25.9451 39.2079 25.9451 40.1799C25.9451 41.1519 27.7583 41.9399 29.9951 41.9399Z" fill="white"/>
</g>
<path fill-rule="evenodd" clip-rule="evenodd" d="M6.49771 79C6.98969 79 7.48602 79.213 7.49037 79.6913C7.49037 80.1043 7.24656 80.2696 6.99839 80.2696C6.75023 80.2696 6.73281 80.1435 6.73281 80.1435C6.73281 80.1435 7.02452 79.9261 7.02452 79.7174C7.02452 79.6087 6.94179 79.313 6.489 79.3174C5.8577 79.3174 5.5181 79.6174 5.5181 80.1522C5.5181 80.7652 7.35105 80.9739 7.3554 81.7652C7.3554 82.613 6.47594 82.9957 5.69225 83C5.283 83 5.01306 82.7609 5.00871 82.3783C5.00871 81.9261 5.22204 81.4652 5.75756 81.4652C5.88382 81.4565 5.98831 81.5522 5.99702 81.6783C5.99702 81.6783 5.99702 81.6826 5.99702 81.687C5.99702 81.687 5.45715 81.8391 5.4615 82.3783C5.4615 82.4783 5.56599 82.6609 5.81851 82.6565C6.07103 82.6522 6.82424 82.4739 6.81989 81.8087C6.81989 81.1913 5.00435 81.1087 5 80.1478C5 79.0652 6.08845 79.0087 6.49771 79.0087V79ZM10.747 79.6C10.8123 79.5696 11.2129 79.4913 11.1955 79.813C11.1824 80.1348 10.9386 80.6913 10.9037 80.9348C11.2303 80.7696 11.6918 80.2087 11.6918 80.2087C11.6918 80.2087 12.0183 80.2522 11.9182 80.4522C11.818 80.6522 11.1519 81.1435 11.1519 81.1435C11.1519 81.1435 11.3043 82.5696 12.1707 82.5696C12.6453 82.5696 12.8499 82.3609 12.937 82.287C12.9587 82.2696 12.9762 82.2652 12.9849 82.2783C13.0197 82.387 12.9936 82.5043 12.9152 82.5913C12.8194 82.6957 12.5974 82.8217 12.1533 82.8261C11.3653 82.8261 10.9255 82.1957 10.8123 81.2609C10.7252 81.5348 10.7339 81.9826 10.7209 82.2C10.6948 82.2435 10.2507 82.4174 10.2158 82.1174C10.2158 82.0913 10.2158 82.0696 10.2158 82.0435C10.1331 82.1609 10.0199 82.2826 9.91108 82.2826C9.71951 82.2826 9.63679 82.1217 9.60196 82.0391C9.57584 82.0696 9.3625 82.287 9.08821 82.287C8.92277 82.2913 8.77474 82.1957 8.70943 82.0435C8.57011 82.1435 8.32195 82.2913 8.03895 82.2913C7.73418 82.2913 7.66017 82.1087 7.66017 81.9565C7.66017 81.713 7.84303 80.987 7.84303 80.987C7.84303 80.987 7.48602 81.1304 7.36411 81.1348C7.19431 81.1348 7.11159 80.8217 7.11159 80.813C7.11159 80.8087 7.11159 80.8 7.1203 80.8C7.22044 80.7609 7.94317 80.513 7.94317 80.513C7.94317 80.513 8.07813 79.9826 8.09555 79.913C8.11296 79.8435 8.2131 79.7 8.33065 79.6565C8.41773 79.6217 8.50916 79.6 8.60059 79.5913C8.63107 79.5913 8.65284 79.6 8.65284 79.6174C8.65284 79.6348 8.47433 80.4087 8.47433 80.4087C8.47433 80.4087 8.84876 80.3217 8.98808 80.3217C9.09692 80.3217 9.15352 80.387 9.09257 80.4696C9.03162 80.5522 8.96196 80.6478 8.92712 80.6913C8.88794 80.7348 8.86182 80.7435 8.77039 80.7609C8.64413 80.787 8.36113 80.8565 8.36113 80.8565C8.36113 80.8565 8.13473 81.6783 8.13909 81.8174C8.13909 81.8957 8.16521 81.987 8.26099 81.987C8.35678 81.987 8.53964 81.8739 8.67025 81.7913C8.69202 81.1522 9.18835 80.7261 9.57584 80.7261C9.7021 80.7261 9.65421 80.8478 9.79788 80.8478H9.88931C9.94591 80.8478 10.0069 80.8522 10.0069 80.9957C10.0069 81.1957 9.89367 81.5261 9.89367 81.7348C9.89367 81.8826 9.91544 81.987 9.97204 81.987C10.0678 81.987 10.1767 81.8478 10.255 81.7261C10.3813 81.0304 10.734 79.7609 10.734 79.6174L10.747 79.6ZM12.5016 80.7C12.7672 80.6783 12.9326 80.8217 12.9631 80.9C12.9936 80.9783 12.9892 81.1609 12.9152 81.2913C12.6845 81.7044 12.1097 81.6304 12.1097 81.6304C12.1097 81.6304 12.0444 81.9565 12.3405 81.9565C12.593 81.9565 12.7062 81.8304 12.8151 81.7261C12.8586 81.7261 12.9936 81.8652 12.9326 81.9609C12.8847 82.0348 12.6191 82.2565 12.2795 82.2609C11.7397 82.2609 11.6047 81.8 11.6744 81.4696C11.7658 81.0609 12.1751 80.7217 12.5016 80.6957V80.7ZM9.6455 80.987C9.32332 80.987 8.82699 81.9696 9.20577 81.9652C9.61938 81.9652 9.6455 81.1826 9.6455 81.0043V80.987ZM12.6409 80.8913C12.4232 80.9 12.1751 81.3174 12.1533 81.5C12.4798 81.513 12.654 81.1957 12.6757 81.0696C12.6888 80.9739 12.6932 80.887 12.6409 80.887V80.8913Z" fill="#557086"/>
<path d="M50.851 79.0672L49.2521 80.8632C49.1826 80.9428 49.1826 81.0572 49.2521 81.1368L50.8461 82.9328C50.9255 83.0224 51.0695 83.0224 51.1539 82.9328L52.7479 81.1368C52.8174 81.0572 52.8174 80.9428 52.7479 80.8632L51.1539 79.0672C51.0745 78.9776 50.9305 78.9776 50.8461 79.0672H50.851Z" fill="white"/>
<path d="M51.6604 79.6343L52.1421 80.1766L50.568 82.6144L49.704 81.6393L51.6604 79.6343Z" fill="#8EA3B2"/>
<path d="M55.851 79.0672L54.2521 80.8632C54.1826 80.9428 54.1826 81.0572 54.2521 81.1368L55.8461 82.9328C55.9255 83.0224 56.0695 83.0224 56.1539 82.9328L57.7479 81.1368C57.8174 81.0572 57.8174 80.9428 57.7479 80.8632L56.1539 79.0672C56.0745 78.9776 55.9305 78.9776 55.8461 79.0672H55.851Z" fill="white"/>
<path d="M56.6604 79.6343L57.1421 80.1766L55.568 82.6144L54.704 81.6393L56.6604 79.6343Z" fill="#8EA3B2"/>
<rect x="13" y="62" width="37" height="13" rx="6.5" fill="#2F4553"/>
<path d="M25.0234 70.072C23.8534 70.072 23.3074 69.058 23.3074 68.002C23.3074 66.946 23.8534 65.938 25.0234 65.938C26.1934 65.938 26.7394 66.946 26.7394 68.002C26.7394 69.058 26.1934 70.072 25.0234 70.072ZM25.0234 69.16C25.5034 69.16 25.6954 68.71 25.6954 68.002C25.6954 67.294 25.5034 66.85 25.0234 66.85C24.5434 66.85 24.3514 67.294 24.3514 68.002C24.3514 68.71 24.5434 69.16 25.0234 69.16ZM27.6116 70.072C27.3056 70.072 27.0476 69.814 27.0476 69.508C27.0476 69.202 27.3056 68.944 27.6116 68.944C27.9176 68.944 28.1756 69.202 28.1756 69.508C28.1756 69.814 27.9176 70.072 27.6116 70.072ZM30.2089 70.072C29.0389 70.072 28.4929 69.058 28.4929 68.002C28.4929 66.946 29.0389 65.938 30.2089 65.938C31.3789 65.938 31.9249 66.946 31.9249 68.002C31.9249 69.058 31.3789 70.072 30.2089 70.072ZM30.2089 69.16C30.6889 69.16 30.8809 68.71 30.8809 68.002C30.8809 67.294 30.6889 66.85 30.2089 66.85C29.7289 66.85 29.5369 67.294 29.5369 68.002C29.5369 68.71 29.7289 69.16 30.2089 69.16ZM35.1651 70H34.1271V69.268H32.2131V68.464L33.7311 65.998H35.1651V68.362H35.6511V69.268H35.1651V70ZM34.1271 68.362V66.898L33.2151 68.362H34.1271ZM38.8863 70H37.8723L37.3143 69.124L36.7503 70H35.7423L36.7323 68.512L35.8023 67.102H36.8163L37.3143 67.888L37.8063 67.102H38.8203L37.8963 68.512L38.8863 70Z" fill="white"/>
<path d="M6.945 11.06C5.945 11.06 5.17 10.36 5.17 9.335C5.17 8.31 5.945 7.61 6.945 7.61C7.68 7.61 8.105 8.01 8.34 8.425L7.73 8.725C7.59 8.455 7.29 8.24 6.945 8.24C6.34 8.24 5.9 8.705 5.9 9.335C5.9 9.965 6.34 10.43 6.945 10.43C7.29 10.43 7.59 10.22 7.73 9.945L8.34 10.24C8.1 10.655 7.68 11.06 6.945 11.06ZM9.86762 11.06C9.07262 11.06 8.59262 10.48 8.59262 9.79C8.59262 9.105 9.07262 8.525 9.86762 8.525C10.6676 8.525 11.1476 9.105 11.1476 9.79C11.1476 10.48 10.6676 11.06 9.86762 11.06ZM9.86762 10.495C10.2626 10.495 10.4876 10.17 10.4876 9.79C10.4876 9.415 10.2626 9.09 9.86762 9.09C9.47262 9.09 9.25262 9.415 9.25262 9.79C9.25262 10.17 9.47262 10.495 9.86762 10.495ZM15.2537 11H14.6137V9.475C14.6137 9.25 14.5137 9.09 14.2537 9.09C14.0287 9.09 13.8437 9.24 13.7537 9.37V11H13.1137V9.475C13.1137 9.25 13.0137 9.09 12.7537 9.09C12.5337 9.09 12.3487 9.24 12.2537 9.375V11H11.6187V8.585H12.2537V8.9C12.3537 8.755 12.6737 8.525 13.0437 8.525C13.3987 8.525 13.6237 8.69 13.7137 8.965C13.8537 8.745 14.1737 8.525 14.5437 8.525C14.9887 8.525 15.2537 8.76 15.2537 9.255V11ZM19.5115 11H18.8715V9.475C18.8715 9.25 18.7715 9.09 18.5115 9.09C18.2865 9.09 18.1015 9.24 18.0115 9.37V11H17.3715V9.475C17.3715 9.25 17.2715 9.09 17.0115 9.09C16.7915 9.09 16.6065 9.24 16.5115 9.375V11H15.8765V8.585H16.5115V8.9C16.6115 8.755 16.9315 8.525 17.3015 8.525C17.6565 8.525 17.8815 8.69 17.9715 8.965C18.1115 8.745 18.4315 8.525 18.8015 8.525C19.2465 8.525 19.5115 8.76 19.5115 9.255V11ZM21.2543 11.06C20.4593 11.06 19.9793 10.48 19.9793 9.79C19.9793 9.105 20.4593 8.525 21.2543 8.525C22.0543 8.525 22.5343 9.105 22.5343 9.79C22.5343 10.48 22.0543 11.06 21.2543 11.06ZM21.2543 10.495C21.6493 10.495 21.8743 10.17 21.8743 9.79C21.8743 9.415 21.6493 9.09 21.2543 9.09C20.8593 9.09 20.6393 9.415 20.6393 9.79C20.6393 10.17 20.8593 10.495 21.2543 10.495ZM25.2704 11H24.6354V9.54C24.6354 9.205 24.4604 9.09 24.1904 9.09C23.9404 9.09 23.7454 9.23 23.6404 9.375V11H23.0054V8.585H23.6404V8.9C23.7954 8.715 24.0904 8.525 24.4854 8.525C25.0154 8.525 25.2704 8.825 25.2704 9.295V11Z" fill="#05080A"/>
<path d="M47.1194 11H46.6674L45.2754 9.096V11H44.8074V8.332H45.2874L46.6514 10.184V8.332H47.1194V11ZM48.5463 11.048C47.9343 11.048 47.5543 10.588 47.5543 10.032C47.5543 9.48 47.9343 9.02 48.5463 9.02C49.1663 9.02 49.5423 9.48 49.5423 10.032C49.5423 10.588 49.1663 11.048 48.5463 11.048ZM48.5463 10.676C48.9063 10.676 49.1063 10.376 49.1063 10.032C49.1063 9.692 48.9063 9.392 48.5463 9.392C48.1903 9.392 47.9903 9.692 47.9903 10.032C47.9903 10.376 48.1903 10.676 48.5463 10.676ZM50.1638 11.044C50.0118 11.044 49.8838 10.916 49.8838 10.764C49.8838 10.612 50.0118 10.484 50.1638 10.484C50.3158 10.484 50.4438 10.612 50.4438 10.764C50.4438 10.916 50.3158 11.044 50.1638 11.044ZM52.9196 11H52.4516V8.94L52.0156 9.392L51.7436 9.108L52.5116 8.332H52.9196V11ZM54.4191 11.048C53.9591 11.048 53.6431 10.892 53.4271 10.636L53.6951 10.316C53.8751 10.52 54.1151 10.632 54.4151 10.632C54.7511 10.632 54.9631 10.424 54.9631 10.164C54.9631 9.876 54.7551 9.688 54.4271 9.688C54.1991 9.688 54.0111 9.76 53.8431 9.92L53.5111 9.824V8.332H55.2591V8.744H53.9791V9.516C54.1071 9.388 54.3271 9.284 54.5831 9.284C55.0311 9.284 55.4351 9.6 55.4351 10.144C55.4351 10.7 55.0151 11.048 54.4191 11.048ZM56.8176 11.048C56.3576 11.048 56.0416 10.892 55.8256 10.636L56.0936 10.316C56.2736 10.52 56.5136 10.632 56.8136 10.632C57.1496 10.632 57.3616 10.424 57.3616 10.164C57.3616 9.876 57.1536 9.688 56.8256 9.688C56.5976 9.688 56.4096 9.76 56.2416 9.92L55.9096 9.824V8.332H57.6576V8.744H56.3776V9.516C56.5056 9.388 56.7256 9.284 56.9816 9.284C57.4296 9.284 57.8336 9.6 57.8336 10.144C57.8336 10.7 57.4136 11.048 56.8176 11.048Z" fill="white"/>
<defs>
<clipPath id="clip0_26835_29318">
<rect width="63" height="88" fill="white"/>
</clipPath>
</defs>
</svg>
