<svg width="63" height="88" viewBox="0 0 63 88" fill="none" xmlns="http://www.w3.org/2000/svg">
<rect width="63" height="88" rx="4" fill="#55DFFF"/>
<path d="M36.7008 13.5133L44.7992 3.48665C45.5586 2.54645 46.7024 2 47.911 2H58C59.6569 2 61 3.34314 61 5V83C61 84.6569 59.6569 86 58 86H5C3.34315 86 2 84.6569 2 83V18C2 16.3431 3.34315 15 5 15H33.589C34.7976 15 35.9414 14.4536 36.7008 13.5133Z" fill="#213743"/>
<rect x="5" y="18" width="53" height="40" rx="1" fill="#2F4553"/>
<g clip-path="url(#clip0_26835_29319)">
<path d="M17.645 37.22C17.645 37.22 12.075 42.49 22.245 49.05L25.975 46.9L17.645 37.21V37.22Z" fill="#1A2C38"/>
<path d="M20.535 27.22C20.535 27.22 15.185 29.59 18.375 35.77L22.265 34.54L20.535 27.22Z" fill="#1A2C38"/>
<path d="M30.1441 54.8539C35.0094 53.7583 38.4146 50.4766 37.7497 47.5241C37.0849 44.5715 32.6018 43.066 27.7365 44.1616C22.8712 45.2571 19.466 48.5388 20.1309 51.4914C20.7957 54.444 25.2788 55.9494 30.1441 54.8539Z" fill="#1A2C38"/>
<path d="M33.1144 54.1879C37.9797 53.0923 41.3848 49.8106 40.72 46.858C40.0551 43.9054 35.5721 42.4 30.7067 43.4956C25.8414 44.5911 22.4363 47.8728 23.1011 50.8254C23.766 53.778 28.2491 55.2834 33.1144 54.1879Z" fill="#557086"/>
<path d="M23.165 49.05C23.165 49.05 26.995 50.74 31.295 49L24.075 47.26C24.075 47.26 23.395 48.14 23.165 49.05Z" fill="#1A2C38"/>
<path d="M30.185 49.0599C36.4369 49.0599 41.505 43.9918 41.505 37.7399C41.505 31.4881 36.4369 26.4199 30.185 26.4199C23.9332 26.4199 18.865 31.4881 18.865 37.7399C18.865 43.9918 23.9332 49.0599 30.185 49.0599Z" fill="#55DFFF"/>
<path d="M33.145 31.5899C33.345 30.2899 33.525 28.7399 33.525 27.3499C33.525 26.1299 32.845 25.0099 31.765 24.4399C29.505 23.2599 26.815 24.9999 26.975 27.5399C27.045 28.6399 27.085 29.8499 27.095 31.1399C27.095 32.6999 28.285 34.0099 29.845 34.1599C31.455 34.3199 32.905 33.1899 33.145 31.5899Z" fill="#557086"/>
<path d="M29.135 33.2201C28.795 31.9501 28.335 30.4601 27.785 29.1901C27.295 28.0701 26.225 27.3201 25.005 27.2301C22.455 27.0501 20.695 29.7201 21.865 31.9901C22.365 32.9701 22.895 34.0601 23.415 35.2401C24.045 36.6701 25.655 37.3901 27.145 36.9001C28.685 36.4001 29.555 34.7801 29.135 33.2201Z" fill="#557086"/>
<path d="M27.245 29.6799C26.905 28.4099 26.445 26.9199 25.895 25.6499C25.405 24.5299 24.335 23.7799 23.115 23.6899C20.565 23.5099 19.315 25.9899 19.975 28.4499C20.255 29.4799 20.515 30.7999 20.815 32.1599C21.155 33.6799 23.765 33.8499 25.245 33.3599C26.785 32.8599 27.655 31.2399 27.235 29.6799H27.245Z" fill="#55DFFF"/>
<path d="M32.505 28.8999C32.705 27.5999 32.885 26.0499 32.885 24.6599C32.885 23.4399 32.205 22.3199 31.125 21.7499C28.865 20.5699 26.175 22.31 26.335 24.85C26.405 25.95 26.445 27.16 26.455 28.45C26.455 30.01 27.645 31.3199 29.205 31.4699C30.815 31.6299 32.265 30.4999 32.505 28.8999Z" fill="#55DFFF"/>
<path d="M22.495 42.54C22.495 42.54 30.985 42.65 29.555 35.77L20.885 39.52L22.495 42.55V42.54Z" fill="#557086"/>
<path d="M39.475 31.28C38.655 31.59 37.945 32.22 37.585 33.15C37.185 34.18 36.725 35.3 36.185 36.46C35.535 37.88 36.065 39.56 37.415 40.35C38.745 41.13 40.415 40.78 41.345 39.59C41.645 37.8 41.515 35.92 40.895 34.08C40.545 33.06 40.065 32.12 39.475 31.27V31.28Z" fill="#557086"/>
<path d="M37.775 33.9501C38.225 32.7201 38.705 31.2301 38.985 29.8701C39.235 28.6701 38.785 27.4401 37.835 26.6701C35.855 25.0601 32.875 26.2401 32.525 28.7601C32.375 29.8501 32.185 31.0501 31.925 32.3101C31.615 33.8401 32.525 35.3601 34.025 35.8101C35.575 36.2801 37.215 35.4601 37.765 33.9401L37.775 33.9501Z" fill="#557086"/>
<path d="M39.115 39.28C37.975 41.4 36.525 42.42 35.425 42.9C34.695 43.22 33.845 42.85 33.545 42.11C33.485 41.96 33.425 41.83 33.345 41.7C32.935 40.97 31.885 40.98 31.465 41.7C30.485 43.37 28.945 43.93 26.165 43.49C24.055 43.16 22.435 41.15 21.905 39.96L17.285 39.04C17.365 39.22 19.525 41.92 20.215 43.09C20.215 43.1 20.215 43.11 20.215 43.11C22.785 47.89 28.515 50.41 33.825 48.6C38.555 46.99 41.515 42.41 41.495 37.68C41.655 36.49 41.915 35.32 42.225 34.21C41.285 35.2 40.455 36.77 39.105 39.28H39.115Z" fill="#557086"/>
<path d="M37.685 31.1901C38.135 29.9601 38.615 28.4701 38.895 27.1101C39.145 25.9101 38.695 24.6801 37.745 23.9101C35.765 22.3001 32.785 23.4801 32.435 26.0001C32.285 27.0901 32.095 28.2901 31.835 29.5501C31.525 31.0801 32.435 32.6001 33.935 33.0501C35.485 33.5201 37.125 32.7001 37.675 31.1801L37.685 31.1901Z" fill="#55DFFF"/>
<path d="M27.445 33.05C25.605 32.75 22.975 32.41 20.695 32.43C19.125 32.44 17.685 33.33 16.975 34.73C15.495 37.64 17.765 41.06 21.015 40.81C22.085 40.73 23.235 40.66 24.445 40.63C27.135 40.55 29.325 38.45 29.555 35.77C29.665 34.45 28.745 33.26 27.435 33.05H27.445Z" fill="#55DFFF"/>
<path d="M41.535 35.75C42.215 34.63 42.965 33.26 43.495 31.98C43.965 30.85 43.755 29.56 42.975 28.62C41.335 26.66 38.185 27.25 37.365 29.67C37.015 30.71 36.595 31.85 36.105 33.04C35.515 34.49 36.115 36.14 37.495 36.87C38.925 37.63 40.695 37.13 41.525 35.74L41.535 35.75Z" fill="#55DFFF"/>
<path d="M27.965 35.6901C27.905 36.5801 26.385 37.8101 24.755 37.6901C23.125 37.5701 21.995 36.1701 22.055 35.2801C22.115 34.3901 23.485 33.7701 25.115 33.8801C26.745 33.9901 28.015 34.8001 27.955 35.6901H27.965Z" fill="white"/>
<path d="M37.8573 26.5818C38.2703 25.9281 37.9126 24.9606 37.0582 24.4207C36.2038 23.8807 35.1763 23.9729 34.7633 24.6266C34.3502 25.2802 34.708 26.2477 35.5624 26.7877C36.4168 27.3276 37.4442 27.2354 37.8573 26.5818Z" fill="white"/>
<path d="M42.572 31.153C42.9851 30.4994 42.6273 29.5319 41.7729 28.9919C40.9185 28.452 39.8911 28.5442 39.478 29.1978C39.065 29.8515 39.4227 30.819 40.2771 31.3589C41.1315 31.8989 42.159 31.8067 42.572 31.153Z" fill="white"/>
<path d="M36.6684 51.4838C38.4524 50.4537 39.5942 49.0914 39.2187 48.441C38.8431 47.7905 37.0924 48.0982 35.3084 49.1282C33.5244 50.1582 32.3826 51.5205 32.7581 52.171C33.1337 52.8214 34.8844 52.5138 36.6684 51.4838Z" fill="#8EA3B2"/>
</g>
<path fill-rule="evenodd" clip-rule="evenodd" d="M6.49771 79C6.98969 79 7.48602 79.213 7.49037 79.6913C7.49037 80.1043 7.24656 80.2696 6.99839 80.2696C6.75023 80.2696 6.73281 80.1435 6.73281 80.1435C6.73281 80.1435 7.02452 79.9261 7.02452 79.7174C7.02452 79.6087 6.94179 79.313 6.489 79.3174C5.8577 79.3174 5.5181 79.6174 5.5181 80.1522C5.5181 80.7652 7.35105 80.9739 7.3554 81.7652C7.3554 82.613 6.47594 82.9957 5.69225 83C5.283 83 5.01306 82.7609 5.00871 82.3783C5.00871 81.9261 5.22204 81.4652 5.75756 81.4652C5.88382 81.4565 5.98831 81.5522 5.99702 81.6783C5.99702 81.6783 5.99702 81.6826 5.99702 81.687C5.99702 81.687 5.45715 81.8391 5.4615 82.3783C5.4615 82.4783 5.56599 82.6609 5.81851 82.6565C6.07103 82.6522 6.82424 82.4739 6.81989 81.8087C6.81989 81.1913 5.00435 81.1087 5 80.1478C5 79.0652 6.08845 79.0087 6.49771 79.0087V79ZM10.747 79.6C10.8123 79.5696 11.2129 79.4913 11.1955 79.813C11.1824 80.1348 10.9386 80.6913 10.9037 80.9348C11.2303 80.7696 11.6918 80.2087 11.6918 80.2087C11.6918 80.2087 12.0183 80.2522 11.9182 80.4522C11.818 80.6522 11.1519 81.1435 11.1519 81.1435C11.1519 81.1435 11.3043 82.5696 12.1707 82.5696C12.6453 82.5696 12.8499 82.3609 12.937 82.287C12.9587 82.2696 12.9762 82.2652 12.9849 82.2783C13.0197 82.387 12.9936 82.5043 12.9152 82.5913C12.8194 82.6957 12.5974 82.8217 12.1533 82.8261C11.3653 82.8261 10.9255 82.1957 10.8123 81.2609C10.7252 81.5348 10.7339 81.9826 10.7209 82.2C10.6948 82.2435 10.2507 82.4174 10.2158 82.1174C10.2158 82.0913 10.2158 82.0696 10.2158 82.0435C10.1331 82.1609 10.0199 82.2826 9.91108 82.2826C9.71951 82.2826 9.63679 82.1217 9.60196 82.0391C9.57584 82.0696 9.3625 82.287 9.08821 82.287C8.92277 82.2913 8.77474 82.1957 8.70943 82.0435C8.57011 82.1435 8.32195 82.2913 8.03895 82.2913C7.73418 82.2913 7.66017 82.1087 7.66017 81.9565C7.66017 81.713 7.84303 80.987 7.84303 80.987C7.84303 80.987 7.48602 81.1304 7.36411 81.1348C7.19431 81.1348 7.11159 80.8217 7.11159 80.813C7.11159 80.8087 7.11159 80.8 7.1203 80.8C7.22044 80.7609 7.94317 80.513 7.94317 80.513C7.94317 80.513 8.07813 79.9826 8.09555 79.913C8.11296 79.8435 8.2131 79.7 8.33065 79.6565C8.41773 79.6217 8.50916 79.6 8.60059 79.5913C8.63107 79.5913 8.65284 79.6 8.65284 79.6174C8.65284 79.6348 8.47433 80.4087 8.47433 80.4087C8.47433 80.4087 8.84876 80.3217 8.98808 80.3217C9.09692 80.3217 9.15352 80.387 9.09257 80.4696C9.03162 80.5522 8.96196 80.6478 8.92712 80.6913C8.88794 80.7348 8.86182 80.7435 8.77039 80.7609C8.64413 80.787 8.36113 80.8565 8.36113 80.8565C8.36113 80.8565 8.13473 81.6783 8.13909 81.8174C8.13909 81.8957 8.16521 81.987 8.26099 81.987C8.35678 81.987 8.53964 81.8739 8.67025 81.7913C8.69202 81.1522 9.18835 80.7261 9.57584 80.7261C9.7021 80.7261 9.65421 80.8478 9.79788 80.8478H9.88931C9.94591 80.8478 10.0069 80.8522 10.0069 80.9957C10.0069 81.1957 9.89367 81.5261 9.89367 81.7348C9.89367 81.8826 9.91544 81.987 9.97204 81.987C10.0678 81.987 10.1767 81.8478 10.255 81.7261C10.3813 81.0304 10.734 79.7609 10.734 79.6174L10.747 79.6ZM12.5016 80.7C12.7672 80.6783 12.9326 80.8217 12.9631 80.9C12.9936 80.9783 12.9892 81.1609 12.9152 81.2913C12.6845 81.7044 12.1097 81.6304 12.1097 81.6304C12.1097 81.6304 12.0444 81.9565 12.3405 81.9565C12.593 81.9565 12.7062 81.8304 12.8151 81.7261C12.8586 81.7261 12.9936 81.8652 12.9326 81.9609C12.8847 82.0348 12.6191 82.2565 12.2795 82.2609C11.7397 82.2609 11.6047 81.8 11.6744 81.4696C11.7658 81.0609 12.1751 80.7217 12.5016 80.6957V80.7ZM9.6455 80.987C9.32332 80.987 8.82699 81.9696 9.20577 81.9652C9.61938 81.9652 9.6455 81.1826 9.6455 81.0043V80.987ZM12.6409 80.8913C12.4232 80.9 12.1751 81.3174 12.1533 81.5C12.4798 81.513 12.654 81.1957 12.6757 81.0696C12.6888 80.9739 12.6932 80.887 12.6409 80.887V80.8913Z" fill="#557086"/>
<path d="M50.851 79.0672L49.2521 80.8632C49.1826 80.9428 49.1826 81.0572 49.2521 81.1368L50.8461 82.9328C50.9255 83.0224 51.0695 83.0224 51.1539 82.9328L52.7479 81.1368C52.8174 81.0572 52.8174 80.9428 52.7479 80.8632L51.1539 79.0672C51.0745 78.9776 50.9305 78.9776 50.8461 79.0672H50.851Z" fill="white"/>
<path d="M51.6604 79.6343L52.1421 80.1766L50.568 82.6144L49.704 81.6393L51.6604 79.6343Z" fill="#8EA3B2"/>
<path d="M55.851 79.0672L54.2521 80.8632C54.1826 80.9428 54.1826 81.0572 54.2521 81.1368L55.8461 82.9328C55.9255 83.0224 56.0695 83.0224 56.1539 82.9328L57.7479 81.1368C57.8174 81.0572 57.8174 80.9428 57.7479 80.8632L56.1539 79.0672C56.0745 78.9776 55.9305 78.9776 55.8461 79.0672H55.851Z" fill="white"/>
<path d="M56.6604 79.6343L57.1421 80.1766L55.568 82.6144L54.704 81.6393L56.6604 79.6343Z" fill="#8EA3B2"/>
<rect x="13" y="62" width="37" height="13" rx="6.5" fill="#2F4553"/>
<path d="M25.0234 70.072C23.8534 70.072 23.3074 69.058 23.3074 68.002C23.3074 66.946 23.8534 65.938 25.0234 65.938C26.1934 65.938 26.7394 66.946 26.7394 68.002C26.7394 69.058 26.1934 70.072 25.0234 70.072ZM25.0234 69.16C25.5034 69.16 25.6954 68.71 25.6954 68.002C25.6954 67.294 25.5034 66.85 25.0234 66.85C24.5434 66.85 24.3514 67.294 24.3514 68.002C24.3514 68.71 24.5434 69.16 25.0234 69.16ZM27.6116 70.072C27.3056 70.072 27.0476 69.814 27.0476 69.508C27.0476 69.202 27.3056 68.944 27.6116 68.944C27.9176 68.944 28.1756 69.202 28.1756 69.508C28.1756 69.814 27.9176 70.072 27.6116 70.072ZM30.2089 70.072C29.0389 70.072 28.4929 69.058 28.4929 68.002C28.4929 66.946 29.0389 65.938 30.2089 65.938C31.3789 65.938 31.9249 66.946 31.9249 68.002C31.9249 69.058 31.3789 70.072 30.2089 70.072ZM30.2089 69.16C30.6889 69.16 30.8809 68.71 30.8809 68.002C30.8809 67.294 30.6889 66.85 30.2089 66.85C29.7289 66.85 29.5369 67.294 29.5369 68.002C29.5369 68.71 29.7289 69.16 30.2089 69.16ZM35.1651 70H34.1271V69.268H32.2131V68.464L33.7311 65.998H35.1651V68.362H35.6511V69.268H35.1651V70ZM34.1271 68.362V66.898L33.2151 68.362H34.1271ZM38.8863 70H37.8723L37.3143 69.124L36.7503 70H35.7423L36.7323 68.512L35.8023 67.102H36.8163L37.3143 67.888L37.8063 67.102H38.8203L37.8963 68.512L38.8863 70Z" fill="white"/>
<path d="M6.945 11.06C5.945 11.06 5.17 10.36 5.17 9.335C5.17 8.31 5.945 7.61 6.945 7.61C7.68 7.61 8.105 8.01 8.34 8.425L7.73 8.725C7.59 8.455 7.29 8.24 6.945 8.24C6.34 8.24 5.9 8.705 5.9 9.335C5.9 9.965 6.34 10.43 6.945 10.43C7.29 10.43 7.59 10.22 7.73 9.945L8.34 10.24C8.1 10.655 7.68 11.06 6.945 11.06ZM9.86762 11.06C9.07262 11.06 8.59262 10.48 8.59262 9.79C8.59262 9.105 9.07262 8.525 9.86762 8.525C10.6676 8.525 11.1476 9.105 11.1476 9.79C11.1476 10.48 10.6676 11.06 9.86762 11.06ZM9.86762 10.495C10.2626 10.495 10.4876 10.17 10.4876 9.79C10.4876 9.415 10.2626 9.09 9.86762 9.09C9.47262 9.09 9.25262 9.415 9.25262 9.79C9.25262 10.17 9.47262 10.495 9.86762 10.495ZM15.2537 11H14.6137V9.475C14.6137 9.25 14.5137 9.09 14.2537 9.09C14.0287 9.09 13.8437 9.24 13.7537 9.37V11H13.1137V9.475C13.1137 9.25 13.0137 9.09 12.7537 9.09C12.5337 9.09 12.3487 9.24 12.2537 9.375V11H11.6187V8.585H12.2537V8.9C12.3537 8.755 12.6737 8.525 13.0437 8.525C13.3987 8.525 13.6237 8.69 13.7137 8.965C13.8537 8.745 14.1737 8.525 14.5437 8.525C14.9887 8.525 15.2537 8.76 15.2537 9.255V11ZM19.5115 11H18.8715V9.475C18.8715 9.25 18.7715 9.09 18.5115 9.09C18.2865 9.09 18.1015 9.24 18.0115 9.37V11H17.3715V9.475C17.3715 9.25 17.2715 9.09 17.0115 9.09C16.7915 9.09 16.6065 9.24 16.5115 9.375V11H15.8765V8.585H16.5115V8.9C16.6115 8.755 16.9315 8.525 17.3015 8.525C17.6565 8.525 17.8815 8.69 17.9715 8.965C18.1115 8.745 18.4315 8.525 18.8015 8.525C19.2465 8.525 19.5115 8.76 19.5115 9.255V11ZM21.2543 11.06C20.4593 11.06 19.9793 10.48 19.9793 9.79C19.9793 9.105 20.4593 8.525 21.2543 8.525C22.0543 8.525 22.5343 9.105 22.5343 9.79C22.5343 10.48 22.0543 11.06 21.2543 11.06ZM21.2543 10.495C21.6493 10.495 21.8743 10.17 21.8743 9.79C21.8743 9.415 21.6493 9.09 21.2543 9.09C20.8593 9.09 20.6393 9.415 20.6393 9.79C20.6393 10.17 20.8593 10.495 21.2543 10.495ZM25.2704 11H24.6354V9.54C24.6354 9.205 24.4604 9.09 24.1904 9.09C23.9404 9.09 23.7454 9.23 23.6404 9.375V11H23.0054V8.585H23.6404V8.9C23.7954 8.715 24.0904 8.525 24.4854 8.525C25.0154 8.525 25.2704 8.825 25.2704 9.295V11Z" fill="#05080A"/>
<path d="M47.1155 11H46.6635L45.2715 9.096V11H44.8035V8.332H45.2835L46.6475 10.184V8.332H47.1155V11ZM48.5424 11.048C47.9304 11.048 47.5504 10.588 47.5504 10.032C47.5504 9.48 47.9304 9.02 48.5424 9.02C49.1624 9.02 49.5384 9.48 49.5384 10.032C49.5384 10.588 49.1624 11.048 48.5424 11.048ZM48.5424 10.676C48.9024 10.676 49.1024 10.376 49.1024 10.032C49.1024 9.692 48.9024 9.392 48.5424 9.392C48.1864 9.392 47.9864 9.692 47.9864 10.032C47.9864 10.376 48.1864 10.676 48.5424 10.676ZM50.1599 11.044C50.0079 11.044 49.8799 10.916 49.8799 10.764C49.8799 10.612 50.0079 10.484 50.1599 10.484C50.3119 10.484 50.4399 10.612 50.4399 10.764C50.4399 10.916 50.3119 11.044 50.1599 11.044ZM52.9157 11H52.4477V8.94L52.0117 9.392L51.7397 9.108L52.5077 8.332H52.9157V11ZM54.4152 11.048C53.9552 11.048 53.6392 10.892 53.4232 10.636L53.6912 10.316C53.8712 10.52 54.1112 10.632 54.4112 10.632C54.7472 10.632 54.9592 10.424 54.9592 10.164C54.9592 9.876 54.7512 9.688 54.4232 9.688C54.1952 9.688 54.0072 9.76 53.8392 9.92L53.5072 9.824V8.332H55.2552V8.744H53.9752V9.516C54.1032 9.388 54.3232 9.284 54.5792 9.284C55.0272 9.284 55.4312 9.6 55.4312 10.144C55.4312 10.7 55.0112 11.048 54.4152 11.048ZM56.8617 11.048C56.0777 11.048 55.7617 10.412 55.7617 9.672C55.7617 8.9 56.1657 8.292 56.9377 8.292C57.2697 8.292 57.5257 8.412 57.7057 8.588L57.4857 8.944C57.3457 8.796 57.1937 8.708 56.9377 8.708C56.4937 8.708 56.2337 9.12 56.2337 9.588C56.2337 9.616 56.2337 9.64 56.2377 9.664C56.3577 9.484 56.6377 9.292 56.9537 9.292C57.4337 9.292 57.8457 9.584 57.8457 10.152C57.8457 10.648 57.4577 11.048 56.8617 11.048ZM56.8377 10.632C57.1897 10.632 57.3737 10.384 57.3737 10.168C57.3737 9.84 57.1177 9.692 56.8257 9.692C56.5977 9.692 56.3777 9.816 56.2417 10.008C56.2697 10.296 56.4257 10.632 56.8377 10.632Z" fill="white"/>
<defs>
<clipPath id="clip0_26835_29319">
<rect width="63" height="88" fill="white"/>
</clipPath>
</defs>
</svg>
