<svg width="63" height="88" viewBox="0 0 63 88" fill="none" xmlns="http://www.w3.org/2000/svg">
<rect width="63" height="88" rx="4" fill="#55DFFF"/>
<path d="M36.7008 13.5133L44.7992 3.48665C45.5586 2.54645 46.7024 2 47.911 2H58C59.6569 2 61 3.34314 61 5V83C61 84.6569 59.6569 86 58 86H5C3.34315 86 2 84.6569 2 83V18C2 16.3431 3.34315 15 5 15H33.589C34.7976 15 35.9414 14.4536 36.7008 13.5133Z" fill="#213743"/>
<rect x="5" y="18" width="53" height="40" rx="1" fill="#2F4553"/>
<path d="M28.76 56.76C39.3142 56.76 47.87 54.6781 47.87 52.11C47.87 49.5418 39.3142 47.46 28.76 47.46C18.2058 47.46 9.65 49.5418 9.65 52.11C9.65 54.6781 18.2058 56.76 28.76 56.76Z" fill="#1A2C38"/>
<path d="M18.8 53.1501C21.4565 53.1501 23.61 52.4069 23.61 51.4901C23.61 50.5733 21.4565 49.8301 18.8 49.8301C16.1435 49.8301 13.99 50.5733 13.99 51.4901C13.99 52.4069 16.1435 53.1501 18.8 53.1501Z" fill="#55DFFF"/>
<path d="M12.42 39.81C12.56 37.21 13.79 35.78 14.81 34.46C15.35 33.75 15.83 33.06 16.05 32.24C16.17 31.82 16.21 31.36 16.15 30.84C15.93 28.78 15.62 26.8 15.79 25.43C15.79 25.4 15.79 25.38 15.79 25.35C15.87 23.75 17.17 22.48 18.78 22.48C20.39 22.48 21.66 23.72 21.77 25.29C21.77 25.34 21.79 25.37 21.79 25.43C21.85 26.11 21.81 27 21.72 27.97C21.69 28.4 21.64 28.85 21.59 29.3C21.54 29.82 21.48 30.33 21.43 30.84C21.37 31.36 21.41 31.81 21.53 32.23C21.74 33.04 22.22 33.72 22.76 34.43C23.78 35.77 25.02 37.21 25.15 39.82V40.12C25.15 40.27 25.15 40.43 25.15 40.59C25.06 45.44 24.11 50.09 23.59 51.5L13.98 51.62C13.46 50.21 12.5 45.44 12.41 40.59C12.41 40.44 12.41 39.82 12.41 39.82L12.42 39.81Z" fill="#55DFFF"/>
<path d="M18.79 28.19C17.17 28.19 16.37 28.1 15.83 27.97C15.86 28.41 16.05 29.97 16.1 30.42C16.52 30.7 17.89 30.75 18.79 30.75C19.69 30.75 21.07 30.65 21.49 30.37C21.54 29.92 21.69 28.67 21.73 27.97C21.19 28.1 20.4 28.19 18.79 28.19Z" fill="white"/>
<path d="M22.77 34.43C22.34 35.07 20.06 35.33 18.78 35.33C17.5 35.33 15.27 35.08 14.8 34.46C15.34 33.75 15.81 33.06 16.04 32.24C16.48 32.43 17.35 32.58 18.77 32.58C20.19 32.58 21.1 32.43 21.54 32.23C21.77 33.03 22.23 33.72 22.77 34.43Z" fill="white"/>
<path d="M44.23 53.1501C46.8865 53.1501 49.04 52.4069 49.04 51.4901C49.04 50.5733 46.8865 49.8301 44.23 49.8301C41.5735 49.8301 39.42 50.5733 39.42 51.4901C39.42 52.4069 41.5735 53.1501 44.23 53.1501Z" fill="#55DFFF"/>
<path d="M50.58 39.81V40.11C50.58 40.26 50.58 40.42 50.58 40.58C50.49 45.43 49.54 50.24 49.03 51.66L39.4 51.5C38.88 50.09 37.94 45.44 37.84 40.59C37.84 40.44 37.84 40.28 37.84 40.12V39.82H37.86C38 37.23 39.21 35.79 40.23 34.47C40.77 33.76 41.25 33.07 41.47 32.25C41.59 31.83 41.63 31.37 41.57 30.85C41.35 28.79 41.04 26.81 41.21 25.44C41.21 25.41 41.21 25.39 41.21 25.36C41.29 23.76 42.59 22.49 44.2 22.49C45.81 22.49 47.08 23.73 47.19 25.3C47.19 25.35 47.21 25.38 47.21 25.44C47.27 26.12 47.23 27.01 47.14 27.98C47.11 28.41 47.06 28.86 47.01 29.31C46.96 29.83 46.9 30.34 46.85 30.85C46.79 31.37 46.83 31.82 46.95 32.24C47.16 33.05 47.64 33.73 48.18 34.44C49.2 35.78 50.44 37.22 50.57 39.83L50.58 39.81Z" fill="#55DFFF"/>
<path d="M38.57 37.8101L37.17 39.7701C37.55 44.9601 38.5 49.5901 39.08 51.1501C39.34 51.8701 40.01 52.61 41.55 52.87C43.49 51.69 43.75 40.06 38.58 37.8L38.57 37.8101Z" fill="#557086"/>
<path d="M24.44 37.8101L25.82 39.7701C25.44 44.9601 24.63 49.5001 24.06 51.0601C24.06 51.7601 22.92 52.6701 21.45 52.8801C20.1 50.8501 19.27 40.0701 24.44 37.8101Z" fill="#1A2C38"/>
<path d="M44.2 28.19C42.58 28.19 41.78 28.1 41.24 27.97C41.27 28.41 41.46 29.97 41.51 30.42C41.93 30.7 43.3 30.75 44.2 30.75C45.1 30.75 46.48 30.65 46.9 30.37C46.95 29.92 47.1 28.67 47.14 27.97C46.6 28.1 45.81 28.19 44.2 28.19Z" fill="white"/>
<path d="M48.18 34.43C47.75 35.07 45.47 35.33 44.19 35.33C42.91 35.33 40.68 35.08 40.21 34.46C40.75 33.75 41.22 33.06 41.45 32.24C41.89 32.43 42.76 32.58 44.18 32.58C45.6 32.58 46.51 32.43 46.95 32.23C47.18 33.03 47.64 33.72 48.18 34.43Z" fill="white"/>
<path d="M31.5 56.0301C34.6425 56.0301 37.19 55.1526 37.19 54.0701C37.19 52.9876 34.6425 52.1101 31.5 52.1101C28.3575 52.1101 25.81 52.9876 25.81 54.0701C25.81 55.1526 28.3575 56.0301 31.5 56.0301Z" fill="#55DFFF"/>
<path d="M39.04 40.26V40.62C39.04 40.8 39.04 40.99 39.03 41.17C38.92 46.9 37.74 52.67 37.13 54.34H25.86C25.25 52.67 24.08 46.9 23.97 41.17C23.96 40.99 23.96 40.8 23.96 40.62V40.26C24.12 37.19 25.58 35.5 26.78 33.93C27.42 33.09 27.99 32.28 28.25 31.31C28.39 30.81 28.44 30.27 28.37 29.66C28.11 27.23 27.74 24.88 27.95 23.27C27.95 23.24 27.96 23.21 27.96 23.18C28.05 21.29 29.59 19.79 31.5 19.79C33.41 19.79 34.91 21.26 35.03 23.11C35.04 23.17 35.05 23.21 35.05 23.27C35.12 24.07 35.07 25.13 34.97 26.27C34.93 26.78 34.88 27.31 34.82 27.84C34.76 28.45 34.69 29.06 34.63 29.66C34.56 30.27 34.61 30.81 34.75 31.3C35 32.26 35.56 33.06 36.2 33.9C37.41 35.49 38.87 37.19 39.03 40.27H39.04V40.26Z" fill="#55DFFF"/>
<path d="M31.49 26.53C29.58 26.53 28.63 26.42 27.99 26.27C28.02 26.79 28.25 28.63 28.31 29.16C28.81 29.49 30.43 29.55 31.49 29.55C32.55 29.55 34.19 29.43 34.69 29.1C34.75 28.57 34.93 27.09 34.97 26.27C34.33 26.42 33.4 26.53 31.49 26.53Z" fill="white"/>
<path d="M36.2 33.9001C35.69 34.6601 33 34.96 31.48 34.96C29.96 34.96 27.33 34.67 26.78 33.93C27.42 33.09 27.97 32.27 28.25 31.31C28.77 31.54 29.8 31.71 31.48 31.71C33.16 31.71 34.23 31.53 34.75 31.3C35.02 32.24 35.56 33.0601 36.2 33.9001Z" fill="white"/>
<path d="M46.76 43.02C47.373 43.02 47.87 42.0127 47.87 40.77C47.87 39.5274 47.373 38.52 46.76 38.52C46.147 38.52 45.65 39.5274 45.65 40.77C45.65 42.0127 46.147 43.02 46.76 43.02Z" fill="white"/>
<path d="M36.29 43.4901C37.1295 43.4901 37.81 42.1156 37.81 40.4201C37.81 38.7246 37.1295 37.3501 36.29 37.3501C35.4505 37.3501 34.77 38.7246 34.77 40.4201C34.77 42.1156 35.4505 43.4901 36.29 43.4901Z" fill="white"/>
<path fill-rule="evenodd" clip-rule="evenodd" d="M6.49771 79C6.98969 79 7.48602 79.213 7.49037 79.6913C7.49037 80.1043 7.24656 80.2696 6.99839 80.2696C6.75023 80.2696 6.73281 80.1435 6.73281 80.1435C6.73281 80.1435 7.02452 79.9261 7.02452 79.7174C7.02452 79.6087 6.94179 79.313 6.489 79.3174C5.8577 79.3174 5.5181 79.6174 5.5181 80.1522C5.5181 80.7652 7.35105 80.9739 7.3554 81.7652C7.3554 82.613 6.47594 82.9957 5.69225 83C5.283 83 5.01306 82.7609 5.00871 82.3783C5.00871 81.9261 5.22204 81.4652 5.75756 81.4652C5.88382 81.4565 5.98831 81.5522 5.99702 81.6783C5.99702 81.6783 5.99702 81.6826 5.99702 81.687C5.99702 81.687 5.45715 81.8391 5.4615 82.3783C5.4615 82.4783 5.56599 82.6609 5.81851 82.6565C6.07103 82.6522 6.82424 82.4739 6.81989 81.8087C6.81989 81.1913 5.00435 81.1087 5 80.1478C5 79.0652 6.08845 79.0087 6.49771 79.0087V79ZM10.747 79.6C10.8123 79.5696 11.2129 79.4913 11.1955 79.813C11.1824 80.1348 10.9386 80.6913 10.9037 80.9348C11.2303 80.7696 11.6918 80.2087 11.6918 80.2087C11.6918 80.2087 12.0183 80.2522 11.9182 80.4522C11.818 80.6522 11.1519 81.1435 11.1519 81.1435C11.1519 81.1435 11.3043 82.5696 12.1707 82.5696C12.6453 82.5696 12.8499 82.3609 12.937 82.287C12.9587 82.2696 12.9762 82.2652 12.9849 82.2783C13.0197 82.387 12.9936 82.5043 12.9152 82.5913C12.8194 82.6957 12.5974 82.8217 12.1533 82.8261C11.3653 82.8261 10.9255 82.1957 10.8123 81.2609C10.7252 81.5348 10.7339 81.9826 10.7209 82.2C10.6948 82.2435 10.2507 82.4174 10.2158 82.1174C10.2158 82.0913 10.2158 82.0696 10.2158 82.0435C10.1331 82.1609 10.0199 82.2826 9.91108 82.2826C9.71951 82.2826 9.63679 82.1217 9.60196 82.0391C9.57584 82.0696 9.3625 82.287 9.08821 82.287C8.92277 82.2913 8.77474 82.1957 8.70943 82.0435C8.57011 82.1435 8.32195 82.2913 8.03895 82.2913C7.73418 82.2913 7.66017 82.1087 7.66017 81.9565C7.66017 81.713 7.84303 80.987 7.84303 80.987C7.84303 80.987 7.48602 81.1304 7.36411 81.1348C7.19431 81.1348 7.11159 80.8217 7.11159 80.813C7.11159 80.8087 7.11159 80.8 7.1203 80.8C7.22044 80.7609 7.94317 80.513 7.94317 80.513C7.94317 80.513 8.07813 79.9826 8.09555 79.913C8.11296 79.8435 8.2131 79.7 8.33065 79.6565C8.41773 79.6217 8.50916 79.6 8.60059 79.5913C8.63107 79.5913 8.65284 79.6 8.65284 79.6174C8.65284 79.6348 8.47433 80.4087 8.47433 80.4087C8.47433 80.4087 8.84876 80.3217 8.98808 80.3217C9.09692 80.3217 9.15352 80.387 9.09257 80.4696C9.03162 80.5522 8.96196 80.6478 8.92712 80.6913C8.88794 80.7348 8.86182 80.7435 8.77039 80.7609C8.64413 80.787 8.36113 80.8565 8.36113 80.8565C8.36113 80.8565 8.13473 81.6783 8.13909 81.8174C8.13909 81.8957 8.16521 81.987 8.26099 81.987C8.35678 81.987 8.53964 81.8739 8.67025 81.7913C8.69202 81.1522 9.18835 80.7261 9.57584 80.7261C9.7021 80.7261 9.65421 80.8478 9.79788 80.8478H9.88931C9.94591 80.8478 10.0069 80.8522 10.0069 80.9957C10.0069 81.1957 9.89367 81.5261 9.89367 81.7348C9.89367 81.8826 9.91544 81.987 9.97204 81.987C10.0678 81.987 10.1767 81.8478 10.255 81.7261C10.3813 81.0304 10.734 79.7609 10.734 79.6174L10.747 79.6ZM12.5016 80.7C12.7672 80.6783 12.9326 80.8217 12.9631 80.9C12.9936 80.9783 12.9892 81.1609 12.9152 81.2913C12.6845 81.7044 12.1097 81.6304 12.1097 81.6304C12.1097 81.6304 12.0444 81.9565 12.3405 81.9565C12.593 81.9565 12.7062 81.8304 12.8151 81.7261C12.8586 81.7261 12.9936 81.8652 12.9326 81.9609C12.8847 82.0348 12.6191 82.2565 12.2795 82.2609C11.7397 82.2609 11.6047 81.8 11.6744 81.4696C11.7658 81.0609 12.1751 80.7217 12.5016 80.6957V80.7ZM9.6455 80.987C9.32332 80.987 8.82699 81.9696 9.20577 81.9652C9.61938 81.9652 9.6455 81.1826 9.6455 81.0043V80.987ZM12.6409 80.8913C12.4232 80.9 12.1751 81.3174 12.1533 81.5C12.4798 81.513 12.654 81.1957 12.6757 81.0696C12.6888 80.9739 12.6932 80.887 12.6409 80.887V80.8913Z" fill="#557086"/>
<path d="M50.851 79.0672L49.2521 80.8632C49.1826 80.9428 49.1826 81.0572 49.2521 81.1368L50.8461 82.9328C50.9255 83.0224 51.0695 83.0224 51.1539 82.9328L52.7479 81.1368C52.8174 81.0572 52.8174 80.9428 52.7479 80.8632L51.1539 79.0672C51.0745 78.9776 50.9305 78.9776 50.8461 79.0672H50.851Z" fill="white"/>
<path d="M51.6604 79.6343L52.1421 80.1766L50.568 82.6144L49.704 81.6393L51.6604 79.6343Z" fill="#8EA3B2"/>
<path d="M55.851 79.0672L54.2521 80.8632C54.1826 80.9428 54.1826 81.0572 54.2521 81.1368L55.8461 82.9328C55.9255 83.0224 56.0695 83.0224 56.1539 82.9328L57.7479 81.1368C57.8174 81.0572 57.8174 80.9428 57.7479 80.8632L56.1539 79.0672C56.0745 78.9776 55.9305 78.9776 55.8461 79.0672H55.851Z" fill="white"/>
<path d="M56.6604 79.6343L57.1421 80.1766L55.568 82.6144L54.704 81.6393L56.6604 79.6343Z" fill="#8EA3B2"/>
<rect x="13" y="62" width="37" height="13" rx="6.5" fill="#2F4553"/>
<path d="M25.0234 70.072C23.8534 70.072 23.3074 69.058 23.3074 68.002C23.3074 66.946 23.8534 65.938 25.0234 65.938C26.1934 65.938 26.7394 66.946 26.7394 68.002C26.7394 69.058 26.1934 70.072 25.0234 70.072ZM25.0234 69.16C25.5034 69.16 25.6954 68.71 25.6954 68.002C25.6954 67.294 25.5034 66.85 25.0234 66.85C24.5434 66.85 24.3514 67.294 24.3514 68.002C24.3514 68.71 24.5434 69.16 25.0234 69.16ZM27.6116 70.072C27.3056 70.072 27.0476 69.814 27.0476 69.508C27.0476 69.202 27.3056 68.944 27.6116 68.944C27.9176 68.944 28.1756 69.202 28.1756 69.508C28.1756 69.814 27.9176 70.072 27.6116 70.072ZM30.2089 70.072C29.0389 70.072 28.4929 69.058 28.4929 68.002C28.4929 66.946 29.0389 65.938 30.2089 65.938C31.3789 65.938 31.9249 66.946 31.9249 68.002C31.9249 69.058 31.3789 70.072 30.2089 70.072ZM30.2089 69.16C30.6889 69.16 30.8809 68.71 30.8809 68.002C30.8809 67.294 30.6889 66.85 30.2089 66.85C29.7289 66.85 29.5369 67.294 29.5369 68.002C29.5369 68.71 29.7289 69.16 30.2089 69.16ZM35.1651 70H34.1271V69.268H32.2131V68.464L33.7311 65.998H35.1651V68.362H35.6511V69.268H35.1651V70ZM34.1271 68.362V66.898L33.2151 68.362H34.1271ZM38.8863 70H37.8723L37.3143 69.124L36.7503 70H35.7423L36.7323 68.512L35.8023 67.102H36.8163L37.3143 67.888L37.8063 67.102H38.8203L37.8963 68.512L38.8863 70Z" fill="white"/>
<path d="M6.945 11.06C5.945 11.06 5.17 10.36 5.17 9.335C5.17 8.31 5.945 7.61 6.945 7.61C7.68 7.61 8.105 8.01 8.34 8.425L7.73 8.725C7.59 8.455 7.29 8.24 6.945 8.24C6.34 8.24 5.9 8.705 5.9 9.335C5.9 9.965 6.34 10.43 6.945 10.43C7.29 10.43 7.59 10.22 7.73 9.945L8.34 10.24C8.1 10.655 7.68 11.06 6.945 11.06ZM9.86762 11.06C9.07262 11.06 8.59262 10.48 8.59262 9.79C8.59262 9.105 9.07262 8.525 9.86762 8.525C10.6676 8.525 11.1476 9.105 11.1476 9.79C11.1476 10.48 10.6676 11.06 9.86762 11.06ZM9.86762 10.495C10.2626 10.495 10.4876 10.17 10.4876 9.79C10.4876 9.415 10.2626 9.09 9.86762 9.09C9.47262 9.09 9.25262 9.415 9.25262 9.79C9.25262 10.17 9.47262 10.495 9.86762 10.495ZM15.2537 11H14.6137V9.475C14.6137 9.25 14.5137 9.09 14.2537 9.09C14.0287 9.09 13.8437 9.24 13.7537 9.37V11H13.1137V9.475C13.1137 9.25 13.0137 9.09 12.7537 9.09C12.5337 9.09 12.3487 9.24 12.2537 9.375V11H11.6187V8.585H12.2537V8.9C12.3537 8.755 12.6737 8.525 13.0437 8.525C13.3987 8.525 13.6237 8.69 13.7137 8.965C13.8537 8.745 14.1737 8.525 14.5437 8.525C14.9887 8.525 15.2537 8.76 15.2537 9.255V11ZM19.5115 11H18.8715V9.475C18.8715 9.25 18.7715 9.09 18.5115 9.09C18.2865 9.09 18.1015 9.24 18.0115 9.37V11H17.3715V9.475C17.3715 9.25 17.2715 9.09 17.0115 9.09C16.7915 9.09 16.6065 9.24 16.5115 9.375V11H15.8765V8.585H16.5115V8.9C16.6115 8.755 16.9315 8.525 17.3015 8.525C17.6565 8.525 17.8815 8.69 17.9715 8.965C18.1115 8.745 18.4315 8.525 18.8015 8.525C19.2465 8.525 19.5115 8.76 19.5115 9.255V11ZM21.2543 11.06C20.4593 11.06 19.9793 10.48 19.9793 9.79C19.9793 9.105 20.4593 8.525 21.2543 8.525C22.0543 8.525 22.5343 9.105 22.5343 9.79C22.5343 10.48 22.0543 11.06 21.2543 11.06ZM21.2543 10.495C21.6493 10.495 21.8743 10.17 21.8743 9.79C21.8743 9.415 21.6493 9.09 21.2543 9.09C20.8593 9.09 20.6393 9.415 20.6393 9.79C20.6393 10.17 20.8593 10.495 21.2543 10.495ZM25.2704 11H24.6354V9.54C24.6354 9.205 24.4604 9.09 24.1904 9.09C23.9404 9.09 23.7454 9.23 23.6404 9.375V11H23.0054V8.585H23.6404V8.9C23.7954 8.715 24.0904 8.525 24.4854 8.525C25.0154 8.525 25.2704 8.825 25.2704 9.295V11Z" fill="#05080A"/>
<path d="M47.389 11H46.937L45.545 9.096V11H45.077V8.332H45.557L46.921 10.184V8.332H47.389V11ZM48.8159 11.048C48.2039 11.048 47.8239 10.588 47.8239 10.032C47.8239 9.48 48.2039 9.02 48.8159 9.02C49.4359 9.02 49.8119 9.48 49.8119 10.032C49.8119 10.588 49.4359 11.048 48.8159 11.048ZM48.8159 10.676C49.1759 10.676 49.3759 10.376 49.3759 10.032C49.3759 9.692 49.1759 9.392 48.8159 9.392C48.4599 9.392 48.2599 9.692 48.2599 10.032C48.2599 10.376 48.4599 10.676 48.8159 10.676ZM50.4333 11.044C50.2813 11.044 50.1533 10.916 50.1533 10.764C50.1533 10.612 50.2813 10.484 50.4333 10.484C50.5853 10.484 50.7133 10.612 50.7133 10.764C50.7133 10.916 50.5853 11.044 50.4333 11.044ZM53.1891 11H52.7211V8.94L52.2851 9.392L52.0131 9.108L52.7811 8.332H53.1891V11ZM54.6887 11.048C54.2287 11.048 53.9127 10.892 53.6967 10.636L53.9647 10.316C54.1447 10.52 54.3847 10.632 54.6847 10.632C55.0207 10.632 55.2327 10.424 55.2327 10.164C55.2327 9.876 55.0247 9.688 54.6967 9.688C54.4687 9.688 54.2807 9.76 54.1127 9.92L53.7807 9.824V8.332H55.5287V8.744H54.2487V9.516C54.3767 9.388 54.5967 9.284 54.8527 9.284C55.3007 9.284 55.7047 9.6 55.7047 10.144C55.7047 10.7 55.2847 11.048 54.6887 11.048ZM56.8671 11H56.3551L57.3631 8.744H55.9791V8.332H57.9031V8.656L56.8671 11Z" fill="white"/>
</svg>
