<svg width="63" height="88" viewBox="0 0 63 88" fill="none" xmlns="http://www.w3.org/2000/svg">
<rect width="63" height="88" rx="4" fill="#55DFFF"/>
<path d="M36.7008 13.5133L44.7992 3.48665C45.5586 2.54645 46.7024 2 47.911 2H58C59.6569 2 61 3.34314 61 5V83C61 84.6569 59.6569 86 58 86H5C3.34315 86 2 84.6569 2 83V18C2 16.3431 3.34315 15 5 15H33.589C34.7976 15 35.9414 14.4536 36.7008 13.5133Z" fill="#213743"/>
<rect x="5" y="18" width="53" height="40" rx="1" fill="#2F4553"/>
<g clip-path="url(#clip0_26835_29321)">
<path d="M45.18 41.13V41.11C44.54 40.72 44.54 39.8 45.18 39.41V39.39C46.09 38.66 46.69 37.56 46.69 36.3C46.69 34.11 44.92 32.34 42.73 32.34C41.7 32.34 40.78 32.74 40.07 33.38C40.07 33.38 40.02 33.42 39.99 33.45C39.96 33.48 39.92 33.51 39.89 33.54C38.82 34.57 37.94 35.52 37.15 36.32C35.57 37.94 33.11 37.22 33.73 36.4C34.7 35.12 36.3 33.81 38.2 31.84C38.23 31.81 38.26 31.78 38.29 31.74C38.32 31.71 38.34 31.69 38.37 31.66H38.36C39 30.95 39.4 30.02 39.4 29C39.4 26.81 37.63 25.04 35.44 25.04C34.18 25.04 33.08 25.64 32.35 26.55H32.33C31.94 27.19 31.02 27.19 30.63 26.55H30.61C29.88 25.64 28.78 25.04 27.52 25.04C25.33 25.04 23.56 26.81 23.56 29C23.56 30.03 23.96 30.95 24.6 31.66C24.6 31.66 24.65 31.72 24.68 31.75C24.71 31.78 24.74 31.81 24.77 31.85C26.72 33.88 28.36 35.2 29.31 36.51C29.88 37.29 27.51 38.04 26.04 36.56C25.2 35.71 24.26 34.68 23.07 33.54C23.04 33.51 23.01 33.48 22.97 33.45C22.94 33.42 22.92 33.4 22.89 33.37C22.19 32.74 21.26 32.34 20.23 32.34C18.04 32.34 16.27 34.11 16.27 36.3C16.27 37.56 16.87 38.66 17.78 39.39V39.42C18.42 39.81 18.42 40.73 17.78 41.12V41.14C16.87 41.87 16.27 42.97 16.27 44.23C16.27 46.42 18.04 48.19 20.23 48.19C21.26 48.19 22.18 47.79 22.89 47.15C22.89 47.15 22.94 47.11 22.97 47.08C23 47.05 23.03 47.02 23.07 46.99C26.31 43.88 27.76 41.54 30.21 41.54C30.21 43.99 27.87 45.44 24.76 48.68C24.73 48.71 24.7 48.74 24.66 48.78C24.63 48.81 24.61 48.83 24.58 48.86C23.94 49.57 23.54 50.5 23.54 51.52C23.54 53.71 25.31 55.48 27.5 55.48C28.76 55.48 29.87 54.88 30.59 53.97H30.61C31 53.33 31.92 53.33 32.31 53.97H32.32C33.05 54.88 34.15 55.48 35.41 55.48C37.6 55.48 39.37 53.71 39.37 51.52C39.37 50.49 38.97 49.57 38.33 48.86C38.33 48.86 38.28 48.8 38.25 48.77C38.22 48.74 38.19 48.7 38.16 48.67C35.05 45.43 32.72 43.98 32.71 41.53C35.16 41.53 36.61 43.87 39.85 46.98C39.88 47.01 39.91 47.04 39.95 47.07C39.98 47.1 40 47.12 40.03 47.15C40.73 47.78 41.66 48.18 42.69 48.18C44.88 48.18 46.65 46.41 46.65 44.22C46.65 42.96 46.05 41.86 45.14 41.13H45.18Z" fill="#1A2C38"/>
<path d="M32.75 35.99C32.75 33.49 35.17 32.04 38.37 28.67L31.48 26.01V37.16L32.75 35.99Z" fill="#56DEFF"/>
<path d="M35.44 29.97C37.6271 29.97 39.4 28.1971 39.4 26.01C39.4 23.823 37.6271 22.05 35.44 22.05C33.253 22.05 31.48 23.823 31.48 26.01C31.48 28.1971 33.253 29.97 35.44 29.97Z" fill="#56DEFF"/>
<path d="M30.21 35.99C30.21 33.49 27.79 32.04 24.59 28.67L31.48 26.01V37.16L30.21 35.99Z" fill="#56DEFF"/>
<path d="M27.52 29.97C29.7071 29.97 31.48 28.1971 31.48 26.01C31.48 23.823 29.7071 22.05 27.52 22.05C25.333 22.05 23.56 23.823 23.56 26.01C23.56 28.1971 25.333 29.97 27.52 29.97Z" fill="#56DEFF"/>
<path d="M32.75 38.5201C32.75 41.0201 35.17 42.4701 38.37 45.8401L31.48 48.5001V37.3501L32.75 38.5201Z" fill="#56DEFF"/>
<path d="M35.44 52.46C37.6271 52.46 39.4 50.6871 39.4 48.5C39.4 46.313 37.6271 44.54 35.44 44.54C33.253 44.54 31.48 46.313 31.48 48.5C31.48 50.6871 33.253 52.46 35.44 52.46Z" fill="#56DEFF"/>
<path d="M30.21 38.5201C30.21 41.0201 27.79 42.4701 24.59 45.8401L31.48 48.5001V37.3501L30.21 38.5201Z" fill="#56DEFF"/>
<path d="M32.74 38.52C35.24 38.52 36.69 40.94 40.06 44.14L42.72 37.25H31.57L32.74 38.52Z" fill="#56DEFF"/>
<path d="M45.21 35.6201L45.19 36.4001C44.55 36.7901 44.55 37.7101 45.19 38.1001L45.23 38.9801L42.73 37.2501L45.21 35.6101V35.6201Z" fill="white"/>
<path d="M17.75 38.9L17.77 38.12C18.41 37.73 18.41 36.81 17.77 36.42L17.73 35.54L20.23 37.27L17.75 38.91V38.9Z" fill="#557086"/>
<path d="M42.73 45.18C44.9171 45.18 46.69 43.4071 46.69 41.22C46.69 39.033 44.9171 37.26 42.73 37.26C40.543 37.26 38.77 39.033 38.77 41.22C38.77 43.4071 40.543 45.18 42.73 45.18Z" fill="#56DEFF"/>
<path d="M32.74 35.9901C35.24 35.9901 36.69 33.5701 40.06 30.3701L42.72 37.2601H31.57L32.74 35.9901Z" fill="white"/>
<path d="M42.73 37.2501C44.9171 37.2501 46.69 35.4771 46.69 33.2901C46.69 31.103 44.9171 29.3301 42.73 29.3301C40.543 29.3301 38.77 31.103 38.77 33.2901C38.77 35.4771 40.543 37.2501 42.73 37.2501Z" fill="white"/>
<path d="M30.22 38.52C27.72 38.52 26.27 40.94 22.9 44.14L20.24 37.25H31.39L30.22 38.52Z" fill="#557086"/>
<path d="M20.23 45.18C22.4171 45.18 24.19 43.4071 24.19 41.22C24.19 39.033 22.4171 37.26 20.23 37.26C18.043 37.26 16.27 39.033 16.27 41.22C16.27 43.4071 18.043 45.18 20.23 45.18Z" fill="#557086"/>
<path d="M30.22 35.9901C27.72 35.9901 26.27 33.5701 22.9 30.3701L20.24 37.2601H31.39L30.22 35.9901Z" fill="#56DEFF"/>
<path d="M20.23 37.2501C22.4171 37.2501 24.19 35.4771 24.19 33.2901C24.19 31.103 22.4171 29.3301 20.23 29.3301C18.043 29.3301 16.27 31.103 16.27 33.2901C16.27 35.4771 18.043 37.2501 20.23 37.2501Z" fill="#56DEFF"/>
<path d="M32.75 35.99H30.21V38.52H32.75V35.99Z" fill="#56DEFF"/>
<path d="M37.33 27.82C37.9044 27.82 38.37 26.9649 38.37 25.91C38.37 24.8551 37.9044 24 37.33 24C36.7556 24 36.29 24.8551 36.29 25.91C36.29 26.9649 36.7556 27.82 37.33 27.82Z" fill="white"/>
<path d="M20.23 32.62C19.18 32.62 18.32 32.15 18.32 31.58C18.32 31.01 19.18 30.54 20.23 30.54C21.28 30.54 22.14 31.01 22.14 31.58C22.14 32.15 21.28 32.62 20.23 32.62Z" fill="white"/>
<path d="M30.21 40.2401V38.5301C30.21 37.8301 29.64 37.2601 28.94 37.2601H27.17L31.14 36.5601L30.21 40.2401Z" fill="#56DEFF"/>
<path d="M30.2 35.9901C30.91 35.9901 31.48 35.4201 31.48 34.7101V32.5701L32.88 37.7101L28.35 35.9901H30.2Z" fill="#56DEFF"/>
<path d="M32.75 34.05V35.99C32.75 36.69 33.32 37.25 34.02 37.25H34.41L30.7 39.44L32.76 34.04L32.75 34.05Z" fill="#56DEFF"/>
<path d="M29.84 23.53L30.62 23.55C31.01 24.19 31.93 24.19 32.32 23.55L33.2 23.51L31.47 27.25L29.83 23.53H29.84Z" fill="#56DEFF"/>
<path d="M33.12 50.98L32.34 50.96C31.95 50.32 31.03 50.32 30.64 50.96L29.76 51L31.49 47.26L33.13 50.98H33.12Z" fill="#56DEFF"/>
<path d="M27.52 52.46C29.7071 52.46 31.48 50.6871 31.48 48.5C31.48 46.313 29.7071 44.54 27.52 44.54C25.333 44.54 23.56 46.313 23.56 48.5C23.56 50.6871 25.333 52.46 27.52 52.46Z" fill="#56DEFF"/>
</g>
<path fill-rule="evenodd" clip-rule="evenodd" d="M6.49771 79C6.98969 79 7.48602 79.213 7.49037 79.6913C7.49037 80.1043 7.24656 80.2696 6.99839 80.2696C6.75023 80.2696 6.73281 80.1435 6.73281 80.1435C6.73281 80.1435 7.02452 79.9261 7.02452 79.7174C7.02452 79.6087 6.94179 79.313 6.489 79.3174C5.8577 79.3174 5.5181 79.6174 5.5181 80.1522C5.5181 80.7652 7.35105 80.9739 7.3554 81.7652C7.3554 82.613 6.47594 82.9957 5.69225 83C5.283 83 5.01306 82.7609 5.00871 82.3783C5.00871 81.9261 5.22204 81.4652 5.75756 81.4652C5.88382 81.4565 5.98831 81.5522 5.99702 81.6783C5.99702 81.6783 5.99702 81.6826 5.99702 81.687C5.99702 81.687 5.45715 81.8391 5.4615 82.3783C5.4615 82.4783 5.56599 82.6609 5.81851 82.6565C6.07103 82.6522 6.82424 82.4739 6.81989 81.8087C6.81989 81.1913 5.00435 81.1087 5 80.1478C5 79.0652 6.08845 79.0087 6.49771 79.0087V79ZM10.747 79.6C10.8123 79.5696 11.2129 79.4913 11.1955 79.813C11.1824 80.1348 10.9386 80.6913 10.9037 80.9348C11.2303 80.7696 11.6918 80.2087 11.6918 80.2087C11.6918 80.2087 12.0183 80.2522 11.9182 80.4522C11.818 80.6522 11.1519 81.1435 11.1519 81.1435C11.1519 81.1435 11.3043 82.5696 12.1707 82.5696C12.6453 82.5696 12.8499 82.3609 12.937 82.287C12.9587 82.2696 12.9762 82.2652 12.9849 82.2783C13.0197 82.387 12.9936 82.5043 12.9152 82.5913C12.8194 82.6957 12.5974 82.8217 12.1533 82.8261C11.3653 82.8261 10.9255 82.1957 10.8123 81.2609C10.7252 81.5348 10.7339 81.9826 10.7209 82.2C10.6948 82.2435 10.2507 82.4174 10.2158 82.1174C10.2158 82.0913 10.2158 82.0696 10.2158 82.0435C10.1331 82.1609 10.0199 82.2826 9.91108 82.2826C9.71951 82.2826 9.63679 82.1217 9.60196 82.0391C9.57584 82.0696 9.3625 82.287 9.08821 82.287C8.92277 82.2913 8.77474 82.1957 8.70943 82.0435C8.57011 82.1435 8.32195 82.2913 8.03895 82.2913C7.73418 82.2913 7.66017 82.1087 7.66017 81.9565C7.66017 81.713 7.84303 80.987 7.84303 80.987C7.84303 80.987 7.48602 81.1304 7.36411 81.1348C7.19431 81.1348 7.11159 80.8217 7.11159 80.813C7.11159 80.8087 7.11159 80.8 7.1203 80.8C7.22044 80.7609 7.94317 80.513 7.94317 80.513C7.94317 80.513 8.07813 79.9826 8.09555 79.913C8.11296 79.8435 8.2131 79.7 8.33065 79.6565C8.41773 79.6217 8.50916 79.6 8.60059 79.5913C8.63107 79.5913 8.65284 79.6 8.65284 79.6174C8.65284 79.6348 8.47433 80.4087 8.47433 80.4087C8.47433 80.4087 8.84876 80.3217 8.98808 80.3217C9.09692 80.3217 9.15352 80.387 9.09257 80.4696C9.03162 80.5522 8.96196 80.6478 8.92712 80.6913C8.88794 80.7348 8.86182 80.7435 8.77039 80.7609C8.64413 80.787 8.36113 80.8565 8.36113 80.8565C8.36113 80.8565 8.13473 81.6783 8.13909 81.8174C8.13909 81.8957 8.16521 81.987 8.26099 81.987C8.35678 81.987 8.53964 81.8739 8.67025 81.7913C8.69202 81.1522 9.18835 80.7261 9.57584 80.7261C9.7021 80.7261 9.65421 80.8478 9.79788 80.8478H9.88931C9.94591 80.8478 10.0069 80.8522 10.0069 80.9957C10.0069 81.1957 9.89367 81.5261 9.89367 81.7348C9.89367 81.8826 9.91544 81.987 9.97204 81.987C10.0678 81.987 10.1767 81.8478 10.255 81.7261C10.3813 81.0304 10.734 79.7609 10.734 79.6174L10.747 79.6ZM12.5016 80.7C12.7672 80.6783 12.9326 80.8217 12.9631 80.9C12.9936 80.9783 12.9892 81.1609 12.9152 81.2913C12.6845 81.7044 12.1097 81.6304 12.1097 81.6304C12.1097 81.6304 12.0444 81.9565 12.3405 81.9565C12.593 81.9565 12.7062 81.8304 12.8151 81.7261C12.8586 81.7261 12.9936 81.8652 12.9326 81.9609C12.8847 82.0348 12.6191 82.2565 12.2795 82.2609C11.7397 82.2609 11.6047 81.8 11.6744 81.4696C11.7658 81.0609 12.1751 80.7217 12.5016 80.6957V80.7ZM9.6455 80.987C9.32332 80.987 8.82699 81.9696 9.20577 81.9652C9.61938 81.9652 9.6455 81.1826 9.6455 81.0043V80.987ZM12.6409 80.8913C12.4232 80.9 12.1751 81.3174 12.1533 81.5C12.4798 81.513 12.654 81.1957 12.6757 81.0696C12.6888 80.9739 12.6932 80.887 12.6409 80.887V80.8913Z" fill="#557086"/>
<path d="M50.851 79.0672L49.2521 80.8632C49.1826 80.9428 49.1826 81.0572 49.2521 81.1368L50.8461 82.9328C50.9255 83.0224 51.0695 83.0224 51.1539 82.9328L52.7479 81.1368C52.8174 81.0572 52.8174 80.9428 52.7479 80.8632L51.1539 79.0672C51.0745 78.9776 50.9305 78.9776 50.8461 79.0672H50.851Z" fill="white"/>
<path d="M51.6604 79.6343L52.1421 80.1766L50.568 82.6144L49.704 81.6393L51.6604 79.6343Z" fill="#8EA3B2"/>
<path d="M55.851 79.0672L54.2521 80.8632C54.1826 80.9428 54.1826 81.0572 54.2521 81.1368L55.8461 82.9328C55.9255 83.0224 56.0695 83.0224 56.1539 82.9328L57.7479 81.1368C57.8174 81.0572 57.8174 80.9428 57.7479 80.8632L56.1539 79.0672C56.0745 78.9776 55.9305 78.9776 55.8461 79.0672H55.851Z" fill="white"/>
<path d="M56.6604 79.6343L57.1421 80.1766L55.568 82.6144L54.704 81.6393L56.6604 79.6343Z" fill="#8EA3B2"/>
<rect x="13" y="62" width="37" height="13" rx="6.5" fill="#2F4553"/>
<path d="M25.0234 70.072C23.8534 70.072 23.3074 69.058 23.3074 68.002C23.3074 66.946 23.8534 65.938 25.0234 65.938C26.1934 65.938 26.7394 66.946 26.7394 68.002C26.7394 69.058 26.1934 70.072 25.0234 70.072ZM25.0234 69.16C25.5034 69.16 25.6954 68.71 25.6954 68.002C25.6954 67.294 25.5034 66.85 25.0234 66.85C24.5434 66.85 24.3514 67.294 24.3514 68.002C24.3514 68.71 24.5434 69.16 25.0234 69.16ZM27.6116 70.072C27.3056 70.072 27.0476 69.814 27.0476 69.508C27.0476 69.202 27.3056 68.944 27.6116 68.944C27.9176 68.944 28.1756 69.202 28.1756 69.508C28.1756 69.814 27.9176 70.072 27.6116 70.072ZM30.2089 70.072C29.0389 70.072 28.4929 69.058 28.4929 68.002C28.4929 66.946 29.0389 65.938 30.2089 65.938C31.3789 65.938 31.9249 66.946 31.9249 68.002C31.9249 69.058 31.3789 70.072 30.2089 70.072ZM30.2089 69.16C30.6889 69.16 30.8809 68.71 30.8809 68.002C30.8809 67.294 30.6889 66.85 30.2089 66.85C29.7289 66.85 29.5369 67.294 29.5369 68.002C29.5369 68.71 29.7289 69.16 30.2089 69.16ZM35.1651 70H34.1271V69.268H32.2131V68.464L33.7311 65.998H35.1651V68.362H35.6511V69.268H35.1651V70ZM34.1271 68.362V66.898L33.2151 68.362H34.1271ZM38.8863 70H37.8723L37.3143 69.124L36.7503 70H35.7423L36.7323 68.512L35.8023 67.102H36.8163L37.3143 67.888L37.8063 67.102H38.8203L37.8963 68.512L38.8863 70Z" fill="white"/>
<path d="M6.945 11.06C5.945 11.06 5.17 10.36 5.17 9.335C5.17 8.31 5.945 7.61 6.945 7.61C7.68 7.61 8.105 8.01 8.34 8.425L7.73 8.725C7.59 8.455 7.29 8.24 6.945 8.24C6.34 8.24 5.9 8.705 5.9 9.335C5.9 9.965 6.34 10.43 6.945 10.43C7.29 10.43 7.59 10.22 7.73 9.945L8.34 10.24C8.1 10.655 7.68 11.06 6.945 11.06ZM9.86762 11.06C9.07262 11.06 8.59262 10.48 8.59262 9.79C8.59262 9.105 9.07262 8.525 9.86762 8.525C10.6676 8.525 11.1476 9.105 11.1476 9.79C11.1476 10.48 10.6676 11.06 9.86762 11.06ZM9.86762 10.495C10.2626 10.495 10.4876 10.17 10.4876 9.79C10.4876 9.415 10.2626 9.09 9.86762 9.09C9.47262 9.09 9.25262 9.415 9.25262 9.79C9.25262 10.17 9.47262 10.495 9.86762 10.495ZM15.2537 11H14.6137V9.475C14.6137 9.25 14.5137 9.09 14.2537 9.09C14.0287 9.09 13.8437 9.24 13.7537 9.37V11H13.1137V9.475C13.1137 9.25 13.0137 9.09 12.7537 9.09C12.5337 9.09 12.3487 9.24 12.2537 9.375V11H11.6187V8.585H12.2537V8.9C12.3537 8.755 12.6737 8.525 13.0437 8.525C13.3987 8.525 13.6237 8.69 13.7137 8.965C13.8537 8.745 14.1737 8.525 14.5437 8.525C14.9887 8.525 15.2537 8.76 15.2537 9.255V11ZM19.5115 11H18.8715V9.475C18.8715 9.25 18.7715 9.09 18.5115 9.09C18.2865 9.09 18.1015 9.24 18.0115 9.37V11H17.3715V9.475C17.3715 9.25 17.2715 9.09 17.0115 9.09C16.7915 9.09 16.6065 9.24 16.5115 9.375V11H15.8765V8.585H16.5115V8.9C16.6115 8.755 16.9315 8.525 17.3015 8.525C17.6565 8.525 17.8815 8.69 17.9715 8.965C18.1115 8.745 18.4315 8.525 18.8015 8.525C19.2465 8.525 19.5115 8.76 19.5115 9.255V11ZM21.2543 11.06C20.4593 11.06 19.9793 10.48 19.9793 9.79C19.9793 9.105 20.4593 8.525 21.2543 8.525C22.0543 8.525 22.5343 9.105 22.5343 9.79C22.5343 10.48 22.0543 11.06 21.2543 11.06ZM21.2543 10.495C21.6493 10.495 21.8743 10.17 21.8743 9.79C21.8743 9.415 21.6493 9.09 21.2543 9.09C20.8593 9.09 20.6393 9.415 20.6393 9.79C20.6393 10.17 20.8593 10.495 21.2543 10.495ZM25.2704 11H24.6354V9.54C24.6354 9.205 24.4604 9.09 24.1904 9.09C23.9404 9.09 23.7454 9.23 23.6404 9.375V11H23.0054V8.585H23.6404V8.9C23.7954 8.715 24.0904 8.525 24.4854 8.525C25.0154 8.525 25.2704 8.825 25.2704 9.295V11Z" fill="#05080A"/>
<path d="M47.139 11H46.687L45.295 9.096V11H44.827V8.332H45.307L46.671 10.184V8.332H47.139V11ZM48.5659 11.048C47.9539 11.048 47.5739 10.588 47.5739 10.032C47.5739 9.48 47.9539 9.02 48.5659 9.02C49.1859 9.02 49.5619 9.48 49.5619 10.032C49.5619 10.588 49.1859 11.048 48.5659 11.048ZM48.5659 10.676C48.9259 10.676 49.1259 10.376 49.1259 10.032C49.1259 9.692 48.9259 9.392 48.5659 9.392C48.2099 9.392 48.0099 9.692 48.0099 10.032C48.0099 10.376 48.2099 10.676 48.5659 10.676ZM50.1833 11.044C50.0313 11.044 49.9033 10.916 49.9033 10.764C49.9033 10.612 50.0313 10.484 50.1833 10.484C50.3353 10.484 50.4633 10.612 50.4633 10.764C50.4633 10.916 50.3353 11.044 50.1833 11.044ZM52.9391 11H52.4711V8.94L52.0351 9.392L51.7631 9.108L52.5311 8.332H52.9391V11ZM54.4387 11.048C53.9787 11.048 53.6627 10.892 53.4467 10.636L53.7147 10.316C53.8947 10.52 54.1347 10.632 54.4347 10.632C54.7707 10.632 54.9827 10.424 54.9827 10.164C54.9827 9.876 54.7747 9.688 54.4467 9.688C54.2187 9.688 54.0307 9.76 53.8627 9.92L53.5307 9.824V8.332H55.2787V8.744H53.9987V9.516C54.1267 9.388 54.3467 9.284 54.6027 9.284C55.0507 9.284 55.4547 9.6 55.4547 10.144C55.4547 10.7 55.0347 11.048 54.4387 11.048ZM56.8131 11.048C56.2651 11.048 55.7891 10.796 55.7891 10.316C55.7891 9.976 56.0651 9.732 56.3891 9.624C56.0891 9.528 55.8331 9.332 55.8331 8.992C55.8331 8.5 56.3371 8.292 56.8131 8.292C57.2811 8.292 57.7931 8.5 57.7931 8.992C57.7931 9.332 57.5331 9.528 57.2331 9.624C57.5571 9.732 57.8331 9.976 57.8331 10.316C57.8331 10.792 57.3571 11.048 56.8131 11.048ZM56.8131 9.44C56.9771 9.412 57.3171 9.316 57.3171 9.064C57.3171 8.84 57.0971 8.708 56.8131 8.708C56.5211 8.708 56.3051 8.84 56.3051 9.064C56.3051 9.316 56.6491 9.412 56.8131 9.44ZM56.8131 10.632C57.1091 10.632 57.3611 10.488 57.3611 10.256C57.3611 9.98 56.9771 9.856 56.8131 9.836C56.6451 9.856 56.2611 9.98 56.2611 10.256C56.2611 10.488 56.5091 10.632 56.8131 10.632Z" fill="white"/>
<defs>
<clipPath id="clip0_26835_29321">
<rect width="63" height="88" fill="white"/>
</clipPath>
</defs>
</svg>
