<svg width="63" height="88" viewBox="0 0 63 88" fill="none" xmlns="http://www.w3.org/2000/svg">
<rect width="63" height="88" rx="4" fill="#55DFFF"/>
<path d="M36.7008 13.5133L44.7992 3.48665C45.5586 2.54645 46.7024 2 47.911 2H58C59.6569 2 61 3.34314 61 5V83C61 84.6569 59.6569 86 58 86H5C3.34315 86 2 84.6569 2 83V18C2 16.3431 3.34315 15 5 15H33.589C34.7976 15 35.9414 14.4536 36.7008 13.5133Z" fill="#213743"/>
<rect x="5" y="18" width="53" height="40" rx="1" fill="#2F4553"/>
<g clip-path="url(#clip0_26835_29322)">
<path d="M39.36 29.2799C37.43 31.7099 34.52 28.9099 31.15 28.9099C27.78 28.9099 27.39 30.6699 27.39 30.6699V29.2799H22.24V37.9299C22.24 38.4799 22.69 38.9299 23.24 38.9299H27.39V37.7899C27.39 33.9299 33.87 38.0499 36.89 35.4599C30.57 40.7299 26.31 44.4899 25.97 52.4399C25.95 52.9999 26.41 53.4599 26.97 53.4599H34.17C34.71 53.4599 35.15 53.0199 35.17 52.4799C35.59 40.7399 43.47 36.0599 43.47 29.2699H39.36V29.2799Z" fill="#1A2C38"/>
<path d="M52.2 34.78C50.91 36.4 48.97 34.53 46.72 34.53C44.47 34.53 44.21 35.7 44.21 35.7V34.78H40.77V40.22C40.77 40.77 41.22 41.22 41.77 41.22H44.21V40.46C44.21 37.88 48.53 40.63 50.55 38.91C46.44 42.34 43.63 44.81 43.29 49.84C43.25 50.42 43.71 50.92 44.29 50.92H48.42C48.96 50.92 49.39 50.49 49.42 49.95C49.83 42.34 54.94 39.24 54.94 34.77H52.2V34.78Z" fill="#1A2C38"/>
<path d="M52.2 32.0801C50.91 33.7001 48.97 31.8301 46.72 31.8301C44.47 31.8301 44.21 33.0001 44.21 33.0001V32.0801H40.77V37.5201C40.77 38.0701 41.22 38.5201 41.77 38.5201H44.21V37.7601C44.21 35.1801 48.53 37.9301 50.55 36.2101C46.44 39.6401 43.63 42.1101 43.29 47.1401C43.25 47.7201 43.71 48.2201 44.29 48.2201H48.42C48.96 48.2201 49.39 47.7901 49.42 47.2501C49.83 39.6401 54.94 36.5401 54.94 32.0701H52.2V32.0801Z" fill="#577086"/>
<path d="M39.36 25.7399C37.43 28.1699 34.52 25.3699 31.15 25.3699C27.78 25.3699 27.39 27.1299 27.39 27.1299V25.7399H22.24V34.3899C22.24 34.9399 22.69 35.3899 23.24 35.3899H27.39V34.2499C27.39 30.3899 33.87 34.5099 36.89 31.9199C30.57 37.1899 26.31 40.9499 25.97 48.8999C25.95 49.4599 26.41 49.9199 26.97 49.9199H34.17C34.71 49.9199 35.15 49.4799 35.17 48.9399C35.59 37.1999 43.47 32.5199 43.47 25.7299H39.36V25.7399Z" fill="#577086"/>
<path d="M52.2 30.8201C50.91 32.4401 48.97 30.5701 46.72 30.5701C44.47 30.5701 44.21 31.7401 44.21 31.7401V30.8201H41.77C41.22 30.8201 40.77 31.2701 40.77 31.8201V36.2601C40.77 36.8101 41.22 37.2601 41.77 37.2601H44.21V36.5001C44.21 33.9201 48.53 36.6701 50.55 34.9501C46.44 38.3801 43.63 40.8501 43.29 45.8801C43.25 46.4601 43.71 46.9601 44.29 46.9601H48.42C48.96 46.9601 49.39 46.5301 49.42 45.9901C49.83 38.3801 54.94 35.2801 54.94 30.8101H52.2V30.8201Z" fill="#56DEFF"/>
<path d="M39.36 23.35C37.43 25.78 34.52 22.98 31.15 22.98C27.78 22.98 27.39 24.74 27.39 24.74V23.35H23.24C22.69 23.35 22.24 23.8 22.24 24.35V32C22.24 32.55 22.69 33 23.24 33H27.39V31.86C27.39 28 33.87 32.12 36.89 29.53C30.57 34.8 26.31 38.56 25.97 46.51C25.95 47.07 26.41 47.53 26.97 47.53H34.17C34.71 47.53 35.15 47.09 35.17 46.55C35.59 34.81 43.47 30.13 43.47 23.34H39.36V23.35Z" fill="#56DEFF"/>
<path d="M19.5 34.78C18.21 36.4 16.27 34.53 14.02 34.53C11.77 34.53 11.51 35.7 11.51 35.7V34.78H8.07001V40.22C8.07001 40.77 8.52001 41.22 9.07001 41.22H11.51V40.46C11.51 37.88 15.83 40.63 17.85 38.91C13.74 42.34 10.93 44.81 10.59 49.84C10.55 50.42 11.01 50.92 11.59 50.92H15.72C16.26 50.92 16.69 50.49 16.72 49.95C17.13 42.34 22.24 39.24 22.24 34.77H19.5V34.78Z" fill="#1A2C38"/>
<path d="M19.5 32.0801C18.21 33.7001 16.27 31.8301 14.02 31.8301C11.77 31.8301 11.51 33.0001 11.51 33.0001V32.0801H8.07001V37.5201C8.07001 38.0701 8.52001 38.5201 9.07001 38.5201H11.51V37.7601C11.51 35.1801 15.83 37.9301 17.85 36.2101C13.74 39.6401 10.93 42.1101 10.59 47.1401C10.55 47.7201 11.01 48.2201 11.59 48.2201H15.72C16.26 48.2201 16.69 47.7901 16.72 47.2501C17.13 39.6401 22.24 36.5401 22.24 32.0701H19.5V32.0801Z" fill="#577086"/>
<path d="M19.5 30.8201C18.21 32.4401 16.27 30.5701 14.02 30.5701C11.77 30.5701 11.51 31.7401 11.51 31.7401V30.8201H9.07001C8.52001 30.8201 8.07001 31.2701 8.07001 31.8201V36.2601C8.07001 36.8101 8.52001 37.2601 9.07001 37.2601H11.51V36.5001C11.51 33.9201 15.83 36.6701 17.85 34.9501C13.74 38.3801 10.93 40.8501 10.59 45.8801C10.55 46.4601 11.01 46.9601 11.59 46.9601H15.72C16.26 46.9601 16.69 46.5301 16.72 45.9901C17.13 38.3801 22.24 35.2801 22.24 30.8101H19.5V30.8201Z" fill="#56DEFF"/>
<path d="M31.07 25.3199C32.3789 25.3199 33.44 24.9438 33.44 24.4799C33.44 24.016 32.3789 23.6399 31.07 23.6399C29.7611 23.6399 28.7 24.016 28.7 24.4799C28.7 24.9438 29.7611 25.3199 31.07 25.3199Z" fill="white"/>
<path d="M14.15 32.83C15.1773 32.83 16.01 32.4718 16.01 32.03C16.01 31.5882 15.1773 31.23 14.15 31.23C13.1228 31.23 12.29 31.5882 12.29 32.03C12.29 32.4718 13.1228 32.83 14.15 32.83Z" fill="white"/>
<path d="M46.91 32.83C47.9373 32.83 48.77 32.4718 48.77 32.03C48.77 31.5882 47.9373 31.23 46.91 31.23C45.8828 31.23 45.05 31.5882 45.05 32.03C45.05 32.4718 45.8828 32.83 46.91 32.83Z" fill="white"/>
</g>
<path fill-rule="evenodd" clip-rule="evenodd" d="M6.49771 79C6.98969 79 7.48602 79.213 7.49037 79.6913C7.49037 80.1043 7.24656 80.2696 6.99839 80.2696C6.75023 80.2696 6.73281 80.1435 6.73281 80.1435C6.73281 80.1435 7.02452 79.9261 7.02452 79.7174C7.02452 79.6087 6.94179 79.313 6.489 79.3174C5.8577 79.3174 5.5181 79.6174 5.5181 80.1522C5.5181 80.7652 7.35105 80.9739 7.3554 81.7652C7.3554 82.613 6.47594 82.9957 5.69225 83C5.283 83 5.01306 82.7609 5.00871 82.3783C5.00871 81.9261 5.22204 81.4652 5.75756 81.4652C5.88382 81.4565 5.98831 81.5522 5.99702 81.6783C5.99702 81.6783 5.99702 81.6826 5.99702 81.687C5.99702 81.687 5.45715 81.8391 5.4615 82.3783C5.4615 82.4783 5.56599 82.6609 5.81851 82.6565C6.07103 82.6522 6.82424 82.4739 6.81989 81.8087C6.81989 81.1913 5.00435 81.1087 5 80.1478C5 79.0652 6.08845 79.0087 6.49771 79.0087V79ZM10.747 79.6C10.8123 79.5696 11.2129 79.4913 11.1955 79.813C11.1824 80.1348 10.9386 80.6913 10.9037 80.9348C11.2303 80.7696 11.6918 80.2087 11.6918 80.2087C11.6918 80.2087 12.0183 80.2522 11.9182 80.4522C11.818 80.6522 11.1519 81.1435 11.1519 81.1435C11.1519 81.1435 11.3043 82.5696 12.1707 82.5696C12.6453 82.5696 12.8499 82.3609 12.937 82.287C12.9587 82.2696 12.9762 82.2652 12.9849 82.2783C13.0197 82.387 12.9936 82.5043 12.9152 82.5913C12.8194 82.6957 12.5974 82.8217 12.1533 82.8261C11.3653 82.8261 10.9255 82.1957 10.8123 81.2609C10.7252 81.5348 10.7339 81.9826 10.7209 82.2C10.6948 82.2435 10.2507 82.4174 10.2158 82.1174C10.2158 82.0913 10.2158 82.0696 10.2158 82.0435C10.1331 82.1609 10.0199 82.2826 9.91108 82.2826C9.71951 82.2826 9.63679 82.1217 9.60196 82.0391C9.57584 82.0696 9.3625 82.287 9.08821 82.287C8.92277 82.2913 8.77474 82.1957 8.70943 82.0435C8.57011 82.1435 8.32195 82.2913 8.03895 82.2913C7.73418 82.2913 7.66017 82.1087 7.66017 81.9565C7.66017 81.713 7.84303 80.987 7.84303 80.987C7.84303 80.987 7.48602 81.1304 7.36411 81.1348C7.19431 81.1348 7.11159 80.8217 7.11159 80.813C7.11159 80.8087 7.11159 80.8 7.1203 80.8C7.22044 80.7609 7.94317 80.513 7.94317 80.513C7.94317 80.513 8.07813 79.9826 8.09555 79.913C8.11296 79.8435 8.2131 79.7 8.33065 79.6565C8.41773 79.6217 8.50916 79.6 8.60059 79.5913C8.63107 79.5913 8.65284 79.6 8.65284 79.6174C8.65284 79.6348 8.47433 80.4087 8.47433 80.4087C8.47433 80.4087 8.84876 80.3217 8.98808 80.3217C9.09692 80.3217 9.15352 80.387 9.09257 80.4696C9.03162 80.5522 8.96196 80.6478 8.92712 80.6913C8.88794 80.7348 8.86182 80.7435 8.77039 80.7609C8.64413 80.787 8.36113 80.8565 8.36113 80.8565C8.36113 80.8565 8.13473 81.6783 8.13909 81.8174C8.13909 81.8957 8.16521 81.987 8.26099 81.987C8.35678 81.987 8.53964 81.8739 8.67025 81.7913C8.69202 81.1522 9.18835 80.7261 9.57584 80.7261C9.7021 80.7261 9.65421 80.8478 9.79788 80.8478H9.88931C9.94591 80.8478 10.0069 80.8522 10.0069 80.9957C10.0069 81.1957 9.89367 81.5261 9.89367 81.7348C9.89367 81.8826 9.91544 81.987 9.97204 81.987C10.0678 81.987 10.1767 81.8478 10.255 81.7261C10.3813 81.0304 10.734 79.7609 10.734 79.6174L10.747 79.6ZM12.5016 80.7C12.7672 80.6783 12.9326 80.8217 12.9631 80.9C12.9936 80.9783 12.9892 81.1609 12.9152 81.2913C12.6845 81.7044 12.1097 81.6304 12.1097 81.6304C12.1097 81.6304 12.0444 81.9565 12.3405 81.9565C12.593 81.9565 12.7062 81.8304 12.8151 81.7261C12.8586 81.7261 12.9936 81.8652 12.9326 81.9609C12.8847 82.0348 12.6191 82.2565 12.2795 82.2609C11.7397 82.2609 11.6047 81.8 11.6744 81.4696C11.7658 81.0609 12.1751 80.7217 12.5016 80.6957V80.7ZM9.6455 80.987C9.32332 80.987 8.82699 81.9696 9.20577 81.9652C9.61938 81.9652 9.6455 81.1826 9.6455 81.0043V80.987ZM12.6409 80.8913C12.4232 80.9 12.1751 81.3174 12.1533 81.5C12.4798 81.513 12.654 81.1957 12.6757 81.0696C12.6888 80.9739 12.6932 80.887 12.6409 80.887V80.8913Z" fill="#557086"/>
<path d="M50.851 79.0672L49.2521 80.8632C49.1826 80.9428 49.1826 81.0572 49.2521 81.1368L50.8461 82.9328C50.9255 83.0224 51.0695 83.0224 51.1539 82.9328L52.7479 81.1368C52.8174 81.0572 52.8174 80.9428 52.7479 80.8632L51.1539 79.0672C51.0745 78.9776 50.9305 78.9776 50.8461 79.0672H50.851Z" fill="white"/>
<path d="M51.6604 79.6343L52.1421 80.1766L50.568 82.6144L49.704 81.6393L51.6604 79.6343Z" fill="#8EA3B2"/>
<path d="M55.851 79.0672L54.2521 80.8632C54.1826 80.9428 54.1826 81.0572 54.2521 81.1368L55.8461 82.9328C55.9255 83.0224 56.0695 83.0224 56.1539 82.9328L57.7479 81.1368C57.8174 81.0572 57.8174 80.9428 57.7479 80.8632L56.1539 79.0672C56.0745 78.9776 55.9305 78.9776 55.8461 79.0672H55.851Z" fill="white"/>
<path d="M56.6604 79.6343L57.1421 80.1766L55.568 82.6144L54.704 81.6393L56.6604 79.6343Z" fill="#8EA3B2"/>
<rect x="13" y="62" width="37" height="13" rx="6.5" fill="#2F4553"/>
<path d="M25.0234 70.072C23.8534 70.072 23.3074 69.058 23.3074 68.002C23.3074 66.946 23.8534 65.938 25.0234 65.938C26.1934 65.938 26.7394 66.946 26.7394 68.002C26.7394 69.058 26.1934 70.072 25.0234 70.072ZM25.0234 69.16C25.5034 69.16 25.6954 68.71 25.6954 68.002C25.6954 67.294 25.5034 66.85 25.0234 66.85C24.5434 66.85 24.3514 67.294 24.3514 68.002C24.3514 68.71 24.5434 69.16 25.0234 69.16ZM27.6116 70.072C27.3056 70.072 27.0476 69.814 27.0476 69.508C27.0476 69.202 27.3056 68.944 27.6116 68.944C27.9176 68.944 28.1756 69.202 28.1756 69.508C28.1756 69.814 27.9176 70.072 27.6116 70.072ZM30.2089 70.072C29.0389 70.072 28.4929 69.058 28.4929 68.002C28.4929 66.946 29.0389 65.938 30.2089 65.938C31.3789 65.938 31.9249 66.946 31.9249 68.002C31.9249 69.058 31.3789 70.072 30.2089 70.072ZM30.2089 69.16C30.6889 69.16 30.8809 68.71 30.8809 68.002C30.8809 67.294 30.6889 66.85 30.2089 66.85C29.7289 66.85 29.5369 67.294 29.5369 68.002C29.5369 68.71 29.7289 69.16 30.2089 69.16ZM35.1651 70H34.1271V69.268H32.2131V68.464L33.7311 65.998H35.1651V68.362H35.6511V69.268H35.1651V70ZM34.1271 68.362V66.898L33.2151 68.362H34.1271ZM38.8863 70H37.8723L37.3143 69.124L36.7503 70H35.7423L36.7323 68.512L35.8023 67.102H36.8163L37.3143 67.888L37.8063 67.102H38.8203L37.8963 68.512L38.8863 70Z" fill="white"/>
<path d="M6.945 11.06C5.945 11.06 5.17 10.36 5.17 9.335C5.17 8.31 5.945 7.61 6.945 7.61C7.68 7.61 8.105 8.01 8.34 8.425L7.73 8.725C7.59 8.455 7.29 8.24 6.945 8.24C6.34 8.24 5.9 8.705 5.9 9.335C5.9 9.965 6.34 10.43 6.945 10.43C7.29 10.43 7.59 10.22 7.73 9.945L8.34 10.24C8.1 10.655 7.68 11.06 6.945 11.06ZM9.86762 11.06C9.07262 11.06 8.59262 10.48 8.59262 9.79C8.59262 9.105 9.07262 8.525 9.86762 8.525C10.6676 8.525 11.1476 9.105 11.1476 9.79C11.1476 10.48 10.6676 11.06 9.86762 11.06ZM9.86762 10.495C10.2626 10.495 10.4876 10.17 10.4876 9.79C10.4876 9.415 10.2626 9.09 9.86762 9.09C9.47262 9.09 9.25262 9.415 9.25262 9.79C9.25262 10.17 9.47262 10.495 9.86762 10.495ZM15.2537 11H14.6137V9.475C14.6137 9.25 14.5137 9.09 14.2537 9.09C14.0287 9.09 13.8437 9.24 13.7537 9.37V11H13.1137V9.475C13.1137 9.25 13.0137 9.09 12.7537 9.09C12.5337 9.09 12.3487 9.24 12.2537 9.375V11H11.6187V8.585H12.2537V8.9C12.3537 8.755 12.6737 8.525 13.0437 8.525C13.3987 8.525 13.6237 8.69 13.7137 8.965C13.8537 8.745 14.1737 8.525 14.5437 8.525C14.9887 8.525 15.2537 8.76 15.2537 9.255V11ZM19.5115 11H18.8715V9.475C18.8715 9.25 18.7715 9.09 18.5115 9.09C18.2865 9.09 18.1015 9.24 18.0115 9.37V11H17.3715V9.475C17.3715 9.25 17.2715 9.09 17.0115 9.09C16.7915 9.09 16.6065 9.24 16.5115 9.375V11H15.8765V8.585H16.5115V8.9C16.6115 8.755 16.9315 8.525 17.3015 8.525C17.6565 8.525 17.8815 8.69 17.9715 8.965C18.1115 8.745 18.4315 8.525 18.8015 8.525C19.2465 8.525 19.5115 8.76 19.5115 9.255V11ZM21.2543 11.06C20.4593 11.06 19.9793 10.48 19.9793 9.79C19.9793 9.105 20.4593 8.525 21.2543 8.525C22.0543 8.525 22.5343 9.105 22.5343 9.79C22.5343 10.48 22.0543 11.06 21.2543 11.06ZM21.2543 10.495C21.6493 10.495 21.8743 10.17 21.8743 9.79C21.8743 9.415 21.6493 9.09 21.2543 9.09C20.8593 9.09 20.6393 9.415 20.6393 9.79C20.6393 10.17 20.8593 10.495 21.2543 10.495ZM25.2704 11H24.6354V9.54C24.6354 9.205 24.4604 9.09 24.1904 9.09C23.9404 9.09 23.7454 9.23 23.6404 9.375V11H23.0054V8.585H23.6404V8.9C23.7954 8.715 24.0904 8.525 24.4854 8.525C25.0154 8.525 25.2704 8.825 25.2704 9.295V11Z" fill="#05080A"/>
<path d="M47.1155 11H46.6635L45.2715 9.096V11H44.8035V8.332H45.2835L46.6475 10.184V8.332H47.1155V11ZM48.5424 11.048C47.9304 11.048 47.5504 10.588 47.5504 10.032C47.5504 9.48 47.9304 9.02 48.5424 9.02C49.1624 9.02 49.5384 9.48 49.5384 10.032C49.5384 10.588 49.1624 11.048 48.5424 11.048ZM48.5424 10.676C48.9024 10.676 49.1024 10.376 49.1024 10.032C49.1024 9.692 48.9024 9.392 48.5424 9.392C48.1864 9.392 47.9864 9.692 47.9864 10.032C47.9864 10.376 48.1864 10.676 48.5424 10.676ZM50.1599 11.044C50.0079 11.044 49.8799 10.916 49.8799 10.764C49.8799 10.612 50.0079 10.484 50.1599 10.484C50.3119 10.484 50.4399 10.612 50.4399 10.764C50.4399 10.916 50.3119 11.044 50.1599 11.044ZM52.9157 11H52.4477V8.94L52.0117 9.392L51.7397 9.108L52.5077 8.332H52.9157V11ZM54.4152 11.048C53.9552 11.048 53.6392 10.892 53.4232 10.636L53.6912 10.316C53.8712 10.52 54.1112 10.632 54.4112 10.632C54.7472 10.632 54.9592 10.424 54.9592 10.164C54.9592 9.876 54.7512 9.688 54.4232 9.688C54.1952 9.688 54.0072 9.76 53.8392 9.92L53.5072 9.824V8.332H55.2552V8.744H53.9752V9.516C54.1032 9.388 54.3232 9.284 54.5792 9.284C55.0272 9.284 55.4312 9.6 55.4312 10.144C55.4312 10.7 55.0112 11.048 54.4152 11.048ZM56.6577 11.044C56.3297 11.044 56.0737 10.928 55.8937 10.748L56.1097 10.396C56.2497 10.54 56.4057 10.628 56.6577 10.628C57.1417 10.628 57.3617 10.188 57.3617 9.752C57.3617 9.724 57.3617 9.7 57.3617 9.672C57.2377 9.852 56.9577 10.048 56.6457 10.048C56.1657 10.048 55.7497 9.752 55.7497 9.184C55.7497 8.692 56.1377 8.288 56.7337 8.288C57.5177 8.288 57.8337 8.924 57.8337 9.668C57.8337 10.436 57.4297 11.044 56.6577 11.044ZM56.7697 9.644C56.9977 9.644 57.2217 9.524 57.3537 9.332C57.3297 9.044 57.1697 8.704 56.7577 8.704C56.4097 8.704 56.2257 8.956 56.2257 9.168C56.2257 9.496 56.4817 9.644 56.7697 9.644Z" fill="white"/>
<defs>
<clipPath id="clip0_26835_29322">
<rect width="63" height="88" fill="white"/>
</clipPath>
</defs>
</svg>
