<svg width="63" height="88" viewBox="0 0 63 88" fill="none" xmlns="http://www.w3.org/2000/svg">
<rect width="63" height="88" rx="4" fill="#55DFFF"/>
<path d="M36.7008 13.5133L44.7992 3.48665C45.5586 2.54645 46.7024 2 47.911 2H58C59.6569 2 61 3.34314 61 5V83C61 84.6569 59.6569 86 58 86H5C3.34315 86 2 84.6569 2 83V18C2 16.3431 3.34315 15 5 15H33.589C34.7976 15 35.9414 14.4536 36.7008 13.5133Z" fill="#213743"/>
<rect x="5" y="18" width="53" height="40" rx="1" fill="#2F4553"/>
<path d="M34.3439 56.2899C40.9783 56.2899 46.3566 55.2143 46.3566 53.8874C46.3566 52.5605 40.9783 51.4849 34.3439 51.4849C27.7095 51.4849 22.3313 52.5605 22.3313 53.8874C22.3313 55.2143 27.7095 56.2899 34.3439 56.2899Z" fill="#1A2C38"/>
<path d="M46.5878 52.9836C45.5499 54.0311 43.8489 54.0311 42.8014 52.9836L32.855 43.0371L36.6414 39.2507L46.5878 49.1972C47.6353 50.2447 47.6353 51.9361 46.5878 52.9836Z" fill="#56DEFF"/>
<path d="M38.0348 41.5764C37.7754 43.0083 37.66 45.0361 36.084 46.2662L34.0947 44.2769C34.0851 43.9886 34.0851 43.7867 34.0851 43.7867L38.0348 41.5764Z" fill="#1A2C38"/>
<path d="M28.146 46.7852C35.0617 46.7852 40.668 41.1789 40.668 34.2632C40.668 27.3475 35.0617 21.7412 28.146 21.7412C21.2303 21.7412 15.624 27.3475 15.624 34.2632C15.624 41.1789 21.2303 46.7852 28.146 46.7852Z" fill="#56DEFF"/>
<path d="M15.7106 32.7544L15.9508 30.9573H40.3317L40.5719 32.7544H15.7106Z" fill="#56DEFF"/>
<path d="M28.146 44.8919C34.9397 44.8919 40.447 39.3846 40.447 32.591C40.447 25.7974 34.9397 20.29 28.146 20.29C21.3524 20.29 15.8451 25.7974 15.8451 32.591C15.8451 39.3846 21.3524 44.8919 28.146 44.8919Z" fill="#56DEFF"/>
<path d="M28.146 41.9127C33.2943 41.9127 37.4678 37.7391 37.4678 32.5908C37.4678 27.4426 33.2943 23.269 28.146 23.269C22.9977 23.269 18.8242 27.4426 18.8242 32.5908C18.8242 37.7391 22.9977 41.9127 28.146 41.9127Z" fill="#8EA3B2"/>
<path d="M33.1529 40.4425C31.4808 37.4922 20.5348 26.1907 19.1702 30.102C19.1414 30.1885 19.1222 30.2846 19.1029 30.3711C19.0645 30.5345 19.0164 30.7844 18.9588 31.0919C18.4975 33.9461 19.3624 36.9733 21.5631 39.174C24.7152 42.3261 29.5587 42.7393 33.1625 40.4425H33.1529Z" fill="#557086"/>
<path d="M34.0467 27.3725C35.2575 28.5834 36.1417 29.9576 36.6222 31.4088C37.1507 33.0137 37.5832 33.1866 37.4006 31.5337C37.1699 29.5156 36.2858 27.5455 34.7386 25.9983C31.0964 22.356 25.1958 22.356 21.5535 25.9983C20.4772 27.0746 20.3619 27.7665 21.1883 26.9497C24.8306 23.3074 30.414 23.7399 34.0563 27.3821L34.0467 27.3725Z" fill="#557086"/>
<path d="M35.2586 30.4307C36.0092 29.6801 35.4007 27.8547 33.8996 26.3535C32.3984 24.8523 30.5729 24.2438 29.8223 24.9944C29.0717 25.745 29.6802 27.5705 31.1814 29.0717C32.6826 30.5729 34.508 31.1813 35.2586 30.4307Z" fill="white"/>
<path fill-rule="evenodd" clip-rule="evenodd" d="M6.49771 79C6.98969 79 7.48602 79.213 7.49037 79.6913C7.49037 80.1043 7.24656 80.2696 6.99839 80.2696C6.75023 80.2696 6.73281 80.1435 6.73281 80.1435C6.73281 80.1435 7.02452 79.9261 7.02452 79.7174C7.02452 79.6087 6.94179 79.313 6.489 79.3174C5.8577 79.3174 5.5181 79.6174 5.5181 80.1522C5.5181 80.7652 7.35105 80.9739 7.3554 81.7652C7.3554 82.613 6.47594 82.9957 5.69225 83C5.283 83 5.01306 82.7609 5.00871 82.3783C5.00871 81.9261 5.22204 81.4652 5.75756 81.4652C5.88382 81.4565 5.98831 81.5522 5.99702 81.6783C5.99702 81.6783 5.99702 81.6826 5.99702 81.687C5.99702 81.687 5.45715 81.8391 5.4615 82.3783C5.4615 82.4783 5.56599 82.6609 5.81851 82.6565C6.07103 82.6522 6.82424 82.4739 6.81989 81.8087C6.81989 81.1913 5.00435 81.1087 5 80.1478C5 79.0652 6.08845 79.0087 6.49771 79.0087V79ZM10.747 79.6C10.8123 79.5696 11.2129 79.4913 11.1955 79.813C11.1824 80.1348 10.9386 80.6913 10.9037 80.9348C11.2303 80.7696 11.6918 80.2087 11.6918 80.2087C11.6918 80.2087 12.0183 80.2522 11.9182 80.4522C11.818 80.6522 11.1519 81.1435 11.1519 81.1435C11.1519 81.1435 11.3043 82.5696 12.1707 82.5696C12.6453 82.5696 12.8499 82.3609 12.937 82.287C12.9587 82.2696 12.9762 82.2652 12.9849 82.2783C13.0197 82.387 12.9936 82.5043 12.9152 82.5913C12.8194 82.6957 12.5974 82.8217 12.1533 82.8261C11.3653 82.8261 10.9255 82.1957 10.8123 81.2609C10.7252 81.5348 10.7339 81.9826 10.7209 82.2C10.6948 82.2435 10.2507 82.4174 10.2158 82.1174C10.2158 82.0913 10.2158 82.0696 10.2158 82.0435C10.1331 82.1609 10.0199 82.2826 9.91108 82.2826C9.71951 82.2826 9.63679 82.1217 9.60196 82.0391C9.57584 82.0696 9.3625 82.287 9.08821 82.287C8.92277 82.2913 8.77474 82.1957 8.70943 82.0435C8.57011 82.1435 8.32195 82.2913 8.03895 82.2913C7.73418 82.2913 7.66017 82.1087 7.66017 81.9565C7.66017 81.713 7.84303 80.987 7.84303 80.987C7.84303 80.987 7.48602 81.1304 7.36411 81.1348C7.19431 81.1348 7.11159 80.8217 7.11159 80.813C7.11159 80.8087 7.11159 80.8 7.1203 80.8C7.22044 80.7609 7.94317 80.513 7.94317 80.513C7.94317 80.513 8.07813 79.9826 8.09555 79.913C8.11296 79.8435 8.2131 79.7 8.33065 79.6565C8.41773 79.6217 8.50916 79.6 8.60059 79.5913C8.63107 79.5913 8.65284 79.6 8.65284 79.6174C8.65284 79.6348 8.47433 80.4087 8.47433 80.4087C8.47433 80.4087 8.84876 80.3217 8.98808 80.3217C9.09692 80.3217 9.15352 80.387 9.09257 80.4696C9.03162 80.5522 8.96196 80.6478 8.92712 80.6913C8.88794 80.7348 8.86182 80.7435 8.77039 80.7609C8.64413 80.787 8.36113 80.8565 8.36113 80.8565C8.36113 80.8565 8.13473 81.6783 8.13909 81.8174C8.13909 81.8957 8.16521 81.987 8.26099 81.987C8.35678 81.987 8.53964 81.8739 8.67025 81.7913C8.69202 81.1522 9.18835 80.7261 9.57584 80.7261C9.7021 80.7261 9.65421 80.8478 9.79788 80.8478H9.88931C9.94591 80.8478 10.0069 80.8522 10.0069 80.9957C10.0069 81.1957 9.89367 81.5261 9.89367 81.7348C9.89367 81.8826 9.91544 81.987 9.97204 81.987C10.0678 81.987 10.1767 81.8478 10.255 81.7261C10.3813 81.0304 10.734 79.7609 10.734 79.6174L10.747 79.6ZM12.5016 80.7C12.7672 80.6783 12.9326 80.8217 12.9631 80.9C12.9936 80.9783 12.9892 81.1609 12.9152 81.2913C12.6845 81.7044 12.1097 81.6304 12.1097 81.6304C12.1097 81.6304 12.0444 81.9565 12.3405 81.9565C12.593 81.9565 12.7062 81.8304 12.8151 81.7261C12.8586 81.7261 12.9936 81.8652 12.9326 81.9609C12.8847 82.0348 12.6191 82.2565 12.2795 82.2609C11.7397 82.2609 11.6047 81.8 11.6744 81.4696C11.7658 81.0609 12.1751 80.7217 12.5016 80.6957V80.7ZM9.6455 80.987C9.32332 80.987 8.82699 81.9696 9.20577 81.9652C9.61938 81.9652 9.6455 81.1826 9.6455 81.0043V80.987ZM12.6409 80.8913C12.4232 80.9 12.1751 81.3174 12.1533 81.5C12.4798 81.513 12.654 81.1957 12.6757 81.0696C12.6888 80.9739 12.6932 80.887 12.6409 80.887V80.8913Z" fill="#557086"/>
<path d="M50.851 79.0672L49.2521 80.8632C49.1826 80.9428 49.1826 81.0572 49.2521 81.1368L50.846 82.9328C50.9255 83.0224 51.0695 83.0224 51.1539 82.9328L52.7478 81.1368C52.8173 81.0572 52.8173 80.9428 52.7478 80.8632L51.1539 79.0672C51.0744 78.9776 50.9304 78.9776 50.846 79.0672H50.851Z" fill="white"/>
<path d="M51.6604 79.6343L52.142 80.1766L50.568 82.6144L49.704 81.6393L51.6604 79.6343Z" fill="#8EA3B2"/>
<path d="M55.851 79.0672L54.2521 80.8632C54.1826 80.9428 54.1826 81.0572 54.2521 81.1368L55.846 82.9328C55.9255 83.0224 56.0695 83.0224 56.1539 82.9328L57.7478 81.1368C57.8173 81.0572 57.8173 80.9428 57.7478 80.8632L56.1539 79.0672C56.0744 78.9776 55.9304 78.9776 55.846 79.0672H55.851Z" fill="white"/>
<path d="M56.6604 79.6343L57.142 80.1766L55.568 82.6144L54.704 81.6393L56.6604 79.6343Z" fill="#8EA3B2"/>
<rect x="13" y="62" width="37" height="13" rx="6.5" fill="#2F4553"/>
<path d="M25.0673 70.072C23.8973 70.072 23.3513 69.058 23.3513 68.002C23.3513 66.946 23.8973 65.938 25.0673 65.938C26.2373 65.938 26.7833 66.946 26.7833 68.002C26.7833 69.058 26.2373 70.072 25.0673 70.072ZM25.0673 69.16C25.5473 69.16 25.7393 68.71 25.7393 68.002C25.7393 67.294 25.5473 66.85 25.0673 66.85C24.5873 66.85 24.3953 67.294 24.3953 68.002C24.3953 68.71 24.5873 69.16 25.0673 69.16ZM27.6556 70.072C27.3496 70.072 27.0916 69.814 27.0916 69.508C27.0916 69.202 27.3496 68.944 27.6556 68.944C27.9616 68.944 28.2196 69.202 28.2196 69.508C28.2196 69.814 27.9616 70.072 27.6556 70.072ZM30.2529 70.072C29.0829 70.072 28.5369 69.058 28.5369 68.002C28.5369 66.946 29.0829 65.938 30.2529 65.938C31.4229 65.938 31.9689 66.946 31.9689 68.002C31.9689 69.058 31.4229 70.072 30.2529 70.072ZM30.2529 69.16C30.7329 69.16 30.9249 68.71 30.9249 68.002C30.9249 67.294 30.7329 66.85 30.2529 66.85C29.7729 66.85 29.5809 67.294 29.5809 68.002C29.5809 68.71 29.7729 69.16 30.2529 69.16ZM33.877 70.072C33.109 70.072 32.533 69.802 32.221 69.442L32.743 68.74C33.031 69.022 33.487 69.16 33.835 69.16C34.279 69.16 34.507 68.992 34.507 68.77C34.507 68.542 34.339 68.434 33.793 68.434C33.619 68.434 33.313 68.434 33.253 68.44V67.522C33.331 67.528 33.643 67.528 33.793 67.528C34.207 67.528 34.441 67.426 34.441 67.216C34.441 66.964 34.153 66.85 33.769 66.85C33.403 66.85 33.055 66.982 32.773 67.234L32.275 66.586C32.611 66.208 33.139 65.938 33.877 65.938C34.897 65.938 35.467 66.376 35.467 67.036C35.467 67.504 35.065 67.858 34.591 67.936C35.017 67.978 35.533 68.308 35.533 68.884C35.533 69.586 34.873 70.072 33.877 70.072ZM38.8424 70H37.8284L37.2704 69.124L36.7064 70H35.6984L36.6884 68.512L35.7584 67.102H36.7724L37.2704 67.888L37.7624 67.102H38.7764L37.8524 68.512L38.8424 70Z" fill="white"/>
<path d="M6.945 11.06C5.945 11.06 5.17 10.36 5.17 9.335C5.17 8.31 5.945 7.61 6.945 7.61C7.68 7.61 8.105 8.01 8.34 8.425L7.73 8.725C7.59 8.455 7.29 8.24 6.945 8.24C6.34 8.24 5.9 8.705 5.9 9.335C5.9 9.965 6.34 10.43 6.945 10.43C7.29 10.43 7.59 10.22 7.73 9.945L8.34 10.24C8.1 10.655 7.68 11.06 6.945 11.06ZM9.86762 11.06C9.07262 11.06 8.59262 10.48 8.59262 9.79C8.59262 9.105 9.07262 8.525 9.86762 8.525C10.6676 8.525 11.1476 9.105 11.1476 9.79C11.1476 10.48 10.6676 11.06 9.86762 11.06ZM9.86762 10.495C10.2626 10.495 10.4876 10.17 10.4876 9.79C10.4876 9.415 10.2626 9.09 9.86762 9.09C9.47262 9.09 9.25262 9.415 9.25262 9.79C9.25262 10.17 9.47262 10.495 9.86762 10.495ZM15.2537 11H14.6137V9.475C14.6137 9.25 14.5137 9.09 14.2537 9.09C14.0287 9.09 13.8437 9.24 13.7537 9.37V11H13.1137V9.475C13.1137 9.25 13.0137 9.09 12.7537 9.09C12.5337 9.09 12.3487 9.24 12.2537 9.375V11H11.6187V8.585H12.2537V8.9C12.3537 8.755 12.6737 8.525 13.0437 8.525C13.3987 8.525 13.6237 8.69 13.7137 8.965C13.8537 8.745 14.1737 8.525 14.5437 8.525C14.9887 8.525 15.2537 8.76 15.2537 9.255V11ZM19.5115 11H18.8715V9.475C18.8715 9.25 18.7715 9.09 18.5115 9.09C18.2865 9.09 18.1015 9.24 18.0115 9.37V11H17.3715V9.475C17.3715 9.25 17.2715 9.09 17.0115 9.09C16.7915 9.09 16.6065 9.24 16.5115 9.375V11H15.8765V8.585H16.5115V8.9C16.6115 8.755 16.9315 8.525 17.3015 8.525C17.6565 8.525 17.8815 8.69 17.9715 8.965C18.1115 8.745 18.4315 8.525 18.8015 8.525C19.2465 8.525 19.5115 8.76 19.5115 9.255V11ZM21.2543 11.06C20.4593 11.06 19.9793 10.48 19.9793 9.79C19.9793 9.105 20.4593 8.525 21.2543 8.525C22.0543 8.525 22.5343 9.105 22.5343 9.79C22.5343 10.48 22.0543 11.06 21.2543 11.06ZM21.2543 10.495C21.6493 10.495 21.8743 10.17 21.8743 9.79C21.8743 9.415 21.6493 9.09 21.2543 9.09C20.8593 9.09 20.6393 9.415 20.6393 9.79C20.6393 10.17 20.8593 10.495 21.2543 10.495ZM25.2704 11H24.6354V9.54C24.6354 9.205 24.4604 9.09 24.1904 9.09C23.9404 9.09 23.7454 9.23 23.6404 9.375V11H23.0054V8.585H23.6404V8.9C23.7954 8.715 24.0904 8.525 24.4854 8.525C25.0154 8.525 25.2704 8.825 25.2704 9.295V11Z" fill="#05080A"/>
<path d="M47.1116 11H46.6596L45.2676 9.096V11H44.7996V8.332H45.2796L46.6436 10.184V8.332H47.1116V11ZM48.5385 11.048C47.9265 11.048 47.5465 10.588 47.5465 10.032C47.5465 9.48 47.9265 9.02 48.5385 9.02C49.1585 9.02 49.5345 9.48 49.5345 10.032C49.5345 10.588 49.1585 11.048 48.5385 11.048ZM48.5385 10.676C48.8985 10.676 49.0985 10.376 49.0985 10.032C49.0985 9.692 48.8985 9.392 48.5385 9.392C48.1825 9.392 47.9825 9.692 47.9825 10.032C47.9825 10.376 48.1825 10.676 48.5385 10.676ZM50.156 11.044C50.004 11.044 49.876 10.916 49.876 10.764C49.876 10.612 50.004 10.484 50.156 10.484C50.308 10.484 50.436 10.612 50.436 10.764C50.436 10.916 50.308 11.044 50.156 11.044ZM52.9118 11H52.4438V8.94L52.0078 9.392L51.7358 9.108L52.5038 8.332H52.9118V11ZM54.4593 11.048C53.6753 11.048 53.3593 10.412 53.3593 9.672C53.3593 8.9 53.7633 8.292 54.5353 8.292C54.8673 8.292 55.1233 8.412 55.3033 8.588L55.0833 8.944C54.9433 8.796 54.7913 8.708 54.5353 8.708C54.0913 8.708 53.8313 9.12 53.8313 9.588C53.8313 9.616 53.8313 9.64 53.8353 9.664C53.9553 9.484 54.2353 9.292 54.5513 9.292C55.0313 9.292 55.4433 9.584 55.4433 10.152C55.4433 10.648 55.0553 11.048 54.4593 11.048ZM54.4353 10.632C54.7873 10.632 54.9713 10.384 54.9713 10.168C54.9713 9.84 54.7153 9.692 54.4233 9.692C54.1953 9.692 53.9753 9.816 53.8393 10.008C53.8673 10.296 54.0233 10.632 54.4353 10.632ZM56.8617 11.048C56.0777 11.048 55.7617 10.412 55.7617 9.672C55.7617 8.9 56.1657 8.292 56.9377 8.292C57.2697 8.292 57.5257 8.412 57.7057 8.588L57.4857 8.944C57.3457 8.796 57.1937 8.708 56.9377 8.708C56.4937 8.708 56.2337 9.12 56.2337 9.588C56.2337 9.616 56.2337 9.64 56.2377 9.664C56.3577 9.484 56.6377 9.292 56.9537 9.292C57.4337 9.292 57.8457 9.584 57.8457 10.152C57.8457 10.648 57.4577 11.048 56.8617 11.048ZM56.8377 10.632C57.1897 10.632 57.3737 10.384 57.3737 10.168C57.3737 9.84 57.1177 9.692 56.8257 9.692C56.5977 9.692 56.3777 9.816 56.2417 10.008C56.2697 10.296 56.4257 10.632 56.8377 10.632Z" fill="white"/>
</svg>
