<svg width="63" height="88" viewBox="0 0 63 88" fill="none" xmlns="http://www.w3.org/2000/svg">
<rect width="63" height="88" rx="4" fill="#55DFFF"/>
<path d="M36.7008 13.5133L44.7992 3.48665C45.5586 2.54645 46.7024 2 47.911 2H58C59.6569 2 61 3.34314 61 5V83C61 84.6569 59.6569 86 58 86H5C3.34315 86 2 84.6569 2 83V18C2 16.3431 3.34315 15 5 15H33.589C34.7976 15 35.9414 14.4536 36.7008 13.5133Z" fill="#213743"/>
<rect x="5" y="18" width="53" height="40" rx="1" fill="#2F4553"/>
<path d="M39.6 52.76C39.6 54.43 38.62 55.79 21.94 55.79C17.07 55.79 13.13 54.43 13.13 52.76C13.13 51.09 17.08 49.73 21.94 49.73C26.8 49.73 39.6 51.09 39.6 52.76Z" fill="#1A2C38"/>
<path d="M42.5501 49.51C42.5001 49.46 42.4401 49.41 42.3601 49.36C42.3401 49.35 42.3301 49.33 42.3101 49.32C41.0401 48.57 36.6901 48.01 31.5001 48.01C26.3101 48.01 21.9601 48.56 20.6901 49.31C20.6801 49.31 20.6701 49.33 20.6501 49.34C20.5601 49.39 20.4901 49.45 20.4401 49.5C18.9201 50.62 19.0901 53.04 20.5201 54.16C22.5701 56.2 38.9201 56.29 42.1401 54.41C42.1401 54.41 42.1401 54.41 42.1501 54.4C42.2801 54.32 42.3801 54.24 42.4701 54.16C43.9101 53.04 44.0701 50.61 42.5501 49.49V49.51Z" fill="#557086"/>
<path d="M26.6 51.59C29.74 52.15 32.98 52.17 36.33 51.59C37.33 51.42 38.3 51.04 39.13 50.45C40.05 49.8 40.96 48.81 40.96 47.45C40.96 42.25 33.13 38.03 31.5 38.03C29.87 38.03 22.04 42.25 22.04 47.45C22.04 48.83 22.96 49.83 23.88 50.47C24.69 51.04 25.63 51.41 26.6 51.58V51.59Z" fill="#55DFFF"/>
<path d="M20.12 25.4399C19.37 24.5599 43.71 24.4599 42.87 25.4899C42.03 26.5199 33.77 26.4999 31.52 26.4999C29.27 26.4999 21.18 26.6899 20.12 25.4299V25.4399Z" fill="#8EA3B2"/>
<path d="M43.28 22.71C42.85 21.97 41.59 21.66 40.78 21.56C37.48 21.05 25.53 21.05 22.23 21.56C21.42 21.66 20.16 21.97 19.73 22.71C19.5 23.04 19.35 23.44 19.35 23.88C19.35 24.35 19.51 24.78 19.78 25.13C20.23 25.7 21.06 25.97 21.71 25.65C23.77 24.62 39.23 24.62 41.3 25.65C41.95 25.97 42.78 25.7 43.23 25.13C43.5 24.79 43.66 24.35 43.66 23.88C43.66 23.44 43.52 23.04 43.28 22.71Z" fill="#8EA3B2"/>
<path d="M35.8 25.7801C33.56 25.6801 29.49 25.6801 27.23 25.7801C25.9 25.8401 24.61 26.2701 23.57 27.0901C22.76 27.7301 22.04 28.6501 22.04 29.8601C22.04 35.0601 29.87 39.2801 31.5 39.2801C33.13 39.2801 40.96 35.0601 40.96 29.8601C40.96 28.6301 40.24 27.7201 39.43 27.0701C38.4 26.2501 37.11 25.8201 35.79 25.7701L35.8 25.7801Z" fill="#55DFFF"/>
<path d="M37.93 48.6C37.78 48.87 35.88 50.06 31.5 50.06C27.12 50.06 25.16 48.9 25.07 48.6C24.56 46.99 27.95 43.21 31.5 43.21C35.05 43.21 38.69 47.19 37.93 48.6Z" fill="#557086"/>
<path d="M38.8383 48.6775C39.6065 48.1873 39.4679 46.5972 38.529 45.1262C37.59 43.6551 36.2061 42.86 35.4379 43.3503C34.6698 43.8406 34.8083 45.4306 35.7473 46.9017C36.6863 48.3728 38.0702 49.1678 38.8383 48.6775Z" fill="white"/>
<path d="M31.5 35.75C33.6816 35.75 35.4501 35.4097 35.4501 34.99C35.4501 34.5702 33.6816 34.23 31.5 34.23C29.3185 34.23 27.55 34.5702 27.55 34.99C27.55 35.4097 29.3185 35.75 31.5 35.75Z" fill="#557086"/>
<path d="M25.72 33.1001C24.44 33.1001 23.4 31.9201 23.4 30.4701C23.4 29.0201 24.44 27.8401 25.72 27.8401C27 27.8401 27.08 29.0201 27.08 30.4701C27.08 31.9201 27.01 33.1001 25.72 33.1001Z" fill="white"/>
<path d="M27.7001 35.2C28.4601 35.67 29.2301 36.3 29.8201 36.7C30.3301 37.05 30.6301 37.6099 30.6301 38.2299V48.18H32.2201V38.2299C32.2201 37.6199 32.5301 37.05 33.0301 36.7C33.6101 36.31 34.4201 35.7 35.2201 35.24L27.6901 35.2H27.7001Z" fill="#557086"/>
<path fill-rule="evenodd" clip-rule="evenodd" d="M6.49771 79C6.98969 79 7.48602 79.213 7.49037 79.6913C7.49037 80.1043 7.24656 80.2696 6.99839 80.2696C6.75023 80.2696 6.73281 80.1435 6.73281 80.1435C6.73281 80.1435 7.02452 79.9261 7.02452 79.7174C7.02452 79.6087 6.94179 79.313 6.489 79.3174C5.8577 79.3174 5.5181 79.6174 5.5181 80.1522C5.5181 80.7652 7.35105 80.9739 7.3554 81.7652C7.3554 82.613 6.47594 82.9957 5.69225 83C5.283 83 5.01306 82.7609 5.00871 82.3783C5.00871 81.9261 5.22204 81.4652 5.75756 81.4652C5.88382 81.4565 5.98831 81.5522 5.99702 81.6783C5.99702 81.6783 5.99702 81.6826 5.99702 81.687C5.99702 81.687 5.45715 81.8391 5.4615 82.3783C5.4615 82.4783 5.56599 82.6609 5.81851 82.6565C6.07103 82.6522 6.82424 82.4739 6.81989 81.8087C6.81989 81.1913 5.00435 81.1087 5 80.1478C5 79.0652 6.08845 79.0087 6.49771 79.0087V79ZM10.747 79.6C10.8123 79.5696 11.2129 79.4913 11.1955 79.813C11.1824 80.1348 10.9386 80.6913 10.9037 80.9348C11.2303 80.7696 11.6918 80.2087 11.6918 80.2087C11.6918 80.2087 12.0183 80.2522 11.9182 80.4522C11.818 80.6522 11.1519 81.1435 11.1519 81.1435C11.1519 81.1435 11.3043 82.5696 12.1707 82.5696C12.6453 82.5696 12.8499 82.3609 12.937 82.287C12.9587 82.2696 12.9762 82.2652 12.9849 82.2783C13.0197 82.387 12.9936 82.5043 12.9152 82.5913C12.8194 82.6957 12.5974 82.8217 12.1533 82.8261C11.3653 82.8261 10.9255 82.1957 10.8123 81.2609C10.7252 81.5348 10.7339 81.9826 10.7209 82.2C10.6948 82.2435 10.2507 82.4174 10.2158 82.1174C10.2158 82.0913 10.2158 82.0696 10.2158 82.0435C10.1331 82.1609 10.0199 82.2826 9.91108 82.2826C9.71951 82.2826 9.63679 82.1217 9.60196 82.0391C9.57584 82.0696 9.3625 82.287 9.08821 82.287C8.92277 82.2913 8.77474 82.1957 8.70943 82.0435C8.57011 82.1435 8.32195 82.2913 8.03895 82.2913C7.73418 82.2913 7.66017 82.1087 7.66017 81.9565C7.66017 81.713 7.84303 80.987 7.84303 80.987C7.84303 80.987 7.48602 81.1304 7.36411 81.1348C7.19431 81.1348 7.11159 80.8217 7.11159 80.813C7.11159 80.8087 7.11159 80.8 7.1203 80.8C7.22044 80.7609 7.94317 80.513 7.94317 80.513C7.94317 80.513 8.07813 79.9826 8.09555 79.913C8.11296 79.8435 8.2131 79.7 8.33065 79.6565C8.41773 79.6217 8.50916 79.6 8.60059 79.5913C8.63107 79.5913 8.65284 79.6 8.65284 79.6174C8.65284 79.6348 8.47433 80.4087 8.47433 80.4087C8.47433 80.4087 8.84876 80.3217 8.98808 80.3217C9.09692 80.3217 9.15352 80.387 9.09257 80.4696C9.03162 80.5522 8.96196 80.6478 8.92712 80.6913C8.88794 80.7348 8.86182 80.7435 8.77039 80.7609C8.64413 80.787 8.36113 80.8565 8.36113 80.8565C8.36113 80.8565 8.13473 81.6783 8.13909 81.8174C8.13909 81.8957 8.16521 81.987 8.26099 81.987C8.35678 81.987 8.53964 81.8739 8.67025 81.7913C8.69202 81.1522 9.18835 80.7261 9.57584 80.7261C9.7021 80.7261 9.65421 80.8478 9.79788 80.8478H9.88931C9.94591 80.8478 10.0069 80.8522 10.0069 80.9957C10.0069 81.1957 9.89367 81.5261 9.89367 81.7348C9.89367 81.8826 9.91544 81.987 9.97204 81.987C10.0678 81.987 10.1767 81.8478 10.255 81.7261C10.3813 81.0304 10.734 79.7609 10.734 79.6174L10.747 79.6ZM12.5016 80.7C12.7672 80.6783 12.9326 80.8217 12.9631 80.9C12.9936 80.9783 12.9892 81.1609 12.9152 81.2913C12.6845 81.7044 12.1097 81.6304 12.1097 81.6304C12.1097 81.6304 12.0444 81.9565 12.3405 81.9565C12.593 81.9565 12.7062 81.8304 12.8151 81.7261C12.8586 81.7261 12.9936 81.8652 12.9326 81.9609C12.8847 82.0348 12.6191 82.2565 12.2795 82.2609C11.7397 82.2609 11.6047 81.8 11.6744 81.4696C11.7658 81.0609 12.1751 80.7217 12.5016 80.6957V80.7ZM9.6455 80.987C9.32332 80.987 8.82699 81.9696 9.20577 81.9652C9.61938 81.9652 9.6455 81.1826 9.6455 81.0043V80.987ZM12.6409 80.8913C12.4232 80.9 12.1751 81.3174 12.1533 81.5C12.4798 81.513 12.654 81.1957 12.6757 81.0696C12.6888 80.9739 12.6932 80.887 12.6409 80.887V80.8913Z" fill="#557086"/>
<path d="M50.851 79.0672L49.2521 80.8632C49.1826 80.9428 49.1826 81.0572 49.2521 81.1368L50.846 82.9328C50.9255 83.0224 51.0695 83.0224 51.1539 82.9328L52.7478 81.1368C52.8173 81.0572 52.8173 80.9428 52.7478 80.8632L51.1539 79.0672C51.0744 78.9776 50.9304 78.9776 50.846 79.0672H50.851Z" fill="white"/>
<path d="M51.6604 79.6343L52.142 80.1766L50.568 82.6144L49.704 81.6393L51.6604 79.6343Z" fill="#8EA3B2"/>
<path d="M55.851 79.0672L54.2521 80.8632C54.1826 80.9428 54.1826 81.0572 54.2521 81.1368L55.846 82.9328C55.9255 83.0224 56.0695 83.0224 56.1539 82.9328L57.7478 81.1368C57.8173 81.0572 57.8173 80.9428 57.7478 80.8632L56.1539 79.0672C56.0744 78.9776 55.9304 78.9776 55.846 79.0672H55.851Z" fill="white"/>
<path d="M56.6604 79.6343L57.142 80.1766L55.568 82.6144L54.704 81.6393L56.6604 79.6343Z" fill="#8EA3B2"/>
<rect x="13" y="62" width="37" height="13" rx="6.5" fill="#2F4553"/>
<path d="M25.0673 70.072C23.8973 70.072 23.3513 69.058 23.3513 68.002C23.3513 66.946 23.8973 65.938 25.0673 65.938C26.2373 65.938 26.7833 66.946 26.7833 68.002C26.7833 69.058 26.2373 70.072 25.0673 70.072ZM25.0673 69.16C25.5473 69.16 25.7393 68.71 25.7393 68.002C25.7393 67.294 25.5473 66.85 25.0673 66.85C24.5873 66.85 24.3953 67.294 24.3953 68.002C24.3953 68.71 24.5873 69.16 25.0673 69.16ZM27.6556 70.072C27.3496 70.072 27.0916 69.814 27.0916 69.508C27.0916 69.202 27.3496 68.944 27.6556 68.944C27.9616 68.944 28.2196 69.202 28.2196 69.508C28.2196 69.814 27.9616 70.072 27.6556 70.072ZM30.2529 70.072C29.0829 70.072 28.5369 69.058 28.5369 68.002C28.5369 66.946 29.0829 65.938 30.2529 65.938C31.4229 65.938 31.9689 66.946 31.9689 68.002C31.9689 69.058 31.4229 70.072 30.2529 70.072ZM30.2529 69.16C30.7329 69.16 30.9249 68.71 30.9249 68.002C30.9249 67.294 30.7329 66.85 30.2529 66.85C29.7729 66.85 29.5809 67.294 29.5809 68.002C29.5809 68.71 29.7729 69.16 30.2529 69.16ZM33.877 70.072C33.109 70.072 32.533 69.802 32.221 69.442L32.743 68.74C33.031 69.022 33.487 69.16 33.835 69.16C34.279 69.16 34.507 68.992 34.507 68.77C34.507 68.542 34.339 68.434 33.793 68.434C33.619 68.434 33.313 68.434 33.253 68.44V67.522C33.331 67.528 33.643 67.528 33.793 67.528C34.207 67.528 34.441 67.426 34.441 67.216C34.441 66.964 34.153 66.85 33.769 66.85C33.403 66.85 33.055 66.982 32.773 67.234L32.275 66.586C32.611 66.208 33.139 65.938 33.877 65.938C34.897 65.938 35.467 66.376 35.467 67.036C35.467 67.504 35.065 67.858 34.591 67.936C35.017 67.978 35.533 68.308 35.533 68.884C35.533 69.586 34.873 70.072 33.877 70.072ZM38.8424 70H37.8284L37.2704 69.124L36.7064 70H35.6984L36.6884 68.512L35.7584 67.102H36.7724L37.2704 67.888L37.7624 67.102H38.7764L37.8524 68.512L38.8424 70Z" fill="white"/>
<path d="M6.945 11.06C5.945 11.06 5.17 10.36 5.17 9.335C5.17 8.31 5.945 7.61 6.945 7.61C7.68 7.61 8.105 8.01 8.34 8.425L7.73 8.725C7.59 8.455 7.29 8.24 6.945 8.24C6.34 8.24 5.9 8.705 5.9 9.335C5.9 9.965 6.34 10.43 6.945 10.43C7.29 10.43 7.59 10.22 7.73 9.945L8.34 10.24C8.1 10.655 7.68 11.06 6.945 11.06ZM9.86762 11.06C9.07262 11.06 8.59262 10.48 8.59262 9.79C8.59262 9.105 9.07262 8.525 9.86762 8.525C10.6676 8.525 11.1476 9.105 11.1476 9.79C11.1476 10.48 10.6676 11.06 9.86762 11.06ZM9.86762 10.495C10.2626 10.495 10.4876 10.17 10.4876 9.79C10.4876 9.415 10.2626 9.09 9.86762 9.09C9.47262 9.09 9.25262 9.415 9.25262 9.79C9.25262 10.17 9.47262 10.495 9.86762 10.495ZM15.2537 11H14.6137V9.475C14.6137 9.25 14.5137 9.09 14.2537 9.09C14.0287 9.09 13.8437 9.24 13.7537 9.37V11H13.1137V9.475C13.1137 9.25 13.0137 9.09 12.7537 9.09C12.5337 9.09 12.3487 9.24 12.2537 9.375V11H11.6187V8.585H12.2537V8.9C12.3537 8.755 12.6737 8.525 13.0437 8.525C13.3987 8.525 13.6237 8.69 13.7137 8.965C13.8537 8.745 14.1737 8.525 14.5437 8.525C14.9887 8.525 15.2537 8.76 15.2537 9.255V11ZM19.5115 11H18.8715V9.475C18.8715 9.25 18.7715 9.09 18.5115 9.09C18.2865 9.09 18.1015 9.24 18.0115 9.37V11H17.3715V9.475C17.3715 9.25 17.2715 9.09 17.0115 9.09C16.7915 9.09 16.6065 9.24 16.5115 9.375V11H15.8765V8.585H16.5115V8.9C16.6115 8.755 16.9315 8.525 17.3015 8.525C17.6565 8.525 17.8815 8.69 17.9715 8.965C18.1115 8.745 18.4315 8.525 18.8015 8.525C19.2465 8.525 19.5115 8.76 19.5115 9.255V11ZM21.2543 11.06C20.4593 11.06 19.9793 10.48 19.9793 9.79C19.9793 9.105 20.4593 8.525 21.2543 8.525C22.0543 8.525 22.5343 9.105 22.5343 9.79C22.5343 10.48 22.0543 11.06 21.2543 11.06ZM21.2543 10.495C21.6493 10.495 21.8743 10.17 21.8743 9.79C21.8743 9.415 21.6493 9.09 21.2543 9.09C20.8593 9.09 20.6393 9.415 20.6393 9.79C20.6393 10.17 20.8593 10.495 21.2543 10.495ZM25.2704 11H24.6354V9.54C24.6354 9.205 24.4604 9.09 24.1904 9.09C23.9404 9.09 23.7454 9.23 23.6404 9.375V11H23.0054V8.585H23.6404V8.9C23.7954 8.715 24.0904 8.525 24.4854 8.525C25.0154 8.525 25.2704 8.825 25.2704 9.295V11Z" fill="#05080A"/>
<path d="M47.3226 11H46.8706L45.4786 9.096V11H45.0106V8.332H45.4906L46.8546 10.184V8.332H47.3226V11ZM48.7495 11.048C48.1375 11.048 47.7575 10.588 47.7575 10.032C47.7575 9.48 48.1375 9.02 48.7495 9.02C49.3695 9.02 49.7455 9.48 49.7455 10.032C49.7455 10.588 49.3695 11.048 48.7495 11.048ZM48.7495 10.676C49.1095 10.676 49.3095 10.376 49.3095 10.032C49.3095 9.692 49.1095 9.392 48.7495 9.392C48.3935 9.392 48.1935 9.692 48.1935 10.032C48.1935 10.376 48.3935 10.676 48.7495 10.676ZM50.3669 11.044C50.2149 11.044 50.0869 10.916 50.0869 10.764C50.0869 10.612 50.2149 10.484 50.3669 10.484C50.5189 10.484 50.6469 10.612 50.6469 10.764C50.6469 10.916 50.5189 11.044 50.3669 11.044ZM53.1227 11H52.6547V8.94L52.2187 9.392L51.9467 9.108L52.7147 8.332H53.1227V11ZM54.4023 11H53.8903L54.8983 8.744H53.5143V8.332H55.4383V8.656L54.4023 11ZM56.7672 11.048C56.0192 11.048 55.6992 10.34 55.6992 9.668C55.6992 8.996 56.0192 8.292 56.7672 8.292C57.5152 8.292 57.8352 8.996 57.8352 9.668C57.8352 10.34 57.5152 11.048 56.7672 11.048ZM56.7672 10.632C57.2032 10.632 57.3592 10.176 57.3592 9.668C57.3592 9.16 57.2032 8.708 56.7672 8.708C56.3312 8.708 56.1752 9.16 56.1752 9.668C56.1752 10.176 56.3312 10.632 56.7672 10.632Z" fill="white"/>
</svg>
