<svg width="63" height="88" viewBox="0 0 63 88" fill="none" xmlns="http://www.w3.org/2000/svg">
<rect width="63" height="88" rx="4" fill="#55DFFF"/>
<path d="M36.7008 13.5133L44.7992 3.48665C45.5586 2.54645 46.7024 2 47.911 2H58C59.6569 2 61 3.34314 61 5V83C61 84.6569 59.6569 86 58 86H5C3.34315 86 2 84.6569 2 83V18C2 16.3431 3.34315 15 5 15H33.589C34.7976 15 35.9414 14.4536 36.7008 13.5133Z" fill="#213743"/>
<rect x="5" y="18" width="53" height="40" rx="1" fill="#2F4553"/>
<path d="M42.4122 32.7311L31.4998 31.0054L20.5875 32.7311C20.5875 32.7311 16.3301 34.0435 16.2991 36.7302C16.2991 36.7302 19.6265 36.2445 22.9539 38.5489C23.4189 38.8693 23.9976 38.9726 24.5453 38.8486C25.7027 38.5799 27.9967 38.1976 31.4998 38.1976C35.0029 38.1976 37.297 38.5903 38.4544 38.8486C39.0021 38.9726 39.5807 38.8693 40.0458 38.5489C43.3835 36.2342 46.7523 36.7302 46.7523 36.7302C46.7213 34.0435 42.4122 32.7311 42.4122 32.7311Z" fill="#1A2C38"/>
<path d="M32.3059 20.806C32.3059 20.3609 31.945 20 31.4999 20C31.0547 20 30.6938 20.3609 30.6938 20.806V45.1314C30.6938 45.5765 31.0547 45.9374 31.4999 45.9374C31.945 45.9374 32.3059 45.5765 32.3059 45.1314V20.806Z" fill="#557086"/>
<path d="M32.5849 22.3045C32.2336 22.2735 31.8719 22.2632 31.4999 22.2632C31.1486 22.2632 30.8179 22.2735 30.4975 22.3045C22.582 22.7385 22.365 36.0999 23.078 35.9242C24.5867 35.5419 27.5111 34.9735 31.4999 34.9735C35.4887 34.9735 38.4131 35.5419 39.9218 35.9242C40.6348 36.0999 41.3788 36.1206 42.1125 36.0069C43.8382 35.7176 45.2953 36.1619 46.308 36.6683C47.0313 37.0299 47.827 36.3996 47.7237 35.5936C46.711 28.236 40.4798 22.7799 32.5953 22.3149L32.5849 22.3045Z" fill="white"/>
<path d="M30.4975 22.3044C22.582 22.7384 16.3095 28.1945 15.2864 35.5831C15.1728 36.3891 15.9788 37.0194 16.7021 36.6578C17.7148 36.1514 19.1615 35.7174 20.8872 35.9964C21.6106 36.1204 22.3546 36.0997 23.0676 35.9137C24.5764 35.5314 27.5008 34.963 31.4896 34.963V22.2527C31.1382 22.2527 30.8075 22.263 30.4872 22.294L30.4975 22.3044Z" fill="#8EA3B2"/>
<path d="M35.654 55C33.9386 55 29.9498 54.3489 29.9498 48.3348V45.0487C29.9498 44.191 30.6422 44.0876 31.4999 44.0876C32.3576 44.0876 33.0499 44.191 33.0499 45.0487V48.3348C33.0499 51.4659 34.3003 51.8999 35.654 51.8999C36.4187 51.8999 36.9767 51.7242 37.297 51.3729C37.7517 50.8768 37.7931 50.0295 37.7621 49.7401C37.6897 48.8928 38.3097 48.1384 39.1571 48.0558C40.0148 47.9731 40.7588 48.5828 40.8518 49.4198C40.8828 49.6575 41.0688 51.8172 39.6221 53.4292C38.9814 54.1423 37.7724 55 35.6643 55H35.654Z" fill="#55DFFF"/>
<path d="M31.4999 22.263C22.675 22.263 21.8587 31.4083 21.869 34.9114C21.869 35.5727 22.4993 36.0687 23.14 35.9034C24.6694 35.5211 27.5628 34.9734 31.4999 34.9734C35.437 34.9734 38.3925 35.5417 39.9115 35.9137C40.5419 36.0687 41.1515 35.6141 41.1825 34.963C41.3375 31.5013 40.8829 22.2527 31.4999 22.2527V22.263Z" fill="#55DFFF"/>
<path fill-rule="evenodd" clip-rule="evenodd" d="M6.49771 79C6.98969 79 7.48602 79.213 7.49037 79.6913C7.49037 80.1043 7.24656 80.2696 6.99839 80.2696C6.75023 80.2696 6.73281 80.1435 6.73281 80.1435C6.73281 80.1435 7.02452 79.9261 7.02452 79.7174C7.02452 79.6087 6.94179 79.313 6.489 79.3174C5.8577 79.3174 5.5181 79.6174 5.5181 80.1522C5.5181 80.7652 7.35105 80.9739 7.3554 81.7652C7.3554 82.613 6.47594 82.9957 5.69225 83C5.283 83 5.01306 82.7609 5.00871 82.3783C5.00871 81.9261 5.22204 81.4652 5.75756 81.4652C5.88382 81.4565 5.98831 81.5522 5.99702 81.6783C5.99702 81.6783 5.99702 81.6826 5.99702 81.687C5.99702 81.687 5.45715 81.8391 5.4615 82.3783C5.4615 82.4783 5.56599 82.6609 5.81851 82.6565C6.07103 82.6522 6.82424 82.4739 6.81989 81.8087C6.81989 81.1913 5.00435 81.1087 5 80.1478C5 79.0652 6.08845 79.0087 6.49771 79.0087V79ZM10.747 79.6C10.8123 79.5696 11.2129 79.4913 11.1955 79.813C11.1824 80.1348 10.9386 80.6913 10.9037 80.9348C11.2303 80.7696 11.6918 80.2087 11.6918 80.2087C11.6918 80.2087 12.0183 80.2522 11.9182 80.4522C11.818 80.6522 11.1519 81.1435 11.1519 81.1435C11.1519 81.1435 11.3043 82.5696 12.1707 82.5696C12.6453 82.5696 12.8499 82.3609 12.937 82.287C12.9587 82.2696 12.9762 82.2652 12.9849 82.2783C13.0197 82.387 12.9936 82.5043 12.9152 82.5913C12.8194 82.6957 12.5974 82.8217 12.1533 82.8261C11.3653 82.8261 10.9255 82.1957 10.8123 81.2609C10.7252 81.5348 10.7339 81.9826 10.7209 82.2C10.6948 82.2435 10.2507 82.4174 10.2158 82.1174C10.2158 82.0913 10.2158 82.0696 10.2158 82.0435C10.1331 82.1609 10.0199 82.2826 9.91108 82.2826C9.71951 82.2826 9.63679 82.1217 9.60196 82.0391C9.57584 82.0696 9.3625 82.287 9.08821 82.287C8.92277 82.2913 8.77474 82.1957 8.70943 82.0435C8.57011 82.1435 8.32195 82.2913 8.03895 82.2913C7.73418 82.2913 7.66017 82.1087 7.66017 81.9565C7.66017 81.713 7.84303 80.987 7.84303 80.987C7.84303 80.987 7.48602 81.1304 7.36411 81.1348C7.19431 81.1348 7.11159 80.8217 7.11159 80.813C7.11159 80.8087 7.11159 80.8 7.1203 80.8C7.22044 80.7609 7.94317 80.513 7.94317 80.513C7.94317 80.513 8.07813 79.9826 8.09555 79.913C8.11296 79.8435 8.2131 79.7 8.33065 79.6565C8.41773 79.6217 8.50916 79.6 8.60059 79.5913C8.63107 79.5913 8.65284 79.6 8.65284 79.6174C8.65284 79.6348 8.47433 80.4087 8.47433 80.4087C8.47433 80.4087 8.84876 80.3217 8.98808 80.3217C9.09692 80.3217 9.15352 80.387 9.09257 80.4696C9.03162 80.5522 8.96196 80.6478 8.92712 80.6913C8.88794 80.7348 8.86182 80.7435 8.77039 80.7609C8.64413 80.787 8.36113 80.8565 8.36113 80.8565C8.36113 80.8565 8.13473 81.6783 8.13909 81.8174C8.13909 81.8957 8.16521 81.987 8.26099 81.987C8.35678 81.987 8.53964 81.8739 8.67025 81.7913C8.69202 81.1522 9.18835 80.7261 9.57584 80.7261C9.7021 80.7261 9.65421 80.8478 9.79788 80.8478H9.88931C9.94591 80.8478 10.0069 80.8522 10.0069 80.9957C10.0069 81.1957 9.89367 81.5261 9.89367 81.7348C9.89367 81.8826 9.91544 81.987 9.97204 81.987C10.0678 81.987 10.1767 81.8478 10.255 81.7261C10.3813 81.0304 10.734 79.7609 10.734 79.6174L10.747 79.6ZM12.5016 80.7C12.7672 80.6783 12.9326 80.8217 12.9631 80.9C12.9936 80.9783 12.9892 81.1609 12.9152 81.2913C12.6845 81.7044 12.1097 81.6304 12.1097 81.6304C12.1097 81.6304 12.0444 81.9565 12.3405 81.9565C12.593 81.9565 12.7062 81.8304 12.8151 81.7261C12.8586 81.7261 12.9936 81.8652 12.9326 81.9609C12.8847 82.0348 12.6191 82.2565 12.2795 82.2609C11.7397 82.2609 11.6047 81.8 11.6744 81.4696C11.7658 81.0609 12.1751 80.7217 12.5016 80.6957V80.7ZM9.6455 80.987C9.32332 80.987 8.82699 81.9696 9.20577 81.9652C9.61938 81.9652 9.6455 81.1826 9.6455 81.0043V80.987ZM12.6409 80.8913C12.4232 80.9 12.1751 81.3174 12.1533 81.5C12.4798 81.513 12.654 81.1957 12.6757 81.0696C12.6888 80.9739 12.6932 80.887 12.6409 80.887V80.8913Z" fill="#557086"/>
<path d="M50.851 79.0672L49.2521 80.8632C49.1826 80.9428 49.1826 81.0572 49.2521 81.1368L50.846 82.9328C50.9255 83.0224 51.0695 83.0224 51.1539 82.9328L52.7478 81.1368C52.8173 81.0572 52.8173 80.9428 52.7478 80.8632L51.1539 79.0672C51.0744 78.9776 50.9304 78.9776 50.846 79.0672H50.851Z" fill="white"/>
<path d="M51.6604 79.6343L52.142 80.1766L50.568 82.6144L49.704 81.6393L51.6604 79.6343Z" fill="#8EA3B2"/>
<path d="M55.851 79.0672L54.2521 80.8632C54.1826 80.9428 54.1826 81.0572 54.2521 81.1368L55.846 82.9328C55.9255 83.0224 56.0695 83.0224 56.1539 82.9328L57.7478 81.1368C57.8173 81.0572 57.8173 80.9428 57.7478 80.8632L56.1539 79.0672C56.0744 78.9776 55.9304 78.9776 55.846 79.0672H55.851Z" fill="white"/>
<path d="M56.6604 79.6343L57.142 80.1766L55.568 82.6144L54.704 81.6393L56.6604 79.6343Z" fill="#8EA3B2"/>
<rect x="13" y="62" width="37" height="13" rx="6.5" fill="#2F4553"/>
<path d="M25.0673 70.072C23.8973 70.072 23.3513 69.058 23.3513 68.002C23.3513 66.946 23.8973 65.938 25.0673 65.938C26.2373 65.938 26.7833 66.946 26.7833 68.002C26.7833 69.058 26.2373 70.072 25.0673 70.072ZM25.0673 69.16C25.5473 69.16 25.7393 68.71 25.7393 68.002C25.7393 67.294 25.5473 66.85 25.0673 66.85C24.5873 66.85 24.3953 67.294 24.3953 68.002C24.3953 68.71 24.5873 69.16 25.0673 69.16ZM27.6556 70.072C27.3496 70.072 27.0916 69.814 27.0916 69.508C27.0916 69.202 27.3496 68.944 27.6556 68.944C27.9616 68.944 28.2196 69.202 28.2196 69.508C28.2196 69.814 27.9616 70.072 27.6556 70.072ZM30.2529 70.072C29.0829 70.072 28.5369 69.058 28.5369 68.002C28.5369 66.946 29.0829 65.938 30.2529 65.938C31.4229 65.938 31.9689 66.946 31.9689 68.002C31.9689 69.058 31.4229 70.072 30.2529 70.072ZM30.2529 69.16C30.7329 69.16 30.9249 68.71 30.9249 68.002C30.9249 67.294 30.7329 66.85 30.2529 66.85C29.7729 66.85 29.5809 67.294 29.5809 68.002C29.5809 68.71 29.7729 69.16 30.2529 69.16ZM33.877 70.072C33.109 70.072 32.533 69.802 32.221 69.442L32.743 68.74C33.031 69.022 33.487 69.16 33.835 69.16C34.279 69.16 34.507 68.992 34.507 68.77C34.507 68.542 34.339 68.434 33.793 68.434C33.619 68.434 33.313 68.434 33.253 68.44V67.522C33.331 67.528 33.643 67.528 33.793 67.528C34.207 67.528 34.441 67.426 34.441 67.216C34.441 66.964 34.153 66.85 33.769 66.85C33.403 66.85 33.055 66.982 32.773 67.234L32.275 66.586C32.611 66.208 33.139 65.938 33.877 65.938C34.897 65.938 35.467 66.376 35.467 67.036C35.467 67.504 35.065 67.858 34.591 67.936C35.017 67.978 35.533 68.308 35.533 68.884C35.533 69.586 34.873 70.072 33.877 70.072ZM38.8424 70H37.8284L37.2704 69.124L36.7064 70H35.6984L36.6884 68.512L35.7584 67.102H36.7724L37.2704 67.888L37.7624 67.102H38.7764L37.8524 68.512L38.8424 70Z" fill="white"/>
<path d="M6.945 11.06C5.945 11.06 5.17 10.36 5.17 9.335C5.17 8.31 5.945 7.61 6.945 7.61C7.68 7.61 8.105 8.01 8.34 8.425L7.73 8.725C7.59 8.455 7.29 8.24 6.945 8.24C6.34 8.24 5.9 8.705 5.9 9.335C5.9 9.965 6.34 10.43 6.945 10.43C7.29 10.43 7.59 10.22 7.73 9.945L8.34 10.24C8.1 10.655 7.68 11.06 6.945 11.06ZM9.86762 11.06C9.07262 11.06 8.59262 10.48 8.59262 9.79C8.59262 9.105 9.07262 8.525 9.86762 8.525C10.6676 8.525 11.1476 9.105 11.1476 9.79C11.1476 10.48 10.6676 11.06 9.86762 11.06ZM9.86762 10.495C10.2626 10.495 10.4876 10.17 10.4876 9.79C10.4876 9.415 10.2626 9.09 9.86762 9.09C9.47262 9.09 9.25262 9.415 9.25262 9.79C9.25262 10.17 9.47262 10.495 9.86762 10.495ZM15.2537 11H14.6137V9.475C14.6137 9.25 14.5137 9.09 14.2537 9.09C14.0287 9.09 13.8437 9.24 13.7537 9.37V11H13.1137V9.475C13.1137 9.25 13.0137 9.09 12.7537 9.09C12.5337 9.09 12.3487 9.24 12.2537 9.375V11H11.6187V8.585H12.2537V8.9C12.3537 8.755 12.6737 8.525 13.0437 8.525C13.3987 8.525 13.6237 8.69 13.7137 8.965C13.8537 8.745 14.1737 8.525 14.5437 8.525C14.9887 8.525 15.2537 8.76 15.2537 9.255V11ZM19.5115 11H18.8715V9.475C18.8715 9.25 18.7715 9.09 18.5115 9.09C18.2865 9.09 18.1015 9.24 18.0115 9.37V11H17.3715V9.475C17.3715 9.25 17.2715 9.09 17.0115 9.09C16.7915 9.09 16.6065 9.24 16.5115 9.375V11H15.8765V8.585H16.5115V8.9C16.6115 8.755 16.9315 8.525 17.3015 8.525C17.6565 8.525 17.8815 8.69 17.9715 8.965C18.1115 8.745 18.4315 8.525 18.8015 8.525C19.2465 8.525 19.5115 8.76 19.5115 9.255V11ZM21.2543 11.06C20.4593 11.06 19.9793 10.48 19.9793 9.79C19.9793 9.105 20.4593 8.525 21.2543 8.525C22.0543 8.525 22.5343 9.105 22.5343 9.79C22.5343 10.48 22.0543 11.06 21.2543 11.06ZM21.2543 10.495C21.6493 10.495 21.8743 10.17 21.8743 9.79C21.8743 9.415 21.6493 9.09 21.2543 9.09C20.8593 9.09 20.6393 9.415 20.6393 9.79C20.6393 10.17 20.8593 10.495 21.2543 10.495ZM25.2704 11H24.6354V9.54C24.6354 9.205 24.4604 9.09 24.1904 9.09C23.9404 9.09 23.7454 9.23 23.6404 9.375V11H23.0054V8.585H23.6404V8.9C23.7954 8.715 24.0904 8.525 24.4854 8.525C25.0154 8.525 25.2704 8.825 25.2704 9.295V11Z" fill="#05080A"/>
<path d="M47.4085 11H46.9565L45.5645 9.096V11H45.0965V8.332H45.5765L46.9405 10.184V8.332H47.4085V11ZM48.8354 11.048C48.2234 11.048 47.8434 10.588 47.8434 10.032C47.8434 9.48 48.2234 9.02 48.8354 9.02C49.4554 9.02 49.8314 9.48 49.8314 10.032C49.8314 10.588 49.4554 11.048 48.8354 11.048ZM48.8354 10.676C49.1954 10.676 49.3954 10.376 49.3954 10.032C49.3954 9.692 49.1954 9.392 48.8354 9.392C48.4794 9.392 48.2794 9.692 48.2794 10.032C48.2794 10.376 48.4794 10.676 48.8354 10.676ZM50.4528 11.044C50.3008 11.044 50.1728 10.916 50.1728 10.764C50.1728 10.612 50.3008 10.484 50.4528 10.484C50.6048 10.484 50.7328 10.612 50.7328 10.764C50.7328 10.916 50.6048 11.044 50.4528 11.044ZM53.2087 11H52.7407V8.94L52.3047 9.392L52.0327 9.108L52.8007 8.332H53.2087V11ZM54.4882 11H53.9762L54.9842 8.744H53.6002V8.332H55.5242V8.656L54.4882 11ZM57.7531 11H55.8211V10.632C56.8571 9.848 57.2611 9.5 57.2611 9.116C57.2611 8.836 57.0211 8.708 56.7771 8.708C56.4651 8.708 56.2251 8.836 56.0571 9.028L55.7851 8.72C56.0211 8.436 56.3971 8.292 56.7691 8.292C57.2851 8.292 57.7371 8.584 57.7371 9.116C57.7371 9.608 57.2851 10.048 56.5691 10.588H57.7531V11Z" fill="white"/>
</svg>
