<svg width="63" height="88" viewBox="0 0 63 88" fill="none" xmlns="http://www.w3.org/2000/svg">
<rect width="63" height="88" rx="4" fill="#55DFFF"/>
<path d="M36.7008 13.5133L44.7992 3.48665C45.5586 2.54645 46.7024 2 47.911 2H58C59.6569 2 61 3.34314 61 5V83C61 84.6569 59.6569 86 58 86H5C3.34315 86 2 84.6569 2 83V18C2 16.3431 3.34315 15 5 15H33.589C34.7976 15 35.9414 14.4536 36.7008 13.5133Z" fill="#213743"/>
<rect x="5" y="18" width="53" height="40" rx="1" fill="#2F4553"/>
<g clip-path="url(#clip0_26835_29353)">
<path d="M33.57 56.5601C33.1 56.5601 32.63 56.5201 32.17 56.4401C30.01 56.0701 28.12 54.8801 26.86 53.0901L19.35 42.4701C17.67 40.1001 17.02 37.2101 17.51 34.3501C18 31.4801 19.58 28.9801 21.95 27.3001C24.32 25.6201 27.2 24.9701 30.07 25.4601C32.94 25.9501 35.44 27.5301 37.11 29.9001L45.71 42.0601C46.3 42.9001 46.1 44.0501 45.27 44.6401C44.43 45.2301 43.28 45.0301 42.69 44.2001L34.09 32.0401C32.98 30.4801 31.33 29.4301 29.45 29.1101C27.56 28.7901 25.66 29.2201 24.09 30.3201C22.53 31.4301 21.48 33.0801 21.16 34.9601C20.84 36.8401 21.27 38.7501 22.37 40.3201L29.88 50.9401C30.57 51.9201 31.61 52.5701 32.79 52.7801C33.97 52.9801 35.17 52.7101 36.15 52.0201C37.13 51.3301 37.78 50.2901 37.98 49.1101C38.18 47.9301 37.91 46.7301 37.22 45.7501L32.33 38.8401C32.06 38.4601 31.66 38.2101 31.21 38.1301C30.75 38.0501 30.3 38.1601 29.92 38.4201C29.54 38.6901 29.29 39.0901 29.21 39.5401C29.13 40.0001 29.24 40.4501 29.5 40.8301L32.03 44.4201C32.62 45.2601 32.42 46.4101 31.59 47.0001C30.75 47.5901 29.6 47.3901 29.01 46.5601L26.48 42.9701C25.64 41.7801 25.31 40.3401 25.56 38.9101C25.81 37.4801 26.59 36.2301 27.78 35.3901C30.23 33.6601 33.63 34.2401 35.36 36.6901L40.25 43.6001C41.52 45.3901 42.01 47.5601 41.64 49.7201C41.27 51.8801 40.08 53.7701 38.29 55.0301C36.89 56.0201 35.25 56.5401 33.57 56.5401V56.5601Z" fill="#1A2C38"/>
<path d="M34.75 52.75C34.28 52.75 33.81 52.71 33.35 52.63C31.19 52.26 29.3 51.07 28.04 49.28L20.53 38.66C18.85 36.29 18.2 33.4 18.69 30.54C19.18 27.67 20.76 25.17 23.13 23.49C25.5 21.81 28.38 21.16 31.25 21.65C34.12 22.14 36.62 23.72 38.29 26.09L46.89 38.25C47.48 39.09 47.28 40.24 46.45 40.83C45.61 41.42 44.46 41.22 43.87 40.39L35.27 28.23C34.16 26.67 32.51 25.62 30.63 25.3C28.74 24.98 26.84 25.41 25.27 26.51C23.71 27.62 22.66 29.27 22.34 31.15C22.02 33.03 22.45 34.94 23.55 36.51L31.06 47.13C31.75 48.11 32.79 48.76 33.97 48.97C35.15 49.17 36.35 48.9 37.33 48.21C38.31 47.52 38.96 46.48 39.16 45.3C39.36 44.12 39.09 42.92 38.4 41.94L33.51 35.03C33.24 34.65 32.84 34.4 32.39 34.32C31.93 34.24 31.48 34.35 31.1 34.61C30.72 34.88 30.47 35.28 30.39 35.73C30.31 36.19 30.42 36.64 30.68 37.02L33.21 40.61C33.8 41.45 33.6 42.6 32.77 43.19C31.93 43.78 30.78 43.58 30.19 42.75L27.66 39.16C26.82 37.97 26.49 36.53 26.74 35.1C26.99 33.67 27.77 32.42 28.96 31.58C31.41 29.85 34.81 30.43 36.54 32.88L41.43 39.79C42.7 41.58 43.19 43.75 42.82 45.91C42.45 48.07 41.26 49.96 39.47 51.22C38.07 52.21 36.43 52.73 34.75 52.73V52.75Z" fill="#56DEFF"/>
<path d="M36.49 25.34C35.96 25.71 36.04 26.36 36.34 26.79L43.07 36.27C43.37 36.69 43.98 36.69 44.41 36.4C44.8 36.13 45.01 35.6 44.72 35.18L38.1 25.83C37.81 25.42 37.13 24.88 36.48 25.34H36.49Z" fill="white"/>
<path d="M35.21 32.7299C34.68 33.0999 34.73 33.7099 35.03 34.1299L39.54 40.4799C39.84 40.8999 40.49 40.9799 40.92 40.6799C41.31 40.4099 41.43 39.7799 41.14 39.3699L36.79 33.2099C36.5 32.7999 35.87 32.2699 35.22 32.7199L35.21 32.7299Z" fill="white"/>
<path d="M29.61 37.2399C29.08 37.6099 29.13 38.2199 29.43 38.6399L31.48 41.4999C31.78 41.9199 32.43 41.9999 32.86 41.6999C33.25 41.4299 33.37 40.7999 33.08 40.3899L31.18 37.7299C30.89 37.3199 30.26 36.7899 29.61 37.2399Z" fill="white"/>
<path d="M21.1744 32.0999C21.1655 31.0727 20.6658 30.2443 20.0583 30.2496C19.4508 30.2549 18.9656 31.0919 18.9745 32.1191C18.9835 33.1463 19.4832 33.9747 20.0907 33.9694C20.6981 33.9642 21.1834 33.1272 21.1744 32.0999Z" fill="white"/>
</g>
<path fill-rule="evenodd" clip-rule="evenodd" d="M6.49771 79C6.98969 79 7.48602 79.213 7.49037 79.6913C7.49037 80.1043 7.24656 80.2696 6.99839 80.2696C6.75023 80.2696 6.73281 80.1435 6.73281 80.1435C6.73281 80.1435 7.02452 79.9261 7.02452 79.7174C7.02452 79.6087 6.94179 79.313 6.489 79.3174C5.8577 79.3174 5.5181 79.6174 5.5181 80.1522C5.5181 80.7652 7.35105 80.9739 7.3554 81.7652C7.3554 82.613 6.47594 82.9957 5.69225 83C5.283 83 5.01306 82.7609 5.00871 82.3783C5.00871 81.9261 5.22204 81.4652 5.75756 81.4652C5.88382 81.4565 5.98831 81.5522 5.99702 81.6783C5.99702 81.6783 5.99702 81.6826 5.99702 81.687C5.99702 81.687 5.45715 81.8391 5.4615 82.3783C5.4615 82.4783 5.56599 82.6609 5.81851 82.6565C6.07103 82.6522 6.82424 82.4739 6.81989 81.8087C6.81989 81.1913 5.00435 81.1087 5 80.1478C5 79.0652 6.08845 79.0087 6.49771 79.0087V79ZM10.747 79.6C10.8123 79.5696 11.2129 79.4913 11.1955 79.813C11.1824 80.1348 10.9386 80.6913 10.9037 80.9348C11.2303 80.7696 11.6918 80.2087 11.6918 80.2087C11.6918 80.2087 12.0183 80.2522 11.9182 80.4522C11.818 80.6522 11.1519 81.1435 11.1519 81.1435C11.1519 81.1435 11.3043 82.5696 12.1707 82.5696C12.6453 82.5696 12.8499 82.3609 12.937 82.287C12.9587 82.2696 12.9762 82.2652 12.9849 82.2783C13.0197 82.387 12.9936 82.5043 12.9152 82.5913C12.8194 82.6957 12.5974 82.8217 12.1533 82.8261C11.3653 82.8261 10.9255 82.1957 10.8123 81.2609C10.7252 81.5348 10.7339 81.9826 10.7209 82.2C10.6948 82.2435 10.2507 82.4174 10.2158 82.1174C10.2158 82.0913 10.2158 82.0696 10.2158 82.0435C10.1331 82.1609 10.0199 82.2826 9.91108 82.2826C9.71951 82.2826 9.63679 82.1217 9.60196 82.0391C9.57584 82.0696 9.3625 82.287 9.08821 82.287C8.92277 82.2913 8.77474 82.1957 8.70943 82.0435C8.57011 82.1435 8.32195 82.2913 8.03895 82.2913C7.73418 82.2913 7.66017 82.1087 7.66017 81.9565C7.66017 81.713 7.84303 80.987 7.84303 80.987C7.84303 80.987 7.48602 81.1304 7.36411 81.1348C7.19431 81.1348 7.11159 80.8217 7.11159 80.813C7.11159 80.8087 7.11159 80.8 7.1203 80.8C7.22044 80.7609 7.94317 80.513 7.94317 80.513C7.94317 80.513 8.07813 79.9826 8.09555 79.913C8.11296 79.8435 8.2131 79.7 8.33065 79.6565C8.41773 79.6217 8.50916 79.6 8.60059 79.5913C8.63107 79.5913 8.65284 79.6 8.65284 79.6174C8.65284 79.6348 8.47433 80.4087 8.47433 80.4087C8.47433 80.4087 8.84876 80.3217 8.98808 80.3217C9.09692 80.3217 9.15352 80.387 9.09257 80.4696C9.03162 80.5522 8.96196 80.6478 8.92712 80.6913C8.88794 80.7348 8.86182 80.7435 8.77039 80.7609C8.64413 80.787 8.36113 80.8565 8.36113 80.8565C8.36113 80.8565 8.13473 81.6783 8.13909 81.8174C8.13909 81.8957 8.16521 81.987 8.26099 81.987C8.35678 81.987 8.53964 81.8739 8.67025 81.7913C8.69202 81.1522 9.18835 80.7261 9.57584 80.7261C9.7021 80.7261 9.65421 80.8478 9.79788 80.8478H9.88931C9.94591 80.8478 10.0069 80.8522 10.0069 80.9957C10.0069 81.1957 9.89367 81.5261 9.89367 81.7348C9.89367 81.8826 9.91544 81.987 9.97204 81.987C10.0678 81.987 10.1767 81.8478 10.255 81.7261C10.3813 81.0304 10.734 79.7609 10.734 79.6174L10.747 79.6ZM12.5016 80.7C12.7672 80.6783 12.9326 80.8217 12.9631 80.9C12.9936 80.9783 12.9892 81.1609 12.9152 81.2913C12.6845 81.7044 12.1097 81.6304 12.1097 81.6304C12.1097 81.6304 12.0444 81.9565 12.3405 81.9565C12.593 81.9565 12.7062 81.8304 12.8151 81.7261C12.8586 81.7261 12.9936 81.8652 12.9326 81.9609C12.8847 82.0348 12.6191 82.2565 12.2795 82.2609C11.7397 82.2609 11.6047 81.8 11.6744 81.4696C11.7658 81.0609 12.1751 80.7217 12.5016 80.6957V80.7ZM9.6455 80.987C9.32332 80.987 8.82699 81.9696 9.20577 81.9652C9.61938 81.9652 9.6455 81.1826 9.6455 81.0043V80.987ZM12.6409 80.8913C12.4232 80.9 12.1751 81.3174 12.1533 81.5C12.4798 81.513 12.654 81.1957 12.6757 81.0696C12.6888 80.9739 12.6932 80.887 12.6409 80.887V80.8913Z" fill="#557086"/>
<path d="M50.851 79.0672L49.2522 80.8632C49.1826 80.9428 49.1826 81.0572 49.2522 81.1368L50.8461 82.9328C50.9255 83.0224 51.0695 83.0224 51.1539 82.9328L52.7479 81.1368C52.8174 81.0572 52.8174 80.9428 52.7479 80.8632L51.1539 79.0672C51.0745 78.9776 50.9305 78.9776 50.8461 79.0672H50.851Z" fill="white"/>
<path d="M51.6604 79.6343L52.1421 80.1766L50.568 82.6144L49.704 81.6393L51.6604 79.6343Z" fill="#8EA3B2"/>
<path d="M55.851 79.0672L54.2522 80.8632C54.1826 80.9428 54.1826 81.0572 54.2522 81.1368L55.8461 82.9328C55.9255 83.0224 56.0695 83.0224 56.1539 82.9328L57.7479 81.1368C57.8174 81.0572 57.8174 80.9428 57.7479 80.8632L56.1539 79.0672C56.0745 78.9776 55.9305 78.9776 55.8461 79.0672H55.851Z" fill="white"/>
<path d="M56.6604 79.6343L57.1421 80.1766L55.568 82.6144L54.704 81.6393L56.6604 79.6343Z" fill="#8EA3B2"/>
<rect x="13" y="62" width="37" height="13" rx="6.5" fill="#2F4553"/>
<path d="M25.0673 70.072C23.8973 70.072 23.3513 69.058 23.3513 68.002C23.3513 66.946 23.8973 65.938 25.0673 65.938C26.2373 65.938 26.7833 66.946 26.7833 68.002C26.7833 69.058 26.2373 70.072 25.0673 70.072ZM25.0673 69.16C25.5473 69.16 25.7393 68.71 25.7393 68.002C25.7393 67.294 25.5473 66.85 25.0673 66.85C24.5873 66.85 24.3953 67.294 24.3953 68.002C24.3953 68.71 24.5873 69.16 25.0673 69.16ZM27.6556 70.072C27.3496 70.072 27.0916 69.814 27.0916 69.508C27.0916 69.202 27.3496 68.944 27.6556 68.944C27.9616 68.944 28.2196 69.202 28.2196 69.508C28.2196 69.814 27.9616 70.072 27.6556 70.072ZM30.2529 70.072C29.0829 70.072 28.5369 69.058 28.5369 68.002C28.5369 66.946 29.0829 65.938 30.2529 65.938C31.4229 65.938 31.9689 66.946 31.9689 68.002C31.9689 69.058 31.4229 70.072 30.2529 70.072ZM30.2529 69.16C30.7329 69.16 30.9249 68.71 30.9249 68.002C30.9249 67.294 30.7329 66.85 30.2529 66.85C29.7729 66.85 29.5809 67.294 29.5809 68.002C29.5809 68.71 29.7729 69.16 30.2529 69.16ZM33.877 70.072C33.109 70.072 32.533 69.802 32.221 69.442L32.743 68.74C33.031 69.022 33.487 69.16 33.835 69.16C34.279 69.16 34.507 68.992 34.507 68.77C34.507 68.542 34.339 68.434 33.793 68.434C33.619 68.434 33.313 68.434 33.253 68.44V67.522C33.331 67.528 33.643 67.528 33.793 67.528C34.207 67.528 34.441 67.426 34.441 67.216C34.441 66.964 34.153 66.85 33.769 66.85C33.403 66.85 33.055 66.982 32.773 67.234L32.275 66.586C32.611 66.208 33.139 65.938 33.877 65.938C34.897 65.938 35.467 66.376 35.467 67.036C35.467 67.504 35.065 67.858 34.591 67.936C35.017 67.978 35.533 68.308 35.533 68.884C35.533 69.586 34.873 70.072 33.877 70.072ZM38.8424 70H37.8284L37.2704 69.124L36.7064 70H35.6984L36.6884 68.512L35.7584 67.102H36.7724L37.2704 67.888L37.7624 67.102H38.7764L37.8524 68.512L38.8424 70Z" fill="white"/>
<path d="M6.945 11.06C5.945 11.06 5.17 10.36 5.17 9.335C5.17 8.31 5.945 7.61 6.945 7.61C7.68 7.61 8.105 8.01 8.34 8.425L7.73 8.725C7.59 8.455 7.29 8.24 6.945 8.24C6.34 8.24 5.9 8.705 5.9 9.335C5.9 9.965 6.34 10.43 6.945 10.43C7.29 10.43 7.59 10.22 7.73 9.945L8.34 10.24C8.1 10.655 7.68 11.06 6.945 11.06ZM9.86762 11.06C9.07262 11.06 8.59262 10.48 8.59262 9.79C8.59262 9.105 9.07262 8.525 9.86762 8.525C10.6676 8.525 11.1476 9.105 11.1476 9.79C11.1476 10.48 10.6676 11.06 9.86762 11.06ZM9.86762 10.495C10.2626 10.495 10.4876 10.17 10.4876 9.79C10.4876 9.415 10.2626 9.09 9.86762 9.09C9.47262 9.09 9.25262 9.415 9.25262 9.79C9.25262 10.17 9.47262 10.495 9.86762 10.495ZM15.2537 11H14.6137V9.475C14.6137 9.25 14.5137 9.09 14.2537 9.09C14.0287 9.09 13.8437 9.24 13.7537 9.37V11H13.1137V9.475C13.1137 9.25 13.0137 9.09 12.7537 9.09C12.5337 9.09 12.3487 9.24 12.2537 9.375V11H11.6187V8.585H12.2537V8.9C12.3537 8.755 12.6737 8.525 13.0437 8.525C13.3987 8.525 13.6237 8.69 13.7137 8.965C13.8537 8.745 14.1737 8.525 14.5437 8.525C14.9887 8.525 15.2537 8.76 15.2537 9.255V11ZM19.5115 11H18.8715V9.475C18.8715 9.25 18.7715 9.09 18.5115 9.09C18.2865 9.09 18.1015 9.24 18.0115 9.37V11H17.3715V9.475C17.3715 9.25 17.2715 9.09 17.0115 9.09C16.7915 9.09 16.6065 9.24 16.5115 9.375V11H15.8765V8.585H16.5115V8.9C16.6115 8.755 16.9315 8.525 17.3015 8.525C17.6565 8.525 17.8815 8.69 17.9715 8.965C18.1115 8.745 18.4315 8.525 18.8015 8.525C19.2465 8.525 19.5115 8.76 19.5115 9.255V11ZM21.2543 11.06C20.4593 11.06 19.9793 10.48 19.9793 9.79C19.9793 9.105 20.4593 8.525 21.2543 8.525C22.0543 8.525 22.5343 9.105 22.5343 9.79C22.5343 10.48 22.0543 11.06 21.2543 11.06ZM21.2543 10.495C21.6493 10.495 21.8743 10.17 21.8743 9.79C21.8743 9.415 21.6493 9.09 21.2543 9.09C20.8593 9.09 20.6393 9.415 20.6393 9.79C20.6393 10.17 20.8593 10.495 21.2543 10.495ZM25.2704 11H24.6354V9.54C24.6354 9.205 24.4604 9.09 24.1904 9.09C23.9404 9.09 23.7454 9.23 23.6404 9.375V11H23.0054V8.585H23.6404V8.9C23.7954 8.715 24.0904 8.525 24.4854 8.525C25.0154 8.525 25.2704 8.825 25.2704 9.295V11Z" fill="#05080A"/>
<path d="M47.0491 11H46.5971L45.2051 9.096V11H44.7371V8.332H45.2171L46.5811 10.184V8.332H47.0491V11ZM48.476 11.048C47.864 11.048 47.484 10.588 47.484 10.032C47.484 9.48 47.864 9.02 48.476 9.02C49.096 9.02 49.472 9.48 49.472 10.032C49.472 10.588 49.096 11.048 48.476 11.048ZM48.476 10.676C48.836 10.676 49.036 10.376 49.036 10.032C49.036 9.692 48.836 9.392 48.476 9.392C48.12 9.392 47.92 9.692 47.92 10.032C47.92 10.376 48.12 10.676 48.476 10.676ZM50.0935 11.044C49.9415 11.044 49.8135 10.916 49.8135 10.764C49.8135 10.612 49.9415 10.484 50.0935 10.484C50.2455 10.484 50.3735 10.612 50.3735 10.764C50.3735 10.916 50.2455 11.044 50.0935 11.044ZM52.8493 11H52.3813V8.94L51.9453 9.392L51.6733 9.108L52.4413 8.332H52.8493V11ZM54.1928 11.044C53.8648 11.044 53.6088 10.928 53.4288 10.748L53.6448 10.396C53.7848 10.54 53.9408 10.628 54.1928 10.628C54.6768 10.628 54.8968 10.188 54.8968 9.752C54.8968 9.724 54.8968 9.7 54.8968 9.672C54.7728 9.852 54.4928 10.048 54.1808 10.048C53.7008 10.048 53.2848 9.752 53.2848 9.184C53.2848 8.692 53.6728 8.288 54.2688 8.288C55.0528 8.288 55.3688 8.924 55.3688 9.668C55.3688 10.436 54.9648 11.044 54.1928 11.044ZM54.3048 9.644C54.5328 9.644 54.7568 9.524 54.8888 9.332C54.8648 9.044 54.7048 8.704 54.2928 8.704C53.9448 8.704 53.7608 8.956 53.7608 9.168C53.7608 9.496 54.0168 9.644 54.3048 9.644ZM56.7672 11.048C56.0192 11.048 55.6992 10.34 55.6992 9.668C55.6992 8.996 56.0192 8.292 56.7672 8.292C57.5152 8.292 57.8352 8.996 57.8352 9.668C57.8352 10.34 57.5152 11.048 56.7672 11.048ZM56.7672 10.632C57.2032 10.632 57.3592 10.176 57.3592 9.668C57.3592 9.16 57.2032 8.708 56.7672 8.708C56.3312 8.708 56.1752 9.16 56.1752 9.668C56.1752 10.176 56.3312 10.632 56.7672 10.632Z" fill="white"/>
<defs>
<clipPath id="clip0_26835_29353">
<rect width="63" height="88" fill="white"/>
</clipPath>
</defs>
</svg>
