<svg width="63" height="88" viewBox="0 0 63 88" fill="none" xmlns="http://www.w3.org/2000/svg">
<rect width="63" height="88" rx="4" fill="#55DFFF"/>
<path d="M36.7008 13.5133L44.7992 3.48665C45.5586 2.54645 46.7024 2 47.911 2H58C59.6569 2 61 3.34314 61 5V83C61 84.6569 59.6569 86 58 86H5C3.34315 86 2 84.6569 2 83V18C2 16.3431 3.34315 15 5 15H33.589C34.7976 15 35.9414 14.4536 36.7008 13.5133Z" fill="#213743"/>
<rect x="5" y="18" width="53" height="40" rx="1" fill="#2F4553"/>
<path d="M44.87 27.02H26.36C23.2065 27.02 20.65 29.5765 20.65 32.73V46.97C20.65 50.1236 23.2065 52.68 26.36 52.68H44.87C48.0236 52.68 50.58 50.1236 50.58 46.97V32.73C50.58 29.5765 48.0236 27.02 44.87 27.02Z" fill="#557086"/>
<path d="M39.61 25.6899C44.48 25.6899 47.66 27.7499 47.66 27.7499H41.23L39.62 25.6899H39.61Z" fill="#557086"/>
<path d="M29.52 30.25L24.57 24.27C24.04 23.63 24.13 22.69 24.77 22.16C25.41 21.63 26.35 21.72 26.88 22.36L29.66 25.72L34.23 20.85C34.8 20.25 35.75 20.22 36.35 20.78C36.95 21.35 36.98 22.3 36.42 22.9L29.52 30.25Z" fill="#55DFFF"/>
<path d="M39.61 25.6899H20.13C16.82 25.6899 14.13 28.3799 14.13 31.6899V46.6799C14.13 49.9799 16.83 52.6799 20.13 52.6799H39.61C42.92 52.6799 45.61 49.9899 45.61 46.6799V31.6899C45.61 28.3899 42.91 25.6899 39.61 25.6899Z" fill="#55DFFF"/>
<path d="M39.61 27.6899H20.13C17.9209 27.6899 16.13 29.4808 16.13 31.6899V46.6899C16.13 48.8991 17.9209 50.6899 20.13 50.6899H39.61C41.8191 50.6899 43.61 48.8991 43.61 46.6899V31.6899C43.61 29.4808 41.8191 27.6899 39.61 27.6899Z" fill="#55DFFF"/>
<path d="M39.79 47.3101H35.98C35.3504 47.3101 34.84 47.8205 34.84 48.4501V48.4601C34.84 49.0897 35.3504 49.6001 35.98 49.6001H39.79C40.4196 49.6001 40.93 49.0897 40.93 48.4601V48.4501C40.93 47.8205 40.4196 47.3101 39.79 47.3101Z" fill="#1A2C38"/>
<path d="M37.93 30.02H21.24C19.5831 30.02 18.24 31.3632 18.24 33.02V42.98C18.24 44.6369 19.5831 45.98 21.24 45.98H37.93C39.5868 45.98 40.93 44.6369 40.93 42.98V33.02C40.93 31.3632 39.5868 30.02 37.93 30.02Z" fill="#1A2C38"/>
<path d="M33.22 37.06L27.62 33.83C26.9 33.41 26 33.93 26 34.77V41.24C26 42.07 26.9 42.59 27.62 42.18L33.22 38.95C33.94 38.53 33.94 37.49 33.22 37.08V37.06Z" fill="white"/>
<ellipse cx="45.5" cy="38.5" rx="1.5" ry="4.5" fill="white"/>
<path fill-rule="evenodd" clip-rule="evenodd" d="M6.49771 79C6.98969 79 7.48602 79.213 7.49037 79.6913C7.49037 80.1043 7.24656 80.2696 6.99839 80.2696C6.75023 80.2696 6.73281 80.1435 6.73281 80.1435C6.73281 80.1435 7.02452 79.9261 7.02452 79.7174C7.02452 79.6087 6.94179 79.313 6.489 79.3174C5.8577 79.3174 5.5181 79.6174 5.5181 80.1522C5.5181 80.7652 7.35105 80.9739 7.3554 81.7652C7.3554 82.613 6.47594 82.9957 5.69225 83C5.283 83 5.01306 82.7609 5.00871 82.3783C5.00871 81.9261 5.22204 81.4652 5.75756 81.4652C5.88382 81.4565 5.98831 81.5522 5.99702 81.6783C5.99702 81.6783 5.99702 81.6826 5.99702 81.687C5.99702 81.687 5.45715 81.8391 5.4615 82.3783C5.4615 82.4783 5.56599 82.6609 5.81851 82.6565C6.07103 82.6522 6.82424 82.4739 6.81989 81.8087C6.81989 81.1913 5.00435 81.1087 5 80.1478C5 79.0652 6.08845 79.0087 6.49771 79.0087V79ZM10.747 79.6C10.8123 79.5696 11.2129 79.4913 11.1955 79.813C11.1824 80.1348 10.9386 80.6913 10.9037 80.9348C11.2303 80.7696 11.6918 80.2087 11.6918 80.2087C11.6918 80.2087 12.0183 80.2522 11.9182 80.4522C11.818 80.6522 11.1519 81.1435 11.1519 81.1435C11.1519 81.1435 11.3043 82.5696 12.1707 82.5696C12.6453 82.5696 12.8499 82.3609 12.937 82.287C12.9587 82.2696 12.9762 82.2652 12.9849 82.2783C13.0197 82.387 12.9936 82.5043 12.9152 82.5913C12.8194 82.6957 12.5974 82.8217 12.1533 82.8261C11.3653 82.8261 10.9255 82.1957 10.8123 81.2609C10.7252 81.5348 10.7339 81.9826 10.7209 82.2C10.6948 82.2435 10.2507 82.4174 10.2158 82.1174C10.2158 82.0913 10.2158 82.0696 10.2158 82.0435C10.1331 82.1609 10.0199 82.2826 9.91108 82.2826C9.71951 82.2826 9.63679 82.1217 9.60196 82.0391C9.57584 82.0696 9.3625 82.287 9.08821 82.287C8.92277 82.2913 8.77474 82.1957 8.70943 82.0435C8.57011 82.1435 8.32195 82.2913 8.03895 82.2913C7.73418 82.2913 7.66017 82.1087 7.66017 81.9565C7.66017 81.713 7.84303 80.987 7.84303 80.987C7.84303 80.987 7.48602 81.1304 7.36411 81.1348C7.19431 81.1348 7.11159 80.8217 7.11159 80.813C7.11159 80.8087 7.11159 80.8 7.1203 80.8C7.22044 80.7609 7.94317 80.513 7.94317 80.513C7.94317 80.513 8.07813 79.9826 8.09555 79.913C8.11296 79.8435 8.2131 79.7 8.33065 79.6565C8.41773 79.6217 8.50916 79.6 8.60059 79.5913C8.63107 79.5913 8.65284 79.6 8.65284 79.6174C8.65284 79.6348 8.47433 80.4087 8.47433 80.4087C8.47433 80.4087 8.84876 80.3217 8.98808 80.3217C9.09692 80.3217 9.15352 80.387 9.09257 80.4696C9.03162 80.5522 8.96196 80.6478 8.92712 80.6913C8.88794 80.7348 8.86182 80.7435 8.77039 80.7609C8.64413 80.787 8.36113 80.8565 8.36113 80.8565C8.36113 80.8565 8.13473 81.6783 8.13909 81.8174C8.13909 81.8957 8.16521 81.987 8.26099 81.987C8.35678 81.987 8.53964 81.8739 8.67025 81.7913C8.69202 81.1522 9.18835 80.7261 9.57584 80.7261C9.7021 80.7261 9.65421 80.8478 9.79788 80.8478H9.88931C9.94591 80.8478 10.0069 80.8522 10.0069 80.9957C10.0069 81.1957 9.89367 81.5261 9.89367 81.7348C9.89367 81.8826 9.91544 81.987 9.97204 81.987C10.0678 81.987 10.1767 81.8478 10.255 81.7261C10.3813 81.0304 10.734 79.7609 10.734 79.6174L10.747 79.6ZM12.5016 80.7C12.7672 80.6783 12.9326 80.8217 12.9631 80.9C12.9936 80.9783 12.9892 81.1609 12.9152 81.2913C12.6845 81.7044 12.1097 81.6304 12.1097 81.6304C12.1097 81.6304 12.0444 81.9565 12.3405 81.9565C12.593 81.9565 12.7062 81.8304 12.8151 81.7261C12.8586 81.7261 12.9936 81.8652 12.9326 81.9609C12.8847 82.0348 12.6191 82.2565 12.2795 82.2609C11.7397 82.2609 11.6047 81.8 11.6744 81.4696C11.7658 81.0609 12.1751 80.7217 12.5016 80.6957V80.7ZM9.6455 80.987C9.32332 80.987 8.82699 81.9696 9.20577 81.9652C9.61938 81.9652 9.6455 81.1826 9.6455 81.0043V80.987ZM12.6409 80.8913C12.4232 80.9 12.1751 81.3174 12.1533 81.5C12.4798 81.513 12.654 81.1957 12.6757 81.0696C12.6888 80.9739 12.6932 80.887 12.6409 80.887V80.8913Z" fill="#557086"/>
<path d="M55.851 79.0672L54.2522 80.8632C54.1826 80.9428 54.1826 81.0572 54.2522 81.1368L55.8461 82.9328C55.9255 83.0224 56.0695 83.0224 56.1539 82.9328L57.7479 81.1368C57.8174 81.0572 57.8174 80.9428 57.7479 80.8632L56.1539 79.0672C56.0745 78.9776 55.9305 78.9776 55.8461 79.0672H55.851Z" fill="white"/>
<path d="M56.6604 79.6343L57.1421 80.1766L55.568 82.6144L54.704 81.6393L56.6604 79.6343Z" fill="#8EA3B2"/>
<rect x="13" y="62" width="37" height="13" rx="6.5" fill="#2F4553"/>
<path d="M25.0497 70.072C23.8797 70.072 23.3337 69.058 23.3337 68.002C23.3337 66.946 23.8797 65.938 25.0497 65.938C26.2197 65.938 26.7657 66.946 26.7657 68.002C26.7657 69.058 26.2197 70.072 25.0497 70.072ZM25.0497 69.16C25.5297 69.16 25.7217 68.71 25.7217 68.002C25.7217 67.294 25.5297 66.85 25.0497 66.85C24.5697 66.85 24.3777 67.294 24.3777 68.002C24.3777 68.71 24.5697 69.16 25.0497 69.16ZM27.638 70.072C27.332 70.072 27.074 69.814 27.074 69.508C27.074 69.202 27.332 68.944 27.638 68.944C27.944 68.944 28.202 69.202 28.202 69.508C28.202 69.814 27.944 70.072 27.638 70.072ZM30.2353 70.072C29.0653 70.072 28.5193 69.058 28.5193 68.002C28.5193 66.946 29.0653 65.938 30.2353 65.938C31.4053 65.938 31.9513 66.946 31.9513 68.002C31.9513 69.058 31.4053 70.072 30.2353 70.072ZM30.2353 69.16C30.7153 69.16 30.9073 68.71 30.9073 68.002C30.9073 67.294 30.7153 66.85 30.2353 66.85C29.7553 66.85 29.5633 67.294 29.5633 68.002C29.5633 68.71 29.7553 69.16 30.2353 69.16ZM35.5094 70H32.3714V69.196C34.1054 67.942 34.4294 67.666 34.4294 67.27C34.4294 66.994 34.1714 66.85 33.8774 66.85C33.4334 66.85 33.0974 67.018 32.8094 67.288L32.2394 66.604C32.6654 66.136 33.3014 65.938 33.8594 65.938C34.8014 65.938 35.4794 66.466 35.4794 67.27C35.4794 67.882 35.0414 68.404 34.0454 69.1H35.5094V70ZM38.86 70H37.846L37.288 69.124L36.724 70H35.716L36.706 68.512L35.776 67.102H36.79L37.288 67.888L37.78 67.102H38.794L37.87 68.512L38.86 70Z" fill="white"/>
<path d="M6.945 11.06C5.945 11.06 5.17 10.36 5.17 9.335C5.17 8.31 5.945 7.61 6.945 7.61C7.68 7.61 8.105 8.01 8.34 8.425L7.73 8.725C7.59 8.455 7.29 8.24 6.945 8.24C6.34 8.24 5.9 8.705 5.9 9.335C5.9 9.965 6.34 10.43 6.945 10.43C7.29 10.43 7.59 10.22 7.73 9.945L8.34 10.24C8.1 10.655 7.68 11.06 6.945 11.06ZM9.86762 11.06C9.07262 11.06 8.59262 10.48 8.59262 9.79C8.59262 9.105 9.07262 8.525 9.86762 8.525C10.6676 8.525 11.1476 9.105 11.1476 9.79C11.1476 10.48 10.6676 11.06 9.86762 11.06ZM9.86762 10.495C10.2626 10.495 10.4876 10.17 10.4876 9.79C10.4876 9.415 10.2626 9.09 9.86762 9.09C9.47262 9.09 9.25262 9.415 9.25262 9.79C9.25262 10.17 9.47262 10.495 9.86762 10.495ZM15.2537 11H14.6137V9.475C14.6137 9.25 14.5137 9.09 14.2537 9.09C14.0287 9.09 13.8437 9.24 13.7537 9.37V11H13.1137V9.475C13.1137 9.25 13.0137 9.09 12.7537 9.09C12.5337 9.09 12.3487 9.24 12.2537 9.375V11H11.6187V8.585H12.2537V8.9C12.3537 8.755 12.6737 8.525 13.0437 8.525C13.3987 8.525 13.6237 8.69 13.7137 8.965C13.8537 8.745 14.1737 8.525 14.5437 8.525C14.9887 8.525 15.2537 8.76 15.2537 9.255V11ZM19.5115 11H18.8715V9.475C18.8715 9.25 18.7715 9.09 18.5115 9.09C18.2865 9.09 18.1015 9.24 18.0115 9.37V11H17.3715V9.475C17.3715 9.25 17.2715 9.09 17.0115 9.09C16.7915 9.09 16.6065 9.24 16.5115 9.375V11H15.8765V8.585H16.5115V8.9C16.6115 8.755 16.9315 8.525 17.3015 8.525C17.6565 8.525 17.8815 8.69 17.9715 8.965C18.1115 8.745 18.4315 8.525 18.8015 8.525C19.2465 8.525 19.5115 8.76 19.5115 9.255V11ZM21.2543 11.06C20.4593 11.06 19.9793 10.48 19.9793 9.79C19.9793 9.105 20.4593 8.525 21.2543 8.525C22.0543 8.525 22.5343 9.105 22.5343 9.79C22.5343 10.48 22.0543 11.06 21.2543 11.06ZM21.2543 10.495C21.6493 10.495 21.8743 10.17 21.8743 9.79C21.8743 9.415 21.6493 9.09 21.2543 9.09C20.8593 9.09 20.6393 9.415 20.6393 9.79C20.6393 10.17 20.8593 10.495 21.2543 10.495ZM25.2704 11H24.6354V9.54C24.6354 9.205 24.4604 9.09 24.1904 9.09C23.9404 9.09 23.7454 9.23 23.6404 9.375V11H23.0054V8.585H23.6404V8.9C23.7954 8.715 24.0904 8.525 24.4854 8.525C25.0154 8.525 25.2704 8.825 25.2704 9.295V11Z" fill="#05080A"/>
<path d="M47.3851 11H46.9331L45.5411 9.096V11H45.0731V8.332H45.5531L46.9171 10.184V8.332H47.3851V11ZM48.812 11.048C48.2 11.048 47.82 10.588 47.82 10.032C47.82 9.48 48.2 9.02 48.812 9.02C49.432 9.02 49.808 9.48 49.808 10.032C49.808 10.588 49.432 11.048 48.812 11.048ZM48.812 10.676C49.172 10.676 49.372 10.376 49.372 10.032C49.372 9.692 49.172 9.392 48.812 9.392C48.456 9.392 48.256 9.692 48.256 10.032C48.256 10.376 48.456 10.676 48.812 10.676ZM50.4294 11.044C50.2774 11.044 50.1494 10.916 50.1494 10.764C50.1494 10.612 50.2774 10.484 50.4294 10.484C50.5814 10.484 50.7094 10.612 50.7094 10.764C50.7094 10.916 50.5814 11.044 50.4294 11.044ZM53.1852 11H52.7172V8.94L52.2812 9.392L52.0092 9.108L52.7772 8.332H53.1852V11ZM54.5288 11.044C54.2008 11.044 53.9448 10.928 53.7648 10.748L53.9808 10.396C54.1208 10.54 54.2768 10.628 54.5288 10.628C55.0128 10.628 55.2328 10.188 55.2328 9.752C55.2328 9.724 55.2328 9.7 55.2328 9.672C55.1088 9.852 54.8288 10.048 54.5168 10.048C54.0368 10.048 53.6208 9.752 53.6208 9.184C53.6208 8.692 54.0088 8.288 54.6048 8.288C55.3888 8.288 55.7048 8.924 55.7048 9.668C55.7048 10.436 55.3008 11.044 54.5288 11.044ZM54.6408 9.644C54.8688 9.644 55.0928 9.524 55.2248 9.332C55.2008 9.044 55.0408 8.704 54.6288 8.704C54.2808 8.704 54.0968 8.956 54.0968 9.168C54.0968 9.496 54.3528 9.644 54.6408 9.644ZM56.8671 11H56.3551L57.3631 8.744H55.9791V8.332H57.9031V8.656L56.8671 11Z" fill="white"/>
</svg>
