<svg width="63" height="88" viewBox="0 0 63 88" fill="none" xmlns="http://www.w3.org/2000/svg">
<rect width="63" height="88" rx="4" fill="#55DFFF"/>
<path d="M36.7008 13.5133L44.7992 3.48665C45.5586 2.54645 46.7024 2 47.911 2H58C59.6569 2 61 3.34314 61 5V83C61 84.6569 59.6569 86 58 86H5C3.34315 86 2 84.6569 2 83V18C2 16.3431 3.34315 15 5 15H33.589C34.7976 15 35.9414 14.4536 36.7008 13.5133Z" fill="#213743"/>
<rect x="5" y="18" width="53" height="40" rx="1" fill="#2F4553"/>
<path d="M43.4842 25.0366L14.0155 38.1138L18.9478 49.2285L48.4166 36.1513L43.4842 25.0366Z" fill="#56DEFF"/>
<path d="M27.77 53.0102C35.4136 53.0102 41.61 52.164 41.61 51.1202C41.61 50.0764 35.4136 49.2302 27.77 49.2302C20.1264 49.2302 13.93 50.0764 13.93 51.1202C13.93 52.164 20.1264 53.0102 27.77 53.0102Z" fill="#1A2C38"/>
<path d="M37.64 33.6102L24.29 39.5302C23.67 39.8102 23.16 40.2902 22.84 40.8902L18.97 48.3602C18.68 48.9302 18.98 49.6202 19.6 49.7902L27.73 51.9402C28.39 52.1102 29.09 52.0602 29.71 51.7802L43.06 45.8602C43.68 45.5802 44.19 45.1002 44.51 44.5002L48.38 37.0302C48.67 36.4602 48.37 35.7702 47.75 35.6002L39.62 33.4502C38.96 33.2802 38.26 33.3302 37.64 33.6102Z" fill="#56DEFF"/>
<path d="M24.64 42.4701C24.28 41.6101 23.53 40.9601 22.62 40.7301L15.77 38.9801L14 37.3901C13.91 37.6401 13.9 37.9001 14 38.1301L18.93 49.2401C19.05 49.5101 19.28 49.7201 19.59 49.8001L21.97 50.4301L26.77 51.7001C27.57 51.9101 28.27 51.1101 27.95 50.3401L24.63 42.4701H24.64Z" fill="#557086"/>
<path d="M27.96 50.3401L26.18 51.5401L27.73 51.9501C28.39 52.1201 29.09 52.0701 29.71 51.7901L30.49 51.4401C29.5 51.8801 28.44 51.4601 27.95 50.3401H27.96Z" fill="#557086"/>
<path d="M32.71 22.5001L19.36 28.4201C18.74 28.7001 18.23 29.1801 17.91 29.7801L14.04 37.2501C13.75 37.8201 14.05 38.5101 14.67 38.6801L22.8 40.8301C23.46 41.0001 24.16 40.9501 24.78 40.6701L38.13 34.7501C38.75 34.4701 39.26 33.9901 39.58 33.3901L43.45 25.9201C43.74 25.3501 43.44 24.6601 42.82 24.4901L34.69 22.3401C34.03 22.1701 33.33 22.2201 32.71 22.5001Z" fill="#56DEFF"/>
<path d="M19.97 32.6601C20.68 31.2301 22.25 29.7001 24.37 28.4001C24.35 28.2601 24.31 28.1301 24.22 28.0301C23.7 27.4401 22.16 27.9401 20.79 29.1601C19.42 30.3801 18.73 31.8401 19.25 32.4301C19.41 32.6101 19.67 32.6801 19.98 32.6701L19.97 32.6601Z" fill="white"/>
<path d="M30.4093 35.3366C35.306 33.1636 38.4601 29.5646 37.4543 27.298C36.4484 25.0314 31.6635 24.9555 26.7668 27.1285C21.8702 29.3014 18.716 32.9004 19.7219 35.167C20.7277 37.4336 25.5126 37.5095 30.4093 35.3366Z" fill="#1A2C38"/>
<path d="M28.17 30.2902C25.12 31.6402 22.96 33.8202 22.47 35.7702C23.4 34.2202 25.92 32.8302 28.3 31.9002C31.48 30.6502 34.26 30.5902 35.88 31.6302C36.41 31.0702 36.83 30.5002 37.13 29.9502C35.35 28.6702 31.55 28.7902 28.17 30.2902Z" fill="#557086"/>
<path d="M43.61 25.3301L48.41 36.1601C48.53 36.4301 48.53 36.7401 48.38 37.0301L46.04 41.5501C44.74 41.6901 43.43 40.1601 42.9 35.5101C42.35 30.7101 42.56 26.0201 43.6 25.3301H43.61Z" fill="white"/>
<path fill-rule="evenodd" clip-rule="evenodd" d="M6.49771 79C6.98969 79 7.48602 79.213 7.49037 79.6913C7.49037 80.1043 7.24656 80.2696 6.99839 80.2696C6.75023 80.2696 6.73281 80.1435 6.73281 80.1435C6.73281 80.1435 7.02452 79.9261 7.02452 79.7174C7.02452 79.6087 6.94179 79.313 6.489 79.3174C5.8577 79.3174 5.5181 79.6174 5.5181 80.1522C5.5181 80.7652 7.35105 80.9739 7.3554 81.7652C7.3554 82.613 6.47594 82.9957 5.69225 83C5.283 83 5.01306 82.7609 5.00871 82.3783C5.00871 81.9261 5.22204 81.4652 5.75756 81.4652C5.88382 81.4565 5.98831 81.5522 5.99702 81.6783C5.99702 81.6783 5.99702 81.6826 5.99702 81.687C5.99702 81.687 5.45715 81.8391 5.4615 82.3783C5.4615 82.4783 5.56599 82.6609 5.81851 82.6565C6.07103 82.6522 6.82424 82.4739 6.81989 81.8087C6.81989 81.1913 5.00435 81.1087 5 80.1478C5 79.0652 6.08845 79.0087 6.49771 79.0087V79ZM10.747 79.6C10.8123 79.5696 11.2129 79.4913 11.1955 79.813C11.1824 80.1348 10.9386 80.6913 10.9037 80.9348C11.2303 80.7696 11.6918 80.2087 11.6918 80.2087C11.6918 80.2087 12.0183 80.2522 11.9182 80.4522C11.818 80.6522 11.1519 81.1435 11.1519 81.1435C11.1519 81.1435 11.3043 82.5696 12.1707 82.5696C12.6453 82.5696 12.8499 82.3609 12.937 82.287C12.9587 82.2696 12.9762 82.2652 12.9849 82.2783C13.0197 82.387 12.9936 82.5043 12.9152 82.5913C12.8194 82.6957 12.5974 82.8217 12.1533 82.8261C11.3653 82.8261 10.9255 82.1957 10.8123 81.2609C10.7252 81.5348 10.7339 81.9826 10.7209 82.2C10.6948 82.2435 10.2507 82.4174 10.2158 82.1174C10.2158 82.0913 10.2158 82.0696 10.2158 82.0435C10.1331 82.1609 10.0199 82.2826 9.91108 82.2826C9.71951 82.2826 9.63679 82.1217 9.60196 82.0391C9.57584 82.0696 9.3625 82.287 9.08821 82.287C8.92277 82.2913 8.77474 82.1957 8.70943 82.0435C8.57011 82.1435 8.32195 82.2913 8.03895 82.2913C7.73418 82.2913 7.66017 82.1087 7.66017 81.9565C7.66017 81.713 7.84303 80.987 7.84303 80.987C7.84303 80.987 7.48602 81.1304 7.36411 81.1348C7.19431 81.1348 7.11159 80.8217 7.11159 80.813C7.11159 80.8087 7.11159 80.8 7.1203 80.8C7.22044 80.7609 7.94317 80.513 7.94317 80.513C7.94317 80.513 8.07813 79.9826 8.09555 79.913C8.11296 79.8435 8.2131 79.7 8.33065 79.6565C8.41773 79.6217 8.50916 79.6 8.60059 79.5913C8.63107 79.5913 8.65284 79.6 8.65284 79.6174C8.65284 79.6348 8.47433 80.4087 8.47433 80.4087C8.47433 80.4087 8.84876 80.3217 8.98808 80.3217C9.09692 80.3217 9.15352 80.387 9.09257 80.4696C9.03162 80.5522 8.96196 80.6478 8.92712 80.6913C8.88794 80.7348 8.86182 80.7435 8.77039 80.7609C8.64413 80.787 8.36113 80.8565 8.36113 80.8565C8.36113 80.8565 8.13473 81.6783 8.13909 81.8174C8.13909 81.8957 8.16521 81.987 8.26099 81.987C8.35678 81.987 8.53964 81.8739 8.67025 81.7913C8.69202 81.1522 9.18835 80.7261 9.57584 80.7261C9.7021 80.7261 9.65421 80.8478 9.79788 80.8478H9.88931C9.94591 80.8478 10.0069 80.8522 10.0069 80.9957C10.0069 81.1957 9.89367 81.5261 9.89367 81.7348C9.89367 81.8826 9.91544 81.987 9.97204 81.987C10.0678 81.987 10.1767 81.8478 10.255 81.7261C10.3813 81.0304 10.734 79.7609 10.734 79.6174L10.747 79.6ZM12.5016 80.7C12.7672 80.6783 12.9326 80.8217 12.9631 80.9C12.9936 80.9783 12.9892 81.1609 12.9152 81.2913C12.6845 81.7044 12.1097 81.6304 12.1097 81.6304C12.1097 81.6304 12.0444 81.9565 12.3405 81.9565C12.593 81.9565 12.7062 81.8304 12.8151 81.7261C12.8586 81.7261 12.9936 81.8652 12.9326 81.9609C12.8847 82.0348 12.6191 82.2565 12.2795 82.2609C11.7397 82.2609 11.6047 81.8 11.6744 81.4696C11.7658 81.0609 12.1751 80.7217 12.5016 80.6957V80.7ZM9.6455 80.987C9.32332 80.987 8.82699 81.9696 9.20577 81.9652C9.61938 81.9652 9.6455 81.1826 9.6455 81.0043V80.987ZM12.6409 80.8913C12.4232 80.9 12.1751 81.3174 12.1533 81.5C12.4798 81.513 12.654 81.1957 12.6757 81.0696C12.6888 80.9739 12.6932 80.887 12.6409 80.887V80.8913Z" fill="#557086"/>
<path d="M55.851 79.0672L54.2522 80.8632C54.1826 80.9428 54.1826 81.0572 54.2522 81.1368L55.8461 82.9328C55.9255 83.0224 56.0695 83.0224 56.1539 82.9328L57.7479 81.1368C57.8174 81.0572 57.8174 80.9428 57.7479 80.8632L56.1539 79.0672C56.0745 78.9776 55.9305 78.9776 55.8461 79.0672H55.851Z" fill="white"/>
<path d="M56.6604 79.6343L57.1421 80.1766L55.568 82.6144L54.704 81.6393L56.6604 79.6343Z" fill="#8EA3B2"/>
<rect x="13" y="62" width="37" height="13" rx="6.5" fill="#2F4553"/>
<path d="M25.0497 70.072C23.8797 70.072 23.3337 69.058 23.3337 68.002C23.3337 66.946 23.8797 65.938 25.0497 65.938C26.2197 65.938 26.7657 66.946 26.7657 68.002C26.7657 69.058 26.2197 70.072 25.0497 70.072ZM25.0497 69.16C25.5297 69.16 25.7217 68.71 25.7217 68.002C25.7217 67.294 25.5297 66.85 25.0497 66.85C24.5697 66.85 24.3777 67.294 24.3777 68.002C24.3777 68.71 24.5697 69.16 25.0497 69.16ZM27.638 70.072C27.332 70.072 27.074 69.814 27.074 69.508C27.074 69.202 27.332 68.944 27.638 68.944C27.944 68.944 28.202 69.202 28.202 69.508C28.202 69.814 27.944 70.072 27.638 70.072ZM30.2353 70.072C29.0653 70.072 28.5193 69.058 28.5193 68.002C28.5193 66.946 29.0653 65.938 30.2353 65.938C31.4053 65.938 31.9513 66.946 31.9513 68.002C31.9513 69.058 31.4053 70.072 30.2353 70.072ZM30.2353 69.16C30.7153 69.16 30.9073 68.71 30.9073 68.002C30.9073 67.294 30.7153 66.85 30.2353 66.85C29.7553 66.85 29.5633 67.294 29.5633 68.002C29.5633 68.71 29.7553 69.16 30.2353 69.16ZM35.5094 70H32.3714V69.196C34.1054 67.942 34.4294 67.666 34.4294 67.27C34.4294 66.994 34.1714 66.85 33.8774 66.85C33.4334 66.85 33.0974 67.018 32.8094 67.288L32.2394 66.604C32.6654 66.136 33.3014 65.938 33.8594 65.938C34.8014 65.938 35.4794 66.466 35.4794 67.27C35.4794 67.882 35.0414 68.404 34.0454 69.1H35.5094V70ZM38.86 70H37.846L37.288 69.124L36.724 70H35.716L36.706 68.512L35.776 67.102H36.79L37.288 67.888L37.78 67.102H38.794L37.87 68.512L38.86 70Z" fill="white"/>
<path d="M6.945 11.06C5.945 11.06 5.17 10.36 5.17 9.335C5.17 8.31 5.945 7.61 6.945 7.61C7.68 7.61 8.105 8.01 8.34 8.425L7.73 8.725C7.59 8.455 7.29 8.24 6.945 8.24C6.34 8.24 5.9 8.705 5.9 9.335C5.9 9.965 6.34 10.43 6.945 10.43C7.29 10.43 7.59 10.22 7.73 9.945L8.34 10.24C8.1 10.655 7.68 11.06 6.945 11.06ZM9.86762 11.06C9.07262 11.06 8.59262 10.48 8.59262 9.79C8.59262 9.105 9.07262 8.525 9.86762 8.525C10.6676 8.525 11.1476 9.105 11.1476 9.79C11.1476 10.48 10.6676 11.06 9.86762 11.06ZM9.86762 10.495C10.2626 10.495 10.4876 10.17 10.4876 9.79C10.4876 9.415 10.2626 9.09 9.86762 9.09C9.47262 9.09 9.25262 9.415 9.25262 9.79C9.25262 10.17 9.47262 10.495 9.86762 10.495ZM15.2537 11H14.6137V9.475C14.6137 9.25 14.5137 9.09 14.2537 9.09C14.0287 9.09 13.8437 9.24 13.7537 9.37V11H13.1137V9.475C13.1137 9.25 13.0137 9.09 12.7537 9.09C12.5337 9.09 12.3487 9.24 12.2537 9.375V11H11.6187V8.585H12.2537V8.9C12.3537 8.755 12.6737 8.525 13.0437 8.525C13.3987 8.525 13.6237 8.69 13.7137 8.965C13.8537 8.745 14.1737 8.525 14.5437 8.525C14.9887 8.525 15.2537 8.76 15.2537 9.255V11ZM19.5115 11H18.8715V9.475C18.8715 9.25 18.7715 9.09 18.5115 9.09C18.2865 9.09 18.1015 9.24 18.0115 9.37V11H17.3715V9.475C17.3715 9.25 17.2715 9.09 17.0115 9.09C16.7915 9.09 16.6065 9.24 16.5115 9.375V11H15.8765V8.585H16.5115V8.9C16.6115 8.755 16.9315 8.525 17.3015 8.525C17.6565 8.525 17.8815 8.69 17.9715 8.965C18.1115 8.745 18.4315 8.525 18.8015 8.525C19.2465 8.525 19.5115 8.76 19.5115 9.255V11ZM21.2543 11.06C20.4593 11.06 19.9793 10.48 19.9793 9.79C19.9793 9.105 20.4593 8.525 21.2543 8.525C22.0543 8.525 22.5343 9.105 22.5343 9.79C22.5343 10.48 22.0543 11.06 21.2543 11.06ZM21.2543 10.495C21.6493 10.495 21.8743 10.17 21.8743 9.79C21.8743 9.415 21.6493 9.09 21.2543 9.09C20.8593 9.09 20.6393 9.415 20.6393 9.79C20.6393 10.17 20.8593 10.495 21.2543 10.495ZM25.2704 11H24.6354V9.54C24.6354 9.205 24.4604 9.09 24.1904 9.09C23.9404 9.09 23.7454 9.23 23.6404 9.375V11H23.0054V8.585H23.6404V8.9C23.7954 8.715 24.0904 8.525 24.4854 8.525C25.0154 8.525 25.2704 8.825 25.2704 9.295V11Z" fill="#05080A"/>
<path d="M47.1351 11H46.6831L45.2911 9.096V11H44.8231V8.332H45.3031L46.6671 10.184V8.332H47.1351V11ZM48.562 11.048C47.95 11.048 47.57 10.588 47.57 10.032C47.57 9.48 47.95 9.02 48.562 9.02C49.182 9.02 49.558 9.48 49.558 10.032C49.558 10.588 49.182 11.048 48.562 11.048ZM48.562 10.676C48.922 10.676 49.122 10.376 49.122 10.032C49.122 9.692 48.922 9.392 48.562 9.392C48.206 9.392 48.006 9.692 48.006 10.032C48.006 10.376 48.206 10.676 48.562 10.676ZM50.1794 11.044C50.0274 11.044 49.8994 10.916 49.8994 10.764C49.8994 10.612 50.0274 10.484 50.1794 10.484C50.3314 10.484 50.4594 10.612 50.4594 10.764C50.4594 10.916 50.3314 11.044 50.1794 11.044ZM52.9352 11H52.4672V8.94L52.0312 9.392L51.7592 9.108L52.5272 8.332H52.9352V11ZM54.2788 11.044C53.9508 11.044 53.6948 10.928 53.5148 10.748L53.7308 10.396C53.8708 10.54 54.0268 10.628 54.2788 10.628C54.7628 10.628 54.9828 10.188 54.9828 9.752C54.9828 9.724 54.9828 9.7 54.9828 9.672C54.8588 9.852 54.5788 10.048 54.2668 10.048C53.7868 10.048 53.3708 9.752 53.3708 9.184C53.3708 8.692 53.7588 8.288 54.3548 8.288C55.1388 8.288 55.4548 8.924 55.4548 9.668C55.4548 10.436 55.0508 11.044 54.2788 11.044ZM54.3908 9.644C54.6188 9.644 54.8428 9.524 54.9748 9.332C54.9508 9.044 54.7908 8.704 54.3788 8.704C54.0308 8.704 53.8468 8.956 53.8468 9.168C53.8468 9.496 54.1028 9.644 54.3908 9.644ZM56.8131 11.048C56.2651 11.048 55.7891 10.796 55.7891 10.316C55.7891 9.976 56.0651 9.732 56.3891 9.624C56.0891 9.528 55.8331 9.332 55.8331 8.992C55.8331 8.5 56.3371 8.292 56.8131 8.292C57.2811 8.292 57.7931 8.5 57.7931 8.992C57.7931 9.332 57.5331 9.528 57.2331 9.624C57.5571 9.732 57.8331 9.976 57.8331 10.316C57.8331 10.792 57.3571 11.048 56.8131 11.048ZM56.8131 9.44C56.9771 9.412 57.3171 9.316 57.3171 9.064C57.3171 8.84 57.0971 8.708 56.8131 8.708C56.5211 8.708 56.3051 8.84 56.3051 9.064C56.3051 9.316 56.6491 9.412 56.8131 9.44ZM56.8131 10.632C57.1091 10.632 57.3611 10.488 57.3611 10.256C57.3611 9.98 56.9771 9.856 56.8131 9.836C56.6451 9.856 56.2611 9.98 56.2611 10.256C56.2611 10.488 56.5091 10.632 56.8131 10.632Z" fill="white"/>
</svg>
