<svg width="63" height="88" viewBox="0 0 63 88" fill="none" xmlns="http://www.w3.org/2000/svg">
<rect width="63" height="88" rx="4" fill="#55DFFF"/>
<path d="M36.7008 13.5133L44.7992 3.48665C45.5586 2.54645 46.7024 2 47.911 2H58C59.6569 2 61 3.34314 61 5V83C61 84.6569 59.6569 86 58 86H5C3.34315 86 2 84.6569 2 83V18C2 16.3431 3.34315 15 5 15H33.589C34.7976 15 35.9414 14.4536 36.7008 13.5133Z" fill="#213743"/>
<rect x="5" y="18" width="53" height="40" rx="1" fill="#2F4553"/>
<path d="M50.18 30.33C50.04 29.96 49.78 29.64 49.42 29.38C48.16 28.43 45.62 28.13 42.33 28.45L17.61 37.96C14.65 40.15 12.88 42.29 12.91 43.92C12.91 44.17 12.95 44.39 13.04 44.61C13.7 46.35 16.8 46.93 21.15 46.47C24.74 46.08 29.17 44.99 33.81 43.2C38.45 41.42 42.48 39.26 45.4 37.15C48.94 34.58 50.85 32.07 50.18 30.33Z" fill="white"/>
<path d="M29.64 32.41C21.42 35.57 15.45 39.93 16.14 42.23C16.15 42.28 16.17 42.32 16.19 42.37C17.16 44.58 24.55 43.82 32.81 40.65C41.06 37.48 47.06 33.09 46.3 30.8C46.28 30.76 46.26 30.71 46.24 30.66C45.22 28.49 37.86 29.25 29.64 32.41Z" fill="white"/>
<path d="M32.12 38.8C28.04 40.37 24.26 41.37 21.65 41.67C19.72 41.89 18.44 41.72 18.16 41.1C18.15 41.07 18.14 41.04 18.13 41.01C17.84 40 17.66 38.98 17.61 37.96C17.53 36.62 17.66 35.28 17.97 34V33.97C18.99 29.66 22.06 25.9 26.51 24.19C32.29 21.97 38.64 23.87 42.33 28.45C42.97 29.25 43.53 30.12 43.99 31.07C44 31.1 44.01 31.13 44.03 31.16C44.5 32.67 39.21 36.08 32.12 38.8Z" fill="#55DFFF"/>
<path d="M31.5 28.45C33.444 28.45 35.02 27.559 35.02 26.46C35.02 25.3609 33.444 24.47 31.5 24.47C29.5559 24.47 27.98 25.3609 27.98 26.46C27.98 27.559 29.5559 28.45 31.5 28.45Z" fill="white"/>
<path d="M45.4 37.1499C45.4 37.6499 45.38 38.1399 45.31 38.6299C45.31 38.6999 45.31 38.7699 45.29 38.8399C45.25 39.2099 45.19 39.5799 45.11 39.9399C44.52 42.8799 42.99 45.5799 40.72 47.5899C39.51 48.6699 38.09 49.5499 36.49 50.1699C31.87 51.9399 26.89 51.0799 23.2 48.3299C22.96 48.1499 22.72 47.9699 22.49 47.7699C22.36 47.6599 22.23 47.5399 22.1 47.4199C21.77 47.1199 21.45 46.8099 21.15 46.4699C22.89 46.2799 24.83 45.9299 26.9 45.4099C29.09 44.8599 31.42 44.1199 33.81 43.1999C38.45 41.4199 42.48 39.2599 45.4 37.1499Z" fill="#557086"/>
<path d="M45.4 37.1499C45.4 37.6499 45.38 38.1399 45.31 38.6299C45.31 38.6999 45.31 38.7699 45.29 38.8399C45.25 39.2099 45.19 39.5799 45.11 39.9399C42.32 41.7999 38.71 43.6599 34.64 45.2199C30.51 46.8099 26.55 47.8499 23.2 48.3299C22.96 48.1499 22.72 47.9699 22.49 47.7699C22.36 47.6599 22.23 47.5399 22.1 47.4199C21.77 47.1199 21.45 46.8099 21.15 46.4699C24.74 46.0799 29.17 44.9899 33.81 43.1999C38.45 41.4199 42.48 39.2599 45.4 37.1499Z" fill="#1A2C38"/>
<path d="M45.4 37.1499C42.48 39.2599 38.45 41.4199 33.81 43.1999C29.17 44.9899 24.74 46.0799 21.15 46.4699C16.8 46.9299 13.7 46.3499 13.04 44.6099C12.95 44.3899 12.91 44.1699 12.91 43.9199C13.57 45.3599 21.1 46.0899 33.48 41.0999C47.06 35.6299 50.74 31.1499 49.42 29.3799C49.78 29.6399 50.04 29.9599 50.18 30.3299C50.85 32.0699 48.94 34.5799 45.4 37.1499Z" fill="white"/>
<path d="M44.02 31.1201C44.02 31.1201 43.99 31.0901 43.99 31.0701C44 31.1001 44.02 31.1301 44.03 31.1601C44.03 31.1501 44.03 31.1301 44.03 31.1201H44.02Z" fill="#55DFFF"/>
<path d="M18.14 41.07C18.14 41.07 18.16 41.09 18.16 41.1C18.16 41.07 18.14 41.04 18.13 41.01C18.13 41.03 18.13 41.05 18.13 41.07H18.14Z" fill="#55DFFF"/>
<path fill-rule="evenodd" clip-rule="evenodd" d="M6.49771 79C6.98969 79 7.48602 79.213 7.49037 79.6913C7.49037 80.1043 7.24656 80.2696 6.99839 80.2696C6.75023 80.2696 6.73281 80.1435 6.73281 80.1435C6.73281 80.1435 7.02452 79.9261 7.02452 79.7174C7.02452 79.6087 6.94179 79.313 6.489 79.3174C5.8577 79.3174 5.5181 79.6174 5.5181 80.1522C5.5181 80.7652 7.35105 80.9739 7.3554 81.7652C7.3554 82.613 6.47594 82.9957 5.69225 83C5.283 83 5.01306 82.7609 5.00871 82.3783C5.00871 81.9261 5.22204 81.4652 5.75756 81.4652C5.88382 81.4565 5.98831 81.5522 5.99702 81.6783C5.99702 81.6783 5.99702 81.6826 5.99702 81.687C5.99702 81.687 5.45715 81.8391 5.4615 82.3783C5.4615 82.4783 5.56599 82.6609 5.81851 82.6565C6.07103 82.6522 6.82424 82.4739 6.81989 81.8087C6.81989 81.1913 5.00435 81.1087 5 80.1478C5 79.0652 6.08845 79.0087 6.49771 79.0087V79ZM10.747 79.6C10.8123 79.5696 11.2129 79.4913 11.1955 79.813C11.1824 80.1348 10.9386 80.6913 10.9037 80.9348C11.2303 80.7696 11.6918 80.2087 11.6918 80.2087C11.6918 80.2087 12.0183 80.2522 11.9182 80.4522C11.818 80.6522 11.1519 81.1435 11.1519 81.1435C11.1519 81.1435 11.3043 82.5696 12.1707 82.5696C12.6453 82.5696 12.8499 82.3609 12.937 82.287C12.9587 82.2696 12.9762 82.2652 12.9849 82.2783C13.0197 82.387 12.9936 82.5043 12.9152 82.5913C12.8194 82.6957 12.5974 82.8217 12.1533 82.8261C11.3653 82.8261 10.9255 82.1957 10.8123 81.2609C10.7252 81.5348 10.7339 81.9826 10.7209 82.2C10.6948 82.2435 10.2507 82.4174 10.2158 82.1174C10.2158 82.0913 10.2158 82.0696 10.2158 82.0435C10.1331 82.1609 10.0199 82.2826 9.91108 82.2826C9.71951 82.2826 9.63679 82.1217 9.60196 82.0391C9.57584 82.0696 9.3625 82.287 9.08821 82.287C8.92277 82.2913 8.77474 82.1957 8.70943 82.0435C8.57011 82.1435 8.32195 82.2913 8.03895 82.2913C7.73418 82.2913 7.66017 82.1087 7.66017 81.9565C7.66017 81.713 7.84303 80.987 7.84303 80.987C7.84303 80.987 7.48602 81.1304 7.36411 81.1348C7.19431 81.1348 7.11159 80.8217 7.11159 80.813C7.11159 80.8087 7.11159 80.8 7.1203 80.8C7.22044 80.7609 7.94317 80.513 7.94317 80.513C7.94317 80.513 8.07813 79.9826 8.09555 79.913C8.11296 79.8435 8.2131 79.7 8.33065 79.6565C8.41773 79.6217 8.50916 79.6 8.60059 79.5913C8.63107 79.5913 8.65284 79.6 8.65284 79.6174C8.65284 79.6348 8.47433 80.4087 8.47433 80.4087C8.47433 80.4087 8.84876 80.3217 8.98808 80.3217C9.09692 80.3217 9.15352 80.387 9.09257 80.4696C9.03162 80.5522 8.96196 80.6478 8.92712 80.6913C8.88794 80.7348 8.86182 80.7435 8.77039 80.7609C8.64413 80.787 8.36113 80.8565 8.36113 80.8565C8.36113 80.8565 8.13473 81.6783 8.13909 81.8174C8.13909 81.8957 8.16521 81.987 8.26099 81.987C8.35678 81.987 8.53964 81.8739 8.67025 81.7913C8.69202 81.1522 9.18835 80.7261 9.57584 80.7261C9.7021 80.7261 9.65421 80.8478 9.79788 80.8478H9.88931C9.94591 80.8478 10.0069 80.8522 10.0069 80.9957C10.0069 81.1957 9.89367 81.5261 9.89367 81.7348C9.89367 81.8826 9.91544 81.987 9.97204 81.987C10.0678 81.987 10.1767 81.8478 10.255 81.7261C10.3813 81.0304 10.734 79.7609 10.734 79.6174L10.747 79.6ZM12.5016 80.7C12.7672 80.6783 12.9326 80.8217 12.9631 80.9C12.9936 80.9783 12.9892 81.1609 12.9152 81.2913C12.6845 81.7044 12.1097 81.6304 12.1097 81.6304C12.1097 81.6304 12.0444 81.9565 12.3405 81.9565C12.593 81.9565 12.7062 81.8304 12.8151 81.7261C12.8586 81.7261 12.9936 81.8652 12.9326 81.9609C12.8847 82.0348 12.6191 82.2565 12.2795 82.2609C11.7397 82.2609 11.6047 81.8 11.6744 81.4696C11.7658 81.0609 12.1751 80.7217 12.5016 80.6957V80.7ZM9.6455 80.987C9.32332 80.987 8.82699 81.9696 9.20577 81.9652C9.61938 81.9652 9.6455 81.1826 9.6455 81.0043V80.987ZM12.6409 80.8913C12.4232 80.9 12.1751 81.3174 12.1533 81.5C12.4798 81.513 12.654 81.1957 12.6757 81.0696C12.6888 80.9739 12.6932 80.887 12.6409 80.887V80.8913Z" fill="#557086"/>
<path d="M55.851 79.0672L54.2522 80.8632C54.1826 80.9428 54.1826 81.0572 54.2522 81.1368L55.8461 82.9328C55.9255 83.0224 56.0695 83.0224 56.1539 82.9328L57.7479 81.1368C57.8174 81.0572 57.8174 80.9428 57.7479 80.8632L56.1539 79.0672C56.0745 78.9776 55.9305 78.9776 55.8461 79.0672H55.851Z" fill="white"/>
<path d="M56.6604 79.6343L57.1421 80.1766L55.568 82.6144L54.704 81.6393L56.6604 79.6343Z" fill="#8EA3B2"/>
<rect x="13" y="62" width="37" height="13" rx="6.5" fill="#2F4553"/>
<path d="M25.0497 70.072C23.8797 70.072 23.3337 69.058 23.3337 68.002C23.3337 66.946 23.8797 65.938 25.0497 65.938C26.2197 65.938 26.7657 66.946 26.7657 68.002C26.7657 69.058 26.2197 70.072 25.0497 70.072ZM25.0497 69.16C25.5297 69.16 25.7217 68.71 25.7217 68.002C25.7217 67.294 25.5297 66.85 25.0497 66.85C24.5697 66.85 24.3777 67.294 24.3777 68.002C24.3777 68.71 24.5697 69.16 25.0497 69.16ZM27.638 70.072C27.332 70.072 27.074 69.814 27.074 69.508C27.074 69.202 27.332 68.944 27.638 68.944C27.944 68.944 28.202 69.202 28.202 69.508C28.202 69.814 27.944 70.072 27.638 70.072ZM30.2353 70.072C29.0653 70.072 28.5193 69.058 28.5193 68.002C28.5193 66.946 29.0653 65.938 30.2353 65.938C31.4053 65.938 31.9513 66.946 31.9513 68.002C31.9513 69.058 31.4053 70.072 30.2353 70.072ZM30.2353 69.16C30.7153 69.16 30.9073 68.71 30.9073 68.002C30.9073 67.294 30.7153 66.85 30.2353 66.85C29.7553 66.85 29.5633 67.294 29.5633 68.002C29.5633 68.71 29.7553 69.16 30.2353 69.16ZM35.5094 70H32.3714V69.196C34.1054 67.942 34.4294 67.666 34.4294 67.27C34.4294 66.994 34.1714 66.85 33.8774 66.85C33.4334 66.85 33.0974 67.018 32.8094 67.288L32.2394 66.604C32.6654 66.136 33.3014 65.938 33.8594 65.938C34.8014 65.938 35.4794 66.466 35.4794 67.27C35.4794 67.882 35.0414 68.404 34.0454 69.1H35.5094V70ZM38.86 70H37.846L37.288 69.124L36.724 70H35.716L36.706 68.512L35.776 67.102H36.79L37.288 67.888L37.78 67.102H38.794L37.87 68.512L38.86 70Z" fill="white"/>
<path d="M6.945 11.06C5.945 11.06 5.17 10.36 5.17 9.335C5.17 8.31 5.945 7.61 6.945 7.61C7.68 7.61 8.105 8.01 8.34 8.425L7.73 8.725C7.59 8.455 7.29 8.24 6.945 8.24C6.34 8.24 5.9 8.705 5.9 9.335C5.9 9.965 6.34 10.43 6.945 10.43C7.29 10.43 7.59 10.22 7.73 9.945L8.34 10.24C8.1 10.655 7.68 11.06 6.945 11.06ZM9.86762 11.06C9.07262 11.06 8.59262 10.48 8.59262 9.79C8.59262 9.105 9.07262 8.525 9.86762 8.525C10.6676 8.525 11.1476 9.105 11.1476 9.79C11.1476 10.48 10.6676 11.06 9.86762 11.06ZM9.86762 10.495C10.2626 10.495 10.4876 10.17 10.4876 9.79C10.4876 9.415 10.2626 9.09 9.86762 9.09C9.47262 9.09 9.25262 9.415 9.25262 9.79C9.25262 10.17 9.47262 10.495 9.86762 10.495ZM15.2537 11H14.6137V9.475C14.6137 9.25 14.5137 9.09 14.2537 9.09C14.0287 9.09 13.8437 9.24 13.7537 9.37V11H13.1137V9.475C13.1137 9.25 13.0137 9.09 12.7537 9.09C12.5337 9.09 12.3487 9.24 12.2537 9.375V11H11.6187V8.585H12.2537V8.9C12.3537 8.755 12.6737 8.525 13.0437 8.525C13.3987 8.525 13.6237 8.69 13.7137 8.965C13.8537 8.745 14.1737 8.525 14.5437 8.525C14.9887 8.525 15.2537 8.76 15.2537 9.255V11ZM19.5115 11H18.8715V9.475C18.8715 9.25 18.7715 9.09 18.5115 9.09C18.2865 9.09 18.1015 9.24 18.0115 9.37V11H17.3715V9.475C17.3715 9.25 17.2715 9.09 17.0115 9.09C16.7915 9.09 16.6065 9.24 16.5115 9.375V11H15.8765V8.585H16.5115V8.9C16.6115 8.755 16.9315 8.525 17.3015 8.525C17.6565 8.525 17.8815 8.69 17.9715 8.965C18.1115 8.745 18.4315 8.525 18.8015 8.525C19.2465 8.525 19.5115 8.76 19.5115 9.255V11ZM21.2543 11.06C20.4593 11.06 19.9793 10.48 19.9793 9.79C19.9793 9.105 20.4593 8.525 21.2543 8.525C22.0543 8.525 22.5343 9.105 22.5343 9.79C22.5343 10.48 22.0543 11.06 21.2543 11.06ZM21.2543 10.495C21.6493 10.495 21.8743 10.17 21.8743 9.79C21.8743 9.415 21.6493 9.09 21.2543 9.09C20.8593 9.09 20.6393 9.415 20.6393 9.79C20.6393 10.17 20.8593 10.495 21.2543 10.495ZM25.2704 11H24.6354V9.54C24.6354 9.205 24.4604 9.09 24.1904 9.09C23.9404 9.09 23.7454 9.23 23.6404 9.375V11H23.0054V8.585H23.6404V8.9C23.7954 8.715 24.0904 8.525 24.4854 8.525C25.0154 8.525 25.2704 8.825 25.2704 9.295V11Z" fill="#05080A"/>
<path d="M46.1273 11H45.6753L44.2833 9.096V11H43.8153V8.332H44.2953L45.6593 10.184V8.332H46.1273V11ZM47.5542 11.048C46.9422 11.048 46.5622 10.588 46.5622 10.032C46.5622 9.48 46.9422 9.02 47.5542 9.02C48.1742 9.02 48.5502 9.48 48.5502 10.032C48.5502 10.588 48.1742 11.048 47.5542 11.048ZM47.5542 10.676C47.9142 10.676 48.1142 10.376 48.1142 10.032C48.1142 9.692 47.9142 9.392 47.5542 9.392C47.1982 9.392 46.9982 9.692 46.9982 10.032C46.9982 10.376 47.1982 10.676 47.5542 10.676ZM49.1716 11.044C49.0196 11.044 48.8916 10.916 48.8916 10.764C48.8916 10.612 49.0196 10.484 49.1716 10.484C49.3236 10.484 49.4516 10.612 49.4516 10.764C49.4516 10.916 49.3236 11.044 49.1716 11.044ZM52.8234 11H50.8914V10.632C51.9274 9.848 52.3314 9.5 52.3314 9.116C52.3314 8.836 52.0914 8.708 51.8474 8.708C51.5354 8.708 51.2954 8.836 51.1274 9.028L50.8554 8.72C51.0914 8.436 51.4674 8.292 51.8394 8.292C52.3554 8.292 52.8074 8.584 52.8074 9.116C52.8074 9.608 52.3554 10.048 51.6394 10.588H52.8234V11ZM54.3023 11.048C53.5543 11.048 53.2343 10.34 53.2343 9.668C53.2343 8.996 53.5543 8.292 54.3023 8.292C55.0503 8.292 55.3703 8.996 55.3703 9.668C55.3703 10.34 55.0503 11.048 54.3023 11.048ZM54.3023 10.632C54.7383 10.632 54.8943 10.176 54.8943 9.668C54.8943 9.16 54.7383 8.708 54.3023 8.708C53.8663 8.708 53.7103 9.16 53.7103 9.668C53.7103 10.176 53.8663 10.632 54.3023 10.632ZM56.7672 11.048C56.0192 11.048 55.6992 10.34 55.6992 9.668C55.6992 8.996 56.0192 8.292 56.7672 8.292C57.5152 8.292 57.8352 8.996 57.8352 9.668C57.8352 10.34 57.5152 11.048 56.7672 11.048ZM56.7672 10.632C57.2032 10.632 57.3592 10.176 57.3592 9.668C57.3592 9.16 57.2032 8.708 56.7672 8.708C56.3312 8.708 56.1752 9.16 56.1752 9.668C56.1752 10.176 56.3312 10.632 56.7672 10.632Z" fill="white"/>
</svg>
