<svg width="63" height="88" viewBox="0 0 63 88" fill="none" xmlns="http://www.w3.org/2000/svg">
<rect width="63" height="88" rx="4" fill="#55DFFF"/>
<path d="M36.7008 13.5133L44.7992 3.48665C45.5586 2.54645 46.7024 2 47.911 2H58C59.6569 2 61 3.34314 61 5V83C61 84.6569 59.6569 86 58 86H5C3.34315 86 2 84.6569 2 83V18C2 16.3431 3.34315 15 5 15H33.589C34.7976 15 35.9414 14.4536 36.7008 13.5133Z" fill="#213743"/>
<rect x="5" y="18" width="53" height="40" rx="1" fill="#2F4553"/>
<g clip-path="url(#clip0_26835_29377)">
<path d="M32.0001 53.18C31.5401 53.18 31.0901 53.06 30.6901 52.83C29.3901 52.08 28.7501 51.16 28.4501 50.51L28.3901 50.39L28.2601 50.37C27.0701 50.19 26.1801 49.72 25.6301 49.35C24.8301 48.81 24.4601 47.82 24.7301 46.89C24.9301 46.2 25.1801 45.51 25.4701 44.84L25.7301 44.25L25.1401 44.51C24.4701 44.81 23.7801 45.06 23.0901 45.25C22.8901 45.31 22.6901 45.33 22.4801 45.33C21.7401 45.33 21.0401 44.96 20.6301 44.34C20.2601 43.79 19.7901 42.9 19.6101 41.71L19.5901 41.58L19.4701 41.52C18.8301 41.21 17.9101 40.58 17.1601 39.28C16.6901 38.47 16.6901 37.47 17.1601 36.66C17.9101 35.36 18.8301 34.72 19.4701 34.42L19.5901 34.36L19.6101 34.23C19.7901 33.05 20.2601 32.15 20.6301 31.6C21.0501 30.98 21.7401 30.61 22.4801 30.61C22.6901 30.61 22.8901 30.64 23.0901 30.69C23.7801 30.89 24.4701 31.14 25.1401 31.43L25.7301 31.69L25.4701 31.1C25.1701 30.43 24.9201 29.75 24.7301 29.05C24.4701 28.12 24.8301 27.13 25.6301 26.59C26.1701 26.22 27.0701 25.75 28.2601 25.57L28.3901 25.55L28.4501 25.43C28.7601 24.79 29.3901 23.87 30.6901 23.11C31.0901 22.88 31.5401 22.76 32.0001 22.76C32.4601 22.76 32.9101 22.88 33.3101 23.11C34.6101 23.86 35.2501 24.78 35.5501 25.42L35.6101 25.54L35.7401 25.56C36.9301 25.74 37.8201 26.21 38.3701 26.58C39.1701 27.12 39.5401 28.11 39.2701 29.04C39.0701 29.73 38.8201 30.42 38.5301 31.09L38.2701 31.68L38.8601 31.42C39.5201 31.12 40.2101 30.87 40.9101 30.68C41.1101 30.62 41.3101 30.6 41.5201 30.6C42.2601 30.6 42.9601 30.97 43.3701 31.59C43.7401 32.14 44.2101 33.03 44.3901 34.22L44.4101 34.35L44.5301 34.41C45.1701 34.72 46.0901 35.35 46.8401 36.65C47.3101 37.46 47.3101 38.46 46.8401 39.27C46.0901 40.57 45.1701 41.21 44.5301 41.51L44.4101 41.57L44.3901 41.7C44.2101 42.88 43.7401 43.78 43.3701 44.33C42.9501 44.95 42.2601 45.32 41.5201 45.32C41.3101 45.32 41.1101 45.29 40.9101 45.24C40.2201 45.04 39.5301 44.79 38.8601 44.5L38.2701 44.24L38.5301 44.83C38.8301 45.49 39.0801 46.18 39.2701 46.88C39.5301 47.81 39.1701 48.8 38.3701 49.34C37.8301 49.71 36.9301 50.18 35.7401 50.36L35.6101 50.38L35.5501 50.5C35.2401 51.14 34.6101 52.06 33.3101 52.81C32.9101 53.04 32.4601 53.16 32.0001 53.16V53.18Z" fill="#1A2C38"/>
<path d="M28.4001 38.53C27.1901 38.61 25.7901 38.74 24.4501 38.95C24.3001 38.97 24.1501 38.95 24.0101 38.87C23.7801 38.74 23.4701 38.48 23.4701 37.99C23.4701 37.5 23.7801 37.24 24.0101 37.11C24.1401 37.04 24.3001 37.01 24.4501 37.03C25.7901 37.24 27.1901 37.37 28.4001 37.45C28.4901 36.84 28.7301 36.28 29.0801 35.81C27.8801 34.69 26.1101 33.42 23.7601 32.76C23.4601 32.68 23.1501 32.79 22.9801 33.05C22.6501 33.55 22.1801 34.49 22.2301 35.77C22.2301 35.77 20.9201 35.77 19.9401 37.47C19.7501 37.8 19.7501 38.2 19.9401 38.52C20.9201 40.22 22.2301 40.22 22.2301 40.22C22.1801 41.51 22.6501 42.44 22.9801 42.94C23.1501 43.19 23.4701 43.31 23.7601 43.23C26.1201 42.56 27.8901 41.29 29.0901 40.17C28.7401 39.7 28.5001 39.14 28.4101 38.53H28.4001Z" fill="#55DFFF"/>
<path d="M36.95 28.9701C36.45 28.6401 35.51 28.1701 34.23 28.2201C34.23 28.2201 34.23 26.9101 32.53 25.9301C32.2 25.7401 31.8 25.7401 31.48 25.9301C29.78 26.9101 29.78 28.2201 29.78 28.2201C28.49 28.1701 27.56 28.6401 27.06 28.9701C26.81 29.1401 26.69 29.4601 26.77 29.7501C27.44 32.1001 28.7 33.8701 29.82 35.0701C30.29 34.7201 30.85 34.4801 31.47 34.3901C31.39 33.1801 31.26 31.7901 31.05 30.4501C31.03 30.3001 31.05 30.1501 31.13 30.0101C31.26 29.7801 31.52 29.4701 32.01 29.4701C32.5 29.4701 32.76 29.7801 32.89 30.0101C32.96 30.1401 32.99 30.3001 32.97 30.4501C32.76 31.7901 32.63 33.1801 32.55 34.3901C33.16 34.4801 33.72 34.7201 34.2 35.0701C35.32 33.8701 36.59 32.1001 37.25 29.7501C37.33 29.4501 37.22 29.1401 36.96 28.9701H36.95Z" fill="#55DFFF"/>
<path d="M44.0699 37.4699C43.0899 35.7699 41.7799 35.7699 41.7799 35.7699C41.8299 34.4799 41.3599 33.5499 41.0299 33.0499C40.8599 32.7999 40.5399 32.6799 40.2499 32.7599C37.8999 33.4299 36.1299 34.6899 34.9299 35.8099C35.2799 36.2799 35.5199 36.8399 35.6099 37.4499C36.8199 37.3699 38.2199 37.2399 39.5599 37.0299C39.7099 37.0099 39.8599 37.0299 39.9999 37.1099C40.2299 37.2399 40.5399 37.4999 40.5399 37.9899C40.5399 38.4799 40.2299 38.7399 39.9999 38.8699C39.8699 38.9399 39.7099 38.9699 39.5599 38.9499C38.2199 38.7399 36.8199 38.6099 35.6099 38.5299C35.5199 39.1399 35.2799 39.6899 34.9299 40.1699C36.1299 41.2899 37.8999 42.5599 40.2599 43.2299C40.5599 43.3099 40.8699 43.1999 41.0399 42.9399C41.3699 42.4399 41.8399 41.4999 41.7899 40.2199C41.7899 40.2199 43.0999 40.2199 44.0799 38.5199C44.2699 38.1899 44.2699 37.7899 44.0799 37.4699H44.0699Z" fill="#55DFFF"/>
<path d="M37.23 46.2499C36.56 43.8899 35.29 42.1199 34.16 40.9199C33.69 41.2699 33.13 41.5099 32.53 41.5999C32.61 42.8099 32.74 44.2199 32.95 45.5599C32.97 45.7099 32.95 45.8599 32.87 45.9999C32.74 46.2299 32.48 46.5399 31.99 46.5399C31.5 46.5399 31.24 46.2299 31.11 45.9999C31.04 45.8699 31.01 45.7099 31.03 45.5599C31.24 44.2099 31.37 42.8099 31.45 41.5999C30.84 41.5099 30.29 41.2699 29.82 40.9199C28.7 42.1199 27.42 43.8999 26.75 46.2499C26.67 46.5499 26.78 46.8599 27.04 47.0299C27.54 47.3599 28.48 47.8299 29.76 47.7799C29.76 47.7799 29.76 49.0899 31.46 50.0699C31.79 50.2599 32.19 50.2599 32.51 50.0699C34.21 49.0899 34.21 47.7799 34.21 47.7799C35.5 47.8299 36.43 47.3599 36.93 47.0299C37.19 46.8599 37.3 46.5399 37.22 46.2499H37.23Z" fill="#55DFFF"/>
<path d="M47.3401 36.0599C46.6301 34.8299 45.7801 34.0899 45.0601 33.6499C44.8001 32.5499 44.3501 31.6999 43.9801 31.1499C43.3301 30.1799 42.2401 29.5999 41.0701 29.5999C40.8201 29.5999 40.5601 29.6299 40.3101 29.6799C40.6201 28.2699 40.0501 26.8199 38.8401 26.0099C38.3001 25.6399 37.4501 25.1899 36.3401 24.9299C35.9001 24.2099 35.1601 23.3599 33.9301 22.6499C33.3401 22.3099 32.6701 22.1299 31.9901 22.1299C31.3101 22.1299 30.6401 22.3099 30.0501 22.6499C28.8201 23.3599 28.0801 24.2099 27.6401 24.9299C26.5401 25.1899 25.6901 25.6399 25.1401 26.0099C23.9301 26.8199 23.3601 28.2699 23.6701 29.6799C23.4201 29.6299 23.1701 29.5999 22.9101 29.5999C21.7401 29.5999 20.6501 30.1799 20.0001 31.1499C19.6301 31.6999 19.1701 32.5399 18.9201 33.6499C18.2001 34.0899 17.3501 34.8299 16.6401 36.0599C15.9501 37.2599 15.9501 38.7399 16.6401 39.9399C17.3501 41.1699 18.2001 41.9099 18.9201 42.3499C19.1801 43.4499 19.6301 44.2999 20.0001 44.8499C20.6501 45.8199 21.7401 46.3999 22.9101 46.3999C23.1601 46.3999 23.4201 46.3699 23.6701 46.3199C23.3601 47.7299 23.9301 49.1799 25.1401 49.9899C25.6901 50.3599 26.5301 50.8099 27.6401 51.0699C28.0801 51.7899 28.8201 52.6399 30.0501 53.3499C30.6401 53.6899 31.3101 53.8699 31.9901 53.8699C32.6701 53.8699 33.3401 53.6899 33.9301 53.3499C35.1601 52.6399 35.9001 51.7899 36.3401 51.0699C37.4401 50.8099 38.2901 50.3599 38.8401 49.9899C40.0501 49.1799 40.6201 47.7299 40.3101 46.3199C40.5601 46.3699 40.8101 46.3999 41.0701 46.3999C42.2401 46.3999 43.3301 45.8199 43.9801 44.8499C44.3501 44.2999 44.8101 43.4499 45.0601 42.3499C45.7801 41.9099 46.6301 41.1699 47.3401 39.9399C48.0301 38.7399 48.0301 37.2599 47.3401 36.0599ZM46.2801 39.2599C45.5601 40.5099 44.6701 41.1299 44.0501 41.4199L43.9401 41.4699L43.9201 41.5899C43.7501 42.7299 43.2901 43.5999 42.9401 44.1199C42.5401 44.7199 41.8701 45.0699 41.1601 45.0699C40.9601 45.0699 40.7601 45.0399 40.5701 44.9899C39.9001 44.7999 39.2401 44.5599 38.6001 44.2699L38.0301 44.0199L38.2801 44.5899C38.5701 45.2299 38.8101 45.8899 39.0001 46.5599C39.2601 47.4599 38.9101 48.4099 38.1301 48.9299C37.6101 49.2799 36.7401 49.7399 35.6001 49.9099L35.4801 49.9299L35.4301 50.0399C35.1401 50.6599 34.5201 51.5499 33.2701 52.2699C32.8901 52.4899 32.4501 52.6099 32.0101 52.6099C31.5701 52.6099 31.1301 52.4899 30.7501 52.2699C29.5001 51.5499 28.8801 50.6599 28.5901 50.0399L28.5401 49.9299L28.4201 49.9099C27.2801 49.7399 26.4101 49.2799 25.8901 48.9299C25.1201 48.4099 24.7701 47.4599 25.0201 46.5599C25.2101 45.8899 25.4501 45.2299 25.7401 44.5899L25.9901 44.0199L25.4201 44.2699C24.7801 44.5599 24.1101 44.7999 23.4501 44.9899C23.2601 45.0399 23.0601 45.0699 22.8601 45.0699C22.1401 45.0699 21.4801 44.7099 21.0801 44.1199C20.7301 43.5899 20.2701 42.7299 20.1001 41.5899L20.0801 41.4699L19.9701 41.4199C19.3501 41.1299 18.4601 40.5099 17.7401 39.2599C17.2901 38.4799 17.2901 37.5199 17.7401 36.7399C18.4601 35.4899 19.3501 34.8699 19.9701 34.5799L20.0801 34.5299L20.1001 34.4099C20.2701 33.2699 20.7301 32.3999 21.0801 31.8799C21.4801 31.2799 22.1501 30.9299 22.8601 30.9299C23.0601 30.9299 23.2601 30.9599 23.4501 31.0099C24.1201 31.1999 24.7801 31.4399 25.4201 31.7299L25.9901 31.9799L25.7401 31.4099C25.4501 30.7699 25.2101 30.1099 25.0201 29.4399C24.7601 28.5399 25.1101 27.5899 25.8901 27.0699C26.4101 26.7199 27.2801 26.2599 28.4201 26.0899L28.5401 26.0699L28.5901 25.9599C28.8901 25.3399 29.5001 24.4499 30.7501 23.7299C31.1301 23.5099 31.5701 23.3899 32.0101 23.3899C32.4501 23.3899 32.8901 23.5099 33.2701 23.7299C34.5201 24.4499 35.1401 25.3399 35.4301 25.9599L35.4801 26.0699L35.6001 26.0899C36.7401 26.2599 37.6101 26.7199 38.1301 27.0699C38.9001 27.5899 39.2501 28.5399 39.0001 29.4399C38.8101 30.1099 38.5701 30.7699 38.2801 31.4099L38.0301 31.9799L38.6001 31.7299C39.2401 31.4399 39.9001 31.1999 40.5701 31.0099C40.7601 30.9599 40.9601 30.9299 41.1601 30.9299C41.8801 30.9299 42.5401 31.2899 42.9401 31.8799C43.2901 32.4099 43.7501 33.2699 43.9201 34.4099L43.9401 34.5299L44.0501 34.5799C44.6701 34.8699 45.5601 35.4899 46.2801 36.7399C46.7301 37.5199 46.7301 38.4799 46.2801 39.2599Z" fill="#55DFFF"/>
<path d="M44.05 34.5799C44.67 34.8699 45.56 35.4899 46.28 36.7399C46.73 37.5199 46.73 38.4799 46.28 39.2599C45.56 40.5099 44.67 41.1299 44.05 41.4199L43.94 41.4699L43.92 41.5899C43.75 42.7299 43.29 43.5999 42.94 44.1199C42.54 44.7199 41.87 45.0699 41.16 45.0699C40.96 45.0699 40.76 45.0399 40.57 44.9899C39.9 44.7999 39.24 44.5599 38.6 44.2699L38.03 44.0199L38.28 44.5899C38.57 45.2299 38.81 45.8899 39 46.5599C39.26 47.4599 38.91 48.4099 38.13 48.9299C37.61 49.2799 36.74 49.7399 35.6 49.9099L35.48 49.9299L35.43 50.0399C35.14 50.6599 34.52 51.5499 33.27 52.2699C32.89 52.4899 32.45 52.6099 32.01 52.6099C31.57 52.6099 31.13 52.4899 30.75 52.2699C29.5 51.5499 28.88 50.6599 28.59 50.0399L28.54 49.9299L28.42 49.9099C27.28 49.7399 26.41 49.2799 25.89 48.9299C25.12 48.4099 24.77 47.4599 25.02 46.5599C25.21 45.8899 25.45 45.2299 25.74 44.5899L25.99 44.0199L25.42 44.2699C24.78 44.5599 24.11 44.7999 23.45 44.9899C23.26 45.0399 23.06 45.0699 22.86 45.0699C22.14 45.0699 21.48 44.7099 21.08 44.1199C20.73 43.5999 20.27 42.7299 20.1 41.5899L20.08 41.4699L18.96 42.3399C19.22 43.4399 19.67 44.2899 20.04 44.8399C20.69 45.8099 21.78 46.3899 22.95 46.3899C23.2 46.3899 23.46 46.3599 23.71 46.3099C23.4 47.7199 23.97 49.1699 25.18 49.9799C25.73 50.3499 26.57 50.7999 27.68 51.0599C28.12 51.7799 28.86 52.6299 30.09 53.3399C30.68 53.6799 31.35 53.8599 32.03 53.8599C32.71 53.8599 33.38 53.6799 33.97 53.3399C35.2 52.6299 35.94 51.7799 36.38 51.0599C37.48 50.7999 38.33 50.3499 38.88 49.9799C40.09 49.1699 40.66 47.7199 40.35 46.3099C40.6 46.3599 40.85 46.3899 41.11 46.3899C42.28 46.3899 43.37 45.8099 44.02 44.8399C44.39 44.2899 44.85 43.4399 45.1 42.3399C45.82 41.8999 46.67 41.1599 47.38 39.9299C48.07 38.7299 48.07 37.2499 47.38 36.0499C46.67 34.8199 45.82 34.0799 45.1 33.6399L43.98 34.5099L44.09 34.5599L44.05 34.5799Z" fill="#557086"/>
<path d="M35.6 26.0799C36.74 26.2499 37.61 26.7099 38.13 27.0599C38.9 27.5799 39.25 28.5299 39 29.4299C38.81 30.0999 38.57 30.7599 38.28 31.3999L38.03 31.9699L38.6 31.7199C39.24 31.4299 39.9 31.1899 40.57 30.9999C40.76 30.9499 40.96 30.9199 41.16 30.9199C41.88 30.9199 42.54 31.2799 42.94 31.8699C43.29 32.3999 43.75 33.2599 43.92 34.3999L43.94 34.5199L45.06 33.6499C44.8 32.5499 44.35 31.6999 43.98 31.1499C43.33 30.1799 42.24 29.5999 41.07 29.5999C40.82 29.5999 40.56 29.6299 40.31 29.6799C40.62 28.2699 40.05 26.8199 38.84 26.0099C38.3 25.6399 37.45 25.1899 36.34 24.9299L35.47 26.0499L35.59 26.0699L35.6 26.0799Z" fill="white"/>
</g>
<path fill-rule="evenodd" clip-rule="evenodd" d="M6.49771 79C6.98969 79 7.48602 79.213 7.49037 79.6913C7.49037 80.1043 7.24656 80.2696 6.99839 80.2696C6.75023 80.2696 6.73281 80.1435 6.73281 80.1435C6.73281 80.1435 7.02452 79.9261 7.02452 79.7174C7.02452 79.6087 6.94179 79.313 6.489 79.3174C5.8577 79.3174 5.5181 79.6174 5.5181 80.1522C5.5181 80.7652 7.35105 80.9739 7.3554 81.7652C7.3554 82.613 6.47594 82.9957 5.69225 83C5.283 83 5.01306 82.7609 5.00871 82.3783C5.00871 81.9261 5.22204 81.4652 5.75756 81.4652C5.88382 81.4565 5.98831 81.5522 5.99702 81.6783C5.99702 81.6783 5.99702 81.6826 5.99702 81.687C5.99702 81.687 5.45715 81.8391 5.4615 82.3783C5.4615 82.4783 5.56599 82.6609 5.81851 82.6565C6.07103 82.6522 6.82424 82.4739 6.81989 81.8087C6.81989 81.1913 5.00435 81.1087 5 80.1478C5 79.0652 6.08845 79.0087 6.49771 79.0087V79ZM10.747 79.6C10.8123 79.5696 11.2129 79.4913 11.1955 79.813C11.1824 80.1348 10.9386 80.6913 10.9037 80.9348C11.2303 80.7696 11.6918 80.2087 11.6918 80.2087C11.6918 80.2087 12.0183 80.2522 11.9182 80.4522C11.818 80.6522 11.1519 81.1435 11.1519 81.1435C11.1519 81.1435 11.3043 82.5696 12.1707 82.5696C12.6453 82.5696 12.8499 82.3609 12.937 82.287C12.9587 82.2696 12.9762 82.2652 12.9849 82.2783C13.0197 82.387 12.9936 82.5043 12.9152 82.5913C12.8194 82.6957 12.5974 82.8217 12.1533 82.8261C11.3653 82.8261 10.9255 82.1957 10.8123 81.2609C10.7252 81.5348 10.7339 81.9826 10.7209 82.2C10.6948 82.2435 10.2507 82.4174 10.2158 82.1174C10.2158 82.0913 10.2158 82.0696 10.2158 82.0435C10.1331 82.1609 10.0199 82.2826 9.91108 82.2826C9.71951 82.2826 9.63679 82.1217 9.60196 82.0391C9.57584 82.0696 9.3625 82.287 9.08821 82.287C8.92277 82.2913 8.77474 82.1957 8.70943 82.0435C8.57011 82.1435 8.32195 82.2913 8.03895 82.2913C7.73418 82.2913 7.66017 82.1087 7.66017 81.9565C7.66017 81.713 7.84303 80.987 7.84303 80.987C7.84303 80.987 7.48602 81.1304 7.36411 81.1348C7.19431 81.1348 7.11159 80.8217 7.11159 80.813C7.11159 80.8087 7.11159 80.8 7.1203 80.8C7.22044 80.7609 7.94317 80.513 7.94317 80.513C7.94317 80.513 8.07813 79.9826 8.09555 79.913C8.11296 79.8435 8.2131 79.7 8.33065 79.6565C8.41773 79.6217 8.50916 79.6 8.60059 79.5913C8.63107 79.5913 8.65284 79.6 8.65284 79.6174C8.65284 79.6348 8.47433 80.4087 8.47433 80.4087C8.47433 80.4087 8.84876 80.3217 8.98808 80.3217C9.09692 80.3217 9.15352 80.387 9.09257 80.4696C9.03162 80.5522 8.96196 80.6478 8.92712 80.6913C8.88794 80.7348 8.86182 80.7435 8.77039 80.7609C8.64413 80.787 8.36113 80.8565 8.36113 80.8565C8.36113 80.8565 8.13473 81.6783 8.13909 81.8174C8.13909 81.8957 8.16521 81.987 8.26099 81.987C8.35678 81.987 8.53964 81.8739 8.67025 81.7913C8.69202 81.1522 9.18835 80.7261 9.57584 80.7261C9.7021 80.7261 9.65421 80.8478 9.79788 80.8478H9.88931C9.94591 80.8478 10.0069 80.8522 10.0069 80.9957C10.0069 81.1957 9.89367 81.5261 9.89367 81.7348C9.89367 81.8826 9.91544 81.987 9.97204 81.987C10.0678 81.987 10.1767 81.8478 10.255 81.7261C10.3813 81.0304 10.734 79.7609 10.734 79.6174L10.747 79.6ZM12.5016 80.7C12.7672 80.6783 12.9326 80.8217 12.9631 80.9C12.9936 80.9783 12.9892 81.1609 12.9152 81.2913C12.6845 81.7044 12.1097 81.6304 12.1097 81.6304C12.1097 81.6304 12.0444 81.9565 12.3405 81.9565C12.593 81.9565 12.7062 81.8304 12.8151 81.7261C12.8586 81.7261 12.9936 81.8652 12.9326 81.9609C12.8847 82.0348 12.6191 82.2565 12.2795 82.2609C11.7397 82.2609 11.6047 81.8 11.6744 81.4696C11.7658 81.0609 12.1751 80.7217 12.5016 80.6957V80.7ZM9.6455 80.987C9.32332 80.987 8.82699 81.9696 9.20577 81.9652C9.61938 81.9652 9.6455 81.1826 9.6455 81.0043V80.987ZM12.6409 80.8913C12.4232 80.9 12.1751 81.3174 12.1533 81.5C12.4798 81.513 12.654 81.1957 12.6757 81.0696C12.6888 80.9739 12.6932 80.887 12.6409 80.887V80.8913Z" fill="#557086"/>
<path d="M55.851 79.0672L54.2521 80.8632C54.1826 80.9428 54.1826 81.0572 54.2521 81.1368L55.846 82.9328C55.9255 83.0224 56.0695 83.0224 56.1539 82.9328L57.7478 81.1368C57.8173 81.0572 57.8173 80.9428 57.7478 80.8632L56.1539 79.0672C56.0744 78.9776 55.9304 78.9776 55.846 79.0672H55.851Z" fill="white"/>
<path d="M56.6604 79.6343L57.142 80.1766L55.568 82.6144L54.704 81.6393L56.6604 79.6343Z" fill="#8EA3B2"/>
<rect x="13" y="62" width="37" height="13" rx="6.5" fill="#2F4553"/>
<path d="M26.0302 70.072C24.8602 70.072 24.3142 69.058 24.3142 68.002C24.3142 66.946 24.8602 65.938 26.0302 65.938C27.2002 65.938 27.7462 66.946 27.7462 68.002C27.7462 69.058 27.2002 70.072 26.0302 70.072ZM26.0302 69.16C26.5102 69.16 26.7022 68.71 26.7022 68.002C26.7022 67.294 26.5102 66.85 26.0302 66.85C25.5502 66.85 25.3582 67.294 25.3582 68.002C25.3582 68.71 25.5502 69.16 26.0302 69.16ZM28.6185 70.072C28.3125 70.072 28.0545 69.814 28.0545 69.508C28.0545 69.202 28.3125 68.944 28.6185 68.944C28.9245 68.944 29.1825 69.202 29.1825 69.508C29.1825 69.814 28.9245 70.072 28.6185 70.072ZM31.2158 70.072C30.0458 70.072 29.4998 69.058 29.4998 68.002C29.4998 66.946 30.0458 65.938 31.2158 65.938C32.3858 65.938 32.9318 66.946 32.9318 68.002C32.9318 69.058 32.3858 70.072 31.2158 70.072ZM31.2158 69.16C31.6958 69.16 31.8878 68.71 31.8878 68.002C31.8878 67.294 31.6958 66.85 31.2158 66.85C30.7358 66.85 30.5438 67.294 30.5438 68.002C30.5438 68.71 30.7358 69.16 31.2158 69.16ZM35.4099 70H34.3779V67.318L33.7059 67.996L33.1179 67.378L34.5159 65.998H35.4099V70ZM38.8795 70H37.8655L37.3075 69.124L36.7435 70H35.7355L36.7255 68.512L35.7955 67.102H36.8095L37.3075 67.888L37.7995 67.102H38.8135L37.8895 68.512L38.8795 70Z" fill="white"/>
<path d="M6.945 11.06C5.945 11.06 5.17 10.36 5.17 9.335C5.17 8.31 5.945 7.61 6.945 7.61C7.68 7.61 8.105 8.01 8.34 8.425L7.73 8.725C7.59 8.455 7.29 8.24 6.945 8.24C6.34 8.24 5.9 8.705 5.9 9.335C5.9 9.965 6.34 10.43 6.945 10.43C7.29 10.43 7.59 10.22 7.73 9.945L8.34 10.24C8.1 10.655 7.68 11.06 6.945 11.06ZM9.86762 11.06C9.07262 11.06 8.59262 10.48 8.59262 9.79C8.59262 9.105 9.07262 8.525 9.86762 8.525C10.6676 8.525 11.1476 9.105 11.1476 9.79C11.1476 10.48 10.6676 11.06 9.86762 11.06ZM9.86762 10.495C10.2626 10.495 10.4876 10.17 10.4876 9.79C10.4876 9.415 10.2626 9.09 9.86762 9.09C9.47262 9.09 9.25262 9.415 9.25262 9.79C9.25262 10.17 9.47262 10.495 9.86762 10.495ZM15.2537 11H14.6137V9.475C14.6137 9.25 14.5137 9.09 14.2537 9.09C14.0287 9.09 13.8437 9.24 13.7537 9.37V11H13.1137V9.475C13.1137 9.25 13.0137 9.09 12.7537 9.09C12.5337 9.09 12.3487 9.24 12.2537 9.375V11H11.6187V8.585H12.2537V8.9C12.3537 8.755 12.6737 8.525 13.0437 8.525C13.3987 8.525 13.6237 8.69 13.7137 8.965C13.8537 8.745 14.1737 8.525 14.5437 8.525C14.9887 8.525 15.2537 8.76 15.2537 9.255V11ZM19.5115 11H18.8715V9.475C18.8715 9.25 18.7715 9.09 18.5115 9.09C18.2865 9.09 18.1015 9.24 18.0115 9.37V11H17.3715V9.475C17.3715 9.25 17.2715 9.09 17.0115 9.09C16.7915 9.09 16.6065 9.24 16.5115 9.375V11H15.8765V8.585H16.5115V8.9C16.6115 8.755 16.9315 8.525 17.3015 8.525C17.6565 8.525 17.8815 8.69 17.9715 8.965C18.1115 8.745 18.4315 8.525 18.8015 8.525C19.2465 8.525 19.5115 8.76 19.5115 9.255V11ZM21.2543 11.06C20.4593 11.06 19.9793 10.48 19.9793 9.79C19.9793 9.105 20.4593 8.525 21.2543 8.525C22.0543 8.525 22.5343 9.105 22.5343 9.79C22.5343 10.48 22.0543 11.06 21.2543 11.06ZM21.2543 10.495C21.6493 10.495 21.8743 10.17 21.8743 9.79C21.8743 9.415 21.6493 9.09 21.2543 9.09C20.8593 9.09 20.6393 9.415 20.6393 9.79C20.6393 10.17 20.8593 10.495 21.2543 10.495ZM25.2704 11H24.6354V9.54C24.6354 9.205 24.4604 9.09 24.1904 9.09C23.9404 9.09 23.7454 9.23 23.6404 9.375V11H23.0054V8.585H23.6404V8.9C23.7954 8.715 24.0904 8.525 24.4854 8.525C25.0154 8.525 25.2704 8.825 25.2704 9.295V11Z" fill="#05080A"/>
<path d="M47.2171 11H46.7651L45.3731 9.096V11H44.9051V8.332H45.3851L46.7491 10.184V8.332H47.2171V11ZM48.644 11.048C48.032 11.048 47.652 10.588 47.652 10.032C47.652 9.48 48.032 9.02 48.644 9.02C49.264 9.02 49.64 9.48 49.64 10.032C49.64 10.588 49.264 11.048 48.644 11.048ZM48.644 10.676C49.004 10.676 49.204 10.376 49.204 10.032C49.204 9.692 49.004 9.392 48.644 9.392C48.288 9.392 48.088 9.692 48.088 10.032C48.088 10.376 48.288 10.676 48.644 10.676ZM50.2614 11.044C50.1094 11.044 49.9814 10.916 49.9814 10.764C49.9814 10.612 50.1094 10.484 50.2614 10.484C50.4134 10.484 50.5414 10.612 50.5414 10.764C50.5414 10.916 50.4134 11.044 50.2614 11.044ZM53.9133 11H51.9813V10.632C53.0173 9.848 53.4213 9.5 53.4213 9.116C53.4213 8.836 53.1813 8.708 52.9373 8.708C52.6253 8.708 52.3853 8.836 52.2173 9.028L51.9453 8.72C52.1813 8.436 52.5573 8.292 52.9293 8.292C53.4453 8.292 53.8973 8.584 53.8973 9.116C53.8973 9.608 53.4453 10.048 52.7293 10.588H53.9133V11ZM55.3962 11H54.9282V8.94L54.4922 9.392L54.2202 9.108L54.9882 8.332H55.3962V11ZM57.5317 11H57.0637V10.396H55.7917V10.02L56.8877 8.332H57.5317V9.984H57.8877V10.396H57.5317V11ZM57.0637 9.984V8.752L56.2517 9.984H57.0637Z" fill="white"/>
<defs>
<clipPath id="clip0_26835_29377">
<rect width="63" height="88" fill="white"/>
</clipPath>
</defs>
</svg>
