<svg width="63" height="88" viewBox="0 0 63 88" fill="none" xmlns="http://www.w3.org/2000/svg">
<rect width="63" height="88" rx="4" fill="#55DFFF"/>
<path d="M36.7008 13.5133L44.7992 3.48665C45.5586 2.54645 46.7024 2 47.911 2H58C59.6569 2 61 3.34314 61 5V83C61 84.6569 59.6569 86 58 86H5C3.34315 86 2 84.6569 2 83V18C2 16.3431 3.34315 15 5 15H33.589C34.7976 15 35.9414 14.4536 36.7008 13.5133Z" fill="#213743"/>
<rect x="5" y="18" width="53" height="40" rx="1" fill="#2F4553"/>
<g clip-path="url(#clip0_26835_29383)">
<path d="M42.85 53.85C42.85 54.59 42.25 55.19 41.51 55.19H35.48C32.95 55.19 31.34 54.93 30.64 54.42C30.09 54.01 29.82 53.13 29.82 51.77C28.87 51.77 27.95 51.69 27.07 51.53C26.19 51.37 25.31 51.07 24.43 50.63C22.49 49.71 21.24 48.48 20.69 46.96C20.32 45.95 20.14 44.19 20.14 41.66V32.98C20.14 31.76 20.18 30.76 20.28 29.98C20.37 29.21 20.58 28.46 20.91 27.76C21.64 26.35 22.88 25.32 24.62 24.68C26.36 24.04 28.51 23.72 31.08 23.72C34.12 23.72 36.59 24.09 38.5 24.84C40.4 25.59 41.69 26.75 42.35 28.33C42.61 28.9 42.75 29.67 42.79 30.63C42.83 31.6 42.85 32.32 42.85 32.81V41.94C42.85 44.22 42.72 45.8 42.47 46.67C41.92 48.54 40.03 49.77 36.81 50.34C36.81 51.02 36.98 51.43 37.3 51.56C37.62 51.69 38.36 51.76 39.5 51.76H41.51C42.25 51.76 42.85 52.36 42.85 53.1V53.85Z" fill="#1A2C38"/>
<path d="M42.85 52.5499C42.85 53.2899 42.25 53.8899 41.51 53.8899H35.48C32.95 53.8899 31.34 53.6299 30.64 53.1199C30.09 52.7099 29.82 51.8299 29.82 50.4699C28.87 50.4699 27.95 50.3899 27.07 50.2299C26.19 50.0699 25.31 49.7699 24.43 49.3299C22.49 48.4099 21.24 47.1799 20.69 45.6599C20.32 44.6499 20.14 42.8899 20.14 40.3599V31.6799C20.14 30.4599 20.18 29.4599 20.28 28.6799C20.37 27.9099 20.58 27.1599 20.91 26.4599C21.64 25.0499 22.88 24.0199 24.62 23.3799C26.36 22.7399 28.51 22.4199 31.08 22.4199C34.12 22.4199 36.59 22.7899 38.5 23.5399C40.4 24.2899 41.69 25.4499 42.35 27.0299C42.61 27.5999 42.75 28.3699 42.79 29.3299C42.83 30.2999 42.85 31.0199 42.85 31.5099V40.6399C42.85 42.9199 42.72 44.4999 42.47 45.3699C41.92 47.2399 40.03 48.4699 36.81 49.0399C36.81 49.7199 36.98 50.1299 37.3 50.2599C37.62 50.3899 38.36 50.4599 39.5 50.4599H41.51C42.25 50.4599 42.85 51.0599 42.85 51.7999V52.5499ZM33.01 43.5299V28.9799C33.01 28.1399 32.92 27.5299 32.73 27.1499C32.55 26.7699 32.14 26.5799 31.52 26.5799C30.82 26.5799 30.39 26.7799 30.23 27.1899C30.06 27.5999 29.98 28.4099 29.98 29.6399V44.0299C29.98 44.7599 30.07 45.3299 30.25 45.7399C30.43 46.1499 30.84 46.3499 31.46 46.3499C32.48 46.3499 33 45.4099 33 43.5399L33.01 43.5299Z" fill="#55DFFF"/>
<path d="M22.49 43.5099C23.34 42.2199 24.87 43.1299 26.55 44.2399C28.23 45.3499 29.42 46.2399 28.57 47.5199C27.72 48.7999 25.83 48.5199 24.15 47.4099C22.47 46.2999 21.63 44.7899 22.48 43.4999L22.49 43.5099Z" fill="#557086"/>
<path d="M38.3 28.7099C37.74 27.2199 37.4 25.9599 38.36 25.6099C39.32 25.2599 40.54 26.1799 41.1 27.6699C41.66 29.1599 41.33 30.6599 40.37 31.0199C39.41 31.3799 38.85 30.2099 38.3 28.7099Z" fill="white"/>
</g>
<path fill-rule="evenodd" clip-rule="evenodd" d="M6.49771 79C6.98969 79 7.48602 79.213 7.49037 79.6913C7.49037 80.1043 7.24656 80.2696 6.99839 80.2696C6.75023 80.2696 6.73281 80.1435 6.73281 80.1435C6.73281 80.1435 7.02452 79.9261 7.02452 79.7174C7.02452 79.6087 6.94179 79.313 6.489 79.3174C5.8577 79.3174 5.5181 79.6174 5.5181 80.1522C5.5181 80.7652 7.35105 80.9739 7.3554 81.7652C7.3554 82.613 6.47594 82.9957 5.69225 83C5.283 83 5.01306 82.7609 5.00871 82.3783C5.00871 81.9261 5.22204 81.4652 5.75756 81.4652C5.88382 81.4565 5.98831 81.5522 5.99702 81.6783C5.99702 81.6783 5.99702 81.6826 5.99702 81.687C5.99702 81.687 5.45715 81.8391 5.4615 82.3783C5.4615 82.4783 5.56599 82.6609 5.81851 82.6565C6.07103 82.6522 6.82424 82.4739 6.81989 81.8087C6.81989 81.1913 5.00435 81.1087 5 80.1478C5 79.0652 6.08845 79.0087 6.49771 79.0087V79ZM10.747 79.6C10.8123 79.5696 11.2129 79.4913 11.1955 79.813C11.1824 80.1348 10.9386 80.6913 10.9037 80.9348C11.2303 80.7696 11.6918 80.2087 11.6918 80.2087C11.6918 80.2087 12.0183 80.2522 11.9182 80.4522C11.818 80.6522 11.1519 81.1435 11.1519 81.1435C11.1519 81.1435 11.3043 82.5696 12.1707 82.5696C12.6453 82.5696 12.8499 82.3609 12.937 82.287C12.9587 82.2696 12.9762 82.2652 12.9849 82.2783C13.0197 82.387 12.9936 82.5043 12.9152 82.5913C12.8194 82.6957 12.5974 82.8217 12.1533 82.8261C11.3653 82.8261 10.9255 82.1957 10.8123 81.2609C10.7252 81.5348 10.7339 81.9826 10.7209 82.2C10.6948 82.2435 10.2507 82.4174 10.2158 82.1174C10.2158 82.0913 10.2158 82.0696 10.2158 82.0435C10.1331 82.1609 10.0199 82.2826 9.91108 82.2826C9.71951 82.2826 9.63679 82.1217 9.60196 82.0391C9.57584 82.0696 9.3625 82.287 9.08821 82.287C8.92277 82.2913 8.77474 82.1957 8.70943 82.0435C8.57011 82.1435 8.32195 82.2913 8.03895 82.2913C7.73418 82.2913 7.66017 82.1087 7.66017 81.9565C7.66017 81.713 7.84303 80.987 7.84303 80.987C7.84303 80.987 7.48602 81.1304 7.36411 81.1348C7.19431 81.1348 7.11159 80.8217 7.11159 80.813C7.11159 80.8087 7.11159 80.8 7.1203 80.8C7.22044 80.7609 7.94317 80.513 7.94317 80.513C7.94317 80.513 8.07813 79.9826 8.09555 79.913C8.11296 79.8435 8.2131 79.7 8.33065 79.6565C8.41773 79.6217 8.50916 79.6 8.60059 79.5913C8.63107 79.5913 8.65284 79.6 8.65284 79.6174C8.65284 79.6348 8.47433 80.4087 8.47433 80.4087C8.47433 80.4087 8.84876 80.3217 8.98808 80.3217C9.09692 80.3217 9.15352 80.387 9.09257 80.4696C9.03162 80.5522 8.96196 80.6478 8.92712 80.6913C8.88794 80.7348 8.86182 80.7435 8.77039 80.7609C8.64413 80.787 8.36113 80.8565 8.36113 80.8565C8.36113 80.8565 8.13473 81.6783 8.13909 81.8174C8.13909 81.8957 8.16521 81.987 8.26099 81.987C8.35678 81.987 8.53964 81.8739 8.67025 81.7913C8.69202 81.1522 9.18835 80.7261 9.57584 80.7261C9.7021 80.7261 9.65421 80.8478 9.79788 80.8478H9.88931C9.94591 80.8478 10.0069 80.8522 10.0069 80.9957C10.0069 81.1957 9.89367 81.5261 9.89367 81.7348C9.89367 81.8826 9.91544 81.987 9.97204 81.987C10.0678 81.987 10.1767 81.8478 10.255 81.7261C10.3813 81.0304 10.734 79.7609 10.734 79.6174L10.747 79.6ZM12.5016 80.7C12.7672 80.6783 12.9326 80.8217 12.9631 80.9C12.9936 80.9783 12.9892 81.1609 12.9152 81.2913C12.6845 81.7044 12.1097 81.6304 12.1097 81.6304C12.1097 81.6304 12.0444 81.9565 12.3405 81.9565C12.593 81.9565 12.7062 81.8304 12.8151 81.7261C12.8586 81.7261 12.9936 81.8652 12.9326 81.9609C12.8847 82.0348 12.6191 82.2565 12.2795 82.2609C11.7397 82.2609 11.6047 81.8 11.6744 81.4696C11.7658 81.0609 12.1751 80.7217 12.5016 80.6957V80.7ZM9.6455 80.987C9.32332 80.987 8.82699 81.9696 9.20577 81.9652C9.61938 81.9652 9.6455 81.1826 9.6455 81.0043V80.987ZM12.6409 80.8913C12.4232 80.9 12.1751 81.3174 12.1533 81.5C12.4798 81.513 12.654 81.1957 12.6757 81.0696C12.6888 80.9739 12.6932 80.887 12.6409 80.887V80.8913Z" fill="#557086"/>
<path d="M55.851 79.0672L54.2521 80.8632C54.1826 80.9428 54.1826 81.0572 54.2521 81.1368L55.846 82.9328C55.9255 83.0224 56.0695 83.0224 56.1539 82.9328L57.7478 81.1368C57.8173 81.0572 57.8173 80.9428 57.7478 80.8632L56.1539 79.0672C56.0744 78.9776 55.9304 78.9776 55.846 79.0672H55.851Z" fill="white"/>
<path d="M56.6604 79.6343L57.142 80.1766L55.568 82.6144L54.704 81.6393L56.6604 79.6343Z" fill="#8EA3B2"/>
<rect x="13" y="62" width="37" height="13" rx="6.5" fill="#2F4553"/>
<path d="M26.0302 70.072C24.8602 70.072 24.3142 69.058 24.3142 68.002C24.3142 66.946 24.8602 65.938 26.0302 65.938C27.2002 65.938 27.7462 66.946 27.7462 68.002C27.7462 69.058 27.2002 70.072 26.0302 70.072ZM26.0302 69.16C26.5102 69.16 26.7022 68.71 26.7022 68.002C26.7022 67.294 26.5102 66.85 26.0302 66.85C25.5502 66.85 25.3582 67.294 25.3582 68.002C25.3582 68.71 25.5502 69.16 26.0302 69.16ZM28.6185 70.072C28.3125 70.072 28.0545 69.814 28.0545 69.508C28.0545 69.202 28.3125 68.944 28.6185 68.944C28.9245 68.944 29.1825 69.202 29.1825 69.508C29.1825 69.814 28.9245 70.072 28.6185 70.072ZM31.2158 70.072C30.0458 70.072 29.4998 69.058 29.4998 68.002C29.4998 66.946 30.0458 65.938 31.2158 65.938C32.3858 65.938 32.9318 66.946 32.9318 68.002C32.9318 69.058 32.3858 70.072 31.2158 70.072ZM31.2158 69.16C31.6958 69.16 31.8878 68.71 31.8878 68.002C31.8878 67.294 31.6958 66.85 31.2158 66.85C30.7358 66.85 30.5438 67.294 30.5438 68.002C30.5438 68.71 30.7358 69.16 31.2158 69.16ZM35.4099 70H34.3779V67.318L33.7059 67.996L33.1179 67.378L34.5159 65.998H35.4099V70ZM38.8795 70H37.8655L37.3075 69.124L36.7435 70H35.7355L36.7255 68.512L35.7955 67.102H36.8095L37.3075 67.888L37.7995 67.102H38.8135L37.8895 68.512L38.8795 70Z" fill="white"/>
<path d="M6.945 11.06C5.945 11.06 5.17 10.36 5.17 9.335C5.17 8.31 5.945 7.61 6.945 7.61C7.68 7.61 8.105 8.01 8.34 8.425L7.73 8.725C7.59 8.455 7.29 8.24 6.945 8.24C6.34 8.24 5.9 8.705 5.9 9.335C5.9 9.965 6.34 10.43 6.945 10.43C7.29 10.43 7.59 10.22 7.73 9.945L8.34 10.24C8.1 10.655 7.68 11.06 6.945 11.06ZM9.86762 11.06C9.07262 11.06 8.59262 10.48 8.59262 9.79C8.59262 9.105 9.07262 8.525 9.86762 8.525C10.6676 8.525 11.1476 9.105 11.1476 9.79C11.1476 10.48 10.6676 11.06 9.86762 11.06ZM9.86762 10.495C10.2626 10.495 10.4876 10.17 10.4876 9.79C10.4876 9.415 10.2626 9.09 9.86762 9.09C9.47262 9.09 9.25262 9.415 9.25262 9.79C9.25262 10.17 9.47262 10.495 9.86762 10.495ZM15.2537 11H14.6137V9.475C14.6137 9.25 14.5137 9.09 14.2537 9.09C14.0287 9.09 13.8437 9.24 13.7537 9.37V11H13.1137V9.475C13.1137 9.25 13.0137 9.09 12.7537 9.09C12.5337 9.09 12.3487 9.24 12.2537 9.375V11H11.6187V8.585H12.2537V8.9C12.3537 8.755 12.6737 8.525 13.0437 8.525C13.3987 8.525 13.6237 8.69 13.7137 8.965C13.8537 8.745 14.1737 8.525 14.5437 8.525C14.9887 8.525 15.2537 8.76 15.2537 9.255V11ZM19.5115 11H18.8715V9.475C18.8715 9.25 18.7715 9.09 18.5115 9.09C18.2865 9.09 18.1015 9.24 18.0115 9.37V11H17.3715V9.475C17.3715 9.25 17.2715 9.09 17.0115 9.09C16.7915 9.09 16.6065 9.24 16.5115 9.375V11H15.8765V8.585H16.5115V8.9C16.6115 8.755 16.9315 8.525 17.3015 8.525C17.6565 8.525 17.8815 8.69 17.9715 8.965C18.1115 8.745 18.4315 8.525 18.8015 8.525C19.2465 8.525 19.5115 8.76 19.5115 9.255V11ZM21.2543 11.06C20.4593 11.06 19.9793 10.48 19.9793 9.79C19.9793 9.105 20.4593 8.525 21.2543 8.525C22.0543 8.525 22.5343 9.105 22.5343 9.79C22.5343 10.48 22.0543 11.06 21.2543 11.06ZM21.2543 10.495C21.6493 10.495 21.8743 10.17 21.8743 9.79C21.8743 9.415 21.6493 9.09 21.2543 9.09C20.8593 9.09 20.6393 9.415 20.6393 9.79C20.6393 10.17 20.8593 10.495 21.2543 10.495ZM25.2704 11H24.6354V9.54C24.6354 9.205 24.4604 9.09 24.1904 9.09C23.9404 9.09 23.7454 9.23 23.6404 9.375V11H23.0054V8.585H23.6404V8.9C23.7954 8.715 24.0904 8.525 24.4854 8.525C25.0154 8.525 25.2704 8.825 25.2704 9.295V11Z" fill="#05080A"/>
<path d="M46.2132 11H45.7612L44.3692 9.096V11H43.9012V8.332H44.3812L45.7452 10.184V8.332H46.2132V11ZM47.6401 11.048C47.0281 11.048 46.6481 10.588 46.6481 10.032C46.6481 9.48 47.0281 9.02 47.6401 9.02C48.2601 9.02 48.6361 9.48 48.6361 10.032C48.6361 10.588 48.2601 11.048 47.6401 11.048ZM47.6401 10.676C48.0001 10.676 48.2001 10.376 48.2001 10.032C48.2001 9.692 48.0001 9.392 47.6401 9.392C47.2841 9.392 47.0841 9.692 47.0841 10.032C47.0841 10.376 47.2841 10.676 47.6401 10.676ZM49.2575 11.044C49.1055 11.044 48.9775 10.916 48.9775 10.764C48.9775 10.612 49.1055 10.484 49.2575 10.484C49.4095 10.484 49.5375 10.612 49.5375 10.764C49.5375 10.916 49.4095 11.044 49.2575 11.044ZM52.9093 11H50.9773V10.632C52.0133 9.848 52.4173 9.5 52.4173 9.116C52.4173 8.836 52.1773 8.708 51.9333 8.708C51.6213 8.708 51.3813 8.836 51.2133 9.028L50.9413 8.72C51.1773 8.436 51.5533 8.292 51.9253 8.292C52.4413 8.292 52.8933 8.584 52.8933 9.116C52.8933 9.608 52.4413 10.048 51.7253 10.588H52.9093V11ZM55.2883 11H53.3563V10.632C54.3923 9.848 54.7963 9.5 54.7963 9.116C54.7963 8.836 54.5563 8.708 54.3123 8.708C54.0003 8.708 53.7603 8.836 53.5923 9.028L53.3203 8.72C53.5563 8.436 53.9323 8.292 54.3043 8.292C54.8203 8.292 55.2723 8.584 55.2723 9.116C55.2723 9.608 54.8203 10.048 54.1043 10.588H55.2883V11ZM56.7672 11.048C56.0192 11.048 55.6992 10.34 55.6992 9.668C55.6992 8.996 56.0192 8.292 56.7672 8.292C57.5152 8.292 57.8352 8.996 57.8352 9.668C57.8352 10.34 57.5152 11.048 56.7672 11.048ZM56.7672 10.632C57.2032 10.632 57.3592 10.176 57.3592 9.668C57.3592 9.16 57.2032 8.708 56.7672 8.708C56.3312 8.708 56.1752 9.16 56.1752 9.668C56.1752 10.176 56.3312 10.632 56.7672 10.632Z" fill="white"/>
<defs>
<clipPath id="clip0_26835_29383">
<rect width="63" height="88" fill="white"/>
</clipPath>
</defs>
</svg>
