<svg width="63" height="88" viewBox="0 0 63 88" fill="none" xmlns="http://www.w3.org/2000/svg">
<rect width="63" height="88" rx="4" fill="#55DFFF"/>
<path d="M36.7008 13.5133L44.7992 3.48665C45.5586 2.54645 46.7024 2 47.911 2H58C59.6569 2 61 3.34314 61 5V83C61 84.6569 59.6569 86 58 86H5C3.34315 86 2 84.6569 2 83V18C2 16.3431 3.34315 15 5 15H33.589C34.7976 15 35.9414 14.4536 36.7008 13.5133Z" fill="#213743"/>
<rect x="5" y="18" width="53" height="40" rx="1" fill="#2F4553"/>
<g clip-path="url(#clip0_26835_29385)">
<path d="M26.7099 50.89H21.7099C20.9499 50.89 20.3399 50.28 20.3399 49.52V36.45C20.3399 35.62 20.1099 35.03 19.6399 34.69C19.1699 34.35 18.2699 34.17 16.9499 34.17H15.8199V32.4C15.8199 31.87 16.2099 31.42 16.7299 31.32C18.0699 31.04 19.2599 30.64 20.2999 30.11C21.3899 29.55 22.4599 28.78 23.5099 27.79H26.9699C27.5799 27.79 28.0799 28.29 28.0799 28.9V49.52C28.0799 50.28 27.4699 50.89 26.7099 50.89Z" fill="#1A2C38"/>
<path d="M47.19 43.3301C47.19 44.7901 47.17 45.6501 47.14 45.9201C46.99 47.2401 46.45 48.3601 45.51 49.2801C44.12 50.6501 42.04 51.3301 39.27 51.3301C37.61 51.3301 36.25 51.1801 35.2 50.8801C34.15 50.5801 33.22 50.0501 32.44 49.2801C31.66 48.5201 31.17 47.7501 30.99 46.9801C30.81 46.2101 30.72 45.1101 30.72 43.6701V35.5801C30.72 34.0601 30.82 32.8301 31.01 31.9001C31.21 30.9701 31.62 30.1701 32.26 29.5001C32.89 28.8301 33.78 28.3001 34.93 27.9201C36.08 27.5401 37.36 27.3501 38.78 27.3501C40.41 27.3501 41.85 27.5801 43.1 28.0401C44.35 28.5001 45.29 29.1301 45.93 29.9401C46.53 30.6301 46.9 31.3701 47.02 32.1401C47.14 32.9101 47.2 34.0601 47.2 35.5801V43.3401L47.19 43.3301Z" fill="#1A2C38"/>
<path d="M26.7099 49.82H21.7099C20.9499 49.82 20.3399 49.21 20.3399 48.45V35.38C20.3399 34.55 20.1099 33.96 19.6399 33.62C19.1699 33.28 18.2699 33.1 16.9499 33.1H15.8199V31.33C15.8199 30.8 16.2099 30.35 16.7299 30.25C18.0699 29.97 19.2599 29.57 20.2999 29.04C21.3899 28.48 22.4599 27.71 23.5099 26.72H26.9699C27.5799 26.72 28.0799 27.22 28.0799 27.83V48.45C28.0799 49.21 27.4699 49.82 26.7099 49.82Z" fill="#55DFFF"/>
<path d="M47.19 42.26C47.19 43.72 47.17 44.58 47.14 44.85C46.99 46.17 46.45 47.29 45.51 48.21C44.12 49.58 42.04 50.26 39.27 50.26C37.61 50.26 36.25 50.11 35.2 49.81C34.15 49.51 33.22 48.98 32.44 48.21C31.66 47.45 31.17 46.68 30.99 45.91C30.81 45.14 30.72 44.04 30.72 42.6V34.51C30.72 32.99 30.82 31.76 31.01 30.83C31.21 29.9 31.62 29.1 32.26 28.43C32.89 27.76 33.78 27.23 34.93 26.85C36.08 26.47 37.36 26.28 38.78 26.28C40.41 26.28 41.85 26.51 43.1 26.97C44.35 27.43 45.29 28.06 45.93 28.87C46.53 29.56 46.9 30.3 47.02 31.07C47.14 31.84 47.2 32.99 47.2 34.51V42.27L47.19 42.26ZM40.22 44.04V31.99C40.22 31.23 40.15 30.68 40.02 30.34C39.88 30 39.54 29.84 39 29.84C38.52 29.84 38.18 30 37.98 30.33C37.78 30.65 37.69 31.12 37.69 31.72V45.55C37.78 46.31 38.2 46.69 38.96 46.69C39.53 46.69 39.89 46.52 40.02 46.17C40.16 45.82 40.22 45.11 40.22 44.04Z" fill="#55DFFF"/>
<path d="M43.39 31.25C42.57 30.22 41.98 29.33 42.64 28.81C43.3 28.29 44.49 28.69 45.31 29.72C46.13 30.75 46.26 32 45.6 32.53C44.94 33.06 44.2 32.28 43.38 31.26L43.39 31.25Z" fill="white"/>
<path d="M25.81 45.3101H22.61C21.9418 45.3101 21.4 45.8518 21.4 46.5201V47.2801C21.4 47.9483 21.9418 48.4901 22.61 48.4901H25.81C26.4783 48.4901 27.02 47.9483 27.02 47.2801V46.5201C27.02 45.8518 26.4783 45.3101 25.81 45.3101Z" fill="#557086"/>
</g>
<path fill-rule="evenodd" clip-rule="evenodd" d="M6.49771 79C6.98969 79 7.48602 79.213 7.49037 79.6913C7.49037 80.1043 7.24656 80.2696 6.99839 80.2696C6.75023 80.2696 6.73281 80.1435 6.73281 80.1435C6.73281 80.1435 7.02452 79.9261 7.02452 79.7174C7.02452 79.6087 6.94179 79.313 6.489 79.3174C5.8577 79.3174 5.5181 79.6174 5.5181 80.1522C5.5181 80.7652 7.35105 80.9739 7.3554 81.7652C7.3554 82.613 6.47594 82.9957 5.69225 83C5.283 83 5.01306 82.7609 5.00871 82.3783C5.00871 81.9261 5.22204 81.4652 5.75756 81.4652C5.88382 81.4565 5.98831 81.5522 5.99702 81.6783C5.99702 81.6783 5.99702 81.6826 5.99702 81.687C5.99702 81.687 5.45715 81.8391 5.4615 82.3783C5.4615 82.4783 5.56599 82.6609 5.81851 82.6565C6.07103 82.6522 6.82424 82.4739 6.81989 81.8087C6.81989 81.1913 5.00435 81.1087 5 80.1478C5 79.0652 6.08845 79.0087 6.49771 79.0087V79ZM10.747 79.6C10.8123 79.5696 11.2129 79.4913 11.1955 79.813C11.1824 80.1348 10.9386 80.6913 10.9037 80.9348C11.2303 80.7696 11.6918 80.2087 11.6918 80.2087C11.6918 80.2087 12.0183 80.2522 11.9182 80.4522C11.818 80.6522 11.1519 81.1435 11.1519 81.1435C11.1519 81.1435 11.3043 82.5696 12.1707 82.5696C12.6453 82.5696 12.8499 82.3609 12.937 82.287C12.9587 82.2696 12.9762 82.2652 12.9849 82.2783C13.0197 82.387 12.9936 82.5043 12.9152 82.5913C12.8194 82.6957 12.5974 82.8217 12.1533 82.8261C11.3653 82.8261 10.9255 82.1957 10.8123 81.2609C10.7252 81.5348 10.7339 81.9826 10.7209 82.2C10.6948 82.2435 10.2507 82.4174 10.2158 82.1174C10.2158 82.0913 10.2158 82.0696 10.2158 82.0435C10.1331 82.1609 10.0199 82.2826 9.91108 82.2826C9.71951 82.2826 9.63679 82.1217 9.60196 82.0391C9.57584 82.0696 9.3625 82.287 9.08821 82.287C8.92277 82.2913 8.77474 82.1957 8.70943 82.0435C8.57011 82.1435 8.32195 82.2913 8.03895 82.2913C7.73418 82.2913 7.66017 82.1087 7.66017 81.9565C7.66017 81.713 7.84303 80.987 7.84303 80.987C7.84303 80.987 7.48602 81.1304 7.36411 81.1348C7.19431 81.1348 7.11159 80.8217 7.11159 80.813C7.11159 80.8087 7.11159 80.8 7.1203 80.8C7.22044 80.7609 7.94317 80.513 7.94317 80.513C7.94317 80.513 8.07813 79.9826 8.09555 79.913C8.11296 79.8435 8.2131 79.7 8.33065 79.6565C8.41773 79.6217 8.50916 79.6 8.60059 79.5913C8.63107 79.5913 8.65284 79.6 8.65284 79.6174C8.65284 79.6348 8.47433 80.4087 8.47433 80.4087C8.47433 80.4087 8.84876 80.3217 8.98808 80.3217C9.09692 80.3217 9.15352 80.387 9.09257 80.4696C9.03162 80.5522 8.96196 80.6478 8.92712 80.6913C8.88794 80.7348 8.86182 80.7435 8.77039 80.7609C8.64413 80.787 8.36113 80.8565 8.36113 80.8565C8.36113 80.8565 8.13473 81.6783 8.13909 81.8174C8.13909 81.8957 8.16521 81.987 8.26099 81.987C8.35678 81.987 8.53964 81.8739 8.67025 81.7913C8.69202 81.1522 9.18835 80.7261 9.57584 80.7261C9.7021 80.7261 9.65421 80.8478 9.79788 80.8478H9.88931C9.94591 80.8478 10.0069 80.8522 10.0069 80.9957C10.0069 81.1957 9.89367 81.5261 9.89367 81.7348C9.89367 81.8826 9.91544 81.987 9.97204 81.987C10.0678 81.987 10.1767 81.8478 10.255 81.7261C10.3813 81.0304 10.734 79.7609 10.734 79.6174L10.747 79.6ZM12.5016 80.7C12.7672 80.6783 12.9326 80.8217 12.9631 80.9C12.9936 80.9783 12.9892 81.1609 12.9152 81.2913C12.6845 81.7044 12.1097 81.6304 12.1097 81.6304C12.1097 81.6304 12.0444 81.9565 12.3405 81.9565C12.593 81.9565 12.7062 81.8304 12.8151 81.7261C12.8586 81.7261 12.9936 81.8652 12.9326 81.9609C12.8847 82.0348 12.6191 82.2565 12.2795 82.2609C11.7397 82.2609 11.6047 81.8 11.6744 81.4696C11.7658 81.0609 12.1751 80.7217 12.5016 80.6957V80.7ZM9.6455 80.987C9.32332 80.987 8.82699 81.9696 9.20577 81.9652C9.61938 81.9652 9.6455 81.1826 9.6455 81.0043V80.987ZM12.6409 80.8913C12.4232 80.9 12.1751 81.3174 12.1533 81.5C12.4798 81.513 12.654 81.1957 12.6757 81.0696C12.6888 80.9739 12.6932 80.887 12.6409 80.887V80.8913Z" fill="#557086"/>
<path d="M55.851 79.0672L54.2521 80.8632C54.1826 80.9428 54.1826 81.0572 54.2521 81.1368L55.846 82.9328C55.9255 83.0224 56.0695 83.0224 56.1539 82.9328L57.7478 81.1368C57.8173 81.0572 57.8173 80.9428 57.7478 80.8632L56.1539 79.0672C56.0744 78.9776 55.9304 78.9776 55.846 79.0672H55.851Z" fill="white"/>
<path d="M56.6604 79.6343L57.142 80.1766L55.568 82.6144L54.704 81.6393L56.6604 79.6343Z" fill="#8EA3B2"/>
<rect x="13" y="62" width="37" height="13" rx="6.5" fill="#2F4553"/>
<path d="M26.0302 70.072C24.8602 70.072 24.3142 69.058 24.3142 68.002C24.3142 66.946 24.8602 65.938 26.0302 65.938C27.2002 65.938 27.7462 66.946 27.7462 68.002C27.7462 69.058 27.2002 70.072 26.0302 70.072ZM26.0302 69.16C26.5102 69.16 26.7022 68.71 26.7022 68.002C26.7022 67.294 26.5102 66.85 26.0302 66.85C25.5502 66.85 25.3582 67.294 25.3582 68.002C25.3582 68.71 25.5502 69.16 26.0302 69.16ZM28.6185 70.072C28.3125 70.072 28.0545 69.814 28.0545 69.508C28.0545 69.202 28.3125 68.944 28.6185 68.944C28.9245 68.944 29.1825 69.202 29.1825 69.508C29.1825 69.814 28.9245 70.072 28.6185 70.072ZM31.2158 70.072C30.0458 70.072 29.4998 69.058 29.4998 68.002C29.4998 66.946 30.0458 65.938 31.2158 65.938C32.3858 65.938 32.9318 66.946 32.9318 68.002C32.9318 69.058 32.3858 70.072 31.2158 70.072ZM31.2158 69.16C31.6958 69.16 31.8878 68.71 31.8878 68.002C31.8878 67.294 31.6958 66.85 31.2158 66.85C30.7358 66.85 30.5438 67.294 30.5438 68.002C30.5438 68.71 30.7358 69.16 31.2158 69.16ZM35.4099 70H34.3779V67.318L33.7059 67.996L33.1179 67.378L34.5159 65.998H35.4099V70ZM38.8795 70H37.8655L37.3075 69.124L36.7435 70H35.7355L36.7255 68.512L35.7955 67.102H36.8095L37.3075 67.888L37.7995 67.102H38.8135L37.8895 68.512L38.8795 70Z" fill="white"/>
<path d="M6.945 11.06C5.945 11.06 5.17 10.36 5.17 9.335C5.17 8.31 5.945 7.61 6.945 7.61C7.68 7.61 8.105 8.01 8.34 8.425L7.73 8.725C7.59 8.455 7.29 8.24 6.945 8.24C6.34 8.24 5.9 8.705 5.9 9.335C5.9 9.965 6.34 10.43 6.945 10.43C7.29 10.43 7.59 10.22 7.73 9.945L8.34 10.24C8.1 10.655 7.68 11.06 6.945 11.06ZM9.86762 11.06C9.07262 11.06 8.59262 10.48 8.59262 9.79C8.59262 9.105 9.07262 8.525 9.86762 8.525C10.6676 8.525 11.1476 9.105 11.1476 9.79C11.1476 10.48 10.6676 11.06 9.86762 11.06ZM9.86762 10.495C10.2626 10.495 10.4876 10.17 10.4876 9.79C10.4876 9.415 10.2626 9.09 9.86762 9.09C9.47262 9.09 9.25262 9.415 9.25262 9.79C9.25262 10.17 9.47262 10.495 9.86762 10.495ZM15.2537 11H14.6137V9.475C14.6137 9.25 14.5137 9.09 14.2537 9.09C14.0287 9.09 13.8437 9.24 13.7537 9.37V11H13.1137V9.475C13.1137 9.25 13.0137 9.09 12.7537 9.09C12.5337 9.09 12.3487 9.24 12.2537 9.375V11H11.6187V8.585H12.2537V8.9C12.3537 8.755 12.6737 8.525 13.0437 8.525C13.3987 8.525 13.6237 8.69 13.7137 8.965C13.8537 8.745 14.1737 8.525 14.5437 8.525C14.9887 8.525 15.2537 8.76 15.2537 9.255V11ZM19.5115 11H18.8715V9.475C18.8715 9.25 18.7715 9.09 18.5115 9.09C18.2865 9.09 18.1015 9.24 18.0115 9.37V11H17.3715V9.475C17.3715 9.25 17.2715 9.09 17.0115 9.09C16.7915 9.09 16.6065 9.24 16.5115 9.375V11H15.8765V8.585H16.5115V8.9C16.6115 8.755 16.9315 8.525 17.3015 8.525C17.6565 8.525 17.8815 8.69 17.9715 8.965C18.1115 8.745 18.4315 8.525 18.8015 8.525C19.2465 8.525 19.5115 8.76 19.5115 9.255V11ZM21.2543 11.06C20.4593 11.06 19.9793 10.48 19.9793 9.79C19.9793 9.105 20.4593 8.525 21.2543 8.525C22.0543 8.525 22.5343 9.105 22.5343 9.79C22.5343 10.48 22.0543 11.06 21.2543 11.06ZM21.2543 10.495C21.6493 10.495 21.8743 10.17 21.8743 9.79C21.8743 9.415 21.6493 9.09 21.2543 9.09C20.8593 9.09 20.6393 9.415 20.6393 9.79C20.6393 10.17 20.8593 10.495 21.2543 10.495ZM25.2704 11H24.6354V9.54C24.6354 9.205 24.4604 9.09 24.1904 9.09C23.9404 9.09 23.7454 9.23 23.6404 9.375V11H23.0054V8.585H23.6404V8.9C23.7954 8.715 24.0904 8.525 24.4854 8.525C25.0154 8.525 25.2704 8.825 25.2704 9.295V11Z" fill="#05080A"/>
<path d="M46.2991 11H45.8471L44.4551 9.096V11H43.9871V8.332H44.4671L45.8311 10.184V8.332H46.2991V11ZM47.726 11.048C47.114 11.048 46.734 10.588 46.734 10.032C46.734 9.48 47.114 9.02 47.726 9.02C48.346 9.02 48.722 9.48 48.722 10.032C48.722 10.588 48.346 11.048 47.726 11.048ZM47.726 10.676C48.086 10.676 48.286 10.376 48.286 10.032C48.286 9.692 48.086 9.392 47.726 9.392C47.37 9.392 47.17 9.692 47.17 10.032C47.17 10.376 47.37 10.676 47.726 10.676ZM49.3435 11.044C49.1915 11.044 49.0635 10.916 49.0635 10.764C49.0635 10.612 49.1915 10.484 49.3435 10.484C49.4955 10.484 49.6235 10.612 49.6235 10.764C49.6235 10.916 49.4955 11.044 49.3435 11.044ZM52.9953 11H51.0633V10.632C52.0993 9.848 52.5033 9.5 52.5033 9.116C52.5033 8.836 52.2633 8.708 52.0193 8.708C51.7073 8.708 51.4673 8.836 51.2993 9.028L51.0273 8.72C51.2633 8.436 51.6393 8.292 52.0113 8.292C52.5273 8.292 52.9793 8.584 52.9793 9.116C52.9793 9.608 52.5273 10.048 51.8113 10.588H52.9953V11ZM55.3742 11H53.4422V10.632C54.4782 9.848 54.8822 9.5 54.8822 9.116C54.8822 8.836 54.6422 8.708 54.3982 8.708C54.0862 8.708 53.8462 8.836 53.6782 9.028L53.4062 8.72C53.6422 8.436 54.0182 8.292 54.3902 8.292C54.9062 8.292 55.3582 8.584 55.3582 9.116C55.3582 9.608 54.9062 10.048 54.1902 10.588H55.3742V11ZM57.7531 11H55.8211V10.632C56.8571 9.848 57.2611 9.5 57.2611 9.116C57.2611 8.836 57.0211 8.708 56.7771 8.708C56.4651 8.708 56.2251 8.836 56.0571 9.028L55.7851 8.72C56.0211 8.436 56.3971 8.292 56.7691 8.292C57.2851 8.292 57.7371 8.584 57.7371 9.116C57.7371 9.608 57.2851 10.048 56.5691 10.588H57.7531V11Z" fill="white"/>
<defs>
<clipPath id="clip0_26835_29385">
<rect width="63" height="88" fill="white"/>
</clipPath>
</defs>
</svg>
