<svg width="63" height="88" viewBox="0 0 63 88" fill="none" xmlns="http://www.w3.org/2000/svg">
<rect width="63" height="88" rx="4" fill="#55DFFF"/>
<path d="M36.7008 13.5133L44.7992 3.48665C45.5586 2.54645 46.7024 2 47.911 2H58C59.6569 2 61 3.34314 61 5V83C61 84.6569 59.6569 86 58 86H5C3.34315 86 2 84.6569 2 83V18C2 16.3431 3.34315 15 5 15H33.589C34.7976 15 35.9414 14.4536 36.7008 13.5133Z" fill="#213743"/>
<rect x="5" y="18" width="53" height="40" rx="1" fill="#2F4553"/>
<g clip-path="url(#clip0_26835_29386)">
<path d="M41.6599 41.1199V42.6299C41.6599 43.7399 41.6399 44.9899 41.6099 46.3599C41.5699 47.7299 41.3899 48.7999 41.0599 49.5599C39.5899 52.5199 36.2399 53.9999 30.9999 53.9999C26.5299 53.9999 23.5599 52.6999 22.0999 50.0899C21.8399 49.5699 21.6499 48.9899 21.5199 48.3399C21.3899 47.6899 21.3299 47.0899 21.3299 46.5499V46.0599H29.7899V47.1599C29.7899 48.0799 29.8799 48.7399 30.0599 49.1199C30.2399 49.4999 30.7399 49.6899 31.5399 49.6899C32.1199 49.6899 32.5499 49.5299 32.7999 49.1999C33.0499 48.8699 33.1799 48.4299 33.1799 47.8499V41.9399C32.2299 43.4599 30.5599 44.2199 28.1799 44.2199C27.0799 44.2199 26.0499 44.0299 25.0799 43.6499C24.1099 43.2699 23.3099 42.7699 22.6899 42.1399C22.1399 41.5199 21.7699 40.7599 21.5899 39.8799C21.4099 38.9999 21.3199 37.9399 21.3199 36.7199V34.4799C21.3199 33.6399 21.3199 32.7999 21.3499 31.9499C21.3699 31.1099 21.4899 30.3299 21.7099 29.6299C22.2199 28.0799 23.2799 26.9099 24.8999 26.0999C26.5099 25.2999 28.6199 24.8999 31.2199 24.8999C34.8499 24.8999 37.4899 25.5999 39.1599 26.9999C40.8299 28.3999 41.6599 30.5399 41.6599 33.4199V41.1299V41.1199Z" fill="#1A2C38"/>
<path d="M41.6599 39.8201V41.3301C41.6599 42.4401 41.6399 43.6901 41.6099 45.0601C41.5699 46.4301 41.3899 47.5001 41.0599 48.2601C39.5899 51.2201 36.2399 52.7001 30.9999 52.7001C26.5299 52.7001 23.5599 51.4001 22.0999 48.7901C21.8399 48.2701 21.6499 47.6901 21.5199 47.0401C21.3899 46.3901 21.3299 45.7901 21.3299 45.2501V44.7601H29.7899V45.8601C29.7899 46.7801 29.8799 47.4401 30.0599 47.8201C30.2399 48.2001 30.7399 48.3901 31.5399 48.3901C32.1199 48.3901 32.5499 48.2301 32.7999 47.9001C33.0499 47.5701 33.1799 47.1301 33.1799 46.5501V40.6401C32.2299 42.1601 30.5599 42.9201 28.1799 42.9201C27.0799 42.9201 26.0499 42.7301 25.0799 42.3501C24.1099 41.9701 23.3099 41.4701 22.6899 40.8401C22.1399 40.2201 21.7699 39.4601 21.5899 38.5801C21.4099 37.7001 21.3199 36.6401 21.3199 35.4201V33.1801C21.3199 32.3401 21.3199 31.5001 21.3499 30.6501C21.3699 29.8101 21.4899 29.0301 21.7099 28.3301C22.2199 26.7801 23.2799 25.6101 24.8999 24.8001C26.5099 24.0001 28.6199 23.6001 31.2199 23.6001C34.8499 23.6001 37.4899 24.3001 39.1599 25.7001C40.8299 27.1001 41.6599 29.2401 41.6599 32.1201V39.8301V39.8201ZM33.1999 35.9901V30.8901C33.1999 29.9701 33.1799 29.4201 33.1499 29.2601C32.9699 28.3601 32.4199 27.9101 31.4999 27.9101C30.8399 27.9101 30.3899 28.1601 30.1499 28.6601C29.9099 29.1601 29.7899 29.8601 29.7899 30.7601V35.9801C29.7899 36.8201 29.8999 37.4601 30.1199 37.9001C30.3399 38.3401 30.7999 38.5501 31.4899 38.5501C32.3699 38.5501 32.8999 38.1401 33.0799 37.3301C33.1499 37.0001 33.1899 36.5601 33.1899 35.9801L33.1999 35.9901Z" fill="#55DFFF"/>
<path d="M23.37 47.0999C23.93 46.2499 25.27 47.0699 26.75 48.0399C28.23 49.0099 29.29 49.7799 28.73 50.6399C28.17 51.4999 26.6 51.0999 25.12 50.1199C23.64 49.1399 22.8 47.9499 23.37 47.0999Z" fill="#557086"/>
<path d="M36.86 29.8601C36.3 28.3701 35.96 27.1101 36.92 26.7601C37.88 26.4101 39.1 27.3301 39.66 28.8201C40.22 30.3101 39.89 31.8101 38.93 32.1701C37.97 32.5301 37.41 31.3601 36.86 29.8601Z" fill="white"/>
</g>
<path fill-rule="evenodd" clip-rule="evenodd" d="M6.49771 79C6.98969 79 7.48602 79.213 7.49037 79.6913C7.49037 80.1043 7.24656 80.2696 6.99839 80.2696C6.75023 80.2696 6.73281 80.1435 6.73281 80.1435C6.73281 80.1435 7.02452 79.9261 7.02452 79.7174C7.02452 79.6087 6.94179 79.313 6.489 79.3174C5.8577 79.3174 5.5181 79.6174 5.5181 80.1522C5.5181 80.7652 7.35105 80.9739 7.3554 81.7652C7.3554 82.613 6.47594 82.9957 5.69225 83C5.283 83 5.01306 82.7609 5.00871 82.3783C5.00871 81.9261 5.22204 81.4652 5.75756 81.4652C5.88382 81.4565 5.98831 81.5522 5.99702 81.6783C5.99702 81.6783 5.99702 81.6826 5.99702 81.687C5.99702 81.687 5.45715 81.8391 5.4615 82.3783C5.4615 82.4783 5.56599 82.6609 5.81851 82.6565C6.07103 82.6522 6.82424 82.4739 6.81989 81.8087C6.81989 81.1913 5.00435 81.1087 5 80.1478C5 79.0652 6.08845 79.0087 6.49771 79.0087V79ZM10.747 79.6C10.8123 79.5696 11.2129 79.4913 11.1955 79.813C11.1824 80.1348 10.9386 80.6913 10.9037 80.9348C11.2303 80.7696 11.6918 80.2087 11.6918 80.2087C11.6918 80.2087 12.0183 80.2522 11.9182 80.4522C11.818 80.6522 11.1519 81.1435 11.1519 81.1435C11.1519 81.1435 11.3043 82.5696 12.1707 82.5696C12.6453 82.5696 12.8499 82.3609 12.937 82.287C12.9587 82.2696 12.9762 82.2652 12.9849 82.2783C13.0197 82.387 12.9936 82.5043 12.9152 82.5913C12.8194 82.6957 12.5974 82.8217 12.1533 82.8261C11.3653 82.8261 10.9255 82.1957 10.8123 81.2609C10.7252 81.5348 10.7339 81.9826 10.7209 82.2C10.6948 82.2435 10.2507 82.4174 10.2158 82.1174C10.2158 82.0913 10.2158 82.0696 10.2158 82.0435C10.1331 82.1609 10.0199 82.2826 9.91108 82.2826C9.71951 82.2826 9.63679 82.1217 9.60196 82.0391C9.57584 82.0696 9.3625 82.287 9.08821 82.287C8.92277 82.2913 8.77474 82.1957 8.70943 82.0435C8.57011 82.1435 8.32195 82.2913 8.03895 82.2913C7.73418 82.2913 7.66017 82.1087 7.66017 81.9565C7.66017 81.713 7.84303 80.987 7.84303 80.987C7.84303 80.987 7.48602 81.1304 7.36411 81.1348C7.19431 81.1348 7.11159 80.8217 7.11159 80.813C7.11159 80.8087 7.11159 80.8 7.1203 80.8C7.22044 80.7609 7.94317 80.513 7.94317 80.513C7.94317 80.513 8.07813 79.9826 8.09555 79.913C8.11296 79.8435 8.2131 79.7 8.33065 79.6565C8.41773 79.6217 8.50916 79.6 8.60059 79.5913C8.63107 79.5913 8.65284 79.6 8.65284 79.6174C8.65284 79.6348 8.47433 80.4087 8.47433 80.4087C8.47433 80.4087 8.84876 80.3217 8.98808 80.3217C9.09692 80.3217 9.15352 80.387 9.09257 80.4696C9.03162 80.5522 8.96196 80.6478 8.92712 80.6913C8.88794 80.7348 8.86182 80.7435 8.77039 80.7609C8.64413 80.787 8.36113 80.8565 8.36113 80.8565C8.36113 80.8565 8.13473 81.6783 8.13909 81.8174C8.13909 81.8957 8.16521 81.987 8.26099 81.987C8.35678 81.987 8.53964 81.8739 8.67025 81.7913C8.69202 81.1522 9.18835 80.7261 9.57584 80.7261C9.7021 80.7261 9.65421 80.8478 9.79788 80.8478H9.88931C9.94591 80.8478 10.0069 80.8522 10.0069 80.9957C10.0069 81.1957 9.89367 81.5261 9.89367 81.7348C9.89367 81.8826 9.91544 81.987 9.97204 81.987C10.0678 81.987 10.1767 81.8478 10.255 81.7261C10.3813 81.0304 10.734 79.7609 10.734 79.6174L10.747 79.6ZM12.5016 80.7C12.7672 80.6783 12.9326 80.8217 12.9631 80.9C12.9936 80.9783 12.9892 81.1609 12.9152 81.2913C12.6845 81.7044 12.1097 81.6304 12.1097 81.6304C12.1097 81.6304 12.0444 81.9565 12.3405 81.9565C12.593 81.9565 12.7062 81.8304 12.8151 81.7261C12.8586 81.7261 12.9936 81.8652 12.9326 81.9609C12.8847 82.0348 12.6191 82.2565 12.2795 82.2609C11.7397 82.2609 11.6047 81.8 11.6744 81.4696C11.7658 81.0609 12.1751 80.7217 12.5016 80.6957V80.7ZM9.6455 80.987C9.32332 80.987 8.82699 81.9696 9.20577 81.9652C9.61938 81.9652 9.6455 81.1826 9.6455 81.0043V80.987ZM12.6409 80.8913C12.4232 80.9 12.1751 81.3174 12.1533 81.5C12.4798 81.513 12.654 81.1957 12.6757 81.0696C12.6888 80.9739 12.6932 80.887 12.6409 80.887V80.8913Z" fill="#557086"/>
<path d="M55.851 79.0672L54.2521 80.8632C54.1826 80.9428 54.1826 81.0572 54.2521 81.1368L55.846 82.9328C55.9255 83.0224 56.0695 83.0224 56.1539 82.9328L57.7478 81.1368C57.8173 81.0572 57.8173 80.9428 57.7478 80.8632L56.1539 79.0672C56.0744 78.9776 55.9304 78.9776 55.846 79.0672H55.851Z" fill="white"/>
<path d="M56.6604 79.6343L57.142 80.1766L55.568 82.6144L54.704 81.6393L56.6604 79.6343Z" fill="#8EA3B2"/>
<rect x="13" y="62" width="37" height="13" rx="6.5" fill="#2F4553"/>
<path d="M26.0302 70.072C24.8602 70.072 24.3142 69.058 24.3142 68.002C24.3142 66.946 24.8602 65.938 26.0302 65.938C27.2002 65.938 27.7462 66.946 27.7462 68.002C27.7462 69.058 27.2002 70.072 26.0302 70.072ZM26.0302 69.16C26.5102 69.16 26.7022 68.71 26.7022 68.002C26.7022 67.294 26.5102 66.85 26.0302 66.85C25.5502 66.85 25.3582 67.294 25.3582 68.002C25.3582 68.71 25.5502 69.16 26.0302 69.16ZM28.6185 70.072C28.3125 70.072 28.0545 69.814 28.0545 69.508C28.0545 69.202 28.3125 68.944 28.6185 68.944C28.9245 68.944 29.1825 69.202 29.1825 69.508C29.1825 69.814 28.9245 70.072 28.6185 70.072ZM31.2158 70.072C30.0458 70.072 29.4998 69.058 29.4998 68.002C29.4998 66.946 30.0458 65.938 31.2158 65.938C32.3858 65.938 32.9318 66.946 32.9318 68.002C32.9318 69.058 32.3858 70.072 31.2158 70.072ZM31.2158 69.16C31.6958 69.16 31.8878 68.71 31.8878 68.002C31.8878 67.294 31.6958 66.85 31.2158 66.85C30.7358 66.85 30.5438 67.294 30.5438 68.002C30.5438 68.71 30.7358 69.16 31.2158 69.16ZM35.4099 70H34.3779V67.318L33.7059 67.996L33.1179 67.378L34.5159 65.998H35.4099V70ZM38.8795 70H37.8655L37.3075 69.124L36.7435 70H35.7355L36.7255 68.512L35.7955 67.102H36.8095L37.3075 67.888L37.7995 67.102H38.8135L37.8895 68.512L38.8795 70Z" fill="white"/>
<path d="M6.945 11.06C5.945 11.06 5.17 10.36 5.17 9.335C5.17 8.31 5.945 7.61 6.945 7.61C7.68 7.61 8.105 8.01 8.34 8.425L7.73 8.725C7.59 8.455 7.29 8.24 6.945 8.24C6.34 8.24 5.9 8.705 5.9 9.335C5.9 9.965 6.34 10.43 6.945 10.43C7.29 10.43 7.59 10.22 7.73 9.945L8.34 10.24C8.1 10.655 7.68 11.06 6.945 11.06ZM9.86762 11.06C9.07262 11.06 8.59262 10.48 8.59262 9.79C8.59262 9.105 9.07262 8.525 9.86762 8.525C10.6676 8.525 11.1476 9.105 11.1476 9.79C11.1476 10.48 10.6676 11.06 9.86762 11.06ZM9.86762 10.495C10.2626 10.495 10.4876 10.17 10.4876 9.79C10.4876 9.415 10.2626 9.09 9.86762 9.09C9.47262 9.09 9.25262 9.415 9.25262 9.79C9.25262 10.17 9.47262 10.495 9.86762 10.495ZM15.2537 11H14.6137V9.475C14.6137 9.25 14.5137 9.09 14.2537 9.09C14.0287 9.09 13.8437 9.24 13.7537 9.37V11H13.1137V9.475C13.1137 9.25 13.0137 9.09 12.7537 9.09C12.5337 9.09 12.3487 9.24 12.2537 9.375V11H11.6187V8.585H12.2537V8.9C12.3537 8.755 12.6737 8.525 13.0437 8.525C13.3987 8.525 13.6237 8.69 13.7137 8.965C13.8537 8.745 14.1737 8.525 14.5437 8.525C14.9887 8.525 15.2537 8.76 15.2537 9.255V11ZM19.5115 11H18.8715V9.475C18.8715 9.25 18.7715 9.09 18.5115 9.09C18.2865 9.09 18.1015 9.24 18.0115 9.37V11H17.3715V9.475C17.3715 9.25 17.2715 9.09 17.0115 9.09C16.7915 9.09 16.6065 9.24 16.5115 9.375V11H15.8765V8.585H16.5115V8.9C16.6115 8.755 16.9315 8.525 17.3015 8.525C17.6565 8.525 17.8815 8.69 17.9715 8.965C18.1115 8.745 18.4315 8.525 18.8015 8.525C19.2465 8.525 19.5115 8.76 19.5115 9.255V11ZM21.2543 11.06C20.4593 11.06 19.9793 10.48 19.9793 9.79C19.9793 9.105 20.4593 8.525 21.2543 8.525C22.0543 8.525 22.5343 9.105 22.5343 9.79C22.5343 10.48 22.0543 11.06 21.2543 11.06ZM21.2543 10.495C21.6493 10.495 21.8743 10.17 21.8743 9.79C21.8743 9.415 21.6493 9.09 21.2543 9.09C20.8593 9.09 20.6393 9.415 20.6393 9.79C20.6393 10.17 20.8593 10.495 21.2543 10.495ZM25.2704 11H24.6354V9.54C24.6354 9.205 24.4604 9.09 24.1904 9.09C23.9404 9.09 23.7454 9.23 23.6404 9.375V11H23.0054V8.585H23.6404V8.9C23.7954 8.715 24.0904 8.525 24.4854 8.525C25.0154 8.525 25.2704 8.825 25.2704 9.295V11Z" fill="#05080A"/>
<path d="M46.3812 11H45.9292L44.5372 9.096V11H44.0692V8.332H44.5492L45.9132 10.184V8.332H46.3812V11ZM47.8081 11.048C47.1961 11.048 46.8161 10.588 46.8161 10.032C46.8161 9.48 47.1961 9.02 47.8081 9.02C48.4281 9.02 48.8041 9.48 48.8041 10.032C48.8041 10.588 48.4281 11.048 47.8081 11.048ZM47.8081 10.676C48.1681 10.676 48.3681 10.376 48.3681 10.032C48.3681 9.692 48.1681 9.392 47.8081 9.392C47.4521 9.392 47.2521 9.692 47.2521 10.032C47.2521 10.376 47.4521 10.676 47.8081 10.676ZM49.4255 11.044C49.2735 11.044 49.1455 10.916 49.1455 10.764C49.1455 10.612 49.2735 10.484 49.4255 10.484C49.5775 10.484 49.7055 10.612 49.7055 10.764C49.7055 10.916 49.5775 11.044 49.4255 11.044ZM53.0773 11H51.1453V10.632C52.1813 9.848 52.5853 9.5 52.5853 9.116C52.5853 8.836 52.3453 8.708 52.1013 8.708C51.7893 8.708 51.5493 8.836 51.3813 9.028L51.1093 8.72C51.3453 8.436 51.7213 8.292 52.0933 8.292C52.6093 8.292 53.0613 8.584 53.0613 9.116C53.0613 9.608 52.6093 10.048 51.8933 10.588H53.0773V11ZM55.4562 11H53.5242V10.632C54.5602 9.848 54.9642 9.5 54.9642 9.116C54.9642 8.836 54.7242 8.708 54.4802 8.708C54.1682 8.708 53.9282 8.836 53.7602 9.028L53.4882 8.72C53.7242 8.436 54.1002 8.292 54.4722 8.292C54.9882 8.292 55.4402 8.584 55.4402 9.116C55.4402 9.608 54.9882 10.048 54.2722 10.588H55.4562V11ZM56.8071 11.048C56.3311 11.048 55.9791 10.856 55.7991 10.616L56.0511 10.308C56.2231 10.508 56.5071 10.632 56.7911 10.632C57.1431 10.632 57.3471 10.472 57.3471 10.224C57.3471 9.96 57.1351 9.848 56.7551 9.848C56.6431 9.848 56.4871 9.848 56.4471 9.852V9.432C56.4951 9.436 56.6511 9.436 56.7551 9.436C57.0671 9.436 57.3031 9.328 57.3031 9.084C57.3031 8.836 57.0631 8.708 56.7631 8.708C56.4911 8.708 56.2671 8.812 56.0751 9.004L55.8351 8.712C56.0391 8.472 56.3631 8.292 56.8071 8.292C57.3831 8.292 57.7711 8.564 57.7711 9.012C57.7711 9.368 57.4671 9.576 57.1911 9.624C57.4511 9.648 57.8111 9.86 57.8111 10.272C57.8111 10.724 57.4231 11.048 56.8071 11.048Z" fill="white"/>
<defs>
<clipPath id="clip0_26835_29386">
<rect width="63" height="88" fill="white"/>
</clipPath>
</defs>
</svg>
