<svg width="63" height="88" viewBox="0 0 63 88" fill="none" xmlns="http://www.w3.org/2000/svg">
<rect width="63" height="88" rx="4" fill="#55DFFF"/>
<path d="M36.7008 13.5133L44.7992 3.48665C45.5586 2.54645 46.7024 2 47.911 2H58C59.6569 2 61 3.34314 61 5V83C61 84.6569 59.6569 86 58 86H5C3.34315 86 2 84.6569 2 83V18C2 16.3431 3.34315 15 5 15H33.589C34.7976 15 35.9414 14.4536 36.7008 13.5133Z" fill="#213743"/>
<rect x="5" y="18" width="53" height="40" rx="1" fill="#2F4553"/>
<g clip-path="url(#clip0_26835_29387)">
<path d="M41.61 45.3199V45.8499C41.61 46.4499 41.59 47.0099 41.56 47.5199C41.52 48.0399 41.45 48.4899 41.34 48.8699C40.53 52.2899 37.25 54.0099 31.5 54.0099C25.75 54.0099 22.51 52.2599 21.77 48.7499C21.66 48.2299 21.57 47.6599 21.5 47.0399C21.43 46.4099 21.39 45.7399 21.39 44.9999C21.39 42.5299 21.61 40.8499 22.05 39.9599C22.49 39.0799 23.4 38.2799 24.8 37.5799C23.74 37.0899 22.99 36.5099 22.55 35.8299C22 34.9899 21.73 33.7499 21.73 32.1199C21.73 27.3099 24.95 24.8999 31.4 24.8999C34.81 24.8999 37.32 25.4799 38.93 26.6499C40.54 27.8199 41.35 29.7099 41.35 32.3199C41.35 33.9799 41.04 35.1699 40.42 35.9099C40.02 36.3999 39.1 36.9599 37.67 37.5799C39.35 38.2099 40.44 39.0299 40.91 40.0699C41.38 41.1099 41.62 42.8599 41.62 45.3299L41.61 45.3199Z" fill="#1A2C38"/>
<path d="M41.61 44.0201V44.5501C41.61 45.1501 41.59 45.7101 41.56 46.2201C41.52 46.7401 41.45 47.1901 41.34 47.5701C40.53 50.9901 37.25 52.7101 31.5 52.7101C25.75 52.7101 22.51 50.9601 21.77 47.4501C21.66 46.9301 21.57 46.3601 21.5 45.7401C21.43 45.1101 21.39 44.4401 21.39 43.7001C21.39 41.2301 21.61 39.5501 22.05 38.6601C22.49 37.7801 23.4 36.9801 24.8 36.2801C23.74 35.7901 22.99 35.2101 22.55 34.5301C22 33.6901 21.73 32.4501 21.73 30.8201C21.73 26.0101 24.95 23.6001 31.4 23.6001C34.81 23.6001 37.32 24.1801 38.93 25.3501C40.54 26.5201 41.35 28.4101 41.35 31.0201C41.35 32.6801 41.04 33.8701 40.42 34.6101C40.02 35.1001 39.1 35.6601 37.67 36.2801C39.35 36.9101 40.44 37.7301 40.91 38.7701C41.38 39.8101 41.62 41.5601 41.62 44.0301L41.61 44.0201ZM33.15 45.4501V41.9001C33.15 41.0001 33.04 40.3401 32.82 39.9001C32.6 39.4601 32.14 39.2501 31.45 39.2501C30.79 39.2501 30.37 39.4501 30.19 39.8601C30.01 40.2701 29.92 40.9501 29.92 41.9001V45.5301C29.92 46.5101 30.02 47.2301 30.22 47.6901C30.42 48.1501 30.89 48.3801 31.62 48.3801C32.28 48.3801 32.7 48.1701 32.88 47.7501C33.06 47.3301 33.15 46.5601 33.15 45.4501ZM32.98 33.0501V30.2401C32.98 29.4201 32.94 28.9201 32.87 28.7301C32.65 28.1901 32.17 27.9101 31.44 27.9101C30.82 27.9101 30.43 28.1201 30.29 28.5401C30.15 28.9601 30.07 29.5301 30.07 30.2301V33.2101C30.07 33.5901 30.2 33.9201 30.45 34.1901C30.71 34.4601 31.07 34.6001 31.55 34.6001C32.5 34.6001 32.98 34.0801 32.98 33.0501Z" fill="#55DFFF"/>
<path d="M36.86 29.8601C36.3 28.3701 35.96 27.1101 36.92 26.7601C37.88 26.4101 39.1 27.3301 39.66 28.8201C40.22 30.3101 39.89 31.8101 38.93 32.1701C37.97 32.5301 37.41 31.3601 36.86 29.8601Z" fill="white"/>
<path d="M26.6593 50.2543C27.5558 49.7876 27.6603 48.214 26.8927 46.7394C26.1251 45.2649 24.7761 44.4478 23.8796 44.9145C22.9831 45.3812 22.8786 46.9549 23.6462 48.4294C24.4138 49.904 25.7628 50.721 26.6593 50.2543Z" fill="#557086"/>
</g>
<path fill-rule="evenodd" clip-rule="evenodd" d="M6.49771 79C6.98969 79 7.48602 79.213 7.49037 79.6913C7.49037 80.1043 7.24656 80.2696 6.99839 80.2696C6.75023 80.2696 6.73281 80.1435 6.73281 80.1435C6.73281 80.1435 7.02452 79.9261 7.02452 79.7174C7.02452 79.6087 6.94179 79.313 6.489 79.3174C5.8577 79.3174 5.5181 79.6174 5.5181 80.1522C5.5181 80.7652 7.35105 80.9739 7.3554 81.7652C7.3554 82.613 6.47594 82.9957 5.69225 83C5.283 83 5.01306 82.7609 5.00871 82.3783C5.00871 81.9261 5.22204 81.4652 5.75756 81.4652C5.88382 81.4565 5.98831 81.5522 5.99702 81.6783C5.99702 81.6783 5.99702 81.6826 5.99702 81.687C5.99702 81.687 5.45715 81.8391 5.4615 82.3783C5.4615 82.4783 5.56599 82.6609 5.81851 82.6565C6.07103 82.6522 6.82424 82.4739 6.81989 81.8087C6.81989 81.1913 5.00435 81.1087 5 80.1478C5 79.0652 6.08845 79.0087 6.49771 79.0087V79ZM10.747 79.6C10.8123 79.5696 11.2129 79.4913 11.1955 79.813C11.1824 80.1348 10.9386 80.6913 10.9037 80.9348C11.2303 80.7696 11.6918 80.2087 11.6918 80.2087C11.6918 80.2087 12.0183 80.2522 11.9182 80.4522C11.818 80.6522 11.1519 81.1435 11.1519 81.1435C11.1519 81.1435 11.3043 82.5696 12.1707 82.5696C12.6453 82.5696 12.8499 82.3609 12.937 82.287C12.9587 82.2696 12.9762 82.2652 12.9849 82.2783C13.0197 82.387 12.9936 82.5043 12.9152 82.5913C12.8194 82.6957 12.5974 82.8217 12.1533 82.8261C11.3653 82.8261 10.9255 82.1957 10.8123 81.2609C10.7252 81.5348 10.7339 81.9826 10.7209 82.2C10.6948 82.2435 10.2507 82.4174 10.2158 82.1174C10.2158 82.0913 10.2158 82.0696 10.2158 82.0435C10.1331 82.1609 10.0199 82.2826 9.91108 82.2826C9.71951 82.2826 9.63679 82.1217 9.60196 82.0391C9.57584 82.0696 9.3625 82.287 9.08821 82.287C8.92277 82.2913 8.77474 82.1957 8.70943 82.0435C8.57011 82.1435 8.32195 82.2913 8.03895 82.2913C7.73418 82.2913 7.66017 82.1087 7.66017 81.9565C7.66017 81.713 7.84303 80.987 7.84303 80.987C7.84303 80.987 7.48602 81.1304 7.36411 81.1348C7.19431 81.1348 7.11159 80.8217 7.11159 80.813C7.11159 80.8087 7.11159 80.8 7.1203 80.8C7.22044 80.7609 7.94317 80.513 7.94317 80.513C7.94317 80.513 8.07813 79.9826 8.09555 79.913C8.11296 79.8435 8.2131 79.7 8.33065 79.6565C8.41773 79.6217 8.50916 79.6 8.60059 79.5913C8.63107 79.5913 8.65284 79.6 8.65284 79.6174C8.65284 79.6348 8.47433 80.4087 8.47433 80.4087C8.47433 80.4087 8.84876 80.3217 8.98808 80.3217C9.09692 80.3217 9.15352 80.387 9.09257 80.4696C9.03162 80.5522 8.96196 80.6478 8.92712 80.6913C8.88794 80.7348 8.86182 80.7435 8.77039 80.7609C8.64413 80.787 8.36113 80.8565 8.36113 80.8565C8.36113 80.8565 8.13473 81.6783 8.13909 81.8174C8.13909 81.8957 8.16521 81.987 8.26099 81.987C8.35678 81.987 8.53964 81.8739 8.67025 81.7913C8.69202 81.1522 9.18835 80.7261 9.57584 80.7261C9.7021 80.7261 9.65421 80.8478 9.79788 80.8478H9.88931C9.94591 80.8478 10.0069 80.8522 10.0069 80.9957C10.0069 81.1957 9.89367 81.5261 9.89367 81.7348C9.89367 81.8826 9.91544 81.987 9.97204 81.987C10.0678 81.987 10.1767 81.8478 10.255 81.7261C10.3813 81.0304 10.734 79.7609 10.734 79.6174L10.747 79.6ZM12.5016 80.7C12.7672 80.6783 12.9326 80.8217 12.9631 80.9C12.9936 80.9783 12.9892 81.1609 12.9152 81.2913C12.6845 81.7044 12.1097 81.6304 12.1097 81.6304C12.1097 81.6304 12.0444 81.9565 12.3405 81.9565C12.593 81.9565 12.7062 81.8304 12.8151 81.7261C12.8586 81.7261 12.9936 81.8652 12.9326 81.9609C12.8847 82.0348 12.6191 82.2565 12.2795 82.2609C11.7397 82.2609 11.6047 81.8 11.6744 81.4696C11.7658 81.0609 12.1751 80.7217 12.5016 80.6957V80.7ZM9.6455 80.987C9.32332 80.987 8.82699 81.9696 9.20577 81.9652C9.61938 81.9652 9.6455 81.1826 9.6455 81.0043V80.987ZM12.6409 80.8913C12.4232 80.9 12.1751 81.3174 12.1533 81.5C12.4798 81.513 12.654 81.1957 12.6757 81.0696C12.6888 80.9739 12.6932 80.887 12.6409 80.887V80.8913Z" fill="#557086"/>
<path d="M55.851 79.0672L54.2521 80.8632C54.1826 80.9428 54.1826 81.0572 54.2521 81.1368L55.846 82.9328C55.9255 83.0224 56.0695 83.0224 56.1539 82.9328L57.7478 81.1368C57.8173 81.0572 57.8173 80.9428 57.7478 80.8632L56.1539 79.0672C56.0744 78.9776 55.9304 78.9776 55.846 79.0672H55.851Z" fill="white"/>
<path d="M56.6604 79.6343L57.142 80.1766L55.568 82.6144L54.704 81.6393L56.6604 79.6343Z" fill="#8EA3B2"/>
<rect x="13" y="62" width="37" height="13" rx="6.5" fill="#2F4553"/>
<path d="M26.0302 70.072C24.8602 70.072 24.3142 69.058 24.3142 68.002C24.3142 66.946 24.8602 65.938 26.0302 65.938C27.2002 65.938 27.7462 66.946 27.7462 68.002C27.7462 69.058 27.2002 70.072 26.0302 70.072ZM26.0302 69.16C26.5102 69.16 26.7022 68.71 26.7022 68.002C26.7022 67.294 26.5102 66.85 26.0302 66.85C25.5502 66.85 25.3582 67.294 25.3582 68.002C25.3582 68.71 25.5502 69.16 26.0302 69.16ZM28.6185 70.072C28.3125 70.072 28.0545 69.814 28.0545 69.508C28.0545 69.202 28.3125 68.944 28.6185 68.944C28.9245 68.944 29.1825 69.202 29.1825 69.508C29.1825 69.814 28.9245 70.072 28.6185 70.072ZM31.2158 70.072C30.0458 70.072 29.4998 69.058 29.4998 68.002C29.4998 66.946 30.0458 65.938 31.2158 65.938C32.3858 65.938 32.9318 66.946 32.9318 68.002C32.9318 69.058 32.3858 70.072 31.2158 70.072ZM31.2158 69.16C31.6958 69.16 31.8878 68.71 31.8878 68.002C31.8878 67.294 31.6958 66.85 31.2158 66.85C30.7358 66.85 30.5438 67.294 30.5438 68.002C30.5438 68.71 30.7358 69.16 31.2158 69.16ZM35.4099 70H34.3779V67.318L33.7059 67.996L33.1179 67.378L34.5159 65.998H35.4099V70ZM38.8795 70H37.8655L37.3075 69.124L36.7435 70H35.7355L36.7255 68.512L35.7955 67.102H36.8095L37.3075 67.888L37.7995 67.102H38.8135L37.8895 68.512L38.8795 70Z" fill="white"/>
<path d="M6.945 11.06C5.945 11.06 5.17 10.36 5.17 9.335C5.17 8.31 5.945 7.61 6.945 7.61C7.68 7.61 8.105 8.01 8.34 8.425L7.73 8.725C7.59 8.455 7.29 8.24 6.945 8.24C6.34 8.24 5.9 8.705 5.9 9.335C5.9 9.965 6.34 10.43 6.945 10.43C7.29 10.43 7.59 10.22 7.73 9.945L8.34 10.24C8.1 10.655 7.68 11.06 6.945 11.06ZM9.86762 11.06C9.07262 11.06 8.59262 10.48 8.59262 9.79C8.59262 9.105 9.07262 8.525 9.86762 8.525C10.6676 8.525 11.1476 9.105 11.1476 9.79C11.1476 10.48 10.6676 11.06 9.86762 11.06ZM9.86762 10.495C10.2626 10.495 10.4876 10.17 10.4876 9.79C10.4876 9.415 10.2626 9.09 9.86762 9.09C9.47262 9.09 9.25262 9.415 9.25262 9.79C9.25262 10.17 9.47262 10.495 9.86762 10.495ZM15.2537 11H14.6137V9.475C14.6137 9.25 14.5137 9.09 14.2537 9.09C14.0287 9.09 13.8437 9.24 13.7537 9.37V11H13.1137V9.475C13.1137 9.25 13.0137 9.09 12.7537 9.09C12.5337 9.09 12.3487 9.24 12.2537 9.375V11H11.6187V8.585H12.2537V8.9C12.3537 8.755 12.6737 8.525 13.0437 8.525C13.3987 8.525 13.6237 8.69 13.7137 8.965C13.8537 8.745 14.1737 8.525 14.5437 8.525C14.9887 8.525 15.2537 8.76 15.2537 9.255V11ZM19.5115 11H18.8715V9.475C18.8715 9.25 18.7715 9.09 18.5115 9.09C18.2865 9.09 18.1015 9.24 18.0115 9.37V11H17.3715V9.475C17.3715 9.25 17.2715 9.09 17.0115 9.09C16.7915 9.09 16.6065 9.24 16.5115 9.375V11H15.8765V8.585H16.5115V8.9C16.6115 8.755 16.9315 8.525 17.3015 8.525C17.6565 8.525 17.8815 8.69 17.9715 8.965C18.1115 8.745 18.4315 8.525 18.8015 8.525C19.2465 8.525 19.5115 8.76 19.5115 9.255V11ZM21.2543 11.06C20.4593 11.06 19.9793 10.48 19.9793 9.79C19.9793 9.105 20.4593 8.525 21.2543 8.525C22.0543 8.525 22.5343 9.105 22.5343 9.79C22.5343 10.48 22.0543 11.06 21.2543 11.06ZM21.2543 10.495C21.6493 10.495 21.8743 10.17 21.8743 9.79C21.8743 9.415 21.6493 9.09 21.2543 9.09C20.8593 9.09 20.6393 9.415 20.6393 9.79C20.6393 10.17 20.8593 10.495 21.2543 10.495ZM25.2704 11H24.6354V9.54C24.6354 9.205 24.4604 9.09 24.1904 9.09C23.9404 9.09 23.7454 9.23 23.6404 9.375V11H23.0054V8.585H23.6404V8.9C23.7954 8.715 24.0904 8.525 24.4854 8.525C25.0154 8.525 25.2704 8.825 25.2704 9.295V11Z" fill="#05080A"/>
<path d="M46.3577 11H45.9057L44.5137 9.096V11H44.0457V8.332H44.5257L45.8897 10.184V8.332H46.3577V11ZM47.7846 11.048C47.1726 11.048 46.7926 10.588 46.7926 10.032C46.7926 9.48 47.1726 9.02 47.7846 9.02C48.4046 9.02 48.7806 9.48 48.7806 10.032C48.7806 10.588 48.4046 11.048 47.7846 11.048ZM47.7846 10.676C48.1446 10.676 48.3446 10.376 48.3446 10.032C48.3446 9.692 48.1446 9.392 47.7846 9.392C47.4286 9.392 47.2286 9.692 47.2286 10.032C47.2286 10.376 47.4286 10.676 47.7846 10.676ZM49.4021 11.044C49.2501 11.044 49.1221 10.916 49.1221 10.764C49.1221 10.612 49.2501 10.484 49.4021 10.484C49.5541 10.484 49.6821 10.612 49.6821 10.764C49.6821 10.916 49.5541 11.044 49.4021 11.044ZM53.0539 11H51.1219V10.632C52.1579 9.848 52.5619 9.5 52.5619 9.116C52.5619 8.836 52.3219 8.708 52.0779 8.708C51.7659 8.708 51.5259 8.836 51.3579 9.028L51.0859 8.72C51.3219 8.436 51.6979 8.292 52.0699 8.292C52.5859 8.292 53.0379 8.584 53.0379 9.116C53.0379 9.608 52.5859 10.048 51.8699 10.588H53.0539V11ZM55.4328 11H53.5008V10.632C54.5368 9.848 54.9408 9.5 54.9408 9.116C54.9408 8.836 54.7008 8.708 54.4568 8.708C54.1448 8.708 53.9048 8.836 53.7368 9.028L53.4648 8.72C53.7008 8.436 54.0768 8.292 54.4488 8.292C54.9648 8.292 55.4168 8.584 55.4168 9.116C55.4168 9.608 54.9648 10.048 54.2488 10.588H55.4328V11ZM57.5317 11H57.0637V10.396H55.7917V10.02L56.8877 8.332H57.5317V9.984H57.8877V10.396H57.5317V11ZM57.0637 9.984V8.752L56.2517 9.984H57.0637Z" fill="white"/>
<defs>
<clipPath id="clip0_26835_29387">
<rect width="63" height="88" fill="white"/>
</clipPath>
</defs>
</svg>
