<svg width="63" height="88" viewBox="0 0 63 88" fill="none" xmlns="http://www.w3.org/2000/svg">
<rect width="63" height="88" rx="4" fill="#55DFFF"/>
<path d="M36.7008 13.5133L44.7992 3.48665C45.5586 2.54645 46.7024 2 47.911 2H58C59.6569 2 61 3.34314 61 5V83C61 84.6569 59.6569 86 58 86H5C3.34315 86 2 84.6569 2 83V18C2 16.3431 3.34315 15 5 15H33.589C34.7976 15 35.9414 14.4536 36.7008 13.5133Z" fill="#213743"/>
<rect x="5" y="18" width="53" height="40" rx="1" fill="#2F4553"/>
<g clip-path="url(#clip0_26835_29392)">
<path d="M41.5 45.0799C41.5 46.7899 41.35 48.1699 41.06 49.1999C40.77 50.2299 40.18 51.1299 39.3 51.8899C37.69 53.2999 35.27 54.0099 32.05 54.0099C28.64 54.0099 26.06 53.4999 24.3 52.4799C22.54 51.4599 21.66 49.9499 21.66 47.9299L21.49 44.5499V43.5699H29.95V47.9699C29.95 49.1099 30.43 49.6799 31.38 49.6799C32.11 49.6799 32.56 49.4099 32.73 48.8599C32.89 48.3199 32.98 47.2999 32.98 45.7999V43.8399C32.98 42.2099 32.6 41.1799 31.83 40.7399C31.24 40.4099 29.94 40.2499 27.93 40.2499V36.1699H28.42C30.47 36.1699 31.74 36.0199 32.24 35.7199C32.73 35.4199 32.98 34.5699 32.98 33.1499V31.5599C32.98 30.7199 32.92 30.1699 32.81 29.9299C32.59 29.4399 32.15 29.1999 31.49 29.1999C30.46 29.1999 29.95 29.7599 29.95 30.8699V33.2799H21.49V31.6899C21.49 29.0799 22.21 27.2899 23.66 26.3299C25.11 25.3699 27.62 24.8799 31.21 24.8799C34.58 24.8799 37.08 25.4699 38.71 26.6499C40.34 27.8299 41.15 29.7199 41.15 32.2999C41.15 33.8999 40.8 35.1099 40.11 35.9299C39.63 36.4999 38.81 37.0399 37.64 37.5599C39.32 38.0799 40.39 38.8299 40.83 39.8199C41.27 40.8099 41.49 42.5599 41.49 45.0599L41.5 45.0799Z" fill="#1A2C38"/>
<path d="M41.5 43.7801C41.5 45.4901 41.35 46.8701 41.06 47.9001C40.77 48.9301 40.18 49.8301 39.3 50.5901C37.69 52.0001 35.27 52.7101 32.05 52.7101C28.64 52.7101 26.06 52.2001 24.3 51.1801C22.54 50.1601 21.66 48.6501 21.66 46.6301L21.49 43.2501V42.2701H29.95V46.6701C29.95 47.8101 30.43 48.3801 31.38 48.3801C32.11 48.3801 32.56 48.1101 32.73 47.5601C32.89 47.0201 32.98 46.0001 32.98 44.5001V42.5401C32.98 40.9101 32.6 39.8801 31.83 39.4401C31.24 39.1101 29.94 38.9501 27.93 38.9501V34.8701H28.42C30.47 34.8701 31.74 34.7201 32.24 34.4201C32.73 34.1201 32.98 33.2701 32.98 31.8501V30.2601C32.98 29.4201 32.92 28.8701 32.81 28.6301C32.59 28.1401 32.15 27.9001 31.49 27.9001C30.46 27.9001 29.95 28.4601 29.95 29.5701V31.9801H21.49V30.3901C21.49 27.7801 22.21 25.9901 23.66 25.0301C25.11 24.0701 27.62 23.5801 31.21 23.5801C34.58 23.5801 37.08 24.1701 38.71 25.3501C40.34 26.5301 41.15 28.4201 41.15 31.0001C41.15 32.6001 40.8 33.8101 40.11 34.6301C39.63 35.2001 38.81 35.7401 37.64 36.2601C39.32 36.7801 40.39 37.5301 40.83 38.5201C41.27 39.5101 41.49 41.2601 41.49 43.7601L41.5 43.7801Z" fill="#55DFFF"/>
<path d="M36.83 29.75C36.27 28.26 35.93 27 36.89 26.65C37.85 26.3 39.07 27.22 39.63 28.71C40.19 30.2 39.86 31.7 38.9 32.06C37.94 32.42 37.38 31.25 36.83 29.75Z" fill="white"/>
<path d="M26.6318 50.1406C27.5283 49.6739 27.6328 48.1002 26.8652 46.6257C26.0976 45.1511 24.7486 44.3341 23.8521 44.8008C22.9556 45.2674 22.8511 46.8411 23.6187 48.3157C24.3863 49.7902 25.7354 50.6072 26.6318 50.1406Z" fill="#557086"/>
</g>
<path fill-rule="evenodd" clip-rule="evenodd" d="M6.49771 79C6.98969 79 7.48602 79.213 7.49037 79.6913C7.49037 80.1043 7.24656 80.2696 6.99839 80.2696C6.75023 80.2696 6.73281 80.1435 6.73281 80.1435C6.73281 80.1435 7.02452 79.9261 7.02452 79.7174C7.02452 79.6087 6.94179 79.313 6.489 79.3174C5.8577 79.3174 5.5181 79.6174 5.5181 80.1522C5.5181 80.7652 7.35105 80.9739 7.3554 81.7652C7.3554 82.613 6.47594 82.9957 5.69225 83C5.283 83 5.01306 82.7609 5.00871 82.3783C5.00871 81.9261 5.22204 81.4652 5.75756 81.4652C5.88382 81.4565 5.98831 81.5522 5.99702 81.6783C5.99702 81.6783 5.99702 81.6826 5.99702 81.687C5.99702 81.687 5.45715 81.8391 5.4615 82.3783C5.4615 82.4783 5.56599 82.6609 5.81851 82.6565C6.07103 82.6522 6.82424 82.4739 6.81989 81.8087C6.81989 81.1913 5.00435 81.1087 5 80.1478C5 79.0652 6.08845 79.0087 6.49771 79.0087V79ZM10.747 79.6C10.8123 79.5696 11.2129 79.4913 11.1955 79.813C11.1824 80.1348 10.9386 80.6913 10.9037 80.9348C11.2303 80.7696 11.6918 80.2087 11.6918 80.2087C11.6918 80.2087 12.0183 80.2522 11.9182 80.4522C11.818 80.6522 11.1519 81.1435 11.1519 81.1435C11.1519 81.1435 11.3043 82.5696 12.1707 82.5696C12.6453 82.5696 12.8499 82.3609 12.937 82.287C12.9587 82.2696 12.9762 82.2652 12.9849 82.2783C13.0197 82.387 12.9936 82.5043 12.9152 82.5913C12.8194 82.6957 12.5974 82.8217 12.1533 82.8261C11.3653 82.8261 10.9255 82.1957 10.8123 81.2609C10.7252 81.5348 10.7339 81.9826 10.7209 82.2C10.6948 82.2435 10.2507 82.4174 10.2158 82.1174C10.2158 82.0913 10.2158 82.0696 10.2158 82.0435C10.1331 82.1609 10.0199 82.2826 9.91108 82.2826C9.71951 82.2826 9.63679 82.1217 9.60196 82.0391C9.57584 82.0696 9.3625 82.287 9.08821 82.287C8.92277 82.2913 8.77474 82.1957 8.70943 82.0435C8.57011 82.1435 8.32195 82.2913 8.03895 82.2913C7.73418 82.2913 7.66017 82.1087 7.66017 81.9565C7.66017 81.713 7.84303 80.987 7.84303 80.987C7.84303 80.987 7.48602 81.1304 7.36411 81.1348C7.19431 81.1348 7.11159 80.8217 7.11159 80.813C7.11159 80.8087 7.11159 80.8 7.1203 80.8C7.22044 80.7609 7.94317 80.513 7.94317 80.513C7.94317 80.513 8.07813 79.9826 8.09555 79.913C8.11296 79.8435 8.2131 79.7 8.33065 79.6565C8.41773 79.6217 8.50916 79.6 8.60059 79.5913C8.63107 79.5913 8.65284 79.6 8.65284 79.6174C8.65284 79.6348 8.47433 80.4087 8.47433 80.4087C8.47433 80.4087 8.84876 80.3217 8.98808 80.3217C9.09692 80.3217 9.15352 80.387 9.09257 80.4696C9.03162 80.5522 8.96196 80.6478 8.92712 80.6913C8.88794 80.7348 8.86182 80.7435 8.77039 80.7609C8.64413 80.787 8.36113 80.8565 8.36113 80.8565C8.36113 80.8565 8.13473 81.6783 8.13909 81.8174C8.13909 81.8957 8.16521 81.987 8.26099 81.987C8.35678 81.987 8.53964 81.8739 8.67025 81.7913C8.69202 81.1522 9.18835 80.7261 9.57584 80.7261C9.7021 80.7261 9.65421 80.8478 9.79788 80.8478H9.88931C9.94591 80.8478 10.0069 80.8522 10.0069 80.9957C10.0069 81.1957 9.89367 81.5261 9.89367 81.7348C9.89367 81.8826 9.91544 81.987 9.97204 81.987C10.0678 81.987 10.1767 81.8478 10.255 81.7261C10.3813 81.0304 10.734 79.7609 10.734 79.6174L10.747 79.6ZM12.5016 80.7C12.7672 80.6783 12.9326 80.8217 12.9631 80.9C12.9936 80.9783 12.9892 81.1609 12.9152 81.2913C12.6845 81.7044 12.1097 81.6304 12.1097 81.6304C12.1097 81.6304 12.0444 81.9565 12.3405 81.9565C12.593 81.9565 12.7062 81.8304 12.8151 81.7261C12.8586 81.7261 12.9936 81.8652 12.9326 81.9609C12.8847 82.0348 12.6191 82.2565 12.2795 82.2609C11.7397 82.2609 11.6047 81.8 11.6744 81.4696C11.7658 81.0609 12.1751 80.7217 12.5016 80.6957V80.7ZM9.6455 80.987C9.32332 80.987 8.82699 81.9696 9.20577 81.9652C9.61938 81.9652 9.6455 81.1826 9.6455 81.0043V80.987ZM12.6409 80.8913C12.4232 80.9 12.1751 81.3174 12.1533 81.5C12.4798 81.513 12.654 81.1957 12.6757 81.0696C12.6888 80.9739 12.6932 80.887 12.6409 80.887V80.8913Z" fill="#557086"/>
<path d="M55.851 79.0672L54.2522 80.8632C54.1826 80.9428 54.1826 81.0572 54.2522 81.1368L55.8461 82.9328C55.9255 83.0224 56.0695 83.0224 56.1539 82.9328L57.7479 81.1368C57.8174 81.0572 57.8174 80.9428 57.7479 80.8632L56.1539 79.0672C56.0745 78.9776 55.9305 78.9776 55.8461 79.0672H55.851Z" fill="white"/>
<path d="M56.6604 79.6343L57.1421 80.1766L55.568 82.6144L54.704 81.6393L56.6604 79.6343Z" fill="#8EA3B2"/>
<rect x="13" y="62" width="37" height="13" rx="6.5" fill="#2F4553"/>
<path d="M26.0302 70.072C24.8602 70.072 24.3142 69.058 24.3142 68.002C24.3142 66.946 24.8602 65.938 26.0302 65.938C27.2002 65.938 27.7462 66.946 27.7462 68.002C27.7462 69.058 27.2002 70.072 26.0302 70.072ZM26.0302 69.16C26.5102 69.16 26.7022 68.71 26.7022 68.002C26.7022 67.294 26.5102 66.85 26.0302 66.85C25.5502 66.85 25.3582 67.294 25.3582 68.002C25.3582 68.71 25.5502 69.16 26.0302 69.16ZM28.6185 70.072C28.3125 70.072 28.0545 69.814 28.0545 69.508C28.0545 69.202 28.3125 68.944 28.6185 68.944C28.9245 68.944 29.1825 69.202 29.1825 69.508C29.1825 69.814 28.9245 70.072 28.6185 70.072ZM31.2158 70.072C30.0458 70.072 29.4998 69.058 29.4998 68.002C29.4998 66.946 30.0458 65.938 31.2158 65.938C32.3858 65.938 32.9318 66.946 32.9318 68.002C32.9318 69.058 32.3858 70.072 31.2158 70.072ZM31.2158 69.16C31.6958 69.16 31.8878 68.71 31.8878 68.002C31.8878 67.294 31.6958 66.85 31.2158 66.85C30.7358 66.85 30.5438 67.294 30.5438 68.002C30.5438 68.71 30.7358 69.16 31.2158 69.16ZM35.4099 70H34.3779V67.318L33.7059 67.996L33.1179 67.378L34.5159 65.998H35.4099V70ZM38.8795 70H37.8655L37.3075 69.124L36.7435 70H35.7355L36.7255 68.512L35.7955 67.102H36.8095L37.3075 67.888L37.7995 67.102H38.8135L37.8895 68.512L38.8795 70Z" fill="white"/>
<path d="M6.945 11.06C5.945 11.06 5.17 10.36 5.17 9.335C5.17 8.31 5.945 7.61 6.945 7.61C7.68 7.61 8.105 8.01 8.34 8.425L7.73 8.725C7.59 8.455 7.29 8.24 6.945 8.24C6.34 8.24 5.9 8.705 5.9 9.335C5.9 9.965 6.34 10.43 6.945 10.43C7.29 10.43 7.59 10.22 7.73 9.945L8.34 10.24C8.1 10.655 7.68 11.06 6.945 11.06ZM9.86762 11.06C9.07262 11.06 8.59262 10.48 8.59262 9.79C8.59262 9.105 9.07262 8.525 9.86762 8.525C10.6676 8.525 11.1476 9.105 11.1476 9.79C11.1476 10.48 10.6676 11.06 9.86762 11.06ZM9.86762 10.495C10.2626 10.495 10.4876 10.17 10.4876 9.79C10.4876 9.415 10.2626 9.09 9.86762 9.09C9.47262 9.09 9.25262 9.415 9.25262 9.79C9.25262 10.17 9.47262 10.495 9.86762 10.495ZM15.2537 11H14.6137V9.475C14.6137 9.25 14.5137 9.09 14.2537 9.09C14.0287 9.09 13.8437 9.24 13.7537 9.37V11H13.1137V9.475C13.1137 9.25 13.0137 9.09 12.7537 9.09C12.5337 9.09 12.3487 9.24 12.2537 9.375V11H11.6187V8.585H12.2537V8.9C12.3537 8.755 12.6737 8.525 13.0437 8.525C13.3987 8.525 13.6237 8.69 13.7137 8.965C13.8537 8.745 14.1737 8.525 14.5437 8.525C14.9887 8.525 15.2537 8.76 15.2537 9.255V11ZM19.5115 11H18.8715V9.475C18.8715 9.25 18.7715 9.09 18.5115 9.09C18.2865 9.09 18.1015 9.24 18.0115 9.37V11H17.3715V9.475C17.3715 9.25 17.2715 9.09 17.0115 9.09C16.7915 9.09 16.6065 9.24 16.5115 9.375V11H15.8765V8.585H16.5115V8.9C16.6115 8.755 16.9315 8.525 17.3015 8.525C17.6565 8.525 17.8815 8.69 17.9715 8.965C18.1115 8.745 18.4315 8.525 18.8015 8.525C19.2465 8.525 19.5115 8.76 19.5115 9.255V11ZM21.2543 11.06C20.4593 11.06 19.9793 10.48 19.9793 9.79C19.9793 9.105 20.4593 8.525 21.2543 8.525C22.0543 8.525 22.5343 9.105 22.5343 9.79C22.5343 10.48 22.0543 11.06 21.2543 11.06ZM21.2543 10.495C21.6493 10.495 21.8743 10.17 21.8743 9.79C21.8743 9.415 21.6493 9.09 21.2543 9.09C20.8593 9.09 20.6393 9.415 20.6393 9.79C20.6393 10.17 20.8593 10.495 21.2543 10.495ZM25.2704 11H24.6354V9.54C24.6354 9.205 24.4604 9.09 24.1904 9.09C23.9404 9.09 23.7454 9.23 23.6404 9.375V11H23.0054V8.585H23.6404V8.9C23.7954 8.715 24.0904 8.525 24.4854 8.525C25.0154 8.525 25.2704 8.825 25.2704 9.295V11Z" fill="#05080A"/>
<path d="M46.2757 11H45.8237L44.4317 9.096V11H43.9637V8.332H44.4437L45.8077 10.184V8.332H46.2757V11ZM47.7026 11.048C47.0906 11.048 46.7106 10.588 46.7106 10.032C46.7106 9.48 47.0906 9.02 47.7026 9.02C48.3226 9.02 48.6986 9.48 48.6986 10.032C48.6986 10.588 48.3226 11.048 47.7026 11.048ZM47.7026 10.676C48.0626 10.676 48.2626 10.376 48.2626 10.032C48.2626 9.692 48.0626 9.392 47.7026 9.392C47.3466 9.392 47.1466 9.692 47.1466 10.032C47.1466 10.376 47.3466 10.676 47.7026 10.676ZM49.32 11.044C49.168 11.044 49.04 10.916 49.04 10.764C49.04 10.612 49.168 10.484 49.32 10.484C49.472 10.484 49.6 10.612 49.6 10.764C49.6 10.916 49.472 11.044 49.32 11.044ZM52.9718 11H51.0398V10.632C52.0758 9.848 52.4798 9.5 52.4798 9.116C52.4798 8.836 52.2398 8.708 51.9958 8.708C51.6838 8.708 51.4438 8.836 51.2758 9.028L51.0038 8.72C51.2398 8.436 51.6158 8.292 51.9878 8.292C52.5038 8.292 52.9558 8.584 52.9558 9.116C52.9558 9.608 52.5038 10.048 51.7878 10.588H52.9718V11ZM55.3508 11H53.4188V10.632C54.4548 9.848 54.8588 9.5 54.8588 9.116C54.8588 8.836 54.6188 8.708 54.3748 8.708C54.0628 8.708 53.8228 8.836 53.6548 9.028L53.3828 8.72C53.6188 8.436 53.9948 8.292 54.3668 8.292C54.8828 8.292 55.3348 8.584 55.3348 9.116C55.3348 9.608 54.8828 10.048 54.1668 10.588H55.3508V11ZM56.6577 11.044C56.3297 11.044 56.0737 10.928 55.8937 10.748L56.1097 10.396C56.2497 10.54 56.4057 10.628 56.6577 10.628C57.1417 10.628 57.3617 10.188 57.3617 9.752C57.3617 9.724 57.3617 9.7 57.3617 9.672C57.2377 9.852 56.9577 10.048 56.6457 10.048C56.1657 10.048 55.7497 9.752 55.7497 9.184C55.7497 8.692 56.1377 8.288 56.7337 8.288C57.5177 8.288 57.8337 8.924 57.8337 9.668C57.8337 10.436 57.4297 11.044 56.6577 11.044ZM56.7697 9.644C56.9977 9.644 57.2217 9.524 57.3537 9.332C57.3297 9.044 57.1697 8.704 56.7577 8.704C56.4097 8.704 56.2257 8.956 56.2257 9.168C56.2257 9.496 56.4817 9.644 56.7697 9.644Z" fill="white"/>
<defs>
<clipPath id="clip0_26835_29392">
<rect width="63" height="88" fill="white"/>
</clipPath>
</defs>
</svg>
