<svg width="63" height="88" viewBox="0 0 63 88" fill="none" xmlns="http://www.w3.org/2000/svg">
<rect width="63" height="88" rx="4" fill="#55DFFF"/>
<path d="M36.7008 13.5133L44.7992 3.48665C45.5586 2.54645 46.7024 2 47.911 2H58C59.6569 2 61 3.34314 61 5V83C61 84.6569 59.6569 86 58 86H5C3.34315 86 2 84.6569 2 83V18C2 16.3431 3.34315 15 5 15H33.589C34.7976 15 35.9414 14.4536 36.7008 13.5133Z" fill="#213743"/>
<rect x="5" y="18" width="53" height="40" rx="1" fill="#2F4553"/>
<g clip-path="url(#clip0_26835_29393)">
<path d="M41.25 32.4599C41.25 33.9499 40.83 35.5199 39.99 37.1499C39.29 38.4799 38.09 40.2399 36.36 42.4099C34.64 44.5899 32.9 46.7599 31.14 48.9299H39.14C39.85 48.9299 40.43 49.5099 40.43 50.2199V52.4599C40.43 53.1699 39.85 53.7499 39.14 53.7499H23.03C22.32 53.7499 21.74 53.1699 21.74 52.4599V50.4199C21.74 49.9799 21.89 49.5399 22.15 49.1899C24.56 45.9299 26.22 43.6699 27.12 42.4099C28.25 40.8599 29.56 38.9999 31.02 36.8199C31.97 35.3299 32.58 34.2599 32.83 33.6199C33.09 32.9799 33.21 32.3199 33.21 31.6399C33.21 30.1999 32.57 29.4799 31.29 29.4799C30.56 29.4799 30.06 29.7499 29.81 30.2999C29.55 30.8399 29.43 31.5999 29.43 32.5799V35.1899H21.74V34.2499C21.74 33.7099 21.74 33.1799 21.77 32.6599C21.79 32.1399 21.85 31.6099 21.96 31.0699C22.33 29.1399 23.3 27.6699 24.87 26.6699C26.44 25.6599 28.51 25.1599 31.08 25.1599C32.4 25.1599 33.57 25.2599 34.6 25.4699C35.62 25.6699 36.58 26.0099 37.46 26.4699C39.99 27.8799 41.25 29.8799 41.25 32.4599Z" fill="#1A2C38"/>
<path d="M41.25 31.1601C41.25 32.6501 40.83 34.2201 39.99 35.8501C39.29 37.1801 38.09 38.9401 36.36 41.1101C34.64 43.2901 32.9 45.4601 31.14 47.6301H39.14C39.85 47.6301 40.43 48.2101 40.43 48.9201V51.1601C40.43 51.8701 39.85 52.4501 39.14 52.4501H23.03C22.32 52.4501 21.74 51.8701 21.74 51.1601V49.1201C21.74 48.6801 21.89 48.2401 22.15 47.8901C24.56 44.6301 26.22 42.3701 27.12 41.1101C28.25 39.5601 29.56 37.7001 31.02 35.5201C31.97 34.0301 32.58 32.9601 32.83 32.3201C33.09 31.6801 33.21 31.0201 33.21 30.3401C33.21 28.9001 32.57 28.1801 31.29 28.1801C30.56 28.1801 30.06 28.4501 29.81 29.0001C29.55 29.5401 29.43 30.3001 29.43 31.2801V33.8901H21.74V32.9501C21.74 32.4101 21.74 31.8801 21.77 31.3601C21.79 30.8401 21.85 30.3101 21.96 29.7701C22.33 27.8401 23.3 26.3701 24.87 25.3701C26.44 24.3601 28.51 23.8601 31.08 23.8601C32.4 23.8601 33.57 23.9601 34.6 24.1701C35.62 24.3701 36.58 24.7101 37.46 25.1701C39.99 26.5801 41.25 28.5801 41.25 31.1601Z" fill="#55DFFF"/>
<path d="M36.13 30.01C35.57 28.52 35.23 27.26 36.19 26.91C37.15 26.56 38.37 27.48 38.93 28.97C39.49 30.46 39.16 31.96 38.2 32.32C37.24 32.68 36.68 31.51 36.13 30.01Z" fill="white"/>
<path d="M26.98 49.84C26.98 51.01 25.99 51.51 24.76 51.51C23.53 51.51 23.32 51.01 23.32 49.84C23.32 48.67 23.54 47.73 24.76 47.73C25.98 47.73 26.98 48.68 26.98 49.84Z" fill="#557086"/>
</g>
<path fill-rule="evenodd" clip-rule="evenodd" d="M6.49771 79C6.98969 79 7.48602 79.213 7.49037 79.6913C7.49037 80.1043 7.24656 80.2696 6.99839 80.2696C6.75023 80.2696 6.73281 80.1435 6.73281 80.1435C6.73281 80.1435 7.02452 79.9261 7.02452 79.7174C7.02452 79.6087 6.94179 79.313 6.489 79.3174C5.8577 79.3174 5.5181 79.6174 5.5181 80.1522C5.5181 80.7652 7.35105 80.9739 7.3554 81.7652C7.3554 82.613 6.47594 82.9957 5.69225 83C5.283 83 5.01306 82.7609 5.00871 82.3783C5.00871 81.9261 5.22204 81.4652 5.75756 81.4652C5.88382 81.4565 5.98831 81.5522 5.99702 81.6783C5.99702 81.6783 5.99702 81.6826 5.99702 81.687C5.99702 81.687 5.45715 81.8391 5.4615 82.3783C5.4615 82.4783 5.56599 82.6609 5.81851 82.6565C6.07103 82.6522 6.82424 82.4739 6.81989 81.8087C6.81989 81.1913 5.00435 81.1087 5 80.1478C5 79.0652 6.08845 79.0087 6.49771 79.0087V79ZM10.747 79.6C10.8123 79.5696 11.2129 79.4913 11.1955 79.813C11.1824 80.1348 10.9386 80.6913 10.9037 80.9348C11.2303 80.7696 11.6918 80.2087 11.6918 80.2087C11.6918 80.2087 12.0183 80.2522 11.9182 80.4522C11.818 80.6522 11.1519 81.1435 11.1519 81.1435C11.1519 81.1435 11.3043 82.5696 12.1707 82.5696C12.6453 82.5696 12.8499 82.3609 12.937 82.287C12.9587 82.2696 12.9762 82.2652 12.9849 82.2783C13.0197 82.387 12.9936 82.5043 12.9152 82.5913C12.8194 82.6957 12.5974 82.8217 12.1533 82.8261C11.3653 82.8261 10.9255 82.1957 10.8123 81.2609C10.7252 81.5348 10.7339 81.9826 10.7209 82.2C10.6948 82.2435 10.2507 82.4174 10.2158 82.1174C10.2158 82.0913 10.2158 82.0696 10.2158 82.0435C10.1331 82.1609 10.0199 82.2826 9.91108 82.2826C9.71951 82.2826 9.63679 82.1217 9.60196 82.0391C9.57584 82.0696 9.3625 82.287 9.08821 82.287C8.92277 82.2913 8.77474 82.1957 8.70943 82.0435C8.57011 82.1435 8.32195 82.2913 8.03895 82.2913C7.73418 82.2913 7.66017 82.1087 7.66017 81.9565C7.66017 81.713 7.84303 80.987 7.84303 80.987C7.84303 80.987 7.48602 81.1304 7.36411 81.1348C7.19431 81.1348 7.11159 80.8217 7.11159 80.813C7.11159 80.8087 7.11159 80.8 7.1203 80.8C7.22044 80.7609 7.94317 80.513 7.94317 80.513C7.94317 80.513 8.07813 79.9826 8.09555 79.913C8.11296 79.8435 8.2131 79.7 8.33065 79.6565C8.41773 79.6217 8.50916 79.6 8.60059 79.5913C8.63107 79.5913 8.65284 79.6 8.65284 79.6174C8.65284 79.6348 8.47433 80.4087 8.47433 80.4087C8.47433 80.4087 8.84876 80.3217 8.98808 80.3217C9.09692 80.3217 9.15352 80.387 9.09257 80.4696C9.03162 80.5522 8.96196 80.6478 8.92712 80.6913C8.88794 80.7348 8.86182 80.7435 8.77039 80.7609C8.64413 80.787 8.36113 80.8565 8.36113 80.8565C8.36113 80.8565 8.13473 81.6783 8.13909 81.8174C8.13909 81.8957 8.16521 81.987 8.26099 81.987C8.35678 81.987 8.53964 81.8739 8.67025 81.7913C8.69202 81.1522 9.18835 80.7261 9.57584 80.7261C9.7021 80.7261 9.65421 80.8478 9.79788 80.8478H9.88931C9.94591 80.8478 10.0069 80.8522 10.0069 80.9957C10.0069 81.1957 9.89367 81.5261 9.89367 81.7348C9.89367 81.8826 9.91544 81.987 9.97204 81.987C10.0678 81.987 10.1767 81.8478 10.255 81.7261C10.3813 81.0304 10.734 79.7609 10.734 79.6174L10.747 79.6ZM12.5016 80.7C12.7672 80.6783 12.9326 80.8217 12.9631 80.9C12.9936 80.9783 12.9892 81.1609 12.9152 81.2913C12.6845 81.7044 12.1097 81.6304 12.1097 81.6304C12.1097 81.6304 12.0444 81.9565 12.3405 81.9565C12.593 81.9565 12.7062 81.8304 12.8151 81.7261C12.8586 81.7261 12.9936 81.8652 12.9326 81.9609C12.8847 82.0348 12.6191 82.2565 12.2795 82.2609C11.7397 82.2609 11.6047 81.8 11.6744 81.4696C11.7658 81.0609 12.1751 80.7217 12.5016 80.6957V80.7ZM9.6455 80.987C9.32332 80.987 8.82699 81.9696 9.20577 81.9652C9.61938 81.9652 9.6455 81.1826 9.6455 81.0043V80.987ZM12.6409 80.8913C12.4232 80.9 12.1751 81.3174 12.1533 81.5C12.4798 81.513 12.654 81.1957 12.6757 81.0696C12.6888 80.9739 12.6932 80.887 12.6409 80.887V80.8913Z" fill="#557086"/>
<path d="M55.851 79.0672L54.2522 80.8632C54.1826 80.9428 54.1826 81.0572 54.2522 81.1368L55.8461 82.9328C55.9255 83.0224 56.0695 83.0224 56.1539 82.9328L57.7479 81.1368C57.8174 81.0572 57.8174 80.9428 57.7479 80.8632L56.1539 79.0672C56.0745 78.9776 55.9305 78.9776 55.8461 79.0672H55.851Z" fill="white"/>
<path d="M56.6604 79.6343L57.1421 80.1766L55.568 82.6144L54.704 81.6393L56.6604 79.6343Z" fill="#8EA3B2"/>
<rect x="13" y="62" width="37" height="13" rx="6.5" fill="#2F4553"/>
<path d="M26.0302 70.072C24.8602 70.072 24.3142 69.058 24.3142 68.002C24.3142 66.946 24.8602 65.938 26.0302 65.938C27.2002 65.938 27.7462 66.946 27.7462 68.002C27.7462 69.058 27.2002 70.072 26.0302 70.072ZM26.0302 69.16C26.5102 69.16 26.7022 68.71 26.7022 68.002C26.7022 67.294 26.5102 66.85 26.0302 66.85C25.5502 66.85 25.3582 67.294 25.3582 68.002C25.3582 68.71 25.5502 69.16 26.0302 69.16ZM28.6185 70.072C28.3125 70.072 28.0545 69.814 28.0545 69.508C28.0545 69.202 28.3125 68.944 28.6185 68.944C28.9245 68.944 29.1825 69.202 29.1825 69.508C29.1825 69.814 28.9245 70.072 28.6185 70.072ZM31.2158 70.072C30.0458 70.072 29.4998 69.058 29.4998 68.002C29.4998 66.946 30.0458 65.938 31.2158 65.938C32.3858 65.938 32.9318 66.946 32.9318 68.002C32.9318 69.058 32.3858 70.072 31.2158 70.072ZM31.2158 69.16C31.6958 69.16 31.8878 68.71 31.8878 68.002C31.8878 67.294 31.6958 66.85 31.2158 66.85C30.7358 66.85 30.5438 67.294 30.5438 68.002C30.5438 68.71 30.7358 69.16 31.2158 69.16ZM35.4099 70H34.3779V67.318L33.7059 67.996L33.1179 67.378L34.5159 65.998H35.4099V70ZM38.8795 70H37.8655L37.3075 69.124L36.7435 70H35.7355L36.7255 68.512L35.7955 67.102H36.8095L37.3075 67.888L37.7995 67.102H38.8135L37.8895 68.512L38.8795 70Z" fill="white"/>
<path d="M6.945 11.06C5.945 11.06 5.17 10.36 5.17 9.335C5.17 8.31 5.945 7.61 6.945 7.61C7.68 7.61 8.105 8.01 8.34 8.425L7.73 8.725C7.59 8.455 7.29 8.24 6.945 8.24C6.34 8.24 5.9 8.705 5.9 9.335C5.9 9.965 6.34 10.43 6.945 10.43C7.29 10.43 7.59 10.22 7.73 9.945L8.34 10.24C8.1 10.655 7.68 11.06 6.945 11.06ZM9.86762 11.06C9.07262 11.06 8.59262 10.48 8.59262 9.79C8.59262 9.105 9.07262 8.525 9.86762 8.525C10.6676 8.525 11.1476 9.105 11.1476 9.79C11.1476 10.48 10.6676 11.06 9.86762 11.06ZM9.86762 10.495C10.2626 10.495 10.4876 10.17 10.4876 9.79C10.4876 9.415 10.2626 9.09 9.86762 9.09C9.47262 9.09 9.25262 9.415 9.25262 9.79C9.25262 10.17 9.47262 10.495 9.86762 10.495ZM15.2537 11H14.6137V9.475C14.6137 9.25 14.5137 9.09 14.2537 9.09C14.0287 9.09 13.8437 9.24 13.7537 9.37V11H13.1137V9.475C13.1137 9.25 13.0137 9.09 12.7537 9.09C12.5337 9.09 12.3487 9.24 12.2537 9.375V11H11.6187V8.585H12.2537V8.9C12.3537 8.755 12.6737 8.525 13.0437 8.525C13.3987 8.525 13.6237 8.69 13.7137 8.965C13.8537 8.745 14.1737 8.525 14.5437 8.525C14.9887 8.525 15.2537 8.76 15.2537 9.255V11ZM19.5115 11H18.8715V9.475C18.8715 9.25 18.7715 9.09 18.5115 9.09C18.2865 9.09 18.1015 9.24 18.0115 9.37V11H17.3715V9.475C17.3715 9.25 17.2715 9.09 17.0115 9.09C16.7915 9.09 16.6065 9.24 16.5115 9.375V11H15.8765V8.585H16.5115V8.9C16.6115 8.755 16.9315 8.525 17.3015 8.525C17.6565 8.525 17.8815 8.69 17.9715 8.965C18.1115 8.745 18.4315 8.525 18.8015 8.525C19.2465 8.525 19.5115 8.76 19.5115 9.255V11ZM21.2543 11.06C20.4593 11.06 19.9793 10.48 19.9793 9.79C19.9793 9.105 20.4593 8.525 21.2543 8.525C22.0543 8.525 22.5343 9.105 22.5343 9.79C22.5343 10.48 22.0543 11.06 21.2543 11.06ZM21.2543 10.495C21.6493 10.495 21.8743 10.17 21.8743 9.79C21.8743 9.415 21.6493 9.09 21.2543 9.09C20.8593 9.09 20.6393 9.415 20.6393 9.79C20.6393 10.17 20.8593 10.495 21.2543 10.495ZM25.2704 11H24.6354V9.54C24.6354 9.205 24.4604 9.09 24.1904 9.09C23.9404 9.09 23.7454 9.23 23.6404 9.375V11H23.0054V8.585H23.6404V8.9C23.7954 8.715 24.0904 8.525 24.4854 8.525C25.0154 8.525 25.2704 8.825 25.2704 9.295V11Z" fill="#05080A"/>
<path d="M46.2952 11H45.8432L44.4512 9.096V11H43.9832V8.332H44.4632L45.8272 10.184V8.332H46.2952V11ZM47.7221 11.048C47.1101 11.048 46.7301 10.588 46.7301 10.032C46.7301 9.48 47.1101 9.02 47.7221 9.02C48.3421 9.02 48.7181 9.48 48.7181 10.032C48.7181 10.588 48.3421 11.048 47.7221 11.048ZM47.7221 10.676C48.0821 10.676 48.2821 10.376 48.2821 10.032C48.2821 9.692 48.0821 9.392 47.7221 9.392C47.3661 9.392 47.1661 9.692 47.1661 10.032C47.1661 10.376 47.3661 10.676 47.7221 10.676ZM49.3396 11.044C49.1876 11.044 49.0596 10.916 49.0596 10.764C49.0596 10.612 49.1876 10.484 49.3396 10.484C49.4916 10.484 49.6196 10.612 49.6196 10.764C49.6196 10.916 49.4916 11.044 49.3396 11.044ZM52.9914 11H51.0594V10.632C52.0954 9.848 52.4994 9.5 52.4994 9.116C52.4994 8.836 52.2594 8.708 52.0154 8.708C51.7034 8.708 51.4634 8.836 51.2954 9.028L51.0234 8.72C51.2594 8.436 51.6354 8.292 52.0074 8.292C52.5234 8.292 52.9754 8.584 52.9754 9.116C52.9754 9.608 52.5234 10.048 51.8074 10.588H52.9914V11ZM54.3423 11.048C53.8663 11.048 53.5143 10.856 53.3343 10.616L53.5863 10.308C53.7583 10.508 54.0423 10.632 54.3263 10.632C54.6783 10.632 54.8823 10.472 54.8823 10.224C54.8823 9.96 54.6703 9.848 54.2903 9.848C54.1783 9.848 54.0223 9.848 53.9823 9.852V9.432C54.0303 9.436 54.1863 9.436 54.2903 9.436C54.6023 9.436 54.8383 9.328 54.8383 9.084C54.8383 8.836 54.5983 8.708 54.2983 8.708C54.0263 8.708 53.8023 8.812 53.6103 9.004L53.3703 8.712C53.5743 8.472 53.8983 8.292 54.3423 8.292C54.9183 8.292 55.3063 8.564 55.3063 9.012C55.3063 9.368 55.0023 9.576 54.7263 9.624C54.9863 9.648 55.3463 9.86 55.3463 10.272C55.3463 10.724 54.9583 11.048 54.3423 11.048ZM56.7672 11.048C56.0192 11.048 55.6992 10.34 55.6992 9.668C55.6992 8.996 56.0192 8.292 56.7672 8.292C57.5152 8.292 57.8352 8.996 57.8352 9.668C57.8352 10.34 57.5152 11.048 56.7672 11.048ZM56.7672 10.632C57.2032 10.632 57.3592 10.176 57.3592 9.668C57.3592 9.16 57.2032 8.708 56.7672 8.708C56.3312 8.708 56.1752 9.16 56.1752 9.668C56.1752 10.176 56.3312 10.632 56.7672 10.632Z" fill="white"/>
<defs>
<clipPath id="clip0_26835_29393">
<rect width="63" height="88" fill="white"/>
</clipPath>
</defs>
</svg>
