<svg width="63" height="88" viewBox="0 0 63 88" fill="none" xmlns="http://www.w3.org/2000/svg">
<rect width="63" height="88" rx="4" fill="#55DFFF"/>
<path d="M36.7008 13.5133L44.7992 3.48665C45.5586 2.54645 46.7024 2 47.911 2H58C59.6569 2 61 3.34314 61 5V83C61 84.6569 59.6569 86 58 86H5C3.34315 86 2 84.6569 2 83V18C2 16.3431 3.34315 15 5 15H33.589C34.7976 15 35.9414 14.4536 36.7008 13.5133Z" fill="#213743"/>
<rect x="5" y="18" width="53" height="40" rx="1" fill="#2F4553"/>
<g clip-path="url(#clip0_26835_29400)">
<path d="M41.8691 47.4516C40.5279 48.2925 36.1423 48.7503 36.1423 42.3529C36.1423 35.9555 41.1559 33.1028 41.1559 33.1028H21.7935C21.7935 33.1028 26.8071 35.9555 26.8071 42.3529C26.8071 48.7503 22.5492 48.3671 21.0803 47.4516C21.0803 47.4516 19.7178 53.5935 31.48 53.5935C43.2422 53.5935 41.8691 47.4516 41.8691 47.4516Z" fill="#557086"/>
<path d="M45.7969 30.7611C45.3179 27.8232 42.2842 25.5347 38.4415 25.5347C34.5988 25.5347 33.6408 27.3549 31.48 27.3549C29.3192 27.3549 28.3505 25.5347 24.5185 25.5347C20.6864 25.5347 17.6421 27.8232 17.1631 30.7611C16.6841 33.699 21.8148 36.1473 31.48 36.1473C41.1452 36.1473 46.2759 33.6884 45.7969 30.7611Z" fill="#56DEFF"/>
<path d="M27.6267 28.7919C27.6267 29.4625 29.1169 30.9421 31.3736 30.8356C32.5764 30.7718 31.5652 29.9521 30.4262 29.4199C29.2872 28.8877 27.616 27.7913 27.6267 28.7919Z" fill="#1A2C38"/>
<path d="M30.1814 29.5795C30.1814 31.2507 32.5551 31.2507 32.5551 29.5795C32.5551 29.5795 32.257 26.3435 34.6627 22.8628C34.8756 22.5541 34.8756 22.1389 34.6308 21.8622C34.205 21.3619 33.3321 20.7658 31.7674 21.0958C31.5013 21.149 31.2884 21.3619 31.1926 21.6173C30.7987 22.6712 29.8833 25.6623 30.1814 29.5901V29.5795Z" fill="#557086"/>
<path d="M43.5037 29.8339C43.8121 29.1347 43.0069 28.1024 41.7052 27.5283C40.4036 26.9542 39.0983 27.0556 38.7899 27.7549C38.4815 28.4541 39.2867 29.4864 40.5884 30.0605C41.8901 30.6346 43.1953 30.5332 43.5037 29.8339Z" fill="white"/>
<path d="M29.2127 44.311C30.5433 44.5878 30.5433 40 30.2026 40C29.862 40 27.8821 44.0343 29.2127 44.311Z" fill="#1A2C38"/>
<path d="M33.7473 44.311C32.4167 44.5878 32.4167 40 32.7573 40C33.0979 40 35.0778 44.0343 33.7473 44.311Z" fill="#1A2C38"/>
<path d="M43.1145 47.7816C43.2529 46.9407 41.6136 46.7491 39.5273 48.8354C37.4409 50.9217 33.9708 48.6225 31.4906 48.6225C29.0105 48.6225 25.5403 50.9217 23.454 48.8354C21.3677 46.7491 19.7284 46.9407 19.8668 47.7816C19.771 49.3144 20.3671 54.0406 31.0436 54.0406C31.2032 54.0406 31.3416 54.0406 31.4906 54.0406C31.6397 54.0406 31.7887 54.0406 31.9377 54.0406C42.6248 54.0406 43.2103 49.3144 43.1145 47.7816Z" fill="#56DEFF"/>
</g>
<path fill-rule="evenodd" clip-rule="evenodd" d="M6.49771 79C6.98969 79 7.48602 79.213 7.49037 79.6913C7.49037 80.1043 7.24656 80.2696 6.99839 80.2696C6.75023 80.2696 6.73281 80.1435 6.73281 80.1435C6.73281 80.1435 7.02452 79.9261 7.02452 79.7174C7.02452 79.6087 6.94179 79.313 6.489 79.3174C5.8577 79.3174 5.5181 79.6174 5.5181 80.1522C5.5181 80.7652 7.35105 80.9739 7.3554 81.7652C7.3554 82.613 6.47594 82.9957 5.69225 83C5.283 83 5.01306 82.7609 5.00871 82.3783C5.00871 81.9261 5.22204 81.4652 5.75756 81.4652C5.88382 81.4565 5.98831 81.5522 5.99702 81.6783C5.99702 81.6783 5.99702 81.6826 5.99702 81.687C5.99702 81.687 5.45715 81.8391 5.4615 82.3783C5.4615 82.4783 5.56599 82.6609 5.81851 82.6565C6.07103 82.6522 6.82424 82.4739 6.81989 81.8087C6.81989 81.1913 5.00435 81.1087 5 80.1478C5 79.0652 6.08845 79.0087 6.49771 79.0087V79ZM10.747 79.6C10.8123 79.5696 11.2129 79.4913 11.1955 79.813C11.1824 80.1348 10.9386 80.6913 10.9037 80.9348C11.2303 80.7696 11.6918 80.2087 11.6918 80.2087C11.6918 80.2087 12.0183 80.2522 11.9182 80.4522C11.818 80.6522 11.1519 81.1435 11.1519 81.1435C11.1519 81.1435 11.3043 82.5696 12.1707 82.5696C12.6453 82.5696 12.8499 82.3609 12.937 82.287C12.9587 82.2696 12.9762 82.2652 12.9849 82.2783C13.0197 82.387 12.9936 82.5043 12.9152 82.5913C12.8194 82.6957 12.5974 82.8217 12.1533 82.8261C11.3653 82.8261 10.9255 82.1957 10.8123 81.2609C10.7252 81.5348 10.7339 81.9826 10.7209 82.2C10.6948 82.2435 10.2507 82.4174 10.2158 82.1174C10.2158 82.0913 10.2158 82.0696 10.2158 82.0435C10.1331 82.1609 10.0199 82.2826 9.91108 82.2826C9.71951 82.2826 9.63679 82.1217 9.60196 82.0391C9.57584 82.0696 9.3625 82.287 9.08821 82.287C8.92277 82.2913 8.77474 82.1957 8.70943 82.0435C8.57011 82.1435 8.32195 82.2913 8.03895 82.2913C7.73418 82.2913 7.66017 82.1087 7.66017 81.9565C7.66017 81.713 7.84303 80.987 7.84303 80.987C7.84303 80.987 7.48602 81.1304 7.36411 81.1348C7.19431 81.1348 7.11159 80.8217 7.11159 80.813C7.11159 80.8087 7.11159 80.8 7.1203 80.8C7.22044 80.7609 7.94317 80.513 7.94317 80.513C7.94317 80.513 8.07813 79.9826 8.09555 79.913C8.11296 79.8435 8.2131 79.7 8.33065 79.6565C8.41773 79.6217 8.50916 79.6 8.60059 79.5913C8.63107 79.5913 8.65284 79.6 8.65284 79.6174C8.65284 79.6348 8.47433 80.4087 8.47433 80.4087C8.47433 80.4087 8.84876 80.3217 8.98808 80.3217C9.09692 80.3217 9.15352 80.387 9.09257 80.4696C9.03162 80.5522 8.96196 80.6478 8.92712 80.6913C8.88794 80.7348 8.86182 80.7435 8.77039 80.7609C8.64413 80.787 8.36113 80.8565 8.36113 80.8565C8.36113 80.8565 8.13473 81.6783 8.13909 81.8174C8.13909 81.8957 8.16521 81.987 8.26099 81.987C8.35678 81.987 8.53964 81.8739 8.67025 81.7913C8.69202 81.1522 9.18835 80.7261 9.57584 80.7261C9.7021 80.7261 9.65421 80.8478 9.79788 80.8478H9.88931C9.94591 80.8478 10.0069 80.8522 10.0069 80.9957C10.0069 81.1957 9.89367 81.5261 9.89367 81.7348C9.89367 81.8826 9.91544 81.987 9.97204 81.987C10.0678 81.987 10.1767 81.8478 10.255 81.7261C10.3813 81.0304 10.734 79.7609 10.734 79.6174L10.747 79.6ZM12.5016 80.7C12.7672 80.6783 12.9326 80.8217 12.9631 80.9C12.9936 80.9783 12.9892 81.1609 12.9152 81.2913C12.6845 81.7044 12.1097 81.6304 12.1097 81.6304C12.1097 81.6304 12.0444 81.9565 12.3405 81.9565C12.593 81.9565 12.7062 81.8304 12.8151 81.7261C12.8586 81.7261 12.9936 81.8652 12.9326 81.9609C12.8847 82.0348 12.6191 82.2565 12.2795 82.2609C11.7397 82.2609 11.6047 81.8 11.6744 81.4696C11.7658 81.0609 12.1751 80.7217 12.5016 80.6957V80.7ZM9.6455 80.987C9.32332 80.987 8.82699 81.9696 9.20577 81.9652C9.61938 81.9652 9.6455 81.1826 9.6455 81.0043V80.987ZM12.6409 80.8913C12.4232 80.9 12.1751 81.3174 12.1533 81.5C12.4798 81.513 12.654 81.1957 12.6757 81.0696C12.6888 80.9739 12.6932 80.887 12.6409 80.887V80.8913Z" fill="#557086"/>
<path d="M55.851 79.0672L54.2521 80.8632C54.1826 80.9428 54.1826 81.0572 54.2521 81.1368L55.8461 82.9328C55.9255 83.0224 56.0695 83.0224 56.1539 82.9328L57.7479 81.1368C57.8174 81.0572 57.8174 80.9428 57.7479 80.8632L56.1539 79.0672C56.0745 78.9776 55.9305 78.9776 55.8461 79.0672H55.851Z" fill="white"/>
<path d="M56.6604 79.6343L57.1421 80.1766L55.568 82.6144L54.704 81.6393L56.6604 79.6343Z" fill="#8EA3B2"/>
<rect x="13" y="62" width="37" height="13" rx="6.5" fill="#2F4553"/>
<path d="M26.0302 70.072C24.8602 70.072 24.3142 69.058 24.3142 68.002C24.3142 66.946 24.8602 65.938 26.0302 65.938C27.2002 65.938 27.7462 66.946 27.7462 68.002C27.7462 69.058 27.2002 70.072 26.0302 70.072ZM26.0302 69.16C26.5102 69.16 26.7022 68.71 26.7022 68.002C26.7022 67.294 26.5102 66.85 26.0302 66.85C25.5502 66.85 25.3582 67.294 25.3582 68.002C25.3582 68.71 25.5502 69.16 26.0302 69.16ZM28.6185 70.072C28.3125 70.072 28.0545 69.814 28.0545 69.508C28.0545 69.202 28.3125 68.944 28.6185 68.944C28.9245 68.944 29.1825 69.202 29.1825 69.508C29.1825 69.814 28.9245 70.072 28.6185 70.072ZM31.2158 70.072C30.0458 70.072 29.4998 69.058 29.4998 68.002C29.4998 66.946 30.0458 65.938 31.2158 65.938C32.3858 65.938 32.9318 66.946 32.9318 68.002C32.9318 69.058 32.3858 70.072 31.2158 70.072ZM31.2158 69.16C31.6958 69.16 31.8878 68.71 31.8878 68.002C31.8878 67.294 31.6958 66.85 31.2158 66.85C30.7358 66.85 30.5438 67.294 30.5438 68.002C30.5438 68.71 30.7358 69.16 31.2158 69.16ZM35.4099 70H34.3779V67.318L33.7059 67.996L33.1179 67.378L34.5159 65.998H35.4099V70ZM38.8795 70H37.8655L37.3075 69.124L36.7435 70H35.7355L36.7255 68.512L35.7955 67.102H36.8095L37.3075 67.888L37.7995 67.102H38.8135L37.8895 68.512L38.8795 70Z" fill="white"/>
<path d="M6.945 11.06C5.945 11.06 5.17 10.36 5.17 9.335C5.17 8.31 5.945 7.61 6.945 7.61C7.68 7.61 8.105 8.01 8.34 8.425L7.73 8.725C7.59 8.455 7.29 8.24 6.945 8.24C6.34 8.24 5.9 8.705 5.9 9.335C5.9 9.965 6.34 10.43 6.945 10.43C7.29 10.43 7.59 10.22 7.73 9.945L8.34 10.24C8.1 10.655 7.68 11.06 6.945 11.06ZM9.86762 11.06C9.07262 11.06 8.59262 10.48 8.59262 9.79C8.59262 9.105 9.07262 8.525 9.86762 8.525C10.6676 8.525 11.1476 9.105 11.1476 9.79C11.1476 10.48 10.6676 11.06 9.86762 11.06ZM9.86762 10.495C10.2626 10.495 10.4876 10.17 10.4876 9.79C10.4876 9.415 10.2626 9.09 9.86762 9.09C9.47262 9.09 9.25262 9.415 9.25262 9.79C9.25262 10.17 9.47262 10.495 9.86762 10.495ZM15.2537 11H14.6137V9.475C14.6137 9.25 14.5137 9.09 14.2537 9.09C14.0287 9.09 13.8437 9.24 13.7537 9.37V11H13.1137V9.475C13.1137 9.25 13.0137 9.09 12.7537 9.09C12.5337 9.09 12.3487 9.24 12.2537 9.375V11H11.6187V8.585H12.2537V8.9C12.3537 8.755 12.6737 8.525 13.0437 8.525C13.3987 8.525 13.6237 8.69 13.7137 8.965C13.8537 8.745 14.1737 8.525 14.5437 8.525C14.9887 8.525 15.2537 8.76 15.2537 9.255V11ZM19.5115 11H18.8715V9.475C18.8715 9.25 18.7715 9.09 18.5115 9.09C18.2865 9.09 18.1015 9.24 18.0115 9.37V11H17.3715V9.475C17.3715 9.25 17.2715 9.09 17.0115 9.09C16.7915 9.09 16.6065 9.24 16.5115 9.375V11H15.8765V8.585H16.5115V8.9C16.6115 8.755 16.9315 8.525 17.3015 8.525C17.6565 8.525 17.8815 8.69 17.9715 8.965C18.1115 8.745 18.4315 8.525 18.8015 8.525C19.2465 8.525 19.5115 8.76 19.5115 9.255V11ZM21.2543 11.06C20.4593 11.06 19.9793 10.48 19.9793 9.79C19.9793 9.105 20.4593 8.525 21.2543 8.525C22.0543 8.525 22.5343 9.105 22.5343 9.79C22.5343 10.48 22.0543 11.06 21.2543 11.06ZM21.2543 10.495C21.6493 10.495 21.8743 10.17 21.8743 9.79C21.8743 9.415 21.6493 9.09 21.2543 9.09C20.8593 9.09 20.6393 9.415 20.6393 9.79C20.6393 10.17 20.8593 10.495 21.2543 10.495ZM25.2704 11H24.6354V9.54C24.6354 9.205 24.4604 9.09 24.1904 9.09C23.9404 9.09 23.7454 9.23 23.6404 9.375V11H23.0054V8.585H23.6404V8.9C23.7954 8.715 24.0904 8.525 24.4854 8.525C25.0154 8.525 25.2704 8.825 25.2704 9.295V11Z" fill="#05080A"/>
<path d="M46.6312 11H46.1792L44.7872 9.096V11H44.3192V8.332H44.7992L46.1632 10.184V8.332H46.6312V11ZM48.0581 11.048C47.4461 11.048 47.0661 10.588 47.0661 10.032C47.0661 9.48 47.4461 9.02 48.0581 9.02C48.6781 9.02 49.0541 9.48 49.0541 10.032C49.0541 10.588 48.6781 11.048 48.0581 11.048ZM48.0581 10.676C48.4181 10.676 48.6181 10.376 48.6181 10.032C48.6181 9.692 48.4181 9.392 48.0581 9.392C47.7021 9.392 47.5021 9.692 47.5021 10.032C47.5021 10.376 47.7021 10.676 48.0581 10.676ZM49.6755 11.044C49.5235 11.044 49.3955 10.916 49.3955 10.764C49.3955 10.612 49.5235 10.484 49.6755 10.484C49.8275 10.484 49.9555 10.612 49.9555 10.764C49.9555 10.916 49.8275 11.044 49.6755 11.044ZM53.3273 11H51.3953V10.632C52.4313 9.848 52.8353 9.5 52.8353 9.116C52.8353 8.836 52.5953 8.708 52.3513 8.708C52.0393 8.708 51.7993 8.836 51.6313 9.028L51.3593 8.72C51.5953 8.436 51.9713 8.292 52.3433 8.292C52.8593 8.292 53.3113 8.584 53.3113 9.116C53.3113 9.608 52.8593 10.048 52.1433 10.588H53.3273V11ZM54.6782 11.048C54.2022 11.048 53.8502 10.856 53.6702 10.616L53.9222 10.308C54.0942 10.508 54.3782 10.632 54.6622 10.632C55.0142 10.632 55.2182 10.472 55.2182 10.224C55.2182 9.96 55.0062 9.848 54.6262 9.848C54.5142 9.848 54.3582 9.848 54.3182 9.852V9.432C54.3662 9.436 54.5222 9.436 54.6262 9.436C54.9382 9.436 55.1742 9.328 55.1742 9.084C55.1742 8.836 54.9342 8.708 54.6342 8.708C54.3622 8.708 54.1382 8.812 53.9462 9.004L53.7062 8.712C53.9102 8.472 54.2342 8.292 54.6782 8.292C55.2542 8.292 55.6422 8.564 55.6422 9.012C55.6422 9.368 55.3382 9.576 55.0622 9.624C55.3222 9.648 55.6822 9.86 55.6822 10.272C55.6822 10.724 55.2942 11.048 54.6782 11.048ZM56.8671 11H56.3551L57.3631 8.744H55.9791V8.332H57.9031V8.656L56.8671 11Z" fill="white"/>
<defs>
<clipPath id="clip0_26835_29400">
<rect width="28.6977" height="33.03" fill="white" transform="translate(17.1312 21)"/>
</clipPath>
</defs>
</svg>
