<svg width="63" height="88" viewBox="0 0 63 88" fill="none" xmlns="http://www.w3.org/2000/svg">
<rect width="63" height="88" rx="4" fill="#55DFFF"/>
<path d="M36.7008 13.5133L44.7992 3.48665C45.5586 2.54645 46.7024 2 47.911 2H58C59.6569 2 61 3.34314 61 5V83C61 84.6569 59.6569 86 58 86H5C3.34315 86 2 84.6569 2 83V18C2 16.3431 3.34315 15 5 15H33.589C34.7976 15 35.9414 14.4536 36.7008 13.5133Z" fill="#213743"/>
<rect x="5" y="18" width="53" height="40" rx="1" fill="#2F4553"/>
<g clip-path="url(#clip0_26835_29402)">
<path d="M17.62 37.0574C17.62 31.3128 20.9758 24.9832 31.5631 24.9832C42.1505 24.9832 45.6119 31.971 45.6119 37.0574H17.62Z" fill="#56DEFF"/>
<path d="M31.6281 35.9768C27.6955 35.9768 17.62 31.6947 17.62 36.8868C17.62 42.5665 18.4976 44.0534 20.3826 45.1503C21.1058 45.5566 21.8777 45.8735 22.674 46.1091C22.7796 46.1335 22.8934 46.1579 22.9909 46.1985C23.1615 46.2473 23.3321 46.2879 23.5109 46.3366C24.5266 46.4666 25.5422 46.0848 26.2248 45.321L26.0866 46.7917L25.6966 49.4243C25.6397 49.8224 25.8835 50.2124 26.2735 50.3262L27.1348 50.5781C27.5817 50.7081 28.0367 50.4399 28.1505 49.9931L28.248 49.603C28.3455 49.1968 28.7355 48.9368 29.1499 48.9936H29.2312C29.6293 49.0586 29.9299 49.408 29.9299 49.8062V50.2043C29.9299 50.6512 30.2956 51.0169 30.7425 51.0169H32.3675C32.8144 51.0169 33.1801 50.6512 33.1801 50.2043V49.8062C33.1801 49.3999 33.4807 49.0586 33.8789 49.0018H33.9601C34.3745 48.9368 34.7645 49.1968 34.862 49.603L34.9595 49.9931C35.0652 50.4399 35.5202 50.7 35.9671 50.5781L36.9746 50.3018C37.3728 50.1962 37.6247 49.8062 37.5597 49.3999L37.1615 46.7754L37.0234 45.3128C37.6734 46.036 38.6078 46.4179 39.5747 46.3529C40.7204 46.1091 41.8255 45.7029 42.8574 45.1422C44.775 44.0534 45.62 42.5583 45.62 36.8787C45.62 31.841 35.3821 35.9687 31.6038 35.9687L31.6281 35.9768Z" fill="#56DEFF"/>
<path d="M23.6815 46.6697C26.8003 46.6697 29.3286 44.1414 29.3286 41.0226C29.3286 37.9038 26.8003 35.3755 23.6815 35.3755C20.5627 35.3755 18.0344 37.9038 18.0344 41.0226C18.0344 44.1414 20.5627 46.6697 23.6815 46.6697Z" fill="#56DEFF"/>
<path d="M39.6072 46.6697C42.726 46.6697 45.2543 44.1414 45.2543 41.0226C45.2543 37.9038 42.726 35.3755 39.6072 35.3755C36.4884 35.3755 33.9601 37.9038 33.9601 41.0226C33.9601 44.1414 36.4884 46.6697 39.6072 46.6697Z" fill="#56DEFF"/>
<path d="M33.5782 46.6048C33.8301 45.3941 32.5219 42.0627 31.6038 42.0627C30.6856 42.0627 29.4018 45.4104 29.6537 46.6048C29.7756 47.1817 31.035 47.3442 31.62 47.3442C32.205 47.3442 33.4726 47.1817 33.5701 46.6048H33.5782Z" fill="#1A2C38"/>
<path d="M38.7541 43.4684C41.5004 43.4684 43.7268 41.242 43.7268 38.4957C43.7268 35.7493 41.5004 33.5229 38.7541 33.5229C36.0077 33.5229 33.7813 35.7493 33.7813 38.4957C33.7813 41.242 36.0077 43.4684 38.7541 43.4684Z" fill="#1A2C38"/>
<path d="M24.4372 43.4684C27.1835 43.4684 29.4099 41.242 29.4099 38.4957C29.4099 35.7493 27.1835 33.5229 24.4372 33.5229C21.6908 33.5229 19.4645 35.7493 19.4645 38.4957C19.4645 41.242 21.6908 43.4684 24.4372 43.4684Z" fill="#1A2C38"/>
<path d="M39.0981 28.95C39.306 28.3051 38.3805 27.4296 37.0308 26.9944C35.6812 26.5593 34.4185 26.7293 34.2106 27.3743C34.0027 28.0192 34.9282 28.8947 36.2778 29.3299C37.6275 29.765 38.8901 29.595 39.0981 28.95Z" fill="white"/>
</g>
<path fill-rule="evenodd" clip-rule="evenodd" d="M6.49771 79C6.98969 79 7.48602 79.213 7.49037 79.6913C7.49037 80.1043 7.24656 80.2696 6.99839 80.2696C6.75023 80.2696 6.73281 80.1435 6.73281 80.1435C6.73281 80.1435 7.02452 79.9261 7.02452 79.7174C7.02452 79.6087 6.94179 79.313 6.489 79.3174C5.8577 79.3174 5.5181 79.6174 5.5181 80.1522C5.5181 80.7652 7.35105 80.9739 7.3554 81.7652C7.3554 82.613 6.47594 82.9957 5.69225 83C5.283 83 5.01306 82.7609 5.00871 82.3783C5.00871 81.9261 5.22204 81.4652 5.75756 81.4652C5.88382 81.4565 5.98831 81.5522 5.99702 81.6783C5.99702 81.6783 5.99702 81.6826 5.99702 81.687C5.99702 81.687 5.45715 81.8391 5.4615 82.3783C5.4615 82.4783 5.56599 82.6609 5.81851 82.6565C6.07103 82.6522 6.82424 82.4739 6.81989 81.8087C6.81989 81.1913 5.00435 81.1087 5 80.1478C5 79.0652 6.08845 79.0087 6.49771 79.0087V79ZM10.747 79.6C10.8123 79.5696 11.2129 79.4913 11.1955 79.813C11.1824 80.1348 10.9386 80.6913 10.9037 80.9348C11.2303 80.7696 11.6918 80.2087 11.6918 80.2087C11.6918 80.2087 12.0183 80.2522 11.9182 80.4522C11.818 80.6522 11.1519 81.1435 11.1519 81.1435C11.1519 81.1435 11.3043 82.5696 12.1707 82.5696C12.6453 82.5696 12.8499 82.3609 12.937 82.287C12.9587 82.2696 12.9762 82.2652 12.9849 82.2783C13.0197 82.387 12.9936 82.5043 12.9152 82.5913C12.8194 82.6957 12.5974 82.8217 12.1533 82.8261C11.3653 82.8261 10.9255 82.1957 10.8123 81.2609C10.7252 81.5348 10.7339 81.9826 10.7209 82.2C10.6948 82.2435 10.2507 82.4174 10.2158 82.1174C10.2158 82.0913 10.2158 82.0696 10.2158 82.0435C10.1331 82.1609 10.0199 82.2826 9.91108 82.2826C9.71951 82.2826 9.63679 82.1217 9.60196 82.0391C9.57584 82.0696 9.3625 82.287 9.08821 82.287C8.92277 82.2913 8.77474 82.1957 8.70943 82.0435C8.57011 82.1435 8.32195 82.2913 8.03895 82.2913C7.73418 82.2913 7.66017 82.1087 7.66017 81.9565C7.66017 81.713 7.84303 80.987 7.84303 80.987C7.84303 80.987 7.48602 81.1304 7.36411 81.1348C7.19431 81.1348 7.11159 80.8217 7.11159 80.813C7.11159 80.8087 7.11159 80.8 7.1203 80.8C7.22044 80.7609 7.94317 80.513 7.94317 80.513C7.94317 80.513 8.07813 79.9826 8.09555 79.913C8.11296 79.8435 8.2131 79.7 8.33065 79.6565C8.41773 79.6217 8.50916 79.6 8.60059 79.5913C8.63107 79.5913 8.65284 79.6 8.65284 79.6174C8.65284 79.6348 8.47433 80.4087 8.47433 80.4087C8.47433 80.4087 8.84876 80.3217 8.98808 80.3217C9.09692 80.3217 9.15352 80.387 9.09257 80.4696C9.03162 80.5522 8.96196 80.6478 8.92712 80.6913C8.88794 80.7348 8.86182 80.7435 8.77039 80.7609C8.64413 80.787 8.36113 80.8565 8.36113 80.8565C8.36113 80.8565 8.13473 81.6783 8.13909 81.8174C8.13909 81.8957 8.16521 81.987 8.26099 81.987C8.35678 81.987 8.53964 81.8739 8.67025 81.7913C8.69202 81.1522 9.18835 80.7261 9.57584 80.7261C9.7021 80.7261 9.65421 80.8478 9.79788 80.8478H9.88931C9.94591 80.8478 10.0069 80.8522 10.0069 80.9957C10.0069 81.1957 9.89367 81.5261 9.89367 81.7348C9.89367 81.8826 9.91544 81.987 9.97204 81.987C10.0678 81.987 10.1767 81.8478 10.255 81.7261C10.3813 81.0304 10.734 79.7609 10.734 79.6174L10.747 79.6ZM12.5016 80.7C12.7672 80.6783 12.9326 80.8217 12.9631 80.9C12.9936 80.9783 12.9892 81.1609 12.9152 81.2913C12.6845 81.7044 12.1097 81.6304 12.1097 81.6304C12.1097 81.6304 12.0444 81.9565 12.3405 81.9565C12.593 81.9565 12.7062 81.8304 12.8151 81.7261C12.8586 81.7261 12.9936 81.8652 12.9326 81.9609C12.8847 82.0348 12.6191 82.2565 12.2795 82.2609C11.7397 82.2609 11.6047 81.8 11.6744 81.4696C11.7658 81.0609 12.1751 80.7217 12.5016 80.6957V80.7ZM9.6455 80.987C9.32332 80.987 8.82699 81.9696 9.20577 81.9652C9.61938 81.9652 9.6455 81.1826 9.6455 81.0043V80.987ZM12.6409 80.8913C12.4232 80.9 12.1751 81.3174 12.1533 81.5C12.4798 81.513 12.654 81.1957 12.6757 81.0696C12.6888 80.9739 12.6932 80.887 12.6409 80.887V80.8913Z" fill="#557086"/>
<path d="M55.851 79.0672L54.2521 80.8632C54.1826 80.9428 54.1826 81.0572 54.2521 81.1368L55.8461 82.9328C55.9255 83.0224 56.0695 83.0224 56.1539 82.9328L57.7479 81.1368C57.8174 81.0572 57.8174 80.9428 57.7479 80.8632L56.1539 79.0672C56.0745 78.9776 55.9305 78.9776 55.8461 79.0672H55.851Z" fill="white"/>
<path d="M56.6604 79.6343L57.1421 80.1766L55.568 82.6144L54.704 81.6393L56.6604 79.6343Z" fill="#8EA3B2"/>
<rect x="13" y="62" width="37" height="13" rx="6.5" fill="#2F4553"/>
<path d="M26.0302 70.072C24.8602 70.072 24.3142 69.058 24.3142 68.002C24.3142 66.946 24.8602 65.938 26.0302 65.938C27.2002 65.938 27.7462 66.946 27.7462 68.002C27.7462 69.058 27.2002 70.072 26.0302 70.072ZM26.0302 69.16C26.5102 69.16 26.7022 68.71 26.7022 68.002C26.7022 67.294 26.5102 66.85 26.0302 66.85C25.5502 66.85 25.3582 67.294 25.3582 68.002C25.3582 68.71 25.5502 69.16 26.0302 69.16ZM28.6185 70.072C28.3125 70.072 28.0545 69.814 28.0545 69.508C28.0545 69.202 28.3125 68.944 28.6185 68.944C28.9245 68.944 29.1825 69.202 29.1825 69.508C29.1825 69.814 28.9245 70.072 28.6185 70.072ZM31.2158 70.072C30.0458 70.072 29.4998 69.058 29.4998 68.002C29.4998 66.946 30.0458 65.938 31.2158 65.938C32.3858 65.938 32.9318 66.946 32.9318 68.002C32.9318 69.058 32.3858 70.072 31.2158 70.072ZM31.2158 69.16C31.6958 69.16 31.8878 68.71 31.8878 68.002C31.8878 67.294 31.6958 66.85 31.2158 66.85C30.7358 66.85 30.5438 67.294 30.5438 68.002C30.5438 68.71 30.7358 69.16 31.2158 69.16ZM35.4099 70H34.3779V67.318L33.7059 67.996L33.1179 67.378L34.5159 65.998H35.4099V70ZM38.8795 70H37.8655L37.3075 69.124L36.7435 70H35.7355L36.7255 68.512L35.7955 67.102H36.8095L37.3075 67.888L37.7995 67.102H38.8135L37.8895 68.512L38.8795 70Z" fill="white"/>
<path d="M6.945 11.06C5.945 11.06 5.17 10.36 5.17 9.335C5.17 8.31 5.945 7.61 6.945 7.61C7.68 7.61 8.105 8.01 8.34 8.425L7.73 8.725C7.59 8.455 7.29 8.24 6.945 8.24C6.34 8.24 5.9 8.705 5.9 9.335C5.9 9.965 6.34 10.43 6.945 10.43C7.29 10.43 7.59 10.22 7.73 9.945L8.34 10.24C8.1 10.655 7.68 11.06 6.945 11.06ZM9.86762 11.06C9.07262 11.06 8.59262 10.48 8.59262 9.79C8.59262 9.105 9.07262 8.525 9.86762 8.525C10.6676 8.525 11.1476 9.105 11.1476 9.79C11.1476 10.48 10.6676 11.06 9.86762 11.06ZM9.86762 10.495C10.2626 10.495 10.4876 10.17 10.4876 9.79C10.4876 9.415 10.2626 9.09 9.86762 9.09C9.47262 9.09 9.25262 9.415 9.25262 9.79C9.25262 10.17 9.47262 10.495 9.86762 10.495ZM15.2537 11H14.6137V9.475C14.6137 9.25 14.5137 9.09 14.2537 9.09C14.0287 9.09 13.8437 9.24 13.7537 9.37V11H13.1137V9.475C13.1137 9.25 13.0137 9.09 12.7537 9.09C12.5337 9.09 12.3487 9.24 12.2537 9.375V11H11.6187V8.585H12.2537V8.9C12.3537 8.755 12.6737 8.525 13.0437 8.525C13.3987 8.525 13.6237 8.69 13.7137 8.965C13.8537 8.745 14.1737 8.525 14.5437 8.525C14.9887 8.525 15.2537 8.76 15.2537 9.255V11ZM19.5115 11H18.8715V9.475C18.8715 9.25 18.7715 9.09 18.5115 9.09C18.2865 9.09 18.1015 9.24 18.0115 9.37V11H17.3715V9.475C17.3715 9.25 17.2715 9.09 17.0115 9.09C16.7915 9.09 16.6065 9.24 16.5115 9.375V11H15.8765V8.585H16.5115V8.9C16.6115 8.755 16.9315 8.525 17.3015 8.525C17.6565 8.525 17.8815 8.69 17.9715 8.965C18.1115 8.745 18.4315 8.525 18.8015 8.525C19.2465 8.525 19.5115 8.76 19.5115 9.255V11ZM21.2543 11.06C20.4593 11.06 19.9793 10.48 19.9793 9.79C19.9793 9.105 20.4593 8.525 21.2543 8.525C22.0543 8.525 22.5343 9.105 22.5343 9.79C22.5343 10.48 22.0543 11.06 21.2543 11.06ZM21.2543 10.495C21.6493 10.495 21.8743 10.17 21.8743 9.79C21.8743 9.415 21.6493 9.09 21.2543 9.09C20.8593 9.09 20.6393 9.415 20.6393 9.79C20.6393 10.17 20.8593 10.495 21.2543 10.495ZM25.2704 11H24.6354V9.54C24.6354 9.205 24.4604 9.09 24.1904 9.09C23.9404 9.09 23.7454 9.23 23.6404 9.375V11H23.0054V8.585H23.6404V8.9C23.7954 8.715 24.0904 8.525 24.4854 8.525C25.0154 8.525 25.2704 8.825 25.2704 9.295V11Z" fill="#05080A"/>
<path d="M46.3577 11H45.9057L44.5137 9.096V11H44.0457V8.332H44.5257L45.8897 10.184V8.332H46.3577V11ZM47.7846 11.048C47.1726 11.048 46.7926 10.588 46.7926 10.032C46.7926 9.48 47.1726 9.02 47.7846 9.02C48.4046 9.02 48.7806 9.48 48.7806 10.032C48.7806 10.588 48.4046 11.048 47.7846 11.048ZM47.7846 10.676C48.1446 10.676 48.3446 10.376 48.3446 10.032C48.3446 9.692 48.1446 9.392 47.7846 9.392C47.4286 9.392 47.2286 9.692 47.2286 10.032C47.2286 10.376 47.4286 10.676 47.7846 10.676ZM49.4021 11.044C49.2501 11.044 49.1221 10.916 49.1221 10.764C49.1221 10.612 49.2501 10.484 49.4021 10.484C49.5541 10.484 49.6821 10.612 49.6821 10.764C49.6821 10.916 49.5541 11.044 49.4021 11.044ZM53.0539 11H51.1219V10.632C52.1579 9.848 52.5619 9.5 52.5619 9.116C52.5619 8.836 52.3219 8.708 52.0779 8.708C51.7659 8.708 51.5259 8.836 51.3579 9.028L51.0859 8.72C51.3219 8.436 51.6979 8.292 52.0699 8.292C52.5859 8.292 53.0379 8.584 53.0379 9.116C53.0379 9.608 52.5859 10.048 51.8699 10.588H53.0539V11ZM54.4048 11.048C53.9288 11.048 53.5768 10.856 53.3968 10.616L53.6488 10.308C53.8208 10.508 54.1048 10.632 54.3888 10.632C54.7408 10.632 54.9448 10.472 54.9448 10.224C54.9448 9.96 54.7328 9.848 54.3528 9.848C54.2408 9.848 54.0848 9.848 54.0448 9.852V9.432C54.0928 9.436 54.2488 9.436 54.3528 9.436C54.6648 9.436 54.9008 9.328 54.9008 9.084C54.9008 8.836 54.6608 8.708 54.3608 8.708C54.0888 8.708 53.8648 8.812 53.6728 9.004L53.4328 8.712C53.6368 8.472 53.9608 8.292 54.4048 8.292C54.9808 8.292 55.3688 8.564 55.3688 9.012C55.3688 9.368 55.0648 9.576 54.7888 9.624C55.0488 9.648 55.4088 9.86 55.4088 10.272C55.4088 10.724 55.0208 11.048 54.4048 11.048ZM56.6577 11.044C56.3297 11.044 56.0737 10.928 55.8937 10.748L56.1097 10.396C56.2497 10.54 56.4057 10.628 56.6577 10.628C57.1417 10.628 57.3617 10.188 57.3617 9.752C57.3617 9.724 57.3617 9.7 57.3617 9.672C57.2377 9.852 56.9577 10.048 56.6457 10.048C56.1657 10.048 55.7497 9.752 55.7497 9.184C55.7497 8.692 56.1377 8.288 56.7337 8.288C57.5177 8.288 57.8337 8.924 57.8337 9.668C57.8337 10.436 57.4297 11.044 56.6577 11.044ZM56.7697 9.644C56.9977 9.644 57.2217 9.524 57.3537 9.332C57.3297 9.044 57.1697 8.704 56.7577 8.704C56.4097 8.704 56.2257 8.956 56.2257 9.168C56.2257 9.496 56.4817 9.644 56.7697 9.644Z" fill="white"/>
<defs>
<clipPath id="clip0_26835_29402">
<rect width="63" height="88" fill="white"/>
</clipPath>
</defs>
</svg>
