<svg width="63" height="88" viewBox="0 0 63 88" fill="none" xmlns="http://www.w3.org/2000/svg">
<rect width="63" height="88" rx="4" fill="#55DFFF"/>
<path d="M36.7008 13.5133L44.7992 3.48665C45.5586 2.54645 46.7024 2 47.911 2H58C59.6569 2 61 3.34314 61 5V83C61 84.6569 59.6569 86 58 86H5C3.34315 86 2 84.6569 2 83V18C2 16.3431 3.34315 15 5 15H33.589C34.7976 15 35.9414 14.4536 36.7008 13.5133Z" fill="#213743"/>
<rect x="5" y="18" width="53" height="40" rx="1" fill="#2F4553"/>
<g clip-path="url(#clip0_26835_29403)">
<path d="M22.5327 26.0522C22.8784 25.5853 23.5242 25.4885 24.0116 25.7998C24.6323 26.1995 25.7863 27.819 26.1945 27.4951C26.6236 27.1586 26.1737 24.929 25.9029 24.1886C25.703 23.646 25.9321 23.036 26.4487 22.7794C26.5736 22.7163 26.7028 22.6574 26.8319 22.5985C32.3019 20.1628 38.6925 22.6658 41.1046 28.1892C43.5167 33.7127 39.4048 36.426 33.9349 38.8617C28.465 41.2974 23.7075 42.53 21.2954 37.0065C19.6623 33.2668 20.2747 29.1021 22.5368 26.0438L22.5327 26.0522Z" fill="#55DFFF"/>
<path d="M38.6069 27.7453C39.0323 27.1586 38.0559 25.706 36.426 24.501C34.796 23.2959 33.1298 22.7947 32.7044 23.3815C32.279 23.9682 33.2554 25.4207 34.8853 26.6258C36.5153 27.8308 38.1815 28.3321 38.6069 27.7453Z" fill="white"/>
<path d="M32.4604 29.2858C34.2499 28.4892 35.2634 26.8422 34.7242 25.607C34.1849 24.3719 32.2971 24.0164 30.5076 24.813C28.7181 25.6096 27.7046 27.2567 28.2438 28.4918C28.783 29.727 30.6708 30.0825 32.4604 29.2858Z" fill="#1A2C38"/>
<path d="M31.8205 28.0395C32.9636 27.5306 33.6632 26.5976 33.3829 25.9556C33.1026 25.3136 31.9486 25.2057 30.8054 25.7146C29.6623 26.2234 28.9628 27.1564 29.243 27.7985C29.5233 28.4405 30.6773 28.5484 31.8205 28.0395Z" fill="#557086"/>
<path d="M33.4513 38.1747C37.6872 36.2891 40.6764 33.7419 40.1279 32.4855C39.5794 31.2291 35.7009 31.7392 31.465 33.6248C27.2291 35.5105 24.2399 38.0576 24.7884 39.314C25.3369 40.5704 29.2155 40.0603 33.4513 38.1747Z" fill="#1A2C38"/>
<path d="M42.7335 42.0716C40.8796 40.9526 38.4467 40.33 35.8596 40.2837C35.593 38.1341 35.2222 36.7038 35.1847 36.565C34.9972 35.8583 34.2807 35.4418 33.5808 35.6311C32.8809 35.8204 32.4685 36.544 32.6518 37.2507C32.6601 37.2801 32.9809 38.5253 33.2267 40.4394C30.3397 40.8264 27.6776 41.916 25.8321 43.4851C25.1655 44.0488 25.0822 45.05 25.6405 45.723C26.1987 46.3961 27.1902 46.4803 27.8568 45.9166C29.2274 44.7555 31.2479 43.931 33.4933 43.6113C33.5225 44.4652 33.5225 45.3739 33.4725 46.3078C31.427 46.3583 29.494 46.8799 28.0401 47.7886C27.4235 48.1714 27.236 48.9875 27.6151 49.6101C27.9942 50.2327 28.8024 50.422 29.419 50.0392C30.4105 49.4208 31.7436 49.0506 33.1934 48.9664C33.0434 49.8961 32.8351 50.8342 32.5477 51.7555C32.331 52.4538 32.7143 53.1942 33.4058 53.4129C33.5766 53.4676 33.7474 53.4845 33.9141 53.4676C34.4265 53.4214 34.8848 53.0722 35.0472 52.5464C35.3972 51.4148 35.6471 50.2705 35.8221 49.1389C37.2219 49.4039 38.4675 49.934 39.3507 50.6618C39.6256 50.8889 39.9672 50.9857 40.2964 50.9562C40.6255 50.9268 40.9629 50.7627 41.1962 50.4767C41.6545 49.9087 41.5711 49.0758 41.0087 48.6173C39.7506 47.5782 38.0134 46.842 36.0971 46.5097C36.1554 45.4538 36.1595 44.4358 36.1262 43.4767C38.0467 43.5482 39.8089 44.0067 41.1296 44.806C41.4253 44.9869 41.7544 45.0542 42.0752 45.0247C42.5585 44.9827 43.0167 44.7134 43.2875 44.2591C43.7333 43.5061 43.4917 42.5301 42.746 42.08L42.7335 42.0716Z" fill="#557086"/>
<path d="M18.5 46.2445V50.5101C18.5 53.1603 20.6455 55.3268 23.27 55.3268H27.286C26.1945 50.8509 24.0199 47.3593 20.4455 45.1381C19.5956 44.6081 18.4958 45.2391 18.4958 46.2487L18.5 46.2445Z" fill="#55DFFF"/>
<path d="M35.7638 46.2445V50.5101C35.7638 53.1603 33.6183 55.3268 30.9937 55.3268H26.9778C28.0692 50.8509 30.2439 47.3593 33.8183 45.1381C34.6681 44.6081 35.768 45.2391 35.768 46.2487L35.7638 46.2445Z" fill="#55DFFF"/>
<path d="M22.3139 53.7901C22.8844 53.498 22.8778 52.3273 22.2992 51.1752C21.7207 50.0231 20.7892 49.3259 20.2187 49.618C19.6482 49.9102 19.6548 51.0809 20.2334 52.233C20.812 53.3851 21.7435 54.0823 22.3139 53.7901Z" fill="white"/>
</g>
<path fill-rule="evenodd" clip-rule="evenodd" d="M6.49771 79C6.98969 79 7.48602 79.213 7.49037 79.6913C7.49037 80.1043 7.24656 80.2696 6.99839 80.2696C6.75023 80.2696 6.73281 80.1435 6.73281 80.1435C6.73281 80.1435 7.02452 79.9261 7.02452 79.7174C7.02452 79.6087 6.94179 79.313 6.489 79.3174C5.8577 79.3174 5.5181 79.6174 5.5181 80.1522C5.5181 80.7652 7.35105 80.9739 7.3554 81.7652C7.3554 82.613 6.47594 82.9957 5.69225 83C5.283 83 5.01306 82.7609 5.00871 82.3783C5.00871 81.9261 5.22204 81.4652 5.75756 81.4652C5.88382 81.4565 5.98831 81.5522 5.99702 81.6783C5.99702 81.6783 5.99702 81.6826 5.99702 81.687C5.99702 81.687 5.45715 81.8391 5.4615 82.3783C5.4615 82.4783 5.56599 82.6609 5.81851 82.6565C6.07103 82.6522 6.82424 82.4739 6.81989 81.8087C6.81989 81.1913 5.00435 81.1087 5 80.1478C5 79.0652 6.08845 79.0087 6.49771 79.0087V79ZM10.747 79.6C10.8123 79.5696 11.2129 79.4913 11.1955 79.813C11.1824 80.1348 10.9386 80.6913 10.9037 80.9348C11.2303 80.7696 11.6918 80.2087 11.6918 80.2087C11.6918 80.2087 12.0183 80.2522 11.9182 80.4522C11.818 80.6522 11.1519 81.1435 11.1519 81.1435C11.1519 81.1435 11.3043 82.5696 12.1707 82.5696C12.6453 82.5696 12.8499 82.3609 12.937 82.287C12.9587 82.2696 12.9762 82.2652 12.9849 82.2783C13.0197 82.387 12.9936 82.5043 12.9152 82.5913C12.8194 82.6957 12.5974 82.8217 12.1533 82.8261C11.3653 82.8261 10.9255 82.1957 10.8123 81.2609C10.7252 81.5348 10.7339 81.9826 10.7209 82.2C10.6948 82.2435 10.2507 82.4174 10.2158 82.1174C10.2158 82.0913 10.2158 82.0696 10.2158 82.0435C10.1331 82.1609 10.0199 82.2826 9.91108 82.2826C9.71951 82.2826 9.63679 82.1217 9.60196 82.0391C9.57584 82.0696 9.3625 82.287 9.08821 82.287C8.92277 82.2913 8.77474 82.1957 8.70943 82.0435C8.57011 82.1435 8.32195 82.2913 8.03895 82.2913C7.73418 82.2913 7.66017 82.1087 7.66017 81.9565C7.66017 81.713 7.84303 80.987 7.84303 80.987C7.84303 80.987 7.48602 81.1304 7.36411 81.1348C7.19431 81.1348 7.11159 80.8217 7.11159 80.813C7.11159 80.8087 7.11159 80.8 7.1203 80.8C7.22044 80.7609 7.94317 80.513 7.94317 80.513C7.94317 80.513 8.07813 79.9826 8.09555 79.913C8.11296 79.8435 8.2131 79.7 8.33065 79.6565C8.41773 79.6217 8.50916 79.6 8.60059 79.5913C8.63107 79.5913 8.65284 79.6 8.65284 79.6174C8.65284 79.6348 8.47433 80.4087 8.47433 80.4087C8.47433 80.4087 8.84876 80.3217 8.98808 80.3217C9.09692 80.3217 9.15352 80.387 9.09257 80.4696C9.03162 80.5522 8.96196 80.6478 8.92712 80.6913C8.88794 80.7348 8.86182 80.7435 8.77039 80.7609C8.64413 80.787 8.36113 80.8565 8.36113 80.8565C8.36113 80.8565 8.13473 81.6783 8.13909 81.8174C8.13909 81.8957 8.16521 81.987 8.26099 81.987C8.35678 81.987 8.53964 81.8739 8.67025 81.7913C8.69202 81.1522 9.18835 80.7261 9.57584 80.7261C9.7021 80.7261 9.65421 80.8478 9.79788 80.8478H9.88931C9.94591 80.8478 10.0069 80.8522 10.0069 80.9957C10.0069 81.1957 9.89367 81.5261 9.89367 81.7348C9.89367 81.8826 9.91544 81.987 9.97204 81.987C10.0678 81.987 10.1767 81.8478 10.255 81.7261C10.3813 81.0304 10.734 79.7609 10.734 79.6174L10.747 79.6ZM12.5016 80.7C12.7672 80.6783 12.9326 80.8217 12.9631 80.9C12.9936 80.9783 12.9892 81.1609 12.9152 81.2913C12.6845 81.7044 12.1097 81.6304 12.1097 81.6304C12.1097 81.6304 12.0444 81.9565 12.3405 81.9565C12.593 81.9565 12.7062 81.8304 12.8151 81.7261C12.8586 81.7261 12.9936 81.8652 12.9326 81.9609C12.8847 82.0348 12.6191 82.2565 12.2795 82.2609C11.7397 82.2609 11.6047 81.8 11.6744 81.4696C11.7658 81.0609 12.1751 80.7217 12.5016 80.6957V80.7ZM9.6455 80.987C9.32332 80.987 8.82699 81.9696 9.20577 81.9652C9.61938 81.9652 9.6455 81.1826 9.6455 81.0043V80.987ZM12.6409 80.8913C12.4232 80.9 12.1751 81.3174 12.1533 81.5C12.4798 81.513 12.654 81.1957 12.6757 81.0696C12.6888 80.9739 12.6932 80.887 12.6409 80.887V80.8913Z" fill="#557086"/>
<path d="M55.851 79.0672L54.2522 80.8632C54.1826 80.9428 54.1826 81.0572 54.2522 81.1368L55.8461 82.9328C55.9255 83.0224 56.0695 83.0224 56.1539 82.9328L57.7479 81.1368C57.8174 81.0572 57.8174 80.9428 57.7479 80.8632L56.1539 79.0672C56.0745 78.9776 55.9305 78.9776 55.8461 79.0672H55.851Z" fill="white"/>
<path d="M56.6604 79.6343L57.1421 80.1766L55.568 82.6144L54.704 81.6393L56.6604 79.6343Z" fill="#8EA3B2"/>
<rect x="13" y="62" width="37" height="13" rx="6.5" fill="#2F4553"/>
<path d="M26.0302 70.072C24.8602 70.072 24.3142 69.058 24.3142 68.002C24.3142 66.946 24.8602 65.938 26.0302 65.938C27.2002 65.938 27.7462 66.946 27.7462 68.002C27.7462 69.058 27.2002 70.072 26.0302 70.072ZM26.0302 69.16C26.5102 69.16 26.7022 68.71 26.7022 68.002C26.7022 67.294 26.5102 66.85 26.0302 66.85C25.5502 66.85 25.3582 67.294 25.3582 68.002C25.3582 68.71 25.5502 69.16 26.0302 69.16ZM28.6185 70.072C28.3125 70.072 28.0545 69.814 28.0545 69.508C28.0545 69.202 28.3125 68.944 28.6185 68.944C28.9245 68.944 29.1825 69.202 29.1825 69.508C29.1825 69.814 28.9245 70.072 28.6185 70.072ZM31.2158 70.072C30.0458 70.072 29.4998 69.058 29.4998 68.002C29.4998 66.946 30.0458 65.938 31.2158 65.938C32.3858 65.938 32.9318 66.946 32.9318 68.002C32.9318 69.058 32.3858 70.072 31.2158 70.072ZM31.2158 69.16C31.6958 69.16 31.8878 68.71 31.8878 68.002C31.8878 67.294 31.6958 66.85 31.2158 66.85C30.7358 66.85 30.5438 67.294 30.5438 68.002C30.5438 68.71 30.7358 69.16 31.2158 69.16ZM35.4099 70H34.3779V67.318L33.7059 67.996L33.1179 67.378L34.5159 65.998H35.4099V70ZM38.8795 70H37.8655L37.3075 69.124L36.7435 70H35.7355L36.7255 68.512L35.7955 67.102H36.8095L37.3075 67.888L37.7995 67.102H38.8135L37.8895 68.512L38.8795 70Z" fill="white"/>
<path d="M6.945 11.06C5.945 11.06 5.17 10.36 5.17 9.335C5.17 8.31 5.945 7.61 6.945 7.61C7.68 7.61 8.105 8.01 8.34 8.425L7.73 8.725C7.59 8.455 7.29 8.24 6.945 8.24C6.34 8.24 5.9 8.705 5.9 9.335C5.9 9.965 6.34 10.43 6.945 10.43C7.29 10.43 7.59 10.22 7.73 9.945L8.34 10.24C8.1 10.655 7.68 11.06 6.945 11.06ZM9.86762 11.06C9.07262 11.06 8.59262 10.48 8.59262 9.79C8.59262 9.105 9.07262 8.525 9.86762 8.525C10.6676 8.525 11.1476 9.105 11.1476 9.79C11.1476 10.48 10.6676 11.06 9.86762 11.06ZM9.86762 10.495C10.2626 10.495 10.4876 10.17 10.4876 9.79C10.4876 9.415 10.2626 9.09 9.86762 9.09C9.47262 9.09 9.25262 9.415 9.25262 9.79C9.25262 10.17 9.47262 10.495 9.86762 10.495ZM15.2537 11H14.6137V9.475C14.6137 9.25 14.5137 9.09 14.2537 9.09C14.0287 9.09 13.8437 9.24 13.7537 9.37V11H13.1137V9.475C13.1137 9.25 13.0137 9.09 12.7537 9.09C12.5337 9.09 12.3487 9.24 12.2537 9.375V11H11.6187V8.585H12.2537V8.9C12.3537 8.755 12.6737 8.525 13.0437 8.525C13.3987 8.525 13.6237 8.69 13.7137 8.965C13.8537 8.745 14.1737 8.525 14.5437 8.525C14.9887 8.525 15.2537 8.76 15.2537 9.255V11ZM19.5115 11H18.8715V9.475C18.8715 9.25 18.7715 9.09 18.5115 9.09C18.2865 9.09 18.1015 9.24 18.0115 9.37V11H17.3715V9.475C17.3715 9.25 17.2715 9.09 17.0115 9.09C16.7915 9.09 16.6065 9.24 16.5115 9.375V11H15.8765V8.585H16.5115V8.9C16.6115 8.755 16.9315 8.525 17.3015 8.525C17.6565 8.525 17.8815 8.69 17.9715 8.965C18.1115 8.745 18.4315 8.525 18.8015 8.525C19.2465 8.525 19.5115 8.76 19.5115 9.255V11ZM21.2543 11.06C20.4593 11.06 19.9793 10.48 19.9793 9.79C19.9793 9.105 20.4593 8.525 21.2543 8.525C22.0543 8.525 22.5343 9.105 22.5343 9.79C22.5343 10.48 22.0543 11.06 21.2543 11.06ZM21.2543 10.495C21.6493 10.495 21.8743 10.17 21.8743 9.79C21.8743 9.415 21.6493 9.09 21.2543 9.09C20.8593 9.09 20.6393 9.415 20.6393 9.79C20.6393 10.17 20.8593 10.495 21.2543 10.495ZM25.2704 11H24.6354V9.54C24.6354 9.205 24.4604 9.09 24.1904 9.09C23.9404 9.09 23.7454 9.23 23.6404 9.375V11H23.0054V8.585H23.6404V8.9C23.7954 8.715 24.0904 8.525 24.4854 8.525C25.0154 8.525 25.2704 8.825 25.2704 9.295V11Z" fill="#05080A"/>
<path d="M46.2718 11H45.8198L44.4278 9.096V11H43.9598V8.332H44.4398L45.8038 10.184V8.332H46.2718V11ZM47.6987 11.048C47.0867 11.048 46.7067 10.588 46.7067 10.032C46.7067 9.48 47.0867 9.02 47.6987 9.02C48.3187 9.02 48.6947 9.48 48.6947 10.032C48.6947 10.588 48.3187 11.048 47.6987 11.048ZM47.6987 10.676C48.0587 10.676 48.2587 10.376 48.2587 10.032C48.2587 9.692 48.0587 9.392 47.6987 9.392C47.3427 9.392 47.1427 9.692 47.1427 10.032C47.1427 10.376 47.3427 10.676 47.6987 10.676ZM49.3161 11.044C49.1641 11.044 49.0361 10.916 49.0361 10.764C49.0361 10.612 49.1641 10.484 49.3161 10.484C49.4681 10.484 49.5961 10.612 49.5961 10.764C49.5961 10.916 49.4681 11.044 49.3161 11.044ZM52.9679 11H51.0359V10.632C52.0719 9.848 52.4759 9.5 52.4759 9.116C52.4759 8.836 52.2359 8.708 51.9919 8.708C51.6799 8.708 51.4399 8.836 51.2719 9.028L50.9999 8.72C51.2359 8.436 51.6119 8.292 51.9839 8.292C52.4999 8.292 52.9519 8.584 52.9519 9.116C52.9519 9.608 52.4999 10.048 51.7839 10.588H52.9679V11ZM55.0668 11H54.5988V10.396H53.3268V10.02L54.4228 8.332H55.0668V9.984H55.4228V10.396H55.0668V11ZM54.5988 9.984V8.752L53.7868 9.984H54.5988ZM56.7672 11.048C56.0192 11.048 55.6992 10.34 55.6992 9.668C55.6992 8.996 56.0192 8.292 56.7672 8.292C57.5152 8.292 57.8352 8.996 57.8352 9.668C57.8352 10.34 57.5152 11.048 56.7672 11.048ZM56.7672 10.632C57.2032 10.632 57.3592 10.176 57.3592 9.668C57.3592 9.16 57.2032 8.708 56.7672 8.708C56.3312 8.708 56.1752 9.16 56.1752 9.668C56.1752 10.176 56.3312 10.632 56.7672 10.632Z" fill="white"/>
<defs>
<clipPath id="clip0_26835_29403">
<rect width="25" height="33.6538" fill="white" transform="translate(18.5 21.6731)"/>
</clipPath>
</defs>
</svg>
