<?xml version="1.0" encoding="UTF-8"?>
<svg width="130px" height="130px" viewBox="0 0 130 130" version="1.1" xmlns="http://www.w3.org/2000/svg" xmlns:xlink="http://www.w3.org/1999/xlink">
    <title>rune2</title>
    <g id="rune2" stroke="none" stroke-width="1" fill="none" fill-rule="evenodd">
        <g id="Group" transform="translate(-0.000000, -0.000000)" fill-rule="nonzero">
            <g id="Layer_1" transform="translate(38.520000, 32.560000)">
                <polygon id="Path" fill="#7345E0" points="17.25 64.88 47.94 54.19 52.96 33.37 29.87 0 19.01 3.73 7.10542736e-15 41.71"></polygon>
                <polygon id="Path" fill="#5F31CC" points="17.25 64.88 19.19 59.29 20.71 53.25 44.66 49.58 46.49 51.51 47.94 54.19"></polygon>
                <polygon id="Path" fill="#BA9EFF" points="19.01 3.73 20.8 7.86000001 27.11 7.21000001 29.87 0"></polygon>
                <polygon id="Path" fill="#885BF4" points="19.19 59.29 20.89 56.29 43.17 51.11 46.49 51.51 46.49 36.04 28.08 3.24 27.11 7.21000001 20.8 7.86000001 16.91 16.36 20.96 18.95 15.94 18.63 6.80000001 37.99"></polygon>
                <path d="M24.48,28.5 L20.08,41.98 L15.91,42.08 L20.57,28.5 L24.48,28.5 Z M24.84,37.14 L31.67,37.14 L32.48,35.02 L34.17,42.19 L38.48,42.08 L34.7,28.7 L31.13,28.7 L29.22,33.7 L25.94,33.7 L24.84,37.14 Z M27.63,20.34 L24.68,23.64 L27.77,26.75 L30.48,23.44 L27.63,20.34 Z" id="Shape" fill="#5F31CC"></path>
                <polygon id="Path" fill="#A37DFF" points="29.87 0 28.08 3.24 46.49 36.04 52.96 33.37"></polygon>
            </g>
        </g>
    </g>
</svg>