<?xml version="1.0" encoding="UTF-8"?>
<svg width="130px" height="130px" viewBox="0 0 130 130" version="1.1" xmlns="http://www.w3.org/2000/svg" xmlns:xlink="http://www.w3.org/1999/xlink">
    <title>lantern</title>
    <g id="lantern" stroke="none" stroke-width="1" fill="none" fill-rule="evenodd">
        <g id="Group" transform="translate(-0.000000, -0.000000)" fill-rule="nonzero">
            <g id="Layer_1" transform="translate(35.909410, 24.370000)">
                <path d="M56.9607767,44.63 C56.9767737,55.6107309 50.3745958,65.5192294 40.2343645,69.7325919 C30.0941333,73.9459544 18.4141807,71.633855 10.643899,63.8750254 C2.87361737,56.1161959 0.544293379,44.4396662 4.7426952,34.2932316 C8.94109701,24.146797 18.839847,17.5296356 29.8205898,17.5296356 C37.0230254,17.4926038 43.9418606,20.3344762 49.0385747,25.4236786 C54.1352889,30.5128811 56.987363,37.4275171 56.9607767,44.63 Z" id="Path" fill="#AE917B"></path>
                <circle id="Oval" fill="#F9F2F4" cx="30.8905898" cy="44.66" r="24.51"></circle>
                <circle id="Oval" fill="#F0F7FF" cx="30.8905898" cy="44.66" r="24.51"></circle>
                <path d="M42.0305898,24.98 C42.0305898,24.98 46.1105898,26.77 46.8205899,29.78 C46.7818856,28.534018 46.2872877,27.3455596 45.4305898,26.44 C44.4994338,25.5759636 43.2983354,25.0601978 42.0305898,24.98 L42.0305898,24.98 Z" id="Path" fill="#C6E0C7"></path>
                <path d="M46.0905898,63.11 C47.0705873,61.9245832 47.5733377,60.416332 47.5005899,58.88 C47.6697495,60.0915293 47.6018235,61.3243878 47.3005899,62.51 L46.0905898,63.11 Z" id="Path" fill="#C6E0C7"></path>
                <path d="M33.9205898,23.53 C33.4162,24.8576873 32.692846,26.0914453 31.7805898,27.18 C30.7227558,28.2214766 30.0885624,29.6181271 30.0005898,31.1 C30.0005898,31.95 29.0005898,30.69 29.7405898,29.45 C30.4805898,28.21 28.3605898,28.31 27.5905898,28.45 C26.8205898,28.59 26.9605898,27.98 28.2805898,27.86 C29.6005898,27.74 31.4605898,27.86 31.5405898,24.24 C31.6105898,21.56 33.9205898,23.53 33.9205898,23.53 Z" id="Path" fill="#C6E0C7"></path>
                <path d="M32.0905898,56.4 C30.3522913,56.8083365 28.5257576,56.592409 26.9305898,55.79 C24.1005898,54.31 18.4905898,57.08 18.4905898,57.08 C18.4905898,57.08 19.4905898,60.53 22.2005898,58.57 C23.2944838,57.5932595 24.7380375,57.1024513 26.2005898,57.21 C26.550347,57.5890404 26.9718126,57.8949428 27.4405898,58.11 C29.0705898,58.82 30.2905898,58.76 30.3005898,58.51 C30.3105898,58.26 29.9905898,58.43 29.4705898,58.27 C28.9804908,58.1251508 28.5539549,57.8184679 28.2605898,57.4 L28.2605898,57.4 C28.5205898,57.4 28.8005898,57.42 29.1005898,57.46 C32.3505898,57.63 33.3005898,56.06 32.0905898,56.4 Z" id="Path" fill="#C6E0C7"></path>
                <path d="M23.1905898,39.11 C22.3939015,40.8284207 20.7771978,42.0230479 18.9005898,42.28 C16.509675,42.7279725 14.3591527,44.0197053 12.8405898,45.92 L14.9005898,50.08 C16.6005898,44.72 19.2405898,43.46 24.4005898,41.69 C25.6705898,41.26 26.1605898,40.69 25.6505898,40.82 C25.1405898,40.95 23.5705898,41.04 23.7305898,40.4 C23.8905898,39.76 24.1805898,38.4 24.9605898,37.96 C25.7405898,37.52 25.8105898,37.28 25.8105898,37.28 C24.7047012,37.4605555 23.7407679,38.1338371 23.1905898,39.11 L23.1905898,39.11 Z" id="Path" fill="#C6E0C7"></path>
                <path d="M51.5205899,31.44 C51.5205899,31.44 43.0905898,20.63 29.2005898,25.73 C17.0905898,30.22 13.6905898,45.48 13.6905898,45.48 C13.6905898,45.48 20.5005898,62.48 36.8405898,64.5402022 C36.8405898,64.5402022 16.6305898,64.8 9.16058982,46.67 C9.16058982,46.67 11.0205898,23.06 29.9105898,22.21 C45.4305898,21.5 51.5205899,31.44 51.5205899,31.44 Z" id="Path" fill="#A18065"></path>
                <path d="M10.7305898,45.92 C20.0305898,17.97 40.8405898,18.33 51.5205899,31.44 C49.6605899,24.32 39.2805898,19.38 30.6105898,19.38 C17.0905898,19.38 5.22058982,31.12 5.22058982,44.63 C5.22058982,58.14 17.0905898,70.1700001 30.6105898,70.1700001 C39.6105898,70.1700001 47.7405899,64.32 52.0105899,57.1 C44.3705898,71.9300001 19.3305898,63.11 10.7305898,45.92 Z" id="Path" fill="#AE917B"></path>
                <path d="M50.2505899,62.51 C41.9572006,71.9987054 28.2246994,74.5331718 17.0905898,68.6300001 C18.51765,66.5433207 21.1941217,65.7146917 23.5505898,66.6300001 C38.3705898,72.2800001 50.2505899,62.51 50.2505899,62.51 Z" id="Path" fill="#532703"></path>
                <path d="M47.6805899,56.83 C45.4494574,57.8199335 42.9722032,58.1160891 40.5705898,57.68 C34.9621408,56.4994162 30.605493,52.0758036 29.5105898,46.45 C27.8605898,38.77 32.2505898,31.3 39.3305898,29.77 C46.4105899,28.24 53.4905899,33.24 55.1405899,40.93 C56.6005899,47.72 53.3405899,54.33 47.6805899,56.83 Z" id="Path" fill="#C6E0C7"></path>
                <path d="M47.6805899,56.83 C45.4494574,57.8199335 42.9722032,58.1160891 40.5705898,57.68 C41.8105898,54.95 41.3805898,50.47 41.3805898,50.47 C41.3805898,50.47 46.1305898,49.01 47.1505899,51.47 C47.6934876,53.201308 47.8739039,55.025895 47.6805899,56.83 Z" id="Path" fill="#A9D6AB"></path>
                <path d="M47.6605899,51.33 C47.4929533,51.3794516 47.3226888,51.4195138 47.1505899,51.45 C45.1701143,51.8650404 43.1058955,51.5072902 41.3805898,50.45 C39.1676089,49.0937664 37.6146948,46.8820402 37.0905898,44.34 C36.7233703,42.6576895 36.8096458,40.9080225 37.3405898,39.27 C37.9453866,37.4186736 39.1620489,35.8281962 40.7905898,34.76 C40.8333345,34.7242979 40.880364,34.6940647 40.9305898,34.67 C41.6757551,34.2038685 42.4937412,33.8658578 43.3505898,33.67 C43.4652467,33.6396619 43.5823749,33.6195827 43.7005898,33.61 C48.0905899,32.87 52.4105899,36.01 53.4405899,40.79 C54.4705899,45.57 51.8705899,50.12 47.6605899,51.33 Z" id="Path" fill="#127D16"></path>
                <path d="M44.6805898,36.28 C44.6805898,36.28 44.0105898,41.28 41.3105898,39.63 C40.1118968,38.8762 38.6246139,38.7423446 37.3105898,39.27 C37.9153866,37.4186736 39.1320489,35.8281962 40.7605898,34.76 C42.2057551,34.7878522 43.5944212,35.3263146 44.6805898,36.28 Z" id="Path" fill="#167318"></path>
                <path d="M49.5005899,48.27 C49.1899703,49.4439014 48.5517975,50.5052105 47.6605899,51.33 C47.4929533,51.3794516 47.3226888,51.4195138 47.1505899,51.45 C45.1701143,51.8650404 43.1058955,51.5072902 41.3805898,50.45 C44.3805898,50.45 44.7805898,48.38 44.7805898,48.38 C44.7805898,48.38 50.3605899,44.78 49.5005899,48.27 Z" id="Path" fill="#167318"></path>
                <path d="M36.2605898,50.42 C36.2605898,50.42 37.6705898,55.36 44.5405898,55.42 L44.0105898,53.9 C44.0105898,53.9 39.5405898,53.29 38.2505898,49.72 L36.2605898,50.42 Z" id="Path" fill="#F0F7FF"></path>
                <path d="M51.4105899,46.73 C51.0618706,47.170493 50.6508964,47.5578867 50.1905899,47.88 C49.971981,48.0291959 49.7411605,48.1596597 49.5005899,48.27 C49.0871738,48.4874582 48.6466328,48.6488778 48.1905899,48.75 C47.0453552,48.9940108 45.8523783,48.8715645 44.7805898,48.4 C42.8094993,47.5254344 41.3878994,45.745636 40.9705898,43.63 C40.6750003,42.2930831 40.7935953,40.8978473 41.3105898,39.63 C41.9072329,38.0854386 43.1325044,36.8674388 44.6805898,36.28 C44.8804855,36.1939266 45.0880774,36.1269615 45.3005898,36.08 L45.4505898,36.08 C45.9299196,35.9763579 46.4207701,35.936014 46.9105899,35.96 C49.782023,36.212266 52.1374961,38.3391317 52.6805899,41.17 C53.1138109,43.1200119 52.6475052,45.1614762 51.4105899,46.73 Z" id="Path" fill="#082E0A"></path>
                <path d="M49.5005899,48.27 C49.0871738,48.4874582 48.6466328,48.6488778 48.1905899,48.75 C47.0453552,48.9940108 45.8523783,48.8715645 44.7805898,48.4 C44.4272919,45.2193836 43.2291729,42.1912847 41.3105898,39.63 C41.9072329,38.0854386 43.1325044,36.8674388 44.6805898,36.28 C47.3037341,39.7888637 48.9652033,43.9218543 49.5005899,48.27 Z" id="Path" fill="#052106"></path>
                <path d="M51.4105899,46.73 C51.0618706,47.170493 50.6508964,47.5578867 50.1905899,47.88 C49.6564161,43.5771627 47.9665653,39.4994042 45.3005898,36.08 L45.4505898,36.08 C45.9299196,35.9763579 46.4207701,35.936014 46.9105899,35.96 C49.4185564,39.0404762 50.9814258,42.7809434 51.4105899,46.73 L51.4105899,46.73 Z" id="Path" fill="#052106"></path>
                <path d="M5.30058982,50.63 C5.30058982,50.63 10.1605898,61 20.7405898,65.2300001 L17.7405898,68.7500001 C17.7405898,68.7500001 8.09058982,65.2300001 5.30058982,50.63 Z" id="Path" fill="#532703"></path>
                <path d="M5.31058982,40.47 C5.31058982,40.47 9.54058982,32.41 13.0205898,29.07 L7.34058982,29.96 C6.18022217,33.3523531 5.4970184,36.8895312 5.31058982,40.47 L5.31058982,40.47 Z" id="Path" fill="#532703"></path>
                <path d="M48.2908116,8.19000001 C48.28508,12.6722679 44.6528578,16.3044902 40.1705898,16.31 L21.4505898,16.31 L21.4505898,11.63 L40.1705898,11.63 C42.1035865,11.63 43.6705898,10.0629966 43.6705898,8.13000001 C43.6705898,6.19700338 42.1035865,4.63 40.1705898,4.63 L27.7905898,4.63 C25.0805898,4.63 25.0805898,7.10542736e-15 27.7905898,7.10542736e-15 L40.1705898,7.10542736e-15 C42.3355022,0.00260390186 44.4099679,0.868560345 45.9342091,2.40594158 C47.4584503,3.94332281 48.3065686,6.02514504 48.2908116,8.19000001 Z" id="Path" fill="#AE917B"></path>
                <path d="M44.7205898,8.63000001 C44.7205898,10.7894334 42.9700232,12.54 40.8105898,12.54 L33.8105898,12.54 L34.3605898,11.67 L40.1605898,11.67 C42.0935865,11.67 43.6605898,10.1029966 43.6605898,8.17 C43.6605898,6.23700338 42.0935865,4.67 40.1605898,4.67 L40.8005898,4.67 C41.8472062,4.67 42.8503836,5.08843067 43.586687,5.83224729 C44.3229903,6.57606392 44.7312696,7.58343815 44.7205898,8.63000001 L44.7205898,8.63000001 Z" id="Path" fill="#A18065"></path>
                <path d="M37.2705898,9.93000001 C40.0320136,9.93000001 42.2705898,12.1685763 42.2705898,14.93 L42.2705898,15.41 C42.2705898,15.41 48.2705899,24.84 56.2705899,27.33 C57.0211051,27.5751001 57.6133693,28.1577755 57.8706861,28.9041905 C58.1280028,29.6506055 58.0206258,30.474473 57.5805899,31.13 C56.4330544,32.788646 55.5304506,34.6039574 54.9005899,36.52 C53.8712445,35.0434503 53.3901878,33.2536361 53.5405899,31.46 C53.7560854,30.280383 53.1304291,29.1077953 52.0305899,28.63 C49.0905899,27.38 44.0905898,24.94 41.5705898,22.19 C39.6590111,20.0917288 36.9279444,18.9306603 34.0905898,19.01 L27.9205898,19.19 C27.6612144,19.1973678 27.4032429,19.2308706 27.1505898,19.29 C25.4274445,19.6439095 24.0482992,20.9342024 23.5805898,22.63 C23.3829836,23.3122376 23.3453419,24.030851 23.4705898,24.73 C24.1005898,28.41 24.3405898,33.07 22.2105898,35.41 C21.7444878,35.9493935 21.4856968,36.6371394 21.4805898,37.35 L21.3705898,44.59 L21.3705898,44.63 L16.6205898,37.26 C16.2295916,36.6565604 16.2064686,35.8857932 16.5605898,35.26 C17.5605898,33.48 19.5605898,29.63 19.8305898,25.98 C19.911424,25.1516069 19.3626162,24.3927086 18.5505898,24.21 C17.8777484,24.0263795 17.1631894,24.2968622 16.7805898,24.88 C14.6405898,28 10.7805898,31.99 5.31058982,32.07 C5.31058982,32.07 7.70058982,37.31 5.31058982,40.46 C5.31058982,40.46 3.73058982,35.62 0.520589815,33.37 C0.176633867,33.1427652 -0.0208828034,32.7500565 0.00175615123,32.3384392 C0.0243951059,31.9268218 0.263788075,31.5581432 0.630589815,31.37 C4.63058982,29.1 13.8305898,23.24 17.4205898,15.37 L17.4205898,14.9 C17.4205898,12.1385763 19.6591661,9.90000001 22.4205898,9.90000001 L26.6305898,7.90000001 C28.6291621,6.93023189 30.9620176,6.93023189 32.9605898,7.90000001 L37.2705898,9.93000001 Z" id="Path" fill="#FDD436"></path>
                <path d="M22.4405898,35.1 C21.8380971,35.8220955 21.4870743,36.7207138 21.4405898,37.66 L21.3305898,44.55 L20.7505898,36.28 C20.7309641,35.8568516 20.8503764,35.4389087 21.0905898,35.09 C23.0003962,31.9773175 23.8332021,28.3228106 23.4605898,24.69 C24.0905898,28.24 24.3205898,32.68 22.4405898,35.1 Z" id="Path" fill="#FD9A11"></path>
                <path d="M9.09058982,31.39 C7.28161087,32.0117569 6.1385072,33.7968209 6.33058982,35.7 C6.62852319,37.3595187 6.2699582,39.0698737 5.33058982,40.47 C5.48816734,38.4968749 5.25366158,36.5120725 4.64058982,34.63 C4.38262667,33.8063008 4.47283117,32.9129291 4.89024796,32.1574236 C5.30766475,31.4019182 6.01595993,30.8500416 6.85058982,30.63 C9.85058982,29.79 14.0705898,28.12 16.7805898,24.92 C14.9335978,27.8074014 12.2513612,30.0641076 9.09058982,31.39 Z" id="Path" fill="#FD9A11"></path>
                <path d="M54.8705899,36.54 C53.8412445,35.0634503 53.3601878,33.2736361 53.5105899,31.48 C53.740678,30.3013307 53.1270962,29.1197711 52.0305899,28.63 C49.0905899,27.37 44.0905898,24.94 41.5705898,22.19 C39.6590111,20.0917288 36.9279444,18.9306603 34.0905898,19.01 L27.9205898,19.19 C27.6612144,19.1973678 27.4032429,19.2308706 27.1505898,19.29 C25.4274445,19.6439095 24.0482992,20.9342024 23.5805898,22.63 C23.6046003,22.0165048 23.7053853,21.4084354 23.8805898,20.82 C24.6429815,18.1469251 27.1011317,16.3156032 29.8805898,16.35 L35.0905898,16.35 C36.9577416,16.349316 38.7267617,17.1861139 39.9105898,18.63 C43.5405898,23.12 49.9105899,26.07 53.7105899,27.51 C54.9885574,27.9845846 55.6607174,29.3863919 55.2305899,30.68 C54.6891656,32.5844754 54.5663542,34.5835729 54.8705899,36.54 L54.8705899,36.54 Z" id="Path" fill="#FD9A11"></path>
                <path d="M56.4705899,63.71 C51.3505899,65.2200001 47.0205899,69.6500001 44.5405898,72.7100001 C43.6389578,73.8205975 43.0150486,75.1301212 42.7205898,76.5300001 L42.7205898,76.6600001 C42.7263336,76.6997939 42.7263336,76.7402063 42.7205898,76.7800001 C42.4538957,77.8284767 41.7147441,78.6932841 40.7205898,79.1200001 C34.0207592,81.8994913 26.4904204,81.8994913 19.7905898,79.1200001 C18.8405406,78.7424576 18.1076347,77.9619128 17.7905898,76.9900001 C17.7548342,76.9063951 17.7280185,76.819244 17.7105898,76.7300001 C17.7105898,76.6300001 17.6605898,76.5100001 17.6305898,76.4100001 C17.385751,74.8747962 16.7828096,73.4188297 15.8705898,72.1600001 C13.5313533,69.2300134 10.8066687,66.6297897 7.77058982,64.43 C6.26743258,63.2701185 4.70535029,62.1886769 3.09058982,61.19 C2.28058982,60.68 1.55058982,60.19 0.920589815,59.88 C0.51124311,59.6462641 0.248248251,59.2209972 0.221989032,58.7503512 C0.195729813,58.2797052 0.409784945,57.8278217 0.790589815,57.55 C2.16262043,56.3908673 3.28525754,54.9654584 4.09058982,53.36 C4.5498026,52.5019612 4.94100244,51.6092231 5.26058982,50.69 L5.26058982,50.69 C5.55903494,51.0849836 5.79511458,51.5234173 5.96058982,51.99 L5.96058982,51.99 C6.25880328,52.9052044 6.37100281,53.8708004 6.29058982,54.83 C6.23630371,55.7080238 6.08197143,56.5769817 5.83058982,57.42 C5.6740893,57.9790031 5.48032228,58.5268961 5.25058982,59.06 C6.26680862,59.0767491 7.27603984,59.2314979 8.25058982,59.52 C9.30721169,59.8317955 10.316476,60.2859644 11.2505898,60.87 C13.119201,62.02452 14.7597726,63.5125591 16.0905898,65.2600001 C16.3605898,65.6000001 16.6005898,65.9300001 16.8205898,66.2600001 C17.2124574,66.8609151 17.9546338,67.130056 18.6405898,66.9200001 L18.6405898,66.9200001 C18.9760525,66.8273431 19.2757705,66.635663 19.5005898,66.3700001 C19.7782477,66.0313959 19.9079905,65.5953158 19.8605898,65.1600001 C19.8659941,65.0534018 19.8659941,64.9465983 19.8605898,64.84 C19.6882024,63.1397124 19.0631781,61.516721 18.0505898,60.14 C17.5792476,59.5017871 17.4417135,58.6765827 17.6805898,57.92 C17.8501698,57.3519794 18.2290133,56.86949 18.7405898,56.57 L19.0505898,56.39 L20.3405898,55.63 L21.1205898,55.17 L20.9405898,56.17 L20.9405898,56.27 L20.7105898,57.51 C20.7056685,57.6066041 20.7056685,57.703396 20.7105898,57.8 C20.6809881,58.2883528 20.803248,58.7738993 21.0605898,59.19 C21.1536498,59.3482593 21.2680575,59.4929515 21.4005898,59.62 C21.7713518,60.00048 22.0816194,60.4355292 22.3205898,60.91 C23.1005898,62.47 22.9805898,64.27 23.5105898,66.5000001 C23.515252,66.5599095 23.515252,66.6200906 23.5105898,66.6800001 C23.6476981,67.2095779 23.8421824,67.722614 24.0905898,68.2100001 C24.1770488,68.4012332 24.2843661,68.5823312 24.4105898,68.7500001 C24.6748917,69.0955596 25.0176788,69.3732172 25.4105898,69.5600001 C26.2332706,69.9173917 27.1238883,70.0914205 28.0205898,70.0700001 L28.7805898,70.0700001 L28.7805898,70.0700001 L31.0505898,70.1400001 L34.1405898,70.2300001 C36.7846055,70.295583 39.34118,69.2808974 41.2205898,67.4200001 L41.2205898,67.4200001 L41.5605898,67.0700001 C41.5605898,67.0700001 41.6305898,66.9900001 41.6705898,66.9600001 C41.8757929,66.7381262 42.0963363,66.5309491 42.3305898,66.3400001 C43.3148524,65.5132283 44.4043354,64.8205323 45.5705898,64.28 L46.2505898,63.97 C47.5483168,63.3963227 48.8849832,62.9151228 50.2505899,62.53 L50.2505899,62.53 C50.7905899,62.37 51.2505899,62.24 51.7605899,62.12 C52.8868475,61.8494919 53.6337807,60.7806047 53.5005899,59.63 C53.4052977,59.0606263 53.4052977,58.4793738 53.5005899,57.91 C53.7274808,56.7342818 54.1938126,55.6178085 54.8705899,54.63 L54.9605899,54.91 C55.6450111,56.8347646 56.5869007,58.6579938 57.7605899,60.33 C58.1451845,60.9309144 58.221992,61.6786204 57.9675971,62.3451744 C57.7132022,63.0117285 57.1577559,63.5181304 56.4705899,63.71 L56.4705899,63.71 Z" id="Path" fill="#FDD436"></path>
                <path d="M16.7805898,66.2500001 C13.9400362,62.7936594 9.90211306,60.5337077 5.47058982,59.92 C5.03373656,59.8482868 4.65780871,59.5713446 4.45982711,59.1753814 C4.26184552,58.7794182 4.26584844,58.3125106 4.47058982,57.92 C5.73058982,55.09 5.34058982,50.62 5.34058982,50.62 C6.91058982,52.69 6.41058982,55.62 5.89058982,57.46 C5.78224163,57.8259883 5.83635603,58.2208869 6.03916665,58.5442359 C6.24197727,58.8675849 6.57393432,59.0882153 6.95058982,59.15 C11.5705898,59.93 14.8505898,63.44 16.7805898,66.2500001 Z" id="Path" fill="#FD9A11"></path>
                <path d="M53.7505899,62.53 C49.3462146,64.3500352 45.3736448,67.0756406 42.0905898,70.5300001 C40.8876318,71.8163995 39.2017824,72.541496 37.4405898,72.5300001 L30.1405898,72.5300001 C27.647737,72.5546374 25.3858039,71.0743147 24.4105898,68.7800001 L24.4105898,68.7200001 C25.1005898,69.6600001 26.1505898,69.9800001 27.9605898,70.0400001 L34.1305898,70.2200001 C36.9541168,70.2876256 39.6682311,69.1275607 41.5705898,67.0400001 C44.0305898,64.37 48.8005899,62.82 51.7605899,62.04 C52.8590466,61.7809112 53.6003366,60.7541819 53.5005899,59.63 C53.370558,57.8555608 53.8542317,56.0903284 54.8705899,54.63 C54.5370124,56.3500514 54.6123719,58.1244265 55.0905899,59.81 C55.4187179,60.9271331 54.8362859,62.1093832 53.7505899,62.53 Z" id="Path" fill="#FD9A11"></path>
                <path d="M19.3005898,11.63 C18.0146114,11.6990101 16.795657,11.0521852 16.1319154,9.9485774 C15.4681739,8.84496964 15.4681739,7.46503037 16.1319154,6.36142261 C16.795657,5.25781485 18.0146114,4.61098994 19.3005898,4.68 L27.7905898,4.68 C30.0605898,4.68 30.0605898,0.04 27.7905898,0.04 L19.3005898,0.04 C14.9296187,0.193461898 11.4655021,3.7813357 11.4655021,8.15500001 C11.4655021,12.5286643 14.9296187,16.1165381 19.3005898,16.27 L21.4505898,16.27 C23.5905898,16.27 23.5905898,11.63 21.4505898,11.63 L19.3005898,11.63 Z" id="Path" fill="#AE917B"></path>
                <circle id="Oval" fill="#F0F7FF" cx="40.1405898" cy="35.25" r="1.76"></circle>
                <path d="M22.4505898,9.93000001 C27.3388604,10.9734433 32.3923192,10.9734433 37.2805898,9.93000001 C32.489602,11.6656205 27.2415777,11.6656205 22.4505898,9.93000001 Z" id="Path" fill="#FD9A11"></path>
                <path d="M42.6805898,76.6300001 C34.429248,78.2478231 25.9458487,78.2851501 17.6805898,76.7400001 C17.6980185,76.829244 17.7248342,76.9163951 17.7605898,77.0000001 C25.8830672,79.5187972 34.5903231,79.431375 42.6605898,76.7500001 L42.6805898,76.6300001 Z" id="Path" fill="#FD9A11"></path>
            </g>
        </g>
    </g>
</svg>