<?xml version="1.0" encoding="UTF-8"?>
<svg width="130px" height="130px" viewBox="0 0 130 130" version="1.1" xmlns="http://www.w3.org/2000/svg" xmlns:xlink="http://www.w3.org/1999/xlink">
    <title>fist fire</title>
    <g id="fist-fire" stroke="none" stroke-width="1" fill="none" fill-rule="evenodd">
        <g id="Group" transform="translate(-0.000000, -0.000000)">
            <g id="Layer_1" transform="translate(33.003989, 21.951365)">
                <path d="M32.4860107,46.8186349 C32.4860107,46.8186349 42.2760107,54.5686349 43.4860107,54.9786349 C44.232173,55.1880021 44.8262757,55.7532163 45.0725467,56.4880248 C45.3188176,57.2228332 45.1853073,58.0319068 44.7160107,58.6486349 C43.4860107,60.2886349 40.3560107,59.1986349 40.3560107,59.1986349 C40.3560107,59.1986349 35.8960107,54.8486349 33.4460107,53.6786349 C30.9960107,52.5086349 30.3160107,52.9086349 27.9260107,52.2986349 C25.5360107,51.6886349 25.9260107,46.8186349 25.9260107,46.8186349 C25.9260107,46.8186349 30.8460107,46.0486349 32.4860107,46.8186349 Z" id="Path" fill="#5F31CC" fill-rule="nonzero"></path>
                <g id="Stake-logo" transform="translate(29.150498, 50.667985)" fill="#512AAD">
                    <path d="M0.765512242,0.010650324 C0.955512242,0.010650324 1.13551224,0.150650324 1.10551224,0.330650324 C1.07551224,0.510650324 0.985512242,0.540650324 0.885512242,0.520650324 C0.785512242,0.500650324 0.785512242,0.460650324 0.785512242,0.460650324 C0.785512242,0.460650324 0.915512242,0.390650324 0.925512242,0.310650324 C0.935512242,0.230650324 0.925512242,0.150650324 0.745512242,0.130650324 C0.565512242,0.110650324 0.355512242,0.190650324 0.325512242,0.390650324 C0.295512242,0.590650324 0.985512242,0.810650325 0.935512242,1.12065032 C0.885512242,1.43065033 0.525512242,1.54065033 0.225512242,1.50065033 C0.156521544,1.49930335 0.0917807647,1.4670521 0.0491487019,1.41279311 C0.00651663902,1.35853412 -0.00950174247,1.28800098 0.00551224148,1.22065032 C0.00551224148,1.05065032 0.135512242,0.880650325 0.345512242,0.910650325 C0.369443079,0.913159859 0.391372505,0.925147642 0.406403955,0.943936954 C0.421435405,0.962726267 0.428317027,0.986752293 0.425512242,1.01065032 C0.299725969,1.02956053 0.199538696,1.12574031 0.175512242,1.25065032 C0.175512242,1.25065032 0.175512242,1.36065033 0.295512242,1.37065033 C0.415512242,1.38065033 0.695512242,1.37065033 0.725512242,1.10065032 C0.755512242,0.830650325 0.0755122415,0.730650325 0.125512242,0.360650324 C0.175512242,-0.00934967604 0.605512242,-0.019349676 0.765512242,0.010650324 Z M2.36551224,0.480650324 C2.36551224,0.480650324 2.54551224,0.480650324 2.52551224,0.580650324 C2.47709706,0.725336492 2.4168952,0.865807491 2.34551224,1.00065032 C2.47303248,0.93775971 2.59089433,0.856940154 2.69551224,0.760650325 C2.69551224,0.760650325 2.81551224,0.760650325 2.76551224,0.870650325 C2.66458465,0.956756244 2.55381294,1.03060405 2.43551224,1.09065032 C2.43551224,1.09065032 2.43551224,1.65065033 2.74551224,1.70065033 C2.85410957,1.72665933 2.96862824,1.70080028 3.05551224,1.63065033 L3.05551224,1.63065033 C3.07220922,1.66890789 3.07220922,1.71239276 3.05551224,1.75065033 C2.9591031,1.78854942 2.85192139,1.78854942 2.75551224,1.75065033 C2.45551224,1.75065033 2.31551224,1.44065033 2.32551224,1.07065032 C2.28391131,1.18402244 2.25376107,1.30127338 2.23551224,1.42065033 C2.23551224,1.42065033 2.04551224,1.48065033 2.04551224,1.36065033 L2.04551224,1.36065033 C2.04551224,1.36065033 1.95551224,1.44065033 1.91551224,1.43065033 C1.85997373,1.41960398 1.81655859,1.37618884 1.80551224,1.32065032 C1.74708609,1.36933278 1.67083838,1.39111784 1.59551224,1.38065033 C1.53085172,1.38141946 1.47545615,1.33454629 1.46551224,1.27065032 C1.38275722,1.31513909 1.28932086,1.33590273 1.19551224,1.33065032 C1.07551224,1.33065032 1.05551224,1.24065032 1.06551224,1.18065032 C1.1018155,1.0549584 1.14521853,0.931426687 1.19551224,0.810650325 C1.132435,0.818704986 1.06858948,0.818704986 1.00551224,0.810650325 C0.935512242,0.810650325 0.925512242,0.680650324 0.925512242,0.670650324 L0.925512242,0.670650324 L1.25551224,0.610650324 L1.35551224,0.380650324 C1.3771431,0.341968007 1.41302516,0.313262362 1.45551224,0.300650324 C1.49152759,0.290876567 1.52949689,0.290876567 1.56551224,0.300650324 C1.56551224,0.300650324 1.56551224,0.300650324 1.56551224,0.300650324 L1.44551224,0.600650324 C1.51535206,0.593953216 1.58567243,0.593953216 1.65551224,0.600650324 C1.65551224,0.600650324 1.71551224,0.600650324 1.65551224,0.660650324 L1.57551224,0.740650325 C1.57551224,0.740650325 1.57551224,0.740650325 1.51551224,0.740650325 L1.34551224,0.740650325 C1.34551224,0.740650325 1.21551224,1.05065032 1.20551224,1.10065032 C1.19551224,1.15065032 1.20551224,1.17065032 1.20551224,1.17065032 C1.26514613,1.16657488 1.32316774,1.1495097 1.37551224,1.12065032 C1.40090544,0.913932393 1.5772463,0.759096516 1.78551224,0.760650325 C1.78551224,0.760650325 1.78551224,0.810650325 1.86551224,0.820650325 L1.86551224,0.820650325 C1.86551224,0.820650325 1.86551224,0.820650325 1.86551224,0.890650325 C1.86551224,0.960650325 1.79551224,1.08065032 1.78551224,1.16065032 C1.77551224,1.24065032 1.78551224,1.26065032 1.78551224,1.27065032 C1.78551224,1.28065032 1.87551224,1.27065032 1.90551224,1.18065032 C2.14551224,1.00065032 2.35551224,0.530650324 2.36551224,0.480650324 Z M2.97551224,1.00065032 C3.04528103,1.00364451 3.10899727,1.04112466 3.14551224,1.10065032 C3.15915435,1.14971979 3.15915435,1.20158086 3.14551224,1.25065032 C3.06085759,1.33976681 2.93368923,1.37444909 2.81551224,1.34065033 C2.81551224,1.34065033 2.76551224,1.46065033 2.88551224,1.48065033 C2.95665539,1.49140741 3.02835303,1.46499249 3.07551224,1.41065033 C3.07551224,1.41065033 3.13551224,1.48065033 3.07551224,1.51065033 C3.00579901,1.57594923 2.90987554,1.60546414 2.81551224,1.59065033 C2.73884477,1.58182496 2.6710985,1.53667025 2.6334515,1.46930192 C2.59580449,1.40193359 2.59285023,1.32057158 2.62551224,1.25065032 C2.68363618,1.10634517 2.82015636,1.00883076 2.97551224,1.00065032 L2.97551224,1.00065032 Z M1.84551224,0.950650325 C1.71551224,0.950650325 1.47551224,1.28065032 1.61551224,1.30065032 C1.75551224,1.32065032 1.82551224,1.02065032 1.84551224,0.960650325 L1.84551224,0.950650325 Z M2.99551224,1.08065032 C2.91551224,1.08065032 2.79551224,1.22065032 2.77551224,1.29065032 C2.87511943,1.30182655 2.9696892,1.24426234 3.00551224,1.15065032 C3.00551224,1.15065032 3.03551224,1.08065032 3.01551224,1.08065032 L2.99551224,1.08065032 Z" id="Shape"></path>
                </g>
                <path d="M44.4560107,55.5786349 C44.9823177,55.753111 45.4054608,56.1498982 45.6133772,56.6639136 C45.8212935,57.177929 45.7930077,57.7573167 45.5360107,58.2486349 C44.7260107,60.2486349 43.0960107,63.9586349 43.0960107,63.9586349 C43.0960107,63.9586349 43.4960107,66.0886349 43.0960107,66.6586349 C42.6960107,67.2286349 41.0960107,67.1986349 41.0960107,65.3786349 C40.9721701,63.308163 40.7418656,61.2454354 40.4060107,59.1986349 L44.4560107,55.5786349 Z" id="Path" fill="#5F31CC" fill-rule="nonzero"></path>
                <path d="M43.3960107,65.7486349 C43.3960107,65.7486349 43.4960107,67.2286349 42.6860107,67.6286349 C41.8760107,68.0286349 35.1560107,73.1886349 34.4960107,73.7086349 C33.8360107,74.2286349 28.9360107,85.4486349 28.9360107,85.4486349 L27.6060107,85.4486349 C27.6060107,85.4486349 32.2160107,71.3286349 32.4260107,70.9386349 C32.6360107,70.5486349 41.6960107,65.7486349 41.6960107,65.7486349 C42.5960107,64.7586349 43.2860107,64.4086349 43.3960107,65.7486349 Z" id="Path" fill="#FD782B" fill-rule="nonzero"></path>
                <path d="M7.34601064,19.3586349 C7.34601064,19.3586349 7.54601064,17.7586349 6.56601064,17.2686349 C6.25290825,17.0894576 5.86306939,17.1145502 5.57552165,17.3323894 C5.28797391,17.5502286 5.15828423,17.9187182 5.24601064,18.2686349 C5.45601064,18.7986349 5.57601064,19.0686349 5.57601064,19.0686349 L4.40601064,19.3186349 C3.89791161,19.0207135 3.36205912,18.7728818 2.80601064,18.5786349 C2.16601064,18.3886349 0.466010638,15.8286349 0.116010638,14.4086349 C-0.233989362,12.9886349 0.846010639,10.2386349 2.11601064,8.40863488 C2.11601064,8.40863488 4.32601064,8.61863488 5.32601064,7.64863488 C6.34733612,6.46172409 6.61565917,4.80185021 6.02031448,3.35360036 C5.42496979,1.9053505 4.06681979,0.914085082 2.50601064,0.788634877 C1.76601064,0.788634877 1.00601064,1.78863488 1.00601064,1.78863488 C1.00601064,1.78863488 1.10601064,2.78863488 0.926010639,2.78863488 C0.746010639,2.78863488 -0.193989362,2.11863488 0.0360106381,0.668634877 C0.266010638,-0.781365124 3.19601064,0.578634877 3.19601064,0.578634877 C4.95218235,0.645750617 6.66671023,1.13267653 8.19601064,1.99863488 C10.5260106,3.39863488 10.8460106,3.99863488 10.9260106,5.66863488 C11.2377598,5.97673201 11.5221618,6.31132251 11.7760106,6.66863488 C11.8260106,6.83863488 11.7760106,6.89863488 11.4760106,6.97863488 C11.1760106,7.05863488 9.92601065,7.91863488 10.3660106,11.6286349 C10.8060106,15.3386349 13.5760106,15.4486349 14.3660106,15.3086349 C14.6863119,16.0512372 14.8562528,16.8499595 14.8660106,17.6586349 C14.8578172,18.4383545 14.5864851,19.1924463 14.0960106,19.7986349 L7.34601064,19.3586349 Z" id="Path" fill="#FD782B" fill-rule="nonzero"></path>
                <path d="M8.55601064,19.0486349 C8.4337446,18.389187 8.1086145,17.7843751 7.62601064,17.3186349 C7.62601064,17.3186349 8.26601064,17.1686349 7.72601064,15.4886349 C7.18601064,13.8086349 5.23601064,12.0286349 3.72601064,12.3686349 C2.21601064,12.7086349 1.72601064,15.6386349 1.89601064,16.3686349 C1.19768889,15.0075198 0.949102063,13.4599793 1.18601064,11.9486349 C1.36172371,10.8004063 1.96994001,9.7628608 2.88601064,9.04863488 C2.88601064,9.04863488 5.28601064,9.44863488 6.32601064,7.94863488 C7.36601064,6.44863488 7.07601064,3.64863488 7.07601064,3.64863488 C7.07601064,3.64863488 8.29601064,2.22863488 9.56601065,3.22863488 C10.2933651,3.69561353 10.683546,4.5423061 10.5660106,5.39863488 C10.016584,4.96330982 9.30206957,4.79475769 8.61601064,4.93863488 C7.61601064,5.24863488 7.28601064,7.03863488 7.44601064,9.47863488 C7.60601064,11.9186349 9.25601065,15.6386349 11.7760106,15.0286349 C12.463122,15.5438278 13.3244473,15.7699257 14.1760106,15.6586349 C14.1760106,15.6586349 14.9660106,16.9586349 14.0760106,19.4386349 L8.55601064,19.0486349 Z" id="Path" fill="#FD942B" fill-rule="nonzero"></path>
                <path d="M20.3360107,35.7186349 L0.446010638,50.7186349 L0.996010639,21.5286349 L0.996010639,20.1386349 C5.62036326,18.3066146 10.7496055,18.2001251 15.4460106,19.8386349 C15.4460106,20.1386349 15.4460106,20.4386349 15.4960106,20.7286349 C15.5560107,21.7286349 15.6460107,22.7286349 15.7560107,23.5886349 C16.0036955,25.8778517 16.4828115,28.1360628 17.1860107,30.3286349 L17.1860107,30.3286349 C18.6560107,34.5386349 20.3360107,35.7186349 20.3360107,35.7186349 Z" id="Path" fill="#885BF4" fill-rule="nonzero"></path>
                <path d="M15.5560107,20.7286349 C9.72601065,19.4086349 3.02601064,20.9886349 1.02601064,21.5286349 L1.02601064,20.1386349 C9.60601065,16.3886349 15.4760106,19.8386349 15.4760106,19.8386349 C15.5160106,20.1386349 15.5360107,20.4386349 15.5560107,20.7286349 Z" id="Path" fill="#FDBD2B" fill-rule="nonzero"></path>
                <path d="M17.2460107,30.3286349 L17.2460107,30.3286349 L8.99601064,32.9586349 C8.99601064,32.9586349 10.3760106,21.2186349 13.8260106,21.9586349 C14.7043803,22.2028262 15.433871,22.8155984 15.8260107,23.6386349 C16.0737598,25.9106179 16.5494893,28.151907 17.2460107,30.3286349 Z" id="Path" fill="#5F31CC" fill-rule="nonzero"></path>
                <path d="M34.1160107,47.6386349 C34.1160107,49.2686349 25.5460107,50.0786349 25.5460107,50.0786349 L20.6460107,51.7186349 C19.5673456,51.9409414 18.4546757,51.9409414 17.3760107,51.7186349 C17.2141803,52.4241641 16.9407384,53.0993292 16.5660107,53.7186349 C15.1924541,54.8499588 13.6843598,55.8072124 12.0760106,56.5686349 C10.8460106,56.9786349 1.46601064,55.7586349 1.07601064,55.3486349 C1.01444062,55.2898659 0.957597966,55.2263359 0.906010639,55.1586349 C0.536010638,54.6386349 0.136010638,53.4986349 0.466010638,50.6586349 C1.12396129,44.3613632 3.20286508,38.2956143 6.54601064,32.9186349 C7.83699854,31.8738048 9.332398,31.1107763 10.9360106,30.6786349 C12.5879504,30.2601267 14.2961423,30.1082124 15.9960107,30.2286349 C22.5860107,30.5986349 28.9960107,34.2286349 30.6560107,35.0286349 C31.5960107,35.4986349 32.3160107,37.2786349 32.8460107,39.3586349 C33.0960107,40.3586349 33.3060107,41.3586349 33.4760107,42.4186349 C33.5660107,42.9086349 33.6360107,43.4186349 33.6960107,43.8586349 L33.6960107,43.8586349 C33.900216,45.1106706 34.0403983,46.3723111 34.1160107,47.6386349 L34.1160107,47.6386349 Z" id="Path" fill="#885BF4" fill-rule="nonzero"></path>
                <path d="M33.5160107,42.4186349 C28.1560107,32.7486349 10.9160106,30.7186349 10.9160106,30.7186349 C12.5722196,30.2845498 14.2873671,30.1191123 15.9960107,30.2286349 C22.5860107,30.5986349 28.9960107,34.2286349 30.6560107,35.0286349 C31.5960107,35.4986349 32.3160107,37.2786349 32.8460107,39.3586349 C33.1360107,40.3486349 33.3460107,41.4086349 33.5160107,42.4186349 Z" id="Path" fill="#FDBD2B" fill-rule="nonzero"></path>
                <path d="M17.3760107,73.3486349 C16.6741049,72.9989049 16.0047871,72.5872745 15.3760106,72.1186349 C14.877707,71.3493729 14.4652429,70.5277981 14.1460106,69.6686349 C14.1460106,69.6686349 6.36601064,69.1386349 5.95601064,68.3286349 C5.54601064,67.5186349 6.36601064,63.8386349 6.36601064,63.8386349 L4.31601064,60.9786349 L3.65601064,60.7486349 C2.88857806,60.5042585 2.15330371,60.1685168 1.46601064,59.7486349 C1.05601064,59.3386349 0.336010638,54.3586349 0.336010638,54.3586349 C0.336010638,54.3586349 1.87601064,45.2286349 5.14601064,44.0486349 C6.1624014,43.7899206 7.23974398,43.9407486 8.14601064,44.4686349 C11.5260106,46.0486349 15.5260107,50.6486349 15.5260107,53.7186349 L14.8360106,58.5486349 C14.5931059,59.8555088 14.2212891,61.1350947 13.7260106,62.3686349 C14.432882,62.5312359 15.1084444,62.8082166 15.7260107,63.1886349 C16.5717116,64.4679036 17.2600163,65.8445129 17.7760107,67.2886349 C18.6660107,69.5886349 19.1060107,72.2686349 17.3760107,73.3486349 Z" id="Path" fill="#9C73FF" fill-rule="nonzero"></path>
                <path d="M17.7860107,70.8986349 C17.7860107,70.8986349 19.2960107,77.3186349 19.2960107,78.5386349 C19.2960107,79.7586349 21.4660107,85.4486349 21.4660107,85.4486349 L20.3760107,85.4486349 C20.3760107,85.4486349 16.9760107,78.6486349 16.5660107,76.1986349 C16.1560107,73.7486349 14.1160106,70.4886349 14.5660106,69.2686349 C15.0160106,68.0486349 16.9960107,69.2686349 17.7860107,70.8986349 Z" id="Path" fill="#FDBD2B" fill-rule="nonzero"></path>
                <path d="M5.57601064,54.3686349 C3.40601064,57.3686349 3.34601064,59.4986349 3.62601064,60.7486349 C2.85857806,60.5042585 2.12330371,60.1685168 1.43601064,59.7486349 C1.02601064,59.3386349 0.306010638,54.3586349 0.306010638,54.3586349 C0.306010638,54.3586349 1.87601064,45.2286349 5.14601064,44.0486349 C6.1624014,43.7899206 7.23974398,43.9407486 8.14601064,44.4686349 C8.59635536,47.976469 7.67574449,51.522791 5.57601064,54.3686349 L5.57601064,54.3686349 Z" id="Path" fill="#FDBD2B" fill-rule="nonzero"></path>
                <path d="M27.8760107,42.9186349 C27.8760107,42.9186349 40.3960107,39.2986349 42.4360107,38.4886349 C43.9486793,37.7387032 45.585479,37.2710461 47.2660107,37.1086349 C48.4660107,37.1086349 50.0260107,41.1086349 49.2660107,41.9186349 C48.5060107,42.7286349 45.5860107,43.5486349 45.5860107,43.5486349 C45.5860107,43.5486349 35.2260107,44.7786349 34.4860107,46.4086349 C33.7460107,48.0386349 33.3460107,48.0386349 31.7160107,48.4086349 C30.0860107,48.7786349 25.9960107,46.8186349 25.9960107,46.8186349 L27.8760107,42.9186349 Z" id="Path" fill="#885BF4" fill-rule="nonzero"></path>
                <path d="M47.2660107,37.1086349 C47.2660107,37.1086349 57.2660107,41.7686349 59.4760107,45.0286349 C60.9602969,47.2334664 62.2645169,49.5543091 63.3760107,51.9686349 L61.4560107,61.5086349 C61.4560107,61.5086349 57.7860107,60.6986349 57.7860107,58.2486349 C57.8216999,56.6763397 58.2368149,55.135954 58.9960107,53.7586349 C58.9960107,53.7586349 52.7060107,44.1186349 48.0960107,42.6086349 C43.4860107,41.0986349 47.2660107,37.1086349 47.2660107,37.1086349 Z" id="Path" fill="#885BF4" fill-rule="nonzero"></path>
                <path d="M62.1160107,57.1286349 C62.7295135,59.5101644 63.1904498,61.9284094 63.4960107,64.3686349 C63.4960107,65.9986349 61.0460107,85.4486349 61.0460107,85.4486349 L60.1760107,85.4486349 C60.1760107,85.4486349 61.4260107,66.2886349 61.4260107,65.4486349 C61.2796832,63.7258008 60.8576437,62.0376427 60.1760107,60.4486349 C60.2703883,59.1002456 60.9876228,57.8728134 62.1160107,57.1286349 Z" id="Path" fill="#FDBD2B" fill-rule="nonzero"></path>
                <path d="M43.4960107,30.0486349 C42.2760107,32.0486349 33.2960107,40.2486349 32.8960107,41.8886349 C32.4960107,43.5286349 31.6160107,45.5486349 29.6060107,46.3686349 C27.5960107,47.1886349 22.2758149,47.5986349 22.2758149,47.5986349 C22.2758149,47.5986349 22.1860107,39.5186349 25.8660107,37.0686349 L26.2260107,36.9986349 C27.3160107,36.8086349 30.5660107,36.1386349 31.9160107,34.7886349 C33.5460107,33.1586349 38.4460107,25.3986349 38.4460107,25.3986349 C38.4460107,25.3986349 40.6460107,23.5186349 42.2760107,23.5186349 C42.706384,23.5750182 43.0808864,23.8409149 43.2760107,24.2286349 L43.2760107,24.2286349 C44.2506711,26.0287942 44.3319894,28.1800322 43.4960107,30.0486349 Z" id="Path" fill="#885BF4" fill-rule="nonzero"></path>
                <path d="M43.3160107,24.2686349 L43.3160107,24.2686349 C43.3160107,24.2686349 40.2060107,24.4586349 37.6960107,29.3986349 C35.1860107,34.3386349 25.9960107,41.5686349 25.9960107,41.5686349 L26.2260107,37.0486349 C27.3160107,36.8586349 30.5660107,36.1886349 31.9160107,34.8386349 C33.5460107,33.2086349 38.4460107,25.4486349 38.4460107,25.4486349 C38.4460107,25.4486349 40.6460107,23.5686349 42.2760107,23.5686349 C42.7190693,23.6101807 43.1107395,23.8738049 43.3160107,24.2686349 L43.3160107,24.2686349 Z" id="Path" fill="#FDBD2B" fill-rule="nonzero"></path>
                <path d="M43.3260107,24.2786349 C43.3260107,24.2786349 49.2460107,27.3586349 50.8760107,28.5786349 C52.5060107,29.7986349 55.3660107,31.0286349 55.7760107,32.6586349 C56.1860107,34.2886349 52.3160107,46.8186349 51.7760107,47.6586349 C51.2360107,48.4986349 48.7760107,47.6586349 48.3860107,45.2086349 C47.9960107,42.7586349 49.3860107,37.9586349 49.3860107,37.9586349 C49.3860107,37.9586349 47.9960107,35.7986349 47.9960107,34.9786349 L47.9960107,33.3486349 C47.9960107,33.3486349 42.7560107,30.0486349 41.6960107,28.0486349 C40.6360107,26.0486349 43.3260107,24.2786349 43.3260107,24.2786349 Z" id="Path" fill="#885BF4" fill-rule="nonzero"></path>
                <path d="M49.2160107,45.5986349 C48.8660107,46.7686349 47.3360107,73.1686349 46.9260107,74.3986349 C46.5160107,75.6286349 43.4960107,84.8986349 43.3960107,85.4486349 L44.9960107,85.4486349 C44.9960107,85.4486349 48.3860107,78.2386349 49.2060107,75.3886349 C50.0260107,72.5386349 52.1260107,46.3886349 52.1260107,46.3886349 C52.351526,45.8440083 52.2418178,45.2181016 51.8445139,44.7826421 C51.4472101,44.3471826 50.8339581,44.1806984 50.2709912,44.3554659 C49.7080244,44.5302333 49.2968648,45.014736 49.2160107,45.5986349 Z" id="Path" fill="#FDBD2B" fill-rule="nonzero"></path>
                <path d="M20.3760107,37.9586349 C20.3760107,37.9586349 25.9560107,34.9586349 27.5860107,33.3486349 C29.0342088,31.6516518 30.395937,29.8827402 31.6660107,28.0486349 C32.0760107,27.6386349 33.2960107,27.7686349 34.1160107,28.5186349 C34.9360107,29.2686349 36.4660107,36.0086349 38.5560107,37.9386349 C40.6460107,39.8686349 40.6460107,39.8786349 41.0560107,40.2886349 C41.4660107,40.6986349 42.2760107,44.4986349 41.0560107,45.2886349 C39.622017,45.8865395 38.1101653,46.2771293 36.5660107,46.4486349 C36.5660107,46.4486349 34.1160107,44.9886349 34.1160107,43.6786349 C34.174114,42.6563029 34.3726434,41.6468317 34.7060107,40.6786349 C34.7060107,40.6786349 32.5860107,37.2386349 31.7060107,37.1486349 C31.1283009,37.1168029 30.5515662,37.2266572 30.0260107,37.4686349 C29.399028,39.3338804 28.6781071,41.166221 27.8660107,42.9586349 C26.8017775,43.67552 25.6615103,44.2724835 24.4660107,44.7386349 C22.4640136,45.4391609 20.3802719,45.8794353 18.2660107,46.0486349 C18.2660107,46.0486349 16.8460107,41.3386349 20.3760107,37.9586349 Z" id="Path" fill="#9C73FF" fill-rule="nonzero"></path>
                <path d="M41.0560107,45.2486349 C41.0560107,45.2486349 41.0560107,52.9386349 40.6460107,53.7586349 C40.2360107,54.5786349 38.0660107,54.8286349 37.1060107,52.8686349 C36.1460107,50.9086349 36.5660107,46.4086349 36.5660107,46.4086349 C36.5660107,46.4086349 37.7860107,42.8686349 41.0560107,45.2486349 Z" id="Path" fill="#9C73FF" fill-rule="nonzero"></path>
                <path d="M40.8860107,52.0486349 C40.8860107,52.0486349 40.2360107,70.0486349 39.8260107,71.3186349 C39.4160107,72.5886349 33.8260107,85.4586349 33.8260107,85.4586349 L32.4360107,85.4586349 C32.4360107,85.4586349 37.2560107,71.7686349 37.2560107,70.9486349 C37.2560107,70.1286349 38.0960107,54.5386349 37.9460107,52.9486349 C37.7960107,51.3586349 38.9960107,49.8686349 39.9960107,50.2286349 C40.9960107,50.5886349 40.8860107,52.0486349 40.8860107,52.0486349 Z" id="Path" fill="#FDBD2B" fill-rule="nonzero"></path>
            </g>
        </g>
    </g>
</svg>