<?xml version="1.0" encoding="UTF-8"?>
<svg width="130px" height="130px" viewBox="0 0 130 130" version="1.1" xmlns="http://www.w3.org/2000/svg" xmlns:xlink="http://www.w3.org/1999/xlink">
    <title>rune6</title>
    <g id="rune6" stroke="none" stroke-width="1" fill="none" fill-rule="evenodd">
        <g id="Group" transform="translate(-0.000000, -0.000000)" fill-rule="nonzero">
            <g id="Layer_1" transform="translate(40.790000, 28.630000)">
                <polygon id="Path" fill="#16BA1C" points="27.92 3.55271368e-15 18.56 2.28 0 32.31 7.48000001 66.4600001 23.47 72.7400001 39.69 58.35 48.42 24.54 44.26 11.77"></polygon>
                <polygon id="Path" fill="#069E0B" points="39.69 58.35 38.36 52.31 22.62 69.0900001 23.47 72.7400001"></polygon>
                <polygon id="Path" fill="#93F298" points="27.92 3.55271368e-15 18.56 2.28 20.04 6.62000001 24.21 13.24 28.38 5.48"></polygon>
                <polygon id="Path" fill="#2AE031" points="42.08 17.36 35.03 20.76 27.74 9.83000001 28.38 5.48 27.92 3.55271368e-15 44.26 11.77"></polygon>
                <polygon id="Path" fill="#1DC723" points="20.04 6.62000001 22.39 8.79000001 27.58 6.62000001 28.38 5.48 29.29 9.13000001 38.66 17.36 42.08 17.36 39.51 27.31 37.45 48.19 38.36 52.31 22.62 69.0900001 13.03 64.86 5.43 41.01 10.34 38.31 4.74 38.31 4.29 37.28 20.73 10.28"></polygon>
                <path d="M18.21,24.54 L14.43,43.46 L23.73,48.98 L22.73,52.91 L26.6,55.06 L32.33,32.14 L18.21,24.54 Z M24.97,44.15 L18.97,40.73 L19.6,37.49 L23.88,39.81 L24.56,36.41 L20.21,34 L20.91,30.42 L27.5,34.14 L24.97,44.15 Z M29.67,26.55 L30.53,22.82 L34.21,25.11 L33.35,28.55 L29.67,26.55 Z" id="Shape" fill="#069E0B"></path>
            </g>
        </g>
    </g>
</svg>