<?xml version="1.0" encoding="UTF-8"?>
<svg width="130px" height="130px" viewBox="0 0 130 130" version="1.1" xmlns="http://www.w3.org/2000/svg" xmlns:xlink="http://www.w3.org/1999/xlink">
    <title>potion</title>
    <g id="potion" stroke="none" stroke-width="1" fill="none" fill-rule="evenodd">
        <g id="Group" transform="translate(-0.000000, -0.000000)" fill-rule="nonzero">
            <g id="Layer_1" transform="translate(37.530000, 24.260000)">
                <path d="M51.89,69.7400001 C52.69,69.4300001 55.29,63.33 58.96,61.39 C60.65,60.49 64.21,53.62 64.21,53.62 C64.21,53.62 60.77,51.74 57.67,55.53 C54.96,58.82 49.35,53.53 45.95,52.97 C42.55,52.41 51.09,70.1000001 51.89,69.7400001 Z" id="Path" fill="#FFD636"></path>
                <path d="M24.47,76.1200001 C27.69,75.7400001 28.77,77.7400001 31.17,77.7400001 C32.71,77.7400001 30.88,72.0600001 30.88,72.0600001 L23.65,68.8900001 C23.65,68.8900001 20.86,76.5700001 24.47,76.1200001 Z" id="Path" fill="#FF9C12"></path>
                <path d="M16.99,69.4200001 C18.0199833,69.0254745 19.1778401,69.1599353 20.09,69.7800001 C21.28,70.5200001 19.45,64.49 19.45,64.49 L15.95,62.49 L16.99,69.4200001 Z" id="Path" fill="#FF9C12"></path>
                <path d="M42.1,74.1600001 C42.1,74.1600001 46.22,81.6800001 49.4,81.4800001 C52.58,81.2800001 50.33,71.5800001 50.33,71.5800001 L42.1,74.1600001 Z" id="Path" fill="#FF9C12"></path>
                <path d="M55.23,67.6700001 C54.694639,68.4650885 54.1066581,69.2234503 53.47,69.9400001 C49.901077,73.8732954 45.1971557,76.5991934 40.01,77.7400001 C40.01,77.7400001 16.84,70.2800001 3.47,48.74 L8.67000001,46.5 C8.67000001,46.5 42.67,21.04 49.22,31.86 C49.3677627,32.0968888 49.4981063,32.3442074 49.61,32.6 C55.04,45.23 55.23,67.6700001 55.23,67.6700001 Z" id="Path" fill="#A6F280"></path>
                <path d="M55.23,67.6700001 C54.694639,68.4650885 54.1066581,69.2234503 53.47,69.9400001 L52.37,64.94 C55.16,48.34 48.47,32.35 48.47,32.35 L49.16,31.84 C49.3077627,32.0768888 49.4381063,32.3242074 49.55,32.58 C55.04,45.23 55.23,67.6700001 55.23,67.6700001 Z" id="Path" fill="#D9FFDA"></path>
                <path d="M51.08,64.59 C50.85,68.8600001 46.92,71.4600001 43.3,72.8600001 C41.4019049,73.6716413 39.3640727,74.1063788 37.3,74.1400001 C35.85,73.8200001 16.27,60.74 10.47,51.44 C6.27,44.87 26.27,38.74 38.21,35.74 C43.1,34.51 46.63,33.81 46.63,33.81 C46.63,33.81 52.03,46.39 51.08,64.59 Z" id="Path" fill="#08360A"></path>
                <path d="M51.08,64.59 C50.69,72.0900001 38.84,74.4500001 37.35,74.1400001 L37.15,74.0700001 C35.46,73.3700001 26.83,67.8700001 19.61,61.48 C17.6331977,59.7655072 15.7693103,57.9250019 14.03,55.97 C20.72,53.36 25.31,51.39 33.94,51.74 C39.6696294,52.0978894 45.3575262,52.951074 50.94,54.29 L51.06,55.74 C51.06,56.74 51.15,57.74 51.18,58.74 C51.2133334,60.6 51.18,62.55 51.08,64.59 Z" id="Path" fill="#127D16"></path>
                <path d="M51.08,64.59 C50.69,72.0900001 38.84,74.4500001 37.35,74.1400001 L37.15,74.0700001 C35.46,73.3700001 26.83,67.8700001 19.61,61.48 C22.94,59.81 28.1,55.55 33.94,51.74 C38.94,48.46 44.48,45.51 49.73,44.86 C50.3280488,47.9762729 50.7420986,51.1250546 50.97,54.29 L51.06,55.74 C51.12,56.74 51.15,57.68 51.18,58.74 C51.2133334,60.6 51.18,62.55 51.08,64.59 Z" id="Path" fill="#1DC723"></path>
                <circle id="Oval" fill="#127D16" cx="45.82" cy="50.21" r="1.69"></circle>
                <circle id="Oval" fill="#127D16" cx="41.13" cy="52.21" r="2.33"></circle>
                <circle id="Oval" fill="#127D16" cx="44.15" cy="56.2" r="1"></circle>
                <circle id="Oval" fill="#1DC723" cx="8.27000001" cy="8.27000001" r="8.27000001"></circle>
                <path d="M3.55,8.35000001 C3.15901708,5.53823202 3.90787528,2.68681043 5.63,0.43 C1.69835829,1.87509837 -0.534747456,6.02881562 0.428346356,10.1054032 C1.39144017,14.1819907 5.24732596,16.8971837 9.41000001,16.43 L9.41000001,16.43 C6.23617919,14.8767919 4.04048926,11.8492877 3.55,8.35000001 L3.55,8.35000001 Z" id="Path" fill="#A6F280"></path>
                <circle id="Oval" fill="#FFFFFF" cx="3.49" cy="5.69" r="1.34"></circle>
                <path d="M13.64,22.81 C10.79,24.39 8.47000001,25.62 8.47000001,25.62 C8.47000001,25.62 7.34000001,22.52 6.07,22.56 C4.33,22.56 3.97,21.92 4.26,20.82 C4.55,19.72 6.74000001,16.54 11.32,13.74 L11.32,13.74 C15.92,10.89 20.47,9.91000001 21.47,10.22 C22.47,10.53 22.47,11.22 22.05,12.22 C21.51,13.69 22.9,15.38 24.18,15.95 C24.96,16.35 18.47,20.09 13.64,22.81 Z" id="Path" fill="#A6F280"></path>
                <path d="M15.11,21.4 L13.64,22.81 C10.79,24.39 8.47000001,25.62 8.47000001,25.62 C8.47000001,25.62 7.34000001,22.52 6.07,22.56 C4.33,22.56 3.97,21.92 4.26,20.82 C4.55,19.72 6.74000001,16.54 11.32,13.74 C11.13,13.93 9.49000001,15.61 9.87000001,16.74 C10.0406528,17.410851 10.6379376,17.885406 11.33,17.9 L15.11,21.4 Z" id="Path" fill="#D9FFDA"></path>
                <polygon id="Path" fill="#D9FFDA" points="49.64 55.93 49.64 61.46 46.18 59.38 46.22 57.58"></polygon>
                <polygon id="Path" fill="#D9FFDA" points="49.47 54.34 46.18 56.07 46.18 53.96 49.19 50.81"></polygon>
                <path d="M45.89,37.44 C46.07,38.3 47.28,40.83 46.99,42.17 C46.7,43.51 38.62,48.38 35.82,48.74 C33.02,49.1 30.82,44.15 29.71,44.33 C26.43,44.86 19.24,52.04 8.52000001,52.84 C7.57525605,52.9139045 6.62723773,52.9372711 5.68,52.91 C4.48,52.91 1.39,50.37 0.22,42.31 C-0.780000001,35.5 5,26.51 11.96,20.79 L11.96,20.79 C13.1891814,19.7829901 14.4855138,18.8608567 15.84,18.03 C24.36,12.89 36.34,15.09 41.07,21.66 C47.07,30.06 50.14,30.66 50.1600671,32.55 C50.18,34.44 45.72,36.58 45.89,37.44 Z" id="Path" fill="#1DC723"></path>
                <path d="M8.52000001,52.8 C7.57525605,52.8739045 6.62723773,52.8972711 5.68,52.87 C4.48,52.87 1.39,50.33 0.22,42.27 C-0.780000001,35.46 5,26.47 11.96,20.75 C11.29,21.45 -3.33,37.07 8.52000001,52.8 Z" id="Path" fill="#D9FFDA"></path>
                <path d="M40.05,20.22 C41.0360914,21.2921328 42.3159425,22.0503055 43.73,22.4 C44.85,22.73 45.04,26.13 46.24,28.4 C47.44,30.67 48.73,31.58 48.48,32.4 C48.23,33.22 42.48,35.64 41.59,35.86 C40.7,36.08 43.34,40.86 45.04,41.59 C46.74,42.32 35.24,48.37 34.54,46.51 C33.84,44.65 32.79,40.3 31.92,40.45 C28.8370498,41.5681909 25.8504749,42.9360623 22.99,44.54 C20.99,45.82 21.69,46.72 20.1,46.79 C18.51,46.86 19.23,42.79 17.29,40.11 C15.35,37.43 12.94,35.74 15.47,34.36 C18,32.98 20.07,27.24 20.07,27.24 L40.05,20.22 Z" id="Path" fill="#A6F280"></path>
                <path d="M37.21,22.79 C36.3292518,22.8724695 35.5483432,23.3905723 35.13,24.17 C34.29,25.55 35.29,27.84 35.29,27.84 C33.8623686,27.1920083 32.9774323,25.7356332 33.06,24.17 C33.06,22.09 37.21,22.79 37.21,22.79 Z" id="Path" fill="#1DC723"></path>
                <path d="M30.99,28.31 C30.99,28.31 34.47,29 34.47,30.38 C34.5079747,31.1321481 34.2616686,31.8710664 33.78,32.45 C33.1548173,30.8873882 32.2036766,29.4760182 30.99,28.31 L30.99,28.31 Z" id="Path" fill="#1DC723"></path>
                <path d="M45.19,30.55 C44.76,30.74 44.36,30.95 43.97,31.16 L43.97,31.16 C42.42,32 41.2,32.8 40.13,32.22 C38.21,31.17 37.58,31.05 36.91,28.53 C36.53,27.1 35.61,24.26 37.68,24.18 C38.7711508,24.1242828 39.8650603,24.161081 40.95,24.29 L40.95,24.29 C42.46,24.49 43.64,24.97 44,25.9 C45.47,29.61 46.57,29.9 45.19,30.55 Z" id="Path" fill="#08360A"></path>
                <path d="M45.19,30.55 C44.76,30.74 44.36,30.95 43.97,31.16 C43.66,30 43.16,28.22 42.73,26.93 C42.3540991,25.9268194 41.747817,25.0259596 40.96,24.3 C42.47,24.5 43.65,24.98 44.01,25.91 C45.47,29.61 46.57,29.9 45.19,30.55 Z" id="Path" fill="#127D16"></path>
                <path d="M30.47,36.83 L30.47,36.83 C30.3227876,36.9717535 30.1496281,37.083798 29.96,37.16 C29.26,37.45 28.44,37.87 27.59,38.28 C26.4437356,38.9047693 25.2289782,39.3946991 23.97,39.74 C22.16,40.12 20.06,37.9 18.66,35.33 C18.13,34.33 20.41,31.82 22.66,30.02 C22.99,29.75 23.33,29.5 23.66,29.27 C24.3627233,28.7286518 25.1594331,28.3218213 26.01,28.07 C27.74,27.75 30.21,31.16 31.23,32.68 C32,33.74 31.47,35.91 30.47,36.83 Z" id="Path" fill="#08360A"></path>
                <path d="M30.47,36.83 C30.67,34.83 28.8,31.64 27.06,30.38 C26.064581,29.7281903 24.9247486,29.3299356 23.74,29.22 C24.4427233,28.6786518 25.2394331,28.2718213 26.09,28.02 C27.82,27.7 30.29,31.11 31.31,32.63 C32,33.74 31.47,35.91 30.47,36.83 Z" id="Path" fill="#127D16"></path>
                <path d="M35.68,32.43 C36.61,31.95 38.16,33.36 39.68,34.96 C40.35,35.66 41.07,35.89 41.61,37.02 C41.96,37.76 40.8,39.94 40,40.24 C39.36,40.48 36.8,40.66 36.06,39.95 C35.32,39.24 35.47,37.82 35.41,36.74 C35.36,34.85 35.04,32.74 35.68,32.43 Z" id="Path" fill="#08360A"></path>
                <path d="M66.3200001,50.31 C67.3200001,50.31 64.43,56.94 63.71,57.68 C62.53,58.89 60.59,59.74 60.15,59.29 C59.71,58.84 62.59,55.85 63.47,53.97 C64.35,52.09 65.1400001,50.34 66.3200001,50.31 Z" id="Path" fill="#FF9C12"></path>
                <path d="M29.19,61.28 C29.45,62.93 29.73,66.2800001 28.91,68.6000001 C28.6787186,69.5729857 28.7237428,70.5912253 29.04,71.5400001 C30.32,74.7800001 29.84,79.1500001 30.4,80.1200001 C31.49,82.0200001 37.03,81.5500001 37.54,79.4800001 C38.3,76.3600001 36.65,74.0400001 36.99,71.4800001 C37.225717,70.2266924 37.1115384,68.9326675 36.66,67.7400001 C35.6512855,65.5518686 35.2176048,63.1425312 35.4,60.74 C35.76,57.38 33.74,57.66 32.25,57.74 C31.16,57.88 28.7,58.23 29.19,61.28 Z" id="Path" fill="#FFD636"></path>
                <path d="M31.78,51.64 C32.84,51.64 34.46,56.96 34.78,58.28 C35.0853358,59.1051639 34.9661987,60.0276393 34.4612396,60.7481541 C33.9562805,61.4686689 33.1298271,61.8954351 32.25,61.8900513 C30.5,61.8900513 29.76,61.15 29.43,59.51 C29.1,57.87 30.68,51.65 31.78,51.64 Z" id="Path" fill="#FF9C12"></path>
                <path d="M24.04,56.97 C22.84,55.41 20.76,55.28 19.56,57.73 C18.71,59.46 19.39,60.01 18.72,62.58 C18.4596822,63.6037103 18.4596822,64.6762898 18.72,65.7000001 C19.87,68.6200001 18.43,72.2600001 18.99,74.7000001 C19.41,76.5700001 23.2,76.6400001 24.93,76.1000001 C25.93,75.7800001 25.15,71.2000001 24.84,69.7900001 C24.73,69.2600001 24.6,57.74 24.04,56.97 Z" id="Path" fill="#FFD636"></path>
                <path d="M24.71,51.19 C25.09,51.93 23.98,55.35 23.98,57.9 C23.98,59.9 21.45,59.84 20.48,59.51 C19.51,59.18 19.48,57.78 19.98,56.37 C20.38,55.15 23.2,50.39 24.71,51.19 Z" id="Path" fill="#FF9C12"></path>
                <path d="M13.47,55.17 C12.41,56.48 12.59,59.06 12.04,60.5 C11.8987745,61.3969393 12.0384956,62.3156053 12.44,63.13 C13.03,64.32 13.22,67.7300001 13.61,68.7100001 C14.1,69.9800001 17.15,70.3300001 17.61,68.5700001 C18.33,65.5700001 15.8,61.46 16.06,60.12 C16.32,58.78 16.66,56.12 15.77,55.2 C15.4756028,54.8791858 15.0618614,54.694084 14.6264773,54.6882705 C14.1910933,54.6827262 13.7726647,54.8569735 13.47,55.17 Z" id="Path" fill="#FFD636"></path>
                <path d="M16.86,51.44 C16.52,50.68 13.26,54.12 13.49,55.82 C13.72,57.52 15.62,57.32 15.69,56.48 C15.9408656,54.7707081 16.3321904,53.0850014 16.86,51.44 L16.86,51.44 Z" id="Path" fill="#FF9C12"></path>
                <path d="M51.19,66.1000001 C49.07,66.6800001 48.47,70.2100001 48.47,72.8100001 C48.47,75.4100001 47.47,79.4700001 48.47,80.9300001 C49.47,82.3900001 52.33,80.6200001 52.76,79.2100001 C53.1560639,77.497649 53.7049299,75.824277 54.4,74.2100001 C54.98,73.3400001 54.54,72.6500001 54.52,71.2100001 C54.5,69.7700001 55.95,64.82 51.19,66.1000001 Z" id="Path" fill="#FFD636"></path>
                <path d="M50.66,60.13 C51.81,59.84 54.56,65.3900001 54.44,67.9000001 C54.36,69.4400001 49.97,68.5600001 50.12,67.3100001 C50.6,63.25 49.68,60.12 50.66,60.13 Z" id="Path" fill="#FF9C12"></path>
            </g>
        </g>
    </g>
</svg>