<?xml version="1.0" encoding="UTF-8"?>
<svg width="130px" height="130px" viewBox="0 0 130 130" version="1.1" xmlns="http://www.w3.org/2000/svg" xmlns:xlink="http://www.w3.org/1999/xlink">
    <title>wild-healer</title>
    <g id="wild-healer" stroke="none" stroke-width="1" fill="none" fill-rule="evenodd">
        <g id="Group" transform="translate(-0.000000, -0.000000)">
            <g id="Layer_1" transform="translate(0.000000, 4.644739)">
                <path d="M98.7000001,59.955261 C103.351722,54.9684002 109.734175,51.9488986 116.54,51.515261 L114.91,49.045261 C114.91,49.045261 104.11,49.915261 97.5400001,58.155261 L98.7000001,59.955261 Z" id="Path" fill="#EF9A27" fill-rule="nonzero"></path>
                <path d="M99.6400001,49.355261 C101.961422,42.9428094 106.648577,37.6617092 112.74,34.5952609 L110.28,32.9652609 C110.28,32.9652609 100.68,37.9652609 97.8600001,48.145261 L99.6400001,49.355261 Z" id="Path" fill="#FBBB2B" fill-rule="nonzero"></path>
                <path d="M96.6300001,69.985261 C102.037226,65.8147443 108.835572,63.8718486 115.63,64.555261 L114.42,61.865261 C114.42,61.865261 103.62,60.955261 95.8000001,68.015261 L96.6300001,69.985261 Z" id="Path" fill="#FB782C" fill-rule="nonzero"></path>
                <path d="M30.36,49.355261 C28.038578,42.9428094 23.3514227,37.6617092 17.26,34.5952609 L19.72,32.9652609 C19.72,32.9652609 29.32,37.9652609 32.14,48.145261 L30.36,49.355261 Z" id="Path" fill="#FBBB2B" fill-rule="nonzero"></path>
                <path d="M31.3,59.955261 C26.6482785,54.9684002 20.2658248,51.9488986 13.46,51.515261 L15.09,49.045261 C15.09,49.045261 25.89,49.915261 32.46,58.155261 L31.3,59.955261 Z" id="Path" fill="#EF9A27" fill-rule="nonzero"></path>
                <path d="M33.37,69.985261 C27.9627738,65.8147443 21.1644281,63.8718486 14.37,64.555261 L15.58,61.865261 C15.58,61.865261 26.38,60.955261 34.2,68.015261 L33.37,69.985261 Z" id="Path" fill="#FB782C" fill-rule="nonzero"></path>
                <path d="M111.26,52.025261 L111.26,85.855261 L65.4200001,113.755261 L19.57,85.855261 L19.57,52.025261 C19.9400571,26.9697719 40.3567783,6.85236875 65.4150001,6.85236875 C90.4732218,6.85236875 110.889943,26.9697719 111.26,52.025261 Z" id="Path" fill="#875BF2" fill-rule="nonzero"></path>
                <polygon id="Path" fill="#512AAB" fill-rule="nonzero" points="101.52 96.725261 65.4200001 117.725261 29.06 96.725261 29.06 52.895261 101.52 52.895261"></polygon>
                <circle id="Oval" fill="#512AAB" fill-rule="nonzero" cx="65.2400001" cy="51.925261" r="36.27"></circle>
                <path d="M67.1300001,19.0152609 L70.1300001,29.1252609 C70.3337207,29.8293352 70.8732621,30.3866016 71.5703859,30.6129665 C72.2675096,30.8393314 73.0315107,30.7053417 73.6100001,30.2552609 L82.0000001,23.8352609 C82.7821647,23.261769 83.8468465,23.2652666 84.6252263,23.8438852 C85.403606,24.4225038 85.7137663,25.4410126 85.3900001,26.3552609 L81.8600001,36.285261 C81.5984269,36.9807275 81.7021279,37.7609417 82.1362841,38.3639364 C82.5704403,38.9669312 83.277478,39.3127429 84.0200001,39.285261 L94.5500001,38.995261 C95.5328343,38.9748379 96.413108,39.6004048 96.7170581,40.5352815 C97.0210082,41.4701582 96.6769274,42.4937911 95.8700001,43.055261 L87.1700001,49.055261 C86.567081,49.4716045 86.2071524,50.1575582 86.2071524,50.890261 C86.2071524,51.6229637 86.567081,52.3089175 87.1700001,52.725261 L95.8700001,58.725261 C96.6769274,59.2867308 97.0210082,60.3103637 96.7170581,61.2452404 C96.413108,62.1801172 95.5328343,62.805684 94.5500001,62.785261 L84.0000001,62.355261 C83.2592599,62.3328187 82.5557634,62.6798267 82.1227469,63.2812387 C81.6897303,63.8826506 81.5837715,64.6598858 81.8400001,65.355261 L85.3700001,75.285261 C85.6299457,76.1812512 85.2992481,77.1439705 84.5435869,77.6910961 C83.7879258,78.2382217 82.7700837,78.2518931 82.0000001,77.725261 L73.5900001,71.355261 C73.0115107,70.9051803 72.2475096,70.7711905 71.5503859,70.9975554 C70.8532621,71.2239203 70.3137207,71.7811868 70.1100001,72.485261 L67.1100001,82.595261 C66.8323572,83.54041 65.9650849,84.1895614 64.98,84.1895614 C63.9949152,84.1895614 63.1276429,83.54041 62.85,82.595261 L59.85,72.485261 C59.6414464,71.7949745 59.1092354,71.249847 58.4241474,71.0248035 C57.7390594,70.7997601 56.9872627,70.923106 56.41,71.355261 L48.05,77.775261 C47.2728776,78.386085 46.184651,78.4066005 45.3850581,77.825501 C44.5854653,77.2444016 44.268971,76.2030134 44.61,75.275261 L48.14,65.345261 C48.390586,64.654447 48.2847483,63.8845255 47.8570534,63.2869519 C47.4293585,62.6893782 46.7347178,62.3408742 46,62.355261 L35.47,62.655261 C34.4871658,62.675684 33.6068921,62.0501172 33.302942,61.1152404 C32.9989919,60.1803637 33.3430727,59.1567308 34.15,58.595261 L42.85,52.595261 C43.4529191,52.1789175 43.8128477,51.4929637 43.8128477,50.760261 C43.8128477,50.0275582 43.4529191,49.3416045 42.85,48.925261 L34.15,42.925261 C33.3430727,42.3637911 32.9989919,41.3401582 33.302942,40.4052815 C33.6068921,39.4704048 34.4871658,38.8448379 35.47,38.865261 L46,39.225261 C46.7425221,39.2527429 47.4495598,38.9069312 47.883716,38.3039364 C48.3178722,37.7009417 48.4215732,36.9207275 48.16,36.225261 L44.61,26.3552609 C44.268971,25.4275086 44.5854653,24.3861203 45.3850581,23.8050209 C46.184651,23.2239214 47.2728776,23.2444369 48.05,23.8552609 L56.41,30.2752609 C56.9884894,30.7253417 57.7524905,30.8593314 58.4496142,30.6329665 C59.146738,30.4066016 59.6862794,29.8493352 59.89,29.1452609 L62.89,19.0352609 C63.1741242,18.1053661 64.0303137,17.4685756 65.0026356,17.4639642 C65.9749574,17.4594027 66.8371161,18.0880879 67.1300001,19.0152609 Z" id="Path" fill="#291557" fill-rule="nonzero"></path>
                <polygon id="Path" fill="#051E27" fill-rule="nonzero" points="51.5 53.945261 79.7600001 52.695261 90.7100001 63.415261 69.1800001 80.475261 52.94 77.685261 45.35 61.255261"></polygon>
                <polygon id="Path" fill="#FB782C" fill-rule="nonzero" points="75.4600001 94.935261 65.2300001 100.465261 55.1 94.215261 57.64 75.775261 59.05 65.485261 71.4400001 65.485261 72.8400001 75.785261"></polygon>
                <path d="M72.8400001,75.785261 L68.4900001,80.625261 C66.6639055,82.3335466 63.8260946,82.3335466 62,80.625261 L57.64,75.775261 L59.05,65.485261 L71.4400001,65.485261 L72.8400001,75.785261 Z" id="Path" fill="#DC1638" fill-rule="nonzero"></path>
                <path d="M55.1,34.1352609 C55.1,34.1352609 65.4100001,24.8152609 75.8900001,34.4552609 L65.0000001,40.265261 L55.1,34.1352609 Z" id="Path" fill="#875BF2" fill-rule="nonzero"></path>
                <path d="M78.0000001,50.405261 L76.51,64.095261 C76.5269683,65.9745038 75.6879022,67.7593593 74.2300001,68.945261 L73.9300001,69.245261 L70.6200001,72.535261 L68.4800001,74.665261 C66.5879666,76.1868493 63.8920335,76.1868493 62,74.665261 L60,72.665261 L56.68,69.355261 L56.25,68.925261 C54.807634,67.7387791 53.9803232,65.9628187 54,64.095261 L52.51,50.405261 C52.51,42.755261 58.21,36.555261 65.2400001,36.555261 C72.2700001,36.555261 78.0000001,42.755261 78.0000001,50.405261 Z" id="Path" fill="#FB782C" fill-rule="nonzero"></path>
                <path d="M68.0000001,54.815261 C68.0000001,54.815261 69.1100001,56.375261 72.2000001,56.175261 C73.9412032,56.1499611 75.4713182,55.0144547 76.0000001,53.355261 L68.0000001,54.815261 Z" id="Path" fill="#CE0047" fill-rule="nonzero"></path>
                <path d="M76.0000001,53.355261 C73.6991868,55.0462854 70.7441597,55.5744965 68.0000001,54.785261 C68.3490409,54.2863551 68.7514166,53.8269762 69.2000001,53.415261 C69.7958484,52.842975 70.5242201,52.4272535 71.3200001,52.205261 C72.9736242,51.8619352 74.6938217,52.2846333 76.0000001,53.355261 L76.0000001,53.355261 Z" id="Path" fill="#FB782C" fill-rule="nonzero"></path>
                <path d="M62.51,54.815261 C62.51,54.815261 61.41,56.375261 58.32,56.175261 C56.5845795,56.1396198 55.062738,55.0072733 54.53,53.355261 L62.51,54.815261 Z" id="Path" fill="#CE0047" fill-rule="nonzero"></path>
                <path d="M54.53,53.355261 C54.53,53.355261 58.87,49.615261 62.53,54.775261 C59.787292,55.5657793 56.8330996,55.0414101 54.53,53.355261 Z" id="Path" fill="#FB782C" fill-rule="nonzero"></path>
                <path d="M100.71,91.435261 L85.0900001,100.435261 L64.83,112.235261 L29.83,91.435261 C37.51,91.435261 39.25,82.115261 35.6,71.055261 C31.95,59.995261 41.46,56.825261 45.11,53.055261 C48.76,49.285261 49.63,39.265261 54.63,34.5552609 C59.63,29.8452609 65.2900001,36.555261 65.2900001,36.555261 C61.0564345,38.7413389 58.017418,42.7004919 57,47.355261 C56.9674488,47.4535983 56.9407356,47.5537728 56.92,47.655261 C56.7229121,48.5420788 56.582627,49.4405719 56.5,50.345261 C56.4347108,51.2778122 56.1866715,52.188422 55.77,53.025261 C55.7755947,53.0583595 55.7755947,53.0921624 55.77,53.125261 C54.1,56.425261 50.32,57.445261 49.3,59.125261 C47.37,62.155261 47.94,64.355261 52.51,67.355261 C56.6229576,70.334297 59.0556927,75.1067727 59.05,80.185261 L59.05,90.955261 L65.2000001,95.465261 L71.4400001,90.955261 L71.4400001,80.205261 C71.4358081,75.1169055 73.8763264,70.336317 78.0000001,67.355261 C81.0000001,65.355261 82.2600001,63.735261 82.2600001,61.995261 C82.2046743,60.9416967 81.858539,59.9240589 81.2600001,59.055261 C80.2600001,57.375261 75.9300001,56.355261 74.0700001,53.055261 C73.600164,52.204772 73.3171983,51.2638258 73.2400001,50.295261 C73.161945,49.3741141 73.0249982,48.4589091 72.83,47.555261 C71.0600001,39.315261 65.2600001,36.555261 65.2600001,36.555261 C65.2600001,36.555261 70.9100001,29.7552609 75.9100001,34.4652609 C80.9100001,39.175261 81.7800001,49.355261 85.4300001,53.085261 C87.9000001,55.615261 93.0000001,57.885261 95.0000001,62.505261 C95.9400001,64.715261 96.1400001,67.505261 95.0000001,71.055261 C91.2900001,82.115261 93.0000001,91.435261 100.71,91.435261 Z" id="Path" fill="#875BF2" fill-rule="nonzero"></path>
                <path d="M29.83,91.435261 L45.45,100.435261 C47.39,96.435261 52.69,83.725261 44.82,79.585261 C35.41,74.585261 35.55,62.445261 35.55,62.445261 C34.61,64.665261 34.41,67.445261 35.6,71.005261 C39.25,82.105261 37.52,91.435261 29.83,91.435261 Z" id="Path" fill="#051E27" fill-rule="nonzero"></path>
                <path d="M100.71,91.435261 L85.0900001,100.435261 C83.1500001,96.435261 77.8500001,83.725261 85.7200001,79.585261 C95.1300001,74.585261 94.9900001,62.445261 94.9900001,62.445261 C95.9300001,64.665261 96.1300001,67.445261 94.9900001,71.005261 C91.2900001,82.105261 93.0000001,91.435261 100.71,91.435261 Z" id="Path" fill="#051E27" fill-rule="nonzero"></path>
                <path d="M57,47.355261 C56.9674488,47.4535983 56.9407356,47.5537728 56.92,47.655261 C56.7229121,48.5420788 56.582627,49.4405719 56.5,50.345261 C56.4347108,51.2778122 56.1866715,52.188422 55.77,53.025261 C53.7,52.545261 50.31,50.735261 52.28,43.925261 L57,47.355261 Z" id="Path" fill="#512AAB" fill-rule="nonzero"></path>
                <path d="M74.0500001,53.045261 C73.5800952,52.1983969 73.2970774,51.2606875 73.2200001,50.295261 C73.1370391,49.374695 73.0001372,48.4597896 72.8100001,47.555261 L77.8100001,43.885261 C80.4500001,51.105261 77.0000001,52.785261 74.0500001,53.045261 Z" id="Path" fill="#512AAB" fill-rule="nonzero"></path>
                <path d="M70.6300001,50.355261 L65.2400001,49.295261 L59.85,50.355261 C59.85,50.355261 59.21,51.685261 61.54,51.925261 C63.87,52.165261 63.75,54.735261 63.82,57.385261 C63.89,60.035261 63.82,63.695261 63.82,63.695261 C64.6416018,64.3937689 65.8483983,64.3937689 66.6700001,63.695261 C66.6700001,63.695261 66.6000001,60.025261 66.6700001,57.385261 C66.7400001,54.745261 66.6000001,52.165261 68.9400001,51.925261 C71.2800001,51.685261 70.6300001,50.355261 70.6300001,50.355261 Z" id="Path" fill="#FDD7CA" fill-rule="nonzero"></path>
                <polygon id="Path" fill="#231F1F" fill-rule="nonzero" points="65.2100001 38.125261 62.94 41.305261 65.2100001 50.095261 67.5200001 41.255261"></polygon>
                <polygon id="Path" fill="#FFFFFF" fill-rule="nonzero" points="65.2100001 38.125261 65.2100001 42.265261 65.9100001 43.215261 67.5200001 41.255261"></polygon>
                <path d="M43.15,86.735261 C43.15,86.735261 42.65,82.465261 42.48,78.595261 C42.31,74.725261 38.48,72.055261 37.58,68.875261 C36.68,65.695261 32.85,63.115261 32.85,63.115261 C32.7673236,66.3566563 33.8896915,69.5135386 36,71.975261 C39.52,75.925261 32.22,69.135261 32.22,69.135261 C32.22,69.135261 28.35,56.665261 24.39,56.065261 C24.39,56.065261 29.01,65.255261 29.82,71.395261" id="Path" fill="#DC1638" fill-rule="nonzero"></path>
                <path d="M30.44,75.065261 L27.17,66.895261 C27.17,66.895261 28.12,58.895261 27.6,56.835261 C27.6,56.835261 30.78,62.345261 29.75,65.955261 L32.33,71.795261 L33,78.935261 L30.44,75.065261 Z" id="Path" fill="#9A90C5" fill-rule="nonzero"></path>
                <path d="M37.75,98.885261 L36.2,84.885261 L29.32,75.755261 L30.18,68.705261 L39,63.115261 C38.1659404,66.0181039 36.1320976,68.4266977 33.41,69.735261 L33,75.665261 L35.06,70.765261 L41.86,68.015261 C41.86,68.015261 40.34,72.505261 37.13,73.015261 L36.7,78.255261 C39.3125095,78.5092383 41.4288113,80.4860938 41.86,83.075261 L47.36,98.895261" id="Path" fill="#9A90C5" fill-rule="nonzero"></path>
                <path d="M30.44,75.065261 L27.17,66.895261 C27.17,66.895261 28.12,58.895261 27.6,56.835261 C27.6,56.835261 30.78,62.345261 29.75,65.955261 L32.33,71.795261 L33,78.935261 L30.44,75.065261 Z" id="Path" fill="#FB782C" fill-rule="nonzero"></path>
                <path d="M41.88,83.065261 C41.4488113,80.4760938 39.3325095,78.4992383 36.72,78.245261 L37.15,73.005261 C40.36,72.505261 41.88,68.005261 41.88,68.005261 L35.08,70.755261 L33,75.665261 L33.43,69.735261 C36.1444739,68.4222222 38.1704866,66.0142861 39,63.115261 L30.14,68.705261 L29.28,75.755261 L36.16,84.865261 L37.71,98.865261 L47.34,98.865261 L41.88,83.065261 Z" id="Path" fill="#FB782C" fill-rule="nonzero"></path>
                <path d="M87.6800001,86.795261 C87.6800001,86.795261 88.1800001,82.525261 88.3500001,78.655261 C88.5200001,74.785261 92.4000001,72.115261 93.2600001,68.935261 C94.1200001,65.755261 98.0000001,63.175261 98.0000001,63.175261 C98.0743661,66.4205874 96.9411409,69.5779381 94.8200001,72.035261 C91.3000001,75.985261 98.6100001,69.195261 98.6100001,69.195261 C98.6100001,69.195261 102.48,56.725261 106.43,56.125261 C106.43,56.125261 101.81,65.315261 101,71.455261" id="Path" fill="#B63220" fill-rule="nonzero"></path>
                <path d="M100.39,75.125261 L103.66,66.955261 C103.66,66.955261 102.66,58.955261 103.23,56.895261 C103.23,56.895261 100.05,62.405261 101.08,66.015261 L98.5000001,71.855261 L97.8100001,78.995261 L100.39,75.125261 Z" id="Path" fill="#9A90C5" fill-rule="nonzero"></path>
                <path d="M93.0800001,98.945261 L94.6300001,84.945261 L101.51,75.835261 L100.65,68.835261 L91.7900001,63.245261 C92.6240597,66.1481039 94.6579025,68.5566977 97.3800001,69.865261 L97.8100001,75.795261 L95.7500001,70.895261 L89.0000001,68.075261 C89.0000001,68.075261 90.5100001,72.565261 93.7300001,73.075261 L94.1200001,78.355261 C91.5368781,78.6174404 89.4441246,80.5671346 89.0000001,83.125261 L83.4900001,98.945261" id="Path" fill="#9A90C5" fill-rule="nonzero"></path>
                <path d="M100.39,75.125261 L103.66,66.955261 C103.66,66.955261 102.66,58.955261 103.23,56.895261 C103.23,56.895261 100.05,62.405261 101.08,66.015261 L98.5000001,71.855261 L97.8100001,78.995261 L100.39,75.125261 Z" id="Path" fill="#FB782C" fill-rule="nonzero"></path>
                <path d="M100.65,68.765261 L91.7900001,63.175261 C92.6240597,66.0781039 94.6579025,68.4866977 97.3800001,69.795261 L97.8100001,75.725261 L95.7500001,70.825261 L89.0000001,68.075261 C89.0000001,68.075261 90.5100001,72.565261 93.7300001,73.075261 L94.1200001,78.355261 C91.5368781,78.6174404 89.4441246,80.5671346 89.0000001,83.125261 L83.4900001,98.945261 L93.1200001,98.945261 L94.6700001,84.945261 L101.55,75.835261 L100.65,68.765261 Z" id="Path" fill="#FB782C" fill-rule="nonzero"></path>
                <path d="M81.0600001,47.815261 C78.5100001,47.415261 77.0600001,50.095261 77.0600001,50.095261 L77.0600001,50.095261 C75.0600001,52.805261 70.2600001,53.635261 65.9300001,50.465261 C65.9300001,50.465261 78.9300001,50.295261 70.9300001,36.605261 C71.1100001,36.705261 75.9300001,39.265261 77.4800001,44.215261 C78.7300001,43.315261 78.6200001,41.145261 78.6200001,41.145261 C79.324871,43.2271427 79.098961,45.5117485 78.0000001,47.415261 C79.5100001,46.355261 81.0600001,47.815261 81.0600001,47.815261 Z" id="Path" fill="#CEBBFF" fill-rule="nonzero"></path>
                <path d="M77.4600001,44.225261 L76.0000001,46.295261 C75.583043,42.5627232 73.802502,39.1155958 71.0000001,36.615261 C71.0900001,36.715261 75.8600001,39.275261 77.4600001,44.225261 Z" id="Path" fill="#FFFFFF" fill-rule="nonzero"></path>
                <path d="M81.0600001,47.815261 C78.5100001,47.415261 77.0600001,50.095261 77.0600001,50.095261 L77.0600001,50.095261 C75.0600001,52.805261 70.2600001,53.635261 65.9300001,50.465261 C65.9300001,50.465261 73.2200001,52.065261 78.0000001,47.405261 C79.5100001,46.355261 81.0600001,47.815261 81.0600001,47.815261 Z" id="Path" fill="#FFFFFF" fill-rule="nonzero"></path>
                <path d="M64.65,50.475261 L64.65,50.475261 C60.33,53.645261 55.52,52.815261 53.53,50.105261 L53.53,50.105261 C53.53,50.105261 52.09,47.425261 49.53,47.825261 C49.53,47.825261 51.08,46.375261 52.62,47.425261 L52.62,47.425261 C51.5235679,45.5209363 51.297768,43.2374439 52,41.155261 C52.1206154,42.2570416 52.5122796,43.3117864 53.14,44.225261 C54.7,39.415261 59.23,36.865261 59.67,36.635261 C59.67,36.635261 59.67,36.635261 59.67,36.635261 C51.69,50.355261 64.65,50.475261 64.65,50.475261 Z" id="Path" fill="#CEBBFF" fill-rule="nonzero"></path>
                <path d="M55.33,46.295261 C54.4781816,45.7322184 53.7247892,45.032881 53.1,44.225261 C54.66,39.415261 59.19,36.865261 59.63,36.635261 C59.63,36.635261 59.63,36.635261 59.63,36.635261 C59.63,36.635261 54,40.495261 55.33,46.295261 Z" id="Path" fill="#FFFFFF" fill-rule="nonzero"></path>
                <path d="M64.64,50.475261 C60.32,53.645261 55.51,52.815261 53.52,50.105261 L53.52,50.105261 C53.52,50.105261 52.08,47.425261 49.52,47.825261 C49.52,47.825261 51.06,46.375261 52.61,47.425261 C57.73,52.735261 64.45,50.535261 64.64,50.475261 Z" id="Path" fill="#FFFFFF" fill-rule="nonzero"></path>
                <path d="M122.08,89.355261 L120.53,87.355261 L73.7100001,113.035261 L57.12,113.035261 L10.3,87.355261 L8.75000001,89.355261 L57.42,116.105261 L57.68,118.715261 C63.48,121.375261 67.3600001,121.375261 73.1600001,118.715261 L73.4100001,116.105261 L122.08,89.355261 Z" id="Path" fill="#FB782C" fill-rule="nonzero"></path>
                <polygon id="Path" fill="#FBBB2B" fill-rule="nonzero" points="118.38 88.485261 65.4100001 117.605261 12.45 88.485261 14.8 85.405261 18.14 86.735261 15.99 83.845261 18.15 80.995261 65.4100001 107.425261 112.67 80.995261 116.34 85.815261 114.67 87.305261 117.17 86.905261"></polygon>
                <polygon id="Path" fill="#FFFFFF" fill-rule="nonzero" points="114.18 82.975261 87.6800001 100.205261 115.17 84.285261"></polygon>
                <path d="M65.4200001,107.425261 C65.4200001,107.425261 59.42,76.425261 29.9,75.065261 C29.9,75.065261 56.97,75.675261 58.46,104.875261 L65.4200001,107.425261 Z" id="Path" fill="#FBBB2B" fill-rule="nonzero"></path>
                <path d="M65.4200001,107.425261 C65.4200001,107.425261 68.1700001,69.425261 40.75,65.135261 C40.75,65.135261 63.63,67.845261 63.02,106.135261 L65.4200001,107.425261 Z" id="Path" fill="#FBBB2B" fill-rule="nonzero"></path>
                <path d="M65.4200001,107.425261 C65.4200001,107.425261 67.4200001,96.135261 79.6900001,88.625261 C96.9800001,78.065261 112.69,80.995261 112.69,80.995261 C112.69,80.995261 78.2200001,79.355261 68.8700001,105.585261 L65.4200001,107.425261 Z" id="Path" fill="#FBBB2B" fill-rule="nonzero"></path>
                <circle id="Oval" fill="#FBBB2B" fill-rule="nonzero" cx="112.1" cy="32.9352609" r="1.92"></circle>
                <circle id="Oval" fill="#FBBB2B" fill-rule="nonzero" cx="99.7400001" cy="11.6752609" r="1.92"></circle>
                <circle id="Oval" fill="#FBBB2B" fill-rule="nonzero" cx="115.98" cy="16.3952609" r="1.92"></circle>
                <path d="M117.65,15.7552609 C118.11,14.8752609 115.43,15.4552609 115.43,15.4552609 C111.19,18.3252609 111.91,31.5652609 111.91,31.5652609 C112.79,33.9652609 113.73,31.9352609 113.73,31.9352609 C113.73,31.9352609 114.58,21.6352609 117.65,15.7552609 Z" id="Path" fill="#FBBB2B" fill-rule="nonzero"></path>
                <path d="M117.25,15.3552609 C111.262675,14.748943 105.426036,13.1079171 100,10.5052609 C99.1900001,10.0952609 98.5800001,11.4052609 99.3400001,11.9052609 C102.25,13.8252609 110.18,17.8152609 115.62,17.2052609 L117.25,15.3552609 Z" id="Path" fill="#FBBB2B" fill-rule="nonzero"></path>
                <path d="M98.7000001,10.7652609 C98.7000001,10.7652609 91.5600001,30.4752609 79.7000001,32.4152609 C79.7000001,32.4152609 88.3600001,35.2052609 93.8800001,25.1952609 C99.4000001,15.1852609 101,12.0952609 101,12.0952609 L98.7000001,10.7652609 Z" id="Path" fill="#FBBB2B" fill-rule="nonzero"></path>
                <path d="M128.22,35.5852609 C122.930599,32.6835708 118.186497,28.8835514 114.2,24.3552609 C113.61,23.6652609 112.55,24.6252609 113.05,25.3552609 C115,28.3552609 120.71,35.1052609 126,36.675261 L128.22,35.5852609 Z" id="Path" fill="#EF9A27" fill-rule="nonzero"></path>
                <circle id="Oval" fill="#EF9A27" fill-rule="nonzero" cx="116.58" cy="49.785261" r="1.92"></circle>
                <circle id="Oval" fill="#EF9A27" fill-rule="nonzero" cx="113.54" cy="25.3752609" r="1.92"></circle>
                <circle id="Oval" fill="#EF9A27" fill-rule="nonzero" cx="126.63" cy="36.0852609" r="1.92"></circle>
                <path d="M128.41,36.1552609 C129.18,35.5252609 126.49,35.0052609 126.49,35.0052609 C121.49,36.0052609 116.94,48.445261 116.94,48.445261 C116.81,51.0052609 118.47,49.5052609 118.47,49.5052609 C118.47,49.5052609 123.28,40.355261 128.41,36.1552609 Z" id="Path" fill="#EF9A27" fill-rule="nonzero"></path>
                <path d="M112.94,24.1352609 C112.94,24.1352609 98.6400001,39.475261 86.9400001,36.595261 C86.9400001,36.595261 93.8100001,42.595261 102.81,35.5052609 C111.81,28.4152609 114.55,26.2652609 114.55,26.2652609 L112.94,24.1352609 Z" id="Path" fill="#EF9A27" fill-rule="nonzero"></path>
                <path d="M129.73,50.745261 C124.988996,47.0334954 120.928662,42.5265241 117.73,37.425261 C117.26,36.645261 116.05,37.425261 116.42,38.245261 C117.85,41.435261 122.42,49.055261 127.32,51.455261 L129.73,50.745261 Z" id="Path" fill="#FB782C" fill-rule="nonzero"></path>
                <circle id="Oval" fill="#FB782C" fill-rule="nonzero" cx="115.93" cy="62.865261" r="1.92"></circle>
                <circle id="Oval" fill="#FB782C" fill-rule="nonzero" cx="116.91" cy="38.285261" r="1.92"></circle>
                <circle id="Oval" fill="#FB782C" fill-rule="nonzero" cx="128.08" cy="50.985261" r="1.92"></circle>
                <path d="M129.82,51.355261 C130.68,50.865261 128.12,49.905261 128.12,49.905261 C123,50.055261 116.5,61.615261 116.5,61.615261 C115.96,64.125261 117.84,62.905261 117.84,62.905261 C117.84,62.905261 124.08,54.655261 129.82,51.355261 Z" id="Path" fill="#FB782C" fill-rule="nonzero"></path>
                <path d="M116.52,36.965261 C116.52,36.965261 99.9100001,49.765261 88.8300001,44.965261 C88.8300001,44.965261 94.6400001,51.965261 104.67,46.475261 C114.7,40.985261 117.76,39.355261 117.76,39.355261 L116.52,36.965261 Z" id="Path" fill="#FB782C" fill-rule="nonzero"></path>
                <circle id="Oval" fill="#FBBB2B" fill-rule="nonzero" cx="17.9" cy="32.9352609" r="1.92"></circle>
                <circle id="Oval" fill="#FBBB2B" fill-rule="nonzero" cx="30.26" cy="11.6752609" r="1.92"></circle>
                <circle id="Oval" fill="#FBBB2B" fill-rule="nonzero" cx="14.02" cy="16.3952609" r="1.92"></circle>
                <path d="M12.35,15.7552609 C11.89,14.8752609 14.57,15.4552609 14.57,15.4552609 C18.81,18.3252609 18.09,31.5652609 18.09,31.5652609 C17.21,33.9652609 16.27,31.9352609 16.27,31.9352609 C16.27,31.9352609 15.42,21.6352609 12.35,15.7552609 Z" id="Path" fill="#FBBB2B" fill-rule="nonzero"></path>
                <path d="M12.75,15.3552609 C18.7373255,14.748943 24.5739639,13.1079171 30,10.5052609 C30.81,10.0952609 31.42,11.4052609 30.66,11.9052609 C27.75,13.8252609 19.82,17.8152609 14.38,17.2052609 L12.75,15.3552609 Z" id="Path" fill="#FBBB2B" fill-rule="nonzero"></path>
                <path d="M31.3,10.7652609 C31.3,10.7652609 38.44,30.4752609 50.3,32.4152609 C50.3,32.4152609 41.64,35.2052609 36.12,25.1952609 C30.6,15.1852609 29,12.0952609 29,12.0952609 L31.3,10.7652609 Z" id="Path" fill="#FBBB2B" fill-rule="nonzero"></path>
                <path d="M1.78,35.5852609 C7.06940095,32.6835708 11.8135036,28.8835514 15.8,24.3552609 C16.39,23.6652609 17.45,24.6252609 16.95,25.3552609 C15,28.3552609 9.29000001,35.1052609 4.05,36.675261 L1.78,35.5852609 Z" id="Path" fill="#EF9A27" fill-rule="nonzero"></path>
                <circle id="Oval" fill="#EF9A27" fill-rule="nonzero" cx="13.42" cy="49.785261" r="1.92"></circle>
                <circle id="Oval" fill="#EF9A27" fill-rule="nonzero" cx="16.46" cy="25.3752609" r="1.92"></circle>
                <circle id="Oval" fill="#EF9A27" fill-rule="nonzero" cx="3.37" cy="36.0852609" r="1.92"></circle>
                <path d="M1.59,36.1552609 C0.820000001,35.5252609 3.51,35.0052609 3.51,35.0052609 C8.51000001,36.0052609 13.06,48.445261 13.06,48.445261 C13.19,51.0052609 11.53,49.5052609 11.53,49.5052609 C11.53,49.5052609 6.72000001,40.355261 1.59,36.1552609 Z" id="Path" fill="#EF9A27" fill-rule="nonzero"></path>
                <path d="M17.06,24.1352609 C17.06,24.1352609 31.36,39.475261 43.06,36.595261 C43.06,36.595261 36.19,42.595261 27.19,35.5052609 C18.19,28.4152609 15.45,26.2652609 15.45,26.2652609 L17.06,24.1352609 Z" id="Path" fill="#EF9A27" fill-rule="nonzero"></path>
                <path d="M0.27,50.745261 C5.01100392,47.0334954 9.07133841,42.5265241 12.27,37.425261 C12.74,36.645261 13.95,37.425261 13.58,38.245261 C12.15,41.435261 7.58000001,49.055261 2.68,51.455261 L0.27,50.745261 Z" id="Path" fill="#FB782C" fill-rule="nonzero"></path>
                <circle id="Oval" fill="#FB782C" fill-rule="nonzero" cx="14.07" cy="62.865261" r="1.92"></circle>
                <circle id="Oval" fill="#FB782C" fill-rule="nonzero" cx="13.09" cy="38.285261" r="1.92"></circle>
                <circle id="Oval" fill="#FB782C" fill-rule="nonzero" cx="1.92" cy="50.985261" r="1.92"></circle>
                <path d="M0.18,51.355261 C-0.680000001,50.865261 1.88,49.905261 1.88,49.905261 C7.00000001,50.035261 13.5,61.595261 13.5,61.595261 C14.04,64.105261 12.16,62.885261 12.16,62.885261 C12.16,62.885261 5.92,54.655261 0.18,51.355261 Z" id="Path" fill="#FB782C" fill-rule="nonzero"></path>
                <path d="M13.48,36.965261 C13.48,36.965261 30.09,49.765261 41.17,44.965261 C41.17,44.965261 35.36,51.965261 25.33,46.475261 C15.3,40.985261 12.24,39.355261 12.24,39.355261 L13.48,36.965261 Z" id="Path" fill="#FB782C" fill-rule="nonzero"></path>
                <path d="M45.84,10.9652609 C45.84,10.9652609 63.2,-13.2947391 83.4500001,10.3552609 C83.4500001,10.3552609 67.1200001,32.2552609 45.84,10.9652609 Z" id="Path" fill="#FFFFFF" fill-rule="nonzero"></path>
                <path d="M45.84,11.5552609 C45.84,11.5552609 63.2,-12.7047391 83.4500001,10.9452609 C83.4500001,10.9452609 67.1200001,32.8452609 45.84,11.5552609 Z" id="Path" stroke="#875BF2" stroke-width="2.16"></path>
                <circle id="Oval" fill="#512AAB" fill-rule="nonzero" cx="64.64" cy="10.7252609" r="9.21000001"></circle>
                <circle id="Oval" fill="#291557" fill-rule="nonzero" cx="64.64" cy="10.7252609" r="3.58"></circle>
                <circle id="Oval" fill="#FFFFFF" fill-rule="nonzero" cx="66.0700001" cy="7.14526093" r="2.34"></circle>
                <circle id="Oval" fill="#FFFFFF" fill-rule="nonzero" cx="62.38" cy="16.2552609" r="1"></circle>
                <path d="M63.8,111.485261 L61.63,116.135261 L65.4200001,118.215261 L69.6900001,115.865261 L67.2400001,111.355261 C66.8868669,110.719772 66.2065823,110.336644 65.4800869,110.364099 C64.7535916,110.391553 64.1041634,110.824932 63.8,111.485261 L63.8,111.485261 Z" id="Path" fill="#FB782C" fill-rule="nonzero"></path>
                <path d="M66.0600001,65.915261 L65.2100001,66.605261 L64.36,65.915261 C63.11,65.915261 61.9,68.015261 61.9,68.015261 L68.5300001,68.015261 C68.5300001,68.015261 67.3100001,65.965261 66.0600001,65.915261 Z" id="Path" fill="#000000" fill-rule="nonzero"></path>
                <path d="M65.2100001,68.015261 L61.9,68.015261 L61.9,68.105261 C62.1067622,69.2014863 63.0644461,69.9953559 64.18,69.995261 L66.1800001,69.995261 C67.3346806,69.9913655 68.3107394,69.1389124 68.4700001,67.995261 L65.2100001,67.995261 L65.2100001,68.015261 Z" id="Path" fill="#B63220" fill-rule="nonzero"></path>
                <circle id="Oval" fill="#291557" fill-rule="nonzero" cx="43.18" cy="17.1352609" r="1.48"></circle>
                <circle id="Oval" fill="#291557" fill-rule="nonzero" cx="31.4" cy="28.1152609" r="1.48"></circle>
                <circle id="Oval" fill="#291557" fill-rule="nonzero" cx="86.5900001" cy="17.1352609" r="1.48"></circle>
                <circle id="Oval" fill="#291557" fill-rule="nonzero" cx="98.3700001" cy="28.1152609" r="1.48"></circle>
            </g>
        </g>
    </g>
</svg>