<?xml version="1.0" encoding="UTF-8"?>
<svg width="130px" height="130px" viewBox="0 0 130 130" version="1.1" xmlns="http://www.w3.org/2000/svg" xmlns:xlink="http://www.w3.org/1999/xlink">
    <title>cursed amulet</title>
    <g id="cursed-amulet" stroke="none" stroke-width="1" fill="none" fill-rule="evenodd">
        <g id="Group" transform="translate(-0.000000, -0.000000)">
            <g id="Layer_1" transform="translate(24.532291, 28.608971)">
                <path d="M27.7277095,14.1910286 C26.9317876,14.6195122 26.0416377,14.8429089 25.1377095,14.8410286 C24.8796972,14.846294 24.6217918,14.8261975 24.3677095,14.7810286 C21.9298012,14.4157254 19.773941,13.0016273 18.4677095,10.9110286 C17.3752202,9.30648587 16.83466,7.38995411 16.9277095,5.45102862 C16.9670296,4.76617395 17.1120788,4.09152652 17.3577095,3.45102862 C17.7725998,2.39075587 18.5108492,1.48806234 19.4677095,0.871028614 L19.8977095,0.621028614 C21.2277095,-0.138971387 22.6577095,2.33102862 21.3277095,3.09102862 L21.0377095,3.25102862 C20.72888,3.45991622 20.472259,3.73706693 20.2877095,4.06102862 C20.0132602,4.545242 19.8525398,5.08553618 19.8177095,5.64102862 C19.7581314,6.97400509 20.1336856,8.29019991 20.8877095,9.39102862 C21.7465598,10.7900973 23.1687287,11.7491497 24.7877095,12.0210286 C25.3068655,12.0856449 25.8337185,12.0024576 26.3077095,11.7810286 C27.6277095,10.9510286 29.0577095,13.3910286 27.7277095,14.1910286 Z" id="Path" fill="#FED02F" fill-rule="nonzero"></path>
                <path d="M24.7877095,11.9710286 L24.3677095,14.7810286 C21.9298012,14.4157254 19.773941,13.0016273 18.4677095,10.9110286 C17.3752202,9.30648587 16.83466,7.38995411 16.9277095,5.45102862 C16.9670296,4.76617395 17.1120788,4.09152652 17.3577095,3.45102862 C18.08841,4.24945058 19.2460561,4.49464645 20.2377095,4.06102862 C19.9632602,4.545242 19.8025398,5.08553618 19.7677095,5.64102862 C19.7227397,6.97963825 20.1159934,8.29633583 20.8877095,9.39102862 C21.7569906,10.7710836 23.1775812,11.7108589 24.7877095,11.9710286 Z" id="Path" fill="#FF9C12" fill-rule="nonzero"></path>
                <path d="M77.6777095,58.1710287 L77.6777095,58.1710287 C77.2677095,58.7910287 76.8177095,59.4110287 76.3277095,60.0210287 C72.5780236,64.4102284 67.7544293,67.7522901 62.3277095,69.7210287 C56.9956941,71.756144 51.3348918,72.7933928 45.6277095,72.7813173 C38.1727991,72.8074779 30.8238766,71.0157275 24.2177095,67.5610287 C23.8516462,67.3766124 23.5590173,67.0734066 23.3877095,66.7010287 L21.0977095,65.0910287 L22.7477095,65.3610287 L21.8777095,64.3610287 L23.5577095,64.3610287 L21.9777095,62.8610287 C21.9403967,62.8357692 21.9067462,62.8054838 21.8777095,62.7710287 L24.1877095,63.5410287 L21.4677095,60.8610287 L23.7677095,62.2210287 L23.3777095,61.2210287 L26.9377095,63.3910287 C29.0559679,64.4495776 31.2690344,65.3066805 33.5477095,65.9510287 L33.5977095,65.9510287 C44.0877095,68.9510287 56.9277095,68.1510287 66.0577095,62.4810287 C68.4948651,60.9973264 70.6623475,59.1105009 72.4677095,56.9010287 C73.7984133,55.2847728 74.7760456,53.4078551 75.3377095,51.3910287 C75.41964,51.1148841 75.4864064,50.8344654 75.5377095,50.5510287 C75.5423799,50.4877814 75.5423799,50.4242759 75.5377095,50.3610287 C76.2877095,46.3610286 74.9677095,42.1010286 71.5377095,38.0610286 C67.5377095,33.3210286 62.6177095,32.1310286 57.0877095,32.6910286 L56.5277095,32.7510286 C51.5277095,33.3510286 46.1677095,35.3010286 40.6277095,37.3010286 C28.6277095,41.6210286 14.9677095,46.5210286 5.23770947,36.0010286 C-1.44229053,28.7610286 -1.76229054,20.7010286 4.44770947,13.8510286 C9.72770947,8.12102862 19.0577095,3.79102862 29.4677095,2.29102862 C40.5877095,0.681028614 50.8177095,2.66102862 57.5377095,7.69102862 L60.5377095,9.78102862 L58.8277095,9.68102862 L59.5977095,11.2210286 L58.0477095,11.2210286 L58.8077095,11.9910286 L57.2777095,11.9910286 L58.0477095,13.5310286 L55.1477095,12.0010286 C54.9350884,11.931422 54.7356532,11.826634 54.5577095,11.6910286 C47.0977095,6.10102862 34.8877095,5.69102862 24.4377095,8.44102862 C23.2177095,8.76102862 22.0277095,9.12102862 20.8677095,9.53102862 C15.6577095,11.3610286 11.1377095,14.0110286 8.24770947,17.2210286 C3.82770947,22.1110286 4.07770947,27.3010286 8.99770947,32.6210286 C10.0042165,33.7182021 11.1747946,34.6526405 12.4677095,35.3910286 L12.7077095,35.5310286 C13.9555537,36.2259248 15.3056275,36.7187018 16.7077095,36.9910286 L16.9077095,36.9910286 C16.9077095,36.9910286 16.9077095,36.9910286 16.9077095,36.9910286 C23.3477095,38.1910286 31.0177095,35.4410286 38.9877095,32.5710286 C51.4677095,28.1410286 65.5777095,23.0710286 75.4677095,34.8710286 C81.7677095,42.3910286 82.5377095,50.7910287 77.6777095,58.1710287 Z" id="Path" fill="#B0937B" fill-rule="nonzero"></path>
                <path d="M62.3077095,69.7310287 C56.9756941,71.766144 51.3148918,72.8033928 45.6077095,72.7910287 C38.1527991,72.8174779 30.8038766,71.0257275 24.1977095,67.5710287 C23.8316462,67.3866124 23.5390173,67.0834066 23.3677095,66.7110287 L21.0977095,65.0910287 L22.7477095,65.3610287 L21.8777095,64.3610287 L23.5577095,64.3610287 L21.9777095,62.8610287 C23.2577095,64.0310287 36.4677095,75.1210287 62.3077095,69.7310287 Z" id="Path" fill="#1156CF" fill-rule="nonzero"></path>
                <path d="M24.3877095,6.13102862 C24.3877095,6.13102862 39.0977095,2.87102862 49.9877095,9.13102862 C49.9877095,9.13102862 38.5377095,3.55102862 20.8677095,9.54102862 L24.3877095,6.13102862 Z" id="Path" fill="#296FE6" fill-rule="nonzero"></path>
                <path d="M8.24770947,17.2210286 C3.82770947,22.1110286 4.07770947,27.3010286 8.99770947,32.6210286 C10.0042165,33.7182021 11.1747946,34.6526405 12.4677095,35.3910286 C-0.322290534,28.3010286 3.97770947,18.7810286 3.97770947,18.7810286 C10.6577095,7.31102862 24.4177095,6.12102862 24.4177095,6.12102862 C24.4177095,6.12102862 24.4177095,7.00102862 24.4177095,8.44102862 C23.1977095,8.76102862 22.0077095,9.12102862 20.8477095,9.53102862 C15.6577095,11.3910286 11.1377095,14.0110286 8.24770947,17.2210286 Z" id="Path" fill="#1156CF" fill-rule="nonzero"></path>
                <path d="M75.5777095,50.3910287 C76.3277095,46.3910286 75.0077095,42.1310286 71.5777095,38.0910286 C67.5777095,33.3510286 62.6577095,32.1610286 57.1277095,32.7210286 C58.1277095,31.0410286 59.2977095,30.0810286 60.4777095,30.2110286 C60.5277095,30.2010286 79.7377095,31.5110286 75.5777095,50.3910287 Z" id="Path" fill="#FED02F" fill-rule="nonzero"></path>
                <path d="M29.0577095,3.94102862 C28.0129371,2.3055501 26.4600784,1.05834461 24.6377095,0.391028614 C23.0916303,-0.203980261 21.3659407,-0.116787524 19.8877095,0.631028614 C18.8377095,1.24102861 20.2577095,3.72102862 21.3177095,3.11102862 C21.6753437,2.93536166 22.0692892,2.84629572 22.4677095,2.85102862 C22.8904369,2.85450744 23.3095861,2.92887263 23.7077095,3.07102862 C24.94734,3.53491722 26.0010074,4.39190006 26.7077095,5.51102862 C28.1977095,7.77102862 28.1377095,10.5610286 26.5677095,11.5910286 L26.3277095,11.7210286 C25.1677095,12.4010286 26.5877095,14.8610286 27.7577095,14.1910286 C27.88979,14.1274721 28.0168258,14.0539251 28.1377095,13.9710286 C31.0177095,12.0510286 31.4677095,7.55102862 29.0577095,3.94102862 Z" id="Path" fill="#FED02F" fill-rule="nonzero"></path>
                <path d="M16.6877095,35.7410286 C19.0577095,41.6710286 21.4677095,49.3910287 21.4677095,49.3910287 L30.9477095,56.5010287 L60.5277095,65.3910287 L64.6677095,60.0610287 L65.8577095,51.1810287 L64.0777095,23.3010286 L47.4677095,7.90102862 L46.3777095,7.82102862 L24.3777095,6.12102862 L15.4677095,16.1910286 C15.4677095,16.1910286 14.3177095,29.8210286 16.6877095,35.7410286 Z" id="Path" fill="#1156CF" fill-rule="nonzero"></path>
                <polygon id="Path" fill="#96BDFF" fill-rule="nonzero" points="64.0777095 23.3110286 63.4877095 25.0810286 58.1577095 23.8910286 52.1877095 18.2610286 47.4877095 13.8310286 46.3977095 7.82102862 47.4877095 7.90102862 59.2277095 18.8010286"></polygon>
                <polygon id="Path" fill="#D1E2FF" fill-rule="nonzero" points="64.0777095 23.3110286 63.4877095 25.0810286 58.1577095 23.8910286 52.1877095 18.2610286 59.2277095 18.8010286"></polygon>
                <polygon id="Path" fill="#6EA3FF" fill-rule="nonzero" points="47.4977095 13.8310286 48.0877095 10.2710286 47.4977095 7.90102862 24.3877095 6.12102862 31.1977095 11.7510286"></polygon>
                <path d="M60.5177095,65.3910287 L30.9077095,56.4810287 L21.4677095,49.3910287 C21.4677095,49.3910287 19.0977095,41.6810286 16.7277095,35.7610286 C14.3577095,29.8410286 15.4677095,16.1910286 15.4677095,16.1910286 L24.3477095,6.13102862 C30.2677095,8.49102862 31.1577095,11.7510286 31.1577095,11.7510286 L53.2077095,44.3910286 L55.7877095,48.2110287 C57.2603293,50.8300343 58.5145753,53.565963 59.5377095,56.3910287 C59.9027534,57.9457366 60.1402094,59.5276619 60.2477095,61.1210287 C60.3077095,61.7710287 60.3677095,62.4010287 60.3977095,62.9510287 C60.4677095,64.3310287 60.5177095,65.3910287 60.5177095,65.3910287 Z" id="Path" fill="#1156CF" fill-rule="nonzero"></path>
                <path d="M31.1977095,11.7510286 L27.6477095,20.0510286 L15.4677095,16.1910286 L24.3477095,6.13102862 C30.3077095,8.49102862 31.1977095,11.7510286 31.1977095,11.7510286 Z" id="Path" fill="#296FE6" fill-rule="nonzero"></path>
                <path d="M60.3977095,62.9310287 L60.3977095,63.5510287 L36.2377095,55.6910287 L41.5677095,48.7810287 L42.6177095,44.8710286 L53.2077095,44.3910286 L55.7877095,48.2110287 C57.2603293,50.8300343 58.5145753,53.565963 59.5377095,56.3910286 C59.9081273,57.9484476 60.1489501,59.5338641 60.2577095,61.1310287 C60.3077095,61.7410287 60.3577095,62.3910286 60.3977095,62.9310287 Z" id="Path" fill="#296FE6" fill-rule="nonzero"></path>
                <g id="Stake-logo" transform="translate(27.674614, 47.059003)" fill="#0D44A3">
                    <path d="M1.4830954,0.142025526 C1.6430954,0.272025527 1.7530954,0.482025527 1.6230954,0.642025527 C1.59291621,0.697472865 1.53939447,0.736402122 1.47734735,0.748035956 C1.41530024,0.75966979 1.35131126,0.742773794 1.3030954,0.702025527 C1.2230954,0.642025527 1.2430954,0.592025527 1.2430954,0.592025527 C1.2430954,0.592025527 1.4030954,0.592025527 1.4630954,0.522025527 C1.5230954,0.452025527 1.5430954,0.372025527 1.3930954,0.242025526 C1.2430954,0.112025526 0.983095396,0.0820255264 0.843095396,0.242025526 C0.703095396,0.402025527 1.2330954,1.02202553 1.0130954,1.24202553 C0.896329338,1.3623857 0.73578822,1.43031382 0.568095395,1.43031382 C0.400402571,1.43031382 0.239861453,1.3623857 0.123095395,1.24202553 C0.0581954823,1.19993858 0.0144633023,1.13203757 0.00298889256,1.0555415 C-0.00848551713,0.979045438 0.0133999623,0.901301778 0.063095395,0.842025527 C0.112037888,0.757636642 0.194871232,0.698336248 0.290531143,0.679204266 C0.386191054,0.660072283 0.485460447,0.682952131 0.563095395,0.742025527 C0.601209683,0.780909878 0.601209683,0.843141176 0.563095395,0.882025527 C0.435522382,0.825061054 0.285740067,0.857446419 0.193095395,0.962025527 C0.14354182,1.01566587 0.14354182,1.09838518 0.193095395,1.15202553 C0.283095395,1.22202553 0.583095395,1.37202553 0.763095396,1.15202553 C0.943095396,0.932025527 0.343095395,0.422025527 0.603095395,0.152025526 C0.863095396,-0.117974474 1.3430954,0.0320255263 1.4830954,0.142025526 Z M2.7930954,1.50202553 C2.7930954,1.50202553 2.9830954,1.59202553 2.8930954,1.69202553 C2.76262259,1.80022648 2.62570431,1.90041059 2.4830954,1.99202553 C2.63903261,2.01340593 2.79715818,2.01340593 2.9530954,1.99202553 C2.9530954,1.99202553 3.0530954,2.10202553 2.9530954,2.13202553 C2.80357303,2.14895426 2.65261776,2.14895426 2.5030954,2.13202553 C2.5030954,2.13202553 2.1630954,2.65202553 2.4530954,2.89202553 C2.54638789,2.9740492 2.66943727,3.01385929 2.7930954,3.00202553 C2.7930954,3.00202553 2.7930954,3.00202553 2.7930954,3.00202553 C2.77387013,3.04859516 2.73254984,3.08240267 2.6830954,3.09202553 C2.56316827,3.09412008 2.4475841,3.04716401 2.3630954,2.96202553 C2.0930954,2.74202553 2.1230954,2.41202553 2.3630954,2.07202553 C2.25201632,2.15311695 2.15418682,2.25094645 2.0730954,2.36202553 C2.0730954,2.36202553 1.8530954,2.30202553 1.9230954,2.19202553 L1.9230954,2.19202553 C1.86832674,2.21276719 1.80786405,2.21276719 1.7530954,2.19202553 C1.72227643,2.14314442 1.72227643,2.08090663 1.7530954,2.03202553 C1.66834178,2.04390282 1.58228868,2.02238955 1.5130954,1.97202553 C1.45583954,1.93163588 1.4315245,1.85869076 1.4530954,1.79202553 C1.34646937,1.78349531 1.24351434,1.74917697 1.1530954,1.69202553 C1.12247746,1.66363981 1.10507579,1.62377726 1.10507579,1.58202553 C1.10507579,1.54027379 1.12247746,1.50041125 1.1530954,1.47202553 C1.25258958,1.37079961 1.35955809,1.27720216 1.4730954,1.19202553 C1.40312706,1.17449712 1.33585068,1.14758657 1.2730954,1.11202553 C1.2730954,1.11202553 1.2730954,0.942025527 1.2730954,0.942025527 L1.2730954,0.942025527 L1.6330954,1.07202553 L1.8430954,0.912025527 C1.89097933,0.891453397 1.94521146,0.891453397 1.9930954,0.912025527 C2.02940138,0.904752298 2.06678941,0.904752298 2.1030954,0.912025527 C2.1030954,0.912025527 2.1030954,0.912025527 2.1030954,0.912025527 C2.1030954,0.912025527 1.8330954,1.13202553 1.8330954,1.13202553 C1.90003283,1.16208058 1.96370122,1.19894123 2.0230954,1.24202553 C2.0230954,1.24202553 2.0230954,1.31202553 2.0230954,1.32202553 L1.9030954,1.32202553 L1.7930954,1.33202553 L1.6330954,1.25202553 L1.2930954,1.51202553 C1.2930954,1.51202553 1.2930954,1.58202553 1.2930954,1.60202553 C1.35591168,1.61347041 1.42027911,1.61347041 1.4830954,1.60202553 C1.62653124,1.41895517 1.8840451,1.3717443 2.0830954,1.49202553 C2.0830954,1.49202553 2.0830954,1.55202553 2.0830954,1.59202553 L2.0830954,1.59202553 C2.0830954,1.59202553 2.0830954,1.59202553 2.0830954,1.67202553 C2.0830954,1.75202553 1.9030954,1.82202553 1.8430954,1.89202553 C1.7830954,1.96202553 1.7830954,1.98202553 1.8430954,2.00202553 C1.89816119,2.02107453 1.9580296,2.02107453 2.0130954,2.00202553 C2.2430954,1.88202553 2.7130954,1.55202553 2.7930954,1.50202553 Z M3.0830954,2.35202553 C3.1830954,2.41202553 3.2030954,2.51202553 3.1830954,2.54202553 C3.16289011,2.59785447 3.11892434,2.64182024 3.0630954,2.66202553 C2.93385179,2.7008881 2.79377899,2.66197899 2.7030954,2.56202553 C2.7030954,2.56202553 2.5930954,2.65202553 2.7030954,2.73202553 C2.77211054,2.76761581 2.85408025,2.76761581 2.9230954,2.73202553 C2.9230954,2.73202553 2.9230954,2.83202553 2.9230954,2.84202553 C2.81620268,2.86063548 2.70652852,2.83138904 2.6230954,2.76202553 C2.55588755,2.71097106 2.51642023,2.63142609 2.51642023,2.54702553 C2.51642023,2.46262497 2.55588755,2.38308 2.6230954,2.33202553 C2.7522052,2.267752 2.9039856,2.267752 3.0330954,2.33202553 L3.0830954,2.35202553 Z M2.0830954,1.67202553 C1.9830954,1.58202553 1.5430954,1.77202553 1.6730954,1.88202553 C1.8030954,1.99202553 2.0330954,1.73202553 2.0830954,1.67202553 Z M3.0830954,2.45202553 C3.0030954,2.39202553 2.8130954,2.45202553 2.7530954,2.52202553 C2.83608264,2.59475363 2.96010815,2.59475363 3.0430954,2.52202553 C3.0430954,2.52202553 3.0530954,2.46202553 3.0330954,2.45202553 L3.0830954,2.45202553 Z" id="Shape"></path>
                </g>
                <path d="M16.6877095,35.7410286 C19.0577095,41.6710286 21.4677095,49.3910287 21.4677095,49.3910287 L30.9477095,56.5010287 L60.5277095,65.3910287 C60.5277095,65.3910287 60.4577095,63.3910287 60.2577095,61.1310287 C51.6877095,60.4210287 38.6077095,54.7310287 38.6077095,54.7310287 L40.5277095,53.6410287 L41.5277095,48.8110287 L38.5277095,49.9910287 L30.2377095,50.5810287 C28.215091,49.2975466 26.4120665,47.6971091 24.8977095,45.8410286 C23.3869096,44.0056665 22.5504748,41.7081177 22.5277095,39.3310286 C22.5277095,38.7410286 31.4177095,32.2210286 31.4177095,32.2210286 L30.8077095,30.0010286 L22.6077095,33.3910286 L18.4677095,32.7810286 C14.9077095,26.8610286 15.4677095,16.1910286 15.4677095,16.1910286 C15.4677095,16.1910286 14.3177095,29.8210286 16.6877095,35.7410286 Z" id="Path" fill="#0D44A3" fill-rule="nonzero"></path>
                <path d="M55.7877095,48.1810287 C52.8152277,48.0849546 49.8704654,47.5767728 47.0377095,46.6710286 C44.7977275,45.9555447 42.6470498,44.9858944 40.6277095,43.7810286 C39.5644138,43.1609723 38.5422853,42.4728728 37.5677095,41.7210286 C35.1168626,39.9211662 32.9668452,37.744147 31.1977095,35.2710286 L27.6477095,20.0510286 L31.1977095,11.7510286 L47.4677095,13.8210286 L51.7777095,17.8910286 L54.4677095,20.3910286 L58.1777095,23.8810286 C58.3677095,24.6410286 58.5377095,25.3710286 58.6877095,26.0910286 C61.6977095,40.6510286 55.7877095,48.1810287 55.7877095,48.1810287 Z" id="Path" fill="#367BF1" fill-rule="nonzero"></path>
                <path d="M46.2277095,30.2110286 C45.3935189,30.400797 44.5229316,30.1118853 43.9677095,29.4610286 C42.8277095,28.3210286 41.6977095,23.4610286 42.4577095,22.6710286 C43.2177095,21.8810286 48.8577095,24.1810286 49.2377095,24.9310286 C49.4857796,25.5304135 49.6148449,26.1723432 49.6177095,26.8210286 L52.0677095,28.5110286 C52.0677095,28.5110286 54.1777095,27.2910286 54.2477095,26.3910286 C54.3177095,25.4910286 54.3277095,25.1210286 54.3277095,25.1210286 C54.3277095,25.1210286 53.1977095,22.8610286 53.5677095,22.8610286 C53.9377095,22.8610286 55.0777095,24.3910286 55.0777095,24.3910286 C55.0777095,24.3910286 55.3577095,23.1810286 55.7377095,23.5510286 C56.1177095,23.9210286 55.8277095,24.7710286 55.8277095,24.7710286 C55.8277095,24.7710286 56.8277095,23.9010286 57.2777095,24.3210286 C57.7277095,24.7410286 56.5877095,25.5210286 56.5877095,25.5210286 C56.5877095,25.5210286 56.9577095,27.4010286 56.2077095,27.7810286 L53.2077095,29.2910286 L55.0777095,33.3910286 C55.0777095,33.3910286 58.4677095,30.7510286 59.2277095,31.5110286 C59.9877095,32.2710286 56.9577095,36.7810286 56.9577095,36.7810286 C56.9577095,36.7810286 60.3577095,37.1610286 60.3577095,37.5410286 C60.3577095,37.9210286 58.0877095,37.9110286 58.0877095,37.9110286 C58.0877095,37.9110286 59.9777095,39.8010286 59.2277095,39.8010286 C58.4777095,39.8010286 57.3377095,38.6710286 57.3377095,38.6710286 C57.3377095,38.6710286 57.7177095,40.9310286 57.3377095,40.5510286 C56.884273,39.8385894 56.505599,39.0812414 56.2077095,38.2910286 C56.2077095,38.2910286 55.8277095,40.1710286 54.3277095,40.5510286 C52.8277095,40.9310286 49.0477095,39.8010286 48.6677095,40.1710286 C48.2877095,40.5410286 46.7877095,42.4310286 48.6677095,43.5610286 C50.5477095,44.6910286 56.5077095,39.6710286 60.1677095,43.5610286 C57.5100524,42.6900358 54.5904895,43.2701567 52.4677095,45.0910286 C50.3477095,46.7010286 45.6877095,46.2210286 45.3077095,42.4510286 C44.9277095,38.6810286 47.5677095,38.3110286 47.5677095,38.3110286 C47.5677095,38.3110286 44.9077095,36.3910286 45.2777095,35.6710286 C45.6477095,34.9510286 47.5377095,35.3010286 47.5377095,35.3010286 L46.7877095,34.1610286 L41.5177095,33.0310286 C41.5177095,33.0310286 41.0977095,34.3110286 40.3477095,34.3110286 C39.5977095,34.3110286 40.0077095,33.0310286 40.0077095,33.0310286 C40.0077095,33.0310286 38.0077095,33.5210286 38.0077095,32.7710286 C38.0077095,32.0210286 39.5977095,31.9010286 39.5977095,31.9010286 C39.5977095,31.9010286 38.5977095,30.8110286 38.7777095,30.4610286 C39.0777095,29.7210286 40.7777095,31.1510286 40.7777095,31.1510286 C41.4865123,31.6108549 42.2445668,31.9898821 43.0377095,32.2810286 C44.0536661,32.4287852 45.0906796,32.2974302 46.0377095,31.9010286 L46.2277095,30.2110286 Z" id="Path" fill="#1156CF" fill-rule="nonzero"></path>
                <path d="M55.7877095,48.1810287 C52.8152277,48.0849546 49.8704654,47.5767728 47.0377095,46.6710286 L58.6677095,26.1010286 C61.6977095,40.6510286 55.7877095,48.1810287 55.7877095,48.1810287 Z" id="Path" fill="#96BDFF" fill-rule="nonzero"></path>
                <polygon id="Path" fill="#96BDFF" fill-rule="nonzero" points="33.2177095 13.2610286 43.9377095 14.3010286 42.4977095 18.2610286 36.0677095 16.8310286"></polygon>
                <polygon id="Path" fill="#367BF1" fill-rule="nonzero" points="37.8877095 13.3210286 43.4477095 17.6410286 43.8077095 16.6510286 39.5777095 13.4910286"></polygon>
                <polygon id="Path" fill="#96BDFF" fill-rule="nonzero" points="46.0677095 15.4010286 44.6377095 18.9710286 46.7777095 20.4010286 48.9177095 17.5410286"></polygon>
            </g>
        </g>
    </g>
</svg>