<?xml version="1.0" encoding="UTF-8"?>
<svg width="130px" height="130px" viewBox="0 0 130 130" version="1.1" xmlns="http://www.w3.org/2000/svg" xmlns:xlink="http://www.w3.org/1999/xlink">
    <title>bat mirror</title>
    <g id="bat-mirror" stroke="none" stroke-width="1" fill="none" fill-rule="evenodd">
        <g id="Group" transform="translate(-0.000000, -0.000000)" fill-rule="nonzero">
            <g id="Layer_1" transform="translate(20.284308, 23.160000)">
                <path d="M44.7156916,1.0658141e-14 C44.7156916,1.0658141e-14 20.7756916,10.22 20.7756916,36.36 L20.7756916,70.3600001 L68.6556916,70.3600001 L68.6556916,36.36 C68.6556916,10.22 44.7156916,1.0658141e-14 44.7156916,1.0658141e-14 Z" id="Path" fill="#FF9C12"></path>
                <path d="M22.4356916,68.6900001 L22.4356916,36.36 C22.4356916,26.06 26.2356916,17.5 33.7356916,10.89 C36.9930992,8.04266937 40.7044532,5.76109932 44.7156916,4.14 C48.7361318,5.7548552 52.455066,8.03692844 55.7156916,10.89 C63.2156916,17.5 67.0156916,26.06 67.0156916,36.36 L67.0156916,68.6900001 L22.4356916,68.6900001 Z" id="Path" fill="#99001A"></path>
                <path d="M25.8156916,67.4100001 L25.8156916,37.25 C25.6137064,28.7415001 29.2490042,20.5932923 35.7156916,15.06 C38.3964277,12.7000119 41.4340667,10.779549 44.7156916,9.37000001 C47.9973165,10.779549 51.0349554,12.7000119 53.7156916,15.06 C60.182379,20.5932923 63.8176767,28.7415001 63.6156916,37.25 L63.6156916,67.4100001 L25.8156916,67.4100001 Z" id="Path" fill="#FC274C"></path>
                <path d="M28.5956916,74.9400001 L28.5956916,37.59 C28.5956916,23.43 38.1056916,16.21 43.7656916,13.16 L44.6656916,12.67 L45.5756916,13.16 C51.2356916,16.21 60.7156916,23.43 60.7156916,37.59 L60.7156916,74.9400001 L28.5956916,74.9400001 Z" id="Path" fill="#99001A"></path>
                <polygon id="Path" fill="#FC274C" points="70.5056916 72.0000001 18.9256916 72.0000001 17.8256916 70.3500001 18.9256916 68.6900001 70.5056916 68.6900001 71.6056916 70.3500001"></polygon>
                <polygon id="Path" fill="#C90E2E" points="44.7856916 72.0000001 21.1056916 72.0000001 24.0456916 74.9400001 44.7856916 74.9400001 65.5256916 74.9400001 68.4656916 72.0000001"></polygon>
                <polygon id="Path" fill="#FC274C" points="44.7856916 74.9400001 28.2456916 74.9400001 31.5056916 78.1900001 44.7856916 78.1900001 58.0656916 78.1900001 61.3256916 74.9400001"></polygon>
                <path d="M44.7156916,15.51 C39.6356916,18.4 31.0856916,25.26 31.0856916,38.69 L31.0856916,74.6900001 L58.3056916,74.6900001 L58.3056916,38.69 C58.3056916,25.26 49.7156916,18.4 44.7156916,15.51 Z" id="Path" fill="#FC274C"></path>
                <rect id="Rectangle" fill="#FF9C12" x="66.9956916" y="36.36" width="3.42" height="2"></rect>
                <rect id="Rectangle" fill="#FF9C12" x="66.9956916" y="42.42" width="3.42" height="1.1"></rect>
                <rect id="Rectangle" fill="#FF9C12" x="19.0056916" y="36.36" width="3.42" height="2"></rect>
                <rect id="Rectangle" fill="#C90E2E" x="19.7756916" y="38.36" width="2.65" height="4.06"></rect>
                <rect id="Rectangle" fill="#C90E2E" x="66.9956916" y="38.36" width="2.65" height="4.06"></rect>
                <rect id="Rectangle" fill="#C90E2E" x="66.9956916" y="43.52" width="2.26" height="4.06"></rect>
                <path d="M35.1056916,68.9400001 L35.1056916,41.94 C35.1056916,36.08 38.5856916,35.1 38.7356916,35.06 L41.0856916,34.56 L39.7356916,32.56 C39.115505,31.4183912 38.7922656,30.1391883 38.7956916,28.84 C38.7956916,25.42 41.6456916,22.18 44.6656916,22.18 C47.6856916,22.18 50.5356916,25.42 50.5356916,28.84 C50.5407585,30.1457453 50.2175212,31.431817 49.5956916,32.58 L48.3056916,34.58 L50.6156916,35.1 C50.7456916,35.1 54.2156916,36.1 54.2156916,41.97 L54.2156916,68.9700001 L35.1056916,68.9400001 Z" id="Path" fill="#FFB3C0"></path>
                <path d="M54.2156916,41.91 C54.2156916,37.6 52.3356916,35.91 51.2956916,35.34 L35.1056916,50.76 L35.1056916,68.9400001 L54.2156916,49.07 L54.2156916,41.91 Z" id="Path" fill="#FFD4DB"></path>
                <rect id="Rectangle" fill="#FF9C12" x="19.0056916" y="42.42" width="3.42" height="1.1"></rect>
                <rect id="Rectangle" fill="#C90E2E" x="20.1656916" y="43.52" width="2.26" height="4.06"></rect>
                <polygon id="Path" fill="#C90E2E" points="44.7856916 78.1900001 37.2456916 78.1900001 37.2456916 81.9400001 44.7856916 81.9400001 52.3256916 81.9400001 52.3256916 78.1900001"></polygon>
                <path d="M29.4756916,48.3 C29.4756916,48.3 30.3956916,57.3 30.8856916,59.51 C31.7756916,63.51 41.6956916,68.1900001 41.6956916,68.1900001 L44.6956916,80.2500001 L44.6956916,83.6800001 L39.8456916,81.0200001 C39.8456916,81.0200001 27.2656916,69.1400001 13.8456916,73.2200001 C13.8456916,73.2200001 14.2656916,60.64 11.4256916,58.75 C8.58569155,56.86 7.71569155,61.23 7.71569155,61.23 C6.91876497,59.1728403 6.73807738,56.9281444 7.19569155,54.77 C7.70569155,52.46 5.82569155,50.72 3.58569155,52.84 L7.71569155,48.84 L29.4756916,48.3 Z" id="Path" fill="#7A071B"></path>
                <path d="M26.8356916,49.09 C26.8356916,49.09 22.9656916,57.03 22.1356916,59.84 C22.1356916,59.84 16.4256916,67.5200001 13.8256916,73.1900001 C13.8256916,73.1900001 16.3856916,63.37 19.5556916,59.29 C21.2791944,55.7723672 23.1919972,52.3506868 25.2856916,49.04 L26.8356916,49.09 Z" id="Path" fill="#54000E"></path>
                <path d="M19.7856916,49.36 C19.7856916,49.36 16.0556916,52.36 15.3556916,53.14 C15.3556916,53.14 8.51569155,55.89 7.68569155,60.36 C7.68569155,60.36 7.79569155,55.59 13.0056916,52.52 C14.343147,51.3903689 15.7419417,50.3354307 17.1956916,49.36 L19.7856916,49.36 Z" id="Path" fill="#54000E"></path>
                <path d="M59.9556916,48.3 C59.9556916,48.3 59.0356916,57.3 58.5456916,59.51 C57.6556916,63.51 47.7356916,68.1900001 47.7356916,68.1900001 L44.6556916,80.1000001 L44.6556916,83.6800001 L49.4956916,81.0200001 C49.4956916,81.0200001 62.2056916,69.1400001 75.6056916,73.2200001 C75.6056916,73.2200001 75.1856916,60.64 78.0256916,58.75 C80.8656916,56.86 81.7156916,61.23 81.7156916,61.23 C82.5126182,59.1728403 82.6933058,56.9281444 82.2356916,54.77 C81.7256916,52.46 83.6056916,50.72 85.8456916,52.84 L81.7156916,48.84 L59.9556916,48.3 Z" id="Path" fill="#7A071B"></path>
                <path d="M62.5956916,49.09 L60.9256916,49.09 C60.9256916,49.09 61.2356916,65.3800001 59.9256916,66.6800001 C58.6156916,67.9800001 50.1256916,68.2100001 50.1256916,68.2100001 L50.2456916,71.6700001 C54.9156916,69.0100001 63.2456916,71.6700001 63.2456916,71.6700001 C64.7156916,69.3400001 62.5956916,49.09 62.5956916,49.09 Z" id="Path" fill="#54000E"></path>
                <path d="M26.8356916,49.09 L28.5056916,49.09 C28.5056916,49.09 28.1956916,65.3800001 29.5056916,66.6800001 C30.8156916,67.9800001 39.3056916,68.2100001 39.3056916,68.2100001 L39.1856916,71.6700001 C34.5156916,69.0100001 26.1856916,71.6700001 26.1856916,71.6700001 C24.7156916,69.3400001 26.8356916,49.09 26.8356916,49.09 Z" id="Path" fill="#54000E"></path>
                <path d="M51.5456916,68.9700001 C51.5456916,73.5800001 49.5456916,81.9700001 44.7256916,81.9700001 C39.9056916,81.9700001 37.8756916,73.6100001 37.8856548,68.9700001 L37.8856548,68.4100001 L37.9556916,65.9200001 L37.9556916,64.78 L51.4156916,64.78 L51.4156916,65.8900001 L51.4856916,68.4500001 L51.4856916,68.4500001 L51.5456916,68.9700001 Z" id="Path" fill="#54000E"></path>
                <path d="M51.4556916,65.8900001 C50.9656916,67.2700001 48.8156916,74.0100001 44.6656916,73.8900001 C40.5156916,73.7700001 38.3956916,67.4000001 37.9756916,65.9500001 L37.9756916,64.81 L51.4156916,64.81 L51.4556916,65.8900001 Z" id="Path" fill="#2E0008"></path>
                <path d="M41.3056916,63.17 L41.3056916,54.61 C41.3056916,54.61 37.1656916,56.84 38.9156916,62.84 L41.3056916,63.17 Z" id="Path" fill="#FC274C"></path>
                <path d="M48.1256916,63.17 L48.1256916,54.61 C48.1256916,54.61 52.2656916,56.84 50.5156916,62.84 L48.1256916,63.17 Z" id="Path" fill="#FC274C"></path>
                <path d="M42.4756916,70.3700001 C42.5038714,70.7158618 42.5918425,71.0542124 42.7356916,71.3700001 C43.1256916,72.5800001 43.5956916,72.9900001 43.7356916,72.9800001 C43.535112,72.102155 43.3815599,71.2142237 43.2756916,70.3200001 L42.4756916,70.3700001 Z M46.1356916,70.3700001 C46.0430319,71.2634966 45.9028332,72.1514217 45.7156916,73.0300001 C45.8756916,73.0300001 46.3456916,72.6300001 46.7156916,71.4200001 C46.8595406,71.1042124 46.9475118,70.7658618 46.9756916,70.4200001 L46.1356916,70.3700001 Z" id="Shape" fill="#FC274C"></path>
                <path d="M44.7156916,59.08 C39.8756916,59.08 38.1756916,62.48 38.0256916,64.85 C37.8756916,67.2200001 41.2756916,67.9600001 41.7656916,69.9100001 C42.2556916,71.8600001 47.1756916,71.9100001 47.6656916,69.9100001 C48.1556916,67.9100001 51.5556916,67.2300001 51.4056916,64.85 C51.2556916,62.47 49.5556916,59.08 44.7156916,59.08 Z" id="Path" fill="#54000E"></path>
                <path d="M46.7156916,67.3800001 L49.0656916,63.94 C49.0656916,63.94 50.2156916,66.5100001 49.0656916,67.3200001 C48.3566275,67.7824492 47.4474309,67.8056628 46.7156916,67.3800001 L46.7156916,67.3800001 Z" id="Path" fill="#FC274C"></path>
                <path d="M42.7156916,67.3800001 L40.3956916,63.94 C40.3956916,63.94 39.2456916,66.5100001 40.3956916,67.3200001 C41.0989235,67.765856 41.9903536,67.7889102 42.7156916,67.3800001 L42.7156916,67.3800001 Z" id="Path" fill="#FC274C"></path>
                <path d="M62.5956916,49.09 C62.5956916,49.09 66.4656916,57.03 67.2956916,59.87 C67.2956916,59.87 73.0056916,67.5500001 75.6056916,73.2200001 C75.6056916,73.2200001 73.0456916,63.4 69.8756916,59.32 C68.1521887,55.8023672 66.2393859,52.3806868 64.1456916,49.07 L62.5956916,49.09 Z" id="Path" fill="#54000E"></path>
                <path d="M69.6456916,49.36 C69.6456916,49.36 73.3756916,52.36 74.0756916,53.14 C74.0756916,53.14 80.9156916,55.89 81.7456916,60.36 C81.7456916,60.36 81.6356916,55.59 76.4256916,52.52 C75.0882362,51.3903689 73.6894414,50.3354307 72.2356916,49.36 L69.6456916,49.36 Z" id="Path" fill="#54000E"></path>
                <path d="M29.8856916,49.01 C30.735406,49.1262011 31.522902,49.5199492 32.1256916,50.13 C32.1256916,50.13 32.6056916,47.88 30.6556916,47.41 C28.7056916,46.94 11.6556916,45.46 9.51569155,46.05 C7.37569155,46.64 0.255691543,52.67 0.0156915424,54.26 C-0.0604516645,55.4890787 0.14120475,56.7195246 0.605691543,57.86 C0.605691543,57.86 4.71569155,51.72 8.33569155,50.54 C11.9556916,49.36 29.8856916,49.01 29.8856916,49.01 Z" id="Path" fill="#FF9C12"></path>
                <path d="M59.5456916,49.01 C58.6959772,49.1262011 57.9084811,49.5199492 57.3056916,50.13 C57.3056916,50.13 56.8256916,47.88 58.7756916,47.41 C60.7256916,46.94 77.7756916,45.46 79.9156916,46.05 C82.0556916,46.64 89.1756916,52.67 89.4156916,54.26 C89.4918348,55.4890787 89.2901784,56.7195246 88.8256916,57.86 C88.8256916,57.86 84.7556916,51.72 81.0956916,50.54 C77.4356916,49.36 59.5456916,49.01 59.5456916,49.01 Z" id="Path" fill="#FF9C12"></path>
                <polygon id="Path" fill="#FF9C12" points="52.3256916 81.6100001 44.7856916 81.6100001 37.2456916 81.6100001 35.9556916 82.1200001 35.9556916 83.6800001 53.6156916 83.6800001 53.6156916 82.1200001"></polygon>
            </g>
        </g>
    </g>
</svg>