<?xml version="1.0" encoding="UTF-8"?>
<svg width="130px" height="130px" viewBox="0 0 130 130" version="1.1" xmlns="http://www.w3.org/2000/svg" xmlns:xlink="http://www.w3.org/1999/xlink">
    <title>scatter-bookoflife</title>
    <g id="scatter-bookoflife" stroke="none" stroke-width="1" fill="none" fill-rule="evenodd">
        <g id="Group" transform="translate(-0.000000, -0.000000)" fill-rule="nonzero">
            <g id="Layer_1" transform="translate(7.090000, 4.540000)">
                <path d="M57.91,115.82 C25.9271902,115.82 -8.8817842e-16,89.8928099 -8.8817842e-16,57.91 C-8.8817842e-16,25.9271902 25.9271902,4.4408921e-15 57.91,4.4408921e-15 C89.8928099,4.4408921e-15 115.82,25.9271902 115.82,57.91 C115.770442,89.8722597 89.8722597,115.770442 57.91,115.82 Z M57.91,1.57999911 C35.1257322,1.57595522 14.5827012,15.2977544 5.86073661,36.3465123 C-2.86122803,57.3952702 1.95565902,81.6254475 18.0651393,97.7377882 C34.1746197,113.850129 58.4039414,118.671318 79.4542475,109.95309 C100.504554,101.234863 114.23,80.6942683 114.23,57.91 C114.196941,26.8174072 89.0025865,1.61857939 57.91,1.57999911 Z" id="Shape" fill="#FBBB2B"></path>
                <path d="M105.28,64.61 L104.18,70.1900001 L106.91,71.8200001 L106.62,72.9800001 L107.76,73.6200001 L109.45,66.8500001 L105.28,64.61 Z M107.28,70.4000001 L105.5,69.4000001 L105.69,68.4000001 L106.95,69.0900001 L107.15,68.0900001 L105.91,67.4600001 L106.11,66.4000001 L108.11,67.5000001 L107.28,70.4000001 Z M108.67,65.2100001 L108.92,64.11 L110.02,64.78 L109.77,65.7800001 L108.67,65.2100001 Z" id="Shape" fill="#FBBB2B"></path>
                <path d="M24.13,92.2900001 L23.03,97.8700001 L25.78,99.4600001 L25.49,100.62 L26.63,101.25 L28.32,94.4900001 L24.13,92.2900001 Z M26.13,98.0700001 L24.34,97.0700001 L24.53,96.1200001 L25.79,96.8000001 L25.99,95.8000001 L24.73,95.0900001 L24.91,94.0200001 L26.91,95.1200001 L26.13,98.0700001 Z M27.51,92.8800001 L27.77,91.7800001 L28.91,92.4600001 L28.65,93.4600001 L27.51,92.8800001 Z" id="Shape" fill="#FBBB2B"></path>
                <path d="M38.04,7.68000001 L36.91,13.26 L39.65,14.89 L39.36,16.05 L40.5,16.68 L42.19,9.92000001 L38.04,7.68000001 Z M40.04,13.46 L38.26,12.46 L38.44,11.46 L39.7,12.14 L39.91,11.14 L38.63,10.46 L38.84,9.46000001 L40.78,10.56 L40.04,13.46 Z M41.43,8.27000001 L41.68,7.17000001 L42.78,7.85000001 L42.53,8.85000001 L41.43,8.27000001 Z" id="Shape" fill="#FBBB2B"></path>
                <path d="M108.17,51.46 L109.76,52.53 L109.04,53.53 L104.43,50.46 L105.26,49.46 L107.06,50.69 L107.78,49.77 L105.98,48.57 L108.05,46.04 L109.13,46.79 L107.76,48.46 L109.53,49.67 L108.17,51.46 Z M111.26,47.66 L110.26,47 L109.48,48 L110.48,48.68 L111.26,47.66 Z" id="Shape" fill="#FBBB2B"></path>
                <path d="M40.91,106.27 L42.5,107.34 L41.78,108.34 L37.17,105.28 L37.99,104.28 L39.8,105.51 L40.52,104.59 L38.72,103.39 L40.79,100.85 L41.87,101.6 L40.5,103.23 L42.26,104.43 L40.91,106.27 Z M44.01,102.46 L43.01,101.81 L42.22,102.81 L43.22,103.48 L44.01,102.46 Z" id="Shape" fill="#FBBB2B"></path>
                <path d="M23.36,22.68 L24.91,23.75 L24.19,24.75 L19.58,21.69 L20.4,20.69 L22.21,21.92 L22.93,21 L21.13,19.8 L23.2,17.27 L24.28,18.01 L22.91,19.65 L24.67,20.85 L23.36,22.68 Z M26.45,18.89 L25.45,18.23 L24.66,19.23 L25.66,19.91 L26.45,18.89 Z" id="Shape" fill="#FBBB2B"></path>
                <path d="M103.01,32.03 L101.91,33.46 L102.82,33.97 L105.28,30.81 L106.18,31.35 L102.25,36.66 L101.25,36.03 L102.25,34.75 L100.46,33.75 L101.37,32.58 L100.46,32.07 L97.4600001,35.59 L96.4600001,35.05 L100.12,30.63 L103.01,32.03 Z M99.9100001,34.37 L99.2300001,35.23 L100.16,35.76 L100.83,34.89 L99.9100001,34.37 Z" id="Shape" fill="#FBBB2B"></path>
                <path d="M60.65,106.17 L59.5,107.66 L60.5,108.2 L63.14,104.8 L64.14,105.38 L59.91,111.1 L58.91,110.42 L59.91,109.04 L57.91,107.97 L58.91,106.7 L57.91,106.16 L54.73,109.94 L53.64,109.37 L57.59,104.6 L60.65,106.17 Z M57.36,108.69 L56.63,109.62 L57.63,110.19 L58.35,109.25 L57.36,108.69 Z" id="Shape" fill="#FBBB2B"></path>
                <path d="M15.46,33.46 L14.3,34.94 L15.3,35.49 L17.91,32.13 L18.91,32.71 L14.67,38.46 L13.67,37.78 L14.72,36.4 L12.79,35.33 L13.79,34.06 L12.79,33.51 L9.61000001,37.3 L8.52000001,36.73 L12.47,31.96 L15.46,33.46 Z M12.17,35.97 L11.43,36.91 L12.43,37.48 L13.15,36.48 L12.17,35.97 Z" id="Shape" fill="#FBBB2B"></path>
                <path d="M92.7200001,20.29 L93.2600001,19.38 L92.0500001,18.62 L93.0500001,16.91 L90.1100001,15.07 L88.4700001,17.63 L90.5300001,18.93 L88.5300001,22.34 L92.0900001,24.53 L92.6200001,23.61 L90.0700001,22.05 L90.5400001,21.25 L91.7600001,22.01 L92.3000001,21.1 L91.0800001,20.33 L91.5500001,19.54 L92.7200001,20.29 Z M89.9900001,17.29 L90.4800001,16.5 L91.5600001,17.18 L91.0900001,17.98 L89.9900001,17.29 Z" id="Shape" fill="#FBBB2B"></path>
                <path d="M78.1300001,104.3 L78.6700001,103.39 L77.4600001,102.63 L78.4600001,100.92 L75.5200001,99.0800001 L73.9100001,101.64 L75.9700001,102.94 L73.9100001,106.35 L77.4600001,108.54 L78.0000001,107.62 L75.4500001,106.06 L75.9200001,105.26 L77.1400001,106.03 L77.6800001,105.11 L76.4600001,104.34 L76.9300001,103.55 L78.1300001,104.3 Z M75.4000001,101.3 L75.8800001,100.51 L76.9700001,101.19 L76.5000001,101.99 L75.4000001,101.3 Z" id="Shape" fill="#FBBB2B"></path>
                <path d="M9.51000001,52.23 L10.05,51.31 L8.84000001,50.55 L9.84000001,48.84 L6.91000001,47 L5.27,49.57 L7.33000001,50.86 L5.28,54.27 L8.83000001,56.46 L9.37000001,55.54 L6.82000001,53.98 L7.29000001,53.18 L8.51000001,53.95 L9.04000001,53.03 L7.83000001,52.27 L8.30000001,51.47 L9.51000001,52.23 Z M6.78000001,49.23 L7.26000001,48.45 L8.35000001,49.13 L7.87000001,49.92 L6.78000001,49.23 Z" id="Shape" fill="#FBBB2B"></path>
                <path d="M58.51,10.01 L61.38,6.39 L58.18,2.83 L55.18,6.59000001 L56.55,7.97000001 L55.08,9.85000001 L56.49,11.22 L55.17,12.89 L55.89,13.65 L57.76,11.13 L56.44,9.79000001 L57.31,8.79000001 L58.51,10.01 Z M58.2,4.57 L59.91,6.46 L58.45,8.30000001 L56.67,6.46 L58.2,4.57 Z" id="Shape" fill="#FBBB2B"></path>
                <polygon id="Path" fill="#FBBB2B" points="58.32 5.75 57.79 6.41 58.38 7.02000001 58.89 6.38"></polygon>
                <path d="M101.11,87.2700001 L103.99,83.6500001 L100.78,80.1000001 L97.7800001,83.8500001 L99.1500001,85.2400001 L97.6700001,87.1100001 L99.0800001,88.4600001 L97.7700001,90.1200001 L98.4800001,90.8800001 L100.36,88.3600001 L99.0400001,87.0200001 L99.9100001,86.0200001 L101.11,87.2700001 Z M100.81,81.8300001 L102.52,83.7400001 L101.06,85.5800001 L99.2800001,83.7500001 L100.81,81.8300001 Z" id="Shape" fill="#FBBB2B"></path>
                <polygon id="Path" fill="#FBBB2B" points="100.93 83.0200001 100.4 83.6800001 100.99 84.2900001 101.5 83.6500001"></polygon>
                <path d="M16.18,86.0600001 L19.06,82.4600001 L15.85,78.9100001 L12.85,82.6600001 L14.22,84.0500001 L12.74,85.9200001 L14.15,87.3000001 L12.84,88.9600001 L13.55,89.7200001 L15.43,87.2100001 L14.11,85.8400001 L14.98,84.8400001 L16.18,86.0600001 Z M15.91,80.6200001 L17.62,82.5200001 L16.13,84.3600001 L14.35,82.5300001 L15.91,80.6200001 Z" id="Shape" fill="#FBBB2B"></path>
                <polygon id="Path" fill="#FBBB2B" points="16 81.8000001 15.47 82.4600001 16.06 83.0700001 16.57 82.4300001"></polygon>
                <path d="M75.3500001,10.13 L74.0500001,14.13 L72.8200001,14.13 L74.2000001,10.13 L75.3500001,10.13 Z M75.4500001,12.68 L77.4500001,12.68 L77.7000001,12.05 L78.2000001,14.16 L79.4500001,14.16 L78.3500001,10.21 L77.3500001,10.21 L76.7900001,11.67 L75.7900001,11.67 L75.4500001,12.68 Z M76.2800001,7.73000001 L75.4200001,8.73000001 L76.3300001,9.65000001 L77.1400001,8.65000001 L76.2800001,7.73000001 Z" id="Shape" fill="#FBBB2B"></path>
                <path d="M87.6800001,95.9900001 L86.3900001,99.9900001 L85.1600001,99.9900001 L86.5300001,95.9900001 L87.6800001,95.9900001 Z M87.7900001,98.5400001 L89.7900001,98.5400001 L90.0300001,97.9100001 L90.5300001,100.02 L91.7900001,100.02 L90.6900001,96.0200001 L89.6900001,96.0200001 L89.1200001,97.4800001 L88.1200001,97.4800001 L87.7900001,98.5400001 Z M88.6100001,93.5400001 L87.7500001,94.5400001 L88.6700001,95.4500001 L89.4800001,94.4500001 L88.6100001,93.5400001 Z" id="Shape" fill="#FBBB2B"></path>
                <path d="M7.55000001,67.5600001 L6.26,71.5600001 L5.02,71.5600001 L6.4,67.5600001 L7.55000001,67.5600001 Z M7.66000001,70.1100001 L9.66000001,70.1100001 L9.91000001,69.4600001 L10.41,71.5800001 L11.67,71.5800001 L10.57,67.6400001 L9.53000001,67.6400001 L8.96000001,69.1000001 L7.96000001,69.1000001 L7.66000001,70.1100001 Z M8.48000001,65.1100001 L7.62000001,66.1100001 L8.54000001,67.0300001 L9.35000001,66.0300001 L8.48000001,65.1100001 Z" id="Shape" fill="#FBBB2B"></path>
                <path d="M58.81,14.91 L57.28,14.91 C33.5814614,14.91 14.37,34.1214614 14.37,57.82 L14.37,117.46 C14.37,117.592548 14.4774517,117.7 14.61,117.7 L101.48,117.7 C101.612548,117.7 101.72,117.592548 101.72,117.46 L101.72,57.82 C101.72,46.4395605 97.1991381,35.525234 89.151952,27.478048 C81.104766,19.430862 70.1904396,14.91 58.81,14.91 Z" id="Path" fill="#FBBB2B"></path>
                <path d="M57.96,16.02 L57.96,16.02 C34.7971776,16.02 16.02,34.7971776 16.02,57.96 L16.02,115.96 L99.9100001,115.96 L99.9100001,57.96 C99.8769407,34.8069819 81.1130254,16.0475396 57.96,16.02 Z" id="Path" fill="#875BF2"></path>
                <path d="M58.39,25.88 L58.39,25.88 C39.4300646,25.88 24.06,41.2500646 24.06,60.21 L24.06,108.34 L92.7200001,108.34 L92.7200001,60.21 C92.7200001,41.2500646 77.3499355,25.88 58.39,25.88 Z" id="Path" fill="#291557"></path>
                <polygon id="Path" fill="#FBBB2B" points="82.2500001 54.54 80.4000001 53.77 49.27 40.67 39.12 36.4 73.8100001 26.91 75.2400001 31.59 78.7400001 43.05"></polygon>
                <polygon id="Path" fill="#EB3653" points="81.3600001 59.93 49.27 40.67 41.24 35.85 75.2400001 31.59 78.7400001 43.05 80.4000001 53.77"></polygon>
                <path d="M25.17,96.6800001 L26.61,96.6800001 L26.61,84.9200001 C25.7717287,88.7877744 25.2897126,92.7242389 25.17,96.6800001 L25.17,96.6800001 Z" id="Path" fill="#FB782C"></path>
                <path d="M25.12,59.85 L26.56,59.85 L26.56,48.1 C25.7222239,51.9644802 25.24021,55.8975799 25.12,59.85 L25.12,59.85 Z" id="Path" fill="#FB782C"></path>
                <path d="M82.7800001,48.33 C82.7689795,44.9081248 79.991893,42.14 76.5700001,42.14 L25.91,42.21 L25.99,103.84 L76.6300001,103.77 C78.2742413,103.772669 79.851761,103.119993 81.0134779,101.9564 C82.1751948,100.792806 82.8253234,99.2142349 82.8200325,97.5700001 L82.7800001,48.33 Z" id="Path" fill="#FB782C"></path>
                <path d="M26.61,101.7 L77.5200001,101.63 C77.7139509,99.2189793 79.2669996,97.1301289 81.5200001,96.2500001 L32.21,96.3200001 C32.21,96.3200001 27.73,96.3900001 26.61,101.7 Z" id="Path" fill="#F6A12A"></path>
                <path d="M38.55,23.85 C38.55,23.85 39.91,25.32 38.34,29.46 C36.77,33.6 37.56,34.67 37.56,34.67 L43.56,34.67 C43.56,34.67 42.82,33.67 44.34,29.46 C45.86,25.25 44.55,23.83 44.55,23.83 L38.55,23.85 Z" id="Path" fill="#FBBB2B"></path>
                <path d="M34.5054944,34.6562714 L82.9554945,34.6562714 C85.8991722,34.6562714 88.2854944,37.0425938 88.2854944,39.9862715 L88.2854944,90.9862715 C88.2854944,93.9299492 85.8991722,96.3162714 82.9554945,96.3162714 L34.5054944,96.3162714 L34.5054944,34.6562714 Z" id="Path" fill="#FB782C" transform="translate(61.395494, 65.486271) rotate(-0.070000) translate(-61.395494, -65.486271) "></path>
                <path d="M25.91,42.21 C25.91,42.21 26.48,34.7 34.45,34.69 L34.53,96.3100001 C34.53,96.3100001 27.12,96.8000001 25.99,103.84 L25.91,42.21 Z" id="Path" fill="#FB782C"></path>
                <path d="M82.9100001,46.39 L88.6100001,52.07 C88.7919551,52.2581171 89.0701139,52.3164933 89.312345,52.2173988 C89.5545761,52.1183042 89.7120646,51.8817086 89.7100808,51.62 L89.7100808,33.68 C89.7127296,33.5094394 89.646178,33.3450621 89.525558,33.2244421 C89.4049379,33.103822 89.2405607,33.0372705 89.0700001,33.0399193 L71.1300001,33.0399193 C70.8682915,33.0379355 70.6316959,33.195424 70.5326013,33.4376551 C70.4335068,33.6798862 70.491883,33.958045 70.6800001,34.14 L76.3800001,39.82 C76.5003361,39.9389815 76.5686509,40.1007797 76.5700001,40.27 L76.5700001,45.55 C76.5700001,45.9034623 76.8565378,46.19 77.2100001,46.19 L82.4100001,46.19 C82.597969,46.1798911 82.7808563,46.253046 82.9100001,46.39 Z" id="Path" fill="#FBBB2B"></path>
                <path d="M83.2900001,43.82 L86.9100001,47.46 C87.0245066,47.5807734 87.2018305,47.6180271 87.3552574,47.5535433 C87.5086843,47.4890596 87.6061531,47.3363133 87.6000001,47.17 L87.6000001,35.78 C87.6000001,35.5535633 87.4164368,35.37 87.1900001,35.37 L75.8400001,35.37 C75.6783981,35.3737056 75.534056,35.472016 75.4714253,35.6210338 C75.4087946,35.7700517 75.4395662,35.9419606 75.5500001,36.06 L79.1600001,39.66 C79.2378365,39.7362826 79.2811771,39.8410223 79.2800001,39.95 L79.2800001,43.28 C79.2800001,43.5064368 79.4635633,43.69 79.6900001,43.69 L83.0100001,43.69 C83.1164521,43.6962177 83.2165537,43.7426934 83.2900001,43.82 L83.2900001,43.82 Z" id="Path" fill="#291557"></path>
                <path d="M76.2700001,91.1800001 L70.5900001,96.8800001 C70.4090876,97.0629397 70.3553126,97.3364293 70.4534937,97.5742458 C70.5516748,97.8120623 70.7827218,97.9679649 71.0400001,97.9700001 L88.9800001,97.9700001 C89.3350739,97.9645368 89.6200192,97.6751159 89.6200192,97.3200001 L89.6200192,79.3900001 C89.6219986,79.1309027 89.4675771,78.8961642 89.2288592,78.7954209 C88.9901413,78.6946775 88.7142333,78.7478091 88.5300001,78.9300001 L82.8400001,84.6300001 C82.7252833,84.756489 82.5606559,84.8259983 82.3900001,84.8200001 L77.0900001,84.8200001 C76.7365378,84.8200001 76.4500001,85.1065378 76.4500001,85.4600001 L76.4500001,90.7300001 C76.4492398,90.8973995 76.3848974,91.0582555 76.2700001,91.1800001 L76.2700001,91.1800001 Z" id="Path" fill="#FBBB2B"></path>
                <path d="M35.3953818,34.0718546 L45.5153818,34.0718546 C46.3824688,34.0718546 47.0853818,34.7747675 47.0853818,35.6418546 L47.0853818,95.1118546 C47.0853818,95.9789416 46.3824688,96.6818546 45.5153818,96.6818546 L35.3953818,96.6818546 C34.5282947,96.6818546 33.8253818,95.9789416 33.8253818,95.1118546 L33.8253818,35.6418546 C33.8253818,34.7747675 34.5282947,34.0718546 35.3953818,34.0718546 Z" id="Rectangle" fill="#FBBB2B" transform="translate(40.455382, 65.376855) rotate(-0.070000) translate(-40.455382, -65.376855) "></path>
                <path d="M37.1349481,33.2418548 L43.7749481,33.2418548 C44.5094868,33.2418548 45.1049481,33.8373161 45.1049481,34.5718548 L45.1049481,96.8018548 L35.8049481,96.8018548 L35.8049481,34.5718548 C35.8049481,33.8373161 36.4004094,33.2418548 37.1349481,33.2418548 Z" id="Path" fill="#291557" transform="translate(40.454948, 65.021855) rotate(-0.070000) translate(-40.454948, -65.021855) "></path>
                <path d="M25.11,51.97 C25.11,51.97 25.11,43.3 33.26,43.3199655 L48.26,43.3199655 C48.6940517,43.3253926 49.0446075,43.6759484 49.05,44.11 L49.05,48.56 C49.05,48.996305 48.696305,49.35 48.26,49.35 L33.26,49.35 C33.26,49.35 25.74,48.57 25.12,59.83 L25.11,51.97 Z" id="Path" fill="#FBBB2B"></path>
                <path d="M33.26,43.32 L48.26,43.32 C48.6940517,43.3253926 49.0446075,43.6759484 49.05,44.11 L49.05,48.56 C49.05,48.996305 48.696305,49.35 48.26,49.35 L33.26,49.35" id="Path" fill="#291557"></path>
                <path d="M25.16,88.8000001 C25.16,88.8000001 25.16,80.1200001 33.3,80.1499225 L48.3,80.1499225 C48.5085961,80.1473255 48.7095708,80.2283217 48.8580192,80.3748909 C49.0064676,80.5214602 49.09,80.7213869 49.09,80.9300001 L49.09,85.4100001 C49.09,85.6186133 49.0064676,85.81854 48.8580192,85.9651092 C48.7095708,86.1116785 48.5085961,86.1926746 48.3,86.1900001 L33.3,86.1900001 C33.3,86.1900001 25.78,85.4200001 25.16,96.6800001 L25.16,88.8000001 Z" id="Path" fill="#FBBB2B"></path>
                <path d="M33.3,80.1500001 L48.3,80.1500001 C48.5085961,80.1473255 48.7095708,80.2283217 48.8580192,80.3748909 C49.0064676,80.5214602 49.09,80.7213869 49.09,80.9300001 L49.09,85.4100001 C49.09,85.6186133 49.0064676,85.81854 48.8580192,85.9651092 C48.7095708,86.1116785 48.5085961,86.1926746 48.3,86.1900001 L33.3,86.1900001" id="Path" fill="#291557"></path>
                <path d="M35.65,43.27 L26.11,43.27 C26.11,43.27 22.44,43.56 22.05,40.72 L22.05,43.46 C22.0864062,46.6512806 24.5840989,49.271238 27.77,49.46 C29.4390186,49.5425536 31.1120596,49.478978 32.77,49.27 L35.47,49.27 L35.65,43.27 Z" id="Path" fill="#291557"></path>
                <path d="M35.7,80.1800001 L26.16,80.1800001 C26.16,80.1800001 22.49,80.4600001 22.0999184,77.6200001 L22.0999184,80.3500001 C22.0834189,83.5817719 24.5941532,86.2636926 27.82,86.4600001 C29.4893101,86.5392381 31.1623521,86.4723164 32.82,86.2600001 L35.53,86.2600001 L35.7,80.1800001 Z" id="Path" fill="#291557"></path>
                <circle id="Oval" fill="#DC1638" cx="32.76" cy="46.28" r="1"></circle>
                <circle id="Oval" fill="#FBBB2B" cx="29.33" cy="46.28" r="1"></circle>
                <circle id="Oval" fill="#FBBB2B" cx="29.37" cy="83.1700001" r="1"></circle>
                <circle id="Oval" fill="#DC1638" cx="32.81" cy="83.2000001" r="1"></circle>
                <path d="M32.96,47.28 C32.4077153,47.28 31.96,46.8322848 31.96,46.28 C31.96,45.7277153 32.4077153,45.28 32.96,45.28 L38.36,45.28 C38.9122848,45.28 39.36,45.7277153 39.36,46.28 C39.36,46.8322848 38.9122848,47.28 38.36,47.28 L32.96,47.28 Z" id="Path" fill="#FBBB2B"></path>
                <path d="M33.01,84.2000001 C32.4577153,84.2000001 32.01,83.7522848 32.01,83.2000001 C32.01,82.6477153 32.4577153,82.2000001 33.01,82.2000001 L38.4,82.2000001 C38.9522848,82.2000001 39.4,82.6477153 39.4,83.2000001 C39.4,83.7522848 38.9522848,84.2000001 38.4,84.2000001 L33.01,84.2000001 Z" id="Path" fill="#FBBB2B"></path>
                <path d="M79.2800001,91.6300001 L75.6900001,95.2400001 C75.5707373,95.3532784 75.532978,95.5280177 75.5948275,95.6804324 C75.6566769,95.8328471 75.8055247,95.9318618 75.9700001,95.9300259 L87.3300001,95.9300259 C87.5525222,95.9245711 87.7300259,95.7425884 87.7300259,95.5200001 L87.7300259,84.1500001 C87.7318618,83.9855247 87.6328471,83.8366769 87.4804324,83.7748275 C87.3280177,83.7129781 87.1532784,83.7507373 87.0400001,83.8700001 L83.4300001,87.4600001 C83.3508665,87.5335057 83.2479352,87.576098 83.1400001,87.5800001 L79.8000001,87.5800001 C79.6921579,87.5799664 79.588871,87.623479 79.5135623,87.7006705 C79.4382535,87.777862 79.397304,87.8821916 79.4000001,87.9900001 L79.4000001,91.3200001 C79.406864,91.4358485 79.3630761,91.5489671 79.2800001,91.6300001 L79.2800001,91.6300001 Z" id="Path" fill="#291557"></path>
                <path d="M81.7100355,65.0100001 C81.7189868,60.9882976 80.0174163,57.1524924 77.0300001,54.46 C75.7940043,50.9557066 73.8310817,47.752326 71.2700001,45.06 C71.2700001,45.06 72.1900001,48.73 71.2700001,51.31 C70.1000001,49.05 68.0900001,44.84 67.5400001,41.64 C67.0000001,44.84 64.92,49.06 63.72,51.33 C63.3230647,49.1411836 63.3230647,46.8988165 63.72,44.71 C61.0270596,47.5612314 59.0045462,50.9776392 57.8,54.71 C54.9436072,57.3939509 53.3255363,61.1404908 53.3299908,65.0600001 C53.3299908,65.1200001 53.3299908,65.1900001 53.3299908,65.2500001 C53.3299908,65.3100001 53.3299908,65.3700001 53.3299908,65.4400001 C53.3323575,69.4477705 55.0329481,73.266832 58.01,75.9500001 C59.2481782,79.4532538 61.2108356,82.6562017 63.77,85.3500001 C63.77,85.3500001 62.85,81.6800001 63.77,79.1000001 C64.91,81.3500001 66.9100001,85.5600001 67.4600001,88.7600001 C68.0000001,85.5600001 70.0800001,81.3400001 71.2900001,79.0700001 C71.6834863,81.2591254 71.6834863,83.5008747 71.2900001,85.6900001 C73.9829405,82.8387687 76.0054539,79.4223609 77.2100001,75.6900001 C80.0648107,73.0231428 81.6928976,69.2966327 81.7100355,65.3900001 C81.7100355,65.3200001 81.7100355,65.2600001 81.7100355,65.2000001 C81.7100355,65.14 81.7100355,65.0800001 81.7100355,65.0100001 Z" id="Path" fill="#291557"></path>
                <line x1="63.91" y1="51.68" x2="63.73" y2="51.73" id="Path" fill="#291557"></line>
                <circle id="Oval" fill="#EB3653" cx="67.5200001" cy="65.3000001" r="11.57"></circle>
                <path d="M57.45,65.4600001 C57.45,65.4600001 66.7400001,52.46 77.5800001,65.1400001 C77.5800001,65.1400001 68.8400001,76.8500001 57.45,65.4600001 Z" id="Path" fill="#FFFFFF"></path>
                <path d="M67.5600001,72.4000001 C63.95,72.4000001 60.37,69.7700001 56.92,66.3200001 L56.46,65.8600001 L56.83,65.3400001 C57.01,65.0900001 61.39,58.46 67.5200001,58.2 C71.3200001,58.03 74.7200001,60.95 78.1500001,64.96 L78.5500001,65.4200001 L78.1900001,65.9100001 C78.0300001,66.1200001 74.2800001,71.9100001 68.3700001,72.3700001 C68.1033334,72.3900001 67.8333334,72.4000001 67.5600001,72.4000001 Z M58.48,65.7100001 C61.71,68.7700001 65,70.2000001 68.2500001,69.9700001 C72.4500001,69.6700001 75.5200001,66.6500001 76.5700001,65.4700001 C73.5700001,62.16 70.4900001,60.54 67.3300001,60.68 C62.96,60.87 59.6,64.38 58.48,65.7100001 L58.48,65.7100001 Z" id="Shape" fill="#C70332"></path>
                <circle id="Oval" fill="#512AAB" cx="67.5100001" cy="65.3400001" r="4.66"></circle>
                <circle id="Oval" fill="#291557" cx="67.5100001" cy="65.3400001" r="1.92"></circle>
                <circle id="Oval" fill="#FFFFFF" cx="68.2800001" cy="63.42" r="1.25"></circle>
                <path d="M57.52,103.79 C57.23,103.04 55.52,98.6700001 54.37,98.4600001 L52.73,103.79 L57.52,103.79 Z" id="Path" fill="#291557" opacity="0.44"></path>
                <path d="M54.37,98.4600001 C56.54,100.4 56.86,111.53 57.06,114.37 C57.26,117.21 62.45,120.37 63.87,120.55 L62.75,115.92 L66.4600001,120.54 L73.3100001,120.54 C73.3100001,120.54 67.8300001,117.92 66.4500001,114.37 C65.0700001,110.82 65.9100001,101.46 63.44,98.4600001 L54.37,98.4600001 Z" id="Path" fill="#FB782C"></path>
                <path d="M56.49,98.4600001 C58.33,99.8600001 58.89,112.93 59.05,114.14 C59.39,116.83 62.55,117.66 62.55,117.66 L67.5500001,118.05 C67.5500001,118.05 65.0400001,117.64 64.19,113.93 C63.69,111.71 63.44,103.82 62.95,101.4 C62.8196008,100.249121 62.2456203,99.1944321 61.35,98.4600001 L56.49,98.4600001 Z" id="Path" fill="#291557"></path>
                <path d="M35.13,100.61 C34.8317812,101.681202 34.7804938,102.806105 34.98,103.9 C35.5340488,102.76695 36.2043133,101.694527 36.98,100.7 C36.98,100.7 36.46,103.61 36.24,105.78 C36.02,107.95 34.74,108.38 34.74,108.38 L37.49,107.38 L37.41,108.95 C37.41,108.95 39.36,108.62 39.48,105.95 C39.6542164,104.091159 40.1802208,102.282383 41.03,100.62 L35.13,100.61 Z" id="Path" fill="#EB3653"></path>
                <path d="M38.14,51.21 C36.7151054,51.21 35.5599219,50.0548947 35.5599219,48.63 L35.5599219,44.05 C35.5546498,43.3631982 35.8244293,42.7028297 36.309146,42.2162343 C36.7938627,41.7296388 37.4531826,41.4573067 38.14,41.4599212 L42.72,41.4599212 C43.4058937,41.4546202 44.0652572,41.724713 44.5502721,42.2097279 C45.0352871,42.6947429 45.3053798,43.3541064 45.3000789,44.04 L45.3000789,48.62 C45.3000789,50.0465214 44.1465107,51.2044922 42.72,51.21 L38.14,51.21 Z M42.72,43.46 L38.14,43.46 C37.8196749,43.46 37.5599866,43.7196749 37.5599866,44.04 L37.5599866,48.62 C37.558944,48.7740221 37.6202656,48.9219155 37.73,49.03 C37.8387213,49.138786 37.9861992,49.1999354 38.14,49.2 L42.73,49.2 C42.8838008,49.1999354 43.0312788,49.138786 43.14,49.03 C43.2503084,48.9182065 43.3114923,48.7670463 43.3100267,48.61 L43.3100267,44.04 C43.3100267,43.8844261 43.2475454,43.7353649 43.1366018,43.6263017 C43.0256582,43.5172385 42.8755509,43.4573177 42.72,43.46 Z" id="Shape" fill="#FBBB2B"></path>
                <path d="M38.15,88.0400001 C36.7234787,88.0400107 35.5655078,86.8865108 35.5599806,85.4600001 L35.5599806,80.8800001 C35.5573411,80.1940105 35.8279875,79.5352055 36.3121199,79.0491967 C36.7962522,78.5631878 37.4540053,78.2900001 38.14,78.2900001 L42.72,78.2900001 C44.1426177,78.2954823 45.2945178,79.4473824 45.3,80.8700001 L45.3,85.4600001 C45.3,86.8865214 44.1465107,88.0444923 42.72,88.0500001 L38.15,88.0400001 Z M42.72,80.2800001 L38.14,80.2800001 C37.8196749,80.2800001 37.56,80.5396749 37.56,80.8600001 L37.56,85.4600001 C37.5572637,85.6173007 37.6185452,85.7689646 37.7297904,85.8802097 C37.8410355,85.9914549 37.9926994,86.0527364 38.15,86.0500001 L42.73,86.0500001 C42.885574,86.0500232 43.0346352,85.9875454 43.1436984,85.8766018 C43.2527616,85.7656583 43.3126823,85.6155509 43.31,85.4600001 L43.31,80.8700001 C43.3127363,80.7126994 43.2514549,80.5610356 43.1402097,80.4497904 C43.0289645,80.3385452 42.8773006,80.2772638 42.72,80.2800001 Z" id="Shape" fill="#FBBB2B"></path>
                <circle id="Oval" fill="#FFFFFF" cx="50.85" cy="65.3000001" r="1.3"></circle>
                <circle id="Oval" fill="#FFFFFF" cx="84.2100001" cy="65.3000001" r="1.3"></circle>
                <circle id="Oval" fill="#FFFFFF" cx="67.5600001" cy="39.29" r="1.3"></circle>
                <circle id="Oval" fill="#FFFFFF" cx="67.5000001" cy="91.1500001" r="1.3"></circle>
                <path d="M63.73,6.78000001 C63.73,4.25 60.92,1.25 57.05,1.25 C53.18,1.25 50.36,4.25 50.36,6.78000001 C50.3224204,8.07373747 50.4467175,9.36709865 50.73,10.63 C51.05,11.37 53.44,11.44 54.01,11.73 C54.58,12.02 54.21,13.25 54.28,13.66 C54.35,14.07 55.28,14.77 56.99,14.79 L57.1,14.79 C58.79,14.79 59.74,14.05 59.81,13.66 C59.88,13.27 59.52,12.03 60.08,11.73 C60.64,11.43 63.08,11.38 63.36,10.63 C63.594953,9.35985353 63.7187548,8.07164567 63.73,6.78000001 L63.73,6.78000001 Z" id="Path" fill="#FBBB2B"></path>
                <path d="M58.29,12.63 C58.09,12.24 57.62,10.15 57.06,10.13 L57.06,10.13 C56.49,10.13 56.06,12.24 55.82,12.63 C55.58,13.02 56.61,13.53 57.05,13.54 L57.05,13.54 C57.5,13.53 58.49,13.01 58.29,12.63 Z" id="Path" fill="#291557"></path>
                <path d="M58.56,6.85000001 C59.2,6.45 61.85,7.85000001 61.98,8.57000001 C62.1448027,9.29945575 61.7029219,10.0285591 60.98,10.22 C60.36,10.45 57.98,9.95000001 57.98,8.46000001 C57.9434315,7.86636928 58.1532551,7.28392773 58.56,6.85000001 L58.56,6.85000001 Z" id="Path" fill="#291557"></path>
                <path d="M55.52,6.85000001 C54.88,6.45 52.23,7.85000001 52.1,8.57000001 C51.9351974,9.29945575 52.3770782,10.0285591 53.1,10.22 C53.71,10.45 56.1,9.95000001 56.1,8.46000001 C56.1365686,7.86636928 55.926745,7.28392773 55.52,6.85000001 L55.52,6.85000001 Z" id="Path" fill="#291557"></path>
            </g>
        </g>
    </g>
</svg>